<svg xmlns="http://www.w3.org/2000/svg" viewBox="0 0 64 64"><path fill="#415697" d="M0 0h64v64H0z"/><path fill-rule="evenodd" clip-rule="evenodd" fill="#FFF" d="M39.4 39.5v-3.3c3.2-.2 6.2-.9 8-2.1v2.2c0 1.6-3.4 2.9-8 3.2zm0-4.9v-3.3c3.2-.2 6.2-.9 8-2.1v2.2c0 1.5-3.4 2.9-8 3.2zm0-5v-3.3l.1.1v-.1c3.2-.2 6.2-.9 7.9-2.1v2.2c0 1.5-3.4 2.9-8 3.2zm-.9-4.9c-2.1-2.3-6.6-3.3-11-3.4v-1.6c0-1.8 4.4-3.3 9.9-3.3s9.9 1.5 9.9 3.3v1.7c.1 1.7-3.8 3.1-8.8 3.3zm-2.1 3v1.7c0 1.8-4.4 3.3-9.9 3.3s-9.9-1.5-9.9-3.3v-1.7c0-1.8 4.4-3.3 9.9-3.3s9.9 1.5 9.9 3.3zm0 4.4v2.2c0 1.8-4.4 3.3-9.9 3.3s-9.9-1.5-9.9-3.3v-2.2c2.1 1.5 6 2.2 9.9 2.2s7.8-.7 9.9-2.2zm0 5v2.2c0 1.8-4.4 3.3-9.9 3.3s-9.9-1.5-9.9-3.3v-2.2c2.1 1.5 6 2.2 9.9 2.2s7.8-.7 9.9-2.2zm0 5v2.2c0 1.8-4.4 3.3-9.9 3.3s-9.9-1.5-9.9-3.3v-2.2c2.1 1.5 6 2.2 9.9 2.2s7.8-.7 9.9-2.2z"/></svg>