<svg xmlns="http://www.w3.org/2000/svg" viewBox="0 0 64 64"><path fill="#415697" d="M0 0h64v64H0z"/><path fill="#FFF" d="M49 22H35c-.552 0-1-.448-1-1v-4c0-.552.448-1 1-1h14c.552 0 1 .448 1 1v4c0 .552-.448 1-1 1z"/><path fill="#415697" d="M46 18h2v2h-2zM42 18h2v2h-2z"/><path fill="#FFF" d="M49 30H35c-.552 0-1-.448-1-1v-4c0-.552.448-1 1-1h14c.552 0 1 .448 1 1v4c0 .552-.448 1-1 1z"/><path fill="#415697" d="M46 26h2v2h-2zM42 26h2v2h-2z"/><path fill="#FFF" d="M49 42H35c-.552 0-1-.448-1-1v-8c0-.552.448-1 1-1h14c.552 0 1 .448 1 1v8c0 .552-.448 1-1 1z"/><path fill="#415697" d="M46 38h2v2h-2zM42 38h2v2h-2z"/><g><path fill="#FFF" d="M29 22H15c-.552 0-1-.448-1-1v-4c0-.552.448-1 1-1h14c.552 0 1 .448 1 1v4c0 .552-.448 1-1 1z"/><path fill="#415697" d="M26 18h2v2h-2zM22 18h2v2h-2z"/><path fill="#FFF" d="M29 30H15c-.552 0-1-.448-1-1v-4c0-.552.448-1 1-1h14c.552 0 1 .448 1 1v4c0 .552-.448 1-1 1z"/><path fill="#415697" d="M26 26h2v2h-2zM22 26h2v2h-2z"/><path fill="#FFF" d="M29 42H15c-.552 0-1-.448-1-1v-8c0-.552.448-1 1-1h14c.552 0 1 .448 1 1v8c0 .552-.448 1-1 1z"/><path fill="#415697" d="M26 38h2v2h-2zM22 38h2v2h-2z"/></g><g fill="#FFF"><path d="M40 44h4v2h-4zM20 44h4v2h-4z"/><path opacity=".5" d="M40 42h4v2h-4zM20 42h4v2h-4z"/><path d="M20 46h24v1c0 .552-.448 1-1 1H21c-.552 0-1-.448-1-1v-1z"/></g></svg>