<?xml version="1.0" encoding="utf-8"?>
<svg version="1.1" id="Ebene_1" xmlns="http://www.w3.org/2000/svg" xmlns:xlink="http://www.w3.org/1999/xlink" x="0px" y="0px"
	 viewBox="0 0 150 42" enable-background="new 0 0 150 42" xml:space="preserve">
<path d="M60.2,14.4v27h-3.8v-27h-6.7v-3.3h17.1v3.3H60.2z M80.4,27.3v14h-3.9v-14l-7.7-16.2h4.1l5.7,12.2l5.7-12.2h3.9L80.4,27.3z
	 M99.9,29.9h-3.6v11.4h-3.8V11.1c0,0,3.7-0.3,7.3-0.3c6.6,0,8.5,4.1,8.5,9.4C108.3,26.7,106,29.9,99.9,29.9 M100.3,13.9
	c-2.4,0-4.1,0.3-4.1,0.3v12.6h4.1c2.4,0,4.1-1.6,4.1-6.3C104.4,16.1,103.4,13.9,100.3,13.9 M121.8,41.6c-7.1,0-9-5.2-9-15.8
	c0-10.2,1.9-15.1,9-15.1s9,4.9,9,15.1C130.9,36.4,129,41.6,121.8,41.6 M121.8,13.9c-3.9,0-5.2,2.6-5.2,12.1c0,9.3,1.3,12.4,5.2,12.4
	c3.9,0,5.2-3.1,5.2-12.4C127,16.6,125.7,13.9,121.8,13.9 M141.7,41.6c-2.1,0-5.3-0.6-5.7-0.7v-3.1c1,0.2,3.7,0.7,5.6,0.7
	c2.2,0,3.6-1.9,3.6-5.2c0-3.9-0.6-6-3.7-6H138V24h3.1c3.5,0,3.7-3.6,3.7-5.3c0-3.4-1.1-4.8-3.2-4.8c-1.9,0-4.1,0.5-5.3,0.7v-3.2
	c0.5-0.1,3-0.7,5.2-0.7c4.4,0,7,1.9,7,8.3c0,2.9-1,5.5-3.3,6.3c2.6,0.2,3.8,3.1,3.8,7.3C149,39.2,146.5,41.6,141.7,41.6"/>
<path d="M31.7,28.8c-0.6,0.2-1.1,0.2-1.7,0.2c-5.2,0-12.9-18.2-12.9-24.3c0-2.2,0.5-3,1.3-3.6C12,1.9,4.3,4.2,1.9,7.2
	C1.3,8,1,9.1,1,10.6c0,9.5,10.1,31,17.3,31C21.6,41.6,27.1,36.2,31.7,28.8"/>
<path d="M28.4,0.5c6.6,0,13.2,1.1,13.2,4.8c0,7.6-4.8,16.7-7.2,16.7C30,22,24.5,9.9,24.5,3.8C24.5,1,25.6,0.5,28.4,0.5"/>
</svg>