<?xml version="1.0" encoding="utf-8"?>
<!-- Generator: Adobe Illustrator 19.0.1, SVG Export Plug-In . SVG Version: 6.00 Build 0)  -->
<svg version="1.1" xmlns="http://www.w3.org/2000/svg" xmlns:xlink="http://www.w3.org/1999/xlink" x="0px" y="0px"
	 viewBox="0 0 64 64" enable-background="new 0 0 64 64" xml:space="preserve">
<g id="Background">
	<rect fill="#6DAAE0" width="64" height="64"/>
</g>
<g id="Icon">
	<path fill="#FFFFFF" d="M40,43.5c0-0.8-0.7-1.5-1.5-1.5H36V29.5c0-0.8-0.7-1.5-1.5-1.5h-8.1c-0.8,0-1.5,0.7-1.5,1.5v3.1
		c0,0.8,0.7,1.5,1.5,1.5H28v8h-2.5c-0.8,0-1.5,0.7-1.5,1.5v3.1c0,0.8,0.7,1.5,1.5,1.5h13.1c0.8,0,1.5-0.7,1.5-1.5V43.5z M36,17.4
		c0-0.8-0.7-1.5-1.5-1.5h-5.1c-0.8,0-1.5,0.7-1.5,1.5v5.1c0,0.8,0.7,1.5,1.5,1.5h5.1c0.8,0,1.5-0.7,1.5-1.5V17.4z"/>
</g>
</svg>
