<?xml version="1.0" encoding="utf-8"?>
<!-- Generator: Adobe Illustrator 19.0.1, SVG Export Plug-In . SVG Version: 6.00 Build 0)  -->
<svg version="1.1" xmlns="http://www.w3.org/2000/svg" xmlns:xlink="http://www.w3.org/1999/xlink" x="0px" y="0px"
	 viewBox="0 0 64 64" enable-background="new 0 0 64 64" xml:space="preserve">
<g id="Background">
	<rect fill="#FF8700" width="64" height="64"/>
</g>
<g id="Icon">
	<path fill-rule="evenodd" clip-rule="evenodd" fill="#FFFFFF" d="M42.8,32.8c-3.6,0-8.1-10.1-8.1-15.1c0-2.3,0.9-2.7,3.2-2.7
		c5.5,0,11,0.9,11,4C48.8,25.2,44.9,32.8,42.8,32.8z M28.5,18.5c0,5,6.4,20.2,10.7,20.2c0.5,0,0.9-0.1,1.4-0.2
		c-3.8,6.1-8.4,10.6-11.2,10.6c-5.9,0-14.3-17.9-14.3-25.7c0-1.2,0.3-2.2,0.7-2.8c2-2.5,8.4-4.4,13.7-5C28.9,16,28.5,16.6,28.5,18.5
		z"/>
</g>
</svg>
