<?xml version="1.0" encoding="utf-8"?>
<!-- Generator: Adobe Illustrator 19.0.1, SVG Export Plug-In . SVG Version: 6.00 Build 0)  -->
<svg version="1.1" xmlns="http://www.w3.org/2000/svg" xmlns:xlink="http://www.w3.org/1999/xlink" x="0px" y="0px"
	 viewBox="0 0 64 64" enable-background="new 0 0 64 64" xml:space="preserve">
<g id="Background">
	<rect fill="#EE8433" width="64" height="64"/>
</g>
<g id="Icon">
	<path fill-rule="evenodd" clip-rule="evenodd" fill="#FFFFFF" d="M44.1,49.5H19.9c-1,0-1.9-0.8-1.9-1.9V16.4c0-1,0.8-1.9,1.9-1.9
		h15.5c1,0,2.5,0.6,3.2,1.3l6.1,5.1c0.7,0.7,1.3,2.2,1.3,3.2v23.5C46,48.7,45.2,49.5,44.1,49.5z M43.5,22.7L36.8,17
		c-0.1-0.1-0.5-0.3-0.8-0.4v7h8C43.8,23.2,43.7,22.8,43.5,22.7z M44,25.5h-8.6c-1,0-1.4-0.3-1.4-1.4v-7.6H20v31h24V25.5z M24.6,29.5
		h14.8c0.4,0,0.6,0.3,0.6,0.6v0.7c0,0.4-0.3,0.6-0.6,0.6H24.6c-0.4,0-0.6-0.3-0.6-0.6v-0.7C24,29.8,24.2,29.5,24.6,29.5z M24.6,33.5
		h14.8c0.4,0,0.6,0.3,0.6,0.6v0.7c0,0.4-0.3,0.6-0.6,0.6H24.6c-0.4,0-0.6-0.3-0.6-0.6v-0.7C24,33.8,24.2,33.5,24.6,33.5z M24.6,37.5
		h14.8c0.4,0,0.6,0.3,0.6,0.6v0.7c0,0.4-0.3,0.6-0.6,0.6H24.6c-0.4,0-0.6-0.3-0.6-0.6v-0.7C24,37.8,24.2,37.5,24.6,37.5z M24.6,41.5
		h14.8c0.4,0,0.6,0.3,0.6,0.6v0.7c0,0.4-0.3,0.6-0.6,0.6H24.6c-0.4,0-0.6-0.3-0.6-0.6v-0.7C24,41.8,24.2,41.5,24.6,41.5z"/>
</g>
</svg>
