<?xml version="1.0" encoding="utf-8"?>
<!-- Generator: Adobe Illustrator 19.0.1, SVG Export Plug-In . SVG Version: 6.00 Build 0)  -->
<svg version="1.1" xmlns="http://www.w3.org/2000/svg" xmlns:xlink="http://www.w3.org/1999/xlink" x="0px" y="0px"
	 viewBox="0 0 64 64" enable-background="new 0 0 64 64" xml:space="preserve">
<g id="Background">
	<rect fill="#DA6C39" width="64" height="64"/>
</g>
<g id="Icon">
	<path fill-rule="evenodd" clip-rule="evenodd" fill="#FFFFFF" d="M49.4,26l-5.8,18.9c-0.5,1.8-2.4,3.1-4.2,3.1H20
		c-2.1,0-4.4-1.7-5.2-3.9c-0.3-0.9-0.3-1.9,0-2.6c0-0.4,0.1-0.8,0.1-1.3c0-0.3-0.2-0.6-0.1-0.9c0.1-0.5,0.5-0.9,0.9-1.4
		c0.6-1,1.3-2.7,1.6-3.8c0.1-0.4-0.1-0.9,0-1.2c0.1-0.4,0.5-0.7,0.7-1.1c0.6-1,1.3-2.8,1.4-3.8c0-0.4-0.2-0.9,0-1.3
		c0.1-0.5,0.6-0.7,0.9-1.1c0.5-0.7,1.3-2.7,1.5-3.8c0-0.4-0.2-0.7-0.1-1.1c0.1-0.4,0.6-0.8,0.9-1.3c0.9-1.3,1.1-4.1,3.7-3.4l0,0.1
		c0.4-0.1,0.7-0.2,1.1-0.2h16c1,0,1.9,0.4,2.4,1.2c0.5,0.8,0.7,1.7,0.4,2.7l-5.8,18.9c-1,3.2-1.5,4.2-4.2,4.2H17.8
		c-0.3,0-0.6,0.1-0.8,0.3c-0.2,0.3-0.2,0.1,0,0.6c0.4,1.2,1.9,2.1,3,2.1h19.4c0.8,0,1.7-1.1,1.9-1.9l6.3-20.6
		c0.1-0.4,0.1-0.8,0.1-1.2c0.5,0.2,0.9,0.5,1.2,0.9C49.5,24,49.7,25,49.4,26z M34.3,29.3c0.7,0,3.2-2.7,4.2-4.9
		c0.5-1.1-1.3-1.4-3.3-1.4c-0.8,0-1.2,0.2-1.5,1C32.9,25.8,33,29.3,34.3,29.3z M27.2,35c1,0,3.3-1.6,5.5-3.7
		c-0.2,0.1-0.4,0.1-0.5,0.1c-1.5,0-1.5-5.3-0.8-7.1c0.3-0.6,0.5-0.9,0.8-1.1c-2,0.2-4.5,0.9-5.6,1.8c-0.2,0.2-0.5,0.6-0.7,1
		C24.8,28.8,25.1,35,27.2,35z"/>
</g>
</svg>
