<svg xmlns="http://www.w3.org/2000/svg" viewBox="0 0 16 16"><path fill="#FFF" d="M1 1h14v14H1V1z"/><path fill="#999" d="M1 1v14h14V1H1zm1 1h12v12H2V2z"/><path fill="#666" d="M13 5.883c0 .332-.037.627-.112.884-.072.253-.176.474-.31.662-.134.187-.296.354-.486.503-.186.147-.355.282-.592.404v1.226H9.875V7.8c.177-.064.604-.128.746-.194.145-.066.296-.173.453-.32.147-.133.26-.286.343-.46.085-.174.127-.372.127-.592 0-.33-.08-.563-.243-.7-.16-.143-.385-.213-.676-.213-.18 0-.382.052-.61.154-.223.102-.43.234-.615.395h-.15V4.36c.16-.09.405-.18.736-.276.33-.1.667-.148 1.008-.148.615 0 1.103.18 1.464.538.36.358.542.828.542 1.407zm-1.5 6.18H9.875V10.5H11.5v1.562zM7.25 12.063L3 8.743V7.382l4.25-3.317V5.78L4.274 8.07l2.974 2.277v1.716z"/></svg>