<svg xmlns="http://www.w3.org/2000/svg" viewBox="0 0 16 16"><path fill="#FFF" d="M1 1v14h7V8h7V1H1z"/><path fill="#999" d="M1 1v14h7v-1H2V2h12v6h1V1H1z"/><path fill="#666" d="M3 3h10v2H3z"/><path fill="#B9B9B9" d="M3 6h10v1H3zM3 8h5v1H3zM3 10h5v1H3zM3 12h5v1H3z"/><g><path fill="#666" d="M9 9h7v7H9z"/><path fill="#FFF" d="M10 10h5v5h-5z"/><path d="M11 13.115c0 .082.012.178.036.286.024.108.052.206.083.295.03.088.063.177.1.266.038.09.066.153.086.193l.043.085c.01.024.03.036.06.036.008 0 .014 0 .018-.002.036-.01.052-.036.05-.072-.062-.568.013-.97.225-1.204.09-.1.212-.18.364-.234.15-.057.34-.094.57-.113v.534c0 .06.027.102.082.126.017.007.035.01.052.01.038 0 .07-.012.096-.04l1.09-1.09c.03-.03.042-.06.042-.098s-.013-.07-.04-.096l-1.09-1.09c-.042-.045-.092-.055-.15-.03-.055.023-.083.065-.083.125v.56c-.584.04-1.01.196-1.276.47-.24.246-.36.608-.36 1.085z"/></g></svg>