<svg xmlns="http://www.w3.org/2000/svg" viewBox="0 0 16 16"><path fill="#59F" d="M2 0v16h12V4l-4-4H2z"/><path opacity=".65" fill="#FFF" d="M10 4V0l4 4h-4z"/><path fill="#FFF" d="M11.48 10.09c-.406-.405-.9-.29-1.403.08L8.68 8.772l2.118-2.158.192.192.73-.863-.664-.664-.863.73.192.19-2.158 2.12-1.4-1.4c.36-.504.48-1.004.083-1.4-.59-.59-1.016-.612-1.41-.392.09.08.182.16.286.264.588.588.738.798.06 1.476-.677.678-.866.506-1.454-.082-.104-.104-.185-.196-.264-.286-.22.394-.197.82.392 1.41.44.438.98.267 1.527-.178L7.424 9.11l-.458.45-.258-.26-2.19 2.19.99.992 2.19-2.19-.257-.258.45-.458 1.382 1.38c-.432.545-.61 1.095-.182 1.523.59.588 1.016.61 1.41.392-.09-.08-.182-.16-.286-.264-.588-.588-.738-.798-.06-1.476.678-.678.866-.506 1.454.082.105.104.186.196.265.286.22-.394.195-.82-.394-1.41z"/><path opacity=".15" d="M14 4v5l-4-5h4z"/></svg>