<svg xmlns="http://www.w3.org/2000/svg" viewBox="0 0 16 16"><path d="M1 1v14h10.5A3.5 3.5 0 0 1 8 11.5 3.5 3.5 0 0 1 11.5 8a3.5 3.5 0 0 1 3.5 3.5V1H1zm14 10.5a3.5 3.5 0 0 1-.002.027H15V11.5z" fill="#fff" stroke-linecap="square"/><path d="M3 7v4h5.04a3.5 3.5 0 0 1 3.46-3 3.5 3.5 0 0 1 1.5.342V7H3z" fill="#b9b9b9" stroke="#8c8c8c" stroke-width="0"/><path fill="#59f" stroke="#8c8c8c" stroke-width="0" d="M3 12h4v1H3z"/><path d="M1 1v14h10.5a3.5 3.5 0 0 1-2.45-1H2V2h12v7.055a3.5 3.5 0 0 1 1 2.445V1H1zm14 10.5a3.5 3.5 0 0 1-.002.027H15V11.5z" fill="#b9b9b9" stroke-linecap="square"/><path fill="#b9b9b8" stroke-linecap="square" d="M3 3h8v1H3z"/><path fill="#b9b9b9" stroke-linecap="square" d="M3 5h8v1H3z"/><rect transform="rotate(-45)" rx="1.497" ry=".746" y="17.912" x="-.666" height="4.459" width="1.338" fill="#e8a33d" stroke-width="1.367"/><circle cy="11.5" cx="11.5" r="2.5" fill="#59f" stroke-width="3.249"/><circle cx="11.5" cy="11.5" r="1.5" fill="#abd7ff" stroke-width="3.249"/><ellipse ry=".5" rx=".5" cy="11" cx="12" opacity=".604" fill="#fff"/></svg>