<svg xmlns="http://www.w3.org/2000/svg" viewBox="0 0 16 16"><path d="M2 0v16h12V4l-4-4zm8 0z" fill="#515151" stroke="#b9b9b9" stroke-width="0" stroke-linejoin="round"/><path d="M10 3.98V0l4 4z" opacity=".65" fill="#fff" stroke-width="0" stroke-linejoin="round"/><g fill="#fff" stroke="#abd7ff" stroke-width="0" transform="matrix(.4756 0 0 .4756 3.049 5.866)"><path d="M15.457.282h3.342c.34 3.172-3.342 2.453-3.342 2.453z"/><ellipse transform="rotate(-45)" ry="1.979" rx="2.969" cy="11.723" cx="-5.922"/><path d="M4.102 1.543c0-.699.587-1.261 1.315-1.261h9.987c.728 0 1.314.562 1.314 1.261 0 .699-.586 1.262-1.314 1.262H5.417c-.728 0-1.315-.563-1.315-1.262z"/><path d="M5.364.282c.699 0 1.262.586 1.262 1.314v9.987c0 .728-.563 1.314-1.262 1.314-.699 0-1.262-.586-1.262-1.314V1.596c0-.728.563-1.314 1.262-1.314zM15.457.282c.699 0 1.261.586 1.261 1.314v9.987c0 .728-.562 1.314-1.261 1.314-.7 0-1.262-.586-1.262-1.314V1.596c0-.728.563-1.314 1.262-1.314z"/><ellipse cx="1.215" cy="18.86" rx="2.969" ry="1.979" transform="rotate(-45)"/></g><path d="M14 4.024V9l-4-5z" opacity=".15" stroke-width="0" stroke-linejoin="round"/></svg>