<svg xmlns="http://www.w3.org/2000/svg" id="svg2" version="1.1" viewBox="0 0 16 16"><defs id="defs6"><style id="style4150"></style><style id="style4165"></style><style id="style4188"></style><style id="style4211"></style><style id="style4234"></style><style id="style4257"></style><style id="style4280"></style><style id="style4150-3"></style><style id="style4165-6"></style><style id="style4188-9"></style><style id="style4211-4"></style><style id="style4234-0"></style><style id="style4257-3"></style><style id="style4280-2"></style><style id="style4150-6"></style><style id="style4165-4"></style><style id="style4188-8"></style><style id="style4211-1"></style><style id="style4234-7"></style><style id="style4257-8"></style><style id="style4280-28"></style><style id="style4150-8"></style><style id="style4165-40"></style><style id="style4188-80"></style><style id="style4211-3"></style><style id="style4234-2"></style><style id="style4257-7"></style><style id="style4280-1"></style><style id="style4150-86"></style><style id="style4165-2"></style><style id="style4188-91"></style><style id="style4211-8"></style><style id="style4234-9"></style><style id="style4257-9"></style><style id="style4280-27"></style><style id="style4150-9"></style><style id="style4165-29"></style><style id="style4188-6"></style><style id="style4211-32"></style><style id="style4234-6"></style><style id="style4257-33"></style><style id="style4280-9"></style><style id="style4150-32"></style><style id="style4165-0"></style><style id="style4188-98"></style><style id="style4211-6"></style><style id="style4234-8"></style><style id="style4257-76"></style><style id="style4280-0"></style></defs><g id="layer4" transform="translate(0 -484.625)" display="inline" fill-opacity="1" stroke="none" stroke-width="1" stroke-linecap="square" stroke-linejoin="round" stroke-miterlimit="4" stroke-dasharray="none" stroke-dashoffset="0" stroke-opacity="1"><path d="M8 0C4.44 0 1.552 5.068 1.504 10h12.992C14.448 5.068 11.56 0 8 0zM1.533 11c.155 2.12.87 3.81 1.944 5h9.046c1.073-1.19 1.789-2.88 1.944-5H1.533z" transform="translate(0 484.625)" id="path4201" opacity="1" fill="#b9b9b9"/><path id="path4214" d="M8 485.625c-3.038 0-5.5 4.51-5.5 8.86 0 2.216.643 3.96 1.672 5.14h7.656c1.03-1.18 1.672-2.924 1.672-5.14 0-4.35-2.462-8.86-5.5-8.86z" opacity="1" fill="#fff"/><g id="g4216" transform="translate(-20)"><path d="M22.5 494.625h11l-.05 1h-10.9z" id="rect4369" opacity="1" fill="#ff8700"/><path d="M27.5 490.625h1v3h-1z" id="path4203" opacity="1" fill="#8c8c8c"/><path d="M24 491.625h1v2h-1z" id="path4207" opacity="1" fill="#b9b9b9"/><path id="path4213" d="M31 491.625h1v2h-1z" opacity="1" fill="#b9b9b9"/><path id="path4220" d="M27.5 495.125h1v3.5h-1z" opacity="1" fill="#ff8700"/></g></g></svg>