<svg xmlns="http://www.w3.org/2000/svg" viewBox="0 0 16 16"><path d="M2 0v16h12V4l-4-4zm8 0z" fill="#45b058" stroke="#b9b9b9" stroke-width="0" stroke-linejoin="round"/><path d="M10 3.98V0l4 4z" fill="#fff" stroke-width="0" stroke-linejoin="round" opacity=".65"/><path d="M14 4.024V9l-4-5z" opacity=".15" stroke-width="0" stroke-linejoin="round"/><g transform="translate(0 1)" fill="#fff" stroke-linecap="square" stroke-miterlimit="0"><rect ry="0" rx="0" y="5" x="4" height="1" width="2"/><rect width="2" height="1" x="7" y="5" rx="0" ry="0"/><rect ry="0" rx="0" y="5" x="10" height="1" width="2"/><rect width="2" height="1" x="4" y="7" rx="0" ry="0"/><rect ry="0" rx="0" y="7" x="7" height="1" width="2"/><rect width="2" height="1" x="10" y="7" rx="0" ry="0"/><rect ry="0" rx="0" y="9" x="4" height="1" width="2"/><rect width="2" height="1" x="7" y="9" rx="0" ry="0"/><rect ry="0" rx="0" y="9" x="10" height="1" width="2"/><rect width="2" height="1" x="4" y="11" rx="0" ry="0"/><rect ry="0" rx="0" y="11" x="7" height="1" width="2"/><rect width="2" height="1" x="10" y="11" rx="0" ry="0"/></g></svg>