<svg xmlns="http://www.w3.org/2000/svg" viewBox="0 0 16 16"><path fill="#FFF" d="M1 1v14h10.5C9.567 15 8 13.433 8 11.5S9.567 8 11.5 8 15 9.567 15 11.5V1H1zm14 10.5c0 .01 0 .018-.002.027H15V11.5z"/><path fill="#B9B9B9" d="M3 7v4h5.04c.247-1.72 1.72-2.998 3.46-3 .52 0 1.032.118 1.5.342V7H3z"/><path fill="#59F" d="M3 12h4v1H3z"/><path fill="#999" d="M1 1v14h10.5c-.916 0-1.795-.36-2.45-1H2V2h12v7.055c.64.653 1 1.53 1 2.445V1H1zm14 10.5c0 .01 0 .018-.002.027H15V11.5z"/><path fill="#B9B9B8" d="M3 3h8v1H3z"/><path fill="#B9B9B9" d="M3 5h8v1H3z"/><path fill="#E8A33D" d="M12.666 12.665c.26-.26.71-.237 1 .055l2.098 2.098c.29.29.316.74.055 1-.262.262-.71.238-1-.054l-2.1-2.098c-.29-.292-.315-.74-.054-1z"/><circle fill="#59F" cx="11.5" cy="11.5" r="2.5"/><circle fill="#ABD7FF" cx="11.5" cy="11.5" r="1.5"/><ellipse opacity=".604" fill="#FFF" cx="12" cy="11" rx=".5" ry=".5"/></svg>