<svg xmlns="http://www.w3.org/2000/svg" viewBox="0 0 16 16"><path d="M2 0v16h12V4l-4-4z" fill="red" stroke="#b9b9b9" stroke-width="0" stroke-linejoin="round"/><path d="M10 3.98V0l4 4z" fill="#fff" stroke-width="0" stroke-linejoin="round" opacity=".65"/><path style="line-height:normal;text-indent:0;text-align:start;text-decoration-line:none;text-decoration-style:solid;text-decoration-color:#000;text-transform:none;block-progression:tb;isolation:auto;mix-blend-mode:normal" d="M4.48 13c-.227-.001-.36-.272-.45-.618-.256-1.206 1.157-1.461 1.8-1.69-.363.656.529-.954.585-1.058.239-.462.508-.978.721-1.492l.067-.16c-.246-.844-.461-2.208-.333-2.54.091-.185.468-.363.71-.442a.52.52 0 0 1 .502.298c.265.7.122 1.667-.158 2.335-.011.05-.024.097-.036.144.235.63.606 1.193 1.041 1.595.156.144.362.268.566.385a8.856 8.856 0 0 1 1.254-.09c.252.002.472.022.655.061.184.04.334.095.442.2.1.097.142.223.154.338v.006c-.104.392-.25.612-.404.709-.255.067-.613.02-1.04-.092a5.964 5.964 0 0 1-1.316-.533c-.95.141-1.987.394-2.83.664-.417.716-.786 1.252-1.13 1.585-.177.171-.349.293-.528.354a.732.732 0 0 1-.272.04zm.101-.622c.134.01.322-.09.512-.367.095-.14.409-.633.45-.691-.167.086-1.053.397-1.068.697-.007.138.042.356.106.361zm7.044-1.926c-.007.003.018-.016.037-.034-.416-.414-1.166-.245-1.494-.249.368.258 1.193.392 1.457.283zm-4.863-.097c.61-.221 1.198-.313 1.813-.437-.02-.017-.044-.032-.065-.049a4.35 4.35 0 0 1-.951-1.143 11.55 11.55 0 0 1-.56 1.205c.19.165 0 0 0 0-.097.178-.145.261-.237.424zm.804-3.384c.02-.099.074-.195.107-.396.087-.32.032-.883-.11-.984-.097.093-.119.376-.119.468 0 .203.075.646.122.912z" color="#000" font-weight="400" font-family="sans-serif" white-space="normal" overflow="visible" stroke="none" stroke-width="5.544" fill="#fff"/><path d="M14 4.024V9l-4-5z" opacity=".15" stroke-width="0" stroke-linejoin="round"/></svg>