<svg xmlns="http://www.w3.org/2000/svg" viewBox="0 0 16 16"><path d="M2 0v16h12V4l-4-4z" fill="red" stroke="#b9b9b9" stroke-width="0" stroke-linejoin="round"/><path d="M10 3.98V0l4 4z" fill="#fff" stroke-width="0" stroke-linejoin="round" opacity=".65"/><path style="line-height:normal;text-indent:0;text-align:start;text-decoration-line:none;text-decoration-style:solid;text-decoration-color:#000000;text-transform:none;block-progression:tb;isolation:auto;mix-blend-mode:normal" d="M-160.867-100.186c-4.114.008-6.55 4.982-8.156 11.363-4.66 22.17 21.003 26.87 32.688 31.085-6.614-12.077 9.588 17.55 10.615 19.455 4.334 8.495 9.22 17.996 13.095 27.447v.002l1.217 2.96c-4.47 15.508-8.38 40.604-6.053 46.704 1.654 3.408 8.488 6.683 12.902 8.14 3.427.053 7.004-1.246 9.105-5.473C-90.64 28.6-93.24 10.82-98.328-1.47c-.202-.903-.428-1.776-.65-2.653 4.27-11.59 10.998-21.948 18.912-29.338 2.833-2.647 6.56-4.933 10.268-7.083 8.4 1.158 16.193 1.745 22.78 1.674h.007c4.557-.06 8.554-.42 11.887-1.146 3.332-.725 6.055-1.74 8.018-3.67 1.814-1.78 2.593-4.098 2.795-6.21l.006-.055.002-.056c-1.882-7.226-4.543-11.27-7.332-13.043h-.002c-4.642-1.237-11.127-.386-18.883 1.687-7.46 1.993-15.898 5.346-23.9 9.803-17.25-2.596-36.094-7.248-51.394-12.21-7.574-13.172-14.272-23.037-20.52-29.165-3.21-3.15-6.332-5.387-9.583-6.516-1.626-.566-3.302-.816-4.95-.735zm1.836 11.422c2.424-.195 5.84 1.662 9.288 6.76 1.732 2.56 7.43 11.647 8.177 12.717-3.022-1.598-19.123-7.31-19.393-12.835-.124-2.526.763-6.548 1.927-6.642zm127.915 35.43c-.117-.052.32.293.67.64-7.553 7.614-21.17 4.492-27.128 4.57 6.676-4.743 21.674-7.204 26.458-5.21zm-88.302 1.8c11.074 4.06 21.757 5.756 32.92 8.038-.383.31-.8.576-1.175.892-7.152 6.055-12.816 13.33-17.287 21.038-2.593-6.55-5.594-13.51-10.173-22.174 3.48-3.028.008.015-.002-.004-1.74-3.28-2.62-4.8-4.282-7.79zm14.593 62.25c.367 1.813 1.343 3.59 1.938 7.282 1.577 5.878.595 16.24-1.98 18.107-1.767-1.723-2.167-6.918-2.167-8.62 0-3.726 1.36-11.886 2.21-16.768z" color="#000" font-family="sans-serif" white-space="normal" overflow="visible" solid-color="#000000" stroke="none" stroke-width="5.544" transform="matrix(.055 0 0 -.0544 13.338 7.553)" fill="#fff"/><path d="M14 4.024V9l-4-5z" opacity=".15" stroke-width="0" stroke-linejoin="round"/></svg>