<svg xmlns="http://www.w3.org/2000/svg" viewBox="0 0 16 16"><path d="M2 0v16h12V4l-4-4zm8 0z" fill="#ff8700" stroke="#b9b9b9" stroke-width="0" stroke-linejoin="round"/><path d="M10 3.98V0l4 4z" fill="#fff" stroke-width="0" stroke-linejoin="round" opacity=".65"/><path d="M14 4.024V9l-4-5z" opacity=".15" stroke-width="0" stroke-linejoin="round"/><g fill="#fff"><path d="M9.54 11.11a.835.835 0 0 1-.256.036c-.772 0-1.906-2.697-1.906-3.595 0-.33.079-.44.189-.535-.945.11-2.079.457-2.441.898-.079.11-.126.283-.126.503C5 9.82 6.496 13 7.551 13c.488 0 1.312-.803 1.989-1.89M9.047 6.921c.976 0 1.953.158 1.953.709 0 1.118-.709 2.473-1.07 2.473-.646 0-1.45-1.796-1.45-2.693 0-.41.158-.489.567-.489"/></g></svg>