<svg xmlns="http://www.w3.org/2000/svg" viewBox="0 0 16 16"><path d="M1 1h14v14H1z" fill="#fff" stroke-linecap="square"/><path d="M1 1v14h14V1zm1 1h12v12H2z" fill="#b9b9b9" stroke-linecap="square"/><g style="line-height:125%" font-size="40" font-family="Verdana" letter-spacing="0" word-spacing="0" font-weight="bold" fill="#8c8c8c"><path style="-inkscape-font-specification:'Verdana Bold'" d="M13 5.883c0 .332-.037.627-.112.884-.072.253-.176.474-.31.66-.135.19-.296.357-.486.505-.186.148-.355.283-.592.405v1.225H9.875V7.8c.177-.064.604-.128.746-.194.145-.066.296-.173.453-.32.147-.133.26-.286.343-.46.085-.175.127-.372.127-.593 0-.33-.08-.562-.242-.7-.16-.142-.384-.213-.675-.213-.18 0-.383.05-.61.153-.223.102-.43.234-.616.395h-.15V4.362c.16-.09.405-.18.736-.276.33-.1.667-.15 1.008-.15.615 0 1.103.18 1.464.54.36.358.542.828.542 1.407zm-1.5 6.18H9.875V10.5H11.5z" font-size="10"/><path d="M7.25 12.063L3 8.743V7.382l4.25-3.317V5.78L4.274 8.07l2.974 2.277v1.716z" style="line-height:125%;-inkscape-font-specification:'Verdana Bold'" font-size="9.311"/></g></svg>