<svg xmlns="http://www.w3.org/2000/svg" viewBox="0 0 16 16"><path d="M2 0v16h12V4l-4-4zm8 0z" fill="#33acdf" stroke="#b9b9b9" stroke-width="0" stroke-linejoin="round"/><path d="M10 3.98V0l4 4z" fill="#fff" stroke-width="0" stroke-linejoin="round" opacity=".65"/><path d="M14 4.024V9l-4-5z" opacity=".15" stroke-width="0" stroke-linejoin="round"/><g style="line-height:125%" font-size="12.5" font-family="Verdana" letter-spacing="0" word-spacing="0" fill="#fff" font-weight="bold"><path d="M7.383 13h-.84q-.595 0-.95-.304-.354-.3-.354-.883v-.45q0-.547-.243-.76-.242-.213-.782-.213H4v-.755h.215q.54 0 .782-.212.242-.214.242-.76v-.45q0-.584.352-.885.356-.303.95-.303h.84v.687h-.348q-.184 0-.335.027-.148.027-.25.104-.103.08-.156.233-.052.15-.052.39V8.8q0 .43-.242.718-.24.29-.684.457v.074q.445.168.684.456.242.288.242.718v.334q0 .24.052.39.053.153.157.233.1.08.25.105.15.028.334.028h.35V13zM12 10.39h-.215q-.54 0-.782.214-.242.212-.242.758v.45q0 .584-.355.884-.353.304-.948.304h-.84v-.687h.35q.183 0 .33-.028.15-.027.252-.104.103-.08.156-.232.052-.15.052-.39v-.334q0-.43.24-.718t.686-.457v-.075q-.445-.168-.687-.457-.24-.288-.24-.717v-.334q0-.24-.05-.39-.054-.153-.158-.232-.102-.077-.252-.105-.148-.028-.332-.028h-.35v-.687h.84q.596 0 .95.303.355.3.355.884v.45q0 .547.243.76.242.213.782.213H12v.755z" style="-inkscape-font-specification:'Verdana Bold'"/></g></svg>