<svg xmlns="http://www.w3.org/2000/svg" viewBox="0 0 16 16"><path fill="#999" d="M1 1v5.656l8.485 8.485 5.657-5.656L6.657 1H1zm2.475 2.475c.683-.683 1.792-.683 2.475 0s.683 1.792 0 2.475-1.792.683-2.475 0-.683-1.792 0-2.475z"/><path fill="#FFF" d="M1.99 1.99v4.242l7.495 7.495 4.243-4.243L6.233 1.99H1.99zm1.485 1.485c.683-.683 1.792-.683 2.475 0s.683 1.792 0 2.475-1.792.683-2.475 0-.683-1.792 0-2.475z"/><path fill="#999" d="M3.475 3.475c-.683.683-.683 1.792 0 2.475s1.792.683 2.475 0 .683-1.792 0-2.475-1.79-.684-2.475 0zm.707.707c.293-.293.768-.293 1.06 0s.294.768 0 1.06-.767.294-1.06 0c-.293-.293-.293-.767 0-1.06z"/><path fill="#FF8700" d="M12.137 9.662l-2.475 2.475L6.126 8.6 8.6 6.128z"/></svg>