<svg xmlns="http://www.w3.org/2000/svg" viewBox="0 0 16 16"><path fill="#EFEFEF" d="M2 0v16h12V4l-4-4H2z"/><path opacity=".65" fill="#FFF" d="M10 4V0l4 4h-4z"/><path opacity=".2" d="M13 5v5L9 5h4z"/><path fill="#999" d="M2 0v16h12V4l-4-4H2zm1 1h6v4h4v10H3V1zm7 .4L12.6 4H10V1.4z"/><g><circle fill="#59F" cx="10.5" cy="10.5" r="5.5"/><path opacity=".2" d="M10.5 6c2.48 0 4.5 2.02 4.5 4.5S12.98 15 10.5 15 6 12.98 6 10.5 8.02 6 10.5 6m0-1C7.462 5 5 7.462 5 10.5S7.462 16 10.5 16s5.5-2.462 5.5-5.5S13.538 5 10.5 5z"/><path fill="#AAD400" d="M14.982 10.1c-.14-1.52-1.03-2.824-2.28-3.523-.058.062-.074.026-.074.088-.178.062-.415-.062-.593-.125-.474-.186-.95-.186-1.364-.062-.177.062-.592.125-.414.5.118.187.415.374.712.124.118-.125.238-.312.415-.125.06.063.06.125.06.188-.06.186-.238.25-.415.25-.238.06-.476 0-.712.06-.24.065-.595.127-.595.44 0 .372-.118.435-.415.497-.238 0-.355.125-.238.374.06.186.238.186.357.125.474-.248.89-.872 1.423-.124l.118-.062c.12-.5.238-.186.356 0l.18.187c.712-.684.534.313.77.5-.475-.125-1.008.374-1.423.062-.712-.56-1.186-.31-1.838.25-.535.436-.653.997-.535 1.496.177.624.83.686 1.364.56.176-.062.533-.062.533.063-.12.562.534.936.296 1.56-.178.498.12 1.12.533 1.308.416.186.77-.312.95-.748.06-.062 0-.186.06-.25.473-.623.414-1.557 1.007-2.18.178-.187.77-.873.296-1.435 1.127-.312.714.81.95 1.31.177-.375.296-.75.415-1.062.06-.185.102-.243.102-.243zM8.538 6.778c.187-.197.195-.23.382-.492-.39.138-.883.41-1.236.707l.108.114h.56s.063 0 .063-.064l.062-.066s.062 0 .062-.066l.06-.065.063-.066c-.186.13-.186.065-.125 0 0 .065 0 .065 0 0 0 .065 0 0 0 0v-.002zM7.714 12.846s-.062-.06 0 0c-.062-.06-.062-.06 0 0v-.178l-.062-.058c-.06 0-.06-.06-.122-.06s-.122-.06-.184-.06h-.122s-.06 0-.06-.06c-.43-.237-.614-.652-.736-1.125 0-.12-.06-.238-.06-.356-.06-.06-.06-.12-.123-.18-.122-.118-.06-.356.062-.593v-.118c0-.06 0-.06.06-.12 0-.058 0-.058.063-.118.122-.238.368-.415.49-.593.06-.06.06-.06.06-.12v-.058c.06-.06.06-.178.12-.238 0-.058.063-.177.063-.237 0-.12 0-.178-.062-.296-.06-.177-.098-.33-.22-.45C6.33 8.6 6 9.466 6 10.474c0 1.365.58 2.575 1.552 3.423 0 0 .04.017.04-.04v-.06c0-.06.06-.06.06-.12.06-.24.06-.593.062-.83z"/></g></svg>