<svg xmlns="http://www.w3.org/2000/svg" viewBox="0 0 16 16"><path d="M2 0v16h12V4l-4-4zm8 0z" fill="#f0db4f" stroke="#b9b9b9" stroke-width="0" stroke-linejoin="round"/><path d="M10 3.98V0l4 4z" fill="#fff" stroke-width="0" stroke-linejoin="round" opacity=".65"/><path d="M14 4.024V9l-4-5z" opacity=".15" stroke-width="0" stroke-linejoin="round"/><g style="line-height:125%" font-size="40" font-family="Verdana" letter-spacing="0" word-spacing="0" fill="#000" font-weight="bold"><path d="M6.985 10.5q0 .317-.113.595-.113.275-.336.466-.236.204-.568.317-.333.11-.824.11-.333 0-.627-.026-.294-.02-.517-.067v-.975h.116q.155.058.323.11.167.048.43.048.338 0 .52-.09.184-.09.26-.253.075-.158.085-.345.01-.19.01-.485V7.987H4.643v-.885h2.342v3.4zM12 10.4q0 .71-.604 1.157-.6.443-1.635.443-.597 0-1.043-.103-.442-.107-.83-.27v-1.152h.136q.384.307.86.472.477.164.917.164.113 0 .297-.018.184-.02.3-.065.143-.058.233-.145.094-.087.094-.258 0-.16-.136-.272-.132-.116-.39-.178-.272-.064-.576-.12-.3-.057-.565-.144-.608-.198-.876-.534-.264-.34-.264-.84 0-.672.6-1.095.605-.425 1.552-.425.475 0 .937.093.465.09.804.23v1.108h-.133q-.29-.233-.714-.388-.42-.158-.86-.158-.155 0-.31.022-.152.02-.294.078-.127.048-.217.15-.09.096-.09.222 0 .19.145.294.145.1.55.184l.506.106q.246.052.527.143.553.18.815.493.265.31.265.808z" style="-inkscape-font-specification:'Verdana Bold'"/></g></svg>