<svg xmlns="http://www.w3.org/2000/svg" viewBox="0 0 16 16"><path d="M1 1v14h7V9.75h7V1H1z" fill="#fff" stroke-linecap="square"/><path d="M1 1v14h7v-1H2V2h12v7.75h1V1H1z" fill="#b9b9b9" stroke-linecap="square"/><path fill="#8c8c8c" d="M3 3h10v2H3z"/><path fill="#ff8700" d="M3 6h1v1H3zM3 8h1v1H3zM3 10h1v1H3zM3 12h1v1H3z"/><path fill="#b9b9b9" d="M5 6h8v1H5zM5 8h8v1H5zM5 10h3v1H5zM5 12h3v1H5z"/><g><path d="M16 11.625V16H9v-5.25h3.062l.582.875H16z" fill="#ffc857"/><path d="M16 12.062h-3.356l-.582.875H9v-1.312h7v.437z" fill="#e8a33d"/></g></svg>