<svg xmlns="http://www.w3.org/2000/svg" viewBox="0 0 16 16" id="svg2"><defs id="defs20"><clipPath id="clipPath3391"><path id="path3393" d="M0 600h800V0H0v600z"/></clipPath><clipPath id="clipPath3407"><path id="path3409" d="M316 477.408h60.363V417H316v60.408z"/></clipPath><clipPath id="clipPath3427"><path id="path3429" d="M622 477.97h60.12V418H622v59.97z"/></clipPath><clipPath id="clipPath3391-7"><path d="M0 600h800V0H0v600z" id="path3393-8"/></clipPath><clipPath id="clipPath3407-0"><path d="M316 477.408h60.363V417H316v60.408z" id="path3409-3"/></clipPath><clipPath id="clipPath3427-9"><path d="M622 477.97h60.12V418H622v59.97z" id="path3429-3"/></clipPath><clipPath id="clipPath3391-5"><path d="M0 600h800V0H0v600z" id="path3393-6"/></clipPath><clipPath id="clipPath3407-6"><path d="M316 477.408h60.363V417H316v60.408z" id="path3409-6"/></clipPath><clipPath id="clipPath3427-0"><path d="M622 477.97h60.12V418H622v59.97z" id="path3429-8"/></clipPath><clipPath id="clipPath3391-8"><path id="path3393-83" d="M0 600h800V0H0v600z"/></clipPath><clipPath id="clipPath3407-2"><path id="path3409-2" d="M316 477.408h60.363V417H316v60.408z"/></clipPath><clipPath id="clipPath3427-2"><path id="path3429-34" d="M622 477.97h60.12V418H622v59.97z"/></clipPath><clipPath id="clipPath3391-25"><path d="M0 600h800V0H0v600z" id="path3393-0"/></clipPath><clipPath id="clipPath3407-27"><path d="M316 477.408h60.363V417H316v60.408z" id="path3409-1"/></clipPath><clipPath id="clipPath3427-93"><path d="M622 477.97h60.12V418H622v59.97z" id="path3429-7"/></clipPath><clipPath id="clipPath3391-2"><path id="path3393-9" d="M0 600h800V0H0v600z"/></clipPath><clipPath id="clipPath3407-9"><path id="path3409-0" d="M316 477.408h60.363V417H316v60.408z"/></clipPath><clipPath id="clipPath3427-8"><path id="path3429-5" d="M622 477.97h60.12V418H622v59.97z"/></clipPath></defs><g id="g6705" fill="#eca701"><g id="g4141"><g id="g4237" stroke-width="0" stroke-linejoin="round"><path id="rect4171" d="M2 0v16h12V4l-4-4zm8 0z" stroke="#b9b9b9"/><path d="M10 3.98V0l4 4z" id="path4178" opacity=".65"/><path id="path4446" d="M14 4.024V9l-4-5z" opacity=".15"/></g></g></g><path d="M10 4V0l4 4h-4z" id="path6" fill="#fff" opacity=".65"/><path id="path4446-1" d="M14 4.024V9l-4-5z" opacity=".15" stroke-width="0" stroke-linejoin="round"/><style id="style9465">.st0{fill:#FFEDCF;} .st1{fill:#333333;} .st2{fill:#FF8700;} .st3{fill:#B9B9B9;} .st4{fill:#C83C3C;} .st5{fill:#666666;}</style><g id="g9796" class="icon-color" fill="#fff"><path id="path9798" d="M8.507 6.69l1.803 1.803-4.417 4.417c-.09.09-.09.09-.18.09H4v-1.713c0-.09 0-.09.09-.18L8.507 6.69z"/><path id="path9800" d="M10.49 5.068l1.442 1.442c.09.09.09.27 0 .36l-1.17 1.172L8.957 6.24l1.172-1.172c.09-.09.27-.09.36 0z"/></g></svg>