<svg xmlns="http://www.w3.org/2000/svg" viewBox="0 0 16 16"><g><path fill="#FFF" d="M8 9.75V15H1V1h14v8.75z"/><path fill="#999" d="M1 1v14h7v-1H2V2h12v7.75h1V1H1z"/><path fill="#666" d="M3 3h10v2H3z"/><path fill="#FF8700" d="M3 6h1v1H3zM3 8h1v1H3zM3 10h1v1H3zM3 12h1v1H3z"/><path fill="#B9B9B9" d="M5 6h8v1H5zM5 8h8v1H5zM5 10h3v1H5zM5 12h3v1H5z"/></g><g><path fill="#FFC857" d="M16 11.625V16H9v-5.25h3.063l.582.875H16z"/><path fill="#E8A33D" d="M16 12.062h-3.356l-.582.875H9v-1.313h7v.438z"/></g></svg>