<svg xmlns="http://www.w3.org/2000/svg" viewBox="0 0 16 16"><path d="M2 0v16h12V4l-4-4zm8 0z" fill="#efefef" stroke="#b9b9b9" stroke-width="0" stroke-linejoin="round"/><path d="M10 3.98V0l4 4z" opacity=".65" fill="#fff" stroke-width="0" stroke-linejoin="round"/><path d="M13 5.024V10L9 5z" opacity=".15" stroke-width="0" stroke-linejoin="round"/><path d="M2 0v16h12V4h-.012l.004-.008L10.008.006 10 .014V0H2zm1 1h6v4h4v10H3V1zm7 .412L12.586 4H10V1.412z" fill="#b9b9b9"/><g transform="matrix(.9 0 0 .9 6 6)"><circle cx="5.5" cy="5.5" r="5.5" fill="#59f"/><path d="M10.3 5.3c-.2-1.6-1.1-3-2.4-3.8-.1.1-.1.1-.1.2-.2 0-.5-.1-.7-.2-.5-.2-1-.2-1.5-.1-.1.1-.5.2-.4.6.2.2.5.4.8.1.1-.1.3-.3.4-.1.1.1.1.1.1.2-.1.2-.2.3-.4.3-.3.1-.5 0-.8.1-.3 0-.6.1-.6.4 0 .4-.1.5-.4.5-.3 0-.5.2-.3.4 0 .2.2.2.3.2.5-.3.9-.9 1.5-.1l.2-.1c.1-.5.3-.2.4 0l.2.2c.8-.7.6.3.8.5-.5-.1-1.1.4-1.5.1-.8-.6-1.3-.3-2 .3-.6.4-.7 1-.6 1.5.2.7.9.7 1.5.6.2 0 .6 0 .6.1-.1.6.6 1 .3 1.7-.2.5.1 1.2.6 1.4.4.2.8-.3 1-.8.1-.1 0-.2.1-.3.5-.7.4-1.7 1.1-2.3.2-.2.8-.9.3-1.5 1.2-.3.8.9 1 1.4.2-.4.3-.8.4-1.1.1-.3.1-.3.1-.4zM3.4 1.5c.2-.2.3-.4.5-.7-.2.2-.4.2-.6.4-.2.1-.4.3-.6.4-.1 0-.1.1-.1.1s-.1 0-.1.1l.1.1h.5H3 3.3s.1 0 .1-.1l.1-.1s.1 0 .1-.1c-.2.1-.2.1-.2-.1h.2c-.3.2-.3.1-.2 0 0 .1 0 .1 0 0 0 .1 0 0 0 0zM2.5 8s0-.1 0 0c0-.1 0-.1 0 0 0-.1 0-.1 0 0v-.1-.1c-.1 0-.1-.1-.1-.1-.1 0-.1-.1-.2-.1h-.1H2s-.1 0-.1-.1c-.4-.2-.6-.6-.8-1.1 0-.1-.1-.3-.1-.4 0-.1 0-.1-.1-.2s0-.4.1-.6V5c0-.1 0 0 .1-.1 0-.1 0-.1.1-.1.1-.3.4-.5.5-.7V4v-.1c.1-.1.1-.2.1-.3 0-.1.1-.2.1-.3 0-.1 0-.2-.1-.3 0-.1-.1-.2-.2-.4C1 3.4.7 4.4.7 5.5c0 1.5.7 2.8 1.6 3.7 0 0 .1 0 .1-.1V9s.1 0 .1-.1V8z" fill="#aad400"/><path d="M5.5 1C8 1 10 3 10 5.5S8 10 5.5 10 1 8 1 5.5 3 1 5.5 1m0-1C2.5 0 0 2.5 0 5.5S2.5 11 5.5 11 11 8.5 11 5.5 8.5 0 5.5 0z" opacity=".2"/></g></svg>