<svg xmlns="http://www.w3.org/2000/svg" viewBox="0 0 16 16"><path d="M2 0v16h12V4l-4-4zm8 0z" fill="#b9b9b9" stroke="#fff" stroke-width="0" stroke-linejoin="round"/><path d="M10 3.98V0l4 4z" opacity=".65" fill="#fff" stroke-width="0" stroke-linejoin="round"/><g transform="translate(0 1)" fill="#8c8c8c" stroke-linecap="square" stroke-miterlimit="0"><rect ry="0" rx="0" y="5" x="4" height="1" width="8"/><rect width="8" height="1" x="4" y="7" rx="0" ry="0"/><rect ry="0" rx="0" y="9" x="4" height="1" width="8"/><rect width="8" height="1" x="4" y="11" rx="0" ry="0"/></g><path d="M14 4.024V9l-4-5z" opacity=".15" stroke-width="0" stroke-linejoin="round"/><path d="M15.25 16h-9.5c-.563 0-.924-.598-.664-1.097l4.75-9.13c.28-.536 1.048-.536 1.328 0l4.75 9.13c.26.5-.1 1.097-.663 1.097z" fill="#fbb03b"/><path d="M10.5 6.666L14.837 15H6.163L10.5 6.666m0-1.295c-.262 0-.523.135-.663.404l-4.75 9.13c-.26.498.1 1.096.662 1.096h9.5c.563 0 .924-.598.664-1.097l-4.75-9.13c-.14-.267-.402-.402-.664-.402z" opacity=".2"/><path d="M11 13v1h-1v-1h1zM11 9v3h-1V9h1z" fill="#fff"/></svg>