<svg xmlns="http://www.w3.org/2000/svg" viewBox="0 0 16 16"><path d="M.93.93v5.657l8.484 8.484 5.657-5.656L6.587.93H.93zm2.474 2.474a1.75 1.75 0 0 1 2.475 0 1.75 1.75 0 0 1 0 2.475 1.75 1.75 0 0 1-2.476 0 1.75 1.75 0 0 1 0-2.476z" fill="#b9b9b9"/><path d="M1.92 1.92V6.16l7.494 7.495 4.243-4.243L6.162 1.92H1.92zm1.484 1.484a1.75 1.75 0 0 1 2.475 0 1.75 1.75 0 0 1 0 2.475 1.75 1.75 0 0 1-2.476 0 1.75 1.75 0 0 1 0-2.476z" fill="#fff"/><path d="M3.404 3.404a1.75 1.75 0 0 0 0 2.475 1.75 1.75 0 0 0 2.475 0 1.75 1.75 0 0 0 0-2.476 1.75 1.75 0 0 0-2.476 0zm.707.707a.75.75 0 0 1 1.062 0 .75.75 0 0 1 0 1.062.75.75 0 0 1-1.06 0 .75.75 0 0 1 0-1.06z" fill="#b9b9b9"/><path fill="#ff8700" d="M6.055 8.53L8.53 6.055l3.536 3.536-2.475 2.476z"/></svg>