<svg xmlns="http://www.w3.org/2000/svg" viewBox="0 0 16 16"><path d="M2 0v16h12V4l-4-4zm8 0z" fill="#b9b9b9" stroke="#fff" stroke-width="0" stroke-linejoin="round"/><path d="M10 3.98V0l4 4z" opacity=".65" fill="#fff" stroke-width="0" stroke-linejoin="round"/><g transform="translate(0 1)" fill="#8c8c8c" stroke-linecap="square" stroke-miterlimit="0"><rect ry="0" rx="0" y="5" x="4" height="1" width="8"/><rect width="8" height="1" x="4" y="7" rx="0" ry="0"/><rect ry="0" rx="0" y="9" x="4" height="1" width="8"/><rect width="8" height="1" x="4" y="11" rx="0" ry="0"/></g><path d="M14 4.024V9l-4-5z" opacity=".15" stroke-width="0" stroke-linejoin="round"/><path d="M15.25 16H5.75a.75.75 0 0 1-.663-1.097l4.75-9.129a.748.748 0 0 1 1.328 0l4.75 9.129A.75.75 0 0 1 15.252 16z" fill="#fbb03b"/><path d="M10.5 6.666L14.837 15H6.163L10.5 6.666m0-1.295a.739.739 0 0 0-.663.403l-4.751 9.129A.75.75 0 0 0 5.749 16h9.502a.75.75 0 0 0 .663-1.097l-4.751-9.129a.74.74 0 0 0-.663-.403z" opacity=".2"/><path d="M11 13v1h-1v-1h1zM11 9v3h-1V9h1z" fill="#fff"/></svg>