<svg xmlns="http://www.w3.org/2000/svg" viewBox="0 0 16 16" id="svg2"><defs id="defs20"><clipPath id="clipPath3391"><path id="path3393" d="M0 600h800V0H0v600z"/></clipPath><clipPath id="clipPath3407"><path id="path3409" d="M316 477.408h60.363V417H316v60.408z"/></clipPath><clipPath id="clipPath3427"><path id="path3429" d="M622 477.971h60.121V418H622v59.971z"/></clipPath><clipPath id="clipPath3391-7"><path d="M0 600h800V0H0v600z" id="path3393-8"/></clipPath><clipPath id="clipPath3407-0"><path d="M316 477.408h60.363V417H316v60.408z" id="path3409-3"/></clipPath><clipPath id="clipPath3427-9"><path d="M622 477.971h60.121V418H622v59.971z" id="path3429-3"/></clipPath><clipPath id="clipPath3391-5"><path d="M0 600h800V0H0v600z" id="path3393-6"/></clipPath><clipPath id="clipPath3407-6"><path d="M316 477.408h60.363V417H316v60.408z" id="path3409-6"/></clipPath><clipPath id="clipPath3427-0"><path d="M622 477.971h60.121V418H622v59.971z" id="path3429-8"/></clipPath><clipPath id="clipPath3391-8"><path id="path3393-83" d="M0 600h800V0H0v600z"/></clipPath><clipPath id="clipPath3407-2"><path id="path3409-2" d="M316 477.408h60.363V417H316v60.408z"/></clipPath><clipPath id="clipPath3427-2"><path id="path3429-34" d="M622 477.971h60.121V418H622v59.971z"/></clipPath><clipPath id="clipPath3391-25"><path d="M0 600h800V0H0v600z" id="path3393-0"/></clipPath><clipPath id="clipPath3407-27"><path d="M316 477.408h60.363V417H316v60.408z" id="path3409-1"/></clipPath><clipPath id="clipPath3427-93"><path d="M622 477.971h60.121V418H622v59.971z" id="path3429-7"/></clipPath><clipPath id="clipPath3391-2"><path id="path3393-9" d="M0 600h800V0H0v600z"/></clipPath><clipPath id="clipPath3407-9"><path id="path3409-0" d="M316 477.408h60.363V417H316v60.408z"/></clipPath><clipPath id="clipPath3427-8"><path id="path3429-5" d="M622 477.971h60.121V418H622v59.971z"/></clipPath></defs><g id="g6705" fill="#eca701"><g transform="translate(-1 1)" id="g4141"><g id="g4237" stroke-width="0" stroke-linejoin="round"><path transform="translate(1 -1)" id="rect4171" d="M2 0v16h12V4l-4-4zm8 0z" stroke="#b9b9b9"/><path d="M11 2.98V-1l4 4z" id="path4178" opacity=".65"/><path id="path4446" d="M15 3.024V8l-4-5z" opacity=".15"/></g></g></g><path d="M10 4V0l4 4h-4z" id="path6" fill="#fff" opacity=".65"/><path id="path4446-1" d="M14 4.024V9l-4-5z" opacity=".15" stroke-width="0" stroke-linejoin="round"/><style id="style9465">.st0{fill:#ffedcf}.st1{fill:#333}.st2{fill:#ff8700}.st3{fill:#b9b9b9}.st4{fill:#c83c3c}.st5{fill:#666}</style><g id="g9796" class="icon-color" transform="matrix(.9014 0 0 .9014 -2.31 -1.423)" fill="#fff"><path id="path9798" d="M12 9l2 2-4.9 4.9c-.1.1-.1.1-.2.1H7v-1.9c0-.1 0-.1.1-.2L12 9z"/><path id="path9800" d="M14.2 7.2l1.6 1.6c.1.1.1.3 0 .4l-1.3 1.3-2-2 1.3-1.3c.1-.1.3-.1.4 0z"/></g></svg>