<svg xmlns="http://www.w3.org/2000/svg" id="svg2" viewBox="0 0 16 16"><defs id="defs20"><clipPath id="clipPath3391"><path d="M0 600h800V0H0v600z" id="path3393"/></clipPath><clipPath id="clipPath3407"><path d="M316 477.408h60.363V417H316v60.408z" id="path3409"/></clipPath><clipPath id="clipPath3427"><path d="M622 477.97h60.12V418H622v59.97z" id="path3429"/></clipPath><clipPath id="clipPath3391-7"><path id="path3393-8" d="M0 600h800V0H0v600z"/></clipPath><clipPath id="clipPath3407-0"><path id="path3409-3" d="M316 477.408h60.363V417H316v60.408z"/></clipPath><clipPath id="clipPath3427-9"><path id="path3429-3" d="M622 477.97h60.12V418H622v59.97z"/></clipPath><clipPath id="clipPath3391-5"><path id="path3393-6" d="M0 600h800V0H0v600z"/></clipPath><clipPath id="clipPath3407-6"><path id="path3409-6" d="M316 477.408h60.363V417H316v60.408z"/></clipPath><clipPath id="clipPath3427-0"><path id="path3429-8" d="M622 477.97h60.12V418H622v59.97z"/></clipPath><clipPath id="clipPath3391-8"><path d="M0 600h800V0H0v600z" id="path3393-83"/></clipPath><clipPath id="clipPath3407-2"><path d="M316 477.408h60.363V417H316v60.408z" id="path3409-2"/></clipPath><clipPath id="clipPath3427-2"><path d="M622 477.97h60.12V418H622v59.97z" id="path3429-34"/></clipPath><clipPath id="clipPath3391-25"><path id="path3393-0" d="M0 600h800V0H0v600z"/></clipPath><clipPath id="clipPath3407-27"><path id="path3409-1" d="M316 477.408h60.363V417H316v60.408z"/></clipPath><clipPath id="clipPath3427-93"><path id="path3429-7" d="M622 477.97h60.12V418H622v59.97z"/></clipPath><clipPath id="clipPath3391-2"><path d="M0 600h800V0H0v600z" id="path3393-9"/></clipPath><clipPath id="clipPath3407-9"><path d="M316 477.408h60.363V417H316v60.408z" id="path3409-0"/></clipPath><clipPath id="clipPath3427-8"><path d="M622 477.97h60.12V418H622v59.97z" id="path3429-5"/></clipPath></defs><g id="g6705" fill="#59f"><g id="g4141"><g id="g4237" stroke-width="0" stroke-linejoin="round"><path d="M2 0v16h12V4l-4-4zm8 0z" id="rect4171" stroke="#b9b9b9"/><path id="path4178" d="M10 3.98V0l4 4z" opacity=".65"/><path d="M14 4.024V9l-4-5z" id="path4446" opacity=".15"/></g></g></g><path opacity=".65" fill="#fff" id="path6" d="M10 4V0l4 4h-4z"/><path d="M14 4.024V9l-4-5z" id="path4446-1" opacity=".15" stroke-width="0" stroke-linejoin="round"/><style id="style9465">.st0{fill:#FFEDCF;} .st1{fill:#333333;} .st2{fill:#FF8700;} .st3{fill:#B9B9B9;} .st4{fill:#C83C3C;} .st5{fill:#666666;}</style><g transform="matrix(1.33333 0 0 1.33333 -2.667 -4.333)" id="g5202" fill="#fff"><path d="M9.5 13H5l1.125-1.5L7.25 10l1.125 1.5L9.5 13z" id="path5190"/><path d="M11 13H7l1-1 1-1 1 1 1 1z" id="path5192"/><circle cx="9.75" cy="9.25" r=".75" id="circle5194"/></g></svg>