<svg xmlns="http://www.w3.org/2000/svg" viewBox="0 0 16 16"><path d="M1 1h14v14H1z" fill="#fff" stroke-linecap="square"/><path d="M1 1v14h14V1zm1 1h12v12H2z" fill="#b9b9b9" stroke-linecap="square"/><path d="M3 4h10v8H3z" fill="#efefef" stroke-linecap="square"/><g transform="matrix(.75 0 0 .75 -21.34 -777.19)" stroke="#faa" stroke-width="0"><path d="M38.124 1045.925l-1.5 2-1.5 2H43.125l-1.333-1.334-1.332-1.332-.763.763-.07-.095-1.5-2z" fill="#59f" stroke-width="0"/><circle cx="40.857" cy="1044.925" r="1" fill="#e8a33d"/></g><path d="M3 4h10v1H3zM3 11h10v1H3z" fill="#b9b9b9" stroke-linecap="square"/><path d="M13 4v8h-1V4zM4 4v8H3V4z" fill="#b9b9b9" stroke-linecap="square"/></svg>