<svg xmlns="http://www.w3.org/2000/svg" viewBox="0 0 16 16"><path d="M2 0v16h12V4l-4-4zm8 0z" fill="#efefef" stroke="#b9b9b9" stroke-width="0" stroke-linejoin="round"/><path d="M10 3.98V0l4 4z" opacity=".65" fill="#fff" stroke-width="0" stroke-linejoin="round"/><path d="M13 5.024V10L9 5z" opacity=".15" stroke-width="0" stroke-linejoin="round"/><path d="M2 0v16h12V4h-.012l.004-.008L10.008.006 10 .014V0H2zm1 1h6v4h4v10H3V1zm7 .412L12.586 4H10V1.412z" fill="#b9b9b9"/><path d="M9.5 13H5l1.125-1.5L7.25 10l1.125 1.5z" fill="#59f" stroke="#faa" stroke-width="0"/><path d="M11 13H7l1-1 1-1 1 1z" fill="#59f" stroke="#faa" stroke-width="0"/><circle r=".75" cy="9.25" cx="9.75" fill="#e8a33d" stroke="#faa" stroke-width="0"/></svg>