<svg xmlns="http://www.w3.org/2000/svg" viewBox="0 0 16 16"><path d="M9 16v-4.5h4.5z" fill="#e8a33d" stroke="#cd201f" stroke-width="0" stroke-linecap="round" stroke-linejoin="round"/><path d="M0 0h16v12H0z" fill="#e8a33d" stroke="#79a548" stroke-width="0" stroke-linecap="square" stroke-miterlimit="0"/><path d="M1 1.2h14v9.6H1z" fill="#ffc857" stroke="#79a548" stroke-width="0" stroke-linecap="square" stroke-miterlimit="0"/><path d="M10 13.5v-3h3z" fill="#ffc857" stroke="#cd201f" stroke-width="0" stroke-linecap="round" stroke-linejoin="round"/><path style="line-height:125%;-inkscape-font-specification:'Verdana Bold'" d="M9.5 4.26c0 .266-.03.501-.09.707a1.7 1.7 0 0 1-.248.529c-.107.15-.237.284-.388.403-.15.118-.285.226-.474.324v.98H7v-1.41c.141-.05.483-.102.597-.155.115-.052.236-.138.361-.257.118-.105.21-.227.275-.367.068-.14.102-.297.102-.474 0-.263-.065-.45-.195-.56-.127-.114-.307-.17-.54-.17-.144 0-.306.04-.487.122a2.05 2.05 0 0 0-.493.316H6.5V3.043a2.97 2.97 0 0 1 .589-.221 2.81 2.81 0 0 1 .806-.119c.492 0 .883.144 1.172.43.289.288.433.663.433 1.127zM8.3 9.203H7v-1.25h1.3z" font-weight="700" font-size="10" font-family="Verdana" letter-spacing="0" word-spacing="0"/></svg>