<svg xmlns="http://www.w3.org/2000/svg" viewBox="0 0 16 16"><path d="M2 0v16h12V4l-4-4zm8 0z" fill="#6b7eb9" stroke="#b9b9b9" stroke-width="0" stroke-linejoin="round"/><path d="M10 3.98V0l4 4z" fill="#fff" stroke-width="0" stroke-linejoin="round" opacity=".65"/><path d="M14 4.024V9l-4-5z" opacity=".15" stroke-width="0" stroke-linejoin="round"/><g style="line-height:125%" font-size="40" font-family="Verdana" letter-spacing="0" word-spacing="0" font-weight="bold" fill="#fff"><path d="M12 8.056c0 .266-.03.502-.09.707-.057.203-.14.38-.248.53-.107.15-.237.284-.388.403-.15.118-.285.226-.474.323V11H9.5V9.59c.14-.05.483-.103.597-.155.115-.053.236-.138.36-.257.12-.105.21-.228.276-.367.068-.14.102-.297.102-.473 0-.264-.065-.45-.195-.56-.127-.114-.307-.17-.54-.17-.144 0-.306.04-.487.12-.18.083-.344.188-.493.317H9V6.84c.127-.07.324-.145.59-.222.264-.078.533-.118.805-.118.492 0 .883.144 1.172.43.29.288.433.663.433 1.126zM10.8 13H9.5v-1.25h1.3z" style="-inkscape-font-specification:'Verdana Bold'" font-size="10"/><path style="line-height:125%;-inkscape-font-specification:'Verdana Bold'" d="M7.4 13L4 10.345v-1.09L7.4 6.6v1.373L5.02 9.805l2.38 1.822V13z" font-size="9.311"/></g></svg>