<svg xmlns="http://www.w3.org/2000/svg" viewBox="0 0 16 16"><path d="M2 0v16h12V4l-4-4zm8 0z" fill="#33acdf" stroke="#b9b9b9" stroke-width="0" stroke-linejoin="round"/><path d="M10 3.98V0l4 4z" fill="#fff" stroke-width="0" stroke-linejoin="round" opacity=".65"/><path d="M14 4.024V9l-4-5z" opacity=".15" stroke-width="0" stroke-linejoin="round"/><g style="line-height:125%" font-weight="700" font-size="12.5" font-family="Verdana" letter-spacing="0" word-spacing="0" fill="#fff"><path d="M7.383 13h-.84q-.595 0-.951-.304-.353-.3-.353-.883v-.451q0-.546-.242-.758-.242-.214-.782-.214H4v-.755h.215q.54 0 .782-.212.242-.214.242-.76v-.451q0-.583.353-.884.356-.303.95-.303h.841v.687h-.35q-.183 0-.334.027-.147.028-.248.105-.104.08-.157.233-.052.15-.052.39V8.8q0 .43-.242.717-.24.289-.684.457v.074q.445.169.684.457.242.288.242.718v.334q0 .24.052.39.053.153.157.233.098.08.248.104.15.028.335.028h.35V13zM12 10.39h-.215q-.54 0-.782.214-.242.212-.242.758v.45q0 .584-.356.884-.353.304-.948.304h-.84v-.687h.35q.183 0 .33-.028.15-.027.252-.104.104-.08.157-.233.052-.15.052-.39v-.334q0-.43.239-.718.242-.288.687-.457v-.074q-.445-.168-.687-.457-.24-.288-.24-.717v-.335q0-.239-.051-.39-.053-.153-.157-.232-.101-.077-.251-.105-.148-.027-.332-.027h-.35v-.687h.841q.595 0 .948.303.356.3.356.884v.45q0 .547.242.761.242.212.782.212H12v.755z" style="-inkscape-font-specification:'Verdana Bold'"/></g></svg>