<svg xmlns="http://www.w3.org/2000/svg" viewBox="0 0 16 16"><path d="M2 0v16h12V4l-4-4zm8 0z" fill="#ff8700" stroke="#b9b9b9" stroke-width="0" stroke-linejoin="round"/><path d="M10 3.98V0l4 4z" fill="#fff" stroke-width="0" stroke-linejoin="round" opacity=".65"/><path d="M14 4.024V9l-4-5z" opacity=".15" stroke-width="0" stroke-linejoin="round"/><g fill="#fff"><path d="M9.54 11.11c-.09.027-.162.036-.256.036-.772 0-1.906-2.697-1.906-3.595 0-.33.08-.44.19-.534-.946.11-2.08.457-2.442.898-.08.11-.126.283-.126.503C5 9.82 6.496 13 7.55 13c.49 0 1.313-.803 1.99-1.89M9.047 6.92c.976 0 1.953.16 1.953.71 0 1.118-.71 2.473-1.07 2.473-.646 0-1.45-1.796-1.45-2.693 0-.41.158-.49.567-.49"/></g></svg>