<svg xmlns="http://www.w3.org/2000/svg" viewBox="0 0 16 16"><path d="M2 0v16h12V4l-4-4zm8 0z" fill="#efefef" stroke="#b9b9b9" stroke-width="0" stroke-linejoin="round"/><path d="M10 3.98V0l4 4z" opacity=".65" fill="#fff" stroke-width="0" stroke-linejoin="round"/><path d="M13 5.024V10L9 5z" opacity=".15" stroke-width="0" stroke-linejoin="round"/><path d="M2 0v16h12V4h-.012l.004-.008L10.008.006 10 .014V0H2zm1 1h6v4h4v10H3V1zm7 .412L12.586 4H10V1.412z" fill="#b9b9b9"/><path d="M15.897 11.4l-1.213-.347c-.034-.097-.07-.19-.115-.283l.61-1.1c.03-.056.022-.125-.023-.17l-.656-.657c-.045-.045-.114-.054-.17-.024l-1.1.61c-.092-.043-.186-.08-.283-.114L12.6 8.103c-.017-.06-.073-.103-.137-.103h-.926c-.064 0-.12.042-.138.103l-.347 1.214c-.097.034-.19.07-.283.114l-1.1-.61c-.056-.03-.125-.02-.17.024l-.656.655c-.045.045-.055.114-.024.17l.61 1.1c-.043.092-.08.186-.113.283l-1.214.346c-.06.017-.103.073-.103.137v.927c0 .064.042.12.103.137l1.213.347c.034.097.07.19.115.283l-.61 1.1c-.03.056-.022.125.023.17l.656.657c.045.045.114.054.17.024l1.1-.61c.092.043.186.08.283.114l.346 1.213c.017.06.073.103.137.103h.927c.064 0 .12-.042.137-.103l.347-1.213c.097-.034.19-.07.283-.115l1.1.61c.056.03.125.022.17-.023l.657-.656c.045-.045.054-.114.024-.17l-.61-1.1c.043-.092.08-.186.114-.283l1.213-.346c.06-.017.103-.073.103-.137v-.926c0-.064-.042-.12-.103-.138zM12 13.713c-.947 0-1.714-.767-1.714-1.714s.767-1.714 1.714-1.714 1.714.767 1.714 1.714-.767 1.714-1.714 1.714z" class="icon-color" fill="#8c8c8c"/></svg>