<svg xmlns="http://www.w3.org/2000/svg" viewBox="0 0 16 16"><path d="M2 0v16h12V4l-4-4zm8 0z" fill="#f0db4f" stroke="#b9b9b9" stroke-width="0" stroke-linejoin="round"/><path d="M10 3.98V0l4 4z" fill="#fff" stroke-width="0" stroke-linejoin="round" opacity=".65"/><path d="M14 4.024V9l-4-5z" opacity=".15" stroke-width="0" stroke-linejoin="round"/><g style="line-height:125%" font-weight="700" font-size="40" font-family="Verdana" letter-spacing="0" word-spacing="0" fill="#000"><path d="M6.985 10.5q0 .317-.113.595-.113.275-.336.466-.236.203-.568.316-.333.11-.824.11-.333 0-.627-.026-.294-.022-.517-.068v-.975h.116q.155.058.323.11.168.048.43.048.34 0 .52-.09.185-.091.262-.253.074-.158.084-.345.01-.19.01-.485V7.987H4.643v-.885h2.342V10.5zM12 10.4q0 .711-.604 1.157Q10.795 12 9.76 12q-.598 0-1.044-.103-.442-.107-.83-.269v-1.153h.136q.384.307.86.472.477.164.917.164.113 0 .297-.019.184-.02.3-.065.143-.058.233-.145.094-.087.094-.258 0-.159-.136-.272-.132-.116-.39-.178-.272-.064-.576-.12-.3-.057-.565-.144-.608-.198-.876-.534-.265-.339-.265-.84 0-.672.601-1.095.604-.426 1.55-.426.476 0 .938.093.465.09.804.23v1.108h-.132q-.29-.233-.714-.388-.42-.158-.86-.158-.155 0-.31.022-.152.02-.294.078-.126.048-.216.149-.09.097-.09.223 0 .19.145.294.145.1.549.184l.507.106q.246.052.527.143.552.18.814.494.265.31.265.808z" style="-inkscape-font-specification:'Verdana Bold'"/></g></svg>