<svg xmlns="http://www.w3.org/2000/svg" viewBox="0 0 16 16"><path fill="#999" d="M1 1v5.656l8.485 8.485 5.657-5.657L6.657 1H1zm2.475 2.475A1.75 1.75 0 1 1 5.95 5.952a1.75 1.75 0 0 1-2.475-2.477z"/><path fill="#FFF" d="M1.99 1.99v4.242l7.495 7.495 4.243-4.243L6.233 1.99H1.99zm1.485 1.485A1.75 1.75 0 1 1 5.95 5.952a1.75 1.75 0 0 1-2.475-2.477z"/><path fill="#999" d="M3.475 3.475A1.75 1.75 0 1 0 5.952 5.95a1.75 1.75 0 0 0-2.477-2.475zm.707.707a.75.75 0 1 1 1.061 1.06.75.75 0 0 1-1.061-1.06z"/><path fill="#FF8700" d="M12.137 9.662l-2.475 2.475L6.126 8.6l2.475-2.474z"/></svg>