<svg xmlns="http://www.w3.org/2000/svg" viewBox="0 0 16 16"><path d="M10 3.98V0l4 4z" fill="#fff" stroke-width="0" stroke-linejoin="round" opacity=".65"/><path d="M2 0v16h12V4l-4-4zm8 0z" fill="#d14524" stroke="#b9b9b9" stroke-width="0" stroke-linejoin="round"/><g fill="#fff"><path d="M4 12h3v1H4zM4 6h8v1H4z" stroke-linecap="square" stroke-miterlimit="0"/><path d="M7 9.5A1.5 1.5 0 0 1 5.5 11 1.5 1.5 0 0 1 4 9.5 1.5 1.5 0 0 1 5.5 8 1.5 1.5 0 0 1 7 9.5z" stroke-linecap="square"/><path d="M12 9.746q0 .325-.114.638-.114.31-.325.52-.29.287-.648.434-.355.146-.885.146H9.25v1.578H8V8.216h2.057q.462 0 .778.082.319.078.563.237.293.192.446.492.156.3.156.719zm-1.292.03q0-.206-.11-.352-.111-.15-.258-.209-.195-.078-.38-.084-.186-.01-.495-.01H9.25v1.452h.358q.319 0 .524-.04.208-.038.348-.156.12-.104.173-.247.055-.146.055-.355z" style="-inkscape-font-specification:'Verdana Bold'" font-weight="700" font-family="Verdana" font-size="40" letter-spacing="0" word-spacing="0"/></g><path d="M10 3.98V0l4 4z" opacity=".65" fill="#fff" stroke-width="0" stroke-linejoin="round"/><path d="M14 4.024V9l-4-5z" opacity=".15" stroke-width="0" stroke-linejoin="round"/></svg>