<svg xmlns="http://www.w3.org/2000/svg" id="svg2" version="1.1" viewBox="0 0 16 16"><defs id="defs4"><style id="style4150"></style><style id="style4165"></style><style id="style4188"></style><style id="style4211"></style><style id="style4234"></style><style id="style4257"></style><style id="style4280"></style><style id="style4150-3"></style><style id="style4165-6"></style><style id="style4188-9"></style><style id="style4211-4"></style><style id="style4234-0"></style><style id="style4257-3"></style><style id="style4280-2"></style><style id="style4150-6"></style><style id="style4165-4"></style><style id="style4188-8"></style><style id="style4211-1"></style><style id="style4234-7"></style><style id="style4257-8"></style><style id="style4280-28"></style><style id="style4150-8"></style><style id="style4165-40"></style><style id="style4188-80"></style><style id="style4211-3"></style><style id="style4234-2"></style><style id="style4257-7"></style><style id="style4280-1"></style><style id="style4150-86"></style><style id="style4165-2"></style><style id="style4188-91"></style><style id="style4211-8"></style><style id="style4234-9"></style><style id="style4257-9"></style><style id="style4280-27"></style><style id="style4150-9"></style><style id="style4165-29"></style><style id="style4188-6"></style><style id="style4211-32"></style><style id="style4234-6"></style><style id="style4257-33"></style><style id="style4280-9"></style><style id="style4150-32"></style><style id="style4165-0"></style><style id="style4188-98"></style><style id="style4211-6"></style><style id="style4234-8"></style><style id="style4257-76"></style><style id="style4280-0"></style><style id="style4150-4"></style><style id="style4165-7"></style><style id="style4188-1"></style><style id="style4211-0"></style><style id="style4234-07"></style><style id="style4257-6"></style><style id="style4280-3"></style><style id="style4150-3-0"></style><style id="style4165-6-1"></style><style id="style4188-9-9"></style><style id="style4211-4-7"></style><style id="style4234-0-2"></style><style id="style4257-3-0"></style><style id="style4280-2-6"></style><style id="style4150-6-7"></style><style id="style4165-4-2"></style><style id="style4188-8-9"></style><style id="style4211-1-0"></style><style id="style4234-7-4"></style><style id="style4257-8-5"></style><style id="style4280-28-0"></style><style id="style4150-8-3"></style><style id="style4165-40-8"></style><style id="style4188-80-0"></style><style id="style4211-3-2"></style><style id="style4234-2-4"></style><style id="style4257-7-2"></style><style id="style4280-1-9"></style><style id="style4150-86-8"></style><style id="style4165-2-2"></style><style id="style4188-91-4"></style><style id="style4211-8-2"></style><style id="style4234-9-2"></style><style id="style4257-9-3"></style><style id="style4280-27-4"></style><style id="style4150-9-9"></style><style id="style4165-29-7"></style><style id="style4188-6-0"></style><style id="style4211-32-8"></style><style id="style4234-6-3"></style><style id="style4257-33-2"></style><style id="style4280-9-4"></style><style id="style4150-32-2"></style><style id="style4165-0-5"></style><style id="style4188-98-2"></style><style id="style4211-6-5"></style><style id="style4234-8-0"></style><style id="style4257-76-9"></style><style id="style4280-0-7"></style><clipPath clipPathUnits="userSpaceOnUse" id="clipPath3391"><path d="M0 600h800V0H0v600z" id="path3393"/></clipPath><clipPath clipPathUnits="userSpaceOnUse" id="clipPath3407"><path d="M316 477.408h60.363V417H316v60.408z" id="path3409"/></clipPath><clipPath clipPathUnits="userSpaceOnUse" id="clipPath3427"><path d="M622 477.971h60.121V418H622v59.971z" id="path3429"/></clipPath><clipPath id="clipPath4272" clipPathUnits="userSpaceOnUse"><path id="path4274" d="M0 600.011h600V0H0v600.011z"/></clipPath><clipPath id="clipPath4860" clipPathUnits="userSpaceOnUse"><path id="path4862" d="M209.204 101.117h24.318v-14.24h-24.318v14.24z"/></clipPath><clipPath id="clipPath4884" clipPathUnits="userSpaceOnUse"><path id="path4886" d="M429.204 101.117h24.318v-14.24h-24.318v14.24z"/></clipPath></defs><g id="layer1" transform="translate(0 -1036.362)"><g id="g4137" transform="translate(-1 1)"><g transform="translate(-20.139 -1.913)" id="layer1-5"><g transform="matrix(1 0 0 -1 9 2090.05)" id="g4422" fill="#fff" fill-opacity="1" stroke="none" stroke-width="1" stroke-linecap="square" stroke-linejoin="miter" stroke-miterlimit="0" stroke-dasharray="none" stroke-dashoffset="0" stroke-opacity="1"><path id="rect4424" opacity="1" d="M24.139 1038.275h1v1h-1z"/><path id="rect4426" opacity="1" d="M24.139 1040.275h1v1h-1z"/><path id="rect4428" opacity="1" d="M24.139 1042.275h1v1h-1z"/><path id="rect4430" opacity="1" d="M24.139 1044.275h1v1h-1z"/><path id="rect4432" opacity="1" d="M24.139 1046.275h1v1h-1z"/><path id="rect4434" opacity="1" d="M24.139 1048.275h1v1h-1z"/></g><path id="rect4171" d="M23.139 1037.275v16h12v-12l-4-4zm8 0z" fill="#cd201f" fill-opacity="1" stroke="#b9b9b9" stroke-width="0" stroke-linecap="butt" stroke-linejoin="round" stroke-miterlimit="4" stroke-dasharray="none" stroke-opacity="1"/><path d="M31.139 1041.256v-3.98l4 4z" id="path4178" opacity=".65" fill="#fff" fill-opacity="1" stroke="none" stroke-width="0" stroke-linecap="butt" stroke-linejoin="round" stroke-miterlimit="4" stroke-dasharray="none" stroke-opacity="1"/><path id="path4446" d="M35.139 1041.3v4.975l-4-5z" opacity=".15" fill="#000" fill-opacity="1" stroke="none" stroke-width="0" stroke-linecap="butt" stroke-linejoin="round" stroke-miterlimit="4" stroke-dasharray="none" stroke-opacity="1"/><g id="g6716" transform="translate(66.28 963.016) scale(.07111)"><g transform="matrix(1.25 0 0 -1.25 -530.855 1222.668)" id="g4852"><path id="path4854" d="M0 0l24.318 12.6L0 25.287V0z" fill="#dc1d30" fill-opacity="1" fill-rule="nonzero" stroke="none"/></g><g transform="matrix(1.25 0 0 -1.25 -792.36 1317.456)" id="g4856"><g id="g4864"><g id="g4866" clip-path="url(#clipPath4860)" opacity=".12"><g id="g4868" transform="translate(209.204 101.117)"><path id="path4870" d="M0 0l21.326-14.24 2.992 1.552L0 0z" fill="#351516" fill-opacity="1" fill-rule="evenodd" stroke="none"/></g></g></g></g><g transform="matrix(1.40625 0 0 -1.40625 -535.363 1198.987)" id="g4872"><path id="path4874" d="M0 0l-.004 25.287L24.314 12.6 0 0zm53.393 29.668s-.88 6.202-3.579 8.934c-3.421 3.584-7.258 3.601-9.017 3.811-12.594.911-31.486.911-31.486.911h-.04s-18.891 0-31.486-.911c-1.759-.21-5.594-.227-9.017-3.811-2.699-2.732-3.577-8.934-3.577-8.934s-.9-7.283-.9-14.566V8.273c0-7.282.9-14.565.9-14.565s.878-6.202 3.577-8.934c3.423-3.585 7.92-3.47 9.923-3.846 7.201-.691 30.6-.905 30.6-.905s18.912.029 31.506.939c1.759.21 5.596.227 9.017 3.812 2.699 2.732 3.579 8.934 3.579 8.934s.898 7.283.898 14.565v6.829c0 7.283-.898 14.566-.898 14.566" fill="#fff" fill-opacity="1" fill-rule="nonzero" stroke="none"/></g></g></g></g></g></svg>