<svg xmlns="http://www.w3.org/2000/svg" viewBox="0 0 16 16"><path d="M9 16v-4.5h4.5z" fill="#e8a33d" stroke="#cd201f" stroke-width="0" stroke-linecap="round" stroke-linejoin="round"/><path d="M0 0h16v12H0z" fill="#e8a33d" stroke="#79a548" stroke-width="0" stroke-linecap="square" stroke-miterlimit="0"/><path d="M1 1.2h14v9.6H1z" fill="#ffc857" stroke="#79a548" stroke-width="0" stroke-linecap="square" stroke-miterlimit="0"/><path d="M10 13.5v-3h3z" fill="#ffc857" stroke="#cd201f" stroke-width="0" stroke-linecap="round" stroke-linejoin="round"/><path style="line-height:125%;-inkscape-font-specification:'Verdana Bold'" d="M9.5 4.26c0 .266-.03.5-.09.707-.057.202-.14.38-.248.53-.107.15-.237.283-.388.402-.15.117-.285.225-.474.323v.98H7v-1.41c.14-.05.483-.102.597-.155.115-.052.236-.138.36-.257.12-.104.21-.226.276-.366.068-.14.102-.297.102-.474 0-.263-.065-.45-.195-.56-.127-.114-.307-.17-.54-.17-.144 0-.306.04-.487.122-.18.08-.344.187-.493.316H6.5V3.043c.127-.07.324-.145.59-.22.264-.08.533-.12.805-.12.492 0 .883.144 1.172.43.29.288.433.663.433 1.127zM8.3 9.203H7v-1.25h1.3z" font-weight="bold" font-size="10" font-family="Verdana" letter-spacing="0" word-spacing="0"/></svg>