<svg xmlns="http://www.w3.org/2000/svg" viewBox="0 0 16 16"><path fill="#FFF" d="M6.4 12.7l.1-.1h.1c.6-.2 1.1-.4 1.6-.6.1-.1.2-.1.4-.2V11.5v-.1c-.5-.7-.9-1.5-.9-2.2V7.8C7.9 6.3 9.2 5 10.8 5h.5C12.9 5 14 6.2 14 7.8v1.4c0 .7-.2 1.5-.7 2.1v.4c.1 0 .2.1.3.1.4.2.8.4 1.3.5V1H1v14h4.1c.3-1.6 1.1-2.2 1.3-2.3z"/><path fill="#B9B9B9" d="M5.4 14H2V2h12v10.1c.3.1.6.3 1 .4V1H1v14h4.1c.1-.4.2-.7.3-1z"/><path fill="#B9B9B9" d="M3 3h8v1H3zM10.7 5H3v1h5.6c.5-.6 1.3-1 2.1-1zM7.9 9.2V7.8c0-.3 0-.5.1-.8H3v4h5.5c-.4-.6-.6-1.2-.6-1.8z"/><path fill="#59F" d="M6.4 12.7l.1-.1h.1c.1 0 .2-.1.3-.1V12H3v1h3.1c.1-.2.3-.3.3-.3z"/><path fill="#79A548" d="M15.1 13.6c-1.1-.3-1.8-.7-2.5-1 0 .1.1.2 0 .3-.8.8-2.3.7-3 0-.1-.1-.1-.2 0-.3-.7.3-1.5.7-2.5 1 0 0-.9.5-.9 2.4h10c-.3-2-1.1-2.4-1.1-2.4z"/><path opacity=".15" d="M6.7 15.4c.1-.8.4-1.2.5-1.2.7-.2 1.2-.5 1.7-.7.1 0 .1-.1.2-.1.5.4 1.2.7 1.9.7s1.4-.3 1.9-.7c.1 0 .1 0 .2.1.5.2 1.1.5 1.7.7.1.1.4.4.5 1.2l.1.6h.6c-.1-2-.9-2.4-.9-2.4-1.1-.3-1.8-.7-2.5-1 0 .1.1.2 0 .3-.4.4-.9.6-1.5.6s-1.2-.2-1.5-.6c-.1-.1-.1-.2 0-.3-.7.3-1.5.7-2.5 1 0 0-.9.5-.9 2.4h.6l-.1-.6z"/><path fill="#FFC857" d="M11 11.6c-.4 0-.9-.3-1.2-.6 0 1.5-.5 1.6-.3 1.9.7.8 2.3.8 3 0 .2-.2-.2-.4-.2-1.9-.4.4-.9.6-1.3.6z"/><path opacity=".15" d="M9.3 12.6c.1 0 .1-.1.2-.1-.1.1-.1.2 0 .3.1.2.2.2.3.3l.2-.1.1-.3c.1-.2.2-.6.3-1.3-.2-.1-.4-.3-.6-.4 0 .9-.2 1.3-.3 1.6h-.2zM11.9 12.7l.1.3.2.1c.1-.1.2-.1.3-.2.1-.1.1-.2 0-.3-.1-.2-.2-.6-.3-1.6-.2.2-.4.3-.6.4.1.7.2 1.1.3 1.3z"/><path fill="#FFC857" d="M11 11.6c-1.1 0-2.1-1.4-2.1-2.4V7.8c0-1 .9-1.8 1.9-1.8h.5c1.1 0 1.9.8 1.9 1.8v1.4c-.1 1-1.1 2.4-2.2 2.4z"/><path opacity=".15" d="M11.3 6.6c.7 0 1.3.5 1.3 1.2v1.4c0 .7-.8 1.8-1.5 1.8S9.5 9.9 9.5 9.2V7.8c0-.6.6-1.2 1.3-1.2h.5m0-.6h-.5c-1 0-1.9.8-1.9 1.8v1.4c0 1 1.1 2.4 2.1 2.4s2.1-1.4 2.1-2.4V7.8c0-1-.8-1.8-1.8-1.8z"/></svg>