<svg xmlns="http://www.w3.org/2000/svg" viewBox="0 0 16 16"><path fill="#951A40" d="M2 0v16h12V4l-4-4H2z"/><path fill="#FFF" d="M11.8 8H4.3c-.2 0-.3-.1-.3-.2V6.3c0-.2.1-.3.3-.3h7.5c.1 0 .2.1.2.3v1.5c0 .1-.1.2-.2.2zM11.8 11H4.3c-.2 0-.3-.1-.3-.2V9.3c0-.2.1-.3.3-.3h7.5c.1 0 .2.1.2.3v1.5c0 .1-.1.2-.2.2zM11.8 14H4.3c-.2 0-.3-.1-.3-.2v-1.5c0-.2.1-.3.3-.3h7.5c.1 0 .3.1.3.3v1.5c-.1.1-.2.2-.3.2z"/><path fill="#951A40" d="M11 7h.5v.5H11zM10 7h.5v.5H10zM11 10h.5v.5H11zM10 10h.5v.5H10zM11 13h.5v.5H11zM10 13h.5v.5H10z"/><path opacity=".15" d="M14 4v5l-4-5h4z"/><path opacity=".65" fill="#FFF" d="M10 4V0l4 4h-4z"/></svg>