<svg xmlns="http://www.w3.org/2000/svg" viewBox="0 0 16 16"><path d="M2 0v16h12V4l-4-4H2zm8 0l4 .02V0h-4z" fill="#59f" stroke="#fff" stroke-width="0" stroke-linejoin="round"/><path d="M10 3.98V0l4 4z" fill="#fff" stroke-width="0" stroke-linejoin="round" opacity=".65"/><path d="M14 4.024V9l-4-5z" opacity=".15" stroke-width="0" stroke-linejoin="round"/><g stroke-width="2" stroke-miterlimit="2.5" fill="#fff"><path d="M10.39 10.593l-.797.797L5.61 7.407l.797-.796z"/><path d="M11.872 11.5c.22-.394.197-.82-.392-1.41-.53-.53-1.208-.175-1.868.484-.66.66-1.05 1.376-.522 1.906.59.59 1.016.612 1.41.392-.09-.08-.182-.16-.286-.264-.588-.588-.738-.798-.06-1.476.677-.677.866-.506 1.454.082.104.104.185.196.264.286zM4.128 6.5c-.22.394-.197.82.392 1.41.53.53 1.208.176 1.868-.484.66-.66 1.05-1.376.522-1.905-.59-.59-1.016-.612-1.41-.392.09.08.182.16.286.264.588.588.738.798.06 1.476-.677.678-.866.506-1.454-.082-.104-.104-.185-.196-.264-.286zM11.186 5.415l.398.4-4.24 4.32-.478-.48z"/><path d="M11.056 5.28l.664.663-.73.863-.796-.797zM6.708 9.3l.99.99-2.19 2.192-.99-.99z"/></g></svg>