<svg xmlns="http://www.w3.org/2000/svg" viewBox="0 0 16 16"><defs><clipPath id="a"><path d="M0 841.89h595.28V0H0v841.89z"/></clipPath></defs><path d="M2 0v16h12V4l-4-4zm8 0z" fill="#f32" fill-opacity=".941" stroke="#b9b9b9" stroke-width="0" stroke-linejoin="round"/><path d="M10 3.98V0l4 4z" fill="#fff" stroke-width="0" stroke-linejoin="round" opacity=".65"/><path d="M14 4.024V9l-4-5z" opacity=".15" stroke-width="0" stroke-linejoin="round"/><g clip-path="url(#a)" transform="matrix(.09856 0 0 -.09856 -21.37 50.534)" fill="#fff"><path d="M323.401 444.739c2.063.715 4.367 1.112 7.067 1.112v16.122c-11.594 0-20.886-4.368-27.955-13.184-2.462-3.097-4.924-6.988-6.989-11.754l-5.24-12.786c-1.828-5.163-3.417-8.975-4.687-11.515-1.668-3.655-3.256-6.513-4.844-8.578-1.986-2.462-4.05-4.13-6.354-5.243-2.542-1.19-5.48-1.826-8.895-1.826v-16.28c11.595 0 20.887 4.447 27.955 13.183 1.986 2.622 3.892 5.639 5.72 9.213l4.447 10.165h18.662v16.202h-12.31c1.193 2.7 2.384 5.003 3.654 6.989 1.35 2.065 2.78 3.812 4.29 5.004 1.666 1.428 3.413 2.46 5.48 3.176" fill-rule="evenodd"/></g></svg>