<svg xmlns="http://www.w3.org/2000/svg" viewBox="0 0 16 16"><g stroke-width="0"><path d="M2 0v16h12V4l-4-4zm8 0z" fill="#ffc857" stroke="#b9b9b9" stroke-linejoin="round"/><path d="M10 3.98V0l4 4z" fill="#fff" stroke-linejoin="round" opacity=".65"/><path d="M14 4.024V9l-4-5z" opacity=".15" stroke-linejoin="round"/><path fill="#e8a33d" stroke="#fff" d="M4 0h1v16H4z"/><path fill="#8c8c8c" stroke="#fff" d="M5 14h1v1H5zM5 12h1v1H5zM5 10h1v1H5zM5 8h1v1H5zM5 6h1v1H5zM5 4h1v1H5zM5 2h1v1H5zM5 0h1v1H5z"/><path fill="#8c8c8c" stroke="#fff" d="M4 10h2v5H4z"/></g></svg>