<svg xmlns="http://www.w3.org/2000/svg" viewBox="0 0 16 16"><defs><clipPath id="a"><path d="M0 841.89h595.28V0H0v841.89z"/></clipPath></defs><path d="M2 0v16h12V4l-4-4zm8 0z" fill="#f32" fill-opacity=".941"/><path d="M10 3.98V0l4 4z" fill="#fff" opacity=".65"/><path d="M14 4.024V9l-4-5z" opacity=".15"/><g clip-path="url(#a)" transform="matrix(.09856 0 0 -.09856 -21.37 50.534)" fill="#fff"><path d="M323.4 444.74c2.064.714 4.368 1.11 7.068 1.11v16.123c-11.594 0-20.886-4.368-27.955-13.184-2.462-3.098-4.924-6.99-6.99-11.755l-5.24-12.786c-1.827-5.164-3.416-8.976-4.686-11.516-1.668-3.655-3.256-6.513-4.844-8.578-1.986-2.462-4.05-4.13-6.354-5.243-2.543-1.19-5.482-1.826-8.896-1.826v-16.28c11.595 0 20.887 4.447 27.955 13.183 1.985 2.622 3.89 5.64 5.718 9.213l4.448 10.165h18.662v16.202h-12.31c1.193 2.7 2.384 5.003 3.654 6.99 1.35 2.064 2.78 3.81 4.29 5.003 1.666 1.428 3.413 2.46 5.48 3.176" fill-rule="evenodd"/></g></svg>