<svg xmlns="http://www.w3.org/2000/svg" viewBox="0 0 16 16"><path fill="#EFEFEF" d="M2 0v16h12V4l-4-4H2z"/><path opacity=".65" fill="#FFF" d="M10 4V0l4 4h-4z"/><path opacity=".2" d="M13 5v5L9 5h4z"/><path fill="#999" d="M2 0v16h12V4l-4-4H2zm1 1h6v4h4v10H3V1zm7 .4L12.6 4H10V1.4z"/><circle fill="#FFF" cx="12" cy="12" r="2"/><path fill="#666" d="M15.897 11.4l-1.213-.347c-.034-.097-.07-.19-.115-.282l.61-1.1c.03-.056.02-.125-.024-.17l-.656-.656c-.045-.045-.115-.055-.17-.024l-1.1.61c-.09-.043-.186-.08-.282-.114l-.346-1.213c-.02-.06-.075-.103-.14-.103h-.926c-.064 0-.12.042-.137.103l-.348 1.213c-.097.034-.19.07-.282.115l-1.1-.61c-.055-.03-.125-.02-.17.024l-.656.655c-.045.045-.055.114-.024.17l.61 1.1c-.043.092-.08.187-.114.283l-1.213.346c-.06.017-.103.073-.103.137v.927c0 .064.042.12.103.137l1.213.347c.034.097.07.19.115.282l-.61 1.1c-.032.056-.022.125.023.17l.656.656c.044.045.114.055.17.024l1.1-.61c.09.043.186.08.282.114l.346 1.213c.02.06.075.103.14.103h.926c.064 0 .12-.042.137-.103l.347-1.213c.097-.034.19-.07.282-.115l1.1.61c.056.03.125.02.17-.024l.656-.656c.045-.045.055-.115.024-.17l-.61-1.1c.043-.092.08-.187.114-.283l1.213-.346c.06-.017.103-.073.103-.137v-.927c0-.063-.042-.12-.103-.137zM12 13.713c-.947 0-1.714-.767-1.714-1.714s.767-1.714 1.714-1.714 1.714.767 1.714 1.714-.767 1.714-1.714 1.714z"/></svg>