<svg xmlns="http://www.w3.org/2000/svg" viewBox="0 0 16 16"><path d="M2 0v16h12V4l-4-4zm8 0z" fill="#1e7145" fill-opacity=".941" stroke="#b9b9b9" stroke-width="0" stroke-linejoin="round"/><g transform="translate(0 1)" fill="#fff"><rect ry="0" rx="0" y="5" x="4" height="1" width="2" stroke-linecap="square" stroke-miterlimit="0"/><rect width="2" height="1" x="7" y="5" rx="0" ry="0" stroke-linecap="square" stroke-miterlimit="0"/><rect ry="0" rx="0" y="5" x="10" height="1" width="2" stroke-linecap="square" stroke-miterlimit="0"/><rect width="2" height="1" x="4" y="7" rx="0" ry="0" stroke-linecap="square" stroke-miterlimit="0"/><rect ry="0" rx="0" y="9" x="4" height="1" width="2" stroke-linecap="square" stroke-miterlimit="0"/><rect width="2" height="1" x="4" y="11" rx="0" ry="0" stroke-linecap="square" stroke-miterlimit="0"/><text y="12.186" x="6.491" style="line-height:125%" font-weight="400" font-size="9.323" font-family="sans-serif" letter-spacing="0" word-spacing="0"><tspan style="-inkscape-font-specification:'Verdana Bold'" y="12.186" x="6.491" font-weight="700" font-family="Verdana">x</tspan></text></g><path d="M10 3.98V0l4 4z" opacity=".65" fill="#fff" stroke-width="0" stroke-linejoin="round"/><path d="M14 4.024V9l-4-5z" opacity=".15" stroke-width="0" stroke-linejoin="round"/></svg>