<?xml version="1.0" encoding="utf-8"?>
<!-- Generator: Adobe Illustrator 19.1.0, SVG Export Plug-In . SVG Version: 6.00 Build 0)  -->
<svg version="1.1" xmlns="http://www.w3.org/2000/svg" xmlns:xlink="http://www.w3.org/1999/xlink" x="0px" y="0px"
	 viewBox="0 0 16 16" enable-background="new 0 0 16 16" xml:space="preserve">
<g id="default-not-found">
	<path fill="#CD201F" d="M11,12l3-2v6H2v-6l3,2l3-2L11,12z"/>
	<path opacity="0.2" d="M8,10.3l2.86,1.91L11,12.3l0.14-0.09l2.61-1.74v5.28H2.25v-5.28l2.61,1.74L5,12.3l0.14-0.09L8,10.3 M14,10
		l-3,2l-3-2l-3,2l-3-2v6h12V10L14,10z"/>
	<path fill="#CD201F" d="M14,4v4l-3,2L8,8l-3,2L2,8V0h8L14,4z"/>
	<polygon opacity="0.2" points="13.75,7.87 11,9.7 8.14,7.79 8,7.7 7.86,7.79 5,9.7 2.25,7.87 2.25,0.25 10,0.25 10,0 2,0 2,8 5,10 
		8,8 11,10 14,8 14,4 13.75,4 	"/>
	<path opacity="0.3" fill="#FFFFFF" d="M14,4h-4V0L14,4z"/>
	<path opacity="0.3" d="M14,8l-4-4h4V8z"/>
</g>
</svg>
