<svg xmlns="http://www.w3.org/2000/svg" viewBox="0 0 64 64"><path fill="#428859" d="M0 0h64v64H0z"/><path fill="#FFF" d="M47 24H17c-.552 0-1-.448-1-1v-6c0-.552.448-1 1-1h30c.552 0 1 .448 1 1v6c0 .552-.448 1-1 1z"/><path fill="#428859" d="M44 20h2v2h-2zM40 20h2v2h-2z"/><path fill="#FFF" d="M47 34H17c-.552 0-1-.448-1-1v-6c0-.552.448-1 1-1h30c.552 0 1 .448 1 1v6c0 .552-.448 1-1 1z"/><path fill="#428859" d="M44 30h2v2h-2zM40 30h2v2h-2z"/><path fill="#FFF" d="M47 48H17c-.552 0-1-.448-1-1V37c0-.552.448-1 1-1h30c.552 0 1 .448 1 1v10c0 .552-.448 1-1 1z"/><path fill="#428859" d="M44 44h2v2h-2zM40 44h2v2h-2z"/></svg>