<svg xmlns="http://www.w3.org/2000/svg" viewBox="0 0 64 64"><path fill="#EF8534" d="M0 0h64v64H0z"/><path fill="#FFF" d="M16 16h2v32h-2zM26 16h2v32h-2zM36 16h2v32h-2zM46 16h2v32h-2z"/><path fill="#FFF" d="M14 22h6v14h-6z"/><path opacity=".5" fill="#EF8534" d="M16 20h2v2h-2zM16 36h2v2h-2z"/><path fill="#FFF" d="M24 26h6v14h-6z"/><path opacity=".5" fill="#EF8534" d="M26 24h2v2h-2zM26 40h2v2h-2z"/><g><path fill="#FFF" d="M34 28h6v14h-6z"/><path opacity=".5" fill="#EF8534" d="M36 26h2v2h-2zM36 42h2v2h-2z"/></g><g><path fill="#FFF" d="M44 24h6v14h-6z"/><path opacity=".5" fill="#EF8534" d="M46 22h2v2h-2zM46 38h2v2h-2z"/></g></svg>