<?xml version="1.0" encoding="utf-8"?>
<!-- Generator: Adobe Illustrator 19.0.1, SVG Export Plug-In . SVG Version: 6.00 Build 0)  -->
<svg version="1.1" xmlns="http://www.w3.org/2000/svg" xmlns:xlink="http://www.w3.org/1999/xlink" x="0px" y="0px"
	 viewBox="0 0 64 64" enable-background="new 0 0 64 64" xml:space="preserve">
<g id="Background">
	<rect fill="#428859" width="64" height="64"/>
</g>
<g id="Icon">
	<path fill-rule="evenodd" clip-rule="evenodd" fill="#FFFFFF" d="M43.6,39.3c-0.8,0.4-1.8,0.7-2.9,1L40,39.5
		c-0.8-0.8-1.9-1.2-3-1.2c-1.1,0-2.2,0.5-3,1.2l-1.8,1.8c0,0,0,0,0,0c-0.1,0-0.1,0-0.2,0c-7.7,0-14-2.1-14-4.7v-3.1
		c3,2.1,8.5,3.1,14,3.1s11-1,14-3.1v3.1c0,0.1,0,0.2,0,0.3L43.6,39.3z M32,34.3c-7.7,0-14-2.1-14-4.7v-3.1c3,2.1,8.5,3.1,14,3.1
		s11-1,14-3.1v3.1C46,32.2,39.7,34.3,32,34.3z M32,27.3c-7.7,0-14-2.1-14-4.7v-2.3c0-2.6,6.3-4.7,14-4.7s14,2.1,14,4.7v2.3
		C46,25.2,39.7,27.3,32,27.3z M30.9,44.3c0,1.1,0.5,2.2,1.2,3l1,1c-0.4,0-0.8,0-1.2,0c-7.7,0-14-2.1-14-4.7v-3.1c2.8,2,7.9,3,13,3.1
		C31,43.9,30.9,44.1,30.9,44.3z"/>
	<path fill="#FFFFFF" d="M53.7,39.1c0-0.3-0.1-0.6-0.4-0.9l-1.8-1.8c-0.2-0.2-0.6-0.4-0.9-0.4s-0.6,0.1-0.9,0.4L41.3,45l-3.8-3.8
		c-0.2-0.2-0.6-0.4-0.9-0.4c-0.3,0-0.6,0.1-0.9,0.4L34,43c-0.2,0.2-0.4,0.6-0.4,0.9c0,0.3,0.1,0.6,0.4,0.9l4.7,4.7l1.8,1.8
		c0.2,0.2,0.6,0.4,0.9,0.4s0.6-0.1,0.9-0.4l1.8-1.8l9.4-9.4C53.6,39.8,53.7,39.5,53.7,39.1z"/>
</g>
</svg>
