<?xml version="1.0" encoding="utf-8"?>
<!-- Generator: Adobe Illustrator 19.0.1, SVG Export Plug-In . SVG Version: 6.00 Build 0)  -->
<svg version="1.1" xmlns="http://www.w3.org/2000/svg" xmlns:xlink="http://www.w3.org/1999/xlink" x="0px" y="0px"
	 viewBox="0 0 64 64" enable-background="new 0 0 64 64" xml:space="preserve">
<g id="Background">
	<rect fill="#EF8534" width="64" height="64"/>
</g>
<g id="Icon">
	<path fill="#FFFFFF" d="M38.6,37.5c-0.3-0.1-0.6-0.1-0.8,0.1c-0.1,0.1-0.2,0.3-0.2,0.5c0,0.1,0,0.2,0.1,0.3l7,14.1
		c0.1,0.3,0.5,0.4,0.8,0.4s0.5-0.4,0.5-0.7v-6.3h6.3c0.3,0,0.6-0.2,0.7-0.5c0-0.1,0-0.1,0-0.2c0-0.3-0.1-0.5-0.4-0.6L38.6,37.5z"/>
	<path fill-rule="evenodd" clip-rule="evenodd" fill="#FFFFFF" d="M23,38.4c0,0.3-0.3,0.6-0.6,0.6h-0.8c-0.3,0-0.6-0.3-0.6-0.6v-0.9
		c0-0.3,0.3-0.6,0.6-0.6h0.8c0.3,0,0.6,0.3,0.6,0.6V38.4z M22.4,31h-0.8c-0.3,0-0.6-0.3-0.6-0.6v-0.9c0-0.3,0.3-0.6,0.6-0.6h0.8
		c0.3,0,0.6,0.3,0.6,0.6v0.9C23,30.7,22.7,31,22.4,31z M23,34.4c0,0.3-0.3,0.6-0.6,0.6h-0.9c-0.3,0-0.6-0.3-0.6-0.6v-0.9
		c0-0.3,0.3-0.6,0.6-0.6h0.9c0.3,0,0.6,0.3,0.6,0.6V34.4z M46,37.8V26.5c0-0.3-0.3-0.6-0.6-0.6H18.6c-0.3,0-0.6,0.3-0.6,0.6v14.9
		c0,0.3,0.3,0.6,0.6,0.6h17.2l1,2H18c-1.6,0-2-0.5-2-2V22c0-1.6,0.4-2,2-2h28c1.6,0,2,0.3,2,1.9v16.9L46,37.8z M25.6,39
		c-0.3,0-0.6-0.3-0.6-0.6v-0.9c0-0.3,0.3-0.6,0.6-0.6h8.8c-0.1,0.3-0.1,0.6-0.1,1c0,0.4,0.1,0.7,0.2,1H25.6z M42.5,31H25.6
		c-0.3,0-0.6-0.3-0.6-0.6v-0.9c0-0.3,0.3-0.6,0.6-0.6h16.9c0.3,0,0.6,0.3,0.6,0.6v0.9C43.1,30.7,42.8,31,42.5,31z M38,34.2
		c-0.8,0-1.5,0.3-2.2,0.7H25.6c-0.3,0-0.6-0.3-0.6-0.6v-0.9c0-0.3,0.3-0.6,0.6-0.6h16.9c0.3,0,0.6,0.3,0.6,0.6v0.9
		c0,0.3-0.3,0.6-0.6,0.6h-2.2l-0.6-0.3C39.2,34.4,38.6,34.2,38,34.2z"/>
</g>
</svg>
