<svg xmlns="http://www.w3.org/2000/svg" viewBox="0 0 64 64"><path fill="#428859" d="M0 0h64v64H0z"/><g fill="#FFF"><path fill-rule="evenodd" clip-rule="evenodd" d="M43.6 39.3c-.8.4-1.8.7-2.9 1l-.7-.8c-.8-.8-1.9-1.2-3-1.2s-2.2.5-3 1.2l-1.8 1.8H32c-7.7 0-14-2.1-14-4.7v-3.1c3 2.1 8.5 3.1 14 3.1s11-1 14-3.1v3.4l-2.4 2.4zm-11.6-5c-7.7 0-14-2.1-14-4.7v-3.1c3 2.1 8.5 3.1 14 3.1s11-1 14-3.1v3.1c0 2.6-6.3 4.7-14 4.7zm0-7c-7.7 0-14-2.1-14-4.7v-2.3c0-2.6 6.3-4.7 14-4.7s14 2.1 14 4.7v2.3c0 2.6-6.3 4.7-14 4.7zm-1.1 17c0 1.1.5 2.2 1.2 3l1 1h-1.2c-7.7 0-14-2.1-14-4.7v-3.1c2.8 2 7.9 3 13 3.1.1.3 0 .5 0 .7z"/><path d="M53.7 39.1c0-.3-.1-.6-.4-.9l-1.8-1.8c-.2-.2-.6-.4-.9-.4s-.6.1-.9.4L41.3 45l-3.8-3.8c-.2-.2-.6-.4-.9-.4-.3 0-.6.1-.9.4L34 43c-.2.2-.4.6-.4.9 0 .3.1.6.4.9l4.7 4.7 1.8 1.8c.2.2.6.4.9.4s.6-.1.9-.4l1.8-1.8 9.4-9.4c.1-.3.2-.6.2-1z"/></g></svg>