<svg xmlns="http://www.w3.org/2000/svg" viewBox="0 0 64 64"><path fill="#EF8534" d="M0 0h64v64H0z"/><g fill="#FFF"><path d="M38.6 37.5c-.3-.1-.6-.1-.8.1-.1.1-.2.3-.2.5 0 .1 0 .2.1.3l7 14.1c.1.3.5.4.8.4s.5-.4.5-.7v-6.3h6.3c.3 0 .6-.2.7-.5v-.2c0-.3-.1-.5-.4-.6l-14-7.1z"/><path fill-rule="evenodd" clip-rule="evenodd" d="M23 38.4c0 .3-.3.6-.6.6h-.8c-.3 0-.6-.3-.6-.6v-.9c0-.3.3-.6.6-.6h.8c.3 0 .6.3.6.6v.9zm-.6-7.4h-.8c-.3 0-.6-.3-.6-.6v-.9c0-.3.3-.6.6-.6h.8c.3 0 .6.3.6.6v.9c0 .3-.3.6-.6.6zm.6 3.4c0 .3-.3.6-.6.6h-.9c-.3 0-.6-.3-.6-.6v-.9c0-.3.3-.6.6-.6h.9c.3 0 .6.3.6.6v.9zm23 3.4V26.5c0-.3-.3-.6-.6-.6H18.6c-.3 0-.6.3-.6.6v14.9c0 .3.3.6.6.6h17.2l1 2H18c-1.6 0-2-.5-2-2V22c0-1.6.4-2 2-2h28c1.6 0 2 .3 2 1.9v16.9l-2-1zM25.6 39c-.3 0-.6-.3-.6-.6v-.9c0-.3.3-.6.6-.6h8.8c-.1.3-.1.6-.1 1s.1.7.2 1h-8.9zm16.9-8H25.6c-.3 0-.6-.3-.6-.6v-.9c0-.3.3-.6.6-.6h16.9c.3 0 .6.3.6.6v.9c0 .3-.3.6-.6.6zM38 34.2c-.8 0-1.5.3-2.2.7H25.6c-.3 0-.6-.3-.6-.6v-.9c0-.3.3-.6.6-.6h16.9c.3 0 .6.3.6.6v.9c0 .3-.3.6-.6.6h-2.2l-.6-.3c-.5-.2-1.1-.4-1.7-.4z"/></g></svg>