<svg xmlns="http://www.w3.org/2000/svg" viewBox="0 0 16 16"><path fill="#D14524" d="M14 16H2V0h8l4 4v12z"/><path opacity=".1" d="M13.75 15.75H2.25V.25H10V0H2v16h12V4h-.25"/><path opacity=".7" fill="#FFF" d="M14 4h-4V0l4 4z"/><path opacity=".3" d="M14 8l-4-4h4v4z"/><path fill="#FFF" d="M6.84 7.78v2.63h1.05c.39 0 .69-.11.9-.34.21-.23.32-.55.32-.98 0-.42-.11-.74-.32-.97-.21-.23-.51-.34-.9-.34H6.84zM6 7h1.89c.69 0 1.22.18 1.57.53.36.36.54.88.54 1.56 0 .69-.18 1.21-.54 1.57-.35.35-.88.53-1.57.53H6.84V14H6V7z"/></svg>