<svg xmlns="http://www.w3.org/2000/svg" viewBox="0 0 16 16"><path fill="#FFF" d="M14 16H2V0h8l4 4v12z"/><path opacity=".5" d="M13.75 15.75H2.25V.25H10V0H2v16h12V4h-.25"/><path fill="#E6E6E6" d="M14 4h-4V0l4 4z"/><path opacity=".3" d="M14 8l-4-4h4v4z"/><path fill="#999" d="M11.75 14h-7.5c-.14 0-.25-.11-.25-.25v-.5c0-.14.11-.25.25-.25h7.5c.14 0 .25.11.25.25v.5c0 .14-.11.25-.25.25zM11.75 12h-7.5c-.14 0-.25-.11-.25-.25v-.5c0-.14.11-.25.25-.25h7.5c.14 0 .25.11.25.25v.5c0 .14-.11.25-.25.25zM11.75 10h-7.5C4.11 10 4 9.89 4 9.75v-.5c0-.14.11-.25.25-.25h7.5c.14 0 .25.11.25.25v.5c0 .14-.11.25-.25.25zM11.75 8h-7.5C4.11 8 4 7.89 4 7.75v-.5c0-.14.11-.25.25-.25h7.5c.14 0 .25.11.25.25v.5c0 .14-.11.25-.25.25zM7.75 5h-3.5C4.11 5 4 4.89 4 4.75v-.5c0-.14.11-.25.25-.25h3.5c.14 0 .25.11.25.25v.5c0 .14-.11.25-.25.25zM7.75 3h-3.5C4.11 3 4 2.89 4 2.75v-.5c0-.14.11-.25.25-.25h3.5c.14 0 .25.11.25.25v.5c0 .14-.11.25-.25.25z"/></svg>