<svg xmlns="http://www.w3.org/2000/svg" viewBox="0 0 16 16"><path fill="#F0DB4F" d="M14 16H2V0h8l4 4v12z"/><path opacity=".1" d="M13.75 15.75H2.25V.25H10V0H2v16h12V4h-.25"/><path opacity=".7" fill="#FFF" d="M14 4h-4V0l4 4z"/><path opacity=".3" d="M14 8l-4-4h4v4z"/><path fill="#333" d="M6.99 12.2c0 .25-.04.49-.11.72-.08.22-.19.41-.34.56-.16.16-.35.29-.57.38-.22.09-.5.13-.82.13-.22 0-.43-.01-.63-.03-.2-.02-.37-.05-.52-.08V12.7h.12c.1.05.21.09.32.13.11.04.26.06.43.06.23 0 .4-.04.52-.11s.21-.17.26-.3c.05-.13.08-.27.08-.42.01-.15.01-.35.01-.58V9.17h-1.1V8.1h2.34v4.1zM12 12.08c0 .57-.2 1.03-.6 1.39-.4.35-.95.53-1.64.53-.4 0-.75-.04-1.04-.12-.3-.09-.57-.19-.83-.32v-1.39h.14c.26.25.54.44.86.57.32.13.62.2.92.2.08 0 .17-.01.3-.02.12-.02.22-.04.3-.08.09-.05.17-.1.23-.17s.09-.17.09-.31c0-.13-.05-.24-.14-.33-.09-.09-.22-.16-.39-.21-.18-.05-.37-.1-.58-.14-.2-.05-.39-.1-.57-.17-.4-.16-.7-.37-.88-.64-.17-.3-.25-.64-.25-1.04 0-.54.2-.98.6-1.32.4-.34.92-.51 1.55-.51.31 0 .63.04.93.11.31.07.58.16.8.28v1.33h-.13c-.19-.19-.43-.34-.71-.47-.28-.13-.57-.19-.86-.19-.1 0-.21.01-.31.03-.1.02-.2.05-.29.09-.08.04-.16.1-.22.18-.06.08-.09.17-.09.27 0 .15.05.27.15.35.1.08.28.15.55.22.18.04.35.09.51.13.16.04.34.1.53.17.37.15.64.34.81.59.17.26.26.59.26.99z"/></svg>