<svg xmlns="http://www.w3.org/2000/svg" viewBox="0 0 16 16"><path fill="#6B7EB9" d="M14 16H2V0h8l4 4v12z"/><path opacity=".1" d="M13.75 15.75H2.25V.25H10V0H2v16h12V4h-.25"/><path opacity=".7" fill="#FFF" d="M14 4h-4V0l4 4z"/><path opacity=".3" d="M14 8l-4-4h4v4z"/><path fill="#FFF" d="M3 9.1c.27-.06.64-.1 1.01-.1.58 0 1.03.08 1.36.38.3.26.43.67.43 1.09 0 .54-.16.92-.42 1.2-.31.33-.82.48-1.22.48h-.19V14H3V9.1zm.97 2.26c.04.01.1.01.16.01.49 0 .71-.35.71-.81 0-.44-.18-.78-.63-.78-.09 0-.18.01-.24.04v1.54zM7.36 9.02v1.99h1.01V9.02h.97V14h-.97v-2.08H7.36V14h-.97V9.02h.97zM10.2 9.1c.28-.06.65-.1 1.02-.1.58 0 1.03.08 1.35.38.3.26.43.67.43 1.09 0 .54-.16.92-.42 1.2-.31.33-.81.47-1.21.47h-.19V14h-.98V9.1zm.97 2.26c.04.01.1.01.16.01.49 0 .71-.35.71-.81 0-.44-.18-.78-.63-.78-.09 0-.18.01-.24.04v1.54z"/></svg>