<svg xmlns="http://www.w3.org/2000/svg" viewBox="0 0 16 16"><path fill="#FF8700" d="M14 16H2V0h8l4 4v12z"/><path opacity=".1" d="M13.75 15.75H2.25V.25H10V0H2v16h12V4h-.25"/><path opacity=".7" fill="#FFF" d="M14 4h-4V0l4 4z"/><path opacity=".3" d="M14 8l-4-4h4v4z"/><path fill="#FFF" d="M5.95 9.93H5v-.89h2.95v.88h-.96v4.03H5.95V9.93zM8.35 12.98c.22.11.58.19.88.19.49 0 .73-.23.73-.55 0-.36-.24-.53-.69-.8-.73-.41-1.01-.93-1.01-1.37 0-.79.57-1.45 1.7-1.45.35 0 .68.09.84.17l-.17.83c-.15-.09-.38-.17-.68-.17-.45 0-.66.25-.66.51 0 .29.16.44.74.77.71.39.97.89.97 1.4 0 .9-.73 1.49-1.78 1.49-.43 0-.85-.1-1.03-.2l.16-.82z"/></svg>