<svg xmlns="http://www.w3.org/2000/svg" viewBox="0 0 16 16"><path fill="#59F" d="M14 16H2V0h8l4 4v12z"/><path opacity=".1" d="M13.75 15.75H2.25V.25H10V0H2v16h12V4h-.25"/><path opacity=".7" fill="#FFF" d="M14 4h-4V0l4 4z"/><path opacity=".3" d="M14 8l-4-4h4v4z"/><path fill="#FFF" d="M9.33 10.06c0 .05-.04.12-.1.12l-.65.1c-.03.11-.08.21-.13.32.12.17.24.32.38.48.02.02.03.05.03.08s-.01.06-.03.08c-.08.11-.55.62-.67.62-.03 0-.06-.01-.09-.03l-.47-.37c-.1.05-.21.1-.32.13-.02.21-.04.44-.1.65-.02.06-.07.1-.12.1h-.78c-.06 0-.12-.05-.12-.1l-.1-.64c-.11-.03-.21-.08-.31-.13l-.49.37c-.02.02-.05.03-.08.03s-.06-.01-.09-.03c-.11-.1-.6-.55-.6-.67 0-.03.01-.05.03-.08.12-.16.25-.31.37-.48-.06-.11-.11-.22-.15-.34l-.63-.1c-.07-.01-.11-.07-.11-.12v-.78c0-.05.04-.12.1-.12l.65-.1c.03-.11.08-.21.13-.32-.12-.16-.25-.32-.38-.48-.02-.02-.03-.05-.03-.08s.01-.06.03-.08c.08-.11.55-.62.67-.62.03 0 .06.01.09.03l.48.38c.1-.05.21-.1.32-.13.02-.22.04-.45.09-.65.02-.06.07-.1.13-.1h.78c.06 0 .12.05.12.1l.1.64c.11.03.21.08.31.13l.49-.37c.02-.02.05-.03.08-.03s.06.01.09.03c.11.1.6.55.6.67 0 .03-.01.05-.03.08-.12.16-.24.31-.36.48.05.11.1.22.14.34l.63.1c.06.01.1.07.1.13v.76zM6.67 8.6c-.59 0-1.07.48-1.07 1.07 0 .59.48 1.07 1.07 1.07s1.07-.48 1.07-1.07c-.01-.59-.49-1.07-1.07-1.07zM12 7.82c0 .06-.54.12-.62.13-.03.08-.07.15-.12.22.04.08.21.5.21.57 0 .01 0 .02-.02.03-.05.03-.5.3-.52.3-.05 0-.37-.42-.41-.48-.04 0-.08.01-.13.01-.04 0-.08 0-.12-.01-.04.06-.35.48-.41.48-.02 0-.47-.27-.52-.3l-.01-.02c0-.07.18-.49.21-.57-.04-.08-.09-.15-.12-.23-.08 0-.62-.06-.62-.13v-.58c0-.06.54-.12.62-.13.03-.07.08-.15.13-.21-.04-.08-.21-.5-.21-.57 0-.01 0-.02.02-.03.04-.03.49-.3.51-.3.05 0 .37.41.41.47.04 0 .08-.01.12-.01.04 0 .08 0 .13.01.12-.16.24-.32.38-.47h.02c.02 0 .47.26.52.29.01.01.02.02.02.03 0 .08-.17.49-.21.57.05.07.09.14.12.22.08.01.62.07.62.13v.58zm0 4.27c0 .06-.54.12-.62.13-.03.08-.07.15-.12.22.04.08.21.5.21.58 0 .01 0 .02-.02.03-.05.03-.5.3-.52.3-.05 0-.37-.42-.41-.48-.04 0-.08.01-.13.01-.04 0-.08 0-.12-.01-.04.06-.35.48-.41.48-.02 0-.47-.27-.52-.3-.01-.01-.02-.02-.02-.03 0-.07.18-.49.21-.58-.05-.07-.09-.14-.12-.22-.08-.01-.62-.07-.62-.13v-.58c0-.06.54-.12.62-.13.03-.08.07-.15.12-.22-.04-.08-.21-.5-.21-.57 0-.01 0-.02.02-.03.05-.02.5-.29.52-.29.05 0 .37.41.41.47.04 0 .08-.01.12-.01.04 0 .08 0 .13.01.12-.16.24-.32.38-.47l.02-.01c.02 0 .47.26.52.29.01.01.02.02.02.03 0 .08-.17.49-.21.57.05.07.09.14.12.22.08.01.62.07.62.13v.59zM10.4 7c-.29 0-.53.24-.53.53 0 .3.24.53.53.53.3 0 .53-.24.53-.53 0-.29-.24-.53-.53-.53zm0 4.27c-.29 0-.53.24-.53.53 0 .3.24.53.53.53.3 0 .53-.24.53-.53 0-.29-.24-.53-.53-.53z"/></svg>