<svg xmlns="http://www.w3.org/2000/svg" viewBox="0 0 16 16"><path fill="#F32" d="M14 16H2V0h8l4 4v12z"/><path opacity=".1" d="M13.75 15.75H2.25V.25H10V0H2v16h12V4h-.25"/><path opacity=".7" fill="#FFF" d="M14 4h-4V0l4 4z"/><path opacity=".3" d="M14 8l-4-4h4v4z"/><path fill="#FFF" d="M10.35 7.7c.19-.07.4-.11.65-.11V6c-1.07 0-1.93.43-2.58 1.3-.23.3-.46.69-.65 1.16l-.48 1.26c-.17.51-.32.88-.43 1.13-.15.36-.3.64-.45.85-.18.24-.37.41-.59.52-.23.11-.5.18-.82.18V14c1.07 0 1.93-.44 2.58-1.3.18-.26.36-.56.53-.91l.41-1h1.72v-1.6H9.11c.11-.26.22-.49.34-.69.12-.2.26-.38.4-.49.15-.14.31-.24.5-.31"/></svg>