<svg xmlns="http://www.w3.org/2000/svg" viewBox="0 0 16 16"><path fill="#45B058" d="M14 16H2V0h8l4 4v12z"/><path opacity=".1" d="M13.75 15.75H2.25V.25H10V0H2v16h12V4h-.25"/><path opacity=".7" fill="#FFF" d="M14 4h-4V0l4 4z"/><path opacity=".3" d="M14 8l-4-4h4v4z"/><path fill="#FFF" d="M4.74 12c-.25 0-.49-.04-.7-.13-.21-.08-.4-.21-.55-.38-.15-.17-.27-.38-.36-.63-.09-.24-.13-.53-.13-.86 0-.3.04-.58.12-.83.08-.25.2-.46.35-.64.15-.17.33-.3.55-.4.22-.08.46-.13.72-.13.14 0 .27.01.39.03.11.02.22.04.32.07.1.03.19.07.28.11l.22.11v.93h-.1c-.05-.04-.1-.09-.17-.14-.06-.06-.14-.12-.22-.17-.08-.06-.17-.1-.27-.14s-.2-.06-.31-.06c-.12 0-.24.02-.35.07-.12.04-.22.11-.32.22-.09.1-.16.23-.22.39-.05.16-.08.36-.08.59 0 .24.03.44.09.61.06.16.14.29.23.38.09.09.2.16.31.2.11.04.23.06.34.06.11 0 .21-.02.32-.05.11-.04.2-.09.29-.15.07-.05.14-.1.21-.16.06-.06.12-.11.16-.15h.09v.92c-.09.04-.17.08-.24.12-.08.04-.16.07-.24.1-.11.04-.22.06-.31.08-.12.02-.25.03-.42.03zM9.32 10.71c0 .38-.14.69-.43.93-.28.24-.67.35-1.16.35-.28 0-.53-.03-.74-.08-.21-.06-.4-.13-.59-.21v-.92h.1c.18.16.38.29.61.38.23.09.44.13.65.13.05 0 .12-.01.21-.02s.16-.03.21-.05c.07-.03.12-.07.16-.12.04-.05.07-.12.07-.21 0-.08-.03-.16-.1-.22-.06-.06-.15-.11-.28-.14-.13-.03-.26-.07-.41-.1-.14-.03-.28-.07-.4-.12-.29-.11-.49-.25-.62-.43-.11-.17-.17-.39-.17-.66 0-.36.14-.65.43-.88.29-.23.65-.34 1.1-.34.22 0 .45.02.66.07.22.05.41.11.57.18v.89h-.1c-.14-.11-.31-.22-.51-.3-.2-.08-.4-.13-.61-.13-.07 0-.15.01-.22.02s-.13.03-.2.06c-.06.03-.11.07-.15.12-.05.05-.07.11-.07.18 0 .1.03.18.1.24.07.05.2.1.39.15.13.02.25.05.36.08.12.03.24.06.37.11.26.1.45.23.58.4.13.16.19.38.19.64zM13 8.07l-1.24 3.85h-.98L9.53 8.07h.92l.82 2.7.82-2.7H13z"/></svg>