<svg xmlns="http://www.w3.org/2000/svg" viewBox="0 0 16 16"><path fill="#F00" d="M14 16H2V0h8l4 4v12z"/><path opacity=".7" fill="#FFF" d="M14 4h-4V0l4 4z"/><path opacity=".3" d="M14 8l-4-4h4v4z"/><path opacity=".1" d="M13.75 15.75H2.25V.25H10V0H2v16h12V4h-.25"/><path fill="#FFF" d="M6.91 10.55c-.17.3-.33.59-.48.85.84-.34 1.74-.55 2.6-.71-.12-.08-.23-.16-.33-.24-.48-.39-.84-.87-1.1-1.38-.17.43-.36.89-.69 1.48m-.32-.16c.24-.46.52-.98.74-1.5l.09-.21c-.29-1.05-.46-1.9-.31-2.45.05-.14.22-.23.4-.23h.13c.26 0 .38.31.39.43.02.2-.07.54-.07.54 0-.14.01-.36-.08-.55-.1-.22-.2-.35-.29-.37-.05.03-.09.09-.1.2-.05.16-.06.37-.06.47 0 .37.08.86.23 1.37.03-.08.05-.15.07-.22l.23-.85S7.91 8 7.84 8.3c-.01.06-.03.12-.05.19.25.66.65 1.26 1.12 1.68.19.17.42.3.65.43.49-.07.94-.1 1.31-.1.5.01.86.08 1.01.22.07.07.1.15.11.24 0 .04-.02.12-.02.14.01-.03.01-.15-.39-.27-.32-.1-.9-.09-1.61-.02.82.39 1.62.58 1.87.46.06-.03.14-.13.14-.13s-.04.19-.08.24c-.04.05-.12.11-.2.13-.4.1-1.44-.13-2.34-.63-1.01.14-2.12.41-3.01.69-.88 1.48-1.53 2.15-2.07 1.9l-.2-.1c-.08-.04-.09-.14-.07-.23.06-.29.45-.74 1.21-1.18.08-.05.45-.24.45-.24s-.27.25-.34.3c-.61.48-1.07 1.09-1.06 1.33v.02c.53-.06 1.32-1.09 2.32-2.98"/></svg>