<svg xmlns="http://www.w3.org/2000/svg" viewBox="0 0 16 16"><path fill="#FFF" d="M14 16H2V0h8l4 4v12z"/><path opacity=".3" d="M13.75 15.75H2.25V.25H10V0H2v16h12V4h-.25"/><path fill="#E6E6E6" d="M14 4h-4V0l4 4z"/><path opacity=".3" d="M14 8l-4-4h4v4z"/><path fill="#6DAAE0" d="M11.83 7H5.5c-.28 0-.5.22-.5.5v4.26c-.22.09-.45.23-.65.43-.54.54-.68 1.26-.32 1.62.36.36 1.08.21 1.62-.32.35-.35.53-.77.52-1.13V8.17h3.5v3.59c-.22.09-.45.23-.65.43-.54.54-.68 1.26-.32 1.62.36.36 1.08.21 1.62-.32.35-.35.53-.77.52-1.13V8.03c.46-.03 1.08-.21.99-1.03z"/></svg>