<svg xmlns="http://www.w3.org/2000/svg" viewBox="0 0 16 16"><path fill="#33ACDF" d="M14 16H2V0h8l4 4v12z"/><path opacity=".1" d="M13.75 15.75H2.25V.25H10V0H2v16h12V4h-.25"/><path opacity=".7" fill="#FFF" d="M14 4h-4V0l4 4z"/><path opacity=".3" d="M14 8l-4-4h4v4z"/><path fill="#FFF" d="M7.03 13.39V14h-.24c-.64 0-1.06-.1-1.28-.31-.21-.21-.32-.63-.32-1.25v-1.01c0-.43-.07-.72-.21-.88-.13-.17-.38-.25-.75-.25H4v-.61h.23c.36 0 .61-.08.75-.24.14-.16.21-.46.21-.88V7.56c0-.62.11-1.04.32-1.24.22-.22.64-.32 1.28-.32h.24v.61h-.26c-.36 0-.59.06-.7.19-.12.12-.17.38-.17.77v1.05c0 .44-.06.76-.18.97-.11.2-.31.34-.59.41.28.08.48.21.6.41.11.2.17.52.17.96v1.05c0 .4.05.66.16.78s.34.19.7.19h.27zM8.97 13.39h.27c.36 0 .59-.06.7-.18.11-.12.16-.38.16-.79v-1.05c0-.44.06-.76.17-.96s.31-.34.6-.41c-.28-.07-.48-.21-.6-.41-.11-.2-.17-.52-.17-.97V7.57c0-.4-.05-.66-.16-.78s-.34-.18-.7-.18h-.27V6h.24c.64 0 1.06.1 1.27.31.21.21.32.62.32 1.24v1.02c0 .42.07.71.21.88.14.16.39.24.75.24H12v.61h-.24c-.36 0-.61.08-.75.25-.14.16-.21.46-.21.88v1.01c0 .62-.11 1.04-.32 1.25-.21.21-.63.31-1.27.31h-.24v-.61z"/></svg>