<svg xmlns="http://www.w3.org/2000/svg" width="16" height="16" viewBox="0 0 16 16"><path fill="#fff" stroke="#b9b9b9" stroke-width=".931" d="M1.473 1036.833H16.47v13.004H1.472z" transform="matrix(1.00456 0 0 1.1482 -1.012 -1189.955)"/><path fill="#8c8c8c" d="M2 4h12V2H2zM2 6h3V5H2zM2 8h3V7H2zM2 10h3V9H2zM2 12h3v-1H2zM2 14h12v-1H2z"/><path fill="#efefef" stroke="#b9b9b9" stroke-width="2.154" d="M1.687 1036.81h15v13h-15z" transform="matrix(.46635 0 0 .46196 5.716 -473.466)"/><g transform="matrix(.5 0 0 .4953 5.5 -508.24)"><path d="M12 1048.362H3l2.25-3 2.25-3 2.25 3z" fill="#59f"/><path d="M15 1048.362H7l2-2 2-2 2 2z" fill="#59f"/><circle r="1.5" cy="1040.862" cx="11.5" fill="#e8a33d"/></g></svg>