<svg xmlns="http://www.w3.org/2000/svg" viewBox="0 0 64 64"><path fill="var(--icon-color-accent, #ff8700)" d="M50 42h-4v-4c0-1.1-.9-2-2-2s-2 .9-2 2v4h-4c-1.1 0-2 .9-2 2s.9 2 2 2h4v4c0 1.1.9 2 2 2s2-.9 2-2v-4h4c1.1 0 2-.9 2-2s-.9-2-2-2Z" class="icon-accent"/><path fill="currentColor" d="M26 16v10H16V16h10m2-4H14c-1.1 0-2 .9-2 2v14c0 1.1.9 2 2 2h14c1.1 0 2-.9 2-2V14c0-1.1-.9-2-2-2Z"/><g opacity=".4"><path fill="currentColor" d="M50 30H36c-1.1 0-2-.9-2-2V14c0-1.1.9-2 2-2h14c1.1 0 2 .9 2 2v14c0 1.1-.9 2-2 2Z"/></g><g opacity=".4"><path fill="currentColor" d="M28 52H14c-1.1 0-2-.9-2-2V36c0-1.1.9-2 2-2h14c1.1 0 2 .9 2 2v14c0 1.1-.9 2-2 2Z"/></g></svg>