<svg xmlns="http://www.w3.org/2000/svg" viewBox="0 0 64 64"><g opacity=".4"><path fill="currentColor" d="m23.86 38.67 2.73-2.07c-.02-.17-.04-.34-.04-.49v-.99c0-.16.01-.32.04-.49l-2.73-2.07c-.59-.45-.75-1.26-.38-1.9l.46-.79c-.61-.23-1.17-.58-1.67-1.08-.91-.91-1.36-2-1.37-3.28 0-1.28.45-2.38 1.37-3.3.91-.91 2-1.36 3.28-1.36s2.38.45 3.28 1.36 1.36 2.01 1.36 3.29c0 .25-.03.48-.07.72l1.05.44c.27-.19.55-.38.84-.55.29-.17.58-.32.87-.44l.42-3.4c.09-.73.71-1.28 1.45-1.28h3.24l-.34-1.27c-.17-.65-.8-1.07-1.46-.97l-3.08.43c-.08-.14-.17-.26-.27-.36l-.63-.63c-.1-.1-.21-.2-.34-.29l.43-3.09c.09-.66-.33-1.29-.97-1.47l-4.77-1.28c-.64-.17-1.32.16-1.57.78l-1.18 2.89c-.3.05-.59.11-.88.18-.29.07-.57.17-.86.29l-2.45-1.91c-.53-.41-1.28-.36-1.75.11l-3.5 3.51a1.34 1.34 0 0 0-.11 1.76l1.91 2.46c-.11.27-.2.55-.28.85-.08.3-.14.6-.19.89l-2.88 1.18c-.62.25-.95.93-.78 1.57l1.27 4.79c.17.65.8 1.07 1.46.97l3.08-.43c.09.13.19.24.29.34l.63.63c.1.1.21.2.34.29l-.43 3.09c-.09.66.33 1.29.97 1.47l4.03 1.08c.05-.06.09-.12.15-.17Z"/></g><path fill="var(--icon-color-accent, #ff8700)" d="M39.49 50h-4.98c-1.68 0-3.1-1.24-3.31-2.89l-.24-1.88-1.86.76c-1.53.63-3.31.03-4.15-1.38l-2.49-4.19c-.86-1.45-.49-3.31.88-4.32l1.5-1.11-1.5-1.11a3.266 3.266 0 0 1-.88-4.32l2.49-4.19c.84-1.41 2.62-2 4.15-1.38l1.86.76.24-1.88c.21-1.64 1.63-2.88 3.31-2.88h4.98c1.68 0 3.1 1.24 3.31 2.89l.24 1.88L44.9 24c1.53-.62 3.31-.03 4.15 1.38l2.49 4.19c.86 1.45.49 3.31-.88 4.32l-1.52 1.12 1.49 1.1a3.264 3.264 0 0 1 .88 4.32l-2.49 4.19c-.84 1.42-2.63 2-4.16 1.37l-1.82-.75-.24 1.88c-.21 1.64-1.63 2.88-3.31 2.88Zm-4.4-4h3.82l.46-3.58 1.08-.44c.19-.08.38-.17.56-.28.21-.12.41-.25.6-.38l.9-.64 3.36 1.39 1.86-3.13-3.11-2.29.38-1.3v-.8s0-.1-.01-.15l-.18-1.19 2.95-2.17-1.86-3.14-3.39 1.39-.9-.64c-.2-.14-.41-.28-.62-.4a3.31 3.31 0 0 0-.5-.24l-1.13-.42-.46-3.61h-3.82l-.46 3.58-1.08.44c-.19.08-.38.17-.56.28-.21.12-.41.25-.6.38l-.9.63-3.39-1.39-1.86 3.14 2.95 2.17L29 34.4c0 .05-.01.1-.01.15v.88s0 .1.01.15l.18 1.19-2.95 2.17 1.86 3.14 3.39-1.39.9.63c.2.14.41.28.62.4.15.09.32.17.5.24l1.13.42.46 3.61Zm9.93-10.69Zm-7.95 6.24c-1.85 0-3.44-.64-4.72-1.91-1.27-1.26-1.95-2.86-1.95-4.64s.67-3.38 1.95-4.64c1.29-1.27 2.88-1.91 4.72-1.91s3.4.64 4.7 1.9c1.29 1.26 1.97 2.87 1.97 4.65s-.68 3.39-1.97 4.65c-1.29 1.26-2.87 1.9-4.7 1.9Zm0-9.1c-.78 0-1.39.24-1.92.76-.52.51-.75 1.07-.75 1.79s.23 1.28.76 1.79 1.13.76 1.91.76 1.37-.24 1.91-.76c.53-.51.76-1.07.76-1.79s-.24-1.27-.76-1.79c-.54-.52-1.14-.76-1.91-.76Z"/></svg>