<svg xmlns="http://www.w3.org/2000/svg" viewBox="0 0 64 64"><rect width="16" height="4" x="28" y="36" fill="var(--icon-color-accent, #ff8700)" rx="2" ry="2"/><path fill="var(--icon-color-accent, #ff8700)" d="M26 24h-4c-1.1 0-2-.9-2-2s.9-2 2-2h4v4Z"/><g opacity=".4"><path fill="currentColor" d="M42 24H26v-4h16c1.1 0 2 .9 2 2s-.9 2-2 2Z"/></g><path fill="var(--icon-color-accent, #ff8700)" d="M26 32h-4c-1.1 0-2-.9-2-2s.9-2 2-2h4v4Z"/><g opacity=".4"><path fill="currentColor" d="M42 32H26v-4h16c1.1 0 2 .9 2 2s-.9 2-2 2Z"/></g><path fill="currentColor" d="M48 16v28H16V16h32m2-4H14c-1.1 0-2 .9-2 2v32c0 1.1.9 2 2 2h36c1.1 0 2-.9 2-2V14c0-1.1-.9-2-2-2Z"/></svg>