<svg xmlns="http://www.w3.org/2000/svg" viewBox="0 0 64 64"><path fill="#59F" d="M0 0h64v64H0z"/><path fill="#FFF" d="M46.6 41.2c-2.815-.768-4.974-1.825-6.976-2.678-.042.543-.243 1.113-.782 1.664-1.62 1.726-4.1 3.814-6.808 3.814-2.719 0-5.288-2.115-6.88-3.817-.558-.573-.743-1.177-.762-1.738-2.007.896-4.17 1.885-6.993 2.655 0 0-3.1 1.9-3.4 8.9h36c-.199-7.1-3.399-8.8-3.399-8.8z"/><path fill="#FFF" d="M40 20.5c0-3.6-3.2-6.5-7-6.5h-2c-3.6 0-7 2.9-7 6.5v5c0 2.109 1.628 4.713 3.5 6.553-.1 5.4-1.7 5.947-.9 6.747 2.5 2.7 8.1 2.9 10.8 0 .797-.797-.59-1.3-.896-6.747C38.333 30.215 39.942 27.59 40 25.5v-5z"/></svg>