<svg xmlns="http://www.w3.org/2000/svg" viewBox="0 0 64 64"><g fill="none" fill-rule="evenodd"><g><g fill="#458043"><g><path d="M0 0h64v64H0z"/></g></g><path fill="#FFF" d="M28.384 35.37l1.732 1-6.5 11.26-1.732-1 6.5-11.26zm7.232 0l-1.732 1 6.5 11.26 1.732-1-6.5-11.26z"/><path fill="#FFF" d="M46 22h1.007c.54 0 .993-.448.993-1 0-.556-.444-1-.993-1H16.993c-.54 0-.993.448-.993 1 0 .556.444 1 .993 1H18v17.008c0 .537.446.992.997.992h26.006a.99.99 0 0 0 .997-.992V22zm-14.99 7.324l2.608 2.609.755.754.754-.754 5.354-5.355-1.508-1.508-4.56 4.64-2.662-2.66-.754-.755-.754.754-6.411 6.412 1.508 1.508 5.67-5.645z"/><path fill="#458043" d="M18 40h28v2H18z" opacity=".5"/></g></g></svg>