<svg xmlns="http://www.w3.org/2000/svg" viewBox="0 0 64 64"><rect width="8" height="8" x="12" y="12" fill="var(--icon-color-accent, #ff8700)" rx="2" ry="2"/><rect width="8" height="8" x="12" y="24" fill="var(--icon-color-accent, #ff8700)" rx="2" ry="2"/><rect width="8" height="8" x="12" y="36" fill="var(--icon-color-accent, #ff8700)" rx="2" ry="2"/><path fill="currentColor" d="M48 16v32H28V16h20m2-4H26c-1.1 0-2 .9-2 2v36c0 1.1.9 2 2 2h24c1.1 0 2-.9 2-2V14c0-1.1-.9-2-2-2Z"/><path fill="currentColor" d="M42 24h-8c-1.1 0-2-.9-2-2s.9-2 2-2h8c1.1 0 2 .9 2 2s-.9 2-2 2ZM42 32h-8c-1.1 0-2-.9-2-2s.9-2 2-2h8c1.1 0 2 .9 2 2s-.9 2-2 2ZM42 40h-8c-1.1 0-2-.9-2-2s.9-2 2-2h8c1.1 0 2 .9 2 2s-.9 2-2 2Z" opacity=".4"/></svg>