<svg xmlns="http://www.w3.org/2000/svg" viewBox="0 0 64 64"><path fill="currentColor" d="M37.39 26.77c5.85 0 10.61 4.76 10.61 10.61s-4.76 10.61-10.61 10.61-10.61-4.76-10.61-10.61 4.76-10.61 10.61-10.61m0-4c-8.07 0-14.61 6.54-14.61 14.61s6.54 14.61 14.61 14.61S52 45.45 52 37.38s-6.54-14.61-14.61-14.61Z"/><path fill="var(--icon-color-accent, #ff8700)" d="M38.35 41.01c-.39-.29-.86-.44-1.39-.44s-1.01.15-1.4.44c-.44.32-.66.85-.66 1.57s.22 1.21.65 1.55c.39.31.87.46 1.41.46s1-.15 1.39-.46c.43-.34.65-.86.65-1.55s-.22-1.25-.66-1.57ZM40.77 31.21c-.79-.69-1.89-1.03-3.27-1.03-.87 0-1.68.11-2.42.33-.73.21-1.41.5-2.03.85l-.42.23.21.43 1.19 2.4.45-.23c.49-.25.98-.45 1.45-.6.45-.14.91-.22 1.36-.22.4 0 .7.07.9.21.11.08.22.19.22.47 0 .18-.03.34-.1.47-.08.15-.21.31-.38.48-.2.19-.48.41-.83.66-.44.32-.8.64-1.07.94-.29.33-.5.68-.64 1.05-.13.36-.2.78-.2 1.24v1.16h3.35v-1.03c0-.19.02-.34.07-.45.04-.1.13-.22.26-.35.17-.16.43-.37.77-.62.49-.36.91-.7 1.24-1.03.36-.35.64-.75.82-1.17.18-.43.28-.93.28-1.49 0-1.08-.41-1.99-1.21-2.69Z"/><g opacity=".4"><path fill="currentColor" d="M22.77 37.39c0-2.28.54-4.44 1.47-6.36-.64-.24-1.23-.6-1.74-1.12-.97-.98-1.45-2.17-1.45-3.56s.49-2.57 1.45-3.56c.97-.98 2.16-1.47 3.57-1.47s2.57.49 3.56 1.47c.48.48.83 1.02 1.07 1.61 2-1.03 4.27-1.63 6.68-1.63.8 0 1.57.08 2.34.2.3-.44.37-1.01.08-1.5l-2.68-4.63c-.36-.63-1.13-.89-1.8-.6l-3.11 1.31c-.26-.19-.53-.37-.81-.54-.28-.17-.57-.31-.88-.43l-.42-3.34c-.09-.72-.7-1.26-1.43-1.26H23.3c-.72 0-1.34.54-1.43 1.26l-.42 3.34c-.29.12-.57.26-.86.43-.29.17-.56.35-.83.54l-3.11-1.31a1.44 1.44 0 0 0-1.8.6l-2.68 4.63c-.36.63-.2 1.43.38 1.87l2.69 2.04c-.02.17-.04.33-.04.48v.97c0 .16.01.32.04.48l-2.69 2.04c-.58.44-.74 1.24-.38 1.87l2.68 4.63c.36.63 1.13.89 1.8.6l3.11-1.31c.26.19.53.37.81.54.28.17.57.31.88.43l.42 3.34c.08.66.62 1.16 1.27 1.23-.25-1.06-.39-2.17-.39-3.3Z"/></g></svg>