<svg xmlns="http://www.w3.org/2000/svg" viewBox="0 0 64 64"><path fill="var(--icon-color-accent, #ff8700)" d="M34 40c-.34 0-.69-.09-1-.27l-9.54-5.49h-7.47c-2.17 0-4.01-1.94-4.01-4.24V16c0-2.21 1.8-4 4.01-4h22c2.21 0 4 1.79 4 4v14c0 2.21-1.79 4-4 4h-2v4a2.003 2.003 0 0 1-2 2Zm-17.9-9.76H24c.35 0 .69.09 1 .27l7 4.03V32c0-1.1.9-2 2-2h4.02L38 16H16v14c0 .07.05.18.1.24Z"/><path fill="currentColor" d="M32 22H22c-1.1 0-2-.9-2-2s.9-2 2-2h10c1.1 0 2 .9 2 2s-.9 2-2 2ZM32 28H22c-1.1 0-2-.9-2-2s.9-2 2-2h10c1.1 0 2 .9 2 2s-.9 2-2 2Z"/><g opacity=".4"><path fill="currentColor" d="M42 24.58V30c0 1.17-.51 2.21-1.32 2.95v3.23H36V38a2.003 2.003 0 0 1-2 2c-.34 0-.69-.09-1-.27L31.73 39v2.83a.89.89 0 0 0 .56.83l3.91 1.56.74 4.42c-2.65-.26-5.11-1.5-6.9-3.48a10.775 10.775 0 0 1-2.79-7.21c0-.5.04-.99.11-1.47l-2.98-1.72c-.25 1.03-.39 2.09-.39 3.19 0 7.72 6.28 14 14 14s14-6.28 14-14c0-6.33-4.23-11.66-10-13.39Zm1.37 22.67v-3.02l1.57-2.36c.07-.1.12-.22.14-.34.02-.12.02-.25-.01-.37l-.8-3.2v-2.68h4.12c.6 2.27.43 4.67-.47 6.84a10.65 10.65 0 0 1-4.54 5.13Z"/></g></svg>