<svg xmlns="http://www.w3.org/2000/svg" viewBox="0 0 64 64"><g><path fill="#439b92" d="M0 0h64v64H0z"/><g opacity=".75"><rect width="40" height="8" x="12" y="42" fill="#fff" rx="2" ry="2"/><path fill="#439b92" d="M14 44h36v4H14z" opacity=".5"/><path fill="#439b92" d="M20 42h10v8H20z" opacity=".75"/><rect width="6" height="12" x="22" y="40" fill="#fff" rx="2" ry="2"/><path fill="#439b92" d="M24 42h2v8h-2z" opacity=".75"/></g><g><rect width="40" height="8" x="12" y="28" fill="#fff" rx="2" ry="2"/><path fill="#439b92" d="M14 30h36v4H14z" opacity=".5"/><path fill="#439b92" d="M36 28h10v8H36z" opacity=".75"/><rect width="6" height="12" x="38" y="26" fill="#fff" rx="2" ry="2"/><path fill="#439b92" d="M40 28h2v8h-2z"/></g><g opacity=".75"><rect width="40" height="8" x="12" y="14" fill="#fff" rx="2" ry="2"/><path fill="#439b92" d="M14 16h36v4H14z" opacity=".5"/><path fill="#439b92" d="M28 14h10v8H28z" opacity=".75"/><rect width="6" height="12" x="30" y="12" fill="#fff" rx="2" ry="2"/><path fill="#439b92" d="M32 14h2v8h-2z" opacity=".75"/></g></g></svg>