<svg xmlns="http://www.w3.org/2000/svg" viewBox="0 0 64 64"><path fill="#a72e25" d="M0 0h64v64H0V0Z"/><g fill="#fff"><path d="M26 20v6h-6v-6h6m2-2H18v10h10V18ZM44 20v6h-6v-6h6m2-2H36v10h10V18ZM26 38v6h-6v-6h6m2-2H18v10h10V36ZM42 40h-6v2h6v-2zM22 30h-4v4h2v-2h2v-2zM26 30h-2v4h2v-4zM32 44h-2v2h2v-2zM38 44h-4v2h4v-2zM42 44h-2v2h2v-2zM32 38h.01H32m0-4h-2v8h2v-2h2v-2h2v-2h-4v-2ZM46 40h-2v6h2v-6zM46 30h-2v4h-6v4h8v-8zM40 30h-6v4h2v-2h4v-2zM34 26h-4v4h-2v2h4v-4h2v-2zM32 22h.01H32m0-4h-2v6h4v-4h-2v-2Z"/></g></svg>