<svg xmlns="http://www.w3.org/2000/svg" viewBox="0 0 64 64"><path fill="currentColor" d="M36 20v20H16V20h20m2-4H14c-1.1 0-2 .9-2 2v24c0 1.1.9 2 2 2h24c1.1 0 2-.9 2-2V18c0-1.1-.9-2-2-2Z"/><path fill="var(--icon-color-accent, #ff8700)" d="M36 20v20H16V20h20m2-4H14c-1.1 0-2 .9-2 2v24c0 1.1.9 2 2 2h24c1.1 0 2-.9 2-2V18c0-1.1-.9-2-2-2Z"/><path fill="currentColor" d="M50 24H40v4h8v20H28v-4h-4v6c0 1.1.9 2 2 2h24c1.1 0 2-.9 2-2V26c0-1.1-.9-2-2-2Z"/><g opacity=".4"><path fill="currentColor" d="M40 18v6h8V14c0-1.1-.9-2-2-2H22c-1.1 0-2 .9-2 2v2h18c1.1 0 2 .9 2 2Z"/></g></svg>