<svg xmlns="http://www.w3.org/2000/svg" viewBox="0 0 64 64"><path fill="#D04139" d="M0 0h64v64H0z"/><path fill="#FFF" d="M19 14h26c.6 0 1 .4 1 1v34c0 .6-.4 1-1 1H19c-.6 0-1-.4-1-1V15c0-.6.4-1 1-1zM40 14H24l2.7-2h10.6z"/><path fill="#D04139" d="M40 14H24l2.7 2h10.6z" opacity=".5"/><path fill="#D04139" d="M24 26h4v2h-4z"/><path fill="#D04139" d="M30 26h10v2H30z" opacity=".5"/><path fill="#D04139" d="M26 20h12v2H26zM24 30h4v2h-4z"/><path fill="#D04139" d="M30 30h10v2H30z" opacity=".5"/><path fill="#D04139" d="M24 34h4v2h-4z"/><path fill="#D04139" d="M30 34h10v2H30z" opacity=".5"/><path fill="#D04139" d="M24 38h4v2h-4z"/><path fill="#D04139" d="M30 38h10v2H30z" opacity=".5"/><path fill="#D04139" d="M24 42h4v2h-4z"/><path fill="#D04139" d="M30 42h10v2H30z" opacity=".5"/></svg>