<svg xmlns="http://www.w3.org/2000/svg" viewBox="0 0 64 64"><path fill="currentColor" d="M22 52h-2.25C17.68 52 16 50.29 16 48.2V15.8c0-2.09 1.68-3.8 3.75-3.8H35.5c.54 0 1.06.22 1.43.61l10.5 10.8c.36.37.57.87.57 1.39V30c0 1.1-.9 2-2 2s-2-.9-2-2v-4.39L34.66 16H20v32h2c1.1 0 2 .9 2 2s-.9 2-2 2Z"/><path fill="var(--icon-color-accent, #ff8700)" d="M38.2 34C33.13 34 28 37 24 43.01 27.9 49 32.99 52 38.07 52S48.18 49.01 52 43.01c-3.73-6-8.73-9.01-13.8-9.01Zm-.13 14c-3.22 0-6.38-1.75-9.09-4.97 1.35-1.59 2.81-2.82 4.32-3.67-.18.52-.3 1.06-.3 1.64 0 2.76 2.24 5 5 5s5-2.24 5-5c0-.65-.13-1.27-.36-1.84 1.59.84 3.09 2.12 4.45 3.82-2.66 3.25-5.8 5.02-9.03 5.02Z"/></svg>