<svg xmlns="http://www.w3.org/2000/svg" viewBox="0 0 64 64"><path fill="var(--icon-color-accent, #ff8700)" d="M18 48h-2c-2.21 0-4-1.79-4-4V16c0-2.21 1.79-4 4-4h32c2.21 0 4 1.79 4 4v10c0 1.1-.9 2-2 2s-2-.9-2-2V16H16v28h2c1.1 0 2 .9 2 2s-.9 2-2 2Z"/><path fill="currentColor" d="M30 52c-1.1 0-2-.9-2-2V30c0-1.1.9-2 2-2s2 .9 2 2v20c0 1.1-.9 2-2 2ZM44 52c-1.1 0-2-.9-2-2V30c0-1.1.9-2 2-2s2 .9 2 2v20c0 1.1-.9 2-2 2Z"/><rect width="12" height="6" x="24" y="40" fill="currentColor" rx="1.33" ry="1.33"/><rect width="12" height="6" x="38" y="34" fill="currentColor" rx="1.33" ry="1.33"/><path fill="currentColor" d="M34 24H22c-1.1 0-2-.9-2-2s.9-2 2-2h12c1.1 0 2 .9 2 2s-.9 2-2 2Z" opacity=".4"/></svg>