<svg xmlns="http://www.w3.org/2000/svg" viewBox="0 0 64 64"><circle cx="27" cy="37" r="3" fill="var(--icon-color-accent, #ff8700)"/><circle cx="37" cy="37" r="3" fill="var(--icon-color-accent, #ff8700)"/><path fill="var(--icon-color-accent, #ff8700)" d="M32 24c-3.31 0-6-2.69-6-6s2.69-6 6-6 6 2.69 6 6-2.69 6-6 6Zm0-8c-1.1 0-2 .9-2 2s.9 2 2 2 2-.9 2-2-.9-2-2-2Z"/><path fill="currentColor" d="M38 46H26c-1.1 0-2-.9-2-2s.9-2 2-2h12c1.1 0 2 .9 2 2s-.9 2-2 2Z"/><path fill="currentColor" d="M50 32h-2v14h2c1.1 0 2-.9 2-2V34c0-1.1-.9-2-2-2ZM14 46h2V32h-2c-1.1 0-2 .9-2 2v10c0 1.1.9 2 2 2Z" opacity=".4"/><path fill="currentColor" d="M44 26H34v-2.35c-.63.22-1.3.35-2 .35s-1.37-.13-2-.35V26H20c-2.21 0-4 1.79-4 4v18c0 2.21 1.79 4 4 4h24c2.21 0 4-1.79 4-4V30c0-2.21-1.79-4-4-4ZM20 48V30h24v18H20Z"/></svg>