<svg xmlns="http://www.w3.org/2000/svg" viewBox="0 0 64 64"><path fill="var(--icon-color-accent, #ff8700)" d="M42 28h-2v-4h2c1.1 0 2 .9 2 2s-.9 2-2 2Z"/><g opacity=".4"><path fill="currentColor" d="M22 28h18v-4H22c-1.1 0-2 .9-2 2s.9 2 2 2Z"/></g><path fill="var(--icon-color-accent, #ff8700)" d="M48 16v16H16V16h32m2-4H14c-1.1 0-2 .9-2 2v20c0 1.1.9 2 2 2h36c1.1 0 2-.9 2-2V14c0-1.1-.9-2-2-2Z"/><path fill="currentColor" d="M50 46H38c0-1.1-.9-2-2-2h-2v-8h-4v8h-2c-1.1 0-2 .9-2 2H14c-1.1 0-2 .9-2 2s.9 2 2 2h12c0 1.1.9 2 2 2h8c1.1 0 2-.9 2-2h12c1.1 0 2-.9 2-2s-.9-2-2-2Z"/></svg>