<svg xmlns="http://www.w3.org/2000/svg" viewBox="0 0 64 64"><path fill="var(--icon-color-accent, #ff8700)" d="M35.65 32.6c.38.25.83.38 1.35.38s.96-.13 1.34-.38c.44-.29.66-.79.66-1.47s-.22-1.19-.67-1.48c-.76-.49-1.94-.48-2.68 0-.44.28-.66.78-.66 1.48s.22 1.18.65 1.47ZM35.12 33.91h3.75v10.8h-3.75z"/><path fill="currentColor" d="M37 26c6.07 0 11 4.93 11 11s-4.93 11-11 11-11-4.93-11-11 4.93-11 11-11m0-4c-8.28 0-15 6.72-15 15s6.72 15 15 15 15-6.72 15-15-6.72-15-15-15Z"/><g opacity=".4"><rect width="8" height="24.23" x="12" y="28" fill="currentColor" rx="2" ry="2"/></g><g opacity=".4"><path fill="currentColor" d="M37 22c2.53 0 4.91.63 7 1.74V14c0-1.1-.9-2-2-2h-4c-1.1 0-2 .9-2 2v8.05c.33-.02.66-.05 1-.05Z"/></g><g opacity=".4"><path fill="currentColor" d="M32 22.87V18c0-1.1-.9-2-2-2h-4c-1.1 0-2 .9-2 2v11.54c1.77-3.08 4.6-5.46 8-6.67Z"/></g></svg>