<svg xmlns="http://www.w3.org/2000/svg" viewBox="0 0 64 64"><path fill="var(--icon-color-accent, #ff8700)" d="M50 40H14c-1.1 0-2 .9-2 2v8c0 1.1.9 2 2 2h36c1.1 0 2-.9 2-2v-8c0-1.1-.9-2-2-2Zm-4 8c-1.1 0-2-.9-2-2s.9-2 2-2 2 .9 2 2-.9 2-2 2Zm-8 0c-1.1 0-2-.9-2-2s.9-2 2-2 2 .9 2 2-.9 2-2 2Z"/><g opacity=".4"><path fill="currentColor" d="M50 12H14c-1.1 0-2 .9-2 2v8c0 1.1.9 2 2 2h36c1.1 0 2-.9 2-2v-8c0-1.1-.9-2-2-2Zm-4 8c-1.1 0-2-.9-2-2s.9-2 2-2 2 .9 2 2-.9 2-2 2Zm-8 0c-1.1 0-2-.9-2-2s.9-2 2-2 2 .9 2 2-.9 2-2 2Z"/></g><path fill="currentColor" d="M50 26H14c-1.1 0-2 .9-2 2v8c0 1.1.9 2 2 2h36c1.1 0 2-.9 2-2v-8c0-1.1-.9-2-2-2Zm-4 8c-1.1 0-2-.9-2-2s.9-2 2-2 2 .9 2 2-.9 2-2 2Zm-8 0c-1.1 0-2-.9-2-2s.9-2 2-2 2 .9 2 2-.9 2-2 2Z"/></svg>