<svg xmlns="http://www.w3.org/2000/svg" viewBox="0 0 64 64"><g fill="none" fill-rule="evenodd"><g><g fill="#CA6434"><path d="M0 0h64v64H0z"/></g><path fill="#FFF" d="M19 20a1 1 0 1 0 0-2 1 1 0 0 0 0 2zm3-1a1 1 0 0 1 1-1h22a1 1 0 1 1 0 2H23c-.552 0-1-.444-1-1zm-6-3h32v6H16v-6zM19 28a1 1 0 1 0 0-2 1 1 0 0 0 0 2zm3-1a1 1 0 0 1 1-1h22a1 1 0 1 1 0 2H23c-.552 0-1-.444-1-1zm-6-3h32v6H16v-6zM19 36a1 1 0 1 0 0-2 1 1 0 0 0 0 2zm3-1a1 1 0 0 1 1-1h22a1 1 0 1 1 0 2H23c-.552 0-1-.444-1-1zm-6-3h32v6H16v-6zM22 43a1 1 0 0 1 1-1h22a1 1 0 1 1 0 2H23c-.552 0-1-.444-1-1zm-3 1a1 1 0 1 0 0-2 1 1 0 0 0 0 2zm-3-4h32v6H16v-6z"/></g></g></svg>