<svg xmlns="http://www.w3.org/2000/svg" viewBox="0 0 64 64"><path fill="currentColor" d="M48 16v28H16V16h32m2-4H14c-1.1 0-2 .9-2 2v32c0 1.1.9 2 2 2h36c1.1 0 2-.9 2-2V14c0-1.1-.9-2-2-2Z"/><path fill="var(--icon-color-accent, #ff8700)" d="M22 20h2v4h-2c-1.1 0-2-.9-2-2s.9-2 2-2Z"/><g opacity=".4"><path fill="currentColor" d="M42 24H24v-4h18c1.1 0 2 .9 2 2s-.9 2-2 2Z"/></g><path fill="var(--icon-color-accent, #ff8700)" d="M22 28h2v4h-2c-1.1 0-2-.9-2-2s.9-2 2-2Z"/><g opacity=".4"><path fill="currentColor" d="M42 32H24v-4h18c1.1 0 2 .9 2 2s-.9 2-2 2Z"/></g><path fill="var(--icon-color-accent, #ff8700)" d="M22 36h2v4h-2c-1.1 0-2-.9-2-2s.9-2 2-2Z"/><g opacity=".4"><path fill="currentColor" d="M42 40H24v-4h18c1.1 0 2 .9 2 2s-.9 2-2 2Z"/></g></svg>