<svg xmlns="http://www.w3.org/2000/svg" viewBox="0 0 64 64"><g opacity=".4"><path fill="currentColor" d="M28 44c-1.1 0-2-.9-2-2V30c0-1.1.9-2 2-2s2 .9 2 2v12c0 1.1-.9 2-2 2Z"/></g><g opacity=".4"><path fill="currentColor" d="M36 44c-1.1 0-2-.9-2-2V30c0-1.1.9-2 2-2s2 .9 2 2v12c0 1.1-.9 2-2 2Z"/></g><path fill="var(--icon-color-accent, #ff8700)" d="M50 20H40v-6c0-1.1-.9-2-2-2H26c-1.1 0-2 .9-2 2v6H14c-1.1 0-2 .9-2 2s.9 2 2 2h36c1.1 0 2-.9 2-2s-.9-2-2-2Zm-22 0v-4h8v4h-8Z"/><path fill="currentColor" d="M44 47.97s-.08.03-.15.03H20.16c-.07 0-.12-.02-.15-.03V24h-4v24.07c0 2.17 1.86 3.93 4.15 3.93h23.69c2.29 0 4.15-1.76 4.15-3.93V24h-4v23.97Z"/></svg>