<svg xmlns="http://www.w3.org/2000/svg" viewBox="0 0 64 64"><path fill="#8B2F60" d="M0 0h64v64H0z"/><g fill="#FFF"><path d="M44 50h1c.6 0 1-.4 1-1v-5h-2v6z" opacity=".5"/><path d="M44 36h2v6h-2z" opacity=".75"/><path d="M44 28h2v6h-2z"/><path d="M45 14H17c-.6 0-1 .4-1 1v34c0 .6.4 1 1 1h25V26h4V15c0-.6-.4-1-1-1z"/></g><path fill="#8B2F60" d="M20 18h16v2H20zM20 22h10v2H20zM20 26h10v2H20zM20 34h4v12h-4zM26 38h4v8h-4zM32 32h4v14h-4z"/><path fill="#FFF" d="M20 40h4v6h-4zM26 40h4v6h-4zM32 34h4v12h-4z" opacity=".5"/></svg>