<svg xmlns="http://www.w3.org/2000/svg" viewBox="0 0 64 64"><path fill="currentColor" d="M16 52c-1.1 0-2-.9-2-2V14c0-1.1.9-2 2-2s2 .9 2 2v36c0 1.1-.9 2-2 2Z"/><rect width="12" height="8" x="10" y="36" fill="var(--icon-color-accent, #ff8700)" rx="1.33" ry="1.33"/><g opacity=".4"><path fill="currentColor" d="M36.51 52c-.67 0-1.24-.49-1.32-1.14l-.39-3.02c-.29-.11-.56-.24-.82-.39s-.51-.31-.75-.49l-2.89 1.18c-.62.25-1.34.02-1.67-.55l-2.49-4.19c-.34-.57-.19-1.29.35-1.69l2.5-1.84c-.02-.15-.03-.3-.03-.44v-.88c0-.14.01-.29.03-.44l-2.5-1.84c-.54-.4-.69-1.12-.35-1.69l2.49-4.19c.34-.57 1.05-.8 1.67-.55l2.89 1.18c.24-.17.5-.34.77-.49.27-.15.53-.28.8-.39l.39-3.02c.08-.65.65-1.14 1.32-1.14h4.98c.67 0 1.24.49 1.32 1.14l.39 3.02c.29.11.56.24.82.39s.51.31.75.49l2.89-1.18c.62-.25 1.34-.02 1.67.55l2.49 4.19c.34.57.19 1.29-.35 1.69l-2.5 1.84c.02.15.03.3.03.44v.88c0 .14-.02.29-.07.44l2.5 1.84c.54.4.69 1.12.35 1.69l-2.49 4.19c-.34.57-1.06.8-1.68.55l-2.85-1.18c-.24.17-.5.34-.77.49s-.53.28-.8.39l-.39 3.02c-.08.65-.65 1.14-1.32 1.14H36.5Zm2.56-8.45c1.29 0 2.39-.44 3.3-1.33s1.37-1.96 1.37-3.22-.46-2.33-1.37-3.22-2.01-1.33-3.3-1.33-2.42.44-3.32 1.33c-.9.89-1.35 1.96-1.35 3.22s.45 2.33 1.35 3.22c.9.89 2.01 1.33 3.32 1.33Z"/></g><path fill="currentColor" d="m28.67 47.6-2.49-4.19c-.34-.57-.19-1.29.35-1.69l2.5-1.84c-.02-.15-.03-.3-.03-.44v-.88c0-.14.01-.29.03-.44l-2.5-1.84c-.54-.4-.69-1.12-.35-1.69l2.49-4.19c.28-.46.81-.69 1.33-.62V14c0-1.1-.9-2-2-2s-2 .9-2 2v36c0 1.1.9 2 2 2s2-.9 2-2v-1.78c-.52.07-1.05-.16-1.33-.62ZM41.49 26c.18 0 .35.04.51.1V14c0-1.1-.9-2-2-2s-2 .9-2 2v12h3.49Z"/><path fill="var(--icon-color-accent, #ff8700)" d="M28.67 30.4c.34-.57 1.05-.8 1.67-.55l2.89 1.18c.24-.17.5-.34.77-.49v-3.21c0-.74-.6-1.33-1.33-1.33h-9.33c-.74 0-1.33.6-1.33 1.33v5.33c0 .74.6 1.33 1.33 1.33h3.2l2.14-3.6Z"/><rect width="12" height="8" x="34" y="16" fill="var(--icon-color-accent, #ff8700)" rx="1.33" ry="1.33"/></svg>