<svg xmlns="http://www.w3.org/2000/svg" viewBox="0 0 64 64"><g><path fill="#428859" d="M0 0h64v64H0z"/><g><path fill="#FFF" d="M47 24H17a1 1 0 0 1-1-1v-6a1 1 0 0 1 1-1h30a1 1 0 0 1 1 1v6a1 1 0 0 1-1 1z"/></g><path fill="#428859" d="M44 20h2v2h-2zM40 20h2v2h-2z"/><g><path fill="#FFF" d="M47 34H17a1 1 0 0 1-1-1v-6a1 1 0 0 1 1-1h30a1 1 0 0 1 1 1v6a1 1 0 0 1-1 1z"/></g><path fill="#428859" d="M44 30h2v2h-2zM40 30h2v2h-2z"/><g><path fill="#FFF" d="M47 48H17a1 1 0 0 1-1-1V37a1 1 0 0 1 1-1h30a1 1 0 0 1 1 1v10a1 1 0 0 1-1 1z"/></g><path fill="#428859" d="M44 44h2v2h-2zM40 44h2v2h-2z"/></g></svg>