<svg xmlns="http://www.w3.org/2000/svg" viewBox="0 0 64 64"><path fill="var(--icon-color-accent, #ff8700)" d="M46 34h-.61A7.965 7.965 0 0 0 48 28.1c0-4.42-3.58-8-8-8s-8 3.58-8 8c0 2.34 1.01 4.43 2.61 5.9H34c-3.31 0-6 2.69-6 6v10c0 1.1.9 2 2 2h20c1.1 0 2-.9 2-2V40c0-3.31-2.69-6-6-6Zm-6-9.9c2.21 0 4 1.79 4 4s-1.79 4-4 4-4-1.79-4-4 1.79-4 4-4ZM48 48H32v-8c0-1.1.9-2 2-2h12c1.1 0 2 .9 2 2v8Z"/><g opacity=".4"><path fill="currentColor" d="M28 40c0-3.31 2.69-6 6-6h.61A7.965 7.965 0 0 1 32 28.1c0-.61.08-1.21.21-1.78-.68-.27-1.43-.42-2.21-.42h-.61A7.965 7.965 0 0 0 32 20c0-4.42-3.58-8-8-8s-8 3.58-8 8c0 2.34 1.01 4.43 2.61 5.9H18c-3.31 0-6 2.69-6 6v10c0 1.1.9 2 2 2h14V40Z"/></g></svg>