<svg xmlns="http://www.w3.org/2000/svg" viewBox="0 0 64 64"><path fill="#59F" d="M0 0h64v64H0z"/><path fill="#FFF" d="M35 42h-6a1 1 0 0 0-1 1v6a1 1 0 0 0 1 1h6a1 1 0 0 0 1-1v-6a1 1 0 0 0-1-1zM43.78 23.811c-.852-4.802-4.786-8.745-9.592-9.6-7.225-1.288-13.555 3.899-14.159 10.728-.048.572.444 1.068 1.02 1.068h6.036c.485 0 .88-.353.981-.828.563-2.64 3.732-4.329 6.674-2.22.1.072.194.167.266.268 1.817 2.573.864 4.981-.951 6.111-3.623 2.055-6.07 4.93-6.07 9.396V39a1 1 0 0 0 1 1h5.998a1 1 0 0 0 1-1v-.268c0-1.435.804-1.635 1.943-2.339 4.19-2.39 6.805-7.22 5.854-12.582z"/></svg>