<svg xmlns="http://www.w3.org/2000/svg" viewBox="0 0 64 64"><path fill="var(--icon-color-accent, #ff8700)" d="M26 38a2.004 2.004 0 0 1-1.41-3.42l2.59-2.59-2.59-2.59c-.78-.78-.78-2.05 0-2.83s2.05-.78 2.83 0l4 4c.78.78.78 2.05 0 2.83l-4 4c-.39.39-.9.59-1.41.59ZM38 42h-6c-1.1 0-2-.9-2-2s.9-2 2-2h6c1.1 0 2 .9 2 2s-.9 2-2 2Z"/><path fill="currentColor" d="M34.34 16 44 25.66V48H20V16h14.34M36 12H18c-1.1 0-2 .9-2 2v36c0 1.1.9 2 2 2h28c1.1 0 2-.9 2-2V24L36 12Z"/><g opacity=".4"><path fill="currentColor" d="M34 16v7.67c0 1.12 1.19 2.33 2.33 2.33H44v-.34L34.34 16H34Z"/></g></svg>