<svg xmlns="http://www.w3.org/2000/svg" viewBox="0 0 64 64"><path fill="#415697" d="M0 0h64v64H0z"/><g><path fill="#FFF" d="M49 22H35a1 1 0 0 1-1-1v-4a1 1 0 0 1 1-1h14a1 1 0 0 1 1 1v4a1 1 0 0 1-1 1z"/><path fill="#415697" d="M46 18h2v2h-2zM42 18h2v2h-2z"/><path fill="#FFF" d="M49 30H35a1 1 0 0 1-1-1v-4a1 1 0 0 1 1-1h14a1 1 0 0 1 1 1v4a1 1 0 0 1-1 1z"/><path fill="#415697" d="M46 26h2v2h-2zM42 26h2v2h-2z"/><path fill="#FFF" d="M49 42H35a1 1 0 0 1-1-1v-8a1 1 0 0 1 1-1h14a1 1 0 0 1 1 1v8a1 1 0 0 1-1 1z"/><path fill="#415697" d="M46 38h2v2h-2zM42 38h2v2h-2z"/></g><g><path fill="#FFF" d="M29 22H15a1 1 0 0 1-1-1v-4a1 1 0 0 1 1-1h14a1 1 0 0 1 1 1v4a1 1 0 0 1-1 1z"/><path fill="#415697" d="M26 18h2v2h-2zM22 18h2v2h-2z"/><path fill="#FFF" d="M29 30H15a1 1 0 0 1-1-1v-4a1 1 0 0 1 1-1h14a1 1 0 0 1 1 1v4a1 1 0 0 1-1 1z"/><path fill="#415697" d="M26 26h2v2h-2zM22 26h2v2h-2z"/><path fill="#FFF" d="M29 42H15a1 1 0 0 1-1-1v-8a1 1 0 0 1 1-1h14a1 1 0 0 1 1 1v8a1 1 0 0 1-1 1z"/><path fill="#415697" d="M26 38h2v2h-2zM22 38h2v2h-2z"/></g><g fill="#FFF"><path d="M40 44h4v2h-4zM20 44h4v2h-4z"/><path d="M40 42h4v2h-4zM20 42h4v2h-4z" opacity=".5"/><path d="M20 46h24v1a1 1 0 0 1-1 1H21a1 1 0 0 1-1-1v-1z"/></g></svg>