<svg xmlns="http://www.w3.org/2000/svg" viewBox="0 0 64 64"><path fill="#FF5E49" d="M0 0h64v64H0V0z"/><circle cx="32" cy="32" r="13.3" fill="#FFF"/><path fill="#FF5E49" d="M39 32l-11-6.4v12.8z"/><path fill="#FFF" d="M23.2 12.7l1.5 2.6c1.7-.7 3.5-1.2 5.3-1.4v-3c-2.4.2-4.7.8-6.8 1.8zM17.3 21.2c1.1-1.5 2.4-2.8 3.9-3.9l-1.5-2.6c-1.9 1.4-3.6 3.1-5 5l2.6 1.5zM13.9 30c.2-1.9.7-3.7 1.4-5.3l-2.6-1.5c-1 2.1-1.6 4.4-1.8 6.8h3zM17.3 42.8l-2.6 1.5c1.4 1.9 3.1 3.6 5 5l1.5-2.6c-1.5-1.1-2.8-2.4-3.9-3.9z" opacity=".5"/><path fill="#FFF" d="M34 10.9v3c9.1 1 16.3 8.7 16.3 18.1S43.1 49.1 34 50.1v3C44.8 52.1 53.3 43 53.3 32S44.8 11.9 34 10.9z"/><path fill="#FFF" d="M15.3 39.3c-.7-1.7-1.2-3.5-1.4-5.3h-3c.2 2.4.9 4.7 1.8 6.8l2.6-1.5zM30 50.1c-1.9-.2-3.7-.7-5.3-1.4l-1.5 2.6c2.1 1 4.4 1.6 6.8 1.8v-3z" opacity=".5"/></svg>