<svg xmlns="http://www.w3.org/2000/svg" viewBox="0 0 64 64"><g opacity=".4"><path fill="currentColor" d="M50 12H22c-1.1 0-2 .9-2 2v6h22c1.1 0 2 .9 2 2v22h6c1.1 0 2-.9 2-2V14c0-1.1-.9-2-2-2Z"/></g><circle cx="32" cy="32" r="4" fill="currentColor"/><path fill="currentColor" d="M42 48c-.51 0-1.02-.2-1.41-.59l-4.84-4.84-4.64 3.09a2 2 0 0 1-2.31-.06L22 40.5l-6.8 5.1c-.89.67-2.14.48-2.8-.4-.66-.88-.48-2.14.4-2.8l8-6a2.01 2.01 0 0 1 2.4 0l6.87 5.15 4.82-3.21c.79-.53 1.85-.42 2.52.25l6 6A2.004 2.004 0 0 1 42 48.01Z"/><path fill="var(--icon-color-accent, #ff8700)" d="M40 24v24H16V24h24m2-4H14c-1.1 0-2 .9-2 2v28c0 1.1.9 2 2 2h28c1.1 0 2-.9 2-2V22c0-1.1-.9-2-2-2Z"/></svg>