<svg xmlns="http://www.w3.org/2000/svg" viewBox="0 0 64 64"><circle cx="18" cy="46" r="6" fill="var(--icon-color-accent, #ff8700)"/><path fill="currentColor" d="m49.41 16.59-6-6c-.78-.78-2.05-.78-2.83 0l-6 6c-.78.78-.78 2.05 0 2.83s2.05.78 2.83 0L40 16.83V40c0 2.88-1.12 4-4 4s-4-1.12-4-4V24c0-5.08-2.92-8-8-8s-8 2.92-8 8v16.35c.63-.22 1.3-.35 2-.35s1.37.13 2 .35V24c0-2.88 1.12-4 4-4s4 1.12 4 4v16c0 5.08 2.92 8 8 8s8-2.92 8-8V16.83l2.59 2.59c.39.39.9.59 1.41.59s1.02-.2 1.41-.59c.78-.78.78-2.05 0-2.83Z"/></svg>