<svg xmlns="http://www.w3.org/2000/svg" viewBox="0 0 64 64"><path fill="currentColor" d="M48 16v8H16v-8h32m2-4H14c-1.1 0-2 .9-2 2v12c0 1.1.9 2 2 2h36c1.1 0 2-.9 2-2V14c0-1.1-.9-2-2-2Z"/><rect width="40" height="8" x="12" y="32" fill="currentColor" opacity=".4" rx="2" ry="2"/><rect width="40" height="8" x="12" y="44" fill="currentColor" opacity=".4" rx="2" ry="2"/><path fill="currentColor" d="M14 32h22v8H14c-1.1 0-2-.9-2-2v-4c0-1.1.9-2 2-2ZM14 44h14v8H14c-1.1 0-2-.9-2-2v-4c0-1.1.9-2 2-2Z"/><path fill="var(--icon-color-accent, #ff8700)" d="M16 16h24v8H16z"/></svg>