<svg xmlns="http://www.w3.org/2000/svg" viewBox="0 0 64 64"><g opacity=".4"><path fill="currentColor" d="M34.01 44.56V25.07s-.01-.09-.01-.14V16c0-1.1-.9-2-2-2s-2 .9-2 2v10c0 3.9-.91 7.05-2.5 8.65-.91.91-2.05 1.35-3.49 1.35h-2.55c-.69-1.19-1.97-2-3.45-2-2.21 0-4 1.79-4 4s1.79 4 4 4c1.48 0 2.75-.81 3.45-2h2.55c2.37 0 4.38-.76 6.01-2.24v6.79c-1.19.69-2.01 1.97-2.01 3.45 0 2.21 1.79 4 4 4s4-1.79 4-4c0-1.47-.81-2.75-1.99-3.44Z"/></g><path fill="var(--icon-color-accent, #ff8700)" d="M42 36h-2c-1.44 0-2.58-.44-3.49-1.35-1.6-1.6-2.51-4.75-2.5-8.65v-7.17l6.58 6.58a2.008 2.008 0 0 0 2.83.01c.78-.78.78-2.05 0-2.83l-9.99-10c-.38-.38-.88-.59-1.41-.59-.53 0-1.04.21-1.41.58l-10.01 10c-.78.78-.78 2.05 0 2.83.78.78 2.05.78 2.83 0l6.59-6.59v7.17c0 3.55.63 8.43 3.67 11.48 1.67 1.67 3.8 2.52 6.32 2.52h2c1.1 0 2-.9 2-2s-.9-2-2-2Z"/><path fill="currentColor" d="M46 36c1.1 0 2 .9 2 2s-.9 2-2 2-2-.9-2-2 .9-2 2-2m0-4c-3.31 0-6 2.69-6 6s2.69 6 6 6 6-2.69 6-6-2.69-6-6-6Z"/></svg>