<svg xmlns="http://www.w3.org/2000/svg" viewBox="0 0 64 64"><path fill="currentColor" d="M24 48h-8c-2.21 0-4-1.79-4-4V16c0-2.21 1.79-4 4-4h32c2.21 0 4 1.79 4 4v12c0 1.1-.9 2-2 2s-2-.9-2-2V16H16v28h8c1.1 0 2 .9 2 2s-.9 2-2 2Z"/><path fill="var(--icon-color-accent, #ff8700)" d="M38 52c-.53 0-1.04-.21-1.41-.59l-6-6c-.78-.78-.78-2.05 0-2.83s2.05-.78 2.83 0l4.47 4.47 10.59-12.36c.72-.84 1.98-.93 2.82-.22.84.72.94 1.98.22 2.82l-12 14c-.36.42-.88.68-1.44.7H38Z"/><g opacity=".4"><rect width="24" height="4" x="20" y="22" fill="currentColor" rx="2" ry="2"/></g><g opacity=".4"><rect width="24" height="4" x="20" y="30" fill="currentColor" rx="2" ry="2"/></g></svg>