<svg xmlns="http://www.w3.org/2000/svg" viewBox="0 0 64 64"><g><path fill="#3471A9" d="M0 0h64v64H0V0z"/><path fill="#FFF" d="M47 18H17a1 1 0 0 0-1 1v6a1 1 0 0 0 1 1h30a1 1 0 0 0 1-1v-6a1 1 0 0 0-1-1z"/><path fill="#3471A9" d="M38 20h8v4h-8z"/><path fill="#FFF" d="M47 28H17a1 1 0 0 0-1 1v6a1 1 0 0 0 1 1h30a1 1 0 0 0 1-1v-6a1 1 0 0 0-1-1z"/><path fill="#3471A9" d="M28 30h18v4H28z"/><path fill="#FFF" d="M47 38H17a1 1 0 0 0-1 1v6a1 1 0 0 0 1 1h30a1 1 0 0 0 1-1v-6a1 1 0 0 0-1-1z"/><path fill="#3471A9" d="M34 40h12v4H34z"/></g></svg>