<svg xmlns="http://www.w3.org/2000/svg" viewBox="0 0 64 64"><g fill="none" fill-rule="evenodd"><g><g fill="#F08D34"><path d="M0 0h64v64H0z"/></g><path fill="#FFF" d="M33.018 27.928l10.897-3.8A1 1 0 1 1 44.618 26L34 29.703V42.93c0 .589-.448 1.066-1 1.066s-1-.477-1-1.066V29.687l-10.67-3.815a1 1 0 1 1 .702-1.873l10.986 3.929zm.454-12a1.83 1.83 0 0 0-.944 0L16.472 21.05a.712.712 0 0 0-.472.643v20.633c0 .271.215.56.472.642l16.056 5.122c.26.083.687.082.944 0l16.056-5.122a.712.712 0 0 0 .472-.642V21.692a.723.723 0 0 0-.472-.643l-16.056-5.12z"/></g></g></svg>