<svg xmlns="http://www.w3.org/2000/svg" viewBox="0 0 64 64"><path fill="currentColor" d="M37.85 33.68a2.004 2.004 0 0 1-1.41-3.42l4.32-4.32c1.94-1.94 1.57-5.48-.82-7.88-2.4-2.4-5.93-2.77-7.88-.82l-4.32 4.32c-.78.78-2.05.78-2.83 0s-.78-2.05 0-2.83l4.32-4.32c3.5-3.5 9.58-3.13 13.53.82 3.96 3.96 4.33 10.03.82 13.53l-4.32 4.32c-.39.39-.9.59-1.41.59ZM22.73 46c-2.7 0-5.41-1.15-7.5-3.24-3.96-3.96-4.33-10.03-.82-13.53l4.32-4.32c.78-.78 2.05-.78 2.83 0s.78 2.05 0 2.83l-4.32 4.32c-1.94 1.94-1.57 5.48.82 7.88 1.56 1.56 3.7 2.32 5.59 1.99 1.09-.19 2.12.53 2.32 1.62a2 2 0 0 1-1.62 2.32c-.54.09-1.08.14-1.62.14Z"/><path fill="currentColor" d="M22.75 37.25a2.004 2.004 0 0 1-1.41-3.42l12.5-12.5c.78-.78 2.05-.78 2.83 0s.78 2.05 0 2.83l-12.5 12.5c-.39.39-.9.59-1.41.59Z" opacity=".4"/><path fill="var(--icon-color-accent, #ff8700)" d="M38 52c-.53 0-1.04-.21-1.41-.59l-6-6c-.78-.78-.78-2.05 0-2.83s2.05-.78 2.83 0l4.47 4.47 10.59-12.36c.72-.84 1.98-.93 2.82-.22.84.72.94 1.98.22 2.82l-12 14c-.36.42-.88.68-1.44.7H38Z"/></svg>