<svg xmlns="http://www.w3.org/2000/svg" viewBox="0 0 64 64"><rect width="4" height="4" x="20" y="24" fill="var(--icon-color-accent, #ff8700)" rx="2" ry="2"/><g opacity=".4"><rect width="16" height="4" x="28" y="24" fill="currentColor" rx="2" ry="2"/></g><g opacity=".4"><rect width="16" height="4" x="28" y="32" fill="currentColor" rx="2" ry="2"/></g><g opacity=".4"><rect width="16" height="4" x="28" y="40" fill="currentColor" rx="2" ry="2"/></g><rect width="4" height="4" x="20" y="32" fill="var(--icon-color-accent, #ff8700)" rx="2" ry="2"/><rect width="4" height="4" x="20" y="40" fill="var(--icon-color-accent, #ff8700)" rx="2" ry="2"/><path fill="currentColor" d="M50 16H40v-2c0-1.1-.9-2-2-2H26c-1.1 0-2 .9-2 2v2H14c-1.1 0-2 .9-2 2v32c0 1.1.9 2 2 2h36c1.1 0 2-.9 2-2V18c0-1.1-.9-2-2-2Zm-2 32H16V20h32v28Z"/></svg>