<svg xmlns="http://www.w3.org/2000/svg" viewBox="0 0 64 64"><path fill="#7A950F" d="M0 0h64v64H0z"/><path fill="#FFF" d="M49 26h-3v2h2v20H28v-2h-2v3c0 .6.4 1 1 1h22c.6 0 1-.4 1-1V27c0-.6-.4-1-1-1z"/><path fill="#FFF" d="M43 14H21c-.6 0-1 .4-1 1v3h2v-2h20v20h-2v2h3c.6 0 1-.4 1-1V15c0-.6-.4-1-1-1z"/><path fill="#FFF" d="M37 20H15c-.6 0-1 .4-1 1v22c0 .6.4 1 1 1h22c.6 0 1-.4 1-1V21c0-.6-.4-1-1-1zm-1 22H16V22h20v20z"/><path fill="#FFF" d="M20 18h2v2h-2zM38 36h2v2h-2zM44 26h2v2h-2zM26 44h2v2h-2z" opacity=".3"/></svg>