<?xml version="1.0" encoding="utf-8"?>
<!-- Generator: Adobe Illustrator 19.1.0, SVG Export Plug-In . SVG Version: 6.00 Build 0)  -->
<svg version="1.1" xmlns="http://www.w3.org/2000/svg" xmlns:xlink="http://www.w3.org/1999/xlink" x="0px" y="0px"
	 viewBox="0 0 16 16" enable-background="new 0 0 16 16" xml:space="preserve">
<g id="overlay-scheduled">
	<circle fill="#FFFFFF" cx="8" cy="8" r="7"/>
	<path d="M8,1C4.13,1,1,4.13,1,8c0,3.87,3.13,7,7,7s7-3.13,7-7C15,4.13,11.87,1,8,1z M13.31,10.78l-0.43-0.25
		c-0.08,0.15-0.16,0.29-0.25,0.43l0.43,0.25c-0.47,0.74-1.11,1.38-1.85,1.85l-0.25-0.43c-0.14,0.09-0.28,0.17-0.43,0.25l0.25,0.43
		c-0.69,0.36-1.46,0.59-2.28,0.66v-1.02C8.33,12.97,8.17,13,8,13s-0.33-0.03-0.5-0.05v1.02c-0.82-0.07-1.59-0.29-2.28-0.66
		l0.25-0.43c-0.15-0.08-0.29-0.16-0.43-0.25l-0.25,0.43c-0.74-0.47-1.38-1.11-1.85-1.85l0.43-0.25c-0.09-0.14-0.17-0.28-0.25-0.43
		l-0.43,0.25C2.32,10.09,2.1,9.32,2.03,8.5h1.02C3.03,8.33,3,8.17,3,8s0.03-0.33,0.05-0.5H2.03C2.1,6.68,2.32,5.91,2.69,5.22
		l0.43,0.25C3.2,5.32,3.28,5.18,3.37,5.04L2.94,4.79c0.47-0.74,1.11-1.38,1.85-1.85l0.25,0.43C5.18,3.28,5.32,3.2,5.47,3.12
		L5.22,2.69C5.91,2.32,6.68,2.1,7.5,2.03v1.02C7.67,3.03,7.83,3,8,3s0.33,0.03,0.5,0.05V2.03c0.82,0.07,1.59,0.29,2.28,0.66
		l-0.25,0.43c0.15,0.08,0.29,0.16,0.43,0.25l0.25-0.43c0.74,0.47,1.38,1.11,1.85,1.85l-0.43,0.25c0.09,0.14,0.17,0.28,0.25,0.43
		l0.43-0.25c0.36,0.69,0.59,1.46,0.66,2.28h-1.02C12.97,7.67,13,7.83,13,8s-0.03,0.33-0.05,0.5h1.02
		C13.9,9.32,13.68,10.09,13.31,10.78z"/>
	<path fill="#CC2220" d="M11.75,7.5H8.5V4.25C8.5,4.11,8.39,4,8.25,4h-0.5C7.61,4,7.5,4.11,7.5,4.25V7.5H7.25
		C7.11,7.5,7,7.61,7,7.75v0.5C7,8.39,7.11,8.5,7.25,8.5H7.5v0.25C7.5,8.89,7.61,9,7.75,9h0.5C8.39,9,8.5,8.89,8.5,8.75V8.5h3.25
		C11.89,8.5,12,8.39,12,8.25v-0.5C12,7.61,11.89,7.5,11.75,7.5z"/>
</g>
</svg>
