<?xml version="1.0" encoding="utf-8"?>
<!-- Generator: Adobe Illustrator 19.1.0, SVG Export Plug-In . SVG Version: 6.00 Build 0)  -->
<svg version="1.1" xmlns="http://www.w3.org/2000/svg" xmlns:xlink="http://www.w3.org/1999/xlink" x="0px" y="0px"
	 viewBox="0 0 16 16" enable-background="new 0 0 16 16" xml:space="preserve">
<g id="overlay-translated">
	<circle fill="#5599FF" cx="8" cy="8" r="8"/>
	<path fill="#AAD400" d="M15,7.76c-0.28-2.33-1.66-4.36-3.51-5.53c-0.09,0.1-0.18,0.1-0.18,0.19
		c-0.28,0.1-0.65-0.1-0.92-0.19c-0.74-0.29-1.48-0.29-2.12-0.1c-0.28,0.1-0.92,0.19-0.65,0.78C7.8,3.2,8.27,3.49,8.73,3.11
		C8.91,2.91,9.1,2.62,9.37,2.91c0.09,0.1,0.09,0.19,0.09,0.29C9.37,3.49,9.1,3.59,8.82,3.59c-0.37,0.1-0.74,0-1.11,0.1
		c-0.37,0.1-0.92,0.19-0.92,0.68c0,0.58-0.18,0.68-0.65,0.78c-0.37,0-0.55,0.19-0.37,0.58c0.09,0.29,0.37,0.29,0.55,0.19
		c0.74-0.39,1.38-1.36,2.21-0.19l0.18-0.1c0.18-0.78,0.37-0.29,0.55,0c0.09,0.1,0.28,0.29,0.28,0.29c1.11-1.07,0.83,0.48,1.2,0.78
		c-0.74-0.19-1.57,0.58-2.21,0.1C7.43,5.92,6.7,6.31,5.68,7.18C4.85,7.86,4.67,8.73,4.85,9.51c0.28,0.97,1.29,1.07,2.12,0.87
		c0.28-0.1,0.83-0.1,0.83,0.1c-0.18,0.87,0.83,1.45,0.46,2.42c-0.28,0.78,0.18,1.75,0.83,2.04c0.65,0.29,1.2-0.48,1.48-1.16
		c0.09-0.1,0-0.29,0.09-0.39c0.74-0.97,0.65-2.42,1.57-3.39c0.28-0.29,1.2-1.36,0.46-2.23c1.75-0.48,1.11,1.26,1.48,2.04
		c0.28-0.58,0.46-1.16,0.65-1.65C14.91,7.86,15,7.86,15,7.76L15,7.76z"/>
	<path fill="#AAD400" d="M4.95,2.21C5.24,1.9,5.43,1.6,5.72,1.19C5.34,1.39,5.05,1.49,4.75,1.7
		l0,0C4.46,1.9,4.17,2.11,3.88,2.31c-0.1,0-0.1,0.1-0.19,0.1l0,0c0,0-0.1,0-0.1,0.1c0.1,0.1,0.1,0.1,0.19,0.2l0,0l0,0h0.1h0.1
		c0,0,0,0,0.1,0c0,0,0,0,0.1,0c0,0,0,0,0.1,0h0.1c0,0,0,0,0.1,0h0.1c0,0,0,0,0.1,0c0,0,0.1,0,0.1-0.1c0,0,0,0,0.1-0.1
		c0,0,0.1,0,0.1-0.1c0,0,0,0,0.1-0.1l0.1-0.1C4.85,2.41,4.85,2.31,4.95,2.21C4.95,2.31,4.95,2.31,4.95,2.21
		C4.95,2.31,4.95,2.21,4.95,2.21L4.95,2.21z"/>
	<path fill="#AAD400" d="M3.67,11.65L3.67,11.65C3.67,11.65,3.57,11.56,3.67,11.65
		C3.57,11.56,3.57,11.56,3.67,11.65c0-0.09,0-0.09,0-0.09l0,0c0,0,0,0,0-0.09l0,0c0,0,0,0,0-0.09l-0.1-0.09l0,0
		c-0.1,0-0.1-0.09-0.19-0.09l0,0l0,0c-0.1,0-0.19-0.09-0.29-0.09c0,0,0,0-0.1,0c0,0,0,0-0.1,0c0,0-0.1,0-0.1-0.09
		c-0.67-0.37-0.95-1.01-1.14-1.75c0-0.18-0.1-0.37-0.1-0.55c-0.1-0.09-0.1-0.18-0.19-0.28c-0.19-0.18-0.1-0.55,0.1-0.92
		c0-0.09,0-0.09,0-0.18c0-0.09,0-0.09,0.1-0.18l0,0c0-0.09,0-0.09,0.1-0.18C1.86,6.58,2.24,6.3,2.43,6.02
		c0.1-0.09,0.1-0.09,0.1-0.18c0,0,0,0,0-0.09c0.1-0.09,0.1-0.28,0.19-0.37l0,0c0-0.09,0.1-0.28,0.1-0.37l0,0c0-0.18,0-0.28-0.1-0.46
		l0,0C2.62,4.27,2.52,4,2.33,3.81C1.48,5.01,1,6.39,1,7.96c0,2.12,0.95,4.06,2.38,5.35c0,0,0.1,0,0.1-0.09c0,0,0,0,0-0.09l0,0
		c0-0.09,0.1-0.09,0.1-0.18l0,0l0,0C3.67,12.57,3.67,12.02,3.67,11.65L3.67,11.65z"/>
</g>
</svg>
