<?xml version="1.0" encoding="utf-8"?>
<!-- Generator: Adobe Illustrator 19.1.0, SVG Export Plug-In . SVG Version: 6.00 Build 0)  -->
<svg version="1.1" xmlns="http://www.w3.org/2000/svg" xmlns:xlink="http://www.w3.org/1999/xlink" x="0px" y="0px"
	 viewBox="0 0 16 16" enable-background="new 0 0 16 16" xml:space="preserve">
<g id="overlay-read-only">
	<circle fill="#C83C3C" cx="8" cy="8" r="7"/>
	<path fill="#FFFFFF" d="M11.54,5.88l-5.66,5.66c-0.2,0.2-0.51,0.2-0.71,0l-0.71-0.71c-0.2-0.2-0.2-0.51,0-0.71l5.66-5.66
		c0.2-0.2,0.51-0.2,0.71,0l0.71,0.71C11.73,5.37,11.73,5.68,11.54,5.88z"/>
	<path fill="#FFFFFF" d="M10.12,11.54L4.46,5.88c-0.2-0.2-0.2-0.51,0-0.71l0.71-0.71c0.2-0.2,0.51-0.2,0.71,0l5.66,5.66
		c0.2,0.2,0.2,0.51,0,0.71l-0.71,0.71C10.63,11.73,10.32,11.73,10.12,11.54z"/>
</g>
</svg>
