<?xml version="1.0" encoding="utf-8"?>
<!-- Generator: Adobe Illustrator 19.1.0, SVG Export Plug-In . SVG Version: 6.00 Build 0)  -->
<svg version="1.1" xmlns="http://www.w3.org/2000/svg" xmlns:xlink="http://www.w3.org/1999/xlink" x="0px" y="0px"
	 viewBox="0 0 16 16" enable-background="new 0 0 16 16" xml:space="preserve">
<g id="overlay-missing">
	<circle fill="#C83C3C" cx="8" cy="8" r="7"/>
	<path fill="#FFFFFF" d="M9,11.5v1C9,12.78,8.78,13,8.5,13h-1C7.22,13,7,12.78,7,12.5v-1C7,11.22,7.22,11,7.5,11h1
		C8.78,11,9,11.22,9,11.5z"/>
	<path fill="#FFFFFF" d="M9,3.5v6C9,9.78,8.78,10,8.5,10h-1C7.22,10,7,9.78,7,9.5v-6C7,3.22,7.22,3,7.5,3h1C8.78,3,9,3.22,9,3.5z"/>
</g>
</svg>
