<?xml version="1.0" encoding="utf-8"?>
<!-- Generator: Adobe Illustrator 19.1.0, SVG Export Plug-In . SVG Version: 6.00 Build 0)  -->
<svg version="1.1" xmlns="http://www.w3.org/2000/svg" xmlns:xlink="http://www.w3.org/1999/xlink" x="0px" y="0px"
	 viewBox="0 0 16 16" enable-background="new 0 0 16 16" xml:space="preserve">
<g id="overlay-restricted">
	<path fill="#5599FF" d="M16,16H8H0c0.1-3.16,1.52-3.95,1.52-3.95C4.33,11.25,5.72,10,8,10c2.28,0,3.67,1.25,6.48,2.05
		C14.48,12.05,15.9,12.84,16,16z"/>
	<path fill="#FFC857" d="M8,9L8,9C6.35,9,4.6,6.71,4.6,5.1V2.92C4.6,1.32,5.95,0,7.6,0H8.4c1.65,0,3,1.32,3,2.92V5.1
		C11.4,6.71,9.65,9,8,9"/>
	<path fill="#FFC857" d="M6,7.33c-0.03-0.92,4.01-0.93,4,0c-0.04,3.06,0.8,3.28,0.4,3.71c-1.16,1.26-3.74,1.2-4.8,0
		C5.21,10.6,6.08,10.38,6,7.33z"/>
</g>
</svg>
