<?xml version="1.0" encoding="utf-8"?>
<!-- Generator: Adobe Illustrator 19.1.0, SVG Export Plug-In . SVG Version: 6.00 Build 0)  -->
<svg version="1.1" xmlns="http://www.w3.org/2000/svg" xmlns:xlink="http://www.w3.org/1999/xlink" x="0px" y="0px"
	 viewBox="0 0 16 16" enable-background="new 0 0 16 16" xml:space="preserve">
<g id="overlay-locked">
	<path fill="#AAAAAA" d="M8.05,1c-2.75,0-5,2.25-5,5h0v1h2V6h0c0-1.67,1.33-3,3-3s3,1.33,3,3h0v1h2V6h0C13.05,3.25,10.8,1,8.05,1z"
		/>
	<rect x="2" y="7" fill="#FFC857" width="12" height="8"/>
	<path fill="#CD9232" d="M10,10c0-1.1-0.9-2-2-2s-2,0.9-2,2c0,0.74,0.4,1.38,1,1.72V14h2v-2.28C9.6,11.38,10,10.74,10,10z"/>
</g>
</svg>
