<?xml version="1.0" encoding="utf-8"?>
<!-- Generator: Adobe Illustrator 27.2.0, SVG Export Plug-In . SVG Version: 6.00 Build 0)  -->
<svg version="1.1" id="Ebene_1" xmlns="http://www.w3.org/2000/svg" xmlns:xlink="http://www.w3.org/1999/xlink" x="0px" y="0px"
	 viewBox="0 0 640 480" enable-background="new 0 0 640 480" xml:space="preserve">
<path fill="#FFFFFF" d="M0,0h640v480H0V0z"/>
<rect x="370" y="290" fill="#003DA5" width="270" height="190"/>
<rect fill="#003DA5" width="270" height="190"/>
<rect x="370" fill="#003DA5" width="270" height="190"/>
<rect y="290" fill="#003DA5" width="270" height="190"/>
<path fill="#FFFFFF" d="M525.5999756,413.1333313v-8.6000061h-7.666626c0-4.3999939,2.1333008-8.6666565,4.3999634-10
	c1.333374-1.1333313,4.333374-1.6666565,6.9333496-0.333313c3.4000244,1.9333191,3.5999756,7.5333252,1.8666992,10.0666504
	c16.1999512-3,14.5999756-18.6666565,9.0666504-24.3333435c-4.4666748-4.5999756-9.333374-5.2666626-13.0666504-3.8666382
	c-8.5333862,3.0666504-14.2667236,13.2666626-14.5333862,28.4666443h-4.4666443
	c0-13.7999878,2.3999939-18.1999817,8.6666565-35.6000061c3.2000122-8.1999817,1.2666626-18.333313-4.333313-27.6666565
	c-2.0666809-3.3333435-4.6000061-6.3333435-7.4666748-9.6000061c-2.8666687,3.2666626-5.3999939,6.2666626-7.4666748,9.6000061
	c-5.6000061,9.3333435-7.5333252,19.4666748-4.333313,27.6666565c6.2666626,17.4000244,8.6666565,21.8000183,8.6666565,35.6000061
	h-4.4666748c-0.2666626-15.1999817-6-25.3999939-14.5333252-28.4666443
	c-3.7333374-1.4000244-8.6000061-0.7333374-13.0666809,3.8666382c-5.5333252,5.666687-7.1333313,21.3333435,9.0666809,24.3333435
	c-1.7333374-2.5333252-1.5333252-8.1333313,1.8666687-10.0666504c2.6000061-1.3333435,5.6000061-0.8000183,6.9333191,0.333313
	c2.2666626,1.3333435,4.4000244,5.6000061,4.4000244,10h-7.666687v8.6000061h15.9333496
	c-0.2000122,4.4666748-2.6000061,7.9333496-7.0666809,9.8666687c0.5333252,1.8666687,3.2666626,5.6666565,7,5.3999939
	c0.7333374,4,1.3999939,6.2666626,4.7333374,9.9333496c3.3333435-3.666687,4-5.9333496,4.7333374-9.9333496
	c3.7333374,0.2666626,6.4666748-3.5333252,7-5.3999939c-4.4666748-1.9333191-6.8666687-5.3999939-7.0666809-9.8666687H525.5999756z"
	/>
<path fill="#FFFFFF" d="M155.6000061,123.1333313v-8.5999985h-7.6666718c0-4.4000015,2.1333313-8.6666641,4.3999939-10
	c1.3333435-1.1333313,4.3333435-1.6666641,6.9333344-0.3333359c3.4000092,1.9333344,3.6000061,7.5333328,1.8666687,10.0666733
	c16.1999969-3,14.6000061-18.6666718,9.0666656-24.3333359c-4.4666595-4.5999985-9.3333282-5.2666702-13.0666656-3.8666687
	c-8.5333252,3.0666656-14.2666626,13.2666702-14.5333252,28.4666672h-4.4666748
	c0-13.8000031,2.4000092-18.1999969,8.6666718-35.5999985C150,70.7333298,148.0666656,60.5999985,142.4666595,51.2666664
	c-2.0666656-3.3333321-4.5999908-6.3333321-7.4666595-9.5999985c-2.8666687,3.2666664-5.3999939,6.2666664-7.4666672,9.5999985
	C121.9333344,60.5999985,120,70.7333298,123.1999969,78.9333344c6.2666626,17.4000015,8.6666718,21.7999954,8.6666718,35.5999985
	h-4.4666672c-0.2666702-15.1999969-6-25.4000015-14.5333328-28.4666672
	c-3.7333374-1.4000015-8.5999985-0.7333298-13.0666656,3.8666687c-5.5333328,5.6666641-7.1333389,21.3333359,9.0666656,24.3333359
	c-1.7333374-2.5333405-1.5333328-8.1333389,1.8666611-10.0666733c2.6000061-1.3333282,5.6000061-0.7999954,6.9333344,0.3333359
	c2.2666702,1.3333359,4.4000015,5.5999985,4.4000015,10h-7.6666641v8.5999985h15.9333267
	c-0.1999969,4.4666672-2.5999985,7.9333344-7.066658,9.8666687c0.5333328,1.8666687,3.2666626,5.6666718,6.9999924,5.3999939
	c0.7333374,4,1.4000092,6.2666779,4.7333374,9.9333344c3.3333282-3.6666565,4-5.9333344,4.7333374-9.9333344
	c3.7333221,0.2666779,6.4666595-3.5333252,7-5.3999939c-4.4666748-1.9333344-6.8666687-5.4000015-7.0666656-9.8666687H155.6000061z"
	/>
<path fill="#FFFFFF" d="M525.5999756,123.1333313v-8.5999985h-7.666626c0-4.4000015,2.1333008-8.6666641,4.3999634-10
	c1.333374-1.1333313,4.333374-1.6666641,6.9333496-0.3333359c3.4000244,1.9333344,3.5999756,7.5333328,1.8666992,10.0666733
	c16.1999512-3,14.5999756-18.6666718,9.0666504-24.3333359c-4.4666748-4.5999985-9.333374-5.2666702-13.0666504-3.8666687
	c-8.5333862,3.0666656-14.2667236,13.2666702-14.5333862,28.4666672h-4.4666443
	c0-13.8000031,2.3999939-18.1999969,8.6666565-35.5999985c3.2000122-8.2000046,1.2666626-18.3333359-4.333313-27.6666679
	c-2.0666809-3.3333321-4.6000061-6.3333321-7.4666748-9.5999985c-2.8666687,3.2666664-5.3999939,6.2666664-7.4666748,9.5999985
	C491.9333191,60.5999985,490,70.7333298,493.2000122,78.9333344c6.2666626,17.4000015,8.6666565,21.7999954,8.6666565,35.5999985
	h-4.4666748c-0.2666626-15.1999969-6-25.4000015-14.5333252-28.4666672
	c-3.7333374-1.4000015-8.6000061-0.7333298-13.0666809,3.8666687c-5.5333252,5.6666641-7.1333313,21.3333359,9.0666809,24.3333359
	c-1.7333374-2.5333405-1.5333252-8.1333389,1.8666687-10.0666733c2.6000061-1.3333282,5.6000061-0.7999954,6.9333191,0.3333359
	c2.2666626,1.3333359,4.4000244,5.5999985,4.4000244,10h-7.666687v8.5999985h15.9333496
	c-0.2000122,4.4666672-2.6000061,7.9333344-7.0666809,9.8666687c0.5333252,1.8666687,3.2666626,5.6666718,7,5.3999939
	c0.7333374,4,1.3999939,6.2666779,4.7333374,9.9333344c3.3333435-3.6666565,4-5.9333344,4.7333374-9.9333344
	c3.7333374,0.2666779,6.4666748-3.5333252,7-5.3999939c-4.4666748-1.9333344-6.8666687-5.4000015-7.0666809-9.8666687H525.5999756z"
	/>
<path fill="#FFFFFF" d="M155.6000061,413.1333313v-8.6000061h-7.6666718c0-4.3999939,2.1333313-8.6666565,4.3999939-10
	c1.3333435-1.1333313,4.3333435-1.6666565,6.9333344-0.333313c3.4000092,1.9333191,3.6000061,7.5333252,1.8666687,10.0666504
	c16.1999969-3,14.6000061-18.6666565,9.0666656-24.3333435c-4.4666595-4.5999756-9.3333282-5.2666626-13.0666656-3.8666382
	c-8.5333252,3.0666504-14.2666626,13.2666626-14.5333252,28.4666443h-4.4666748
	c0-13.7999878,2.4000092-18.1999817,8.6666718-35.6000061c3.1999969-8.1999817,1.2666626-18.333313-4.3333435-27.6666565
	c-2.0666656-3.3333435-4.5999908-6.3333435-7.4666595-9.6000061c-2.8666687,3.2666626-5.3999939,6.2666626-7.4666672,9.6000061
	c-5.5999985,9.3333435-7.5333328,19.4666748-4.3333359,27.6666565c6.2666626,17.4000244,8.6666718,21.8000183,8.6666718,35.6000061
	h-4.4666672c-0.2666702-15.1999817-6-25.3999939-14.5333328-28.4666443
	c-3.7333374-1.4000244-8.5999985-0.7333374-13.0666656,3.8666382c-5.5333328,5.666687-7.1333389,21.3333435,9.0666656,24.3333435
	c-1.7333374-2.5333252-1.5333328-8.1333313,1.8666611-10.0666504c2.6000061-1.3333435,5.6000061-0.8000183,6.9333344,0.333313
	c2.2666702,1.3333435,4.4000015,5.6000061,4.4000015,10h-7.6666641v8.6000061h15.9333267
	c-0.1999969,4.4666748-2.5999985,7.9333496-7.066658,9.8666687c0.5333328,1.8666687,3.2666626,5.6666565,6.9999924,5.3999939
	c0.7333374,4,1.4000092,6.2666626,4.7333374,9.9333496c3.3333282-3.666687,4-5.9333496,4.7333374-9.9333496
	c3.7333221,0.2666626,6.4666595-3.5333252,7-5.3999939c-4.4666748-1.9333191-6.8666687-5.3999939-7.0666656-9.8666687H155.6000061z"
	/>
</svg>
