<?xml version="1.0" encoding="utf-8"?>
<!-- Generator: Adobe Illustrator 27.2.0, SVG Export Plug-In . SVG Version: 6.00 Build 0)  -->
<svg version="1.1" id="Ebene_1" xmlns="http://www.w3.org/2000/svg" xmlns:xlink="http://www.w3.org/1999/xlink" x="0px" y="0px"
	 viewBox="0 0 640 480" enable-background="new 0 0 640 480" xml:space="preserve">
<g>
	<g>
		<polygon fill="#BD3D44" points="640,0 0,0 0,37 590.666687,37 		"/>
		<polygon fill="#BD3D44" points="443.0666504,147.7000122 0,147.7000122 0,184.7000122 393.7333374,184.7000122 		"/>
		<polygon fill="#BD3D44" points="541.4667358,73.8999634 0,73.8999634 0,110.8999634 492.1333618,110.8999634 		"/>
		<polygon fill="#BD3D44" points="344.666687,221.5 0,221.5 0,258.5 295.333313,258.5 		"/>
		<polygon fill="#BD3D44" points="0,443 0,480 49.333313,443 		"/>
		<polygon fill="#BD3D44" points="246,295.5 0,295.5 0,332.2999878 196.9333496,332.2999878 		"/>
		<polygon fill="#BD3D44" points="147.7333374,369.2000122 0,369.2000122 0,406.2000122 98.3999634,406.2000122 		"/>
	</g>
	<g>
		<polygon fill="#FFFFFF" points="492.2666626,110.7999878 0,110.7999878 0,147.7000122 443.0666504,147.7000122 		"/>
		<polygon fill="#FFFFFF" points="590.666687,37 0,37 0,73.8999634 541.4667358,73.8999634 		"/>
		<polygon fill="#FFFFFF" points="393.8666992,184.5999756 0,184.5999756 0,221.5999756 344.5333862,221.5999756 		"/>
		<polygon fill="#FFFFFF" points="196.9333496,332.2999878 0,332.2999878 0,369.2999878 147.6000366,369.2999878 		"/>
		<polygon fill="#FFFFFF" points="295.333313,258.5 0,258.5 0,295.5 246,295.5 		"/>
		<polygon fill="#FFFFFF" points="98.5333862,406.0999756 0,406.0999756 0,443.0999756 49.2000122,443.0999756 		"/>
	</g>
	<polygon fill-rule="evenodd" clip-rule="evenodd" fill="#192F5D" points="364.7999878,206.4000244 364.7999878,0 0,0 0,258.5 
		295.333313,258.5 	"/>
	<g>
		<polygon fill="#FFFFFF" points="173.7000122,63.7000122 182.4000244,57.3999634 191.1000366,63.7000122 187.7999878,53.3999634 
			196.5,47.2000122 185.7000122,47.2000122 182.4000244,37 179,47.2000122 168.4000244,47.2000122 177,53.3999634 		"/>
		<polygon fill="#FFFFFF" points="234.5999756,115.2999878 243.2000122,109 251.9000244,115.3999634 248.5999756,105.0999756 
			257.2999878,98.7999878 246.5999756,98.7999878 243.2000122,88.5999756 240,98.7999878 229.0999756,98.7999878 
			237.7999878,105.0999756 		"/>
		<polygon fill="#FFFFFF" points="264.8999634,192.7999878 273.5999756,186.6000366 282.2999878,192.7999878 279,182.7000122 
			287.6000366,176.4000244 276.9000244,176.4000244 273.6000366,166.0999756 270.2999878,176.2999878 259.5999756,176.2999878 
			268.1999512,182.6000366 		"/>
		<polygon fill="#FFFFFF" points="234.5999756,167.0999756 243.2000122,160.7000122 251.9000244,167.0999756 
			248.5999756,156.7999878 257.2999878,150.5999756 246.5999756,150.5999756 243.2000122,140.2999878 240,150.5 229.0999756,150.5 
			237.7999878,156.7999878 		"/>
		<polygon fill="#FFFFFF" points="234.5999756,63.7000122 243.2000122,57.3999634 251.8999634,63.7000122 248.5,53.3999634 
			257.2999878,47.2000122 246.5999756,47.2000122 243.2000122,37 240,47.2000122 229.0999756,47.2000122 237.7999878,53.3999634 		
			"/>
		<polygon fill="#FFFFFF" points="264.8999634,244.5999756 273.5999756,238.2999878 282.2999878,244.5999756 279,234.3999634 
			287.6000366,228.0999756 276.9000244,228.0999756 273.6000366,217.8999634 270.2999878,228 259.5999756,228 
			268.1999512,234.2999878 		"/>
		<polygon fill="#FFFFFF" points="204.1000366,141.2000122 212.8000488,134.9000244 221.5,141.2999878 218.2000122,131 
			226.9000244,124.7000122 216.1000366,124.7000122 212.7999878,114.5 209.4000244,124.7000122 198.7000122,124.7000122 207.5,131 
					"/>
		<polygon fill="#FFFFFF" points="234.5999756,218.7000122 243.2000122,212.4000244 251.9000244,218.7999878 248.5999756,208.5 
			257.2999878,202.2000122 246.5999756,202.2000122 243.2000122,192 240,202.2000122 229.0999756,202.2000122 237.7999878,208.5 		
			"/>
		<polygon fill="#FFFFFF" points="204.1000366,244.5999756 212.8000488,238.2999878 221.5,244.5999756 218.2000122,234.3999634 
			226.9000244,228.0999756 216.1000366,228.0999756 212.7999878,217.8999634 209.4000244,228 198.7000122,228 207.5,234.2999878 		
			"/>
		<polygon fill="#FFFFFF" points="204.1000366,192.7999878 212.8000488,186.6000366 221.5,192.7999878 218.2000122,182.7000122 
			226.9000244,176.4000244 216.1000366,176.4000244 212.7999878,166.0999756 209.4000244,176.2999878 198.7000122,176.2999878 
			207.5,182.6000366 		"/>
		<polygon fill="#FFFFFF" points="204.1000366,89.3999634 212.8000488,83.0999756 221.5,89.3999634 218.2000122,79.2000122 
			226.9000244,72.8999634 216.1000366,72.8999634 212.7999878,62.5999756 209.4000244,72.7999878 198.7000122,72.7999878 
			207.5,79.0999756 		"/>
		<polygon fill="#FFFFFF" points="204.1000366,37.7999878 212.8000488,31.5 221.5,37.8999634 218.2000122,27.5999756 
			226.9000244,21.2999878 216.1000366,21.2999878 212.7999878,11 209.4000244,21.2999878 198.7000122,21.2999878 207.5,27.5999756 
					"/>
		<polygon fill="#FFFFFF" points="295.2999268,167.0999756 303.999939,160.7000122 312.6999512,167.0999756 
			309.3999634,156.7999878 318.0999756,150.5999756 307.2999878,150.5999756 304,140.2999878 300.6999512,150.5 289.999939,150.5 
			298.5999146,156.7999878 		"/>
		<polygon fill="#FFFFFF" points="325.6999512,37.7999878 334.3999634,31.5 343.0999756,37.8999634 339.7000122,27.5999756 
			348.5,21.2999878 337.7000122,21.2999878 334.4000244,11 331.0999756,21.2999878 320.2999878,21.2999878 329.0999756,27.5999756 
					"/>
		<polygon fill="#FFFFFF" points="337.7000122,176.4000244 334.4000244,166.0999756 331.0999756,176.2999878 
			320.2999878,176.2999878 329.0999756,182.6000366 325.6999512,192.7999878 334.3999634,186.6000366 343.0999756,192.7999878 
			339.7000122,182.7000122 348.5,176.4000244 		"/>
		<polygon fill="#FFFFFF" points="264.8999634,141.2000122 273.5999756,134.9000244 282.2999878,141.2999878 279,131 
			287.6000366,124.7000122 276.9000244,124.7000122 273.6000366,114.5 270.2999878,124.7000122 259.5999756,124.7000122 
			268.1999512,131 		"/>
		<polygon fill="#FFFFFF" points="331.0999756,228 320.2999878,228 328.3325806,233.7506104 337.342041,226.9934692 
			334.4000244,217.8999634 		"/>
		<polygon fill="#FFFFFF" points="325.6999512,141.2000122 334.3999634,134.9000244 343.0999756,141.2999878 339.7000122,131 
			348.5,124.7000122 337.7000122,124.7000122 334.4000244,114.5 331,124.7000122 320.2000122,124.7000122 329,131 		"/>
		<polygon fill="#FFFFFF" points="155.2999878,228.0999756 152,217.8999634 148.9000244,228 138.1000366,228 
			146.8000488,234.2999878 143.5,244.5999756 152.2000122,238.2999878 160.9000244,244.5999756 157.6000366,234.3999634 
			166,228.0999756 		"/>
		<polygon fill="#FFFFFF" points="325.6999512,89.3999634 334.3999634,83.0999756 343.0999756,89.3999634 339.7000122,79.2000122 
			348.5,72.8999634 337.7000122,72.8999634 334.4000244,62.5999756 331.0999756,72.7999878 320.2999878,72.7999878 
			329.0999756,79.0999756 		"/>
		<polygon fill="#FFFFFF" points="264.8999634,37.7999878 273.5999756,31.5 282.2999878,37.8999634 279,27.5999756 
			287.6000366,21.2999878 276.9000244,21.2999878 273.6000366,11 270.2999878,21.2999878 259.5999756,21.2999878 
			268.1999512,27.5999756 		"/>
		<polygon fill="#FFFFFF" points="264.8999634,89.3999634 273.5999756,83.0999756 282.2999878,89.3999634 279,79.2000122 
			287.6000366,72.8999634 276.9000244,72.8999634 273.6000366,62.5999756 270.2999878,72.7999878 259.5999756,72.7999878 
			268.1999512,79.0999756 		"/>
		<polygon fill="#FFFFFF" points="295.2999268,115.2999878 303.999939,109 312.6999512,115.3999634 309.3999634,105.0999756 
			318.0999756,98.7999878 307.2999878,98.7999878 304,88.5999756 300.6999512,98.7999878 289.999939,98.7999878 
			298.5999146,105.0999756 		"/>
		<polygon fill="#FFFFFF" points="295.2999268,218.7000122 303.999939,212.4000244 312.6999512,218.7999878 309.3999634,208.5 
			318.0999756,202.2000122 307.2999878,202.2000122 304,192 300.6999512,202.2000122 289.999939,202.2000122 298.5999146,208.5 		
			"/>
		<polygon fill="#FFFFFF" points="295.2999268,63.7000122 303.999939,57.3999634 312.6999512,63.7000122 309.3999634,53.3999634 
			318.0999756,47.2000122 307.2999878,47.2000122 304,37 300.6999512,47.2000122 289.999939,47.2000122 298.5999146,53.3999634 		
			"/>
		<polygon fill="#FFFFFF" points="112.9000244,115.2999878 121.5999756,109 130.2999878,115.3999634 126.9000244,105.0999756 
			135.7000122,98.7999878 125,98.7999878 121.5999756,88.5999756 118.2999878,98.7999878 107.5,98.7999878 116.2000122,105.0999756 
					"/>
		<polygon fill="#FFFFFF" points="52.2000122,115.2999878 60.9000244,109 69.6000366,115.3999634 66.2999878,105.0999756 
			75,98.7999878 64.0999756,98.7999878 60.7999878,88.5999756 57.5999756,98.7999878 46.9000244,98.7999878 55.5,105.0999756 		"/>
		<polygon fill="#FFFFFF" points="52.2000122,167.0999756 60.9000244,160.7000122 69.6000366,167.0999756 66.2999878,156.7999878 
			75,150.5999756 64.0999756,150.5999756 60.7999878,140.2999878 57.5999756,150.5 46.9000244,150.5 55.5,156.7999878 		"/>
		<polygon fill="#FFFFFF" points="52.2999878,63.7000122 61,57.3999634 69.5,63.7000122 66.2999878,53.3999634 75,47.2000122 
			64.0999756,47.2000122 60.7999878,37 57.7000122,47.2000122 47,47.2000122 55.4000244,53.3999634 		"/>
		<polygon fill="#FFFFFF" points="82.5,244.5999756 91.2000122,238.2999878 99.9000244,244.5999756 96.6000366,234.3999634 
			105.2999878,228.0999756 94.5,228.0999756 91.2000122,217.8999634 87.8000488,228 77.2000122,228 85.9000244,234.2999878 		"/>
		<polygon fill="#FFFFFF" points="82.5,192.7999878 91.2000122,186.6000366 99.9000244,192.7999878 96.6000366,182.7000122 
			105.2999878,176.4000244 94.5,176.4000244 91.2000122,166.0999756 87.8000488,176.2999878 77.2000122,176.2999878 
			85.9000244,182.6000366 		"/>
		<polygon fill="#FFFFFF" points="52.2000122,218.7000122 60.9000244,212.4000244 69.6000366,218.7999878 66.2999878,208.5 
			75,202.2000122 64.0999756,202.2000122 60.7999878,192 57.5999756,202.2000122 46.9000244,202.2000122 55.5,208.5 		"/>
		<polygon fill="#FFFFFF" points="82.5,141.2000122 91.2000122,134.8999634 99.7999878,141.2000122 96.6000366,131 
			105.2999878,124.7000122 94.5,124.7000122 91.2000122,114.5 87.7999878,124.7000122 77.2000122,124.7000122 85.7999878,131 		"/>
		<polygon fill="#FFFFFF" points="21.7999878,192.7999878 30.4000244,186.6000366 39.0999756,192.7999878 35.7999878,182.7000122 
			44.4000244,176.4000244 33.7999878,176.4000244 30.4000244,166.0999756 27.2000122,176.2999878 16.2999878,176.2999878 
			25,182.6000366 		"/>
		<polygon fill="#FFFFFF" points="21.7999878,244.5999756 30.4000244,238.2999878 39.0999756,244.5999756 35.7999878,234.3999634 
			44.4000244,228.0999756 33.7999878,228.0999756 30.4000244,217.8999634 27.2000122,228 16.2999878,228 25,234.2999878 		"/>
		<polygon fill="#FFFFFF" points="21.7999878,141.2000122 30.4000244,134.9000244 39.0999756,141.2999878 35.7999878,131 
			44.4000244,124.7000122 33.7999878,124.7000122 30.4000244,114.5 27.2000122,124.7000122 16.2999878,124.7000122 25,131 		"/>
		<polygon fill="#FFFFFF" points="21.7999878,37.7999878 30.4000244,31.5 39.0999756,37.8999634 35.7999878,27.5999756 
			44.4000244,21.2999878 33.7999878,21.2999878 30.4000244,11 27.2000122,21.2999878 16.2999878,21.2999878 25,27.5999756 		"/>
		<polygon fill="#FFFFFF" points="21.7999878,89.5 30.4000244,83.2000122 39.0999756,89.5 35.7999878,79.2999878 44.4000244,73 
			33.7999878,73 30.4000244,62.5999756 27.2000122,73 16.2999878,73 25,79.2999878 		"/>
		<polygon fill="#FFFFFF" points="82.5,37.7999878 91.2000122,31.5 99.7999878,37.8999634 96.6000366,27.5999756 
			105.2999878,21.2999878 94.5,21.2999878 91.2000122,11 87.7999878,21.2999878 77.2000122,21.2999878 85.7999878,27.5999756 		"/>
		<polygon fill="#FFFFFF" points="143.2999878,37.7999878 152,31.5 160.7000122,37.8999634 157.4000244,27.5999756 166,21.2999878 
			155.2999878,21.2999878 152,11 148.7000122,21.2999878 137.9000244,21.2999878 146.6000366,27.5999756 		"/>
		<polygon fill="#FFFFFF" points="143.2999878,89.3999634 152,83.0999756 160.7000122,89.3999634 157.4000244,79.2000122 
			166,72.8999634 155.2999878,72.8999634 152,62.5999756 148.7000122,72.7999878 137.9000244,72.7999878 146.6000366,79.0999756 		
			"/>
		<polygon fill="#FFFFFF" points="173.7000122,167.0999756 182.4000244,160.7000122 191.1000366,167.0999756 
			187.7999878,156.7999878 196.5,150.5999756 185.7000122,150.5999756 182.4000244,140.2999878 179,150.5 168.4000244,150.5 
			177,156.7999878 		"/>
		<polygon fill="#FFFFFF" points="173.7000122,218.7000122 182.4000244,212.4000244 191.1000366,218.7999878 187.7999878,208.5 
			196.5,202.2000122 185.7000122,202.2000122 182.4000244,192 179,202.2000122 168.4000244,202.2000122 177,208.5 		"/>
		<polygon fill="#FFFFFF" points="143.2999878,141.2000122 152,134.9000244 160.7000122,141.2999878 157.4000244,131 
			166,124.7000122 155.2999878,124.7000122 152,114.5 148.7000122,124.7000122 137.9000244,124.7000122 146.6000366,131 		"/>
		<polygon fill="#FFFFFF" points="112.9000244,167.0999756 121.5999756,160.7000122 130.2999878,167.0999756 
			126.9000244,156.7999878 135.7000122,150.5999756 125,150.5999756 121.5999756,140.2999878 118.2999878,150.5 107.5,150.5 
			116.2000122,156.7999878 		"/>
		<polygon fill="#FFFFFF" points="173.7000122,115.2999878 182.4000244,109 191.1000366,115.3999634 187.7999878,105.0999756 
			196.5,98.7999878 185.7000122,98.7999878 182.4000244,88.5999756 179,98.7999878 168.4000244,98.7999878 177,105.0999756 		"/>
		<polygon fill="#FFFFFF" points="112.9000244,218.7000122 121.5999756,212.4000244 130.2999878,218.7999878 126.9000244,208.5 
			135.7000122,202.2000122 125,202.2000122 121.5999756,192 118.2999878,202.2000122 107.5,202.2000122 116.2000122,208.5 		"/>
		<polygon fill="#FFFFFF" points="143.2999878,192.7999878 152,186.6000366 160.7000122,192.7999878 157.4000244,182.7000122 
			166,176.4000244 155.2999878,176.4000244 152,166.0999756 148.7000122,176.2999878 137.9000244,176.2999878 
			146.6000366,182.6000366 		"/>
		<polygon fill="#FFFFFF" points="82.5,89.5 91.2000122,83.2000122 99.7999878,89.5 96.6000366,79.2999878 105.2999878,73 94.5,73 
			91.2000122,62.5999756 87.7999878,72.8999634 77.2000122,72.8999634 85.7999878,79.2000122 		"/>
		<polygon fill="#FFFFFF" points="112.9000244,63.7000122 121.5999756,57.3999634 130.2999878,63.7000122 126.9000244,53.3999634 
			135.7000122,47.2000122 125,47.2000122 121.5999756,37 118.2999878,47.2000122 107.5,47.2000122 116.2000122,53.3999634 		"/>
	</g>
</g>
<g>
	<polygon fill="#012169" points="0,480 640,480 640,0 	"/>
	<polygon fill="#FFFFFF" points="213.333313,320 241,320 241,480 401,480 401,320 640,320 640,160 426.666687,160 	"/>
	<polygon fill="#FFFFFF" points="640,0 0,480 81,480 320,301 560,480 640,480 640,419 400,241 640,62 	"/>
	<polygon fill="#C8102E" points="254.666687,289 273,289 273,480 369,480 369,289 640,289 640,193 382.666687,193 	"/>
	<polygon fill="#C8102E" points="241,320 213.333313,320 0,480 54,480 241,339.75 	"/>
	<polygon fill="#C8102E" points="422.1105347,320 640,480 640,440 476.9811401,320 	"/>
</g>
</svg>
