<?xml version="1.0" encoding="utf-8"?>
<!-- Generator: Adobe Illustrator 27.2.0, SVG Export Plug-In . SVG Version: 6.00 Build 0)  -->
<svg version="1.1"
	 id="Ebene_1" image-rendering="optimizeQuality" shape-rendering="geometricPrecision" text-rendering="geometricPrecision"
	 xmlns="http://www.w3.org/2000/svg" xmlns:xlink="http://www.w3.org/1999/xlink" x="0px" y="0px" viewBox="0 0 640 480"
	 enable-background="new 0 0 640 480" xml:space="preserve">
<g transform="scale(.1095)">
	<path fill-rule="evenodd" clip-rule="evenodd" fill="#C62139" d="M0,0h5844.749v4383.562H0V0z"/>
	<path fill-rule="evenodd" clip-rule="evenodd" fill="#00297B" d="M91.324,91.324h5662.101v4200.913H91.324V91.324z"/>
</g>
<g>
	<g>
		<g>
			<path fill-rule="evenodd" clip-rule="evenodd" fill="#92DBFC" d="M320.364,69.931c0,0-113.743,82.876-113.743,168.965
				c0,86.101,113.743,171.172,113.743,171.172s113.015-78.876,113.015-171.172C433.378,146.612,320.364,69.931,320.364,69.931
				L320.364,69.931z"/>
			<path fill-rule="evenodd" clip-rule="evenodd" fill="#008CE7" d="M219.206,291.446
				c29.601,65.103,101.158,118.623,101.158,118.623s72.83-50.83,101.559-118.628"/>
			<path fill-rule="evenodd" clip-rule="evenodd" fill="#CCCCCC" d="M422.319,272.656c-17.536,11.489-116.206,5.971-116.206,5.971
				l-5.517,12.862l117.486,0.333c0.49-1.764,1.663-3.862,2.071-5.644L422.319,272.656z"/>
			<path fill-rule="evenodd" clip-rule="evenodd" fill="#FFDE52" d="M245.766,325.894c4.996,0.149,9.973,1.115,14.442,3.31
				c7.99,3.839,12.622,3.81,21.233,3.931c9.013,0.126,16.086,6.201,25.827,6.454c17.944,0.46,25.488,8.621,11.536,8.615
				c-6.59-0.006-20.718-4.058-27.547-3.207c-10.381,0.966-16.381,1.69-24.063,7.282
				C259.876,344.233,252.557,335.383,245.766,325.894L245.766,325.894z M281.265,366.861c4.45-2.787,7.513-4.966,11.831-5.086
				c8.391-0.236,11.253-4.989,20.95-4.983c11.021,1.851,25.959-1.213,34.702-2.989c15.521-3.276,8.159-13.219-1.236-16.828
				c-7.594-2.977-21.829-0.149-30.66-3.104c-6.684-2.391-1.174-6.201,2.423-7.012c3.628-0.609,7.519,0.489,12.032,1.161
				c8.059,0.649,18.183-0.04,25.262-1.046c14.63-2.052,14.028-5.983,21.088-6.075c5.153-0.218,9.076-1.621,12.59-3.92
				c4.13-2.523,8.429-7.701,13.425-7.494l2.937,0.115c-30.854,54.657-86.268,90.537-86.268,90.537S302.435,387.585,281.265,366.861
				L281.265,366.861z"/>
			
				<path fill-rule="evenodd" clip-rule="evenodd" fill="#8C4200" stroke="#000000" stroke-width="0.1716" stroke-miterlimit="10" d="
				M352.194,326.825c1.914,6.782,3.941,9.086,11.724,10.828c7.682,1.741,19.419-5.098,12.145-11.736
				c-6.923-6.173-14.216-7.753-20.417-13.311c-9.622-8.736-22.821-26.794-29.091-43.869c-6.86-18.667-5.668-71.221-5.36-97.842
				c0.006-0.31,0.835-0.494,0.929-0.621c0.446-0.586,0.872,0.19,0.176-3.713c-0.182-1-1.048-2.035-1.042-3.046
				c0.006-1.805-6.804,1.971-8.599,5.19c-0.408,0.736,1.305,2.833,1.305,3.247c0.232,25.541-2.768,75.968,4.638,98.796
				c4.582,14.133,12.942,25.047,20.511,35.145C343.652,312.365,350.217,319.347,352.194,326.825L352.194,326.825z"/>
			
				<path fill-rule="evenodd" clip-rule="evenodd" fill="#109421" stroke="#000000" stroke-width="0.1716" stroke-miterlimit="10" d="
				M249.67,163.348c0.483,0.609,0.414,3.236,0.414,3.236c0.395,0.218,6.81-5,6.81-4.765c0.006,1.098,0.151,3.362,0.151,3.362
				s6.64-5.782,6.917-5.173c0.308,0.684-0.025,4.035-0.025,4.035s4.419-4.46,5.228-5.265c0.584-0.575,0.49,0.724,0.546,2.822
				c0.013,0.374,7.243-4.885,7.682-4.977c0.935-0.184,1.224,2.73,1.174,3.46c-0.038,0.54,6.672-3.506,6.377-2.971l0.496,3.109
				c1.87-0.236,6.327-1.759,9.007-1.362c0.86,0.126,0.816,0.523,0.05,0.81c-12.917,4.788-22.852,12.006-28.639,22.064
				c-1.971,3.425-2.573,6.414-2.052,7.167c0,0,2.322-4.575,4.939-5.293c0.351-0.092,0.584,2.931,0.941,2.759
				c0,0,1.983-4.586,3.414-6.276c0.383-0.454,1.023,2.408,1.431,1.983c0,0,1.029-3.069,3.044-5.207
				c0.289-0.305,0.81,2.902,1.13,2.632c2.09-1.764,4.055-6.19,4.839-6.517c0.546-0.391,0.64,3.678,1.161,3.328
				c0,0,2.981-5.483,4.764-6.477c1.142-0.644,1.098,2.994,1.098,2.994c2.272-2.052,4.776-5.454,5.962-6.931
				c0.546-0.678,0.245,4.483,0.828,4.684c0.747,0.264,5.642-3.954,6.195-4.04c0.364-0.057,0.791,1.201-0.163,2.213
				c-0.075,0.08-6.05,6.391-6.05,6.391c1.161,0.201,1.613-0.098,2.448,0.103c2.479,0.598-4.644,4.339-4.525,5.04
				c0,0,3.433-0.057,2.285,0.552c-0.828,0.443-5.366,5.793-5.366,5.604c0-0.098,2.278,0.046,2.266,0.644
				c-0.019,1.109-3.772,6.828-3.81,6.793c-0.207-0.19,2.015-0.247,2.316,0.316c0.552,1.04-3.854,5.667-2.994,6.454
				c0.119,0.109,2.517,0.034,3.584,0.253c0.515,0.103,1.958,8.403,1.594,8.069c-0.082-0.08,1.544-7.782,2.529-10.127
				c0.603-1.42,2.529,2.144,2.686,1.828c-0.082,0-0.389-5.063-0.119-7.368c0.075-0.644,1.462,0.672,1.444,0.057
				c-0.05-1.397-0.176-2.891,0.138-4.253c0.238-1.029,1.418,1.856,1.877,1.081c0,0-1.431-5.012-0.835-6.425
				c0.395-0.931,1.349,2.253,1.977,2.379c0,0-0.351-3.897,0.308-4.902l1.99,1.954c0.433-0.626,0.352-6.696,0.753-7.265
				c0.333-0.477,2.398,2.276,2.705,1.845c0.276-0.391-0.872-4.897-0.615-5.253c0.364-0.512,2.63,1.253,2.674,1.218
				c0.923-0.851,0.891-2.971,1.28-3.759c1.042-2.132,7.017-2.408,7.72-0.891c0.345,0.736,0.107,1.684-0.031,2.828
				c0.056,0.046,2.994,0.241,3.019,0.034c0,0-0.351,2.512-0.144,5.276c0.031,0.368,2.981-0.092,3.019,0.276
				c0.27,2.604-0.383,2.845-0.383,2.845c0.025,0.19,1.99-0.276,2.021-0.075c0.213,1.27-0.232,2.816-1.111,4.305
				c-0.132,0.213,2.812-0.207,2.856,0.04c0.358,1.954,0.427,3.506,0.056,6.265c-0.031,0.224,2.881-1.948,2.925-1.724
				c0.439,2.322-0.069,4.828,0.195,7.23c0.063,0.557,1.927-1.661,2.096-1.017c0.169,0.632-0.414,5.23-0.132,5.489
				c0,0,3.119-0.144,3.396,0.098c2.473,2.127,2.002,5.839,2.002,5.839c0.678-0.46,0.421-4.931-0.264-9.023
				c-0.075-0.431,2.398-0.264,2.322-0.667c0,0-2.711-1.494-3.603-5.655c-0.188-0.891,2.617-0.707,2.617-0.707
				c-0.778-1.638-2.146-1.948-3.308-3.523c-0.377-0.517,2.912-0.753,2.912-0.902c0.006-1.569-2.774-2.316-4.211-3.948
				c-0.615-0.695,3-0.73,3-0.73c-1.061-1.351-4.557-1.943-6.339-3.73c-0.973-0.971,3.546-1.925,3.49-2.092
				c-0.496-1.431-4.745-1.879-6.804-3.494c-0.427-0.333,2.686-1.46,2.686-1.46c-0.314-0.609-7.099-4.696-3.647-4.322
				c1.456,0.161,4.412,2.058,4.644,1.77c0,0-0.126-2.385,0.176-2.673c1.136-1.081,5.052,4.586,6.383,4.356
				c0,0,0.49-4.058,1.092-4.167c1.431-0.247,3.176,5.908,4.588,5.908c0.188,0,0.295-3.558,1.023-3.753
				c0.822-0.218,1.745,3.989,2.787,4.92c0.967,0.856,0.979-3.287,1.544-2.5c0.96,1.27,1.193,3.92,2.504,5.086
				c0.854,0.759,1.01-3.655,1.958-3.063c1.098,0.684,0.841,2.971,2.077,4.098c0.59,0.535,0.985-2.914,1.657-2.408
				c0.596,0.443,0.998,4.661,1.638,5.328c0.816,0.851,1.757-2.224,2.605-1.736c0.609,0.356,0.464,4.006,1.029,4.788
				c1.155,1.621,1.757-1.96,2.523-1.408c0.533,0.374,1.688,4.569,2.172,4.902c1.073,0.747,1.663-1.908,2.479-1.535
				c0.59,0.264,1.782,5.667,2.272,5.529c0.32-0.092,1.111-12.311-4.023-17.466c-8.366-8.403-23.348-13.253-35.574-13.374
				c0,0,6.145-1.121,6.308-2.052c0.326-1.856,3.377-1.638,5.504-1.213c0.377,0.075,0.176-3.282,0.226-3.299
				c1.902-0.04,3.603,0.989,5.423,2c0.565,0.316-1.149-3.362-0.546-3.046c2.335,1.236,4.933,1.598,6.509,3.098
				c0.414,0.397-0.477-2.833-0.477-2.833c1.167-0.259,3.471,1.282,4.375,2.724c0.439,0.713-0.025-3.764,0.32-2.971
				c0,0,4.067,1.264,4.506,2.833c0,0,0.333-2.839,0.879-2.69c1.632,0.391,3.063,2.914,4.337,3.276c0,0-0.527-2.529-0.113-2.431
				c3.063,0.707,6.389,2.443,6.383,2.431c-1.726-3.954-8.272-8.098-19.789-9.207c-2.115-0.201-10.695-0.523-17.969,1.023
				c-5.962,1.264-10.67,1.983-9.703,1.121c3.942-3.535,10.312-3.966,12.063-4.788c1.255-0.586-4.224-2.523-3.138-2.799
				c1.08-0.236,5.975-0.609,5.975-0.609c1.061-0.759-3.559-2.241-2.868-3.345c1.381-2.213,9.546-0.201,10.243-1.04
				c0.226-0.282-3.508-2.305-3.352-2.604c0.596-1.121,7.864,0.828,8.034-0.149c0,0-2.203-1.506-3.772-2.741
				c-0.188-0.149,6.49-1.793,6.49-1.793c-0.126-0.115-1.142-0.77-2.674-1.316c-1.4-0.5,5.862-2.23,5.862-2.23
				c-9.201-3.851-33.082,7.104-37.821,18.472c-1.23,2.713-1.268-0.236-1.01-2.535c0.245-2.471,0.584-4.638,0.295-6.908
				c-0.088-0.672-1.952,1.787-2.077,1.132c-0.477-2.414,0.935-5.063,0.289-7.742c-0.213-0.902-2.686,2.661-3.013,1.759
				c-0.904-2.477,0.678-5.96,0.038-9.374c-0.251-1.333-2.592,2.856-3.377,1.661c-0.916-1.385-0.515-6.517-0.948-7.293
				c-0.351-0.621-2.435,2.46-2.611,1.879c-2.824-9.408,0.929-10.581-4.494-5.276c-0.188,0.184-1.393-5.563-1.6-5.368
				c-2.222,4.356-5.862-3.104-7.105-2.408c-0.929,0.529,2.536,3.414,2.573,4.713c0.019,0.626-3.188,0.667-3.188,0.667
				c0.069,1.075,6.101,4.086,6.295,5.265c0.157,0.971-4.268,0.73-4.268,0.73c0.138,1.316,5.165,2.569,5.442,3.966
				c0.157,0.77-2.354,0.943-2.272,1.724c0.132,1.201,4.858,3.575,5.015,4.799c0.107,0.851-3.019,1.201-3.094,1.994
				c-0.094,0.96,6.276,4.178,6.283,5.081c0.006,1.276-2.536,0.621-3.69,1.264c-1.626,0.902,5.216,4.558,5.504,5.598
				c0.226,0.914-2.736,0.109-2.837,0.943c-0.126,1.092,3.352,2.741,4.149,4.615c0.797,1.851-0.019,2.322-1.161,1.586
				c-2.291-1.477-11.53-10.466-13.984-12.862c-3.565-3.483-10.864-7.385-18.145-7.615c-0.759,0.213,3.916,3.241,3.948,4.339
				c0.006,0.282-2.103,0.701-2.008,0.787c1.293,1.184,5.316,2.592,5.316,2.592l-1.155,1.902c0.27,0.557,2.178,0.707,5.234,1.626
				c0,0-2.291,1.299-2.121,1.42c1.619,1.184,4.758,2.058,4.758,2.058l-3.088,0.948c-0.182,0.546,6.948,3.161,6.948,3.161
				s-2.228,1.759-2.128,1.851c0.546,0.5,5.787,1.609,5.787,1.609c0.088,0.08-3.703,1.161-3.678,1.184
				c1.375,1.259,5.165,1.667,6.05,3.747c0,0,0.521,1.184-0.979,0.96c-5.9-1.96-15.038-6.017-32.756-4.425
				c-18.113,2.161-31.915,16.581-31.677,18.018C242.509,166.739,248.986,162.486,249.67,163.348L249.67,163.348z"/>
		</g>
		<g>
			<path fill-rule="evenodd" clip-rule="evenodd" fill="#8C4200" d="M288.132,268.251c0.419-0.573,0.838-0.327,1.257,0l0.91,41.78
				h-3.025L288.132,268.251z"/>
			<path fill-rule="evenodd" clip-rule="evenodd" fill="#8C4200" d="M251.742,308.623c0,0,37.89,2.644,61.125-1.925
				c0,0,1.952,1.213-0.854,4.213c-2.806,2.994-9.904,3.638-13.802,4.282c0,0-0.935,1.925-0.86,2.925c0.082,1,2.46,0.897,3.628,0.678
				l1.167-0.213c0,0-0.546,3.747-14.887,4.247c-4.707,0.167-20.229,0.466-23.511-3.747c0,0,2.843,0.213,3.584,0
				s0.201-2.925-0.075-3.322c-0.27-0.391-10.061,0-15.201-4.356c-1.274-1.241-1.883-2.563-1.883-3.035
				C250.173,308.33,251.742,308.623,251.742,308.623z M271.487,315.905c0,0,10.368,1.213,22.3,0c0,0,0.314,2.069-0.232,2.856
				c-0.546,0.787-14.31,1.391-21.252,0.287C271.186,318.721,271.148,317.468,271.487,315.905z"/>
			<path fill-rule="evenodd" clip-rule="evenodd" fill="#FDF9FF" d="M258.614,305.79c0,0,12.002-15.062,8.153-41.111
				c18.553,10.325,34.312,25.881,38.6,40.335C288.538,301.122,273.682,303.81,258.614,305.79L258.614,305.79z"/>
			<path fill-rule="evenodd" clip-rule="evenodd" fill="#C62139" d="M320.386,60c0,0-120.386,82.066-120.386,178.833
				C200,335.612,320.386,420,320.386,420S440,342.572,440,238.833C440,135.1,320.386,60,320.386,60L320.386,60z M320.342,79.863
				c0,0-107.099,73.008-107.099,159.097c0,86.1,107.099,161.178,107.099,161.178s106.415-68.882,106.415-161.178
				C426.757,146.675,320.342,79.863,320.342,79.863L320.342,79.863z"/>
		</g>
	</g>
	
		<circle fill-rule="evenodd" clip-rule="evenodd" fill="#8C4200" stroke="#000000" stroke-width="0.1643" stroke-linecap="round" stroke-linejoin="round" stroke-miterlimit="10" cx="314.472" cy="163.222" r="4.283"/>
	
		<circle fill-rule="evenodd" clip-rule="evenodd" fill="#8C4200" stroke="#000000" stroke-width="0.1643" stroke-linecap="round" stroke-linejoin="round" stroke-miterlimit="10" cx="314.068" cy="170.253" r="4.283"/>
	
		<circle fill-rule="evenodd" clip-rule="evenodd" fill="#8C4200" stroke="#000000" stroke-width="0.1643" stroke-linecap="round" stroke-linejoin="round" stroke-miterlimit="10" cx="319.968" cy="161.606" r="4.283"/>
	
		<circle fill-rule="evenodd" clip-rule="evenodd" fill="#8C4200" stroke="#000000" stroke-width="0.1643" stroke-linecap="round" stroke-linejoin="round" stroke-miterlimit="10" cx="320.614" cy="167.586" r="4.283"/>
	<path fill-rule="evenodd" clip-rule="evenodd" fill="#BD0728" d="M268.855,242.529c-0.197,0-0.333,0.088-0.407,0.263
		c-0.074,0.146-0.123,0.351-0.148,0.615h-0.444v-6.148h0.444c0.049,0.527,0.234,0.79,0.555,0.79h10.913v0.527
		c-0.395,0.029-0.592,0.278-0.592,0.747v7.29c0,0.205,0.025,0.381,0.074,0.527c0.049,0.146,0.173,0.22,0.37,0.22h0.185v0.527
		c-3.354,2.108-7.324,3.162-11.911,3.162c-1.554,0-3.058-0.22-4.513-0.659c-1.43-0.468-2.7-1.186-3.81-2.152
		c-1.11-0.966-2.01-2.181-2.7-3.645c-0.666-1.493-0.999-3.235-0.999-5.226s0.333-3.718,0.999-5.182
		c0.69-1.493,1.591-2.723,2.7-3.689c1.11-0.995,2.38-1.727,3.81-2.196c1.455-0.498,2.959-0.747,4.513-0.747
		c0.617,0,1.159,0.015,1.628,0.044c0.469,0.029,0.925,0.088,1.369,0.176c0.444,0.088,0.9,0.205,1.369,0.351
		c0.469,0.117,1.023,0.278,1.665,0.483c0.617,0.205,1.184,0.454,1.702,0.747c0.518,0.263,0.851,0.395,0.999,0.395
		c0.197,0,0.37-0.117,0.518-0.351l0.444,0.176l-2.404,5.797l-0.444-0.307c0.049-0.176,0.074-0.337,0.074-0.483
		c0-0.205-0.21-0.425-0.629-0.659c-0.419-0.263-0.949-0.498-1.591-0.703c-0.641-0.205-1.369-0.381-2.182-0.527
		c-0.789-0.146-1.566-0.22-2.33-0.22c-0.888,0-1.739,0.146-2.552,0.439c-0.789,0.263-1.504,0.688-2.146,1.274
		c-0.617,0.586-1.11,1.317-1.48,2.196c-0.37,0.849-0.555,1.874-0.555,3.074c0,1.171,0.222,2.196,0.666,3.074
		c0.444,0.849,0.999,1.552,1.665,2.108c0.69,0.556,1.455,0.966,2.293,1.23c0.838,0.264,1.665,0.395,2.478,0.395
		c1.036,0,1.961-0.073,2.774-0.22c0.838-0.146,1.64-0.351,2.404-0.615v-2.898L268.855,242.529z"/>
	<path fill-rule="evenodd" clip-rule="evenodd" fill="#BD0728" d="M303.29,228.887c0-0.207-0.058-0.37-0.174-0.489
		c-0.093-0.148-0.36-0.252-0.801-0.311v-0.533h7.176v0.533c-0.441,0.059-0.72,0.163-0.836,0.311
		c-0.093,0.118-0.139,0.281-0.139,0.489v11.903c0,1.954-0.255,3.598-0.766,4.93c-0.488,1.332-1.173,2.398-2.055,3.198
		c-0.859,0.799-1.881,1.362-3.066,1.688c-1.161,0.296-2.404,0.444-3.727,0.444c-1.324,0-2.578-0.148-3.762-0.444
		c-1.161-0.326-2.183-0.888-3.066-1.688c-0.859-0.799-1.544-1.865-2.055-3.198c-0.488-1.332-0.732-2.976-0.732-4.93v-11.903
		c0-0.207-0.058-0.37-0.174-0.489c-0.093-0.148-0.36-0.252-0.801-0.311v-0.533h7.176v0.533c-0.441,0.059-0.72,0.163-0.836,0.311
		c-0.093,0.118-0.139,0.281-0.139,0.489v11.903c0,1.717,0.383,2.946,1.15,3.686c0.766,0.74,1.846,1.11,3.24,1.11
		c1.393,0,2.473-0.37,3.24-1.11c0.766-0.74,1.15-1.969,1.15-3.686L303.29,228.887z"/>
	<path fill-rule="evenodd" clip-rule="evenodd" fill="#BD0728" d="M331.015,250.066c0,0.149,0.04,0.268,0.119,0.357
		c0.106,0.06,0.304,0.089,0.595,0.089v0.536h-7.018v-0.536c0.291-0.06,0.502-0.149,0.634-0.268c0.132-0.149,0.264-0.402,0.396-0.759
		c0.053-0.149,0.185-0.551,0.396-1.206c0.211-0.655,0.489-1.474,0.833-2.457c0.344-1.012,0.727-2.129,1.15-3.35
		c0.423-1.221,0.846-2.457,1.269-3.707c0.423-1.28,0.833-2.516,1.229-3.707c0.423-1.221,0.793-2.308,1.11-3.261
		c0.317-0.953,0.568-1.727,0.753-2.323c0.211-0.596,0.317-0.908,0.317-0.938c0-0.149-0.092-0.253-0.277-0.313
		c-0.159-0.06-0.33-0.104-0.515-0.134v-0.536h10.348v0.536c-0.211,0.03-0.383,0.074-0.515,0.134
		c-0.132,0.06-0.198,0.208-0.198,0.447c0,0.06,0.119,0.447,0.357,1.161c0.264,0.715,0.595,1.653,0.991,2.814
		c0.397,1.132,0.846,2.427,1.348,3.886c0.529,1.429,1.07,2.903,1.626,4.422c0.555,1.489,1.084,2.948,1.586,4.377
		c0.529,1.429,1.004,2.71,1.427,3.841c0.211,0.536,0.383,0.893,0.515,1.072c0.159,0.179,0.357,0.268,0.595,0.268v0.536h-7.811
		v-0.536c0.502-0.03,0.753-0.208,0.753-0.536c0-0.03-0.066-0.223-0.198-0.581c-0.132-0.387-0.277-0.804-0.436-1.251
		c-0.159-0.476-0.317-0.923-0.476-1.34c-0.132-0.417-0.211-0.7-0.238-0.849h-9.397c-0.264,0.804-0.476,1.459-0.634,1.965
		c-0.159,0.506-0.291,0.908-0.396,1.206c-0.079,0.298-0.145,0.521-0.198,0.67C331.028,249.917,331.015,250.007,331.015,250.066
		L331.015,250.066z M340.649,242.384l-3.846-10.631l-3.529,10.631H340.649z"/>
	<path fill-rule="evenodd" clip-rule="evenodd" fill="#BD0728" d="M377.465,250.687c0.483-0.06,0.776-0.149,0.877-0.268
		c0.127-0.149,0.191-0.328,0.191-0.536v-16.437l-0.076-0.089l-6.79,17.331l-6.714-17.51h-0.076v16.706
		c0,0.208,0.051,0.387,0.153,0.536c0.127,0.119,0.432,0.208,0.916,0.268v0.536h-6.714v-0.536c0.483-0.06,0.776-0.149,0.877-0.268
		c0.127-0.149,0.191-0.328,0.191-0.536v-20.815c0-0.208-0.064-0.372-0.191-0.491c-0.102-0.149-0.394-0.253-0.877-0.313v-0.536h9.956
		v0.536c-0.61,0.03-0.915,0.298-0.915,0.804c0,0.03,0.076,0.268,0.229,0.715c0.153,0.447,0.343,0.998,0.572,1.653
		c0.254,0.655,0.521,1.37,0.801,2.144c0.305,0.744,0.585,1.474,0.839,2.189c0.28,0.685,0.521,1.295,0.725,1.831
		c0.203,0.536,0.343,0.893,0.42,1.072c0.432-1.132,0.877-2.233,1.335-3.305c0.458-1.072,0.865-2.055,1.221-2.948
		c0.382-0.893,0.687-1.638,0.915-2.233c0.229-0.596,0.343-0.968,0.343-1.117c0-0.506-0.305-0.774-0.915-0.804v-0.536h10.338v0.536
		c-0.483,0.06-0.788,0.164-0.916,0.313c-0.102,0.119-0.152,0.283-0.152,0.491v20.815c0,0.208,0.051,0.387,0.152,0.536
		c0.127,0.119,0.432,0.208,0.916,0.268v0.536h-7.629L377.465,250.687z"/>
</g>
</svg>
