<svg xmlns="http://www.w3.org/2000/svg" viewBox="0 0 16 16"><path fill="#79A548" d="M14.5 12.1c-1.688-.482-2.866-1.142-4.04-1.594.072.232.083.35-.06.494-1.2 1.3-3.7 1.2-4.8 0-.145-.145-.118-.265-.03-.505-1.185.45-2.37 1.12-4.07 1.605 0 0-1.4.8-1.5 3.9h16c-.1-3.2-1.5-3.9-1.5-3.9z"/><path opacity=".15" d="M1.097 15c.214-1.294.7-1.843.853-1.99 1.102-.33 1.992-.724 2.782-1.075l.27-.12c.73.706 1.842 1.122 3.016 1.122 1.182 0 2.268-.416 2.983-1.12.09.038.178.077.268.117.793.352 1.688.75 2.796 1.08.16.142.638.665.845 1.985l.09 1h1c-.1-3.2-1.5-3.9-1.5-3.9-1.688-.482-2.866-1.142-4.04-1.594.072.232.083.35-.06.494-.588.637-1.488.938-2.383.938-.93 0-1.856-.326-2.417-.938-.145-.145-.118-.265-.03-.505-1.185.45-2.37 1.12-4.07 1.605 0 0-1.4.8-1.5 3.9h1l.097-1z"/><path fill="#FFC857" d="M8 9c-.71 0-1.41-.41-1.997-.994-.045 2.422-.77 2.627-.403 2.994 1.1 1.2 3.6 1.3 4.8 0 .368-.368-.278-.573-.384-3.014C9.426 8.58 8.716 9 8 9z"/><path opacity=".15" d="M5.25 10.627c.106-.043.214-.092.32-.132-.088.24-.115.36.03.505.132.143.285.27.452.38l.3-.114.156-.433.028-.077c.128-.35.346-.957.432-2.04-.344-.174-.668-.414-.965-.71-.028 1.473-.305 2.12-.437 2.49-.104.04-.21.088-.315.13zM9.505 10.8l.142.465.298.115c.164-.11.32-.234.455-.38.142-.143.13-.262.06-.494h.002c-.112-.367-.38-1.02-.445-2.52-.294.295-.613.538-.952.714.098 1.032.29 1.63.4 1.975l.04.124z"/><path fill="#FFC857" d="M8 9C6.3 9 4.6 6.7 4.6 5.1V2.9C4.6 1.3 6 0 7.6 0h.8c1.7 0 3 1.3 3 2.9v2.2C11.4 6.7 9.7 9 8 9z"/><path opacity=".15" d="M8.4 1c1.122 0 2 .835 2 1.9v2.2C10.4 6.22 9.09 8 8 8S5.6 6.22 5.6 5.1V2.9c0-1.012.935-1.9 2-1.9h.8m0-1h-.8c-1.6 0-3 1.3-3 2.9v2.2C4.6 6.7 6.3 9 8 9s3.4-2.3 3.4-3.9V2.9c0-1.6-1.3-2.9-3-2.9z"/></svg>