<svg xmlns="http://www.w3.org/2000/svg" viewBox="0 0 16 16"><path fill="#ABD7FF" d="M14.969 9.319c-1.16-.331-1.97-.785-2.778-1.096.049.16.057.241-.041.34-.825.894-2.544.825-3.3 0-.1-.1-.081-.182-.021-.347-.814.31-1.628.769-2.797 1.103 0 0-.963.55-1.031 2.681H16c-.069-2.2-1.031-2.681-1.031-2.681z"/><path opacity=".15" d="M5.754 11.313c.147-.89.481-1.267.586-1.368.758-.226 1.37-.498 1.913-.739l.185-.083c.503.485 1.267.771 2.074.771.813 0 1.559-.286 2.051-.771l.184.081c.545.242 1.16.515 1.922.742.111.098.439.458.581 1.365l.063.689H16c-.069-2.2-1.031-2.681-1.031-2.681-1.16-.331-1.97-.785-2.778-1.096.049.16.057.241-.041.34-.404.437-1.023.644-1.638.644-.64 0-1.276-.224-1.662-.645-.1-.1-.081-.182-.021-.347-.814.31-1.628.769-2.797 1.103 0 0-.963.55-1.031 2.681h.688l.065-.686z"/><path fill="#FFC857" d="M10.5 7.188c-.487 0-.97-.283-1.373-.683-.031 1.664-.529 1.805-.277 2.058.756.825 2.475.894 3.3 0 .253-.253-.191-.394-.264-2.072-.406.408-.893.697-1.386.697z"/><path opacity=".15" d="M8.61 8.306c.072-.03.146-.063.219-.091-.06.165-.079.248.021.348.091.098.196.185.311.262l.207-.079.107-.298.019-.053c.088-.24.238-.658.297-1.403a2.63 2.63 0 0 1-.663-.488c-.019 1.013-.21 1.458-.3 1.711-.073.028-.146.061-.218.091zM11.535 8.424l.098.32.205.079c.113-.076.22-.161.313-.261.098-.098.09-.18.041-.34l.001.001c-.077-.253-.261-.701-.306-1.733-.202.203-.421.37-.655.491.067.709.199 1.121.276 1.358l.027.085z"/><path fill="#FFC857" d="M10.5 7.188c-1.169 0-2.337-1.581-2.337-2.681V2.994c0-1.1.962-1.994 2.062-1.994h.55c1.169 0 2.063.894 2.063 1.994v1.513c-.001 1.099-1.169 2.681-2.338 2.681z"/><path opacity=".15" d="M10.775 1.688c.771 0 1.375.574 1.375 1.306v1.513c0 .769-.901 1.994-1.65 1.994S8.85 5.276 8.85 4.506V2.994c0-.696.643-1.306 1.375-1.306h.55m0-.688h-.55c-1.1 0-2.063.894-2.063 1.994v1.513c0 1.1 1.169 2.681 2.337 2.681s2.337-1.581 2.337-2.681V2.994C12.837 1.894 11.944 1 10.775 1z"/><g><path fill="#59F" d="M9.969 12.319c-1.16-.331-1.97-.785-2.778-1.096.049.16.057.241-.041.34-.825.894-2.544.825-3.3 0-.1-.1-.081-.182-.021-.347-.814.31-1.628.769-2.797 1.103 0 0-.962.55-1.031 2.681H11c-.069-2.2-1.031-2.681-1.031-2.681z"/><path opacity=".15" d="M.754 14.313c.147-.89.481-1.267.586-1.368.758-.226 1.369-.498 1.913-.739l.185-.082c.503.485 1.267.771 2.074.771.813 0 1.559-.286 2.051-.771l.184.081c.545.242 1.161.515 1.922.742.111.098.439.458.581 1.365l.063.688H11c-.069-2.2-1.031-2.681-1.031-2.681-1.16-.331-1.97-.785-2.778-1.096.049.16.057.241-.041.34-.404.437-1.023.644-1.638.644-.64 0-1.276-.224-1.662-.645-.1-.1-.081-.182-.021-.347-.814.31-1.628.769-2.797 1.103 0 0-.962.55-1.031 2.681h.688l.065-.686z"/><path fill="#FFC857" d="M5.5 10.188c-.487 0-.97-.283-1.373-.683-.031 1.665-.529 1.806-.277 2.058.756.825 2.475.894 3.3 0 .253-.253-.191-.394-.264-2.072-.406.408-.893.697-1.386.697z"/><path opacity=".15" d="M3.61 11.306c.072-.03.146-.063.219-.091-.06.165-.078.248.021.347.091.098.196.185.311.262l.207-.079.107-.298.019-.053c.088-.24.238-.658.297-1.403a2.63 2.63 0 0 1-.663-.488c-.019 1.013-.21 1.458-.3 1.711-.073.029-.146.062-.218.092zM6.535 11.424l.098.32.205.079c.113-.076.22-.161.313-.261.098-.098.09-.18.041-.34l.001.001c-.077-.253-.261-.701-.306-1.733-.202.203-.422.37-.655.491.067.709.199 1.121.276 1.358l.027.085z"/><path fill="#FFC857" d="M5.5 10.188c-1.169 0-2.338-1.581-2.338-2.681V5.994c0-1.1.963-1.994 2.063-1.994h.55c1.169 0 2.063.894 2.063 1.994v1.513c-.001 1.099-1.169 2.681-2.338 2.681z"/><path opacity=".15" d="M5.775 4.688c.771 0 1.375.574 1.375 1.306v1.513c0 .769-.901 1.993-1.65 1.993S3.85 8.276 3.85 7.506V5.994c0-.696.643-1.306 1.375-1.306h.55m0-.688h-.55c-1.1 0-2.063.894-2.063 1.994v1.513c0 1.1 1.169 2.681 2.338 2.681s2.337-1.581 2.337-2.681V5.994C7.837 4.894 6.944 4 5.775 4z"/></g></svg>