<svg xmlns="http://www.w3.org/2000/svg" viewBox="0 0 16 16"><path fill="#AAD400" d="M14.97 9.32c-1.16-.332-1.97-.786-2.78-1.097.05.16.058.24-.04.34-.825.894-2.544.825-3.3 0-.1-.1-.08-.182-.02-.347-.815.31-1.63.77-2.798 1.103 0 0-.963.55-1.03 2.68H16c-.07-2.2-1.03-2.68-1.03-2.68z"/><path opacity=".15" d="M5.754 11.313c.147-.89.48-1.267.586-1.368.758-.226 1.37-.498 1.913-.74l.185-.082c.503.485 1.267.77 2.074.77.813 0 1.56-.285 2.05-.77l.185.08c.545.243 1.16.516 1.922.743.11.098.438.458.58 1.365l.063.69H16c-.07-2.2-1.03-2.68-1.03-2.68-1.16-.332-1.97-.786-2.78-1.097.05.16.058.24-.04.34-.404.437-1.023.644-1.638.644-.64 0-1.276-.224-1.662-.645-.1-.1-.08-.182-.02-.347-.815.31-1.63.77-2.798 1.103 0 0-.963.55-1.03 2.68h.687l.064-.685z"/><path fill="#FFC857" d="M10.5 7.188c-.487 0-.97-.283-1.373-.683-.03 1.664-.53 1.805-.277 2.058.756.825 2.475.894 3.3 0 .253-.253-.19-.394-.264-2.072-.406.41-.893.698-1.386.698z"/><path opacity=".15" d="M8.61 8.306c.072-.03.146-.063.22-.09-.06.164-.08.247.02.347.09.098.196.185.31.262l.208-.08.107-.297.02-.053c.087-.24.237-.658.296-1.403-.236-.12-.458-.285-.662-.488-.02 1.013-.21 1.458-.3 1.71l-.218.092zM11.535 8.424l.098.32.205.08c.113-.077.22-.162.313-.262.1-.098.09-.18.042-.34-.076-.252-.26-.7-.305-1.732-.202.203-.42.37-.655.49.067.71.2 1.122.276 1.36l.027.084z"/><path fill="#FFC857" d="M10.5 7.188c-1.17 0-2.337-1.58-2.337-2.68V2.993c0-1.1.962-1.994 2.062-1.994h.55c1.17 0 2.063.894 2.063 1.994v1.513c0 1.1-1.17 2.68-2.338 2.68z"/><path opacity=".15" d="M10.775 1.688c.77 0 1.375.574 1.375 1.306v1.513c0 .77-.9 1.994-1.65 1.994S8.85 5.277 8.85 4.507V2.994c0-.696.643-1.306 1.375-1.306h.55m0-.688h-.55c-1.1 0-2.063.894-2.063 1.994v1.513c0 1.1 1.17 2.68 2.337 2.68s2.336-1.58 2.336-2.68V2.994c0-1.1-.892-1.994-2.06-1.994z"/><g><path fill="#79A548" d="M9.97 12.32c-1.16-.332-1.97-.786-2.78-1.097.05.16.058.24-.04.34-.825.894-2.544.825-3.3 0-.1-.1-.08-.182-.02-.347-.815.31-1.63.77-2.798 1.103 0 0-.962.55-1.03 2.68H11c-.07-2.2-1.03-2.68-1.03-2.68z"/><path opacity=".15" d="M.754 14.313c.147-.89.48-1.267.586-1.368.758-.226 1.37-.498 1.913-.74l.185-.08c.503.484 1.267.77 2.074.77.813 0 1.56-.286 2.05-.77l.185.08c.545.242 1.16.515 1.922.742.11.098.438.458.58 1.365l.063.688H11c-.07-2.2-1.03-2.68-1.03-2.68-1.16-.332-1.97-.786-2.78-1.097.05.16.058.24-.04.34-.404.437-1.023.644-1.638.644-.64 0-1.276-.224-1.662-.645-.1-.1-.08-.182-.02-.347-.815.31-1.63.77-2.798 1.103 0 0-.962.55-1.03 2.68h.687l.064-.685z"/><path fill="#FFC857" d="M5.5 10.188c-.487 0-.97-.283-1.373-.683-.03 1.665-.53 1.806-.277 2.058.756.825 2.475.894 3.3 0 .253-.253-.19-.394-.264-2.072-.406.41-.893.698-1.386.698z"/><path opacity=".15" d="M3.61 11.306c.072-.03.146-.063.22-.09-.06.164-.08.247.02.346.09.098.196.185.31.262l.208-.08.107-.297.02-.053c.087-.24.237-.658.296-1.403-.236-.12-.458-.284-.662-.487-.02 1.013-.21 1.458-.3 1.71-.073.03-.146.063-.218.093zM6.535 11.424l.098.32.205.08c.113-.077.22-.162.313-.262.1-.098.09-.18.042-.34-.076-.252-.26-.7-.305-1.732-.202.203-.422.37-.655.49.067.71.2 1.122.276 1.36l.027.084z"/><path fill="#FFC857" d="M5.5 10.188c-1.17 0-2.338-1.58-2.338-2.68V5.993c0-1.1.963-1.994 2.063-1.994h.55c1.17 0 2.063.894 2.063 1.994v1.513c0 1.1-1.17 2.68-2.338 2.68z"/><path opacity=".15" d="M5.775 4.688c.77 0 1.375.574 1.375 1.306v1.513c0 .77-.9 1.993-1.65 1.993S3.85 8.276 3.85 7.506V5.994c0-.696.643-1.306 1.375-1.306h.55m0-.688h-.55c-1.1 0-2.063.894-2.063 1.994v1.513c0 1.1 1.17 2.68 2.338 2.68s2.337-1.58 2.337-2.68V5.994C7.837 4.894 6.944 4 5.775 4z"/></g></svg>