<svg xmlns="http://www.w3.org/2000/svg" viewBox="0 0 64 64"><path fill="currentColor" d="M26 48H16c-2.21 0-4-1.79-4-4V16c0-2.21 1.79-4 4-4h32c2.21 0 4 1.79 4 4v12c0 1.1-.9 2-2 2s-2-.9-2-2V16H16v28h10c1.1 0 2 .9 2 2s-.9 2-2 2Z"/><path fill="var(--icon-color-accent, #ff8700)" d="m51.41 48.59-5.54-5.54c.8-1.3 1.27-2.83 1.27-4.47 0-4.73-3.84-8.57-8.57-8.57S30 33.85 30 38.58s3.84 8.57 8.57 8.57c1.64 0 3.17-.47 4.47-1.27l5.54 5.54c.39.39.9.59 1.41.59s1.02-.2 1.41-.59c.78-.78.78-2.05 0-2.83Zm-12.84-5.45c-2.52 0-4.57-2.05-4.57-4.57S36.05 34 38.57 34s4.57 2.05 4.57 4.57-2.05 4.57-4.57 4.57Z"/><g opacity=".4"><path fill="currentColor" d="M16 16h32v8H16z"/></g></svg>