<svg xmlns="http://www.w3.org/2000/svg" viewBox="-2 3 11 11"><style>.st0{fill:#FFEDCF;} .st1{fill:#333333;} .st2{fill:#FF8700;} .st3{fill:#B9B9B9;} .st4{fill:#C83C3C;} .st5{fill:#666666;}</style><path class="st0" d="M-1 13v-2l7-7h2v2l-7 7"/><path class="st1" d="M.5 13H-1v-1.5"/><path class="st2" d="M7 7l-5 5-2-2 5-5"/><path class="st3" d="M6 4l2 2-1 1-2-2"/><path class="st4" d="M8 6.2L5.8 4l.7-.7c.2-.2.6-.2.8 0l1.4 1.4c.2.2.2.6 0 .8l-.7.7z"/><path class="st5" d="M8 4v2l-7 7h-2v-2l7-7h2M5.6 3l-7.3 7.3-.3.3V14h3.4l.3-.3L9 6.4V3H5.6z"/></svg>