<svg xmlns="http://www.w3.org/2000/svg" viewBox="-2 3 11 11"><style>.st0{fill:#ffedcf}.st1{fill:#333}.st2{fill:#ff8700}.st3{fill:#b9b9b9}.st4{fill:#c83c3c}.st5{fill:#666}</style><path class="st0" d="M-1 13v-2l7-7h2v2l-7 7z"/><path class="st1" d="M.5 13H-1v-1.5z"/><path class="st2" d="M7 7l-5 5-2-2 5-5z"/><path class="st3" d="M6 4l2 2-1 1-2-2z"/><path class="st4" d="M8 6.2L5.8 4l.7-.7c.2-.2.6-.2.8 0l1.4 1.4c.2.2.2.6 0 .8l-.7.7z"/><path class="st5" d="M8 4v2l-7 7h-2v-2l7-7h2M5.6 3l-7.3 7.3-.3.3V14h3.4l.3-.3L9 6.4V3H5.6z"/></svg>