<svg xmlns="http://www.w3.org/2000/svg" viewBox="0 0 11 11"><circle fill="#59F" cx="5.5" cy="5.5" r="5.5"/><path opacity=".2" d="M5.5 1C7.982 1 10 3.02 10 5.5S7.982 10 5.5 10 1 7.98 1 5.5 3.02 1 5.5 1m0-1C2.463 0 0 2.462 0 5.5S2.463 11 5.5 11 11 8.538 11 5.5 8.538 0 5.5 0z"/><path fill="#AAD400" d="M9.983 5.1c-.14-1.52-1.03-2.824-2.28-3.523-.058.063-.074.026-.074.088-.18.063-.417-.062-.595-.124-.474-.186-.948-.186-1.364-.062-.177.063-.59.125-.414.5.118.187.415.374.712.124.118-.125.238-.312.415-.125.06.063.06.125.06.188-.06.186-.238.25-.415.25-.238.06-.476 0-.712.06-.24.065-.595.127-.595.44 0 .372-.118.435-.415.497-.238 0-.355.125-.238.374.06.186.238.186.357.125.474-.248.89-.872 1.423-.124l.118-.062c.12-.5.238-.186.356 0l.18.187c.71-.684.533.313.77.5-.474-.125-1.008.374-1.423.062-.71-.56-1.186-.31-1.838.25-.535.437-.653.997-.535 1.496.178.624.83.686 1.365.56.177-.062.534-.062.534.063-.12.562.533.936.295 1.56-.178.498.12 1.12.533 1.308.416.186.77-.312.95-.748.06-.062 0-.186.06-.25.473-.623.414-1.557 1.007-2.18.178-.187.77-.873.296-1.435 1.127-.312.714.81.95 1.31.177-.374.295-.748.414-1.06.06-.187.103-.245.103-.245zM3.538 1.778c.187-.197.195-.23.382-.492-.39.138-.883.41-1.236.706l.108.114h.56s.063 0 .063-.064l.062-.066s.062 0 .062-.066l.06-.066.063-.066c-.186.132-.186.066-.125 0 0 .066 0 .066 0 0 0 .066 0 0 0 0zM2.714 7.846s-.06-.06 0 0c-.06-.06-.06-.06 0 0v-.178l-.06-.058c-.062 0-.062-.06-.123-.06s-.122-.06-.183-.06h-.123s-.06 0-.06-.06c-.43-.237-.614-.65-.737-1.125 0-.12-.06-.238-.06-.356-.06-.06-.06-.12-.123-.18-.122-.118-.06-.355.062-.593V5.06c0-.06 0-.06.06-.12 0-.058 0-.058.063-.118.12-.238.367-.415.49-.593.06-.06.06-.06.06-.12v-.058c.06-.06.06-.178.122-.238 0-.058.062-.177.062-.237 0-.12 0-.178-.062-.296-.062-.177-.1-.33-.22-.45C1.328 3.6 1 4.466 1 5.474c0 1.365.58 2.575 1.552 3.423 0 0 .04.017.04-.04v-.06c0-.06.06-.06.06-.12.062-.24.062-.593.062-.83z"/></svg>