<svg xmlns="http://www.w3.org/2000/svg" viewBox="0 0 10 10"><g transform="translate(0 -6)"><g fill="#aaa"><path d="M5 6.3c-2.2 0-4 1.8-4 4v.8h1.6v-.8c0-1.336 1.064-2.4 2.4-2.4 1.336 0 2.4 1.064 2.4 2.4v.8H9v-.8c0-2.2-1.8-4-4-4z" stroke="#000" stroke-width=".6"/><path d="M5 6.3c-2.2 0-4 1.8-4 4v.8h1.6v-.8c0-1.336 1.064-2.4 2.4-2.4 1.336 0 2.4 1.064 2.4 2.4v.8H9v-.8c0-2.2-1.8-4-4-4z"/></g><path fill="#ffc857" d="M0 10h10v6H0z"/><path stroke-linecap="square" stroke-linejoin="round" d="M0 15.7h10v.3H0zM0 10.3h1V10H0z"/><path stroke-linecap="square" stroke-linejoin="round" d="M0 10v6h.3v-6zM9.7 10v6h.3v-6zM2.625 10.3h4.75V10h-4.75z"/><path stroke-linecap="square" stroke-linejoin="round" d="M9 10.3h1V10H9z"/><circle cx="5" cy="12.448" r="1" fill="#e8a33d" stroke-width="0" stroke-linecap="square" stroke-linejoin="round"/><path fill="#e8a33d" stroke-width="0" stroke-linecap="square" stroke-linejoin="round" d="M4.5 12.597h1v2.232h-1z"/></g></svg>