<svg xmlns="http://www.w3.org/2000/svg" viewBox="0 0 11 11"><path fill="#666" d="M7.15 0h-.3C5.678 0 4.725.937 4.725 2.088v.825c0 .434.161.91.438 1.33a6.483 6.483 0 0 1-.875.333l-.117.033-.105.06c-.169.097-1.012.693-1.065 2.331L3 10h8V7c-.053-1.638-.897-2.234-1.066-2.331l-.105-.06-.117-.033a6.432 6.432 0 0 1-.875-.333c.277-.42.438-.897.438-1.33v-.825C9.276.937 8.322 0 7.15 0z"/><path fill="#FFC857" d="M9.438 5.538c-.637-.182-1.081-.432-1.525-.601-.049-.138-.153-.381-.164-.934.307-.305.527-.74.527-1.09v-.825C8.276 1.488 7.75 1 7.15 1h-.3c-.6 0-1.125.488-1.125 1.088v.825c0 .35.22.785.527 1.09-.01.553-.114.796-.164.934-.444.169-.888.419-1.525.601 0 0-.525.3-.562 1.462v1h6V7c-.039-1.162-.563-1.462-.563-1.462z"/><path fill="#ABD7FF" d="M9.438 5.538c-.633-.181-1.075-.428-1.515-.598.027.087.031.131-.022.185-.45.488-1.388.45-1.8 0-.055-.055-.044-.099-.011-.189-.444.169-.888.419-1.526.602 0 0-.525.3-.562 1.462v2h6V7c-.04-1.2-.564-1.462-.564-1.462z"/><g><path fill="#666" d="M4.15 2h-.3c-1.172 0-2.126.937-2.126 2.088v.825c0 .434.161.91.438 1.33a6.432 6.432 0 0 1-.875.333l-.117.033-.105.06C.897 6.766.054 7.362.001 9L0 11h8V9c-.053-1.638-.897-2.234-1.066-2.331l-.105-.06-.117-.033a6.432 6.432 0 0 1-.875-.333c.277-.42.438-.897.438-1.33v-.825C6.276 2.937 5.322 2 4.15 2z"/><path fill="#FFC857" d="M6.438 7.538c-.637-.182-1.081-.432-1.525-.601-.049-.138-.153-.381-.164-.934.307-.305.527-.74.527-1.09v-.825C5.276 3.488 4.75 3 4.15 3h-.3c-.6 0-1.125.488-1.125 1.088v.825c0 .35.22.785.527 1.09-.01.553-.114.796-.164.934-.444.169-.888.419-1.525.601 0 0-.525.3-.562 1.462v1h6V9c-.039-1.162-.563-1.462-.563-1.462z"/><path fill="#59F" d="M6.438 7.538c-.633-.181-1.075-.428-1.515-.598.027.087.031.131-.022.185-.45.488-1.388.45-1.8 0-.055-.055-.044-.099-.011-.189-.444.169-.888.419-1.526.602 0 0-.525.3-.562 1.462v1h6V9c-.04-1.2-.564-1.462-.564-1.462z"/></g></svg>