<svg xmlns="http://www.w3.org/2000/svg" viewBox="0 0 11 11"><path fill="#666" d="M5.725 0h-.45C3.818 0 2.588 1.205 2.588 2.63V3.87c0 .65.287 1.38.77 1.99-.013.118-.028.217-.045.3l-.288.128c-.44.196-.896.398-1.456.558l-.117.033-.105.06C1.135 7.06 0 7.81 0 10v1h11v-1c0-2.275-1.175-2.978-1.396-3.088L9.52 6.87l-.09-.026c-.56-.16-1.018-.364-1.46-.56l-.255-.113c-.02-.093-.038-.203-.053-.337.47-.606.75-1.327.75-1.966V2.63C8.413 1.157 7.233 0 5.726 0z"/><path fill="#FFC857" d="M9.156 7.806c-.95-.27-1.612-.642-2.272-.896-.063-.207-.214-.574-.25-1.418.454-.457.78-1.103.78-1.623V2.63c0-.9-.732-1.63-1.69-1.63h-.45c-.9 0-1.687.73-1.687 1.63V3.87c0 .525.33 1.177.79 1.635-.016.83-.172 1.194-.246 1.4-.665.255-1.33.63-2.286.903 0 0-.787.45-.844 2.194h9c-.056-1.8-.844-2.194-.844-2.194z"/><path fill="#79A548" d="M9.156 7.806c-.95-.27-1.612-.642-2.273-.897.04.13.047.196-.034.277-.676.73-2.082.675-2.7 0-.083-.082-.067-.15-.018-.284-.666.254-1.332.63-2.29.903 0 0-.786.45-.843 2.194h9c-.056-1.8-.844-2.194-.844-2.194z"/></svg>