<svg xmlns="http://www.w3.org/2000/svg" viewBox="0 0 11 11"><path fill="#C83C3C" d="M9.982 3.236l-2.22-2.218.718-.716c.216-.216.568-.216.784 0l1.434 1.434c.216.216.216.568 0 .784l-.716.716z"/><path fill="#B9B9B9" d="M7.765 1.018l2.217 2.218-.554.554L7.21 1.573z"/><path fill="#FFEDCF" d="M0 11l1.11-3.327.554-.555 2.218 2.218-.532.555"/><path fill="#333" d="M1.11 10.634L0 11l.366-1.11h.743"/><path fill="#FF8700" d="M9.427 3.79L3.882 9.337h-1.11v-1.11H1.665V7.12L7.21 1.573"/><path d="M8.873.277c.11 0 .216.043.295.122l1.434 1.433c.162.162.162.426 0 .588L3.226 9.776l-2.817.817.847-2.872L8.577.4c.08-.08.185-.123.296-.123m0-.277c-.177 0-.355.068-.49.203L1.01 7.573 0 11l3.372-.978 7.426-7.404c.27-.27.27-.71 0-.98L9.363.203C9.227.068 9.05 0 8.873 0z"/></svg>