<svg xmlns="http://www.w3.org/2000/svg" viewBox="0 0 11 11"><path fill="#666" d="M8.05 0c-.705 0-1.37.276-1.87.776L4.823 2.134c-.518.518-.784 1.212-.77 1.913h-.05c-.704 0-1.368.276-1.868.776L.775 6.18C.276 6.68 0 7.345 0 8.05c0 .705.276 1.37.777 1.87l.305.304c.5.5 1.164.776 1.87.776.704 0 1.368-.276 1.868-.776l1.358-1.358c.52-.52.785-1.215.77-1.918h.06c.7 0 1.36-.273 1.858-.77l1.358-1.358c1.03-1.03 1.03-2.708 0-3.738L9.92.776C9.417.276 8.754 0 8.05 0z"/><path fill="#DDD" d="M8.05 1c-.42 0-.84.16-1.162.483L5.53 2.84c-.644.645-.644 1.68 0 2.325l.305.305c.644.644 1.68.644 2.324 0l1.357-1.358c.644-.644.644-1.68 0-2.324l-.305-.305C8.89 1.16 8.47 1 8.05 1zm-.125.766c.298-.015.64.123.913.396.437.437.527 1.05.202 1.377L7.587 4.99c-.326.326-.94.237-1.378-.2s-.527-1.05-.2-1.378L7.46 1.96c.124-.122.287-.186.465-.194zM4.003 5.047c-.42 0-.84.16-1.162.483L1.484 6.887c-.644.644-.644 1.68 0 2.324l.305.306c.644.644 1.68.644 2.324 0L5.47 8.16c.644-.645.644-1.68 0-2.325l-.305-.305c-.323-.322-.742-.483-1.162-.483zm-.126.766c.298-.015.64.123.914.396.438.436.527 1.05.2 1.377L3.54 9.04c-.326.326-.94.236-1.377-.2-.436-.438-.526-1.052-.2-1.378L3.413 6.01c.122-.123.286-.19.464-.197z"/><path opacity=".3" d="M5.53 5.166l.304.305c.234.235.52.382.82.445l.9-.9c-.333.294-.922.2-1.347-.223.217-.14-.782.138-.678.374zM5.17 5.532l.304.305c.234.234.38.52.444.82l-.9.9c.294-.333.2-.923-.223-1.347-.142.217.136-.782.374-.678z"/><path fill="#FFF" d="M3.452 6.496l3.05-3.05c.174-.174.552-.08.842.21.29.29.384.668.21.843l-3.05 3.048c-.175.175-.553.08-.843-.21-.29-.29-.383-.667-.208-.842z"/></svg>