<svg xmlns="http://www.w3.org/2000/svg" viewBox="0 0 10 10"><path d="M9.064 7.563c-1.055-.3-1.79-.714-2.526-.997.045.146.052.22-.037.31-.75.812-2.312.75-3 0-.09-.09-.073-.166-.02-.316-.74.282-1.48.7-2.542 1.003 0 0-.874.5-.937 2.437h10c-.062-2-.936-2.437-.936-2.437z" fill="#79a548"/><path d="M5 5.625c-.442 0-.88-.257-1.248-.62-.028 1.512-.48 1.64-.252 1.87.688.75 2.25.813 3 0 .23-.23-.173-.358-.24-1.884-.368.373-.81.635-1.26.635z" fill="#ffc857"/><path d="M5 5.625c-1.062 0-2.125-1.437-2.125-2.437V1.813C2.875.813 3.75 0 4.75 0h.5c1.063 0 1.876.813 1.876 1.813v1.375c0 1-1.063 2.437-2.125 2.437z" fill="#ffc857"/><path d="M4.748 0c-1 0-1.875.812-1.875 1.812v1.375c0 .583.366 1.308.877 1.817-.02 1.017-.22 1.392-.285 1.61.006-.02.005-.03.014-.053-.742.282-1.482.7-2.544 1.003 0 0-.873.5-.936 2.437h10c-.063-2-.938-2.438-.938-2.438-1.054-.3-1.792-.713-2.527-.996.005.017.004.025.008.04-.056-.22-.24-.6-.285-1.616.505-.508.866-1.225.867-1.803V1.812C7.125.812 6.31 0 5.248 0h-.5zm.03.367h.41c.87 0 1.54.684 1.54 1.526V3.05c-.002.533-.35 1.212-.828 1.64.055 1.496.342 2.005.47 2.304h.013c.67.215 1.342.527 2.303.756 0 0 .796.332.853 1.852H.427C.485 8.13 1.28 7.75 1.28 7.75c.97-.23 1.645-.548 2.32-.762h.017c.163-.272.45-.76.506-2.256-.505-.423-.883-1.128-.883-1.68V1.89c0-.84.717-1.525 1.537-1.525z"/></svg>