<svg xmlns="http://www.w3.org/2000/svg" viewBox="0 0 11 11"><path fill="#666" d="M7.15 0h-.3C5.678 0 4.725.937 4.725 2.088v.825c0 .434.16.91.438 1.33-.268.12-.546.24-.875.333l-.117.033-.104.06C3.896 4.765 3.054 5.36 3 7v3h8V7c-.053-1.638-.897-2.234-1.066-2.33l-.105-.06-.118-.034c-.33-.094-.608-.214-.875-.333.277-.42.438-.897.438-1.33v-.825C9.275.938 8.322 0 7.15 0z"/><path fill="#FFC857" d="M9.438 5.538c-.637-.182-1.08-.432-1.525-.6-.05-.14-.153-.382-.164-.935.306-.305.526-.74.526-1.09v-.825C8.276 1.488 7.75 1 7.15 1h-.3c-.6 0-1.125.488-1.125 1.088v.825c0 .35.22.785.527 1.09-.01.553-.114.796-.164.934-.444.17-.888.42-1.525.6 0 0-.525.3-.562 1.463v1h6V7c-.038-1.162-.562-1.462-.562-1.462z"/><path fill="#ABD7FF" d="M9.438 5.538c-.633-.18-1.075-.428-1.515-.598.027.087.03.13-.022.185-.45.488-1.387.45-1.8 0-.054-.055-.043-.1-.01-.19-.444.17-.888.42-1.526.603 0 0-.525.3-.562 1.462v2h6V7c-.04-1.2-.564-1.462-.564-1.462z"/><g><path fill="#666" d="M4.15 2h-.3c-1.172 0-2.126.937-2.126 2.088v.825c0 .434.16.91.438 1.33-.267.12-.546.24-.875.333l-.117.033-.105.06C.897 6.765.055 7.36 0 9v2h8V9c-.053-1.638-.897-2.234-1.066-2.33l-.105-.06-.118-.034c-.33-.094-.608-.214-.875-.333.277-.42.438-.897.438-1.33v-.825C6.275 2.938 5.322 2 4.15 2z"/><path fill="#FFC857" d="M6.438 7.538c-.637-.182-1.08-.432-1.525-.6-.05-.14-.153-.382-.164-.935.306-.305.526-.74.526-1.09v-.825C5.276 3.488 4.75 3 4.15 3h-.3c-.6 0-1.125.488-1.125 1.088v.825c0 .35.22.785.527 1.09-.01.553-.114.796-.164.934-.444.17-.888.42-1.525.6 0 0-.525.3-.562 1.463v1h6V9c-.038-1.162-.562-1.462-.562-1.462z"/><path fill="#59F" d="M6.438 7.538c-.633-.18-1.075-.428-1.515-.598.027.087.03.13-.022.185-.45.488-1.387.45-1.8 0-.054-.055-.043-.1-.01-.19-.444.17-.888.42-1.526.603 0 0-.525.3-.562 1.462v1h6V9c-.04-1.2-.564-1.462-.564-1.462z"/></g></svg>