<?xml version="1.0" encoding="utf-8"?>
<!-- Generator: Adobe Illustrator 19.0.1, SVG Export Plug-In . SVG Version: 6.00 Build 0)  -->
<svg version="1.1" xmlns="http://www.w3.org/2000/svg" xmlns:xlink="http://www.w3.org/1999/xlink" x="0px" y="0px"
	 viewBox="0 0 64 64" enable-background="new 0 0 64 64" xml:space="preserve">
<g id="Background">
	<rect fill="#08596C" width="64" height="64"/>
</g>
<g id="Icon">
	<path fill="#FFFFFF" d="M38.9,27.2l-2.1-2.1l5.9-5.9l2.1,2.1L38.9,27.2z M47.9,21.3c0-0.3-0.1-0.7-0.4-0.9l-4-4
		c-0.2-0.2-0.6-0.4-0.9-0.4s-0.7,0.1-0.9,0.4L15.9,42.3c-0.2,0.2-0.4,0.6-0.4,0.9c0,0.3,0.1,0.7,0.4,0.9l4,4
		c0.2,0.2,0.6,0.4,0.9,0.4c0.3,0,0.7-0.1,0.9-0.4l25.8-25.8C47.8,22,47.9,21.7,47.9,21.3z M20.8,17.5l-0.6-2l-0.6,2l-2,0.6l2,0.6
		l0.6,2l0.6-2l2-0.6L20.8,17.5z M27.8,20.8l-1.2-3.9l-1.2,3.9L21.4,22l3.9,1.2l1.2,3.9l1.2-3.9l3.9-1.2L27.8,20.8z M46.5,30.4
		l-0.6-2l-0.6,2l-2,0.6l2,0.6l0.6,2l0.6-2l2-0.6L46.5,30.4z M33.6,17.5l-0.6-2l-0.6,2l-2,0.6l2,0.6l0.6,2l0.6-2l2-0.6L33.6,17.5z"/>
</g>
</svg>
