<svg xmlns="http://www.w3.org/2000/svg" viewBox="0 0 64 64"><path fill="#08596C" d="M0 0h64v64H0z"/><path fill="#FFF" d="M38.9 27.2l-2.1-2.1 5.9-5.9 2.1 2.1-5.9 5.9zm9-5.9c0-.3-.1-.7-.4-.9l-4-4c-.2-.2-.6-.4-.9-.4s-.7.1-.9.4L15.9 42.3c-.2.2-.4.6-.4.9 0 .3.1.7.4.9l4 4c.2.2.6.4.9.4.3 0 .7-.1.9-.4l25.8-25.8c.3-.3.4-.6.4-1zm-27.1-3.8l-.6-2-.6 2-2 .6 2 .6.6 2 .6-2 2-.6-2-.6zm7 3.3l-1.2-3.9-1.2 3.9-4 1.2 3.9 1.2 1.2 3.9 1.2-3.9 3.9-1.2-3.8-1.2zm18.7 9.6l-.6-2-.6 2-2 .6 2 .6.6 2 .6-2 2-.6-2-.6zM33.6 17.5l-.6-2-.6 2-2 .6 2 .6.6 2 .6-2 2-.6-2-.6z"/></svg>