<svg viewBox="0 0 64 64" xmlns="http://www.w3.org/2000/svg"><title>module-info</title><g fill="none" fill-rule="evenodd"><path d="M0 0h64v64H0z" fill="#6DAAE0"/><path d="M39.95 43.5c0-.8-.7-1.5-1.5-1.5H36V29.5c0-.8-.7-1.5-1.5-1.5h-8.01c-.8 0-1.5.7-1.5 1.5v3.004c0 .8.7 1.5 1.5 1.5H28V42h-2.5c-.8 0-1.5.7-1.5 1.5l-.1 3.014c0 .8.7 1.5 1.5 1.5h13.05c.8 0 1.5-.7 1.5-1.5l.1-3.014h-.1zM34.52 16h-5.04c-.79 0-1.48.69-1.48 1.48v5.04c0 .79.69 1.48 1.48 1.48h5.04c.79 0 1.48-.69 1.48-1.48v-5.04c0-.79-.69-1.48-1.48-1.48z" fill="#FFF"/></g></svg>