<svg xmlns="http://www.w3.org/2000/svg" viewBox="0 0 64 64"><g fill="none" fill-rule="evenodd"><g><g fill="#6DAAE0"><path d="M0 0h64v64H0z"/></g><g fill="#FFF"><path d="M39.95 43.5c0-.8-.7-1.5-1.5-1.5H36V29.5c0-.8-.7-1.5-1.5-1.5h-8.01c-.8 0-1.5.7-1.5 1.5v3.004c0 .8.7 1.5 1.5 1.5H28V42h-2.5c-.8 0-1.5.7-1.5 1.5l-.1 3.014c0 .8.7 1.5 1.5 1.5h13.05c.8 0 1.5-.7 1.5-1.5l.1-3.014h-.1zM34.52 16H29.48c-.79 0-1.481.691-1.481 1.481v5.038c0 .79.691 1.481 1.481 1.481h5.038c.79 0 1.481-.691 1.481-1.481V17.48c0-.79-.691-1.481-1.481-1.481z"/></g></g></g></svg>