<svg xmlns="http://www.w3.org/2000/svg" viewBox="0 0 16 16"><g class="icon-color"><path d="M7 14H2V2h12v5l1 1V1.5a.5.5 0 0 0-.5-.5h-13a.5.5 0 0 0-.5.5v13a.5.5 0 0 0 .5.5H8l-1-1z"/><path d="M3 3h10v2H3zM3 10h3l-1 1H3zM3 12h2l1 1H3zM3 8h5L7 9H3zM3 6h7L9 7H3zM14 11h-2V9h-1v2H9v1h2v2h1v-2h2z"/><path d="M15.823 11.677l-1.396 1.396a.25.25 0 0 1-.427-.177v-2.793a.25.25 0 0 1 .427-.177l1.396 1.396a.251.251 0 0 1 0 .355zM7.177 11.323l1.396-1.396a.25.25 0 0 1 .427.177v2.793a.25.25 0 0 1-.427.177l-1.396-1.396a.251.251 0 0 1 0-.355zM11.677 7.177l1.396 1.396a.25.25 0 0 1-.177.427h-2.793a.25.25 0 0 1-.176-.427l1.396-1.396a.25.25 0 0 1 .354 0zM11.327 15.827l-1.4-1.4a.25.25 0 0 1 .177-.427h2.856a.25.25 0 0 1 .173.43l-1.456 1.4a.25.25 0 0 1-.35-.003z"/></g></svg>