<svg viewBox="0 0 16 16" xmlns="http://www.w3.org/2000/svg"><title>actions-template-new</title><path d="M6.041 14.25V14H2V2h12v4.125h.313c.269 0 .495.083.687.205V1.498A.496.496 0 0 0 14.502 1H1.498A.496.496 0 0 0 1 1.498v13.004c0 .275.22.498.498.498h4.819a1.227 1.227 0 0 1-.276-.75zM15.5 13H13v2.5a.5.5 0 0 1-.5.5h-1a.5.5 0 0 1-.5-.5V13H8.5a.5.5 0 0 1-.5-.5v-1a.5.5 0 0 1 .5-.5H11V8.5a.5.5 0 0 1 .5-.5h1a.5.5 0 0 1 .5.5V11h2.5a.5.5 0 0 1 .5.5v1a.5.5 0 0 1-.5.5zM7 9h2l-.008-2H7v2zM3 7h3v6H3V7zm0-4h10v3H3V3z" class="icon-color" fill-rule="evenodd"/></svg>