<svg xmlns="http://www.w3.org/2000/svg" viewBox="0 0 16 16"><g class="icon-color"><path d="M8.75 11h-1.5c-.138 0-.25.112-.25.25v1.5c0 .138.112.25.25.25h1.5c.138 0 .25-.112.25-.25v-1.5c0-.138-.112-.25-.25-.25zM10.95 5.45c-.212-1.2-1.196-2.186-2.398-2.4-1.807-.322-3.39.975-3.54 2.683-.013.143.11.267.254.267h1.51c.128 0 .22-.098.248-.222C7.126 5.333 7.524 5 8 5c.55 0 1 .45 1 1 0 .357-.2.657-.482.833C7.612 7.347 7 8.316 7 9.433v.317c0 .138.112.25.25.25h1.5c.138 0 .25-.112.25-.25v-.317c0-.36.2-.66.486-.835C10.536 8 11.19 6.792 10.95 5.45z"/></g></svg>