<svg viewBox="0 0 16 16" xmlns="http://www.w3.org/2000/svg"><title>actions-document-open-read-only</title><path d="M2 14V2h12v3.29c.37.146.7.357 1 .602V1.5c0-.276-.224-.5-.5-.5h-13c-.276 0-.5.224-.5.5v13c0 .276.224.5.5.5H7v-1H2zm1-6v1h4.9v-.11c0-.31.042-.604.108-.89H3zm0-2v1h5.59c.21-.378.474-.715.795-1H3zm0-1h10V3H3v2zm12 5v-.5C15 8.1 13.9 7 12.5 7S10 8.1 10 9.5v.5H9v6h7v-6h-1zm-2 3.9V15h-1v-1.1c-.6-.2-1-.8-1-1.4 0-.8.7-1.5 1.5-1.5s1.5.7 1.5 1.5c0 .7-.4 1.2-1 1.4zM11 10v-.5c0-.8.7-1.5 1.5-1.5s1.5.7 1.5 1.5v.5h-3zm-7.94 2H7v1H3.06v-1zm0-2H7v1H3.06v-1z" class="icon-color" fill-rule="evenodd"/></svg>