<svg viewBox="0 0 16 16" xmlns="http://www.w3.org/2000/svg"><title>actions-document-copy-release-v1</title><path d="M6.585 2H3.51a.502.502 0 0 0-.51.494v12.012c0 .268.228.494.51.494h3.577A1.489 1.489 0 0 1 7 14.497V14H4V3h1v.495c0 .291.22.505.491.505h5.018A.503.503 0 0 0 11 3.495V3h1v3h1V2.494A.505.505 0 0 0 12.49 2H9.415a1.5 1.5 0 0 0-2.83 0zM8 3.25a.75.75 0 1 0 0-1.5.75.75 0 0 0 0 1.5zm7.2 5.95L13.4 11l1.8 1.8c.2.2.2.5 0 .7l-.7.7c-.2.2-.5.2-.7 0L12 12.4l-1.8 1.8c-.2.2-.5.2-.7 0l-.7-.7c-.2-.2-.2-.5 0-.7l1.8-1.8-1.8-1.8c-.2-.2-.2-.5 0-.7l.7-.7c.2-.2.5-.2.7 0L12 9.6l1.8-1.8c.2-.2.5-.2.7 0l.7.7c.2.2.2.5 0 .7z" class="icon-color" fill-rule="evenodd"/></svg>