<svg viewBox="0 0 16 16" xmlns="http://www.w3.org/2000/svg"><title>actions-system-backend-user-switch-v1</title><g class="icon-color"><path d="M9.2 10c-.335.362-.804.6-1.204.6 1.07-.022 2.055-1.408 2.154-2.4V6.8c0-1-.8-1.8-1.9-1.8h-.5c-1 0-1.9.8-1.9 1.8v1.4c0 .622.387 1.4.945 1.898-.015.96-.24 1.31-.32 1.532-.058-.01-.086-.02-.075-.03-.7.3-1.5.7-2.5 1 0 0-.9.5-.9 2.4h10c-.3-2-1.1-2.4-1.1-2.4-1.03-.28-1.71-.65-2.366-.94-.057-.23-.335-.65-.335-1.66z"/><path d="M3.68 4.965c1.43-2.283 4.454-2.99 6.747-1.556L9.67 4.62c-.103.166.017.383.215.383h3.886c.187 0 .308-.194.226-.362l-1.702-3.49c-.087-.18-.335-.192-.44-.024l-.825 1.32C8.207.683 4.48 1.543 2.72 4.366c-.582.928-.806 1.588-.84 2.61l1.152-.004c.032-.81.187-1.264.648-2.007z"/></g></svg>