<svg xmlns="http://www.w3.org/2000/svg" viewBox="0 0 16 16"><g class="icon-color"><path d="M8 1C4.1 1 1 4.1 1 8s3.1 7 7 7 7-3.1 7-7-3.1-7-7-7zM6.731 13.598L8 11.059l1.278 2.556a5.748 5.748 0 01-2.547-.017zm3.871-.454L9 9.941V8.567c1.202-.342 2.767-1.05 2.853-1.09A.248.248 0 0012 7.25v-1a.249.249 0 00-.25-.25.248.248 0 00-.103.022C10.892 6.364 8.766 7.25 8 7.25s-2.892-.886-3.646-1.228a.256.256 0 00-.239.018.249.249 0 00-.115.21v1a.25.25 0 00.147.228c.087.039 1.645.738 2.853 1.083v1.38l-1.594 3.188A5.664 5.664 0 012.25 8c0-3.301 2.532-5.75 5.803-5.75S13.75 4.806 13.75 8a5.724 5.724 0 01-3.148 5.144z"/><circle cx="8" cy="5" r="1.125"/></g></svg>