<svg xmlns="http://www.w3.org/2000/svg" viewBox="0 0 16 16"><path d="M14.823 7.823l-2.396-2.396a.25.25 0 0 0-.427.177V7H9V4h1.396a.25.25 0 0 0 .177-.427L8.177 1.177a.25.25 0 0 0-.354 0L5.427 3.573A.25.25 0 0 0 5.604 4H7v3H4V5.604a.25.25 0 0 0-.427-.177L1.177 7.823a.25.25 0 0 0 0 .354l2.396 2.396A.25.25 0 0 0 4 10.396V9h3v3H5.604a.25.25 0 0 0-.177.427l2.396 2.396a.25.25 0 0 0 .354 0l2.396-2.396a.25.25 0 0 0-.177-.427H9V9h3v1.396a.25.25 0 0 0 .427.177l2.396-2.396a.25.25 0 0 0 0-.354z" class="icon-color"/></svg>