<svg viewBox="0 0 16 16" xmlns="http://www.w3.org/2000/svg"><title>actions-system-pagemodule-open</title><path d="M8.25 14H3V2h7v2.5c0 .276.224.5.5.5H13v2.25l1 1V3.914c0-.265-.105-.52-.293-.707l-1.914-1.914C11.605 1.105 11.35 1 11.086 1H2.5c-.276 0-.5.224-.5.5v13c0 .276.224.5.5.5h6.75l-1-1zM11 2l2 2h-2V2zm3.124 12.844l-1.445-1.44c-.49.34-1.08.52-1.68.52-1.63.005-2.956-1.32-2.956-2.96 0-1.635 1.325-2.96 2.96-2.96s2.96 1.325 2.96 2.96c0 .595-.18 1.185-.52 1.68l1.445 1.445c.094.094.154.234.154.38 0 .29-.245.534-.54.534-.145 0-.28-.06-.38-.16zM11 9c-1.102 0-2 .898-2 2 0 1.102.898 2 2 2 1.102 0 2-.898 2-2 0-1.102-.898-2-2-2z" class="icon-color" fill-rule="evenodd"/></svg>