<svg viewBox="0 0 16 16" xmlns="http://www.w3.org/2000/svg"><title>actions-document-view</title><path d="M4.4 14H2V2h12v6.07c.348.12.684.254 1 .41V1.5c0-.276-.224-.5-.5-.5h-13c-.276 0-.5.224-.5.5v13c0 .276.224.5.5.5h3.523c-.256-.314-.468-.648-.624-1zM3 3h10v2H3V3zm0 3h10v1H3V6zm0 3h3.165c.596-.415 1.3-.755 2.08-1H3v1zm0 2h1.413c.162-.352.382-.686.647-1H3v1zm0 2h1.11c-.023-.165-.035-.332-.035-.5 0-.17.012-.335.036-.5H3v1zm8.2-4h-.1c-2.8 0-5 1.6-5 3.5S8.2 16 11 16c2.8 0 5-1.6 5-3.5S13.8 9.1 11.2 9zm-.2 6c-2.2 0-4-1.1-4-2.5 0-.9.7-1.6 1.8-2.1-.2.3-.2.7-.2 1.1 0 1.4 1.1 2.5 2.5 2.5s2.5-1.1 2.5-2.5c0-.4-.1-.7-.2-1 1 .5 1.7 1.2 1.7 2C15 13.9 13.2 15 11 15zm.1-5.2c.1 0 .3.1.3.2s-.1.2-.3.2c-.6 0-1.2.5-1.2 1.1 0 .1-.1.2-.3.2-.2 0-.3-.1-.3-.2.1-.8.9-1.5 1.8-1.5z" class="icon-color" fill-rule="evenodd"/></svg>