<svg xmlns="http://www.w3.org/2000/svg" viewBox="0 0 16 16"><g class="icon-color"><path d="M8 9a1 1 0 100-2 1 1 0 000 2zm2.37 3.23c-.7.4-1.5.64-2.37.64-2.68 0-4.87-2.18-4.87-4.87h1.419a.25.25 0 00.212-.383L2.712 4.339a.25.25 0 00-.424 0L.239 7.617A.25.25 0 00.451 8H2c0 3.31 2.69 6 6 6 1.09 0 2.1-.29 2.98-.8l-.61-.97zM15.549 8H14c0-3.31-2.69-6-6-6a6 6 0 00-3.06.84l.61.97c.72-.42 1.55-.68 2.45-.68 2.68 0 4.87 2.18 4.87 4.87h-1.419a.25.25 0 00-.212.383l2.049 3.278a.25.25 0 00.424 0l2.049-3.278A.25.25 0 0015.549 8z"/></g></svg>