<svg viewBox="0 0 16 16" xmlns="http://www.w3.org/2000/svg"><title>actions-system-extension-install</title><path d="M7.501 5.97l3.33-1.19a.5.5 0 1 1 .337.94L8 6.854v3.704a.5.5 0 1 1-1 0V6.852L3.832 5.721a.5.5 0 0 1 .336-.942l3.333 1.19zM8 13.914l-.029.011c-.265.111-.676.108-.934 0l-5.57-2.32A.806.806 0 0 1 1 10.91V4.102c0-.275.21-.588.468-.695l5.569-2.322c.266-.11.676-.107.934 0l5.562 2.322c.265.11.467.419.467.695V8h-1V4.252L7.504 2 2 4.252v6.507L7.504 13 8 12.798v1.117zM13 13v1.5a.5.5 0 0 1-.5.5h-1a.5.5 0 0 1-.5-.5V13H9.5a.5.5 0 0 1-.5-.5v-1a.5.5 0 0 1 .5-.5H11V9.5a.5.5 0 0 1 .5-.5h1a.5.5 0 0 1 .5.5V11h1.5a.5.5 0 0 1 .5.5v1a.5.5 0 0 1-.5.5H13z" class="icon-color" fill-rule="evenodd"/></svg>