<svg viewBox="0 0 16 16" xmlns="http://www.w3.org/2000/svg"><title>actions-page-move</title><path d="M7 14H3V2h7v2.5c0 .276.224.5.5.5H13v1.213l1 1v-3.3c0-.264-.105-.52-.293-.706l-1.914-1.914C11.605 1.105 11.35 1 11.086 1H2.5c-.276 0-.5.224-.5.5v13c0 .276.224.5.5.5H8l-1-1zm5-1.96h2.033l.008.98c0 .224.27.335.428.177L15.89 11.7c.1-.097.1-.255 0-.353l-1.446-1.54c-.158-.157-.427-.046-.427.177l.008 1.055H12V9.013l1.055.008c.223 0 .334-.27.177-.427l-1.54-1.483c-.098-.097-.256-.097-.353 0L9.84 8.572c-.157.157-.046.427.177.427l.98.006v2.033H9.05l.007-1.056c0-.223-.27-.334-.427-.176l-1.54 1.54c-.097.097-.097.255 0 .353l1.516 1.497c.158.158.427.047.427-.177l.008-.98H11v1.958l-.98.008c-.224 0-.335.27-.178.427l1.497 1.438c.096.1.254.1.352 0l1.54-1.46c.157-.158.046-.428-.177-.428l-1.055.01v-1.953zM11 2l2 2h-2V2z" class="icon-color"/></svg>