<svg xmlns="http://www.w3.org/2000/svg" viewBox="0 0 16 16"><g class="icon-color"><path d="M9 2v2H2V2h7m.5-1h-8a.5.5 0 0 0-.5.5v3a.5.5 0 0 0 .5.5h8a.5.5 0 0 0 .5-.5v-3a.5.5 0 0 0-.5-.5zM14 12v2H7v-2h7m.5-1h-8a.5.5 0 0 0-.5.5v3a.5.5 0 0 0 .5.5h8a.5.5 0 0 0 .5-.5v-3a.5.5 0 0 0-.5-.5zM9 7v2H2V7h7m.5-1h-8a.5.5 0 0 0-.5.5v3a.5.5 0 0 0 .5.5h8a.5.5 0 0 0 .5-.5v-3a.5.5 0 0 0-.5-.5zM14 2v7h-2V2h2m.5-1h-3a.5.5 0 0 0-.5.5v8a.5.5 0 0 0 .5.5h3a.5.5 0 0 0 .5-.5v-8a.5.5 0 0 0-.5-.5zM4 12v2H2v-2h2m.5-1h-3a.5.5 0 0 0-.5.5v3a.5.5 0 0 0 .5.5h3a.5.5 0 0 0 .5-.5v-3a.5.5 0 0 0-.5-.5z"/></g></svg>