<svg xmlns="http://www.w3.org/2000/svg" viewBox="0 0 16 16"><g class="icon-color"><path d="M14.413 9.393l-.865-.5c.046-.291.077-.588.077-.893s-.031-.602-.078-.893l.865-.5a1 1 0 0 0 .366-1.366l-1-1.732a1 1 0 0 0-1.366-.366l-.86.497A5.616 5.616 0 0 0 10 2.748V2a1 1 0 0 0-1-1H7a1 1 0 0 0-1 1v.748a5.641 5.641 0 0 0-1.552.892l-.861-.497a1 1 0 0 0-1.366.366l-1 1.732a1 1 0 0 0 .366 1.366l.865.5c-.046.291-.077.588-.077.893s.031.602.078.893l-.865.5a1 1 0 0 0-.366 1.366l1 1.732a1 1 0 0 0 1.366.366l.861-.497c.461.376.985.676 1.551.892V14a1 1 0 0 0 1 1h2a1 1 0 0 0 1-1v-.748a5.641 5.641 0 0 0 1.552-.892l.861.497a1 1 0 0 0 1.366-.366l1-1.732a1 1 0 0 0-.366-1.366zm-1.5 2.598l-1.515-.875A4.599 4.599 0 0 1 9 12.51V14H7v-1.49a4.599 4.599 0 0 1-2.398-1.394l-1.515.875-1-1.732 1.521-.878C3.47 8.942 3.375 8.484 3.375 8s.095-.942.233-1.381l-1.521-.878 1-1.732 1.515.875A4.599 4.599 0 0 1 7 3.49V2h2v1.49a4.599 4.599 0 0 1 2.398 1.394l1.515-.875 1 1.732-1.521.878c.138.439.233.897.233 1.381s-.095.942-.233 1.381l1.521.878-1 1.732z"/><path d="M8 5.875c1.172 0 2.125.953 2.125 2.125S9.172 10.125 8 10.125 5.875 9.172 5.875 8 6.828 5.875 8 5.875m0-1a3.125 3.125 0 1 0 0 6.25 3.125 3.125 0 0 0 0-6.25z"/></g></svg>