<svg viewBox="0 0 16 16" xmlns="http://www.w3.org/2000/svg"><title>actions-document-paste-into-v1</title><path d="M6.585 2H3.51c-.282 0-.51.22-.51.494v12.012c0 .268.228.494.51.494h6.987-1.994c-.652 0-1.208-.42-1.416-1H4V3h1v.495c0 .29.22.505.49.505h5.02c.262 0 .49-.226.49-.505V3h1v3h1V2.494c0-.268-.228-.494-.51-.494H9.415C9.21 1.417 8.653 1 8 1s-1.21.417-1.415 1zM8 3.25c.414 0 .75-.336.75-.75s-.336-.75-.75-.75-.75.336-.75.75.336.75.75.75zm0 4.253v5.994c0 .27.225.503.503.503h5.994c.27 0 .503-.225.503-.503V7.503c0-.27-.225-.503-.503-.503H8.503C8.233 7 8 7.225 8 7.503zM9 8h5v5H9V8zm1 1h3v1h-3V9zm0 2h3v1h-3v-1z" class="icon-color" fill-rule="evenodd"/></svg>