<svg viewBox="0 0 16 16" xmlns="http://www.w3.org/2000/svg"><title>actions-document-synchronize-v3</title><path d="M6.768 15H1.5c-.276 0-.5-.224-.5-.5v-13c0-.276.224-.5.5-.5h13c.276 0 .5.224.5.5v5.47c-.3-.313-.636-.592-1-.83V2H2v12h3.975c.227.362.493.698.793 1zm-1.572-3H3v1h2.476c-.122-.32-.217-.655-.28-1zm-.018-2H3v1h2.1v-.05c0-.324.027-.64.078-.95zm.735-2H3v1h2.44c.125-.35.285-.685.473-1zm2.01-2H3v1h3.67c.37-.388.79-.726 1.252-1zM3 3h10v2H3V3zm8 9c.552 0 1-.448 1-1s-.448-1-1-1-1 .448-1 1 .448 1 1 1zM9.285 8.55l-.517-.86c.64-.435 1.414-.69 2.248-.69 2.208 0 4 1.79 4 3.998h.825c.14 0 .227.16.152.284l-1.307 2.433c-.07.117-.234.117-.304 0l-1.356-2.433c-.075-.124.01-.284.15-.284h.842c0-1.656-1.344-2.998-3-2.998-.645 0-1.242.203-1.73.55zm1.74 5.45c.644 0 1.217-.203 1.706-.55l.518.86c-.64.435-1.415.69-2.248.69-2.208 0-4-1.79-4-3.998h-.817c-.14 0-.226-.16-.152-.284l1.3-2.433c.07-.117.234-.117.305 0l1.316 2.433c.075.124-.01.284-.15.284H8C8 12.658 9.368 14 11.024 14z" class="icon-color"/></svg>