<svg xmlns="http://www.w3.org/2000/svg" viewBox="0 0 16 16"><g class="icon-color"><path d="M5.581 10.356L4.36 8.475 4 9H1.5A1.5 1.5 0 0 0 0 10.5V12a2 2 0 0 0 2 2 2.99 2.99 0 0 0 2.975-2.754l.681-.773-.075-.117zM3.75 11c0 .965-.785 1.75-1.75 1.75a.75.75 0 0 1-.75-.75v-1.5a.25.25 0 0 1 .25-.25h2.25V11z"/><path d="M15.777 6.978L6 6.084 4.975 4.756A2.99 2.99 0 0 0 2 2.002a2 2 0 0 0-2 2v1.5a1.5 1.5 0 0 0 1.5 1.5H4l2 3.083 9.775-1.06A.25.25 0 0 0 16 8.776v-1.55a.25.25 0 0 0-.223-.248zM3.75 5.752H1.5a.25.25 0 0 1-.25-.25v-1.5a.75.75 0 0 1 .75-.75c.965 0 1.75.785 1.75 1.75v.75zM7 9a1 1 0 1 1 0-2 1 1 0 0 1 0 2z"/></g></svg>