<svg viewBox="0 0 16 16" xmlns="http://www.w3.org/2000/svg"><title>actions-document-copy-release-v1</title><path d="M6.585 2H3.51c-.282 0-.51.22-.51.494v12.012c0 .268.228.494.51.494h3.577C7.03 14.842 7 14.673 7 14.497V14H4V3h1v.495c0 .29.22.505.49.505h5.02c.262 0 .49-.226.49-.505V3h1v3h1V2.494c0-.268-.228-.494-.51-.494H9.415C9.21 1.417 8.653 1 8 1s-1.21.417-1.415 1zM8 3.25c.414 0 .75-.336.75-.75s-.336-.75-.75-.75-.75.336-.75.75.336.75.75.75zm7.2 5.95L13.4 11l1.8 1.8c.2.2.2.5 0 .7l-.7.7c-.2.2-.5.2-.7 0L12 12.4l-1.8 1.8c-.2.2-.5.2-.7 0l-.7-.7c-.2-.2-.2-.5 0-.7l1.8-1.8-1.8-1.8c-.2-.2-.2-.5 0-.7l.7-.7c.2-.2.5-.2.7 0L12 9.6l1.8-1.8c.2-.2.5-.2.7 0l.7.7c.2.2.2.5 0 .7z" class="icon-color" fill-rule="evenodd"/></svg>