<svg xmlns="http://www.w3.org/2000/svg" viewBox="0 0 16 16"><g class="icon-color"><path d="M10.693 7.77l4.454-3.19a.25.25 0 00.072-.326l-.761-1.349a.25.25 0 00-.318-.106l-6.41 2.88 2.963 2.091zM7.065 10.721l-2.136-.942-.05.567-2.177 1.228a1.5 1.5 0 00-.569 2.043l.737 1.307a2 2 0 002.725.759 2.99 2.99 0 001.238-3.86l.232-1.102zM4.98 14.595a.75.75 0 01-1.022-.285l-.737-1.306a.25.25 0 01.095-.341l1.96-1.106.369.653a1.755 1.755 0 01-.665 2.385z"/><path d="M15.113 11.501L7.092 5.84l-.224-1.663a2.99 2.99 0 00-1.2-3.872 2 2 0 00-2.732.733l-.75 1.299a1.5 1.5 0 00.55 2.049l2.165 1.249.191 3.67 8.996 3.968a.25.25 0 00.319-.103l.774-1.342a.249.249 0 00-.068-.327zM5.684 3.778l-.375.65L3.36 3.303a.251.251 0 01-.092-.341l.75-1.299a.751.751 0 011.024-.275 1.752 1.752 0 01.642 2.39zM7 9a1 1 0 110-2 1 1 0 010 2z"/></g></svg>