<svg viewBox="0 0 16 16" xmlns="http://www.w3.org/2000/svg"><title>actions-unmarkstate</title><path d="M1 1.498C1 1.223 1.22 1 1.498 1h13.004c.275 0 .498.22.498.498v13.004c0 .275-.22.498-.498.498H1.498C1.223 15 1 14.78 1 14.502V1.498zM2 2h12v12H2V2zm4.635 9.325c.194.195.515.19.706-.002l4.95-4.95c.195-.194.203-.504-.003-.71l-.7-.7c-.198-.197-.518-.196-.705-.01l-3.548 3.55c-.192.19-.5.193-.697-.005l-1.42-1.42c-.194-.194-.503-.2-.708.006l-.702.7c-.197.198-.205.51-.005.71l2.832 2.83z" class="icon-color" fill-rule="evenodd"/></svg>