<svg xmlns="http://www.w3.org/2000/svg" viewBox="0 0 16 16"><path fill="#FFC857" d="M5.323 5H1C.109 5-.337 6.077.293 6.707l3.534 3.534-1.755 4.388c-.327.816.484 1.626 1.3 1.3L8 14.077l4.629 1.851c.816.327 1.626-.484 1.3-1.3l-1.755-4.388 3.534-3.534C16.337 6.077 15.891 5 15 5h-4.323L8.928.629c-.335-.838-1.522-.838-1.857 0L5.323 5z"/><path opacity=".1" d="M8 1l2 5h5l-4 4 2 5-5-2-5 2 2-5-4-4h5l2-5M5.323 5H1C.109 5-.337 6.077.293 6.707l3.534 3.534-1.755 4.388c-.327.816.484 1.626 1.3 1.3L8 14.077l4.629 1.851c.816.327 1.626-.484 1.3-1.3l-1.755-4.388 3.534-3.534C16.337 6.077 15.891 5 15 5h-4.323L8.928.629c-.335-.838-1.522-.838-1.857 0L5.323 5z"/></svg>