<svg viewBox="0 0 16 16" xmlns="http://www.w3.org/2000/svg"><title>actions-system-extension-install</title><path d="M7.5 5.97l3.332-1.19c.26-.094.546.042.64.302.092.26-.044.546-.304.64L8 6.85v3.705c0 .276-.224.5-.5.5s-.5-.224-.5-.5V6.852l-3.168-1.13c-.26-.094-.396-.38-.303-.64.092-.26.378-.396.638-.303L7.5 5.97zm.5 7.945l-.03.01c-.264.112-.675.11-.933 0l-5.57-2.32c-.265-.11-.467-.42-.467-.695V4.102c0-.275.21-.588.468-.695l5.57-2.322c.265-.11.675-.107.933 0l5.563 2.322c.265.11.467.42.467.695V8h-1V4.252L7.504 2 2 4.252v6.507L7.504 13 8 12.798v1.117zM13 13v1.5c0 .276-.224.5-.5.5h-1c-.276 0-.5-.224-.5-.5V13H9.5c-.276 0-.5-.224-.5-.5v-1c0-.276.224-.5.5-.5H11V9.5c0-.276.224-.5.5-.5h1c.276 0 .5.224.5.5V11h1.5c.276 0 .5.224.5.5v1c0 .276-.224.5-.5.5H13z" class="icon-color" fill-rule="evenodd"/></svg>