<svg xmlns="http://www.w3.org/2000/svg" viewBox="0 0 16 16"><g class="icon-color"><path d="M10.693 7.77l4.454-3.19c.104-.074.135-.215.072-.326l-.762-1.35c-.063-.11-.2-.157-.318-.105L7.73 5.68l2.963 2.09zM7.065 10.72L4.93 9.78l-.05.566L2.7 11.574c-.72.407-.976 1.322-.57 2.043l.738 1.307c.543.962 1.763 1.302 2.725.76 1.37-.774 1.883-2.458 1.238-3.86l.232-1.103zM4.98 14.596c-.36.203-.82.076-1.022-.285l-.737-1.306c-.067-.12-.024-.273.096-.34l1.96-1.107.37.653c.472.84.174 1.91-.666 2.385z"/><path d="M15.113 11.5l-8.02-5.66-.225-1.663c.66-1.397.162-3.086-1.2-3.872-.957-.552-2.18-.224-2.732.733l-.75 1.3c-.414.717-.168 1.634.55 2.048L4.9 5.636l.192 3.67 8.996 3.967c.117.053.255.008.32-.103l.773-1.342c.066-.11.036-.252-.067-.327zM5.683 3.78l-.374.65-1.95-1.125c-.12-.07-.16-.222-.092-.34l.75-1.3c.207-.358.666-.48 1.024-.275.836.482 1.124 1.554.642 2.39zM7 9c-.552 0-1-.448-1-1s.448-1 1-1 1 .448 1 1-.448 1-1 1z"/></g></svg>