<svg viewBox="0 0 16 16" xmlns="http://www.w3.org/2000/svg"><title>actions-template-new</title><path d="M6.04 14.25V14H2V2h12v4.125h.313c.27 0 .495.083.687.205V1.498c0-.275-.22-.498-.498-.498H1.498C1.223 1 1 1.22 1 1.498v13.004c0 .275.22.498.498.498h4.82c-.163-.21-.277-.463-.277-.75zM15.5 13H13v2.5c0 .276-.224.5-.5.5h-1c-.276 0-.5-.224-.5-.5V13H8.5c-.276 0-.5-.224-.5-.5v-1c0-.276.224-.5.5-.5H11V8.5c0-.276.224-.5.5-.5h1c.276 0 .5.224.5.5V11h2.5c.276 0 .5.224.5.5v1c0 .276-.224.5-.5.5zM7 9h2l-.008-2H7v2zM3 7h3v6H3V7zm0-4h10v3H3V3z" class="icon-color" fill-rule="evenodd"/></svg>