<svg viewBox="0 0 16 16" xmlns="http://www.w3.org/2000/svg"><title>actions-document-select-v1</title><path d="M8.363 15H1.5a.5.5 0 0 1-.5-.5v-13a.5.5 0 0 1 .5-.5h13a.5.5 0 0 1 .5.5v4.612c.267.122.518.293.74.514l.7.7c.979.98.973 2.57 0 3.542L15 12.31V14.5a.5.5 0 0 1-.5.5h-2.191l-.106.106c-.514.514-1.22.78-1.941.73l.702-.076a2.48 2.48 0 0 1-2.45-.613L8.363 15zm4.946-1H14v-.691l2.44-2.44a2.509 2.509 0 0 0 0-3.542l-.7-.7A2.494 2.494 0 0 0 14 5.89V2H2v12h5.336l1.178 1.147a2.48 2.48 0 0 0 2.45.613l-.702.076c.72.05 1.427-.216 1.941-.73L13.309 14zm-7.772-2H3v1h3.31l-.255-.249A2.503 2.503 0 0 1 5.537 12zM3 10v1h2.322l.203-1H3zm0-2v1h3.274L7.5 8H3zm10-2H3v1h8.808L13 6zM3 3h10v2H3V3zm5.883 6.923a.496.496 0 0 0-.708.004l-.701.701a.494.494 0 0 0-.005.709l2.44 2.378a.49.49 0 0 0 .49.126c.14.01.282-.041.39-.15l4.238-4.237a.509.509 0 0 0-.001-.713l-.7-.7a.497.497 0 0 0-.714-.001l-3.274 3.275-1.455-1.392z" class="icon-color"/></svg>