<svg xmlns="http://www.w3.org/2000/svg" viewBox="0 0 16 16"><g class="icon-color"><path d="M14.751 7.646L7.854.749a.5.5 0 00-.707 0l-1.41 1.41L6.99 3.411a1.406 1.406 0 011.916 1.308c0 .18-.037.352-.099.51l1.464 1.464c.159-.062.33-.099.51-.099A1.406 1.406 0 119.375 8c0-.229.06-.442.157-.632l-1.4-1.4a1.523 1.523 0 01-.165.072v3.92a1.403 1.403 0 01-.466 2.727 1.407 1.407 0 01-.533-2.706V6.019a1.405 1.405 0 01-.873-1.3c0-.229.06-.442.157-.632L5.03 2.865.249 7.646a.5.5 0 000 .707l6.898 6.898a.5.5 0 00.707 0l6.898-6.898a.5.5 0 00-.001-.707z"/></g></svg>