<svg xmlns="http://www.w3.org/2000/svg" viewBox="0 0 16 16"><path d="M14.819 6.948l-2.122-.606a4.958 4.958 0 0 0-.201-.494l1.07-1.926a.25.25 0 0 0-.042-.298l-1.148-1.148a.25.25 0 0 0-.298-.042l-1.926 1.07a4.958 4.958 0 0 0-.494-.201l-.606-2.122A.25.25 0 0 0 8.811 1H7.189a.249.249 0 0 0-.24.181l-.607 2.123c-.169.06-.334.124-.494.201l-1.926-1.07a.249.249 0 0 0-.298.042L2.477 3.624a.249.249 0 0 0-.042.298l1.07 1.926c-.077.16-.141.325-.201.494l-2.123.606A.25.25 0 0 0 1 7.189v1.623c0 .112.074.21.181.24l2.122.606c.06.169.124.334.201.494l-1.07 1.926a.25.25 0 0 0 .042.298l1.148 1.148a.25.25 0 0 0 .298.042l1.926-1.07c.16.077.325.141.494.201l.606 2.122a.25.25 0 0 0 .241.181h1.623c.112 0 .21-.074.24-.181l.606-2.122c.169-.06.334-.124.494-.201l1.926 1.07a.25.25 0 0 0 .298-.042l1.148-1.148a.25.25 0 0 0 .042-.298l-1.07-1.926c.077-.16.141-.325.201-.494l2.122-.606A.25.25 0 0 0 15 8.811V7.189a.25.25 0 0 0-.181-.241zM8 11a3 3 0 1 1 0-6 3 3 0 0 1 0 6z" class="icon-color"/></svg>