<svg xmlns="http://www.w3.org/2000/svg" viewBox="0 0 16 16"><g class="icon-color"><path d="M10 14H3V2h7v2.5c0 .276.224.5.5.5H13v2.092c.58.207 1 .757 1 1.408V3.914c0-.265-.105-.52-.293-.707l-1.914-1.914C11.605 1.105 11.35 1 11.086 1H2.5c-.276 0-.5.224-.5.5v13c0 .276.224.5.5.5H10v-1zm1-12l2 2h-2V2z"/><path d="M15.5 13H13v2.5c0 .28-.22.5-.5.5h-1c-.28 0-.5-.22-.5-.5V13H8.5c-.28 0-.5-.22-.5-.5v-1c0-.28.22-.5.5-.5H11V8.5c0-.28.22-.5.5-.5h1c.28 0 .5.22.5.5V11h2.5c.28 0 .5.22.5.5v1c0 .28-.22.5-.5.5z"/></g></svg>