<svg xmlns="http://www.w3.org/2000/svg" viewBox="0 0 16 16"><g class="icon-color"><path d="M13.5 1h-11c-.27 0-.5.223-.5.498v13.004c0 .278.224.498.5.498h11c.27 0 .5-.223.5-.498V1.498C14 1.22 13.776 1 13.5 1zM4 14H3V2h1v12zm9 0H5V2h8v12z"/><path d="M10.54 9.19c-.09.027-.162.036-.256.036-.772 0-1.906-2.697-1.906-3.595 0-.33.08-.44.19-.533-.946.11-2.08.457-2.442.898-.08.11-.126.283-.126.503C6 7.9 7.496 11.08 8.55 11.08c.49 0 1.313-.803 1.99-1.89M10.047 5c.976 0 1.953.16 1.953.71 0 1.118-.71 2.473-1.07 2.473-.646 0-1.45-1.796-1.45-2.693 0-.41.158-.49.567-.49"/></g></svg>