<svg xmlns="http://www.w3.org/2000/svg" viewBox="0 0 16 16"><g class="icon-color"><path d="M15.2 10.2L13.4 12l1.8 1.8c.2.2.2.5 0 .7l-.7.7c-.2.2-.5.2-.7 0L12 13.4l-1.8 1.8c-.2.2-.5.2-.7 0l-.7-.7c-.2-.2-.2-.5 0-.7l1.8-1.8-1.8-1.8c-.2-.2-.2-.5 0-.7l.7-.7c.2-.2.5-.2.7 0l1.8 1.8 1.8-1.8c.2-.2.5-.2.7 0l.7.7c.2.2.2.5 0 .7z"/><path d="M7.7 14H5v-3.8c0-.1.1-.2.3-.2h2.4c0-.4.1-.7.3-1H4.5c-.3 0-.5.2-.5.5V14H2V2h2v3.5c0 .3.2.5.5.5h5c.3 0 .5-.2.5-.5V2h.8c.3 0 .5.1.7.3l1.9 2c.4.4.6.9.6 1.4v2h.1c.3 0 .6.1.9.3V5.4c0-.5-.2-1-.6-1.4L12 1.6c-.3-.4-.8-.6-1.3-.6H1.5c-.3 0-.5.2-.5.5v13c0 .3.2.5.5.5H8c-.2-.3-.3-.6-.3-1zM7 2.3c0-.2.1-.3.3-.3h1.5c.1 0 .2.1.2.3v2.5c0 .1-.1.2-.2.2H7.3c-.2 0-.3-.1-.3-.2V2.3z"/></g></svg>