<svg xmlns="http://www.w3.org/2000/svg" viewBox="0 0 16 16"><g class="icon-color"><path d="M15 8v6h-3.236l-.764.382V14H8V8m-1-.5v7c0 .276.224.5.5.5H10v1l1.894-.947c.07-.035.146-.053.224-.053H15.5c.276 0 .5-.224.5-.5v-7c0-.276-.224-.5-.5-.5h-8c-.276 0-.5.224-.5.5z"/><path d="M14.4 4L12 1.6c-.3-.4-.8-.6-1.3-.6H1.5c-.3 0-.5.2-.5.5v13c0 .3.2.5.5.5H6v-1H5v-4h1V9H4.5c-.3 0-.5.2-.5.5V14H2V2h2v3.5c0 .3.2.5.5.5h5c.3 0 .5-.2.5-.5V2h.8c.3 0 .5.1.7.3l1.9 2c.4.4.6.9.6 1.4V6h1v-.6c0-.5-.2-1-.6-1.4zM9 4.8c0 .1-.1.2-.2.2H7.3c-.2 0-.3-.1-.3-.2V2.3c0-.2.1-.3.3-.3h1.5c.1 0 .2.1.2.3v2.5z"/></g></svg>