<svg xmlns="http://www.w3.org/2000/svg" viewBox="0 0 16 16"><g class="icon-color"><path d="M14 3v8H8.723l-.238.143L5 13.234V11H2V3h12M1.6 2a.6.6 0 0 0-.6.6v8.9a.5.5 0 0 0 .5.5H4v3l5-3h5.5a.5.5 0 0 0 .5-.5v-9a.5.5 0 0 0-.5-.5H1.6z"/><path d="M3 8h5v1H3zM3 4h5v1H3zM3 6h5v1H3zM12.938 5.671l-.873.892.207 1.26c.002.018.002.033.002.05 0 .067-.029.127-.099.127a.184.184 0 0 1-.096-.03L11 7.375l-1.079.595a.196.196 0 0 1-.096.03c-.07 0-.101-.06-.101-.126 0-.018.002-.033.005-.05l.207-1.26-.876-.893C9.031 5.638 9 5.596 9 5.55c0-.076.075-.106.135-.116l1.207-.184.541-1.147C10.904 4.055 10.945 4 11 4s.096.055.118.103l.541 1.147 1.207.184c.057.01.134.04.134.116 0 .046-.031.088-.062.121z"/></g></svg>