<svg xmlns="http://www.w3.org/2000/svg" viewBox="0 0 16 16"><g class="icon-color"><path d="M11.823 15.823l-3.396-3.396C8.27 12.27 8.38 12 8.604 12H11V8h2v4h2.397c.223 0 .334.27.177.427l-3.396 3.396c-.098.098-.257.098-.355 0z"/><path d="M13.707 3.207l-1.914-1.914C11.605 1.105 11.35 1 11.086 1H2.5c-.276 0-.5.224-.5.5v13c0 .276.224.5.5.5H9l-1-1H3V2h7v2.5c0 .276.224.5.5.5H13v1l1 1V3.914c0-.265-.105-.52-.293-.707zM11 4V2l2 2h-2z"/><path d="M4 3h4v2H4zM6 6h4v1H6zM6 10h3v1H6zM4 6h1v7H4zM6 12h1v1H6zM6 8h3v1H6z"/></g></svg>