<svg xmlns="http://www.w3.org/2000/svg" viewBox="0 0 16 16"><g class="icon-color"><path d="M10 3h1v1h-1V3zm2 0h1v1h-1V3z"/><path d="M2 14v-4h5.2l.5-1H2V6h12v1.3c.4.1.7.3 1 .5V1.5c0-.3-.2-.5-.5-.5h-13c-.3 0-.5.2-.5.5v13c0 .3.2.5.5.5h6.8c-.2-.3-.4-.6-.6-1H2zM2 2h12v3H2V2z"/><path d="M12.3 14.2c.5 0 .9-.2 1.3-.4l.4.6c-.5.3-1.1.5-1.7.5-1.7 0-3-1.3-3-3h-.7c-.1 0-.2-.1-.1-.2l1-1.8c.1-.1.2-.1.2 0l1 1.8c.1.1 0 .2-.1.2H10c0 1.3 1 2.3 2.3 2.3zM11 10.2l-.4-.6c.5-.4 1-.6 1.7-.6 1.7 0 3 1.3 3 3h.6c.1 0 .2.1.1.2L15 14c-.1.1-.2.1-.2 0l-1-1.8c-.1-.1 0-.2.1-.2h.6c0-1.2-1-2.3-2.3-2.3-.4 0-.9.2-1.2.5z"/></g></svg>