<svg xmlns="http://www.w3.org/2000/svg" viewBox="0 0 16 16"><g class="icon-color" fill-rule="evenodd"><path d="M8.25 14H3V2h7v2.5a.5.5 0 00.5.5H13v2.25l1 1V3.914a.997.997 0 00-.293-.707l-1.914-1.914A1 1 0 0011.086 1H2.5a.5.5 0 00-.5.5v13a.5.5 0 00.5.5h6.75l-1-1zM11 2l2 2h-2V2zm3.124 12.844l-1.445-1.44c-.49.34-1.08.52-1.68.52a2.952 2.952 0 01-2.955-2.96 2.96 2.96 0 115.92 0c0 .595-.18 1.185-.52 1.68l1.445 1.445a.545.545 0 01.155.38.537.537 0 01-.92.375zM11 9c-1.102 0-2 .898-2 2 0 1.102.898 2 2 2 1.102 0 2-.898 2-2 0-1.102-.898-2-2-2z"/></g></svg>