<svg viewBox="0 0 16 16" xmlns="http://www.w3.org/2000/svg"><title>actions-document-view</title><path d="M4.399 14H2V2h12v6.071c.348.119.684.253 1 .408V1.5a.5.5 0 0 0-.5-.5h-13a.5.5 0 0 0-.5.5v13a.5.5 0 0 0 .5.5h3.523a4.432 4.432 0 0 1-.624-1zM3 3h10v2H3V3zm0 3h10v1H3V6zm0 3h3.165a7.645 7.645 0 0 1 2.08-1H3v1zm0 2h1.413c.162-.352.382-.686.647-1H3v1zm0 2h1.11a3.621 3.621 0 0 1 .001-1H3v1zm8.2-4h-.1c-2.8 0-5 1.6-5 3.5S8.2 16 11 16c2.8 0 5-1.6 5-3.5S13.8 9.1 11.2 9zm-.2 6c-2.2 0-4-1.1-4-2.5 0-.9.7-1.6 1.8-2.1-.2.3-.2.7-.2 1.1 0 1.4 1.1 2.5 2.5 2.5s2.5-1.1 2.5-2.5c0-.4-.1-.7-.2-1 1 .5 1.7 1.2 1.7 2C15 13.9 13.2 15 11 15zm.1-5.2c.1 0 .3.1.3.2s-.1.2-.3.2c-.6 0-1.2.5-1.2 1.1 0 .1-.1.2-.3.2-.2 0-.3-.1-.3-.2.1-.8.9-1.5 1.8-1.5z" class="icon-color" fill-rule="evenodd"/></svg>