<svg viewBox="0 0 16 16" xmlns="http://www.w3.org/2000/svg"><title>actions-system-extension-update</title><path d="M7.5 5.97l3.332-1.19c.26-.094.546.042.64.302.092.26-.044.546-.304.64L8 6.85v3.705c0 .276-.224.5-.5.5s-.5-.224-.5-.5V6.852l-3.168-1.13c-.26-.094-.396-.38-.303-.64.092-.26.378-.396.638-.303L7.5 5.97zm.5 7.945l-.03.01c-.264.112-.675.11-.933 0l-5.57-2.32c-.265-.11-.467-.42-.467-.695V4.102c0-.275.21-.588.468-.695l5.57-2.322c.265-.11.675-.107.933 0l5.563 2.322c.265.11.467.42.467.695V8h-1V4.252L7.504 2 2 4.252v6.507L7.504 13 8 12.798v1.117zm2.96-3.762l-.388-.644c.48-.33 1.062-.52 1.688-.52 1.66 0 3.005 1.344 3.006 3.003h.62c.105 0 .17.12.113.214l-.983 1.828c-.053.087-.176.087-.228 0l-1.02-1.828c-.057-.093.007-.214.113-.214h.63c0-1.244-1.008-2.252-2.253-2.252-.484 0-.933.153-1.3.413zm1.306 4.096c.485 0 .916-.154 1.283-.414l.387.645c-.48.328-1.063.52-1.69.52-1.657 0-3.003-1.345-3.004-3.004H8.63c-.106 0-.17-.12-.115-.213l.977-1.828c.053-.088.175-.088.228 0l.99 1.828c.055.093-.01.213-.115.213h-.6c0 1.244 1.027 2.253 2.27 2.253z" class="icon-color" fill-rule="evenodd"/></svg>