<svg xmlns="http://www.w3.org/2000/svg" viewBox="0 0 16 16"><path d="M14.82 6.948l-2.123-.606c-.06-.17-.124-.334-.2-.494l1.07-1.926c.053-.098.036-.22-.043-.298l-1.148-1.148c-.08-.08-.2-.096-.298-.042l-1.926 1.07c-.16-.077-.325-.14-.494-.2L9.052 1.18c-.03-.106-.13-.18-.24-.18H7.188c-.113 0-.21.074-.24.18L6.34 3.305c-.17.06-.334.124-.494.2l-1.926-1.07c-.097-.054-.22-.036-.298.043L2.477 3.624c-.08.08-.097.2-.042.298l1.07 1.926c-.077.16-.14.325-.2.494l-2.124.606c-.106.03-.18.13-.18.24v1.624c0 .112.074.21.18.24l2.123.606c.06.17.124.334.2.494l-1.07 1.926c-.053.098-.036.22.043.298l1.148 1.148c.08.08.2.096.298.042l1.926-1.07c.16.077.325.14.494.2l.606 2.123c.03.106.13.18.24.18h1.624c.112 0 .21-.074.24-.18l.606-2.123c.17-.06.334-.124.494-.2l1.926 1.07c.098.053.22.036.298-.043l1.148-1.148c.08-.08.096-.2.042-.298l-1.07-1.926c.077-.16.14-.325.2-.494l2.123-.606c.106-.03.18-.13.18-.24V7.188c0-.113-.074-.21-.18-.242zM8 11c-1.657 0-3-1.343-3-3s1.343-3 3-3 3 1.343 3 3-1.343 3-3 3z" class="icon-color"/></svg>