<svg xmlns="http://www.w3.org/2000/svg" viewBox="0 0 16 16"><path d="M14.823 7.823l-2.396-2.396C12.27 5.27 12 5.38 12 5.604V7H9V4h1.396c.223 0 .334-.27.177-.427L8.177 1.177c-.098-.098-.256-.098-.354 0L5.427 3.573C5.27 3.73 5.38 4 5.604 4H7v3H4V5.604c0-.223-.27-.334-.427-.177L1.177 7.823c-.098.098-.098.256 0 .354l2.396 2.396c.158.158.427.046.427-.177V9h3v3H5.604c-.223 0-.334.27-.177.427l2.396 2.396c.098.098.256.098.354 0l2.396-2.396c.158-.158.046-.427-.177-.427H9V9h3v1.396c0 .223.27.334.427.177l2.396-2.396c.098-.098.098-.256 0-.354z" class="icon-color"/></svg>