<svg viewBox="0 0 16 16" xmlns="http://www.w3.org/2000/svg"><title>actions-online-media-add</title><path d="M12 6.5c0-.828-.672-1.5-1.5-1.5-.268 0-.524.07-.75.2L9 5.634l-.535-.68C7.993 4.354 7.277 4 6.5 4c-1.26 0-2.318.937-2.48 2.173l-.092.718-.71.137C2.515 7.16 2 7.777 2 8.5c0 .828.672 1.5 1.5 1.5H13c.552 0 1-.448 1-1s-.448-1-1-1h-.026l-1.254.03.25-1.23c.02-.097.03-.197.03-.3zm.95.5c.444 0 .88.18.88.18C14.52 7.493 15 8.19 15 9c0 1.105-.895 2-2 2H3.5C2.12 11 1 9.88 1 8.5c0-1.22.874-2.236 2.03-2.456C3.252 4.327 4.72 3 6.5 3c1.115 0 2.11.522 2.75 1.335.368-.213.795-.335 1.25-.335 1.21 0 2.22.86 2.45 2 0 0 .117.545 0 1z" class="icon-color" fill-rule="evenodd"/></svg>