<svg xmlns="http://www.w3.org/2000/svg" viewBox="0 0 16 16"><g class="icon-color"><path d="M13.7 3.8l-1.4-1.4c-.8-.8-2-.8-2.8 0L5.9 5.9c-.8.8-.8 2 0 2.8l1.2 1.2.9-.8L6.9 8c-.4-.4-.4-1 0-1.4l3.2-3.2c.4-.4 1-.4 1.4 0l1.1 1.1c.4.4.4 1 0 1.4l-1.3 1.3c.2.4.4.9.4 1.4l2-2c.7-.8.7-2.1 0-2.8z"/><path d="M8.9 6.1l-.9.8L9.1 8c.4.4.4 1 0 1.4l-3.2 3.2c-.4.4-1 .4-1.4 0l-1.1-1.1c-.4-.4-.4-1 0-1.4l1.3-1.3c-.2-.4-.4-.9-.4-1.4l-2 2c-.8.8-.8 2 0 2.8l1.4 1.4c.8.8 2 .8 2.8 0l3.5-3.5c.8-.8.8-2 0-2.8L8.9 6.1z"/></g></svg>