<svg xmlns="http://www.w3.org/2000/svg" viewBox="0 0 16 16"><g class="icon-color"><path d="M15 10v4h-3.2l-.8.4V14H8v-4m-1-.5v5c0 .276.224.5.5.5H10v1l1.9-.9c.1-.1.1-.1.2-.1h3.4c.276 0 .5-.224.5-.5v-5c0-.276-.224-.5-.5-.5h-8c-.276 0-.5.224-.5.5z"/><path d="M12.25 4.025C11.44 2.808 10.06 2 8.5 2H5.723C5.376 1.405 4.738 1 4 1c-1.105 0-2 .895-2 2 0 .738.405 1.376 1 1.723v6.555c-.595.346-1 .984-1 1.722 0 1.105.895 2 2 2s2-.895 2-2c0-.738-.405-1.376-1-1.723V4.723c.3-.175.548-.423.723-.723H8.5c.745 0 1.407.334 1.866.853-.23.324-.366.72-.366 1.147 0 1.105.895 2 2 2s2-.895 2-2c0-1.02-.766-1.85-1.75-1.975zM4 14c-.55 0-1-.45-1-1s.45-1 1-1 1 .45 1 1-.45 1-1 1zM4 4c-.55 0-1-.45-1-1s.45-1 1-1 1 .45 1 1-.45 1-1 1zm8 3c-.55 0-1-.45-1-1s.45-1 1-1 1 .45 1 1-.45 1-1 1z"/></g></svg>