<svg xmlns="http://www.w3.org/2000/svg" viewBox="0 0 16 16"><g class="icon-color"><path d="M14 10v2h-2v-1.55c0-.195-.216-.315-.383-.21L8.34 12.287c-.158.098-.158.326 0 .424l3.277 2.05c.167.103.383-.017.383-.213V13h3v-3h-1zM6 13h1L5.5 9h-1L3 13h1l.188-.5h1.625L6 13zm-1.437-1.5L5 10.333l.438 1.167h-.875zM13 5.775c0 .193-.045.366-.137.518-.09.152-.216.278-.376.38-.183.117-.386.202-.607.252-.22.05-.5.075-.84.075H9V3h1.815c.377 0 .653.01.828.032.175.02.348.07.52.142.177.077.31.18.397.31.087.13.13.28.13.445 0 .192-.06.363-.18.51-.118.148-.287.264-.504.346v.02c.305.053.548.16.726.323.18.163.268.378.268.645zM11.455 4.13c0-.065-.02-.132-.058-.198-.04-.066-.108-.116-.206-.148-.087-.028-.196-.045-.327-.047-.13-.003-.863-.004-.863-.004v.847s.74-.003.875-.008c.133-.005.24-.023.316-.054.11-.04.18-.095.215-.16.034-.065.05-.14.05-.227zm.292 1.63c0-.128-.028-.226-.085-.295-.058-.07-.156-.12-.293-.154-.095-.022-.225-.035-.39-.037-.165-.002-.98-.003-.98-.003v.997s.868 0 1.014-.003c.146-.002.28-.025.404-.07.124-.045.21-.104.257-.178.05-.075.072-.16.072-.257zM7.66 3.288l-3.277-2.05C4.216 1.136 4 1.256 4 1.452V3H1v3h1V4h2v1.55c0 .195.216.315.383.21L7.66 3.713c.157-.098.157-.326 0-.424z"/><path d="M14.5 1h-7c-.276 0-.5.224-.5.5v.196l1 .625V2h6v6H9v-.5c0-.276-.224-.5-.5-.5H8V4.68l-1 .624V7H1.5c-.276 0-.5.224-.5.5v7c0 .276.224.5.5.5h7c.276 0 .5-.224.5-.5v-.196l-1-.625V14H2V8h6v3.32l1-.624V9h5.5c.276 0 .5-.224.5-.5v-7c0-.276-.224-.5-.5-.5z"/></g></svg>