<svg viewBox="0 0 16 16" xmlns="http://www.w3.org/2000/svg"><title>actions-unmarkstate</title><path d="M1 1.498C1 1.223 1.22 1 1.498 1h13.004c.275 0 .498.22.498.498v13.004c0 .275-.22.498-.498.498H1.498A.496.496 0 0 1 1 14.502V1.498zM2 2h12v12H2V2zm4.635 9.325a.503.503 0 0 0 .706-.002l4.949-4.949a.495.495 0 0 0-.003-.71l-.7-.701a.503.503 0 0 0-.705-.01L7.334 8.502a.49.49 0 0 1-.697-.004l-1.421-1.42a.493.493 0 0 0-.707.006l-.7.7a.496.496 0 0 0-.006.71l2.832 2.831z" class="icon-color" fill-rule="evenodd"/></svg>