<svg xmlns="http://www.w3.org/2000/svg" viewBox="0 0 16 16"><path fill="#FFC857" d="M5.323 5H1C.11 5-.337 6.077.293 6.707l3.534 3.534-1.755 4.39c-.327.815.484 1.625 1.3 1.3L8 14.076l4.63 1.85c.815.328 1.625-.483 1.3-1.3l-1.756-4.387 3.534-3.534C16.338 6.076 15.89 5 15 5h-4.323L8.927.63c-.334-.84-1.52-.84-1.856 0L5.324 5z"/><path opacity=".1" d="M8 1l2 5h5l-4 4 2 5-5-2-5 2 2-5-4-4h5l2-5M5.323 5H1C.11 5-.337 6.077.293 6.707l3.534 3.534-1.755 4.39c-.327.815.484 1.625 1.3 1.3L8 14.076l4.63 1.85c.815.328 1.625-.483 1.3-1.3l-1.756-4.387 3.534-3.534C16.338 6.076 15.89 5 15 5h-4.323L8.927.63c-.334-.84-1.52-.84-1.856 0L5.324 5z"/></svg>