<svg viewBox="0 0 16 16" xmlns="http://www.w3.org/2000/svg"><title>actions-insert-reference-v2</title><path d="M13 1.501A.504.504 0 0 0 12.5 1h-11c-.271 0-.5.224-.5.501V12.5c0 .271.224.501.5.501h5.066l.096-1H2V2h10v3.5l1 .85V1.5zM3 6v1h7.004l.001-1H3zm0 3h4.991c.492-.68.992-1 .992-1H3v1zm0 1v1h3.876c.125-.39.242-.721.447-1H3zm0-7h8v2H3V3zm9.37 9.57c-.07.06-.15.07-.23.04-.07-.04-.14-.11-.14-.2v-1.29s-2.69.192-4.03 3.88C7.97 8.534 12 9.12 12 9.12V7.83c0-.08.07-.16.14-.19.08-.03.17-.02.23.03l2.56 2.28c.04.04.07.09.07.15s-.03.12-.07.16l-2.56 2.31z" class="icon-color"/></svg>