<svg viewBox="0 0 16 16" xmlns="http://www.w3.org/2000/svg"><title>actions-document-synchronize-v3</title><path d="M6.768 15H1.5a.5.5 0 0 1-.5-.5v-13a.5.5 0 0 1 .5-.5h13a.5.5 0 0 1 .5.5v5.47a5.779 5.779 0 0 0-1-.831V2H2v12h3.975c.227.362.493.698.793 1zm-1.572-3H3v1h2.476a5.707 5.707 0 0 1-.28-1zm-.018-2H3v1h2.1a5.87 5.87 0 0 1 .078-1zm.735-2H3v1h2.44c.125-.35.285-.685.473-1zm2.01-2H3v1h3.671a5.775 5.775 0 0 1 1.251-1zM3 3h10v2H3V3zm8 9a1 1 0 1 0 0-2 1 1 0 0 0 0 2zM9.285 8.55l-.517-.86a4 4 0 0 1 6.248 3.307h.825c.14 0 .226.161.151.285l-1.307 2.433a.175.175 0 0 1-.304 0l-1.357-2.433c-.075-.124.011-.284.151-.284h.84a3 3 0 0 0-4.73-2.449zM11.024 14c.645 0 1.218-.203 1.707-.55l.517.86A4 4 0 0 1 7 11.002h-.817c-.14 0-.226-.161-.152-.285l1.3-2.433a.175.175 0 0 1 .304 0l1.316 2.433c.074.124-.012.284-.152.284H8C8.001 12.658 9.368 14 11.024 14z" class="icon-color"/></svg>