<svg xmlns="http://www.w3.org/2000/svg" viewBox="0 0 16 16"><g class="icon-color"><path d="M7 14H2V2h12v5l1 1V1.5c0-.276-.224-.5-.5-.5h-13c-.276 0-.5.224-.5.5v13c0 .276.224.5.5.5H8l-1-1z"/><path d="M3 3h10v2H3zM3 10h3l-1 1H3M3 12h2l1 1H3M3 8h5L7 9H3M3 6h7L9 7H3M14 11h-2V9h-1v2H9v1h2v2h1v-2h2M15.823 11.677l-1.396 1.396c-.158.158-.427.046-.427-.177v-2.793c0-.223.27-.334.427-.177l1.396 1.396c.098.1.098.257 0 .355zM7.177 11.323l1.396-1.396C8.73 9.77 9 9.88 9 10.104v2.793c0 .223-.27.334-.427.177l-1.396-1.396c-.098-.1-.098-.257 0-.355zM11.677 7.177l1.396 1.396c.158.158.046.427-.177.427h-2.793c-.222 0-.334-.27-.176-.427l1.396-1.396c.098-.098.256-.098.354 0zM11.327 15.827l-1.4-1.4C9.77 14.27 9.88 14 10.104 14h2.856c.225 0 .336.274.173.43l-1.456 1.4c-.098.094-.254.093-.35-.003z"/></g></svg>