<svg xmlns="http://www.w3.org/2000/svg" viewBox="0 0 16 16"><g class="icon-color"><path d="M15.55 8H14c0-3.31-2.69-6-6-6-1.12 0-2.16.31-3.06.84l.61.97c.72-.42 1.55-.68 2.45-.68 2.68 0 4.87 2.18 4.87 4.87h-1.42c-.195 0-.315.216-.21.383l2.048 3.278c.098.158.326.158.424 0l2.05-3.277c.103-.167-.017-.383-.213-.383zM10.37 12.23c-.7.4-1.5.64-2.37.64-2.68 0-4.87-2.18-4.87-4.87h1.42c.195 0 .315-.216.21-.383L2.713 4.34c-.098-.158-.326-.158-.424 0L.238 7.616C.136 7.784.256 8 .452 8H2c0 3.31 2.69 6 6 6 1.09 0 2.1-.29 2.98-.8l-.61-.97z"/></g></svg>