<svg xmlns="http://www.w3.org/2000/svg" viewBox="0 0 16 16"><g class="icon-color"><path d="M14 3v8H8.723l-.238.143L5 13.233V11H2V3h12M1.6 2c-.33 0-.6.27-.6.6v8.9c0 .276.224.5.5.5H4v3l5-3h5.5c.276 0 .5-.224.5-.5v-9c0-.276-.224-.5-.5-.5H1.6z"/><path d="M3 8h5v1H3zM3 4h5v1H3zM3 6h5v1H3zM12.938 5.67l-.873.893.207 1.26c.002.018.002.033.002.05 0 .067-.03.127-.1.127-.033 0-.066-.012-.095-.03L11 7.375l-1.08.595c-.03.018-.062.03-.095.03-.07 0-.1-.06-.1-.126 0-.018 0-.033.004-.05l.206-1.26-.876-.893C9.03 5.64 9 5.597 9 5.55c0-.076.075-.106.135-.116l1.207-.184.54-1.147C10.905 4.055 10.946 4 11 4s.096.055.118.103l.54 1.147 1.208.184c.057.01.134.04.134.116 0 .046-.03.088-.062.12z"/></g></svg>