<svg viewBox="0 0 16 16" xmlns="http://www.w3.org/2000/svg"><title>actions-view</title><path d="M8.07 3C4.11 3 1 5.286 1 8s2.97 5 7 5c3.89 0 7-2.286 7-4.93C15 5.285 11.89 3.142 8.212 3h-.14zm-.025 1.127c.14 0 .423.14.423.282 0 .14-.14.28-.423.28-.845 0-1.69.705-1.69 1.55 0 .142-.14.283-.423.283-.282 0-.423-.14-.423-.282.14-1.126 1.267-2.113 2.535-2.113zM2 8.03c0-1.3 1.017-2.592 2.647-3.313-.296.432-.296 1.01-.296 1.587 0 2.02 1.63 3.606 3.704 3.606 2.074 0 3.704-1.587 3.704-3.606 0-.577-.148-1.01-.296-1.443C12.942 5.583 14 6.876 14 8.03c-.148 2.02-2.84 3.923-6 3.97-3.36-.047-6-1.95-6-3.97z" class="icon-color" fill-rule="evenodd"/></svg>