<svg viewBox="0 0 16 16" xmlns="http://www.w3.org/2000/svg"><title>actions-edit-restore-v2</title><path d="M6 5H5v6c0-1.226.37-2.364 1-3.314V5zm3 .35V5H8v.81c.316-.184.65-.338 1-.46zM5.81 14H3.25c-.138 0-.25-.112-.25-.25V4h8v1c.342 0 .674.035 1 .09V4h.5c.276 0 .5-.224.5-.5s-.224-.5-.5-.5H10v-.75C10 1.56 9.44 1 8.75 1h-3.5C4.56 1 4 1.56 4 2.25V3H1.5c-.276 0-.5.224-.5.5s.224.5.5.5H2v9.75c0 .69.56 1.25 1.25 1.25h3.287c-.275-.307-.52-.64-.728-1zM5 2.25c0-.138.112-.25.25-.25h3.5c.138 0 .25.112.25.25V3H5v-.75zM11.024 14c.645 0 1.218-.203 1.707-.55l.518.86c-.64.435-1.415.69-2.248.69-2.208 0-4-1.79-4-3.998h-.817c-.14 0-.226-.16-.152-.284l1.3-2.433c.07-.117.234-.117.305 0l1.316 2.433c.075.124-.01.284-.15.284H8C8 12.658 9.368 14 11.024 14zm-1.74-5.45l-.516-.86c.64-.435 1.414-.69 2.248-.69 2.208 0 4 1.79 4 3.998h.825c.14 0 .227.16.152.284l-1.307 2.433c-.07.117-.234.117-.304 0l-1.356-2.433c-.075-.124.01-.284.15-.284h.842c0-1.656-1.344-2.998-3-2.998-.645 0-1.242.203-1.73.55z" class="icon-color"/></svg>