<svg xmlns="http://www.w3.org/2000/svg" viewBox="0 0 16 16"><g class="icon-color"><path d="M5.58 10.356l-1.22-1.88L4 9H1.5C.672 9 0 9.67 0 10.5V12c0 1.105.895 2 2 2 1.573 0 2.848-1.214 2.975-2.754l.68-.773-.074-.117zM3.75 11c0 .965-.785 1.75-1.75 1.75-.414 0-.75-.336-.75-.75v-1.5c0-.138.112-.25.25-.25h2.25V11z"/><path d="M15.777 6.978L6 6.084 4.975 4.756C4.848 3.216 3.573 2.002 2 2.002c-1.105 0-2 .895-2 2v1.5c0 .828.672 1.5 1.5 1.5H4l2 3.083 9.775-1.06c.128-.013.225-.12.225-.25v-1.55c0-.126-.096-.233-.223-.247zM3.75 5.752H1.5c-.138 0-.25-.112-.25-.25v-1.5c0-.414.336-.75.75-.75.965 0 1.75.785 1.75 1.75v.75zM7 9c-.552 0-1-.448-1-1s.448-1 1-1 1 .448 1 1-.448 1-1 1z"/></g></svg>