<svg viewBox="0 0 16 16" xmlns="http://www.w3.org/2000/svg"><title>actions-insert-reference-v2</title><path d="M13 1.5c0-.27-.224-.5-.5-.5h-11c-.27 0-.5.224-.5.5v11c0 .27.224.5.5.5h5.066l.096-1H2V2h10v3.5l1 .85V1.5zM3 6v1h7.004V6H3zm0 3h4.99c.493-.68.993-1 .993-1H3v1zm0 1v1h3.876c.125-.39.242-.72.447-1H3zm0-7h8v2H3V3zm9.37 9.57c-.07.06-.15.07-.23.04-.07-.04-.14-.11-.14-.2v-1.29s-2.69.192-4.03 3.88C7.97 8.534 12 9.12 12 9.12V7.83c0-.08.07-.16.14-.19.08-.03.17-.02.23.03l2.56 2.28c.04.04.07.09.07.15s-.03.12-.07.16l-2.56 2.31z" class="icon-color"/></svg>