<svg xmlns="http://www.w3.org/2000/svg" viewBox="0 0 16 16"><path fill="#FFE6BB" d="M8 1l7 5v9H1V6l7-5z"/><path fill="#E8A33D" d="M8 2.2l6 4.3V14H2V6.5l6-4.3M8 1L1 6v9h14V6L8 1z"/><path fill="#FFF" d="M3 3h10v10H3z"/><path fill="#666" d="M12 4v8H4V4h8m1-1H3v10h10V3z"/><path fill="#B9B9B9" d="M5 7h6v1H5zM5 5h6v1H5zM5 9h6v1H5z"/><path fill="#FFC857" d="M15 6v9H1V6l7 5 7-5z"/><path fill="#E8A33D" d="M8 11L1 6v9h14V6l-7 5zM2 7.9l3.5 2.5L2 14V7.9zM3.4 14l2.9-2.9L8 12.2 9.6 11l2.9 2.9H3.4zm7.1-3.5L14 7.9V14l-3.5-3.5z"/></svg>