<svg xmlns="http://www.w3.org/2000/svg" viewBox="0 0 16 16"><path fill="#FFC857" d="M13.5 4.5c0 3-2.5 4-2.5 7.5H5c0-3.5-2.5-4.5-2.5-7.5S5 0 8 0s5.5 1.5 5.5 4.5z"/><path fill="#E8A33D" d="M8 1c1.1 0 4.5.3 4.5 3.5 0 1.2-.5 2-1 3-.6 1-1.2 2-1.4 3.5H5.9c-.2-1.5-.8-2.6-1.4-3.5-.6-1-1-1.8-1-3C3.5 1.3 6.9 1 8 1m0-1C5 0 2.5 1.5 2.5 4.5S5 8.5 5 12h6c0-3.5 2.5-4.5 2.5-7.5S11 0 8 0z"/><path fill="#FFC857" d="M8.5 13h-1c-.5 0-1-.4-1-1V6c0-.5.4-1 1-1h1c.5 0 1 .4 1 1v6c0 .6-.4 1-1 1z"/><path fill="#E8A33D" d="M8.5 5.5c.3 0 .5.2.5.5v6c0 .3-.2.5-.5.5h-1c-.3 0-.5-.2-.5-.5V6c0-.3.2-.5.5-.5h1m0-.5h-1c-.6 0-1 .4-1 1v6c0 .6.4 1 1 1h1c.6 0 1-.4 1-1V6c0-.6-.4-1-1-1z"/><path fill="#AAA" d="M10 16H6c-.6 0-1-.4-1-1v-3c0-.6.4-1 1-1h4c.6 0 1 .4 1 1v3c0 .6-.4 1-1 1z"/><path fill="#666" d="M10 12v3H6v-3h4m0-1H6c-.6 0-1 .4-1 1v3c0 .6.4 1 1 1h4c.6 0 1-.4 1-1v-3c0-.6-.4-1-1-1z"/><path fill="#666" d="M5 13h6v1H5z"/></svg>