<svg xmlns="http://www.w3.org/2000/svg" viewBox="0 0 16 16"><path fill="#323232" d="M8 1C4.1 1 1 4.1 1 8s3.1 7 7 7 7-3.1 7-7-3.1-7-7-7zm0 9c-1.1 0-2-.9-2-2s.9-2 2-2 2 .9 2 2-.9 2-2 2z"/><g opacity=".15" fill="#FFF"><path d="M9.9 7.5c.1.2.1.3.1.5 0 1.1-.9 2-2 2-.2 0-.3 0-.5-.1l3.1 4.5c1.7-.7 3.1-2.1 3.8-3.8L9.9 7.5zM6 8c0-1.1.9-2 2-2 .2 0 .3 0 .5.1L5.4 1.5c-1.8.7-3.2 2.1-3.9 3.9L6 8.5V8z"/></g><path fill="#1A1A1A" d="M8 2c3.3 0 6 2.7 6 6s-2.7 6-6 6-6-2.7-6-6 2.7-6 6-6m0-1C4.1 1 1 4.1 1 8s3.1 7 7 7 7-3.1 7-7-3.1-7-7-7z"/><path fill="#1E1E1E" d="M8 7c.6 0 1 .4 1 1s-.4 1-1 1-1-.4-1-1 .4-1 1-1m0-1c-1.1 0-2 .9-2 2s.9 2 2 2 2-.9 2-2-.9-2-2-2z"/></svg>