<svg xmlns="http://www.w3.org/2000/svg" viewBox="0 0 16 16"><path fill="#59F" d="M1 1v12l4 2 5-2 5 2V3l-5-2-5 2z"/><path fill="#79A548" d="M1 1v8l4 2 5-2 5 2V3l-5-2-5 2z"/><path fill="#EFEFEF" d="M15 9.5l-4.3-1.7-4.1-5.4L10 1l5 2z"/><path fill="#CECECE" d="M15 8.5L11.3 7 7.6 2 10 1l5 2z"/><path fill="#FFC857" d="M10 9.5l-5 2v-2l5-2zM1 9.5l4 2v-2l-4-2zM10 9.5l5 2v-2l-5-2z"/><path fill="#FFC857" d="M12.9 10.7L10 9.5 5 3l1.6-.6z"/><path opacity=".15" d="M10 13l-5 2V3l5-2z"/><path opacity=".3" d="M10 2.1l4 1.6v9.8L10.4 12l-.4-.1-.4.1L5 13.9l-3-1.5V2.6l2.6 1.3.4.2.4-.2L10 2.1M10 1L5 3 1 1v12l4 2 5-2 5 2V3l-5-2z"/></svg>