<svg xmlns="http://www.w3.org/2000/svg" viewBox="0 0 16 16"><path fill="#B9B9B9" d="M2 6h13v9H2z"/><path fill="#94604C" d="M10 9h3v5h-3z"/><path opacity=".2" d="M10 9v5h.5V9.5h2V14h.5V9z"/><path opacity=".15" d="M14 7v7H3V7h11m1-1H2v9h13V6z"/><path fill="#515151" d="M1 14h15v1H1z"/><path fill="#8C8C8C" d="M15.5 7.5h-14L1 7h15z"/><path fill="#C83C3C" d="M16 7H1l1-5h13z"/><path fill="#FFF" d="M3 7H2l.9-5h.8zM5 7H4l.6-5h.9zM7 7H6l.3-5h.9zM9 7H8l.1-5h.8zM11 7h-1l-.2-5h.9zM13 7h-1l-.5-5h.9zM15 7h-1l-.7-5h.8z"/><path opacity=".2" d="M2.7 3h12.5L15 2H2l-.2 1z"/><g><path fill="#59F" d="M4 9h5v4H4z"/><path fill="#515151" d="M8.5 9.5v3h-4v-3h4M9 9H4v4h5V9z"/><path fill="#FFF" d="M4.5 9.5h4v1h-4z" opacity=".2"/></g></svg>