<svg xmlns="http://www.w3.org/2000/svg" viewBox="0 0 16 16"><path d="M1 1h14v14H1V1z" fill="#fff"/><path d="M1 1v14h14V1H1zm1 1h12v12H2V2z" fill="#b9b9b9"/><path fill="#8c8c8c" d="M3 3h10v1H3z"/><path fill="#b9b9b9" d="M3 5h10v1H3z"/><g transform="translate(-37.5)"><path d="M44.5 7h6v6h-6V7z" fill="#59f"/><path d="M48.5 12h-3l.75-1 .75-1 .75 1z" fill="#fff" stroke="#faa" stroke-width="0"/><path d="M49.5 12h-2.667l.667-.667.667-.666.666.666z" fill="#fff" stroke="#faa" stroke-width="0"/><ellipse ry=".5" rx=".5" cx="49" cy="9.5" fill="#fff" stroke="#faa" stroke-width="0"/></g><path fill="#b9b9b9" d="M3 7h3v1H3zM3 9h3v1H3zM3 11h3v1H3z"/></svg>