<svg width="600" xmlns="http://www.w3.org/2000/svg" xmlns:xlink="http://www.w3.org/1999/xlink" height="400"><path fill="#090" d="M0 0h600v400H0z"/><path fill="#bf0000" d="M0 0h400v400H0z"/><path d="M0 0h200v400H0z"/><g stroke-width=".5" stroke="#bd6b00" fill-rule="evenodd" fill="#fff"><path d="M319.5 225.84h8.354c.03 3.158 1.881 6.55 4.48 8.494h-16.008c2.505-2.27 3.19-4.963 3.174-8.494z"/><path d="M266.71 178.53l4.574 5.04 56.934.093 4.668-5.04-14.56-.186-7.094-4.947-22.868-.093-6.627 5.133H266.71z" stroke="none"/><path d="M290.02 172.74l19.66-.02c2.662-1.408 3.492-5.902 3.48-8.416-.038-7.43-5.234-10.99-10.448-11.18-.78-.04-1.688-.648-1.895-1.36-.514-1.613-.38-2.64-.944-2.584-.5-.007-.353.94-.8 2.453-.244.752-1.09 1.494-1.933 1.537-6.49.324-10.676 5.062-10.513 11.134.11 4.015.577 6.413 3.393 8.437z"/><path d="M257.66 242.83h84.47l-7.562-6.16H265.22l-7.56 6.16z" stroke="none"/><path d="M296.39 219.69l1.54 4.62h3.5l-2.8-4.62h-2.24zm-1.96 4.62l.887 4.573 4.106.046-1.493-4.622h-3.5zm6.953.046l2.847 4.527h5.834l-4.573-4.575-4.106.048zm-34.44 10.36c3.095-2.878 5.07-5.335 5.086-8.866h7.56c.014 1.976.73 3.157 1.82 3.08l7.653-.047-.046-4.527h-5.554v-24.688c-.203-8.726 10.608-13.813 15.027-13.767l-26.275-.045v-.793h55.255l.047.793-26.647.046c7.902.017 15.524 7.5 15.587 13.816v7h-1.028l-.047-6.906c0-6.908-8.7-13.363-15.68-13.16-6.038.172-15.4 5.926-15.308 13.114v2.146l14.327.094-.14 2.472 2.25 1.436 4.486 1.43-.065 3.71 3.213.947.028 3.705 3.855 1.654v3.835l2.444 1.507-.112 3.895 3.314 2.333h-7.84l4.9 5.46h-7.234l-3.594-5.46h-4.76l2.147 5.413-5.085-.046-1.215-5.367h-6.206l.045 5.786H266.94zm22.168-14.98v4.572h5.32l-1.074-4.573h-4.245z"/><path fill="none" d="M289.39 211.66h3.313v7.607h-3.313z"/><path d="M284.71 219.8h3.234l-.02-5.597c-.042-2.433 2.142-4.885 3.187-4.967 1.16-.044 2.868 2.297 2.925 4.776l.047 5.806 3.43-.007V205.4l-12.802.068V219.8zM310.3 223.14h4.013v3.127H310.3zM307.92 217.77h4.013v3.127h-4.013zM304.05 212.4h4.013v3.127h-4.013zM300.74 207.88h4.013v3.127h-4.013z" fill="none"/><path d="M298.08 219.82l4.106.14 7.327 6.487v-3.827l-2.473-1.773v-3.034l-3.594-2.052v-3.267l-3.5-1.166v-4.434l-1.774-1.447-.092 14.374z" fill="none"/><path d="M315.43 210.35h.98v7.047h-.98z"/><g id="a"><path d="M257.32 186.53c-1.234-1.982-2.712 2.75-7.788 6.27-2.363 1.61-4.01 5.894-4.025 8.713-.077 1.937.216 3.868 0 5.74-.137 1.187-1.372 3.817-.527 4.49 2.234 1.66 5.126 5.43 6.467 6.73 1.16 1.018 2.165-5.247 3.036-8.05.933-3.005.515-6.596 3.102-9.372 1.834-1.874 6.46-3.718 5.94-4.553l-6.205-9.967z"/><path d="M257.06 201.88c-.385-.886-.958-1.802-1.656-2.594-.7-.792-1.525-1.457-2.438-1.78-.88-.326-1.78-.752-2.406-1.532-.313-.39-.584-.882-.72-1.47-.123-.543-.122-1.21-.03-1.968-.11.08-.168.172-.28.25-2.364 1.608-4.017 5.9-4.032 8.72-.032.778-.032 1.538 0 2.31.175.487.343.957.593 1.25.327.385.715.638 1.126.814.824.352 1.775.425 2.657.75.912.324 1.85 1.058 2.656 1.938.766.838 1.356 1.8 1.75 2.656.065-.243.153-.604.218-.813.845-2.72.697-5.888 2.562-8.53z" fill="#bf0000"/><path d="M249.82 192.39c-.484 3.356 1.385 4.473 3.148 5.123 1.825.648 3.322 2.606 4.093 4.378M245.3 203.44c.77 2.893 2.798 2.53 4.56 3.18 1.827.65 3.746 2.958 4.517 4.73" fill="none"/><path d="M255.61 184.48l.925-.594 17.752 29.898-.924.594-17.753-29.898z"/><path d="M257.52 183.29a2.046 2.046 0 1 1-4.092 0 2.046 2.046 0 1 1 4.092 0zM272.7 159.27h7.194v1.65H272.7zM272.7 162.4h7.194v13.784H272.7zM272.26 157.39l7.98.047c.312-2.706-2.39-5.63-3.966-5.6-1.56.076-4.076 2.956-4.014 5.553z"/><path stroke="none" d="M292.62 155.76c-1.52.64-2.688 2.377-3.406 4.375-.72 1.998-.992 4.267-.656 6.094v.03c.127.63.3 1.083.5 1.406s.422.514.687.563c.265.048.514-.094.656-.314.144-.22.213-.51.19-.844-.145-1.878-.136-3.732.31-5.406.45-1.674 1.34-3.164 2.97-4.375.295-.215.464-.462.5-.718.036-.255-.1-.474-.28-.625-.365-.3-.94-.407-1.47-.187zm.156.438c.37-.154.842-.064 1.03.093.096.08.107.134.095.22-.01.086-.076.234-.31.406-1.714 1.272-2.658 2.872-3.126 4.625s-.46 3.66-.313 5.564c.02.257-.054.455-.124.562s-.107.14-.187.125c-.082-.014-.25-.116-.408-.374s-.317-.656-.437-1.25c-.315-1.714-.037-3.947.656-5.875.695-1.926 1.804-3.537 3.126-4.093z" fill="#bd6b00"/><path stroke="none" d="M295.19 157.73c-1.52.64-2.5 2.292-3.03 4.188-.53 1.895-.615 4.065-.282 5.874.26 1.284.934 1.962 1.593 2.063.33.05.65-.08.845-.344.196-.263.26-.618.156-1.06-.37-1.5-.514-3.367-.25-5.064s.942-3.21 2.22-4.125c.296-.214.464-.462.5-.718.036-.255-.1-.505-.28-.656-.365-.302-.938-.376-1.47-.156zm.188.438c.37-.154.81-.064 1 .093.094.08.137.135.125.22-.012.085-.11.235-.344.406-1.413 1.01-2.13 2.664-2.407 4.438-.278 1.773-.105 3.664.28 5.218.083.354 0 .592-.093.72-.094.127-.214.185-.406.155-.384-.06-.983-.554-1.22-1.718-.317-1.733-.226-3.87.282-5.69s1.457-3.286 2.78-3.843z" fill="#bd6b00"/><path d="M272.31 187.39h8.027v11.107h-8.027zM272.78 204.85h7.747v2.333h-7.747zM272.59 208.95h7.934v8.68h-7.934zM272.03 219.41h8.68v4.853h-8.68zM273.1 202.76h6.995l1.387-2.31h-9.636l1.254 2.31zM282.53 194.25l.066-6.07h4.818c-1.893 1.56-3.652 3.453-4.884 6.07z"/><path d="M273.56 196.74c.048 1.3 1.518.72 1.518.066 0-2.004.027-4.17-.053-5.588-.01-1.045 2.49-.783 2.476-.14.01 1.692.03 4.012.04 5.992-.02.964 1.614.88 1.592 0-.01-2.212-.01-5.425 0-7.052.014-2.096-5.502-2.05-5.545-.047.002 1.646-.03 4.59-.027 6.77zM273.57 209.98h5.694v7.093h-5.694z" fill="none"/><path d="M277.21 212.92h2.007v1.167h-2.007zM273.71 212.92h1.96v1.167h-1.96z"/><path d="M275.67 210.07h1.54v2.893h-1.54zM275.67 214.04h1.54v3.08h-1.54zM243.99 138.97c.356 5.567-1.37 8.623-4.32 8.158-.812-3.088 1.036-5.16 4.32-8.158zM237.52 151.31c-2.62-1.333-.73-11.513.276-15.78.744 5.497 1.99 13.31-.276 15.78z"/><path d="M238.45 151.79c4.406 1.533 7.894-3.212 9.073-8.708-3.636 5.02-9.554 5.025-9.073 8.708zM235.11 156.93c-3.445-.91-1.37-11.71-.744-16.03.757 4.462 3.132 14.552.744 16.03zM236.29 156.59c.192-3.725 3.905-2.648 6.468-4.636-.418 1.86-1.994 5.16-6.468 4.636zM232.07 161.58c-3.414-.92-1.362-12.544-1.555-17.33 1 4.136 4.17 16.21 1.555 17.33zM233.66 161.08c2.797.91 6.5-.908 6.793-4.24-2.41 1.636-6.254.386-6.793 4.24z"/><path d="M229.52 166.71c-3.265.26-1.804-9.638-1.802-18.857 1.2 8.617 4.467 16.505 1.802 18.857z"/><path d="M230.65 166.26c2.205 1.106 6.156-.662 7.284-4.387-3.984 1.733-6.648.04-7.284 4.387zM256.28 144.13c-.58 4.83-2.554 7.638-5.503 7.174-.812-3.088 1.58-5.062 5.503-7.174zM248.48 156.52c4.898.695 6.662-3.064 9.96-7.87-4.62 3.344-10.146 4.04-9.96 7.87z"/><path d="M247.09 155.97c-2.67-3.204-.09-7.228 1.95-10.657-.438 5.102 1.3 7.94-1.95 10.657zM245.91 161.26c-.3-3.134 5.038-3.83 7.452-5.572-.812 1.81-2.043 6.687-7.452 5.572z"/><path d="M244.79 161.33c-3.69-.418-2.16-6.686.487-10.17-1.114 4.807 1.95 8.15-.487 10.17z"/><path d="M242.01 166.55c-4.202-1.858-1.51-7.127.07-10.238-.673 4.086 2.693 7.196-.07 10.238z"/><path d="M242.84 166.06c2.205 2.88 6.5-.86 7.383-5.224-3.738 3.112-6.5 2.6-7.383 5.224zM233.24 186.32c-.432-4.287 2.793-12.084.504-16.24-.312-.57.685-2.087 1.33-1.167 1.006 1.468 2.04 5.652 2.473 4.107.46-1.68.53-4.65 2.017-5.228.95-.338 2.29-.56 1.924.934-.363 1.436-1.177 3.42-.275 3.547.523.078 2.03-1.954 3.3-2.893 1.022-.838 2.548.473 1.053 1.726-4.86 4.037-9.57 5.854-12.326 15.214zM224.51 250.85c-.57-.11-1.352-.303-.64.584 5.678 6.996 7.32 8.924 15.602 7.94 8.365-1.102 10.357-3.364 16.214-6.65 3.13-1.836 7.703-2.243 11.17-1.106 1.614.528 2.59.56 1.434-.6-1.158-1.156-2.525-2.73-3.95-3.814-3.117-2.394-8.406-3.432-12.722-2.662-6.104.958-11.148 4.845-17.176 6.313-3.167.723-6.64.614-9.93-.005zM272.3 263.35c1.056.13 1.725 2.177 2.245.792.88-2.242.264-4.026-.727-3.83-1.17.313-3.147 2.935-1.518 3.038z"/><path stroke="none" d="M220.6 182.92c-1.215-1.27-.864-1.754.933-1.774 1.425-.09 4.25.873 5.32.093.983-.714.592-3.74 1.028-5.134.19-.778.736-2 1.96-.093 3.623 5.804 8.147 12.773 10.08 19.6 1.058 3.826.063 9.8-3.453 13.814.124-3.423-1.152-5.725-2.707-8.587-1.92-3.762-9.057-13.95-13.16-17.92z"/><path d="M235.53 213.44c3.983.02 4.667-5.32 4.667-6.813-1.96.373-5.414 3.64-4.667 6.813zM269.95 265.26c2.833.645 2.794-6.178-.1-9.07 1.274 4.382-2.128 8.388.1 9.07zM268.85 265.2c.187 3.243-7.96-.424-10.052-2.946 4.813 2.044 9.815.352 10.052 2.946zM265.28 260.57c.29 3.14-7.064.38-9.238-2.074 4.83 1.56 8.917-.51 9.238 2.074zM266.63 261.01c2.833.645 2.374-6.412-.38-8.837 1.322 4.71-1.848 8.155.38 8.837zM263.65 256.72c2.833.645 1.207-5.43-.893-7.857.34 4.43-1.055 7.502.893 7.857zM262.15 256.7c.292 3.235-5.43.75-7.65-2.31 4.782 1.562 7.33-.275 7.65 2.31zM260.59 254.24c1.856-1.334-.113-4.863-3.645-4.645.346 2.132 1.566 5.88 3.645 4.645zM274.54 268.87c.187 3.243-7.96 1.63-10.52-1.825 5.14.97 10.282-.77 10.52 1.825zM242.18 263.07c.292 3.235-8.602-.322-10.823-3.383 4.783 1.56 10.502.798 10.823 3.383zM247.63 264.45c1.856-1.334-1.933-4.77-4.95-5.578.345 2.13 2.87 6.813 4.95 5.578zM248.2 266.69c.2 2.908-9.537 1.313-12.084-1.374 8.377 1.514 11.81-1.117 12.084 1.374z"/><path d="M252.76 268.63c1.08 2.7-8.264 2.042-11.545.471 5.3-.045 10.802-2.352 11.545-.47z"/><path d="M257.13 270.6c1.034 2.42-7.61 2.37-11.824 1.03 5.58-.045 10.8-3.426 11.824-1.03zM263.42 271.9c1.53 2.865-7.588 3.143-10.547 1.733 5.273-.725 9.242-3.988 10.547-1.733zM252.74 267c-2.9 1.83-2.746-3.564-5.053-7.3 3.625 3.302 7.02 5.556 5.053 7.3z"/><path d="M257.88 268.94c-2.433 2.156-4.38-5.246-6.594-9.4 3.58 3.955 8.84 7.61 6.594 9.4zM264.68 271c-2.06 2.39-8.02-7.018-10.187-11.92 3.3 3.816 11.826 9.896 10.187 11.92zM258.88 278.18c-1.028 3.632-16.192-3.423-17.885-7.079 8.677 4.6 18.092 3.637 17.885 7.08zM210.15 204.38c-.355-.46-1.374.012-1.12 1.12.237 1.5 2.45 9.204 6.252 11.854 2.712 1.954 16.965 5.102 23.427 6.44 3.555.714 6.534 2.488 8.867 5.32-.965-3.703-1.74-6.446-2.987-9.8-1.21-2.948-4.42-6.174-7.746-6.347-6.175-.222-14.167-.748-19.974-3.268-2.997-1.253-4.792-2.944-6.72-5.32z"/><path d="M245.54 234.87c1.947 1.434 4.096-3.704 1.623-8.588-.078 4.7-3.815 6.28-1.623 8.588z"/><path d="M247.41 239.58c2.693.827 3.536-3.937 1.763-7.747.295 4.093-4.234 6.56-1.763 7.747z"/><path d="M249.46 243.36c2.6 1.295 3.585-3.518 1.716-7.092.204 4.56-3.72 5.904-1.716 7.092z"/><path d="M248.39 243.65c-1.03 3.08-7.007-2.655-8.014-5.775 3.71 3.685 8.757 3.278 8.014 5.775z"/><path d="M245.68 238.94c-1.17 3.08-8.687-4.85-10.348-8.668 3.71 3.685 11.184 6.498 10.348 8.668z"/><path d="M244.19 234.32c-1.17 3.5-9.34-5.83-11.654-9.135 3.897 3.64 12.537 6.592 11.654 9.135zM243.93 230.86c2.877-.56-.163-2.955-3.69-6.85-.164 4.1.51 6.967 3.69 6.85z"/><path d="M239.08 228.53c1.242-1.353-1.19-1.93-4.203-5.31-.444 2.28 2.794 6.454 4.203 5.31zM253 243.73c1.574.92 2.652-2.304.69-5.225-.45 3.16-2.133 4.037-.69 5.225zM218.81 223.38c-3.342 2.004-8.652-5.992-10.068-9.282 2.933 3.776 10.7 7.224 10.068 9.282z"/><path d="M221.65 228.04c-1.85 2.05-7.67-3.52-9.694-6.34 3.12 2.7 10.512 3.022 9.694 6.34z"/><path d="M224.82 232.22c-.61 2.8-9.106-3.495-11.092-6.476 3.663 3.452 11.65 3.14 11.092 6.476z"/><path d="M223.52 235.25c-1.31 2.522-8.22-3.727-9.88-6.987 4.223 3.685 10.95 4.493 9.88 6.987zM219.97 222.97c2.18-2.3 1.252-3.376-.338-7-.87 3.72-2.18 5.206.338 7zM222.86 227.31c3.954.174.038-4.638-.897-8.68.344 4.607-1.014 8.238.897 8.68z"/><path d="M225.38 231.13c2.74-.62 1.95-4.497-.15-9.193.436 5.073-2.32 8.005.15 9.193zM224.45 238.8c-1.03 3.08-8.826-4.056-10.067-6.755 3.943 3.312 10.763 4.445 10.067 6.755z"/><path d="M229.12 243.61c-1.17 3.082-9.34-3.167-11.84-6.568 4.923 3.872 12.444 3.513 11.84 6.568z"/><path d="M233.88 248.46c-1.31 4.294-9.853-2.56-12.4-5.915 5.437 4.15 13.097 2.86 12.4 5.915zM225.85 237.43c2.32 1.2 3.258-5.384 1.95-10.033.016 5.074-4.655 8.845-1.95 10.033z"/><path d="M229.81 242.66c2.788.828 1.904-6.27-.478-10.873-.31 4.56-2.366 8.892.478 10.873zM234.76 247.56c3.114.174.97-6.084-1.597-9.613.437 4.607-1.013 9.08 1.597 9.613zM229.3 250.23c-.936 1.586-3.226-1.347-6.986-3.49 3.382.886 7.402 2.02 6.986 3.49zM227.52 197.49c2.906-2.15.69-6.173 0-9.998-.935 3.628-3.397 8.39 0 9.998zM227.42 202.85c-4.366-.524-3.71-6.171-3.84-9.75 1.312 4.858 4.89 5.68 3.84 9.75zM228.11 202.12c3.694-.214 3.498-4.417 3.695-8.668-1.872 3.907-4.09 4.514-3.695 8.668z"/><path d="M227.96 207.34c-2.873.23-4.366-2.594-5.023-6.993 2.725 4.054 5.203 2.79 5.023 6.993zM228.99 206.99c3.694.475 3.104-3.825 2.955-6.995-1.132 3.022-4.136 3.974-2.955 6.995z"/><path d="M223.23 205.17c.295 2.807 2.07 7.634 4.926 6.55 1.18-3.448-2.513-4.137-4.926-6.55z"/><path d="M229.04 212.02c-1.28-2.462 2.905-3.695 3.792-6.895.51 4.58.082 7.584-3.792 6.895zM217.13 182.84c2.3-2.477.27-6.406-.42-10.23-.936 3.627-2.557 8.434.42 10.23zM217.06 187.45c-4.04.41-5.016-7.804-5.427-11.337 1.313 4.86 5.965 7.08 5.427 11.337zM217.89 187.37c2.854-1.474 2.19-4.65 3.088-7.035-1.92 2.928-3.67 3.347-3.088 7.035z"/><path d="M217.09 192.75c-4.225.362-6.742-8.74-6.874-12.318 1.313 4.86 7.366 7.5 6.874 12.318zM217.9 192.61c3.973-.914 3.498-3.483 2.902-7.642-1.265 4.188-3.483 3.3-2.902 7.642z"/><path d="M217.04 198c-4.646.788-4.32-6.56-8.01-11.893 3.192 3.96 8.937 8.95 8.01 11.893zM218.09 197.75c3.507.102 3.85-5.18 3.656-7.32-.807 2.133-4.93 4.16-3.656 7.32z"/><path d="M209.78 192.34c1.742 5.654 4.216 11.32 7.26 10.89 1.46-3.215-2.888-3.624-7.26-10.89z"/><path d="M218.14 202.4c-1.28-2.462 2.905-3.695 3.792-6.895.51 4.58.082 7.584-3.792 6.895zM210.98 198.8c2.487 5.094 3.61 10.948 7.024 10.097 1.275-3.96-3.77-4.79-7.024-10.097z"/><path d="M218.71 207.93c-1.467-2.695 2.72-3.648 3.745-7.362.556 4.86.036 8.33-3.745 7.362zM225.87 173.45c2.45.663 5.022-2.09 4.13-6.208-2.8.697-4.086 3.24-4.13 6.208zM218.03 171.39c.214 1.16 1.623 1.264 1.214-.373-.342-1.328-.4-2.327 0-3.407.548-1.353.365-3.658-.047-4.62-.416-1.015-1.793-.42-1.214.375.638.92.672 2.837.233 3.732-.577 1.32-.42 3.075-.186 4.293zM240.9 187.31c-.947 1.393-2.88.54-1.408-1.372 1.208-1.55 2.928-2.814 3.055-4.414.1-2.03 1.29-5.107 2.373-6.145 1.118-1.107 2.41.45 1.214 1.187-1.342.872-2.214 4.456-2.185 5.836-.046 2-2.042 3.447-3.05 4.907zM237.92 185.07c-.947 1.393-2.457.585-1.6-1.652.72-1.55.798-3.468 1.603-4.6 1.125-1.717 3.03-3.147 4.112-4.186 1.118-1.106 2.046-.04 1.02.908-1.243 1.245-2.594 2.795-3.344 3.97-1.398 2.28-.782 4.1-1.79 5.56zM222.18 177.86c-.112 1.967 1.47 2.443 1.4-.41-.072-2.977-2.18-5.7-.886-10.234.68-2.217.69-6.28.28-8.44-.363-2.143-1.887-.744-1.308.924.638 1.935-.12 5.645-.607 7.51-1.464 5.435 1.206 8.08 1.12 10.65zM226.5 166.98c-.232 1.81-1.764 1.974-1.32-.582.372-2.075.436-3.635 0-5.32-.595-2.115-.396-5.715.052-7.217.45-1.584 1.948-.655 1.32.585-.695 1.44-.73 4.432-.255 5.83.627 2.063.457 4.802.203 6.705zM210.94 204c.758.902 2.036.298.87-.923-.95-.987-.638-1.298-1.22-2.5-.573-1.343-.543-2.084-1.236-3.044-.613-.91-1.535.02-.917.785.775.906.56 1.574 1.035 2.45.877 1.5.663 2.288 1.468 3.232zM231.34 228.61c2.44 1.2 4.29 4.196 4.413 6.636.207 2.81.612 5.18 1.873 7.176-2.008-.56-2.97-3.76-3.255-6.825-.288-3.173-1.998-4.55-3.03-6.987zM236.42 234.49c1.688 3.116 4.05 4.304 4.17 6.617.204 2.66.406 2.797 1.127 5.413-1.987-.53-2.487-.703-3.024-4.684-.33-2.798-2.57-4.772-2.273-7.346z"/><path stroke="none" d="M288.97 263.32c.95 1.788 2.038 4.51 4.013 4.013.03-1.37-2.13-2.318-4.013-4.013zM291.91 263.93c3.835 1.572 7.147 1.184 7.56 3.595-3.598.388-4.914-1.09-7.56-3.595zM275.85 251.24c2.583 2.116 4.26 4.53 5.04 7.653.815 2.908 1.96 5.226 3.64 7.84-2.737-1.867-4.458-4.407-5.32-7.467-.756-3.01-1.648-5.257-3.36-8.026zM279.03 251.23c2.77 2.21 5.38 4.72 6.16 7.84.815 2.908 1.308 5.134 3.175 8.027-2.925-1.867-4.086-4.688-4.947-7.748-.756-3.008-2.49-5.257-4.388-8.12zM288.17 258.47c-.076-.546.297-1.023.747-1.166.874-.327 1.745-.594 2.612-.84.985-.233 1.537.47 1.54.933.005.77.04 1.423 0 2.006-.053.726-.192.78-.653.888-.738.125-1.685.25-2.426.747-.587.36-1.152.076-1.446-.56-.19-.484-.294-1.432-.374-2.007zM298.8 258.47c.068-.546-.22-1.07-.62-1.213-.782-.327-1.56-.407-2.38-.374-.913-.014-1.142.192-1.145.654-.004.77-.037 1.516 0 2.1.048.725.032.78.444.887.658.124 1.783.157 2.446.653.525.36 1.124.075 1.153-.606-.014-.512.028-1.525.1-2.1z"/></g><use x="-600" xlink:href="#a" transform="scale(-1 1)"/><g stroke="none"><path d="M328.54 286.65c.047 1.181.188 2.13.888 3.08-4.076-1.633-9.83-.76-13.767 1.074-1.755.838-3.88-.958-1.82-2.66 2.93-2.374 9.706-1.028 14.7-1.494zm-57.505-.062c.057 1.113-.072 2.133-.48 3.106 4.43-1.835 9.186-.31 13.663 1.494 3.077 1.273 3.325-.93 2.782-1.692-.934-1.353-2.742-2.838-5.028-2.87-1.522-.02-7.382-.074-10.937-.038zm3.74-21.642c-1.236-.533-2.672-.02-3.96 1.335-4.327 4.24-9.404 8.372-13.502 11.586-1.53 1.328-3.09 3.71 3.43 6.093.238.09 4.992 1.85 8.005 1.963 1.23-.034 1.227 1.803 1 2.293-.52.978-.144 1.352-1.194 2.293-1.095.923.117 2.12.977 1.306 3.673-3.188 9.628-1.148 15.367.718 1.356.375 3.837.27 3.815-1.6.024-2.038 1.5-3.48 2.404-3.532 2.343.406 13.92.535 17.485.102 2.08-.27 2.205 2.848 3.317 4.077.767.816 3.72 1.032 5.743.138 4-1.858 10.097-1.858 12.582-.082 1.02.778 1.828.147 1.247-.643-.75-1.08-.732-1.58-1.104-2.433-.933-1.898-.188-2.363.79-2.5 11.054-1.426 14.582-5.197 11.202-8.272-4.364-3.828-9.222-7.676-13.408-12.198-1.135-1.2-1.885-1.68-4.247-.7-7.22 3.29-16.388 5.688-25.358 5.863-8.347.072-19.824-3.79-24.59-5.807z"/><path d="M326.62 265.54c-.58.058-1.197.238-1.656.406-8.92 3.134-17.117 5.328-25.656 5.313-8.335-.017-17.066-2.31-24.906-5.532-.446-.19-.96-.16-1.47-.032-.508.13-1.012.366-1.343.688-3.642 3.626-7.583 7.148-11.813 10.344-.64.488-.535 1.73.5 2.156h.03c8.306 2.98 16.413 8.532 39.626 8.313 23.433-.222 31.746-5.64 39.188-8.125.526-.2 1.066-.5 1.314-.97.124-.234.158-.525.062-.812-.095-.286-.283-.554-.625-.843h-.03c-4.223-3.453-8.75-6.207-11.72-10.406-.333-.478-.92-.557-1.5-.5zm.03.438c.508-.05.896.027 1.095.312 3.04 4.3 7.62 7.074 11.812 10.5.3.254.442.48.5.656.06.176.044.296-.03.438-.15.284-.59.57-1.064.75-7.534 2.515-15.668 7.904-39.03 8.125-23.116.217-31.095-5.304-39.47-8.314-.754-.31-.687-1.16-.406-1.375 4.242-3.205 8.227-6.74 11.875-10.374.25-.243.653-.45 1.094-.562.44-.113.912-.13 1.22 0 7.878 3.238 16.612 5.578 25.03 5.594 8.618.015 16.903-2.204 25.844-5.344.445-.163 1.024-.356 1.53-.406z" fill="#bd6b00"/><path d="M269.71 114.56c-.068-1.38 2.07-1.484 1.824.412-.313 2.362 4.46 8.342 4.854 12.03.265 2.472-1.453 4.636-3.154 5.983-2.086 1.616-5.293 1.394-6.794.467-.908-.73-1.735-3.234-1.056-4.224.24-.334 1.328 3.673 3.722 3.657 3.258-.02 5.896-2.468 5.993-4.65.166-3.802-5.33-9.81-5.39-13.676zM279.24 123.95c.54-.385 1.4 1.296.792 1.716-.505.337-1.492-1.25-.792-1.716zM280.69 120.54c-.272.132-.814-.056-.652-.287.762-1.09 2.387-2.728 3.565-3.3.362-.176.995.463.776.776-.706 1.006-2.42 2.194-3.69 2.81zM293.28 110.55c.302-.63 2.117-1.344 2.58-1.77.427-.44.63.37.448.75-.302.632-1.868 1.697-2.555 1.725-.37.016-.656-.324-.473-.705zM297.59 110.75c.393-1.107 1.66-2.786 2.533-3.34.448-.282 1.252-.06 1.1.365-.332.94-1.883 2.58-2.926 3.355-.316.282-.798-.123-.707-.38zM293.9 113.52c-.263.132-.12.69.133.776.538.18 1.52.214 1.964-.03.645-.398.35-2.845-.513-1.538-.58.806-1.002.547-1.584.792zM286.61 119.14c-1.318-1.026.355-2.464 1.732-1.46 2.683 2.024-4.003 9.778-7.64 13.403-.666.71-1.25-1.078-.397-1.848 2.608-2.212 5.05-4.855 6.747-7.586.327-.526.64-1.66-.442-2.51zM301.88 112.47c.164-.982-1.59.02-1.62-1.28-.018-.69 1.914-1.174 2.72-.38 1.366 1.383.346 3.717-1.923 3.864-1.89.084-5.046 2.685-4.566 3.232.547.675 5.45 1.12 8.303.675 1.765-.247 1.395 1.332-.414 1.546-1.748.2-3.172.015-4.806.528-1.922.55-2.76 3.13-3.828 4.092-.238.167-.88-.846-.636-1.227.77-1.204 1.996-3.046 3.346-3.573.852-.345-2.348-.454-3.37-.745-.81-.244-.574-1.274-.264-1.848.412-.895 3.43-3.916 4.645-3.867 1.142.05 2.3-.284 2.413-1.017zM306.96 112.73c.567-.5.858-1.338 1.453-1.848.326-.327.847.065.76.853-.073.62-.907 1.156-1.468 1.623-.456.342-.986-.396-.745-.628zM313.43 110.43c.845-.093 1.055 1.537.13 1.8-.56.188-1.05-1.704-.13-1.8zM311.3 115.47c-.013 1.404.68 1.275 2.002 1.227 1.283-.05 2.412.033 2.407-1.235-.007-1.314-.728-2.464-.94-1.57-.186.84-.334 2.216-.823 1.617-.46-.516-.278-.63-1.07.216-.44.466-.49-.226-.755-.66-.184-.257-.82.208-.822.404zM302.08 122.63c-.315 1.858-.026 4.46.925 4.488 1.175.038 3.607-4.06 4.76-6.188.69-1.187 1.876-1.394 1.38-.156-.748 1.91-.68 5.998-.023 7.2.354.646 2.964-.594 3.386-1.516.767-1.675.143-4.762.412-6.647.13-1.236 1.263-1.495 1.203-.348-.112 2.052-.307 5.815-.162 7.524.087.982 2.895 2.432 3.347-.543.238-1.872 1.202-3.72-.047-5.793-.774-1.297 1.136-1.134 2.166.637.72 1.206-.607 3.202-.56 4.744.12 2.375-1.726 3.723-3.066 3.75-1.197.025-1.977-1.445-2.957-1.466-1.09-.07-2.207 1.693-3.106 1.63-3.486-.238-1.64-5.333-2.703-5.395-1.18-.07-2.574 4.993-4.03 4.812-1.434-.172-2.92-4.127-2.322-5.8.54-1.557 1.558-1.922 1.398-.932z"/><path d="M318.96 114.6c-1.7-1.038.108-3.736.94-2.788 1.605 1.923 3.223 6.487 4.355 6.864.716.24.683-3.374 1.188-5.016.326-1.213 1.793-.817 1.513.737-.096.52-1.917 6.422-1.777 6.655 1.26 2.522 2.51 5.08 3.3 7.788.325 1.167-1.076.38-1.244.14-.894-1.34-2.46-6.453-2.46-6.22-.72 3.598-.89 4.66-1.655 7.717-.232.98-1.674.802-1.35-.924.314-1.418 2.376-8.392 2.26-8.594-1.62-2.863-3.104-5.126-5.07-6.36z"/><path d="M322.03 131.2c-.474-.054-1.21 1.055 1.152 1.49 3.156.572 6.61-.49 7.67-3.586 1.212-3.687 2.013-7.177 2.646-8.493.79-1.534 1.803-1.41 1.056-3.65-.526-1.612-1.51-1.126-1.716-.264-.552 2.35-2.646 9.952-3.3 11.352-1.233 2.555-3.718 3.565-7.508 3.152z"/><path d="M328.35 119.07c-.338-.725-1.127-.164-.986.63.084.716.666 1.106 1.25 1.086.692-.024 2.155.023 2.16-1.125 0-.806-.633-1.48-1.104-.59-.45.806-1.03.722-1.32 0zM329.14 116.03c-.243.168-.025 1.066.264 1.056 1.03-.035 2.492-.363 3.275-.908.228-.16.132-.702-.194-.69-.994.032-2.575.006-3.346.542zM337.9 118.29c.747-1.167 2.806-1.286 2.066.38-.525 1.148-5.652 11.055-6.352 12.315-.764 1.417-1.39.715-.846-.388.73-1.42 4.898-11.962 5.132-12.307z"/><path d="M330.18 133.04c-.22-.788-1.442-1.954-1.304.155.243 3.828 5.503 2.618 7.096 1.257 1.445-1.28.19 4.323 2.112 4.922 1.058.34 3.05-1.105 4.03-2.376 2.717-3.525 4.446-8.578 7.058-12.058.987-1.36-.54-2.332-1.157-1.25-2.272 3.81-5.094 11.586-8.176 13.605-2.514 1.608-1.77-2.07-1.857-3.176-.11-.81-1.097-2.004-2.415-.91-.92.72-2.352 1.306-3.648 1.19-.752-.043-1.386-.03-1.74-1.36z"/><path d="M339.57 125.93c.028-.216-1.112-.314-1.056.792.04.82 1.02 1.04 1.188.924 1.54-1.12-.328-.562-.132-1.716zM337.33 130.42c-.303.07-.582 1.04.133 1.095.653.046 3.213-.23 3.92-.187.458-.017.632-.892-.348-.845-1.19.06-2.754-.24-3.705-.063zM275.37 113.76c.406.02 1.52 1.462 1.447 1.913-.05.213-1.19-.03-1.54-.326-.258-.22-.154-1.6.093-1.587zM270 124.212c-1.016.555.163 1.65.925 1.188 2.86-1.853 7.154-3.8 8.052-7.468.287-1.243 1.443-3.148 2.54-3.573 1.06-.412 2.598 1.916 3.602.084.588-1.047 2.653.687 3.15-.433.608-1.353.32-2.098.344-3.394-.045-.85-.693-1.103-1.164.272-.245.623.043 1.25-.156 1.576-.152.247-.625.486-.9.28-.253-.19-.078-.72-.685-.955-.236-.12-.613-.217-.777.085-.72 1.284-1.12 2.482-2.128 1.117-.898-1.176-1.353-3.21-2.01-.427-.238.982-1.73 2.407-2.61 2.407-1.1 0-.824-2.894-3.238-2.453-1.24.263-1.155 2.638-.97 3.516.305 1.22 3.93.344 3.75 1.14-.62 2.772-4.466 5.407-7.726 7.036zM247.3 137.42c-.154.464.462 1.723 1.1 1.816.63.046.95-1.36.747-1.816-.15-.336-1.737-.33-1.847 0zM250.63 142.3c-.403-.434-1.59.73-.63 1.553.54.436 2.513 1.07 3.053.148.73-1.184-.72-5.487-.078-6.056.502-.444 2.828 2.875 3.976 3.114 2.698.373 2.05-4.62 4.957-4.28 1.98.264 2.198-2.21 1.922-3.756-.222-1.483-2.623-3.624-3.727-4.582-1.452-1.21-2.1.892-1.188 1.584 1.173.94 3.236 2.837 3.565 4.093.155.592-1.434 1.77-2.02 1.45-1.35-.736-2.607-3.897-3.79-4.62-.4-.245-1.392.31-.915 1.297.536 1.057 2.905 2.693 3.044 3.82.124 1.03-1.057 3.254-1.832 3.254-.853 0-3.028-2.688-3.706-3.953-.34-.606-1.515-.547-1.638.29-.195 1.255.182 3.912.48 5.558.24 1.56-.877 1.638-1.474 1.087zM246.56 133.73c-.34.384.792 1.134 1.017.94.436-.378 2.128-2.308 1.802-2.983-.29-.6-2.62-1.918-2.998-1.266-.702 1.13 2.195 1.635 1.74 1.966-.223.128-1.02.68-1.562 1.344zM250.73 125.27s.728 2.49 1.32 1.452c.48-.72-1.32-1.452-1.32-1.452zM251.92 129.23c-.266.146-1.017.74-.528 1.056.773.457 2.875.82 2.42-.676-.274-.88 3.172.025 2.332-2.36-.22-.66-1.26-1.612-1.77-1.747-.325-.085-1.43.52-.738.854.504.26 2.024 1.154 1.46 1.74-.642.612-1.09-.275-1.887-.132-.402.076-.14 1.218-.367 1.53-.126.172-.706-.383-.923-.265zM257.4 119.77c-.435.217-1.214 1.396-1.242 1.94-.016.292.303.692.552.568.456-.228 1.16-1.344 1.187-1.856.017-.324-.227-.787-.497-.652zM260.24 119.46c-.84-1.027.89-2.55 1.67-.496.47 1.29 5.488 7.892 6.514 10.132.727 1.516-.026 2.142-.924 1.056-2.54-3.242-4.626-7.283-7.26-10.692zM265.39 119.6c.895-.97 2.72-2.95 2.23-4.053-.378-.95-1.488-.856-1.678-.636-1.086 1.297.772.97.504 1.414-.553 1.038-1.104 1.61-1.39 2.608-.066.234.173.843.334.668zM343.17 122.84c-.643-.52.632-3.044 1.494-2.053 2.368 2.74 3.47 11.636 4.153 18.294 0 0-1.064.888-1.073.747 0-3.547-1.425-14.397-4.574-16.987zM290.07 114.18c-.766-1.76 1.15-2.412 1.436-1.157 1.33 5.783 4.517 10.16 6.942 14.093.73 1.23.145 1.962-1.63.83-1.23-.842-2.478-3.916-3.083-4.037-1.094-.205-3.713 4.992-9.07 3.508-1.385-.387-1.293-4.507-1.32-6.328-.058-.853.885-1.078.917.086.05 1.678-.002 5.164 2.144 5.28 1.75.1 5.627-2.375 6.444-4.31.728-1.988-1.952-5.94-2.78-7.966z"/><path d="M344.61 138.38c.428-1.19 6.114-10.735 6.86-12.835.383-1.013 2.015 1.737.42 3.22-1.4 1.26-5.53 8.034-6.3 10.408-.355 1.072-1.432.562-.98-.793z"/><path d="M354.28 129.28c1.05-3.935 3.593.607 1.353 2.847-3.458 3.387-4.5 9.854-9.987 10.827-1.48.318-4.082-.666-4.853-1.214-.3-.214.194-1.618 1.12-.933 1.336 1.044 4.097 1.28 5.554.093 3.118-3.06 5.657-7.113 6.813-11.62zM297.27 142.02c-.247.284-1.004.238-1.072.637-.297 1.48 0 2.23-.326 3.655-.312 1.365-1.26 1.416-1.194.304.086-1.442 1.274-3.478.435-3.618-.56-.13-.99-.88-.413-1.248 1.092-.757 1.68-.64 2.43-.413.26.08.328.464.14.683z"/><path d="M296.5 140.09c-1.448 1.266-2.79 1.784-4.123 3.384-.544.656-.53 1.57-.854 2.406-.326.888-1.375 1.062-1.7.877-.543-.357-.465-2.003-1.07-1.117-.516.816-.848 1.94-1.61 1.926-.688-.014-1.986-1.422-1.328-1.49 2.252-.23 2.225-2.033 3.068-2.15.946-.128 1.008 1.487 1.592 1.164.46-.236.675-2.117 1.173-2.625 1.527-1.56 2.735-2.385 4.293-3.53.79-.63 1.352.504.56 1.155zM301.78 144.94c-1.16.234-.962 1.724-.62 1.91.56.26 1.43.37 1.754-1.343.15-.703.29 3.498 1.83 1.88.89-.98 3.088.178 4.01-1.056.66-.82.862-1.395.348-2.61-.15-.368-1.053-.186-1 .71.044.755-.536 1.687-1.29 1.528-.368-.067.205-1.847-.163-2.33-.204-.265-.512-.236-.714.04-.283.383.284 2.09-.646 2.314-1.174.27-.56-1.14-1.056-1.4-1.6-.806-1.753.21-2.454.358zM310.83 142.08c.85-.24.584-.24 1.92-1.334.522-.395.625.76.57 1.216-.097.775-1.018.228-1.304.91-.418.886-.248 2.948-.388 3.788-.096.43-.787.394-.853.054-.198-1.024.14-2.026.108-3.307-.01-.435-.634-1.117-.053-1.327zM305.83 139.46c-.205.927-.19 1.69-.19 2.325.047.514.986.183.982.118-.047-.814.14-1.94-.102-2.253-.13-.17-.642-.365-.69-.19z"/><path d="M299.54 130.19l-1.458 5.594-2.03-3.75v3.844l-4.374-5.188 1.52 5.563-3.93-3.344 2.093 3.78-6.974-4.5 4.438 5.188-5.58-2.75 3.995 3.375-9.13-3.438 8.812 4.344c3.223-1.59 7.64-2.564 12.554-2.564 4.896 0 9.335.985 12.554 2.563.012.005.052-.007.064 0l8.75-4.345-9.004 3.47 3.93-3.407-5.515 2.718 4.375-5.156-6.975 4.5 2.093-3.78-3.932 3.343 1.522-5.563-4.375 5.22.063-3.876-2.03 3.75-1.457-5.594z"/></g></g><path d="M291.82 251.63c0 .593-.09 1.45-.267 2.568h-.415c0-.762-.036-1.35-.107-1.76-.066-.41-.2-.897-.4-1.463-.165-.477-.346-.883-.542-1.217-.196-.34-.51-.79-.943-1.35l.83-2.048c.383.49.655.868.815 1.13.183.304.355.685.515 1.144.165.46.292.94.38 1.444.09.504.135 1.02.135 1.552M298.32 247.67c0 .624-.118 1.092-.354 1.404-.237.312-.64.535-1.21.67.164.58.273 1.03.327 1.357.058.326.087.69.087 1.09 0 .26-.016.536-.047.83-.027.294-.078.69-.154 1.19h-.375c0-.446-.025-.83-.074-1.15-.044-.326-.113-.63-.206-.916-.023-.072-.14-.386-.355-.943-.21-.56-.42-1.027-.63-1.397-.204-.374-.54-.89-1.01-1.545l.643-1.926c.34.486.635.823.89 1.01.253.183.554.274.902.274.758 0 1.137-.41 1.137-1.23h.388c0 .268.007.49.02.67.013.173.02.378.02.614M304.29 252.19l-.48 2.006c-.305-.084-.552-.323-.744-.715-.16-.325-.276-.737-.348-1.237-.066-.5-.1-1.016-.1-1.55-.406.106-.726.16-.963.16-.468 0-.856-.123-1.163-.368-.304-.25-.455-.564-.455-.943 0-.816.21-1.55.628-2.2.424-.656.9-.983 1.432-.983.41 0 .695.115.856.346.178.255.287.544.327.87.04.325.06.954.06 1.886 0 .833.067 1.422.2 1.765.108.268.358.59.75.963m-1.806-3.33c-.08-.51-.347-.763-.802-.763-.196 0-.377.054-.542.16s-.247.2-.247.282c0 .266.32.4.963.4.205 0 .414-.027.628-.08M310.61 251.69l-.24 2.434c-.478-.334-.92-.938-1.325-1.812-.423-.914-.85-2.21-1.284-3.885-.37 1.614-.674 2.797-.915 3.55-.236.75-.47 1.28-.702 1.592-.156.21-.406.42-.75.634l.054-2.327c.442-.602.752-1.06.93-1.377.263-.468.48-1.015.65-1.64.172-.627.328-1.468.467-2.52h.44c.273 1.057.536 1.897.79 2.52.236.59.513 1.11.83 1.56.222.316.574.74 1.056 1.27" fill="#fff"/><path d="M328.98 274.65c.325.38.553.755.685 1.12.128.363.22.88.277 1.554l-.725.06c-.31-.606-.61-1.08-.902-1.422-.222-.26-.582-.632-1.08-1.114-.496-.48-1.004-.95-1.523-1.407-.522-.46-1.188-.992-1.996-1.597-.284-.21-.464-.362-.54-.45-.114-.134-.203-.396-.27-.786-.068-.394-.112-.885-.13-1.47l2.533 2.06c.955.785 1.745 1.48 2.37 2.082.484.464.916.92 1.3 1.37m-8.982-5.412l-.152 1.862-2.982-.08.224-1.9 2.91.118m7.845 8.336l-7.106 2.165-1.307-1.808 6.143-1.872c-.28-.385-.495-.654-.648-.808-.237-.236-.508-.42-.813-.555-.02.342-.16.64-.424.9-.263.258-.603.45-1.02.578-.545.166-1.09.19-1.636.07-.545-.122-.946-.36-1.202-.713-.378-.523-.58-1.218-.61-2.085-.03-.952.23-1.513.783-1.68.717-.22 1.686-.02 2.907.597 1.22.617 2.16 1.377 2.813 2.28l2.12 2.93m-5.457-3.794c-.335-.152-.603-.246-.804-.282-.198-.042-.378-.04-.542.01-.205.063-.346.18-.423.35-.077.168-.058.333.057.492.074.102.198.17.372.203.178.027.365.01.563-.05.156-.048.293-.124.408-.23.12-.112.24-.276.368-.493m-7.612-1.454l-.435 1.843-2.957-.273.45-1.862 2.94.29m7.005 7.197l-1.578.362c-.56.13-1.096.17-1.603.12-.507-.05-.98-.21-1.422-.476-.26.475-.72.873-1.376 1.195-.437.214-.942.387-1.518.52l-1.12.256-1.025-1.883 1.12-.257c.59-.135.992-.248 1.206-.34.22-.096.494-.26.824-.49-.362-.225-.654-.378-.875-.462-.27-.1-.508-.125-.714-.078-.08.018-.143.054-.194.107-.047.047-.086.13-.12.245l-.49.066c-.455-.835-.56-1.48-.312-1.937.252-.46.858-.803 1.817-1.023.988-.226 1.832-.277 2.53-.153.706.12 1.177.397 1.416.836.128.235.177.478.146.73-.034.246-.156.6-.368 1.064.148.065.32.103.52.115.197.01.374-.002.53-.038l1.58-.362 1.024 1.882m-7.543 1.755l-1.54.242c-.857.133-1.56.002-2.113-.395-.613-.437-1.14-1.253-1.586-2.446l-.757-2.034c-.173-.462-.406-.805-.7-1.03-.14-.11-.427-.253-.858-.432l.522-1.97c.567.314 1.004.643 1.31.987.36.403.664.94.914 1.61l.524 1.405c.37.994.73 1.667 1.078 2.02.277.284.59.4.943.343l1.54-.24.722 1.94m-6.578-7.066l-.994 1.75-2.812-.65 1.003-1.765 2.804.665m1.636 7.922l-7.012.635-.425-1.978 5.892-.534c-.153-.322-.362-.587-.627-.795-.14-.116-.448-.31-.925-.583l.524-1.81c.647.36 1.12.757 1.42 1.19.306.43.554 1.09.745 1.977l.408 1.897m-5.63.897c-.843-.027-1.54-.09-2.09-.186-.553-.097-1.092-.24-1.62-.43-.454.187-.856.306-1.207.358-.344.052-.86.067-1.544.044l-1.84-.06c-.505-.018-.898-.116-1.178-.297-.28-.182-.52-.474-.724-.878-.446.397-.932.675-1.458.834-.45.136-.978.195-1.588.175l-1.616-.053.158-1.994 1.615.054c.792.026 1.462-.096 2.012-.367.715-.353 1.103-.913 1.163-1.68l.74.098c-.027.155-.057.333-.087.533-.03.2-.056.423-.076.667-.02.25.096.462.347.636.25.175.544.268.883.28l1.39.046c.918.03 1.58-.032 1.984-.185.49-.185.757-.55.8-1.098.01-.117.074-.22.195-.31.072-.05.217-.127.437-.227l.445-.206c.008.094.01.22.004.382-.006.157-.01.26-.014.31-.02.267-.11.622-.265 1.063.273.096.58.182.92.257.342.075.703.136 1.085.183.013-.166-.064-.384-.232-.654-.167-.27-.247-.452-.24-.545.01-.126.044-.222.102-.29.017-.023.106-.096.267-.218l1.026-.81c.18.314.3.6.363.856.072.252.092.567.062.943l-.218 2.77m-10.645-8.19l-1.773 1.254-1.335-.824-1.315.98-1.757-1.06 1.677-1.193 1.42.792 1.368-1.003 1.714 1.053m-2.786 7.635l-6.865-1.125.752-1.935 5.768.945c.045-.336.005-.632-.12-.89-.062-.14-.234-.397-.518-.766l1.536-1.55c.392.493.6.977.626 1.45.033.475-.12 1.146-.458 2.014l-.722 1.857m-5.78-.896l-1.484-.358c-.827-.2-1.3-.563-1.415-1.092-.132-.585.13-1.453.79-2.604l1.12-1.96c.254-.446.357-.816.307-1.11-.024-.14-.137-.364-.34-.668l2.127-1.445c.2.466.28.897.237 1.294-.048.463-.256 1.018-.626 1.665l-.774 1.356c-.548.96-.83 1.648-.843 2.067-.015.335.147.544.487.626l1.484.358-1.07 1.87m-3.515-7.43l-2.41 1.018-1.656-1.61 2.43-1.027 1.635 1.62m-1.026 6.224c-.5.592-.993 1.036-1.476 1.333-.48.292-1.017.474-1.612.547-.59.075-1.334.04-2.237-.102-.9-.137-1.767-.353-2.6-.65-1.605-.573-2.683-1.205-3.232-1.898-.546-.686-.523-1.378.068-2.077.505-.596 1.105-1.09 1.8-1.485.765-.437 1.96-.932 3.58-1.487l.367.482c-1.267.492-2.142.864-2.623 1.117-.474.255-.858.556-1.152.903-.38.45-.323.95.174 1.503.507.55 1.365 1.04 2.574 1.47 1.19.424 2.316.633 3.38.627 1.063-.006 1.776-.224 2.14-.653.225-.265.375-.555.45-.868.084-.31.134-.838.15-1.58l2.344-1.426c0 .71-.032 1.186-.1 1.43-.118.444-.42.953-.907 1.527l-1.09 1.287" fill="#bf0000"/></svg>