<svg xmlns="http://www.w3.org/2000/svg" width="1200" height="600"><clipPath id="a"><path d="M0 0v150h700v150H600zm600 0H300v350H0v-50z"/></clipPath><path fill="#00247d" d="M0 0h1200v600H0z"/><path d="M0 0l600 300m0-300L0 300" stroke="#fff" stroke-width="60"/><path d="M0 0l600 300m0-300L0 300" stroke="#cf142b" stroke-width="40" clip-path="url(#a)"/><path d="M300 0v350M0 150h700" stroke="#fff" stroke-width="100"/><path d="M300 0v350M0 150h700" stroke="#cf142b" stroke-width="60"/><path d="M0 300h600V0h200v400H0z" fill="#00247d"/><path fill="#cc3" d="M780.583 154.04c0 148.826 11.873 201.674 52.606 242.478 40.733 40.804 56.165 47.23 67.522 53.483 13.102-7.21 28.198-15.133 65.116-52.05C1002.34 361.433 1020 308.8 1020 151.496c-26.558 11.37-39.785 15.117-63.01 15.05-17.203 1.686-43.74-9.337-59.61-16.547-10.37 6.602-25.415 14.476-52.45 15.36-31.226 1.31-41.12-3.735-64.346-11.322z"/><path fill="#fff" d="M787.775 163.438c0 46.043-2.722 108.794 7.006 145.1 9.77 36.462 12.014 41.803 19.36 54.528l171.207-1.27c10.576-18.32 11.11-29.666 18.953-58.936 7.814-29.165 9.788-94.177 10.016-142.6-17.216 8.725-39.76 14.908-61.643 12.195-17.543-1.275-33.752-5.092-52.627-15.264-16.374 9.354-22.082 13.623-49.12 14.715-21.05.99-38.1 2.615-63.15-8.468z"/><path fill="#9cf" d="M814.51 362.056c12.185 24.448 69.632 71.303 86.433 81.003 19.168-11.068 69.848-57.37 83.973-81.004H814.51z"/><path fill="#f90" d="M904.22 231.606c5.415 12.14 22.77 25.545 27.542 32.114-6.073 6.57-7.287 5.854-6.49 18.06 10.56-10.535 10.75-11.633 17.542-10.035 14.88 14.155 2.663 44.557-9.634 51.166-12.294 7.052-10.062-.243-28.49 8.594 8.45 6.887 18.238-1.01 26.237 1.1 4.347 4.918-2.066 13.88 1.313 22.318 7.07-.65 6.22-14.256 7.866-19.19 5.164-18.076 36.214-30.683 37.793-47.263 6.545-2.93 13.09-.918 21.05 3.344-3.965-15.534-17.08-15.367-20.595-20.218-8.368-12.19-15.785-26.098-33.657-29.706-13.567-2.74-12.553.824-21.247-4.83-5.413-4.018-21.86-11.618-19.23-5.454z"/><path fill="#f90" d="M860.84 283.106c8.728-10.234 13.052-31.127 16.916-38.218 8.93 2.05 8.833 3.408 19.78-2.965-14.703-3.98-15.81-3.628-17.5-10.1 6.176-19.155 40.077-23.06 51.952-15.78 12.282 7.067 4.474 8.595 21.278 20 2.44-10.34-9.457-14.902-11.236-22.63 2.53-5.962 13.836-4.742 20.084-11.533-3.905-5.656-16.127 1.416-21.47 2.334-19.178 4.09-45.374-16.193-61.49-9.778-5.775-4.15-6.964-10.606-6.73-19.307-12.555 10.597-6.273 21.574-9.13 26.804-7.397 12.748-16.83 25.497-11.827 42.248 3.798 12.716 6.63 10.197 5.447 20.166-1.198 6.44-.562 23.856 3.925 18.758z"/><path fill="#f90" d="M931.763 290.302c-13.703-1.828-34.694 5.45-43.059 5.967-2.778-8.348-1.51-8.97-12.893-14.606 4.033 14.055 4.923 14.776-.012 19.504-20.39 4.868-41.432-20.773-41.04-34.226-.01-13.678 5.4-8.097 6.946-27.707-10.543 3.357-8.485 15.424-14.502 20.874-6.66 1.02-11.413-8.838-20.74-10.423-3.058 6.11 9.613 12.426 13.2 16.31 13.593 13.53 8.936 45.398 23.03 55.228-.738 6.86-5.918 11.17-13.85 15.48 16.01 4.76 22.613-6.043 28.785-6.417 15.27-.56 31.594.542 44.043-12.205 9.45-9.676 5.724-10.682 15.285-14.875 6.4-2.355 21.705-11.882 14.808-12.906z"/><circle fill="#fff" cx="266.239" cy="122.104" r=".806" transform="matrix(3.50845 0 0 3.34488 6.33 -163.01)"/><circle fill="#fff" cx="266.239" cy="122.104" r=".806" transform="matrix(-1.639 -2.95744 3.10207 -1.56258 914.323 1224.328)"/><circle fill="#fff" cx="266.239" cy="122.104" r=".806" transform="matrix(-1.80698 2.86712 -3.00733 -1.72273 1749.003 -240.213)"/></svg>