<svg xmlns="http://www.w3.org/2000/svg" xmlns:xlink="http://www.w3.org/1999/xlink" width="450" height="300"><path d="M0 0h450v300H0z"/><path fill="#ce1126" d="M0 0h450v150H0z"/><g fill="#f9d616"><path d="M231.115 91.82a58.5 58.5 0 1 1-43.2 103.424l-8.557 10.44a72 72 0 1 0 53.168-127.29z"/><g id="b"><path id="a" d="M302.624 142.355c.5 5.085.5 10.206 0 15.29l-14.927-1.47c.404-4.106.404-8.243 0-12.35z"/><use xlink:href="#a" transform="rotate(23 225 150)"/><use xlink:href="#a" transform="rotate(45 225 150)"/></g><use xlink:href="#b" transform="rotate(-67 225 150)"/><use xlink:href="#b" transform="rotate(68 225 150)"/><path d="M199.324 114.656h51.352l-41.543 30.184L225 96l15.867 48.84zM287.88 216.315c3.837 3.714 9.005 7.375 12.754 10.702 3.748 3.327 6.62 6.093 8.945 9.872 3.406 5.538-.42 11.81-5.725 8.13-2.87-1.992-4.672-7.368-9.067-11.816-3.255-2.77-5.82-5.677-14.002-7.078-.393-.068-.508-.898-.2-1.26z"/><path fill="#000" d="M231.36 197.845l20.248 11.972 4.4 17.08 23.242-1.762 10.212-11.972-37.854-26.234-20.247 10.915z"/><path d="M279.663 223.69c-26.035-17.315-42.59-26.664-67.542-40.85-9.8-5.574-25.022-19.583-13.015-43.02.756 15.386 61.57 57.622 87.265 75.987z"/><path fill="none" stroke="#000" stroke-width="1.5" stroke-linecap="round" d="M216.086 167.52c20.045 18.89 45.29 34.3 67.812 51.335"/><circle id="c" cx="290.4" cy="222.297" r="1.008" fill="#000"/><use xlink:href="#c" x="7.42" y="6.466"/><use xlink:href="#c" x="13.938" y="13.09"/></g></svg>