<svg xmlns="http://www.w3.org/2000/svg" width="744" height="496"><path fill="#3a7dce" d="M0 0h744v496H0z"/><path fill="#fff" d="M183.295 238.54c-4.053-8.11-4.053-8.11-4.053-16.216-2.027 0-2.407.38-3.58.062-1.17-.316-1.614 7.476-5.415 5.955-.633-.76 2.724-6.395-.918-8.738-1.173-.763.284-5.386-.223-7.413 0 0-4.623 2.405-8.107-6.08-1.71-2.22-4.054 2.025-4.054 2.025s1.013 2.597-.823 3.23c-2.597-1.9-4.498-.903-7.79-3.515-3.295-2.613.696-5.605-5.575-7.822 4.054-10.134 4.054-8.108 14.188-12.16-6.08-4.055-6.08-4.055-10.134-10.136-6.08-2.027-8.108-4.053-14.19-8.107-8.106-10.135-12.16-30.403-12.16-44.59 5.13-4.752 12.16 16.214 22.296 22.294l14.188 6.08c8.107 4.054 10.134 8.107 16.215 12.16l18.243 6.082c8.107 6.08 12.16 14.188 18.242 16.215 6.587 0 7.856-3.794 9.968-4.03 11.916-.61 17.997-2.146 20.372-5.725 2.406-2.85 8.17 1.647 24.385-4.433l-2.026-8.11s4.307-3.546 10.134-2.026c-.158-3.705-.54-13.586 5.2-18.044-3.485-3.657-1.146-6.278-1.146-6.278s3.23-3.104 3.61-4.75c-1.71-8.932 1.483-9.07 2.2-11.698.714-2.627-2.758-1.727-1.78-5.35.978-3.622 6.85-4.482 7.636-7.466.79-2.984-1.674-4.48-1.532-5.193 1.267-2.85.19-9.564 0-12.162 10.895-2.913 14.442-11.78 18.242-8.107 2.027-12.16 4.054-16.215 16.215-16.215 1.71-3.736-4.435-6.903-2.027-8.107 4.054-.506 7.157-.253 11.91 5.89 1.5 1.948 1.772-2.85 3.292-3.356 1.52-.507 5.158-.515 5.7-2.914.57-2.47 1.394-5.7 3.42-9.754 1.71-3.295 3.04 1.266 4.56 7.727 8.553.316 27.87 2.216 35.978 4.433 6.08 1.584 10.135-1.583 15.962-2.217 4.307 4.307 8.36 1.077 10.64 10.26 3.22 4.957 8.488.445 9.63 1.902 6.777 18.685 30.086 6.08 31.86 6.397 2.975 0 6.61 8.355 8.954 8.147 3.808-.642 2.73-3.24 6.056-2.194-.888 7.03 6.525 15.138 6.525 20.395 0 0 1.804.888 3.476-.672 1.67-1.56 3.205-5.566 4.693-5.47 3.547.506 4.984.962 9.072 1.676 10.99 3.755 16.588 4.602 20.857 6.526 1.986 3.634 3.91 5.495 7.935 4.816 3.326 2.234.9 5.16 2.864 5.35 4.055-2.027 5.385-4.244 9.438-2.217 4.054 2.026 8.108 6.08 10.135 10.134 0 2.026-2.027 10.134 0 22.295 1.013 4.053 1.504 7.267 5.86 14.22-1.158 7.14 5.478 19.16 5.478 22.2 0 4.053-3.23 6.144-5.257 10.197 8.108 6.08 0 16.215-4.053 22.296 30.403 6.08 16.215 18.242 40.537 12.16-6.08 14.19-3.928 13.05 2.153 27.238-12.162 8.11-.252 10.578-8.36 20.712-.506.634 4.813 8.805 12.288 8.805-2.027 16.215-8.108 10.134-6.08 34.457-15.963-.316-9.503 18.18-20.27 16.215.633 11.59 6.144 12.604 4.054 24.32-8.107 2.028-8.107 2.028-12.16 8.11l-6.082-2.028c-2.027 10.134-6.08 12.16 0 22.296 0 0-7.854.253-10.134 0-.19 3.484 3.484 4.434 4.054 8.107-.317 1.457-11.53 7.854-20.27 8.108-2.28 5.004 6.08 10.325 5.575 12.858-9.502 1.837-13.682 13.492-13.682 13.492s4.877 1.964 4.054 4.054c-2.596-1.9-4.054-2.027-8.107-2.027-2.027.506-6.967-.125-11.704 7.87-5.2 1.714-7.653 1.094-11.597 6.31-1.747-4.97-4.258.046-7.33 1.973-3.067 1.93-7.2 6.727-7.755 6.523.127-1.395 1.9-6.462 1.9-6.462l-10.134 2.027-1.247.126c-.797.08-.584-5.916-2.505-5.7-1.92.22-7.415 7.54-9.288 7.77-1.87.23-2.462-2.33-4.074-2.106-1.61.223-4.753 7.722-5.894 7.92-1.14.2-5.667-4.557-9.546-3.893-19.953 7.032-23.12-13.87-26.224-2.09-4.18-2.217-3.456-.93-7.704.183-2.71.7-2.957-3.583-5.367-3.517-4.82.136-4.568 4.697-7.197 3.335-2.152-9.502-15.14-7.792-16.405-11.845-1.03-4.228 5.626-4.208 7.78-7.072 1.645-4.132-1.72-5.7 4.96-9.688 8.704-5.888 3.7-8.11 5.226-12.534 2.73-6.39 2.746-7.95.466-13.586 0 0-6.778-18.242-8.108-18.242-4.053-1.14-4.053 6.713-10.008 8.868-12.16 4.053-33.632-10.262-37.37-10.262-3.42.064-19.26 3.75-18.66-4.147-2.37 7.678-11.078 1.803-11.615 1.803-8.11 0-5.006 6.27-10.454 6.017-2.47-.823-27.426-2.28-27.426-2.28v4.054l-16.215-8.108-14.188-4.053c-12.16-4.054-6.08-14.19-26.35-8.108v-12.16h-10.133c4.053-24.324 0-12.162-2.027-34.458l-8.108 2.027c-8.108-10.958 11.273-8.868-6.08-16.215 0 0 .315-12.1-4.055-8.11-.887.508 2.027 6.082 2.027 6.082-16.215-2.027-20.27-6.08-20.27-22.296 0 0 13.366 1.9 12.162 0-1.9-3.04-4.37-22.802-3.927-24.132-.19-2.66 12.415-9.374 9.976-15.773 1.552-.57 6.112-.63 6.112-.63"/><g fill="none" stroke="#fff" stroke-width="2.5" stroke-linejoin="round"><path d="M595.512 297.57c-.592 1.333-.487 2.663.125 3.613 1.1-1.648.17-2.408-.125-3.612zM119.512 148.153s-3.104-.38-2.407 2.344c1.014-2.09 2.344-2.217 2.407-2.344zM120.21 141.82c-1.71.063-3.802-.254-3.105 2.47 1.014-2.09 3.04-2.344 3.104-2.47zM131.888 178.113s2.66-.19 1.964 2.534c-1.014-2.09-1.9-2.407-1.964-2.534z"/></g></svg>