<svg width="800" xmlns="http://www.w3.org/2000/svg" xmlns:xlink="http://www.w3.org/1999/xlink" version="1" height="500"><path fill="#74acdf" d="M0 0h800v500H0z"/><path fill="#fff" d="M0 166.67h800v166.67H0z"/><g id="c"><path id="a" stroke-width="1.112" stroke="#85340a" fill="#f6b40e" d="M396.84 251.31l28.454 61.992s.49 1.185 1.28.86c.79-.328.3-1.513.3-1.513l-23.716-63.957m-.68 24.12c-.347 9.428 5.452 14.613 4.694 23.032-.757 8.42 3.867 13.18 4.94 16.454 1.073 3.273-1.16 5.23-.198 5.697.963.466 3.07-2.12 2.383-6.775-.687-4.655-4.22-6.037-3.39-16.32.83-10.283-4.206-12.678-2.98-22.058"/><use xlink:href="#a" transform="rotate(23 400 250)"/><use xlink:href="#a" transform="rotate(45 400 250)"/><use xlink:href="#a" transform="rotate(68 400 250)"/><path id="b" fill="#85340a" d="M404.31 274.41c.453 9.054 5.587 13.063 4.58 21.314 2.212-6.525-3.125-11.583-2.82-21.22m-7.65-23.757l19.487 42.577-16.33-43.887"/><use xlink:href="#b" transform="rotate(23 400 250)"/><use xlink:href="#b" transform="rotate(45 400 250)"/><use xlink:href="#b" transform="rotate(68 400 250)"/></g><use xlink:href="#c" transform="rotate(90 400 250)"/><use xlink:href="#c" transform="rotate(180 400 250)"/><use xlink:href="#c" transform="rotate(270 400 250)"/><circle r="27.778" stroke="#85340a" cy="250" cx="400" stroke-width="1.5" fill="#f6b40e"/><path id="h" fill="#843511" d="M409.47 244.06c-1.897 0-3.713.822-4.78 2.53 2.136 1.924 6.855 2.133 10.06-.218-1.387-1.495-3.384-2.312-5.28-2.312zm-.03.438c1.845-.034 3.57.814 3.81 1.656-2.135 2.35-5.55 2.146-7.686.437.935-1.494 2.44-2.066 3.875-2.093z"/><use xlink:href="#d" transform="matrix(-1 0 0 1 800.25 0)"/><use xlink:href="#e" transform="matrix(-1 0 0 1 800.25 0)"/><use xlink:href="#f" transform="translate(18.862)"/><use xlink:href="#g" transform="matrix(-1 0 0 1 800.25 0)"/><path d="M395.75 253.84c-.913.167-1.563.977-1.563 1.906 0 1.062.878 1.906 1.938 1.906.627 0 1.202-.296 1.563-.812.74.556 1.764.615 2.312.625.084.002.193 0 .25 0 .548-.01 1.573-.07 2.313-.625.36.516.935.812 1.562.812 1.06 0 1.938-.844 1.938-1.906 0-.93-.65-1.74-1.563-1.906.513.18.844.676.844 1.22 0 .706-.57 1.28-1.28 1.28-.682 0-1.243-.54-1.283-1.22-.207.418-1.033 1.656-2.655 1.72-1.622-.064-2.447-1.302-2.656-1.72-.04.68-.602 1.22-1.282 1.22-.71 0-1.28-.574-1.28-1.28 0-.543.33-1.04.842-1.22zM397.84 259.53c-2.138 0-2.983 1.937-4.906 3.22 1.068-.428 1.91-1.27 3.406-2.126 1.496-.855 2.772.187 3.625.187h.03c.854 0 2.13-1.04 3.626-.186 1.498.856 2.37 1.698 3.44 2.125-1.925-1.283-2.8-3.22-4.94-3.22-.425 0-1.27.23-2.124.656h-.03c-.854-.426-1.7-.656-2.126-.656z" fill="#85340a"/><path d="M397.12 262.06c-.844.037-1.96.207-3.563.688 3.848-.855 4.697.437 6.407.437h.03c1.71 0 2.56-1.292 6.407-.438-4.273-1.282-5.123-.437-6.405-.437h-.03c-.803 0-1.438-.312-2.845-.25z" fill="#85340a"/><path d="M393.75 262.72c-.248.003-.52.005-.813.03 4.488.43 2.33 3 7.032 3h.03c4.7 0 2.574-2.57 7.062-3-4.7-.425-3.214 2.345-7.062 2.345h-.03c-3.61 0-2.497-2.421-6.22-2.375zM403.85 269.66c0-2.123-1.723-3.846-3.846-3.846-2.124 0-3.847 1.723-3.847 3.846.423-1.78 2.017-3.04 3.847-3.04 1.833 0 3.424 1.26 3.846 3.04z" fill="#85340a"/><path id="e" fill="#85340a" d="M382.73 244.02c4.915-4.273 11.11-4.915 14.53-1.71.837 1.122 1.373 2.32 1.593 3.57.43 2.434-.33 5.063-2.236 7.757.215 0 .643.212.856.427 1.697-3.244 2.297-6.577 1.74-9.746-.145-.828-.373-1.643-.67-2.436-4.7-3.845-11.11-4.272-15.81 2.138z"/><path id="d" fill="#85340a" d="M390.42 242.74c2.777 0 3.42.642 4.7 1.71 1.284 1.068 1.924.854 2.137 1.068.213.215 0 .854-.426.64s-1.282-.64-2.562-1.708c-1.284-1.07-2.564-1.07-3.847-1.07-3.845 0-5.982 3.206-6.408 2.992-.427-.214 2.136-3.632 6.41-3.632z"/><use xlink:href="#h" transform="translate(-19.18)"/><circle id="f" cy="246.15" cx="390.54" r="1.923" fill="#85340a"/><path id="g" fill="#85340a" d="M385.29 247.44c3.633 2.778 7.265 2.564 9.402 1.282 2.136-1.282 2.136-1.71 1.71-1.71-.427 0-.853.428-2.564 1.282-1.71.856-4.273.856-8.546-.854z"/></svg>