<svg xmlns="http://www.w3.org/2000/svg" width="1200" height="600"><clipPath id="a"><path d="M0 0v150h700v150H600zm600 0H300v350H0v-50z"/></clipPath><path fill="#00247d" d="M0 0h1200v600H0z"/><path d="M0 0l600 300m0-300L0 300" stroke="#fff" stroke-width="60"/><path d="M0 0l600 300m0-300L0 300" stroke="#cf142b" stroke-width="40" clip-path="url(#a)"/><path d="M300 0v350M0 150h700" stroke="#fff" stroke-width="100"/><path d="M300 0v350M0 150h700" stroke="#cf142b" stroke-width="60"/><path d="M0 300h600V0h600v600H0z" fill="#cf142b"/><path fill="#fff" d="M767.32 145.154v253.64c3.002 36.315 78.686 59.177 131.454 97.747 69.212-46.42 136.34-55.81 139.04-107.857l.84-243.53h-271.33z"/><g fill="none"><path fill="#2f8f22" stroke="#000" stroke-width=".456" d="M767.292 395.158l2.834 14.485 9.447 11.338 68.34 44.086 50.072 31.18 97.626-53.222 33.698-25.826 6.615-33.696-4.096-7.872.946 8.188-2.52 6.613-2.833-1.89-1.89-12.28-.316 9.13-4.723 5.357-.944-6.617 1.26-4.722-1.89-5.353-.63 10.706-2.518 4.727-2.206-3.15.946-4.727-.315-4.406-1.575-2.207-.317 4.725-.942 1.574.315 2.833-1.89 1.89-1.26-3.778.63-3.466-.63-3.147-1.26-3.468.317 5.67-3.15 6.928-2.52 1.574-1.574-1.89.316-6.613-2.205-3.776.63 8.187-3.15 7.246-1.888-2.207-.95-2.204v-3.467l3.468-8.818-3.467 3.15-2.83 7.557L989 385.7l-1.575-3.778 2.205-8.503-1.26-1.57-2.834 10.39-2.52 1.574-1.89-.63-1.26.63-152.424 8.504-4.094-5.985-.943 5.985-2.522 2.203-2.517-11.022-1.89 11.654-2.52-5.67 1.26-12.913-1.26-.944-1.89 6.927v9.763l-.945 6.614-1.89-1.26-2.517-5.984-.315-9.764.943-6.928-2.517 8.188v10.08l-.315 5.035-3.15-6.927-1.575-5.67-3.15-6.612 1.89 8.503V392l-5.354-4.725-2.834-13.225-.63 9.763 1.26 4.722-1.574 1.89-3.15-5.67-1.888-7.555-2.204-7.244v11.65l1.574 6.3-1.26 1.576-2.52-1.26-.944-6.93-.63-10.076-2.52 6.927-.63 7.24-.945 5.67-1.574 3.782-4.408.323z"/><path stroke="#4dcf4a" stroke-width=".913" d="M876.022 472.104c-.818-14.885 12.643-29.772-23.593-44.66"/><path stroke="#38bb26" stroke-width="1.141" d="M910.572 463.678c0-19.662-11.236-28.087-33.707-25.28"/><path stroke="#51c757" stroke-width=".913" d="M922.368 472.104c-11.875-14.298-27.737-12.642-46.346 0M951.86 453.566c-4.51-8.406-20.974-2.87-38.76 4.217"/><path stroke="#7acb73" stroke-width=".822" d="M1011.69 426.602c-4.494-12.92-12.358-20.225-23.594-21.91"/><path stroke="#4cb135" stroke-width="1.141" d="M1026.86 406.376c-2.98-6.674-6.1-13.075-13.482-10.955"/><path stroke="#60c85a" stroke-width="1.278" d="M845.686 459.466c3.925-13.476-.332-18.77-7.583-21.067"/><path stroke="#71ce5b" stroke-width="1.187" d="M781.645 409.747c7.5-3.256 13.49-9.532 24.436-5.896M772.375 401.323c6.125.128 10.402 2.52 11.796 8.425"/></g><g stroke="#000" stroke-width=".456"><path d="M905.36 150.642c-3.542 3.26-7.176 6.25-12.28 4.957-3.494 1.43-.106 9.67-5.793 7.973-5.52-4.368-4.058 5.21-7.595 7.214-3.232 1.033-9.232 2.622-4.482 6.46 2.904 2.836 5.695 7.763.94 10.235-2.754 5.184-3.34-4.775-7.425 1.074-1.324 5.916 8.79 4.627 4.088 9.212-.788 2.743-3.598-6.762-6.447.795-2.214 3.127-2.3 7.744 1.952 9.14 3.622 2.08 11.215-1.082 6.692 5.022 0 3.602-5.948 9.583-3.69 2.8 4.065-4.72-1.835-6.024-4.507-2.805-5.486 3.74-3.207 12.066 2.152 14.468 1.587 3.324 3.2 4.202-.818 8.203.55 4.01-.283 7.453-5.568 7.202-2.952 2.797-4.935 7.463-10.548 6.76-5.388 2.17-6.743-1.374-7.76-5.65-1.743-4.25-8.865-6.68-11.464-1.984-3.12-1.262-7.17-7.188-10.37-1.356-2.843 3.895-7.34-2.278-10.345 2.79-3.494 3.837 2.174 7.42 2.993 10.348 4.673 3.767 2.16 5.993 1.16 10.864-1.694 4.413 6.186 7.145 3.747 10.683-3.502 2.735-9.136 5.89-7.783 11.13-4.964 1.75-4.293 7.444-2.756 11.386 2.5 5.628 13.084 4.99 12.577-1.9 2.803-.4 6.097 5.682 8.14 8.635-1.98 2.08-8.404-.427-11.95 1.373-4.647-.478-8.634 4.574-13.272 5.255-3.363 1.993-7.842 4.584-6.724 9.42.834 4.066 2.372 8.11 1.774 12.29-2.23 3.695-4.14 7.612-3.958 12.07-1.966 6.513 2.427 14.368-3.145 19.7-1.574 4.817 2.702 4.795 4.608 1.723 2.583 1.132 4.215-3.28 3.972-5.184 2.26 4.124 3.04-1.13 5.086 2.742 4.14-1.374-.94-13.305 1.653-8.313 1.976 2.898 3.022 9.057 5.87 9.488 3.167-1.253 1.556-12.9 3.844-3.84 2.47 8.078 3.753 16.602 7.83 24.03 2.397 6.985 8.72 13.51 16.717 12.146 2.267 2.148-3.514 6.59-4.624 9.624-3.574 2.705-7.987-.786-11.767-.938-3.79 1.473-8.143 2.277-10.838 5.536-1.727 3.792-3.046 7.1-3.434 10.855-.887 5.31.132 11.423 5.43 14.047 1.326-4.065.322-7.53 5.988-7.18 3.963 2.273-.436 8.102 3.088 11.678 1.78 3.71 6.917 8.342 5.22 1.03-2.016-5.742 3.357-5.794 6.617-8.162 4.295-4.53 4.972-.126 4.394 4.302 2.408 3.15 7.216-2.93 8.382-5.643 1.663-3.145.098-9.927 3.055-8.56 3.808-.98 6.274-4.467 9.262-6.94 2.693-5.24 7.736-.07 11.705.69 4.944 2.132 11.575 1.376 13.803 7.37-3.808-1.88-8.258 1.64-6.864 6.387 1.927 4.87 7.81 3.45 11.35 2.756 3.563 1.468 7.576-3.006 11.408.298 3.75-.817 7.885-.305 11.406-2.178 3.468-2.85 2.047-9.28-3.03-8.3 2.323-3.432 7.59-4.394 11.093-6.785 4.027-.366 7.53-4.832 11.058-4.17 5.026 3.478 7.524 9.095 11.844 13.11 4.234.49.31 6.377.764 9.973-1.134 4.345 1.297 10.36 4.926 4.42 2.186-3.95 8.198-2.82 8.523-8.005 1.678-4.38 2.81 6.4 7.104 5.825.29 3.346-.977 11.535 4.07 6.148 4.43-4.065 5.167-10.29 3.59-15.805.71-4.513 7.24 2.715 6.054 5.954 1.01 4.168 6.18-3.6 6.91-5.973.568-6.086.747-13.276-3.863-17.94-3.5-1.737-4.948-7.177-9.954-6.975-3.445 1.895-7.375 5.505-8.844-.822-4.544-4.036 3.08-4.32 5.625-6.172 5.123-3.237 7.928-8.793 8.967-14.565 1.864-5.297 3.463-10.685 4.685-16.168 4.008-1.44 7.765-4.377 9.996-6.806 4.553-8.555.198 6.418-1.42 9.94 3.48 1.54 8.028-1.246 9.518-4.932 2.242-2.484 2.736-12.253 3.903-4.43.52 2.708-4.304 10.748-.395 9.326 4.04-1.293 7.28-5.18 9.137-8.92 1.62-5.02 3.228-11.126 1.187-15.964 3.248-2.224-.235-11.523-3.75-6.467-4.514-.85-3.216-7.42-4.04-10.66 3.697-5.233.614-15.367-6.58-15.12-3.634-2.084-6.534-3.016-10.26-4.42-4.843 1.51-8.302-3.068-13.12-2.275-7.278.36.612-7.967 3.435-5.097 3.3 4.253 10.294 6.276 13.69 1.073-.16-3.923-.15-9.324-3.653-12.394-.695-4.387-1.865-8.534-4.883-11.952-3.704-5.446 3.11-6.713 5.355-10.104.996-4.387-1.666-9.2-4.292-12.782 2.824-2.826 5.67-8.063 2.635-11.652 1.13-3.422-6.573-4.017-9.066-3.68-4.99-.33-9.182 4.22-14.15 4.562-4.252 3.468-9.405 5.395-14.874 4.014-3.87-.96-6.9-5.21-8.975-7.735-5.043 2.76-.915-5.446-5.01-7.85-2.833-3.884-8.7-3.05-6.572 2.65-3.705 4.527-.473-6.087-2.79-8.26-3.016-7.273-1.78-2.055 2.293-.066 4.528 3.1 11.12 1.226 12.254-4.338-2.223-3.304.26-9.824-4.752-9.356-3.67.56-3.854 9.498-5.91 2.19-.556-4.032-2.83-7.386-4.863-10.847 2.73 4.795 8.022 9.975 13.89 7.02 3.15-2.06 4.268-7.18 2.375-10.248.177-10.61-5.948 5.636-8.76-2.757-6.502-1.926 12.46-8.926 4.682-11.246-2.646 3.682-8.39 1.95-8.997-1.917 3.28-1.836 6.403-8.92 4.234-11.263-4.732-2.685-6.564-6.74-5.507-12.178-2.773-2.97-9.863 2.25-10.276-4.43-.23-6.205-5.882.82-8.98-1.423-2.338-1.38-4.713-2.754-6.924-4.478z"/><g fill="#d40000"><path d="M904.106 194.538c-.31 6.88-6.22 5.435-7.908 3.553-1.624-6.29 7.8-8.014 7.908-3.552zM907.31 194.143c.615 5.434 6.846 6.188 8.026 3.912 2.06-5.19-5.677-8.485-8.027-3.912z"/><path stroke-linejoin="round" d="M903.48 188.9v1.19l-.654.12-.238-.297-.177-1.847-.357-.178v-.834l.833-.058v-.776h-1.012l-.36.776-.18 1.07.42.895-.42.716-.77.417-1.074 1.014-.717.356-1.668.18-1.37-.657-1.372-1.31s-.595-.954-.655-1.192c-.06-.238-.417-1.072-.417-1.072l-.358-.894-.655-.715-1.013-.12-.298 1.25-.356.478-.835.12-.892-.774-.596-1.013-.657-1.312-.536-.893-.774-1.13-.36-.655-.355-1.55-.896-1.132-.596-.953-.95-.774-1.015-.775h-1.193l-.775-.596-1.13-1.072-.835-1.132-.534-.655.12-.597.416-.537.893-.536.892-.06 1.014-.238 1.012-.536.18-.716.178-1.19 1.07-1.908.478-1.37.06-1.072 1.55-.24 1.49.18 1.07.3 1.133.355 1.31-.656 1.074-1.372.356-2.382.477-2.204.537-1.25h2.742l.95.655.776-.356.714-.357 1.73.177h.892s.715-1.13 1.014-1.31c.296-.18 1.727-2.086 1.727-2.086l1.845-.476.953.12 1.312 1.49 1.07.656.955.06 2.265 1.49s.715.594.954.474c.237-.12 2.265-1.013 2.265-1.013l1.784-.12 1.908-.655.655 1.488s.954 2.265 1.252 2.503c.297.238 1.488 2.5 1.488 2.5s.596-.296.895-.356c.296-.06 1.667.298 1.667.298l3.932.18.537-.597.414.716-.534 2.74.237 2.086.716 2.8.892 1.312 1.193.058 1.55 1.312.06 1.31-1.192.418-1.073-.358-1.373.774-2.143 1.25-1.79 1.79-1.546 2.202-1.013 2.204-1.012.716-.895-.358-.894.06-.416 1.072-.894 1.07-.775 2.742-1.667 1.847-1.728.834-1.25.954h-.834l-1.43-1.37-.654-.596-.178-2.144-1.373-1.074h-1.014l1.492 1.192.06 1.608-.833.714-.42-.118-.415-.834h-.48l-.06 1.608-1.786 2.085-1.787-1.488-.06-1.907-.892-.175z"/><path d="M874.307 173.86l2.662.085 1.374 2.063 1.202 1.288 1.2.945 1.033.172 1.975 2.92v.345l1.544 1.374.43 1.803.17.6-.085.774-.86.516-1.03-.173-.6-.43-1.89 1.633-1.202 1.632-.773.173-2.063 2.232-1.03.344-1.632 1.202-2.576-.086-1.632-1.975-.342-.774-.086-1.545 1.46-1.03.687.772-.342.773.084.946.86.343.857-.088 3.092-2.662.772-.43 1.804-1.802 1.117-.602-.085-1.116-1.29-1.975-.427-1.374-.343-1.288-.342-.945-1.203-1.373-.688-.774-.258-.773-1.2-.945-.344-.173v-.6h-.005z"/><path fill="#a00" d="M926.01 183.908h1.374l1.46-.688 1.118-.944h1.03l.687.686 1.116-.085.687-.86.258-1.03.945-1.287.258-1.29.86-1.803.257-1.29-2.147-.084-2.49 2.148-1.89.086-1.546 1.632-1.202.17-1.288 1.89-.43 1.118.173 1.117.77.515z"/><path stroke-linejoin="round" d="M899.472 201.173l-1.633 1.632-.43 1.46.687 1.458 1.547.258 1.117-.6 1.03 1.203.172 2.06 2.062 2.233.944.258.774-.86.858-.858.086-.858 1.376-.6.343-2.578.774.943 1.285-.772 1.633-.17v-2.148l-.6-1.46-1.29-.945-1.975-.86-2.147-.772-1.03.087-1.893 1.118-2.06.685-1.63.088z"/><path stroke-linejoin="round" d="M912.4 200.64l3.1-.14c2.128-1.38 3.05-7 4.513-10.714 2.27-2.945 5.06-3.826 8.46-2.256l1.974.564 2.537 1.973h1.83l1.272.282 1.974.14 3.525-2.82-.14 2.96-2.398 2.115-4.934 1.834-3.808-2.256-.14.564 8.178 9.02h.704l1.41 1.41.705-.563.14-2.396 2.822-2.538.28 3.665.988 1.832v3.524l-2.68 3.384-4.228.564-4.934-3.1-.14-1.41-4.514-5.217v2.256l2.68 5.5.422 2.113.988.988.706 1.694v2.115l1.267 2.96 2.255.28.566-1.41v-1.973l2.398-2.398 1.55-.14.565.845-.705.704-.282 1.55v.987l1.974 2.68.565 1.69-2.962 4.512-1.975.564-3.523-.565-2.116-1.41h-1.13l-3.242-4.936-.422-2.396-4.37-6.91-.144 1.41 1.694 2.117.845 3.242.846 5.78 2.538 4.935.14 9.165.848.986h1.125l1.41-1.127 1.128-1.55-.282-5.358h1.552l2.678 1.55 1.974 3.244.705 1.41v2.96l-.986.14-1.975 2.116-3.242 1.41h-5.638l-1.268-1.128h-1.128l-.845-.846h-1.553l-4.373-6.203-.14-10.29.565-2.256v-3.102h-.705v3.102l-.707 1.975-.14 2.818.14 7.755 4.652 7.472 3.384 1.692.988 1.128h-1.55l.14 1.128-1.27-.282-.28.565-.705-.282-1.27-.847-1.693.283-1.126.563h-2.96l-1.27-2.538-.986-1.974-3.384-3.1H909.3l-.564-1.833.423-3.243.706-2.96v-7.896l-.566 9.024-1.55 5.075-.565.423-.14 5.78.986 2.68 3.948 4.37-2.678.28-1.974-.843-2.116.42-3.24-.704-3.668-1.268-2.397-2.396-1.128-2.68-.423-2.678-.564-2.82.564-2.255.282-2.256-1.127 2.538v6.062l-1.553-.422v-1.692l-1.268-1.692-.282-2.256-.423-3.383-.143-5.498.143-3.384.704-3.807-.565-.14-.425 4.794-.28 9.445-.987.283-2.255 3.1H881.1l-1.974-1.69 3.808-4.09-.423-3.242-.423-3.805-.423-6.485-4.37 4.652-4.935 3.526h-4.23l-2.397-2.962-.425-3.38.283-2.4 2.538-3.383 1.83-.28.708-.706.423.565-.987 2.82-.987 2.114.845 1.973 2.4.282 3.1-4.793 2.397-5.64 1.832-2.82v-1.55L878 206.57l-1.976.424-5.78.14-3.382-2.114-.565-1.692.14-1.55.143-2.115 3.665-2.398.14 5.075 2.4-1.974v-.982l3.1-4.09 7.472-6.625h4.512l2.677 1.973 1.126.282 3.244 3.102.14 3.947 3.808 3.102-2.256 2.68.137 1.41 2.118 1.55 1.973-.564.846 5.217 2.396 1.41 1.27.14 4.794-5.64 2.115-.282 1.268-2.82-.567-2.256-.56-1.277z"/><path d="M858.21 249.643v.827l1.656 2.247-.12 2.367-8.4 4.26-3.663.236-1.895 1.774-4.85 1.538-2.128-.474.354-1.182.236-2.01-.236-1.184-1.537-.828v-1.895l1.892-.59-.594-.828-1.064-.12.237-2.483.472-.947.12-.592-.12-1.183-.473-1.064-1.303-.356-3.784 1.54-.592-.594-1.774 1.893-.947.12-.118-1.54-1.893-2.485v-.473l-3.55-.59-2.484 3.194h-1.775l-1.3-.945h-1.065l-1.18.708-.713-.235-1.064 1.894h-.59l-.712-1.54-.946-1.537-.354-.948.474-1.89 1.537-.948 1.89-.95 1.424-.234 1.655.947.71 1.536 2.13-2.01 2.128-2.368 1.774-.71 2.25.355 2.484 3.313 2.365.235 2.84-2.01 1.065-.592 2.604.355 2.603 1.42 2.72 4.02.474 3.904.59 1.066 4.733-.357 4.968-.944 2.84-.113z"/><path d="M861.05 244.32l-1.303 5.796 1.537 1.656-.12 1.893.828.828 1.54-.828 1.536-1.065 1.537-.593 1.775-.945.235-1.066 1.892-.945 2.013-.592 2.6-.71 2.605-.355-1.892-1.302-5.442-3.546-2.248-.237-.828.71-3.192.118-1.773.472-1.3.712z" stroke="none"/><path d="M887.192 238.523l-3.785-.12h-2.486l-2.01-.826-1.655-1.656-.237-1.537-1.182-1.892-1.183-1.183h-1.775l-2.482 1.656-1.066 2.13-.235 3.43 1.418 2.957 4.732 3.55 2.72.59 1.896-.826 4.258-1.893 2.72-1.773.95-1.538-.596-1.067zM878.083 233.08l2.128-2.246.12-5.088-.592-.473.59-2.01.238-1.657h-.828l-4.614 4.376-3.195.473-1.654.948-.12 1.182 1.302.828 2.366-.237 1.3.12 2.96 3.784z"/><path d="M879.976 246.448l4.14-.355 3.312.237 1.656.474 3.313 1.774 1.894.948 3.668-.238-1.42-1.773-1.42-1.775-.948-1.775-.236-1.773-.825.236-.95-.236-1.18-1.538-.71-2.248-.476-2.957-.944-.12-.712 1.418.712.71.708 1.42-1.183 1.536-.118 1.185-1.537 1.182-2.13.947-2.01.826-2.25.828-.354 1.064zM910.26 241.006l.12 5.087 1.774 1.538h1.654l1.302-.708.356-1.064-1.184-.71-.474-1.42-2.484-2.72h-1.065v-.002zM929.543 245.028l5.086 3.43 1.537.475 1.42-.474 2.365-1.894 1.182-2.602.12-1.892-1.182-.118-1.893 1.302-2.722.236-2.13.354h-1.656l-1.657.355-.472.828zM944.21 241.126l-.944 1.538-.947 2.366-2.13 2.248.118 1.655h-.948l.12 1.302 1.654 1.3 4.616.71 3.668-4.73v-1.303l-2.012-2.367-1.42-.354-1.776-2.364zM965.74 254.375l2.368 1.183v.828l-.947 1.302-.59 2.483-.237 1.54-2.84.118-2.956-1.064-1.657-1.065h-1.538l-.828-.71-1.418-.947-1.776-1.184-1.89-2.484-1.302-1.656v-1.183l1.775-2.248 1.775-.59h7.926l3.666-1.303 2.956-2.484 3.55-.71.828-.946 2.366-.474 5.915-3.076 3.312.59 3.313-.117 2.838.827 1.066.947-.592.355-1.537-.12-1.775.947-.237 3.194 1.42 2.603-.355.71-1.774-.118-1.182-.593-.593-1.065v-1.064l-1.182-1.656-.947-.354h-2.126l-.71 4.494h-1.068l-2.008-1.774-2.96-.356-2.01 1.775.708 2.366 2.96 2.84h1.537l1.42 1.654-.12 1.3-2.128-.473-2.13-.473-1.774-.83-1.42.238-1.656-.948-1.656-.708-1.064-.475-.714.95zM973.724 307.228l-1.882 1.705-1.255 2.42-.447 2.507-.807 3.137-.36 2.42.36 5.287.18 2.866 1.702 2.69.895.268 1.075 2.15 1.523-4.21.72.536.446 3.136 2.51 2.15s-2.33-1.164-2.868-1.164-.627.626-.627.626l.626 1.344 1.432 1.434 2.51.984 4.66.09-1.075 1.075h-3.225l-.81.625 1.167 1.703 1.433 2.24 2.6 1.254 2.686-.716h.896l-.447 1.075 1.344.985 1.164 1.075 1.077 1.166.895.178v1.344l-1.612 4.034-.36 1.88-.894 1.524-.538 2.328-1.613 2.778-.18.986h.808l1.164-1.525 1.704-.716 2.062-2.688s1.164.36 1.434-.18c.268-.54 1.523-4.302 1.523-4.302l1.253-.27.628-3.94 1.076 3.674.898 4.66-.36 3.942-2.33 4.3-.626.72.358 1.432h1.702l1.972-2.063 3.404-4.57 1.347-4.57.717-8.87 1.523 4.122 1.434 4.03.72 3.137-1.078 4.122-1.344 4.84 1.793-1.256 3.765-4.212 2.955-4.388.808-3.226.717-6.184-.448-4.838.177-1.793.627-.985-.09-3.226-.627-1.344-2.15 2.867-.895.18-2.51-1.704-.626-.18-1.435-2.06-.984-3.317.09-3.764h-.537s.27-3.137.536-3.943c.27-.807.627-2.328.627-2.328l-.45-3.317-1.7-3.137-2.062-1.79-3.315-.984-3.855-1.077-2.24-1.79-4.21-.45-2.152.27-4.032-1.882-2.598-.986-3.314-.088-3.137-.36-1.616.094zM829.548 307.424l-8.264-.164-1.323-.662-1.98 1.652h-3.803l-4.133 2.314-2.81 2.148-1.486-.164-5.786 5.29.827 4.296.66 1.158.33 4.132.164 5.95-1.32.992-1.984 4.96-1.158 4.296-.992 8.43.827 6.28-1.158 3.306-2.314 3.637-.496 1.818 1.982-1.324-.328-.662.99 1.487 2.478-4.463.993 1.654.99.164v-5.62l-1.155-8.76 2.81 9.093.66 3.305.497-.167.33-7.437 1.817 4.133.166 3.635.826.663.498-.992v-5.453l-2.977-8.76-1.487-8.1 3.967 10.578 2.315 2.148L810.87 358l1.82 3.304.33 2.148 1.322-.826.498-.825-1.158-.826.825-.66-.167-2.975-.99-6.94h-.99l-3.472-7.274 3.14 4.464h1.322l.166-1.16-1.487-2.974-.33-3.47 2.974 4.297.99-.495-1.652-4.796-.33-5.454.992 2.314-.166 2.645 2.15 2.646 2.148 1.155 1.652-1.98-1.158-.83-.494-2.31-1.655-1.985v-2.646l2.318 4.133 2.147 1.488 2.15.496 2.148-1.487 3.635-4.133-.493-.497-3.804.167-2.974-1.984-2.644-2.478v-2.15l.496.33 1.156 2.316 2.15 2.15 2.478.328 3.142.167 3.47-3.14 1.82-5.95.495-3.307-.662-4.132-2.15-4.794-1.323-2.15-1.157-.496zM951.204 398.996l-8.762 9.088-1.157-.33-3.14 2.646-.165 2.81 2.975 2.316 1.158 2.148.827-.167 2.973 3.636 2.812 3.97 1.158.66.824 1.818-1.485 2.15.495 1.324 2.314-.333 2.647.168 1.65.99.663 2.977v1.155l1.818-.99 1.488-2.15.166-5.288-.33-1.487.494-3.968.496 5.288 1.158 1.654.826-.664.99 3.473 2.15 2.148 1.158 1.982.167-1.32-.166-2.645 1.158-2.976 1.322-3.472 1.323-.828 1.155.5 1.656 1.65-.166.662 1.488-.167-.333-3.966-2.147-2.977-3.307-2.145-1.652-1.653-1.486-2.645 2.314 1.322 2.48 2.314 2.312 1.158 1.654.33 2.812 5.454 1.818 2.645.33-3.636 1.322-4.134 1.324-1.817 1.652-.166 2.15.662-.498-2.48-1.652-3.14-3.306-2.974-3.472-2.645-2.973-1.325-2.646 2.316-.826.33-1.488 1.324-1.156-.496-3.802-3.64-.992-.658-1.652-3.97-2.48-1.157-3.802.333-4.632-.994zM851.863 396.848l1.158 1.98.993 3.142 1.652 1.82-.165.99 2.314 1.982 2.313 3.636 3.803 3.14-2.81 2.48-6.612 4.96-2.15.663-2.81-1.656.33 3.968 1.158 1.82-2.975-.662-3.47.33-2.15 1.82-.496 1.816-.826-1.32-1.158-1.82-.33-.33-.66.496.496.328.164 3.306-.825.663-.167.99-3.8 2.478-.992-2.478-1.325-2.81-2.312-1.158-2.478.332-2.81 1.652.825-2.314 1.654-2.645 3.138-2.644 3.14-1.982 2.48-.99.662-.333-.828-.825-4.626 1.32-3.307 2.15-3.473 2.48-2.644 3.8-1.322.99v-2.807l-1.488-3.802-.496-2.48-1.488-1.818h-1.817l-2.478.495 1.82-3.14 3.634-1.98 1.654-2.812 2.975-2.48 2.48-.497 3.636.497 1.817.995 3.474.163 2.147-.163 2.646-1.325 2.15-3.97 2.973-4.293 3.474-1.82 4.133-.326z"/></g><path d="M892.877 173.292v2.084l-.775 1.25h-1.37l-.833.895-.24.716 1.55 1.43 1.428 1.012.595.716.36.178 5.957-.06.714.715 1.312-.953 1.61-2.443 5.064.06 2.68 1.967.18 1.61.595.238 1.428-1.25 1.192-.06.595.775h1.074l3.515-3.16.595-.833 1.31-.06-.177-1.013-1.43-.357-1.25-1.25-.36-2.086-1.13-.177-1.966 1.013-3.396 1.668-1.133.834-1.012.06s-.416-.358-.655-.358h-1.31l-1.074.894h-.833l-.298-.298-4.588-.358-3.813-.953-1.97-1.31-1.25-1.013-.358-.356-.535.236z"/><g fill="#fff"><path d="M895.74 178.772h2.62l.655.536v.714l-1.25.537-2.206.118-1.55-.238-1.074-.954-.237-1.906 1.427-1.61h1.372l.12.538.12 2.264zM913.254 178.654l-.416.356v.716l.534.357 2.623.12 2.86-2.263.06-.895-1.726-1.49h-1.492l-.238.417.358.775.476.715-.476.953-2.564.24z"/></g><g fill="#48489c"><path fill="#5656a6" d="M819.408 249.526l1.538 2.72-.117 4.85-.594.592-2.246-1.893-1.185-1.655-1.183-2.01v-1.775l1.183-.947 1.537-.354 1.066.472zM824.14 257.33l3.43-7.097v-1.892l-1.3-1.894h-1.776l-1.89 1.775v6.27l1.537 2.84zM830.054 257.33l1.894-.827 4.614-4.377.71-1.3-.358-1.066-1.3-.946-.826-.237-1.894.828-1.064 1.065-2.13 3.784.354 3.076zM838.22 260.406l-1.658 1.184-1.894-.118-3.428-2.367.117-.474 2.13-.354 1.892-.828 1.89.118 1.068.946.353 1.066-.47.828z"/><path d="M970 256.975h2.722l1.537.828h3.074v1.184l-1.774 1.3-3.43.947-1.54.71-1.182-.12-.828-1.064v-1.656l.71-1.42.71-.71zM988.808 253.31s1.894-1.067 2.246-1.892c.357-.828 1.184-2.604 1.184-2.604l.71-3.076-.944-2.602-1.775-.472-1.538.117-.828.828-.236 2.25.827 1.89.71 1.066-.118 2.01-.24 2.486zM981.71 254.255l1.894-.946 1.18-2.248.122-2.485-.947-1.894-1.303-1.417h-1.775l-.474 3.31 1.3 1.303v4.375h.002zM979.463 256.385l.71-.828.357-1.775-.71-2.6-1.067-1.185-1.3-1.183-1.42-.945h-2.013l-1.3 1.063.353 2.13 2.37 1.774 1.89.355 2.13 3.193zM988.106 250.757v2.134l-2.132.307-.153-2.896 2.286.457z"/><path fill="#4f4d9f" d="M971.7 428.416l-1.82 2.48v4.132l.827 1.985-.826 7.767 4.134-5.784 1.485-2.977-.165-3.966-1.158-1.82-1.322-1.157-1.156-.66zM985.418 419.824l-1.322.33-1.488 3.138-.33 4.132.826 2.148v2.977l.332 1.816 1.485-2.146 2.15-3.638.33-2.645v-3.635l-.992-1.654-.99-.824zM949.384 441.308l2.15-1.487 1.653-1.157 2.15-2.808-.332-2.148-1.324-.99-1.65-.663-1.488.166-1.654 2.313.167 4.63.33 2.145z"/><path fill="#4748a5" d="M848.724 426.766l1.652.66v4.463l-2.81 3.14-3.138 2.314.163-2.976-.824-.988v-3.144l.662-.825v-1.485l2.81-1.49 1.486.33zM827.234 429.41l2.314-.167 2.48 1.486.99 2.81-1.487 1.324-.824 1.32-.496 2.15.33 3.473.166 3.14-2.81-3.473-2.313-3.635-.167-3.636.826-3.14.992-1.655zM819.3 425.278l-.66 2.312-.827.496-.99 1.324v4.957l-1.655-.988-1.818-2.317-.99-2.48.33-6.28.826-2.645 1.984-.662 1.983.662 1.65 3.802.167 1.818zM819.468 409.246l-.992 2.477-2.645 1.982c-.404-2.64.956-4.026 3.638-4.46z"/></g></g><g stroke="#000" stroke-width=".456"><path fill="#dfda4d" d="M825.56 261.236l3.192 2.957 2.368 1.537 1.892.71 2.367 1.3h4.968l4.494-.473 2.247-.828 4.376-.12 3.55-1.656 2.6-1.773 2.603-.117 1.422-1.42h1.89l3.785-2.84 5.325-2.364 5.56-2.012 6.035-1.183 2.482.117.945.71 1.184 2.01.47.948-.59 2.01-2.246 1.303-.474-1.42 1.42-1.184-.355-.71-2.25-.356h-1.538l-1.417 1.42-.237 3.194 1.892 1.655 2.01 1.302 1.776.12 2.13-1.3 2.84-2.486 1.655-2.84-.474-4.14-.945-2.604-2.84-2.13-3.547-1.42-6.15.12-3.67.946-1.42.474-3.902 2.602-1.775.118-3.902 2.602-1.54.59-1.775.71-2.72 1.184-5.207 2.364-3.547 2.13-1.776.238-4.14 2.6-5.915.475-1.065-.594-2.722-.354-1.774-.71-1.775-.947-2.483-2.957-.71-.474h-2.25l-.708.948.355 2.014z"/><path fill="#d9d24d" d="M894.408 251.3l.71 5.914-1.3 3.666 2.72.12h3.193l2.84-.594 2.722-.237 2.485.118 2.01.237 2.484-.946.12-1.893-.592-1.656 1.182-3.668-.474-.828-18.098-.235z"/><path fill="#d9d34a" d="M922.444 257.804l-.71.474-1.064-.474-.592-1.655 1.183-1.066 2.602.118 2.367 2.13v3.075l-3.196 1.54-3.31.827-3.67-1.065-2.246-3.077-.592-2.13.474-3.667.592-2.366 3.194-2.367 3.43-1.064 4.02-.594 4.617 1.183 9.343 3.55 6.27 2.838 6.98 3.668 4.14 1.893 5.443 2.6 3.312 1.184 3.785-.474 1.656.118 3.312-1.064 2.247-.238L981 255.91l2.012-1.184-.236 2.602-3.313 3.668-2.838 3.194-1.182.12-1.538 1.3-2.957-.12-6.862.356-3.312-1.064-5.205-1.066-6.152-2.72-4.852-2.485-2.366-.352-3.67-1.894-2.245-.236-1.3-.947-4.025-1.18-3.313-1.185-3.192-.355-2.485-.354-1.182.71-1.183 1.655-.59 2.248.827 2.722 1.42.238 1.302-.59.472-.948-.592-.236z"/><path fill="#ddd457" d="M852.564 388.192l-1.51 1.507-2.374-1.508 1.077-2.804 3.883-.648 2.158 3.235-.864 3.234-3.02 3.017-3.668 1.08-3.666.43-4.312-.214-5.825-1.297-4.528-5.39-3.45-6.902-2.587-5.822-3.02-11.862-1.51-4.96-.648-4.53-3.234-6.254 1.292-1.078 11.216-9.92h.648l2.373-2.158 4.096-7.764.433-.43 1.293-4.744-.216-8.195-1.077-3.882-2.587-4.314s-.863-1.51 0-1.293c.86.216-2.373-3.667-2.373-3.667l-3.884-4.1v-.86l-2.803-2.804-1.94-1.078h-1.51l-.65-.864-2.803-.862-1.293 1.294-.862 2.804v1.08l1.94.86.646-.43-.646-1.08.216-1.294 1.512-1.077 1.724 1.29-.216 3.235-1.294 1.51-3.234.218-2.588-1.295-1.078-2.157-.86-3.232.86-1.942 1.295-1.077 2.157.43 3.45-.864 1.077-.43 2.804.43 1.94 1.94 2.156 1.295 5.393 6.04 1.51 1.51 2.803 4.098 3.45 7.764.863 5.39-.43 5.393-2.805 7.764-3.235 4.96-4.528 5.606-7.764 6.472-1.078.215-1.725 2.157 3.02 6.47 4.744 19.842 3.88 8.194 5.608 5.823 4.313 2.372 5.61.648 4.96-1.296 2.157-1.938-.864-1.294z"/><path fill="#dbd45d" d="M861.622 392.72l-.647 1.076.863 1.727 2.158.43 1.508-1.94v-2.16l-1.295-2.37-1.725-.434-1.94.216-2.805 1.942-1.51 1.726-.864 4.096 2.158 6.688 3.45 4.528 8.627 5.607 9.276 3.45 5.82.862 4.316 4.315 2.156 5.174-1.94 3.238-2.588.215v-1.294l1.077-.217 1.295-1.294-.647-1.293-2.587-1.512-2.156 1.726-.218 3.883 1.94 1.94 2.804.646 2.158-.863 2.155-2.374.22-2.803-.864-4.098-3.668-5.173-3.88-1.942-9.705-3.452-6.255-2.37-4.53-3.24-4.096-4.31-2.373-6.252 1.077-4.098 2.373-1.727 1.294.432-.432 1.298z"/><path fill="#e5dc5e" d="M939.906 392.934l1.726 1.08.217 1.723-1.943.863-2.587-.43v-2.587l1.508-3.235 4.316-.217 1.94 2.374 1.295 4.528-1.296 4.746-4.96 4.097-6.902 4.746-7.548 3.235-11.214 5.39-3.235 2.37-2.805 5.177 1.727 3.022 2.157.43v-1.078l-.648-.863.43-2.374 1.295-1.293 2.587 1.51.65 3.235-2.374 2.373-2.59.43-4.095-1.94-1.295-2.156-.215-3.024 1.726-2.803 3.45-3.45 5.392-3.02 7.764-3.235 11.43-5.606 7.978-8.628v-3.448l-1.726-2.157-2.156.214z"/><path fill="#d7d643" d="M949.826 386.68v1.94h1.51l1.51-.216.647-2.586-1.293-1.724-1.726-.22-2.158.432-2.37 1.726-.217 3.452 1.076 2.37 2.157 3.234 3.882 1.942 3.88 1.08 5.826-.432 6.686-3.234 6.254-4.53 2.588-6.255 3.234-11.43 4.096-14.45 2.59-5.39 2.155-1.942-.647-.86h-1.94l-4.96-3.667-5.175-3.235-6.686-7.978-3.45-6.687-1.078-9.488 1.94-9.275 4.098-6.9 6.685-5.61 6.04-4.312 6.037-.213.86 2.37-.86 1.943-1.295-1.08-1.94-.215-.862 3.235 2.154 1.078 3.882-.43 1.08-2.588-.43-3.666-2.805-2.59-4.96.43-3.667.432-4.53 2.588-4.742 4.96-3.233 4.745-4.1 6.685-1.293 6.038.216 10.57 5.393 11.427 4.743 6.04 9.273 6.253 1.51 1.08-2.804 6.253-4.098 13.157-2.587 10.567-2.155 4.53-6.9 6.037-7.767 3.02-6.684-.214-3.235-2.374-.865-2.156-.216-3.234 1.726-.43z"/><g fill="#5db7d2"><path fill="#44b3cc" d="M890.873 284.615l-.33 3.305.99 7.273 3.637 20h1.82l.164-3.14-6.28-27.438z"/><path fill="#50aece" d="M900.127 313.706l-6.61-28.926 4.956 29.422 1.654-.496z"/><path fill="#50afce" d="M901.285 313.375l2.314-.826-8.597-27.77 6.282 28.595z"/><path fill="#50abce" d="M897.484 283.127l10.082 28.926-1.983.66-8.1-29.586z"/><path fill="#50b0ce" d="M909.054 311.39l-9.752-29.255L911.7 311.06l-2.646.33z"/><path fill="#50b3ce" d="M912.69 309.904l-11.57-27.935 14.38 28.265-2.81-.33z"/><path fill="#64b4d1" d="M822.09 258.767l-1.56.24-1.917 1.56-.84 2.038.122 3.717 1.318 2.278 2.28 2.4 1.078 1.8-.6 3.235-3.235 2.04-3.478 2.518-1.32 2.038-.48 2.28.12 2.398.48.6 2.64-.123 1.558-.477 2.397-.24 2.278.36 3.477 2.4 4.918 4.436 2.156 2.52-1.556-3.72-.84-4.437-.6-4.437.722-2.637 1.2-1.68 1.318.72 1.08-.6 1.44.72 1.2-.72 1.916.6 2.397-1.2 3.598-2.757h2.518l.72.6 1.44-.6.84 1.2 2.998-2.28 2.398-1.2 2.398.96 3.12.72 1.2-1.08 2.516-.12 3.477-.48 1.68 1.2 1.675 4.077 1.2 1.32 1.8.358.96.48 1.676 4.2 1.2 3.357.6 4.076-.24 1.08 1.08-.12 1.68 1.676 1.438.72 1.2 1.32.356 2.157.96-.12.84-1.078 1.68.36 1.44 1.557 1.437.12-2.52-16.668-2.397-1.32-.12-3.836 5.636-2.04.12-1.438-.84-2.4-1.078-2.157-2.16.237 1.68-5.395 4.196 4.317-1.92.24 1.678 6.594 7.197-1.2 1.32 1.8-.48 1.56.6 1.077.358 1.92 2.16 2.758 5.637 12.23 5.396 11.033 2.398-2.517 2.52-.598 2.76-1.92 1.677-.6 1.198-1.558 3.12-.12 4.674 4.196.72-1.078 4.436-.242 1.44 2.878.24 1.2 1.8-.72 4.915 1.08 3 2.4 2.275.956.6 1.2 1.32-1.56.96.123 1.56.36 4.915-.36 2.52-5.04s2.277-4.674 3.36-5.874c1.077-1.2 5.514-5.995 5.514-5.995l5.395-3.598 4.076-2.278 3.837-.48 3.6-.12-.12-3.237-1.44-3.118-3.598-4.676-.72-3.718v-2.28l3.118-2.04 3.718-2.996.122-3.12-1.08-3.837-2.16-3.236-.72-.6-1.2-.24-1.676 1.08-3.358 4.675-3.717 3.72-4.556 2.758-5.276.6-8.393-1.32-5.875-1.8-7.317-2.758-7.675-3.597-4.196-.842-6.357-3.116-2.397-.12-.12 1.08 1.916 1.916-.477 3.36-1.68 1.797-3.117.12s.36.242-1.44.72c-1.8.48-3.356 0-3.356 0l-2.998-1.798-2.88-.48h-5.754l-6.355.6-7.196.6-3.596 3.12-3.12.48-3.356-.84-3.477-4.077.12-2.278 2.52-3.12-1.32-.12-7.915 2.88-4.918 2.756-2.636 1.68-1.918-.12-2.52 2.278-3.117.24-1.8 1.92-.6-.24-5.034 1.32-4.557.837s-5.756.84-6.355.84c-.6 0-6.115-.72-6.115-.72l-4.08-2.038-1.917-2.16-1.8-1.2-2.397-2.515.12-1.92-.72-.478z"/><path d="M893.774 318.595l-.17 3.743 2.722-.678-.34-3.574-2.212.51zM897.348 317.575v3.062h1.192v-3.232l-1.192.17zM900.07 316.895v3.403l1.7-.51-.17-3.063-1.53.17zM903.643 316.213l.172 2.552h1.528l.172-3.062-1.872.51zM907.046 315.533v2.724h2.38l-.34-3.065-2.04.34zM910.788 314.683v2.552l2.042-.51-.51-2.724-1.532.683z"/></g><g fill="#ccc"><path fill="#fffcfc" d="M973.633 345.67v2.69l.628.36.18.894 2.776.45-.27-.897-1.793-1.703-.447-1.255-1.073-.54z"/><path d="M916.933 309.892l-.46-.916L918 307.3l2.893-.607 2.286-1.83 2.895-1.83 3.048-.76 3.963 3.35-1.37 1.07-1.375-.153-2.59 1.676-1.98 1.22-1.675-.305-1.526-.456-.914.762h-1.374l-1.068.61-2.28-.154zM935.527 305.623l1.523-.607h2.286l1.22 3.35v1.07l1.98-.61h3.66l2.59 1.22 2.285 2.285 2.44 1.374h1.98v-1.068h1.98l.46.61 2.13.304 1.526-.456.457 1.372-.304 1.827-.46 1.374.61 5.79 2.744 9.906 5.182 8.384-1.98-.916-4.42-.61-1.374.61-1.827-.15-2.134 1.98-1.067.15-.913.764-1.677-2.286-6.4-8.534-1.677-1.83-3.657-7.923-5.03-10.82-.307-4.422-1.218-1.22-.61-.152v-.763h.002zM933.697 364.607l2.592 1.22-.153-1.22 1.828 1.22s1.676.305 2.59.152c.913-.154 2.896-2.134 2.896-2.134l.61-4.115 3.964-6.858 2.893-1.676.918-.153 2.74-3.05 5.182-2.74 2.44-.916 3.962.762 2.895 1.37.61 2.44.458 6.553 1.828 1.374 1.526-.764 1.37-1.676 3.353-1.22 2.44.302-.155 3.05-1.066 5.64-1.677 5.942L975 377.56l-2.59 6.708-6.402 4.878-5.03 3.198h-8.077l-2.437-2.285 3.048-.765 1.068-1.826.305-3.202-2.742-1.98-2.742.15-3.658 2.136-1.374 1.825-.762 2.135h-1.37l-3.05-.154-2.287 1.527-1.675 2.13-.458 3.202.764 2.287 1.675 1.066 3.048-.153.765-.607h.61l-2.745 3.044-3.504 3.66-4.573 3.048-3.048.913-5.03 1.83-3.657 1.677-4.116.152-4.267 3.81-2.896 2.287-1.982 2.742-.915 4.726v3.503l2.284 3.048-.304.916-1.37-.157-.764-.607h-3.353l-.916-1.373-1.675.306-2.437.76-1.068 1.07-1.83-.917 1.07-2.742.15-2.59-.76-3.507-2.287-4.573-1.98-2.13-3.507-2.136-6.706-1.982-7.314-2.74-5.334-2.593-1.98-3.05-.764-3.808 1.22 1.22-1.068-4.268 1.524 1.98 1.07.15 3.047 3.814 2.44.458.61.303h.76l.153-.304 2.286 1.22 2.59.76h3.657l-3.2-.76-3.963-1.83-4.115-2.288-2.287-3.044-.306-1.373-1.22-.15.155-.918.914-1.067 1.22.154.305.912 1.22-.46 1.98 1.528 3.355.302 2.437.306-2.13-1.22-3.355-1.828-3.353-3.05-1.068-.15-3.354-5.18-1.828-5.03-1.524-5.334v-6.25l1.98-5.027 2.896-4.575 1.676-1.525 1.372.457 3.505-2.59 2.437-.76 3.202.15 2.437.762 3.506 1.067 1.675 2.132 1.676.153.456 1.22-.913.304 1.22 1.676-.458 1.067 1.067 1.372-.152 1.98-1.98 2.287 1.37 2.284-.154.764 1.678 1.83 1.525 2.283 2.59.46 6.097.153 4.418-.46 2.592-.152-1.068-1.22 1.83-.457 2.285-.458 4.115-3.197s3.2-5.49 3.81-6.25c.61-.762 1.83-3.354 1.83-3.354l5.18-5.334 1.98-.762 4.573-2.285h4.726l1.223 1.373 1.98.305 1.828 2.286.915 6.25-2.896 1.98h-2.437l-1.676-1.067-.46.913-1.98-.456zM859.74 387.068s.36-.716.72-.716 1.165-.088 1.165-.088l.09-4.662s-.628-.356-.72-.716c-.088-.357-.088-2.06-.088-2.06l-.626-.628-.09-18.82-1.792-4.837-1.523-2.597-1.254-.987-1.97-.177-2.242 1.433-1.344.716-2.868-.626-1.074-.72-1.705-.086-1.523-2.778-3.135-.987-1.434-.447-4.3-.36-1.255-.09-1.614 1.077-1.882 2.24-1.343 2.597-.177 4.214.985 1.344v1.97l.45.806v1.703l-1.435-1.703-1.434-3.494-.718-2.15-.627.896.178 2.868.09 2.328.807 2.153.806 3.044 1.344 3.852 1.075 4.125.987 3.94 1.88 3.585 1.614 2.24 3.675 3.674 2.33 1.612 3.584 1.257 4.032-.088 1.253-.9-1.614-1.52s-.267-.985-.267-1.345.535-2.152.535-2.152l1.703-1.793 4.928-.895 1.703 1.255 2.24 2.51 1.88.98zM913.682 313.83v2.553l1.53-.34-.338-2.212h-1.192zM916.234 313.15v2.042h1.022v-2.21l-1.022.17zM918.448 312.98l.17 1.87 1.7-.338-.17-2.212-1.7.68zM921.848 311.62v2.554h1.022l.34-2.554h-1.362zM924.743 311.11v2.213l1.36.17-.34-2.382h-1.02zM927.466 310.43v2.55l1.36.17v-2.21l-1.36-.51zM930.187 309.577l-.51 2.892h1.53l-.17-2.213-.85-.68zM932.228 309.577v2.383l2.213-1.022-.34-2.554-1.872 1.193z"/></g><path fill="#76401b" d="M890.046 266.598l-1.488 4.463 5.125-.826-3.637-3.636z" stroke="none"/><g fill="#784421"><path d="M932.194 351.556l-4.792 1.325-3.306 2.646-4.298 4.46-3.472 6.283-3.966 4.793-7.274 2.974-6.612.167-5.124-1.486-1.818-2.813-.496-3.635-.66-4.464-1.49-2.81-2.312-2.81-2.645-1.818 2.81-11.902.826-2.645v-3.47l.496-4.626 2.48-4.133 2.478-2.313 4.297-1.983 7.602-1.983 7.604-2.478 7.934-1.818 8.926-2.15 3.8-.33-.33 4.96.994 1.818-.167 12.892-.825 11.406-.66 5.946zM934.014 351.39l4.627.993 3.637 2.15 1.487 2.148 1.984-1.652.825-2.81 3.472-1.983 5.29-4.628-4.465-6.778-2.314-3.307-3.14-3.634-3.802-6.943-4.298-9.423h-2.314l-.33 18.677.166 6.777-.824 10.414z"/><path fill="#a05a2c" d="M886.904 279.325l.167 3.472 14.216-4.463v-1.323l-14.382 2.315z"/></g><g fill="none"><path d="M846.526 359.353l.64 3.21 2.14 3.852 4.064 3.528-3.423-2.46 2.567 3.424-4.384-2.78 4.277 2.78-4.493-6.42-1.388-5.134zM841.285 373.577l-1.604 1.71-2.78-.426.106 3.53 3.85 5.67-3.85-5.346.108-3.635 2.675.21 1.495-1.713zM836.686 383.42l-.856-2.462v-2.78l.856 5.24z"/></g><g fill="#666"><path d="M887.275 369.728l-1.283 1.282-2.138.536s-2.14-.214-2.567-.536c-.427-.32-2.782-1.71-2.782-1.71l2.782 1.496h4.92l1.068-1.068zM890.698 374.756l.534 3.102 2.138 3.74 1.39 1.82-4.062-8.662z"/><path fill="gray" d="M898.078 383.525l-2.034-.638-1.818-1.715-2.567-4.596 2.673 3.422 3.745 3.527z"/><path stroke-width=".137" d="M880.217 371.01l.322 9.092.854 3.53 1.28 2.567 1.714 2.674.427-1.07 1.818 1.284.537-.537-1.82-1.815-1.82-2.462-1.07-2.566-1.175-4.385-.427-4.705h1.495l-.427-.856-1.71-.75z"/><path fill="gray" stroke-width=".137" d="M920.644 385.344l3.422-.32 3.21-2.675.534-1.822 1.497-1.07-.214 3.103.748 1.607 2.032.642 1.283 1.174 2.248.214 3.207-2.03 2.354-2.46 2.032-1.82 1.497-.642.535-2.994h.962l.214-1.392-.427-2.672-.963-2.568-1.282-1.71-2.14-1.926-.96.43 2.35 2.244 1.926 2.46.106 3.85-.534 1.497-2.888 3.317-3.743 4.063-1.82.856-3.848-.532-1.392-1.82-.32-1.282-.43-1.283v-1.497l.536-1.07-3.956 4.49-1.605.106-4.17 3.532z"/><path fill="gray" stroke-width=".228" d="M972.088 357.323l.856-.75.962 1.393.216 3.85.106.107v2.566l-1.496 2.78-3.21 3.423-3.742 1.602-3.424.428-2.353-.532-.856-1.39-.534-1.39V366.2l.642-1.284.214.64-.108 3.53 1.175 1.392 2.46.746 2.245-.746 2.675-.75 2.245-1.283.108-.75-.856-.106.214-.32h1.283l1.605-3.21.534-2.674v-2.138l-.64-.64-.323-.535v-.75z"/><path d="M887.38 406.842l-5.347 2.567-4.92 1.495-2.674-.427 5.238 1.925 2.034-1.603 3.208-1.606 2.46-2.352z"/><path fill="#999" stroke-width=".183" d="M891.553 417.643l2.887.856 1.39.535 2.995.427-2.246 1.39 2.885.64s-2.778.322-3.207.322-1.926.96-1.926.96-.32 1.716.642 1.607c.965-.107 2.352-.322 2.887-.322s2.248.323 2.248.323l1.07.857-.642.964-4.493.107.644.536h3.636l-3.528 2.352 4.275-.11 3.423 1.393v.856l-3.315.75-.75-1.287-4.277 1.178-.854 1.07-1.605-1.07 1.284-2.78-.107-2.888-.642-2.248-1.496-3.314-1.177-3.103z"/></g><g fill="#e2d67e"><path fill="#e4cb5e" stroke-width=".228" d="M868.89 274.852l-3.446.416-2.436.298-1.605.952-1.306-.774-.773.475-2.91-1.546-3.39 1.844-1.603 1.424h-1.007l-.774-1.01-1.546 1.072-.89-.892-.952-.534-6.416 4.634-2.317-.773-1.012.89-.417.357-.235 1.01-.952-2.498-.83.593-1.426-.475-1.01 1.427-.238 3.743.593 4.693 1.546 5.17 1.424 2.14 1.188.236.357-1.485.653 2.793.95.95.298 5.05 3.863 8.675.356 4.456.177 7.723-1.426 1.725-1.84 2.793.06.83-1.9 3.624.116 5.525.418.475.12 5.288 1.484.118 1.188 1.307 2.615-.236v-1.605l.357 1.84 2.08 2.736 1.782 1.424 1.245.06.654-.95-.06-5.94.415 6.534 1.307-.06 1.665-1.484 2.2-.298.712.06s.593.356.89.89c.297.534 1.367 1.012 1.367 1.012l.773 1.604.95.357.475-1.012-.652-12.655-.654-10.337-.714-13.13-.714-16.756-.12-5.346-.83-.712.06-1.723 2.02-.594 1.187-.355-.536-1.603-.593-5.348v-2.02l.715-.593 1.426-.058 1.01 1.188 1.962 8.138 1.01.357 3.564-.06 8.08 12.775 2.852 4.278 3.922 7.307 5.11 7.308 1.605 2.138 1.07.122.356-7.784 2.26-1.96-1.902-13.428-1.544-.296-2.14-1.96-1.187.177-1.188 1.962-1.485-1.664-.18-1.902-1.367-.89h-1.008l-1.31-1.78-.71-.18-.832.772-.18-6.06-1.306-2.85-.237-1.723-2.436-3.447-2.555-.594s-1.128-2.556-1.128-2.912-.478-1.604-.478-1.604l-1.79-1.846z"/><path fill="#dcc56a" d="M871.027 356.128l-1.722-2.197-.594-2.316-.237-4.99-.534-4.756-.952-7.366-1.545-9.09-1.246-7.367-.477-4.337-1.01-5.11-.415-3.506-.417-2.91-.356-4.16 1.188 3.744 1.962 8.733 2.196 6.06.89 4.098v2.318l1.547 3.325 1.01 4.22 2.08 8.912 2.197 7.31 1.128 5.286.178 2.02-2.317.774-1.127.533-1.426.773z"/><path fill="#e2cc75" d="M882.613 354.348l1.25-6 1.485-4.576.653-3.09.476-2.494-.12-3.743-1.01-2.2-4.633-9.326-2.793-5.645-1.13-2.912-2.078-3.625-2.792-5.823-2.496-4.335-2.08-3.566-1.96-2.616-.592.537 1.78 6.654 1.485 5.7 1.427 6.3 2.376 8.257 1.367 5.705 1.366 3.505 1.307 4.93 3.624 11.766.714 3.09 1.783 3.565.593-.06z"/><path fill="#ddd690" d="M864 357.562l-1.874 1.87.17.682h2.212l.683-1.532-1.19-1.02zM861.785 355.008l.34 2.042 1.532-.17.85-1.53-.17-1.192-1.53.34-1.022.51zM865.528 354.158l.51 1.36h2.894v-1.02l-1.19-.51-2.214.17zM865.19 351.607l.168 1.53h2.044l1.02-1.363-1.19-1.02-2.042.853zM861.104 352.116l-.34 1.022 1.022.51 2.214-.51v-.852l-2.896-.17zM861.104 349.564v1.192l2.213.17.68-1.02-.85-.682-2.043.34zM865.528 348.544l-.337 1.02 2.04.51 1.02-.85-1.528-1.022-1.194.342zM861.276 345.82l-.34 1.532 1.36.17 1.192-.85.17-1.19-1.362-.172-1.02.51zM865.02 345.14v1.53l2.212.51v-2.213l-1.02-.338-1.193.51zM862.976 342.587h-2.04l-.174 2.38 2.383-1.02-.17-1.36zM864.677 341.906l-.85 1.702h2.382l1.02-2.21-1.36-.342-1.193.85zM864.167 339.014l.173 1.362 2.213-.34-.854-1.7-1.533.678zM861.955 339.526l-1.53-.34.172 1.872 2.21-.34-.852-1.192zM860.425 336.462l-.17 1.703h2.722l-.51-1.703h-2.042zM863.658 335.61v2.043h2.552l-.512-2.042h-2.04zM862.296 334.08l-1.7 2.04-.682-1.7 1.19-2.043 1.192 1.703zM863.827 332.548l-.34 1.703h2.21v-1.702l-.848-.51-1.023.51zM861.104 330.508h-1.19l-.17 1.362h2.04l-.68-1.362z"/><path d="M863.488 329.996l-.34 1.53h1.702v-1.53h-1.362zM862.976 326.933l-.34 1.53h2.38l.174-1.36-2.214-.17zM860.255 327.614l-.34 2.212 2.04-.85v-1.19l-1.7-.172zM860.084 324.552l-.68 1.36 1.02.512.853-1.192-.34-1.02-.853.34zM862.894 323.405l-.538 1.128.882 1.52 1.227-.295.05-1.717-1.375-.687-.246.052zM860 321.684l-.444 1.228.884.784s.735-.292.735-.54c0-.244.246-1.03.246-1.03l-.98-.59-.44.148zM862.356 321.047l-.295 1.375.688.442 1.227.098s.05-.933.05-1.277c0-.342-.885-.735-.885-.735l-.784.097zM859.754 319.18l-.1 1.375 1.032.246s.54-.537.54-.733c0-.196-.492-1.08-.492-1.08l-.98.194zM862.06 318.788l-.196 1.13s.394.538.885.538c.488 0 .685-.49.685-.685 0-.197-.197-1.03-.197-1.03l-1.177.048zM859.655 317.267l-.342 1.13.98.44.737-.98-.786-.538-.59-.053zM861.962 316.58l-.146 1.03s.685.49.932.343c.246-.147.54-.784.54-.784l-.886-.59h-.44zM858.968 314.37l-.245 1.277s.735.687.93.59c.2-.1 1.23-.394 1.23-.394l-.54-1.275s-.638-.148-.834-.148c-.198 0-.59 0-.542-.05zM861.52 313.733l-.292 1.226 1.667.295s.246-1.376-.096-1.376c-.348 0-1.182-.098-1.28-.147zM859.116 312.065l-.294.737.833.637.687-.392-.442-.934-.784-.05zM861.618 311.574l-.636.983 1.03.44.882-.686-1.276-.736zM859.165 309.415l-.442.737.49.783.787-.638-.835-.882zM860.932 308.924l-.392.54.59.784.98-.54.098-.44-.442-.54-.834.196zM858.92 307.402l-.443 1.03.98.54.543-.686-.345-.786-.736-.098zM860.784 306.42l-.54.69.737.734.932-.54-.636-.786-.492-.098zM858.92 305.683h-.393v.834l1.128-.098-.197-.835-.54.098zM860.44 304.702l-.048.932 1.03-.147-.05-.833-.93.048zM858.674 303.967l-.342.49.587.786.59-.542s.195-.733 0-.733h-.836zM858.772 302.347l-.44.392.538.538.687-.342-.785-.59zM858.92 301.12l-.54.785h.933l-.394-.784zM860.146 301.56l.098.787h.786l-.884-.786zM860.195 302.838s-.194 1.03 0 1.03c.197 0 .737-.148.737-.148l-.737-.882z"/><path fill="#d3c55f" d="M886.307 326.544l-1.078 1.472.097 1.523 1.424 1.324 1.326-1.866-1.77-2.454z"/><path fill="#d3c75f" d="M888.222 324.432l-1.325 1.916 1.276 2.013 1.325-.832s.196-1.672-.05-1.967c-.246-.292-1.275-1.177-1.226-1.128z"/><path d="M885.767 321.733s-.588.883-.588 1.08c0 .197.343 1.62.343 1.62l.834 1.08s.93-.295 1.03-.59c.097-.292.442-1.424.442-1.424l-1.13-1.474-.933-.293z"/><path fill="#d3c95f" d="M883.706 323.844l-.246.49s-.145 1.18.148 1.375c.294.196 1.177 1.13 1.177 1.13s.783-.492.783-.738-.588-1.768-.588-1.768l-.685-.686-.59.196z"/><path d="M881.693 320.458l-.39.93.488 1.278.935.932s1.03-.194 1.03-.393v-1.374l-.64-1.078-1.08-.49-.342.196zM883.902 319.574l-.245.736s.1 1.032.294 1.128l.983.492.685-1.13-.685-1.423-1.03.197zM882.824 317.22l-.492 1.08.295.782.688.345s.783-.393.783-.59v-1.03l-.882-.54-.392-.047zM880.565 318.004l-.637.834.246 1.032 1.08.343.734-.884-.59-1.178-.833-.148zM879.728 315.794l-.538.49v.64l.834.64.784-.395-.196-.885-.39-.59-.494.1zM881.89 315.157l-.344.785.49 1.03.788-.44-.15-.885-.784-.49zM880.417 313.048l-.194 1.766 1.225-.196.295-.932-.44-.688-.886.05zM879.14 313.44c-.196.047-.882.097-.882.097l.197 1.766.783-.096.296-.64-.1-.784-.294-.344zM877.67 311.672l-.59.737.59.98.54-.1.34-.734-.88-.884zM879.58 311.18l-.49.54.395.59.49.05.49-.592-.44-.537-.444-.05zM876.442 309.906l-.344.93.933.247.245-.59-.293-.54-.54-.047zM878.062 309.415l-.097 1.08 1.03-.1-.1-.882-.833-.098zM875.264 308.188l.05.93h1.03s.343-1.078-.1-1.028c-.44.05-.882.145-.98.098zM877.228 307.745v.932l1.08-.147-.246-.833-.834.048zM875.803 306.764h-1.08l.15.932.98-.098-.05-.834zM876.49 306.125l-.147.884 1.13-.05v-.835h-.982zM875.412 304.702l-.05 1.03s1.227.196 1.227 0-.247-.882-.247-.882l-.93-.148zM874.724 304.8h-.982l.1 1.128h1.177l.146-.784-.442-.344zM872.418 301.463l-.492.49 1.523 2.406h.93l-.882-1.228s.146-.588-.098-.685c-.244-.098-.44-.098-.44-.098l-.542-.887z"/><path d="M872.612 300.53l-.342.442 1.817 1.226v1.03l.834.786.686.194-.244-.833-.343-.93-.69-.542-.488-.882s-.246-.048-.443-.098c-.195-.05-.392-.344-.392-.344l-.396-.048z"/></g><g fill="none"><path fill="#000" d="M851.578 283.375l-.173 7.996.51 2.553v4.426l.172 6.805v4.594l-3.915-4.768 4.084 5.106.68 4.933 1.023 1.875-.682 2.552.17 4.253v12.08l-3.914-9.528.34 19.738.342-11.4 1.362-2.043 2.212 5.618.34 2.552-.512-9.53"/><path d="M835.582 282.694l-.68 5.106 1.362 3.57.17 4.937-.17-5.445-1.362-2.722.68-5.446zM840.517 285.757v6.466l1.19 1.53-.338 6.807 1.02 2.04v11.23M847.492 278.1l-1.36 2.552.51 4.595.34 3.233-.51 5.102M878.462 290.52l-.173 7.828.85 4.252.682 4.594M885.776 301.92l1.53 17.017M842.047 327.275l.34 9.87.68 4.254.172 4.59"/></g><g fill="#d38d5f"><path d="M893.264 345.48v-1.702l7.487-1.703-1.19.852.17 5.105M913.682 341.226v-2.213l7.487-1.36-1.704.34.34 5.274M897.518 357.73v-1.702l6.296-1.19-.17 6.296M912.49 355.35v-2.724l6.806-1.19.34 5.953M890.372 333.06v4.253l-1.53.34v-2.042l1.53-2.55zM893.946 332.377l.17 4.255h-1.192l-.34-3.744 1.362-.51zM896.665 331.528l-1.19.68v3.402l1.704-.34-.515-3.742zM899.9 330.337l-1.192 1.02v3.064l1.87-.17-.678-3.913zM903.643 329.485l-1.703.68v3.404l1.875-.34-.172-3.745zM907.217 328.464l-1.53.172v4.254l1.872-.34-.343-4.086zM911.81 327.614l-1.7.68.17 2.89 1.7-.508-.17-3.062zM916.064 326.424l-1.7.85v2.893h1.53l.17-3.743zM919.468 325.402l-1.362.68v3.233h1.703l-.342-3.913zM923.21 325.063l-1.362.85v2.55h1.874l-.512-3.4zM927.295 323.7l-1.532.682.17 2.55 1.532-.34-.17-2.892zM931.718 322.68l-1.702.85v2.723l2.044-.17-.342-3.404z"/></g><g stroke-width=".913"><path fill="#fffcfc" d="M891.564 368.79l26.37-5.954"/><path fill="#c87137" d="M885.096 352.285l2.725.34 44.92-10.21"/><path fill="#c87137" stroke-width=".867" d="M887.65 340.717l6.976-1.024 38.794-10.208"/><path fill="none" stroke-width="1.187" d="M935.122 327.955l6.635-1.192"/><path fill="#fffcfc" stroke-width="1.324" d="M935.122 341.906l14.633-3.912"/></g></g><path fill="none" stroke="#000" stroke-width="8.216" d="M767.32 145.154v253.64c3.002 36.315 78.686 59.177 131.454 97.747 69.212-46.42 136.34-55.81 139.04-107.857l.84-243.53h-271.33z"/></svg>