<svg xmlns="http://www.w3.org/2000/svg" width="900" height="600"><path fill="#ffd520" d="M0 0h900v600H0z"/><path d="M0 600h900V0z" fill="#ff4e12"/><g stroke="#000" stroke-width=".521"><g fill="#fff"><path d="M481.74 187.59c-4.987-1.77-8.208.805-8.046 7.244.16 6.44 3.542 10.142 8.53 7.727l-.484-14.97z"/><path d="M486.12 175.53c-4.154-3.28-8.03-1.874-9.946 4.276-1.916 6.15.096 10.742 5.596 10.058l4.35-14.333z"/><path d="M493.04 163.86c-3.58-3.905-7.63-3.138-10.508 2.625-2.875 5.763-1.625 10.618 3.917 10.825l6.59-13.45zM488.5 220.59c-6.117 2.254-6.763 10.625-2.896 15.776 3.863 5.15 10.946 6.117 14.808 0l-11.91-15.78z"/><path d="M481.42 202.88c-5.796-1.932-11.017 5.853-11.913 12.878-1.125 8.854-13.683 11.75-6.758 25.113 1.444-8.53 7.082-13.2 11.587-13.52 4.508-.323 11.27-1.29 14.167-6.762l-7.084-17.708zM499.77 237.33c-6.763 1.61-7.73 10.625-2.9 17.064 4.133 5.513 17.063 4.185 16.742-1.288L499.77 237.33zM518.93 291.58c.32-5.795-9.012-8.05-13.52-6.922-4.51 1.127-13.122-.16-15.134-4.99-1.608 3.863.725 8.05 7.246 10.14 4.933 1.586 4.83 5.153 3.38 6.763 3.703.645 14.65.645 18.028-4.99z"/><path d="M513.62 254.56c-6.6-2.897-10.513 1.516-13.038 5.795-3.704 6.278-15.133-1.77-18.996 6.6 5.233-2.253 10.558 2.553 13.038 4.186 7.083 4.67 20.767 3.22 22.7-7.726l-3.704-8.854z"/><path d="M517.48 262.28c-6.6 4.99-9.175 10.946-9.012 14.97.162 4.026 5.795 12.88 11.913 13.362 3.542-7.244 5.313-22.537-2.9-28.332zM490.12 293.35c0-2.415 3.542-3.38 5.954-2.576 2.417.805 6.117 3.22 4.83 5.796l-10.784-3.22zM453.73 280.15c-.642-2.897 4.025-7.888 10.304-5.15 6.275 2.735 7.083 8.048 4.504 10.14l-14.808-4.99z"/><path d="M469.02 285.46c-.483-1.61 4.037-4.825 11.754-2.898 7.725 1.932 9.62 6.907 9.338 10.786l-21.093-7.888zM452.93 280.15c4.025-3.058 2.5-8.855-1.13-10.625-6.6-3.22-4.183-11.59-8.37-13.2-4.183-1.61-8.208-4.508-8.37-7.405-2.092 4.024-.805 7.727 2.095 10.303 2.896 2.576-2.254 13.04 1.446 15.776l14.33 5.15zM366.64 277.9c-3.38-5.312-11.43-4.346-14.81-.644-3.38 3.703-2.897 9.176.322 11.59L366.64 277.9zM385.96 270.01c-1.288-7.083-9.82-7.888-14.488-6.117-4.668 1.77-7.888 8.854-4.83 14.005l19.32-7.888z"/><path d="M398.84 269.04c3.058-5.956-2.897-14.81-9.66-16.098-5.643-1.074-12.314-1.046-14.487-6.6-1.368 4.83 2.254 7.888 6.44 10.625 4.185 2.737-.806 9.82 5.956 13.844l11.75-1.77z"/><path d="M398.2 269.25c-1.41-4.267 1.45-9.943 7.232-9.545 5.785.398 9.08 4.6 6.53 9.855l-13.763-.31z"/><path d="M411.07 269.57c-.796-4.422 2.83-9.64 8.5-8.435s8.343 5.83 5.084 10.675l-13.584-2.24z"/><path d="M423.86 271.6c-.575-4.457 3.308-9.488 8.912-8 5.605 1.486 8.042 6.24 4.542 10.914L423.86 271.6zM326.72 345.35c-10.786 0-13.42 2.568-14.97 13.683-1.933 13.844 16.902 15.454 14.97-13.683z"/><path d="M331.55 330.86c-16.58-6.278-25.595 19.96-42.015 15.293 5.875 9.337 20.118.017 25.434.966 9.014 1.61 28.492-1.772 16.58-16.26zM320.76 366.76c-8.21-3.702-17.064 8.854-15.454 14.327 2.044 6.952 20.766 1.288 15.454-14.327zM282.45 420.85c4.508 1.283 9.98 3.862 9.015 12.554-.966 8.692-17.385 26.4-32.195 27.367-14.81.968-20.123 18.834-32.84 13.843 11.912-2.25 11.912-15.775 21.25-19.958-6.763-2.417-10.304 12.88-18.996 12.88-8.693 0-12.878 13.84-23.503 12.874-10.624-.964-11.742 16.853-33 17.066-16.258.158-36.38 19.154-43.624 10.946 15.776-2.254 22.142-10.996 31.552-20.608 15.132-15.45 32.196-8.53 37.99-22.213-6.922 4.668-14.97 6.922-22.858 6.763-9.902-.204-20.766 15.775-31.874 8.692 6.44-.804 10.625-3.54 17.386-10.625 6.923-7.254 17.083-2.566 25.113-9.98 12.556-11.59 23.342-1.932 35.415-16.42-3.38-1.608-10.625-.483-17.386 3.058-6.762 3.542-15.454-2.416-23.18 1.77.964-9.495 18.994-4.06 30.263-10.624 12.718-7.404 23.262-5.233 33.323-4.346-14.005-.08-19.478-13.363-38.795-9.5-8.425 1.688-15.132-11.588-23.503-4.83.24-4.986 9.015-9.012 18.03-4.182 9.014 4.83 12.648-4.226 30.586 7.083 7.405 4.666 20.122-2.9 28.17 2.09-1.046-3.057-5.634-4.99-11.026-4.587 3.38-6.92 25.193-6.037 34.69.888z"/><path d="M296.78 410.38c-7.083-5.473-16.903 1.128-23.664-1.45 0 4.507 2.254 11.27 9.66 13.845 2.253-1.608 12.394-10.463 14.004-12.395z"/><path d="M307.89 394.77c-11.108-5.634-13.04 8.37-21.732 5.473.322 4.025 3.542 9.015 10.625 10.142l11.108-15.615z"/><path d="M314.49 382.05c-16.42-6.44-18.513 9.337-28.17 6.278 2.253 5.473 16.097 8.37 23.18 6.44l4.99-12.718zM337.02 312.99c-4.347-6.117-13.522-1.127-14.97 6.117-1.45 7.244 2.09 17.386 8.21 15.132l6.76-21.25z"/><path d="M348.13 293.67c-7.566-1.77-16.26-.966-15.293 6.44-2.898 1.287-3.703 10.785 4.185 12.877l11.108-19.318z"/><path d="M353.12 288.68c-7.405-8.693-15.663-8.49-20.283-4.83-8.532 6.762-16.823 2.898-17.064 9.66 5.152-3.945 9.66.804 13.844-.645 4.185-1.448 7.244 6.6 18.835 3.22l4.668-7.405zM335.25 418.6c1.127 2.092 8.05 3.058 11.43-.483 4.48-4.696-.483-17.71-7.566-18.675-7.083-.966-7.727 14.65-3.864 19.158z"/><path d="M327.2 418.92c10.14 3.7 14.488-4.67 9.015-9.98-1.45 1.77-6.762 8.21-9.015 9.98z"/><path d="M289.21 432.76c-1.932 5.796-11.913 6.763-23.18 24.792-11.27 18.03-22.055 10.463-24.792 22.858 13.522-10.946 24.142-3.675 32.195-14.488 12.235-16.42 22.31-14.063 27.045-25.113 6.76-15.776 36.38-15.455 37.99-40.245-9.98-1.932-41.532 24.79-49.258 32.194zM543.24 189.36c12.88 4.185 13.2 20.927 28.008 26.4 14.813 5.473 16.263 18.673 28.333 15.454-11.266-3.06-10.462-16.098-22.212-19.318-13.783-3.776-18.996-24.79-29.946-28.01M602.32 276.77c2.254 5.15 1.933 14.327-6.117 16.742 4.346 2.737 10.783.16 14.325-5.795-5.312 11.75-1.77 22.376 6.6 24.47-4.025-8.21 4.992-12.075 2.096-17.387 5.313 2.254 9.98 9.498 9.817 14.005 6.926-7.727-5.15-18.03-2.895-25.273l-23.825-6.76zM518.93 359.51c-7.888-6.922-11.254 1.81-15.133-1.208-3.62-2.817-8.45-3.22-10.3-.402 6.762.242 3.458 5.473 16.58 6.76-13.122.887-10.705 15.536-19.48 14.81 9.338 8.855 14.167-7.887 21.733-5.15-2.254.644 3.542 5.956-.483 13.04 6.52-.162 9.175-9.177 9.983-13.845l-2.9-14.005zM345.23 434.69c-2.898-2.413-11.27-3.542-14.488-1.608-3.22 1.93-2.092 2.412 1.77 2.737 3.865.32 8.853 6.57.484 6.92-3.864.158-2.576 9.496-10.625 10.142 3.3 4.025 12.72 1.367 16.1-3.058-.645 3.62 4.184 6.92 2.253 11.267 5.956.647 2.495-12.07 11.913-11.428-3.864.483-2.254 9.175 4.507 6.92-4.025 1.934-1.932 6.6 2.575 5.476-2.897.966-3.863 4.666.16 6.762 3.865-5.312-.482-24.308-14.648-34.13zM695.85 257.07c12.32 0 22.308-9.99 22.308-22.312 0-12.32-9.988-22.31-22.308-22.31-12.325 0-22.313 9.99-22.313 22.31 0 12.322 9.988 22.312 22.313 22.312z"/><path d="M579.3 284.02c6.763-6.44 17.067-9.66 24.146-4.83 7.083 4.83 30.588 10.625 42.18 2.576 11.587-8.05 17.062-12.235 22.212-11.27 3.867 5.797 8.533 8.533 14.33 9.016 1.77 1.932 8.05 3.542 11.59 3.058 5.15 1.288 11.43-.32 16.418-5.795 7.73 1.127 14.97-4.668 17.708-13.36 8.208-.966 8.692-10.143 3.542-16.26-4.83-.965-1.125-17.225-18.675-14.005 7.41 4.508 1.77 13.522 7.892 17.708-4.187 0-9.58 1.77-10.867 8.05 1.61-4.347-.24-7.245-1.37-8.21.162-3.703-8.046-12.798-15.775-9.498 5.554 1.207 2.416 10.142 6.44 13.522-2.9.16-5.957 1.61-7.728 4.185-2.092-3.702-9.496-7.566-14.004-7.888 0-1.29-.242-3.864-.804-5.152-2.013-3.863-3.704-8.45-2.9-14.327-3.863 4.186-7.083 9.982-9.013 14.167-6.115-4.185-21.25 1.932-28.332 3.54-7.083 1.61-30.908-2.252-36.383-8.048-5.47-5.796-16.096-9.337-26.075-12.235-13.725-3.983-13.846-18.995-28.98-29.298-.32 18.674 28.014 77.914 34.45 84.353zM421.54 426.32c11.913 0 21.57-9.658 21.57-21.57s-9.657-21.57-21.57-21.57-21.57 9.656-21.57 21.57c0 11.912 9.656 21.57 21.57 21.57z"/><path d="M370.02 409.74c4.346 5.635 11.75 5.314 14.81 4.83 2.576 6.76 10.785 6.6 14.327 10.3 3.542 3.705 15.613 3.384 19.155 1.288-3.217-.32-7.403-2.25-11.428-5.633-4.858-4.08-2.576-12.234-6.44-15.13 2.898-3.22 3.38-8.533 2.737-10.626 3.06-1.772 5.314-4.67 5.636-6.118 5.313-.323 9.98-3.06 11.913-5.152 2.736 2.576 9.657-.805 13.362 3.54.804-10.624-9.338-16.258-16.1-12.716-2.738-1.448-9.98-.482-11.268 1.45-2.254-.967-8.532 2.253-11.43 4.346 3.22-1.77 3.702-7.083 2.414-9.015 2.737-1.127 5.796-4.83 6.117-7.566 3.864.643 9.658-1.933 12.233-1.29-4.183-5.472-11.105-7.404-18.19-6.92-7.324.402-10.462 5.553-11.428 11.107-4.346 2.576-5.795 11.268-4.185 14.327-2.496-.08-4.83 2.335-5.795 3.703-3.38-1.45-8.21-2.495-11.67-2.495M366.32 373.2c-1.45-4.185.47-7.953 1.45-11.268 2.494-8.45.965-10.625-6.6-9.498-.645 4.025 3.218 17.225 5.15 20.766z"/><path d="M360.77 352.91c1.932 1.932 8.774 2.817 9.498-3.3.832-7.022-2.012-9.74-8.13-7.003-.482 1.61-1.046 8.21-1.368 10.303z"/><path d="M362.22 342.37c2.576 1.046 8.13 3.14 11.188-2.817 2.566-4.996-.805-8.854-6.117-8.533-1.287 1.45-3.862 6.6-5.07 11.35z"/><path d="M366.97 330.54c.644 1.932 7.244 8.37 12.073 3.703 4.83-4.67 4.83-11.59-2.415-14.166-1.932.32-7.727 7.082-9.658 10.463z"/><path d="M376.62 320.08c1.45 4.024 5.956 10.946 14.327 7.727 8.37-3.22 4.83-13.683.966-15.776-2.254.162-11.43 4.347-15.293 8.05z"/><path d="M391.92 312.03c-.644 3.542 0 13.2 11.43 13.04 11.427-.162 8.21-13.523 5.31-15.455-4.667 0-12.555.16-16.74 2.415z"/><path d="M409.14 310.09c-1.288 2.737-4.19 20.75 18.19 15.776 2.897-.644 10.464-17.225-18.19-15.776z"/><path d="M421.37 311.7c-2.25 2.253 3.542 20.444 18.675 17.385 15.133-3.06 2.417-20.283-18.675-17.385z"/><path d="M434.25 314.44c-2.413 4.99 1.212 19.8 19.883 19.8 16.92 0-.887-19.478-19.883-19.8z"/><path d="M448.9 318.79c-1.212 2.766-2.696 18.468 19.317 19.8 15.938.966 12.075-21.57-19.317-19.8z"/><path d="M472.57 325.39c-2.733 4.83-5.633 16.903 18.513 17.87 15.47.618 5.958-17.548-18.513-17.87z"/><path d="M492.69 329.09c-3.542 4.83-.933 14.303 8.046 16.098 11.27 2.254 12.88-8.37 5.154-13.522-7.73-5.15-13.2-2.576-13.2-2.576z"/><path d="M503.64 331.34c-2.575 4.508-.98 15.454 16.096 15.454 3.542 0 17.067-13.844-16.096-15.454zM371.48 541.27c13.83 0 25.042-11.213 25.042-25.042 0-13.833-11.212-25.046-25.042-25.046-13.83 0-25.043 11.213-25.043 25.046 0 13.83 11.212 25.042 25.043 25.042z"/><path d="M555.15 177.13c-1.933 1.932-5.954 7.727-6.763 9.98-8.37 25.113 13.975 43.87 27.046 70.83 10.304 21.25 9.017 54.733-7.083 75.982-5.508 7.27-3.862 9.337-10.946 16.742-2.717 2.84-5.796 6.44-4.83 16.742 4.51-1.61 10.947 2.576 12.234 6.118 3.22-1.61 7.73-.966 9.337.965 5.47-2.576 9.98-1.29 14.808 3.863 4.188-.644 8.696 0 12.88 4.507 2.254-4.507 6.762-6.117 9.98-5.15-.322-5.796 5.474-9.98 10.624-7.728-1.61-7.727 5.475-13.523 12.238-11.27 5.79-4.506 17.383-4.828 23.18 1.933-10.305-2.897-9.98 8.05-18.676 7.083 2.253 6.44-3.543 10.142-9.335 12.234 3.7-1.77 7.725-3.863 9.013-1.61 3.22-2.816 9.658-1.77 11.27-.32 4.263-1.37 8.372-.323 10.3 4.828 5.797 3.542 9.66 12.556 5.476 19.318-1.288-7.083-6.117-6.76-8.05-9.66-4.51 1.61-9.017 1.61-10.304-1.287-2.575 2.577-11.267 4.83-15.13.967-1.45 5.795-6.44 10.625-12.237 10.625 1.612 4.507-2.896 12.236-6.438 16.098 5.475 2.896 3.863 9.337 2.575 13.2 8.37 1.287 1.288 8.692 15.775 13.52-7.08 2.255-20.925 0-22.858-8.69-7.083-.322-11.913-7.405-11.588-14.814-5.476-5.15-6.28-12.554 1.287-17.705-6.442 1.933-9.984-8.37-19.32-4.184-4.643 2.082-16.9-1.45-16.74-5.796-1.932 3.22-13.682 1.933-15.295-3.54-3.863 2.092-12.88-1.45-12.717-6.762-4.992 2.254-11.75-1.77-11.43-6.922-4.666-.644-5.15-4.83-4.828-8.37-4.188-1.933-3.06-5.957-1.45-10.786-2.896-3.22-1.61-7.727.645-11.913-3.22-3.22-2.575-7.083-1.612-11.59-15.454-1.288-34.813-5.015-79.2-18.673-66.967-20.605-84.997 27.688-70.187 57.952 17.087 34.92-1.932 42.5 3.864 68.58 6.117 1.287 9.336 6.437 9.015 11.912 3.62.158 6.196 3.538 4.91 9.98 3.057-.563 7.002.32 9.577 2.895 2.253-4.183 9.658-5.15 13.522-.32 8.37-.647 12.556 6.116 12.235 14.487 4.505 8.05 2.896 17.87-1.933 24.146.483-3.38 0-8.208-.158-11.104-.3-5.33-7.73-6.44-6.924-10.788-3.864.32-7.567-1.77-8.854-4.666-2.254 1.93-5.474 2.575-8.21 1.608 4.346 1.933 7.727 9.658 6.44 14.808 2.253 3.867 1.77 10.95-.967 14.008-1.287 6.275-6.116 8.53-12.394 5.792 3.542-2.25 4.83-6.275 4.668-9.66-2.253-1.928-3.38-5.632-3.54-7.886-6.28.966-14.972-4.346-16.575-6.446-13.832 0-25.044 11.213-25.044 25.046-.644-5.154-7.16-10.23-6.355-14.575-3.862-11.913 1.61-23.02 17.387-25.27-1.93-4.51 4.83-9.18 2.254-14.33-3.29-6.58-9.335-15.133-18.35-25.113 5.474-9.338 3.864-21.892.644-29.62-4.623-11.096-9.015-8.37-25.435 9.658-26.76 29.383-62.46 21.25-94.013 40.567-8.384 5.133-16.74 7.083-7.727-1.93 9.015-9.016 32.84-18.028 48.293-25.757 28.94-14.47 53.445-38.635 63.104-85.64 22.697-110.46 106.24-74.05 159.04-53.445 49.57 19.346 40.567-24.47 15.454-50.87-30.182-31.73-24.145-56.663-9.978-76.625 25.433-3.542 74.213 5.312 64.392 13.845z"/><path d="M644.82 448.48c15.217 0 27.554-12.333 27.554-27.55 0-15.218-12.338-27.554-27.554-27.554-15.217 0-27.554 12.336-27.554 27.554 0 15.217 12.338 27.55 27.554 27.55z"/></g><g fill="none"><path d="M539.7 178.41c-6.117 27.045-.967 39.28 8.05 51.19 18.63 24.622 33.483 80.812 12.233 117.51"/><g stroke-linecap="round"><path d="M571.89 315.41c2.575-.966 7.404-4.024 8.533-9.337M573.82 303.66c.804-4.668 8.046-6.68 8.208-11.67M573.98 285.46c-.483-4.83 7.246-9.176 6.117-14.005M569.8 268.08c-.646-2.737 6.438-7.888 4.508-12.234M564.49 251.18c-1.45-3.06 3.38-6.6 1.288-9.82M556.76 237.65c-.483-2.092 2.496-6.68.887-9.416M549.03 221.72c.642-.805 3.22-2.737 2.17-5.15M543.72 210.05c1.046-.564 4.183-1.53 3.783-3.863"/><path stroke-linejoin="round" d="M382.58 513.57c-6.44-2.254-14.488.967-16.098 6.442M371.31 525c.805-5.47 9.176-7.888 11.75-5.313-5.31-2.895-7.887 7.405-3.22 7.73M423.15 397.67c-3.862 1.932-4.987 9.015 0 14.33M428.94 399.28c-2.733 2.254-2.575 9.015 1.45 10.625-3.38-2.415 0-6.6 2.417-6.76 2.412-.162 4.02 2.736 1.125 5.633M655.12 415.21c-9.012-2.413-16.258 8.05-8.05 17.388-.158-9.017 6.28-14.97 14.167-13.363M657.61 425.47c-2.217 0-3.462 1.733-3.462 3.42 0 1.772 1.53 3.463 4.025 3.463 1.612 0 2.9-1.85 2.9-3.3M689.4 227.83c1.45 5.473 9.017 7.727 14.97 6.44M704.37 230.73c-4.667.16-8.53-4.185-8.208-7.888 0 2.737 6.28 4.025 8.208 2.254"/><path d="M384.83 414.57c-1.288-3.22 3.864-6.44 4.025-9.5.16-3.057 5.795-5.472 11.59.323M397.71 371.11c-1.127.483-2.093 1.127-3.06 1.45M408.82 388.65c-1.37.08-4.185-.08-5.715-1.127M403.19 394.77c-1.127.564-3.623 1.53-5.072 1.852M347.97 492c-.16 2.9 2.737 7.083 4.346 8.37M360.53 485.08c-1.61 2.413-2.575 6.6-1.61 9.496M384.51 494.74c-2.898-1.933-.966-6.925-1.288-10.142-.322-3.22 3.38-8.37 10.625-4.025M357.47 476.39c2.898-.483 5.956-.325 7.888.48M394.17 467.21c-1.288 1.77-1.61 3.704-1.77 4.992M407.69 466.89c-2.254 0-4.185 1.608-5.15 3.22M376.46 384.47c2.576.886 9.256 4.99 9.498 9.257M403.83 363.54c-7.888-.16-10.946-8.21-4.99-8.21M418 374.32c-3.058 1.288-1.608 6.6 2.737 9.176M399.16 424.87c-1.53-1.93.483-7.563 5.473-5.875M410.91 483.63c.32-4.908 6.52-7.808 9.016-2.254M388.05 497.63c-.403-5.392 2.334-7.162 4.748-7.483 2.415-.32 5.877 1.687 7.487 5.23M340.08 501.66c.322-3.22 3.06-6.6 5.956-6.117M634.67 358.71c-2.096 1.53-3.462 8.37 4.504 9.015M622.44 369.98c0 .805 1.046 1.932 1.692 2.415M660.43 382.86c-2.092-1.61-7.487 4.91-2.575 9.66M609.24 436.95c-1.208-4.588 3.058-5.796 7.083-4.83M598.94 404.43c2.413-1.61 4.83-3.38 7.888-4.185M597.65 422.13c0-3.862 1.93-7.08 3.7-8.046M611.81 377.71c-.32 4.668 1.613 9.176 3.063 11.59M650.13 378.03c-2.337.725-4.43 1.61-5.313 3.542M647.55 391.23c1.13-.966 2.417-2.092 2.98-2.897M708.4 250.69c0 4.507-5.633 6.922-9.333 4.024M720.64 250.85c2.492 1.932 11.104.08 9.092-4.91M710.17 276.77c-1.77-.322-4.83-2.254-6.117-3.863M727.88 263.41c-2.896.644-4.83 0-6.28-.644M682.16 279.51c1.608 0 5.47-.644 8.13-2.012M677.33 251.02c-2.092-.24-3.625.16-4.83.966M709.77 258.9c-.563 2.013-2.013 5.15-3.783 6.52"/><path stroke-linejoin="round" d="M671.86 265.99c4.025-1.77 9.017 11.912 18.675 7.083M691.34 258.9c-1.288 1.77-2.092 4.508-2.254 6.922"/></g><path d="M498.81 237.98c1.288-.16 3.542-.644 4.025-2.254M333.16 387.85c4.83 2.737 8.21 7.405 6.117 14.327M554.5 223.17c1.45.966 6.925.966 9.983-.16M568.35 226.39c-.163 2.254.483 10.785-3.862 12.556M566.1 237.82c4.025 1.288 12.075.805 14.65-6.6M575.11 237.49c2.092 3.22 2.733 9.498-3.542 12.878M576.72 242.81c4.667 1.61 15.454 1.77 14.325-7.405M587.35 242.81c3.22 4.507 17.388 9.82 15.133.483M574.31 255.84c5.47 1.288 13.2-2.415 9.98-12.073M599.74 248.6c.804 3.703 18.833 7.566 16.42-.805M612.78 252.63c3.383 7.727 21.25 7.083 15.617-3.22M625.5 257.45c3.542 4.347 19.32 1.77 13.042-8.693M638.37 257.29c9.82 7.405 21.25-3.22 8.854-10.947M652.86 254.88c8.696 6.922 19.32-5.635 11.754-9.176M584.12 251.98c2.737.805 8.533.483 9.82-4.507M591.77 250.85c-.32 7.325 11.996 10.142 15.133 1.69M602.8 257.13c2.254 4.83 13.038 6.76 14.808-.16M615.84 260.19c1.77 4.83 11.108 4.347 13.683-.644M626.14 262.77c2.896 6.278 14.808 6.278 17.546-2.898M641.6 263.89c4.667 2.898 14.65 1.77 13.842-7.244M653.51 263.09c6.92 5.635 16.742.16 11.913-9.337M664.94 270.49c3.704-.644 5.633-8.05 1.77-9.98M579.14 271.78c7.725-4.185 9.175-11.268 3.862-18.19M585.74 264.7c4.83 2.897 14.004-.16 15.613-7.244M592.34 265.5c2.733 3.54 3.217 7.888-.325 11.912M594.59 270.01c8.53-5.312 19.154 4.508 11.267 10.464M604.41 269.53c1.933-.483 5.313-4.024 5.633-8.05M608.27 273.23c3.542-3.703 27.692 3.864 12.396 11.59M619.54 263.09c4.667 1.77 7.083 8.37 0 10.625M625.66 279.19c5.15-5.312 21.25-1.932 15.454 4.83M637.25 277.09c2.896-9.82 20.12-3.703 14.488.322M633.71 267.27c.483 1.932.642 6.76-2.575 9.337M648.2 265.34c.642 1.61.483 4.668-.967 6.6M659.14 265.5c.967 1.77 2.575 5.15-.967 7.888M521.35 191.45c.158 9.175 3.38 15.293 15.775 9.498M525.21 202.4c-6.117 8.21.804 17.064 12.88 8.21M506.37 206.42c8.37 9.015 23.342 2.415 13.683-11.27M530.2 214.15c-1.613 8.854 5.633 10.625 11.588 6.6M498.97 207.87c1.525 8.9 10.625 15.937 19.48 10.464M509.92 220.11c0 12.718 17.546 14.166 21.57.966M525.21 229.12c5.633 11.59 17.867 6.922 21.892-.16M512.81 210.61c2.254 5.634 6.763 11.913 17.225 7.244M480.62 207.87c1.45 4.668 9.82 10.303 19.48 3.863M486.57 213.83c-5.154 7.566 5.15 14.65 17.546 3.38M492.69 223.17c2.092 10.625 6.275 19.157 21.408 5.473M506.53 234.11c5.475 6.76 13.846 10.946 21.733-.483"/><path d="M534.06 236.04c-.483 8.05 1.125 12.073 7.404 11.75 4.95-.252 9.66-4.184 12.396-8.37M540.34 247.8c-.163 9.176 7.08 16.42 20.604 7.083M545.97 258.58c-2.575 6.922 5.15 18.19 20.283 12.395M513.94 240.23c-.963 8.854 7.246 14.81 20.446 3.38M520.38 250.05c.483 7.244 8.692 15.937 20.767 3.38M526.17 259.23c-.967 12.395 10.463 15.937 20.12 6.44M508.95 250.05c2.575.16 4.667-2.092 5.954-3.703M514.42 259.06c2.254.483 6.12-1.61 7.408-4.185M520.06 273.71c2.575 2.737 11.267.805 12.392-2.897M529.72 273.55c4.83 11.268 17.704 10.785 23.017-1.932M550.32 276.13c2.413 6.6 8.533 10.785 18.513 8.532M555.15 282.89c-5.633 9.176 1.77 19.96 14.325 9.337M558.21 296.57c-.642 5.795 4.67 12.395 11.913 13.2M534.38 279.67c-1.933 13.04 7.404 19.318 19.158 12.395M520.7 285.95c3.058 2.415 8.533 2.737 13.683.805M540.66 294.32c-2.9 10.947 8.37 18.835 18.03 6.6M525.05 287.72c.163 5.634 5.638 11.75 15.133 9.98M566.74 308.97c-6.442 4.346-7.73 12.073 1.288 17.063M550.96 306.71c.325 6.6 3.383 10.303 10.625 10.946M541.47 303.33c-9.658 8.854-.163 19.157 11.267 10.464M548.23 316.53c-3.22 10.142 8.854 16.26 15.292 5.956M528.27 294.96c-3.542 9.98.967 16.58 9.175 15.937M515.55 293.03c.483 5.956 5.633 8.05 11.43 6.76M519.25 299.31c-4.346 8.37 2.254 12.878 10.95 9.66M556.6 327.64c-1.45 5.312-.646 9.176 7.242 10.947M557.08 335.21c-9.5 4.347-10.304 13.523-2.9 19.478M549.43 324.99c-4.987 4.508-4.025 12.314 1.45 15.373M507.18 295.61c-5.475 5.393-.242 20.283 11.83 12.155M538.57 314.44c-7.408 6.117-4.025 17.225 8.208 14.166M526.33 309.77c-3.862 10.947-.158 14.81 8.533 14.97"/><path d="M499.13 295.12c-6.6 4.99-4.83 12.073-1.93 15.293 2.897 3.22 8.368 1.77 10.14-2.415M485.28 290.78c-7.404 9.498 0 20.766 10.467 17.386M524.89 318.95c-7.567 2.737-13.338 9.607-8.696 15.615 2.738 3.542 14.65 4.025 18.03-9.66M511.2 310.09c-4.346 6.278-2.9 12.235 5.15 15.293M510.72 321.85c-4.67 2.576-7.73 5.635-6.6 11.27M500.26 312.03c-1.77 7.566.32 12.235 4.987 14.488M500.1 321.04c-7.246-.483-10.946 2.575-8.533 9.66M492.21 322.81c-7.083-2.576-8.213-8.693-5.154-15.132M486.09 317.18c-7.73.322-11.108 4.185-11.108 9.498"/><path d="M475.62 287.07c-5.633 2.415-7.404 9.98-5.313 14.166 2.096 4.185 8.696 4.508 12.72 1.77M459.85 281.12c-5.15 5.795.804 17.064 9.983 14.327M446.65 276.61c-4.83 6.76.483 18.03 12.88 14.81M460.17 322.81c-1.288-8.05 7.083-13.36 17.388-2.898M472.57 303.66c-3.058 2.737-4.504 7.083-4.025 10.625M433.45 272.75c-5.313 9.015 1.13 17.225 12.558 14.005M463.23 295.12c-7.567 7.566-4.992 15.132.642 19.478M458.4 303.98c-11.43.16-12.07 13.36-2.733 17.547M449.71 290.78c-4.667 3.22-6.117 12.073 1.933 15.615M449.39 310.58c-4.83-2.254-10.625.483-10.142 6.117M442.14 310.74c-4.346-10.303-17.063-8.532-15.933 2.093M445.68 298.02c-2.733.483-8.208 2.092-10.3 6.278M436.19 286.43c-5.15 5.795-1.13 12.717 3.058 14.166M420.9 270.17c-.967 6.922 1.77 10.303 10.463 9.66M423.95 279.03c-3.383 8.37 1.125 12.073 9.817 11.59M425.88 289.33c-5.15 6.117-1.608 12.718 3.38 15.454M423.47 297.06c-9.175-1.127-10.625 9.498-7.567 14.488"/><path d="M416.06 269.37c-5.632 2.415-8.852 9.498-5.793 13.844 3.06 4.346 9.176 2.897 12.556.644M412.2 285.14c-4.668 7.083-.483 12.395 4.508 14.488"/><path d="M394.17 268.56c-3.702 3.863-1.45 11.752 7.566 11.913 7.258.13 10.946-6.76 8.693-11.59M400.45 280.47c-2.897 6.44-1.127 13.36 9.82 12.234M414.94 302.85c-6.76-3.058-15.776 0-11.912 8.05M402.06 291.42c-2.737 3.863-1.77 9.337 1.288 12.717M401.58 301.72c-4.508.805-8.854 3.22-6.117 10.303M394.81 306.23c-5.795-1.77-13.2 2.415-8.693 8.37M385.16 308.97c-4.99-.805-10.946 4.507-6.117 9.82M377.11 314.44c-4.508 1.127-9.82 6.278-5.152 10.303M399.81 289.17c-6.44 2.897-7.083 10.142-4.025 15.454M393.04 275.81c-9.66 3.703-9.498 16.58 1.127 20.605M389.66 293.51c-5.795 3.38-6.922 9.82-3.058 14.005M379.52 270.98c-3.864 1.288-3.542 13.2 6.76 12.878M368.9 275c-7.727 5.15 1.61 18.19 14.166 8.854M376.14 287.07c-1.127 5.313.322 11.108 8.854 11.752M376.62 294.16c-6.117 2.253-7.244 14.81 3.863 15.776M357.15 282.73c-7.888 7.244 6.44 13.522 11.752 3.06M346.2 294.8c-3.864 4.668 9.658 16.903 15.615-3.542M363.26 290.94c.322 4.83 3.22 7.727 9.175 8.05M372.28 303.66c-9.498 1.45-12.556 13.36-1.932 15.937M354.73 302.05c-.322 4.507 4.346 8.21 9.66 7.405M369.22 319.27c-8.693 1.932-9.82 13.2-2.092 12.556M363.1 342.29c-7.245-2.173-7.405-10.786-.966-14.005"/><path d="M357.15 334.72c-6.117 3.703-3.702 12.556-.483 13.844 3.22 1.288 5.795-.322 6.118-3.058M362.3 357.9c.644 4.185-14.89 2.576-6.922-10.463M355.29 358.63c-5.23 8.21 3.3 14.89 8.693 7.888M356.02 368.53c-2.093 6.6 5.875 11.35 11.026 6.198M338.63 306.71c-2.898 5.956 11.59 8.21 12.556-4.025M334.61 315.57c-2.897 11.59 18.995 9.176 13.36-5.795M348.45 317.5c3.058 1.77 12.235 1.932 14.488-7.888M356.34 317.82c.644 3.058 3.38 6.76 5.956 7.888M345.88 320.88c-.966 6.278 5.312 11.43 12.556 10.947M347 327c-3.54 4.83-4.668 14.166 6.44 14.81M330.1 328.61c-1.77 4.99 8.693 10.142 14.81 1.932M326.88 341.32c-.886 3.784 8.532 8.854 13.844-7.244M336.54 342.29c2.254 4.024 9.82 7.244 14.488-.644M343.46 346.48c-1.932 5.634 3.38 10.946 9.82 9.337M331.39 345.19c-1.288 8.05 8.05 12.717 13.844 8.532M325.27 348.73c-2.736 10.303 10.464 14.166 15.454 6.44M337.35 358.23c.483 5.795 9.498 10.785 16.58 5.956M321.25 363.06c-.644 2.575 10.142 5.15 11.75-3.864M327.53 365.31c2.575 6.6 11.268 8.21 16.26.16M340.89 368.69c1.127 6.117 9.015 9.498 15.937 5.312M359.72 376.42c-1.77 8.21 6.76 14.81 12.073 10.303M346.04 374.97c-2.575 9.015 8.693 14.166 14.97 9.176M332.52 370.46c-.644 8.37 5.956 13.36 13.522 9.658M318.19 371.27c-2.254 5.473 9.66 9.98 15.293 5.313M310.78 386.24c3.06 3.54 13.683 0 14.65-7.888M322.54 384.14c3.863 4.508 13.04 6.922 16.742-2.737M336.06 386.4c-.16 6.922 12.235 11.913 16.26-.805M366.88 388.09c-1.127 3.38 1.53 8.773 7.083 9.417M356.66 386c-.805 3.863 4.83 9.255 10.786 7.083M368.58 394.69c-1.61 4.185-.242 10.22 5.392 10.14M369.14 402.5c-4.185 3.54-2.415 9.82 3.623 10.062M366.97 408.45c-5.956 4.022-3.863 12.877 4.024 12.398M348.94 391.39c0 8.693 10.785 9.98 12.878 1.932M357.63 398.47c-1.61 5.15 2.575 10.142 9.175 8.693M358.92 460.61c1.45 2.096 7.405-1.446 5.795-4.987s-7.92-1.617-7.244 2.09M363.26 454.17c.805-7.083-7.566-8.208-9.66-2.092M356.66 448.54c2.093-3.542-4.99-8.37-7.888-3.22M351.35 443.22c1.932-5.154-6.117-7.404-6.76-2.737M342.82 433.72c.966-2.575 9.98-.967 6.117 4.346M355.86 444.51c3.542-3.22-2.414-9.82-6.117-7.404M379.68 454.33c-2.818.32-5.716 2.17-3.623 8.13 1.45 4.133 7.647 4.345 8.532 1.85"/><path d="M375.58 457.31c-2.737-1.77-8.693 1.208-5.956 7.004 2.06 4.363 7.244 2.575 8.05.32M360.2 465.6c1.367 2.413 8.21 1.37 9.417-1.288M364.87 457.63c1.45-.967 4.104.237 4.668 1.446M364.39 417.95c-4.668 3.058-1.77 12.396 5.473 9.98M362.94 425.52c-3.703 2.896-.322 11.913 6.6 8.533M364.07 434.05c-2.575 2.575-.08 9.738 6.6 8.37M363.1 437.59c-1.45-.646-5.232-.163-6.843 2.25M358.92 404.99c-3.54 3.38-1.852 10.304 4.748 10.866M357.63 412.07c-5.072 2.496-5.072 12.554 5.07 12.958M357.23 423.42c-2.817 2.254-1.45 10.946 5.795 9.817M359.56 432.92c-1.047 1.046-1.208 3.704-.322 4.83M356.34 429.62c-2.575.08-5.956 1.933-6.843 4.588M344.83 424.87c.966-2.575 8.935-2.413 9.498 5.154M355.13 421.01c-1.127.242-3.3 1.288-3.863 3.462M351.67 397.43c-3.462 3.14-5.15 13.04 5.392 14.97M344.67 417.87c0-2.658 7.164-4.912 9.66-.967M340.08 403.46c1.046 2.013 6.036 4.75 9.095 2.496M314.16 387.69c-.16 4.668 3.703 8.854 9.015 8.21 5.312-.644 6.44-5.313 4.83-8.37M323.98 396.06c-3.542 4.346.805 10.464 4.83 8.693M328.01 393c2.093-.805 9.015-1.77 11.108 1.45M305.63 394.29c-1.61 2.415 8.37 4.83 11.75.16M314 396.86c-.323 3.22 1.288 8.693 9.498 6.44"/><path d="M324.79 408.29c1.288-2.737-4.83-7.244-9.498-2.254-4.668 4.99.644 10.625 3.542 8.692M303.38 397.51c-2.415 4.185 6.922 11.833 12.235 4.75"/><path d="M297.18 404.75c-3.38 3.462.805 9.82 5.876 7.888 5.07-1.932 4.588-7.244 3.38-8.612"/><path d="M290.66 411.19c-2.737 2.494-.08 8.37 3.703 8.37 3.782 0 6.117-2.976 5.392-6.76M306.03 410.71c-.483 3.702 4.99 6.277 8.532 2.82M314.73 406.76c.483-.805.08-2.174-.723-2.818M284.79 416.18c-3.138 2.496 3.623 9.417 7.888 3.058M309.01 414.81c-2.013 1.93 1.207 7 4.426 5.47M297.99 418.35c.483 3.458 7.244 6.033 11.51.725M301.69 421.81c-1.046 2.175 1.047 5.638 3.623 5.154M365.76 441.7c-2.494 4.908 5.473 10.625 11.27 4.667M371.55 449.02c-1.207 2.654.242 6.358 2.415 7.725M363.99 454.57c.564-2.417 4.024-4.67 7.164-3.542M359.8 448.21c.483-2.17 3.38-4.346 5.554-3.78M549.35 347.76c-11.43.16-6.6 18.513 3.22 14.81M545.65 361.29c-2.254 3.703 2.092 9.58 6.92 6.117M551.29 368.13c-3.383 5.634 8.692 14.246 13.52 5.392M560.95 376.9c.158 5.313 15.613 8.693 13.363-1.932M572.86 380.76c3.7 6.278 17.546 6.922 16.096-2.415M585.9 384.79c2.9 4.185 16.42 6.76 15.938-1.932M531 331.83c1.93 4.99 8.53 6.76 15.775 3.863M526.82 335.37c4.508 2.897-2.092 16.098-9.012 10.785M526.82 343.58c4.992 2.415 11.108.644 12.88-6.44M536.64 342.61c.483 3.703 5.796 6.6 12.717 5.15M524.24 346.48c6.442 5.473-2.896 16.742-7.083 11.59M526.66 350.66c3.058 2.254 10.946.966 11.75-4.99M534.87 350.66c.646 3.863 3.704 5.312 8.05 5.473M524.89 355.97c3.217 4.508 11.267 5.795 14.808-.16M536.15 359.19c-.32 4.347 4.508 7.888 9.5 6.922M518.61 368.85c4.183 2.092 8.692-5.795 5.15-11.268M523.44 377.22c4.992.322 5.633-7.244.967-11.43M534.87 384.14c4.188-.966 2.896-10.142-7.246-10.947M547.58 390.91c4.025-1.127.804-11.27-10.3-10.625M562.88 394.45c2.733-4.185-6.28-11.268-13.683-7.566M570.44 400.24c4.992 1.45 8.37-11.75-7.404-9.66M579.62 400.24c4.35-1.127 7.408-9.015-5.308-6.44M589.28 400.89c3.862 1.932 5.633-9.337-6.12-6.278M524.4 365.79c4.83 2.737 12.396-.483 11.75-6.6M534.22 364.51c1.613 2.897.967 8.532-2.092 9.98M534.7 371.27c3.22 1.288 7.567.16 10.142-4.99M540.34 371.27c.963 2.254 1.288 6.76-.808 9.015M541.15 375.13c3.542 1.932 7.725-.644 9.496-4.347M548.39 374c2.575 1.61 4.83 9.176.483 12.235M551.29 382.7c3.058.16 7.567.16 10.463-3.703M559.66 381.09c2.737.805 5.954 5.313 4.83 9.337M564.65 388.97c3.063-.322 8.37-2.415 9.82-6.117M573.02 385.27c2.58 1.45 4.35 4.507 4.025 8.05M577.04 390.74c3.058-.16 5.796-1.77 6.6-5.15M582.84 387.85c2.254.805 4.992 3.38 5.154 6.44M587.67 392.35c2.254-.322 3.862-1.77 5.313-4.025M599.1 388.01c2.9 2.898-.963 12.557-6.92 10.786M537.28 192.9c-5.958 3.54-22.863 2.415-14.492-11.59M538.89 183.4c-11.75 4.668-26.242-4.346-11.108-14.166M523.76 166.02c-9.82 0-16.42 15.776-3.217 21.25M485.61 172.62c-2.575 4.99 6.6 10.463 12.88 5.473 4.862-3.866 4.503-14.327 1.607-18.352M480.62 184.53c-3.22 10.624 20.446 11.268 16.742-5.635M479.33 200.31c.804 8.05 22.7 5.473 15.613-10.786M497.52 185.01c1.77 2.415 6.6 6.6 14.808 5.795M501.38 173.58c.725 2.897 5.633 5.15 11.913 2.98M281.73 418.51c-5.553 3.946 2.98 10.142 6.117 3.3M277.38 421.57c-5.553 3.942 2.98 10.138 6.117 3.296M272.79 424.55c-5.555 3.946 2.978 10.142 6.117 3.3M267.96 427.29c-5.313 2.817.885 9.738 6.278 3.62M262.73 429.95c-5.313 2.813.886 9.738 6.278 3.62M289.7 421.65c-.08 4.104 7.727 5.796 10.543-.325M294.61 425.44c-2.415 3.058 2.013 6.842 4.428 5.47M284.22 424.87c-.242 3.462 6.52 5.475 9.82 1.692M287.93 428.5c-2.174 2.817 2.092 6.6 4.83 5.47M279.72 428.01c.24 2.737 4.104 5.875 8.29 4.104M282.21 431.71c-1.61 1.45-.805 4.833 1.45 5.88M273.84 431.47c-.644 2.496 3.623 6.925 7.97 4.025M274.72 434.37c-2.575 2.013-2.254 5.07 1.046 5.47M268.53 434.05c-.322 1.688 1.852 4.425 4.59 4.104M254.76 433.89c-2.575 1.367 4.025 8.37 8.13 1.85M248.4 436.78c-3.22 1.533 4.75 9.258 8.29 1.37M269.25 436.46c-2.496.563-4.105 4.188-2.013 5.633M261.12 437.75c-.322 1.45 2.737 3.862 5.233 2.98M259.03 438.4c-2.415 1.53-1.127 5.792 1.69 5.15M250.42 441.21c-2.254 1.688-.725 5.07 2.415 4.267M254.52 440.97c.08.883 2.093 2.254 3.784 1.692M242.61 439.52c-2.816 1.208-2.655 8.292 6.843 4.43M236.25 442.34c-3.945 1.933-2.657 7.246 5.956 2.175M242.93 444.92c-1.046.804-2.172 4.346 1.77 2.975M235.69 446.6c-1.61 1.45-.563 4.43 2.98 3.3M227.4 447.09c-2.897 1.692 3.46 3.946 7.727-.563M229.33 449.18c-1.288 1.288-1.288 5.07 2.092 3.704M221.12 450.71c-1.932 1.45 1.368 3.383 7.405.725M223.53 452.8c-2.254 1.85-2.013 4.183 1.288 3.458M216.85 453.85c-2.495 2.254 1.127 3.783 5.473 1.93M216.93 456.35c-4.267 1.93-2.415 5.47.24 4.104M359.4 468.66c-.99 2.13 2.254 3.862 5.313 3.38 2.937-.463 5.748-2.884 3.54-6.276M368.41 469.95c2.897 2.254 8.05-.32 8.05-3.704"/></g><g fill="#fff"><path d="M545.97 128.83c-12.88-6.44-39.6-18.352-47.167-8.693 6.92-2.897 27.204.16 43.946 15.615l3.22-6.922z"/><path d="M553.78 128.15c-14.892-17.347-23.663-13.464-34.37-19.44-10.06-5.613-26.08-6.76-29.184 2.168 14.696-7.157 28.188 3.85 36.475 5.18 11.384 1.828 17.81 10.63 21.14 14.676l5.94-2.584zM609.88 125.93c-7.73-17.708-24.254-13.083-31.554-20.605-10.62-10.946-37.504-21.088-48.613-13.522 24.467-1.288 34.888 16.865 47.97 23.18 9.338 4.508 19.318 14.167 32.197 10.948z"/><path d="M580.91 124c-13.2-16.42-33.488-30.908-42.82-25.435 12.232.644 16.095 9.176 24.79 14.65 8.693 5.472 4.83 13.36 18.03 10.785zM518.12 152.98c-13.846-5.15-40.888-7.727-53.446 8.05 20.93 3.54 52.48 1.61 53.446-8.05z"/><path d="M515.55 159.1c-13.846-6.44-24.658 2.555-37.67 1.288-24.79-2.415-42.497-.966-44.75 10.946 14.166-12.717 37.99-2.253 47.65-4.83 9.657-2.575 45.395-.32 56.662 4.508-5.796-7.083-14.808-9.014-21.892-11.912zM559.01 122.23c-3.217-10.625-3.058-21.893 12.88-21.088-4.026-4.99-18.834-7.566-21.25 11.108-17.547-12.878-36.705-15.132-40.243-4.024 9.012-7.727 23.017-2.093 39.758 16.903 1.45-.806 5.313-2.416 8.854-2.9z"/><path d="M534.87 136.88c-9.98-6.44-23.504-16.903.163-21.088-10.142-5.473-24.954-3.06-23.342 15.615-27.045-10.947-46.466-7.252-50.55 3.54-4.508 11.914 12.24 18.514 15.134 10.948-3.06 1.288-13.52-2.253-8.05-9.015 5.475-6.76 33.525-1.685 60.208 12.235 7.404 3.864 32.838 3.22 6.437-12.235z"/><path d="M527.78 154.59c-7.7-15.722-32.68-1.45-37.713-16.678-6.88 22.312 35.52 9.966 37.713 16.678zM686.67 171.65c5.237 2.603 9.767-1.49 1.754-4.698 5.242 2.6 9.813-1.392 1.8-4.603 5.242 2.6 9.813-1.393 1.8-4.603-2.137 2.15-5.196 10.04-5.354 13.903zM689.4 141.39c11.592-12.234-.963-16.42 13.2-28.976 11.592-10.273 2.212-17.12 13.204-25.113 3.542-2.574 11.267-7.726 11.913-12.877 4.667 11.59-14.492 13.2-13.204 31.874.82 11.89-7.217 10.85-10.3 30.908-.646 4.185-3.542 13.522-14.813 4.185z"/><path d="M694.56 146.86c6.438-13.844 13.83-13.578 17.383-18.995 6.763-10.303 21.088 1.77 33.163-7.405-2.092 13.04-18.35 8.37-25.433 16.742-7.083 8.37-12.88 12.235-25.113 9.66z"/><path d="M696.17 151.37c11.27-9.015 19.575-3 27.367-7.727 19.638-11.913 27.53 2.414 45.075-3.22-4.67 11.268-30.588 1.61-41.854 9.98-11.27 8.372-50.87 16.42-30.588.967zM663.33 215.6c-.163-5.15-4.992-11.752-11.754-12.556-6.758-.805-9.658-7.888-14.808-8.21-5.15-.322-8.533-10.625-15.617-10.464-7.082.16-9.978 9.337 6.6 17.708 16.584 8.37 34.934 18.03 35.58 13.523zM642.4 219.95c-7.083.322-8.05 10.625-14.808 10.947 9.333 4.99 16.096-2.254 20.925-8.693l-6.117-2.254z"/><path d="M648.2 221.23c-6.117 5.15-7.888 15.937.967 18.995-5.313-7.325 9.337-10.625 4.83-17.386l-5.797-1.61z"/><path d="M654.31 221.56c-4.83 9.337 7.567 10.463 4.346 17.547 7.083-1.61 8.212-14.97 1.77-18.513l-6.116.966z"/><path d="M606.98 201.59c11.592-.644 22.192 5.627 29.3 15.776 4.508 6.44 19.638 9.015 24.792 3.863 5.15-5.152 2.254-16.1-10.625-12.557-3.22-5.473-12.558-3.54-17.063-8.05-4.508-4.506-21.896-17.384-26.404.967z"/><path stroke-linecap="round" d="M650.45 208.68c-3.058.644-4.025 5.956-2.096 8.693M657.05 211.9c.967 1.61.32 3.863-.163 4.99M625.34 202.08c5.954.322 7.083 4.67 13.52 6.278"/><path d="M621.4 187.43c20.57 5.15 36.892 9.66 47.013 15.454 10.12 5.795 25.792 7.405 39.504 3.542 13.713-3.864 40.154-7.405 38.85 9.66 7.188-8.534-1.958-17.71-20.242-19.32.33-8.37-8.63-15.937-15.07-10.947 5.957-.805 11.1 10.302-.65 14.81 2.282-8.37-6.043-15.938-14.693-12.235 5.55 1.61 11.163 10.917-1.254 14.488-7.838 2.254-19.263-.643-27.75-5.795-8.488-5.15-56.154-23.825-45.708-9.658z"/><path d="M673.31 179.06c-6.438 2.897-2.254 9.66-12.233 13.522-9.983 3.863-16.904 12.717-14.65 20.283 6.763-14.81 18.675-14.166 22.858-19.96 4.188-5.796 10.304-14.328 4.025-13.845z"/><path d="M675.08 180.02c-.32 11.75-9.57 7.47-5.958 23.986 1.13 5.15 3.22 13.522-.32 21.893 10.382-7.567 3.703-23.46 8.37-29.46 2.254-2.897 5.15-7.405 6.28-11.268-2.418 6.76-2.255 19.318 4.345 22.537-5.313-12.558 14.33-22.86.804-37.348-1.928 3.542-8.05 9.82-13.52 9.66zM642.24 168.27c1.613 2.415 3.22 8.532 1.77 11.913 3.222-1.932 7.893-6.922 9.338-10.303 6.6.966 9.175 9.176 2.9 12.717 3.863 0 10.463 0 14.163-4.346-4.503-4.99-18.507-12.717-28.17-9.98z"/><path d="M542.11 145.18c-1.042-.95-2.8-1.852-5.954-2.5-9.746-1.998-4.713-10.784 3.583-10.706 17.703-19.317 27.645-4.426 49.216-10.543 7.55-2.14 12.733-1.506 16.846.273 9.658-6.44 20.988-4.64 29.2 2.926.913-1.452 2.138-2.56 3.858-3.038 7.563-2.1 13.68 4.348 15.77 12.72 5.897-1.093 12.63 1.825 17.06 5.85 6.133-3.15 10.357-3.29 11.912-.052 5.475-2.575 12.567-4.19 16.108 4.502 3.542 8.693-8.37 6.118-10.304 24.47-1.19 11.32-13.842 15.775-23.825 9.014-15.966-10.817-31.55-12.557-39.278 3.864-7.725 16.42-13.78 25.96-32.517 20.605-6.758-1.932-15.454.644-20.925 8.05-5.475 7.404-13.846.48-23.825 1.286 12.554-1.93 7.746-5.088 18.675-5.794 9.98-.644 7.405-9.98 13.842-11.268-25.113 6.44-24.146-2.898-44.75 3.54 9.013-11.59 23.18-5.15 30.263-11.91-18.675-.323-27.025-12.523-35.417-7.406-13.2 8.05-7.408 30.965-41.854 28.976-16.742-.966-27.367 1.288-37.346 11.27 17.388-36.06 41.038-16.25 52.48-27.69 6.762-6.76 11.912-11.912 15.453-18.35 1.247-2.267 2.935-3.563 5.043-4.064-28.654-9.015-11.325-23.058 16.688-24.023z"/><path stroke-linecap="round" d="M683.59 140.11c.438.905.662 2.08.662 3.533 0 7.082-10.624 7.405-11.266 17.87-.338 5.472-.967 8.53-4.67 7.886-3.7-.645-6.922-6.44-3.38-13.2"/><path d="M547.42 134.63c-2.667-1.874-5.333-2.635-7.725-2.657M605.74 121.65c8.525 3.69 12.683 12.546 25.067 12.98 11.92.418 19.32 17.708 39.28 6.44.54-.306 1.07-.59 1.582-.855M635 124.63c-1.78 2.83-2.183 6.778-1.696 10.244M596.04 161.03c-15.13 0-18.996 7.727-18.996 15.132 0 7.405 7.083 17.064 19.642 17.064 12.554 0 19.317-7.727 19.317-16.098s-7.73-16.098-19.963-16.098z"/><path d="M598.77 192.9c-.32-4.185-7.888-3.542-7.567-6.76.32-3.22 4.188-4.51 4.188-9.016 0-4.507 6.76-4.83 9.013-1.288 2.255 3.54 9.017 10.463 10.467 6.922M604.41 175.84c-3.542 3.54-5.15 10.785-.483 16.42M609.24 181.31c-1.125 2.415-1.446 6.117-.158 8.37"/><path fill="none" d="M669.36 169.48c11.833.966 13.846-12.074 4.992-12.878M654.8 134.31c-4.104-5.23-13.52-7.002-13.683 4.105"/><path d="M639.99 151.05c-4.025-9.98-14.33-11.43-19.804-6.44-4.554 4.154-4.667 14.972 5.154 17.226 3.38-4.024 9.98-9.337 14.65-10.785zM635.56 144.77c-5.796-5.152-14.33 4.588-6.6 13.522M525.31 169.16c3.88-.92 9.55.978 18.246 5.067 5.475 2.576 21.896 8.05 32.196 2.576-10.625 3.864-18.67-12.235-26.72-10.303-8.05 1.932-22.78 4.91-28.976-.966 15.13.966 23.267-11.02 40.563-.644 4.832 2.898 10.95 4.83 16.42 4.508-14.163-17.064-32.838-6.118-34.77-19.96 8.532 9.175 29.378-2.094 40.003 15.13M545.33 152.01c-1.992-2.48-1.092-4.95-3.23-6.905"/></g><path d="M654.8 134.31c-3.542-3.783-11.267-.805-9.096 6.842 1.692-3.54 5.313-6.52 9.096-6.842zM632.91 154.93c2.438-1.77 4.954-3.223 7.075-3.882-1.158-2.864-2.83-5.026-4.758-6.534-1.842-1.272-7.134 5.844-2.317 10.416z" stroke="none"/><g fill="none" stroke-linecap="round"><path d="M623.4 141.87c-5.796-3.863-11.108-3.54-12.88-.322-4.182-.16-7.645 2.898-7.807 9.015M611.65 153.14c-6.92-4.748-16.42-2.978-15.775 7.647M591.69 166.82c3.38-2.737 8.208-4.668 11.913.16M643.37 156.36c-1.288 1.77-2.254 4.507-.163 8.693-2.575-3.38-9.012-3.38-15.938 5.634M658.66 155.88c-8.37.966-8.208 6.44-1.45 8.854M599.1 135.43c-7.083-1.45-12.233 2.737-2.413 6.278M612.62 130.6c-9.983-2.415-14.008.16-9.5 2.415M583.8 170.69c-.32 3.542 1.608 8.21 7.404 2.898M585.74 181.31c0 .966-.163 2.092-.808 2.897M562.55 134.14c-6.117-1.77-7.242-7.405-.158-6.922M560.46 147.18c-6.763-2.254-6.763-8.854-1.13-8.21M573.02 143.8c-7.888-1.932-8.208-7.405-2.25-6.6M573.98 127.06c-4.183-.322-10.625 4.347.163 7.083M585.74 136.4c-9.82-1.45-9.658 2.576-3.867 5.152M593.14 127.06c-7.567-1.45-10.142 3.06-4.992 4.99M569.32 154.91c-1.854-1.53-3.38-8.854 5.47-6.68M587.67 152.66c-5.954-1.61-11.588 4.185-6.117 7.566M595.55 145.74c-6.275-1.127-11.588.644-8.208 2.897"/></g><path fill="#fff" d="M654.46 134.31c-3.538.655-6.708 2.734-8.762 6.84"/></g></svg>