<svg xmlns="http://www.w3.org/2000/svg" xmlns:xlink="http://www.w3.org/1999/xlink" width="900" height="450" viewBox="0 0 1098 549"><title>Flag of Belarus</title><path fill="#C8313E" d="M0 0h1098v549H0z"/><path fill="#4AA657" d="M0 366h1098v183H0z"/><path fill="#FFF" d="M0 0h122v549H0z"/><g id="b"><g id="a" fill="#C8313E" fill-rule="evenodd"><path d="M21.217 0H37.13v9h5.305v9h5.304v9h5.303v9h5.305v9h-5.305v9H47.74v9h-5.305v9H37.13v9h-5.304v9h-5.304v-9h-5.305v-9h-5.304v-9H10.61v-9H5.303v-9H0v-9h5.304v-9h5.305v-9h5.303V9h5.304zm5.305 18h5.304v9h5.304v9h5.305v9H37.13v9h-5.304v9h-5.304v-9h-5.305v-9h-5.304v-9h5.304v-9h5.305zm0 18h5.304v9h-5.304zM0 9h5.304v9H0zm0 54h5.304v9H0zM58.348 0h3.182v18h-3.182zm0 63h3.182v18h-3.182zm-47.74 18h5.305v9h5.304v9h5.305v9h-5.305v9h-5.304v9H10.61v-9H5.303v-9H0v-9h5.304v-9h5.305zm0 18h5.305v9H10.61zm31.827-18h5.304v9h5.303v9h5.305v9h-5.305v9H47.74v9h-5.305v-9H37.13v-9h-5.304v-9h5.304v-9h5.305zm0 18h5.304v9h-5.305zM0 135h5.304v9H0zm58.348-9h3.182v18h-3.182zM0 162h5.304v-9h5.305v-9h5.303v-9h5.304v-9h5.305v-9h5.304v9h5.304v9h5.305v9h5.304v9h5.303v9h5.305v9h3.182v36h-3.182v9h-5.305v9H47.74v9h-5.305v9H37.13v9h-5.304v23.4h-10.61V270h-5.303v-9H10.61v-9H5.303v-9H0v-27h5.304v9h5.305v9h5.303v9h5.304v-9h5.305v-9h5.304v-9h5.304v-9h5.305v-9h5.304v-9h-5.305v-9H37.13v-9H21.217v9h10.61v9H26.52v9h-5.305v9h-5.304v-9H10.61v-9H5.303v-9H0zm0 36h5.304v9H0zm58.348 27h3.182v9h-3.182zm-10.61 18h5.305v9h5.305v9h3.182v14.4h-3.182V270h-5.305v-9H47.74zM37.13 270h5.305v5.4H37.13z"/></g><use xlink:href="#a" transform="matrix(-1 0 0 1 122 0)"/></g><use xlink:href="#b" transform="matrix(1 0 0 -1 0 549)"/></svg>