<svg xmlns="http://www.w3.org/2000/svg" xmlns:xlink="http://www.w3.org/1999/xlink" width="750" height="500"><defs><radialGradient id="a"><stop stop-color="#ffef5d" offset="0"/><stop stop-color="#ea5700" offset="1"/></radialGradient><radialGradient id="b"><stop stop-color="#952d1a" offset="0"/><stop stop-color="#570a00" offset="1"/></radialGradient></defs><path fill="#ce1126" d="M0 0h750v500H0z"/><path fill="#003f87" d="M0 35.714h750v428.57H0z"/><circle cx="375" cy="250" r="196.429" fill="#fff"/><circle cx="375" cy="249" r="162.812" fill="none" stroke="#552300" stroke-width="4.103"/><g fill="#007f00"><path d="M356.19 76.24c14.725-15.797 28.04 2.452 27.684 11.003-.355 8.55-15.207 27.416-28.646 12.234 13.922 3.565 18.083-12.003 25.125-12.157-7.04.155-9.92-15.26-24.163-11.078zM202.92 200.12c-7.742-20.102 14.644-23.856 22.208-19.75 7.567 4.104 18.02 25.68-1.648 30.907 9.39-10.806-2.824-21.41.157-27.74-2.98 6.33-18.18 2.06-20.717 16.584zM533.28 180.24c20.168 7.905 7.847 26.827-.314 29.594-8.16 2.767-31.256-4.144-21.86-22.074 1.69 14.17 17.82 12.387 20.514 18.846-2.696-6.46 10.74-14.7 1.66-26.366zM269.58 393.14c-21.576-2.145-14.92-23.685-7.832-28.556 7.09-4.872 31.21-4.475 27.1 15.318-5.523-13.174-20.55-7.092-24.916-12.576 4.365 5.484-6.295 17.05 5.648 25.814zM487.64 377.55c.308 21.517-22.013 17.408-27.698 10.973-5.684-6.436-8.03-30.262 12.25-28.463-12.558 6.945-4.76 21.07-9.753 25.998 4.994-4.93 17.787 4.266 25.2-8.507zM218.64 159.24c-1.968-21.43 20.606-19.03 26.768-13.044 6.163 5.985 10.342 29.564-10.02 29.31 11.99-7.878 3.123-21.37 7.722-26.663-4.6 5.295-18.063-2.9-24.47 10.398zM241.76 360.29c-21.382-3.587-13.276-24.63-5.87-29.018 7.404-4.384 31.443-2.372 25.993 17.1-4.613-13.517-20.02-8.453-24.003-14.218 3.984 5.766-7.44 16.593 3.88 26.135zM410.72 77.127c19.418-9.578 25.333 12.174 21.94 20.043-3.39 7.868-24.026 20.27-31.157 1.337 11.738 8.24 21.2-4.845 27.84-2.507-6.64-2.338-3.813-17.762-18.623-18.873zM452.04 404.49c-9.626 19.283-27.594 5.512-29.69-2.79-2.094-8.302 6.78-30.564 23.997-19.77-14.37.486-13.93 16.587-20.64 18.71 6.71-2.123 13.86 11.853 26.333 3.85zM546.33 218.38c16.316 14.177-1.705 27.883-10.325 27.764-8.623-.118-28.03-14.337-13.104-28.086-3.21 13.91 12.584 17.614 12.932 24.595-.35-6.98 15.097-10.257 10.498-24.273zM272.4 105.04c4.87-20.97 25.56-11.7 29.535-4.103 3.974 7.596.53 31.29-18.735 24.743 13.866-3.772 9.686-19.334 15.718-22.94-6.033 3.606-16.25-8.352-26.517 2.3zM208.27 284.73c-19-10.373-4.365-27.596 4.082-29.318 8.445-1.722 30.477 8.033 18.87 24.64.13-14.266-16.098-14.523-17.947-21.267 1.85 6.745-12.528 13.235-5.006 25.945zM482.8 118.48c21.462-3.086 20.24 19.412 14.544 25.837-5.696 6.425-29.2 11.816-30.023-8.377 8.562 11.464 21.666 1.962 27.24 6.24-5.57-4.278 1.962-18.056-11.76-23.7zM360.73 425.12c-19.798 8.78-24.808-13.195-21.094-20.92 3.713-7.722 24.846-19.272 31.186-.066-11.388-8.71-21.384 3.977-27.92 1.37 6.536 2.606 3.076 17.9 17.828 19.616zM538.37 305.08c8.94 19.606-13.18 24.682-20.98 21.034-7.8-3.648-19.537-24.565-.215-30.95-8.723 11.343 4.11 21.202 1.514 27.7 2.594-6.5 18.023-3.135 19.68-17.783zM199.66 241.93c-12.438-17.63 8.355-26.675 16.7-24.52 8.345 2.156 23.778 20.56 5.978 30.378 6.46-12.748-7.988-20.083-6.647-26.945-1.34 6.86-17.128 6.387-16.03 21.087zM316.63 412.08c-20.35 7.433-23.854-14.83-19.622-22.286 4.232-7.457 26.1-17.562 31.12 2.024-10.77-9.455-21.604 2.535-27.95-.504 6.344 3.037 1.85 18.064 16.452 20.765zM310.76 84.94c12.058-17.888 28.08-1.927 29.076 6.574.996 8.5-10.703 29.437-26.37 16.525 14.313 1.362 15.974-14.66 22.904-15.903-6.93 1.242-12.2-13.535-25.61-7.198zM519.27 347.62c1.302 21.482-21.187 18.39-27.16 12.218-5.975-6.17-9.42-29.868 10.927-28.99-12.23 7.507-3.786 21.263-8.547 26.413 4.76-5.148 17.965 3.456 24.78-9.64zM513.74 145.08c21.257 4.26 12.48 25.038 4.938 29.187-7.54 4.15-31.503 1.38-25.433-17.913 4.176 13.655 19.738 9.08 23.535 14.97-3.795-5.887 7.97-16.348-3.04-26.244zM244.54 129.94c.205-21.52 22.423-16.885 27.95-10.317 5.528 6.57 7.306 30.445-12.93 28.166 12.724-6.647 5.265-20.95 10.375-25.762-5.11 4.81-17.68-4.683-25.395 7.912zM217.66 323.91c-19.346-9.723-5.31-27.43 3.072-29.438 8.383-2.006 30.735 6.997 19.708 23.987-.364-14.265-16.59-13.97-18.67-20.65 2.08 6.68-12.065 13.652-4.11 26.1zM450 94.806c20.287-7.6 23.976 14.632 19.81 22.124-4.17 7.492-25.953 17.778-31.137-1.767 10.848 9.366 21.584-2.713 27.952.274-6.37-2.987-2-18.05-16.625-20.63zM406.94 422.71c-15.777 14.795-27.803-4.296-26.862-12.805.942-8.51 17.054-26.357 29.418-10.32-13.645-4.475-18.865 10.787-25.902 10.475 7.037.31 8.85 15.882 23.345 12.65zM545.18 258.13c14.802 15.728-4.51 27.572-13.077 26.598-8.567-.973-26.442-17.053-10.202-29.248-4.597 13.52 10.742 18.778 10.383 25.758.36-6.98 16.06-8.706 12.897-23.108z"/></g><g fill="#005800"><path d="M355.23 99.477c13.92 3.563 17.41-11.815 24.45-11.97-4.11 4.91-14.83 17.423-24.45 11.97zM356.19 76.24c14.725-15.797 28.04 2.452 27.684 11.003-11.95-20.833-15.69-17.62-27.68-11.002zM223.48 211.27c9.39-10.806-2.952-20.727.028-27.06 2.614 5.832 9.16 20.92-.028 27.06zM202.92 200.12c-7.742-20.102 14.644-23.856 22.208-19.75-24.115 1.4-22.87 6.15-22.208 19.75zM511.11 187.76c1.69 14.17 17.4 11.833 20.094 18.29-6.1-2.025-21.734-7.42-20.094-18.29zM533.28 180.24c20.168 7.905 7.847 26.827-.314 29.594 15.24-18.6 10.87-20.896.314-29.594zM288.85 379.91c-5.52-13.175-19.992-6.674-24.358-12.158 6.424.298 22.948 1.256 24.358 12.158zM269.58 393.14c-21.576-2.145-14.92-23.685-7.832-28.556-9.55 22.02-4.713 23.044 7.832 28.556zM472.19 360.06c-12.56 6.945-4.404 20.473-9.397 25.402-.434-6.37-1.357-22.77 9.397-25.402zM487.64 377.55c.308 21.517-22.013 17.408-27.698 10.973 23.133 6.91 23.61 2.023 27.698-10.973zM235.39 175.5c11.99-7.878 2.812-20.747 7.412-26.04.924 6.317 3.108 22.6-7.412 26.04zM218.64 159.24c-1.968-21.43 20.606-19.03 26.768-13.044-23.597-5.133-23.694-.225-26.768 13.044zM261.88 348.37c-4.612-13.515-19.492-7.998-23.476-13.762 6.388.727 22.81 2.79 23.476 13.762zM241.76 360.29c-21.382-3.587-13.276-24.63-5.87-29.018-11.027 21.332-6.273 22.678 5.87 29.018zM401.51 98.508c11.738 8.24 20.506-4.906 27.143-2.568-5.6 3.14-20.103 11.055-27.143 2.568zM410.72 77.127c19.418-9.578 25.333 12.174 21.94 20.043-3.72-23.688-8.364-22.003-21.94-20.043zM446.35 381.93c-14.37.484-13.34 16.217-20.048 18.338 2.544-5.86 9.27-20.87 20.048-18.338zM452.04 404.49c-9.626 19.283-27.594 5.512-29.69-2.79 17.402 16.63 20.073 12.5 29.69 2.79zM522.9 218.06c-3.21 13.91 12.375 16.952 12.723 23.933-5.056-3.944-17.952-14.243-12.723-23.933zM546.33 218.38c16.316 14.177-1.705 27.883-10.325 27.764 20.656-12.427 17.317-16.05 10.325-27.764zM283.2 125.68c13.866-3.772 9.197-18.84 15.23-22.445-1.11 6.287-4.154 22.434-15.23 22.445zM272.4 105.04c4.87-20.97 25.56-11.7 29.535-4.103-20.806-12.184-22.44-7.553-29.535 4.103zM231.22 280.05c.13-14.267-15.753-13.92-17.6-20.664 5.792 2.773 20.614 10.085 17.6 20.664zM208.27 284.73c-19-10.373-4.365-27.596 4.082-29.318-17.488 16.54-13.445 19.366-4.082 29.318zM467.32 135.94c8.56 11.464 21.025 1.69 26.596 5.965-6.307 1.25-22.577 4.278-26.596-5.965zM482.8 118.48c21.462-3.086 20.24 19.412 14.544 25.837 3.915-23.657-1.028-23.493-14.544-25.837zM370.82 404.14c-11.388-8.71-20.692 4.067-27.226 1.46 5.725-2.91 20.544-10.227 27.226-1.46zM360.73 425.12c-19.798 8.78-24.808-13.195-21.094-20.92 2.737 23.82 7.449 22.324 21.094 20.92zM517.17 295.17c-8.722 11.344 4.197 20.516 1.602 27.014-2.96-5.668-10.404-20.34-1.602-27.014zM538.37 305.08c8.94 19.606-13.18 24.682-20.98 21.034 23.99-2.83 22.46-7.498 20.98-21.034zM222.34 247.79c6.46-12.748-7.945-19.392-6.604-26.253 3.96 5.027 14.01 18.08 6.604 26.253zM199.66 241.93c-12.438-17.63 8.355-26.675 16.7-24.52-23.048 7.182-20.675 11.488-16.7 24.52zM328.12 391.82c-10.77-9.455-20.92 2.67-27.263-.367 5.91-2.52 21.192-8.828 27.263.367zM316.63 412.08c-20.35 7.433-23.854-14.83-19.622-22.286 1.11 23.948 5.91 22.773 19.622 22.286zM313.47 108.04c14.312 1.363 15.338-14.37 22.268-15.613-3.286 5.487-11.91 19.508-22.268 15.613zM310.76 84.94c12.058-17.888 28.08-1.927 29.076 6.574-15.09-18.723-18.276-14.97-29.076-6.575zM503.03 330.85c-12.23 7.505-3.457 20.65-8.22 25.8-.725-6.34-2.404-22.683 8.22-25.8zM519.27 347.62c1.302 21.482-21.187 18.39-27.16 12.218 23.427 5.853 23.677.952 27.16-12.218zM493.24 156.35c4.176 13.654 19.227 8.61 23.023 14.497-6.362-.928-22.71-3.508-23.023-14.497zM513.74 145.08c21.257 4.26 12.48 25.038 4.938 29.187 11.708-20.97 6.997-22.467-4.938-29.187zM259.57 147.78c12.723-6.646 4.894-20.363 10.002-25.173.28 6.377.812 22.795-10.002 25.173zM244.54 129.94c.205-21.52 22.423-16.885 27.95-10.317-22.96-7.454-23.552-2.58-27.95 10.317zM240.44 318.46c-.364-14.264-16.222-13.38-18.303-20.056 5.884 2.576 20.95 9.383 18.303 20.056zM217.66 323.91c-19.346-9.723-5.31-27.43 3.072-29.438-16.91 17.12-12.77 19.808-3.072 29.438zM438.67 115.16c10.848 9.366 20.896-2.842 27.266.144-5.888 2.568-21.12 9.002-27.266-.144zM450 94.806c20.287-7.6 23.976 14.632 19.81 22.124-1.313-23.94-6.103-22.724-19.81-22.124zM409.5 399.59c-13.645-4.475-18.182 10.643-25.216 10.33 4.436-4.627 15.994-16.406 25.216-10.33zM406.94 422.71c-15.777 14.795-27.803-4.296-26.862-12.805 10.497 21.576 14.446 18.617 26.862 12.805zM521.9 255.48c-4.597 13.52 10.602 18.098 10.242 25.078-4.633-4.426-16.424-15.956-10.242-25.078zM545.18 258.13c14.802 15.728-4.51 27.572-13.077 26.598 21.81-10.312 18.852-14.247 13.077-26.598z"/></g><g><g stroke-width=".509"><g fill="#730000" stroke="#000"><path d="M405.26 125.34s.61-1.426 1.73-.61c1.018.812 1.32 4.375 1.32 4.375l-1.627.812s.917-1.32-1.423-4.577zM396.01 157.29s.813-1.118-.305-3.563l1.628-.508s.61 1.93-.204 4.07h-1.12M424.19 151.69l-3.865 2.342 1.934.916 4.678-2.748-2.748-.51M372.4 166.85c-1.02.815-1.12 2.24-1.73 3.052-.506.814-2.034 1.932-2.135 3.154-.203 1.22-.304 2.034.204 3.664.606 1.626 3.15 8.85 2.134 14.347-1.12 5.493-.71 7.833-.303 8.65.405.813 1.628 3.05 2.34 3.05 1.628-.203.916-.71 1.525-1.73 1.526-2.645 0-23.097-.712-28.795-.507-4.375-2.545-8.345-2.745-8.75-.203-.51-.61-1.832-.916-2.647-1.525-3.664-3.357-6.815-3.357-14.45 0 0-4.986 1.12-9.257-8.548-2.238-4.883-5.495-4.375-9.36-6l1.73-1.123s3.256 1.63 4.884 1.63 1.12-3.257 1.12-3.257l1.628-1.63v7.126c0 3.256 4.476 7.732 7.12 9.055 1.63.812 3.766-2.545 3.258-5.8-.51-3.255 0-7.63 0-7.63l2.238 1.32s-.814 1.425-.61 2.24c.303.815 1.422-.814 2.236-1.63 0 0 .203.205 1.018.205 0 0-1.628 2.745-2.44 4.172-.812 1.324-.812 6.514-.812 8.447 0 1.934.712 6.41.712 7.833 0 1.02 1.93 5.19 3.46 7.736.507 1.017 1.728 3.662 1.728 3.662 1.22 1.933 1.32 3.256 2.035 4.886.406.812 1.12 3.153 1.628 7.225.205 1.016.407 4.883.715 7.425.304 2.442 2.34.51 4.78-1.22 2.44-1.83 2.44-6.206 2.44-6.206s1.935-1.628 1.63-.712c-.205 1.018 1.018 2.035 1.018 2.035-1.525 3.458-.61 3.052.916 2.95 1.524-.206 6.813-4.172 6.813-4.172.713-.205 3.867-.205 3.358 0-.61.306-1.424 1.832-1.424 1.832l3.46-.408c-1.22.916-5.8 3.56-6.815 4.172-1.12.713-6.61 3.36-8.95 4.273-2.34 1.016-6.92 3.256-7.123 5.596-.103 2.34.304 8.648 0 10.682-.204 2.035-1.02 11.093-1.02 11.093h-10.885s2.137-7.937-.103-10.073c-2.137-2.238-7.123-8.752-10.378-10.992-3.257-2.135 2.135-.505 2.135-.505v-2.24l4.984 6.006s8.648-7.63 0-18.01c-2.745-3.256-5.493-8.24-7.628-8.752-2.238-.61-3.358-1.12-7.123 0-3.867 1.118-13.125 1.118-16.99-4.988l3.256-.508 2.744-1.12s-1.118 3.868 6.613 3.868c7.63 0 8.75 0 8.14-7.123l2.237-1.12 1.63 1.63s-1.12 3.867-.51 5.494c.51 1.628 3.257 2.75 5.393 4.376.916.713 1.628.815 2.238.815.916-.1 1.12-.1 2.34-1.323 1.832-2.035 1.424-1.933 3.256-3.56 0 0 .916-1.425 1.12-1.63l1.12 2.953h-.006z"/><path d="M374.03 161.46c.405-.404 1.22-1.934 1.933-3.256 1.22-2.035 2.646-3.256 4.272-5.8 1.525-2.34 2.137-5.8 1.525-8.24l1.424.814.104 3.866s1.934-1.63 2.748-2.035l.812.404s-6.104 6.31-11.802 16.485l-1.018-2.238.002-.002zM320.52 140.3c.814 1.42 1.63 4.172 4.07 6.307l1.628-.508s-3.764-4.376-3.764-6.308l-1.934.508M330.08 137.85s.508 5.19-.812 7.123l1.627-.81s1.12-3.562.813-5.497l-1.628-.812v-.004zM383.7 121.47s-.307 7.325 1.12 11.803l1.93-.608s-.303-1.327 1.323-1.937c1.63-.508 5.494-2.135 7.426-3.765l-.61-1.626s-2.95 2.34-4.374 2.95c-1.322.51-2.136 1.118-3.256.815-1.12-.306-2.44-2.138-1.628-6.31l-1.932-1.322M405.26 155.66s-.507 5.19-.202 7.43l1.73.407s-.405-6.207.71-6.716l-2.238-1.12M413 159.53s-1.933 3.358-4.17 3.664l3.56-.714s1.02-.508 2.545-2.135L413 159.53"/></g><g fill="#289400" stroke="#030"><path d="M381.87 144.16l1.32.81 1.425.207s1.525 1.424 3.256 2.745c1.322 1.122 1.322-.202 1.322-.202l.812 3.256h1.12s-.306 2.136-.306 3.256l1.934-1.63 2.238 1.935s1.628-1.424 2.44-1.424c.813 0 1.12-.812 1.12-.812h.103c-5.393-2.545-7.73-5.19-6.104-7.937 2.645-4.578 7.02-1.63 8.442-1.016l19.737 10.58s1.32-.813.405-1.63c-1.02-.81-1.425-2.847-1.12-3.66.306-.814 2.544 2.542 3.662 2.847 1.12.306 3.66.714 3.66.714l-.1-1.018s3.255 2.237 3.255 3.358c0 0 2.34-1.22 1.525-1.934-.813-.71 3.562 1.73 3.866 3.055l.915-1.022c-.103 0 .306-3.256 1.424-4.782 1.02-1.524 2.137-1.933 2.137-1.933s1.018-1.73 2.033-1.73c0 0-1.02-.71-1.425-1.525-.508-.816-1.73-1.222-1.73-1.222s1.526-1.118 1.935-1.628c.406-.608.814-.714.814-.714s-2.342-1.932-3.97-2.235c0 0-.102-2.65-2.136-2.85h.917s-1.526-2.85-2.95-2.95c0 0 .915-1.018 1.73-1.12 0 0-1.73-2.238-4.07-1.424l1.526-.608s-1.12-1.22-4.576-.61c0 0 .303-1.424-1.22-2.545 0 0-1.323.1-1.323 1.118 0 0-1.22-1.117-2.746-1.117s.508 1.63.508 1.63-2.034-1.325-3.256-.917c0 0 .508-2.34-.814-3.563 0 0-1.523.815-1.933 1.832l-.406-1.017s-2.036 2.442-2.44 1.73c-.306-.406-.61-2.135-.61-2.135l-1.22 1.832.203-2.546s-1.424.814-2.543 3.457c0 0-1.425 1.324-1.425 2.542 0 0-1.12-1.32-2.137 0-.916 1.423 0 1.12 0 1.12s-.407.506-1.424.71l.205.813s-1.32-.71-2.34-.404l.508 1.218s-2.645.205-2.745-1.93c0 0-2.238-1.12-2.544.1l-1.628 1.02s-.51-1.02-1.425-1.22c-1.018-.307-.203 1.32-.203 1.32s-.304-1.22-1.525-1.833c-1.22-.505-.203 1.122-.203 1.122s-1.63-1.324-.813-2.34c0 0-1.526 1.424-.814 2.748l-1.018.71s-.51-.507-.408-.915c.104-.408-1.73 1.22-1.73 1.22s-1.118-2.644 0-2.644c.103 0-1.932-.102-2.236 2.24 0 0-1.32.1-2.543.505-1.322.41.916 1.325.916 1.325s-1.934-.408-3.053.204l.713.915s-.713-.713-2.442-.104c-1.83.51.407.815.407.815s-1.832-.406-2.747 0c-.916.408.305 1.12.305 1.12s-3.357-1.018-3.866-.71c-.508.303 1.12 1.933 1.12 1.933s-2.036.508-2.44 2.035l1.83.71s-.812.406-1.222 1.222c-.403.814 1.222.405 1.222.405s-2.237 1.63-2.237 2.85c0 0 1.627.507 2.848-.712s.407-.814.407-.814l.102.814s2.34-1.016 2.34-1.626c0-.508-.406.812-.406.812l2.34-1.22 1.525 1.018v-.002z"/><path d="M379.93 112.42l-.51-2.238 5.19.608.914-2.135s2.44 1.118 3.256 1.93c0 0 4.78-1.22 6.207-.71l-.61 2.24s4.373.302 5.8.81c1.32.51-.61 1.63-.61 1.63s4.984.61 7.122 1.933c2.237 1.32 2.237 2.442 1.12 2.745l2.743 4.375s-4.373.508-5.187 1.626c-.814 1.12-1.628-1.118-1.628-1.118l-.814 3.052s-2.746-1.426-3.865-2.442c0 0-1.322 1.63-.51 2.442l-4.985-3.256s-2.137-.304-2.137 1.63c0 0-2.44-2.748-3.05-3.563l-2.75.814s-.81-1.118-1.83-1.426c-1.12-.2-.305 1.426-.305 1.426l-1.628-1.934-1.627-1.93s-1.425 1.93-2.544 1.93c-1.02 0-1.02-1.32-.814-2.237.305-.814-3.256-1.016-3.56 0 0 0-1.02-4.07 2.745-5.188l3.866-1.018v.003zM360.2 126.36l-1.73 1.63-1.018-.51-2.034 2.238-.407-1.223-1.118 1.832-1.73-.61-.813 1.323-1.526-.306s-1.322 1.222-2.137 1.526c-.813.206 0-1.83 0-1.83s-1.22 2.035-2.137 2.035c-.812 0-.507-.916-.507-.916s-.508 1.318-1.525 1.524c-.916.102-.51-1.017-.51-1.017l-1.63 1.22v-1.018l-.71-.305s.405-1.832 1.12-2.238c.71-.408-.713-1.626-.713-1.626l.712-.814s-2.036-.508-2.036-.1c0 0 1.02-2.746 2.442-3.26l.103-3.05s1.425-1.22 2.747-1.324c1.423-.203-.406-2.34-.406-2.34l3.255-1.93.407-2.34 4.984.404 1.02-2.135 3.968 1.017 3.356-1.73 2.44 2.85 3.663.306s-.102 2.542-.102 3.256c0 0 4.373 1.32 4.883 1.73 0 0-.814 2.644-.814 3.152 0 0 3.054-.814 3.97-.61 0 0 .306 2.85.405 3.56 0 0 5.187 1.63 5.493 2.547 0 0-1.12.71-1.73 1.625 0 0 .61 3.156.61 4.172l-.407.61s-1.526-1.424-2.747-1.627l-1.02 2.237-1.83-1.22-1.12.102s-.915-1.12-1.628-1.12l-.103-1.018-1.425.916s-2.237-1.12-2.237-1.832c0-.61.102-1.63.102-1.63l-2.34 1.63s-.508-1.22-.405-1.73c.103-.508-.915 1.222-.915 1.222s-1.222-2.138-1.12-2.546l-.306 1.732s-2.44-.812-2.745-2.442v-.002z"/><path d="M327.64 136.33s4.274 2.14 4.274 3.156c0 0 1.12-2.24.508-3.054l1.63 1.122s.505-2.034-.104-2.647c-.51-.508 3.66-2.235 4.576.51 0 0 2.545-2.645-2.34-4.885 0 0-.404-1.626 2.545-1.22 0 0-.204-1.017-.917-1.423h2.85s-1.73-1.427-4.274-1.833c-2.44-.408-.917-.71-1.02-1.224-.203-.508 0-2.34 0-2.34s-1.423-.508-2.543.102l.406-.51s-2.646-.71-3.66-.1c0 0-1.527-.61-1.323-2.24 0 0-1.526-.1-2.236 1.525 0 0-1.425 1.63-3.357 1.63-.406 0-1.832-.816-1.832-.816l-1.222 2.85-1.932-.102.61 1.118s-2.95-.81-3.866 0c0 0 1.12 1.732.813 2.95 0 0-2.34.41-2.85.816-.61.403.814.71.814.71s-2.644.814-3.256 1.63l1.02.81-1.222 1.632 1.02.2s-1.73.51-2.645.816c-.916.303 1.627.508 1.627.508l-1.22 1.118 1.934.303s-1.525 4.072-1.628 6.006c0 0 2.34-2.85 2.95-3.053l-1.83 3.052s3.46-1.12 3.765-1.632c.304-.608.61-1.117.61-1.117l.102 1.73s1.322-1.83 1.525-2.544c.103-.71 2.136.713 2.136.713v-1.02s1.832.608 2.44.713c.713.1.814-.306.814-.306l1.73-.203-.307 1.42s1.22-.81 1.525-1.626c.204-.815.813 0 .813 0l.812-3.256h1.73l.005.008zM313.7 150.78l1.628 3.358c-1.322.1-3.256 1.626-3.256 1.626.304 5.597-1.118 5.29-1.118 5.29.403 1.02-.26 2.906-.26 2.906l8.093-4.837.102-.508 9.563-4.48.303.508 2.748-1.524 1.933 5.084-1.933 1.12c.103 1.73 2.137 4.783 2.137 4.783l2.545-.608 2.747-1.022s.103 1.526.103 1.02c0-.41 2.95-1.423 2.95-1.423l1.32 1.322c1.02-.1 2.85-2.546 2.85-2.546l2.136.817s.713-1.22.713-2.136c0-.813 2.645-.813 2.645-.813l1.832 1.32 2.34-1.93s.712 1.424 1.628 1.626c1.02.102 3.56 2.034 3.56 1.63 0-.406 1.12-2.646 1.12-2.646l4.272 1.73c-.608-1.933-2.032-4.273-2.032-4.273s2.032-1.626 1.627-2.034-1.627 0-1.627 0l1.22-2.442h-1.628l.507-.608-2.645-1.118 1.423-2.85c-.61-.714-7.63-2.138-7.63-2.138l1.63-1.526s-.815-1.22-1.63-1.22-5.086.103-5.29-.302c-.103-.408-1.832-1.937-1.832-1.937l-2.646 1.936-1.322-.408-2.34.916s0 1.32-.307.405c-.303-.817-2.44-2.952-2.44-2.952-.406.71-3.153 3.967-3.153 3.967s-.406 1.732-1.322.508c-1.02-1.22-3.154-2.542-3.46-1.524-.305 1.12-2.236 2.134-2.646 1.83-.405-.307-2.645-.1-2.85.51-.1.71-2.543 2.54-2.543 2.54-1.526-.71-3.97-.3-3.97-.3s-.71 1.117-.81 2.033l-4.985 1.32h.003v-.003zM359.69 191.99v-2.138l2.44 1.63 1.425-1.63 1.832 1.83 1.12-1.83v2.952l2.746-2.44 1.626.71v-2.34s1.934-3.258 1.12-3.866l1.627-.508s-2.748-2.748-3.562-3.258c-.812-.608-1.932-.608-1.932-.608s-2.137-2.14-3.56-2.748c-1.323-.508-2.14.608-2.14.608s-.812-1.626-2.236-1.933c-1.32-.302-1.32 1.12-1.32 1.12s-1.02-1.018-2.34-1.526c-1.323-.608-.408 1.22-.408 1.22l-4.682-1.422.61 1.422-4.374-1.115.506 1.626-3.05-.512-.204 1.326-4.375.812.815 1.424-2.747-1.12v1.935l-3.052 1.12 1.12 1.02s-4.07 1.932-4.885 2.542c-.81.508 1.63 1.626 1.63 1.626l-4.375-.61 1.63 1.426-3.867 3.562 2.746 1.934-1.628 2.44 4.07.812 1.627 2.748 3.357-.61v3.05l4.884-3.864s3.562 3.154 3.866 2.238c.203-.814.203-3.562.203-3.562h1.73v-2.745l1.32 1.118 2.24-3.258 2.948 4.072 2.238-5.19 3.256.51h.006zM379.63 179.68l-.508-4.68-1.423 1.424.606-4.375-2.235-.41.813-4.27-1.627-.817.404-2.034 1.63-1.22 2.95-2.85 6.813.105.813-2.24 4.885.815c.813.916 3.356-1.832 3.356-1.832h1.02l1.12 2.134s3.56-.508 5.187.61l-1.934 2.646 3.56.304 2.44.512 2.544-.816 3.257-.206.814 1.324h3.053l-1.02 1.22 3.97 1.83-.813.816s2.237.814 3.865.814h.812s.813 1.93-.307 2.745c0 0 1.12 2.75 3.562 3.26 2.44.507 2.44.507 2.746 1.116.307.51 0 3.258-2.746 3.258v2.748s-2.137 1.933-2.44 2.745l-1.63-1.12s-1.422 1.63-1.422 2.75c0 0-3.562-4.683-4.885-4.888-1.424-.304-1.12 2.646-1.12 2.646l-3.864-3.256-.51 2.237-3.255-2.745-1.933 1.32-3.46-3.56-3.357.408 1.32-1.73h-4.068l-.812-3.56-.61 2.95-2.44-1.627-3.154 3.458s-.406-.408-.916-2.035c-.507-1.628-1.933 1.932-1.933 1.932l-1.12-2.542-1.322 2.542s-1.12-1.932-2.238-2.542c-1.018-.508-2.135 3.05-2.44 4.68l.003.005zM380.24 190.36l.203-1.626 5.798-2.24 4.886-1.832 2.44-1.118 1.12 1.932 1.423-2.745 2.237 2.848 1.22-1.526 1.933 1.424h1.628l.305 2.14s4.07.303 4.374-.508c.305-.815.812 2.745.812 2.745l3.864.508.814 4.376s1.93 4.072 1.322 5.7c-.51 1.73-2.138-2.137-2.138-2.137s-.304 3.05-.61 3.865c-.202.812-5.187-.814-5.187-.814l-2.136 4.07s-2.238-3.255-3.256-3.255c-1.12 0-1.12 3.256-1.12 3.256s-3.256-3.866-4.68-5.495c-1.323-1.626-1.63 1.63-1.63 1.63s-2.135-3.563-2.135-4.58c0-1.118-1.935-2.24-1.935-2.24s-3.358 3.868-5.8 4.887c0 0 .305-2.442-.508-3.256-.813-.815-3.257 1.626-3.257 1.626s-1.73-3.764 0-7.63l.01-.002z"/></g><g fill="none" stroke="#004b00"><path d="M407.1 129.71l.51 2.035s1.83-.408 3.052-.305c0 0-.305 1.627-.712 2.34 0 0 2.44-.406 3.56.304l-.508 1.22 2.85 1.22-2.646 2.137s4.27 1.525 5.087 2.75c0 0-2.746 1.93-3.154 1.83-.407-.205-.103.812.61 1.728l-2.342-.1s.916 2.137.813 2.95c-.1.813-3.865.608-3.865.608M425 142.94s.712-4.07-.404-5.088c0 0 2.644 2.24 4.373 2.34 1.83.105-.104-3.357-.104-3.357s2.544 1.322 3.765 1.627c1.222.205-.915-2.543-.915-2.543s.712-1.325 2.746-.103M387.16 119.64s.1-.916-.308-1.424c-2.44-3.358 2.545 2.545 3.56 2.748M395.09 120.96s1.628 1.22 2.442 1.22c.813 0-.508-3.257-.916-3.662-.406-.408 2.95 1.32 4.172 1.526 1.22.303 1.423-2.035 1.423-2.035s3.766.608 4.58 1.118M380.64 118.42s-.305-2.136-.405-3.052M355.01 128.6c-.204-.408 1.02-2.24.51-3.054 0 0 .71.612 1.423.714.61.1.404-2.342.404-2.342l.814.304s2.138-1.018 1.73-1.832c-.408-.812 1.424 1.22 1.424 1.22s1.222-1.22 1.222-1.728c0-.513 1.422 1.22 1.422 1.22s1.525-.307 1.525-1.22c0-.916 1.934.303 1.934.303s.812-1.118.712-1.832M347.58 130.53s.914-2.135-.103-3.56M322.86 137.24c.103-1.016.61-3.764.103-4.172-.508-.403 1.02.408 2.238.713M334.86 133.38c-1.22-1.223-1.934-1.832-3.864-1.832M314.21 140.19c.306-.71.813-2.44.508-3.458M340.76 190.66l1.322-2.748 1.628 3.866 1.118-2.442.406.815 2.44-2.644 2.647 3.968M392.75 174.28l1.73-3.458 2.34 1.222 1.12-3.358 2.44 1.526 1.424-3.153 2.747.71.203-2.238s1.933 1.118 2.442 1.932c.608.816 0-2.745 0-2.745l2.237 1.015s1.628-1.63-.61-2.545"/><path d="M399.57 169.91l2.44 3.562 2.034-2.34 1.832 3.967 2.34-1.425 3.356 1.933 1.525-1.22 3.662 2.646 1.525-3.153 3.256 1.018 2.136-3.66M335.78 161.67s1.425-2.445.916-3.564c-.61-1.12 2.95 1.934 2.95 1.934s.812-2.443.304-3.56c-.61-1.12 4.07 3.256 4.07 3.256s.815-3.764 0-4.58c-.814-.815 4.477 1.12 4.477 1.12s2.136-.608 1.322-1.73c-.815-1.118 3.558 1.627 3.558 1.627s1.018-2.744 0-3.765c-1.12-1.117 3.256 1.324 3.256 1.324l-1.627-2.95 3.56.202-.305-3.257M389.8 194.73l2.34-1.12 2.035 2.036 2.238-3.56 2.746 2.644.406-2.644 2.95 1.223.61-1.633 3.255 1.733.305-2.443 1.628.51.306-1.63"/></g></g><path fill="#9dd7ff" d="M336.59 310.53c-2.646-4.477-4.68-9.055-6.207-13.53l44.052-38.77 44.055 38.665c-1.526 4.475-3.562 9.26-6.41 13.84l-.35.563c-.813-.303-3.313-1.276-3.313-1.276s-1.425 1.324-2.54 1.424c-1.527.205-2.85-1.32-2.85-1.32s-1.934 1.627-3.866 1.32c-1.933-.2-2.747-1.424-2.747-1.424s-2.034 1.63-3.46 1.324c-1.32-.31-2.237-1.225-2.237-1.225s-1.22 1.53-2.95 1.226c-1.627-.31-3.153-1.225-3.153-1.225s-2.54 1.118-4.17 1.323c-1.627.308-3.053-1.424-3.053-1.424s-2.136 1.423-2.95 1.423c-.813 0-3.865-1.424-3.865-1.424s-3.154 1.017-4.272 1.017c-1.02 0-4.17-1.32-4.17-1.32s-2.95.81-4.272.81c-1.425 0-3.458-.81-3.458-.81s-2.438 1.118-3.764.81c-1.424-.302-2.544-.81-2.544-.81s-2.645 1.118-4.375.81c-1.63-.302-3.562-1.42-3.562-1.42s-.305.813-3.458 1.42h-.104"/><path fill="#fff" stroke="#000" stroke-width=".712" d="M374.44 213.66v44.566L330.387 297.2c-4.272-12.414-4.577-23.504-4.577-28.285V213.66h48.63"/><path fill="#ffd83c" stroke="#000" stroke-width=".712" d="M374.44 213.66v44.566l43.95 38.974c4.272-12.414 4.578-23.504 4.578-28.285V213.66H374.44"/><g stroke="#000" stroke-width=".509"><path fill="#730000" d="M346.02 301.27c3.312 1.795 2.19 1.23 9.055 3.66 5.597 1.937 12.106 2.85 21.567 2.85 8.278 0 12.938-.657 15.56-1.38 2.72-.78 3.363-1.878 3.363-1.878l-6.814 6.92s-27.393 1.48-32.353-1.73c-1.93-1.018-6.104-4.374-10.376-8.443z"/><g fill="none"><path d="M386.21 288.35s8.75 4.984 0 14.55M346.84 301.78l12.615-12.01-1.424 16.078M364.64 307.27v-26.86M386.21 307.27v-28.49M375.32 307.78v-30.625"/></g><g fill="#ff0018"><path d="M364.64 281.84l-5.698 1.832 5.698.61v-2.442M375.32 277.66l-6 2.24 6 .203v-2.443M386.21 279.29l-6.002 2.24 6.002.303v-2.546.003zM389.77 292.22c-.305-1.222 3.562-1.118 3.562-1.118s1.12 4.068 0 6.61l-3.255-.608s.305-2.746-.307-4.884z"/></g><g fill="#fff"><path d="M348.77 300.15l10.683-10.38-.51 6.208s-5.492 3.56-5.492 6.104l-4.68-1.932M354.46 302.29s1.12-3.256 4.17-4.883l-.304 6.512-3.864-1.63h-.002zM369.83 284.28s4.373-.61 7.63 0c0 0-.51 4.375 0 5.188 0 0-6.003-1.425-8.443.812 0 0-.815-4.07.813-6zM360.57 285.4s4.375-.61 7.63 0c0 0-.813 4.886-.306 5.7 0 0-4.885-2.75-7.324-.513 0 0-1.63-3.355 0-5.187z"/><path d="M360.26 291.09s4.374-.508 7.63 0c0 0-.508 4.375 0 5.19 0 0-5.697-1.323-8.14.813 0 0-1.12-4.07.51-6.003zM369.01 290.28s6.308-.81 9.562-.303c0 0-1.322 3.56.307 6.002 0 0-6.818-1.833-9.362.302 0 0-2.135-4.07-.508-6.002zM359.76 297.1l8.442.61s-.812 6.206-.305 7.02c0 0-6.815-1.63-8.14.608 0 0-2.24-5.696 0-8.24h.002v.002zM369.32 297.1s7.322-.51 10.682 0c0 0-1.936 4.683.204 8.75 0 0-9.565-2.744-10.89-.51 0 0-2.234-5.697 0-8.24h.004zM380.51 284.28s4.373-.61 7.63 0c0 0-.507 4.375 0 5.188 0 0-6.002-1.425-8.442.812-.002 0-.816-4.07.812-6zM380.51 290.28s4.373-.508 7.63 0c0 0-.507 4.375 0 5.19 0 0-6.002-1.323-8.442.814-.002 0-.816-4.07.812-6.004zM381.02 296.59s4.373-.607 7.73 0c0 0-1.12 6.817-.61 7.63 0 0-4.98-2.34-7.323-.302 0 0-1.423-5.392.203-7.328z"/><path d="M390.07 297.1s1.422 5.187 3.254 5.8l-2.44 2.95s-2.95-2.137-3.256-4.576c0 0 1.932-2.24 2.442-4.174z"/></g></g><g stroke="#000" stroke-width=".61"><path fill="#006ac8" d="M411.88 311.14c-7.02 11.703-18.516 22.69-37.438 29.506-19.23-6.916-30.928-18.414-37.847-30.016l.103-.102c3.153-.613 3.46-1.424 3.46-1.424s1.932 1.12 3.56 1.424c1.73.303 4.374-.814 4.374-.814s1.12.51 2.543.814c1.322.303 3.765-.814 3.765-.814s2.034.814 3.458.814c1.322 0 4.273-.814 4.273-.814s3.154 1.32 4.17 1.32c1.12 0 4.273-1.018 4.273-1.018s3.053 1.426 3.866 1.426c.81 0 2.95-1.426 2.95-1.426s1.422 1.73 3.05 1.426c1.628-.203 4.17-1.32 4.17-1.32s1.526.915 3.155 1.22c1.73.306 2.95-1.22 2.95-1.22s.916.915 2.238 1.22c1.424.306 3.458-1.323 3.458-1.323s.814 1.22 2.75 1.423c1.932.306 3.865-1.32 3.865-1.32s1.32 1.525 2.848 1.32c1.12-.102 2.542-1.424 2.542-1.424s2.544.81 3.46 1.12" stroke="none"/><path fill="none" stroke-width=".509" d="M410.15 313.79c-1.525.104-1.73-.916-1.73-.916s-2.03 1.73-3.966 1.425c-2.034-.304-2.95-1.628-2.95-1.628s-2.137 1.73-3.562 1.424c-1.423-.203-2.44-1.222-2.44-1.222s-1.32 1.528-3.052 1.222c-1.73-.203-3.257-1.222-3.257-1.222s-2.746 1.122-4.477 1.425c-1.73.306-3.153-1.628-3.153-1.628s-3.968 1.324-4.78 1.324c-.917 0-3.767-1.324-3.767-1.324s-1.932 1.223-3.05 1.223c-1.22 0-4.477-1.426-4.477-1.426s-3.055.815-4.48.815c-1.424 0-3.56-.816-3.56-.816s-2.645 1.118-4.07.815c-1.423-.307-2.543-.816-2.543-.816s-2.85 1.118-4.578.815c-1.73-.307-3.766-1.424-3.766-1.424s-.304.71-3.66 1.425h-.104"/><path fill="#5ac800" d="M346.97 317.94s-.284.665-2.938 1.25c-.056-.004-.718.156-.718.156.244-.044.443-.08.656-.125-.094.037-.303.113-.75.25 3 4.335 7.494 8.27 12.177 11.424 4.683 3.155 10.065 6.92 19.23 9.61 9.634-3.763 12.205-5.194 18.502-9.41 6.296-4.6 9.577-7.466 13.09-12.185-2.75 1.56-2.356 1.58-3.782 1.374-1.424-.303-2.47-1.344-2.47-1.344s-1.3 1.55-3.03 1.344c-1.73-.303-3.25-1.344-3.25-1.344s-2.26 1.537-4.5 1.437c-1.73-.104-3.156-1.625-3.156-1.625s-3.97 1.313-4.782 1.313c-.916 0-3.75-1.313-3.75-1.313s-1.944 1.22-3.062 1.22c-1.22 0-4.47-1.438-4.47-1.438s-3.044.812-4.468.812c-1.425 0-3.562-.812-3.562-.812s-2.538 1.117-4.063.812c-1.425-.303-2.562-.812-2.562-.812s-2.835 1.117-4.563.812c-1.73-.303-3.78-1.406-3.78-1.406z"/><path fill="#ffd800" d="M374.63 340.51c9.953-4.143 11.75-5.27 17.77-8.95-1.05.028-4.103-.958-2.998-1.273 0 0-1.224 1.103-2.444 1.103-1.12 0-4.375-1.42-4.375-1.42s-3.05.81-4.476.81-3.56-.81-3.56-.81-2.647 1.116-4.07.81c-1.426-.302-2.545-.81-2.545-.81s-2.95 1.116-4.577.81c-1.73-.302-3.765-1.423-3.765-1.423s-2.504 1.328-4.076 1.48c4.81 3.523 9.872 6.962 19.116 9.673z"/></g><g stroke="#000" stroke-width=".509"><path fill="#b34b00" d="M367.88 259.34c1.977-1.61 3.112-3.16 2.452-4.362-.743-1.033-1.905.646-3.214.252 0 0-1.976-1.222-2.515-2.098-1.153-1.28-2.636-2.434-3.49-3.535-.905-1.02-4.31-5.522-9.492-10.704-1.49-.972-1.148-4.65-2.216-5.792-.09-.795-10.358-10.96-14.022-14.636-1.48-1.09-2.262-1.797-4.865.563-2.055 1.854-2.794 3.767-.098 6.077l13.355 12.144c1.95 1.896 4.676 2.24 5.82 3.223l13.575 13.884c1.71 1.477 2.53 2.524 1.563 3.787-1.073 2.078.075 2.358.32 2.42.155.087 1.114.085 1.754-.41l1.073-.81z"/><path fill="none" stroke-width=".5" d="M334.02 222.92l13.958 13.792"/><path fill="#fff" stroke-width=".571" d="M352.92 229.22c.216-.415.688-1.473 1.187-2.627.196-.456 3.95-6.444 5.823-6.62 0 0 11.677 8.495 11.686 8.607.04.458-5.065 8.093-5.51 7.513 0 0-13.68-5.743-13.186-6.873z"/><path fill="#ccb8c8" d="M360.36 231.22c-1.6-1.242-4.242-2.453-6.375-3.875l-.958 2c.77.863 10.487 5.38 12.083 6.25 0 0-1.85-2.122-4.75-4.375z" stroke="none"/><path fill="none" stroke-width=".4" d="M353.98 227.09c1.25.875 3.625 2.375 5.125 3.25 2.875 2 4.695 4.203 6.75 5.375"/><path fill="#782121" d="M330.32 263.48l26.587-32.904c.498-.456 2.963-.48 3.297 2.068l-25.18 34.315c.002 0-2.867-.285-4.704-3.48z"/><path fill="#730000" d="M419.44 263.84c-.916.715-2.473.9-2.473.9-1.73-2.035-3.156-4.172-5.597-6.816l-26.555-32.663 2.747-2.644 23.907 27.98c.71.712 4.885 5.09 8.853 10.275.002.003.348 2.033-.883 2.97z"/><path fill="#fff" d="M393.87 229.43l-4.274-5.088s-3.255.406-3.864 2.138c0 0-2.34 3.867-8.547 4.274 0 0 1.73 7.223 8.953 11.09 0 0 2.646-7.43 5.188-8.753 0 .002 2.644-1.933 2.544-3.66z"/><path fill="#730000" d="M383.19 252.02c-.61-.205-1.22 0-2.137.51-.812.51-1.83.303-1.73-.715.103-.916 0-.812 1.12-1.524 1.63-.915 3.765-1.018 5.087-.51l-2.34 2.24M412.18 223.12c-.204-.71-.405-1.42.305-2.337.713-.814.713-2.24-1.02-1.528-1.728.714-2.338 2.646-.913 5.597l1.626-1.732h.002z"/><path fill="#fff" d="M382.58 252.63l30.114-29.915 7.425 7.937s-1.525-.612-2.137-.206c-.508.408.61 1.934.61 1.934s-1.424-.508-2.034-.102c-.713.405 0 2.136 0 2.136s-1.222-.916-1.833-.51c-.508.408 0 2.34 0 2.34s-1.628-.508-2.033-.103c-.408.41 0 2.14 0 2.14s-1.63-.815-2.442 0c-.812.81.406 1.933.406 1.933s-2.034-.815-2.848.405c-.813 1.222.102 2.34.102 2.34s-1.627-.812-2.033-.408c-.408.408 0 2.34 0 2.34s-1.425-.814-2.34.206c-.917 1.12.1 2.035.1 2.035s-1.32-.815-2.035-.41c-.712.41.204 2.34.204 2.34s-1.322-.916-2.238 0c-.916 1.02 0 2.035 0 2.035s-1.12-1.018-2.238 0c-1.02 1.12 0 2.24 0 2.24s-1.626-.814-2.236 0c-.712.81.202 1.934.202 1.934s-1.22-.714-2.033-.31c-.812.408 0 2.24 0 2.24s-1.22-1.324-1.73-.61c-.61.712.103 2.442.103 2.442s-1.12-1.324-1.73-.61c-.712.61.406 2.138.406 2.138s-2.034-.916-1.525-.916z"/><g fill="#7e4b7e" stroke="none"><path d="M410.96 225.16l-2.34 2.34.508 8.04s.51-2.34 1.22-.715c0 0 .205-1.932.713-1.626-.408-.207-.1-8.04-.1-8.04M406.59 229.53l-1.73 1.626.61 8.04s.51-3.052 1.22-.61c0 0-.102-2.034-.102-2.748.002.51.002-6.308.002-6.308M388.38 247.55l-1.628 1.727.408 4.886s.508-3.153 1.22-.714c0 0-.204-2.032-.204-2.747 0 .51.204-3.155.204-3.155"/></g><g fill="none" stroke="#7e4b7e" stroke-width=".916"><path d="M386.34 227.4c1.12 1.12 4.274 5.187 4.274 5.187M387.77 229.64c-.202.612-.607 2.34-1.523 3.256M388.27 230.04c-.102.406-.102 1.73-1.523 3.054M388.78 230.66c-.204.71-.305 1.22-.812 1.73M389.09 231.27c0 .508-.303.61-.405.916M385.33 229.33c-.406.405-3.358 2.338-4.985 2.95M384.51 230.45c-.406.408-2.238 1.832-3.256 2.24M384.21 231.67c-.61.41-1.628 1.424-2.44 1.73M383.6 232.89c-.406.508-1.018.916-1.525 1.222"/><path d="M365.94 234.01c.332-.613.91-1.816 1.667-2.917.96-1.397 1.372-1.633 1.875-2.125" stroke-linecap="square"/></g></g><g><path fill="#289400" stroke="#060" stroke-width=".509" d="M267.72 316.03c1.526.71 0-4.987.507-7.123.61-2.238 4.984 5.494 7.123 6.514 2.238 1.12 15.87-5.394 15.87-5.394l3.256-6.104 1.73 4.985s3.763-4.375 4.883-6.002c1.118-1.627 0 3.257-1.12 4.884-1.12 1.628 3.255 2.238 2.745 5.494-.508 3.257 4.375-2.24 4.375-2.24l12.615 1.12s2.135-7.632 5.493-12.007l1.018 4.887 5.188-5.29c5.8 15.263 18.01 31.85 43.035 40.903 23.5-8.547 35.607-23.71 41.912-38.16l7.02 7.23s5.495-1.632 6.512-2.24c1.118-.51 12.92 4.173 12.92 4.173s2.136.814 3.256 1.63c1.118.812.304-3.563.304-3.563s6.003 1.118 5.493 4.375c0 0 1.322-3.05 2.442-3.56s3.762 2.748 4.374 3.866c.508 1.02 13.43 2.646 15.26 3.765 0 0 1.425 1.63 1.425 2.748 0 0 2.747-.305 4.884-.305 0 0-1.628.81-1.628 2.543 0 1.63-.814 2.953-2.442 3.764-1.628.816 0 1.424 2.137 1.63 2.24.304 0 3.052-4.374 4.683 0 0-1.018 2.44.814 3.252 0 0-3.766.308-4.375-.812 0 0-1.32 2.543-1.32 3.867 0 0-4.07-1.324-5.188-1.933 0 0-1.63 1.624-.51 2.438 0 0-7.425-.81-8.85-3.56 0 0-2.647.814-2.138 1.73 0 0-5.19-3.56-6.816-3.56l-1.12 1.828s-3.56-2.135-4.68-2.135c-1.02 0-.204 1.628-.204 1.628l-4.983-3.053-1.933 3.053s-4.07-1.935-5.188-2.746c-1.02-.813-1.32 1.627-2.136 1.93 0 0-1.628-2.234-3.866-1.93 0 0-.813 2.746-.508 3.56 0 0-6.308-1.32-7.426-1.63-1.12-.303-.508 1.324 0 2.445 0 0-4.68-1.323-5.698-2.14l-.305 2.14s-3.864-.307-4.68-1.12l-2.44 3.355h-3.562l-.812 2.95s-6.815-1.93-7.427-.81c-.508 1.116.306 2.743.306 2.743l-6.002-.812-.507 2.44s-6.92-2.137-8.547-1.12c0 0-2.137 2.24-3.562 2.748-1.32.61 0-.813 0-.813l-2.135-2.95s-2.442 1.323-3.867.815c-1.32-.613-5.697 2.135-7.123 1.32 0 0 0-1.935-1.117-2.442-1.02-.51-2.95-.51-3.766.815 0 0-.812-1.12-2.237-3.257-1.322-2.24-3.257.203-3.257.203l-.305-2.645-3.765-.307c-2.238-.305-2.746-2.24-2.746-2.24s-5.8.61-6.613.308l1.423-1.324s-7.935 1.632-9.562 1.02c-1.73-.507 1.832-2.747 1.832-2.747s-7.327-1.828-8.75-2.135c-1.322-.305-9.26 1.318-10.38 1.318-1.118 0-1.627-1.832-1.627-1.832s-1.935 1.63-3.562 2.14c0 0-1.322-3.255-.507-3.562 0 0-5.187 1.424-5.493 2.748 0 0-1.322-2.136-1.12-3.052 0 0-2.44 3.867-3.56 4.68-1.12.814-.205-1.934-.205-1.934s-3.05 3.865-4.17 4.172v-2.748s-8.75 4.68-11.19 4.072c0 0 0-1.936.812-2.442l-5.494-.306c-1.32-.203-2.95-.812-4.373-1.12-1.322-.204 1.933-1.626 4.17-1.017 0 0-6.103-2.238-7.936-1.12 0 0-.813-2.237 2.44-3.053 0 0-4.17-4.07-6.613-3.765 0 0 2.748-1.628 4.986-.816 0 0-2.544-6.917-4.172-7.73 0 0 5.8-1.02 7.428-.202l.002-.002z"/><path fill="#730000" stroke="#000" stroke-width=".509" d="M259.27 196.67l74.064-38.36c.355-1.983-.77-3.54-1.932-5.09-21.18 10.388-40.456 22.993-63.992 30.63-1.322.51-13.022 5.392-19.025 12.618-1.903 1.908-2.043 4.724-2.043 4.724s.146 3.23.825 4.104c0 0 .176.887 1.282 1.596-.013 0 .683.34 1.165.17.538.1 1.413.093 2.635-2.046 1.222-2.037 5.19-6.716 7.02-8.346z"/><path d="M318.89 158.72l9.562-4.58s3.257 2.442 2.95 5.19c0 0 .713 6.307 8.548 10.682 0 0-6.615 8.24-18.21 8.955 0 0 1.33-10.876-1.11-14.032 0 0-.407.39-.23-.15.346-1.058-.236-4.688-1.72-5.487-.182-.1.117-.396.21-.578z" stroke="#000" stroke-width=".509" fill="#FFF"/><g fill="none" stroke="#7e4b7e" stroke-width=".814"><path d="M330.08 160.04c-2.034.814-8.647 4.272-8.647 4.272M326.93 162.07c-.103 1.017-.713 3.46 0 5.19M326.01 162.38c0 .508-.813 2.34.103 4.783M325 162.89c-.204 1.02-.406 1.63 0 2.75M324.18 163.5c-.203.61 0 .916 0 1.32M330.18 163.19c.304.812 3.052 5.086 4.68 6.816M330.59 165.12c.307.814 1.832 3.765 2.95 4.886M330.39 166.85c.406 1.018 1.22 2.85 2.034 3.866M330.39 168.89c.204.815.61 1.832 1.22 2.546"/></g><g stroke="#000" stroke-width=".509"><path fill="#b34b00" d="M398.22 154.46l27.207 13.322c5.45 2.65 7.41.202 10.487 1.54l53.694 27.35c4.606 2.012 7.185 2.656 6.523 5.04-.11 3.785 1.79 3.842 2.31 3.882.377.1 2.192-.165 2.95-1.172.568-.656.59-.724.59-.724.607-.608.497-.663.686-.934 2.258-3.25 3.51-6.065 1.146-7.905-2.702-1.267-3.013 1.606-5.858 1.303 0 0-5.087-1.933-6.92-3.256-3.373-1.837-8.083-4.015-9.154-5.21-3.428-.643-29.233-15.158-43.852-22.443-1.568-1.313-2.422-6.166-5.503-7.79-.904-1.312-20.694-10.347-31.043-15.52-3.814-1.425-5.95-2.4-8.697 2.28-2.398 4.59-1.815 7.094 5.435 10.236z"/><path fill="none" d="M400.52 148.76l30.458 15.208"/></g><g fill="#ffa54b" stroke="#000" stroke-width=".509"><path fill="url(#a)" d="M309.73 165.12c-.203.61-.712.203-.712.408-.405 2.135-.305 3.253-.813 4.475-.712 1.424-3.256 2.748-3.154 2.645-2.033.61-4.474 3.054-8.44.814-.205-.1-.407-.306-.61-.508 0 0 1.116 4.17-2.95 6.204-1.425.713-15.77 8.244-15.77 8.244s-1.527 2.748-.51 6.512c.103.61.305 1.118-.305 1.526-.916.71-2.646 2.748-3.662 6.004 0 0-3.053-1.324-3.053-3.256 0-1.934 1.22-2.95 1.526-4.378.304-1.32 1.117-4.68.712-5.698-.406-1.12-2.238-1.526-2.95-1.933-.61-.41-1.425.405-1.322 1.32.103 1.02.813.813 1.628 1.02 0 0-.916 1.93-.813 3.355l-9.257 4.783s1.22 1.626 1.627 2.34c.405.712 1.32 10.175 4.07 14.653 2.746 4.478 3.662 3.257 4.272 3.867.508.508 1.32 1.32 2.034 1.934.712.51 3.865.812 4.477-.915.712-1.63 1.22-2.647 3.154-4.174 1.933-1.523 5.9-5.39 5.9-7.122 0 0 2.34 6.716 2.033 12.313 0 0 8.546 1.732 16.177 1.933 7.632.105 11.497-1.524 11.497-1.524s1.018-6.41.608-7.632c0 0 1.22 4.172 2.137 5.596 1.018 1.727 2.135 5.288 4.373 5.493 2.137.1 3.97-2.135 4.17-3.05v-6.717h8.648c0-.1 3.867 1.424 5.087 1.22 1.22-.102 1.933-1.22.813-1.628l-.405-.303c1.117 0 2.543.71 2.543.71h4.27c.104-.102 0-.41-.102-.51-.305-1.22-2.544-2.24-4.17-2.95-1.63-.608-3.46-1.323-4.68-1.423-1.933-.206-3.257-.1-6.207.408-.814.1-3.866.405-5.8 1.32-.51.307-1.02.407-.813-.915.306-1.426.204-7.835-1.32-10.583-1.12-1.932-1.018-3.562-.814-5.188.104-1.63.204-7.226 0-8.855-.306-1.627-2.544-3.867-6.61-4.375-3.867-.51-7.124-3.664-7.326-6.207-.305-2.542.408-7.223.814-9.257"/><g fill="none"><path fill="url(#a)" d="M292.44 153.63c-.712 3.253-.712 6.104-.61 9.257.103 2.135 1.12 4.577 2.035 6.715.61 1.426 1.425 3.052 2.746 3.867 3.563 2.34 6.92-.204 8.853-1.018.916-.308 2.34-1.626 2.747-2.442.508-1.22.303-2.135.812-4.475-.103.1.813-.408.712-.408.916-1.526.712-2.034 1.22-3.054.51-1.018-.608-2.136-1.83-1.93.608-1.934 1.018-4.073.404-5.905-.202-.608.51-2.235-.608-1.832-4.58 1.832-9.97 1.426-14.854 1.426-.406 0-.712-.815-1.32-.71-.104 0-.205.303-.308.505"/><path fill="#000" d="M292.03 155.35c-.508-.406-.61-1.32 0-3.256.712-1.93 0-2.034 1.12-3.153 1.12-1.12.813-1.628 1.525-1.93.712-.207 2.85-.207 3.562-.51.61-.307 1.525-.713 2.947-.915 1.526-.308 4.58-.206 6.003.608 1.526.812 2.544 2.85 3.46 3.56 1.02.71 1.63 3.662 1.426 7.94-.307 4.27-1.12 3.457-1.12 3.457s-1.222-2.034-2.238-.308c0 0 0-1.626.204-2.848.1-1.22-.61-3.458.1-4.985 0 0-5.8 1.83-8.75 1.728-3.05-.202-7.322-.916-7.526-1.626l-.714 2.238"/><path fill="#fff" stroke="#fff" d="M294.98 151.8c-.305-.61-1.832-2.85-.61-3.56 1.12-.613.407 2.744 1.936 3.457 0 0-.51 1.526-1.32.102h-.006z"/><path d="M298.34 160.14c-.508 1.732-.712 2.138-.916 3.156M308.01 164.92c.204.61.404.303.914.405M309.33 161.36c.51-.61 1.22-.303.813 1.223"/><path d="M292.44 157.7c.916.303 1.832.608 2.748 1.02 1.526.61.61 2.845.204 4.27-.204.715-1.02 1.934-.61 2.547.51.81 1.12.303 2.036.403 0-.303.61-.508.813-.508.713-.1 1.12.508 1.628.308.61-.308.51-1.224.306-1.73M299.46 159.53c.102-.403 1.018-.81 1.526-.915 2.136-.405 3.66-.712 5.393.51M300.68 170.21c-1.73.408-3.56.71-5.188-.206M295.49 169.2c.813-.408 1.12-.816 2.137-.308 0-.1 1.12-.405 1.12-.405.812 0 1.322.304 2.136.812M295.39 169.6c.916-.306 3.358-.306 5.394.102"/><path fill="#fff" stroke-width=".305" d="M292.34 160.14c.713-.1 1.526-.916 3.154.306 1.12.712-1.832 1.426-1.322 1.324-1.32.202-1.73-.508-1.828-1.122 0-.202-.204-.508 0-.508h-.004zM300.68 160.95c.712-1.426 1.832-1.12 2.85-.816 1.018.306.712.105 1.628.613-1.12.203-.814.303-1.63.71-.915.408-1.728.61-2.34.206-.204-.206-.712-.508-.712-.916 0 .1.102.203.204.203z"/><path fill="#000" stroke-width=".305" d="M293.76 161.36c.406 0 .712-.406.712-.814 0-.508-.306-.916-.712-.916-.507 0-.812.408-.812.916 0 .408.303.814.812.814zM302.41 161.56c.405 0 .712-.403.712-.916 0-.508-.407-.81-.813-.81-.406 0-.713.302-.713.81 0 .514.407.916.813.916z"/></g><g id="c"><g fill="none"><path d="M345.85 213.66c-.608-.714-1.018-1.02-1.83-1.324-.61-.303-1.424-.71-2.036-1.016-.712-.408-1.73-.508-2.34-.916M340.05 213.05c-.306-.203-.508-.304-.812-.51-.306-.1-.712-.1-1.02-.203-.102 0-.102-.204-.203-.204-.915-.102-1.83-.51-2.44-1.32M272.8 201.45c.914.71 3.152 2.24 3.356 5.19.204 1.525 1.02 3.05 1.02 3.05M264.05 201.86c.51 1.727.61 7.425 6.003 13.43M265.07 193.92c-.408 1.12-.916 2.137.202 2.95M279.72 207.56c1.12-2.545 4.578-2.342 4.578-4.782"/><path d="M284.81 207.25c-.306-2.85-.916-4.475-.405-8.647.203-1.223.405-5.9 0-8.14 0 0 1.63 7.832-3.662 9.362M315.13 212.34c0-3.97.916-6.21.916-6.21 1.22-5.592-1.12-7.73-.203-9.154.812-1.22 2.035-3.766.407-8.854 0 0 2.847 10.484-4.478 10.484-7.425 0-7.12-2.748-7.12-2.748"/><path d="M284.4 190.46c0 2.135 0 8.447 9.055 8.447 2.746 0 5.698-1.933 7.324-3.256M303.02 192.9c-.306-1.934-.306-4.375-.306-6.92M289.08 182.53c2.44-.308 4.376-.61 8.955-.61M298.34 175.6c.51 2.24-.304 5.8 3.866 6.31M306.58 174.79c-.61 1.63-.61 3.256-.814 4.375M305.97 181.92c1.73 0 4.985-1.12 9.054-.306M316.45 204.4c.813 1.63 1.018 3.765 3.56 6.207M288.27 199.21c.204 1.324-1.73 5.698-.306 9.262 1.322 3.56 1.12 7.63-1.12 11.09M293.46 200.54c-.813 1.626-2.238 3.256-2.544 4.68M297.52 203.59c0 1.018-2.744 8.75-4.68 10.886 0 0 3.56 1.424 3.05 6.614M303.22 200.03c0 1.324-.204 1.63.916 2.44M306.58 202.47c1.32 1.628 5.492 6.514 4.576 9.26M303.83 205.22c.306 1.018.306 6.31-.61 8.955M301.09 213.97c-1.12 0-2.746.814-3.052 2.747M306.78 213.66c1.118-.306 3.355 1.626 3.355 7.123M325.81 210.51c-2.136.61-3.052 1.732-2.44 1.12-1.12.915-2.138 1.525-2.138 1.525"/></g><path fill="#000" stroke-width=".305" d="M289.79 197.99c.608 0 1.118-.408 1.118-.916 0-.41-.507-.816-1.118-.816-.51 0-1.02.405-1.02.816 0 .505.508.916 1.02.916zM312.89 198.3c.51 0 1.02-.405 1.02-.916 0-.505-.508-.81-1.02-.81-.607 0-1.118.305-1.118.81 0 .51.51.916 1.118.916z"/><path fill="#fff" d="M280.54 239.81c1.22-7.937 4.985-14.55 5.086-15.162 0 0 3.865.816 10.58 1.424 6.612.71 8.444.408 11.496.202 2.95-.303 6.815-.81 6.815-.81s1.22 2.44 1.322 4.882c.304 5.188 2.235 27.677 2.438 33.68 0 0 .814 3.56.814 12.31 0 9.568 2.645 29 2.645 39.382l-2.645.51s-14.446 1.12-14.446-.814c0-2.135-.813-27.066 1.322-42.126 0 0-.508-2.95-1.322-5.496-.813-2.442-4.375-10.073-4.375-11.698 0 0-5.694 16.072-6 18.824-.304 2.543-1.12 38.357-1.628 41.312 0 0-8.24 6.308-9.36 6.92-1.118.51-9.054-3.36-9.258-4.375-.306-1.118.814-13.23 4.578-33.176 1.425-7.124.61-8.44.61-10.376 0-1.934.103-27.474 1.322-35.412l.006-.002z"/><g fill="none"><path d="M294.27 274.92c-.61 2.24-1.628 4.375-3.56 5.803M287.96 227.09c-.304 1.322-2.238 7.325-7.122 10.887M295.08 228.21c-1.12 3.562-5.493 22.693-6.31 45.383M288.47 280.72c-.204 2.135-1.322 18.012-1.628 20.756M286.03 304.53c-.51 1.117-2.746 10.375-2.746 18.62M315.53 287.23c-.204 1.933-1.02 15.668 3.56 27.98M300.58 229.23c-.305 2.237-.813 16.688-.813 17.806 0 1.117 1.628 2.747 2.44 3.054 0 0-1.627.51-1.932 6.003M296.2 243.17c-.308 1.727-1.934 8.547-3.054 11.295M306.27 229.03s4.884 1.018 5.188 0c0 0 1.628 29.512 3.866 45.89M304.14 232.79c0 1.934-.61 16.485-.61 16.485M305.97 251.41s1.93 2.745 1.425 4.066M289.59 227.4c1.63.508 3.053.812 3.053.812M297.83 229.84c-.307.814-.61 4.58-.61 4.58M305.97 273.29c.61.814 1.425 1.936.814 4.377"/></g><path fill="#9b5f00" d="M284.91 224.45s0-3.256 1.22-4.886c0 0 3.457.714 8.342 1.222 4.984.508 8.95.916 12.615.508 3.663-.406 7.428-1.322 7.428-1.322s1.017 4.784.506 5.496c0 0-3.967.814-8.34 1.016-4.477.303-11.902-.408-14.445-.812-3.36-.408-6.31-1.02-7.325-1.222z"/><path fill="#fff" d="M288.06 224.85l.608-4.883 1.02.1-.204 5.088-1.424-.305M310.14 220.78l.103 5.496 1.22-.206-.1-5.597-1.223.307M294.47 220.78l-.406 5.29h.713l.712-5.29h-1.02"/><path d="M276.77 320.81c-.305 1.322-.812 3.154-1.018 5.496 0 .508-.507 3.256 1.018 3.356 1.12.103 1.425-2.85 1.425-2.85s-1.02 3.257.305 3.665c1.832.403 2.034-3.562 2.034-3.562-.204 1.12-1.425 3.97.306 4.27 1.83.308 2.34-3.866 2.34-3.866s-1.526 4.173.304 4.274c1.73.1 1.73-4.072 1.73-4.072s-.917 4.988 1.525 4.58c1.32-.203 1.627-1.934 1.932-2.95.406-1.525 1.322-3.458.204-6.613-.812-2.342-.507-2.952-.507-2.952s-2.85 2.138-5.088 3.562c-1.02.61-6.514-2.34-6.514-2.34zM306.48 316.43c-.508-.307-.406 1.832-.61 2.846-.102 1.02.205 3.257 3.664 3.055 3.355-.306 6.715-1.017 8.85-.508 2.138.61 5.29.71 7.022.71 1.73 0 2.85-.2 3.66-.508.714-.303 2.24.408 2.95.408.714 0 1.832-1.12 1.73-1.832-.102-1.324-1.32-1.324-3.053-1.424-1.628-.203-3.865-.51-4.983-.916-1.12-.408-3.154-1.527-5.698-2.035 0 0-4.883.205-5.898.205-1.02 0-7.022.303-7.634 0z"/></g><g fill="none"><path fill="#ffb366" d="M255.71 189.85c-.507.306-1.12-2.035.406-2.95 0 0 .406-1.932 2.035-2.137 0 0 1.322-1.832 3.258-1.626 0 0 2.235-1.525 3.05-1.324.813.102 2.85 2.136 2.95 2.85.205.71 0 1.933-.51 2.442-.61.608-1.018-.102-1.12-.916 0 0 .408 1.523-.812 2.134-1.22.714-1.12.206-1.22-.61 0 0-.307 1.63-1.12 1.832-.813.305-1.32-.408-1.934-.408 0 0 1.02.816.307 1.426-.714.508-1.527.303-2.037-.102-.51-.508-1.12-1.832-3.257-.61l.004-.002z"/><path d="M265.68 186.09c-.51-1.63-2.137-3.054-4.07-2.848M263.85 187.61c-.306-.408-.408-.816-.712-1.22-.916-1.528-2.85-1.424-4.477-1.832M261.1 189.14c-.61-.406-.813-1.222-1.425-1.524-1.018-.408-2.034-.916-3.255-.714"/></g></g><g stroke="#000" stroke-width=".509"><path fill="url(#b)" d="M439.14 165.12c.712-.306.51.61.61.916.306 1.32.306 2.748.813 3.967.608 1.12.812 1.526 1.83 2.035 1.627.916 6.407 3.562 9.767 1.424.204-.1.508-.306.712-.508 0 0-1.22 4.172 2.95 6.207 1.32.71 15.668 8.242 15.668 8.242s1.525 2.748.61 6.512c-.205.61-.406 1.118.203 1.526 1.02.71 2.644 2.748 3.766 6.004 0 0 2.946-1.324 2.946-3.256 0-1.934-1.22-2.95-1.525-4.375-.2-1.324-1.016-4.682-.607-5.698.405-1.118 2.135-1.526 2.847-1.936.714-.41 1.526.405 1.322 1.32-.102 1.02-.812.817-1.628 1.02 0 0 1.02 1.93.814 3.355l9.358 4.783s-1.22 1.63-1.628 2.34c-.51.715-1.425 10.175-4.17 14.653-2.75 4.478-3.664 3.257-4.172 3.867-.61.508-1.424 1.324-2.137 1.934-.61.51-3.765.815-4.477-.915-.712-1.628-1.22-2.647-3.153-4.174-1.934-1.523-5.9-5.39-5.9-7.122 0 0-2.34 6.72-2.035 12.313 0 0-8.443 1.732-16.176 1.937-7.632.102-11.498-1.528-11.498-1.528s-1.018-6.41-.61-7.632c0 0-1.22 4.172-2.033 5.596-1.12 1.727-2.237 5.29-4.376 5.493-2.236.104-3.968-2.135-4.27-3.05v-6.717h-8.647c0-.1-3.766 1.424-5.087 1.223-1.22-.105-1.832-1.223-.813-1.63l.407-.304c-1.12 0-2.544.71-2.544.71h-4.272c0-.102.103-.41.103-.51.308-1.218 2.546-2.24 4.273-2.95 1.628-.608 3.356-1.323 4.578-1.423 1.934-.203 3.257-.1 6.207.408.812.1 3.967.408 5.798 1.322.508.304 1.118.405.813-.915-.305-1.426-1.22-5.598.307-8.346 1.018-1.933.916-3.56.813-5.19-.204-1.728-1.118-5.597-1.118-7.324 0-5.7 4.375-8.04 8.24-9.262 4.272-1.32 7.12-2.748 6.92-5.288-.104-2.646.608-7.02.202-9.058"/><g fill="none"><path fill="url(#b)" d="M456.34 153.63c.916 3.356 1.12 4.17 1.12 5.29 0 1.22-.51 1.425-.104 2.75.713 2.44-.712 5.087-2.44 7.936-.814 1.32-1.425 3.052-2.747 3.866-3.357 2.135-7.428-.408-9.564-1.327-1.117-.505-1.73-1.32-2.033-2.135-.407-1.22-.51-2.34-.813-3.967 0-.306.103-1.22-.61-.916-1.22-1.424-1.017-2.034-1.523-3.05-.51-1.022.916-2.14 2.034-1.935-.61-1.933-.915-4.072-.305-5.904.204-.608-.508-2.235.51-1.832 4.577 1.832 9.97 1.426 14.854 1.426.403 0 .71-.812 1.32-.71.097 0 .2.305.3.508"/><path fill="#000" d="M456.75 155.35c.508-.406.204-2.34-.306-4.375-.203-1.017-1.018-1.424-2.136-2.542-1.12-1.122-1.525-1.122-2.236-1.424-.61-.207-2.034-.207-2.746-.51-.61-.307-2.238-.104-3.766.102-2.036.304-3.153.202-4.68 1.018-1.525.814-2.745 1.73-3.255 3.256-.406 1.118-1.12 2.542-.814 6.817.205 4.272 1.02 3.458 1.02 3.458s1.12-1.627 1.832-.61c0 0-.103-2.24-.305-3.56-.103-1.222 0-2.748.51-4.58 0 0 4.678 1.732 9.053 1.732 3.053 0 7.02-.306 7.123-1.017l.71 2.235h-.003z"/><path d="M450.44 160.14c.61 1.732.104 1.222.408 2.34M440.57 164.51c0 .812-.61.61-1.02.61"/><path d="M456.85 158.82c-.916-.713-2.645-.204-3.46.102-1.525.71-.712 2.24-.204 3.664.204.71 1.02 1.727.51 2.44-.406.813-.712.41-1.628.51.104-.307-.812 0-1.117 0-.61-.1-.915.404-1.425.203-.608-.305-.508-1.22-.306-1.73M449.32 159.53c0-.403-1.32-.81-2.745-.915-2.238-.102-2.442.104-4.172 1.322M453.9 168.89c-.405-.608-1.018-.916-2.137-.405 0-.204-1.524-.406-1.524-.406-.813 0-1.322.302-2.137.71M453.69 169.4c-.916-.61-3.256-.2-5.596-.2M448.3 170.01c1.73.512 3.46.816 5.188 0"/><path fill="#fff" stroke-width=".305" d="M456.44 160.14c-.712-.1-1.018-.916-3.153.306-1.12.61 1.832 1.426 1.425 1.324 1.22.202 1.628-.508 1.73-1.122-.002-.203.202-.508-.002-.508zM448.1 160.95c0-.816-1.83-1.12-2.847-.816-1.02.306-.61.105-1.526.613 1.02.203.712.303 1.526.71.914.408 1.12.814 2.34.206.305-.105.71-.508.812-.916-.1.1-.202.203-.305.203z"/><path fill="#000" stroke-width=".305" d="M455.12 161.36c-.508 0-.813-.406-.813-.814 0-.508.307-.916.813-.916.405 0 .712.408.712.916 0 .408-.307.814-.712.814zM446.37 161.56c-.406 0-.712-.403-.712-.916 0-.508.403-.81.812-.81s.712.302.712.81c0 .514-.303.916-.812.916z"/></g><use xlink:href="#c" fill="#730000" transform="matrix(-1 0 0 1 748.816 0)"/><g fill="none"><path fill="#730000" d="M491.64 193.51c.508.206 1.934-2.033.508-3.05 0 0-.508-1.933-2.136-2.035 0 0-1.322-1.933-3.257-1.63 0 0-2.136-1.524-2.948-1.42-.916.2-2.95 2.236-3.053 2.95-.102.608 0 1.83.508 2.44.61.51 1.02-.104 1.12-1.02 0 0-.406 1.53.812 2.24 1.22.71 1.12.1 1.22-.71 0 0 .307 1.626 1.12 1.932.813.303 1.322-.408 1.935-.408 0 0-1.02.814-.306 1.323.713.61 1.525.303 2.035-.104.61-.405.305-1.728 2.44-.51z"/><path d="M482.49 189.75c.506-1.73 2.235-3.153 4.067-2.85M484.42 191.28c.203-.41.305-.816.61-1.224.915-1.524 2.948-1.524 4.576-1.832M487.06 192.7c.61-.408.814-1.118 1.426-1.42 1.018-.513 2.136-.917 3.256-.715"/><path fill="#730000" d="M482.31 186.77c-.896.716-1.837 1.798-1.906 2.28-.103.61-.008 1.828.5 2.44.55.46.95-.018 1.095-.782-.06.463-.072 1.465.843 2 1.22.71 1.118.095 1.22-.72 0 0 .31 1.636 1.124 1.94.813.305 1.325-.407 1.938-.407 0 0-1.026.805-.312 1.313.712.61 1.522.31 2.03-.094.61-.41.3-1.723 2.44-.5.266.105.803-.453 1.03-1.157l-7.688-5.53-2.315-.783z" stroke="none"/><path d="M480.68 188.19c-1.502 2.582.5 4.132 1.164 2.62-.193 2.385 1.606 2.29 2.285 1.537.657 2.512 1.83 1.395 2.908 1.164-1.223 2.29 1.48 1.61 2.12 1.082.924-1.362 1.356-.277 2.036-.416l1.164-1.247M484.38 187.23c-1.686.896-2.512 2.137-2.535 3.7M486.71 188.73c-1.687.896-2.512 2.137-2.535 3.7M489.58 190.68c-1.687.897-1.765 1.722-2.493 2.826"/></g></g><g fill="#5ac800"><path d="M290.1 323.66l-.204-4.68 1.934 1.63.508-3.563c.813-.206 2.137 1.426 2.137 1.426l-.204-3.564 2.95 3.256s-.202-2.748.813-4.377c0 0 2.237 1.934 2.237 4.17 0 1.94 1.934-2.747 1.934-2.747.51 1.63 1.628 5.19 1.628 5.19l1.32-1.934 1.12 4.07 2.443-3.563 1.93 4.174 4.376-.306.51 2.44 1.933-2.136 2.544 1.627s2.137-.61 3.256-.61 2.442 1.427 2.442 1.427.813-1.426 1.628-1.938c.812-.506 1.935.816 2.236 1.63l1.628-2.95s2.137 2.137 2.44 2.95c0 0 .305-2.44.814-3.257.51-.813 1.32.307 1.933 1.324l1.322-4.374s1.425.303 2.44 1.934c1.118 1.626 1.118-2.44 1.118-2.44s2.44 3.255 3.052 5.492c0 0-16.846 5.784-28.726 4.203-13.982-1.862-25.5-4.507-25.5-4.507M405.57 323.15s.813-2.24 1.935-3.36c0 0 2.136 2.546 2.136 3.36 0 0 .61-.305 1.73-1.12l1.628 1.626 1.935-1.32 1.832 1.626 3.356-1.424 1.323 1.424 5.188-.606 1.934.812 1.832-2.34 1.73 1.83 2.746-2.747s1.322 1.12 1.628 1.936c0 0 2.238-1.117 2.747-1.935 0 0 2.136-.812 2.44.51 0 0 1.322-1.018 1.222-2.135-.103-1.118 1.524-.307 2.033 1.117 0 0 .61-2.235 2.236-2.44 0 0 1.117 1.32.812 3.767 0 0 2.44-1.94 3.56-2.142 0 0 .51 2.748-.304 5.193 0 0 2.543-4.173 3.053-2.747.205.812.815 3.56.205 5.492l2.238-1.424.812 2.75 2.44-.51s-14.442 2.212-28.05.914c-13.607-1.298-26.376-6.104-26.375-6.104M395.51 333.25c.66-.408-4.546 10.708-17.17 11.3-17.563.822-32.577-7.94-32.577-7.94s1.832-3.052 2.95-3.868c0 0 2.44 1.936 3.255 4.375 0 0 .306-1.627 1.12-3.05 0 0 3.052 1.42 3.56 3.357 0 0 1.12-1.935 1.935-2.442.812-.612 1.628 2.135 1.628 3.766 0 0 1.933-2.038 3.053-2.14 0 0 2.137 1.018 2.747 4.58 0 0 2.035-1.932 2.746-1.63 0 0 2.442 1.63 1.83 3.867-.304 1.223 2.442-1.42 5.8-2.236l2.95 2.235s2.746-3.66 3.56-4.885c0 0 2.24.816 2.24 2.14 0 0 1.018-3.868 1.83-4.274.813-.508 1.932 1.22 1.932 2.342 0 0 .307-2.952 1.935-3.562 0 0 1.628 1.118 1.628 2.24-.002-.002 1.727-3.36 3.05-4.176z"/></g><g stroke-width=".509" stroke="#060" fill="none"><path d="M290.1 323.66l-.204-4.68 1.934 1.63.508-3.563c.813-.203 2.137 1.426 2.137 1.426l-.204-3.56 2.95 3.255s-.202-2.748.813-4.375c0 0 2.237 1.934 2.237 4.172 0 1.936 1.934-2.748 1.934-2.748.51 1.63 1.628 5.19 1.628 5.19l1.32-1.935 1.12 4.07 2.44-3.56 1.934 4.17 4.375-.306.51 2.443 1.933-2.138 2.544 1.63s2.135-.61 3.255-.61 2.442 1.422 2.442 1.422.812-1.422 1.628-1.93c.812-.51 1.933.81 2.235 1.625l1.63-2.95s2.136 2.137 2.44 2.95c0 0 .305-2.44.814-3.257.51-.812 1.322.307 1.934 1.324l1.322-4.375s1.424.303 2.44 1.933c1.12 1.626 1.12-2.444 1.12-2.444s2.44 3.26 3.054 5.496M405.57 323.15s.812-2.235 1.933-3.356c0 0 2.136 2.545 2.136 3.356 0 0 .61-.305 1.73-1.117l1.627 1.626 1.933-1.32 1.832 1.626 3.358-1.424 1.32 1.424 5.187-.608 1.935.812 1.83-2.337 1.73 1.828 2.746-2.743s1.322 1.115 1.628 1.932c0 0 2.238-1.12 2.747-1.933 0 0 2.135-.814 2.44.505 0 0 1.32-1.017 1.22-2.135-.103-1.118 1.525-.304 2.034 1.122 0 0 .61-2.24 2.238-2.446 0 0 1.118 1.323.812 3.766 0 0 2.44-1.932 3.56-2.137 0 0 .51 2.745-.303 5.19 0 0 2.544-4.173 3.052-2.748.204.812.814 3.562.204 5.493l2.238-1.424.813 2.748 2.44-.51M345.68 336.63s1.832-3.05 2.95-3.866c0 0 2.44 1.934 3.255 4.375 0 0 .308-1.628 1.12-3.052 0 0 3.053 1.42 3.56 3.357 0 0 1.12-1.934 1.935-2.44.813-.614 1.628 2.134 1.628 3.763 0 0 1.933-2.037 3.053-2.138 0 0 2.137 1.017 2.747 4.58 0 0 2.036-1.933 2.746-1.63 0 0 2.442 1.63 1.83 3.867-.304 1.22 2.443-1.422 5.8-2.237l2.95 2.237s2.746-3.662 3.56-4.885c0 0 2.24.814 2.24 2.14 0 0 1.018-3.87 1.83-4.274.813-.508 1.932 1.22 1.932 2.34 0 0 .307-2.95 1.936-3.562 0 0 1.63 1.118 1.63 2.24 0 0 1.728-3.357 3.05-4.175"/></g></g><g><g fill="#fff"><path d="M374.44 376.98c22.892.205 36.424-8.14 43.85-13.127 17.397-11.7 21.06-12.107 23.91-11.906 3.256.31 8.034 1.427 8.24 4.277.305 4.375-6.816 6.307-10.887 6.307-4.17 0-15.058-2.747-15.058-2.747l-2.85 1.936c1.934.915 24.215 8.34 28.488 1.322 4.372-7.122 8.75-18.622 8.75-18.622s-4.884-8.75-15.772-8.75c-10.986 0-21.67 6.92-28.79 12.105-7.123 5.19-16.074 12.312-39.883 12.312-23.807 0-32.86-7.122-39.98-12.312-7.122-5.188-17.806-12.106-28.69-12.106-10.987 0-15.872 8.75-15.872 8.75s4.374 11.5 8.75 18.622c4.27 7.02 26.554-.407 28.484-1.323l-2.747-1.937s-10.987 2.748-15.058 2.748c-4.17 0-11.293-1.93-10.987-6.306.204-2.85 4.984-3.97 8.24-4.277 2.85-.2 6.512.207 23.908 11.906 7.43 4.986 20.962 13.025 43.954 13.127"/><path d="M337.61 350.01s0-1.938-.308-4.783c-.406-3.664-2.542-4.58-4.27-4.07-1.12.402-3.357 3.154-3.357 3.154v.104c-1.018-.715-2.034-1.323-3.154-1.935.815-.917 5.495-3.765 6.614-3.765 1.02 0 15.058 5.697 19.532 9.562 1.12 1.02 1.935 7.328 1.322 9.36-7.528-1.932-12.41-4.78-16.38-7.528v-.103M330.89 364.26s-3.053 3.05-3.153 8.648c-.104 6.613 4.68 6.92 7.833 6.816 3.765-.104 6.815-2.238 6.715-9.26 0 0-6.207-2.646-11.396-6.206M411.17 350.01s.103-1.938.408-4.783c.403-3.664 2.44-4.58 4.17-4.07 1.12.402 3.356 3.154 3.356 3.154v.104c1.017-.715 2.032-1.323 3.152-1.935-.812-.917-5.49-3.765-6.51-3.765-1.118 0-15.157 5.697-19.634 9.562-1.02 1.02-1.832 7.328-1.322 9.36 7.63-1.932 12.41-4.78 16.38-7.528v-.103M417.88 364.26s3.053 3.05 3.154 8.648c.204 6.613-4.682 6.92-7.833 6.816-3.765-.104-6.714-2.238-6.714-9.26 0 0 6.207-2.646 11.396-6.206"/></g><g fill="#69f"><path d="M324.28 359.78s-10.887 2.748-14.956 2.748c-4.17 0-11.293-1.93-10.987-6.308.204-2.85 4.985-3.967 8.24-4.272 2.442-.207 5.596.1 17.703 7.832M424.5 359.78s10.885 2.748 15.058 2.748c4.07 0 11.19-1.93 10.885-6.308-.202-2.85-4.983-3.967-8.24-4.272-2.443-.207-5.597.1-17.703 7.832M337.61 350.11c-1.12-.814-2.238-1.63-3.258-2.44-1.525-1.122-3.052-2.14-4.68-3.257 0 0 2.237-2.85 3.356-3.156 1.73-.61 3.865.303 4.27 3.967.307 2.85.307 4.887.307 4.887M330.18 378.81c1.936 1.12 4.07 1.02 5.394.916 3.765-.102 6.816-2.238 6.715-9.258 0 0 4.677 2.34 12.308 4.172 0 0 1.222 1.525 1.424 4.576.308 2.547-1.424 5.29-3.457 5.09 0 0-10.683-1.934-17.192-3.05-3.766-.712-5.19-2.444-5.19-2.444M411.17 350.11c1.118-.814 2.238-1.63 3.355-2.44 1.426-1.122 2.95-2.14 4.58-3.257 0 0-2.238-2.85-3.357-3.156-1.73-.61-3.765.303-4.17 3.967-.307 2.847-.408 4.886-.408 4.886M418.59 378.81c-1.933 1.12-4.07 1.02-5.393.916-3.765-.102-6.715-2.238-6.715-9.258 0 0-4.68 2.34-12.21 4.172 0 0-1.32 1.525-1.525 4.576-.204 2.547 1.526 5.29 3.46 5.09 0 0 10.782-1.934 17.192-3.05 3.764-.712 5.187-2.444 5.187-2.444"/></g><g fill="none" stroke="#000" stroke-width=".712"><path d="M374.44 376.98c22.893.203 36.424-8.143 43.85-13.127 17.397-11.7 21.06-12.106 23.908-11.904 3.257.304 8.04 1.424 8.24 4.272.307 4.375-6.815 6.307-10.887 6.307-4.17 0-15.056-2.744-15.056-2.744l-2.848 1.934c1.934.916 24.212 8.343 28.485 1.32 4.376-7.122 8.75-18.62 8.75-18.62s-4.884-8.753-15.77-8.753c-10.987 0-21.67 6.922-28.793 12.11-7.12 5.19-16.072 12.312-39.88 12.312-23.808 0-32.86-7.124-39.982-12.313-7.12-5.188-17.806-12.11-28.69-12.11-10.986 0-15.87 8.754-15.87 8.754s4.373 11.498 8.75 18.62c4.272 7.02 26.554-.404 28.485-1.32l-2.745-1.934s-10.99 2.743-15.056 2.743c-4.174 0-11.295-1.93-10.99-6.308.204-2.85 4.984-3.967 8.24-4.273 2.848-.203 6.51.204 23.908 11.903 7.43 4.988 20.96 13.027 43.952 13.127z"/><path d="M324.28 359.78s-10.888 2.748-14.954 2.748c-4.172 0-11.293-1.933-10.99-6.308.205-2.85 4.986-3.97 8.242-4.272 2.44-.207 5.595.1 17.702 7.832zM424.49 359.78s10.887 2.748 15.058 2.748c4.07 0 11.19-1.933 10.886-6.308-.204-2.85-4.983-3.97-8.238-4.272-2.442-.207-5.598.102-17.702 7.832h-.004zM337.61 350.11c-1.12-.814-2.238-1.63-3.258-2.44-1.523-1.122-3.05-2.14-4.68-3.257 0 0 2.24-2.85 3.357-3.156 1.728-.61 3.864.303 4.27 3.97.31 2.844.31 4.883.31 4.883z"/><path d="M337.61 350.01s0-1.936-.308-4.783c-.404-3.664-2.542-4.58-4.27-4.07-1.12.406-3.36 3.154-3.36 3.154v.104c-1.017-.712-2.035-1.323-3.153-1.935.813-.917 5.493-3.765 6.613-3.765 1.02 0 15.057 5.697 19.533 9.565 1.12 1.02 1.933 7.325 1.322 9.362-7.53-1.937-12.413-4.785-16.383-7.53M330.89 364.26s-3.05 3.05-3.152 8.648c-.103 6.61 4.68 6.918 7.833 6.816 3.766-.104 6.815-2.238 6.718-9.263 0 0-6.207-2.645-11.396-6.206l-.002.006z"/><path d="M333.44 365.78s-2.44 2.543-2.847 6.715c-.204 3.257 1.932 5.086 4.68 4.883 3.865-.2 5.393-5.492 3.56-8.443l-5.393-3.155"/><path d="M330.18 378.81c1.934 1.12 4.068 1.018 5.392.916 3.765-.104 6.814-2.24 6.717-9.26 0 0 4.678 2.34 12.31 4.172 0 0 1.22 1.525 1.422 4.58.307 2.543-1.423 5.29-3.456 5.086 0 0-10.685-1.934-17.194-3.05-3.768-.716-5.192-2.444-5.192-2.444zM411.17 350.11c1.12-.814 2.238-1.63 3.357-2.44 1.425-1.122 2.95-2.14 4.578-3.257 0 0-2.237-2.85-3.357-3.156-1.73-.61-3.765.303-4.17 3.97-.306 2.847-.406 4.884-.406 4.884h-.002z"/><path d="M411.17 350.01s.103-1.936.408-4.783c.405-3.664 2.44-4.58 4.17-4.07 1.12.406 3.356 3.154 3.356 3.154v.104c1.02-.712 2.035-1.323 3.154-1.935-.814-.917-5.493-3.765-6.512-3.765-1.12 0-15.157 5.697-19.634 9.565-1.02 1.02-1.832 7.325-1.322 9.362 7.63-1.937 12.41-4.785 16.38-7.53M417.88 364.26s3.053 3.05 3.154 8.648c.204 6.61-4.682 6.918-7.835 6.816-3.765-.104-6.714-2.238-6.714-9.263 0 0 6.205-2.645 11.394-6.206v.006z"/><path d="M415.34 365.78s2.442 2.543 2.85 6.715c.306 3.257-1.936 5.086-4.682 4.883-3.865-.2-5.29-5.492-3.56-8.443l5.392-3.155"/><path d="M418.59 378.81c-1.933 1.12-4.07 1.018-5.393.916-3.764-.104-6.713-2.24-6.713-9.26 0 0-4.682 2.34-12.208 4.172 0 0-1.322 1.525-1.526 4.58-.203 2.543 1.526 5.29 3.46 5.086 0 0 10.784-1.934 17.19-3.05 3.767-.716 5.19-2.444 5.19-2.444z"/></g><g fill="none" stroke="#fff" stroke-width=".712"><path d="M353.79 376.47s3.357 2.445-.712 5.496M343.72 374.84l10.275 4.478M345.44 377.18l7.526 3.254M348.09 375.25l5.697 2.547M395.09 376.47s-3.46 2.445.61 5.496M405.06 374.84l-10.276 4.478M403.43 377.18l-7.527 3.254M400.69 375.25l-5.596 2.547"/></g><g stroke="#000" stroke-width=".7"><path d="M313.56 345.17c.146.236.24.483.285.736.04.258.03.547-.03.865-.145.757-.55 1.323-1.206 1.713-.66.388-1.418.495-2.255.335-.39-.072-.77-.206-1.132-.402-.362-.19-.675-.395-.924-.62-.113.133-.23.26-.35.393-.162-.03-.325-.063-.487-.094.157-.985.312-1.97.475-2.954.16.03.327.062.495.096.03.382.093.728.174 1.048.076.32.208.623.384.924.168.276.38.516.64.71.255.193.572.33.946.398.282.056.534.065.763.03.22-.033.414-.1.564-.21.153-.11.284-.248.384-.416.096-.164.165-.36.21-.6.065-.345.024-.68-.11-1.015-.136-.336-.394-.613-.75-.84-.24-.152-.527-.33-.845-.523-.32-.195-.593-.36-.82-.527-.446-.31-.778-.66-.977-1.073-.204-.403-.257-.888-.148-1.457.062-.325.188-.612.377-.87.188-.263.428-.47.72-.647.276-.172.587-.275.934-.338.344-.054.693-.05 1.042.018.398.074.75.205 1.043.386.29.183.557.372.785.587l.33-.36c.164.03.324.06.49.094l-.493 2.854-.498-.095c-.027-.343-.068-.674-.12-.994-.06-.317-.158-.616-.288-.892-.13-.27-.312-.497-.536-.684-.222-.19-.523-.314-.894-.386-.385-.073-.74-.017-1.062.183-.318.2-.515.466-.582.82-.07.37-.038.693.092.972.126.28.344.526.65.748.27.2.544.373.813.533.267.16.52.32.77.49.223.148.443.31.643.49.194.176.364.37.494.577M326.04 346.92c-.105-.053-.268-.112-.484-.182-.217-.07-.406-.104-.58-.088-.17.014-.347.14-.536.37-.19.23-.392.536-.596.91-.61 1.106-1.224 2.214-1.834 3.323-.234.422-.526.74-.878.955-.35.217-.73.34-1.13.38-.395.042-.77.01-1.14-.077-.367-.097-.694-.222-.984-.382-.463-.256-.85-.54-1.146-.863-.297-.328-.52-.656-.647-.998-.13-.342-.186-.678-.16-1.012.02-.332.112-.64.27-.924.83-1.507 1.663-3.014 2.494-4.52.066-.125.102-.246.112-.354.002-.102-.045-.23-.13-.37-.065-.103-.155-.208-.28-.318-.128-.104-.228-.188-.32-.246.07-.127.142-.256.21-.382 1.08.595 2.152 1.188 3.23 1.78l-.212.38c-.105-.053-.24-.102-.41-.16-.17-.062-.3-.098-.387-.11-.147-.022-.27 0-.365.083-.1.08-.18.172-.245.29-.777 1.41-1.556 2.817-2.332 4.226-.11.204-.207.432-.28.68-.083.248-.107.51-.08.776.028.28.138.54.312.8.176.26.478.507.902.74.396.22.77.346 1.11.372.338.02.643-.02.913-.14.252-.112.475-.256.65-.435.177-.178.326-.375.444-.588l1.73-3.137c.222-.4.375-.742.454-1.03.083-.285.086-.49.02-.636-.073-.162-.214-.328-.402-.496-.195-.172-.35-.3-.462-.367l.21-.382 3.17 1.748-.21.384M330.53 354.69c.135.278.214.583.22.906.005.326-.088.662-.288 1.01-.2.35-.452.61-.76.783-.304.173-.63.263-.975.288-.337.03-.677-.006-1.03-.094-.355-.094-.695-.23-1.02-.416l-3.63-2.092.218-.38c.09.046.222.1.404.17.18.074.313.114.4.126.143.018.258-.01.357-.066.093-.055.176-.146.253-.28 1.044-1.81 2.088-3.626 3.132-5.438.07-.123.11-.24.125-.354.01-.115-.03-.236-.12-.367-.076-.115-.173-.227-.29-.332-.12-.104-.217-.188-.306-.246.072-.126.147-.253.22-.378 1.177.678 2.357 1.357 3.54 2.04.273.157.52.333.742.53.216.2.4.43.55.693.14.248.224.52.232.81.01.292-.065.595-.24.9-.153.263-.34.47-.557.62-.215.156-.457.254-.72.303-.252.05-.506.055-.774.03-.273-.02-.548-.08-.828-.173-.01.017-.02.032-.028.05.207.155.422.347.647.585.224.245.403.5.526.77zm-.652-1.894c.226-.078.412-.188.568-.34.152-.152.305-.35.45-.6.237-.416.31-.81.217-1.18-.09-.376-.39-.7-.886-.986-.114-.064-.26-.148-.437-.244-.18-.1-.33-.178-.442-.236l-1.68 2.912.682.392c.298.172.57.28.824.327.256.045.49.036.704-.044zm-.637 2.847c.258-.445.313-.898.18-1.363-.136-.467-.49-.857-1.06-1.186-.23-.133-.428-.245-.585-.33-.16-.086-.28-.148-.363-.19l-1.536 2.667c-.128.224-.136.447-.02.665.118.22.34.422.672.61.533.31 1.035.397 1.498.25.464-.15.866-.516 1.215-1.122zM348.94 360.14c-.11-.04-.275-.086-.5-.132-.22-.048-.415-.062-.584-.03-.167.03-.33.174-.498.422-.167.25-.334.574-.502.965l-1.494 3.49c-.19.443-.45.79-.777 1.04-.327.247-.692.407-1.086.49-.393.08-.77.083-1.143.032-.376-.06-.716-.15-1.02-.28-.485-.208-.897-.455-1.226-.747-.327-.297-.58-.6-.743-.928-.163-.326-.252-.654-.26-.99-.013-.333.046-.648.174-.948.68-1.58 1.356-3.163 2.034-4.745.056-.13.08-.255.08-.362-.01-.102-.066-.225-.165-.356-.077-.094-.177-.188-.314-.29-.137-.09-.244-.164-.34-.212.057-.133.113-.27.17-.4l3.39 1.452c-.06.133-.115.268-.174.4-.11-.043-.25-.08-.423-.12-.177-.045-.31-.065-.397-.07-.15-.01-.27.025-.356.116-.09.09-.16.19-.215.314-.633 1.48-1.267 2.957-1.898 4.437-.093.213-.165.448-.216.7-.057.258-.055.52 0 .784.057.273.19.52.39.763.202.24.525.458.972.647.418.18.804.267 1.146.26.335-.014.636-.083.89-.23.24-.14.45-.3.607-.496.157-.192.288-.404.385-.63.47-1.1.94-2.194 1.41-3.292.18-.42.298-.775.35-1.068.05-.295.036-.498-.046-.635-.09-.156-.244-.307-.45-.455-.214-.152-.376-.264-.494-.32l.17-.398 3.326 1.424c-.06.13-.118.263-.174.396M358.51 371.38c-1.25-.36-2.504-.725-3.755-1.086l.122-.42c.14.033.315.07.537.11.217.033.376.044.47.027.145-.044.26-.098.348-.182.08-.078.147-.188.19-.336l1.764-6.102c-.033-.01-.062-.018-.092-.025-1.642 2.113-3.323 4.195-4.968 6.31-.098-.028-.195-.058-.298-.086-.2-2.7-.453-5.397-.653-8.094-.024-.008-.053-.017-.077-.022-.482 1.668-.966 3.336-1.447 5.008-.14.482-.214.854-.224 1.132-.015.27.032.477.124.625.063.11.225.236.48.394.252.156.42.244.503.273l-.122.42-3.43-.99.12-.422c.186.033.386.062.596.074.21.016.378-.003.514-.063.17-.073.312-.207.436-.426.116-.212.252-.585.406-1.12l1.24-4.293c.072-.248.1-.457.087-.633-.015-.18-.063-.324-.147-.46-.096-.146-.226-.264-.388-.368-.165-.108-.337-.188-.51-.244l.12-.418 2.895.836c.19 2.336.432 4.67.62 7.007 1.188-1.563 2.41-3.103 3.6-4.667.133-.173.26-.354.374-.555.112-.19.182-.324.208-.397.923.267 1.85.534 2.77.802l-.12.418c-.114-.027-.258-.047-.44-.068s-.32-.03-.408-.023c-.15.01-.264.06-.344.16-.078.1-.138.207-.175.338-.583 2.018-1.166 4.032-1.748 6.05-.04.134-.05.26-.03.367.02.11.09.216.203.328.062.062.18.133.354.218.176.09.312.147.42.186-.042.134-.083.275-.124.416M367.6 368.62c.23.205.423.455.553.752.13.3.18.645.128 1.04-.05.4-.186.74-.396 1.02-.216.274-.48.483-.786.644-.302.158-.632.256-.988.312-.364.05-.73.057-1.102.01-1.386-.174-2.77-.35-4.156-.522l.054-.435c.1.008.243.008.44 0 .192 0 .335-.016.42-.04.137-.04.234-.106.302-.198.063-.086.107-.2.127-.355.262-2.075.52-4.15.783-6.227.02-.142.005-.267-.02-.375-.038-.11-.12-.205-.253-.293-.118-.076-.248-.142-.396-.19-.154-.052-.273-.093-.377-.11.018-.145.035-.29.054-.434l4.054.51c.313.04.607.107.894.205.275.1.533.238.772.426.223.172.41.392.53.655.12.266.163.572.12.922-.04.303-.13.566-.268.788-.14.228-.324.41-.548.56-.21.143-.448.244-.7.326-.264.09-.54.138-.83.163l-.01.055c.25.064.52.157.823.29.296.135.56.3.777.502zm-1.334-1.494c.177-.158.31-.334.396-.533.08-.198.144-.438.18-.73.06-.474-.025-.86-.256-1.17-.23-.312-.627-.493-1.198-.565-.128-.016-.298-.037-.493-.058l-.507-.048c-.14 1.113-.278 2.225-.42 3.336.263.032.522.064.78.098.34.043.638.037.892-.018.248-.056.457-.158.626-.312zm.514 2.873c.063-.514-.06-.952-.36-1.33-.308-.376-.786-.6-1.437-.68-.267-.034-.487-.062-.668-.08-.183-.018-.317-.028-.412-.036-.13 1.02-.256 2.037-.384 3.056-.033.254.05.464.24.62.192.156.48.257.855.304.613.078 1.106-.035 1.476-.35.373-.322.603-.815.69-1.505zM378.69 372.75h-2.387c-.52-.825-1.005-1.518-1.423-2.12-.427-.597-.896-1.198-1.392-1.837h-.905v2.77c0 .14.026.27.068.373.046.11.146.195.296.254.073.03.205.053.392.08.188.023.346.037.475.043v.438h-3.74v-.437c.098-.006.242-.023.437-.043.188-.02.318-.05.393-.08.124-.057.22-.13.272-.234.06-.104.082-.232.082-.394v-6.313c0-.14-.02-.27-.06-.384-.046-.108-.14-.194-.296-.25-.103-.037-.235-.076-.404-.104-.168-.028-.305-.052-.423-.056v-.437h4.085c.373 0 .723.033 1.055.11.33.08.623.198.89.37.255.166.466.37.617.64.152.263.23.583.23.958 0 .34-.052.633-.154.893-.104.26-.26.48-.463.67-.184.184-.413.325-.673.458-.26.13-.55.238-.865.332.43.574.803 1.047 1.09 1.438.283.39.648.858 1.06 1.42.182.25.353.427.5.543.145.122.295.215.437.292.105.058.244.093.405.12.163.03.3.046.405.052-.002.143-.002.29-.002.436zm-3.28-6.506c0-.528-.16-.942-.46-1.26-.303-.31-.742-.463-1.303-.463h-1.062v3.743h.818c.573 0 1.058-.173 1.434-.542.375-.367.573-.853.573-1.476zM388.88 372.1l-3.67.28c-.01-.147-.02-.294-.032-.44.323-.042.588-.103.802-.183.205-.08.307-.16.3-.25-.003-.038-.015-.08-.023-.136-.013-.056-.024-.095-.048-.138-.29-.633-.593-1.26-.883-1.895l-3.098.234c-.096.298-.173.55-.224.772-.057.222-.11.42-.153.604-.04.182-.07.323-.08.438-.01.113-.018.203-.01.27.01.165.15.277.42.352.268.073.564.1.896.093.01.144.02.29.032.437l-3.323.252-.034-.44c.107-.013.24-.046.398-.1.16-.054.287-.112.387-.188.16-.125.277-.248.36-.38.085-.125.16-.294.23-.518.35-1.127.766-2.387 1.187-3.793.42-1.402.824-2.65 1.153-3.745l.498-.036c1.152 2.436 2.354 4.847 3.51 7.28.074.157.157.278.24.374.09.094.203.18.353.26.1.053.227.09.385.115.158.03.285.04.392.036l.033.444zm-3.818-3.292c-.523-1.09-1.07-2.175-1.596-3.27-.344 1.16-.715 2.313-1.062 3.472l2.658-.202zM401.43 361.92l-.446.12c-.172-.292-.44-.572-.8-.86-.362-.286-.675-.41-.93-.383-.13.02-.28.045-.45.084-.174.044-.367.09-.587.15-.478.128-.953.26-1.432.388.307 1.13.612 2.26.918 3.384.324-.09.654-.18.98-.267.294-.08.524-.17.67-.28.14-.105.263-.238.34-.394.057-.112.097-.27.112-.472.017-.198.01-.406-.027-.623l.45-.123c.302 1.11.602 2.213.9 3.316-.147.04-.3.08-.45.123-.06-.167-.158-.356-.284-.56-.136-.2-.256-.34-.363-.417-.156-.118-.337-.18-.528-.185-.202-.006-.428.033-.687.104-.325.09-.655.18-.98.267.265.968.525 1.933.788 2.9.035.13.094.242.178.33.078.09.19.142.342.173.068.016.21.01.418-.01.21-.01.37-.038.474-.06l.114.422-3.7 1.004-.115-.424c.12-.038.278-.098.472-.172.19-.075.32-.127.373-.174.106-.084.178-.188.2-.3.024-.116.022-.243-.017-.388-.55-2.025-1.1-4.053-1.648-6.08-.034-.13-.098-.238-.16-.333-.072-.086-.19-.14-.346-.168-.12-.02-.278-.023-.468-.018-.2.006-.354.024-.462.05-.037-.142-.076-.284-.114-.425l6.696-1.816.572 2.116M411.29 361.17c.324.806.64 1.615.964 2.42l-6.23 3.008-.19-.395c.088-.05.21-.125.375-.23.155-.098.264-.18.314-.24.09-.104.144-.212.148-.333.004-.114-.027-.24-.1-.386-.905-1.877-1.81-3.754-2.718-5.63-.062-.13-.138-.226-.223-.304-.088-.074-.21-.11-.37-.104-.105-.01-.248.006-.426.04-.178.03-.316.067-.42.11-.06-.13-.127-.265-.188-.395 1.123-.54 2.24-1.08 3.362-1.623l.19.396c-.106.057-.23.137-.377.248-.153.116-.263.204-.32.27-.11.106-.16.224-.15.35 0 .132.035.257.095.378l2.55 5.283c.117.24.218.425.31.546.094.127.2.207.325.234.113.03.263.01.444-.06.182-.06.424-.163.73-.313.14-.065.277-.142.428-.22.148-.076.28-.165.404-.247.12-.09.224-.18.318-.272.09-.092.15-.174.172-.262.067-.246.132-.585.166-1.035.03-.44.046-.786.02-1.04.133-.06.266-.126.398-.19M415.95 352.52c.537.154 1.054.408 1.527.785.48.388.896.867 1.247 1.46.354.6.57 1.196.67 1.796.098.6.062 1.174-.07 1.724-.13.537-.37 1.02-.697 1.47-.328.446-.742.81-1.245 1.106-.53.312-1.073.51-1.642.572s-1.112.03-1.64-.137c-.525-.155-1.025-.412-1.497-.8-.473-.385-.874-.848-1.203-1.403-.36-.612-.582-1.215-.678-1.81-.093-.592-.062-1.16.062-1.715.132-.543.378-1.034.71-1.485.333-.45.743-.812 1.232-1.1.508-.302 1.042-.492 1.593-.563.56-.076 1.102-.048 1.63.1zm2.347 5.807c.003-.442-.05-.895-.206-1.354-.147-.46-.37-.937-.665-1.438-.306-.516-.635-.96-.99-1.334-.353-.368-.728-.642-1.103-.83-.374-.19-.764-.27-1.158-.266-.39 0-.787.124-1.17.35-.425.25-.736.56-.917.938-.182.375-.282.78-.277 1.213.008.418.084.857.245 1.326.16.472.374.935.646 1.396.3.506.622.937.95 1.295.332.356.7.63 1.083.833.382.2.763.287 1.163.293.396 0 .8-.113 1.21-.354.38-.225.678-.525.878-.88.198-.36.31-.757.313-1.185zM429.27 352.37c-.647.46-1.3.922-1.948 1.38-.896-.372-1.697-.655-2.383-.903-.697-.246-1.43-.46-2.196-.695l-.743.525 1.603 2.26c.08.112.18.198.27.264.105.065.232.072.387.036.08-.017.198-.074.368-.162.17-.088.3-.168.41-.24.084.12.17.24.254.357-1.017.724-2.034 1.443-3.05 2.164-.085-.116-.17-.24-.255-.356.08-.062.186-.157.332-.287.137-.124.228-.222.273-.294.067-.112.103-.23.083-.346-.012-.117-.063-.236-.156-.367-1.22-1.717-2.437-3.437-3.652-5.152-.08-.112-.172-.205-.27-.272-.1-.066-.227-.082-.382-.037-.11.034-.24.08-.393.147-.16.074-.28.14-.378.203l-.254-.357c1.11-.787 2.22-1.572 3.33-2.36.306-.216.614-.39.925-.518.315-.126.63-.204.94-.216.31-.017.597.036.87.16.284.128.53.347.746.65.2.28.33.548.39.82.068.27.07.538.016.813-.045.254-.15.498-.287.76-.14.257-.308.513-.517.77.686.222 1.262.39 1.724.542.453.156 1.025.326 1.685.547.29.103.535.146.724.156.185.014.364.004.522-.018.12-.014.25-.066.4-.135.152-.067.272-.14.36-.194.082.12.17.24.252.36zm-6.435-3.41c-.306-.432-.68-.678-1.105-.762-.43-.076-.874.05-1.333.375l-.867.614 2.166 3.056.67-.475c.468-.33.76-.755.852-1.27.094-.52-.024-1.033-.383-1.538zM436.56 346.87c.243.822.487 1.648.735 2.47-2.3.852-4.593 1.702-6.89 2.555-.052-.135-.104-.274-.153-.41.116-.05.27-.122.45-.224.184-.097.304-.163.353-.216.1-.105.162-.215.178-.32.015-.114-.002-.234-.057-.38-.73-1.964-1.454-3.923-2.184-5.888-.047-.125-.114-.23-.19-.315-.08-.078-.2-.118-.358-.135-.122-.012-.28 0-.467.025-.2.02-.345.053-.455.088-.05-.135-.104-.274-.152-.41l6.422-2.383.73 1.975c-.146.056-.295.11-.437.164-.184-.27-.475-.51-.85-.745-.386-.24-.697-.323-.944-.268-.123.03-.27.067-.44.125-.175.06-.364.123-.58.203-.436.16-.87.322-1.303.483.4 1.082.805 2.17 1.205 3.25.312-.114.62-.23.938-.347.296-.11.51-.217.63-.33.112-.104.204-.234.258-.408.048-.145.062-.32.056-.533-.01-.208-.033-.393-.077-.57.144-.053.29-.106.438-.162l1.19 3.21c-.147.057-.296.11-.438.163-.09-.178-.202-.363-.343-.545-.144-.174-.27-.3-.383-.364-.178-.104-.346-.15-.517-.14-.177.01-.386.063-.638.157l-.938.348c.305.823.606 1.64.912 2.462.09.244.18.428.27.562.088.133.194.207.32.245.127.038.287.028.467-.015.184-.05.44-.13.76-.248.13-.05.297-.11.51-.188.212-.08.39-.148.523-.225.14-.073.29-.157.432-.256.142-.105.236-.196.27-.29.113-.252.202-.604.256-1.05s.086-.77.07-.962c.14-.054.278-.105.422-.158M443.96 340.81c.438.353.814.787 1.1 1.32.288.544.483 1.148.573 1.833.092.688.06 1.324-.087 1.914-.145.59-.4 1.104-.737 1.56-.325.44-.74.792-1.218 1.075-.48.283-1 .455-1.575.53-.615.083-1.192.05-1.734-.116-.547-.164-1.04-.406-1.46-.766-.417-.35-.78-.78-1.06-1.32-.29-.54-.48-1.123-.562-1.764-.092-.705-.06-1.347.086-1.932.146-.58.402-1.094.734-1.553.334-.447.75-.804 1.23-1.09.482-.284 1.007-.454 1.57-.53.578-.075 1.145-.042 1.685.107.54.152 1.028.39 1.455.733zm-.113 6.262c.18-.405.303-.843.345-1.327.038-.48.02-1.006-.056-1.584-.078-.593-.208-1.13-.39-1.612-.18-.48-.412-.88-.682-1.198-.276-.32-.6-.548-.963-.697-.363-.15-.772-.194-1.21-.137-.496.065-.904.228-1.22.506-.312.272-.565.606-.73 1.008-.15.386-.258.82-.288 1.313-.04.496-.026 1.007.043 1.537.077.582.204 1.104.37 1.562.162.458.4.853.673 1.188.267.338.583.563.95.727.365.156.786.21 1.255.146.438-.058.826-.217 1.148-.463.325-.254.585-.574.757-.968z"/></g></g><path d="M422.97 213.66v55.25c0 10.988-1.525 54.744-48.53 71.738-47.104-16.994-48.63-60.746-48.63-71.738v-55.25h97.16" stroke="#000" stroke-width="1.017" fill="none"/></g></svg>