<svg xmlns="http://www.w3.org/2000/svg" xmlns:xlink="http://www.w3.org/1999/xlink" width="600" height="300" viewBox="0 0 10080 5040"><defs><path id="a" d="M0-360l69.42 215.845 212.04-80.3L155.987-35.604l194.986 115.71-225.88 19.65 31.104 224.592L0 160l-156.198 164.35 31.105-224.592-225.88-19.65 194.985-115.71-125.47-188.854 212.037 80.3z"/><path id="b" d="M0-210L54.86-75.508l144.862 10.614L88.765 28.842l34.67 141.052L0 93.334l-123.435 76.56 34.67-141.052-110.957-93.736L-54.86-75.508z"/></defs><path fill="green" d="M0 0h10080v5040H0z"/><circle cx="5040" cy="2520" r="1050" fill="#ffe000"/><circle cx="5367.4" cy="2520" r="864" fill="green"/><circle cx="1730" cy="1470" r="1100" fill="#ffe000"/><path fill="#802000" stroke="#7b3100" stroke-width="23.333" d="M1654.1 2299.4h274.67s12.398-25.178-2.766-37.767-74.23-15.36-58.27-59.892c32.806-91.554 37.384-63.325 57.984-280.77s30.518-558.49 30.518-558.49h-39.674s7.63 106.05-15.26 244.15-29.754 150.3-54.932 256.35-28.992 115.21-51.88 177.01-25.18 64.853-61.038 122.07c-35.86 57.223-22.89 35.86-42.726 70.193-9.918 17.166-22.126 12.59-28.802 25.082-6.676 12.494-7.82 42.058-7.82 42.058z"/><path fill="green" d="M1863.7 668.6c2.282 42.66-2.007 99.138-19.688 145.1-17.928 51.216-37.423 102.27-36.458 155.31-28.502 9.694-57.877-61.678-85.312-19.688 20.624 58.016 68.24 103.95 100.86 156.22 5.502 16.205 52.438 58.518 25.28 68.358-68.546-23.46-85.16-110.31-127.68-163.05-49.38-88.757-141.44-151.49-244-155.82-38.523 1.01-163.78-9.548-131.19 56.42 47.998 32.63 107.14 53.91 154.53 90.536 35.31 3.303 99.31 62.248 95.58 84.52-62.102-25.153-91.17-55.3-158.08-81.758-90.658-35.014-216.06-13.954-266.25 76.02-9.357 23.434-23.172 91.732 6.255 98.24 34.384-53.686 83.57-113.7 156.45-97.6 57.244 4.468-63.877 106.64-17.544 86.083 14.68-6.514 48.583-28.768 72.102-31.092 23.518-2.324 36.653 15.282 54.497 17.718 35.688 4.872 45.515 19.833 42.207 28.537-3.904 10.27-15.242 1.5-51.52 13.004-18.14 5.75-27.616 21.692-48.775 28.99-21.158 7.297-65.173 7.814-81.62 1.343-57.548-24.996-151.89-20.645-169.83 51.468-.017 31.71-28.237-3.504-41.28 10.196-9.78 34.603-12.308 70.132-63.632 66.99-31.155 32.684-63.06 66.527-102.62 89.78 23.215 53.285 115.2-53.515 110.9-8.483-40.21 54.833 20.69 66.37 47.348 24.167 45.09-47.64 100.93-105.63 168.21-57.618 32.045 30.168 50.665-15.952 73.858-13.482 14.612 37.475 32.998 1.844 49.583-8.75 27.15-3.383 19.512 33.91 51.772 10.938 64.293-42.55 143.39-6.796 206.2-48.197 66.852-30.46 9.385 24.53-9.066 46.027-29.373 56.97-3.9 131.76-67.613 167.14-25.593 67.895 30.237 157.4-26.707 207.63-8.284 31.496 73.234 27.89 96.113 40.832 40.09 1.586-1.724-91.76 38.053-104.27 53.344 33.018 50.846-59.05 39.83-87.448 5.172-64.552 8.815-135.13 40.893-193.6 34.102-71.662 65.666 29.186 27.49 57.558-21.684 65.896-53.25 148.36-3.942 209.64 14.21 3.18 25.88 37.625 44.28 48.212s43.53-2.684 48.117-34.022c23.602-94.37 11.713-195.85 45.416-287.63 23.788-28.43 56.603-4.584 71.355 21.56 47.23 54.832 80.43 123.38 137.61 168.56 52.064 24.36 98.107 61.21 122.1 114.81-.32 41.352 117.45 47.69 82.26 1.726-33.77-44.747-11.49-89.504 22.714-119.26 18.318 4.518 12.904-28.29-1.458-15.312-22.995-5.424-24.466-47.512 7.497-27.507 53.836 17.38-4.197-38.962-23.655-40.69-45.52-28.215-97.82-60.676-120.2-109.72 59.256.604 120.77 32.564 181.32 12.74 48.538-24.937 97.77 2.08 114.72 44.864 37.52-5.986 21.524-43.613 0-56.145 27.443-11.325 46.422-34.805 13.147-55.515-17.574-22.934 23.566-62.052-27-60.422 1.65-38.627-13.557-73.973-55.66-87.318-42.18-35.717-165.95 52.62-162.36-27.89-12.472-43.818 50.277-5.854 67.81-27.708 18.12-46.194-86.336-41.686-51.87-77.5 22.512-14.494 128.15-35.314 45.307-50.82-41.347 11.364-76.832 2.95-109.37-17.513-29.657 49.602-114.34-26.94-99.252 61.25-11.585 33.23-87.278 119.57-107.76 53.423 17.422-51.845 107.1-68.797 79.29-138.7-4.267-43.636-40.445 7.59-57.49 4.335-8.63-27.162 26.104-59.178 50.313-65.625 48.038 36.948 49.493-46.614 95.178-39.816 33.356-7.41-10.77-21.718-20.073-27.996 9.14-24.415 60.346-36.89 10.136-58.093-44.302-32.872-77.138 32.72-113.68 36.218-35.072-39.595 31.842-58.628 50.312-79.48.993-15.542-39.017-4.688-26.98-18.228 10.457-18.69 81.302-20.08 48.126-48.125-49.964-17.153-114.44-12.876-162.38 9.346-30.202 9.777-39.088 78.07-65.12 75.237-12.24-30.398 3.984-90.372-37.918-99.167zm236.25 667.19c38.072-6.447.808 57.818-17.5 56.875 1.618-23.092-55.065-20.87-19.897-40.988 11.405-7.364 24.112-12.982 37.397-15.887z"/><g fill="#ffe000"><use xlink:href="#a" x="7560" y="4200"/><use xlink:href="#a" x="6300" y="2205"/><use xlink:href="#a" x="7560" y="840"/><use xlink:href="#a" x="8680" y="1869"/><use xlink:href="#b" x="8064" y="2730"/></g></svg>