<svg xmlns="http://www.w3.org/2000/svg" xmlns:xlink="http://www.w3.org/1999/xlink" width="1000" height="500"><path fill="#0021ad" d="M0 0h1000v500H0z"/><path d="M0 0h1000v500z" fill="#1c8a42"/><circle cx="500" cy="250" r="90.32" fill="#ffc639"/><path fill="#1c8a42" d="M444.84 209.43c6.18 8.477 15.542 22.69 23.072 18.98 5.876.02 8.91.432 9.706 4.343 13.86 2.36 37.153-3.487 51.647-22.366 0 0 1.22.16.797-7.015.08-3.125 4.273-2.5 4.374-1.482.585 1.553.484 2.712 1.27 2.752 1.784-.595 4.223-4.596 6.27-7.136.554-1.12.25-2.298.382-3.71 1.08-2.65 3.77-2.076 4.335-.685.514.898.524 1.584 1.028 2.48 2.732 1.825 7.66.122 8.044.122.484-2.228 1.915-2.016 1.915-2.016 1.823-.403 1.108-.242 2.307.383-1.058 12.004 2.36 12.538 2.077 18.696.12 6.874-2.077 8.83-2.077 11.45.696 3.205 10.835 3.316 7.267 6.027-3.134 1.673.01 4.808-4.707 6.028-13.728 6.966-16.36 12.943-16.36 12.943s-3.446 6.51-3.83 6.51c-2.297 4.345-5.21 1.977-6.833 4.093-.806 2.66-1.713 8.558-.1 11.622.806 4.213-.1 6.512-1.11 10.724-.906 8.79-4.394 10.12-4.797 13.204-1.613 3.296.343 18.778-1.19 18.778-10.22.202-18.05-1.955-22.093-2.76 3.94-16.985 2.41-31.902 2.41-33.434-1.01-12.146-18.194-9.193-20.825-10.805-2.18-.464-3.55-2.238-4.315-3.004-2.43-.26-3.337-.815-5.766-1.067-1.21.604-.485 1.23-3.186 2.066-6.854.825-9.878-5.978-9.878-5.978.333-2.288-15.41.463-23.97-1.522-3.506 1.955-5.038 7.74-7.91 8.426-.082 1.794-4.728-1.472-5.666-3.235-.19-5.13 4.476-7.398 4.476-7.398 3.71-2.61 5.906-3.034 7.69-4.838.897-4.465.444-7.77 2.35-11.128 1.61-2.56 3.99-1.36 5.603-2.51 1.732-1.15 2.468-8.668.866-10.724 0 0-6.935-6.26-7.318-6.642-2.258-6.47 2.64-10.644 4.042-10.17z"/><path fill="#ffc639" d="M877.93 97.555c-4.092-16.194-40.72-51.07-68.247-73.265-6.572-4.477-10.855-1.81-10 4.573 3.428 5.716 6 12 9.426 17.716.956 3.81 2.76 6.476 3.718 10.285 0 0 .282 6.573.857 7.144 8.567 9.433 9.716 17.43 9.716 17.43 4.95 9.527 9.335 16.48 18.003 24.29 9.717 6.1 2.57 25.048 2.853 35.148 0 6.38-4.566 5.625-8.568 4.858-31.528-28.958-62.774-29.05-90.3-37.435-10.766-1.138-10.957 4.003-7.43 6.855 19.243 20.582 37.335 34.582 61.152 46.294 4 2.48 8.003 4.958 12.005 7.438 4.566 3.81 9.142 7.62 13.708 11.43 10.573 6.854 11.44 13.143 11.44 13.708.282 12.86-6.582 22.86-8.578 26.86-3.608 13.638-10.855 16.007-10.855 16.007-58.874 39.723-89.737 50.004-185.18 37.717-1.43-.756-10.573.766 0 4.576 24.29 8.094 83.96 21.076 141.69-6.26 13.86-9.716 23.132-6.53 33.17-12.346 16.49-10.17 40.036-22.83 44.32-24.25 12.86-6.865 48.865-14.576 57.16-21.44 9.515-.766 19.393-2.016 20.058-10.2 3.125-2.026 7.7-.545 11.097-7.217 7.55-1.31 6.28-4.012 6.28-4.012-1.905-5.33-8.96-7.528-14-11.43-7.44-2.478-12.58-3.244-18.012-.573-1.714.766-3.427 1.522-5.14 2.288 0 0-8.004-1.15-8.004-1.714-17.78-.976-16.047-59.9-22.337-84.477z"/><path fill="#1c8a42" d="M919.63 194.01a4.402 2.75 15.947 0 1-8.396-2.637 4.402 2.75 15.947 0 1 8.396 2.637z"/><g fill="#fff"><path id="a" d="M188.16 190.94l-12.75-11.936-12.905 11.77 1.383-17.405-17.25-2.754 14.476-9.774-8.606-15.197 16.668 5.22 6.518-16.205 6.31 16.287 16.734-5.007-8.8 15.086 14.348 9.96-17.283 2.53 1.158 17.424z"/><path d="M233.39 335.53l-13.752-9.167-13.39 9.664 4.71-15.568-13.58-9.416 16.666-.446 4.988-15.496 5.595 15.3 16.667-.156-13.21 9.902 5.307 15.382z"/><use xlink:href="#a" x="2.522" y="269.061"/><use xlink:href="#a" x="-112.066" y="123.223"/><use xlink:href="#a" x="108.427" y="85.027"/></g></svg>