<svg xmlns="http://www.w3.org/2000/svg" width="275" height="180"><path fill="#fff" stroke="#fff" stroke-width="4" d="M0-.149h273.161v179.17H0z"/><path d="M80.307 109.074s-.462 3.923 1.154 5.77c1.615 1.845 5.538 3.922 6.923 4.153 1.384.23-1.616-5.077-1.616-5.077s-4.384-5.538-6.461-4.846zM81 118.997s.46 3.692 3 4.154c2.538.461 4.845.23 4.845.23s0-4.153-7.846-4.384zM89.307 111.382s2.538.923 2.538 3.23c0 2.308-.23 4.616-.23 4.616s-1.847-2.308-1.847-3.462c0-1.154-.461-4.384-.461-4.384zM88.368 125.272s-.327 2.284 2.284 2.284c2.61 0 .326-2.937-2.284-2.284zM88.204 128.862s2.774-.816 6.038-.163c3.264.652 4.895 3.1 4.895 3.1s-3.426.979-7.343 0c-3.916-.98-3.59-2.937-3.59-2.937zM90 120.703s3.916-1.142 7.669 7.343c0 0-7.18-1.795-7.67-7.343zM94.079 118.908s4.406-2.448 7.996 8.975c0 0-5.059-1.959-7.996-8.975zM99.953 129.514s4.406-1.631 10.117 5.059c-9.3-.326-10.117-5.059-10.117-5.059z" fill="#435024" stroke="#435024"/><path d="M102.9 126.405s-.216 2.573 1.511 2.573c1.727 0 .216-3.308-1.51-2.573z" fill="#435024" stroke="#435024" stroke-width=".863"/><path d="M99.723 133.088s-.169 2.247 1.178 2.247.169-2.89-1.178-2.247z" fill="#435024" stroke="#435024" stroke-width=".712"/><path d="M113.18 140.03s-.215 2.573 1.511 2.573c1.727 0 .216-3.308-1.51-2.573zM117.26 132.36s-.216 2.574 1.51 2.574c1.728 0 .217-3.308-1.51-2.573z" fill="#435024" stroke="#435024" stroke-width=".863"/><path d="M106.48 127.883s6.201-1.632 8.812 6.2c-7.506-1.142-8.812-6.2-8.812-6.2zM100.932 136.531s7.017-1.795 10.28.653c3.264 2.447-6.2 3.427-10.28-.653zM113.17 136.694s4.733-2.284 9.955 2.774c-9.791 1.306-9.954-2.774-9.954-2.774zM121.166 133.594s4.733-1.469 9.302 7.18c-10.28-1.469-9.302-7.18-9.302-7.18zM129.325 143.058s-5.221 3.59-11.748-.163c0 0 2.12-4.406 11.748.163zM191.895 108.992s.462 3.923-1.154 5.769c-1.615 1.846-5.538 3.923-6.923 4.154-1.384.23 1.616-5.077 1.616-5.077s4.384-5.539 6.461-4.846zM191.203 118.915s-.462 3.692-3 4.153c-2.539.462-4.846.231-4.846.231s0-4.154 7.846-4.384zM182.895 111.3s-2.538.922-2.538 3.23.23 4.615.23 4.615 1.847-2.307 1.847-3.461.461-4.385.461-4.385zM183.835 125.19s.326 2.284-2.285 2.284c-2.61 0-.326-2.937 2.285-2.285zM183.998 128.78s-2.774-.817-6.038-.164c-3.263.653-4.895 3.1-4.895 3.1s3.427.98 7.343 0c3.916-.979 3.59-2.937 3.59-2.937zM182.203 120.62s-3.917-1.142-7.67 7.343c0 0 7.18-1.795 7.67-7.343zM178.123 118.825s-4.406-2.447-7.995 8.975c0 0 5.058-1.958 7.995-8.975zM172.249 129.432s-4.406-1.632-10.117 5.059c9.301-.327 10.117-5.059 10.117-5.059z" fill="#435024" stroke="#435024"/><path d="M169.302 126.322s.216 2.573-1.511 2.573c-1.727 0-.216-3.308 1.51-2.573z" fill="#435024" stroke="#435024" stroke-width=".863"/><path d="M172.48 133.005s.168 2.248-1.18 2.248c-1.346 0-.167-2.89 1.18-2.248z" fill="#435024" stroke="#435024" stroke-width=".712"/><path d="M159.022 139.948s.215 2.572-1.511 2.572c-1.727 0-.216-3.307 1.51-2.572zM154.942 132.278s.216 2.573-1.51 2.573c-1.728 0-.217-3.308 1.51-2.573z" fill="#435024" stroke="#435024" stroke-width=".863"/><path d="M165.722 127.8s-6.201-1.632-8.812 6.201c7.506-1.142 8.812-6.2 8.812-6.2zM171.27 136.449s-7.017-1.795-10.28.652c-3.264 2.448 6.2 3.427 10.28-.652zM159.031 136.612s-4.732-2.285-9.953 2.774c9.79 1.305 9.953-2.774 9.953-2.774zM151.036 133.511s-4.733-1.468-9.302 7.18c10.28-1.468 9.302-7.18 9.302-7.18zM142.877 142.976s5.221 3.59 11.749-.163c0 0-2.122-4.406-11.75.163zM135.115 145.074s-3.577 4.846-3.577 4.385c0-.462-2.539-2.539-2.539-2.539l4.385-3.23-1.73-.808.922-1.039 3.23 1.385" fill="#435024" stroke="#435024"/><path d="M136.095 145.059s3.577 4.846 3.577 4.384c0-.461 2.539-2.538 2.539-2.538l-4.385-3.231 1.73-.808-.922-1.038-3.23 1.384M134.884 145.305h1.5" fill="#435024" stroke="#435024"/><path d="M70.153 68.228s1.846 4.846 3.923 4.846 7.616.462 7.616.462 2.769-.462 3.692-3c.923-2.539 3.461-13.154 16.154-6.693 12.692 6.462 13.384-11.077 13.384-11.077l-2.077-3 .462-5.769s6.923 4.846 11.308 4.615c4.384-.23 7.615 1.385 9 1.385 1.384 0 5.769 1.385 5.769 1.385l11.308.461s1.846-1.615 3.692-1.384c1.846.23 1.846-1.154 5.308-1.154 3.461 0 6.923-4.385 6.923-4.385s.923-.923 6 0c0 0 3.461-2.77 8.538-4.384 5.077-1.616 4.385-3.693 4.385-3.693s3.692-.692 5.307-.461c1.616.23 2.539-2.77 2.539-2.77l3.923-.461 1.615-2.308 3.923-.692s4.616-3.23 5.308-5.308c.692-2.077 6-.461 6-.461s2.308-2.077 2.539-3.231c.23-1.154 2.307-.23 2.307-.23l-.23 3.691-2.539 1.385v2.308h-3.923l-.23 2.307-3.232.231-.461 2.77-.692 1.153-.924.462h-2.307l-.923 1.384-2.308 1.616-1.615 2.077-3.231-.231-2.077 2.77-1.385-.232-2.077 3.462-1.615 2.077-.923 1.385-1.615.461-.462 1.846-2.77.693-3.692.923-1.384 1.615s-3.923 7.846.23 10.615c4.154 2.77 4.385 5.77 4.385 5.77l2.077 1.384 1.616 2.77.692 3.23s-.692.462-1.616.231c-.923-.23-2.538-.462-2.538-.462l-1.846-1.615-3.462-.23-1.846 2.076s-.923 1.385-.923 2.308c0 .923-.461.692-1.615 0s-3-1.846-3-1.846l-2.539-.693-.23-1.153-1.616.923s-.461 1.384-1.385.923c-.923-.462-1.846-.462-1.846-.462h-1.615s-3.692 2.77-3.23 11.77l-4.155.692-2.077 1.846-1.153 1.154h-3l-1.616 1.384-3 1.154-1.384 1.846-3.693.231-1.615 1.154-.692 1.615-2.539-1.615-3.461-.923-3 .692s-.924.231-1.847.923c-.923.693-3.461 1.154-3.461 1.154s-1.616.462-1.616 1.385-.461 2.538-.461 2.538v3.462s-.462 2.307-2.308 2.307c-1.846 0-1.384 0-2.307-.23-.924-.231-.693-2.308-.693-2.308v-2.538l-3.692-3.462-2.308-.923-2.538.23-2.308 1.385-2.077 1.385s.462 1.615-1.154.461c-1.615-1.153-2.769-1.615-2.769-1.615l-2.077-1.154-2.77-.692-2.076-2.539-5.308-.23-4.615-5.308-1.385-1.385-.23-4.153-3-.462v-2.308l-1.154-2.307.461-4.154-2.769-1.154-1.154-3.923z" fill="#d87503" stroke="#d87503"/></svg>