<svg xmlns="http://www.w3.org/2000/svg" width="275" height="180"><path fill="#fff" stroke="#fff" stroke-width="4" d="M0-.15h273.16v179.17H0z"/><path d="M80.307 109.074s-.462 3.923 1.154 5.77c1.616 1.845 5.54 3.922 6.924 4.153 1.384.23-1.616-5.077-1.616-5.077s-4.384-5.538-6.46-4.846zM81 118.997s.46 3.692 3 4.154c2.538.462 4.845.232 4.845.232s0-4.154-7.846-4.385zM89.307 111.382s2.538.923 2.538 3.23c0 2.308-.23 4.616-.23 4.616s-1.847-2.308-1.847-3.462c0-1.154-.46-4.384-.46-4.384zM88.368 125.272s-.327 2.284 2.284 2.284c2.61 0 .326-2.937-2.284-2.284zM88.204 128.862s2.774-.816 6.038-.163c3.264.65 4.895 3.1 4.895 3.1s-3.426.978-7.343 0c-3.916-.98-3.59-2.938-3.59-2.938zM90 120.703s3.916-1.142 7.67 7.343c0 0-7.18-1.795-7.67-7.343zM94.08 118.908s4.405-2.448 7.995 8.975c0 0-5.06-1.96-7.996-8.975zM99.953 129.514s4.406-1.63 10.117 5.06c-9.3-.327-10.117-5.06-10.117-5.06z" fill="#435024" stroke="#435024"/><path d="M102.9 126.405s-.216 2.573 1.51 2.573c1.728 0 .217-3.308-1.51-2.573z" fill="#435024" stroke="#435024" stroke-width=".863"/><path d="M99.723 133.088s-.17 2.247 1.178 2.247c1.348 0 .17-2.89-1.177-2.247z" fill="#435024" stroke="#435024" stroke-width=".712"/><path d="M113.18 140.03s-.215 2.573 1.51 2.573c1.728 0 .217-3.308-1.51-2.573zM117.26 132.36s-.216 2.574 1.51 2.574c1.728 0 .217-3.308-1.51-2.573z" fill="#435024" stroke="#435024" stroke-width=".863"/><path d="M106.48 127.883s6.2-1.632 8.812 6.2c-7.506-1.142-8.812-6.2-8.812-6.2zM100.932 136.53s7.017-1.794 10.28.654c3.264 2.447-6.2 3.427-10.28-.653zM113.17 136.694s4.733-2.284 9.955 2.774c-9.79 1.306-9.954-2.774-9.954-2.774zM121.166 133.594s4.733-1.47 9.302 7.18c-10.28-1.47-9.302-7.18-9.302-7.18zM129.325 143.058s-5.22 3.59-11.748-.163c0 0 2.12-4.406 11.748.163zM191.895 108.992s.462 3.923-1.154 5.77c-1.614 1.845-5.537 3.922-6.922 4.153-1.384.23 1.616-5.077 1.616-5.077s4.384-5.54 6.46-4.846zM191.203 118.915s-.462 3.692-3 4.153c-2.54.462-4.846.23-4.846.23s0-4.153 7.846-4.383zM182.895 111.3s-2.538.922-2.538 3.23.23 4.615.23 4.615 1.847-2.307 1.847-3.46c0-1.155.46-4.386.46-4.386zM183.835 125.19s.326 2.284-2.285 2.284c-2.61 0-.326-2.937 2.285-2.285zM183.998 128.78s-2.774-.817-6.038-.164c-3.263.653-4.895 3.1-4.895 3.1s3.427.98 7.343 0 3.59-2.937 3.59-2.937zM182.203 120.62s-3.917-1.142-7.67 7.343c0 0 7.18-1.795 7.67-7.343zM178.123 118.825s-4.406-2.447-7.995 8.975c0 0 5.058-1.958 7.995-8.975zM172.25 129.432s-4.407-1.632-10.118 5.06c9.3-.328 10.117-5.06 10.117-5.06z" fill="#435024" stroke="#435024"/><path d="M169.302 126.322s.216 2.573-1.51 2.573c-1.728 0-.217-3.308 1.51-2.573z" fill="#435024" stroke="#435024" stroke-width=".863"/><path d="M172.48 133.005s.168 2.248-1.18 2.248c-1.346 0-.167-2.89 1.18-2.248z" fill="#435024" stroke="#435024" stroke-width=".712"/><path d="M159.022 139.948s.215 2.572-1.51 2.572c-1.728 0-.217-3.307 1.51-2.572zM154.942 132.278s.216 2.573-1.51 2.573c-1.728 0-.217-3.307 1.51-2.572z" fill="#435024" stroke="#435024" stroke-width=".863"/><path d="M165.722 127.8s-6.2-1.632-8.812 6.2c7.506-1.14 8.812-6.2 8.812-6.2zM171.27 136.45s-7.017-1.796-10.28.65c-3.264 2.45 6.2 3.428 10.28-.65zM159.03 136.612s-4.73-2.285-9.952 2.774c9.79 1.305 9.953-2.774 9.953-2.774zM151.036 133.51s-4.733-1.467-9.302 7.18c10.28-1.467 9.302-7.18 9.302-7.18zM142.877 142.976s5.22 3.59 11.75-.163c0 0-2.123-4.406-11.75.163zM135.115 145.074s-3.577 4.846-3.577 4.385c0-.463-2.54-2.54-2.54-2.54l4.386-3.23-1.73-.808.922-1.04 3.23 1.386" fill="#435024" stroke="#435024"/><path d="M136.095 145.06s3.577 4.845 3.577 4.383c0-.46 2.54-2.538 2.54-2.538l-4.386-3.23 1.73-.81-.922-1.037-3.23 1.384M134.884 145.305h1.5" fill="#435024" stroke="#435024"/><path d="M70.153 68.228s1.846 4.846 3.923 4.846 7.616.462 7.616.462 2.77-.462 3.692-3c.923-2.54 3.46-13.154 16.154-6.693 12.692 6.462 13.384-11.077 13.384-11.077l-2.077-3 .462-5.77s6.923 4.847 11.308 4.616c4.384-.23 7.615 1.385 9 1.385 1.384 0 5.77 1.385 5.77 1.385l11.307.46s1.846-1.614 3.692-1.383c1.846.23 1.846-1.155 5.308-1.155 3.46 0 6.923-4.385 6.923-4.385s.923-.923 6 0c0 0 3.46-2.77 8.538-4.384 5.077-1.616 4.385-3.693 4.385-3.693s3.692-.692 5.307-.46c1.616.23 2.54-2.77 2.54-2.77l3.922-.462 1.615-2.307 3.923-.692s4.616-3.23 5.308-5.307c.692-2.077 6-.46 6-.46s2.308-2.078 2.54-3.232c.23-1.153 2.306-.23 2.306-.23l-.232 3.692-2.538 1.385v2.308h-3.923l-.23 2.307-3.232.23-.46 2.77-.693 1.154-.924.462h-2.307l-.922 1.384-2.308 1.616-1.615 2.077-3.23-.23-2.078 2.768-1.385-.23-2.077 3.46-1.615 2.078-.923 1.386-1.615.46-.462 1.847-2.77.693-3.692.923-1.384 1.614s-3.923 7.846.23 10.615c4.154 2.77 4.385 5.77 4.385 5.77l2.076 1.383 1.616 2.77.692 3.23s-.692.462-1.616.23c-.923-.23-2.538-.46-2.538-.46l-1.846-1.616-3.462-.23-1.846 2.076s-.923 1.385-.923 2.308c0 .924-.46.693-1.615 0-1.154-.69-3-1.845-3-1.845l-2.54-.693-.23-1.153-1.615.922s-.46 1.384-1.385.923c-.923-.462-1.846-.462-1.846-.462h-1.615s-3.692 2.77-3.23 11.77l-4.155.692-2.077 1.846-1.153 1.155h-3l-1.616 1.384-3 1.153-1.384 1.846-3.693.23-1.616 1.154-.692 1.615-2.54-1.616-3.46-.923-3 .693s-.924.23-1.847.923c-.923.693-3.46 1.154-3.46 1.154s-1.617.462-1.617 1.385-.46 2.538-.46 2.538v3.462s-.463 2.307-2.31 2.307c-1.845 0-1.383 0-2.306-.23-.924-.23-.693-2.308-.693-2.308v-2.538l-3.693-3.462-2.308-.923-2.54.232-2.307 1.384-2.077 1.385s.462 1.616-1.154.462c-1.615-1.153-2.77-1.615-2.77-1.615l-2.076-1.154-2.77-.692-2.076-2.538-5.308-.23-4.615-5.308-1.385-1.385-.23-4.154-3-.462v-2.308l-1.154-2.307.46-4.155-2.768-1.154-1.154-3.922z" fill="#d87503" stroke="#d87503"/></svg>