<svg version="1" xmlns="http://www.w3.org/2000/svg" width="1000" height="500"><path fill="#ea0437" d="M0 0h1000v500H0z"/><path d="M0 500h1000V250" fill="#4189dd"/><path d="M0 0h1000v250" fill="#12ad2b"/><path d="M230.25 369.162c-10.81 2.985-17.008 11.37-16.85 19.284l53.21-.213c.48-8.503-6.516-16.367-17.165-19.464 52.097-1.077 97.357-20.592 105.58-33.113-8.138-3.532-17.548 2.152-24.257.844 15.928-7.36 63.647-38.247 55.89-71.36-6.032 18.393-24.3 33.61-32.082 37.695 17.826-27.067 42.166-55.247 21.05-77.07 1.065 12.65-8.038 26.568-12.06 27.614 10.34-28.6 20.207-64.508-2.196-88.18 2.942 8.556 1.754 32.69-2.297 33.776-1.248-19.448-4.566-60.353-25.047-59.77 6.505 5.79 9.35 21.595 9.496 37.56-4.668-10.937-9.972-19.17-21.318-27.247-9.178-17.603-25.508-32.187-41.84-42.635 1.833 12.812 3.35 22.92 21.24 36.21-9.328-.58-18.652-18.263-28.62-18.753-7.93-.382-14.15 7.185-27.108 2.83 1.434 4.277 7.48 6.17 8.755 9.335-2.774 1.917-9.363-.3-14.84-3.15 7.535 10.262 19.21 16.296 29.12 14.26 11.787-2.267 24.425-1.07 36.478 5.79-3.08 1.58-15.06 1.57-22.75.61 6.99 7.075 11.677 11.765 23.83 11.688 10.855-.07 16.546-5.79 19.334-2.248 6.808 8.067 11.39 16.13 17.085 25.628-12.58 1.39-8.788-14.228-22.8-22.216-7.87 16.292 9.056 35.607 20.578 43.636.155 12.247 1.945 22.494 7.14 31.818 3.5 6.574 8.028 13.303 6.32 28.14-6.896-5.024-13.637-21.966-11.157-35.416-8.633 2.355-12.008 17.535-7.94 25.177 3.04 5.818 5.07 16.95 1.564 21.928-3.417 4.637-3.775 4.118-3.73 14.07.122 5.955-3.205 12.997-8.623 17.907 1.13-4.196 2.42-11.415 1.167-15.927-4.283 7.265-15.028 14.783-18.412 22.595-3.322 7.83-4.165 21.39-20.245 24.517-20.686 4.106-27.826 7.69-41.137 13.138-1.477-10.11 2.945-31.193 11.4-29.99 8.253 1.468 33.28-8.624 24.327-29.707-1.768 6.645-7.666 13.13-14.043 13.417 6.89-8.94 19.185-18.194 13.197-33.172-3.33 6.368-8.564 14.008-16.503 18.307 8.512-16.31.99-21.19-9.117-7.756-3.817 5.183-6.122 15.568-8.547 28.757-3.97-10.727-3.708-24.847-8.412-36.313-4.914-12.4 6.52-15.673 11.903-14.678 13.177 3.518 35.198 3.516 33.562-18.253-5.692 7.364-15.672 9.638-26.45 6.987 12.104-8.838 21.66-25.464 8.173-34.143-.45 9.204-7.573 19.524-17.083 24.277-2.226-7.766-2.226-16.01-.317-25.045-5.31 5.59-9.19 17.22-12.273 30.44-.232-13.07 2.24-22.485 4.073-29.515 2.78-10.27 9.687-3.587 20.262-2.83 10.183.578 24.204-5.05 21.524-18.86-3.478 5.464-10.616 7.59-17.908 7.012 8.78-5.318 24.076-14.77 15.687-29.307-3.525 5.506-4.666 10.216-14.866 11.905 2.672-6.145 3.115-14.833 11.032-18.276-14.123-2.813-22.208 6.455-26.318 20.97-1.667-10.063-3.65-13.768-4.045-21.13 7.634-8.478 8.433-25.065-8.094-28.774-.982 8.556-.69 10.595 1.19 17.56-7.76-4.607-18.693-7.15-25.973-.633 4.932 5.322 12.566 10.008 24.332 4.203-2.78 9.093-10.01 7.537-19.943 4.07 6.072 11.404 13.734 13.43 22.19 12.116 4.428 11.673 4.623 20.542-8.315 37.542.598-10.564-.153-18.434-8.546-26.976-7.192-7.044-13.038.3-1.798 15.962-6.82-5.02-14.536-15.213-16.86-25.403-2.248 12.59-.224 27.426 6.745 35.743-3.296 3.522-7.044-.374-12.588-8.99 2.097 27.575 13.862 32.896 29.673 26.75.45 15.135.45 29.15 1.35 47.433-9.22-13.262-20.907-23.154-27.428-25.627-2.022 7.42 5.622 17.084 9.893 22.48-6.52-1.35-20.683-12.14-20.683-12.14-1.424 12.29 14.465 23.68 24.73 28.775-12.064-.524-17.387-5.094-25.18-12.588.15 34.095 36.942 28.174 43.837 22.93.9 16.785 2.182 36.19 3.08 52.976-10.4-1.815-9.582-4.942-18.482-5.766-24.7-.963-44.295-29.652-50.783-50.755-1.862 3.473-.385 7.107-2.088 11.374-4.01-10.358-9.134-23.736-16.005-29.962 1.75 6.04 1.934 12.175 1.326 23.462-2.358-7.313-4.552-9.555-4.71-18.14.15-6.59 6.358-11.452 6.014-20.722-.254-6.768-6.427-21.436-7.335-32.79-2.99 11.686-4.865 24.006-9.443 31.24 2.275-12.48 1.546-21.092 5.394-29.49 4.446-8.844 8.226-16.74 5.266-25.663-2.838 3.447-1.862 6.578-8.993 14.953-1.55-9.107 9.22-23.683 19.672-29.543 7.372-3.884 16.664-17.777 10.61-27.3-6.93 4.98-10.044 11.706-19.837 23.2 6.985-27.305 25.134-34.45 46.862-34.543 4.808-.022 14.5-1.758 17.222-8.12-6.126 2.364-13.367 2.665-19.81 1.375 4.69-6.885 14.565-5.99 23.768-6.03 7.22-.035 18.49-1.014 23.045-11.295-8.806 3.815-22.54 4.61-31.188 1.907 13.753-7.127 35.294-7.894 46.342-17.245-12.593-9.398-44.104 2.19-64.007 15.84 5.563-5.087 14.355-14.11 19.206-21.395-10.886-5.22-38.415 25.28-47.9 43.4-9.006 5.086-12.61 13.06-16.107 18.625 4.8-16.218 5.307-27.987 9.312-41.342-30.877 10.63-18.043 67.68-24.76 81.327.79-15.068.15-34.426-6.053-44.408-9.51 7.255-10.28 49.96-1.35 85.51-3.224-9.513-9.31-18.395-11.262-29.974-14.076 25.67 8.25 55.957 26.92 79.88-14.055-7.32-27.95-23.066-37.08-36.267 2.52 45.948 50.5 55.495 57.95 66.787-10.11-4.706-29.44-14.02-37.64-4.26 13.35 3.082 24.002 6.645 32.584 12.27 12.452 15.548 36.032 22.347 77.098 24.065z" fill="#ffc726"/></svg>