<svg xmlns="http://www.w3.org/2000/svg" width="1200" height="600"><clipPath id="a"><path d="M0 0v150h700v150H600zm0 300v100h300V0h300z"/></clipPath><path fill="#002868" d="M0 0h1200v600H0z"/><path d="M0 0l600 300M0 300L600 0" stroke="#fff" stroke-width="60"/><path d="M0 0l600 300M0 300L600 0" stroke="#ce1126" stroke-width="40" clip-path="url(#a)"/><path d="M300 0v400M0 150h700" stroke="#fff" stroke-width="100"/><path d="M300 0v400M0 150h700" stroke="#ce1126" stroke-width="60"/><path d="M0 300h600V0h600v600H0z" fill="#68bfe5"/><g stroke-miterlimit="4.8"><path fill="#fff" d="M778.8 143.94v205.09c0 67.08 121.2 106.91 121.2 106.91s121.2-39.833 121.2-106.91V143.94z"/><path fill="#d21034" d="M883.2 216v92.344H778.8v33.6h104.4v107.6l16.8 6.396 16.8-6.396v-107.6h104.4v-33.6H916.8V216z"/><path fill="#d21034" d="M778.8 143.94h242.4v79.2H778.8z"/><g stroke-miterlimit="3"><g fill="#fff" stroke="#000" stroke-width=".805"><ellipse stroke-width=".803" cx="798.23" cy="192.212" rx="13.623" ry="10.962"/><ellipse cx="798.23" cy="186.525" rx="12.114" ry="6.123"/><ellipse cx="798.23" cy="198.769" rx="12.114" ry="6.123"/><ellipse cx="798.23" cy="192.213" rx="12.114" ry="6.123"/></g><path fill="#ffd100" stroke="#000" stroke-width="1.2" d="M1015.2 207.43l-1.985-5.476s-5.433-2.216-5.847-5.102c-.968-7.694-3.714-10.578-7.83-11.678-4.125-1.1-6.868.69-6.868.69-1.24 1.786-7.426 1.786-10.86 1.92-3.433.14-3.492-1.492-3.492-1.492-2.668.02-3.79-1.94-3.79-1.94-1.746-3.488-3.045-4.793-3.908-5.234 4.457.066 7.813-1.99 12.844-7.27 5.493-5.772 9.415-3.54 9.415-3.54-2.667 5.39.886 4.913.886 4.913 7.28-3.705.96-13.05-1.237-12.637-2.2.41-2.826-1.07-2.826-1.07.067 1.678-2.44 2.345-2.44 2.345 1.88-10.674-4.49-13.504-4.49-13.504-.963.962-1.515 2.884-1.515 2.884-1.784 6.458-7.69 5.497-14.29 2.335-6.593-3.158-24.18 3.3-29.673 5.497-5.5 2.2-15.528 5.634-24.596.55-9.063-5.087-11.268-4.124-14.838-3.16-3.574.96-9.888 2.475-12.222 1.235-2.338-1.236-5.002-1.313-5.002-1.313.636-.355-.358-1.846-.358-1.846-2.747-3.708.358-5.98.358-5.98s-5.115 1.44-3.08 10.168l.934 1.31s.685 2.745 2.2 3.57l-.054.6s1.293-.6 1.7 1.185c.418 1.784 2.34.137 3.164-1.373 0 0-1.376 7.97 8.52 9.892 0 0-1.107-1.24-.693-2.063.41-.824-1.235-1.517-1.096-2.75.136-1.232-2.47-1.782-.414-2.748 2.058-.963 3.026-2.887 7.42-.276s7.834 2.064 7.834 2.064-2.68-5.502-1.204-5.5c1.477.003 8.123 8.23 11.394 7.824 3.272-.403 9.593-4.113 12.754-2.74 0 0 .27-1.648 12.36-3.71 12.092-2.06 27.006-8.087 32.6-2.807 0 0 .653 4.182 2.986 5.283 0 0-.418 8.654-15.385 3.842l-5.43-1.428s-.835-2.63-29.305 4.693c0 0-1.675.585-2.775 1.412-1.102.82-2.614-.414-8.247 1.645-5.628 2.065-26.654 8.935-39.564 6.46l-.018.034c-2.844-.85-5.508-.41-5.616-.86-.14-.55 1.513.14 1.513.14-.96-1.1-1.375-1.19-1.375-1.19-10.855-1.19-8.936-6.094-8.936-6.094l.552 1.512c1.787-2.334-.692-7.83-.692-7.83l-.105.018c-.027-.17-.06-.337-.1-.5l.897-.62c5.222-4.397 11.27-5.222 11.27-5.222-3.576-4.394-11.135-2.058-11.135-2.058.14-5.358-2.058-11.542-2.058-11.542-7.424.825-11.68 7.006-11.68 7.006-.274-5.494-7.283-8.652-7.283-8.652 2.608 3.158.964 10.714.964 10.714l.275.138c-.434-.01-.688 0-.688 0l-.156 1.62-.256-.108s-2.608.96-5.63 7.83c0 0-.305 1.623-1.474 3.087-.01-.19.01-.36-.013-.56 0 0-3.376 4.424-11.176 0 0 0-10.597-6.287-14.322-6.054-3.725.233-6.174 1.98-5.937 3.027 0 0-8.503-.7-11.412 4.19 0 0-6.403 2.33-.93 7.57 0 0 .733 2.277 2.326 3.497 0 0-.226-4.784.933-3.378 0 0 .302.472.874.802.153.67.667 2.534 1.805 3.483l.82-.26c.124-1.192.382-2.7.647-3.333.125.017.225.032.27.035-.036.035-.07.055-.104.087l1.513 2.328 1.746-.93c.817-.12 1.863.698 1.863.698l1.98-1.63c-.013-.02-.025-.022-.037-.04 1.95.325 2.483-3.455 2.483-3.455 1.752.462 3.39-.054 4.785-.9.85 3.135 7.792 6.497 7.792 6.497l.3-.026c-.59.377-.938.66-.938.66 3.158 2.2 9.067 1.65 9.067 1.65-2.47.964-2.124 5.537-2.124 5.537-1.444.593-1.585 2.018-1.585 2.018 4.81 1.92 8.096.33 8.096.33.264 1.565-.125 1.732-.125 1.732-1.92 4.12-2.746 8.105-2.746 8.105.042.018.09.027.132.042-.06.108-.132.212-.177.324 0 0-8.385 2.91-12.11 6.986 0 0-.35-1.166-1.4-1.166-1.047 0-4.308-2.675-5.822-3.143-1.51-.463-3.725.468-4.308-.23-.527-.635-.29-5.405-1.298-6.174l.02.005-1.05-2.91c-.698 1.512-3.608 1.16-3.608 1.16-.116.07-.563.397-1.197.87-.58.03-1.25-.17-1.25-.17-.298.062-.593.9-.81 1.716-.117.087-.235.177-.353.267v-.817c-.58.465-1.745-.233-2.213-.233-.227 0-.51.667-.738 1.352-1.184.22-2.754.278-2.754.278-.466.233-.12 3.842-.12 3.842-3.373 1.865-1.745 4.657-1.745 4.657 1.864 9.083 17.35 5.007 18.515 6.174 1.162 1.167 3.843 1.396 5.24 1.396 1.395 0 3.14 3.378 5.122 3.727 1.98.35 0-2.677 9.183-4.87 9.178-2.194 12.24-5.96 12.24-5.96 2.874-.553 3.674-4.048 3.89-5.46.027.652.103 1.372.208 2.19.415 3.162-1.77 4.313-1.77 4.313l7.956-2.388c3.157-.825 2.746-3.575 2.746-3.575 3.022 8.657 8.52 9.206 8.52 9.206 1.098-3.3.963-4.262.963-4.262l2.472-.134c.1-1.864-1.545-3.226-2.497-3.86l3.87 2.348 1.508-.275c0 1.374 2.062 2.608 2.062 2.608l.278-1.782c1.787 2.335 5.083 1.51 5.083 1.51-.065-.416-.166-.846-.29-1.284 7.04 4.345 18.286-1.19 18.286-1.19 3.02.687 3.434-1.1 3.434-1.1 3.434.41 4.23-1.937 4.23-1.937 8.084-.7 13.773-6.446 13.773-6.446 3.98-.275 4.11-3.122 4.11-3.122s3.99.788 7.84-4.022c8.928-12.775 22.28-6.124 22.28-6.124l-7.72.488c-20.194-.136-11.822 13.598-11.822 13.598l1.246-.132c1.923.41 8.515 5.633 6.085 9.522-.038.068-.09.13-.135.193-4.117 5.635-11.742.26-13.915-4.496-2.2-4.807-6.6-3.707-6.6-3.707s-11.4 1.924-6.73 10.99l.17.006c.087 2.213 1.476 4.734 5.543 7.24 2.284 3.23 9.794 3.568 15.31 2.373 2.566-.56 16.112-6.384 16.112-6.384.993-2.95 4.36-2.27 7.38-6.53s-4.26-5.77-5.907-8.104c-1.65-2.34.414-1.925.414-1.925 6.592 3.573 7.14-7.832 7.14-7.832.69 6.594 6.46 8.38 6.46 8.38 3.573-3.567.966-10.85.966-10.85 8.52 15.25 13.678 12.82 13.678 12.82-4.587-2.84-2.278-6.64-2.278-6.64 4.117 16.212 21.022 2.063 21.022 2.063-.824 2.332.004 3.705 1.513 5.217 1.51 1.512 3.297 2.2 2.476 4.948-.828 2.747-8.654 2.2-8.654 2.2s-7.698-.41-7.007 6.046c.402 1.51 5.49 2.058 7.413 1.648 0 0-.794.173 2.05.553.953.122 2.104.143 3.275.104 3.28-.1 6.77-.658 6.77-.658 4.39-.96 3.707-2.476 3.707-2.476 6.726-1.24 7.418-5.775 7.418-5.775z"/><path d="M791.954 179.295c.005-.007.36-.848 1.04-.95.522-.077 1.157.31 1.828 1.125l.367-.276c-.016-.027-1.814-2.646-1.098-4.495.32-.825 1.114-1.39 2.357-1.67l-.102-.453c-1.402.322-2.305.98-2.685 1.958-.142.364-.202.75-.202 1.136 0 .905.32 1.82.646 2.523-.407-.255-.803-.36-1.184-.303-.69.104-1.026.6-1.208.925zM1004 215.28c-4.59.728-11.328 1.132-11.864-.257-.094-.247-.11-1.238 3.648-3.685l-.438-.673c-3.136 2.042-4.398 3.518-3.96 4.646.962 2.5 10.8 1.073 12.763.76zM916.2 217.93c-1.046-1.6-.576-3.793 1.398-6.523l-.65-.47c-2.194 3.02-2.672 5.524-1.422 7.435z"/><path d="M910 211.02c.1 2.768 2.056 5.34 5.8 7.632l.42-.686c-3.504-2.144-5.322-4.49-5.417-6.974-.138-3.812 3.89-6.752 3.93-6.783l-.47-.655c-.182.128-4.42 3.216-4.263 7.465zM988.29 212.05c-1.26 1.86-.838 4.11-.82 4.205l.788-.155c-.007-.022-.372-2.026.703-3.604.646-.95 1.687-1.564 3.098-1.832l-.145-.79c-1.635.31-2.85 1.04-3.623 2.176zM808.92 176.89l-.248-.062-.034.255c-.007.025-.358 2.464-1.464 3.127-.31.185-.643.206-1.028.065l-1.878-1.142c-.375-.33-.696-.573-1.238-.414-.108-.14-.538-.725-.538-1.663 0-.105.007-.216.022-.33.134-1.1.902-2.16 2.29-3.15l-.264-.376c-1.505 1.076-2.338 2.244-2.484 3.48-.168 1.434.66 2.407.697 2.45l.112.128.152-.07c.418-.185.54-.076.946.284l2.027 1.233c.514.19.99.155 1.422-.102 1.144-.685 1.545-2.68 1.64-3.235 4.876 1.048 8.8-4.88 8.97-5.135l-.39-.252c-.034.063-4.04 6.135-8.712 4.91z"/><path d="M797.23 175.98c-.244.988-.077 1.957.487 2.882.54.878 1.07 1.344 1.623 1.418.674.093 1.213-.407 1.688-.845.346-.324.674-.625.944-.605l.42.29.36-.288-.747-.46c-.472-.035-.868.332-1.29.726-.42.386-.853.793-1.314.73-.4-.056-.83-.463-1.29-1.207-.496-.814-.646-1.668-.435-2.53.526-2.175 3.127-3.774 3.155-3.79l-.236-.392c-.117.068-2.792 1.71-3.364 4.072zM790.52 207.04c.233-.84.88-1.558 1.92-2.135-.206.02 1.018 1.015 2.068.904 0 0 .426-.23.68-.37.28.24 2.098 1.895 2.098 3.992 0 .44-.08.894-.28 1.353l.427.18c1.33-3.15-2.015-5.945-2.046-5.975l-.122-.096-.207.134-.596.324c-.86.09-1.98-.82-1.987-.827-1.41.615-2.133 1.43-2.4 2.4zM806.05 199c-1.004.085-3.802.62-4.715 2.07-.33.528-.38 1.108-.14 1.734l.368.977c.87 2.344 1.776 4.766 2.763 5.313l.223-.4c-.84-.465-1.75-2.913-2.557-5.072l-.365-.976c-.187-.494-.156-.928.095-1.328.75-1.19 3.265-1.765 4.365-1.856.64-.052.85 2.313.977 3.727l.457-.042c-.183-2.083-.376-4.236-1.472-4.145z"/><path d="M798.38 201.3c-.588.526-.47 1.318-.462 1.352.005.218.266 6.068 3.044 7.277l.183-.422c-2.514-1.096-2.767-6.845-2.77-6.9-.002-.036-.084-.617.316-.967.422-.374 1.26-.402 2.42-.083l.124-.442c-1.34-.37-2.3-.308-2.854.185z"/><path d="M796.18 201.78c-1.23.856-1.178 3.298-1.177 3.4l.46-.008c0-.026-.046-2.303.98-3.015.383-.264.887-.275 1.5-.027l.17-.425c-.764-.312-1.417-.287-1.933.075z"/><g><path d="M862.33 169.49c.022.038 1.31 2.945 1.31 5.305 0 .42-.198.717-.29 1.08-.053-.134-.502-1.365-.502-1.365l-.388.987c-.018.055-.526 1.384.38 2.883 1.2 1.977 4.188 3.243 8.885 3.758h-.002c0 .004.06.055.066.065-.196.026-.342.08-.386.122l-.19.16.026.4c.122.488.678.512 1.784.554.187.01.49.054.705.065.274.077.556.153.556.153l-.094-.108c1.07.074 2.274.338 3.58.826-.288.076-.994.252-.994.252l1.162.458c.088.035 8.648 3.474 12.19 6.303-1.005.87-5.298 4.08-12.735 2.246l-1.246-.306.844.965c.052.058 4.896 5.614 5.9 8.983-1.687.017-8.185-.042-10.455-1.97l-.59.534c.032.05 3.116 4.576 3.805 8.105-.884.116-3 .203-4.252-1.433l-.577-.75-.313 2.036c-.605-.456-1.367-1.137-1.367-1.867v-.48l-1.833.333-3.765-2.283c-.324-.21-.535-.33-.605-.365-.004-.004-.035-.022-.035-.022l-.027-.016-.39.706s.45.267.578.348c.806.525 2.186 1.67 2.325 3.188-.595.035-2.448.136-2.448.136l.046.426v.067c0 .253-.078 1.305-.847 3.68-1.158-.276-5.37-1.744-7.858-8.874l-.775.192c.004.02.013.114.013.265 0 .65-.23 2.28-2.465 2.86-.013.004-4.15 1.248-6.452 1.937.43-.616.824-1.46.824-2.685 0-.26-.017-.54-.05-.837-.14-1.036-.225-1.9-.225-2.62 0-1.5.37-2.394 1.406-3.03l-.36-.716c-.098.038-9.62 3.82-14.34 2.25.216-.922 1.016-4.162 2.628-7.616l-.208.198c.31-.132.625-.615.364-2.166l-.086-.528-.484.233c-.03.015-3.052 1.363-7.417-.236.09-.358.32-1 1.235-1.38l.268-.108-.026-.293c0-.01-.01-.213-.01-.53 0-1.18.184-3.94 1.88-4.603l-.18-.777c-.055.007-5.16.415-8.257-1.307.812-.56 2.52-1.592 4.505-1.878l.318-.045.022-.318c.004-.017.01-.11.01-.26 0-.404-.155-1.22-.51-2.042 1.178.33 2.59.626 3.09.25l.172-.128-.147-3.1-.803.04.123 2.562c-.504.027-1.788-.23-3.035-.626l-1.234-.392.795 1.024c.645.83.727 1.858.737 2.33-2.79.52-4.976 2.252-5.07 2.33l-.41.338.435.303c2.4 1.67 6.153 1.816 8.08 1.774-1.136 1.28-1.328 3.42-1.328 4.492 0 .22.007.278.01.386-1.362.736-1.567 2.118-1.576 2.182l-.03.3.283.116c4.125 1.644 6.94.85 7.897.497.007.128.035.302.035.393 0 .378-.07.494-.07.494-2.026 4.248-2.875 8.286-2.885 8.324l-.066.334.313.124c3.828 1.53 10.705-.56 13.75-1.634-.4.69-.632 1.464-.632 2.43 0 .808.098 1.717.233 2.73.035.257.05.494.05.724 0 2.28-1.54 3.142-1.615 3.18l.306.74 7.954-2.388c1.84-.478 2.53-1.565 2.824-2.49 3.14 7.445 8.066 8.116 8.285 8.14l.32.028.1-.302c.766-2.287.943-3.45.978-4.01.532-.023 2.463-.13 2.463-.13l.02-.362c.004-.063.004-.123.004-.182 0-.658-.205-1.24-.49-1.764.498.3 1.377.834 1.377.834l1.318-.24c.344 1.33 1.923 2.374 2.127 2.5l.51.306s.19-1.212.268-1.74c1.965 1.758 4.753 1.235 4.885 1.202l.352-.09-.052-.357c-.4-2.687-2.204-5.885-3.265-7.595 3.49 1.587 9.85 1.47 10.163 1.46l.475-.015-.093-.465c-.564-2.825-4.094-7.272-5.57-9.04 8.2 1.54 12.606-2.714 12.795-2.907l.288-.306-.317-.278c-2.757-2.402-9.112-5.19-11.665-6.257l.894-.226-.883-.493c-2.135-1.2-4.398-1.35-5.928-1.415l-.007-.012c-.972-1.11-1.465-1.29-1.59-1.316-5.546-.612-7.58-2.166-8.317-3.366-.062-.1-.03-.166-.077-.262.12-.16.244-.318.244-.318.535-.697.726-1.63.726-2.617 0-2.546-1.294-5.456-1.367-5.624l-.74.334z"/><path d="M836.8 167.86c-.017.08-.608 3.12-3.196 4.543-1.947 1.07-4.52.982-7.64-.266l-.35-.14.037.376c.01.078.214 1.864 1.898 3.172 1.402 1.092 3.408 1.475 5.922 1.2-.84.998-3.544 4.452-3.544 7.802 0 .177.01.354.028.528.344.247 4.58 1.395 6.544-1.116.07 1.076.38 4.52 1.724 5.868.737.734.91 1.805.91 2.66 0 .772-.146 1.368-.146 1.38l-.152.613.51-.37c.164-.12 4.058-2.972 5.303-6.708-.004.01.623-.937 1.825-1.325-.025.163-.046.33-.046.563 0 1.444.633 4.064 4.836 5.67l.345.133-.03-.367c-.005-.008-.03-.296-.03-.726 0-1.055.147-2.993 1.152-3.997.66-.66.858-1.404.858-2.05 0-.506-.112-.917-.226-1.22.85.216 2.855.863 3.672 2.39 1.186 2.224 5.338.455 5.516.38l-.143-.436c-.017.004-1.746.39-2.837-.358-.48-.33-.768-.838-.87-1.512l-.19-2.31c-.043-1.046-.188-1.71-.714-2.27.55-.05 1.652-.03 2.118 1 .734 1.617 3.25 1.774 3.356 1.783l.86.046-.722-.468c-.024-.014-2.198-1.456-1.822-3.336l.313-1.376c.594-2.48 1.584-6.632.778-9.18l-.438.14c.2.635.282 1.39.282 2.195 0 2.26-.64 4.945-1.072 6.74l-.316 1.394c-.04.18-.052.364-.052.538 0 1.217.79 2.146 1.405 2.705-.74-.16-1.766-.512-2.15-1.37-.606-1.326-2.23-1.387-3.005-1.23l-.542.11.462.306c.73.487.75 1.054.802 2.293l.195 2.358c.114.804.472 1.42 1.06 1.824.514.35 1.116.4 1.665.44-1.233.32-2.924.522-3.53-.62-1.146-2.132-4.293-2.702-4.425-2.727l-.48-.082.24.42c.026.047.358.653.358 1.423 0 .547-.167 1.172-.733 1.736-1.116 1.126-1.287 3.167-1.287 4.296 0 .22.01.252.015.387-3.595-1.512-4.23-3.75-4.23-5.017 0-.54.103-.898.117-.945l.105-.354-.365.062c-1.746.288-2.472 1.71-2.503 1.77-1 2.99-3.71 5.36-4.69 6.148.03-.25.065-.54.065-.895 0-.936-.202-2.127-1.05-2.977-1.43-1.43-1.624-5.973-1.624-6.02l-.03-.82-.4.713c-1.582 2.833-6.2 1.472-6.245 1.46-.195-3.58 3.866-8.16 3.908-8.206l.426-.472-.626.092c-2.652.384-4.712.03-6.123-1.06-1.105-.857-1.502-1.948-1.644-2.5 3.076 1.147 5.656 1.21 7.642.114 2.774-1.534 3.383-4.675 3.407-4.807 2.913-6.606 5.458-7.65 5.486-7.656l-.16-.43c-.115.04-2.74 1.073-5.768 7.95z"/><path d="M843.45 158.07l-.194.007-2.364 3.24.702.07c12.83 1.248 19.613 8.988 19.68 9.068l.295.344 2.325-2.528-.17-.26c-6.506-10.244-20.136-9.947-20.275-9.942zm.22.804c1.585.004 13.27.365 19.19 9.33-.29.314-.936 1.02-1.28 1.398-1.388-1.438-7.963-7.582-19.238-8.906.437-.602 1.164-1.6 1.328-1.822z"/><path d="M841.6 164.84c-1.096 1.495-2.114 3.707-2.114 4.742 0 .198.038.354.122.453.007.01.046.013.06.03-1.337 1.196-2.132 3.195-2.132 5.455 0 1.243.22 2.538.68 3.773l.258.695c1.26 3.424 2.344 6.384 7.788 4.64 5.244-1.674 5.45-2.01 6.77-4.188l.345-.564c.72-1.17 1.506-1.404 2.343-1.652 1-.3 2.034-.608 2.942-2.4l.883-1.324c.953-1.313 2.142-2.94 2.285-5.023l-.46-.03c-.132 1.95-1.28 3.517-2.197 4.78l-.922 1.387c-.82 1.616-1.714 1.884-2.663 2.167-.883.264-1.79.535-2.604 1.854l-.348.566c-1.27 2.096-1.43 2.366-6.512 3.994-5.027 1.606-5.946-.9-7.218-4.364l-.257-.702c-1.433-3.818-.313-7.67 1.55-9.05l.64-.474s-.793.09-.887.1c-.01-.038-.02-.07-.02-.13 0-.625.682-2.612 2.038-4.465 1.158-1.58 3.89-3.143 3.92-3.158l-.23-.4c-.115.07-2.845 1.63-4.058 3.288z"/><path d="M839.16 178.65c.9.624 2.166.58 3.692 0 .007.544.13 1.7 1.078 2.538 1.116.988 2.965 1.178 5.5.574l-.108-.446c-2.375.567-4.09.407-5.087-.47-1.072-.944-.922-2.45-.918-2.462l.042-.394-.366.155c-1.537.662-2.74.702-3.575.125-1.496-1.04-1.384-3.755-1.38-3.786l-.46-.022c-.002.124-.128 3.002 1.58 4.188z"/><path d="M842.07 174.99c-.656.156-.827.706-.827 1.13 0 .102.01.197.024.28.115 1.18 1.398 1.968 2.563 2.305 1.133.328 2.528.35 3.077-.356.22-.283.38-.79-.1-1.612-1.75-2.976-4.58-1.81-4.737-1.748zm1.888 3.27c-1.02-.29-2.142-.952-2.232-1.932-.022-.094-.132-.752.448-.89l.046-.015c.104-.047 2.61-1.136 4.19 1.55.28.48.327.845.132 1.093-.338.44-1.454.526-2.584.195zm-1.934-3.253c.004-.004.046-.018.046-.018l-.046.017zM843.65 180.98c-.295 2.514-.115 2.574.066 2.63l.16.05.18-.212 1.456-1.92-1.828-.866-.034.318zm.42.376c.262.122.502.236.738.348-.198.253-.566.744-.845 1.11.007-.378.053-.912.108-1.458zM839.86 178.96l-.097 2.376 1.995-2.413-1.887-.21-.01.247zm.45.266l.55.06-.584.706c.02-.37.027-.575.033-.766z"/><path d="M838.53 178.2c.017.03 1.484 2.9 1.745 3.947.167.665 1.015 1.422 2.027 1.797 1.008.38 1.953.318 2.66-.174l1.324-1.1c.44-.426.588-.545.945-.484l.078-.453c-.6-.1-.894.18-1.34.603l-1.27 1.058c-.78.546-1.738.313-2.238.12-.946-.35-1.63-1.028-1.742-1.48-.275-1.094-1.72-3.92-1.78-4.04l-.408.206zM840.44 169.6c-1.62.748-2.305 2.713-2.333 2.796l.435.15c.007-.018.654-1.868 2.092-2.53.702-.32 1.488-.31 2.344.026l.17-.425c-.973-.393-1.884-.396-2.708-.017zM851.33 174.76c.128.096 3.188 2.414 1.43 5.243l.39.243c1.984-3.188-1.514-5.83-1.545-5.858l-.275.372zM842.13 175.21s-.476 1.73 1.957 2.34c0 0-2.288-.02-2.433-.61-.154-.59.013-1.9.476-1.73zM849.57 177.28c0 .15-.122.274-.27.274-.148 0-.272-.124-.272-.274 0-.148.124-.27.27-.27.15 0 .272.122.272.27zM849.84 178.36c0 .15-.122.275-.27.275s-.27-.125-.27-.275c0-.146.12-.27.27-.27s.27.125.27.27z"/><circle cx="848.01" cy="177.825" r=".27"/><path d="M848.75 179.45c0 .146-.122.268-.27.268-.148 0-.27-.122-.27-.268 0-.15.124-.275.27-.275.148 0 .27.123.27.275zM841.65 172.13c0 .15-.12.272-.275.272-.146 0-.27-.123-.27-.272 0-.146.124-.27.27-.27.154 0 .275.124.275.27z"/><circle cx="841.65" cy="173.22" r=".27"/><circle cx="840.09" cy="172.68" r=".27"/><path d="M840.83 174.3c0 .146-.125.27-.275.27-.146 0-.267-.124-.267-.27 0-.15.122-.275.267-.275.15 0 .275.124.275.275zM845.57 164.75s3.518 2.165.132 6.228c0 0 1.666-1.237 1.836-3.362.178-2.123-1.207-3.816-1.968-2.866zM859.07 170.59c-1.133.582-2.764-.496-3.58-1.514-.814-1.02-2.5-1.28-3.55.58-1.048 1.864-2.56 2.562-2.56 2.562s1.477-.872 2.998-2.503c1.512-1.627 2.385-.32 3.87.466s1.717.96 2.763.553l.06-.143z"/><path d="M858.78 170.86c-.463.348-1.312.64-2.212-.09-.9-.727-1.658-1.715-2.792-1.134-1.138.584-3.293 2.212-3.293 2.212s3.495-2.417 4.165-1.892c.668.526 2.243 1.805 3.202 1.43.96-.383.93-.526.93-.526z"/><path d="M856.1 172.34c-1.105-.844-2.212.99-3.143.76-.93-.237-1.69-1.78-1.69-1.78s.877 1.632 2.097 1.253c1.224-.377 2.07-1.135 2.824-.555.757.585-.088.322-.088.322z"/><path d="M854.37 172.57c-2.183.226-2.4-1.813-2.4-1.834 0 0 .69 1.78 2.62 1.457l-.22.377z"/><path d="M854.3 171.18c.143.552.112.803-.473.803-.588 0-.987-.196-.987-.766 0-.57 1.374-.392 1.46-.037zM846.46 168.15c0 .38-.313.685-.7.685s-.462-.26-.462-.636.076-.73.462-.73.7.306.7.68z"/><path d="M844.05 165.71s3.74.04 1.888 4.72c0 0 1.425-2.33.53-4.006-.896-1.674-2.304-1.252-2.304-1.252s-.343.317-.114.538z"/><path d="M843.94 167.58c-.01.938.616 1.907 1.856 2.876l.286-.36c-1.123-.876-1.69-1.72-1.682-2.506.007-.786.612-1.253.62-1.26l-.276-.37c-.032.026-.79.604-.804 1.62z"/><path d="M844.77 168.37c.16.54.577.946 1.244 1.212l.17-.425c-.527-.21-.855-.518-.972-.913-.237-.796.403-1.724.41-1.732l-.372-.267c-.036.048-.78 1.12-.48 2.125zM849.9 170.97s.696 1.512-.32 3.143c-1.02 1.63-.992 1.544-.992 1.544s1.224-2.24.76-3.175c-.463-.93.552-1.512.552-1.512zM864.45 186.76c3.842.724 12.51 7.52 12.6 7.59l.498-.636c-.365-.282-8.915-6.985-12.948-7.744l-.15.79zM867.86 196.35c.257 3.41 3.967 5.528 4.127 5.614l.392-.7c-.04-.018-3.492-1.996-3.72-4.975l-.8.06zM858.65 197.06c0 3.824 3.584 8.45 3.738 8.647l.632-.497c-.034-.043-3.567-4.602-3.567-8.15h-.803zM846.5 197.49c.632 1.262.566 1.902.403 2.215-.19.353-.58.407-.594.41l.093.8c.295-.034.887-.24 1.2-.815.383-.7.253-1.7-.383-2.964l-.72.354z"/></g><g fill="#fff" stroke="#000" stroke-width=".36"><path d="M791.86 178.63s.233 2.56 2.212 4.08c0 0-.233-2.8.35-3.96 0-.002-1.046-1.166-2.562-.12zM795.81 180.26s.468 2.326 1.865 3.376l.82-.233s.347-2.914.813-3.262c.466-.346-1.98 1.05-3.498.12z"/><path d="M799.31 180.14l1.513 2.33 1.745-.932-.348-2.792s-1.046-.237-2.91 1.394z"/><path d="M806.41 180.61l-1.98 1.63s-1.046-.816-1.864-.7l.352-2.56s1.397-1.048 3.492 1.63zM792.32 204.71s-.348-3.61.12-3.842c0 0 1.393.465 1.976-.12 0 0 .816 2.914.582 4.078-.23 1.163-1.628.7-2.678-.116zM801.29 200.98s-.115-3.028.466-3.38c0 0 2.91.35 3.608-1.16l1.05 2.91s-3.262-.35-5.124 1.63z"/><path stroke-width=".35" d="M798.15 201.56s.58-3.143 1.165-3.26c0 0 1.513.465 1.98-.12l-.116 3.847s.114-1.632-3.03-.467zM794.77 202.03s.698-2.795 1.165-2.795c.468 0 1.632.7 2.213.233v2.096s-2.566-.58-2.91 2.91l-.468-2.444z"/></g></g><g fill="#00a651" stroke="#000" stroke-width=".78"><path d="M840.16 260s7.914 7.35 5.845 13.758c0 0 5.087-10.932-.375-14.137-5.47-3.202-5.657-.747-5.47.38z"/><path fill="#964b36" d="M830.17 267.15s-2.07 2.833.188 4.906c0 0-2.448 3.574-.56 6.595 0 0-1.51 3.204-1.133 6.597 0 0-1.32 5.275 1.505 7.73 0 0 3.018 1.508 4.34.188 0 0 2.636-3.957.938-8.11 0 0 1.885-3.39-.188-7.724 0 0 .567-2.45-1.13-5.273 0 0 1.13-1.888.186-3.394 0 0-3.767-3.96-4.146-1.513z"/><path d="M832.43 257.92s-9.422-18.09-16.02-18.848c-6.598-.755-6.972-7.16-6.972-7.16s.752 3.015 6.03 3.015c5.28 0 15.457 7.35 16.586 13.003 1.13 5.653 2.263 4.902 2.263 4.902l-1.887 5.088z"/><path d="M832.43 256.6s3.394-22.805 18.286-23.184c14.885-.38 9.99 1.13 13.567-1.32 0 0-9.985 5.28-16.208 6.03-6.217.755-11.308 12.813-11.12 15.08.188 2.26-3.39 6.597-5.087 5.09-1.697-1.508.563-1.696.563-1.696z"/><path d="M835.82 265.09s3.39-9.047 9.235-6.03c0 0-4.526-8.672-12.63-1.133 0 0 3.583 4.9 3.395 7.163zM824.51 256.03s4.902 20.17-2.64 26.387c0 0 .188-10.36-4.334-16.582-4.52-6.223 4.522-13.003 6.974-9.805z"/><path d="M825.08 259.62s8.86 8.484 9.427 11.31c.567 2.827 2.637-8.48-1.508-11.682-4.148-3.21-8.67-3.773-8.67-3.773l.75 4.145z"/><path fill="#964b36" d="M808.74 281.85s.803 3.56 2.988 4.25c0 0 .113 2.645 2.068 3.448 0 0-1.037 2.184.69 3.56 0 0-.347 4.367 1.263 5.29 0 0 3.91-.23 5.284-1.38 0 0 .806-2.87-1.374-5.748 0 0 .34-2.758-1.843-4.25 0 0 .69-3.68-2.07-5.057 0 0-.456-2.99-2.183-4.482 0 0-3.33 4.71-4.824 4.37z"/><path d="M813.1 277.48s-11.606-4.252-18.042 1.84c0 0 9.88 1.38 11.147 3.333 1.264 1.95 7.352-3.216 6.895-5.173z"/><path d="M809.54 284.72s-.918-.803-2.066-1.61c-1.15-.802-10.916-3.446-12.3 5.977 0 0-3.563-9.307 1.61-10.573 5.174-1.266 9.31 1.724 12.756 6.206M801.9 265.46s3.577 7.726 4.9 8.108c1.318.372 2.26-.942 2.26-.942s-4.71-6.974-7.16-7.166zM799.26 253.59s-3.018-9.988-6.596-7.35c-3.58 2.64-2.64 9.798-2.64 9.798s-7.162-7.346-3.017-13.192c4.152-5.842 12.253.566 12.253 10.744z"/><path fill="#964b36" d="M807.37 274.13s0 1.885 1.32 2.448c1.32.566 3.77 1.505 3.77.38 0-1.13-1.884-5.467-2.642-4.9-.755.567-2.07.56-2.448 2.072z"/><path d="M805.11 262.45s-.377-8.668 5.274-11.876c0 0 1.134.194 1.7-1.5 0 0-4.528 10.926-3.207 16.392l-.187.755"/><path d="M806.24 251.89s10.177-21.112 22.618-13.762c0 0-13.004 2.64-17.714 11.876l-4.715 6.967-.19-5.08z"/><path d="M800.77 259.62s-3.017-14.134-4.9-16.016c-1.887-1.886-5.09-3.96-8.862-.756 0 0 6.6-5.845 13.572-.942 6.97 4.9 5.464 12.628 5.464 12.628l-.75 9.802L800.58 260"/><path d="M811.7 276.39s-12.44-23.552-20.542-6.78c0 0-1.512 4.332.184 6.025 0 0-4.524-3.39-2.45-11.682 2.07-8.29 15.828-4.524 19.79 2.263 3.957 6.784 5.09 10.18 4.524 10.552-.567.38-1.507-.378-1.507-.378zM846.76 283.18s9.05-18.66 14.324-10.18c0 0 1.506 4.145-.757 5.845 0 0-3.577-4.335-6.78.942-3.205 5.275-1.885 4.902-1.885 4.902s-3.394.94-4.902-1.51z"/><path d="M860.32 278.84s4.9 2.635 3.21 7.913c0 0 6.59-12.625-2.453-13.758 0 0 1.698 3.96-.757 5.845zM860.89 266.03s11.876 3.39 12.252 8.484c0 0 2.076-9.805-4.71-12.82 0 0-8.108 1.322-7.542 4.336z"/><path d="M866.17 250.38c5.09-9.99 11.498 3.204 11.498 3.204s2.26-10.364-4.145-12.252c-6.41-1.884-10.556 22.05-10.556 22.05l-7.54 1.697s2.074-20.918 13.38-22.806l1.32.19"/><path d="M857.12 256.41s-7.16-14.7-12.06-16.206c-4.903-1.508 2.64-3.77 5.656-.944 3.01 2.824 8.665 6.408 8.1 13.948l-1.696 3.202zM849.77 276.58s2.072-9.985 7.726-13.003c5.653-3.018 10.932-1.884 10.932-1.884s-6.788 1.505-7.914 4.902c-1.133 3.39-3.018 3.577-3.018 3.577l-7.726 6.408z"/><path fill="#964b36" d="M846.76 283.18s-3.203 6.032-2.452 6.972c0 0-3.39 4.9-2.072 7.35 0 0 3.394 2.64 4.902 1.506 0 0 3.953-5.462 2.824-8.48 0 0 2.638-3.578 1.7-5.838 0 0-3.956.187-4.902-1.51z"/><g fill="#000" stroke="none"><path d="M830.18 272.41c.212.108 2.116 1.032 3.396.605l.916-.783-.72-.357c-.47.93-2.542.163-3.234-.18l-.358.715zM829.87 278.26l-.156.79c.162.03 3.986.77 5.81-.85l-.535-.598c-1.525 1.353-5.082.67-5.12.658zM828.9 284.92l-.472.65c.046.035 4.49 3.2 7.334-.256l-.623-.512c-2.363 2.868-6.082.233-6.24.118zM811.64 285.88l.167.43c.16-.065 3.925-1.577 4.164-4.33l-.456-.043c-.215 2.472-3.838 3.93-3.874 3.943zM813.77 289.32l.032.458c.147-.01 3.623-.27 4.23-2.7l-.448-.116c-.524 2.107-3.78 2.354-3.814 2.358zM814.49 292.88l-.025.462c.167.007 4.06.21 5.382-1.948l-.393-.243c-1.18 1.928-4.926 1.734-4.964 1.73zM844.02 290.44c.07.073 1.748 1.732 3.71 1.658.96-.034 1.81-.476 2.53-1.303l-.608-.528c-.567.653-1.224 1-1.948 1.03-1.606.057-3.104-1.41-3.12-1.427l-.564.57z"/></g></g><g fill="#964b36" stroke="#000" stroke-width=".42"><path d="M961.06 304.22c-.21.08-.418.205-.608.403l.608-.403zM974.92 300.75c-.134-.344-.222-.2-.4-.352-.253-.208-.4-.876-.622-1.125-.132-.153-.285-.004-.428-.042-.324-.712-.705-1.463-1.046-2.15.053-.08.086-.175.094-.32 0-.03-.16-.578-.17-.602-.098-.153-.252-.063-.345-.3-.105-.236-.025-.7-.063-.98-.027-.232-.118-.36-.104-.688.014-.285.167-.616.15-.866-.008-.156-.192-.507-.247-.64-.224-.538-.412-1.046-.44-1.71-.027-.602.094-.97.14-1.492.055-.625-.276-.93-.276-1.506.004-.442.19-.938.244-1.334.073-.543.08-1.33.033-1.884-.04-.532-.19-.852-.107-1.45.022-.146.09-.264.108-.47-.003-.146-.003-.287-.003-.43v-.858c0-.278.028-.592.004-.863-.023-.225-.155-.458-.155-.636 0-.305.195-.45.153-.865-.027-.3-.07-.37-.138-.63-.132-.492-.042-.99-.123-1.518-.038-.253-.12-.334-.143-.623-.033-.34.07-.458.105-.7.034-.24.07-.555.037-.81-.038-.306-.183-.522-.143-.855l-.11 3.78c-.095-3.3-.227-6.354-.227-6.354l-5.018-2.357s-.426 9.213-.318 10.495c.1 1.287.532 10.076.317 11.147-.217 1.072-.745 6.43-.745 6.43s-2.454 1.713-3.414 3.64c-.963 1.93-.747 2.572-1.07 2.572l2.384-.372-1.776 1.186c.366-.138.75-.108 1.106.17.04.035.306.262.34.262.093 0 .223-.24.337-.28.37-.126.682.567 1.033.514.188-.028.445-.226.6-.427.126-.17.175-.47.308-.584.124-.104.422.017.55.017.35 0 .706.01 1.057 0 .467-.013.845-.67 1.275-1.043.4-.337.696-.456 1.125-.43.47.034.893.472 1.37.5.36.018.612.062.904-.317.202-.264.345-.656.536-.93l1.186-.185c.235.098.475.206.676.198.303-.014.616-.05.916-.004.114.014.34.28.433.215.064-.05.172-.41.237-.518-.027-.145-.07-.506-.124-.628z"/><path d="M964.77 304.05c.302 0 .58-.07.834.152.042.08.08.158.12.233.082.057.17.067.25.035.17.115.205.18.392.223.174.037.365-.007.54-.004.218.006.325.082.53.166.358.146.594.007.904-.216.36-.264.49-.062.834.27.258.245.205.222.438.054.035-.08.076-.156.115-.223.115-.047.233-.078.35-.1.193-.09.383-.08.565-.15.19-.073.33-.284.53-.246.175.035.374.176.54.23.16.054.23.086.362.183.24-.493.768-.64 1.106-.88.35-.242.678.053 1.064.057.205 0 .288-.12.434-.167.164-.06.35.026.508-.04.167-.06.198-.222.382-.242.34-.042.72.513 1.06.618.19.063 1.076.26.946-.39-.125-.618-.68-.19-.8-.624-.063-.248.067-.6-.01-.877-.066-.253-.344-.546-.51-.6-.21-.067-.33.15-.51-.02-.145-.135-.2-.643-.33-.844-.17.124-.277.24-.503.193-.257-.062-.232-.15-.424-.393-.417-.522-.657.313-1.042.18-.293-.093-.564-.83-.794-1.13-.122-.16-.466-.678-.643-.562-.3.194-.027.758-.183 1.008-.112.174-.508-.004-.65.024-.226.05-.268.108-.432.38-.33.545-.522.98-1.035.917-.244-.028-.427-.275-.665-.185-.253.097-.396.368-.674.4-.202.016-.435.024-.633-.052-.194-.088-.414-.452-.59-.553-.077-.063-.154-.076-.24-.046-.022-.01-.29-.166-.293-.166-.31-.09-.284-.08-.41.33-.074.254-.1.515-.195.755-.09.2-.288.45-.403.586-.216.233-.32.17-.6.254-.227.074-.527.425-.648-.027-.18-.682.5-1.7-.258-1.523-.198.046-.317.083-.438.376-.134.337-.026.555-.086.925-.08.466-.968 1.25-.792 1.67.118.296.514-.16.622-.086.18.124.13.42.257.62.27.41 1.066-.637 1.11-.07M961.55 300.4c-.002-.06-.013-.115-.017-.176-.212-.04-.452-.264-.647-.268-.183-.01-.542.438-.668.653-.39.642-.28 1.518-.935 1.505-.16-.004-.535-.112-.675-.015-.246.174-.09.69-.09 1.04 0 .33.15 0-.027.428-.052.118-.21.156-.253.313-.132.56.333.383.54.377.527-.004 1.052-.004 1.574 0 .318.007.51-.105.804-.22.194-.066.608-.062.773-.236.06-.065.25-.507.277-.61.042-.217-.04-.478.01-.658.084-.316.367-.195.418-.622.136-1.048-.982-.264-.806-1.294"/></g><g stroke="#000" stroke-width=".78"><path d="M974.21 271.28c0 1.356-.928 2.448-2.078 2.448-1.137 0-2.073-1.092-2.073-2.448 0-1.352.934-2.452 2.072-2.452 1.15 0 2.078 1.1 2.078 2.452zM967.43 268.26c0 1.352-.93 2.448-2.074 2.448-1.147 0-2.078-1.096-2.078-2.448s.93-2.45 2.078-2.45c1.145 0 2.074 1.098 2.074 2.45z"/><path d="M971.01 269.2c0 1.356-.93 2.448-2.074 2.448s-2.072-1.092-2.072-2.448.928-2.45 2.072-2.45 2.074 1.095 2.074 2.45zM967.54 271.44c0 1.356-.932 2.454-2.076 2.454s-2.072-1.1-2.072-2.454c0-1.352.927-2.448 2.072-2.448s2.076 1.094 2.076 2.448z"/><path d="M970.76 273.31c0 1.352-.935 2.454-2.075 2.454-1.143 0-2.076-1.102-2.076-2.454s.932-2.448 2.075-2.448c1.14 0 2.075 1.096 2.075 2.448z"/></g><path fill="#00a651" stroke="#000" stroke-width=".78" d="M971.76 246.58s20.918-29.21 43.348 1.134c0 0 .187 3.018-1.885 6.22l-.567-2.448-1.318.374-.376-1.507-2.455-.187.758-3.206-2.642 2.074.38-2.263-3.017 3.02.38-6.41-3.207 5.466.375-3.767-1.13 1.692-.68-2.196-1.013 2.196-1.512-1.128v1.507l-2.635-2.26-.942 3.014-1.32-3.202-.377 2.26-1.322-2.64-.184 2.83-4.34-1.887.943 2.64-2.07-1.506.377 1.504-2.824-.563.185 1.695-3.014-.566.567 1.505-4.148-.562 1.502 1.696-.417.69s22.66-7.474 24.168 20.795l-4.148 2.072 1.133-2.256-1.133-.756-3.39-2.635.942-3.586-1.13.38-.19-2.073-.564.377-1.322-2.073-.376.755-.942-2.455-.942 1.7-.567-4.148-1.506 2.643-.192-1.51-.566.943-1.884-2.263-.56 1.508-.76-1.13-.562 1.318-2.074-1.888v1.513l-1.317-1.133-.572.755-3.198-1.697-.196 1.505-1.692-1.505-.568 1.505s20.55 11.69 14.137 30.725l-1.133 2.448-.372-6.404-1.884 3.39 1.312-7.35-1.31 1.316-.195-2.823-1.69 2.823-.574-3.2-.748.94-1.136-4.9-.943 2.075-1.506-5.465-1.13 2.26-.753-4.708-.755 2.826-2.263-4.15-.375 1.694-1.317-3.39-.76 1.134s-3.768-.19-4.897-1.133c-1.13-.938-4.335 5.657-4.335 5.657l.378-3.96-1.317 2.635v-2.636l-2.452 7.914-.566-5.653-1.32 4.9-.567-1.505-.374 2.075-.755-.758-.657 2.225-1.23-.903v3.013l-1.13-1.508-.94 4.524-.565-1.882v2.07l-.942-1.127-.945 4.525-1.317-1.884-.185 3.2.56 2.455-1.505-.755.567 3.953s-5.844-10.927 1.133-21.484c6.968-10.55 16.393-13.38 16.393-13.38l-.946-.94-.187-.944-5.653 2.826.19-1.7-1.51 1.32-.374-1.884-.946 1.697-.184-.755-1.322 2.076-.757-3.018-.94 3.585-.89-2.507-1.936 5.33v-3.957l-1.507 4.147-.564-4.524-1.13 5.274v-4.71l-1.7 4.71-1.13-4.52-.755 4.332-1.13-3.39-1.133 5.086-1.693-4.524-.943 6.787-1.13-2.644-.19 4.902-1.315-3.014 1.315 6.404-1.697-2.448.568 3.957-2.448-4.336.187 5.095-1.32-1.7-.57 1.885s-.56-19.6 12.817-23.372c13.386-3.768 22.055 1.133 22.055 1.133l-5.088-4.144.564-1.32h-1.884l.754-1.51-3.957.19 1.13-1.507-3.02.374v-.94l-1.883 1.503.754-1.693-2.637 1.693-.16-2.507-1.35 2.135-.748-2.263-6.034 6.028 1.696-6.218-1.13 1.322-.186-1.322-1.697 2.642-.378-1.887-.755 2.26-.567-2.637-1.314 2.637-1.324-2.446-.563 3.206-.945-1.7-1.13 2.45-1.505-1.51-.19 1.51-3.017-1.32.755 2.264-2.262-1.884-.568 3.014-1.315-1.508-.942 3.772-.942-3.583-.94 2.828s11.785-30.286 41.604-10.526c0 0 3.247 3.176 4.002 5.436.755 2.264.19.38.19.38l-.567-20.92 1.13 9.047.753-3.206-.187 4.712 3.012-6.598s-3.577 10.933-2.26 14.89c0 0 1.322-12.626 5.848-14.136l-4.148 9.046 1.317-.19-.942 1.888h1.13l-1.366 2.99-.707 1.534.75 1.506 1.14-1.14z"/><path d="M968.66 258.87l.594.535c.08-.083 1.944-2.07 5.074.574l.518-.617c-3.742-3.164-6.17-.522-6.186-.493zM967.75 248.61l-.122.725s1.076-.46 1.453-.62c-.232.415-.998 1.748-.998 1.748l2.168-.72-2.688 3.516.64.493 4.276-5.6-2.657.885c.278-.482 1.14-2.005 1.14-2.005l-2.297.988.475-2.873-.795-.133-.593 3.596z"/><path d="M963.76 248.84s.528 1.17.925 2.04c-.17-.072-1.475-.594-1.475-.594l4.35 7.694s.525-.67.556-.712c-.438 1.123-.876 2.256-.876 2.256l.75.292 1.876-4.822-.692-.393-1.51 1.934c-.406-.723-1.91-3.386-2.625-4.645.09.033 1.206.483 1.206.483s-.82-1.812-1.203-2.653l1.63 1.018v-2.868h-.803v1.42l-2.663-1.663.553 1.213zM961.02 258.5l.32.737c1.178-.504 2.148-.588 2.885-.237.863.414 1.123 1.304 1.126 1.31l.776-.208c-.01-.052-.352-1.248-1.543-1.822-.952-.458-2.152-.385-3.563.22zM964.396 266.65l-.66-4.215.795-.125.662 4.214zM970.185 265.956l-1.074-3.22.766-.255 1.073 3.22zM972.31 268.336l-.808-3.216.782-.196.807 3.216z"/><g><g stroke="#000" stroke-width=".78" fill="#00a651"><path d="M811.41 365.04s-3.534-1.606-5.143-.43c-1.608 1.18-1.39 2.892-2.783 2.784 0 0 5.354 1.18 6.532-.216 1.177-1.387 1.394-1.82 1.394-1.82M812.06 366.52s-2.326 3.11-1.522 4.93c.802 1.822 2.523 1.978 2.116 3.315 0 0 2.302-4.974 1.196-6.426-1.105-1.443-1.474-1.746-1.474-1.746M808.14 357.91s-3.71 1.15-4.126 3.095c-.426 1.946.88 3.086-.232 3.93 0 0 4.782-2.68 4.737-4.505-.046-1.823-.164-2.284-.164-2.284M810.32 359.19s1.76-3.467.652-5.118c-1.106-1.663-2.832-1.52-2.662-2.904 0 0-1.414 5.296-.073 6.536 1.343 1.23 1.763 1.468 1.763 1.468M806.68 357.93s.085-3.876-1.632-4.89c-1.715-1.014-3.21-.14-3.658-1.466 0 0 1.026 5.39 2.774 5.928 1.746.525 2.227.556 2.227.556M813.02 364.39s4.068-1.397 4.392 2.998c.32 4.39-.216 2.893-.216 2.893s-2.142-4.712-4.496-5.463l.32-.427z"/></g><path d="M811.99 366.59c0 .094.426 3.414.426 3.414l.572-.073-.43-3.32c.014.003 1.39-7.302 1.39-7.302l-.567-.104-1.39 7.386z"/><path d="M808.29 365.51l-.19.542c1.946.684 4.66-1.454 4.774-1.544l-.36-.448c-.024.017-2.578 2.034-4.224 1.45zM813.388 361.224l-9.102-4.605.363-.718 9.1 4.605z"/><path d="M806.79 360.19l-.568-.567 1.82-1.82.568.568zM809.975 359.305l-1.927-4.18.73-.336 1.927 4.18zM812.67 364.42l.052.804c2.475-.168 3.08 1.435 3.084 1.453l.79-.164c-.094-.46-1.086-2.284-3.926-2.093z"/><path d="M854.43 366.27c3.035-1.7 3.643-7.657 3.643-7.657-.726 2.19-6.31 4.375-6.31 4.375 4.126-2.556 9.1-14.084 9.1-14.084-1.333 4.13-12.137 7.526-19.06 11.41-6.922 3.884-3.278 15.06-3.278 15.06-1.94-1.338-5.706-7.284-6.432-12.51-.733-5.22-2.796-7.28-7.53-7.89-4.74-.607-7.53 4.733-7.53 4.733l-7.04 3.647 7.16.24s5.105 1.704 5.105 5.71c0 4.008-4.493 20.034 2.91 29.02 5.153 6.246 24.166 9.834 24.166 9.834" stroke="#000" fill="#FFF"/><path d="M840.47 378.65s1.457-7.165 6.192-6.922c4.735.243 6.07-5.34 8.863-6.192 2.793-.848 17.242-4.73 18.82-11.656 0 0-1.334 11.416-14.567 17.122 0 0 10.68-3.523 11.898-5.83 0 0-4.74 10.2-16.272 11.778 0 0 10.806-.85 12.385-3.76 0 0-4.858 6.432-12.87 7.284 0 0 7.405 3.035 9.35.484 0 0-4.01 4.735-8.99 5.096l1.34.366s-4.735 5.587-9.957 1.822c-5.22-3.766-5.344.974-5.344.974" stroke="#000" fill="#FFF"/><path d="M851.25 389.45s6.098 10.202 6.707 15.665c0 0 11.658 12.872 16.028 13.595 0 0-2.065.848-5.83-2.305 0 0 3.156 3.278 3.765 3.4.604.125-2.552-.243-3.04-1.095 0 0 1.34 1.948 2.188 2.19.852.244-.85-.242-.85-.242s-1.58-.244-2.308-.852c-.73-.605-.243 1.575-.243 1.575s-1.822-.485-2.427-1.09c-.608-.606.244 1.338.244 1.338l-1.578-.366-1.092.726s-.122.73-.856.123c-.723-.6-2.06 0-2.06 0s-.976.853-1.458.244c-.482-.606-2.323 2.336-2.323 2.336l-7.645-18.455" stroke="#000" fill="#FFF"/><g><path d="M858.505 422.928l-9.662-18.393 1.014-.533 9.663 18.393zM866.947 421.688l-16.53-18.51.857-.766 16.532 18.51zM870.718 420.056l-18.864-17.58.783-.84 18.865 17.58z"/></g><g><path d="M823.44 360.84s-1.23-2.204-2.303-1.376c-1.07.825-1.685.976-1.87.92 0 0 1.076.058 1.687-.523.613-.585 1.656-.215 2.486.98zM816.78 359.83s.676 1.398.685 1.422c-.068.004-.763 2.257-.763 2.257l.553.17.75-2.454c-.013-.213-.703-1.642-.703-1.642l-.522.246z"/><path d="M823.16 360.5s-.918 1.075-2.176.766l-1.252-.306s1.066.06 1.776.093c.7.03 1.618-.337 1.652-.553z"/><path d="M822.86 360.72s-1.132-1.195-1.9-.858c0 0 1.35-.43 2.116.73l-.216.128z"/><path d="M822.67 360.5s-1.286.887-2.7-.09l-.085-.066.183-.06c0 .002 1.778.736 2.602.216z"/><circle cx="821.573" cy="360.284" r=".383"/></g><path d="M822.61 394.2s-.996 1.834-.475 2.94c.528 1.102 2.89 1.674 3.205 3.145.317 1.475 1.105 1.47 2.208 1.266 1.105-.21 1.314-.263 1.314-.263s-4.625-2.473-5.834-6.46l-.418-.627z"/></g><g><g stroke="#000" fill="#964b36" stroke-width=".48"><path d="M972.09 356.85s8.418-11.1 15.882-8.184c7.465 2.917 12.316 4.32 12.316 4.32s.142 7.476-3.828 7.476c-3.96 0-7.757-7.465-11.366-5.246-3.616 2.215-6.584 5.25-6.818 6.296-.233 1.048-9.562 1.283-6.185-4.662z"/><path stroke-width=".78" d="M940.14 410.37s-2.328 2.444-1.278 3.03c1.054.582 3.146-.12 3.146-.934 0-.82-1.395-2.33-1.868-2.096z"/><path stroke-width=".78" d="M938.28 412.7s-4.312-2.455-7.694 3.376c-3.387 5.83-6.182 15.277-8.164 16.56-1.98 1.282 19.24-9.328 19.475-13.758 0 0 1.397-5.716-.817-5.602-2.215.122-2.333.356-2.8-.576z"/><path d="M938.86 413.4s-4.43 1.043-5.362 7.337c-.932 6.303-7.114 9.565-7.462 9.797M1000.3 352.99s-6.738 2.344-5.574 7.01"/></g><path fill="#fff200" stroke="#000" stroke-width=".48" d="M948.54 366.64s.232-15.976 13.284-15.277c2.473.23 1.294 3.146 1.294 3.146s2.823-1.978 4.113 1.165c0 0 4.118-1.864 4.586 2.218 0 0 4.47-.58 3.88 3.032 0 0 3.056-.7 2.942 1.867 0 0 3.526-1.4 3.17 2.215 0 0 3.882-2.566 3.297 2.096 0 0 4-2.794 5.404 1.87 1.41 4.66-3.996 14.573-9.288 17.137"/><path d="M984.81 367.61c.018.125 1.76 12.498-5.257 17.026l.247.39c7.27-4.69 5.482-17.356 5.466-17.484l-.456.068zM976.36 381.16l.324.33c4.444-4.325 5.4-15.976 5.434-16.47l-.455-.037c-.01.122-.977 11.974-5.303 16.177zM972.21 378.39l.458.037c.572-7.195 6.196-15.425 6.256-15.51l-.38-.257c-.058.082-5.75 8.413-6.334 15.73zM968.95 376.29l.458.046c.8-8.68 6.533-15.196 6.59-15.258l-.34-.308c-.06.064-5.892 6.688-6.708 15.52zM964.4 373.39l.458.017c.456-10.25 7.18-15.28 7.247-15.33l-.272-.37c-.065.05-6.967 5.2-7.433 15.683zM960.2 370.84l.462-.014c-.336-9.328 6.835-14.912 6.91-14.97l-.28-.364c-.072.06-7.433 5.78-7.092 15.348zM952.63 367.43l.455.056c1.25-10.097 10.236-12.725 10.326-12.75l-.124-.44c-.09.023-9.373 2.728-10.656 13.134z"/><path fill="#00a651" stroke="#000" stroke-width=".48" d="M940.84 386s-2.212-14.813 6.648-19.472c0 0 1.637-.352 2.566 1.748 0 0 4.666-1.98 4.784 1.978 0 0 2.33-1.864 2.914.7 0 0 5.013-1.047 4.08 2.683 0 0 4.197-1.165 3.847 2.445 0 0 4.2-1.514 3.496 1.635 0 0 4.43-1.047 3.382 2.567 0 0 5.483-.58 3.85 3.265 0 0 4.08-1.05 3.146 2.1 0 0 5.366.934 2.914 4.314-2.448 3.378-8.63 8.51-14.686 10.724"/><path fill="#00a651" stroke="#000" stroke-width=".48" d="M936.06 400.92s-3.616-12.355 3.27-15.51c0 0 1.274-.35 1.508.936 0 0 1.52-1.985 2.687-.233 0 0 3.495-1.633 4.315.93 0 0 2.33-1.984 3.498.93 0 0 2.216-.93 2.216 1.4 0 0 3.03-1.282 3.03 1.517 0 0 2.91-1.165 2.33 1.98 0 0 4.433.7 3.15 2.8 0 0 3.97 1.045 2.448 2.682 0 0 4.312-.466 1.98 2.448 0 0 3.266-1.047 1.403 2.57-1.87 3.612-7.695 7.576-11.776 8.04"/><path fill="#00a651" stroke="#000" stroke-width=".48" d="M940.37 410.71s-7.694-7.462-4.075-9.676c0 0 1.626.462 2.21 2.097 0 0 1.865-2.68 2.92.116 0 0 2.798-.93 2.798.938l2.212 1.634s2.57-.236 2.103 1.398c0 0 2.8-.352 2.68 1.165 0 0 2.452.116 2.22 1.746 0 0 4.192.7 2.328 2.803 0 0-7.346 1.51-12.475-.586 0 0-2.687-.936-2.92-1.634z"/><g><path d="M966.76 398.38l.164.427c4.56-1.755 12.478-12.564 12.816-13.024l-.372-.275c-.084.117-8.174 11.164-12.608 12.87zM964.17 396.41l.223.4c3.967-2.213 11.867-12.676 12.2-13.12l-.366-.28c-.08.113-8.174 10.835-12.058 13zM961.92 395.49l.296.352c4.19-3.478 10.29-14.966 10.552-15.452l-.406-.216c-.062.117-6.32 11.896-10.44 15.317zM959.86 392.84l.456.064c.796-5.807 8.953-14.947 9.032-15.037l-.34-.308c-.338.38-8.334 9.335-9.148 15.28zM943.53 385.78l.46-.04c-.686-8.203 6.18-17.238 6.25-17.328l-.364-.277c-.074.09-7.044 9.262-6.346 17.645zM947.85 386.5l.456-.08c-1.136-6.576 6.63-15.928 6.71-16.02l-.35-.298c-.328.39-7.985 9.605-6.816 16.398zM954.49 388.92l.46-.013c-.226-7.507 6.976-15.032 7.05-15.11l-.33-.32c-.072.077-7.414 7.743-7.18 15.443zM938.65 402.52l.43-.16c-2.615-6.937 1.926-15.82 1.972-15.906l-.414-.212c-.045.09-4.677 9.15-1.988 16.278zM941.67 402.97l.438-.142c-2.28-7.065 1.585-16.535 1.626-16.628l-.427-.176c-.037.092-3.966 9.72-1.637 16.946zM954.17 410.03l.157.434c7.44-2.676 12.305-9.46 12.353-9.525l-.375-.27c-.046.067-4.826 6.738-12.134 9.36zM952.64 408.41l.187.42c5.934-2.676 11.467-10.145 11.52-10.222l-.37-.27c-.056.076-5.514 7.444-11.337 10.07zM951.2 407.85l.27.373c4.64-3.362 10.603-11.982 10.666-12.07l-.378-.257c-.06.088-5.977 8.638-10.558 11.953zM943.76 403.52l.456-.066c-1.026-7.414 3.773-16.208 3.824-16.295l-.403-.224c-.05.09-4.923 9.018-3.877 16.584zM946.99 405.53l.31.34c4.788-4.322 6.418-15.97 6.484-16.464l-.456-.064c-.014.12-1.672 11.98-6.338 16.188z"/><path d="M950.27 406.91l.27.372c6.757-4.888 8.59-14.274 8.604-14.365l-.45-.086c-.017.09-1.814 9.296-8.424 14.08zM951.05 386.68c0 .438.022.875.062 1.318-.007-.038-5.125 16.583-5.125 16.583l.438.136 5.14-16.674c-.795-8.06 6.295-16.86 6.365-16.945l-.354-.288c-.07.078-6.526 8.092-6.526 15.87z"/><path d="M956.41 390.74c-.067.233-1.627 11.618-7.768 15.818l.26.38c6.315-4.32 7.85-15.545 7.91-16.02 2.726-3.242 9.006-14.613 9.07-14.727l-.404-.22c-.063.113-6.318 11.45-9.068 14.77zM938.28 403.18c.046.24 1.072 5.896 2.246 7.89l.396-.23c-1.136-1.926-2.175-7.68-2.186-7.74l-.456.08zM941.19 403.25c.05 2.816.064 7.436-.094 7.847l.428.168c.236-.592.146-6.784.128-8.02l-.462.005z"/><path d="M941.45 411.32l.418.187c1.97-4.29 2.578-7.25 2.586-7.277l-.452-.09c-.007.024-.602 2.942-2.552 7.18z"/><path d="M941.89 411.45l.233.396c3.657-2.125 4.506-5.82 4.536-5.976l-.45-.1c-.01.036-.84 3.66-4.32 5.68z"/><path d="M942.57 411.77l.046.455c3.584-.358 6.025-4.71 6.13-4.895l-.405-.223c-.022.045-2.428 4.328-5.77 4.663z"/><path d="M942.93 412l.028.458c5.754-.354 8.343-3.793 8.448-3.938l-.372-.272c-.024.032-2.577 3.415-8.104 3.752z"/><path d="M943.34 412.12l-.094.45c.31.07 7.642 1.624 10.152-2.198l-.385-.25c-2.334 3.557-9.6 2.012-9.673 1.998z"/></g></g><path fill="none" stroke="#000" stroke-width="4.2" d="M778.8 143.94v205.09c0 67.08 121.2 106.91 121.2 106.91s121.2-39.833 121.2-106.91V143.94z"/></g></svg>