<svg xmlns="http://www.w3.org/2000/svg" xmlns:xlink="http://www.w3.org/1999/xlink" width="1200" height="600"><defs><linearGradient id="a" gradientUnits="userSpaceOnUse"><stop stop-color="#a43907" stop-opacity=".996" offset="0"/><stop stop-color="#fff" offset="1"/></linearGradient><linearGradient id="d" xlink:href="#a" x1="826.45" y1="419.932" x2="786.124" y2="396.11"/><linearGradient id="e" xlink:href="#a" x1="851.569" y1="436.067" x2="763.033" y2="419.673"/><linearGradient id="f" xlink:href="#a" x1="1016.15" y1="398.539" x2="974.919" y2="400.941"/><linearGradient id="g" xlink:href="#a" x1="1033.335" y1="421.219" x2="945.904" y2="428.645"/><linearGradient id="h" xlink:href="#a" x1="1023.357" y1="445.132" x2="776.646" y2="445.132"/><linearGradient id="i" xlink:href="#a" x1="783.43" y1="462.503" x2="1144.088" y2="465.421"/><linearGradient id="j" xlink:href="#a" x1="1032.128" y1="442.287" x2="1002.941" y2="444.033"/><linearGradient id="k" xlink:href="#a" x1="775.747" y1="471.718" x2="803.908" y2="476.185"/><linearGradient id="l" xlink:href="#a" x1="803.177" y1="466.888" x2="755.308" y2="440.32"/><clipPath id="b"><path d="M0 0v150h700v150H600zm600 0H300v350H0v-50z"/></clipPath></defs><path fill="#00247d" d="M0 0h1200v600H0z"/><path d="M0 0l600 300m0-300L0 300" stroke="#fff" stroke-width="60"/><path d="M0 0l600 300m0-300L0 300" stroke="#cf142b" stroke-width="40" clip-path="url(#b)"/><path d="M300 0v350M0 150h700" stroke="#fff" stroke-width="100"/><path d="M300 0v350M0 150h700" stroke="#cf142b" stroke-width="60"/><path d="M0 300h600V0h600v600H0z" fill="#00247d"/><g stroke="#000" stroke-width="1.8"><use xlink:href="#c" stroke="#fff" stroke-width="12"/><g id="c" stroke-linejoin="bevel"><path fill="url(#d)" d="M826.45 427.735s-8.536-13.884-15.65-12.893c-7.113.992-13.752 9.918-14.227 10.413-.473.496-10.906-11.404-10.432-11.9.475-.496 10.908-26.28 16.6-27.273 5.69-.992 17.976 1.897 17.976 2.89 0 .99 5.734 38.763 5.734 38.763z"/><path fill="url(#e)" d="M845.42 412.86c0 .99-2.846 37.685-15.176 50.578-12.33 12.892-32.247 20.826-39.36 18.843-7.114-1.983-23.237-39.172-23.237-39.172s17.072 17.85 29.875 14.876c12.805-2.975 20.392-25.29 22.762-36.2 2.372-10.908.475-32.232.475-32.232l24.66 23.307z"/><path fill="url(#f)" d="M973.576 427.735s8.536-13.884 15.65-12.893c7.113.992 13.752 9.918 14.227 10.413.473.496 10.906-11.404 10.432-11.9-.474-.496-10.907-26.28-16.598-27.273-5.69-.992-17.977 1.897-17.977 2.89 0 .99-5.734 38.763-5.734 38.763z"/><path fill="url(#g)" d="M954.608 412.86c0 .99 2.845 37.685 15.175 50.578 12.33 12.892 32.247 20.826 39.36 18.843 7.114-1.983 23.237-39.172 23.237-39.172s-17.072 17.85-29.875 14.876c-12.805-2.975-20.392-25.29-22.763-36.2-2.37-10.908-.475-32.232-.475-32.232l-24.66 23.307z"/><path fill="url(#h)" d="M788.945 407.482c-5.69 6.942-8.73 12.308-11.1 16.275-2.37 3.967-.977 9.487 4.5 17.363 5.905 8.487 54.448 41.662 117.675 41.662s111.77-33.175 117.675-41.662c5.477-7.876 6.834-13.396 4.462-17.363-2.37-3.967-5.37-9.333-11.062-16.275 0 10.412-40.214 48.038-111.075 48.038-70.86 0-111.075-37.625-111.075-48.038z"/><path fill="url(#i)" d="M1008.25 476.74c.95-1.486 10.906-18.842 10.906-18.842l-5.46-4.027c-1.677 4.91-7.818 6.508-8.766 12.46s4.268 11.9 3.32 10.41z"/><path fill="url(#j)" d="M1018.15 471.37s1.897-8.428-4.267-9.42c-6.166-.99-9.43 4.718-8.536 2.48.992-2.488 4.742-4.96 5.215-13.39.475-8.43-.473-12.89-.473-12.89s2.37-10.912 12.33-9.424c9.957 1.49 10.432 9.423 10.432 12.398 0 2.975-.95 4.462-.95 4.462l-13.752 25.785z"/><path fill="url(#k)" d="M791.773 476.74c-.95-1.486-10.907-18.842-10.907-18.842l5.46-4.027c1.677 4.91 7.818 6.508 8.767 12.46s-4.27 11.9-3.32 10.41z"/><path fill="url(#l)" d="M781.873 471.37s-1.897-8.428 4.267-9.42c6.166-.99 9.43 4.718 8.536 2.48-.992-2.488-4.742-4.96-5.215-13.39-.474-8.43.474-12.89.474-12.89s-2.37-10.912-12.33-9.424c-9.958 1.49-10.433 9.423-10.433 12.398 0 2.975.95 4.462.95 4.462l13.753 25.785z"/></g><g stroke="none"><path d="M813.43 438.565l-5.168-3.56-.6.954 1.018.84.088.507-6.506 10.34-.48.115-1.14-.647-.6.954 5.168 3.56c1.77 1.218 3.28 1.84 4.966 1.663 2.195-.22 4.065-1.498 5.51-3.795 2.574-4.09 1.85-8.103-2.256-10.933zm-2.155.078l1.027.707c2.814 1.94 3.062 4.65.76 8.31-2.304 3.66-4.794 4.512-7.608 2.574l-1.027-.708 6.848-10.883zM815.174 457.273l10.268 5.133 1.717-3.764-1.3-.65-1.342 2.067-.403.212-4.435-2.218 2.495-5.47 2.485 1.242.134.43-.5 1.608 1.128.564 2.226-4.88-1.13-.565-.88 1.42-.402.16-2.485-1.242 2.284-5.006 3.804 1.902.124.397-.557 1.997 1.34.67 1.505-3.305-9.638-4.818-.47 1.03 1.118.69.172.447-5.114 11.214-.46.183-1.214-.478-.47 1.03zM828.786 463c1.1.91 2.377 1.61 3.668 2.044 3.31 1.116 5.93-.107 6.742-2.748.402-1.31.125-2.726-.793-3.942-.93-1.243-1.898-1.938-2.393-2.57-.85-1.07-1.212-1.926-.898-2.947.375-1.222 1.555-1.802 3.027-1.306.644.22 1.075.485 1.376.807l.187.407-.365 2.424 1.45.49 1.105-3.596c-1.12-.917-2.308-1.612-3.56-2.033-2.883-.974-5.345.302-6.102 2.765-.333 1.09-.183 2.34.48 3.518.634 1.12 1.467 1.818 2.137 2.534 1.187 1.282 1.668 2.325 1.3 3.523-.375 1.222-1.616 1.783-3.25 1.232-.625-.21-1.175-.52-1.678-.91l-.162-.42.496-2.773-1.535-.518-1.234 4.017zM839.51 467.153l6.03 2.033.333-1.087-1.318-.567-.213-.464 3.632-11.83.418-.203 1.386.344.334-1.087-6.03-2.033-.334 1.088 1.296.56.228.42-3.633 11.83-.433.246-1.364-.338-.334 1.087zM852.462 454.82l-.23 1.118 1.2.385.264.393-2.504 12.16-.407.293-1.246-.158-.23 1.118 5.84 1.29.23-1.117-1.24-.393-.257-.438 1.058-5.134.353.078c2.09.463 2.428 1.563 2.623 3.872.106 1.167.08 2.236.97 3.387.408.543 1.117.986 2.01 1.183.64.142 1.358.23 2.106.276l.225-1.096c-.103-.023-.186-.04-.27-.06-1.386-.306-1.936-.785-2.114-2.137-.158-1.226-.07-2.495-.506-3.64-.324-.836-.94-1.425-1.882-1.896 2.44.038 3.934-1.015 4.366-3.114.523-2.533-.852-4.27-4.062-4.978l-6.296-1.392zm3.978 2.24l.953.21c2.007.444 2.847 1.727 2.462 3.597-.432 2.1-1.686 2.825-3.9 2.336-.23-.05-.477-.106-.742-.19l1.227-5.954zM865.586 473.888l11.363.563.18-4.168-1.438-.07-.468 2.45-.292.36-4.908-.244.265-6.058 2.75.137.282.34.138 1.688 1.248.062.236-5.405-1.247-.062-.285 1.668-.31.31-2.752-.136.243-5.544 4.21.21.263.315.227 2.067 1.48.073.162-3.658-10.664-.528-.05 1.14 1.286.182.325.343-.543 12.416-.355.355-1.296.052-.05 1.14zM885.562 460.702l-.04 4.128 1.5.018.37-2.49.352-.3 2.608.03-.12 12.688-.373.368-1.415.1-.01 1.142 6.497.077.01-1.142-1.41-.132-.367-.377.12-12.686 2.608.03.323.308.346 2.5 1.5.018.038-4.128-12.538-.15zM898.767 461.15l.02 1.14 1.262.097.354.366.216 12.383-.34.38-1.26.137.02 1.142 6.148-.107-.02-1.142-1.305-.093-.354-.367-.104-5.877 6.28-.11.102 5.876-.32.38-1.3.137.02 1.143 6.127-.107-.02-1.144-1.262-.093-.355-.367-.216-12.383.34-.38 1.26-.138-.02-1.143-6.128.107.02 1.142 1.305.094.33.367.09 5.108-6.278.11-.09-5.107.342-.38 1.3-.14-.02-1.14-6.147.106zM916.073 476.413l11.624-1.064-.354-4.16-1.473.136-.158 2.497-.25.397-5.02.46-.516-6.042 2.813-.257.33.298.36 1.653 1.276-.116-.46-5.39-1.276.117-.074 1.695-.276.35-2.813.26-.47-5.53 4.307-.395.307.276.5 2.016 1.515-.14-.31-3.647-10.91 1 .096 1.137 1.332-.004.374.294 1.055 12.383-.313.404-1.31.235.096 1.138zM932.555 458.353l.178 1.128 1.365-.114.417.26 1.934 12.27-.308.43-1.33.343.178 1.127 6.437-1.1-.178-1.127-1.41.123-.424-.305-.817-5.18.387-.065c2.305-.394 3.055.494 4.106 2.56.54 1.04.91 2.043 2.24 2.76.618.344 1.505.476 2.488.308.707-.12 1.472-.32 2.253-.572l-.175-1.106-.297.05c-1.528.262-2.266.035-2.946-1.15-.614-1.076-.992-2.288-1.86-3.18-.64-.647-1.486-.95-2.62-1.018 2.5-.924 3.638-2.488 3.305-4.606-.404-2.555-2.448-3.625-5.987-3.02l-6.938 1.185zm4.886.513l1.05-.18c2.214-.377 3.545.482 3.843 2.37.334 2.118-.678 3.283-3.12 3.7-.25.043-.524.09-.825.117l-.947-6.007zM951.81 470.606l6.603-2.08-.33-1.092-1.512.355-.46-.247-3.58-11.893.26-.424 1.446-.578-.33-1.093-6.6 2.08.328 1.092 1.49-.346.448.202 3.58 11.893-.247.468-1.424.57.33 1.093zM965.54 457.738l.314 1.095 1.672-.4.445.202 1.31 4.558c-.564.225-.978.38-1.2.448-3.41 1.067-6.167-.628-7.322-4.65-1.123-3.912.248-6.872 3.55-7.903.642-.2 1.27-.277 1.94-.218l.448.297 1.1 2.237 1.618-.505-1.09-3.8c-1.782.02-3.424.267-4.887.724-4.917 1.537-7.206 5.587-5.89 10.168 1.334 4.648 5.403 6.884 10.055 5.43 1.617-.505 3.167-1.33 4.7-2.467l-1.496-5.206.265-.425 1.254-.514-.315-1.093-6.47 2.02zM968.96 448.387l.495 1.02 1.247-.527.492.16 5.35 11.057-.17.507-1.146.735.493 1.02 5.842-3.084-.493-1.02-1.29.55-.492-.158-2.54-5.247 5.966-3.148 2.54 5.248-.15.496-1.19.758.495 1.02 5.82-3.072-.495-1.02-1.247.53-.49-.16-5.35-11.058.168-.507 1.146-.737-.493-1.02-5.82 3.072.492 1.02 1.29-.55.47.17 2.207 4.56-5.966 3.15-2.206-4.562.17-.507 1.188-.76-.494-1.02-5.84 3.084zM983.583 439.937l2.028 3.546 1.37-.854-.91-2.343.17-.46 2.38-1.485 6.233 10.897-.153.53-1.234.904.56.98 5.935-3.703-.56-.98-1.346.705-.52-.11-6.233-10.896 2.384-1.488.446.075 1.562 1.933 1.37-.855-2.028-3.546-11.45 7.147z"/></g></g><path fill="#0072c4" stroke="#fff" stroke-width="6" d="M900.01 448.344S785.547 414.61 786.214 286.267l.882-169.65h225.834l.883 168.676c.668 128.342-113.802 163.05-113.802 163.05z"/><g fill="#bcbcbc"><path d="M802.805 155.04c.188 0 1.575-1.317 2.845-2.48 1.774-.887 3.415-2.136 5.217-2.974 1.343-.777 3.998-1.38 5.216-1.983 1.598-.836 2.902-1.8 4.27-3.472.163-2.217.474-3.81.474-6.445 1.886-.907 3.56-1.788 5.216-2.48 2.373-.668 2.887-1.617 5.217-1.983 1.5-.524 3.977-.497 6.164-.497 2.36 0 3.848 1.677 5.968 2.074 2.513 1.013 3.686 1.714 5.69 3.47 1.133 1.434 1.837 2.598 3.767 3.677 1.527.784 2.958 1.97 4.74 2.48 1.96 1.134 3.697 1.79 5.217 3.47 1.393.99 1.968 2.462 3.32 3.47 1.567 1.3 3.052 2.47 4.743 3.473 2.032 1.362 4.045 2.396 7.337 2.1 1.742-.104 3.618-.304 5.69.083 2.32 0 4.585-.04 6.64.497 2.418 0 4.376.327 6.64.495 2.12.397 4.28.497 6.638.497 2.056.536 4.318.495 6.64.495H923.732c2.415 0 4.86.098 6.638.497 2.394 0 4.452-.224 6.64-.497 2.575 0 4.54-.47 7.114-.495h8.063c2.07.566 4.715.955 6.164 1.983 1.9.54 2.845 1.44 4.743 1.984 1.454.745 3.662 1.925 4.742 3.47 1.34 1.4 2.713 3.403 3.794 5.454 1.32 1.905 1.82 4.082 2.844 6.446.542 2.266.92 4.42.95 6.942.513 2.15.474 4.516.474 6.942-.542 2.26-.66 4.778-1.424 6.942-.082 2.42-.566 4.61-.948 6.447-.422 2.03-.918 3.336-.95 5.95v6.943c-.166 2.277-.663 3.95-.947 6.446-1.148 2.166-2.247 4.698-3.32 7.438-1.578 1.1-2.947 2.665-3.794 3.967-1.012.626-1.598 1.574-1.423 1.984 1.895.66 1.423 1.98 1.423 4.463.246 1.912.43 4.283.95 6.447.172 2.367.68 3.815 1.42 5.454.75.977.895.496-.948.496-1.37 1.075-2.757.513-3.318-1.488-1.107-1.335-1.47-2.95-1.897-5.454-.263-2.296-.63-4.533-1.424-5.95-.244-2.795-.987-2.766-3.795-2.975-1.335-1.184-3.098-1.49-5.69-1.49-2.58 0-2.798-.262-2.846 2.48v6.943c-.447 2.012-1.425 3.644-1.897 5.454-1.415 1.036-2.15 2.775-3.794 3.967-.784 2.252-1.922 2.644-4.27 2.975-.82-1.025-2.16-2.362-2.845-3.47 1.328-2.228 2.487-2.564 3.32-4.96 1.008-1.973 1.6-3.253 2.37-4.957-1.012-1.56-1.92-2.26-2.845-4.464-.78-1.2-1.86-3.78-2.37-5.453-1.557-.542-4.01-.63-5.217-1.488-2.3-.536-2.944 1.982-5.69 1.982h-6.64c-2.935 0-3.668 1.64-6.164 1.49-.734.237-2.513-.106-5.218 0-1.982.69-4.37.494-6.64.494-2.405-.03-4.373-.584-6.164-.992-2.18-.596-4.346-1.2-6.64-1.487-2.783 0-3.82.222-5.69 1.487-1.48.878-3.623 2.883-5.217 3.967-.672 1.647-1.023 4.43-1.895 6.448-.504 1.934-1.324 3.16-1.897 4.96-.642 1.676-1.25 3.402-1.422 5.95-.16 3.34-.89 2.932-2.846 1.983-.814-1.383-2.113-2.905-2.845-4.463.43-2.523.917-3.778.95-6.445-.463-1.925-1.54-1.863-2.847-.497 0 2.596.12 4.598-.948 5.95-.534 2.05-1.393 2.934-2.845 3.967-.71 1.84-2.287 2.684-3.794 3.472-.24-.084 0-.665 0-1.983-1.136-2.267-.08-4.15-.08-6.94.028-2.505-.115-4.165.612-6.45 0-2.402-1.116-4.69-1.48-6.444-.88-1.842-1.39-2.753-3.794-3.472-1.688-.67-4.123-1.58-5.217-2.975-1.375-1.786-2.254-2.52-4.266-3.47-2.182-.792-3.24-1.515-4.742-2.482-1.466-1.616-2.657-2.318-3.32-4.462-.99-1.524-1.16-4.357-1.897-6.447-.16-2.178-.785-4.2-1.422-5.95-.282-2.178-.625-3.77-1.424-5.95-.265-2.04-.853-4.173-1.423-6.447 0-2.426.04-4.794-.475-6.942v-6.94c-.34-2.005-.467-4.94-.948-6.448 0-2.698-.287-4.22-.948-5.95-1.085-1.753-1.173-2.538-2.846-2.976-1.208 1.54-3.2 2.17-5.69 2.48-1.74-.397-4.198-.655-6.166-1.488-1.9-.468-3.202-1.22-4.742-1.984-.842-1.296-1.848-2.764-2.845-3.967-.295-2.59-.86-3.922-.95-6.445 0-1.893.047-.89 1.898-3.472z"/><path fill="#fefefe" d="M830.89 172.905c3.01-.997 9.585-5.876 13.364-9.004 4.304-2.726 13.11.104 13.462-7.286-.533 2.222-5.626 7.746-8.116 11.09-5.49 3.487 2.685 7.042 4.004 2.056 2.847-5.1 6.47-10.277 12.16-12.283-1.038 3.675-1.803 7.25.67 10.52.89-1.61 1.112-8.218 1.017-2.778-1.797 3.093 2.658 12.106 2.77 5.094.712-4.433.443 4.795 1.796 6.185 2.835 5.468 2.586-5.034 3.215-7.114.477-3.93.675-2.894.1-.053-.57 3.56.614-7.436.826-1.375.39 3.168-.04 11.78 3.02 4.947 2.452-4.063 3.038-4.124.36-.518-.87 1.36 4.022-7.402 2.087-1.29-.13 4.39.033 10.918 2.418 13.785 1.83-2.255.764-13.983 2.604-5.923.705 2.272.02 8.597 2.993 3.743 3.21-3.783 4.98-7.065 4.63-12.253.4-2.647 2.014-6.905 3.432-2.216-.975 6.117 5.393 10.007 4.614 15.89 2.858-4.495 1.572-11.187-.33-15.487-.403-5.093 7.743-2.057 5.718 2.436-.232 3.228 4.396 11.524 4.766 3.846.622-3.65 2.63-3.973 2.19.108.84 2.636 4.423 10.39 4.036 3.637.32-3.678-.596-7.552 1.058-11.02 1.173 2.216 1.297 5.618 2.68 1.404 2.832-.086 1.12 7.782 4.697 9.466 1.436 2.823 5.014 7.438 4.01 1.36.556-3.292-2.39-10.096-1.113-10.972 3.745 4.755 5.13 11.033 10.18 14.87 4.81 2.44.597-6.748.335-9.116-2.867-1.576-5.21-7.702-1.152-2.916 2.342 4.252 9.463 7.972 11.688 8.896-2.123-1.57-4.057-2.155-.458.018 2.665 1.093-1.58-6.64-3.127-7.952-1.375-2.473-8.072-6.08-6.173-7.784 5.24 1.133 6.773 6.86 9.952 10.44 1.98 1.66 6.76 5.186 4.09-.077 1.494-.623 8.867 7.56 7.11.998-1.215-2.82-7.676-7.914-6.964-8.222 2.204 3.19.874.91-.882-.762 6.388.71 10.14 7.086 14.157 11.14.5 1.93 1.96 11.33-.012 5.164-4.153-1.774 1.604 8.43-2.932 7.108-.206-2.26-4.208-7.003-2.27-2.317 3.335 6.846.82 14.362 1.117 21.58.09 3.553-.082 7.085-.335 10.62.24-2.61.443-6.952.016-1.254-.148 3.96-1.607-5.713-3.586-6.206-.41-1.8-1.967-10.9-3.28-5.47.01 5.32 5.14 10.9 1.043 15.59-1.382 1.288-2.112 4.997-2.85 1.11-2.018-4.596-3.31-9.46-6.848-13.216-1.493-2.925-6.62-10.018-5.2-2.572.89 3.364 1.487 6.778 1.257 10.267-1.99-5.163-4.707-9.962-7.378-14.728.386 2.227 3.09 11.784.74 5.59-1.628-5.08-4.25-10.15-9.312-12.405-1.398-.173 3.4 8.934 1.55 9-.444-2.937-3.105-9.473-5.748-8.28.118 5.248 2.253 10.134 1.033 15.486.266 5.22-3.22-5.19-4.36-6.585-5.124-3.136.375 8.84-3.687 4.206-3.27-2.297-5.014-4.834-4.695-9.116-6.082-1.035-3.735 5.395-4.023 9.05-.514 2.774-2.01 8.04-3.702 8.85-.706-4.008-.14-8.205-.323-12.29.978-2.346-.098-8.375-2.947-5.51-.482 5.293 2.975 12.015-.956 16.337-2.08 2.38-5.938-3.714-9.576-2.085-4.62-2.368-2.727-9.773-5.863-13.66-3.118-3.264-1.656 13.077-3.706 5.334 1.473-4.93-7.517-6.86-5.76-1.6 2.208 2.237 2.606 5.043 2.316 8.017.627 3.5-1.972 4.538-2.577.61-.25-4.326-7.657-6.12-6.142-.43-3.882-2.498-.238 9.852-4.996 6.055-5.362-3.74-8.8 3.312-14.675 1.928-3.34.556-11.33 1.427-6.485-3.423 4.53-2.732 6.445-10.99 12.757-6.766 4.825-.28 9.95-3.68 13.89-6.845 3.223-2.173 1.78-7.7-2.17-4.273-3.278 4.927-12.698 4.922-15.523 4.532 2.8-2.652 11.363-3.04 9.237-7.683-3.143.256-8.662 4.965-10.43 2.224 1.098-1.21 4.707-4.56.544-3.097-5.27 1.717-10.92 1.3-16.353.868-5.435-5.32 7.928-3.864 7.735-7.362-1.318-.11-6.522.594-4.247-1.318 4.4.087 8.837.42 11.992-3.754 1.908-1.983 8.548-6.534 6.925-8.133-4.9 2.82-10.045 7.61-16.184 4.82 5.275-3.935-2.038-4.27-5.37-3.887-2.426.75-9.17-2.008-3.402-1.83 3.93.83 7.833-4.613 1.785-3.57-1.266-.39-2.625-.142-3.93-.21zM801.857 164.957c-.23-2.562-1.263-5.107-.836-7.695 1.263-1.845 3.008-3.187 4.63-4.7 2.906-1.62 5.67-3.592 8.954-4.39 2.282-.695 4.26-2.2 5.748-4.04.733-2.215-.562-5.76 1.515-6.954 2.557-1.4 5.324-2.3 7.93-3.586 2.844-.92 5.922-1.062 8.873-.71 2.36 1.015 4.756 1.94 7.1 2.998 2.118 1.03 3.68 2.777 5.112 4.586 1.674 1.528 3.77 2.52 5.74 3.61 1.638.113 1.098 2.235.06 2.152-.675 3.14-4.592.476-5.338-1.374.657-1.22.39 2.785-.865 2.84-2.21.976-2.144-2.786-2.467-4.223.28-1.214-.68-2.655-1.18-.746-1.485 1.635 1.602 5.14-1.625 4.173-2.398-.316-5.078-.81-7.16.78-1.744 1.817 1.887 2.564 3.018 3.445 1.526 1.436 3.566.018 5.342-.16 2.43-.838 5.164-.404 7.416.722 1.04 2.248-1.047 4.483-3.037 5.395-1.86 1.008-3.936 1.444-6.01 1.696-3.038.135-2.448 3.9-5.408 4.203-1.892.8-4.02.982-6.038.717-.397-1.087 2.004-2.807 2.253-4.467 2.174-2.585-3.115-2.114-2.348.35.367 1.672-3.296 4.14-2.058 1.3.058-1.527 1.64-3.9-1.025-2.798-1.458-.013-4.447-.066-3.625 2.2-1.808.383-4.126.424-5.677-.476-.926-2.47-3.812-3.555-5.62-1.31-1.803 2.384-4.306-.742-6.096.494-.023 2.235 2.28 3.404 4.322 3.387 2.064-.182 4.183-.566 6.266-.225 1.917 2.287-1.83 3.004-3.61 2.69-2.396-.087-4.54-1.457-6.978-1.267-1.165-.165-3.82 1.284-1.316 1.478 1.86.378 5.668.252 4.818 3.17-1.458.68-3.264-.067-4.913.637-.968-.25-3.873.534-2.255-.298-.857-1.482-2.513-2.32-3.615-3.605z"/><path d="M812.447 153.27c-.11 0-1.112.696-2.012 1.402-1.474.788-3.047 2.13-4.025 2.805-.77.616-.764.884-1.675 1.052 1.598-.228 2.31-.634 3.688-1.404 1.742-.21 3.43-.58 4.36-1.402.872-.305-.066-1.703-.336-2.455zM827.873 136.79c.193 0 .586 1.095 1.34 1.752.483 1.346.927 2.296 1.006 3.858.41-1.714 1.113-3.09 1.34-4.91-.52-.923-.556-1.356-2.012-1.402 0 .947.11.328-1.675.7zM833.908 137.14v.35c0-.945-.02-.463.335 1.403.554 1.176.67 2.438.67 4.21.88-.658 1.616-1.97 2.013-3.158 0-2.768-.375-2.605-3.018-2.805zM846.315 177.463h.335c-.986 0-.43.06 1.342-1.052 1.147-.8 2.086-1.98 3.69-2.454 1.55-1.274 2.746-1.87 4.357-2.453.785-.378 1.48-1.033 2.347-.35-.25 1.73-.536 2.383-2.012 3.154-.764 1-1.966 1.583-3.017 2.104-1.09.502-2.292.528-2.683 1.754-1.824.84-2.05.7-4.36-.7zM852.687 187.63c.598-.472 2.698-2.662 3.688-3.504 1.12-1.544 2.252-2.725 3.353-3.507.978-1.505 2.23-2.513 3.02-3.858.93-1.18 1.616-2.177 2.68-3.506 0 1.533-.138 3.566.335 4.558 0 2.118-.233 2.697-1.004 4.208-.763 1.24-1.33 2.063-3.02 2.805-1.523.844-2.437 1.14-3.69 2.103-.953.614-1.947 1.225-3.017 1.753-.96.43-.52.243-2.346-1.052zM842.29 195.696h.336c-.986 0-.432.06 1.342-1.052 1.43-1.496 2.57-2.017 4.36-2.805 1.36-.11 3.007-.465 4.024-1.053.81-.15 1.375-.665 2.01 0 1.054 1.488 1.344 1.908-.335 2.805-.802.712-2.218 1.43-3.352 1.753-.837.722-2.495.767-4.024 1.052-1.37 0-2.13.162-2.682-.7l2.683.7c-1.37 0-2.13.162-4.36-.7zM856.71 195.696v-.35c0 .978-.04.46.67-1.403 1.257-1.962 1.73-3.044 3.354-3.507.76-.962 2.078-1.21 3.69-1.754.603 1.054.14 2.282 0 3.507-.44 1.308-1.635 2.232-2.348 3.155-1.046.743-1.472 1.457-3.018 1.754-1.28 0-.6-.035-2.348-1.404z"/><path fill="#c4c4c2" stroke="#000" stroke-width="1.358" d="M817.476 151.165c-.75 0 1.322-.78 2.012-1.052.553-1.217.99-2.08 2.012-2.804 1.68.134 2.504.64 3.354 1.75 1.41.404 1.92 1.107 3.69 1.404.656.58 1.546.647 0 1.052-1.052.58-2.374.7-4.025.7-1.73.13-2.966.53-4.026 1.053-2.244 0-1.884.077-3.018-2.105z"/><ellipse fill="#000" cx="138.108" cy="302.603" rx="1.105" ry="1.105" transform="matrix(1.5 0 0 1.6 612.6 -330.1)"/></g><g fill="#005121" stroke="#002b0e" stroke-width="1.94"><path d="M827.872 247.944h1.34c-4.204 0-1.69-.294 5.366 5.61 2.956-2.576 2.92-2.924 5.366 1.402 1.41 2.463 1.825-.25 4.023-2.804 1.06 5.095 1.737 10.438 5.366 5.61 4.144 0 8.482-.36 10.73 1.402 2.716 5.276 1.827-.895 4.024 1.403 5.906.74 5.794-5.297 12.227-6.858 4 5.224 5.75 1.203 10.732-1.402 3.7 1.082 7.187 6.95 7.89 1.245 3.03-5.166 3.294-4.727 5.367 0 2.945 2.774 4.186-1.387 6.705-2.804 4.49 2.746 9.5 3.127 16.097 1.402 1.117 4.672 3.933 2.645 6.706 1.4 5.934 2.608 8.004 3.406 14.755 0 3.345-4.13 1.45.117 4.023 2.807 5.002-1.625 3.62-1.97 9.39-1.404 5.8 0 6.268-.146 8.048-4.207 2.913 3.046 3.967 5.242 8.047 1.402 6.252.192 4.32.825 8.05-1.403 2.758 6.388 3.406 1.772 6.705 4.206-2.173 5.762-5.512 8.464-9.39 11.22-2.58 4.468-4.192 9.294-9.388 11.222-3.79 4.043-7.83 6.387-12.072 9.817-5.815 1.52-12.215 1.403-18.78 1.403h-56.333c-4.006 2.093-10.56 3.09-16.096 4.206-6.185 0-13.194.077-17.437-1.402-2.876-3.006-7.92-6.365-10.73-9.818-2.844-2.397-2.926-7.077-5.366-9.817-2.245-4.013-2.938-10.292-5.365-14.026v-9.816z"/><path d="M957.978 260.567v1.403c0-3.92.165-1.838-2.683 5.61-.577 1.808-1.84 2.233-4.024 2.804M945.906 266.177h1.34c-4.965 4.905-8.308 7.164-9.39 12.623l9.39-12.623c-4.965 4.905-8.308 7.164-9.39 12.623M927.127 259.165c0 .125-.188 5.003-1.34 7.012M921.763 268.982v1.403-1.403zM911.032 260.567h1.34-1.34zM835.92 260.567c.64 0 3.278 4.452 6.705 7.012-.853 4.102-2.164 8.85 0 12.622M846.65 268.982c.64 0 3.278 4.454 6.706 7.014l-6.707-7.014c.64 0 3.278 4.454 6.706 7.014v1.402c0-4.333-.344-8.87 1.34-11.22 1.492 2.637 3.375 6.88 4.025 2.804 7.555-.282 11.2-2.5 16.097-4.207 0 2.063-.317 1.072 1.34 2.804M967.367 261.97h1.34c-2.528 2.204-4.47 6.7-6.706 9.817M912.374 257.762h10.73"/></g><g fill="#fff"><path d="M824.718 268.43c-16.13 0-21.477 16.857-37.61 16.857-.31 0-.603-.026-.906-.038v1.02c-.06 11.685.858 22.57 2.533 32.732 14.88-1.087 20.408-16.857 35.983-16.857 16.13 0 21.515 16.895 37.646 16.895 16.13 0 21.516-16.895 37.647-16.895s21.516 16.895 37.647 16.895 21.515-16.895 37.647-16.895c15.533 0 21.076 15.66 35.87 16.82 1.772-10.435 2.708-21.646 2.645-33.678v-.038c-.303.01-.598.037-.908.037-16.13 0-21.477-16.858-37.608-16.858-16.132 0-21.516 16.857-37.647 16.857s-21.515-16.858-37.646-16.858c-16.13 0-21.515 16.857-37.646 16.857s-21.515-16.858-37.646-16.858zM824.718 334.234c-12.55 0-18.585 10.172-28.235 14.703 3.37 9.295 7.446 17.755 11.982 25.514 4.582-3.465 9.454-6.463 16.253-6.463 16.13 0 21.515 16.858 37.646 16.858 16.13 0 21.516-16.858 37.647-16.858 16.132 0 21.516 16.858 37.647 16.858s21.515-16.858 37.647-16.858c6.65 0 11.455 2.87 15.95 6.237 4.535-7.723 8.627-16.17 12.02-25.4-9.498-4.59-15.536-14.59-27.97-14.59-16.132 0-21.516 16.858-37.647 16.858s-21.515-16.858-37.646-16.858c-16.13 0-21.514 16.858-37.646 16.858s-21.515-16.858-37.646-16.858zM900.01 400.04c-16.13 0-21.514 16.895-37.645 16.895-15.256 0-20.902-15.103-35.114-16.744 18.995 21.16 40.534 33.97 55.223 41.012 4.968-3.856 10.112 4.686 17.538 4.686 7.374 0 12.49-8.586 17.426-4.762 14.526-7.073 35.802-19.903 54.693-40.86-13.748 2.01-19.447 16.67-34.472 16.67-16.132 0-21.516-16.896-37.647-16.896z"/></g><g stroke="#522108"><g fill="none"><path stroke-width=".737" d="M800.148 342.754c2.647-.922 15.438-5.073 15.88-4.613.44.463 24.7 24.91 24.7 24.91l-20.29 4.15-20.29-24.446z"/><g stroke-width=".751"><path d="M848.358 374.785c.374-5.788 11.21-38.71 11.21-38.71M852.095 375.177c0-.362 8.595-38.74 8.595-38.74M855.04 375.237c.372-2.17 7.144-38.8 7.144-38.8M851.35 364.293c1.867 0 5.604-1.447 5.604-1.447M852.47 359.952c0-.362 5.605-1.447 5.605-1.447M853.216 354.526l5.98-1.085M855.832 349.823c0 .362 4.11.362 4.11.362"/></g><g stroke-width=".737"><path d="M914.897 400.376c-.442-9.912-13.233-66.285-13.233-66.285M910.485 398.517c0-.62-10.146-63.806-10.146-63.806M906.074 393.56c-.44-3.717-7.498-58.85-7.498-58.85M914.455 392.322c-2.205-1.858-8.82-4.337-8.82-4.337M911.367 382.41c-2.205 0-6.616-2.48-6.616-2.48M910.044 374.977c0-.62-6.616-2.48-6.616-2.48M909.162 365.685l-7.058-1.858M906.074 357.63c0 .62-4.85.62-4.85.62M904.75 350.198c-.882 0-4.85 1.238-4.85 1.238"/></g><g stroke-width=".737"><path d="M948.797 372.677c-2.205 0-6.616-1.845-6.616-1.845M952.326 386.053c-.442-7.38-13.233-49.354-13.233-49.354M947.915 384.67c0-.462-10.146-47.508-10.146-47.508M943.504 380.98c-.44-2.768-7.498-43.818-7.498-43.818M947.473 367.142c0-.462-6.616-1.845-6.616-1.845M946.592 360.224l-7.058-1.384M943.504 354.227c0 .462-4.85.462-4.85.462M942.18 348.693c-.882 0-4.85.922-4.85.922"/></g></g><g fill="#dd8b59" stroke-width=".737"><path d="M895.426 391.646c0-.462 1.323-115.77 1.323-115.77s3.97-.463 3.97 0-.44 115.31-.883 115.77c-.44.462-4.853.922-4.41 0zM938.656 280.947c0 .924-.883 97.322-.883 97.322l-3.088 3.69.883-101.013h3.088zM861.903 369.507c.44-2.77.44-86.253.44-86.253l-2.646-.46-.44 85.33 2.646 1.383z"/><path d="M845.14 338.14c1.766 0 31.76-5.072 31.76-5.072l-.44 5.073-29.554 3.23-1.765-3.23zM845.58 311.39c1.766.46 36.172-9.687 36.172-9.687s0 3.23-.44 3.23-35.73 9.685-35.73 9.685v-3.23zM846.906 298.013c-.442 1.845.44 4.153.44 4.153l28.672-10.148s1.323-2.307 0-2.307-29.554 9.227-29.112 8.303zM884.84 291.556c.882 0 29.553-9.686 29.553-9.686s.442 4.15 0 4.15c-.44 0-26.906 8.303-26.906 8.303l-2.647-2.767zM882.634 303.55s-.882 4.15-.44 4.15c.44 0 37.493-10.147 37.493-10.147v-2.768l-37.053 8.764zM883.957 336.297v3.228l31.76-4.612-.882-2.307-30.878 3.69zM920.57 338.603l.44 2.767s31.76-4.15 31.76-4.612c0-.46 0-3.228-.44-3.228-.442 0-31.32 5.535-31.76 5.073zM920.128 309.084l.442 3.228 37.493-10.608s.883-2.767.44-2.767c-.44 0-37.493 11.53-38.375 10.147zM924.098 294.324s-.44 2.767 0 2.767c.442 0 27.79-6.917 27.79-7.38 0-.46 2.647-3.228.442-2.766-2.207.462-27.35 8.764-28.232 7.38z"/></g><g fill="#fecf3e" stroke-width=".737"><path d="M864.108 303.55c3.97-1.385 1.323-4.614 2.205-4.614.883 0 3.97 2.306 5.735.46 1.764-1.843 3.088-7.378 2.206-6.918-.795.416-19.802 7.552-23.926 7.634 2.583.997 10.342 4.635 13.78 3.437zM925.42 297.09s2.207 5.536 4.412 4.614c2.205-.922 4.412-2.768 4.412-2.768s1.765 4.613 4.85 3.69c3.09-.922 4.854-5.997 4.854-5.997s3.087.923 4.41.46c1.325-.46 3.088-7.84 3.088-7.84l-26.025 7.84zM922.775 341.832c-.442.922 2.206 3.23 4.41 3.23 2.206 0 3.09-3.23 3.53-2.308.44.923.44 5.074 6.176 3.69 5.735-1.383 5.735-5.534 5.735-5.534s-1.764 1.384 2.205 1.844c3.97.462 7.94-5.997 7.5-5.997-.442 0-28.672 5.537-29.555 5.075zM922.775 311.85s-4.41 5.074-3.088 11.992c1.323 6.92 3.088 12.915 3.53 12.915.44 0 5.293-9.224 10.586-9.686 5.293-.46 14.997 5.076 14.997 5.076s-1.323-11.07-.88-16.144c.44-5.074 7.938-13.837 7.938-13.837l-33.083 9.686zM846.464 341.832c.442 0 0 4.15 3.528 3.23 3.53-.924 4.412-3.23 4.412-3.23s.88 5.073 5.734 4.613c4.852-.462 7.498-5.997 7.498-5.997s.442 4.15 3.53 2.768c3.088-1.384 3.97-4.613 3.97-4.613l-27.79 4.15-.882-.92zM846.464 314.62s-3.97 1.383-2.647 9.685c1.324 8.302 4.412 12.915 4.852 12.915.44 0 3.97-7.84 9.262-9.224 5.294-1.386 14.557 4.15 14.557 4.15s-.884-7.38.44-14.298c1.324-6.92 5.734-11.993 5.734-11.993s-30.877 8.764-32.2 8.764zM885.722 292.94c1.765.462 4.853 5.073 6.616 4.15 1.765-.92 4.412-3.688 4.412-3.688s-.442 5.534 3.088 4.61c3.528-.92 3.97-4.61 3.97-4.61s2.646 1.383 4.85 0c2.208-1.384 4.412-8.304 3.53-8.304s-25.583 8.304-26.466 7.842zM884.84 306.317c0 .922-4.41 8.302-3.088 15.22 1.323 6.92 3.97 13.377 4.41 13.377.443 0 7.06-7.38 12.794-8.764 5.733-1.384 14.114 4.613 13.674 4.613-.442 0-2.206-6.92-2.206-11.993 0-5.075 6.616-20.757 6.616-20.757l-32.2 8.304zM884.84 339.525c0 .462 1.323 3.69 4.41 3.69 3.088 0 3.53-3.228 3.53-3.228s-.442 5.534 4.41 5.074c4.852-.46 6.617-5.535 6.617-5.535s.442 2.77 4.412 1.385c3.968-1.385 9.262-5.996 8.82-5.996-.44 0-31.758 5.996-32.2 4.61z"/></g><g fill="#dd8b59" stroke-width=".737"><path d="M846.464 372.734s4.41 47.508 55.14 46.124c50.726-1.383 64.84-47.968 64.84-47.968s-21.614-.923-22.055-.923c-.44 0-17.645 22.14-39.7 21.678-22.056-.46-29.113-5.996-33.966-10.607-4.85-4.613-9.262-11.53-9.262-11.53l-25.584-10.61 1.323 10.147 9.264 3.69zM983.41 367.8c-.44-1.385-1.527-6.135-1.527-6.135v-5.535l2.442-5.605s-38.377 5.75-38.377 6.21c0-.53-.236 10.926-.236 10.926l37.7.14z"/><path d="M976.15 356.13l-.883 9.686h6.175l-.44-9.686h-4.853zM969.532 356.592l-.442 10.146 3.97-.46.442-9.686h-3.97zM962.916 366.738v-7.84l3.97-1.384.44 7.84-4.41 1.384zM955.416 366.278l.883-6.918 4.41.46.44 7.38-5.734-.922zM947.035 366.278l.442-5.996 4.41-.462v6.918l-4.852-.46zM942.625 369.967l41.904.924.44-3.23-43.228-.46.883 2.767zM944.39 358.436c4.852 0 41.463-7.38 41.463-7.38s1.324-4.61 0-4.61c-1.323 0-41.464 8.762-41.464 8.762v3.228zM798.825 342.294l33.523 17.066-.88 2.305s-32.203-15.682-32.203-16.144c0-.46.442-2.304-.44-3.226z"/><path d="M814.263 337.22c0 1.383 4.853 29.518 4.853 29.518s3.088.462 3.088 0c0-.46-5.294-29.057-5.294-29.057l-2.647-.46z"/></g><g fill="none"><g stroke-width=".751"><path d="M882.044 389.315c.442-7.668 13.233-51.282 13.233-51.282M886.456 389.834c0-.48 10.146-51.322 10.146-51.322M889.93 389.913c.44-2.875 8.435-51.4 8.435-51.4M882.486 383.084c2.205-1.438 8.82-3.355 8.82-3.355M885.574 375.416c2.205 0 6.616-1.918 6.616-1.918M886.897 369.665c0-.48 6.616-1.918 6.616-1.918M887.78 362.476l7.057-1.438M890.867 356.245c0 .48 4.85.48 4.85.48M892.19 350.494c.882 0 4.85.958 4.85.958"/></g><g stroke-width=".737"><path d="M919.474 388.99c.442-7.38 13.233-49.355 13.233-49.355M923.885 387.605c0-.462 10.146-47.508 10.146-47.508M928.296 383.914c.44-2.767 7.498-43.817 7.498-43.817M919.915 382.992c2.205-1.384 8.82-3.23 8.82-3.23M923.003 375.612c2.205 0 6.616-1.845 6.616-1.845M924.326 370.077c0-.462 6.616-1.845 6.616-1.845M925.208 363.16l7.058-1.385M928.296 357.162c0 .462 4.85.462 4.85.462M929.62 351.628c.882 0 4.85.922 4.85.922"/></g><g stroke-width=".737"><path d="M877.156 384.068c-.442-7.425-13.233-49.65-13.233-49.65M872.744 382.676c0-.465-10.146-47.795-10.146-47.795M868.333 378.963c-.44-2.784-7.498-44.082-7.498-44.082M876.714 378.036c-2.205-1.392-8.82-3.25-8.82-3.25M873.626 370.61c-2.205 0-6.616-1.856-6.616-1.856M872.303 365.043c0-.465-6.616-1.857-6.616-1.857M871.42 358.083l-7.057-1.392M868.333 352.05c0 .465-4.85.465-4.85.465M867.01 346.482c-.882 0-4.85.927-4.85.927"/></g></g><path fill="#b6b6b4" stroke-width=".737" d="M834.995 359.36s-8.82-1.385-8.38.92c.44 2.307 4.41 4.614 4.852 5.997.44 1.384-1.323 6.457 1.323 5.997 2.647-.462 5.293-2.307 5.293-3.69s-.44-7.84-.44-7.84l-2.648-1.385z"/><g fill="none" stroke-width=".737"><path d="M844.7 372.274c1.322 0 11.468 2.306 11.468 2.306l10.586 14.76"/><path d="M852.2 374.118c.44.462 9.262 31.364 51.608 31.364S956.3 370.43 956.3 370.43"/><path d="M962.916 371.35s-20.29 46.125-59.108 42.896c-38.818-3.227-44.993-18.45-48.08-26.29-3.09-7.84-4.853-14.298-4.853-14.298M951.888 333.99c.442-1.384 1.765-29.057 1.765-29.057M982.765 347.828l-27.349-45.203M899.838 277.258c0-.462 13.674 5.996 13.674 6.457 0 .46 48.52 67.803 48.963 67.803M938.214 283.714l12.35 5.536 3.97 10.146M861.462 282.793c-.442 0 13.674 11.07 13.674 11.07l1.765 9.225M813.38 350.134c6.176-2.767 48.963-41.974 48.963-41.974M801.912 342.754c5.295-4.613 48.08-42.434 48.08-42.434M882.194 306.777l45.434 78.872M922.268 339.393s5.36 18.583 10.653 21.35c5.294 2.767 11.47 7.38 11.47 7.38"/><path d="M921.656 339.78s3.765 21.885 9.058 26.037c5.293 4.15 10.588 8.763 10.588 8.763M885.067 338.25s5.293 30.443 15.88 37.362c10.587 6.918 19.408 12.914 19.408 12.914"/><path d="M884.627 337.79s11.468 23.986 21.172 31.366c9.704 7.378 22.936 14.298 22.936 14.298M847.574 339.635c3.087 5.535 2.647 16.144 6.175 19.833 3.527 3.69 8.822 11.993 8.822 11.993"/><path d="M848.456 340.097c1.765 2.767 6.686 16.547 9.704 20.755 2.207 3.69 24.702 27.213 24.702 27.213"/></g><g stroke-width=".475"><ellipse rx="3.308" ry="3.459" cx="872.054" cy="389.219"/><ellipse rx="2.867" ry="2.998" cx="888.817" cy="396.599"/><ellipse rx="2.867" ry="2.998" cx="909.549" cy="398.444"/><ellipse rx="2.647" ry="2.537" cx="928.075" cy="391.294"/><ellipse rx="2.426" ry="2.998" cx="942.191" cy="382.3"/></g><g fill="#ff0101" stroke-width=".737"><path d="M859.483 283.363c-1.323.924-23.38 6.458-20.29 5.996 3.086-.46 20.732 4.612 20.29 3.23-.442-1.385 0-8.303 0-9.227zM896.978 276.445c-.883 0-13.676 5.075-13.234 5.075s14.557 4.15 14.116 3.227c-.442-.922-.442-6.918-.882-8.302zM935.354 281.057c-.883.462-15.88 4.15-13.234 4.613 2.646.462 12.792 4.15 12.792 3.23 0-.925 0-7.38.442-7.843z"/></g><g fill="#be1017" stroke-width=".581" transform="matrix(0 -1.3 1.2 .1 0 0)"><circle r="1.889" cx="-216.002" cy="726.377"/><circle r="1.889" cx="-212.218" cy="739.051"/><circle r="1.889" cx="-219.249" cy="732.918"/><circle r="1.889" cx="-208.971" cy="732.51"/><circle r="1.889" cx="-214.11" cy="732.714"/></g></g></svg>