<svg xmlns="http://www.w3.org/2000/svg" xmlns:xlink="http://www.w3.org/1999/xlink" version="1" width="600" height="300"><rect width="600" height="300" rx="0" ry="0" fill="#fff" fill-rule="evenodd"/><rect id="a" y="120" ry="0" rx="0" height="60" width="600" fill="#c00" fill-rule="evenodd"/><use xlink:href="#a" height="300" width="600" transform="matrix(0 .5 -1 0 450 0)"/><path d="M322.003 91.63c1.926-3.01.774-4.957-2.138-5.558 0 0-9.292 2.98-19.327 3.305-10.035.327-21.957-2.523-21.957-2.523-2.138 1.34-1.616 4.525-.555 6.513 0 0 10.505 3.49 22.464 3.147 7.595-.217 14.793-2.155 18.83-3.44 2.32-.738 2.684-1.41 2.683-1.443z" fill="#ebeae3" fill-rule="evenodd" stroke="#000" stroke-width=".326"/><path d="M300 223.47l-19.286-40.066-44.34 3.33L261.427 150l-25.055-36.735 44.34 3.33L300 76.53l19.286 40.066 44.34-3.33L338.573 150l25.055 36.735-44.34-3.33L300 223.47z" fill="#fff" stroke="#161111" stroke-width="1.00015302"/><g fill="#c00" stroke="#161111" stroke-width=".075"><path d="M15.776 11.622c.115-.118.3-.248.403-.53.095-.265.142-.75.23-.996.114-.422.345-.833.07-.805-.262.028-.347.29-.446.482-.046.07-.09.24-.11.328-.013.055-.014.114-.064.14.072-.64-.1-1.12-.16-2.07-.023-.397-.086-.797-.286-.8-.15-.002-.175.204-.2.358 0-.218.01-.677-.242-.677-.305 0-.213.642-.254.967-.007-.115-.01-.362-.043-.522-.012-.06-.037-.107-.067-.134-.018-.016-.045-.025-.084-.025-.275 0-.27.4-.26.798.004.042 0 .233.004.358 0-.216.002-.64-.217-.622-.18.015-.195.493-.203.747.012.254-.073.846-.103 1.014-.008.118-.053.273-.072.44-.042.357-.002.776.043.99.09.34.328.49.316.72-.01.23 0 .635 0 .817 0 .18.153.19.468.12.514-.114.795.115 1.22-.054-.054-.502.07-.86.058-1.04z" transform="matrix(13.5 0 0 13 99 17.6)"/><g stroke-width=".541"><path d="M149.023 76.45c.768-2.175 1.738-3.03 2.674-3.503M150.418 83.95c.067-.446.34-.8.717-1.18M140.21 59.897c.054 1.923.167 5.623.167 6.507M147.08 54.64c-.108 1.022.013 1.85-.01 2.894-.015.696.096 1.975.183 3.525-.022.56.17 3.354-.005 4.39M143.463 56.556c.036.38.025.84.043 1.35.085 2.463.03 6.135.102 7.922" transform="matrix(1.9 0 0 1.8 29.3 18)"/></g></g><path d="M299.712 76.392c24.227 3.994 23.362 5.125 23.362 5.125l6.323-18.902s.665-3.728-1.065-5.99c-1.73-2.264-6.59-1-6.59-1s-.665-3.06-2.795-3.793c-2.13-.732-10.05 2.862-12.513 3.66-2.462.8-3.727 1.598-7.188 1.532-3.46-.067-9.65-3.128-10.782-3.727-1.132-.6-2.796-1.2-4.327-1.132-1.53.067-3.128.466-3.927 1.53-.798 1.066-.798 2.397-.798 2.397s-1.265-.8-3.262-.8c-1.996 0-3.128.267-4.06 1.332-.932 1.065-2.13 4.06-2.13 4.06l2.263 5.125.134 7.055 4.725 7.454 22.63-3.928z" fill="#b02320" fill-rule="evenodd" stroke="#000" stroke-width=".815"/><path d="M322.296 87.072s1.22 1.454 1.173 1.97c-.048.516-.564.986-.564.986s.376.375.282.938c-.094.563-.845.61-.845.61s.14.516-.328.75c-.47.235-2.393.657-2.393.657s-9.384-2.674-19.424-2.674-21.864 3.236-21.864 3.236-1.22-.422-1.267-1.22c-.047-.797.14-1.36.14-1.36s-.667.07-.844-.516c-.247-.82.094-1.455.094-1.455s-.465.15.047-.938c.376-.798.94-1.08.94-1.08s10.508-3.753 22.472-3.8c11.964-.046 22.38 3.8 22.38 3.895z" fill="#ebeae3" fill-rule="evenodd" stroke="#000" stroke-width=".326"/><path d="M272.643 63.435s-.4-1.363.48-2.565c.882-1.2 2.485-1.12 2.965-.88.48.24.4.8 1.042.96.64.16 1.122-.32 1.122-.32" fill="none" stroke="#000" stroke-width=".717"/><path d="M331.14 66.624l-3.64 7.53-1.43.25s-.872-.525-3.362-.352c-1.782.126-2.31.577-2.31.577l3.24-7.504s.25 1.612.626 2.56c.477 1.204 2.284 2.333 2.284 2.333s.25-1.44-.226-3.188c-.527-1.932-1.757-4.542-1.757-4.542l6.575 2.334z" fill="#fc0" fill-opacity=".941" fill-rule="evenodd" stroke="#000" stroke-width=".75"/><path fill="#121116" stroke="#121116" stroke-width=".731" stroke-linejoin="round" d="M297.808 43.225h4.073v17.31h-4.072z"/><path d="M272.85 75.147l2.615 5.597s11.132-4.34 24.27-4.26c19.71.123 25.307 4.077 25.307 4.077l2.92-6.934-2.19 1.278-2.25 1.4-2.556.972-3.102-.243-2.738-2.007-1.4-2.92-2.31 2.13-4.076.91-4.015-1.033-3.528-4.44s-2.628 4.936-5.96 5.23c-4.807.427-7.605-2.31-7.605-2.31s-1.786 4.014-4.745 4.744c-4.683 1.156-8.577-2.19-8.637-2.19z" fill="#f6ca1f" fill-rule="evenodd" stroke="#000" stroke-width=".619"/><g stroke-width="2.243"><path d="M317.78 41.03c0 1.175-.94 2.13-2.1 2.13-1.16.004-2.102-.946-2.107-2.122-.005-1.176.93-2.134 2.09-2.14 1.16-.008 2.107.94 2.116 2.115" fill="#eee" stroke="#1e1e1e" stroke-linejoin="round" stroke-width=".7311507099999999"/><path d="M314.697 42.124s1.7-.03 1.872-.72c.172-.692-.116-1.585-.116-1.585s.807.892.576 1.584c-.23.69-.456.87-1.037 1.008-.393.094-.98-.057-1.296-.288z" fill="#a3afb8" fill-rule="evenodd"/><path d="M312.67 43.418c0 1.176-.94 2.13-2.1 2.132-1.16.002-2.102-.948-2.107-2.124-.004-1.176.93-2.133 2.09-2.14 1.16-.007 2.108.94 2.117 2.115" fill="#eee" stroke="#1e1e1e" stroke-linejoin="round" stroke-width=".7311507099999999"/><path d="M309.587 44.513s1.7-.03 1.873-.72c.172-.692-.116-1.585-.116-1.585s.807.893.577 1.584c-.23.692-.456.87-1.037 1.01-.393.092-.98-.06-1.296-.29z" fill="#a3afb8" fill-rule="evenodd"/><path d="M323.712 39.628c0 1.176-.94 2.13-2.1 2.133-1.16.003-2.102-.947-2.107-2.123-.004-1.176.93-2.134 2.09-2.14 1.16-.008 2.108.94 2.117 2.115" fill="#eee" stroke="#1e1e1e" stroke-linejoin="round" stroke-width=".7311507099999999"/><path d="M320.63 40.723s1.7-.03 1.872-.72c.173-.69-.115-1.585-.115-1.585s.806.894.576 1.585c-.23.69-.457.87-1.037 1.008-.394.095-.98-.056-1.297-.287z" fill="#a3afb8" fill-rule="evenodd"/><path d="M330.394 40.973c0 1.176-.94 2.13-2.1 2.132-1.16.003-2.102-.948-2.106-2.123-.005-1.176.93-2.134 2.09-2.14 1.16-.008 2.107.938 2.116 2.114" fill="#eee" stroke="#1e1e1e" stroke-linejoin="round" stroke-width=".7311507099999999"/><path d="M327.312 42.068s1.7-.03 1.872-.72c.173-.692-.115-1.585-.115-1.585s.806.893.575 1.585c-.23.69-.456.87-1.037 1.008-.393.094-.98-.058-1.296-.288z" fill="#a3afb8" fill-rule="evenodd"/><path d="M335.488 45.17c0 1.176-.94 2.13-2.1 2.132-1.16.002-2.102-.948-2.107-2.124-.003-1.175.932-2.133 2.092-2.14 1.16-.007 2.107.94 2.116 2.115" fill="#eee" stroke="#1e1e1e" stroke-linejoin="round" stroke-width=".7311507099999999"/><path d="M332.405 46.265s1.7-.03 1.873-.72c.173-.692-.116-1.585-.116-1.585s.807.893.577 1.585c-.232.69-.458.87-1.04 1.008-.392.094-.978-.058-1.295-.288z" fill="#a3afb8" fill-rule="evenodd"/><path d="M337.688 52.056c0 1.176-.94 2.13-2.1 2.132-1.16.003-2.102-.948-2.106-2.123-.005-1.176.93-2.134 2.09-2.14 1.16-.008 2.107.94 2.116 2.114" fill="#eee" stroke="#1e1e1e" stroke-linejoin="round" stroke-width=".7311507099999999"/><path d="M334.605 53.15s1.7-.028 1.873-.72c.173-.69-.115-1.584-.115-1.584s.806.893.576 1.585c-.232.692-.458.87-1.038 1.01-.394.093-.98-.06-1.297-.29z" fill="#a3afb8" fill-rule="evenodd"/><path d="M336.873 59.024c0 1.176-.94 2.13-2.1 2.132-1.16.002-2.102-.948-2.106-2.124-.005-1.176.93-2.133 2.09-2.14 1.16-.007 2.107.94 2.116 2.115" fill="#eee" stroke="#1e1e1e" stroke-linejoin="round" stroke-width=".7311507099999999"/><path d="M333.79 60.12s1.7-.03 1.873-.722c.173-.69-.115-1.584-.115-1.584s.807.893.576 1.584c-.23.692-.457.87-1.037 1.01-.394.092-.98-.06-1.297-.29z" fill="#a3afb8" fill-rule="evenodd"/><path d="M333.776 65.136c0 1.176-.94 2.13-2.1 2.132-1.16.002-2.102-.948-2.106-2.124-.005-1.176.93-2.133 2.09-2.14 1.16-.007 2.107.94 2.116 2.115" fill="#eee" stroke="#1e1e1e" stroke-linejoin="round" stroke-width=".7311507099999999"/><path d="M330.693 66.23s1.7-.028 1.873-.72c.173-.69-.115-1.584-.115-1.584s.808.893.577 1.584c-.23.692-.456.87-1.037 1.01-.393.092-.98-.06-1.297-.29z" fill="#a3afb8" fill-rule="evenodd"/><path d="M307.7 45.25c0 1.177-.94 2.13-2.1 2.134-1.16.002-2.103-.948-2.108-2.124-.004-1.176.93-2.134 2.09-2.14 1.16-.008 2.107.94 2.117 2.115" fill="#eee" stroke="#1e1e1e" stroke-linejoin="round" stroke-width=".7311507099999999"/><path d="M304.616 46.346s1.7-.03 1.873-.72c.17-.69-.117-1.585-.117-1.585s.807.895.577 1.586c-.23.69-.457.87-1.038 1.008-.393.094-.98-.057-1.296-.288z" fill="#a3afb8" fill-rule="evenodd"/><g stroke-width="2.682"><path d="M301.344 44.706c0 .983-.785 1.78-1.755 1.783-.97 0-1.76-.793-1.764-1.777-.003-.983.78-1.784 1.75-1.79.97-.006 1.76.786 1.768 1.77" fill="#eee" stroke="#1e1e1e" stroke-linejoin="round" stroke-width=".7311132"/><path d="M298.766 45.622s1.422-.024 1.566-.603c.145-.58-.096-1.326-.096-1.326s.674.747.482 1.325c-.193.578-.382.727-.868.843-.33.078-.82-.05-1.084-.24z" fill="#a3afb8" fill-rule="evenodd"/></g><g stroke-width="2.682"><path d="M301.365 46.922c0 .983-.786 1.78-1.756 1.783-.97.002-1.76-.793-1.763-1.776-.004-.984.778-1.785 1.748-1.79.97-.007 1.762.785 1.77 1.768" fill="#eee" stroke="#1e1e1e" stroke-linejoin="round" stroke-width=".7311132"/><path d="M298.786 47.838s1.422-.024 1.567-.603c.144-.578-.097-1.325-.097-1.325s.675.747.482 1.325c-.193.58-.382.728-.867.844-.328.077-.82-.05-1.084-.242z" fill="#a3afb8" fill-rule="evenodd"/></g><g stroke-width="2.682"><path d="M301.487 50.182c0 .983-.786 1.78-1.756 1.783-.97.002-1.757-.793-1.76-1.776-.005-.984.777-1.785 1.747-1.79.97-.007 1.762.784 1.77 1.768" fill="#eee" stroke="#1e1e1e" stroke-linejoin="round" stroke-width=".7311132"/><path d="M298.91 51.097s1.42-.024 1.565-.602c.144-.578-.097-1.325-.097-1.325s.675.747.482 1.325c-.192.578-.382.728-.867.843-.33.08-.82-.048-1.084-.24z" fill="#a3afb8" fill-rule="evenodd"/></g><g stroke-width="2.48"><path d="M301.67 53.645c0 1.064-.85 1.926-1.9 1.928-1.05.003-1.9-.857-1.905-1.92-.005-1.064.84-1.93 1.89-1.936 1.05-.006 1.906.85 1.914 1.913" fill="#eee" stroke="#1e1e1e" stroke-linejoin="round" stroke-width=".731104"/><path d="M298.88 54.635s1.538-.026 1.694-.65c.157-.626-.104-1.434-.104-1.434s.73.81.52 1.434c-.207.625-.412.787-.937.912-.355.085-.886-.052-1.172-.26z" fill="#a3afb8" fill-rule="evenodd"/></g><path d="M301.872 58.29c0 1.176-.94 2.13-2.1 2.132-1.16.003-2.102-.947-2.107-2.123-.004-1.177.93-2.135 2.09-2.142 1.16-.007 2.108.94 2.117 2.116" fill="#eee" stroke="#1e1e1e" stroke-linejoin="round" stroke-width=".7311507099999999"/><path d="M298.79 59.385s1.7-.03 1.872-.72c.173-.692-.115-1.585-.115-1.585s.806.893.576 1.585c-.23.69-.457.87-1.037 1.008-.394.094-.98-.057-1.297-.288z" fill="#a3afb8" fill-rule="evenodd"/><g stroke-width="2.388"><path d="M301.66 67.823c0 1.105-.88 2-1.97 2.003-1.09.002-1.975-.89-1.98-1.995-.004-1.103.875-2.003 1.964-2.01 1.09-.006 1.98.883 1.987 1.988" fill="#eee" stroke="#1e1e1e" stroke-linejoin="round" stroke-width=".73106232"/><path d="M298.766 68.85s1.596-.026 1.76-.675c.16-.65-.11-1.488-.11-1.488s.758.84.542 1.488c-.217.65-.43.817-.974.947-.37.088-.92-.054-1.218-.27z" fill="#a3afb8" fill-rule="evenodd"/></g><path d="M295.97 45.195c0 1.176-.94 2.13-2.1 2.132-1.16.002-2.102-.948-2.106-2.124-.005-1.176.93-2.133 2.09-2.14 1.16-.007 2.107.94 2.116 2.115" fill="#eee" stroke="#1e1e1e" stroke-linejoin="round" stroke-width=".7311507099999999"/><path d="M292.887 46.29s1.7-.03 1.873-.72c.173-.692-.115-1.585-.115-1.585s.807.893.576 1.584c-.23.69-.456.87-1.036 1.008-.394.093-.98-.058-1.297-.288z" fill="#a3afb8" fill-rule="evenodd"/><g><path d="M290.756 43.138c0 1.176-.94 2.13-2.1 2.133-1.16.003-2.102-.947-2.107-2.123-.006-1.176.93-2.134 2.09-2.14 1.16-.008 2.106.94 2.115 2.115" fill="#eee" stroke="#1e1e1e" stroke-linejoin="round" stroke-width=".7311507099999999"/><path d="M287.673 44.233s1.7-.03 1.872-.72c.173-.692-.115-1.585-.115-1.585s.807.893.576 1.585c-.23.69-.456.87-1.037 1.008-.394.095-.98-.056-1.297-.287z" fill="#a3afb8" fill-rule="evenodd"/></g><g><path d="M285.76 40.788c0 1.176-.938 2.13-2.098 2.132-1.16.003-2.103-.948-2.107-2.123-.005-1.176.93-2.134 2.09-2.14 1.16-.008 2.107.94 2.116 2.114" fill="#eee" stroke="#1e1e1e" stroke-linejoin="round" stroke-width=".7311507099999999"/><path d="M282.678 41.883s1.7-.03 1.873-.72c.174-.692-.114-1.585-.114-1.585s.807.893.576 1.585c-.23.69-.457.87-1.037 1.008-.394.095-.98-.057-1.297-.287z" fill="#a3afb8" fill-rule="evenodd"/></g><g><path d="M280.032 39.54c0 1.175-.94 2.13-2.1 2.132-1.16.002-2.1-.948-2.106-2.124-.005-1.176.93-2.133 2.09-2.14 1.16-.007 2.107.94 2.116 2.115" fill="#eee" stroke="#1e1e1e" stroke-linejoin="round" stroke-width=".7311507099999999"/><path d="M276.95 40.634s1.7-.028 1.872-.72c.173-.69-.115-1.585-.115-1.585s.807.893.576 1.584c-.23.692-.456.87-1.037 1.01-.393.092-.98-.06-1.296-.29z" fill="#a3afb8" fill-rule="evenodd"/></g><g><path d="M273.275 41.155c0 1.176-.94 2.13-2.1 2.133-1.16.002-2.1-.948-2.106-2.124-.006-1.176.93-2.134 2.09-2.14 1.16-.008 2.106.94 2.115 2.115" fill="#eee" stroke="#1e1e1e" stroke-linejoin="round" stroke-width=".7311507099999999"/><path d="M270.193 42.25s1.7-.03 1.872-.72c.173-.692-.115-1.585-.115-1.585s.807.893.576 1.585c-.23.69-.456.87-1.037 1.008-.394.094-.98-.057-1.297-.288z" fill="#a3afb8" fill-rule="evenodd"/></g><g><path d="M268.502 45.93c0 1.175-.94 2.13-2.1 2.13-1.16.004-2.102-.946-2.107-2.122-.005-1.176.93-2.134 2.09-2.14 1.16-.008 2.107.94 2.116 2.115" fill="#eee" stroke="#1e1e1e" stroke-linejoin="round" stroke-width=".7311507099999999"/><path d="M265.42 47.024s1.7-.03 1.87-.72c.174-.692-.114-1.585-.114-1.585s.807.892.576 1.584c-.23.69-.456.87-1.037 1.008-.393.094-.98-.057-1.296-.288z" fill="#a3afb8" fill-rule="evenodd"/></g><g><path d="M266.52 52.613c0 1.176-.94 2.13-2.1 2.132-1.16.002-2.103-.948-2.108-2.124-.005-1.175.93-2.132 2.09-2.14 1.16-.006 2.107.94 2.116 2.116" fill="#eee" stroke="#1e1e1e" stroke-linejoin="round" stroke-width=".7311507099999999"/><path d="M263.436 53.708s1.7-.03 1.872-.72c.173-.692-.115-1.585-.115-1.585s.807.893.576 1.584c-.23.692-.457.87-1.038 1.01-.393.092-.98-.06-1.296-.29z" fill="#a3afb8" fill-rule="evenodd"/></g><g><path d="M267.4 59.59c0 1.176-.94 2.13-2.1 2.132-1.16.003-2.102-.947-2.107-2.123-.004-1.177.93-2.135 2.09-2.142 1.16-.007 2.108.94 2.117 2.115" fill="#eee" stroke="#1e1e1e" stroke-linejoin="round" stroke-width=".7311507099999999"/><path d="M264.317 60.685s1.7-.03 1.873-.72c.173-.692-.115-1.585-.115-1.585s.806.893.576 1.585c-.23.69-.456.87-1.036 1.008-.394.094-.98-.057-1.297-.288z" fill="#a3afb8" fill-rule="evenodd"/></g><g><path d="M270.63 65.906c0 1.176-.938 2.13-2.098 2.133-1.16 0-2.103-.95-2.107-2.125-.005-1.176.93-2.134 2.09-2.14 1.16-.007 2.107.94 2.116 2.115" fill="#eee" stroke="#1e1e1e" stroke-linejoin="round" stroke-width=".7311507099999999"/><path d="M267.55 67s1.698-.027 1.87-.72c.174-.69-.114-1.584-.114-1.584s.807.894.576 1.585c-.23.693-.456.87-1.037 1.01-.393.093-.98-.058-1.296-.29z" fill="#a3afb8" fill-rule="evenodd"/></g><g stroke-width="2.832"><path d="M430.628 247.41c0 3.607-2.88 6.533-6.44 6.54-3.558.008-6.45-2.907-6.465-6.515-.014-3.607 2.856-6.545 6.415-6.566 3.558-.022 6.462 2.88 6.49 6.488" fill="#eee" stroke="#1e1e1e" stroke-linejoin="round" transform="matrix(.2 -.1 .1 .3 168.4 18.8)"/><path d="M277.71 51.913s1.035-.548.93-1.237c-.107-.69-.558-1.423-.558-1.423s.77.574.84 1.282c.07.707-.013.94-.327 1.246-.213.208-.62.248-.884.133z" fill="#a3afb8" fill-rule="evenodd"/></g><g stroke-width="2.832"><path d="M430.628 247.41c0 3.607-2.88 6.533-6.44 6.54-3.558.008-6.45-2.907-6.465-6.515-.014-3.607 2.856-6.545 6.415-6.566 3.558-.022 6.462 2.88 6.49 6.488" fill="#eee" stroke="#1e1e1e" stroke-linejoin="round" transform="matrix(.2 0 -.1 .3 262.5 -25.1)"/><path d="M321.657 50.13s1.052-.026 1.37-.662c.318-.637.416-1.46.416-1.46s.22.823-.133 1.46c-.353.636-.547.8-.946.928-.27.086-.583-.053-.707-.266z" fill="#a3afb8" fill-rule="evenodd"/></g></g><path d="M297.952 33.632l.15 3.562s-4.222.37-4.394.758c-.82 1.84.985 4.32.985 4.32s1.42-1.06 5.002-1.06c3.41 0 5.153.832 5.153.832s.91-1.44.91-2.5-.38-2.122-.38-2.122-1.743-.228-2.273-.228h-1.516l-.152-3.637-3.486.075z" fill="#b3a192" fill-rule="evenodd" stroke="#000" stroke-width=".731"/><path d="M303.974 39.158c0 .4-.337.724-.754.725-.417 0-.755-.322-.757-.722-.002-.398.334-.723.75-.726.418-.002.758.32.76.72M305.715 39.546c0 .417-.352.755-.787.756-.435 0-.788-.336-.79-.753-.002-.417.35-.757.784-.76.435-.002.79.333.793.75M302.23 39.13c0 .4-.336.724-.753.725-.417 0-.756-.322-.757-.72-.002-.4.334-.726.75-.73.418 0 .758.32.76.72M298.738 39.17c0 .415-.35.753-.785.754-.434 0-.786-.335-.788-.75-.002-.417.348-.755.782-.758.433-.002.788.332.79.748M296.8 39.3c0 .415-.352.752-.786.753-.434 0-.786-.335-.788-.75-.002-.416.348-.755.782-.757.433-.003.787.33.79.747M300.358 37.118c0 .35-.296.636-.662.636-.366 0-.663-.282-.665-.633 0-.35.295-.635.66-.637.367-.003.665.28.668.63M300.358 34.163c0 .35-.296.635-.662.636-.366 0-.663-.284-.665-.634 0-.35.295-.637.66-.64.367 0 .665.28.668.632M300.358 35.754c0 .35-.296.636-.662.636-.366 0-.663-.282-.665-.633 0-.35.295-.636.66-.64.367 0 .665.282.668.632M294.834 39.827c0 .4-.34.727-.758.728-.418 0-.758-.324-.76-.725-.002-.4.336-.728.754-.73.42-.002.76.32.764.72" fill="#f0ddcb" stroke="#121116" stroke-width=".373" stroke-linejoin="round"/><path d="M300.528 38.975c0 .44-.372.795-.832.796-.46.002-.833-.353-.835-.792 0-.44.37-.796.83-.8.46 0 .835.352.838.79" fill="#916c68" stroke="#4d3126" stroke-width=".373" stroke-linejoin="round"/><g stroke-width="2.534"><path d="M301.29 28.406c0 .87-.696 1.576-1.554 1.578-.86.002-1.557-.702-1.56-1.572-.003-.87.69-1.58 1.547-1.584.86-.005 1.56.695 1.566 1.566" fill="#eee" stroke="#1e1e1e" stroke-width=".73122875" stroke-linejoin="round"/><path d="M299.007 29.216s1.26-.02 1.387-.533c.127-.512-.086-1.173-.086-1.173s.597.66.427 1.173c-.17.512-.338.644-.768.746-.29.07-.725-.043-.96-.214z" fill="#a3afb8" fill-rule="evenodd"/></g><path d="M274.98 81.335s1.388 1.296 1.76 2.453c.37 1.158.924 4.26.924 4.26s14.537-4.028 21.666-3.704c7.13.324 23.564 3.935 23.564 3.935s.278-1.76.602-3.612c.324-1.852 1.667-3.89 1.667-3.89s-15.694-4.906-25.6-4.443c-9.908.463-14.862 1.528-17.084 2.222-2.223.694-7.64 2.824-7.5 2.778z" fill="#fc0" fill-rule="evenodd" stroke="#000" stroke-width=".326"/><path d="M296.663 22.53h6.252s-1.542 1.067-1.856 2.084c-.272.875-.19 2.31-.19 2.31s1.704 0 2.462-.643c.758-.643 2.35-1.78 2.35-1.78v7.958s-1.535-1.484-2.463-1.97c-1.117-.585-2.237-.797-2.237-.797s0 1.29.53 2.048 2.653 3.637 2.653 3.637l-8.943.34s2.12-2.235 2.994-3.864c.568-1.06.34-2.16.34-2.16s-1.515 0-2.273.532c-.758.53-2.084 2.122-2.084 2.122V24.69s.57 1.477 1.82 2.046c1.25.568 2.424.265 2.424.265s.243-1.522-.265-2.462c-.525-.97-1.63-2.046-1.517-2.008z" fill="#fc0" fill-rule="evenodd" stroke="#000" stroke-width=".731"/><path d="M296.173 47.78s-4.448-.053-8.252-2.304c-3.804-2.25-7.642-4.608-13.29-3.27-1.156.275-5.412 2.145-7.287 8.2-1.316 4.25.214 9.378 1.554 11.682 1.34 2.305 3.5 4.64 3.5 4.64l2.298-1.556s-5.852-4.96-5.155-11.39c.697-6.43 3.912-7.93 3.912-7.93s3.965-3.11 9.27-.162c5.306 2.948 10.504 4.287 10.504 4.287s4.876 1.18 5.305 1.126c.43-.054-2.464-3.376-2.357-3.323z" fill="#fc0" fill-rule="evenodd" stroke="#121116" stroke-width=".731"/><path d="M271.572 71.9l-2.363-4.645 7.09-2.77s-1.713 2.28-2.12 3.91c-.498 1.99-.326 3.668-.326 3.668s.652-.49 1.467-1.793c.62-.99 1.63-4.564 1.63-4.564l3.18 10.187c.023.027-1.635-1.634-2.8-1.83-1.315-.224-2.906.2-2.906.2l-1.874.57-.978-2.933z" fill="#fc0" fill-rule="evenodd" stroke="#000" stroke-width=".75"/><path d="M304.19 47.697s4.447-.054 8.252-2.305c3.805-2.25 7.642-4.608 13.29-3.27 1.156.276 5.412 2.145 7.288 8.2 1.316 4.25-.215 9.378-1.554 11.683-1.34 2.304-2.25 3.66-2.25 3.66l-2.763-.992s5.066-4.544 4.37-10.975c-.697-6.43-3.912-7.93-3.912-7.93s-3.965-3.11-9.27-.16c-5.305 2.946-10.503 4.286-10.503 4.286s-4.877 1.18-5.305 1.125c-.43-.055 2.465-3.377 2.357-3.324z" fill="#fc0" fill-rule="evenodd" stroke="#121116" stroke-width=".731"/><path fill="#fc0" stroke="#121116" stroke-width=".731" stroke-linejoin="round" d="M301.892 43.295h1.857v17.317h-1.858zM295.64 43.22h2.198v17.316h-2.198z"/><path d="M305.757 39.202c0 3.073-2.706 5.565-6.05 5.57-3.344.007-6.062-2.475-6.075-5.547-.013-3.072 2.683-5.574 6.027-5.592 3.342-.02 6.07 2.454 6.097 5.526" fill="#fc0" stroke="#121116" stroke-width=".731" stroke-linejoin="round"/><path d="M294.317 60.467l10.426-.086s-1.223.73-2.274 2.597c-1.052 1.866-.902 3.046-.902 3.046s1.587-.02 2.703-.837c1.116-.815 2.36-2.338 2.36-2.338l-.042 9.61s-.75-1.222-1.995-1.95c-1.245-.73-3.004-.73-3.004-.73h-3.562s-1.628.096-2.36.58c-1.03.68-2.317 1.994-2.317 1.994l-.17-9.075s.515 1.588 2.188 2.23c1.673.645 2.617.56 2.617.56s0-2.04-.858-3.09c-.858-1.05-2.81-2.467-2.81-2.51z" fill="#fc0" fill-rule="evenodd" stroke="#000" stroke-width=".619"/><path d="M300.126 68.013s1.525 3.56 3.3 5.13c1.03.915 4.136 1.604 5.54 1.245 3.153-.805 5.32-3.328 5.32-3.328s-.112 2.764 1.863 4.288c1.973 1.523 3.553 1.918 5.19 1.466 1.635-.45 6.26-3.892 6.26-3.892l.96.846s-2.653 2.576-5.44 3.944c-1.437.704-5.795.313-7.206-.815-1.41-1.13-2.248-3.863-2.248-3.863s-.868 1.758-2.73 2.38c-1.862.62-4.42.592-6.796-.102-1.6-.467-3.676-2.673-4.07-3.406-.395-.733-.283-1.128-.283-1.128s-1.17 3.358-3.61 4.274c-2.304.865-4.93.872-7.16.23-2.256-.648-2.43-1.91-2.43-1.91s-.17 3.555-5.08 4.57c-4.908 1.016-8.8-2.594-8.8-2.594l.677-1.016s2.764 3.103 6.996 2.82c4.23-.28 5.64-5.697 5.64-5.697s1.863 2.82 6.828 2.877c4.965.056 6.375-6.432 6.375-6.432l.903.113z" fill="#f6ca1f" fill-rule="evenodd" stroke="#000" stroke-width=".587"/><g fill="#fc0" stroke="#000" stroke-width="2.2"><path d="M287.893 70.084s.037-1.728.41-2.247c.525-.737 1.242-.767 1.607-.664.45.126.92.536.843 1.736-.077 1.2-.41 1.787-.05 2.246.356.46.408.766 1.097.664.69-.102.996-.332.843-.97-.154-.638-.358.05-.486-.485-.127-.536.667-2.853.537-4.29-.128-1.405-.664-2.528-1.737-2.81-1.008-.263-1.864-.254-2.81.435-.905.66-2.067 2.834-2.067 2.834l-.025 4.648 1.89-.102-.052-.996z" fill-rule="evenodd" stroke-width=".717134"/><path d="M284.373 71.335s-.723-1.57-1.27-1.898c-.777-.466-1.446-.208-1.74.032-.364.295-.63.857-.08 1.927.547 1.07 1.086 1.477.94 2.04-.143.565-.068.866-.74 1.048-.674.18-1.047.092-1.16-.554-.115-.646.348-.095.25-.638-.096-.543-1.748-2.35-2.2-3.72-.443-1.34-.4-2.584.472-3.27.82-.643 1.608-.976 2.75-.72 1.094.245 3.026 1.775 3.026 1.775l1.877 4.252-1.774.66-.35-.935z" fill-rule="evenodd" stroke-width=".717134"/><path d="M284.012 57.572s-1.84 3.09-1.43 5.464c.408 2.375 2.86 7.482 2.86 7.482l.025.69 1.323-.144-.3-.7s.66-6.113.254-8.043c-.3-1.433-2.707-4.723-2.732-4.748zM286.948 71.718s.92 1.1 2.018 1.634c1.2.585 1.693.59 2.17.23.35-.262.23-1.38-.18-1.685-.407-.307-.87-.15-.944.153-.122.513-.29.48-.663.28-.547-.288-1.814-1.072-1.814-1.072l-.588.46zM285.525 71.968s-.387 1.38-1.17 2.318c-.854 1.025-1.302 1.23-1.884 1.1-.425-.096-.774-1.163-.528-1.61.247-.447.734-.496.925-.248.322.417.46.317.72-.016.38-.488 1.214-1.722 1.214-1.722l.725.178z" fill-rule="evenodd" stroke-width=".717134"/><path d="M289.028 70.858c.067.402-1.148.942-2.718 1.206-1.57.265-2.9.153-2.973-.25-.074-.4 1.137-.94 2.706-1.206 1.57-.266 2.904-.157 2.984.244" stroke-linejoin="round" stroke-width=".717134"/></g><g fill="#fc0" stroke="#000" stroke-width="2.2"><path d="M316.022 70.776s.64-1.605 1.17-1.96c.752-.506 1.434-.283 1.74-.06.378.278.673.826.18 1.923-.492 1.096-1.01 1.53-.835 2.085.173.556.114.86.795 1.007.682.146 1.05.04 1.13-.613.08-.652-.353-.078-.285-.625.07-.547 1.625-2.438 2.007-3.83.373-1.36.265-2.6-.64-3.24-.852-.6-1.657-.892-2.784-.578-1.08.302-2.93 1.93-2.93 1.93l-1.655 4.343 1.806.567.302-.95z" fill-rule="evenodd" stroke-width=".717134"/><path d="M312.287 70.713s-.126-1.723-.524-2.223c-.564-.708-1.28-.7-1.64-.58-.445.15-.89.583-.753 1.778.14 1.194.5 1.764.167 2.24-.333.48-.368.787-1.062.72-.694-.065-1.012-.28-.892-.924.12-.646.36.032.46-.51.1-.542-.813-2.815-.757-4.257.055-1.41.532-2.558 1.59-2.894.992-.316 1.847-.352 2.827.288.94.615 2.21 2.725 2.21 2.725l.267 4.64-1.892-.005v-.997z" fill-rule="evenodd" stroke-width=".717134"/><path d="M316.775 57.697s-2.805 2.25-3.255 4.616c-.45 2.368.054 8.01.054 8.01l-.217.655 1.288.33-.036-.76s2.76-5.495 3.058-7.445c.22-1.45-.878-5.373-.893-5.406zM314.564 71.975s.475 1.352 1.317 2.238c.92.968 1.38 1.145 1.953.977.42-.124.698-1.21.423-1.64-.275-.432-.764-.448-.938-.19-.295.438-.44.347-.72.03-.41-.46-1.322-1.64-1.322-1.64l-.712.225zM313.144 71.71s-.846 1.156-1.908 1.76c-1.16.66-1.652.697-2.15.37-.366-.24-.32-1.36.07-1.693.387-.332.86-.207.952.092.155.503.32.458.68.236.526-.324 1.74-1.187 1.74-1.187l.616.42z" fill-rule="evenodd" stroke-width=".717134"/><path d="M316.814 71.9c-.078.4-1.406.48-2.97.176-1.56-.303-2.768-.874-2.696-1.276.072-.402 1.396-.484 2.958-.182 1.563.3 2.775.872 2.71 1.275" stroke-linejoin="round" stroke-width=".717134"/></g><path d="M274.43 81.17s.305 1.277 1.035.608c.73-.67 10.767-4.623 24.94-4.623 14.174 0 23.48 3.893 24.028 4.136.548.244.79.548 1.278 0 .487-.546-.486-1.398-.486-1.398s-9.854-4.197-25.244-4.137c-15.39.06-25.366 4.44-25.366 4.44s-.67.488-.183.974z" fill="#cca715" fill-rule="evenodd" stroke="#000" stroke-width=".326"/><path d="M292.404 87.065s.452-1.257 1.242-1.5c.63-.192 1.624.427 1.624.427s-1.198-.11-1.573.103c-.338.192-.44.764-.44.764s.256-.457 1.175-.412c.918.044 1.02.044 1.02.044s-1.557.117-1.917.565c-.36.45 1.47.654 1.47.654s-2.8.016-3.167-.153c-.367-.17-.602-.742-1.227-.566-.624.178-1.263.736-1.263.736s.713-1.198 1.16-1.205c.45-.006.714-.028 1.118.155.404.184.78.39.78.39zM281.935 89.332s.212-1.32.944-1.702c.582-.306 1.673.118 1.673.118s-1.197.113-1.526.392c-.297.252-.292.833-.292.833s.17-.496 1.08-.622 1.01-.145 1.01-.145-1.508.404-1.78.91c-.27.508 1.566.372 1.566.372s-2.747.532-3.14.434c-.392-.097-.73-.617-1.31-.328-.58.288-1.106.955-1.106.955s.48-1.308.918-1.398c.44-.092.695-.162 1.126-.056.43.105.837.238.837.238zM301.233 86.6s.524-1.23 1.326-1.424c.64-.157 1.596.52 1.596.52s-1.19-.18-1.576.01c-.35.173-.484.738-.484.738s.283-.44 1.197-.343c.915.1 1.017.105 1.017.105s-1.562.027-1.947.453c-.386.427 1.43.738 1.43.738s-2.797-.147-3.154-.337c-.358-.19-.56-.777-1.193-.637-.634.14-1.304.66-1.304.66s.78-1.154 1.23-1.136c.447.02.712.012 1.105.22.393.206.755.433.755.433zM310.072 87.6s.664-1.16 1.484-1.26c.654-.08 1.525.702 1.525.702s-1.16-.317-1.565-.172c-.367.13-.567.676-.567.676s.332-.404 1.23-.2c.896.202.997.22.997.22s-1.554-.155-1.987.224c-.433.378 1.333.9 1.333.9s-2.758-.473-3.09-.704c-.333-.23-.465-.835-1.11-.77-.646.065-1.373.503-1.373.503s.91-1.056 1.353-.985c.443.07.707.095 1.073.346.366.252.7.52.7.52zM318.85 89.167s.62-.883 1.285-.904c.53-.016 1.174.676 1.174.676s-.91-.34-1.247-.254c-.305.078-.506.502-.506.502s.297-.3 1.003-.072c.706.23.786.25.786.25s-1.238-.237-1.613.035c-.376.274 1.005.822 1.005.822s-2.183-.582-2.433-.792c-.25-.21-.312-.705-.835-.7-.524.005-1.14.304-1.14.304s.81-.78 1.16-.692c.35.09.56.128.836.357.276.227.524.467.524.467z" fill-rule="evenodd"/><path d="M290.64 81.076c.21 1.048-1.022 2.178-2.752 2.525-1.73.347-3.303-.22-3.51-1.27-.212-1.046 1.02-2.177 2.75-2.523 1.73-.347 3.302.222 3.51 1.27z" fill="#0f6545" stroke="#000" stroke-width=".435" stroke-linejoin="round"/><path d="M286.72 80.905c.05.254-.216.522-.597.598-.38.076-.73-.068-.78-.32-.052-.255.215-.523.596-.6.38-.075.73.068.78.322z" fill="#cecfc1"/><path d="M315.088 82.344c-.32 1.02-1.943 1.417-3.627.89-1.682-.53-2.787-1.785-2.466-2.804.32-1.02 1.943-1.417 3.627-.89 1.684.53 2.79 1.785 2.468 2.804z" fill="#0f6545" stroke="#000" stroke-width=".435" stroke-linejoin="round"/><path d="M311.735 80.308c-.078.247-.44.353-.81.237-.372-.116-.61-.41-.532-.658.078-.247.44-.353.81-.237.372.117.61.41.532.658z" fill="#cecfc1"/><path fill="#1f2d86" stroke="#000" stroke-width=".619" stroke-linejoin="round" d="M296.627 78.715h6.337v3.195h-6.337z"/><path d="M299.298 79.395c0 .145-.27.262-.602.262-.333 0-.603-.117-.603-.262 0-.144.27-.26.603-.26.332 0 .602.116.602.26z" fill="#707c8b"/><path d="M278.715 81.91l1.048 3.09-1.938 1.047s-.89.628-1.78.157c-.89-.47-1.416-1.883-.944-2.462.94-1.147 3.615-1.885 3.615-1.833z" fill="#9f1209" fill-rule="evenodd" stroke="#000" stroke-width=".326"/><path d="M277.092 84.11c0 .52-.4.942-.89.942-.493 0-.89-.422-.89-.943 0-.522.397-.944.89-.944.49 0 .89.422.89.943z" fill="#8f322f"/><path d="M276.25 83.74c.027.166-.012.33-.103.43-.09.1-.218.122-.336.056-.117-.066-.206-.21-.233-.376-.027-.167.012-.33.102-.43.09-.1.218-.122.336-.056.117.066.206.21.233.376z" fill="#e2a494"/><path d="M321.175 82.312l-1.04 2.752 2.466 1.292s1.092.486 1.78-.118c.588-.516.722-1.71.252-2.315-.445-.572-3.49-1.628-3.457-1.61z" fill="#9f1209" fill-rule="evenodd" stroke="#000" stroke-width=".326"/><path d="M324.128 84.518c0 .34-.353.613-.788.613-.436 0-.79-.273-.79-.612 0-.338.354-.612.79-.612.435 0 .788.274.788.612z" fill="#aa675d"/><path d="M323.373 84.426c0 .162-.07.312-.184.393-.116.08-.256.08-.37 0-.115-.082-.185-.232-.185-.394s.07-.312.184-.393c.114-.08.254-.08.37 0 .113.08.183.23.183.393z" fill="#e2a494"/><g fill="#f5d8bc"><path d="M305.344 78.988c0 .235-.2.426-.446.426-.247 0-.446-.19-.446-.426 0-.235.2-.426.446-.426s.446.19.446.426zM308.04 79.143c0 .236-.2.426-.445.426-.247 0-.447-.19-.447-.427 0-.235.2-.426.447-.426.246 0 .446.19.446.426zM306.674 80.19c0 .297-.25.536-.56.536-.31 0-.562-.24-.56-.535-.002-.295.25-.534.56-.534.31 0 .56.24.56.535zM307.975 81.95c0 .236-.2.426-.446.426-.247 0-.447-.19-.447-.426 0-.235.2-.425.446-.425s.445.19.445.425zM305.373 81.615c0 .235-.2.426-.446.426-.247 0-.447-.19-.446-.425 0-.235.2-.426.447-.426.246 0 .446.19.446.425z"/></g><g fill="#f5d8bc"><path d="M292.33 79.447c.054.23-.098.46-.338.516-.24.055-.478-.086-.53-.315-.054-.23.098-.46.338-.515.24-.056.478.085.53.314zM294.992 78.99c.054.23-.098.46-.338.516-.24.055-.478-.085-.53-.315-.054-.228.098-.46.338-.514.24-.056.478.085.53.314zM293.897 80.32c.067.287-.123.577-.425.647-.302.07-.6-.107-.667-.395-.067-.288.124-.578.425-.648.302-.07.6.107.667.395zM295.562 81.74c.053.23-.098.46-.338.515-.24.056-.478-.085-.53-.314-.054-.228.097-.46.337-.515.24-.055.48.085.532.315zM292.95 82c.054.23-.097.46-.338.515-.24.056-.477-.085-.53-.314-.053-.228.098-.46.338-.515.24-.055.478.086.53.315z"/></g><g fill="#f5d8bc"><path d="M280.963 81.9c.085.22-.032.47-.262.56-.228.088-.484-.017-.57-.236-.084-.22.033-.47.263-.56.23-.088.485.017.57.237zM283.533 81.07c.085.22-.032.47-.262.558-.228.09-.484-.016-.57-.235-.084-.22.033-.47.263-.56.23-.088.485.017.57.237zM282.638 82.54c.107.276-.04.59-.33.703-.287.112-.608-.02-.715-.296-.107-.276.04-.59.33-.702.288-.113.608.02.715.296zM284.488 83.71c.085.22-.032.47-.262.56-.23.088-.485-.018-.57-.237-.085-.22.032-.47.262-.56.23-.088.485.018.57.237zM281.94 84.34c.086.218-.03.47-.26.558-.23.09-.486-.017-.57-.236-.086-.22.03-.47.26-.558.23-.09.486.016.57.235z"/></g><g fill="#f5d8bc"><path d="M317.052 80.664c-.06.246-.318.395-.576.332-.258-.063-.418-.314-.357-.56.06-.247.317-.395.575-.332.258.063.418.314.357.56zM319.834 81.518c-.06.246-.318.395-.576.332-.258-.064-.418-.314-.357-.56.06-.247.32-.395.577-.332.258.063.418.314.357.56zM318.135 82.264c-.075.31-.4.496-.723.417-.325-.08-.526-.394-.45-.703.076-.31.4-.496.724-.417.324.08.526.395.45.704zM319.046 84.44c-.06.245-.318.394-.576.33-.258-.063-.418-.314-.357-.56.06-.246.318-.394.576-.33.257.062.417.313.356.56zM316.41 83.42c-.06.247-.32.395-.577.332-.258-.063-.418-.314-.358-.56.06-.246.318-.395.576-.33.26.062.42.313.36.56z"/></g><path d="M322.483 55.582s-1.282 1.202-2.804 1.202c-1.524 0-2.405-.64-2.886-.962-.48-.32.16-1.282.16-1.282" fill="none" stroke="#000" stroke-width=".75"/><path d="M295.56 57.986s-2.324-.4-3.285-.72c-.962-.322-.722-.963-1.843-.883-1.122.08-2.244.882-2.004 2.003.24 1.122 1.042 1.283 1.843 1.042.803-.24.562-1.602-.48-1.522-1.04.08-.16.96-.16.96" fill="none" stroke="#000" stroke-width=".685"/><path d="M279.534 56.223s.64.962 2.324.8c1.683-.16 2.324-1.04 2.404-1.44.08-.402 0-1.123-.32-1.443-.32-.32-1.443-.48-1.443-.48" fill="none" stroke="#000" stroke-width=".652"/></svg>