<svg xmlns="http://www.w3.org/2000/svg" xmlns:xlink="http://www.w3.org/1999/xlink" version="1" width="600" height="300"><rect width="600" height="300" rx="0" ry="0" fill="#fff" fill-rule="evenodd"/><rect id="a" y="120" ry="0" rx="0" height="60" width="600" fill="#c00" fill-rule="evenodd"/><use xlink:href="#a" height="300" width="600" transform="matrix(0 .5 -1 0 450 0)"/><path d="M322.003 91.631c1.926-3.012.774-4.958-2.138-5.559 0 0-9.292 2.979-19.327 3.305-10.035.327-21.957-2.523-21.957-2.523-2.139 1.341-1.617 4.525-.556 6.513 0 0 10.505 3.49 22.464 3.147 7.596-.217 14.794-2.155 18.832-3.44 2.32-.738 2.683-1.409 2.682-1.443z" fill="#ebeae3" fill-rule="evenodd" stroke="#000" stroke-width=".326"/><path d="M300 223.47l-19.286-40.066-44.34 3.33L261.427 150l-25.055-36.735 44.341 3.331L300 76.53l19.286 40.066 44.34-3.33L338.573 150l25.055 36.735-44.341-3.331L300 223.47z" fill="#fff" stroke="#161111" stroke-width="1.00015302"/><g fill="#c00" stroke="#161111" stroke-width=".075"><path d="M15.776 11.622c.115-.118.3-.248.403-.53.096-.265.143-.75.23-.996.115-.422.346-.833.071-.805-.262.027-.347.289-.446.48a1.36 1.36 0 0 0-.11.33c-.013.053-.014.113-.064.139.072-.64-.1-1.119-.159-2.069-.024-.398-.087-.798-.287-.801-.15-.002-.175.204-.199.358 0-.218.008-.677-.243-.677-.305 0-.213.641-.254.966-.007-.115-.01-.362-.043-.522a.247.247 0 0 0-.067-.134c-.018-.017-.045-.026-.084-.026-.275 0-.269.4-.26.798.004.042 0 .233.004.358 0-.217.002-.642-.217-.623-.182.015-.196.493-.204.747.012.254-.073.846-.103 1.014-.008.12-.053.274-.072.44-.042.358-.002.777.043.992.091.338.328.49.316.72-.012.23 0 .634 0 .816 0 .18.152.19.467.12.514-.114.795.115 1.22-.054-.054-.502.07-.86.058-1.041z" transform="matrix(13.50416 0 0 13.02889 98.957 17.585)"/><g stroke-width=".541"><path d="M149.023 76.45c.768-2.175 1.738-3.029 2.674-3.503M150.418 83.949c.067-.445.339-.798.717-1.18M140.21 59.897c.054 1.923.167 5.623.167 6.507M147.079 54.639c-.107 1.023.014 1.85-.009 2.895-.015.696.096 1.975.183 3.525-.022.56.171 3.355-.005 4.39M143.463 56.556c.036.38.025.839.043 1.35.085 2.463.03 6.135.102 7.922" transform="matrix(1.8708 0 0 1.82393 29.323 17.963)"/></g></g><path d="M299.712 76.392c24.227 3.994 23.362 5.125 23.362 5.125l6.323-18.902s.665-3.728-1.065-5.99c-1.73-2.264-6.59-.999-6.59-.999s-.665-3.062-2.795-3.794c-2.13-.732-10.05 2.862-12.513 3.66-2.462.8-3.727 1.598-7.188 1.532-3.461-.067-9.65-3.128-10.782-3.727-1.132-.6-2.796-1.199-4.327-1.132-1.53.067-3.128.466-3.927 1.53-.798 1.066-.798 2.397-.798 2.397s-1.265-.799-3.262-.799c-1.996 0-3.128.266-4.06 1.331-.932 1.065-2.13 4.06-2.13 4.06l2.263 5.125.134 7.056 4.725 7.454 22.63-3.927z" fill="#b02320" fill-rule="evenodd" stroke="#000" stroke-width=".815"/><path d="M322.296 87.072s1.22 1.454 1.173 1.97c-.047.516-.563.986-.563.986s.376.375.282.938c-.094.563-.845.61-.845.61s.14.516-.328.75c-.47.235-2.393.657-2.393.657s-9.384-2.674-19.424-2.674-21.864 3.237-21.864 3.237-1.22-.422-1.267-1.22c-.047-.797.141-1.36.141-1.36s-.668.07-.845-.516c-.247-.82.094-1.455.094-1.455s-.465.15.047-.938c.376-.798.939-1.08.939-1.08s10.51-3.753 22.473-3.8c11.964-.046 22.38 3.8 22.38 3.895z" fill="#ebeae3" fill-rule="evenodd" stroke="#000" stroke-width=".326"/><path d="M272.643 63.435s-.4-1.363.48-2.565c.882-1.201 2.485-1.121 2.965-.88.481.24.401.8 1.042.96.641.16 1.122-.32 1.122-.32" fill="none" stroke="#000" stroke-width=".717"/><path d="M331.14 66.624l-3.639 7.529-1.43.25s-.873-.524-3.363-.35c-1.782.125-2.309.576-2.309.576l3.238-7.503s.252 1.612.627 2.56c.477 1.204 2.284 2.333 2.284 2.333s.25-1.44-.226-3.187c-.527-1.932-1.757-4.542-1.757-4.542l6.575 2.334z" fill="#fc0" fill-opacity=".941" fill-rule="evenodd" stroke="#000" stroke-width=".75"/><path fill="#121116" stroke="#121116" stroke-width=".731" stroke-linejoin="round" d="M297.808 43.225h4.073v17.309h-4.073z"/><path d="M272.85 75.147l2.615 5.597s11.132-4.34 24.271-4.259c19.71.122 25.306 4.076 25.306 4.076l2.92-6.935-2.19 1.278-2.251 1.399-2.555.973-3.102-.243-2.738-2.007-1.399-2.92-2.311 2.129-4.076.912-4.015-1.034-3.528-4.44s-2.628 4.936-5.961 5.23c-4.806.427-7.604-2.31-7.604-2.31s-1.786 4.014-4.745 4.744c-4.683 1.156-8.577-2.19-8.637-2.19z" fill="#f6ca1f" fill-rule="evenodd" stroke="#000" stroke-width=".619"/><g stroke-width="2.243"><path d="M317.78 41.03c0 1.175-.94 2.129-2.1 2.131-1.16.003-2.102-.947-2.107-2.123-.005-1.176.93-2.134 2.09-2.14 1.16-.008 2.107.939 2.116 2.115" fill="#eee" stroke="#1e1e1e" stroke-linejoin="round" stroke-width=".7311507099999999"/><path d="M314.697 42.124s1.7-.029 1.872-.72c.173-.692-.115-1.585-.115-1.585s.807.893.576 1.585c-.23.691-.456.87-1.037 1.008-.393.094-.98-.057-1.296-.288z" fill="#a3afb8" fill-rule="evenodd"/><path d="M312.67 43.418c0 1.176-.94 2.13-2.1 2.132-1.16.002-2.102-.948-2.107-2.124-.004-1.176.931-2.133 2.091-2.14 1.16-.007 2.107.94 2.116 2.115" fill="#eee" stroke="#1e1e1e" stroke-linejoin="round" stroke-width=".7311507099999999"/><path d="M309.587 44.513s1.7-.03 1.873-.72c.172-.692-.116-1.585-.116-1.585s.807.893.577 1.584c-.23.692-.457.87-1.038 1.009-.393.093-.98-.058-1.296-.288z" fill="#a3afb8" fill-rule="evenodd"/><path d="M323.712 39.628c0 1.176-.94 2.13-2.1 2.133-1.16.002-2.102-.948-2.107-2.124-.004-1.176.931-2.134 2.091-2.14 1.16-.008 2.107.939 2.116 2.115" fill="#eee" stroke="#1e1e1e" stroke-linejoin="round" stroke-width=".7311507099999999"/><path d="M320.63 40.723s1.699-.029 1.872-.72c.173-.691-.115-1.585-.115-1.585s.806.894.576 1.585c-.23.691-.457.87-1.037 1.008-.394.094-.98-.057-1.297-.288z" fill="#a3afb8" fill-rule="evenodd"/><path d="M330.394 40.973c0 1.176-.939 2.13-2.099 2.132-1.16.003-2.103-.948-2.107-2.123-.005-1.176.93-2.134 2.09-2.14 1.16-.008 2.107.938 2.116 2.114" fill="#eee" stroke="#1e1e1e" stroke-linejoin="round" stroke-width=".7311507099999999"/><path d="M327.312 42.068s1.7-.029 1.872-.72c.173-.692-.115-1.585-.115-1.585s.807.893.576 1.585c-.23.691-.456.87-1.037 1.008-.393.094-.98-.058-1.296-.288z" fill="#a3afb8" fill-rule="evenodd"/><path d="M335.488 45.17c0 1.176-.94 2.13-2.1 2.132-1.16.002-2.102-.948-2.107-2.124-.004-1.175.931-2.133 2.091-2.14 1.16-.007 2.107.94 2.116 2.115" fill="#eee" stroke="#1e1e1e" stroke-linejoin="round" stroke-width=".7311507099999999"/><path d="M332.405 46.265s1.7-.029 1.873-.72c.173-.692-.116-1.585-.116-1.585s.807.893.577 1.585c-.23.691-.457.87-1.038 1.008-.393.094-.98-.058-1.296-.288z" fill="#a3afb8" fill-rule="evenodd"/><path d="M337.688 52.056c0 1.176-.94 2.13-2.1 2.132-1.16.003-2.102-.948-2.106-2.123-.005-1.176.93-2.134 2.09-2.14 1.16-.008 2.107.939 2.116 2.114" fill="#eee" stroke="#1e1e1e" stroke-linejoin="round" stroke-width=".7311507099999999"/><path d="M334.605 53.151s1.7-.029 1.873-.72c.173-.692-.115-1.585-.115-1.585s.806.893.576 1.585c-.23.691-.457.87-1.037 1.008-.394.094-.98-.058-1.297-.288z" fill="#a3afb8" fill-rule="evenodd"/><path d="M336.873 59.024c0 1.176-.939 2.13-2.099 2.132-1.16.002-2.103-.948-2.107-2.124-.005-1.176.93-2.133 2.09-2.14 1.16-.007 2.107.94 2.116 2.115" fill="#eee" stroke="#1e1e1e" stroke-linejoin="round" stroke-width=".7311507099999999"/><path d="M333.79 60.119s1.7-.03 1.873-.72c.173-.692-.115-1.585-.115-1.585s.807.893.576 1.584c-.23.692-.457.87-1.037 1.009-.394.093-.98-.058-1.297-.288z" fill="#a3afb8" fill-rule="evenodd"/><path d="M333.776 65.136c0 1.176-.939 2.13-2.099 2.132-1.16.002-2.103-.948-2.107-2.124-.005-1.176.93-2.133 2.09-2.14 1.16-.007 2.107.94 2.116 2.115" fill="#eee" stroke="#1e1e1e" stroke-linejoin="round" stroke-width=".7311507099999999"/><path d="M330.693 66.23s1.7-.028 1.873-.72c.173-.691-.115-1.584-.115-1.584s.807.893.576 1.584c-.23.692-.456.87-1.037 1.009-.393.093-.98-.058-1.297-.288z" fill="#a3afb8" fill-rule="evenodd"/><path d="M307.699 45.251c0 1.176-.94 2.13-2.1 2.133-1.16.002-2.102-.948-2.107-2.124-.004-1.176.931-2.134 2.091-2.14 1.16-.008 2.106.939 2.116 2.115" fill="#eee" stroke="#1e1e1e" stroke-linejoin="round" stroke-width=".7311507099999999"/><path d="M304.616 46.346s1.7-.029 1.873-.72c.172-.691-.116-1.585-.116-1.585s.807.894.577 1.585c-.23.691-.457.87-1.038 1.008-.393.094-.98-.057-1.296-.288z" fill="#a3afb8" fill-rule="evenodd"/><g stroke-width="2.682"><path d="M301.344 44.706c0 .983-.785 1.781-1.755 1.783a1.77 1.77 0 0 1-1.763-1.776 1.771 1.771 0 0 1 1.749-1.79 1.77 1.77 0 0 1 1.77 1.77" fill="#eee" stroke="#1e1e1e" stroke-linejoin="round" stroke-width=".7311132"/><path d="M298.766 45.622s1.422-.024 1.566-.603c.145-.578-.096-1.325-.096-1.325s.674.747.482 1.325c-.193.579-.382.728-.868.844-.329.078-.819-.049-1.084-.241z" fill="#a3afb8" fill-rule="evenodd"/></g><g stroke-width="2.682"><path d="M301.365 46.922c0 .983-.786 1.781-1.756 1.783a1.77 1.77 0 0 1-1.762-1.776 1.771 1.771 0 0 1 1.748-1.79 1.77 1.77 0 0 1 1.77 1.77" fill="#eee" stroke="#1e1e1e" stroke-linejoin="round" stroke-width=".7311132"/><path d="M298.786 47.838s1.422-.024 1.567-.603c.144-.578-.097-1.325-.097-1.325s.675.747.482 1.325c-.193.579-.382.728-.867.844-.33.078-.82-.049-1.085-.241z" fill="#a3afb8" fill-rule="evenodd"/></g><g stroke-width="2.682"><path d="M301.487 50.182c0 .983-.786 1.78-1.756 1.783a1.77 1.77 0 0 1-1.762-1.776 1.771 1.771 0 0 1 1.748-1.79 1.77 1.77 0 0 1 1.77 1.769" fill="#eee" stroke="#1e1e1e" stroke-linejoin="round" stroke-width=".7311132"/><path d="M298.909 51.097s1.421-.024 1.566-.602c.144-.578-.097-1.325-.097-1.325s.675.747.482 1.325c-.192.578-.382.728-.867.843-.33.079-.82-.048-1.084-.24z" fill="#a3afb8" fill-rule="evenodd"/></g><g stroke-width="2.48"><path d="M301.669 53.645c0 1.064-.85 1.926-1.899 1.928-1.049.003-1.901-.857-1.905-1.92-.005-1.064.841-1.93 1.89-1.936 1.05-.006 1.906.85 1.914 1.913" fill="#eee" stroke="#1e1e1e" stroke-linejoin="round" stroke-width=".731104"/><path d="M298.88 54.635s1.538-.026 1.694-.651c.157-.625-.104-1.433-.104-1.433s.73.808.521 1.433c-.208.625-.413.787-.938.912-.355.085-.886-.052-1.172-.26z" fill="#a3afb8" fill-rule="evenodd"/></g><path d="M301.872 58.29c0 1.176-.94 2.13-2.1 2.132-1.16.003-2.102-.947-2.107-2.123-.004-1.176.931-2.134 2.091-2.14 1.16-.008 2.107.939 2.116 2.115" fill="#eee" stroke="#1e1e1e" stroke-linejoin="round" stroke-width=".7311507099999999"/><path d="M298.789 59.385s1.7-.029 1.873-.72c.173-.692-.115-1.585-.115-1.585s.806.893.576 1.585c-.23.691-.457.87-1.037 1.008-.394.094-.98-.057-1.297-.288z" fill="#a3afb8" fill-rule="evenodd"/><g stroke-width="2.388"><path d="M301.661 67.823c0 1.105-.882 2-1.971 2.003-1.09.002-1.975-.89-1.98-1.995-.004-1.104.875-2.004 1.964-2.01 1.09-.007 1.979.882 1.987 1.987" fill="#eee" stroke="#1e1e1e" stroke-linejoin="round" stroke-width=".73106232"/><path d="M298.766 68.851s1.596-.027 1.759-.676c.162-.65-.108-1.488-.108-1.488s.757.839.54 1.488c-.216.65-.428.817-.973.947-.37.088-.92-.054-1.218-.27z" fill="#a3afb8" fill-rule="evenodd"/></g><path d="M295.97 45.195c0 1.176-.939 2.13-2.099 2.132-1.16.002-2.103-.948-2.107-2.124-.005-1.176.93-2.133 2.09-2.14 1.16-.007 2.107.94 2.116 2.115" fill="#eee" stroke="#1e1e1e" stroke-linejoin="round" stroke-width=".7311507099999999"/><path d="M292.887 46.29s1.7-.03 1.873-.72c.173-.692-.115-1.585-.115-1.585s.807.893.576 1.584c-.23.692-.457.87-1.037 1.009-.394.093-.98-.058-1.297-.288z" fill="#a3afb8" fill-rule="evenodd"/><g><path d="M290.756 43.138c0 1.176-.94 2.13-2.1 2.133-1.16.002-2.102-.948-2.107-2.124-.005-1.176.93-2.134 2.09-2.14 1.16-.008 2.107.939 2.116 2.115" fill="#eee" stroke="#1e1e1e" stroke-linejoin="round" stroke-width=".7311507099999999"/><path d="M287.673 44.233s1.7-.029 1.872-.72c.173-.692-.115-1.585-.115-1.585s.807.893.576 1.585c-.23.691-.456.87-1.037 1.008-.393.094-.98-.057-1.296-.288z" fill="#a3afb8" fill-rule="evenodd"/></g><g><path d="M285.761 40.788c0 1.176-.939 2.13-2.099 2.132-1.16.003-2.103-.948-2.107-2.123-.005-1.176.93-2.134 2.09-2.14 1.16-.008 2.107.939 2.116 2.114" fill="#eee" stroke="#1e1e1e" stroke-linejoin="round" stroke-width=".7311507099999999"/><path d="M282.678 41.883s1.7-.029 1.873-.72c.173-.692-.115-1.585-.115-1.585s.807.893.576 1.585c-.23.691-.457.87-1.037 1.008-.394.094-.98-.058-1.297-.288z" fill="#a3afb8" fill-rule="evenodd"/></g><g><path d="M280.032 39.54c0 1.175-.939 2.13-2.099 2.132-1.16.002-2.102-.948-2.107-2.124-.005-1.176.93-2.133 2.09-2.14 1.16-.007 2.107.939 2.116 2.115" fill="#eee" stroke="#1e1e1e" stroke-linejoin="round" stroke-width=".7311507099999999"/><path d="M276.95 40.634s1.7-.028 1.872-.72c.173-.691-.115-1.585-.115-1.585s.807.894.576 1.585c-.23.692-.456.87-1.037 1.009-.393.093-.98-.058-1.296-.289z" fill="#a3afb8" fill-rule="evenodd"/></g><g><path d="M273.275 41.155c0 1.176-.939 2.13-2.099 2.133-1.16.002-2.102-.948-2.107-2.124-.005-1.176.93-2.134 2.09-2.14 1.16-.008 2.107.939 2.116 2.115" fill="#eee" stroke="#1e1e1e" stroke-linejoin="round" stroke-width=".7311507099999999"/><path d="M270.193 42.25s1.7-.029 1.872-.72c.173-.692-.115-1.585-.115-1.585s.807.893.576 1.585c-.23.691-.456.87-1.037 1.008-.393.094-.98-.057-1.296-.288z" fill="#a3afb8" fill-rule="evenodd"/></g><g><path d="M268.502 45.93c0 1.175-.94 2.13-2.1 2.131-1.16.003-2.102-.947-2.107-2.123-.005-1.176.93-2.134 2.09-2.14 1.16-.008 2.107.939 2.116 2.115" fill="#eee" stroke="#1e1e1e" stroke-linejoin="round" stroke-width=".7311507099999999"/><path d="M265.419 47.024s1.7-.029 1.872-.72c.173-.692-.115-1.585-.115-1.585s.807.893.576 1.585c-.23.691-.456.87-1.037 1.008-.393.094-.98-.057-1.296-.288z" fill="#a3afb8" fill-rule="evenodd"/></g><g><path d="M266.519 52.613c0 1.176-.94 2.13-2.1 2.132-1.16.002-2.102-.948-2.107-2.124-.005-1.176.93-2.133 2.09-2.14 1.16-.007 2.107.94 2.116 2.115" fill="#eee" stroke="#1e1e1e" stroke-linejoin="round" stroke-width=".7311507099999999"/><path d="M263.436 53.708s1.7-.03 1.872-.72c.173-.692-.115-1.585-.115-1.585s.807.893.576 1.584c-.23.692-.456.87-1.037 1.009-.393.093-.98-.058-1.296-.288z" fill="#a3afb8" fill-rule="evenodd"/></g><g><path d="M267.4 59.59c0 1.176-.94 2.13-2.1 2.132-1.16.003-2.102-.947-2.107-2.123-.004-1.176.931-2.134 2.091-2.14 1.16-.008 2.107.939 2.116 2.114" fill="#eee" stroke="#1e1e1e" stroke-linejoin="round" stroke-width=".7311507099999999"/><path d="M264.317 60.685s1.7-.029 1.873-.72c.173-.692-.115-1.585-.115-1.585s.806.893.576 1.585c-.23.691-.457.87-1.037 1.008-.394.094-.98-.057-1.297-.288z" fill="#a3afb8" fill-rule="evenodd"/></g><g><path d="M270.631 65.906c0 1.176-.939 2.13-2.099 2.133-1.16.002-2.103-.948-2.107-2.124-.005-1.176.93-2.134 2.09-2.14 1.16-.007 2.107.939 2.116 2.115" fill="#eee" stroke="#1e1e1e" stroke-linejoin="round" stroke-width=".7311507099999999"/><path d="M267.549 67.001s1.7-.028 1.872-.72c.173-.691-.115-1.585-.115-1.585s.807.894.576 1.585c-.23.692-.456.87-1.037 1.008-.393.094-.98-.057-1.296-.288z" fill="#a3afb8" fill-rule="evenodd"/></g><g stroke-width="2.832"><path d="M430.628 247.41c0 3.607-2.88 6.533-6.44 6.54-3.558.008-6.45-2.907-6.465-6.515-.014-3.607 2.856-6.545 6.415-6.566 3.558-.021 6.462 2.882 6.49 6.49" fill="#eee" stroke="#1e1e1e" stroke-linejoin="round" transform="matrix(.19748 -.05291 .08437 .31486 168.369 18.75)"/><path d="M272.698 75.422s1.023-.303.948-1c-.074-.695-.48-1.511-.48-1.511s.72.731.76 1.437c.039.705-.052.914-.368 1.142-.214.155-.608.104-.86-.068z" fill="#a3afb8" fill-rule="evenodd"/></g><g stroke-width="2.832"><path d="M430.628 247.41c0 3.607-2.88 6.533-6.44 6.54-3.558.008-6.45-2.907-6.465-6.515-.014-3.607 2.856-6.545 6.415-6.566 3.558-.021 6.462 2.882 6.49 6.49" fill="#eee" stroke="#1e1e1e" stroke-linejoin="round" transform="matrix(.19849 .049 -.07812 .31647 262.458 -25.127)"/><path d="M326.465 74.87s1.042.227 1.313-.418c.271-.645.31-1.556.31-1.556s.277.989-.03 1.625c-.305.637-.486.777-.872.824-.262.031-.583-.204-.72-.475z" fill="#a3afb8" fill-rule="evenodd"/></g></g><path d="M297.952 33.632l.151 3.562s-4.223.371-4.395.758c-.82 1.839.985 4.32.985 4.32s1.42-1.061 5.002-1.061c3.41 0 5.153.833 5.153.833s.91-1.44.91-2.5c0-1.061-.38-2.122-.38-2.122s-1.743-.228-2.273-.228h-1.516l-.151-3.637-3.486.075z" fill="#b3a192" fill-rule="evenodd" stroke="#000" stroke-width=".731"/><path d="M303.974 39.158c0 .4-.337.724-.754.725-.417 0-.755-.322-.757-.722-.002-.4.334-.724.751-.727.417-.002.757.32.76.719M305.715 39.546c0 .417-.352.755-.787.756-.435 0-.788-.336-.79-.753-.002-.416.349-.756.784-.759.435-.002.79.333.793.75M302.231 39.13c0 .4-.337.724-.754.725-.417 0-.756-.322-.757-.721-.002-.4.334-.725.75-.728.418-.002.758.32.761.719M298.738 39.17c0 .415-.351.753-.785.754-.434 0-.786-.335-.788-.751-.002-.416.348-.754.782-.757.433-.002.788.332.791.748M296.799 39.3c0 .415-.351.752-.785.753-.434 0-.786-.335-.788-.75-.002-.416.348-.755.782-.757.433-.003.787.331.791.747M300.358 37.118a.65.65 0 0 1-.662.636.65.65 0 0 1-.665-.633.65.65 0 0 1 .66-.638.65.65 0 0 1 .667.63M300.358 34.163a.65.65 0 0 1-.662.636.65.65 0 0 1-.665-.633.65.65 0 0 1 .66-.639.65.65 0 0 1 .667.63M300.358 35.754a.65.65 0 0 1-.662.636.65.65 0 0 1-.665-.633.65.65 0 0 1 .66-.639.65.65 0 0 1 .667.631M294.834 39.827c0 .401-.339.727-.758.728-.418 0-.758-.324-.76-.725-.002-.4.336-.728.754-.73.419-.002.76.32.764.721" fill="#f0ddcb" stroke="#121116" stroke-width=".373" stroke-linejoin="round"/><path d="M300.528 38.975c0 .439-.372.795-.832.796-.46 0-.833-.354-.835-.793-.002-.439.369-.796.829-.799.46-.002.835.351.838.79" fill="#916c68" stroke="#4d3126" stroke-width=".373" stroke-linejoin="round"/><g stroke-width="2.534"><path d="M301.29 28.406c0 .87-.696 1.576-1.554 1.578a1.567 1.567 0 0 1-1.56-1.572 1.568 1.568 0 0 1 1.547-1.584 1.567 1.567 0 0 1 1.566 1.566" fill="#eee" stroke="#1e1e1e" stroke-width=".73122875" stroke-linejoin="round"/><path d="M299.007 29.216s1.259-.021 1.387-.533c.127-.512-.086-1.173-.086-1.173s.597.661.427 1.173c-.17.512-.338.644-.768.746-.291.07-.725-.042-.96-.213z" fill="#a3afb8" fill-rule="evenodd"/></g><path d="M274.98 81.335s1.388 1.296 1.759 2.453c.37 1.158.925 4.26.925 4.26s14.537-4.028 21.666-3.704c7.13.324 23.564 3.935 23.564 3.935s.278-1.76.602-3.611c.324-1.852 1.667-3.889 1.667-3.889s-15.694-4.907-25.601-4.444c-9.907.463-14.86 1.528-17.083 2.222-2.222.694-7.638 2.824-7.5 2.778z" fill="#fc0" fill-rule="evenodd" stroke="#000" stroke-width=".326"/><path d="M296.663 22.53h6.252s-1.542 1.067-1.856 2.084c-.27.875-.19 2.311-.19 2.311s1.705 0 2.463-.644 2.35-1.78 2.35-1.78v7.957s-1.535-1.484-2.463-1.97a9.027 9.027 0 0 0-2.236-.797s0 1.289.53 2.047c.53.758 2.653 3.637 2.653 3.637l-8.943.341s2.121-2.236 2.994-3.865c.568-1.06.34-2.16.34-2.16s-1.515 0-2.273.531c-.758.53-2.084 2.122-2.084 2.122V24.69s.569 1.477 1.819 2.046c1.25.568 2.425.265 2.425.265s.243-1.523-.265-2.463c-.524-.969-1.63-2.046-1.516-2.008z" fill="#fc0" fill-rule="evenodd" stroke="#000" stroke-width=".731"/><path d="M296.173 47.78s-4.448-.053-8.252-2.304c-3.805-2.25-7.643-4.608-13.29-3.269-1.157.274-5.413 2.144-7.288 8.2-1.316 4.248.214 9.377 1.554 11.681 1.34 2.305 3.5 4.64 3.5 4.64l2.298-1.556s-5.852-4.96-5.155-11.39c.697-6.43 3.912-7.93 3.912-7.93s3.965-3.109 9.27-.162c5.306 2.948 10.504 4.287 10.504 4.287s4.876 1.18 5.305 1.126c.429-.054-2.465-3.376-2.358-3.323z" fill="#fc0" fill-rule="evenodd" stroke="#121116" stroke-width=".731"/><path d="M271.572 71.9l-2.363-4.645 7.09-2.771s-1.712 2.282-2.12 3.911c-.497 1.991-.325 3.668-.325 3.668s.652-.49 1.467-1.793c.618-.99 1.63-4.564 1.63-4.564l3.178 10.187c.024.027-1.634-1.634-2.8-1.831-1.314-.223-2.905.2-2.905.2l-1.874.571-.978-2.933z" fill="#fc0" fill-rule="evenodd" stroke="#000" stroke-width=".75"/><path d="M304.19 47.697s4.447-.054 8.252-2.305c3.805-2.25 7.642-4.608 13.29-3.269 1.156.275 5.412 2.144 7.288 8.2 1.316 4.248-.215 9.377-1.554 11.682-1.34 2.304-2.251 3.66-2.251 3.66l-2.762-.992s5.066-4.544 4.37-10.975c-.697-6.43-3.912-7.93-3.912-7.93s-3.966-3.109-9.271-.161c-5.305 2.947-10.503 4.287-10.503 4.287s-4.877 1.179-5.305 1.125c-.43-.054 2.465-3.376 2.357-3.322z" fill="#fc0" fill-rule="evenodd" stroke="#121116" stroke-width=".731"/><path fill="#fc0" stroke="#121116" stroke-width=".731" stroke-linejoin="round" d="M301.892 43.295h1.857v17.317h-1.857zM295.64 43.219h2.198v17.317h-2.198z"/><path d="M305.757 39.202c0 3.073-2.706 5.565-6.05 5.57-3.344.007-6.062-2.475-6.075-5.547-.013-3.072 2.683-5.574 6.027-5.592 3.343-.019 6.072 2.454 6.098 5.526" fill="#fc0" stroke="#121116" stroke-width=".731" stroke-linejoin="round"/><path d="M294.317 60.467l10.426-.086s-1.223.73-2.274 2.596-.901 3.046-.901 3.046 1.587-.021 2.703-.837c1.115-.815 2.36-2.338 2.36-2.338l-.043 9.61s-.751-1.222-1.995-1.951c-1.245-.73-3.004-.73-3.004-.73h-3.561s-1.628.097-2.36.58c-1.031.68-2.317 1.995-2.317 1.995l-.171-9.075s.515 1.588 2.188 2.231c1.673.644 2.617.558 2.617.558s0-2.038-.858-3.09c-.858-1.05-2.81-2.466-2.81-2.51z" fill="#fc0" fill-rule="evenodd" stroke="#000" stroke-width=".619"/><path d="M300.126 68.013s1.525 3.56 3.299 5.13c1.032.915 4.137 1.604 5.54 1.245 3.154-.805 5.322-3.328 5.322-3.328s-.113 2.764 1.862 4.288c1.974 1.523 3.554 1.918 5.19 1.466 1.636-.45 6.262-3.892 6.262-3.892l.96.846s-2.654 2.576-5.442 3.944c-1.436.704-5.794.313-7.205-.815-1.41-1.129-2.248-3.863-2.248-3.863s-.868 1.758-2.73 2.379c-1.862.62-4.42.593-6.796-.101-1.599-.467-3.676-2.673-4.07-3.406-.395-.733-.283-1.128-.283-1.128s-1.171 3.358-3.61 4.274c-2.304.865-4.93.872-7.16.23-2.256-.648-2.431-1.91-2.431-1.91s-.17 3.555-5.078 4.57c-4.909 1.016-8.801-2.594-8.801-2.594l.677-1.016s2.764 3.103 6.996 2.82c4.23-.281 5.641-5.697 5.641-5.697s1.862 2.82 6.827 2.877c4.965.056 6.375-6.432 6.375-6.432l.903.113z" fill="#f6ca1f" fill-rule="evenodd" stroke="#000" stroke-width=".587"/><g fill="#fc0" stroke="#000" stroke-width="2.2"><path d="M287.893 70.084s.037-1.728.409-2.247c.526-.737 1.243-.767 1.608-.664.451.126.92.536.843 1.736-.077 1.2-.409 1.788-.051 2.247.357.46.409.766 1.098.664.69-.102.996-.332.843-.97-.154-.638-.358.051-.486-.485-.127-.536.667-2.853.537-4.29-.128-1.405-.664-2.528-1.737-2.81-1.008-.263-1.864-.254-2.809.435-.906.661-2.068 2.834-2.068 2.834l-.025 4.648 1.89-.102-.052-.996z" fill-rule="evenodd" stroke-width=".717134"/><path d="M284.373 71.335s-.723-1.57-1.27-1.898c-.777-.466-1.446-.208-1.74.032-.364.296-.63.858-.081 1.928.548 1.07 1.087 1.477.942 2.041-.144.564-.069.865-.742 1.047-.673.18-1.046.092-1.16-.554-.114-.647.349-.096.252-.639-.097-.543-1.749-2.35-2.202-3.72-.442-1.34-.398-2.584.473-3.269.82-.644 1.608-.977 2.75-.721 1.094.245 3.026 1.775 3.026 1.775l1.876 4.252-1.774.66-.35-.934z" fill-rule="evenodd" stroke-width=".717134"/><path d="M284.012 57.572s-1.839 3.09-1.43 5.464c.408 2.375 2.86 7.482 2.86 7.482l.025.69 1.323-.144-.301-.7s.66-6.113.255-8.043c-.301-1.434-2.707-4.724-2.732-4.75zM286.948 71.718s.919 1.1 2.018 1.634c1.2.585 1.693.589 2.17.23.35-.262.23-1.379-.179-1.685-.408-.307-.872-.15-.945.153-.122.513-.29.479-.663.281-.546-.29-1.813-1.073-1.813-1.073l-.588.46zM285.525 71.968s-.387 1.38-1.169 2.318c-.855 1.025-1.303 1.231-1.885 1.1-.426-.096-.775-1.163-.529-1.61.247-.447.734-.496.925-.248.322.417.461.317.72-.016.38-.488 1.214-1.722 1.214-1.722l.724.178z" fill-rule="evenodd" stroke-width=".717134"/><path d="M289.028 70.858c.067.402-1.148.942-2.718 1.206-1.57.265-2.9.153-2.973-.249-.074-.401 1.137-.942 2.706-1.207 1.569-.266 2.904-.157 2.984.244" stroke-linejoin="round" stroke-width=".717134"/></g><g fill="#fc0" stroke="#000" stroke-width="2.2"><path d="M316.022 70.776s.641-1.605 1.171-1.961c.751-.505 1.433-.282 1.74-.058.377.277.672.825.18 1.922-.493 1.097-1.01 1.53-.836 2.086.173.556.114.861.795 1.007.682.146 1.05.039 1.13-.613.08-.651-.353-.077-.285-.624.069-.547 1.625-2.438 2.007-3.83.373-1.36.265-2.6-.641-3.24-.851-.6-1.656-.892-2.783-.578-1.08.302-2.93 1.93-2.93 1.93l-1.655 4.343 1.806.567.301-.95z" fill-rule="evenodd" stroke-width=".717134"/><path d="M312.287 70.713s-.126-1.723-.524-2.223c-.564-.708-1.281-.7-1.64-.58-.445.15-.891.583-.753 1.778.139 1.194.5 1.764.167 2.241-.333.478-.368.786-1.062.72-.694-.066-1.012-.28-.892-.925.12-.646.36.032.46-.51.1-.542-.813-2.815-.757-4.257.055-1.409.532-2.558 1.589-2.894.993-.316 1.848-.352 2.828.288.939.614 2.211 2.724 2.211 2.724l.266 4.64-1.892-.005v-.997z" fill-rule="evenodd" stroke-width=".717134"/><path d="M316.775 57.697s-2.805 2.25-3.255 4.616c-.45 2.368.054 8.01.054 8.01l-.217.655 1.288.33-.036-.761s2.762-5.494 3.06-7.444c.22-1.449-.879-5.373-.894-5.406zM314.564 71.975s.475 1.352 1.317 2.238c.918.968 1.38 1.145 1.952.977.419-.124.698-1.211.423-1.641-.275-.43-.764-.447-.938-.188-.295.437-.44.346-.72.03-.41-.462-1.322-1.64-1.322-1.64l-.712.224zM313.144 71.71s-.846 1.156-1.908 1.76c-1.16.661-1.652.697-2.15.37-.366-.24-.319-1.361.069-1.693.388-.332.86-.207.953.092.155.504.32.459.68.237.526-.324 1.74-1.187 1.74-1.187l.616.42z" fill-rule="evenodd" stroke-width=".717134"/><path d="M316.814 71.899c-.078.4-1.406.48-2.969.177-1.562-.303-2.769-.874-2.697-1.276.072-.402 1.396-.484 2.958-.182 1.563.301 2.775.872 2.709 1.275" stroke-linejoin="round" stroke-width=".717134"/></g><path d="M274.431 81.17s.304 1.277 1.034.608c.73-.67 10.767-4.623 24.94-4.623 14.174 0 23.48 3.893 24.028 4.136.548.243.791.547 1.278 0 .486-.547-.487-1.4-.487-1.4s-9.854-4.196-25.244-4.136c-15.39.061-25.366 4.441-25.366 4.441s-.67.487-.183.973z" fill="#cca715" fill-rule="evenodd" stroke="#000" stroke-width=".326"/><path d="M292.404 87.065s.452-1.257 1.242-1.5c.63-.192 1.624.427 1.624.427s-1.198-.11-1.573.103c-.338.192-.44.764-.44.764s.256-.456 1.175-.411c.918.044 1.021.044 1.021.044s-1.558.117-1.918.565c-.36.449 1.47.654 1.47.654s-2.8.015-3.167-.154c-.367-.169-.602-.742-1.227-.566-.625.177-1.264.735-1.264.735s.713-1.198 1.161-1.205c.448-.007.713-.03 1.117.154s.779.39.779.39zM281.935 89.332s.212-1.319.944-1.702c.583-.306 1.674.118 1.674.118s-1.197.113-1.526.392c-.297.252-.292.833-.292.833s.169-.496 1.08-.622c.91-.127 1.011-.146 1.011-.146s-1.509.404-1.78.91c-.27.508 1.565.372 1.565.372s-2.748.532-3.14.434c-.393-.098-.73-.618-1.311-.33-.581.29-1.106.956-1.106.956s.479-1.308.918-1.398c.439-.09.695-.161 1.126-.055.431.105.837.238.837.238zM301.233 86.6s.524-1.229 1.326-1.424c.64-.157 1.597.52 1.597.52s-1.19-.18-1.576.01c-.35.173-.484.738-.484.738s.283-.44 1.197-.343c.915.098 1.017.104 1.017.104s-1.562.027-1.947.453c-.386.427 1.43.738 1.43.738s-2.797-.147-3.154-.337c-.357-.19-.558-.776-1.192-.636-.634.14-1.304.66-1.304.66s.78-1.154 1.229-1.136c.448.019.713.012 1.106.22.393.206.755.433.755.433zM310.072 87.6s.664-1.16 1.484-1.26c.654-.08 1.525.702 1.525.702s-1.16-.317-1.566-.172c-.367.13-.567.676-.567.676s.332-.404 1.229-.2c.897.202.998.22.998.22s-1.554-.155-1.987.224c-.433.378 1.333.9 1.333.9s-2.76-.473-3.091-.704c-.333-.23-.465-.835-1.11-.77-.646.065-1.373.503-1.373.503s.91-1.055 1.353-.984c.443.07.707.095 1.073.346s.7.519.7.519zM318.85 89.167s.619-.883 1.285-.904c.53-.016 1.174.676 1.174.676s-.91-.34-1.246-.253c-.305.078-.506.502-.506.502s.297-.3 1.003-.072c.706.23.786.251.786.251s-1.238-.238-1.613.034c-.376.273 1.005.82 1.005.82s-2.183-.581-2.433-.79c-.25-.21-.312-.706-.835-.701-.524.005-1.14.304-1.14.304s.809-.781 1.16-.692c.35.09.56.128.836.357.276.228.524.468.524.468z" fill-rule="evenodd"/><path d="M290.639 81.076c.21 1.048-1.021 2.178-2.751 2.525-1.73.346-3.303-.222-3.511-1.27-.211-1.047 1.02-2.178 2.75-2.524 1.73-.347 3.303.222 3.512 1.27z" fill="#0f6545" stroke="#000" stroke-width=".435" stroke-linejoin="round"/><path d="M286.72 80.905c.051.254-.216.522-.597.598-.38.076-.73-.068-.781-.321-.051-.254.216-.522.597-.598.38-.076.73.067.781.321z" fill="#cecfc1"/><path d="M315.088 82.344c-.32 1.02-1.943 1.417-3.627.889-1.683-.529-2.788-1.784-2.467-2.803.32-1.02 1.943-1.417 3.627-.889 1.683.529 2.788 1.784 2.467 2.803z" fill="#0f6545" stroke="#000" stroke-width=".435" stroke-linejoin="round"/><path d="M311.735 80.308c-.078.247-.44.353-.811.237-.37-.116-.608-.41-.53-.658.077-.247.44-.353.81-.237.37.117.608.411.53.658z" fill="#cecfc1"/><path fill="#1f2d86" stroke="#000" stroke-width=".619" stroke-linejoin="round" d="M296.627 78.715h6.337v3.195h-6.337z"/><path d="M299.298 79.395c0 .145-.27.262-.602.262-.333 0-.603-.117-.603-.262 0-.144.27-.261.603-.261.332 0 .602.117.602.261z" fill="#707c8b"/><path d="M278.715 81.91l1.048 3.09-1.938 1.047s-.89.628-1.78.157c-.891-.471-1.416-1.883-.944-2.462.939-1.147 3.614-1.885 3.614-1.833z" fill="#9f1209" fill-rule="evenodd" stroke="#000" stroke-width=".326"/><path d="M277.092 84.11c0 .52-.399.942-.89.942-.493 0-.891-.422-.891-.943 0-.52.398-.943.89-.943s.891.422.89.943z" fill="#8f322f"/><path d="M276.25 83.74a.526.526 0 0 1-.103.43.261.261 0 0 1-.336.056.526.526 0 0 1-.234-.376.526.526 0 0 1 .102-.431c.09-.1.219-.121.337-.055.117.066.206.21.233.376z" fill="#e2a494"/><path d="M321.175 82.312l-1.04 2.752 2.466 1.292s1.091.486 1.78-.118c.587-.516.72-1.711.25-2.315-.444-.572-3.49-1.628-3.456-1.611z" fill="#9f1209" fill-rule="evenodd" stroke="#000" stroke-width=".326"/><path d="M324.128 84.518c0 .339-.353.613-.788.613-.436 0-.789-.274-.789-.613 0-.338.353-.612.789-.612.435 0 .788.274.788.612z" fill="#aa675d"/><path d="M323.373 84.426a.48.48 0 0 1-.184.393.311.311 0 0 1-.37 0 .48.48 0 0 1-.184-.393.48.48 0 0 1 .184-.393.311.311 0 0 1 .37 0 .48.48 0 0 1 .184.393z" fill="#e2a494"/><g fill="#f5d8bc"><path d="M305.344 78.988c0 .235-.2.426-.446.426a.436.436 0 0 1-.446-.426c0-.235.2-.426.446-.426s.446.19.446.426zM308.04 79.143c0 .236-.199.426-.445.426a.436.436 0 0 1-.447-.426c0-.235.2-.426.447-.426.246 0 .446.191.446.426zM306.674 80.191c0 .296-.251.535-.56.535-.31 0-.562-.24-.561-.535 0-.296.25-.535.56-.535.31 0 .561.24.56.535zM307.975 81.95c0 .236-.2.426-.446.426a.436.436 0 0 1-.446-.426c0-.235.2-.425.446-.425.247 0 .446.19.446.425zM305.373 81.615c0 .235-.2.426-.446.426a.436.436 0 0 1-.446-.426c0-.235.2-.426.446-.426s.446.19.446.426z"/></g><g fill="#f5d8bc"><path d="M292.33 79.447a.436.436 0 0 1-.338.516.436.436 0 0 1-.53-.315.436.436 0 0 1 .338-.515.436.436 0 0 1 .53.314zM294.992 78.99a.436.436 0 0 1-.338.516.436.436 0 0 1-.53-.315.436.436 0 0 1 .338-.515.436.436 0 0 1 .53.314zM293.897 80.319a.548.548 0 0 1-.425.648.548.548 0 0 1-.667-.395.548.548 0 0 1 .425-.648c.302-.07.6.107.667.395zM295.562 81.74a.436.436 0 0 1-.338.515.436.436 0 0 1-.531-.314.436.436 0 0 1 .338-.516.436.436 0 0 1 .531.315zM292.95 82a.436.436 0 0 1-.338.515.436.436 0 0 1-.53-.314.436.436 0 0 1 .338-.516.436.436 0 0 1 .53.315z"/></g><g fill="#f5d8bc"><path d="M280.963 81.9a.436.436 0 0 1-.262.56.436.436 0 0 1-.57-.236.436.436 0 0 1 .262-.559c.23-.09.485.016.57.236zM283.533 81.07a.436.436 0 0 1-.262.558.436.436 0 0 1-.57-.235.436.436 0 0 1 .262-.559c.23-.09.485.016.57.236zM282.638 82.54a.548.548 0 0 1-.329.703.548.548 0 0 1-.716-.296.548.548 0 0 1 .329-.702c.289-.113.61.02.716.296zM284.488 83.71a.436.436 0 0 1-.262.559.436.436 0 0 1-.57-.236.436.436 0 0 1 .262-.559c.23-.089.485.017.57.236zM281.94 84.34a.436.436 0 0 1-.261.558.436.436 0 0 1-.57-.236.436.436 0 0 1 .262-.558c.23-.09.485.016.57.235z"/></g><g fill="#f5d8bc"><path d="M317.052 80.664a.47.47 0 0 1-.576.332.47.47 0 0 1-.357-.56.47.47 0 0 1 .576-.332.47.47 0 0 1 .357.56zM319.834 81.518a.47.47 0 0 1-.576.332.47.47 0 0 1-.357-.56.47.47 0 0 1 .576-.332.47.47 0 0 1 .357.56zM318.135 82.264a.59.59 0 0 1-.723.417.59.59 0 0 1-.45-.704.59.59 0 0 1 .724-.417.59.59 0 0 1 .45.704zM319.046 84.439a.47.47 0 0 1-.576.331.47.47 0 0 1-.357-.56.47.47 0 0 1 .576-.331.47.47 0 0 1 .357.56zM316.409 83.42a.47.47 0 0 1-.576.332.47.47 0 0 1-.358-.56.47.47 0 0 1 .576-.331.47.47 0 0 1 .358.56z"/></g><path d="M322.483 55.582s-1.282 1.202-2.804 1.202c-1.523 0-2.404-.641-2.885-.962-.48-.32.16-1.282.16-1.282" fill="none" stroke="#000" stroke-width=".75"/><path d="M295.56 57.986s-2.324-.4-3.285-.721c-.962-.32-.722-.962-1.843-.882-1.122.08-2.244.882-2.004 2.003.24 1.122 1.042 1.283 1.843 1.042.802-.24.561-1.602-.48-1.522-1.042.08-.16.961-.16.961" fill="none" stroke="#000" stroke-width=".685"/><path d="M279.534 56.223s.641.962 2.324.801c1.683-.16 2.324-1.041 2.404-1.442.08-.4 0-1.122-.32-1.442-.321-.32-1.443-.481-1.443-.481" fill="none" stroke="#000" stroke-width=".652"/></svg>