<svg width="1200" xmlns="http://www.w3.org/2000/svg" viewBox="0 0 600 400" height="800"><path fill="#fff" d="M0 0h600v400H0z"/><path fill="#00ab39" d="M0 200h600v200H0z"/><path d="M424.588 50.074c-1.57-.222-3.12.06-4.83.84-3.42 1.562-7.59 5.03-14.77 10.5-16.22 12.373-34.64 13.967-56.53 14.46-45.51 1.024-66.57 12.16-76.5 26.39-9.94 14.23-8.69 31.37-9.88 44.09-.82 8.68-2.42 16.11-8.73 24.27 1.72-4.21 2.25-7.3 1.83-9.6-.45-2.44-1.86-4.04-3.47-5.36-1.61-1.31-3.39-2.38-4.8-3.86-1.08-1.13-1.8-2.67-2.2-4.58 1.81-1.17 3.98-1.2 5.7-.15 2.15 1.31 3.62 4.23 2.57 8.72-.03.19.13.33.28.44.03.07-.03.16.03.21.18.15.43.15.62 0l.06-.06s-.01-.02 0-.03c4.4-4.67 6.31-8.48 6.62-11.78.32-3.31-.97-6.02-2.72-8.35s-3.98-4.34-5.57-6.32c-1.52-1.88-2.42-3.68-2.08-5.74.71-.72 1.38-1.22 1.98-1.46 1.31-.53 2.36-.18 3.32.72.95.89 1.73 2.35 2.2 3.92.46 1.57.63 3.25.43 4.49-.01.03.03.03.03.06-.06.23.04.46.25.56.21.11.47.06.62-.12.02-.04.03-.06.06-.1.01-.02.01-.04.03-.06 2.92-4.44 4.12-8.25 4.18-11.56.05-3.35-1.07-6.16-2.66-8.54-1.6-2.37-3.65-4.35-5.51-6.04-1.8-1.632-3.35-3-4.15-4.207-.01-.355.01-.78 0-1.122 1.37-.982 3.2-1.54 4.89-1.184 1.85.393 3.51 1.728 4.27 4.706.01.025.05.01.06.03.03.25.21.47.47.47.27 0 .49-.227.49-.5v-.03c.2-6.074-.92-10.948-3.16-14.583-2.07-3.374-5.13-5.618-8.85-6.855.16-.238.29-.452.5-.716 1.26-1.657 2.98-3.58 4.64-5.796 3.31-4.43 6.5-10.052 5.82-17.012 0-.063-.07-.1-.09-.156-.03-.06-.01-.14-.06-.186-.1-.088-.24-.134-.38-.125-.08.004-.08.115-.15.156-.08.033-.17.056-.22.124-3.1 4.038-8.71 5.217-14.58 6.014.66-1.223 1.53-2.86 2.29-4.83.86-2.224 1.53-4.48 1.21-6.168v-.03c-.01-.047.01-.112 0-.157-.03-.134-.1-.24-.22-.31-.12-.072-.27-.1-.4-.064-.05.013-.05.07-.09.095-.08.025-.16.06-.22.124-3.59 3.915-10.35 6.24-16.29 7.882-2.96.822-5.72 1.472-7.8 2.12-1.04.323-1.91.643-2.57.996-.42.225-.75.495-.99.81-4.12-.902-8.01-1.508-11.48-1.682-6.29-.315-11.4.434-14.86 1.838-1.74.702-3.08 1.59-3.94 2.617-.86 1.03-1.22 2.253-.96 3.49.25 1.162 1.22 2.29 2.51 3.397-8.97-3.708-16.67-5.193-22.97-5.203-2.59-.005-4.98.218-7.12.592-4.28.747-7.64 2.108-10.09 3.49-1.93 1.084-3.11 2.107-3.91 2.96-.09.082-.22.093-.31.186-.01.018-.04.013-.06.03-.03.04.02.083 0 .126-.04.055-.14.134-.18.187-.02.01-.05.02-.06.03v.032c-.03.036-.1.09-.13.125-.13.19-.12.452.03.623.16.17.42.206.62.094 1.14-.677 2.42-1.26 3.78-1.777.06.017.13.03.18.03 1.12.02 2.29.265 3.38.686 1.18.455 2.3 1.036 3.13 1.557s1.41.997 1.51 1.09c.02.023.04.044.06.063.59.384 1.42.762 2.23 1.122-1.74 3.602-2.35 8.182-2.32 14.893-.31.06-.54.132-.9.187-1.83.28-4.23.44-6.87.28-3.73-.226-7.91-1.155-11.7-3.146.62.107 1.25.312 1.86.342 2.8.14 5.26-.424 7.09-1.433.27-.06.61-.073.83-.156.2-.073.31-.26.31-.468 0-.14-.12-.22-.22-.312-.04-.044-.03-.132-.09-.156-2.73-1.07-17.19-7.706-29.41-23.15-.01-.012-.02-.02-.03-.03s-.02-.02-.03-.032c-.11-.142-.29-.214-.47-.187-.25.047-.42.275-.4.53 0 .063.01.127.03.187.56 7.36 2.85 25.335 17.8 39.79.16.15.4.19.59.09s.28-.315.25-.528c-.36-1.91-.54-3.212-.9-5.14 0-.03-.05-.035-.06-.063.03-2.49-.17-4.21-.46-5.64 4.46 4.086 9.16 5.936 13.56 6.513 5.61.737 10.7-.432 14.05-.966.17-.027.36-.066.53-.093.05 3.18-1.16 7.24-3.16 10.59-1.13 1.9-2.46 3.54-3.87 4.68-1.4 1.13-2.87 1.75-4.24 1.65h-.03c-.23.04-.39.24-.4.47-.09.09-.23.11-.22.25.01.27.22.5.49.49 6.09 0 11.17.17 16.69-.18h.03c.7-.1 1.01 0 1.02 0-.01.05-.03.11-.09.22-.36.62-1.53 1.78-2.88 3.08-.16.14-.21.36-.12.56.08.2.28.33.49.31.03 0 .07-.03.1-.03.12.1.28.13.43.1.06-.02.1-.05.15-.07.21-.05.36-.12.56-.18 3.58-.38 8.04-1.12 11.4-3.53-.07.36-.2.87-.31 1.16-.13.3-.36.63-.78 1.06-.05.05-.19.16-.25.22-.58.44-.99.83-1.73 1.34-.04.02-.05.03-.09.06-.17.11-.24.33-.19.53s.2.34.4.37c.04.01.09.01.13 0h.06c.03 0 .07-.03.09-.03 3.76-.39 10.34-3.28 15.08-8.29 2.46.33 4.03 1.54 5.11 2.74.58.65 1.01 1.26 1.48 1.69.19.16.42.26.65.34-.01.22-.2.45-.15.65.12.45.42.8.8 1.03-1.77 3.24-2.31 5.54-2.04 6.98.16.85.53 1.42.93 1.81-2.36 1.73-4.34 3.58-5.29 5.26-.52.92-.77 1.82-.56 2.62.06.23.24.4.37.59-.18.02-.34-.04-.56.03h-.03c-2.34 1.13-4.62 3.4-5.85 5.61-.61 1.11-.95 2.2-.87 3.18.04.43.23.81.47 1.15-2.95 1.51-5.73 4.9-7.25 7.92-.77 1.55-1.23 2.99-1.11 4.14.06.58.3 1.11.77 1.43-.1.11-.17.18-.28.29-.05.05-.1.06-.15.12-2.98 1.53-4.97 5.12-5.82 8.29-.43 1.61-.59 3.11-.34 4.24.09.41.35.72.59 1.02-.16.12-.35.19-.5.32-.9.78-1.54 1.69-1.76 2.02l-.03.03c-1.75 2.22-2.5 5.85-2.39 8.88.06 1.52.33 2.9.9 3.9.2.35.51.57.8.81-.03.04-.15.11-.18.15l-.03.03c-1.75 2.22-2.5 5.85-2.39 8.88.06 1.53.34 2.9.9 3.9.28.5.65.91 1.12 1.15.23.12.53.05.8.06-.06.1-.27.32-.31.38 0 .01-.01.04-.03.06-.28.28-.46.62-.62 1.09-.08.23-.12.54-.18.81-1.07 2.17-1.95.99-2.54.16-4.62-9.61-9.13-15.26-13.56-37.18-.78-3.82-9.33-9.8-11.68-25.3-.47-3.51 4.81-11.04-2.47-13.33-.02-.01-.04 0-.06 0-4.97-9.42-15.16-5.83-16.78-2.74-.15.16-.15.41-.04.59.12.18.32.24.53.19 1.32-.37 5.24.98 5.26 3.42-2.18 5.14.53 9.44-.92 8.98-.23-8.03-9.01-7.93-9.29-7.86-.01.01 0 .03 0 .04l-3.93-.47c-13.1.1-9.41 9.66-8.61 11.53.13.17.42.24.71.22.29-.03.5-.16.56-.35-.58-3.59 2.29-3.77 5.29-2.37 1.91 7.27 5.92 7.53 6.47 7.54v.04h.06c5.43 1.1 7.15 4.72 7.19 6.91-1.73-.67-3.84-1.02-6.78-.46-1.97-2.01-5.77-2.74-7.03-3-.62-.12-4.69.4-6.35 2.75l-.62-.1c-8.13 2.61-4.78 11.77-2.01 12.87.11.15.29.21.47.16.17-.06.24-.22.24-.41-1.22-2.81.5-4.37 2.6-3.43 3.12 3.42 6.96 4.81 14.74.41.12.06 2.75 1.24 5.54 2.27-.11 3.28 3.36 9.01 5.88 13.28-.79 3.34-2.11 6.65-2.87 7.88-.02.01-.05.05-.07.06-3.15 2.43-5.87 8.22-4.58 13.4-.99 2.55-4.56 3.92-4.58-1-.17-.14-.38-.17-.56-.06s-.26.32-.21.53c-1.15 3.27 4.25 13.14 12.69 7.98l1.7-1.93c2.78.04 5.71-3.62 6.75-6.77 4.18 25.61 14.05 51.44 18.17 59.83-3.05 9.42-11.95 9.06-14.86 5.98-.03-.02-.05-.04-.09-.06-.21-.18-.51-.12-.68.09-.17.22-.15.51.06.69 5.43 5.46 8.41 7.21 13.75 7.19 11.75-.04 15.86-7.34 16.78-10.43 9.89-2.12 17.49-8.58 20.34-9.1.44.38 1.04 1.1 1.45 1.43 2.35 1.87 4.31 2.92 6.04 3.12.83.09 1.6-.04 2.29-.38.67 1.38 1.67 2.51 2.94 3.4-.51 3.48-.91 10.59-3.43 19.66-2.6 9.33-7.45 20.49-16.88 31.03-3.71 1.62-6.71-.88-8.63-2.43-1.62-1.3-5.83-5.82-6.57-8.16-.87-2.76-1.89-4.68-3.34-6.11s-3.88-1.91-5.76-2.09c-.02 0 .71.14-.06 0-.68.06-1.14.01-1.58.07-5.73-4.54-11.39 3.08-10.71 7.85.01.2.15.38.37.43.22.06.45-.02.59-.18.77-1.81 3.05-1.31 4.21.28-.18 1.69-.07 3.62 1.79 5.86-1.81.13-4.12.67-6.53 3.45-9.81 1.18-8.02 12.32-5.11 14.18.09.2.29.31.5.28.2-.03.36-.19.4-.4-3.21-4.16 1.33-5.96 3.59-4.05.57 1.82 3.17 3.52 5.36 4.58-.11.54-.83 2.73-.59 3.33-10.55 5.79-.77 15.88 1.67 15.21.2-.06.38-.07.56-.19.17-.12.24-.36.18-.56-1.5-2.39-1.56-5.28 1.06-4.46 1.37.88 3.94 1.23 5.32 1.25 3.34.05 5.2-2.11 9.38-6.2 2.49-2.44 4.4-1.26 5.95-.44.16.7.43 1.53 1.27 1.87 1.23.51 3.89.77 5.45.72 8.62-.27 13.4-2.16 17.33-3.52 3.93-1.37 7.51-2.1 10.81-2.15 3.08-.06 5.1.56 8.45 1.68 1.68.56 4.37 1.92 5.7 1.9 2.17-.08 3.14-1.12 3.68-1.96 3.22-.58 4.04.84 2.17 4.48-.06.21.04.45.21.56.18.12.39.1.56-.03 3.34-1.41 13.32-10.97-.15-16.42-2.05-1.82-4.72-3.36-6.78-3.36-2.08 0-4.14.84-6.29 1.31-2.15.46-4.24.89-4.95.9-2.76.05-2.89-1.66-3.16-4.7-.27-3.05 6.16-13.74 9.01-17.52 5.65-7.47 13.18-15.98 18.61-21.56 16.16-.69 9.64 8.87 6.9 10.72-.21.13-.29.39-.18.63.1.23.34.35.58.28.06-.02.1-.05.16-.07 5.85-1.54 11.39-5.56 13.25-9.31.01-.02 4.22-7.33.62-13.56-.17-.36-.35-.85-.53-1.24 2.02-.94 4.48-4.36 4.58-4.83 2.69.77 13.06.21 14-5.64 4.79.47 13.36-2.71 13.68-7.92.56.54 1.78.56 3.13.32.54 4.38 7.17 8.53 8.7 7.6.67 7.27 9.82 10.71 12.48 9.44-.45 1.76 6.3 5.07 9.01 4.92-5.2 14.07-14.42 29.94-27.19 36.27-3.42-.35-8.31-2.63-10.46-4.08-1.72-1.16-3.91-2.62-5.27-4.8s-1.27-2.13-2.72-3.55c-1.45-1.43-4.32-2.53-5.26-2.43-.67.06-1.79.56-2.79 1.24-12.58-2.25-11.38 6.74-10.28 10.01.01.19.15.37.37.43s.46-.03.59-.19c.04-4.7 2.71-4.69 4.12-2.52-.02.08-.05.14-.03.22.76 1.63.43 2.52.15 3.15-1.38.14-2.81.49-4.45 1.71-11.07-1.22-10.06 11-6.54 12.43.09.2.29.31.5.28.2-.03.36-.19.4-.4-1.98-2.92 3.01-7.35 4.18-2.06v.03c-.13.16-.16.38-.06.56.26 1.72 2.27 3.39 4.05 4.24-.32.53-.99.99-1.14 1.9-11.66 4.11-5.15 14.09-1.7 15.55.16.12.41.12.58 0 .18-.12.24-.33.19-.53-1.06-1.51-.67-4.93 4.18-4.3.41 1.4 2.53 2.03 4.18 2.06 3.34.04 9.42-4.49 12.63-6.24 3.03-1.65 7.95-1.03 9.23-.96.64.54 1.63 1.08 3.87 1.06 11.7-.14 13.73-6.48 25.54-6.3 5.3.08 17.86 6.35 21.86.56 1.81-.67 2.81.94.62 3.12-.15.15.04.44.21.56.18.12.35-.06.56-.03 3.49.43 13.93-10.97.12-14.68-.06-.11-.05-.21-.21-.34-.33-.24-2.08-2.11-6.2-2.12-4.27 0-7.23 1.96-8.7 2.37-3.12.88-2-1.64-1.67-2.46 3.46-8.45 20.15-24.2 27.71-30.57.76-.3 1.67-.77 2.76-1.46 7.6-2.75 9.64 4.67 2.16 7.38-.3.33-.34.81-.12 1.19s.66.57 1.08.46c17.6-4.67 14.95-14.3 14.96-14.42.66-9.98-11.21-14.14-13.13-15.08-3.23-3.59-3.98-5.71-3.74-8.29.11-1.24 1.1-3.37 2.78-2.46 2.84 2.25 6.25 3.57 7.22 1.74-2.02 2.31 11.98 10.7 13.37 7.23 1.35 5.98 11.43 5.62 13.37 3.99 2.93 5.66 13.22 4.16 13.19 3.18-.42 2.08 8.94 5.18 13.25 1.96l.19.47c3.42 4.15 5.47 9.71 7.8 19.44 2.34 9.73 1.91 17.44-1.21 25.27-.15.28-.99.31-1.95.28-2.5-.99-3.97-1.75-5.66-3.12-1.62-1.3-3.55-3.13-4.96-5.14-1.31-2.34-2.23-4.21-3.68-5.64-1.45-1.42-3.94-2.06-5.82-2.24h-.06c-.83.07-1.54.34-2.17.78-9.4-2.92-13.93 7.04-12.82 10.31.01.2.19.38.41.44s.45-.03.58-.19c.95-2.44 5.3-3.65 6.85-1.37.23.98.15 1.71-.07 2.18-1.95.21-4.29.8-6.5 3.59-11.01.71-7.24 11.49-5.01 14.3.09.2.29.31.49.28.21-.03.39-.19.44-.41-.28-3.13 2.9-6.86 5.14-4.02 1 1.57 3.21 2.71 4.76 3.06-12.6 5.8-3.57 14.13-.15 15.58.17.12.38.11.56 0 .17-.12.27-.33.21-.53-1.54-2.46-.68-6.16 2.26-5.18-.07 2.04 4.12 3.4 6.04 3.43 3.34.05 6.88-2.71 10.09-4.45 3.06-1.67 10.24-1.73 11.67-1.75 4.82 4.59 14.05 3.42 19.2 1.81 5.51-1.74 9.67-4.79 13.99-4.89 5.87.04 10.39 7.11 15.51 1.09 3.36-1.62 4.36 2.49 2.73 5.08-.06.2.01.41.19.52.17.12.41.13.58 0 3.39-1.43 12.21-9.56.16-15.36.6-1.56-4.67-6.12-9.1-6.13-5.42-.02-13.59 8.23-16.78-8.17-.78-3.96-3-32.54-3.16-35.3 1.06-.68 2.47-1.5 3.5-1.46 1.21-.06 2.43-.16 3.62 1.74s2.11 4.74-.9 8.66c-.04.06.05.12.03.19-.03.09-.11.16-.09.25.01.06.09.07.12.12s-.01.12.03.16c.04.03.08-.02.13 0 .04.02.04.08.09.09.18.05.37-.01.5-.15 7.47-7.43 9.28-15.35 7.3-20.78-1.98-5.44-7.47-9.47-11.89-9.57-5.33-.13-11.24-3.25-16.28-7.95s-8.18-10.04-10.19-15.01c-.36-.91-.86-1.79-1.27-2.68 32.6-11.26 41.97-37.24 41.95-53.19 0-11.05-4.54-20.45-11.02-27.33-.11-2.65.58-6.04 1.64-9 .6-1.68 1.27-3.2 1.83-4.27.24-.46.44-.78.62-1.06.16.64.29 1.25.68 2.21.55 1.37 1.28 2.98 2.11 4.62 1.65 3.27 3.63 6.58 5.32 8 .14.12.33.14.5.07.16-.08.29-.23.31-.41 1.32-16.06 6.84-39.616 24.73-61.288l.03-.03c.01-.01 0-.023 0-.032.07-.032.12-.06.19-.094.22-.112.32-.358.25-.592-.08-.233-.32-.383-.56-.342-.03.007-.06.017-.09.03-.01.005-.03-.003-.03 0-4.08 1.925-7.76 3.823-11.09 5.672-29.11 15.508-34.32 25.995-50.43 38.445-.19.13-.27.38-.19.6.08.21.3.33.53.31 7.95-.39 14.82-2.14 21.05-5.33-1.6 2.58-3.42 5.73-5.2 8.54-1.04 1.64-2.05 3.09-2.88 4.05-.41.47-.77.84-1.05 1.02-.14.09-.15.05-.22.07-4.3-2.03-8.79-3.17-13.09-3.18-16.07-.04-27.16 10.66-27.25 23.55-.09 13.82 10.64 24.09 21.3 23.56 3.69-.18 8.62-1.13 12.97-4.02 3.18-2.11 5.97-5.33 7.62-9.85.03.37.12.72.12 1.1.01 7.41-2.83 12.47-7.46 15.92-4.62 3.44-11.18 5.21-18.51 5.36-7.17.15-14.53-3.76-24.92-7.95-10.4-4.19-23.8-8.55-42.98-8.88-5.74-.1-11.19.46-15.76 2.84-.29.15-.54.39-.83.56 2.44-2.94 5.39-5.56 8.91-7.48 8.35-4.56 18.95-5.77 28.43-1.9 1.02.48 2.21 1.1 3.09 1.46.73.3 1.14.3 1.77.5.16 1.15.17 2.06-.03 2.49-.11.23-.25.32-.41.41-.09.04-.21.06-.34.09-.2.04-.42.1-.74.03-.17-.03-.35.02-.46.16-.12.13-.16.33-.1.5-.03.22.08.43.28.53.13.06.25.04.37.09.76.73 1.59 1.12 2.39.94.99-.23 1.82-1.01 2.47-1.94.66-.92 1.14-2.01 1.4-3.02.02-.11.01-.2.03-.31.79-.89 1.38-2.2 1.11-3.71-.28-1.58-1.58-3.23-4.05-4.58-.05-.04-.04-.12-.1-.15-.08-.06-.6-.59-1.02-1.47-.42-.87-.84-2.09-1.14-3.49-.62-2.79-.8-6.38 0-9.94 1.58-7.11 6.83-14.22 21.2-15.64.07 0 .1-.08.16-.09 2.77.55 5.25.93 7.15.9.3 0 .53-.07.81-.09.13.15.26.27.37.47.21.37.34.79.28 1.3-.06.41-.41.93-.81 1.47-.03.01-.03.02-.06.03-.16.04-.29.16-.34.31-.06.16-.04.33.06.47v.06h.03v.03c.05.18.2.31.37.34.2.04.39-.05.59-.06.86.26 1.73.24 2.48-.28 1-.69 1.83-1.86 2.32-3.14.49-1.29.68-2.71.25-3.93-.29-.81-1.02-1.38-1.92-1.78-11.35-11.84-10.88-26.187-6.41-38.32 2.24-6.076 5.51-11.54 8.76-15.642 3.25-4.1 6.84-7.044 8.61-7.664.09-.035-.06.083.03.03.71.04 1.44.1 2.1-.092 1-.29 1.9-.786 2.7-1.402.04.04 0 .134.06.156.25.09.51-.038.62-.28l.03-.032c.09-.057.25-.124.43-.187.37-.126.84-.197 1.15-.157.16.02.28.08.34.125s.1.065.12.187c.04.24-.07.88-.65 1.87-.01.02-.02.01-.03.03v.062c-.07.125-.08.273-.03.406l.03.03v.032h.03l.03.062.03.032s.02.02.04.03c.03.026.08.047.12.062.02.012.04.022.06.03.02.003.04.003.06 0 .02.003.04.003.07 0 .02.003.04.003.06 0 .05 0 .1-.01.15-.03.04-.016.06-.046.09-.062.02-.012.02-.02.04-.03.9-.172 1.79-.71 2.57-1.528.87-.923 1.58-2.1 1.91-3.303.34-1.204.29-2.527-.58-3.428-.74-.754-2.06-1.075-3.81-1.06-.31-.697-.87-1.305-1.64-1.65-.72-.322-1.67-.372-2.7-.344l-.68-.187c-1.82-1.168-3.38-1.864-4.95-2.086zm-249.04 51.286c3.37.023 6.72.583 9.81 1.994-.66.55-1.49.955-2.51 1.184-1.93.437-4.37.32-6.68-.125-2.32-.446-4.51-1.232-5.98-1.994-.45-.234-.66-.44-.96-.655 2.07-.255 4.19-.42 6.32-.405zm260.93 50.003c1.22.03 2.56.29 3.93.78 1.02.37 2.02.99 3 1.59-.14.17-.25.38-.31.59-1.79 6.37-5.08 8.21-7.77 8.17-2.68-.05-4.94-2.06-4.95-4.74-.02-3.35 1.16-4.92 2.91-5.76.87-.42 1.97-.65 3.19-.63zm-187.16 16.89c.72-.12 1.31.01 1.8.41.49.39.9 1.09 1.05 2.27.01.07.1.07.13.13.01.17.04.36.21.43.06.03.1-.03.16-.03-.88 1.08-1.72 2.16-2.79 3.27-1.63-.63-3.1-1.69-4.27-3.55 1.01-1.54 2.45-2.71 3.71-2.93z"/><path d="M424.808 51.788c-6.09 6.068-12.11 10.353-20.65 15.578-14.99 9.165-32.51 11.506-54.37 12.65-44.27 2.33-63.88 10.967-72.97 23.4-9.09 12.437-7.55 28.417-9.88 45.117-.73 5.23-2.3 11.49-5.14 16.79-2.39 4.48-5.72 8.18-10.15 10.19 12.3-11.13 12.36-22.01 13.4-28.38 1.87-11.45-.21-27.71 8.67-41.567 8.89-13.86 28.77-25.497 74.96-27.263 19.04-.73 30.66-2.562 38.73-4.954 8.06-2.393 12.56-5.347 17.21-8.196 4.8-2.943 8.75-7.38 12.6-10.344 1.92-1.483 3.81-2.59 5.73-2.99.6-.128 1.24-.053 1.86-.032zm5.38 2.523c.85-.032 1.55.022 1.92.188.43.193.61.417.71.717.21.6-.08 1.827-.92 2.99-.85 1.165-2.16 2.19-3.53 2.587-1.38.394-3.82-.676-4.18-.997-.17-.177-.42-.14-.65-.156-.24-.268-.47-.54-.72-.81-.1-.133-.26-.203-.43-.188-.1.01-.2.055-.28.125-21.84 19.97-40.46 23.764-71.17 25.892-10.46.72-26.84 2.718-41 6.262-7.07 1.772-13.61 3.913-18.57 6.512-4.96 2.598-8.42 5.664-9.17 9.347-.03.16.02.32.13.437.11.118.27.18.43.156.06-.01.13-.022.19-.03.21.288.52.488.9.435 2.6-.232 10.11-.26 20.24.125 10.13.39 22.97 1.17 36.5 2.46 26.04 2.49 54.59 6.99 71.52 14.24.34.4.63.82.99 1.22-.01 0 .01.02 0 .03-.43.25-1.51.38-3.03.25-3.05-.27-7.88-1.4-13.72-2.9-11.68-3-27.48-7.42-41.98-8.94-24.69-2.6-39.49-5.97-73.28-6.05-.04-.004-.08-.004-.12 0-.04.01-.07.02-.1.033-.15.077-.19.147-.31.247s-.27.24-.43.41c-.32.33-.7.78-1.05 1.37-.71 1.18-1.29 2.87-1.02 4.89.01.17.12.33.27.4.07.04.18.04.25.07.12.1.12.31.28.34 2.9.5 9.52 2.57 18.02 5.61s18.93 7.07 29.78 11.56c21.14 8.74 43.67 19.21 56.38 27.42.88.7 2.17 1.67 2.79 2.52.16.23.29.43.34.59.04.16.03.27 0 .35-.06.12-.57.33-1.18.49-5.03-1.09-12.94-5.38-22.1-10.68-10.02-5.8-21.43-12.59-32.14-17.02-18.83-7.77-41.6-17.87-52.35-20.22l-.13-.03c-.16.01-.19.19-.28.31-.07-.01-.14-.01-.21 0-.06.02-.11.06-.16.1-.76.51-1.3 1.07-1.55 1.74-.24.67-.16 1.39.16 2.12.64 1.47 2.18 3.11 4.49 5.45 4.61 4.69 12.38 12.07 22.26 24.84 17.11 22.12 25.1 32.82 28.54 38.13 1.73 2.66 2.26 4 2.29 4.52.02.26-.01.3-.12.41-.08.07-.28.19-.46.31-1.37-.05-2.18-.31-2.98-1.06-.83-.79-1.7-2.17-3-4.43-2.61-4.51-7.01-12.42-17.24-25.83-6.22-8.14-13.75-16.89-20.13-24.17-6.29-7.2-11.39-12.89-12.94-15.02-.04-.12-.08-.23-.12-.35-.05-.12-.13-.22-.25-.28-.29-.12-.66-.07-.9.1-.23.16-.4.38-.56.65-.3.54-.53 1.27-.77 2.18-.48 1.84-.92 4.37-1.27 7.01-.34 2.64-.6 5.4-.77 7.67-.16 2.18-.24 3.75-.19 4.58v.19c.01.08.05.14.09.21.43 3.83 2.11 7.06 4.28 11.56 2.24 4.66 4.97 10.71 7.43 20.26 2.08 8.08 4.17 16.44 5.17 22.83.5 3.2.71 5.91.55 7.79-.07.95-.24 1.68-.49 2.15s-.51.67-.9.72h-.03c-.59.14-.8.08-1.02-.16-.22-.23-.43-.79-.59-1.71-.31-1.84-.42-5.02-.93-9.69-1.01-9.3-3.61-24.58-12.54-47.76-.02-.07-.03-.12-.06-.19-.02-.05-.09-.02-.12-.06-.06-.08-.06-.19-.16-.22-.07-.03-.09.03-.15.03-.04 0-.05-.07-.1-.06-.04 0-.04.07-.09.09-.07.03-.17 0-.21.03-.12.09-.21.18-.28.28-.16.21-.33.46-.5.81-.34.7-.74 1.71-1.21 2.99-.92 2.57-2.05 6.23-3.12 10.5-1.42 5.68-2.68 12.46-3.38 19.29-.06-1.02-.08-1.69-.12-2.71-.1-2.46-.1-4.85.09-6.85.1-.98.26-1.85.47-2.59.08-.33.2-.54.31-.81.15-.39.29-.83.49-1.09.02-.02-.01-.04 0-.06.01-.03.02-.05.03-.07.1-.16.11-.37 0-.53-.02-.02-.07 0-.09-.03-.11-.1-.25-.21-.4-.18-.11.01-.2.05-.28.12-3.92 3.75-6.5 6.5-8.45 10.72-.95 2.05-1.74 4.49-2.45 7.51.1-2.02.19-3.89.31-5.39s.32-2.66.49-3.09c.09-.18.05-.41-.09-.56-.13-.15-.33-.19-.52-.12-.08.02-.12.09-.16.15-.04 0-.08-.04-.12-.03s-.07.02-.1.03c-2.48 1.14-6.1 3.69-9.16 6.89-1.44 1.5-2.71 3.16-3.72 4.89.77-3.18 1.51-4.44 2.17-5.73.21-.28.38-.47.62-.84.09-.16.09-.35 0-.5-.05-.09-.16-.12-.25-.16 0-.01-.02.01-.03 0-.06-.02-.09-.09-.15-.09-.05 0-.08.03-.13.03-.08-.01-.13-.09-.21-.06-.06.01-.07.1-.13.12-13.69 1.25-22.02 6.36-26.87 12.18-3.22 3.87-4.83 7.93-5.63 11.38.6-8.8 5.86-17.06 13.46-20.1 4.32-1.72 10.18-2.5 15.45-3.46 5.08-.92 9.61-1.98 11.83-4.48 6.2-2.15 10.75-8.01 13.9-14.21 3.19-6.28 4.97-12.88 5.6-16.36 2.71-14.96.03-30.74 8.3-43.123 4.14-6.19 11-11.57 22.76-15.64s28.39-6.796 51.95-7.603c19.05-.653 30.61-3.086 38.57-6.045 7.97-2.96 12.33-6.448 17-9.192 2.61-1.534 7.12-5.392 11.89-8.63 2.38-1.62 4.82-3.062 7.06-3.99.97-.403 1.88-.635 2.75-.81zm-183.96 2.4c-.74 1.792-1.71 3.6-2.82 5.11-.85 1.154-1.65 2.13-2.26 2.805-.3.336-.55.583-.71.747-.03.035-.04.068-.06.094l-.03.03c-.02.01-.05.02-.07.032 0 .003-.02-.002-.03 0-.05.04-.09.098-.12.156-3.38.43-6.67.923-9.41 2.056-.37.15-.62.448-.96.623-2.02-.696-3.84-1.094-5.76-1.62 0-.015.03-.015.03-.03.06-.227.32-.508.87-.81.54-.304 1.33-.587 2.29-.873 1.91-.574 4.49-1.15 7.18-1.9 4.38-1.224 8.99-3.075 11.86-6.42zm189.57.063c.48.074.84.225 1.08.405.49.36.64.87.56 1.558-.08.602-.47 1.293-.96 1.963.07-.48.22-.988.03-1.372-.42-.836-1.32-1.205-2.26-1.402.17-.38.37-.734.46-1.122.38-.013.8-.075 1.09-.03zm-177.13 4.393c-1.7 8.882-6.48 14.467-11.14 18.01-2.51 1.907-4.95 3.27-6.78 4.3-.92.514-1.7.938-2.26 1.34-.28.2-.5.408-.68.622-.19.214-.34.463-.34.78 0 .274.22.497.49.497.79-.013 2.79-.038 4.74-.062.74-.01 1.03-.023 1.67-.03 2.27 4.775 3.17 11.52 3 19.255-.18 8.305-1.49 17.625-3.34 26.575-1.85 9-4.04 18.98-3.99 27.61.02 4.31.6 8.29 2.1 11.65 1.22 2.71 3.07 5.01 5.64 6.7-.47.74-1.29 1.39-2.6 1.9-1.56.6-3.6 1.04-5.82 1.4-4.46.73-9.68 1.17-13.5 2.31-2.56.76-8.21 3.65-12.54 8.85-3.62 4.33-6.05 10.4-4.99 17.94-.07.14-.12.3-.06.44.09.22.19.44.28.65.21 1.16.26 2.24.65 3.46v.03c.07.27.35.42.62.35.26-.07.41-.33.34-.59 0-.02.01-.05 0-.07-.02-.07-.01-.14-.03-.22-.09-.38-.09-.76-.16-1.15.91.46 2.11.71 3.57.75-1.8 4.14-3.1 8.86-3.94 13.9-.91-1.4-2.27-2.7-4.11-3.9.14-.55.25-1.11.24-1.71-.03-2.87-1.9-6.18-6.16-10.16.31-.48.59-.97.78-1.53.85-2.55.25-5.81-2.23-10.15 1.58-2.58 1.6-6.45-.68-12.34-.02-.04-.07-.03-.1-.06.22-.21.46-.37.65-.6 1.91-2.31 2.4-5.9.81-11.37-.01-.02-.03-.02-.03-.03.39-.3.78-.61 1.11-1 1.82-2.13 2.55-5.54 1.74-10.84.68-.34 1.32-.74 1.85-1.34 1.68-1.87 2.41-5.09 1.98-10.22 1.23-.41 2.35-1.01 3.22-1.93 1.67-1.76 2.41-4.56 1.83-8.73.84-.39 1.65-.84 2.29-1.59 1.5-1.73 2.28-4.51 2.01-8.59.58-.24 1.14-.47 1.52-.88 1.01-1.07 1.24-2.66 1.21-4.95-.03-1.94-.26-4.8-.43-8.04.73-1.13 1.3-2.42 1.51-4.05.33-2.51.02-5.66-.99-9.597 1.24-3.052 2.01-6.558 1.77-10.812.91.31 1.94.515 3.22.28 1.51-.276 3.31-1.128 5.48-2.71.05-.04.1-.052.15-.094.04-.025.06-.036.09-.062.21-.155.27-.434.13-.654-.14-.22-.42-.308-.65-.187-.03.013-.04.048-.06.062-.54.28-1.05.635-1.46.87-.43.25-.72.31-.96.22-2.18-.822-2.71.13-8.92-5.017-.09-.083-.21-.128-.34-.124-.16.007-.31.08-.4.217-.08.136-.09.317-.03.467.03.074.09.145.12.218.02.012.02.02.04.03.59 1.268 1.7 2.464 2.84 3.43.47.39.73.475 1.15.778-1.42-.328-2.57-.818-3.5-1.247-.19-.08-.41-.05-.56.094-.14.144-.17.373-.09.56 2.69 6.27.73 13.84-3.93 18.816-4.6 4.92-11.75 7.29-19.66 3.49-.09-.2-.31-.31-.53-.28-.12.03-.2.12-.28.22-.01.02-.05.01-.06.03-1.06 1.83-1.99 3.5-3.93 5.3-1.2 1.11-3.02 2.33-5.26 3.61.97-.93 1.65-1.8 2.1-2.68.94-1.81.91-3.58.81-5.82-.01-.23-.16-.42-.37-.47-.22-.05-.45.05-.56.25-1.41 2.59-5.76 6.43-12.88 9.07 2.97-2.48 4.9-5.13 5.05-7.76.01-.21-.1-.41-.28-.5-.19-.09-.41-.05-.56.09-3.92 3.47-10.75 4.57-17.4 4.99 1.47-.7 2.89-1.72 4.18-3.12 2.53-2.76 4.58-6.97 5.85-12.492 4.64 2.72 8.86 3.6 12.45 3.366 4.1-.267 7.33-1.828 9.66-3.21-.06 1.01-.12 1.874-.13 3.148 0 .244.17.452.41.498.23.047.47-.082.55-.31 2.19-5.198 3.27-8.453 2.97-11.187-.29-2.734-2.02-4.77-5.07-7.447-.11-.1-.26-.145-.41-.124-.21.04-.37.217-.4.436l-.18 1.932c-6.07-.344-12.59-6.14-25.82 3.863-.32-5.777.03-9.568 1.57-12.712.62.08 1.24.077 1.86-.03 1.24-.218 2.42-.924 3.28-2.276.79-1.23 1.27-3.058 1.46-5.484 7.92.352 16.93 1.832 26.72 4.643.03.01.06.022.09.03.23.047.47-.09.56-.31.02-.056-.03-.1-.03-.156.01-.023.05-.007.06-.03.08-.235-.03-.48-.25-.593l-.06-.032c-.03-.007-.04-.023-.06-.03-1.6-.654-2.85-1.35-3.93-2.026-.69-.614-1.28-1.27-1.49-1.933-.49-1.557.21-3.23 2.45-4.61 4.41-2.726 14.88-3.718 31.85 1.993-.64.834-1.21 1.743-1.58 2.867-.07.216 0 .466.19.592.19.124.45.092.62-.064 4.87-4.782 11.6-5.522 18.14-6.512 5.86-.886 11.47-2.245 15.26-6.948zm-4.89 7.696c-.1.01-.2.055-.28.125-4.22 3.36-7.96 4.422-12.07 5.14-3.47.518-4.99 1.813-5.88 2.4-.23.146-.4.24-.53.28s-.21.04-.34 0c-.26-.08-.77-.455-1.55-1.34-.15-.143-.37-.183-.55-.093-.19.09-.3.292-.28.5.01.06.07.183.09.248.01.015.02.015.03.03.2.827.68 1.918 1.33 3.054.36.62.74 1.227 1.09 1.714.34.487.62.862.99 1.09.12.076.26.105.4.063s.25-.15.31-.28c1.33-2.834 2.48-4.498 3.43-5.39.96-.894 1.66-1.043 2.27-.936.6.108 1.17.54 1.7.966.26.213.51.423.77.592.27.17.55.325.93.25.13-.014.26-.08.34-.187 1.52-2.174 4.53-4.526 8.11-7.322.18-.13.26-.353.19-.56-.07-.21-.28-.353-.5-.344zm-133.9 1.402c5.82 8.158 13.43 15.833 24.34 21.624-4.46.443-7.88-.485-10.72-2.306-3.66-2.354-6.39-6.205-9.04-10.376l-.03-.062c-.11-.177-.32-.264-.52-.218-.16.03-.28.14-.34.28-.07.14-.08.298 0 .437 0 .016.02.015.03.03 3.62 7.772 6.58 11.303 8.42 13.897 1.66 2.344 2.34 3.93 2.01 7.353-4.41-3.3-7.83-8.978-10.16-14.986-2.34-6.057-3.51-11.845-3.99-15.673zm294.46.592c-2.89 4.028-5.7 8.767-7.71 14.208-4.11 11.146-4.97 24.62 2.91 36.33-17.6-6.65-44.27-10.68-68.76-13.02-13.58-1.302-26.46-2.047-36.62-2.434-9.13-.347-14.94-.304-18.36-.125 1.55-2.745 5.35-5.36 10.68-7.57 5.93-2.466 13.53-4.507 21.17-6.14 15.3-3.264 30.93-4.876 34.21-4.984 24.32-.8 41.39-5.754 53.04-11.123 3.75-1.727 6.75-3.454 9.44-5.14zm-217.4 1.776c-.8-.058-1.74.026-2.88.28-.24.06-.39.286-.37.53.06.772.42 1.336.9 1.745s1.04.693 1.64 1.06c1.19.733 2.56 1.75 3.59 4.455.08.18.24.305.43.312.2.006.38-.108.47-.28.2-.424.26-.77.34-.967.02-.05.07-.057.09-.093.17.182.35.34.62.623.19.2.44.427.77.53.34.102.73.07 1.15-.063 3.95-1.22 6.62-1.83 8.48-1.963 1.87-.133 2.88.18 3.69.874.19.13.45.124.62-.03.17-.157.2-.423.09-.625-.03-.046-.06-.05-.09-.094-1.94-2.85-3.93-3.844-5.95-4.082-2.05-.24-4.08.16-6.41-.218-2.36-.385-3.66-1.024-5.01-1.495-.68-.235-1.37-.44-2.17-.498zm.56 1.496c1.07.148 3.52 1.078 4.43 1.06-.61 2.117.55 2.994 1.61 3.55-3.11.39-5.93-4.276-6.04-4.61zm-30.78.03c.09.994.13 2.507-.31 3.74-.27.772-.67 1.328-1.33 1.59-.65.258-1.65.224-3.12-.437-.01-.002-.03.003-.04 0-.98-.517-3.9-1.933-7.05-2.772-.74-.197-1.47-.188-2.2-.28 4.01-1.204 8.69-1.84 14.05-1.84zm41.8 1.465c1.55-.167 2.84.756 1.39 1.558-1.47.817-4.01 1.98-5.54 1.497 1.48-.075 1.95-1.765 1.27-2.898-.55-.112 1.33.01 2.88-.157zm7.03 5.14c-2.66-.06-4.34.057-5.61.406-1.28.352-2.12.928-3.09 1.62-.17.113-.26.33-.22.53s.21.336.4.373c.97.196 1.48.303 1.68.405.09.05.11.09.18.187.07.1.16.24.28.5.07.177.24.304.43.31.2.007.38-.107.47-.28.68-1.42 1.28-2.102 2.07-2.493.73-.36 1.8-.455 3.22-.53.12.003.13-.034.25-.03v-.032h.03c.22-.063.38-.27.37-.498s-.18-.42-.4-.468h-.06zm281.83 3.77c-18.9 21.697-23.36 45.14-24.59 52.32-2.49-4.3-5.57-9.08-3.65-15.08v-.04c4.54-10.91 6.07-12.68 18.05-28.225.01-.017.02-.014.03-.03.15-.21.13-.516-.06-.687-.19-.17-.5-.148-.68.032l-.03.032c-.02.017-.02.014-.03.03-.05.053-.08.104-.13.156 0 .006-.02-.005-.03 0-12.92 10.79-18.77 18.133-23.84 23.023-4.73 4.57-8.9 6.97-17.49 8.23 15.73-13.33 22.99-25.375 52.45-39.76zm-248.24 1.84c.14.045.13.008.28.062 1.25.46 2.83 1.25 4.39 2.524 2.53 2.06 4.92 5.55 5.89 11.09-.92-1.427-2.12-2.402-3.44-2.928-2.13-.85-4.32-.835-5.73-.84-.13-1.166-.2-2.457-.37-3.522 1.69-.1 3.41-.096 5.17 1.714.19.18.49.202.68.03.2-.17.22-.476.06-.685-.01-.014-.02-.018-.03-.032-2.18-2.914-4.39-4.4-6.41-4.455-.18-.96-.32-1.976-.49-2.96zm-116.04 5.016c.36.2.75.29 1.12.466 5.61 4.117 10.41 6.503 15.04 7.29 4.84.824 9.49.024 14.74-1.9h.03c1.1-.485 3.25-1.01 5.82-1.4 2.57-.393 5.6-.664 8.58-.687 2.97-.024 5.89.203 8.23.778 1.64.404 2.8 1.036 3.69 1.776-4.65-.972-9.06-1.313-14.46-1.028-.13.005-.25.06-.34.156-.17.167-.37.29-.34.685.01.198.18.39.31.468s.24.08.34.093c.4.053.85-.016 1.48-.093 1.27-.156 3.1-.402 4.99-.25 1.88.153 2.76.222 6.99 1.59.31.298.47.696.59 1.12-.15-.053-.32-.12-.55-.186-.49-.137-1.16-.293-1.99-.468-1.66-.352-3.95-.74-6.53-1.028-5.15-.58-11.5-.744-16.53.778h-.03c-4.37 1.792-10.12 2.682-15.76 1.745-5.33-.885-10.51-3.477-14.46-8.38-.33-.497-.63-1.032-.96-1.528zm346.91 8.94c-10.14 12.233-15.46 22.623-18.24 29.853-1.67 4.34-2.52 7.6-3.19 9.47-.29.81-.57 1.2-.74 1.4-1.3-1.06-2.61-2.05-3.99-2.93.02-.46.05-.95.34-1.77.37-1.09.97-2.43 1.76-3.99 1.59-3.12 3.98-7.08 6.97-11.41 4.49-6.49 10.39-13.838 17.09-20.622zm-229.14 6.482c3.18 2.14 6.31 4.67 8.02 8.38 1.37 2.98 1.86 6.74.78 11.65-.29-2.37-1.29-4.38-2.82-5.67-1.28-1.07-2.85-1.65-4.46-1.68-1.07-.02-2.14.34-3.16.87.32-1.91.58-3.72.81-5.39.43-.11 1.04-.15 1.82.13.9.31 1.91.88 2.85 1.56.95.67 1.82 1.48 2.45 2.27s1 1.55 1.02 2.12c.01.27.22.47.49.47.28-.01.51-.23.5-.5-.03-.73-.39-1.44-.87-2.15-.15-.28-.15-.53-.34-.81-.7-1.05-1.62-2.11-2.6-3.09s-2.04-1.86-2.97-2.49c-.73-.5-1.34-.83-1.95-.93.17-1.66.35-3.307.43-4.74zm-35.29 1.84c1.05 2.58 1.3 4.67.9 6.29-.44 1.75-1.52 3.07-3.07 4.11-2.69 1.83-6.68 2.65-10.31 3.24-.37-.11-1.03-.19-1.21-.31-.19-.13-.24-.25-.27-.34-.04-.09-.04-.16 0-.28.01-.04.07-.08.09-.12.16-.2.21-.34.52-.6.58-.46 1.39-1.02 2.33-1.65 1.86-1.25 4.25-2.86 6.59-4.98 1.61-1.47 3.1-3.31 4.43-5.36zm66.01 1.96c37.5 1.44 47.42 4.03 72.16 6.92 17.11 1.99 32.79 6.57 44.15 9.38.08.02.14.04.22.06-11.05 2.75-16.12 9.68-17.65 16.54-.89 3.99-.68 7.91 0 11.03.23 1.06.58 1.86.9 2.71-13.26-8.08-34.08-17.73-53.96-25.95-10.88-4.5-21.35-8.54-29.88-11.59-7.36-2.63-12.77-4.33-16.35-5.17-.27-1.26-.3-2.79.41-3.93zm-2.88 9.04c.46.07.98.18 1.92.46 1.2.37 2.72.9 4.52 1.56 3.58 1.31 8.19 3.12 13.28 5.17 10.16 4.11 22.2 9.19 31.58 13.09 10.28 4.28 24.66 12.76 36.47 19.32.59.32 1.06.58 1.64.9-.58-.01-1.03-.11-1.64-.09-3.96.11-8.65.89-13.28 2.62-8.93 3.32-17.68 10.28-20.75 22.9-.34-.5-.54-.87-.93-1.41-5.22-7.24-14.45-18.25-27.02-34.33-7.77-9.94-15.48-17.19-20.44-22.34-2.48-2.58-4.27-4.66-5.01-6.17-.36-.71-.42-1.25-.34-1.68zm-63.84 1.06c.58 3.08.63 5.36.21 6.88-.44 1.64-1.31 2.55-2.63 3.15-1.95.88-5.1.98-8.57 1.15-1.3-.2-2.1-.65-2.54-1.25-.47-.63-.59-1.45-.47-2.36.23-1.79 1.45-3.84 2.54-4.83h.06c.36.01.42-.04 1.02.03.1 0 .12-.1.19-.16 4.1-.29 7.72-.89 10.19-2.61zm200.99 6.79c.06.08.17.13.22.22.3.56.28 1.32-.04 2.11-.31.8-.91 1.59-1.61 2.12-.03.03-.06.01-.09.03.38-.48.66-1.02.74-1.58.1-.67.02-1.35-.18-1.97.11-.06.27-.11.37-.18.26-.2.4-.49.59-.75zm-138.64.84c.24.14.33.11.65.37 1.52 1.25 3.74 3.73 6.35 6.92 5.21 6.37 12.05 15.61 18.7 23.93 6.89 8.63 12.39 18.55 17.27 25.95.78 1.18 1.52 2.15 2.26 3.18-2.32-.68-4.9-1.22-7.8-1.24-1.55-.02-3.17.1-4.8.37-6.23 1.04-12.72 4.58-17.65 12.24-1.05-6.25-3.25-14.06-5.94-22.96-3.94-13.03-6.26-17.94-7.86-21.09-1.6-3.12-2.48-4.45-3.63-10.35.01-.02.04-.04.03-.06-.2-2.54.26-7.38.96-11.4.35-2.02.76-3.84 1.15-5.08.11-.36.2-.54.31-.78zm-29.51 1.71c.64.96 1.51 1.86 2.61 2.78 1.63 1.36 3.52 2.83 4.98 4.67s2.49 4.05 2.38 6.98c-.07 2.22-1.14 5.04-2.88 8.26.22-1.53.16-2.92-.34-4.05-.84-1.93-2.46-3.28-4.14-4.27-1.69-.99-3.47-1.62-4.65-2.09-.28-.11-.4-.17-.59-.25.34-1.27.78-2.21 1.37-2.62.79-.55 1.79-.52 2.87-.15 1.09.36 2.2 1.06 3.1 1.84.9.77 1.56 1.65 1.73 2.08.11.25.38.37.62.28.25-.09.39-.37.31-.62 0-.01.01-.02 0-.03 0-.02-.02-.05-.03-.06-1.42-3.79-4.12-4.85-5.85-6.08-.87-.62-1.51-1.23-1.79-2.34-.25-.93-.15-2.39.3-4.33zm-118.85 1.06c3.64-.13 6.33 1.33 7.77 3.87-.44.32-.85.3-1.52.43-.39-1.38-2.66-2.97-4.67-3.27-.16-.1-.36-.13-.53-.03-.16.1-.26.28-.25.47.02.19.17.37.35.43 1.45.73 3.05 1.29 2.44 2.62-.74.01-1.19.03-1.79-.03-.03-1.41-2.96-2.73-5.73-3.8 1.41-.42 2.71-.64 3.93-.69zm83.34 1.78c.27 3.7-.47 5.85-1.73 7.04-1.3 1.22-3.23 1.57-5.39 1.53-2.11-.05-4.36-.5-6.34-.72-.07-.09-.1-.21-.22-.22h-.06c-.6-.04-1.01-.19-1.24-.37-.24-.2-.35-.44-.37-.78-.04-.68.42-1.72 1.14-2.74.73-1.03 1.69-2.03 2.63-2.71.84-.62 1.56-.83 2.02-.81 3.35.02 6.53.06 8.51-.07.42-.02.68-.11 1.05-.15zm224.53 2.74c14.62.04 33.08 14.96 33.09 36.33.01 14.84-8.56 39.64-40.25 50.44-8.87-17.5-25.75-33.05-47.55-40.53-.1-.05-.21-.06-.31-.03-.22.05-.4.24-.4.46-.01.23.15.44.37.5 23.74 8.15 39.58 26.61 47.4 46.02 2.08 5.17 7.24 12.25 12.38 17.05 5.15 4.79 11.05 7.9 16.78 8.04 3.89.09 8.25 2.35 10.1 7.41 1.45 4 1.35 9.11-2.3 14.65.63-2.44.12-4.48-.74-5.86-1.41-2.26-4.37-3.16-6.31-3.09-3.4.14-5.37 1.67-10 4.12-.25.12-.35.43-.22.68.07.14 1.71.3 3.44.34.2 2.7 4.31 31.08 4.95 35.12 3.12 19.73 16.77 10.16 19.1 10.53 4.46.7 5.41 1.94 6.87 3.37-1.54.12-2.74 4.69-1.98 7.72-5.51 4.02-11.07-2.08-15.14-2.12-4.7.12-9.79 3.36-15.17 5.05-4.93 1.55-7.38 2.77-13.56-.06.96-.28 2.11-.62 2.2-.62.13-.01.26 0 .34 0 .09-.01.11-.01.22-.04.19 0 .36-.12.43-.31.08-.18.05-.38-.09-.53-.14-.14-.34-.19-.53-.12.06-.01-.02-.01-.09 0h-.31c-.26.01-.6.02-1.02.03-.84.01-1.94.03-3.1.03-2.31.01-4.82 0-5.82 0-2.63 0-6.43.79-9.63 2.52-3.19 1.74-5.58 3.88-8.54 3.84-1.67-.03-3.41-.32-4.86-1.44.75-2.69.63-6.2-1.4-9.16l-.49-.03c3.44-.48 4.65-2.22 6.93-2.27 2.68-.07 2.65 5.35 16.51-3.52.16-.09.28-.25.27-.44 0-.19-.11-.38-.27-.47-.17-.08-.38-.05-.53.07-12.25 5.56-8.44 1.36-14.74 1.65-5.98.27-6.16 2.25-9.75 2.21-1.86-.02-4.06-.93-4.52-1.81 1.36-.32 1.92-4.93 1.21-7.32.01-.1.08-.2.09-.25.06-.21-.05-.43-.22-.56.79-.95 2.94-1.34 4.86-1.34 1.74.03 4.1 1.65 6.82 2.8 2.71 1.16 5.12-.96 8.45 1.25.24.14.54.05.68-.19s.05-.54-.19-.68c-1.17-.66-3.62-3.25-6.37-4.43-1.73-.73-3.74-1.18-5.61-1.49-1.29-1.21-3.59-3.33-3.28-3.52.66-.41 1.32-.96 1.89-1.65s1.05-1.5 1.21-2.37c.1-.57-.05-.8-.25-1.19.05-.18.12-.29.18-.56.71-.79 1.16-1.18 2.2-1.27 1.61.16 2.54.74 3.87 2.05 1.34 1.32 2.76 3.27 4.06 5.58 1.92 3.43 4.51 5.38 7.15 7.13-.84.69-1.84 1.54-1.92 1.53-.13-.01-.23-.06-.46.06-.26.12-.36.4-.25.66s.39.39.65.28c.06 0 .17 0 .31.03.28.05.67.17 1.14.28.94.22 2.18.5 3.47.69 1.29.18 2.63.25 3.84.03s2.34-.75 2.94-1.84c4.12-7.43 3.73-18.52 1.36-28.39-2.36-9.82-9.42-23.19-9.69-23.3-.28-3.27-8.36-13.19-10.12-10.94.02-.37.1-.71-.03-1.12-.21-.62-.54-1.33-.99-2.03-.91-1.4-2.24-2.89-3.66-4.11-1.41-1.22-2.89-2.17-4.27-2.4-.69-.11-1.39-.04-1.95.34-.15.11-.19.37-.31.5-.22-.71-.6-1.42-1.14-2.18-1-1.37-2.41-2.79-3.91-3.92-1.49-1.14-3.05-1.99-4.42-2.25-.69-.12-1.36-.11-1.92.19-.05.03-.05.12-.09.16-.19-.55-.46-1.09-.87-1.69-.96-1.35-2.43-2.82-4.09-3.95s-3.49-1.93-5.2-1.87c-.95.03-1.8.43-2.54 1.12-.05-1.09-.34-2.18-.9-3.21-1.02-1.89-2.7-3.62-4.55-4.86-1.85-1.25-3.85-2.04-5.57-1.93-.86.05-1.66.36-2.26.96l-.03.03c-.19-1.15-.59-2.23-1.33-3.11-1.31-1.56-3.28-2.68-5.3-3.37-2.01-.68-4.07-.9-5.69-.59-.82.16-1.53.43-2.05.94-.13.13-.21.3-.31.46-.06-.09-.01-.22-.09-.31-.47-.58-1.13-1.12-1.92-1.59-1.58-.94-3.69-1.67-5.79-1.99-1.05-.16-2.11-.23-3.09-.16-.99.08-1.88.29-2.67.69-.98.5-1.59 1.45-1.92 2.58-.54-.88-1.27-1.59-2.29-1.96-1.72-.63-3.89-.63-5.94-.25s-4 1.14-5.3 2.15c-.38.3-.55.7-.8 1.06-.28-.22-.45-.53-.81-.68-1.45-.65-3.54-.87-5.63-.72s-4.17.67-5.57 1.74c-.71.54-1.25 1.22-1.46 2.06-.01.06.01.13 0 .19-.47-.27-.89-.57-1.52-.69-1.86-.35-4.3-.15-6.56.47-2.25.62-4.33 1.63-5.42 3.11-.48.67-.71 1.45-.65 2.28-.37-.12-.66-.35-1.08-.41-1.91-.24-4.25.18-6.35.94-2.09.76-3.95 1.85-4.92 3.24-.34.49-.51 1.06-.56 1.62-.61-.26-1.23-.52-1.95-.56-1.96-.12-4.2.45-6.16 1.4s-3.66 2.25-4.4 3.77c-.18.37-.29.76-.34 1.15-.72-.12-1.47-.17-2.22-.06-.63.1.56-2.17 1.73-4.3.8-1.03 1.46-2.03 2.41-3.15.27-.06.44-.32.38-.59-.07-.26-.36-.44-.62-.37-.07.01-.13.03-.19.06-4.79 2.28-8.79 8.15-11.64 14.89-2.85 6.75-4.52 14.38-4.43 20.29v.06c.67 5.74 2.81 8.55 4.09 11.22 1.27 2.66 1.8 5.18-.47 10.87 0 .01.01.02 0 .03-1.45 2.91-1.65 3.68-5.66 5.67 4.45-9.16-9.59-14.64-25.02-6.01-.18.07-.29.24-.31.44-.01.19.08.37.25.46.17.1.37.08.53-.03 1.11-.23 1.81-.25 2.81-.43 1.98 3.71-6.28 11.65-11.42 19.06-2.71 3.92-10.02 13.94-10.03 18.67s1.16 6.98 4.86 6.92c.97-.02 2.76.08 4.89-.38s5.29-1.65 7.22-1.65c1.89 0 3.08.15 4.95 1.68-.54.22-4.42 7.06-1.95 9.72-.19.48-2 .71-2.54.72-1.09.02-3.99-1.23-5.63-1.78-3.3-1.09-4.77-1.96-8.21-1.9-3.54.07-8.94 1.52-12.82 2.87-3.87 1.35-7.29 2.35-15.82 2.62-1.08.03-2.28-.22-3.34-.5 1.41-2.21 2.27-2.83 2.35-2.84.09 0 .11-.01.22-.03.2 0 .39-.13.46-.31.08-.18.02-.39-.12-.53s-.34-.19-.53-.12c.07-.02-.02-.01-.09 0-.07 0-.18-.01-.31 0-.25 0-.6.02-1.02.03-.84.01-8.88 1.47-12.08 3.21-3.19 1.74-4.96 5.81-7.92 5.76-1.67-.02-2.32.02-3.78-1.09 1.39-6.65-3.37-8.61-1.24-10.31 2.24.3 10.6 1.37 18.42-3.59.17-.08.29-.24.28-.43 0-.19-.11-.39-.28-.47-.16-.08-.37-.05-.52.06-4.4 2.79-7.58-2.34-11.02-2.05-5.97.49-4.62 1.57-8.21 1.52-1.86-.02-4.06-.93-4.52-1.8 1.23-2.63 3.28-6.28 2.17-8.29.75-.99 1.83-1.15 3.78-1.15 1.73.02 2.58 1.62 5.29 2.77 9.62 4.94 6.78 1.04 14.15 3.74.24.14.54.05.68-.19s.24-1.3-.68-1.37c-8.29-1.21-10.61-4.59-12.48-6.45-.59-.58-1.98-.98-3.47-1.28-4-3.7-4-6.99-3.62-7.23.66-.4 2.82-3.31 2.39-4.02.88-1.02 1.52-.7 2.69-.81 4.07.1 8.33 6.27 7.15 8.64-.07.13 3.53 3.42 5.73 6.1 1.73 2.11 5.35 6.45 10.09 5.58.06.12.12.24.25.28.17.05.37.01.5-.12 9-8.16 15.52-21.28 19.84-32.94 2.16-5.83 3.77-11.31 4.83-15.61s1.58-7.34 1.58-8.63c-.01-6.55-1.54-16.96-1.39-27.08.13-9.27 1.76-18.18 6.99-23.68 1.28-.25 2.61-.6 3.93-1.09 3.34-1.22 6.61-3.32 9.2-6.23.1.77.24 1.59.5 2.46.56 1.96 1.51 4.11 2.81 6.17 2.59 4.08 6.6 7.79 11.83 8.57h.03c.04.01.08.03.12.03.27.08.55-.07.62-.34.02-.05-.06-.07-.06-.12 0-.02-.03-.02-.03-.04-.02-.19-.05-.41-.25-.46-.05-.03-.1-.04-.15-.07-.7-.11-1.1-.4-1.4-.84-.29-.43-.47-1.05-.49-1.84-.05-1.56.48-3.66 1.27-5.82.61-1.68 1.41-3.26 2.17-4.77 1.51 3.27 3.76 6.78 7.4 9.04 4.22 2.62 10.04 3.39 17.52.09.02-.01.04.01.06 0 .06-.02.1-.04.16-.06.09-.06.08-.19.12-.28.06-.06.16-.05.19-.13.02-.07-.06-.12-.07-.18 0-.01-.02.01-.03 0-.02-.15-.01-.33-.15-.41-5.58-2.68-7.16-5.99-7.31-9.19-.08-1.73.26-3.38.71-4.92 2.99 3.38 6.57 6.04 9.76 7.26 1.76.67 3.39.94 4.73.65.67-.14 1.2-.49 1.64-.97.2.69.45 1.28.81 1.75s.86.76 1.42.97c.07 1.08-.13 1.91-.59 2.39-.58.62-1.46.83-2.29.66h-.15l-.06.03h-.03c-.03.01-.05.02-.07.03-.04.04-.09.08-.12.13-.02.01-.04.04-.06.06l-.03.06c-.05.1-.06.21-.03.31v.03c0 .02.01.05.03.07v.03l.03.06c.07.1.2.1.28.19.01.01.01.04.03.06.35.41.77.71 1.24.9.17.07.34.11.52.16.19.04.37.14.56.15.15.02.28-.12.43-.12.29 0 .55.11.84.06 1.49-.23 3.06-1.04 4.39-2.12 1.34-1.08 2.43-2.42 3.01-3.86.57-1.45.58-3.05-.4-4.33-.05-.06-.13-.03-.19-.06.16-1.14.22-2.41.12-3.84.51-1.5 1.64-3.4 3.5-5.32 2.03-2.1 4.79-4.2 8.02-5.74 6.15-2.93 14.06-3.77 22.42.56.13.13.27.32.4.44.69.62 1.4.92 2.1 1.31.19 1.26-.06 2.04-.62 2.46-.59.45-1.54.58-2.38.44-.04-.01-.08 0-.12 0-.05-.01-.11-.01-.16 0-.1.01-.2.05-.28.12-.05.05-.09.12-.12.19v.03c-.03.11-.02.23.03.34v.03l.03.03v.03h.03c.06.08.13.12.19.19.35.45.77.78 1.24 1.03.19.11.38.17.58.25.26.09.51.14.78.19.28.05.54.2.83.21 1.4.06 2.86-.4 4.09-1.12 1.24-.72 2.29-1.72 2.79-2.93.31-.75.28-1.59.06-2.43.24-.64.28-1.37.06-2.21-.18-.68-.68-1.55-1.11-2.4-.02-1.05.08-2.07.21-3.08 1.68-5.13 4.35-8.21 7.87-10.04 3.86-2.01 8.81-2.58 14.33-2.49 18.76.32 31.65 4.53 41.89 8.66s17.86 8.34 26.1 8.17c7.76-.16 14.91-2 20.22-5.95 5.31-3.96 8.67-10.12 8.67-18.32 0-3.05-.99-5.68-2.3-8.11-2.44-4.54-6.5-7.98-10.77-9.53-1.64-.59-3.29-.93-4.89-.97-1.6-.03-3.14.24-4.52.91-2.76 1.33-4.6 4.35-4.58 8.5.02 4.36 3.69 7.63 7.86 7.7 4.08.07 8.44-3.07 10.53-9.94 1.53 1.33 2.89 2.95 3.9 4.77-.89 6.58-3.92 10.46-7.59 12.9-3.73 2.48-8.19 3.38-11.48 3.55-8.63.43-18.26-8.33-18.18-20.57.08-11.19 9.5-20.6 24.28-20.56zm-297.93.93c4.59 4.18.09 7.28.83 12.03 3.2 19.5 11.46 21.91 12.82 30.38 4.54 28.22 17.12 41.67 17.99 42.62.42.7.95 1.24 1.64 1.53-.29 2.22.25 5.69 1.45 8.94 1.14 3.07 2.88 5.87 5.24 7.08v.03c.09 2.54 1.03 5.65 2.57 8.32 1.49 2.6 3.58 4.77 6.06 5.45.91.98 1.5 1.39 2.33 2.24 2.03 4.61-11.83 9.65-17.81 11.44-2.13 6.1-9.24 11.01-14.58 10.9-3.95-.08-4.25-.78-6.68-2.02 8.59-1.57 11.86-1.28 11.48-21.31 0-.43-.02-.78-.03-1.03-.01-.13-.02-.23-.03-.31 0-.04.01-.06 0-.1-.01-.03-.02-.05-.06-.15-.07-.22-.27-.36-.5-.35-.15.02-.28.09-.37.22-.08.13-.11.29-.06.44v.06c-4.11 12.31-15.57-35.26-17.99-52.56-.57-4.09 3.79-12.85 3.34-17.61.17-.14-.99-.28-1.08-.18-.33 2.07-1.23 4.43-2.2 6.76-.01.01-.01.02-.03.03-.27.18-.62.4-.99.72-.74.63-1.62 1.56-2.41 2.8-1.6 2.48-3.48 3.95-1.24 9.88.84 2.18-3.1 6.23-4.61 7.1.12-3.53-5.71-4.62-6.75-4.08-.53-3.87 1.18-8.83 3.83-11.09 3.02-3.03 5.41-12.85 3.53-17.36-.15-.49-.64-.79-1.14-.68-.28.05-.54.24-.68.49-.14.26-.16.54-.06.81.37.62.5 1.47.55 2.4 0 .01.01.03 0 .04-1.36 1.16-4.61-5.22-1.85-7.14.51.07 1.15.25 1.48.19.54-.11.91-.64.81-1.19-.11-.54-.64-.88-1.18-.78-1.79.36-7.33-1.54-10.71-3.67-9.86 3.34-11.69 2.88-14.46-.44 1.67-2.17.24-5.78.22-6.04 1.91-1.64 3.65-1.81 5.63-1.41 1.03.21 4.01 1.02 5.82 2.75 3.5-1.26 9.2 1.51 9.97 4.05.08.33.34.54.65.65.03.03.14.28.16.28.37.12.79-.02 1.05-.31s.31-.7.15-1.06c-.66-2.39-3.56-14.16-12.16-14.24h-.04c.05 0-4.42-.89-4.55-5.73 1.57-.56 5.26-3.3 4.99-6.36.06.02.08.01.15.03 4.28 1.21 6.3 5.69 6.32 7.76 1.68 1.18 7.67 2.82 9.26 18.54-.03.39.18.75.52.94.35.18.78.15 1.09-.1.3-.24.43-.65.34-1.03-.36-3.83-1.02-6.9-1.83-9.47.12-4.36-.78-7.38-3.84-11.28-.02-.06-.05-.13-.09-.18-1.54-2.65-1.79-5.37.09-7.42 2.99.42 7.4-1.15 7.65-1.22zm-25.73 2.87c1.2-.02 2.39.1 3.5.31.11.37.06 1.5-.03 2.28-.11.16-.3.33-.44.5-2.1-.36-6.1-2.19-7.64-.19-.23.09-.4.24-.37.4.03.17.24.29.49.35.25.05.53.02.71-.1 1.67-.43 4.32.06 4.99 1.16-.24.16-.56.31-.84.46-1.82-.44-4.58-.85-7.37.81-.03-4.5 3.41-5.91 7-5.98zm82.04 3.05c1.16-.03 2.64.12 4.52.41 2.23.34 4.72.71 7.06.56.44-.03.82-.18 1.24-.25.74 3.8.19 6.03-1.14 7.23-1.41 1.26-3.77 1.61-6.41 1.5-2.64-.12-5.52-.64-7.96-.94-.42-.05-.73-.03-1.11-.06-.39-.07-.78-.15-.99-.28-.3-.19-.45-.42-.53-.72-.16-.6.05-1.55.62-2.58 1.03-1.89 3.04-3.87 4.7-4.87zm-6.22 10.16c1.21.05 2.48.12 4.4.41 2.58.39 5.57.82 8.33.71.44-.01.83-.16 1.26-.21.67 4.69-.14 7.09-1.67 8.35-1.52 1.25-3.94 1.45-6.72 1.24-2.77-.2-5.82-.75-8.54-.81-.65-.01-1.19.16-1.8.22-.06-.01-.12-.05-.18-.06-.16-.02-.33.03-.5.03-.22-.16-.41-.32-.49-.59-.22-.7 0-1.94.65-3.27 1.1-2.29 3.29-4.66 5.26-6.02zm54.43 2.25c3.36.66 6.39 2.4 8.2 4.98 1.71 2.43 2.3 5.58 1.24 9.25-.29-1-.68-1.85-1.27-2.36-.91-.8-2.07-1.02-3.19-.97-1.79.09-3.37.79-4.36 1.25-.11-.45-.25-.78-.34-1.28-.16-.89-.2-2.06-.28-3.12.52-.18 1.34-.28 2.32-.21 2.06.13 4.59.89 5.79 1.93.21.15.51.13.68-.06.17-.2.15-.5-.03-.69-2.86-2.49-5.03-3.06-6.56-3.46-.77-.2-1.37-.37-1.83-.68-.2-.14-.35-.53-.53-.75.01-1.2.07-2.46.16-3.83zm28.3 4.2c.21.03.58.19.99.69.42.51.86 1.29 1.33 2.24.92 1.91 1.89 4.55 2.75 7.39 1.73 5.66 3.15 12.15 3.66 15.39 1.74 11.07 1.8 18.24 2.26 22.68.04.45.13.76.18 1.15-.74.47-1.64.68-2.75.5-1.39-.22-2.97-.92-4.55-1.9-3.09-1.9-6.04-4.91-7.34-7.38-.01-.09-.01-.18-.06-.25-.11-.14-.27-.21-.44-.19h-.03c-.02 0-.03-.03-.06-.03-.24-.01-.45.17-.5.4-.03.16-.03.16-.06.28-2.31 2.69-3.5 5.18-3.74 7.39-.26 2.34.47 4.35 1.64 5.98s2.77 2.9 4.33 3.77c.86.48 1.52.58 2.26.81-3.01.41-6.71.91-10.31-.15-4.26-1.26-8.2-4.65-9.97-13.28 0-.02-.05 0-.06-.03.02-.11.12-.21.06-.31-.1-.19-.31-.28-.52-.25-.1.02-.18.06-.25.13-.02.01-.04.04-.06.06-3.76 2.91-6.17 7.48-6.97 11.49-.4 2.03-.41 3.9.09 5.4.04.1.15.14.19.24-3.81-2.23-6.18-4.99-7.49-8.1-1.6-3.78-1.66-8.09-1.09-12.49.12-.15.21-.28.28-.37.05-.05.09-.08.13-.13.05-.07.1-.13.12-.16.01-.01 0-.03 0-.03.03-.03.07-.05.09-.09.02-.02.03-.01.07-.16 0-.01.03-.06.03-.06v-.12l-.1-.22-.21-.16-.22-.06-.12.03s-.07.05-.1.06c-.09.06-.1.05-.12.07-.02 0-.04-.04-.06-.03-.16.01-.3.11-.37.24-1.51 2.57-5.34 6.56-10.1 9.26-4.26 2.42-9.21 3.65-13.9 2.24 2.89-9.54 8.07-15.48 13.66-18.79 5.36-3.17 10.95-3.95 15.07-3.55 0 .03-.02.04-.03.06-.64 2.34-.98 5.46-1.02 9.01v.09c-.02.28.19.51.46.53.28.02.51-.19.53-.47v-.06c.02-.04.09-.02.09-.06.56-2.87 2.76-6.55 5.39-9.16 1.32-1.31 2.74-2.35 4.09-2.93 1.03-.44 1.97-.5 2.85-.34-.1.9-.24 1.64-.28 2.68-.19 4.16-.09 9.11-.13 12.65v.12c0 .25.17.45.41.5h.03c.01 0 .01.03.03.03.12.01.15-.12.25-.18.08-.06.2-.06.24-.16.01-.02 0-.04 0-.06.01-.02.03-.02.03-.03.01-.03 0-.07 0-.1 1.68-7.29 3.47-13.53 5.17-17.48.86-1.99 1.73-3.41 2.45-4.05.36-.32.65-.44.9-.43.2 0 .43.15.68.37.01.04.01.06.03.12.1.3.21.8.31 1.41.2 1.2.42 2.88.59 4.76.34 3.76.61 8.25.86 11.28.01.02 0 .05 0 .07.01.27.23.49.5.49s.49-.22.5-.49c0-.03-.01-.05 0-.07.4-9.71 2.35-19.87 4.3-27.48.97-3.81 1.97-7.01 2.72-9.16.17-.48.26-.69.41-1.06zm-165.52 2.74c.2.52.26.7.41 1.5-1.2.09-2.67.41-3.78 1.74-.12.12-.17.28-.12.44.04.16.17.29.34.31.16.03.34-.05.43-.18.81-.98 2.14-.93 3.19-.75-.01.77-.24 1.52-.59 2.3-1.19-.23-2.87-.3-4.24 1.69-1.14-4.84 2.24-6.64 4.36-7.05zm77.53 2.71c1.3-.12 2.7-.07 4.15.07 2.89.26 5.94.88 8.7.96.9.03 1.73-.13 2.57-.25.62 4.91-.3 7.64-2.05 9.2-1.77 1.57-4.52 2.02-7.58 2.05-3.07.04-6.39-.34-9.32-.25-1.36.04-2.63.21-3.75.56-.36-.14-.56-.37-.65-.84-.18-1 .35-2.93 1.4-4.89 1.04-1.96 2.53-4 4.05-5.42.39-.37.76-.54 1.15-.81.45-.1.84-.33 1.33-.38zm201.14 3.34c.31.06.76.25 1.03.28-.14.52-.4 1.12-.78 1.62-.08.1-.19.12-.28.22.16-.42.25-.86.22-1.28-.02-.31-.12-.55-.19-.84zm-188.42 9.94c1.32 4.62.77 7.29-.86 8.94-1.7 1.72-4.67 2.47-8.02 2.9-3.36.43-7.06.56-10.22 1.31-1.3.3-2.44.83-3.5 1.43-.19-.15-.41-.25-.56-.56-.46-1.02-.55-2.83-.31-4.77.25-1.94.8-4.02 1.49-5.61.35-.79.71-1.49 1.08-1.96.16-.2.26-.19.41-.31 1.86-.49 3.98-.73 6.34-.69 3.25.06 6.74.35 9.88.13 1.53-.11 2.97-.36 4.27-.81zm-2.1 12.68c1.25 2.21 1.96 4.04 2.16 5.45.22 1.5-.04 2.55-.65 3.4-1.22 1.69-4.03 2.57-7.43 3.14-3.39.58-7.32.9-10.68 1.78-1.78.47-3.4 1.14-4.7 2.09-.25-.14-.51-.26-.68-.59-.47-.9-.57-2.55-.35-4.33.23-1.79.78-3.7 1.46-5.18.34-.74.69-1.36 1.05-1.8.21-.25.37-.29.56-.41 1.17-.44 2.42-.82 3.84-1.06 3.33-.56 7.15-.69 10.62-1.24 1.71-.28 3.35-.66 4.8-1.25zm139.01 5.98c-.03 1.64-1.08 2.79-2.45 3.3-.72.27-1.47.32-2.2.19-.1-.02-.2-.06-.31-.09-.2-.06-.34-.23-.52-.31 1.43-.01 2.65-.38 3.37-1.13.51-.52.84-1.13 1.05-1.65.03-.05.02-.07.04-.12.33 0 .68-.12 1.02-.19zm-137.93 6.98c1.22 1.47 1.97 2.78 2.26 3.9.31 1.18.2 2.14-.25 3.05-.9 1.82-3.25 3.35-6.25 4.67s-6.6 2.48-9.91 3.68c-1.81.66-3.49 1.36-4.98 2.12-1.71-.37-2.87-1.3-3.59-2.62-.77-1.39-1.04-3.19-.96-4.92.07-1.73.52-3.4 1.17-4.55.08-.14.17-.19.25-.31 1.57-.98 3.63-1.56 5.98-1.93 3.42-.55 7.35-.67 10.83-1.28 2.03-.36 3.9-.93 5.45-1.81zm-67.49 4.83c.54.18 1.1.43 1.67.69-.65 1.09-1.66 2.58-3.16 2.55-.19-.02-.39.06-.49.22-.11.16-.1.4 0 .56s.3.24.49.22c1.94.03 3.61-1.63 4.68-2.74.67.39 1.25.77 1.7 1.18-1.82 1.66-5.95 4.42-10.09.44 2.67.29 4.37-1.79 5.2-3.12zm161.76 4.64c0 1.75-1.09 3.24-2.5 4.05-.69.4-1.93.49-1.71.41.85-.31 1.45-.9 1.89-1.53s.71-1.31.87-1.9c.07-.24.05-.36.09-.56.52-.07.93-.28 1.36-.47zm55.27.35c3.38-.16 6.59 1.49 7.43 3.77-.01.14-.02.28-.03.49-.04.58-.1 1.38-.16 2.34-.12 1.92-.3 4.44-.46 6.95-.3 4.52-.54 8.15-.59 9-4.34 3.26-8.06.16-9.29-2.43-.16-.86-.81-4.25-1.61-8.53-.44-2.4-.87-4.82-1.21-6.64-.13-.74-.25-1.3-.34-1.81 1.68-2.09 3.98-3.04 6.26-3.14zm-13.59.96c1.81.04 3.57.78 4.86 2.43.09.54.22 1.2.37 2.03.33 1.82.79 4.23 1.24 6.63.81 4.4 1.48 8.05 1.61 8.76-1.27 2.13-7.83 3.72-10.22.5-.01-.07.05-.13.03-.19l-4.36-17.6c.95-1.26 3.69-2.61 6.47-2.56zm-134.53.87c2.41 1.48 4.05 2.86 5.05 4.12 1.01 1.26 1.38 2.39 1.33 3.42-.1 2.08-2.02 4.07-4.89 5.92-2.87 1.86-6.58 3.57-10.06 5.21-1.7.8-3.26 1.58-4.68 2.37-1.69.31-3.17-.08-4.42-1.06-1.35-1.05-2.46-2.71-3.19-4.49s-1.1-3.69-1.05-5.27c.03-1.06.3-1.83.68-2.43 6.05-2.6 13.45-3.9 18.73-6.26.96-.43 1.7-.99 2.5-1.53zm120.5.78c1.7-.13 3.5.36 5.14 1.59l4.24 16.92c-1.22 3.15-6.45 4.19-8.57 2.93l-6.38-17.51c-.24-1.59 2.38-3.67 5.57-3.93zm40.28.31c3.57.16 8.75 3.82 8.7 6.95l-4.33 17.14c-.83 2.13-7.18 1.31-8.43-3.27 0-.01.01-.02 0-.03 0 0 .32-4.95.65-9.97l.47-6.98c.06-.96.09-1.76.12-2.34.01-.13.02-.2.03-.31.59-.88 1.6-1.24 2.79-1.19zm-50.65 3.28c.9 0 1.65.26 2.29.65l6.6 18.1c-.71 2.26-8.45 6.48-10.56 4.12l-6.57-18.2c.25-2.23 4.8-4.68 8.24-4.67zm64.49 3.67c3.59 0 7.79 3.23 7.74 8.1l-6.84 17.08c-2.44.99-8.29-1.4-8.36-5.95l4.61-18.26c.82-.6 1.79-.97 2.85-.97zm-78.05 1.12c1.04-.03 2.07.34 3.06 1l6.38 17.73c-.77 3.37-7.31 7.34-9.97 4.39l-7.52-17.2c.04-.07.07-.34.12-.24.18-1.38 4-5.54 7.93-5.68zm-89.35 2.93c3.62 2.25 4.9 4.6 4.77 6.98-.14 2.42-1.79 5.01-4.21 7.42-3.81 3.78-9.12 6.73-13.41 8.72-1.01 0-2.15-.38-3.31-1.21-1.35-.97-2.66-2.36-3.69-3.87-1.03-1.5-1.76-3.12-2.01-4.42-.12-.65-.12-1.21 0-1.65.1-.34.32-.55.56-.75 6.11-2.76 13.63-5.16 18.48-8.54 1.16-.8 2.05-1.71 2.82-2.68zm76.69 3.12c.98-.14 1.86.02 2.63.37l7.8 17.83c.15 4.66-9.1 9-11.21 7.01l-6.99-19.48c-.12-1.93 4.15-5.21 7.77-5.73zm103.31 1.59c3.43.1 8.09 2.27 7.93 5.45l-6.66 18.04c-3.45 2.61-10.61-3.47-10.81-5.89l6.82-16.89c.64-.48 1.56-.75 2.72-.71zm-116.75 3.55c1.11-.36 2.41-.03 3.81 1.31l7.03 19.5c-.19 2.04-7.91 7.52-11.99 5.11-.9-2.22-4.37-10.18-5.2-15.42.43-1.71.94-3.38 1.55-4.83.61-1.44 1.25-2.36 1.86-3.55.7-.71 1.71-1.72 2.94-2.12zm73.5 2.59c.03.03.03.12.06.15.18 1.47 8.82 3.12 9.85 2.93-.64 1.85 4.89 5.47 7.92 6.64.84 1.09.82 3.33.71 4.55-.28 3.12.69 7.09 5.14 9.94 2.9 1.83 12.68 5.25 12.73 13.14.03 5.68-4.49 7.99-6.53 9.29 1.78-3.36-.09-6.82-3.87-7.48-2.63-.4-9.26-.82-14.96-.28-.55.05-.95.54-.9 1.09s.54.96 1.09.91c2.52.52 3.75.38 3.37 2.58-.01.07.06.1.06.16-9.06 7.13-28.61 25.51-29.13 32.49-.15 1.97 1.88 4.09 4.55 3.87.17-.02 9.54-4.6 13.5-1.06-2.16 2.17-.54 7.21-.59 7.45-5.02 3.62-10.87-1.52-20.56-1.59-9.7-.08-17.63 6.25-23.9 6.38-.82.02-1.22-.14-1.7-.28.56-.75 1.01-1.52 1.05-1.52.09-.01.61-.32.72-.35.19 0 .35-.12.43-.31.07-.18.04-.39-.09-.53-.14-.14-.35-.19-.53-.12.06-.01-.02-.01-.09 0-.08 0-.19-.01-.31 0-.26.01-4.36 1.05-5.51 1.06-2.32.01-7.37 1.72-10.56 3.46-2.16.88-6.32 5.6-12.69 4.17.75-2.7-.27-6.18-2.3-9.13.37-.04 1-.92 1.34-1.65 9.43-1.58 8.45 3.24 10.65-.28 1.42-2.28 2.17 3.8 13.87-5.92.16-.09.25-.25.24-.44 0-.18-.11-.35-.28-.43-.16-.09-.34-.08-.49.03-14.04 5.78-9.86 1.77-16.16 2.06-5.98.27-4.37 1.66-7.96 1.62-1.86-.03-3.91-1.69-4.36-2.56 1.49-.35 1.57-5.12.46-7.13.75-.99 3-1.41 4.95-1.41 5.34 0 7.41 4.84 13.04 5.42 4.03-.01 7.72-3.33 11.05-1.12.24.14.55.06.68-.18.11-.2 0-.41-.15-.56 24.41.8 42.45-52.57 38.6-58.33.01-.16-.06-.31-.18-.41-.04-.03-.08-.01-.13-.03-.48-1.62-1.47-3.77-3.99-4.64-.02-.04-.01-.19-.03-.22-.66-.76-1.86-5.51-6.84-6.17.27-1.22.43-2.12.49-2.74 2.53-.6 5.25-1.54 5.85-2.31 1.37 1.85 12.77 1.57 12.39-.21zm54.98.9c3.22.02 7.67 2.74 8.05 5.45l-5.51 14.37c-2.53 2.98-8.76.81-9.63-.04-.63-.61-.87-1.69-.96-2.8l5.82-16.17c.59-.5 1.31-.82 2.23-.81zm-187.49 1.59c-.05.73-.14 1.49-.19 2.21-.25 4.37-.29 8.29-.37 11.97 0 .01-.03-.01-.03 0v.03c-.73 2.65-1.82 4.27-3.06 5.11-1.25.84-2.67.93-4.21.43-2.92-.94-6.13-4.19-8.39-8.5 5.99-2.03 12.03-5.82 15.69-10.35.24-.29.34-.6.56-.9zm110.81 1c-.5 6.57-11.02 14.4-15.08 14.27-.01-.01-.03-.03-.03-.04-.75-.63-1.67-1.06-2.29-1.8-1.55-2.66 14.07-11.54 17.4-12.43zm42.5 4.08c.04.06.09.12.13.18-.08.03-.16.07-.25.1.06-.13.06-.16.12-.28zm-39.28.4c4.14.38 5.59 5.29 4.27 5.98.18.25-3.8 9.28-8.24 11.6-1.5.78-3.53.39-4.77.21-2.29-.93-4.84-3.25-5.63-5.67 1.14-2.12 7.19-4.11 12.42-11.96.7-.16 1.35-.21 1.95-.16zm83.59.16c2.89-.66 8.64 2.52 8.91 6.85l-3.28 9.01c-2 1.47-11.04 1.64-11.14-1.87l5.2-13.8c.12-.05.18-.16.31-.19zm-145.95 7.07c1.76-.98 3.61 6.32 4.4 8.63l-.03.03c.02.41-3.13 9.01-5.3-3.27.06-.73.35-2.97.59-4.92.11-.14.23-.41.34-.47zm69.2.72c.51.68 1.89.75 2.35 2.9-.52 3.49-1.48 7.66-2.97 12.24-2.12.85-5.82-.47-8.02-1.74-.41-.55-.74-1.17-.4-1.97 4.86-3.24 7.23-9.01 8.05-11.09.4-.32.79-.61.99-.34zm87.21 1.49c1.84-.25 7.09 3.55 7.68 8.48l.12.31c-.87 2.94-8.23 2.29-10.31-1.4l2.51-7.39zm-208.82 3.65c-.05 2.03-.15 3.58-.25 4.95-.57-.52-.98-1.18-1.27-1.93.04-.05.09-.07.12-.12.53-.77.99-1.75 1.4-2.9zm68.88 37.58c1.39.02 1.83.3 3.16 1.62 1.34 1.31 2.28 3.53 4.74 6.01 2.23 2.24 8.29 5.45 11.86 6.39-1.25.41-2.54.69-3.84.9-3.37-1.04-7.41 1.46-12.98-3.3-.78-.65-2.84-1.13-4.89-1.47-1.16-.94-4.3-3.34-3.96-3.55 1.5-2.42 3.19-4.81 2.76-5.51.66-.87 1.77-1.12 3.15-1.09zm-8.85.65c1.47-.31 3.03.13 4.21.75-.17.32-.32.63-.47.96-.96-.59-2.15-1.07-4.33-.56-.21.03-.37.14-.43.31s0 .38.15.5.37.13.56.06c1.77-.41 2.59.29 3.4 1-.16.37-.35.65-.52.94-1.05-.78-4.97-3.32-6.01.65.16-2.9 1.68-4.24 3.44-4.61zm135.88 1.93c1.59.15 2.72.82 3.44 1.31.06.28.27.54.22.84-.02.09-.1.19-.13.28-1.25-.77-3.4-1.67-5.88-1.09-.21.03-.37.14-.43.31-.07.17-.03.35.12.47s.39.16.59.09c2.16-.51 3.44 1.2 4.52 2.06-.42.45-.89.87-1.33 1.15-.74-.65-4.67-4.01-7.87.47 1.87-5.02 4.51-6.1 6.75-5.89zm-247.68.53c1.55-.3 2.65.9 3.28 1.71-.01.13-.12.34-.09.38.09.1 0 .34-.06.56-.95-.48-2.13-.71-4.37-.19-.2.03-.37.14-.43.31s0 .35.15.47c.16.12.37.16.56.09 1.81-.42 2.46.22 3.22.91-.38.53-.73.86-1.02 1.15-1.21-.78-4.22-2.43-5.67 0 1.62-3.73 3.14-5.14 4.43-5.39zm113.01 3.02c0 .02.04.07.03.07-.04-.01-.06.03-.1.03.02-.04.04-.07.07-.1zm-6.88 7.64c.12 0 .12.02.22.03.24.16.72.33.87.47.23.22.29.58.43.87-1.39-.13-3.11-.05-4.61 1.18-.17.1-.24.28-.22.47s.16.37.34.44c.18.06.36.01.5-.13 1.5-1.23 3.16-.27 4.42.22-.02.54-.12.95-.24 1.49-1.18-.98-4.11-2.59-6.54.19-.34-4.7 2.99-5.28 4.83-5.23zm135.64 4.33c.4.01.44.06.74.09.14.61.14 1.25.06 1.93-1.41-.18-3.29-.15-4.92 1.19-.16.1-.24.3-.22.5.03.19.13.34.31.4s.4.01.53-.12c1.25-1.03 2.56-.51 3.72-.04-.12.35-.21.67-.35.97-1.41-.53-5.24-1.58-5.91 3.71-2.8-7.91 2.86-8.75 6.04-8.63zm-51.12 3.33c.01.01-.01.15 0 .16 3.59.08 10.27 4.71 2.11 9.75 2.72-3.5-2.32-4.76-2.91-4.83-.03-.1.02-.24 0-.34 1.19.03 2.36-.57 4.55 1.62.13.13.21.31.4.34s.36-.06.47-.22c.1-.16.11-.35.03-.53-1.01-2.24-3.86-3.31-5.36-3.67.15-.72.37-1.45.71-2.28zm-194.52.78c.11.54.1 1.14-.06 1.81-1.42-.22-3.36-.23-5.05 1.15-.16.1-.27.28-.24.47.02.19.16.37.34.43.18.07.39.02.52-.12 1.26-1.03 2.58-.51 3.75-.03-.3.69-.53 1.22-.84 1.74-1.28-.56-3.66-1.4-5.79.69.85-5.87 5.01-6.35 7.37-6.14zm331.52 3.9c1.59.51 10.47 3.93 3.07 10.71 1.87-5.38-3.32-5.9-4.21-5.98-.01-.23.02-.49.03-.75 1.33.13 3.09.13 3.84 1.84.05.19.21.32.4.34.19.03.39-.05.49-.21.11-.16.1-.37 0-.53-.96-2.21-3.03-3.19-4.39-3.56.18-.69.38-1.37.77-1.86zm-79.35 4.73c.29.52.54 1.14.74 1.9-1.33.29-3.67 1.3-4.7 3.65-.1.16-.11.37 0 .53.1.16.3.24.49.22.19-.03.35-.16.41-.35.81-1.84 2.83-1.7 4.18-1.87.02.26.05.52.06.78-1.17.11-6.41.72-4.58 5.95-7.78-7.12 2.59-10.58 3.4-10.81zm-136.94.44c.22.38.43.7.62 1.18-1.36.43-3.18 1.34-4.08 3.4-.1.16-.11.37 0 .53.1.16.3.24.49.22.19-.03.35-.16.41-.35.75-1.72 2.53-1.71 3.87-1.84.16.77.22 1.5.21 2.22-1.64-.32-5.32.11-6.47 3.17-3.19-3.33.95-7.65 4.95-8.53zm-34.17 1.28c3.63.71 10.37 3.84 2.91 10.68 2.54-3.78-2.65-4.83-4-5.05-.13-.39-.14-.83-.15-1.3 1.45.13 3.81.08 4.58 1.83.06.19.21.32.4.35.19.02.39-.06.5-.22.1-.16.09-.37 0-.53-.96-2.19-3.66-3.39-5.2-3.83.24-.83.6-1.46.96-1.93zm-77.16 7.57h.03c.34.58.69.9.96 1.62-1.3.52-2.77 1.41-3.56 3.21-.09.16-.07.37.03.53.11.16.28.24.47.21.19-.02.34-.16.4-.34.63-1.43 1.94-1.64 3.16-1.74.15.75.17 1.44.06 2.11-1.7-.07-4.66.23-3.16 4.55-4.67-5.8-1.01-10 1.61-10.15z" fill="#d21034"/></svg>