<svg xmlns="http://www.w3.org/2000/svg" xmlns:xlink="http://www.w3.org/1999/xlink" height="375" width="750" version="1"><defs><linearGradient id="c"><stop offset="0" stop-color="#d5dfff"/><stop offset="1" stop-color="#fff"/></linearGradient><linearGradient id="a"><stop offset="0" stop-color="#474747"/><stop offset="1" stop-color="#f50"/></linearGradient><linearGradient id="b"><stop offset="0" stop-color="#b50000"/><stop offset="1" stop-color="#ffc500"/></linearGradient><linearGradient id="g" xlink:href="#a" gradientTransform="matrix(.7 0 0 1.3 40.5 0)" x1="215.829" y1="102.987" x2="228.969" y2="102.987" gradientUnits="userSpaceOnUse"/><linearGradient id="d" x1="109.339" x2="110.939" xlink:href="#a" y1="218.473" y2="173.448" gradientTransform="matrix(1.5 0 0 .7 40.5 0)" gradientUnits="userSpaceOnUse"/><linearGradient id="e" x1="125.913" x2="126.024" xlink:href="#b" y1="316.383" y2="337.232" gradientTransform="matrix(1.2 0 0 .8 40.5 0)" gradientUnits="userSpaceOnUse"/><linearGradient id="h" x1="117.597" x2="78.221" xlink:href="#c" y1="1040.396" y2="1003.724" gradientTransform="matrix(2.6 0 0 .4 40.5 0)" gradientUnits="userSpaceOnUse"/><linearGradient id="i" x1="264.717" x2="255.03" xlink:href="#c" y1="245.976" y2="226.378" gradientTransform="matrix(.9 0 0 1.1 40.5 0)" gradientUnits="userSpaceOnUse"/><linearGradient id="f" x1="407.874" x2="456.404" xlink:href="#c" y1="149.375" y2="147.348" gradientTransform="matrix(.6 0 0 1.8 40.5 0)" gradientUnits="userSpaceOnUse"/></defs><g font-size="12"><path fill="#00247d" d="M0 0h750v375H0z"/><path d="M0 0v20.963L333.074 187.5H375v-20.963L41.926 0H0zm375 0v20.963L41.926 187.5H0v-20.964L333.074 0H375z" fill="#fff"/><path d="M156.25 0v187.5h62.5V0h-62.5zM0 62.5V125h375V62.5H0z" fill="#fff"/><path d="M0 75v37.5h375V75H0zM168.75 0v187.5h37.5V0h-37.5zM0 187.5L125 125h27.95l-125 62.5H0zM0 0l125 62.5H97.05L0 13.975V0zm222.05 62.5l125-62.5H375L250 62.5h-27.95zM375 187.5L250 125h27.95L375 173.524V187.5z" fill="#cf142b"/></g><path d="M146.967 393.042s-3.346 8.842-5.257 8.842c-1.912 0-8.842-3.823-8.842-3.823s-5.02 8.126-7.647 8.604c-2.628.478-9.558-1.195-9.558-1.195s-6.69 0-6.93-.957c-.24-.956.24-2.868.24-2.868s-9.56 7.647-11.71 7.17c-2.152-.478-9.32-9.56-9.32-9.56l-1.196 4.78-13.62-.478-11.95-7.647s-6.69 10.993-6.93 10.754c-.24-.24-11.71 2.628-11.71 2.628l-.716-2.15-7.647-4.54s5.974-8.365 5.974-8.604c0-.24-2.868-1.195-2.868-1.195l-4.302 3.585-8.842 5.735-8.842-4.062 3.824-7.168.478-5.258 6.93-10.514 84.834-82.445 41.82 77.187-6.213 23.18z" fill="#6a4c2d" fill-rule="evenodd" stroke="#000" stroke-width="1pt" transform="matrix(.6 0 0 .6 461.4 21.5)"/><path d="M585.742 260.322l13.25-.475-5.64-2.786 50.484-1.902-7.134-2.717-6.32-8.56-26.158-1.97s-1.97-1.496-5.164-.748c-.136-2.04-2.582-4.69-2.582-4.69l-16.104-1.222-10.056 6.863 6.795 17.394 8.63.815z" fill="#fff" fill-rule="evenodd" stroke="#000" stroke-width=".6pt"/><path d="M121.32 150.758l2.223-7.562s3.89-6.56 3.89-9.452c0-2.89 2.893-6.338 2.893-6.338s8.896-2.558 10.786 2.89c9.563-14.455 20.794-.666 20.794-.666l3.114-3.67 6.338-7.784s9.007 8.45 9.12 9.897c.11 1.446 1.555.445 1.555.445l9.786-.778s4.643 3.635 3.668 10.563c3.45 2.034 6.56 14.012 6.56 14.012l-80.73-1.557z" fill="url(#d)" fill-rule="evenodd" stroke="#000" stroke-width="1pt" transform="matrix(.6 0 0 .6 461.4 21.5)"/><path d="M585.753 165.935c1.01-.623 4.202-1.634 3.813-6.303-.39-4.67-4.436-5.214-6.693-5.06-2.256.157-4.28 2.103-4.28 2.103l-7.47-4.747s3.735-23.58 7.704-25.058c3.77-2.716 4.435-3.89 4.435-4.513 0-.623-1.4-2.18-1.4-2.18l-24.357-2.878-23.034 2.722s-1.79 2.724-1.556 3.814c.234 1.09.312 2.256 4.436 5.447 4.563 3.51 7.704 23.656 7.704 23.656s-6.46 3.19-6.848 2.8c-.39-.388-2.335-.777-3.346-.622-1.012.156-4.358 1.868-4.358 6.303 0 4.437 3.346 7.005 3.346 7.005s22.023-2.568 25.29 3.502c3.19-7.315 24.124-4.747 26.615-5.992z" fill="#656263" fill-rule="evenodd" stroke="#000" stroke-width=".6pt"/><path d="M609.474 141.42s.244-2.558 2.072-3.777c1.828-1.218 14.015-1.828 16.94 0 2.925 1.828 4.022 10.847 4.022 10.847s1.828 3.17 1.95 5.484c.122 2.315.365 3.9.365 3.9s9.75 12.675 9.872 24.13c1.098 7.8.853 28.64-2.193 36.562-.122 9.872-4.266 16.33-4.266 16.33s.975 1.707.853 3.535c-.123 1.83-1.098 3.536-1.098 3.536l14.26 7.068-5.24-1.95s5.36 4.51 5.24 4.388c-.123-.122-5.972-2.804-5.972-2.804l3.534 3.535c-.122-.122-8.653-3.9-8.653-3.9s4.022 3.778 3.78 3.656c-.245-.123-6.46-3.048-6.46-3.048s3.9 4.144 3.778 3.9c-.122-.244-5.606-2.437-5.606-2.437l.243 2.072s-4.387-.244-4.387-3.535c-2.194-1.22-3.656-2.925-3.656-2.925l-10.115-1.706-11.457-34.245 2.682-57.89.73-2.924-1.218-7.8z" fill-rule="evenodd" stroke="#000" stroke-width=".75" stroke-linejoin="round" stroke-opacity=".979"/><path d="M601.82 326.423s-5.87-12.347-8.795-12.52c-2.64-5.032 9.175-46.177 32.03-48.523 12.563 1.035 1.032 14.485-7.23 10.346 1.032 3.62 5.163 8.794 5.163 8.794s-16.35 7.07-21.17 41.903z" font-size="12" fill="#fb0" fill-rule="evenodd" stroke="#000" stroke-width=".7944"/><path d="M523.148 328.218s4.857-14.05 7.806-14.223c2.948-.174-7.806-46.832-31.22-47.18-12.663 1.042-1.042 14.57 7.284 10.408-1.04 3.643-5.204 8.846-5.204 8.846s16.478 7.11 21.334 42.148z" fill="#fb0" fill-rule="evenodd" stroke="#000" stroke-width=".6pt"/><path d="M544.625 240.46c-.057-.113-5.812 1.805-2.088 8.07.282-2.428 2.878-3.895 2.878-3.895s-3.95 4.683.226 8.633c.508-3.724 2.878-4.91 2.878-4.91s-2.934 8.634.057 10.383c.338-3.44 2.54-4.964 2.54-4.964s-2.653 7.73-.283 9.48c.282-2.935 2.256-4.233 2.256-4.233s-1.185 8.013 1.92 8.577c.056-2.82 2.312-5.586 2.312-5.586s-1.016 6.545 3.837 6.827c.057-2.482.96-5.303.96-5.303s2.2 6.94 5.416 5.812c-.056-2.032.056-5.87 0-5.87-.057 0 2.03 6.602 5.868 5.36-.563-1.86.227-4.062.227-4.062s2.03 4.12 5.7 2.765c.62-1.24-.17-3.667-.17-3.667s5.36 5.53 6.996 2.2c1.636-3.33-4.29-4.457-4.29-4.457h4.008s-1.297-3.386-6.714-4.12c1.862-.846 3.78-.226 3.78-.226s-1.128-4.232-6.658-4.683c2.145-.733 4.515-.225 4.515-.225s-.734-4.006-6.828-5.134c.96-1.07 3.555-.733 3.555-.733s-2.426-3.78-5.19-3.554c-2.766.225-27.762-2.54-27.705-2.483z" fill="#00713d" fill-rule="evenodd" stroke="#000" stroke-width=".6pt"/><g fill="none" stroke="#3ec26d" stroke-width="1.25" stroke-linecap="round"><path d="M569.282 260.83s2.2 1.07 2.144 2.03M570.58 259.08s2.82 1.974 2.765 3.44M573.062 258.064s2.258 1.41 2.37 3.61M576.843 258.967s1.13 2.426.733 2.877M579.1 260.265c.17 1.918-.17 2.087-.17 2.087" stroke-width=".75"/><path d="M551.283 248.133s2.652 1.693 2.426 4.063M551.114 250.165s1.24 1.184.96 1.974M554.386 248.19s1.75 2.426 1.185 4.12M557.377 249.77s.79 1.523.056 2.37M558.787 250.503s.96 1.524.113 2.03M557.716 255.525s2.482.564 2.82 2.426M559.183 253.832s2.595.17 2.877 2.934M562.624 252.873c.057 0 1.75 2.99 1.467 3.95M565.953 253.155s.677 2.878.17 3.78M568.097 254.284l.057 3.33M564.825 249.77s1.636.62 1.523 2.2M566.348 248.302s2.088 1.185 1.862 3.443M568.774 247.344s1.806 2.143 1.13 4.513M571.934 247.85s-.677 2.653-.395 3.725M573.853 249.657s-1.185.903-.565 2.03M563.584 259.983s.394 2.03 0 2.37M560.988 258.798s1.298 2.256.846 3.385M558.223 258.685s1.467 1.692 1.41 3.047M555.966 259.023s1.354 1.298 1.24 2.03M554.78 260.998s1.3 1.354 1.242 1.636" font-size="12" stroke-width=".75"/></g><path d="M526.718 168.367l18.662-.333s12.33 0 13.663 4c2.333-5.333 12.997-5 12.997-5 6.443-.22 12.886-.444 19.328-.666.11 15.552.223 31.104.334 46.656-3.777 18.106-16.885 30.88-31.326 36.324-17.218-5.555-28.105-20.106-31.66-36.658l-1.998-44.323z" fill="#fff" fill-rule="evenodd" stroke="#000" stroke-width=".6pt"/><path d="M533.366 168.193l27.185 72.443 24.56-74.022c-7.62.492-23.965-1.2-25.995 5.752-3.142-6.22-20.337-3.713-25.75-4.173z" fill="#006b00" fill-rule="evenodd" stroke="#000" stroke-width=".6pt"/><path d="M551.87 207.416c1.046.547 1.017-19.66 2.39-20.288.393-1.673.59-2.406 1.08-4.183-1.178-2.092-6.474-1.987-8.436-.21.882 2.824 1.275 3.766 1.275 3.766 2.648 4.288 2.12 21.372 3.69 20.916z" font-size="12" fill="#ffc900" fill-rule="evenodd" stroke="#006b00" stroke-width=".41339999999999993" stroke-linecap="round"/><path d="M544.587 51.228s1.92-2.182 2.008-2.706c.087-.523 8.73-.872 13.88-10.474 2.88-5.063 0-2.095 0-2.095l-.176-2.444s3.578-3.406 2.27-5.24c-1.31-1.832-.874 2.358-2.97 2.27-2.094-.087-.96-4.538-.96-4.538s-.173-.524-.785-.786c-.873.087-.61 1.66-1.396 1.833-.787.174-1.485-3.667-1.485-3.667s-1.31-1.746-2.445 3.754c.612 5.848 4.365 4.713 4.365 8.554 0 3.842-3.317 6.81-4.277 6.897-.96.087-.61-3.23-.61-3.23s-.525-1.57-.874-1.57c-.35 0 1.92-.35 1.572-4.715-.786-5.237-1.397 1.222-2.794.96-1.397-.26-.35-4.8.175-5.324.523-.524-.612-2.706-3.667 2.88-.262 2.706-.61-.698-1.222-.523-1.047 2.182-.873 3.753.61 5.76 2.183 2.008 3.58 4.016 3.493 5.063-.086 1.048-1.22 3.405-2.792 3.405-1.572 0 .087-2.88 0-3.84-.088-.96-2.706-4.453-2.706-4.453s-1.833-2.968-1.66-3.055c.176-.087-.173-.524-1.046 2.532-.873 3.055-1.92-2.008-1.92-2.008s-1.223 3.752 1.396 6.022c-2.008-.262-2.182.524-2.182.524 0 1.047 2.706 1.483 3.055 3.317.35 1.833-2.793 2.88-2.793 2.88s1.31 1.833 4.975-1.746c.088 2.27-1.397 3.84-1.397 3.84 1.222.554 2.182.496 2.357 1.92z" fill="#cdad56" fill-rule="evenodd" stroke="#000" stroke-width=".75" stroke-linejoin="round"/><path d="M532.607 51.228s-1.63-2.422-1.705-2.898c-.074-.477-8.025.602-11.787-9.095-2.447-4.607 0-1.907 0-1.907l.148-2.223s-2.603-3.185-1.49-4.854c1.11-1.666.653 2.146 2.083 2.154 1.78-.08.816-4.13.816-4.13s.147-.477.667-.715c.74.078 1.042 2.468 1.71 2.627.666.16 2.044-2.812 2.48-3.423.612-.088.59-2.462 1.553 2.542-.52 5.322-4.928 4.29-4.928 7.784 0 3.495 2.817 6.196 3.632 6.275.816.08.52-2.94.52-2.94s.443-1.43.74-1.43-2.59.557-2.295-3.415c.668-3.718 2.147.24 3.333 0 1.186-.237-.14-3.93.2-4.495.08-.564 1.83-2.986 2.504 2.36.22 2.462 1.565-2.12 2.084-1.96.89 1.985-.394 4.636-1.654 6.463-1.853 1.827-2.69 3.83-2.616 4.782.074.953.514 2.137 1.85 2.137 1.333 0 .448-1.66.523-2.535.073-.873 2.298-3.7 2.298-3.7.436-.7.073-2.003.535-2.607.725.008 1.022-1 1.763 1.78.74 2.78 1.63-1.827 1.63-1.827s1.038 3.416-1.185 5.48c1.705-.237 1.853.477 1.853.477 0 .954-.813 1.35-1.11 3.02-.297 1.667.888 2.62.888 2.62s-1.112 1.668-4.225-1.59c-.075 2.066 1.186 3.496 1.186 3.496-1.04.504-1.854.45-2.003 1.75z" font-size="12" fill="#cdad56" fill-rule="evenodd" stroke="#000" stroke-width=".6594" stroke-linejoin="round"/><path d="M580.573 179c-1.626-1.474-1.82-.185-2.62-.515-.39-.165-.698-.532-1.04-.866-.296-.305-.648-.43-1.04-.596l-.443 1.31c-.148.438.412 1.162.4 1.817-.112.976-.51 1.783-1.732 2.117.35-.69.547-.725.44-1.568-.052-.422-1.23-1.17-1.086-1.57.216-.64.585-1.38.312-2.02-.502.34-1.157.162-1.66.37-.42.19-.45.973-1.037 1.3-.6.28-1.927.142-3.034-.487.676-.513 1.236-.167 1.912-.68.34-.257.323-1.356.662-1.613.338-.257 1.15-.53 1.487-.787-.304-.347-.288-.896-.592-1.242-.305-.346-1.654-.27-1.96-.618-.608-.693-.492-1.605-1.1-2.298 1.575.565 1.346 1.333 1.742 1.275.746-.36 1.49-.43 1.882-.266.392.165 1.137 1.14 1.53 1.304.147-.437.362-.992.51-1.43.15-.436-.664-1.193-.516-1.63.296-.874 1.03-1.647 1.326-2.52.106.842.246 1.55.352 2.394.053.42.88.64.935 1.062.053.42-.433 1.4-.38 1.82.452-.09 1.107-.03 1.56-.12.45-.09.752-1.14 1.204-1.23.905-.18 1.557-.126 2.478.048-.677.63-1.202.588-1.626 1.17-.34.256.13 1.102-.847 1.696-.368.213-1.335-.043-1.673.214.304.347.61.693.913 1.04.304.347 1.67.507 1.975.854.61.694.93 1.522.765 2.265zM538.77 179.713c1.627-1.476 1.82-.187 2.62-.516.39-.165.7-.532 1.04-.865.296-.305.648-.43 1.04-.596l.444 1.31c.148.438-.412 1.16-.4 1.817.11.975.508 1.78 1.73 2.116-.347-.692-.545-.726-.44-1.57.054-.42 1.233-1.167 1.087-1.567-.215-.64-.583-1.382-.31-2.023.502.344 1.157.164 1.66.372.42.19.45.973 1.036 1.3.602.28 1.928.142 3.035-.487-.676-.513-1.235-.167-1.912-.68-.338-.257-.322-1.357-.66-1.613-.34-.257-1.15-.53-1.49-.788.306-.346.29-.895.594-1.242.305-.346 1.654-.27 1.958-.618.61-.693.494-1.606 1.102-2.3-1.575.567-1.346 1.334-1.742 1.276-.746-.357-1.49-.43-1.883-.264-.39.165-1.137 1.14-1.528 1.303-.15-.437-.365-.992-.513-1.43-.148-.436.665-1.193.517-1.63-.296-.874-1.03-1.647-1.326-2.52-.106.842-.246 1.55-.352 2.393-.054.422-.882.64-.936 1.062-.052.422.434 1.4.38 1.82-.452-.09-1.106-.028-1.56-.118-.45-.09-.75-1.14-1.204-1.232-.905-.18-1.556-.125-2.478.048.677.632 1.202.59 1.627 1.17.338.256-.133 1.103.846 1.697.368.213 1.336-.043 1.674.214-.305.346-.61.693-.913 1.04-.303.346-1.67.508-1.974.854-.61.693-.932 1.52-.765 2.265z" font-size="12" fill="#ffc900" fill-rule="evenodd"/><path d="M579.112 183.665c-1.472 1.15-10.987 3.555-11.085 11.817-.098 8.26 1.668 10.144-.098 10.354-3.434 0-3.925-9.203-3.826-13.282.097-4.08.195-3.45.195-3.45s2.353.626 2.158 2.614c-.197 1.986 2.353-4.916 1.47-6.798 1.57 1.57 3.63.94 3.63.836 0-.104-1.176-1.36-1.667-2.3-.49-.942 1.767.522 1.767.522s.097-1.568-1.865-1.464c-2.55 0 .393-.836.393-.836s1.472 1.36 2.453-.105c-1.08-1.15-2.65-1.778-2.65-1.778s-1.372-2.614-3.236-3.137c-2.158-.523-1.864.94-4.316.732-.49.94-.49 1.046.49 1.36-1.667 1.15-.784 3.45-.784 3.45s2.648-1.15 2.55.732c-.098 1.883-1.57 1.57-2.55.42-.883-.524-1.177.522-1.177.522l1.373 1.464s-2.65-.105-3.335 1.673c1.47-.103 2.256.315 2.256.315s-3.042 1.36-3.337 2.092c-.293.732-.392-.837-.49-.837-.098 0-2.942-1.046-2.942-1.046l-.982 4.523s1.964 1.96 3.042 1.333c1.08-.627 3.04-2.51 4.218-1.987-3.433 2.615-6.866 6.38-8.73 6.903-.49-.42-2.158-2.092-2.844-1.256-.687.837-.197 1.883.686 1.778.883-.104-2.844.837-2.06 2.406.785 1.57.687 1.464 1.374 1.046.686-.42-.59-.523 1.96-1.255 2.552-.732 2.453-1.465 2.453-1.465s-.49 1.15-1.863 1.465c-1.373.314-2.452.314-2.158.732.294.418.882 1.15.687 1.57-.197.416 2.844-2.198 3.63-.106 2.06-.104 3.432-2.613 2.45-4.077.1 1.568 1.08 2.09.49 2.823-.587.732 4.612-2.406 2.06-4.288.69 1.57.786 2.824.786 2.824s1.176-.105 1.47-.523c.295-.42-.588 1.15-.195 1.463.39.314 2.256 2.092 1.47 3.347-.49-.732-.588-1.883-1.176-1.78-.59.106-3.042 1.884-4.513 1.99-1.472.103 1.765 5.437 1.765 5.437s-2.256-.314-2.55-.105c-.294.21-1.765-1.882-2.06-.627-.49 1.568.49.94.49.94s-1.275-.627-1.96.106c-.688.733-1.375 1.465-.884 1.778.49.314 2.65.314 2.943.21.295-.105-2.452.21-2.648.523-.197.314-.588 1.465 0 1.883.59.418 2.06-.21 2.158-.523.098-.314.197 1.15.197 1.15s2.55.21 2.55-2.405c0-2.614.196 1.882.196 1.882s2.55.418 2.648-2.196c.1-2.613.295 1.78.295 1.78s1.668-.524 1.668-.942c0-.42-.098 5.23-1.275 6.798-1.864-1.256-3.04.836-3.04.836s.097 3.033-.1 3.765c-.195.732 1.276-.42 1.374-.732.098-.314 1.864-1.15 1.962-1.36l.588-1.255s-.392 1.464-1.078 1.674c-.687.21-1.374.94-1.08 1.57.295.626 1.374 1.044 1.766 1.67.392.63 1.766-3.66 1.766-3.66l.098.942s1.765-.417 1.962-1.254c.196-.837-1.864-1.57-.197-2.93 1.667-1.358 0 1.256 0 1.256s.588 1.987.98 1.987c.393 0 1.373-3.765.393-4.706-.98-.942 1.47 1.15 1.47 1.15s1.375-3.87-.097-4.393c-1.47-.522-2.158-.732-2.158-.732s.785-1.046.392-1.15c-.392-.104 2.06 2.3 2.453 1.673.392-.627.98-2.51-1.863-3.555-2.846-1.046-.1-3.975-.1-3.975s1.767 2.092 3.042.94c1.275-1.148-.098-1.148-.098-1.148s3.63-2.3 3.727-3.452c-.686-.105-1.863.105-1.863.105s2.06-1.36 1.57-3.556c-.785 1.15-1.864 1.15-1.864 1.15s1.766-1.777 1.47-3.45c-1.077.836-.98 1.463-1.666 1.254-.686-.207-1.864-6.796.883-7.215 2.746-.417 1.275 3.243 1.373 3.243.098 0 4.12-1.674 0-4.393.98-.314 3.04 1.57 3.04 1.57s-.882-4.603-5.296-1.78c1.08-1.15 1.766-1.882 2.648-1.672.884.21 4.023-.105 4.023-1.046-.785-.628-2.453.314-3.336 0s6.278-.837 5.69-4.392z" font-size="12" fill="#ffc900" fill-rule="evenodd" stroke="#006b00" stroke-width=".41339999999999993" stroke-linecap="round" stroke-linejoin="round"/><path d="M481.3 118.544s12.246-6.43 18.37 1.53M504.568 132.322c-.306 0-4.286 3.98-5.205 3.98M512.835 145.18s11.328.92 18.676-10.41" transform="matrix(.3 0 0 .4 391.5 150.2)" font-size="12" fill="none" stroke="#006b00" stroke-width="1.25" stroke-linecap="round"/><path d="M525.08 141.813s.92 6.123 2.757 6.123c1.837 0-3.062 1.53-4.9.306 2.144 2.756 3.37 7.655 0 9.492" transform="matrix(.3 0 0 .4 391.5 150.2)" font-size="12" fill="none" stroke="#006b00" stroke-width="1.25" stroke-linecap="round"/><path d="M519.264 218.968s-3.98 4.286-8.88 4.592" transform="matrix(.3 0 0 .4 391.5 150.2)" font-size="12" fill="#e80000" fill-rule="evenodd" stroke="#006b00" stroke-width="1.25" stroke-linecap="round"/><path d="M523.857 199.373s-2.45-12.247-.92-15.31c.92-3.978 4.9-5.51 7.962-10.715M522.632 190.494s-3.062 7.348-16.533 4.9M526.306 172.124s.92 9.797-11.328 6.123M511.304 128.035s-4.9 4.287-3.062 10.104" transform="matrix(.3 0 0 .4 391.5 150.2)" font-size="12" fill="none" stroke="#006b00" stroke-width="1.25" stroke-linecap="round"/><path d="M567.09 191.705s2.132-.866 2.538-1.3c.406-.432 1.117-1.298 1.32-1.947.203-.65-1.42-1.624-.61-3.03.508-.65 1.22-.758 2.437 0 1.22.757-1.116-2.382-2.335-2.49-1.218-.11-2.03.866-2.335.65-.304-.217.102.865-.406.865-.51 0 1.014.866.913 1.407-.102.54 1.624 2.38 1.523 2.815-.102.432-2.538 2.922-3.046 3.03z" font-size="12" fill="#006b00" fill-rule="evenodd"/><path d="M534.267 97.112c2.794-.636 3.243.07 2.755 2.45-1.31-.66-1.79-1.218-2.755-2.45z" transform="matrix(.3 0 0 .4 391.5 150.2)" font-size="12" fill="#ffc900" fill-rule="evenodd" stroke="#ffc900" stroke-width="1.25" stroke-linecap="round" stroke-linejoin="round"/><path d="M514.708 233.517s-1.033 6.41 1.49 6.946c-.125-2.48.537-4.176 1.157-4.837-.538-.25-2.522-2.067-2.647-2.11zM509.03 225.626c-2.316-.33-6.23 1.59-5.105 3.91 1.88-1.62 3.626.135 4.94-1.518.405-.453.29-1.812.165-2.392zM509.006 221.05s-3.65-.58-4.157 1.948c2.52-.32 3.273-.59 4.108-.06.242-.54.008-1.762.048-1.888z" transform="matrix(.3 0 0 .4 391.5 150.2)" font-size="12" fill="#e80000" fill-rule="evenodd" stroke="#006b00" stroke-width="1.25" stroke-linejoin="round"/><path d="M493.54 184.936s2.19.828 2.81 3.06c1.737-1.075 2.565-5.83-2.81-3.06zM488.123 190.394c.083-.04 4.59-2.77 5.045-.165-.952.95-1.365 1.57-2.11 1.777-.578 0-1.736-1.778-2.935-1.613zM487.67 199.242c.08-.042 2.893-2.522 3.968-.868 1.075 1.653-.868 1.57-.868 1.57s-.993-.454-3.1-.702zM483.7 149.958c-.042 0-3.598-1.364-5.086 1.116 2.357.29 3.184 1.117 4.258 1.944-.29-1.034-.785-2.605.827-3.06zM476.795 168.522s.165-4.176 2.15-5.87c1.116.62 1.446 1.61 2.19 2.852-1.487.33-3.472.413-4.34 3.018zM486.304 165.545s-3.928 1.82-2.646 3.804c1.282-1.365 2.688-.952 2.688-.993 0-.04 0-2.77-.042-2.812z" transform="matrix(.3 0 0 .4 391.5 150.2)" font-size="12" fill="#e80000" fill-rule="evenodd" stroke="#006b00" stroke-width="1pt" stroke-linejoin="round"/><path d="M480.64 125.605c-1.406 1.57 1.736 5.003 5.044 4.507.827-3.72-4.217-5.664-5.044-4.507z" transform="matrix(.3 0 0 .4 391.5 150.2)" font-size="12" fill="#ffc900" fill-rule="evenodd" stroke="#006b00" stroke-width="1pt" stroke-linejoin="round"/><path d="M550.817 192.09c-.23.62.68 1.487 1.206 1.244.215-.634-.97-1.735-1.206-1.243z" font-size="12" fill="none"/><path d="M484.278 122.753s.62 2.936 3.473 2.15c-.454-2.274-2.438-3.97-2.438-3.97-.124.663.413 1.696-1.034 1.82zM486.18 131.27s1.57 1.695 4.672-1.778c-1.405.413-3.886-.827-3.886-.827s0 2.398-.786 2.605z" transform="matrix(.3 0 0 .4 391.5 150.2)" font-size="12" fill="#e80000" fill-rule="evenodd" stroke="#006b00" stroke-width="1pt" stroke-linejoin="round"/><path d="M480.463 118.863c-1.406 1.57.583 3.762 3.89 3.266.828-3.72-3.063-4.424-3.89-3.267z" transform="matrix(.3 0 0 .4 391.5 150.2)" font-size="12" fill="#ffc900" fill-rule="evenodd" stroke="#006b00" stroke-width="1pt" stroke-linejoin="round"/><path d="M144.625 266.62s7.037-2.01 10.77 1.006c3.735 3.016 3.735.287 3.735.287s5.457 2.01 7.037 1.58c1.58-.43-1.148.144 1.006-1.15 2.154-1.29-4.31.29-4.883-2.44-1.006-1.724.143-3.878-2.154-3.16-1.58-2.01 1.005-3.446.43-5.6-1.58 1.148-2.44-.432-3.734 2.44-3.015-.574-.43-4.74-3.734-5.17 0 3.016-2.442 3.16-2.585 4.883-1.436 1.006-7.755 4.74-5.888 7.325z" fill="url(#e)" fill-rule="evenodd" transform="matrix(.6 0 0 .6 461.4 21.5)"/><path d="M499.575 318.85c2.74-.66 17.583 3.278 23.306 9.414-1.214-10.927-4.24-19.3-4.24-19.3s-8.847-2.522-10.06-1.308c-1.782 1.876-7.13 7.495-9.005 11.195zM495.05 268.377c-1.04.174-2.082.868-3.123 2.602-1.214 2.947-2.08 10.406-3.816 12.14-1.733 1.735-3.294 1.908-3.294 3.47 0 1.56.173 5.203 4.856 6.59 4.684.174 12.142-7.458 12.142-7.458s3.816-4.163 5.377-8.672c-9.018 3.122-15.436-5.204-12.14-8.673z" fill="#c01500" fill-rule="evenodd" stroke="#000" stroke-width=".6pt"/><path d="M625.496 317.11c-2.72-.657-17.734 3.26-23.412 9.36 1.205-10.864 4.21-19.188 4.21-19.188 1.048-.285 8.68-2.508 9.887-1.3 1.768 1.864 7.456 7.45 9.316 11.13zM629.7 266.932c1.034.173 1.4 1.53 2.242 3.254 1.204 2.93 2.446 7.2 4.167 8.925 1.72 1.726 3.27 4.28 3.27 5.833 0 1.55-.364 3.648-5.01 5.027-4.648.173-11.382-5.794-11.382-5.794s-3.786-4.14-5.335-8.622c8.95 3.104 14.746-4.888 12.048-8.622z" font-size="12" fill="#c01500" fill-rule="evenodd" stroke="#000" stroke-width=".7944"/><path d="M489.846 309.312s9.366 6.417 9.54 9.366c25.15-37.292 89.327-48.914 125.925-2.602 4.857-6.418 9.888-8.5 9.888-8.5-38.506-50.3-115.172-44.056-145.352 1.736z" fill="#fb0" fill-rule="evenodd" stroke="#000" stroke-width=".6pt"/><g fill="#1e5aa6" fill-rule="evenodd" stroke="#000"><path d="M206.44 241.876l6.11-.145-10.91 13.82 13.093 15.277-25.75 32.443 24.295 29.242c-2.667 6.547-5.77 12.512-9.893 17.894l-13.966-15.42 25.313-31.57-20.804-23.57 12.51-37.97z" stroke-width="1pt" transform="matrix(.6 0 0 .6 461.4 21.5)"/><path d="M532.89 168.284l-3.927.088 7.332 7.942-7.77 9.69 16.15 17.545-13.356 17.893c1.6 3.93 3.898 8.293 6.37 11.522l7.945-10.038-16.323-18.156 11.958-15.187-8.38-21.3z" stroke-width=".6pt"/><path d="M551.047 215.42l-5.762 7.682 20.6 23.83c3.638-1.833 6.49-3.928 9.603-6.46L564.75 228.08l4.366-12.832 6.285 7.245-19.64 25.053c-3.287-1.396-6.924-3.58-10.212-6.285l10.387-13.18-4.888-12.657zM544.674 203.462l3.754 4.714-2.444-6.372-1.31 1.658z" font-size="12" stroke-width=".6pt"/><path d="M571.558 207.63c.082-.087 3.03-4.016 3.03-4.016l-1.147-1.57-1.882 5.586z" font-size="12" stroke-width=".7746"/></g><text style="line-height:100%" transform="matrix(.4 -.5 .5 .4 461.4 21.5)" x="-328.344" y="362.397" font-size="14" font-weight="bold" stroke-width="1pt" font-family="Timmons"><tspan x="-328.344" y="362.397">L</tspan></text><text style="line-height:100%" transform="matrix(.4 -.4 .4 .4 461.4 21.5)" x="-292.335" y="384.266" font-size="14" font-weight="bold" stroke-width="1pt" font-family="Timmons"><tspan x="-292.335" y="384.266">E</tspan></text><text style="line-height:100%" transform="matrix(.5 -.3 .4 .5 461.4 21.5)" x="-239.78" y="451.681" font-size="14" font-weight="bold" stroke-width="1pt" font-family="Timmons"><tspan x="-239.78" y="451.681">O</tspan></text><text style="line-height:100%" transform="matrix(.5 -.3 .3 .5 461.4 21.5)" x="-188.526" y="429.958" font-size="14" font-weight="bold" stroke-width="1pt" font-family="Timmons"><tspan x="-188.526" y="429.958">T</tspan></text><text style="line-height:100%" transform="matrix(.6 -.3 .3 .6 461.4 21.5)" x="-115.426" y="451.479" font-size="14" font-weight="bold" stroke-width="1pt" font-family="Timmons"><tspan x="-115.426" y="451.479">E</tspan></text><text style="line-height:100%" transform="matrix(.6 -.3 .3 .6 461.4 21.5)" x="-94.111" y="453.046" font-size="14" font-weight="bold" stroke-width="1pt" font-family="Timmons"><tspan x="-94.111" y="453.046">R</tspan></text><text style="line-height:100%" transform="matrix(.6 -.2 .2 .6 461.4 21.5)" x="-68.371" y="454.982" font-size="14" font-weight="bold" stroke-width="1pt" font-family="Timmons"><tspan x="-68.371" y="454.982">R</tspan></text><text style="line-height:100%" transform="matrix(.6 -.1 .1 .6 461.4 21.5)" x="112.016" y="445.666" font-size="14" font-weight="bold" stroke-width="1pt" font-family="Timmons"><tspan x="112.016" y="445.666">R</tspan></text><text style="line-height:100%" transform="matrix(.6 0 0 .6 461.4 21.5)" x="180.225" y="430.793" font-size="14" font-weight="bold" stroke-width="1pt" font-family="Timmons"><tspan x="180.225" y="430.793">R</tspan></text><text style="line-height:100%" transform="matrix(.5 .3 -.3 .5 461.4 21.5)" x="414.759" y="275.217" font-size="14" font-weight="bold" stroke-width="1pt" font-family="Timmons"><tspan x="414.759" y="275.217">R</tspan></text><text style="line-height:100%" transform="matrix(.5 .4 -.4 .5 461.4 21.5)" x="483.878" y="193.05" font-size="14" font-weight="bold" stroke-width="1pt" font-family="Timmons"><tspan x="483.878" y="193.05">E</tspan></text><text style="line-height:100%" transform="matrix(.6 .1 -.1 .6 461.4 21.5)" x="309.116" y="414.028" font-size="14" font-weight="bold" stroke-width="1pt" font-family="Timmons"><tspan x="309.116" y="414.028">O</tspan></text><text style="line-height:100%" transform="matrix(.6 -.1 .1 .6 461.4 21.5)" x="105.058" y="459.272" font-size="14" font-weight="bold" stroke-width="1pt" font-family="Timmons"><tspan x="105.058" y="459.272">O</tspan></text><text style="line-height:100%" transform="matrix(.6 -.2 .2 .6 461.4 21.5)" x="-45.708" y="455.835" font-size="14" font-weight="bold" stroke-width="1pt" font-family="Timmons"><tspan x="-45.708" y="455.835">A</tspan></text><text style="line-height:100%" transform="matrix(.4 .4 -.4 .4 461.4 21.5)" x="518.35" y="144.724" font-size="14" font-weight="bold" stroke-width="1pt" font-family="Timmons"><tspan x="518.35" y="144.724">A</tspan></text><text style="line-height:100%" transform="matrix(.6 .1 -.1 .6 461.4 21.5)" x="271.188" y="388.298" font-size="14" font-weight="bold" stroke-width="1pt" font-family="Timmons"><tspan x="271.188" y="388.298">A</tspan></text><text style="line-height:100%" transform="matrix(.6 -.1 .1 .6 461.4 21.5)" x="40.322" y="455.168" font-size="14" font-weight="bold" stroke-width="1pt" font-family="Timmons"><tspan x="40.322" y="455.168">M</tspan></text><text style="line-height:100%" transform="matrix(.6 -.1 .1 .6 461.4 21.5)" x="94.429" y="448.079" font-size="14" font-weight="bold" stroke-width="1pt" font-family="Timmons"><tspan x="94.429" y="448.079">P</tspan></text><text style="line-height:100%" transform="matrix(.6 0 0 .6 461.4 21.5)" x="155.088" y="437.607" font-size="14" font-weight="bold" stroke-width="1pt" font-family="Timmons"><tspan x="155.088" y="437.607">P</tspan></text><text style="line-height:100%" transform="matrix(.5 .3 -.3 .5 461.4 21.5)" x="405.134" y="276.665" font-size="14" font-weight="bold" stroke-width="1pt" font-family="Timmons"><tspan x="405.134" y="276.665">P</tspan></text><text style="line-height:100%" transform="matrix(.6 .1 -.1 .6 461.4 21.5)" x="232.095" y="409.793" font-size="14" font-weight="bold" stroke-width="1pt" font-family="Timmons"><tspan x="232.095" y="409.793">I</tspan></text><text style="line-height:100%" transform="matrix(.4 .5 -.5 .4 461.4 21.5)" x="530.392" y="132.089" font-size="14" font-weight="bold" stroke-width="1pt" font-family="Timmons"><tspan x="530.392" y="132.089">T</tspan></text><text style="line-height:100%" transform="matrix(.5 .4 -.4 .5 461.4 21.5)" x="464.158" y="218.519" font-size="14" font-weight="bold" stroke-width="1pt" font-family="Timmons"><tspan x="464.158" y="218.519">T</tspan></text><text style="line-height:100%" transform="matrix(.6 .2 -.2 .6 461.4 21.5)" x="313.725" y="361.961" font-size="14" font-weight="bold" stroke-width="1pt" font-family="Timmons"><tspan x="313.725" y="361.961">M</tspan></text><text style="line-height:100%" transform="matrix(.4 .5 -.5 .4 461.4 21.5)" x="513.704" y="123.248" font-size="14" font-weight="bold" stroke-width="1pt" font-family="Timmons"><tspan x="513.704" y="123.248">G</tspan></text><g fill="none" stroke="#fff700" stroke-width="1pt" stroke-linecap="round"><path d="M614.966 142.064s3.62-3.103 6.205-3.19M615.484 141.633c.085-.086 21.63-3.102 22.32-3.792M615.57 141.805c.086-.086 24.13-2.068 24.13-2.068M615.484 141.89s25.594-1.205 27.145.088M615.397 141.805s25.078.173 25.51.776M615.484 141.805l24.13 1.982M615.225 141.978c.086 0 24.56 2.154 26.973 5.256M643.49 151.63c-.085-.087-8.358-9.91-28.35-9.74M615.225 142.064s13.874.947 18.27 5.774M615.484 141.89s8.962-1.722 18.355 9.567" stroke-width=".6pt"/></g><path d="M247.4 217.743s20.718.813 20.718 2.844c0 2.03-15.437 5.89-15.64 14.422-.203 8.53 11.78 9.14 12.593 19.904.814 10.766-9.342 12.39-11.374 15.234-2.03 1.422-6.906 16.656-6.296 25.593.61 8.94 3.25 39.204 7.92 45.297 3.658 2.844 9.142 11.984 15.032 9.14 5.89-2.843 1.828-13.202 1.22-16.046-.61-2.843 2.436-7.515 2.436-11.78 0-4.266-2.234-7.72-2.03-8.734.202-1.016 16.452 3.86 15.436 19.906-1.015 16.046-7.515 11.17-7.515 11.17s2.03 19.704-3.048 22.344c-9.14 4.875-15.843-1.015-15.843-1.015l.858 4.008-6.953-3.6s-8.937-12.798-10.968-18.485c-2.03-5.687-4.47-31.077-3.656-36.56.813-5.486 1.422-37.58 1.016-39.204-.406-1.626-2.03-28.437-1.015-32.5 1.016-4.062 7.313-21.937 7.11-21.937z" fill="url(#f)" fill-rule="evenodd" stroke="#000" stroke-width="1pt" transform="matrix(.6 0 0 .6 461.4 21.5)"/><path d="M596.434 148.977s8.653-8.41 13.65-7.434c2.56 0 .12 1.828.12 1.828s4.39.367 4.998 2.317c.122.853-2.072 1.097-2.072 1.097s1.83.365 1.95 1.95c.122 1.584-18.524.365-18.646.243z" fill="#ff7000" fill-rule="evenodd" stroke="#000" stroke-width=".6pt"/><path d="M596.92 148.612s9.264-1.22 13.164-5.12M606.305 146.052s6.825-.243 6.825.732" fill="none" stroke="#000" stroke-width=".6pt"/><path d="M630.558 245.743s5.85-1.34 7.434-3.412c.976-.73 6.094 7.68-7.434 3.413z" fill="#fff" fill-rule="evenodd" stroke="#000" stroke-width=".75" stroke-linejoin="round"/><path d="M628.974 197.36s.73 4.51-1.34 7.556c-1.098 1.22-4.388 3.29-4.388 4.754 0 1.462 1.218 3.412.975 5.118-.243 1.707-2.07 3.413-1.95 4.875 0 1.462 2.073 9.262 1.83 9.384M618.25 182.736s-4.632 1.584-5.607 6.216" fill="none" stroke="#fff" stroke-width=".75" stroke-linecap="round"/><path d="M616.3 146.052s1.584 4.388 6.702.244c-3.29-4.51-6.703-.122-6.703-.244z" fill="#c75b00" fill-rule="evenodd" stroke="#000" stroke-width=".6pt"/><path d="M625.632 150.206c0 .244-.254.44-.567.44-.314 0-.568-.196-.568-.44s.254-.442.568-.442c.313 0 .567.198.567.442z" fill-rule="evenodd"/><path d="M574.447 135.87s9.706 10.506 15.986 10.392c1.142 3.083-2.85 5.95-4.45 7.322-3.197-1.028-6.086.187-13.51-8.948.458-5.824 2.088-8.537 1.974-8.765zM587.578 111.434c1.257-3.882 3.77-6.965 5.938-7.308-.57-2.97 4.568-16.1 19.527-21.125.913 6.74-6.395 13.362-6.395 13.362s22.038-3.77 26.492-9.364c-.457 2.512-4.91 18.156-28.433 18.042 8.907 8.45-2.855 15.187-7.88 13.132 9.25-7.08-2.626-11.305-9.248-6.738z" fill="#fff" fill-rule="evenodd" stroke="#000" stroke-width=".6pt"/><path d="M595.115 105.953c4.453-2.854 6.052-2.854 9.706-2.283-2.625.342-2.625.456-2.625.456s-.23.343 1.37 1.827c-1.827-.456-3.426-1.484-8.45 0z" fill="#cccccd" fill-rule="evenodd" stroke="#ccc" stroke-width=".6pt"/><path d="M593.402 104.126s8.793-4.68 13.703-7.88" fill="none" stroke="#000" stroke-width=".6pt"/><path d="M585.866 153.57s12.104 3.312 13.474-14.045c-2.626-7.537-6.28-23.75-.685-28.433-5.14-3.54-10.734.114-10.734.114-.34.8-4.91 7.308 1.257 18.727-14.616-3.882-8.678 9.934-8.678 9.934.57-2.17 8.335-4.224 10.276 6.852.8 2.74-5.253 6.964-4.91 6.85z" fill="#00f" fill-rule="evenodd" stroke="#000" stroke-width=".6pt"/><path d="M599.454 139.64s12.79-6.852 12.447-22.953c-10.847.23-14.73 14.274-14.73 14.274l2.284 8.68z" fill="#00f" fill-rule="evenodd" stroke="#000" stroke-width=".6pt"/><path d="M542.13 138.84s-9.476 8.22-14.843 5.595c-3.997 2.398-8.678-1.827-8.678-1.827s5.48 20.21 25.12 5.595c-.342-4.453-1.37-9.02-1.6-9.363z" fill="#fff" fill-rule="evenodd" stroke="#000" stroke-width=".6pt"/><path d="M527.173 144.092c.8-4.225 4.11-6.28 6.737-2.283 3.54.684 7.08-13.818-5.48-11.42 3.54-18.956-7.08-26.035-7.08-26.035s-3.77 21.01-2.056 24.893c1.713 3.882-2.512-7.194-16.1-10.277-.23 15.873 15.186 23.295 15.186 23.295s4.34 3.997 8.793 1.827z" fill="#00f" fill-rule="evenodd" stroke="#000" stroke-width=".6pt"/><path d="M528.43 130.276s-5.94 5.024-4.57 11.875M519.408 129.59s-1.37 4.91 1.6 11.876M518.494 143.065s2.74-4.454 8.68 1.256" fill="none" stroke="#000" stroke-width=".6pt"/><path d="M519.636 112.234c0-.114-9.02 0-3.654 9.135-3.996 1.255-12.903-4.57-6.737-12.334-20.21-.456-28.433-10.162-28.433-19.07 5.938 6.167 20.097 3.655 25.122 7.423-6.167-5.71-4.91-13.59-4.91-13.59s17.242 5.14 20.325 20.44c-1.03 2.97-1.485 8.222-1.714 7.994z" fill="#fff" fill-rule="evenodd" stroke="#000" stroke-width=".6pt"/><path d="M505.765 96.99c3.328 3.386 11.877 4.398 16.217 8.166" fill="none" stroke="#000" stroke-width=".6pt"/><path d="M509.702 106.98s7.078-.912 9.13 1.6c-2.77 0-3.693-.685-7.694.8 1.128-.572.82-1.6 1.436-1.6s-2.564-.8-2.872-.8z" font-size="12" fill="#cccccd" fill-rule="evenodd" stroke="#ccc" stroke-width=".5688"/><path d="M544.986 51.6s3.883-3.426 8.108-.343c-1.91 5.704-8.793 3.54-8.793 3.54s.23 2.855-.456 4.225c1.378 1.036 2.512 4.453 2.512 4.453s7.08-1.713 8.565 1.37c2.712-.374 4.682 0 4.682 0s5.48-1.37 7.423-1.37c1.94 0 8.107 1.6 8.678 2.74.57 1.143 2.626 8.793 3.996 8.68 1.37-.115-3.312 1.826-4.568-.115-1.256-1.94-.914 2.512-.914 2.512s3.883 4.11 4.34 5.024c.456.914-2.398 8.336-.23 13.475-1.9.176-2.054 2.17-2.054 2.17-.105 2.262-2.97 2.855-2.97 2.855l-.684-3.083-1.94 1.142.798-2.398s2.626-6.395 2.855-8.45c.228-2.056-2.398-5.71-4.454-5.71-2.056 0-3.54 6.51-3.54 6.51s-1.028 4.91-.686 5.366c.343.457-1.37-1.6-1.37-1.6s-.913 2.97-1.6 3.884c-.684.913-2.168 1.256-2.168 1.256s-1.028-2.97-.685-4.11c.343-1.143 5.596-5.596 5.14-8.793-.458-3.2 0-2.4-.115-2.514-.114-.114-2.74-2.398-2.855-3.654-.114-1.256-3.425 1.6-7.765.685-1.328 2.32-1.484 8.108-1.484 8.108s-.456 6.965.458 7.765c.913.8-2.284 2.512-2.284 2.512l-2.284 3.083s-.8-1.94-.8-1.827c0 .114-1.598 1.142-1.598 1.142l.914-2.284c-.056-1.73 2.22-6.45 2.22-10.447 0-3.998.292-8.28.292-8.28s-4.225-.23-4.11 4.11c.113 4.34-1.03 4.567-.8 5.824.228 1.256 1.37 4.795 1.027 5.823-.342 1.028-1.712 1.37-1.712 1.37l-.343.57s-4.225 1.943-4.11 2.742c.113.798-.115-2.285-.115-2.285l-.228-3.31s2.512-1.6 2.512-5.597c0-3.996-.58-4.564-.466-5.478.114-.914.693-4.228.58-4.57-.115-.343-2.4.913-3.084.913-.685 0 1.256-2.398 1.484-4.11.23-1.713-2.283 1.598-4.34-.343.957-2.11 2.4-2.74 2.628-4.34.228-1.598-1.6 1.37-3.198.23.13-1.533 1.713-2.856 1.713-2.856s-1.3-.16-1.827 0c-1.028-.342 1.142-1.94 1.256-4.225.114-2.284-1.256-3.198-1.256-3.312 0-.114-2.284-2.055-2.626-2.855-.343-.8-.343-1.713-.343-1.713s-3.767 2.74-8.22-3.083c4.078-3.48 8.45-.913 8.45-.913s1.14-3.198 6.394-2.97c5.253.23 6.28 3.198 6.052 2.856z" fill="#923f00" fill-rule="evenodd" stroke="#000" stroke-width=".6pt"/><path d="M573.71 110.667c.096 0 9.7.285 9.796 5.42.095 5.135-2.948 3.804-3.043 3.804-.095 0-7.037-.855-7.037-.855l.285-8.368z" fill="#00f" fill-rule="evenodd" stroke="#000" stroke-width=".6pt"/><path d="M564.39 109.24s11.984-.095 11.318 5.135c-.665 5.23-3.71 4.185-3.71 4.185l-5.8-.476-1.806-8.844z" fill="#fffeff" fill-rule="evenodd" stroke="#000" stroke-width=".6pt"/><path d="M557.64 108.67l6.942.57s4.184.57 3.994 4.565c-.19 3.994-4.28 4.09-4.28 4.09l-6.752-.38.096-8.846z" fill="#00f" fill-rule="evenodd" stroke="#000" stroke-width=".6pt"/><path d="M541.38 110.667c-.095 0-9.7.285-9.795 5.42-.095 5.135 2.948 3.804 3.043 3.804.095 0 7.037-.855 7.037-.855l-.285-8.368z" fill="#fff" fill-rule="evenodd" stroke="#000" stroke-width=".6pt"/><path d="M550.7 109.24s-11.983-.095-11.317 5.135c.666 5.23 3.71 4.185 3.71 4.185l5.8-.476 1.807-8.844z" fill="#00f" fill-rule="evenodd" stroke="#000" stroke-width=".6pt"/><path d="M557.452 108.67l-6.943.57s-4.185.57-3.995 4.565c.19 3.994 4.28 4.09 4.28 4.09l6.752-.38-.095-8.846z" fill="#fff" fill-rule="evenodd" stroke="#000" stroke-width=".6pt"/><path d="M576.043 166.406s4.992-7.356 7.094-6.568c1.84.613.438 6.306-.438 6.83l-6.657-.262zM541.825 167.72c-1.576-2.19-3.853-8.233-5.955-6.57-1.84.615-.438 6.307.438 6.833l5.517-.263z" fill="#5e0043" fill-rule="evenodd" stroke="#000" stroke-width=".6pt"/><path d="M545.132 153.173s9.727 5.992 12.917 6.147c3.19.156 13.306-7.78 13.306-7.78" fill="none" stroke="#000" stroke-width=".6pt"/><path d="M546.066 129.672l1.867-2.335 9.338 4.747 9.495-4.202 1.868 1.945-10.584 7.47-11.984-7.625z" fill="#5e0043" fill-rule="evenodd" stroke="#000" stroke-width=".6pt"/><path d="M538.65 129.546c.758.958 6.793 8.297 7.882 14.366 1.09 6.07-.622-8.326-.622-8.326s7.47 3.657 7.704 5.992c.233 2.334 3.57-.158 3.73-.557l-21.628-14.048 2.933 2.574zM575.558 129.127s-7.86 10.35-6.925 21.633c-1.62-5.402-.312-14.318-.312-14.318l-1.71 1.09s-1.79 7.626-4.047 8.793c-.38-.91-.31-1.245-.31-1.245s-2.414 3.112-2.88 3.424c-.468.31.155 10.505.155 10.505s.81 7.388 1.744 7.31c-1.062.52-2.367 1.33-2.367 1.33l-.968-19.73 2.214-2.218s2.958-3.58 3.19-7.08c-1.282 1.088-2.723 1.4-2.723 1.4s-.39 4.98-1.556 5.68c-1.166.7-1.198 2-1.198 2l-.277-6.51 17.973-12.065z" fill="#474747" fill-rule="evenodd" stroke="#474747" stroke-width=".75" stroke-linejoin="round"/><path d="M557.583 141.11l1.518 31.124" fill="none" stroke="#000" stroke-width=".75" stroke-linecap="round"/><path d="M538.44 155.974s3.58 2.1 4.902 8.482c11.673-.856 15.33 3.27 15.33 3.27s9.572-4.593 14.007-3.737c1.556-3.27 5.99-7.47 5.99-7.47" fill="none" stroke="#000" stroke-width=".6pt"/><path d="M533.555 125.47l24.028 15.72 21.633-14.553s4.513-2.49 4.124-4.28c-.39-1.79-1.945-1.09-2.723-.778-.78.31-22.645 15.796-22.645 15.796l-23.268-14.708s-1.712-.545-2.023.545c-.31 1.09.642 1.712.875 2.257z" fill="#b4b6b9" fill-rule="evenodd" stroke="#000" stroke-width=".6pt"/><path d="M576.522 121.385s-6.148-2.61-6.148-.348.174 2.494 1.16 3.944c.986 1.45-.754 2.38-.754 2.38s-.232-.64-.58-1.625c-.348-.986-3.653-1.682-3.943-2.842-.29-1.16.696-3.016-1.276-3.248-1.97-.232-3.885.812-4.29 3.074-.407 2.26-2.96 7.538-2.96 7.538l.35-12.005c4.33.31 12.372 1.257 18.558 1.972-1.856-.29.696.116.638.754-.174.52-.812.58-.754.405zM554.773 118.37c-1.102 0-6.61.637-8.003 1.45-1.392.81 2.262 2.087 1.798 3.19-.464 1.1-.522 3.305-2.262 2.84-1.74-.463-7.597-3.363-7.77-4.35-.175-.985-1.393-1.043-1.393-1.043s16.818-2.262 17.63-2.088z" fill="#474747" fill-rule="evenodd" stroke="#474747" stroke-width=".75" stroke-linejoin="round"/><path d="M557.427 116.988l-.042 14.75M546.067 99.61s-6.738 10.943-6.872 11.277" fill="none" stroke="#000" stroke-width=".6pt"/><path d="M161.795 129.74s4.893 6.673 4.337 8.563c2 1.557 4.225 7.784 4.225 7.784" fill="url(#g)" fill-rule="evenodd" stroke="#000" stroke-width="1pt" transform="matrix(.6 0 0 .6 461.4 21.5)"/><path d="M569.82 98.677s-6.34 8.94-6.14 9.608" fill="none" stroke="#000" stroke-width=".6pt"/><path d="M540.01 57.365c-.147.517-.983.717-1.866.447-.882-.27-1.478-.91-1.33-1.426.15-.518.985-.718 1.868-.448.883.27 1.478.91 1.33 1.427zM542.67 57.182c.147.517.983.717 1.866.447.883-.27 1.478-.91 1.33-1.427-.15-.518-.985-.718-1.868-.448-.883.27-1.478.91-1.33 1.427z" fill-rule="evenodd"/><path d="M614.094 241.18s-2.35.44-2.276.66c.073.22-6.83.44-6.978.22-.147-.22-1.028 1.175-1.028 1.175l1.102-.66s1.69 1.762 2.203 1.615c.514-.147-.22.66-.073.808.146.147.66-.294.66-.294l11.414-.19-5.024-3.335z" fill="#ff7000" fill-rule="evenodd" stroke="#000" stroke-width=".6pt" stroke-linejoin="round"/><path d="M618.35 244.728l-9.323.27s-2.35 2.13-2.498 2.644c-.147.514 1.542.66 1.542.66l.514 1.764 1.175-.44s7.928 1.178 15.204-.442c3.673-1.285 4.315-2.827 1.745-3.764-2.572-.936-8.288-.655-8.36-.692z" fill="#ff7000" fill-rule="evenodd" stroke="#000" stroke-width=".75" stroke-linejoin="round"/><path d="M208.37 403.926l27.97-1.246-5.21-4.416 75.65-3.058-2.606-6.002-84.707 3.398 10.192 4.756-22.876.68.68 2.377-6.003-.226s6.683 2.604 6.91 3.736z" fill="url(#h)" fill-rule="evenodd" stroke="#000" stroke-width="1pt" transform="matrix(.6 0 0 .6 461.4 21.5)"/><path d="M239.726 249.424c-2.222-1.11-11.997-2.444-22.884 4.666l.444 25.105s15.997-8.664 23.773-6.665c-.445-7.776-.445-17.774-1.334-23.106z" fill="url(#i)" fill-rule="evenodd" stroke="#000" stroke-width="1pt" transform="matrix(.6 0 0 .6 461.4 21.5)"/><path d="M512.444 216.892l-39.573 39.286M530.08 217.178l-32.118 42.298M528.646 206.138l-42.87 51.904M484.485 257.325l4.158-4.875M536.82 232.234l-16.633 22.94M519.47 258.186l.43 8.746M544.418 240.263l-17.636 22.08M541.264 260.623l7.17-11.757M543.988 246.572l-8.603 9.75M541.407 237.395l-5.878 7.17M533.808 226.928s-17.923 26.24-17.636 28.39M531.944 223.487c-.43.287-15.485 20.217-15.485 20.217M515.6 250.013l-2.726 3.298M509.433 258.33l-4.158 5.448" fill="none" stroke="#000" stroke-width=".6pt"/><path d="M510.487 156.5s-1.215 3.817 0 5.725c1.214 1.908 8.846 17.345 8.846 17.345s5.203-6.418 7.11-6.59c1.91-.174 1.042 16.65 1.042 16.65s-3.122 2.95-5.03 2.776c-1.908-.174 4.683 6.59 4.51 12.315-.174 5.725-8.673 34.17-11.795 34.69-3.122.52 1.387-5.203 1.214-6.764-.174-1.56-1.04-.52-1.735-2.255-.694-1.733 1.04-4.335.693-6.07-.347-1.734-1.908-1.387-2.08-2.6-.175-1.216 1.04-1.562.866-2.95-.174-1.387-2.082-1.04-1.91-2.255.175-1.214.348-.694.175-2.948-.174-2.255-.52 1.56-2.43 1.734-1.907.175-3.468 4.51-3.468 4.51s-3.816 5.378-7.632 2.95c2.255 4.856.52 6.938-.347 7.11-.867.174.694 3.817-1.387 3.99-2.08.174 1.562 8.153-.866 8.846 2.6 1.215.52 2.776.52 2.776s-6.012.5-4.683 8.325c-17.69-6.244-26.364-16.998-26.19-27.925.173-10.928 3.642-20.814 12.14-24.457 2.43-9.02 6.592-18.733 6.592-18.733s-.693-3.99-.173-6.59c.52-2.603 2.948-5.204 2.948-5.204s-.347-6.245-.174-9.366c.174-3.123 1.388-4.51 1.56-6.245.175-1.734-.52-10.58 1.215-12.14 1.734-1.562 5.03-1.39 6.764-2.43 1.734-1.04 3.99-2.948 6.244-2.775 2.255.173 4.163 1.735 4.163 1.735s8.5 0 9.02 3.295c.52 3.296-1.734 4.51-1.734 4.51s1.214 4.683-3.99 9.02z" fill="#8a9396" fill-rule="evenodd" stroke="#2b2b2b" stroke-width=".6pt"/><path d="M69.666 206.453c0 .953-1.594 1.726-3.56 1.726-1.965 0-3.558-.774-3.558-1.727 0-.953 1.593-1.725 3.56-1.725 1.964 0 3.558.772 3.558 1.725z" transform="matrix(.5 -.3 .3 .5 405.3 56.6)" fill="#cecfcf" fill-rule="evenodd" stroke="#2b2b2b" stroke-width="1pt"/><path d="M502.906 149.69c0 .328-.3.594-.667.594-.37 0-.668-.266-.668-.594 0-.328.298-.594.667-.594.367 0 .666.266.666.594z" fill-rule="evenodd"/><path d="M514.183 151.1s2.106 9.406-.413 15.902M514.83 146.982s4.11 5.436 3.58 12.198M515.23 145.79c.13 0 3.446 2.916 3.313 4.905M516.024 144.596s2.254 1.59 2.784 3.182" fill="none" stroke="#2b2b2b" stroke-width=".375"/><path d="M514.963 143.668s-8.087 13.125-7.027 21.346" fill="none" stroke="#000" stroke-width=".6pt"/><path d="M515.494 143.27s-10.74 6.364-12.728 27.18" fill="none" stroke="#2b2b2b" stroke-width=".375"/><path d="M514.3 147.115l-4.242 3.182" fill="none" stroke="#000" stroke-width=".6pt"/><path d="M498.788 171.643s5.966-24.793 16.573-28.373" fill="none" stroke="#2b2b2b" stroke-width=".375"/><path d="M519.47 179.995s5.702-7.16 7.028-6.894c1.326.266.928 16.574.928 16.574s-4.243 3.182-5.17 3.05c-.93-.133 4.772 7.69 4.64 10.606-.133 2.917-.265 2.917-.265 2.917s0-1.724-1.325-4.508c-1.326-2.785-.53-5.967-9.148-12.994-2.122-4.375 4.242 2.65 5.568 1.59 1.326-1.06-2.386-10.208-2.254-10.34z" fill="#2b2b2b" fill-rule="evenodd" stroke="#2b2b2b" stroke-width=".6pt"/><path d="M509.336 139.674s-2.397.654-2.724 1.635c-.326.98-1.743 1.96-2.505 1.633-.763-.327-2.18-1.525-2.18-1.525" fill="none" stroke="#2b2b2b" stroke-width=".6pt"/><path d="M495.718 148.063s-3.595 3.596-1.852 4.03c1.743.437 3.595-2.83 3.595-2.83s0 5.555 1.526 4.683c1.525-.87 5.992-4.03 5.992-4.03s1.525-.11 1.852 0c.327.108 4.14 3.377 6.646 2.178-1.416 3.704-3.05 4.14-3.05 4.14s-2.615 3.378-5.992 2.615c-3.378-.764-4.25-2.18-4.25-2.18s-2.832.218-3.704-1.09c-.87-1.307-1.198-2.07-1.198-2.07s-1.634 1.635-2.07.872c-.436-.762 0-5.23 2.506-6.32z" fill="#2b2b2b" fill-rule="evenodd" stroke="#2b2b2b" stroke-width=".75" stroke-linejoin="round"/><path d="M516.09 143.052s-6.645-1.96-8.933 1.307c-2.288 3.267-1.743 5.12-.545 5.446" fill="none" stroke="#2b2b2b" stroke-width=".6pt"/><path d="M517.116 142.868c0 .784-.56 1.42-1.253 1.42-.692 0-1.253-.636-1.253-1.42 0-.783.56-1.418 1.253-1.418.692 0 1.253.635 1.253 1.418z" fill-rule="evenodd"/><path d="M497.775 159.826s2.71 4.17 5.94 5.316c3.232 1.146-2.24 2.137-5.47-.052-2.346-3.18-1.72-5.472-1.72-5.472s.624-.625 1.25.208zM520.965 184.424s-7.61-10.58-9.797-11.153c-2.19-.572 1.667-1.04 4.012 1.2 2.345 2.24-.625-3.648-.625-3.648l6.41 13.602z" fill="#2b2b2b" fill-rule="evenodd" stroke="#2b2b2b" stroke-width=".6pt"/><path d="M497.045 245.552c2.918-.782 15.634 7.296 18.5 9.328 2.866 2.033 8.86.73 8.86.73s-2.763 1.667-4.482 2.084c-1.72.417 5.107.417 5.107.417s-16.26 4.483-32.78-4.22c-1.51-6.775 3.544-8.286 4.795-8.338z" fill="#2b2b2b" fill-rule="evenodd" stroke="#2b2b2b" stroke-width=".75" stroke-linejoin="round"/><path d="M515.65 187.03s-2.137-.418-3.232-1.668c-1.094-1.25-2.657-4.326-4.273-5.628-1.615-1.303-9.693-5.733-12.61-5.42-2.92.312-3.805-.313-4.17-.678-.365-.365-1.564.157-1.355 1.668.208 1.51-2.24 4.846-1.355 6.41.886 1.563 5.055 7.92 5.89 8.13.833.208.31 3.7.31 3.7s3.7 3.75 4.64 3.96c.937.208 1.875.886 1.77 1.772-.103.886-4.064 5.732-4.064 5.732s-4.272 2.24-4.324 3.492c-.052 1.25 1.042 3.856 4.43 4.69 3.387.834 12.507.156 12.976-.625.47-.782 1.198-5.472.886-5.94-.313-.47-2.554-1.877-3.7-1.67-1.147.21-2.19 1.148-2.085 1.356.104.21-1.615 1.095-1.615.262 0-.834 3.387-4.586 3.7-4.274.312.313 5.107.782 5.993 3.18.887 2.396.887 4.116 3.388 3.856 2.5-.26 5.993-2.554 6.306-7.348.312-4.795-2.814-8.026-3.596-8.495-.782-.468-3.387-2.03-3.596-2.76-.208-.73-.73-3.127-.313-3.7z" fill="#2b2b2b" fill-rule="evenodd" stroke="#2b2b2b" stroke-width=".6pt"/><path d="M470.572 208.187s8.077-2.084 10.162-2.032c2.084.052 9.953 3.7 12.246 5.94 2.293 2.24 6.983 7.557 10.058 7.088 3.075-.47 3.96-1.094 3.96-1.094l-1.198 2.29s-2.5.68-3.752.366c-1.25-.312-3.7-1.094-6.15-3.49-2.45-2.4-10.005-8.86-16.415-8.39-6.41.468-10.11 6.773-10.11 6.773s.052-3.076.313-3.753c.26-.677-1.355 1.46-1.355 1.46l2.242-5.16z" fill="#2b2b2b" fill-rule="evenodd" stroke="#2b2b2b" stroke-width=".6pt"/><path d="M500.328 214.44c.052.053 2.033.574 5.368.574 3.335 0 5.107-1.46 5.107-1.46l-.21-1.302.523-1.824s2.553 2.606 2.5 3.127c-.05.52-1.04.73-1.04.73l-.366-1.25-.886 1.093s-4.846 3.856-7.504 3.283c-2.658-.572-5.107-2.292-4.43-2.71.678-.416 1.042-.26.938-.26zM488.55 221.267s-2.918-.052-4.22.574c-1.303.626-1.772 1.408-2.658 1.303-.886-.104-1.564-1.25-1.303-1.72.364-.73 2.084-1.667 5.367-1.406 3.283.26 2.814 1.25 2.814 1.25zM498.765 229.188c0-.156-.21-4.273-1.824-5.94-1.615-1.668-3.595-1.668-4.48-1.46-.887.21 3.282 2.033 3.7 3.23.416 1.2 1.77 4.535 1.406 5.37-.365.833-1.042-2.346-3.596-3.232-2.553-.886-6.097-.417-5.367.73.73 1.146 3.596.104 5.055 2.553 1.46 2.45 2.553 5.054 2.553 5.054l.47-1.772 1.303-.364.156-3.388.625-.782z" fill="#2b2b2b" fill-rule="evenodd" stroke="#2b2b2b" stroke-width=".6pt"/><path d="M496.68 242.53l-2.657-5.316s-.834-3.387-3.075-4.325c-2.24-.94-5.21-.783-5.263.363-.053 1.147 4.794 2.606 5.107 3.23.312.627.156 1.67-.26 1.72-.418.053-2.554-.78-3.65-.52-1.093.26-1.72 1.668-3.334 1.25-1.616-.416-2.97-5.576-2.345-6.097.625-.52-1.2.938-1.564-.417-.365-1.355.52-5.577-.105-6.098-.625-.52-3.648-2.345-3.7-2.71-.052-.364.157-20.74 17.197-3.856-7.295-8.65-10.162-7.713-11.516-7.765-.99 0-7.61.575-9.277 9.017-1.668 8.442-3.648 3.18-3.648 3.18s-.365 3.647 1.407 4.69c1.77 1.04-.835 4.064-.835 4.064s-3.18-7.764-2.71-11.152c-.625 2.71-.573 9.433 3.44 16.78 4.69 4.95 9.12 9.537 20.897 14.697 6.2-9.485 5.888-10.63 5.888-10.736z" fill="#2b2b2b" fill-rule="evenodd" stroke="#2b2b2b" stroke-width=".75" stroke-linejoin="round"/><path d="M485.528 242.58s3.44.418 4.378 2.19c.938 1.772 1.355 4.482 1.355 4.482.574-1.147.834-2.137 1.98-2.97 1.147-.834 1.98-.94 1.93-1.564-.053-.625-3.65-4.43-5.473-4.638-1.824-.208-5.003 1.98-5.003 1.98s-.573.834.834.52z" fill="#8a9396" fill-rule="evenodd" stroke="#2b2b2b" stroke-width=".75" stroke-linejoin="round"/><path d="M493.384 251.544s8.914 4.064 23.595 4.326" fill="none" stroke="#8a9396" stroke-width=".75" stroke-linecap="round"/><path d="M523.143 210.172s-.767 7.478-6.52 22.243" fill="none" stroke="#2b2b2b" stroke-width=".75" stroke-linecap="round"/><path d="M521.992 214.774s-1.726 5.37-6.52 9.396" fill="none" stroke="#2b2b2b" stroke-width=".6pt"/></svg>