<svg version="1" xmlns="http://www.w3.org/2000/svg" width="820" height="440"><path fill="#c62139" d="M0 0h820v440H0z"/><path fill="#00297b" d="M20 20h780v400H20z"/><path fill="#c62139" d="M410.258 100S330 154.71 330 219.222c0 64.52 80.258 120.78 80.258 120.78S490 288.38 490 219.22C490 150.066 410.26 100 410.26 100"/><path fill="#66afeb" d="M477.923 240.562c1.76-6.864 2.76-13.99 2.76-21.34 0-61.93-70.425-107.863-70.425-107.863s-71.455 47.485-71.455 107.862c0 7.25 1.018 14.316 2.813 21.16l136.307.18"/><path fill="#007bde" d="M409.673 328.126s55.236-36.58 68.226-87.745H341.562c13.19 50.18 68.11 87.746 68.11 87.746"/><path fill="#9c8431" d="M480.338 226.452c-12.083 8.608-80.088 4.474-80.088 4.474l-3.8 9.636h81.467c.34-1.32.65-2.643.93-3.98l1.49-10.13"/><g fill="#fff100"><path d="M406.076 287.355c-1.035-7.21-32.84-14.93-49.72-14.295 5.27 8.267 11.24 15.833 17.247 22.558 8.575-9.202 32.812-5.884 32.473-8.263"/><path d="M470.454 260.55c-4.042.144-11.376.79-16.4 3.406-7.247 3.783-23.472 7.917-30.724 5.847-7.247-2.064-18.64 4.475-17.254 5.847 2.298 2.297 18.98-.34 18.98 14.456 0 12.386-19.325 6.885-26.923 12.045-4.58 3.103-7.773 6.473-9.586 8.64 11.86 10.978 21.15 17.336 21.15 17.336s22.02-14.585 41.52-38.2l9.17-12.17c3.697-5.414 7.125-11.158 10.067-17.206"/></g><g fill="#009270"><path d="M405.86 165.167s-11.008-6.45-26.022-3.36c-15.014 3.096-18.254 12.51-18.254 12.51l5.048-2.317.128 2.064 4.533-2.838.13 2.064 3.882-3.608.638 2.318 3.497-3.097.264 1.677 5.69-3.612v2.322l4.533-2.07-.386 2.2 8.546-1.544s-20.196 6.704-22.78 22.832l3.877-4.635.392 2.183 2.456-4.897.65 1.934 2.2-4.516.643 2.705 3.363-4.903.263 2.843 3.877-5.29v2.57l4.147-4.515-.13 3.365s4.014-3.365 5.3-3.365l-4.784 6.198 1.556.516s-3.37 2.71-3.626 3.226c-.258.51 2.205 0 2.205 0s-2.983 3.09-3.112 4c-.13.908 1.942 0 1.942 0s-2.72 3.478-3.106 4.778c-.393 1.29 1.42.253 1.42.253s-1.678 4.128-1.813 5.29c-.128 1.15 1.942-.264 1.942-.264l1.17 7.096 2.07-8.505 1.292 1.935v-6.07l1.164 1.028-.13-3.99 1.55 1.544-.77-4.903 1.678 1.926-.258-4.118 1.68 1.682v-5.424l1.555 1.41.258-3.727 1.813.897s.258-4.516 2.335-4.387c2.064.12 4.655 2.317 3.62 3.344l1.813-.5-.386 4.37 1.68-1.026-.258 3.225 1.42-.645-.514 4.124 1.685-1.017.122 5.017 1.936-1.41-.128 5.925 1.942-1.538v4.897l1.813-1.28 1.947 4.77-.392-7.097 1.428 1.156-2.597-5.027 1.947-.264-2.076-3.36 1.942.145-2.844-3.36 1.936-.38-4.275-3.103 2.333-.898-4.404-2.844 1.685-.646-3.1-3.225 3.235 1.29 1.03-2.064 3.883 3.102v-3.1l3.363 4.644.393-2.844 2.59 3.618.516-1.672 1.812 3.607.9-2.7 1.814 3.872.515-2.72 1.685 4.263 1.556-1.683.78 4.392 1.543-1.683 1.42 3.87 1.814-1.42 1.556 4.393s4.27-23.487-32.36-23.88l-10.874-2.053"/><path d="M389.032 144.26l2.065 2.57-1.035.785 3.497 1.935-.778 1.414 3.497 1.29-1.3 1.038 3.112 1.795-2.07.656 3.75 1.8-.516 1.673 3.235.78-1.42 1.155 3.748 2.98 4.276 2.962 2.977-1.027-1.17-5.688s-12.293-16.772-21.868-16.127"/><path d="M400.29 128.003l1.43 3.345-1.95.392 4.405 4.386-3.498.13 4.276 3.35-2.076.654 3.89 3.87-2.077 1.028 4.012 4-2.714 1.027 4.533 4.134-2.59.133 2.714 3.473-2.457.78s2.977 5.542 2.843 7.87l5.047.252s.778-14.966.135-16.9l-1.3.902.388-5.42-1.942 1.167-.38-6.45-1.948 2.058-.51-6.322-1.426 2.2-1.427-6.2-1.55 1.936-1.427-3.996-1.164 1.543-3.235-3.354"/><path d="M413.364 165.678c1.427-9.032 10.878-22.192 28.612-22.708l-4.018 2.064 2.333 1.032-4.66 1.683 2.328 1.408-5.562.392 2.842 1.935-4.135.516-3.24.646 2.328 2.19-4.66.51 2.982 1.553s-7.38 2.58-7.896 3.36c0 0 24.858-6.323 30.94 5.407l-4.796-2.064.392 2.198-3.363-2.45.514 1.806-3.492-1.806.515 2.188-3.627-2.064.778 1.946-4.66-2.2.777 2.065-4.013-1.29.392 2.188-4.018-.253.392 2.58-12.43-.262-1.554-2.58"/></g><g fill="#7b4800"><path d="M409.568 173.46l2.59-.17c-1.21 24.607-.075 59.887 3.276 72.95 5.69 22.185 22.284 30.732 26.232 32.858 2.24 1.197 1.38 6.188-3.112 5.847-4.48-.346-20.137-11.875-25.54-32.518-7.242-27.7-3.727-76.082-3.446-78.967"/><circle cx="413.755" cy="168.129" r="2.926"/><circle cx="409.094" cy="167.092" r="2.739"/><circle cx="409.094" cy="171.871" r="2.558"/><circle cx="412.586" cy="170.58" r="2.739"/></g><g fill="#7b4800"><path fill="#000" d="M384.64 257.164h2.924v-31.48h-2.924v31.48z"/><path d="M394.138 263.1s-1.2.21-3.105.453v-2.456h-1.942v2.668c-1.988.2-4.397.366-6.924.366-2.685 0-5.393-.195-7.627-.422v-2.544h-2.142v2.302c-1.848-.233-3.04-.434-3.04-.434s-.586 3.226 12.62 3.226c13.202 0 12.166-3.16 12.166-3.16"/><path d="M381.604 257.07c10.704 0 19.682-1.712 19.682-1.712s1.374 6.874-19.682 6.874c-21.055 0-19.33-5.842-19.33-5.842s8.633.68 19.33.68"/><path fill="#fff" d="M372.627 227.48s16.57 6.197 23.132 27.878c0 0-15.19-3.09-23.824.346h-4.83c0-.01 8.287-12.046 5.52-28.225"/></g><g fill="#c62139"><path d="M374.972 211.16h-3.07c-.24-1.32-.82-2.25-1.738-2.76-.514-.295-1.082-.434-1.708-.434-1.21 0-2.193.573-2.965 1.754-.777 1.167-1.163 2.942-1.163 5.29 0 2.38.42 4.052 1.258 5.053.836.975 1.79 1.47 2.86 1.47 1.047 0 1.9-.386 2.573-1.17.667-.775 1.076-1.802 1.24-3.077h-3.462v-3.215h6.223v10.354h-2.066l-.316-2.41c-.602.918-1.14 1.563-1.62 1.945-.825.655-1.836.98-3.04.98-1.978 0-3.604-.888-4.862-2.663-1.316-1.776-1.977-4.212-1.977-7.298 0-3.123.666-5.636 2-7.52 1.322-1.884 3.082-2.823 5.275-2.823 1.895 0 3.422.624 4.574 1.868 1.146 1.24 1.812 2.792 1.982 4.655M389.588 216.997v-11.865h3.17v11.865c0 1.32.13 2.286.37 2.9.38 1.08 1.198 1.626 2.473 1.626 1.258 0 2.083-.547 2.463-1.625.246-.615.357-1.58.357-2.9V205.13h3.176v11.865c0 2.044-.246 3.64-.737 4.79-.925 2.084-2.674 3.132-5.265 3.132-2.585 0-4.346-1.038-5.27-3.134-.49-1.14-.737-2.745-.737-4.79M423.125 205.125l-5.344 19.313h3.283l1.03-3.97h5.5l.97 3.97h3.375l-5.313-19.313h-3.5zm1.72 4.406l1.874 7.595h-3.783l1.907-7.594zM451.656 220.3l2.696-15.168h4.486v19.292h-2.907v-13.042c0-.382.007-.908.013-1.584.006-.676.012-1.198.012-1.56l-2.83 16.186h-3.03l-2.808-16.185c0 .36.006.882.012 1.558.004.676.01 1.202.01 1.584v13.042h-2.907v-19.292h4.54l2.713 15.168"/></g></svg>