<svg version="1" xmlns="http://www.w3.org/2000/svg" xmlns:xlink="http://www.w3.org/1999/xlink" width="900" height="600"><path fill="#de2910" d="M0 0h900v600H0z"/><g id="a"><path d="M449.964 299.913c-105.263-44.486-58.602-181.58 42.07-174.69-20.366 10.467-23.318 29.997-11.687 48.09 13.024 20.256-1.2 52.848-18.806 60.767-28.934 13.025-34.727 47.75-11.576 65.833z" fill="#fff"/><path d="M444.272 200.92l-5.92 9.294-2.144-10.815-10.68-2.76 9.626-5.39-.67-11 8.084 7.49 10.256-4.042-4.61 10.01 7 8.505zM450.56 298.76c-12.73-6.535-22.996-20.156-27.468-36.432-5.115-18.67-2.173-38.743 8.083-55.038l-2.208-1.394c-10.64 16.93-13.693 37.743-8.386 57.12 4.73 17.22 15.215 31.097 28.788 38.064z" fill="#de2910"/></g><use xlink:href="#a" transform="rotate(72 450 300)"/><use xlink:href="#a" transform="rotate(144 450 300)"/><use xlink:href="#a" transform="rotate(216 450 300)"/><use xlink:href="#a" transform="rotate(288 450 300)"/></svg>