<svg xmlns="http://www.w3.org/2000/svg" xmlns:xlink="http://www.w3.org/1999/xlink" width="500" height="300"><title>Flag of Haiti</title><path fill="#d21034" d="M0 0h500v300H0z"/><path fill="#00209f" d="M0 0h500v150H0z"/><g fill="#f1b517" stroke="#000" stroke-width=".183"><path fill="#fff" stroke="none" d="M202.68 112.284h94.64v75.34h-94.64z"/><path fill="#016a16" stroke="#016a16" d="M269.047 166.766l-19.314.56-19.227.22s-9.878 3.653-13.916 4.473c-4.026.816-3.503 2.14-6.618 2.835-2.496.558-2.784.734-4.248.83-.886.058-1.977.74-3.045 1.49v10.45h94.64v-9.94c-1.025-.558-2.003-.943-3.003-1.283-1.39-.472-2.327-.99-4.823-1.547-3.115-.696-2.592-2.02-6.618-2.836-4.038-.82-13.83-5.254-13.83-5.254z"/><g id="a"><path d="M244.53 143.512l1.396-.033 2.555 10.748-.544 3.386-3.407-14.102z"/><path fill="#fff" d="M243.064 136.346l.954 8.284 1.022-.066-1.976-8.218z"/><path d="M245.722 154.59l-4.293-11.54 1.6-.098 5.01 14.102-2.318-2.465z"/><path fill="#fff" d="M239.42 136.477l1.77 8.02h1.432l-3.203-8.02z"/><path d="M241.906 150.546l-2.52-5.424 1.09-.23 4.6 9.007-3.17-3.354z"/><path fill="#fff" d="M236.08 138.778l2.794 7.626h1.43l-4.224-7.626z"/><g><path fill="#0a328c" d="M242.25 151.364l-11.437-12.484c-3.57 2.828-2.908 8.02-2.908 8.02l12.957 10.167 1.387-5.703z"/><path fill="#d20014" d="M248.86 158.235l-8.482-8.594c-3.587.126-.74 5.48-.56 6.153l9.043 7.734v-5.292z"/><path d="M248.14 156.757l-17.54-18.78-.685.483 18.56 20.622-.336-2.325zM229.586 136.772l-.385-.446.04-.89-3.62-2.304 1.617 3.64 1.232.223.384.446.732-.668z"/><path d="M227.738 138.11c.616-.743 1.348-1.486 2.657-2.192l1 1.45-2.155 1.82-1.502-1.078z"/><path fill="#0a328c" stroke="#0a328c" d="M225.81 141.278l.59 1.026c.363-.135 4.03-3.457 4.03-3.457l2.632-.08.756-.838c-1.932-2.08-3.752.296-3.752.296l-4.255 3.052z"/><path fill="#d20014" stroke="#d20014" d="M227.91 143.007c.14-.918 1.877-3.214 2.13-3.295 1.302.39 2.514 1.14 3.834-1.837-1.148 1.46-3.47-.027-3.47-.027l-1.01.838.03.405-3.053 2.837 1.54 1.08z"/></g><g><path fill="#0a328c" d="M237.252 154.672l-14.367-11.41c-2.46 2.502-.415 10.23-.415 10.23l14.043 7.608.74-6.428z"/><path fill="#d20014" d="M249.166 163.917l-11.818-9.467c-4.036.566-.864 6.506-.623 7.16l12.48 6.77-.04-4.463z"/><path d="M248.697 162.005l-25.554-19.182-.587.59 26.837 20.956-.696-2.365zM221.928 141.807l-.46-.374-.122-.885-3.98-1.662 2.25 3.314 1.253.014.458.374.6-.78z"/><path d="M220.35 143.433c.472-.835 1.06-1.69 2.22-2.603l1.247 1.26-1.795 2.152-1.673-.81z"/><path fill="#0a328c" stroke="#0a328c" d="M218.925 146.64l.16 1.06c.337-.187 3.56-3.725 3.56-3.725l2.586-.477.528-.833c-1.797-2.114-3.713.698-3.713.698l-3.12 3.278z"/><path fill="#d20014" stroke="#d20014" d="M220.97 148.545c-.122-.982 1.22-3.863 1.456-3.98 1.547.46 2.894 1.152 3.462-2.07-.897 1.614-3.46.363-3.46.363l-.86.98.12.53-2.61 3.37 1.893.807z"/></g><g><path fill="#0a328c" d="M236.224 161.65c-.19-.045-18.517-10.44-18.517-10.44-1.334 2.25-.128 5.52.457 6.028.034 1.5-.602 2.306.707 5.44.387 2.035 1.33 3.912 2.7 5.026 1.672 6.417 8.223 6.848 10.747 1.624l3.907-7.677z"/><path fill="#d20014" d="M248.352 168.512l-12.548-7.355c-4.036.567.085 8.056.326 8.71l12.116 4.304.106-5.658z"/><path d="M246.243 165.846l-28.35-15.09-.484.673 29.904 16.646-1.07-2.23zM216.528 149.937l-.514-.3-.265-.856-4.2-1.04 2.757 2.935 1.24-.177.515.3.466-.86z"/><path d="M215.232 151.782c.332-.896.773-1.828 1.772-2.907l1.436 1.056-1.425 2.4-1.783-.548z"/><path fill="#0a328c" stroke="#0a328c" d="M214.1 155.18l.593 1.168c.307-.232 3.004-4.578 3.004-4.578l2.492-.82.468-1.014c-2.002-1.85-3.498 1.342-3.498 1.342l-3.06 3.903z"/><path fill="#d20014" stroke="#d20014" d="M216.772 156.836c-.2-1 .484-4.197.7-4.345 1.56.466 2.863.598 3.223-2.62-.907 1.528-3.328.952-3.328.952l-.71 1.085.15.38-2.06 3.95 2.025.6z"/></g></g><use xlink:href="#a" transform="matrix(-1 0 0 1 499.9 0)"/><path fill="#016a16" stroke="#016a16" d="M248.757 125.603l-.465 9.07h2.9l-.425-8.992 3.023-.423-.335-3.582-7.51.29.04 3.253 2.772.385z"/><g id="b" fill="#016a16"><path d="M249.817 121.898c-7.764-7.77-13.878-3.98-15.334-2.902.963.187 1.826-.412 2.273-.48-.28.353-.865 1.23-.865 1.23s2.4-1.135 2.67-1.03c-.347.275-.728.935-.728.935.178.07 1.528-1.056 1.795-1.076-.41.466-.54 1.528-.54 1.528l1.17-.545c.305.216-.084.63.18.61 1.945-.16 4.678 1.776 5.054 2.37"/><path d="M247.895 123.32c-.81-1.853-15.588-5.004-18.56.245 1.164.293 2.276-.976 2.276-.976l-.1 1.17 1.972-1.512-.708 1.56 1.568-1.268-.05 1.27 1.92-2.1-.252 1.22 1.72-.73-.203 1.023"/><path d="M247.238 123.614c-3.793-2.537-9.66-.83-9.66-.83-3.74 2.1-5.736 1.72-6.22 5.61.355-.145 1.366-1.365 1.366-1.365l.76 1.512.25-2.147.608 1.66.91-2.733.203 1.854 1.416-1.854.658.536.607-1.415.556.927s.962-.585 1.52-.244l1.06-1.22.253.88.91-1.074.355.78.91-.83-.05.586 3.135.05"/><path d="M246.38 124.053c-2.643-.05-10.226 2.812-12.188 5.806.78-.437 1.263-.636 1.263-.636l.387 1.203.473-1.203.1.927c.29-.723.618-.805 1.164-.048l.2-1.122.305 1.073.505-1.17s.318 1.27.506 1.22c0 0 .838-2.195 1.214-2.294l.1 1.365.506-1.366.456 1.024.1-1.464.506 1.122s.266-1.103.658-1.317l.758.683 3.378-2.427"/><path d="M246.888 124.678c-3.52 1.35-6.67 6.18-6.43 8.226 1.565-1.94 1.23-1.674 1.928.56 0 0 .264-1.955.53-2.187l.46 1.446.17-1.892.47.023-.12-1.187.698.535c-.163-.677-.338-.906.386-1.488 0 0-.917.117-.193-1.535l.675.65s-.12-.72.12-1l2.485-.86"/><path d="M247.23 125.04l-1.33 2.534.68.197-1.534 1.153 1.296-.132s-1.978.725-2.217 2.666l2.013-.888s-1.706 1.744-1.945 2.797l1.16-1.02s-1.125 1.217-.955 3.06l.853-.954c-.204 2.238-.136 2.436.888 4.147 0 0-.273-2.633.034-2.962l2.25 2.337-1.26-3.324s1.397 2.106 2.25 1.91l-1.774-2.7 1.74 1.415-1.978-2.96 1.84.558s-1.33-1.677-1.227-2.73l1.262 1.382s-.477-1.58-.34-2.04l.647.132-1.262-1.448.853-.165-.102-.953.615-.197-.034-1.053M248.56 125.797c-2.184 2.96-1.058 7.535-2.354 9.87"/></g><use xlink:href="#b" transform="matrix(-1 0 0 1 499.9 0)"/><path d="M250.945 166.535s1.19-9.945 1.186-14.225c0-3.37-.813-10.835-.813-10.835H247.9s-.52 7.43-.442 10.79c.1 4.28 1.186 14.27 1.186 14.27h2.3z"/><path d="M247.674 141.953h3.96l-.465-2.666h-2.87l-.626 2.666z"/><path d="M247.927 139.816h3.54l-.668-2.666h-2.18l-.693 2.666z"/><path d="M248.155 137.655h2.95l-.5-2.666h-1.876l-.575 2.665z"/><path d="M250.71 134.673h-2.064l-.21.964h2.442l-.17-.964zM251.132 164.367h-2.62M251.275 162.42h-2.94M251.664 160.444h-3.727M251.856 158.29h-3.9M251.883 156.14h-4.102M252.043 154.17h-4.45M252.053 152.38h-4.65M252.025 150.22h-4.65M251.87 148.084h-4.495M251.664 145.914H247.6M251.467 143.955h-3.672"/><g><path fill="#0a328c" stroke="#0a328c" d="M249.91 119.044c-.69-.324-2.246-1.313-1.784-1.903l.713-1.213c1.01-2.277-.02-1.395-.127-2.106-.103-.68 3.865-.148 3.924 1.398.016.426-.295.176-.252 2.61l-.755 1.46c-.565.052-1.234-.015-1.72-.244z"/><path d="M250.392 124.934l-.986-.83.273-7.105.964.282-.252 7.652z"/><path fill="#d20014" stroke="#d20014" d="M251.672 119.246c.62-.362 1.024-1.443.65-2.085-1.016-1.286-1.673-.755-3.378-1.335-.34.362-1.055 1.06-.902 1.58 2.242 1.055 1.372.155 2.114.287.4.07.658.545 1.516 1.554z"/></g><g><use xlink:href="#c" transform="matrix(1 0 0 -1 0 320.4)"/><path fill="#016a16" stroke="#fff" stroke-width=".181" stroke-linecap="round" d="M238.358 161.75c0 1.3-.815 2.353-1.818 2.353s-1.82-1.054-1.82-2.353v-1.276h3.638v1.276z"/><ellipse fill="#fff" cx="236.539" cy="160.063" rx="1.806" ry=".898" stroke="none"/><path fill="#016a16" stroke="#f1b517" d="M236.126 161.075l-.31-3.297h1.382l-.226 3.297h-.846z"/><path id="c" fill="#016a16" stroke="#fff" stroke-width=".237" stroke-linecap="round" d="M238.538 160.118c-.265.493-1.06.852-2 .852-.937 0-1.727-.36-1.992-.852-.06.114-.1.233-.1.36 0 .668.938 1.21 2.093 1.21s2.09-.542 2.09-1.21c0-.127-.03-.246-.092-.36z"/><g id="d"><path d="M246.035 172.786l-7.06-2.19-3.076-5.254-10.894-.535.378 3.94 9.28 1.777.882 1.58 10.666 2.97-.177-2.288z"/><path fill="#503200" d="M238.662 174.254l-11.149-16.398-.547.41 11.06 16.468.636-.48z"/><path fill="#fff" d="M228.55 158.5l-1.19-1.992c-.222-.368-.56-.49-1.058-.228-.484.255-.437.76-.24 1.123l1.1 1.852 1.39-.755z"/><path d="M239.986 164.127l-22.496-2.286-.547 3.272 22.387 2.25.656-3.235z"/><path d="M217.09 160.997l-.584 4.538h.948l.656-4.15-1.02-.388zM220.844 161.735l-.255 4.08.582.07.474-3.622-.802-.528zM236.085 163.494l-.547 3.834 1.094-.035.437-3.8h-.985zM239.436 163.6l-.78 4.433 1.24.18.353-2.332c.1.47.53.825 1.045.825.59 0 1.07-.464 1.07-1.032s-.48-1.026-1.07-1.026c-.41 0-.78.24-.94.687l.23-1.662-1.15-.073zM231.317 164.32l-3.094 3.48.36.424 3.972-2.71-1.238-1.195zM224.124 173l3.094-3.482-.36-.423-3.972 2.71 1.238 1.195zM232.22 172.13l-3.764-2.91-.387.272 2.964 3.756 1.186-1.12zM222.938 165.413l3.816 2.81.464-.348-2.99-3.755-1.29 1.293zM227.09 163.094l.365 4.573.513-.022 1.207-4.452-2.085-.1zM228.34 174.19l-.364-4.574-.565-.053-.69 4.626h1.62zM233.4 168.026l-4.794.51-.073.457 4.85.634.018-1.6zM221.993 169.61l4.68-.74.1-.365-4.842-.54.063 1.644z"/><ellipse cx="227.693" cy="168.548" rx="1.27" ry="1.225"/><path fill-rule="evenodd" stroke-linecap="round" d="M234.438 168.548c0 3.592-3.022 6.507-6.745 6.507-3.723 0-6.745-2.915-6.745-6.507 0-3.592 3.022-6.507 6.745-6.507 3.723 0 6.745 2.916 6.745 6.508zm-1.347 0c0 2.874-2.418 5.207-5.397 5.207s-5.398-2.333-5.398-5.207c0-2.874 2.42-5.207 5.398-5.207s5.398 2.334 5.398 5.208z"/><path d="M223.48 165.264l-1.057-.796M231.034 164.493l.902-.92M232.967 172.7l-1.11-.87M223.48 173.696l.954-1.02"/><g><path d="M246.196 162.122l1.155 5.886-.94.497-1.015-6.3.8-.083z"/><path fill="#fff" d="M245.592 161.364c-.535-.224-1.232.155-2.374-1.292-1.878 1.723-.107 1.98.18 3.686.53.218.857-1.323 2.3-1.48.18-.02 2.3-.204 2.3-.204l-.533-.726s-1.474.04-1.873.016z"/><path fill="#fff" d="M246.36 162.518l-.215-1.756c-.232-.62-1-.087-1 .275l.197 1.62 1.017-.14z"/></g><path fill-rule="evenodd" d="M240.765 167.372l.02 1.637c-.537.182-.455.584-.438 1.167l.02 4.772c-.19.315-.78.33-1.055.578-.277.248-.242.73 1.02 1.047l.975.035c1.486-.325 1.793-.818 1.048-1.095-.397-.148-.92-.324-1.117-.557l.033-1.137.965.036c.26 0 .753-.652.77-1.185l.005-2.47c-.035-1.4-1.085-1.558-1.38-1.54l.02-1.29-.885.002zm1.63 2.73c.018-.4-.555-.757-.786-.767s-.735.467-.752.867v1c.034.367.327 1.61.915 1.7.28.044.64-.4.64-.766l-.017-2.034z"/><g fill="#fff"><path d="M234.275 172.328c-.636-.257-.63 1.172-.63 1.172l1.002.01c.44.2.792.843.512 1.16-.232.26-2.178-.442-2.31-.038.345 1.94 2.918 2.688 3.85 1.84.91-.832 1.14-3.05-1.818-3.63l-.607-.514zM234.87 172.856l-.292.64"/></g><g><path d="M214.943 173.055l-.963-4.05M216.112 172.822l-1.48-3.153M218.658 171.993l-3.337-1.792M220.103 171.628l-6.192-2.688"/><path fill="#d20014" stroke="#d20014" d="M210.215 166.013s-2.254-.036-2.656.122c-.163.064.566.825.415 1.115-.563 1.083-4.394.934-4.697.698-.52-.405 3.568-.753 3.595-1.03.03-.315-.605-1.145-.506-1.654.128-.66 1.788-.907 1.788-.907l2.06 1.656z"/><path fill="#503200" d="M213.233 168.05l-5.102-4.222s-.224-.238-.412-.033c-.184.2.07.43.07.43l5.262 4.35.183-.525z"/><path d="M218.146 172.217c-.09-.087-4.155-3.608-4.155-3.608l-.27-1.03s-.628.426-.858.646-.587.82-.587.82l1.138.05 3.595 3.295 1.138-.173z"/></g><g><ellipse cx="232.534" cy="177.056" rx=".74" ry=".715"/><ellipse cx="230.641" cy="175.716" rx=".74" ry=".715"/><ellipse cx="228.091" cy="176.593" rx=".74" ry=".715"/><ellipse cx="224.153" cy="177.445" rx=".74" ry=".715"/><ellipse cx="222.487" cy="177.64" rx=".74" ry=".715"/><ellipse cx="220.846" cy="177.64" rx=".74" ry=".715"/><ellipse cx="219.18" cy="177.591" rx=".74" ry=".715"/><ellipse cx="219.988" cy="176.325" rx=".74" ry=".715"/><ellipse cx="221.604" cy="176.398" rx=".74" ry=".715"/><ellipse cx="223.144" cy="176.203" rx=".74" ry=".715"/><ellipse cx="222.361" cy="174.961" rx=".74" ry=".715"/><ellipse cx="220.846" cy="174.937" rx=".74" ry=".715"/></g><path fill-rule="evenodd" d="M236.47 177.99c0-.315-.77-.18-.77-.55 0-.41 1.174-.11 1.336.253.66-.596.944-.16 1.348.02.575-.855 1.287-.823 1.98-.197.402-.443 1.41-.297 1.758.197.664-.66 1.255-.497 1.715-.02.186-.346.458-.27.654-.02.355-.628 1.243-.44 1.617-.024.332-.367.673-.08 1.114.19.298-.28.78-.228.78.05 0 .288-.63.187-.63.473 0 .256.46.127.46.45 0 .255-.68.35-.786-.056-.23.44-1.062.27-1.144-.138-.276.334-.897.435-1.246-.06-.286.234-.63.267-.787.03-.517.557-1.388.443-1.688-.17l-.295.013c-.508.69-1.302.37-1.52-.01-.853.615-1.362.42-1.838.02-.548.666-1.38.62-1.573 0-.368.267-1.137.33-1.137.017 0-.3.653-.192.653-.47zm1.655.15c0 .144-.195.26-.436.26s-.436-.116-.436-.26.195-.26.435-.26.435.118.435.26zm1.82-.217c0 .172-.235.312-.524.312-.288 0-.523-.14-.523-.312 0-.173.235-.312.524-.312.29 0 .525.14.525.313zm3.575.197c0 .175-.212.316-.474.316s-.474-.14-.474-.316c0-.174.212-.316.474-.316s.474.142.474.316zm-1.904-.083c0 .22-.207.4-.463.4s-.464-.18-.464-.4.207-.4.463-.4.463.18.463.4zm4.06.01c0 .198-.186.358-.414.358s-.415-.16-.415-.358c0-.197.186-.357.415-.357s.414.16.414.357zm-1.244.083c0 .128-.12.23-.267.23-.148 0-.268-.102-.268-.23s.12-.23.268-.23c.147 0 .267.103.267.23zm2.422.094c0 .183-.135.33-.302.33s-.3-.147-.3-.33c0-.183.134-.332.3-.332s.302.15.302.332z"/></g><use xlink:href="#d" transform="matrix(-1 0 0 1 499.9 0)"/><g stroke-width=".231"><path fill="#0a328c" stroke="#0a328c" d="M249.837 165.718c-2.512 0-4.55.944-4.55 2.102 0 .2.057.39.17.572.542.63 2.306 1.087 4.397 1.087 1.957 0 3.625-.403 4.277-.97.165-.217.257-.447.257-.69 0-1.158-2.038-2.102-4.55-2.102z"/><path stroke-width=".187" d="M254.427 167.98v7.06c0 .827-2.048 1.498-4.572 1.498s-4.573-.67-4.573-1.5v-7.057c0 .83 2.05 1.5 4.573 1.5 2.524 0 4.572-.67 4.572-1.5z"/><path fill="#d20014" stroke="#d20014" stroke-width=".183" d="M245.282 167.982v1.082l2.22 6.845 1.772-5.265 1.946 5.465 1.425-5.16 1.783 3.47v-1.92l-1.656-3.363c-.186.05-.384.094-.593.134l-1.03 3.813-1.446-3.604c-.242-.004-.484-.01-.715-.024l-1.454 3.627-1.66-4.367c-.377-.217-.594-.466-.594-.734z"/><path fill="#0a328c" stroke="#0a328c" stroke-width=".187" d="M254.427 173.72v1.32c0 .826-2.048 1.498-4.572 1.498s-4.573-.672-4.573-1.5v-1.317c0 .83 2.05 1.5 4.573 1.5 2.524 0 4.572-.67 4.572-1.5z"/><path stroke-width=".187" d="M251.737 175.085c-.372.055-.77.097-1.185.118l.01 1.317c.418-.02.815-.062 1.187-.118l-.013-1.317zM246.868 174.855l-.012 1.312c.353.1.75.185 1.186.246v-1.317c-.43-.06-.824-.142-1.174-.24zM245.282 173.723v1.317c0 .246.185.474.506.68l.023-1.302c-.335-.21-.528-.443-.528-.695zM254.428 173.863l-.023.006c-.08.266-.38.515-.83.722l.005 1.312c.53-.245.848-.54.848-.863v-1.177z"/><path fill="none" stroke-width=".187" d="M254.427 168.027v7.012c0 .827-2.048 1.498-4.572 1.498s-4.573-.67-4.573-1.5v-7.01"/><path fill="#fff" stroke="#fff" stroke-width=".192" d="M253.392 167.52c0 .5-1.584.907-3.537.907-1.954 0-3.538-.406-3.538-.907s1.584-.907 3.538-.907c1.953 0 3.537.406 3.537.907z"/><path d="M248.698 168.19l.157 1.25c.307.022.626.038.953.04l.232-1.29h-1.342zM252.8 167.887l-.91.247.057 1.177c.31-.052.602-.116.866-.19l-.012-1.233zM247.397 165.98c-.26.075-.5.164-.72.262l.127.945.58-.185.013-1.023zM249.837 165.606c-.122 0-.24.007-.36.01l.197 1.184.605-.012.237-1.154c-.222-.015-.45-.028-.68-.028zM252.51 166.024l-.122 1.034.69.244.077-1.015c-.196-.096-.412-.185-.645-.263z"/><path stroke-width=".183" d="M245.993 168.8l.184-1.288-.935-.506.028 1.465.723.33zM254.396 168.522l.042-1.288-.876.262.834 1.026z"/></g><g><path d="M263.686 160.03c.83-.116 2.062 1.023 2.136 2.432.06 1.118-1.69 1.06-1.69 1.06-.09.458-1.055.88-1.84.916-.763.033.207-1.432.207-1.432-.476-1.26.147-2.748.147-2.748l1.04-.23z"/><path d="M262.5 162.948l.8-.03s.06.415.208.43c.157.018.326-.4.326-.4l1.217-.03"/><path fill="#d20014" stroke="#f1b517" d="M264.13 160.86c.68-.492.085-1.48-.385-1.49l-1.098.03c-.517.01-1.392.572-1.276 1.058.103.424.388.618.832.544.202-.033.626-.563.83-.572.276-.013.88.588 1.1.43z"/></g><path fill-rule="evenodd" d="M214.242 174.855c-.617.078-.73.788-.5 1.44-2.686.756-5.086 1.74-7.455 2.406-.095-.473 1.174-1.844 1.174-1.844.337.162.588.93.588.93.084-1.578 1.64-2.628 1.64-2.628-.925-.122-3.733.967-4.07 1.412 0 0 1.088-.12 1.256 0 0 0-2.14 2.312-2.237 3 .333.75 4.027 1.31 4.027 1.31-.058.196-1.087.932-1.087.932 1.47.322 3.685-.718 4.347-1.35 0 0-1.728-.144-3.074-1.235 0 0 .277.68.11 1.004 0 0-2.1-.604-2.318-.952.006-.03 4.966-1.315 7.368-2 .088.428.565 1.238 1.138 1.047.374-.125.256-.866.117-1.39.135.116.31.185.505.185.422 0 .767-.327.767-.735 0-.407-.345-.74-.767-.74-.338 0-.62.212-.72.505-.096-.453-.345-1.354-.808-1.295zm1.89 1.528c0 .19-.162.345-.36.345s-.357-.155-.357-.345.16-.345.358-.345.358.154.358.345z"/><g><path d="M293.068 177.884c.183-.367-.162-2.212-.162-2.212-.373.042-.882.68-.882.68.48-1.51-.865-4.036-.865-4.036.91.19 3.944 3.128 4.102 3.657 0 0-1.33-.474-1.53-.415.217 1.506 1.258 2.205 1.65 2.988 0 0-1.726.38-1.553 1.822l-1.128.02c-.39-.48.152-1.275.152-1.275l-7.74-3.24c-.498-.21-1.62-.72-1.45-1.32.168-.603 2.015.252 2.47.4l6.934 2.93z"/><path d="M285.635 176.54l.91-1.672c.326-.44-.346-.92-.823-.356l-1.02 1.527c-.454.836.5 1.066.933.5z"/></g></g><g><g fill="#fff"><path d="M231.367 180.366l-.063-1.825-2.207.123-.126 1.987 2.397-.284z"/><path d="M215.237 182.924l-2.95-1.655c12.168 1.114 14.653-3.13 17.593-3.357 1.808-.14 2.09 2.002-1.412.982l.905 2.24s-8.638 4.86-17.13 2.854l2.994-1.066zM268.25 180.366l.062-1.825 2.7.063.125 1.988-2.888-.224z"/><path d="M284.94 182.477l2.776-1.515c-13.94.415-10.766-2.29-17.74-3.048-1.802-.196-3.156 2.12 1.413.982l-.907 2.24 2.193.003c4.748 3.126 11.156 3.405 15.4 2.4l-3.137-1.063z"/><path d="M228.418 178.908v3.154s7.728 2.868 21.52 2.868c13.85 0 21.518-2.868 21.518-2.868v-3.154s-5.85 2.695-21.52 2.695c-15.61 0-21.518-2.695-21.518-2.695z"/></g><path fill="#000" d="M229.573 182.08l.682-2.31.317.088-.602 2.037 1.18.324-.08.27-1.497-.41zm2.236-1.015l.037-.454.102-.388.337.082-.102.39-.193.415-.183-.046zm3.325-.156l.322.062-.286 1.36c-.05.236-.117.418-.202.546s-.208.222-.37.28c-.165.06-.364.066-.6.02-.227-.045-.406-.12-.535-.224-.13-.105-.21-.235-.242-.39-.03-.157-.02-.36.032-.61l.287-1.36.322.065-.287 1.357c-.043.204-.055.358-.036.463s.07.192.155.264c.085.07.196.12.335.147.237.048.418.03.54-.055.123-.084.216-.273.278-.57l.287-1.356zm.363 2.51l.402-2.37.333.052.975 2.064.315-1.86.312.048-.402 2.37-.333-.052-.975-2.066-.315 1.862-.312-.05zm2.54.382l.343-2.378.327.044-.342 2.378-.326-.044zm.938-1.05c.047-.395.194-.693.44-.892.248-.2.546-.28.895-.242.23.025.428.1.6.226.17.125.292.287.366.486.074.2.097.418.07.656-.03.242-.106.453-.23.633-.124.18-.284.307-.482.385-.197.078-.403.105-.618.08-.232-.024-.434-.102-.604-.23-.17-.13-.292-.292-.364-.49-.073-.2-.096-.402-.07-.612zm.337.043c-.034.288.02.523.16.706.14.184.332.29.574.316.246.027.46-.034.638-.184s.286-.377.322-.684c.023-.195.01-.368-.04-.52-.052-.153-.138-.276-.26-.37-.122-.094-.264-.15-.427-.168-.232-.026-.44.03-.625.164-.185.135-.3.382-.342.74zm2.31 1.417l.2-2.394.338.027 1.145 1.982.16-1.88.314.026-.204 2.393-.337-.027-1.144-1.984-.16 1.88-.314-.024zm3.488.242l.11-2.4 1.677.072-.013.283-1.348-.058-.034.743 1.167.05-.014.282-1.167-.05-.05 1.09-.33-.013zm1.834.08l1.004-2.384.355.007.97 2.42-.375-.008-.275-.733-1.04-.02-.29.722-.35-.008zm.738-.974l.844.016-.247-.67c-.076-.203-.13-.37-.167-.5-.035.152-.083.304-.143.455l-.288.7zm1.914 1.01l.005-2.4h.33l-.005 2.4h-.33zm1.542-.006l-.03-2.118-.82.01-.005-.282 1.972-.027.004.283-.824.012.03 2.117-.328.004zm2.442-.058l-.116-2.398.33-.015.1 2.115 1.226-.055.014.283-1.554.07zm1.675-.073l.776-2.46.355-.025 1.193 2.325-.374.026-.343-.706-1.037.07-.22.745-.348.023zm.644-1.033l.84-.058-.308-.645c-.094-.196-.165-.358-.213-.485-.02.156-.054.312-.1.467l-.22.72zm2.92.758l-.273-2.386 1.67-.178.032.282-1.343.143.084.738 1.162-.124.033.282-1.16.123.123 1.084-.328.034zm1.825-1.37c-.058-.394.006-.718.193-.972.186-.253.453-.404.8-.452.228-.03.44-.007.64.073.197.08.358.207.482.38.123.175.203.38.238.62.035.24.017.463-.056.667s-.194.368-.365.49c-.17.124-.362.2-.576.23-.23.032-.446.006-.645-.076-.2-.083-.36-.212-.48-.386-.122-.174-.2-.365-.23-.574zm.337-.04c.043.285.156.5.34.643.184.144.396.198.637.165.245-.033.434-.145.568-.333.134-.188.18-.435.133-.74-.027-.195-.086-.36-.175-.494-.09-.135-.205-.233-.347-.295-.143-.06-.295-.08-.458-.058-.23.032-.418.135-.56.31-.145.177-.19.444-.138.802zm2.614.805l-.444-2.363 1.085-.19c.22-.038.39-.046.51-.023.122.022.227.08.315.177.088.095.144.208.17.338.03.168 0 .32-.09.453-.09.135-.25.24-.48.31.093.026.165.053.217.084.11.066.22.156.327.266l.547.57-.407.07-.417-.435c-.12-.124-.22-.22-.295-.283-.075-.065-.14-.108-.194-.13s-.107-.033-.16-.036c-.037 0-.098.007-.18.02l-.377.067.197 1.05-.324.056zm.076-1.377l.696-.122c.148-.026.262-.06.34-.105.077-.045.132-.104.163-.176.032-.073.04-.147.027-.223-.02-.11-.08-.196-.178-.253-.1-.057-.24-.07-.42-.038l-.775.135.147.78zm3.93-.262l.34.01c-.007.27-.083.49-.227.66-.144.173-.342.286-.595.34-.262.058-.487.053-.675-.015s-.347-.19-.478-.366c-.13-.176-.223-.376-.275-.6-.057-.244-.058-.467-.004-.67.054-.203.16-.37.316-.503s.34-.222.556-.27c.243-.052.46-.036.654.047.194.083.348.226.464.428l-.3.14c-.096-.157-.207-.264-.332-.318-.125-.055-.27-.064-.43-.03-.188.04-.334.12-.44.232-.104.113-.165.248-.182.404-.017.156-.007.312.03.466.045.2.116.367.21.502.096.136.215.227.36.273.143.046.29.052.438.02.18-.04.32-.122.422-.25.1-.126.15-.293.15-.5zm.916.653l-.67-2.312 1.734-.467.08.273-1.417.382.205.708 1.326-.357.078.272-1.326.357.228.787 1.472-.397.08.273-1.79.48z" stroke="none"/></g></g></svg>