<svg xmlns="http://www.w3.org/2000/svg" xmlns:xlink="http://www.w3.org/1999/xlink" width="750" height="500"><path fill="#fc0" d="M0 0h750v500H0z"/><path fill="#0768a9" d="M0 0h500v500H0z"/><path fill="#fff" d="M0 0h250v500H0z"/><g stroke="#000"><path fill="#fff" d="M389.166 193.178c.074-.076.126-.164.19-.245l.06.19c-.085.022-.174.022-.25.055zm-22.647-6.175c-.045.087-.105.163-.156.243-.012-.003-.017-.006-.026-.006.064-.078.11-.167.183-.238zm-5.727 6.1l.065-.199c.02 0 .035-.002.054-.003.067.095.13.19.22.278-.107-.044-.226-.049-.34-.075zm-41.228 84.983c-.006-.088-.02-.164-.02-.197 0-.036.02-.072.093-.22-.064.13-.04.276-.074.417zm27.101-83.311v-.002c.006.02.006.046.011.072 0-.025-.011-.047-.011-.07zm56.967-.002l.002.002c0 .025-.011.046-.014.07.006-.025.006-.051.011-.072zm55.47 78.262c2.062-2.195 3.1-5.078 3.1-7.962 0-2.882-1.038-5.762-3.096-7.954-.011-.006-2.861-1.26-2.861-1.26l-2.868 1.261c-1.489 1.576-1.492 4.074.006 5.67 1.16 1.236 1.16 3.329 0 4.564-.524.561-1.216.872-1.95.872-.233 0-.8-.247-.972-.969-.995-4.328-3.452-8.023-6.926-10.478-6.684-4.852-10.67-12.891-10.67-21.514l.088-13.426c0-6.573-4.207-12.31-10.229-13.965-.094-.025-4.277-.845-4.277-.845l-3.224 1.01s-.066.039-.085.047c-1.06-.389-2.554-.931-2.554-.931-.247-.09-.336-.391-.602-.391h-.904l-.9-.186c-1.17-.183-2.285.279-3.046 1.27-.679 1.038-.996 2.41-.996 4.168 0 .752.159 1.708.276 2.604-.53-.148-1.029-.406-1.585-.406-2.737 0-5.05 1.834-5.917 4.378h-3.258c1.875-3.68 3.613-7.012 3.978-7.544.095.046 2-.073 2-.073a2.26 2.26 0 0 0 1.884-1.25c.16-.319.24-.663.24-1.008 0-.222-.13-.42-.19-.632 1.05-.82 1.83-1.945 1.83-3.39 0 0-.135-.33-.174-.443.98-.85 1.693-1.964 1.693-3.274 0-.522-.09-1.053-.284-1.566-.13-.355-.415-.6-.627-.901.182-.506.31-1.035.31-1.564a4.513 4.513 0 0 0-1.153-3.025 4.277 4.277 0 0 0-1.572-1.083c-.286-1.315-.984-2.53-2.262-3.146-.68-.33-1.41-.411-2.13-.362-.748-1.047-1.787-1.843-3.157-1.929-.597-.034-1.136.197-1.684.398-.305-.362-.553-.653-.553-.653l-3.375-.234c-.468.16-.796.527-1.171.827l-1.137-.619s-.288.092-.358.116c-.775-1.294-1.926-2.305-3.525-2.305-.568 0-1.052.295-1.56.505-.727-.54-1.557-.954-2.519-.954-.124 0-.205.115-.324.127v-2.06c0-.989-.71-1.674-1.595-1.986-.286-.922-.997-1.666-2.015-1.666h-2.15c-1.016 0-1.731.744-2.019 1.666-.882.312-1.593.997-1.593 1.986v2.051c-.117-.008-.202-.118-.32-.118-.963 0-1.799.417-2.519.956-.513-.212-.992-.507-1.57-.507-1.594 0-2.743 1.011-3.517 2.307-.074-.026-.367-.117-.367-.117l-1.13.616c-.375-.3-.699-.665-1.17-.825l-3.358.226-.563.654c-.541-.2-1.08-.425-1.683-.39-1.37.084-2.407.885-3.161 1.934-.727-.054-1.458.025-2.145.361-1.271.614-1.967 1.826-2.25 3.139a4.307 4.307 0 0 0-1.57 1.083 4.503 4.503 0 0 0-1.148 3.032c0 .532.119 1.058.303 1.56-.212.304-.497.548-.632.902a4.502 4.502 0 0 0-.279 1.562c0 1.302.71 2.418 1.69 3.273-.043.113-.176.446-.176.446 0 1.423.755 2.546 1.776 3.366-.067.218-.198.427-.198.656a2.265 2.265 0 0 0 2.122 2.26l1.916.119c.444.492 2.213 3.817 4.111 7.496h-3.37c-.869-2.537-3.179-4.365-5.91-4.365-.563 0-1.06.259-1.587.402.124-1.001.296-2.103.296-2.815 0-2.39-.569-3.295-.808-3.67-.978-1.277-2.09-1.739-3.266-1.56 0 0-.568.121-.916.192h-.875c-.267 0-.35.292-.602.382l-2.558.935-.075-.04-3.232-1.01-3.98.761c-6.323 1.728-10.527 7.464-10.527 14.034l.051 7.429v1.85c.012.02.04 4.175.04 4.175 0 8.606-3.99 16.638-10.67 21.472-3.469 2.467-5.927 6.163-6.918 10.425-.184.797-.749 1.038-.985 1.038-.734 0-1.426-.308-1.952-.87-.58-.613-.868-1.448-.868-2.275 0-.835.293-1.667.872-2.29a4.162 4.162 0 0 0 1.116-2.84 4.115 4.115 0 0 0-1.125-2.84c-.006.006-2.858-1.242-2.858-1.242l-2.86 1.252c-4.123 4.39-4.123 11.533.001 15.922 2.913 3.097 7.173 4 10.93 2.756.011.177.083 1.176.083 1.176 0 1.745-1.008 3.314-2.51 3.902-.829.322-1.399 1.02-1.442 1.908l-.074 1.475c0 2.95.865 5.78 2.506 8.187.97 1.504 1.592 3.035 1.902 4.665.72 3.212 3.325 4.644 5.447 4.644h6.36a2.261 2.261 0 0 0 2.265-2.26 7.867 7.867 0 0 0-6.253-7.755c-.668-.875-1.158-1.897-1.158-3.058 0-2.013 1.101-3.8 2.812-4.545 3.052-1.37 5.176-4.117 5.961-7.349 1.444.32 1.673.462 1.673 1.321-.238.996-.003 2.116-.823 1.837-.04.153-.093.308-.093.444 0 .744.546 1.307 1.359 1.712 1.36.679 3.602 4.014 4.625 6.43.982 2.181 2.949 3.508 5.154 3.508h5.448a2.26 2.26 0 0 0 2.264-2.262c0-3.798-2.577-7.121-6.127-7.901-1.115-.257-1.91-1.363-1.91-2.636 0-.715.249-1.395.714-1.914a6.403 6.403 0 0 0 1.705-4.378l-.83-3.192c-1.504-2.55-3.655-4.415-6.022-5.878 2.026-2.04 4.238-3.856 6.758-5.11 4.229-1.955 7.417-5.724 8.914-10.351.713-.701 2.422-2.39 2.506-2.47v26.797c0 19.174 30.554 19.395 31.854 19.395 1.3 0 31.847-.22 31.847-19.395v-26.866c.006.003.033.036.033.036s1.807 1.78 2.534 2.501c1.504 4.622 4.69 8.392 8.92 10.356 2.518 1.242 4.723 3.054 6.75 5.094-2.358 1.457-4.498 3.31-5.962 5.78-.05.105-.878 3.297-.878 3.297 0 1.652.6 3.204 1.693 4.376.467.52.718 1.199.718 1.919 0 1.27-.8 2.377-1.907 2.626-3.555.777-6.134 4.1-6.134 7.902a2.266 2.266 0 0 0 2.267 2.263h5.45c2.21 0 4.176-1.324 5.135-3.457 1.04-2.46 3.275-5.793 4.644-6.48.815-.412 1.358-.961 1.358-1.699a1.86 1.86 0 0 0-.136-.673l-.601-1.535s-.064-.134-.13-.267c.023-.629.338-.853 1.625-1.137.78 3.235 2.902 5.977 5.927 7.31 1.716.772 2.85 2.6 2.85 4.583 0 1.149-.495 2.167-1.162 3.05a7.872 7.872 0 0 0-6.254 7.76 2.26 2.26 0 0 0 2.261 2.26h6.37c2.116 0 4.717-1.428 5.427-4.56.32-1.718.94-3.248 1.858-4.63 1.693-2.513 2.562-5.343 2.562-8.299l-.073-1.476c-.044-.894-.613-1.597-1.448-1.92-1.495-.578-2.498-2.143-2.498-3.895l.07-1.175c3.76 1.247 8.02.345 10.932-2.756zm-139.728 5.168c-.323.825-1.159 1.099-1.159 1.378 0 .103.116.208.417.34.041.02.067.015.103.026.02-.08.012-.15.047-.234l.593-1.51zm139.738-21.082c.23.1-.067-.12-.067-.085 0 .008.017.03.055.07a.227.227 0 0 1 .012.015zm-133.286-76.962c1.056 2.337 2.96 4.02 5.137 5.277-.637.69-1.474 1.251-2.833 1.8a2.257 2.257 0 0 0-1.42 2.097l.002.091a2.264 2.264 0 0 0 1.588 2.07c3.68 1.148 20.01 1.826 30.562-8.922.465-.474.75-1.204.75-1.902 0-.374-.085-.736-.264-1.047 0 0-.078-.135-.088-.15 5.146-.655 10.324-1.1 15.484-1.1 5.432 0 10.672.445 15.843 1.105-.02.038-.084.145-.084.145-.18.312-.26.677-.26 1.052 0 .693.278 1.423.74 1.895 10.547 10.745 26.883 10.072 30.565 8.925a2.252 2.252 0 0 0 1.585-2.067c0-.035.006-.064.006-.095 0-.92-.558-1.752-1.418-2.097-1.367-.553-2.201-1.114-2.842-1.8 2.18-1.257 4.09-2.949 5.147-5.302 0-.003.582-1.54.582-1.54.094-.25.142-.506.142-.756 0-.596-.262-1.164-.727-1.609-.657-.625-1.652-.723-2.484-.361-.877.38-1.9.587-3.046.611-2.511.06-9.396-1.225-11.228-4.547-.127-4.078-3.017-7.583-7.022-8.38a139.846 139.846 0 0 0-25.138-2.281c-8.758 0-17.183.76-25.398 2.255-4.104.82-7 4.327-7.124 8.406-1.826 3.322-8.718 4.607-11.23 4.547-1.142-.025-2.163-.23-3.047-.611-.834-.36-1.83-.262-2.487.366-.462.44-.72 1.01-.72 1.606 0 .248.048.505.14.754l.588 1.564z" stroke="none"/><g stroke-width=".588"><g fill="#ecd21c" stroke-width="1.25"><path d="M355.176 205.706c-1.667-.937-3.804-4.027-3.804-5.636 0-2.83 3.322-5.116 7.418-5.116l1.655-.708.757-2.479s-9.223-1.176-11.752 3.264c-2.525 4.436-1.223 7.332-.167 9.664 1.058 2.337 3.456 3.516 3.456 3.516l2.437-2.505zM364.791 198.375c-.54-.575-.854-1.275-.854-2.024 0-2.03 2.332-3.683 5.21-3.683 1.055 0 3.115.222 3.93.601l.254-4.239s-7.78-.897-10.776 2.551c-2.996 3.45-2.238 6.84-1.984 7.623.25.787.763 1.96.763 1.96l4.289-1.308-.832-1.481zM395.022 205.706c1.67-.937 3.81-4.027 3.81-5.636 0-2.83-3.323-5.116-7.422-5.116l-1.654-.708-.758-2.479s9.221-1.176 11.75 3.264c2.517 4.436 1.223 7.332.172 9.664-1.06 2.337-3.46 3.516-3.46 3.516l-2.438-2.505zM385.405 198.375c.537-.575.858-1.275.858-2.024 0-2.03-2.34-3.683-5.211-3.683-1.058 0-3.111.222-3.93.601l-.249-4.239s7.774-.897 10.771 2.551c2.99 3.45 2.236 6.84 1.98 7.623-.245.787-.757 1.96-.757 1.96l-4.29-1.308.828-1.481z"/><path fill="#be0027" stroke-width="1.177" stroke-linecap="round" stroke-linejoin="round" d="M354.342 205.737c4.837-5.01 12.36-8.237 20.805-8.237 8.448 0 15.963 3.226 20.8 8.237l-5.813 15.906h-30.288l-5.504-15.906z"/><path stroke-width="1.177" d="M378.989 203.353l-3.874-2.551-3.824 2.551 1.488-13.109h4.708l1.502 13.109z"/></g><g fill="#fff"><ellipse cx="375.161" cy="193.638" rx="1.371" ry="1.416"/><ellipse cx="375.161" cy="196.607" rx="1.739" ry="1.794"/><ellipse cx="375.156" cy="200.438" rx="2.195" ry="2.266"/><g id="a"><ellipse cx="349.305" cy="204.694" rx="2.144" ry="2.215"/><ellipse cx="347.789" cy="200.991" rx="2.147" ry="2.215"/><ellipse cx="348.383" cy="196.953" rx="2.145" ry="2.217"/><ellipse cx="350.853" cy="193.739" rx="2.146" ry="2.216"/><ellipse cx="354.515" cy="191.877" rx="2.143" ry="2.218"/><ellipse cx="358.457" cy="191.158" rx="2.147" ry="2.217"/><ellipse cx="360.382" cy="195.235" rx="2.147" ry="2.215"/><ellipse cx="360.997" cy="199.433" rx="2.15" ry="2.215"/><ellipse cx="362.584" cy="191.582" rx="2.144" ry="2.215"/><ellipse cx="366.057" cy="189.409" rx="2.146" ry="2.215"/><ellipse cx="370.144" cy="188.964" rx="2.147" ry="2.216"/></g><use xlink:href="#a" transform="matrix(-1 0 0 1 750.3 0)"/></g><ellipse fill="#4c86c7" cx="375.147" cy="189.454" rx="3.071" ry="3.169"/><path fill="#ecd21c" d="M376.222 188.757v-3.984h1.349v-2.222h-1.349v-1.39h-2.15v1.39h-1.347v2.222h1.347v3.984h-1.893v1.437h5.93v-1.437h-1.887z"/><path d="M400.414 207.095c-.61-.92-1.476-1.466-2.44-1.559a2.914 2.914 0 0 0-1.064.131c-.036-.014-.06-.048-.09-.062l-.56-.32-.54.353c-.127.08-.203.186-.301.28-.02-.01-.031-.028-.05-.04l-.569-.3s-.46.317-.506.354c-.53-.27-1.092-.413-1.642-.389l-.725.036s-.028.078-.033.105c-.387-.424-.906-.728-1.483-.911l-.134-.627-.607-.188c-.022-.003-.046-.003-.067-.006a2.67 2.67 0 0 0-.051-.463l-.152-.636-.608-.165c-.157-.601-.432-1.153-.825-1.571l-.507-.534-.677.288c-.52.22-.98.616-1.355 1.105-.023-.002-.615-.089-.615-.089l-.383.524a2.252 2.252 0 0 0-.235.396c-.02-.003-.031-.008-.05-.014l-.63-.078s-.356.508-.37.525c-.6-.057-1.197.015-1.71.245 0 0-.15.064-.298.131-.18-.13-.38-.27-.38-.27-.483-.355-1.093-.538-1.725-.601-.006-.006-.006-.02-.017-.037l-.257-.604-.633-.055c-.04-.003-.074-.003-.11-.003a2.135 2.135 0 0 0-.16-.488l-.271-.596-.63-.03h-.026c-.281-.604-.677-1.11-1.175-1.458l-.605-.426-.596.426c-.496.348-.889.854-1.171 1.459h-.025l-.634.03-.27.595c-.08.166-.125.328-.161.488-.04 0-.072 0-.11.003l-.63.055-.26.604c-.007.015-.01.03-.013.037-.634.063-1.246.246-1.726.6 0 0-.231.16-.402.285a46.06 46.06 0 0 0-.343-.145c-.516-.23-1.112-.301-1.717-.245-.014-.016-.357-.525-.357-.525l-.639.078c-.02.006-.034.011-.051.014-.067-.135-.135-.269-.231-.396l-.383-.524s-.596.088-.616.09c-.374-.49-.837-.886-1.363-1.106l-.668-.288-.51.534c-.393.419-.665.97-.829 1.57-.014.007-.596.166-.596.166l-.156.636c-.04.167-.049.308-.054.463-.016.002-.044.002-.063.006l-.614.188s-.132.601-.134.627c-.572.183-1.089.487-1.476.911a2.461 2.461 0 0 0-.036-.105l-.73-.036c-.543-.025-1.108.119-1.64.39a31.85 31.85 0 0 0-.502-.355l-.568.3c-.02.013-.033.03-.052.04-.095-.094-.18-.2-.303-.28l-.543-.353-.55.32c-.032.014-.066.048-.089.062a2.99 2.99 0 0 0-1.07-.13c-.966.092-1.829.638-2.442 1.558l-1.085 1.623 1.914.117c.01 0 1.047.08 1.76.839.522.563 5.86 11.07 5.86 11.07l.898-.382c5.314-2.205 10.532-3.28 15.947-3.28 5.442 0 10.672 1.079 16.003 3.31l.9.373s5.291-10.528 5.815-11.091c.71-.76 1.745-.84 1.753-.84l1.902-.116-1.075-1.623z" stroke="none"/><path fill="#ecd21c" d="M375.116 212.19c-6.244 0-12.339 1.242-18.142 3.638l1.793 3.507c5.26-2.186 10.597-3.366 16.349-3.366 5.78 0 11.138 1.19 16.41 3.388l1.8-3.501c-5.826-2.414-11.94-3.666-18.21-3.666z" stroke="none"/><path fill="#ecd21c" d="M399.532 207.729c-.908-1.36-2.276-1.244-2.761-.736a1.632 1.632 0 0 0-.474-.422c-.398.259-.584.74-.705 1.275-.146-.427-.361-.787-.721-.985a1.65 1.65 0 0 0-.438.463c-.525-.463-1.154-.7-1.726-.67-.186.563-.138 1.25.159 1.9-.21.06-.39.164-.548.312.141.722.918 1.16 1.633 1.55-.39.572-1.044 1.56-1.37 2.074a1.622 1.622 0 0 1-1.092-1.543c0-.207.037-.409.11-.598.035-.103.06-.2.06-.3 0-.337-.2-.65-.516-.785a.807.807 0 0 0-1.054.461c-.287.72-.961 1.187-1.712 1.187-1.02 0-1.848-.844-1.853-1.896l.167-.943c.148.035.306.073.466.124.905.264 2.012.698 2.741.181a2.091 2.091 0 0 0-.188-.63c.655-.27 1.156-.744 1.41-1.294-.405-.45-1.034-.73-1.74-.768.04-.214.036-.446-.015-.658-.389-.119-.804-.011-1.207.186.28-.479.468-.972.353-1.45a1.441 1.441 0 0 0-.639-.04c-.014-.734-.257-1.39-.67-1.828-.55.236-1.023.746-1.311 1.403a1.623 1.623 0 0 0-.601-.216c-.298.395-.312.925-.231 1.48-.291-.345-.632-.617-1.042-.665-.128.178-.21.388-.262.603-.665-.253-1.35-.246-1.89-.002.02.61.305 1.249.813 1.764a1.677 1.677 0 0 0-.415.505c.465.766 1.647.82 2.582.945.095.002.18.02.267.035l-.134.745a1.052 1.052 0 0 0-.116.224c-.266.756-.968 1.268-1.746 1.268-1.022 0-1.854-.856-1.854-1.912 0-.467-.356-.832-.797-.837h-.098a.809.809 0 0 0-.78.617c-.227.832-.95 1.403-1.785 1.403-1.029 0-1.857-.857-1.857-1.915v-.451c.14.003.29.014.453.028.997.077 2.227.28 2.87-.408a1.772 1.772 0 0 0-.33-.615c.624-.414 1.058-1.02 1.201-1.647-.513-.37-1.22-.524-1.955-.412a1.748 1.748 0 0 0-.152-.68c-.434-.04-.828.167-1.216.463.2-.556.297-1.113.076-1.583-.23-.011-.453.02-.668.097-.159-.75-.55-1.385-1.075-1.745-.514.36-.903.995-1.063 1.745a1.753 1.753 0 0 0-.665-.097c-.22.47-.131 1.027.07 1.583-.384-.296-.787-.503-1.216-.463-.094.212-.15.444-.151.68-.74-.112-1.449.042-1.959.412.145.627.57 1.233 1.206 1.647-.153.184-.269.389-.329.615.64.689 1.873.485 2.863.408.138-.011.267-.014.398-.026v.448c0 1.058-.837 1.916-1.857 1.916a1.864 1.864 0 0 1-1.793-1.404.806.806 0 0 0-.78-.617h-.094a.818.818 0 0 0-.799.837c0 1.056-.832 1.912-1.855 1.912-.782 0-1.483-.511-1.747-1.267a.895.895 0 0 0-.114-.224l-.14-.746c.085-.014.179-.033.268-.034.939-.126 2.12-.18 2.593-.946a1.743 1.743 0 0 0-.42-.505c.504-.515.79-1.154.81-1.764-.537-.244-1.226-.251-1.887.002a1.751 1.751 0 0 0-.264-.603c-.408.049-.742.32-1.042.665.083-.554.064-1.085-.228-1.48-.212.03-.413.107-.606.216-.286-.656-.761-1.166-1.31-1.402-.41.437-.655 1.094-.666 1.827a1.446 1.446 0 0 0-.642.04c-.112.479.072.971.351 1.45-.4-.198-.813-.305-1.21-.186a1.778 1.778 0 0 0-.012.658c-.703.038-1.332.319-1.74.769.248.549.76 1.023 1.416 1.293-.103.2-.169.408-.19.63.722.517 1.825.083 2.733-.18.172-.052.323-.09.465-.124l.177.942c-.011 1.053-.84 1.897-1.853 1.897-.76 0-1.435-.467-1.72-1.187a.806.806 0 0 0-1.055-.462.846.846 0 0 0-.502.786c0 .1.015.196.052.3.072.189.107.39.107.597 0 .729-.462 1.326-1.094 1.543a73.52 73.52 0 0 0-1.371-2.073c.723-.39 1.497-.829 1.641-1.55a1.397 1.397 0 0 0-.547-.313c.289-.649.34-1.336.151-1.9-.573-.029-1.2.207-1.722.67a1.857 1.857 0 0 0-.435-.463c-.358.198-.577.558-.733.985-.109-.535-.302-1.016-.696-1.274-.188.108-.345.25-.476.422-.484-.508-1.862-.624-2.761.735 0 0 1.437.06 2.474 1.177.597.639 1.068 1.321 1.359 1.757.02.072.045.138.08.203l1.794 2.882c.12.315.417.515.746.515 1.38 0 2.548-.913 2.999-2.18.51.299 1.089.495 1.709.495 1.295 0 2.413-.746 3.007-1.838.617.56 1.396.908 2.25.908 1.247 0 2.334-.687 2.946-1.714.63.615 1.462.989 2.375.989a3.417 3.417 0 0 0 2.672-1.31c.64.795 1.602 1.31 2.684 1.31a3.39 3.39 0 0 0 2.37-.989c.608 1.027 1.695 1.714 2.944 1.714.858 0 1.638-.348 2.244-.908.598 1.092 1.724 1.838 3.018 1.838.617 0 1.194-.196 1.709-.496.45 1.268 1.616 2.18 2.995 2.18.326 0 .62-.199.746-.514l1.783-2.882a.686.686 0 0 0 .095-.203c.28-.436.76-1.118 1.356-1.757 1.04-1.116 2.472-1.177 2.472-1.177z" stroke="none"/><g fill="#be0027"><path d="M357.246 216.629l.779 2.019 1.293-1.673-2.072-.346z"/><ellipse cx="361.159" cy="216.268" rx="1.077" ry="1.085"/><path fill="#4c86c7" d="M367.616 214.746a1.09 1.09 0 0 1-.835 1.28l-2.105.44a1.081 1.081 0 0 1-1.273-.843 1.087 1.087 0 0 1 .837-1.28l2.101-.441a1.08 1.08 0 0 1 1.275.844z"/><ellipse cx="369.854" cy="214.372" rx="1.073" ry="1.081"/><path d="M375.213 213.017l-3.116 1.085 3.116 1.08 3.114-1.08-3.114-1.085z"/><ellipse cx="380.572" cy="214.372" rx="1.075" ry="1.081"/><path fill="#4c86c7" d="M382.808 214.746c-.114.582.26 1.156.837 1.28l2.105.44a1.08 1.08 0 0 0 1.268-.843 1.076 1.076 0 0 0-.83-1.28l-2.109-.441a1.08 1.08 0 0 0-1.271.844z"/><ellipse cx="389.257" cy="216.268" rx="1.077" ry="1.085"/><path d="M392.991 216.629l-.772 2.019-1.302-1.673 2.074-.346z"/></g><g fill="#fff"><ellipse cx="354.17" cy="210.089" rx="1.075" ry="1.083"/><ellipse cx="363.964" cy="206.212" rx="1.073" ry="1.085"/><ellipse cx="375.118" cy="205.05" rx="1.075" ry="1.085"/><ellipse cx="386.269" cy="206.212" rx="1.077" ry="1.085"/><ellipse cx="396.067" cy="210.089" rx="1.071" ry="1.083"/></g></g><path fill="#4c86c7" stroke-width="1.868" stroke-linecap="round" stroke-linejoin="round" d="M345.464 220.855h59.17v51.893c0 17.133-29.58 17.133-29.58 17.133s-29.59 0-29.59-17.133v-51.893z"/><path id="b" fill="#fff" stroke-width="1.25" d="M371.015 236.879l-6.92-7.667c-1.216-1.357-3.167-1.357-4.378-.006l-6.92 7.674h18.218z"/><use xlink:href="#b" y="15.323"/><use xlink:href="#b" y="30.866"/><use xlink:href="#b" x="13.114" y="46.291"/><use xlink:href="#b" x="26.293"/><use xlink:href="#b" x="26.293" y="15.323"/><use xlink:href="#b" x="26.293" y="30.866"/><g fill="#a5a7a9" stroke-width="1.249" stroke-linecap="round" stroke-linejoin="round"><path d="M405.101 172.797c2.307 4.682 10.647 6.012 13.44 5.946 1.39-.03 2.704-.279 3.898-.797a9.15 9.15 0 0 1-.477 1.26 9.898 9.898 0 0 1-6.224 5.428c.9 2.829 2.944 3.818 5.133 4.7-2.432.76-18.28 2.075-28.472-8.536M344.74 172.797c-2.301 4.682-10.642 6.012-13.441 5.946-1.382-.03-2.698-.279-3.895-.797.131.437.286.856.474 1.26a9.902 9.902 0 0 0 6.223 5.428c-.9 2.829-2.935 3.818-5.128 4.7 2.427.76 18.277 2.075 28.471-8.536"/><path d="M393.997 178.116l-1.636 2.811s1.91.479 3.886.96c1.977.477 2.926.108 4.298-1.437 1.63-1.86 3.405-4.604 3.405-4.604l.02-.047a6.514 6.514 0 0 0 1.075-3.605 6.547 6.547 0 0 0-5.245-6.422l-.063-.02a137.415 137.415 0 0 0-24.634-2.22h-.36c-8.406 0-16.644.765-24.631 2.22l-.067.02a6.541 6.541 0 0 0-5.25 6.422c0 1.338.402 2.573 1.081 3.605l.02.047s1.769 2.744 3.4 4.604c1.373 1.545 2.327 1.914 4.303 1.437 1.972-.481 3.886-.96 3.886-.96l-1.636-2.811-.222-.488-3.15.472a125.042 125.042 0 0 1 22.267-1.987h.36c7.596 0 15.043.682 22.27 1.987l-3.095-.447-.28.463z"/><g fill="#000" stroke="none"><path d="M355.727 174.964c-1.268.255-2.636-.227-3.075-2.24-.384-1.746.696-3.026 1.895-3.274 1.266-.262 2.634.203 3.07 2.214.387 1.751-.691 3.05-1.89 3.3zm-1.09-4.828c-.593.122-.996.62-.626 2.327.372 1.705 1.037 1.93 1.628 1.81.598-.127.992-.639.619-2.346-.374-1.703-1.03-1.914-1.621-1.791zM365.239 173.157c-.936.524-2.128.648-3.109.172-.829-.388-1.403-1.227-1.51-2.13-.125-.817.114-1.7.714-2.282.77-.762 1.92-1.019 2.973-.91.198-.014.186.203.208.338l.144 1.037c-.002.163-.207.118-.319.149-.133.047-.267-.019-.28-.166-.082-.21-.102-.493-.35-.578-.374-.105-.79-.014-1.12.178-.527.324-.68.995-.648 1.575.037.748.298 1.57.964 1.988.626.38 1.45.295 2.064-.065.173-.023.175.186.226.3.024.125.148.285.043.394zM372.701 172.635c.016.188-.185.144-.304.158l-3.873.214c-.174-.002-.118-.213-.139-.33-.021-.18.196-.17.316-.212.12-.032.293-.042.302-.205.003-.37-.038-.74-.053-1.109-.054-.915-.102-1.83-.16-2.745-.002-.186-.186-.217-.33-.223-.124-.03-.333.01-.347-.165.01-.114-.059-.267.053-.341.39-.04.786-.046 1.178-.073l2.834-.154c.164.034.107.232.128.355.012.284.04.57.042.854-.065.11-.22.062-.33.085-.16.044-.196-.132-.228-.248-.035-.174-.14-.374-.354-.331-.43.027-.864.039-1.293.076-.1.083-.031.228-.04.342.027.364.036.731.073 1.094.078.093.217.03.324.039.531-.026 1.063-.061 1.595-.08.112.063.06.22.083.33-.008.116.063.267-.049.348-.436.039-.877.047-1.315.074-.18.015-.366.005-.543.037-.095.083-.029.224-.038.335.027.424.043.849.078 1.272.028.217.266.192.428.178.381-.023.762-.037 1.142-.065.212-.023.25-.243.275-.414.002-.131.077-.254.223-.227.113.009.311-.073.329.093-.002.346-.007.693-.007 1.038zM381.614 172.833l-2.307-.058c-.18-.018-.097-.236-.11-.359.029-.178.245-.135.378-.171.187.016.336-.152.23-.335-.068-.2-.109-.414-.197-.606-.126-.061-.283-.021-.423-.038l-1.565-.035c-.136.041-.138.22-.2.33-.052.173-.184.338-.146.523.086.125.265.098.397.144.163-.002.25.135.213.287.038.17-.107.258-.262.22l-1.772-.04c-.188-.016-.107-.233-.114-.358.018-.163.226-.145.344-.202.22-.073.25-.34.35-.522.634-1.443 1.266-2.886 1.902-4.328.123-.045.27-.005.404-.015.266.01.538-.003.801.023.119.236.182.5.277.748.467 1.338.928 2.677 1.398 4.014.055.248.346.215.506.342.029.127.036.286-.018.407-.005.047-.078-.001-.086.029zm-2.729-3.886c-.09-.242-.125-.541-.185-.763-.136.592-.403 1.144-.614 1.712-.076.205-.168.405-.234.613.074.086.225.031.334.051.387.005.774.027 1.16.021.05-.094-.046-.22-.061-.326-.133-.436-.269-.874-.4-1.308zM390.519 168.792c-.151.017-.307.008-.455.044-.162.142-.112.385-.154.578l-.474 4.131c-.061.11-.23.013-.337.025-.168-.025-.344-.02-.506-.069-.3-.478-.57-.977-.86-1.464-.418-.738-.872-1.457-1.256-2.215-.083-.261-.099-.053-.109.09-.093.837-.191 1.674-.281 2.511-.033.216.2.236.35.279.122.047.352.038.324.226-.026.126.002.363-.197.32-.705-.08-1.413-.145-2.117-.236-.108-.104-.048-.307.001-.435.172-.1.403-.01.577-.109.127-.166.09-.394.13-.59.127-1.116.262-2.23.384-3.346.032-.214-.197-.247-.349-.292-.143-.023-.304-.1-.244-.271-.022-.167.08-.312.259-.246l1.59.168c.205.059.25.301.36.461.478.882.976 1.754 1.439 2.645.06.174.145.317.141.063.08-.719.17-1.437.244-2.156.032-.21-.188-.246-.338-.282-.129-.049-.364-.037-.343-.231.023-.125 0-.364.197-.315l2.073.22c.184.048.078.277.073.413-.02.048-.072.077-.122.083zM395.362 174.656c-1.273-.243-2.34-1.211-1.934-3.225.353-1.758 1.853-2.523 3.055-2.296 1.279.24 2.35 1.189 1.944 3.202-.354 1.76-1.866 2.543-3.065 2.319zm.928-4.852c-.589-.118-1.162.189-1.51 1.901-.345 1.71.177 2.17.773 2.284.605.116 1.17-.21 1.514-1.922.345-1.712-.18-2.153-.777-2.263z"/></g></g><g id="c" fill="#c09b5a" stroke-width="1.207" stroke-linecap="round" stroke-linejoin="round"><path d="M321.68 264.457c3.063 1.195 5.647 3.452 7.357 6.351l.033.062c.343.61.537 1.325.537 2.081a4.19 4.19 0 0 1-1.09 2.839l-.033.03a5.106 5.106 0 0 0-1.293 3.423c0 2.38 1.569 4.358 3.658 4.836l.028.01c2.483.545 4.352 2.883 4.352 5.69h-5.449c-1.187 0-2.408-.664-3.071-2.129-1-2.356-3.5-6.473-5.695-7.57.064-.4.817-1.51.817-1.931 0-3.338-2.15-3.232-5.08-3.96l-.956-.174s.566-2.28 1.977-4.82c1.413-2.535 3.909-4.739 3.909-4.739zM334.279 230.306l7.738-11.984.03-.025c.733-1.1 1.937-1.81 3.294-1.81 2.231 0 4.043 1.925 4.043 4.306h-4.043l-3.216 6.09-2.075 9.058-1.161 1.728-.097.22"/><path d="M304.208 272.019a15.273 15.273 0 0 0-.102 1.759c0 .754.054 1.507.155 2.248l.012.076c.037.284.06.577.06.875 0 2.763-1.645 5.105-3.948 6.006l-.017.028c-.04.409-.062.829-.062 1.25 0 2.59.789 4.963 2.115 6.915l.067.14a14.693 14.693 0 0 1 2.19 5.372c.446 2 2.008 2.81 3.221 2.81h6.36c0-3.21-2.438-5.804-5.449-5.804l-.048-.01c-1.183-1.288-1.91-3.057-1.91-4.998 0-2.987 1.72-5.552 4.163-6.62l.03-.03c2.909-1.293 4.954-4.343 4.954-7.906l.025-.084c2.539-7.658 7.896-13.89 14.75-17.3l.049-.02c5.047-2.34 8.568-7.737 8.568-13.978 0-4.81-2.093-9.088-5.36-11.877 0 0 .042-5.58.042-6.95.693-.629 1.266-1.082 2.977-2.427 2.268-1.776 3.817-3.022 4.32-5.7.305-1.674 1.194-7.314-1.047-6.97-2.233.34-5.48 1.74-5.48 1.74-1.295-.553-1.64-1.26-3.121-1.26-.985 0-2.772.518-3.685.764-4.921 1.347-8.557 6.11-8.557 11.77l.087 13.44c0 9.701-4.599 18.252-11.606 23.323l-.014.025c-2.958 2.09-5.147 5.307-6.02 9.073l-.018.098c-.411 1.72-1.872 2.692-3.174 2.692-1.306 0-2.607-.521-3.602-1.583-1.981-2.106-1.981-5.541 0-7.658.668-.722.668-1.872 0-2.582a1.643 1.643 0 0 0-2.424 0c-3.314 3.536-3.314 9.296 0 12.828 3.149 3.347 8.156 3.52 11.503.525"/><path d="M333.067 240.579c3.344 1.891 7.078-.011 8.914-3.164.641-1.092.302-2.917.667-3.998l.031-.068c.393-1.173 1.456-2.029 2.7-2.029l.005 8.978s-.811.86-2.914 3.1c-2.105 2.238-4.414 5.432-6.839 4.684-2.42-.744-10.396-2.71-10.396-2.71M323.034 217.794s-.85 2.54.314 5.076c.797 1.754 2.44 2.772 4.158 2.787a5.22 5.22 0 0 0 .489-5.2c-.078-.176-1.92-4.134-1.92-4.134"/><path fill="#000" stroke-linejoin="miter" d="M333.11 214.157c-.513.215-1.04.264-1.48.159a2.607 2.607 0 0 1 1.17-.977l.31.818z"/><path fill="#000" stroke-width=".624" d="M338.186 209.038c0 1.981 1.512 3.593 3.374 3.593V210.318c-.002-.953-.313-1.42-1.209-1.28h-2.165z"/><path fill="#000" d="M341.43 215.149s-2.267 2.408-5.078 3.182"/><g fill="#000" stroke="none"><path fill="#a5a7a9" stroke="#000" stroke-width=".603" d="M319.525 227.452a20.61 20.61 0 0 0 14.397-.293v3.664a20.505 20.505 0 0 1-7.596 1.45 20.54 20.54 0 0 1-6.801-1.155v-3.666z"/><ellipse cx="322.13" cy="230.017" rx="1.085" ry="1.156"/><ellipse cx="326.827" cy="230.431" rx="1.083" ry="1.157"/><ellipse cx="331.393" cy="229.823" rx="1.086" ry="1.153"/></g></g><use xlink:href="#c" transform="matrix(-1 0 0 1 750.164 0)"/></g></svg>