<svg xmlns="http://www.w3.org/2000/svg" xmlns:xlink="http://www.w3.org/1999/xlink" width="750" height="500"><path fill="#fc0" d="M0 0h750v500H0z"/><path fill="#0768a9" d="M0 0h500v500H0z"/><path fill="#fff" d="M0 0h250v500H0z"/><g stroke="#000"><path fill="#fff" d="M389.166 193.178c.074-.076.126-.164.19-.245l.06.19c-.085.022-.174.022-.25.055zm-22.647-6.175c-.046.087-.106.163-.157.243-.012-.003-.017-.006-.026-.006.064-.078.11-.167.183-.238zm-5.728 6.1l.065-.2c.02 0 .035 0 .054-.002.068.096.132.19.22.28-.106-.045-.225-.05-.338-.076zm-41.228 84.983c-.006-.088-.02-.164-.02-.197 0-.037.02-.073.093-.22-.064.13-.04.275-.074.416zm27.1-83.31v-.003c.007.02.007.046.012.072 0-.025-.01-.047-.01-.07zm56.968-.003l.002.002c0 .025-.01.046-.014.07.006-.025.006-.05.01-.072zm55.47 78.262c2.062-2.195 3.1-5.078 3.1-7.962 0-2.882-1.038-5.762-3.096-7.954-.01-.007-2.86-1.26-2.86-1.26l-2.87 1.26c-1.488 1.576-1.49 4.074.007 5.67 1.16 1.236 1.16 3.33 0 4.564-.524.56-1.216.872-1.95.872-.233 0-.8-.247-.972-.97-.994-4.327-3.45-8.022-6.925-10.477-6.684-4.853-10.67-12.892-10.67-21.515l.088-13.426c0-6.574-4.207-12.31-10.23-13.966-.093-.025-4.276-.845-4.276-.845l-3.224 1.01s-.066.038-.085.046c-1.06-.39-2.554-.93-2.554-.93-.247-.09-.336-.392-.602-.392h-.904c-.345-.07-.9-.186-.9-.186-1.17-.183-2.285.28-3.046 1.27-.68 1.038-.996 2.41-.996 4.168 0 .752.16 1.708.276 2.604-.53-.148-1.03-.406-1.585-.406-2.737 0-5.05 1.834-5.917 4.378h-3.258c1.875-3.68 3.613-7.012 3.978-7.544.095.046 2-.073 2-.073.808-.05 1.524-.527 1.884-1.25.16-.32.24-.663.24-1.008 0-.222-.13-.42-.19-.632 1.05-.82 1.83-1.945 1.83-3.39 0 0-.135-.33-.174-.443.98-.85 1.693-1.964 1.693-3.274 0-.522-.09-1.053-.284-1.566-.13-.355-.416-.6-.628-.9.182-.507.31-1.036.31-1.565 0-1.087-.386-2.174-1.153-3.025-.443-.49-.986-.842-1.573-1.083-.286-1.316-.984-2.532-2.262-3.147-.68-.33-1.41-.41-2.13-.362-.748-1.046-1.787-1.842-3.157-1.928-.597-.034-1.136.197-1.684.398-.305-.362-.553-.653-.553-.653l-3.374-.234c-.468.16-.796.527-1.17.827l-1.138-.62s-.288.093-.358.117c-.775-1.294-1.926-2.305-3.525-2.305-.568 0-1.052.295-1.56.505-.727-.54-1.557-.954-2.52-.954-.123 0-.204.115-.323.127v-2.06c0-.99-.71-1.674-1.595-1.986-.286-.922-.997-1.666-2.015-1.666h-2.15c-1.016 0-1.73.744-2.02 1.666-.88.312-1.592.997-1.592 1.986v2.05c-.117-.007-.202-.117-.32-.117-.963 0-1.8.417-2.52.956-.512-.213-.99-.508-1.568-.508-1.595 0-2.744 1.01-3.518 2.307-.074-.027-.367-.118-.367-.118l-1.13.616c-.375-.3-.7-.665-1.17-.825l-3.358.226s-.353.41-.564.653c-.54-.2-1.08-.425-1.683-.39-1.37.084-2.407.885-3.16 1.934-.728-.054-1.46.025-2.146.36-1.27.615-1.967 1.827-2.25 3.14-.587.24-1.126.594-1.57 1.083-.772.853-1.148 1.945-1.148 3.032 0 .532.118 1.058.302 1.56-.212.304-.497.548-.632.902-.19.51-.28 1.042-.28 1.562 0 1.302.71 2.418 1.69 3.273-.042.112-.175.445-.175.445 0 1.423.755 2.546 1.776 3.366-.066.22-.197.428-.197.657 0 .343.077.684.234 1.003.362.728 1.078 1.205 1.888 1.257l1.916.12c.445.49 2.214 3.816 4.112 7.495h-3.37c-.87-2.537-3.18-4.365-5.91-4.365-.563 0-1.06.26-1.587.402.124-1.002.296-2.104.296-2.816 0-2.39-.568-3.295-.807-3.67-.978-1.277-2.09-1.74-3.266-1.56l-.916.192h-.874c-.267 0-.35.292-.602.382l-2.558.935-.075-.04-3.23-1.01-3.982.76c-6.322 1.73-10.526 7.465-10.526 14.035l.05 7.43v1.85c.013.02.04 4.174.04 4.174 0 8.606-3.99 16.638-10.67 21.472-3.468 2.467-5.926 6.163-6.917 10.425-.184.796-.75 1.037-.985 1.037-.734 0-1.426-.308-1.952-.87-.58-.613-.868-1.448-.868-2.275 0-.835.293-1.667.872-2.29.744-.8 1.116-1.82 1.116-2.84 0-1.026-.374-2.046-1.125-2.84-.006.006-2.858-1.242-2.858-1.242l-2.86 1.252c-4.123 4.39-4.123 11.533 0 15.922 2.914 3.097 7.174 4 10.93 2.756l.084 1.176c0 1.745-1.01 3.314-2.51 3.902-.83.322-1.4 1.02-1.443 1.908l-.074 1.475c0 2.952.865 5.782 2.506 8.188.97 1.504 1.59 3.035 1.9 4.665.72 3.212 3.326 4.644 5.448 4.644h6.36c1.252 0 2.265-1.01 2.265-2.26 0-3.91-2.723-7.02-6.253-7.755-.668-.875-1.158-1.897-1.158-3.058 0-2.013 1.1-3.8 2.812-4.545 3.052-1.37 5.176-4.118 5.96-7.35 1.445.32 1.674.462 1.674 1.32-.238.997-.003 2.117-.823 1.838-.04.153-.093.308-.093.444 0 .744.546 1.307 1.36 1.712 1.36.68 3.6 4.014 4.624 6.43.982 2.18 2.95 3.508 5.154 3.508h5.448c1.253 0 2.264-1.01 2.264-2.262 0-3.798-2.577-7.12-6.127-7.9-1.115-.258-1.91-1.364-1.91-2.637 0-.715.25-1.395.714-1.914 1.102-1.19 1.704-2.74 1.704-4.38l-.83-3.19c-1.504-2.55-3.655-4.416-6.022-5.88 2.026-2.04 4.238-3.855 6.758-5.11 4.23-1.954 7.417-5.723 8.914-10.35.713-.7 2.422-2.39 2.506-2.47v26.797c0 19.174 30.554 19.395 31.854 19.395 1.3 0 31.847-.22 31.847-19.395V245.88c.007.004.034.037.034.037s1.807 1.78 2.534 2.5c1.504 4.623 4.69 8.393 8.92 10.357 2.518 1.242 4.723 3.054 6.75 5.094-2.358 1.457-4.498 3.31-5.962 5.78-.05.105-.878 3.297-.878 3.297 0 1.652.6 3.204 1.693 4.376.468.52.72 1.2.72 1.92 0 1.27-.802 2.377-1.908 2.626-3.555.777-6.134 4.1-6.134 7.902 0 1.25 1.015 2.263 2.267 2.263h5.45c2.21 0 4.176-1.323 5.135-3.456 1.04-2.46 3.275-5.793 4.644-6.48.815-.412 1.358-.96 1.358-1.7 0-.207-.043-.433-.136-.672l-.6-1.535s-.065-.134-.13-.267c.022-.63.337-.853 1.624-1.137.78 3.235 2.902 5.977 5.927 7.31 1.716.772 2.85 2.6 2.85 4.583 0 1.15-.495 2.167-1.162 3.05-3.533.738-6.254 3.852-6.254 7.76 0 1.25 1.013 2.26 2.262 2.26h6.37c2.116 0 4.717-1.428 5.427-4.56.32-1.718.94-3.248 1.857-4.63 1.693-2.513 2.562-5.343 2.562-8.3l-.074-1.475c-.044-.893-.613-1.596-1.448-1.92-1.495-.577-2.498-2.142-2.498-3.894l.07-1.175c3.76 1.248 8.02.346 10.932-2.755zm-139.728 5.168c-.323.825-1.16 1.1-1.16 1.378 0 .104.117.21.418.342.04.02.067.014.103.025.02-.08.012-.15.047-.234l.593-1.51zm139.738-21.082c.23.1-.067-.118-.067-.084 0 .008.017.03.055.07l.012.015zm-133.286-76.96c1.056 2.336 2.96 4.02 5.137 5.276-.637.69-1.474 1.25-2.833 1.8-.862.345-1.42 1.177-1.42 2.097l.002.09c.038.957.675 1.787 1.588 2.072 3.68 1.147 20.01 1.825 30.562-8.923.465-.474.75-1.204.75-1.902 0-.374-.085-.736-.264-1.047 0 0-.078-.135-.088-.15 5.146-.655 10.324-1.1 15.484-1.1 5.432 0 10.672.445 15.843 1.105-.02.038-.084.145-.084.145-.18.312-.26.677-.26 1.052 0 .693.278 1.423.74 1.895 10.547 10.745 26.883 10.072 30.565 8.925.915-.285 1.55-1.113 1.585-2.067 0-.035.006-.064.006-.095 0-.92-.56-1.752-1.42-2.097-1.366-.553-2.2-1.114-2.84-1.8 2.18-1.257 4.09-2.95 5.146-5.302 0-.003.582-1.54.582-1.54.094-.25.142-.506.142-.756 0-.596-.262-1.164-.727-1.61-.657-.624-1.652-.722-2.484-.36-.878.38-1.9.587-3.047.61-2.51.062-9.396-1.224-11.228-4.546-.127-4.078-3.017-7.583-7.022-8.38-8.32-1.522-16.742-2.28-25.138-2.28-8.758 0-17.183.758-25.398 2.254-4.104.82-7 4.327-7.124 8.406-1.826 3.322-8.718 4.607-11.23 4.547-1.142-.026-2.163-.232-3.047-.612-.834-.36-1.83-.262-2.487.366-.463.44-.72 1.01-.72 1.606 0 .248.047.505.138.754l.59 1.564z" stroke="none"/><g stroke-width=".588"><g fill="#ecd21c" stroke-width="1.25"><path d="M355.176 205.706c-1.667-.937-3.804-4.027-3.804-5.636 0-2.83 3.322-5.116 7.418-5.116l1.655-.708.757-2.48s-9.223-1.175-11.752 3.265c-2.525 4.437-1.223 7.333-.167 9.665 1.058 2.337 3.456 3.516 3.456 3.516l2.436-2.504zM364.79 198.375c-.54-.575-.853-1.275-.853-2.024 0-2.028 2.332-3.682 5.21-3.682 1.055 0 3.115.222 3.93.6l.254-4.238s-7.78-.897-10.775 2.55c-2.996 3.452-2.238 6.842-1.984 7.624.25.787.764 1.96.764 1.96l4.29-1.308-.833-1.48zM395.022 205.706c1.67-.937 3.81-4.027 3.81-5.636 0-2.83-3.323-5.116-7.422-5.116l-1.654-.708-.758-2.48s9.22-1.175 11.75 3.265c2.517 4.437 1.223 7.333.172 9.665-1.06 2.337-3.46 3.516-3.46 3.516l-2.438-2.504zM385.405 198.375c.537-.575.858-1.275.858-2.024 0-2.028-2.34-3.682-5.21-3.682-1.06 0-3.112.222-3.93.6l-.25-4.238s7.774-.897 10.77 2.55c2.992 3.452 2.237 6.842 1.98 7.624-.244.787-.756 1.96-.756 1.96l-4.29-1.308.828-1.48z"/><path fill="#be0027" stroke-width="1.177" stroke-linecap="round" stroke-linejoin="round" d="M354.342 205.737c4.837-5.01 12.36-8.237 20.805-8.237 8.448 0 15.963 3.226 20.8 8.237l-5.813 15.906h-30.288l-5.504-15.906z"/><path stroke-width="1.177" d="M378.99 203.353l-3.875-2.55-3.824 2.55 1.49-13.11h4.707l1.502 13.11z"/></g><g fill="#fff"><ellipse cx="375.161" cy="193.638" rx="1.371" ry="1.416"/><ellipse cx="375.161" cy="196.607" rx="1.739" ry="1.794"/><ellipse cx="375.156" cy="200.438" rx="2.195" ry="2.266"/><g id="a"><ellipse cx="349.305" cy="204.694" rx="2.144" ry="2.215"/><ellipse cx="347.789" cy="200.991" rx="2.147" ry="2.215"/><ellipse cx="348.383" cy="196.953" rx="2.145" ry="2.217"/><ellipse cx="350.853" cy="193.739" rx="2.146" ry="2.216"/><ellipse cx="354.515" cy="191.877" rx="2.143" ry="2.218"/><ellipse cx="358.457" cy="191.158" rx="2.147" ry="2.217"/><ellipse cx="360.382" cy="195.235" rx="2.147" ry="2.215"/><ellipse cx="360.997" cy="199.433" rx="2.15" ry="2.215"/><ellipse cx="362.584" cy="191.582" rx="2.144" ry="2.215"/><ellipse cx="366.057" cy="189.409" rx="2.146" ry="2.215"/><ellipse cx="370.144" cy="188.964" rx="2.147" ry="2.216"/></g><use xlink:href="#a" transform="matrix(-1 0 0 1 750.3 0)"/></g><ellipse fill="#4c86c7" cx="375.147" cy="189.454" rx="3.071" ry="3.169"/><path fill="#ecd21c" d="M376.222 188.757v-3.984h1.35v-2.222h-1.35v-1.39h-2.15v1.39h-1.347v2.223h1.347v3.984h-1.893v1.437h5.93v-1.437h-1.888z"/><path d="M400.414 207.095c-.61-.92-1.476-1.466-2.44-1.56-.375-.02-.733.027-1.064.132-.036-.014-.06-.048-.09-.062l-.56-.32-.54.353c-.127.08-.203.186-.3.28-.02-.01-.032-.028-.05-.04l-.57-.3s-.46.317-.506.354c-.53-.27-1.092-.413-1.642-.39l-.725.037s-.028.077-.033.104c-.387-.424-.906-.728-1.483-.91l-.133-.628-.607-.188c-.022-.003-.046-.003-.067-.006-.006-.155-.017-.296-.05-.463l-.153-.637-.608-.165c-.157-.6-.432-1.153-.825-1.57l-.507-.535-.677.288c-.52.22-.98.617-1.355 1.106-.023-.002-.615-.09-.615-.09l-.383.525c-.096.128-.172.262-.235.397-.02-.003-.03-.008-.05-.014l-.63-.078s-.356.508-.37.525c-.6-.057-1.197.015-1.71.245 0 0-.15.064-.298.13l-.38-.27c-.483-.354-1.093-.537-1.725-.6-.006-.006-.006-.02-.017-.037l-.257-.604-.633-.055c-.04-.004-.074-.004-.11-.004-.033-.16-.082-.322-.16-.488l-.27-.596-.632-.03h-.025c-.28-.604-.677-1.11-1.175-1.458l-.605-.426-.596.426c-.496.348-.89.854-1.17 1.46h-.026l-.634.028-.27.596c-.08.166-.125.328-.16.488-.04 0-.073 0-.11.003l-.63.054-.26.604c-.008.015-.012.03-.014.037-.634.063-1.246.246-1.726.6 0 0-.23.16-.402.285-.177-.076-.343-.145-.343-.145-.516-.23-1.112-.3-1.717-.245-.014-.016-.357-.525-.357-.525l-.64.078-.05.014c-.067-.135-.135-.27-.23-.396l-.384-.523s-.597.088-.617.09c-.374-.49-.837-.886-1.363-1.106l-.668-.287-.51.534c-.393.42-.665.97-.83 1.57-.013.007-.595.166-.595.166l-.156.636c-.04.166-.048.307-.053.462-.016.002-.044.002-.063.006l-.614.188s-.132.6-.134.627c-.572.183-1.09.487-1.476.91-.008-.027-.036-.104-.036-.104l-.73-.037c-.543-.025-1.108.12-1.64.39-.047-.038-.502-.355-.502-.355l-.568.3c-.02.013-.033.03-.052.04-.095-.094-.18-.2-.303-.28l-.544-.353-.55.32c-.032.014-.066.048-.09.062-.335-.105-.698-.153-1.068-.13-.967.092-1.83.638-2.443 1.558l-1.085 1.623 1.914.117c.01 0 1.047.08 1.76.84.522.562 5.86 11.07 5.86 11.07l.898-.383c5.314-2.205 10.532-3.28 15.947-3.28 5.44 0 10.67 1.08 16.002 3.31l.9.373s5.29-10.528 5.815-11.09c.71-.76 1.745-.84 1.753-.84l1.902-.117-1.075-1.623z" stroke="none"/><path fill="#ecd21c" d="M375.116 212.19c-6.244 0-12.34 1.242-18.142 3.638l1.793 3.507c5.26-2.186 10.597-3.366 16.35-3.366 5.778 0 11.137 1.19 16.408 3.387l1.8-3.5c-5.825-2.415-11.94-3.667-18.21-3.667z" stroke="none"/><path fill="#ecd21c" d="M399.532 207.73c-.908-1.36-2.276-1.245-2.76-.737-.132-.172-.29-.313-.475-.422-.398.26-.584.74-.705 1.276-.146-.427-.36-.787-.72-.985-.173.128-.33.282-.44.464-.524-.463-1.153-.7-1.725-.67-.186.563-.138 1.25.16 1.9-.212.06-.39.164-.55.312.142.722.92 1.16 1.634 1.55-.388.572-1.043 1.56-1.368 2.074-.63-.217-1.093-.815-1.093-1.543 0-.207.036-.41.108-.598.036-.104.06-.2.06-.3 0-.338-.2-.65-.515-.786-.413-.166-.887.032-1.054.46-.288.72-.962 1.188-1.713 1.188-1.02 0-1.848-.844-1.853-1.896l.167-.943c.15.035.307.073.467.124.905.264 2.012.698 2.74.18-.024-.22-.095-.43-.187-.63.655-.27 1.156-.743 1.41-1.293-.405-.45-1.034-.73-1.74-.768.04-.214.036-.446-.015-.658-.39-.12-.804-.01-1.207.186.28-.48.468-.972.353-1.45-.213-.063-.43-.074-.638-.04-.014-.734-.257-1.39-.67-1.828-.55.236-1.023.746-1.31 1.403-.187-.11-.387-.187-.602-.217-.298.395-.312.925-.23 1.48-.292-.345-.633-.617-1.043-.665-.128.178-.21.388-.262.603-.665-.252-1.35-.245-1.89 0 .02.61.305 1.248.813 1.763-.168.143-.313.308-.415.505.465.766 1.647.82 2.582.945.095.002.18.02.267.035l-.134.745c-.048.068-.083.143-.116.224-.266.756-.968 1.268-1.746 1.268-1.022 0-1.854-.856-1.854-1.912 0-.467-.356-.832-.797-.837h-.098c-.364 0-.684.25-.78.617-.227.832-.95 1.403-1.785 1.403-1.03 0-1.857-.857-1.857-1.915v-.45c.14.003.29.014.453.028.997.077 2.227.28 2.87-.408-.068-.226-.18-.43-.33-.615.624-.414 1.058-1.02 1.2-1.647-.512-.37-1.218-.524-1.954-.412-.006-.236-.055-.468-.152-.68-.434-.04-.828.167-1.216.463.2-.557.297-1.114.076-1.584-.23-.01-.453.02-.668.097-.16-.75-.55-1.385-1.075-1.745-.515.36-.904.995-1.064 1.745-.214-.076-.44-.107-.665-.097-.22.47-.13 1.027.072 1.583-.385-.297-.788-.504-1.217-.464-.094.212-.15.444-.15.68-.74-.112-1.45.042-1.96.412.145.627.57 1.233 1.206 1.647-.152.184-.268.39-.328.615.64.69 1.873.485 2.863.408.138-.01.267-.014.398-.026v.448c0 1.058-.837 1.916-1.857 1.916-.835 0-1.574-.572-1.793-1.404-.093-.367-.414-.617-.78-.617h-.094c-.445.006-.8.37-.8.837 0 1.056-.832 1.912-1.855 1.912-.782 0-1.483-.51-1.747-1.267-.025-.08-.07-.157-.114-.224l-.14-.746c.085-.014.18-.033.268-.034.94-.126 2.12-.18 2.593-.946-.107-.197-.25-.362-.42-.505.504-.515.79-1.154.81-1.764-.537-.244-1.226-.25-1.887.002-.05-.215-.14-.425-.264-.603-.408.05-.742.32-1.042.665.083-.554.064-1.085-.228-1.48-.212.03-.413.107-.606.216-.286-.656-.76-1.166-1.31-1.402-.41.437-.655 1.094-.666 1.827-.217-.034-.432-.022-.642.04-.112.48.072.97.35 1.45-.4-.198-.812-.305-1.21-.186-.045.212-.048.445-.01.658-.704.038-1.333.32-1.74.77.247.548.76 1.022 1.415 1.292-.103.2-.17.408-.19.63.722.517 1.825.083 2.733-.18.172-.052.323-.09.465-.124l.177.942c-.01 1.053-.84 1.897-1.853 1.897-.76 0-1.435-.467-1.72-1.187-.163-.43-.637-.627-1.055-.462-.314.136-.502.448-.502.786 0 .1.015.195.052.298.072.19.107.39.107.598 0 .73-.463 1.326-1.095 1.543-.32-.514-.98-1.503-1.37-2.074.722-.39 1.496-.83 1.64-1.55-.16-.15-.348-.252-.547-.313.29-.65.34-1.336.15-1.9-.572-.03-1.2.207-1.72.67-.12-.182-.268-.335-.436-.463-.358.198-.577.558-.733.985-.11-.535-.303-1.016-.697-1.274-.188.11-.345.25-.476.423-.484-.508-1.862-.624-2.76.735 0 0 1.436.06 2.473 1.177.597.64 1.068 1.32 1.36 1.757.02.072.044.138.08.203l1.793 2.882c.12.315.417.515.746.515 1.38 0 2.547-.913 2.998-2.18.51.3 1.09.495 1.71.495 1.294 0 2.412-.746 3.006-1.838.617.56 1.396.907 2.25.907 1.247 0 2.334-.687 2.946-1.714.63.615 1.462.99 2.375.99 1.075 0 2.04-.516 2.672-1.31.64.794 1.602 1.31 2.684 1.31.903 0 1.744-.375 2.37-.99.61 1.027 1.696 1.714 2.945 1.714.858 0 1.638-.348 2.244-.908.597 1.09 1.723 1.837 3.017 1.837.617 0 1.194-.196 1.71-.496.45 1.27 1.615 2.182 2.994 2.182.327 0 .622-.2.747-.515l1.783-2.882c.047-.065.072-.13.095-.203.28-.436.76-1.118 1.356-1.757 1.04-1.116 2.473-1.177 2.473-1.177z" stroke="none"/><g fill="#be0027"><path d="M357.246 216.63l.78 2.018 1.292-1.673-2.072-.346z"/><ellipse cx="361.159" cy="216.268" rx="1.077" ry="1.085"/><path fill="#4c86c7" d="M367.616 214.746c.117.582-.255 1.156-.835 1.28l-2.104.44c-.584.12-1.15-.257-1.273-.843-.116-.584.253-1.158.837-1.28l2.1-.44c.584-.123 1.154.255 1.276.843z"/><ellipse cx="369.854" cy="214.372" rx="1.073" ry="1.081"/><path d="M375.213 213.017l-3.116 1.085 3.116 1.08 3.114-1.08-3.114-1.085z"/><ellipse cx="380.572" cy="214.372" rx="1.075" ry="1.081"/><path fill="#4c86c7" d="M382.808 214.746c-.114.582.26 1.156.837 1.28l2.105.44c.577.12 1.146-.257 1.268-.843.126-.584-.248-1.158-.83-1.28l-2.11-.44c-.576-.123-1.146.255-1.27.843z"/><ellipse cx="389.257" cy="216.268" rx="1.077" ry="1.085"/><path d="M392.99 216.63l-.77 2.018-1.303-1.673 2.074-.346z"/></g><g fill="#fff"><ellipse cx="354.17" cy="210.089" rx="1.075" ry="1.083"/><ellipse cx="363.964" cy="206.212" rx="1.073" ry="1.085"/><ellipse cx="375.118" cy="205.05" rx="1.075" ry="1.085"/><ellipse cx="386.269" cy="206.212" rx="1.077" ry="1.085"/><ellipse cx="396.067" cy="210.089" rx="1.071" ry="1.083"/></g></g><path fill="#4c86c7" stroke-width="1.868" stroke-linecap="round" stroke-linejoin="round" d="M345.464 220.855h59.17v51.893c0 17.133-29.58 17.133-29.58 17.133s-29.59 0-29.59-17.132v-51.893z"/><path id="b" fill="#fff" stroke-width="1.25" d="M371.015 236.88l-6.92-7.668c-1.216-1.357-3.167-1.357-4.378-.006l-6.92 7.674h18.218z"/><use xlink:href="#b" y="15.323"/><use xlink:href="#b" y="30.866"/><use xlink:href="#b" x="13.114" y="46.291"/><use xlink:href="#b" x="26.293"/><use xlink:href="#b" x="26.293" y="15.323"/><use xlink:href="#b" x="26.293" y="30.866"/><g fill="#a5a7a9" stroke-width="1.249" stroke-linecap="round" stroke-linejoin="round"><path d="M405.1 172.797c2.308 4.682 10.648 6.012 13.44 5.946 1.39-.03 2.705-.28 3.9-.797-.132.437-.29.856-.478 1.26-1.18 2.612-3.447 4.617-6.224 5.428.9 2.83 2.944 3.818 5.133 4.7-2.43.76-18.28 2.075-28.47-8.536M344.74 172.797c-2.3 4.682-10.642 6.012-13.44 5.946-1.383-.03-2.7-.28-3.896-.797.13.437.286.856.474 1.26 1.178 2.612 3.45 4.617 6.223 5.428-.9 2.83-2.934 3.818-5.127 4.7 2.427.76 18.277 2.075 28.47-8.536"/><path d="M393.997 178.116l-1.636 2.81s1.91.48 3.887.96c1.977.478 2.926.11 4.298-1.436 1.63-1.86 3.405-4.604 3.405-4.604l.02-.047c.68-1.033 1.075-2.268 1.075-3.606 0-3.18-2.262-5.828-5.245-6.422l-.063-.02c-7.99-1.455-16.228-2.22-24.634-2.22h-.36c-8.406 0-16.644.765-24.63 2.22l-.068.02c-2.992.594-5.25 3.242-5.25 6.422 0 1.338.402 2.573 1.08 3.605l.02.046s1.77 2.744 3.4 4.604c1.374 1.545 2.328 1.914 4.304 1.437 1.97-.48 3.885-.96 3.885-.96l-1.636-2.81-.223-.49-3.15.473c7.222-1.305 14.662-1.987 22.267-1.987h.36c7.596 0 15.043.682 22.27 1.987l-3.095-.447-.28.463z"/><g fill="#000" stroke="none"><path d="M355.727 174.964c-1.268.255-2.636-.227-3.075-2.24-.384-1.746.696-3.026 1.895-3.274 1.266-.262 2.634.203 3.07 2.214.387 1.75-.69 3.05-1.89 3.3zm-1.09-4.828c-.593.122-.996.62-.626 2.327.373 1.705 1.038 1.93 1.63 1.81.597-.127.99-.64.618-2.346-.374-1.703-1.03-1.914-1.62-1.79zM365.24 173.157c-.937.524-2.13.648-3.11.172-.83-.39-1.403-1.228-1.51-2.132-.125-.816.114-1.7.714-2.28.77-.763 1.92-1.02 2.973-.91.198-.015.186.202.208.337l.144 1.037c-.003.163-.208.118-.32.15-.133.046-.267-.02-.28-.167-.082-.21-.102-.493-.35-.578-.374-.105-.79-.014-1.12.178-.527.324-.68.995-.648 1.575.037.748.298 1.57.964 1.988.626.38 1.45.295 2.064-.065.173-.023.175.186.226.3.024.125.148.285.043.394zM372.7 172.635c.017.188-.184.144-.303.158l-3.873.214c-.174-.002-.118-.213-.14-.33-.02-.18.197-.17.317-.212.122-.032.294-.042.303-.205.003-.37-.038-.74-.053-1.11-.054-.914-.102-1.83-.16-2.744-.002-.186-.186-.217-.33-.223-.124-.03-.333.01-.347-.165.01-.114-.06-.267.053-.34.39-.042.786-.047 1.178-.074.945-.05 1.89-.103 2.834-.154.164.034.107.232.128.355.012.284.04.57.042.854-.065.11-.22.06-.33.084-.16.044-.196-.132-.228-.248-.035-.174-.14-.374-.354-.33-.43.026-.864.038-1.293.075-.1.084-.03.23-.04.343.027.364.036.73.073 1.094.078.093.217.03.324.04.53-.027 1.063-.062 1.595-.08.112.062.06.22.083.328-.008.117.063.268-.05.35-.435.038-.876.046-1.314.073-.18.015-.366.005-.543.037-.094.083-.028.224-.037.335.027.424.043.85.078 1.272.03.217.267.192.43.178.38-.023.76-.037 1.14-.065.213-.023.25-.243.276-.414.002-.13.077-.253.223-.226.112.01.31-.073.328.093-.002.346-.007.693-.007 1.038zM381.614 172.833c-.77-.02-1.538-.04-2.307-.058-.18-.018-.097-.236-.11-.36.03-.177.245-.134.378-.17.187.016.336-.152.23-.335-.068-.2-.11-.414-.197-.606-.126-.06-.283-.02-.423-.038-.52-.01-1.043-.023-1.565-.035-.136.042-.138.22-.2.33-.052.174-.184.34-.146.524.086.125.265.098.397.144.164-.002.25.135.214.287.038.17-.107.258-.262.22l-1.772-.04c-.188-.016-.107-.233-.114-.358.018-.163.226-.145.344-.202.22-.073.25-.34.35-.522.634-1.443 1.266-2.886 1.902-4.328.123-.045.27-.005.404-.015.266.01.538-.003.8.023.12.236.183.5.278.748.467 1.34.928 2.678 1.398 4.015.055.248.346.215.506.342.03.127.036.286-.018.407-.005.047-.078 0-.086.03zm-2.73-3.886c-.09-.242-.124-.54-.184-.763-.136.592-.403 1.144-.614 1.712-.076.205-.168.405-.234.613.074.085.225.03.334.05.387.005.774.027 1.16.02.05-.093-.046-.218-.06-.325-.134-.436-.27-.874-.4-1.308zM390.52 168.792c-.152.017-.308.008-.456.044-.162.142-.112.385-.154.578l-.474 4.13c-.06.11-.23.014-.337.026-.17-.025-.345-.02-.507-.07-.3-.477-.57-.976-.86-1.463-.418-.738-.872-1.457-1.256-2.215-.083-.26-.1-.053-.11.09-.092.837-.19 1.674-.28 2.51-.033.217.2.237.35.28.122.047.352.038.324.226-.025.126.004.363-.196.32-.705-.08-1.413-.145-2.117-.236-.108-.104-.048-.307 0-.435.173-.1.404-.01.578-.11.127-.165.09-.393.13-.59.127-1.115.262-2.23.384-3.345.03-.214-.198-.247-.35-.292-.143-.023-.304-.1-.244-.27-.022-.168.08-.313.26-.247l1.59.168c.204.06.25.302.358.462.48.882.977 1.754 1.44 2.645.06.174.145.317.14.063.08-.72.17-1.437.245-2.156.03-.21-.19-.246-.34-.282-.128-.05-.363-.037-.342-.23.023-.126 0-.365.197-.316l2.073.22c.184.048.078.277.073.413-.02.047-.07.076-.12.082zM395.362 174.656c-1.273-.243-2.34-1.21-1.934-3.225.353-1.757 1.853-2.522 3.055-2.295 1.28.24 2.35 1.19 1.944 3.202-.354 1.76-1.866 2.543-3.065 2.32zm.928-4.852c-.59-.118-1.162.19-1.51 1.9-.345 1.712.177 2.172.773 2.285.605.115 1.17-.21 1.514-1.923.345-1.712-.18-2.153-.777-2.263z"/></g></g><g id="c" fill="#c09b5a" stroke-width="1.207" stroke-linecap="round" stroke-linejoin="round"><path d="M321.68 264.457c3.063 1.195 5.647 3.452 7.357 6.35l.033.063c.343.61.537 1.325.537 2.08 0 1.103-.418 2.11-1.09 2.84l-.033.03c-.8.89-1.293 2.097-1.293 3.423 0 2.38 1.57 4.358 3.66 4.836l.027.01c2.483.544 4.352 2.882 4.352 5.69h-5.45c-1.187 0-2.408-.665-3.07-2.13-1-2.356-3.5-6.473-5.696-7.57.064-.4.817-1.51.817-1.93 0-3.34-2.15-3.233-5.08-3.96l-.955-.175s.566-2.28 1.977-4.82c1.413-2.535 3.91-4.74 3.91-4.74zM334.28 230.306l7.737-11.984.03-.025c.733-1.1 1.937-1.81 3.294-1.81 2.232 0 4.044 1.925 4.044 4.306h-4.043l-3.215 6.09-2.075 9.058-1.16 1.73-.098.22"/><path d="M304.208 272.02c-.067.578-.102 1.167-.102 1.758 0 .754.054 1.507.155 2.248l.013.076c.037.284.06.577.06.875 0 2.763-1.645 5.105-3.948 6.006l-.017.028c-.04.41-.062.83-.062 1.252 0 2.59.79 4.962 2.115 6.914l.068.14c1.06 1.598 1.814 3.408 2.19 5.372.446 2 2.008 2.81 3.22 2.81h6.36c0-3.21-2.437-5.804-5.448-5.804l-.048-.01c-1.183-1.288-1.91-3.057-1.91-4.998 0-2.987 1.72-5.552 4.163-6.62l.03-.03c2.91-1.293 4.954-4.343 4.954-7.906l.024-.084c2.54-7.658 7.896-13.89 14.75-17.3l.05-.02c5.046-2.34 8.567-7.737 8.567-13.978 0-4.81-2.092-9.088-5.36-11.877 0 0 .043-5.58.043-6.95.693-.628 1.266-1.08 2.977-2.426 2.268-1.776 3.817-3.022 4.32-5.7.305-1.674 1.194-7.314-1.047-6.97-2.233.34-5.48 1.74-5.48 1.74-1.295-.553-1.64-1.26-3.12-1.26-.986 0-2.773.518-3.686.764-4.92 1.347-8.557 6.11-8.557 11.77l.087 13.44c0 9.7-4.6 18.252-11.606 23.323l-.013.026c-2.958 2.09-5.147 5.307-6.02 9.073l-.018.097c-.412 1.72-1.873 2.692-3.175 2.692-1.306 0-2.607-.522-3.602-1.584-1.98-2.106-1.98-5.54 0-7.658.668-.722.668-1.872 0-2.582-.665-.712-1.756-.712-2.424 0-3.315 3.536-3.315 9.296 0 12.828 3.148 3.347 8.155 3.52 11.502.525.178-1.668.61-3.26 1.253-4.72-.644 1.46-1.075 3.052-1.253 4.72"/><path d="M333.067 240.58c3.344 1.89 7.078-.012 8.914-3.165.642-1.092.303-2.917.668-3.998l.03-.068c.394-1.174 1.457-2.03 2.7-2.03l.006 8.978s-.81.86-2.914 3.1c-2.105 2.238-4.414 5.432-6.84 4.684-2.42-.744-10.395-2.71-10.395-2.71M323.034 217.794s-.85 2.54.314 5.076c.797 1.754 2.44 2.772 4.158 2.787 1.04-1.448 1.297-3.452.49-5.2-.08-.176-1.922-4.134-1.922-4.134"/><path fill="#000" stroke-linejoin="miter" d="M333.11 214.157c-.513.215-1.04.264-1.48.16.252-.4.658-.758 1.17-.978l.31.817z"/><path fill="#000" stroke-width=".624" d="M338.186 209.038c0 1.98 1.512 3.593 3.374 3.593v-2.312c-.002-.953-.313-1.42-1.21-1.28h-2.164z"/><path fill="#000" d="M341.43 215.15s-2.267 2.407-5.078 3.18"/><g fill="#000" stroke="none"><path fill="#a5a7a9" stroke="#000" stroke-width=".603" d="M319.525 227.452c2.138.75 4.43 1.158 6.8 1.158 2.678 0 5.234-.517 7.597-1.45v3.663c-2.363.94-4.92 1.45-7.596 1.45-2.37 0-4.663-.406-6.8-1.155v-3.666z"/><ellipse cx="322.13" cy="230.017" rx="1.085" ry="1.156"/><ellipse cx="326.827" cy="230.431" rx="1.083" ry="1.157"/><ellipse cx="331.393" cy="229.823" rx="1.086" ry="1.153"/></g></g><use xlink:href="#c" transform="matrix(-1 0 0 1 750.2 0)"/></g></svg>