<svg xmlns="http://www.w3.org/2000/svg" xmlns:xlink="http://www.w3.org/1999/xlink" width="600" height="300"><path fill="#cf142b" d="M0 0h600v300H0z"/><g fill="#f9dd16" stroke="#000"><g id="a"><path d="M225.97 126.346c.22.225 2.857 1.82 2.903 1.73.046-.088 6.903-1.67 6.857-1.58-.045.087-3.842 4.6-3.665 4.69.176.092 3.967 4.632 4.055 4.677.088.046-7.18-.597-7.18-.597l-4.807 3.876-1.076-5.03s-6.047-2.134-6.135-2.18c-.088-.045 5.175-1.785 5.175-1.785l1.57-4.103s2.036.387 2.303.302z"/><path fill="#fff" stroke-width="1.3" d="M314.466 136.204c.014-4.24-8.335-23.424-9.71-26.374-2.557-3.2-5.263-8.27-6.426-12.647-.753-4.42-3.117-7.885-6.45-9.06-3.844-2.04-7.6-1.24-11.213-.927-1.772.377-3.29 1.334-4.145 2.744-1.952 2.792-3.013 2.58-4.363 3.782-11.114 1.732-21.624 7.467-29.62 11.376-4.233 2.94-7.827 4.646-9.492 5.005-4.514.017-7.797-2.122-9.365-3.26l-15.337-13.946c-4.43-3.307-5.527 1.467-4.676 2.196 1.48 3.18-1.723 5.115 10.438 16.57l4.606 9.465s-.255 2.588-.04 2.7c2.22 5.288 5.746 3.97 7.41 2.486l3.614-3.29s7.16-2.268 7.272-2.482c7.68 1.143 27.465-2.626 30.727-4.175 2.94-1.646 3.128-.252 5.675-2.326 2.13-1.41.96-.287 4.893-3.882 1.21-1.042 2.17.645 2.395 1.824.22 11.17 1.587 18.306 2.606 29.443L300 150z"/><path stroke="none" d="M217.84 102.282c.152.135-2.765 9.63-2.765 9.63s-2.69-2.68-2.666-2.724l1.882-9.977 3.547 3.072z"/><g fill="none"><path stroke-width="1.13" d="M217.922 101.93c-.133.64-.698 3.503-.96 4.286-.22.866-.418 1.74-.564 2.607-.27.948-.388 1.568-.688 2.543-.096.835-.27 1.62-.484 2.455m-1.85-16.245c.058.123.274.985.306 1.54-.102.582-.264 2.667-.487 3.373-.177.783-.33 1.575-.436 2.362-.224.857-.31 1.42-.562 2.3-.057.76-.194 1.47-.366 2.226"/><path d="M262.227 96.635c3.578 3.982 4.688 10.454 4.04 14.077M248.384 120.222l.065-.124c-.204.39-.047.167-.43-.698-.406-.448-.692-2.625-.067-3.828.24-.614.64-1.538.942-2.12.086-.165.33-.33.416-.496M222.796 106.78c-.02.04-.043.08-.065.123.088-.166-.17.332-.257.498-.335.647-.787 1.235-1.094 1.805-.325.622-.824 1.153-1.148 1.776-.415.583-.78 1.356-1.21 1.958-.402.716-.85 1.226-1.244 1.985-.34.6-.614.877-.966 1.555l.966-1.555c-.34.6-.614.877-.966 1.555M209.803 94.658c.062.117.304.93.354 1.45-.08.538-.167 2.48-.36 3.13-.148.726-.272 1.46-.348 2.192-.19.792-.257 1.314-.473 2.126-.03.71-.14 1.367-.282 2.067M225.393 117.556c-.84-.883-1.333-.56-1.873-.6-.598.106-1.684.606-2.787 1.715-.403.44-.74.763-1.274 1.236-.24.373-.438.514-.703.743M288.476 87.76c-.02.042-.043.084-.065.125.204-.39.057-.17.24.757.243.64.272 1.083.54 1.702M275.42 91.218c-.044.083-.153 9.118.22 10.283.113.746.314 1.372.418 2.262 0 .537.127.987.165 1.51.306.576.37 1.155.684 1.618.153.638.664.664.938 1.26.382.41 1.01 1.138 1.388 1.464M269.142 115.953c-.278-.095-.992-.66-1.6-.963-.688-.388-2.383-2.41-2.464-3.835"/><path d="M275.902 103.13c-.022.042-.942.948-2.448 2.48-1.927 1.782-7.17 4.85-7.8 5.098-.604.274-1.358.932-1.954 1.024-.685.273-1.368.38-2.016.534-.79.167-1.462.31-2.076.345-1.843.803-11.554.49-12.055.382-.52-.004-1.226-.042-1.693-.088-.462.11-1.01.064-1.633.1-.755-.06-1.188.084-1.823.16-.5.265-1.333.538-1.896.914-.772.312-1.24.737-1.773.976-.554.458-8.11 4.867-8.476 5.064-.794.35-3.64 1.195-4.354-.807-.183-.786-.546-1.598-.568-2.2-.23-.722-.1-1.493-.06-2.166.66-3.41 1.755-4.753 2.057-5.335l.323-.623M297.882 96.44c-.02.04-.043.082-.065.123.175-.336.094-.16-.383.434-.486.392-1.086 1.014-1.527 1.42-.446.44-.874 1.066-1.274 1.235-.402.526-.91.692-1.46.982-.74.277-1.253.518-1.895.912-.82.436-1.33.852-2.09 1.287-.47.597-.946.97-1.344 1.673-.394.653-.787 1.213-1.16 1.928-.3.582-.602 1.162-.904 1.744l.905-1.744c-.3.582-.603 1.162-.905 1.744M291.57 144.224c.042-.083.085-.166.13-.25-.24.46-.157.34.068-.437.002-.933.223-2.06.233-2.884.14-.87.283-1.812.292-2.694-.053-1.033-.05-1.958-.205-2.953-.012-.916-.12-1.866-.147-2.764-.016-.89-.083-1.65-.276-2.514-.017-.647-.057-1.534-.215-2.326.084-.624-.094-1.198-.227-1.698-.24-.962-.335-1.523-.588-2.52-.153-.533-.304-1.216-.534-2.015-.082-.757-.488-1.74-.653-2.394-.225-.48-.452-1.13-.54-1.702-.235-.528-.57-1.17-.663-1.768-.248-.455-.513-1.162-.787-1.832-.237-.55-.41-1.228-.664-1.767-.254-.68-.564-1.262-.723-1.956-.243-.235-.298-.493-.43-.696"/></g><path d="M289.89 91.736c-.845 1.932-3.022 4.754-3.054 4.816l-2.072 4.142c-.912 2.267-.33 3.175.068 3.83.825 1.455.97 2.242 1.58 3.35.23 1.383-2.224 1.85-2.257 1.91-5.11 1.774-7.702-3.13-7.73-3.38-.692-2.573-.602-3 .964-3.53 1.795-.413 2.516-.434 3.405-1.08 1.682-1.26 2.87-5.07 2.902-5.132.032-.063.252-2.16.252-2.16.13-1.014-.338-1.942.18-3.544.67-1.548 1.075-1.97 2.666-2.093 2.074-.188 3.684 1.28 3.094 2.87z"/></g><use xlink:href="#a" transform="rotate(120 300 150)"/><use xlink:href="#a" transform="rotate(240 300 150)"/><path stroke-width="1.3" d="M304.618 169.37c-1.774-.903-3.127-1.083-3.774-.646-1.027-5.746-1.932-11.5-3.25-17.227-10.897-4.537-13.2-5.573-16.775-7.127 1.668-1.085 2.5-2.167 2.445-2.945 5.49 1.983 10.925 4.076 16.545 5.797 9.377-7.167 11.426-8.644 14.56-10.963.104 1.987.625 3.25 1.327 3.59-4.462 3.763-8.993 7.423-13.294 11.43 1.52 11.705 1.773 14.217 2.215 18.09z"/></g></svg>