<svg xmlns="http://www.w3.org/2000/svg" xmlns:xlink="http://www.w3.org/1999/xlink" version="1" width="600" height="300"><path font-size="12" fill="#fff" fill-rule="evenodd" d="M0 0h600v300H0z"/><path d="M600 260.88c-6.723 4.046-12.5 13.5-30.36 13.5-35.71 0-44.64-19.903-71.427-19.903-17.856 0-26.785 19.902-44.64 19.902-35.716 0-44.644-19.903-71.43-19.903-17.857 0-26.786 19.902-44.643 19.902-35.714 0-44.643-19.903-71.428-19.903-17.858 0-26.786 19.902-44.643 19.902-35.715 0-44.644-19.903-71.43-19.903-17.858 0-26.786 19.902-44.643 19.902-35.714 0-44.643-19.903-71.428-19.903-17.86 0-23.216 14.182-33.93 14.182v25.62c10.714 0 16.07-14.18 33.93-14.18 26.784 0 35.713 19.9 71.427 19.9 17.857 0 26.785-19.9 44.643-19.9 26.785 0 35.715 19.9 71.43 19.9 17.856 0 26.784-19.9 44.642-19.9 26.785 0 35.714 19.9 71.428 19.9 17.857 0 26.786-19.9 44.643-19.9 26.786 0 35.714 19.9 71.43 19.9 17.855 0 26.784-19.9 44.64-19.9C525 280.1 533.93 300 569.64 300c17.86 0 23.637-5.64 30.36-9.684V260.88z" id="b" font-size="12" fill="#002b7f" fill-rule="evenodd" stroke-width="1pt"/><use transform="translate(0 49.8)" width="600" height="300" xlink:href="#a"/><use transform="translate(0 -99.5)" id="a" width="600" height="300" xlink:href="#b"/><path d="M266.072 130.838c26.785 0 35.714 19.902 71.428 19.902 17.857 0 26.786-19.902 44.643-19.902 26.786 0 35.714 19.902 71.43 19.902 17.855 0 26.784-19.902 44.64-19.902 26.786 0 35.716 19.902 71.427 19.902 17.86 0 23.637-5.64 30.36-9.685V111.62c-6.723 4.046-12.5 13.498-30.36 13.498-35.71 0-44.64-19.9-71.427-19.9-17.856 0-26.785 19.9-44.64 19.9-35.716 0-44.644-19.9-71.43-19.9-17.857 0-26.786 19.9-44.643 19.9-35.714 0-44.643-19.9-71.428-19.9" id="c" font-size="12" fill="#002b7f" fill-rule="evenodd" stroke-width="1pt"/><use transform="translate(0 -49.8)" width="600" height="300" xlink:href="#c"/><use transform="translate(0 -99.5)" width="600" height="300" xlink:href="#c"/><g transform="matrix(.5 0 0 .5 0 154.7)"><path id="f" fill="#fff" fill-rule="evenodd" d="M0-309.444h600v300H0z"/><path d="M.61-43.944l-.61-231L233-159.9.61-43.943z" id="d" fill="#002b7f" fill-rule="evenodd"/><use transform="matrix(-1 0 0 1 600 0)" width="600" height="600" xlink:href="#d"/><use transform="matrix(0 -.5 2 0 621.6 -9.4)" id="e" width="600" height="600" xlink:href="#d"/><use transform="matrix(1 0 0 -1 0 -318.9)" width="600" height="600" xlink:href="#e"/></g><path d="M177.64 50H200L300 0h-22.36l-100 50zM0 0v11.18L77.64 50H100L0 0zM300 150v-11.18L222.36 100H200l100 50zM0 150h22.36l100-50H100L0 150z" fill="#ce1126" fill-rule="evenodd"/><g transform="matrix(.5 0 0 .5 0 0)"><use transform="matrix(1 0 0 .3 0 203.1)" id="g" width="600" height="300" xlink:href="#f"/><use transform="matrix(0 .5 -1 0 450 0)" width="600" height="300" xlink:href="#g"/></g><rect width="300" height="30" rx="0" ry="0" y="60" id="h" fill="#ce1124" fill-rule="evenodd"/><use transform="matrix(0 .5 -1 0 225 0)" width="600" height="300" xlink:href="#h"/><path d="M814.96-301.18l-17.716 708.66c0 37.298 80.097 37.298 88.583 0L868.11-301.18h-53.15z" transform="matrix(.1 0 0 .3 347.8 166)" fill="#a24300" fill-rule="evenodd" stroke="#fff" stroke-width="6.935"/><g font-size="12"><path d="M496.063 549.213l17.717 70.866 35.433-53.15-17.717 88.582 35.433-35.433-35.434 88.58 35.433-35.432-35.434 88.583 35.433-35.432-35.434 106.3 35.433-35.434-35.434 106.3 35.433-35.434-35.434 106.3-17.716 53.15-17.717 17.72-17.717-17.72-17.716-53.15-35.433-106.3 35.433 35.433-35.433-106.3 35.433 35.434-35.433-106.3 35.433 35.434-35.433-88.582 35.433 35.433-35.433-88.58 35.433 35.432-17.717-88.583 35.433 53.15 17.717-70.867z" transform="matrix(-.1 0 -.1 -.1 570.3 198.3)" fill="#006d00" fill-rule="evenodd" stroke="#fff" stroke-width="8.25"/><path d="M496.063 549.213v496.067M425.197 868.11l70.866 106.3 70.866-106.3" transform="matrix(-.1 0 -.1 -.1 570.3 198.3)" fill="none" stroke="#000" stroke-width="1pt"/><path d="M425.197 797.244l70.866 106.3 70.866-106.3" transform="matrix(-.1 0 -.1 -.1 570.3 198.3)" fill="none" stroke="#000" stroke-width="1pt"/><path d="M425.197 726.378l70.866 106.3 70.866-106.3" transform="matrix(-.1 0 -.1 -.1 570.3 198.3)" fill="none" stroke="#000" stroke-width="1pt"/><path d="M425.197 673.228l70.866 88.583 70.866-88.582" transform="matrix(-.1 0 -.1 -.1 570.3 198.3)" fill="none" stroke="#000" stroke-width="1pt"/><path d="M425.197 620.08l70.866 88.58 70.866-88.58" transform="matrix(-.1 0 -.1 -.1 570.3 198.3)" fill="none" stroke="#000" stroke-width="1pt"/><path d="M442.913 566.93l53.15 106.298 53.15-106.3" transform="matrix(-.1 0 -.1 -.1 570.3 198.3)" fill="none" stroke="#000" stroke-width="1pt"/><g><path d="M496.063 549.213l17.717 70.866 35.433-53.15-17.717 88.582 35.433-35.433-35.434 88.58 35.433-35.432-35.434 88.583 35.433-35.432-35.434 106.3 35.433-35.434-35.434 106.3 35.433-35.434-35.434 106.3-17.716 53.15-17.717 17.72-17.717-17.72-17.716-53.15-35.433-106.3 35.433 35.433-35.433-106.3 35.433 35.434-35.433-106.3 35.433 35.434-35.433-88.582 35.433 35.433-35.433-88.58 35.433 35.432-17.717-88.583 35.433 53.15 17.717-70.867z" transform="matrix(.1 -.1 .1 .1 267.1 64.1)" fill="#006d00" fill-rule="evenodd" stroke="#fff" stroke-width="8.25"/><path d="M496.063 549.213v496.067M425.197 868.11l70.866 106.3 70.866-106.3" transform="matrix(.1 -.1 .1 .1 267.1 64.1)" fill="none" stroke="#000" stroke-width="1pt"/><path d="M425.197 797.244l70.866 106.3 70.866-106.3" transform="matrix(.1 -.1 .1 .1 267.1 64.1)" fill="none" stroke="#000" stroke-width="1pt"/><path d="M425.197 726.378l70.866 106.3 70.866-106.3" transform="matrix(.1 -.1 .1 .1 267.1 64.1)" fill="none" stroke="#000" stroke-width="1pt"/><path d="M425.197 673.228l70.866 88.583 70.866-88.582" transform="matrix(.1 -.1 .1 .1 267.1 64.1)" fill="none" stroke="#000" stroke-width="1pt"/><path d="M425.197 620.08l70.866 88.58 70.866-88.58" transform="matrix(.1 -.1 .1 .1 267.1 64.1)" fill="none" stroke="#000" stroke-width="1pt"/><path d="M442.913 566.93l53.15 106.298 53.15-106.3" transform="matrix(.1 -.1 .1 .1 267.1 64.1)" fill="none" stroke="#000" stroke-width="1pt"/></g><g><path d="M496.063 549.213l17.717 70.866 35.433-53.15-17.717 88.582 35.433-35.433-35.434 88.58 35.433-35.432-35.434 88.583 35.433-35.432-35.434 106.3 35.433-35.434-35.434 106.3 35.433-35.434-35.434 106.3-17.716 53.15-17.717 17.72-17.717-17.72-17.716-53.15-35.433-106.3 35.433 35.433-35.433-106.3 35.433 35.434-35.433-106.3 35.433 35.434-35.433-88.582 35.433 35.433-35.433-88.58 35.433 35.432-17.717-88.583 35.433 53.15 17.717-70.867z" transform="matrix(.1 .1 -.1 .1 564.7 -24.5)" fill="#006d00" fill-rule="evenodd" stroke="#fff" stroke-width="8.25"/><path d="M496.063 549.213v496.067M425.197 868.11l70.866 106.3 70.866-106.3" transform="matrix(.1 .1 -.1 .1 564.7 -24.5)" fill="none" stroke="#000" stroke-width="1pt"/><path d="M425.197 797.244l70.866 106.3 70.866-106.3" transform="matrix(.1 .1 -.1 .1 564.7 -24.5)" fill="none" stroke="#000" stroke-width="1pt"/><path d="M425.197 726.378l70.866 106.3 70.866-106.3" transform="matrix(.1 .1 -.1 .1 564.7 -24.5)" fill="none" stroke="#000" stroke-width="1pt"/><path d="M425.197 673.228l70.866 88.583 70.866-88.582" transform="matrix(.1 .1 -.1 .1 564.7 -24.5)" fill="none" stroke="#000" stroke-width="1pt"/><path d="M425.197 620.08l70.866 88.58 70.866-88.58" transform="matrix(.1 .1 -.1 .1 564.7 -24.5)" fill="none" stroke="#000" stroke-width="1pt"/><path d="M442.913 566.93l53.15 106.298 53.15-106.3" transform="matrix(.1 .1 -.1 .1 564.7 -24.5)" fill="none" stroke="#000" stroke-width="1pt"/></g><g><path d="M496.063 549.213l17.717 70.866 35.433-53.15-17.717 88.582 35.433-35.433-35.434 88.58 35.433-35.432-35.434 88.583 35.433-35.432-35.434 106.3 35.433-35.434-35.434 106.3 35.433-35.434-35.434 106.3-17.716 53.15-17.717 17.72-17.717-17.72-17.716-53.15-35.433-106.3 35.433 35.433-35.433-106.3 35.433 35.434-35.433-106.3 35.433 35.434-35.433-88.582 35.433 35.433-35.433-88.58 35.433 35.432-17.717-88.583 35.433 53.15 17.717-70.867z" transform="matrix(-.1 .1 -.1 -.1 637.4 125.2)" fill="#006d00" fill-rule="evenodd" stroke="#fff" stroke-width="8.25"/><path d="M496.063 549.213v496.067M425.197 868.11l70.866 106.3 70.866-106.3" transform="matrix(-.1 .1 -.1 -.1 637.4 125.2)" fill="none" stroke="#000" stroke-width="1pt"/><path d="M425.197 797.244l70.866 106.3 70.866-106.3" transform="matrix(-.1 .1 -.1 -.1 637.4 125.2)" fill="none" stroke="#000" stroke-width="1pt"/><path d="M425.197 726.378l70.866 106.3 70.866-106.3" transform="matrix(-.1 .1 -.1 -.1 637.4 125.2)" fill="none" stroke="#000" stroke-width="1pt"/><path d="M425.197 673.228l70.866 88.583 70.866-88.582" transform="matrix(-.1 .1 -.1 -.1 637.4 125.2)" fill="none" stroke="#000" stroke-width="1pt"/><path d="M425.197 620.08l70.866 88.58 70.866-88.58" transform="matrix(-.1 .1 -.1 -.1 637.4 125.2)" fill="none" stroke="#000" stroke-width="1pt"/><path d="M442.913 566.93l53.15 106.298 53.15-106.3" transform="matrix(-.1 .1 -.1 -.1 637.4 125.2)" fill="none" stroke="#000" stroke-width="1pt"/></g><g><path d="M496.063 549.213l17.717 70.866 35.433-53.15-17.717 88.582 35.433-35.433-35.434 88.58 35.433-35.432-35.434 88.583 35.433-35.432-35.434 106.3 35.433-35.434-35.434 106.3 35.433-35.434-35.434 106.3-17.716 53.15-17.717 17.72-17.717-17.72-17.716-53.15-35.433-106.3 35.433 35.433-35.433-106.3 35.433 35.434-35.433-106.3 35.433 35.434-35.433-88.582 35.433 35.433-35.433-88.58 35.433 35.432-17.717-88.583 35.433 53.15 17.717-70.867z" transform="matrix(-.1 -.1 .1 -.1 385.5 241.4)" fill="#006d00" fill-rule="evenodd" stroke="#fff" stroke-width="8.25"/><path d="M496.063 549.213v496.067M425.197 868.11l70.866 106.3 70.866-106.3" transform="matrix(-.1 -.1 .1 -.1 385.5 241.4)" fill="none" stroke="#000" stroke-width="1pt"/><path d="M425.197 797.244l70.866 106.3 70.866-106.3" transform="matrix(-.1 -.1 .1 -.1 385.5 241.4)" fill="none" stroke="#000" stroke-width="1pt"/><path d="M425.197 726.378l70.866 106.3 70.866-106.3" transform="matrix(-.1 -.1 .1 -.1 385.5 241.4)" fill="none" stroke="#000" stroke-width="1pt"/><path d="M425.197 673.228l70.866 88.583 70.866-88.582" transform="matrix(-.1 -.1 .1 -.1 385.5 241.4)" fill="none" stroke="#000" stroke-width="1pt"/><path d="M425.197 620.08l70.866 88.58 70.866-88.58" transform="matrix(-.1 -.1 .1 -.1 385.5 241.4)" fill="none" stroke="#000" stroke-width="1pt"/><path d="M442.913 566.93l53.15 106.298 53.15-106.3" transform="matrix(-.1 -.1 .1 -.1 385.5 241.4)" fill="none" stroke="#000" stroke-width="1pt"/></g><g><path d="M460.63 549.213l28.643 70.866 42.223-53.15-10.184 88.582 27.9-35.433-17.716 88.58 25.25-35.432-25.25 88.583 35.433-35.432-35.434 106.3 35.433-35.434-35.434 106.3 35.433-35.434-35.434 106.3-17.716 53.15-17.717 17.72-17.717-17.72-17.716-53.15-35.433-106.3 35.433 35.433-35.433-106.3 35.433 35.434-35.433-106.3 35.433 35.434-45.617-88.582 45.617 35.433-53.15-88.58 42.966 35.432-25.25-88.583 35.433 53.15v-70.867z" transform="matrix(-.2 0 -.1 .1 624.7 -9.5)" fill="#006d00" fill-rule="evenodd" stroke="#fff" stroke-width="8.25"/><path d="M467.208 584.646l28.855 124.016v336.618" transform="matrix(-.2 0 -.1 .1 624.7 -9.5)" fill="none" stroke="#000" stroke-width="1pt"/><path d="M436.23 885.827l59.833 88.582 60.682-88.583" transform="matrix(-.2 0 -.1 .1 624.7 -9.5)" fill="none" stroke="#000" stroke-width="1pt"/><path d="M434.533 814.96l61.53 88.583 60.682-88.582" transform="matrix(-.2 0 -.1 .1 624.7 -9.5)" fill="none" stroke="#000" stroke-width="1pt"/><path d="M435.38 744.095l60.683 88.582 59.833-88.582" transform="matrix(-.2 0 -.1 .1 624.7 -9.5)" fill="none" stroke="#000" stroke-width="1pt"/><path d="M432.835 690.945l63.228 70.866 53.15-70.865" transform="matrix(-.2 0 -.1 .1 624.7 -9.5)" fill="none" stroke="#000" stroke-width="1pt"/><path d="M425.197 637.796l70.866 70.865 45.406-70.864" transform="matrix(-.2 0 -.1 .1 624.7 -9.5)" fill="none" stroke="#000" stroke-width="1pt"/><path d="M436.124 593.238l53.15 86.886 35.327-95.478" transform="matrix(-.2 0 -.1 .1 624.7 -9.5)" fill="none" stroke="#000" stroke-width="1pt"/></g><g><path d="M460.63 549.213l28.643 70.866 42.223-53.15-10.184 88.582 27.9-35.433-17.716 88.58 25.25-35.432-25.25 88.583 35.433-35.432-35.434 106.3 35.433-35.434-35.434 106.3 35.433-35.434-35.434 106.3-17.716 53.15-17.717 17.72-17.717-17.72-17.716-53.15-35.433-106.3 35.433 35.433-35.433-106.3 35.433 35.434-35.433-106.3 35.433 35.434-45.617-88.582 45.617 35.433-53.15-88.58 42.966 35.432-25.25-88.583 35.433 53.15v-70.867z" transform="matrix(.2 0 0 .1 364.9 -71.8)" fill="#006d00" fill-rule="evenodd" stroke="#fff" stroke-width="8.25"/><path d="M467.208 584.646l28.855 124.016v336.618" transform="matrix(.2 0 0 .1 364.9 -71.8)" fill="none" stroke="#000" stroke-width="1pt"/><path d="M436.23 885.827l59.833 88.582 60.682-88.583" transform="matrix(.2 0 0 .1 364.9 -71.8)" fill="none" stroke="#000" stroke-width="1pt"/><path d="M434.533 814.96l61.53 88.583 60.682-88.582" transform="matrix(.2 0 0 .1 364.9 -71.8)" fill="none" stroke="#000" stroke-width="1pt"/><path d="M435.38 744.095l60.683 88.582 59.833-88.582" transform="matrix(.2 0 0 .1 364.9 -71.8)" fill="none" stroke="#000" stroke-width="1pt"/><path d="M432.835 690.945l63.228 70.866 53.15-70.865" transform="matrix(.2 0 0 .1 364.9 -71.8)" fill="none" stroke="#000" stroke-width="1pt"/><path d="M425.197 637.796l70.866 70.865 45.406-70.864" transform="matrix(.2 0 0 .1 364.9 -71.8)" fill="none" stroke="#000" stroke-width="1pt"/><path d="M436.124 593.238l53.15 86.886 35.327-95.478" transform="matrix(.2 0 0 .1 364.9 -71.8)" fill="none" stroke="#000" stroke-width="1pt"/></g><g><path d="M354.33 531.496l88.584 88.583 17.716-53.15v88.582l35.433-35.433-17.716 88.582 35.432-35.434-17.717 88.584 35.433-35.433-17.716 106.298 35.433-35.433-35.433 106.3 35.433-35.434-17.717 106.3-17.716 53.15-17.717 17.72-17.717-17.72-17.716-53.15-53.15-82.295 35.434 11.43-35.433-106.3 35.434 35.433-53.15-106.3 35.433 35.434-53.15-88.584 53.15 35.434-70.866-88.583 53.15 35.432-70.866-70.866 70.866 35.433-53.15-88.584z" transform="matrix(0 -.1 .1 0 291.5 143.8)" fill="#006d00" fill-rule="evenodd" stroke="#fff" stroke-width="8.25"/><path d="M378.962 560.015l63.952 95.497 17.716 53.15 8.86 45.205 8.857 78.81 9.315 70.867 8.4 141.736" transform="matrix(0 -.1 .1 0 291.5 143.8)" fill="none" stroke="#000" stroke-width="1pt"/><path d="M425.197 903.544l63.665 70.866 50.75-88.583" transform="matrix(0 -.1 .1 0 291.5 143.8)" fill="none" stroke="#000" stroke-width="1pt"/><path d="M417.082 814.96l70.58 88.584 50.75-88.583" transform="matrix(0 -.1 .1 0 291.5 143.8)" fill="none" stroke="#000" stroke-width="1pt"/><path d="M407.48 752.443l70.867 80.235 45.948-88.583M372.047 637.796l88.583 70.866 25.83-70.866" transform="matrix(0 -.1 .1 0 291.5 143.8)" fill="none" stroke="#000" stroke-width="1pt"/><path d="M360.618 602.363l82.296 53.15 10.515-53.15M389.764 690.945l81.095 70.866 33.945-70.865" transform="matrix(0 -.1 .1 0 291.5 143.8)" fill="none" stroke="#000" stroke-width="1pt"/></g></g><g stroke="#000"><path d="M425.3 222.458l24.963-4.48 26.003 4.48-12.065 5.016-22.257.36-16.642-5.376z" fill="#9d9d9d" fill-rule="evenodd" stroke-width=".25535664"/><path d="M450.453 182.12c-4.363 1.517-9.196-2.134-17.064 3.824 0 0-13.718-5.868-14.76 7.694-.04.55 2.172 3.856 2.48 3.62 1.723-1.323-.82 1.285-.82 1.662 0 .38.254.59.34.758.083.17.294.422.336 1.14.042.715-1.555 2.67-.88 3.386.673.717.715 2.783.715 3.372 0 .59.423 2.234.718 2.572.294.337.8 1.18.8 1.895 0 .717.295 2.698.167 3.202-.125.505.76 1.138 1.56 1.39.8.254 11.13.433 25.63.18 14.498-.253 19.335 2.042 25.325-.137.926-.337 1.095-1.095 1.012-1.517-.086-.42 0-1.767.252-2.105.253-.337 1.94-3.034 1.6-3.54.32-.287 2.684 1.366 1.178-.11-.386-.38.216-4.362.424-5.2.21-.84.53-2.42.917-2.713.388-.293-.658-1.39-.584-1.588.075-.2.356-.818.75-1.1 0 0 .73-3.427.28-5.11-.448-1.687-2.095-9.27-12.38-7.75 0 0-13.765-5.295-17.997-3.824z" font-size="12" fill="#c00" stroke-width=".41267457"/><g fill-rule="evenodd"><g fill="#f7d917"><g stroke-width="1.241"><path d="M49.75.125c-5.093.89-15.156 29.245-12.61 38.75 1.764 6.58 4.5 11.12 6.047 13.906-3.404-4.684-11.382-13.75-22.25-13.75-13.663 0-15.43 29.95-15.093 31.876 0 .007-.002.026 0 .03 0 .006.03.03.03.033.003-.002.03 0 .032 0 .613-.716 6.142-13.095 19.657-13.095 8.896 0 15.83 7.035 18.375 10.03 0 .946.022 1.86.03 2.782-2.003 2.83-3.28 9.532-9.468 17.97C27.023 98.85 4.128 99.896.28 100h49.532c.048 0 .11.003.157 0 .02.002.04 0 .06 0 .048.003.11 0 .157 0H99.72c-3.848-.103-27.18-1.148-34.657-11.344-6.188-8.437-7.028-15.14-9.032-17.97.01-.922.033-1.835.032-2.78 2.546-2.996 9.48-10.03 18.376-10.03 13.514 0 19.043 12.378 19.656 13.093.002 0 .03-.002.03 0 .003-.005.03-.028.032-.032.002-.006 0-.025 0-.032.337-1.927-1.43-31.875-15.094-31.875-10.867 0-18.845 9.066-22.25 13.75 1.55-2.785 4.29-8.574 5.72-13.905C65.117 29.22 55.09.132 50 .125c-.08 0-.17-.014-.25 0zM43.312 52.97c.353.49.663.91.907 1.28.004.008.54 2.977.546 2.984-.003.064 2.627 10.186 2.624 10.25-.264-.392-3.737-13.915-4.078-14.515zm13.376 0c-.34.6-4.033 14.122-4.297 14.514-.002-.064 3.394-13.14 3.39-13.203 0-.01-.436 2.965-.436 2.954.244-.37.99-3.775 1.343-4.265z" transform="matrix(.1 0 0 .2 426 191.4)"/><path d="M42 67.578s4-1.86 8-1.86 8 1.86 8 1.86v4.953s-4-1.858-8-1.858-8 1.86-8 1.86v-4.954z" transform="matrix(.1 0 0 .2 426 191.4)"/><g><path d="M49.75.125c-5.093.89-15.156 29.245-12.61 38.75 1.764 6.58 4.5 11.12 6.047 13.906-3.404-4.684-11.382-13.75-22.25-13.75-13.663 0-15.43 29.95-15.093 31.876 0 .007-.002.026 0 .03 0 .006.03.03.03.033.003-.002.03 0 .032 0 .613-.716 6.142-13.095 19.657-13.095 8.896 0 15.83 7.035 18.375 10.03 0 .946.022 1.86.03 2.782-2.003 2.83-3.28 9.532-9.468 17.97C27.023 98.85 4.128 99.896.28 100h49.532c.048 0 .11.003.157 0 .02.002.04 0 .06 0 .048.003.11 0 .157 0H99.72c-3.848-.103-27.18-1.148-34.657-11.344-6.188-8.437-7.028-15.14-9.032-17.97.01-.922.033-1.835.032-2.78 2.546-2.996 9.48-10.03 18.376-10.03 13.514 0 19.043 12.378 19.656 13.093.002 0 .03-.002.03 0 .003-.005.03-.028.032-.032.002-.006 0-.025 0-.032.337-1.927-1.43-31.875-15.094-31.875-10.867 0-18.845 9.066-22.25 13.75 1.55-2.785 4.29-8.574 5.72-13.905C65.117 29.22 55.09.132 50 .125c-.08 0-.17-.014-.25 0zM43.312 52.97c.353.49.663.91.907 1.28.004.008.54 2.977.546 2.984-.003.064 2.627 10.186 2.624 10.25-.264-.392-3.737-13.915-4.078-14.515zm13.376 0c-.34.6-4.033 14.122-4.297 14.514-.002-.064 3.394-13.14 3.39-13.203 0-.01-.436 2.965-.436 2.954.244-.37.99-3.775 1.343-4.265z" transform="matrix(.1 0 0 .2 460.2 190.4)"/><path d="M42 67.578s4-1.86 8-1.86 8 1.86 8 1.86v4.953s-4-1.858-8-1.858-8 1.86-8 1.86v-4.954z" transform="matrix(.1 0 0 .2 460.2 190.4)"/></g></g><path d="M420.438 200.808l2.665-3.25s.25.322 0 0c-5.464-7.063-5.74-11.116-5.125-13.168.615-2.053 1.845-4.276 5.125-7.012 3.28-2.737 5.544-1.216 8.62-1.216 3.075 0 3.895.684 6.56 1.026 2.666.342 9.842.684 9.842.684v-1.88s.283.052 0 0c-3.17-.592-7.176 0-9.84-.685-2.667-.684-4.922-.855-7.792-.855s-4.93-.837-6.775.36c-1.845 1.197-4.1 3.25-5.74 4.96-1.64 1.71-2.46 5.13-2.256 7.354.205 2.223 1.025 4.105 2.256 5.815 1.23 1.71 1.025 3.08 1.435 4.277.41 1.197 1.025 3.762 1.025 3.59zM479.562 200.808l-2.665-3.25s-.25.322 0 0c5.464-7.063 5.74-11.116 5.125-13.168-.615-2.053-1.845-4.276-5.125-7.012-3.28-2.737-5.545-1.216-8.62-1.216-3.075 0-3.895.684-6.56 1.026-2.666.342-9.842.684-9.842.684v-1.88s-.283.052 0 0c3.168-.592 7.176 0 9.84-.685 2.667-.684 4.922-.855 7.792-.855s4.93-.837 6.775.36c1.845 1.197 4.1 3.25 5.74 4.96 1.64 1.71 2.46 5.13 2.256 7.354-.205 2.223-1.026 4.105-2.256 5.815-1.23 1.71-1.025 3.08-1.435 4.277-.41 1.197-1.025 3.762-1.025 3.59z" stroke-width=".1966679"/><path stroke-width=".22967510000000002" d="M445.536 174.44h9.507v19.5h-9.507z"/><g><path d="M446.672 157.25s1.024.832 1.81 1.903c.784 1.07 1.332 2.38 1.332 2.38s-1.31-.547-2.38-1.332c-1.07-.785-1.904-1.808-1.904-1.808v7.235s.833-1.024 1.904-1.81c1.07-.784 2.38-1.332 2.38-1.332s-.422 1.08-.694 2.38c-.245 1.17-2.25 3.87-2.25 3.87l5.858.392s-.974-3.093-1.366-4.262c-.423-1.26-.596-2.38-.596-2.38s1.31.548 2.38 1.333c1.07.785 1.904 1.81 1.904 1.81v-7.236s-.833 1.023-1.904 1.81c-1.07.784-2.38 1.33-2.38 1.33s.547-1.308 1.333-2.38c.784-1.07 1.807-1.903 1.807-1.903h-7.235z" stroke-width=".13753"/><path d="M455.005 170.143a4.715 4.715 0 1 1-9.43 0 4.715 4.715 0 1 1 9.43 0z" stroke-width=".206295"/><path d="M445.68 170.82h9.38s.135-1.815-.543-2.494h-2.914l-.05-2.72h-2.762l-.048 2.72s-1.96.098-2.864.098c-.41 1.112-.346 1.205-.346 1.205l.148 1.19z" stroke-width=".13753"/></g><g stroke-width=".75"><path d="M444.25 193.288s1.71 1.39 3.02 3.18c1.31 1.787 2.225 3.973 2.225 3.973s-2.185-.913-3.974-2.224c-1.787-1.312-3.177-3.02-3.177-3.02v12.08s1.39-1.71 3.178-3.02c1.79-1.312 3.975-2.226 3.975-2.226s-.914 2.186-2.225 3.974c-1.31 1.788-3.02 3.18-3.02 3.18h12.08s-1.71-1.392-3.02-3.18c-1.312-1.788-2.225-3.974-2.225-3.974s2.185.914 3.973 2.225c1.788 1.312 3.18 3.02 3.18 3.02v-12.08s-1.392 1.71-3.18 3.02c-1.788 1.312-3.973 2.226-3.973 2.226s.913-2.185 2.225-3.973c1.31-1.788 3.02-3.18 3.02-3.18h-12.08zM421.245 213.797l5.948-1.05s-1.924-1.072-3.526-2.605c-1.602-1.533-2.882-3.527-2.882-3.527s2.31.52 4.3 1.5c1.99.982 3.655 2.423 3.655 2.423l-2.098-11.896s-1.073 1.924-2.606 3.526c-1.533 1.602-3.527 2.882-3.527 2.882s.52-2.31 1.5-4.3c.98-1.99 2.423-3.655 2.423-3.655l-5.948 1.05 2.76 15.652zM476.147 197.095s1.44 1.666 2.422 3.655c.98 1.99 1.5 4.3 1.5 4.3s-1.993-1.28-3.526-2.882c-1.534-1.602-2.607-3.526-2.607-3.526l-2.097 11.896s1.666-1.44 3.655-2.422c1.988-.98 4.3-1.5 4.3-1.5s-1.28 1.993-2.882 3.526c-1.602 1.533-3.526 2.606-3.526 2.606l5.948 1.05 2.76-15.654-5.948-1.05z" stroke-width=".206295"/></g><path d="M421.306 213.18l.04 8.665s14.483-4.93 28.964-4.93c14.482 0 28.964 4.93 28.964 4.93v-8.666s-14.492-4.933-28.984-4.933-28.984 4.932-28.984 4.932z" stroke-width=".206295"/></g><g fill="#fff" stroke-width="1.5"><path d="M419.963 196.194a2.205 2.205 0 1 1-4.41 0 2.205 2.205 0 1 1 4.41 0zM417.135 191.166a2.205 2.205 0 1 1-4.41 0 2.205 2.205 0 1 1 4.41 0zM416.546 185.272a2.205 2.205 0 1 1-4.41 0 2.205 2.205 0 1 1 4.41 0zM418.314 179.77a2.205 2.205 0 1 1-4.41 0 2.205 2.205 0 1 1 4.41 0zM422.047 175.252a2.205 2.205 0 1 1-4.41 0 2.205 2.205 0 1 1 4.41 0zM427.155 172.108a2.205 2.205 0 1 1-4.41 0 2.205 2.205 0 1 1 4.41 0zM432.853 172.5a2.205 2.205 0 1 1-4.41 0 2.205 2.205 0 1 1 4.41 0zM438.55 173.444a2.205 2.205 0 1 1-4.408 0 2.205 2.205 0 1 1 4.41 0zM444.25 174.033a2.205 2.205 0 1 1-4.41 0 2.205 2.205 0 1 1 4.41 0zM480.037 196.194a2.205 2.205 0 1 1 4.41 0 2.205 2.205 0 1 1-4.41 0zM482.865 191.166a2.205 2.205 0 1 1 4.41 0 2.205 2.205 0 1 1-4.41 0zM483.454 185.272a2.205 2.205 0 1 1 4.41 0 2.205 2.205 0 1 1-4.41 0zM481.686 179.77a2.205 2.205 0 1 1 4.41 0 2.205 2.205 0 1 1-4.41 0zM477.953 175.252a2.205 2.205 0 1 1 4.41 0 2.205 2.205 0 1 1-4.41 0zM472.844 172.108a2.205 2.205 0 1 1 4.41 0 2.205 2.205 0 1 1-4.41 0zM467.147 172.5a2.205 2.205 0 1 1 4.41 0 2.205 2.205 0 1 1-4.41 0zM461.45 173.444a2.205 2.205 0 1 1 4.408 0 2.205 2.205 0 1 1-4.41 0zM455.75 174.033a2.205 2.205 0 1 1 4.41 0 2.205 2.205 0 1 1-4.41 0zM452.495 191.243a2.205 2.205 0 1 1-4.41 0 2.205 2.205 0 1 1 4.41 0z" stroke-width=".27281999999999995"/><path d="M452.495 187.315a2.205 2.205 0 1 1-4.41 0 2.205 2.205 0 1 1 4.41 0z" stroke-width=".27281999999999995"/><path d="M452.495 184.17a2.205 2.205 0 1 1-4.41 0 2.205 2.205 0 1 1 4.41 0z" stroke-width=".27281999999999995"/><path d="M452.495 181.303a2.205 2.205 0 1 1-4.41 0 2.205 2.205 0 1 1 4.41 0zM452.495 172.108a2.205 2.205 0 1 1-4.41 0 2.205 2.205 0 1 1 4.41 0z" stroke-width=".27281999999999995"/><path d="M452.495 172.5a2.205 2.205 0 1 1-4.41 0 2.205 2.205 0 1 1 4.41 0z" stroke-width=".27281999999999995"/><path d="M452.495 174.544a2.205 2.205 0 1 1-4.41 0 2.205 2.205 0 1 1 4.41 0z" stroke-width=".27281999999999995"/><path d="M452.495 177.334a2.205 2.205 0 1 1-4.41 0 2.205 2.205 0 1 1 4.41 0z" stroke-width=".27281999999999995"/></g><g fill="#fff"><path d="M453.117 200.734a2.85 2.85 0 1 1-5.697 0 2.85 2.85 0 1 1 5.697 0zM423.34 205.902a2.85 2.85 0 1 1-5.698 0 2.85 2.85 0 1 1 5.698 0zM482.753 205.902a2.85 2.85 0 1 1-5.697 0 2.85 2.85 0 1 1 5.697 0z" stroke-width=".27506"/></g><g><path fill="#002b7f" stroke-width=".21305053" d="M446.147 210.405h8.806v3.84h-8.806z"/><path d="M16.043 233.11a22.995 8.556 0 1 1-45.99 0 22.995 8.556 0 1 1 45.99 0z" transform="matrix(-.2 0 0 .2 461.5 157)" fill="#3e8225" stroke-width="1.5"/><path d="M421.357 215.266l-2.206 2.206 2.56 1.478 5.952-1.595-1.06-3.37-5.245 1.28zM479.743 215.266l2.206 2.206-2.56 1.478-5.95-1.595 1.06-3.37 5.243 1.28z" fill="#c00" stroke-width=".27511638"/><path d="M16.043 233.11a22.995 8.556 0 1 1-45.99 0 22.995 8.556 0 1 1 45.99 0z" transform="matrix(.2 0 0 .2 439.6 157)" fill="#3e8225" stroke-width="1.5"/><path d="M444.242 210.692a1.084 1.084 0 1 1-2.167 0 1.084 1.084 0 1 1 2.167 0zM444.58 214.146a1.084 1.084 0 1 1-2.166 0 1.084 1.084 0 1 1 2.167 0zM430.695 213.13a1.084 1.084 0 1 1-2.167 0 1.084 1.084 0 1 1 2.167 0zM432.05 216.38a1.084 1.084 0 1 1-2.168 0 1.084 1.084 0 1 1 2.168 0zM456.807 210.692a1.084 1.084 0 1 1 2.168 0 1.084 1.084 0 1 1-2.168 0zM456.47 214.146a1.084 1.084 0 1 1 2.166 0 1.084 1.084 0 1 1-2.167 0zM470.355 213.13a1.084 1.084 0 1 1 2.167 0 1.084 1.084 0 1 1-2.167 0zM469 216.38a1.084 1.084 0 1 1 2.167 0 1.084 1.084 0 1 1-2.167 0z" fill="#fff" stroke-width=".177331"/></g></g><path d="M472.43 228.267c.827-.144 5.82-1.33 6.872-1.966-.68-1.222-1.896-2.18-.95-1.777.512.217.915-1.47-.566-2.758-4.3 1.41-14.612 3.988-27.57 3.988-13.26 0-23.702-2.713-28.002-4.123-1.48 1.288-1.02 2.752-1.11 3.3 0 .004.002.69.272 1.235 1.457 1.584 6.18 2.364 7.007 2.508 3.89.676 7.78 1.697 21.824 1.697 12.994 0 18.333-1.428 22.222-2.103z" font-size="12" fill="#fff" stroke-width=".43420762"/><path d="M427.95 219.346c-.826.144-6.09 2.008-7.142 2.643v.016c.09.547-.913 3.095.568 4.383 4.3-1.41 16.373-5.613 29.33-5.613 13.26 0 24.245 4.202 28.545 5.612 1.482-1.29.478-3.837.568-4.384v-.017c-1.05-.636-6.315-2.5-7.143-2.644-3.89-.675-7.914-3.187-21.96-3.187-12.993 0-18.874 2.51-22.764 3.186z" font-size="12" fill="#fff" stroke-width=".43404468000000007"/><g fill-rule="evenodd"><path d="M115.508 301.56a1.872 1.872 0 1 1-3.743 0 1.872 1.872 0 1 1 3.743 0z" transform="matrix(.2 0 0 .2 395.7 172.2)" stroke-width="1.6"/><path d="M115.508 301.56a1.872 1.872 0 1 1-3.743 0 1.872 1.872 0 1 1 3.743 0z" transform="matrix(.2 0 0 .2 395.3 173.1)" stroke-width="1.6"/><path d="M115.508 301.56a1.872 1.872 0 1 1-3.743 0 1.872 1.872 0 1 1 3.743 0z" transform="matrix(.2 0 0 .2 396.1 173.6)" stroke-width="1.6"/><path d="M113.518 303.67l8.526-3.167-4.185 2.392 2.685-.083-2.492 1.168 4 .275-8.535-.586z" transform="matrix(.4 0 0 .3 367.6 121.9)"/></g><g fill-rule="evenodd"><path d="M115.508 301.56a1.872 1.872 0 1 1-3.743 0 1.872 1.872 0 1 1 3.743 0z" transform="matrix(.2 0 0 .2 407.2 169)" stroke-width="1.6"/><path d="M115.508 301.56a1.872 1.872 0 1 1-3.743 0 1.872 1.872 0 1 1 3.743 0z" transform="matrix(.2 0 0 .2 406.7 169.9)" stroke-width="1.6"/><path d="M115.508 301.56a1.872 1.872 0 1 1-3.743 0 1.872 1.872 0 1 1 3.743 0z" transform="matrix(.2 0 0 .2 407.5 170.3)" stroke-width="1.6"/><path d="M113.518 303.67l8.526-3.167-4.185 2.392 2.685-.083-2.492 1.168 4 .275-8.535-.586z" transform="matrix(.4 0 0 .3 379 118.6)"/></g><g fill-rule="evenodd"><path d="M115.508 301.56a1.872 1.872 0 1 1-3.743 0 1.872 1.872 0 1 1 3.743 0z" transform="matrix(.2 0 0 .2 434.2 162.1)" stroke-width="1.6"/><path d="M115.508 301.56a1.872 1.872 0 1 1-3.743 0 1.872 1.872 0 1 1 3.743 0z" transform="matrix(.2 0 0 .2 433.6 162.8)" stroke-width="1.6"/><path d="M115.508 301.56a1.872 1.872 0 1 1-3.743 0 1.872 1.872 0 1 1 3.743 0z" transform="matrix(.2 0 0 .2 434.3 163.5)" stroke-width="1.6"/><path d="M113.518 303.67l8.526-3.167-4.185 2.392 2.685-.083-2.492 1.168 4 .275-8.535-.586z" transform="matrix(.4 .1 0 .3 418.9 106.4)"/></g><g fill-rule="evenodd"><path d="M115.508 301.56a1.872 1.872 0 1 1-3.743 0 1.872 1.872 0 1 1 3.743 0z" transform="matrix(.2 0 0 -.2 434.5 270.7)" stroke-width="1.6"/><path d="M115.508 301.56a1.872 1.872 0 1 1-3.743 0 1.872 1.872 0 1 1 3.743 0z" transform="matrix(.2 0 0 -.2 434.1 269.8)" stroke-width="1.6"/><path d="M115.508 301.56a1.872 1.872 0 1 1-3.743 0 1.872 1.872 0 1 1 3.743 0z" transform="matrix(.2 0 0 -.2 434.9 269.3)" stroke-width="1.6"/><path d="M113.518 303.67l8.526-3.167-4.185 2.392 2.685-.083-2.492 1.168 4 .275-8.535-.586z" transform="matrix(.4 0 0 -.3 406.4 321.1)"/></g><g fill-rule="evenodd"><path d="M115.508 301.56a1.872 1.872 0 1 1-3.743 0 1.872 1.872 0 1 1 3.743 0z" transform="matrix(.2 0 0 -.2 446.1 273.7)" stroke-width="1.6"/><path d="M115.508 301.56a1.872 1.872 0 1 1-3.743 0 1.872 1.872 0 1 1 3.743 0z" transform="matrix(.2 0 0 -.2 445.7 272.8)" stroke-width="1.6"/><path d="M115.508 301.56a1.872 1.872 0 1 1-3.743 0 1.872 1.872 0 1 1 3.743 0z" transform="matrix(.2 0 0 -.2 446.4 272.3)" stroke-width="1.6"/><path d="M113.518 303.67l8.526-3.167-4.185 2.392 2.685-.083-2.492 1.168 4 .275-8.535-.586z" transform="matrix(.4 0 0 -.3 417.9 324.1)"/></g></g></svg>