<svg xmlns="http://www.w3.org/2000/svg" width="900" height="600"><path d="M0 0h900v600H0z"/><path fill="#fff" d="M0 0h900v400H0z"/><path fill="#ce1126" d="M0 0h900v200H0z"/><g fill="#007a3d"><path d="M273.647 374.298l-5.172-5.676 5.22-5.626 5.22-5.625 5.172 5.677 5.173 5.677-5.22 5.625-5.22 5.625-5.166-5.687zm-35.507-2.86c-1.86-.74-4.88-3.174-6.858-5.527-3.73-4.436-4.578-6.506-2.073-5.05 3.735 2.177 11.134 3.59 13.767 2.637 9.713-3.528 11.92-17.63 4.165-26.574-1.522-1.754-2.768-3.794-2.768-4.533s1.62-2.12 3.594-3.07c2.768-1.333 4.12-2.783 5.893-6.32 1.8-3.594 2.538-4.377 3.402-3.597 1.234 1.113 5.4 11.928 5.4 14.02 0 1.102 1.507 1.344 8.324 1.344h8.323l-1.3-3.39c-.715-1.864-1.892-4.374-2.615-5.576-1.17-1.946-1.178-2.29-.054-3.162.693-.538 2.998-2.302 5.124-3.92 2.123-1.617 4.108-3.65 4.406-4.518.735-2.152 5.338-8.36 6.193-8.36.38 0 .692 6.507.692 14.462v14.462H395.65V293.33l-2.89-1.945-2.89-1.944-2.926 2.428-2.928 2.428v29.615H340.38c-24.004 0-43.64-.162-43.64-.36 0-.316 21.715-32.21 24.37-35.795.55-.746 1.916-2.78 3.03-4.52s2.252-3.366 2.522-3.615c.275-.25 1.4-1.876 2.508-3.616 1.105-1.74 2.395-3.64 2.868-4.22.473-.582 8.338-12.047 17.482-25.48s16.895-24.45 17.234-24.48c.335-.03.81 1.065 1.058 2.43 1.37 7.567 2.424 11.803 3.51 14.132 1.39 2.98.576 4.093-3.097 4.216-1.738.058-5.742 5.404-24.52 32.74-12.343 17.97-22.567 32.994-22.72 33.39s10.975.718 24.727.718h25.006l.012-9.72c.007-5.342.288-10.136.623-10.65 1.57-2.404 18.102-14.966 19.254-14.633.717.208 5.138 3.552 9.826 7.43l8.52 7.056v60.293h-144.38l-1.45 5.83c-1.74 6.987-4.587 12.027-8.41 14.873-3.632 2.655-11.805 3.404-16.595 1.498zm179.95-69.16c0-32.816.272-47.152.9-47.577.496-.333 2.647 1.383 4.78 3.815s5.933 6.337 8.45 8.676c3.97 3.7 4.384 4.38 3.16 5.19-4.092 2.704-3.99 1.853-3.99 33.048v29.312h7.957c7.064 0 8.37-.262 11.636-2.346 4.055-2.585 4.324-2.244 2.317 2.915-.75 1.923-1.59 5.736-1.872 8.47l-.508 4.972-16.417.246-16.413.245V302.25zM504.04 337.045c.436-13.215 1.692-17.7 6.15-21.956 3.433-3.277 8.342-4.83 14.025-4.432l4.256.3.257-5.407c.323-6.85-.247-9.296-2.342-10.02-2.514-.87-2-3.71 1.046-5.776 1.492-1.01 5.143-4.515 8.11-7.788s5.693-5.95 6.05-5.95.652 13.067.652 29.037v29.04h11.68v-29.88c0-25.955-.173-30.07-1.313-31.308-.72-.783-1.66-1.427-2.086-1.427-1.873 0-.548-3.633 1.935-5.32 1.492-1.01 5.12-4.494 8.07-7.742 2.948-3.25 5.672-5.697 6.05-5.442s.69 18.61.69 40.79v40.33h11.68v-82.587l-2.087-1.972c-1.146-1.083-2.085-2.465-2.085-3.068s2.596-3.375 5.768-6.163 6.575-6.303 7.565-7.815c4.26-6.51 4.19-7.48 4.19 56.685v59.434h-88.644l.532-11.578zm24.832-8.853v-5.898H525.6c-4.394 0-8.408 4.147-8.408 8.69v3.106h11.68v-5.89zm72.612-26.697c0-32.942.272-47.336.905-47.76.497-.335 2.657 1.388 4.796 3.83 2.142 2.44 5.956 6.36 8.48 8.71 3.985 3.712 4.402 4.396 3.17 5.21-4.107 2.714-4.004 1.863-4.004 33.177v29.428h8.15c7.394 0 8.446-.218 11.33-2.35 1.75-1.29 3.384-2.125 3.635-1.852s-.2 2.247-1.005 4.39-1.697 6.138-1.982 8.883l-.52 4.993-16.48.245-16.48.245V301.48zM535.79 252.12c-1.47-.586-3.16-1.625-3.753-2.306-.908-1.042-.457-1.144 2.843-.63 5.93.92 9.566-.173 12.873-3.882l2.91-3.255 4.04 1.56c2.224.858 4.547 1.348 5.167 1.09 1.604-.672 4.51-5.68 4.218-7.274-.354-1.945 1.287-1.648 2.302.412 1.99 4.045.328 9.177-3.476 10.74-1.863.766-3.664.786-6.682.085-3.707-.865-4.315-.773-5.94.882-3.632 3.712-9.174 4.7-14.497 2.588zm10.115-14.983c-2.01-1.492-6.253-9.136-6.412-11.568-.14-2.085.2-2.722 1.562-2.936 2.386-.37 3.488 1.355 5.323 8.34 1.503 5.72 1.346 7.525-.47 6.163z"/></g></svg>