<svg xmlns="http://www.w3.org/2000/svg" xmlns:xlink="http://www.w3.org/1999/xlink" width="1000" height="600" viewBox="0 0 30 18"><path fill="#fff" d="M0 0h30v18H0z"/><path d="M0 0l30 18M0 18L30 0" stroke="#df112d" stroke-width="2"/><g stroke="#000" stroke-width=".015"><path fill="#e8112d" d="M16.57 2.693c.385 1.56.174 3.49-1.567 4.56-1.742-1.07-1.953-3-1.568-4.56.41-.373 2.276-.603 3.135 0z"/><path fill="#f9dd16" d="M15 2.38c.638 0 1.233.17 1.584.388.068-.54.312-1.077.6-1.484-.3-.006-.435.154-.438.32-.075-.213-.37-.2-.46-.085.33.22.075.615-.222.534-.14-.038-.213-.135-.24-.277a.162.162 0 1 0-.068-.01c-.094.153-.263.2-.384.165-.156-.044-.222-.185-.222-.31 0-.325.313-.375.407-.32-.006-.218-.35-.393-.457-.212.12-.213.113-.513-.1-.713-.213.2-.22.5-.1.713-.106-.18-.45-.006-.457.213.094-.056.407-.006.407.32 0 .124-.066.265-.222.31-.12.033-.29-.013-.383-.167a.162.162 0 1 0-.07.01c-.026.143-.1.24-.24.278-.296.08-.55-.313-.22-.535-.092-.117-.386-.13-.46.083-.004-.165-.14-.325-.44-.32.29.408.533.946.602 1.485.35-.22.945-.388 1.583-.388z"/><g id="a"><g fill="#f9dd16"><path d="M16.324 3.91c-.038.01-.038.06-.058.06.1-.003.148-.03.18-.08-.023.02-.004.057-.012.066.074-.025.11-.088.083-.13.017.024.064.037.08.04-.052-.042-.016-.134-.098-.18.026-.003.08.028.094.065-.013-.082-.025-.135-.093-.18.008.007.047.015.063 0-.044-.028-.057-.074-.053-.104.005-.04-.022-.05-.074-.036-.046.01-.152.018-.214.018-.13 0-.24 0-.348-.074.16.067.364-.073.364-.19 0-.127-.158-.232-.477-.162-.32.07-.708.04-.708-.066 0-.107.28-.12.422-.1.143.023.246.037.514-.058-.066.026-.28.033-.448-.015-.17-.048-.584-.048-.587.176-.004.223.442.203.826.146.223-.033.34-.01.34.063 0 .07-.205.098-.363.08-.158-.02-.32-.015-.507.04-.156.046-.264 0-.437.03-.083.014-.286 0-.386-.166-.062.044-.247.136-.278.226-.046.083-.016.165.043.246.074.102-.037.086-.116.09-.108.005-.253-.012-.33-.097-.066-.077-.155-.138-.226-.082-.036.03 0 .067.028.057.03-.01.063.01.094.024-.05-.022-.103-.006-.124.013-.03.026.006.075.04.058.03-.013.085-.022.122.01-.04-.006-.08-.005-.1.017-.02.02-.006.052.037.05.07-.003.086.045.155.035-.042.006-.066.028-.077.044.064-.03.135.05.218.032-.032.013-.084.045-.084.07.05-.058.38.043.388-.08.01.024.008.063-.018.096.042-.026.18-.035.222-.134.004.03-.002.068-.027.077.044.014.102-.02.16-.107.025-.035.03-.058.026-.084.06.002.103-.013.15-.05.046-.042.098.032.18-.02.08-.05.15-.007.193-.033.044-.026.105.01.153-.02.047-.03.122.014.2-.048.125.045.27.13.626.064.204-.038.268.03.268.124 0 .065-.038.07-.066.072-.113.007-.162-.043-.207-.027-.03.01-.048.06-.005.076-.036.018-.03.052-.013.065.017.014.065.002.097-.013-.04.02-.084.052-.06.088.015.02.052.04.087-.006.035-.047.1-.085.14-.08zM14.063 2.94c-.103-.04-.137-.042-.114.04.01.037.034.088.06.11 0-.034.013-.13.053-.15z"/><path d="M14.384 2.94c.103-.04.138-.042.114.04-.01.037-.035.088-.06.11 0-.034-.013-.13-.054-.15z"/><path d="M14.224 2.885c.195 0 .22.09.218.205 0 .123-.067.08-.104.24-.015.06-.064.064-.114.064s-.098-.004-.113-.065c-.037-.16-.103-.117-.104-.24 0-.114.024-.205.218-.205z"/><path d="M13.723 3.336c-.05-.03-.082-.01-.102-.004.065.017.068.1.215.138-.033-.01-.052.01-.083-.007.06.047.128.103.272.104.08 0 .024.042-.028.02.054.055.162.01.23.11.013-.078-.127-.203-.063-.293-.198-.01-.214-.118-.328-.206-.093-.07-.102-.143-.143-.278-.018-.062-.09-.1-.13-.085-.035.012-.047.043-.017.065.03.023.068.026.076.083-.038-.047-.096-.064-.124-.034-.017.016-.01.057.026.06.06.007.017.065.085.122-.06-.067-.112-.074-.144-.037-.02.022 0 .06.04.057.06-.006.13.145.22.184zM15.32 3.903c-.03.006-.022.057-.064.06.1 0 .152-.023.2-.062-.022.014-.03.047-.033.066.053-.046.18-.05.246-.037.065.012.076-.02.1-.062.024-.042-.01-.066-.042-.1-.033-.032-.04-.078-.033-.155-.177-.235-.493-.12-.496-.018.113.132.127.117.223.136.095.02.154.02.09.072-.022.02-.114.01-.186.013-.16.007-.233-.11-.28-.05-.04.05 0 .073.08.07-.055 0-.128-.002-.115.05.02.085.103-.017.135.018-.027-.006-.07.01-.07.037-.003.026.06.06.128.005.038-.03.086-.042.115-.042zM15.457 3.545c-.058-.02-.11-.034-.177-.02M14.593 3.518c-.047.1-.02.15-.012.198M14.09 3.037c.033.017.05-.03.1.02-.014-.015-.03.037-.067.003M14.355 3.037c-.032.017-.05-.03-.098.02.013-.015.03.037.066.003"/><path d="M14.257 3.056c-.01.01-.012-.007-.004.036.016.08.034.117-.03.117-.066 0-.046-.038-.03-.118.008-.043.007-.026-.004-.036"/></g><g fill="#ff0016" stroke-width=".008"><path d="M14.224 3.362c.052 0 .082 0 .074-.075-.003-.03.036-.04.022-.09.015.06-.096.054-.096.028 0 .026-.11.032-.097-.027-.013.048.026.06.022.09-.01.073.022.074.074.074zM14.177 3.213l-.126-.035M14.177 3.22l-.14-.002M14.178 3.227l-.12.032M14.27 3.213l.126-.035M14.27 3.22l.14-.002M14.27 3.227l.12.032"/></g><g fill="#0051ba" stroke-width=".002"><path d="M13.573 2.837c-.036-.045-.128-.007-.13.05.03-.037.082.016.11.005.018-.008.035-.036.02-.055zM13.526 2.945c-.037-.046-.128-.007-.13.05.03-.037.08.015.11.004.018-.008.035-.037.02-.055zM13.502 3.09c-.04-.042-.128.007-.123.063.025-.04.08.007.107-.007.02-.01.032-.04.015-.056zM13.546 3.538c-.046-.036-.126.022-.116.077.022-.042.083-.002.108-.02.016-.01.026-.043.008-.057zM13.543 3.636c-.054-.02-.113.06-.085.11.007-.048.077-.03.095-.053.013-.016.013-.05-.01-.057zM13.614 3.71c-.055-.02-.114.06-.086.108.007-.047.078-.028.096-.05.012-.018.012-.05-.01-.06zM15.048 3.85c-.055-.02-.114.06-.086.11.007-.047.078-.028.096-.05.012-.018.012-.05-.01-.06zM15.121 3.918c-.055-.014-.104.072-.07.118 0-.048.073-.037.088-.062.01-.018.007-.05-.016-.056zM15.07 3.757c-.05-.03-.122.04-.104.093.016-.045.082-.014.104-.035.015-.014.02-.046 0-.058zM16.09 3.872c-.057-.014-.106.072-.073.118.002-.048.074-.037.09-.062.01-.018.006-.05-.017-.056zM16.09 3.782c-.05-.028-.12.044-.1.096.016-.045.083-.017.104-.038.014-.014.018-.047-.003-.058zM16.13 3.952c-.056-.01-.1.077-.066.122 0-.048.072-.04.086-.066.01-.02.005-.05-.02-.056zM14.228 3.318c.036 0 .05.01.05.075 0 .137 0 .196-.045.196s-.042-.057-.042-.158c0-.052 0-.08-.01-.074 0-.035.016-.04.048-.04z"/></g></g><use xlink:href="#a" transform="matrix(.9 0 0 .9 1.5 1.7)"/><use xlink:href="#a" transform="matrix(.7 0 0 .8 4.9 3.4)"/></g></svg>