<svg xmlns="http://www.w3.org/2000/svg" xmlns:xlink="http://www.w3.org/1999/xlink" width="1200" height="600"><clipPath id="a"><path d="M0 0v150h700v150H600zm600 0H300v350H0v-50z"/></clipPath><path fill="#00247d" d="M0 0h1200v600H0z"/><path d="M0 0l600 300m0-300L0 300" stroke="#fff" stroke-width="60"/><path d="M0 0l600 300m0-300L0 300" stroke="#cf142b" stroke-width="40" clip-path="url(#a)"/><path d="M300 0v350M0 150h700" stroke="#fff" stroke-width="100"/><path d="M300 0v350M0 150h700" stroke="#cf142b" stroke-width="60"/><path d="M0 300h600V0h600v600H0z" fill="#00247d"/><g stroke="#000" stroke-width="1.438"><g stroke="#fff" stroke-width="9.6" stroke-linejoin="round"><use xlink:href="#b"/><use xlink:href="#c"/><use xlink:href="#d"/><use xlink:href="#e"/><use xlink:href="#f"/><use xlink:href="#g"/><use xlink:href="#h"/></g><g id="c" fill="#fcea83"><path d="M754.417 449.563c2.875 7.668 23.483 17.732 47.444 4.792 16.295-9.105 26.84-22.044 36.902-45.048 2.876-5.75 4.313-12.94-2.396-17.252-5.27-3.834-13.898-8.147-17.732-11.98-1.916-1.918-3.833-3.356-5.27-4.794.957.96 1.916 1.918 2.874 3.356 9.585 11.502-.48 28.275-11.022 38.34-7.668 7.187-21.566 24.92-41.694 8.146-4.313-3.834-14.377 11.98-9.105 24.44zM1045.79 449.563c-3.355 7.668-23.962 17.732-47.444 4.792-16.294-9.105-26.838-22.044-37.38-45.048-2.397-5.75-3.835-12.94 2.875-17.252 5.272-3.834 13.9-8.147 17.732-11.98 1.917-1.918 3.355-3.356 5.272-4.794-.96.96-1.917 1.918-2.875 3.356-9.586 11.502.478 28.275 10.542 38.34 7.667 7.187 22.045 24.92 42.172 8.146 4.314-3.834 13.898 11.98 9.106 24.44z"/><path d="M900.105 490.778c38.34 0 97.285-17.253 128.914-77.636 5.27-10.064 0-15.336-6.23-18.69-6.71-2.876-14.857-9.585-19.17-13.898 7.667 7.668 6.23 12.94.958 21.566-24.44 40.735-57.987 61.342-104.473 61.342s-80.032-20.607-104.473-61.342c-5.27-8.627-6.71-13.898.48-21.566-3.835 4.313-12.46 11.022-19.17 13.898-6.23 3.354-11.502 8.626-6.23 18.69 31.63 60.384 91.054 77.636 129.394 77.636z"/></g><g id="d" fill="#db161c"><path d="M811.446 409.787c-.958-4.792-7.19-2.875-9.105 2.875-2.396-3.354-4.792-6.71-6.71-10.543-5.75-8.627-6.708-14.378 1.44-22.525 3.833-3.834 11.5-8.147 16.772-3.355 11.023 9.106 5.272 23.962-2.396 33.547zM988.284 409.787c.958-4.792 7.668-2.875 9.585 2.875 2.395-3.354 4.79-6.71 6.708-10.543 5.75-8.627 6.71-14.378-1.917-22.525-3.354-3.834-11.02-8.147-16.772-3.355-10.543 9.106-5.272 23.962 2.396 33.547zM754.417 449.563c-4.792-7.19-8.626-25.88-9.585-30.67-1.437-4.314-1.917-8.148 3.355-10.065 5.272-1.917 10.064 4.792 12.46 10.543 2.396 5.752 6.23 14.378 10.543 24.92-10.543-6.23-19.17-1.916-16.773 5.273zM1045.79 449.563c4.313-7.19 8.147-25.88 9.585-30.67.958-4.314 1.917-8.148-3.355-10.065-5.271-1.917-10.064 4.792-12.46 10.543-2.396 5.752-6.23 14.378-10.543 24.92 10.543-6.23 18.69-1.916 16.773 5.273z"/></g><g fill="#00493d" stroke="none"><path d="M782.213 406.432l-3.834 1.917c-.96.478-.96 1.437-.96 1.916h-.48l-1.916-4.313h.48c0 .48.48.958 1.437.48l8.148-4.314c.96-.48.96-.96.48-1.44l.48-.478 2.395 4.792h-.48c-.478-.48-.958-.958-1.916-.48l-3.355 1.918 1.438 2.875 3.834-1.437c.958-.48.48-1.438.48-1.917h.478l1.917 4.313c-.48-.48-.96-.96-1.918-.48l-8.147 4.314c-.958.48-.958.958-.48 1.437l-.478.48-2.396-4.313.48-.48c.48.48.958.96 1.917.48l3.834-1.917-1.437-3.355zM790.36 412.662c.958-.48.958-.958.48-1.917h.478l4.793 7.19-3.354 2.395v-.48c1.917-1.437 1.917-3.354 1.438-3.833-.48-.48-.96-.96-.96-1.438-.478 0-.478-.48-1.436.478-.48.48-3.355 2.396-3.355 2.396.48.48.96 1.917 3.355.48h.48l-5.273 3.833v-.48c2.397-1.916 1.438-3.353.96-3.833l-3.356 2.397c-.96.48-.96.96-.96 1.438.48 0 .48.48.96.96.478.957 1.916 1.916 4.312.957l.48.48-3.834 1.437-4.793-7.668h.48c.48.48.958.96 1.916.48l7.19-5.272zM798.027 430.873l-3.355 2.875c-.48.48-.48 1.438 0 1.917h-.48l-3.354-3.354.48-.48c.48.48.958.96 1.917 0l6.23-6.23c.958-.478.958-.957.48-1.916l3.354 3.834c-.48-.48-1.44-.48-1.918 0l-2.876 2.876 2.396 2.396 2.876-2.396c.958-.96.48-1.438 0-1.917l.48-.48 3.354 3.834h-.48c-.48 0-.958-.478-1.916.48l-6.23 5.752c-.96.958-.96 1.437-.48 1.916v.48l-3.354-3.834c.48 0 1.437.48 1.917 0l3.353-3.355-2.396-2.397zM805.216 440.937l1.438 1.438 1.917-4.313s-1.437.48-3.833 1.917l.48.957-.48.48-.96-.96c-.478.48-.957.48-1.436.96-1.437.958-.958 1.437-.48 1.916v.48l-2.395-2.397h.48l1.916-.48 9.586-5.27.48.48s-.48.478-4.793 10.063c0 .957-.48 1.436 0 2.395l-3.834-3.355.478-.48c.48.96 1.438.96 1.917 0 0-.478.48-1.437.48-1.916l-1.438-1.438.48-.48zM809.05 450.522l.48-.48c.478.48.958.48 1.916 0l6.23-8.146-.48-.48c-.957-.48-2.395-.48-3.833.96v-.48l1.917-2.396 7.19 5.27-2.398 2.877h-.48c1.44-1.438.96-3.355 0-3.834v-.48l-6.23 8.147c-.957.48-.478 1.438 0 1.917h-.478l-3.834-2.875z"/><path d="M821.51 452.44l-2.396 3.354c-.48.958 0 1.437.48 1.917l-.48.48-3.834-2.876v-.48c.958.48 1.438.48 1.917-.478l5.27-7.19c.48-.957 0-1.436-.478-1.916l.478-.48 3.834 2.877v.48c-.958-.48-1.437-.48-1.917.478l-2.396 3.355 2.875 1.917 2.396-3.355c.48-.958 0-1.438-.478-1.917l.48-.48 3.833 2.876v.48c-.48-.48-1.438-.48-1.917.48l-4.793 7.668c-.958.48-.48.958 0 1.437v.48l-4.313-2.876h.48c.48 0 .958 0 1.437-.48l2.395-3.834-2.875-1.917zM831.095 465.857l.48-.48c.478.48 1.437.48 1.916-.478l3.835-8.148c.48-.96 0-1.438-.48-1.917l8.148 3.833-1.917 3.834-.48-.48c1.438-1.916 0-3.833-.48-4.312-.478 0-.957-.48-1.436-.48s-.48 0-.96.96c-.478.478-1.916 3.354-1.916 3.354.48.48 1.438 1.438 3.355-.96h.478l-2.875 5.752-.48-.48c1.438-2.874-.48-3.354-.958-3.354l-1.917 3.834c-.48.96 0 1.438.48 1.438v.48l-4.793-2.397zM844.992 472.567c-1.438-.958-1.438-3.834 0-6.71.958-2.875 2.875-5.27 4.792-4.312 1.438.48.96 3.354 0 6.23-1.437 3.354-3.354 5.27-4.792 4.792h-.48c3.355 1.438 5.752-.48 7.19-3.834 1.437-2.875.958-6.23-1.918-7.668-2.875-1.437-5.75.48-7.188 3.834-1.438 3.354-.96 6.71 1.917 7.667h.48zM859.85 473.525l1.916-5.75c.48-.96 0-1.44-.48-1.918l2.397.48v.48c-.48 0-.96 0-1.438.957l-1.917 5.75c-.958 2.397-2.396 4.314-5.27 3.356-1.918-.48-3.356-2.876-2.398-5.272l2.397-6.23c.48-.958 0-1.438-.48-1.917v-.478l4.314 1.917v.478c-.48-.48-1.437-.48-1.437.48l-2.396 6.23c-.48 1.916-.48 3.833.958 4.312 1.438.48 2.876-.48 3.834-2.875z"/><path d="M864.162 467.295c0-.48 0-.48-.48-.48l3.355.48 2.876 9.105 1.438-5.75c.48-.96 0-1.438-.48-1.917l2.877.48-.48.478c-.48 0-.958 0-1.437.96l-2.396 10.543h-.48l-3.834-11.502-2.396 7.67c0 1.437.48 1.437.96 1.916v.48l-2.877-.96v-.48c.48.48 1.438 0 1.438-.957l2.396-8.627-.478-1.438z"/><path d="M880.456 476.88c-.958 4.313-2.875 5.272-3.834 5.272h-.958s-.48-.48 0-.96l1.437-9.584c.48-.48.48-.958.96-.48h.958c.96 0 1.917 1.918 1.438 5.752l1.438.48c.958-4.793-.96-6.71-3.355-7.19-1.918-.48-4.793-.958-4.793-.958v.48c.48.48 1.437.48.958 1.916l-1.438 8.627c-.48.958-.958 1.437-1.437 1.437h-.48l4.793.96c2.396.478 4.792 0 5.75-5.273l-1.437-.48zM884.77 473.046c0-.958-.96-1.438-1.44-1.438v-.48l8.628.96-.48 3.833c0-2.395-1.437-3.353-2.396-3.353-.48-.48-.958-.48-1.438-.48s-.48 0-.48 1.438c0 .48-.478 3.834-.478 3.834.48 0 1.917.478 2.875-2.397l-.478 6.23h-.48c0-2.875-1.437-2.875-1.916-2.875l-.48 4.313c0 .96 0 .96.48.96l.958.478c1.438 0 2.876-.48 3.834-3.354h.48l-.96 3.834-9.104-.96c.958 0 1.437-.478 1.917-1.437l.96-9.104zM900.584 478.797c0 4.313-1.438 5.75-2.875 5.75-.48-.478-.48-.478-.96-.478l-.48-.48.48-10.065c0-.48 0-.48.48-.48h.958c.958 0 2.396 1.44 2.396 5.752h1.917c0-4.792-2.395-6.23-4.79-6.23-1.918-.48-4.794-.48-4.794-.48v.48c.48 0 1.438.48 1.438 1.438l-.48 9.105c0 .96-.48 1.438-.958 1.438v.48h4.313c2.396 0 4.792-.96 5.27-6.23h-1.916zM914.482 482.63c0 .96.48.96 1.438.96v.48l-5.272.478c.48-.48 1.438-.96 1.438-1.917l-.96-9.104c-.478-.96-.957-.96-1.916-.96v-.478l5.272-.48c-.48.48-1.438.96-.958 1.918l.958 9.105zM919.274 483.59v-.48c.48 0 .958-.48.958-1.438l-1.916-10.064h-.48c-.958.48-1.917 1.438-1.437 3.355h-.48l-.48-3.355 8.626-1.438.48 3.355h-.48c0-1.917-1.437-2.396-2.875-2.396h-.478l1.917 10.063c0 .958.478 1.438 1.436 1.438v.48l-4.792.48zM939.88 474.004l-1.916-5.75c0-.96-.958-.96-1.438-.96v-.48l2.397-.957v.48c-.48.478-.48.478-.48 1.437l1.917 6.23c.48 1.917.48 4.792-2.396 5.75-1.917.48-4.313-.478-4.792-3.354l-1.917-6.23c-.48-.958-.96-.958-1.438-.958l-.48-.48 4.793-1.437v.48c-.48.478-.958.957-.48 1.916l1.44 6.23c.478 1.918 1.916 2.876 3.353 2.876 1.438-.48 1.917-2.396 1.438-4.792zM945.153 470.65c2.396-.958 1.917-2.396 1.438-3.834-.48-1.438-1.437-2.396-2.395-1.917-.48 0-.96.478-.48.958l1.438 4.792.48.48.958 3.833c.48.96 1.438.96 1.918.48v.48l-4.313 1.916-.48-.48c.96-.48.96-.96.96-1.918l-3.356-8.147c-.48-1.437-.96-.958-1.918-.958v-.48l4.793-1.916c1.916-.48 3.833 0 4.792 1.918.48 2.396-.48 3.834-2.396 4.792-.48 0-.958.48-.958.48l-.48-.48zM957.134 472.087c-1.438.48-3.355-1.438-4.792-4.792-1.438-2.876-1.438-5.75 0-6.23 1.437-.48 3.354 1.437 4.792 4.313s1.438 5.75 0 6.71c2.875-.96 3.834-4.314 2.396-7.67-1.438-2.874-4.313-4.79-7.188-3.833-2.876 1.438-3.834 4.793-2.397 7.668 1.438 3.355 4.314 5.272 7.19 3.834zM957.613 458.67h-.958l2.875-1.918 8.626 4.792-2.875-5.27c-.478-.96-1.437-.96-1.916-.96v-.48l2.396-.957c-.48.48-.958.958 0 1.917l4.792 9.584-.48.48-10.542-5.75 3.834 7.187c.48.96 1.438.96 1.917.48v.48l-2.395 1.436v-.478c.48-.48.48-.958 0-1.917l-3.834-7.668-1.437-.958zM979.178 460.107v-.48c0-.478.48-.958 0-1.916l-5.75-8.146h-.48c-.96.48-1.438 2.396 0 3.834l-.48.48-1.916-3.356 7.188-4.792 1.917 2.875c-1.437-1.437-2.875-1.437-3.834-.958l-.48.48 5.752 8.146c.48.96 1.438.96 1.917.48v.48l-3.834 2.874zM984.45 448.605l2.875 3.355c.48.48 1.438.48 1.917 0v.48l-3.834 3.354v-.48c.48-.48.48-.958 0-1.917l-5.75-7.188c-.48-.96-.96-.48-1.917-.48l3.835-3.355v.48c0 .478-.48.958 0 1.916l2.396 2.877 2.876-1.917-2.396-3.355c-.48-.96-1.438-.48-1.917-.48l3.834-3.354v.48c-.48.48-.48.96 0 1.917l5.75 7.19c.48.478.96.478 1.438 0l.48.478-3.834 3.355-.478-.48c.48-.48.958-.958.48-1.917l-2.877-3.354-2.875 2.395zM988.763 438.54c-.48-.478-1.438-.478-1.917 0v-.478l6.23-5.75 2.876 2.874h-.48c-1.437-1.917-3.354-.958-4.313-.48 0 .48-.48.48-.96.96 0 0 0 .48.48 1.437l2.875 2.876c.48-.48 1.917-1.44 0-3.835h.48l3.833 4.313v.48c-2.396-2.397-3.354-.96-3.833-.48l2.875 2.875c.48.96.958.96.958.96l1.438-1.44c.48-.478.96-1.916 0-4.79h.48l1.916 3.353-6.23 6.23-.48-.48c.48-.478.96-.957 0-1.916l-6.23-6.71zM1000.26 425.122c-.48.48-.48 1.438.48 1.917.958.957 1.916.957 3.833 0 .96-.48 2.876-.96 4.313.478 2.396 2.396 1.438 4.313.96 5.272-.48.48-1.44.958-1.918 1.437-.48 0-.48 0-.48.48v.48l-3.354-2.876h.48c1.916.96 3.833 1.438 4.79 0 .96-.958 0-1.916-.478-2.396-.958-.958-1.917-.958-3.354 0-1.438.48-3.355.48-4.793-.48-1.918-1.916-1.918-3.354-.96-4.79.48-.48 1.44-.96 1.918-1.44.48 0 .48 0 0-.957l3.354 2.396h-.48c-2.395-.96-3.833-.48-4.312.48zM1004.58 421.288c-.958-.48-1.438 0-1.917.48h-.48l5.273-7.67 3.354 2.398-.48.48c-1.916-1.44-3.833-.48-4.312 0 0 .478-.48.957-.48 1.437-.48 0-.48.48.48.958.48.48 3.354 2.397 3.354 2.397.48-.48 1.438-1.437-.48-3.354v-.48l4.793 3.834c-2.875-1.437-3.354 0-3.833.48l3.354 2.396c.96.48 1.438.48 1.438.48 0-.48.48-.96.958-1.44.48-.957.96-2.395-.958-4.312l.48-.478 2.395 2.875-4.793 7.19h-.48c.48-.96.48-1.44-.478-2.397l-7.19-5.272zM1017.52 412.662l-1.438 2.396c-1.917-1.917-2.875-3.354-2.875-3.354l4.313.958h.96c.478 0 1.436.48 1.915.48 1.438.478.96.958.48 1.916h.48l2.395-4.313c-.958.96-1.438.48-2.396.48-10.064-1.918-11.023-2.397-11.023-2.397v.48l7.67 8.626c.478.48.478 1.437.478 1.917h.48l1.437-2.396-.48-.48c-.478.96-.957 1.44-1.916 0l-.96-.957 1.438-3.355h-.958zM1014.64 402.12c-.48.478-.48 1.437.96 1.916 1.436.48 1.915 0 3.353-.96 1.438-.957 2.875-1.915 4.792-.957 2.876 1.437 2.397 3.833 1.917 4.79-.48.48-.958 1.44-1.437 1.918v.96l-3.834-1.918c2.397.48 4.314 0 4.793-1.438.48-.958-.48-1.917-.958-2.396-.96-.48-1.917 0-3.355.958-1.438 1.438-2.875 1.917-4.792.96-1.917-.96-2.876-2.397-1.917-3.835 0-.96.96-1.44 1.44-1.918 0-.48 0-.48-.48-.958v-.48l3.833 1.917h-.48c-2.395-.478-3.833.48-3.833 1.44z"/></g><g><g id="e" fill="#073163"><path fill="#fff" d="M863.203 232.47c-6.23 1.438-10.543 1.917-16.294-3.355-3.835-3.834-2.876-10.543.957-12.94 4.314-2.874 8.147-4.79 13.42-3.354 5.27 1.44 19.168 14.378 15.814 14.858-3.354 0-8.625 3.354-13.897 4.792zM878.06 209.466c1.917-1.438 4.313-2.396 10.543-2.875 5.75-.48 10.064-.48 11.502 3.834 1.917 5.272 3.354 11.502 7.188 14.378-2.396 1.437-14.377 2.875-18.69.48-5.75-2.877-7.188-13.9-10.543-15.816zM919.274 209.946c1.917-1.438 4.313-1.438 10.543-.958 6.23.48 8.626.958 10.064 5.27 1.44 4.793 0 11.024 2.877 15.337-2.876.958-12.46.958-15.815-2.397-5.272-3.833-4.793-14.856-7.668-17.252z"/><path d="M948.028 212.82c-4.313-.957-7.19-1.437-9.105 0 2.396 2.876.48 14.378 5.27 18.212 3.356 2.396 11.982 2.875 13.9-2.396 2.395-4.793 2.395-11.98-10.065-15.815zM898.667 208.03c1.438-1.44 4.313-1.918 10.064-1.918 6.23 0 10.065.96 11.982 4.792 1.917 4.793 1.438 11.023 4.792 14.857-1.438 1.918-14.377 1.918-18.21-.958-5.272-3.354-5.752-14.377-8.627-16.773zM857.932 212.342c0-2.396 3.355-2.875 11.98-3.355 8.627-.958 9.106-.48 11.982 5.75 1.438 3.356 3.354 9.107 7.188 11.024-10.543 2.397-13.897 3.834-19.648.48-4.313-2.396-9.106-8.147-10.064-10.543-.48-1.438-.48-2.876-1.438-3.355z"/></g><g fill="#f9d050" stroke-width=".647"><g id="g"><path d="M880.935 163.46c-10.064-7.668-22.045-14.856-33.067-16.294 7.188 4.313 27.316 20.128 32.588 25.4"/><path d="M886.686 156.27c-11.98-8.146-25.88-17.252-39.297-18.21 10.063 5.272 24.92 17.732 33.066 27.796M902.02 142.853c6.71-14.856 13.9-23.003 23.483-32.11-4.792 10.065-10.064 30.672-12.46 38.82"/><path d="M912.565 140.457c4.792-10.543 11.98-19.65 24.44-25.4-6.23 6.23-15.814 24.92-18.21 34.985"/><path d="M916.878 150.04c5.75-8.146 17.253-23.48 37.86-31.628-11.98 11.98-29.713 34.025-34.026 42.65M923.587 160.584c8.626-4.792 25.88-12.46 38.34-10.064-7.67 2.876-30.672 13.42-40.736 23.003"/><path d="M921.67 157.23c8.147-8.626 23.003-21.566 38.818-26.837-11.502 11.022-35.943 35.942-39.297 39.776M898.667 151.958c-5.75-17.732-14.377-34.505-27.316-39.776 7.19 10.543 16.295 25.878 21.087 48.88M887.644 151.48c-9.585-11.503-22.524-23.004-37.38-25.4 10.063 5.75 26.837 22.524 33.067 38.818"/><path d="M892.916 151c-11.98-21.566-21.086-25.4-26.358-29.713 4.313 8.147 14.856 29.713 21.087 38.819"/><path fill="none" d="M868.954 149.562c5.75 3.355 14.377 11.502 17.253 16.773"/><path d="M868.954 159.626c2.875 2.396 8.147 5.272 12.94 9.585M925.983 166.814c4.792-3.834 15.335-10.064 20.607-11.98M922.63 163.46c4.79-6.23 14.376-14.856 17.73-17.732M936.047 133.747c-4.313 4.792-14.377 16.773-18.21 22.524M923.587 129.434c-3.355 4.313-10.064 16.773-11.98 21.086M885.727 130.393c2.875 7.668 8.147 20.607 10.064 25.88M881.414 138.54c1.917 2.875 5.75 9.585 7.19 14.377"/></g><g id="h"><path d="M897.708 136.143c0-4.313 2.875-9.105 5.75-9.105 3.355 0 5.752 5.75 5.752 9.105 0 3.834-2.876 7.19-5.75 7.19s-5.752-2.877-5.752-7.19z"/><path d="M891.478 139.977c.48-4.792 3.834-8.626 6.71-8.147 2.875.48 4.312 6.23 3.833 9.585-.478 3.834-3.833 6.71-6.23 6.23-2.395 0-4.79-3.355-4.312-7.668zM904.418 141.415c-.958-4.313.958-9.105 3.834-9.585 2.875-.48 5.75 4.313 6.23 8.147.958 3.834-1.438 7.668-3.834 7.668-2.396.48-5.75-1.917-6.23-6.23z"/><path d="M897.23 145.25c0-4.793 2.874-9.106 5.75-9.106 3.354 0 5.75 5.27 5.75 9.105 0 3.833-2.875 7.188-5.75 7.188-2.876 0-5.75-2.876-5.75-7.19z"/><path d="M888.603 147.645c0-4.313 3.355-9.105 6.23-9.105 2.875 0 5.75 5.75 5.75 9.105 0 3.834-3.354 7.19-5.75 7.19-2.875 0-6.23-2.877-6.23-7.19zM906.335 145.728c0-4.313 2.875-9.105 5.75-9.105 3.355 0 5.752 5.75 5.752 9.105 0 3.834-2.876 7.19-5.75 7.19s-5.752-2.877-5.752-7.19z"/><path d="M904.418 149.562c0-4.792 3.355-9.105 6.23-9.105s5.75 5.27 5.75 9.105c0 3.834-2.875 7.19-5.75 7.19s-6.23-2.877-6.23-7.19z"/><path d="M896.75 153.875c0-4.792 2.875-9.105 5.75-9.105 3.355 0 5.752 5.75 5.752 9.105 0 3.834-2.876 7.19-5.75 7.19s-5.752-2.877-5.752-7.19zM884.77 153.875c0-4.792 2.395-9.105 4.79-9.105 2.398 0 4.314 5.75 4.314 9.105 0 3.834-2.396 7.19-4.313 7.19-2.395 0-4.79-2.877-4.79-7.19zM911.606 152.917c0-4.313 2.396-8.626 4.792-8.626 2.397 0 4.793 5.272 4.793 8.627 0 4.313-2.875 7.19-4.792 7.19-2.396 0-4.792-2.877-4.792-7.19z"/><path d="M914.482 161.064c.958-4.792 3.834-8.626 5.75-8.147 1.918.48 2.397 6.23 1.44 9.585-.48 4.313-3.356 6.71-5.273 6.23-1.918-.48-2.876-3.834-1.918-7.668z"/><path d="M905.376 159.626c.48-4.313 3.355-8.626 5.75-8.147 2.876 0 4.314 5.75 3.835 9.104-.48 4.314-2.875 7.19-5.27 6.71-2.397 0-4.793-3.355-4.314-7.668zM891.958 161.064c-1.438-4.792-4.313-8.147-6.23-7.668-1.917.48-2.396 6.23-1.438 9.585.96 3.835 3.834 6.23 5.75 5.752 1.44-.48 2.876-3.834 1.918-7.668z"/><path d="M888.603 160.105c0-4.313 2.396-8.626 4.792-8.626 2.876 0 4.793 5.27 4.793 8.625 0 4.313-2.396 7.19-4.793 7.19-1.917 0-4.792-2.877-4.792-7.19z"/><path d="M895.79 162.022c0-4.792 2.876-9.105 5.752-9.105 3.354 0 5.75 5.27 5.75 9.105 0 3.834-2.875 7.19-5.75 7.19s-5.75-2.877-5.75-7.19zM898.188 109.306c-.958 3.834-4.313 7.19-1.917 12.46-4.312-1.438-8.146-1.917-11.5 1.917 4.313-.48 8.146.96 10.063 3.834-3.834-.48-5.75 1.438-6.71 3.834 3.356-.958 6.71-1.916 8.148-1.437-1.437 1.438-3.833 3.834-4.312 5.75 2.875-2.395 6.23-1.916 8.147-3.354-1.438 3.354 1.438 6.71 3.834 10.063-.48-4.792 2.395-8.147.957-10.543 4.313.96 4.793 4.792 11.023 4.792-2.396-1.437-3.834-6.23-6.71-6.23 1.438-.48 7.19-.958 8.147 0-.958-1.917-4.313-3.834-6.23-3.834 1.917-1.916 5.272-5.75 7.668-6.71-3.355.48-8.626.96-10.543 3.835 4.792-3.834 3.834-11.022 9.105-11.98-2.875-.48-7.188 1.437-10.543 4.792 1.438-2.876 1.438-6.71 3.355-7.668-3.835.958-8.148 5.75-9.586 8.147 0-2.396-1.438-6.23-2.396-7.668zM900.584 116.974c0 1.438 0 4.313-.48 5.272M906.814 116.495c-.958.958-2.875 4.313-2.875 7.19"/><path fill="none" d="M909.69 122.246c-1.44.958-2.876 2.396-3.356 4.313"/></g></g><g id="f" fill="#059334"><path d="M858.89 169.69c-3.355 0-6.23-1.438-8.147-3.834-3.355-4.313-12.46-6.23-16.294-2.396-1.44.958-3.356.958-4.793 1.438-2.397 0-5.272 2.396-4.313 7.188 1.916-1.438 2.396 0 3.833 0 .96-.48.48.48.48 1.438 0 2.396 5.27 7.188 10.064 6.71 5.272 0 7.668 1.916 8.627 2.875 1.437 1.436.48.957 1.437 3.353 1.438 1.438 1.917 1.917-.48 3.834-3.353 2.876-5.75 9.585 0 14.856 6.23 4.793 22.046 11.98 39.778-1.917 17.252-13.418 44.09-5.75 46.006-.958 2.397 4.792 3.355 7.668 3.834 10.064.48 1.917 2.876 3.834 6.23 3.355 3.355 0 7.19 1.437 9.106 2.875 2.396 1.438 5.75.96 4.792-3.355-1.917-13.418-10.064-15.335-11.022-21.565 4.792.48 8.147.48 10.064-1.438 1.437-1.917 3.354-5.27 5.27-6.23 1.44-.958 1.44-1.917-.478-1.438-2.396.48-3.834 1.438-8.147.96-22.045-2.397-83.866-19.17-95.847-15.816z"/><path fill="#000" d="M956.654 185.984c-2.396 1.438-4.792 3.834-9.105 9.585-4.794 6.23-19.17 12.46-36.903 12.46-17.252 0-27.795-2.877-35.463-9.107-4.313-3.354-7.668-5.27-10.543-6.71-5.27-2.395-6.23-7.667-4.792-11.98-1.437 2.396-2.396 4.792-5.27 4.313-1.918 0-5.752 0-4.793 1.917-.48-.958-.48-2.396-.96-2.875l-.957-.96c1.437.96 4.792-1.916 7.188-1.916 1.917.48 4.313-1.917 3.834-4.792-.48-2.396-.958-4.313-1.438-6.23 3.834-1.917 54.154 7.188 64.218 8.147 10.064.48 38.818 4.792 34.984 8.147z"/><path d="M865.6 167.773c4.792-4.792 10.543-7.19 16.294-5.75h1.438c2.875-2.397 9.584-2.876 13.418-.96h1.917c5.75-1.916 16.773 0 20.607 3.835l1.438.958c12.94-.958 20.607 4.792 29.713 13.898.958.958 2.396 2.875 4.792 3.355 2.875.478 3.355 1.915.958 3.353-2.875 1.438-5.27 3.834-10.063 9.106-4.314 5.75-18.21 11.5-35.464 11.5-16.773 0-26.837-2.875-34.505-8.626-4.313-3.355-7.668-5.272-10.064-6.71-2.876-.958-6.71-4.792-5.272-8.626.958-3.833-1.438-8.626-3.355-13.418 1.438-.96 5.272-2.396 7.19-1.438l.957-.48z"/><g fill="#00493d"><path d="M950.424 179.754c-9.105-9.105-16.773-14.856-29.713-13.898 0 .48 0 1.917-.478 2.876 7.668 2.875 18.69 11.5 23.483 17.73 1.917-1.916 5.27-4.312 6.71-6.708zM919.274 164.898c-3.834-3.834-14.856-5.75-20.607-3.834 0 1.917 0 4.792-.96 6.71 3.356 1.437 6.23 4.792 9.107 8.146 1.917-.48 6.71-1.917 9.105-2.396.958-1.917 2.875-6.23 3.354-8.626zM896.75 161.064c-3.834-1.917-10.543-1.438-13.42.958-.957 1.917-1.436 5.75-1.436 7.668 1.917 0 4.792 1.438 5.75 2.396 2.876-.958 6.71-2.875 8.148-4.313.48-1.917 1.437-4.792.958-6.71zM865.6 167.773c4.792-4.792 10.543-7.19 16.294-5.75-.958 1.437-1.438 4.312-1.438 7.188-5.27-.48-11.98.96-14.856 2.876v-4.313z"/><path d="M941.798 187.422c-4.313-6.23-14.856-13.42-22.045-16.773 0 .478-.958 2.395-1.438 3.833 2.876 4.313 8.627 13.897 11.023 19.17 2.396-.96 9.105-3.835 12.46-6.23zM905.376 197.965c.958-6.71 1.438-16.294 1.438-19.65 2.396-.478 7.188-1.916 9.105-2.395 2.395 3.834 8.146 13.898 10.542 18.69-5.75 1.438-15.335 3.834-21.086 3.355zM888.603 174.96c2.396-.957 5.75-2.874 8.147-4.79 1.917 1.436 5.75 4.79 7.19 6.708 0 4.313-1.44 16.773-1.918 21.086-3.834 0-10.064-.958-13.42-2.875.48-7.19.96-15.337 0-20.13zM864.64 180.712c.48-.958.96-4.313.96-5.75 3.833-2.397 13.418-4.793 20.607-.96.48 4.793 0 16.774-.48 19.65-6.23-4.793-16.294-11.502-21.086-12.94z"/></g><g fill="none"><path fill="#000" stroke="none" d="M840.68 172.086c-.96 0-1.44-2.875-3.356-2.875-.48 0-1.917.48-2.396 0 0 .96.48 1.918.96 2.397.478 1.437 2.874.48 4.79.48z"/><path d="M840.68 180.233c5.75 0 6.708-7.19 9.584-7.668M844.034 180.712c4.313 1.917 7.668-8.147 11.022-7.668M835.408 168.252c1.438 0 2.396-1.917 4.792.48.96.958 2.397 1.437 3.355 1.437M842.596 175.44c-1.917 2.876-5.272 4.793-7.19 3.835M834.45 163.46c-1.44.958-2.397 2.875-3.356 4.313M829.657 170.648v2.396"/></g></g></g><g stroke="none"><path id="b" fill="#fff" d="M989.722 232.95v93.45c0 80.99-38.34 108.786-89.617 130.83-51.278-22.044-90.096-49.84-90.096-130.83v-93.45H989.72z"/><path fill="#cf142b" d="M900.105 312.023c4.313 0 11.022-3.834 16.773-9.585 6.23-6.71 16.773-9.105 27.796 0 11.022 9.106 17.732 5.272 23.483 0 5.75-5.27 10.543-7.188 21.565-7.188v-62.3H810.01v62.3c11.02 0 15.814 1.917 21.565 7.188 5.75 5.272 12.46 9.106 23.482 0 11.502-9.105 21.566-6.71 28.275 0 5.272 5.75 11.98 9.585 16.773 9.585z"/><g fill="#0b50a0"><path d="M900.105 359.946c5.75 0 17.253-6.23 20.128-7.668 10.543-6.23 18.21-.48 24.44 2.396 6.71 2.876 19.17 6.23 26.838 0 7.67-6.23 11.982-5.75 17.254-5.75.958-7.19.958-14.378.958-22.525v-5.75c-6.71-1.44-10.064.478-17.252 6.708-7.19 6.23-15.336 4.792-25.88.958-10.063-4.313-20.127-11.98-30.19 0-2.876 3.355-9.586 8.147-16.295 8.147-7.188 0-13.42-4.792-16.294-8.147-10.542-11.98-20.127-4.313-30.19 0-10.544 3.834-19.17 5.272-26.36-.958-6.708-6.23-10.063-8.147-17.25-6.71v5.75c0 8.148.478 15.337 1.437 22.526 5.27 0 9.105-.48 16.773 5.75 7.668 6.23 20.607 2.876 26.837 0 6.71-2.875 14.377-8.626 24.92-2.396 2.876 1.438 13.898 7.668 20.128 7.668zM900.105 380.553c7.19 0 15.815-2.875 23.483-7.19 9.584-5.27 16.294-2.874 25.878 1.918 10.064 4.794 18.21 3.356 23.962 0 2.875-1.916 5.272-5.75 11.502-4.312-2.876 11.98-7.19 22.524-12.46 31.15-9.585 2.397-14.857 2.397-24.92-1.916-10.065-4.793-22.525-7.668-29.234-3.355-6.23 3.834-12.94 5.75-18.21 5.75-5.273 0-11.982-1.916-18.212-5.75-6.71-4.313-19.17-1.438-29.233 3.355-10.063 4.313-15.335 4.313-24.92 1.917-5.27-8.628-9.584-19.17-12.46-31.152 6.23-1.437 8.627 2.396 11.502 4.313 5.27 3.356 13.898 4.794 23.482 0 10.064-4.79 16.774-7.187 26.358-1.916 7.668 4.314 16.294 7.19 23.483 7.19zM900.105 457.23c19.17-8.146 36.9-17.252 51.278-29.712-3.834-1.437-6.23-.48-9.585-2.875-3.354-2.396-13.418-3.355-22.044 1.438-9.106 4.314-12.94 5.272-19.65 5.272-6.708 0-10.542-.958-19.648-5.27-8.626-4.794-18.69-3.835-22.044-1.44-3.355 2.397-5.75 1.44-9.585 2.876 14.377 12.46 31.63 21.566 51.278 29.713z"/></g><g stroke="#000"><path fill="#f9d050" d="M887.644 256.432c.48.958-.48 3.355 0 4.313.958 1.917.958 2.876 2.396 3.834h3.355c10.543 0 23.003-4.314 33.546-4.314 10.065 0 16.295 3.355 22.046 3.355 3.355 0 6.23-2.396 6.23-4.792s-3.834-3.834-11.98-3.834c-11.502 0-17.732 2.876-27.317 2.876-14.378 0-16.774-5.272-16.774-7.668s2.396-5.75 10.064-5.75c2.396 0 4.313-.48 5.27-1.44.48-.957 1.918-2.874 4.794-4.312 3.354-1.917 10.064 0 13.418-2.396 0 1.917-2.875 4.792-5.27 5.75 4.79-1.437 10.063-1.437 11.02 2.397-2.395-1.437-6.23-.478-7.667 0-1.917.48-2.875.96-4.792 1.44 1.917-.48 2.875 3.353 5.75 3.353-2.875 2.397-7.667 2.397-12.46.48-1.437-.48-5.27-1.917-7.667-1.917-4.792 0-7.668.958-7.668 2.875 0 2.397 2.876 3.835 11.502 3.835 8.626 0 13.418-2.396 26.358-2.396-.96-1.44.48-2.877-1.438-4.314 4.792 0 10.064 1.437 11.98 4.792-.478-3.355 2.397-6.23 1.44-9.105 2.874.48 5.27 3.354 5.75 5.75 0-1.437 1.916-1.437 1.916-2.875 2.876 1.438 4.313 4.792 3.834 7.668 1.438-2.396 2.876-1.438 3.834-4.313.96 1.917.48 7.667-2.875 9.584 2.874-1.917 7.187-1.917 10.063 1.438-2.876-.48-4.313.96-5.75 1.438-5.752 3.354-15.337 5.27-22.525 4.792-7.668-.48-8.627-1.917-13.42-1.917 2.877.48 8.627 6.23 13.9 6.23 3.354 0 5.75 0 7.187-.48 1.438-.478 3.834 0 5.75.96 1.44 1.437 4.314 2.875 6.23 2.396-.478 1.917-1.436 2.875-2.874 3.354 2.397 1.438.96 2.397 3.356 4.313-.96 0-1.917.96-3.355.48 1.44 1.438 1.44 3.355 2.876 4.314-.48 0-1.917.48-2.875 0 1.44 1.917 0 4.313 1.44 5.27 1.436 1.918-1.44 4.315-3.835 2.398.48 1.437-.96 2.875-2.396 2.396-1.44-.48-2.398-1.917-1.918-2.396 0-.48 0-.48.48-.96-.96 1.44-2.877 1.44-3.835.96-.48-.48-.96-.96-.96-1.438-3.353.958-4.79-1.917-4.312-3.355.48-1.438 3.355-1.918 4.313-1.438.96.48 1.917.958 2.876 0 .958-.48 1.438-1.438 1.438-2.397 0-1.437-1.438-5.75-7.668-5.27-7.19.478-18.69-1.44-24.44-3.356-.48-.48-.96-.48-1.44-.96 0 1.918-1.916 2.876-1.916 4.793 0 2.396.96 4.313 3.834 5.272-1.438 2.396-3.834 1.917-4.792.48 0 1.437-1.917 2.395-1.917 4.312-.48-.96-.96-1.438-1.438-2.396-1.438 3.355-5.27 5.272-7.188 4.314-2.397 1.917-5.272 1.438-6.23-.48-1.438.96-3.355.96-4.314 0 0 1.438-.958.96-1.437 2.876 0 .96-1.917 1.438-2.876.96-.958-.48-1.437-2.398-.48-3.356-1.437.958-2.874.958-3.833 0 0-.96 0-2.396.96-2.876h.957c-.958-.48-2.396 0-3.355-.48-.96-.957-.96-1.916-.48-2.874.48-.48 1.917-1.438 2.876-.48l.48.48c0-.96.478-1.917.957-1.917.96-.48 2.397-.48 3.834.958.96 1.438 1.917 1.438 4.793.96 2.396 0 6.23-2.397 9.105-4.794-8.147-1.436-3.355-6.708-.958-8.625-1.917-.48-4.793-.48-6.71.48-10.064 5.27-20.607 11.5-27.316 9.584 0 .958.48 1.916.96 2.875-1.438 0-4.314 0-5.272-1.438-.48.958-1.438 3.355-.48 5.27-.958-.957-3.833-1.915-5.27-2.395.957.96 0 2.876.478 4.313-1.438-1.437-3.834-2.396-4.792-1.437s-2.876 1.437-4.313.958c-.958 1.438-2.395 2.396-3.833 2.876 0-.96 0-2.397-.48-2.876-.48 1.438-1.916 3.355-3.833 4.313 0-.96 0-2.397-.48-3.355 0 1.917-3.833 2.875-4.313 4.313.48-1.438.48-2.876.48-3.834-.958 1.438-2.396 2.875-4.792 3.355.48-.96.96-1.918.48-2.877-.48 1.917-3.355 2.876-5.75 2.396 0 .958-1.918 2.395-4.314.958-1.438-.48-2.397-1.917-1.438-2.876-1.917 0-3.834-1.917-2.876-3.354 0-.48.48-.96.48-1.438-1.438-.958-1.917-2.875-.48-4.313.48-.48 1.917-.48 2.876-.48 0-3.833 3.354-3.833 4.792-.958.96 1.437 3.834 3.833 6.23 3.354.96 0 1.438-.48 2.396-.48 2.876-.958 8.627-3.354 11.98-6.23.48-1.437.48-2.396.48-3.354-1.916.958-3.833 1.917-4.792 3.355v-1.438c-1.438 0-3.834-.48-4.792-.48.48-.48.958-2.875 1.917-3.354-2.396.48-4.793 0-6.71-.48.96-.958.96-2.395 1.438-3.833-.958.48-3.354-.48-5.27 0 .478-1.438.957-3.355 2.395-3.834-1.917.48-4.313 0-6.71-.96 1.917 0 2.876-2.395 4.314-2.395-3.834 0-4.793-1.916-6.71-2.874 1.438.48 2.396-.96 3.834-.96-1.438-.478-3.834-2.874-2.875-4.312-.48.48-.96 1.438-1.917 1.917-.96.48-2.876 0-4.313-1.436-.96-1.917-.48-4.314 1.437-4.793-2.396-.478-2.396-2.874-1.437-3.833.48-.958 2.396-2.396 3.354-.958.48.478.96 1.437 1.438 1.916-.48-.96-.48-2.876-.48-4.313.48-1.438 1.44-1.438 2.876-1.917 1.44 0 2.397 1.437 2.397 2.875 0 1.44.48 2.397.96 4.314 0-.48.478-1.437.478-1.917 0-1.917 2.396-1.437 3.834-.958 1.437.478 1.916 3.353 0 4.79-.96.96-.48 2.397.478 3.356 3.355 5.27 9.106 9.585 13.898 10.064 0-1.917.958-3.834 2.396-5.272 0-.958.48-2.396.96-3.355.478-2.875 1.916-4.313 3.833-3.354-.48-.48-.96-.96-.96-1.44-1.437-1.437-2.874-3.833-1.916-5.75s3.833-1.437 4.79-.48c-.478-2.874 2.877-5.27 2.877-6.708.48 1.437 1.438 3.354.958 4.792.48-1.917 3.834-4.313 6.23-5.27-.958 1.436 1.917 3.832 1.438 5.27.96-2.396 4.792-3.834 7.668-3.834-.958.96-.958 2.876-.958 3.834 1.438 0 3.834-.48 4.793-1.917 0 1.917-.96 3.834-1.917 4.793.48-.48 2.396-.48 3.834-.48-1.438 1.438-.96 2.876-2.396 3.834 1.917-.958 4.313-.958 4.792.96.958 1.436-.48 3.833-1.438 5.27-.958.48-1.917 1.438-2.396 1.438z"/><g fill="none"><path d="M857.932 262.182c-3.355 1.438-4.313 4.792-4.792 6.71M857.453 265.537c-4.792 2.875-6.71 5.272-5.75 10.543M859.85 279.914c2.874-.958 4.79-1.917 7.188-6.23"/><path d="M865.6 275.6c-.958 1.918 0 5.273-1.438 6.71 2.396-1.437 4.313-3.354 4.793-6.71"/><path d="M866.558 280.872c1.917-.958 4.792-3.834 6.23-7.19-.48 1.44 0 3.835-.958 5.273 2.396-2.396 3.354-3.834 3.833-6.23 0 .48.48 1.438.48 1.917.958-.96 1.917-1.917 1.917-3.834M878.06 272.246v2.396c1.917-1.438 2.396-3.354 2.396-5.75M879.977 271.767c2.875-1.917 3.355-4.792 3.355-9.105M883.33 267.454c1.918-1.438 2.397-2.396 2.397-6.71M879.497 247.805c-.958 0-1.917.48-1.917 1.917 0 .958-1.438 2.396-1.438 3.834-.48 1.917-1.437 2.396-2.875 1.917-1.438-.96-1.438-.96-1.438-2.396 0-1.917 2.395-2.397 2.395-4.314.48-.958.96-2.396 1.438-2.396-2.396 1.438-5.75.48-6.23-2.396"/><path d="M883.81 249.243c-.957.48-1.916-.958-3.354-.48-.48 0-1.917.48-2.396 0"/><path d="M877.1 251.64c.48.478 2.876 1.437 5.273.478-1.917.48-3.355-1.917-1.438-3.354M872.788 246.847c-1.917 0-3.355 1.438-2.875 2.875.48 1.438 2.396 1.438 3.833.48M869.433 270.81c.48-.48.958-1.44.958-1.918.96 0 1.918-.48 2.398-.958 1.917 0 3.354-1.438 3.834-2.876.958 0 1.437-2.396 1.916-3.354.48.48 1.438 0 1.917-1.917.96.48 2.397 0 2.876-1.438M863.683 254.994c0 .48-.958 1.438-1.917 1.917.48.96 0 3.356-.958 3.835.48.958 0 2.396-.48 3.354 0 .48.48 1.916.48 2.396M865.6 245.41c-.958 2.395-.48 5.27 1.438 5.75"/><path d="M866.558 253.077c-.48 2.396-.48 5.75-.958 7.19-.48.957-1.438 4.312 2.396 5.27 4.313.96 6.71.48 9.105-6.71M884.29 277.518c0 .48-.48 1.438-1.438 1.438M887.644 276.56c0 .957-.958 2.395-1.438 2.874M891 275.6c0 .96 0 2.397-.96 2.876M861.766 245.888c.48 0 .958.958 1.438 1.917-1.438-.96-2.876 1.438-1.917 2.875M860.328 254.035c-.48.48-1.438.958-1.917 1.438M858.89 258.348c-.48 0-.958.48-1.438.48M835.887 249.722c0-.48 0-.48.48-.958M831.574 248.284c-.48 0-.48 0-.958-.48M832.053 254.994h.958M830.136 252.118c-.958-.958-2.396-1.438-2.875-1.438M856.494 269.85c-3.355 2.875-4.792 5.272-5.272 8.626M859.85 272.246c-.96 1.917-2.397 3.355-3.835 4.313M841.16 286.623c-3.835.958-6.71.48-9.586-1.438-.48-.48-.958-.48-1.437-.958M855.536 279.914c-.48 1.917-.958 4.313-1.917 4.792 3.833-1.917 7.188-4.792 7.667-9.105M827.74 289.02c1.438-.48 2.875.48 3.834-.48M911.127 273.205c.958.48 2.396.958 2.875 1.438.48-.96 2.397-2.396 3.834-2.876M877.1 283.27c-.478-1.918.48-4.314 3.356-5.273M858.41 291.416c.48-.958.48-2.396.96-3.355M837.325 292.853c-.48.958-1.438 1.917-1.438 2.875M830.136 293.812s0-.48.48-.48c.958-.478 2.395-1.437 2.875-2.395M895.312 287.103c-.958.48-1.438 0-1.917-.48M894.833 289.5s-.48.478-.958.478M897.23 291.895c-.48.48-.96.958-1.44.958M911.127 292.853c.958-.48 1.438-1.438 1.917-3.355M904.897 292.374c1.438-.48 2.396-1.438 3.834-2.875M918.315 288.54c0-.958 0-1.917.48-2.875M953.78 292.853c-.96-.958-.96-2.396.478-3.355.96-.48 1.438-.958 2.396-1.437M924.546 276.08c-7.668-3.355-7.19-7.668-13.42-7.19M958.57 290.936c.48.48 0 1.917 0 2.396M962.884 290.936c-.48 1.438-.48 1.917-.48 3.355M925.983 245.888h-3.834M885.727 262.182c0 .958 1.438 2.875 5.272 2.875-.48 0-.96-.48-.96-.48"/><path d="M887.644 256.432c-.48.48-.958 0-.958 0-.96-.958.48-2.875 1.916-3.834-1.437.48-2.396.48-3.354.48-.96 2.875-3.834 4.312-5.75 2.396-.48 1.916-2.876 4.313-4.793 3.833-1.917-.958-2.397-2.396-1.917-3.833-2.396 2.875-5.272.958-6.23 0-.48-.96 0-3.355.958-6.23"/></g><path d="M918.315 274.642c-1.438.958-2.875 0-4.313 1.438-.96.958.48 1.437 1.438 1.437-.48 1.438-.48 1.917 1.917 1.917-.96 1.438 1.916 1.917 1.437 3.834 1.438-1.437 1.438-3.354.96-4.792-.48-1.438-2.877-2.396-1.44-3.834z" stroke="none"/><g fill="#073163" stroke="none"><path d="M874.705 259.307c-1.917-.958-2.396-2.396-1.917-3.834-.48.96-1.438 1.438-2.396 1.438-1.917 4.314-4.313 8.148-7.19 8.148-3.353.48-2.874 3.834-.478 3.834 5.272.958 7.668-.96 11.98-9.585zM827.26 247.805c1.44-1.438.48-2.875-.478-3.355-1.438-.48-4.313 0-5.75 2.397 1.437-.48 2.874-.48 3.354.48.48.957 1.437 1.916 2.875.478zM829.657 239.18c3.355 0 4.313.478 4.792 1.916.48.958-.48 2.396-1.438 2.396-1.438 0-2.876-.958-2.397-1.438.48-.958.48-2.396-.958-2.875zM839.242 246.847c2.396.48 3.355-.958 1.917-2.875-.48-1.438-1.918-2.397-4.314-1.917 2.396 1.437 0 3.834 2.396 4.792zM821.51 254.994c1.438 2.396 3.834 2.396 4.792 1.917 1.438-.478 1.917-1.916 1.438-2.874-.958-1.438-2.396-1.917-2.875 0-.96 1.916-2.397 1.437-3.355.958zM828.698 284.227c-.958-1.917-3.834-1.917-6.23 0 .958-.48 2.875 0 3.355.958.48.96 1.437.96 1.917.96.48-.48 1.437-.96.958-1.918zM832.532 281.352c0-2.396-3.355-2.875-5.272-1.917.96 0 2.397.96 2.397 1.917.48.958 1.437 1.438 1.917 1.438.958-.48 1.437-.96.958-1.438zM827.74 289.978c-2.875-.48-4.313 2.875-4.313 5.272.48-1.438 1.917-2.397 3.355-1.917 1.437 0 1.916-.48 1.916-1.438.48-.96 0-1.438-.958-1.917zM828.22 298.125c.957.48 1.916-.48 2.395-1.917 0-.958 1.917-.958 2.396-.48.96.48.96 2.397-.478 3.355-.958.48-3.355.96-4.313-.958zM894.833 283.748c-.958-.48-3.355-1.438-5.272 0 1.44-.48 2.398.48 2.877 1.438 0 .958 1.438 1.437 1.917.48.48-.48.958-1.44.48-1.918zM890.52 287.103c-1.917-.958-4.313 1.438-4.792 3.355.48-.48 2.396-1.438 3.354-1.438.96.48 1.917 0 1.917-.96.478-.478.478-.957-.48-.957zM892.916 290.936c-1.438 0-3.355 1.917-3.355 3.834.48-.96 1.44-1.438 2.398-.96.958 0 2.396-.478 2.396-1.436s-.48-1.438-1.438-1.438zM897.23 294.77c-.96-.48-2.397 0-2.397 1.438 0 1.437 0 2.875-.48 3.354.96-.958 1.918-1.437 2.876-1.917.478-.48.957-1.917 0-2.875zM951.383 290.457c-.958-.958-2.396-.48-2.875.48-.48.958-.96 3.354 0 5.27 0-.958.958-2.395 1.917-2.395 1.437-.48 1.916-2.397.958-3.355zM954.258 292.374c-1.917.958-1.917 4.313-.48 6.23 0-.958.48-2.396 1.438-2.875 1.438 0 1.917-1.918 1.438-2.877-.958-.958-1.917-.48-2.396-.48zM960.01 294.29c-.96-.478-1.918.48-1.918 1.44-.48 1.436.48 3.353 1.917 4.312 0-.96.478-1.917.957-2.396 1.438-.96.96-2.876-.958-3.355zM964.322 293.812c-.958 0-1.917 1.438-.958 2.875.48.96 1.437 1.438 3.354.96-.48 0-1.438-1.44-.958-1.918.48-.96 0-1.918-1.438-1.918z"/></g></g><g id="i"><path fill="#f9d050" d="M831.095 383.43l23.962-73.803 23.962 73.802-62.78-45.528h77.635z"/><path fill="#024919" d="M835.887 376.72l49.84-36.422h-61.342l49.362 36.422-18.69-58.467z"/></g><use xlink:href="#i" x="90.097"/><use xlink:href="#i" x="45.048" y="52.237"/><path fill="none" stroke="#000" d="M989.722 232.95v93.45c0 80.99-38.34 108.786-89.617 130.83-51.278-22.044-90.096-49.84-90.096-130.83v-93.45H989.72z"/></g></g></svg>