<svg xmlns="http://www.w3.org/2000/svg" width="750" height="500"><path fill="#ed1c24" d="M0 0h750v500H0z"/><path fill="#fff" d="M0 125h750v250H0z"/><path fill="#00a651" d="M371.59 125c-5.367 11.3-15.473 19.198-25.132 26.672-1.59 1.387-5.54 4.075-2.673 6.12 2.455-2.744 9.195.89 5.278 3.84-3.51 3.286-8.34 4.488-12.236 7.198-3.45 1.874-6.95 3.832-9.685 6.7-.186 4.483 5.562 2.002 7.894 3.87 3.038 3.247-1.288 8.72-5.274 7.47-5.097.155-8.618 4.64-10.545 8.92-3.987 6.165-11.543 7.99-17.557 11.5-3.442 2.005-6.78 4.225-9.985 6.566-4.13 2.824-.537 8.416 3.858 7.044 4.744-.473 9.013-4.2 13.925-3.127 4.455 1.565 5.705 7.387 4.187 11.452-1.124 3.254-3.85 5.547-6.032 8.09-3.545 3.59-8.18 5.92-13.067 7.032-4.723 1.585-8.968 4.48-12.066 8.385-3.596 3.62-7.178 7.3-11.31 10.317-1.306 3.33 2.378 6.168 5.45 6.08 6.472-.408 10.958-5.705 16.47-8.427 4.575-2.056 9.958 2.874 8.84 7.64-.355 4.636-4.696 6.99-8.555 8.415-11.346 5.704-21.197 13.975-29.944 23.1-1.808 3.69-6.782 2.605-9.46 5.177-1.744 3.255 2.634 4.972 5.246 4.637 11.225-1.35 21.7-6.094 31.622-11.315 3.69-1.764 7.155-4.086 10.992-5.492 3.603-.89 8.628.677 9.273 4.778-.005 4.33-4.294 6.727-7.69 8.42-10.476 5.502-21.972 8.545-33.17 12.183-4.19-1.172-7.348 6.285-2.75 7.626 4.862 1.668 10.03.33 15.005.112 15.378-2.356 28.828-10.677 43.204-16.057 5.976-1.948 13.03.77 15.98 6.37 2.963 4.992 2.692 11.556-.434 16.406-4.94 10.568-12.45 20.282-22.53 26.358-6.33 3.134-13.717 4.333-19.14 9.13-5.017 1.653 2.514 8.43 3.603 3.052 3.015-4.11 8.33-5.34 13.154-5.51 7.247-.79 14.943-2.126 20.574-7.143 5.05-3.92 10.024-9.33 16.88-9.414 3.787.45 7.534 3.494 11.382 1.636 3.366-1.54 8.648-.638 9.527 3.502 1.607 4.842 6.598 7.045 10.556 9.636 1.433 2.012 6.193 7.2 7.29 2.626-.885-3.263.38-8.255 4.66-7.165 3.74.168 7.3 1.547 11.033 1.773 4.97 1.03 9.113 4.43 11.935 8.538 1.942 2.68 6.193 7.287 9.352 3.733 1.96-3.676-1.78-6.742-4.828-8.055-4.442-2.752-8.24-6.418-12.123-9.89-5.723-5.345-10.668-12.145-11.576-20.132-1.232-7.963-.584-16.085.455-24.027 1.307-5.114 7.846-7.905 12.417-5.188 6.433 2.935 12.82 7.135 20.196 6.68 10.657.23 21.608-1.812 32.022 1.277 10.135 3.19 17.38 11.743 27.253 15.444 2.21 1.343 5.037.065 5.847-2.295.978-2.122.288-4.836-1.756-6.045-11.442-11.55-27.08-17.16-40.316-26.184-4.168-1.057-4.927-7.762-1.074-9.698 5.065-3.68 12.232-1.968 16.726 1.828 3.795 2.223 8.07 3.888 12.523 3.892 4.56-1.428 2.35-8.027-1.735-8.524-7.4-4.177-12.698-11.033-19.11-16.466-3.69-3.125-7.73-6.29-12.69-6.896-2.71-.493-5.484-.6-8.23-.417-2.577-2.8.856-7.088 4.187-6.737 3.42.23 6.818.484 10.232.008 3.815-.278 7.627-.673 11.455-.7 3.09 2.105 9.266-1.53 6.477-5.16-3.047-2.67-7.454-2.437-11.095-3.807-6.397-2.1-12.906-3.795-19.497-5.125-4.612-.275-4.043-6.344.01-7.014 2.652-.99 4.958 1.05 7.504 1.365 4.347.933 8.837.92 13.183 1.868 3.685-1.82.836-7.202-2.497-7.516-7.866-2.813-14.663-7.89-21.308-12.827-7.337-5.518-13.993-11.9-21.42-17.29-2.694-1.67-7.11-2.15-7.82-5.85-.25-3.405 3.757-4.955 6.598-4.16 4.03 1.19 7.786 3.263 11.894 4.28 3.223.55 6.545 1.502 9.652 1.096 3.943-2.476-1.69-4.06-3.73-4.92-5.258-2.835-9.93-6.613-14.66-10.215-4-3.413 3.39-4.92 5.932-3.607 4.25 1.778 4.734-4.415 1.558-5.973-3.743-1.592-6.962-4.234-10.356-6.538-6.133-4.365-13.08-7.82-20.618-8.78-8.452-.85-16.34-5.71-20.825-12.94-2.78-4.118-4.82-8.673-6.794-13.217zm-27.758 47.418c4.356.13 3.687 7.98-.602 7.456-4.165-.268-3.91-8.3.602-7.456zm41.09 4.228c4.24-.76 5.137 6.977.902 7.34-4.413.79-6.048-7.83-.902-7.34zm-12.035 1.008c4.298.845 3.533 8.332-.804 8.397-3.173.708-6.593 2.873-9.803 1.25-2.61-2.76 1.163-6.844 4.077-7.74 2.235-.452 4.29-1.467 6.53-1.906zm27.7.032c4.14 1.51 2.68 8.822-1.69 8.73-4.13.552-6.053-6.34-2.2-7.973 1.246-.442 2.552-.815 3.89-.757zm-46.726 8.294c3.046 2.898 1.248 8.49-2.507 9.827-2.706 1.506-6.396 5.067-9.344 2.137-1.6-3.58 2.414-6.275 4.776-8.26 2.107-1.64 4.433-3.127 7.075-3.704zm34.78 16.163c4.36 2.06 2.146 9.916-2.64 9.428-3.93-.995-3.416-7.736.542-8.273.75-.287 1.435-.708 2.097-1.154zm-13.835.78c4.077 1.91.964 8.715-3.143 7.734-4.26-.5-4.18-7.987.516-7.31.885-.045 1.8-.067 2.627-.423zm29.822 3.903c4.47-1.386 9.85 3.218 8.4 7.887-1.992 3.62-6.918 4.078-10.446 2.725-4.05-.2-6.775-6.29-3.166-8.87 1.494-1.127 3.376-1.59 5.213-1.742zm-66.016 1.17c3.696-2.01 7.62 4.033 4.477 6.7-2.08 3.06-7.427 4.31-9.784.906-1.958-3.324 1.208-8.91 5.308-7.605zm-17.05 2.863c4.193.573 6.925 4.38 8.474 8.006.378 4.418-6.14 6.842-8.985 3.627-3.2-2.006-5.998-6.132-4.322-9.96 1.033-1.52 3.09-2.15 4.833-1.674zm102.004 15.968c4.55-1.2 7.853 6.07 3.946 8.702-3.572 3.244-10.516-1.054-8.654-5.683.926-1.716 2.778-2.857 4.708-3.02zm-57.904 8.293c3.815.487 2.58 7.098-.948 6.876-3.786-.7-2.92-7.248.948-6.875zm-19.35 3.513c3.11-2.2 7.124 3.172 4.536 5.676-3.102 2.184-7.126-3.104-4.536-5.677zm30.766.65c3.606 2.192 5.747 6.278 6.196 10.4-1.73 3.853-8.403 2.924-9.156-1.178-1.32-3.244-.103-7.417 2.96-9.22zm10.737 6.375c4.648-1.167 2.98 8.547-.9 5.177-1.29-1.53-.6-4.05.9-5.177zm-67.432 6.765c3.08-.9 7.565.046 8.414 3.578.36 3.32-3.29 5.047-5.966 5.87-4.287 1.322-8.48 3.494-13.09 3.202-3.454-1.975-4.695-6.016-5.927-9.54 3.336-3.128 8.246-2.21 12.38-2.993 1.396-.072 2.794-.107 4.19-.117zm104.6 15.22c3.926-1.924 8.147 4.307 4.86 7.217-4.11 4.732-12.024 5.61-16.94 1.636-.59-4.187 3.592-7.228 7.308-7.83 1.563-.44 3.116-1.1 4.772-1.023zm22.064 4.78c4.46-.766 7.974 5.597 4.79 8.89-3.016 4.545-10.205 5.737-14.315 2.01-1.603-3.767 1.647-7.694 5.107-8.903 1.487-.633 2.895-1.444 4.417-1.996zm-110.94 6.766c4.13-.41 7.914 3.69 7.372 7.762 2.99 2.942-2.305 8.424-5.284 5.377-2.625-3.182-2.61-7.497-3.628-11.304-.045-.846.58-1.94 1.54-1.837zm31.71 2.373c4.27-1.846 9.795 3.263 7.47 7.588-1.66 3.523-8.136 2.342-7.92-1.738-.012-1.952-.17-3.953.45-5.85zm-15.428 2.764c4.282-.98 8.21 4.57 5.83 8.273-4.268.38-6.484-4.687-5.83-8.273z"/></svg>