<svg xmlns="http://www.w3.org/2000/svg" xmlns:xlink="http://www.w3.org/1999/xlink" width="1200" height="600"><path fill="#ffb700" d="M0 0h1200v600H0z"/><path d="M50 300L215 50h165v500H215z" fill="#ff5b00"/><path fill="#005641" d="M50 50h165v500H50z"/><path fill="#8d2029" d="M430 50h725v500H430z"/><path id="a" d="M1086.1 466.06s6.798 13.84 14.31 19.48c11.127 8.356 33.944 7.752 43.628 17.5 11.604 11.495-.9 26.682-.796 28l.636 8.02s-7.824.095-11.12.61c-4.952.77-6.885 4.802-16.108 4.203-23.19-1.505-22.254-22.397-23.566-40.25-1.164-6.798-3.86-15.662-5.39-22.458-1.313-5.828-1.594-15.105-1.594-15.105z" fill="#ffb700" stroke="#000" stroke-width="2.126"/><use xlink:href="#a" transform="matrix(-1 0 0 1 1585 0)"/><use xlink:href="#a" transform="matrix(1 0 0 -1 0 600)"/><use xlink:href="#a" transform="rotate(180 792.5 300)"/><use xlink:href="#b" stroke="#000" stroke-width="5.56"/><g id="b" fill="#ffb700"><path d="M681.54 479.56l4.36-2.517 1.864 2.522c2.485 3.36 9.36 3.32 13.92-.078l3.49-2.598 2.92 2.597c3.84 3.417 11.012 3.422 15.59.012 3.207-2.39 3.654-2.437 5.774-.62 1.264 1.083 4.97 2.316 8.237 2.74 5.882.764 5.97.722 9.413-4.442 2.883-4.324 3.334-6.075 2.646-10.27-.456-2.78-.947-7.255-1.092-9.944-.26-4.87-.233-4.9 6.86-7.37 3.917-1.364 8.452-3.193 10.076-4.065 2.833-1.52 10.643-10.7 10.643-12.51 0-.478-3.05-1.213-6.78-1.63-14.832-1.665-17.344-9.63-7.7-24.424 15.724-24.128 25.214-47.625 25.277-62.593.03-6.69.41-8.937 1.27-7.482 3.513 5.947-2.782 30.878-12.317 48.78l-3.84 7.21 3.664-.844c2.015-.463 13.86-5.46 26.325-11.107 34.115-15.452 45.833-18.48 67.91-17.55 18.498.78 26.375 4.393 39.435 18.09 6.918 7.257 13.583 12.45 25.775 20.08 25.975 16.26 27.058 17.667 28.293 36.788 1.25 19.373.628 20.424-14.024 23.66-12.525 2.768-20.376 8.607-22.482 16.718-1.125 4.332 1.242 4.457 7.556.4l4.627-2.975 2.06 2.975c2.704 3.91 8.454 3.926 13.23.036l3.605-2.938 3.687 2.94c5.73 4.564 13.347 3.457 15.497-2.253.413-1.1 1.516-.747 3.75 1.194 4.185 3.637 14.913 5.197 16.07 2.337.444-1.09-.396-3.785-1.865-5.987-6.242-9.36-8.195-13.823-8.276-18.918-.114-7.087 2-10.505 10.06-16.268 9.79-7 12.816-16.033 5.37-16.033-4.597 0-9.23-4.064-12.186-10.686-6.008-13.46-4.83-28.552 4.186-53.657 9.16-25.5 10.175-30.2 10.21-47.255.03-13.79-.316-16.174-3.454-23.734-1.918-4.622-5.81-11.504-8.65-15.293l-5.16-6.89 6.627-5.49c20.234-16.764 16.095-44.2-8.263-54.77-7.452-3.233-9.314-3.52-22.372-3.43-7.834.052-19.78 1.082-26.546 2.29-6.9 1.23-18.575 2.22-26.585 2.253-12.725.05-14.885-.263-19.79-2.873-5.112-2.722-5.99-4.014-6.99-10.305-.206-1.293-1.11-2.583-2.01-2.867-1.738-.548-9.77 6.423-10.957 9.51-.586 1.524-1.063 1.418-2.78-.613-1.142-1.35-2.734-4.45-3.54-6.888-2.027-6.136.462-10.735 7.674-14.18l5.595-2.675-3.3-2.05c-6.81-4.224-18.386-1.333-22.573 5.636-1.184 1.972-2.476 3.588-2.87 3.593-.395.002-2.646-1.878-5.003-4.18-8.79-8.59-5.766-21.298 5.99-25.178 6.27-2.07 11.82-.49 12.973 3.69 1.763 6.383 7.24-2.007 6.26-9.584-.655-5.037-.557-5.212 2.93-5.212 4.846 0 15.164 6.362 18.355 11.32 3.706 5.756 3.437 14.822-.642 21.58l-3.203 5.305 4.19-.838c6.143-1.23 12.112-5.046 15.13-9.672 3.193-4.892 3.536-14.416.705-19.555-2.743-4.98-2.428-5.772 1.627-4.09 6.896 2.864 10.583 6.02 13.35 11.432 2.49 4.873 2.63 6.084 1.28 11.156-.832 3.13-2.683 7.246-4.113 9.15-2.228 2.96-2.304 3.458-.53 3.458 3.306 0 10.207-3.127 12.66-5.736 1.237-1.32 3.043-4.564 4.01-7.213l1.762-4.815 2.022 3.67c2.86 5.192 8.422 9.863 15.204 12.77 7.293 3.127 10.33 3.303 6.516.38-2.572-1.974-7.31-15.88-5.875-17.24.846-.8 10.747 6.82 22.053 16.97 10.695 9.6 17.415 12.745 27.238 12.745 12.548 0 19.854-10.923 14.214-21.25-3.288-6.023-10.613-6.86-14.896-1.702-1.97 2.37-2.51 4.257-1.933 6.745.707 3.047.43 3.453-2.345 3.453-3.647 0-10.837-4.667-23.606-15.32-19.47-16.25-43.13-30.02-60.214-35.05-10.963-3.23-34.383-4.49-45.528-2.45-12.062 2.206-26.33 9.11-34.1 16.498-13.773 13.094-13.992 30.518-.582 46.385l3.84 4.545-2.6 4.04c-3.783 5.876-3.46 13.784.804 19.61 1.877 2.565 3.77 4.663 4.208 4.66.437 0 .917-1.65 1.065-3.664.377-5.096 2.564-8.51 6.32-9.862 3.38-1.218 5.566-.643 21.05 5.537 16.29 6.502 43.077 6.95 71.56 1.194 13.965-2.822 30.43-2.656 37.675.38 13.28 5.562 16.357 20.035 6.595 31.02-4.225 4.757-8.3 6.693-21.983 10.45-10.412 2.856-12.878 3.046-36.543 2.81-20.22-.202-27.485.186-35.738 1.91-8.96 1.87-14.47 2.06-40.79 1.395l-30.43-.767 3.374 2.795c1.856 1.537 4.478 3.427 5.827 4.202 2.295 1.317 2.22 1.494-1.193 2.76-2.005.742-6.455 1.35-9.888 1.35h-6.244l-.84 5.306c-.462 2.92-.427 6.327.078 7.572.744 1.838.467 2.102-1.47 1.398-1.313-.477-4.97-1.416-8.126-2.086-3.157-.67-7.406-2.034-9.442-3.03-3.425-1.678-3.806-1.633-5.067.6-1.126 1.993-11.7 9.863-13.253 9.863-.25 0-.574-1.517-.72-3.372-.143-1.855-1.67-6.684-3.39-10.73-1.72-4.048-3.515-8.463-3.99-9.812-.717-2.035-1.04-2.14-1.906-.613-.572 1.012-1.408 3.77-1.858 6.132-.45 2.36-2.043 6.195-3.54 8.522l-2.725 4.23-1.738-3.617c-1.866-3.883-4.962-7.91-6.083-7.91-.378 0-1.023 1.243-1.432 2.76-.855 3.17-8.197 11.957-9.99 11.957-.66 0-1.2-2.483-1.2-5.518s-.584-5.52-1.296-5.52-1.296.786-1.296 1.746c0 2.334-6.27 9.292-8.373 9.292-.917 0-2.393.828-3.28 1.84-2.312 2.638-4.203 2.268-3.23-.633.455-1.358.158-4.53-.66-7.05l-1.932-5.958c-.31-.954-2.556-.7-7.312.824-7.685 2.464-10.26 2.028-6.308-1.068 1.444-1.13 3.642-5.05 4.883-8.71 1.243-3.66 3.074-6.906 4.07-7.215 1.397-.433 1.323.102-.323 2.327-1.175 1.59-2.14 3.732-2.144 4.762 0 1.03-.89 3.473-1.966 5.428-1.077 1.956-1.753 3.75-1.504 3.985.25.236 3.174-.875 6.498-2.468l6.045-2.898.025 2.59c.014 1.427.742 5.19 1.618 8.36l1.594 5.767 4.114-1.89c4.205-1.934 8.188-8.823 8.188-14.165 0-2.64 1.512-2.235 2.132.57.182.825 1.13 3.916 2.11 6.87l1.78 5.372 2.816-3.39c1.55-1.867 3.492-5.526 4.316-8.132 1.432-4.526 3.68-6.47 3.68-3.185 0 2.368 6.462 10.86 7.71 10.13.6-.352 1.8-3.54 2.665-7.082 1.796-7.37 4.695-12.38 6.537-11.302.692.405.962 1.192.6 1.748-.364.557 1.124 5.348 3.306 10.647 2.183 5.3 4.374 10.634 4.87 11.856.797 1.963 1.517 1.678 6.194-2.453 2.91-2.57 5.554-5.448 5.872-6.395.48-1.43 1.13-1.38 3.852.31 3.807 2.363 16.605 6.17 17.593 5.233.37-.35.75-3.712.844-7.47l.17-6.832 3.68.764c2.026.42 6.282.393 9.46-.058l5.778-.82-5.15-3.533c-2.832-1.944-5.695-4.46-6.363-5.59-.71-1.203-3.232-2.225-6.087-2.468-7.715-.655-21.388-8.324-21.388-11.996 0-.69 1.893.483 4.208 2.605 5.135 4.707 12.27 7.66 18.5 7.66h4.66l-2.883-3.834c-1.656-2.204-3.142-6.384-3.49-9.822-.557-5.48-1.136-6.353-6.86-10.33-3.437-2.39-7.695-5.973-9.46-7.96l-3.213-3.616-1.64 4.292c-.9 2.36-2.002 4.292-2.447 4.292-.445 0-2.177-1.38-3.85-3.066s-3.377-3.06-3.787-3.052c-.41.007-1.892 2.28-3.293 5.047l-2.547 5.035-1.968-2.9c-1.083-1.597-3.64-4.42-5.683-6.275s-3.118-3.373-2.388-3.373 3.25 1.933 5.602 4.294l4.277 4.295 1.74-3.146c1.032-1.868 1.42-4.735.95-7.054-.68-3.38-.585-3.576.71-1.455.825 1.35 3.327 3.937 5.56 5.75l4.062 3.293 2.803-5.134c2.79-5.11 2.81-5.12 4.078-2.07 1.698 4.08 13.98 14.15 24.437 20.033 1.612.907.933-2.21-2.044-9.38-.788-1.9-1.433-5.323-1.433-7.608 0-3.39-.978-4.9-5.314-8.198-6.26-4.763-8.284-8.15-9.464-15.835-.478-3.113-1.573-6.575-2.434-7.694-1.278-1.66-1.49-.73-1.147 5.047.23 3.894-.276 8.736-1.125 10.76l-1.545 3.678-1.194-3.066c-.655-1.686-3.56-4.62-6.452-6.516-2.893-1.897-4.923-3.77-4.512-4.158.41-.39 3.387 1.34 6.613 3.843 4.914 3.814 5.997 4.227 6.677 2.547.8-1.973 0-10.562-1.546-16.563-.77-2.997-.702-2.98 2.995.715 2.726 2.726 4.234 5.978 5.402 11.65 1.484 7.207 2.232 8.407 8.896 14.258 4.002 3.514 7.484 6.19 7.74 5.95.254-.24.76-9.33 1.12-20.2.697-20.84-.09-25.8-5.108-32.238l-2.58-3.308 4.055-4.373c5.288-5.705 7.717-10.277 8.77-16.515l.857-5.076-4.575 4.333c-3.747 3.548-5.536 4.333-9.875 4.333-4.296 0-5.975-.72-8.87-3.805-3.474-3.702-9.63-7.264-15.55-8.997-2.186-.64-2.913-.362-2.913 1.118 0 1.084-1.207 4.213-2.684 6.953l-2.684 4.982-5.624-5.558c-3.45-3.41-7.543-6.064-10.59-6.865-7.78-2.047-8.2-1.844-8.2 3.953 0 8.793-3.755 10.43-10.512 4.587-5.15-4.455-9.423-5.424-19.19-4.35l-7.544.83 1.357 3.404c1.134 2.845.878 4.043-1.55 7.273-3.94 5.24-9.063 7.51-16.95 7.51-3.63 0-8.176.752-10.1 1.67-1.922.92-6.7 1.977-10.618 2.352-3.917.374-8.092 1.043-9.278 1.486-1.855.693-2.06.122-1.46-4.098.914-6.458-3.598-11.222-10.628-11.222-9.123 0-13.33 8.16-9.758 18.922.688 2.07 1.587 5.338 2 7.26.427 1.992 4.535 7.282 9.568 12.317 4.85 4.854 9.435 9.904 10.188 11.223.753 1.32 3.24 3.436 5.53 4.704l4.16 2.306-.55-4.452c-.602-4.893.464-5.66 3.067-2.208.93 1.235 3.295 3.23 5.253 4.434 3.086 1.896 3.56 1.935 3.56.288 0-1.045.63-3.454 1.4-5.353l1.397-3.452 2.425 4.697c1.333 2.583 5.67 8.455 9.64 13.048 7.697 8.912 12.388 18.87 9.967 21.163-.982.93-3.636.858-9.138-.248-4.265-.857-9.54-1.31-11.723-1.007-4.457.62-4.808.044-2.067-3.388 2.893-3.623 2.433-4.22-3.25-4.22-6.576 0-22.9-3.152-29.168-5.632-6.094-2.41-7.5-1.81-9.293 3.97-.81 2.6-2.287 7.313-3.286 10.473l-1.816 5.745 6.592-.635c3.626-.35 8.29-1.143 10.364-1.764 2.075-.62 3.96-.95 4.19-.734.23.218-.695 2.463-2.055 4.988l-2.473 4.593 4.11-.838c2.26-.46 5.662-1.59 7.56-2.506 3.298-1.597 3.563-1.482 6.166 2.696 3.2 5.138 5.76 4.927 6.33-.522.587-5.632 2.44-4.8 5.925 2.665 3.35 7.176 6.838 9.71 7.508 5.455.223-1.412 2.028-3.712 4.012-5.11 4.014-2.827 7.04-1.98 8.773 2.46 1.796 4.596-2.208 9.333-13.852 16.392-23.327 14.14-36.886 33.48-40.757 58.128-3.49 22.233 7.414 45.207 29.29 61.708 10.47 7.896 27.1 16.23 26.044 13.05-4.488-13.504-4.34-39.273.25-43.62.69-.653.452 2.036-.527 5.975-3.645 14.672-2.06 26.363 7.282 53.763 8.45 24.783 7.28 35.374-4.68 42.375-3.84 2.248-6.315 2.62-16.643 2.493-11.207-.136-12.428.09-16.026 2.957-3.487 2.78-8.01 11.906-8.01 16.165 0 2.307 2.562 2.002 7.597-.905z"/><path d="M863.45 479.06l4.7-3.02 3.19 3.02c4.18 3.958 9.077 3.87 13.095-.237 1.754-1.792 3.33-3.033 3.5-2.76.17.275.953 1.604 1.737 2.953.994 1.707 3.036 2.566 6.723 2.826 4.44.313 5.634-.117 7.4-2.668l2.103-3.04 4.627 2.974c12.67 8.142 19.42-.4 13.758-17.41-2.88-8.65-1.296-13.513 7.983-24.522 3.913-4.643 7.118-9.598 7.122-11.01 0-2.255-.724-2.557-5.932-2.454-4.983.1-6.44-.436-9.064-3.323-4.266-4.698-4.013-10.076.756-16.045l3.81-4.77-6.76-4.586c-3.717-2.524-10.42-8.493-14.898-13.266-10.054-10.72-19.94-15.802-32.975-16.955l-8.74-.774.012 6.616c.017 8.517 4.014 16.71 14.924 30.588 12.406 15.78 13.272 18.222 13.775 38.846l.425 17.442-3.59 3.406c-3.243 3.077-4.706 3.47-15.173 4.073-9.964.575-12.058 1.09-14.982 3.68-3.883 3.44-5.045 5.31-6.244 10.062-.698 2.768-.414 3.372 1.584 3.372 1.338 0 4.55-1.36 7.135-3.022zM596.82 433.98c1.11-1.5 2.016-3.92 2.016-5.38 0-2.205.985-2.793 5.83-3.48l5.833-.83-3.89-3.1c-4.62-3.68-5.048-6.557-.976-6.563 4.056 0 10.925-4.212 11.97-7.328.485-1.45.18-3.385-.69-4.378-2.275-2.595-6.55-2.204-7.344.672-.853 3.09-2.282 3.1-5.522.03-4.873-4.615-4.982-14.17-.226-19.732 2.242-2.62 2.222-2.793-.636-5.5-3.075-2.912-5.27-8.675-3.826-10.043.46-.436 2.89-.09 5.398.77 3.565 1.22 4.973 1.24 6.442.085 4.45-3.498-.37-7.995-7.507-7.003-2.872.4-4.058 0-4.47-1.49-.312-1.13-2.824-2.605-5.654-3.32-5.058-1.278-5.094-1.263-5.094 2.22 0 3.82-2.18 4.54-6.32 2.09-3.366-1.99-6.63-.445-6.63 3.14 0 3.342 3.363 4.99 9.39 4.603 4.62-.298 4.793 3.14.403 8.08l-3.157 3.552 2.5 3.593c3.704 5.32 3.392 14.158-.654 18.547l-3.173 3.44-2.08-2.76c-2.893-3.833-6.85-3.576-7.933.517-.71 2.68-.123 3.905 3.233 6.745 2.255 1.907 5.548 3.47 7.318 3.47 4.378 0 4.207 3.442-.345 6.92l-3.56 2.722 5.503.854c3.027.47 5.503 1.353 5.503 1.963 0 2.338 3.814 9.614 5.04 9.614.71 0 2.195-1.227 3.304-2.726z"/><path d="M668.48 402.92c5-1.97 15.82-11.134 15.82-13.398 0-.712-2.986-3.997-6.636-7.3-7.683-6.95-16.04-18.657-18.204-25.5-1.13-3.57-6.585-9.68-21.95-24.582l-20.45-19.832-5.893 1.493c-3.24.822-7.196 1.513-8.788 1.538-2.745.04-2.696.2.953 3.022l3.848 2.98 5.397-2.996c5.23-2.903 5.417-2.92 6.062-.585.377 1.367-.438 3.737-1.884 5.478-1.402 1.688-2.2 3.603-1.775 4.255.427.652-.92 2.016-2.992 3.03-3.84 1.88-6.505 8.07-3.474 8.07 2.726 0 8.737-7.416 8.044-9.924-.355-1.286-.183-2.607.38-2.938 2.343-1.37 2.196 4.453-.182 7.317-1.402 1.687-2.2 3.6-1.775 4.254.427.652-.92 2.016-2.992 3.03-3.815 1.87-6.506 8.07-3.503 8.07 2.944 0 8.857-7.086 8.125-9.738-.383-1.387-.235-2.792.33-3.123 1.576-.923 2.427 3.674 1.096 5.927-.713 1.206-.707 2.853.017 4.16 1.31 2.366-.02 6.91-2.432 8.323-1.034.605-.333 1.793 2.176 3.688 3.63 2.743 3.702 3.03 3.702 15.13 0 10.113.408 12.723 2.266 14.483 2.085 1.976 2.266 1.983 2.266.09 0-2.07 3.632-4.6 6.603-4.6.876 0 6.35 4.64 12.167 10.312 5.85 5.706 11.973 10.56 13.707 10.87 1.723.308 3.588.634 4.145.726.557.093 3.18-.686 5.828-1.73zM605.96 354c0-3.26-6.724-6.74-14.767-7.641-6.493-.73-6.6-.69-6.6 2.555 0 2.685 1.022 3.74 5.504 5.693 7.202 3.135 15.863 2.804 15.863-.608z"/><path d="M613.33 353.7c3.28-2.976 4.834-6.516 2.86-6.516-2.27 0-8.292 5.406-8.292 7.442 0 3.18 1.118 2.988 5.432-.926zM606.34 344.06c.278-1.84-.86-3.067-4.27-4.607-7.355-3.322-16.15-4.86-18.268-3.196-3.9 3.067-1.3 7.183 5.003 7.924 2.538.3 5.98 1.073 7.648 1.72 4.846 1.883 9.454 1.025 9.887-1.84zM606.34 334.21c.396-2.624-1.282-3.563-14.978-8.383-10.225-3.6-14.752-1.902-11.484 4.305 1.138 2.163 3.05 3.15 7.334 3.792 3.187.478 7.543 1.41 9.68 2.074 5.707 1.772 9.005 1.148 9.448-1.788zM613.2 324.98c2.067-2.095 3.757-4.567 3.757-5.494 0-3.006-8.16 2.313-9.2 5.996-1.25 4.42.774 4.232 5.443-.502zM606.34 324.36c.45-2.99-4.52-5.688-14.294-7.762-7.17-1.522-10.334-.66-9.797 2.673.292 1.82 2.68 3.15 9.456 5.264 10.843 3.384 14.104 3.345 14.634-.174zM615.9 310.45c12.525-5.575 13.608-19.635 1.798-23.326-4.904-1.533-8.035-.707-9.912 2.615-1.437 2.542-.476 7.166 1.49 7.166.664 0 1.208.856 1.208 1.902 0 4.882-19.123 7.094-26.965 3.12-2.756-1.397-3.956-5.022-1.663-5.022 1.714 0 2.898-3.693 2.023-6.306-1.193-3.56-4.78-4.792-9.983-3.43-11.74 3.07-11.41 16.864.543 22.718 9.8 4.8 31.287 5.092 41.46.563z"/><path d="M608.11 299.64c.725-.687.41-1.742-.806-2.698-2.663-2.093-2.52-5.206.4-8.77 2.193-2.675 2.467-6.68 3.222-47.073 1.3-69.612 6.478-121.97 13.3-134.53 2.717-5.002 2.336-5.022-4.683-.246-9.042 6.152-15.926 14.163-22.026 25.63C586 153.607 582 182.735 582 244.915c0 35.306.24 39.925 2.25 43.244 1.91 3.152 2.012 4.316.67 7.683-.87 2.184-1.264 4.27-.877 4.636 2.57 2.435 21.302 1.79 24.067-.83zM713.34 233.26c.392-.6-.475-3.636-1.926-6.745-2.264-4.847-3.176-5.652-6.4-5.652-10.102 0-26.34-4.514-43.083-11.976-9.667-4.31-13.006-5.3-14.165-4.2-2.958 2.8 1.958 9.45 9.57 12.945 6.755 3.1 25.636 6.91 34.25 6.91 4.996 0 5.114.226 2.27 4.336l-2.09 3.023 5.65.146c3.11.08 7.402.566 9.54 1.08 5.548 1.338 5.6 1.34 6.386.134z"/><path fill="#000" d="M772.35 264.63c0-1.8-5.284-6.675-10.638-9.817-4.205-2.467-4.9-2.542-4.91-.53-.013 3.055-2.73 10.73-3.797 10.73-.6 0-1.49-1.5-1.977-3.332-.486-1.832-2.524-5.445-4.53-8.028l-3.645-4.695-2.84 4.35c-2.646 4.056-7.23 8.028-9.266 8.028-.486 0-.58-2.136-.21-4.747.4-2.836.09-5.086-.772-5.59-.793-.465-1.443-.303-1.443.36 0 1.528-6.367 8.75-7.714 8.75-.555 0-1.332-2.07-1.727-4.598-.393-2.53-1.064-6.53-1.49-8.89-.425-2.362.482-.76 2.015 3.556l2.79 7.85 3.057-4.784c1.68-2.63 3.06-5.506 3.064-6.39 0-.882.572-1.273 1.264-.87.69.406 1.654 3.57 2.14 7.03l.88 6.292 3.365-3.69c1.85-2.028 4.02-4.744 4.818-6.035 1.427-2.305 1.508-2.303 4.347.105 1.59 1.35 4.036 4.575 5.434 7.17 1.4 2.595 2.73 4.526 2.96 4.292.227-.234.74-2.91 1.137-5.944.4-3.035.754-5.63.79-5.77.198-.75 10.135 5.71 13.812 8.98 2.363 2.1 4.607 3.527 4.987 3.167.38-.36.69-3.46.69-6.892 0-5.317-.563-6.742-3.815-9.648-3.74-3.343-3.844-3.36-5.226-.916-1.794 3.173-3.91 3.22-3.91.084 0-2.287-7.065-11.08-8.903-11.08-.477 0-1.965 1.932-3.307 4.293-1.343 2.36-2.786 4.29-3.208 4.288-1.813-.01-11.774-11.117-11.77-13.122 0-1.594.672-1.187 2.418 1.476 1.327 2.024 3.978 5.045 5.89 6.713 3.874 3.38 5.282 2.557 6.776-3.953.426-1.855 1.166-3.373 1.645-3.373 1.657 0 10.328 9.21 11.548 12.263l1.224 3.066.928-3.374c1.134-4.124 2.385-4.277 4.195-.514.757 1.572 4.492 4.84 8.302 7.263l6.926 4.405 1.39-4.43c.764-2.437 1.777-3.837 2.25-3.112.706 1.08-1.094 8.423-2.453 10.002-.203.237-2.448-1.07-4.987-2.905l-4.617-3.335-.02 5.97c-.01 3.284-.368 7.213-.797 8.73-.84 2.968-3.07 3.803-3.07 1.15zM737.82 217.03c-8.23-6.872-9.48-8.445-9.3-11.702l.195-3.467.537 3.35c.314 1.955 2.506 4.885 5.27 7.042l4.73 3.694 2.908-3.363c1.6-1.85 2.93-4.053 2.955-4.896.067-2.2.46-2.014 6.034 2.82 4.95 4.297 5.028 4.318 5.764 1.534.41-1.55.265-4.472-.323-6.49-1.617-5.55-1.3-6.39 1.15-3.042 1.223 1.668 3.187 4.025 4.366 5.24 2.052 2.112 2.177 2.086 2.94-.614.44-1.55.807-4.39.816-6.31l.02-3.487 4.463 5.06c4.17 4.728 4.554 4.902 5.827 2.65.75-1.326 1.372-4.517 1.383-7.09.014-3.325.364-4.164 1.21-2.898 1.412 2.113.43 7.87-2.176 12.774l-1.872 3.52-2.457-3.827c-3.14-4.893-4.187-4.814-6.203.466-1.905 4.99-3.144 5.37-5 1.533-1.202-2.483-1.43-2.18-2.283 3.037l-.948 5.797-5.68-4.407-5.677-4.407-2.554 2.903c-1.404 1.595-2.572 3.59-2.596 4.434-.052 1.827-1.417 1.884-3.5.146zM811.04 191.43c-2.996-2.7-5.06-5.275-4.587-5.723.474-.448 1.007-.577 1.185-.285.178.29 2.627 2.866 5.442 5.723 6.483 6.576 5.15 6.762-2.04.285zM713.51 181.35c-2.725-3.685-2.537-6.127.78-10.12 2.398-2.887 3.493-3.28 7.68-2.747 2.684.34 8.463 2.713 12.84 5.272 5.056 2.955 10.285 4.935 14.335 5.427 3.507.426 6.376.587 6.376.357 0-.23-1.455-2.604-3.236-5.275-4.228-6.344-4.083-7.024.686-3.224 4.895 3.902 10.75 5.043 23.836 4.645l6.393-.194-3.71-3.665c-5.187-5.127-3.59-5.587 2.137-.616 5.373 4.662 5.036 4.99-6.27 6.12-4.806.48-9.973.13-14.268-.962-6.427-1.634-6.676-1.61-5.46.545.703 1.242 1.84 2.257 2.526 2.257.687 0 1.25.63 1.25 1.398 0 2.365-13.88.285-20.512-3.073-15.15-7.67-17.058-8.335-20.664-7.2-2.006.634-4.015 2.485-4.707 4.34-2.31 6.187 6.466 10.996 10.085 5.527 1.05-1.586.804-2.67-1.04-4.6-2.525-2.64-2.288-3.018 1.12-1.78 2.42.88 2.746 6.69.495 8.822-2.576 2.44-8.453 1.75-10.674-1.254z"/><path fill="#000" d="M773.19 166.07c-1.895-1.794-.41-2.234 8.085-2.392 10.508-.196 16.89-1.947 24.42-6.7 6.033-3.81 7.67-3.06 1.942.89-5.224 3.602-13.372 6.37-21.24 7.218-3.808.41-8.15.978-9.646 1.263-1.496.283-3.098.157-3.56-.28z"/></g></svg>