<svg xmlns="http://www.w3.org/2000/svg" xmlns:xlink="http://www.w3.org/1999/xlink" width="640" height="320"><path fill="#d3ae3b" d="M0 0h640v320H0z"/><path fill="#c40308" d="M16 16h608v288H16z"/><path fill="#B96B29" d="M389.64 157.4c1.874-.53 8.39-2.433 12.98-6.158 4.592-3.726 5.488-6.71 5.86-8.323.367-1.613.526-2.88-.66-1.956-1.188.923-4.75 3.725-7.177 5.073-2.43 1.347-4.672 1.982-5.99 2.353-1.32.368-2.376.606-1.108.104 1.265-.5 5.41-1.956 8.602-5.152 3.192-3.197 5.714-7.988 5.768-10.93.053-2.94-.157-2.732-1.103-1.996-.946.735-4.308 4.886-6.198 6.46-1.89 1.578-4.938 3.68-6.46 4.57-1.525.895-3.678 1.893-.684-.156 2.994-2.047 8.666-6.88 10.98-13.132 2.31-6.25 1.89-9.927 1.837-10.558-.052-.63-.578-1.89-1.103-.734-.525 1.154-4.31 8.72-7.354 11.975-3.048 3.258-2.312 2.628-2.995 3.153-.682.525-1.84 1.47-.366-.37 1.47-1.836 4.516-6.092 6.093-10.293 1.574-4.203 1.995-8.406 2.047-10.822.053-2.416-.997-5.777-1.47-6.774-.473-1-.946-1.734-1.105-.58-.156 1.156-2.573 8.615-3.887 12.24-1.313 3.624-3.938 7.722-4.465 8.51-.524.788-1.89 2.416-.42-.315 1.47-2.733 4.307-10.77 4.676-18.386.366-7.617-.684-11.82-1.735-13.92-1.05-2.102-1.96-2.847-1.96-2.847s.18 5.2-1.372 12.67c-1.553 7.47-3.82 11.415-3.82 11.415s-.953 1.076-.3-.717c.444-1.206 1.355-3.86 1.772-8.358.44-4.72.49-10.088-.887-14.66-1.5-4.977-4.104-7.522-4.104-7.522-.726 7.142-.582 16.344-3.2 23.803-.49-.438-1.137-1.248-1.395.4-.48 2.452-1.434 7.054-4.655 12.91-3.224 5.858-4.535 6.635-4.535 6.635s-.597-1.435-1.016-2.21c-.417-.778-.656-1.197-1.194-.12-.535 1.075-2.326 5.2-6.266 9.74-3.938 4.543-6.146 6.754-6.026 10.16.12 3.407 1.91 5.14 4.296 6.694 2.388 1.555 2.807 2.39 2.447 4.243-.357 1.854-2.506 2.51-4.354 2.57-1.852.06-4.18-.12-5.014.358-.836.48-.895 1.673-1.73 2.51-.835.837-1.193 1.313-1.97 1.435-.273.042-.495.067-.667.086-.172-8.986 3.31-12.992 3.31-12.992l-9.73-11.433c-.504.247-1.006.478-1.51.696-.068-.13-.162-.275-.285-.43-1.295-1.655-1.72-3.057-1.72-5.177.485.048 1.456.398 2.338.22.882-.175.22-1.06-.044-1.9-.265-.842-.53-3.76-.354-4.866.177-1.106.264-1.55.264-1.55s1.413 1.55 2.294 1.55c.884 0 .794-.884.927-1.858.2-1.468.89-3.32 2.028-4.336 0 0 1.543 1.063 3.31 1.063 1.762 0 4.143-.487 6.04-2.3 1.896-1.813 1.852-2.256 1.852-2.256s3.527 1.24 6.218 1.373c2.69.132 5.557-.31 6.924-3.14 1.367-2.832-.398-5.44-.705-5.884-.31-.444-1.19-.798-1.19 0s.044 2.918-1.59 3.98c-1.63 1.06-2.91 1.016-4.453.53-1.544-.486-3.705-1.106-6.175-.752-2.215.317-2.515.492-2.553.525.115-.118 2.126-2.18 4.096-2.78 2.03-.62 3.22.22 3.882 1.016s1.234 2.08 1.764.22c.53-1.857.22-3.98-.66-5.352-.884-1.37-2.78-2.256-4.764-2.034-1.985.22-2.69.53-2.69.53s-1.015-2.874-3.572-3.405c-3.12-.65-6.562.524-9.26 2.033 0 0-2.118.488-4.278-.132-1.415-.405-2.83-1.266-3.64-1.81.247-.827.73-2.354.73-2.354s.62-.188 1.265-.43c.646-.243.512-.46.593-.997.08-.54-1.214-1.476-1.214-1.476s-.187-1.617 1.94-2.726c2.126-1.11 1.895-.924 1.895-.924s1.246.23 1.755-.14c.508-.37.508-.6.508-.6s.942-.31 1.288-.877c.346-.567.41-1.387.157-2.05-.25-.662-.567-.788-.22-1.104.346-.315.66-1.072.692-1.608.03-.538.03-.662.03-.662s.724-.254.69-1.357c-.03-1.105-.628-1.547-.975-1.642-.345-.094-.564-.094-.564-.094s-.062-.663-.628-1.545c-.568-.884-.944-1.262-.944-1.262s.408-.313.188-1.04c-.22-.725-.724-1.166-1.227-1.326-.504-.157-1.038 0-1.038 0s-1.667-1.01-2.453-1.42c-.788-.41-.977-.503-.977-.503s-.03-.694-.314-1.073-.945-.536-1.29-.536-.724.19-.724.19-2.832-.727-3.995-.916c-1.163-.19-1.227-.284-1.227-.284s-2.515-1.2-3.49-1.388c-.975-.19-1.257-.283-1.257-.283s1.018-1.232 1.08-2.65c.064-1.42-.88-2.76-1.885-3.36-.567-.336-.872-.392-1.057-.508l-.02-.977 1.89.19.155-3.042-1.84.233.282-1.832-3.856-.044.282 1.83-1.855-.127.158 2.998 1.95-.252-.188 1.134s-.714.12-1.32.567c-1.005.6-1.856 1.768-1.793 3.188.062 1.42.91 2.682.91 2.682s-.25.063-1.225.25c-.975.19-3.492 1.39-3.492 1.39s-.063.093-1.227.283c-1.163.19-3.994.916-3.994.916s-.378-.19-.725-.19c-.346 0-1.006.158-1.29.537-.282.378-.313 1.073-.313 1.073s-.19.095-.976.504c-.787.41-2.453 1.42-2.453 1.42s-.536-.158-1.04 0c-.502.158-1.005.6-1.225 1.326s.188 1.04.188 1.04-.378.377-.944 1.26c-.565.883-.628 1.546-.628 1.546s-.22 0-.566.093c-.346.095-.944.537-.975 1.642-.032 1.103.692 1.357.692 1.357s0 .125.03.662c.033.537.348 1.293.693 1.608.346.316.032.442-.22 1.105-.25.662-.19 1.482.157 2.05.346.567 1.287.876 1.287.876s0 .23.508.6 1.756.14 1.756.14-.23-.185 1.895.924c2.126 1.11 1.94 2.726 1.94 2.726s-1.293.938-1.212 1.475c.08.538-.054.754.592.996.646.243 1.265.43 1.265.43s.483 1.527.73 2.355c-.81.543-2.224 1.404-3.638 1.81-2.16.62-4.28.132-4.28.132-2.696-1.51-6.138-2.682-9.26-2.034-2.557.53-3.572 3.405-3.572 3.405s-.705-.31-2.69-.53c-1.983-.222-3.88.663-4.763 2.034-.882 1.372-1.19 3.495-.66 5.352.528 1.858 1.102.574 1.763-.222.662-.796 1.853-1.636 3.88-1.017 1.97.602 3.982 2.664 4.097 2.782-.04-.033-.337-.208-2.553-.525-2.47-.354-4.63.266-6.174.752s-2.822.53-4.454-.53c-1.632-1.064-1.588-3.186-1.588-3.982s-.882-.443-1.19 0-2.073 3.053-.706 5.883 4.233 3.274 6.923 3.142c2.69-.134 6.22-1.372 6.22-1.372s-.044.443 1.852 2.256c1.896 1.813 4.277 2.3 6.042 2.3s3.307-1.063 3.307-1.063c1.14 1.017 1.832 2.87 2.03 4.335.132.974.045 1.858.927 1.858.88 0 2.293-1.55 2.293-1.55s.088.444.264 1.55c.176 1.106-.088 4.024-.353 4.866-.263.84-.925 1.725-.042 1.9.882.178 1.852-.172 2.337-.22 0 2.12-.425 3.522-1.72 5.176-.114.146-.204.28-.272.407-.482-.21-.964-.434-1.446-.67l-9.73 11.432s3.497 4.025 3.308 13.06v-.064c-.177-.017-.413-.045-.708-.09-.777-.12-1.134-.598-1.97-1.436-.835-.836-.895-2.03-1.73-2.51s-3.163-.298-5.013-.357c-1.85-.06-3.998-.717-4.357-2.57-.357-1.854.06-2.688 2.447-4.243 2.387-1.554 4.177-3.287 4.297-6.694.12-3.406-2.087-5.618-6.026-10.16-3.94-4.54-5.73-8.665-6.266-9.74s-.776-.658-1.194.12c-.418.775-1.014 2.21-1.014 2.21s-1.313-.777-4.535-6.634c-3.223-5.858-4.178-10.46-4.655-12.91-.26-1.65-.908-.84-1.396-.402-2.62-7.46-2.475-16.662-3.2-23.803 0 0-2.604 2.545-4.104 7.523-1.377 4.57-1.325 9.94-.886 14.66.417 4.497 1.327 7.152 1.77 8.357.655 1.793-.3.717-.3.717s-2.267-3.944-3.818-11.415c-1.552-7.47-1.373-12.67-1.373-12.67s-.91.745-1.96 2.847c-1.05 2.1-2.1 6.303-1.733 13.92.368 7.617 3.205 15.653 4.676 18.385 1.47 2.73.105 1.102-.42.314-.526-.788-3.152-4.885-4.466-8.51-1.313-3.625-3.73-11.084-3.887-12.24-.158-1.155-.63-.42-1.104.58-.474.998-1.524 4.36-1.472 6.774.053 2.416.473 6.62 2.05 10.822 1.575 4.202 4.62 8.457 6.092 10.294 1.47 1.84.315.894-.368.37s.053.103-2.994-3.153-6.83-10.82-7.354-11.974c-.526-1.157-1.05.104-1.104.734-.052.63-.473 4.307 1.84 10.558 2.31 6.25 7.983 11.085 10.978 13.132 2.994 2.05.84 1.05-.683.157-1.523-.892-4.57-2.993-6.46-4.57-1.892-1.575-5.254-5.726-6.2-6.46-.945-.737-1.154-.947-1.102 1.995s2.575 7.732 5.768 10.93c3.193 3.196 7.335 4.65 8.603 5.152 1.267.502.21.264-1.11-.104-1.317-.37-3.56-1.006-5.988-2.353-2.428-1.35-5.99-4.15-7.177-5.073-1.188-.925-1.03.343-.66 1.955.37 1.61 1.267 4.597 5.857 8.322 4.59 3.726 11.108 5.63 12.98 6.158 1.875.527.555.527.555.527s-.74-.104-4.538-.952c-3.8-.845-9.552-3.856-11.11-4.834-1.556-.978-1.792-1.347-1.582.714.212 2.06 2.402 6.474 5.91 8.535s9.843 3.118 11.48 3.196c1.635.08 1.213.317.474.37-.74.052-2.56.052-5.54-.29-2.445-.282-6.075-1.47-7.306-1.89-.138-.525-.265-1.035-.323-1.35-.145-.784-.55-.668-.813-.492-.262.172-.407.318-1.276.755-.872.437-.9-.087-.93-.35-.03-.263-.203-1.398-.232-1.978-.03-.584-.35-.613-.754-.438-.407.176-2.352.99-3.077 1.312-.726.32-.058.9.32 1.6.376.7.957 1.718.957 1.718s-1.83.495-2.41.64c-.58.147-.406.555-.26.963.145.406 1.044 2.445 1.276 3.027s.755.233.755.233l1.83-1.077.637 2.444c-.03.04-.845.194-1.77.843-.924.648-.693 1.483.416 1.808 1.108.324 2.403.88 3.835 3.476 1.432 2.598 1.802 7.277 2.68 14.648.878 7.367 5.59 11.122 6.238 11.586s.277.834.277.834-.647.93-.37 2.365c.278 1.435 1.525 2.27 2.172 2.502.646.23.462.88.462.88s-.324 1.575 0 4.45c.323 2.873 2.68 6.117 3.327 6.674.646.554.693.833.6 1.065-.09.23-.508.047-1.293.648-.785.603-1.663 1.437-2.216 2.456-.555 1.02-.37 1.622-.186 3.013.185 1.39 2.218 2.642 2.218 2.642s-.37.093-.46 1.112c-.093 1.02.645 2.178 1.57 2.92.924.74 2.68 1.112 2.68 1.112s.14.88.23 1.48c.093.605 1.25 1.205 1.988 1.623.74.417 2.17.186 2.772-.093.6-.277 1.016.047 1.385.648.372.604.233 2.92.233 3.848 0 .927-.555 1.9-.232 2.364.325.463 1.203.138 2.08-.37.88-.512 1.11-.14 1.896.37.786.51 2.033.974 2.357.927.323-.047.185-.88.185-1.576s.125-2.267.448-2.5c.153-.11 1.513-.21 2.555-.65.486-.205 1.11-.417 1.156-.88.046-.464-.647-.464-2.17-1.252-1.526-.787-1.803-1.253-2.773-1.9-.97-.65-.508-.88-.508-1.16 0-.275.46-.6.646-.972s.093-1.204.093-1.204.786-.788 1.155-1.206c.37-.416.832-1.067 1.34-1.483s1.293-2.41 1.802-3.06c.508-.647 1.664-1.343 2.356-2.224.693-.882 2.542-2.318 3.605-3.014 1.064-.695 3.928-2.04 3.928-2.04s-.046 1.715.693 2.55c.74.835 1.71-.648 4.99-2.967 3.282-2.318 5.777-3.152 5.777-3.152s.693 1.065 1.57 2.178c.878 1.113 1.664-.047 5.684-5.607 3.172-4.39 7.35-8.4 8.97-9.9.3.134.596.267.89.403-.075.214-.16.456-.243.72-.37 1.153-.967 1.89-1.75 3.5-.783 1.612-1.98 1.98-3.36 4.146-1.382 2.163-1.566 3.635-1.705 5.846-.138 2.21 1.105 2.67 1.105 2.67s-2.026 1.98-2.625 3.454c-.598 1.473-.92 4.467-.92 4.467s-.324.137-1.06 1.657c-.737 1.52-2.073 1.75-4.006 3.684-1.935 1.934-4.098 2.763-5.11 3.36-1.014.6-.738 1.197-.46 1.98.274.782 1.656 1.565 3.268 2.164 1.612.598 2.164.368 3.27.322 1.105-.045.23.83-.23 1.288-.46.462-1.06 2.072-.967 3.868.092 1.797 1.428 1.38 3.086 1.105 1.657-.275 3.59-1.105 3.59-1.105l-.183.508c-.184.506-.276.873-.276 2.303 0 1.428.23 2.118.645 2.485.414.37 1.243-.413 1.84-.597.6-.187 1.613-.783 3.086-1.105 1.473-.323 2.025-.967 2.025-.967s-.367.46-.46 1.473c-.092 1.013-.045 2.53.186 3.407.23.873.874 1.933 1.887 2.854 1.013.923 1.243.508 1.98-.643.736-1.152 2.255-2.626 2.255-2.626s.092.37 1.105 3.64 4.328 5.985 4.328 5.985 3.316-2.717 4.33-5.986c1.012-3.27 1.103-3.64 1.103-3.64s1.52 1.475 2.257 2.627c.737 1.15.968 1.565 1.98.644 1.013-.92 1.657-1.98 1.888-2.853.23-.876.276-2.395.186-3.408-.094-1.015-.462-1.474-.462-1.474s.553.644 2.026.967c1.473.322 2.486.92 3.084 1.105.6.184 1.43.966 1.843.597.414-.367.645-1.058.645-2.484 0-1.43-.092-1.796-.276-2.302l-.185-.508s1.934.83 3.59 1.105 2.993.69 3.087-1.105c.09-1.796-.508-3.406-.968-3.868-.462-.46-1.336-1.333-.23-1.288 1.103.046 1.656.275 3.268-.322 1.61-.6 2.993-1.382 3.27-2.164.276-.783.553-1.38-.46-1.98-1.013-.598-3.178-1.427-5.11-3.36-1.934-1.935-3.27-2.163-4.008-3.684-.735-1.52-1.057-1.657-1.057-1.657s-.324-2.994-.922-4.467c-.598-1.475-2.624-3.453-2.624-3.453s1.244-.46 1.105-2.67c-.137-2.212-.32-3.684-1.702-5.848-1.382-2.166-2.58-2.534-3.363-4.146-.782-1.61-1.38-2.348-1.75-3.5-.072-.232-.152-.464-.234-.696.396-.176.793-.35 1.19-.52 1.61 1.484 5.805 5.51 8.986 9.91 4.02 5.563 4.807 6.722 5.685 5.608.878-1.11 1.57-2.177 1.57-2.177s2.496.832 5.777 3.15c3.28 2.317 4.25 3.8 4.99 2.966.39-.44.477-1.168.524-1.727 0 0 1.886.55 4.045 1.306 1.295.454 2.733 1.026 3.8 1.477 2.843 1.203 3.15 1.822 5.412 3.608s5.48 1.615 8.53.687c3.046-.926 11.166-3.605 14.42-5.014 3.253-1.41 5.583-2.646 5.926-3.3.342-.652.718-2.474.718-3.125 0-.653-.717-1.614-.958-1.787-.238-.172-.135-.687-.068-1.098.068-.413-.136-1.65-.65-2.2-.513-.55-.444-.754-.376-2.337.145-3.35-2.247-7.576-5.636-8.92 0 0-.09-.39-.366-.62-.272-.23-.73-.436-.73-.436s.067-1.928.045-2.342c-.02-.413.16-.365.392-.252.228.114.593.574 1.142.712.55.137.892-.254 1.007-.872.114-.62.572-1.858.778-2.478.207-.618-.047-.71-.298-.78-.25-.07-1.074-.16-1.464-.253-.388-.09-.388-.114-.297-.32.092-.205.228-.526.73-1.308.504-.78.047-.803-.435-.962-.48-.16-2.65-.826-3.246-.92-.597-.09-.734.414-.734.666 0 .255.023 1.355.046 1.768s-.365.298-.594.184c-.23-.114-.755-.437-1.166-.758-.412-.32-.71-.022-.87.437-.16.46-.662 2.342-.822 2.892-.16.55-.115.986.114 1.077.23.092 1.303 0 1.944 0 .64 0 .273.367.273.367s-.685 1.124-.914 1.56c-.228.436-.617.505-1.143.505s-1.408-.007-1.408-.007-3.514.132-6.1 2.056c-2.587 1.924-3.316 3.515-3.714 4.442-.397.93-.86.73-1.26 1.062-.397.332-1.524 1.526-1.524 2.256 0 .73.265 1.126-.86 1.855-1.13.73-2.058 3.913-.532 5.57 1.525 1.657 2.122 3.314 2.587 4.11.463.797 0 1.128-.398 1.128-.397 0-1.228-.676-1.922-1.194-.694-.518-4.197-3.254-5.702-4.376-1.507-1.124-.398-.995-.398-.995s.383.034 1.262-.336c.877-.37 1.017-.833.137-1.112-.878-.277-2.588-1.25-3.05-1.715-.462-.463-.692-.973.186-1.437.877-.463 2.818-1.715 1.294-2.132-1.526-.42-3.328-.74-4.807-1.16-1.48-.416-1.618-.833-1.618-.833l.972-1.39s.785-1.112-.14-1.252-3.14-.417-5.174-1.3c-4.06-1.758-6.605-4.74-7.548-8.382l.067-.087c.76 1.5 2.525 4.306 5.188 4.393 3.64.12 4.057-1.017 3.222-2.212s-1.79-2.27-2.028-2.63c-.24-.358-.3-.837.655.06s2.772 3.945 8.263 3.587c5.49-.357 5.462-1.434 5.462-1.732 0-1.054-1.118-1.22-1.777-1.882-.344-.345-.553-.846.555-.423s3.824.924 7.52.13c1.458-.31 5.324-1.998 5.698-3.96 0 0-2.453-.135-4.167-.874-1.716-.742-2.745-1.348-.924-.978 1.82.37 5.356 1.108 8.47.053 1.818-.618 4.17-2.09 4.168-4.783 0 0-3.377-.713-4.617-1.163-1.24-.45-1.635-.793-1.635-.793s4.826 1.53 9.208-.688c4.38-2.22 4.564-5.258 4.564-5.972s-.105-.926-.105-.926-3.984.98-6.965.952c-2.982-.026-3.906-.29-3.906-.29s8.34-.24 12.534-2.802c4.195-2.563 4.434-7.61 4.434-7.61s-4.75 1.69-7.73 2.035c-2.982.342-4.804.342-5.542.29-.74-.053-1.16-.29.475-.37 1.64-.078 7.97-1.137 11.48-3.197 3.51-2.062 5.698-6.476 5.91-8.535.21-2.06-.026-1.69-1.584-.713-1.557.978-7.308 3.99-11.107 4.834-3.8.848-4.54.952-4.54.952s-1.46-.07.42-.59zm-150.1 9.58c-.406.233-1.683.96-1.683.96s-.668-1.368-.842-1.775c-.174-.408-.087-.583.144-.583.232 0 .93-.203 1.48-.26.08-.01.15-.022.215-.037.184.525.426 1.094.744 1.665-.02.02-.04.03-.06.04zm51.18 29.97c-1.017 1.902-3.79 3.895-5.822 4.775s-4.25 1.16-5.175 1.297c-.924.14-.14 1.252-.14 1.252l.97 1.392s-.137.416-1.616.834c-1.48.416-3.28.74-4.805 1.158-1.525.416.416 1.668 1.293 2.133.878.463.647.974.185 1.437-.462.464-2.17 1.437-3.05 1.715s-.74.743.14 1.113c.877.37 3.28.833 3.28.833s-.046.093-1.524 1.206c-1.48 1.112-4.067 1.854-5.776 1.946-1.71.092-4.413.204-7.84.046-3.428-.156-3.822-.235-3.822-.235s-.118-1.143-.355-2.837c-.236-1.693-1.26-4.097-2.048-5.2-.79-1.103-2.442-3.31-2.442-3.31s.04-.472.157-1.023.04-1.143-.36-2.184c-.402-1.042-2.404-2.563-2.404-2.563s-.08-1.12-.08-2.163c0-1.04-.72-5.126-1.363-7.048-.64-1.922-3.764-6.968-5.206-9.37-1.442-2.403-2.298-5.965-2.734-8.73-.436-2.766-.26-3.668-.116-4.396.064-.32.2-.61.328-.867.592.764 1.35 1.488 2.318 2.08 4.195 2.564 12.533 2.802 12.533 2.802s-.924.265-3.905.29c-2.98.027-6.964-.95-6.964-.95s-.106.21-.106.925.186 3.752 4.565 5.97c4.38 2.22 9.208.69 9.208.69s-.396.342-1.636.79c-1.24.45-4.617 1.164-4.617 1.164 0 2.694 2.35 4.166 4.168 4.784 3.114 1.056 6.65.316 8.47-.053 1.82-.37.793.236-.923.978-1.714.74-4.168.873-4.168.873.376 1.964 4.242 3.652 5.7 3.963 3.693.793 6.41.292 7.52-.13s.896.077.553.422c-.66.66-1.777.828-1.777 1.882 0 .3-.028 1.375 5.462 1.733s7.308-2.688 8.263-3.586c.955-.897.895-.42.656-.06-.238.357-1.193 1.434-2.028 2.63-.836 1.194-.418 2.33 3.222 2.21 2.68-.087 4.455-2.93 5.204-4.423l.05.07.147.196c-.34.88-.93 2.32-1.58 3.54zM335 78.19c-.496-.945-.76-1.39-.76-1.39s2.07.97 3.3 2.36c1.23 1.394 1.203 2.128 1.387 2.812.184.683 0 1.942-.183 3.124-.184 1.18-.184 1.89.053 2.31.235.42.445.63.445.63s-.918.237-1.78.58c-.865.34-1.99.655-2.618.13-.63-.525-.785-.893-.392-1.234.392-.342 1.857-.762 2.04-3.282.18-2.52-.99-5.094-1.49-6.04zm-11.28 6.857c.472-1.197.666-2.34.305-4.792-.303-2.06-.703-3.826-.805-6.047 0 0 1.528.335 3.723 2.34 2.193 2.007 2.695 4.07 2.695 5.073 0 1.003-.53 2.23-.612 3.206-.083.975.277 1.84.277 1.84s-.806.332-1.527.833c-.722.5-1.222.808-2.333.752-1.112-.056-1.78-.557-2.418-.892s-1.054-.39-1.054-.39 1.27-.724 1.74-1.923zm-10.7-8.498c2.195-2.006 3.722-2.342 3.722-2.342-.1 2.22-.5 3.986-.806 6.047-.36 2.452-.166 3.595.306 4.792.473 1.2 1.75 1.923 1.75 1.923s-.416.056-1.056.39c-.638.334-1.305.836-2.417.892-1.112.055-1.612-.25-2.334-.753-.723-.502-1.528-.835-1.528-.835s.36-.864.277-1.84c-.083-.974-.61-2.2-.61-3.204.01-1.003.51-3.065 2.7-5.07zm-7.91 12.196c-.63.525-1.754.21-2.62-.13-.863-.343-1.78-.58-1.78-.58s.21-.208.446-.63c.236-.418.236-1.128.052-2.31-.183-1.182-.367-2.44-.183-3.124.183-.684.157-1.418 1.387-2.81 1.23-1.392 3.3-2.362 3.3-2.362s-.263.445-.76 1.39c-.498.946-1.676 3.52-1.492 6.04.184 2.52 1.65 2.94 2.042 3.283.39.34.23.708-.4 1.233zm29.24 21.078c-2.162 1.195-3.396.93-3.308 1.813.09.885 2.027 1.55 2.027 1.55s-1.985 2.122-3.53 3.096c-1.54.973-3.352 1.592-3.352 1.592s-.616.09-.264 1.062c.354.973.97 1.636 1.455 1.902.484.264.75.353.75.353s-2.69 2.875-3.88 3.804c-1.192.93-1.854 1.238-2.823 1.637-.97.398-.484 1.99-.265 2.7.22.705 1.058 1.68 1.544 1.812.483.133.66.486.044 1.46-.462.726-2 2.657-2.735 3.722l-.045.023c-.73-1.057-2.29-3.013-2.753-3.744-.617-.974-.44-1.327.044-1.46s1.325-1.106 1.545-1.813c.22-.71.705-2.3-.267-2.7-.97-.398-1.63-.707-2.82-1.636-1.192-.93-3.882-3.804-3.882-3.804s.265-.09.75-.354c.486-.267 1.103-.93 1.456-1.903.352-.973-.265-1.062-.265-1.062s-1.808-.62-3.352-1.592c-1.542-.974-3.528-3.097-3.528-3.097s1.94-.664 2.03-1.55c.087-.884-1.148-.618-3.31-1.812s-2.866-2.698-2.866-2.698 2.515-.84 3.75-3.362c.437-.893.542-1.708.496-2.39l.095.032c4.015 1.307 8.707 1.83 12.9 1.83 4.188 0 8.878-.526 12.884-1.83l.095-.032c-.048.682.057 1.497.494 2.39 1.235 2.52 3.75 3.362 3.75 3.362s-.7 1.51-2.86 2.71z"/><path fill="#D4AF3A" d="M347.47 158.5c0-6.785 3.122-11.076 3.122-11.076l-8.493-9.73c-8.09 3.127-15.5 3.317-22.1-.04-6.597 3.357-14.008 3.167-22.095.04l-8.496 9.73s3.122 4.29 3.122 11.076c0 6.786-1.312 11.82-2.08 15.103-.765 3.283-1.42 9.41.33 13.79 1.75 4.376 3.61 8.207 11.162 11.38s11.49 4.815 14.117 7.005c2.628 2.187 3.94 3.938 3.94 3.938s1.314-1.752 3.94-3.938c2.626-2.19 6.566-3.83 14.118-7.004 7.55-3.174 9.41-7.005 11.162-11.38 1.75-4.38 1.094-10.508.328-13.79-.76-3.28-2.07-8.31-2.07-15.1z"/><path fill="#B96B29" d="M344.8 161.3c-1.065-6.48 2.67-12.19 2.67-12.19l-7.27-8.5c-5.602 3.147-13.398 2.724-20.174-.393-6.774 3.116-14.573 3.54-20.173.393l-7.27 8.5s3.735 5.71 2.668 12.19c-1.066 6.48-3.362 16.736-2.788 20.92.574 4.183 3.528 9.023 6.563 11.566s7.547 4.677 10.745 5.825c3.2 1.15 6.318 3.364 7.795 4.513 1.476 1.148 2.46 2.134 2.46 2.134s.985-.985 2.462-2.134 4.594-3.363 7.792-4.512c3.2-1.147 7.712-3.28 10.746-5.824 3.036-2.543 5.99-7.384 6.563-11.567.57-4.2-1.73-14.45-2.8-20.93z"/><path fill="#1D5E91" d="M344.1 162.07c-1.053-6.998 2.104-12.635 2.104-12.635l-6.563-7.308c-5.546 2.85-12.288 2.113-19.633-.434-7.344 2.547-14.085 3.282-19.633.434l-6.564 7.308s3.16 5.637 2.106 12.635-2.663 14.924-2.354 19.57c.02.32.055.644.1.972h5.98s.345-.403 1.01-.687c.665-.287.855-.478.855-.478s.127-1.207.855-1.46c.728-.256 1.045-.256 1.33-.256s.507-.062.855-.412c.35-.35 1.297-1.206 1.71-2.413s.665-1.684.665-2.478c0-.793.285-2.063.285-2.063s-.16-.38-.76-.158c-.602.222-.697-.38-.76-.985-.063-.603-.03-1.84.317-2.412s.475-.763.475-.763l-.255-.95s-3.8.76-4.463-2.193c-.665-2.953-.792-4.384-.887-4.7-.095-.318-.19-.478-.697-.444-.507.03-1.583-.317-2.343-1.843-.76-1.524-.823-2.16-.602-2.762.222-.604.634-.38.76-.19s1.14 1.65 1.552 1.237c.41-.413.19-.413-.38-1.556s-.38-1.523-.317-2.097c.063-.57-.19-1.334-.19-1.65 0-.317.35-.572.697-.414.35.16.665.413.823.604.158.19.222.478.54.287s.125-1.24.125-1.588c0-.35.412-.604.92-.318.505.286.758.825.758 1.206 0 .382.033.73.223.73s.412-.57.443-.953c.03-.378.253-.95.602-.474.35.475.475 1.176.35 1.905-.128.73.125.35-.128 1.62-.252 1.272-.38 1.843-.348 2.796.032.952.063 1.492.538 2.668.475 1.175.854 2.54 1.74 2.57.888.032 1.14.032 1.14.032s.982-1.905 1.743-2.35c.76-.444 1.836-.51 2.596-.604.76-.096 1.075-.318 1.075-.51s-.253-.252-1.17-.38c-.918-.126-1.678-.35-1.71-1.048-.03-.698.158-1.302-.443-1.333-.6-.03-2.09-.51-2.627-1.492-.538-.985-.412-1.208-.348-1.746.063-.54.76-1.62 1.203-.604s.73 1.143 1.108 1.365c.38.224.886.287.634-.413-.254-.698-.412-1.142-.35-1.65.064-.51.413-.73.825-.825.41-.096 1.646-.478 2.28-.604.63-.125.664-.188.664-.188s.064-.445.887-.7c.823-.253 1.36-.284 1.963-.284.6 0 1.044.095 1.836-.287.792-.38 1.424-.442 1.93-.41.507.03.888.222 1.268.475.38.255.253.604.253.953 0 .35.063.54.6.54.54 0 1.016 0 1.522.19.507.19 1.203.476.76 1.016-.443.54-.474 1.144-.76 1.112-.284-.032-.253.286-.38.477-.127.19-.222.35.096.54.314.19.347.38.79.793.443.413 1.108.858.443 1.525-.664.667-1.836 1.208-1.836 1.208s-.666.316.094.763c.76.444 1.11 1.366 1.394 1.524.284.16.57.413.76.508.19.096.158.73.158.73s-.41.287-.98.51c-.57.222-1.173.476-1.71.476-.54 0-.824 0-.602.508.22.507.602 1.05.696 1.333.095.285.222.794.222.794s.885.19 1.678.19c.79 0 1.14.03 2.88-.16 1.742-.188 2.25-.253 3.928-.063 1.68.19 1.93.13 2.374.287.443.16.886.383.886.383s2.375-.033 3.673-.318c1.298-.286 1.616-1.113 1.427-1.556-.19-.445-.16-1.11-2.44-1.43-2.277-.32-3.196-.19-5.002-.54-1.804-.35-4.623-1.27-5.128-3.525-.508-2.254 1.33-3.206 2.248-3.65.918-.446 2.912-1.144 3.83-1.524.918-.382 2.598-.762 4.37-.51 1.772.256 2.785.73 3.482.32.696-.414 1.267-.097 1.14.538-.125.635-.823 1.938-2.818 2.54-1.994.605-4.4.668-5.698.32-1.3-.352-2.28-.86-3.07-.574-.792.286-1.68 1.27-.825 2.445.858 1.177 5.227 1.525 6.397 1.65 1.172.13 5.51-.19 6.744 1.97 1.235 2.16.253 4.573-1.202 5.114-1.456.538-2.69.89-3.8 1.047s-1.107.158-1.107.158.507 1.144.507 1.62c0 .477-.063 1.366.476 1.714.538.35 1.3.603 2.217.508.918-.094 2.026.54 2.09 1.366.062.825.316 1.968.41 3.62.096 1.65 0 3.017 0 3.017s-.063.637-.284 1.24c-.222.603-1.362 2.942-1.362 2.942h6.375c.045-.328.08-.652.1-.972.26-4.71-1.35-12.63-2.4-19.63z"/><path fill="#6D8C3E" d="M294.42 185.72c1.25 3.57 3.826 7.187 7.748 9.55 5.45 3.28 7.804 2.848 12.944 6.192 5.14 3.344 4.83 3.902 4.893 3.902s-.248-.56 4.894-3.902c5.14-3.345 7.492-2.91 12.942-6.193 3.923-2.363 6.498-5.98 7.747-9.55h-51.16z"/><path fill="#D4AF3A" d="M298.88 158.13c.585.615 1.017.802 1.91.71.894-.095 1.11.555 1.263 1.263.154.71.154 2.372.8 3.912.647 1.54 2.804 1.633 2.804 1.633.06-.743.32-1.742.647-2.557.058-.145.338-.832-.432-.832s-.74-.308-1.2-1.047c-.462-.738-1.356-2.71-1.57-3.973-.216-1.263.184-3.142.4-3.82.215-.677.246-1.14 0-1.262-.248-.124-.74 0-.74 0s.185.585-.032.677c-.215.094-.4-.308-.553-.738-.155-.432-.34-.37-.647-.34-.308.03-.308.31-.092.617.215.308.092.862.092.862s-.678-.492-.955-.616c-.277-.122-.924.124-.986.494-.062.368.246 1.323.83 1.816.586.494.586 1.51.4 1.973-.183.46-1.046.398-1.23.184-.186-.216-.555-.277-.802 0-.25.28-.5.44.09 1.05zM298.54 156.5s-.34-.276-.462-.43c-.123-.156-.37-.495-.37-.495s-.062.154-.062.524.4.77.4.77l.49-.37zM299.83 152.22c.278-.123.493-.186.278-.493-.216-.308-.4-.647-.617-.71-.215-.06-.4-.03-.4-.03s.247.556.308.895c.06.34.16.46.43.34zM301.44 150.92c-.03.277.03.4.277.277.247-.124.34-.462.215-.71-.123-.245-.4-.43-.4-.43l-.185-.124c-.02 0 .11.71.08.98zM303.74 151.29c.03-.308-.093-.646-.093-.646s0 .37-.154.586c-.154.215-.123.154.03.34.15.19.18.03.21-.28zM307.36 166.95c.453 1.05 1.604-.595 2.65-1.925 1.045-1.33 1.01-.313.87.77-.138 1.085.28 2.24.7 2.975.417.732.766.313.94-.212.174-.522.313-1.607.662-2.132s.697-.07.732.384.592 1.47 1.115 2.063c.52.596.766-.21.94-.943s.383-1.854.523-2.31c.14-.454.627-.07.627-.07s.35.35 1.047 1.015c.695.666.766-.385.836-.907.07-.526-.105-1.68.104-1.856.21-.174.8.246 1.71.702.905.453.87-.42.767-.91-.106-.49-.627-1.61-1.36-2.238-.732-.63-.836-1.364-.592-1.68.243-.313 1.115-.035 1.672-.104.56-.07.838-.14 1.256-.208.418-.07.418-.49.418-.49s-.313-.525-.906-1.05c-.594-.525-.94-.943-1.673-1.12-.734-.174-1.744 0-1.744 0l-.105-.21c-.103-.208-.312-.208-.452 0-.14.21-.488.49-.768.735-.278.244-.453.384-.627.278-.175-.104.14-.35.14-.35s.383-.278.732-.98c.348-.7.453-1.364.174-1.678-.28-.316-1.047 0-1.465 0-.42 0-.663.07-.697-.14-.036-.21.418-.104.94-.176.525-.07.838-.7 1.012-1.224s.314-.455.628-.14c.313.315.594.245.662.034.068-.21.35-.733.697-1.26.35-.523.558-1.257.174-1.746-.383-.49-1.324-.422-1.707-.104-.383.313-.627.628-.73 1.397-.106.77-.315.35-.315.105s-.314-.63-.175-.944c.14-.312 0-.664 0-.664s-.07-.663-.802-.804-1.568.035-2.3.21-.593.806-.593.806-.558.033-1.15.104c-.593.07-1.29.313-1.85.453-.556.14-.766.21-.766.49s.106.735.106.735.453 0 .697.14c.244.14.104.384-.175.49-.278.105-.383.14-.383.488 0 .35.14.42.418.42s.872 0 1.57.314c.697.314.87.943.8 1.293-.07.35-1.046.805-1.534.805s-.628.106-.628.42c0 .315.593.28.593.28s.592.035 1.743.174c1.15.14 1.325.386 1.85.84.52.455.138.56-.106.7-.244.14-.628.454-1.01.595-.385.138-.63.42-.978.487-.35.07-1.22.036-2.824.666-1.604.63-2.162 2.73-2.162 2.73s.21-.072.94-.458c.733-.384 1.64-.804 2.477-1.328.836-.523.836.246.418.98-.418.733.384.593.628.384.245-.21.56-.42 1.36-.84.803-.418.523.246.523.246s-.244.49-.313 1.645c-.07 1.155 1.15.07 1.708-.664s.802 0 .383.84c-.417.84-1.22 1.503-1.672 1.503-.454 0-.802-.49-.837-.77s.14-1.12-.138-1.33c-.28-.208-1.082.036-1.674.385-.593.35-.733.07-.872-.244-.14-.314.21-.42.07-.628-.14-.21-.453 0-.698.104-.244.104-.802.42-1.882.98-1.082.558-1.01.872-1.01 1.677s.2.99.65 2.04z"/><path fill="#D4AF3A" d="M317.82 149.44c.227-.144.64-.31.64-.31s.514-.122.987-.185c.473-.062.39-.33.287-.555-.102-.23-.287-.31-.903-.31-.618 0-1.01.31-1.36.452-.35.145-.76.248-.76.248s.082.103.308.433c.22.35.57.39.79.24zM320.34 151.94c.247 0 .515-.145.515-.145s.45-.227.865-.37c.41-.145.576-.207.822-.7.247-.495-.268-.495-.987-.68-.72-.187-1.07.06-1.152.33-.084.267-.063.575-.35 1.09-.29.51.04.47.29.47zM320.11 152.57c-.7 0-1.48 1.05-1.77 1.235s-.124.37-.124.37.206.433.287.844c.084.412.104 1.112.104 1.112s.103.042.514.042c.414 0 .66-.207 1.052-.495s.7-.393 1.256-.496c.557-.102.823-.205 1.44-.534.62-.33-.33-.906-.987-1.44-.66-.51-1.07-.62-1.77-.62zM310.8 154.99c.554-.062.8-.338.8-.646s-.28-.647-.985-.585c-1.735.153-3.417-.47-3.727-2.188 0 0-.585 1.076.493 2.28 1.09 1.2 2.87 1.2 3.43 1.14zM304.89 182.31c.088.153.196.248.306.305h2.658c.453-.127.456-.544.478-.832.026-.343.29-1.317.657-3.084.367-1.766.998-3.03 1.26-3.74s-.263-.95-.447-1.398c-.184-.447-.473-1.237-.552-1.632-.078-.396-.708-.343-1.05-.317s-.395.58-.447 1.107c-.052.525-.29 2.08-.55 3.425-.264 1.344-1.788 3.136-2.208 3.53-.42.396-.762.554-1.05.554s-.92 0-1.236.184c-.315.185-.63.686-.657 1.08-.026.395.605.606.605.606s.5-.29.683-.527c.185-.237.605-.29 1.025-.368.42-.08.473.078.315.288-.16.2-.11.25.21.81zM300.82 182.17c-.2.07-.348.27-.44.437h1.738c-.02-.142-.068-.31-.168-.437-.21-.26-.77-.13-1.13 0z"/><path fill="#D4AF3A" d="M303.18 182.12c-.212.115-.468.303-.598.49h1.87c.066-.175.087-.408-.142-.595-.42-.35-.84-.06-1.13.1zM319.4 181.35c-.204 0-.385.182-.68.385-.292.204-.382.52-.427.77-.008.045-.003.08.01.11h.795c.03-.03.053-.065.053-.11 0-.227.09-.43.43-.725.35-.3.03-.43-.17-.43zM320.96 182.21c0-.248-.09-.475-.27-.452s-.475.34-.723.52c-.138.102-.24.236-.317.337h1.174c.07-.14.14-.29.14-.41z"/><path fill="#D4AF3A" d="M328.18 173.58c.563-.408.474-.52.495-.95.022-.432.022-.567-.203-.725-.226-.16-1.06-.52-1.85-.52s-2.28.18-2.845.564c-.565.385-.836 1.766-.836 2.49s.114.837.317.837.542-.52.542-.52.743.973 1.195 1.653c.452.68.248.95.047 1.47-.204.52-.948 1.902-1.535 2.197-.59.295-1.04.02-1.74-.09-.698-.114-1.083.09-1.49.497s-.02.726.227.726c.25 0 .587-.023.858.316.188.235.06.772-.034 1.082h3.46c.59-.262.996-1.072 1.155-1.514.182-.497.926-1.153 1.288-1.492.36-.34.407-.567.407-1.314s-.203-1.177-.476-1.697c-.27-.52-.473-1.268-.383-1.697.06-.46.81-.93 1.37-1.34z"/><path fill="#D4AF3A" d="M322.49 164.95c.346.562.174.67-.323.776-.495.108-1.033.194-1.81.13-.776-.065-.756.043-.776.432-.02.388-.087 1.208-.54 1.81-.452.605-1.013.368-1.358.13s-.54-.173-.668.26-.367.733-.733 1.38c-.366.646-.603.668-.862.603s-.496-.452-.755-.474-.67-.538-1.057-1.165c-.388-.623-.582.065-.84.606-.26.538-.517.928-1.014.86-.496-.062-1.056-.99-1.336-1.55-.28-.563-.453-1.1-.884-1.08-.43.022-1.143.928-1.618 1.164-.475.238-.604.152-.82-.15-.214-.3-.495.11-.775.82-.28.712.02 1.314.41 1.51.387.193 1.163-.368 1.68-.713.518-.344.755-.258 1.295-.258.54 0 .496.884.733 2.176.237 1.294.992 1.467.992 1.467s.26.216.84-.775c.583-.992.647-1.963 1.21-1.963.56 0 .603.13 1.163.905.56.776 1.035 1.358 1.358.776.324-.583.605-1.445.972-1.746.366-.303.71-.39.323.172-.39.56-.56 1.164.237.928s3.838-1.467 5.067-1.703c0 0 1.443-.237 3.104-.323 1.66-.088 2.07-.195 2.717-.195.647 0 .67-.066.713-.497.042-.432-.302-.345-1.51-.345-1.207 0-2.05.15-2.89.28-.84.13-1.228.108-1.08-.107.153-.215.39-.366 1.36-.516.97-.15 2.955-.26 3.99-.28 1.034-.022.71.3.624.99-.087.69.087 1.705.152 2.352.062.646.084.84.645 1.746s2.5 1.467 3.062 1.77c.56.3.475 0 .453-.54-.022-.54.43-.518.927-.238.495.282 1.315.52 1.897.67.582.15.668.258.668.56s.065.97.13 1.597c.064.626.043.82-.216 1.208s-1.358 1.508-1.358 1.508-.496 0-1.553.26-1.38.756-1.488 1.187.195.56.238.733c.023.095.014.328 0 .518h.245c.09-.15.215-.35.38-.562.367-.474 1.295-.582 1.897-.302.396.185.4.6.36.863h2.414c.327-.63 1.1-2.133 1.303-2.59.258-.58.41-.947.43-1.745s.108-3.88-.042-4.054c-.15-.173.044-.69 0-1.553-.043-.86 0-1.51-1.595-1.66-1.597-.15-2.092-.817-2.63-1.358-.542-.538-.41-1.79-.84-3.298-.433-1.51-1.49-1.747-3.365-2.114-1.877-.365-3.257-.41-4.658-.28s-3.147.325-4.118.237c-.95-.12-.8.16-.45.72z"/><path fill="#D4AF3A" d="M331.55 182.27c-.164.106-.273.232-.346.342h1.63c.008-.14-.015-.297-.16-.472-.24-.3-.72-.13-1.12.13zM334.47 182.16c-.265.134-.436.306-.54.452h1.652c.006-.063.004-.13-.01-.19-.05-.26-.55-.54-1.1-.26zM293.75 183.19c.092.512.212 1.03.36 1.553h51.786c.15-.52.27-1.04.36-1.553H293.75zM328.65 158.45c1.636 1.09 6.83 1.147 9.27 1.636 2.438.487 2.268 2.353 1.52 3.328-.746.977-4.177 1.094-4.792 1.176.332.23.832.947.832.947s.374-.027 1.406-.115c1.032-.085 2.84-.343 4.075-1.377 1.235-1.032 1.148-2.696.06-3.815-1.092-1.12-2.9-1.234-4.737-1.435-1.836-.2-3.27-.345-5.337-.69-2.065-.343-3.07-1.175-3.07-2.38 0-1.206 1.12-1.837 1.923-2.067.802-.23 2.093-.572 3.24-.144 1.15.43 2.498.487 4.765.202 2.268-.288 2.784-1.866 2.784-1.866s-.29.144-1.436.172c-1.148.028-1.98-.487-4.074-.518-2.097-.028-2.843.72-3.818 1.063-.976.345-3.586.604-4.36 2.296-.77 1.7.12 2.5 1.76 3.59z"/><ellipse rx=".977" ry=".962" cy="150.64" cx="315.04" fill="#B96B29"/><path fill="#B96B29" d="M336.02 152.28c-1.293-.114-2.986.23-2.986.23s.315.258.746.23c.43-.03 1.206-.06 2.468.17 1.263.23 2.18-.373 2.18-.373s-1.12-.14-2.41-.26z"/><path fill="#1D5E91" d="M323.74 176.38c-.316-.498-.407-.452-.77-.135-.36.316-.725-.77-.77-1.45-.045-.676.27-2.758.27-2.758s-1.764.362-2.713.678c-.95.317-1.854.408-2.623.59s-1.176.36-1.583.27c-.406-.09-1.266-.135-1.944-.135s-.632.136-1.312.814c-.678.677-.86 1.04-1.402 2.307-.543 1.266-.724 2.442-.904 3.98-.12 1.007-.314 1.702-.436 2.064h8.108c.097-.26.223-.587.333-.83.212-.467.658-.764.977-.913s.596-.148.743-.507c.148-.362.553-.66.978-.85s1.17-.086 1.85.105c.68.19.913-.276 1.103-.53.19-.256.277-.617.64-1.083.36-.47.09-.894.09-.894s-.33-.22-.65-.72zM336.75 176.6c-.105-.468-.063-.53-.34-.596-.276-.064-.743-.148-1.146-.317-.403-.17-.36.913-.36.913s-.958.104-2.04-.02c-1.083-.13-2.357-1.105-2.804-1.425-.445-.318-.935-1.04-.935-1.04s-.34.318-.68.51-.53.87-.594 1.55c-.063.68.787 1.508.85 2.188.064.68-.743 2.04-1.147 2.592-.275.38-.632 1.186-.83 1.657h3.915c.082-.2.216-.455.42-.658.402-.404 1.084-.49 1.084-.49s0-.17.148-.53c.147-.36.552-.785 1.528-1.168.978-.382 2.146-.446 2.146-.446s.466-.382.807-.913c.34-.53.09-1.33-.02-1.8z"/><g><path fill="#D4AF3A" d="M304.15 219.77c.73.243 2.09-.29 2.772-1.118.68-.827.924-2.093 1.41-2.82.486-.73.84-1.272.84-1.272s-.105 1.202-.75 2.813c-.615 1.536-.722 3.637-.576 4.537.292 1.8 1.46 2.09 2.14 1.847.517-.184 1.3-.98 2.02-2.177.226-.38.385-.903.607-1.324.462-.875.875-2.31 1.08-2.27.45.09.16 1.102-.01 1.783-.34 1.36-1.02 3.355-1.07 4.57s.1 3.405 1.314 3.503c1.216.097 1.848-.974 2.528-3.454.68-2.48.828-3.26 1.12-3.26.29 0 .29 1.702.29 2.432 0 .25.01.942.11 1.637.19 1.328.577 2.924.96 3.275.584.535 1.07.437 1.07.437s.486.1 1.07-.437c.584-.535 1.07-4.184 1.07-4.913s0-2.432.29-2.432c.295 0 .44.78 1.12 3.26.682 2.48 1.313 3.55 2.53 3.453 1.215-.098 1.362-2.286 1.313-3.502s-.73-3.21-1.07-4.57c-.342-1.363.145-1.266 1.07.485.288.547.587 1.217.88 1.685.648 1.03 1.278 1.65 1.746 1.816.68.244 1.848-.048 2.14-1.847.292-1.802-1.07-6.957-1.07-6.957l.584.876c.486.728.73 1.993 1.41 2.82.68.827 2.044 1.36 2.773 1.118s.828-1.606.292-4.038c-.535-2.432-2.724-3.793-4.28-5.74-1.432-1.787-2.535-4.935-2.7-5.428-1.96.97-3.678 2.07-5.23 3.692-3.22 3.358-3.918 4.197-3.918 4.197s-.7-.838-3.918-4.196c-1.563-1.63-3.29-2.734-5.265-3.71-.18.416-1.52 3.422-2.965 5.23-.72.9-1.71 1.58-2.414 2.442-.817 1.003-1.315 2.206-1.603 3.513-.52 2.42-.42 3.78.31 4.03z"/><path fill="#D4AF3A" d="M304.06 228.01c.942-.83 1.427-1.286 1.427-1.286s.685-.57.514.515c-.17 1.083-.542 3.31-.313 4.28.228.97.342 1.797 1.54 1.083 1.2-.713 1.485-1.142 2.056-1.74.57-.6 1.17-.855 1.027.086-.144.94-.57 2.367-.37 4.28.2 1.91 1.14 2.195 2.367.57 1.228-1.627 1.97-3.11 2.34-3.91.37-.8 1.113-1.483 1.113 0 0 3.192.732 7.835 4.25 9.074 3.522-1.24 4.254-5.882 4.254-9.074 0-1.483.74-.8 1.11 0 .372.8 1.113 2.283 2.34 3.91 1.228 1.625 2.17 1.34 2.37-.57.198-1.913-.23-3.34-.372-4.28s.457-.687 1.028-.087c.57.6.854 1.027 2.054 1.74 1.2.714 1.313-.113 1.54-1.084.23-.97-.142-3.197-.312-4.28-.172-1.086.513-.516.513-.516s.485.457 1.428 1.286c.94.827 2.233.877 2.233.877s.605-3.35-.79-5.352-1.91-2.652-1.91-2.652-.79-.046-1.395-.278c-.603-.233-1.19-.67-1.19-.67v1.854s1.71 1.625 2.11 2.11c.398.483 1.198 1.312.03.513-1.17-.8-2.142-1.598-2.142-1.598s-.23 1.684-.714 2.112c-.484.427-1.17.483-1.454.37l-.285-.115-.086.658s1.054 1.97 1.196 2.768c.144.8-.086.712-.57-.315-.485-1.025-1.426-2.34-1.854-3.052s-1.056-1.198-1-.284c.06.913-.312 2.567-.627 3.166-.313.6-.513.8-.513.8s.655 2.312.74 2.74c.088.427.03.912-.34.37-.372-.543-1.43-2.825-1.43-2.825s-1.397-.057-1.796-.457c-.4-.4-1.027-1.938-1.027-1.938s-.573 1.964-1.047 2.595c-.473.63-1.575 1.26-1.575 1.26s-.08 3.415-.156 4.02c-.08.603-.105.865-.36.865-.256 0-.283-.263-.362-.866-.077-.604-.156-4.02-.156-4.02s-1.104-.63-1.577-1.26c-.472-.63-1.045-2.594-1.045-2.594s-.627 1.538-1.027 1.938c-.4.4-1.797.457-1.797.457s-1.056 2.282-1.427 2.824c-.37.544-.427.06-.34-.37s.74-2.74.74-2.74-.2-.198-.513-.798c-.314-.6-.685-2.253-.627-3.166.056-.914-.572-.428-1 .285s-1.37 2.027-1.854 3.053c-.485 1.027-.713 1.114-.57.315s1.198-2.768 1.198-2.768l-.085-.658-.286.115c-.286.113-.97.057-1.456-.37-.485-.43-.713-2.112-.713-2.112s-.97.8-2.14 1.598c-1.17.8-.37-.03.03-.513.398-.485 2.11-2.11 2.11-2.11v-1.855s-.587.437-1.192.67c-.605.232-1.396.278-1.396.278s-.512.65-1.908 2.652c-1.397 2-.792 5.352-.792 5.352s1.3-.04 2.24-.86zM321.23 250.32c-.902-1.055-1.203-1.58-1.203-1.58s-.3.525-1.202 1.58c-.904 1.053-3.01 2.708-3.01 2.708s.188 2.784 1.204 4.287c.855 1.27 1.674 2.43 3.007 3.31 1.333-.88 2.153-2.04 3.01-3.31 1.016-1.503 1.203-4.287 1.203-4.287s-2.11-1.66-3.01-2.71z"/><path fill="#B96B29" d="M319.57 253.73c.083.646.028 2.28.42 2.28s.337-1.635.422-2.28c.083-.646.11-2.195.11-2.195h-1.066c.01-.01.04 1.54.12 2.19z"/><path fill="#D4AF3A" d="M319.98 100.87c-3.766.064-8.184-.456-10.615-1.36l-2.592.57c4.007 1.51 7.355 2.094 13.207 2.153 5.853-.06 9.2-.644 13.206-2.153l-2.593-.57c-2.43.9-6.85 1.42-10.62 1.36zM333.68 97.727c-.3-.25-2.013-1.47-2.46-1.694-.447-.225-.1-.822-.024-1.07.074-.25 2.012-.8 3.08-1.073 1.068-.274.895-.5.895-.5s-.62-.722-4.497-1.145c-3.874-.423-10.68-.324-10.68-.324s-6.807-.1-10.683.325c-3.875.423-4.496 1.146-4.496 1.146s-.174.226.895.5c1.067.274 3.004.822 3.08 1.072.074.25.422.847-.025 1.07-.447.224-2.162 1.446-2.46 1.695-.297.25-.322.648.15.673.472.024.48.017 1.813-.25 3.988-.793 7.742-1.015 11.727-1.07 3.983.055 7.736.277 11.726 1.07 1.333.266 1.34.274 1.814.25.47-.025.45-.423.15-.673z"/><path fill="#D4AF3A" d="M329.27 99.373c-2.66-.315-4.347-.66-9.27-.615-4.922.043-6.61.3-9.27.615 1.675.672 4.384 1.01 9.27 1.01 4.89 0 7.6-.34 9.27-1.007zM319.18 62.89l2.03-.165-.19-1.774 2.18.304.09-1.75-2.29.21.4-1.89-2.52-.024.44 1.914-2.22-.21v1.75l2.2-.256M323.61 65.76h-2.726v-2.325c-.26-.053-.528-.08-.805-.08-.245 0-.482.022-.713.064v2.34h-2.82c-.095.296-.146.61-.146.936 0 .133.01.265.027.396h7.3c.02-.13.027-.263.027-.396-.01-.326-.07-.64-.16-.936z"/><path fill="#1D5E91" d="M320.08 70.032c1.62 0 2.997-.954 3.485-2.276h-6.972c.49 1.323 1.87 2.276 3.49 2.276zM321.58 63.648v1.598h1.808c-.37-.706-1.01-1.275-1.81-1.598zM318.57 63.648c-.79.323-1.434.892-1.81 1.598h1.81v-1.598z"/><path fill="#B96B29" d="M322.17 93.312c-.688-.325-2.188-.966-2.188-.966s-1.426.703-2.2 1.092c-.776.388-.676.275-.914.84s.024.765.362.915c.338.15 2.79 1.406 2.79 1.406s2.426-1.13 3.013-1.407c.59-.275.478-.55.314-.98-.16-.424-.49-.574-1.17-.9z"/><path fill="#D4AF3A" d="M317.64 94.027l2.4 1.222 2.37-1.223-2.43-1.138M319.98 84.648s-.202.847-.473 1.206c-.27.36-.476.68-.398 1.12.077.436.577.728.87.728.292 0 .793-.292.87-.73.08-.437-.126-.758-.397-1.118-.26-.36-.47-1.206-.47-1.206z"/><circle cy="88.56" cx="320" r=".451" fill="#D4AF3A"/><path fill="#D4AF3A" d="M318.39 86.24s.78-.866 1.068-1.415c.29-.548.524-1.04.524-1.04s.234.492.523 1.04c.29.548 1.068 1.415 1.068 1.415s1.097-.578 1.73-2.684c.637-2.107-.145-4.33-.433-6.724s-.52-6.52-.52-6.52c-.83.475-1.616.677-2.37.69-.754-.014-1.54-.216-2.37-.69 0 0-.23 4.125-.52 6.52-.29 2.396-1.068 4.617-.433 6.724.64 2.106 1.73 2.684 1.73 2.684z"/><ellipse rx="1.894" ry="1.828" cy="81.506" cx="319.98" fill="#B96B29"/><ellipse rx="1.822" ry="1.759" cy="77.22" cx="319.98" fill="#B96B29"/><ellipse rx="1.738" ry="1.677" cy="73.121" cx="319.98" fill="#B96B29"/><ellipse rx="1.004" ry=".968" cy="81.178" cx="319.98" fill="#D4AF3A"/><ellipse rx=".966" ry=".931" cy="76.905" cx="319.98" fill="#D4AF3A"/><ellipse rx=".847" ry=".817" cy="72.82" cx="319.98" fill="#D4AF3A"/><path fill="#b96b29" d="M319.93 224.04c.117.024.14-.277.163-.835.022-.556.094-1.9.23-2.688.14-.79-.208-.742-.417-.695-.208.046-.323.648-.323.997 0 .346.092 2.34.092 2.757s.14.44.255.463z"/></g><g id="a"><path fill="#d4af3a" d="M300.28 239.41c.84-.534 1.57-1.126 3.478-2.392 1.907-1.267 2.608-2.673 2.608-2.673h-.673c-.365 0-.673-.507-.7-1.013-.03-.507 0-1.547.14-2.757.14-1.21-.197-2.194-.197-2.194s-.813.76-2.047 1.407c-1.235.647-1.74.337-1.74.337l-.31-1.236s-.532 1.126-1.29 2.446c-.758 1.322-2.805 2.786-4.263 3.882-1.46 1.098-3.058 2.252-4.264 2.674-1.206.42-.504.985-.504.985s1.205 1.208 4.318 1.77 4.6-.7 5.442-1.235z"/><path fill="#d4af3a" d="M311.17 238.2c-1.112-.117-1.777-.537-1.992-1.745-.14-.787.057-3.798.057-3.798s-.365.31-.786.817c-.422.505-1.376.618-1.376.618s-.14.422-.56 1.096c-.422.677-.955 1.493-2.02 2.167-1.066.676-2.3 1.464-3.114 2.14-.814.675-1.767 1.463-2.833 2.053-1.066.59-2.02 1.548-2.385 3.122-.364 1.575-.083 2.082 1.15 1.998 1.234-.085 1.375.028 3.366-.48 1.992-.505 4.824-2.727 6.9-4.05 2.078-1.322 3.592-3.938 3.592-3.938z"/><path fill="#d4af3a" d="M316.69 240.02s-.842-1.067-1.15-2.28c-.31-1.208-.897-3.6-.897-3.6s-.28.76-.954 2.193c-.675 1.436-1.824 1.774-1.824 1.774s-.057.618-1.01 1.828c-.954 1.21-2.355 2.334-3.787 3.18-1.432.842-3.283 1.998-4.293 3.432-1.01 1.435-1.094 2.925-.616 3.572.478.645 1.15-.086 2.104-.564s3.675-.9 7.433-2.926c3.758-2.025 4.993-6.61 4.993-6.61z"/><path fill="#d4af3a" d="M318.32 248.44c1.038-1.547 1.207-5.315 1.207-5.315s-.364-.253-.87-.677c-.504-.422-1.486-1.912-1.486-1.912s-.616 1.293-1.29 2.503c-.672 1.21-1.01 1.63-2.412 2.925s-3.31 2.56-4.124 3.94c-.813 1.377-.364 4.134.17 5.062.532.93 1.29.618 2.074-.14.786-.76 1.038-.956 2.412-2.138s3.283-2.703 4.32-4.25z"/><path fill="#b96b29" d="M305.98 216.89c.552-1.128 1.176-2.496 1.68-3.19.503-.697.863-1.49.863-1.49s-1.344 1.225-1.872 2.09c-.526.862-.862 1.702-1.103 2.64-.238.934-.12 1.077.433-.05zM311.31 217.85c.216-.745.337-1.24.337-1.24s.217-.72.097-.768c-.12-.05-.673.447-1.057 1.67-.385 1.225-.96 3-.84 3.07.12.074 1.247-1.988 1.463-2.732zM315.51 221.23c.24-.527.24-.55.24-.55s.432-1.393.432-1.68c0-.288-.144-.624-.503.095-.362.72-.385 1.415-.458 1.728-.07.312-.48 1.392-.36 1.488.12.097.408-.55.648-1.08zM302.47 234.03l-.562-.338s-.336.45-.813.957c-.477.504-1.01.702-1.375 1.18-.364.48-.926 1.07-1.795 1.52s-1.206.59-1.037.732c.168.14.757-.197.757-.197s.252-.03 1.29-.647 1.29-.956 1.963-1.547 1.572-1.66 1.572-1.66zM307.02 239.41c.393-.422.813-.704.59-.93-.226-.224-.506-.196-.87.113-.365.31-1.403 1.293-1.88 1.716-.477.42-.87.675-1.346 1.04-.477.366-1.515.928-2.02 1.21-.504.28-.027.31-.027.31s.393-.198.813-.34c.42-.14 1.626-.674 1.626-.674s.477-.225 1.122-.675c.645-.448 1.6-1.35 1.992-1.77zM312.26 243.04c.336-.674-.028-.48-.59-.252-.56.225-1.822 1.604-2.55 2.11s-1.348.702-1.964 1.013c-.617.31-.617.478-.588.62.027.14.28.14.532.027.253-.112 1.122-.62 1.122-.62s.365-.11.702-.14c.337-.028.813-.396 1.57-1.04.756-.648 1.43-1.04 1.766-1.717zM314.7 247.85c-.926.563-2.524 1.828-2.945 2.673-.422.845-.702 1.435-.562 1.575.14.14.59-.14.786-.48.195-.336.616-.843.616-.843s1.598-1.574 2.187-1.94 1.543-1.406 1.768-2.025c.225-.62.057-.956.057-.956s-.982 1.433-1.907 1.996z"/><path fill="#c52126" d="M289.99 113.28c-.848-.498-3.128-1.473-5.556-1.68-2.426-.204-4.302.16-6.316.705-1.443.39-2.612.45-3.768.14-1.737-.463-3.084-2.03-3.542-3.952 0 0-1.602 2.054.036 4.283.787 1.072 1.812 1.742 2.856 1.953 3.4.684 6.733-1.39 9.564-1.572 2.72-.177 4.854 1.547 4.854 1.547s.643.534 1.55.007c.907-.53 1.17-.934.322-1.432z"/><path fill="#d4af3a" d="M280.2 211.66s-.334-.033-.802-.1c-.468-.068-1.47-.403-1.772-.538-.3-.133-.77-.167-1.07.168-.3.336-2.742 1.777-2.742 1.777h4.046c1.404 0 2.34-1.307 2.34-1.307z"/><path fill="#d4af3a" d="M291.59 210.97v-.404l-.54-1.16s-.628.394-1.24 1.028c-.79.82-1.64 1.97-2.018 2.456-.674.863-1.616 1.675-.808.296.808-1.378 1.077-1.972 1.723-2.89.647-.92 1.132-1.324 1.052-1.38-.082-.053-.595-.133-2.292-.35-1.696-.217-2.747-.864-3.528-1.324-.78-.46-2.182-1.215-2.182-1.215s-2.882 1.215-3.96 1.485-1.724.432-.674.946c1.05.513 1.94.675 2.45.998.512.326 2.102.838 3.072.838.97 0 2.612.026 1.966.702-.646.677-1.374 1.974-2.074 3.944-.7 1.974-.727 3.73-.727 4.594s.108 1.728.108 1.728 1.185-1.322 4.364-3.32c3.178-2 4.363-2.676 4.956-2.947.592-.27.89-.27.78-1.025-.105-.757-.428-2.62-.428-3z"/><path fill="#d4af3a" d="M303.73 201.31c-.192-.086-.39-.175-.59-.268-.053.014-.102.03-.146.052-.373.187-2.312 1.492-3.095 2.76-.784 1.268-1.567 1.38-.71 0 .858-1.38 1.492-2.163 2.163-2.76.26-.23.49-.422.677-.57-1.56-.75-3.254-1.662-4.893-2.803-.212.424-.62 1.174-1.08 1.66-.67.708-2.163 1.306-2.163 1.306s1.193-1.23 1.604-2.164c.26-.595.432-1.236.52-1.62-1.14-.89-2.233-1.903-3.21-3.066-.198.807-.843 2.77-2.754 4.91-2.498 2.798-7.496 4.214-7.496 4.214s-1.752.187-.335.56 2.424 1.007 5.184.52c2.76-.482 2.945-.595 3.318-.705.373-.113 1.38-.038 0 .484-1.38.52-4.587 1.004-5.817.894-1.23-.11-2.91-.373-1.156.56s2.5 1.305 3.58 1.305c1.082 0 1.53.335 2.574.335 1.044 0 1.34-.187 2.088-.336.746-.15 1.23.11 1.23.41 0 .297-1.006 1.117-.97 3.17.038 2.05.187 3.393.373 3.987.188.6.635 1.567.933 2.128.298.56.41 1.117.708-.075.298-1.194.97-2.91 1.23-4.064.262-1.156.41-1.193.523-1.79.112-.597.747-1.044.448.037s-.634 2.46-.857 3.43c-.224.97-.745 2.76.15 1.343.894-1.416 4.25-5.183 4.81-5.854s1.006-1.306 1.416-1.864c.41-.56 1.566-1.306 2.126-2.126.506-.742 1.988-2.187 2.624-2.704-.95-.403-1.95-.825-3.006-1.298zM257.37 115.23c.09 2.055 2.364 5.987 3.658 8.087 1.294 2.1 1.65 2.947 1.428 3.082-.224.133-.76-.94-1.473-1.876-.714-.938-2.096-3.127-3.256-4.78s-2.855-5.584-3.078-5.942c-.224-.357-.314-.58-.893-.135-.58.447-1.695 4.78-.356 7.73 1.34 2.948 3.346 5.09 4.193 6.12.848 1.027 1.963 2.635 1.784 2.77-.178.133-.49-.27-1.516-1.34s-2.72-2.905-3.835-4.245c-.906-1.088-2.135-3.298-2.566-4.088-.163-.3-.372-.218-.528-.062-.367.37-.955 1.226-.7 3.57.358 3.26 2.053 5.137 3.57 6.79 1.516 1.653 3.033 3.037 2.81 3.26s-1.784-1.16-2.855-2.188c-1.07-1.027-3.703-3.573-4.282-4.29-.58-.713-1.427-.357-1.383 2.458s3.167 5.674 4.46 7.238c1.295 1.563 2.9 2.5 2.767 2.813-.135.313-1.43-.49-2.276-1.072-.847-.58-4.015-2.635-4.64-3.082-.623-.446-.936.402-.133 3.083.804 2.68 3.124 4.825 4.506 5.807 1.383.983 3.613 2.188 3.48 2.503-.134.312-1.07-.09-2.365-.716-1.292-.625-2.853-1.206-3.97-1.518-1.115-.313-1.114.49-1.114.49s-.224 2.278 1.427 4.11 3.524 2.547 5.308 2.858c1.785.313 2.053.403 2.008.672-.044.268-.223.312-.624.312s-2.052.18-3.57.18-2.318.355-2.318 1.026-.045 1.564 2.23 3.082c2.274 1.52 4.817 1.743 5.888 1.967 1.07.223 1.114.313.892.626-.223.31-.713.267-2.41.445-1.694.178-2.72.85-2.943 1.295-.223.447.134 1.788 1.518 2.725 1.383.94 3.167 1.252 5.844 1.073 2.677-.18 3.346-.224 3.435.224.09.446-.803.58-2.142.805-1.338.222-2.365.222-3.123.848-.76.626-.178 1.92 1.115 2.86s4.506.937 5.844.848 3.39-.58 3.524-.224-.98.894-2.363 1.384c-1.384.493-1.786.804-2.052 1.386-.27.58-.045 1.116 1.605 1.74 1.65.627 4.06.627 5.308.046 1.25-.58 1.918-.805 2.142-.58.222.225 0 .447-.268.76-.267.313-1.338 1.16-2.72 1.52s-1.518.357-2.01 1.473c-.49 1.116.76 2.01 3.257 2.1 2.5.09 5.844-.893 6.915-1.52 1.07-.626 1.472-.76 1.65-.535.178.223.134.357-.4.758-.537.404-2.232 1.61-3.08 1.833-.846.223-.936.848-.936 1.43 0 .58-.223 1.74 2.007 2.278 2.23.536 4.862.135 7.27-1.564.777-.546 1.228-.997 1.482-1.388-.195-2.28-.092-3.85.182-5.295-.473-.05-1.37-.186-2.288-.555-1.34-.535-1.874-1.786-2.187-2.457-.313-.67-.758-.67-1.294-.492-.537.18-1.072.403-1.83.36s-2.364-.448-3.524-1.834c-1.16-1.386-.938-2.725-.982-3.397-.045-.67-1.115-.178-1.65-.178-.536 0-2.097-.224-3.523-1.206-1.427-.984-1.427-2.324-1.56-2.86-.135-.536-.715-.893-1.16-1.073-.446-.178-1.16-.356-2.143-1.16-.98-.805-1.337-2.368-1.382-2.904-.044-.536-.625-.58-2.632-1.608s-1.83-3.172-1.74-4.02c.09-.85 1.026-1.563 1.026-1.878 0-.313-.67-.4-1.34-.804-.668-.4-2.363-1.072-2.407-3.573-.045-2.502 1.606-2.77 1.606-2.77s-.314-.135-.983-.536c-.67-.403-2.497-1.653-2.497-3.128 0-1.474.668-2.144 1.16-2.502.49-.357 1.828-.714 1.828-.714s-.848-.537-1.205-1.698c-.357-1.162-.49-2.59.356-3.618.847-1.028 2.274-1.028 3.033-1.028s1.427.402 1.695.18c.268-.224.312-.402.044-.983-.267-.58-.312-2.01-.09-2.5.225-.493.27-1.475 2.188-2.1 1.917-.626 3.924.67 4.55 1.027s.356-.493.356-1.117c0-.625-1.293-2.19-2.766-4.423-1.472-2.234-2.14-3.396-3.792-6.79s-2.722-7.774-2.944-8.89c-.223-1.118-.67-.583-.67-.583s-.445.18-1.47 2.77c-1.025 2.592-1.203 4.96-1.114 7.013z"/><path fill="#d4af3a" d="M291.02 160.92c-1.15-.058-2.643-.69-3.792-2.358-1.148-1.67-2.873-2.073-5.86-2.016-2.99.058-4.368-1.38-5.115-3.45-.747-2.074.115-4.434 3.16-5.93s4.425-3.165 4.54-5.753c.114-2.59-3.045-5.813-6.206-9.438s-5.63-8.748-5.63-8.748-.92 1.21-.92 2.417.46 2.474 0 2.82c-.46.345-.632-.518-2.47-1.324-1.84-.806-3.333-.92-4.482.403s0 3.625 1.034 4.72c1.034 1.092 1.895 1.9 1.608 2.302s-1.84-.633-2.356-.98-1.724-1.667-3.505-1.495-2.414.69-2.586 2.187c-.17 1.496 1.61 2.818 2.76 3.395 1.148.574 1.608 1.093 1.32 1.322-.287.23-.575 0-1.092-.17-.516-.174-1.953-.346-2.872 0-.92.344-2.414 1.61-1.035 3.164 1.38 1.554 4.253 2.13 4.828 2.243.574.116.862-.057.92.403.056.462-1.208.462-2.76.52s-2.01 1.553-1.78 2.704 2.815 2.416 4.25 2.647c1.44.23 1.955 0 2.07.402.116.402-.172.575-.977.806-.803.23-2.355.403-2.643 1.67-.287 1.265-.344 1.84.863 2.935 1.207 1.093 3.16.92 3.735.805.575-.114 1.265-.75 1.84-.172.573.574-.52 1.035-1.496 1.726-.978.692-.92 2.015.746 2.936 1.666.922 3.333.574 4.022.345s1.61-1.323 2.068-.633c.46.69-1.436.92-2.24 1.9-.805.976-.518 2.587 1.09 3.565 1.61.978 4.253.287 4.713-.115.458-.402 1.032-.574 1.377-.23.344.344-.172 1.265-.517 2.07-.344.807-.977 3.166 1.437 4.087 2.414.92 4.597-1.15 5-1.555.4-.402.803-.46 1.148-.287.344.174.173.518-.115.92-.287.403-.92 2.13.804 3.34 1.177.824 2.46.763 3.157.643.36-1.348.827-2.788 1.303-4.805h-.36c-.23 0-.276.345-.276.483s.07.254-.14.254c-.206 0-.23.115-.528.323-.3.207-.576.46-.738.345-.16-.115.622-.53.83-.783.207-.255.62-.646.644-.92.023-.278.16-.44.575-.784.13-.107.23-.235.31-.36.278-1.34.55-2.912.796-4.814.167-1.29.262-2.507.3-3.643l-.756-.04zM241.91 125.05c2.567 5.193 6.192 8.117 6.192 8.117s-.476-1.29-.687-2.177c-.21-.888-.046-1.892-.046-1.892s-.91-1.167-2.592-3.758-2.568-6.42-2.568-6.42 1.564 3.83 2.778 5.86c1.215 2.032 2.616 3.69 2.616 3.69s.49-1.797.84-1.89c.35-.094.607.186.91.582.304.397.562.36.562.36s-.415-.857-1.053-1.885c-.29-.467-.713-.97-1.012-1.443-.956-1.512-3.02-4.385-4.077-7.26-1.058-2.874-3.373-10.082-3.776-12.2-.402-2.118-.805-.96-1.208.605-.403 1.562-.957 3.78-.605 7.107s1.157 7.41 3.725 12.603zM245.23 139.07c.956.706 2.366 1.663 2.366 1.663s-.223-.52-.364-1.146-.2-1.912-.2-1.912-1.127-.988-1.91-1.672c-.785-.685-1.77-1.57-3.72-3.987-1.95-2.417-.383-.966 1.205.766s4.625 4.248 4.625 4.248 0-.04.02-.563c.02-.523.182-.906.463-1.268.282-.364.133-.415-1.58-1.725-1.71-1.31-6.14-6.302-7.953-9.278-1.813-2.975-3.776-7.008-3.776-7.008s-.956 5.95 2.67 12.503c3.623 6.553 7.198 8.67 8.154 9.377zM264.25 176.6c1.986-.77 1.442-2.73 1.442-2.76s-1.218.385-2.338.8c-1.122.42-3.877 1.22-4.966 1.252-1.088.032-1.088-.127-1.12-.288-.033-.16.832 0 2.4-.288 1.57-.29 4.326-1.733 4.806-2.053.48-.322.416-.387-.288-.45-.705-.064-1.313-.386-1.57-.61-.255-.224-.992.098-2.786.516-1.795.415-5.51 1.057-8.362 1.057s-5.51-.48-5.958-.578c-.45-.097-.93.16.45 2.47 1.376 2.31 6.214 3.562 9.577 3.53 3.363-.035 6.727-1.83 8.713-2.6zM255.31 171.83c3.47.03 4.764-1.002 4.764-1.002s0-.177-.47-.883-.382-1.914-.382-1.914-.824.148-2.265.355c-1.44.206-3.117.412-4.97.088s-1.058-.53.412-.354c1.47.176 4.292-.355 5.204-.678.91-.324.53-.618-.088-.826-.617-.204-2.293-1.266-2.293-1.266s-4.205.53-8.116.09c-3.91-.444-6.382-1.444-7.176-1.562s-.764.207-.764.207-.206.352 1.146 2.47c1.353 2.124 4 3.508 6.235 4.155 2.235.65 5.293 1.09 8.763 1.12zM254.42 163.7s-.147-.206-.353-.914c-.206-.707.382-1.236.382-1.236s-.795-.235-3.383-.56c-2.588-.324-2.734-.53-4.323-.884-1.588-.353-2.646-.824-2.617-1s.53.088 1.47.44c.94.354 4.91.766 6.587 1.002 1.676.235 2.617.413 2.91.235.295-.177 1.324-.442 1.324-.442s-.706-.203-1.588-.352c-.883-.147-1.676-.53-2.146-.854-.47-.324-.618-.414-2.735-.647-2.12-.235-3.824-.914-7.618-2.298-3.792-1.386-6.646-3.034-7.41-3.652-.765-.618-.706-.176-.5.618.206.796.176 1.796 2.088 4.034 1.91 2.24 2.852 3.21 7.674 4.98 4.825 1.765 10.236 1.53 10.236 1.53zM240.16 151.95c4.264 3.004 9.26 4.107 10.32 4.24.24-.278-.257-1.276-.03-1.885.277-.73.737-.736 1.766-.795 1.03-.06.353-.266.118-.266s-.294-.03-2-.47c-1.706-.44-3.44-.708-5.792-1.592-2.353-.883-3.058-1.53-3-1.708.06-.176 1.088.56 3.265 1.385 2.176.823 4.705 1.147 6.087 1.443 1.382.292.176-.296-.47-.68-.648-.383-1.56-1.796-1.56-1.796s-1.53-.265-4.028-1.03c-2.5-.766-4.587-1.62-6.675-2.798-.716-.407-1.41-.93-2.158-1.467-1.43-1.026-2.87-2.075-3.428-2.48-.854-.618-.588-.118-.5.265s.676 2.15 2.028 4.094c1.353 1.944 1.794 2.533 6.058 5.538zM239.46 143.5c4.205 3.33 7.82 4.357 8.44 4.623.616.266.558-.088.44-.44-.118-.355-.207-1.502-.207-1.502s-1.5-.854-3.176-1.826c-1.676-.973-3.528-2.297-4.763-3.15-1.235-.854-.5-.795-.118-.473.382.325 2.088 1.327 3.793 2.387s4.292 2.592 4.292 2.592.06-.56.412-.914 1.234-.264 1.234-.264-.44-.442-.706-.854c-.264-.414-1.647-.854-3.205-1.592-1.56-.735-4.353-2.796-6.41-4.534-2.06-1.737-6.06-6.096-6.323-6.45-.265-.354-.44-.294-.47.147-.03.44-.177.735.264 2.738.444 2.002 2.296 6.184 6.502 9.512zM254.34 112.03c.477.99 1 1.738 1.375 2.383.568.974.888 1.605.888 1.605s.114-.343.024-.928-.18-1.396-.022-2.363c.083-.518.195-1.034.167-1.494-.033-.523-.208-.975-.28-1.273-.134-.564-.74-3.016-1.033-4.748-.293-1.733-.607-4.208-.585-6.392.022-2.183.337-1.08.337-.022s.112 2.68.45 5.176c.336 2.498 1.392 6.3 1.392 6.3s.067-.584.382-1.417.832-1.777 1.236-2.813c.404-1.035.262-1.208.262-1.208s-1.476-7.066-1.864-10.406c-.39-3.34-1.01-12.116-1.01-12.116-2.16 2.173-3.766 7.892-4.052 13.3-.214 4.076.444 7.848.635 9.377.378 3.03.904 5.393 1.697 7.04zM249.55 123.18c.067-1.6.435-2.81 1.467-3.166 0 0-.913-1.6-1.71-3.883-.546-1.562-.997-3.566-1.226-5.104-.563-3.787-1.015-7.688.114-1.3 1.128 6.387 2.483 8.648 2.483 8.648l1.637 2.657c-.242-1.166-.28-1.986-.218-3.26s.225-3.003.613-4.37c0 0-1.977-3.956-3.218-8.706s-1.95-9.07-1.976-11.644c-.113-2.488-.17-3.45-.17-3.45s-2.03 1.527-2.707 9.27c-.68 7.746 1.354 15.152 2.37 17.98 1.015 2.824 2.54 6.33 2.54 6.33zM271.71 182.24s-.32-.224-1.28-.834c-.962-.608-.673-2.438-.673-2.438s-.256.192-.962.674c-.705.48-1.505 1.025-2.466 1.41s-1.443.643-2.05.835c-.61.193-.45-.063.063-.353.512-.288.673-.45 1.955-.962 1.28-.514 3.843-2.76 3.843-2.76s-.608-.064-1.665-.096-2.403-.577-2.403-.577-1.056.96-5.317 2.79c-4.26 1.83-7.88 2.31-7.88 2.31s.448 2.182 2.498 2.92c1.698.738 4.037 1.187 8.618.097 4.58-1.09 7.72-3.017 7.72-3.017zM277.32 186.61c.353-1.8-.673-3.05-.673-3.05s-.224.128-.864.706-1.57 1.67-3.364 2.566-2.436.834-.706-.097 4.26-3.56 4.26-3.56l-.67-.258c-.675-.257-1.828.192-6.633 3.08-4.804 2.887-7.624 2.984-7.624 2.984s2.146 2.6 7.977 2.407c5.83-.19 7.945-2.982 8.297-4.777zM288.34 184.52s-.64.897-1.506 1.475-3.17.93-3.17.93-.097.258-.545.835c-.45.578-1.443 1.958-2.468 2.696-1.024.738-2.627 1.218-2.723 1.025s.928-.576 1.92-1.186c.994-.608 1.89-1.733 2.564-2.502.673-.77-.288-.642-.288-.642s-1.217.03-2.34-.064c-1.12-.098-.896 0-1.216.546s-.77 1.026-1.602 1.99c-1.016 1.173-1.98 2.237-2.947 3.398-.64.77-.16.995-.16.995s.29.482 2.884.77c1.602.18 3.337-.023 5.163-1.076 1.13-.657 2.298-1.696 3.488-3 3.105-3.398 2.945-6.19 2.945-6.19zM289.72 191.54c-.64.835-.994 1.188-.994 1.188s.45-1.38.833-2.022c.204-.342.426-.667.59-.894-.428-.964-.78-2-1.04-3.117-.285.923-1.172 3.63-2.274 5.392-1.344 2.148-2.53 2.92-1.762 3.495.77.578 2.274.707 3.973-.128 1.64-.805 2.114-2.21 2.347-3.346-.288-.446-.558-.91-.808-1.394-.212.13-.52.376-.866.826z"/><ellipse rx="1.192" ry="1.092" cy="105.75" cx="289.34" fill="#d4af3a"/><path fill="#d4af3a" d="M286.83 103.69c1.088-.026 1.673-.54 2.874-.425 1.417.138 3.337.964 5.67 2.202 1.822.824 4.23 1.236 6.547.57.65-.186 1.292-.54 1.913-.89 2.835-1.607 2.15-4.772 2.15-4.772-2.093 1.51-4.68 2.32-7.088 2.156 0 0 .183.14.594.552.41.413 1.164.893.914 1.102-.25.207-1.28-.78-2.15-1.423-.868-.642-2.148-1.513-4.343-2.153-2.194-.644-4.663-.688-6.31.227-1.645.92-1.782 2.066-1.553 2.524.126.257.43.34.783.332zM317.64 126.8c-.503-.138-1.37-.275-2.514-1.33-1.144-1.054-3.887-4.082-4.208-4.632-.32-.55-.183-1.055.595-1.377.777-.32 1.326-1.33 1.326-1.33s-1.692-.642-2.835-1.468c-1.144-.824-3.796-3.21-4.162-3.806s-.183-.688.366-.87c.55-.185.686-.552.686-.552s-1.235-.78-2.377-1.696c-1.145-.917-2.7-2.43-2.7-2.43-1.712.687-4.4.397-5.852.137-2.56-.458-4.435-1.514-4.435-1.514s-.092.414-.412 1.194c-.32.78-1.508 1.24-2.697.458-1.19-.78-.915-2.476-.915-2.476s-.96-.596-2.926-1.33-3.566-.826-5.167-.092c-1.6.733-2.378 2.935-2.378 4.587 0 1.65.87.964 1.052.733.182-.23.548-1.422 2.56-1.742 2.012-.32 3.84.643 6.127 2.522 2.286 1.882 2.79 2.02 3.932 3.21 1.142 1.194.228 1.835-1.738 2.478s-4.48-.642-4.573-.595c-.38.19.847 1.938 2.543 2.6 1.696.66 3.864.23 5.55-.445 1.143-.458 1.356.015 1.69.367 1.858 1.952 2.34 3.78 2.653 6.01.95-.293 1.606-1.24 1.738-2.02.063-.372.183-1.192.823-.596.64.598 1.143 3.9 1.143 5.413s-.458 3.532-.458 3.532l.458-.046c.275-.047.823-.368 1.555-.78.73-.414.777.046.777.87s.274 2.386 1.372 5.184 2.698 3.714 2.698 3.714.32-.55.64-1.65c.32-1.1.55-3.256.55-5.137s-.503-5.916-.503-5.916 2.286 2.798 4.663 3.487c2.378.69 4.756.276 5.762-.87 1.003-1.147.088-1.65-.415-1.79zM302 134.04s-.722 1.597-1.116 2.166-.57.658-.57.658.723.612 1.774.94c1.05.33 1.992.525 1.992.525s-1.183-1.622-1.598-2.76c-.416-1.137-.482-1.53-.482-1.53z"/><path fill="#d4af3a" d="M316.28 133.1c-.35-.897-.57-1.4-.57-1.4-1.458.29-4.226-.394-5.428-1.117 0 0 1.095 2.23 2.19 2.998 1.094.767 1.247.81 1.247.81s-1.095.177-2.562-1.268c-1.466-1.445-2.123-3.11-2.123-3.11s.328 3.854-.263 6.217-.722 2.67-.722 2.67 3.107.546 6.566-.417c3.458-.964 3.72-1.27 3.72-1.27s.415-.11-.13-.83c-.548-.722-1.576-2.386-1.926-3.283z"/><path fill="#b96b29" d="M310 124.64c-1.064-1.223-1.17-1.516-1.17-1.516s-.372.372-.054.905c.32.53 1.835 1.86 2.872 2.444 1.038.585 2.074.77 2.074.77l-.053-.212s-2.607-1.17-3.67-2.392zM305.78 132.67s-.266-4.84-.266-5.558-.452-.532-.452-.532l-.53.24 1.04 7.076c.112.762.487.697.68.663-.38-.198-.456-1.67-.472-1.89zM299.25 111.72c-.395-.394-1.283-.69-.427.264.855.954 1.975 2.14 2.303 3.128.33.987.527 2.204-.032 1.94-.56-.263-.955-.263-1.547-.756-.593-.494-1.71-1.318-2.172-1.448-.46-.132-1.283 0-.625.723.658.726 1.383 1.418 2.633 2.338 1.25.922 1.975 1.316 2.633 1.777.658.462 1.316.856 1.316.856s-.593-3.948-1.68-5.692-2.007-2.732-2.402-3.128zM277.91 177.87c-.802.608-1.853.857-1.853.857s-.498-.026-.498.167.58 0 1.188-.11 1.438-.72 1.742-.94c.304-.223.747-.5.608-.888-.138-.388-.387.305-1.188.914zM284.8 181.56c-.166.192-1.493 1.19-1.493 1.19s-.415.276-.858.442c-.443.167-.553.417-.553.417s.083.108.552-.028c.47-.14 1.853-1.11 2.294-1.497.442-.39.637-.498.47-.664-.164-.165-.247-.054-.414.14zM256.87 131.93c.248.302.55.715.688.577.138-.137-.028-.275-.358-.66-.33-.386-.522-.58-.522-.58s-.467-.743-.743-1.02c-.275-.274-.688-.412-.165.22.523.636.853 1.16 1.1 1.463zM254.75 136.58c.302.277.577.523.907.88s.578.744.77.552c.193-.193-.495-.605-.797-.992-.303-.386-.55-.633-.936-.936s-.853-.55-.853-.55.607.77.91 1.046zM255.54 144.09c.525.553 1.3.72 1.41.5.11-.223-.055-.4-.496-.62-.44-.22-1.155-.69-1.513-.937-.356-.25-.714-.524-.962-.77-.247-.25-.54-.472-.632-.388-.092.085.73.968.977 1.107.25.138.692.554 1.217 1.108zM257.06 150.1c0-.22.054-.33-.388-.36-.442-.027-1.05-.11-1.05-.11s-.858-.332-.914-.166c-.055.167.72.5 1.05.555.333.055.747.165.94.274.195.11.362.026.362-.194zM257.72 156.63c-.94 0-1.742-.223-1.797-.084s.442.36.913.526c.47.167 1.356.222 1.964.25s.72-.11.69-.415c-.027-.306-.83-.277-1.77-.277zM265.08 163.78c-.138-.138-.47-.027-.996.083-.524.112-1.382.278-1.88.25s-1.576-.055-1.576-.055l-.608.138c0 .14.8.11 1.963.25 1.16.138 1.935-.11 2.488-.195.555-.082.75-.33.61-.47zM268.12 168.87c-.58.222-.995.276-1.438.276-.442 0-1.493.194-1.493.194s-.5.056-.416.25c.083.193.25 0 .69-.056.443-.056.775 0 1.55-.027.773-.028 1.216-.223 1.686-.305.47-.084.995-.333.747-.638-.25-.303-.746.084-1.327.306zM274.04 172.72c-.332.333-1.604 1.19-1.604 1.19s-.25.195-.747.444-.47.36-.388.5.387-.195.663-.306 1.19-.722 1.66-1.107c.47-.39 1.077-.693.966-.97-.108-.276-.218-.08-.55.25zM264.19 122.87s.11.253 1.13 1.53c1.023 1.278.476.073.22-.253-.256-.33-1.75-2.444-2.262-3.03-.51-.583-.583-.29-.328.073.256.365 1.24 1.68 1.24 1.68zM262.04 129.43c.146-.146-.183-.292-.766-1.02-.584-.73-1.75-2.226-1.75-2.226s-.33-.693-.44-.62c-.108.072.402 1.166.876 1.642.475.474 1.094 1.386 1.423 1.787s.51.583.657.437zM264.87 141.73c0-.357-1.155-.303-1.677-.413-.523-.11-1.458-.303-1.458-.303s-1.1-.193-1.128-.055c-.028.135.22.273.825.385.605.11 1.513.385 2.2.495s1.238.25 1.238-.11zM262.04 135.09c.766.62 1.276.912 1.678 1.13.4.22.73.55.95.293.218-.257-.184-.438-.84-.73-.657-.292-.985-.547-.985-.547s-.365-.182-.694-.365c-.33-.18-.877-.4-.11.22zM268.64 130.71c-.475-.4-.876-.622-.876-.622s-.583-.547-.693-.365c-.108.184.657.73 1.022 1.058.365.33 1.022 1.28 1.35 1.096.328-.182-.33-.765-.802-1.166zM264.33 147.85s-.637.165-1.05.276-.443.306.304.306 1.05-.194 1.797-.334c.748-.138.998-.22.886-.47-.11-.25-.498-.166-.802-.083s-1.134.305-1.134.305zM265.49 154.06c-.055.14.525 0 .912-.138.387-.14 1.19-.553 1.66-.692.47-.138.47-.222.47-.5 0-.275-.5-.055-1.106.14-.608.194-1.383.804-1.383.804s-.498.248-.553.386zM273.48 157.82c.554-.334.665-.582.47-.75-.193-.164-.36-.137-.8.223-.444.36-1.3.97-1.3.97s-.443.166-.775.332-.747.443-.636.61c.11.165.8 0 1.16-.306.36-.305 1.328-.75 1.88-1.08zM277.25 162.81c.22-.195.884-.414 1.19-.637.303-.222.497-.886.248-.97s-.387.277-.912.664c-.526.39-2.323 1.58-2.323 1.58l-.47.193c-.5.193-.277.333.138.277.416-.057.692-.057 1.19-.442.497-.388.718-.47.94-.665zM282.83 167.54c.47-.193 1.162-.803 1.494-1.106.33-.306.746-.693.498-.887-.25-.193-.525.056-.913.414-.388.362-1.412 1.442-1.412 1.442s-.138.027-.69.47c-.554.443.027.36.22.167.194-.194.333-.306.802-.5z"/><path fill="#d4af3a" d="M305.58 96.588l2.25-1.598-2.65-.68-1.7 1.358z"/><ellipse rx="2.146" ry="2.069" cy="94.716" cx="312.78" fill="#b96b29"/><ellipse cx="312.78" rx="1.295" cy="94.278" ry="1.237" fill="#d4af3a"/><path fill="#d4af3a" d="M308.3 87.608c.552.205 1.27.115 1.27.115s.217-.952-.308-1.416c-.525-.462-1-.796-1.308-1.105-.308-.31-.384-.413-.384-.413s0 .822-.04 1.337c-.037.516.22 1.274.77 1.48z"/><ellipse cx="309.44" rx=".394" cy="88.65" ry=".373" fill="#d4af3a"/><path fill="#d4af3a" d="M306.51 88.25c-.167.232-.525.604-.525.604s.436.013.795.27c.36.258.82.476 1.244.425.423-.054.603-.453.513-.735-.09-.283-.294-.577-.987-.836-.693-.257-.873.038-1.04.27z"/><path fill="#d4af3a" d="M308.01 90.756c-1.348.12-3.13-1.37-3.13-1.37-.165 1.198-.905 1.82-2.04 2.046l.105.053s1.054.54 2.3.728c.562.086 1.063-.01 1.668-.132.73-.147 1.55-.355 1.995-.63.813-.5.57-1.802.57-1.802s-.12.986-1.468 1.108zM302.76 89.404c-.553-.208-1.383-.607-1.73-.625-.345-.018-.847-.105-.76.537.086.642.743.954 1.382.97.64.02.97-.224 1.35-.416.38-.19.31-.258-.242-.466zM298.54 87.114c-.604-.433-1.142-.554-1.142-.554s-.397 1.04-.173 1.683c.225.642.692.814 1.262.796.57-.017 1.418-.313 1.176-.746-.24-.432-.518-.746-1.123-1.18z"/><ellipse cx="299.09" rx=".466" cy="90.041" ry=".336" fill="#d4af3a"/><path fill="#d4af3a" d="M300.38 84.865c-.374-1.774-.31-3.704 1.37-6.163 1.682-2.46 4.607-3.456 4.607-3.456s.093-.187 1.027-1.182c.934-.997 2.833-2.24 2.833-2.24s-2.204.543-3.457.944v.066c0 .85-.675 1.54-1.51 1.54-.317 0-.614-.1-.858-.273-.68.133-2.944 1.486-3.523 1.97.143.235.227.513.227.81 0 .85-.677 1.54-1.51 1.54-.25 0-.486-.06-.694-.17-.068.107-.132.216-.193.327-.475.873-.825 1.71-1.083 2.478.387.267.646.766.646 1.336 0 .847-.573 1.535-1.28 1.542-.05.498-.046.846-.027.995.062.5.25.81 1.12 1.06.872.248 2.055 1.773 2.055 1.773.085 0 .707-1.12.25-2.895z"/><path fill="#d4af3a" d="M305.74 73.506c.318-.258.374-.653.12-.88-.25-.226-.71-.2-1.028.06-.317.26-.373.656-.12.882.25.226.71.2 1.028-.062zM300.1 77.317c.357-.326.42-.82.136-1.104-.283-.284-.803-.25-1.162.076-.358.323-.42.817-.136 1.1.283.286.803.252 1.162-.073z"/><ellipse cx="296.74" rx=".871" cy="82.109" ry=".856" fill="#d4af3a"/><path fill="#d4af3a" d="M315.54 70.017c-.452.1-1.288.37-2.54 1.026h.024c.87 0 1.546.556 1.546 1.276s-.79 1.503-1.66 1.503-1.46-.755-1.46-1.476c0-.17.04-.333.11-.482-.37.23-.767.482-1.19.767-2.77 1.868-3.423 2.77-4.792 5.324-1.37 2.55-1.868 5.353-1.277 7.003.593 1.648 2.772 1.99 2.803 1.99s-.25-.248-.28-.558c-.032-.313.062-.468.155-1.09.093-.622.03-1.37.03-1.37s.5-.062.78.28c.28.343.685.748.964 1.09.28.34 1.027.996 1.027.996s.436-.624.436-1.37c0-.747-.498-1.556-.592-2.864s.592-3.643 1.867-5.354c1.278-1.712 3.674-3.268 4.39-3.61.716-.342.84-.873.872-1.184.03-.31.093-.528.155-1.307.064-.78-.652-.748-1.367-.593z"/><path fill="#d4af3a" d="M312.79 72.973c.49 0 .936-.44.936-.845 0-.405-.38-.717-.872-.717-.49 0-.888.33-.888.733s.333.83.824.83zM316.91 89.25c.668.27 1.422.118 1.777-.12.355-.237.475-.842.054-1.188-.418-.345-1.043-.333-1.43-.118-.39.216-1.262.83-1.262.83s.194.325.862.595z"/><path fill="#d4af3a" d="M319.05 90c-.24.37-.42.597-1.16.63s-1.548-.017-2.032-.502c-.484-.484-.822-1.164-.822-1.164l-.838-.016s-.273 1.165-.644 1.486c-.37.324-1.66.373-2.225-.048s-1.08-.938-1.177-.873 0 .485.58.986c.58.5.982.808 1.918.808h5.32s1.08.063 1.386-.583c.306-.646.32-1.05.177-1.212-.144-.16-.24.113-.483.486z"/><path fill="#d4af3a" d="M310.96 89.098c.798.443 1.24.173 1.53-.184.29-.356.344-.518.344-.518s-.754-.27-1.12-.487c-.367-.216-.614-.422-.98-.38-.367.045-.42.1-.42.1s-.15 1.024.646 1.468z"/><ellipse cx="307.11" rx="1.775" cy="81.24" ry="1.759" fill="#b96b29"/><path fill="#b96b29" d="M310.19 75.144c-.71-.478-1.753-.287-2.33.426-.577.715-.468 1.683.244 2.16.71.48 1.755.287 2.332-.426.576-.712.466-1.68-.246-2.16z"/><ellipse cx="307.04" rx="1.031" cy="81.012" ry=".983" fill="#d4af3a"/><path fill="#d4af3a" d="M309.45 75.338c-.457-.125-1.022.1-1.26.502-.238.403.014.832.623.956 1.12.23 1.655-1.18.637-1.458z"/></g><g><path fill="#D4AF3A" d="M282.34 212.67s-2.742 1.31-3.61 1.543c-.87.237-1.07.237-1.07.237s-1.874 1.71-3.245 2.513c-1.44.848-3.093 1.463-4.748 1.646-2.14.232-8.025.165-10.667.065s-4.28.536-5.417 1.81c-1.137 1.276-1.404 3.12.034 4.53s3.042.704 3.578-.168c.534-.873.267-1.98.033-2.482-.233-.504.47-.672 1.204-.705.736-.033 1.973.067 3.11.235 1.137.167 3.144.838 4.013 1.308.87.47.368.537-.234.436s-1.27-.336-2.34-.737c-1.07-.402-1.973-.604-2.64-.64-.67-.032-.437.337-.302.57.133.236.5.806.6 1.075.102.27-.2 1.272-.2 1.272l.335.64s.4-.64.535-.973c.133-.337-.034-.973.1-1.275s.702-.302 1.137.202c.435.502.937 1.107 1.17 2.38.234 1.274-.2 2.18-.2 2.18s.535.438.635.737c.1.304-.134 1.512-.134 1.512s.368.234.703-.47c.333-.704.734-1.945.834-2.382.1-.436.4-1.24.936-.637s.903 1.342 1.004 1.71c.1.37.1.672.1.672s1.203-1.175 1.604-1.846 1.237-1.678 2.375-2.616c1.137-.94 3.11-2.817 4.08-3.455.968-.638 3.443-1.98 4.212-2.45s.903-.5 1.037-1.81c.134-1.31.77-2.48 1.07-3.388.29-.91.36-1.24.36-1.24zM238.49 163.52c-.022-.223-.468-1.006-.58-1.408-.11-.4-.512-.157-.512-.157s-.87.492-1.516.67-.736-.065-.803-.4c-.067-.338-.224-1.387-.335-2.125-.112-.736-.268-.69-.535-.582-.267.113-1.07.403-1.627.65-.557.245-.38.514-.2.826.177.314.824 1.632 1.113 2.102.29.47.022.67-.313.828-.334.156-.824.223-1.493.446s-.624.38-.558.604c.067.225.513 1.14.758 1.564.245.425.468.135.468.135s.714-.647 1.315-.94c.602-.288.646-.2.802.248.156.448.848 2.796.98 3.243.135.445.358.4.67.27.312-.135.735-.203 1.092-.315.357-.11.49-.827.49-.827s-1.314-2.368-1.67-2.973c-.358-.604 0-.738.267-.782.267-.044 1.047-.156 1.716-.313.66-.17.48-.55.46-.78zM253.35 227.9c-.1-.57 0-1.142-.435-1.577-.435-.437-.97-1.308-1.17-2.012-.2-.704.167-1.04.1-1.442-.066-.402-.602-.402-1.136.035-.537.436-1.24.838-1.24 2.112 0 1.273.47 2.784 2.242 3.32 1.77.54 1.74.14 1.64-.43zM255.15 227.29s-.368-.234-.535.1-.134.505.334 1.242.77.906 1.303 1.24c.535.336.167-.334.1-.536-.066-.202 0-.47-.133-.638-.134-.168-.202-.37-.202-.904 0-.53-.87-.5-.87-.5z"/><path fill="#D4AF3A" d="M257.32 233.33c.334-.505.636-.638 1.438-1.006s2.273-.57 2.774-.604c.502-.034 1.64-1.006 1.47-2.014-.166-1.006-.902-1.408-1.537-1.542s-1.204-.134-1.404.167c-.2.304-.568.706-1.27.94s-.803.47-1.237.604c-.435.135-.1.403-.468.705-.368.3-.87 0-1.438-.17-.568-.167-.602-.267-1.237-.302-.635-.033-2.307-.133-2.307-.133s-.067-.034-.434-.034c-.37 0-.403.068-.57.47-.166.403.034 1.41.436 1.913.4.502 1.705.737 2.574 1.006.87.266 1.305.368 2.04.5.76.13.86-.01 1.19-.51zM265.45 234.13c.702-.47.3-1.275.134-1.777-.167-.504-1.137-.604-1.64-.604s-.768 0-1.036.233c-.268.234-.635.57-1.37.806-.735.233-1.305.5-2.308.904-1.003.4-1.305 1.072-1.74 1.343-.434.267-1.27 0-1.27 0s-.602-.17-.802 0c-.2.165 0 .5.4.937.403.438 1.17.403 2.04.672.87.268 1.037.066 1.372-.168.334-.234.602-.737 1.204-1.107.602-.367 1.906-.435 2.54-.5.65-.07 1.79-.27 2.49-.74zM265.45 231.08c.3.27.635.64.903.2.268-.434.702-1.34.4-1.876-.3-.536-.667-1.007-.667-1.007s-.502 1.543-.736 1.946c-.22.41-.19.47.11.74zM262.74 226.45c0-.873-.602-1.946-.602-1.946s-.2.805-.568 1.51c-.368.703-.736 1.073-.736 1.073s.87.234 1.204.234.71.01.71-.86zM257.73 228.3c.936-.2 1.438-.57 1.84-.905s.635-1.242.367-1.71c-.267-.472-.936-.973-1.203-.973h-.502s-.268.872-.635 1.308c-.368.437-.802.737-.77 1.308.03.56-.04 1.16.9.96zM259.63 224.04c.034-.436-.135-.905-.435-1.207-.3-.302-.502-.502-.502-.502s-.067.67-.133 1.04c-.067.37-.1.436-.1.436s.268.27.502.37c.23.09.63.3.66-.14zM248.07 200.25l.632-3.952c-.475-3.95-2.53-7.69-4.162-10.274-1.634-2.58-3.32-6.638-4.058-8.8-.737-2.16-1.232-5.118-1.232-6.666 0-1.55.66-2.347.66-2.347s.288-.42.023-.685c-.265-.265-.683-.02-1.103.398s-.86 1.194-1.037 1.747c-.177.555-.177.753-.177.753s-.838-.198-2.184-.087c-1.346.11-1.985.22-2.03.508-.044.288.177.51 1.147.93.97.42 1.588.597 2.073 1.173.486.575 1.727 3.465 2.106 4.86.378 1.396 1.19 5.18 1.518 8.15s1.33 6.568 2.732 9.573c.46.99 2.97 5.67 5.09 4.73zM250.52 207.21c-.915.51-.88 4.25-.475 6.188.407 1.94 2.305 4.353 2.88 5 .578.645.713.645 1.02.475.305-.17.44-.17.44-.17s.813-.27 1.424-.747c.608-.477.37-1.667.27-2.72-.103-1.057-.916-3.165-2.407-5.61-1.48-2.45-2.23-2.93-3.14-2.42zM251.53 204.18c0-1.22-1.058-2.142-2.274-2.142-.575 0-1.082.145-1.396.428-1.234 1.113-.49 3.89 1.293 3.89.646 0 1.4-.107 1.868-.554.42-.39.51-1.04.51-1.62zM269.21 239.32c-.487-.086-.774-.285-1.492-.773-.717-.487-1.865-1.492-2.066-1.98-.202-.488-.202-.517-.89-.286-.69.23-1.665.2-2.41.23-.746.03.085.86.602 1.637.517.774.344 3.385.344 3.385s0 .23-.115.604c-.115.372-.028.63.172.717.2.086.315-.086.832-.69.517-.602 1.464-2.18 1.464-2.18s.145.028.948.23 2.095.086 2.755-.115c.68-.2.36-.69-.13-.78z"/><path fill="#D4AF3A" d="M266.14 241.34c-.344-.058-.487-.087-.66.14-.17.232-.315.664-.4.892-.087.23-.06.432.143.604.2.173.488.373.488.373s.288.315.576.457c.287.145.343-.285.343-.602 0-.315.17-.89.17-1.263s-.3-.55-.65-.6z"/><path fill="#1D5E91" d="M396.62 216.11c-.84-.2-1.195-.518-1.195-.518s-.36-.04-.64.48c-.277.516-1.355 1.194-1.355 1.194s-1.515.4-1.715 1.438c-.2 1.036.52 1.395 1.236 1.275.72-.12 2.475-.48 3.23-1.396.758-.918.878-1.437 1.037-1.797.14-.35.23-.47-.61-.67zM398.97 207.85c-.545-2.306-2.034-5.155-4.905-6.582 0 0-1.077 3.79-1.396 4.987-.32 1.195-.32 1.156.597 1.396.916.24 3.867.877 4.466 1.037s1.6.67 1.24-.85zM385.29 205.7c.677.12.598-.16.837-1.077l1.435-5.463s-3.03-.12-5.662 1.155c-2.633 1.276-3.79 3.63-3.79 3.63s.68.278 2.475.678c1.8.39 4.03.95 4.71 1.07zM378.27 211.96c-1.075-.2-1.475-.32-1.475-.32s.678 2.592 1.795 4.03c1.116 1.435 2.353 2.154 4.666 2.193 2.313.04 4.067-1.236 4.347-2.233.28-.998.758-1.754.758-1.754s-4.187-.56-5.902-.96c-1.74-.4-3.13-.76-4.21-.96z"/><path fill="#D4AF3A" d="M377.55 210.32c1.038.24 9.572 1.874 10.29 2.034.72.158 1.316.318 1.516.118.2-.198.32-.318 1.077-.6.758-.276.72-1.035.72-1.035s.198-.72.276-1.436c.08-.716.48-.956 1.316-.078.838.876.997 2.152 1.156 3.39.16 1.236 2.115 1.555 2.87 1.675.76.12 1.117-.12 1.557-.837.438-.718.678-2.154.797-3.072.12-.916.04-.837-.917-1.076-.957-.238-5.384-1.235-6.183-1.437-.796-.2-.637-.717-.518-1.275s1.873-6.183 1.873-6.183c-1.25-.772-3.004-1.232-5.104-1.475 0 0-1.277 5.742-1.518 6.62-.238.877-.798.877-1.714.717-.918-.16-7.54-1.713-7.54-1.713l-.516 1.234c-.52 1.237-.758 2.714-.758 3.47s.27.74 1.3.97z"/><path fill="#D4AF3A" d="M400.2 215.51c-.88-.575-1.527-.727-1.985.344-.46 1.07-.496 2.64-1.642 3.748-1.146 1.11-2.75 2.256-4.354 2.142-1.604-.115-2.52-.498-2.14-2.333.383-1.834 2.827-2.408 3.4-3.364s.42-2.065-.422-2.79c-.84-.73-2.062-.88-2.405-.65-.343.228-1.337 1.07-1.832 2.445-.496 1.378-.8 2.487-1.87 3.367-1.068.88-3.818 1.76-5.956 1.26-2.138-.496-2.9-1.146-3.704-3.25-.802-2.102-1.756-5.58-2.177-5.964-.42-.382-.954-.688-1.87-.04-.917.65-.993 1.607-1.107 2.373-.115.764 0 1.646.915 2.754.918 1.108 1.873 2.217 2.217 3.363.344 1.147 1.374 2.907-.077 2.983-1.45.076-2.1.114-3.207-.955-1.107-1.07-5.423-4.015-6.605-4.972-1.184-.956-1.68-1.26-1.68-1.26-1.997-.036-3.997-.857-5.994-2.218 0 0 1.146 2.943 1.374 4.052.23 1.11.19 1.72.19 1.72s4.353 2.218 6.072 3.06c1.718.84 5.192 2.83 6.87 3.86 1.683 1.035 3.095 2.64 6.073 2.03 2.98-.613 9.01-2.448 10.957-3.022 1.948-.574 7.332-1.912 9.317-3.288s2.177-1.3 2.52-2.677c.34-1.35 0-2.11-.88-2.69zM388.71 194.92c.33-.044.464-.09 1.48-.22 1.016-.135.64.84.462 1.215-.176.375-.485 1.127-.903 1.834-.423.71.13.82.417.93.287.11.706.154 1.523.376.818.22.662-.377.685-.686.022-.31.065-1.925.155-2.5.088-.573.617-.42.816-.31s.706.397 1.127.618c.418.224.617-.02.706-.264s.285-.685.463-1.327c.177-.64-.22-.51-.62-.51-.396 0-.97 0-1.633-.02-.662-.022-.243-.664-.243-.664s.486-.795.86-1.393c.377-.597.245-.685-.132-.797-.374-.11-1.545-.376-1.876-.464-.332-.088-.486-.045-.486.177s-.045 1.37-.045 1.813c0 .44-.044.707-.62.73-.573.02-.927-.313-1.39-.82-.464-.507-.662-.31-.707-.11-.044.2-.42 1.66-.508 2.057-.11.39.11.37.44.32zM391.91 209.41s-.04 1.157-.16 1.555c-.12.4-.398.998.08 1.157.48.16.917.358 1.194.28.28-.08.16-.64 0-1.117-.158-.48-.397-1.078-.757-1.476l-.35-.39zM398.93 214.03c.16.358.48.438.72.52.238.078.558.078.558-.36s.08-.997-.278-1.476c-.36-.48-.55-.828-.758-.12-.21.72-.4 1.09-.24 1.44zM374.48 209.37c.2.04.957.28.957.28s0-1.118.16-1.876c.158-.756.478-1.275.2-1.275s-.44.238-.64.557c-.2.318-.76.4-.957 1.316-.2.91.08.95.28.99z"/><circle cy="207.45" cx="379.27" r="1.556" fill="#B96B29"/><circle cy="208.53" cx="383.65" r="1.595" fill="#B96B29"/><circle cy="211.24" cx="396.42" r="1.596" fill="#B96B29"/><circle cy="209.57" cx="388.04" r="1.596" fill="#B96B29"/><circle cy="205.74" cx="389.2" r="1.596" fill="#B96B29"/><circle cy="201.91" cx="390.32" r="1.596" fill="#B96B29"/><circle cy="207.3" cx="379.38" r=".777" fill="#D4AF3A"/><circle cy="208.37" cx="383.77" r=".798" fill="#D4AF3A"/><circle cy="211.08" cx="396.54" r=".797" fill="#D4AF3A"/><circle cy="209.41" cx="388.16" r=".797" fill="#D4AF3A"/><circle cy="205.58" cx="389.32" r=".797" fill="#D4AF3A"/><circle cy="201.75" cx="390.44" r=".798" fill="#D4AF3A"/></g><use xlink:href="#a" transform="matrix(-1 0 0 1 640 0)" height="320" width="640"/></svg>