<svg xmlns="http://www.w3.org/2000/svg" width="660" height="440" viewBox="0 0 2880 1920"><title>Flag of Macau</title><path fill="#00785e" d="M0 0h2880v1920H0z"/><path d="M1440 362l-23.656 72.906h-76.688l62.032 45.063L1378 552.843l62-45 62 45-23.688-72.875 62.032-45.064h-76.688L1440 362zm-302.563 127.906l15.532 50.72-43.47 30.405 53.03.94 15.5 50.717 17.283-50.156 53.03.908L1206 541.53l17.25-50.155-43.47 30.438-42.342-31.907zm605.126 0l-42.344 31.906-43.47-30.437L1674 541.53l-42.344 31.908 53.032-.907 17.28 50.158 15.5-50.72 53.032-.937-43.47-30.405 15.533-50.72zM1036.968 657.47l-22.408 48.06-52.625-6.467 38.782 36.156-22.408 48.092 46.375-25.718 38.782 36.156-10.095-52.063 46.344-25.718-52.626-6.44-10.125-52.06zm806.06 0l-10.124 52.06-52.625 6.44 46.345 25.717-10.094 52.063 38.783-36.156 46.374 25.718-22.406-48.093 38.783-36.158-52.626 6.47-22.406-48.063z" fill="#fbd116" fill-rule="evenodd"/><path d="M1440 614.406c-68.874 59.52-112.5 147.492-112.5 245.594 0 66.726 20.174 128.754 54.75 180.344-42.462-54.852-67.75-123.658-67.75-198.344 0-49.61 11.163-96.627 31.094-138.688-13.765-14.546-24.222-32.258-30.125-51.937C1288.756 698.52 1273.5 752.98 1273.5 811c0 72.17 23.602 138.846 63.5 192.75-69.483-72.84-167.463-118.25-276-118.25-5.832 0-11.638.147-17.406.406 10.92 10.18 20.088 22.21 27 35.594 107.963.165 205.43 45.28 274.75 117.594C1279.14 983.8 1193.934 950.5 1101 950.5c-51.937 0-101.452 10.396-146.594 29.22 46.38 122.553 164.857 209.78 303.594 209.78 8.983 0 17.89-.404 26.688-1.125-18.722 3.364-38.004 5.125-57.688 5.125-87.532 0-166.987-34.72-225.375-91.125-12.154 4.677-25.19 7.597-38.78 8.406 59.47 67.268 146.378 109.72 243.155 109.72 91.924 0 174.944-38.292 234-99.78 59.056 61.488 142.076 99.78 234 99.78 96.777 0 183.686-42.452 243.156-109.72-13.592-.808-26.627-3.728-38.78-8.405-58.39 56.405-137.844 91.125-225.376 91.125-19.684 0-38.966-1.76-57.688-5.125 8.8.72 17.705 1.125 26.688 1.125 138.737 0 257.214-87.227 303.594-209.78-45.142-18.824-94.657-29.22-146.594-29.22-92.934 0-178.14 33.3-244.344 88.594 69.32-72.313 166.787-117.43 274.75-117.594 6.912-13.385 16.08-25.415 27-35.594-5.768-.26-11.574-.406-17.406-.406-108.537 0-206.517 45.41-276 118.25 39.898-53.904 63.5-120.58 63.5-192.75 0-58.02-15.257-112.48-41.97-159.625-5.902 19.68-16.36 37.39-30.124 51.938 19.93 42.06 31.094 89.078 31.094 138.687 0 74.686-25.288 143.492-67.75 198.344 34.576-51.59 54.75-113.618 54.75-180.344 0-98.102-43.626-186.075-112.5-245.594zm0 541.313c-58.257 55.62-137.158 89.78-224 89.78H963.47c7.443 10.94 15.245 21.616 23.405 32H1231c79.603 0 152.524-28.72 209-76.344 56.476 47.624 129.397 76.344 209 76.344h244.125c8.16-10.384 15.962-21.06 23.406-32H1664c-86.842 0-165.743-34.16-224-89.78zm-425.125 154.78c4.965 5.427 10.05 10.764 15.22 16h819.81c5.17-5.236 10.255-10.573 15.22-16h-850.25zm50.594 49c10.13 8.684 20.556 17.026 31.28 25h686.5c10.724-7.974 21.15-16.316 31.28-25h-749.06zm67.75 50c18.575 11.72 37.854 22.425 57.78 32h498c19.926-9.575 39.205-20.28 57.78-32h-613.56zm94.342 48c65.748 26.13 137.418 40.5 212.438 40.5 75.02 0 146.69-14.37 212.438-40.5h-424.876z" fill="#fff" fill-rule="evenodd"/></svg>