<svg xmlns="http://www.w3.org/2000/svg" width="1000" height="500"><path fill="#0071bc" d="M0 0h1000v500H0z"/><g fill="none" stroke="#000" stroke-width="1.935"><path fill="#fff" d="M557.817 395.544s17.632-18.65 34.586-15.09c5.086-19.665 24.244-21.19 24.244-21.19s-1.865-21.702 22.717-26.45c.68-14.75 15.598-26.955 15.598-26.955s-3.052-22.89 12.546-28.144c-9.494-18.14 3.22-31.365 3.05-31.704-.168-.34-16.105-28.652-1.864-36.79-15.088-12.715-10.172-27.125-10.172-27.125s-16.445-4.24-10.51-23.905c-13.564-2.374-16.277-24.244-16.277-24.244s-20.853 4.238-23.396-13.902c-13.733 2.204-15.26-11.36-15.43-11.36-.168 0-27.294 7.29-32.72-13.223-10.51 5.426-15.088-4.238-15.088-4.238s-15.09 7.46-24.074-6.95c-17.97 11.188-27.974-.51-27.974-.51s-23.566 15.597-31.364 3.56c-13.902 14.072-26.28 7.97-26.28 7.97s-10.51 18.648-27.464 13.9c-3.9 17.293-23.396 17.633-23.396 17.633s2.035 15.258-21.36 19.327c-3.053 17.97-15.26 21.022-15.26 21.022s1.187 17.463-9.833 23.057c3.9 9.834-6.273 21.87-6.273 21.87s10.85 13.563-3.9 28.822c14.242 3.73 3.9 28.313 3.9 28.313s19.667 8.815 7.29 25.09c14.072 4.578 9.664 15.767 9.834 22.38 8.985 4.068 16.953 2.033 13.054 20.174 27.634 3.052 14.58 18.31 14.58 18.31s12.885.51 7.8 10.68c23.564-.508 26.955 17.633 26.955 17.633s21.87-5.765 24.753 2.712c2.882 8.476-9.494 65.61-9.494 65.61s-18.48 0-32.212-14.75c-32.213-.847-25.092-22.04-25.6-22.04-.51 0-10.68 3.9-15.937-13.732-21.53 4.408-20.853-13.732-21.023-13.902-.17-.17-9.663-4.408-6.103-13.393-22.208 2.034-20.513-19.667-20.513-19.667-4.86-1.978-6.668-6.5-5.934-11.02-2.882-1.017-22.548-1.356-12.376-27.295-18.82-11.358-7.12-24.412-7.12-24.412s-25.94-13.394-5.934-28.822c-14.92-22.04 1.186-33.06 1.186-33.06s-20.684-21.022.34-35.94c-3.392-31.874 15.596-39.503 15.596-39.503s-10.003-25.94 17.123-36.79c1.695-26.278 20.683-26.956 20.683-26.956s.508-20.853 30.347-18.82c5.764-18.648 26.11-14.918 26.11-14.918s6.27-22.55 33.906-11.7c14.07-27.464 34.925-13.393 34.925-13.393s13.224-8.646 19.836-5.934c8.396-14.428 26.27-.56 37.827 2.233 4.188-1.63 19.138-12.913 30.666 1.328 15.258-10.003 28.312 7.968 28.312 7.968s21.023-10.68 30.856 13.733c44.588-4.07 38.146 25.09 38.146 25.09s35.094-7.967 27.465 26.957c31.872 2.204 28.65 23.227 28.65 23.227s20.175 15.257 11.36 28.99c17.97.847 11.358 18.14 11.358 18.14s13.733 5.256 2.374 26.617c26.278 21.023 5.086 41.876 4.916 41.707-.17-.17 14.072 16.953 1.187 36.62 3.9 31.195-11.867 39.163-11.867 39.163s4.068 20.175-13.563 25.94c-.34 23.734-22.718 26.616-22.718 26.616s5.933 10.31-16.276 21.16c-.875 15.882-24.073 17.155-24.073 17.155s-2.204 29.16-31.704 21.362c-7.16 23.397-41.706 16.445-42.384 16.106-.68-.34-6.613-50.183-6.613-50.352z"/><path d="M599.01 420.07s-2.616 5.032 7.85 9.46M619.94 408.19s11.673-2.818 19.522 0M654.76 378.81c0 .2-1.61 5.233 7.648 12.478M661.4 365.73s6.843 5.032 18.315 4.83M592.37 380.42s.402 13.283-6.44 19.522M615.31 359.89s11.27 2.818 20.53-1.81M687.56 340.37s2.415 3.42 14.893 2.818M638.86 332.52c.402.2 14.692 4.83 23.75.604M667.43 277.77s.604-.805 5.032 14.692M678.5 234.1s-.604 8.252-7.245 11.874M720.97 200.29s-9.66 7.85-7.85 11.07M672.87 194.65s5.032 8.453-3.22 14.29M648.52 158.43s8.654-.403 12.478 7.044M666.63 103.69c0 .2 1.81 1.81-1.61 5.233M604.84 104.49s4.63 7.245 3.824 16.1M631.61 79.937c2.013-.2 8.855-3.22 8.855-3.22M601.82 51.157c-.2 0-2.616 9.057 1.81 12.277M590.75 92.415c0 9.66 7.648 7.245 2.415 16.503M572.04 84.365c-.2 0-12.075 9.258-12.075 10.868M541.04 79.333s5.032 5.03 3.824 11.874M499.58 73.295c-.2.403-4.227 9.057-7.044 10.667M462.96 73.497c.2 0 4.025 8.05-1.006 13.887M397.75 106.91c.2.402 10.264 2.013 10.264 2.013M372.59 130.25c.2-.2 12.277-3.824 12.277-3.824M353.07 145.35c.403 0 8.453 1.41 10.465.403M347.43 152.79s2.616 1.41.403 14.893M308.19 117.37l4.83 7.245M291.68 154.6c0-.2 4.83 7.245 11.27 8.654M329.72 192.44c.2 0 7.85-1.61 9.057-2.415M326.3 219.81c.2 0-.2-5.032 6.038-8.453M318.05 232.29c0 .2 5.837 7.447 9.862 8.453M314.63 246.18c.604-.2 6.843-5.636 14.088-5.233M312.61 264.89s.2 6.24 18.717 4.63M314.43 286.83c0-.2 5.434-12.478 16.503-17.107M329.32 302.53s1.61-5.233 10.868-8.855M339.58 323.26s6.642-5.434 9.057-6.24M347.84 339.36s4.025 4.226 14.088-3.02M299.33 342.78c1.208-.2 15.9-3.623 20.93 4.025M305.17 354.86s15.497-2.013 17.51-.402M360.51 358.08s-2.013 4.227 17.107-2.818M384.26 365.73c-3.42 5.836.805 10.465-3.623 13.082M326.1 373.78c.604-.402 7.044-2.616 6.038-11.874M331.94 387.66c.805-.2 11.472-4.83 13.686-2.415M352.87 401.15s1.41-9.46 4.428-10.465M368.97 415.44s8.855-.2 12.68-3.02M386.07 383.44c.2.2 8.252 4.428 25.36.2M392.51 421.88s2.415 12.277 2.214 15.094M632.21 133.87h6.642M526.35 75.308s-2.616 7.648-6.038 9.66M454.5 31.836c.2.2.805 6.24-3.02 11.472M418.28 45.522c0 .2 1.61 6.843-9.057 9.057"/></g><g fill="#f7df73" stroke="#000" stroke-linejoin="round" fill-rule="evenodd"><path d="M561.72 423.68s100.53-28.397 130.89-151.78c-17.626 126.65-127.63 166.79-127.63 166.79l-3.264-15.015z" stroke-width="2.419"/><path d="M429.95 421.01s-99.612-28.908-129.69-154.51c17.464 128.92 126.46 169.79 126.46 169.79l3.234-15.285z" stroke-width="2.429"/></g><g fill="#8c1800"><path d="M572.03 431.37c3.107 0 10.794-8.505 15.21-9.486 4.416-.98 4.907-5.397-.164-5.56-5.07-.164-9.485 5.724-9.485 5.724s-4.415 3.76-8.995 4.252c-4.58.49-1.635 6.215 3.435 5.07zM593.45 415.67s-3.108-1.145 4.907-4.252c8.013-3.108 7.523-6.706 10.14-8.178 2.616-1.472 8.177-5.397 9.322-3.107 1.144 2.29-5.89 6.87-7.524 7.36-1.636.49-9.65 7.85-11.94 8.504-2.29.654-3.925.327-4.906-.327zM419.74 428.84c-3.08 0-10.695-8.658-15.07-9.656-4.377-1-4.863-5.495.16-5.66 5.024-.168 9.4 5.826 9.4 5.826s4.375 3.83 8.913 4.33c4.537.498 1.62 6.325-3.403 5.16zM398.51 412.86s3.08-1.165-4.862-4.33c-7.94-3.162-7.454-6.825-10.047-8.323-2.59-1.5-8.1-5.494-9.235-3.164s5.834 6.993 7.454 7.493 9.56 7.99 11.83 8.657c2.268.666 3.888.333 4.86-.333z"/><path stroke="#8c1800" stroke-width="2.419" d="M629.92 388.19s-10.467 6.05-8.995 7.523c1.472 1.472 10.794-5.724 10.958-5.887.163-.164 3.925-4.743-1.963-1.636z"/><path stroke="#8c1800" stroke-width="2.429" d="M362.37 384.89s10.37 6.16 8.913 7.658c-1.46 1.5-10.695-5.827-10.857-5.993-.162-.167-3.89-4.828 1.944-1.665z"/></g><g fill="none" stroke="#8c1800" stroke-linecap="round"><path stroke-width="3.144" d="M645.46 372.82c-6.87 7.687-6.87 7.523-6.87 7.523"/><path stroke-width="2.902" d="M655.76 360.23l-6.542 8.014"/><path stroke-width="2.66" d="M666.07 343.87l-7.36 11.776"/><path stroke-width="2.419" d="M674.74 327.19l-6.05 12.103M678.66 318.36l-1.963 4.252"/><path stroke-width="1.451" d="M683.08 306.75l-1.636 5.07"/><path stroke-width="3.158" d="M346.98 369.24c6.806 7.825 6.806 7.66 6.806 7.66"/><path stroke-width="2.915" d="M336.77 356.42l6.482 8.158"/><path stroke-width="2.672" d="M326.56 339.77l7.293 11.987"/><path stroke-width="2.429" d="M317.97 322.79l5.996 12.32M314.08 313.8l1.945 4.33"/><path stroke-width="1.457" d="M309.71 301.98l1.62 5.16"/></g><g><g fill="#217900" stroke="#000" stroke-width="1.935" stroke-linejoin="round"><path d="M343.56 115.74c.086 0 7.477 6.41 6.096 16.07-1.38 9.66-6.96 23.09-5.837 33.095.684 4.01.425 11.198.425 11.198s-6.7-9.52-6.786-19.698 7.254-19.842 7.254-27.346c0-7.505-1.327-13.493-1.154-13.32zM339.9 118.62s-9.698 9.258-10.947 18.255c-.922 4.638-1.28 26.247-1.39 35.84-.217 2.942-1.437 14.557-1.696 18.784-.258 4.225 7.134-7.216 7.557-16.53-.23-9.644-.232-29.954.75-33.006.87-3.924.68-8.26 2.03-12.194 1.784-5.46 3.782-11.064 3.696-11.15z"/></g><g fill="none" stroke="#6b18b5" stroke-linejoin="round"><path stroke-width="1.935" d="M276.41 180.31s6.574 9.102 7.754 14.328c1.18 5.225 3.37 15.508 6.237 19.722 2.866 4.214 19.217 27.644 20.06 37.42.168 6.406-6.743 17.363-17.025 17.53-6.406-.167-22.924-4.38-23.6-18.54-.674-14.16 5.058-14.498 5.732-23.094.674-8.597.843-47.197.843-47.366z"/><path d="M389.35 56.36s-6.806.486-12.046 3.327c-4.06 2.503-10.937 6.105-15.743 12.77-12.222 9.528-30.61 13.974-36.41 21.89-3.473 5.386-3.26 18.338 5.44 23.823 5.56 3.184 21.864 8.165 29.796-3.583 7.932-11.748 3.21-15.014 7.1-22.71 6.418-17.64 21.776-35.372 21.864-35.517zM554.44 39.166s-5.083-4.552-10.77-6.34c-4.622-1.175-12.32-.664-20.287-1.446-15.348-2.153-31.17-13.253-40.892-11.912-6.283 1.252-15.44 10.416-13.33 20.48 1.58 6.21 8.525 18.77 22.483 16.295 13.958-2.474 13.837-5.52 22.072-8.078 20.085-11.262 40.56-8.96 40.724-9zM718.18 198.3c1.146-2.62-.965-7.542-2.464-13.31-1.455-4.543-3.627-11.593-8.94-17.86-6.316-14.153-5.234-33.563-11.525-41.093-4.394-4.663-17.018-7.567-24.432-.44-4.427 4.633-13.177 19.264-3.678 29.785 9.5 10.52 13.64 6.558 20.176 12.182C702.9 178.03 710.53 196.38 718.18 198.3zM712.59 321.94c2.128-2.946 5.938-8.625 5.485-13.354-.36-3.746 1.717-15.1 1.944-20.055 1.407-15.433 11.068-27.96 8.44-41.37-1.553-6.217-10.657-15.084-20.61-12.49-6.125 1.88-19.764 9.384-16.62 23.206 3.147 13.822 7.613 13.593 10.567 21.694 8.48 16.748 3.054 36.642 10.793 42.37z"/></g><g fill="#6b18b5"><path d="M491.8 26.96c0-2.178-2.45-3.943-5.47-3.943s-5.473 1.765-5.472 3.943c0 2.178 2.45 3.943 5.47 3.943s5.473-1.765 5.472-3.943zM494.14 36.133c0-2.088-2.522-3.782-5.632-3.782s-5.632 1.695-5.632 3.783 2.52 3.782 5.632 3.782 5.632-1.693 5.632-3.782zM501.14 25.27s-6.437 4.83-3.781 6.76c2.653 1.93 9.975-4.184 9.975-4.184l-6.195-2.575zM690.31 135.8c.002-1.372-.64-2.64-1.687-3.328-1.046-.687-2.334-.687-3.38 0-1.045.687-1.69 1.956-1.687 3.328-.002 1.372.642 2.64 1.687 3.328 1.046.687 2.334.687 3.38 0s1.69-1.956 1.687-3.328zM687.86 126.59c0-2.29-1.58-4.144-3.53-4.144-1.95 0-3.53 1.855-3.53 4.144 0 2.29 1.58 4.144 3.53 4.144s3.53-1.855 3.53-4.144zM689.55 145.32c0-1.187-.618-2.15-1.38-2.15-.764 0-1.383.963-1.383 2.15s.62 2.15 1.382 2.15c.762 0 1.38-.963 1.38-2.15zM695.23 128.59c0-1.356-.618-2.456-1.38-2.456-.764 0-1.383 1.1-1.383 2.456s.62 2.456 1.382 2.456c.762 0 1.38-1.1 1.38-2.456zM679.72 130.28c0-1.102-.618-1.995-1.38-1.995-.764 0-1.383.893-1.383 1.995s.62 1.995 1.382 1.995c.762 0 1.38-.893 1.38-1.995zM682.18 143.48c0-1.78-1.305-3.225-2.916-3.225-1.61 0-2.917 1.444-2.917 3.225 0 1.78 1.306 3.225 2.917 3.225 1.61 0 2.917-1.444 2.916-3.225zM674.5 137.64c0-1.526-1.1-2.763-2.456-2.763-1.356 0-2.456 1.237-2.456 2.763 0 1.526 1.1 2.763 2.456 2.763s2.456-1.237 2.456-2.763zM673.28 129.82c0-.823-.408-1.585-1.074-1.996-.665-.412-1.485-.412-2.15 0-.665.41-1.075 1.173-1.074 1.996 0 .823.41 1.585 1.074 1.996.665.412 1.485.412 2.15 0 .666-.41 1.075-1.173 1.074-1.996zM708.27 169.62c-3.17-4.184-8.246-5.947-11.337-3.938-3.09 2.01-3.026 7.03.144 11.215 3.17 4.184 8.247 5.947 11.337 3.938 3.09-2.01 3.026-7.03-.144-11.215zM717.28 246.81c.614-5.135-1.89-9.656-5.593-10.1-3.704-.442-7.204 3.36-7.82 8.495-.613 5.135 1.89 9.656 5.595 10.1 3.703.443 7.204-3.36 7.818-8.495zM719.18 291.75c1.055-5.062-1.05-9.783-4.7-10.544-3.652-.76-7.468 2.725-8.523 7.787-1.056 5.063 1.05 9.784 4.7 10.545 3.652.76 7.467-2.726 8.523-7.788zM727.84 249.69c0-2.034-1.374-3.684-3.07-3.684-1.695 0-3.07 1.65-3.07 3.684s1.375 3.684 3.07 3.684c1.696 0 3.07-1.65 3.07-3.684zM720.32 258.13l-6.293 7.137s-5.91.154-5.603 2.073c.307 1.918 8.136 7.674 8.06 9.977-.078 2.302 5.218-.538 5.218-.538s4.22-12.818 4.22-12.894c0-.076-.23-8.902-2.532-8.75-2.303.155-2.926 2.832-3.07 2.995zM306.38 255.31c0-1.654-1.34-2.995-2.995-2.995-1.654 0-2.995 1.34-2.995 2.995 0 1.654 1.34 2.995 2.995 2.995s2.995-1.34 2.995-2.995zM309.21 246.16c0-1.746-1.34-3.162-2.995-3.162-1.654 0-2.995 1.416-2.995 3.162s1.34 3.162 2.995 3.162c1.654 0 2.995-1.416 2.995-3.162zM284.61 202.63c-1.123-2.518-3.463-3.92-5.225-3.135-1.762.786-2.28 3.465-1.157 5.982s3.462 3.922 5.225 3.135c1.762-.786 2.28-3.464 1.157-5.982zM292.04 229.75c-1.543-3.263-4.757-5.082-7.178-4.063s-3.132 4.49-1.59 7.754 4.757 5.083 7.178 4.064 3.133-4.49 1.59-7.754zM299.99 249.63c.5-4.076-1.19-7.82-3.772-8.363-2.584-.542-5.083 2.322-5.583 6.397-.5 4.076 1.19 7.82 3.772 8.363 2.584.543 5.083-2.32 5.583-6.397zM287.23 252.54c1.598-3.783 1-7.846-1.336-9.076s-5.524.84-7.122 4.622c-1.598 3.783-1 7.846 1.336 9.076s5.524-.84 7.122-4.622z"/><path d="M281.42 243.99c0-1.93-1.49-3.494-3.328-3.494-1.838 0-3.328 1.564-3.328 3.494s1.49 3.494 3.328 3.494c1.838 0 3.328-1.564 3.328-3.494zM278.76 235.34c0-1.746-1.34-3.162-2.995-3.162s-2.995 1.416-2.995 3.162 1.34 3.162 2.995 3.162c1.654 0 2.995-1.416 2.995-3.162zM281.58 218.7c0-2.94-1.304-5.325-2.912-5.325-1.608 0-2.912 2.384-2.912 5.325s1.304 5.325 2.912 5.325 2.912-2.384 2.912-5.325zM290.54 217.42c.388-2.915-.59-5.45-2.184-5.662-1.594-.213-3.2 1.98-3.59 4.894-.387 2.915.59 5.45 2.185 5.662 1.595.212 3.202-1.98 3.59-4.894zM354.39 90.042c1.187-4.128-.037-8.277-2.734-9.267-2.697-.99-5.845 1.554-7.032 5.682-1.187 4.13.037 8.278 2.734 9.268 2.697.99 5.845-1.555 7.032-5.683zM342.27 108.42c3.557-3.027 5.076-7.212 3.394-9.35-1.683-2.135-5.93-1.413-9.486 1.614s-5.076 7.213-3.394 9.35 5.93 1.413 9.486-1.614zM335.19 98.217c3.517-2.599 5.02-6.192 3.356-8.025-1.664-1.834-5.863-1.214-9.38 1.384-3.518 2.6-5.02 6.192-3.356 8.026 1.663 1.833 5.863 1.214 9.38-1.385zM362.46 80.28c2.372-1.812 3.385-4.32 2.263-5.6s-3.954-.846-6.326.967c-2.372 1.814-3.385 4.32-2.263 5.6s3.954.847 6.326-.966z"/><path d="M348.25 97.66c1.622-2.507 1.73-5.21.243-6.036-1.487-.826-4.008.535-5.63 3.042s-1.73 5.208-.243 6.035 4.008-.535 5.63-3.04zM368.76 86.92c2.55-2.15 3.544-4.997 2.22-6.36s-4.467-.725-7.017 1.425c-2.55 2.15-3.545 4.997-2.22 6.36s4.466.725 7.017-1.425zM331.69 111.97c2.384-.12 4.184-1.307 4.02-2.653-.164-1.346-2.23-2.34-4.614-2.222-2.385.12-4.185 1.307-4.02 2.653.164 1.346 2.23 2.34 4.614 2.222zM376.57 73.606c1.622-2.506 1.73-5.208.243-6.035-1.487-.825-4.008.536-5.63 3.043s-1.73 5.208-.243 6.035c1.487.826 4.008-.536 5.63-3.042z"/></g><g fill="#ffd200" stroke="#ef8a10" stroke-width="1.935"><path d="M553.24 88.375s12.574-5.8 16.17-16.603c3.593-10.802-10.883-10.906-12.796-7.473-1.912 3.433 1.63 11.982.72 14.242-.914 2.26-6.03 7.716-4.094 9.833z"/><path stroke-width="2.419" d="M441.8 92.316s8.163-11.186 6.047-22.372c-2.117-11.186-14.814-4.233-14.814-.302s7.255 9.674 7.558 12.093c.303 2.418-1.51 9.674 1.21 10.58zM419.73 98.967s8.163-11.186 6.046-22.372-14.814-4.233-14.814-.302 7.256 9.674 7.56 12.093c.3 2.418-1.513 9.674 1.208 10.58zM395.24 106.53s8.163-11.186 6.047-22.372c-2.117-11.186-14.814-4.233-14.814-.302s7.255 9.674 7.558 12.093c.303 2.417-1.51 9.673 1.21 10.58zM378.01 123.76s8.163-11.186 6.046-22.372-14.814-4.233-14.814-.302 7.256 9.674 7.56 12.093c.3 2.417-1.513 9.673 1.208 10.58zM359.87 140.39s8.163-11.186 6.046-22.372-14.814-4.233-14.814-.302 7.256 9.674 7.56 12.093c.3 2.417-1.513 9.673 1.208 10.58z"/><path d="M401.57 43.52s-10.87 8.578-11.84 19.92c-.97 11.344 13.13 8.062 14.187 4.276 1.057-3.785-4.387-11.27-4.028-13.68.36-2.41 4.057-8.91 1.68-10.517zM437.85 32.333s-10.87 8.58-11.84 19.922c-.97 11.343 13.13 8.06 14.187 4.275 1.057-3.786-4.387-11.27-4.028-13.68.36-2.41 4.057-8.91 1.68-10.517zM302.66 130.27s2.296 13.656 11.776 19.96 13.38-7.638 10.57-10.385c-2.812-2.747-11.992-1.57-13.933-3.045-1.94-1.474-5.863-7.843-8.414-6.53zM284.54 176.64s.112 13.847 8.48 21.568c8.365 7.72 14.417-5.43 12.075-8.586-2.343-3.157-11.592-3.445-13.277-5.206-1.684-1.762-4.552-8.67-7.278-7.776zM326.34 228.44s-4.942-12.936-15.48-17.248c-10.535-4.312-11.612 10.125-8.315 12.264 3.298 2.14 12.065-.823 14.26.24 2.193 1.063 7.293 6.533 9.535 4.744zM317.66 206.05s8.38-11.025 6.48-22.25-14.728-4.52-14.804-.59c-.076 3.93 7.066 9.813 7.32 12.237.256 2.424-1.698 9.643 1.004 10.603zM578.94 99.56s12.574-5.8 16.17-16.602c3.593-10.802-10.883-10.906-12.796-7.473-1.912 3.434 1.63 11.983.72 14.243-.914 2.26-6.03 7.716-4.094 9.833zM616.97 118.53s7.396-11.707 4.537-22.726-15.064-3.233-14.8.69c.262 3.92 7.885 9.167 8.35 11.56.462 2.393-.863 9.754 1.913 10.477zM720.74 226.27s-4.96-12.93-15.502-17.226c-10.542-4.298-11.6 10.14-8.3 12.275 3.302 2.133 12.065-.84 14.26.22 2.195 1.06 7.303 6.523 9.542 4.73zM670 234.3s.288-13.845 8.75-21.46c8.465-7.613 14.35 5.613 11.967 8.74-2.382 3.125-11.635 3.296-13.342 5.037-1.706 1.74-4.66 8.61-7.375 7.683zM661.83 87.484s-12.945-4.917-23.175.08c-10.23 4.996-.17 15.405 3.622 14.366 3.79-1.038 7.414-9.553 9.667-10.485 2.253-.93 9.73-1.097 9.886-3.962zM632.21 62.693s-12.945-4.917-23.175.08c-10.23 4.996-.17 15.405 3.622 14.366 3.79-1.04 7.414-9.554 9.667-10.486 2.253-.93 9.73-1.097 9.886-3.962zM588.02 39.053s-10.975 8.445-12.084 19.775c-1.11 11.33 13.03 8.22 14.133 4.45 1.102-3.774-4.25-11.323-3.86-13.73.388-2.407 4.167-8.86 1.81-10.495zM559.27 32.13s-5.005 12.913-.077 23.176 15.404.273 14.39-3.525c-1.012-3.797-9.503-7.477-10.418-9.736-.916-2.26-1.032-9.737-3.895-9.912zM477.66 81.887s8.952-10.565 7.65-21.875c-1.3-11.31-14.467-5.295-14.752-1.375-.285 3.92 6.536 10.174 6.662 12.61.126 2.434-2.21 9.54.44 10.64z"/></g><g fill="#de2010" stroke="#000" stroke-width="2.383"><path d="M701.62 233.11c-.502-4.05-2.454-7.607-5.117-9.332-2.663-1.724-5.633-1.353-7.79.974s-3.172 6.256-2.663 10.304c.502 4.05 2.454 7.607 5.117 9.332 2.663 1.724 5.634 1.353 7.79-.974 2.157-2.327 3.172-6.256 2.663-10.304z"/><path d="M699.95 212.66c-.502-4.05-2.454-7.607-5.117-9.332-2.663-1.724-5.633-1.353-7.79.974s-3.172 6.256-2.663 10.304c.502 4.05 2.454 7.607 5.117 9.332 2.663 1.724 5.634 1.353 7.79-.974 2.157-2.327 3.172-6.256 2.663-10.304z"/><path d="M695.8 190.82c-.856-3.99-3.113-7.362-5.917-8.846s-5.73-.853-7.675 1.655c-1.944 2.506-2.61 6.51-1.746 10.497.856 3.99 3.112 7.362 5.917 8.846s5.73.853 7.673-1.655c1.944-2.508 2.61-6.51 1.747-10.498z"/><path d="M688.23 168c-1.845-3.64-4.887-6.325-7.977-7.045-3.09-.72-5.758.636-7 3.556-1.24 2.922-.863 6.962.988 10.598 1.846 3.64 4.888 6.325 7.978 7.045 3.09.72 5.76-.636 7-3.556 1.24-2.92.863-6.96-.988-10.597z"/><path d="M680.14 149.69c-1.845-3.64-4.887-6.325-7.977-7.045-3.09-.72-5.758.636-7 3.556-1.24 2.922-.863 6.962.988 10.598 1.846 3.64 4.888 6.325 7.978 7.045 3.09.72 5.76-.636 7-3.556 1.24-2.92.863-6.96-.988-10.597z"/><path d="M668.64 131.28c-2.147-3.47-5.405-5.89-8.545-6.344s-5.684 1.12-6.672 4.136c-.99 3.015-.272 7.01 1.88 10.475 2.147 3.47 5.405 5.89 8.545 6.344 3.14.457 5.684-1.12 6.673-4.135.99-3.015.273-7.01-1.88-10.475z"/><path d="M655.85 113.54c-2.472-3.246-5.95-5.34-9.118-5.489-3.17-.148-5.55 1.667-6.242 4.764-.692 3.096.408 7.002 2.885 10.244 2.472 3.246 5.95 5.338 9.118 5.488 3.17.15 5.55-1.666 6.242-4.762.692-3.096-.407-7.002-2.885-10.244z"/><path d="M640.59 96.996c-2.916-2.854-6.66-4.42-9.817-4.11-3.158.312-5.25 2.454-5.486 5.618-.236 3.164 1.418 6.87 4.34 9.717 2.916 2.855 6.66 4.42 9.817 4.11 3.157-.31 5.25-2.452 5.485-5.616.236-3.164-1.42-6.87-4.34-9.718z"/><path d="M623.41 81.776c-3.167-2.573-7.038-3.79-10.154-3.188-3.115.6-5 2.925-4.946 6.097s2.044 6.71 5.215 9.277c3.167 2.573 7.038 3.79 10.154 3.188 3.115-.6 5-2.925 4.945-6.097s-2.044-6.71-5.215-9.277z"/><path d="M605.21 69.628c-3.55-2.012-7.57-2.568-10.542-1.458-2.973 1.11-4.446 3.714-3.865 6.833s3.13 6.277 6.683 8.283c3.55 2.012 7.57 2.568 10.542 1.458 2.972-1.11 4.446-3.714 3.865-6.833s-3.13-6.276-6.683-8.282z"/><path d="M584.84 58.844c-3.718-1.68-7.772-1.868-10.63-.493-2.86 1.376-4.09 4.105-3.228 7.158.863 3.053 3.688 5.966 7.41 7.64 3.717 1.68 7.77 1.868 10.63.493 2.86-1.374 4.09-4.103 3.227-7.156-.864-3.053-3.69-5.966-7.41-7.64z"/><path d="M564.86 50.8c-3.822-1.428-7.88-1.344-10.64.22-2.76 1.563-3.805 4.37-2.74 7.357s4.08 5.706 7.905 7.126c3.822 1.428 7.88 1.343 10.64-.22 2.76-1.564 3.805-4.37 2.74-7.358s-4.08-5.705-7.905-7.126z"/><path d="M544.56 44.43c-3.92-1.131-7.96-.738-10.592 1.032-2.633 1.77-3.46 4.647-2.17 7.545 1.29 2.9 4.503 5.378 8.425 6.502 3.92 1.13 7.96.737 10.592-1.033 2.633-1.77 3.46-4.646 2.17-7.545-1.29-2.898-4.503-5.377-8.425-6.502z"/><path d="M522.21 40.62c-4.048-.514-7.978.497-10.307 2.65-2.33 2.155-2.704 5.125-.982 7.79 1.722 2.665 5.278 4.62 9.327 5.128 4.047.514 7.977-.497 10.307-2.652 2.33-2.154 2.703-5.124.982-7.79-1.722-2.664-5.277-4.62-9.326-5.126z"/><path d="M500.15 39.375c-4.077-.167-7.906 1.175-10.043 3.52-2.137 2.345-2.257 5.336-.315 7.844 1.942 2.508 5.652 4.153 9.73 4.313 4.076.168 7.905-1.175 10.042-3.52 2.137-2.344 2.257-5.335.315-7.844-1.944-2.51-5.653-4.155-9.73-4.315z"/><path d="M479.94 40.09c-4.077-.168-7.906 1.174-10.043 3.52-2.137 2.344-2.257 5.335-.315 7.843 1.942 2.51 5.652 4.154 9.73 4.314 4.076.168 7.905-1.175 10.042-3.52 2.137-2.344 2.257-5.335.315-7.844-1.944-2.51-5.653-4.154-9.73-4.314z"/><path d="M456.25 42.895c-3.978.906-7.323 3.204-8.772 6.026-1.45 2.824-.782 5.742 1.75 7.655s6.542 2.53 10.52 1.616c3.977-.904 7.322-3.202 8.77-6.025 1.45-2.822.782-5.74-1.75-7.653s-6.54-2.53-10.518-1.617z"/><path d="M434.7 48.296c-3.89 1.23-7.034 3.797-8.245 6.73s-.306 5.785 2.375 7.482 6.728 1.98 10.616.744c3.89-1.23 7.034-3.797 8.245-6.73s.307-5.785-2.374-7.482-6.728-1.98-10.616-.744z"/><path d="M415.04 56.715c-3.716 1.685-6.53 4.607-7.385 7.663-.853 3.056.386 5.78 3.25 7.147 2.863 1.366 6.916 1.166 10.63-.526 3.714-1.686 6.53-4.608 7.383-7.664s-.385-5.78-3.25-7.147c-2.863-1.367-6.915-1.167-10.628.525z"/><path d="M395.43 66.766c-3.56 1.996-6.114 5.148-6.704 8.265-.59 3.12.877 5.728 3.847 6.845s6.99.57 10.546-1.43c3.558-1.997 6.114-5.15 6.703-8.266.59-3.12-.877-5.728-3.847-6.845s-6.99-.57-10.546 1.43z"/><path d="M376.88 79.35c-3.32 2.37-5.52 5.78-5.766 8.944-.247 3.163 1.494 5.598 4.568 6.385 3.073.787 7.01-.193 10.328-2.57 3.32-2.37 5.52-5.78 5.766-8.945.247-3.163-1.494-5.597-4.568-6.385-3.074-.787-7.01.192-10.328 2.57z"/><path d="M359.71 92.358c-3.108 2.643-5.01 6.228-4.99 9.4s1.964 5.452 5.093 5.977c3.13.524 6.97-.785 10.073-3.434 3.108-2.642 5.01-6.227 4.99-9.4-.023-3.172-1.964-5.45-5.093-5.975-3.13-.525-6.97.784-10.073 3.433z"/><path d="M344.56 108.19c-2.91 2.86-4.55 6.57-4.302 9.734.25 3.163 2.35 5.297 5.508 5.595 3.158.298 6.895-1.283 9.8-4.147 2.91-2.86 4.55-6.572 4.302-9.735-.248-3.163-2.348-5.296-5.507-5.595-3.158-.3-6.895 1.282-9.8 4.147z"/><path d="M331.51 125.79c-2.66 3.093-3.984 6.93-3.472 10.06.513 3.13 2.784 5.08 5.956 5.115s6.765-1.855 9.42-4.953c2.66-3.093 3.985-6.93 3.472-10.06-.513-3.13-2.784-5.08-5.956-5.115s-6.764 1.855-9.42 4.953z"/><path d="M319.58 143.81c-2.316 3.36-3.223 7.314-2.38 10.373.845 3.06 3.31 4.755 6.47 4.45 3.157-.305 6.526-2.565 8.836-5.93 2.316-3.358 3.223-7.313 2.38-10.372-.844-3.057-3.31-4.754-6.468-4.45-3.158.306-6.528 2.567-8.838 5.93z"/><path d="M309.64 164.24c-1.704 3.707-1.918 7.76-.562 10.628 1.357 2.868 4.077 4.116 7.136 3.273 3.06-.842 5.99-3.648 7.688-7.358 1.705-3.707 1.918-7.76.562-10.628-1.357-2.868-4.077-4.116-7.136-3.273-3.06.844-5.99 3.65-7.688 7.36z"/><path d="M301.77 185.59c-1.36 3.846-1.207 7.9.404 10.635 1.61 2.733 4.434 3.73 7.403 2.613s5.635-4.177 6.99-8.026c1.36-3.846 1.207-7.9-.404-10.635-1.61-2.733-4.434-3.73-7.404-2.613s-5.635 4.177-6.99 8.026z"/><path stroke-width="2.133" d="M294.94 226.01c-.38 3.257.76 6.378 2.99 8.188s5.21 2.03 7.817.58c2.607-1.45 4.443-4.35 4.817-7.606.38-3.257-.76-6.38-2.99-8.188s-5.21-2.03-7.817-.58c-2.607 1.448-4.444 4.35-4.817 7.606z"/><path d="M296.76 207.14c-.91 3.977-.29 7.988 1.623 10.518 1.914 2.53 4.833 3.196 7.655 1.745 2.82-1.45 5.117-4.797 6.02-8.776.91-3.977.292-7.987-1.623-10.518-1.914-2.53-4.832-3.196-7.654-1.746-2.82 1.45-5.116 4.797-6.02 8.776z"/></g><g fill="#ffe300"><path d="M685.33 197.47c2.485-2.66 4.798-3.413 7.724-2.443-1.032-7.02-3.253-9.4-5.96-8.555-2.705.845-3.93 4.453-1.764 10.998zM689.13 218.66c2.68-2.466 5.042-3.042 7.886-1.854-.5-7.077-2.535-9.62-5.297-8.98-2.763.64-4.256 4.145-2.59 10.834zM680.14 178.14c1.728-3.205 3.774-4.52 6.85-4.324-2.78-6.527-5.533-8.267-7.936-6.762-2.402 1.505-2.67 5.306 1.086 11.086zM670.71 158.86c1.728-3.205 3.774-4.52 6.85-4.324-2.78-6.527-5.533-8.266-7.936-6.762-2.402 1.505-2.67 5.306 1.086 11.086zM648.1 123.54c1.19-3.44 2.998-5.067 6.066-5.37-3.793-5.994-6.79-7.268-8.92-5.397s-1.782 5.666 2.854 10.767zM633.32 108.15c1.06-3.483 2.805-5.177 5.86-5.595-4.018-5.847-7.06-7.007-9.118-5.057-2.057 1.95-1.568 5.73 3.258 10.652zM602.26 81.935c-.064-3.64 1.074-5.79 3.85-7.127-5.622-4.326-8.874-4.492-10.23-2.003-1.356 2.49.273 5.933 6.38 9.13zM618.42 94.057c.567-3.597 2.06-5.516 5.027-6.353-4.79-5.234-7.963-5.96-9.73-3.744-1.767 2.216-.758 5.89 4.703 10.097zM583.81 71.756c-.44-3.614.47-5.87 3.095-7.486-6.04-3.723-9.29-3.553-10.384-.937-1.09 2.615.885 5.873 7.29 8.423zM564.96 63.528c-.952-3.514-.374-5.876 1.992-7.852-6.51-2.82-9.704-2.187-10.41.558-.708 2.745 1.714 5.687 8.418 7.294zM544.65 57.235c-1.246-3.42-.87-5.824 1.32-7.993-6.725-2.26-9.854-1.357-10.326 1.438-.472 2.795 2.19 5.52 9.006 6.555zM524.7 53.373c-1.49-3.322-1.29-5.745.74-8.067-6.873-1.767-9.928-.64-10.196 2.18-.27 2.823 2.584 5.35 9.456 5.887zM503.57 51.753c-1.827-3.15-1.878-5.58-.102-8.1-7.017-1.045-9.94.39-9.914 3.226.026 2.833 3.125 5.05 10.016 4.873zM462.21 54.87c-2.532-2.617-3.167-4.964-2.052-7.838-7.062.678-9.552 2.777-8.843 5.52.708 2.746 4.25 4.15 10.895 2.317zM482.57 52.19c-2.155-2.936-2.467-5.347-.972-8.043-7.09-.285-9.84 1.458-9.51 4.273.33 2.815 3.65 4.686 10.482 3.77zM442.23 59.185c-2.88-2.226-3.846-4.458-3.154-7.462-6.892 1.684-9.055 4.118-7.96 6.732 1.094 2.615 4.8 3.497 11.114.73zM403.98 76.772c-3.252-1.637-4.624-3.645-4.516-6.725-6.446 2.963-8.106 5.764-6.535 8.123 1.57 2.36 5.378 2.52 11.05-1.398zM422.42 67.35c-3.03-2.02-4.147-4.18-3.666-7.224-6.758 2.16-8.746 4.737-7.473 7.27 1.275 2.532 5.034 3.154 11.14-.046zM369.67 100.66c-3.522-.924-5.282-2.6-5.818-5.637-5.687 4.242-6.727 7.328-4.7 9.307 2.03 1.98 5.787 1.344 10.518-3.67zM386.04 87.263c-3.44-1.196-5.062-3.007-5.36-6.075-6 3.784-7.28 6.78-5.412 8.91 1.868 2.133 5.663 1.793 10.772-2.835zM355.13 114.99c-3.59-.6-5.497-2.11-6.307-5.084-5.277 4.74-6.033 7.908-3.832 9.695 2.2 1.788 5.885.813 10.14-4.61zM342.09 131.9c-3.63-.27-5.666-1.603-6.742-4.49-4.826 5.2-5.29 8.423-2.937 10.002 2.354 1.58 5.934.275 9.68-5.512zM331.19 149.2c-3.63.288-5.844-.716-7.35-3.405-3.972 5.878-3.938 9.134-1.37 10.335 2.567 1.2 5.905-.638 8.72-6.93zM321.61 167.67c-3.562.757-5.888.048-7.73-2.423-3.176 6.344-2.72 9.568-.018 10.425 2.702.858 5.773-1.398 7.748-8.002zM313.95 186.62c-3.397 1.31-5.806.98-8.016-1.167-2.13 6.767-1.17 9.878 1.634 10.297 2.804.418 5.478-2.296 6.382-9.13zM308.82 207.75c-3.3 1.536-5.727 1.367-8.076-.628-1.673 6.894-.506 9.934 2.32 10.164 2.825.23 5.312-2.657 5.756-9.536zM306.73 225.33c-3.108 1.646-5.53 1.84-8.07.596-.924 5.62.556 7.84 3.38 7.64 2.824-.2 4.98-2.795 4.69-8.236zM662.3 141.68c1.243-3.422 3.075-5.02 6.147-5.276-3.702-6.052-6.68-7.372-8.837-5.533-2.157 1.84-1.868 5.64 2.69 10.81zM691.45 240.12c2.68-2.466 5.042-3.042 7.886-1.854-.5-7.077-2.535-9.62-5.297-8.98-2.763.64-4.255 4.145-2.59 10.834z"/></g><path d="M646.9 149.66s7.396-11.707 4.537-22.726-15.064-3.233-14.8.69c.262 3.92 7.885 9.167 8.35 11.56.462 2.393-.863 9.754 1.913 10.477z" fill="#ffd200" stroke="#ef8a10" stroke-width="1.008"/><g fill="#217900" stroke="#000" stroke-width="2.419" stroke-linejoin="round"><path stroke-width="1.935" d="M663.67 124.92c-.086 0-8.022 7.935-6.641 17.596 1.38 9.66 7.503 21.564 6.38 31.57-1.12 10.005-2.93 16.646-2.93 16.646s9.314-10.61 9.4-20.787-6.383-23.548-6.383-31.052c0-7.504.346-14.146.173-13.973zM678.42 157.35s-6.21 4.572-5.606 15.095c.603 10.523 11.472 29.844 11.472 29.844s7.935 16.3 7.676 20.528c-.26 4.226 1.466-4.054.69-13.37-.776-9.315-12.766-29.843-12.766-29.843s-2.587-4.226-2.33-11.213c.26-6.987.95-10.954.864-11.04z"/><path d="M505.65 52.293s26.653 1.035 26.825 18.286c-.086 2.673 0 5.864-.95 13.54 5.263-2.845 8.8-10.78 8.11-15.87.085-17.51-23.807-29.5-33.985-15.957z"/><path d="M488.75 51.517s21.477-4.485 21.65 12.766c.173 17.25-6.814 20.01-6.814 20.01s16.475-3.536 16.56-21.045c.087-17.51-21.217-25.272-31.396-11.73zM697.38 249.19c.494 7.74 8.07 15.15 5.105 28.652-3.788 15.314-17.125 51.705-14.82 58.127-3.952-5.435-3.294-10.54-3.623-18.114-.33-7.574 11.032-35.732 12.02-45.283 0-8.562.824-20.254 1.318-23.382z"/><path d="M697.38 249.36s12.35 15.643 11.69 27.993c-.658 12.35-7.574 26.84-5.268 33.262-3.952-5.434-4.94-8.892-5.27-16.467-.33-7.574 6.093-15.973 4.776-24.206-1.318-8.233-6.093-20.583-5.928-20.583zM292.82 252.81c-.494 7.74-6.257 14.655-3.294 28.158 3.788 15.314 17.29 34.744 15.15 56.974 3.95-5.434 5.104-11.527 5.433-19.102.33-7.574-14.985-33.098-15.974-42.648 0-8.562-.823-20.254-1.317-23.382z"/><path d="M292.82 252.98s-12.02 15.15-11.362 27.5c.165 8.232 15.314 42.647 13.01 49.07 3.95-5.435 5.104-4.777 4.94-13.01-4.447-21.077-12.35-34.58-11.033-42.813 1.317-8.233 4.61-20.748 4.446-20.748z"/></g></g><g fill="none" stroke="#000" stroke-width="1.935"><path fill="#8c8a8c" d="M526.38 104.56s21.457 1.35 22.508 13.655c1.05 12.304-5.102 19.807-5.102 19.807s2.7 26.56-18.306 34.36c-22.508 2.702-57.77.6-57.77.6s-10.353 2.552-14.554-18.905c-4.2-21.457-5.402-36.612-5.402-36.612s2.1-12.004 17.256-12.754c15.155-.75 61.22.15 61.37-.15z"/><path stroke-linecap="round" d="M543.63 137.87s-11.554 14.405-10.353 20.257"/><path fill="#8c8a8c" d="M528.18 171.63c2.85 2.4 5.552 5.102 6.152 13.955l1.2 17.706 15.005 135.05 13.204 97.684.902 15.155s-3.15 11.103-12.004 12.003c-6.452 13.504-41.414 17.406-44.865 17.256-3.15-.15-14.255-4.803-21.007-4.202-6.753.6-18.456 5.1-23.708 4.35-5.252-.75-17.106-4.8-19.206-13.353-14.705-4.652-17.106-15.905-17.106-15.905l15.905-112.99 15.456-142.85s1.8-19.056 9.453-21.907c7.95-.75 49.065.75 60.62-1.95z"/><path d="M447.15 367.15L444 467.084M544.23 380.35l8.853 82.378"/><path fill="#fff" stroke-width="2.016" stroke-linejoin="round" d="M498.19 114.45l29.923 92.093 96.82.004-78.327 56.92 29.916 92.095-78.33-56.915-78.332 56.914 29.916-92.094-78.327-56.92 96.82-.004z"/></g></svg>