<svg xmlns="http://www.w3.org/2000/svg" width="1200" height="600"><clipPath id="a"><path d="M0 0v150h700v150H600zm600 0H300v350H0v-50z"/></clipPath><path fill="#00247d" d="M0 0h1200v600H0z"/><path d="M0 0l600 300m0-300L0 300" stroke="#fff" stroke-width="60"/><path d="M0 0l600 300m0-300L0 300" stroke="#cf142b" stroke-width="40" clip-path="url(#a)"/><path d="M300 0v350M0 150h700" stroke="#fff" stroke-width="100"/><path d="M300 0v350M0 150h700" stroke="#cf142b" stroke-width="60"/><path d="M0 300h600V0h600v600H0z" fill="#00247d"/><path fill="#fff" d="M769.466 147.526h256.88l-.307 182.787c2.136 73.48-43.663 119.076-127.932 139.634-59.834-14.86-128.837-45.596-128.94-137.55l.306-184.87z"/><path fill="#00a2bd" stroke="#000" stroke-width="1.813" d="M775.152 153.036h245.493l-.29 175.155c2.04 70.41-41.73 114.103-122.262 133.803-57.188-14.237-123.132-43.692-123.23-131.805l.292-177.152z"/><path fill="#a53d08" d="M1018.74 348.938c-8.93 67.21-60.692 96.576-120.655 112.162-53.073-14.238-110.174-36.968-121.243-111.824l241.9-.338z"/><path d="M888.365 185.664l-.342-22.075 17.455.17.17 21.904h47.745l.17 17.113-47.914.17-.384 201.816-17.026.107-.217-202.093-47.583.17.01-17.454z"/><g fill="#ff9a08" stroke="#000" stroke-width=".968"><path d="M849.714 357.267l43.703 45.338c15.112-16.61 4.63-78.696-15.247-90.13-2.382 7.35-6.434 16.166-10.74 19.008-9.475 6.457-32.692 14.006-24.932 18.84 1.77-2.45 6.4-4.765 8.577.68 2.587 8.578-9.666 9.123-9.666 9.123s-7.762-.954-9.123-8.85c-1.362-7.896 11.56-15.105 12.662-15.656 1.088-.41 17.97-4.9 20.83-19.88 3.54-14.703 7.215-12.524 7.896-12.797 22.055 2.178 36.487 41.662 37.305 69.436.817 27.773-11.3 46.153-13.478 47.378-2.178 1.226-52.553-59.768-52.553-59.768l4.764-2.723z" fill-rule="evenodd"/><path d="M881.573 315.06l.27 81.826M876.672 316.558l.27 74.338M871.362 327.314l.27 59.088M867.005 331.534l.273 48.88M862.376 333.713v41.253M857.338 336.98v32.676M852.982 339.568v25.05"/><g fill="none" stroke="#ffdf00" stroke-width="1.813" stroke-linecap="round"><path stroke-width=".968" d="M849.033 362.44l45.065 51.6"/><path d="M896.276 329.9s20.424 44.66 1.498 81.418M843.723 353.046s1.498-3.948 3.404-2.314M840.184 341.61s-8.17 7.215-3.676 11.845"/></g></g><g stroke="#000" stroke-width=".399"><path fill="#008021" d="M905.78 228.044c3.024-2.595 4.594-4.18 6.467-3.892 1.874.288 4.425.143 6.298-.433 1.88-.58 11.177-1.732 15-.434 1.298.144 3.026.866 5.69 3.1 2.67 2.235 6.564 6.128 5.266 16.942-1.296 10.813-.872 15.44-1.442 21.483-1.006 10.67-3.373 19.457-7.64 18.745 5.767 10.093 6.343 18.744 10.09 25.665 3.753 6.92 6.057 21.05 4.614 36.335-1.437 15.284-5.475 49.6 6.633 72.67-2.02 1.44-6.918 0-11.247-4.615-4.323-4.614-6.222-4.462-9.804-1.73-10.956 8.363-21.216 18.442-36.33 8.363-3.462-2.307-4.557-5.074-2.02-12.112 6.343-17.59 9.425-41.724 8.425-53.06V228.045z"/><g fill="#ffe1cf"><path d="M916.17 217.23c.792 2.45 1.223 5.623-.075 8.506-1.297 2.884-1.582 6.345.576 10.526 3.463-4.902 8.368-3.893 11.248-6.776 2.886-2.884 3.462-5.624 5.627-6.2-2.165-1.875-5.48-3.893-4.76-9.373.722-5.48 8.36-9.948 1.443-18.31-4.468-5.4-10.962-3.894-13.772-1.803-1.323.982-2.45 2.378-2.88 3.316-.437.937.108 3.07-.943 4.326-.715.864-1.59 1.724-2.595 2.45-.646.47-1.05 1.152-.36 1.947.278.317.784.385 1.34.578-.322.648-.69 1.295-1.05 1.764-.34.44-.196.86.216 1.218-.545 1.73.506 1.918-.216 3.216-.626 1.122-1.474 2.45.867 3.75.646.36 3.716 1.07 5.336.864zM888.126 245.923c-4.038 1.01-10.525-.72-15.43-.144-2.165.254-3.893-.866-3.602-3.03.285-2.162.576-5.478.14-8.506-.672-4.718 1.588-11.246 4.76-18.456 3.17-7.21 4.758-11.246 4.758-14.634 0-2.235.216-4.76 2.235-6.056 1.493-.96 1.778-1.89 2.31-2.667 1.22-1.802 2.373-2.234 2.52-1.152.087.643-.147 1.225-.723 2.09 1.298-1.082 3.5-2.344 4-2.704.507-.36 3.07-2.162 3.21-.468 1.012-.505 1.696-.47 1.95.07.27.586.106.83-.4 1.263.72-.145 1.55 1.117.108 2.234.76-.252 1.512 1.01.183 2.163-1.38 1.19-2.956 2.02-3.462 2.956-.506.937-3.93 3.57-5.298 4.145-1.373.577-1.443 1.368-1.443 3.388 0 22.205-2.664 20.4-2.664 25.738 0 1.44-.29 2.74 1.152 2.306 1.443-.432 3.53-1.08 5.696-1.08v12.543zM888.987 293.792c6.52-3.258 13.988-4.47 17.88-5.48 3.893-1.008 10.095-4.035 13.12-5.62 3.032-1.588 5.482-3.75 7.21-4.328 1.734-.576 3.67-1.77 4.76-3.892 5.62-10.958 8.65-19.752 8.65-27.395 0-5.047-1.296-10.67-6.2-6.633-4.61 3.795-9.628 11.11-10.957 16.437-2.02 8.075-3.747 9.806-4.184 11.39-.43 1.588-2.063 1.586-4.038 2.02-8.506 1.875-10.525 3.172-16.867 7.93-6.34 4.758-13.265 8.94-17.88 11.535-4.613 2.596-5.474 2.884-6.487 4.974-1.006 2.09-1.943 3.676-2.81 4.614-.867.937-1.114 2.032-.937 3.172.146.937-.29 5.262-.36 6.704-.077 1.442.284 1.803.866 1.874.576.073 1.368-.216 1.66-1.946-.292 1.73 2.087 1.153 2.233-.144-.076 1.874 2.45.793 2.595-.937 0 1.225 1.91.378 2.09-.217.43-1.44.79-3.027 1.366-4.18.842-1.675 1.74-3.843 3.392-5.048 1.874-1.37 1.007-2.883 4.9-4.83zM935.703 411.88c.437 1.586 1.228 3.39 1.513 4.47.29 1.08-.216 1.42-.5 2.02-1.513 3.17-3.14 8.227-3.393 10.957-.14 1.586-1.22 3.1-1.728 4.037-.557 1.034-.34 1.83.937 2.81.614.47 2.595-.143 2.81-1.152.722.72 2.02.433 2.595-.65.652.65 1.734.217 2.456-.864.646.433 1.582-.433 1.943-1.01 1.013.505 2.095-.107 2.127-2.09.006-.398.253-1.08.544-1.55.285-.47.392-1.37.36-2.163-.037-.793.47-2.38 1.153-3.496.683-1.12 1.873-3.1 1.367-4.976-.47-1.746-1.222-1.586-1.874-4.11-1.582-1.657-3.747-3.964-5.98-4.11-2.235-.142-3.533 1.372-4.33 1.876zM894.683 424.28c2.02 2.018 6.563 2.09 9.734-1.298-1.152-.505-3.677-1.658-4.83-2.595-1.587 1.586-3.39 3.388-4.904 3.893z"/></g><path fill="#870f00" d="M915.09 195.026c.79-5.118 4.417-4.998 6.702-4.47.936.217 3.247.433 5.405-.144 4.278-1.14 7.5.36 7.07 4.47 1.152.865 2.373 2.883 2.158 4.614-.215 1.73.145 2.45 1.734 2.667 1.58.217 4.974 2.163 2.733 4.902 2.165 1.3 3.823 4.614 2.67 6.85-1.15 2.234-4.613 2.595-6.056.576-1.582.722-4.183.866-5.766-.79-1.08 1.295-3.822 1.152-4.328 0-.5-1.155-1.354-1.772-2.373-2.093-1.16-.36-1.23-3.532.5-3.893-.217-.937-.14-2.018.29-2.523s.07-1.44-.937-2.234c-1.013-.793-1.873-3.82-.867-5.48-1.728.578-5.55-1.08-6.342-2.234-.797-1.153-1.873-1.225-2.595-.216z"/><g fill="none"><path d="M916.17 217.23c2.81-.36 3.748-2.09 5.837-1.947M910.184 209.4c.184.163.418.295.684.442.57.307 1.19.343 1.765.414M911.02 206.418c.39.135.81.333 1.183.72M917.538 195.026c-1.658-1.586 2.81-4.83 7.5-.216.874.86 3.095.865 3.747.648M924.026 197.477c2.165-.505 5.405-.505 6.342 1.946.943 2.452 2.816.865 4.33 3.75 1.512 2.883 3.892 6.127 6.195 3.892M931.74 213.698c-.65-.865-.936-2.74-.505-4.038-.867-1.01-.507-3.1 0-4.11M925.54 207.714c.075.865 1.227 2.45 3.03 2.74M937.507 214.49c-1.006-1.296-.867-2.45-.646-4.036"/><path d="M926.982 200.145c-.07 1.297.722 3.028 2.09 3.604.29.72 1.733 2.74 4.613 2.45M934.267 194.882c-1.582-1.228-3.728-2.74-6.563-3.115M916.67 236.262c-2.448 3.317-4.037 7.93-2.88 14.42 1.153 6.487 3.027 16.003-1.733 20.33M935.418 283.555c-3.317-.72-8.076-.72-10.67 1.154s-6.925 2.017-9.805.575"/><path d="M928.425 283.34c-2.886.503-4.253 2.522-4.253 7.857 0 5.335-1.152 13.12-.146 20.762M923.16 285.574c-1.874.504-3.818.576-3.457 5.623M913.43 291.34c.07-3.1 1.153-5.983 3.172-5.478M934.19 291.918c.147-6.85-1.366-8.795-3.385-8.723 2.74.072 4.608.407 5.766 11.607.868 8.362 2.615 11.323 4.615 17.88 5.19 17.013 2.595 43.254 5.19 52.482M930.228 293.936c5.475 15.86 8.36 33.45-.576 61.71 6.05 16.727 12.108 28.838 13.26 35.76M912.924 331.424c1.006-3.604-2.595-4.037.576-16.725 1.373-5.497 1.59-8.796.72-10.527M914.222 311.672c-1.298 5.624 4.184 16.15 1.443 23.79M908.886 336.904c0 4.902 1.152 11.246.867 16.15-.29 4.9 1.71 7.173 4.038 11.822 8.362 16.726 14.052 28.66 13.26 44.41-.138 2.883.868 8.94-2.157 10.668M909.1 424.208c.868.072 1.805-.36 2.887-2.956s4.545-18.167 3.1-28.837M916.817 404.527c.43 3.316.43 10.093-1.728 15.428M922.298 394.578c1.297 7.065 1.152 13.41.146 17.88M919.412 412.456c.146 2.884 1.443 10.093-.722 10.67M930.228 379.006c5.33 8.363 9.513 28.982 13.98 33.306M934.842 408.996c-.146-2.307-.29-5.48-1.59-6.92M877.24 308.067c.07-1.587-.215-3.1 1.513-5.55M874.645 309.004c.215-5.55.14-6.056 1.728-7.57M872.41 309.148c.07-3.965-.436-5.335 1.153-7.858M892.304 190.196c-.614.396-4.215 3.135-5.728 4.29M893.854 191.53c-.684.107-2.665 1.73-6.196 4.47M893.962 193.764c-1.114.504-3.24 2.56-5.19 3.93M885.095 193.368c-.538.396-1.582 1.55-2.09 1.946M935.343 435.022c-.323-.36-.323-1.623.253-3.028M937.937 434.373c-.392-.396 0-2.127.4-3.244M940.393 433.508c-.468-.216-.614-1.226.07-2.596M942.336 432.498c-.323-.108-.468-.65.108-2.234"/></g><g stroke="none"><path d="M913.97 199.567c1.043 1.37 2.126 1.225 2.316 2.108.19.884.33.946.53 1.21.204.26-.493.207-.834.066-.336-.14-1.184-.125-1.703-.118-.514.008-1.127-.6-.74-.67.378-.07.328-.19.27-.46-.056-.268.216-.693.374-.77.165-.078.05-.064-.095-.424-.153-.36-.342-1.236-.12-.94zM914.602 198.313c1.17.137 3.19.77 4.285 1.982.86.953.158.7-.28.736-.435.037-1.29-.272-1.72-.814-.424-.54-1.696-1.227-2.374-1.406-.41-.106-.797-.6.09-.497z"/></g></g></svg>