<svg xmlns="http://www.w3.org/2000/svg" xmlns:xlink="http://www.w3.org/1999/xlink" width="900" height="600"><path fill="#cf142b" d="M0 0h900v600H0z"/><path fill="#fff" d="M0 0h450v600H0z"/><path fill="#e60d2e" d="M22.222 82.828v45.457h45.455c0 7.574 7.576 15.15 15.152 15.15v45.455h45.45v-45.454c7.577 0 15.153-7.577 15.153-15.15h45.455V82.827h-45.455c0-7.574-7.576-15.15-15.152-15.15V22.222H82.83v45.454c-7.577 0-15.153 7.577-15.153 15.15H22.222z"/><path fill="#96877d" d="M25.254 85.857v39.397h45.452c0 7.574 7.576 15.15 15.152 15.15v45.454h39.392v-45.454c7.576 0 15.152-7.577 15.152-15.15h45.452V85.857h-45.452c0-7.574-7.576-15.15-15.152-15.15V25.25H85.858v45.454c-7.576 0-15.152 7.577-15.152 15.15H25.254z"/><path fill="#ccc" d="M26.77 87.373v36.364h45.452c0 7.574 7.576 15.153 15.152 15.153v45.454h36.362V138.89c7.576 0 15.152-7.58 15.152-15.153h45.452V87.373h-45.452c0-7.574-7.576-15.15-15.152-15.15V26.77H87.374v45.453c-7.576 0-15.152 7.577-15.152 15.15H26.77z"/><g id="a" fill="#d0d0d0"><path fill="#96877d" d="M84.536 71.68c2.663 2.664 1.943 7.7-1.607 11.25S74.34 87.2 71.68 84.54c-2.663-2.662-1.943-7.7 1.607-11.25s8.587-4.27 11.25-1.607z"/><path d="M71.143 79.715l1.07-1.072 4.287 2.142-2.143-4.285 1.07-1.072 4.287 8.57-8.57-4.285zM77.572 73.287l1.07-1.07 6.43 6.427L84 79.714z"/></g><use xlink:href="#a" transform="rotate(90 105.6 105.6)"/><use xlink:href="#a" transform="rotate(180 105.6 105.6)"/><use xlink:href="#a" transform="rotate(270 105.6 105.6)"/><g fill="none" stroke="#96877d" stroke-width=".514"><circle cx="105.555" cy="105.557" r="31.822"/><circle cx="105.555" cy="105.557" r="24.245"/></g><circle cx="93.434" cy="131.31" r="1.515"/><circle cx="117.675" cy="131.31" r="1.515"/><path d="M104.55 131.31v1.58h-2.02c-2.02 0-2.02 1.58 0 1.58h2.02v1.58c.007 1.636 1.763 1.835 1.892.137l.128-1.708h2.02c2.02 0 2.02-1.58 0-1.58h-2.02v-1.58c0-1.58-2.02-1.58-2.02 0zM75.954 113.4l2.084-.497-.23-.965c-.053-.222-.14-.372-.263-.452-.122-.08-.332-.102-.63-.067l-.034-.146 1.795-.427.035.144c-.206.053-.35.116-.435.19-.084.073-.14.16-.166.262-.028.102-.02.24.022.418l.23.966 1.665-.397c.27-.065.442-.124.52-.18.06-.04.102-.108.13-.203.034-.13.037-.257.007-.382l-.046-.19.145-.036.542 2.274-.144.035-.044-.19c-.052-.218-.154-.362-.305-.43-.098-.043-.306-.026-.624.05l-3.424.816c-.27.064-.442.123-.52.177-.06.042-.102.11-.13.2-.036.128-.038.255-.008.383l.045.187-.146.035-.94-3.944 1.153-.33.032.138c-.232.127-.395.25-.49.366-.094.118-.152.25-.173.393-.02.145.002.355.068.63l.28 1.17zm-1.342-9.402c.04-.706.342-1.303.908-1.79.565-.488 1.25-.71 2.052-.664.826.047 1.498.346 2.014.9.516.55.754 1.198.712 1.94-.042.748-.344 1.362-.905 1.842-.56.48-1.264.695-2.11.647-.863-.048-1.552-.382-2.064-1-.446-.54-.648-1.164-.608-1.875zm.288.093c-.027.488.132.888.476 1.203.43.392 1.077.612 1.943.66.887.05 1.58-.1 2.082-.454.38-.272.583-.647.61-1.125.03-.51-.146-.944-.526-1.3-.38-.355-1-.557-1.858-.606-.93-.053-1.635.09-2.113.432-.38.273-.585.67-.615 1.19zm7.894-9.95l-.517 1.36-3.038.817c-.044.13-.08.234-.112.314-.012.034-.026.07-.042.106-.015.037-.032.075-.05.114l1.48.563c.32.122.533.163.637.122.147-.053.256-.175.33-.365l.074-.2.14.054-.83 2.182-.14-.053.072-.19c.08-.217.07-.397-.035-.543-.058-.082-.232-.18-.522-.29l-3.29-1.252c-.32-.122-.533-.163-.637-.122-.148.056-.258.18-.33.373l-.074.19-.14-.053.707-1.855c.205-.54.396-.925.573-1.15.176-.228.404-.39.684-.49s.566-.09.86.02c.312.12.545.325.698.617.152.29.195.67.127 1.133l1.86-.495c.428-.113.73-.235.906-.365.176-.13.332-.33.467-.596l.14.053zM78.8 96.76c.018-.048.034-.09.05-.123l.034-.086c.184-.485.22-.89.102-1.218-.116-.326-.337-.552-.663-.676-.318-.12-.614-.12-.89.004-.274.123-.474.35-.598.677-.056.145-.107.35-.154.616l2.12.807zm11.596-18.053l1.053 1.367-.12.077c-.35-.282-.68-.453-.988-.513-.442-.087-.877.008-1.304.285-.583.377-.877.894-.882 1.552-.002.554.17 1.1.52 1.637.282.437.624.78 1.026 1.03.4.25.793.372 1.175.362.382-.01.716-.107 1.004-.293.17-.11.32-.238.45-.382.128-.145.24-.306.332-.484l-.857-1.322c-.148-.23-.263-.37-.344-.417-.08-.048-.168-.067-.265-.057-.097.01-.238.075-.423.195l-.083-.13 1.77-1.146.083.13-.084.053c-.176.114-.26.25-.248.41.01.112.092.29.25.536l.908 1.4c-.17.306-.358.574-.567.802-.21.23-.47.443-.777.642-.883.572-1.738.724-2.564.454-.62-.202-1.11-.58-1.47-1.136-.26-.403-.412-.85-.458-1.345-.054-.587.042-1.128.29-1.624.208-.413.54-.767.997-1.063.167-.108.327-.192.48-.253.154-.062.385-.127.695-.196.156-.035.256-.066.3-.093.04-.028.065-.07.07-.13.005-.06-.027-.148-.094-.267l.126-.08zm8.873.614l-2.04.544-.136.926c-.034.228-.037.392-.01.493.02.08.078.14.17.18s.27.037.527-.012l.04.145-1.66.44-.037-.143c.21-.097.34-.186.387-.265.1-.16.178-.45.237-.874l.7-4.827.136-.036 2.998 3.893c.243.313.437.506.586.58.148.072.33.086.55.042l.038.144-2.078.55-.038-.143c.207-.066.34-.138.397-.218.058-.08.076-.162.053-.248-.03-.113-.13-.28-.3-.498l-.52-.673zm-.186-.257l-1.46-1.89-.35 2.37 1.81-.48zm9.62-.028l.132.033-.523 1.46-4.216-.165.006-.148.204.008c.23.01.398-.06.503-.206.06-.083.095-.28.108-.59l.136-3.515c.013-.34-.016-.554-.087-.642-.1-.122-.253-.187-.46-.195l-.204-.008.006-.15 2.465.097-.006.15c-.29-.015-.494.004-.613.055-.12.05-.2.12-.247.203-.046.084-.076.288-.088.612l-.133 3.42c-.01.223.006.377.045.46.03.06.078.102.144.132.065.03.273.05.624.064l.397.017c.42.016.713-.003.884-.058.17-.056.33-.16.475-.31.144-.152.293-.394.445-.725zm7.258 1.942l.117.068-.908 1.258-4.006-1.325.047-.14.194.063c.22.073.4.054.54-.057.08-.064.17-.244.267-.54l1.104-3.337c.107-.323.138-.537.094-.642-.062-.145-.19-.25-.387-.314l-.195-.065.047-.14 2.343.774-.047.14c-.274-.093-.475-.132-.603-.115-.13.017-.226.06-.294.127-.068.068-.152.256-.254.564l-1.075 3.25c-.07.212-.098.364-.083.456.013.063.047.118.102.165.055.046.25.125.583.235l.376.125c.397.13.685.194.865.188.18-.005.36-.06.543-.166.18-.106.39-.297.63-.573zm5.85 3.097l-1.723-1.22-.8.49c-.196.12-.325.222-.385.307-.048.07-.058.152-.03.25.028.096.144.228.347.395l-.086.12-1.4-.99.086-.122c.21.1.36.142.45.128.187-.025.46-.15.824-.376l4.156-2.554.115.082-1.07 4.796c-.086.385-.11.658-.07.82.038.16.144.31.318.45l-.086.12-1.756-1.242.086-.12c.184.115.324.17.422.164.098-.006.173-.045.224-.117.068-.096.132-.28.19-.55l.185-.83zm.08-.308l.517-2.33-2.048 1.248 1.53 1.082zm6.462 1.19l.88 1.19-1.3 5.11 2.525-1.872c.268-.2.414-.354.436-.464.03-.146-.017-.306-.144-.478l-.113-.152.12-.088 1.128 1.524-.12.088-.114-.155c-.137-.186-.29-.276-.46-.27-.104.004-.28.096-.524.278l-3.69 2.736-.087-.117 1.387-5.5-2.696 2c-.27.198-.416.352-.44.46-.03.148.02.308.145.478l.114.155-.12.088-1.13-1.524.12-.088.113.15c.14.19.293.28.462.274.103-.004.278-.096.523-.278l3.045-2.257c.054-.237.08-.406.08-.507-.002-.1-.03-.23-.082-.387-.027-.075-.088-.177-.182-.304l.12-.09zm6.87 12.663l-1.184.482-.05-.144c.2-.103.34-.194.414-.274.118-.13.19-.273.213-.427.023-.155-.002-.34-.077-.55l-.257-.724-3.925 1.388c-.315.113-.5.217-.554.313-.073.133-.073.3-.002.5l.062.177-.14.05-.77-2.178.14-.05.064.182c.077.217.197.348.36.392.1.027.295-.01.583-.112l3.926-1.39-.218-.616c-.085-.24-.163-.405-.234-.493-.095-.114-.227-.194-.396-.24-.17-.045-.373-.035-.612.03l-.05-.144 1.225-.365 1.485 4.194zm-4.313 9.665l-.074-1.453 2.448-1.974c-.012-.136-.02-.247-.025-.333-.003-.035-.004-.072-.005-.112v-.125l-1.582.082c-.342.018-.553.066-.632.146-.112.107-.163.263-.152.466l.01.213-.147.008-.12-2.332.148-.007.01.205c.013.23.096.39.25.482.087.052.285.07.595.054l3.516-.183c.34-.017.552-.066.63-.145.114-.11.164-.268.154-.475l-.01-.204.148-.008.103 1.982c.03.578.01 1.007-.06 1.285-.07.28-.214.52-.43.723-.216.203-.48.312-.793.33-.335.016-.63-.078-.888-.283-.258-.205-.45-.534-.575-.986l-1.504 1.204c-.345.275-.57.508-.68.7s-.17.434-.187.733l-.15.008zm2.597-4.01c.003.05.004.095.005.132 0 .038.002.07.003.093.027.52.16.904.4 1.156.237.252.53.37.878.35.34-.017.61-.138.812-.36.202-.225.293-.512.275-.863-.008-.155-.044-.364-.11-.626l-2.262.118zm1.495 11.21l-.483 1.838-.145-.037.027-.1c.018-.07.014-.175-.012-.32s-.08-.286-.164-.42c-.083-.137-.23-.315-.44-.537l-1.67-1.797-1.32-.347c-.325-.085-.537-.102-.636-.05-.135.07-.23.21-.286.423l-.045.17-.144-.037.587-2.24.144.038-.05.188c-.058.223-.032.4.08.527.067.08.248.157.544.235l1.248.327 2.588-.867c.304-.103.496-.176.577-.22.08-.044.192-.15.333-.318.04-.045.072-.117.098-.215l.143.038-.59 2.254-.145-.038.03-.117c.033-.122.034-.24.004-.36-.03-.116-.103-.19-.217-.22-.094-.024-.283.01-.568.105l-1.988.654 1.354 1.46c.203.22.364.345.483.377.074.02.143.018.21-.004.067-.023.126-.065.177-.127.05-.062.094-.163.13-.303l.145.038z"/><g fill="#96877d" stroke="#000" stroke-width=".203"><path d="M122.85 110.19c.532-.135 1.41-.026 1.41-.026s.076.365-.155.487c.257.15 1.18.104 1.18.104s-.36.275-.54.384c.334.032.744.46.744.46s-.77.13-1.103-.05c.205.41.18.77.18.77s-1.243-.31-1.69-1.13M120.77 109.49c-.3.743-2.51-.64-2.51-.64s.973 1.543 2.433 1.716M93.18 123.66h25.878l1.998-1.589-3.33-1.792-5.125-1.742-2.048-1.127-3.792.203-3.177 1.69-4.356.514-1.025 1.178-3.228.257-5.073-.103 8.456 1.332-6.97-.36 1.795 1.538z"/><path d="M107.12 116.23c-3.24-1.742-4.19 2.55-5.585 3.587 1.883.32 3.305-1.448 4.92-2.306 1.223 3.334 3.15 1.128 3.15 1.128s2.01 3.19 4.69 1.743c.73.55 1.536.052 1.536.052s.975.18 1.18-.257c.512.18 1.076-.46 1.076-.46s1.114.012 1.332-.564c1.653.295 3.843-3.38 3.843-3.38l.667-1.282.974-.205s.065-.64-.46-.615c-.013-.385-.346-.59-.82-.513.09-.23-.256-.41-.256-.41-.923.23-.974 2.563-.974 2.563s-1.614 1.23-2.203 1.537c-.026-1.333-2.255-3.14-1.794-3.997.46-.858 1.91 1.32 3.177.922 1.268-.397 1.89-2.047 1.947-3.33-.358-.872-1.23-2.306-1.23-2.306l-.82-.052-.717-1.742s-1.51.987-1.486 1.845c.026.858 1.59 1.588 1.59 1.588s-.902.564-1.743.308c-.076.872 1.025.705 1.435.718.205.628.82.974.82.974s.385.96-.615.87c-1-.09-2.178-2.39-3.587-1.33-1.498 1.126.667 3.176.667 3.176s-1.32.69-2.1 2.46c-3.19-2.69-5.06-1.436-8.61-.718z"/><path d="M102.46 111.67c1.332 1.255.403 3.342.922 3.74.55.423 1.333-.204 1.333-.204 1.396.37 3.894-.41 3.894-.41 1.098.615.664-.293 1.33-.256.59 1.51 2.563 1.23 2.563 1.23s-1.806-1.845-2.92-2.358c-.86.513-3.357.59-3.792.513-.485-.086-.18-.68-.41-1.025.92-.894.193-3.113-.307-3.946-2.036-1.356-4.468.968-2.613 2.716zM93.6 107.92c-1.677.453-4.584-2.165-5.943-1.16s-.725 3.48.18 4.71c.886 1.205-1.294 1.64-1.883 2.356-.554.673.18 1.45.18 1.45l.617.398-.108.906.326 1.087s.3.262.4-.073c.28.28.03 1.093.724 1.196-.25-.52.18-1.957.18-1.957s1.215.09 1.523-.434c.307-.527-.29-1.668-.29-1.668h.362c-.408-.28-.544-1.123-.544-1.123s1.685-.536 1.667-1.813c-.018-1.277-2.735-2.636-1.74-3.297 1.106-.734 3.026 1.902 4.675.688 1.632-1.2.58-.036.58-.036s.746-1.678-.906-1.232zM102.25 89.97c-2.242-.934-6.822-.992-9.377-2.254-1.12.07-1.62.955-1.666 1.307-1.172-.058-1.966 1.787-1.793 2.152-2.133-.864-3.126 2.51-2.434 3.203-1.82.077-1.595 2.402-1.768 3.05-.583 1.414.13 1.89 1.28 1.382.174.615-.068.96-.588 1.076 3.157 3.614 4.942-2.223 7.712-2.203 3.458-1.012 4.816-2.716 4.816-2.716l1.358.18 2.46-5.176z"/><circle cx="105.145" cy="87.384" r="3.305"/><path d="M99.33 113.41c-2.05-.372-5.444-2.498-5.79-5.278 1.908-7.494 11.755-3.58 12.604-9.217-.217-3.72.45-7.4 2.512-10.51.96-1.218 2.203-1.538 2.203-1.538s.222.793-.103 1.332c1.626-.18 3.856.73 5.38.82.448.908.41 1.24.307 1.792-.102.55-.717.41-.717.41-.398.377-.876.76-1.947.564-.807.615-2.51.768-2.51.768s3.56 3.754 2.97 4.92c.744.345 1.846 1.998 1.846 1.998s2.434-1.28 3.228-2.46c1.41 0 3.715 1.474 4.868 1.64 1.41 1.14 2.818 2.306 2.818 2.306s-1.678 1.102-2.408-.36c-.884.078-2.793-2.036-5.432-1.382-.077 2.344-2.664 3.997-2.664 3.997s2.415-.338 3.74.46c1.37 1.154 3.382 2.717 3.382 2.717l1.794 3.074s-1.64.282-2.255-1.845c-.615 1.716-.64-1.064-3.074-2.358-.743.09-1.115.14-1.743-.358-1.755.474-3.83 1.498-6.302 1.23-1.755.55-3.037 2.01-4.817 2.818-1.78.807-2.305.41-2.305.41l-1.435.05c-.207.865-.09 2.18-.87 2.41.5.537-.36 2.83-1.23 3.227.41 1.473 1.61 1.924 2.87 2.664 0 0 1.113-.512 1.843.154s1.486 2.562 1.486 2.562-1.52.103-2-.103c-.478-.205-.524-.704-1.075-.563-3.472-3.088-5.302-1.86-5.637-2.562-.342-.72.82-2.6.462-3.792z"/><path d="M90.99 99.655c.18-.226 1.45.254 1.45.254l2.318 1.448 4.71 3.044 1.667 2.427-3.007-.98-4.167-3.586-2.245-1.45s-.906-.933-.725-1.16zM118.85 107.37c-1.627-.41-5.637 4.458-5.637 4.458l3.024 3.28s.09-5.586 2.613-7.738z"/><path d="M99.023 93.79c-.887 1.136-.967 3.428.188 4.352.11 1.39 1.292 4.197 2.22 4.46 1.017.288 5.074 1.23 6.663.974-.304 2.575 1.716 4.64 3.587 5.995-.014.233-.017.515.2.8.208.277 1.19.327 1.234.175.436.613 2.548.882 2.7.61.15-.267-3.105-2.532-3.827-3.223-.613-1.144-1.775-3.694-2.05-5.74-1.597-1.9-4.34-1.862-4.34-1.862l.087-3.723.154-4.202-1.486-.768s.3-.137.46-.308c.362.155 1.04-.57 1.13-.775.34.12.65.12.71-.064.053-.16.114-.878.238-1.25 1.12-.986-.163-3.08-1.877-3.113-1.697-.035-2.077 2.023-2.044 2.18.158.645.124.97 0 1.126-.13.16-.72.513-.72.513s-.947-.45-2.1 0-2.447 1.05-2.51 1.793c-.526.076-1.384.755-1.538 1.332-.46-.09-1.063.294-2.05 1.896-1.767.78-1.87 4.56-1.87 4.56s-.477.695-.5 1.063c-.022.37.167.706.398.642.025.243.346.46.486.384.052.244.403.38.615.346.02.167.703.125.757-.026.06-.166-.067-.996.013-1.063.074-.06.64.372.794.256.154-.116-.03-.485-.115-.628-.078-.128-.565-.27-.68-.87s.307-1.436.307-1.436 1.922-1.512 2.14-2.806c1.447.14 2.213-1.124 2.626-1.6z"/><path d="M95.68 88.37c.438-1.073 2.023-.974 2.023-.974s.567-1.492 2.703-.602c.804-.62 2.92.27 2.92.27s.794-1.057 1.833-.936c1.924.224 2.244 1.99 2.125 2.293-1.053.267-2.88-.855-4.266-.537-.81.458-2.124.942-2.614 1.602-1.284.134-2.655-1.182-4.727-1.115zM99.69 90.15c.48-.294 1.658-.812 2.46-.178.838.903 2.125 1.742 2.125 1.742l1.46.615.667.41-.436 6.686c-1.352-1.383-2.62-1.626-3.587-3.254-.52-.698-.123-2.376-1.026-3.485-.903-1.108-1.864-1.857-1.665-2.536z"/><path d="M103.2 92.082s.765-.145.978.036c.268.09.526.168.598.4.29.085.49.234.49.452.27.072.38.56.38.56l-.254.382s-.29-.272-.326-.562c-.183-.09-.59-.186-.688-.453-.317-.03-.52-.195-.58-.47-.295.067-.598-.345-.598-.345z"/><path d="M109.68 87.717c-.436-.487-1.204-.128-1.204-.128l-2.05 3.535-.897.743-.078 2.767.743 2.587-.256 2s1.03-.97 1.152-1.513c.116-.52-.384-2.204-.384-2.204s-.615-1.05.128-2.998c.743-1.947 2.434-3.56 2.844-4.79z"/><path d="M114.74 90.868s-3.2 4.573-8.44 6.2c-1.447.346-.922-3.382-.922-3.382l-.36.103s-.806 3.65 1.128 3.688c5.266-1.037 9.216-6.58 9.216-6.58l-.63-.028zM116.91 117.16s-.487.36-1.127 0c-.333-.77-1.23-.82-1.23-.82s-.578-1.66-1.486-1.178c-.14-.86-1.127-.41-1.127-.41s-.026-1.243-1.18-1.076c.385-1.423-1.588-1.333-1.588-1.333s-.064-1.6-2.972-1.28c6.265-2.806 11.222 4.406 11.222 4.406M119.88 117.77s1.448 1.627 2.203 1.64c.756.013.82-1.59.82-1.59s.244.693.615.514c-.038.486.46.615.46.615s-1.305 3.035-5.02.152M108.55 118.39l-.512 2.1s-.654.59-.462.718c.193.128 1.23-.205 1.23-.205s1.614-.192 2.1-.666c.334.756 1.077.82 1.077.82s.05-.32-.05-.512c.358.064.665-.052.665-.052s.205-.59-.256-.82c.05-.435.27-.82-.512-.768-.577.615-2 1.32-2.358 1.076-.358-.242 1.41-1.024.923-2.05"/></g></svg>