<svg xmlns="http://www.w3.org/2000/svg" xmlns:xlink="http://www.w3.org/1999/xlink" width="2800" height="1400"><path fill="#cc0001" d="M0 0h2800v1400H0z"/><path id="a" fill="#fff" d="M0 1300h2800v100H0z"/><use transform="translate(0 -200)" xlink:href="#a"/><use transform="translate(0 -400)" xlink:href="#a"/><use transform="translate(0 -600)" xlink:href="#a"/><use transform="translate(0 -800)" xlink:href="#a"/><use transform="translate(0 -1000)" xlink:href="#a"/><use transform="translate(0 -1200)" xlink:href="#a"/><path fill="#010066" d="M0 0h1400v800H0z"/><path d="M576 100c-166.146 0-301 134.406-301 300s134.854 300 301 300c60.027 0 115.955-17.564 162.927-47.783-27.353 9.44-56.71 14.602-87.27 14.602-147.328 0-266.898-119.173-266.898-266.01 0-146.838 119.57-266.01 266.896-266.01 32.558 0 63.746 5.814 92.602 16.467C696.218 118.91 638.305 100 576 100z" fill="#fc0"/><path d="M1075.167 556.174l-126.79-66.153 37.488 135.39-84.804-113.254L874.606 650l-26.02-137.923-85.163 112.998L801.338 489.8 674.34 555.57l94.343-105.833L625 455.254l132.084-55.43-131.908-55.83 143.664 5.95-94.007-106.118 126.79 66.153-37.488-135.39 84.804 113.254L875.394 150l26.02 137.923 85.163-112.998L948.662 310.2l126.998-65.77-94.343 105.833L1125 344.746l-132.084 55.43 131.908 55.83-143.664-5.95z" fill="#fc0"/></svg>