<svg version="1" xmlns="http://www.w3.org/2000/svg" width="900" height="600"><path d="M0 0h900v600H0z"/><path fill="#fff" d="M0 0h900v206.25H0z"/><path fill="#007168" d="M0 0h900v187.5H0z"/><path fill="#fff" d="M0 393.5h900V600H0z"/><path fill="#fce100" d="M0 412.5h900V600H0z"/><path d="M0 0v600l393.75-300z" fill="#d21034"/><path d="M204.37 412.485l-73.154-53.56L58.16 412.5l28.333-86.124-73.528-52.924 90.664.332L131.24 187.5l27.7 86.33 90.594-.403-73.544 53.023z" fill="#fce100"/><path d="M67.724 352.427h52.7c4.24 4.757 13.7 6.697 22.71-.056 16.518-9.044 48.473.057 48.473.057l6.292-6.685-15.34-50.34-5.505-5.9s-11.797-7.077-34.215-4.718c-22.417 2.36-30.283-.786-30.283-.786s-19.663 2.36-25.17 5.112c-.604.49-6.292 6.292-6.292 6.292z" fill="#fff" fill-rule="evenodd" stroke="#000" stroke-width="1.5746499999999999" stroke-linecap="round" stroke-linejoin="round"/><path d="M78.343 339.45s50.34-6.293 64.89 12.977c-8.218 5.624-15.453 6.087-23.203.395 1.234-2.057 18.09-19.665 60.958-13.765" fill="none" stroke="#000" stroke-width="1.5746499999999999" stroke-linecap="round" stroke-linejoin="round"/><path d="M132.22 289.11l-.392 55.453m45.227-54.667l9.44 44.048m-98.588-44.74L82.67 311.92" stroke="#000" stroke-width="1.5746499999999999" stroke-linecap="round" stroke-linejoin="round"/><path d="M33.497 358.465l12.393 14.53c1.456.87 2.748.814 4.04 0l18.368-22.04 7.715-9.55c1.194-1.415 1.575-2.993 1.47-4.408l14.747-13.105c1.206.083 1.925.22 3.13.3-1.424-.368-2.47-1.062-1.348-2.624l3.306-2.57 2.57 3.304s-3.67 4.776-4.04 4.776h-4.04l-7.714 6.98 3.372 2.98 5.077 13.918 6.245-4.41-4.04-14.324 8.816-9.552-3.307-5.143 2.205-2.94s30.513 19.212 42.268 14.07c.318.114.71-13.7.71-13.7s-31.59-3.307-32.326-9.552c-.734-6.245 6.98-6.98 6.98-6.98l-3.307-4.775.736-2.572 5.51 6.98 12.49-10.654 73.468 83.755c4.012-1.627 4.87-2.608 5.145-6.613-.104-.1-72-82.653-72-82.653l5.51-5.876c1.086-1.225 1.468-1.745 1.47-3.675l8.448-7.346c2.54.873 4.16 2.396 5.51 4.407L186.3 249.72c.613.61 2.473 1.223 3.735.535l38.402-36.86-41.854 29.56-1.47-1.1c0-1.226 1.52-1.528 0-3.674-1.625-1.95-4.04 1.837-4.406 1.837-.368 0-6.058-2.01-7.305-4.558l-.41 6.76-10.653 9.92-8.082-.368-11.756 11.388-1.47 4.408 1.838 3.674s-6.246 5.51-6.246 5.142c0-.366-1.262-1.623-1.316-1.786l5.357-4.826.735-3.306-1.788-2.79c-.542.393-7.396 7.566-7.764 6.83-.612-.685-19.835-22.407-19.835-22.407l1.1-4.042-12.488-13.592c-4.553-1.572-11.755-1.836-13.225 8.082-1.144 2.33-10.653.367-10.653.367l-5.143 1.102-29.02 41.143 16.163 19.47 33.06-41.878.983-11.864 6.937 7.757c2.313.297 4.516.323 6.612-.735l19.587 21.863-3.262 3.183c1.102 1.224 1.86 2.006 2.963 3.23 1.102-.734 2.154-1.615 3.256-2.35.368.49.98 1.42 1.348 1.91-1.64.894-2.793 2.083-4.434 2.977-2.626-1.712-5.162-3.844-4.97-7.236l-11.02 9.183-.367 1.837-32.693 27.183-2.94.368-.733 8.45 21.306-17.633v-2.573l2.204 1.837 16.53-13.224s1.102 1.47.736 1.47c-.368 0-14.695 13.223-14.695 13.223l-.367 1.468-2.57 2.204-1.47-1.102-19.838 17.632h-2.938l-11.02 11.022c-2.843.247-5.306.548-7.715 2.203z" fill-rule="evenodd" stroke="#000" stroke-width="1.5746499999999999" stroke-linecap="round" stroke-linejoin="round"/></svg>