<svg xmlns="http://www.w3.org/2000/svg" width="920" height="460"><path fill="#007934" d="M0 0h920v460H0z"/><path fill="#fff" d="M280 0h360v460H280z"/><path fill="#007934" d="M463.32 30.575l-2.414 26.116c-2.948.445-5.895.887-8.842 1.33 0 0 6.14 3.45 7.213 6.913.172.555.103 1.014-.145 1.36-.082.108-.207.228-.32.318-1.78 1.368-7.04.724-7.04.724s6.97 5.88 7.505 8.01c.012.05.028.097.03.146-.002.04.007.106 0 .144-.01.03-.047.086-.06.116-.047.105-.133.223-.232.318-1.638 1.513-9.365 1.938-9.365 1.938s8.567 6.11 9.103 9.573c.486 3.138.08 4.976 0 5.29-.598-.51-14.415-12.12-23.327-8.733-.443.23-.706.45-.814.665-.047.107-.057.24-.03.347.625 1.93 13.228 3.91 22.02 11.51-.22 1.903-25.056-6.05-25.974-1.07.777 1.405 26.73 5.145 28.65 8.532-9.56.355-29.304-2.104-28.65 1.04-1.997 3.632 18.65 1.58 27.31 4.542 2.54 2.87 2.295 5.28-2.122 5.58-8.35-3.968-27.034-6.917-27.08-1.85v.03c.003.005.028.023.03.028.008.016.016.044.03.058.03.03.095.06.144.087 2.11 1.053 19.51.54 26.06 4.86-9.287 2.1-40.78-4.263-40.98-1.158.896 1.45 5.88 7.814 14.455 7.547 8.575-.266 28.414 3.467 29.755 6.13.042.085.042.17.03.233-.58 1.858-26.127-5.67-35.95-1.04-10.183 4.795 29.197 1.887 35.63 7.75 6.43 5.86-12.857-.55-12.857-.55s-26.783-3.716-30.802-1.85c-4.02 1.865-8.58 6.13-8.58 6.13s2.673 5.317 5.353 4.252c.408-.163.687-.196.843-.145.004.002.026-.002.03 0 .003.002.025.027.03.03.005.003.022.023.028.028.004.006.024.023.03.03 0 0 .026.024.028.028.012.026.025.083.03.115.062.8-1.833 3.124-1.833 3.124s37.53 9.04 45.838 17.034c8.306 7.994-47.7-12.523-47.7-12.523s-22.51 8.26 1.338 8.792c-2.66 3.867 1.1 6.247 1.337 6.39 0 0 39.668 8.27 43.687 14.664 4.02 6.394-27.063-6.14-34.03-9.602-6.72-3.343-25.432 1.767-26.497 3.326-.008.012-.023.045-.03.057 0 .007.003.025 0 .03v.058c.002.006 0 .024 0 .03.003.005 0 .023 0 .028.003.006.028.024.03.03.002.005-.002.023 0 .028.012.02.042.065.06.087.003.007.023.024.028.03 1.2 1.313 9.55 3.12 9.803 5.38v.028c.004.12-.034.263-.088.376-1.052 2.028-11.016 2.89-11.43 4.8-.007.033-.03.083-.03.116 0 2.133 50.125 12.524 63.523 23.715s-39.382-13.333-39.382-13.333 2.948 3.995 0 5.062c-2.948 1.065-13.42-14.92-30.57-5.062-3.122 4.057 14.975 7.276 19.576 7.722-1.57 4.017-2.94 5.346 3.49 9.342.704.437 1.1.7 1.25.838l.03.03.03.028c0 .002-.002.027 0 .03v.028h-.06c-.995-.155-12.55-6.06-13.757-6.304-.012-.002-.05 0-.058 0h-.03c0 .533 1.34 6.94 1.34 6.94-5.938-4.795-13.115-6.24-19.837-1.33-.01.284-.06 4.883 6.69 7.722-3.804 7.73 4.298 5.33 17.16 12.523-19.115-4.967-20.646 4.26-6.98 6.393s51.19 3.467 60.033 14.923c1.865 2.417 2.372 3.632 2.007 4.02-1.475 1.33-15.044-8.43-17.015-8.792-.004.002-.025-.004-.03 0-.003.004-.024.024-.028.03-.025.03-.063.092-.088.143-.482 1.06-.932 5.67-.932 5.67-5.716-3.29-10.962-6.242-17.8-7.636-.536 1.066-.423 2.58-.96 3.645-6.205-4.45-11.61-7.578-20.62-8.01-.36 1.42-.72 2.858-1.078 4.28 0 0-7.512-9.327-22.25 0-8.23 5.866 31.088 2.123 37.52 9.05 6.43 6.928 1.337 7.983 1.337 7.983-5.36-1.953-10.696-3.888-16.055-5.842 0 0-19.044-3.48-24.403.78-5.36 4.265 78.242 14.66 80.653 26.117 1.626 6.214-19.642-6.506-38.044-11.973-.712 2.034-1.44 4.07-2.153 6.103-.436-.43-7.555-7.314-15.532-8.503-.002.004-.027.022-.03.03v.057c.013.874 1.63 7.114 1.63 7.114s-20.613-9.6-31.063-4.54c-10.45 5.063 36.433 7.727 40.72 12.524.47.524.664.907.64 1.157-.008.044-.038.11-.06.145-1.034 1.508-15.016-4.062-16.403-1.3-1.61 3.196-24.38-5.855-24.113-1.592.268 4.264 3.23 6.652 3.23 6.652s47.43 4.527 49.037 10.122c1.607 5.595-26.264-3.18-26.264-3.18s-2.696 3.976-.553 5.84c.084.073.15.143.175.174v.03h-.03c-.968-.318-16.07-10.153-14.6-2.603-5.91-2.34-21.167-9.586-19.023-3.99 2.11 5.512 41.904 13.362 43.075 13.592-1.052.08-17.88 1.48-17.102 5.87-22.555-13.663-22.502-5.47-21.99-4.83.002 0 0 .028 0 .03-1.266-.2-29.015-7.074-6.95 4.8 11.833 6.367 14.717 8.85 14.776 9.804v.087c-.005.026-.02.065-.03.088-.002.006-.026.023-.03.03-.01.015-.017.042-.028.057l-.03.03-.03.028-.028.03c-.006.003-.023.024-.03.028-.458.292-1.566.17-1.89.174h-.058c-.006.002-.028.026-.03.03l.03.028c.315.465 2.046 5.165 1.95 5.987-.003.013-.027.046-.03.056-.002.004.002.025 0 .03 0 0-.028-.003-.03 0 0 0 .003.027 0 .028h-.03-.028c-.967-.242-15.58-8.007-20.593-8.53-5.092-.534-29.215 6.652-3.49 17.843s41.526-2.67 55.728-1.07c14.202 1.598 20.914 4 19.575 8.53-1.34 4.53-14.528-14.85-28.388 1.91-15.766-3.102-26.462-4.897-18.324 6.623-25.747-9.567-41.47 2.92-9.046 7.982 31.862.934 51.452-7.722 51.452-7.722s5.375 9.878 13.147 2.95c7.406-6.602 7.988 1.8 8.26 2.603.004.012.025.022.03.03 0 0-.003.027 0 .028 0 0 .025.002.028 0 .572-.142 7.475-3.21 7.475-3.21h1.89v63.945c8.665.09 17.31.17 25.973.26 0 0-8.307-55.674-3.752-63.134 4.414-7.226 8.587-6.446 8.842-6.39 0 0 16.885 5.05 18.76 4.25.022-.01.067-.017.088-.028.014-.008.045-.02.058-.03.033-.02.087-.062.116-.086.006-.004.024-.024.03-.03 1.372-1.244-.026-6.16 8.55-5.407 2.65-.96 1.64-5.157 3.346-6.19.03-.018.084-.042.116-.058.064-.03.16-.065.233-.086.1-.03.234-.047.35-.058 2.678-.267 54.39 14.376 65.645.52-2.948-7.726-13.143-.527-15.823-.26-2.412 0-12.602-4.796-18.498 0-5.36-3.996-29.726-6.652-29.726-6.652-3.215-3.197 58.15 1.588 61.633-.81 7.234-7.194-13.392-6.39-16.608-3.99-5.717-3.465-12.9-3.208-17.277-.81-2.1-4.992-22.024-2.83-33.1-4.252-3.544-2.067-2.954-3.254-.552-4.54 23.134.977 46.15 3.98 69.398 2.95 6.284-8.146-7.91-11.218-16.608-4.28-5.106-8.35-15.545-.272-22.512-1.07-6.966-.8-3.752-9.315 5.09-7.983 8.843 1.334 24.655-.543 27.602-4.54 2.947-3.996-1.76-8.045-16.346-4.25-4.937-4.8-15.792-.01-20.884 1.59-6.774-3.758-22.534-.523-27.893.81-5.246-3.243 27.602-8.532 27.602-8.532 12.68-.223 19.83-2.405 23.85-3.47 19.168-10.216-.267-11.3-10.325-3.876-6.243-4.847-12.173.42-17.8 2.285-5.275 1.748-15.032 3.02-16.23 2.516-.014-.006-.047-.022-.058-.03-.002 0-.026-.026-.03-.028l-.028-.03v-.028-.03c.004-.01.02-.043.03-.057.79-1.218 15.24-10.036 15.24-10.036s18.76-1.347 22.512-1.88c2.286-.325 10.3-4.096 10.296-5.495-.067-.87-3.406-.79-13.525 1.763-9.11.8-14.462.283-17.946.55-5.602-.576-7.963-1.163-8.434-1.678-.018-.02-.047-.065-.058-.086-.04-.094-.014-.202.058-.29.018-.02.063-.067.087-.087 1.374-1.09 10.238-1.88 10.238-1.88s27.064-2.468 28.854-3.876l.03-.03c.01-.01.022-.046.028-.057.002-.006.028-.023.03-.03.556-11-22.96-5.92-23.588-5.84.067-7.737-21.224-.114-22.22 0h-.03c-.917-.537-1.316-1.103-1.397-1.62-.026-.197 0-.42.058-.607.534-1.596 3.752-2.835 3.752-2.835 5.896-1.42 14.71-1.864 17.015-3.73 0 0 16.64-.146 18.615-4.54-4.083-11.202-35.213 1.982-39.382 3.99-.835 0-1.346-.21-1.6-.55-1.368-1.988 5.387-8.537 5.614-8.762 0-.002.023-.027.028-.03 1.03-.29 25.884-1.554 37.753-17.554.84-9.894-14.193 5.58-14.193 5.58-1.122-12.83-16.345.815-25.188 1.88-8.843 1.066-9.102-4-2.938-4.8 6.162-.798 13.124-.276 16.608-9.6 3.482-9.327 13.947.542 15.823-2.922 1.816-3.356-3.424-6.217-3.752-6.392 0 0 7.766-8.017-4.828-7.75-12.467.263-28.585-1.554-28.91-1.59.78-.298 13.48-5.06 25.42-4.802 12.327.266 5.625-8.792-6.166-8.792-11.79 0-17.946-3.99-17.946-3.99l20.098-7.463c-.447-1.864-.89-3.716-1.338-5.58 0 0 11.786-9.333-4.828-7.202-16.614 2.132-18.498 2.4-18.498 2.4s-32.705 4.984-33.478 5.062h-.03c-.316-.05-3.555-1.05-4.158-2.285-.018-.04-.046-.104-.06-.145-.013-.05-.023-.123-.028-.173-.004-.058-.01-.143 0-.203.135-.65 1.144-1.354 3.723-1.995 8.575-2.132 38.87-8.252 43.425-6.653.587.206 1.016.16 1.28-.058 1.708-1.538-3.974-11.34-17.917-12.726-16.077-1.598-25.972 3.99-25.972 3.99s-10.462-3.742-.814-6.94c9.646-3.196 24.926 1.07 24.926 1.07s17.14-5.07 2.937-7.2c-14.202-2.133-18.68 1.916-25.188 2.14-2.6-3.225 22.296-3.986 23.85-6.652-2.626-4.798-18.03 0-27.05 0-3.838-1.62-4.092-4.253.26-5.87 9.2-.357 17.85.18 27.05-.175-.267-4.884.007-10.675-.26-15.56-11.67-2.12-25.356 1.554-31.908 1.245 1.753-5.33 26.95-6.706 29.755-8.156 5.79-7.195-24.167-.11-24.897 0-5.317-.78-4.995-4.123-1.63-6.13 7.772-.89 25.198 1.13 23.88-4.108-1.01-4.91-12.082-2.28-16.637-1.215-4.555 1.066-11.256.26-11.256.26-2.917-3.904 26.27-2.308 26.003-5.32-.38-3.46-18.5-1.077-24.665-.81-4.74-3.253 22.286-5.415 23.56-5.843l.03-.03c1.008-8.856-18.76 0-22.513 0-.645 0-1.133-.16-1.484-.432-.078-.064-.167-.158-.233-.232-1.288-1.494-.145-4.916-.145-4.916s7.045-3.148 7.475-3.905c.002-.006.027-.023.03-.03V83.1v-.03l-.03-.028c-.016-.023-.055-.06-.087-.087-.827-.633-5.673-2.232-6.312-2.285h-.03c-.003 0-.024-.027-.028-.03-.008-.005-.022-.02-.03-.028-.003-.004-.025-.023-.028-.03-.365-.744.087-6.043.087-6.043s5.582-4.16 5.933-5.813c.002-.014-.002-.045 0-.058.002-.014 0-.045 0-.058v-.058c0-.012.002-.046 0-.058v-.03c-.004-.015-.022-.04-.03-.057 0-.006.003-.023 0-.03 0-.003-.025-.023-.028-.028-.006-.01-.023-.02-.03-.03-.01-.013-.017-.044-.028-.056l-.03-.028c-.022-.018-.06-.042-.087-.058l-.058-.03c-1.41-.672-7.243 1.33-7.243 1.33v-5.32s5.106-.552 5.642-2.95c.03-.14.015-.28 0-.405-.01-.05-.015-.127-.03-.175-.033-.103-.083-.224-.145-.318-.01-.014-.048-.044-.06-.058-1.167-1.5-5.932-1.707-5.932-1.707-.894-9.325-1.782-18.64-2.676-27.966zm-4.77 91.332v3.673s-6.01-.306-7.126-1.244c-.006-.004-.024-.024-.03-.03l-.028-.027-.03-.03-.03-.03c-.01-.013-.02-.042-.028-.057-.002-.004.002-.024 0-.03-.002-.003-.028-.023-.03-.028 0-.004.002-.024 0-.03v-.057-.03c.002-.005 0-.022 0-.027.007-.02.02-.064.03-.086.002-.006.026-.024.03-.03.013-.022.038-.063.057-.086l.03-.03c.012-.01.045-.045.058-.057.04-.034.093-.078.145-.115 2.016-1.403 6.042-1.37 6.835-1.59.006-.002.023.002.03 0 .006-.002.024-.027.03-.03.003 0 .024.003.028 0 .005 0 .027-.026.03-.028zm8.522 4.888c.208 0 11.97.1 13 1.62.01.01.024.044.03.057.008.02.025.067.03.087.002.013 0 .043 0 .057 0 .02.004.065 0 .087-.006.02-.02.064-.03.086-.898 1.898-12.798 3.037-12.798 3.037l-.232-5.032zm-.67 7.26c.005 0 .026-.003.03 0 .004 0 .023-.003.03 0 .698.182 5.57.34 6.166 1.155.006.008.024.022.03.03 0 .003-.003.024 0 .028.003.008.025.02.028.03v.144c-.002.004-.028.024-.03.03 0 .003.003.023 0 .027-.007.013-.02.043-.028.057l-.03.03c-.004.003.004.023 0 .028-1.01 1.227-5.505 1.562-5.73 1.562h-.03s.003-.028 0-.03c-.003-.005-.024-.022-.028-.028-.205-.416-.407-3.066-.407-3.066zm-35.862 9.658c3.84-.198 11.462.7 25.77 4.628 0 .303.29 3.992.175 4.6 0 .003-.028.024-.03.028v.03c-.002 0-.025.027-.03.028-.223-.112-26.03-7.486-28.387-7.375-.064.003-.142.007-.203 0-.052-.005-.126-.017-.175-.028-.064-.016-.147-.06-.203-.087-.02-.01-.068-.018-.088-.03-.007-.003-.024-.024-.03-.028-.078-.052-.156-.133-.204-.202-.004-.006-.025-.023-.03-.03l-.028-.057c-.002-.006.002-.023 0-.03-.004-.01-.026-.045-.03-.057 0-.005.002-.02 0-.027v-.058-.058c.005-.032.02-.083.03-.116.032-.078.097-.18.175-.26.394-.383 1.382-.77 3.286-.867zm13.38 10.903c4.113-.146 13.968 2.21 14.513 2.083 0 .78.436 4.474-.058 5.233-.004.006-.024.023-.03.03-.003.005-.023.023-.028.028-.006.005-.024.026-.03.03l-.058.03c-.007 0-.024-.002-.03 0h-.058c-.006-.002-.022 0-.03 0-.837-.21-15.38-4.803-15.938-6.682-.008-.03 0-.086 0-.116.006-.065.038-.145.087-.202l.03-.03c.006-.005.022-.022.03-.028.28-.22.855-.35 1.6-.376zm40.486 10.122c3.928-.076 6.702.258 5.672 1.446-2.805 3.236-22.192 5.9-22.192 5.9l-.35-5.9c.417-.06 10.268-1.317 16.87-1.446zm-55.495 18.394c3.298-.174 10.975 1.626 28.07 8.82l.116 4.253s-28.948-8.73-29.958-10.18c-.498-.714-1.42-2.723 1.774-2.893zm56.718 6.334c.88-.045 1.5.044 1.716.26.006.006.025.023.03.03.01.02.02.065.028.086.004.022.03.063.03.087-.012.12-.104.285-.262.462-2.694 3.013-17.16 6.015-17.16 6.015v-3.904h.028c.66-.023 11.28-2.82 15.59-3.037zm-63.465.52c4.322-.227 14.08 2.052 35.95 12.35 0 .106.195 3.658.116 3.99h-.03c-1.296-.415-39.353-13.707-39.353-13.707-.04-.147-.613-2.426 3.316-2.633zm72.452 16.63c1.106-.046 1.832.05 2.007.29.016.028.027.083.03.116-.005.115-.1.263-.292.433-3.45 3.1-25.453 6.854-26.235 6.912h-.03s-.025.002-.028 0l-.03-.03c-.007-.01-.022-.042-.028-.056-.003-.005 0-.023 0-.028-.005-.012-.027-.045-.03-.058-.14-.718.315-3.234.35-3.586v-.03c0 .002.026 0 .028 0 .004 0 .024.03.03.03h.028c1.408-.024 18.27-3.745 24.2-3.99zm-64.686 9.69c6.55-.337 26.396 8.712 27.37 8.993h.028c-.102.404-.118 3.67-.203 4.193-.002.014.002.05 0 .058 0 .003-.03 0-.03 0-.534-.284-27.735-11.51-28.94-10.613-.75-1.768.028-2.542 1.775-2.632zm58.52 2.37c1.362-.06 2.36 0 2.675.174.038.024.073.058.087.087.002.004 0 .024 0 .03v.028c-.002.012.006.046 0 .058-.004.006-.024.022-.03.03-.02.024-.054.057-.086.085-2.02 1.786-20.767 5.466-20.767 5.466s-.09-3.453-.09-3.788c.534-.113 12.636-1.925 18.21-2.17zm-1.513 11.945c1.32-.043 2.254.032 2.472.26l.028.03c.006.01-.002.047 0 .058 0 .006.03.023.03.03 0 .005-.03.022-.03.028-.002.012.006.045 0 .057-.004.006-.025.023-.03.03-.015.026-.034.06-.057.086-.017.02-.063.065-.087.086-2.023 1.737-17.917 5.06-17.917 5.06s-.436-3.79-.436-3.903c.44.01 11.067-1.658 16.026-1.822zm-67.07.955c3.833-.24 13.336 1.33 36.792 9.804l.784 4.57s-39.055-12.537-40.167-12.93c.002 0 0-.025 0-.028 0-.025-.006-.083 0-.145.014-.115.072-.296.204-.463.276-.335.905-.717 2.386-.81zm51.45 9.92c.47.1 7.02.316 8.232 1.33l.028.03.03.028c.003.004.024.024.028.03.012.015.02.042.03.057.002.006.026.024.03.03.01.02.022.064.028.086v.146c-.002.01-.025.045-.03.056 0 .006.003.023 0 .03-.005.01-.02.045-.028.057-1.01 1.562-7.853 2.14-7.853 2.14s-.337-3.06-.495-4.02zm15.853 8.907c1.525-.036 2.62.138 2.85.58.13.298-.12.74-.843 1.33-5.61 4.574-17.83 5.465-17.83 5.465v-5.032h.03c.693-.082 10.73-2.222 15.793-2.343zm15.56 4.686c1.937-.073 2.772.25 3.026.694.02.04.046.103.058.145.018.075.035.18.03.26-.063.573-.688 1.26-1.164 1.706-1.908 1.785-32.314 11.366-32.314 11.366s-.23-6.356-.117-6.913c17.776-5.357 26.47-7.108 30.48-7.26zm-19.66 17.99c1.932-.073 3.443.04 3.896.49.028.03.07.083.088.116.01.02.022.065.03.087.005.022-.003.065 0 .088 0 .038.01.102 0 .144-.023.086-.082.19-.147.29-2.6 2.538-15.24 2.92-15.24 2.92v-3.152c2.372-.08 7.656-.845 11.37-.983zm12.65 5.175c.602-.014.968.083 1.02.26v.06c-.032.146-.208.37-.583.635-5.05 3.57-24.025 7.23-24.025 7.23s.235-2.495.35-3.095c.527-.008 18.698-4.98 23.238-5.09zm10.646 3.963c2.236-.02 3.942.307 4.915 1.012h.03V283.344c-.095.69-1.516 3.945-6.515 5.35-6.234-.554-32.693 7.224-33.216 7.346-.003-.002-.03.002-.03 0-.002-.01 0-.043 0-.058-.014-.498.35-3.18.35-3.18 9.12-5.425 25.694-10.504 34.465-10.586zm-67.74 15.27h.174c11.445 1.227 15.72 5.487 16.928 7.2-2.282 3.983-20.37-4.947-18.47-6.853.22-.193.666-.333 1.368-.347zm65.588.752c.454-.018.87.075 1.163.26.12.08.238.194.32.318.11.178.184.418.204.694-1.195 1.837-7.38 1.035-7.765.983.31-.11 3.88-2.172 6.08-2.255zm-24.52 12.378c.85-.035 1.554.05 1.95.29.047.03.107.078.145.115.01.013.046.045.057.058.016.02.045.066.058.087.012.022.02.063.03.087.07.216.043.515-.146.868-1.796 3.347-9.657 2.11-9.657 2.11v-2.342h.03c.44.038 4.774-1.16 7.532-1.272zm-46.303 8.82c2.42-.12 4.533 1.457 6.75 2.72 4.935-1.005 15.065.78 15.065.78v4.454c0 .004-.023.025-.03.03-.004 0-.023-.003-.03 0-.92.158-12.792-.357-15.443-2.026-2.162 0-8.284-3.212-8.754-4.858-.004-.014-.027-.045-.03-.058-.004-.02.002-.067 0-.087v-.057c0-.012-.002-.046 0-.058v-.03c.002-.01.026-.045.03-.057.002-.006-.002-.023 0-.03.846-.447 1.67-.683 2.443-.722zm51.92 2.2c1.856-.1 2.643.47 1.19 2.515-4.038 5.69-14.484 3.355-14.484 3.355l-.436-3.528c3.684.143 10.418-2.165 13.728-2.343zm-39.034 11.538c4.223-.196 8.813 1.475 8.813 1.475.107.213 2.27 4.45.348 5.87-.072.05-.15.1-.233.144-2.357 1.227-13.62-.96-14.28-5.466 1.324-1.39 3.288-1.93 5.35-2.024zm-43.54 2.198c3.86-.23 8.176 2.135 8.666 2.37.006.003.026 0 .03 0 0 .134-.146 4.28-.146 4.28s-7.647-2.118-10.064-6.39c.484-.132 1.002-.23 1.512-.26zm73.557.578c4.308-.027 9.513.98 10.267 2.43.142.296.1.623-.175.954-2.132 2.565-14.252.23-14.252.23v-3.122c1.08-.314 2.564-.482 4.16-.492z"/></svg>