<svg xmlns="http://www.w3.org/2000/svg" xmlns:xlink="http://www.w3.org/1999/xlink" width="1000" height="600"><defs><linearGradient id="e" gradientUnits="userSpaceOnUse" x1="498.738" y1="289.055" x2="500.626" y2="283.42"><stop stop-color="#510000" offset="0"/><stop stop-color="#8a0000" offset=".3"/><stop stop-color="#a00" offset="1"/></linearGradient><linearGradient id="f" gradientUnits="userSpaceOnUse" x1="501.444" y1="291.373" x2="502.927" y2="287.449"><stop stop-color="#ff2a2a" offset="0"/><stop stop-color="red" offset="1"/></linearGradient><linearGradient id="j" gradientUnits="userSpaceOnUse" x1="484.764" y1="311.709" x2="484.764" y2="317.647"><stop stop-color="#F5F549" offset="0"/><stop stop-color="#97C924" offset="1"/></linearGradient><linearGradient id="a"><stop stop-color="#025" offset="0"/><stop stop-color="#04a" offset=".5"/><stop stop-color="#025" offset="1"/></linearGradient><linearGradient id="g" xlink:href="#a" gradientUnits="userSpaceOnUse" x1="444.509" y1="317.486" x2="634.411" y2="317.486"/><clipPath id="b"><path d="M500 226.375l-63.702 110.332h127.4z"/></clipPath></defs><path fill="#0067C6" d="M0 0h1000v600H0z"/><path fill="#fff" d="M0 200h1000v200H0z"/><g fill="#c8a400"><path d="M410 299.33c3.326.22 6.653.443 9.98.666.032-.486.063-.972.097-1.458l-3.925-.262c.1-1.603.233-3.205.304-4.81 1.388-1.004 2.778-2.006 4.16-3.017.043-.617.084-1.233.125-1.85l-4.387 3.187c-.148-1.038-.722-2.107-1.765-2.468-.913-.33-2.032-.39-2.823.264-1.003.738-1.184 2.058-1.314 3.207-.174 2.178-.296 4.36-.45 6.54zm1.52-1.363c.12-1.638.194-3.28.35-4.914.124-.808.272-1.742.98-2.257.64-.424 1.584-.108 1.846.614.522 1.247.29 2.622.223 3.93l-.19 2.84c-1.07-.07-2.142-.14-3.21-.213zM411.3 284.006l9.737 2.274 2.213-9.478-1.383-.324-1.883 8.063-2.964-.69 1.696-7.267-1.377-.32-1.697 7.265-2.623-.613 1.812-7.76c-.463-.11-.927-.217-1.39-.325-.715 3.06-1.43 6.117-2.143 9.176zM414.807 270.93l9.445 3.284.48-1.38c-1.24-.43-2.477-.86-3.715-1.292.485-1.43 1.016-2.842 1.462-4.284.32-1.177.566-2.552-.127-3.647-.562-.808-1.562-1.326-2.55-1.295-1.088.046-1.975.847-2.458 1.775-.714 1.342-1.113 2.818-1.634 4.24l-.903 2.6zm1.825-.913c.506-1.417.962-2.852 1.51-4.254.34-.75.755-1.637 1.617-1.875.707-.163 1.45.382 1.512 1.108.173 1.336-.41 2.597-.82 3.837l-.78 2.24c-1.014-.35-2.027-.703-3.04-1.056zM420.024 258.833c1.78 1.033 3.547 2.093 5.338 3.107 1.01.543 2.29.854 3.347.246 1.44-.798 2.342-2.27 3.05-3.708.558-1.21.962-2.713.25-3.95-.764-1.235-2.155-1.803-3.342-2.54l-3.457-2.022c-.244.418-.49.836-.733 1.254 1.694.998 3.4 1.975 5.086 2.986.807.49 1.475 1.38 1.336 2.37-.16 1.177-.834 2.21-1.504 3.163-.554.77-1.483 1.392-2.47 1.184-1.03-.197-1.865-.87-2.77-1.357l-3.398-1.99-.734 1.256zM427.227 247.062c2.647 2.026 5.295 4.05 7.942 6.077 1.23-1.61 2.46-3.224 3.7-4.825.712-1.022 1.368-2.35.886-3.604-.44-.997-1.466-1.77-2.568-1.82-.497-.068-1.145.308-1.414.474.283-1.066-.59-2.068-1.572-2.35-1.182-.42-2.38.338-3.163 1.178-.92 1-1.69 2.13-2.53 3.195-.43.558-.856 1.117-1.283 1.675zm2.014-.298c.93-1.19 1.81-2.42 2.784-3.576.453-.504 1.18-1.075 1.882-.705.64.277.798 1.085.492 1.666-.485 1.04-1.286 1.882-1.954 2.804l-1.09 1.426c-.705-.538-1.41-1.077-2.113-1.616zm3.237 2.476c.965-1.233 1.873-2.513 2.89-3.703.52-.544 1.173-1.23 1.997-1.072.705.162 1.217.926.974 1.636-.397 1.31-1.376 2.312-2.165 3.397-.413.54-.827 1.08-1.24 1.622l-2.456-1.88zM436.23 236.455l6.868 7.27 5.883-5.56-.975-1.032-4.705 4.446-.12.113-.088-.092-5.805-6.143zM445.035 228.752l6.095 7.928 1.19-.915-6.096-7.927zM453.99 222.67c-.987.615-1.783 1.335-2.397 2.176-.61.837-.94 1.71-.99 2.622-.046.912.197 1.794.734 2.657.493.79 1.153 1.404 1.976 1.844.82.438 1.706.6 2.676.492.964-.108 2.054-.535 3.268-1.292 1.166-.726 1.992-1.562 2.5-2.524.49-.924.626-1.904.417-2.948l-1.383.543c.362 2-.927 2.96-2.37 3.875-2.26 1.374-4.46 1.275-5.808-.79-1.398-2.327.13-4.25 2.05-5.5 1.365-.85 2.71-1.432 3.99-.618l1.08-.964c-.744-.514-1.59-.752-2.554-.7-1.012.056-2.07.43-3.19 1.127zM465.808 216.773l-1.047 11.206 1.558-.63.315-3.473.006-.003 5.057-2.04 2.637 2.284 1.557-.627-8.525-7.345-1.558.628zm1.368 1.15l3.325 2.876-3.722 1.5.398-4.378zM487.726 210.59l.624 9.982c1.805-.122 3.612-.207 5.414-.356 1.418-.163 2.94-.53 3.908-1.66 1.25-1.387 1.43-3.46.88-5.188-.458-1.52-1.826-2.67-3.374-2.963-1.525-.293-3.08-.06-4.614.008-.946.06-1.892.12-2.838.178zm1.54 1.328c1.436-.075 2.87-.216 4.31-.224.815-.024 1.628.215 2.287.7 1 .685 1.588 1.917 1.457 3.126-.072 1.39-1.094 2.67-2.445 3.02-.772.2-1.576.257-2.367.344-.932.06-1.864.117-2.796.175-.15-2.38-.298-4.76-.447-7.142zM501.664 210l-.57 9.984 9.717.555.082-1.42c-2.756-.157-5.51-.315-8.267-.47l.174-3.04c2.482.14 4.965.283 7.448.425l.08-1.41c-2.482-.143-4.965-.286-7.45-.427l.155-2.69 7.956.455.08-1.425c-3.135-.18-6.27-.36-9.406-.538zM527.774 214.166l-3.616 9.323 1.286.498 2.867-7.392.15-.384.16.427 3.448 9.917 1.684.653 3.616-9.323-1.29-.5-2.865 7.39-.146.376-.158-.422-3.455-9.912zM541.208 219.937l-4.546 8.907-1.336-.682 4.546-8.907zM548.75 224.356c-.97-.64-1.957-1.065-2.977-1.27-1.015-.208-1.947-.143-2.795.194-.85.337-1.55.926-2.11 1.775-.512.777-.794 1.633-.85 2.565-.057.928.164 1.8.668 2.637.5.832 1.344 1.645 2.537 2.432 1.147.756 2.25 1.157 3.338 1.218 1.044.06 1.992-.225 2.853-.85l-1.07-1.032c-1.665 1.164-3.075.393-4.51-.537-2.19-1.48-3.02-3.522-1.705-5.61 1.532-2.24 3.917-1.654 5.854-.43 1.343.886 2.432 1.864 2.226 3.367l1.328.58c.156-.89.02-1.76-.43-2.613-.474-.896-1.253-1.7-2.355-2.428zM558.272 231.538l-10.454 4.17 1.27 1.1 3.235-1.3.005.004 4.12 3.575-.834 3.387 1.268 1.1 2.658-10.935-1.268-1.102zm-.4 1.74l-1.048 4.272-3.032-2.632 4.08-1.64zM565.825 238.486l-7.716 6.363c.31.375.62.75.928 1.126l3.035-2.503c1.028 1.234 2.03 2.492 3.08 3.707-.322 1.683-.644 3.366-.957 5.05l1.178 1.43 1.006-5.33c.864.708 2.127 1.064 3.16.503.888-.42 1.67-1.228 1.716-2.257.108-1.38-.875-2.496-1.662-3.52l-3.77-4.57zm-.17 2.034c1.08 1.334 2.214 2.626 3.246 3.998.476.708 1.07 1.702.524 2.528-.45.707-1.435.645-2.04.187-1.224-.824-2.033-2.087-2.99-3.184-.406-.495-.814-.99-1.222-1.484l2.483-2.046zM577.523 254.4l-11.243.516.838 1.456 3.484-.17.003.006 2.72 4.727-1.896 2.928.836 1.455 6.094-9.462-.837-1.455zm-.948 1.515l-2.39 3.69-2.002-3.478 4.392-.212zM583.94 267.638c-.626-1.697-1.612-3.434-3.28-4.282-1.857-.933-4.33-.48-5.645 1.155-1.147 1.36-1.206 3.282-.9 4.953.362 1.918 1.242 3.744 2.563 5.186-.25.088-.498.177-.747.267l.48 1.33c1.56-.56 3.123-1.12 4.684-1.682l-1.822-5.06-1.082.39 1.34 3.73-1.587.57c-1.4-1.204-2.18-2.98-2.586-4.75-.3-1.326-.313-2.916.693-3.96 1.155-1.2 3.202-1.574 4.587-.55 1.367 1 2.14 2.622 2.53 4.234.265 1.058.222 2.32-.582 3.146-.225.168.13.403.192.605l.382.633c.847-.67 1.36-1.715 1.343-2.797.028-1.064-.206-2.12-.564-3.118zM586.81 275.447l-5.592 1.088c-1.037.202-1.815.53-2.334.968-.518.437-.85 1.052-1.01 1.87-.157.81-.135 1.804.098 3.012l.005.028c.237 1.207.588 2.135 1.04 2.827.454.7.992 1.146 1.635 1.356.645.21 1.49.225 2.528.023l5.592-1.09-.277-1.426-5.458 1.062c-2.45.476-3.275-.813-3.696-3.02 0-.008-.002-.017-.004-.027-.437-2.203-.155-3.708 2.295-4.185l5.46-1.06-.28-1.428zM589.88 292.467l-10.35-4.425.122 1.675 3.212 1.362v.006l.394 5.44-2.98 1.81.12 1.676 9.602-5.87-.12-1.675zm-1.513.95l-3.757 2.286-.29-4.004 4.047 1.718zM417.752 318.335l-1.45.382 1.603 6.092 1.45-.382zM582.283 318.335l1.45.382-1.603 6.092-1.45-.383zM433.217 343.99l-11.18 1.285.935 1.395 3.464-.41.004.007 3.04 4.53-1.693 3.05.936 1.395 5.43-9.858-.936-1.395zm-.842 1.575l-2.13 3.846-2.237-3.332 4.367-.513zM437.497 350.098l-7.127 6.665.952 1.018 6.006-5.616-3.15 8.67 1.09 1.167 8.612-2.613-5.898 5.516.95 1.017 7.128-6.664-1.445-1.546-8.75 2.614 3.275-8.47zM447.878 360.69l-6.016 7.987 7.776 5.855.854-1.135-6.614-4.98 1.83-2.432 5.962 4.488.85-1.13-5.96-4.487 1.62-2.152 6.366 4.794.86-1.14-7.528-5.67zM457.662 367.85l-4.71 8.823c.43.23.86.458 1.288.688l1.853-3.47c1.42.75 2.825 1.53 4.26 2.255.344 1.678.687 3.357 1.04 5.034l1.633.87-1.1-5.31c1.07.326 2.372.173 3.113-.74.628-.704 1.057-1.692.755-2.638-.35-1.304-1.634-1.986-2.717-2.618-1.803-.97-3.612-1.928-5.416-2.894zm.617 1.945c1.506.822 3.047 1.585 4.524 2.46.684.463 1.553 1.095 1.467 2.027-.075.818-.957 1.254-1.702 1.08-1.46-.24-2.69-1.11-3.99-1.76l-1.814-.97 1.515-2.837zM468.957 373.756l-3.78 9.26 1.39.565 3.78-9.257zM477.975 376.87c-1.105-.366-2.167-.52-3.206-.454-1.035.065-1.918.37-2.65.915-.732.547-1.256 1.298-1.576 2.262-.293.884-.343 1.784-.156 2.7.187.91.627 1.695 1.33 2.372.7.673 1.725 1.24 3.082 1.69 1.304.432 2.475.534 3.54.31 1.022-.214 1.864-.734 2.534-1.562l-1.3-.718c-1.307 1.556-2.87 1.178-4.496.652-2.5-.86-3.83-2.616-3.103-4.973.897-2.562 3.353-2.615 5.542-1.935 1.526.506 2.832 1.168 3.023 2.673l1.433.217c-.08-.902-.438-1.705-1.094-2.412-.69-.743-1.652-1.318-2.905-1.734zM488.03 379.122l-6.54 9.16 1.66.24 2.02-2.845h.007l5.398.782 1.13 3.3 1.662.24-3.676-10.638-1.66-.24zm.604 1.68l1.426 4.16-3.973-.575 2.547-3.584zM511.47 379.193c-1.143.22-2.144.607-3.018 1.172-.87.563-1.492 1.26-1.863 2.094-.372.833-.46 1.745-.268 2.743.176.914.573 1.723 1.184 2.43.61.703 1.377 1.172 2.322 1.418.94.246 2.11.237 3.515-.034 1.348-.26 2.418-.745 3.238-1.46.788-.69 1.268-1.555 1.446-2.604l-1.485.01c-.377 1.997-1.924 2.43-3.6 2.77-2.6.473-4.62-.408-5.14-2.82-.472-2.673 1.644-3.92 3.886-4.398 1.578-.306 3.04-.368 3.944.85l1.356-.512c-.512-.747-1.217-1.273-2.135-1.568-.964-.31-2.084-.34-3.38-.09zM518.148 378.01l2.844 9.587 9.33-2.77c-.133-.453-.268-.907-.403-1.36l-7.938 2.354c-.29-.97-.578-1.944-.866-2.917l7.153-2.122c-.135-.45-.27-.903-.403-1.354-2.385.707-4.77 1.414-7.153 2.122l-.766-2.582 7.64-2.267c-.136-.457-.27-.914-.407-1.37l-9.032 2.68zM528.966 374.61c1.4 3.025 2.8 6.05 4.198 9.076l1.252-.58-3.5-7.57c3.236 1.47 6.454 2.98 9.683 4.465.214.188.43.063.645-.052l1.26-.582-4.2-9.076-1.254.58 3.498 7.56c-3.324-1.507-6.63-3.054-9.946-4.577l-1.636.757zM539.947 369.452l.783 1.19 3.572-2.35.136-.09.067.103 4.647 7.06 1.214-.8-4.647-7.06-.068-.102.138-.09 3.59-2.363-.784-1.19zM550.01 362.562l6.776 7.355c.36-.33.716-.66 1.075-.99l-2.665-2.892c1.176-1.095 2.376-2.163 3.532-3.28 1.698.23 3.396.458 5.095.68l1.362-1.256-5.376-.713c.66-.902.945-2.183.328-3.183-.468-.863-1.318-1.6-2.348-1.59-1.382-.03-2.444 1.012-3.422 1.854-1.452 1.337-2.905 2.678-4.357 4.014zm2.04.058c1.272-1.15 2.5-2.355 3.813-3.46.68-.514 1.64-1.16 2.496-.662.73.41.722 1.398.297 2.026-.756 1.27-1.975 2.147-3.018 3.163l-1.41 1.3c-.728-.79-1.455-1.578-2.18-2.367zM561.643 350.918l4.473 10.327 1.064-1.3-1.396-3.197.004-.005 3.453-4.22 3.412.733 1.063-1.3-11.01-2.337-1.062 1.298zm1.752.35l4.3.922-2.543 3.107-1.757-4.03zM565.998 345.253l8.39 5.44 4.403-6.79-1.19-.772-3.523 5.432-.09.14-.106-.07-7.09-4.598z"/></g><g clip-path="url(#b)"><path fill="#fff" d="M500 226.408l-31.478 54.535-15.42 26.702H546.9l-14.715-25.484L500 226.41z"/><g id="d"><g id="c"><path fill="#17c0eb" stroke="#17c0eb" stroke-width=".129" opacity=".62" d="M500 226.408l-2.356 4.082L500 285.467l2.358-54.977z"/><path fill="#fff" d="M500 277.475l-.133.003.134 3.11.135-3.11c-.045 0-.09-.003-.134-.003z"/></g><use xlink:href="#c" transform="rotate(72 500 285.5)"/><use xlink:href="#c" transform="rotate(144 500 285.5)"/><use xlink:href="#c" transform="rotate(216 500 285.5)"/><use xlink:href="#c" transform="rotate(288 500 285.5)"/></g><use xlink:href="#d" transform="rotate(8 500 285.5)"/><use xlink:href="#d" transform="rotate(16 500 285.5)"/><use xlink:href="#d" transform="rotate(24 500 285.5)"/><use xlink:href="#d" transform="rotate(32 500 285.5)"/><use xlink:href="#d" transform="rotate(40 500 285.5)"/><use xlink:href="#d" transform="rotate(48 500 285.5)"/><use xlink:href="#d" transform="rotate(56 500 285.5)"/><use xlink:href="#d" transform="rotate(64 500 285.5)"/><g><path fill="red" d="M500 265.844c-11.067 0-21.195 4.05-28.97 10.75L456.376 302c-.5 2.67-.75 5.434-.75 8.25h5.03c0-21.726 17.62-39.344 39.345-39.344 21.727 0 39.344 17.618 39.344 39.344h5.03c0-2.813-.248-5.582-.75-8.25l-14.655-25.406c-7.774-6.697-17.905-10.75-28.97-10.75z"/><path fill="#f60" d="M500 266.656c-11.764 0-22.44 4.675-30.28 12.25l-12.032 20.844c-.834 3.366-1.28 6.876-1.28 10.5h4.25c0-21.726 17.616-39.344 39.342-39.344 21.727 0 39.344 17.618 39.344 39.344h4.25c0-3.625-.447-7.164-1.28-10.53l-12.032-20.814c-7.84-7.574-18.518-12.25-30.282-12.25z"/><path fill="#ff0" d="M500 267.47c-12.702 0-24.1 5.52-31.938 14.31l-8.718 15.095c-1.384 4.21-2.125 8.704-2.125 13.375h3.436c0-21.726 17.618-39.344 39.344-39.344 21.726 0 39.344 17.618 39.344 39.344h3.437c0-4.673-.74-9.165-2.124-13.375l-8.72-15.095c-7.835-8.788-19.236-14.312-31.937-14.312z"/><path fill="#0f0" d="M500 268.25c-14.55 0-27.372 7.414-34.906 18.656l-2.813 4.875c-2.734 5.575-4.28 11.843-4.28 18.47h2.656c0-21.726 17.617-39.344 39.343-39.344 21.726 0 39.343 17.618 39.343 39.344H542c0-6.615-1.556-12.87-4.282-18.437l-2.844-4.937C527.338 275.65 514.537 268.25 500 268.25z"/><path fill="#0cf" d="M500 269.062c-22.747 0-41.188 18.44-41.188 41.188h1.844c0-21.727 17.618-39.344 39.344-39.344 21.726 0 39.344 17.617 39.344 39.344h1.844c0-22.748-18.44-41.188-41.188-41.188z"/><path fill="#00f" d="M500 269.844c-22.306 0-40.375 18.1-40.375 40.406h1.344c0-21.56 17.47-39.03 39.03-39.03s39.03 17.47 39.03 39.03h1.376c0-22.306-18.1-40.406-40.406-40.406z"/><path fill="purple" d="M500 270.657c-21.863 0-39.588 17.725-39.588 39.59 0 .244.003.49.007.732h.8c-.005-.245-.007-.49-.007-.734 0-21.422 17.366-38.788 38.788-38.788 21.423 0 38.79 17.366 38.79 38.788 0 .245-.003.49-.008.733h.797c.003-.244.006-.49.006-.734 0-21.864-17.72-39.59-39.585-39.59z"/></g><g><path fill="#510000" d="M500.395 288.134c-.644-.124-1.226-.484-1.775-.61-.756.725-.835 1.457-.73 2.08.26.14.31.353.877.86s.496.773.462 1.965c-.016.502.07 1.58.578 1.68.548.11.932-.345 1.09-1.16.152-.79.417-1.215.698-1.7.306-1.853-.193-2.51-1.2-3.116z"/><path fill="red" d="M497.168 283.524c-.595.015-1.528 1.012-1.943.475-.24-.31-.28-.903-.037-1.4.56-1.152 1.124-1.717 2.167-2.33 2.378-1.402 3.89-.952 5.074 1.062 1.097 1.772 2.15 3.73 2.245 5.37.03.502.283 1.41-.156 1.86-1.35 1.39-4.597-1.434-6.498-.987-.64.15-1.377.617-1.98.218-.47-.31-.078-.997.272-1.294.612-.52 1.5-2.366 1.38-3.166-.067-.446-.08.18-.526.19z"/><path fill="url(#e)" d="M496.927 282.548c-1.083.445-.966 1.076-1.51 1.59.154.058.766.31 1.364-.3.26-.215.55-.294.678-.363-.305.22-.523.554-.684.684-.404.328-1.034 1.082-1.34 1.845-.307.764-.43 1.673-.376 1.782.056.11.426.78 1.566 1.232 2.03.806 2.417 2.438 4.477 2.438 1.615 0 1.356-1.056 2.647-.832 1.12.194 1.714-.696.636-1.232-1.37-.468-4.092-.192-5.372.033-.413-4.083-.055-2.65-.15-4.405-.098-1.755-.624-1.86.07-3.28-.577.87-1.276.733-2.003.806z"/><path fill="#ff2a2a" d="M500.938 279.795c-.04.223-.077.516-.056.6.087.34.175.693.278.994.115.335.162.578.24.927.082.36.4.5.694.722.37.28.084 1.036.315 1.067.183.025.487-1.07.49-1.246 0-.236-.002-.426-.038-.646-.135-.295-.272-.586-.426-.872-.002-.004-.007-.006-.01-.01-.06-.11-.12-.22-.193-.327-.217-.318-.485-.613-.786-.863-.02-.015-.037-.032-.056-.047-.083-.064-.17-.13-.258-.187-.062-.04-.13-.076-.194-.113z"/><path fill="url(#f)" d="M501.25 287.398c-.72-.188-1.427-.543-2.038-.725-1.2-.36-2.48-1.134-3.366-.814-.317.14-.29.455-.39.91-.042.532-.596 1.318-.136 1.06.685-.382 2.49.734 3.095 1.107.287.177.892.524 1.082 1.022.19.497.092 1.755.04 2.295-.052.566.12 1.835.687 1.987.61.163 1.078-.323 1.316-1.23.23-.88.405-1.387.757-1.915s.756-.756 1.32-.863c.564-.106 1.382.462 1.382-.203 0-.436-.385-.854-.22-1.453.127-.472-.403-.378-.843-.572-1.036-.32-1.97-.42-2.688-.607z"/><path fill="#910000" d="M498.363 288.902c-.327-.178-2.315-1.478-3.043-1.07-.23.127-.317-.017-.32-.258-.004-.24.11-.594.184-.866.074-.273.195-.792.516-1.062.687-.58 2.27.575 3.108.886-.072.436-.47 2.356-.445 2.37z"/><path fill="#ff3a3a" d="M501.763 291.36c.916-1.602 1.508-1.396 2.613-1.373.37.008.477-.33.393-.667-.28.624-1.663-.07-2.416.263-1.573.692-1.28 3.77-2.027 4.07.776.65 1.124-1.746 1.436-2.292z"/></g><g fill="url(#g)"><path fill="#fff" d="M453.103 307.645l-9.955 17.237h113.708l-9.956-17.237h-93.797z"/><g id="i"><path id="h" d="M449.705 321.364c-1.658 0-3.197.167-4.71.353l-.486.846c2.432-.216 4.696-.65 7.14-.71 3.292.08 6.282.83 9.785.83 1.518.015 3.027-.03 4.526 0 3.5 0 6.49-.75 9.784-.83 3.295.08 6.304.83 9.803.83 1.518.005 3.178-.023 4.53 0 3.5 0 6.474-.75 9.765-.83 3.293.08 6.27.83 9.77.83 1.53.015 3.032-.03 4.542 0 3.5 0 6.49-.75 9.787-.83 3.297.08 6.282.83 9.783.83 1.516.015 3.03-.03 4.53 0 3.5 0 6.475-.75 9.765-.83 2.55.063 4.92.52 7.486.725l-.515-.893c-1.404-.168-2.836-.32-4.37-.32-1.528-.022-3.035.03-4.546 0-3.5 0-6.474.747-9.765.828-3.297-.08-6.284-.83-9.787-.83-1.513-.02-3.03.032-4.526 0-3.5 0-6.493.75-9.786.83-3.293-.08-6.283-.83-9.782-.83-1.522-.02-3.042.032-4.547 0-3.498 0-6.475.75-9.764.83-3.294-.08-6.27-.83-9.77-.83-1.52-.02-3.025.032-4.525 0-3.5 0-6.49.75-9.785.83-3.294-.08-6.283-.83-9.783-.83-1.52-.02-3.043.032-4.547 0z"/><use xlink:href="#h" y="-1.113"/><use xlink:href="#h" y="-2.23"/></g><use xlink:href="#i" y="-3.344"/><use xlink:href="#i" y="-6.691"/><path d="M453.23 307.458l-.123.215h93.79l-.124-.215H453.23zm-.22.377l-.126.22h94.235l-.128-.22h-93.98zm-.2.346l-.204.357h94.792l-.205-.356H452.81zm-.317.552l-.25.433h95.518l-.25-.433h-95.017zm-.4.69l-.25.435h96.317l-.25-.434h-95.816zm-.398.692l-.247.43h97.107l-.247-.43h-96.613zm-.398.692l-.25.43h97.91l-.25-.43h-97.41zm-.43.744l-.304.53h98.877l-.303-.53h-98.27zM457.357 312.287c3.45.662 3.782 0 3.782 0zm81.503 0s.33.662 3.782 0z"/></g><g fill="#ccd11e"><g id="k"><path fill="url(#j)" d="M530.63 297.043c-1.708 0-2.23.862-2.23.862-2.737 10.576-11.808 21.333-22.6 21.333h-8.082v10.768c0 .003.012 0 .017 0h61.498l-6.187-10.954c-9.707-1.45-17.64-11.373-20.166-21.147 0 0-.54-.862-2.25-.862z"/><path fill="#97c924" d="M530.63 297.465c-.783 0-1.26.18-1.537.355-.264.165-.315.276-.32.288 0 .007-.016.01-.02.016-1.4 5.323-4.35 10.67-8.333 14.707-4.012 4.07-9.07 6.83-14.605 6.83h-7.674v9.923h60.856l-5.68-10.058c-4.687-.612-8.973-3.163-12.458-6.694-3.986-4.037-6.932-9.383-8.334-14.706l-.017-.016c-.007-.012-.07-.105-.338-.27-.284-.177-.755-.373-1.54-.373z"/><path fill="#ede71f" d="M530.63 297.465c.147 0 .28.02.406.034.024 3.016 0 8.108 0 10.8-.03 2.34-.83 4.223-2.012 6.44-.547 1.555-.986.964-2.35 2.858-1.83.654-3.186.91-5.138 1.216-2.517.398-8.12.75-10.887.136 3.64-1.068 6.96-3.27 9.77-6.12.747-.757 1.46-1.56 2.13-2.4 1.118-1.4 2.128-2.913 3.01-4.48.352-.626.686-1.248.997-1.893.467-.966.883-1.95 1.25-2.94.124-.33.245-.667.356-.998.222-.665.417-1.33.592-1.996.002-.006.015-.01.016-.017.007-.012.06-.122.322-.287.136-.085.332-.17.575-.237h.017c.252-.067.554-.118.946-.118z"/><path fill="#c6cb24" d="M529.938 298.902c-.412 6.034-2.277 13.192-6.644 17.81-1.607 1.337-3.66 2.55-5.646 2.255 6.77-5.51 10.885-13.947 12.29-20.065z"/><path fill="#9ecb34" d="M524.494 309.28c-1.002 2.722-4.788 6.747-8.84 10.046-1.15.035-1.76.1-2.804.038 2.468-.225 8.22-5.083 11.644-10.083z"/></g><use xlink:href="#k" x="-15.341"/><g fill="#c6cb24"><path fill="url(#j)" d="M502.218 297.91c2.735 10.576 11.79 21.334 22.583 21.334h8.09v10.768c0 .003-.015 0-.017 0h-65.795c-.006 0-.017.003-.017 0v-10.768h8.073c10.792 0 19.863-10.758 22.6-21.333 0 0 .534-.865 2.243-.865s2.243.866 2.243.866z"/><path fill="#97c924" d="M499.975 297.465c.784 0 1.255.196 1.538.372.27.166.332.26.34.27l.016.017c1.4 5.323 4.347 10.67 8.332 14.707 4.017 4.07 9.087 6.83 14.623 6.83h7.64v9.923h-64.98v-9.923h7.675c5.535 0 10.593-2.76 14.605-6.83 3.982-4.037 6.934-9.383 8.334-14.706.002-.007.014-.01.016-.016.006-.012.057-.123.32-.288.28-.174.755-.355 1.54-.355z"/><path fill="#ede71f" d="M499.263 297.53c-.086.016-.167.035-.242.055h-.017c-.243.066-.436.15-.572.236-.263.166-.313.275-.32.287-.002.006-.016.01-.017.017-.175.666-.37 1.333-.593 1.997-.11.333-.233.665-.356.996-.37.99-.782 1.976-1.25 2.942-.31.644-.645 1.268-.997 1.894-.882 1.567-1.89 3.077-3.01 4.477-.67.84-1.384 1.644-2.13 2.402-2.81 2.85-6.128 5.05-9.77 6.117 2.766.614 4.033-.057 6.55-.455 1.952-.308 4.21-.563 6.043-1.217 1.364-1.894.9-1.3 1.446-2.854 1.18-2.218 2.906-4.222 3.334-6.68 1.62-3.023 1.903-8.615 1.903-10.214z"/><path d="M499.275 298.902c-.412 6.034-2.277 13.192-6.644 17.81-1.605 1.337-3.66 2.55-5.645 2.255 6.77-5.51 10.885-13.947 12.29-20.065z"/><path fill="#9ecb34" d="M493.832 309.28c-1.002 2.722-4.788 6.748-8.84 10.046-1.15.035-1.76.1-2.804.038 2.467-.225 8.222-5.083 11.644-10.083z"/><path fill="#ede71f" d="M500.95 297.584h.02c.24.067.434.15.57.236.264.165.315.274.32.286.003.006.017.01.02.018.174.665.37 1.333.59 1.996.112.332.235.665.358.995.368.99.782 1.976 1.25 2.942.31.645.644 1.268.997 1.895.882 1.566 1.89 3.076 3.01 4.477.67.84 1.383 1.644 2.13 2.4 2.81 2.85 6.128 5.446 9.768 6.513-7.245.028-10.39-.63-13.022-4.016-2.632-3.387-3.605-4.868-4.14-6.937-.534-2.068-2.025-6.57-1.87-10.806z"/><path d="M501.476 298.902c.412 6.034 2.22 12.006 6.587 16.625 1.607 1.337 3.66 2.55 5.646 2.255-7.336-5.002-10.83-12.762-12.234-18.88z"/></g><g id="l"><path fill="url(#j)" d="M484.75 297.043c-1.71 0-2.25.862-2.25.862-2.522 9.747-11.824 22.318-21.496 23.81l-4.79 8.29h49.015V318.66c-8.826-2.37-15.89-11.63-18.25-20.753 0 0-.522-.862-2.23-.862z"/><path fill="#97c924" d="M484.75 297.465c-.785 0-1.256.196-1.54.372-.268.166-.33.26-.337.27l-.017.017c-1.402 5.323-4.678 10.705-8.08 14.99-3.402 4.283-9.72 8.617-14.042 9.076l-4.282 7.393h48.06V318.89c-3.554-1.09-6.8-3.267-9.552-6.06-3.982-4.037-6.934-9.383-8.334-14.706-.002-.007-.015-.01-.017-.016-.007-.012-.06-.123-.322-.288-.28-.174-.755-.355-1.54-.355z"/><path fill="#93bc30" d="M483.445 298.903c-.617 9.043-5.653 20.454-11.34 22.42-1.855.64-5.1.864-6.227 1.008 9.948-4.73 15.828-15.852 17.567-23.427z"/><path fill="#ede71f" d="M484.746 297.465c-.147 0-.28.02-.406.034-.023 3.016 0 8.108 0 10.8.03 2.34.83 4.223 2.012 6.44.07.195.136.355.203.49.41 1.087.713 1.464 2.282 2.655 4.987 3.787 11.17 4.353 14.808 4.04-1.14-.898-2.358-1.715-3.43-2.467 1.71-.056 3.35-.25 4.512-.508-3.64-1.067-6.96-3.27-9.77-6.12-.49-.496-.945-1.02-1.403-1.554-.21-.292-.5-.698-.592-.812-1.118-1.4-2.263-2.947-3.145-4.513-.352-.626-.686-1.248-.997-1.893-.467-.966-.883-1.95-1.25-2.94-.124-.33-.245-.667-.356-.998-.223-.665-.417-1.33-.592-1.996-.002-.006-.015-.01-.017-.017-.006-.012-.057-.122-.32-.287-.137-.085-.333-.17-.576-.237h-.018c-.25-.067-.554-.118-.946-.118z"/><path d="M485.446 298.902c.412 6.034 2.277 13.192 6.644 17.81 1.606 1.337 3.66 2.55 5.646 2.255-6.77-5.51-10.886-13.947-12.29-20.065z"/><path fill="#9ecb34" d="M489.613 307.247c2.37 5.837 8.37 11.29 14.543 14.954 1.15.036 1.492.004 2.537-.06-4.42-2.37-11.54-5.753-17.08-14.893z"/></g><use xlink:href="#l" x="-15.43" fill="#c6cb24"/></g><g><path fill="#fff" d="M556.5 324.692c-.574.203-4.42-.19-6.433-.044l-1.28.336c-1.123-.008-2.238.024-3.33 0-3.602 0-6.65.948-10.075.948-3.433 0-6.47-.948-10.075-.948-1.12-.008-2.234.025-3.33 0-3.602 0-6.647.948-10.076.948-3.428 0-6.472-.948-10.074-.948-1.13-.007-2.242.023-3.348 0-3.602 0-6.632.948-10.058.948-3.43 0-6.456-.948-10.058-.948-.267 0-.516.01-.776.017-.178-.003-.377-.016-.557-.016-.12 0-.223-.003-.34 0-.117-.003-.237 0-.356 0-.18 0-.345.013-.523.017-.258-.007-.51-.016-.778-.016-3.606 0-6.643.95-10.076.948-3.43 0-6.473-.948-10.075-.948-.26 0-.52.01-.775.017-.18-.003-.34-.016-.522-.016-.124 0-.252-.003-.374 0-.118-.003-.238 0-.357 0-.18 0-.362.013-.54.017-.26-.007-.51-.016-.776-.016-2.88 0-6.218.607-8.936.85l-6.272 10.858 62.972-.007 64.375.007z"/><path fill="url(#a)" d="M547.993 323.11c-.2 0-.398 0-.596.008-3.24.095-5.564 1.115-11.2 1.115-5.638 0-6.22-1.02-12.584-.88-5.947.132-8.443 1.263-11.67 1.218-3.228-.043-8.473-.696-12.51-.274-4.037.423-8.828 1.284-11.973 1.29-3.91-.016-7.82-.73-11.906-.323-4.087.406-5.997 1.5-11.063 1.485-4.355-.013-9.082-.698-12.745-.695-3.435.003-7.267.957-10.086 1.443l-.844 1.464c2.247-.26 8.55-1.218 10.802-1.277 2.344-.06 10.717.483 15.335.325 4.618-.16 5.158-1.172 10.618-1.172 3.802 0 6.667.4 10.567.4 2.434 0 4.643-1.243 8.343-1.243.936-.027 1.865-.06 2.794-.09 3.12-.516 8.384.044 12.048.23 3.315.174 5.457-.614 8.914-.73 1.496-.067 2.998-.065 4.474-.147 3.46-.115 6.422.64 9.68.624 3.25-.2 6.403-.922 9.86-1.037 1.51-.07 2.998-.072 4.49-.148 2.287-.076 5.837.078 8.273.5l-.84-1.45c-2.38-.075-5.31-.634-8.18-.634z"/><g id="n"><path id="m" fill="url(#a)" d="M450.312 334.748c-3.457 0-6.402.853-9.652.945-1.21-.033-2.367-.183-3.535-.345l-.49.85c.486.032.975.063 1.488.063 1.502.02 2.99-.035 4.474 0 3.457 0 6.382-.85 9.634-.944 3.255.092 6.207.945 9.667.945 1.5.02 2.993-.035 4.474 0 3.458 0 6.413-.852 9.667-.944 3.256.092 6.23.945 9.687.945 1.495.02 2.993-.035 4.47 0 3.457 0 6.4-.852 9.652-.944 3.253.092 6.19.945 9.65.945 1.51.02 2.998-.035 4.49 0 3.457 0 6.41-.852 9.666-.944 3.257.092 6.21.945 9.67.945 1.495.02 2.99-.035 4.47 0 3.456 0 6.4-.852 9.65-.944 3.254.092 6.21.945 9.667.945 1.5.02 2.995-.035 4.473 0 .605 0 1.196-.033 1.778-.076l-.462-.797c-1.064.144-2.133.276-3.235.306-3.254-.092-6.195-.945-9.652-.945-1.51-.02-2.996.03-4.49 0-3.457 0-6.396.853-9.648.945-3.257-.09-6.206-.945-9.666-.945-1.496-.02-2.993.03-4.473 0-3.458 0-6.413.853-9.667.945-3.254-.092-6.21-.945-9.666-.945-1.503-.02-3.003.03-4.49 0-3.458 0-6.4.853-9.65.945-3.253-.092-6.194-.945-9.65-.945-1.507-.02-2.99.03-4.475 0-3.46 0-6.41.854-9.666.945-3.255-.092-6.21-.945-9.667-.945-1.502-.02-3.006.03-4.49 0z"/><use xlink:href="#m" y="-1.289"/><use xlink:href="#m" y="-2.575"/></g><use xlink:href="#n" y="-3.867"/><use xlink:href="#n" y="-7.729"/></g><path fill="#97c924" d="M443.846 324.705l-2.427 4.19c2.838-.47 7.1-1.702 10.633-1.705 3.663-.003 8.082.903 12.438.916 5.067.014 6.977-1.08 11.064-1.485 4.086-.406 7.998.528 11.906.546 3.145-.007 7.936-1.09 11.973-1.512 4.037-.422 7.737.293 12.603.37 4.866.074 5.63-1.18 11.576-1.312 6.366-.14 6.947.878 12.584.878 4.242.23 7.883-.854 11.666-1.12 3.784-.27 5.54.042 8.305.108l-1.838-3.253c-.032 0-.062.003-.093.004l-101.246 2.225z"/><path fill="#fff" d="M550.067 324.648s2.71.148 3.847.276c1.138.127 2.955.253 2.955.253l-.37-.485c-.574.203-4.42-.19-6.433-.044z"/></g><path fill="#c8a400" d="M500 224.874l-32.142 55.686L435 337.46l64.298-.008 65.702.007-32.153-55.684L500 224.874zm0 3.002l31.55 54.652 30.85 53.428-63.102-.004-61.7.004 31.558-54.645z"/></svg>