<svg xmlns:xlink="http://www.w3.org/1999/xlink" xmlns="http://www.w3.org/2000/svg" width="726" height="885" viewBox="-17.582 -4.664 71.571 87.246"><title>Flag of Nepal</title><desc>Coding according to the official construction in &quot;Constitution of the Kingdom of Nepal, Article 5, Shedule 1&quot;, adopted in November 1990</desc><use xlink:href="#a" stroke="#003893" stroke-width="5.165"/><path id="a" d="M-15 37.574h60L-15 0v80h60l-60-60z" fill="#DC143C"/><g fill="#fff"><path d="M-11.95 23.483a12.84 12.84 0 0 0 23.9 0 11.95 11.95 0 0 1-23.9 0"/><g transform="matrix(5.6 0 0 5.6 0 29)"><circle r="1"/><g id="d"><g id="c"><path id="b" d="M.383-.924L.27-1.362 0-1"/><use xlink:href="#b" transform="rotate(23)"/><use xlink:href="#b" transform="rotate(45)"/></g><use xlink:href="#c" transform="rotate(68)"/></g><use xlink:href="#d" transform="scale(-1 1)"/></g><g transform="matrix(8.1 0 0 8.1 0 58.8)"><circle r="1"/><g id="g"><g id="f"><path id="e" d="M.26.966l-.26.61-.26-.61"/><use xlink:href="#e" transform="rotate(180)"/></g><use xlink:href="#f" transform="rotate(90)"/></g><use xlink:href="#g" transform="rotate(30)"/><use xlink:href="#g" transform="rotate(60)"/></g></g></svg>