<svg xmlns="http://www.w3.org/2000/svg" xmlns:xlink="http://www.w3.org/1999/xlink" height="600" width="1200"><defs><clipPath id="b"><path d="M0 0h600v300H0z"/></clipPath><clipPath id="c"><path d="M0 0l300 150H0zm300 0h300L300 150zm0 150h300v150zm0 0v150H0z"/></clipPath><g id="d"><g id="a"><path d="M0-.325v.5l1-.5z"/><path d="M.19.263l-.293-.405L1-.325z"/></g><use xlink:href="#a" transform="scale(-1 1)"/><use xlink:href="#a" transform="rotate(72 0 0)"/><use xlink:href="#a" transform="rotate(-72 0 0)"/><use xlink:href="#a" transform="rotate(108)"/></g></defs><path fill="#00247d" d="M0 0h1200v600H0z"/><path stroke="#fff" d="M0 0l600 300M0 300L600 0" stroke-width="60" clip-path="url(#b)"/><path stroke="#cc142b" d="M0 0l600 300M0 300L600 0" stroke-width="40" clip-path="url(#c)"/><path stroke="#fff" d="M300 0v300M0 150h600" stroke-width="100" clip-path="url(#b)"/><path stroke="#cc142b" d="M300 0v300M0 150h600" stroke-width="60" clip-path="url(#b)"/><g><use xlink:href="#d" fill="#fff" transform="matrix(45.4 0 0 45.4 900 120)"/><use xlink:href="#d" fill="#cc142b" transform="matrix(30 0 0 30 900 120)"/><g transform="rotate(82 900 240)"><use xlink:href="#d" fill="#fff" transform="matrix(5.6 -40 40 5.6 900 120)"/><use xlink:href="#d" fill="#cc142b" transform="matrix(3.5 -24.8 24.8 3.5 900 120)"/></g><g transform="rotate(82 900 240)"><use xlink:href="#d" fill="#fff" transform="matrix(6.3 -45 45 6.3 900 380)"/><use xlink:href="#d" fill="#cc142b" transform="matrix(4.2 -29.7 29.7 4.2 900 380)"/></g><g><use xlink:href="#d" fill="#fff" transform="matrix(50.4 0 0 50.4 900 480)"/><use xlink:href="#d" fill="#cc142b" transform="matrix(35 0 0 35 900 480)"/></g></g></svg>