<svg xmlns="http://www.w3.org/2000/svg" xmlns:xlink="http://www.w3.org/1999/xlink" width="600" height="400"><clipPath id="a"><ellipse cx="300" cy="201" rx="85.849" ry="88.189"/></clipPath><path fill="#ce1126" d="M0 0h600v400H0z"/><path fill="#fff" d="M0 100h600v200H0z"/><g clip-path="url(#a)"><g fill="#ff9c10"><path d="M277.29 191.02l-14.575-.42v-5.762l14.575 6.182zM277.23 189.34l-14.515-7.383v-9.602s-1.7.24-1.458-1.68c.08-4.002 10.667 7.302 16.093 10.983l-.12 7.682zM214.37 214.37l30.606.24v-18.966l-34.98-1.67 4.373 20.405zM212.91 188.2l32.55 3.12-.24-13.443-31.823-12.484-.487 22.807zM219.47 161.32l25.02 12.003 3.574-3.686s-2.3-1.567-2.187-3.01c.043-1.457 2.314-1.678 2.358-3.26.04-1.46-2.573-1.634-2.602-3.093-.17-1.58 2.016-3.277 2.016-3.277l-22.592-19.446-5.588 23.77zM383.68 214.61h-32.307l-.242-18.485 35.465-2.64-2.915 21.126zM384.47 187.91c-.408-3-.836-5.995-1.53-8.938-.932-3.94-2.122-7.816-3.564-11.594-.106-.278-.265-.534-.375-.812l-27.624 11.562.25 13.688 32.844-3.906zM365.59 143.47l-16.53 12.5c.026 1.196 1.218 2.116 1.547 3.26.763 1.607-.753 3.027-1.692 4.162-.76 1.047.88 1.58 1.424 2.2 1.2 1.23.153 3.16-1.125 3.878 1.54.92 2.318 2.645 2.656 4.344l24.75-12.875c-2.96-6.237-6.65-12.133-11.03-17.47zM319.56 191.44l13.845-.6.242-5.523-14.088 6.123zM319.55 188.44l-.06-6.24s13.116-11.704 15.91-13.865c0 2.4-1.518 4.26-1.518 4.26v9.124l-14.332 6.72zM234.54 135.87c.242.24 14.718 16.14 14.718 16.14.406-1.507 3.744-1.736 7.144-1.495 3.402.24 6.113-.226 6.113 2.175 0 2.4-1.726 2.06-1.726 3.74s2.584 1.54 2.584 3.7-1.875 1.72-1.884 3.392c-.006 1.383 1.956 1.456 1.956 1.456l13.785 13.205.06-14.105-28.42-44.052-14.33 15.845zM257.28 119.19c.216.64 19.25 38.906 19.25 38.906s.216-35.913 3.46-37.837l-5.406-9.835-17.303 8.765zM319.41 115.06l-7.188 24.844c2.24.267 4.504.34 6.756.214 2.025.174.448 2.072.556 3.195l-.03 15.278 20.312-35.874c-4.67-2.438-9.627-4.248-14.616-5.905-1.902-.67-3.836-1.253-5.79-1.75zM344.69 125.44l-25.125 38.625-.03 14.875c5.593-5.322 11.216-10.617 16.793-15.957 1.058-1.5-3.36-2.233-1.152-4.06 2-.63 2.34-3.862.233-4.483-1.736-2.548 1.57-3.9 3.653-3.62 2.9.133 5.888-.63 8.725.174 1.56 1.493 3-2.255 4.532-3.1 3.03-3.046 6.063-6.09 9.058-9.172-4.937-5.146-10.573-9.615-16.688-13.282z"/></g><g fill="#083d9c" stroke="#083d9c" stroke-width="1.932"><path stroke-width="2.057" d="M279.88 275.41c-6.178.35-12.334 4.518-15.22 6.75 5.18 2.267 10.71 4.037 16.595 5.25 9.375 1.574 18.75 1.563 28.125 1.563 1.53-.193 3.045-.41 4.53-.657l19.75-6.656s-9.5-6.27-17.03-6c-7.53.27-12.615 7.638-18.688 7.094-6.072-.544-8.505-7.344-17.25-7.344-.273 0-.54-.015-.812 0z"/><path d="M244.01 270.31l112.23.48s-9.716-10.323-21.134-10.563c-11.417-.24-8.258 4.802-17.003 5.52-8.744.722-10.932-5.28-18.948-5.04-8.015.24-12.632 5.04-18.703 5.282-6.073.238-13.846-6.004-18.462-5.763-4.616.24-21.134 7.202-21.134 7.202l3.158 2.88zM229.68 257.1l138.46.48c2.186-3.12-6.802-10.562-15.06-11.283-6.804.24-11.66 6.962-17.247 7.203-5.587.24-11.902-6.963-18.22-6.72-6.314.238-12.873 6.72-19.19 6.72-6.314 0-10.93-6.963-18.945-6.963-8.016 0-11.66 7.682-17.733 7.203-6.074-.48-11.418-7.682-17.247-7.682-5.83 0-15.546 8.642-17.49 8.16-1.942-.478 2.43 3.603 2.673 2.882zM283.21 243.86l30.908-.018c.24-.24-6.92-10.55-15.45-9.823-9.5.245-15.955 9.84-15.458 9.84zM381.77 243.12h-42.294s5.474-3.197 6.966-6.147c2.736 1.475 1.99 2.95 7.464 3.196 5.473.245 10.697-6.147 15.923-5.9 5.223.244 11.94 9.096 11.94 8.85zM215.1 243.12h42.294s-5.474-3.197-6.966-6.147c-2.736 1.475-1.99 2.95-7.464 3.196-5.472.245-10.697-6.147-15.923-5.9-5.223.244-11.94 9.096-11.94 8.85zM218.26 229.98l30.12.24s-1.942-4.08-2.184-9.122c-7.776-2.64-14.09 5.76-19.677 6-5.587.24-11.416-6-11.416-6l3.157 8.882zM379.07 229.98l-30.122.24s1.944-4.08 2.186-9.122c7.775-2.64 14.09 5.76 19.677 6 5.588.24 11.417-6 11.417-6l-3.157 8.882zM290.89 230.22l15.302-.48s.244-4.56-7.773-4.56-7.287 5.28-7.53 5.04z"/></g><g fill="#ce1126" stroke="#630810" stroke-width="1.932" stroke-linejoin="round"><path d="M282.87 181l31.823 8.403v-44.895c-14.576.72-26.72-27.368-.972-29.288-25.262-3.6-28.178 2.88-31.092 9.843L282.87 181zM289.94 221.58c-6.921 11.33-25.425 7.97-29.752.06-1.296-.363-.53-48.8-.53-48.8s-2.067-.93-2.163-2.42c-.094-1.504 2.812-1.64 2.812-3.565 0-1.924-2.968-1.17-3.027-3.106.012-1.853 3.168-1.598 3.027-3.31-.167-1.927-3.534-1.642-3.677-3.42-.11-1.412 2.408-2.643 3.108-3.278-.453.022-2.34-.028-2.35-.034-1.768.036-3.535.07-5.3.107-3.766.004.064.81.01 2.958-.035 1.403-1.91 2.336-2.078 3.556-.06 1.25 2.683 2.13 2.717 3.633.032 1.34-2.694 1.432-2.596 2.677.17 2.11 2.415 2.573 2.38 3.85-.033 1.274-3.02 1.76-3.027 2.778.104 1.968.432 49.807.432 49.807 4.76 24.37 32.228 30.57 40.015-1.496zM308.05 221.58c6.921 11.33 25.424 7.97 29.75.06 1.297-.363.53-48.8.53-48.8s2.07-.93 2.164-2.42c.094-1.504-2.63-1.64-2.63-3.565 0-1.924 2.787-1.17 2.845-3.106-.013-1.853-2.926-1.717-2.785-3.43.166-1.927 2.454-1.702 2.584-3.48.108-1.53-1.437-2.463-2.137-3.098.453.022 2.217-.028 2.23-.034 1.766.036 3.533.07 5.3.107 3.765.004-.066.81-.01 2.958.034 1.403 1.91 2.336 2.077 3.556.06 1.25-2.684 2.13-2.718 3.633-.03 1.34 2.695 1.432 2.596 2.678-.17 2.11-2.414 2.573-2.38 3.85.034 1.274 3.02 1.76 3.028 2.778-.103 1.968-.43 49.807-.43 49.807-4.76 24.37-32.23 30.57-40.016-1.496z"/></g><g fill="#630810" stroke="#630810" stroke-width="2.792" stroke-linecap="round"><path d="M281.66 223.73c2.672-1.442 5.1-2.88 6.802-6.243l-10.446.24s-4.856 2.882-7.287 6.003h10.93zM315.42 223.73c-2.672-1.442-5.1-2.88-6.8-6.243l10.444.24s4.857 2.882 7.286 6.003h-10.93zM262.71 213.65l71.903.24"/><g id="b"><path d="M266.11 196.61l8.502 11.284M266.11 207.89l9.232-11.043M270.97 195.88l-.243 6.962"/></g><use xlink:href="#b" x="13.604"/><use xlink:href="#b" x="27.45"/><use xlink:href="#b" x="41.782"/><use xlink:href="#b" x="55.628"/></g></g></svg>