<svg xmlns="http://www.w3.org/2000/svg" xmlns:xlink="http://www.w3.org/1999/xlink" width="600" height="450" viewBox="0 0 768 576"><title>Flag of Papua New Guinea</title><path d="M0 0h768v576H0z"/><path d="M0 0h768v576z" fill="#ce1126"/><path d="M475.485 167.354c-5.673 7.326-19.095-7.37-35.175-7.706-16.08-.335-27.47 15.41-32.16 20.77-4.69 5.36-19.765 33.5-19.43 36.515.335 3.015 9.38-8.374 12.73-10.384.335 4.02-3.685 8.71-2.68 10.05 1.005 1.338 11.724-8.04 15.41-8.376 1.005 2.68-2.01 5.36-1.005 9.38 1.34 1.34 7.37-6.7 11.39-8.375.67 3.014-3.685 8.71-1.34 12.394 1.675.334 11.724-11.39 15.075-12.73 3.35-1.34-1.676 11.054 0 12.06 3.015-2.01 12.395-12.73 15.41-14.07 3.015-1.34-.334 13.735 1.005 13.735 3.685-2.682 13.065-15.41 14.07-17.42 1.005-2.01-1.005 19.43 9.38 30.82 10.385 11.39 26.13 24.454 27.805 24.454 2.01-3.685-.67-11.39 1.005-11.055 4.69 5.024 13.4 12.394 15.41 12.394s-1.34-8.04 1.34-8.04c5.36 5.025 20.77 24.79 50.92 33.835-2.01-5.696-6.366-10.72-6.7-13.4 2.01.334 9.046 3.685 10.385 3.35 1.34-.337-14.74-20.1-13.735-22.78 3.685-.336 5.36 2.01 6.7.333-1.675-2.68-15.745-18.424-15.745-22.11 0-3.685 4.356.67 5.695 0 1.34-.67-5.36-14.74-4.02-16.414 1.34-1.676 16.08 9.044 19.765 9.044 3.685 0 1.005-13.065 2.68-13.736 1.675-.67 14.07 7.035 16.75 7.035 2.68 0 2.345-5.695 3.35-5.025 1.005.67 30.15 29.816 20.1 63.986-10.05 24.455-30.15 37.52-59.63 26.8 1.675 2.68 17.42 15.745 34.505 11.055 17.085-4.69 37.854-18.09 35.51-51.59-2.345-33.5-13.4-38.19-15.075-43.216-1.675-5.025 2.68 1.34 6.365 2.68s-.67-7.035-1.675-10.72c-1.005-3.686 11.055 7.705 14.07 8.71 3.015 1.005-7.035-27.47-10.05-29.48-3.015-2.01 3.015.67 5.025 1.34 2.01.67-18.426-31.155-22.78-31.155-4.355 0 3.684-1.677 6.03-1.677 2.345 0-23.45-20.77-27.805-20.77s9.38-5.36 10.72-5.695c2.345.334-29.815-17.085-58.625.334-1.675-1.338 13.57-11.89 14.07-16.413.168-1.174-5.024-3.687-5.36-5.026-.335-1.34 8.04-5.36 8.375-8.375-2.01-2.68-5.695-1.676-7.705-2.346-.502-2.512 7.036-8.71 6.365-11.39-.502-1.507-6.03-2.01-7.37-1.004-1.34 1.005 3.518-7.035 2.68-9.38-.67-1.005-3.35-.335-6.03.335-1.675-.335 8.71-14.74 6.7-16.75-2.01-2.01-30.15 14.74-40.535 33.5-10.385 18.76-2.344 33.834-3.685 40.2-1.34 6.364-3.016 12.73-7.37 12.73-4.355 0-14.404-6.7-17.755-10.05-3.35-3.35-4.02-5.696-8.71-7.036-4.69-1.34-15.41 2.68-19.43 3.014-4.02.335-19.765-3.015-20.77-2.01-1.005 1.005 15.41 7.035 19.095 9.045 3.685 2.01 4.02 4.69 6.7 6.364 2.68 1.674 27.805 9.045 19.765 19.43zm98.155 47.235c8.04 8.04 62.31 44.22 62.31 88.44s-39.53 42.88-50.92 41.54c12.73 10.72 60.97 8.71 60.97-41.54 0-44.22-62.31-88.44-70.35-92.46-8.04-4.02-10.05-4.02-2.01 4.02z" fill="#fcd116"/><g fill="#fff"><path d="M220.254 418.6l11.455-36.852L243.163 419 213 396.168h37.418z"/><path id="a" d="M192.418 178.496l-22.91 73.702 60.328-44.862H155L215.327 253z"/><use xlink:href="#a" x="-88" y="112.504"/><use xlink:href="#a" x="87.582" y="104.504"/><use xlink:href="#a" y="264.504"/></g></svg>