<svg xmlns="http://www.w3.org/2000/svg" xmlns:xlink="http://www.w3.org/1999/xlink" version="1" width="1050" height="700"><defs><linearGradient id="a"><stop offset="0"/><stop offset="1" stop-color="#fff"/></linearGradient><linearGradient id="c"><stop offset="0" stop-color="#4a0000"/><stop offset="1" stop-color="#ffcf00"/></linearGradient><linearGradient id="b"><stop offset="0"/><stop offset="1" stop-color="#00f"/></linearGradient><linearGradient x1="41.458" y1="237.941" x2="52.6" y2="227.494" id="x" xlink:href="#c" gradientUnits="userSpaceOnUse" gradientTransform="matrix(1.1 0 0 .8 .4 452.1)"/><linearGradient x1="60.328" y1="184.92" x2="72.657" y2="173.36" id="w" xlink:href="#c" gradientUnits="userSpaceOnUse" gradientTransform="matrix(.9 0 0 1 .4 467.4)"/><linearGradient x1="120.224" y1="156.071" x2="119.338" y2="162.873" id="v" xlink:href="#b" gradientUnits="userSpaceOnUse" gradientTransform="matrix(.8 0 0 1.1 .4 452.1)"/><linearGradient x1="55.699" y1="184.074" x2="69.66" y2="170.985" id="u" xlink:href="#c" gradientUnits="userSpaceOnUse" gradientTransform="matrix(.9 0 0 1 .4 467.4)"/><linearGradient x1="89.291" y1="215.985" x2="89.458" y2="193.804" id="t" xlink:href="#c" gradientUnits="userSpaceOnUse" gradientTransform="matrix(1.1 0 0 .8 .4 467.4)"/><linearGradient x1="56.002" y1="105.014" x2="63.752" y2="105.014" id="s" xlink:href="#b" gradientUnits="userSpaceOnUse" gradientTransform="matrix(.7 0 0 1.2 19.4 478.5)"/><linearGradient x1="30.909" y1="133.207" x2="40.913" y2="133.207" id="r" xlink:href="#b" gradientUnits="userSpaceOnUse" gradientTransform="matrix(.9 0 0 .9 19.4 478.5)"/><linearGradient x1="13.504" y1="126.427" x2="23.247" y2="126.427" id="q" xlink:href="#b" gradientUnits="userSpaceOnUse" gradientTransform="matrix(.8 0 0 1.1 19.4 478.5)"/><linearGradient x1="13.377" y1="148.054" x2="23.037" y2="148.054" id="p" xlink:href="#b" gradientUnits="userSpaceOnUse" gradientTransform="matrix(1 0 0 .9 19.4 478.5)"/><linearGradient x1="56.194" y1="176.524" x2="50.624" y2="173.209" id="o" xlink:href="#b" gradientUnits="userSpaceOnUse" gradientTransform="matrix(.8 0 0 1.2 19.9 478.5)"/><linearGradient x1="30.063" y1="219.749" x2="23.649" y2="215.93" id="n" xlink:href="#b" gradientUnits="userSpaceOnUse" gradientTransform="matrix(1 0 0 .9 19.9 478.5)"/><linearGradient x1="39.92" y1="179.646" x2="33.016" y2="175.535" id="m" xlink:href="#b" gradientUnits="userSpaceOnUse" gradientTransform="matrix(.8 0 0 1.1 19.9 478.5)"/><linearGradient x1="50.516" y1="183.579" x2="44.601" y2="180.057" id="l" xlink:href="#b" gradientUnits="userSpaceOnUse" gradientTransform="matrix(.9 0 0 1 19.9 478.5)"/><linearGradient x1="201.717" y1="217.617" x2="200.051" y2="212.729" id="k" xlink:href="#b" gradientUnits="userSpaceOnUse" gradientTransform="matrix(1 0 0 .9 19.4 478.5)"/><linearGradient x1="244.207" y1="187.464" x2="241.923" y2="182.494" id="j" xlink:href="#b" gradientUnits="userSpaceOnUse" gradientTransform="matrix(.8 0 0 1.1 19.4 478.5)"/><linearGradient x1="321.593" y1="149.736" x2="315.632" y2="147.61" id="i" xlink:href="#b" gradientUnits="userSpaceOnUse" gradientTransform="matrix(.7 0 0 1.3 19.4 478.5)"/><linearGradient x1="314.233" y1="165.933" x2="310.074" y2="165.064" id="h" xlink:href="#b" gradientUnits="userSpaceOnUse" gradientTransform="matrix(.7 0 0 1.2 19.4 478.5)"/><linearGradient x1="133.102" y1="225.513" x2="115.366" y2="219.954" id="g" xlink:href="#b" gradientUnits="userSpaceOnUse" gradientTransform="matrix(1 0 0 .9 19.4 478.5)"/><linearGradient x1="140.902" y1="187.709" x2="135.367" y2="184.645" id="f" xlink:href="#b" gradientUnits="userSpaceOnUse" gradientTransform="matrix(.9 0 0 1 19.4 478.5)"/><linearGradient x1="187.142" y1="150.675" x2="182.271" y2="149.971" id="e" xlink:href="#b" gradientUnits="userSpaceOnUse" gradientTransform="matrix(.7 0 0 1.3 19.4 478.5)"/><linearGradient x1="178.245" y1="173.502" x2="174.871" y2="172.798" id="d" xlink:href="#b" gradientUnits="userSpaceOnUse" gradientTransform="matrix(.8 0 0 1.2 19.4 478.5)"/></defs><path fill="#fff" overflow="visible" d="M0 233.333h286v233.333H0z"/><path d="M278.444 351.205c-.7.86-1.508 2.476-1.67 3.498-.215 1.077-.86 2.96-1.4 4.198-1.4 3.123-1.345 5.76.162 8.02 1.885 2.853 5.06 2.8 6.568-.053 1.4-2.637 1.023-6.35-.86-9.15-1.67-2.422-1.885-4.628-.81-7.158.7-1.454-.537-1.077-1.99.645zM285.12 368.266c-1.024.43-2.154 1.184-2.53 1.723-3.016 3.928 3.82 8.233 8.774 5.596 5.33-2.906 5.49-2.96 8.022-2.1 2.153.7 2.26.7 1.83-.16-.86-1.615-2.207-2.37-7.43-4.145-5.975-1.99-6.19-1.99-8.667-.914zM264.554 369.558c-2.477 1.668-5.114 2.045-7.053 1.023-1.506-.807-1.667-.322-.43 1.292.647.808 2.1 1.67 3.392 1.992 1.24.323 3.392 1.076 4.792 1.614 3.23 1.346 6.137 1.346 8.344 0 4.47-2.69 1.67-7.535-4.307-7.535-1.72 0-3.013.43-4.736 1.615zM277.528 375.425c-.27.592-.538 2.206-.538 3.66-.108 9.633-3.93 18.73-11.144 26.587-1.56 1.668-2.853 3.175-2.853 3.39 0 .54 8.075.377 9.152-.215.97-.484 1.076-.323 1.4 1.56.43 2.585 1.884 5.06 3.66 6.244 1.13.755 1.562.81 2.8.163 2.153-1.023 3.553-3.23 3.822-6.028.27-2.1.485-2.476 1.184-2.1.486.216 2.91.485 5.385.593l4.522.215-2.37-2.798c-4.467-5.275-5.92-7.266-7.697-10.765-2.476-4.79-3.5-8.557-3.93-14.262-.162-2.69-.538-5.382-.754-6.082-.538-1.453-1.884-1.56-2.638-.16zM94.514 351.57c-.7.862-1.507 2.477-1.67 3.5-.214 1.076-.86 2.96-1.398 4.198-1.4 3.12-1.346 5.76.16 8.02 1.885 2.852 5.062 2.798 6.57-.055 1.4-2.637 1.022-6.35-.862-9.15-1.67-2.42-1.884-4.628-.808-7.158.7-1.453-.538-1.076-1.992.646zM101.19 368.633c-1.023.43-2.154 1.184-2.53 1.722-3.015 3.93 3.822 8.234 8.775 5.597 5.33-2.906 5.49-2.96 8.02-2.1 2.155.7 2.262.7 1.832-.16-.862-1.615-2.208-2.368-7.43-4.144-5.975-1.992-6.19-1.992-8.667-.915zM80.625 369.924c-2.477 1.67-5.115 2.045-7.053 1.023-1.507-.807-1.67-.323-.43 1.292.646.806 2.1 1.667 3.39 1.99 1.24.323 3.393 1.076 4.793 1.615 3.23 1.345 6.137 1.345 8.344 0 4.467-2.69 1.668-7.535-4.308-7.535-1.722 0-3.015.43-4.737 1.614zM93.6 375.79c-.27.593-.54 2.207-.54 3.66-.107 9.635-3.93 18.73-11.143 26.588-1.56 1.67-2.854 3.176-2.854 3.39 0 .54 8.076.378 9.153-.214.97-.485 1.076-.323 1.4 1.56.43 2.584 1.884 5.06 3.66 6.244 1.13.753 1.56.807 2.8.16 2.153-1.02 3.553-3.228 3.822-6.027.27-2.098.484-2.475 1.184-2.098.485.215 2.907.485 5.384.592l4.522.215-2.37-2.8c-4.467-5.274-5.92-7.265-7.697-10.763-2.476-4.79-3.5-8.558-3.93-14.263-.16-2.69-.538-5.382-.753-6.082-.538-1.453-1.884-1.56-2.638-.16zM185.527 351.354c-.7.86-1.507 2.476-1.67 3.5-.214 1.075-.86 2.96-1.4 4.197-1.398 3.122-1.345 5.76.163 8.02 1.884 2.853 5.06 2.8 6.568-.054 1.4-2.637 1.023-6.35-.862-9.15-1.67-2.42-1.884-4.628-.807-7.158.7-1.453-.54-1.076-1.993.646zM192.203 368.416c-1.023.43-2.154 1.184-2.53 1.722-3.016 3.93 3.822 8.234 8.774 5.597 5.33-2.906 5.492-2.96 8.022-2.1 2.152.7 2.26.7 1.83-.16-.862-1.615-2.208-2.368-7.43-4.144-5.976-1.99-6.19-1.99-8.667-.914zM171.637 369.707c-2.476 1.67-5.114 2.045-7.052 1.023-1.508-.807-1.67-.323-.43 1.292.645.807 2.1 1.668 3.39 1.99 1.24.324 3.392 1.077 4.792 1.616 3.23 1.345 6.137 1.345 8.345 0 4.468-2.69 1.67-7.535-4.307-7.535-1.723 0-3.015.43-4.738 1.614zM184.612 375.574c-.27.592-.54 2.206-.54 3.66-.106 9.634-3.93 18.73-11.143 26.587-1.562 1.67-2.854 3.177-2.854 3.392 0 .538 8.075.377 9.152-.215.97-.485 1.077-.323 1.4 1.56.43 2.584 1.884 5.06 3.66 6.244 1.13.754 1.562.808 2.8.162 2.154-1.022 3.553-3.23 3.822-6.028.27-2.1.485-2.476 1.185-2.1.484.216 2.907.486 5.383.593l4.523.215-2.368-2.798c-4.47-5.275-5.922-7.266-7.7-10.764-2.475-4.79-3.498-8.558-3.93-14.263-.16-2.69-.537-5.382-.752-6.082-.54-1.453-1.885-1.56-2.638-.16zM5.36 351.205c-.7.86-1.508 2.476-1.67 3.498-.215 1.077-.86 2.96-1.4 4.198-1.4 3.123-1.345 5.76.162 8.02 1.884 2.853 5.06 2.8 6.568-.053 1.4-2.637 1.023-6.35-.86-9.15-1.67-2.422-1.886-4.628-.81-7.158.7-1.454-.537-1.077-1.99.645zM12.035 368.266c-1.023.43-2.154 1.184-2.53 1.723-3.015 3.928 3.822 8.233 8.775 5.596 5.33-2.906 5.49-2.96 8.02-2.1 2.155.7 2.262.7 1.832-.16-.862-1.615-2.208-2.37-7.43-4.145-5.975-1.99-6.19-1.99-8.667-.914zM277.164 200.17c-.7.86-1.507 2.475-1.67 3.497-.214 1.077-.86 2.96-1.4 4.198-1.398 3.122-1.345 5.76.163 8.02 1.884 2.852 5.06 2.8 6.568-.054 1.4-2.636 1.023-6.35-.862-9.15-1.67-2.42-1.884-4.627-.807-7.157.7-1.453-.54-1.076-1.992.646zM283.84 217.23c-1.023.43-2.154 1.184-2.53 1.723-3.016 3.93 3.822 8.234 8.774 5.597 5.33-2.906 5.492-2.96 8.022-2.1 2.153.7 2.26.7 1.83-.16-.86-1.615-2.207-2.37-7.43-4.145-5.975-1.99-6.19-1.99-8.666-.915zM263.274 218.522c-2.476 1.668-5.114 2.045-7.052 1.023-1.508-.808-1.67-.323-.43 1.29.645.81 2.1 1.67 3.39 1.993 1.24.323 3.392 1.076 4.792 1.614 3.23 1.346 6.137 1.346 8.345 0 4.467-2.69 1.668-7.535-4.308-7.535-1.723 0-3.015.43-4.738 1.615zM276.25 224.39c-.27.59-.54 2.205-.54 3.658-.107 9.634-3.93 18.73-11.144 26.588-1.56 1.668-2.853 3.175-2.853 3.39 0 .54 8.075.377 9.152-.215.97-.483 1.077-.322 1.4 1.562.43 2.584 1.884 5.06 3.66 6.243 1.13.754 1.562.808 2.8.162 2.154-1.023 3.553-3.23 3.822-6.028.27-2.1.485-2.477 1.185-2.1.484.215 2.907.484 5.383.592l4.523.215-2.37-2.798c-4.468-5.276-5.92-7.267-7.698-10.766-2.476-4.79-3.5-8.557-3.93-14.262-.16-2.69-.538-5.382-.753-6.082-.54-1.453-1.885-1.56-2.638-.16zM93.235 200.535c-.7.86-1.508 2.476-1.67 3.5-.215 1.075-.86 2.96-1.4 4.197-1.4 3.12-1.345 5.76.163 8.02 1.884 2.852 5.06 2.798 6.568-.055 1.4-2.637 1.022-6.35-.862-9.15-1.67-2.42-1.884-4.628-.807-7.158.7-1.454-.54-1.077-1.992.645zM99.91 217.597c-1.023.43-2.153 1.184-2.53 1.722-3.015 3.928 3.822 8.233 8.775 5.596 5.33-2.906 5.49-2.96 8.022-2.1 2.153.7 2.26.7 1.83-.16-.86-1.615-2.207-2.368-7.43-4.144-5.975-1.992-6.19-1.992-8.667-.915zM79.345 218.888c-2.476 1.67-5.114 2.045-7.052 1.023-1.508-.806-1.67-.322-.43 1.293.645.807 2.1 1.668 3.39 1.99 1.24.324 3.392 1.077 4.792 1.616 3.23 1.344 6.137 1.344 8.344 0 4.468-2.692 1.668-7.536-4.307-7.536-1.723 0-3.015.43-4.738 1.614zM92.32 224.755c-.27.592-.54 2.206-.54 3.66-.107 9.634-3.93 18.73-11.143 26.587-1.56 1.67-2.853 3.176-2.853 3.39 0 .54 8.075.378 9.152-.214.97-.485 1.077-.323 1.4 1.56.43 2.584 1.884 5.06 3.66 6.244 1.13.753 1.562.807 2.8.16 2.153-1.02 3.553-3.228 3.822-6.027.27-2.1.485-2.476 1.185-2.1.484.216 2.907.486 5.383.593l4.522.215-2.368-2.798c-4.47-5.275-5.922-7.266-7.7-10.764-2.475-4.79-3.498-8.557-3.93-14.262-.16-2.69-.537-5.382-.753-6.082-.538-1.453-1.884-1.56-2.638-.16zM184.247 200.318c-.7.86-1.507 2.476-1.67 3.5-.214 1.075-.86 2.96-1.398 4.197-1.4 3.12-1.347 5.76.16 8.02 1.884 2.852 5.06 2.798 6.568-.055 1.4-2.637 1.023-6.35-.86-9.15-1.67-2.42-1.885-4.628-.81-7.158.7-1.453-.537-1.076-1.99.646zM190.923 217.38c-1.023.43-2.153 1.184-2.53 1.722-3.015 3.93 3.822 8.234 8.775 5.597 5.33-2.907 5.49-2.96 8.02-2.1 2.155.7 2.262.7 1.832-.16-.862-1.616-2.207-2.37-7.43-4.145-5.975-1.992-6.19-1.992-8.667-.915zM170.358 218.67c-2.477 1.67-5.115 2.046-7.053 1.024-1.507-.807-1.67-.323-.43 1.292.646.807 2.1 1.668 3.39 1.99 1.24.324 3.393 1.077 4.793 1.616 3.23 1.345 6.137 1.345 8.344 0 4.468-2.69 1.67-7.535-4.307-7.535-1.722 0-3.015.43-4.737 1.614zM183.332 224.538c-.27.592-.538 2.206-.538 3.66-.108 9.634-3.93 18.73-11.144 26.587-1.56 1.67-2.853 3.176-2.853 3.39 0 .54 8.075.378 9.152-.214.968-.484 1.075-.322 1.398 1.56.43 2.585 1.885 5.06 3.66 6.245 1.132.753 1.562.807 2.8.16 2.154-1.02 3.554-3.228 3.823-6.027.27-2.1.485-2.476 1.185-2.1.485.216 2.907.486 5.384.593l4.52.216-2.368-2.798c-4.468-5.275-5.922-7.266-7.698-10.764-2.477-4.79-3.5-8.558-3.93-14.263-.162-2.69-.54-5.38-.754-6.08-.538-1.454-1.884-1.562-2.638-.162zM4.08 200.17c-.7.86-1.508 2.475-1.67 3.497-.215 1.077-.86 2.96-1.4 4.198-1.4 3.122-1.345 5.76.162 8.02 1.885 2.852 5.06 2.8 6.568-.054 1.4-2.636 1.023-6.35-.86-9.15-1.67-2.42-1.885-4.627-.81-7.157.7-1.453-.537-1.076-1.99.646zM10.755 217.23c-1.023.43-2.153 1.184-2.53 1.723-3.015 3.93 3.822 8.234 8.775 5.597 5.33-2.906 5.49-2.96 8.022-2.1 2.153.7 2.26.7 1.83-.16-.86-1.615-2.207-2.37-7.43-4.145-5.975-1.99-6.19-1.99-8.667-.915zM4.148 224.39c-.27.59-.538 2.205-.538 3.658-.054 4.817-1.437 10.3-3.308 14.76.132 6.865.34 9.874-.138 16.564.43 2.584 1.885 5.06 3.66 6.243 1.132.754 1.562.808 2.8.162 2.154-1.023 3.554-3.23 3.823-6.028.27-2.1.485-2.477 1.184-2.1.486.215 2.908.484 5.385.592l4.522.215-2.37-2.798c-4.467-5.276-5.92-7.267-7.697-10.766-2.477-4.79-3.5-8.557-3.93-14.262-.162-2.69-.538-5.382-.754-6.082-.538-1.453-1.884-1.56-2.638-.16zM232.586 429.263c-.7.86-1.507 2.476-1.67 3.498-.214 1.078-.86 2.96-1.398 4.2-1.4 3.12-1.346 5.758.16 8.02 1.885 2.85 5.062 2.797 6.57-.055 1.4-2.637 1.022-6.35-.862-9.15-1.67-2.422-1.884-4.628-.808-7.158.7-1.453-.538-1.076-1.992.646zM239.262 446.324c-1.023.43-2.153 1.184-2.53 1.723-3.015 3.928 3.822 8.234 8.775 5.597 5.33-2.906 5.49-2.96 8.02-2.1 2.155.7 2.262.7 1.832-.16-.863-1.615-2.208-2.37-7.43-4.145-5.976-1.992-6.192-1.992-8.668-.916zM218.697 447.616c-2.477 1.668-5.115 2.045-7.053 1.023-1.507-.81-1.67-.324-.43 1.29.646.808 2.1 1.67 3.39 1.992 1.24.323 3.393 1.076 4.793 1.614 3.23 1.346 6.137 1.346 8.344 0 4.47-2.69 1.67-7.535-4.306-7.535-1.722 0-3.015.432-4.737 1.616zM231.67 453.482c-.268.592-.537 2.207-.537 3.66-.108 9.634-3.93 18.73-11.144 26.588-1.562 1.668-2.855 3.175-2.855 3.39 0 .54 8.076.377 9.153-.215.97-.484 1.076-.323 1.4 1.56.43 2.585 1.884 5.06 3.66 6.244 1.13.753 1.56.807 2.8.16 2.153-1.022 3.553-3.228 3.822-6.027.27-2.1.484-2.476 1.184-2.1.485.216 2.907.485 5.384.593l4.522.215-2.37-2.798c-4.467-5.274-5.92-7.265-7.697-10.764-2.477-4.79-3.5-8.557-3.93-14.262-.162-2.69-.54-5.382-.754-6.082-.54-1.453-1.885-1.56-2.64-.162zM48.657 429.63c-.7.86-1.507 2.475-1.67 3.498-.214 1.076-.86 2.96-1.4 4.198-1.398 3.12-1.344 5.758.163 8.02 1.884 2.85 5.06 2.798 6.568-.055 1.4-2.636 1.023-6.35-.86-9.148-1.67-2.422-1.886-4.63-.81-7.16.7-1.452-.537-1.075-1.99.647zM55.333 446.69c-1.023.43-2.154 1.185-2.53 1.723-3.015 3.93 3.822 8.234 8.775 5.597 5.33-2.906 5.49-2.96 8.02-2.1 2.155.7 2.262.7 1.832-.16-.862-1.615-2.208-2.368-7.43-4.145-5.976-1.99-6.19-1.99-8.667-.915zM34.768 447.982c-2.477 1.67-5.115 2.045-7.053 1.023-1.507-.808-1.67-.323-.43 1.29.645.81 2.1 1.67 3.39 1.993 1.24.323 3.393 1.076 4.792 1.614 3.23 1.346 6.138 1.346 8.345 0 4.468-2.69 1.67-7.534-4.307-7.534-1.723 0-3.015.43-4.737 1.614zM47.742 453.85c-.27.59-.538 2.205-.538 3.658-.108 9.634-3.93 18.73-11.144 26.588-1.562 1.67-2.854 3.176-2.854 3.39 0 .54 8.076.378 9.152-.214.97-.485 1.077-.323 1.4 1.56.43 2.584 1.884 5.06 3.66 6.244 1.13.753 1.562.807 2.8.16 2.154-1.022 3.553-3.228 3.823-6.027.27-2.1.485-2.477 1.185-2.1.485.215 2.907.484 5.384.592l4.52.215-2.368-2.798c-4.468-5.276-5.922-7.267-7.698-10.766-2.477-4.79-3.5-8.557-3.93-14.262-.162-2.69-.54-5.382-.754-6.082-.54-1.453-1.884-1.56-2.638-.16zM139.67 429.412c-.7.86-1.508 2.476-1.67 3.5-.215 1.075-.86 2.96-1.4 4.197-1.4 3.12-1.345 5.757.163 8.018 1.884 2.852 5.06 2.8 6.568-.054 1.4-2.637 1.023-6.35-.86-9.15-1.67-2.42-1.885-4.628-.808-7.158.7-1.453-.54-1.076-1.992.646zM146.345 446.473c-1.023.43-2.153 1.185-2.53 1.723-3.015 3.93 3.822 8.234 8.775 5.597 5.33-2.906 5.492-2.96 8.022-2.1 2.153.7 2.26.7 1.83-.16-.86-1.615-2.207-2.368-7.43-4.145-5.975-1.99-6.19-1.99-8.667-.915zM125.78 447.765c-2.476 1.67-5.114 2.045-7.052 1.023-1.508-.808-1.67-.323-.43 1.29.645.81 2.1 1.67 3.39 1.993 1.24.324 3.392 1.077 4.792 1.615 3.23 1.346 6.137 1.346 8.345 0 4.468-2.69 1.668-7.534-4.307-7.534-1.723 0-3.015.43-4.738 1.615zM138.755 453.632c-.27.592-.54 2.206-.54 3.66-.107 9.633-3.93 18.73-11.143 26.587-1.56 1.668-2.853 3.175-2.853 3.39 0 .538 8.074.377 9.15-.215.97-.485 1.078-.323 1.4 1.56.43 2.584 1.885 5.06 3.66 6.244 1.132.752 1.563.806 2.8.16 2.154-1.023 3.554-3.23 3.823-6.028.27-2.1.485-2.476 1.185-2.1.484.216 2.907.485 5.383.593l4.523.215-2.368-2.798c-4.47-5.275-5.922-7.266-7.7-10.765-2.475-4.79-3.498-8.557-3.93-14.262-.16-2.69-.537-5.382-.753-6.082-.538-1.453-1.884-1.56-2.637-.16z"/><path font-size="12" fill="#ca0000" fill-rule="evenodd" d="M0 466.667h286V700H0z"/><path font-size="12" fill="#0092c8" fill-rule="evenodd" d="M286.062 0H1050v700H286.062z"/><g id="y" font-size="12"><path d="M150.87 666.402c-.836 1.353 1.46 7.356 5.01 7.204-2.315-3.712-2.07-8.03-2.07-8.03l-2.94.826z" fill="url(#d)" fill-rule="evenodd" stroke="#650000" stroke-width=".999"/><path d="M142.056 659.902c-1.28.19-4.37 8.08.556 10.896.157-4.9 2.476-7.807 2.476-7.807l-2.546-2.19-.486-.898z" fill="url(#e)" fill-rule="evenodd" stroke="#650000" stroke-width=".999"/><path d="M141.45 655.194c-1.245-1.307-6.622 2.49-6.4 8.157 3.304-3.777 7.216-3.482 7.216-3.482l-.817-4.674z" fill="url(#f)" fill-rule="evenodd" stroke="#650000" stroke-width=".999"/><path d="M147.667 650.614c-.088-1.777-4.765-3.83-7.22-.278 3.53.402 5.543 3.718 5.543 3.718l1.677-3.44z" fill="url(#g)" fill-rule="evenodd" stroke="#650000" stroke-width=".999"/><path d="M241.99 667.142c-.087 1.628.33 2.195 1.13 3.11.8.913 1.705 3.63 1.705 3.63s2.562-7.155 1.92-8.115c-.64-.96-4.598 1.33-4.756 1.375z" fill="url(#h)" fill-rule="evenodd" stroke="#650000" stroke-width=".999"/><path d="M228.437 664.18c-1.275-.244-3.687 5.67-1.68 9.727 1.01-4.7 3.767-6.747 3.767-6.747l-2.087-2.98z" fill="url(#i)" fill-rule="evenodd" stroke="#650000" stroke-width=".999"/><path d="M222.22 662.402c-.994-1.133-5.287 2.157-5.11 7.068 2.637-3.273 5.76-3.017 5.76-3.017l-.65-4.05z" fill="url(#j)" fill-rule="evenodd" stroke="#650000" stroke-width=".999"/><path d="M225.477 654.81c-.684-1.51-5.507-.267-6.46 4.47 3.25-1.952 6.153-.343 6.153-.343l.307-4.128z" fill="url(#k)" fill-rule="evenodd" stroke="#650000" stroke-width=".999"/><path d="M65.17 651.49c.464-1.66-3.145-6.262-6.457-4.482 3.076 2.433 3.885 6.616 3.885 6.616l2.572-2.133z" fill="url(#l)" fill-rule="evenodd" stroke="#650000" stroke-width=".999"/><path d="M51.34 661.875c-1.203-1.5-6.256 2.768-5.954 9.22 3.08-4.268 6.806-3.894 6.806-3.894l-.85-5.325z" fill="url(#m)" fill-rule="evenodd" stroke="#650000" stroke-width=".999"/><path d="M51.78 652.748c-.517-2.124-6.432-1.834-8.454 3.993 4.197-1.626 7.31 1.23 7.31 1.23l1.145-5.222z" fill="url(#n)" fill-rule="evenodd" stroke="#650000" stroke-width=".999"/><path d="M57.806 669.98c-.324 1.57 0 2.243.648 3.364.648 1.12 1.134 4.036 1.134 4.036s3.563-6.278 3.077-7.4c-.485-1.12-4.697 0-4.86 0z" fill="url(#o)" fill-rule="evenodd" stroke="#650000" stroke-width=".999"/><path d="M43.127 597.786c0-2.242-5.67-4.586-8.933.04 4.352.316 6.642 4.4 6.642 4.4l2.29-4.44z" fill="url(#p)" fill-rule="evenodd" stroke="#650000" stroke-width=".999"/><path d="M37.24 606.716c-1.203-1.5-6.255 2.768-5.954 9.22 3.082-4.268 6.807-3.894 6.807-3.894l-.852-5.326z" fill="url(#q)" fill-rule="evenodd" stroke="#650000" stroke-width=".999"/><path d="M57.825 597.016c.548-2.11-4.216-6.97-8.416-4.146 4.017 2.336 5.175 7.25 5.175 7.25l3.24-3.104z" fill="url(#r)" fill-rule="evenodd" stroke="#650000" stroke-width=".999"/><path d="M64.55 604.72c.946-1.21-.83-7.54-4.37-7.96 1.988 4.06 1.383 8.308 1.383 8.308l2.988-.348z" fill="url(#s)" fill-rule="evenodd" stroke="#650000" stroke-width=".999"/><path d="M83.455 612.15c-3.56-4.144-.042-11.7 3.15-8.477-1.672-3.092 1.062-5.54 2.302-3.99-.577-2.518 2.045-4.186 3.33-1.863-.46-2.807 3.427-4.45 4.435-1.382.068-2.76 3.868-4.937 4.707-.897.74-3.11 4.975-3.516 5.326.902 1.236-2.57 4.412-2.382 4.597 1.352 1.373-1.756 4.92.872 4.317 3.98 2.19-.476 4.87 3.96 2.198 7.232 4.738-2.528 5.858 5.667 2.978 9.388 1.49.91 1.62.106 2.935.788s3.698 1.805 5.878 2.29c1.97 0 9.198-.228 10.676-.456 1.478-.227 3.5-1 5.913-1.82 2.53-.818 6.185-.85 9.522-1.66 2.643-.296 76.87 1.206 79.005.98 2.136-.228 5.252-2.28 5.088-4.782-.165-2.5-2.624-4.314-5.088-4.54-2.463-.228-15.11-.228-17.41.226-2.3.455-5.584 1.592-7.226 3.184-.79.508-2.095 2.433-3.2 3.698-1.036.873-3.958 1-3.958-.135 0-.744-.245.142-.963.43-.933.584-5.137.744-4.95 0 .328-.84-.023-1.106-1.128-.227-.822.682-6.63.933-7.698.258.64-1.07.645-1.008-1.1-.13-1.106.486-5.683.867-6.012-.067-.044-.735-.562-.374-1.208-.165-5.187 1.357-5.685-.214-4.864-.896.822-.683 2.065-4.586.75-4.358-1.313.227-9.525 1.82-12.317 2.274-2.792.454-22.995 0-25.787-.228-2.792-.227-5.912-2.855-6.077-6.593-.293-5.997 4.598-7.504 7.554-8.413 2.957-.91 10.348-2.274 13.304-2.274 2.957 0 11.39 1.046 13.69.137 2.298-.91 9.28-3.45 11.255-3.638 2.91-.27 11.25.715 15.224 5.494-2.07.94-3.042 1.494-.694.646 2.136-.455 11.3-2.365 13.436-2.865 7.39-.318 5.452.82 1.838 1.73-1.206 3.843-12.067 9.21-15.516 9.892-3.45.682-10.77.182-12.405-.116-1.643-.124-9.414-.512-12.244-2.345-4.57-3.1-13.017-5.138-16.72-5.067-3.464.07-13.346 1.108-13.304 4.548-.052 6.042 9.197 6.367 13.14 6.14 3.94-.228 13.796-.682 16.588-1.82 2.792-1.136 8.83-1.415 12.116-1.415 3.285 0 8.086.734 9.564.506 1.478-.226 4.928-.278 6.57-1.415 1.642-1.137 5.214-2.325 8.827-2.325 3.613 0 30.428-1.033 34.04-.806 5.232-.036 8.927 5.68 8.99 10.543.03 2.274-1.083 5.634-2.03 6.154 1.624.15 5.685.61 7.025.888 2.516.5 6.594 3.272 7.062 5.798-1.91-1.16-4.995-2.913-7.775-3.105-.544.007-59.076-.097-63.676-.07 12.508 1.48 22.067 11.113 24.455 16.628 2.135 3.41 7.39 2.046 9.362 1.59 1.97-.453 4.27-2.5 5.913-4.09 1.643-1.593 4.21-1.997 5.37-1.593 2.553-.227 3.007 2.5 2.02 3.866-.984 1.365.165.804 2.792.804 2.628 0 4.945.98 6.495 3.044-1.478 1.364-2.223.245-.088.473 2.134.228 4.712 4.144 3.12 5.25-1.392.69-1.807.435 0 .662 2.693.228 3.427 1.972 3.777 5.072-2.28.418-1.15-.297 0 .84s2.825 6.17-1.314 6.366c-1.478-.682-1.45-.814-1.136.733.292 1.592-.506 5.406-2.806 5.406-3.185.613-6.076-1.138-6.404-3.184-.33-2.046-.286 3.95-4.802 4.895-4.265.95-6.53-1.483-6.86-2.62-.328-1.137-.164-.228-1.806-.455-1.643-.227-3.713-.248-4.6-2.956 0-1.592.32-3.69 3.247-3.973 1.314-.228 1.68-1.94.696-2.167-.985-.227-.164-3.638 1.972-2.728 2.135.91 7.062 1.137 8.212 2.273 1.15 1.137 1.478-.91-.33-2.728-1.805-1.82-12.81-5.457-15.766-4.093-6.884 3.47-18.396 2.956-20.367 2.5-1.97-.453-7.662.787-10.346-7.502-2.177-8.464-10.45-12.647-14.228-13.102-18.636-1.754-17.623-.405-5.538.168-.09 1.58-.528 4.815 1.43 5.29 3.286-.455 10.124-1.905 11.766-.54 1.643 1.363 3.285 2.5 2.957 5.683-.328 3.184.165 2.275-1.313 3.64-1.48 1.363-.822 4.092 1.478 5 2.3.91 3.285 2.048 4.763 3.412 1.478 1.364-.657 4.092-1.97 3.183-1.315-.91-1.315-.91-1.48.91-.164 1.818-1.796 5.26-4.572 5.513-.583-.22-.42-1.16-.355-1.876.166-1.59-.554 1.977-1.412 2.967-.547.667-5.197 1.975-6.51 1.293.586-1.424.247-.843-.903-.16-1.122.447-7.175 1.288-4.478-1.6.7-1.052-.962 1.315-1.878 1.727-.772.48-4.364.775-4.364-.59-1.14 1.003-3.854 1.003-4.27.228-.82-.91-.9.682-2.377.91-1.48.227-4.687-.228-4.85-2.047-.165-1.818.327-.68-1.48-.454-4.398 2.918-6.57-1.137-6.57-2.5 0-1.365-.163-2.957.33-3.866.492-.91-3.06-1.184-1.972-2.975 1.225-2.19 2.51-3.795 4.928-3.392 1.15.228.985-.454.493-1.364-.494-.91 1.313-1.365 3.448-.456 2.135.91 3.613 3.184 4.27 5.23.657 2.046 5.75.455 7.884.682 2.135.227 2.3-3.41.985-4.547-1.314-1.138-4.927-5.23-6.405-6.595-1.478-1.364-.493-6.14.82-7.276 7.65-5.172 3.45-6.822.658-6.367-2.792.454-9.967 3.326-12.267 5.827-2.3 2.5-20.164 14.76-21.807 16.124-1.642 1.364-4.03 1.695-5.016.104-.986-1.592-1.643-.455-1.48 1.818 1.306 8.588-6.405 11.325-7.757 11.217-.94-.098-2.29-.62-3.26-1.43-.96 4.8-5.197 5.277-9.027 4.803-.058-.567.715-1.625.293-1.22-1.267 1.65-5.157 1.476-8.497 1.225-.222-1.002 1.152-2.218.495-1.536-1.12 2.11-3.05 1.732-6.173 1.508-.036-.445 1.448-1.932.756-1.042-1.367 1.495-4.214 1.027-6.425 1.064-.262-.335 1.143-2.685-.142-1.132-1.228 1.326-3.83 1.547-6.315 1.19-.442-1.116.517-1.128.78-1.83.658-1.136-.327 0-1.148 0-.822 0-1.97.228-2.464-.91-.493-1.135-.21 1.138-.687 1.758-.478.536-1.016 1.798-2.66 2.252-1.64.455-5.912.91-6.57-1.136-.884-.942-1.313-2.956-.656-4.093.657-1.137-3.127 2.193-4.763 2.5-4.81.93-5.42-6.593-3.284-7.275 2.136-.682 1.807-1.82.657-2.728-1.15-.91-1.806-4.548-.328-5.685 1.478-1.136 4.9-1.767 7.062-.454 1.266.87 3.976 3.852 3.45 1.592-.366-1.396.57-3.173 1.62-3.936.91-.84 3.71-1.052 4.457.753 1.73 4.183 2.956 5.985 5.09 5.91 4.55-1.243 10.697-2.65 12.504-2.65 2.318-.552 14.59-1.756 14.59-2.893-7.36 2.548-10.335-.75-11.157-.522-.82.227-2.842-.74-2.842-1.373 0-1.364 1.854-1.2-.774-.747-1.574-.13-2.975-.202-4.3-1.844-.216-.838 1.74-3.722 2.45-6.146-1.695-.46-5.445 2.595-6.674 5.287-.86-1.032-1.21-.093-4.287.66-1.452.632-3.814.405-5.128-.277-1.313-.683-6.46-4.584-3.97-5.086-.657-.32-1.41-.505-1.906-.642-1.808-.77-3.516-2.27-2.99-2.682-.458-.683.523-.68-.2-.818-.986-.227-3.413-1.997-2.79-2.68-.622-.412-2.1-1.046-2.725-1.365-1.15-.682-2.3-3.05-2.466-4.186-1.06.102-3.32-1.903-2.3-2.5-1.726-1.283-3.195-3.393-2.045-4.075-1.008-.795-1.71-2.245-1.01-1.702-1.047-1.282-.723-2.638.1-2.638.82 0 .49-3.637-.987-3.637-1.478 0-3.855 1.147-5.584 0-1.422-1.088-2.628-5.912-1.314-7.958 1.314-2.047 3.942-4.32 5.256-4.093 1.314.227.657.682.328-1.364-.328-2.047 1.855-3.584 3.285-4.093 1.733-.793 5.09-.227 6.076.682.986.91 1.314.91 1.314-.682 0-1.118 1.27-1.7 2.398-1.994 1.88-.443 3.35.09 4.008.858 1.02 1.463 1.642 3.183.328 4.548-1.314 1.364-.174.207 1.962-.247 1.375-.456 3.856.13 4.28 1.61.57 1.59.985 4.32-.493 5.684-1.478 1.364-3.614 4.775-2.464 5.912 1.15 1.137 4.762 6.14 5.583 6.82.822.683 1.807 2.274 3.12 2.047 1.315-.227 2.793-.455 3.943-.682 4.563-.917 6.62-1.394.763-1.207 1.314-1.858 4.068-2.406 5.263-2.733-1.053-1.583 2.842-4.926 2.842-5.38z" fill="#ffcd00" fill-rule="evenodd" stroke="#650000" stroke-width=".999"/><path d="M83.464 630.6c-3.148-.495-11.112 6.405-8.543 14.986" fill="none" fill-rule="evenodd" stroke="#650000" stroke-width="1.081"/><path d="M83.943 622.907c-4.25 26.888 21.825 16.473 22.004 7.416" fill="none" fill-rule="evenodd" stroke="url(#t)" stroke-width="1.067"/><path d="M104.45 634.206c.348 3.532.553 13.4-3.097 15.923-3.65 2.522-8.22 2.82-11.787 1.61" fill="none" fill-rule="evenodd" stroke="#650000" stroke-width=".992"/><path d="M96.373 639.675c-.36 3.473-3.84 12.12-10.626 10.933M41.506 602.483c3.548.35 5.322 3.157 6.082 5.613.76 2.455 1.267 3.858 1.267 3.858M44.53 622.46c1.52.7 4.307 0 4.307 0" fill="none" fill-rule="evenodd" stroke="#650000" stroke-width=".999"/><path d="M46.01 626.242c3.356 1.052 6.712-.702 6.712-.702" fill="none" fill-rule="evenodd" stroke="#650000" stroke-width=".909"/><path d="M53.507 634.53c9.17 0 13.064-12.935 13.064-12.935" fill="none" fill-rule="evenodd" stroke="url(#u)" stroke-width="1.017" stroke-opacity=".261"/><path d="M72.167 628.44c-2.534 6.666-2.28 6.666-5.574 8.07l-3.295 1.403" fill="none" fill-rule="evenodd" stroke="#650000" stroke-width="1.232" stroke-opacity=".089"/><path d="M61.778 641.42c3.548-1.052 5.828-3.157 5.828-3.157M57.978 600.923c-2.027 2.456-1.774 7.016-1.774 7.016M99.788 601.08c.507 4.56-1.52 7.016-2.788 7.016-1.267 0-2.68 1.702-1.903 4.438M105.08 600.378c-2.28 3.157-2.787 6.665-2.027 9.472.76 2.806.04 3.622.04 3.622" fill="none" fill-rule="evenodd" stroke="#650000" stroke-width=".999"/><path d="M77.996 626.337c-4.055 1.088-5.706 8.508-3.546 12.498" fill="none" fill-rule="evenodd" stroke="#650000" stroke-width="1.244"/><path d="M115.245 615.813h-2.787s-1.774 3.86-4.815 2.806c-3.04-1.053-.253 0-.253 0M100.295 612.595c4.338.113 3.466 3.57.253 3.218.254 4.21-4.795 3.68-4.363.454-3.036.092-4.282-4.167.128-3.577M202.985 615.817c.893-2.72 5.003-5.195 5.003-5.195M197.012 615.675c1.787-3.215 5.003-5.194 5.003-5.194M188.29 615.975c2.715-1.636 3.477-2.282 4.37-3.125.96-.942 2.858-2.72 2.858-2.72" fill="none" fill-rule="evenodd" stroke="#650000" stroke-width=".999"/><path d="M180.715 615.874c1.99-1.04 3.528-1.65 4.86-2.635 1.67-1.174 2.826-2.76 2.826-2.76" fill="none" fill-rule="evenodd" stroke="#650000" stroke-width=".951"/><path d="M182.346 607.285c-6.318-2.15-9.143-6.42-9.143-6.42M192.862 598.182c-4.183 1.745-12.687.99-13.044.99M117.174 653.362c1.25-4.443 3.596-5.443 6.53-6.896 3.038-1.237 7.662-4.978 4.803-2.257-2.86 2.72-6.984 4.452-8.413 5.44-1.43.99-2.323 3.196-1.594 4.206" fill="none" fill-rule="evenodd" stroke="#650000" stroke-width=".999"/><path d="M111.174 636.54c2.68 4.453 1.024 10.65-2.37 12.382" fill="none" fill-rule="evenodd" stroke="#650000" stroke-width=".999" stroke-linecap="round"/><path d="M120.108 621.204c4.35 1.807 4.506 6.06 5.133 8.573-1.533-.71-2.647-.37-3.798-.892" fill="none" fill-rule="evenodd" stroke="#650000" stroke-width=".999"/><path d="M118.393 623.652c2.955 4.043 4.08 6.516 4.252 7.925.278 2.446.293 8.478-6.693 8.38.65-1.797 1.473-6.542.355-8.447" fill="none" fill-rule="evenodd" stroke="#650000" stroke-width=".913"/><path d="M116.753 635.844c0 3.958-2.734 5.582-3.985 6.077M106.17 618.236c.18 4.7-8.398 8.163-8.22.99" fill="none" fill-rule="evenodd" stroke="#650000" stroke-width=".999"/><path d="M97.926 619.473c-.18 3.463-4.9 4.205-6.534 1.236-1.27-1.98-1.997-2.97-2.905-3.216-.907-.248-.805-3.128-.99-3.55-.11-.578-.697-2.065-.99-2.625" fill="none" fill-rule="evenodd" stroke="#650000" stroke-width="1.007"/><path d="M91.11 620.473c2.192 3.827 7.418 1.53 8.767 3.06 1.35 1.532-1.31 6.864-2.153 9.925-1.948 2.636-6.286 2.465-7.882.507.86-3.656.93-11.45 1.1-11.706l.168-1.787z" fill="url(#v)" fill-rule="evenodd" stroke="#650000" stroke-width="1.052"/><path d="M51.8 598.13c.357 2.227-.18 2.722-.715 4.7-.536 1.98.178 5.443.178 5.443M50.857 660.22c1.787-.495 5.54 0 5.54 0M57.518 666.067c1.072-1.98 3.573-3.71 3.573-3.71M77.58 668.698c.894-1.236.894-5.194.894-5.194M84.1 668.67c1.42-1.624 1.5-5.107 1.5-5.107M89.28 668.58c1.43-2.72 1.197-5.865 1.197-5.865M97.4 668.878c.893-1.485.893-4.948.893-4.948M155.31 661.03c-3.216-.742-5.182 3.71-5.182 3.71M159.534 660.31c-.357 3.215-2.86 6.183-2.86 6.183M164.602 660.04c-.18 2.722-3.038 6.432-3.038 6.432M170.908 658.954c-.47 3.62-3.044 6.332-3.044 6.332M175.55 657.678c.18 3.216-1.428 8.163-2.5 9.152M181.09 659.05c.537 1.733 0 4.206 0 4.206M146.148 652.304c2.144.495 3.395 2.968 3.395 2.968M142.487 658.514c1.127-3.895 5.982-1.992 6.57-.947M234.186 640.57c-1.787-.246-4.467.743-4.467.743M242.495 643.983c-2.5.99-5.36 1.237-5.36 1.237M245.71 649.688c-2.144-.247-3.753-.247-3.753-.247M249.877 655.062c-2.144-.248-5.54 0-5.54 0M248.23 662.02c-.716-1.98-2.86-2.474-2.86-2.474M227.166 666.625c.536-2.97 4.087-5.348 6.053-5.348h1.965M224.217 660.062c2.144-.742 5.54-.99 5.54-.99M85.21 648.386c2.145-1.732 3.832-5.298 3.832-5.298M111.352 605.125c-2.144 2.227-2.322 2.474-2.322 2.474M113.497 609.33c-2.86.248-3.014.12-3.014.12" fill="none" fill-rule="evenodd" stroke="#650000" stroke-width=".999"/><path d="M103.318 607.662c2.114-.776 7.033-.123 6.962 1.68.003 2.213-1.923 2.348-7.005.254l.043-1.626v-.308z" fill="none" fill-rule="evenodd" stroke="#650000" stroke-width="1.132"/><path d="M96.654 607.892c.263-2.63-4.872-5.224-6.123-3.757-1.522 2.425 2.8 4.586 3.946 4.586 1.072 0 .437.14.437.14" fill="none" fill-rule="evenodd" stroke="#650000" stroke-width=".92"/><path d="M111.897 627.602c1.62 3.14 2.097 8.47.266 11.055" fill="none" fill-rule="evenodd" stroke="#650000" stroke-width=".999" stroke-opacity=".3"/><path d="M110.602 617.737c-1.944 5.38-.324 10.314-.324 10.314M87.6 619.082c-1.618 1.345-2.914.897-2.914.897" fill="none" fill-rule="evenodd" stroke="#650000" stroke-width=".999"/><path d="M106.066 634.778c1.62.897 3.888 6.278 3.564 8.072l-.324 1.794M105.42 637.02c.97 2.69 2.266 6.727 1.942 8.072l-.324 1.345M99.587 639.71c.648 2.69.324 7.176-.647 8.073l-.972.897M97.968 640.16c-.972 3.138-1.944 7.623-1.944 7.623" fill="none" fill-rule="evenodd" stroke="#650000" stroke-width=".999" stroke-opacity=".3"/><path d="M83.714 620.876c-1.944 2.69-4.535 5.38-4.535 5.38" fill="none" fill-rule="evenodd" stroke="#650000" stroke-width="2.161" stroke-linecap="round" stroke-opacity=".102"/><path d="M82.418 631.64c-1.62 1.344-3.887 4.483-3.887 4.483M84.362 636.123c-2.592-1.794-5.507 1.345-5.507 1.345" fill="none" fill-rule="evenodd" stroke="#650000" stroke-width=".999" stroke-opacity=".299"/><path d="M68.243 640.923c-.648 1.794-5.507 3.14-5.507 3.14" fill="none" fill-rule="evenodd" stroke="#650000" stroke-width="1.232" stroke-opacity=".095"/><path d="M108.037 608.27l-.324 2.03" fill="none" fill-rule="evenodd" stroke="#650000" stroke-width="1.94" stroke-linecap="round"/><path d="M94.71 604.607c-.38 1.526-1.055 3.094-1.055 3.094" fill="none" fill-rule="evenodd" stroke="#650000" stroke-width="1.574" stroke-linecap="round"/><path d="M79.487 620.437c-5.967 3.142-6.986 5.92-6.056 12.536" fill="none" fill-rule="evenodd" stroke="#650000" stroke-width=".999"/><path d="M120.028 611.393c-1.71.776-1.456 4.827-1.456 4.827" fill="none" fill-rule="evenodd" stroke="#600" stroke-width="1.197"/><path d="M83.695 605.753c1.824 1.288 1.094 5.152 1.094 5.152" fill="none" fill-rule="evenodd" stroke="#600" stroke-width="1.05"/><path d="M71.694 667.956c-.133 3.857-3.762 2.836-5.307 2.847l1.34-2.518c.19-.002.627.245 1.15-.148l2.817-.18z" fill="#390000" fill-opacity=".599"/><path d="M103.556 634.837c.415 1.852.383 3.086.235 5.094-.473 3.215-.617 3.317-1.93 5.97-.464.742-.235-.05-1.457 2.434l-4.274-2.948c.23.94 0-.685.206-1.004.66-1.283.623-1.49.84-3.07.09-1.44 1.213-3.845 1.86-1.502l4.52-4.973zM88.413 646.913c.977.282 3.384-.536 4.432-.76 1.676-.566.135-.857 1.503-2.14.38-.444.724-1.992 1.06-2.48l-1.817-.12c-.23 1.557-1.696.293-1.86.49-.66.643-.593.238-1.418.503-.752.145-1.57-.112-.333.35l-1.567 4.157zM182.83 637.323c-.55 3.09-1.313 4.69-2.676 7.156-2.492 3.595-4.814 5.54-8.056 7.147-1.032.304-2.036.5-3.086.61l-.483-10.393c.46-.034.895-.1 1.347-.223 1.603-.737 2.627-1.687 3.83-3.48.957-1.793 1.385-4.42.847-.33l8.276-.487z" fill="#390000" fill-opacity=".1"/><path d="M57.086 637.574c7.016-1.663 10.924-11.018 10.924-11.018" fill="none" fill-rule="evenodd" stroke="url(#w)" stroke-width="1.405" stroke-opacity=".261"/><path d="M48.897 629.225c7.112.42 12.355-7.585 12.355-7.585" fill="none" fill-rule="evenodd" stroke="url(#x)" stroke-width="1.405" stroke-opacity=".261"/><path d="M218.617 649.933l.35-.966c-.77 2.128-.576 1.145 2.094-.967h5.238c2.173.03 3.266.48 5.237.967 1.204.666 2.312 1.67 3.49 2.416" fill="none" fill-rule="evenodd" stroke="#700" stroke-width="2.556" stroke-opacity=".102"/><path d="M82.04 642.595c-.223 1.065 2.53 2.533 4.14 2.604 1.687-1.05 1.746-1.452 2.91-3.204.298-.585-.06-.19.178-.81l-3.58-3.434c-.453.273-.735.527-.863.785-.555.874-.543 1.37-1.378 1.87-.786.35-.87.156-.273.47l-.605.987-.53.73zM113.487 642.427c1.003-1.1 1.41-2.066 1.996-3.706.735-2.804.906-5.122.738-8.125-.13-.912-.292-1.78-.496-2.665l-3.92 1.79c.096.386.173.76.234 1.156.104 1.473-.005 2.514-.38 3.882-.434 1.163-1.296 2.068.075.765l1.754 6.904z" fill="#390000" fill-opacity=".1"/><path d="M116.172 624.214c1.286.152 2.005.66 3.133 1.614 1.7 1.84 2.727 3.71 3.72 6.44.234.893.422 1.772.58 2.702l-4.07 1.574c-.063-.408-.137-.792-.235-1.185-.47-1.357-.96-2.17-1.802-3.054-.816-.66-1.905-.756-.224-.723l-1.102-7.37zM109.887 647.746c1.082-1.773 1.972-.74 2.297-2.94.182-3.632-.288-6.422-1.445-9.85-.464-1.002-.96-1.935-1.52-2.87l-4.997 3.99c.252.404.476.802.684 1.237.598 1.67.762 2.94.65 4.72-.257 1.567.034 2.065 1.223 2.56l3.107 3.153z" fill="#390000" fill-opacity=".1"/><path d="M243.377 656.527c2.174.03 3.266.48 5.237.967 1.204.666 2.313 1.67 3.492 2.416M233.144 642.617c2.135-.555 3.27-.408 5.272-.46 1.275.33 2.503 1.016 3.764 1.43" fill="none" fill-rule="evenodd" stroke="#700" stroke-width="2.556" stroke-opacity=".102"/><path d="M199.246 648.442c-1.41.043-2.126-.315-3.412-.68-.79-.543-1.522-1.385-2.297-2" fill="none" fill-rule="evenodd" stroke="#700" stroke-width="1.926" stroke-opacity=".102"/><path d="M212.89 622.21c-7-.214-12.233-.33-16.93-.462-4.53-.114-12.033-.35-16.95-.48" fill="none" fill-rule="evenodd" stroke="#700" stroke-width="2.119" stroke-opacity=".102"/><path d="M156.54 628.013c1.296-.773 2.056-.812 3.347-1.143.88.094 1.786.494 2.67.662" fill="none" fill-rule="evenodd" stroke="#700" stroke-width="1.926" stroke-opacity=".102"/><path d="M48.576 618.56c-.58 1.235-1.02 1.752-1.75 2.5-1.21.962-1.82.87-2.975.756-.338-.13-.328-2.84-.646-3.06l.623-1.846c.138.103.273.185.42.246.564.082.99-.08 1.583-.568.52-.553 1.002-1.612.29.07l2.456 1.903z" fill="#390000" fill-opacity=".1"/><path d="M90.752 619.322c-.2 4.915-2.863 7.536-2.863 7.536" fill="none" fill-rule="evenodd" stroke="#650000" stroke-width="1.052"/><path d="M88.065 617.036c-1.37 5.356.385 9.66.385 9.66" fill="none" fill-rule="evenodd" stroke="#650000" stroke-width="1.161"/><path d="M101.63 623.308c-.325 4.862 2.034 7.888 2.034 7.888" fill="none" fill-rule="evenodd" stroke="#650000" stroke-width="1.047"/><path d="M104.537 621.516c.787 5.494-1.412 9.425-1.412 9.425" fill="none" fill-rule="evenodd" stroke="#650000" stroke-width="1.156"/><path d="M85.286 665.35c-.185 3.944-5.24 2.9-7.39 2.912l.603-1.036c.265 0 2.135-1.288 2.865-1.69l3.92-.185z" fill="#390000" fill-opacity=".1"/><path d="M90.18 663.566c-.16 5.564-4.47 4.09-6.305 4.107l.516-1.46c.227-.004 1.822-1.82 2.445-2.386l3.344-.26zM98.062 663.817c-.216 8.267-6.138 6.08-8.66 6.102l.71-2.172c.31-.004 2.5-2.702 3.356-3.544l4.594-.387z" fill="#390000" fill-opacity=".1"/><path d="M105.855 663.69c-.216 8.27-6.14 6.08-8.66 6.104l.71-2.172c.31-.003 2.5-2.7 3.356-3.543l4.595-.39zM77.644 663.69c-.185 8.27-5.24 6.08-7.39 6.104l.603-2.172c.266-.003 2.136-2.7 2.866-3.543l3.92-.39z" fill="#390000" fill-opacity=".1"/><path d="M81.433 641.123c-.697 2.097-1.845 3.72-1.663 5.022l-1.075-.488c.843.3-.958-3.39-1.393-2.696l1.008-.734.234-.404.502-.252 2.387-.447z" fill="#390000" fill-opacity=".599"/><path d="M120.78 618.418c.53.265 1.89.022 4.39 1.07-1.035 1.524-3.702 2.41-4.74 1.964" fill="none" fill-rule="evenodd" stroke="#650000" stroke-width=".999"/><path d="M182.833 653.6c-1.59.406-2.453.238-3.963.213-.977-.33-1.935-.97-2.906-1.374" fill="none" fill-rule="evenodd" stroke="#700" stroke-width="2.066" stroke-opacity=".102"/><path d="M167.22 659.182c2.983.806 4.687.78 7.61 1.052 1.957-.2 3.943-.77 5.904-1.06" fill="none" fill-rule="evenodd" stroke="#700" stroke-width="3.17" stroke-opacity=".102"/><path d="M126.985 651.13c-3.075 1.05-4.516 1.123-5.52.195" fill="none" fill-rule="evenodd" stroke="#650000" stroke-width=".999" stroke-linecap="round"/><path d="M130.408 648.546c-2.697 1.05-4.234 1.41-5.573.553" fill="none" fill-rule="evenodd" stroke="#650000" stroke-width=".965" stroke-linecap="round"/><path d="M134.972 645.387c-1.794 1.05-2.815 1.41-3.706.553" fill="none" fill-rule="evenodd" stroke="#650000" stroke-width=".787" stroke-linecap="round"/><path d="M138.136 642.946c-2.196 1.05-3.446 1.41-4.536.553" fill="none" fill-rule="evenodd" stroke="#650000" stroke-width=".871" stroke-linecap="round"/><path d="M51.537 598.13c.357 2.227-.18 2.722-.715 4.7-.536 1.98.18 5.443.18 5.443M58.33 600.923c-2.03 2.456-1.775 7.016-1.775 7.016" fill="none" fill-rule="evenodd" stroke="#650000" stroke-width=".999"/><path d="M41.77 601.998c3.63.35 5.447 3.157 6.226 5.613.778 2.456 1.297 3.86 1.297 3.86" fill="none" fill-rule="evenodd" stroke="#650000" stroke-width="1.011"/></g><use transform="translate(0 -98.6)" width="1050" height="700" xlink:href="#y"/><path d="M694.307 57.143c-2.18 2.18-2.906 4.357-2.47 7.262.58 4.212.58 4.212-5.23 3.05-11.04-1.888-31.67-.872-44.453 2.323-17.288 4.357-25.568 4.067-45.616-2.033-2.324-.726-2.18 0 1.453 6.68 4.36 7.99 6.393 9.586 16.562 13.217l6.537 2.324-11.768 3.05c-6.392 1.743-12.784 3.195-14.09 3.195-4.795 0-2.47 2.615 4.357 4.94 9.877 3.34 20.337 2.904 41.692-2.18 15.11-3.485 21.5-4.357 30.943-3.92 6.538.144 12.35 1.016 12.93 1.597.726.58-2.76 4.647-7.41 9.004-7.118 6.39-9.733 7.844-13.945 7.99-2.906 0-7.41.435-9.88.87-4.357.872-4.502 1.162-4.502 9.295v8.424l-33.704 31.66c-18.595 17.428-36.027 32.823-38.642 34.42-2.615 1.598-5.23 3.922-5.957 5.23-1.598 2.903.29 8.132 3.342 9.294 1.888.726.726 3.195-5.81 12.2-9.444 13.07-16.708 27.013-22.373 42.553l-4.068 10.892-2.324-7.99c-3.777-12.78-6.683-31.37-6.683-43.57 0-11.182 0-11.182 7.553-21.93 9.153-13.07 30.653-35.436 42.565-44.44 4.794-3.63 12.93-8.57 18.16-11.038 11.62-5.374 14.527-7.843 14.527-11.91 0-4.792-3.487-7.116-9.007-5.954-3.196.58-16.125-1.452-38.207-5.955-18.303-3.63-33.557-6.826-33.702-6.826 0-.145 1.453-6.39 3.486-13.942 2.325-8.86 4.794-15.104 7.12-17.573 4.357-4.648 4.502-10.02.144-14.088-7.264-6.826-18.16-.87-16.56 9.005l.725 4.937-9.588 1.016c-5.23.58-17.723 3.195-27.602 5.955-20.047 5.52-35.737 6.39-46.05 2.76-3.197-1.163-5.957-2.18-6.103-2.18-.29 0-.435 1.598-.435 3.632 0 6.245 3.922 11.763 10.314 14.96l6.1 3.048-4.067 1.017c-2.18.58-8.717.58-14.673.145-5.956-.435-10.75-.435-10.75 0 0 3.05 7.118 11.183 11.767 13.507 10.17 5.228 31.38 3.34 54.913-4.938 11.767-4.067 27.02-5.23 26.004-2.034-.58 1.743-21.064 17.137-56.22 42.263-17.724 12.634-20.484 16.12-17.724 22.22 1.453 3.34 1.017 4.647-3.34 11.91-9.444 15.974-18.305 43.424-18.305 57.366 0 6.97-.436 7.552-10.024 17.72-19.61 20.622-57.963 68.694-66.244 83.072l-2.615 4.502-2.76-3.485c-5.52-6.97-17.14-3.05-17.14 5.81 0 6.1 3.776 9.585 10.604 9.585 3.777 0 11.33 2.904 24.406 9.585l19.03 9.44-3.63 3.922c-6.974 7.552-8.427 13.506-4.795 18.59 1.743 2.323 3.922 2.76 12.057 2.76 8.717 0 11.622.725 21.646 5.663 9.88 4.938 13.656 7.988 28.183 23.092 44.89 46.91 55.93 56.64 82.806 73.198 15.545 9.585 43.873 23.528 57.82 28.61 45.324 16.267 95.298 19.317 142.512 8.715 21.79-4.938 37.77-10.602 58.69-21.06 11.622-5.953 17.288-7.987 17.578-6.825.436 1.017 1.743 5.23 3.05 9.295 2.47 7.988 9.734 20.188 12.785 21.35 1.018.29 24.26-2.905 51.863-7.117 27.602-4.212 50.555-7.697 51.136-7.843 2.76-.145 6.1-15.975 6.1-28.32 0-12.636-.29-13.507-6.39-25.416-7.846-15.105-19.758-27.596-31.235-32.824l-8.135-3.776 3.486-4.502c16.126-21.35 35.156-51.994 42.565-68.405l4.214-9.44 7.554-.146c4.068 0 7.845-.58 8.28-1.307.437-.58-.144-6.68-1.307-13.36-1.16-6.682-2.178-12.346-2.178-12.637 0-.145 2.615-.29 5.81-.29h5.812v-32.968l25.132-47.782c13.656-26.287 26.44-49.38 28.33-51.122 4.502-4.502 3.92-11.327-1.454-15.25-3.34-2.468-4.504-2.613-8.135-1.16-4.504 1.887-7.99 7.55-6.683 10.747.436 1.16-.726 4.357-2.324 7.26-2.615 4.504-3.777 5.084-6.973 4.504-2.18-.435-18.74-3.195-36.9-6.245l-32.83-5.518-16.127 29.046c-8.86 15.976-15.98 29.192-15.834 29.483.29.145 17.142 1.452 37.48 2.76 20.338 1.306 37.335 2.76 37.626 3.05.29.144-4.65 9.294-10.896 20.187l-11.33 19.606H891.44c-29.054 0-33.413.29-35.01 2.323-1.453 2.033-2.18-.145-4.94-12.635-4.503-21.06-8.862-48.8-8.862-56.06 0-7.117 6.392-21.786 18.014-41.537 17.288-29.337 41.984-57.802 51.863-59.69 8.426-1.598 14.382-6.1 14.382-10.893 0-4.938-2.326-7.262-8.137-7.988-3.922-.437-55.203-20.624-57.528-22.657-1.452-1.162 5.81-26.142 8.426-29.192 7.7-8.713-7.117-21.203-15.398-12.925-3.196 3.195-3.777 10.02-1.017 12.926 1.453 1.453-.145 1.598-7.7.582-14.672-1.743-28.618-1.017-41.692 2.323-14.528 3.776-25.86 3.922-38.643.29-5.52-1.45-9.733-2.032-9.733-1.306 0 3.34 6.246 12.344 10.605 15.248 2.615 1.743 7.263 3.776 10.46 4.357l5.665 1.307-8.716 2.47c-4.648 1.306-11.476 3.195-15.108 4.066l-6.537 1.743 5.81 2.615c8.717 3.92 23.97 3.486 42.566-1.162 10.606-2.614 19.758-3.776 28.91-3.92 11.477-.146 16.997.87 14.818 2.468-19.467 15.395-86.437 66.082-93.992 71.165-11.62 7.843-13.365 10.167-13.365 16.993 0 3.776.728 4.938 4.214 6.245l4.213 1.452-5.084 7.988c-2.906 4.357-7.41 12.926-10.17 19.025l-5.084 11.038-2.616-5.083c-2.47-5.083-4.94-14.67-6.392-25.56-.726-5.084 0-7.408 6.1-17.865 8.573-14.96 22.373-33.55 30.218-40.81 3.34-3.05 6.537-6.39 7.12-7.262 1.16-2.033-3.197-7.262-6.103-7.262-2.18 0-54.187-36.018-54.187-37.47 0-4.067 7.845-24.98 10.17-27.16 1.597-1.45 2.905-4.5 2.905-6.825 0-8.715-11.186-13.217-17.578-6.827zm29.78 65.21c10.75 7.552 19.613 14.088 19.758 14.523 0 1.017-38.062 14.67-38.788 13.943-.29-.292 1.743-5.23 4.504-10.894 2.906-5.664 5.23-11.183 5.23-12.345 0-2.177-13.946-9.584-18.014-9.584-3.486 0-4.067-2.47-2.18-8.714l1.745-5.81 4.068 2.615c2.18 1.307 12.784 8.714 23.68 16.266zm182.464 5.81c0 .87-58.4 19.025-59.126 18.444-.29-.29 8.136-30.063 10.46-36.89.436-1.16 8.57 1.598 24.55 7.99 13.22 5.372 24.117 10.02 24.117 10.455zm-225.9-16.122c-.435.873-1.597 1.6-2.468 1.6-.872 0-.872-.872.29-2.18 2.034-2.468 3.777-1.887 2.18.58zm155.88 20.044c-3.197 10.31-6.393 19.17-6.974 19.75-.872 1.018-20.92 7.554-53.75 17.575-10.606 3.194-11.913 3.34-8.717 1.015 2.032-1.597 19.32-14.96 38.496-29.772 19.176-14.67 35.3-26.87 35.737-26.87.58-.144-1.598 8.134-4.794 18.3zm-275.73-3.05c30.508 6.245 31.09 6.39 25.424 7.988-2.325.726-16.997 4.792-32.396 9.15l-28.183 7.842 1.017-3.92c3.196-13.363 6.973-26.29 7.7-26.29.58 0 12.348 2.325 26.44 5.23zm-44.307 6.68c-.29 1.017-1.89 6.536-3.632 12.2l-2.904 10.457-11.332 3.05c-6.1 1.598-15.69 4.358-21.21 5.956-5.52 1.452-9.588 2.468-9.297 2.033 1.162-1.018 48.23-35.438 48.666-35.438.146 0 .146.87-.29 1.743zm137.137 6.536c1.744-.436 3.05-.436 3.05-.145 0 2.324-26.874 36.308-29.49 37.325-1.742.726-10.314 3.776-18.885 6.97l-15.834 5.665 12.058-11.328c6.683-6.1 19.322-17.864 28.038-26.142 10.46-9.876 16.27-14.378 16.997-13.216.58 1.015 2.324 1.306 4.067.87zm13.075 11.91l-4.358 13.07-11.04 3.63c-6.102 2.034-11.187 3.632-11.332 3.34-.29-.144 5.084-7.696 11.767-16.7 9.733-12.926 12.93-16.267 15.69-16.267h3.63l-4.357 12.926zm32.54-4.358l4.07 2.614-12.495 4.357c-6.828 2.47-12.203 3.63-11.912 2.76.29-.872 1.743-5.083 3.05-9.15l2.47-7.697 5.375 2.324c2.906 1.16 7.12 3.34 9.443 4.792zm19.177 88.302l3.777 7.698-3.633 11.91c-4.358 14.813-7.41 29.48-9.733 47.49-1.453 11.62-2.615 14.96-7.554 23.092-3.05 5.23-6.392 11.33-7.118 13.652-2.615 7.407-4.068 2.324-4.94-17.718-1.017-21.785.872-43.86 5.375-64.63 3.05-13.796 10.315-36.308 14.092-43.57l2.178-4.356 1.89 9.295c1.16 5.228 3.63 12.926 5.664 17.137zm-189.726.146c.145 8.423 3.777 25.125 8.135 38.05 2.907 8.57 3.342 11.62 2.18 16.557-.726 3.196-2.034 13.07-2.905 21.64-2.76 27.74 1.743 54.172 13.655 78.717 3.632 7.116 6.828 14.668 7.41 16.556l1.016 3.486-4.067-3.05c-12.06-8.57-24.698-25.416-31.67-42.118-4.36-10.31-4.65-11.91-1.6-11.91 1.89 0 2.18-3.05 2.18-18.153V319.87h-4.358c-3.777 0-4.504-.725-6.102-6.244-1.162-3.63-1.888-13.943-1.888-25.707 0-21.495 2.034-30.5 11.33-51.268 4.94-11.038 6.54-10.602 6.684 1.598zm311.03 26.723c1.888 13.36 7.553 42.117 10.75 54.317 1.888 7.407 1.888 8.714-.727 16.266-1.6 4.502-2.47 9.005-2.18 9.876.436 1.017-2.47 5.228-6.247 9.44-6.828 7.552-6.973 7.698-8.716 4.502-6.973-13.216-9.588-46.765-5.23-69.567 1.888-10.02 9.297-36.744 10.17-36.744.29 0 1.16 5.374 2.178 11.91zM426.423 291.84l2.034 8.86-12.058 44.15-12.203 44.007-4.65-.436c-6.1-.725-49.392-20.622-49.392-22.8 0-5.52 41.403-58.82 64.647-83.365l8.716-9.15.436 4.793c.29 2.76 1.453 9.005 2.47 13.943zm45.76-1.452c0 .727-1.888 7.407-4.067 14.96l-4.068 13.797-9.88.435c-5.52.29-10.604-.145-11.476-1.016-2.034-2.034.146-12.49 3.777-17.864 3.778-5.664 14.238-11.328 20.92-11.328 2.616 0 4.795.435 4.795 1.016zm31.38 20.478c2.76 3.63 4.94 7.117 4.94 7.698 0 .726-5.957 1.307-13.22 1.307h-13.22l.87-4.066c.582-2.178 2.035-7.407 3.197-11.618l2.18-7.553 5.084 3.922c2.906 2.178 7.41 6.826 10.17 10.31zm-67.988 7.988c2.615 6.1 3.196 10.457 3.196 22.51v14.815H448.216l.29 12.78c.144 6.97 1.597 17.864 3.195 24.11 2.907 12.343 2.326 18.298-2.323 18.298-1.308 0-9.007-3.92-17.142-8.714-7.99-4.793-16.562-9.295-19.03-10.166l-4.36-1.598 10.896-39.794c5.957-21.93 11.332-39.94 11.768-39.94.58 0 2.325 3.486 4.068 7.698zm275.728 49.38c3.34 16.847 9.443 32.677 18.885 49.234 4.503 7.842 7.99 14.523 7.7 14.814-1.454 1.307-16.272 3.63-17.58 2.904-2.033-1.307-10.168-18.88-15.69-33.984-6.246-16.993-11.91-40.52-10.894-44.878.436-2.033 3.632-9.294 6.973-16.12l5.955-12.345 1.162 14.232c.58 7.842 2.034 19.606 3.487 26.142zm108.81-4.793c5.665 2.906 7.263 4.358 6.972 6.827-.29 2.614.436 3.195 4.358 3.63 7.7.727 6.392 4.213-5.665 14.67-6.248 5.373-11.914 9.73-12.785 9.73-3.34 0-17.578-17.283-22.227-26.868l-4.794-10.168 3.922-1.016c8.426-2.033 22.663-.58 30.217 3.195zM800.5 393.505l8.427 8.424-3.777 2.614c-5.084 3.486-38.497 19.897-39.224 19.316-.29-.29 3.342-13.36 7.845-29.047l8.427-28.61 4.94 9.44c2.76 5.23 8.716 13.217 13.364 17.864zm-49.39 9.44c-4.214 12.926-8.137 24.255-8.718 24.98-1.888 1.89-3.34-8.568-2.324-16.265 1.743-11.765 5.23-20.19 11.33-27.16 3.197-3.63 6.103-6.39 6.538-5.955.29.29-2.76 11.328-6.827 24.4zM591.017 381.16c-.436 1.016-3.487 10.31-6.973 20.768-3.342 10.31-6.683 19.46-7.264 20.042-.58.726-3.63 0-6.827-1.597-4.794-2.47-5.956-3.922-7.554-10.312-1.744-7.115-1.744-7.696 1.888-13.94 4.648-7.844 11.476-13.218 19.176-15.106 7.844-1.888 8.28-1.888 7.554.145zm24.55 2.033c2.616.726 3.633 2.904 5.667 12.78 1.743 7.552 5.375 17.138 10.314 26.87l7.553 14.958-7.554-.87c-4.214-.437-14.238-2.325-22.228-3.922l-14.818-3.05 3.487-11.183c1.89-6.1 5.23-16.702 7.41-23.818 3.777-12.636 4.358-13.362 10.17-11.764zm32.106 12.2l15.11 7.26-6.684 7.553c-3.777 4.212-7.845 10.602-9.152 14.233-1.308 3.63-2.76 7.116-3.34 7.696-2.616 2.905-18.887-34.856-18.887-43.715 0-3.05 5.376-1.306 22.954 6.972zm30.508 16.12c15.98 9.73 37.335 25.852 34.43 26.142-.727 0-9.008.58-18.16 1.307-9.152.58-23.39.872-31.524.436l-14.818-.87.872-4.504c1.307-6.97 5.81-15.104 12.348-22.075 3.196-3.487 6.1-6.39 6.392-6.39.436 0 5.084 2.613 10.46 5.953z" fill="#ffcf00" stroke="#000" stroke-width="1.151"/><path d="M694.42 57.298c-2.034 2.178-2.905 4.647-2.47 7.407l.582 3.92-7.41-1.016c-12.638-1.89-29.926-1.017-42.128 2.323-14.237 3.776-24.842 3.92-37.626.29-5.375-1.452-9.733-2.033-9.733-1.307 0 2.47 4.067 9.15 7.7 12.49 1.888 1.89 6.682 4.503 10.46 5.955l7.117 2.76-8.716 2.47c-4.65 1.307-10.75 2.76-13.365 3.195-7.118 1.16-6.827 2.614 1.308 5.373 10.46 3.34 17.723 2.905 40.822-2.178 15.69-3.486 22.808-4.357 31.67-3.922 6.246.146 11.912 1.017 12.638 1.743.58.582-2.76 4.65-7.554 9.006-6.392 5.81-9.88 7.842-13.075 7.842-2.325 0-6.83.436-9.734.872l-5.52 1.016V132.238l-33.123 31.08c-18.16 17.138-35.737 32.968-39.223 35.002-4.94 3.195-6.102 4.792-6.102 8.278 0 2.76 1.017 4.793 2.906 5.81 2.615 1.452 2.324 2.178-5.375 12.78-9.59 13.36-13.657 21.204-20.92 39.503l-5.376 13.8-3.05-10.168c-4.068-13.797-5.957-26.578-5.957-41.246 0-12.055 0-12.2 6.392-21.06 19.466-27.013 47.358-52.138 65.082-58.383 7.7-2.614 11.33-5.955 11.33-10.166 0-4.067-4.503-6.826-9.297-5.52-2.615.582-70.166-11.618-71.62-13.07-.29-.145 1.308-6.536 3.342-14.088 2.324-8.715 5.085-14.96 7.264-17.43 4.36-4.646 4.504-10.02.146-14.087-7.264-6.826-18.16-.58-16.416 9.295l.872 4.503-12.058 1.743c-6.537.872-18.885 3.63-27.166 6.1-18.16 5.374-34.865 6.245-44.163 2.324-7.118-3.05-6.682-3.195-6.682 1.743 0 5.52 4.94 11.473 12.203 14.814l5.81 2.614-4.067 1.016c-2.18.436-9.153.58-15.545.29-6.247-.435-11.477-.144-11.477.437 0 2.615 9.588 12.055 14.092 13.798 9.733 4.066 31.524 1.452 54.767-6.536 9.734-3.485 24.697-4.212 23.825-1.307-.436 1.017-15.69 12.78-33.994 25.997-18.304 13.36-35.01 25.852-37.19 27.885-4.503 4.066-5.23 8.57-2.033 11.473 1.743 1.598 1.598 2.47-.872 5.81-9.443 13.36-21.5 48.798-21.5 63.176 0 6.1-.727 7.262-12.784 20.478-24.262 26.578-53.462 63.177-61.888 77.555l-3.922 6.68-3.487-3.486c-4.212-4.212-9.878-4.502-13.8-.58-6.392 6.39-1.453 15.975 7.99 15.975 3.34 0 11.476 3.194 24.115 9.44l18.885 9.585-4.358 5.083c-10.46 11.764-5.81 22.656 8.57 20.187 12.93-2.178 32.833 9.876 53.316 32.387 32.542 35.583 50.556 51.558 76.705 67.68 7.264 4.5 13.8 8.568 14.528 9.294 3.05 2.47 35.446 17.573 45.47 21.204 45.325 16.266 95.444 19.316 142.513 8.714 21.79-4.938 37.77-10.602 58.69-21.06 11.622-5.953 17.288-7.986 17.578-6.825.436 1.016 1.743 5.228 3.05 9.294 2.47 7.988 9.734 20.188 12.785 21.35 1.016.29 24.26-2.905 51.86-7.117 27.603-4.212 50.556-7.697 51.137-7.842 2.76-.146 6.102-15.976 6.102-28.32 0-12.636-.292-13.508-6.393-25.272-7.845-14.96-19.322-27.158-30.943-32.822-7.555-3.63-8.136-4.21-6.538-6.68 1.017-1.452 6.102-8.424 11.186-15.395 11.04-15.395 27.747-43.134 33.558-56.205l4.36-9.586h7.99c7.553 0 7.99-.145 7.262-3.34-1.017-4.793-3.632-20.188-3.632-21.64 0-.58 2.76-1.162 6.102-1.162h5.956l-.872-15.395-.87-15.54 25.567-48.798c14.09-26.87 27.02-50.397 28.91-52.576 5.955-6.245 3.776-13.797-4.65-16.41-4.648-1.453-10.75 4.065-10.75 9.584 0 2.47-1.453 6.68-3.05 9.44-2.615 4.067-3.778 4.793-6.974 4.212-14.964-3.195-67.407-11.183-68.86-10.602-1.89.726-31.524 53.3-31.524 56.06 0 .872 2.18 1.598 4.794 1.598 2.47 0 17.723 1.017 33.703 2.18 15.98 1.16 30.798 2.177 32.977 2.177 3.777 0 3.777.145-7.845 20.333l-11.767 20.332h-33.703c-33.703 0-33.85 0-34.575 3.196-.58 1.742-1.162 2.904-1.598 2.47-1.308-1.163-9.443-43.28-11.622-60.128l-2.18-15.976 8.572-17.573c17.433-36.018 49.974-77.264 62.467-79.588 8.425-1.454 14.527-5.956 14.527-10.748 0-4.938-2.325-7.553-6.828-7.553-3.342 0-56.657-20.914-58.982-23.093-1.453-1.452 5.375-25.27 8.426-29.627 3.05-4.503 2.76-8.714-1.162-12.345-4.358-4.067-9.88-4.067-13.8.145-3.342 3.486-4.36 10.312-1.744 11.91 3.34 2.032 1.016 3.194-3.923 2.032-9.878-2.323-32.25-1.597-44.744 1.598-14.67 3.63-28.472 3.63-39.804.145-4.94-1.452-8.86-2.47-8.86-2.178 0 .435.87 2.76 2.033 5.373 2.904 6.826 9.296 12.055 17.43 14.378l6.974 2.034-10.604 3.05c-5.957 1.742-12.64 3.63-15.11 4.066l-4.357 1.162 5.084 2.18c9.59 4.21 22.663 3.92 44.745-1.018 19.32-4.212 33.122-5.374 40.676-3.34 2.905.87-2.906 5.81-41.403 35.29-24.696 18.882-48.085 36.455-52.008 39.07-9.006 5.954-12.202 9.875-12.348 14.668 0 3.92 3.922 8.57 7.118 8.57 1.162 0 .726 1.45-1.163 4.065-3.777 5.374-16.125 29.918-16.125 32.097 0 .87-.58 1.597-1.307 1.597-2.325 0-7.12-13.653-8.862-24.98l-1.597-11.33 7.41-12.49c7.99-13.65 22.807-33.258 31.087-41.1 6.247-6.1 6.683-9.73 1.308-12.055-5.52-2.323-54.332-36.308-55.204-38.196-.87-2.615 6.247-23.384 9.588-27.74 3.777-4.94 3.923-9.877.145-13.653-3.922-3.92-10.75-3.776-14.527.29zm11.622 3.34c2.76 3.34.436 8.278-3.922 7.697-4.94-.58-7.41-4.502-4.94-7.552 2.47-2.904 6.538-3.05 8.862-.145zm159.8 4.357c2.034 2.47.727 7.407-2.324 8.57-3.196 1.16-7.845-1.6-7.845-4.65 0-5.518 6.683-8.132 10.17-3.92zm-176.07 8.278c4.94.872 9.297 2.034 9.733 2.615.29.58-.727 5.083-2.325 10.02-2.47 7.262-3.486 8.86-5.52 7.99-1.307-.582-6.247-1.89-11.04-2.906-10.025-2.324-19.758-1.307-45.035 4.502-8.717 1.888-18.595 3.63-21.79 3.486l-5.812-.145 4.358-1.453c14.383-4.793 19.613-7.407 19.613-10.02 0-2.325-1.162-2.76-6.828-2.76-7.7 0-17.287-3.776-20.774-7.988-2.033-2.47-1.888-2.614.727-1.598 6.392 2.614 26.004 2.76 35.592.145 17.432-4.646 30.07-5.227 49.1-1.887zM543.916 77.63c1.89 3.05-.29 7.407-3.777 8.133-2.324.436-6.973-3.34-6.973-5.518 0-2.18 4.65-5.955 6.973-5.52 1.163.29 2.906 1.598 3.777 2.905zm305.364 2.76c4.65 1.016 9.153 2.178 9.734 2.76 1.308 1.16-3.05 18.88-4.648 18.88-.436 0-4.068-1.017-7.99-2.18-10.75-3.34-23.825-2.613-45.47 2.18-10.606 2.323-22.228 4.357-25.57 4.21h-6.1l8.716-3.34c13.656-5.227 13.946-5.518 13.51-7.987-.29-1.597-2.76-2.614-8.425-3.195-7.99-.87-16.416-4.212-18.16-7.262-.726-1.016 1.017-1.16 5.957-.29 10.314 1.597 21.645.87 33.994-2.324 12.493-3.195 31.67-3.92 44.453-1.452zM536.074 94.042c0 .435-1.308 6.245-3.05 12.926l-3.052 12.054-12.492-.726c-11.186-.58-14.237-.145-26.44 3.776-26.44 8.423-43.146 9.73-51.862 3.776l-4.068-2.76 11.622-.87c6.392-.437 15.108-1.89 19.466-3.34l7.99-2.76-11.912-3.777c-10.605-3.484-18.014-7.696-16.125-9.294.29-.29 5.23.146 10.75.872 11.04 1.597 14.817 1.016 43.58-6.826 11.913-3.34 35.593-5.23 35.593-3.05zm156.46 7.116c-.437 1.162-1.6 4.648-2.616 7.988-1.017 3.34-2.615 5.955-3.632 5.955-1.89 0-1.453-1.597 3.05-14.232.29-.872 1.308-1.743 2.325-1.743.872 0 1.307.87.872 2.033zm27.6 18.445c12.64 8.714 23.1 16.557 23.39 17.137.435 1.162-37.48 15.105-38.498 14.088-.29-.29 1.89-5.52 4.94-11.764l5.52-11.183-3.342-2.613c-1.743-1.452-6.392-3.776-10.17-5.228-3.776-1.308-7.408-3.05-7.99-3.487-1.016-.87 1.6-13.07 2.762-13.07.29 0 10.75 7.26 23.388 16.12zm132.635-11.183c0 1.162-1.308 6.1-2.76 11.183-1.6 5.083-4.214 13.942-5.812 19.606-2.324 7.842-3.777 10.602-6.1 11.182-2.035.58-2.76.146-2.325-1.016.436-1.017 3.487-10.602 6.828-21.35 3.342-10.747 6.392-19.897 6.828-20.623 1.017-1.743 3.342-1.162 3.342 1.017zm53.75 19.897c0 .87-58.254 19.17-58.98 18.3-.436-.436 7.99-30.935 10.17-36.89.58-1.162 8.425 1.307 24.695 7.988 13.22 5.374 24.116 10.02 24.116 10.602zm-226.044-15.54c-.436 1.307-1.453 1.888-2.324 1.452-.727-.436-.582-1.744.435-2.905 2.18-2.615 3.196-1.888 1.89 1.452zm156.168 19.17c-3.196 10.312-6.682 19.462-7.554 20.333-1.598 1.453-17.578 6.536-51.572 16.702-7.554 2.18-13.22 3.63-12.784 3.196 1.89-1.89 77.14-59.546 77.43-59.256.29 0-2.324 8.57-5.52 19.026zm-166.918-5.954c-1.162 10.747-2.906 11.764-2.906 1.743 0-6.39-.436-8.278-2.18-8.278-1.597 0-1.392 1.77-1.683 8.016l-1.076 8.686-1.746-4.905c-.436-3.922.002-10.345-.87-11.362-1.162-1.452-.145-1.888 4.94-1.888h6.39l-.87 7.988zm7.7-6.97c.29.725-.29 5.082-1.163 9.875l-1.742 8.714-.58-9.876c-.437-6.826-.147-9.73 1.16-9.73.873 0 1.89.435 2.325 1.016zm-20.775 9.15c0 4.79-.582 8.713-1.454 8.713-.87 0-1.452-3.922-1.452-8.714 0-4.793.58-8.714 1.452-8.714s1.453 3.92 1.453 8.714zm29.344-6.246c-.87 1.452-1.888 5.373-2.47 8.714-.58 3.486-1.597 6.246-2.47 6.246-.87 0-1.16-1.743-.58-4.503.436-2.468.872-6.39.872-8.714 0-3.196.726-4.212 2.905-4.212 2.47 0 2.76.58 1.744 2.47zm16.852 3.34c3.34 1.452 6.1 3.486 6.1 4.357 0 .87-1.742 4.938-3.776 9.005-2.47 4.936-4.213 6.825-5.23 5.808-.87-.872-.435-3.34 1.6-7.262 1.742-3.34 3.05-6.97 3.05-8.278 0-4.357-3.05-2.033-6.102 4.647-4.068 8.57-3.923 8.28-4.794 7.407-.436-.435.29-3.485 1.453-6.97 2.614-7.553 2.76-10.167.29-10.167-1.017 0-3.196 3.776-4.65 8.278-3.05 9.295-4.647 7.552-2.323-2.47.726-3.485 1.017-6.97.58-7.696-1.16-1.888 5.812-.146 13.802 3.34zm-175.49 1.162c0 4.792-7.118 28.32-9.007 29.48-2.906 1.89-3.05.582-.582-7.987 1.308-4.502 3.342-11.763 4.65-16.12 2.178-7.698 4.938-10.748 4.938-5.374zm34.14 2.468c14.382 2.905 27.166 5.52 28.328 6.1 1.162.435-12.494 4.792-30.508 9.876-18.013 4.938-32.977 8.86-33.267 8.568-.292-.29.435-4.21 1.742-8.86 1.308-4.646 3.05-11.182 3.923-14.667.87-3.34 2.033-6.1 2.614-6.1.58 0 12.783 2.323 27.165 5.083zm361.003 4.212c0 3.05-3.343 5.228-12.64 7.987-4.65 1.453-28.038 9.586-52.008 18.155-23.97 8.569-57.237 20.478-73.944 26.432-22.808 8.133-31.815 10.748-36.318 10.457-4.358-.29-6.1-1.16-6.392-3.05-1.017-5.227 5.52-9.584 22.082-14.813 69.73-22.075 151.955-47.055 155.296-47.055 2.325-.146 3.923.58 3.923 1.888zm-408.51 12.054c-1.597 6.245-3.485 11.764-3.92 12.345-.873 1.016-13.51 4.792-37.046 11.182-3.196.87-5.084.87-4.358.29 2.034-1.888 47.214-35 47.795-35 .29 0-.87 5.082-2.47 11.182zm97.625-6.826c0 2.324-4.794 4.067-48.812 17.283-93.846 28.03-109.536 32.388-111.715 31.662-1.743-.726-1.888-1.598-.436-4.502 1.744-4.067 2.47-4.357 35.302-13.07 10.46-2.76 40.095-10.894 66.1-18.156 58.69-16.266 57.09-15.83 58.544-15.104.58.29 1.017 1.162 1.017 1.888zm43.436 3.34c2.616-.58.292 3.196-10.604 18.01l-13.946 18.88-18.45 6.68c-10.17 3.63-18.594 6.536-18.885 6.39-.145-.29 12.203-11.908 27.457-26.14 19.757-18.3 28.182-25.417 29.345-24.4 1.017.87 3.196 1.016 5.084.58zm11.623 12.49l-4.358 12.926-10.896 3.922c-5.957 2.178-11.187 3.776-11.332 3.485-.29-.29 4.794-7.84 11.33-16.846 9.88-13.652 12.35-16.266 15.69-16.41h3.923l-4.357 12.925zm12.494-11.182c-5.52 18.01-6.974 21.494-9.007 21.494-1.163 0-1.89-.87-1.598-1.888.435-.87 2.18-6.1 3.922-11.62 2.034-5.808 4.068-9.73 5.375-9.73 1.016 0 1.742.872 1.307 1.744zm74.09-.436c-.873.726-18.45 7.988-39.225 16.12-20.774 8.134-57.092 22.367-80.626 31.516-23.535 9.295-45.18 17.43-47.94 18.01-5.957 1.452-10.17.435-10.17-2.18 0-2.468 5.666-4.792 50.846-21.058 20.338-7.262 55.64-20.042 78.447-28.32 37.19-13.652 52.733-18.01 48.666-14.088zm-54.043 7.262l4.068 2.614-12.058 4.357c-6.682 2.47-12.203 4.357-12.348 4.212-.29-.29.58-3.63 1.89-7.553 1.306-3.92 2.468-7.987 2.904-9.004.58-2.033 7.7.436 15.544 5.374zm190.453 7.697c-44.018 46.183-75.25 125.045-69.005 173.99.872 6.97 2.906 16.41 4.504 21.058 1.598 4.647 2.905 8.57 2.905 8.86 0 .144-3.195-1.018-6.972-2.76l-6.973-3.196-6.537-22.075c-3.487-12.055-6.538-21.785-6.828-21.495-.436.436 6.1 33.55 7.845 40.23.58 2.18-.146 2.614-4.36 2.614-5.664 0-4.357 2.905-13.51-29.627-2.178-7.844-4.212-13.653-4.357-12.927-.29.726 1.453 10.457 3.777 21.64 2.324 11.037 4.213 20.187 4.068 20.478-.146.146-2.034.58-4.068 1.162-3.777.872-3.777.727-10.024-21.058-3.485-11.91-6.39-21.64-6.68-21.35-.437.436 5.374 32.823 7.408 41.247.58 2.324-.146 3.63-2.325 4.938-4.067 2.18-4.358 1.743-10.024-18.59-2.616-9.004-5.085-16.12-5.376-15.83-.436.29 1.017 9.005 3.05 19.316l3.923 18.59-3.34 2.614c-3.778 3.195-3.923 3.05-8.427-13.07-1.888-6.682-3.632-11.765-3.922-11.474-.29.29.436 6.39 1.598 13.36 2.905 16.413 2.905 17.575-.436 19.463-2.615 1.307-3.05.726-5.375-7.262-3.05-11.183-4.213-10.312-1.89 1.452 1.31 7.117 1.31 9.586-.144 12.49-2.614 4.793-3.776 4.357-5.52-2.033-1.452-5.083-1.452-4.793-.87 2.614.725 8.86-1.163 13.943-3.923 10.167-1.162-1.598-1.308-1.017-.727 2.904.436 2.76 0 9.004-1.017 13.797l-1.888 8.568-5.23-10.747c-12.058-24.69-16.125-43.57-16.27-75.522 0-18.735.726-27.74 3.196-40.955 8.572-46.038 30.217-91.206 43.582-91.206 1.308 0 1.598 1.017 1.017 3.195-.727 2.758-.437 2.468 2.033-1.018 1.598-2.323 4.213-4.792 5.956-5.373 2.905-1.018 2.905-1.018.58 3.34-1.162 2.468-1.888 4.792-1.452 5.228.29.435 1.743-1.308 2.905-3.63 5.375-10.313 10.75-12.056 6.537-2.18-3.34 7.988-2.76 7.552 3.632-1.888 2.47-3.776 5.956-7.407 7.7-7.988 3.196-1.162 3.05-.726-1.744 8.86-2.76 5.664-4.94 10.166-4.503 10.166.29 0 3.922-5.23 7.99-11.474 4.213-6.245 8.862-11.763 10.314-12.2 2.324-.58 1.888 1.017-3.05 10.748-3.052 6.245-5.376 11.474-5.086 11.474.29 0 3.922-5.23 8.135-11.764 6.972-10.602 11.912-15.83 14.817-15.83.58 0-2.324 5.663-6.247 12.634-13.655 23.674-13.22 23.964 2.325 1.162 6.247-9.15 12.348-16.702 13.365-16.702 1.743 0 1.453 1.017-.726 4.648-9.298 15.685-17.578 30.21-16.997 30.21.29 0 6.537-8.715 13.8-19.463 8.136-11.763 14.528-19.75 16.416-20.33 1.744-.437 3.196-.582 3.487-.437.145.29-5.085 8.86-11.622 19.316-19.466 30.353-18.74 30.208 3.34-.582 12.93-18.01 19.323-24.98 21.066-23.237.29.29-4.794 8.57-11.04 18.59-13.51 21.06-15.11 23.82-13.366 22.802.58-.436 7.99-10.602 16.416-22.656 11.186-15.976 16.416-22.22 19.467-23.383 2.325-.726 4.504-1.162 4.94-.87.29.434-7.7 12.78-17.723 27.593-10.17 14.814-18.16 27.014-17.724 27.014.29 0 10.46-13.217 22.518-29.483l21.79-29.482 9.154-3.05c5.084-1.743 9.442-3.195 9.733-3.195.29-.146-3.34 3.92-7.99 8.86zm-154.135 4.356c-23.39 29.482-40.24 67.098-47.94 107.618-3.63 19.46-3.63 67.534.146 87.43 3.34 18.155 10.75 42.7 17.432 58.385 2.76 6.68 4.794 12.053 4.504 12.053-1.308 0-14.527-10.457-15.4-12.2-.58-.87-6.39-20.332-13.074-43.28-6.682-22.946-12.348-41.536-12.638-41.246-.146.29 4.067 18.59 9.588 40.666 5.52 22.075 9.733 40.084 9.442 40.084-.435 0-2.47-1.016-4.648-2.323-3.487-2.034-5.085-6.1-14.673-38.487-5.955-19.752-10.894-35.873-11.185-35.583-.29.146 3.196 15.25 7.554 33.26 4.357 18.153 7.99 33.257 7.99 33.693 0 .436-1.89-.145-4.214-1.452-4.648-2.324-4.648-2.18-16.997-44.587-3.05-10.312-5.666-18.3-5.957-18.01-.29.292 2.325 12.782 5.956 27.886 3.486 15.104 6.246 27.594 6.1 27.885-.29.144-2.614-.582-5.374-1.744-4.94-2.033-5.085-2.324-12.058-27.594-3.922-14.088-7.41-25.27-7.7-24.98-.29.145 1.744 11.037 4.504 23.818 5.085 24.254 4.94 25.27-1.743 21.494-2.616-1.452-4.795-5.81-9.008-18.444-6.247-18.59-7.118-18.445-2.906.726 1.598 7.116 2.615 13.216 2.325 13.507-.29.29-2.76 0-5.374-.58-4.504-1.163-5.375-2.325-9.007-12.2-2.18-6.1-3.633-8.57-3.197-5.665.58 2.76 1.307 7.262 1.743 9.73.726 4.358.436 4.793-2.615 4.793-4.938 0-6.246-1.306-9.877-8.713-2.906-6.245-3.05-5.81-1.017 3.195.87 3.776.58 4.067-4.068 4.067-3.486 0-5.23-.727-5.666-2.615-.58-1.888-.726-1.888-.87.58-.146 3.63-7.41 5.81-9.153 3.05-.728-1.16-1.164-1.016-1.164.436 0 1.163-2.18 3.632-4.794 5.375-2.615 1.888-6.392 5.954-8.28 9.15-2.034 3.195-4.213 5.81-4.794 5.81-1.743 0-9.443-18.155-12.784-30.355-4.358-15.976-5.375-46.04-2.034-65.5 4.65-28.176 16.706-56.64 32.25-76.83 7.555-9.73 9.443-11.182 18.596-14.958 5.52-2.324 10.895-3.776 11.912-3.486 1.017.436 1.888.146 1.888-.726 0-1.307 5.957-4.357 6.974-3.485.145.145-.29 2.178-1.163 4.502l-1.452 4.212 2.615-3.487c7.118-10.166 10.604-11.91 7.554-3.776-2.47 6.39-.58 5.955 2.76-.58 1.743-3.196 4.358-6.536 5.956-7.408 2.76-1.453 2.76-1.453-.145 5.228-4.068 9.585-2.47 9.44 2.905 0 2.47-4.357 5.81-8.714 7.41-9.586 3.776-2.033 3.776-1.743-1.454 10.312-2.324 5.52-3.922 10.02-3.63 10.02.29 0 3.776-5.518 7.843-12.2 4.067-6.68 8.425-12.49 9.587-13.07 2.906-1.016 2.906-1.162-3.486 12.926-3.195 6.826-5.52 12.345-5.374 12.345.29 0 3.922-5.664 8.28-12.635 4.213-6.972 8.862-13.798 10.315-15.25 6.102-6.1 5.23-1.598-2.324 12.635-4.503 8.424-7.844 15.25-7.554 15.25.29 0 5.666-7.843 11.767-17.428 9.733-15.104 13.8-19.897 13.8-16.557 0 .58-3.922 8.424-8.862 17.428-4.793 9.15-8.425 16.557-8.135 16.557.436 0 6.102-8.57 12.64-19.026 10.168-16.122 16.27-22.948 18.594-20.914.436.435-12.784 23.673-22.663 39.94-5.81 9.44 2.18-1.453 15.545-21.35 12.783-18.88 18.012-25.126 19.9-23.383.146.29-4.212 8.278-9.878 17.864-16.706 28.756-17.287 29.773-16.56 29.773.29 0 8.135-11.62 17.287-25.852 13.654-20.914 17.722-26.142 21.5-27.45 2.614-1.016 4.938-1.742 5.084-1.452.145.146-5.085 8.86-11.622 19.17-20.92 33.26-24.115 38.488-23.534 38.488.29 0 10.023-13.652 21.5-30.5 16.997-24.834 21.646-30.788 25.86-32.53 9.005-3.777 9.005-2.615.434 8.132zm-158.057-2.905c-23.97 19.753-45.615 46.912-58.254 73.054-10.023 20.768-14.09 37.18-14.09 57.803 0 12.926-.29 15.25-1.89 13.942-1.16-.872-2.033-4.648-2.178-8.424 0-3.63-.58-10.02-1.307-13.943-1.017-6.97-1.017-6.97-1.308 3.922 0 6.245-.436 11.328-.726 11.328-4.503 0-5.23-2.18-5.374-15.83-.146-11.765-.436-12.927-1.453-7.408-.58 3.63-1.162 9.295-1.162 12.636-.145 4.648-.58 5.955-2.178 5.374-1.308-.58-2.325-5.228-3.196-15.54l-1.308-14.813-.436 13.362c-.145 7.407-.58 13.507-1.017 13.507-3.922 0-5.084-2.47-5.23-10.75-.145-12.634-2.47-18.88-2.614-7.405-.29 10.892-1.307 15.25-3.922 15.25-1.452 0-2.034-1.89-2.18-6.246 0-3.34-.58-8.715-1.16-11.91-1.163-4.938-1.308-4.067-1.454 6.1-.145 9.295-.58 12.054-2.18 12.054-2.468 0-3.63-4.357-3.92-14.523-.292-7.842-.292-7.842-1.454 2.905-1.453 12.345-2.034 14.524-4.213 14.524-.726 0-1.453-3.342-1.453-7.7 0-5.372-.435-6.97-1.452-5.372-.727 1.162-1.453 5.52-1.453 9.73 0 4.067-.582 7.988-1.454 8.424-.87.58-1.452-1.017-1.452-3.92 0-3.632-.436-4.213-1.453-2.616-.726 1.162-1.452 3.922-1.452 6.1 0 5.81-1.598 9.15-3.05 6.68-.872-1.16-1.308.29-1.308 4.213 0 3.484-.58 6.244-1.162 6.244-3.196 0-7.845-21.35-8.57-38.487-.582-15.395-.292-19.17 3.05-31.66 3.776-14.96 14.236-38.343 20.047-44.878 1.743-2.035 4.94-4.213 6.828-4.794 3.05-.87 3.34-.726 2.47 1.598-.727 2.033 0 1.742 3.05-1.308 4.94-4.502 9.298-5.664 6.102-1.452-1.163 1.598-.436 1.307 1.598-.58 4.213-3.632 11.62-6.827 11.62-4.793 0 .727-.58 1.743-1.45 2.18-.728.435-2.18 2.323-3.052 4.066-1.016 1.888 1.454.29 5.667-3.777 10.895-10.167 12.93-9.44 4.794 1.888-2.76 3.92-1.743 3.34 5.085-3.05 7.7-7.407 13.656-11.33 13.656-9.15 0 .58-2.47 3.92-5.52 7.697-10.17 12.345-9.442 12.49 2.325.436 6.537-6.535 12.493-11.908 13.365-11.908 2.034 0 1.307 1.307-8.426 13.797l-7.7 10.165 12.785-13.36c10.894-11.33 19.32-17.574 19.32-14.234 0 .437-5.23 6.972-11.622 14.38-6.392 7.55-11.622 13.942-11.622 14.377 0 .436 5.375-4.938 11.913-11.764 18.303-19.46 19.03-20.332 22.807-21.35 2.76-.87 1.598 1.308-5.957 10.313-17.432 21.35-20.92 26.432-9.733 14.378 21.21-22.947 26.73-28.176 31.088-29.192 4.068-1.017 4.213-1.017 2.18 1.888-1.163 1.743-9.298 11.473-18.014 21.785-27.165 31.95-26.44 31.515 4.795-2.47 20.193-22.075 26.294-27.158 32.83-27.448.873-.146-1.742 2.614-5.81 5.954zm419.84 46.33c2.033 6.1-6.538 9.586-8.863 3.486-1.452-3.63.582-6.535 4.36-6.535 2.323 0 3.92 1.018 4.502 3.05zm-278.78 32.097l4.068 8.28-3.922 12.78c-4.94 16.12-7.844 30.353-9.733 47.345-1.307 10.457-2.47 14.67-5.81 19.897-2.18 3.63-5.666 9.585-7.41 13.36-1.888 3.922-3.776 6.972-4.358 6.972-1.744 0-3.197-27.74-2.325-45.748 1.453-28.32 7.264-54.9 17.288-79.008l4.648-11.037 1.745 9.44c.87 5.227 3.486 13.215 5.81 17.717zm227.062-16.992c21.064 3.486 38.497 6.68 38.933 6.97.58.727-19.176 38.633-20.92 40.376-.87.727-68.86-3.194-81.352-4.79-2.76-.437-2.034-2.325 9.443-22.948 12.785-22.657 14.82-26.142 15.254-26.142.146 0 17.578 2.904 38.643 6.535zm44.163-4.212c1.453 1.453-1.743 6.39-4.068 6.39-2.615 0-2.615-.726-.726-4.502 1.598-2.758 3.196-3.484 4.794-1.887zm-460.95 18.59c0 10.457 3.63 29.337 8.134 41.682 3.632 9.876 3.632 10.167 1.308 21.785-2.76 14.814-2.906 45.458-.145 59.69 2.76 14.234 5.665 22.513 13.51 38.488 3.632 7.407 6.247 14.233 5.956 15.105-.726 2.033-11.767-7.117-19.03-15.83-6.393-7.553-14.092-21.06-18.305-31.952-3.05-7.55-3.05-7.55-.145-7.55 2.76 0 2.905-1.018 2.905-18.156V319.88h-4.358c-3.632 0-4.503-.726-5.956-5.52-.872-2.903-2.034-12.925-2.325-22.074-.582-13.507-.146-19.026 2.324-29.337 3.05-12.927 12.64-36.02 14.818-36.02.726 0 1.307 3.486 1.307 7.843zm312.917 41.537c2.034 12.345 5.375 29.192 7.41 37.325l3.485 14.814-2.76 8.277c-1.598 4.502-2.47 8.714-2.034 9.44.436.727-2.47 4.793-6.537 9.005l-7.263 7.552-2.76-6.68c-9.443-21.786-8.426-57.658 2.76-93.53 1.598-5.375 3.196-9.44 3.487-9.15.29.144 2.18 10.6 4.213 22.946zm-415.335 14.523l2.034 10.893-12.058 43.57-12.058 43.57-4.94-.436c-5.955-.435-49.247-20.478-49.247-22.8 0-5.665 35.738-52.14 64.647-83.8 8.28-9.15 8.716-9.44 9.152-5.81.145 2.178 1.308 8.86 2.47 14.813zm533.878-16.266c0 .29-4.36 9.15-9.734 19.316-9.588 18.155-10.024 18.735-14.527 18.735-2.616 0-4.795-.435-4.795-.87 0-.582 4.94-9.586 11.04-20.043 10.025-17.283 11.477-19.17 14.528-18.59 1.888.29 3.486 1.017 3.486 1.452zm-488.844 19.026c-.436 2.324-2.324 9.004-4.067 14.96l-3.343 10.6-11.186.437c-10.75.435-11.185.29-11.185-2.905 0-14.814 11.477-27.16 25.133-27.304 5.375 0 5.52.146 4.648 4.213zm11.332 4.357c-4.94 20.042-5.376 21.204-9.734 21.64-3.486.435-4.067 0-3.486-2.18 7.844-28.32 7.118-26.43 10.75-24.834 2.76 1.307 3.196 2.324 2.47 5.374zm21.5 13.652c2.324 3.195 4.213 6.39 4.213 7.116 0 .58-5.81 1.162-13.074 1.162-7.118 0-13.074-.436-13.074-.87 0-1.018 4.213-17.865 5.084-20.624 1.017-2.615 11.332 5.518 16.852 13.216zm-69.15 5.664c3.05 6.68 3.632 9.876 3.632 23.237v15.686h9.734v11.182c.144 6.245 1.597 17.282 3.34 24.69 3.342 14.232 2.615 19.315-2.614 19.315-1.453 0-8.862-3.63-16.416-8.133-7.41-4.502-15.98-9.295-18.886-10.602l-5.23-2.324 11.04-40.23c6.103-22.22 11.187-40.374 11.478-40.374.29 0 2.034 3.485 3.922 7.552zm504.823 4.357c0 2.614.437 8.278.873 12.345l1.017 7.697H852.913l3.632-10.602c1.888-5.664 3.777-11.328 4.213-12.345.435-1.307 9.878-1.743 39.95-1.743h39.223v4.648zm-421.29 15.685v13.07h-75.542v-26.14h75.542v13.07zm190.453 15.685c2.76 23.528 10.17 46.33 21.355 64.484 9.007 14.96 9.007 15.104.29 16.993-4.067.87-8.28 1.597-9.297 1.597-4.067 0-22.516-46.91-27.02-68.695-1.888-9.73-1.017-13.652 7.12-29.338l5.228-10.166.29 5.81c.29 3.194 1.163 11.908 2.035 19.315zm221.977 3.34c.87 5.81 1.452 10.603 1.162 10.893-.29.436-21.936.436-47.94.29l-47.504-.435 9.152-10.456 9.007-10.457h37.19l37.19-.145 1.743 10.312zM506.147 368.1c12.493 38.34 44.744 66.08 90.214 78.135 28.91 7.553 60 9.876 95.88 7.407 73.51-5.083 107.358-19.17 149.923-62.16l19.176-19.316h27.6c18.014 0 27.748.58 27.748 1.453 0 4.21-19.03 37.615-32.832 57.512-10.605 15.25-13.365 17.282-38.497 27.303-30.944 12.345-75.688 22.076-121.885 26.433-30.072 2.904-100.82 2.033-125.66-1.453-32.542-4.792-57.24-10.457-82.226-19.17-20.34-7.117-29.055-11.184-52.88-24.836-25.713-14.813-40.676-22.22-54.477-27.303-13.22-4.793-25.423-5.374-30.944-1.743-4.36 2.905-4.94 1.453-1.744-4.792 3.632-6.97 11.767-11.62 20.484-11.62 9.878 0 16.416 2.47 34.14 12.927 16.705 9.876 21.354 10.747 25.857 5.083 3.777-4.792 3.777-6.1.146-21.204-1.598-6.68-2.906-17.137-2.906-23.382V356.19h48.956l3.924 11.908zm10.17-2.034c8.57 22.22 25.42 43.28 43.29 53.737 24.55 14.524 58.254 22.367 104.596 24.4 69.15 3.05 135.395-20.333 174.473-61.724 5.81-6.1 10.896-10.312 12.64-10.312 1.597 0 2.904.58 2.904 1.453 0 2.614-29.78 31.515-41.402 40.084-35.738 26.288-79.03 37.326-147.452 37.326-27.893 0-42.565-1.597-64.647-7.116-49.103-12.2-80.627-39.504-92.83-80.17l-2.18-7.55h3.487c2.906 0 3.923 1.596 7.12 9.874zm305.653-2.033c6.246 3.196 7.41 4.358 6.1 5.956-1.306 1.597-.87 2.033 2.326 2.47 2.18.29 4.648 1.596 5.52 2.903 1.743 2.904-2.324 7.842-14.673 17.282-8.86 6.97-9.878 6.68-20.047-4.793-5.375-6.246-15.254-23.093-15.254-26.288 0-1.597 6.683-2.178 17.433-1.888 8.426.29 12.64 1.307 18.595 4.357zm-483.76-1.742c2.76 2.76 2.035 6.68-1.16 7.698-3.197 1.016-7.265-1.307-7.265-4.212 0-2.18 2.906-5.228 5.085-5.228.87 0 2.324.726 3.34 1.742zm430.154 34.276l-9.007 30.5-5.52 1.45c-3.196.727-5.666 1.018-5.666.437 0-.435 4.07-13.797 9.008-29.627 8.862-28.175 9.152-28.902 14.237-31.516 2.76-1.452 5.23-2.47 5.52-2.178.29.144-3.632 14.086-8.57 30.934zm18.304-22.076c2.18 4.502 8.136 12.635 13.22 18.01l9.298 9.875-10.46 6.1c-12.203 7.407-32.25 16.266-32.832 14.668-.145-.58 3.196-13.215 7.7-28.174 4.358-14.96 7.99-27.45 7.99-27.885 0-2.177 1.453.146 5.084 7.408zm-399.645 13.36c2.47.728 2.47.873-.727 2.47-3.05 1.743-5.375.872-23.39-8.133-14.38-7.26-19.756-10.602-19.175-12.054.583-1.597 5.23 0 20.63 7.408 10.896 5.228 21.065 9.876 22.663 10.31zm364.2 14.815c-4.36 14.378-8.572 26.142-9.153 26.142-1.744 0-3.05-10.02-2.034-17.137 1.598-11.91 5.23-20.333 12.057-27.885 3.632-3.92 6.683-7.262 6.974-7.262.145 0-3.342 11.765-7.845 26.143zM590.985 381.17c-.436 1.015-3.487 10.31-6.973 20.767-3.34 10.312-6.683 19.46-7.264 20.042-.582.726-3.778-.146-6.974-1.743-4.94-2.615-5.956-3.922-7.554-10.167-1.453-6.245-1.308-7.697 1.162-12.635 4.068-7.843 10.46-13.507 17.87-15.83 8.134-2.47 10.458-2.615 9.732-.436zm13.074.434c.29.29-2.76 10.893-6.973 23.674l-7.263 23.382-4.358-1.452c-2.325-.872-3.923-2.324-3.632-3.195.29-1.017 3.34-10.312 6.682-20.623 7.554-23.674 7.845-24.4 11.913-23.093 1.742.436 3.34 1.162 3.63 1.307zm15.11 4.067c.58.872 1.16 3.34 1.16 5.375 0 5.81 7.99 26.868 13.657 36.453 2.905 4.938 4.94 9.295 4.503 9.73-.872 1.018-20.63-1.887-33.994-4.937-7.118-1.45-10.314-2.904-9.878-4.066.436-1.016 3.922-11.763 7.7-23.963l6.972-22.22 4.358.872c2.47.58 4.94 1.742 5.52 2.76zm24.26 7.553c21.5 9.15 20.483 7.988 13.51 15.976-6.247 7.115-11.913 17.282-11.913 21.493 0 4.793-2.76 2.324-7.844-6.68-5.375-9.44-12.494-29.192-12.494-34.275 0-1.743.726-3.05 1.597-3.05.872 0 8.57 2.904 17.142 6.535zm36.318 19.17c6.1 3.777 16.125 10.748 22.517 15.54l11.33 8.715-4.066 1.307c-4.94 1.598-59.418 2.18-60.87.726-.582-.434 0-4.5 1.307-9.003 1.743-5.664 4.503-10.312 9.733-15.976 4.068-4.5 7.845-8.132 8.28-8.132.436 0 5.666 3.05 11.768 6.826zm-272.678 4.213c13.366 4.792 28.474 12.345 54.042 27.013 30.798 17.718 51.427 26.14 84.985 34.565 39.078 9.73 73.943 13.507 122.9 13.507 76.123 0 137.864-11.474 195.392-36.31 1.162-.58-.146 1.89-3.05 5.52-3.052 3.776-8.427 7.988-13.076 10.312-11.622 5.81-37.19 13.797-59.416 18.59-17.288 3.776-18.45 4.21-9.443 3.485 19.03-1.453 41.838-7.117 65.373-15.83 1.743-.728.58 1.306-3.487 5.518-5.52 5.664-8.425 7.26-20.337 11.183-7.7 2.47-27.02 6.68-43 9.295-15.98 2.76-27.603 5.084-26.005 5.084 6.973.29 47.65-5.956 60.87-9.296 7.844-2.034 14.527-3.34 14.817-3.05.436.29-3.05 3.485-7.41 7.116-8.424 6.826-15.688 9.295-39.513 13.362-6.973 1.162-9.442 1.888-6.392 2.033 2.76 0 11.04-1.162 18.16-2.614 7.263-1.452 13.22-2.468 13.51-2.323.87.726-18.595 12.345-33.122 19.607-17.58 8.86-42.42 17.428-63.92 22.075-22.373 4.792-73.51 4.792-95.88 0-45.326-9.877-100.965-37.326-131.473-64.92l-7.263-6.536 9.442 4.357c10.605 4.794 30.798 10.748 40.677 12.2 4.07.582 1.018-.725-7.99-3.485-21.935-6.68-48.084-20.042-58.69-29.918-4.94-4.502-8.86-8.714-8.86-9.295 0-.58 7.408 2.614 16.415 7.262 20.338 10.602 39.37 17.573 64.356 24.11 23.68 5.953 31.67 6.39 11.477.58-48.376-14.088-92.103-35.147-114.62-55.044-14.818-13.07-27.747-19.607-38.933-19.752-4.504 0-7.845-.436-7.41-1.162 1.454-2.47 16.707-.87 26.876 2.76zM867.73 462.5c-.726 1.016-3.922 5.083-6.972 9.15l-5.666 7.26 9.007-8.568c10.023-9.73 13.22-10.02 5.955-.58l-4.794 6.244 6.538-5.954c7.12-6.826 11.477-7.262 7.555-.872-2.47 3.922-2.47 3.922.435 1.307 1.598-1.307 3.487-2.47 4.068-2.47.58 0 4.65 3.342 9.007 7.408 9.297 9.005 17.433 23.964 19.32 35.873 1.31 8.424 1.163 11.62-1.452 23.673l-1.45 6.537-47.94 7.552c-35.157 5.518-48.813 7.115-50.702 6.1-3.777-2.035-9.442-12.056-12.057-21.35l-2.178-7.408 13.22-9.73c7.844-5.664 22.807-19.316 35.882-32.678 20.92-21.494 25.713-25.997 22.227-21.494z"/><path d="M865.593 330.773v6.535h13.076v-13.071h-13.074v6.536zM891.742 330.773v6.535h13.075v-13.071h-13.075v6.536zM917.89 330.773v6.535h13.076v-13.071H917.89v6.536zM861.235 358.367v6.536h13.075v-13.071h-13.075v6.535zM903.364 358.367v6.536h13.077v-13.071h-13.076v6.535zM855.424 390.318c0 5.084 0 5.084 6.537 5.084 6.54 0 6.54 0 6.54-5.084 0-5.083 0-5.083-6.54-5.083-6.536 0-6.536 0-6.536 5.083zM885.93 390.318c0 5.084 0 5.084 6.54 5.084 6.536 0 6.536 0 6.536-5.084 0-5.083 0-5.083-6.537-5.083-6.54 0-6.54 0-6.54 5.083zM550.35 452.77v9.44h13.076v-18.88H550.35v9.44zM771.166 458.578v9.44h13.074v-18.88h-13.074v9.44zM662.21 471.65v9.44h13.076v-18.88H662.21v9.44zM451.566 338.034v6.536h13.074V331.5h-13.074v6.534zM477.715 338.034v6.536h13.074V331.5h-13.075v6.534zM503.864 338.034v6.536h13.075V331.5h-13.073v6.534zM781.324 522.852c.968.323 2.905.323 4.035 0 .968-.484.16-.807-2.1-.807-2.26 0-3.066.323-1.936.807zM232.294 276.267c-.7.86-1.507 2.476-1.67 3.498-.214 1.077-.86 2.96-1.4 4.198-1.398 3.122-1.344 5.76.163 8.02 1.884 2.852 5.06 2.798 6.568-.054 1.4-2.64 1.023-6.352-.86-9.15-1.67-2.423-1.886-4.63-.81-7.16.7-1.452-.537-1.076-1.99.647zM238.97 293.328c-1.023.43-2.154 1.184-2.53 1.722-3.015 3.93 3.822 8.235 8.775 5.598 5.33-2.907 5.49-2.96 8.02-2.1 2.155.7 2.262.7 1.832-.16-.862-1.615-2.208-2.37-7.43-4.145-5.975-1.99-6.19-1.99-8.667-.915zM218.405 294.62c-2.477 1.668-5.115 2.045-7.053 1.022-1.507-.807-1.67-.323-.43 1.292.645.807 2.1 1.668 3.39 1.99 1.24.324 3.393 1.078 4.792 1.616 3.23 1.346 6.138 1.346 8.345 0 4.467-2.69 1.668-7.535-4.308-7.535-1.723 0-3.015.43-4.737 1.615zM231.38 300.486c-.27.592-.54 2.207-.54 3.66-.107 9.634-3.93 18.73-11.143 26.588-1.562 1.668-2.854 3.175-2.854 3.39 0 .54 8.076.377 9.152-.215.97-.485 1.077-.324 1.4 1.56.43 2.583 1.884 5.06 3.66 6.243 1.13.754 1.562.807 2.8.162 2.154-1.023 3.554-3.23 3.823-6.028.27-2.1.484-2.476 1.184-2.1.485.216 2.907.485 5.384.593l4.522.215-2.37-2.8c-4.467-5.273-5.92-7.265-7.697-10.763-2.476-4.79-3.5-8.557-3.93-14.263-.16-2.692-.538-5.383-.753-6.082-.538-1.453-1.884-1.56-2.638-.162zM48.365 276.633c-.7.86-1.508 2.476-1.67 3.498-.214 1.078-.86 2.962-1.4 4.2-1.398 3.12-1.345 5.758.163 8.02 1.884 2.85 5.06 2.797 6.568-.055 1.4-2.637 1.023-6.35-.862-9.15-1.67-2.422-1.884-4.628-.807-7.158.7-1.453-.54-1.076-1.992.646zM55.04 293.694c-1.022.43-2.153 1.184-2.53 1.723-3.015 3.928 3.823 8.234 8.775 5.597 5.33-2.906 5.492-2.96 8.022-2.1 2.153.7 2.26.7 1.83-.16-.86-1.615-2.207-2.37-7.43-4.145-5.975-1.992-6.19-1.992-8.666-.916zM34.475 294.986c-2.476 1.668-5.114 2.045-7.052 1.023-1.508-.81-1.67-.324-.43 1.29.645.808 2.1 1.67 3.39 1.992 1.24.323 3.392 1.076 4.792 1.614 3.23 1.346 6.137 1.346 8.345 0 4.468-2.69 1.67-7.535-4.307-7.535-1.723 0-3.015.432-4.738 1.616zM47.45 300.852c-.27.592-.54 2.207-.54 3.66-.106 9.634-3.93 18.73-11.143 26.588-1.56 1.668-2.853 3.175-2.853 3.39 0 .54 8.075.377 9.152-.215.97-.484 1.077-.323 1.4 1.56.43 2.585 1.884 5.06 3.66 6.244 1.13.753 1.562.807 2.8.16 2.154-1.022 3.553-3.228 3.822-6.027.27-2.1.485-2.476 1.185-2.1.484.216 2.907.485 5.383.593l4.523.215-2.37-2.798c-4.47-5.274-5.922-7.265-7.7-10.764-2.475-4.79-3.498-8.557-3.93-14.262-.16-2.69-.537-5.382-.752-6.082-.54-1.453-1.885-1.56-2.638-.162zM139.378 276.416c-.7.86-1.508 2.476-1.67 3.498-.215 1.077-.86 2.96-1.4 4.198-1.4 3.122-1.345 5.76.162 8.02 1.885 2.852 5.06 2.798 6.568-.054 1.4-2.637 1.023-6.35-.86-9.15-1.67-2.422-1.885-4.628-.81-7.158.7-1.453-.537-1.076-1.99.646zM146.053 293.477c-1.023.43-2.153 1.184-2.53 1.723-3.015 3.928 3.822 8.234 8.775 5.597 5.33-2.906 5.49-2.96 8.022-2.1 2.153.7 2.26.7 1.83-.16-.86-1.615-2.207-2.37-7.43-4.145-5.975-1.99-6.19-1.99-8.667-.915zM125.488 294.77c-2.477 1.667-5.114 2.044-7.053 1.022-1.507-.808-1.668-.323-.43 1.29.646.81 2.1 1.67 3.39 1.993 1.24.323 3.393 1.076 4.793 1.614 3.23 1.345 6.137 1.345 8.344 0 4.47-2.692 1.67-7.536-4.307-7.536-1.722 0-3.014.43-4.737 1.615zM138.462 300.635c-.27.592-.538 2.207-.538 3.66-.108 9.634-3.93 18.73-11.144 26.588-1.56 1.668-2.853 3.175-2.853 3.39 0 .54 8.075.377 9.152-.215.968-.484 1.075-.323 1.398 1.56.43 2.585 1.885 5.06 3.66 6.244 1.132.754 1.563.808 2.8.162 2.154-1.023 3.554-3.23 3.823-6.028.27-2.1.486-2.476 1.185-2.1.485.216 2.908.485 5.384.593l4.52.214-2.368-2.798c-4.468-5.275-5.92-7.266-7.698-10.765-2.476-4.79-3.5-8.556-3.93-14.26-.162-2.692-.538-5.383-.754-6.083-.538-1.453-1.884-1.56-2.638-.162zM4.287 375.778c-.27.592-.538 2.206-.538 3.66-.055 4.816-1.438 10.3-3.31 14.76.134 6.864.342 9.873-.136 16.563.43 2.585 1.884 5.06 3.66 6.245 1.13.753 1.562.807 2.8.16 2.153-1.022 3.553-3.228 3.822-6.027.27-2.1.485-2.476 1.185-2.1.485.216 2.908.485 5.384.593l4.522.216-2.368-2.798c-4.47-5.275-5.922-7.266-7.7-10.764-2.475-4.79-3.498-8.558-3.93-14.263-.16-2.69-.537-5.38-.753-6.08-.538-1.454-1.884-1.562-2.638-.162z"/><path d="M1050 523.045V700H286.062V512.18c.753 2.996 12.45 6.69 20.73 9.69 15.052 5.245 16.182 5.245 30.86-4.497 19.945-13.115 32.364-12.74 54.944 1.498 33.87 21.36 42.903 21.734 53.064 3 7.527-14.614 24.462-14.614 53.44.374 12.42 6.37 25.215 11.24 28.978 11.24 3.387 0 11.667-5.995 18.065-13.114 14.3-16.486 22.58-15.362 59.46 5.995 29.732 17.61 39.893 18.735 42.904 4.122 4.14-18.36 7.527-21.358 24.838-21.358 10.538.374 26.344 4.87 42.527 12.364 13.924 6.745 28.225 11.99 30.86 11.99 3.01 0 6.397-5.245 7.903-11.615 1.13-6.37 6.02-13.865 10.16-16.862 10.162-6.37 20.7-3.747 53.817 13.114 33.118 16.486 42.527 14.988 42.527-7.12 0-6.744 7.15-11.24 18.063-11.24 3.387 0 17.312 6.745 31.236 15.362 30.106 17.986 38.386 17.986 41.02-.374 2.634-18.735 15.054-19.11 47.42-2.248 24.084 13.114 51.12 18.41 51.12 10.543z" fill="#0091c8"/><path d="M293.074 522.593c.753 2.998 8.656 7.494 16.935 10.49 15.053 5.247 16.182 5.247 30.86-4.495 19.945-13.114 32.364-12.74 54.944 1.5 33.87 21.356 42.903 21.73 53.064 2.996 7.527-14.613 24.462-14.613 53.44.375 12.42 6.37 25.215 11.24 28.98 11.24 3.386 0 11.665-5.995 18.063-13.114 14.302-16.487 22.58-15.363 59.462 5.995 29.73 17.61 39.892 18.735 42.903 4.122 4.14-18.36 7.527-21.357 24.838-21.357 10.538.375 26.344 4.87 42.527 12.365 13.924 6.744 28.225 11.99 30.86 11.99 3.01 0 6.398-5.246 7.903-11.616 1.13-6.37 6.02-13.863 10.16-16.86 10.162-6.37 20.7-3.748 53.818 13.113 33.118 16.487 42.527 14.988 42.527-7.12 0-6.743 7.15-11.24 18.064-11.24 3.388 0 17.313 6.745 31.237 15.363 30.107 17.985 38.387 17.985 41.02-.375 2.636-18.734 15.055-19.11 47.42-2.248 24.086 13.114 46.666 17.61 46.666 9.742" fill="none" stroke="#fff" stroke-width="8.762" stroke-linecap="round" stroke-linejoin="round"/><path d="M289.92 513.298c.753 2.997 8.657 7.493 16.936 10.49 15.054 5.247 16.183 5.247 30.86-4.495 19.946-13.115 32.365-12.74 54.945 1.498 33.872 21.36 42.904 21.734 53.065 3 7.527-14.614 24.462-14.614 53.44.374 12.42 6.37 25.215 11.24 28.98 11.24 3.386 0 11.665-5.995 18.063-13.114 14.3-16.486 22.58-15.362 59.46 5.995 29.732 17.61 39.893 18.735 42.904 4.122 4.14-18.36 7.527-21.358 24.838-21.358 10.538.374 26.344 4.87 42.527 12.364 13.924 6.745 28.225 11.99 30.86 11.99 3.01 0 6.397-5.245 7.903-11.615 1.13-6.37 6.02-13.865 10.16-16.862 10.162-6.37 20.7-3.747 53.817 13.114 33.118 16.487 42.527 14.988 42.527-7.12 0-6.744 7.15-11.24 18.064-11.24 3.387 0 17.312 6.745 31.236 15.363 30.107 17.985 38.387 17.985 41.02-.375 2.636-18.735 15.055-19.11 47.42-2.248 24.086 13.114 46.666 17.61 46.666 9.742" fill="none" stroke="#000" stroke-width="8.762" stroke-linecap="round" stroke-linejoin="round"/><path d="M359.145 574.337c-6.447 4.126-5.73 4.444 5.73 2.857 9.672-1.27 16.12.317 29.015 7.618 24.715 14.283 35.103 15.236 51.58 5.078 19.7-11.744 27.58-13.966 42.983-10.792 11.82 2.222 12.895 2.222 8.24-1.904-10.03-9.205-29.73-9.205-47.283 0-20.06 10.157-29.73 10.474-52.296.317-20.417-9.204-27.94-9.84-37.97-3.173zM728.802 583.86c-13.61 7.935-28.655 14.283-33.67 14.283-5.015 0-20.417-6.03-34.03-13.33-23.28-12.38-25.43-13.015-36.176-9.206-29.73 10.792-49.073 14.283-63.4 10.792-16.478-3.81-17.91-1.27-3.583 6.347 13.97 7.3 26.15 6.983 53.37-1.587 22.568-6.983 22.926-6.983 34.03-.952 44.774 23.806 57.67 25.075 80.952 8.57 26.865-19.045 37.97-20.632 76.295-9.523 22.925 6.666 24.716 6.666 35.82 1.905l11.82-5.396h-14.686c-8.238-.318-25.79-3.81-38.685-8.253-13.254-4.443-28.298-7.934-33.67-7.934-5.732 0-20.418 6.03-34.388 14.283zM939.42 582.272c-4.297 1.587-8.954 4.127-10.387 6.03-2.865 4.445-21.49 4.445-31.52 0-6.09-2.538-5.732-1.586 2.148 4.762 12.18 9.84 21.135 10.475 36.895 1.905 11.104-6.35 12.537-6.35 25.074-1.588 21.133 7.618 25.073 5.396 8.238-4.76-16.836-10.16-18.985-10.476-30.447-6.35zM826.948 623.536c-10.388 6.983-22.925 12.697-27.58 12.697-4.3 0-17.91-4.444-29.373-9.84l-21.492-10.157-13.61 6.983c-7.523 3.808-17.91 8.57-23.284 10.474-5.732 2.22-10.03 5.078-10.03 6.348 0 4.76 11.462 2.54 27.222-5.714 17.552-9.205 27.58-8.57 44.775 1.905 23.64 15.236 31.163 14.6 57.31-3.81 16.478-11.743 27.94-12.06 55.88-1.27 20.775 7.62 23.282 7.937 34.028 3.81l11.82-4.444-12.537-.318c-6.805-.317-22.924-4.76-35.103-9.84-12.536-5.396-26.506-9.522-30.804-9.522-4.298 0-16.835 5.713-27.222 12.696zM533.586 625.123c-16.835 13.65-27.58 13.967-45.133 1.587-16.118-11.427-26.864-11.744-48.356-1.587-12.178 5.714-14.686 7.936-10.03 9.523 3.224 1.27 10.747-.318 16.836-2.857 15.76-7.302 23.64-6.35 43.7 6.03 10.03 6.03 19.7 11.11 21.133 11.11 1.433 0 9.313-4.444 17.552-9.523 25.073-16.188 30.088-16.823 54.445-7.935 22.208 8.57 28.656 7.935 39.402-3.492 4.656-5.08 4.298-5.08-2.866-1.904-11.463 5.396-19.7 4.76-41.193-4.127-24.716-10.158-29.014-10.158-45.49 3.173zM338.012 646.073c-4.3 1.904-9.672 6.03-11.82 9.522-4.3 5.714-3.94 6.03 2.507 3.174 8.953-4.444 24.356-4.444 27.22 0 1.434 1.904 8.956 7.617 16.836 12.696 18.627 11.744 34.03 12.062 53.013.952 14.327-8.253 23.998-8.887 44.774-2.857 5.014 1.59 4.298-.316-3.582-6.03-13.612-10.474-27.58-10.474-48.357 0-18.984 9.523-25.43 8.57-49.072-8.252-19.7-13.65-20.417-13.967-31.52-9.205zM594.12 660.356c-6.805 4.444-15.043 9.205-17.91 10.793-2.864 1.586-4.297 3.49-3.223 4.442 1.075 1.27 9.672-1.587 18.985-6.03 9.313-4.444 19.7-7.936 22.924-7.936 3.582 0 13.97 5.714 24 13.014 19.7 14.284 25.79 14.6 47.998.952 16.476-9.84 20.058-9.522 39.76 1.905 20.416 12.062 28.655 12.062 53.012-.318 21.85-10.793 29.73-10.475 51.58 2.22 7.522 4.128 16.12 7.62 18.984 7.62 8.24 0 24-7.936 32.238-15.87l7.164-6.985-12.537 6.666c-16.835 8.89-27.223 8.254-48.356-2.856-22.568-11.744-29.015-11.744-48.716 0-20.06 11.745-30.446 12.062-50.147 0-20.06-11.744-30.447-12.06-48.356 0-17.55 11.745-21.85 11.745-37.252.635-14.686-10.793-26.506-16.506-32.954-16.506-2.507.317-10.387 3.81-17.193 8.252z" fill="#fff"/><g font-size="12" fill-rule="evenodd"><path fill="#dc241f" d="M.248.1h286v233.233h-286z"/><path d="M286.297 29.263L286.044 0l-34.742.36L.426 203.444l-.13 29.89 35.004-.15 250.997-203.92z" fill="#009543"/><path d="M.297 29.263L.55 0l34.742.36 250.876 203.084.13 29.89-35.004-.152L.297 29.262z" fill="#009543"/><path fill="#fff" d="M.036 140.134L0 93.45l286.297-.25.036 46.684z"/><path fill="#fff" d="M119.848.03l47.48-.03.255 233.593-47.48.03z"/></g></svg>