<svg xmlns="http://www.w3.org/2000/svg" version="1" width="1200" height="600" viewBox="-15 -7.5 30 15"><defs><clipPath id="a"><path d="M-15-7.5h30v15h-30z"/></clipPath></defs><path fill="#00247D" d="M-15-7.5h30v15h-30z"/><g clip-path="url(#a)" transform="matrix(.5 0 0 .5 -7.5 -3.8)"><circle r="20" fill="#00247D"/><path d="M-20-10l40 20m-40 0l40-20" stroke-width="3" stroke="#fff"/><path d="M-20-10l40 20m-40 0l40-20" stroke-width="2" stroke="#CF142B"/><path fill="#fff" d="M0 0l20 10h-3L-3 0m3 0l20-10h3L3 0M0 0l-20 10h-3L-3 0m3 0l-20-10h3L3 0"/><path d="M-20 0h40M0-10v20" stroke-width="5" stroke="#fff"/><path d="M-20 0h40M0-10v20" stroke-width="3" stroke="#CF142B"/></g><path d="M5.018.454c-.32.272-.625.667-.7 1.025-.21 1.005-.49 1.23-.923 1.013 0 .54.474.582.682.266 0 .507.184.946.598 1.322.175.158.208.05.125-.125-.083-.175-.083-.74-.25-1.065.267.192.658.084.624-.44-.34.2-.68.19-.715-.283-.042-.558.175-1.367.558-1.716zM4.613-3.55c.022-.2-.02-.406-.166-.535-.282-.248-.56-.166-.764.034-.308-.167-.47.423-.82.323.058.19.15.274.324.208-.183.167 0 .367-.216.566.39.125.6-.09.583-.465.15.134.382.125.507-.024-.208-.067-.21-.248-.125-.416.125-.25.71-.24.678.31z" fill="#f7e017" stroke="#000" stroke-width=".01478375"/><path d="M5.515-.658c-.44.232-1.247.133-1.322-.44-.075-.575.482-.833.632-.908.233-.116.416.092.34.333.26-.09.317-.39.192-.565.34.024.657-.233.79-.6-.12.115-.445.038-.714.02.083-.09.082-.27.057-.36-.282.29-.69.158-1.23.998.083-.29.24-.873.332-1.256.01-.038.016-.076.02-.115.034-.55-.55-.56-.676-.31.137.154.065.334.016.607-.058.324-.183 1.073-.29 1.322-.034-.392-.292-.417-.342-.608-.075.05-.117.183-.1.275-.09-.1-.407.025-.524-.125-.125.25.075.5.283.607-.122.007-.15.153-.284.153.18.208.362.29.574.307.212.017.37.096.5.354.207.416 1 .686 1.745.308z" fill="#337321" stroke="#000" stroke-width=".01478375"/><path d="M6.613-1.166c-.25.69-.93 1.18-1.24 1.256-.523.127-1.59.646-1.877.913-.046-.01-.088-.027-.118-.048-.14-.1-.258-.424-.008-.7.78-.73 1.62-.415 2.145-.913-.44.232-1.247.133-1.322-.44.474.124 1.33.132 2.012-.6.092.1.358.416.408.532z" fill="#f7e017" stroke="#000" stroke-width=".01478375"/><path d="M5.018.454c-.395.335-.6 1.158-.56 1.715.013.154.056.26.122.323.03-.316.25-1.132.81-1.497C5.865.69 6.605-.002 6.88-.792c-.05-.14-.134-.24-.292-.34-.272.745-1 1.103-1.57 1.586z" fill="#337321" stroke="#000" stroke-width=".01478375"/><path d="M6.36-1.486c-.142.212-.462.503-.77.62.067-.075.087-.17.092-.25-.39.15-1.173.133-1.49.017.475.126 1.332.134 2.013-.598.067.075.125.14.154.212z" fill="#316d3a" stroke="#000" stroke-width=".01478375"/><path d="M3.37.256c-.636.595-.216 1.115.033 1.23-.066.417.324.367.316.716.157-.09.2-.332.174-.524.2.216.706-.025.815.374.065-.44-.276-.88-.7-.84.175-.157.075-.415-.09-.482-.035.325-.4.325-.542.225-.14-.1-.258-.424-.008-.7z" fill="#337321" stroke="#000" stroke-width=".01478375"/><path d="M4.746 4.04c-.07.04-.064.13-.02.187.087.116-.062.38.22.437.083.016.147-.035.178-.13.088-.26-.19-.29-.216-.415-.025-.126-.104-.113-.162-.08z" fill="#f7e017" stroke="#000" stroke-width=".01478375"/><path d="M4.983 4.53c-.093.044-.175.105-.137.404.015.124.008.424-.1.428.067.033.208.07.266-.008.056.093.183.066.233-.05.066.054.158-.037.158-.116.058.037.175-.017.145-.196.07.025.163-.025.196-.07-.104-.02-.366-.163-.428-.275-.063-.112-.225-.166-.333-.116z" fill="#f7e017" stroke="#000" stroke-width=".01478375"/><g fill="none" stroke="#000" stroke-width=".125"><path d="M3.542-3.88c.042-.062.09-.12.14-.17M5.124-2.78c.074-.04.185-.046.31-.038M5.012 5.354c-.03-.042-.04-.216-.02-.322M5.245 5.304c-.046-.035-.133-.156-.148-.262M5.403 5.188c-.058-.028-.2-.21-.23-.33M5.548 4.992c-.068-.014-.278-.152-.365-.297" stroke-width=".01478375"/></g><path d="M9.382.265c1.023.856 1.09 1.538.93 1.937-.082-.374-.506-.956-.947-1.106l.017-.83z" fill="#f7e017" stroke="#000" stroke-width=".01478375"/><path d="M7.553-.218H9.45v2.246c0 1.912-1.066 3.043-2.147 3.642-1.08-.6-2.145-1.73-2.145-3.642V-.218h1.33c.002.117.013.29.15.466.314-.03.67-.266.915-.466z" fill="#337321" stroke="#000" stroke-width=".01478375"/><path d="M9.45-.218v2.246c0 .577-.098 1.083-.264 1.525L7.303.098 5.42 3.553c-.165-.442-.262-.948-.262-1.525V-.218h4.29z" fill="#006ec7" stroke="#000" stroke-width=".01478375"/><path d="M9.244 3.387c-.033.102-.094.267-.14.37L7.304.41l-1.8 3.346c-.048-.102-.108-.267-.142-.37L7.302-.21l1.942 3.597z" fill="#f7e017"/><g fill="#f7e017" stroke="#000" stroke-width=".125"><path d="M8.16 4.618c.05.024.14.07.183.087.1-.2.116-.482.083-.732-.108.275-.474.267-.574.433.06.03.118.07.167.106-.125.125-.418.335-.584.384V3.113c0-.125-.04-.23-.04-.333v-.37c0-.082-.018-.202-.093-.202s-.09.12-.09.203v.37c0 .104-.043.225-.043.333v1.783c-.09-.266-.45-.175-.616-.44.065-.016.134-.02.2-.01-.124-.423-.465-.456-.532-.58 0 .174-.075.58.042.756.026-.03.065-.063.112-.092.142.307.777.308.927.816.12-.187.553-.403.856-.728z" stroke-width=".01478375"/><path d="M7.303 3.134c.14 0 .59-.046.753-.046.042 0 .076-.064.076-.142 0-.078-.034-.14-.076-.14-.162 0-.612-.047-.753-.047-.14 0-.59.045-.752.045-.042 0-.076.063-.076.14 0 .08.034.143.077.143.163 0 .612.046.753.046zM7.212 2.403c-.03-.025-.07-.04-.113-.04-.095 0-.17.07-.17.156 0 .085.075.155.17.155.094 0 .17-.07.17-.156 0-.067.097-.067.097 0 0 .134-.12.243-.268.243-.148 0-.268-.11-.268-.244 0-.135.12-.245.267-.245.044 0 .085.01.122.028-.003.022-.01.064-.01.1z" stroke-width=".01478375"/><path d="M6.55 3.088c.043 0 .077-.064.077-.142 0-.078-.034-.14-.076-.14" stroke-width=".01478375"/><path d="M6.613 3.088c.043 0 .077-.064.077-.142 0-.078-.034-.14-.077-.14M7.024 3.117c.05 0 .092-.077.092-.17 0-.095-.04-.17-.092-.17M7.12 3.124c.053 0 .096-.08.096-.178 0-.098-.043-.177-.097-.177M7.44 3.126c.052 0 .096-.08.096-.18 0-.1-.044-.18-.097-.18M7.54 3.12c.053 0 .096-.077.096-.174 0-.096-.043-.174-.097-.174M7.986 3.09c.043 0 .078-.064.078-.144 0-.08-.035-.143-.078-.143M6.376 4.53c.052-.032.113-.06.178-.075M8.068 4.547l-.05-.035M8.16 4.618c.116-.126.213-.267.266-.428" stroke-width=".01478375"/></g><g stroke="#000" stroke-width=".125"><path d="M6.922 1.37c0-.04.034-.058.072-.088.047-.035.066-.052.11-.052h.544c.04 0 .05.01.05.048v.742c0 .038-.01.048-.05.048h-.726v-.706" fill="#fff" stroke-width=".01478375"/><path d="M7.513 2.133c.072 0 .06-.002.11-.052.052-.052.047-.047.047-.096v-.678c0-.035-.01-.045-.046-.045H7.12c-.04 0-.058.017-.1.05-.037.027-.068.043-.068.08v.743h.56z" fill="#e5e5e5" stroke-width=".01478375"/><path d="M7.567 2.117c0 .037-.01.048-.05.048h-.545c-.04 0-.05-.01-.05-.048v-.742c0-.038.01-.048.05-.048h.545c.04 0 .05.01.05.048v.742z" fill="#fff" stroke-width=".01478375"/></g><path d="M8.625-.653c.106.12.14.28.084.435h-.16c.067-.2.025-.39-.257-.416-.423-.037-.915.782-1.655.882-.216-.258-.205-.75.07-.982-.142-.41-.442-.86-.65-1.053-.135-.022-.292-.033-.393-.027.108-.233.416-.478.666-.578.04-.06.084-.116.125-.167.025-.32 1.547-.17 1.87.03 0 .358.142 1.553.3 1.877z" fill="#96877d" stroke="#000" stroke-width=".01478375"/><path d="M6.78-.434c-.036-.555-.26-1.01-.575-1.322.15.04.458.04.666-.108.275-.183.99-.503 1.252-.366.02.046.033.15.017.216-.064-.166-.754.092-.95.17-.186.088-.27.204-.203.466-.108-.09-.07-.18-.183-.245.046.108.083.303.096.46-.042-.11-.117-.352-.28-.493.143.274.265.933.207 1.282.112 0 .36-.11.46-.19-.088.126-.34.213-.502.246-.072.088-.122.312-.118.437-.012-.155.036-.53.114-.554zM8.625-.653C8.487-.806 8.23-.89 7.902-.8c.05-.025.158-.066.253-.083-.012-.087-.09-.462-.103-.553l.09-.037c.047.224.105.482.142.586.03.008.096.02.154.05-.025-.088-.166-.715-.162-.782l.125-.065c.05.34.13.835.225 1.032z"/><g fill="#96877d" stroke="#000" stroke-width=".125"><path d="M8.55-.218c.067-.2.025-.39-.257-.416-.22-.02-.457.194-.74.416h.998zM6.713-2.01c-.125.017-.404-.008-.545-.054.008-.037.023-.076.04-.117-.086.057-.252.17-.314.25.2.04.61.062.82-.08z" stroke-width=".01478375"/></g><path d="M6.708-.734c.046.133.075.26.08.375M6.33-2.392c-.075.11-.14.228-.162.328.14.046.42.07.545.054" fill="none" stroke="#000" stroke-width=".01478375"/><path d="M6.06-1.787c.053.01.103.02.145.03.15.042.458.042.666-.107.21-.15.774-.616 1.414-.666" fill="none" stroke="#000" stroke-width=".01478375"/><path d="M5.894-1.93c.2.04.61.062.82-.08.48-.328.947-.52 1.412-.544" fill="none" stroke="#000" stroke-width=".01478375"/><path d="M9.382.265c.7.482 1.214.948 1.364 1.696.15.75.432.95.782.75-.084.432-.516.482-.882.15.033.498-.166 1.097-.682 1.313-.033-.3.165-.536.108-.782-.025-.107-.033-.356.108-.473-.274.092-.706-.083-.748-.49.316.15.723.174.88-.225.16-.4.093-1.08-.93-1.937zM10.264-3.627c.216-.566.78-.507.973-.266.557-.316.632.4 1.105.257-.008.134-.166.258-.34.25.182.166-.075.416.315.565-.332.166-.798-.01-.922-.466-.11.216-.5.216-.657.04.34-.09.316-.406.124-.53-.192-.127-.532-.076-.598.15zM8.577-2.382c.155.5.476.966.822 1.283.398.367 1 .275 1.338-.074.008.696-.714.75-1.115.532-.177-.096-.32-.045-.15.108.258.233.822.406 1.49.55 1.163.25.748 1.172.407 1.163.097-.003.177-.105.037-.23-1.01-.91-3.064-.552-3.03-2.58-.217.53-1.107.323-.69-.31.132.11.365.117.43-.05.053-.128.02-.353-.214-.547.038-.003.12 0 .112-.095.01.056.06.14.192.11.038.06.077.1.13.078.01-.004.042-.02.03-.08.01.11.14.15.21.142z" fill="#337321" stroke="#000" stroke-width=".01478375"/><path d="M9.623-.642c.483.316 1.028.316 1.53-.266.158-.183.408-.34.582-.358.175-.016.167-.182.3-.216-.083-.025-.117-.124-.24-.112.31-.108.22-.358.373-.478-.125.046-.32-.142-.5.095.047-.108-.016-.237-.06-.286.015.124-.247.15-.297.465-.027.178-.123.167-.14-.108-.012-.2-.108-.757-.225-1.04-.116-.282-.143-.67.015-.728-.023-.04-.057-.076-.098-.103-.192-.126-.532-.075-.598.15-.217.565.39.89.34 1.505-.09-.457-.83-.574-.823-1.023-.24.108-.207.308-.115.466-.15-.232-.49.15-.782-.166-.033.416.333.574.632.59-.15.267.05.492.25.566.008-.465.963-.274.973.524.008.682-.724.74-1.115.524zM10.962.015c1.164.25.75 1.173.408 1.164-.218-.006-.425-.188-.437-.346-.25.133-.183.395.008.5-.523-.063-.743.282-.755.66.095-.174.386-.187.494-.15.107.038.386.06.498-.066-.09.08.06.262-.07.403.436-.015.627-.423.553-.602.566-.515.458-1.355-.698-1.563zM10.076 3.966c.076.048.066.147.015.21-.102.126.053.427-.264.478-.094.015-.163-.045-.194-.152-.086-.296.226-.317.26-.455.033-.138.12-.12.184-.08z" fill="#f7e017" stroke="#000" stroke-width=".01478375"/><path d="M9.79 4.503c.102.053.19.124.135.457-.022.137-.027.473.093.482-.076.034-.235.067-.297-.02-.065.1-.206.065-.256-.067-.077.058-.175-.048-.172-.137-.066.04-.194-.026-.154-.224-.08.025-.18-.035-.215-.087.117-.02.416-.165.49-.288.075-.124.258-.177.377-.117z" fill="#f7e017" stroke="#000" stroke-width=".01478375"/><g fill="none" stroke="#000" stroke-width=".125"><path d="M9.72 5.42c.036-.044.055-.238.036-.358M9.464 5.355c.052-.037.155-.168.176-.286M9.292 5.218c.067-.027.232-.225.272-.356M9.138 4.994c.078-.013.318-.157.422-.316" stroke-width=".01478375"/></g><path d="M8.376-1.63c-.014.85.34 1.282.83 1.563-.18-.11-.102-.483-.348-.604.058-.005.15.078.295.045-.07-.158-.187-.4-.457-.433.07-.008.225.017.324-.02-.14-.217-.515-.113-.644-.553zM8.288-2.442c-.03-.01-.056-.04-.08-.08-.132.03-.182-.054-.193-.11.01.095-.074.092-.113.095.234.193.268.418.216.548-.066.167-.3.16-.432.05-.017.354.44.47.607.026 0 .075.095.066.12.166.12-.19.03-.466-.125-.694z" fill="#f7e017" stroke="#000" stroke-width=".01478375"/><g><path d="M7.557-4.13c-.208-.192-.304-.512-.296-.695.01-.183.085-.382.35-.3-.082 0-.024.167-.11.184.07.024.165-.034.177-.072.017.058.125.042.133.108.042-.033-.004-.195-.066-.228.046-.025.07-.154.05-.217-.042.01-.104.068-.117.15.02-.065-.004-.232-.12-.257-.034.046-.042.158.004.22-.107-.024-.265.046-.303.138.01-.11.024-.266.092-.365.022-.033-.034-.09-.078-.012-.08-.158-.297-.242-.393-.163-.097.08-.225-.037-.304.088-.08.124-.347.138-.333.27.008.08-.01.2-.05.245-.096.108.046.187.07.283-.016-.316.487-.93.99-.69-.046.08-.086.237-.1.428-.02.283.02.682.296.915l.107-.03z" fill="#337321" stroke="#000" stroke-width=".01478375"/><path d="M7.706-5.12c-.002-.075.127-.172.302-.17.21.002.372.193.54.174.17-.018.086.075.05.1-.035.025-.056.062-.043.108.012.046-.01.076-.077.033-.15-.093-.3.038-.497-.035-.17-.063-.27-.098-.274-.21z" fill="#cf142b" stroke="#000" stroke-width=".01478375"/><path d="M6.85-3.157c-.083-.262-.4-.55-.553-.616l-.008-.14c.082-.034.28-.192.373-.28.623.3 1.472-.124 1.863-.565l.15.09-.076.1-.08-.04c-.094.116-.45.452-.56.523.146.036.345.062.4.06.35-.25.623-.475.756-.492l.112.15-.1.07-.08-.045c-.373.307-.797.98-.963 1.43-.233-.05-1.065-.017-1.235-.245z" fill="#96877d" stroke="#000" stroke-width=".01478375"/><path d="M7.96-4.085c-.053-.014-.1-.03-.13-.045-.065.062-.232.116-.444.124" fill="none" stroke="#000" stroke-width=".01478375"/><path d="M6.883-3.25c-.056-.31.033-.652.19-.756.347.23.937.23 1.286-.02" fill="none" stroke="#000" stroke-width=".01478375"/><path d="M6.883-3.41c.266-.01.844.036.986.057.14.02.377.08.344.15M7.006-3.455l.077-.077-.077-.076-.076.076.076.077z" fill="none" stroke="#000" stroke-width=".01478375"/><path d="M7.187-5.003c-.096-.134-.36-.176-.416.004-.024.08-.06.163-.124.2-.062.038-.048.15-.02.2.066.12.008.237.137.316 0-.096.14-.196.262-.22.12-.025.303-.134.328-.254.025-.12.067-.22-.166-.245z" fill="#337321" stroke="#000" stroke-width=".01478375"/><path d="M6.588-3.806h.033l.002.227c.007.004.014.007.02.012l.196-.113.016.028-.197.114c.002.007.003.015 0 .022l.197.113-.016.03-.198-.114c-.005.005-.012.01-.02.012v.226H6.59v-.226c-.007-.003-.015-.006-.02-.01l-.196.112-.017-.03.197-.113c-.002-.007-.003-.015 0-.022l-.197-.112.017-.03.197.114c.004-.005.01-.01.018-.012v-.226z" fill="#96877d" stroke="#000" stroke-width=".01478375"/><path d="M6.884-3.25c-.07.072-.17.117-.28.117-.217 0-.393-.177-.393-.394 0-.218.177-.394.395-.394.127 0 .24.06.313.154-.02.05-.044.16-.046.21-.013-.135-.128-.24-.267-.24-.15 0-.27.12-.27.27 0 .147.12.268.27.268.124 0 .232-.087.263-.202 0 .05 0 .17.016.21z" fill="#96877d" stroke="#000" stroke-width=".01478375"/><path d="M6.438-2.875c-.025-.03-.07-.108-.066-.166.037-.005.108.02.14.053-.003-.04-.02-.133-.01-.175.044.017.14.07.173.134-.008-.042-.025-.15-.008-.217.05.03.133.108.15.162.004-.083.033-.22.058-.253.037.037.095.07.133.12.008-.066.04-.145.09-.166.04.042.097.137.11.245.037-.012.087-.074.108-.108.02.034.04.092.03.162.044-.04.098-.1.11-.15.034.026.097.088.113.155-.01-.054-.005-.15-.022-.204.063.033.113.09.125.154.017-.058.054-.162.087-.187.034.066.067.145.063.212.02-.042.054-.117.087-.133.03.045.025.145.017.2.03-.042.083-.092.116-.11.004.026.01.076 0 .113.038-.02.1-.133.12-.19.06.028.117.128.12.178.043-.017.126-.092.15-.133 0 .03.014.108-.003.17.025-.025.05-.075.062-.095.017.04.004.14-.012.195.037-.033.09-.054.125-.054.004.07-.046.195-.092.287-.4-.112-1.235-.154-2.075-.2z" fill="#337321" stroke="#000" stroke-width=".01478375"/><path d="M7.83-5.077c-.002-.03.067-.1.19-.1.146 0 .282.11.4.1.118-.006.06.032.035.042-.025.01-.04.026-.03.044.008.018-.007.03-.055.013-.105-.038-.21.015-.348-.014-.12-.027-.19-.04-.192-.087z" fill="#f7e017"/></g><g stroke="#000" stroke-width=".125"><g fill="#f7e017"><path d="M6.567-2.625c-.125.15-.25.125-.274.03-.025-.097.066-.142.033-.226-.033-.084.054-.12.096-.084.04.038.174-.083.233.042.058.125.103.212.07.262-.033.05-.133.025-.158-.025zM7.103-2.85c-.023-.054.107-.16.173-.085.067.075.17-.08.23.037.057.12.076.18.105.248.03.066-.157.102-.215.044.008.04-.162.07-.208-.042-.025-.06-.052-.13-.084-.202zM7.968-2.78c-.03-.06.12-.142.2-.036.02-.044.17-.052.18.074.01.127.015.202.02.252.004.05-.092.096-.16-.03-.123.024-.18-.045-.194-.118-.014-.072-.03-.108-.046-.143z" stroke-width=".01478375"/></g><g fill="#337321"><path d="M6.648-2.864c-.018-.042.106-.125.192-.063.085.063.203-.053.253.06.102.225.108.242.077.286-.03.042-.164.026-.197-.035-.007.042-.12.035-.18.002-.07-.037-.118-.176-.145-.25zM7.523-2.854c-.03-.064.167-.12.252-.008.044-.04.14-.042.193.08.054.124.063.192.023.223-.027.023-.128.04-.16-.015-.047.03-.188.004-.22-.075-.03-.08-.057-.148-.087-.204zM8.35-2.73c-.003-.06.103-.086.142 0 .04.084.166.007.177.15 0 .026-.016.13-.055.18-.04.05-.233 0-.245-.107-.013-.106-.017-.166-.02-.224z" stroke-width=".01478375"/></g><g fill="none"><path d="M6.567-2.625c-.046-.063-.108-.162-.187-.054M6.973-2.615c-.027-.035-.063-.093-.075-.14M7.395-2.606c-.03-.02-.073-.063-.096-.106M7.357-2.825c.073.01.123.077.146.108.023.032.07.088.108.094M7.83-2.575c-.026-.04-.05-.075-.057-.104M7.775-2.862c.025.035.044.064.058.098M8.207-2.52c-.033-.064-.085-.124-.128-.145M8.19-2.75c.005.123.17.13.175.218M8.492-2.73c.017.03.023.06.025.113" stroke-width=".01478375"/></g></g></svg>