<svg width="750" xmlns="http://www.w3.org/2000/svg" version="1" height="500"><path fill="#006c35" d="M0 0h750v500H0z"/><path fill-rule="evenodd" d="M323.28 118.09c-.388-.01-.968.205-1.78.688-1.83 1.225-5.453 5-5.564 9.343-.11 2.452-.573 2.442 1.03 4 1.16 1.672 2.318 1.508 4.658.283 1.343-.99 1.797-1.622 2.25-3.282.557-2.783-2.93 1.32-3.375-1.78-.78-2.876 1.445-4.06 3.56-6.844.05-1.31.073-2.38-.78-2.406zm34.062.188c-.653.087-1.453.925-2.563 2.937-.796 2.108-4.226 5.297-1.75 11.875 2.024 4.17 2.856 10.95 1.937 18.5-1.403 2.146-1.723 2.885-3.563 5.03-2.584 2.78-5.383 2.07-7.53 1.032-2.008-1.352-3.585-2.046-4.5-6.343.165-6.85.564-18.06-.688-20.44-1.846-3.683-4.888-2.362-6.188-1.25-6.247 5.713-9.333 15.358-11.22 23.032-1.73 5.593-3.578 3.975-4.874 1.718-3.156-2.957-3.377-26.083-7.187-22.28-6.102 17.44 3.502 36.544 10.156 34.687 4.8 1.988 7.847-7.15 9.812-17.156 1.345-2.807 2.372-3.13 3.063-1.686-.178 13.306.954 16.274 4.375 20.312 7.63 5.887 13.943.746 14.438.25l5.938-5.938c1.323-1.39 3.07-1.475 4.938-.25 1.815 1.65 1.582 4.493 5.47 6.47 3.27 1.308 10.254.317 11.874-2.5 2.18-3.737 2.708-5.02 3.718-6.438 1.557-2.072 4.22-1.154 4.22-.5-.25 1.155-1.813 2.294-.75 4.375 1.85 1.388 2.28.496 3.374.187 3.872-1.85 6.78-10.25 6.78-10.25.173-3.132-1.61-2.895-2.75-2.25-1.484.908-1.575 1.217-3.06 2.125-1.894.28-5.56 1.53-7.376-1.28-1.854-3.38-1.864-8.092-3.28-11.5 0-.25-2.478-5.36-.19-5.688 1.156.213 3.64.855 4.032-1.22 1.212-2.023-2.614-7.762-5.218-10.656-2.26-2.482-5.383-2.784-8.407-.25-2.117 1.948-1.803 4.124-2.218 6.187-.54 2.37-.437 5.306 1.968 8.44 2.114 4.167 5.954 9.514 4.688 17.06 0 0-2.23 3.592-6.155 3.126-1.636-.357-4.302-1.065-5.72-11.53-1.072-7.924.27-19.023-3.093-24.22-.76-1.96-1.41-3.866-2.5-3.72zm-10.78.84c-1.017.088-2.144 1.273-3.063 3.562-.79 1.74-1.75 10.844-1.594 10.844-.63 2.71 2.83 3.857 4.406.375 2.362-6.385 2.373-9.105 2.53-11.813-.367-2.063-1.263-3.058-2.28-2.97zm39.812.718c-1.045.095-1.877.707-2.188 2.25-.416 3.63-.203 5.603.407 8.625.467 2.016 3.4 5.39 4.844 7.345 6.896 9.27 13.53 18.583 19.938 28.22 1.007 7.154 1.745 14.153 2.218 21.124 1.04 15.283 1.354 34.31.407 50.405 2.863.113 7.45-4.624 9.062-11.562 1.047-9.598-.373-29.18-.47-34.844-.066-2.352-.21-5.158-.374-8.095 7.453 12.18 14.683 25.082 21.78 39.25 2.59-1.23 2.015-15.798.5-17.844-5.68-12.226-13.528-24.295-16.03-28.937-.903-1.676-3.98-6.354-7.625-11.75-.67-7.698-1.4-14.22-1.875-16.188-1.172-8.138 3.345.918 2.72-3.812-1.466-8.127-5.952-13.65-11.25-21.094-1.71-2.422-1.676-2.916-4.313.593-1.577 3.576-1.556 6.552-1.094 9.343-.693-1.008-1.55-2.204-2.78-3.687-4.576-3.927-4.86-4.142-8.657-7.345-1.197-.85-3.477-2.158-5.218-2zm118 1.22c-.51-.08-1.063.17-1.688 1.093-1.193 1.045-2.476 2.94-2.437 5.374.29 4.29 1.053 8.68 1.343 12.97.102.573.21 1.144.312 1.718-.46-.588-.863-1.047-1.093-1.282-8.36-8.782 3.84-1.435-1.594-8.218-4.596-5.047-5.94-6.653-9.875-9.688-1.973-1.275-3.165-3.71-3.813.438-.258 3.644-.526 7.865-.28 10.938-.015 1.707 1.753 4.92 3.28 6.812 5.577 6.852 11.273 14.142 17 21.75 1.205 15.516 1.527 29.74 2.75 45.28-.173 6.648-2.218 15.477-4.156 16.313 0 0-2.96 1.7-4.938-.187-1.438-.578-7.187-9.594-7.187-9.594-2.944-2.698-4.907-1.927-7 0-5.777 5.577-8.39 16.023-12.313 23.22-1.012 1.604-3.862 2.97-7.03-.126-8.05-10.996-3.343-26.648-4.345-22.625-7.17 8.078-3.994 21.465-2.375 24.344 2.364 4.728 4.276 7.755 8.875 10.094 4.19 3.084 7.45 1.16 9.25-1 4.215-4.368 4.27-15.54 6.25-17.75 1.388-4.06 4.866-3.36 6.562-1.562 1.644 2.364 3.585 3.902 6 5.188 3.932 3.468 8.625 4.098 13.25.937 3.16-1.773 5.212-4.077 7.063-8.625 1.986-5.31 1.004-33.142.562-48.625 2.97 4.183 5.9 8.457 8.812 12.78C526.84 204.616 527.42 218 527 230.837c-.302 2.552 8.906-7.62 8.843-12.438-.04-4.215.008-8.036 0-11.594 4.466 7.13 8.79 14.38 12.875 21.72 2.532-1.342 1.664-15.68.063-17.657-4.277-7.178-9.756-14.936-14-20.938-.838-7.576-1.98-16.513-2.5-19.25-.81-4.27-1.62-10.684-2.843-15.75-.336-1.98-1.35-8.3-1.03-8.907.498-1.414 2.383.045 3.31-1.594 1.39-1.516-4.817-17.6-7.968-22.19-1.133-2.056-3.182-1.344-5.72 2-2.352 2.203-1.49 7.225-.593 12 2.333 12.175 4.415 24.573 6.062 36.94-3.05-4.535-6.773-10.022-10.44-15.313-.097-.51-.467-2.38-.467-2.406 0-.218-.505-9.958-.938-12.28-.075-.942-.3-1.214.688-1.094 1.047.88 1.19.93 1.843 1.22 1.058.193 1.982-1.595 1.344-3.25-3.27-6.033-6.542-12.093-9.812-18.126-.394-.387-.835-.796-1.344-.875zm-304.53.312c-1.812-.052-3.812 1.07-3.03 3.25-.456 1.187 3.546 5.2 4.25 7.406.63 1.57-.626 6.627.686 7.094 1.207.523 2.868-3.5 3.5-7.22.35-2.036.085-9.007-4.656-10.437-.243-.054-.49-.086-.75-.093zm346.91.04c-.413.04-.916.708-1.687 2.343-1.855 3.04-2.493 8.48-1.75 13.282 4.465 30.203 7.783 59.45 8.468 86.22-.384 2.54-.496 3.892-1.687 7.093-2.636 3.38-5.543 7.614-8.28 9.656-2.74 2.042-8.565 3.988-10.47 5.5-6.044 3.495-6.074 7.512-1.188 7.658 8.42-.978 18.386-1.67 25.25-12.03 1.837-2.905 4-10.777 4.094-15.595.642-28.247-.362-55.866-4.594-76.28-.27-1.99-1.15-6.56-.812-7.158.545-1.398 3.3.14 4.28-1.468 1.44-1.47-7.125-12.436-10.124-17.125-.6-1.178-.97-2.147-1.5-2.094zm-88.312.468c-.348.06-.86.59-1.812 1.844-2.353 7.692-3.18 13.973-2.282 18.75 6.043 31.534 12.234 60.263 11.25 90.28 2.866.02 6.18-6.554 7.594-13.06.775-8.965-.517-14.42-.75-19.69-.232-5.267-5.964-48.013-7.125-52-1.4-7.536 5.574-.99 4.813-5.374-2.41-5.526-8.43-13.574-10.312-18.375-.708-1.285-.796-2.474-1.375-2.374zm-215.03.594c-.743.13-1.46.74-1.72 1.75-.162.66.287 1.76-.31 2.094-.345.347-1.65.114-1.595-1.72 0-.583-.43-1.192-.688-1.56-.26-.172-.436-.22-.907-.22-.573.023-.56.174-.875.656-.14.49-.32.97-.32 1.53-.07.652-.333.873-.812.97-.537 0-.41.057-.844-.22-.258-.282-.563-.393-.563-.875 0-.5-.132-1.295-.282-1.625-.228-.3-.588-.457-1-.562-2.247.008-2.41 2.59-2.28 3.562-.17.183-.253 4.76 2.81 6.03 4.115 1.963 11.828 1.133 11.5-5.5 0-.585-.128-2.555-.186-3.093-.42-.977-1.195-1.347-1.938-1.218zm55.188.063c-1.422.072-2.677.48-3.75 1.03-2.726 2.61-3.366 6.796-1.22 9.407 2.09.987 4.175 3.09 2.782 4.25-5.908 6.31-21.287 16.857-22.062 18.78-.006.017-.027.05-.03.063-.003.014 0 .05 0 .063 0 .006-.002.026 0 .03.004.017.02.05.03.064.004.004.027.027.032.03.005.004.025-.002.03 0 .007.004.025.03.032.032.007.002.023-.002.03 0 .003.002.03.03.032.03.782.525 10.404.513 11.47.032.007-.004.024-.027.03-.03.004-.003.03 0 .032 0 .002-.003-.002-.03 0-.032 3.307-1.22 19-19.156 19-19.156-.814-.696-1.563-1.21-2.375-1.906-.87-.754-.783-1.495 0-2.25 3.886-2.262 2.655-7.238.625-9.5-1.683-.755-3.266-1.01-4.688-.938zm144.25.062c-.413.04-.916.677-1.687 2.313-1.855 3.037-3.115 8.328-2.97 13.28 4.018 27.815 5.25 52.155 7.876 79.97.212 2.69-.182 6.598-1.97 8.156-6.614 6.906-16.15 15.424-26.53 19.344-1.118 1.254 2.776 6.6 7.81 6.594 8.423-.978 15.824-5.705 22.69-18.156 1.835-2.904 5.06-9.12 5.156-13.938.642-28.247-1.424-50.21-5.657-70.625-.272-1.99-.087-4.34.25-4.938.545-.65 2.394.015 3.374-1.594 1.44-1.468-3.844-13.654-6.843-18.343-.6-1.177-.968-2.115-1.5-2.062zm-223.47.85c-1.162.136-2.256 1.082-2.78 2.344-.196 4.46-.222 8.92.28 13.03 2.03 7.21 2.672 13.553 3.656 20.938.273 9.89-5.71 4.278-5.437-.625 1.38-6.37 1.008-16.396-.22-18.938-.974-2.54-2.1-3.168-4.47-2.75-1.88-.115-6.735 5.176-8.093 13.938 0 0-1.13 4.496-1.625 8.5-.664 4.524-3.66 7.73-5.75-.625-1.805-6.072-2.914-21.032-5.937-17.53-.866 11.68-1.894 32.234 8.03 34.343 12.006 1.155 5.375-20.293 9.72-24.187.82-1.924 2.344-1.96 2.47.47v18.218c-.11 5.923 3.786 7.683 6.81 8.907 3.15-.243 5.236-.157 6.47 2.906.492 10.502 1.008 21.03 1.5 31.53 0 0 7.277 2.092 7.625-17.718.35-11.632-2.316-21.393-.75-23.656.055-2.224 2.906-2.334 4.875-1.25 3.138 2.212 4.53 4.936 9.406 3.843 7.422-2.044 11.89-5.646 12-11.344-.432-5.416-1.06-10.836-3.405-16.25.328-.986-1.42-3.548-1.094-4.532 1.335 2.088 3.352 1.915 3.814 0-1.263-4.162-3.23-8.15-6.406-9.875-2.626-2.314-6.468-1.824-7.875 3-.653 5.558 2.014 12.147 6.062 17.53.86 2.104 2.062 5.603 1.53 8.75-2.153 1.23-4.288.718-6.093-1.187 0 0-5.906-4.42-5.906-5.406 1.568-10.035.338-11.184-.53-13.97-.608-3.843-2.43-5.06-3.907-7.687-1.48-1.566-3.483-1.566-4.44 0-2.61 4.526-1.385 14.242.5 18.594 1.364 4.003 3.454 6.5 2.47 6.5-.81 2.262-2.5 1.736-3.72-.875-1.738-5.395-2.093-13.437-2.093-17.062-.522-4.494-1.104-14.095-4.062-16.53-.79-1.076-1.72-1.45-2.625-1.344zm42.156.063c-.596.075-1.254.414-2.03.593-2.553.814-4.943 3.02-4.19 7.314 3.018 18.332 4.985 32.323 8 50.656.465 2.147-1.335 4.977-3.655 4.687-3.944-2.67-4.923-8.074-11.655-7.843-4.873.058-10.43 5.36-11.125 10.47-.812 4.058-1.102 8.46 0 12 3.425 4.117 7.528 3.678 11.125 2.75 2.958-1.22 5.392-4.134 6.438-3.44.003.004.028-.003.03 0 .004.005-.002.028 0 .032.646 1.128-.06 10.663-13.937 18.03-8.528 3.83-15.316 4.745-18.97-2.218-2.262-4.35.165-20.924-5.405-17.094-16.474 42.467 38.6 48.395 44.75 1.75.4-1.315 1.613-2.636 2.47-2.312.375.16.72.67.843 1.625-1.277 42.235-42.606 45.13-49.625 31.844-1.74-3.13-2.263-10.102-2.437-14.28-.318-2.528-.952-3.985-1.687-4.563-1.674-1.258-3.925 2.023-4.406 7.72-.697 4.582-.5 5.84-.5 10.25 2.204 33.358 55.388 19.025 64.03-8.532 4.28-14.246-.086-24.993 1.345-26.312.012-.01.05-.022.062-.03.014-.01.048-.025.063-.032.015-.005.046-.026.062-.03.048-.014.13-.03.187-.032 5.28 5.687 12.688.723 14.312-1.25.695-.987 2.437-1.62 3.655-.344 4.118 2.96 11.337 1.565 12.844-3.656.87-5.105 1.606-10.36 1.78-15.812-2.683.833-4.847 1.457-5.72 2.375-.206.228-.36.48-.405.75-.233 1.51-.455 3.024-.687 4.532-.025.125-.065.24-.125.344-.115.185-.304.356-.5.47-.95.517-2.603.22-2.688-1.157-1.276-5.803-6.527-6.558-9.72 2.436-2.146 1.74-6.06 2.08-6.467-.53.522-6.035-1.91-6.844-6.782-4-1.566-11.952-3.12-23.362-4.687-35.313 2.03-.06 3.892 1.414 5.75-.906-2.01-6.25-6.262-18.963-8.657-20.156-.02-.008-.044-.023-.063-.03-.11-.13-.237-.25-.344-.344-.044-.038-.112-.094-.156-.125-.044-.03-.112-.068-.156-.093-.096-.053-.217-.096-.313-.125-.217-.062-.43-.09-.655-.062zm164.34.093c-2.108-.06-4.44 1.267-3.53 3.907-.53 1.44 4.527 6.326 5.343 9 1.466 4.11-1.122 8.028.405 8.594 1.405.635 3.36-4.24 4.094-8.75.846-3.643-1.754-11.113-5.44-12.655-.28-.066-.573-.085-.874-.093zm-128.03 4.5c.96-.097 2.12.785 2.688 2.032.605 1.33.3 2.602-.688 2.844-.99.243-2.27-.638-2.875-1.97-.605-1.33-.3-2.63.69-2.874.06-.015.122-.024.186-.03zm237.5 6.157c-1.92-.067-4.016 1.392-3.187 4.25-.483 1.56 4.1 6.856 4.842 9.75.67 2.06-1.017 8.7.375 9.313 1.28.686 3.082-4.587 3.75-9.47.37-2.67-1.61-12.048-4.968-13.718-.26-.072-.54-.115-.814-.125zm-131.31 3.25c.176.784.35 1.573.47 2.375.393 1.732.732 3.452 1.093 5.157-1.518-2.09-2.774-3.778-3.314-4.376-3.432-4.08.077-2.68 1.75-3.157zm30.25 14.875c-.743.13-1.46.772-1.72 1.782-.162.66.32 1.73-.28 2.062-.344.347-1.68.145-1.625-1.687 0-.585-.428-1.225-.687-1.595-.26-.17-.435-.22-.906-.22-.573.024-.56.176-.875.657-.133.49-.312.975-.312 1.532-.072.652-.302.873-.782.968-.536 0-.44.06-.875-.218-.258-.283-.562-.394-.562-.875 0-.5-.13-1.297-.28-1.626-.228-.3-.588-.426-1-.532-2.247.008-2.38 2.56-2.25 3.532-.17.183-.283 4.79 2.78 6.062 4.114 1.96 11.86 1.1 11.532-5.53 0-.588-.16-2.558-.22-3.095-.42-.977-1.194-1.346-1.936-1.218zm-138.12 1.375c-.507-.05-1.172.135-1.937.594-3.64 1.97-5.048 7.805-2.783 11.22 2.116 3.008 5.46 1.906 5.907 1.906 3.564.446 5.687-6.687 5.687-6.687s.108-2.007-4.124 1.78c-1.78.334-2.023-.31-2.47-1.312-.37-1.856-.29-3.737.564-5.594.394-1.113.002-1.82-.844-1.906zm195.25.907c-2.02-.098-4.17 1.21-4.72 3.97.01 1.626.736 2.52.595 4-.21.843-1.08 1.4-3.155.405.324-.3-1.344-2.657-1.344-2.657-1.618-.986-3.78.053-5.187.968-.774 1.408-1.346 3.82-.468 6.282 2.323 4.293 10.293 11.618 14.094 11.688.07-3.87.445-9.017.655-12.22.09-1.207.373-2.54 1.53-2.842 1.158-.303 3.166 1.164 3.19-.094-.212-2.462-.704-6.096-2.095-7.813-.713-1.054-1.882-1.627-3.094-1.686zm-161.62 13.47c-.054.018-.107.064-.156.092-.024.015-.07.045-.094.063-.402.3-.877.998-1.937 1.75-1.79 2.034-2.11 3.45-2 7.53.1.432 3.395 9.592 6.186 16.03 1.882 6.694 3.623 14.357 2.344 21.595-4.406 9.57-13.263 18.15-21.812 22.812-4.356 1.395-8.118.92-9.125-.03-.008-.01-.024-.025-.03-.032-2.503-1.682-2.56-4.676-2.408-5.188v-.03l.032-.032c7.213-5.025 15.454-9.092 21.906-22.656 1.905-5.185 2.486-8.298.593-16.313-.738-2.987-1.65-5.445-3.687-7.563.004-.006.025-.025.03-.03 1.228-.588 4.414 1.76 4.906.28-.754-3.827-3.346-8.965-6.28-11.594-2.57-2.334-5.367-2.604-7.72-.468-2.65 1.474-3.213 6.77-1.937 11.406 1.416 3.49 5.242 4.1 7.968 11.125v.03c.056.44.935 5.243-.438 7.188-1.114 3.475-15.424 14.76-16.438 15.44-.01.01-.083.05-.094.062l-.03.03-.032.032-.03.03c-.004 0-.03.002-.032 0h-.032c-.006-.004-.025-.024-.03-.03v-.03l-.032-.064c-.043-.28.033-1 0-2.156-.094-2.114.78-6.898.72-7.72v-.03l-.032-.03v-.032h-.032c-4.73 3.054-6.292 12.416-7.156 15.188-11.975 8.274-25.574 14.43-33.406 22.812-4.08 6.37 28.104-7.315 31.844-8.97.032.025.064.064.094.095.71.782.77 3.51 2.906 5.97 3.345 4.53 10.456 7.32 17.375 5.592 11.603-4.195 18.288-12.103 25.094-20.876.973-1.415 2.497-2.53 3.906-1.437 4.677 10.47 18.16 17.92 35.594 18.688 4.034-4.906 2.105-7.318.47-8.344-.505-.334-8.67-3.517-9.94-6.686-.797-2.95 1.144-5.565 5.033-7.532 11.193-1.353 22.196-2.857 32.844-6.28.108-3.578 2.215-8.928 3.625-11.25.978-1.613 1.607-1.772 1.842-2 .008-.01.025-.024.032-.032l.03-.03.032-.032v-.063c.006-.07 0-.193-.03-.312l-1.814-1.063-35.72-.156c-.44-.17-.768-.34-.967-.5-.016-.013-.05-.05-.063-.063l-.03-.03-.032-.03c-.005-.012-.027-.053-.03-.064l-.033-.03v-.032l-.03-.03v-.032-.032-.03-.032-.03-.032-.032-.03c.005-.007.025-.026.03-.032.008-.016.02-.046.032-.062.173-.235.596-.457 1.124-.657 8.53-1.162 23.682-3.646 24.688-18.22-.158-7.59-3.25-12.56-12.562-13.937-6.844.53-11.725 7.15-10.938 14.438-.328 1.963.664 5.814-1.344 6.25-13.128 1.2-27.457 9.425-27.938 15.312h-.03c-.006.006-.027.026-.033.03l-.062.033h-.063l-.093.03h-.189c-.033-.007-.094-.024-.124-.03-.854-.238-1.954-1.648-1.78-3.626-.5-10.177-3.813-21.693-9-30.562-1.852-1.85-2.66-2.6-3.188-2.688-.018-.002-.046 0-.063 0h-.186zm34.188 5.374c-.743.128-1.46.74-1.72 1.75-.162.66.32 1.76-.28 2.093-.344.348-1.68.146-1.625-1.686 0-.584-.43-1.224-.69-1.594-.26-.17-.403-.22-.874-.22-.573.025-.59.176-.906.658-.133.49-.312.975-.312 1.53-.072.653-.302.874-.782.97-.536 0-.41.058-.843-.22-.258-.28-.594-.392-.594-.874 0-.5-.1-1.295-.25-1.625-.23-.3-.62-.427-1.032-.532-2.247.008-2.38 2.558-2.25 3.53-.17.184-.283 4.79 2.78 6.063 4.114 1.963 13.917.808 11.532-5.53 0-.586-.16-2.556-.22-3.094-.42-.977-1.194-1.347-1.936-1.218zm137.97 5.656c-.103-.02-.222-.01-.344.03 0 0-19.06 13.56-19.53 14.032-1.89 1.68-.945 7.59 0 6.906 1.365.525 20.553-12.478 20.187-14 .837.05 1.24-6.69-.312-6.968zm-119.96 2.01c.778-.083 1.798.18 2.78.75 1.424.823 2.3 2.066 2.19 2.97-.005.023.004.068 0 .092-.007.024-.057.07-.064.094l-.03.094-.032.062-.03.063c-.048.075-.125.155-.19.218-.683.638-2.26.547-3.75-.313-1.41-.815-2.28-2.068-2.186-2.97.003-.023.026-.068.03-.092.024-.112.07-.214.126-.313.02-.035.038-.093.062-.125l.032-.03c.042-.05.105-.116.156-.157.226-.18.548-.306.906-.344zm-166.91 3.437c-9.876.182-24.338 12.946-24.72 20.032 10.422-5.004 20.658-9.82 31.25-15-1.708-2.552-.103-4.85-6.53-5.03zm32 4.44c.968.01 1.99.488 2.53 1.843.49 1.242.024 2.542-.56 3.187-.004.005.002.026 0 .03-.01.016-.023.05-.032.064-.415.534-1.87.312-2.907.312-1.254-.055-1.872-.26-2.625-1.28-.36-1.135.736-2.25 1.22-3.095.004-.007.025-.022.03-.03.053-.08.138-.173.22-.25.374-.343 1.023-.664 1.718-.75.135-.016.268-.033.406-.03zm251.16 3.93c-1.756.215-3.425 1.876-2.656 4.53-.482 1.56 2.382 7.012 3.125 9.906.668 2.06-.86 7.888.53 8.5 1.282.687 4.65-3.46 4.532-8.656.37-2.672-.953-12.517-4.312-14.188-.387-.108-.814-.144-1.22-.094zm-213.31 9.624c-1.552.108-2.937.938-2.312 3.125-.094 1.585 4.385 3.515 4.656 7.186.64 1.514-.958 6.362.375 6.813 1.223.503 2.92-3.352 3.562-6.94.355-1.963-1.536-8.834-4.75-10.06-.493-.107-1.014-.162-1.53-.126zm63.844 8.72c.118-.01.222 0 .344 0h.062c3.98 1.08 9.846 1.192 14.938 1.717 4.148.265 6.197 3.512 2.313 4.876-3.832 1.313-7.514 2.338-7.53 7.875.502 2.745.396 4.184-.033 4.845-.033.05-.087.116-.125.157l-.03.03-.032.032-.03.03-.032.032-.063.032c-.056.034-.127.07-.187.093-.054.02-.13.023-.188.032-.91.134-2.234-.735-3.22-1.25-2.36-1.696-8.992-5.805-9.936-14.625-.136-1.99 1.354-3.706 3.75-3.875zm-155.94 6.78c-.25.008-.746.75-1.406 1.594-5.875 9.36-6.398 23.33-3.156 27.5 1.722 1.97 4.562 2.835 6.656 2.218 3.69-1.6 5.313-9.077 4.437-11.812-1.232-1.928-2.208-2.233-3.438-.593-2.598 5.274-3.68 1.667-3.906-1.28-.4-5.59.143-10.736.75-14.812.323-2.09.31-2.82.062-2.813zm200.16 12.29c-.437-.024-.903.045-1.375.28-.093 0-4.206 2.783-5.53 4.72-.81.615-.718 1.15-.47 2.22.63 1.447 1.74.993 3 .31 1.672-.227 2.48.868 2.344 2.876-.772 2.504.344 3.437.344 3.594 0 .157 1.61 1.54 3.5.438 3.99-1.523 6.476-3.005 12.063-4.22 1.466-.028 1.38-3.953-.938-4.093-3.026.15-5.818.306-8.844 2.686-1.86.43-2.18-.702-2.592-1.718-.473-2.52 1.064-4.298.75-6.188.083.083-.94-.836-2.25-.906zm128.16 4.78c-.742.024-1.524.127-2.656.22-1.225.26-1.652.796-1.875 2.28.088 2.253 1.465 2.14 2.875 3.032.816 1.04 1.347 1.98-.063 3.688-1.337 1.224-2.29 1.9-3.626 3.125-.63 1.075-1.024 2.73.907 3.25 3.565 1 11.813-4.358 11.813-4.47 1.336-1.002.893-2.906.78-2.906-.778-.89-2.537-.356-3.718-.5-.562 0-2.41-.274-1.53-1.906.732-1.016 1.002-1.624 1.5-2.875.555-1.225.066-2.05-1.94-2.72-1.02-.185-1.725-.24-2.467-.218zm-53.54 108.4c-.008.005-.023.027-.03.032-5.93 1.52-5.745 7.675-1.94 10.375-62.593 0-158.65-1.06-179.25-1.06-11.524 0-47.986-1.376-48.687-1.376 7.82 11.437 19.148 13.766 33.97 14 27.802 0 156.62-.344 193.28-.344-2.606 4.628.237 12.074 2.28 13.438.045.028.115.072.158.094.076.038.177.075.25.093.024.006.07-.003.093 0 2.43.573 3.497-1.184 4.314-2.468 3.937.347 26.097.667 28.125-.032.006-.003.023-.028.03-.03 1.372 2.018 2.733 3.926 5.344 3.593 4.57-.98 8.167-1.477 8.28-10.75 0 0-.466-15.802-10.843-14.812-2.454.37-9.343 1.063-9.343 1.063-7.97-.95-13.82-1.047-22.78-1.376.827-1.05 2.287-5.304.5-6.844-.467-.388-1.162-.604-2.126-.53-.006 0-.023-.002-.03 0-.013-.002-.05 0-.062 0-.007-.003-.025-.03-.032-.033-.025-.01-.07-.016-.093-.03-.05-.034-.112-.104-.157-.157-.01-.014-.05-.048-.062-.063-.453-.66-.7-2.277-1-2.687l-.03-.03-.032-.033c-.01-.007-.052-.027-.063-.03h-.032c-.004 0-.028-.002-.03 0zm4.25 22.595c.01-.006.02.004.03 0 9.133.445 17.713.085 26.845.53 1.448 1.23.724 4.05-.22 4.563-.04.02-.112.05-.155.062-.034.008-.09 0-.125 0-.034 0-.09.008-.125 0-2.97-.074-4.687-.144-7.656-.218-.005-.148-.02-.307-.063-.438-.704-2.087-5.8-1.947-7-.313-.017.023-.048.07-.063.093-.02.033-.046.092-.063.125-.02.043-.048.113-.062.157-.02.06-.023.153-.03.218-.01.075-.04.17-.032.25-4.01.482-7.617-.133-11.625-.28-1.177-1.465-1.04-4.114.343-4.75z" fill="#fff"/></svg>