<svg xmlns="http://www.w3.org/2000/svg" xmlns:xlink="http://www.w3.org/1999/xlink" width="4320" height="2880"><path fill="#ed2939" d="M0 0h4320v1440H0z"/><path fill="#fff" d="M0 1440h4320v1440H0zM1481.678 720a541.5 541.5 0 1 1-1083 0 541.5 541.5 0 1 1 1083 0z"/><path fill="#ed2939" d="M1651.835 720a511.735 511.735 0 1 1-1023.47 0 511.735 511.735 0 1 1 1023.47 0z"/><path fill="#fff" id="a" d="M1007.195 733.064l-73.56-56.43-73.542 56.457 28.313-90.993-73.795-56.092 91.06.193 27.935-91.123 27.964 91.113 91.058-.226-73.776 56.12 28.343 90.982z"/><use xlink:href="#a" transform="translate(577.2)"/><use xlink:href="#a" transform="translate(288.9 -214.2)"/><use xlink:href="#a" transform="translate(108 342.8)"/><use xlink:href="#a" transform="translate(469.2 342.8)"/></svg>