<svg xmlns="http://www.w3.org/2000/svg" width="900" height="600" viewBox="0 0 9 6"><title>Flag of Slovakia</title><path fill="#ee1c25" d="M0 0h9v6H0z"/><path fill="#0b4ea2" d="M0 0h9v4H0z"/><path fill="#fff" d="M0 0h9v2H0z"/><path fill="#fff" d="M3.163 4.635c-.538-.26-1.308-.773-1.308-1.79s.05-1.48.05-1.48H4.42s.05.463.05 1.48-.77 1.53-1.307 1.79z"/><path fill="#ee1c25" d="M3.163 4.5c-.494-.238-1.2-.71-1.2-1.643S2.008 1.5 2.008 1.5h2.309s.045.424.045 1.357c0 .934-.706 1.405-1.2 1.643z"/><path fill="#fff" d="M3.268 2.613c.134.002.394.007.626-.07 0 0-.006.083-.006.18 0 .096.006.18.006.18-.212-.072-.475-.074-.626-.072v.517h-.21V2.83c-.15 0-.414 0-.627.072 0 0 .007-.083.007-.18 0-.096-.006-.18-.006-.18.233.078.493.073.627.07V2.29c-.122-.002-.297.004-.496.07 0 0 .008-.083.008-.18 0-.096-.007-.18-.007-.18.2.067.375.073.497.072-.007-.205-.066-.464-.066-.464s.123.01.173.01c.05 0 .172-.01.172-.01s-.06.26-.066.464c.12 0 .296-.005.494-.07 0 0-.006.082-.006.178 0 .097.006.18.006.18-.2-.066-.374-.072-.496-.07v.323z"/><path fill="#0b4ea2" d="M3.163 3.29c-.25 0-.382.346-.382.346s-.073-.164-.276-.164c-.137 0-.238.122-.302.235.25.397.648.642.96.793.313-.15.712-.396.96-.793-.063-.113-.164-.235-.3-.235-.204 0-.278.164-.278.164s-.133-.345-.382-.345z"/></svg>