<svg xmlns="http://www.w3.org/2000/svg" xmlns:xlink="http://www.w3.org/1999/xlink" width="800" height="600"><path fill="#5eb6e4" d="M0 0h800v600H0z"/><path fill="#fff" d="M0 0h800v300H0z"/><g fill="none" stroke="#000" stroke-width=".933"><g fill="#fff"><circle cx="459.439" cy="171.232" r="4.044"/><circle cx="461.689" cy="157.024" r="5.081"/><circle cx="376.388" cy="141.721" r="3.909"/><circle cx="338.47" cy="157.024" r="5.081"/><circle cx="361.666" cy="143.366" r="4.218"/><circle cx="340.72" cy="171.232" r="4.044"/><circle cx="346.87" cy="147.119" r="4.885"/><circle cx="423.77" cy="141.721" r="3.909"/><circle cx="438.492" cy="143.366" r="4.218"/><circle cx="453.288" cy="147.119" r="4.886"/></g><g stroke-width="1.09"><circle cx="459.439" cy="171.231" r="4.458"/><circle cx="461.69" cy="157.025" r="5.602"/><circle cx="376.389" cy="141.721" r="4.31"/><circle cx="338.47" cy="157.025" r="5.602"/><circle cx="361.666" cy="143.367" r="4.65"/><circle cx="340.718" cy="171.231" r="4.458"/><circle cx="346.871" cy="147.119" r="5.386"/><circle cx="423.769" cy="141.721" r="4.309"/><circle cx="438.492" cy="143.365" r="4.65"/><circle cx="453.287" cy="147.119" r="5.387"/></g><g fill="#000" stroke-linecap="round" stroke-linejoin="round"><path d="M392.488 132.016c-13.483 15.54-37.154 7.948-47.953 13.998-18.784 10.523 1.65 35.487 5.496 40.258l20.47-5.342c-7.514-6.013-22.586-16.227-18.047-24.525 4.652-8.51 29.37.124 40.18-18.04 2.274-3.82.532-7.127-.145-6.35z"/><path fill="#f1bf31" d="M392.488 132.48c-13.483 15.543-36.39 8.095-47.186 14.146-18.785 10.524 2.43 34.875 6.28 39.65l17.68-5.346c-7.518-6.013-21.8-16.536-17.26-24.835 4.65-8.508 29.822-.03 40.63-18.195 2.275-3.82.533-6.197-.144-5.42z"/><path stroke-width=".633" d="M393.71 133.678c-14.602 19.717-36.522 9.764-45.942 17.455-10.642 8.69 4.862 25.795 12.343 32.562l1.17-.43c-6.07-5.753-24.058-22.84-12.627-32.064 8.22-6.635 31.33 2.022 45.107-17.054z"/><path fill="#d99f31" d="M357.83 171.306c-.358.68-.895 1.85-1.256 3.332-6.242-7.435-10.917-15.14-5.998-21.505 4.478-5.795 15.453-3.173 26.877-7.187 5.233-1.55 10.37-4.315 14.744-9.494-.42 1.134-.856 2.506-1.338 3.88-11.597 14.764-34.754 7.69-39.168 15.76-2.604 4.764 1.095 10.26 6.138 15.214z" stroke="none"/><path d="M352.11 169.98c1.303-.376 1.968-1.098 2.693-1.942.296.358.602.713.918 1.067-.498.662-1.068 1.31-1.924 1.76-1.035.542-2.168.68-3.23.68-.355-.476-.7-.96-1.036-1.445.86.086 1.827.098 2.58-.12zm-2.812-5.771c1.136-.18 1.594-.294 2.493-.802.157.343.33.687.52 1.03-.76.44-1.38.705-2.43.92-1.055.218-2.15.154-3.12-.008-.21-.445-.402-.89-.577-1.335.95.183 2.175.34 3.116.194zm1.54-4.814c-2.074-.198-4.086-1.283-5.496-2.828.1-.413.23-.82.393-1.22.81 1.014 2.57 2.77 5.186 2.997-.054.348-.08.698-.083 1.05zm1.805-4.554c-1.482-.864-2.705-2.228-3.457-3.772.275-.196.563-.378.867-.546.55 1.167 1.583 2.742 3.39 3.644-.29.207-.557.432-.8.674zm3.983-6.15c.246 1.407.99 2.596 2.146 3.45-.383.08-.755.167-1.116.258-1.024-.95-1.692-2.177-1.93-3.58.295-.046.595-.088.9-.13zm7.098-.62c.37 1.046 1.113 1.968 2.092 2.707.11.08.165.183.182.286l-1.107.14c-.998-.85-1.744-1.892-2.102-3.065l.936-.068zm6.924-.688c.67 1.032 1.59 1.903 2.685 2.552-.427.085-.853.167-1.278.243-.98-.727-1.794-1.63-2.397-2.665.33-.04.66-.084.99-.13zm6.187-1.26c.895.867 2.03 1.51 3.242 1.92-.43.166-.864.32-1.3.466-1.116-.51-2.14-1.217-2.95-2.117.337-.085.673-.174 1.008-.268zm6.23-2.394c.83.6 1.92.996 2.897 1.238-.33.23-.666.45-1.005.664-.997-.316-2.018-.786-2.797-1.458.302-.143.604-.29.904-.444zm4.59-2.906c.66.33 1.43.565 2.183.726-.238.264-.48.518-.727.765-.79-.205-1.578-.494-2.252-.895.268-.192.534-.39.798-.596z" stroke="none"/><path fill="none" stroke-width=".604" d="M393.76 134.456c.044.954-.226 1.776-1.125 3.29-10.812 18.162-36.292 9.84-40.944 18.35-4.47 8.18 9.644 18.516 17.24 24.57-1.334.482-2.74.904-4.217 1.26l-1.327.72-1.967.62c-6.07-5.755-24.042-22.685-12.614-31.91 8.222-6.635 31.178 2.175 44.954-16.9z"/><path d="M407.522 132.016c13.485 15.54 37.156 7.948 47.952 13.998 18.785 10.523-1.648 35.487-5.493 40.258l-20.472-5.342c7.52-6.013 22.588-16.227 18.052-24.525-4.653-8.51-29.374.124-40.184-18.04-2.273-3.82-.528-7.127.146-6.35z"/><path fill="#f1bf31" d="M407.67 132.48c13.484 15.543 36.39 8.095 47.187 14.146 18.784 10.524-2.43 34.875-6.28 39.65l-17.68-5.346c7.518-6.013 21.8-16.536 17.262-24.835-4.654-8.508-29.825-.03-40.634-18.195-2.274-3.82-.532-6.197.145-5.42z"/><path stroke-width=".633" d="M438.88 183.266c6.07-5.754 24.058-22.84 12.627-32.065-8.22-6.635-31.33 2.022-45.108-17.054l.05-.468c14.6 19.717 36.522 9.763 45.942 17.455 10.626 8.675-4.95 25.737-12.46 32.528z"/><path fill="#d99f31" d="M442.33 171.306c.357.68.893 1.85 1.255 3.332 6.24-7.435 10.917-15.14 5.998-21.505-4.478-5.796-15.454-3.172-26.88-7.187-5.232-1.552-10.368-4.316-14.74-9.494.42 1.133.852 2.504 1.335 3.877 11.593 14.767 34.758 7.69 39.17 15.763 2.603 4.763-1.095 10.26-6.14 15.213z" stroke="none"/><path d="M448.048 170.6c-1.502-.373-2.248-1.03-3.233-1.925-.296.34-.6.68-.915 1.02.69.664 1.397 1.315 2.462 1.79.92.408 1.89.564 2.814.61.345-.45.683-.907 1.013-1.368-.738.045-1.51.03-2.142-.127zm2.813-6.393c-1.135-.178-1.593-.292-2.492-.8-.156.343-.33.687-.518 1.03.758.44 1.376.705 2.427.92 1.057.218 2.152.154 3.123-.008.208-.446.402-.89.576-1.336-.95.183-2.175.34-3.115.194zm-1.538-4.812c2.075-.2 4.085-1.284 5.494-2.828-.1-.413-.23-.82-.392-1.22-.81 1.015-2.57 2.768-5.185 2.996.054.35.08.7.083 1.052zm-1.804-4.554c1.48-.862 2.702-2.227 3.455-3.77-.275-.197-.564-.38-.867-.547-.55 1.167-1.583 2.74-3.388 3.643.29.208.556.433.8.675zm-3.986-6.15c-.246 1.408-.99 2.597-2.145 3.45.383.08.754.167 1.116.26 1.023-.952 1.69-2.178 1.93-3.58-.296-.047-.596-.09-.9-.13zm-7.098-.62c-.37 1.047-1.11 1.97-2.092 2.708-.11.082-.165.183-.182.286l1.108.14c1-.848 1.745-1.89 2.103-3.065l-.936-.07zm-6.923-.687c-.67 1.032-1.59 1.902-2.685 2.552.427.085.853.167 1.28.243.977-.726 1.793-1.63 2.394-2.664-.33-.04-.658-.084-.99-.13zm-6.187-1.26c-.895.867-2.03 1.51-3.24 1.92.43.165.864.32 1.298.465 1.12-.51 2.14-1.217 2.95-2.116-.335-.085-.67-.174-1.007-.268zm-6.228-2.393c-.83.6-1.92.995-2.898 1.237.33.23.667.45 1.006.663.996-.316 2.016-.786 2.796-1.457-.304-.142-.605-.29-.905-.443zm-4.594-2.907c-.658.33-1.427.565-2.178.726.237.263.48.516.726.764.79-.206 1.577-.494 2.252-.895-.268-.194-.534-.392-.8-.597z" stroke="none"/><path fill="none" stroke-width=".604" d="M406.4 134.456c-.045.954.226 1.776 1.127 3.29 10.81 18.162 36.29 9.84 40.942 18.35 4.47 8.18-9.644 18.516-17.24 24.57 1.333.482 2.738.904 4.217 1.26l1.326.72 1.967.62c6.07-5.755 24.04-22.685 12.614-31.91-8.223-6.635-31.18 2.175-44.955-16.9z"/></g><path fill="#000" d="M400.08 166.698h-6.843s.81-6.522-.105-10.94c-.74-3.573-3.592-7.674-3.592-10.68 0-3.007 3.256-11.454 3.256-11.454h14.566s3.1 8.447 3.1 11.453c0 3.007-2.696 7.108-3.437 10.68-.915 4.42-.105 10.94-.105 10.94h-6.84z"/><path fill="#f1bf31" d="M400.08 166.698h-6.843s1.053-6.51.204-10.94c-.69-3.605-3.124-6.402-3.445-10.058-.457-5.158 4.042-12.076 4.042-12.076h12.084s4.343 6.918 3.888 12.076c-.322 3.656-2.602 6.453-3.293 10.057-.85 4.43.204 10.94.204 10.94h-6.84z" stroke="none"/><path fill="#d99f31" d="M389.977 144.402c.43-.146.886-.25 1.318-.25 1.5 0 2.095.982 2.095.982s3.932-.91 6.69-.91c2.757 0 6.69.91 6.69.91s.594-.98 2.095-.98c.38 0 .78.078 1.162.198.026.46.023.91-.015 1.35-.322 3.657-2.604 6.452-3.293 10.056-.422 2.19-.378 4.886-.225 7.055l-6.415 3.05-6.416-3.05c.153-2.17.198-4.866-.222-7.055-.69-3.604-3.124-6.4-3.448-10.057-.037-.422-.04-.856-.017-1.298z" stroke="none"/><path fill="#000" d="M407.092 146.815c-.3.943-.778 2.453-1.194 3.975-.415 1.522-.768 3.054-.816 4.045-.19 3.87.473 8.07 1.242 11.863h-.278c-1.087-3.318-2.346-8.43-2.297-11.87.026-2.094 1.35-6.152 2.03-8.093.978-2.804.776-4.697.087-6.574-.69-1.884-1.87-3.753-2.84-6.494-.005-.017-.003-.032.003-.042h1.298c.99 2.696 2.103 4.582 2.766 6.49.673 1.94.885 3.896-.002 6.7zm-13.25 19.883c.774-3.826 1.418-7.972 1.243-11.863-.044-.99-.397-2.52-.816-4.045-.416-1.524-.898-3.033-1.195-3.974-.89-2.806-.18-6.133.746-8.75.804-2.27 1.772-4.015 2.017-4.442h1.347c-.413.678-4.643 7.827-2.796 13.112.676 1.94 2 5.998 2.03 8.09.047 3.438-1.216 8.558-2.3 11.872h-.275z" stroke="none"/><path d="M400.08 166.698h-6.843s1.053-6.51.204-10.94c-.69-3.605-3.124-6.402-3.445-10.058-.457-5.158 4.042-12.076 4.042-12.076h12.084s4.343 6.918 3.888 12.076c-.322 3.656-2.602 6.453-3.293 10.057-.85 4.43.204 10.94.204 10.94h-6.84z"/><ellipse fill="#fff" stroke-width=".915" cx="400" cy="140.644" rx="3.409" ry="2.507"/><ellipse stroke-width="1.029" cx="400" cy="140.492" rx="3.835" ry="2.735"/><circle fill="#fff" stroke-width=".915" cx="400" cy="148.23" r="3.683"/><circle stroke-width="1.029" cx="400" cy="148.23" r="4.143"/><g><path stroke-width=".904" d="M360.414 204.28s-1.057-1.064-1.378-1.934c-.255-.685-.28-1.855-.28-1.855l-3.786-6.068 8.507-8.09 16.177-4.64 20.395-1.457h.03l20.398 1.457 16.174 4.64 8.507 8.09-3.788 6.07s-.023 1.17-.278 1.854c-.322.87-1.38 1.935-1.38 1.935l-18.97-6.41-20.664-.927-20.692.926-18.974 6.41z"/><path fill="#f1bf31" d="M360.873 203.597s-.758-.947-1.046-1.655c-.418-1.024-.364-2.814-.364-2.814l-4.493-4.705 8.507-8.09 16.174-4.64 20.43-1.457 20.427 1.457 16.177 4.64 8.504 8.09-4.49 4.705s.05 1.79-.366 2.814c-.287.708-1.047 1.655-1.047 1.655l-18.514-5.727-20.69-.928-20.692.928-18.515 5.727z"/><path fill="#000" d="M358.832 207.288a41.168 12.777 0 1 1 82.336 0 41.168 10.824 0 1 1-82.336 0z"/><path fill="#f1bf31" d="M360.208 207.288a39.792 12.312 0 1 1 79.584 0 39.792 10.523 0 1 1-79.584 0z"/><ellipse fill="#d99f31" cx="400" cy="208.415" rx="36.785" ry="9.395"/><path stroke-width="1.09" d="M436.52 209.676c-6.886 2.946-20.432 4.527-36.47 4.527-16.04 0-29.585-1.58-36.47-4.527"/><path stroke-width="1.01" d="M435.91 206.262c-7.058 2.688-20.283 4.033-35.86 4.03-15.578 0-28.802-1.343-35.858-4.03"/><path d="M432.46 203.885c-7.496 2.174-19.093 3.403-32.41 3.402-13.317 0-24.912-1.228-32.407-3.402"/><path d="M427.478 202.07c-7.23 1.427-16.78 2.213-27.428 2.213s-20.196-.786-27.428-2.213M419.092 200.318c-5.66.624-12.118.956-19.042.956-6.924 0-13.383-.332-19.042-.956"/><ellipse cx="400" cy="208.415" rx="36.475" ry="9.093"/><path fill="#000" stroke-linejoin="round" d="M354.757 192.762c-3.61-4.803-6.83-8.073-14.65-10.834 1.074-.864 2.972-1.65 4.795-2.097 2.976-.732 6.016-.334 7.97.69-1.55-5.555 1.43-11.094 1.43-11.094s4.817-.276 9.7 3.646c.158-6.727 2.13-9.92 2.13-9.92s5.07.243 10.258 5.396c.988-6.958 4.742-10.735 4.742-10.735s6.23 1.95 9.79 8.524c2.373-9.523 9.156-13.253 9.156-13.253s6.786 3.73 9.157 13.253c3.563-6.573 9.792-8.524 9.792-8.524s3.73 3.64 4.742 10.735c5.186-5.153 10.256-5.397 10.256-5.397s1.973 3.195 2.133 9.922c4.88-3.922 10.177-2.463 10.177-2.463s2.502 4.355.95 9.91c1.953-1.024 4.995-1.422 7.97-.69 1.823.45 3.72 1.234 4.794 2.098-7 2.54-11.19 6.03-14.803 10.834-3.378-6.902-21.455-14.493-45.17-14.493-23.71 0-41.942 7.59-45.32 14.492z"/><path fill="#f1bf31" stroke-linejoin="round" d="M354.757 191.986c-3.088-4.84-7.545-8.382-12.17-10.172 1.074-.864 2.96-1.194 4.956-1.333 2.343-.16 4.292.167 5.946.952-1.555-5.552.968-11.23.968-11.23s4.966.018 9.848 3.94c.16-6.727 2.292-10.064 2.292-10.064s4.755.53 9.942 5.685c1.113-6.945 4.748-10.866 4.748-10.866s6.23 1.933 9.79 8.503c2.373-9.52 9-12.923 9-12.923s6.63 3.403 9.004 12.923c3.56-6.57 9.79-8.503 9.79-8.503s3.75 3.51 4.748 10.866c5.187-5.155 9.94-5.685 9.94-5.685s2.133 3.337 2.294 10.064c4.88-3.922 10.466-2.857 10.466-2.857s1.904 4.595.352 10.147c1.652-.785 3.6-1.113 5.942-.95 1.997.138 3.884.468 4.958 1.332-4.624 1.79-9.082 5.332-12.17 10.172-3.378-6.902-21.61-13.86-45.324-13.86-23.71 0-41.943 6.958-45.32 13.86z"/><path fill="#000" d="M352.995 194.157c0-8.754 20.9-16.185 47.053-16.185 26.156 0 46.282 7.73 46.282 15.41 0 1.84-1.626 3.424-3.77 4.77.207-.577.31-1.167.31-1.763 0-7.68-16.666-13.906-42.822-13.906-26.153 0-42.82 6.225-42.82 13.905 0 .595.106 1.185.313 1.76-2.145-1.344-4.545-2.154-4.545-3.993z"/><path fill="#f1bf31" stroke-width=".904" d="M354.222 193.382c0-6.642 19.675-14.945 45.828-14.945 26.154 0 45.83 8.303 45.83 14.945 0 1.84-2.05 2.024-2.234 1.458-2.198-6.734-17.442-12.668-43.596-12.668-26.153 0-41.398 5.934-43.596 12.668-.185.566-2.232.382-2.232-1.458z"/><path fill="#000" stroke-width=".45" stroke-linejoin="round" d="M399.577 172.094c.152-2.35.463-7.569.463-7.569.007-.052.073-.827.08-.774 0 0 .292 5.99.433 8.34.14 2.344.29 6.015.29 6.015 0 .02-.018.04-.04.04l-1.504.007c-.022 0-.04-.02-.04-.04 0 0 .166-3.674.317-6.018zm38.456 13.55c.41-.813.917-1.844 1.287-2.656.753-1.655 2.11-4.304 2.11-4.304.02-.05-.044-.08-.07-.034 0 0-1.7 2.402-2.654 3.894-.504.79-1.186 1.79-1.722 2.567zm-12.812-4.645c.23-.51 1.297-2.89 2.125-4.416.987-1.814 2.77-4.512 2.77-4.512.03-.045.09-.01.067.038 0 0-1.28 2.73-2.014 4.512-.72 1.74-1.714 4.512-1.714 4.512l-.66.01zm-11.598-2.088c.282-1.12.858-3.368 1.316-4.95.645-2.218 1.038-3.457 1.79-5.64.017-.05.086-.032.075.02-.424 2.254-.65 3.53-1.036 5.79-.274 1.612-.64 3.914-.802 4.95zm-39.31 2.244l-.57.004c-.038-.027-1.032-2.798-1.75-4.54-.736-1.78-2.015-4.51-2.015-4.51-.022-.048.038-.084.067-.038 0 0 1.783 2.698 2.77 4.512.83 1.524 1.895 3.904 2.123 4.415zm10.883-2.075c-.165-1.035-.53-3.336-.804-4.948-.383-2.26-.61-3.535-1.034-5.79-.01-.054.058-.07.075-.02.752 2.182 1.146 3.423 1.79 5.64.46 1.582 1.034 3.832 1.317 4.95zm-23.187 6.624c-.413-.82-.937-1.883-1.317-2.716-.754-1.655-2.108-4.304-2.108-4.304-.02-.05.043-.08.068-.034 0 0 1.7 2.402 2.654 3.894.516.807 1.218 1.838 1.76 2.62z"/></g><g stroke-width=".777" stroke-linecap="round" stroke-linejoin="round"><path fill="#d99f31" stroke-width=".719" d="M361.605 197.422c-.337-1.906-1.985-3.44-3.256-3.217-1.27.223-3.073 2.123-2.737 4.027.335 1.905 2.717 3.29 3.988 3.07 1.27-.226 2.34-1.976 2.005-3.88z"/><path fill="#f1bf31" d="M359.49 195.078c.353.418.567.958.567 1.548 0 1.323-1.07 2.395-2.394 2.395-.438 0-.848-.118-1.2-.322-.065-.17-.115-.347-.147-.528-.29-1.652.97-3.144 2.07-3.338.08-.014.16-.02.24-.02.296 0 .59.094.864.266z" stroke="none"/><path d="M360.903 197.466c-.29-1.65-1.418-2.828-2.516-2.635-1.1.194-2.36 1.69-2.073 3.338.293 1.648 2.056 2.848 3.155 2.655 1.1-.193 1.724-1.71 1.433-3.357z"/><path fill="#d99f31" d="M375.4 192.846l-.598-3.583-2.413-1.217s-2.594.704-4.21 1.28c-1.673.593-4.21 1.73-4.21 1.73l-.602 1.053.754 4.052 1.35 1.202 9.02-2.705.908-1.814z"/><path fill="#f1bf31" d="M365.464 195.44l7.226-2.285.45-.75-.625-3.75-.26-.258-8.024 2.944.612 3.403z" stroke="none"/><path stroke-width="1.09" d="M365.464 195.44l7.226-2.285.45-.75-.475-3m2.555 3.44l-2.08-.44"/><path fill="#f1bf31" d="M385.724 189.003c-.072-.826.54-1.557 1.367-1.628.83-.072 1.558.538 1.63 1.367.074.826-.54 1.555-1.365 1.628-.83.072-1.558-.54-1.63-1.367zm-3.482 3.322c-.072-.826.54-1.555 1.367-1.628.827-.072 1.556.54 1.63 1.367.07.826-.54 1.557-1.367 1.63-.83.07-1.558-.54-1.63-1.37zm-3.554-2.668c-.073-.826.54-1.555 1.366-1.627.826-.073 1.406.54 1.478 1.366.073.828-.388 1.557-1.216 1.63-.826.07-1.556-.54-1.628-1.37zm3.03-3.322c-.07-.826.54-1.555 1.367-1.628.827-.072 1.558.54 1.628 1.367.073.826-.54 1.557-1.366 1.627-.826.074-1.555-.538-1.628-1.365z" stroke="none"/><path fill="#d99f31" d="M385.814 189.398c.197-.526.68-.92 1.277-.97.69-.06 1.312.352 1.542.97-.197.527-.68.92-1.277.97-.69.062-1.31-.353-1.54-.97zm-4.005-2.668c.23.62.85 1.032 1.537.97.597-.05 1.08-.445 1.278-.97-.23-.617-.85-1.03-1.54-.97-.595.05-1.08.445-1.276.97zm-3.033 3.322c.23.62.85 1.032 1.54.974.585-.052.988-.433 1.147-.945-.188-.632-.71-1.06-1.41-1-.596.053-1.08.447-1.277.972zm3.556 2.667c.228.616.85 1.032 1.538.97.6-.05 1.083-.445 1.28-.97-.232-.618-.852-1.03-1.54-.97-.596.052-1.08.445-1.277.97z" stroke="none"/><path stroke-width=".933" d="M385.724 189.003c-.072-.826.54-1.557 1.367-1.628.83-.072 1.558.538 1.63 1.367.074.826-.54 1.555-1.365 1.628-.83.072-1.558-.54-1.63-1.367zm-3.482 3.322c-.072-.826.54-1.555 1.367-1.628.827-.072 1.556.54 1.63 1.367.07.826-.54 1.557-1.367 1.63-.83.07-1.558-.54-1.63-1.37zm-3.554-2.668c-.073-.826.54-1.555 1.366-1.627.826-.073 1.406.54 1.478 1.366.073.828-.388 1.557-1.216 1.63-.826.07-1.556-.54-1.628-1.37zm3.03-3.322c-.07-.826.54-1.555 1.367-1.628.827-.072 1.558.54 1.628 1.367.073.826-.54 1.557-1.366 1.627-.826.074-1.555-.538-1.628-1.365z"/><path fill="#d99f31" d="M392.853 190.393V186.5l2.27-2.113h9.918l2.27 2.113.002 3.89-2.272 1.966h-9.918z" stroke="none"/><path fill="#f1bf31" d="M405.238 184.846l-.798.814v3.717l-.633.625-7.51-.054-.623-.624v-3.57l-.672-.908z" stroke="none"/><path d="M392.853 190.393V186.5l2.27-2.113h9.918l2.27 2.113.002 3.89-2.272 1.966h-9.918z"/><path stroke-width="1.09" d="M393.463 190.23l2.21-.85m10.994.91l-2.227-.913m-9.05 2.728l.9-2.104m8.42 2.105l-.9-2.104m.63-4.34v3.717l-.63.624-7.512-.052-.624-.623v-3.717"/><path fill="#f1bf31" d="M414.374 189.003c.073-.826-.54-1.557-1.366-1.628-.828-.072-1.557.538-1.63 1.367-.07.826.54 1.555 1.37 1.628.825.072 1.554-.54 1.626-1.367zm3.483 3.322c.072-.826-.54-1.555-1.367-1.628-.826-.072-1.557.54-1.63 1.367-.07.826.54 1.557 1.37 1.63.825.07 1.554-.54 1.627-1.37zm3.554-2.668c.074-.826-.54-1.555-1.365-1.627-.826-.073-1.405.54-1.48 1.366-.07.828.392 1.557 1.218 1.63.827.07 1.556-.54 1.628-1.37zm-3.028-3.322c.07-.826-.54-1.555-1.37-1.628-.825-.072-1.554.54-1.626 1.367-.073.826.54 1.557 1.366 1.627.826.074 1.555-.538 1.63-1.365z" stroke="none"/><path fill="#d99f31" d="M414.285 189.398c-.197-.526-.68-.92-1.277-.97-.69-.06-1.31.352-1.54.97.197.526.682.92 1.277.97.69.062 1.31-.353 1.54-.97zm1.19-2.668c.197.525.68.92 1.278.97.688.062 1.308-.35 1.538-.97-.195-.525-.68-.92-1.277-.97-.688-.06-1.308.353-1.54.97zm3.16 3.35c.16.513.562.894 1.15.946.688.058 1.308-.355 1.537-.975-.197-.524-.68-.917-1.277-.97-.698-.06-1.22.368-1.41 1zm-3.686 2.64c.196.525.68.92 1.277.97.69.062 1.31-.352 1.54-.968-.196-.527-.68-.92-1.277-.973-.688-.06-1.31.352-1.54.97z" stroke="none"/><path stroke-width=".933" d="M414.374 189.003c.073-.826-.54-1.557-1.366-1.628-.828-.072-1.557.538-1.63 1.367-.07.826.54 1.555 1.37 1.628.825.072 1.554-.54 1.626-1.367zm3.483 3.322c.072-.826-.54-1.555-1.367-1.628-.826-.072-1.557.54-1.63 1.367-.07.826.54 1.557 1.37 1.63.825.07 1.554-.54 1.627-1.37zm3.554-2.668c.074-.826-.54-1.555-1.365-1.627-.826-.073-1.405.54-1.48 1.366-.07.828.392 1.557 1.218 1.63.827.07 1.556-.54 1.628-1.37zm-3.028-3.322c.07-.826-.54-1.555-1.37-1.628-.825-.072-1.554.54-1.626 1.367-.073.826.54 1.557 1.366 1.627.826.074 1.555-.538 1.63-1.365z"/><path fill="#d99f31" d="M424.7 192.846l.598-3.583 2.413-1.217s2.594.704 4.21 1.28c1.673.593 4.21 1.73 4.21 1.73l.602 1.053-.753 4.052-1.353 1.202-9.02-2.705-.907-1.814z"/><path fill="#f1bf31" d="M434.635 195.44l-7.223-2.285-.453-.75.626-3.75.257-.258 8.027 2.944-.613 3.403z" stroke="none"/><path stroke-width="1.09" d="M434.635 195.44l-7.223-2.285-.453-.75.475-3m-1.885 4.952l1.86-1.202"/><path fill="#d99f31" stroke-width=".719" d="M438.405 197.422c.337-1.906 1.985-3.44 3.253-3.217 1.27.223 3.076 2.123 2.742 4.027-.337 1.905-2.72 3.29-3.99 3.07-1.27-.226-2.34-1.976-2.005-3.88z"/><path fill="#f1bf31" d="M439.953 196.626c0-.59.214-1.13.568-1.548.275-.172.57-.266.864-.266.08 0 .16.007.24.02 1.1.194 2.36 1.687 2.07 3.338-.033.182-.083.36-.148.53-.353.204-.762.32-1.2.32-1.32 0-2.393-1.07-2.393-2.394z" stroke="none"/><path d="M439.106 197.466c.29-1.65 1.42-2.828 2.517-2.635 1.1.194 2.363 1.69 2.072 3.338-.29 1.648-2.054 2.848-3.154 2.655-1.1-.193-1.725-1.71-1.434-3.357z"/><path stroke-width=".833" d="M424.278 192.878l.652-3.893 2.562-1.27s2.777.755 4.508 1.37c1.79.635 4.508 1.844 4.508 1.844l.645 1.126-.805 4.352-1.45 1.29-9.66-2.9-.96-1.92zm-31.907-6.532l2.398-2.242h10.624l2.396 2.242.004 4.21-2.4 2.083h-10.625l-2.396-2.083v-4.21zm-16.55 6.532l-.65-3.893-2.563-1.27s-2.777.755-4.508 1.37c-1.79.635-4.51 1.844-4.51 1.844l-.642 1.126.803 4.352 1.45 1.29 9.662-2.9.96-1.92z"/></g><g stroke-linejoin="round" stroke-linecap="round"><path fill="#d99f31" stroke-width=".952" d="M408.13 95.85c1.775 0 3.07 1.585 3.07 3.364 0 1.78-1.295 3.524-3.07 3.524-2.32 0-5.687-2.743-5.573-.56l.056 1.104 1.23 10.145c3.023.68-10.553.68-7.532 0l1.236-10.19.054-1.06c.11-2.18-3.34.56-5.57.56-1.778 0-3.07-1.743-3.07-3.523s1.292-3.364 3.07-3.364c1.75 0 3.683 1.63 4.922.864 1.95-1.202-.397-3.907-.397-5.73 0-1.775 1.745-3.225 3.524-3.225 1.777 0 3.523 1.45 3.523 3.224 0 1.823-2.363 4.45-.395 5.73 1.174.767 3.11-.864 4.92-.864z"/><path fill="#f1bf31" d="M397.49 91.508c-.208-.248-.362-.523-.462-.81.378-1.32 1.66-2.37 3.053-2.37.61 0 1.2.202 1.7.54-.105.36-.916.435-1.682 1.077-1.1.92-1.688 2.66-2.608 1.563zm.505 5.096c.142.198.22.41.22.63 0 1.1-1.9 1.99-4.245 1.99-1.964 0-3.616-.626-4.1-1.476.57-.88 1.597-1.473 2.692-1.473 1.636 0 3.874 1.394 5.033.68.17-.105.3-.223.4-.35zm3.268.168c0-.513.243-.993.666-1.403-.107.625.02 1.182.636 1.584 1.096.715 3.336-.68 5.03-.68 1.078 0 2.09.575 2.666 1.433-.65 1.04-2.357 1.782-4.358 1.782-2.562 0-4.64-1.217-4.64-2.718z" stroke="none"/><path d="M407.596 96.276c1.66 0 3.158 1.356 3.158 3.016s-1.5 3.016-3.158 3.016-5.737-2.903-5.64-.69l.054 1.182.698 9.783c2.824.636-8.083.636-5.26 0l.7-9.826.05-1.14c.098-2.21-4.104.69-5.635.69-1.658 0-3.158-1.355-3.158-3.015 0-1.66 1.5-3.016 3.158-3.016 1.635 0 3.874 1.39 5.033.68 1.82-1.124-.683-3.772-.683-5.472 0-1.66 1.506-3.156 3.166-3.156s3.166 1.497 3.166 3.156c0 1.7-2.516 4.273-.68 5.47 1.096.713 3.338-.678 5.03-.678z"/><circle fill="#f1f1f2" stroke-width="1.703" cx="400" cy="116.288" r="7.901"/><path fill="#000" d="M401.46 121.283c.53-.663 1.115-1.504 1.358-2.288.18-.573.774-.304.646.184-.226.853-.746 1.746-1.254 2.45zm-8.695-4.654c.137-.116.292-.262.477-.41.183-.147.398-.305.654-.45.334-.224.102-.743-.305-.546-.427.208-.78.427-1.012.583zm-.05 1.17l.41.736c.578-.61 1.544-1.5 1.697-1.643.357-.338-.106-.728-.41-.51-.352.25-.86.635-1.22.967-.198.182-.367.344-.478.45zm.597 1.764l.513.598c1.213-.944 2.29-2.087 2.465-2.274.343-.372-.054-.876-.46-.507-.194.205-1.767 1.605-2.507 2.175l-.01.01zm10.783 1.333c.382-.433.797-1.037.934-1.736.05-.246.226-.364.403-.327.17.037.294.214.255.45-.14.843-.58 1.56-.993 2.04zm-6.057.772c1.108-1.268 1.915-2.35 2.644-3.566.11-.183.31-.23.456-.156.156.074.23.262.122.48-.456.934-1.073 1.903-1.618 2.593-.547.692-.952 1.166-.952 1.166zm-2.24-1.376c.74-.686 1.588-1.552 2.058-2.128.278-.34.882-.077.537.434-.442.654-1.125 1.46-1.76 2.043z" stroke="none"/><path fill="#d99f31" d="M406.135 133.626h-6.057l-6.033-.002c-1.024 1.73-4.257 2.903-6.903 1.522-1.878-.982-2.263-3.212-2.263-3.212s5.062.185 5.09-4.294c0-4.54 2.606-7.504 6.354-7.055 1.636.195 2.743 1.02 3.754 1.938 1.013-.918 2.124-1.746 3.763-1.938 3.748-.445 6.35 2.516 6.35 7.02 0 4.516 5.088 4.333 5.088 4.333s-.383 2.226-2.262 3.208c-2.656 1.385-5.908.197-6.88-1.52z"/><path fill="#d99f31" d="M406.14 133.624h-.42c-1.12 1.04-2.883 2.095-5.64 2.705-2.76-.61-4.52-1.666-5.64-2.706h-.396s-4.24 3.006-7.213.752c-1.098-.83-1.33-1.977-1.33-1.977s5.09-.28 5.09-4.795c0-4.504 2.443-6.4 5.732-6.4 1.437 0 2.745.708 3.758 1.628 1.01-.92 2.32-1.63 3.758-1.63 3.29 0 5.733 1.898 5.733 6.402 0 4.516 5.088 4.794 5.088 4.794s-.233 1.145-1.33 1.976c-2.975 2.254-7.19-.752-7.19-.752z" stroke="none"/><path stroke="#f1bf31" stroke-width=".904" d="M391.164 125.035c-.265.64.156 2.864.156 2.864s.138 2.018-1.45 3.555c-1.11 1.074-3.647 1.54-3.647 1.54m22.78-7.96c.265.64-.157 2.864-.157 2.864s-.137 2.018 1.45 3.555c1.108 1.074 3.646 1.54 3.646 1.54"/><path fill="#f1bf31" d="M399.982 135.868c-6.296-1.43-7.112-5.33-6.937-5.286.413.102 1.867 2.946 7.034 4.383 5.167-1.437 6.618-4.28 7.034-4.383.174-.044-.642 3.856-6.937 5.286h-.195zm-7.736-11.12c0-1.525 2.527-2.803 5.935-3.153.704.296 1.346.736 1.9 1.24.552-.503 1.192-.943 1.893-1.238 3.4.353 5.918 1.628 5.918 3.15 0 3.61-4.124 5.357-7.822 5.355-3.698 0-7.822-1.744-7.822-5.355z" stroke="none"/><path d="M406.14 133.624h-.42c-1.12 1.04-2.883 2.095-5.64 2.705-2.76-.61-4.52-1.666-5.64-2.706h-.396s-4.24 3.006-7.213.752c-1.098-.83-1.33-1.977-1.33-1.977s5.09-.28 5.09-4.795c0-4.504 2.443-6.4 5.732-6.4 1.437 0 2.745.708 3.758 1.628 1.01-.92 2.32-1.63 3.758-1.63 3.29 0 5.733 1.898 5.733 6.402 0 4.516 5.088 4.794 5.088 4.794s-.233 1.145-1.33 1.976c-2.975 2.254-7.19-.752-7.19-.752z"/><path fill="#000" d="M407.625 130.618s-.752 5.052-7.545 6.555c-6.796-1.503-7.548-6.555-7.548-6.555s.752 4.208 7.547 5.712c6.793-1.504 7.545-5.712 7.545-5.712z"/></g></g><g stroke-width=".933" stroke-linejoin="round" stroke-linecap="round"><path fill="#a0cfeb" d="M398.792 227.49c13.54-.236 71.818-10.007 71.818 70.926 0 77.305-70.56 108.048-70.56 108.048s-70.564-29.78-70.564-113.912c0-75.068 69.306-65.06 69.306-65.06z"/><path fill="#94bb79" d="M421.68 348.386c4.13-2.305 8.89-3.62 13.954-3.62 8.237 0 15.66 3.475 20.89 9.037-20.586 37.015-56.473 52.66-56.473 52.66s-34.958-14.755-55.663-52.832c5.22-5.46 12.577-8.863 20.73-8.863 5.678 0 10.97 1.65 15.424 4.5 5.235-5.63 12.705-9.15 20.998-9.15 7.85 0 14.964 3.157 20.143 8.27z"/><path fill="#658d5c" d="M433.967 345.16c3.555.412 9.773 3.76 12.78 8.27-2.336 3.86-6.823 9.994-9.3 13.375-5.496-8.067-16.883-18.868-16.094-18.088.114.11.592-.277.73-.355 1.097-.61 2.12-1.166 3.123-1.64 2.018-.787 4.147-1.354 6.357-1.668.758-.025 1.553.008 2.404.107zm-24.18 50.77c-4.496 2.375-7.994 3.896-9.738 4.63-1.747-.734-5.247-2.255-9.74-4.63-8.707-7.05-26.64-23.507-39.266-47.43 4.07-2.278 8.764-3.578 13.76-3.578.41 0 2.107.494 3.348 1.077 7.936 3.728 17.757 14.434 14.138 16.482-2.656 1.498-10.255-.962-10.654 1.978-.15 1.113 14.096 8.94 22.192 15.83 6.636 5.65 17 14.796 15.96 15.64zm17.297-7.03c-9.063-8.898-29.447-26.997-46.503-39.677 4.728-5.062 11.266-8.408 18.584-9.007l.384.05c9.843 1.41 18.758 11.965 15.14 14.012-2.657 1.5-10.256-.962-10.654 1.98-.132.98 10.192 7.22 16.236 12.417 5.935 5.102 9.815 8.767 14.217 13.576-2.49 2.408-4.974 4.622-7.403 6.65z"/><path d="M422.07 347.943c1.887 1.78 2.71 3.262 2.715 3.272.18.3-.02.992-.563.486 0 0-.75-.714-2.952-2.86-2.965-2.892-8.094-6.55-12.34-7.263-.407-.07-.583-.27-.533-.565.047-.297.305-.577.712-.51.076.01 6.344 1.193 12.96 7.44zm-34.873 5.554c.194.175.246.416.138.595-.114.186-.355.228-.558.08-3.586-2.547-5.336-3.614-7.415-4.918-.163-.104-.272-.277-.15-.46.082-.12.25-.2.41-.247.326-.093.818-.11 1.133.088 2.106 1.322 3.52 2.462 6.442 4.862z"/><path fill="none" stroke="#000" stroke-width="1.244" d="M421.68 348.386c4.13-2.305 8.89-4.084 13.954-4.084 8.277 0 15.733 3.636 20.966 9.366m-112.312-.225c5.227-5.682 12.624-9.295 20.828-9.295 5.68 0 10.972 2.27 15.425 5.118 5.236-5.63 12.706-9.767 21-9.767 7.85 0 14.963 3.774 20.14 8.886"/><path fill="none" stroke="#4c819a" stroke-width=".777" d="M367.91 230.52h66.968m-75.913 3.712h84.12m-90.25 3.713h95.792m-100.444 3.715h104.632m-108.33 3.712h111.65m-114.664 3.712h117.375m-119.856 3.713h122.1m-124.168 3.712h126.052m-127.756 3.712H464.55m-130.752 3.714h132.08m-133.25 3.71h134.357m-135.3 3.713h136.22m-50.246 3.712h51.004m-137.726 0h51.354m51.984 3.71h35.002m-138.918 0h35.444m74.937 3.717h29.02m-139.825 0h29.234m87.87 3.71h23.08m-140.455 0h22.994m100.603 3.714h17.118m-140.855 0h17.094m111.113 3.71h12.8m-141.032 0h13.03m119.3 3.712h8.77m-141.026 0h8.48"/><g fill="none"><path fill="#000" d="M356.655 300.398l-.017-7.225 7.75-3.024 7.748 2.092.017 8.156z"/><path fill="#fff" d="M373.237 333.224l3.394 13.948c-3.524-1.546-7.417-2.406-11.514-2.406l-.73-57.564 3.1.89v6.053l3.874.997v-5.994l5.27 1.387v9.84l-3.393 5.04v27.81z"/><path fill="#bdbfc1" d="M364.387 332.147v-44.943l-3.1 1.355v5.964l-3.875 1.545v-5.99l-5.27 2.236v9.532l3.788 4.542.09 27.393-3.877 14.082c3.693-1.877 7.846-2.98 12.244-3.09v-12.628z"/><path stroke="#000" stroke-width="1.09" d="M364.25 332.04l-8.23 1.744m-1.74 8.67l10.047-2.124 10.864 1.168m-11.223-5.225l-8.868 1.807m17.652-24.684l-8.364-1.735-8.483 2.59m16.847 3.098l-8.364-1.597-8.483 2.45m0-7.858l8.483-2.743 8.364 1.766m-16.847 12.726l8.483-2.263 8.364 1.487m-16.77 4.664l8.406-2.075 8.44 1.38m-16.847 4.602l8.408-1.892 8.52 1.27m-3.097-24.41v3.836m-3.098-.582v3.914m3.1.828v3.917m-7.904-4.282v3.914m0 4.108v3.913m-3.72 1.364v3.604m0-19.42v3.605m3.72-9.107v3.916m2.496-10.982l12.227 2.977m-12.226-2.977l-12.26 4.447"/><path stroke="#000" stroke-width="1.244" d="M364.387 344.776v-57.572"/><path fill="#000" d="M370.586 334.677l-3.723-.513.004-11.78c0-1.45.88-2.337 1.674-2.337 1.407 0 2.046 1.584 2.046 2.957z"/><path stroke="#000" d="M373.237 333.225l3.394 13.948c-3.524-1.546-7.417-2.406-11.514-2.406-4.67 0-9.078 1.117-12.972 3.098l3.874-14.08-.09-27.393-3.784-4.543v-9.533l5.27-2.238v5.987l3.873-1.543v-5.965l3.1-1.357 3.1.89v6.053l3.873.997v-5.994l5.27 1.386v9.84l-3.393 5.04v27.81zm3.1 13.42c-3.41-1.41-7.302-2.186-11.22-2.186-4.472 0-8.864 1.01-12.647 2.82l3.848-13.413-.08-27.478c0-.023-.055-.18-.07-.197l-3.714-4.457v-9.214l4.65-1.975v5.52c0 .254.188.383.424.288l3.875-1.543c.08-.03.194-.2.194-.287v-5.764l2.812-1.228 2.765.796v5.817c0 .11.125.273.232.3l3.875.998c.218.056.388-.076.388-.3v-5.593l4.65 1.223v9.51l-3.34 4.956c-.01.014-.054.157-.054.174v27.81l3.41 13.42zm1.215.455c.075.31-.756.02-1.046-.108-3.486-1.53-7.338-2.38-11.39-2.38-4.618 0-8.98 1.105-12.832 3.063-.3.152-1.15.43-1.06.106l4.483-14.037-.087-27.24-3.714-4.457c-.015-.017-.07-.175-.07-.198v-9.532c0-.083.11-.25.185-.284l5.27-2.24c.24-.1.433.028.433.286v5.53l3.254-1.294v-5.756c0-.08.112-.25.187-.283l3.1-1.355c.02-.01.186-.02.21-.015l3.097.89c.103.03.226.192.226.298v5.812l3.253.838v-5.593c0-.227.17-.357.39-.3l5.27 1.386c.107.027.23.19.23.3v9.84c0 .017-.042.16-.052.173l-3.34 4.96v27.676l4.004 13.914zm-13.148-43.577l8.364 1.89m-8.364-1.89l-8.475 2.87"/></g><g fill="none"><path fill="#000" d="M391.526 294.975l-.017-7.383 7.748-2.79 7.75 2.403.016 7.77z"/><path fill="#fff" d="M408.108 328.11l3.395 13.788c-3.104-1.152-6.462-1.78-9.964-1.78-.814 0-1.62.034-2.415.1l.134-58.44 3.097 1.046v6.05l3.874 1.077v-5.915l5.273 1.694v9.81l-3.395 4.836v27.733z"/><path fill="#bdbfc1" d="M399.26 340.19V281.777l-3.1 1.202v6.045l-3.876 1.384v-5.986l-5.27 2.08v9.64l3.787 4.637.09 27.58-3.876 15.703c3.643-2.145 7.802-3.506 12.245-3.855v-.02z"/><path stroke="#000" stroke-width="1.09" d="M398.802 330.83l-8.575 1.646m19.482 3.87l-10.503-1.32-10.357 1.97m4.225-21.01v3.756m3.72 3.4v3.915m0-28.17v3.915m-3.72 1.433v3.757m3.72-1.008v3.913m7.904-3.315v3.913m-3.1-8.656v3.913m3.1-7.09v3.836m-13.83 20.885l8.405-1.814 8.52 1.583m-17.002-7.64l8.482-2.11 8.364 1.8m-16.847-3.582l8.482-2.294 8.364 1.908m-16.847-3.565l8.482-2.434 8.364 2.047m-16.847-3.58l8.482-2.542 8.364 2.153m.078 15.858l-8.443-1.69-8.405 2m8.39 6.166l-8.37 1.715m20.613-32.82l-12.244-3.56-12.245 4.165m20.624 4.216l-8.364-2.254-8.477 2.675"/><path stroke="#000" stroke-width="1.244" d="M399.26 340.19v-58.412"/><path fill="#000" d="M405.457 329.407l-3.722-.59.004-11.78c0-1.45.88-2.258 1.674-2.258 1.404 0 2.043 1.58 2.043 2.268z"/><path stroke="#000" d="M411.218 341.41c-2.983-1.037-6.343-1.602-9.68-1.602-5.097 0-10.042 1.317-14.204 3.627l3.855-15-.08-27.655c0-.023-.055-.177-.07-.196l-3.714-4.55v-9.32l4.65-1.838v5.533c0 .246.182.375.414.292l3.874-1.39c.09-.03.206-.197.206-.29v-5.83l2.797-1.086 2.78.94v5.83c0 .107.122.268.226.298l3.875 1.075c.22.06.394-.072.394-.3v-5.492l4.652 1.497v9.487l-3.34 4.755c-.007.015-.055.162-.055.178v27.734l3.418 13.3zm1.206.412c.073.297-.743.007-1.03-.1-3.07-1.137-6.39-1.758-9.856-1.758-5.243 0-10.153 1.422-14.366 3.9-.295.176-1.16.458-1.078.124l4.485-15.666-.09-27.43-3.715-4.552c-.015-.016-.07-.172-.07-.195v-9.64c0-.087.114-.256.197-.29l5.268-2.082c.236-.093.423.036.423.29v5.547l3.256-1.165v-5.826c0-.09.113-.258.198-.29l3.098-1.202c.022-.008.19-.01.21-.004l3.1 1.047c.09.032.21.196.21.293v5.818l3.255.902v-5.508c0-.237.18-.368.406-.295l5.272 1.695c.095.03.213.195.213.295v9.81c0 .02-.045.165-.055.18l-3.336 4.754v27.598l4.004 13.75zm-4.315-13.713l3.394 13.788c-3.104-1.152-6.462-1.78-9.965-1.78-5.302 0-10.266 1.437-14.525 3.945l3.875-15.702-.09-27.58-3.785-4.636v-9.64l5.27-2.08v5.987l3.875-1.388v-6.044l3.1-1.2 3.097 1.046v6.05l3.875 1.076v-5.915l5.272 1.694v9.81l-3.395 4.835v27.734z"/></g><g fill="none"><path fill="#000" d="M426.396 300.554l-.015-8.156 7.75-2.17 7.748 2.556.017 7.77z"/><path fill="#fff" d="M442.98 333.534l3.393 13.313c-3.317-1.34-6.94-2.08-10.74-2.08-.547 0-1.09.015-1.63.045l.127-57.61 3.098 1.045v6.053l3.874 1.308v-5.918l5.27 1.774v9.688l-3.393 4.804v27.578z"/><path fill="#bdbfc1" d="M434.13 332.147v-44.944l-3.098.968v6.045l-3.876 1.154v-5.988l-5.27 1.696v9.763l3.785 4.853.092 27.55-3.877 15.03c3.67-2.01 7.825-3.24 12.245-3.467v-12.659z"/><path stroke="#000" stroke-width="1.09" d="M423.572 342.002l10.507-1.63 10.694 1.408m-11.092-5.557l-8.85 1.358m6.82-33.424v3.915m-3.722 1.278v3.76m0 12.132V329m3.72-8.648v3.914m0-12.014v3.915m7.904-3.084v3.914m-3.1-8.733v3.913m3.1-7.014V309m-13.828 20.42l8.404-1.425 8.52 1.582m-17.002-11.997l8.482-1.83 8.366 1.986m0 3.968l-8.366-1.875-8.482 1.72m16.848-7.765l-8.366-2.124-8.482 1.97m16.848-3.813l-8.366-2.232-8.482 2.076m16.862-3.705l-8.364-2.433-8.475 2.17m-3.784-4.85l12.26-3.44 12.228 3.748m-12.228 30.89l-8.386 1.358m-.034-7.88l8.404-1.613 8.442 1.767"/><path stroke="#000" stroke-width="1.244" d="M434.13 344.806v-57.603"/><path fill="#000" d="M440.33 334.91l-3.724-.59.002-11.78c0-1.453.882-2.26 1.676-2.26 1.405 0 2.045 1.584 2.045 2.27z"/><path stroke="#000" d="M446.08 346.338c-3.2-1.215-6.822-1.88-10.445-1.88-4.784 0-9.452 1.16-13.427 3.21l3.853-14.35-.078-27.624c0-.022-.052-.174-.067-.19l-3.718-4.768v-9.433l4.65-1.495v5.562c0 .233.173.364.398.298l3.874-1.157c.098-.028.22-.19.22-.296v-5.816l2.787-.87 2.79.943v5.83c0 .097.12.263.21.294l3.877 1.308c.23.077.41-.05.41-.295v-5.485l4.65 1.565v9.366l-3.34 4.724c-.007.015-.054.162-.054.178v27.578l3.41 12.805zm-3.1-12.804l3.393 13.313c-3.317-1.34-6.94-2.08-10.74-2.08-4.98 0-9.665 1.27-13.747 3.505l3.874-15.03-.09-27.548-3.784-4.854v-9.762l5.27-1.696v5.987l3.874-1.155v-6.044l3.1-.967 3.098 1.044v6.053l3.874 1.308v-5.918l5.27 1.774v9.688l-3.393 4.804v27.578zm4.313 13.235c.077.303-.746.016-1.036-.102-3.28-1.325-6.866-2.055-10.622-2.055-4.93 0-9.564 1.257-13.6 3.467-.298.162-1-.177-.914-.505l4.33-14.372-.087-27.403-3.72-4.768c-.016-.016-.068-.17-.068-.19v-9.766c0-.1.122-.263.217-.294l5.267-1.695c.228-.074.407.056.407.296v5.572l3.253-.972v-5.81c0-.103.12-.267.218-.3l3.1-.966c.016-.006.172-.005.19.002l3.1 1.044c.093.03.208.197.208.294v5.83l3.256 1.097v-5.483c0-.24.18-.372.41-.295l5.27 1.773c.092.03.21.197.21.295v9.686c0 .017-.045.165-.055.18l-3.337 4.723v27.443l4.003 13.274z"/></g><g id="a" stroke="#000"><path d="M369.418 268.702c-.283-2.57-1.282-6.73-4.716-6.2.175 4.47 5.862 21.29-.637 22.453l-.218-.232c.085-7.64-7.55-15.975-6.063-22.627.98-4.378 4.292-6.745 8.704-6.745 8.045 0 9.16 10 3.28 13.504l-.35-.152z"/><path fill="#fff" d="M369.854 267.53c-.654-2.87-2.232-6.61-5.845-5.97l-.238.31c.166 4.805 6.19 19.418.457 22-.155-8.37-7.696-13.8-5.76-21.643.537-2.173 2.705-4.875 4.815-5.668.99-.375 2.117-.685 3.19-.664 7.257.15 9.14 7.672 3.38 11.634z"/><path stroke="none" d="M359.574 264.713c.62-1.698 2.653-3.42 4.466-3.635.377-.046.68.292.83.71l-.174-.003c-.208 0-.41.027-.615.075.012.31.037.633.075.966-.85.053-2.325.395-3.83 2.238-.695.855-1.065.504-.75-.35z"/><path stroke-width="1.09" d="M359.997 265.232l4.25-1.736m-3.928 3.268l4.2-1.813m-3.863 3.434l4.2-1.98m-3.392 3.523l3.785-1.955m-2.516 3.385l2.948-1.676m-.822 2.7l1.29-.716"/><path stroke="none" d="M369.137 259.592c-2.228-3.283-7.832-1.437-9.277.644-.103.15-.473-.075-.68-.16-.03-.01-.054-.023-.078-.037.388-.646.872-1.298 1.425-1.885 2.714-1.734 7.436-2.083 9.337.982.147.24.04.478-.135.586-.177.108-.437.1-.593-.13z"/></g><use xlink:href="#a" x="35.338" y="-5.423"/><use xlink:href="#a" x="70.673"/><g stroke="#000"><path d="M446.26 240.532c3.263 2.153 14.81 8.644 16.518 45.635 3.33 72.097-58.017 114.162-58.017 114.162s77.623-33.05 77.623-114.227c0-34.173-13.567-71.19-40.476-71.19l-14.79.046-21.486 10.05c-1.124-1.57-3.27-2.592-5.35-2.592-2.075 0-4.224 1.022-5.35 2.592l-21.483-10.05-15.255-.048c-26.91 0-40.478 37.018-40.478 71.19 0 81.177 77.62 114.227 77.62 114.227s-61.346-42.067-58.015-114.163c1.708-36.99 13.254-43.482 16.518-45.635l18.13 6.048 22.915-13.412c1.495 1.6 3.04 2.735 5.4 2.733 2.36 0 3.682-.928 5.397-2.732l22.76 13.567z"/><path fill="#d99f31" d="M431.453 214.144l-31.172 13.544-31.17-13.544-10.92.768c-26.91 0-40.476 37.018-40.476 71.19 0 81.176 77.62 114.227 77.62 114.227s-62.12-42.067-58.792-114.163c1.71-36.99 13.567-44.412 16.83-46.565l19.976 5.56 26.933-15.922 26.933 15.92 19.51-5.558c3.265 2.153 15.123 9.574 16.832 46.565 3.33 72.097-58.794 114.162-58.794 114.162s77.623-33.052 77.623-114.227c0-34.173-13.567-71.19-40.476-71.19z"/><path d="M437.336 228.91c-3.716.44-6.318 2.93-6.45 6.736-.072 2.04.9 5.067 2.302 6.348l-.837.915c-1.654-1.515-2.867-4.888-2.78-7.312.148-4.266 3.145-7.24 7.615-7.763zm-74.51-1.075c4.47.523 7.467 3.497 7.616 7.763.085 2.424-1.128 5.797-2.782 7.31l-.837-.914c1.4-1.28 2.373-4.31 2.302-6.348-.133-3.805-2.734-6.297-6.45-6.735zm-8.735 7.447c-5.397 3.486-10.29 10.097-13.033 16.925-.152.358-.385.464-.62.378-.213-.076-.302-.382-.205-.683 2.586-7.178 7.435-13.664 13.534-18.186l.325 1.566zm7.2-12.852c-13.213 0-23.02 9.304-29.638 26.468-.152.32-.455.565-.784.45-.26-.095-.29-.467-.172-.803 6.622-17.49 16.726-27.2 30.595-27.2 6.038 0 11.228 1.487 15.67 4.752l.244 1.61c-4.46-3.628-9.737-5.277-15.913-5.277zm0 3.564c-11.53 0-20.517 9.72-26.18 24.018-.163.343-.396.524-.712.395-.245-.1-.27-.467-.147-.77 5.38-14.462 14.816-24.727 27.04-24.727 6.133 0 11.388 1.942 15.812 6.198l-.207 1.38c-4.334-4.454-9.53-6.494-15.604-6.494zm13.22 12.59c-2.3-6.87-6.056-9.513-13.378-9.513-9.654 0-17.603 8.773-22.856 22.04-.128.302-.353.48-.64.383-.25-.085-.29-.428-.178-.737 5.114-13.48 13.317-23.08 23.674-23.08 7.686 0 11.79 3.16 14.015 9.848l-.637 1.06zm51.047.094l-.67-.957c2.2-6.8 6.29-10.02 14.002-10.045 12.426.058 21.966 14.06 26.927 32.333.1.36.033.748-.29.812-.314.06-.566-.18-.657-.52-4.973-18.034-14.437-31.17-25.904-31.23-7.38.022-11.117 2.69-13.41 9.608zm43.388 21.765c.104.41.066.758-.297.847-.294.075-.562-.148-.66-.585-4.77-20.384-14.975-34.364-29.18-34.364-6.11 0-11.324 1.523-15.64 5.965l-.198-1.43c4.428-4.272 9.694-5.694 15.838-5.694 15.123 0 25.642 14.936 30.137 35.263zm3.827.535c.075.386-.055.75-.387.803-.317.053-.574-.22-.65-.59-4.692-22.306-15.787-38.724-33.15-38.724-6.104 0-11.328 2.098-15.725 5.755l.166-1.606c4.422-3.405 9.577-5.31 15.56-5.31 18.292 0 29.686 17.305 34.183 39.67zm-31.65-28.224c9.51 1.162 18.057 12.304 21.672 26.985.085.373-.002.743-.32.828-.31.085-.583-.115-.716-.594-4.113-15.828-12.263-24.675-20.76-25.757l.123-1.463z" stroke="none"/><path fill="none" d="M419.35 240.512c-.73-.866-2.928-3.99-2.928-10.27m-.294 8.365c-.684-.916-2.325-3.61-2.325-8.365m-.86 6.482c-.582-.892-1.76-3.114-1.76-6.482m-1.35 4.644c-.4-.797-1.117-2.524-1.117-4.644m-27.504 10.27c.732-.866 2.93-3.99 2.93-10.27m.293 8.365c.684-.916 2.325-3.61 2.325-8.365m.865 6.48c.58-.894 1.755-3.115 1.755-6.48m1.35 4.645c.4-.798 1.117-2.525 1.117-4.645"/><circle fill="#d99f31" cx="400.282" cy="229.24" r="6.199" stroke="none"/><path fill="none" d="M394.135 227.78c.66-2.804 3.14-4.89 6.146-4.89 2.628 0 4.88 1.594 5.848 3.867m.33 4.062c-.702 2.742-3.214 4.768-6.177 4.768-2.702 0-5.01-1.69-5.927-4.07m7.562 1.627c-.502.21-1.055.328-1.634.328-2.28 0-4.143-1.81-4.23-4.072m7.875 1.996c-.463.778-1.167 1.398-2.01 1.75m-1.192-1.9c-.14.03-.29.048-.442.048-1.062 0-1.938-.81-2.044-1.845m-2.112-1.243c.125-.554.368-.89.47-1.044"/><path fill="none" d="M394.135 227.78c0-2.918 2.558-5.36 6.146-5.36 2.74 0 5.848 1.925 5.848 4.337m.33 4.062c0 2.694-3.214 5.078-6.177 5.078-2.702 0-5.927-1.965-5.927-4.38"/><path d="M423.345 242.22c3.266 4.33 8.31 7.07 13.965 7.07 7.398 0 13.03-4.596 13.03-11.944-.168-3.893-2.797-8.702-9.016-8.702-4.04 0-7.47 3.896-7.47 7.936 0 2.234.428 3.584 1.8 5.264-5.536-1.78-9.2-4.73-9.2-11.01 0-6.442 4.272-11.056 11.27-11.637 23.385-1.943 37.675 24.015 40.428 59.894 3.924 51.178-23.678 91.975-65.637 115.272-5.857 3.25-10.45 5.85-12.44 6.692l-.026 6.366c15.974-6.107 34.495-17.892 46.045-28.442 21.993-20.09 42.974-54.078 39.79-99.852-2.01-28.906-11.012-48.293-22.062-57.87-18.892-16.38-44.65-9.84-44.65 9.577 0 4.24 1.666 8.225 4.172 11.387zm-46.592 0c-3.266 4.33-8.31 7.07-13.967 7.07-7.396 0-13.028-4.596-13.028-11.944.17-3.893 2.797-8.702 9.016-8.702 4.04 0 7.47 3.896 7.47 7.936 0 2.234-.427 3.584-1.8 5.264 5.535-1.78 9.2-4.73 9.2-11.01 0-6.442-4.272-11.056-11.27-11.637-23.385-1.943-37.674 24.015-40.428 59.894-3.924 51.178 23.678 91.975 65.637 115.272 5.857 3.25 10.45 5.85 12.44 6.692l.026 6.366c-15.976-6.107-34.497-17.892-46.047-28.442-21.993-20.09-42.974-54.078-39.79-99.852 2.01-28.906 11.012-48.293 22.062-57.87 18.892-16.38 44.65-9.84 44.65 9.577 0 4.24-1.665 8.225-4.172 11.387z"/><path fill="#f1bf31" d="M400.048 406.956c-15.975-6.107-34.496-18.669-46.047-29.218-21.99-20.09-41.577-53.303-38.394-99.078 2.012-28.905 10.55-47.207 21.598-56.785 18.893-16.378 43.258-8.922 43.258 8.96 0 9.84-7.986 17.837-17.83 17.837-5.962 0-12.256-4.836-11.633-12.1.167-3.892 3.375-6.996 7.308-6.996 4.04 0 7.316 3.274 7.316 7.317 0 2.232-1.463 4.385-3.04 5.73 6.224-.224 11.678-5.508 11.678-11.79 0-6.44-4.89-11.828-11.89-12.41-23.384-1.942-38.496 24.633-41.046 60.67-3.624 51.204 24.297 92.595 66.256 115.89 5.883 3.265 10.493 5.254 12.466 6.083 1.974-.83 6.582-2.818 12.466-6.084 41.96-23.294 69.88-64.685 66.255-115.89-2.55-36.036-17.662-62.61-41.047-60.668-6.998.58-11.887 5.97-11.887 12.41 0 6.28 5.452 11.566 11.677 11.788-1.576-1.344-3.042-3.497-3.042-5.73 0-4.042 3.277-7.316 7.318-7.316 3.932 0 7.143 3.104 7.31 6.995.623 7.266-5.672 12.102-11.633 12.102-9.845 0-17.83-7.998-17.83-17.838 0-17.88 24.365-25.337 43.257-8.96 11.05 9.58 19.588 27.882 21.597 56.786 3.183 45.775-16.404 78.987-38.396 99.078-11.55 10.55-30.07 23.11-46.046 29.218z"/></g></g><g stroke="#000" stroke-width=".933" stroke-linejoin="round" stroke-linecap="round"><path d="M302.443 357.768s-3.285-1.326-4.74-2.053c-2.524-1.263-8.214-8.266-14.572-11.955-9.758-5.663-19.203-4.203-27.832-7.91 1.933 9.037 8.02 17.2 18.1 21.522 8.282 3.552 21.643.498 23.096.62 1.454.122 6.07 1.903 6.07 1.903l-.12-2.127zM267.223 369.044l.087-.264c5.338-.726 10.34-1.936 15.53-3.253 11.506-2.915 16.896-.548 26.22 5.833.582.4 1.274.956 1.942 1.208 1.512.57 2.482.172 3.94.172l.135.027 2.185 1.71c.167.13.067.243-.09.277-1.905.392-4.505.386-6.497.206-3.007-.274-9.195 6.85-18.002 6.85-11.16 0-18.494-4.938-25.45-12.766z"/><path fill="#658d5c" d="M316.303 374.316c-1.742.062-3.6.062-5.318.35-5.132.865-10.214 6.456-18.018 6.68-10.386.3-16.943-4.592-24.042-11.573 10.328-1.553 18.31-7.516 28.967-4.163 5.463 1.72 11.885 8.6 17.014 7.614l1.397 1.092z"/><path stroke-width=".45" d="M309.878 372.946s-9.11 1.497-14.785 1.512c-9.165.02-23.193-3.8-23.193-3.8s13.986 4.232 23.193 4.418c5.662.115 14.785-1.2 14.785-1.2v-.93z"/><path fill="none" stroke-width=".777" d="M284.538 262.675c.075-.287.02-.634-.16-1.063-.183-.445-.465-.918-.764-1.42-.31-.526-.642-1.078-.903-1.653-.263-.586-.466-1.214-.508-1.868l1.417-.405c.1.794.578 1.813 1.118 2.614.268.4.54.728.77.936.116.105.21.17.27.196.034.017.428.447.428.447l-1.172 2.615c-.087.196-.603.013-.496-.4z"/><path stroke-width=".777" d="M338.065 388.946c-.046-1.9.33-1.192 2.377-.357.436.175.115.603-.26.836-1.222.764-2.302 2.383-2.82 2.02-1.41-.985-.522-1.02.703-2.5z"/><path d="M289.158 254.936c-6.025 15.32-8.06 42.444-5.975 54.76 6.407 37.868 37.596 73.37 66.145 79.106 24.83 4.99 39.967 16.117 49.852 27.983 6.46 7.755 9.91 11.276 19.188 26.72 3.39 5.644-2.41 6.785-4.8 2.106-6.53-12.765-10.046-18.438-19.04-28.472-9.66-10.777-23.868-20.452-47.058-25.08-27.655-5.52-60.05-41.084-66.457-78.95-2.085-12.32-.26-41.73 6.063-57.275l2.082-.897"/><path d="M330.29 387.334c-4.302.472-7.21 6.718-11.528 10.648-7.948 7.234-20.684 7.956-28.805 3.125-.34-.204-.513-.657-.128-.745 10.095-2.29 11.412-16.07 32.46-14.713 2.466.158 3.51.663 5.985.663l2.015 1.02zM314.307 323.27l.14.067c.106 6.155 4.773 14.55 5.917 21.318.987 5.83-.436 10.703-2.67 16.135-.56 1.353-1.87 4.074-1.92 5.407-.048 1.24.73 2.39 1.388 3.417.23.362 1.624 2.19 1.48 2.545-5.576-4.83-2.296-1.682-4.617-6.134-1.196-2.296-2.622-4.38-3.808-6.693-6.26-12.212-6.376-26.064 4.09-36.064zM354.556 389.97c-2.74-.885-5.528-1.976-7.03-4.78-2.526-4.705-1.985-8.508-4.575-13.377-4.91-9.237-14.37-10.232-19.142-18.795-.968 7.88-2.025 19.652 10.242 28.072 4.32 2.963 10.905 3.644 12.492 4.834 1.588 1.19 2.543 2.89 2.543 2.89l5.47 1.156z"/><path fill="#658d5c" d="M349.244 388.53c-.9-.96-1.912-1.925-2.982-2.7-2.503-1.81-7.924-1.98-12.017-4.98-5.716-4.192-8.68-8.09-10.267-14.997-.964-4.19-.223-7.54-.026-11.023 5.15 7.478 14.095 8.182 18.88 17.13 2.91 5.435 2.523 13.703 8.484 17.008l-2.072-.438z"/><path stroke-width=".777" d="M300.355 347.397s-.34.41-.82 1.778c-.214.614 1.133 2.464 1.023 1.822-.274-1.57.5-2.674.5-2.674l-.703-.926z"/><path fill="#658d5c" d="M302.443 357.768s-3.285-.707-4.74-1.432c-2.524-1.264-8.113-8.596-14.572-12.265-9.26-5.258-17.326-4.16-26.437-6.824 2.585 9.723 7.527 15.54 16.706 19.66 8.22 3.69 21.64.5 23.094.62 1.454.122 6.07 2.06 6.07 2.06l-.12-1.818z"/><path fill="#466343" d="M315.478 368.908c-.406-2.893-3.694-7.056-5.07-9.748-2.016-3.948-3.53-8.256-3.98-12.683-.972-9.536 1.216-14.682 7.493-21.75.047 2.073.325 2.8.95 4.726 2.627 8.092 6.304 14.78 5.112 23.577-.587 4.332-4.124 10.498-4.285 13.145-.083 1.37.69 2.98 1.374 4.134l-1.592-1.402z"/><path d="M291.92 343.116c-6.735-11.197-22.533-6.18-32.886-15.58-5.025-4.564-7.27-11.432-8.272-17.965-.3-1.944-1.13-9.656-.677-11.153.083-.278.363-.345.58-.133 3.432 3.356 6.872 5.523 10.846 8.214 9.44 6.39 13.315 12.385 18.18 22.348 6.37 13.045 12.144 5.61 12.23 14.27z"/><path stroke-width=".45" d="M312.93 328.102s-2.138 11.202-1.815 18.407c.333 7.36 3.597 18.55 3.597 18.55h-.622s-3.383-11.184-3.593-18.55c-.208-7.24 2.433-18.408 2.433-18.408z"/><path fill="#658d5c" d="M281.964 336.012c-3.63-1.15-7.786-1.85-12.202-2.914-4.14-.997-7.52-3.258-10.677-6.102-4.9-4.42-6.52-10.343-7.475-16.698-.535-3.563-.68-7.016-.442-10.622.395.695.895 1.382 1.548 1.85 3.215 2.304 6.564 3.91 9.784 6.237 2.814 2.032 4.81 3.374 7.12 5.973 2.915 3.29 5.35 6.848 7.402 10.733 1.618 3.065 3.005 6.66 5.096 9.442z"/><path fill="#a48253" d="M282.118 333.91c1.084 1.446 5.457 3.323 7.047 3.527l1.547 3.858c-2.272-2.66-5.267-4.18-8.748-5.284z"/><circle fill="#d99f31" cx="271.96" cy="304.79" r="4.417"/><path fill="#f1bf31" d="M272.47 300.875c-.225.524-.36 1.13-.36 1.78 0 1.95 1.15 3.533 2.562 3.533.392 0 .762-.127 1.094-.344.092-.334.14-.683.14-1.047 0-2.013-1.494-3.67-3.437-3.922z" stroke="none"/><circle fill="none" stroke-width="1.244" cx="271.96" cy="304.79" r="4.719"/><path d="M285.013 302.83s2.062-7.676 4.003-12.426c4.59-11.246 12.55-11.67 16.608-20.575 2.323 6.012 4.178 13.742.12 22.413-4.683 10.016-16.67 15.894-16.67 15.894l-4.06-5.307z"/><path fill="#466343" d="M305.587 271.848c5.982 16.33-1.916 28.088-16.42 36.197l-3.82-5.28c2.493-10.488 4.283-15.652 12.296-23.104 3.168-2.945 5.944-3.902 7.944-7.812z"/><path fill="#a48253" d="M288.712 255.666c-5.97 15.695-7.736 41.94-5.68 54.084 6.424 37.957 37.527 73.59 66.234 79.357 24.756 4.975 39.556 16.124 49.75 27.646 4.76 5.384 8.603 10.64 11.765 15.59 2.72 4.26 5.05 8.907 7.338 12.584.37.593-2.72 1.87-3.046 1.343-2.42-3.91-4.642-8.84-7.428-13.356-3.17-5.138-8.617-10.393-13.353-15.984-10.078-11.9-23.5-20.843-46.76-25.485-27.503-5.49-59.512-40.62-65.902-78.39-2.076-12.27-.546-40.75 4.92-55.784l2.164-1.604z"/><path d="M285.72 329.932c-1.235-1.182-3.01-2.31-4.195-3.54-11.027-11.445-8.13-31.438 3.963-41.203.412-.33.723-.175.78.31.487 4.03 1.113 7.82 2.73 12.257 3.69 10.134 4.29 15.947.938 24.575-2.046 5.26.006 9.898.006 9.898l-4.223-2.298z"/><path stroke-width=".623" d="M324.604 379.212c-7.055-2.412-14.343-1.765-20.21-7.855-6.772-7.024-8.237-17.89-6.468-24.164.087-.305.324-.555.514-.32 1.504 1.842 2.3 3.167 4.278 4.624 7.067 5.214 15.744 7.826 18.74 15.79.598 1.585.796 3.246 1.354 4.843 1.908 5.47 5.04 7.124 9.574 10.11l-7.782-3.028z"/><path fill="#658d5c" d="M330.117 382.116c-6.6-5.598-18.497-3.588-25.58-11.18-5.202-5.576-7.395-14.367-6.105-21.99 6.287 5.6 13.597 7.14 19.316 13.428 6.73 7.405 1 12.373 13.668 19.578l-1.3.164z"/><path d="M294.865 341.944l.02-.172c1.64-1.954.5-7.823-.037-10.176-.927-4.056-1.042-7.542-.367-11.67.78-4.77 3.392-9.077 6.07-13.025 1.192-1.758 5.07-7.257 5.47-9.248.034-.17.215-.158.29.006 1.478 3.223 2.25 7.148 2.847 10.632.833 4.88 1.094 9.313-.6 14.862-1.516 4.966-3.553 8.18-6.674 11.52-1.32 1.413-4.427 4.525-4.88 6.207-.084.306-.61 2.545-.495 4.183l-1.643-3.12z"/><path stroke-width=".948" d="M283.94 277.75s.21.03 1.093-.562c.884-.592 1.956-1.61 2.41-2.884.455-1.27 3.643-11.862 7.9-18.417 4.972-7.66 10.136-11.094 16.398-16.715.985 6.07 1.128 15.96-4.002 23.9-4.7 7.266-16.613 12.442-17.993 12.982-1.382.54-3.75.94-5.11 2.745-.77 1.018-1.298 3.005-1.298 3.005l.602-4.055z"/><path d="M282.442 278.762s-.517-.025-1.186-.967c-.666-.946-1.336-2.403-1.336-3.9 0-3.166 3.002-12.642 1.513-19.816-2.843-13.693-7.145-19.182-7.807-24.263-.264-2.027-11.445 13.83-8.045 28.545 1.686 7.293 10.162 15.444 11.352 16.515 1.19 1.072 2.813 2.46 3.59 4.6.8 2.21.63 4.72.63 4.72l1.29-5.435zM289.004 255.212c.804-1.96 2.132-4.283 3.362-5.31 3.022-2.526 11.49-8.815 14.382-13.4 6.44-10.207 5.14-22.78 4.467-24.968-5.583 4.854-10.68 8.056-16.37 16.092-4.97 7.014-6.055 20.73-6.437 23.33-.42 2.838-1.68 5.905-1.68 5.905l2.276-1.648z"/><path fill="#658d5c" stroke-width=".948" d="M283.998 279.97l.224-1.972c1.532-.586 2.895-2.112 3.514-3.59 2.668-6.385 4.293-12.876 8.04-18.772 4.866-7.654 10.077-10.63 15.337-14.835.245 6.765 1.436 13.89-3.95 22.755-3.06 5.033-11.98 10.02-17.532 12.21-2.482.98-4.26 1.777-5.632 4.205z"/><path d="M261.115 266.482c8.51 7.088 10.938 10.403 13.442 21.368.293 1.284 1.922 6.834 2.268 7.518.82 1.632 2.516 2.404 3.56 3.743.114.15.397 3.037.44 3.417.027.23-.15.224-.28.106-1.324-1.21-2.02-3.106-3.565-4.24-1.33-.976-5.818-1.933-7.755-2.732-4.946-2.04-8.98-5.86-11.845-10.33-3.78-5.904-4.21-13.94-3.3-20.707.21-1.553.42-3.423.97-4.895.077-.203.197-.156.3.006 2.017 3.14 3.312 4.705 5.765 6.748z"/><path fill="#658d5c" d="M279.992 299.39l.235 2.005c-4.04-5.467-5.392-3.85-10.978-6.165-4.863-2.01-8.81-5.763-11.636-10.157-4.22-6.56-4.14-16.27-2.36-23.668 2.266 4.466 11.13 8.945 14.53 14.52 2.19 3.585 3.547 7.846 4.633 11.885.542 2.02 1.155 6.09 1.99 7.76.622 1.25 2.508 2.917 3.585 3.82zM295.366 342.052c1.508-2.302.187-8.137-.295-10.778-.742-4.086-.796-7.615-.13-11.74 1.09-6.74 5.355-11.257 9.124-16.72.743-1.078 1.484-2.168 2.068-3.343 4.33 12.193 5.546 24.647-3.893 34.887-1.426 1.545-4.85 4.525-5.377 6.402-.282 1.004-.38 2.07-.46 3.11l-1.037-1.818z"/><path fill="#a48253" d="M331.315 385.465s-.534.85-3.04.85l1.243 1.218c.25-.078.507-.145.77-.2 2.397-.493 3.135-.42 4.694.184"/><path fill="#466343" d="M328.275 386.314c-2.506 0-10.344-1.302-16.615.337-9.455 2.47-13.358 11.316-20.466 14.46 10.797 4.65 18.7 3.505 27.684-3.68 3.62-2.896 5.922-8.42 10.64-9.897z"/><path fill="none" d="M405.404 431s.1-1.377 1.69-1.93c1.372-.477 2.082.615 2.082.615"/><path fill="#a48253" stroke-width=".777" d="M340.475 388.878s-.85.495-1.1.72c-.58.518-1.342.9-1.578 1.324l-.923-.086c.574-.477 1.18-1.293 1.506-1.69.19-.23.004-1.107.004-1.107l2.09.838z"/><path fill="#658d5c" d="M287.558 255.574c1.697-4.804 1.658-10.15 2.608-15.138 2.002-10.517 4.99-13.936 12.587-20.97 2.42-2.24 4.9-3.87 7.532-5.86.427 3.025.625 5.564.318 8.602-1.495 14.86-7.824 18.367-18.435 27.455-2.058 1.76-2.59 4.227-4.61 5.91z" stroke="none"/><path fill="#a48253" d="M287.96 254.318c.278-.405.544-.638.687-.57.115.054.13.288.062.617-.334.43-.707.84-1.152 1.21.147-.415.28-.834.403-1.257z" stroke="none"/><path fill="none" d="M287.558 255.574c1.697-4.804 1.658-10.15 2.608-15.138 2.002-10.517 4.99-13.936 12.587-20.97 2.42-2.24 4.9-3.87 7.532-5.86.427 3.025.625 5.564.318 8.602-1.495 14.86-7.824 18.367-18.435 27.455-2.058 1.76-2.59 4.227-4.61 5.91z"/><path d="M288.224 256.116s.382-1.165.957-2.652c.576-1.486.43.4.43.4l-.34 1.62-1.046.632z" stroke="none"/><path fill="#658d5c" d="M282.056 278.96l-.777 2.493c-.436-3.244-1.803-4.69-4.14-6.806-10.18-9.21-14.53-20.05-10.26-32.725 1.495-4.43 2.935-6.874 6.084-10.33 1.99 3.408 2.953 5.447 4.33 9.145 3.494 9.385 4.887 14.69 3.502 25.44-.49 3.797-2.31 8.42.21 11.797.275.367.61.797 1.05.986z" stroke="none"/><path fill="none" d="M282.056 278.96l-.777 2.493c-.436-3.244-1.803-4.69-4.14-6.806-10.18-9.21-14.53-20.05-10.26-32.725 1.495-4.43 2.935-6.874 6.084-10.33 1.99 3.408 2.953 5.447 4.33 9.145 3.494 9.385 4.887 14.69 3.502 25.44-.49 3.797-2.31 8.42.21 11.797.275.367.61.797 1.05.986z"/><path fill="#a48253" d="M281.765 284.47s.246-2.463-.136-3.962c-.19-.746-.685-1.846-.685-1.846s1.225.623 1.506.568c.28-.052-.685 5.24-.685 5.24zM285.922 260.33c-.587.24-2.392-2.303-2.61-4.025-.21-1.636-.88-.953-.8.347.147 2.417 3.037 5.006 2.636 6.543.544-1.32.8-2.276.774-2.864z" stroke="none"/><path fill="none" stroke-width=".777" d="M285.922 260.33c-.587.24-2.392-2.303-2.61-4.025-.21-1.636-.88-.953-.8.347.147 2.417 2.727 4.566 2.327 6.1"/><circle fill="#d99f31" cx="281.443" cy="253.512" r="4.416" stroke="none"/><path fill="#f1bf31" d="M281.706 253.088c-1.196-.84-1.72-2.155-1.17-2.942.55-.785 1.965-.743 3.163.096 1.197.838 1.72 2.154 1.17 2.94s-1.966.743-3.164-.094z" stroke="none"/><circle fill="none" stroke-width="1.315" cx="281.402" cy="253.639" r="4.607"/><circle fill="#d99f31" cx="303.963" cy="344.419" r="4.572" stroke="none"/><path fill="#f1bf31" d="M303.43 343.97c-.976-1.343-1.01-2.982-.074-3.658.934-.68 2.48-.142 3.457 1.202.973 1.342 1.008 2.98.074 3.66-.934.678-2.48.14-3.457-1.204z" stroke="none"/><circle fill="none" stroke-width="1.4" cx="303.963" cy="344.419" r="4.805"/><path fill="none" d="M406.8 432.55s.05-1.39 1.69-1.777c1.495-.35 2.082.926 2.082.926m7.23 15.613c-2.99.617-4.817-3.133-3.79-4.055.67-.602 2.322-.473 3.535.118 2.168 1.057 1.586 3.663.254 3.937z"/><path fill="#a48253" d="M417.8 447.313c-2.482.63-4.432-2.7-3.788-3.436.593-.677 1.85-.712 3.062-.123 2.168 1.06 2.043 3.225.725 3.56z" stroke="none"/><path fill="none" d="M417.8 447.313c-2.482.63-4.432-2.7-3.788-3.436.593-.677 1.85-.712 3.062-.123 2.168 1.06 2.043 3.225.725 3.56z"/><path stroke-width=".45" d="M287.438 256.177c3.143-9.16 4.896-15.598 10.1-24.544 3.54-6.084 10.484-14.695 10.484-14.695s-6.538 8.835-9.93 14.96c-4.795 8.66-5.87 12.388-9.697 23.458l-.957.82zM272.55 235.82s-1.15 14.388.66 23.295c1.625 8.002 7.272 19.632 7.272 19.632s.316.234-1.318-4.076c-1.68-4.426-3.82-9.322-5.18-15.58-1.93-8.884-1.435-23.27-1.435-23.27zM259.1 273.2s1.903 4.98 3.535 7.956c4.48 8.172 8.326 12.447 15.973 17.773l.224-.688c-7.373-5.235-10.84-9.414-15.58-17.086-1.836-2.978-4.153-7.955-4.153-7.955zM286.48 276.543s9.157-8.454 13.84-15.066c4.137-5.846 9.102-16.21 9.102-16.21s-4.534 10.492-8.55 16.374c-4.51 6.605-13.15 14.903-13.15 14.903h-1.24zM295.454 342.794c1.742-4.196 4.362-9.975 6.318-16.632 2.455-8.352 3.912-12.423 4.193-21.928-.142 9.49-1.153 12.772-3.163 20.678-1.71 6.73-4.053 12.637-5.795 16.83l-1.553 1.052zM290.24 300.668s6.897-6.03 9.98-11.43c4.06-7.116 4.743-12.828 4.743-12.828s-.066 5.744-4.126 12.86c-3.08 5.4-10.323 12.287-10.323 12.287l-.274-.89zM282.38 334.885s-5.95-3.77-9.213-6.52c-12.657-10.66-20.586-25.03-20.586-25.03s7.247 15.172 20.122 25.652c3.422 2.784 9.678 6.673 9.678 6.673v-.775z"/><path fill="none" d="M283.2 336.413s-1.14-.487-.545-1.572"/><path stroke-width=".45" d="M328.64 379.995c-5.585-3.51-13.444-8.74-20.527-16.016-2.425-2.494-5.915-6.67-5.915-6.67s2.832 4.42 5.14 6.824c6.315 6.572 14.988 12.738 20.573 16.25l.73-.39zM347.968 386.704s-10.506-7.537-15.232-14.114c-2.57-3.576-3.82-5.785-5.558-9.832 2.088 4.055 3.505 6.254 6.335 9.832 4.732 5.985 14.455 13.184 14.455 13.184v.93zM295.95 400.21c15.448-2.147 21.456-11.173 34.614-13.222-1.387.072-1.133-.472-2.394-.206-11.602 2.448-18.697 11.225-32.22 13.428z"/><circle fill="#d99f31" cx="314.799" cy="382.209" r="4.572" stroke="none"/><path fill="#f1bf31" d="M319.287 381.34c-.04.148-.1.292-.178.428-.672 1.16-2.507 1.353-4.1.434-1.594-.92-2.344-2.606-1.673-3.767.19-.33.477-.583.825-.753.21-.03.42-.044.637-.044 2.226 0 4.08 1.594 4.487 3.702z" stroke="none"/><circle fill="none" stroke-width="1.399" cx="314.799" cy="382.209" r="4.805"/><path fill="#a48253" d="M330.798 384.33s.43.244.693.543c.267.3.365.656.182.884 0 0 .106.262.448.51.46.335 1.063.31 1.73.413.85.137 1.445.253 2.047.43.605.176 1.362.49 1.362.49l-3.427-1.707-3.035-1.562z" stroke="none"/><path stroke-width=".45" d="M297.758 357.55s-8.527-2.237-19.42-6.302c-10.897-4.068-18.238-10.872-18.238-10.872s7.342 6.183 18.237 10.25c10.894 4.068 19.42 5.993 19.42 5.993v.93z"/><circle fill="#d99f31" stroke-width="1.244" cx="334.687" cy="394.974" r="4.882"/><path fill="#f1bf31" d="M338.153 397.954c-1.46.554-3.392-.396-4.476-2.276-1.17-2.027-.915-4.367.572-5.227l.063-.034c.123-.01.247-.015.372-.015 2.524 0 4.572 2.048 4.572 4.575 0 1.138-.416 2.178-1.104 2.98z" stroke="none"/><circle fill="none" cx="334.683" cy="394.974" r="4.572"/><path fill="#a48253" d="M289.595 332.55s.52 1.59.924 2.577c.3.733.835 1.852.835 1.852s-1.118.238-1.118.113c0-.125-.872-4.524-.872-4.524l.23-.02z" stroke="none"/><path fill="#658d5c" d="M289.006 333.474c-1.65-2.53-5.162-5.342-7.147-7.404-3.414-3.544-5.533-7.606-6.31-12.49-1.84-11.548 1.52-19.313 9.945-27.118.532 8.1 5.163 14.815 6.144 22.904 1.404 11.602-5.98 13.79-.85 25.144l-1.784-1.036z" stroke="none"/><path fill="#a48253" d="M287.887 331.17s.1.5.237 1.12c.33.4.627.795.88 1.183l1.463.85-.78-2.667-1.8-.486z" stroke="none"/><path fill="none" d="M289.006 333.474c-1.65-2.53-5.162-5.342-7.147-7.404-3.414-3.544-5.533-7.606-6.31-12.49-1.84-11.548 1.52-19.313 9.945-27.118.532 8.1 5.163 14.815 6.144 22.904 1.404 11.602-5.98 13.79-.85 25.144"/><path stroke-width=".45" d="M288.996 331.076c-3.356-5.047-4.012-7.514-5.43-12.716-2.668-9.77-2.685-21.632-.174-25.966-2.51 4.334-3.027 16.137-.6 25.975 1.366 5.543 2.453 8.435 5.564 13.54l.64-.834z"/><path fill="none" d="M288.588 332.886c-.82-.957.23-2.53 1.17-1.142"/></g><g stroke="#000" stroke-width=".933" stroke-linejoin="round" stroke-linecap="round"><path stroke-width=".777" d="M514.668 257.68c-.013-.044.013-.23.04-.268 0 0 .296-.434.6-1.146.306-.724.613-1.72.63-2.834l1.66.34c-1.383 4.94-1.44 6.69-1.44 6.69-.012.416-.483.48-.606.083l-.884-2.865z"/><path d="M519.124 275.312c1.323-.868 1.768-3.11 1.85-4.56.148-2.605-2.022-4.91-2.134-7.322-.07-1.548 1.266-1.707 1.52-2.914.224-1.077-3.962-4.856-2.832-7.833.808-2.13 2.504-1.082 3.152-3.308.682-2.357-1.435-5.725 1.287-7.31 1.322-.77 3.264.352 3.84-1.712.585-2.1.12-6.27 3.143-6.565 4.01-.393 4.63 7.82 5.37 8.396.765.6 1.79-.5 2.883-.066 2.946 1.173-.208 6.61-1.22 8.422 7.472.305.638 4.952-.51 7.018.318.754 2.23 1.034 2.544 2.182.205.756-.362 1.42-.885 1.883-1.673 1.478-4.17 2.033-5.988 3.23l-.25.178c-.06.683 1.832 2.683-.72 3.53-4.765 1.587-7.798 2.626-9.636 7.44-.494 1.29-.666 5.255-.758 4.848l-.656-5.536z"/><path fill="#658d5c" d="M519.848 279.074l-.828-3.638c.224-.12.415-.302.598-.476.97-.932 1.432-3.51 1.507-4.802.162-2.81-1.877-4.42-1.98-6.757-.05-1.21 1.295-1.645 1.513-2.793.276-1.462-3.756-4.996-2.7-7.76.72-1.872 2.46-.905 3.165-3.344.612-2.126-1.225-5.918 1.073-7.19 1.388-.767 3.384.465 4.055-1.994.51-1.86.118-5.032 2.744-5.295 3.572-.358 4.107 6.814 5.036 7.526 1.03.79 1.847-.234 2.838.153 1.493.583 1.125 2.643.79 3.83-.39 1.38-1.063 2.52-1.634 3.802-.11.256-.114.496.188.61.938.356 1.74.206 2.065 1.437.443 1.672-2.126 3.5-2.694 4.824-.443 1.032 1.29 1.293 1.517 2.66.322 1.928-6.152 4.09-6.648 4.995-.058 1.266 1.622 2.574-.42 3.257-5.126 1.717-10.244 4.946-10.184 10.957z"/><path stroke-width=".45" d="M519.398 275.86s6.528-11.623 8.415-19.874c1.304-5.712 1.88-14.958 1.88-14.958s-.283 9.213-1.414 14.94c-1.725 8.705-8.47 20.986-8.47 20.986l-.412-1.094z"/><path stroke-width=".777" d="M519.608 286.898c-.008-.048.048-.23.08-.266 0 0 1.276-1.34 2.034-2.198.295-.333.48-.736.59-1.063.105-.317.138-.55.138-.55.03-.205.208-.317.405-.25l2.17.716c.297.097.336.367.08.548-.013.008-1.667 1.18-2.264 1.894-1.32 1.573-1.666 2.17-2.198 3.793-.125.376-.536.347-.6-.045l-.434-2.577z"/><path fill="#a48253" stroke-width=".777" d="M520.348 289.424c.546-1.67.915-2.3 2.255-3.896.63-.752 2.325-1.95 2.325-1.95l-2.17-.716s-.14 1.026-.803 1.778c-.76.86-2.04 2.207-2.04 2.207l.433 2.577z"/><path d="M511.694 247.35s2.726 5.434 5.072 13.79c4.838 17.25 5.465 39.648 3.38 51.967-6.407 37.868-40.662 73.276-68.314 78.796-23.193 4.628-36.874 14.514-46.595 25.236-7.558 8.734-10.48 13.942-17.333 27.905-2.11 4.298-9.016 5.14-6.046-.91 5.373-9.49 10.477-18.257 18.348-27.588 10.234-11.565 24.937-22.91 49.765-27.9 28.55-5.736 61.443-41.083 67.85-78.95 2.085-12.318 1.443-39.168-5.518-56.442l-.608-5.905"/><path stroke-width=".846" d="M497.255 240.334s-8.048-.305-4.178-6.4c-3.683-1.812-8.124-5.095-3.372-7.804-.213-.924-3.022-1.81-2.81-3.99.122-1.25 1.706-1.823 1.843-2.36-.523-.988-4.196-5.703-2.923-7.11 1.953-2.16 6.175.44 8.097 1.6.478-.293 1.186-.888 1.662-1.204 2.805-1.86 2.99 2.637 3.76 4.073.352.658 2.566-1.125 4.06-.335 2.586 1.367 1.444 4.703 2.094 6.956.647-.07 1.578-.597 2.226-.64 4.19-.28 1.92 7.094 1.74 9.413 6.662-.96 1.538 5.874 1.908 11.744.102 1.622-.4 5.203-1.65 3.827-3.944-4.342-14.9-3.154-12.457-7.77z"/><path stroke-width=".977" d="M496.324 264.527c-1.442-.116-4.57-.56-5.185-1.925-.975-2.168 1.558-2.913 1.433-3.077-.886-1.18-4.994-1.935-5.017-3.588-.017-1.16 1.922-1.99 1.58-3.048-.47-1.448-3.238-3.65-2.165-5.258 1.302-1.945 4.036.668 5.354.652.627-.008 1.514-1.397 2.716-1.42 1.77-.028 2.847 3.415 3.516 3.32.74-.1 1.19-1.116 1.918-1.333 2.217-.667 2.85 1.73 3.372 3.29 1.032 3.087 2.145-.576 3.812.15 4.215 1.84 2.48 10.094 3.703 11.085.737.595 2.118.52 2.66 1.362 1.154 1.794-.43 5.418.46 8.664.358 1.313 4.454 5.125 4.454 5.125s.636 3.818.532 3.62c-1.846-3.552-2.246-4.394-5.55-6.92-3.175-2.424-8-.5-9.113-1.772-1.238-1.416.193-2.708-.45-3.328-.246-.235-3.972.15-4.533.095-2.65-.266-5.08-2.676-3.496-5.693z"/><path fill="#658d5c" stroke-width=".977" d="M518.514 278.198l.428 2.377c-6.796-9.72-12.342-5.86-13.8-7.44-1.108-1.202.305-2.067-.6-3.01-.957-.998-6.668 1.115-8.365-3.32-.353-.922.907-2.446.27-2.57-1.445-.283-3.393-.243-4.385-1.55-.413-.548-.77-1.295-.23-1.885.282-.305.612-.564.846-.91.883-1.314-4.486-2.326-4.503-4.28-.01-1.12 1.462-1.525.922-2.903-.47-1.207-2.1-3.204-1.27-4.517 1.01-1.59 3.273.412 4.534.557.62.07 1.67-1.387 2.692-1.416 1.626-.047 2.32 2.974 3.562 2.852 1.213-.12 2.59-2.006 3.917-.368.925 1.142.904 4.477 3.07 3.51.517-.23 1.287-.86 1.866-.61 3.465 1.5 2.58 7.07 3.442 10.032.463 1.59 2.116 1.24 2.708 2.223.286.477.526 1.03.573 1.59.04.48-.034.953-.1 1.426-.267 1.92-.086 3.646.402 5.528.386 1.5 2.494 4.276 4.022 4.684z"/><path d="M520.088 307.84l.34-.28c1.198-.02 2.027-2.498 2.388-3.445 1.5-3.934-1.196-10.462 3.347-10.442.232-1.627.565-5.625 2.045-6.69 1.074-.774 2.126.2 3.152-.106.76-1.532 1.12-4.44 3.303-4.848.692-.13 2.144.994 2.384.872.596-.3 1.302-3.42 3.048-3.89 1.077-.29 2.093.822 2.485.57.64-.408 1.26-1.077 1.79-1.643 2.278-2.435 5.118-2.476 5.042.77-.027 1.156-.767 2.788-1.18 3.843-.14.357 1.433 1.106 1.672 1.565.805 1.534-2.026 3.356-2.66 4.564.043.204 1.5.494 1.717.8 1.886 2.636-3.57 5.526-4.95 7.148-.545.637 1.324 2.056 1.064 3.16-1.044 4.43-7.865 2.8-9.375 3.486-.526.24-.686 2.612-1.13 3.215-1.92 2.596-9.526-.575-11.254 1.05-1.573 1.483-2.097 4.01-3.098 5.813-.216.392-.633.27-.598-.138l.468-5.375z"/><path fill="#658d5c" d="M520.538 308.03c1.408-.069 2.286-2.633 2.71-3.748.556-1.453.803-2.902.86-4.45.084-2.252-1.525-6.206 1.97-5.67 0 0 .736-5.275 2.248-6.492.985-.79 2.743-.342 3.168-.657 1.008-.742.618-3.96 2.79-4.37.842-.16 2.352.672 2.993.353.804-.4 1.092-2.814 2.63-3.224.962-.256 2.237.782 2.864.39 1.326-.827 2.334-3.443 4.208-2.917 2.114.59 1.368 3.8.83 5.115-.384.94.686 1.282 1.065 1.973.71 1.297-1.65 3.36-1.945 4.503-.112.426.928.945 1.19 1.224 1.57 1.68-2.477 4.648-3.565 5.577-.324.275-1.028.828-1.067 1.27-.084.942.932 1.63.67 2.778-.89 3.9-6.316 2.75-8.448 3.462-.86.286-.985 2.032-1.516 2.76-1.707 2.343-9.186.08-11.194 1.913-1.2 1.096-2.168 2.982-2.83 4.458l.37-4.248z"/><path stroke-width=".45" d="M521.658 307.028c.236-.066 9.067-7.095 14.027-12.483 4.062-4.412 9.458-12.12 9.458-12.12s-5.332 7.86-9.302 12.43c-5.02 5.778-13.944 13.502-14.18 13.57-.237.065-.24-1.33 0-1.397z"/><path d="M523.694 284.444c-2.078-1.208-1.77-7.674 1.27-10.607 2.557-2.47 9.707 4.8 7.488 7.806-1.227 1.664-6.568 4.074-8.758 2.8z"/><path d="M532.498 280.53c-1.286 1.056-4.27-.325-5.787-1.84-1.388-1.39-2.232-3.52-1.4-4.502 1.637-1.943 6.2-4.734 8.394-2.894 2.182 1.83-.042 8.278-1.206 9.235z"/><path fill="#a48253" d="M532.078 281.366c-1.167 1.58-6.262 3.617-8.15 2.52-1.642-.954-1.623-6.837 1.36-9.716 1.88-1.815 8.89 4.35 6.79 7.196z"/><path fill="#d99f31" stroke-width="1.09" d="M533.248 271.806c1.82 1.527.058 7.455-1.05 8.363-.94.774-3.61-.26-5.16-1.808-1.407-1.41-2.078-3.38-1.532-4.028 1.684-1.996 5.924-4.054 7.742-2.528z"/><path fill="#f1bf31" d="M531.89 271.844c-.526.557-.874 1.51-.874 2.594 0 1.684.843 3.057 1.89 3.11.145-.46.278-.942.376-1.438.168-.857.253-1.73.187-2.438-.067-.707-.29-1.21-.58-1.453l-.015-.017c-.246-.2-.573-.317-.968-.36-.005 0-.01.002-.016 0z" stroke="none"/><path stroke-width=".863" d="M493.752 286.796c-.58-1.792-3.343-3.027-3.633-5.184-.132-.98.94-2.648.852-2.938-.477-1.558-3.075-3.566-1.744-5.503 1.717-2.5 4.163.082 6.198.674.334-.127.446-1.246 1.242-1.457 3.116-.83 5.83 4.233 6.648 4.54 2.417.916 4.312-3.36 5.626 5.984 1.034-.246 2.44-.5 3.063.562 2.57 4.404 1.07 13.893 6.206 16.442l.167.337c-.07.374-.236 3.18-.99 2.264-1.298-1.574-2.32-3.812-4.58-4.21-2.386-.416-12.803 3.353-13.083-1.38-.033-.558.723-1.325.473-1.867-.596-1.303-6.854-.847-7.51-4.345-.257-1.372.708-2.623 1.065-3.916z"/><path fill="#658d5c" stroke-width=".863" d="M517.578 301.936c-3.83-5.944-5.544-3.702-11.362-3.264-1.327.1-5.8.286-5.722-1.954.023-.638.507-.806.11-1.574-.845-1.645-6.088-1.343-6.877-4.39-.41-1.575.457-3.7.237-4.293-.73-1.978-3.987-3.828-3.02-6.42.13-.344.32-.66.383-1.03.195-1.145-2.143-3.765-1.103-5.454 1.21-1.963 3.32-.412 4.927.316 1.152.522.86-.496 1.62-.747 1.33-.44 2.985.828 3.873 1.68.5.48 2.074 2.36 2.475 2.545.94.436 2.533-.06 3.622.322.977.345 1.64 4.45 1.787 5.496l.19.13c.89-.192 2.202-.184 2.736.684 2.43 3.96 1.235 13.42 6.446 16.29l-.322 1.664z"/><path stroke-width=".45" d="M517.278 301.663s-6.918-11.443-12.89-17.428c-3.81-3.817-10.64-8.83-10.64-8.83s6.895 5.23 10.64 9.26c5.448 5.862 11.495 16.998 11.495 16.998h1.395z"/><path d="M509.884 319.282c.31.147.967.033 1.378.143 3.05.833-1.314 9.672-1.56 11.613-.065.517.266 2.19.234 2.3l-.665 3.763c-.117.39.074-3.743-.526-4.773-1.063-1.827-4.414-.84-6.136-1.106-2.846-.438-.625-2.87-1.86-3.365-2.04-.816-6.3.35-6.807-2.69-.188-1.133.56-2.346.483-3.315-1.463-1.694-5.222-2.072-4.787-5.047.15-1.032 1.654-2.127 1.613-2.795-.053-.81-3.15-3.082-2.412-4.736.453-1.01 1.327-1.015 1.41-1.605.087-.61-2.512-4.512-.326-5.567 2.622-1.264 4.788 1.694 6.678 1.832.956.07 1.802-1.496 3.25-1.174 1.525.34 1.695 2.386 2.39 3.522.676.025 1.338-.698 2.088-.774 3.197-.335 2.702 4.787 3.525 6.55.1.214 1.06-.367 1.458-.21.67.258.917 1.003 1.013 1.656.28 1.918-.743 3.97-.44 5.78zM530.144 326.956c.6 6.038-7.585.09-12.086 2.49-1.343.713-4.485 3.118-4.256 2.54l1.133-2.852c.374-.316 1.58-.32 2.004-.513.975-.443 2.31-1.988 3.205-3.664 1.24-2.323.394-4.95 1.148-6.656 1.154-2.61 2.96-.21 3.74-.775 1.44-1.044 1.683-6.322 5.203-6.376.927-.016.91.163 1.55.472.733-1.067.97-2.38 2.393-2.823 1.026-.323 1.728.592 2.677.584.68-.534 3.32-4.956 5.483-4.437 2.432.583.966 4.908.783 6.493.268.295.604.288 1.03.857 1.674 2.24-.95 4.632-1.85 6.395.237.53.914.498 1.06 1.17.6 2.736-4.593 3.072-5.13 3.803 0 .253.4.546.356 1.12-.265 3.348-8.026 2.453-8.446 2.17zM477.587 346.87c.154-1.144-2.24-2.88-1.235-4.452.815-1.275 2.678-.616 3.427-1.272.645-2.027-.428-4.76 2.386-5.39 1.427-.316 2.212 1.13 2.675 2.232.176.408.81 2.935 1.054 3.023.528.19 1.925-.81 2.625-.71 1.904.275.4 3.84.98 4.85.408.707 1.423.148 2.07.37 1.924.66.43 3.86.43 5.226 0 .837 1.385 1.092 1.5 2.513.2 2.544-1.95 2.82-3.173 4.465-.17.23-.21.342-.018.577 2.106 2.57.912 3.82-1.42 5.517-2.746 1.994-6.976 3.265-5.423 7.53 0 0-1.39 2.85-1.538 1.902-.222-1.396.455-2.82.07-4.338-.414-1.62-5.364-3.748-5.562-5.494-.14-1.23 1.288-1.416 1.4-2.524.13-1.26-4.294-2.424-3.777-4.92.28-1.35 1.72-1.748 2.35-2.838-.102-1.06-5.036-4.83-.704-5.81.546-.126 1.413-.118 1.88-.458z"/><path fill="#658d5c" d="M481.75 372.916c.168-1.23.318-2.89.004-4.097-.452-1.745-4.296-3.94-4.466-5.45-.11-.965.625-1.216.78-2.42.206-1.623-3.79-2.662-3.317-4.896.29-1.368 1.998-2.022 1.836-3.237-.09-.677-2.114-2.348-1.682-4.086.35-1.405 1.875-.845 2.76-1.552.97-.773-1.902-3.13-.986-4.55.726-1.126 2.713-.633 3.276-1.43.583-.824-.467-4.267 2.3-4.91 2.19-.505 2.635 4.193 3.564 4.876.878.65 1.276-.512 2.65-.326 1.355.185.31 3.493.846 4.49.58 1.08 1.5.222 2.436.556 1.51.54.02 3.746.02 4.86 0 1.165 1.232 1.164 1.34 2.542.18 2.24-1.95 2.808-3.078 4.188-.312.38-.34.733.007 1.105 2.028 2.185.597 3.498-1.376 4.922-3.064 2.215-6.664 3.44-5.12 7.902l-1.794 1.512z"/><path d="M531.058 337.065c1.524-.392 3.617-1.88 5.09-.703 2.79 2.23-2.07 6.133-2.968 8.222-.017.762 1.553 1.02 1.45 2.555-.178 2.697-3.77 2.122-5.46 3.085-.135.486.617.907.617 1.387 0 3.82-5.765 2.377-7.964 3.092-.7.226.48 2.248-2.02 3.193-1.08.407-2.625-.02-3.72-.214-1.326-.235-2.678-.51-4.034-.434-.56.03-1.132.177-1.693.128-.24-.02-.413-.137-.322-.41l6.3-18.584c.135-.4 2.872.638 3.482.638.678 0 1.345-1.425 1.82-1.857 1.643-1.5 2.436.63 3.81.64 1 .003 3.815-5.59 5.61-.74z"/><path stroke-width=".777" d="M499.83 340.094c-.05-.785-1.63 1.605-1.63 1.605s1.124 1.105 1.888 1.76c.943.813 2.523 1.955 2.523 1.955l.153-1.177s-2.793-1.952-2.933-4.144z"/><path d="M498.153 332.518c.428.606.16 1.424-.133 2.032-.32.67-.51 1.072-.95 1.655-1.436 1.904-4.626 3.605-6.067 2.617-1.313-.9-3.995-8.78-1.896-10.14 1.997-1.29 7.177 1.19 9.046 3.836z"/><path d="M490.57 336.03c.623-.944 1.533-1.66 2.422-2.337 1.264-.968 4.48-2.678 5.9-1.308 1.863 1.8 2.76 7.24.596 9.13-2.85 2.49-7.464-.378-9.26-2.845-.62-.85-.17-1.865.342-2.64z"/><path fill="#a48253" d="M493.292 334.184c1.948-1.447 4.16-2.25 4.997-1.37 2.246 2.37 2.36 6.903.8 8.228-1.573 1.334-5.225 1.227-8.377-2.755-.665-.84.612-2.64 2.58-4.103z"/><path fill="#d99f31" stroke-width="1.09" d="M497.646 332.256c1.052 1.935-4.688 7.333-6.603 6.055-1.33-.884-3.14-7.677-1.835-8.853 1.842-1.663 7.524 1.117 8.438 2.8z"/><path fill="#f1bf31" d="M490.64 329.5c-.47.03-.836.156-1.06.36-.03.025-.068.12-.11.234.78.386 2.176.736 3.608 1.375 2.046.91 3.46 2.108 4.063 1.764.097-.332.102-.59.032-.718-.145-.268-.63-.743-1.28-1.188-.653-.445-1.47-.885-2.314-1.22-.844-.332-1.713-.56-2.437-.608-.18-.012-.342-.01-.5 0z" stroke="none"/><path fill="#466343" d="M512.038 356.94c2.87-.14 5.617 1.136 7.352.51 2.585-.93 1.007-2.943 2.253-3.055 1.246-.115 7.533.346 7.527-2.782 0-.603-.507-.838-.28-1.516.226-.68 4.956-.45 5.126-2.978.107-1.612-1.36-1.63-1.134-2.606.226-.976 5.293-5.77 2.768-7.753-1.74-1.366-4.587 1.02-4.855.323-.35-.91-.43-1.67-1.582-1.778-1.667-.153-2.674 2.5-3.762 2.5-1.09 0-1.585-1.09-2.702-.99-1.462.128-1.682 2.36-2.928 2.36s-3.19-.69-3.19-.69l-6.3 18.584s1.04-.1 1.708-.13z"/><path fill="none" stroke-width=".623" d="M515.124 349.614s5.916-2.24 9.39-4.267c3.323-1.937 8-5.716 8-5.716m-17.39 9.984s5.916-1.93 9.39-3.956c3.323-1.94 8-6.027 8-6.027"/><path stroke-width=".777" d="M477.297 379.028s2.342-.568 3.28-.568c.94 0 1.493.455 1.493.455l1.066-1.957s-3.186.377-4.13.292l-1.71 1.778z"/><path fill="none" d="M463.168 400.047c-1.86-2.27 4.31-8.154 6.607-6.49 1.645 1.195 3.712 6.315 2.075 7.844-1.828 1.7-7.203.453-8.682-1.353z"/><path stroke-width=".777" d="M460.324 392.568l-.686-.047c-1.204-1.5-1.642-1.56-3.407-2.043-.56-.153-.638-.745-.032-.907l2.135-.56c.338-.088 1.243.72 1.5.91.408.304 2.48.748 1.72 1.482l-1.23 1.166z"/><path fill="none" d="M459.855 391.228c.872-1.312 6.285-1.624 9.44 1.158 1.942 1.714.38 4.13-1.46 5.69-1.823 1.544-4.583 2.82-5.717 1.828-3.216-2.813-3.312-7.098-2.263-8.676z"/><path fill="#658d5c" d="M513.108 333.132s2.617-2.724 4.726-3.785c4.092-2.06 10.743 1.256 11.73-.61.505-.95-.256-1.647.38-1.9.633-.254 7.89 1.186 8.177-2.096.056-.59-.754-.89-.125-1.52.63-.63 5.213-.938 4.755-3.104-.145-.694-1.143-.89-.887-1.582.253-.696 3.688-3.96 2.222-5.96-.428-.586-1.507-.47-1.427-1.185.256-2.218 1.002-5.647-.83-5.826-1.97-.19-4.27 3.812-5.037 3.967-.953.19-1.52-.75-2.474-.443-1.583.506-1.836 2.85-2.47 2.85-.634 0-.586-.654-1.604-.634-3.108.065-3.37 5.052-4.925 6.277-.886.698-1.41-.242-2.284-.062-2.153.442-1.518 5.828-2.66 7.542-1.142 1.712-3.612 3.74-4.12 3.994s-1.504.25-1.504.25l-1.642 3.828z"/><path fill="#a48253" stroke-width=".777" d="M455.154 389.994s1.972.663 3.28.733c.88.048 2.257-.126 2.257-.126s-.54.115-1.124-.298c-.19-.136-1.543-1.333-1.543-1.333l-2.87 1.024z"/><path fill="#a48253" d="M460.398 391.64c1.453-1.647 5.66-1.47 8.745 1.25 1.532 1.35.52 3.382-1.3 4.99-1.835 1.617-4.164 2.518-4.953 1.83-3.082-2.695-3.56-6.862-2.492-8.07z"/><path fill="#d99f31" stroke-width="1.09" d="M463.517 399.896c-.69-.79.413-3.208 1.883-4.532 1.302-1.176 3.423-1.98 3.88-1.487 1.8 1.93 3.64 5.367 2.213 7.07-1.433 1.71-6.42.728-7.976-1.05z"/><path fill="#f1bf31" d="M469.062 394.484c-.046.006-.094.02-.14.03-1.493.32-2.34 2.28-1.89 4.392.2.944.63 1.762 1.17 2.344.003.002.014-.002.016 0 1.296.1 2.438-.154 2.86-.657.524-.624.488-1.68.015-2.906-.437-1.132-1.24-2.306-2.03-3.203z" stroke="none"/><path fill="#a48253" stroke-width=".777" d="M515.848 260.454s.052-1.77 1.45-6.762c.242-.87.902-1.352.902-1.352l-2.606-.357s.664.63.653 1.455c-.033 2.33-1.285 4.15-1.285 4.15l.886 2.866z"/><path fill="#658d5c" stroke-width=".846" d="M512.958 255.114s-1.694-4.952-3.142-6.76c-1.532-1.916-2.632-2.318-5.415-3.207-2.46-.787-6.303-1.42-6.464-3.35-.164-1.927.062-1.563-.64-1.747-2.258-.594-5.082-1.34-4.543-3.578.54-2.238 1.373-2.587.406-3.056-1.43-.69-5.186-2.876-4.738-4.79.447-1.916 2.118-1.942 1.414-3.117-.506-.84-2.317-1.764-2.172-3.296.1-1.044 1.423-1.383 1.383-2.313-.04-.93-3.59-5.063-1.5-6.788 1.903-1.572 5.265 1.237 6.124 1.592.863.355 1.853-1.468 3.113-1.168 1.62.386 1.705 2.81 2.182 3.67.874 1.568 2.663-.47 4.062.28 2.332 1.255 1.52 5.567 2.15 6.44.626.87 2.35-.522 3.572.15 1.9 1.05.274 7.347.398 8.38.124 1.037 1.507.146 2.296.76 2.102 1.637-.456 6.6-.052 10.79.14 1.447.487 3.695.487 3.695l1.078 7.414z"/><path d="M496.894 399.126c.66 1.135 1.86 1.918 2.417 3.085.786 1.642.05 3.31-1.93 3.186-.857-.052-1.646-.714-2.468-.78-.665-.052-2.567 2.49-4.41 2.408-2.514-.11-3.71-3.177-5.244-4.744-1.22-.258-2.117 1.54-3.473 1.295-2.786-.502-2.652-4.924-3.613-6.872-.768-.57-1.93.637-3.474-.455-2.387-1.686-1.137-6.985-3.698-8.467-2.255-1.305-7.023-.44-6.61-.657l2.66-1.38c.165-.09.674.155.84.188 4.356.868 10.187.154 14.652.154 2.14 0 1.797 1.73 2.14 2.083l.174.027c2.223.154 4.877-.008 6.773 1.393 2.293 1.703.122 3.225.113 3.607l.104.05.485.164 1.498.44c1.16.372 2.46.886 3.238 1.875 1.135 1.44-.138 2.113-.174 3.403z"/><path fill="#466343" d="M467.19 386.192c.962.608 13.787.204 15.51.204 1.86 0 1.253 1.47 1.89 2.026.77.35 9.58.058 7.573 3.387-.23.38-.532.726-.726 1.126l.044.37c.9.745 4.024.804 5.383 2.556.81 1.046-1.336 2.726-.417 3.388 1.765 1.27 5.712 6.914-1.45 5.22-1.725-.41-3.765 4.396-7.513.096-.455-.523-1.51-2.048-1.946-2.35-1.046-.722-2.38.96-3.663.75-2.36-.39-2.507-4.53-3.357-6.266-1.17-.818-2.15.156-3.548-.83-3.17-2.236.714-9.908-9.538-8.762l1.76-.916z"/><path stroke-width=".45" d="M466.256 386.406s9.654 1.955 15.2 4.75c5.09 2.567 11.92 8.464 11.92 8.464s-6.656-6.267-11.764-8.928c-5.287-2.754-14.582-4.595-14.582-4.595l-.774.31z"/><path d="M491.113 376.212c2.504 2.32-1.283 10.045-4.126 9.56-4.53-.77-7.018-5.887-6.164-8.068.91-2.335 7.585-3.996 10.29-1.492z"/><path fill="none" d="M486.598 384.988c-1.28-.918-.788-4.17.345-6.133 1.038-1.8 2.514-2.928 3.644-2.575 3.212 1.003 6.333 5.228 5.13 7.802-1.18 2.537-7.844 1.817-9.12.906z"/><path fill="#a48253" d="M490.902 376.44c2.3 2.13-1.352 9.146-3.862 8.718-4.317-.735-5.872-5.18-5.35-7.01.54-1.893 6.658-4.073 9.212-1.708z"/><path d="M505.924 381.75c-.41.543-1.275 1.554-2.176 1.546-3.844-.037-3.575-3.318-5.594-5.498-.677-.164-1.177.633-2.5.332-1.734-.397-1.84-4.815-4.437-5.718-1.312-.455-4.968-.474-7 1.432l3.634-2.827c3.513 1.378 6.677-6.096 10.7-5.104 1.14.282 1.178 1.028 2.5.912 2.935-.26 5.92-2.187 9.454-1.02 2.114.698-.633 3.53 2.04 3.206 1.72-.21 4.28-.2 4.79 1.936.282 1.173-.323 1.704-.194 2.554.346.27 6.798 2.514 3.384 4.242.54 1.516 3.134 2.53 1.76 4.39-1.286 1.745-4.03-.192-4.79.53-.312.302-.3 1.137-.576 1.482-1.138 1.413-4.132-1.458-5.41-1.73-1.27 4.312-3.57 2.28-5.584-.665z"/><path fill="#658d5c" d="M491.454 372.425c2.666.75 2.74 4.864 4.276 5.25 1.536.383 1.496-.427 2.458-.205.89.204 1.786 5.388 6.083 4.853 1.096-.137 1.644-1.3 1.644-1.3s1.572 2.576 3.224 2.808c2.378.336 1.697-1.804 2.3-1.875.967-.112 2.743 1.937 4.52 1.937 1 0 .857-1.706 1.913-1.706 1.058 0 3.145 1.007 4.004-.23 1.124-1.616-1.492-3.51-1.683-4.087-.192-.577.744-.593.646-1.15-.363-2.053-3.698-2.38-3.987-3.106-.29-.722.465-1.468.183-2.593-.478-1.913-3.194-1.98-4.423-1.708-2.847.634-.266-2.402-2.294-3.257-3.493-1.473-8.573 1.316-9.87.77-.873-.368-1.206-.476-1.95-.607-3.147-.546-6.047 4.043-8.034 5l.992 1.207z"/><path stroke-width=".45" d="M490.467 370.994s9.648-.594 15.31 1.377c4.9 1.705 11.364 6.912 11.364 6.912s-6.965-5.124-12.147-6.63c-5.575-1.617-14.867-.73-14.867-.73l.34-.928zM481.945 371.67s1.845-12.28 1.686-20.172c-.095-4.744-1-12.123-1-12.123s1.27 7.65 1.466 12.59c.293 7.337-1.377 18.774-1.377 18.774l-.775.93z"/><path d="M472.62 371.22c.177.525 1.962 1.042 1.8 3.03-.195 2.44-3.868 1.69-5.577 2.835-.646.436.766 2.53.025 3.522-1.327 1.77-5.834.714-6.162 1.154-.605.81 1.47 3.04-.717 4.27-3.04 1.71-9.452-.993-12.91 2.072-.205.183-1.55 1.694-1.602 1.71-1.977.52-7.222 1.602-6.61 1.344 3.078-1.3 8.026-2.566 8.993-4.68.828-1.804.203-5.207.54-7.155.504-2.91 2.642-1.74 3.346-2.663.57-.747-.49-4.804 1.81-6.716 1.616-1.34 3.35-.42 4.826-1.482 1.543-1.108-.79-4.815 2.26-5.87 1.83-.633 3.735 1.412 4.15 1.323 1.14-.244 2.474-3.677 4.786-3.215 2.302.458 1.275 3.494 1.177 4.9 3.86.48 1.77 3.35-.135 5.625z"/><path fill="#658d5c" d="M441.417 390.864s8.207-3.43 8.878-5.15c1.032-2.64-.094-6.637 1.343-7.592.937-.625 1.875-.312 2.49-1.2.616-.89-.183-5.195 2.034-6.935 1.39-1.09 2.64-.113 4.334-1.302 1.823-1.286-.48-4.46 2.307-5.504 1.64-.614 3.29 1.394 4.107 1.18 1.57-.41 2.402-3.536 4.707-3.202 1.853.268.946 2.156.828 3.94-.068 1.027 1.54.55 2.02 1.988.35 1.046-1.08 3.295-2.04 4.132-.545.477 1.665 1.316 1.532 2.802-.193 2.137-4.315 2.286-5.272 2.63-1.235.44-.12 2.285-.96 3.36-1.34 1.72-4.78.653-5.392 1.473-.56.75.686 2.68-.892 3.864-1.64 1.23-8.014.45-9.048.833-3.073 1.13-5.575 2.31-5.575 2.31l-5.4 2.374z"/><path stroke-width=".45" d="M450.21 386.042s8.97-6.453 13.56-12.223c2.53-3.184 5.873-8.02 5.873-8.02s-3.236 5.014-5.72 8.328c-4.528 6.044-13.566 12.95-13.566 12.95l-.148-1.036zM517.264 328.63c3.45-1.864 9.71-5.09 14.825-9.757 3.44-3.14 7.924-8.934 7.924-8.934s-4.454 6.093-7.925 9.398c-5.22 4.972-11.842 8.51-15.29 10.376l.464-1.084z"/><path fill="#466343" d="M509.938 333.264l-.79 2.633c0-3.636-.145-5.368-4.45-5.14-.668.034-1.355.108-2.017.005-2.187-.343-.5-1.657-1.197-2.658-.852-1.22-6.61-.124-7.082-3.01-.18-1.118 1.065-2.447.152-3.323-1.382-1.323-4.826-2.472-4.458-4.9.154-.998 1.49-1.723 1.298-2.653-.258-1.24-2.733-3.395-2.128-4.757.48-1.086 1.364-.735 1.447-1.76.096-1.144-1.907-4-.12-4.87 2.353-1.144 3.948 1.09 5.968 1.255 1.17.095 1.966-1.3 3.19-1.027 1.58.35 1.592 2.898 2.61 3.42.373.188 1.494-.76 2.02-.82 2.835-.327 2.192 5.17 3.157 6.458.35.466 1.098.002 1.605.16 1.774.552-.126 6.563.605 7.367.248.274 1.15.12 1.544.23 1.48.416.446 4.238.2 5.177-.55 2.108-2.453 6.247-1.552 8.214z"/><path stroke-width=".45" d="M509.828 332.84s-2.747-10.935-6.646-16.812c-3.23-4.867-10.303-10.867-10.303-10.867s6.766 6.047 9.837 10.868c3.764 5.91 6.333 16.812 6.333 16.812h.778zM515.794 275.694s-6.492-10.546-12.074-16.03c-4.555-4.482-12.983-9.994-12.983-9.994s8.03 5.67 12.362 10.165c5.294 5.494 11.454 15.86 11.454 15.86h1.24z"/><path fill="#a48253" d="M512.964 250.457c1.082 2.708 2.633 6.896 3.664 10.806 4.84 18.336 5.287 39.524 3.215 51.766-6.38 37.706-40.664 72.785-68.103 78.262-23.297 4.65-37.067 14.746-46.846 25.535-4.637 5.114-8.34 10.215-11.204 15.078-2.843 4.82-4.707 8.95-7.23 13.103-.03.015-.074.034-.14.057-.17.06-.398.113-.66.164-.553.103-1.256.184-1.922.21-.68.03-1.28.003-1.644-.087l-.087-.023c.355-.55.708-1.085 1.054-1.655 2.407-3.965 4.5-7.83 7.25-12.424 2.742-4.575 5.986-9.405 10.4-14.394 10.176-11.503 24.638-22.63 49.354-27.597 28.772-5.784 61.627-41.464 68.062-79.484 2.094-12.38 2.05-33.76-5.818-56.926l.656-2.393z"/><path stroke-width=".45" d="M511.844 248.246c-2.386-6.082-4.065-9.424-7.52-14.968-4.463-7.16-13.528-16.88-13.528-16.88s8.577 9.758 12.797 16.85c4.464 7.505 6.51 12.123 9.07 20.47l-.82-5.472z"/><path fill="#a48253" d="M513.234 254.084s-.366-.91-.555-1.508c-.395-1.24-.713-3.26-.713-3.26s.588 1.415.98 2.347c.345.822.895 2.452.895 2.452l-.608-.03z" stroke="none"/><path d="M514.378 317.002c-1.778-1.476-6.65-5.97-6.65-8.266 0-2.736 2.554-2.265 3.168-2.666-.11-1.108-3.858-3.845-2.354-6.312.99-1.628 3.243-1.17 4.077-1.835.637-1.744-1.838-6.27.146-8.725 1.176-1.454 2.086-.368 2.638-.5.11-.765.087-1.544.174-2.31.15-1.353.64-2.697 2.214-2.777 2.203-.114 3.7 2.714 4.75 4.267.232-.134 1.38-.296 1.624-.417 2.71-1.325 1.727 7.082 1.804 8.378.63-.02 1.913-.373 2.473-.046 2.903 1.713-2.865 10.718-3.48 12.837-.255.88 3.046.17.51 3.37-1.477 1.867-3.363 3.52-4.995 5.25l-6.1-.248z"/><path fill="#658d5c" d="M515.298 323.974c1.103-2.905.71-5.737-1.48-7.323-2.347-1.698-5.475-5.73-5.47-8.068.006-2.76 2.75-1.08 2.876-2.385.096-.974-3.606-3.896-2.286-6.042.86-1.396 3.15-1.234 3.73-1.934.963-1.163-1.427-6.33.464-8.735 1.04-1.323 1.847.083 2.54-.405.67-.476-.405-4.425 2.14-4.54 2.453-.11 4.257 4.004 4.65 3.877.793-.255 1.735-1.084 2.628-.236.87.825.598 7.845.598 7.845s1.667-.162 2.2.166c2.218 1.365-1.764 9.334-2.885 11.52-.957 1.863 1.846 2.097.41 4.012-2.366 3.154-7.09 6.94-7.84 11.58"/><path stroke-width=".45" d="M518.028 321.924s1.775-11.42 2.267-17.446c.403-4.94-.696-13.074-.696-13.074s.633 7.823.23 12.765c-.492 6.023-3.137 20.355-3.137 20.355l1.335-2.6z"/><path d="M492.06 364.365c.994-2.554-1.933-10.043.276-11.355 1.262-.752 2.06.66 3.29-.55 1.57-1.554-.888-7.402 1.986-9.253 1.67-1.073 2.992.474 4.6-.984 1.066-.972 1.113-4.886 3.826-5.564 1.802-.452 2.63.775 4.227.996 1.353.184 5.95-6.22 8.805-4.69 2.992 1.606.343 5.003-.26 7.28-.315 1.188 2.233 1.02 1.994 3.013-.217 1.82-2.3 3.645-2.302 4.41 0 .816 2.105 1.37 2.19 2.894.168 2.963-4.607 3.38-6.212 4.64-.84.66 1.083 2.79-.104 4.75-1.26 2.08-6.617.62-7.508 1.066-.725.366-.017 3.895-.92 5.147-1.468 2.035-8.465.125-11.056.548-3.47.57-4.986 1.28-7.167 3.87l4.335-6.22z"/><path fill="#658d5c" d="M487.657 368.456s2.734-1.416 3.72-2.996c.968-1.56 1.094-2.12 1.056-4.584-.023-1.497-1.327-6.65.14-7.47 1.207-.672 1.876.647 3.38-.773 1.833-1.732-.856-7.724 1.754-9.342 1.574-.975 2.995.75 4.815-.877 1.24-1.11 1.03-4.846 3.473-5.458 1.532-.385 2.75.81 4.2 1.004 1.772.238 5.81-5.652 8.34-4.274 1.11.605 1.438 1.453 1.234 2.67-.22 1.312-.964 2.47-1.248 3.752-.365 1.65 1.866 1.506 1.665 3.248-.19 1.654-2.15 3.24-2.15 4.314 0 1.176 1.768 1.94 1.882 3.385.215 2.74-5.516 2.794-5.98 4.297-.458 1.49.657 2.606-.426 4.363-1.17 1.894-5.204.218-6.78.86-1.314.535-.518 3.506-1.316 4.697-2.2 3.282-12.85-1.328-17.225 4.686l-.536-1.502z"/><path stroke-width=".45" d="M487.976 368.836S499.3 359.2 505.51 352.06c4.785-5.492 11.246-14.915 11.246-14.915s-6.03 9.54-10.625 15.072c-5.61 6.76-15.99 15.865-15.99 15.865l-2.164.754z"/><path fill="#a48253" d="M486.963 369.09l1.856-.536s-.682.8-.956 1.046c-.232.207-.843.778-.843.778l-.057-1.287z" stroke="none"/><path fill="#d99f31" stroke-width="1.09" d="M486.87 384.764c-.918-.658-.68-3.67.477-5.68 1.05-1.818 2.68-2.7 3.354-2.385 2.482 1.164 5.588 5.062 4.597 7.185-.984 2.108-7.212 1.747-8.427.88z"/><path fill="#f1bf31" d="M491.36 377.72c-.28.116-.532.274-.735.5-1.02 1.133-.543 3.225 1.062 4.67.816.735 1.767 1.16 2.64 1.25.004 0 .013.003.016 0 .22-.15.375-.316.453-.483.35-.75-.026-2.096-.937-3.407-.68-.976-1.61-1.904-2.5-2.53z" stroke="none"/><path d="M516.644 254.586c-2.355-.813-3.964-5.166-2.984-9.028.972-3.823 10.73-2.266 9.68 2.288-.83 3.594-4.698 7.43-6.696 6.74z"/><path d="M523.074 246.464c-.347 2.293-3.367 2.548-4.765 2.263-1.488-.3-4.293-1.88-3.965-3.777.696-4.028 3.947-7.133 5.864-6.83 2.094.33 3.423 4.652 2.864 8.344z"/><path fill="#a48253" d="M516.848 253.845c-1.983-.307-3.534-4.4-2.585-8.133.89-3.503 9.233-1.287 8.475 1.995-.828 3.59-3.952 6.437-5.89 6.138z"/><path fill="#d99f31" stroke-width="1.09" d="M520.134 238.734c1.628.257 3.356 3.926 2.79 7.66-.273 1.803-3.086 1.704-4.524 1.413-1.548-.314-4.154-1.35-3.907-2.778.687-3.983 4.142-6.535 5.64-6.296z"/><path fill="#f1bf31" d="M519.86 239.266c-.075.006-.157.025-.25.047.1.654.513 1.614.702 2.72.25 1.462.22 3.85 1.234 3.67.63-.11.9-.61.907-1.578v-.015c-.085-.967-.306-1.88-.61-2.64-.527-1.325-1.348-2.133-1.796-2.204-.05-.008-.114-.006-.188 0z" stroke="none"/><path fill="none" d="M382.268 446.704c-.77-1.134.992-4.616 4.682-4.196 1.617.184.835 2.526-1.173 3.928-1.408.98-2.738 1.403-3.51.268z"/><path fill="#a48253" d="M382.268 446.704c-.77-1.134.35-3.572 4.064-3.73 1.332-.058 1.453 2.06-.555 3.462-1.408.98-2.738 1.403-3.51.268z"/><path fill="none" d="M394.916 431s-.1-1.38-1.69-1.93c-1.37-.48-2.238.614-2.238.614m2.377 3.177s-.05-1.39-1.688-1.777c-1.495-.35-2.085.926-2.085.926"/></g><path fill="#fff" d="M401.704 427.164c7.69-.09 13.472-.82 20.047-2.12-1.55 5.274-4.652 15.305 7.745 15.305 9.022 0 18.598-5.427 27.897-.655 20.31 10.417 35.647 2.978 48.045-10.97 0 0-9.167 1.958-18.598 1.55 0 0 7.064-6.022 7.748-13.95-6.2 4.65-12.4 5.33-18.602 5.33-6.196 0-10.16-3.745-18.276-5.026.457-2.806.947-5.663 1.678-9.602.797-4.3-.388-7.79-6.644-8.526-13.614-1.598-26.8 6.255-50.892 6.633-24.256-.378-40.882-8.23-54.5-6.633-6.254.735-7.44 4.226-6.642 8.526.73 3.94 1.22 6.796 1.675 9.6-8.114 1.282-12.078 5.026-18.274 5.026-6.203 0-12.4-.68-18.6-5.328.683 7.927 7.75 13.948 7.75 13.948-9.432.41-18.6-1.55-18.6-1.55 12.4 13.948 27.734 21.388 48.045 10.97 9.3-4.77 18.876.655 27.897.655 12.398 0 9.296-10.032 7.745-15.305 7.036 1.388 14.824 2.153 23.354 2.153l.004-.034z"/><path d="M337.705 427.3c-.9.418-1.364-.16-.348-.68.72-.37 3.83-1.724 6.08-2.166.086-.017.17.044.18.133l.083.6c.012.077-.05.16-.127.172-2.116.375-5.112 1.59-5.868 1.94zm.52 2.947c-.902.417-1.367-.162-.35-.68.72-.37 3.987-1.976 6.237-2.418.063-.013.153.036.175.096l.226.6c.036.096-.016.187-.118.206-2.117.374-5.417 1.846-6.17 2.195zm32.313 5.392c-3.863-.4-8.427-1.572-13.272-2.247-6.133-.856-11.466-.538-17.85 2.356-.353.16-.54.175-.676.18-.118.004-.3-.028-.336-.206-.03-.137.064-.265.15-.35.096-.096.242-.185.418-.277 5.943-3.037 12.16-3.583 18.4-2.734 4.837.658 9.444 1.67 13.3 2.07 2.17.224 4.646-.14 5.462-1.447.214-.34.83.396.628.716-1.234 1.977-4.118 2.155-6.224 1.937zm-33.607-11.044c-.16.062-.317.102-.433.103-.097 0-.253-.025-.303-.17-.046-.136.042-.254.107-.323.08-.08.203-.16.35-.228 2.338-1.076 2.945-1.265 6.37-2.177.287-.077.502.094.55.313.048.217-.066.466-.354.534-2.672.636-3.974 1.05-6.285 1.946zm-.526-3c-.152.06-.295.096-.41.092-.107-.004-.238-.045-.287-.174-.05-.123.01-.244.076-.322.073-.086.18-.166.32-.23 2.36-1.04 3.3-1.375 6.588-1.998.277-.054.5.098.578.295.085.216-.023.466-.322.522-3.21.608-4.346.942-6.542 1.814zm34.142 9.007c-2.637-.272-5.64-.862-8.82-1.38-.33-.055-.456-.34-.417-.58.04-.24.248-.47.578-.416 3.16.515 6.145 1.103 8.762 1.374 1.078.112 2.07-.04 2.93-.376.31-.123.565.058.652.285.09.225.027.528-.285.65-1.012.4-2.165.57-3.4.443zm-13.876 5.25c-5.263-.82-11.754.069-16.78 2.572-.22.11-.42.148-.57.163-.122.01-.305.006-.384-.135-.043-.08-.033-.162-.008-.222s.067-.118.118-.168c.1-.103.263-.216.476-.328 7.408-3.59 13.065-3.35 17.47-2.85 4.724.533 8.868 1.558 13.388 1.9.393.028.5.38.603.687.093.283.265.8-1.15.648-4.473-.473-8.568-1.548-13.162-2.265zm13.833-2.98c-5-.52-11.64-2.226-18.004-2.51-.328-.013-.536-.234-.538-.485-.002-.26.21-.47.546-.456 6.387.284 13.102 1.806 18.122 2.325 1.854.193 3.88-.174 4.855-1.047.292-.263 1.046.725.766.975-1.29 1.158-3.74 1.405-5.747 1.198zm-31.732.107c-.9.418-1.363-.162-.348-.68.822-.423 5.342-2.56 7.753-2.72.332-.022.575.182.646.417.078.26-.068.53-.425.556-2.167.143-6.758 2.026-7.624 2.427zM462.392 427.3c.9.418 1.366-.16.35-.68-.722-.37-3.83-1.724-6.08-2.166-.088-.017-.17.044-.183.133l-.083.6c-.01.077.05.16.127.172 2.116.375 5.112 1.59 5.868 1.94zm-.518 2.947c.9.417 1.364-.162.35-.68-.72-.37-3.99-1.976-6.24-2.418-.06-.013-.15.036-.174.096l-.225.6c-.038.096.014.187.118.206 2.116.374 5.417 1.846 6.17 2.195zm-32.315 5.392c3.862-.4 8.426-1.572 13.27-2.247 6.132-.856 11.468-.538 17.853 2.356.35.16.537.175.675.18.118.004.3-.028.336-.206.03-.137-.065-.265-.15-.35-.097-.096-.242-.185-.42-.277-5.942-3.037-12.162-3.583-18.4-2.734-4.837.658-9.443 1.67-13.298 2.07-2.17.224-4.647-.14-5.462-1.447-.215-.34-.83.396-.628.716 1.233 1.977 4.118 2.155 6.223 1.937zm33.607-11.044c.162.062.318.102.434.103.098 0 .254-.025.304-.17.046-.136-.04-.254-.107-.323-.08-.08-.202-.16-.35-.228-2.337-1.076-2.943-1.265-6.368-2.177-.292-.077-.505.094-.553.313-.047.217.067.466.355.534 2.672.636 3.974 1.05 6.285 1.946zm.526-3c.152.06.296.096.41.092.108-.004.24-.045.288-.174.05-.123-.01-.244-.075-.322-.07-.086-.18-.166-.32-.23-2.36-1.04-3.302-1.375-6.59-1.998-.274-.054-.5.098-.576.295-.086.216.022.466.32.522 3.213.608 4.35.942 6.543 1.814zm-34.142 9.007c2.638-.272 5.64-.862 8.82-1.38.333-.055.456-.34.418-.58-.04-.24-.25-.47-.58-.416-3.16.515-6.142 1.103-8.76 1.374-1.08.112-2.07-.04-2.93-.376-.312-.123-.565.058-.652.285-.09.225-.027.528.284.65 1.013.4 2.166.57 3.4.443zm13.877 5.25c5.264-.82 11.756.069 16.78 2.572.22.11.42.148.57.163.122.01.305.006.384-.135.044-.08.034-.162.01-.222-.026-.06-.067-.118-.117-.168-.102-.103-.264-.216-.478-.328-7.408-3.59-13.064-3.35-17.47-2.85-4.723.533-8.868 1.558-13.386 1.9-.395.028-.503.38-.605.687-.094.283-.265.8 1.148.648 4.474-.473 8.57-1.548 13.164-2.265zm-13.834-2.98c5.003-.52 11.64-2.226 18.005-2.51.327-.013.535-.234.537-.485.003-.26-.213-.47-.546-.456-6.385.284-13.103 1.806-18.123 2.325-1.854.193-3.88-.174-4.854-1.047-.292-.263-1.044.725-.766.975 1.29 1.158 3.742 1.405 5.747 1.198zm31.733.107c.902.418 1.366-.162.35-.68-.825-.423-5.343-2.56-7.756-2.72-.328-.022-.573.182-.643.417-.078.26.068.53.425.556 2.168.143 6.76 2.026 7.625 2.427z"/><g stroke="#000" stroke-linejoin="round" stroke-linecap="round"><path stroke-width=".933" d="M400.04 427.33c-10.344 0-17.105-1.582-26.346-3.254-21.515-3.893-26.193-.935-26.193 2.788 0 1.194 1.106 1.547 1.903 1.188.407-.185.743-.87.743-.87-.758-.008-1.254-.31-1.094-1.248.46-2.718 6.046-3.955 24.642-.928 9.27 1.507 16.01 2.788 26.354 2.788l-.008-.465zm.017 0c10.344 0 17.105-1.582 26.346-3.254 21.515-3.893 26.193-.935 26.193 2.788 0 1.194-1.105 1.547-1.9 1.188-.41-.185-.745-.87-.745-.87.76-.008 1.255-.31 1.095-1.248-.46-2.718-6.046-3.955-24.642-.928-9.27 1.507-16.01 2.788-26.355 2.788l.008-.465z"/><path d="M342.374 416.79c-3.41.546-6.536 1.71-9.73 2.965-8.71 3.42-18.7 2.896-26.44-2.608.54 3.912 2.256 7.317 4.764 10.305.613.727 2.492 2.587 2.492 2.587.313.324.257.532-.187.545-5.928.253-11.312.176-17.14-.91 13.76 15.133 27.585 18.9 46.43 9.743 9.902-4.81 18.15.62 28.04.62 10.49 0 9.5-6.866 7.192-14.623l1.258.135c1.688 4.767 4.34 16.523-8.45 15.573-9.86-.732-17.75-5.755-27.684-1.016-15.295 7.296-26.348 7.192-39.655-2.683-2.714-2.012-7.086-5.63-8.95-8.39-.454-.67.003-1.07.683-.862 5.05 1.568 12.7 1.572 16.594 1.47-3.153-3.17-6.7-9.055-6.546-13.276.02-.546.28-.65.744-.413 7.21 3.735 9.914 5.237 18.32 5.237 4.95 0 15.065-5.592 18.076-5.013l.188.613z"/><path stroke-width=".933" d="M457.723 416.79c3.407.546 6.534 1.71 9.732 2.965 8.708 3.42 18.7 2.896 26.438-2.608-.54 3.912-2.258 7.317-4.766 10.305-.61.727-2.49 2.587-2.49 2.587-.312.324-.257.532.188.545 5.925.253 11.31.176 17.14-.91-13.764 15.133-27.586 18.9-46.433 9.743-9.9-4.81-18.147.62-28.036.62-10.49 0-9.502-6.866-7.193-14.623l-1.256.135c-1.69 4.767-4.342 16.523 8.45 15.573 9.857-.732 17.75-5.755 27.682-1.016 15.293 7.296 26.345 7.192 39.653-2.683 2.714-2.012 7.086-5.63 8.95-8.39.456-.67-.006-1.07-.682-.862-5.05 1.568-12.7 1.572-16.593 1.47 3.15-3.17 6.698-9.055 6.544-13.276-.02-.546-.28-.65-.742-.413-7.21 3.735-9.914 5.237-18.32 5.237-4.954 0-15.065-5.592-18.076-5.013l-.19.613z"/><path d="M399.473 405.15c-11.826.086-21.8-2.068-30.125-3.945-6.9-1.557-14.935-3.336-22.01-2.396-5.152.69-7.256 2.964-6.375 8.16 1.096 6.457 2.06 12.968 3.233 19.404.676 3.715 2.655 4.213 6.146 3.596 5.026-.888 21.147-4.493 24.768.086 3.476 4.39.09 7.558-4.75 7.64-.676.01-.457-.462-.23-.462 4.63 0 7.887-2.68 4.897-6.785-3.15-4.33-18.232-1.156-24.374.28-3.906.91-6.503.408-7.22-4.387-.992-6.61-1.6-11.15-3.695-19.695-3.543-14.446 22.237-7.754 29.664-6.028 10.125 2.35 18.577 3.862 30.584 4.22 12.03-.358 20.483-1.87 30.607-4.22 7.425-1.726 33.207-8.418 29.667 6.028-2.097 8.546-2.706 13.086-3.696 19.695-.718 4.795-3.316 5.297-7.22 4.386-6.144-1.436-21.225-4.61-24.375-.28-2.99 4.105.267 6.784 4.895 6.784.228 0 .446.47-.23.46-4.836-.08-8.225-3.247-4.75-7.638 3.62-4.58 19.742-.974 24.77-.086 3.49.617 5.468.12 6.145-3.596 1.17-6.436 2.137-12.947 3.233-19.405.88-5.196-1.223-7.47-6.38-8.16-7.073-.94-15.106.838-22.005 2.395-8.324 1.877-18.3 4.03-30.126 3.945h-1.05z"/></g><path d="M361.53 417.226c-1.618-.14-4.224-.284-4.224-.284l-.945-12.882 3.132.373.65 10.052c.318.02 1.723.112 2.66.215 1.065.115 2.784.386 2.784.386l.197 2.587s-2.626-.308-4.252-.447zM368.29 417.947l-.706-12.422 3.155.484.704 12.42zM377.81 412.18l1.07.182c1.598.272 1.72-.278 1.71-.95-.017-.81-.393-1.307-2.006-1.583l-.82-.14.046 2.49zm.114 4.937l1.492.255c1.74.295 2.162-.027 2.145-.9-.018-.998-.62-1.598-2.496-1.917l-1.193-.204.054 2.767zm1.834 2.765l-5-.853-.225-12.272 4.495.766c3.086.525 4.75 1.88 4.794 4.21.017.975-.533 1.622-1.135 1.97.868.485 2.1 1.594 2.132 3.22.04 2.28-1.344 3.59-5.062 2.958zM391.53 421.566c-1.67-.158-4.34-.53-4.34-.53l-.122-6.182-.12-6.207 7.122.74.022 1.22.025 1.24-3.982-.414.05 2.55 4.186.432.047 2.305-4.186-.434.05 2.62c.318.05 1.75.27 2.712.356 1.082.097 2.857.134 2.857.134l.046 2.463s-2.698-.136-4.366-.294zM401.918 415.228c1.663-.03 2.392-.737 2.37-1.87-.02-1.188-.535-1.687-2.042-1.66l-1.395.023.062 3.524 1.006-.016zm6.962 6.418c-2.457-.08-3.78-1.313-5.075-2.766l-1.37-1.536c-.195.016-.405.02-.617.024l-.812.015.073 4.33-3.08.05-.214-12.386 4.782-.083c2.744-.048 4.77 1.183 4.818 3.938.024 1.343-.593 2.536-1.85 3.31l1.19 1.244c.67.693 1.416 1.154 2.727 1.47l-.573 2.39zM408.99 411.684l-.014-2.45 10.951-1.51.015 2.45-3.904.54.06 9.886-3.145.432-.06-9.886zM426.623 409.195c-.376 1.346-.774 2.685-1.18 4.023.86-.086 1.76-.24 2.587-.487-.37-1.195-.736-2.39-1.077-3.597l-.33.062zm3.35 8.996l-1.216-3.323c-.645.237-1.34.376-2.04.482-.706.105-1.417.177-2.09.28l-1.33 3.816-3.185.596 3.85-10.625-1.35.253-.024-2.447c2.847-.466 5.61-.985 8.364-1.57l.112 2.43-1.36.256 3.55 9.237-3.28.614zM438.3 417.4c-2.023.035-3.092-.314-4.013-.806l.86-2.296c1.15.384 1.817.544 3.16.52 1.475-.026 2.198-.49 2.208-1.16.008-.448-.334-.762-.918-1.046-.584-.284-1.362-.52-2.14-.822-1.562-.61-3.167-1.503-3.13-3.64.044-2.425 2.752-3.662 4.926-3.7 1.954-.035 3.05.365 4 .766l-.79 2.226c-.962-.26-1.927-.486-3.163-.463-1.22.02-1.932.653-1.94 1.106-.008.35.335.63.938.915.59.28 1.384.54 2.175.87 1.587.664 3.217 1.63 3.182 3.635-.05 2.76-2.82 3.852-5.355 3.895z"/></svg>