<svg xmlns="http://www.w3.org/2000/svg" width="675" height="450"><title>Flag of Sint Maarten</title><path d="M0 0l298.57 225.24H675V0z" fill="#dc171d"/><path d="M0 0l299.005 225.746L0 450z" fill="#fff" stroke="#fff"/><path d="M0 450l298.57-224.76H675V450z" fill="#012a87"/><path d="M150.828 170.285l.092-3.483s-1.87-2.98.3-6.18c0 0-4.612-2.44-3.54-6.262 0 0-4.17-1.067-3.862-5.654 0 0-4.502-.312-4.968-4.145 0 0-4.502.743-6.483-2.992 0 0-4.392.86-5.63-2.22 0 0-4.27 1.48-6.802-2.14 0 0-4.508 1.82-6.397-1.594-1.865 3.404-6.373 1.594-6.373 1.594-2.502 3.606-6.8 2.11-6.8 2.11-1.197 3.09-5.576 2.213-5.576 2.213-1.976 3.736-6.472 2.994-6.472 2.994-.442 3.82-4.937 4.133-4.937 4.133.356 4.6-3.808 5.642-3.808 5.642 1.098 3.82-3.508 6.253-3.508 6.253 2.226 3.22.374 6.176.374 6.176l-.104 3.21 74.506.345" fill="#ff0"/><path d="M377.175 843.108l.09-3.46s-1.856-2.956.3-6.135c0 0-4.578-2.422-3.513-6.215 0 0-4.14-1.058-3.835-5.612 0 0-4.468-.31-4.93-4.115 0 0-4.47.737-6.435-2.97 0 0-4.36.852-5.588-2.204 0 0-4.237 1.468-6.75-2.124 0 0-4.476 1.808-6.35-1.583-1.85 3.378-6.325 1.582-6.325 1.582-2.485 3.58-6.752 2.094-6.752 2.094-1.187 3.068-5.533 2.197-5.533 2.197-1.96 3.708-6.423 2.97-6.423 2.97-.438 3.794-4.9 4.104-4.9 4.104.353 4.565-3.78 5.6-3.78 5.6 1.09 3.793-3.482 6.21-3.482 6.21 2.21 3.196.37 6.13.37 6.13l-.102 3.19 73.95.34h-.013z" fill="#f9d90f" stroke="#000" stroke-width=".271" transform="translate(-229.2 -679)"/><path d="M146.246 159.79c-11.615-1.162-24.99-3.92-35.313 1.895-6.92-4.08-16.557-3.83-24.763-3.032-4.456.798-9.697.798-14.354 1.56l-.73.102c-8.45.56-16.114-1.936-23.455-5.217 2.332 13.234 4.92 26.797 6.192 40.652 2.77 20.52-9.71 37.747-4.59 58.018 3.056 9.727 13.75 15.382 23.54 16.503 9.478.56 19.284 2.113 28.056 4.018 1.668.347 3.646 1.12 4.797 1.62 2.417 1.01 4.188 2.496 5.74 4.084 5.296-5.515 13.058-7.05 20.716-7.86 13.8-1.612 30.815-.735 39.264-13.238v-.707c4.59-6.915 3.98-17.464 1.99-25.3-.133-2.732-.864-5.143-1.26-7.748-8.43-22.27-1.21-47.312 2.417-69.756-4.43 2.423-9.373 3.567-14.304 4.78-3.933.523-8.315.285-12.297.07l-1.65-.443" fill="#dc171d"/><path d="M163.595 223.697c-.055 1.466.736 2.617 1.022 3.974 1.614 9.735 3.172 22.628-6.848 28.667-11.086 7.05-25.622 4.03-38.45 7.76-2.56.713-6.092 3.07-7.894 4.737-1.156-.76-2.32-1.93-3.81-2.617-10.556-5.613-24.277-3.732-36.19-6.764-5.984-1.892-12.223-6.555-13.74-12.68-3.895-16.07 5.437-29.766 4.335-45.71-.71-12.174-2.756-23.862-5.57-35.275 9.315 4.34 20.096 5.064 30.566 2.983 7.755-1.084 16.783-1.107 24.05 2.174 4.007-1.724 8.694-2.497 13.01-2.972 8.205.8 17.026 2.283 25.475 2.223 5.644-.293 10.77-1.924 15.676-4.097-2.91 18.864-8.498 38.624-1.637 57.6" fill="#62afe1"/><path d="M146.842 227.458l-.09-17.738h2.184l-27.113-17.514-.048-9.1h2.617l-13.556-9.71-13.49 9.704h2.612l.048 9.094-26.967 17.49 2.154.01.092 17.728 71.55.05" fill="#fff"/><path d="M146.842 227.458l-.09-17.738h2.184l-27.113-17.514-.048-9.1h2.617l-13.556-9.71-13.49 9.704h2.612l.048 9.094-26.967 17.49 2.154.01.092 17.728 71.55.05.006-.014z" fill="none" stroke="#000" stroke-width="1.164"/><path d="M155.176 250.76l.006 5.552-87.347-.097-.037-5.528 87.384.074" fill="#fff"/><path d="M155.176 250.76l.006 5.552-87.347-.097-.037-5.528 87.384.074h-.006z" fill="none" stroke="#000" stroke-width="1.164"/><path d="M73.636 250.426l-.073-18.785 3.536-.006-.195 19.004.213-18.852-5.095-.146v-4.03l78.064.086.036 3.993h-4.815l.092 19.022-.17-19.023h3.585l.08 18.808" fill="#fff"/><path d="M73.636 250.426l-.073-18.785 3.536-.006-.195 19.004.213-18.852-5.095-.146v-4.03l78.064.086.036 3.993h-4.815l.092 19.022-.17-19.023h3.585l.08 18.808" fill="none" stroke="#000" stroke-width="1.164"/><path d="M90.42 245.8l-.056-13.1H79.882l.06 13.087 10.477.013" fill="none" stroke="#000" stroke-width="1.164"/><path d="M82.737 235.432l.03 7.61h4.797l-.025-7.61h-4.803M141.662 245.836l-.06-13.087-10.447-.014.05 13.1h10.457" fill="none" stroke="#000" stroke-width="1.164"/><path d="M133.98 235.48l.055 7.586h4.79l-.042-7.585h-4.803M141.583 224.506l-.06-13.1h-10.46l.037 13.1h10.49-.007z" fill="none" stroke="#000" stroke-width="1.164"/><path d="M133.9 214.163l.03 7.597h4.792l-.006-7.597H133.9M90.334 224.458l-.073-13.076-10.464-.013.05 13.08h10.488v.008z" fill="none" stroke="#000" stroke-width="1.164"/><path d="M82.65 214.115l.026 7.585 4.803.012-.038-7.597h-4.79M109.302 224.48l-.05-13.074-10.47-.012.043 13.087h10.477" fill="none" stroke="#000" stroke-width="1.164"/><path d="M101.626 214.127l.024 7.585 4.797.024-.03-7.61h-4.79M123.924 224.506l-.074-13.1-10.464-.012.05 13.087 10.487.026" fill="none" stroke="#000" stroke-width="1.164"/><path d="M116.235 214.14l.037 7.61h4.797l-.026-7.61h-4.81" fill="none" stroke="#000" stroke-width="1.164"/><path d="M126.517 220.488l.115 30.2-30.333-.05-.11-30.174 30.32.024" fill="#fff"/><path d="M126.517 220.488l.115 30.2-30.333-.05-.11-30.174 30.32.024h.007zM96.007 229.108l30.54.024M99.818 250.675l-.104-21.342M122.943 250.687l-.103-21.33M137.59 207.626l-17.08-12.474-19.195-.024-16.947 12.45 53.222.048M102.794 184.8l.03 7.608 16.144.012-.03-7.61-16.144-.012" fill="none" stroke="#000" stroke-width="1.164"/><path d="M107.17 186.686l.026 3.79h7.414l-.024-3.79h-7.415M110.836 176.142l8.98 6.35-17.892-.025 8.912-6.325" fill="none" stroke="#000" stroke-width="1.164"/><path d="M147.14 171.838c2.55-.06 3.21 10.507 3.215 15.742 2.19.615 7.05 3.67 9.198 6.434l-24.642-.036c2.12-2.727 6.94-5.796 9.114-6.41 0-5.242.536-15.802 3.117-15.742" fill="#fff"/><path d="M147.14 171.838c2.55-.06 3.21 10.507 3.215 15.742 2.19.615 7.05 3.67 9.198 6.434l-24.642-.036c2.12-2.727 6.94-5.796 9.114-6.41 0-5.242.536-15.802 3.117-15.742M97.608 221.335h2.21l-.646 1.186s1.066 1.37.02 2.94l.577 1.092h-2.132l.58-1.036s-1.09-1.82.047-2.995l-.657-1.185M102.113 221.335h2.21l-.64 1.186s1.065 1.335.006 2.94l.57 1.092h-2.123l.572-1.036s-1.066-1.82.054-2.995l-.652-1.185M107.025 221.335h2.204l-.66 1.186s1.08 1.37.02 2.94l.578 1.115-2.112-.023.566-1.036s-1.078-1.808.042-2.995l-.645-1.185h.005zM112.57 221.346h2.222l-.65 1.2s1.064 1.345.005 2.92l.597 1.11H112.6l.573-1.035s-1.065-1.832.073-2.994l-.67-1.2h-.005zM117.5 221.346h2.205l-.65 1.2s1.07 1.345.01 2.915l.585 1.115h-2.124l.554-1.034s-1.072-1.82.085-2.994l-.664-1.2M122.402 221.36l2.203-.014-.65 1.2s1.09 1.345.03 2.92l.553 1.11h-2.13l.572-1.035s-1.065-1.82.073-2.994l-.65-1.188" fill="none" stroke="#000" stroke-width="1.164"/><path d="M111.5 289.397c11.358.036 25.33-2.283 31.873-5.667l14.372-1.273.286 17.538c-12.174 6.714-40.285 8.157-46.47 8.108-6.19.05-34.65-1.418-46.88-8.156l.16-17.55 14.402 1.296c6.544 3.367 20.94 5.704 32.288 5.704h-.03" fill="#f9d90f"/><path d="M111.5 289.397c11.358.036 25.33-2.283 31.873-5.667l14.372-1.273.286 17.538c-12.174 6.714-40.285 8.157-46.47 8.108-6.19.05-34.65-1.418-46.88-8.156l.16-17.55 14.402 1.296c6.544 3.367 20.94 5.704 32.288 5.704h-.03" fill="none" stroke="#000" stroke-width=".271"/><path d="M27.683 214.59l12.66 4.03-3.828 20.502-11.986 1.862s-2.022-10.78 3.153-26.407" fill="#f9d90f"/><path d="M27.683 214.59l12.66 4.03-3.828 20.502-11.986 1.862s-2.022-10.78 3.153-26.407v.012z" fill="none" stroke="#000" stroke-width=".271"/><path d="M36.51 238.896l-11.98 2.088 7.578-10.78 4.4 8.692" fill="#7e7e7e"/><path d="M36.51 238.896l-11.98 2.088 7.578-10.78 4.4 8.692" fill="#f9b60f" stroke="#000" stroke-width=".271"/><path d="M20.11 229.358l12.205.882c.274 10.343 1.528 49.813 48.656 51.956l-1.466 14.36c-57.367.596-61.726-48.413-59.394-67.198" fill="#f9d90f"/><path d="M20.11 229.358l12.205.882c.274 10.343 1.528 49.813 48.656 51.956l-1.466 14.36c-57.367.596-61.726-48.413-59.394-67.198zM64.907 299.496l14.384-3.14" fill="none" stroke="#000" stroke-width=".271"/><path d="M194.318 214.735l-12.613 3.994 4 20.47 12.01 1.93s1.93-10.774-3.397-26.406" fill="#ff0"/><path d="M194.318 214.735l-12.613 3.994 4 20.47 12.01 1.93s1.93-10.774-3.397-26.406v.012z" fill="#f9d90f" stroke="#000" stroke-width=".271"/><path d="M185.704 238.987l12.01 2.155-7.682-10.786-4.328 8.63" fill="#7e7e7e"/><path d="M185.704 238.987l12.01 2.155-7.682-10.786-4.328 8.63" fill="#f9b60f" stroke="#000" stroke-width=".271"/><path d="M202.03 229.522l-12.223.834c-.177 10.33-1.078 49.818-48.206 51.913l1.602 14.347c57.355.663 61.3-48.322 58.828-67.1" fill="#f9d90f"/><path d="M202.03 229.522l-12.223.834c-.177 10.33-1.078 49.818-48.206 51.913l1.602 14.347c57.355.663 61.3-48.322 58.828-67.1v.004zM157.836 299.575l-14.42-3.16" fill="none" stroke="#000" stroke-width=".271"/><path d="M103.872 298.04c-.323.208-.76.263-1.266.238l-2.277-.115.194-2.843 2.258.122c.445.03.798.116 1.017.25.455.237.656.675.614 1.284-.03.523-.213.865-.548 1.065m-3.823 4.476l.225-3.465 2.654.185c.858.067 1.498-.16 1.93-.598.45-.426.682-.985.712-1.618.055-.738-.134-1.34-.572-1.785-.42-.427-1.017-.652-1.765-.724l-3.793-.237-.523 8.157 1.127.074M108.297 295.69l2.776.032c.402.036.718.085.95.194.426.2.627.603.627 1.187 0 .55-.16.914-.47 1.133-.297.2-.73.292-1.247.292l-2.666-.03.024-2.807m-.04 7.227l.023-3.482 2.605.037c.463 0 .804.036 1.04.152.385.176.573.548.592 1.06l.067 1.368c.018.33.024.53.042.664.036.097.054.2.103.274h1.4l-.024-.177c-.16-.085-.288-.25-.342-.5-.05-.157-.073-.395-.086-.693l-.024-1.09c-.018-.493-.103-.833-.292-1.022-.164-.22-.39-.408-.737-.524.39-.206.68-.443.894-.736.2-.323.305-.73.305-1.23 0-.937-.385-1.577-1.164-1.923-.42-.19-.956-.287-1.59-.298l-3.913-.037-.03 8.18h1.126M116.935 301.206c-.5-.608-.767-1.37-.828-2.27-.054-1.133.165-1.996.682-2.58.523-.634 1.198-.938 2.08-.987.89-.05 1.62.236 2.162.796.554.548.87 1.31.925 2.26.03.91-.128 1.72-.548 2.433-.415.724-1.102 1.132-2.12 1.156-1.058.055-1.85-.194-2.355-.81m-1.34-5.15c-.522.81-.736 1.747-.68 2.88.078 1.223.456 2.234 1.168 2.995.79.762 1.838 1.145 3.13 1.072 1.38-.06 2.422-.584 3.128-1.546.573-.87.847-1.88.786-3.13-.08-1.113-.402-2.02-1.004-2.696-.76-.907-1.875-1.308-3.385-1.247-1.424.09-2.47.614-3.147 1.673M154.038 284.29c.785-.134 1.467-.097 2.088.115.913.286 1.528.963 1.91 1.997l-1.125.158c-.243-.56-.59-.943-1.058-1.157-.457-.2-1.03-.25-1.687-.15-.767.115-1.38.497-1.814 1.113-.425.657-.553 1.534-.364 2.653.158.925.5 1.71 1.06 2.233.517.536 1.278.725 2.27.585.743-.122 1.34-.42 1.76-.932.438-.486.565-1.223.42-2.173l-2.624.403-.134-.9 3.652-.562.712 4.328-.724.11-.45-1c-.305.452-.61.8-.877 1-.45.353-1.058.58-1.82.688-.985.152-1.886-.025-2.702-.548-.895-.664-1.473-1.65-1.692-3.02-.238-1.344-.025-2.495.596-3.402.59-.876 1.45-1.388 2.606-1.553M162.298 283.656l2.618-.95c.36-.133.67-.176.937-.145.48.037.834.323 1.035.896.19.487.19.913-.024 1.212-.226.31-.58.535-1.09.723l-2.46.884-1.016-2.618m2.618 6.764l-1.28-3.28 2.436-.878c.457-.146.773-.225 1.01-.2.433.054.762.316.98.815l.555 1.248c.122.31.22.5.298.585.037.11.116.176.177.25l1.32-.488-.072-.176c-.195 0-.384-.11-.524-.324-.103-.15-.2-.37-.34-.626l-.433-1.023c-.195-.445-.396-.718-.627-.883-.23-.128-.524-.213-.87-.237.267-.31.462-.62.535-.987.08-.37.044-.784-.133-1.247-.335-.87-.95-1.346-1.814-1.407-.456-.037-.98.06-1.583.273l-3.676 1.31 2.97 7.693 1.078-.396M174.49 286.366l-4.668-6.812 5.126-3.27.566.823-4.2 2.684 1.436 2.083 3.878-2.496.53.797-3.878 2.497 1.582 2.296 4.274-2.734.566.804-5.217 3.33M178.576 274.325l1.34-1.474c.62-.656 1.277-.954 1.996-.87.718.062 1.448.44 2.228 1.12.213.165.4.378.596.616.34.444.542.834.67 1.223.11.487.085.93-.085 1.357-.103.213-.286.462-.56.76l-1.345 1.462-4.84-4.207m7.074 3.207c.95-1.046 1.156-2.172.602-3.444-.323-.69-.816-1.36-1.498-1.943-.858-.76-1.753-1.15-2.696-1.223-1.047-.08-1.936.298-2.71 1.144l-2.282 2.447 6.294 5.492 2.283-2.46M190.525 271.17l-7.244-4.254.592-.937 7.256 4.23-.597.973M193.368 266.23l-7.822-3.13 2.307-5.504.95.366-1.882 4.535 2.357.926 1.76-4.177.9.372-1.74 4.17 2.635 1.07 1.93-4.59.95.36-2.35 5.6M196.96 256.623l-8.23-1.82.273-1.272 7.603-2.568-6.677-1.473.242-1 8.23 1.77-.262 1.237-7.615 2.624 6.678 1.444-.237 1.06M196.308 246.17l.104-1.034c.474.012.876-.06 1.18-.225.597-.322.944-.936 1.035-1.844.037-.426.02-.797-.08-1.15-.175-.682-.56-1.06-1.174-1.12-.456-.05-.785.06-1.022.31-.212.287-.437.7-.608 1.285l-.377 1.078c-.244.706-.47 1.193-.713 1.467-.39.512-.937.688-1.637.64-.75-.08-1.358-.378-1.79-.95-.444-.524-.627-1.272-.517-2.198.073-.846.353-1.558.852-2.13.463-.524 1.18-.774 2.1-.676l-.085 1.035c-.45 0-.81.08-1.07.262-.476.262-.738.816-.817 1.625-.067.67.024 1.12.28 1.462.256.286.578.468.956.5.4.035.718-.093.937-.403.16-.212.348-.675.604-1.424l.37-1.132c.184-.523.403-.925.66-1.21.455-.476 1.052-.677 1.8-.622.913.097 1.565.475 1.9 1.17.328.7.456 1.472.377 2.35-.102.99-.425 1.77-1.022 2.294-.596.535-1.34.718-2.24.645M25.698 245.672l.19 1.022c-.458.09-.823.275-1.09.512-.482.45-.646 1.126-.482 2.045.073.39.213.774.39 1.08.365.62.84.87 1.443.77.443-.078.735-.248.875-.564.134-.31.23-.786.262-1.394l.055-1.15c.036-.714.115-1.273.274-1.584.25-.56.718-.907 1.418-1.022.75-.135 1.406.036 1.972.462.572.396.95 1.083 1.09 1.997.176.834.097 1.583-.23 2.258-.318.658-.927 1.06-1.858 1.23l-.183-1.035c.433-.158.755-.31.968-.523.365-.41.475-.998.335-1.808-.11-.658-.335-1.084-.676-1.297-.334-.25-.67-.347-1.035-.286-.407.06-.675.286-.803.652-.08.242-.14.748-.195 1.52l-.056 1.194c-.03.56-.115 1.023-.304 1.34-.298.584-.804.943-1.54 1.058-.932.16-1.65-.054-2.16-.65-.525-.585-.847-1.285-1.012-2.156-.182-1.035-.048-1.838.366-2.483.42-.664 1.083-1.048 1.984-1.176M25.18 256.465l8.048-2.423 1.875 5.667-.98.31-1.534-4.658-2.448.738 1.418 4.303-.937.298-1.406-4.314-2.728.815 1.558 4.76-.962.276-1.905-5.77M28.748 266.29l7.402-3.927.79 1.382-5.088 5.38 7.433-1.27.767 1.37-7.384 3.9-.523-.907 4.358-2.294c.158-.092.402-.226.755-.414.347-.158.737-.372 1.126-.573l-7.402 1.26-.542-.962 5.053-5.362-.244.122c-.16.09-.433.225-.804.438-.366.225-.64.365-.816.438l-4.346 2.332-.536-.924M42.542 277.192c-.372-.085-.737-.3-1.096-.67l-1.564-1.613 2.106-1.93 1.576 1.607c.305.298.5.59.603.84.146.48 0 .92-.444 1.332-.402.37-.804.523-1.18.432m-5.95.748l2.582-2.368 1.833 1.857c.59.602 1.193.876 1.826.864.645-.037 1.2-.274 1.686-.737.548-.487.81-1.06.81-1.674-.006-.597-.28-1.156-.785-1.68l-2.63-2.685-6.124 5.625.792.797M43.978 284.515l4.438-6.958 5.247 3.19-.548.828-4.31-2.58-1.332 2.105 3.962 2.404-.51.798-3.97-2.392-1.51 2.355 4.365 2.624-.523.82-5.31-3.195M57.115 283.17l2.666.846c.38.115.652.26.835.426.34.323.432.785.23 1.345-.163.487-.413.804-.802.938-.347.06-.785.06-1.297-.098l-2.514-.803.883-2.655m-2.3 6.836l1.107-3.318 2.483.81c.445.116.767.274.926.438.305.274.396.682.244 1.187l-.37 1.32c-.086.323-.13.537-.166.634 0 .104 0 .214.02.286l1.308.426.08-.19c-.14-.11-.22-.31-.214-.56.03-.152.073-.395.158-.675l.316-1.06c.128-.462.177-.81.06-1.058-.096-.262-.26-.5-.534-.724.414-.074.773-.202 1.077-.427.285-.25.53-.597.675-1.083.298-.883.134-1.62-.524-2.18-.327-.292-.796-.542-1.41-.773l-3.726-1.15-2.606 7.76 1.09.336" fill="#012a87"/><path d="M66.118 148.76c.962-2.318 9.874-8.643 39.117-5.873 0 0 4.943 3.02 7.847 2.63 1.656-.214-.974.103-3.135-1.693-2.204-1.795-2.672-5.478 2.362-5.38 5.01.127 23.764 1.186 24.117 2.872.33 1.704-9.916 2.417-13.727 2.32-3.83-.104-3.385 1.832.426 1.686 11.907-.426 24.903-4.62 38.63 5.09 1.638 1.18-4.14 1.368-8.607-.53 0 0-12.11.626-17.344-.232 0 0-4.024 3.275-9.265 2.953.683 1.697-1.935 8.035-18.413 3.268-2.72.835-12.637 2.497-11.554-.45-2.61 0-7.19.84-7.87-.645-.658-1.46 8.06-3.67 9.587-5.253 0 0-18.44.177-21.933-1.096 0 0-10.878 2.44-10.24.323" fill="#bc715f"/><path d="M72.03 174.583c.395-.535.553-1.497 1.393-1.472 1.826.487 3.068 3.83 5.314 1.662.798-.176 1.102.908 1.76 1.035.42 1.857 1.91-.377 3.025-.25 2.38-1.06 5.326-1.308 8.145-.785.085 1.82-1.34 3.83-3.13 4.864.037 1.833 1.7 3.008 1.67 4.85-.287.69-.05 1.773-1.09 1.998-1.322-.237-2.625-.377-3.72-1.114-.134-.134-.244-.396-.524-.31-.134.614.828 1.224 1.205 1.85-.663 1.132-1.765.098-2.69.11-.274.65-.012 1.473-.682 1.893-1.17-.037-1.406-1.308-2.124-1.942-.737.8.517 1.273.694 1.906-.45 2.4-.39 4.742-2.788 6.313l-1.608.797c-.438-1.205-.164-3.032-.456-4.292-.95 1.546-1.692 2.898-3.086 4.206-1.632-.534-2.58-2.458-2.94-4.053-.682-1.857-.293-4.078 1.174-5.424-.5-.974-2.21-.75-2.453-2.136-2.564-1.668-3.982 2.922-5.638.535-.535-2.227.104-4.997 1.717-6.66-.36-.912-1.553-.674-2.26-1.198-1.613-1.37-3.938-2.818-3.822-5.29 4.413-1.668 9.69-.444 12.9 2.91" fill="#008830"/><path d="M74.318 174.334c-.104 2.02 1.363.548 2.453 1.77-.85-.334-1.472 1.474-2.306.44l-.524.5c.305.693.895.784.28 1.545-.913.346-1.095-.798-1.522-1.25-.073-.2.14-.577-.194-.71-.518.437-1.06.595-1.772.523-.195-.39-.572-.9-.188-1.2.7-.944 1.783.34 2.313-.322.085-.583-.426-1.296.237-1.698.457.08 1.04-.17 1.23.402M79.778 175.99c.055.39-.2.937.31 1.212.664-.36 1.37-.086 1.754.572-.006.352.103.815-.36.985l-1.034-.195c.073-.2-.256-.33-.384-.523-.456-.14-.724.23-1.065.455.255.39.845.603.705 1.103-.61.608-.907-.524-1.577-.238-.456-.176.165-1.126-.554-1.412-.852 0-.286 1.4-1.375.852-.39-.438-.774-1.028-.354-1.52.456-.306 1.23-.227 1.62.168.662-.735.73-3.578 2.318-1.46M72.978 178.924c.445.64-.097 1.51.47 2.22.888-1.66 1.746.36 2.805.202.323.396.11.945.17 1.394-1.308.347-2.884.76-4.04-.286l-.324.372c.687.64 1.34 1.363.79 2.435-.98.214-2.495.238-2.988-.773-.256-.833.596-1.436-.305-2.106-.65.81-.62 1.895-1.978 1.158-.84-.463-1.09-1.418-.67-2.222.876-1.382 2.41.043 3.36-.633.134-1.187-.305-2.222.785-2.88.93-.164 1.363.536 1.93 1.12" fill="#f9d90f"/><path d="M76.692 179.648c-.44 2.02-1.96-.103-2.673-.19.95-1.684 1.546.55 2.672.19M81.434 181.846c-1.06.298-.895-1.023-1.42-1.54l.41-.372c.383.463.675 1.297 1.01 1.912" fill="#fff"/><path d="M79.997 181.444c.305.7-.688 1.26.158 1.77.268-.223.597-.535.737-.662.724.213 1.565.34 2.07 1.06.542 1.485-.962 1.448-1.814 1.862l-.846-.037c.2-.414-.366-.59-.506-.876-.39-.096-.712.025-.93.354.188.944 1.338 1.68.15 2.52-1.003-.067-2.562.322-2.47-1.066-.378-.785 1.022-1.996-.475-2.044-.492 1.06-1.034 2.08-2.318 1.077l.158-1.508c1.23.035 2.684.248 3.238-1.127.353-.998-.614-1.917.25-2.71 1.254-.285 1.96.555 2.6 1.39" fill="#f9d90f"/><path d="M79.096 183.714c.317.75-.535.798-.937 1.17-.543.042-.92-.17-1.25-.537-.243-.907.433-.998.95-1.356.603-.25.853.45 1.236.724"/><path d="M78.36 184.2c-.134.178-.323.124-.524.172l-.188-.907c.4.036.925.164.712.736" fill="#fff"/></svg>