<svg xmlns="http://www.w3.org/2000/svg" width="600" height="400"><title>Flag of Swaziland</title><path fill="#3e5eb9" d="M0 0h600v400H0z"/><path fill="#ffd900" d="M0 75h600v250H0z"/><path fill="#b10c0c" d="M0 100h600v200H0z"/><g fill="#ffd900" stroke="#000" stroke-width="1.008"><rect stroke-width="1.08" width="485.7" height="8.571" x="59.812" y="195.72" rx="4.223" ry="4.286"/><path fill="#fff" d="M492.85 154.28l-24.285 8.57 24.285 8.573 24.285-8.572-24.285-8.57z"/><rect width="357.13" height="5.714" x="122.85" y="160" rx="3.106" ry="2.857"/><path d="M471.44 165.71c1.427 0 2.858-1.43 2.858-2.857 0-1.43-1.43-2.858-2.858-2.858M468.58 165.71c1.427 0 2.858-1.43 2.858-2.857 0-1.43-1.43-2.858-2.858-2.858M465.72 165.71c1.427 0 2.858-1.43 2.858-2.857 0-1.43-1.43-2.858-2.858-2.858"/><path fill="#fff" d="M469.99 171.43L445.705 180l24.285 8.573L494.275 180l-24.285-8.57z"/><rect width="357.13" height="5.714" x="99.997" y="177.14" rx="3.106" ry="2.857"/><path d="M448.58 182.86c1.427 0 2.858-1.43 2.858-2.857 0-1.43-1.43-2.858-2.858-2.858M445.72 182.86c1.427 0 2.858-1.43 2.858-2.857 0-1.43-1.43-2.858-2.858-2.858M442.86 182.86c1.427 0 2.858-1.43 2.858-2.857 0-1.43-1.43-2.858-2.858-2.858"/></g><path fill="#fff" stroke="#000" stroke-width="1.008" d="M442.85 200c-28.57 28.57-66.668 85.71-142.86 85.71-66.668 0-114.28-57.14-142.86-85.71 28.57-28.574 76.188-85.716 142.86-85.716 76.188 0 114.28 57.142 142.86 85.716z"/><path d="M290.02 144.1c7.6 8.55 1.254 11.996 9.3 12.557 8.484.623 3.675 9.034 10.812 9.326 4.99.218-.5 20.15 4.305 26.73 4.893 6.856 8.99 2.008 9.077 6.962.084 5.124-13.317 4.607-13.552 20.39-.393 9.096-11.31 9.678-11.83 15.53-.65 5.506 21.506 8.597 21.21 13.524-.304 4.912-23.922 4.143-24.95 9.746-.528 5.032 32.446 9.157 35.098 23.713-4.92 1.608-18.92 3.123-29.5 3.13-66.656.05-114.28-57.146-142.85-85.715C185.713 171.42 233.33 114.28 300 114.28c0 0-19.788 18.08-9.97 29.814z"/><g fill="#fff"><path d="M210.47 169.52h6.926v22.857h-6.926zM210.47 207.62h6.926v22.857h-6.926zM224.32 169.52h6.926v22.857h-6.926zM224.32 207.62h6.926v22.857h-6.926zM238.18 169.52h6.926v22.857h-6.926zM238.18 207.62h6.926v22.857h-6.926zM252.03 169.52h6.926v22.857h-6.926zM252.03 207.62h6.926v22.857h-6.926zM265.88 169.52h6.926v22.857h-6.926zM265.88 207.62h6.926v22.857h-6.926zM279.73 169.52h6.926v22.857h-6.926zM279.73 207.62h6.926v22.857h-6.926z"/></g><path d="M315.23 169.52h6.926v22.857h-6.926zM315.23 207.62h6.926v22.857h-6.926zM329.08 169.52h6.926v22.857h-6.926zM329.08 207.62h6.926v22.857h-6.926zM342.94 169.52h6.926v22.857h-6.926zM342.94 207.62h6.926v22.857h-6.926zM356.79 169.52h6.926v22.857h-6.926zM356.79 207.62h6.926v22.857h-6.926zM370.64 169.52h6.926v22.857h-6.926zM370.64 207.62h6.926v22.857h-6.926zM384.49 169.52h6.926v22.857h-6.926zM384.49 207.62h6.926v22.857h-6.926z"/><g fill="#a70000"><path fill="#3d5da7" stroke="#000" stroke-width=".855" d="M511.35 196.6c-4.328 7.496 3.32-2.493 21.985 10.056 3.46 2.33 6.48 8.49 6.48 12.76-.877-.588-1.53-1.895-2.496-2.744-1.355 1.358 1.29 7.578 1.678 10.517-2.917-1.634-2.636-2.407-3.606-4.413.194 2.425-.5 9.107.66 11.68-2.3-.657-2.148-2.508-3.35-2.88.82 2.912-.71 6.08-.305 9.355-1.344-1.33-2.775-2.372-3.4-2.91-.104 1.56-2.584 5.657-2.64 7.13-1.14-.688-1.45-1.762-1.64-2.485-1.418 1.78-6.455 8.358-6.778 10.364-3.882-3.427-13.824-11.774-15.118-16.205-1.144 2.515-2.8 3.364-6.073 5.2-1.294-7.022-6.13-14.915-3.544-20.934-1.833 1.088-3.342 2.175-5.174 3.513 1.735-10.17 10.587-22.095 23.32-28z"/><path d="M495.21 233.72c1.797-3.592 3.452-4.73 4.613-7.044 2.05-4.064 2.344-7.3 4.13-6.825 1.788.475 1.786 2.14-.53 6.137-2.314 3.997-3.414 4.85-8.213 7.733zM507.36 242.28c-.23-2.735.562-3.877.417-5.638-.246-3.1-1.514-5.226.134-5.378 1.65-.15 2.42.906 2.424 4.03.005 3.122-.478 3.942-2.974 6.986zM516.58 247.64c-.72-3.818-.18-5.51-.642-7.97-.802-4.33-2.39-7.178-.862-7.574 1.527-.396 2.45 1.004 3.027 5.393.58 4.388.273 5.594-1.523 10.15zM526.17 220.89c-2.252-1.71-3.566-1.824-5.02-2.922-2.557-1.928-3.85-3.99-4.674-2.966-.823 1.024-.24 2.144 2.442 3.922 2.68 1.778 3.588 1.918 7.252 1.966zM524.58 233.56c-1.187-2.465-2.436-3.09-3.204-4.676-1.357-2.787-1.36-5.198-2.83-4.58-1.473.618-1.592 1.88-.017 4.578 1.573 2.697 2.397 3.185 6.05 4.678z"/><path fill="#3d5da7" stroke="#000" stroke-width="1.067" d="M80.783 203.82c-.242-2.183.225-2.444-1.118-4.09 1.955.817 2.03 2.99 4.406 1.448.874-.452 1.255-.466.194-2.89 2.48.114 10.596 2.898 11.896 2.962 3.413.157 9.644-3.585 13.97 1.016 4.15 4.196 2.764 8.55 2.764 14.362-1.668-.8-.865-1.192-2.635-3.27 1.327 5.08-.072 14.237-.072 19.624-.68-1.3-.58-.735-1.247-2.08-1.77 4.916-3.89 5.928-3.89 11.74-.64-2.28-.023-1.798-.733-2.996-1.72 3.732-13.26 6.923-8.813 10.686-4.014-2.353-5.774-2.107-7.595-4.223-.784.505-1.408 1.463-2.137 2.776-7.056-3.247-4.533-10.25-10.062-14.928-.955 1.96-.52 1.677-1.553 4.87-1.12-4.435-1.425-7.252-2.684-10.512-1.087 1.807-.99 1.114-2.96 3.845-.817-5.4-2.145-6.675-1.62-10.25-2.096 1.48-.724.88-2.82 2.7 1.986-13.84 10.56-24.066 16.71-20.79z"/><path d="M72.1 226.41c1.82-4.456 3.458-5.855 4.633-8.724 2.074-5.042 2.412-9.073 4.155-8.458 1.744.615 1.715 2.69-.617 7.646-2.33 4.954-3.422 6.004-8.17 9.536zM78.985 237.56c.73-3.995 1.88-5.45 2.352-8.023.84-4.524.37-7.892 1.99-7.715 1.62.177 1.987 1.884.91 6.385-1.078 4.5-1.822 5.566-5.252 9.353zM87.22 245.31c.204-3.873 1.112-5.385 1.247-7.88.247-4.387-.598-7.53.947-7.547 1.545-.017 2.095 1.56 1.622 5.953-.474 4.393-1.046 5.49-3.817 9.474zM104.9 219.98c-3.38-3.368-5.425-3.997-7.606-6.163-3.842-3.805-5.698-7.376-7.066-6.11s-.545 3.163 3.5 6.784c4.045 3.62 5.452 4.148 11.172 5.49zM102.84 233c-2.202-3.382-3.818-4.258-5.24-6.434-2.507-3.824-3.368-7.11-4.79-6.297-1.422.813-1.105 2.53 1.613 6.237 2.717 3.706 3.81 4.388 8.417 6.493z"/><path fill="#3d5da7" stroke="#000" stroke-width=".826" d="M253.8 129.5c-3.958 7.655 6.93-2.546 23.998 10.27 3.163 2.38 7.697 11.786 7.697 16.146-3.634-.773-10.07-4.36-10.07-4.36s7.553 7.564 7.553 16.284c-2.67-1.668-4.004-1.418-4.89-3.466 0 2.823 2.373 4.622 2.373 8.98-1.925-1.535-3.556-2.56-5.186-3.46 2.517 4.36-4.587 12.82-1.03 15.642-6.22-.9-12.58-4.872-15.098-9.232-1.335.9-1.48 2.31-1.532 3.816.197.163-9.464-7.17-8.577-9.988-1.296 1.818-1.478 2.817-1.774 4.866-3.55-3.5-6.802-7-7.986-11.525-1.577 2.05-1.676 2.05-3.253 4.097-1.183-7.17-1.183-6.915 1.183-13.06-1.676 1.11-3.056 2.22-4.732 3.585 1.588-10.385 9.683-22.563 21.325-28.594z"/><path d="M244.04 166.9c.633-5.275 2.012-7.262 2.424-10.66.735-5.973-.137-10.34 1.98-10.23 2.117.11 2.727 2.315 1.68 8.277-1.046 5.96-1.928 7.41-6.084 12.614zM255.09 176.56c-.43-4.45.393-6.345.12-9.212-.47-5.044-2.028-8.46-.183-8.775 1.846-.314 2.778 1.378 2.978 6.47.2 5.093-.294 6.45-2.915 11.517zM272.34 184.44c-1.876-3.85-3.488-5-4.7-7.478-2.14-4.356-2.585-7.913-4.235-7.27-1.65.646-1.56 2.486.824 6.75 2.382 4.264 3.46 5.134 8.11 7.998zM278.31 149.95c-4.778-2.515-7.232-2.547-10.31-4.163-5.423-2.833-8.58-6.035-9.7-4.273-1.12 1.762.376 3.514 5.965 6.09 5.59 2.576 7.308 2.698 14.045 2.346zM280.06 164.36c-3.48-2.894-5.536-3.32-7.78-5.182-3.953-3.267-5.92-6.475-7.24-5.175-1.32 1.3-.44 3.02 3.71 6.097 4.15 3.078 5.568 3.46 11.31 4.26z"/></g></svg>