<svg xmlns="http://www.w3.org/2000/svg" width="1200" height="600"><clipPath id="a"><path d="M0 0v150h700v150H600zm600 0H300v350H0v-50z"/></clipPath><path fill="#00247d" d="M0 0h1200v600H0z"/><path d="M0 0l600 300m0-300L0 300" stroke="#fff" stroke-width="60"/><path d="M0 0l600 300m0-300L0 300" stroke="#cf142b" stroke-width="40" clip-path="url(#a)"/><path d="M300 0v350M0 150h700" stroke="#fff" stroke-width="100"/><path d="M300 0v350M0 150h700" stroke="#cf142b" stroke-width="60"/><path d="M0 300h600V0h600v600H0z" fill="#00247d"/><path fill="#fff" d="M1008.94 170.99v85.174c0 69.927-27.467 133.94-108.953 172.848-81.488-38.91-108.956-102.92-108.956-172.85V170.99h217.908z"/><path fill="#fdc300" d="M1001.61 179.67v79.443c0 65.223-25.62 124.928-101.623 161.218-76.004-36.29-101.623-95.995-101.623-161.218v-79.444h203.246z"/><g fill="#ff9e3d" stroke="#000" stroke-width=".26"><path d="M852.667 214.487c-1.47-1.103-3.066-1.778-5.27-1.84.487-5.393-3.434-7.723-6.254-8.703-2.817-.98-3.8-2.085-4.288-4.292-.49-2.206-1.962-3.555-4.537-4.29-2.575-.736-4.783-3.31-5.762-4.537-.98-1.226-1.35-.98-2.083 1.104-.738 2.083-3.68 6.006-.983 6.13-1.96 1.592-3.063 3.432-1.838 5.884-1.35 1.103-2.33 2.697-.49 3.31s2.328 1.103 2.453 1.594c-1.654 0-2.084 3.31 1.837 4.045-.858.123-1.225 2.82.37 2.82-2.207 0-4.05 3.31-6.865 3.31-2.82 0-4.292.613-4.413 1.84-.125 1.225-1.595 2.696-2.33 3.31 2.085.244 3.43 0 4.534-.86 1.105-.857 2.942-1.102 4.17-.12 1.226.98 3.8 1.47 5.026 1.224-2.696 1.84-4.658 4.292-4.904 6.62-.246 2.33-1.838 5.027-3.68 5.763-1.837.736-4.286 2.697-5.145 5.027 2.33 5.762 5.633 7.185 8.946 8.704 5.888 2.7 9.563 4.66 12.017 7.357 2.45 2.697 3.433.736 7.107 5.394 3.68 4.66 7.112 13.487 10.787 14.96 3.68 1.47 8.338.49 11.034-4.17 2.7-4.66 4.416-51.736-9.437-59.583z"/><path fill="#ff927f" d="M858.92 194.87c-3.432 3.68-7.85 7.357-7.11 13.978.736 6.62 1.47 17.41-4.66 21.086-6.128 3.678-9.07 12.996-1.716 18.39 7.354 5.395 7.6 12.015 8.825 18.145 1.228 6.13 4.415 11.033 9.32 6.865 4.9.735 7.6-1.226 7.6-5.15 0-3.923.244-6.13 3.92-7.356 3.678-1.227 4.657-2.453 6.374-5.763 1.716-3.31 2.695-4.78 1.716-6.743-.98-1.96-1.35-6.007-.612-8.95.737-2.942-.98-4.536-1.963-6.374-.98-1.84-1.345-3.433-.858-5.885.492-2.452-.733-4.046-2.45-5.272-1.716-1.226-2.454-2.452-2.083-4.414.367-1.962-1.23-3.188-3.066-4.66-1.838-1.47-3.188-3.432-3.188-6.374 0-2.943-5.637-9.81-10.05-11.525z"/><path fill="#ff9ee1" d="M860.267 274.928c8.212-2.084 7.48-15.57 6.254-21.21-1.228-5.64-4.378-13.717-1.962-20.106 3.434-9.072-4.17-17.654-2.208-21.087 1.963-3.433 1.717-5.272 1.47-6.375-.24-1.103-2.082-1.96-2.203.368-.125 2.33-.738 3.187-2.208 4.658s-1.105 4.66 0 8.215c1.103 3.556 3.432 8.95-.247 16.06-3.675 7.112-2.162 10.28-.733 13.61 2.204 5.15 7.478 23.048 1.837 25.868z"/><path d="M823.49 198.06c.92 0 2.7-.37 2.7.857M821.652 203.943c1.104-.797 3.066.123 5.025-1.042M823.615 208.847c1.47 0 3.433-.06 5.27-1.533M825.452 212.893c1.35 0 3.862-.858 4.475-2.636M825.823 215.713c2.633-.123 6.13.858 6.616-.06M825.944 224.417c1.837-1.716 6.19-2.88 7.17-4.66M830.602 197.078c3.062.98 1.796 2.876 3.308 4.046 2.7 2.084.246 4.414 2.454 5.027 2.204.613 2.167.986 1.592 3.433-.675 2.882 2.083 3.004 1.104 4.904M847.397 212.648c-1.225 0-4.84.123-6.375 3.37M821.223 248.018c1.412.245 2.117-.558 2.512-1.348.43-.86.613-1.472 1.9-1.533 1.288-.062 3.25-.43 3.68-1.41.428-.98 1.962-.06 3.25-2.636 1.286-2.573 2.145-5.638 5.574-6.742"/></g><g stroke="#000" stroke-width=".26"><g fill="#00a728"><path d="M918.475 301.59c1.387 2.015-.05 4.194 2.304 5.066 2.757 1.02.35 4.648 3.603 5.927 2.883 1.134.02 4.602 3.137 6.16 2.788 1.394-.466 4.65 3.254 6.508 3.717 1.86-.7 6.045 2.092 7.672 2.787 1.627-.93 5.81 2.325 7.438 3.255 1.627-1.395 4.88 1.626 7.206 3.02 2.324-.696 5.81 2.324 7.903 3.02 2.09-1.854 4.884 1.163 7.902 2.325 2.324-.838 4.6.93 8.136 1.16 2.324-1.164 11.622-7.67 10.692-2.326 3.952-11.388 7.438-14.642 6.276-3.253 2.324-13.71 5.578-19.06.465-5.342 5.114-15.804 1.86-19.058-.464-3.254 1.162-12.316-2.324-14.64-6.276-6.508.93-8.833-8.368-7.67-10.692 1.766-3.535-1.397-5.812.928-8.136 3.017-3.018-1.858-5.81 1.163-7.903 3.02-2.093-.696-5.58 2.324-7.904 3.02-2.325-1.63-5.58 1.625-7.206 3.254-1.627-.462-5.81 2.325-7.438 2.792-1.627-1.625-5.81 2.092-7.67 3.72-1.86.465-5.115 3.253-6.51 3.116-1.557.254-5.025 3.137-6.16 3.254-1.278.846-4.905 3.604-5.926 2.392-.886.867-3.12 2.375-5.163 6.92 2.722 28.343 4.676 37.155.096z"/><path d="M887.544 302.24c-2.558 2.556.467 4.415-2.092 7.437-2.558 3.022-.233 4.65-2.324 7.438-2.092 2.79.93 4.185-1.396 7.206-2.32 3.023.467 4.882-2.092 7.44-2.554 2.556.467 4.88-2.09 7.67-2.555 2.79.465 4.65-2.093 7.205-2.554 2.558.467 5.347-2.09 7.903-2.555 2.558.465 5.81-2.326 8.834-2.786 3.02.467 5.345-1.857 7.67-2.325 2.324-.234 4.65-1.86 6.276-1.628 1.627-1.857 3.894-1.16 4.88M892.423 303.17c-2.32 3.02 1.162 4.415-.93 6.972-2.09 2.557.93 3.487-.695 6.51s1.163 3.718-.93 6.74c-2.09 3.022 1.163 5.346-1.16 8.368-2.326 3.02 1.16 4.648-.93 7.67-2.092 3.022.93 4.65-.93 6.974-1.862 2.324 1.392 4.648-.93 7.438-2.324 2.79.93 4.88-.932 7.438-1.858 2.557.7 5.346-.93 7.438-1.624 2.092 1.163 5.114-1.162 7.903-2.324 2.79.467 4.65-.93 6.51-1.394 1.86-2.494 4.59-1.16 5.346M899.86 305.958c-1.158 4.86 1.63 9.18 0 13.23-1.625 4.05 1.162 5.67.233 8.91-.93 3.24 1.163 5.67-.233 9.18-1.392 3.51 1.862 6.21 0 10.8-1.858 4.59 1.2 5.733 0 10.26-1.392 5.266 2.325 8.055 0 11.774-2.32 3.72 2.096 4.65.233 8.833-1.858 4.184 1.163 5.81-.233 9.995M912.18 302.24c2.558 2.556-.467 4.415 2.092 7.437 2.558 3.022.233 4.65 2.324 7.438 2.092 2.79-.93 4.185 1.396 7.206 2.32 3.023-.467 4.882 2.092 7.44 2.554 2.556-.467 4.88 2.09 7.67 2.555 2.79-.465 4.65 2.093 7.205 2.554 2.558-.467 5.347 2.09 7.903 2.555 2.558-.465 5.81 2.326 8.834 2.787 3.02-.466 5.345 1.858 7.67 2.326 2.324.235 4.65 1.86 6.276 1.63 1.627 1.862 3.894 1.162 4.88M907.3 303.17c2.322 3.02-1.16 4.415.93 6.972 2.092 2.557-.93 3.487.696 6.51 1.63 3.02-1.163 3.718.93 6.74 2.09 3.022-1.163 5.346 1.16 8.368 2.326 3.02-1.16 4.648.93 7.67 2.092 3.022-.93 4.65.93 6.974 1.862 2.324-1.392 4.648.933 7.438 2.32 2.79-.934 4.88.928 7.438 1.858 2.557-.7 5.346.93 7.438 1.624 2.092-1.163 5.114 1.162 7.903 2.324 2.79-.467 4.65.93 6.51 1.394 1.86 2.5 4.59 1.16 5.346"/></g><g fill="#fcc300"><path d="M884.115 313.745c.004 1.044-.02 2.083-.987 3.37-2.092 2.79.93 4.185-1.396 7.206-2.32 3.023.466 4.883-2.092 7.44-2.554 2.556.467 4.88-2.09 7.67-2.555 2.79.465 4.65-2.093 7.206-2.554 2.557.467 5.346-2.09 7.903-2.555 2.556.465 5.81-2.326 8.832-2.787 3.02.467 5.346-1.857 7.67-2.325 2.325-.234 4.65-1.86 6.276 2.79-2.092 2.79-5.345 4.88-6.973 2.092-1.627-.696-3.952.467-5.114 1.162-1.16.233-6.042 2.325-8.367 2.09-2.324.233-6.973 2.09-8.6 1.86-1.627.464-6.508 2.79-8.135 2.323-1.628 0-5.58 1.857-7.67 1.862-2.093 0-5.347 1.862-7.904 1.858-2.557.083-4.878 1.392-6.973.583-.93.583-7.67-.87-3.835zM890.798 316.65c-1.625 3.023 1.162 3.72-.93 6.742-2.09 3.022 1.163 5.346-1.162 8.368-2.324 3.02 1.163 4.648-.93 7.67-2.09 3.022.93 4.65-.928 6.974-1.862 2.324 1.392 4.648-.93 7.438-2.324 2.79.93 4.88-.932 7.438-1.858 2.557.7 5.346-.93 7.438-1.624 2.092 1.163 5.114-1.162 7.903-2.325 2.79.467 4.65-.93 6.51 2.793-.93 1.747-4.765 2.793-5.58 1.045-.813-.35-6.16 1.275-7.553 1.63-1.395-1.046-5.697.466-7.555 2.558-3.138.35-5.23 1.858-7.67 1.513-2.44-.574-5.574.584-7.206 1.975-2.79-.875-5.304.58-7.322 2.09-2.906-.405-5.298 1.045-7.206 2.208-2.905-.234-5.81.7-7.322.93-1.51 2.437-8.02-.467-9.065zM899.86 319.188c-1.625 4.05 1.162 5.67.233 8.91-.93 3.24 1.163 5.67-.233 9.18-1.392 3.51 1.862 6.21 0 10.8-1.858 4.59 1.2 5.733 0 10.26-1.392 5.266 2.325 8.055 0 11.775-2.32 3.72 2.662 4.95.233 8.832-1.162 1.86.117 6.625 1.975.93 1.863-5.695-1.39-6.392.234-8.717 1.63-2.324-.58-8.484.116-11.738.7-3.254-1.625-7.67-.116-11.157 1.512-3.487-2.325-7.206-.813-10.228 1.51-3.02-.697-6.74.695-9.18 1.396-2.442-1.046-5.696-.463-7.09.58-1.395-.583-6.548-1.862-2.577z"/></g><path fill="#ef072d" d="M917.292 304.33c0-26.265-3.716-35.33-17.432-35.33-13.712 0-17.428 9.065-17.428 35.33h34.86z"/><path d="M882.432 304.33c0-26.265 3.716-35.33 17.428-35.33-6.275 0-10.108 4.88-11.153 8.135-1.046 3.254-.467 3.022.93 1.744 1.394-1.28.695 1.51-.464 3.02-1.162 1.51-2.325 5.81-.7 4.417 1.63-1.395 2.904.232 1.163 2.673-1.742 2.44-3.254 8.135-1.513 6.16 1.746-1.976 2.092 1.278 1.05 2.905-1.05 1.627-.933 3.022 0 2.325.93-.698.813 2.673-.116 3.95h-6.625zM914.622 302.82c0-20.57-2.554-26.73-7.666-28.823-2.896-1.186-2.98-.93-1.596.93 1.383 1.86 1.17 4.533-.108 2.673-1.275-1.86-1.7-2.208-2.233-1.394-.535.813 1.486 4.648 2.978 8.135 1.2 2.805.425 4.185-1.384 1.395-1.808-2.79-1.808-.262-.22 2.093 2.037 3.02 1.974 12.203 1.974 16.038l8.254-1.046z"/><path fill="#ef072d" d="M899.86 308.166c5.462 0 11.44-.973 15.457-2.533 4.767-1.85 5.02-3.476 3.37-5.552-1.16-1.46-3.72-.584-6.157.488-2.44 1.07-9.183 1.753-12.67 1.753-3.483 0-10.224-.68-12.666-1.752-2.437-1.072-4.995-1.95-6.158-.487-1.65 2.077-1.396 3.702 3.37 5.553 4.013 1.56 9.996 2.533 15.454 2.533z"/></g><g fill="#b95a1e" stroke="#000" stroke-width=".298"><path d="M952.855 273.393s3.578 6.176 6.202 10.68c2.623 4.5 4.75 5.526 6.65 4.19 1.9-1.335.287-5.004-1.236-6.745-1.52-1.742-9.89-9.912-9.89-9.912l-1.725 1.787z"/><path d="M952.005 273.868s1.418 7.082 2.466 12.25c1.05 5.166 2.73 6.88 4.943 6.29 2.214-.59 1.855-4.616.97-6.793-.883-2.177-6.187-12.825-6.187-12.825l-2.19 1.078z"/><path d="M950.5 274.09s-.01 7.24 0 12.523c.007 5.284 1.312 7.33 3.594 7.237 2.282-.093 2.723-4.11 2.288-6.433-.436-2.323-3.528-13.9-3.528-13.9l-2.355.574zM948.148 273.393s-3.578 6.176-6.202 10.68c-2.623 4.5-4.75 5.526-6.65 4.19-1.9-1.335-.287-5.004 1.236-6.745 1.522-1.742 9.892-9.912 9.892-9.912l1.724 1.787z"/><path d="M949 273.868s-1.42 7.082-2.467 12.25c-1.048 5.166-2.728 6.88-4.942 6.29-2.213-.59-1.854-4.616-.97-6.793.884-2.177 6.188-12.825 6.188-12.825l2.19 1.078z"/><path d="M950.504 274.09s.008 7.24 0 12.523c-.008 5.284-1.313 7.33-3.595 7.237-2.283-.093-2.724-4.11-2.29-6.433.437-2.323 3.53-13.9 3.53-13.9l2.354.574z"/><g><path d="M954.464 218.4s5.827-6.19 16.023-12.377c10.196-6.19 17.573-10.95 18.936-9.903 0 1.238-8.74 7.427-16.023 12.378-7.283 4.95-16.023 12.377-16.023 12.377l-2.913-2.475zM955.14 223.35s5.76-3.634 16.804-8.663c10.872-4.466 26.22-3.714 26.22-2.476-1.457 1.24-14.567 1.24-23.307 4.952-8.342 3.545-16.804 8.664-16.804 8.664l-2.913-2.475zM955.202 231.877s5.07-2.45 16.804-6.19c11.653-3.712 27.122-1.237 27.122 0-1.456 1.24-14.013.487-22.753 2.477-9.043 1.94-18.26 6.19-18.26 6.19l-2.913-2.477zM955.756 240.535s5.844-4.96 18.292-6.19c12.524-1.237 22.72 6.19 22.72 7.428-1.455 1.237-13.11-5.448-21.85-4.492-9.258.955-16.25 5.73-16.25 5.73l-2.912-2.475zM952.855 213.304s9.39-6.19 9.39-11.14-4.14-9.902-5.313-12.377c2.347 0 7.66 7.426 7.66 12.377 0 5.41-8.824 13.615-8.824 13.615l-2.913-2.476z"/><path d="M952.855 213.304s-1.174-3.713-1.174-11.14c0-8.664 5.18-14.175 7.044-16.09.485 1.915-4.695 8.664-4.695 16.09 0 5.41 1.738 13.615 1.738 13.615l-2.913-2.476zM946.54 218.4s-5.828-6.19-16.024-12.377c-10.196-6.19-17.573-10.95-18.936-9.903 0 1.238 8.74 7.427 16.023 12.378 7.283 4.95 16.023 12.377 16.023 12.377l2.913-2.475zM945.863 223.35s-5.76-3.634-16.804-8.663c-10.873-4.466-26.22-3.714-26.22-2.476 1.456 1.24 14.566 1.24 23.306 4.952 8.342 3.545 16.804 8.664 16.804 8.664l2.913-2.475zM945.8 231.877s-5.07-2.45-16.803-6.19c-11.652-3.712-27.122-1.237-27.122 0 1.456 1.24 14.013.487 22.753 2.477 9.043 1.94 18.26 6.19 18.26 6.19l2.913-2.477zM945.247 240.535s-5.844-4.96-18.292-6.19c-12.524-1.237-22.72 6.19-22.72 7.428 1.455 1.237 13.11-5.448 21.85-4.492 9.258.955 16.25 5.73 16.25 5.73l2.912-2.475zM948.148 213.304s-9.39-6.19-9.39-11.14 4.14-9.902 5.313-12.377c-2.346 0-7.66 7.426-7.66 12.377 0 5.41 8.825 13.615 8.825 13.615l2.913-2.476z"/><path d="M948.148 213.304s1.174-3.713 1.174-11.14c0-8.664-5.18-14.175-7.043-16.09-.486 1.915 4.694 8.664 4.694 16.09 0 5.41-1.74 13.615-1.74 13.615l2.914-2.476z"/></g><g stroke="#fdc301" stroke-width=".75"><path d="M981.025 302.422c-3.648-8.546-4.695-23.517-4.695-25.993 0-6.972 2.183-40.88 2.348-54.462.164-13.583-8.217-21.04-16.433-21.04-7.042 0-11.737 4.95-11.737 12.376h3.52c0-4.95 3.522-8.664 8.217-8.664 7.043 0 12.455 5.85 12.91 17.328.505 13.267-1.41 47.714-1.172 56.937.238 9.224 3.394 17.447 7.042 23.517zM919.98 302.422c3.647-8.546 4.694-23.517 4.694-25.993 0-6.972-2.183-40.88-2.348-54.462-.164-13.583 8.217-21.04 16.433-21.04 7.04 0 11.736 4.95 11.736 12.376h-3.52c0-4.95-3.522-8.664-8.217-8.664-7.044 0-12.456 5.85-12.912 17.328-.504 13.267 1.412 47.714 1.173 56.937-.237 9.224-3.393 17.447-7.04 23.517z"/></g><g><path d="M950.507 273.954c6.56-.097 7.284-2.475 7.284-2.475s1.458-4.952.73-6.19c-.73-1.238-8.013-1.238-8.013-1.238v9.902z"/><path d="M950.507 269.003c7.042 0 8.216-2.475 8.216-2.475s2.347-4.95 1.174-6.19c-1.174-1.237-9.39-1.237-9.39-1.237v9.903z"/><path d="M950.507 264.052c5.87 0 9.39-2.475 9.39-2.475s2.347-4.95 1.174-6.19c-1.173-1.237-10.563-1.237-10.563-1.237v9.902z"/><path d="M950.507 257.863c10.572-.097 10.564-3.18 10.564-3.18s2.348-4.95 1.174-6.188c-1.173-1.238-11.737-.534-11.737-.534v9.903z"/><path d="M950.507 252.912c10.572-.097 11.737-2.475 11.737-2.475s2.348-4.95 1.174-6.19c-1.174-1.237-12.91-1.237-12.91-1.237v9.902z"/><path d="M950.507 246.724c10.572-.097 12.91-2.475 12.91-2.475s2.348-4.952 1.175-6.19c-1.174-1.238-14.085-1.238-14.085-1.238v9.902z"/><path d="M950.507 240.535c10.572-.097 14.085-2.475 14.085-2.475s1.173-4.95 0-6.19c-1.174-1.237-14.085-1.237-14.085-1.237v9.902z"/><path d="M950.507 234.346c10.572-.097 14.085-2.475 14.085-2.475s0-4.95-1.174-6.188c-1.174-1.238-12.91-1.238-12.91-1.238v9.902z"/><path d="M950.507 228.157c10.572-.097 12.91-2.475 12.91-2.475s0-4.95-1.173-6.19c-1.173-1.237-11.737-1.237-11.737-1.237v9.902z"/><path d="M950.507 212.63c8.224.01 11.777 7.154 11.757 7.01l-2.367 2.328c-1.258 1.238-9.39 1.238-9.29 1.232l-.1-10.57zM950.496 273.954c-6.56-.097-7.284-2.475-7.284-2.475s-1.457-4.952-.728-6.19c.728-1.238 8.012-1.238 8.012-1.238v9.902z"/><path d="M950.496 269.003c-7.042 0-8.216-2.475-8.216-2.475s-2.347-4.95-1.174-6.19c1.174-1.237 9.39-1.237 9.39-1.237v9.903z"/><path d="M950.496 264.052c-5.87 0-9.39-2.475-9.39-2.475s-2.347-4.95-1.174-6.19c1.174-1.237 10.564-1.237 10.564-1.237v9.902z"/><path d="M950.496 257.863c-10.572-.097-10.564-3.18-10.564-3.18s-2.347-4.95-1.173-6.188c1.172-1.238 11.736-.534 11.736-.534v9.903z"/><path d="M950.496 252.912c-10.572-.097-11.737-2.475-11.737-2.475s-2.35-4.95-1.175-6.19c1.174-1.237 12.91-1.237 12.91-1.237v9.902z"/><path d="M950.496 246.724c-10.572-.097-12.91-2.475-12.91-2.475s-2.348-4.952-1.175-6.19c1.175-1.238 14.086-1.238 14.086-1.238v9.902z"/><path d="M950.496 240.535c-10.572-.097-14.085-2.475-14.085-2.475s-1.172-4.95 0-6.19c1.175-1.237 14.086-1.237 14.086-1.237v9.902z"/><path d="M950.496 234.346c-10.572-.097-14.085-2.475-14.085-2.475s0-4.95 1.175-6.188c1.174-1.238 12.91-1.238 12.91-1.238v9.902z"/><path d="M950.496 228.157c-10.572-.097-12.91-2.475-12.91-2.475s0-4.95 1.173-6.19c1.172-1.237 11.736-1.237 11.736-1.237v9.902z"/><path d="M950.496 212.63c-8.224.01-11.777 7.154-11.757 7.01l2.366 2.328c1.258 1.238 9.39 1.238 9.29 1.232l.1-10.57z"/></g></g></svg>