<svg xmlns="http://www.w3.org/2000/svg" xmlns:xlink="http://www.w3.org/1999/xlink" width="1800" height="900"><defs><g id="b"><g id="a"><path d="M1-.325H0v.5z"/><path d="M1-.325L.19.263l-.293-.405z"/></g><use xlink:href="#a" transform="rotate(72)"/><use xlink:href="#a" transform="rotate(144)"/><use xlink:href="#a" transform="rotate(216)"/><use xlink:href="#a" transform="rotate(288)"/></g></defs><path fill="#00247d" d="M0 0h1800v900H0z"/><g fill="#fed100"><path d="M329.376 777.265c-17.934-.15 168.624-99.43 324.77-226.6C858.788 384 1299.54 117.156 1429.115 73.796c13.543-4.532-27.776 23.073-33.14 32.016-138.34 163.74-27.925 472.725 144.973 628.05 51.99 39.762 49.326 41.85 145.706 45.745v9l-1357.28-11.34zM318.125 795.325S304.962 804.727 305 811.73c.043 7.773 14.766 18.048 14.766 18.048l1338.745 14.765 24.61-16.406-34.453-21.328-1330.542-11.485z"/></g><g fill="#fff"><use xlink:href="#b" transform="matrix(45 0 0 45 343 112.6)"/><use xlink:href="#b" transform="matrix(37.5 0 0 37.5 521.2 267.5)"/><use xlink:href="#b" transform="matrix(45 0 0 45 135 321.8)"/><use xlink:href="#b" transform="matrix(52.5 0 0 52.5 343 652.6)"/></g></svg>