<svg xmlns="http://www.w3.org/2000/svg" xmlns:xlink="http://www.w3.org/1999/xlink" width="900" height="600"><path fill="#28ae66" d="M0 0h900v600H0z"/><g fill="#fff"><path d="M446.82 66.543c26.6 11.42 45.237 37.85 45.237 68.627 0 41.225-33.43 74.655-74.654 74.655-18.455 0-35.345-6.704-48.377-17.805 8.062 3.458 16.87 5.546 26.15 5.95 41.185 1.8 76.042-30.14 77.84-71.326 1.044-23.91-9.287-45.687-26.195-60.1z"/><path id="a" d="M375.616 121.42l8.458-26.033-22.145 16.09H389.3l-22.145-16.09z"/><use xlink:href="#a" y="-38.4" height="600"/><use xlink:href="#a" x="37.937" y="-18.722"/><use xlink:href="#a" x="-37.936" y="18.722"/><use xlink:href="#a" y="38.4" height="600"/></g><g fill="#383739"><path fill="#ca3745" d="M107.998 0h162v600h-162z"/><g id="c"><g id="b"><path d="M107.998-39.62v5.88l9.11 8.528-3.072 2.86 6.515 6.038-2.86 2.596v-3.76h-5.56v4.5l12.552 11.76h6.356l.69-4.132h-3.656l3.972-3.707L142.002 0l-9.958 9.11-3.972-3.708h3.655l-.69-4.184h-6.355l-12.553 11.76v4.5h5.56v-3.76l2.86 2.595-6.514 6.04 3.072 2.912-9.11 8.474v5.88l15.413-14.355-3.07-2.913 6.46-6.04-5.56-5.19 3.707-3.39 7.097 6.57L147.617 0l-15.573-14.3-7.097 6.62-3.708-3.443 5.56-5.19-6.46-6.04 3.07-2.86L108-39.618zm0 28.55v22.14l3.602-3.655v-4.29h3.813L118.485 0l-3.072-3.072H111.6v-4.343l-3.602-3.655zm26.27 7.84l-.53 3.018.53 3.072 3.285-3.072-3.284-3.02z"/><path fill="#faae29" d="M107.998-38.983v4.66l9.746 9.11-3.072 2.86 6.514 6.04-3.92 3.654v-4.395h-4.713v3.92l12.34 11.493h5.72l.584-3.284h-4.237l5.084-4.767L142.638 0l-10.594 9.693-5.084-4.714h4.237l-.584-3.338h-5.72L112.55 13.135v3.92h4.716V12.66l3.92 3.653-6.516 6.038 3.072 2.914-9.745 9.058v4.66l14.777-13.718-3.072-2.913 6.462-6.037-5.562-5.19 4.344-4.026 7.097 6.62L146.927 0l-14.884-13.718-7.097 6.62-4.344-4.025 5.562-5.19-6.462-6.04 3.072-2.86-14.777-13.77zm0 28.548v20.87l3.178-3.18V2.65h4.078L117.904 0l-2.65-2.648h-4.078v-4.61l-3.178-3.176zm26.59 8.05l-.372 2.173.37 2.172 2.33-2.172-2.33-2.172z"/></g><use xlink:href="#b" y="109.207"/><use xlink:href="#b" y="222.005"/><use xlink:href="#b" y="334.802"/><use xlink:href="#b" y="447.598"/></g><use xlink:href="#c" transform="matrix(-1 0 0 1 378 0)"/><path id="d" fill="#faae29" d="M121.14 530.824c.8 3.407 3.508 5.98 4.154 9.513 1.292-3.685 2.484-6.773 1.594-10.804-.637-2.883-3.062-4.94-3.343-7.902-2.644 2.378-3.213 5.75-2.405 9.194zm-.67 14.276c2.243 3.075 5.36 5.434 8.803 7.007-.678-2.694.594-4.722 2.006-6.86 1.7-2.574 2.53-5.103 1.142-8.067-.646 1.54-1.514 2.82-2.533 4.14-1.507 2.054-2.498 3.882-2.73 6.518-1.743-1.29-2.508-3.22-3.44-5.085-1.42-2.673-3.712-4.908-6.345-6.37.7 3 1.238 6.17 3.095 8.717zm12.578 9.166c-.48 1.708-.893 3.4-.8 5.186-1.482-1.597-3.45-2.8-5.206-4.085-2.39-1.934-5.178-3.298-7.133-5.76.29 3.624 1.842 6.578 4.787 8.783 3.113 2.33 6.867 3.583 9.933 6.03-.46-3.297.752-5.937 1.784-8.967.86-2.895.028-5.834-1.935-8.04.028 2.445-.744 4.545-1.432 6.853zm6.986 11.133c.645 2.5 2.437 4.533 3.66 6.763-3.3-1.023-6.21-2.812-9.19-4.495-3.553-1.934-7.41-3.165-10.626-5.72 1.6 5.925 5.567 9.36 11.37 11.11 3.966 1.2 7.31.602 12.123 2.547-.55-3.26-1.524-6.776-3.065-9.714-1.195-2.124-2.52-4.22-3.26-6.56-1.07 1.922-1.576 3.878-1.01 6.07zm12.14 9.064c1.134 1.946 2.634 3.584 4.493 4.875-4.683.298-8.45-2.67-13.017-2.8-2.82-.078-5.497.797-8.373.534 3.413 2.303 6.986 4.314 11.14 4.85 5.402.7 10.383-.66 16.342-.128-2.786-1.965-4.18-4.595-5.915-7.423-2.26-3.533-4.393-6.05-8.79-6.618 1.766 1.983 2.793 4.44 4.118 6.71zm16.63 7.773c-8.25 1.403-16.156 3.218-24.58 3.3 9.43 3.29 18.317 3.884 27.67.49 5.056-1.836 8.932-2.818 12.75-2.545 5.58.4 12.36 2.603 19.864 10.517l2.95-2.36c-10.756-9.584-24.83-11.754-38.654-9.404z"/><use xlink:href="#d" transform="matrix(-1 0 0 1 378 0)"/><path d="M128.266 70.34l-12.98-7.96V43.243l12.98-7.96V25.16l12.267-7.39h9.8L168.98 7.284h40.034l18.648 10.488h9.8l12.267 7.39v10.124l12.98 7.96V62.38l-12.98 7.96v10.124L237.46 87.85h-9.8l-18.648 10.49H168.98l-18.647-10.49h-9.8l-12.267-7.386z"/><path fill="#28ae66" d="M169.068 7.733L150.424 18.22h-9.746l-11.97 7.203V35.54l-12.977 7.945V62.13l12.978 7.944v10.17l11.917 7.203h9.8l18.643 10.487h39.83l18.644-10.487h9.8l11.97-7.204v-10.17l12.976-7.944V43.484l-12.976-7.945V25.423l-11.97-7.203h-9.8L208.898 7.733h-39.83zm1.112 3.866h37.66l18.643 10.487h9.746l9.056 5.455V37.66l13.03 7.944V60.01l-13.03 7.945v10.117l-9.057 5.455h-9.747L207.84 94.015h-37.66l-18.644-10.488h-9.745l-9.11-5.455V67.955l-12.976-7.945V45.604l12.976-7.945V27.54l9.11-5.455h9.746L170.18 11.6z"/><path fill="#faae29" d="M188.783 53.025V12.017h-18.506L151.63 22.505h-9.723l-8.795 5.296v10.102l-12.98 7.96v6.735h69.08v41.01h18.506l18.648-10.49h9.723l8.793-5.296v-10.1l12.98-7.96v-6.734z"/><path fill="#fff" d="M120.13 53.025v6.736l12.98 7.96v10.1l8.796 5.297h9.722l18.648 10.49h18.506v-41.01h69.08V45.86l-12.98-7.958v-10.1l-8.794-5.297h-9.723l-18.648-10.488h-18.505v41.008z"/><g id="f"><g id="e"><path d="M148.448 26.28l-3.196-2.978-3.166 1.952 3.2 2.985-4.11 2.545h8.97l7.73 7.29 2.472-2.61-7.515-7.09v-4.81z"/><path d="M163.573 24.972l-3.196-2.978-3.166 1.952 3.202 2.984-4.11 2.547h8.97l7.728 7.29 2.473-2.61-7.515-7.09v-4.812zM147.34 34.836l-3.197-2.98-3.165 1.954 3.2 2.984-4.11 2.547h8.97l7.728 7.29 2.473-2.61-7.516-7.09v-4.81z"/><path d="M188.997 11.59h-8.093l-4.235 4.08h-8.256l-6.1 3.166 1.422 3.467 5.44-2.858h2.383l8.34 9.647 9.097-5.54z"/><path fill="#ca3745" d="M145.2 23.838l2.87 2.676-2.405 1.49-2.876-2.68 2.41-1.486zm7.204.495v4.227l7.338 6.92-1.884 1.99-7.542-7.113h-7.635l9.724-6.024zM160.324 22.53l2.872 2.676-2.406 1.49-2.876-2.68 2.41-1.487zm7.205.494v4.227l7.337 6.923-1.884 1.99-7.542-7.114h-7.634l9.723-6.026z"/><path fill="#ca3745" d="M144.09 32.393l2.872 2.677-2.406 1.49-2.875-2.68 2.41-1.487zm7.206.495v4.227l7.337 6.922-1.883 1.99-7.542-7.114h-7.636l9.724-6.025zM188.783 12.017h-7.706l-4.235 4.08h-8.324l-5.66 2.938 1.095 2.67 5.117-2.688h2.685l8.232 9.52 8.796-5.355z"/></g><use xlink:href="#e" transform="matrix(1 0 0 -1 0 105.6)"/><path d="M143.054 39.71l-3.86-1.44-.09.063-4.983 3.457v.93l-7.98 10.09 7.98 10.093v.93l5.075 3.52 3.86-1.44-2.356-1.56v-2.968l.935-1.12h4.18V45.358h-4.18l-.936-1.12V41.27z"/><path fill="#ca3745" d="M134.55 42.014l4.705-3.266 2.862 1.07-1.846 1.223v3.353l1.165 1.392h3.952v14.053h-3.952l-1.164 1.392v3.352l1.847 1.223-2.862 1.07-4.706-3.266v-.856l-7.863-9.943 7.863-9.942z"/></g><use xlink:href="#f" transform="matrix(-1 0 0 1 378 0)"/><path d="M136.203 61.282l-2.173-1.88v-.906l-4.66-5.685 4.66-5.684v-.906l2.174-1.88 3.902 3.174-2.252-.017 3.328 3.378h7.605l5.98-4.677V33.863h14.96l17.372-10.66v-2.796l-2.658-1.77h-.842l-2.893 1.935-.448 1.444-2.265-3.09 4.4-3.695h.702l4.964-3.64h1.872l4.964 3.64h.703l4.398 3.696-2.263 3.09-.448-1.444-2.894-1.936h-.84l-2.658 1.77v2.797l17.372 10.66h14.96v12.335l5.98 4.677h7.605l3.328-3.378-2.253.017 3.903-3.173 2.172 1.88v.906l4.662 5.685-4.662 5.686v.906l-2.172 1.88-3.903-3.173 2.253.016-3.328-3.378h-7.605l-5.98 4.677V71.76h-14.96l-17.372 10.66v2.796l2.657 1.77h.84l2.895-1.935.448-1.444 2.263 3.09-4.4 3.696h-.702l-4.964 3.642h-1.87l-4.965-3.642h-.703l-4.4-3.696 2.265-3.09.447 1.445 2.892 1.937h.84l2.66-1.77V82.42l-17.374-10.66h-14.958V59.424l-5.982-4.677h-7.604l-3.328 3.378 2.252-.017z"/><path fill="#faae29" d="M189.21 87.32l1.902 1.453-1.9 1.453V87.32zm-6.043 2.643h.07l4.964 3.643h.58v-2.842l-2.603-1.99 2.604-1.993v-5.336l-18.588-11.408H156.45V58.574l-7.095-5.55h-10.7l-2.69 3.042-2.69-3.04h-3.177l4.36 5.317v.863l1.727 1.5 2.774-2.16-1.63.013v-.54l3.63-3.7h7.974l6.262 4.897V71.33h14.65l17.68 10.85v3.265l-2.955 1.97h-1.102l-3.126-2.093-.24-.777-1.525 2.08 3.973 3.338h.617zm-47.2-39.76l2.117 2.394h-4.236l2.118-2.394zm52.815-34.807l-1.9 1.453 1.9 1.453v-2.907zm51.127 37.63l2.117 2.393 2.118-2.395h-4.236zm-45.155-37.367l-4.964-3.643h-.578v2.84l2.605 1.993-2.606 1.992v5.337l18.59 11.406h13.742V47.05l7.095 5.548h10.7l2.69-3.04 2.69 3.04h3.177l-4.36-5.318v-.864l-1.726-1.5-2.775 2.16 1.63-.013v.54l-3.63 3.7h-7.974l-6.263-4.898V34.29h-14.652l-17.68-10.848v-3.265l2.957-1.97h1.102l3.127 2.094.24.777 1.526-2.08-3.973-3.34h-.688z"/><path fill="#fff" d="M188.782 90.226l-1.9-1.453 1.9-1.453v2.906zm-50.698-37.2l-2.118 2.394-2.118-2.394h4.236zm56.74 36.937h-.07l-4.963 3.643h-.578v-2.84l2.605-1.993-2.606-1.993v-5.336l18.59-11.408h13.742V58.574l7.095-5.55h10.7l2.69 3.042 2.69-3.04h3.177l-4.36 5.317v.863l-1.726 1.5-2.775-2.16 1.63.013v-.54l-3.63-3.7h-7.974l-6.263 4.897v12.115h-14.652l-17.68 10.85v3.263l2.957 1.97h1.102l3.127-2.093.24-.777 1.526 2.08-3.973 3.338h-.618zm47.203-39.76l-2.118 2.394h4.236l-2.12-2.394zM183.24 15.66l4.962-3.643h.58v2.84l-2.605 1.993 2.606 1.992v5.337l-18.59 11.407h-13.74V47.05l-7.096 5.548h-10.703l-2.69-3.04-2.69 3.04H130.1l4.36-5.318v-.863l1.727-1.5 2.773 2.16-1.628-.014v.54l3.63 3.7h7.973l6.262-4.898V34.29h14.65l17.68-10.848v-3.265l-2.955-1.97h-1.102l-3.127 2.094-.24.777-1.525-2.08 3.974-3.338h.687zm5.97 2.644l1.902-1.454-1.9-1.454v2.908z"/><path fill="#28ae66" d="M188.783 53.025V24.68l-18.47 11.334H156.88v11.243l-6.828 5.34h39.16V80.94l18.467-11.334h13.434V58.366l6.828-5.34z"/><path fill="#ca3745" d="M150.05 53.025l6.83 5.34v11.243h13.434l18.47 11.334V52.596h39.158l-6.828-5.34V36.015H207.68L189.21 24.68v28.345z"/><path d="M169.118 39.063l-3.195-2.978-3.166 1.952 3.2 2.984-4.11 2.548h8.97l7.73 7.29 2.47-2.61-7.514-7.09v-4.81zM208.873 66.56l3.196 2.978 3.164-1.953-3.2-2.984 4.11-2.545h-8.97l-7.728-7.29-2.473 2.61 7.515 7.09v4.81zM169.118 66.56l-3.196 2.978-3.165-1.953 3.2-2.984-4.11-2.545h8.97l7.728-7.29 2.473 2.61-7.515 7.09v4.81zM208.873 39.063l3.196-2.978 3.164 1.952-3.2 2.984 4.11 2.548h-8.97l-7.728 7.29-2.473-2.61 7.515-7.09v-4.81z"/><path fill="#ca3745" d="M212.122 69.002l-2.87-2.677 2.405-1.49 2.875 2.68-2.41 1.487zm-7.205-.495V64.28l-7.337-6.92 1.884-1.99 7.54 7.113h7.637l-9.723 6.024zM165.87 36.62l2.872 2.677-2.407 1.49-2.875-2.68 2.41-1.487zm7.206.496v4.226l7.337 6.922-1.884 1.99-7.542-7.114h-7.636l9.724-6.024z"/><path fill="#28ae66" d="M212.122 36.62l-2.87 2.677 2.405 1.49 2.875-2.68-2.41-1.487zm-7.205.496v4.226l-7.337 6.922 1.884 1.99 7.54-7.114h7.637l-9.723-6.024zM165.87 69.002l2.87-2.677-2.405-1.49-2.875 2.68 2.41 1.487zm7.205-.495V64.28l7.338-6.92-1.884-1.99-7.542 7.113h-7.636l9.723 6.024z"/><path d="M208.856 52.812l-19.86 13.235-19.858-13.235 19.86-13.236z"/><path fill="#fff" d="M188.783 40.233l-18.55 12.364h37.53l-18.55-12.364V65.39l18.55-12.365h-37.532l18.553 12.365z"/><path d="M194.308 57.363v3.64h-10.62v-3.64h-6.874V48.26h6.873v-3.64h10.62v3.64h6.874v9.103z"/><path fill="#ca3745" d="M184.116 45.048v3.64h-6.873v3.91h11.54v-7.55h-4.667zm5.096 7.55h11.54v-3.91h-6.872v-3.64h-4.668v7.55zm-11.97.427v3.91h6.874v3.64h4.667v-7.55h-11.54zm11.97 7.55h4.668v-3.64h6.873v-3.91h-11.54v7.55z"/><g><path d="M222.877 203.61v-5.83h15.988v-5.83h15.988v-52.682h-15.988v-5.83h-15.988v-5.83H206.89v-5.83h-35.783v5.83h-15.99v5.83H139.13v5.83h-15.99v52.682h15.99v5.83h15.988v5.83h15.99v5.83h35.78v-5.83z"/><path fill="#ca3745" d="M171.558 122.193v5.826h-15.996v5.826h-15.996v5.826H123.57v51.854h15.996v5.827h15.996v5.825h15.996v5.826h34.903v-5.826h15.998v-5.825h15.997v-5.827h15.994v-51.854h-15.995v-5.826h-15.997v-5.827H206.46v-5.827H171.56zm4.237 4.237h26.43v5.826h15.996v5.827h15.997v5.826h15.995v43.378h-15.995v5.827H218.22v5.826h-15.996v5.826h-26.43v-5.825H159.8v-5.825h-15.997v-5.827h-15.996v-43.38h15.996v-5.825H159.8v-5.827h15.995v-5.826z"/><path fill="#ca3745" d="M160.21 198.52v-5.832h-15.99v-5.83h-15.988v-42.5h15.99v-5.83h15.987v-5.83h15.987v-5.83h25.6v5.83h15.99v5.83h15.987v5.83h15.99v42.5h-15.99v5.83h-15.987v5.83h-15.99v5.83h-25.6v-5.83z"/><path d="M163.92 137.014l-4.14-3.13v6.01l-3.966 2.52-.01-3.762-3.803 3.416-3.803-3.416-.01 3.763-4.394-2.793v5.573l-3.552 2.57-.01-3.416-4.218 3.055-4.22-3.056-.01 3.416-3.98-2.88v16.88h-4.66v7.685h4.66v16.882l3.98-2.882.01 3.418 4.22-3.056 4.22 3.056.01-3.418 3.55 2.57v5.575l4.395-2.793.01 3.763L152 189.15l3.804 3.415.01-3.763 3.965 2.52v6.01l4.14-3.13.01 4.2 4.058-3.63 4.06 3.63.008-4.2 3.713 2.807v6.41l5.55-5.06v5.946l7.678-4.936 7.678 4.936v-5.946l5.55 5.06v-6.41l3.713-2.807.008 4.198 4.06-3.628 4.058 3.63.01-4.2 4.14 3.13v-6.01l3.966-2.52.01 3.763 3.804-3.416 3.803 3.415.01-3.763 4.394 2.793v-5.574l3.552-2.57.01 3.418 4.218-3.056 4.22 3.056.01-3.418 3.98 2.882v-16.88h4.66v-7.686h-4.66v-16.88l-3.98 2.88-.01-3.417-4.22 3.055-4.22-3.056-.008 3.416-3.55-2.57v-5.574l-4.396 2.793-.01-3.763-3.804 3.416-3.804-3.416-.01 3.763-3.966-2.52v-6.01l-4.14 3.128-.01-4.198-4.058 3.63-4.06-3.63-.008 4.2-3.713-2.808v-6.41l-5.55 5.06v-5.946l-7.68 4.937-7.677-4.936v5.947l-5.55-5.06v6.41l-3.714 2.807-.01-4.2-4.058 3.63-4.058-3.63z"/><g fill="#28ae66"><path d="M132.21 148.604l.01-3.418 3.793 2.748.127-.093 3.665-2.654.01 3.418 3.978-2.88v39.77l-3.978-2.88-.01 3.417-3.792-2.747-3.793 2.748-.01-3.417-3.978 2.88v-16.47h-4.662v-6.828h4.662v-16.47zM164.356 133.772l3.632 3.248 3.633-3.248.01 4.102 4.14-3.13v61.73l-4.14-3.13-.01 4.102-3.632-3.25-3.632 3.25-.008-4.102-4.14 3.13v-61.73l4.14 3.13zM213.64 133.772l-3.632 3.248-3.633-3.248-.01 4.102-4.137-3.13v61.73l4.138-3.13.01 4.102 3.632-3.25 3.632 3.25.01-4.102 4.138 3.13v-61.73l-4.14 3.13zM245.786 148.604l-.01-3.418-3.793 2.748-.128-.093-3.665-2.654-.01 3.418-3.977-2.88v39.77l3.977-2.88.01 3.417 3.793-2.747 3.793 2.748.01-3.417 3.977 2.88v-16.47h4.662v-6.828h-4.662v-16.47z"/></g><g fill="#faae29"><path d="M148.623 139.61l3.377 3.035 3.378-3.034.01 3.584 4.392-2.792v50.413l-4.392-2.79-.01 3.58-3.378-3.032-3.377 3.033-.01-3.582-4.393 2.79v-50.412l4.393 2.792zM181.748 133.827l-5.55-5.06v73.683l5.55-5.06v6.13l7.25-4.66 7.248 4.66v-6.13l5.552 5.06v-73.683l-5.552 5.06v-6.13l-7.248 4.66-7.25-4.66zM229.373 139.61l-3.377 3.035-3.378-3.034-.01 3.584-4.393-2.792v50.413l4.394-2.79.008 3.58 3.378-3.032 3.377 3.033.01-3.582 4.393 2.79v-50.412l-4.393 2.792z"/></g><g id="h"><g id="g"><path d="M134.288 158.366c.485.49 1.066.737 1.724.737.66 0 1.24-.247 1.725-.737 1.518-1.53 1.57-4.297 1.554-6.29l-2.07 2.19c-.222-.38-1.208-2.082-1.208-2.082l-1.207 2.083-2.072-2.19c-.015 1.992.036 4.76 1.555 6.29zM150.966 154.08l-1.28-1.278v-2.546l-2.937 2.722 5.25 5.252 5.252-5.252-2.938-2.722v2.546l-1.28 1.278v-4.51l2.266-1.946-3.3-2.834-3.3 2.834 2.266 1.945zM166.953 149.02l-1.28-1.28v-2.545l-2.936 2.723 5.25 5.25 5.252-5.25-2.938-2.723v2.546l-1.28 1.28v-4.512l2.266-1.945-3.3-2.833-3.3 2.833 2.265 1.945z"/><path fill="#fff" d="M136.013 153.04c.262.45 1.123 1.94 1.123 1.94l1.71-1.807c-.06 2.25-.554 4.026-1.413 4.89-.402.406-.88.612-1.42.612-.54 0-1.018-.206-1.42-.61-.86-.866-1.353-2.643-1.412-4.892l1.71 1.806 1.123-1.94zM168.595 144.312v5.743l2.136-2.135v-1.743l1.892 1.754-4.633 4.634-4.635-4.633 1.89-1.753v1.743l2.137 2.135v-5.743l-2.035-1.748 2.642-2.268 2.64 2.268z"/><path fill="#ca3745" d="M152.607 149.372v5.743l2.136-2.136v-1.743l1.89 1.753-4.633 4.634-4.633-4.634 1.89-1.753v1.742l2.137 2.135v-5.743l-2.035-1.748 2.64-2.268 2.643 2.268z"/></g><use xlink:href="#g" transform="matrix(-1 0 0 1 378 0)"/><path d="M195.282 150.937l-1.72-2.377 4.41-4.072-4.112-3.38v2.394l-1.72 1.472v-4.342l3.885-2.864-7.03-5.18-7.028 5.18 3.887 2.864v4.342l-1.72-1.472v-2.394l-4.114 3.38 4.412 4.072-1.72 2.377z"/><path fill="#ca3745" d="M183.552 150.51l1.45-2.007-4.328-3.996 3.032-2.49v1.683l2.577 2.206v-5.49l-3.592-2.647 6.308-4.65 6.306 4.65-3.59 2.646v5.49l2.576-2.206v-1.684l3.032 2.49-4.33 3.997 1.452 2.006z"/><path d="M185.785 137.77l3.212 2.366 3.212-2.367-3.213-2.37-.127.096z"/><path fill="#28ae66" d="M188.997 135.934l2.49 1.835c-.376.275-2.278 1.678-2.49 1.834-.212-.156-2.114-1.56-2.49-1.835l2.49-1.836z"/></g><use xlink:href="#h" transform="matrix(1 0 0 -1 0 331.2)"/><path d="M245.902 163.15h-7.037v-2.805h-21.51l-14.975-9.836h-26.764l-14.975 9.835h-21.51v2.805h-7.037v4.918h7.037v2.805h21.51l14.975 9.836h26.765l14.974-9.837h21.51v-2.805h7.038z"/><path fill="#ca3745" d="M175.742 150.953l-14.99 9.8h-21.186v2.806h-7.044v4.077h7.044v2.808h21.187l14.99 9.85h26.535l14.936-9.85h21.24v-2.808h7.044v-4.078h-7.044v-2.808h-21.24l-14.936-9.8zm.318 1.43h25.847l13.718 9.004v1.377h15.308v5.72h-15.308v1.378l-13.718 8.95H176.06l-13.665-8.95v-1.377h-15.36v-5.72h15.36v-1.378z"/><path fill="#ca3745" d="M201.8 152.826l13.378 8.783v1.558h15.332v4.88h-15.332v1.56l-13.38 8.783h-25.603l-13.38-8.782v-1.56h-15.33v-4.88h15.33v-1.56l13.38-8.782z"/><path d="M169.55 170.598l5.794 4.35 3.81-2.863-2.215-1.663-1.596 1.198-1.362-1.022 21.815-16.38h-4.43zm12.646 6.4h4.43l21.816-16.378-5.792-4.348-3.81 2.86 2.214 1.663 1.596-1.198 1.362 1.023zm9.17 0h4.43l-21.814-16.378 1.362-1.023 1.595 1.198 2.215-1.662-3.81-2.86-5.794 4.347zm12.646-6.4l-1.362 1.022-1.596-1.198-2.215 1.663 3.81 2.862 5.792-4.35-21.816-16.378h-4.43zM165.164 165.61l3.893 2.585 3.894-2.586-3.893-2.587z"/><path d="M185.104 165.61l3.893 2.585 3.894-2.586-3.893-2.587zM212.832 165.61l-3.893 2.585-3.895-2.586 3.894-2.587z"/><path fill="#faae29" d="M207.73 170.598l-5.08 3.813-3.097-2.325 1.502-1.127 1.596 1.198 2.076-1.558-21.245-15.95h3.004zm-13.217 5.972h-3.003l-21.244-15.95 5.08-3.813 3.095 2.326-1.5 1.126-1.595-1.2-2.076 1.56zm-8.03 0h-3.002l21.246-15.95-2.075-1.56-1.595 1.2-1.502-1.127 3.098-2.326 5.08 3.813zm5.027-21.922h3.003l-21.244 15.95 2.075 1.558 1.595-1.198 1.5 1.127-3.095 2.326-5.08-3.812z"/><path fill="#28ae66" d="M169.057 163.538l3.12 2.07-3.12 2.072-3.12-2.07zM188.998 163.538l3.12 2.07-3.12 2.072-3.118-2.07zM208.94 163.538l-3.12 2.07 3.12 2.072 3.117-2.07z"/></g><g><path d="M120.514 274.15l-1.528 2.162 2.74 2.094-2.74 2.094 1.527 2.16 3.182.37 3.08-2.38 7.683 4.88v-4.053l-4.835-3.07 4.835-3.072v-4.053l-7.682 4.88-3.08-2.38z"/><path d="M120.514 260.073l-1.528 2.16 2.74 2.095-2.74 2.094 1.527 2.16 3.182.37 3.08-2.38 7.683 4.88V267.4l-4.835-3.072 4.835-3.07v-4.054l-7.682 4.88-3.08-2.38zM120.514 296.74l-1.528-2.162 2.74-2.094-2.74-2.094 1.527-2.16 3.182-.37 3.08 2.38 7.683-4.88v4.053l-4.835 3.07 4.835 3.072v4.053l-7.682-4.88-3.08 2.38zM257.482 274.15l1.528 2.162-2.74 2.094 2.74 2.094-1.528 2.16-3.18.37-3.082-2.38-7.683 4.88v-4.053l4.836-3.07-4.836-3.072v-4.053l7.683 4.88 3.08-2.38z"/><path d="M257.482 260.073l1.528 2.16-2.74 2.095 2.74 2.094-1.528 2.16-3.18.37-3.082-2.38-7.683 4.88V267.4l4.836-3.072-4.836-3.07v-4.054l7.683 4.88 3.08-2.38zM257.482 296.74l1.528-2.162-2.74-2.094 2.74-2.094-1.528-2.16-3.18-.37-3.082 2.38-7.683-4.88v4.053l4.836 3.07-4.836 3.072v4.053l7.683-4.88 3.08 2.38zM226.727 235.73v5.856h4.26v2.588h4.184v-4.713h-3.73v-3.73h-4.713zM239.283 244.965v5.855h4.255v2.59h4.19v-4.714h-3.733v-3.73h-4.712zM151.27 235.73v5.856h-4.262v2.588h-4.183v-4.713h3.732v-3.73h4.712zM226.727 321.083v-5.856h4.26v-2.588h4.184v4.71h-3.73v3.733h-4.713zM151.27 321.083v-5.856h-4.262v-2.588h-4.183v4.71h3.732v3.733h4.712zM239.283 311.848v-5.855h4.255v-2.59h4.19v4.713h-3.733v3.732h-4.712zM138.714 244.965v5.855h-4.256v2.59h-4.188v-4.714h3.732v-3.73h4.712zM138.714 311.848v-5.855h-4.256v-2.59h-4.188v4.713h3.732v3.732h4.712zM204.753 235.594l-3.25-3.156-3.194 2.96 2.782 2.7-3.592 3.488h5.334l1.92-1.863 1.918 1.863h5.334l-3.593-3.488 2.783-2.7-3.193-2.96c-1.085 1.05-2.167 2.104-3.25 3.156zM188.998 235.594c-.27-.264-3.25-3.156-3.25-3.156l-3.193 2.96 2.783 2.7-3.593 3.488h5.334l1.918-1.863 1.92 1.863h5.333l-3.59-3.488 2.78-2.7-3.19-2.96c-1.086 1.05-2.168 2.104-3.252 3.156zM173.244 235.594l3.25-3.156 3.194 2.96-2.783 2.7 3.592 3.488h-5.334l-1.92-1.863-1.918 1.863h-5.334l3.594-3.488-2.783-2.7 3.194-2.96c1.085 1.05 2.167 2.104 3.25 3.156zM204.753 321.22c-.272.262-3.25 3.154-3.25 3.154l-3.194-2.958 2.782-2.7-3.592-3.49h5.334l1.92 1.864 1.918-1.863h5.334l-3.593 3.488 2.783 2.7-3.193 2.96c-1.085-1.05-2.167-2.104-3.25-3.156zM188.998 321.22l-3.25 3.154-3.193-2.958 2.783-2.7-3.593-3.49h5.334l1.918 1.864 1.92-1.863h5.333l-3.59 3.488 2.78 2.7-3.19 2.96c-1.086-1.05-2.168-2.104-3.252-3.156zM173.244 321.22c.272.262 3.25 3.154 3.25 3.154l3.194-2.958-2.783-2.7 3.592-3.49h-5.334l-1.92 1.864-1.918-1.863h-5.334l3.594 3.488-2.783 2.7 3.194 2.96c1.085-1.05 2.167-2.104 3.25-3.156z"/><g fill="#28ae66"><path d="M134.03 281.713v3.037l-7.28-4.623-3.18 2.458-2.818-.327-1.178-1.668 2.856-2.184-2.856-2.184 1.18-1.667 2.816-.327 3.18 2.458 7.28-4.623v3.036l-5.207 3.306zM134.03 267.635v3.037l-7.28-4.623-3.18 2.457-2.818-.327-1.178-1.668 2.856-2.184-2.856-2.183 1.18-1.667 2.816-.328 3.18 2.458 7.28-4.623v3.037l-5.207 3.306zM134.03 289.178v-3.037l-7.28 4.624-3.18-2.458-2.818.327-1.178 1.668 2.856 2.185-2.856 2.184 1.18 1.666 2.816.327 3.18-2.458 7.28 4.623v-3.036l-5.207-3.307zM243.967 281.713v3.037l7.278-4.623 3.18 2.458 2.818-.327 1.18-1.668-2.857-2.184 2.856-2.184-1.18-1.667-2.817-.327-3.18 2.458-7.278-4.623v3.036l5.206 3.306zM243.967 267.635v3.037l7.278-4.623 3.18 2.457 2.818-.327 1.18-1.668-2.857-2.184 2.856-2.183-1.18-1.667-2.817-.328-3.18 2.458-7.278-4.623v3.037l5.206 3.306zM243.967 289.178v-3.037l7.278 4.624 3.18-2.458 2.818.327 1.18 1.668-2.857 2.185 2.856 2.184-1.18 1.666-2.817.327-3.18-2.458-7.278 4.623v-3.036l5.206-3.307zM231.01 236.16v3.73h3.732v3.856h-3.326v-2.588h-4.26v-5h3.855zM243.566 245.393v3.73h3.73v3.857h-3.326v-2.588h-4.26v-5h3.856zM146.985 236.16v3.73h-3.73v3.856h3.326v-2.588h4.26v-5h-3.855zM231.01 320.653v-3.73h3.732v-3.856h-3.326v2.587h-4.26v5h3.855zM146.985 320.653v-3.73h-3.732v-3.856h3.327v2.587h4.26v5h-3.855zM243.566 311.42v-3.732h3.73v-3.855h-3.326v2.587h-4.26v5h3.856zM134.43 245.393v3.73h-3.73v3.857h3.326v-2.588h4.26v-5h-3.856zM134.43 311.42v-3.732h-3.73v-3.855h3.326v2.587h4.26v5h-3.855zM201.496 233.03l3.257 3.16 3.257-3.16 2.564 2.374-2.776 2.694 3.15 3.06h-4.1l-2.095-2.033-2.094 2.033h-4.103l3.15-3.06-2.775-2.694 2.564-2.375zM185.74 233.03c.267.257 3.258 3.16 3.258 3.16l3.257-3.16c.252.232 2.285 2.116 2.563 2.374l-2.775 2.694 3.15 3.06h-4.102L189 239.125l-2.094 2.033h-4.102l3.15-3.06-2.775-2.694 2.564-2.375zM176.502 233.03l-3.257 3.16-3.257-3.16-2.564 2.374 2.776 2.694-3.15 3.06h4.1l2.095-2.033 2.094 2.033h4.1l-3.15-3.06 2.776-2.694-2.564-2.375zM201.496 323.784c.266-.26 3.257-3.163 3.257-3.163l3.257 3.164 2.564-2.375-2.776-2.695 3.15-3.06h-4.1l-2.095 2.032-2.094-2.032h-4.103l3.15 3.06-2.775 2.694c.28.257 2.312 2.14 2.564 2.374zM185.74 323.784L189 320.62l3.257 3.164 2.563-2.375-2.775-2.695 3.15-3.06h-4.102L189 317.687l-2.094-2.032h-4.102l3.15 3.06-2.775 2.694c.28.257 2.312 2.14 2.564 2.374zM176.502 323.784c-.266-.26-3.257-3.163-3.257-3.163l-3.257 3.164-2.564-2.375 2.776-2.695-3.15-3.06h4.1l2.095 2.032 2.094-2.032h4.1l-3.15 3.06 2.776 2.694c-.28.257-2.312 2.14-2.564 2.374z"/></g><path d="M146.58 306.42v9.235h84.836v-9.234h12.55v-56.028h-12.55v-9.234H146.58v9.234h-12.55v56.03z"/><path fill="#ca3745" d="M147.034 241.578v9.217H134.48v55.19h12.554v9.217h83.95v-9.217h12.555v-55.19h-12.555v-9.217h-83.95zm5.403 3.55h73.146v8.897l3.02 2.226h11.387v44.333h-11.44l-2.967 2.17v8.952h-73.146v-8.898l-3.02-2.224h-11.44V256.25h11.388l3.072-2.225v-8.898z"/><path fill="#ca3745" d="M152.86 245.55v8.16l11.017-8.16H152.86zm61.228 0l11.017 8.16v-8.16h-11.017zm-75.635 11.125v7.627l10.382-7.627h-10.38zm90.68 0l10.433 7.68v-7.68h-10.434zm10.433 35.75l-10.434 7.734h10.434v-7.735zm-101.113.053v7.68h10.38l-10.38-7.68zm14.407 10.647v8.104h10.964l-10.964-8.105zm72.245 0l-10.963 8.104h10.963v-8.105z"/><path fill="#28ae66" d="M213.377 245.56c.113.082 26.015 19.213 26.188 19.34v27.01c-.173.13-26.075 19.26-26.188 19.343h-48.76L138.43 291.91V264.9l26.187-19.34h48.76z"/><path d="M144.667 295.02l-3.01-3.493 2.826-3.28-2.827-3.28 2.827-3.28-2.827-3.28 2.827-3.28-2.827-3.28 2.826-3.28-2.826-3.28 3.01-3.495h88.662l3.01 3.494-2.825 3.28 2.826 3.28-2.827 3.28 2.826 3.28-2.827 3.28 2.826 3.28-2.827 3.28 2.826 3.28-3.012 3.495zm60.946-45.235l-3.495-3.01-3.28 2.825-3.28-2.826-3.28 2.826-3.28-2.826-3.28 2.826-3.28-2.826-3.28 2.826-3.28-2.826-3.495 3.01v57.244l3.494 3.01 3.28-2.826 3.28 2.826 3.28-2.826 3.28 2.826 3.28-2.826 3.28 2.826 3.28-2.826 3.28 2.827 3.496-3.012z"/><g fill="#faae29"><path d="M198.623 249.98l-3.065-2.64-3.066 2.64v56.85l3.066 2.642 3.065-2.64zM185.503 249.98l-3.066-2.64-3.065 2.64v56.85l3.065 2.642 3.066-2.64z"/><path d="M144.863 294.593l-2.64-3.066 2.64-3.066h88.27l2.64 3.067-2.64 3.066zM233.132 275.34l2.642 3.066-2.642 3.065h-88.268l-2.642-3.064 2.642-3.066zM233.132 268.352l2.64-3.066-2.64-3.065h-88.27l-2.64 3.066 2.64 3.066z"/></g><g fill="#ca3745"><path d="M205.184 249.98l-3.065-2.64-3.067 2.64v56.85l3.066 2.642 3.063-2.64zM178.943 249.98l-3.066-2.64-3.066 2.64v56.85l3.067 2.642 3.066-2.64z"/><path d="M144.864 288.032l-2.642-3.066 2.642-3.066h88.268l2.642 3.066-2.642 3.066zM144.864 274.912l-2.642-3.066 2.642-3.066h88.268l2.642 3.066-2.642 3.066z"/><path d="M192.064 306.83l-3.066 2.642-3.066-2.64v-56.85l3.066-2.643 3.066 2.64z"/></g><path d="M218.63 251.09h-59.48v4.724h-7.6V301h7.6v4.722h59.695V301h7.602v-45.186h-7.602v-4.724h-.214z"/><path fill="#ca3745" d="M159.587 251.535v4.715h-7.627v44.332h7.627v4.714h6.25l-12.447-10.434V261.97l12.447-10.435h-6.25zm52.596 0l12.393 10.434v32.892l-12.393 10.434h6.25v-4.714h7.574V256.25h-7.575v-4.715h-6.25z"/><g fill="#28ae66"><path d="M166.525 251.535l-12.712 10.646v32.47l12.712 10.646h44.968l12.66-10.647v-32.47c-.152-.125-12.542-10.546-12.66-10.645zm.636 1.8h43.645l11.546 9.694V293.8l-11.545 9.64H167.16l-11.493-9.64V263.03z"/><path d="M178.72 294.29l1.954.843.36 2.282-2.46 2.164 3.572 3.453h-3.437l-2.46-2.366-2.457 2.366h-3.438l3.573-3.454-2.46-2.165.36-2.282 1.953-.844 2.47 1.974.135-.107zM191.468 294.29l1.953.843.36 2.282-2.458 2.164 3.572 3.453h-3.437l-2.46-2.366-2.456 2.366h-3.437l3.573-3.454-2.46-2.165.36-2.282 1.953-.844 2.468 1.974.134-.107zM199.277 294.29l-1.953.843-.36 2.282 2.46 2.164-3.573 3.453h3.438l2.46-2.366 2.456 2.366h3.438l-3.573-3.454 2.46-2.165-.36-2.282-1.954-.844-2.47 1.974-.134-.107zM178.72 262.523l1.954-.844.36-2.282-2.46-2.164 3.572-3.454h-3.437l-2.46 2.365-2.457-2.365h-3.438l3.573 3.454-2.46 2.163.36 2.282 1.953.843 2.47-1.974.135.106zM191.468 262.523l1.953-.844.36-2.282-2.458-2.164 3.572-3.454h-3.437l-2.46 2.365-2.456-2.365h-3.437l3.573 3.454-2.46 2.163.36 2.282 1.953.843 2.468-1.974.134.106zM199.277 262.523l-1.953-.844-.36-2.282 2.46-2.164-3.573-3.454h3.438l2.46 2.365 2.456-2.365h3.438l-3.573 3.454 2.46 2.163-.36 2.282-1.954.843-2.47-1.974-.134.106zM221.9 266.167l-1.95 1.615 1.95 1.614v2.676l-2.998-2.47-2.152 1.95c-.173-.023-2.116-.267-2.308-.29-.085-.16-.692-1.277-.813-1.5l1.985-1.98-1.986-1.98c.12-.224.727-1.343.812-1.5.192-.024 2.135-.27 2.308-.29l2.152 1.95 3-2.47v2.675zM221.9 276.792l-1.95 1.615 1.95 1.613v2.677l-2.998-2.47-2.152 1.95c-.173-.023-2.116-.268-2.308-.29-.085-.16-.692-1.278-.813-1.5l1.985-1.98-1.986-1.98c.12-.224.727-1.343.812-1.5.192-.024 2.135-.27 2.308-.29l2.152 1.95 3-2.47v2.675zM221.9 290.646l-1.95-1.615 1.95-1.613v-2.676l-2.998 2.472-2.152-1.95c-.173.02-2.116.266-2.308.29l-.813 1.5 1.985 1.98-1.986 1.98.812 1.5c.192.023 2.135.268 2.308.29l2.152-1.95 3 2.47v-2.676zM156.097 266.167l1.95 1.615-1.95 1.614v2.676l3-2.47 2.15 1.95c.173-.023 2.117-.267 2.31-.29.084-.16.69-1.277.812-1.5l-1.987-1.98 1.986-1.98c-.123-.224-.73-1.343-.814-1.5-.192-.024-2.136-.27-2.308-.29l-2.152 1.95-3-2.47v2.675zM156.097 276.792l1.95 1.615-1.95 1.613v2.677l3-2.47 2.15 1.95c.173-.023 2.117-.268 2.31-.29.084-.16.69-1.278.812-1.5l-1.987-1.98 1.986-1.98c-.123-.224-.73-1.343-.814-1.5-.192-.024-2.136-.27-2.308-.29l-2.152 1.95-3-2.47v2.675zM156.097 290.646l1.95-1.615-1.95-1.613v-2.676l3 2.472 2.15-1.95c.173.02 2.117.266 2.31.29l.812 1.5-1.987 1.98 1.986 1.98c-.123.223-.73 1.342-.814 1.5-.192.023-2.136.268-2.308.29l-2.152-1.95-3 2.47v-2.676z"/></g><path fill="#ca3745" d="M167.32 253.76l-11.07 9.27c.945.784 1.86 1.603 2.807 2.384.24-.217 2.066-1.855 2.066-1.855l2.7.37 1.06 1.96-1.906 1.907c.26.257 1.906 1.906 1.906 1.906l-1.06 1.96-2.7.318s-1.826-1.583-2.066-1.8l-2.966 2.49v.847c1 .826 1.966 1.664 2.967 2.49.24-.217 2.066-1.8 2.066-1.8l2.7.316 1.06 1.96-1.906 1.907c.26.257 1.906 1.907 1.906 1.907l-1.06 2.012-2.7.317s-1.826-1.636-2.066-1.854l-2.966 2.49v.9l2.967 2.49c.24-.217 2.066-1.854 2.066-1.854l2.7.37 1.06 1.96-1.906 1.906c.26.258 1.906 1.907 1.906 1.907l-1.06 1.96-2.7.37s-1.826-1.636-2.066-1.854c-.944.777-1.865 1.553-2.807 2.33l11.07 9.27h2.436l3.55-3.444-2.278-2.012.423-2.755 2.385-1.007 2.436 1.907 2.385-1.907 2.383 1.006.477 2.754-2.33 2.012 3.442 3.284 3.443-3.284-2.33-2.012.423-2.755 2.437-1.007 2.383 1.907 2.436-1.907 2.383 1.006.424 2.754-2.278 2.012 3.39 3.337 3.442-3.337-2.278-2.012.424-2.755 2.436-1.007 2.384 1.907 2.383-1.907 2.438 1.006.424 2.754-2.278 2.012 3.55 3.443h2.382l11.07-9.27c-.943-.777-1.862-1.55-2.807-2.33-.24.217-2.014 1.853-2.014 1.853l-2.7-.37-1.113-1.96 1.906-1.907c-.26-.258-1.907-1.907-1.907-1.907l1.112-1.96 2.7-.37s1.774 1.636 2.014 1.853l2.965-2.49v-.9l-2.966-2.49c-.24.218-2.014 1.854-2.014 1.854l-2.7-.318-1.113-2.013 1.906-1.907c-.26-.258-1.907-1.907-1.907-1.907l1.112-1.96 2.7-.317s1.774 1.584 2.014 1.8c.993-.82 1.973-1.62 2.965-2.436v-.953l-2.966-2.437c-.24.217-2.014 1.8-2.014 1.8l-2.7-.317-1.113-1.96 1.906-1.906c-.26-.258-1.907-1.907-1.907-1.907l1.112-1.96 2.7-.37s1.774 1.637 2.014 1.853c.948-.782 1.91-1.548 2.86-2.33l-11.124-9.322h-2.383l-3.55 3.443 2.278 2.013-.422 2.754-2.437 1.06-2.382-1.907-2.384 1.907-2.436-1.06-.424-2.754 2.278-2.013-3.39-3.284-3.443 3.283 2.277 2.013-.424 2.754-2.384 1.06-2.437-1.907-2.383 1.907-2.437-1.06-.424-2.754 2.33-2.013-3.443-3.284-3.443 3.283 2.33 2.013-.476 2.754-2.383 1.06-2.384-1.907-2.435 1.907-2.384-1.06-.422-2.754 2.277-2.013-3.602-3.442zm-11.23 23.57v2.172l1.272-1.112z"/><g fill="#fff"><path d="M176.27 301.27l-1.853 1.748h3.654l-1.8-1.747zM188.983 301.27l-1.8 1.748h3.654l-1.854-1.747zM201.747 301.27l-1.853 1.748h3.707l-1.853-1.747zM174.364 253.76l1.907 1.8 1.855-1.8h-3.76zM187.13 253.76l1.853 1.8 1.907-1.8h-3.76zM199.895 253.76l1.853 1.8 1.854-1.8h-3.707zM221.875 266.737l-1.27 1.06 1.27 1.006v-2.066zM221.875 277.33l-1.27 1.06 1.27 1.06v-2.12zM221.875 287.976l-1.27 1.06 1.27 1.06v-2.12zM156.09 266.685v2.17l1.272-1.058-1.27-1.112zM156.09 277.33v2.17l1.272-1.11-1.27-1.06zM156.09 287.924v2.17l1.272-1.058-1.27-1.112z"/></g><g><path d="M199.9 274.857v-3.79h-3.836v-4.158h-14.132v4.156h-3.837v3.79h-5.3v7.1h5.3v3.79h3.837v4.157h14.132v-4.157h3.837v-3.79h5.3v-7.1z"/><path fill="#faae29" d="M188.783 267.338v4.285l-6.074 3.453v3.116h-9.486v-2.906h5.3v-3.79h3.836v-4.158zM189.212 289.475v-4.285l6.074-3.453v-3.116h9.485v2.907h-5.298v3.79h-3.837v4.158z"/><path fill="#fff" d="M195.286 278.192v-3.116l-6.074-3.453v-4.285h6.423v4.157h3.837v3.79h5.3v2.907zM173.225 278.62h9.484v3.117l6.074 3.453v4.285h-6.423v-4.157h-3.836v-3.79h-5.3z"/><path fill="#ca3745" d="M183.138 278.62v2.89l5.645 3.21v-6.1z"/><path fill="#28ae66" d="M188.783 272.094l-5.645 3.21v2.888h5.645z"/><path fill="#ca3745" d="M194.858 278.192v-2.888l-5.645-3.21v6.098z"/><path fill="#28ae66" d="M189.212 284.72l5.645-3.21v-2.89h-5.645z"/></g></g><g><path d="M137.647 353.73v11.717h-11.165v10.627h-11.317v30.26h11.317v10.626h11.165v11.717h40.598l7.14 4.29-3.432 2.06h-14.476l-1.248-1.408h13.118l-3.696-3.722h-18.767l8.503 8.85h17.598l6.01-3.61 6.013 3.61h17.598l8.502-8.85h-18.766l-3.696 3.72h13.12l-1.25 1.41H196.04l-3.43-2.06 7.14-4.29h40.598V416.96h11.166v-10.627h11.316v-30.26h-11.316v-10.626h-11.166V353.73H199.75l-7.14-4.29 3.43-2.06h14.478l1.25 1.407h-13.12l3.696 3.722h18.766l-8.502-8.853h-17.6L189 347.27l-6.012-3.613h-17.598l-8.503 8.852h18.767l3.696-3.723h-13.12l1.25-1.408h14.475l3.43 2.06-7.138 4.29z"/><path fill="#ca3745" d="M199.63 428.23h40.306v-11.706h11.123v-10.646h11.334v-29.396H251.06V365.89h-11.124v-11.707H199.63l-16.738-10.116h-17.32l-7.68 7.998h17.584l2.86-2.86h-13.082l2.013-2.278h14.83l18.962 11.44h34.64v11.706h11.175v10.646h11.335v20.974h-11.335v10.646H235.7v11.706h-34.64l-18.963 11.387h-14.83l-2.013-2.224h13.083l-2.86-2.86H157.89l7.68 7.997h17.32zm-22.723-4.184h-34.64V412.34h-11.123v-10.646H119.81V380.72h11.334v-10.647h11.123v-11.705h34.64l19.014-11.44h14.78l2.012 2.277h-13.03l2.86 2.86h17.585l-7.68-7.998h-17.32l-16.737 10.116h-40.307v11.706h-11.176v10.592h-11.335v29.396h11.335v10.647h11.176v11.705h40.307l16.737 10.117h17.32l7.68-7.998h-17.585l-2.86 2.86h13.03l-2.013 2.223H195.92z"/><path fill="#faae29" d="M188.983 351.59l-11.97 7.203H142.69V370.5H131.57v10.645h-11.335v20.127h11.335v10.646h11.123v11.706h34.323l11.97 7.15 11.97-7.15h34.322v-11.706h11.176v-10.646h11.336v-20.127H246.45V370.5h-11.175v-11.707h-34.322zm0 2.966l11.282 6.78h32.52v11.705h11.177v10.594h11.282v15.096h-11.282v10.646h-11.176v11.705h-32.52l-11.283 6.78-11.23-6.78h-32.52v-11.704h-11.176V398.73h-11.334v-15.096h11.334V373.04h11.176v-11.704h32.52z"/><path fill="#28ae66" d="M232.342 408.954v11.717h-32.2l-11.145 6.697-11.144-6.696h-32.2v-11.716h-11.166v-10.628H123.17V384.08h11.317v-10.627h11.166v-11.717h32.2l11.144-6.696 11.145 6.696h32.2v11.717h11.165v10.627h11.316v14.246h-11.316v10.628z"/><path d="M149.87 404.85v11.34h17.7l-17.7-11.74zM149.87 377.558v-11.34h17.7l-17.7 11.74zM228.127 404.85v11.34h-17.7l17.7-11.74zM228.127 377.558v-11.34h-17.7l17.7 11.74z"/><path fill="#ca3745" d="M150.298 405.248l15.85 10.513h-15.85zM150.298 377.16c.616-.41 14.77-9.798 15.85-10.514h-15.85v10.513zM227.698 405.248l-15.85 10.513h15.85V405.25zM227.698 377.16l-15.85-10.514h15.85v10.513z"/><g id="i"><path d="M172.445 388.094v-5.79h-1.975l-9.477-5.926-.113.07-9.362 5.855h-1.976v5.79h-4.455v6.22h4.455v5.79h1.976l9.475 5.926 9.477-5.926h1.975v-5.79h6.782v-6.22z"/><path fill="#ca3745" d="M160.994 376.884l8.668 5.42h-17.335l8.667-5.42zm8.667 23.22l-8.666 5.42-8.666-5.42h17.333zM167.562 388.523v5.363h-10.81v-5.363z"/><g fill="#faae29"><path d="M172.017 394.313v5.363h-10.81v-5.363zM160.78 394.313v5.363h-10.81v-5.363zM178.8 388.523v5.363h-10.81v-5.363zM156.325 388.523v5.363h-10.81v-5.363zM172.017 382.732v5.362h-10.81v-5.362zM160.78 382.732v5.362h-10.81v-5.362z"/></g><path d="M153.35 389.714v2.98h-4.856v-2.98zM157.804 383.923v2.98h-4.855v-2.98zM169.04 383.923v2.98h-4.855v-2.98zM164.585 389.714v2.98h-4.855v-2.98zM175.822 389.714v2.98h-4.855v-2.98zM169.04 395.505v2.98h-4.855v-2.98zM157.804 395.505v2.98h-4.855v-2.98z"/><g fill="#fff"><path d="M152.89 390.17h-3.94v2.066h3.94zM157.346 384.38h-3.94v2.065h3.94zM168.583 384.38h-3.94v2.065h3.94zM164.128 390.17h-3.94v2.066h3.94zM175.365 390.17h-3.94v2.066h3.94zM168.583 395.962h-3.94v2.065h3.94zM157.346 395.962h-3.94v2.065h3.94z"/></g></g><use xlink:href="#i" transform="matrix(-1 0 0 1 378 0)"/><g id="j"><path d="M200.45 378.42v5.79h-1.976l-9.477 5.926-.113-.07-9.362-5.855h-1.976v-5.79h-5.618v-6.22h5.618v-5.79h1.976l9.475-5.926 9.477 5.926h1.975v5.79h5.617v6.22z"/><path fill="#faae29" d="M188.998 389.63l8.668-5.42H180.33l8.668 5.42zm8.667-23.22l-8.667-5.42-8.666 5.42h17.333z"/><g fill="#ca3745"><path d="M200.02 372.2v-5.362h-10.808v5.362zM188.784 372.2v-5.362h-10.81v5.362zM205.64 377.99v-5.362h-10.81v5.363zM194.402 377.99v-5.362h-10.81v5.363zM183.165 377.99v-5.362h-10.808v5.363zM200.02 383.782v-5.363h-10.808v5.362zM188.784 383.782v-5.363h-10.81v5.362z"/></g><path d="M185.807 368.03v2.98h-4.855v-2.98zM197.044 368.03v2.98h-4.855v-2.98zM180.188 373.82v2.98h-4.855v-2.98zM191.426 373.82v2.98h-4.855v-2.98zM202.663 373.82v2.98h-4.855v-2.98zM185.807 379.61v2.98h-4.855v-2.98zM197.044 379.61v2.98h-4.855v-2.98z"/><g fill="#fff"><path d="M185.35 368.486h-3.94v2.065h3.94zM196.587 368.486h-3.94v2.065h3.94zM179.73 374.277h-3.94v2.065h3.94zM190.97 374.277h-3.942v2.065h3.94zM202.205 374.277h-3.94v2.065h3.94zM185.35 380.068h-3.94v2.065h3.94zM196.587 380.068h-3.94v2.065h3.94z"/></g></g><use xlink:href="#j" y="31.788"/></g><g><path d="M127.676 479.354l42.052-22.63h38.539l42.05 22.63v37.29l-42.05 22.63h-38.54l-42.05-22.63z"/><path fill="#28ae66" d="M169.863 457.15l-41.738 22.46v36.756l41.738 22.458h38.293l41.74-22.458V479.61l-41.74-22.46h-38.293zm.74 3.02h36.812l39.514 21.24v33.21l-39.515 21.238H170.58l-39.51-21.24v-33.21z"/><path fill="#faae29" d="M189.212 497.784v37.64h18.095l39.183-21.087v-16.124h-57.706v-37.64H170.69l-39.185 21.086v16.124z"/><path fill="#fff" d="M188.783 497.784v37.64h-18.095l-39.183-21.087v-16.124h57.706v-37.64h18.097l39.183 21.086v16.124z"/><path d="M192.514 533.317v-10.88l-3.517 2.232-3.518-2.232v10.88h-10.943l7.383-5.415v-7.723l-11.26-7.144h-7.867v-30.073h7.868l11.26-7.144v-7.724l-7.383-5.414h10.942v10.88l3.517-2.232 3.517 2.232v-10.88h10.942l-7.383 5.414v7.723l11.26 7.143h7.867v30.073h-7.868l-11.26 7.144v7.723l7.384 5.414z"/><path fill="#faae29" d="M192.956 463.135v11.23l-3.76-2.384v3.18l17.213 10.96h5.666v11.656h2.702V483.37h-7.575l-11.545-7.31v-8.16l6.513-4.765h-9.214zM163.242 498.2v14.406h7.52l11.6 7.36v8.16l-6.514 4.765h9.216v-11.228l3.707 2.385v-3.285l-17.212-10.857h-5.615V498.2h-2.7z"/><path fill="#fff" d="M175.847 463.135l6.515 4.766v8.16l-11.6 7.31h-7.52v14.406h2.7V486.12h5.615l17.214-10.91v-3.23l-3.706 2.384v-11.23h-9.217zm36.23 35.064v11.704h-5.67l-17.213 10.858v3.285l3.76-2.385v11.23h9.217l-6.513-4.767v-8.158l11.546-7.36h7.574v-14.408h-2.7z"/><path fill="#ca3745" d="M166.352 509.458h5.338l17.307 10.98 17.307-10.98h5.338v-22.916h-5.338l-17.307-10.98-17.307 10.98h-5.338z"/><path d="M200.977 503.445h3.695v-1.748h-2.78v-3.18h5.942v8.107h-5.696v5.53h-11.724v-7.946h5.16v3.178h-2v1.59h5.403v-3.04l-21.96-13.382h-3.696v1.748h2.78v3.178h-5.94v-8.104h5.695v-5.53h11.724v7.945h-5.16v-3.177h1.998v-1.59h-5.402v3.04zm-2-13.383v-3.038h-5.402v1.59h2v3.177h-5.16v-7.944h11.724v5.53h5.694v8.104h-5.94v-3.178h2.78v-1.748h-3.697l-21.96 13.383v3.038h5.4v-1.59h-1.998v-3.177h5.16v7.945h-11.725v-5.53h-5.696v-8.105h5.94v3.18h-2.78v1.747h3.696z"/><path fill="#fff" d="M199.406 505.697v3.707h-6.26v-2.446h2v-2.32h-4.303v7.087h10.867v-5.53h5.696v-7.247h-5.085v2.32h2.78v2.606h-4.243l-22.27-13.57v-3.708h6.26v2.446h-2v2.32h4.304v-7.087h-10.866v5.53h-5.695v7.247h5.082v-2.32h-2.78v-2.606h4.244zm1.45-13.57h4.246v2.604h-2.78v2.322h5.084v-7.248h-5.695v-5.53h-10.867v7.09h4.303v-2.322h-2v-2.446h6.26v3.707l-22.27 13.57h-4.243v-2.605h2.78v-2.32h-5.084v7.247h5.694v5.53h10.867v-7.09h-4.302v2.323h2v2.445h-6.26v-3.707z"/><path d="M238.042 499.884v11.762h-5.005v-4.154h-5.046v4.154h-5.004v-11.762h5.005v4.154h5.047v-4.154zM220.132 515.5v11.76h-5.005v-4.153h-5.046v4.154h-5.004V515.5h5.005v4.153h5.047V515.5zM238.042 496.113V484.35h-5.005v4.155h-5.046v-4.154h-5.004v11.763h5.005v-4.154h5.047v4.153zM139.953 499.884v11.762h5.005v-4.154h5.046v4.154h5.005v-11.762h-5.006v4.154h-5.046v-4.154zM139.953 496.113V484.35h5.005v4.155h5.046v-4.154h5.005v11.763h-5.006v-4.154h-5.046v4.153zM220.132 480.5v-11.763h-5.005v4.154h-5.046v-4.153h-5.004V480.5h5.005v-4.155h5.047v4.154zM157.864 515.5v11.76h5.005v-4.153h5.045v4.154h5.005V515.5h-5.005v4.153h-5.046V515.5zM157.864 480.5v-11.763h5.005v4.154h5.045v-4.153h5.005V480.5h-5.005v-4.155h-5.046v4.154zM223.118 472.256v8.932h16.597zM154.877 523.742v-8.932H138.28zM154.877 472.256v8.932H138.28zM223.118 523.742v-8.932h16.597z"/><g fill="#ca3745"><path d="M233.465 507.064v4.154h4.148v-10.905h-4.148v4.154h-5.903v-4.154h-4.148v10.905h4.148v-4.154zM215.555 522.678v4.154h4.148v-10.905h-4.148v4.154h-5.903v-4.153h-4.148v10.905h4.148v-4.154zM233.465 488.934v-4.154h4.148v10.905h-4.148v-4.155h-5.903v4.155h-4.148V484.78h4.148v4.154zM144.53 507.064v4.154h-4.148v-10.905h4.148v4.154h5.903v-4.154h4.148v10.905h-4.147v-4.154zM144.53 488.934v-4.154h-4.148v10.905h4.148v-4.155h5.903v4.155h4.148V484.78h-4.147v4.154zM215.555 473.32v-4.154h4.148v10.905h-4.148v-4.154h-5.903v4.155h-4.148v-10.904h4.148v4.154zM162.44 522.678v4.154h-4.148v-10.905h4.148v4.154h5.903v-4.153h4.148v10.905h-4.147v-4.154zM162.44 473.32v-4.154h-4.148v10.905h4.148v-4.154h5.903v4.155h4.148v-10.904h-4.147v4.154z"/></g><path fill="#faae29" d="M223.57 472.986v7.786h14.46l-14.46-7.786zm-83.58 42.268l14.46 7.786v-7.786h-14.46z"/><path fill="#fff" d="M154.45 472.986l-14.46 7.786h14.46v-7.786zm69.12 42.268v7.786l14.46-7.786h-14.46z"/></g></g></svg>