<svg xmlns="http://www.w3.org/2000/svg" width="900" height="600"><path d="M0 0h900v600H0z"/><path fill="#fcdc04" d="M0 100h900v100H0z"/><path fill="#d90000" d="M0 200h900v100H0z"/><path fill="#fcdc04" d="M0 400h900v100H0z"/><path fill="#d90000" d="M0 500h900v100H0z"/><circle cx="450" cy="300" r="93.5" fill="#fff"/><g stroke="#000"><path d="M433.52 228.39l-6.064-11.17c2.34-2.34 6.277-4.15 12.553-4.15 0 .427-.64 12.236-.64 12.236z" fill="#d90000"/><path d="M439.37 225.412l.852-12.34s12.554-.745 19.362 7.446c.107-.106-6.702 9.574-6.702 9.574z" fill="#fcdc04"/><path d="M453.095 229.986l6.17-9.574c4.15 4.362 5.85 7.447 6.49 12.128.106.106-9.788 2.446-9.788 2.34 0-.107-2.765-4.788-2.872-4.894z" fill="#d90000"/><path d="M436.605 388.073s11.596-13.298 34.15-10.425c-3.405-5.533-14.362-4.894-14.362-4.894s-3.404-25.85-.745-27.128c2.66-1.277 13.936.106 13.936.106 1.49 0 4.043-4.042 2.022-6.595-2.022-2.554-7.98-12.34-5.533-14.256 2.448-1.914 15.745 1.065 15.745 1.065l-37.553-48.086s-3.83-18.086 3.83-26.81c9.256-7.66 8.298-15.957 7.98-15.85-1.278-8.405-14.044-14.47-22.66-6.703-5.108 6.17-1.704 10.85-1.704 10.85s-13.403 3.618-13.935 5.958c-.532 2.34 15.107-.425 15.107-.425l-1.49 10.745s-30.426 27.66-7.127 51.596c.212-.105.744-1.063.744-1.063s8.19 10.107 16.808 12.34c8.085 8.3 7.34 7.022 7.34 7.022s1.596 13.085.107 15.638c-2.02-.64-22.66-1.383-25.745-.213-2.766.85-13.404.32-10.745 17.66 2.02-4.68 3.83-8.83 3.83-8.83s-.32 6.276 2.234 8.51c-.426-6.596 2.446-11.063 2.446-11.063s.532 7.234 2.127 8.297c1.596 1.063 1.596-11.703 10.427-10.64 8.83 1.065 15.212.746 15.212.746s2.98 25 2.02 27.34c-6.382-1.49-21.594.64-22.552 4.47 8.936-.533 13.086.53 13.086.53s-7.234 6.384-5 10.107z"/><path d="M440.19 251.66s-22.138 24.403-12.586 43.076c.508-2.604.286-4.24.606-4.134-.532-.32 2.745 2.247 2.496 1.747.07-1.35-.998-4.244-.998-4.244l2.995.75c-.582-1.083-1.165-2.164-1.748-3.246 1.415.166 2.83.332 4.244.5 0 0-1.5-3.995-1-3.995s3.495.25 3.495.25c-6.296-11.3-.356-20.683 2.496-30.705zM447.882 230.73s1.17 8.405-3.404 10.852c-.745.532-3.617 1.49-3.192 3.192.532 2.34 1.808 1.915 3.617 1.49 4.787-.852 10.32-11.065 2.98-15.533z" fill="#9ca69c" stroke="#9ca69c"/><circle cx="438" cy="238" r="1.8" fill="#fff" stroke="none"/><path d="M432.563 244.986c-1.17.958-7.34 7.34-1.277 9.68 6.277-1.7 4.574-2.87 5.958-4.254.035-2.872-3.12-3.617-4.68-5.426z" fill="#d90000"/><path d="M445.967 305.307c-.32 1.383-1.702 6.49.212 10.425 5.32-2.234 7.766-1.596 9.574-.426-4.36-3.51-6.063-5-9.787-10z" fill="#9ca69c" stroke="#9ca69c"/><path d="M455.116 329.455l.32 11.915s4.148.745 6.063 0c1.914-.745-.108-8.298-6.384-11.915z" fill="#fff" stroke="#fff"/><path d="M485.223 330.945s-7.66-18.51-27.235-23.192c-19.575-4.68-17.022-25.532-15.426-26.81.852-1.808 1.49-4.573 7.128-1.913 5.64 2.66 31.596 15.744 35.32 16.382 3.723.64.532 35.96.213 35.533z" fill="#9ca69c"/><path d="M466.606 307.647c-.32.212 26.17 15.637 18.19 28.936 7.555-5 5.108-13.723 5.108-13.723s6.17 16.064-8.83 23.936c1.596 1.384 2.66 1.064 2.66 1.064l-2.554 2.553s-1.17 1.915 8.937-2.98c-2.767 2.235-2.98 3.83-2.98 3.83s.745 2.13 7.34-3.616c-5.318 5.745-6.49 8.723-6.49 8.617 14.363-1.277 45.64-47.98-9.892-61.81 2.98 3.086 2.553 2.66 2.553 2.66z" fill="#d90000"/><path d="M467.776 303.072c3.617 2.553 4.893 3.404 5.32 4.68-3.3-.743-6.278-.53-6.278-.53s-7.127-6.81-8.404-7.34c-.958 0-6.49-3.512-6.49-3.512-2.765-1.383-5.318-10.957 4.895-8.192 10.53 5 12.02 5.426 12.02 5.426 4.184 1.312 8.368 2.625 12.553 3.936 2.41 2.696 4.822 5.39 7.234 8.086 0 0-12.872-6.384-14.468-6.49 3.51 2.872 5.53 6.808 5.53 6.808-4.077-1.17-7.623-2.234-11.914-2.872z" fill="#fff"/><path d="M417.67 245.944s12.34-2.98 13.83-2.553" stroke="#fff"/></g></svg>