<svg xmlns="http://www.w3.org/2000/svg" xmlns:xlink="http://www.w3.org/1999/xlink" version="1" width="450" height="300"><path fill="#bf0a30" d="M0 0h450v300H0z"/><path d="M37.5 148.84L224.225 275 412.5 148.595 224.225 25 37.5 148.84z" fill="#002868"/><path d="M84 149.128L224.417 244 366 148.944 224.417 56 84 149.128z" fill="#fff"/><path d="M148.175 145.014h7.835l1.36 4.376h4.82l-7.48-21.228h-5.116l-7.568 21.228h4.67l1.48-4.376zm3.903-12.063h.06l2.63 8.398h-5.41l2.72-8.397zm12.97 16.44h4.345v-8.308h4.583c1.58-.014 2.566.294 2.96.924.394.63.56 1.66.5 3.097 0 1.073.042 1.935.125 2.587.083.65.2 1.218.348 1.7h4.908v-.562c-.454-.138-.73-.498-.828-1.083-.1-.585-.138-1.633-.118-3.145-.003-1.91-.234-3.205-.69-3.888-.46-.682-1.125-1.18-2-1.493 1.054-.376 1.864-1.015 2.427-1.92.564-.902.848-1.948.854-3.137.023-.65-.136-1.44-.476-2.37-.34-.93-.995-1.757-1.963-2.483-.966-.725-2.38-1.108-4.24-1.148h-10.733v21.228zm4.345-11.886v-5.676h5.53c1.267.045 2.11.368 2.527.968.417.6.61 1.204.576 1.81 0 1.04-.282 1.785-.85 2.237-.568.45-1.428.672-2.58.66h-5.203zm21.78 4.7l2.07-2.127 6.563 9.313h5.706l-9.165-12.536 8.662-8.692h-5.736l-8.1 8.633v-8.633h-4.436v21.228h4.435v-7.185zm21.1 2.81h7.834l1.36 4.376h4.82l-7.48-21.228h-5.115l-7.57 21.228h4.672l1.48-4.376zm3.902-12.063h.06l2.63 8.398h-5.41l2.72-8.397zm25.92 9.994h-.06l-8.426-14.782h-4.673v21.228h4.14v-15.138h.06l8.66 15.138h4.436v-21.228h-4.14v14.782zm7.32-.088c-.03.916.18 1.92.633 3.01.453 1.09 1.336 2.033 2.65 2.83 1.312.798 3.244 1.216 5.795 1.255.69.034 1.688-.094 2.997-.38 1.308-.288 2.513-.93 3.614-1.927 1.102-.997 1.687-2.543 1.756-4.64-.05-1.862-.615-3.2-1.693-4.017-1.078-.816-2.366-1.38-3.866-1.69l-5.173-1.27c-.48-.08-.967-.268-1.456-.565-.488-.297-.75-.847-.79-1.65.05-.948.454-1.612 1.216-1.993.762-.382 1.59-.565 2.48-.55 1.868.073 3.062.487 3.58 1.24.52.755.775 1.405.766 1.952h4.258c.01-.905-.23-1.883-.714-2.935-.485-1.053-1.33-1.96-2.534-2.725-1.205-.763-2.88-1.163-5.03-1.2-2.27.037-3.996.426-5.178 1.168s-1.98 1.616-2.398 2.62c-.417 1.006-.61 1.92-.585 2.746.068 2.254.763 3.777 2.086 4.57 1.323.795 2.875 1.35 4.656 1.668l2.277.532c1.142.24 2.063.537 2.763.895.7.356 1.06.935 1.08 1.736-.054 1.097-.53 1.836-1.43 2.217-.9.38-1.902.558-3.006.532-1.88-.07-3.11-.493-3.688-1.27-.58-.78-.848-1.5-.806-2.16h-4.258zm25.338 2.158h7.835l1.36 4.376h4.82l-7.48-21.228h-5.116l-7.57 21.228h4.673l1.478-4.376zm3.902-12.063h.06l2.63 8.398h-5.41l2.72-8.397zm11.876 9.906c-.03.916.18 1.92.633 3.01.452 1.09 1.335 2.033 2.648 2.83 1.315.798 3.247 1.216 5.797 1.255.69.034 1.69-.094 2.997-.38 1.31-.288 2.514-.93 3.615-1.927 1.1-.997 1.685-2.543 1.754-4.64-.05-1.862-.615-3.2-1.692-4.017-1.078-.816-2.367-1.38-3.866-1.69l-5.174-1.27c-.482-.08-.967-.268-1.456-.565-.49-.297-.753-.847-.79-1.65.048-.948.453-1.612 1.215-1.993.763-.382 1.59-.565 2.48-.55 1.87.073 3.063.487 3.582 1.24.52.755.774 1.405.765 1.952h4.257c.01-.905-.23-1.883-.714-2.935-.485-1.053-1.33-1.96-2.534-2.725-1.204-.763-2.88-1.163-5.03-1.2-2.27.037-3.995.426-5.177 1.168-1.183.742-1.983 1.616-2.4 2.62-.416 1.006-.61 1.92-.584 2.746.066 2.254.76 3.777 2.084 4.57 1.323.795 2.876 1.35 4.657 1.668l2.276.532c1.144.24 2.065.537 2.765.895.7.356 1.06.935 1.08 1.736-.055 1.097-.532 1.836-1.43 2.217-.9.38-1.903.558-3.006.532-1.88-.07-3.11-.493-3.688-1.27-.58-.78-.848-1.5-.806-2.16h-4.257z" style="text-align:start;line-height:125%;-inkscape-font-specification:Helvetica LT Std Bold" font-size="28" font-weight="bold" fill="#002868" font-family="Helvetica LT Std"/><path d="M229.484 49.98l-5.52-3.998L218.45 50l2.095-6.49-5.522-4.005 6.815-.012 2.1-6.493 2.117 6.484 6.818-.01-5.507 4.02 2.116 6.487z" fill="#fff"/><path d="M234.964 190L225 197.08l-9.976-7.074 3.81 11.453-9.966 7.087 12.32-.003L225.003 220l3.804-11.454 12.324-.01-9.968-7.075 3.8-11.46z" fill="#002868"/><path d="M202.7 190l-9.965-7.08-9.976 7.074 3.81-11.453-9.966-7.087 12.32.003L192.74 160l3.803 11.454 12.325.01-9.968 7.075 3.8 11.46z" id="a" fill="#002868"/><path d="M215.98 243.54l-3.998 5.522 4.018 5.51-6.49-2.094-4.005 5.522-.012-6.815-6.493-2.1 6.484-2.117-.01-6.818 4.02 5.507 6.487-2.116z" id="c" fill="#fff"/><path d="M233.02 243.54l3.998 5.522-4.018 5.51 6.49-2.094 4.005 5.522.012-6.815 6.493-2.1-6.484-2.117.01-6.818-4.02 5.507-6.487-2.116z" id="m" fill="#fff"/><use transform="translate(64.5)" id="b" width="450" height="300" xlink:href="#a"/><use transform="translate(-32.3 -85)" width="450" height="300" xlink:href="#b"/><use transform="translate(151.5 -119)" id="d" width="450" height="300" xlink:href="#c"/><use transform="translate(-27 -18)" id="e" width="450" height="300" xlink:href="#d"/><use transform="translate(-27 -18)" id="f" width="450" height="300" xlink:href="#e"/><use transform="translate(-27 -17)" id="g" width="450" height="300" xlink:href="#f"/><use transform="translate(-27 -18)" id="h" width="450" height="300" xlink:href="#g"/><use transform="translate(-163.5 108)" id="i" width="450" height="300" xlink:href="#h"/><use transform="translate(24 16)" id="j" width="450" height="300" xlink:href="#i"/><use transform="translate(24 16)" id="k" width="450" height="300" xlink:href="#j"/><use transform="translate(24 17)" id="l" width="450" height="300" xlink:href="#k"/><use transform="translate(24 16)" width="450" height="300" xlink:href="#l"/><use transform="translate(-144 -99.1)" width="450" height="300" xlink:href="#c"/><use transform="translate(-151 -119)" id="n" width="450" height="300" xlink:href="#m"/><use transform="translate(27 -18)" id="o" width="450" height="300" xlink:href="#n"/><use transform="translate(27 -18)" id="p" width="450" height="300" xlink:href="#o"/><use transform="translate(27 -17)" id="q" width="450" height="300" xlink:href="#p"/><use transform="translate(27 -18)" id="r" width="450" height="300" xlink:href="#q"/><use transform="translate(187 90.9)" id="s" width="450" height="300" xlink:href="#r"/><use transform="translate(-24 17.1)" id="t" width="450" height="300" xlink:href="#s"/><use transform="translate(-24 16)" id="u" width="450" height="300" xlink:href="#t"/><use transform="translate(-24 16)" id="v" width="450" height="300" xlink:href="#u"/><use transform="translate(-24 17)" id="w" width="450" height="300" xlink:href="#v"/><use transform="translate(-24 16)" width="450" height="300" xlink:href="#w"/></svg>