<svg xmlns="http://www.w3.org/2000/svg" version="1" width="594" height="459"><path d="M0 0h594v459H0V0z" fill="#0c2d83"/><path fill="#129612" d="M281.704 64.003h35.61V88.76h-35.61z"/><path d="M264.78 82c0 .534 1.74 1.184 4.868 1.184 2.593 0 6.1.292 7.78.52 2.44.383 3.116-.287 2.353-1.05-1.143-1.3-15-1.877-15-.655zM327.015 82l-3.117 1.392 7.128.39c3.814 0 7.472-.574 7.472-.956s-1.345-.97-2.87-.97c-1.45 0-3.343-.368-4.03-.75-.838-.382-2.676.052-4.583.893z"/><path d="M298.948 53.185c-.915 1.376-2.288 3.21-3.05 3.974-.763.84-1.373 2.216-1.45 3.057 0 1.223-.228 1.07-.838-.688-1.373-3.746-2.44-4.358-4.958-3.058-1.144.61-3.356 1.375-4.805 1.605-1.45.23-3.05.917-3.508 1.452-.382.61-2.594 1.222-4.73 1.375-4.5.382-6.71 1.605-12.508 6.802-1.296 1.223-2.822 2.14-3.355 2.14-1.45 0-1.373.46.61 2.675 1.068 1.223 2.135 1.758 2.974 1.53.764-.23 1.527-.078 1.832.38.228.383 1.372.765 2.517.84 1.676.077 1.524.23-1.07.92-1.982.61-4.27 2.14-6.253 4.28-3.51 3.744-3.89 4.66-1.83 4.66.762 0 1.753.383 2.287.918.458.46 2.67.917 4.882.994 3.508.076 4.042.382 4.27 1.758.306 2.14 1.297 2.14 6.33-.153 5.34-2.37 8.695-4.97 11.517-8.79 2.212-3.058 2.288-4.663.23-4.663-1.45 0-2.365-3.67-1.374-5.274 1.22-1.987 4.728-1.987 6.787 0 1.678 1.605 1.983 1.605 4.958.688 2.745-.916 3.355-.916 5.567.307 2.517 1.376 2.593 1.376 4.5-.612 2.136-2.14 4.957-2.598 6.483-1.07 1.296 1.3 1.144 5.12-.23 5.656-1.448.613-1.448 2.065.077 5.046 1.678 3.21 4.424 5.426 9.99 8.178 5.645 2.828 6.18 2.828 7.018.688.458-1.376 1.22-1.682 4.576-1.758 2.136-.077 4.348-.535 4.805-.994.535-.535 1.526-.917 2.29-.917 2.135 0 1.677-1.3-1.755-4.815-1.983-1.91-4.424-3.592-6.33-4.127-2.593-.687-2.746-.84-1.068-.917 1.144-.077 2.288-.458 2.517-.84.305-.46 1.068-.612 1.83-.382.84.23 1.907-.305 2.975-1.528 1.982-2.217 2.058-2.675.61-2.675-.535 0-2.06-.994-3.357-2.217-5.11-4.89-8.542-6.573-14.338-6.878-.534-.077-1.068-.84-1.297-1.682-.38-1.376-.84-1.528-2.974-1.146-1.373.305-3.204.535-4.043.61-.838.077-2.744.918-4.193 1.912-2.67 1.758-3.737 1.376-3.814-1.3 0-.61-1.22-2.522-2.67-4.127-1.448-1.682-2.67-3.287-2.67-3.67 0-1.528-2.363-.382-3.964 1.835zm4.878 3.43c1.45 1.375 2.978 3.143 3.283 4.137 1.067 3.515 2.19 4.026 5.852 2.04 1.906-.995 3.82-1.804 4.81-1.804.916 0 2.216-.445 2.75-.98 1.526-1.53 1.348-.604.128 3.37-1.754 5.81.188 1.66-4.388-1.015-.153-.153-1.82 3.74-1.057 2.898.762-.84 1.25-1.993 1.022-2.222-.457-.46-7.506 4.002-8.803 5.76-.915 1.223-.69 1.3-2.748.23-2.135-1.147-2.118-1.02-2.118-6.98 0-3.593-.71-6.146-1.17-6.146-.457 0-.793 2.835-.793 6.427 0 5.884-.107 5.72-2.014 6.41-2.668 1.07-3.65 1.103-3.19-.043.38-1.146-5.836-7.653-6.675-6.89-.23.307.166 1.925 1.08 2.92.917.993 1.242 1.754 1.242 1.983 0 .153-.95-.056-2.704.097-2.67.153-3.164.316-4.613-1.365-.992-1.147-1.63-2.28-1.63-2.508 0-1.147 2.87-2.68 4.473-2.68.915 0 1.473-.368 1.473-.75s.596-1.01 1.283-1.24c1.448-.535 3.01 1.692 3.01 3.68 0 .84.44 1.253 1.05 1.788.916.765 1.66.83 2.345-.927.38-1.07.825-2.248.825-2.4 0-.23.818-1.297 2.038-2.596 1.297-1.224 2.413-2.756 2.413-3.138 0-1.147.157-.733 2.826 1.942zm-23.948 7.315c0 2.064-2.28 3.405-5.79 3.405-2.592 0-6.257 1.67-6.257 2.74 0 .383.674.68 1.436.373.687-.306 2.212-.67 3.432-.9 1.83-.306 1.935-.326 1.935 1.355 0 1.07-.292 2.258-.52 2.946-.534 1.298-3.137 1.524-3.137.3 0-.457-1.023-.7-2.32-.7-1.22 0-2.038-.382-2.038-.84 0-.536-.92-.658-1.987-.352-2.668.688-2.594-.486-.46-2.627 3.89-3.82 7.222-5.863 10.654-6.474 5.415-.918 5.054-1.136 5.054.774zm48.596.063c3.814.61 11.86 6.18 10.868 7.786-.305.38-.61.457-1.677.228-1.068-.306-1.893.004-1.893.538 0 .46-.804.84-2.1.84-1.22 0-2.632-.006-2.632.453 0 1.528-2.18 1.232-2.637-.526-.554-1.623 1.956-2.76 3.493-3.158 2.517.153 4.858-.454 4.858-.76 0-.918-2.288-1.453-6.178-1.453-2.212 0-4.496-.44-5.716-1.205-1.144-.688-1.573-.925-1.837-1.19-.077 0-.25-.59.055-1.506.305-1.223.34-1.543 1.56-1.314.838.23 2.84.785 4.21 1.015zm-44.932 4.402c2.44 2.293 1.838 3.464-1.975 3.54l-3.44.358 2.957 1.22c1.678.458 4.136.997 5.356 1.99l2.136 1.758-2.44 1.3c-2.975 1.453-3.313.92-6.67-.302-1.525-.535-2.44-.873-2.21-1.485.228-.535.014-1.207-.29-1.36-1.297-.84-.274-4.192 2.015-6.255 1.297-1.147 2.4-2.08 2.63-2.08.23 0 1.017.4 1.932 1.317zm40.05.997c1.755 1.605 2.442 3.846 2.06 7.21-.152 1.374-3.102 2.868-5.77 2.868-2.213 0-5.222-2.133-4.46-3.356.23-.458 2.372-1.365 4.355-2.665 2.288-1.53 3.082-3.12 2.167-3.12-.763 0-2.247.472-3.01 1.237-1.983 1.758-1.365.562.694-1.807 2.06-2.37 1.6-2.508 3.965-.368zM274.95 79.696c.457.688 2.874 1.643 5.39 1.872 4.12.46 4.272.05 3.052 1.348-.763.84-3.464 2.148-5.98 3.37-4.195 2.14-4.403 2.373-4.708 1.15-.38-1.987-1.664-2.522-4.486-2.063-2.44.458-7.356-.778-7.356-1.848 0-.994 4.035-4.743 5.56-5.125 2.44-.764 7.613.073 8.528 1.296zM339.178 81c1.222 1.374 2.258 2.267 2.258 2.573 0 1.223-4.29 2.165-7.19 1.706-2.897-.46-4.368.197-4.444 2.184 0 .382-.405.55-1.244.473-2.135-.382-7.966-3.68-9.415-5.284-1.068-1.223-1.29-.69 2.752-1.07 2.44-.23 4.7-.92 4.93-1.38.915-1.452 3.927-2.15 7.13-1.768 2.365.23 3.547.806 5.224 2.564z"/><path d="M300.73 54.52c-.137.362-1.187 1.728-2.32 2.984-1.63 1.84-2.21 2.705-2.653 4.044-.746 2.26-1.188 2.845-1.852 2.454-.607-.362-1.38-1.84-1.74-3.347-.608-2.454-2.653-3.374-4.09-1.813-.47.53-1.16.893-1.852 1.032-1.547.28-2.984 1.06-3.84 2.064-.388.474-.72.977-.72 1.06 0 .112.554.92 1.244 1.785 1.74 2.23 2.404 2.538 5.527 2.4 1.437-.03 2.68-.17 2.79-.308.112-.112-.054-.558-.386-.976-1.41-1.73-2.266-3.237-1.99-3.515.526-.53 4.975 3.598 6.025 5.606.193.335.33.865.33 1.172 0 .474.167.586.83.586 1.244 0 3.84-1.088 4.2-1.757.194-.362.415-2.788.525-5.773.194-5.048.332-6.136.83-6.136.36 0 .525 1.424.773 6.723.14 2.705.333 5.076.443 5.27.36.615 2.708 1.954 3.4 1.954.44 0 1.298-.586 2.514-1.757.995-.95 2.874-2.455 4.173-3.347 3.26-2.204 3.758-2.148 2.072.25-.525.754-.967 1.507-.967 1.674 0 .446 2.625 1.59 3.62 1.59.608 0 1.078-.223 1.52-.725.69-.81 2.238-5.355 2.514-7.336.193-1.394-.084-1.534-1.272-.67-.414.336-1.603.754-2.625.977-1.05.223-3.15.976-4.698 1.674-4.007 1.785-4.587 1.7-5.554-.865-.275-.753-.8-1.87-1.187-2.482-.774-1.255-4.587-5.16-5.03-5.16-.165 0-.414.307-.552.67zM274.92 62.942c-3.287.642-6.41 2.4-9.836 5.495-1.934 1.757-2.874 3.096-2.653 3.71.14.39.443.446 1.908.278 1.52-.14 1.74-.11 2.128.39.303.42.94.67 2.21.837 1.27.168 1.935.42 2.266.837.498.613 1.437.724 2.542.278.774-.28 1.272-1.645 1.272-3.542 0-2.26-.498-2.454-3.73-1.45-.996.306-2.13.53-2.516.474-.635-.084-.663-.112-.248-.698.608-.864 3.067-1.7 5.968-2.036 4.2-.474 5.776-1.506 5.776-3.765v-1.254l-1.575.028c-.883 0-2.46.195-3.51.418zM323.17 62.83c-.14.196-.36.67-.47 1.06-.084.39-.25.893-.305 1.144-.165.586 2.1 2.092 3.924 2.65.69.195 2.928.502 4.946.64 3.51.252 5.25.67 5.25 1.284 0 .168-1.658.307-4.117.363-2.682.057-4.284.196-4.533.39-.277.252-.332.67-.22 1.535.22 1.73.855 2.762 1.85 3.124 1.106.39.94.418 1.713-.42.498-.53 1.078-.752 2.432-.947 1.16-.168 1.88-.42 2.128-.754.276-.39.746-.503 2.21-.503 1.66 0 1.852-.056 1.935-.585.166-1.255-3.924-4.993-7.793-7.112-2.93-1.59-8.262-2.706-8.953-1.87zM280.006 67.935c-2.128 1.7-3.344 3.486-3.814 5.662-.193.78-.165 1.283.11 1.757.194.362.36 1.004.388 1.422 0 .92.94 1.702 2.846 2.343 2.35.808 4.117.668 6.798-.587l2.32-1.087-1.215-1.088c-1.576-1.395-3.787-2.538-6.633-3.375l-2.266-.64 2.544-.14c2.735-.168 3.896-.67 3.896-1.674 0-.67-2.736-3.57-3.344-3.57-.22 0-.94.445-1.63.975zM319.66 69.246c-1.327 1.478-2.21 2.956-1.962 3.207.083.084.746-.25 1.464-.725 1.354-.92 2.487-1.34 2.764-1.032.276.28-.746 1.227-2.957 2.817-3.593 2.594-3.897 3.04-2.93 4.295.635.837 2.79 1.98 3.73 1.98 1.63 0 4.09-.864 5.195-1.812 1.023-.893 1.023-.893.995-3.096 0-2.678-.8-4.52-2.597-6.08-1.603-1.367-2.156-1.31-3.703.446zM266.327 78.115c-1.52.474-6.107 4.91-5.858 5.69.137.474 1.85 1.255 3.48 1.562.83.14 2.737.28 4.284.28 3.178 0 3.813.25 4.31 1.812.25.752.47.975.996.975.8 0 7.24-3.29 8.87-4.547 1.105-.864 1.88-1.812 1.658-2.036-.055-.056-1.41-.306-2.984-.53-3.455-.53-4.532-.836-5.665-1.673-.443-.364-1.493-.838-2.267-1.09-1.824-.53-5.72-.78-6.826-.445zm8.732 3.738c3.122.39 4.946.976 4.946 1.617 0 .195-.387.25-1.16.112-.664-.084-3.787-.307-6.992-.474-3.178-.168-6.107-.42-6.466-.586-.72-.25-.553-.642.387-.865 1.133-.28 6.19-.167 9.285.195zM330.85 78.004c-1.574.306-3.287 1.004-3.757 1.56-.718.782-1.382 1.006-4.504 1.48-4.257.67-4.45.697-4.45.948 0 .92 5.333 4.462 8.65 5.773 2.21.893 2.956.81 3.343-.362.525-1.534.718-1.618 4.974-1.785 3.426-.112 4.09-.223 5.278-.837.746-.362 1.38-.808 1.437-.947.138-.446-2.79-3.877-3.814-4.49-.525-.307-1.326-.698-1.824-.893-1.05-.363-4.338-.614-5.333-.446zm.692 3.486c.608.195 2.266.474 3.703.64 2.68.308 3.51.782 1.934 1.117-.47.084-3.565.167-6.854.14l-5.97-.03 1.52-.696c1.687-.78 3.51-1.42 4.146-1.45.22-.027.912.112 1.52.28z" fill="#129612"/><path d="M247.927 307.64c11.037 13.402 41.03 14.573 49.47 30.448 12.856-17.046 40.383-19.128 56.484-32.27" fill="none" stroke="#d2d2d2" stroke-width="3.109"/><path d="M235.292 148.568c-1.872.75-4.493 1.25-4.992 3.252.125.75 1.498.875 2.62.625-.124-1.376.25-1.876 1.998-1.5-.25-.75.25-1.502.374-2.377zM363.714 148.568c1.872.75 4.493 1.25 4.992 3.252-.125.75-1.498.875-2.62.625.124-1.376-.25-1.876-1.998-1.5.25-.75-.25-1.502-.374-2.377zM309.425 213.603c1.622.5 4.118 1.126 4.493 2.877 0 .75-1.248.75-2.372.625.125-1.25-.25-1.75-1.872-1.5.25-.626-.25-1.377-.25-2.002z" fill="#b68c5b" stroke="#000" stroke-width=".375"/><path d="M312.545 80.406c1.373 0 2.62.25 3.994.375 8.485 24.514 49.296 24.514 57.782 8.63-4.368-4-5.242-7.003-4.742-12.38.374-3.128 1.123-9.38 9.36-9.756 3.12-.126 5.117 2 5.366 11.006.624 14.633-17.597 29.64-34.82 28.64-11.98-.75-37.69-8.38-36.94-26.514z" fill="#fff"/><path d="M260.752 187.59c-.25-1.752-1-3.378-1.747-4.63 0 .252-1 .502-1 .252.75 1.25 1.374 2.876 1.624 4.127.373.25.747.25.997.374l.125-.125zM262 143.814c-.25-1.75-1-3.376-1.747-4.627 0 .25-1 .5-1 .25.75 1.25 1.374 2.877 1.624 4.127.374.25.748.25.998.375l.125-.125zm-32.574 12.757c.25-1.75 1-3.377 1.748-4.627 0 .25.998.5.998.25-.75 1.25-1.373 2.877-1.622 4.127-.375.25-.75.25-1 .375l-.124-.125z" fill="#0f0" stroke="#000" stroke-width=".375"/><path d="M260.003 185.338c.5 0 1.248.375 1.498.5 1 1 2.996 3.127 2.996 4.503 0-1 1.123-3.752.125-4.627-.623-.875-3.868-1-4.617-.375zm0 .5c-.624 0-1.248.75-1.622 1.376-.623 1.626-1.747 4.878-1.123 6.504-.5-1.376-2.995-3.752-2.496-5.38.5-1.25 3.995-3 5.243-2.5zm-.374-1.126c-.5.25-1.25.876-1.374 1.5-.624 1.502-1.997 4.754-1.123 6.505-.624-1.376-2.996-3.752-2.62-5.503.373-1.376 4.117-3.002 5.116-2.502zm1.62-43.148c.5 0 1.25.375 1.5.5.997 1 2.994 3.127 2.994 4.503 0-1 1.123-3.753.125-4.628-.625-.876-3.87-1-4.62-.376zm0 .5c-.623 0-1.247.75-1.62 1.376-.625 1.626-1.75 4.878-1.125 6.503-.5-1.375-2.995-3.75-2.496-5.378.5-1.25 3.993-3 5.24-2.5zm-.373-1.125c-.5.25-1.248.874-1.373 1.5-.624 1.5-1.997 4.752-1.123 6.503-.623-1.376-2.995-3.752-2.62-5.503.374-1.376 4.118-3 5.117-2.5zm-30.702 13.38c-.5 0-1.248.376-1.497.5-1 1.002-2.996 3.128-2.996 4.504 0-1-1.123-3.753-.125-4.628.624-.875 3.87-1 4.618-.375zm0 .5c.624 0 1.248.752 1.623 1.377.624 1.626 1.747 4.878 1.123 6.503.5-1.375 2.996-3.75 2.497-5.378-.5-1.25-3.994-3-5.242-2.5zm.375-1.124c.5.25 1.248.875 1.372 1.5.624 1.5 1.997 4.753 1.124 6.504.624-1.376 2.995-3.752 2.62-5.503-.374-1.376-4.118-3.002-5.116-2.5z" fill="#7eff00" stroke="#000" stroke-width=".375"/><path d="M259.63 184.838c-.625.125-1.374.625-1.624 1-.75 1-2.122 3.502-1.248 4.503-.624-1-3.494-2.626-2.995-3.752.5-.875 4.618-2.126 5.866-1.75zm-.126.125c.624.125 1.373.875 1.622 1.625.624 1.376 1.872 4.753 1.123 6.38.623-1.252 2.995-3.628 2.62-5.38-.5-1.25-4.118-3.126-5.366-2.625zm1.373-43.9c-.624.126-1.373.626-1.623 1-.75 1.002-2.12 3.503-1.248 4.504-.624-1-3.494-2.627-2.995-3.753.5-.875 4.62-2.126 5.867-1.75zm-.125.126c.624.124 1.373.874 1.622 1.624.624 1.376 1.872 4.753 1.123 6.38.624-1.25 2.996-3.628 2.62-5.38-.498-1.25-4.117-3.126-5.365-2.625zm-30.202 12.63c.624.126 1.372.626 1.622 1 .75 1.002 2.122 3.503 1.248 4.504.624-1 3.494-2.627 2.995-3.753-.5-.874-4.617-2.125-5.865-1.75zm.124.126c-.624.125-1.372.875-1.622 1.625-.624 1.378-1.872 4.754-1.123 6.38-.625-1.25-2.997-3.627-2.622-5.378.5-1.25 4.118-3.127 5.366-2.626z" fill="#7eff00" stroke="#000" stroke-width=".125"/><path d="M338.63 187.59c.248-1.752.997-3.378 1.746-4.63 0 .252.998.502.998.252-.75 1.25-1.373 2.876-1.622 4.127-.375.25-.75.25-1 .374l-.123-.125zm-1.25-43.775c.25-1.75 1-3.376 1.748-4.627 0 .25.998.5.998.25-.75 1.25-1.373 2.877-1.622 4.127-.375.25-.75.25-1 .375l-.123-.125zm32.574 12.757c-.25-1.75-.998-3.377-1.747-4.627 0 .25-1 .5-1 .25.75 1.25 1.374 2.877 1.624 4.127.375.25.75.25 1 .375l.124-.125z" fill="#0f0" stroke="#000" stroke-width=".375"/><path d="M339.377 185.338c-.5 0-1.248.375-1.497.5-1 1-2.995 3.127-2.995 4.503 0-1-1.124-3.752-.125-4.627.624-.875 3.87-1 4.617-.375zm0 .5c.624 0 1.248.75 1.623 1.376.624 1.626 1.747 4.878 1.123 6.504.5-1.376 2.995-3.752 2.496-5.38-.5-1.25-3.995-3-5.243-2.5zm.375-1.126c.5.25 1.248.876 1.373 1.5.624 1.502 1.996 4.754 1.123 6.505.624-1.376 2.995-3.752 2.62-5.503-.374-1.376-4.118-3.002-5.116-2.502zm-1.623-43.148c-.5 0-1.25.375-1.498.5-1 1-2.996 3.127-2.996 4.503 0-1-1.123-3.753-.124-4.628.624-.876 3.87-1 4.617-.376zm0 .5c.623 0 1.247.75 1.622 1.376.624 1.626 1.747 4.878 1.123 6.503.5-1.375 2.995-3.75 2.496-5.378-.498-1.25-3.993-3-5.24-2.5zm.374-1.125c.5.25 1.248.874 1.373 1.5.624 1.5 1.996 4.752 1.123 6.503.624-1.376 2.995-3.752 2.62-5.503-.374-1.376-4.118-3-5.116-2.5zm30.7 13.38c.5 0 1.25.376 1.5.5.997 1.002 2.994 3.128 2.994 4.504 0-1 1.123-3.753.125-4.628-.624-.875-3.87-1-4.618-.375zm0 .5c-.623 0-1.247.752-1.62 1.377-.625 1.626-1.748 4.878-1.124 6.503-.5-1.375-2.996-3.75-2.496-5.378.5-1.25 3.993-3 5.24-2.5zm-.373-1.124c-.498.25-1.247.875-1.372 1.5-.624 1.5-1.997 4.753-1.123 6.504-.624-1.376-2.995-3.752-2.62-5.503.373-1.376 4.117-3.002 5.116-2.5z" fill="#7eff00" stroke="#000" stroke-width=".375"/><path d="M339.752 184.838c.624.125 1.373.625 1.622 1 .75 1 2.122 3.502 1.248 4.503.624-1 3.495-2.626 2.996-3.752-.5-.875-4.618-2.126-5.866-1.75zm.125.125c-.624.125-1.373.875-1.623 1.625-.624 1.376-1.872 4.753-1.123 6.38-.623-1.252-2.994-3.628-2.62-5.38.5-1.25 4.12-3.126 5.367-2.625zm-1.373-43.9c.624.126 1.373.626 1.622 1 .75 1.002 2.122 3.503 1.248 4.504.624-1 3.495-2.627 2.996-3.753-.5-.875-4.618-2.126-5.866-1.75zm.125.126c-.625.124-1.374.874-1.624 1.624-.624 1.376-1.872 4.753-1.123 6.38-.624-1.25-2.995-3.628-2.62-5.38.498-1.25 4.118-3.126 5.366-2.625zm30.2 12.63c-.623.126-1.372.626-1.622 1-.748 1.002-2.12 3.503-1.248 4.504-.624-1-3.494-2.627-2.995-3.753.5-.874 4.618-2.125 5.866-1.75zm-.124.126c.624.125 1.373.875 1.622 1.625.624 1.378 1.872 4.754 1.124 6.38.624-1.25 2.995-3.627 2.62-5.378-.5-1.25-4.118-3.127-5.366-2.626z" fill="#7eff00" stroke="#000" stroke-width=".125"/><path d="M284.09 251.75c.25-1.752.998-3.378 1.747-4.628 0 .25 1 .5 1 .25-.75 1.25-1.374 2.876-1.624 4.127-.374.25-.75.25-.998.374l-.125-.125zm-1.248-43.775c.25-1.75.998-3.377 1.747-4.627 0 .25.998.5.998.25-.75 1.25-1.373 2.876-1.623 4.127-.374.25-.75.25-.998.375l-.125-.125zm32.573 12.757c-.25-1.75-.998-3.376-1.747-4.627 0 .25-.998.5-.998.25.748 1.25 1.372 2.876 1.622 4.127.375.25.75.25 1 .375l.123-.125z" fill="#0f0" stroke="#000" stroke-width=".375"/><path d="M284.84 249.498c-.5 0-1.25.375-1.5.5-.997 1-2.994 3.127-2.994 4.503 0-1-1.123-3.75-.125-4.627.625-.876 3.87-1 4.62-.375zm0 .5c.623 0 1.247.75 1.62 1.376.625 1.626 1.748 4.878 1.124 6.503.5-1.375 2.996-3.75 2.496-5.377-.5-1.25-3.993-3.002-5.24-2.502zm.373-1.125c.5.25 1.248.875 1.373 1.5.624 1.5 1.997 4.753 1.123 6.504.623-1.376 2.994-3.752 2.62-5.503-.374-1.376-4.118-3.002-5.117-2.5zm-1.622-43.15c-.5 0-1.247.376-1.497.5-.998 1.002-2.995 3.128-2.995 4.503 0-1-1.123-3.75-.125-4.627.624-.876 3.87-1 4.618-.376zm0 .5c.625 0 1.25.752 1.623 1.377.624 1.626 1.747 4.878 1.123 6.504.5-1.376 2.996-3.753 2.496-5.378-.5-1.25-3.993-3.002-5.24-2.502zm.375-1.124c.5.25 1.248.874 1.373 1.5.624 1.5 1.997 4.752 1.123 6.503.625-1.376 2.996-3.752 2.622-5.503-.374-1.376-4.12-3.002-5.117-2.5zm30.7 13.38c.5 0 1.25.376 1.5.5.998 1.002 2.994 3.128 2.994 4.504 0-1 1.123-3.752.124-4.628-.624-.875-3.87-1-4.618-.375zm0 .5c-.623 0-1.247.752-1.62 1.377-.625 1.626-1.748 4.877-1.124 6.504-.498-1.375-2.994-3.752-2.495-5.377.5-1.25 3.993-3.002 5.24-2.502zm-.373-1.125c-.5.25-1.248.876-1.373 1.502-.625 1.5-1.998 4.752-1.124 6.503-.624-1.376-2.995-3.752-2.62-5.503.374-1.376 4.118-3 5.116-2.502z" fill="#7eff00" stroke="#000" stroke-width=".375"/><path d="M285.213 248.997c.624.125 1.373.626 1.623 1 .748 1.002 2.12 3.503 1.248 4.504.624-1 3.494-2.626 2.995-3.75-.5-.877-4.62-2.128-5.867-1.753zm.125.125c-.624.126-1.373.876-1.623 1.627-.624 1.374-1.872 4.75-1.123 6.377-.624-1.25-2.995-3.627-2.62-5.378.5-1.252 4.118-3.128 5.366-2.628zm-1.373-43.898c.624.125 1.373.625 1.622 1 .75 1 2.122 3.502 1.25 4.503.623-1 3.493-2.627 2.994-3.752-.498-.876-4.617-2.126-5.865-1.75zm.125.125c-.624.124-1.373.874-1.623 1.625-.624 1.376-1.872 4.752-1.123 6.378-.624-1.25-2.995-3.627-2.62-5.378.5-1.25 4.118-3.126 5.366-2.626zm30.202 12.63c-.624.126-1.373.626-1.622 1-.75 1.002-2.122 3.503-1.248 4.504-.624-1-3.495-2.627-2.996-3.752.5-.876 4.618-2.126 5.866-1.75zm-.125.126c.624.125 1.373.875 1.623 1.626.624 1.375 1.872 4.752 1.123 6.378.624-1.25 2.995-3.627 2.62-5.378-.498-1.25-4.118-3.126-5.366-2.626z" fill="#7eff00" stroke="#000" stroke-width=".125"/><path d="M365.708 365.44c-11.488 13.986-17.235 9.05-29.553 5.35-12.31-3.708-25.444-9.87-37.346-12.745-11.904-2.884-41.464-4.95-59.522-5.767-16.717-.767-22.523-7.512-22.974-12.746.116-.036 5.31-1.365 16.135-.284 10.947 1.102 11.493.832 13.678-2.468.656-.963 1.137-1.905 1.494-2.737 1.04-.723 1.522-1.767 1.522-3.146 0-4.125-2.877-10.28-32.43-10.28-10.037 0-17.453-.342-23.113-.89l8.75-22.563c2.666-7.402-9.645-8.628-9.645-8.628-11.494 0-20.323.197-26.063-1.24-10.832-2.71-19.296-3.695-35.708-2.877-16.418.823-29.552.823-51.718-5.76C81.27 287.097 97.69 298.6 97.69 298.6l-25.86 11.935 7.386 1.854c22.166 6.586 35.3 6.586 51.718 5.76 12.522-.627 20.41-.203 28.256 1.242l-5.718 18.403c10.366 10.767 17.562 16.424 50.247 19.563l-6.287 7.957 1.355.27c11.77 16.184 18.334 21.38 45.7 21.943 27.36.54 39.956.27 61.022 9.862 21.074 9.6 30.733 12.95 47.42 8.016 0 0 .3.868 3.33-6.278 3.41-8.037 4.254-23.396 7.532-26.148 3.285-2.738 7.663-10.417 7.663-10.417l-5.747 2.876" fill="#ffd300"/><path d="M441.24 328.283c3.553 1.643 7.385 2.738 18.88-.555 11.487-3.277 44.87-9.037 62.382-7.672-6.84-6.03-24.897-15.08-24.897-15.08l18.334-15.083s-4.655.27-11.22-1.372c-19.426-5.474-38.037.826-54.456 7.688-3.25 1.35-5.93 2.38-8.158 3.146l-3.883-13.57s-6.68-4.877-22.516.43c-14.452 4.862-17.708 12.73-16.885 14.644.823 1.92 7.663 14.81 7.663 14.81l-.16.468c-6.024 2.825-13.855 5.694-23.375 8.57-27.09 8.242-33.108 12.06-57.19 29.63l6.294 15.082 13.134 4.11s3.285 1.094 6.017.824l.335.212c13.7-9.366 22.07-13.09 42.904-19.418 27.09-8.226 40.494-16.183 37.485-23.855l-4.648-12.613s6.017-3.563 8.48-2.468l5.477 12.058" fill="#ffd300"/><path d="M161.1 314.64l3.196-11.22c.46-2.752 4.75-4.446 16.776-2.694 8.312 1.212 14.94 2.54 18.7-.496l.167-.073c.494-5.35-7.03-4.832-7.03-4.832h-.205c-11.494 0-20.323.197-26.063-1.24-10.84-2.71-19.296-3.71-35.715-2.885-15.042.76-27.338.818-46.343-4.234 3.693 4.52 13.097 11.44 13.097 11.44l-18.472 8.84c22.167 6.584 35.3 6.584 51.72 5.76 13.562-.688 21.692-.118 30.214 1.605M217.56 338.824c2.818-.555 7.982-.632 13.962.207 9.31 1.344 12.742.44 13.49-.75l-6.088 14.014s-23.684.27-22.59-13.16" fill="#fff"/><path d="M370.97 363.257l-4.92 7.03c-9.003 12.103-20.09 8.41-32.765 5.43-12.318-3.686-25.45-9.862-37.354-12.745-11.9-2.876-41.454-4.927-59.512-5.76-18.065-.825-23.397-8.635-22.99-13.986.052-.628.17-1.183.35-1.664l3.038-5.417.452-.59c2.025-2.52 7.255-2.25 16.273-.95 5.748.81 9.646.927 12.115.3l.204-.716c0-4.118-2.463-8.644-32.016-8.644-29.552 0-36.326-2.876-42.897-5.76-3.868-1.693-9.448-7.33-8.39-10.993l-6.66 21.687c11.22 11.804 16.623 17.827 50.83 21.12l-5.747 8.51c11.764 16.17 18.335 21.382 45.695 21.93 27.367.554 39.954.27 61.028 9.86 21.066 9.615 31.44 12.79 48.127 7.856" fill="#fff"/><path d="M164.916 306.588c1.522 3.307 5.973 6.97 8.908 8.256 4.37 1.92 8.836 3.833 20.07 4.898l-.03.03 6.424-17.462c-2.658 7.395-11.34 5.446-21.947 3.89M439.046 322.24c3.555 1.656 7.386 2.75 18.88-.54 11.496-3.28 38.724-9.185 56.236-7.812l-17.27-8.3 12.703-10.22c-.772-.146-1.574-.328-2.41-.533-19.43-5.49-38.04.818-54.46 7.673-16.418 6.86-18.334 5.49-20.52 3.007l-4.377-8.497s.27-3.832 3.555-5.205c3.285-1.365 3.832-1.65 3.832-1.65s-3.555-4.934-17.242 0c-13.68 4.928-14.503 11.25-14.227 12.344 0 0 2.74-.27 5.47-1.365 2.74-1.102 9.31-4.934 11.226-.27 1.908 4.658 1.908 5.614 1.908 5.614 3.016 7.672-10.664 15.213-37.754 23.44-27.09 8.226-32.568 11.52-56.65 29.067l3.83 10.425 12.567 3.905c17.125-12.176 24.817-16.01 48.185-23.097 27.09-8.227 40.5-16.183 37.486-23.863l-4.378-12.066s4.93-4.373 7.94-3.293l5.47 11.25" fill="#fff"/><path d="M170.073 330.466c-1.23 1.7-1.384 4.022.575 5.277.357.227.918.358 1.32.358l-.278-3.02 2.185 1.167.16 1.606c.846-.27 1.66-.993 2.17-1.708 1.203-1.65 1.276-4.176-.516-5.33-1.946-1.24-4.335-.1-5.617 1.65l-1.974-1.437c2.068-2.854 5.972-4.037 8.966-2.11 2.986 1.913 3.25 5.745 1.173 8.614-1.007 1.365-2.376 2.41-3.906 2.905l.197 2.57-2.155-1.103-.088-1.3c-1.02.016-2.105-.335-3.037-.933-2.994-1.912-3.285-5.722-1.15-8.642l1.973 1.438M186.973 331.167l2.483.24-1.952 6.548c-.43 1.44-.903 3.49 1.21 3.687 2.105.204 2.848-1.81 3.285-3.263l1.95-6.542 2.485.24-2.09 7.002c-.853 2.847-2.812 4.876-6.23 4.562-3.415-.343-4.085-2.62-3.233-5.475l2.083-7M203.056 344.11l-2.527-.052 2.52-11.753 2.527.058-2.52 11.746M212.948 367.44l-1.98-1.388 5.878-8.438-2.047-1.424 1.2-1.73 6.06 4.234-1.194 1.73-2.046-1.43-5.872 8.445M229.076 365.052l-1.122 2.103.306.08c1.297.4 2.397.328 3.103-1.008.72-1.357-.087-1.898-1.333-2.285l-.32-.102-.634 1.212-2.375-.664 1.59-2.993 3.182.95c2.382.73 3.52 2.18 2.273 4.532-.743 1.387-2.33 2.526-4.08 2.285l.955 5.657-2.848-.855-.575-5.3-.037-.015-2.345 4.417-2.353-.716 4.24-7.963 2.374.665M243.637 369.264l-1.442 2.504 2.972.234-.488-4.497h-.03l-1.013 1.76-2.07-.585 3.148-4.766 1.894.146 1.718 12.7-2.607-.18-.342-2.63-4.35-.328-1.652 2.468-2.58-.197 4.772-7.213 2.07.584M257.07 364.483l1.777.102 4.778 8.767h.022l1.785-8.095 2.455.124-2.703 12.294-1.77-.103-4.77-8.766h-.038l-1.8 8.183-2.454-.124 2.717-12.38M280.285 369.147c-.3-.642-.794-1.08-1.603-1.153-.772-.088-1.675.41-1.887 1.183-.546 2.022 4.62 1.68 3.526 5.7-.655 2.41-2.672 3.95-5.215 3.694-1.72-.166-2.717-1.254-3.197-2.72l1.974-1.315c.08.94.728 1.868 1.77 1.97.99.096 1.82-.656 2.076-1.57.335-1.24-.758-1.707-1.632-2.18-1.428-.797-2.39-1.695-1.887-3.55.546-2 2.52-3.452 4.618-3.24 1.107.117 2.498.803 3.037 1.686l-1.58 1.497M289.113 380.28l-2.36-.453 3.657-9.825-2.433-.468.743-2.014 7.233 1.416-.743 1.993-2.44-.468-3.657 9.818M300.448 370.49l2.243.884-2.548 6.453c-.57 1.416-1.24 3.467.67 4.226 1.908.767 2.826-1.19 3.387-2.613l2.54-6.46 2.245.898-2.717 6.89c-1.115 2.81-3.147 4.476-6.228 3.25-3.082-1.227-3.43-3.833-2.317-6.644l2.725-6.898M313.537 386.98l3.155 1.315-.81 1.942-5.382-2.24 4.735-11.447 2.23.927-3.928 9.504M323.823 393.244l-2.273-.817 4.16-11.673 2.272.796-4.16 11.694M334.086 395.85l-2.41-.467 2.826-9.752-2.492-.49.576-1.992 7.393 1.453-.576 1.987-2.49-.49-2.828 9.768M343.993 356.344c-.706-.33-1.413-.387-2.12.015-.67.37-1.027 1.254-.633 1.97 1.02 1.81 4.873-1.358 6.905 2.277 1.21 2.168.72 4.46-1.486 5.687-1.48.846-3.053.584-4.495-.24l.62-2.096c.742.67 1.915.985 2.818.48.86-.48.976-1.51.517-2.335-.626-1.11-1.835-.854-2.863-.708-1.704.197-3.117.066-4.05-1.613-1.005-1.78-.48-3.978 1.333-5.008.955-.54 2.55-.81 3.62-.452l-.167 2.022M348.087 350.927l2.134-1.14 3.265 6.12c.713 1.335 1.843 3.174 3.656 2.218 1.808-.97.912-2.935.19-4.292l-3.255-6.118 2.127-1.138 3.482 6.547c1.42 2.68 1.37 5.3-1.56 6.855-2.92 1.568-5.127.16-6.548-2.512l-3.49-6.54M367.55 344.11c-.677-.366-1.376-.468-2.105-.14-.7.33-1.12 1.183-.78 1.913.882 1.89 4.962-.985 6.717 2.79 1.056 2.24.4 4.495-1.886 5.56-1.552.73-3.096.36-4.473-.554l.765-2.052c.7.708 1.85 1.124 2.782.68.896-.41 1.093-1.425.685-2.293-.54-1.168-1.763-.986-2.797-.913-1.72.073-3.11-.175-3.926-1.898-.867-1.87-.19-4.022 1.697-4.905.997-.468 2.607-.63 3.648-.184l-.32 1.993M380.8 349.03l-2.243.883-3.773-9.563-2.316.912-.773-1.956 6.884-2.723.77 1.956-2.315.912 3.766 9.577M389.214 345.993l-2.28.788-4-11.737 2.288-.78 3.992 11.73M389.848 332.393l1.64-.584 9.017 6.03.022-.016-2.747-7.87 2.266-.81 4.18 11.943-1.638.57-9.01-6h-.03l2.783 7.955-2.28.796-4.202-12.015"/><path d="M286.087 81.907c1.747 6.878 15.974 6.378 19.095 6.128l13.104-3.752-.375.22c3.994 10.254 19.22 16.04 31.576 15.914 12.106-.125 20.094-4.002 24.96-11.006-4.242-4.502-5.366-5.878-4.866-13.757.374-4.502 4.243-8.254 8.61-8.38 4.993-.125 9.236 3.878 12.856 7.38 5.74 5.503 10.233 12.006 16.474 16.884 5.74 4.752 12.105 4.627 17.347 8.254 5.616 4.003 11.856 10.382 14.352 16.76 2.12 5.504-1.748 11.38-5.367 11.38-4.12 0-8.487-3.626-7.738-7.002-7.238-5.378-21.216 6.128-24.586 18.51-4.494 16.134 2.37 33.518 10.607 40.522-2.62 6.88-11.73 12.632-16.474 17.01-1.747 6.378.75 15.258 6.116 19.26 6.364 1 16.972.75 23.836 1.25 3.12 1.126 2.496 5.38 3.37 8.63 1.123 4.253 3.245 9.13 2.62 13.757-2.12 14.384-6.614 26.64-20.217 36.02-7.115 4.753-12.98 8.004-21.218 11.006-3.62-3.25-6.864-8.004-10.858-9.88-12.854-.25-28.58 6.38-32.948 15.758-2.12 4.63 3.37 9.632 9.61 14.76-13.104 9.505-28.58 14.257-42.932 20.76-4.867 2.252-9.235 5.504-16.474 13.883-7.488-9.004-11.357-12.882-18.346-16.133-12.355-5.63-27.207-8.88-36.567-18.51 5.74-3.378 9.235-6.13 10.11-11.382-7.988-10.13-17.35-20.886-29.704-24.013-4.118 1.626-9.36 8.88-12.605 14.258-30.452-6.38-55.163-40.022-39.188-67.787 3.494 1.376 8.61 3.877 12.855 1.626 7.987-5.003 17.472-11.382 18.096-20.76-.25-9.007-7.113-15.385-15.225-19.512 5.367-3.877 11.232-17.635 11.607-27.515.374-9.255-4.743-17.76-9.61-25.64-2.247-3.876-7.488-7.378-10.608-8.504-1.373 2.127-6.864 6.88-10.983 7.13-4.117.125-10.108-3.252-10.108-7.504 0-3.252 1.373-8.38 5.117-10.63 10.233-6.254 22.214-10.382 31.574-17.885 5.616-4.627 8.237-12.88 14.103-17.634 2.246-1.75 4.742-3.627 7.113-4.253 6.048 25.368 15.044 28.424 27.672 32.71 13.853 1.627 32.234-4.194 44.215-18.326z" fill="#fff"/><path d="M282.717 80.53c-1.872 11.632-21.738 18.932-33.22 19.34-11.415-.818-19.946-5.957-26.81-13.46 2.746-.626 5.866-6.505 5.49-11.132-.123-3.752-3.618-7.63-7.237-8.255-2.746-.5-4.493-.375-6.74.5-5.366 27.015 22.465 38.772 36.568 38.396 14.102-.5 35.038-10.82 34.04-24.952v-.28l-2.09-.157z" fill="#fff"/><path d="M407.498 328.4l1.092 2.51 3.52-1.554.844 1.927-3.52 1.548 1.342 3.067 3.65-1.59.844 1.918-5.856 2.57-4.976-11.35 5.864-2.578.845 1.92-3.65 1.613M424.368 331.02l-2.098 1.198-3.83-9.578-2.172 1.227-1.027-1.825 6.44-3.65 1.035 1.825-2.17 1.24 3.823 9.564M354.716 301.01c.08.103-.08.17-.16.257h-.088v-.24l.248-.016M354.563 302.09l-.168-.24c.16-.167.495.16.168.24M355.546 301.82h.576-.576"/><path d="M84.087 286.932c19.12 5.125 31.446 5.066 46.54 4.293 16.418-.81 24.875.175 35.714 2.883 5.734 1.438 14.57 1.24 26.057 1.24m-113.49 11.936c22.167 6.57 35.3 6.57 51.72 5.76 13.665-.7 20.723-.672 29.32 1.095m32.458-25.58s12.31 1.227 9.644 8.643c-2.667 7.395-10.534 5.658-21.14 4.103-28.117-4.103-13.957 10.694-7.386 13.577 6.563 2.876 13.337 5.76 42.89 5.76 29.552 0 32.43 6.168 32.43 10.278 0 4.118-4.11 5.344-15.603 3.71-11.487-1.643-16.826-1.643-17.234 3.686-.415 5.365 4.924 13.16 22.982 13.993 18.058.81 47.617 2.875 59.52 5.76 11.903 2.875 25.036 9.036 37.347 12.744 12.317 3.7 18.065 8.636 29.552-5.35M191.924 295.35s7.89.357 7.874 5.19m15.938 38.76c2.674-1.152 7.452-.765 14.635.257 7.707 1.102 12.1.912 14.147-.57m1.39-4.058c-.232-6.79-4.98-9.36-32.363-9.36-29.553 0-36.327-2.86-42.898-5.745-3.277-1.438-7.794-5.716-8.31-9.183m2.214-3.876c2.287-1.095 6.49-1.482 13.49-.51 9.17 1.254 18.05 2.123 21.54-2.257l2.185-5.833m-46.437 32.77c11.217 11.773 16.892 17.41 51.1 20.7m-4.38 5.76c-32.676-3.153-38.51-8.796-48.877-19.578l11.387-35.2m52.818 32.28l-19.704 30.44c11.765 16.176 19.152 21.665 46.52 22.213 27.36.54 39.953.27 61.02 9.862 21.073 9.6 30.375 12.89 47.063 7.957 0 0 3.286-3.293 4.932-9.454 1.64-6.175 11.08-25.09 13.95-32.075l-3.28 5.33c-11.493 13.985-22.58 10.292-34.89 6.583-12.318-3.686-25.452-9.876-37.354-12.745-11.902-2.875-41.454-4.926-59.512-5.76-17.308-.78-22.93-7.992-23.01-13.3l-.387-2.466m142.84 58.398c-16.69 4.95-26 2.482-47.065-7.117-21.074-9.592-33.66-9.322-61.02-9.877-27.368-.54-34.754-6.03-46.518-22.198m-42.17-41.288c-7.808-1.43-15.69-1.854-28.16-1.227-16.42.825-29.553.825-51.72-5.76l-7.385-1.853 25.86-11.92s-16.42-11.52-18.474-19.944c22.166 6.57 35.3 6.57 51.718 5.745 16.42-.818 24.876.168 35.715 2.89 5.742 1.424 14.57 1.227 26.065 1.227" fill="none"/><path d="M200.133 303.49l-5.47 15.627m44.6 32.638l9.034-19.19m180.054-34.56l12.865 30.164c3.554 1.642 7.386 2.737 18.88-.556 11.488-3.292 44.872-9.05 62.383-7.672-5.193-6.03-25.174-14.54-25.174-14.54l18.61-15.622s-4.653.27-11.217-1.373c-19.427-5.475-38.038.825-54.457 7.687-16.42 6.84-18.335 5.475-20.52 3.007-4.655-3.006-.546-6.028 4.924-9.05 5.47-3.008 4.378-6.03-.823-6.307-18.057-1.636-30.098 7.956-33.652 12.35-3.555 4.373-1.093 9.308 9.302 4.935 5.667-2.4 9.032-3.854 10.948-.284 3.008 7.68-10.402 15.636-37.492 23.848-27.09 8.242-33.108 12.074-57.19 29.63l6.294 14.797m71.415-66.356c-.27-7.125 21.897-18.644 31.47-13.432m-14.228 11.797l11.218 30.147c3.01 7.686-10.394 15.63-37.485 23.856-20.993 6.372-29.334 10.124-43.225 19.643m80.273-69.633c2.193 2.468 4.815 4.212 21.234-2.65 16.42-6.854 35.03-13.16 54.457-7.67.276.07 1.383.4 1.653.473m-69.79 26.93c3.554 1.656 7.385 2.75 18.88-.54 11.495-3.28 38.854-8.768 56.366-7.403M328.2 358.88c24.08-17.55 29.28-20.84 56.372-29.068 27.09-8.227 40.85-16.352 37.842-24.024M344.37 373.18c17.09-12.162 24.788-15.98 48.134-23.082 27.09-8.227 40.5-16.17 37.485-23.85m-31.192-25.22l7.386 14.257M438.2 285.94l3.56 12.89m-1.915-6.313c-4.93 2.19-10.67 5.49-7.94 7.68m-29.822 6.306c1.362 1.65 4.1 1.365 9.026-.832 4.923-2.18 9.577-2.736 8.747-.54m5.755 8.783c2.462-1.65 5.2-3.293 8.486-2.752m-7.117 7.417c3.01-1.927 7.118-2.752 9.303-2.197" fill="none"/><path d="M401.98 306.673c1.597 2.46 6.313.69 11.484-1.508 3.318-.945 6.285-1.81 5.972.385-.41 3.72-12.685 10.115-13.07 9.31-1.474-3.07-1.58-3.426-4.385-8.187zM441.36 298.96c-3.448 1.256-1.985.61-4.376 1.384-2.7.14-5.42 1.192-5.353-1.747 1.583-3.038 8.03-5.654 8.067-5.533.75 2.388.836 3.117 1.664 5.896zM172.742 102.265l9.816-5.142c9.584-6.05 10.664-6.093 15.643-12.323 6.508-8.143 2.63-5.83 8.943-12.181.868 10.597 19.44 40.413 39.286 40.197 24.368-.023 39.404-15.202 44.02-24.832 5.775-.366 11.53-.704 17.474-.25 5.366 15.508 25.46 25.39 41.808 25.264 17.722-.127 41.435-11.633 39.438-39.773 25.76 33.587 24.32 15.542 44.804 35.77-37.395-2.888-64.523 47.753-33.696 83.523-4.34 5.414-6.745 13.015-3.068 13.424l15.117 13.51c31.158 29.05-9.43 53.132-29.77 58.634L351.728 299.6h-8.487c-9.735 11.506-34.196 11.757-45.803 25.64-14.976-17.26-33.946-11.757-42.183-27.015h-5.367s-15.242-7.376-38.837-20c-27.32-12.576-39.46-20.247-29.566-54.654 24.408-16.193 22.635-24.823 17.234-34.905 19.73-29.483 20.288-71.152-29.45-84.762l3.472-1.638z" fill="#fff"/><path d="M263.123 187.714c.874-1.375 2.122-1.626 3.245-1 .998.5 1.498 2.25.25 3.376 2.246.75 1.996 4.003-.375 4.253 1.747.875 1.747 3.752-.624 4.127 1.122 1.25.374 3.252-1 3.752.125.75-.374 1.5-1.247 1.876.5 1 .25 1.876-.375 2.502-.125.75-.624 1.125-1.123 1.5-.25.876-.998 1.626-2.122 1.626-1.123 0-2.12-.876-2.12-2.126-1.75-1-1.374-2.877 0-3.752-1.873-.75-2.123-2.752-.875-3.627-.374-.5-.5-1-.5-1.5-.998-.625-1.372-1.75-.873-2.627-1.997-.5-2.246-2.5-1.373-3.5-1.497-1.127-.873-3.253.5-3.753-.25-1.25.748-2.252 1.872-2.377.75-.124 1.622.25 1.997.876.625-.376 1.748-.126 2.372.624.5-.375 1.497-.75 2.37-.25zm1.248-43.774c.875-1.375 2.123-1.625 3.246-1 .998.5 1.498 2.25.25 3.376 2.246.75 1.996 4.003-.375 4.253 1.748.875 1.748 3.75-.623 4.126 1.123 1.25.375 3.252-.998 3.752.124.75-.376 1.5-1.25 1.876.5 1 .25 1.876-.374 2.502-.125.75-.624 1.125-1.123 1.5-.25.876-.998 1.626-2.122 1.626-1.122 0-2.12-.875-2.12-2.126-1.747-1-1.373-2.877 0-3.752-1.872-.75-2.122-2.752-.874-3.627-.374-.5-.5-1-.5-1.5-.997-.626-1.372-1.752-.873-2.627-1.997-.5-2.246-2.5-1.373-3.502-1.497-1.126-.873-3.252.5-3.752-.25-1.25.75-2.252 1.872-2.376.75-.125 1.622.25 1.997.875.623-.375 1.746-.125 2.37.625.5-.375 1.497-.75 2.37-.25zm-37.315 12.757c-.874-1.376-2.122-1.625-3.245-1-.998.5-1.497 2.25-.25 3.377-2.246.75-1.996 4.002.375 4.252-1.747.875-1.747 3.752.624 4.127-1.124 1.25-.375 3.252.997 3.752-.124.75.375 1.5 1.248 1.876-.5 1.002-.25 1.877.375 2.502.125.75.624 1.126 1.123 1.5.25.877 1 1.627 2.122 1.627 1.123 0 2.12-.876 2.12-2.127 1.75-1 1.374-2.877 0-3.752 1.873-.75 2.123-2.75.875-3.626.374-.5.5-1 .5-1.5.998-.626 1.372-1.752.873-2.627 1.997-.5 2.246-2.5 1.373-3.502 1.497-1.126.873-3.252-.5-3.752.25-1.25-.748-2.252-1.872-2.376-.748-.126-1.622.25-1.996.875-.624-.375-1.748-.125-2.372.626-.5-.376-1.497-.75-2.37-.25zM336.257 187.714c-.873-1.375-2.12-1.626-3.245-1-.998.5-1.497 2.25-.25 3.376-2.246.75-1.996 4.003.375 4.253-1.747.875-1.747 3.752.624 4.127-1.122 1.25-.373 3.252 1 3.752-.125.75.374 1.5 1.248 1.876-.5 1-.25 1.876.374 2.502.125.75.624 1.125 1.123 1.5.25.876 1 1.626 2.122 1.626 1.123 0 2.122-.876 2.122-2.126 1.746-1 1.37-2.877 0-3.752 1.87-.75 2.12-2.752.872-3.627.375-.5.5-1 .5-1.5.998-.625 1.372-1.75.873-2.627 1.997-.5 2.247-2.5 1.373-3.5 1.498-1.127.874-3.253-.5-3.753.25-1.25-.748-2.252-1.87-2.377-.75-.124-1.624.25-1.998.876-.624-.376-1.747-.126-2.37.624-.5-.375-1.5-.75-2.373-.25zm-1.248-43.774c-.874-1.375-2.122-1.625-3.246-1-.998.5-1.497 2.25-.25 3.376-2.246.75-1.996 4.003.375 4.253-1.748.875-1.748 3.75.623 4.126-1.123 1.25-.374 3.252 1 3.752-.126.75.373 1.5 1.247 1.876-.5 1-.25 1.876.374 2.502.125.75.624 1.125 1.123 1.5.25.876 1 1.626 2.122 1.626 1.122 0 2.12-.875 2.12-2.126 1.748-1 1.373-2.877 0-3.752 1.873-.75 2.122-2.752.874-3.627.375-.5.5-1 .5-1.5.998-.626 1.372-1.752.873-2.627 1.997-.5 2.247-2.5 1.373-3.502 1.498-1.126.874-3.252-.5-3.752.25-1.25-.748-2.252-1.87-2.376-.75-.125-1.624.25-1.998.875-.624-.375-1.747-.125-2.37.625-.5-.375-1.5-.75-2.373-.25zm37.315 12.757c.874-1.376 2.122-1.625 3.245-1 1 .5 1.498 2.25.25 3.377 2.246.75 1.997 4.002-.375 4.252 1.748.875 1.748 3.752-.624 4.127 1.125 1.25.376 3.252-.997 3.752.125.75-.374 1.5-1.248 1.876.5 1.002.25 1.877-.375 2.502-.124.75-.624 1.126-1.123 1.5-.25.877-.998 1.627-2.12 1.627-1.125 0-2.123-.876-2.123-2.127-1.747-1-1.373-2.877 0-3.752-1.872-.75-2.122-2.75-.874-3.626-.374-.5-.5-1-.5-1.5-.997-.626-1.372-1.752-.872-2.627-1.997-.5-2.247-2.5-1.373-3.502-1.498-1.126-.874-3.252.5-3.752-.25-1.25.748-2.252 1.87-2.376.75-.126 1.623.25 1.998.875.624-.375 1.747-.125 2.37.626.5-.376 1.5-.75 2.372-.25z" fill="#b400b4" stroke="#000" stroke-width=".375"/><path d="M259.005 205.224c-.5 1.875.873 3.752 2.37 3.376-.998 1.25-3.37 1-3.868-1-.374-.625.25-2.126 1.498-2.376zm1.497-1.626c-.5 1.626 1.248 3.002 2.746 2.75-1 1.252-3.37.877-3.87-.874-.373-.625-.124-1.75 1.124-1.876zm1.373-3.502c-.5 1.75.874 3.627 2.37 3.252-1.122 1.375-3.368 1-3.868-.876-.374-.75.125-2.25 1.498-2.376zm-3.994-3.502c-.623 1.75.875 3.627 2.373 3.252-1.124 1.5-3.37 1-3.994-.876-.25-.75.25-2.126 1.62-2.376zm2.747-1.626c-.5 1.876.874 3.752 2.496 3.252-1.123 1.375-3.494 1-3.994-.75-.375-.75.25-2.252 1.497-2.502zm-3.62-2.25c-.623 1.875.874 3.125 2.372 2.75-1.124 1.5-3.37 1-3.995-.875-.25-.75.25-1.626 1.623-1.876zm6.116-.126c-.624 1.75.874 3.5 2.37 3.25-1.122 1.377-3.368 1.002-3.992-.874-.25-.75.25-2.25 1.623-2.376zm-3.37-2.376c-.5 1.876.25 3.376 1.748 3.126-.998 1.376-2.745 1.126-3.244-.625-.25-.876.25-2.252 1.497-2.5zm-5.117-1.376c-.5 1.876.874 3.752 2.497 3.376-1.124 1.376-3.495.876-3.994-.875-.376-.75.248-2.25 1.496-2.5zm1.248-2.252c-.5 1.877.874 3.628 2.372 3.378-1.123 1.375-3.37 1-3.87-.876-.374-.75.126-2.376 1.498-2.502zm5.74 1c-.498 1.752.875 3.628 2.373 3.378-1 1.376-3.37.875-3.87-.876-.374-.75.25-2.376 1.498-2.5zm2.997-1.125c-.623 1.876.874 3.627 2.372 3.378-1.123 1.376-3.37 1-3.87-.875-.373-.75.126-2.25 1.5-2.502zm-4.367-25.013c-.5 1.876.873 3.752 2.37 3.377-.998 1.25-3.37 1-3.868-1-.374-.626.25-2.127 1.498-2.377zm1.497-1.626c-.5 1.626 1.248 3.002 2.746 2.752-1 1.25-3.37.875-3.87-.876-.373-.625-.124-1.75 1.124-1.876zm1.373-3.502c-.5 1.75.874 3.627 2.37 3.252-1.122 1.375-3.368 1-3.868-.876-.374-.75.125-2.25 1.498-2.376zm-3.994-3.502c-.625 1.75.873 3.627 2.37 3.252-1.123 1.5-3.37 1-3.993-.876-.25-.75.25-2.126 1.622-2.376zm2.745-1.626c-.5 1.876.874 3.752 2.496 3.252-1.122 1.376-3.493 1-3.993-.75-.374-.75.25-2.25 1.498-2.502zm-3.62-2.25c-.623 1.875.874 3.126 2.372 2.75-1.123 1.5-3.37 1-3.994-.875-.25-.75.25-1.627 1.623-1.877zm6.116-.126c-.623 1.75.875 3.502 2.372 3.252-1.123 1.375-3.37 1-3.993-.876-.25-.75.248-2.25 1.62-2.376zM261 146.44c-.498 1.878.25 3.38 1.75 3.128-1 1.376-2.747 1.126-3.246-.625-.25-.875.25-2.25 1.497-2.502zm-5.116-1.374c-.5 1.876.874 3.752 2.497 3.377-1.123 1.376-3.494.875-3.993-.876-.375-.75.25-2.25 1.497-2.5zm1.25-2.252c-.5 1.877.872 3.627 2.37 3.378-1.123 1.375-3.37 1-3.87-.876-.374-.75.126-2.376 1.5-2.502zm5.74 1c-.5 1.752.873 3.628 2.37 3.378-.998 1.376-3.37.876-3.868-.876-.375-.75.25-2.376 1.497-2.5zm2.995-1.124c-.625 1.875.872 3.626 2.37 3.376-1.123 1.376-3.37 1-3.87-.875-.373-.75.126-2.25 1.5-2.5zm-34.696 31.517c.5 1.876-.874 3.752-2.372 3.376 1 1.25 3.37 1 3.87-1 .374-.625-.25-2.126-1.498-2.376zm-1.498-1.626c.5 1.627-1.248 3.002-2.745 2.753 1 1.25 3.37.875 3.87-.876.374-.625.124-1.75-1.124-1.876zm-1.373-3.5c.5 1.75-.873 3.626-2.37 3.25 1.122 1.376 3.37 1 3.868-.875.375-.75-.124-2.25-1.497-2.376zm3.994-3.503c.624 1.75-.874 3.627-2.37 3.252 1.122 1.5 3.368 1 3.992-.876.25-.75-.25-2.127-1.623-2.377zm-2.746-1.626c.5 1.877-.872 3.753-2.495 3.253 1.123 1.376 3.495 1 3.994-.75.373-.75-.25-2.252-1.5-2.502zm3.62-2.25c.624 1.876-.873 3.126-2.37 2.75 1.122 1.502 3.37 1.002 3.993-.874.25-.75-.25-1.626-1.623-1.876zm-6.115-.125c.624 1.75-.874 3.502-2.37 3.252 1.122 1.375 3.37 1 3.993-.876.25-.75-.25-2.25-1.623-2.375zm3.37-2.377c.5 1.877-.25 3.378-1.747 3.127.998 1.376 2.745 1.126 3.244-.625.25-.875-.25-2.25-1.497-2.502zm5.117-1.375c.5 1.876-.874 3.752-2.496 3.377 1.123 1.376 3.494.875 3.993-.876.374-.75-.25-2.25-1.498-2.5zm-1.248-2.252c.5 1.877-.874 3.628-2.372 3.38 1.124 1.374 3.37 1 3.87-.877.374-.75-.126-2.376-1.498-2.502zm-5.74 1.002c.498 1.75-.875 3.627-2.373 3.377 1 1.375 3.37.875 3.87-.876.375-.75-.25-2.377-1.497-2.502zm-2.997-1.125c.624 1.875-.873 3.627-2.37 3.376 1.122 1.376 3.37 1 3.868-.875.375-.75-.124-2.25-1.498-2.5z" fill="#642864" stroke="#000" stroke-width=".375"/><path d="M175.387 220.607c2.62.5 5.117.876 7.363-.125-11.73 26.014 6.74 47.4 31.2 59.157-1.122 1.875-2.246 3.25-3.37 4.877-24.21-10.88-47.798-34.144-35.193-63.91zm79.5 78.418h-5.367v6.63c10.608 12.88 39.437 14.006 47.55 29.265 12.355-16.384 38.813-18.386 54.288-31.017V300.4h-8.486c-9.735 11.507-34.196 11.757-45.803 25.64-14.977-17.26-33.947-11.757-42.184-27.015zm156.252-82.045c2.62.125 5.24-.125 7.86.376 14.853 33.142-3.243 51.403-31.45 67.036-1.62-1.876-3.493-4.003-5.365-5.503 20.343-5.504 48.673-28.767 28.954-61.91zm-5.617-29.766c-1.872 1.626-3.744 3.25-5.616 4.878-30.827-35.77-5.74-88.05 33.696-82.296 3.744.5 6.74 8.756 5.242 8.255-45.678-18.76-54.29 49.904-33.322 69.164zm-92.73-106.808c.376 2.5 2.123 4.002 3.746 3.5 1.746-.624 2.245-3.626 1.87-5.377-.25-2.25-1.996-5.63-4.867-5.63-2.496 0-5.616 2.878-5.74 6.63-.125 2.877-.125 6.004-.25 9.005 5.366 15.508 25.46 25.39 41.81 25.264 17.72-.126 41.433-11.632 39.436-39.773-1.498-1.375-2.87-2.876-4.244-4.252 3.37 23.262-18.97 37.395-35.32 37.02-13.603-.375-38.563-10.506-36.442-26.39zm-21.34-3.377c.125 4.626-.125 7.253-1.373 11.755-4.617 9.63-11.48 22.763-39.936 24.014-30.702 1.25-45.553-23.514-41.81-41.9 1.748-1.626 4.244-2.876 5.99-3.377-5.365 18.51 12.98 38.396 36.444 38.396 16.598 0 35.943-14.008 33.696-25.14-6.49 0-7.238-10.005 1.748-9.88 4.492 0 5.366 3.752 5.24 6.13zM166.65 104.293c51.17 10.13 52.043 57.53 31.7 85.17-1.747-2.125-3.494-4.25-5.24-6.252 20.092-23.388 10.857-66.41-31.7-75.917l5.24-3zm207.922-15.008c3.62-4.378 4.992-5.754 5.117-9.255.123-2-.5-7.254-2.497-7.254-2.122 0-2.87 4.128-3.12 6.13-.25 2.625 3.12 5.877.5 10.38zm51.418 31.517c4.244 1.125 6.615-1.25 8.86.25 1.5 1 1.75 2.25 1.125 3.25-.624 1.253-2.496 1.877-3.87 1.502-2.62-.75-3.494-3.25-6.115-5.002zM222.812 86.66c-2.496-3.378-4.243-7.13-4.368-10.006-.125-2.377 1.373-6.128 3.245-5.253 1.746.626 3.368 4.253 2.37 7.255-.874 3.126-1.747 5.502-1.248 8.004zm-45.553 31.516c-4.993-2.5-7.74-4.377-11.857-3.877-2.496.25-5.117 2.75-4.618 5.377.5 2.627 3.994 4.002 6.49 3.127 3.744-1 5.117-3.752 9.984-4.628z" fill="#ffd312"/><path d="M340.376 205.224c.5 1.875-.874 3.752-2.37 3.376.997 1.25 3.368 1 3.867-1 .375-.625-.25-2.126-1.497-2.376zm-1.498-1.626c.5 1.626-1.248 3.002-2.745 2.75.998 1.252 3.37.877 3.868-.874.376-.625.126-1.75-1.122-1.876zm-1.373-3.502c.5 1.75-.873 3.627-2.37 3.252 1.122 1.375 3.37 1 3.868-.876.374-.75-.125-2.25-1.498-2.376zm3.994-3.502c.623 1.75-.875 3.627-2.372 3.252 1.123 1.5 3.37 1 3.993-.876.25-.75-.248-2.126-1.62-2.376zm-2.747-1.626c.5 1.876-.873 3.752-2.496 3.252 1.124 1.375 3.495 1 3.994-.75.375-.75-.25-2.252-1.497-2.502zm3.62-2.25c.624 1.875-.874 3.125-2.372 2.75 1.125 1.5 3.37 1 3.995-.875.25-.75-.25-1.626-1.622-1.876zm-6.116-.126c.624 1.75-.873 3.5-2.37 3.25 1.122 1.377 3.37 1.002 3.993-.874.25-.75-.25-2.25-1.623-2.376zm3.37-2.376c.5 1.876-.25 3.376-1.747 3.126.998 1.376 2.745 1.126 3.245-.625.25-.876-.25-2.252-1.498-2.5zm5.117-1.376c.5 1.876-.874 3.752-2.496 3.376 1.123 1.376 3.494.876 3.994-.875.374-.75-.25-2.25-1.498-2.5zm-1.248-2.252c.5 1.877-.874 3.628-2.37 3.378 1.122 1.375 3.368 1 3.868-.876.374-.75-.125-2.376-1.498-2.502zm-5.74 1c.498 1.752-.875 3.628-2.372 3.378.998 1.376 3.37.875 3.87-.876.373-.75-.25-2.376-1.5-2.5zm-2.996-1.125c.624 1.876-.874 3.627-2.372 3.378 1.124 1.376 3.37 1 3.87-.875.374-.75-.125-2.25-1.498-2.502zm4.368-25.013c.5 1.876-.874 3.752-2.37 3.377.997 1.25 3.368 1 3.867-1 .375-.626-.25-2.127-1.497-2.377zm-1.498-1.626c.5 1.626-1.248 3.002-2.745 2.752.998 1.25 3.37.875 3.868-.876.375-.625.125-1.75-1.123-1.876zm-1.373-3.502c.5 1.75-.873 3.627-2.37 3.252 1.122 1.375 3.37 1 3.868-.876.374-.75-.125-2.25-1.498-2.376zm3.994-3.502c.625 1.75-.873 3.627-2.37 3.252 1.123 1.5 3.37 1 3.993-.876.25-.75-.25-2.126-1.622-2.376zm-2.745-1.626c.5 1.876-.873 3.752-2.496 3.252 1.123 1.376 3.494 1 3.993-.75.374-.75-.25-2.25-1.498-2.502zm3.62-2.25c.624 1.875-.874 3.126-2.372 2.75 1.124 1.5 3.37 1 3.994-.875.25-.75-.25-1.627-1.622-1.877zm-6.116-.126c.623 1.75-.874 3.502-2.372 3.252 1.123 1.375 3.37 1 3.994-.876.25-.75-.25-2.25-1.623-2.376zm3.37-2.377c.498 1.878-.25 3.38-1.748 3.128.998 1.376 2.745 1.126 3.245-.625.25-.875-.25-2.25-1.498-2.502zm5.116-1.374c.5 1.876-.874 3.752-2.496 3.377 1.123 1.376 3.494.875 3.994-.876.374-.75-.25-2.25-1.498-2.5zm-1.248-2.252c.5 1.877-.874 3.627-2.37 3.378 1.122 1.375 3.368 1 3.868-.876.374-.75-.125-2.376-1.498-2.502zm-5.74 1c.498 1.752-.875 3.628-2.372 3.378.998 1.376 3.37.876 3.87-.876.373-.75-.25-2.376-1.5-2.5zm-2.996-1.124c.624 1.875-.874 3.626-2.372 3.376 1.124 1.376 3.37 1 3.87-.875.374-.75-.125-2.25-1.498-2.5zm34.695 31.517c-.5 1.876.873 3.752 2.37 3.376-.997 1.25-3.37 1-3.868-1-.375-.625.25-2.126 1.497-2.376zm1.497-1.626c-.5 1.627 1.248 3.002 2.746 2.753-.998 1.25-3.37.875-3.87-.876-.373-.625-.124-1.75 1.124-1.876zm1.373-3.5c-.5 1.75.874 3.626 2.372 3.25-1.125 1.376-3.37 1-3.87-.875-.375-.75.124-2.25 1.497-2.376zm-3.993-3.503c-.624 1.75.873 3.627 2.37 3.252-1.122 1.5-3.37 1-3.993-.876-.248-.75.25-2.127 1.624-2.377zm2.745-1.626c-.5 1.877.873 3.753 2.495 3.253-1.123 1.376-3.494 1-3.993-.75-.375-.75.25-2.252 1.497-2.502zm-3.62-2.25c-.624 1.876.874 3.126 2.37 2.75-1.122 1.502-3.368 1.002-3.992-.874-.25-.75.25-1.626 1.622-1.876zm6.115-.125c-.624 1.75.874 3.502 2.372 3.252-1.124 1.375-3.37 1-3.994-.876-.25-.75.25-2.25 1.622-2.375zm-3.37-2.377c-.5 1.877.25 3.378 1.748 3.127-1 1.376-2.746 1.126-3.245-.625-.25-.875.25-2.25 1.498-2.502zm-5.116-1.375c-.5 1.876.872 3.752 2.495 3.377-1.123 1.376-3.495.875-3.994-.876-.373-.75.25-2.25 1.5-2.5zm1.247-2.252c-.5 1.877.873 3.628 2.37 3.38-1.122 1.374-3.37 1-3.868-.877-.375-.75.124-2.376 1.497-2.502zm5.74 1.002c-.5 1.75.874 3.627 2.372 3.377-1 1.375-3.37.875-3.87-.876-.374-.75.25-2.377 1.498-2.502zm2.996-1.125c-.624 1.875.874 3.627 2.37 3.376-1.122 1.376-3.37 1-3.868-.875-.374-.75.125-2.25 1.498-2.5z" fill="#642864" stroke="#000" stroke-width=".375"/><path d="M292.452 275.387c.748-2.376 2.496-2.502 2.496-5.878v-71.29c0-1 .873-1.75 1.872-1.75.998 0 2.12.75 2.12 1.75v71.29c1 3.375-.623 5.252 2.248 5.377 7.363.5 15.35 1 22.215 3 .75.627.624 1.252 0 1.878H277.1c-.373-.876-.124-2.127.875-2.752 7.612-2.25 14.227-.626 14.477-1.626zm53.166-58.407c.873-2.626 2.745-2.752 2.745-6.378v-78.794c0-1.125.874-1.875 1.997-1.875 1.123 0 2.246.875 2.246 2 0 26.14 0 52.404.125 78.67 1 3.625-.872 5.752 2.248 5.877 7.987.5 16.723 1 23.962 3.252.873.625.624 1.375 0 2.126h-49.92c-.376-1-.126-2.376.997-3.127 8.237-2.5 15.226-.624 15.6-1.75zm-92.354 0c-.874-2.626-2.746-2.752-2.746-6.378v-78.794c0-1.125-.874-1.875-1.997-1.875-1.122 0-1.996.875-1.996 2 0 26.14 0 52.404-.125 78.67-1 3.625.624 5.752-2.247 5.877-7.987.5-16.723 1-23.962 3.252-.873.625-.623 1.375 0 2.126h49.672c.375-1 .125-2.376-.998-3.127-8.237-2.5-15.226-.624-15.6-1.75z" fill="#961e1d" stroke="#000" stroke-width="1.403"/><path d="M290.08 197.47c1 1.875 1.997 2.75 4.244 2.75 2.995 0 7.488 2.127 9.36 3.878 2.62 2.25 5.242 6.628 5.99 10.13.375 2.002.125 4.003-1.123 5.13-2.87 2.625-6.364 4.25-9.36 6.377-3.12 2.126-6.364 4.753-8.236 8.505-1.373 2.626-.75 5.877.5 8.254 2.37 4.502 7.238 8.255 11.107 12.632.75.75 2.996-.125 3.37 1.126 1.872 5.503.624 10.255 1.748 16.008.624 3.502 5.366 3.502 7.488 4.502-4.244-.25-8.986-.5-12.73-2.25.998-.876 1.497-1.627 1.497-3.378 0-4.002-1.622-10.005-3.744-12.006-3.12-3.252-7.114-7.13-10.11-10.506-2.37-2.5-3.62-4.127-4.118-7.004-.874-4.252.624-7.754 2.995-11.38 3.12-4.753 9.485-7.254 14.103-10.256 1.123-.75 2.62-3.752 2.62-6.003-.124-3.503-3.62-7.38-5.366-7.756-2.246-.375-7.114.125-9.36-.5-.75-.25-.125-1.25-1.248-1.25-1.248-.126-2.122.75-2.62 2 .124-1-1.374-1.5-2.87-1.125 1.746-2.252 3.743-3.128 6.488-3.503.25-1.376-1.123-2.752-2.37-3.627 1.247.5 1.746.25 1.746-.75zm52.917-66.662c1.123 2 2.12 3.002 4.493 3.002 3.244 0 8.237 2.5 10.233 4.252 2.746 2.626 5.492 7.38 6.365 11.256.375 2.127.125 4.378-1.248 5.628-2.995 2.877-6.74 4.753-9.984 7.004-3.37 2.377-6.99 5.253-8.986 9.38-1.373 2.877-.75 6.504.624 9.13 2.62 5.003 7.738 9.13 11.857 13.883.874 1 3.245 0 3.745 1.375 1.996 6.004.624 11.257 1.747 17.635.75 3.877 5.99 3.877 8.237 4.878-4.62-.25-9.736-.5-13.854-2.375 1.123-1 1.747-1.876 1.747-3.753 0-4.502-1.872-11.13-3.994-13.382-3.495-3.502-7.738-7.754-10.983-11.506-2.62-2.752-3.87-4.502-4.493-7.63-.874-4.752.75-8.63 3.37-12.63 3.244-5.254 10.108-8.005 15.1-11.257 1.25-.876 2.87-4.252 2.746-6.63 0-3.876-3.744-8.253-5.616-8.503-2.496-.5-7.738 0-10.234-.626-.75-.25-.124-1.376-1.373-1.376-1.248-.124-2.12.876-2.745 2.126.125-1-1.498-1.5-3.12-1.125 1.872-2.626 4.118-3.502 6.99-4.002.248-1.375-1.25-3-2.622-3.876 1.373.5 1.997.25 1.997-.876zm-86.863 0c-1.123 2-2.122 3.002-4.493 3.002-3.244 0-8.236 2.5-10.233 4.252-2.745 2.626-5.49 7.38-6.365 11.256-.374 2.127-.124 4.378 1.248 5.628 2.996 2.877 6.74 4.753 9.985 7.004 3.37 2.377 6.99 5.253 8.985 9.38 1.373 2.877.75 6.504-.624 9.13-2.62 5.003-7.737 9.13-11.856 13.883-.873 1-3.245 0-3.744 1.375-1.997 6.004-.624 11.257-1.747 17.635-.75 3.877-5.992 3.877-8.238 4.878 4.618-.25 9.735-.5 13.853-2.375-1.123-1-1.747-1.876-1.747-3.753 0-4.502 1.872-11.13 3.993-13.382 3.496-3.502 7.74-7.754 10.984-11.506 2.37-2.752 3.62-4.502 4.243-7.63.874-4.752-.748-8.63-3.12-12.63-3.245-5.254-10.11-8.005-15.1-11.257-1.25-.876-2.87-4.252-2.746-6.63 0-3.876 3.745-8.253 5.617-8.503 2.496-.5 7.737 0 10.233-.626.75-.25.125-1.376 1.373-1.376 1-.124 1.872.876 2.496 2.126-.125-1 1.497-1.5 3.12-1.125-1.873-2.626-4.12-3.502-6.74-4.002-.25-1.375 1.248-3 2.37-3.876-1.122.5-1.746.25-1.746-.876z" fill="#961e1d" stroke="#000" stroke-width="1.403"/><path d="M281.72 251.874c-.875-1.376-2.123-1.626-3.246-1-1 .5-1.498 2.25-.25 3.377-2.246.75-1.997 4.002.375 4.253-1.75.875-1.75 3.752.623 4.127-1.124 1.25-.375 3.252.998 3.752-.124.75.375 1.5 1.25 1.876-.5 1-.25 1.876.373 2.5.125.752.624 1.127 1.124 1.502.25.876.998 1.626 2.12 1.626 1.125 0 2.123-.875 2.123-2.126 1.747-1 1.373-2.877 0-3.752 1.872-.75 2.122-2.75.874-3.627.374-.5.5-1 .5-1.5.997-.625 1.372-1.75.872-2.626 1.997-.5 2.247-2.502 1.373-3.502 1.497-1.126.873-3.252-.5-3.752.25-1.25-.75-2.25-1.872-2.376-.75-.126-1.622.25-1.997.875-.623-.376-1.746-.126-2.37.624-.5-.375-1.498-.75-2.37-.25zm-1.25-43.774c-.873-1.376-2.12-1.626-3.244-1-1 .5-1.498 2.25-.25 3.377-2.246.75-1.997 4.002.375 4.252-1.747.874-1.747 3.75.625 4.126-1.124 1.25-.375 3.252.998 3.752-.125.75.374 1.5 1.248 1.876-.498 1-.25 1.876.375 2.5.125.752.624 1.127 1.124 1.502.248.876.997 1.626 2.12 1.626 1.123 0 2.122-.875 2.122-2.126 1.747-1 1.373-2.876 0-3.752 1.872-.75 2.122-2.75.874-3.627.374-.5.5-1 .5-1.5.997-.626 1.372-1.752.872-2.627 1.997-.5 2.247-2.5 1.373-3.502 1.5-1.126.875-3.252-.498-3.752.25-1.25-.75-2.25-1.872-2.377-.75-.126-1.622.25-1.997.875-.624-.375-1.747-.125-2.37.626-.5-.375-1.5-.75-2.372-.25zm37.317 12.757c.873-1.375 2.12-1.626 3.244-1 1 .5 1.5 2.25.25 3.377 2.247.75 1.998 4.002-.373 4.252 1.747.875 1.747 3.752-.624 4.127 1.123 1.25.374 3.252-1 3.752.126.75-.373 1.5-1.247 1.876.5 1.002.25 1.877-.374 2.503-.125.75-.624 1.125-1.123 1.5-.25.876-1 1.626-2.123 1.626-1.123 0-2.122-.876-2.122-2.127-1.747-1-1.373-2.876 0-3.752-1.872-.75-2.12-2.75-.873-3.626-.375-.5-.5-1-.5-1.5-.998-.626-1.372-1.752-.873-2.627-1.998-.5-2.248-2.502-1.374-3.502-1.498-1.126-.874-3.252.5-3.752-.25-1.25.748-2.25 1.87-2.377.75-.124 1.624.25 1.998.876.624-.375 1.747-.125 2.37.625.5-.375 1.5-.75 2.373-.25z" fill="#b400b4" stroke="#000" stroke-width=".375"/><path d="M285.837 265.33c.5 1.877-.874 3.753-2.37 3.378.997 1.25 3.37 1 3.868-1 .374-.627-.25-2.127-1.498-2.378zm-1.498-1.625c.5 1.625-1.25 3-2.746 2.75.998 1.252 3.37.876 3.87-.874.373-.625.124-1.75-1.125-1.875zm-1.373-3.502c.5 1.75-.874 3.627-2.372 3.25 1.124 1.377 3.37 1.002 3.87-.874.374-.75-.126-2.252-1.498-2.377zm3.993-3.502c.624 1.752-.873 3.628-2.37 3.252 1.122 1.502 3.37 1 3.993-.875.25-.75-.25-2.126-1.623-2.376zm-2.745-1.625c.5 1.876-.874 3.752-2.496 3.252 1.122 1.376 3.493 1 3.992-.75.375-.75-.25-2.252-1.497-2.502zm3.62-2.25c.623 1.875-.875 3.125-2.372 2.75 1.123 1.5 3.37 1 3.993-.875.25-.75-.25-1.626-1.622-1.876zm-6.116-.126c.623 1.75-.875 3.5-2.373 3.25 1.124 1.376 3.37 1 3.994-.875.25-.75-.25-2.25-1.62-2.376zm3.368-2.378c.5 1.877-.25 3.377-1.747 3.127 1 1.375 2.747 1.125 3.246-.626.25-.876-.25-2.25-1.498-2.502zm5.117-1.376c.5 1.877-.873 3.753-2.496 3.378 1.122 1.375 3.494.875 3.993-.876.374-.75-.25-2.25-1.498-2.502zm-1.248-2.25c.5 1.875-.873 3.626-2.37 3.376 1.122 1.376 3.37 1 3.868-.875.374-.75-.125-2.377-1.498-2.5zm-5.74 1c.498 1.75-.874 3.627-2.372 3.377.998 1.375 3.37.875 3.87-.876.373-.75-.25-2.376-1.5-2.5zm-2.996-1.125c.625 1.877-.873 3.627-2.37 3.377 1.123 1.376 3.37 1 3.87-.875.373-.75-.126-2.252-1.5-2.5zm4.37-25.013c.498 1.876-.875 3.752-2.372 3.377.998 1.25 3.37 1 3.87-1 .373-.626-.25-2.127-1.5-2.377zm-1.5-1.626c.5 1.627-1.247 3.002-2.744 2.752.998 1.25 3.37.876 3.87-.875.373-.626.123-1.75-1.125-1.876zm-1.37-3.5c.498 1.75-.875 3.626-2.373 3.25 1.124 1.377 3.37 1 3.87-.875.374-.75-.126-2.25-1.498-2.376zm3.992-3.503c.624 1.75-.873 3.627-2.37 3.252 1.122 1.5 3.37 1 3.993-.877.25-.75-.25-2.126-1.623-2.376zm-2.745-1.626c.5 1.877-.874 3.753-2.496 3.253 1.124 1.375 3.495 1 3.994-.75.375-.75-.25-2.252-1.497-2.502zm3.62-2.25c.623 1.876-.875 3.127-2.372 2.752 1.123 1.5 3.37 1 3.993-.876.25-.75-.25-1.626-1.622-1.876zm-6.116-.125c.625 1.75-.873 3.502-2.37 3.252 1.123 1.376 3.37 1 3.993-.876.25-.75-.25-2.25-1.622-2.375zm3.37-2.376c.5 1.874-.25 3.376-1.747 3.125.998 1.376 2.746 1.126 3.245-.625.25-.875-.25-2.25-1.498-2.5zm5.117-1.377c.5 1.876-.873 3.752-2.496 3.377 1.124 1.376 3.496.875 3.995-.876.374-.75-.25-2.25-1.498-2.5zm-1.248-2.25c.498 1.874-.874 3.626-2.372 3.375 1.123 1.376 3.37 1 3.87-.875.373-.75-.126-2.377-1.5-2.5zm-5.742 1c.5 1.75-.873 3.626-2.37 3.376.997 1.375 3.37.875 3.868-.876.374-.75-.25-2.377-1.498-2.502zm-2.995-1.127c.624 1.877-.874 3.628-2.37 3.378 1.122 1.375 3.368 1 3.868-.876.375-.75-.124-2.252-1.497-2.502zm34.695 31.517c-.5 1.877.874 3.753 2.37 3.378-.997 1.25-3.368 1-3.868-1-.374-.626.25-2.126 1.498-2.377zm1.498-1.625c-.5 1.625 1.248 3.002 2.745 2.75-.997 1.252-3.368.877-3.868-.874-.374-.626-.124-1.75 1.124-1.876zm1.373-3.502c-.5 1.75.872 3.627 2.37 3.252-1.123 1.376-3.37 1-3.87-.876-.373-.75.126-2.25 1.5-2.376zm-3.995-3.502c-.624 1.75.873 3.627 2.37 3.252-1.122 1.5-3.37 1-3.993-.876-.25-.75.25-2.126 1.623-2.376zm2.746-1.626c-.5 1.876.874 3.752 2.497 3.252-1.124 1.375-3.495 1-3.994-.75-.375-.75.25-2.252 1.498-2.502zm-3.62-2.25c-.623 1.875.875 3.126 2.372 2.75-1.123 1.5-3.37 1-3.993-.875-.25-.75.248-1.626 1.62-1.876zm6.117-.126c-.624 1.75.873 3.502 2.37 3.252-1.122 1.375-3.37 1-3.993-.876-.25-.75.25-2.25 1.623-2.376zm-3.37-2.376c-.5 1.875.25 3.376 1.747 3.126-.998 1.376-2.746 1.126-3.245-.625-.25-.875.25-2.25 1.497-2.5zm-5.117-1.377c-.5 1.876.874 3.752 2.496 3.377-1.123 1.375-3.494.875-3.994-.876-.374-.75.25-2.25 1.498-2.5zm1.248-2.25c-.5 1.875.874 3.626 2.37 3.375-1.122 1.376-3.368 1-3.868-.875-.374-.75.125-2.377 1.498-2.5zm5.74 1c-.498 1.75.875 3.626 2.372 3.376-.998 1.376-3.37.875-3.87-.875-.373-.75.25-2.376 1.5-2.5zm2.996-1.127c-.624 1.877.874 3.628 2.37 3.377-1.122 1.376-3.368 1-3.867-.875-.375-.75.124-2.252 1.497-2.502z" fill="#642864" stroke="#000" stroke-width=".375"/><path d="M252.265 134.56c1.498-1.75 3.37-2.876 5.117-2.376-1.997-2.877-3.744-10.13-2.62-13.757.623 1.625.998 2 2.12 1.75.25-1.5 1.748-2.126 2.996-2.5.624.75 1 2.125.25 3.75.5-1.124 1.997-1.75 2.995-.374.874 1.25 1.498 3.502-.374 5.628 2.245.876 5.615-.625 6.738-4.502 1.248 1.25 1.248 1.75.5 3.252 1.372-1.126 3.743-.375 5.366 1.126 0 1.876-1.748 4.377-3.245 4.377 1.122.125 1.746.876 1.87 2.502-3.12-1.25-5.615-.5-7.986 1.5 2.745.876 3.244 2.126 3.744 3.627-.125 1.376-1.373 1.877-2.372 1.877 1.248 0 1.872.874 1.997 2.625-1.248.75-2.37.25-3.494-.5-.75.875-.376 1.5-.25 3-3.62-1.124-6.366-6.877-7.49-11.13-1.87-.625-3.618.25-4.99 2.126-.625.752-1.624-1-.875-2zm-11.73 4.753c-.625-1.876-1.998-3.502-3.87-3.377 2.746-2.126 6.614-8.005 6.49-11.38-1 1.25-1.373 1.375-2.372.874.25-1.5-.748-2.376-1.747-3.126-.873.5-1.622 1.625-1.497 3.25 0-1.124-1.25-2.125-2.498-1.25-1.123.876-2.37 2.752-1.372 5.13-2.247.124-4.868-2.128-4.618-5.88-1.498.626-1.747 1-1.373 2.626-.875-1.375-3.37-1.375-5.118-.625-.624 1.876.125 4.503 1.498 4.878-1-.125-1.747.25-2.37 1.626 3.12-.126 4.99 1.124 6.613 3.75-2.62-.124-3.62.752-4.368 2.002-.25 1.376.624 2 1.622 2.5-1.122-.374-1.996 0-2.62 1.502.873 1.126 1.996 1 3.244.625.376 1-.123 1.5-.747 2.75 3.744.126 7.737-4.25 9.984-7.628 1.872 0 3.12 1.25 3.87 3.377.248.75 1.62-.5 1.247-1.627zm4.242 55.655c-1.622-1.25-3.87-1.876-5.866-1.125 1.998-3.127 3.246-10.13 1.5-13.008-.375 1.5-.875 1.75-2.123 1.877-.5-1.25-2.12-1.626-3.494-1.75-.75.874-1 2.25 0 3.626-.624-1-2.37-1.25-3.37.124-.75 1.376-1.248 3.503.874 5.128-2.37 1.126-6.24.625-7.862-2.876-1.374 1.375-1.374 1.876-.126 3.126-1.748-.75-4.37.5-5.99 2.002.25 1.875 2.245 3.75 4.117 3.502-1.248.375-1.996 1.125-1.996 2.626 3.37-1.75 6.116-1.626 9.11-.125-2.87 1.25-3.493 2.5-3.618 4.002.25 1.25 1.498 1.376 2.87 1.25-1.372.25-2.12 1.126-1.997 2.752 1.373.5 2.62-.126 3.87-1.25.748.75.5 1.374.374 3 4.117-1.876 6.49-7.63 7.237-11.88 2.122-.877 3.994-.376 5.866 1.124.75.5 1.747-1.376.624-2.126zm12.98-18.385c1.622.876 3.62 1.5 4.992.5-1 3.127-.875 9.63 1.122 12.382 0-1.5.25-1.75 1.373-1.876.624 1.25 1.997 1.375 3.12 1.375.5-.75.5-2.25-.5-3.252.75.875 2.122 1 2.746-.375.376-1.376.376-3.502-1.62-4.753 1.62-1.25 4.99-.875 6.863 2.127.75-1.25.874-1.626-.25-2.752 1.498.625 3.495-.625 4.368-2.252-.373-1.75-2.37-3.376-3.867-3 .998-.376 1.372-1.002 1.123-2.377-2.496 1.627-4.743 1.627-7.364.5 2.122-1.25 2.372-2.5 2.247-4-.376-1.127-1.5-1.127-2.622-1.002 1.123-.25 1.622-1 1.373-2.75-1.372-.252-2.246.374-2.87 1.375-1.123-.626-.998-1.25-1.123-2.627-2.995 2-3.87 7.504-3.87 11.38-1.496 1.002-3.368.627-4.99-.5-.75-.75-1.124 1.127-.25 1.877zm35.943 24.263c-1.373-1.625-3.12-2.626-4.743-2.126 1.872-2.627 3.495-9.255 2.37-12.507-.498 1.5-.872 1.75-1.87 1.626-.375-1.377-1.623-2.002-2.746-2.377-.623.75-.998 2-.25 3.502-.498-1-1.87-1.626-2.745-.376-.873 1.125-1.372 3.126.25 5.128-2.122.75-5.242-.626-6.24-4.128-1.123 1.126-1.248 1.626-.374 3.002-1.247-1-3.62-.376-4.992 1 0 1.626 1.498 4.002 2.996 4.002-1.124.126-1.623.75-1.748 2.252 2.87-1.126 5.117-.5 7.364 1.376-2.496.75-2.995 1.876-3.495 3.25.125 1.252 1.248 1.627 2.247 1.752-1.123-.125-1.747.75-1.872 2.252 1.123.75 2.12.374 3.245-.376.624.75.374 1.376.124 2.752 3.494-1 5.99-6.254 7.113-10.13 1.623-.626 3.245.25 4.618 1.875.5.75 1.5-.875.75-1.75zm10.857 4.253c.625-1.627 1.873-3.128 3.62-3.003-2.496-2-6.116-7.254-6.116-10.38 1 1.125 1.374 1.25 2.248.875-.25-1.376.75-2.25 1.747-2.877.75.5 1.498 1.5 1.248 3.002.125-1.126 1.123-2 2.37-1.126 1 .752 2.248 2.377 1.25 4.63 2.12.124 4.492-2.002 4.243-5.38 1.497.626 1.622.876 1.373 2.377.747-1.25 2.994-1.25 4.616-.5.624 1.626 0 4.002-1.373 4.377 1-.125 1.748.25 2.247 1.5-2.87-.124-4.618 1-6.115 3.378 2.496-.125 3.244.625 3.993 1.876.25 1.125-.5 1.75-1.497 2.126 1-.25 1.873.125 2.497 1.5-.874.877-1.872.877-2.996.5-.373.876 0 1.377.625 2.503-3.37.125-7.113-3.877-9.235-6.88-1.747 0-2.87 1.126-3.494 3.003-.25.75-1.623-.5-1.25-1.5zm-3.993 50.526c1.622-1.125 3.62-1.75 5.49-1-1.87-2.877-2.994-9.255-1.372-11.882.375 1.376.75 1.626 1.872 1.75.5-1.125 1.997-1.5 3.37-1.625.624.874.874 2 0 3.25.5-.874 2.122-1.125 2.995.126.873 1.25 1.247 3.252-.75 4.753 2.247 1 5.866.5 7.24-2.628 1.372 1.25 1.372 1.626.25 2.75 1.62-.624 3.992.502 5.49 1.878-.25 1.75-2.122 3.377-3.87 3.126 1.25.376 1.873 1 1.873 2.377-3.12-1.5-5.616-1.376-8.487-.125 2.746 1.125 3.245 2.25 3.495 3.627-.25 1.125-1.497 1.25-2.745 1.25 1.248.126 1.997 1 1.872 2.377-1.248.5-2.37 0-3.494-1-.874.625-.624 1.124-.5 2.625-3.743-1.75-5.865-6.878-6.614-10.756-1.998-.75-3.745-.374-5.492 1.002-.624.5-1.498-1.25-.624-1.876zm-11.98-16.76c-1.5.877-3.37 1.502-4.62.5.875 2.878.875 8.756-.997 11.258-.125-1.376-.25-1.627-1.248-1.75-.625 1.124-1.873 1.25-2.997 1.25-.374-.626-.374-2.002.5-2.878-.624.75-1.997.876-2.496-.375-.375-1.25-.375-3.126 1.497-4.376-1.622-1.125-4.618-.75-6.365 2-.75-1.125-.75-1.5.25-2.5-1.374.625-3.246-.625-4.12-2.127.375-1.5 2.247-3 3.62-2.626-.874-.374-1.373-1-1-2.25 2.248 1.5 4.37 1.5 6.74.5-1.996-1.125-2.246-2.25-2.12-3.502.498-1.126 1.372-1.126 2.495-1-1.123-.25-1.498-1-1.373-2.502 1.373-.25 2.122.375 2.746 1.25.998-.5.998-1.124.998-2.375 2.746 1.75 3.62 6.754 3.62 10.256 1.372 1 3.12.626 4.742-.375.624-.624.874 1.002.125 1.627zm58.282-104.306c-1.498-1.75-3.37-2.876-5.117-2.376 1.996-2.877 3.743-10.13 2.62-13.757-.624 1.625-1 2-2.122 1.75-.25-1.5-1.747-2.126-2.995-2.5-.624.75-1 2.125-.25 3.75-.5-1.124-1.997-1.75-2.995-.374-.874 1.25-1.498 3.502.374 5.628-2.246.876-5.616-.625-6.74-4.502-1.247 1.25-1.247 1.75-.498 3.252-1.373-1.126-3.744-.375-5.367 1.126 0 1.876 1.747 4.377 3.245 4.377-1.123.125-1.747.875-1.872 2.502 3.12-1.25 5.616-.5 7.987 1.5-2.745.876-3.245 2.126-3.744 3.627.125 1.376 1.373 1.877 2.37 1.877-1.247 0-1.87.874-1.995 2.625 1.248.75 2.37.25 3.494-.5.75.875.374 1.5.25 3 3.62-1.124 6.365-6.877 7.488-11.13 1.872-.625 3.62.25 4.992 2.126.624.752 1.622-1 .874-2zm11.73 4.753c.625-1.876 1.998-3.502 3.87-3.377-2.746-2.126-6.615-8.005-6.49-11.38 1 1.25 1.373 1.375 2.37.874-.248-1.5.75-2.376 1.75-3.126.872.5 1.62 1.625 1.496 3.25 0-1.124 1.248-2.125 2.496-1.25 1.124.876 2.372 2.752 1.373 5.13 2.248.124 4.868-2.128 4.62-5.88 1.496.626 1.746 1 1.372 2.626.873-1.375 3.37-1.375 5.117-.625.623 1.876-.126 4.503-1.5 4.878 1-.125 1.748.25 2.372 1.626-3.12-.126-4.992 1.124-6.614 3.75 2.62-.124 3.62.75 4.368 2.002.25 1.376-.624 2-1.623 2.5 1.124-.374 1.997 0 2.62 1.502-.872 1.126-1.996 1-3.244.625-.375 1 .124 1.5.748 2.75-3.744.126-7.738-4.25-9.984-7.628-1.872 0-3.12 1.25-3.87 3.377-.25.75-1.62-.5-1.247-1.627zm-4.242 55.655c1.622-1.25 3.87-1.876 5.865-1.125-1.997-3.127-3.245-10.13-1.498-13.008.374 1.5.873 1.75 2.12 1.877.5-1.25 2.123-1.626 3.496-1.75.75.874.998 2.25 0 3.626.624-1 2.37-1.25 3.37.124.748 1.376 1.248 3.503-.874 5.128 2.37 1.126 6.24.625 7.863-2.876 1.372 1.375 1.372 1.876.124 3.126 1.75-.75 4.37.5 5.992 2.002-.25 1.875-2.247 3.75-4.12 3.502 1.25.375 1.998 1.125 1.998 2.626-3.37-1.75-6.115-1.626-9.11-.125 2.87 1.25 3.494 2.5 3.62 4.002-.25 1.25-1.5 1.376-2.872 1.25 1.373.25 2.122 1.126 1.997 2.752-1.373.5-2.62-.126-3.87-1.25-.747.75-.498 1.374-.373 3-4.118-1.876-6.49-7.63-7.24-11.88-2.12-.877-3.992-.376-5.864 1.124-.75.5-1.747-1.376-.624-2.126zm-12.98-18.385c-1.622.876-3.62 1.5-4.992.5 1 3.127.874 9.63-1.123 12.382 0-1.5-.25-1.75-1.374-1.876-.624 1.25-1.997 1.375-3.12 1.375-.5-.75-.5-2.25.5-3.252-.75.875-2.122 1-2.746-.375-.375-1.376-.375-3.502 1.622-4.753-1.622-1.25-4.992-.875-6.864 2.127-.75-1.25-.874-1.626.25-2.752-1.498.625-3.495-.625-4.37-2.252.376-1.75 2.373-3.376 3.87-3-.998-.376-1.373-1.002-1.123-2.377 2.496 1.627 4.743 1.627 7.363.5-2.12-1.25-2.37-2.5-2.246-4 .374-1.127 1.498-1.127 2.62-1.002-1.122-.25-1.622-1-1.372-2.75 1.373-.252 2.246.374 2.87 1.375 1.124-.626 1-1.25 1.124-2.627 2.995 2 3.87 7.504 3.87 11.38 1.496 1.002 3.368.626 4.99-.5.75-.75 1.124 1.126.25 1.877z" fill="#129612" stroke="#000" stroke-width="1.403"/><path d="M223.474 277.394c-.17.068-1.05.205-1.933.342-2 .274-2.562.293-3.24 2.587-.306 1.027-1.045 2.49-1.62 3.175-.985 1.3-1.892 3.83-1.655 4.993.204 1.165 1.51 1.553 3.817 1.04 2.95-.617 3.677-.92 3.813-.237.135.685-1.648 2.15-3.785 3.724-2 1.472-2.577 2.913-2.882 6.234-.102 1.404-.32 3.515-.625 4.884-.27 1.37-.59 3.07-.52 3.343.27.685 4.526 1.08 7.24.635 4.273-.685 6.524-2.803 6.965-6.226.305-2.225 1.343-4.834 2.734-6.27 1.22-1.268 1.365-1.067 2.314-.108.882.89.484.753-.568 5.956-1.017 5.066-.665 7.146 1.132 8.652 1.458 1.233 3.185 1.06 3.728-.513.237-.685 1.146-2.487 1.926-3.548 1.967-2.602 2.38-4.48 1.125-7.32-.883-2.02-1.376-2.36-.596-2.36.203 0 .477.388 1.393 1.346.916.926 2.757 2.017 3.13 2.017 2.238 0 2.39-9.987.253-11.356-1.085-.684-1.458.24-1.458 3.664 0 2.464.323 3.15-.05 3.15-.508 0-.63-.602-1.106-2.177-.407-1.437-2.286-2.084-3.628-.984l-1.307 1.072.178 5.35c.203 4.04.352 3.71-.09 3.71-.71 0-.523-.495-.828-4.808-.136-1.985-.407-4.085-.645-4.496-.203-.375-1.105-1.295-1.885-1.637-1.22-.548-2.02-.582-3.376-.24-2.984.822-6.05 3.978-7.847 7.606-.983 1.984-.966 2.46-1.712 2.152-.475-.17-.475-.004 0-1.168.814-1.95 2.854-4.362 5.635-7.375 3.188-3.492 3.15-4.173 2.64-5.918-.61-2.088-1.074-2.92-4.024-3.332-1.696-.24-3.49-.15-3.49-.457 0-.787.814-.992 4.002-.992 2.95 0 3.222-.067 3.832-.82.374-.446.747-1.2.882-1.678.34-1.403-.576-1.78-4.273-1.746-1.798 0-3.392.068-3.596.137z" fill="#129612"/><path d="M217.46 277.015c-2.247 3.47-4.68 9.192-4.68 11.068 0 2.44 3.276 4.034 5.71 2.627 1.497-.75 1.87-.75 1.31.094-.375.563-1.685 1.407-2.902 1.876-1.872.75-2.246 1.5-2.246 4.596 0 2.064-.52 2.637-.843 4.22-.11.537-.265 2.21-.265 3.847 0 3.94 3.192 5.387 9.69 3.797 3.722-.91 2.173-.4 4.818-2.15.936-1.688 1.67-3.43 2.324-5.587.655-2.157 1.685-4.22 2.246-4.596.562-.375.75-.094.468.657-2.62 6.378-2.807 8.442-1.31 11.63 1.31 2.815 2.06 3.284 4.774 3.284 2.902 0 .915-.81 4.095-4.51.935-2.346 2.075-3.08 2.288-3.498.663-1.303.577-1.24.51-1.986-.144-1.62 1.53-1.262 2-1.262 3.65 0 5.053-7.973 2.432-13.132-1.778-3.47-2.433-3.47-4.96 0-3.838 5.16-11.42 3-11.42-3.283 0-1.5.655-3.377 1.498-4.315 1.03-1.22 1.216-2.064.56-3.283-.748-1.314-2.432-1.69-7.86-1.877-6.273-.282-7.022-.094-8.238 1.782zm14.227 1.688c-.655 2.627-2.153 3.565-5.242 3.002-1.872-.282-3.37-.094-3.744.563-.467.656.282 1.03 1.967 1.03 3.276 0 4.493.846 5.335 3.472.468 1.595-.093 2.72-2.808 5.16-2.9 2.72-5.99 7.128-5.99 8.723 0 1.688 2.153 0 2.9-2.252 1.405-3.844 6.834-7.878 9.55-7.034 2.9.845 3.462 2.064 3.462 7.13 0 2.626.468 4.502 1.03 4.502.655 0 .842-1.595.374-4.784-.468-3.658-.374-5.065.562-5.628 2.153-1.407 3.65-.938 3.65 1.032 0 1.03.468 1.876 1.03 1.876.655 0 .842-1.032.56-2.533-.935-4.97 1.593-7.034 2.622-2.156.843 3.658-.28 8.442-1.872 8.442-.75 0-1.965-.938-2.714-2.064-1.78-2.44-3.276-1.407-1.685 1.126 1.685 2.72 1.404 5.44-.75 7.69-1.028 1.127-1.87 2.628-1.87 3.284 0 2.064-3.183 1.314-4.307-1.03-.748-1.596-.655-3.472.28-7.037 1.312-5.16 1.03-6.66-1.122-6.66-1.498 0-4.212 4.597-4.212 7.223-.094 4.41-4.12 6.566-11.326 6.097-2.434-.187-2.527-.375-1.685-3.752.47-1.876.844-4.784.844-6.284 0-2.16.748-3.378 3.276-5.067 3.744-2.532 4.493-5.346 1.217-4.22-4.4 1.406-5.897 1.03-5.617-1.502.188-1.218.936-2.72 1.592-3.282.748-.47 1.404-1.97 1.59-3.283.188-1.876.937-2.438 3.558-2.814 6.084-.843 9.828-.468 9.547 1.033z"/><path d="M182.696 183.36c-.204.617-.814 1.028-2.103 1.473-2.747.958-6.535 2.844-6.637 3.426-.034.307 1.314 1.5 2.908 2.528 4.273 2.807 4.354 2.325-.394 2.736-3.56.308-4.306 1.087-7.053 3.62-1.288 1.198-2.93 2.61-3.778 3.225-.917.65-2.115 2.14-2.25 2.688-.204.82 1.066 1.59 3.1 3.54 2.375 2.293 4.565 3.275 6.16 3.31 1.424 0 2.957-.85 6.077-3.142 1.56-1.13 3.284-2.72 4.165-3.027 1.46-.515 1.446-.332 2.226.18 1.153.788 1.092 1.968-.06 3.132-.442.48-1.478 1.16-1.715 1.16-.746 0-4.742 4.81-5.454 6.42-.883 1.95-.91 3.76.04 4.41 1.017.754 2.06.746 3.11-.246.51-.48 2.058-.978 2.295-.978 1.29 0 2.006-1.288 3.33-2.52 1.762-1.644 3.095-1.994 3.434-3.98.135-.82-.14-1.696.03-1.8.54-.34 1.044.37 1.044 1.5 0 4.04 3.46 4.93 5.257 1.37.374-.753 1.41-1.495 1.75-1.872.745-.855 1.68-3.6 1.443-4.217-.27-.686-1.802-.21-2.582.61-.406.446-1.422 1.61-1.896 2.602-.848 1.712-1.358 2.465-1.833 1.986-.1-.103.643-.88.948-1.974.678-2.294-.2-3.024-2.032-3.024-1.46 0-2.712.753-4.85 3.594-4.17 5.58-3.89 4.34.01-1.685 1.052-1.644 1.177-3.416 1.28-3.964.236-1.163-.917-3.525-2.07-4.313-1.356-.89-4.36-1.182-8.123.222-1.662.616-4.223 1.623-4.8 1.726-.983.172-.8.598-.292-.224 1.154-1.78 6.494-3.553 9.987-3.62 2.815-.035 3.5-1.012 4.145-2.347 1.12-2.226 1.516-3.063-.925-5.63-1.22-1.267-2.448-2.275-2.448-2.412 0-.684.66-.076 2.356 1.19 2.543 1.952 3.46 2.363 5.02 2.363 1.66 0 4.41-1.258 4.037-2.217-.102-.342-1.47-1.6-2.386-2.08-.916-.444-2.543-1.54-3.663-2.395-3.425-2.602-6.197-2.888-6.808-1.347z" fill="#129612"/><path d="M181.042 182.144c-.655.75-2.527 1.595-4.212 1.877-4.4.845-6.084 5.535-2.433 6.66 2.714.845 2.246 2.158-.562 1.595-1.966-.375-3.09.188-4.96 2.345-1.31 1.5-3.183 3.002-4.026 3.377-.937.28-1.686 1.22-1.686 1.876 0 .75-.655 1.876-1.404 2.533-1.216 1.03-.842 1.782 2.996 5.252 2.527 2.252 5.24 4.034 6.177 4.128 2.247 0 6.365-2.158 8.518-4.597 1.03-1.126 2.435-1.97 3.09-1.97.75 0-.28 1.594-2.34 3.47-4.587 4.41-6.084 9.943-2.995 11.538 2.62 1.407 7.956-.282 11.513-3.565 1.404-1.313 2.527-1.97 2.527-1.407s.655 1.314 1.498 1.595c1.684.658 5.054-.937 5.054-2.438 0-.563.562-1.5 1.31-2.064.75-.562 1.592-2.626 1.873-4.596l.655-3.564-4.212.563c-3.744.563-4.493.376-6.646-1.782-1.966-1.97-2.434-3.095-1.966-5.065.75-3.002 3.84-5.816 6.366-5.816 2.434 0 1.966-4.596-.655-6.003-1.03-.563-3.088-1.97-4.492-3.19-2.995-2.344-7.394-2.72-8.986-.75zm7.957 2.908c1.496 1.314 3.462 2.627 4.398 2.908 2.34.75 1.965 2.908-.75 3.377-1.59.375-3.18-.187-4.96-1.688-2.434-2.16-3.93-2.815-3.93-1.784 0 .282 1.122 1.5 2.526 2.72 1.966 1.69 2.34 2.627 1.778 4.597-.56 2.25-1.03 2.533-4.586 2.533-4.025 0-10.11 2.532-10.764 4.502-.187.657 1.404.28 3.744-.75 2.246-1.032 5.522-1.876 7.394-1.876 2.715 0 3.557.47 4.493 2.532.936 2.158.843 2.814-.655 4.878-2.714 3.658-4.118 6.66-3.182 6.66.468 0 2.06-1.69 3.463-3.752 1.87-2.814 3.18-3.752 4.585-3.565 1.966.375 2.153.844 1.03 3.752-.374.938-.28 1.69.28 1.69.562 0 1.405-1.314 1.966-2.815 1.125-3.377 4.307-4.034 3.278-.75-.28 1.22-1.03 2.25-1.405 2.438-.468.188-.842.75-.842 1.313s-.748 1.595-1.59 2.25c-2.153 1.502-4.025.095-4.025-3 0-1.22-.374-2.25-.936-2.25-.47 0-.937 1.03-.937 2.25 0 2.532-3.93 6.19-6.646 6.19-.842 0-1.778.47-1.965 1.126-.188.562-1.124.844-1.966.468-1.217-.47-1.498-1.22-1.03-3.19.562-2.625 5.148-7.784 6.74-7.784 1.123 0 2.246-2.72 1.497-3.846-.936-1.595-4.025-.844-7.114 1.782-5.055 4.41-7.582 4.502-11.888.657-3.65-3.377-3.744-3.377-1.872-5.253.936-.938 2.06-1.782 2.434-1.782.374 0 1.684-1.126 2.9-2.627 1.78-1.97 2.997-2.533 5.992-2.533 4.96 0 5.43-1.407 1.217-3.658-1.78-1.032-3.276-2.063-3.276-2.44 0-.75 3.276-2.437 6.365-3.282 1.123-.375 2.06-1.03 2.06-1.5 0-1.69 3.462-.845 6.177 1.5z"/><path d="M413.307 185.768c-.713.377-1.92.72-2.904 1.473-.95.72-3.638 2.206-4.587 2.754-2 1.095-1.395 2.244-.004 3.168 1.56 1.027 4.257.878 6.97-1.14 3.833-2.877 3.837-2.868.547.35-2.307 2.224-2.194 3.392-1.55 5.445.577 1.814 1.553 2.632 4.3 2.632 3.324 0 8.433 2.018 9.96 3.73 1.356 1.506 1.176.397-3.912-1.486-3.29-1.198-7.663-1.54-8.985-.65-1.12.72-3.036 4.266-2.764 5.395.134.444 1.543 2.13 2.628 3.807 1.866 2.875 2.376 3.96 1.97 4.37-.307.274-.582-.68-2.922-3.727-2.204-2.84-3.707-3.468-5.504-3.263-.916.103-.74.692-.706 1.958 0 .753.135 1.883.305 2.533.442 1.883-.813 1.232-2.034-1.06-1.255-2.363-2.224-4.206-3.072-4.206-.95 0-.692 2.87.36 4.308.474.65 1.05 1.643 1.32 2.19.748 1.61 2.206 2.91 3.257 2.91 1.29 0 2.002-.958 2.375-3.252.51-3.08 1.425-3.457 1.865-.753.34 1.917.848 2.875 2.442 4.416 1.323 1.3 3.29 2.328 4.477 2.328.372 0 1.084.377 1.593.856.983.924 1.526 1.027 2.543.513.814-.445 1.61-2.164.865-3.91-.948-2.327-4.617-6.423-6.516-7.21-1.017-.445-1.858-1.628-1.69-2.826.07-.48.172-.93.68-1.17 1.29-.617 2.885.197 6.243 2.66 1.526 1.097 3.282 2.2 3.893 2.508 1.593.82 3.91.806 5.742-.29 2-1.163 5.845-4.72 5.845-5.472 0-.856-.996-2.03-2.624-3.126-.814-.548-2.53-2.004-3.65-3.1-2.508-2.36-3.07-3.02-6.632-3.327-2.95-.274-4.156-.267-3.817-1.157.102-.308 1.222-1.1 2.85-2.16 2.78-1.815 2.883-1.952 2.374-2.533-.576-.65-2.95-1.78-6.07-2.944-1.086-.378-1.73-.857-1.933-1.405-.407-1.027-1.662-1.06-3.527-.137z" fill="#129612"/><path d="M418.677 184.48c.656.75 2.528 1.594 4.212 1.876 4.4.844 6.084 5.534 2.433 6.66-2.714.844-2.246 2.157.562 1.594 1.965-.375 3.09.188 4.96 2.345 1.31 1.5 3.183 3.002 4.025 3.377.936.282 1.685 1.22 1.685 1.876 0 .75.656 1.876 1.404 2.533 1.216 1.033.842 1.783-2.996 5.254-2.527 2.25-5.242 4.033-6.178 4.127-2.246 0-6.365-2.157-8.517-4.595-1.03-1.126-2.435-1.97-3.09-1.97-.75 0 .28 1.594 2.34 3.47 4.586 4.41 6.084 9.943 2.995 11.538-2.62 1.407-7.956-.28-11.513-3.564-1.404-1.315-2.527-1.97-2.527-1.408s-.655 1.313-1.498 1.594c-1.685.657-5.054-.938-5.054-2.44 0-.56-.562-1.5-1.31-2.062-.75-.563-1.592-2.627-1.873-4.597l-.655-3.564 4.212.563c3.744.563 4.493.375 6.646-1.782 1.965-1.97 2.433-3.096 1.965-5.066-.748-3-3.837-5.815-6.365-5.815-2.433 0-1.965-4.596.656-6.003 1.028-.563 3.088-1.97 4.492-3.19 2.995-2.345 7.394-2.72 8.985-.75zm-7.956 2.908c-1.496 1.313-3.462 2.626-4.398 2.908-2.34.75-1.966 2.907.75 3.376 1.59.375 3.18-.187 4.96-1.688 2.433-2.157 3.93-2.814 3.93-1.782 0 .28-1.122 1.5-2.526 2.72-1.966 1.688-2.34 2.626-1.78 4.596.563 2.25 1.03 2.533 4.588 2.533 4.025 0 10.11 2.533 10.764 4.503.187.657-1.404.282-3.744-.75-2.247-1.032-5.523-1.876-7.395-1.876-2.715 0-3.558.47-4.494 2.532-.936 2.157-.842 2.813.656 4.877 2.714 3.658 4.118 6.66 3.182 6.66-.468 0-2.06-1.688-3.463-3.752-1.87-2.814-3.182-3.752-4.586-3.565-1.965.376-2.153.845-1.03 3.753.375.938.28 1.688-.28 1.688-.562 0-1.404-1.312-1.966-2.813-1.123-3.377-4.305-4.034-3.276-.75.28 1.22 1.03 2.25 1.404 2.438.468.188.843.75.843 1.314 0 .56.747 1.593 1.59 2.25 2.153 1.5 4.025.094 4.025-3.002 0-1.22.374-2.25.936-2.25.47 0 .937 1.03.937 2.25 0 2.533 3.93 6.19 6.646 6.19.842 0 1.778.47 1.965 1.127.187.562 1.123.844 1.966.47 1.217-.47 1.497-1.22 1.03-3.19-.562-2.627-5.15-7.786-6.74-7.786-1.123 0-2.246-2.72-1.498-3.847.936-1.595 4.025-.844 7.114 1.782 5.055 4.41 7.582 4.503 11.888.657 3.65-3.377 3.744-3.377 1.872-5.253-.936-.94-2.06-1.783-2.434-1.783-.374 0-1.685-1.126-2.902-2.627-1.778-1.97-2.995-2.532-5.99-2.532-4.96 0-5.43-1.407-1.217-3.658 1.778-1.032 3.276-2.064 3.276-2.44 0-.75-3.276-2.438-6.365-3.282-1.123-.376-2.06-1.032-2.06-1.5 0-1.69-3.462-.845-6.177 1.5z"/><path d="M368.21 278.123c-1.05.41-1.152.72-.644 1.95.747 1.747 1.5 2.598 4.01 2.393 2.612-.24 3.63-.122 3.868.528.27.72.608.31-2.07.583-2.138.24-3.004.775-3.818 1.7-2.07 2.327-1.79 4.088 1.804 7.92 4.002 4.28 5.345 3.517 5.98 8.206-.406.685-.964.064-2.117-2.126-2.035-3.8-5.386-7.203-8.234-7.717-1.528-.274-4.583 1.057-5.125 2.29-.238.48-.145 2.81-.28 4.898-.238 3.936-.172 4.998-.885 3.937-.407-.65-.285-.442.122-3.968.475-3.56.237-5.6-1.017-6.25-1.594-.823-3.227-.14-3.43.956-.27 1.3-.95 2.602-1.357 2.636-.203.033-.373-1.302-.44-3.184-.034-1.78-.272-3.457-.475-3.697-1.29-1.576-2.442 1.334-2.24 5.647.24 5.17 1.528 6.093 4.376 3.15.915-.96 1.554-.74 1.757-.74.746 0 .287.21-.56 2.093-1.324 2.944-.823 4.72 1.008 7.424.814 1.232 1.73 2.772 2 3.457.645 1.54 2.832 1.427 4.358.024.95-.856 1.206-1.44 1.342-3.392.068-1.438-.44-3.157-.88-5.143-1.153-4.895-1.463-6.098.47-6.098 1.696 0 3.664 3.678 4.207 7.41.44 3.08 2.467 4.803 6.265 5.624 2 .41 4.997.358 6.625.05 1.255-.274 1.323-.89.543-5.032-.272-1.472-.51-3.624-.543-4.41-.034-2.57-.4-3.873-3.114-6.132-3.968-3.286-4.84-4.31-1.076-3.352 3.866 1.027 5.634.035 5.26-2.293-.135-.684-.927-2.053-1.572-2.978-.644-.96-1.208-3.107-1.445-4.03-.238-.96-1.354-1.884-1.76-2.124-1.358-.924-9.252-.898-10.914-.213z" fill="#129612"/><path d="M381.42 277.63c2.245 3.47 4.68 9.193 4.68 11.07 0 2.438-3.277 4.032-5.71 2.625-1.498-.75-1.873-.75-1.31.094.373.562 1.684 1.406 2.9 1.875 1.872.75 2.247 1.5 2.247 4.597 0 2.063.374 3.94.842 4.22.467.282.842 2.064.842 3.847 0 3.938-3.91 4.493-7.812 4.52-3.43-.596-5.496-1.703-7.274-2.584-.936-1.688-1.67-3.72-2.324-5.877-.655-2.158-1.685-4.222-2.247-4.597-.56-.376-.315 3.525-.034 4.275 2.622 6.38 1.075 3.665.733 8.88-1.6 1.657-2.395 2.408-4.63 2.27-2.34-.142-2.646-.953-4.093-3.062-.936-2.345-3.457-6.9-3.3-5.234.054.576-1.03-2.814-1.498-2.814-3.65 0-5.055-7.974-2.434-13.133 1.78-3.47 2.434-3.47 4.96 0 3.84 5.16 11.42 3.002 11.42-3.283 0-1.5-.655-3.376-1.497-4.314-1.03-1.22-1.216-2.064-.56-3.284.748-1.313 2.433-1.688 7.862-1.876 6.27-.28 7.02-.094 8.237 1.783zm-14.23 1.69c.657 2.625 2.154 3.563 5.243 3 1.872-.28 3.37-.093 3.744.563.468.657-.28 1.032-1.966 1.032-3.275 0-4.49.844-5.334 3.47-.468 1.595.094 2.72 2.808 5.16 2.902 2.72 5.99 7.13 5.99 8.723 0 1.69-2.152 0-2.9-2.25-1.405-3.847-6.834-7.88-9.548-7.036-2.902.844-3.464 2.064-3.464 7.13 0 2.625-.468 4.5-1.03 4.5-.654 0-.842-1.593-.374-4.782.468-3.66.375-5.066-.56-5.628-2.154-1.407-3.652-.938-3.652 1.03 0 1.033-.468 1.877-1.03 1.877-.655 0-.842-1.033-.56-2.533.935-4.972-1.592-7.035-2.622-2.158-.842 3.657.28 8.44 1.872 8.44.75 0 1.966-.937 2.715-2.062 1.78-2.44 3.277-1.407 1.686 1.125-1.685 2.72-1.404 5.44.748 7.692 1.03 1.126 1.872 2.626 1.872 3.283 0 2.064 3.183 1.313 4.306-1.032.75-1.594.655-3.47-.28-7.035-1.31-5.158-1.03-6.66 1.123-6.66 1.497 0 4.212 4.598 4.212 7.224.093 4.41 4.118 6.566 11.325 6.097 2.434-.186 2.528-.374 1.685-3.75-.468-1.877-.842-4.785-.842-6.286 0-2.157-.75-3.376-3.276-5.065-3.745-2.533-4.494-5.348-1.218-4.222 4.4 1.407 5.897 1.032 5.616-1.5-.187-1.22-.936-2.72-1.59-3.284-.75-.47-1.405-1.97-1.592-3.283-.188-1.875-.936-2.438-3.557-2.813-6.085-.844-9.83-.47-9.55 1.032z"/><path d="M300.432 73.777c3.87 0 6.99 3.127 6.99 7.13 0 3.876-3.12 7.128-6.99 7.128s-7.114-3.252-7.114-7.13c0-4 3.245-7.128 7.114-7.128zM193.975 227.11c-4.617 0-8.36-3.5-8.36-8.13 0-4.626 3.743-8.378 8.36-8.378 4.743 0 8.362 3.752 8.362 8.38 0 4.627-3.62 8.13-8.362 8.13zm.126-36.144c4.493 0 7.988 3.627 7.988 8.004 0 4.503-3.495 8.13-7.987 8.13-4.368 0-7.987-3.627-7.987-8.13 0-4.377 3.62-8.004 7.988-8.004zM179 171.83c4.242 0 7.862 3.627 7.862 8.005 0 4.377-3.62 8.004-7.863 8.004-4.37 0-7.988-3.628-7.988-8.005 0-4.378 3.62-8.004 7.987-8.004zm240.993 4.253c-5.117 0-9.36 4.127-9.36 9.255 0 5.128 4.243 9.38 9.36 9.38 5.117 0 9.235-4.253 9.235-9.38 0-5.128-4.118-9.255-9.235-9.255zm-16.474 50.403c4.617 0 8.486-3.878 8.486-8.63 0-4.628-3.87-8.505-8.487-8.505-4.744 0-8.612 3.878-8.612 8.505 0 4.753 3.868 8.63 8.61 8.63zm1.122-35.395c4.743 0 8.612 3.878 8.612 8.63 0 4.754-3.87 8.63-8.612 8.63s-8.486-3.876-8.486-8.63c0-4.752 3.744-8.63 8.486-8.63zm-33.447 78.044c-3.494 0-6.365 2.876-6.365 6.378 0 3.627 2.87 6.504 6.365 6.504 3.62 0 6.49-2.877 6.49-6.504 0-3.502-2.87-6.378-6.49-6.378zm-10.234 8.254c3.745 0 6.865 3.002 6.865 6.88 0 3.75-3.12 6.878-6.864 6.878-3.743 0-6.863-3.127-6.863-6.88 0-3.877 3.12-6.878 6.864-6.878zm-12.105 7.63c4.493 0 8.237 3.876 8.237 8.38 0 4.626-3.744 8.504-8.237 8.504-4.617 0-8.36-3.878-8.36-8.505 0-4.503 3.743-8.38 8.36-8.38zm-124.742-16.635c3.744 0 6.99 3.127 6.99 7.004 0 4.002-3.246 7.13-6.99 7.13-3.87 0-7.114-3.128-7.114-7.13 0-3.877 5.555-7.004 9.424-7.004h-2.31zm13.543 7.13c-4.368 0-7.987 3.626-7.987 8.13 0 4.376 3.618 8.003 7.986 8.003 4.493 0 8.113-3.627 8.113-8.004 0-4.503-3.62-8.13-8.114-8.13zm13.23 23.262c-3.994 0-7.24-3.252-7.24-7.13 0-4 3.246-7.253 7.24-7.253 3.993 0 7.363 3.252 7.363 7.254 0 3.877-3.37 7.128-7.365 7.128z" fill="#ffd300" stroke="#000" stroke-width="1.403"/></svg>