<svg xmlns="http://www.w3.org/2000/svg" xmlns:xlink="http://www.w3.org/1999/xlink" width="750" height="500"><path fill="#000f5d" d="M0 0h750v500H0z"/><use transform="translate(95 -302.6)" xlink:href="#a"/><use transform="translate(165.1 -240)" xlink:href="#a"/><use transform="translate(202.3 -149.8)" xlink:href="#a"/><use transform="translate(126.4 -126.4)" xlink:href="#a"/><use transform="translate(187.9 -50.1)" xlink:href="#a"/><use transform="translate(131.7 27)" xlink:href="#a"/><use transform="translate(88.7 -37.1)" xlink:href="#a"/><use transform="translate(48 74.9)" xlink:href="#a"/><use transform="translate(-52.9 74.9)" xlink:href="#a"/><use transform="translate(-88.9 -37.1)" xlink:href="#a"/><use transform="translate(-136.8 27)" xlink:href="#a"/><use transform="translate(-191.9 -50.1)" xlink:href="#a"/><use transform="translate(-204.4 -149.8)" xlink:href="#a"/><use transform="translate(-127.1 -126.4)" xlink:href="#a"/><use transform="translate(-166.3 -240)" xlink:href="#a"/><use transform="translate(-95.8 -302.6)" xlink:href="#a"/><use transform="translate(-.2 -328.7)" xlink:href="#a"/><use transform="matrix(-1 0 0 1 752.2 0)" xlink:href="#b"/><use transform="matrix(-1 0 0 1 751.8 0)" xlink:href="#c"/><use transform="matrix(-1 0 0 1 751.7 0)" xlink:href="#d"/><path d="M354.95 372.003l15.954-.01 5.257-15.587 4.873 15.633 16.07-.004-12.456 10.12 4.514 14.802-13.16-8.896-13.045 8.967 4.443-15.005-12.448-10.022z" id="a" fill="#d59f0f"/><path d="M346.35 114.652l22.503.047 7.41-21.985 6.862 21.995 22.626.022-17.548 14.238 6.358 20.856-18.513-12.505-18.4 12.623 6.254-21.168-17.55-14.123zM347.53 222.703c-.043-.04-.087-.096-.115-.154-18.136-23.955.312-32.76.685-49.706 12.002 22.282-5.586 29.213 15.324 49.875l-15.895-.017z" fill="#d59f0f"/><path d="M367.56 222.718c-6.386-8.982-10.865-23.32-8.95-32.687 1.9-9.36 8.388-18.58 7.49-25.666 3.378 7.978 6.556 11.053 5.572 16.925 5.077-15.142 16.747-22.967 32.568-23.745-28.454 21.622 8.69 38.24-15.87 65.197l-20.81-.024z" fill="#d59f0f"/><path d="M393.642 222.754c22.596-27.264-6.16-41.236 20.048-53.452.964 8.06-5.46 8.054-2.628 17.92.485 4.27-.107 7.757-1.49 10.732 2.665-3.268 7.85-9.433 11.144-11.832-7.792 11.74.575 22.01-18.22 36.63l-9.243.004M389.82 281.584c1.01-25.563 6.478-33.345 16.848-44.036-20.122-.047-42.61-.05-60.906-.064 10.326 10.708 15.79 18.495 16.742 44.055 9.107.003 18.21.02 27.317.044zM376.07 343.99l7.962 24.97 4.397-74.086c-8.2-.028-16.397-.04-24.595-.05l4.22 74.12zM375.954 455.952c3.512-3.257 4.51-13.866 4.51-13.866l2.184-43.3-6.634-4.66-6.65 4.646 2.115 43.31s.942 10.58 4.458 13.873l.016-.003zM411.545 232.958l-70.75-.076.008-6.715 70.765.073-.023 6.718zM394.32 292.644l-37.32-.038.01-8.354 37.324.054-.013 8.338z" fill="#d59f0f"/><path d="M200.582 226.533l133.232-15.962-.416-3.575-133.26 15.986.444 3.553z" id="d" fill="#d59f0f"/><path d="M225.896 145.688l109.567 42.132 1.288-3.344-109.55-42.134-1.304 3.346z" id="c" fill="#d59f0f"/><path d="M293.742 98.652l47.15 67.173 2.923-2.076-47.162-67.154-2.91 2.056z" id="b" fill="#d59f0f"/><path d="M373.89 142.72l-.035 24.443 3.585.003.014-24.457-3.565.01zM336.867 114.994l-15.482-7.94 1.078-2.1 15.482 7.937-1.078 2.104m2.638-5.718l-12.51-12.092 1.798-1.86 14.735 2.94c.324.063.62.13.89.203.268.074.506.156.714.247l-10.14-9.802 1.568-1.622 12.51 12.093-1.783 1.842-14.985-2.937c-.23-.046-.46-.103-.688-.172-.224-.074-.454-.16-.69-.255l10.14 9.803-1.56 1.613m13.207-28.688l-3.785 1.476 4.82 12.358 3.784-1.476c1.62-.632 2.64-1.634 3.06-3.006.418-1.38.225-3.1-.58-5.162-.768-1.974-1.78-3.32-3.032-4.04-1.253-.72-2.675-.77-4.267-.15m-.395 16.673l-6.32-16.21 6.173-2.406c2.26-.88 4.25-.88 5.973.004 1.73.88 3.092 2.594 4.084 5.14 1.027 2.634 1.203 4.927.528 6.88-.67 1.944-2.12 3.35-4.35 4.22l-6.087 2.373m16.362-4.93l-1.375-17.344 2.355-.186 1.375 17.344-2.355.187m10.644-7.12l5.325 1.02-1.198-8.046-4.126 7.025m-6.303 6.15l9.624-15.87 2.564.493 3.09 18.31-2.517-.484-.83-5.452-6.728-1.29-2.802 4.753-2.4-.46m17.005 3.86l9.835-14.354 2.134 1.462-.44 15.02c-.007.33-.024.633-.05.91-.03.277-.07.525-.125.745l7.97-11.634 1.862 1.274-9.835 14.353-2.115-1.45.394-15.264c.008-.234.026-.47.055-.707.035-.234.08-.474.136-.723l-7.97 11.634-1.853-1.268m21.632 9.466l2.888 4.588 5.063-6.37-7.95 1.782m-8.8-.407l18.167-3.802 1.39 2.21-11.27 14.756-1.365-2.17 3.417-4.327-3.65-5.798-5.386 1.198-1.303-2.07" fill="#d59f0f"/></svg>