<svg xmlns="http://www.w3.org/2000/svg" width="670" height="459" version="1"><path fill="#fff" d="M0 0h670v459H0z"/><path d="M502.473 459H670V0H502.473v459z" fill="#d90026"/><path d="M0 459h166.322V0H0v459z" fill="#0a1f62"/><path d="M286.746 336.374c-1.03 1.39-2.592 2.858-2.47 4.82l-.302.318c.47 7.484-.338 15.618.97 23.24.337 1.576 2.025 2.376 2.507 3.5l-.825.47c-4.55.247-9.582-.775-13.818-.15-.68-.06-.163-.6-.096-.902 1.598.03 2.02-1.33 2.91-2.413.363-.69-.192-1.666.483-2.207-.325-7.72-.042-15.534-.33-21.97-.646-1.65-1.984-3.737-3.665-4.23-.163-.452-.615-.452-.096-.993 5.23-.187 9.045.565 14.734.517M318.793 342.866c1.217 3.465 2.603 7.82 2.073 11.544-.06 4.09-1.953 7.545-3.85 11.004-3.032 3.772-8.787 4.355-12.903 3.53-4.044-.817-7.14-3.7-9.335-6.767-2.7-5.613-2.452-11.533-.68-17.41.367-.307.662-.614.578-1.143.078.072.15-.08.223-.163.427-1.208 1.084-2.29 1.97-3.524 2.012-1.703 3.712-3.796 6.514-4.007 1.2-.777 2.953-.284 4.465-.47 4.338.577 8.587 3.82 10.943 7.406M349.936 337.824c2.15 4.638 3.622 9.235 5.996 13.65.832.06.735-.914 1.11-1.383.975-3.434 2.578-6.72 3.56-10.154-.193-1.962-2.175-2.677-3.344-3.796l.217-.373c4.242-.247 7.972.114 12.757.246l.386.36c-1.043.862-2.248 1.343-3.212 2.27-3.965 6.076-5.16 13.902-8.123 20.634-.91 3.057-1.844 5.5-2.688 8.555-.524.385-.735 1.083-1.187 1.384-.94-1.336-1.03-2.172-1.905-3.814-2.09-5.487-4.43-11.497-6.9-16.9-1.066-.126-.506 1.07-1.18 1.384-2.827 6.197-5.948 12.41-8.77 18.536l-.3.234c-.862-1.203-1.278-2.996-1.693-4.584-2.833-7.9-5.972-16.015-9.022-23.523-.94-1.414-2.567-2.973-4.182-3.773-.235-.53-1.368-.186-1.386-1.034.446-.307 1.284-.175 1.82-.037 1.21-.024 3.188.012 4.17-.234 1.52.12 3.34.072 4.942.41 1.133-.248 3.11-.14 4.628-.164.295-.096.76.2.693.506-.747.692-2.097 1.185-2.224 2.478-.344 1.74.662 2.55.77 3.923.935 1.498 1.206 3.152 1.85 4.88.332 1.43 1.043 2.7 1.604 4.054 1.054-.332 1.404-1.692 1.838-2.612 2.103-4.675 4.495-9.728 6.29-14.09.61-.078.887-1.37 1.58-.782.705 1.04.97 2.63 1.904 3.748M378.795 335.297c4.086 9.68 9.148 18.963 13.228 28.492 1.325 1.564 2.495 2.97 4.41 3.687.32.686.17.91-.505 1.083-1.676.036-3.05-.385-4.628.096l-9.034.127c-.078-.307-.385-.373-.24-.68.89-.692 2.03-.95 2.386-2.02.283-.68-.03-1.367-.35-2.12l.145-.15-.928-1.185-10.017.223c-1.048.554-.79 2.058-.614 3.11-.05 1.367 3.223 1.752.896 2.86-4.254-.284-8.502-.188-12.45-.26-.235-.138-.09-.445-.168-.668 9.19-3.092 9.184-13.77 12.823-20.893 1.803-4.207 2.327-8.003 4.672-11.86l.38.157" fill="#d90026"/><path d="M310.356 342.366c1.127 3.008.217 6.43.59 9.53.007 3.718.368 6.36-.078 10.083-.578 1.455-2.06 3.08-3.724 3.338-2.037.577-3.525-1.59-4.544-3.008-1.422-2.54-.36-6.19-.5-8.85.223-3.724-.928-8.086.73-11.762 1.253-1.774 2.91-2.1 4.742-1.774 1.08.74 2.073 1.18 2.784 2.442M381.646 359.5l-6.912-.26 2.922-9.504 3.99 9.764" fill="#fff"/><path d="M366.803 160.868c.388 1.827 1.303 1.377 2.634 2.49.706.243 1.33.838 1.947 1.253l.173-.172c.887.94 1.767 1.35 3.167 1.322.624.595 1.753.394 2.55.906 5.184 1.633 11.373 1.135 16.764.408l-.18-.166c1.234.408 2.35-.31 3.666-.083 4.006-.332 9.23-.81 12.966-1.847 14.006-2.055 29.502-3.88 44.277-2.72 2.356.125 4.137 1.57 6.5 1.772 1.85 1.003 4.047 1.66 5.392 3.286 1.412.485 1.78 1.702 2.68 2.81 1.207 3.376 2.58 6.226 2.128 9.54-.194 2.878-1.517 6.054-4.11 7.416-1.44-2.24-4.095-3.742-6.472-4.566-.617-.256-1.67-.58-2.287-.906l-.61.014.172-.097c-.79-.16-1.503-.754-2.196-.47l.173-.173c-.445-.256-1.138-.07-1.574-.056-.624-.512-1.663-.31-2.37-.733l-2.357.04-.007-.158c-9.328.38-18.857-.11-27.984 1.218v-.18c-10.73.408-22.032 2.504-31.693-.256-1.115.808-1.933-.74-3.32-.188-.796-.408-1.842-.394-2.542-.553-.527-.167-.97-.41-1.58-.313v-.18c-1.144-.31-2.384-1.162-3.514-.968-1.94-1.26-4.49-1.73-6.18-3.177-7.672-3.743-8.448-11.07-10.79-18.853l4.573 4.352" fill="#0a1f62"/><path d="M361.917 154.898c-.52.014-.63-.865-1.316-.58-.214.31-.096.65.063 1.01 0 0-1.06.538-2.37.538s-1.684-.332-1.684-.332c-3.62-1.743-5.87-4.92-10.064-5.175-.984-.95-2.092.034-3.16-.72-2.342.484-4.553-.595-6.736-.637-1.4-.228-3.146-.623-4.553-.67-.367-.79-1.13-.167-1.573-.582-.714-.518-2.01-.137-2.55-.905-10.908-3.854-20.208-13.754-22.558-25.377-1.122.366-1.71 1.335-2.3 2.31-.146 1.39-.818 2.636-1.227 3.944-.95.463-1.075-1.107-1.61-1.53-.325-3.05-1.523-5.804-.976-9.13-.97-.5-.852.89-1.538 1.334-.596.892.228 2.705-1.158 3.175-2.08-3.264-.824-5.914-1.427-9.387-1.13.028-.214 1.93-1.704 1.605-1.456-2.498-.922-5.9-.714-8.35.755-1.578 1.767-3.08 2.162-4.92-.887-.588-1.386.56-2.08.83-1.468.374-3.277 1.55-4.69.893.145-1.486 1.87-2.407 2.273-3.797-.534-.595-1.13.187-1.733.373-1.732.83-3.735 1.135-5.738 1.1-.617-.518-1.33-.85-.825-1.73 1.124-.546 1.54-1.34 2.13-2.573-2.073.83-4.665 2.096-7.21 1.384-.608.09-1.135.028-1.586-.58-.194-1.046.846-1.33 1.262-2.208-.804-.672-1.56.476-2.35.407l-4.712-.07c-1.497-.497-.298-1.563.035-2.365.338-.346.858-.54.934-1.15-1.573.043-2.69.68-4.158 1.413-1.303.36-2.183.13-3.306.67-.63-1.023-2.35.23-2.55-1.065l1.11-1.26c-1.415-.74-2.697.68-4.09.707-1.83.13-4.005.622-5.856-.215-.097-.436.153-1.14-.457-1.204-3.216.85-6.41 2.484-10.16 2.387-.353-.242-.97-.4-1.157-.754-.263-.594.513-.705.5-1.23-1.484.04-2.766 1.107-4.242 1.487-1.733.823-4.096.353-5.82 1.26-.882-.582-2.947.594-2.988-1.232-1.33-.85-2.336.92-3.736.865-2.87.664-6.403 2.483-8.974.72.256-.27-.014-.61-.277-.79-3.985 1.488-8.587 2.54-12.87 2.477-.783-.166-.63-1.12-1.074-1.556-1.913.568-3.55 1.474-5.462 1.87-2.765.85-6.25 1.265-9.147.455-.373-1.038.922-1.404.91-2.38-3.993 1.06-8.04 3.404-12.496 3.245-2.017-.394-3.57.436-5.163-.498-.09-.256.077-.61-.193-.775.513-.713 1.455-1.252 2.32-1.62 3.258-2.676 5.843-4.226 9.28-6.917 6.016-3.958 12.37-8.89 17.93-14.066 1.544-.99 3.166-2.51 4.095-3.84-.264-.51-1.67-.74-.99-1.715 3.54-1.904 6.457-3.633 9.63-6.138 1.04-.373 1.72-1.35 2.766-1.46 3.334-3.037 8.275-4.614 11.976-6.89 4.85-1.758 9.418-4.47 14.463-5.362.325-.782.963.242 1.476-.298 4.15-1.84 8.607-1.404 12.516-2.442 2.37.63 5.3-.99 7.934-.097l.52-.27c7.06-.07 13.61-.04 21.04.58.886.686 2.19.39 3.16.638 2.016.568 4.386 1.04 6.146 1.862 3.97 2 7.104 5.34 6.5 9.88-.79 3.77-1.205 8.468 2.17 11.104.457.948.998 1.812 1.462 2.92.222 2.193.25 3.403.554 5.313.354.338.285 1.12.97.753 1.36-1.847 3.82-1.294 5.628-2.297 2.51-.484 4.768-1.232 7.4-.768 1.637-.733 3.14.284 4.79-.097 1.407.485 3.25.783 4.47.852 2.023.65 3.936.18 5.786 1.093 2.26-.31 4.124.948 6.05 1.176 2.176-.13 4.685 2.852 6.286.112 3.368-5.376 3.042-12.26.998-18.05-.52-3.812 1.732-8.49 5.44-10.49 4.137-2.448 8.933-2.2 13.257-4.295 2.877-.152 4.998-2.72 7.624-2.435 3.64-1.12 7.055-.768 11.165-.5.79.244 1.58.666 2.542.714 2.114.92 4.297.79 6.154 2.04l.173-.158c4.733 1.107 9.944 3.604 14.85 4.718 2.204.9 4.498 1.903 6.778 2.47.624.85 2.1.47 2.897 1.246.527-.194.97.242 1.407.387 1.22-.105 2.37.65 3.34.89 3.5.354 6.937 2.112 10.09 2.492 1.51 1.176 4.616-.38 5.024 2.325 9.086 4.144 16.8 9.727 25.635 14.508.694-.014 1.234.58 1.588.92-.513.27-.326.962-.146 1.218 5.226 3.362 10.292 7.527 15.863 10.986 5.69 4.738 11.366 8.806 17.644 12.764-.153.865 1.503.664.734 1.543-1.213.027-2.89-.54-4.276-.07-.963-.16-2.35-.04-3.5-.54-.86.54-1.76-.663-2.62-.2-.63-.85-1.392.38-1.933-.47-1.663-.41-3.18-1.682-4.92-1.46.735 1.716 3.028 2.795 3.763 4.442l-.513.524c-2.703-.027-5.676-.214-7.95-.346-.45-.678-1.58-.394-2.286-.733-1.24-.837-2.897-.975-4.048-1.557-.838 1.412 3.375 2.45.95 3.543l-.264-.338c-.346.18-1.04.636-1.573.207-1.76-.65-3.77-.962-5.523-1.613-2.467-1.08-4.67-1.902-6.882-3.43-1.71 1.7-3.05.338-4.975.11-2.01-.042-4.117-.776-5.884-1.786-.962-.068-2.03-1.002-2.806-.538.728 1.363 3.34 1.307 2.862 3.244-1.04.187-2.093-.04-3.146-.11-1.143-.58-2.363-.47-3.604-1.308-5.26-1.19-9.778-4.317-14.47-7.084-1.92-.41-3.513-1.405-5.114-2.512-2.377-1.065-3.382-3.148-5.42-4.324l-.25.353c1.346 1.807 2.884 4.118 3.542 6.2.27.436 1.054.408.81 1.107-.768.892-1.482.214-2.355.055-1.865-1.176-4.318-1.826-5.996-2.566-.353-.243-.803-.948-1.42-.92-.575 1.39 1.448 2.227 1.913 3.43.097.437.367.79.547 1.205-1.296.65-2.62-.283-3.666-.172-1.76-.567-3.7-1.398-5.024-2.152-.43.18-.804-.768-1.137.028.298 1.377 1.96 1.785 2.6 2.99-.493.967-1.72.725-2.69.85-.45-.706-1.47.027-1.836-.76-1.046.11-2.106-.472-3.153-.444-1.76-.747-3.52-1.33-5.114-2.422-.437.194-.423.796-.152.976 1.768 1.26 2.426 3.258 4.366 4.158.014.61.035 1.57-.748 1.584-3.77-.782-7.734-2.352-10.922-4.282-.173 0-.436-.083-.52.09 1.352 1.978 3.23 4.11 3.895 6.365-1.724 1.002-3.25-.88-4.83-1.28-1.586-.838-2.82-1.42-4.324-2.257.57 1.986 2.093 4.04 3.098 6.026.54.767-.845 1.238-1.38.81-2.21-1.433-4.33-2.513-6.707-3.42-.042 2.173 1.753 4.145.485 6.255-.236.962.755 2.595-.72 2.795-.638-1.632-2.516-3.59-3.674-4.62-.43.45.02 1.216.298 1.742.388 1.993.7 4.262 1.095 6.068-.33.878-.477 1.937-1.08 2.56-1.774-1.356-2.966-4.207-4.92-5.556.672 2.594 2.32 6.393.637 9.132.097.436-.07.865-.41 1.232l-.7.014c-1.17-1.64-1.835-4.15-3.86-5.058-.428.45.022 1.218-.227 1.668-.125 2.27 2.093 3.86 2.924 5.943 3.244 4.455 5.718 9.713 9.903 13.54-.062 1.307-1.725.995-2.5 1.46-.61.186-1.49-.23-1.914.38-1.76-.83-3.417-.623-5.018-1.896-2.578 1.715-4.56-.935-7.235.255 5.822 2.746 5.01 9.727 10.922 12.474 1.608 1.798 3.063 4.46 2.682 6.82-.312 1.84-1.504 3.176-3.05 4.165l-4.462-4.607"/><path d="M360.996 156.475c.16.367.034-.387 0 0 .034 1.667 1.47 3.37.894 5.03-1.76 3.19-4.567 6.47-5.447 10.322-1.262 2.2-2.44 4.15-2.994 6.607-1.25 2.892-1.796 5.7-2.344 8.58-1.08 2.462-1.448 5.61-2.17 8.502-2.487 9.728-4.53 20.147-8.592 29.812-.464 2.81-1.982 5.19-2.62 7.9-4.005 8.192-7.505 15.754-12.66 23.62-4.72 7.43-10.687 14.093-17.99 19.054-1.477.636-2.933 1.716-4.672 2.013-1.365 1.08-2.523.056-4.262.45-2.717-.637-5.808-2.055-7.942-4.096-2.516-3.003-5.385-6.677-5.212-10.69 2.89.457 4.713.242 7.23-.692 1.904-.2 3.353-1.985 5.085-2.456.86-.795 2.323-1.702 3.258-2.677 2.724-3.203 6.314-6.51 8.587-10.565.506-.622 1.53-1.598 1.774-2.566 3.214-4.42 5.89-9.977 8.835-14.924 5.468-13.36 11.705-27.265 17-40.362.852-1.15 1.33-2.996 1.912-4.31.18.083.263-.014.34-.09v-.533c.166.083.166-.076.25-.173-.27-.61.512-.443.505-.892l-.18-.16.422-.525-.09-.083.09-.014c.75-1.757 1.58-3.432 2.42-5.106l-.18-.166c.588-.97 1.357-1.847 1.683-2.996.173 0 .256-.097.34-.18.076-.622.852-1.162 1.01-1.847 2.746-6.08 6.39-11.042 11.173-15.677l4.54-.097" fill="#0a1f62"/><path d="M385.57 43.794c1.663.228 3.063.54 4.733 1.03 6.584 1.786 12.925 4.242 19.425 6.283 3.708 1.84 8.094 2.78 11.87 4.012.348-.174.798.497 1.408.228 3.424 1.23 7.277 1.757 10.444 2.905.547 1.03-.964.11-1.116.81-1.296.38-2.51 1.017-3.895 1.217-5.47 1.6-9.502.81-14.755-.117-.533-.422-1.497-.574-2.204-.906-1.572-.14-2.895-.803-4.385-1.03-.097-.61-.874-.16-1.317-.243-.437-.07-1.24-1.01-2.197-.637-.186-.61-1.045.014-1.4-.4-2.466-1.164-5.26-1.37-7.892-2.014-.534-.326-1.324-.568-1.94-.907-2.024-.747-4.297-.775-6.155-1.868-1.406-.4-4.352.526-4.58-1.82-.874-.055-1.11 1.066-2.08.658-.408 1.058-1.462.99-2.32 1.446-1.394.38-2.877.152-4.194-.173l-2.184-.126c-2.065 1.356-4.72 3.757-7.373 2.166-1.033.54-2.204-1.003-3.14.242.375 1.038 1.026 3.023.278 4.525-.838 1.584-2.494 1.626-3.624 2 .84 2.338.728 5.126-1.067 6.904-.34.257-.867.27-.944.803 1.775 1.446.784 3.73.472 5.66-.984 2.54-5.8 2.124-4.588 5.756-.825 1.673-3.16 2.69-2.412 5.03-.866 4.184-6.736 3.264-6.46 7.886.202 1.217-.643 2.54-1.135 3.77-1.47.734-2.322 1.8-4.06 1.917-.653 2.193-.5 5.07-3.19 5.735 1.068 1.024-1.385 4.47 1.048 4.06.257-.428.063-1.293.763-1.223.644 1.73 2.883 4.296 1.26 5.728-2.515.74-3.097-1.77-4.344-2.878l-.112-5.133-.783.013c-2.737 2.498-3.978 5.833-4.948 9.347-.977-.85-2.232-2.297-2.176-3.874-.18-.256-.443-.34-.796-.325-1.442 1.847-1.476 4.213-1.51 6.648-2.01-.476-2.58-2.462-3.757-4.01-.81-1.288-.922-2.596-1.83-3.883-1.372.554-1.337 2.297-1.92 3.53-.4 1.756.25 3.306-.325 4.973l-.527.014c-2.134-1.868-3.86-4.8-4.885-7.735-.867.193-1.72 1.085-1.955 2.137.278.768-.5 1.23-.575 1.84-.734 2.104.555 5.293-2.127 6.324-1.102 1.578-1.76 2.907-2.51 4.58-.262.09-.352-.165-.533-.24-.152-3.06-.575-6.352.146-9.424.59-.97.735-2.104 1.677-2.92-.194-.865-1.053-.228-1.393-.048-1.448 1.688-3.243 3.563-4.51 5.237l-.272-.332c-.526-4.18 1.47-8.662 4.096-12.12l-.444-.506c-2.23 1.965-4.372 3.84-5.883 6.392l-.61.013c-.47-5.472 2.21-10.42 5.98-13.726.167-.353-.187-.512-.277-.775-.686.72-.97-.318-1.746.042-2.23 1.785-4.456 3.84-7.318 4.69.485-1.757 1.94-3.272 2.862-4.946 1.622-1.42 1.927-3.702 4.553-3.065.424-.61 2.087-.65 1.54-1.77-.888-.596-1.65.65-2.523.677l-1.393.02c.977-3.25 3.645-4.78 6.12-7.458-.042-2-2.745-1.764-3.396-3.577-.66-2.255-2.183-4.137-2.502-6.49-1.712-2.656-6.216-5.077-3.673-8.537 1.206-.636-.208-1.646-.23-2.525-.2-1.384-.158-3.217.244-4.704-.81-1.122-2.544-.3-3.34-1.15-2.98-.72-1.636-6.932-5.773-4.483-.797-.595-2.003.034-2.973-.38-2.952.51-5.322-3.8-8.052-1.045-2.578 1.722-6.688 1.543-10 1.626-1.24-.838-2.994-1.246-4.408-1.827-2.05 1.786-4.733 2.81-7.52 3.3-2.34.485-4.545-.504-6.908-.8-4.588 1.756-8.427 5.852-13.188 7.526-2.502 1.273-4.824 2.72-7.59 3.826-3.11 1.62-6.14 2.747-9.528 3.43-1.822.382-3.05.23-4.975-.158-1.136.028-2.965.242-3.513-.878 5.412-4.04 11.6-8.095 17.817-11.367 10.888-4.782 21.338-9.874 33.21-9.97 9.764-.395 18.745-.935 28.634.324.624.865 1.553-.54 2.01.568 4.643.767 9.82 1.785 11.844 6.62 2.8 4.2-3.285 9.306 1.164 13.132 1.99 3.272 4.082 6.96 3.91 11.07.366.947 1.003 2.158 1.89 2.663 1.775-2.49 5.593-3.784 8.29-4.11 1.115-.81 2.695-.58 4.08-.864 3.403.013 7.16.096 10.493.81.948-.38 2.022.65 2.972.283.104.61.963.055 1.317.408 4.475.94 8.058 1.39 11.87 3.833 1.38-.824 2.197-2.754 3.305-4.172 2.856-5.106 2.897-11.125.77-16.66-1.29-2.933.56-6.02 2.342-8.33 1.94-3.175 5.274-2.47 8.212-3.75.88.416 2.085-.22 2.86-.58 2.877-.41 5.906-1.613 8.58-2.976 1.664.387 2.752-1.557 4.166-.88 3.728-1.12 8.018-.352 11.525.174" fill="#a54a00"/><path d="M260.107 53.957c-.235 1.135-1.71 1.432-2.3 2.58-1.892 1.177-4.408 1.84-6.605 1.364-.797-.498-1.24-1.106-1.954-1.7 1.026-.81 2.696-.403 3.902-1.04 2.363.118 4.442-4.365 6.957-1.19M280.364 54.31c1.38-.823 2.633.712 3.922-.27.18.256.97.595.458 1.12-1.892 1.177-4.06 1.66-6.23 2.325-2.613.312-1.982-2.76-3.396-3.673l.326-1.15c1.407.755 3.333.81 4.92 1.648M274.085 54.44c.458.95 1.262 1.973 1.282 2.762.527.34 1.504 1.19.638 1.716-1.268 1.53-3.555.608-5.468.906-.533-.422-1.58-.31-1.684-1.176-.77-3.03 2.994-2.85 3.902-5.134l.77-.622c.955.228.013 1.037.553 1.55" fill="#a54a00"/><path d="M400.63 50.09c-.597.546-1.477.297-2.073.83.242-.79 1.296-.464 1.725-.83l.18.18.167-.18"/><path d="M270.918 53.376c-.582 1.23-2.224 2.055-3.084 2.767-1.462.99-2.5 1.356-4.234 1.84-1.31-.07-1.85-.92-2.405-2.04-.277-.768.416-1.232.576-1.84 2.73 1.072 6.113.297 8.622-.713l.526-.014M247.848 56.226c-1.428 2.297-3.673 3.66-5.988 5.46-6.264 4.918-14.393 8.322-22.134 9.457-1.386.553-2.952.408-4.36.27.853-.983 2.828-2.318 4.027-3.578 2.516-.664 4.144-2 6.66-2.677 5.606-2.906 11.04-6.157 16.28-9.77 1.572.056 4.025.354 5.515.838M383.255 53.874c-.048 1.653-.173 3.826-2.072 4.746-1.213.637-2.44.31-3.66.43.146-1.31 1.158-3.08-.346-4.27l-.547-.85c1.92-.042 3.444-2.16 5.308-.824.437-.173 1.137.325 1.317.768M373.49 54.095c.02.94-.22 1.903-.997 2.36-1.56.38-3.91.878-5.066-.146l-.187-.513c2.086-.567 4.026-3.666 6.25-1.702M395.147 58.662c1.428 1.363 1.99 3.19 3.5 4.282l-.083.173c2.772 2.99 5.39 7.112 7.727 10.025-9.085-.242-15.897-8.44-22.675-14.833.056-1.662 1.775-2.824.86-4.554.693.063 1.67.312 2.536.374 3.175 1.418 6.57 1.086 8.13 4.532" fill="#a54a00"/><path d="M376.678 56.282c-.325 1.23-.11 3.05-1.67 3.604-1.2.734-3.278 1.474-4.698.547-.187-.61-.2-1.315-.305-2 .852-1.058 2.01.035 2.945-.858 1.29-.795 1.788-2.117 1.934-3.52l1.788 2.227M260.267 57.27c.72.852 1.434 1.62 2.314 1.96 1.928.386 3.217-.693 4.776-1.073.9 1.113-.748 1.68-.817 2.546-5.497 4.13-9.302 9.526-16.253 10.903-.25.623-1.053-.055-1.295.637l-5.67.297c5.115-5.424 11.13-9.824 16.508-15.435l.61-.014-.173.18M284.35 56.738c-.39 2.366-.52 4.366.4 6.53-1.01 1.593-3.38 1.025-4.947 1.24-1.684-1.266-2.322-2.387-1.844-4.4-.063-2.79 3.38-1.12 4.656-2.72.79.243 1.116-.712 1.733-.65M288.313 58.662l2.204.906c-.236 1.052.77 3.376-.7 3.93-.43.11-.873-.153-1.13.283-1.22-.137-2.467-1.064-3.188-2.095-.292-1.564-.16-3.487.422-4.712 1.053.146 1.51 1.35 2.39 1.675M255.603 59.374c-6.147 6.234-12.66 11.61-21.02 12.84-1.822.118-3.818.686-5.398.298 3.937-3.41 9.023-6.22 12.876-9.526 2.413-1.446 5.088-2.99 7.14-4.864 1.44 1.792 4.47.865 6.403 1.252M366.034 56.337c.194.955-.042 2.186-.72 2.982-1.047.193-2.336 1.175-2.967.054 1.2-1.065-.395-2.082.007-3.473 1.393-.296 2.37.555 3.68.437M406.61 59.81c.693-.194.79.325.977.754 2.39 1.688 3.686 5.07 5.994 6.932 1.103 2.498 4.02 3.916 5.123 6.51-1.303.284-2.98-.373-4.38-.525-1.67-.74-3.52-1.487-4.94-2.58-1.235-.498-2.04-1.266-3.01-1.847-4.012-3.923-7.85-7.68-11.094-12.3 1.135-.03 2.452.463 3.77.69 2.203 1.094 5.342.935 7.56 2.367M369.09 60.633c.11.962-.118 2.353-.887 3.32-1.11.894-3.12.95-4.352.27.063-.954-.13-1.915-.58-2.683 1.82-.395 3.63-1.474 3.845-3.473.083-.353.686-.54.956-.208.97.504.743 1.812 1.02 2.773M276.393 60.322c.915 1.89-1.51 2.81-2.273 3.798-5.67 4.214-10.166 9.887-18.295 9.36l-.354-.338c3.48-4.345 8.36-8.634 13.07-12.66 2.725.816 5.26.85 7.853-.16M392.237 69.268l.977.595-.174.173c.978.85 2.48 1.688 2.863 3.16-7.658.95-13.285-4.85-18.11-9.885l.112-2.704c1.67.484 3.3-.85 4.948-1.322l9.377 9.984M362.7 63.726c-.4 1.487-.984 2.636-2.453 3.362l-2.01-.117c.486-1.84 1.075-2.635.506-4.718.86-.636 1.622-1.605 2.85-1.46.63.948.74 1.986 1.107 2.934M376.52 60.806c-.223 1.937.09 4.193-2.156 5.19-1.227-.132-2.26.58-3.237-.174l-.7.014c-.173-.436-.88-.422-1.233-.775.5-.954.825-1.915 1.067-3.064.417-.782.964.34 1.574.14 1.837.227 3.12-.852 4.685-1.316M454.58 70.333c1.51 1.107 3.368 2.283 4.774 2.788l.714.755c-7.845.526-15.495-2.186-22.128-6.136-1.26-1.62-2.57-1.69-3.998-3.04-1.587-.92-3.174-1.673-4.685-2.863-.02-.962 1.31-.028 1.552-.823 2.272.297 3.693-2.774 5.828-.906 5.828 3.19 12.28 6.793 17.942 10.225M412.14 61.256c.963.242 1.677.996 2.716.713.54.607 2.183.137 2.987.89 4.18-.082 5.787 5.107 8.794 6.864 1.58.837 2.578 2.394 4.34 3.217.27.437.706.34.81.95-2.26.4-4.006.096-6.196-.2l-.006-.195c-5.613-1.35-9.98-5.528-13.666-10.15-1.06-.58-1.344-1.875-2.148-2.47.256-.27.693-.186.963-.027.36.61.873.07 1.407.408M279.304 65.566c.88.325 2.093-.04 2.89.457-1.705 1.688-3.34 3.044-5.4 4.65-3.353 2.082-6.99 3.555-11.094 3.202 2.814-3.016 6.514-5.362 9.238-8.475 1.04-.2 1.26-1.944 2.502-1.363.533.692 1.074 1.19 1.864 1.53M290.98 64.7c-.49 1.406-.81 2.893-.865 4.457-1.026.892-1.99.65-3.306.512-.444-.513-1.228-.5-1.76-.914-.55-.962-1.366-2.505-.34-3.57.727-2.636 2.62.283 3.915-.256.693-.284 1.746-.14 2.356-.23M430.45 64.508c3.007 1.68 4.885 3.91 7.622 5.154 2.772 3.238 7.914 2.78 10.693 6.04-6.88.754-14.685-1.086-19.77-5.853-2.302-1.676-5.234-3.972-7.042-6.72 1.296-.47 3.05-.414 4.69-.892 1.318.312 2.482 1.612 3.806 2.27M379.464 67.808c2.156 2.823 5.253 4.85 7.596 7.928-.763 1.343-2.606.85-3.826.79-3.686-.88-6.258-2.824-8.863-6.082-1.06-.58-1.96-1.785-2.59-2.81 1.828-.22 4.538-.096 5.266-2.476 1.15.58 1.53 1.972 2.418 2.65M368.1 67.102c.11 1.045-.216 2-1.165 2.56-1.476.284-3.306.318-4.88.27-2.487-1.95 1.165-2.463 1.304-4.297 1.683 1.183 4.413-1.41 4.74 1.467M283.018 67.74c.54.96 1.366 2.593 2.682 2.904-.824 2.124-2.903 2.85-4.622 4.207-2.065 1.35-4.4 2.187-7.04 1.198.56-2.103 2.91-2.595 4.185-4.186l4.442-4.283h.52l-.167.16M208.88 70.16c2.183-.04 3.57-.595 5.503-.028.02 1.038-1.04.54-1.546 1.163-6.597 5.714-11.448 11.325-18.753 16.445-1.815.92-3.264 2.608-5.35 2.906-2.654 2.144-6.3 3.092-9.59 4.483-2.35.04-5.302.808-7.59.165 1.7-2.297 5.074-3.695 7.125-5.652 9.21-5.604 18.48-12.69 26.084-20.175 1.407.58 2.786-.242 4.116.692M230.093 70.132c-1.892 1.53-3.707 2.083-5.066 4.027l-.173-.16c-5.676 4.116-11.067 8.683-16.383 13.076-.872.097-1.46 1.08-2.147 1.612-3.867 2.525-7.74 4.877-12.613 5.59-1.815.906-3.66.436-5.745.65.485-1.584 2.05-2.055 3.07-3.203 7.2-5.728 14.318-11.81 21.24-18.244 3.223-.158 6.26-1.175 9.405-1.16.416-.624 1.476-.03 1.99-.486 2.168-.65 4.247-1.307 6.41-2.054l.013.352M378.466 78.026c-2.682.927-5.51-.49-7.81-2.006-1.774-1.093-2.342-3.348-3.68-4.538-.11-.955 1.026-.893 1.54-1.433.33-.782 1.1-1.502 1.08-2.54 2.952 3.335 6.085 6.746 8.87 10.523M360.65 69.62c-.23 1.308-.035 2.27-.534 3.5-1.04.188-1.712 1.51-2.94 1.28-.47-1.742.708-3.686-.29-5.146-.18-.512.153-1.038.59-1.135 1.15.753 2.868-.423 3.173 1.5M241.73 71.62c.013.61-.847.968-.57 1.757 1.33 1.093 3.313-.25 4.727.754-3.243 3.218-6.41 5.986-9.668 8.85-3.07 3.113-6.238 5.978-10.396 7.444-.59 1.156-1.303.222-1.982 1.176-.776.208-1.303.298-2.17.492-1.558.387-3.47 1.037-4.885.103 6.743-6.946 15.163-12.972 22.177-19.31.86-.615 1.725-1.16 2.765-1.265M254.716 74.643c.693-.283.797.422 1.15.58-5.06 4.222-9.55 10.234-15.412 13.68-3.73 1.203-6.736 3.106-10.846 2.85-.02-.962 1.282-1.163 1.26-2.2 3.84-4.02 8.13-7.424 12.49-11.437 1.704-1.605 3.77-2.878 5.038-4.808 2.01.042 4.338-1.328 6.424-1.716-.333.782-2.474 2.678-.11 3.05M290.766 70.714c1.17 1.632 2.585 2.65 3.403 4.11.027 1.134-1.387.373-1.9.995-1.566.214-2.453-.637-3.354-1.834-.555-1.3.72-2.816 1.85-3.272M288.07 71.212c-.672 1.148-.47 2.352-.014 3.57.368.608 1.165 1.203 1.095 2.068-2.383 2.58-6.208 3.19-9.624 2.74 1.004-1.847 2.716-3.556 4.435-4.718 1.283-1.24 2.218-2.31 3.5-3.646l.61-.014M236.192 73.737c-7.284 6.275-14.13 12.163-21.955 17.49-3.562 1.024-7.186 2.753-10.95 2.4 0-.172-.09-.255-.18-.33 3.937-3.668 8.13-7.425 12.51-10.476 3.513-3.12 7.726-5.997 11.247-8.69 3.493.174 6.18-.58 9.32-.822l.008.43M365.057 71.44c1.476 3.708 3.99 7.043 5.904 10.66-4.35.27-6.707-3.492-9.812-5.796-3.534-2.09 1.947-2.643.936-5.16 1.136.42 1.83.054 2.973.296M264.764 75.21c.714.68-.492 1.488-.914 2.014-5.89 6.054-12.17 14.12-21.525 13.463l-.007-.436c5.024-5.513 10.437-9.63 15.204-14.873l-.097-.526c1.92.035 3.916-.69 5.732-1.355.104.79.56 1.826 1.35 1.8.09.095.174 0 .257-.084M273.732 74.048c-.236 1.315-1.982 1.176-1.69 2.65.623.34 1.323.58 1.946 1.093-2.633 3.46-7.006 6.774-10.173 9.812-2.93 1.46-6.12 3.355-9.882 2.822 1.088-2.02 2.96-4.06 4.754-5.846 2.543-3.37 6.334-5.81 8.434-9.423 2.184.042 4.43-.968 6.612-1.107M412.77 74.304c1.262 1.543 2.613 3.515 4.04 5.058l.014.43c1.165 1.81 2.856 3.34 4.034 5.153l-.173.16c1.254 1.376 2.688 3.175 3.853 4.62-2.71-.366-5.468-2.566-7.596-4.268l.167-.18c-3.64-2.698-6.162-6.31-8.602-9.997.437-.187 1.123-.727.59-1.246-.72-.927-2.308-1.688-2.253-2.905 1.864 1.272 3.812 2.448 5.918 3.174M398.855 72.526c2.377.983 4.927 1.716 7.47 2.186 3.424 4.975 6.86 10.565 9.945 15.81-1.483.027-2.904-1.15-4.477-1.295-3.27-1.937-5.76-4.054-8.448-7.216-1.885-2.136-4.04-4.96-5.835-7.27-.104-.706 1.206-.81.75-1.674l-1.602-1.446c.956-.11 1.414.837 2.197.906M390.948 74.09l.006.18c1.477-.125 2.897.712 4.72.415 3.66 3.57 6.82 8.392 9.792 12.59 1.074 1.37 2.502 2.817 2.98 4.464-6.126-.65-10.84-4.733-14.97-9.867-1.35-1.8-3.215-3.32-4.393-5.216.75-1.758-1.607-1.875-1.99-3.093l-1.6-1.53c1.94.907 3.445 2.014 5.455 2.056M427.545 75.197c.79.422 1.573.235 2.71.297 8.01 6.96 14.976 14.218 23.528 22.043-3.84-.083-7.894-1.744-11.33-3.23-8.51-6.097-15.76-14.205-22.83-21.89 2.392 1.334 5.303 2.835 7.922 2.78M295.458 77.75c1.164 1.46 1.04 3.653 2.64 5.002-.755 1.245-2.003.297-2.96.498-.713-.85-2.21-1.508-2.16-3.08.685-.794.997-6.378 2.48-2.42M292.034 77.05c-.914 1.772 1.878 5.882-1.968 5.702-2.08.664-3.465 1.044-5.135.463 1.52-2.477 4.014-3.923 5.538-6.123.693-.027.783-.027 1.566-.04M358.598 75.494c2.065 2.49 3.888 6.095 5.877 9.112.013.61.713.85.644 1.55-4.894-.16-8.49-5.037-11.54-8.552 1.303-.366 2.3-2.566 3.715-1.812.25-.623.866-.187 1.303-.298" fill="#a54a00"/><path d="M279.124 77.335c-.506.698-.93 1.32-1.525 2.124.72.94 1.343 1.534 2.563 1.334.27.43.804.948.2 1.217-2.82 2.672-5.924 4.485-9.18 7.176-.86.54-2.073 1.08-3.196 1.46-1.566.2-3.375 1.28-4.88.283 3.397-4.083 7.174-6.878 10.583-10.787 1.36-1.59 2.897-3.19 4.997-2.808h.437M418.744 75.833c2.592-1.28 3.895 2.61 5.58 3.702 4.185 3.84 7.587 7.596 11.08 11.61 2.294 1.7 4.643 4.78 6.77 6.648-1.565-.14-2.806-.893-4.38-1.024-3.873-1.413-6.52-2.907-9.722-5.467-3.943-4.608-9.564-10.322-12.66-16.182 1.15.77 2.265-.138 3.332.713M437.414 75.605c.714.595 1.504.823 2.377.906 2.135 1.862 3.916 3.488 6.307 4.906 4.803 3.986 10.59 9.617 15.648 13.43.27.165.36.594.797.407l-.166.187c1.254 1.62 2.855 3.065 4.63 4.42l-.084.174c.007.18.27.18.444.166l-.167.187c.526.34 1.143.664 1.413 1.19-.838 1.135-1.836-.76-3.14-.38-.886-.68-2.28-.47-3-1.322-1.927-.567-3.437-1.487-5.198-2.408-9.217-6.337-16.64-14.19-25.01-22.028.776-.36 1.032-.54 1.99-.74 1.135.324 2.036 1.348 3.152.89M452.674 74.823c.533.512 1.573.228 2.197.74 1.823-.567 4.103.173 6.016-.13 9.986 5.444 18.808 13.794 28.192 19.765 1.524 1.702 3.36 2.11 4.63 3.826-8.13-.436-16.044-3.217-22.19-8.662-4.083-3.134-8.525-6.53-12.773-9.395-2.585-2.2-4.9-4.24-7.81-5.93.166-.352 1.13-.2 1.74-.214M382.652 77.75c1.747.235 3.673.45 5.225-.54 4.04 5.14 8.878 10.87 13.355 16.002v.256c-1.566.042-2.98-.975-4.373-.767l-.008-.18c-8.08-2.255-10.846-8.986-16.21-14.715l-1.33-.927c.95-.464 1.677.837 2.543.47l.797.402M374.045 79.348c2.114.726 4.013-.173 6.112.04 2.523 3.516 5.475 6.934 7.478 10.635 1.698 2.228 3.216 3.674 4.844 5.902-7.977-1.308-13.71-7.888-18.553-13.872-.887-.85-2.05-2.055-2.69-3.26l-.636-1.202c.978.68 2.378.99 3.445 1.744M355.625 83.222c1.816 3.19 4.733 4.788 6.112 7.977-.866.366-1.843-.395-2.62-.028-.886-.678-2.64-1.066-3.534-2.014-2.377-.906-4.18-3.39-5.967-5.362.32-1.57 2.06-1.515 2.46-3.19.16-.69.14-1.57.48-1.998.65 1.73 2.508 2.808 3.07 4.628M452.3 77.632c5.51 4.663 11.372 9.146 17.394 13.104 1.857 1.53 3.735 3.41 5.6 4.773 2.127 1.784 4.525 3.376 6.403 5.513-1.642.554-3.41-.193-5.24-.055-3.492-.353-6.43-2.553-9.507-3.895-3.27-1.916-6.043-4.92-9.584-7.278-3.944-4.532-10.23-8.745-14.685-12.744 1.83-.38 3.16.637 4.983.243 1.747.138 3.375-1.204 4.637.34M285.05 80.683c-.147 1.315-1.79 2.04-1.845 3.356.797.67 1.67.656 2.55 1.16-4.365 3.66-8.697 9.16-15.093 8l.582-1.233c3.832-4.352 8.13-7.32 12.322-11.063.526-.11.95-.636 1.483-.22M295.61 84.82c1.303-.297 2.606-.678 3.91-.975.18.18.442.34.36.61-2.482 2.15-5.94 3.783-9.343 3.783l-.616-.415-.173.173c-.36-.436-.887-.498-.637-1.12l3.5-3.654c1.046.056 2.12 1.176 3 1.598M373.352 83.457c3.95 5.05 8.427 10.094 11.51 15.43-1.85-.742-3.707-1.835-5.578-3.447-4.31-1.563-5.613-5.19-8.815-7.998-.715-.767-1.442-1.97-2.413-2.476-.374-1.197-1.947-1.17-1.8-2.567 1.863 1.258 4.836 1.542 7.095 1.057" fill="#a54a00"/><path d="M289.325 84.51c.034 1.57-2.765 1.556-1.497 3.514.284 1.134 1.76.58 1.954 1.62-3.597 3.043-7.353 6.69-12.252 6.46l-.534-.512c2.128-2.49 4.602-5.07 7.443-7.056 1.447-1.336 3.34-2.768 4.885-4.027M359.25 85.332c4.213 4.864 8.745 8.69 11.836 14.204.83 2.07 1.76 4.483 1.2 6.85-1.228-.312-1.172-1.703-2.24-2.47-3.32-4.11-7.165-8.462-11.427-11.693 1.565.228 2.895.81 4.44.083l.77-.975-4.844-5.984.256-.014M378.26 100.16c-.078.62.63.85.38 1.562-2.294-1.08-4.15-2.352-6.023-3.97-3.638-2.782-6.264-7.08-9.39-10.337 1.317.325 2.19.297 3.486-.07.256-.27.076-.698.152-1.05l-.533-.5.34-.27c4.206 4.685 8.572 8.954 11.587 14.634M351.183 87.43c1.954 1.687 2.96 3.77 5.253 4.676.18.608 1.49.74 1.427 1.7-.422.444-1.212.202-1.74.57-.172-.527-.692-.257-1.046-.326-1.933-.838-4.303-1.39-5.738-3.017-.708-.512-1.775-1.176-2.225-1.958.852-.892 2.32-1.702 2.287-3.092.873-.187 1.164 1.19 1.78 1.432M295.264 88.736c.45.79-.756 1.33-.742 2.11-.83 1.855-1.213 4.38-3.368 5.39-2.245 1.176-4.407 2.193-7.2 2.068 2.037-2.566 4.255-4.794 6.466-7.54.762-.97 1.538-1.606 2.675-1.46.783.07 1.205-.81 2.17-.568M346.345 89.885c1.477 3.445 7.5 3.583 6.91 8.475.014.512.2 1.646-.742 1.854-1.92.2-3.846-.014-5.01-1.46 1.067-2.906-.922-6.178-1.677-8.855l.52-.015M346.47 95.454c.548 1.204-.208 2.352-.27 3.487-1.663.043-3.486.174-4.907-.836 1.352-1.868 2.35-4.324 2.12-6.504.167-.428.77-1.05 1.214-.63 1.164 1.28 1.545 2.927 1.843 4.484M368.106 106.752c.035 1.743 1.4 4.227.74 5.984-1.066-.837-1.793-2.054-2.597-3.064-3.84-3.84-6.128-8.676-11.408-10.73-.465-1.22-.41-2.61-.873-3.73 1.745.04 4.04 1.135 5.314-.457 3.555 2.782 7.575 7.147 8.822 11.997M346.255 101.466c.388 1.744.264 4.27-.928 5.514-1.476.395-2.717-.456-3.95-1.038-1.865-1.445.09-3.84-.825-5.652-.09-.346-.45-.768-.104-1.038 1.774 1.53 4.622-.014 5.807 2.214M339.526 101.1c.028 1.397.167 3.57-1.206 4.635-1.393.297-1.67-.387-2.806-.616.92-1.6 2.543-3.114 2.065-5.017 1.205-.99 1.752.312 1.946.997M354.1 101.127l.596-.616c.368.77.783-.282 1.144.23 4.088 3.307 7.346 8.904 8.773 13.927-.25.788.042 2.262-.72 3.072-4.082-6.975-10.368-11.19-16.335-16.46l-.014-.782c1.87 1.778 4.38.94 6.556.63M358.307 113.767c-.153 1.038.374 1.12.222 2.16-1.68-.74-3.113-2.72-4.624-3.813-2.474-1.432-4.193-4.172-6.403-5.528-.194-.955.208-2.27.54-3.148 3.216 3.245 8.413 5.652 10.264 10.33M341.08 108.295c-.237 1.05.574 2.255-.37 3.148l-1.12.54c.158-.865-.79-.23-1.152-.665-.457-1.217-.935-3.023-1.926-4.324 1.76.484 4.317-2.172 4.567 1.3M342.818 108.087c1.407.23 2.973.284 4.36-.187 2.944 2.636 4.94 6.082 5.287 10.178-.527-.18-.887-.678-1.33-1.03-3.376-2.713-5.718-5.875-8.906-8.255l-.022-.782.61-.013v.09" fill="#a54a00"/><path d="M357.42 147.8c2.32-1.156 3.936-2.74 3.936-2.74-.74-1.986-1.4-4.15-3.084-5.162l.173-.083h-.346c-1.72-2.663-5.053-3.46-7.45-5.32-.88-.152-1.43-1.446-2.128-1.53-.416.977-.922 1.855-2.142 2.056-3.195-2.89-7.318-3.66-10-6.662-1.504-.837-2.308-1.785-3.555-2.878l.166-.173c-1.773-1.37-3.062-4.56-4.074-6.973l-1.614-1.273c-.32-.297-.66-.81-1.137-.837l.166-.186c-1.676-.824-1.267-2.055-2.854-2.816-.312 1.668-.104 3.142-.07 4.72.098.51.652 1.812-.484 1.743-2.39-1.605-4.096-3.916-5.718-6.324l.077-.084c-.61-.415-.547-1.474-1.247-1.536-.92 1.674-.686 4.54-.65 6.102.11 1.488 1.094 2.34 1.03 3.73h-.51c-3.363-1.917-5.54-5.618-7.54-9.403-.597.795-.826 2.185-.888 3.147-1.29 5.16.415 11.146 3.042 15.366 3.23 4.442 7.27 9.596 12.66 12.253 2.683 3.002 7.125 2.636 10.3 4.31 5.765.138 10.422 1.598 15.925 1.653.727.442 2.32-.125 3.27.2 0 0 2.433-.11 4.755-1.287" fill="#fff"/><path d="M358.293 148.25c-2.78 1.272-4.955 1.514-4.955 1.514-.333.7-1.123.457-1.47.47-.346.097-.602.526-.25.782 2.295 1.004 4.423 2.353 6.363 3.53.625.42 1.048-.202 1.56-.568-.713-.934-2.203-1.163-3.36-2.097-.534-.594.235-1.32.748-1.576 1.233.484 2.384 1.162 3.54 2 2.815.982 4.43 3.133 6.058 5.617 1.123-.456 1.358-1.77 1.857-2.822.146-4.38-3.278-6.863-6.334-9.443 0 0-.978 1.307-3.757 2.58" fill="#ffb30f"/><path d="M329.963 118.036c.395.443.325 1.377.72 1.82 1.622 2.393 3.077 5.244 5.725 6.586-2.89-4.83-4.408-10.274-5.142-16.016l-.57-1.903c-.962-.152-.678.97-1.364 1.335-.97 2.055-1.857 4.096-1.067 6.51l1.698 1.668M349.02 120.063c-3.95-.962-7.047-2.975-8.794-6.863 1.31.048 1.72-1.342 2.135-2.22 3.188 2.095 5.274 5.714 6.66 9.083M333.15 112.91c1.276 2.324 2.114 4.662 3.812 6.447.11 1.135 1.338 1.46 1.878 2.138l-.173.187c2.162 3.08 7.22 2.892 7.588 7.673.797.58.652 1.64 1.185 2.324-.34.352-.415.975-.762.975-4.733-.85-7.54-5.5-9.972-9.03-1.372-2.835-2.655-5.59-3.334-8.71-.45-.608-.554-1.473-.485-2.006h.264" fill="#a54a00"/><path d="M345.16 123.1l-.16.796c-4.47-.865-7.705-5.223-9.715-9.36 1.033-.47 2.627.366 3.382-.866 2.155 2.74 4.075 6.608 6.493 9.43M353.324 113.345c7.02 5.77 11.324 14.827 16.286 22.3-.86.44-2.17.386-3.14.144-5.98-2.125-7.692-8.54-10.506-13.527-2.5-2.65-1.878-5.97-2.993-8.904l.354-.015M354.96 124.193c2.612 3.785 4.158 6.62 6.52 10.662-1.212.636-2.972-.104-4.296-.685-3.118-3.072-4.88-7.472-7.145-11.436.242-.782 1.19-1.322.56-2.36-.374-1.12-1.275-2.234-1.122-3.286 1.885 2.484 4.795 3.632 5.482 7.105M348.28 121.993c1.01 2.422 1.94 4.92 3.644 6.974.562 1.647 1.996 3.53 3.07 4.905l.014.34c-1.303.553-2.287-.637-3.507-.706-2.923-1.854-4.136-5.487-5.688-8.496.506-.88 1.268-1.77.9-2.72-1.233-.407-2.307-1.604-2.418-2.746 1.074 1.128 3.417.623 3.985 2.45" fill="#a54a00"/><path d="M351.66 140.832c.708.333 1.844.644 2.302 1.51-.333.8-.84 1.5-1.712 1.61-2.537-.38-3.03-2.89-5.565-3.016-.353-.34-.277-.768.16-.878 1.67.49 3.16.816 4.816.774"/><path d="M238.79 144.084c1.31.152 2.384 1.26 3.18 1.854.902 1.28 1.457 2.678.625 4.51-1.192 1.163-3.02 1.558-4.206 2.976-3.972 2-8.124 3.743-12.1 5.583-1.055-.152-1.464 1.066-2.517.658-2.155 1.176-4.588 1.667-6.743 2.85-1.504-.927-.423-3.12-.977-4.594.388-2.268 2.53-.144 3.908-.864l.272.34c2.53.027 4.865-.893 7.04-1.294 2.592-1.19 6.536-.665 7.936-4.352l-.41-2.692c-2.134-1.784-4.4-1.556-7.54-1.577-1.37 1.08-6.195.23-4.975 4.04.818 1.46-1.518 2.375-.18 3.82-1.29.298-2.336.838-3.292.52-1.136-.056-1.42-.92-2.723-.56.382-2.43 2.606-4.657 4.145-6.172 5.066-3.868 10.07-5.985 16.542-5.77.52.242 1.663.13 2.023.726" fill="#0a1f62"/><path d="M232.997 150.67c-.215 2.014-2.377 2.754-3.846 3.39-.95.54-1.746-.04-2.515.838-1.317-.408-2.765 1.28-2.814-.893.23-1.66-.054-2.96.694-4.38.693-.096 1.574.23 1.99-.553 2.723.637 5.814-1.702 6.493 1.6M244.473 152.6c-.035 2.353.86 3.28.652 5.46.644 1.563-.54 3.334-.07 4.89-2.12 10.85-13 15.962-22.536 18.874-8.27 1.315-15.22 6.69-20.944 12.39-.423.354-.23 1.233-1.102 1.26-1.788-1.888.104-3.05-1.164-5.12-.063-6.8-.485-14.106 3.77-19.253 1.885-1.528 4.206-2.974 6.202-3.714.596-.45 1.982-1.177 3.112-1.37.942-.637 2.44-.056 3.028-1.107 2.78-.596 5.184-2.554 7.873-3.052l-.09-.18c.797.52 1.905-.823 2.772-.837 3.118-1.28 6.126-2.92 9.154-4.116 3.37-1.653 6.3-3.452 9.045-5.514.45.415-.062.88.29 1.39M281.147 184.716c2.793.11 6.445-.484 8.995.326 1.83-.2 4.193.083 5.953.837l.174-.188c1.96 2.31 1.67 5.106 1.738 7.984.43 3.73 1.92 7.977 2.613 11.796.216 1.73-1.288.463-1.98.816-.88-.235-2.018-.65-3.154-.705-1.768-.74-4.54.096-5.87-.74-.776.442-1.663-.312-2.356-.125-4.02-.173-7.686-.173-10.638.498-4.09.61-7.658 1.03-11.567 1.812-.686.72-1.83.125-2.522.582-5.295 1.245-10.208 4.054-15.406 5.825-.235.88-1.393.214-1.9.65-4.746 2.553-9.673 4.656-14.607 6.594-10.887 4.945-20.596 11.698-29.945 19.308-1.06-.58-1.268-2.248-1.123-3.383-.582-6.593-.194-12.792-.263-19.766-.25-3.647 4.892-3.772 6.583-6.242 2.564-2.58 6.645-3.37 9.293-6.04 5.696-3.002 10.755-7.125 17.09-8.827 1.89-1.176 3.728-1.037 5.62-2.213.346 0 .79.16 1.04-.11l-.09-.174c1.662.055 3.194-1.543 4.947-1.23.686-.624 1.996-.666 2.855-1.295 1.22-.014 2.253-.734 3.736-.692 1.9-1.08 4.872-.706 7.034-1.716.783-.014 1.725-.726 2.605-.567 1.463-.906 4.006-.187 5.032-1.335 1.843.484 3.395-.263 5.135-.72 3.84.166 5.572-.567 9.404-.906.617.422 1.046.152 1.566-.042M461.025 184.433c2.28.636 4.06 2.262 5.932 3.964-2.55 3.106-6.376 3.618-9.917 5.362-1.643.808-3.334-.894-4.928-1.634-1.926-.567-3.603-1.148-5.183-1.716l.082-.18c-.783.014-1.324-.67-1.85-.92-.29-1.294 1.795-1.688 2.564-2.4 2.238-1.19 5.003-2.733 6.528-4.677 2.453.297 4.733.947 6.77 2.2" fill="#0a1f62"/><path d="M212.803 188.757c-.666 1.487-.194 3.058.887 4.42 1.247 1.19 2.84 2.2 4.08 3.135 1.235.408 2.56 1.08 3.855.692.18.525.803.85.644 1.563-1.04.54-2.51 1.003-3.632 1.64-3.88 1.82-7.485 4.78-11.47 5.915-1.677-.567-2.827-1.59-4.255-2.864-1.524-1.8-2.612-3.688-1.698-5.888 2.627-3.37 5.974-6.053 9.065-8.378.7-.014 2.225-2.055 2.523-.235M426.07 186.598c2.882-.07 5.072.4 7.872.61.533.414 1.58.4 2.37.552 4.477 1.294 8.593 1.986 12.66 4.428 5.102 2.07 10.237 5.258 14.34 8.925 1.323.837 2.924 2.36 3.652 3.577-.153.962-.2 2.435-.354 3.584-.38 2.525-.235 5.133-1.06 7.416.02.88.055 2.27-.45 3.148-.063 1.052.325 2.96-.18 3.757-2.003.125-1.88-1.958-3.383-2.892-1.69-1.62-3.555-3.05-5.592-4.31l.173-.11c-.97-.582-2.204-.9-2.917-1.834l-.173.172c-3.09-1.944-6-3.093-9.348-4.497l-.168.173c-1.684-1.01-4.13-1.135-5.807-2.145-.354.014-1.144-.408-1.58-.22-.527-.16-1.137-.327-1.92-.133l.173-.18c-1.94-.823-4.206-.685-6.313-1.08-2.8-.283-6.03-.296-8.83-.594-.24.623-.602.11-.955.028-6.89.152-13.417 1.26-19.57 3.217-2.863.68-5.178 2.637-8.04 3.322-3.86-4.712-5.364-9.548-9.466-13.74-.194-1.135-.298-1.474-.05-2.353 2.912-2.145 6.218-2.92 9.322-4.567 1.74-.297 3.03-1.01 4.692-.782 1.47-.905 2.78-.767 4.248-1.486.354.34 1.22.055 1.74-.312 4.255-.878 10.166-2.04 15.052-1.888 3.056.014 6.805-.152 9.868.214M295.686 207.07c.098.34.707.145 1.06.4.79.326 3.21-.94 2.988 1.06-3.285 5.216-10.735 3.902-16.203 5.16-5.314.458-10.83-.2-16.34-.69-.36-.686-1.476.124-1.934-.74-.86.71-1.323-.762-2.363-.3-.45-.51-.88-.24-1.413-.753-.174-.166-1.213.2-1.054-.58.146-1.398 2.26-.492 3.112-1.46v.158c2.612-.484 4.504-1.23 7.304-1.46 1.29-.54 2.69-.664 4.422-.878 5.474-1.08 10.81-.415 16.14-.353 1.573.138 2.626.284 4.282.436" fill="#0a1f62"/><path d="M408.356 210.342c2.53 3.86 3.66 7.846 2.37 12.48l-1.31.03c-2.973-4.2-8.157-5.826-12.564-7.743-1.92-.042-3.86-.693-5.1-1.703-.195-.78.762-.892 1.1-1.335 3.556-1.03 7.195-2.42 10.584-3.19.686-.193 2.155-.664 3.125-.518l1.79 1.978M450.657 213.15c3.382 2.713 6.833 4.907 9.96 8.15 1.135.576 2.286 1.254 3.006 2.284-.568 1.405-2.585 1.107-3.88 1.647-.188-.51-1.137-.137-1.407-.483-.596.615-.707-.422-1.4-.056.083-.255-.18-.338-.36-.51-.174 0-.264.09-.257.172-1.595-.92-3.438-1.584-4.353-3.473-2.148-2.298-3.88-5.584-3.333-8.552 1.122-.464 1.08 1.46 2.023.823M301.522 218.174c1.614 5.88.325 10.883-.236 16.985-2.426 1.016-5.308.905-7.817 1.826-3.487.083-7.36 2.525-10.91 4.164-5.01 2.297-9.55 6.144-14.206 8.85-3.084 2.594-6.965 4.607-10.41 6.945-2.563 2.13-5.668 3.86-8.696 5.32-2.05 1.703-4.387 2.547-6.625 3.813-3.438 2.594-7.332 3.91-11.047 5.908-1.192 1.162-2.786.228-4.068 1.488-2.003.117-2.314-2.04-3.042-3.598-2.114-4.746-6.022-7.714-9.078-11.824.228-1.487 2.342-.58 3.472-.865.95-.636 2.342-.664 3.284-1.473l-.18-.16c1.4.23 2.162-1.1 3.375-1.383 3.104-1.55 6.118-3.36 9.32-4.738.076-.61.52-.097.77-.45 2.93-1.536 5.044-4.725 8.073-6.012 2.647-2.58 6.098-4.4 9.272-6.74 5.26-3.07 10.75-7.637 16.28-9.947 2.064-1.433 4.053-2.43 6.555-3.62l-.18-.18c2.086-.566 4.248-1.39 6.244-1.777 2.418-1.19 5.274-2.38 8.06-2.546 3.215-.927 6.763-1.875 10.187-1.35.694.257 1.49.665 1.602 1.364" fill="#0a1f62"/><path d="M400.054 217.918c3.444 1.937 6.022 3.88 8.787 6.53-.817 2.713-3.77 3.21-5.75 4.567-2.177.215-3.847-.27-5.947-.664-2.294-1.078-4.67-1.984-7.31-2.89-.542-.755-2.108-.65-2.655-1.592l-.693.028c.083-.194-.097-.277-.097-.353-.527-.07-1.137-.58-1.76-.567 0-.18-.084-.27-.174-.353-1.67-.568-3.527-1.66-5.114-2.484.34-.195.16-.45.16-.72 1.406.677 3.228.283 4.56 1.037.248-.526.52-.09.782-.014 1.566-.034 3.48-.173 4.706.07 1.47-.824 3.395-.416 4.684-1.42 1.49.326 2.675-1.265 4.255-1.133l.34-.353c.187.61.79.166 1.227.325" fill="#0a1f62"/><path d="M379.9 222.11c3.265 1.848 6.53 3.432 9.793 4.85.963.146 2.03.983 2.904 1.15 1.414.663 2.557 1.065 3.97 1.916 1.054.325 2.198.65 3.34.878.604.256 1.928.92 2.8.906 3.175 1.322 7.208 2.187 10.45 2.733 1.408.485 3.425.88 5.178 1.28 3.687.962 6.307.907 10.243 1.335 1.136.056 2.543.56 3.493.097 1.934 1.004 4.706-.186 7.263.796 4.713.506 10.908-.06 15.53 0l.167-.158c.187.595.61-.014.873-.028 8.538-.712 18.046-1.093 25.593-3.092l.63.78-.173.174c2.454 4.477 2.73 9.084 3.188 14.045l.272.257c-.402 1.563.332 3.12-.34 4.442-2.793-.105-5.343-.915-8.385-.334-.097-.518-.88-.152-1.4-.235-.09.098-.174.18-.174.27h-.256c0-.09-.09-.172-.18-.255-.686.45-2.342.58-3.133.325-1.746.042-3.298.865-5.045.637-.777.443-1.657.2-2.613.325-.52.097-1.033.623-1.566.2-.422.706-1.483.028-1.905.65-2.62.07-4.955.907-7.492.693-1.642.373-3.395.332-5.225.373-4.622.014-11.504.692-16.32-.076-1.407-.49-2.8-.207-4.117-.52-.97-.497-2.965-.185-4.372-.684-1.13.284-2.806-.463-4.29-.435-.88-.416-2.016-.47-2.986-.796-1.476.297-2.717-.554-3.937-.443-1.233-.49-2.55-.816-3.943-.865l-.007-.098c-1.31-.228-2.626-.366-3.77-.69-.61-.257-1.413-.935-2.363-.652-.617-.332-1.663-.4-2.377-.996-.436.014-1.317-.484-1.926-.297-2.018-.568-3.446-1.758-5.795-1.702-.714-.595-1.85-.665-2.737-1.246h-.437v-.16c-3.61-1.23-6.534-3.355-10.048-4.49-.284-.865-1.24-.754-1.864-1.19l.173-.16c-.796-.51-1.58-.753-2.55-1.002-1.246-1.446-4.31-1.82-4.628-3.985 1.622-5.7 3.5-11.5 6.528-16.62 1.497.5 2.308 1.786 3.978 2.098M227.26 226.594c1.78 1.702 5.196 2.325 6.562 5.002.575 2.255.61 3.902-1.005 5.687-1.546 1.245-3.244 3.286-5.413 3.867-.935 1.322-3.028 1.28-3.957 2.61-1.9.656-3.36 1.818-4.996 2.628-3.977 1.743-4.864-2.94-8.357-2.94-.354-.167-.45-.692-.797-.506l-.173.18c-.887-.775-1.844-.49-2.98-.72l-.007-.186c-.617-.228-1.4-.055-2.1-.125.076-.524-.61-.06-.79-.414-.256.27-.61.104-.956.2-.18-.172-.187-.51-.45-.608 4.65-2.892 7.705-6.78 12.356-9.59 2.924-1.978 5.592-3.693 8.877-4.987.256-.45.86-.705.845-1.328 1.144.422 2.204 1.004 3.348 1.246" fill="#0a1f62"/><path d="M237.252 236.584c-.243.782.47 1.55.665 2.332.056 2.608-.145 5.396-2.016 7.707-3.02 1.377-5.24 3.77-8.357 4.89-3.61 2.513-7.533 2.783-11.587 4.782-.45-.595-2.19-.297-2.64-1.08-.638-1.376-.763-3.03.512-4.524 1.54-1.258 3.79-2.095 5.593-3.444 2.01.228 3.182-2.25 5.275-2.29.25-.443.776-.36 1.115-.63l-.173-.166c2.26-.4 4.047-2.366 6.21-3.28 1.538-1.515 4.026-3.396 3.97-6.018l.257-.346c.88.498.29 1.563 1.178 2.068M299.748 236.868c-.305 5.832-5.815 9.347-10.11 12.495-.43.097-.61-.07-.798-.512-.312-2.338 1.004-6.205-2.772-6.987-.368-1.038.852-.97 1.365-1.432.776-.442 1.92-.2 2.682-1.01l.097.174c.95-.284 1.815-.65 2.862-.837 1.975-1.093 4.504-1.246 6.667-1.89M375.12 242.783c.97.498 2.023.74 2.737 1.515.776.063 1.33.837 2.37.907.464 1.28 3.243.698 2.84 2.36-3.166 2.337-7.698 2.787-11.066.594-2.487-2.118-4.234-6.172-3.076-9.16 1.303-.3 2.384 1.334 3.36 2.095.964.512 2.024.996 2.828 1.688M296.054 247.488c-.707 3.418-2.384 6.676-1.955 10.066.02.94 1.004 2.228.242 3.293-2.024-.74-3.02 1.46-5.03 1.246l-3.404.16c-1.143-.32-1.843-.39-2.39-1.51-.63-1.12-.396-2.082-.25-3.57.935-1.162 1.947-2.566 3.333-3.216l-.013-.34c2.772-1.28 4.297-3.223 6.972-4.51.685-.623 1.718-1.35 2.494-1.62M481.434 255.174c1.407.485 3.416.623 3.978 2.083-.07 1.05-1.005 2.117-1.955 2.566-3.548 1.218-8.26 1.502-11.545 2.782l-.527-.16c-1.72.824-3.18 2.083-4.643 3.245-1.24-.76.23-1.667.29-2.546 1.616-2.117 2.6-4.933 4.208-7.146 1.83-.215 2.96-.5 4.698-.713 1.4.145 3.583.27 5.06-.27l.353.332.084-.173M475.363 264.715c-1.99.996-2.287 3.286-2.238 5.362.81 1.03 1.62 2.234 2.945 3.085.617.23 1.926.035 1.42 1.093-1.122.38-2.515.568-3.57.512v-.173c-.442-.25-1.135-.055-1.572-.055-.104-.693-.963-.056-1.316-.485-2.107-.312-3.098-1.854-4.422-2.52l.167-.185c-1.158-1.107-.48-1.896-.243-3.3 2.037-2.567 5.426-3.252 8.365-4.442.18.242 1.066.657.463 1.107" fill="#0a1f62"/><path d="M386.7 235.443l-.028-.014-6.868 5.77-.84-.39 1.332-8.32-.035-.015-5.065 6.406-2.432-1.127 8.65-10.48 1.71.795-1.15 8.772 7.138-6.005 1.747.816-4.698 12.296-2.434-1.12 2.973-7.383M393.88 243.82l-2.094 2.125-2.69-.893 10.064-10.363 1.982.663-.007 13.698-2.724-.905.015-2.795-4.546-1.515v-.014zm4.732-5.402l-.034-.014-3.202 3.798 3.11 1.024.126-4.808M406.887 250.442l-2.62-.657 3.742-12.08 2.62.657-3.743 12.08M413.824 238.916l1.933.283 5.648 9.72.035.014 1.53-8.316 2.683.394-2.328 12.606-1.927-.298-5.648-9.713h-.034L414.163 252l-2.682-.41 2.344-12.674M432.84 253.728l-2.724-.083.41-10.39-2.807-.09.075-2.125 8.337.256-.083 2.138-2.808-.097-.402 10.39M441.648 251.245l-1.13 2.642-2.862.014 5.364-12.874 2.114-.014 5.343 12.84-2.904.015-1.08-2.636-4.845.015zm2.315-6.56h-.035l-1.51 4.574 3.305-.015-1.76-4.56M456.236 253.57l-2.717.117-.673-12.51 2.717-.123.672 12.515M458.876 240.645l1.948-.2 8.406 7.935.034-.014-1.074-8.364 2.696-.27 1.636 12.675-1.934.2-8.42-7.935-.035.014 1.095 8.433-2.702.283-1.65-12.758M394.205 202.518l.034-.014.117-9.057 1.546-.394 5.336 7.72h.033l.132-8.89 2.744-.677-.79 13.443-1.927.476-5.08-7.244-.028.014-.13 8.524-1.92.463-8.04-11.27 2.75-.678 5.22 7.583M409.174 192.763l.464 2.712 4.276-.595.36 2.11-4.276.595.57 3.348 4.44-.622.368 2.11-7.13.99-2.122-12.377 7.118-1.003.36 2.11-4.435.623M426.513 199.107l.034.014 4.664-8.04 1.568.3.88 9.055.034.014 4.595-7.88 2.786.51-7.47 11.665-1.962-.366-.886-8.51-.035-.015-4.394 7.555-1.962-.367-1.49-13.31 2.793.51.84 8.864M441.267 206.46l-2.606-.69 3.89-12.01 2.612.677-3.895 12.024M446.32 205.68l3.65 1.092-.747 2.014-6.23-1.868 4.407-11.886 2.578.768-3.66 9.88M453.09 208.232l3.548 1.322-.908 1.958-6.057-2.256 4.97-10.765 2.508.928-4.06 8.8M403.366 179.583h-3.104l-2.627-3.446h-.035l.077 3.39h-2.564l-.056-10.523 3.465.014c2.6 0 4.394 1.052 4.387 3.59 0 1.53-.93 3.045-2.697 3.315l3.153 3.66zm-5.766-5.078h.333c1.414.014 2.412-.38 2.412-1.827.007-1.473-1.026-1.77-2.384-1.77h-.346l-.014 3.597M409.298 179.493h-2.328l-.028-11.934h2.33l.026 11.933M422.168 172.29l.007.298c.04 3.376-1.65 6.386-5.357 6.428-3.493.055-5.732-2.865-5.773-6.158-.042-3.41 2.19-6.35 5.752-6.406 2.03-.028 3.818.982 4.76 2.78l-2.044 1.135c-.492-1.05-1.517-1.874-2.75-1.847-2.253.028-3.334 2.34-3.307 4.31.02 1.972 1.18 4.158 3.43 4.13 1.456-.013 2.662-1.293 2.69-2.74l-2.537.03-.02-1.897 5.148-.062M430.13 170.464l-.166-4.704 2.328-.083.43 11.934-2.335.098-.187-5.34-4.318.15.194 5.335-2.328.083-.43-11.934 2.328-.076.174 4.684 4.31-.146M441.15 177.314l-2.322.138-.603-9.88-2.405.146-.125-2.027 7.13-.428.126 2.013-2.404.145.603 9.894M452.244 168c-.47-.58-1.067-.912-1.843-.877-.74.04-1.42.65-1.378 1.425.117 2 4.795.9 5.024 4.898.132 2.38-1.26 4.15-3.694 4.29-1.65.09-2.903-.79-3.804-2.124l1.42-1.543c.368.89 1.255 1.68 2.253 1.61.95-.055 1.49-.892 1.435-1.812-.07-1.23-1.227-1.515-2.183-1.812-1.566-.554-2.73-1.253-2.834-3.107-.11-1.973 1.268-3.647 3.278-3.77 1.053-.057 2.557.38 3.333 1.147L452.243 168M300.44 272.297l.153 2.685-2.23 1.03-.86-13.068 1.642-.74 9.217 9.256-2.267 1.024-1.878-1.902-3.776 1.715zm-.762-6.503l-.028.014.603 4.49 2.585-1.176-3.16-3.328M301.854 260.24l1.178-1.185 10.36 1.405.022-.014-5.704-5.652 1.63-1.647 8.654 8.55-1.178 1.19-10.36-1.403-.014.028 5.752 5.687-1.63 1.666-8.71-8.627M311.16 249.785l1.942-2.692c2.01-2.795 5.468-3.16 8.22-1.176 2.722 1.944 3.443 5.39 1.454 8.15l-1.926 2.692-9.69-6.975zm9.406 3.888l.22-.298c1.678-2.324 1.04-4.144-.88-5.527-2.106-1.51-3.977-1.21-5.522.92l-.222.31 6.404 4.595M326.11 236.093c-3.022-1.432-4.63-4.877-3.126-8.025 1.504-3.148 5.19-4.068 8.212-2.636 3.098 1.473 4.657 4.89 3.16 8.04-1.497 3.147-5.15 4.095-8.246 2.62zm.956-2.214c1.63.767 4.36.393 5.21-1.39.854-1.786-.567-4.153-2.195-4.92-1.753-.838-4.137-.353-5.017 1.487-.88 1.833.25 4 2.003 4.822M327.045 220.23l.922-2.132 6.147 2.63c1.35.58 3.305 1.272 4.096-.54.77-1.806-1.082-2.74-2.433-3.32l-6.147-2.637.922-2.137 6.57 2.816c2.675 1.147 4.206 3.147 2.945 6.08-1.268 2.94-3.777 3.196-6.46 2.048l-6.57-2.81M344.94 205.513l-.985 2.636-5.53 1.044-.008.02 4.512 1.682-.812 2.172-11.2-4.15 1.103-2.94c.826-2.222 2.378-3.384 4.77-2.492 1.42.526 2.556 1.84 2.25 3.432l5.9-1.405zm-8.054 3.134l.104-.283c.45-1.183.41-2.173-.957-2.67-1.38-.52-1.975.255-2.404 1.418l-.112.297 3.368 1.237M230.502 264.604l.028-.014-2.19-8.835 1.414-.705 7.172 6.42.028-.014-2.134-8.69 2.508-1.21 2.64 13.256-1.753.85-6.79-6.018-.036.027 2.05 8.33-1.76.866-10.693-9.34 2.502-1.218 7.012 6.296M241.763 250.92l1.51 2.4 3.778-1.903 1.158 1.855-3.776 1.902 1.857 2.96 3.914-1.97 1.165 1.847-6.294 3.176-6.847-10.93 6.3-3.176 1.156 1.854-3.923 1.985M259.49 252.31l-2.245 1.363-7.88-10.322 3.05-1.874c2.412-1.488 4.643-1.585 6.424.754 1.676 2.186 1.163 4.082-1.186 5.528l-1.116.67 2.953 3.868v.014zm-4.227-5.542l.458-.283c1.33-.81 1.85-1.516.825-2.865-1.01-1.32-2.016-.99-3.264-.214l-.394.242 2.377 3.12M273.212 244.243l-2.78 1.577-5.862-2.63-.034.015 3.007 4.27-2.293 1.293-7.457-10.565 3.104-1.77c2.33-1.322 4.588-1.31 6.182.947.95 1.335 1.073 3.162-.34 4.296l6.472 2.567zm-9.695-2.484l.298-.167c1.268-.712 1.92-1.563 1.005-2.85-.915-1.308-2.017-1.038-3.236-.34l-.312.18 2.245 3.176M275.527 241.76l-2.343 1.238-7.09-10.793 2.343-1.245 7.09 10.8M284.086 235.27l1.122 1.868-8.89 4.324-.112-11.775-4.567 2.22-1.124-1.868 8.358-4.07.118 11.77 5.094-2.47M284.96 225.418l1.288 2.518 3.922-1.64.984 1.93-3.915 1.627 1.572 3.078 4.075-1.687.99 1.93-6.54 2.72-5.843-11.382 6.55-2.71.99 1.93-4.082 1.688M207.98 225.91l3.305-2.637.99 3.618-6.014 3.19-2.654-13.677 2.668-.512 1.705 10.02M216.968 223.986l-2.682.477-2.384-13.72 2.682-.456 2.384 13.7M218.14 206.89l3.332-.567c2.55-.415 4.775-.955 5.24 1.77.166.99-.34 2.83-1.103 3.516 1.67.012 2.827 1.133 3.083 2.634.45 2.706-1.698 4.027-3.964 5.065l-4.277 1.3-2.314-13.72zm4.607 10.433l.66-.214c1.17-1.025 2.507-.638 2.202-2.423-.306-1.778-1.698-.795-3.043-.567l-.443.083.623 3.12zm-.963-5.175l.326-.055c1.31-.215 1.885-.7 1.65-2.117-.237-1.405-1.103-1.626-2.232-1.446l-.347.07.604 3.562M232.345 202.89l.645 3.004 4.227-1.77.492 2.323-4.228 1.758.79 3.673 4.394-2.13.5 2.31-7.05 2.712-2.938-13.622 7.055-2.297.5 2.312-4.394 1.73M251.59 208.758l-3.25.54-4.262-4.988-.035.013.922 5.542-2.682.45-2.287-13.747 3.632-.61c2.723-.456 4.802.437 5.287 3.384.298 1.744-.38 3.66-2.176 4.27l4.85 5.146zm-7.858-6.31l.346-.055c1.476-.242 2.446-.85 2.17-2.54-.285-1.687-1.415-1.84-2.842-1.61l-.367.054.692 4.15M257.987 206.288l-2.668.526-2.233-11.34-2.758.54-.45-2.31 8.176-1.606.45 2.31-2.75.54 2.23 11.34M266.63 204.296l-2.704.325-1.67-13.822 2.702-.325 1.67 13.823M272.526 191.448l.153 3.065 4.323-.215.118 2.367-4.324.214.188 3.756 4.49-.215.11 2.354-7.2.366-.692-13.92 7.207-.353.11 2.367-4.49.214M287.495 191.26c-.43-.76-1.04-1.272-1.94-1.376-.867-.096-1.767.47-1.87 1.363-.265 2.34 5.335 1.986 4.8 6.62-.318 2.77-2.272 4.54-5.1 4.215-1.905-.23-3.18-1.488-3.943-3.19l1.934-1.5c.25 1.113 1.11 2.165 2.266 2.296 1.102.125 1.892-.726 2.01-1.778.166-1.432-1.11-1.986-2.142-2.546-1.698-.927-2.896-1.986-2.654-4.117.263-2.297 2.183-3.964 4.52-3.687 1.232.13 2.868.94 3.602 1.972l-1.483 1.73M204.992 178.06c-.43-3.313 1.366-6.558 4.477-7.042 3.118-.498 5.66 2.055 6.09 5.348.444 3.397-1.358 6.586-4.47 7.084-3.118.498-5.654-2.013-6.098-5.39zm2.142-.45c.235 1.786 1.892 3.855 3.66 3.57 1.773-.283 2.833-2.773 2.605-4.558-.25-1.917-1.81-3.632-3.633-3.35-1.83.3-2.883 2.437-2.633 4.34M215.374 167.22l2.314-.312.915 6.62c.2 1.46.617 3.502 2.578 3.232 1.962-.284 1.81-2.352 1.602-3.812l-.915-6.62 2.315-.312.977 7.084c.394 2.878-.528 5.23-3.702 5.66-3.174.45-4.705-1.564-5.1-4.456l-.984-7.07M236.122 173.446l-2.78.478-3.685-4.228h-.028l.83 4.74-2.3.394-2.052-11.748 3.105-.54c2.322-.4 4.11.34 4.553 2.85.257 1.502-.305 3.142-1.836 3.682l4.192 4.365v.006zm-6.777-5.348l.298-.055c1.268-.215 2.086-.74 1.836-2.173-.25-1.46-1.22-1.57-2.44-1.363l-.312.05.617 3.54" fill="#fff"/></svg>