<svg xmlns="http://www.w3.org/2000/svg" width="670" height="459" version="1"><path fill="#fff" d="M0 0h670v459H0z"/><path d="M502.473 459H670V0H502.473v459z" fill="#d90026"/><path d="M0 459h166.322V0H0v459z" fill="#0a1f62"/><path d="M286.746 336.374c-1.03 1.39-2.592 2.858-2.471 4.82l-.301.318c.47 7.484-.338 15.618.97 23.24.337 1.576 2.025 2.376 2.507 3.501l-.826.47c-4.55.246-9.582-.776-13.818-.15-.68-.06-.163-.602-.096-.903 1.597.03 2.018-1.33 2.91-2.413.362-.691-.193-1.666.482-2.207-.325-7.72-.042-15.534-.331-21.971-.645-1.649-1.983-3.736-3.664-4.23-.163-.45-.615-.45-.096-.992 5.23-.187 9.045.565 14.734.517M318.793 342.866c1.217 3.465 2.603 7.82 2.073 11.544-.06 4.091-1.953 7.545-3.851 11.004-3.031 3.772-8.786 4.355-12.902 3.531-4.044-.818-7.141-3.7-9.335-6.768-2.7-5.613-2.452-11.533-.68-17.41.367-.307.662-.614.578-1.143.078.072.15-.079.223-.163.428-1.21 1.085-2.292 1.97-3.525 2.013-1.703 3.713-3.796 6.515-4.007 1.199-.776 2.953-.283 4.465-.47 4.34.578 8.588 3.821 10.944 7.407M349.936 337.824c2.151 4.638 3.622 9.235 5.996 13.65.832.06.735-.914 1.109-1.383.976-3.435 2.579-6.72 3.561-10.155-.193-1.962-2.175-2.677-3.344-3.796l.217-.373c4.242-.247 7.972.114 12.757.246l.386.361c-1.043.86-2.248 1.342-3.212 2.268-3.965 6.077-5.159 13.903-8.123 20.635-.91 3.057-1.844 5.5-2.688 8.555-.524.385-.735 1.083-1.187 1.384-.94-1.336-1.03-2.172-1.905-3.814-2.09-5.487-4.429-11.497-6.9-16.9-1.066-.126-.506 1.071-1.18 1.384-2.827 6.197-5.948 12.411-8.769 18.536l-.301.234c-.862-1.203-1.278-2.996-1.693-4.584-2.833-7.899-5.972-16.015-9.022-23.523-.94-1.413-2.567-2.972-4.182-3.772-.235-.53-1.368-.186-1.386-1.034.446-.307 1.284-.175 1.82-.037 1.211-.024 3.188.012 4.17-.234 1.519.12 3.339.072 4.942.409 1.133-.247 3.11-.138 4.628-.163.295-.096.76.199.693.506-.747.692-2.097 1.185-2.224 2.478-.343 1.74.663 2.551.772 3.923.934 1.498 1.205 3.152 1.85 4.879.331 1.432 1.042 2.701 1.603 4.055 1.054-.331 1.404-1.69 1.838-2.611 2.103-4.675 4.495-9.728 6.29-14.09.61-.078.887-1.371 1.58-.782.705 1.04.97 2.63 1.904 3.748M378.795 335.297c4.086 9.68 9.148 18.963 13.228 28.492 1.325 1.565 2.495 2.972 4.41 3.688.32.686.17.909-.505 1.083-1.676.036-3.05-.385-4.628.096l-9.034.127c-.078-.307-.385-.373-.24-.68.891-.692 2.03-.95 2.386-2.021.283-.68-.03-1.366-.35-2.118l.145-.15-.928-1.186-10.016.223c-1.048.553-.79 2.057-.614 3.11-.049 1.366 3.224 1.75.897 2.858-4.254-.283-8.502-.187-12.45-.259-.235-.138-.09-.445-.168-.668 9.19-3.092 9.184-13.77 12.823-20.893 1.802-4.206 2.326-8.002 4.67-11.858l.38.156" fill="#d90026"/><path d="M310.356 342.366c1.127 3.008.217 6.431.59 9.53.007 3.718.368 6.359-.078 10.083-.578 1.456-2.06 3.08-3.724 3.339-2.037.577-3.525-1.589-4.544-3.008-1.422-2.54-.361-6.191-.5-8.85.223-3.724-.928-8.086.73-11.762 1.253-1.774 2.91-2.1 4.742-1.774 1.079.74 2.073 1.179 2.784 2.442M381.646 359.5l-6.912-.259 2.922-9.505 3.99 9.764" fill="#fff"/><path d="M366.803 160.868c.388 1.827 1.303 1.377 2.634 2.491.706.242 1.33.837 1.947 1.252l.173-.173c.887.941 1.767 1.35 3.167 1.322.624.595 1.753.394 2.55.906 5.184 1.633 11.373 1.135 16.764.408l-.18-.166c1.234.408 2.35-.311 3.666-.083 4.006-.332 9.231-.81 12.966-1.847 14.006-2.055 29.502-3.881 44.277-2.719 2.356.124 4.137 1.57 6.5 1.771 1.85 1.003 4.047 1.66 5.392 3.286 1.413.485 1.78 1.702 2.682 2.81 1.206 3.376 2.578 6.226 2.127 9.54-.194 2.878-1.517 6.054-4.11 7.416-1.44-2.241-4.095-3.742-6.472-4.566-.617-.256-1.67-.58-2.287-.906l-.61.014.173-.097c-.79-.16-1.503-.754-2.196-.47l.173-.173c-.444-.256-1.137-.07-1.573-.056-.624-.512-1.663-.311-2.37-.733l-2.357.041-.006-.159c-9.328.38-18.857-.11-27.984 1.218v-.18c-10.728.408-22.031 2.504-31.692-.256-1.115.81-1.933-.74-3.319-.187-.797-.408-1.843-.394-2.543-.553-.527-.166-.97-.408-1.58-.312v-.18c-1.144-.31-2.384-1.162-3.514-.968-1.94-1.26-4.49-1.73-6.182-3.176-7.671-3.743-8.447-11.07-10.79-18.853l4.574 4.352" fill="#0a1f62"/><path d="M361.917 154.898c-.52.014-.63-.865-1.316-.581-.215.31-.097.65.062 1.01 0 0-1.06.54-2.37.54s-1.684-.333-1.684-.333c-3.618-1.743-5.87-4.919-10.063-5.175-.984-.948-2.092.035-3.16-.72-2.342.485-4.553-.594-6.736-.636-1.4-.228-3.146-.623-4.553-.67-.367-.79-1.13-.167-1.573-.582-.714-.519-2.01-.138-2.55-.906-10.908-3.854-20.208-13.754-22.558-25.377-1.122.366-1.711 1.335-2.3 2.31-.146 1.391-.818 2.636-1.227 3.944-.95.463-1.074-1.107-1.608-1.53-.326-3.05-1.524-5.804-.977-9.131-.97-.499-.852.892-1.538 1.335-.596.892.228 2.705-1.158 3.175-2.079-3.265-.824-5.915-1.427-9.388-1.13.028-.215 1.93-1.705 1.605-1.456-2.498-.922-5.901-.714-8.35.755-1.578 1.767-3.08 2.162-4.92-.887-.588-1.386.56-2.079.83-1.469.374-3.278 1.55-4.692.893.146-1.487 1.872-2.408 2.274-3.798-.534-.595-1.13.187-1.733.373-1.732.83-3.735 1.135-5.738 1.1-.617-.518-1.33-.85-.825-1.73 1.123-.546 1.539-1.341 2.128-2.573-2.072.83-4.664 2.096-7.208 1.384-.61.09-1.136.028-1.587-.581-.194-1.045.846-1.329 1.262-2.207-.804-.671-1.56.477-2.35.408l-4.712-.07c-1.497-.497-.298-1.563.035-2.365.34-.346.859-.54.935-1.149-1.573.042-2.689.678-4.158 1.412-1.303.36-2.183.131-3.306.67-.63-1.023-2.349.229-2.55-1.065l1.109-1.259c-1.414-.74-2.696.678-4.089.706-1.83.131-4.005.622-5.856-.215-.097-.436.153-1.141-.457-1.204-3.216.851-6.41 2.484-10.16 2.387-.353-.242-.97-.401-1.157-.754-.263-.595.513-.706.5-1.231-1.484.041-2.766 1.107-4.242 1.487-1.733.823-4.096.353-5.821 1.26-.88-.582-2.946.594-2.987-1.232-1.33-.851-2.336.92-3.736.865-2.869.664-6.403 2.483-8.974.72.256-.27-.014-.61-.277-.79-3.985 1.488-8.587 2.54-12.87 2.477-.783-.166-.63-1.12-1.074-1.556-1.912.567-3.548 1.473-5.46 1.868-2.766.85-6.251 1.266-9.148.456-.374-1.038.921-1.404.908-2.38-3.992 1.059-8.04 3.404-12.495 3.245-2.017-.394-3.57.436-5.163-.498-.09-.256.076-.609-.194-.775.513-.713 1.455-1.252 2.321-1.619 3.257-2.677 5.842-4.227 9.28-6.918 6.015-3.958 12.37-8.89 17.928-14.066 1.545-.989 3.167-2.511 4.096-3.84-.264-.511-1.67-.74-.991-1.715 3.54-1.903 6.458-3.632 9.632-6.137 1.04-.373 1.719-1.349 2.765-1.46 3.334-3.037 8.275-4.614 11.976-6.89 4.85-1.758 9.418-4.47 14.463-5.362.325-.782.963.242 1.476-.298 4.151-1.84 8.607-1.404 12.516-2.442 2.37.63 5.301-.99 7.935-.097l.52-.27c7.061-.069 13.61-.041 21.04.581.886.685 2.189.388 3.16.637 2.016.567 4.386 1.038 6.146 1.861 3.971 2 7.104 5.341 6.5 9.88-.79 3.77-1.205 8.468 2.17 11.104.457.948.998 1.812 1.462 2.92.222 2.193.25 3.403.554 5.313.354.339.285 1.12.97.754 1.359-1.847 3.82-1.294 5.628-2.297 2.509-.484 4.768-1.232 7.401-.768 1.636-.733 3.14.284 4.789-.097 1.407.484 3.25.782 4.47.851 2.023.65 3.936.18 5.786 1.093 2.26-.311 4.124.948 6.05 1.176 2.176-.131 4.685 2.85 6.286.111 3.368-5.376 3.042-12.26.998-18.05-.52-3.812 1.732-8.49 5.44-10.489 4.137-2.449 8.933-2.2 13.257-4.296 2.876-.152 4.997-2.719 7.623-2.435 3.639-1.121 7.055-.768 11.165-.499.79.243 1.58.665 2.543.713 2.114.92 4.297.789 6.154 2.041l.173-.16c4.734 1.108 9.945 3.605 14.851 4.72 2.204.899 4.498 1.902 6.778 2.47.624.85 2.1.47 2.897 1.245.527-.194.97.242 1.407.387 1.22-.104 2.37.65 3.34.892 3.5.353 6.937 2.11 10.09 2.491 1.51 1.176 4.616-.38 5.024 2.325 9.086 4.144 16.799 9.727 25.635 14.508.693-.014 1.233.581 1.587.92-.513.27-.326.962-.146 1.218 5.226 3.362 10.292 7.527 15.863 10.986 5.69 4.74 11.366 8.807 17.644 12.765-.152.865 1.504.664.735 1.543-1.213.027-2.89-.54-4.276-.07-.963-.159-2.35-.041-3.5-.54-.859.54-1.76-.663-2.62-.2-.63-.85-1.392.38-1.933-.47-1.663-.409-3.18-1.682-4.92-1.46.735 1.716 3.028 2.795 3.763 4.442l-.513.525c-2.703-.027-5.676-.214-7.949-.346-.45-.678-1.58-.394-2.287-.733-1.24-.837-2.896-.975-4.047-1.557-.838 1.412 3.375 2.45.95 3.543l-.264-.34c-.346.18-1.04.637-1.573.208-1.76-.65-3.77-.961-5.523-1.612-2.467-1.08-4.671-1.902-6.882-3.431-1.711 1.702-3.049.339-4.975.11-2.01-.041-4.117-.775-5.884-1.785-.963-.069-2.03-1.003-2.807-.54.728 1.364 3.34 1.308 2.862 3.245-1.04.187-2.093-.041-3.146-.11-1.143-.581-2.363-.47-3.604-1.308-5.26-1.19-9.778-4.317-14.47-7.084-1.92-.409-3.513-1.405-5.114-2.512-2.377-1.065-3.382-3.148-5.42-4.324l-.249.353c1.345 1.806 2.883 4.117 3.541 6.199.27.436 1.054.408.811 1.107-.769.892-1.483.214-2.356.055-1.864-1.176-4.317-1.826-5.995-2.566-.353-.243-.803-.948-1.42-.92-.575 1.39 1.448 2.227 1.913 3.431.097.436.367.789.547 1.204-1.296.65-2.62-.284-3.666-.173-1.76-.567-3.7-1.398-5.024-2.152-.43.18-.804-.768-1.137.028.298 1.377 1.961 1.785 2.599 2.989-.492.968-1.719.726-2.689.85-.45-.705-1.47.028-1.836-.76-1.047.11-2.107-.47-3.154-.443-1.76-.747-3.52-1.329-5.114-2.422-.437.194-.423.796-.152.976 1.767 1.259 2.425 3.258 4.365 4.158.014.609.035 1.57-.748 1.584-3.77-.782-7.734-2.352-10.922-4.282-.173 0-.436-.083-.52.09 1.352 1.978 3.23 4.11 3.895 6.365-1.725 1.003-3.25-.88-4.83-1.28-1.587-.837-2.82-1.419-4.325-2.256.569 1.986 2.093 4.04 3.098 6.026.54.768-.845 1.239-1.379.81a34.83 34.83 0 0 0-6.708-3.418c-.042 2.172 1.753 4.144.485 6.254-.236.962.755 2.595-.72 2.795-.638-1.632-2.516-3.59-3.674-4.621-.43.45.021 1.217.298 1.743.388 1.993.7 4.262 1.095 6.068-.332.878-.478 1.937-1.08 2.56-1.775-1.356-2.967-4.207-4.921-5.556.672 2.594 2.321 6.393.637 9.132.097.436-.069.865-.409 1.232l-.7.014c-1.17-1.64-1.836-4.151-3.86-5.058-.43.45.021 1.218-.228 1.668-.125 2.269 2.093 3.86 2.924 5.943 3.244 4.455 5.718 9.713 9.903 13.54-.062 1.307-1.725.995-2.501 1.459-.61.187-1.49-.228-1.913.38-1.76-.83-3.417-.622-5.018-1.895-2.578 1.716-4.56-.934-7.235.256 5.822 2.746 5.01 9.727 10.922 12.474 1.608 1.799 3.063 4.462 2.682 6.821-.312 1.84-1.504 3.176-3.049 4.165l-4.463-4.607"/><path d="M360.996 156.475c.16.367.034-.387 0 0 .034 1.667 1.469 3.37.894 5.03-1.76 3.19-4.567 6.469-5.447 10.322-1.262 2.2-2.44 4.151-2.994 6.607-1.248 2.892-1.795 5.701-2.343 8.58-1.08 2.462-1.448 5.61-2.169 8.502-2.488 9.728-4.532 20.147-8.593 29.812-.464 2.809-1.982 5.189-2.62 7.9-4.005 8.192-7.505 15.754-12.66 23.62-4.72 7.43-10.687 14.093-17.991 19.054-1.476.636-2.932 1.716-4.671 2.013-1.365 1.08-2.523.056-4.262.45-2.717-.637-5.808-2.055-7.942-4.096-2.516-3.002-5.385-6.676-5.212-10.689 2.89.457 4.713.242 7.229-.692 1.905-.2 3.354-1.985 5.086-2.456.86-.795 2.322-1.702 3.257-2.677 2.724-3.203 6.314-6.51 8.587-10.565.506-.622 1.531-1.598 1.774-2.566 3.215-4.421 5.89-9.977 8.836-14.924 5.468-13.36 11.705-27.265 17-40.362.852-1.149 1.33-2.996 1.912-4.31.18.083.263-.014.34-.09v-.533c.166.083.166-.076.249-.173-.27-.609.513-.443.506-.892l-.18-.16.422-.525-.09-.083.09-.014c.749-1.757 1.58-3.432 2.419-5.106l-.18-.166c.589-.969 1.358-1.847 1.684-2.996.173 0 .256-.097.34-.18.076-.622.852-1.162 1.011-1.847 2.745-6.081 6.39-11.042 11.172-15.677l4.539-.097" fill="#0a1f62"/><path d="M385.57 43.794c1.663.228 3.063.54 4.733 1.03 6.584 1.786 12.925 4.242 19.425 6.283 3.708 1.84 8.094 2.78 11.871 4.012.347-.173.797.498 1.407.229 3.424 1.231 7.277 1.757 10.444 2.905.547 1.031-.964.111-1.116.81-1.296.38-2.509 1.017-3.895 1.217-5.468 1.599-9.5.81-14.754-.117-.533-.422-1.497-.574-2.204-.906-1.573-.139-2.896-.803-4.386-1.031-.097-.61-.874-.16-1.317-.242-.437-.07-1.24-1.01-2.197-.637-.187-.609-1.046.014-1.4-.401-2.467-1.163-5.26-1.37-7.893-2.013-.534-.326-1.324-.568-1.94-.907-2.024-.747-4.297-.775-6.155-1.868-1.406-.401-4.352.526-4.58-1.82-.874-.055-1.11 1.066-2.08.658-.408 1.058-1.462.99-2.32 1.446-1.394.38-2.877.152-4.194-.173l-2.183-.125c-2.065 1.356-4.719 3.757-7.373 2.166-1.033.54-2.204-1.003-3.14.242.375 1.038 1.026 3.023.278 4.525-.839 1.584-2.495 1.626-3.625 2 .839 2.338.728 5.126-1.067 6.904-.34.256-.866.27-.943.802 1.775 1.446.784 3.73.472 5.66-.984 2.539-5.8 2.124-4.588 5.756-.825 1.674-3.16 2.691-2.412 5.03-.866 4.185-6.736 3.265-6.459 7.887.201 1.217-.644 2.539-1.136 3.77-1.47.734-2.322 1.799-4.061 1.917-.652 2.193-.499 5.07-3.188 5.735 1.067 1.024-1.386 4.47 1.047 4.061.256-.429.062-1.294.762-1.224.644 1.73 2.883 4.296 1.261 5.728-2.516.74-3.098-1.771-4.345-2.878l-.11-5.133-.784.013c-2.737 2.498-3.978 5.833-4.948 9.347-.977-.85-2.232-2.297-2.176-3.874-.18-.256-.444-.34-.797-.325-1.442 1.847-1.476 4.213-1.51 6.648-2.01-.477-2.579-2.463-3.757-4.012-.81-1.287-.922-2.595-1.83-3.882-1.372.554-1.337 2.297-1.92 3.529-.401 1.757.25 3.307-.325 4.974l-.527.014c-2.134-1.868-3.86-4.801-4.885-7.735-.867.194-1.719 1.086-1.955 2.138.278.768-.499 1.231-.575 1.84-.734 2.104.555 5.293-2.127 6.324-1.102 1.577-1.76 2.906-2.509 4.58-.263.09-.353-.166-.534-.242-.152-3.058-.575-6.351.146-9.423.589-.969.735-2.104 1.677-2.92-.194-.865-1.053-.228-1.393-.048-1.448 1.688-3.243 3.563-4.511 5.237l-.27-.332c-.527-4.179 1.468-8.662 4.095-12.121l-.444-.505c-2.231 1.965-4.372 3.84-5.883 6.392l-.61.014c-.471-5.472 2.21-10.42 5.98-13.726.167-.353-.187-.512-.277-.775-.686.72-.97-.318-1.746.042-2.231 1.785-4.456 3.84-7.318 4.69.485-1.757 1.94-3.272 2.862-4.946 1.622-1.419 1.927-3.702 4.553-3.065.423-.61 2.086-.65 1.539-1.771-.888-.595-1.65.65-2.523.678l-1.393.02c.977-3.251 3.645-4.78 6.12-7.458-.042-2-2.745-1.764-3.396-3.577-.659-2.255-2.183-4.137-2.502-6.49-1.712-2.656-6.216-5.077-3.673-8.537 1.206-.636-.208-1.646-.229-2.525-.2-1.384-.16-3.217.243-4.704-.811-1.121-2.544-.298-3.34-1.149-2.98-.72-1.636-6.932-5.773-4.483-.797-.595-2.003.034-2.973-.38-2.953.511-5.323-3.799-8.053-1.045-2.578 1.722-6.688 1.543-10 1.626-1.24-.838-2.994-1.246-4.408-1.827-2.051 1.785-4.733 2.809-7.519 3.3-2.342.484-4.546-.505-6.91-.802-4.587 1.757-8.426 5.853-13.187 7.527-2.502 1.273-4.824 2.719-7.589 3.826-3.111 1.619-6.14 2.747-9.529 3.431-1.822.38-3.049.229-4.975-.159-1.137.028-2.966.242-3.514-.878 5.412-4.04 11.601-8.095 17.817-11.367 10.888-4.781 21.338-9.873 33.21-9.97 9.764-.394 18.745-.934 28.634.325.624.865 1.553-.54 2.01.568 4.643.767 9.82 1.785 11.844 6.62 2.8 4.2-3.285 9.306 1.164 13.132 1.989 3.272 4.082 6.96 3.909 11.07.367.947 1.004 2.158 1.891 2.663 1.775-2.49 5.593-3.784 8.289-4.11 1.116-.809 2.696-.58 4.082-.864 3.402.013 7.158.096 10.492.81.95-.381 2.023.65 2.973.283.104.609.963.055 1.317.408 4.476.94 8.06 1.39 11.87 3.833 1.38-.824 2.198-2.754 3.306-4.172 2.856-5.106 2.897-11.125.77-16.66-1.29-2.933.561-6.019 2.342-8.33 1.94-3.175 5.274-2.47 8.212-3.75.88.416 2.086-.22 2.862-.58 2.876-.409 5.905-1.613 8.58-2.976 1.663.388 2.751-1.556 4.165-.878 3.728-1.121 8.018-.353 11.525.173" fill="#a54a00"/><path d="M260.107 53.957c-.235 1.135-1.711 1.432-2.3 2.58-1.892 1.177-4.408 1.84-6.605 1.364-.797-.499-1.24-1.107-1.954-1.702 1.026-.81 2.696-.402 3.902-1.038 2.363.117 4.442-4.366 6.957-1.19M280.364 54.31c1.38-.823 2.633.712 3.922-.27.18.256.97.595.458 1.12-1.892 1.177-4.061 1.661-6.23 2.325-2.613.312-1.982-2.76-3.396-3.673l.326-1.149c1.407.754 3.333.81 4.92 1.647M274.085 54.441c.458.948 1.262 1.972 1.282 2.76.527.34 1.504 1.19.638 1.717-1.268 1.529-3.555.608-5.468.906-.533-.422-1.58-.311-1.684-1.176-.77-3.03 2.994-2.85 3.902-5.134l.77-.622c.955.228.013 1.037.553 1.55" fill="#a54a00"/><path d="M400.629 50.09c-.596.546-1.476.297-2.072.83.242-.789 1.296-.464 1.725-.83l.18.18.167-.18"/><path d="M270.918 53.376c-.582 1.231-2.224 2.055-3.084 2.767-1.462.99-2.501 1.356-4.234 1.84-1.31-.069-1.85-.92-2.405-2.04-.277-.768.416-1.232.576-1.84 2.73 1.072 6.112.297 8.62-.713l.527-.014M247.848 56.226c-1.428 2.297-3.673 3.66-5.988 5.459-6.264 4.919-14.393 8.323-22.134 9.458-1.386.553-2.952.408-4.36.27.853-.983 2.828-2.318 4.027-3.578 2.516-.664 4.144-1.999 6.66-2.677a151.445 151.445 0 0 0 16.279-9.769c1.573.055 4.026.353 5.516.837M383.255 53.874c-.048 1.653-.173 3.826-2.072 4.746-1.213.637-2.44.311-3.66.429.146-1.308 1.158-3.079-.346-4.269l-.547-.85c1.92-.042 3.444-2.16 5.308-.824.437-.173 1.137.325 1.317.768M373.49 54.095c.021.941-.221 1.903-.997 2.36-1.56.38-3.909.878-5.066-.146l-.187-.512c2.086-.567 4.026-3.666 6.25-1.702M395.147 58.662c1.428 1.363 1.99 3.189 3.5 4.282l-.083.173c2.772 2.989 5.391 7.112 7.727 10.025-9.086-.242-15.898-8.44-22.676-14.833.056-1.66 1.775-2.823.86-4.553.693.063 1.67.312 2.536.374 3.174 1.418 6.57 1.086 8.13 4.532" fill="#a54a00"/><path d="M376.678 56.282c-.325 1.231-.11 3.05-1.67 3.604-1.199.734-3.278 1.474-4.698.547-.187-.61-.201-1.315-.305-2 .852-1.058 2.01.035 2.945-.858 1.29-.795 1.788-2.117 1.934-3.521l1.788 2.228M260.267 57.271c.72.85 1.434 1.619 2.314 1.958 1.927.387 3.216-.692 4.775-1.072.901 1.113-.748 1.68-.817 2.546-5.496 4.13-9.3 9.526-16.252 10.903-.249.623-1.053-.055-1.295.637l-5.67.297c5.115-5.424 11.13-9.824 16.508-15.435l.61-.014-.173.18M284.349 56.738c-.388 2.366-.52 4.366.402 6.531-1.012 1.592-3.382 1.024-4.948 1.239-1.684-1.266-2.322-2.387-1.844-4.4-.062-2.789 3.382-1.121 4.657-2.72.79.243 1.116-.712 1.733-.65M288.313 58.662l2.204.906c-.236 1.052.769 3.376-.7 3.93-.43.11-.873-.153-1.13.283-1.22-.138-2.467-1.065-3.188-2.096-.29-1.564-.16-3.487.423-4.712 1.053.146 1.51 1.35 2.39 1.675M255.603 59.374c-6.147 6.234-12.661 11.61-21.02 12.84-1.822.118-3.818.686-5.398.298 3.937-3.41 9.023-6.22 12.876-9.526 2.412-1.446 5.087-2.99 7.138-4.864 1.442 1.792 4.47.865 6.404 1.252M366.034 56.337c.194.955-.042 2.186-.72 2.982-1.047.194-2.336 1.176-2.967.055 1.199-1.065-.395-2.082.007-3.473 1.393-.297 2.37.554 3.68.436M406.61 59.81c.693-.194.79.325.977.754 2.39 1.688 3.686 5.071 5.994 6.932 1.102 2.498 4.02 3.916 5.122 6.51-1.303.284-2.98-.373-4.38-.525-1.67-.74-3.52-1.488-4.941-2.58-1.234-.499-2.038-1.267-3.008-1.848-4.013-3.923-7.852-7.68-11.095-12.3 1.136-.029 2.453.463 3.77.69 2.204 1.094 5.343.935 7.56 2.367M369.09 60.633c.11.962-.118 2.353-.887 3.321-1.109.893-3.119.948-4.352.27.062-.955-.132-1.916-.582-2.684 1.822-.395 3.631-1.474 3.846-3.473.083-.353.686-.54.956-.208.97.505.742 1.813 1.019 2.774M276.393 60.322c.915 1.889-1.51 2.809-2.273 3.798-5.669 4.214-10.166 9.887-18.295 9.361l-.354-.339c3.48-4.345 8.358-8.634 13.07-12.66 2.724.816 5.26.85 7.852-.16M392.237 69.268l.977.595-.174.173c.978.85 2.481 1.688 2.863 3.161-7.658.948-13.285-4.85-18.109-9.886l.111-2.705c1.67.484 3.299-.851 4.948-1.322l9.377 9.984M362.7 63.726c-.401 1.487-.984 2.636-2.453 3.362l-2.01-.117c.486-1.84 1.075-2.636.506-4.719.86-.636 1.622-1.605 2.849-1.46.63.948.741 1.986 1.108 2.934M376.52 60.806c-.223 1.937.09 4.193-2.156 5.19-1.227-.132-2.26.58-3.237-.174l-.7.014c-.173-.436-.88-.422-1.233-.775.499-.955.825-1.916 1.067-3.065.416-.782.963.34 1.573.139 1.837.228 3.119-.851 4.685-1.315M454.58 70.333c1.51 1.107 3.368 2.283 4.774 2.788l.714.754c-7.845.526-15.495-2.186-22.128-6.136-1.26-1.62-2.57-1.688-3.998-3.038-1.587-.92-3.174-1.674-4.685-2.864-.02-.962 1.31-.028 1.552-.823 2.273.297 3.694-2.774 5.829-.906 5.828 3.189 12.28 6.793 17.942 10.225M412.14 61.256c.963.242 1.677.996 2.716.713.54.608 2.183.138 2.987.892 4.179-.083 5.787 5.106 8.794 6.863 1.58.837 2.578 2.394 4.339 3.217.27.436.707.34.81.948-2.259.401-4.005.097-6.195-.2l-.007-.194c-5.613-1.35-9.98-5.528-13.666-10.15-1.06-.58-1.344-1.875-2.148-2.47.256-.27.693-.186.963-.027.36.609.873.069 1.407.408M279.304 65.566c.88.325 2.093-.041 2.89.457-1.705 1.688-3.34 3.044-5.399 4.65-3.354 2.082-6.992 3.555-11.095 3.202 2.814-3.016 6.514-5.362 9.238-8.475 1.04-.2 1.261-1.944 2.502-1.363.533.692 1.074 1.19 1.864 1.53M290.981 64.701c-.492 1.405-.81 2.892-.866 4.456-1.026.892-1.99.65-3.306.512-.443-.512-1.227-.498-1.76-.913-.548-.962-1.365-2.505-.34-3.57.728-2.636 2.62.283 3.916-.256.693-.284 1.746-.139 2.356-.229M430.449 64.508c3.008 1.68 4.886 3.909 7.623 5.154 2.772 3.238 7.914 2.781 10.693 6.04-6.881.754-14.685-1.086-19.771-5.853-2.301-1.675-5.233-3.971-7.041-6.718 1.296-.47 3.049-.415 4.691-.893 1.317.312 2.481 1.612 3.805 2.27M379.464 67.808c2.156 2.823 5.253 4.85 7.596 7.928-.763 1.343-2.606.851-3.826.79-3.686-.88-6.258-2.824-8.863-6.082-1.06-.581-1.961-1.785-2.592-2.81 1.83-.22 4.54-.096 5.267-2.476 1.15.581 1.531 1.972 2.418 2.65M368.099 67.102c.11 1.045-.215 2-1.164 2.56-1.476.284-3.306.318-4.879.27-2.488-1.951 1.164-2.463 1.303-4.297 1.684 1.183 4.414-1.411 4.74 1.467M283.018 67.739c.54.961 1.366 2.594 2.682 2.905-.824 2.124-2.903 2.85-4.622 4.207-2.065 1.349-4.4 2.186-7.041 1.197.561-2.103 2.91-2.595 4.186-4.186l4.442-4.283h.52l-.167.16M208.88 70.16c2.183-.041 3.57-.595 5.503-.028.02 1.038-1.04.54-1.546 1.163-6.597 5.714-11.448 11.325-18.753 16.445-1.815.92-3.264 2.608-5.35 2.906-2.654 2.144-6.3 3.092-9.59 4.483-2.35.041-5.302.81-7.59.166 1.699-2.297 5.074-3.695 7.125-5.652 9.21-5.604 18.482-12.689 26.085-20.175 1.407.581 2.786-.242 4.116.692M230.093 70.132c-1.892 1.53-3.707 2.083-5.066 4.027l-.173-.16c-5.676 4.117-11.067 8.684-16.383 13.077-.873.097-1.462 1.08-2.148 1.612-3.867 2.525-7.74 4.877-12.613 5.59-1.815.906-3.659.436-5.745.65.485-1.584 2.051-2.055 3.07-3.203a365.144 365.144 0 0 0 21.24-18.244c3.223-.16 6.259-1.176 9.405-1.162.416-.623 1.476-.028 1.989-.485 2.17-.65 4.248-1.307 6.41-2.054l.014.352M378.466 78.026c-2.682.927-5.509-.49-7.81-2.006-1.774-1.093-2.342-3.348-3.68-4.538-.11-.955 1.026-.893 1.539-1.433.332-.781 1.102-1.5 1.08-2.539 2.953 3.335 6.086 6.746 8.871 10.523M360.65 69.62c-.23 1.308-.035 2.27-.534 3.501-1.04.187-1.712 1.508-2.939 1.28-.471-1.743.707-3.687-.29-5.147-.181-.512.152-1.038.588-1.135 1.15.754 2.87-.422 3.174 1.501M241.729 71.62c.014.609-.846.968-.568 1.757 1.33 1.093 3.312-.249 4.726.754-3.243 3.217-6.41 5.985-9.668 8.849-3.07 3.113-6.237 5.978-10.395 7.444-.589 1.156-1.303.222-1.982 1.176-.776.208-1.303.298-2.169.492-1.56.387-3.472 1.037-4.886.103 6.743-6.946 15.163-12.972 22.177-19.309.859-.616 1.725-1.162 2.765-1.266M254.716 74.643c.693-.283.797.422 1.15.581-5.059 4.22-9.55 10.233-15.412 13.678-3.729 1.204-6.736 3.107-10.846 2.85-.02-.961 1.282-1.162 1.261-2.2 3.84-4.019 8.13-7.423 12.488-11.436 1.705-1.605 3.77-2.878 5.039-4.808 2.01.042 4.338-1.328 6.424-1.716-.333.782-2.474 2.678-.111 3.051M290.766 70.714c1.171 1.632 2.585 2.65 3.403 4.11.028 1.134-1.386.373-1.899.995-1.566.215-2.453-.636-3.354-1.833-.555-1.3.72-2.816 1.85-3.272M288.07 71.212c-.672 1.148-.47 2.352-.014 3.57.368.608 1.165 1.203 1.095 2.068-2.384 2.58-6.209 3.19-9.625 2.74 1.004-1.847 2.716-3.556 4.435-4.718 1.282-1.239 2.217-2.311 3.5-3.646l.61-.014M236.192 73.737c-7.284 6.275-14.13 12.163-21.955 17.49-3.562 1.024-7.186 2.753-10.95 2.4 0-.172-.09-.255-.18-.331 3.937-3.667 8.13-7.424 12.51-10.475 3.513-3.12 7.726-5.998 11.247-8.69 3.493.173 6.181-.58 9.32-.823l.008.429M365.057 71.44c1.476 3.708 3.991 7.043 5.904 10.661-4.352.27-6.708-3.493-9.813-5.797-3.534-2.09 1.947-2.643.936-5.161 1.136.422 1.83.055 2.973.297M264.764 75.21c.714.679-.492 1.488-.914 2.014-5.89 6.054-12.17 14.12-21.525 13.463l-.007-.436c5.024-5.514 10.437-9.63 15.204-14.874l-.097-.526c1.92.034 3.916-.692 5.732-1.356.104.789.561 1.826 1.351 1.799.09.096.173 0 .256-.083M273.732 74.048c-.236 1.315-1.982 1.176-1.691 2.65.624.34 1.324.581 1.947 1.093-2.633 3.46-7.006 6.773-10.173 9.81-2.931 1.46-6.12 3.356-9.882 2.823 1.088-2.02 2.959-4.06 4.754-5.846 2.543-3.37 6.334-5.811 8.434-9.423 2.183.042 4.428-.968 6.611-1.107M412.77 74.304c1.262 1.543 2.613 3.515 4.04 5.058l.014.429c1.165 1.812 2.856 3.341 4.034 5.154l-.173.159c1.254 1.377 2.688 3.176 3.853 4.622-2.71-.367-5.468-2.567-7.596-4.27l.167-.179c-3.639-2.698-6.161-6.31-8.6-9.997.436-.187 1.122-.727.588-1.246-.72-.927-2.307-1.688-2.252-2.905 1.864 1.273 3.812 2.449 5.918 3.175M398.855 72.526a37.636 37.636 0 0 0 7.47 2.186c3.424 4.975 6.861 10.565 9.945 15.81-1.483.027-2.904-1.15-4.477-1.295-3.27-1.937-5.759-4.054-8.448-7.216-1.885-2.137-4.04-4.96-5.835-7.27-.104-.707 1.206-.81.749-1.675l-1.601-1.446c.956-.11 1.414.837 2.197.906M390.948 74.09l.006.18c1.477-.125 2.897.712 4.72.415 3.659 3.57 6.82 8.392 9.792 12.591 1.074 1.37 2.502 2.816 2.98 4.463-6.126-.65-10.839-4.732-14.969-9.866-1.351-1.799-3.216-3.32-4.394-5.216.749-1.758-1.607-1.875-1.989-3.093l-1.6-1.529c1.94.906 3.444 2.013 5.454 2.055M427.545 75.197c.79.422 1.573.235 2.71.297 8.011 6.96 14.976 14.218 23.528 22.043-3.84-.083-7.894-1.744-11.331-3.231-8.51-6.096-15.76-14.204-22.828-21.89 2.391 1.335 5.302 2.836 7.921 2.78M295.458 77.75c1.164 1.46 1.04 3.653 2.64 5.002-.755 1.245-2.003.297-2.959.498-.714-.851-2.21-1.508-2.162-3.079.686-.795.998-6.379 2.48-2.421M292.034 77.05c-.914 1.772 1.878 5.882-1.968 5.702-2.079.664-3.465 1.044-5.135.463 1.518-2.477 4.013-3.923 5.537-6.123.693-.027.783-.027 1.566-.041M358.598 75.494c2.065 2.49 3.888 6.095 5.877 9.112.013.609.713.85.644 1.55-4.893-.16-8.49-5.037-11.539-8.552 1.303-.366 2.301-2.566 3.715-1.812.25-.623.866-.187 1.303-.298" fill="#a54a00"/><path d="M279.124 77.335c-.506.698-.93 1.321-1.525 2.124.72.94 1.344 1.535 2.564 1.335.27.429.804.948.201 1.217-2.82 2.671-5.925 4.484-9.182 7.175-.86.54-2.072 1.08-3.195 1.46-1.566.2-3.375 1.28-4.879.283 3.396-4.082 7.173-6.877 10.582-10.786 1.359-1.59 2.897-3.189 4.997-2.808h.437M418.744 75.833c2.592-1.28 3.895 2.609 5.579 3.702 4.186 3.84 7.588 7.596 11.081 11.609 2.294 1.702 4.643 4.78 6.77 6.649-1.565-.139-2.806-.893-4.38-1.024-3.873-1.412-6.52-2.906-9.722-5.466-3.943-4.608-9.564-10.322-12.661-16.182 1.15.768 2.266-.139 3.333.712M437.414 75.605c.714.595 1.504.823 2.377.906 2.134 1.861 3.915 3.487 6.306 4.905 4.803 3.986 10.59 9.617 15.648 13.43.27.165.36.594.797.407l-.166.187c1.254 1.62 2.855 3.065 4.63 4.421l-.084.173c.007.18.27.18.444.166l-.167.187c.527.339 1.144.664 1.414 1.19-.838 1.135-1.836-.761-3.14-.38-.886-.679-2.28-.471-3-1.322-1.927-.567-3.437-1.487-5.198-2.408-9.217-6.337-16.639-14.19-25.01-22.028.776-.36 1.032-.54 1.989-.74 1.136.325 2.037 1.349 3.153.892M452.674 74.823c.533.512 1.573.228 2.197.74 1.822-.567 4.102.173 6.015-.131 9.986 5.445 18.808 13.795 28.192 19.766 1.524 1.702 3.36 2.11 4.629 3.826-8.13-.436-16.043-3.217-22.19-8.662-4.082-3.134-8.524-6.531-12.772-9.395-2.585-2.2-4.9-4.241-7.81-5.93.166-.352 1.129-.2 1.739-.214M382.652 77.75c1.747.235 3.673.45 5.225-.54 4.04 5.14 8.878 10.869 13.355 16.002v.256c-1.566.042-2.98-.975-4.373-.767l-.007-.18c-8.08-2.256-10.846-8.987-16.21-14.716l-1.33-.927c.95-.464 1.677.837 2.543.47l.797.402M374.045 79.348c2.114.726 4.013-.173 6.112.041 2.523 3.515 5.475 6.933 7.478 10.634 1.698 2.228 3.216 3.674 4.844 5.902-7.976-1.308-13.708-7.888-18.552-13.872-.887-.851-2.051-2.055-2.689-3.259l-.637-1.203c.977.678 2.377.989 3.444 1.743M355.625 83.222c1.816 3.19 4.733 4.788 6.112 7.977-.866.367-1.843-.394-2.62-.027-.886-.678-2.64-1.066-3.534-2.014-2.377-.906-4.179-3.39-5.967-5.362.32-1.57 2.059-1.515 2.46-3.189.16-.692.14-1.57.479-2 .651 1.73 2.509 2.81 3.07 4.629M452.3 77.632c5.509 4.663 11.372 9.146 17.394 13.104 1.857 1.529 3.735 3.41 5.6 4.773 2.127 1.785 4.525 3.377 6.403 5.514-1.642.554-3.41-.193-5.24-.055-3.492-.353-6.43-2.553-9.507-3.895-3.271-1.916-6.043-4.919-9.584-7.278-3.944-4.532-10.23-8.745-14.685-12.744 1.83-.38 3.16.636 4.982.242 1.747.138 3.375-1.204 4.637.34M285.049 80.683c-.146 1.315-1.788 2.041-1.844 3.356.797.67 1.67.657 2.55 1.162-4.365 3.66-8.697 9.16-15.093 7.998l.582-1.232c3.832-4.352 8.13-7.32 12.322-11.063.526-.11.95-.636 1.483-.22M295.61 84.82c1.303-.297 2.606-.678 3.909-.975.18.18.443.339.36.609-2.48 2.151-5.939 3.784-9.342 3.784l-.616-.415-.174.173c-.36-.436-.887-.498-.637-1.12l3.5-3.654c1.046.056 2.12 1.176 3 1.598M373.352 83.457c3.95 5.05 8.427 10.094 11.51 15.429-1.85-.74-3.707-1.834-5.578-3.446-4.31-1.563-5.613-5.189-8.815-7.998-.714-.767-1.441-1.971-2.412-2.476-.374-1.197-1.947-1.17-1.801-2.567 1.864 1.26 4.837 1.543 7.096 1.058" fill="#a54a00"/><path d="M289.325 84.509c.034 1.57-2.765 1.557-1.497 3.515.284 1.134 1.76.58 1.954 1.619-3.597 3.044-7.353 6.69-12.252 6.461l-.534-.512c2.128-2.49 4.602-5.07 7.443-7.056 1.448-1.336 3.34-2.768 4.886-4.027M359.25 85.332c4.213 4.864 8.745 8.69 11.836 14.204.831 2.069 1.76 4.483 1.199 6.85-1.227-.312-1.171-1.703-2.239-2.47-3.32-4.11-7.165-8.462-11.427-11.693 1.566.228 2.896.81 4.442.083l.77-.975-4.845-5.985.256-.014M378.259 100.159c-.077.622.63.85.38 1.563-2.293-1.08-4.15-2.352-6.022-3.971-3.638-2.781-6.264-7.078-9.39-10.336 1.317.325 2.19.297 3.486-.07.256-.27.076-.698.152-1.051l-.533-.498.34-.27c4.206 4.684 8.572 8.953 11.587 14.633M351.183 87.429c1.954 1.688 2.959 3.77 5.253 4.677.18.608 1.49.74 1.427 1.701-.422.443-1.212.201-1.74.568-.172-.526-.692-.256-1.046-.325-1.933-.838-4.303-1.391-5.738-3.017-.707-.512-1.774-1.176-2.224-1.958.852-.892 2.321-1.702 2.287-3.092.873-.187 1.164 1.19 1.78 1.432M295.264 88.736c.45.789-.756 1.329-.742 2.11-.831 1.855-1.213 4.38-3.368 5.39-2.245 1.176-4.407 2.193-7.2 2.068 2.037-2.566 4.255-4.794 6.466-7.54.762-.97 1.538-1.606 2.675-1.46.783.069 1.205-.81 2.169-.568M346.345 89.885c1.477 3.445 7.499 3.583 6.91 8.475.014.512.2 1.646-.742 1.854-1.92.2-3.846-.014-5.01-1.46 1.067-2.906-.922-6.178-1.677-8.855l.52-.014M346.47 95.454c.548 1.204-.208 2.352-.27 3.487-1.663.042-3.486.173-4.907-.837 1.352-1.868 2.35-4.324 2.121-6.504.166-.428.77-1.051 1.213-.63 1.164 1.28 1.545 2.927 1.843 4.484M368.106 106.752c.035 1.743 1.4 4.227.741 5.984-1.067-.837-1.794-2.054-2.598-3.064-3.84-3.84-6.127-8.676-11.407-10.731-.465-1.218-.41-2.608-.873-3.73 1.746.042 4.04 1.136 5.315-.456 3.555 2.782 7.575 7.147 8.822 11.997M346.255 101.466c.388 1.744.264 4.269-.928 5.514-1.476.395-2.717-.456-3.95-1.038-1.865-1.445.09-3.84-.825-5.652-.09-.346-.45-.768-.104-1.038 1.774 1.53 4.622-.014 5.807 2.214M339.526 101.1c.028 1.397.167 3.57-1.206 4.635-1.393.297-1.67-.387-2.806-.616.921-1.598 2.543-3.113 2.065-5.016 1.206-.99 1.753.312 1.947.997M354.1 101.127l.596-.616c.368.768.783-.283 1.144.229 4.088 3.307 7.346 8.904 8.773 13.927-.25.788.042 2.262-.72 3.072-4.082-6.974-10.368-11.188-16.335-16.46l-.014-.781c1.871 1.778 4.38.94 6.556.63M358.307 113.767c-.153 1.038.374 1.121.222 2.159-1.678-.74-3.112-2.72-4.623-3.812-2.474-1.432-4.193-4.172-6.403-5.528-.194-.955.208-2.27.54-3.148 3.216 3.245 8.413 5.652 10.264 10.33M341.079 108.295c-.236 1.051.575 2.255-.368 3.148l-1.122.54c.159-.865-.79-.229-1.15-.665-.458-1.217-.936-3.023-1.927-4.324 1.76.484 4.317-2.172 4.567 1.3M342.818 108.087c1.407.229 2.973.284 4.36-.187 2.944 2.636 4.94 6.082 5.287 10.178-.527-.18-.887-.678-1.33-1.031-3.376-2.712-5.718-5.874-8.906-8.254l-.02-.782.609-.014v.09" fill="#a54a00"/><path d="M357.42 147.8c2.321-1.156 3.936-2.74 3.936-2.74-.741-1.986-1.4-4.151-3.084-5.162l.173-.083h-.346c-1.719-2.663-5.052-3.459-7.45-5.32-.88-.152-1.428-1.446-2.127-1.529-.416.976-.922 1.854-2.142 2.055-3.195-2.892-7.318-3.66-10-6.663-1.504-.837-2.308-1.785-3.555-2.878l.166-.173c-1.774-1.37-3.063-4.559-4.075-6.973l-1.614-1.273c-.32-.298-.659-.81-1.137-.838l.166-.186c-1.677-.824-1.268-2.055-2.855-2.816-.312 1.667-.104 3.14-.07 4.718.098.512.652 1.813-.484 1.744-2.391-1.605-4.096-3.916-5.718-6.324l.077-.083c-.61-.415-.548-1.474-1.248-1.536-.921 1.674-.686 4.539-.651 6.102.11 1.488 1.095 2.339 1.032 3.73h-.512c-3.362-1.917-5.538-5.618-7.54-9.403-.596.796-.825 2.186-.887 3.148-1.29 5.161.415 11.146 3.042 15.366 3.23 4.442 7.27 9.596 12.661 12.253 2.682 3.002 7.124 2.636 10.298 4.31 5.766.138 10.423 1.598 15.926 1.653.727.443 2.321-.124 3.27.201 0 0 2.433-.11 4.755-1.287" fill="#fff"/><path d="M358.293 148.249c-2.779 1.273-4.955 1.515-4.955 1.515-.333.699-1.123.457-1.47.47-.346.097-.602.526-.249.782 2.294 1.004 4.422 2.353 6.362 3.529.624.422 1.047-.2 1.56-.567-.714-.934-2.204-1.163-3.362-2.097-.533-.595.236-1.321.749-1.577 1.233.484 2.384 1.162 3.541 2 2.814.982 4.428 3.133 6.057 5.617 1.123-.457 1.358-1.771 1.857-2.823.146-4.38-3.278-6.863-6.334-9.443 0 0-.977 1.307-3.756 2.58" fill="#ffb30f"/><path d="M329.963 118.036c.395.443.325 1.377.72 1.82 1.622 2.393 3.077 5.244 5.725 6.586-2.89-4.83-4.408-10.274-5.142-16.016l-.569-1.903c-.963-.152-.679.969-1.365 1.335-.97 2.055-1.857 4.096-1.067 6.51l1.698 1.668M349.02 120.063c-3.95-.962-7.047-2.975-8.794-6.863 1.31.048 1.719-1.342 2.135-2.22 3.187 2.095 5.273 5.714 6.66 9.083M333.15 112.91c1.276 2.324 2.114 4.662 3.812 6.447.111 1.135 1.338 1.46 1.878 2.138l-.173.187c2.162 3.079 7.221 2.892 7.588 7.673.797.58.652 1.64 1.185 2.324-.34.353-.415.976-.762.976-4.733-.851-7.54-5.5-9.972-9.029-1.372-2.836-2.655-5.59-3.334-8.71-.45-.61-.554-1.474-.485-2.007h.264" fill="#a54a00"/><path d="M345.16 123.1l-.159.796c-4.47-.865-7.706-5.223-9.716-9.36 1.033-.471 2.627.366 3.382-.866 2.155 2.74 4.075 6.608 6.493 9.43M353.324 113.345c7.02 5.77 11.324 14.827 16.286 22.299-.86.442-2.17.387-3.14.145-5.98-2.124-7.692-8.538-10.506-13.526-2.501-2.65-1.878-5.97-2.993-8.904l.353-.014M354.96 124.193c2.612 3.785 4.158 6.621 6.52 10.662-1.212.636-2.972-.104-4.296-.685-3.118-3.072-4.879-7.472-7.145-11.436.243-.782 1.192-1.322.562-2.36-.375-1.12-1.276-2.234-1.123-3.286 1.885 2.484 4.795 3.632 5.482 7.105M348.279 121.993c1.012 2.422 1.94 4.92 3.645 6.974.562 1.647 1.996 3.529 3.07 4.905l.014.34c-1.303.553-2.287-.637-3.507-.706-2.924-1.854-4.137-5.487-5.69-8.496.507-.879 1.269-1.771.902-2.72-1.234-.407-2.308-1.604-2.419-2.746 1.074 1.128 3.417.623 3.985 2.45" fill="#a54a00"/><path d="M351.66 140.832c.708.333 1.844.644 2.302 1.509-.333.802-.839 1.501-1.712 1.612-2.537-.38-3.029-2.892-5.565-3.017-.353-.339-.277-.768.16-.878 1.67.49 3.16.816 4.816.774"/><path d="M238.79 144.084c1.31.152 2.384 1.26 3.181 1.854.901 1.28 1.456 2.678.624 4.511-1.192 1.162-3.021 1.557-4.206 2.975-3.971 2-8.123 3.743-12.1 5.583-1.054-.152-1.463 1.066-2.516.658-2.155 1.176-4.588 1.667-6.743 2.85-1.504-.927-.423-3.12-.977-4.594.388-2.27 2.53-.145 3.908-.865l.27.34c2.53.027 4.866-.893 7.042-1.294 2.591-1.19 6.535-.665 7.935-4.352l-.41-2.692c-2.134-1.784-4.4-1.556-7.54-1.577-1.371 1.08-6.195.228-4.975 4.04.818 1.46-1.518 2.374-.18 3.82-1.29.297-2.336.837-3.292.518-1.137-.055-1.42-.92-2.724-.56.382-2.428 2.606-4.656 4.145-6.171 5.066-3.868 10.07-5.985 16.542-5.77.52.242 1.663.131 2.023.726" fill="#0a1f62"/><path d="M232.997 150.67c-.215 2.014-2.377 2.754-3.846 3.39-.95.54-1.747-.04-2.516.838-1.317-.408-2.765 1.28-2.814-.893.23-1.66-.055-2.96.693-4.38.693-.096 1.574.23 1.99-.553 2.723.637 5.814-1.702 6.493 1.599M244.473 152.6c-.035 2.353.86 3.28.652 5.46.644 1.563-.541 3.334-.07 4.89-2.12 10.849-13 15.962-22.536 18.874-8.268 1.315-15.219 6.69-20.943 12.391-.423.353-.229 1.232-1.102 1.26-1.788-1.89.104-3.051-1.164-5.12-.063-6.8-.485-14.107 3.77-19.254 1.885-1.53 4.206-2.975 6.202-3.715.596-.45 1.982-1.177 3.112-1.37.942-.637 2.44-.056 3.028-1.107 2.78-.595 5.184-2.553 7.873-3.051l-.09-.18c.797.519 1.905-.823 2.772-.837 3.118-1.28 6.126-2.92 9.154-4.117 3.368-1.653 6.3-3.452 9.044-5.514.45.415-.062.879.291 1.39M281.147 184.716c2.793.111 6.445-.484 8.995.326 1.83-.201 4.193.083 5.953.837l.174-.187c1.96 2.31 1.67 5.106 1.74 7.984.429 3.729 1.919 7.977 2.612 11.796.215 1.73-1.29.463-1.982.816-.88-.235-2.017-.65-3.153-.705-1.768-.74-4.54.096-5.87-.74-.776.442-1.663-.312-2.356-.125-4.02-.173-7.686-.173-10.638.498-4.089.609-7.658 1.03-11.567 1.812-.686.72-1.83.125-2.522.582-5.295 1.245-10.208 4.054-15.406 5.825-.235.879-1.393.214-1.899.65-4.747 2.553-9.674 4.656-14.608 6.594-10.887 4.946-20.596 11.699-29.945 19.31-1.06-.582-1.268-2.25-1.123-3.384-.582-6.593-.194-12.792-.263-19.766-.25-3.646 4.893-3.77 6.584-6.24 2.564-2.581 6.645-3.37 9.293-6.04 5.696-3.003 10.755-7.126 17.09-8.828 1.891-1.177 3.728-1.038 5.62-2.214.346 0 .79.159 1.04-.111l-.09-.173c1.662.055 3.194-1.543 4.947-1.231.686-.623 1.996-.665 2.855-1.294 1.22-.014 2.253-.734 3.736-.692 1.899-1.08 4.872-.706 7.034-1.716.783-.014 1.725-.726 2.605-.567 1.463-.906 4.006-.187 5.032-1.335 1.843.484 3.395-.263 5.135-.72 3.84.166 5.572-.567 9.404-.906.617.422 1.046.152 1.566-.042M461.025 184.433c2.28.636 4.06 2.262 5.932 3.964-2.55 3.106-6.376 3.618-9.917 5.362-1.643.81-3.334-.893-4.928-1.633a91.103 91.103 0 0 1-5.183-1.716l.083-.18c-.783.014-1.324-.67-1.85-.92-.291-1.294 1.795-1.688 2.564-2.4 2.238-1.19 5.003-2.733 6.528-4.677 2.453.297 4.733.947 6.77 2.2" fill="#0a1f62"/><path d="M212.803 188.757c-.666 1.487-.194 3.058.887 4.42 1.247 1.19 2.841 2.2 4.081 3.135 1.234.408 2.558 1.079 3.854.692.18.525.803.85.644 1.563-1.04.54-2.509 1.003-3.631 1.64-3.881 1.82-7.485 4.78-11.47 5.915-1.677-.567-2.827-1.591-4.255-2.864-1.524-1.799-2.612-3.688-1.698-5.888 2.627-3.369 5.974-6.053 9.065-8.378.7-.014 2.225-2.055 2.523-.235M426.07 186.598c2.882-.069 5.072.401 7.872.609.533.415 1.58.401 2.37.553 4.477 1.294 8.593 1.986 12.661 4.428 5.1 2.069 10.236 5.258 14.339 8.925 1.323.837 2.924 2.36 3.652 3.577-.153.962-.201 2.435-.354 3.584-.38 2.525-.235 5.133-1.06 7.416.02.88.055 2.27-.45 3.148-.063 1.052.325 2.961-.18 3.757-2.003.125-1.879-1.958-3.383-2.892a33.564 33.564 0 0 0-5.592-4.31l.173-.11c-.97-.582-2.204-.9-2.917-1.834l-.174.173c-3.09-1.944-6.001-3.093-9.348-4.497l-.167.173c-1.684-1.01-4.13-1.135-5.807-2.145-.354.014-1.144-.408-1.58-.221-.527-.16-1.137-.326-1.92-.132l.173-.18c-1.94-.823-4.206-.685-6.313-1.079-2.8-.284-6.03-.297-8.829-.595-.242.623-.603.11-.956.028-6.889.152-13.417 1.259-19.57 3.217-2.863.678-5.178 2.636-8.04 3.32-3.86-4.71-5.364-9.547-9.466-13.74-.194-1.134-.298-1.473-.049-2.352 2.91-2.144 6.217-2.92 9.321-4.566 1.74-.297 3.029-1.01 4.692-.782 1.47-.906 2.779-.768 4.248-1.487.354.339 1.22.055 1.74-.312 4.255-.878 10.166-2.04 15.052-1.888 3.056.014 6.805-.152 9.868.214M295.686 207.07c.098.339.707.145 1.06.401.79.325 3.21-.94 2.988 1.059-3.285 5.216-10.735 3.902-16.203 5.161-5.315.457-10.832-.2-16.341-.692-.36-.685-1.476.125-1.934-.74-.859.712-1.323-.761-2.363-.298-.45-.512-.88-.242-1.413-.754-.174-.166-1.213.2-1.054-.58.146-1.398 2.26-.492 3.112-1.46v.158c2.612-.484 4.504-1.231 7.304-1.46 1.29-.539 2.689-.664 4.422-.878 5.474-1.08 10.81-.415 16.14-.353 1.573.138 2.626.284 4.282.436" fill="#0a1f62"/><path d="M408.356 210.342c2.53 3.861 3.659 7.846 2.37 12.481l-1.31.028c-2.973-4.2-8.157-5.825-12.564-7.742-1.92-.041-3.86-.692-5.1-1.702-.195-.781.762-.892 1.101-1.335 3.555-1.03 7.194-2.421 10.583-3.19.686-.193 2.155-.664 3.125-.518l1.788 1.978M450.657 213.151c3.382 2.712 6.833 4.906 9.959 8.15 1.136.575 2.287 1.253 3.007 2.283-.568 1.405-2.585 1.107-3.88 1.647-.188-.512-1.137-.138-1.407-.484-.596.615-.707-.422-1.4-.056.083-.256-.18-.339-.36-.512-.174 0-.264.09-.257.173-1.594-.92-3.437-1.584-4.352-3.473-2.148-2.297-3.88-5.583-3.333-8.551 1.122-.464 1.08 1.46 2.023.823M301.522 218.174c1.614 5.88.325 10.883-.236 16.985-2.426 1.017-5.308.906-7.817 1.827-3.486.083-7.36 2.525-10.908 4.164-5.01 2.297-9.55 6.144-14.207 8.85-3.084 2.594-6.965 4.607-10.409 6.945-2.564 2.131-5.669 3.86-8.697 5.32-2.051 1.703-4.387 2.547-6.625 3.813-3.438 2.594-7.332 3.909-11.047 5.908-1.192 1.162-2.786.228-4.068 1.488-2.003.117-2.314-2.041-3.042-3.598-2.114-4.746-6.022-7.714-9.078-11.824.228-1.487 2.342-.58 3.472-.865.949-.636 2.342-.664 3.284-1.473l-.18-.16c1.4.229 2.162-1.1 3.375-1.383 3.105-1.55 6.12-3.362 9.321-4.74.076-.608.52-.096.77-.449 2.93-1.536 5.044-4.725 8.073-6.012 2.647-2.58 6.098-4.4 9.272-6.739 5.26-3.071 10.749-7.638 16.28-9.948 2.064-1.433 4.053-2.429 6.555-3.619l-.18-.18c2.086-.567 4.248-1.39 6.244-1.778 2.418-1.19 5.274-2.38 8.06-2.546 3.215-.927 6.763-1.875 10.187-1.349.693.256 1.49.664 1.6 1.363" fill="#0a1f62"/><path d="M400.054 217.918c3.444 1.937 6.022 3.881 8.787 6.531-.818 2.712-3.77 3.21-5.752 4.566-2.176.215-3.846-.27-5.946-.664-2.294-1.079-4.67-1.985-7.311-2.892-.54-.754-2.107-.65-2.654-1.59l-.693.027c.083-.194-.097-.277-.097-.353-.527-.07-1.137-.581-1.76-.567 0-.18-.084-.27-.174-.353-1.67-.568-3.527-1.66-5.114-2.484.34-.194.159-.45.159-.72 1.407.678 3.23.284 4.56 1.038.25-.526.52-.09.783-.014 1.566-.034 3.479-.173 4.706.07 1.469-.824 3.395-.416 4.684-1.419 1.49.325 2.675-1.266 4.255-1.134l.34-.353c.187.609.79.166 1.227.325" fill="#0a1f62"/><path d="M379.9 222.11c3.265 1.848 6.53 3.432 9.793 4.85.963.146 2.03.983 2.904 1.15 1.414.663 2.557 1.065 3.97 1.916 1.054.325 2.198.65 3.341.878.603.256 1.927.92 2.8.906 3.174 1.322 7.207 2.187 10.45 2.733 1.407.485 3.424.879 5.177 1.28 3.687.962 6.307.907 10.243 1.335 1.136.056 2.543.56 3.493.097 1.933 1.004 4.705-.186 7.262.796 4.713.505 10.908-.062 15.53 0l.167-.16c.187.596.61-.013.873-.027 8.538-.712 18.046-1.093 25.593-3.092l.63.781-.173.173c2.454 4.477 2.73 9.084 3.188 14.045l.27.256c-.401 1.563.333 3.12-.339 4.442-2.793-.104-5.343-.914-8.385-.333-.097-.518-.88-.152-1.4-.235-.09.097-.174.18-.174.27h-.256c0-.09-.09-.173-.18-.256-.686.45-2.342.581-3.133.325-1.746.042-3.298.865-5.045.637-.776.443-1.656.2-2.612.325-.52.097-1.033.623-1.566.2-.423.706-1.484.028-1.906.65-2.62.07-4.955.907-7.492.693-1.642.373-3.395.332-5.225.373-4.622.014-11.504.692-16.32-.076-1.407-.491-2.8-.207-4.117-.519-.97-.498-2.966-.186-4.373-.685-1.13.284-2.806-.463-4.29-.435-.88-.416-2.016-.47-2.986-.796-1.476.297-2.717-.554-3.937-.443-1.233-.491-2.55-.816-3.943-.865l-.007-.097c-1.31-.228-2.626-.366-3.77-.691-.61-.256-1.413-.934-2.363-.65-.617-.333-1.663-.402-2.377-.997-.436.014-1.317-.484-1.926-.297-2.017-.568-3.445-1.758-5.794-1.702-.714-.595-1.85-.665-2.737-1.246h-.437v-.159c-3.61-1.231-6.535-3.355-10.049-4.49-.284-.865-1.24-.754-1.864-1.19l.173-.16c-.797-.511-1.58-.753-2.55-1.002-1.247-1.446-4.31-1.82-4.63-3.985 1.623-5.701 3.5-11.499 6.529-16.619 1.497.499 2.308 1.785 3.978 2.097M227.259 226.594c1.78 1.702 5.197 2.325 6.563 5.002.575 2.255.61 3.902-1.005 5.687-1.546 1.245-3.244 3.286-5.413 3.867-.935 1.322-3.028 1.28-3.957 2.609-1.899.657-3.36 1.82-4.996 2.629-3.978 1.743-4.865-2.94-8.358-2.94-.354-.167-.45-.692-.797-.506l-.173.18c-.887-.775-1.844-.491-2.98-.72l-.007-.186c-.617-.228-1.4-.055-2.1-.125.076-.525-.61-.062-.79-.415-.256.27-.61.104-.956.2-.18-.172-.187-.511-.45-.608 4.65-2.892 7.705-6.78 12.356-9.589 2.924-1.979 5.592-3.694 8.877-4.988.256-.45.86-.706.845-1.329 1.144.422 2.204 1.004 3.348 1.246" fill="#0a1f62"/><path d="M237.252 236.584c-.243.782.471 1.55.665 2.332.056 2.608-.145 5.396-2.016 7.707-3.022 1.377-5.24 3.77-8.358 4.891-3.61 2.512-7.533 2.782-11.587 4.781-.45-.595-2.19-.297-2.64-1.08-.638-1.376-.763-3.03.512-4.524 1.539-1.26 3.791-2.096 5.593-3.445 2.01.228 3.18-2.249 5.274-2.29.25-.443.776-.36 1.115-.63l-.173-.166c2.26-.401 4.047-2.366 6.21-3.28 1.538-1.515 4.026-3.396 3.97-6.018l.257-.346c.88.498.29 1.563 1.178 2.068M299.748 236.868c-.305 5.832-5.815 9.347-10.111 12.495-.43.097-.61-.07-.797-.512-.312-2.339 1.004-6.206-2.772-6.988-.368-1.038.852-.969 1.365-1.432.776-.443 1.92-.2 2.682-1.01l.097.173c.95-.284 1.815-.65 2.862-.837 1.975-1.093 4.504-1.246 6.667-1.89M375.12 242.783c.97.498 2.023.74 2.737 1.515.776.063 1.33.837 2.37.907.464 1.28 3.243.698 2.841 2.359-3.167 2.338-7.7 2.788-11.067.595-2.488-2.117-4.235-6.171-3.077-9.16 1.303-.298 2.384 1.335 3.36 2.096.964.512 2.024.996 2.828 1.688M296.054 247.488c-.707 3.418-2.384 6.676-1.955 10.066.021.941 1.005 2.228.243 3.293-2.024-.74-3.021 1.46-5.031 1.246l-3.403.159c-1.143-.318-1.843-.388-2.39-1.508-.631-1.121-.396-2.083-.25-3.57.935-1.163 1.947-2.567 3.333-3.217l-.014-.34c2.772-1.28 4.297-3.223 6.972-4.51.686-.623 1.719-1.35 2.495-1.62M481.434 255.174c1.407.485 3.416.623 3.978 2.083-.07 1.051-1.005 2.117-1.955 2.566-3.548 1.218-8.26 1.502-11.545 2.782l-.527-.16c-1.719.824-3.18 2.083-4.643 3.245-1.24-.76.229-1.667.291-2.546 1.615-2.117 2.599-4.933 4.207-7.146 1.83-.215 2.959-.499 4.698-.713 1.4.145 3.583.27 5.06-.27l.353.332.083-.173M475.363 264.715c-1.989.996-2.287 3.286-2.238 5.362.81 1.03 1.621 2.234 2.945 3.085.617.229 1.926.035 1.42 1.093-1.122.38-2.515.568-3.569.512v-.173c-.443-.249-1.136-.055-1.573-.055-.104-.692-.963-.055-1.316-.484-2.107-.312-3.098-1.854-4.422-2.519l.167-.186c-1.158-1.107-.479-1.896-.243-3.3 2.037-2.567 5.426-3.252 8.365-4.442.18.242 1.067.657.464 1.107" fill="#0a1f62"/><path d="M386.7 235.443l-.028-.014-6.868 5.77-.839-.388 1.331-8.322-.035-.014-5.066 6.406-2.432-1.128 8.649-10.481 1.711.796-1.15 8.772 7.138-6.005 1.746.816-4.698 12.295-2.433-1.121 2.973-7.382M393.879 243.821l-2.093 2.124-2.689-.893 10.063-10.363 1.982.664-.007 13.698-2.724-.906.014-2.795-4.546-1.515v-.014zm4.733-5.403l-.034-.014-3.202 3.798 3.111 1.024.125-4.808M406.887 250.442l-2.62-.657 3.742-12.08 2.62.657-3.742 12.08M413.824 238.916l1.933.283 5.648 9.72.035.015 1.531-8.316 2.682.394-2.328 12.606-1.927-.298-5.648-9.713h-.034l-1.553 8.392-2.682-.409 2.343-12.674M432.84 253.728l-2.724-.083.41-10.391-2.807-.09.076-2.124 8.337.256-.083 2.138-2.807-.097-.402 10.391M441.648 251.245l-1.13 2.642-2.862.014 5.364-12.875 2.114-.014 5.343 12.84-2.904.015-1.08-2.636-4.845.014zm2.315-6.56h-.035l-1.51 4.574 3.305-.014-1.76-4.56M456.236 253.57l-2.717.117-.672-12.509 2.717-.124.672 12.515M458.876 240.645l1.948-.2 8.406 7.935.034-.014-1.074-8.364 2.696-.27 1.636 12.675-1.934.2-8.42-7.935-.035.014 1.095 8.433-2.702.284-1.65-12.758M394.205 202.518l.034-.014.118-9.057 1.546-.394 5.336 7.721h.034l.132-8.89 2.744-.678-.79 13.443-1.926.477-5.08-7.244-.028.014-.131 8.524-1.92.463-8.039-11.27 2.751-.678 5.219 7.583M409.174 192.763l.464 2.712 4.276-.595.36 2.11-4.276.595.569 3.348 4.442-.622.367 2.11-7.131.99-2.12-12.378 7.117-1.003.36 2.11-4.435.623M426.513 199.107l.034.014 4.664-8.04 1.567.298.88 9.056.034.014 4.595-7.88 2.786.512-7.47 11.664-1.962-.366-.887-8.51-.035-.014-4.393 7.555-1.962-.367-1.49-13.31 2.793.511.839 8.863M441.267 206.461l-2.606-.692 3.888-12.01 2.613.678-3.895 12.024M446.319 205.68l3.652 1.092-.748 2.014-6.23-1.868 4.407-11.886 2.578.768-3.66 9.88M453.09 208.232l3.548 1.322-.908 1.958-6.057-2.256 4.969-10.765 2.509.927-4.061 8.8M403.366 179.583h-3.104l-2.627-3.446h-.035l.077 3.39h-2.564l-.056-10.523 3.465.014c2.599 0 4.394 1.052 4.387 3.591 0 1.529-.929 3.044-2.696 3.314l3.153 3.66zm-5.766-5.078h.333c1.414.014 2.412-.38 2.412-1.827.007-1.473-1.026-1.77-2.384-1.77h-.347l-.014 3.597M409.298 179.493h-2.328l-.028-11.934h2.329l.027 11.934M422.168 172.29l.007.298c.041 3.376-1.65 6.386-5.357 6.428-3.493.055-5.732-2.865-5.773-6.158-.042-3.41 2.19-6.351 5.752-6.406 2.03-.028 3.818.982 4.76 2.78l-2.044 1.135c-.492-1.051-1.517-1.874-2.75-1.847-2.253.028-3.334 2.339-3.307 4.31.021 1.972 1.179 4.158 3.43 4.13 1.456-.013 2.662-1.293 2.69-2.739l-2.537.028-.02-1.896 5.149-.062M430.13 170.464l-.166-4.704 2.328-.083.43 11.934-2.335.097-.187-5.341-4.318.152.194 5.334-2.328.083-.43-11.934 2.328-.076.174 4.684 4.31-.146M441.15 177.314l-2.322.138-.603-9.88-2.405.146-.125-2.027 7.131-.43.125 2.014-2.405.145.603 9.894M452.244 168.001c-.471-.58-1.067-.913-1.843-.878-.742.041-1.42.65-1.38 1.425.118 2 4.796.9 5.025 4.898.132 2.38-1.261 4.151-3.694 4.29-1.65.09-2.903-.79-3.804-2.124l1.42-1.543c.368.892 1.255 1.681 2.253 1.612.949-.056 1.49-.893 1.434-1.813-.07-1.231-1.227-1.515-2.183-1.812-1.566-.554-2.73-1.253-2.834-3.107-.111-1.972 1.268-3.646 3.278-3.77 1.053-.056 2.557.38 3.333 1.148l-1.005 1.674M300.44 272.297l.153 2.685-2.231 1.03-.86-13.068 1.643-.74 9.217 9.256-2.267 1.024-1.878-1.902-3.776 1.715zm-.762-6.503l-.028.014.603 4.49 2.585-1.176-3.16-3.328M301.854 260.239l1.178-1.184 10.36 1.405.022-.014-5.704-5.652 1.629-1.647 8.655 8.551-1.178 1.19-10.36-1.404-.014.028 5.752 5.687-1.629 1.667-8.71-8.627M311.161 249.785l1.94-2.692c2.01-2.795 5.469-3.161 8.22-1.176 2.723 1.944 3.444 5.39 1.455 8.15l-1.926 2.692-9.689-6.974zm9.405 3.888l.221-.298c1.677-2.324 1.04-4.144-.88-5.527-2.107-1.509-3.978-1.211-5.523.92l-.222.311 6.404 4.594M326.11 236.093c-3.022-1.432-4.63-4.877-3.126-8.025 1.504-3.148 5.19-4.068 8.212-2.636 3.098 1.473 4.657 4.891 3.16 8.039-1.497 3.148-5.149 4.096-8.246 2.622zm.956-2.214c1.629.768 4.359.394 5.211-1.39.853-1.785-.568-4.152-2.196-4.92-1.754-.837-4.138-.352-5.018 1.488-.88 1.833.25 3.999 2.003 4.822M327.045 220.229l.922-2.13 6.147 2.628c1.351.581 3.305 1.273 4.096-.54.769-1.805-1.082-2.74-2.433-3.32l-6.147-2.636.922-2.138 6.57 2.816c2.675 1.148 4.206 3.148 2.945 6.081-1.268 2.94-3.777 3.196-6.459 2.048l-6.57-2.809M344.939 205.513l-.984 2.636-5.53 1.045-.008.02 4.512 1.682-.81 2.172-11.2-4.15 1.102-2.941c.825-2.221 2.377-3.383 4.768-2.49 1.42.525 2.557 1.84 2.252 3.43l5.898-1.404zm-8.053 3.134l.104-.283c.45-1.183.409-2.173-.957-2.67-1.379-.52-1.975.255-2.404 1.418l-.111.297 3.368 1.238M230.502 264.604l.028-.014-2.19-8.835 1.414-.705 7.172 6.42.028-.014-2.134-8.69 2.508-1.21 2.64 13.256-1.753.85-6.791-6.018-.035.027 2.051 8.33-1.76.865-10.693-9.34 2.502-1.218 7.013 6.296M241.763 250.92l1.511 2.4 3.777-1.903 1.157 1.855-3.776 1.902 1.857 2.961 3.915-1.971 1.165 1.847-6.293 3.175-6.847-10.93 6.3-3.176 1.157 1.854-3.923 1.985M259.49 252.31l-2.245 1.363-7.88-10.322 3.05-1.875c2.412-1.488 4.643-1.585 6.424.754 1.677 2.186 1.164 4.082-1.185 5.528l-1.116.67 2.953 3.868v.014zm-4.227-5.542l.458-.283c1.33-.81 1.85-1.516.824-2.865-1.011-1.321-2.016-.989-3.264-.214l-.395.242 2.377 3.12M273.212 244.243l-2.779 1.577-5.863-2.629-.034.014 3.007 4.269-2.293 1.294-7.457-10.565 3.104-1.771c2.329-1.321 4.588-1.308 6.182.948.95 1.335 1.074 3.162-.34 4.296l6.473 2.567zm-9.695-2.484l.298-.166c1.268-.712 1.92-1.563 1.005-2.85-.915-1.308-2.017-1.038-3.236-.34l-.312.18 2.245 3.176M275.527 241.76l-2.343 1.238-7.089-10.793 2.342-1.245 7.09 10.8M284.086 235.27l1.122 1.868-8.891 4.324-.111-11.775-4.567 2.22-1.123-1.868 8.358-4.068.118 11.769 5.094-2.47M284.959 225.418l1.289 2.518 3.922-1.64.984 1.93-3.915 1.627 1.573 3.078 4.075-1.688.99 1.93-6.541 2.72-5.842-11.382 6.549-2.712.99 1.93-4.081 1.689M207.98 225.909l3.305-2.636.99 3.618-6.014 3.19-2.655-13.678 2.668-.512 1.705 10.018M216.968 223.986l-2.682.477-2.384-13.72 2.682-.456 2.384 13.699M218.139 206.89l3.333-.567c2.55-.415 4.775-.955 5.24 1.77.166.99-.34 2.83-1.103 3.516 1.67.013 2.828 1.134 3.084 2.635.45 2.706-1.698 4.027-3.964 5.065l-4.276 1.3-2.314-13.719zm4.608 10.433l.659-.214c1.17-1.024 2.508-.637 2.203-2.422-.305-1.778-1.697-.795-3.042-.567l-.443.083.623 3.12zm-.963-5.175l.326-.055c1.31-.215 1.885-.699 1.65-2.117-.237-1.405-1.103-1.626-2.232-1.446l-.347.069.603 3.563M232.345 202.891l.645 3.003 4.227-1.771.492 2.324-4.227 1.758.79 3.673 4.394-2.13.499 2.31-7.048 2.712-2.939-13.622 7.055-2.297.5 2.31-4.394 1.73M251.59 208.758l-3.25.54-4.262-4.988-.035.013.922 5.542-2.682.45-2.287-13.747 3.632-.61c2.723-.456 4.802.437 5.287 3.384.298 1.744-.38 3.66-2.176 4.269l4.851 5.147zm-7.858-6.31l.346-.055c1.476-.242 2.446-.85 2.17-2.539-.285-1.688-1.415-1.84-2.842-1.612l-.367.055.693 4.151M257.987 206.288l-2.668.526-2.232-11.34-2.758.54-.45-2.31 8.177-1.606.45 2.311-2.75.54 2.23 11.34M266.629 204.296l-2.703.325-1.67-13.823 2.702-.325 1.67 13.823M272.526 191.448l.153 3.065 4.324-.215.118 2.367-4.325.214.188 3.757 4.49-.215.111 2.353-7.2.366-.693-13.92 7.207-.353.11 2.367-4.49.214M287.495 191.261c-.43-.76-1.04-1.273-1.94-1.377-.867-.096-1.767.47-1.871 1.363-.264 2.339 5.336 1.986 4.802 6.621-.319 2.768-2.273 4.539-5.1 4.214-1.906-.229-3.181-1.488-3.944-3.19l1.934-1.501c.25 1.114 1.109 2.166 2.266 2.297 1.102.125 1.892-.726 2.01-1.778.166-1.432-1.11-1.986-2.142-2.546-1.698-.927-2.896-1.986-2.654-4.117.263-2.297 2.183-3.964 4.519-3.687 1.233.131 2.869.94 3.603 1.972l-1.483 1.73M204.992 178.06c-.43-3.313 1.366-6.558 4.477-7.042 3.119-.498 5.662 2.055 6.092 5.348.443 3.397-1.359 6.586-4.47 7.084-3.119.498-5.655-2.013-6.099-5.39zm2.142-.449c.235 1.785 1.892 3.854 3.659 3.57 1.774-.284 2.834-2.774 2.606-4.56-.25-1.916-1.81-3.631-3.632-3.348-1.83.298-2.883 2.436-2.633 4.338M215.374 167.22l2.314-.312.915 6.621c.201 1.46.617 3.5 2.578 3.231 1.961-.284 1.809-2.352 1.6-3.812l-.914-6.621 2.315-.311.977 7.084c.395 2.878-.527 5.23-3.7 5.66-3.175.45-4.706-1.564-5.101-4.456l-.984-7.07M236.122 173.446l-2.779.478-3.686-4.228h-.028l.831 4.74-2.3.394-2.052-11.748 3.105-.54c2.322-.4 4.11.34 4.553 2.851.257 1.501-.305 3.141-1.836 3.68l4.192 4.366v.007zm-6.777-5.348l.298-.055c1.268-.215 2.086-.74 1.836-2.173-.25-1.46-1.22-1.57-2.44-1.363l-.311.049.617 3.542" fill="#fff"/></svg>