<svg xmlns="http://www.w3.org/2000/svg" version="1" width="615" height="410"><path d="M0 410h615V0H0v410z" fill="#002a86"/><path d="M281.72 341.873c14.725 3.84 38.113 2.352 38.107 2.574 0 0 7.254-.81 8.994-1.242.865-.642 10.88-3.222 11.97-3.552 0 0 9.883-3.948 12.385-4.812 8.166-3.01 16.044-9.455 23.13-14.885l3.492-2.928c3.492-4.77 7.2-6.936 10.8-11.826 10.8-13.86 16.5-27.245 19.92-42.023 0 0 3.09-17.178 2.574-24.348 0 0-.27-11.3-1.907-18.18-2.79-12.29-6.972-24.26-14.31-34.993-5.304-9.372-12.204-16.788-19.578-23.55-17.142-13.866-34.986-23.208-59.82-25.56-7.182-.576-20.022.258-23.022.54-9.462.618-18.336 4.404-26.826 7.428-17.424 7.35-33.234 19.722-44.802 36-10.704 15.084-16.446 33.138-18.456 51.726-.697 15.655.54 29.73 5.8 44.413 5.293 12.084 11.773 25.278 21.745 34.986 12.468 14.4 29.184 23.01 39.702 26.46l10.104 3.76"/><path d="M282.31 340.83c5.255 1.44 14.29 2.41 20.663 2.53 8.592.57 18.486.175 28.458-2.183 8.047-2.04 14.503-4.158 23.3-8.34 3.887-2.172 10.595-5.976 10.595-5.976 9.606-6.527 21.282-19.21 21.39-19.21 5.784-6.727 10.674-12.84 13.956-20.66 7.975-15.773 10.88-30.81 11.6-47.13 0 0-.72-16.68-4.53-27.377-3.625-14.67-17.22-36.246-21.44-39.42-12.79-14.178-27.34-23.718-43.63-29.64-11.623-4.488-23.24-5.754-36.62-5.796l-11.05.912c-17.84 1.685-31.897 8.693-47.095 18.563-25.062 17.226-38.64 44.508-41.718 72.054-1.68 14.466-.366 26.478 3.432 40.83 5.5 15.132 12.09 29.94 24.893 41.94 7.734 9.492 22.782 18.378 22.782 18.378 3.624 2.718 25.014 10.512 25.014 10.512" fill="#ffd90f"/><path d="M307.503 140.89c7.248-.36 11.598-1.27 25.92 2.185 4.896.9 21.39 8.694 25.914 11.226 9.786 3.63 28.278 24.115 28.278 24.115.972.87 12.102 17.85 12.642 19.164 2.268 5.657 5.286 10.92 6.57 16.907 1.938 8.604 2.208 17.37 3.09 26.94.36 11.298-2.568 23.16-6.072 33.48-3.942 9.45-8.43 17.7-14.436 26.172h-.325c-6.438 6.605-11.136 14.213-19.296 18.76.425.54 1.29.973 1.403 1.735-1.092 1.956-5.328 1.734-5.328 1.944-2.346-.457-6.102 3.785-9.156 5.41-12.043 7.903-31.033 11.875-31.033 11.875-9.132.84-27.732-.306-27.732-.306-7.476-.397-23.97-5.3-29.772-8.67-6.408-2.953-12.492-6.565-19.008-9.415-9.546-8.28-17.682-17.016-25.158-27.15-7.464-12.858-13.848-27.306-15.108-42.54-.523-7.5-.325-20.694-.54-21.564 1.235-15.653 7.66-30.64 15.215-44.105 4.362-8.088 23.214-25.314 23.214-25.314 2.285-1.943 15.19-10.18 16.493-10.51 24.294-12.15 44.232-10.34 44.232-10.34"/><path d="M393.633 188.177c-2.544-3.804-5.586-8.262-6.804-9.468-.865-1.417-2.713-2.61-3.907-3.703-3.036-3.822-18.33-17.976-26.664-21.42-20.3-9.786-30.81-11.064-30.81-11.064-6.53-.726-20.12-1.08-22.657-.54-20.334-.06-41.7 11.532-44.442 13.416 0 0-22.08 14.483-31.325 28.457.978 1.626 2.412 3.75 3.384 5.4 3.155.33 3.905 3.81 4.655 6.21.324 1.194 1.734 2.838 2.712 2.616 3.486-3.696 6.33-8.25 9.822-11.718l1.41-.438c4.24 1.434 3.137 6.318 4.65 9.366 4.343 3.282 6.287 8.178 9.43 12.21 1.633-1.734 3.27-3.138 4.693-4.884 3.258.113 4.794-4.447 8.166-3.343 5.32 3.162 2.795 9.258 5.285 13.722 2.064 1.63 3.258 3.91 3.678 5.885 6.864-5.748 16.332-6.486 25.254-6.132 5.442-.858 10.344-3.996 15.882-3.33 7.835-.408 13.175-7.788 20.79-7.542 4.343 1.43 9.137-.73 13.277-1.925 5.238-5.742 14.142-2.892 20.46-5.586 4.674-.217 7.41-5.21 12.084-5.3l.96-.88" fill="#ffd90f"/><path d="M257.29 182.47c.87-.97 1.09-.54 1.96-1.613l1.08 1.734c-.983 2.93-3.257-.22-5.225.853-1.632 1.524-3.702 1.62-5.652 1.08 0 0-.33.108-.216 0-2.394-.882-4.242-.666-6.528.408-1.525-.323-2.93-1.745-4.46-.773-1.193.54-2.07.216-3.365.54.324-1.302 2.064-1.734 3.156-2.274l.217.108c1.524-.317 3.594-3.257 5.328-.737.978-.21 1.962-1.194 3.048-.54.756 2.178 2.502.762 3.804.342.546-.87 1.524-.66 2.286-.33l.648.552c.535-.21 1.195-.87 1.74-1.194.65.864.757 2.388 2.173 1.848" fill="#fff"/><path d="M408.68 241.313c.295 8.016-.09 15.984-2.747 23.154-3.078 11.418-7.998 22.056-14.772 31.932-1.625-1.31-3.263.317-4.673-.997l-.324.33c-3.696-.552-8.586-.024-11.73-3.516-2.064-1.194-4.236-3.27-3.9-5.88-3.798-4.362-10.104-4.266-15.102-6.354-.863-.552-1.41-1.746-1.193-2.718-3.024-5.124-2.25-11.754-7.134-16.128 2.076-1.614 4.032-1.182 6.21-2.046 1.092-.635 1.632-1.72 1.422-3.143-.756-.864-1.194-1.746-2.382-1.968-4.134-.877-7.188 2.813-11.004 4.103l-1.95-.222c2.285-1.84 5.447-3.575 8.05-3.67 1.087-.54 1.633-1.747 2.185-2.6.87-1.3-1.296-1.967-1.944-2.507-5.495.048-10.133 2.88-14.207 6.594l-2.556-.324c-6.306-2.886-13.626-3.798-19.452-7.032 0 0 2.736.96 3.456.787.727-.192 5.803-2.184 7.255-2.184 1.446 0 7.068 0 8.88.726 1.812.72 5.106.707 7.248 1.08 3.078.54 5.256-.9 5.976-1.627.72-.72 2.717-1.806 5.075-1.632 2.352.187 10.068-.863 13.05-.54 1.632.193 2.538.92 5.436 1.093 2.905.174 6.715.36 7.62-.54.907-.9 3.62-2.352 7.795-1.992 2.73.235 6.882.54 9.42.9 2.538.367 6.162-1.085 9.246-1.27 1.717-.097 6.745-1.807 6.745-1.807" fill="#1691ff"/><path d="M408.55 238.39c-.23-4.253-.6-8.507-.87-12.63-1.633.433-3.81.2-4.135.32-.438.54-.762-.12-1.2-.12l-9.57-.247c-5.658 1.398-11.634-.36-17.184-.048-8.04.858-15.545.492-22.727 1.128-4.122-1.968-8.268.306-12.396-.468-8.37-.996-16.644 1.908-24.582.372-2.934-.126-5.556 1.71-8.052 1.278-4.008-2.844-9.132-.456-13.374.174-1.855-.445-3.59-1.97-5.437-1.43-.438 1.303-2.598.11-2.928.96l.756.985c.097 3.48 3.355 3.39 5.647 4.362 2.064.984 2.49 2.622 3.354 4.476 2.485.666 4.477 2.52 6.505 4.242 0 0 17.472.456 18.744-.258 1.27-.726 19.03-1.092 25.373-.726 6.348.367 12.51-1.625 16.314-1.45 3.81.185 20.664-1.44 23.928-.54 3.258.91 12.504.725 13.41 0 .9-.715 8.418-.38 8.418-.38" fill="#a8efff"/><path d="M339.83 259.17c-.54-.115-.977-.547-1.523-.547" fill="#fff"/><path d="M338.313 258.623c-4.038 3.348-7.308 7.368-10.038 11.268-.114.66.108 1.093.54 1.423 3.27-1.41 4.152-5.1 6.552-7.596 1.206-2.928 2.958-1.746 4.584-5.016l-1.63-.077" fill="#a2d100"/><path d="M287.337 310.463c-1.38.246-2.904.354-4.422.42-5.004-.018-10.44-1.452-15.216-3.09 3.16-3.036 8.38-4.218 12.09-7.254.653-1.417 1.097-2.93 1.205-4.453 2.442 3.828 4.002 8.376 5.544 12.816l.797 1.572" fill="#a81800"/><path d="M288.483 310.23c.372-.085.726-.187 1.062-.307-3.138-4.788-3.768-11.754-.168-16.638 1.308-.75 2.178.654 3.366.666l3.948-10.547-.54-.21c-.653.21-2.177.318-2.177.21l-7.83-.018c-2.61-.012-5.766-.24-8.484.078-2.827-.444-6.973 2.052-8.593-1.332.012-2.825-1.392-5.44-.948-8.26-.21-1.2 1.09-1.855 1.96-2.173.11.762 1.195.33 1.417.438 1.656.948 5.436.234 8.376.03 4.242-.534 9.354-.528 12.942-.726-.102-2.18-2.928-4.147-1.398-6.3 1.962-.66 4.032-2.053 5.334-.757l5.413 7.842c.87-1.404 2.076-3.036 2.844-4.65 1.638-2.616 2.412-5.436 4.26-7.83 1.956.774 5.772-1.068 5.652 2.298-1.855 2.928-2.52 6.408-4.705 9.234 1.416.222 4.026-.096 5.328.012 2.394.34 4.674-1.29 7.614-1.5.876-2.497 2.082-5.215 3.72-7.057 1.668-1.944 3.426-3.948 5.304-5.802l-1.757-.63c-1.992-.22-3.906-1.475-5.7-2.05-5.106-.553-9.45-3.175-14.01-5.04-3.36-4.795-8.472-3.505-13.152-5.155-1.54-.576-3.263-.846-4.95-1.128l-2.225-.126c.492 2.107-2.646 3.763-.99 6.457-.984 1.854-3.486 2.166-5.118 2.604-.864-.12-1.194 1.075-.984 1.525 1.632.534 2.826.756 4.458.666 3.59 1.85 8.7.115 11.96 2.965.21 1.092-.445 1.854-1.207 2.496-2.604-.773-3.372 1.29-6.09 1.183-4.89-2.742-9.252 1.278-14.028-1.242-4.026 1.735-6.846-.995-10.764.727-3.16 1.2-5.65-1.206-8.477-1.218 1.518 2.285.312 4.14 1.608 6.54-.545 1.08-1.2 1.62-2.4 1.943.44.33 1.087.438 1.417.33.87.444 1.734 1.092 1.95 2.178-.222.763-.66 1.525-1.422 1.735-2.286.762-5.55 1.29-7.608-.024-.762-.533-1.74-.983-1.518-2.057.323-.45.76-.762 1.295-.66.654-.102.984-.972.768-1.302-.102-1.295-1.194-1.193-1.95-1.955-2.82-2.19.558-4.674.024-7.29-.654-.21-1.092.33-1.734.216-.336 2.18-.342 4.897.624 7.183-.438 1.302-1.848 2.052-2.94 1.944.648 1.182 3.15 1.314 2.706 3.378-2.28 1.194-6.084-.462-8.586-.024-.87-.55-1.41-1.205-1.41-2.183.768-.972 1.74-1.524 2.94-1.512.222-2.178-2.496-2.412-2.928-4.146-.103-1.855.01-3.26 1.427-4.663l-4.782-.024c.318 2.076 2.052 4.032.852 6.198-1.092 1.627-2.94 1.735-4.356 2.377.87.012 1.855.12 2.503-.198 1.2.21 1.524 1.09 2.172 1.955.858 1.314.096 2.934-.774 3.918-.977.324-2.83.102-3.48.432-2.61-.444-4.565-1.104-7.067-.786-1.194-.445-1.848-1.64-1.62-2.94.984-1.525 2.838-1.945 4.356-2.605.87-1.296-1.087-1.086-1.52-1.956-1.085-.865-1.625-2.18-1.187-3.703.546-1.854 2.292-3.15 3.708-4.122-1.41-.108-2.61.102-3.695.75-.87-.108-1.2.534-2.394.21-1.74-.33-3.7.75-5.435-.234l-.216.223-.763-.774c-.534-1.423-.096-3.037 1.206-3.69 1.956-1.29 5.328-1.5 7.944-1.387.324-.21.33-.972-.102-1.206l-.216.222c-.973-1.195-3.157-.013-3.913-.997-1.848-1.524-3.906-4.032-3.354-6.642.336-1.95 3.162-2.05 2.946-4.115-4.02-.126-8.263.186-12.29.612-1.23 12.174 2.215 23.388 5.12 34.38.647.984 2.063.882 2.933 1.428 13.152 1.446 26.304 2.58 38.592 5.976 2.7 2.617 6.828 5.137 8.232 8.84 3.48-.643 6.852-1.29 10.332-.187 1.085.444 2.717.654 3.365 1.416l.114-.21c.43.55.97.87 1.625.983 4.062 4.398 5.544 10.206 7.398 15.762l.84 1.758" fill="#a2d100"/><path d="M289.743 241.63c-1.086-1.973-2.382-4.15-3.684-5.897-.865-1.194-1.95-1.626-3.367-1.314l-.108.107c-2.052-3.69-5.196-8.166-9.762-8.616-1.842-1.847-1.29-4.673-2.154-6.85-1.88-2.94-3.265-6.12-5.023-9.037l-1.152-2.616c1.986-2.352 4.686-3.936 7.422-5.352l1.824 1.524c.667.48 1.423.983 1.645 1.793-.126 6.852 4.968 11.538 7.554 17.316-.067 1.02-.013 2.123.365 3l.822 1.68c3.366 1.427 1.938 7.51 6.618 6.22.648.445 1.626.763 2.388 1.207.756 2.274 2.376 4.782 5.208 5.334 1.843 1.207 2.923 2.293 4.77 3.505-3.31-.516-7.18-1.866-10.84-1.83l-2.527-.174" fill="#e8d9a8"/><path d="M359.32 204.587c.257.126.683.222.677.702.33-.12.654.1.978.1.438.23 1.524.553 1.524.013l.425.426c-.102-.2 0-.32.114-.427 3.797 2.508 7.835-1.722 10.65 2.208 0 .973-.87 1.615-.87 2.167-.217-.108-.115-.432-.115-.54-.534.108-.972.21-1.404.108v-.108c-.66 1.08-2.063-.774-1.745.972-.54-.775-1.74-.325-2.178-.445v-.222l-.216.222-.533-.552c-.546.222-1.524-.642-1.956 0l-.653-.654-.318.43c-.115-.107-.217-.21-.217-.43h-.54c-.114-.12-.324-.21-.216-.33l-.216.12-.97-.775-.007.432c-.54-.21-1.086.54-1.524-.432 0 .432.653.762.107 1.182l-.756-1.182c-.33.102-1.193-.012-.983.642-.768 1.41-.426-.222-1.302-.222 0 .21-.108.33-.21.33l-.648-.54.21.21-.54.54c-.108-.762-.978-.33-1.41-.774l.216-.21c-.438.115-.876.763-1.194 0l.215-.21-.216.21c-.44-1.09-1.747.32-1.525-.983-.216 0-.54 0-.654.21l-.323-.54c-.33.54-.864-1.092-.978 0-.217 0-.325-.114-.44-.21.115-.12.217-.222.223-.444l-.444.654c-.11-.114-.21-.222-.11-.444l-.215.222c-.324.108-1.086-.12-.972-.222l-.216.222c-.108-.12-.21-.222-.21-.444-.768.21-1.194-.33-1.524.433-1.2-.222-1.092.33-1.956-.012-.654.54-1.308.54-1.632.763-1.524-1.092-2.61.87-4.02.198l.108.223c-.438.108-.984.54-1.308.096 0 .55-.762.54-.216.983-1.855 2.382-5.12 2.37-8.053 2.592-3.042.75-3.63.024-5.802 1.32 4.008-.702 2.724 1.164 4.056.624.98.21 2.06 1.313 3.15.34 1.633.865 3.703-1.62 4.675.445-.114 2.064-2.61 1.614-3.702 1.944-2.604-.553-4.782-1.43-7.5-.787-1.2.54-1.278.69-2.586.144.108-.108-1.524-.192-1.632-.414h-2.442c-2.61-.864-3.234-.618-5.844.234-2.503-.336-4.35 1.398-6.205.198-2.712.54-5.868.528-7.716.528-2.065-.336-3.703 1.29-5.66 1.938-1.943.703-3.833 2.19-5.405 3.9l-2.28.613-.156-1.056c8.29-8.358 21.227-5.382 30.58-7.734 5.45-3.588 12.295-.846 17.85-3.87 6.21-2.484 11.557-8.118 19.375-5.598.864-.216 1.956.114 2.508-.318.45 1.368 1.65.936 2.922.924l2.148.355" fill="#e8d9a8"/><path d="M360.117 203.297c2.118-.456 4.098-2.088 6.528-1.914 2.178-1.404 4.464-2.154 7.182-2.586.864.432 1.848 0 2.604-.21l.217.21c1.308-.972 3.588-.42 5.004-1.512l2.18.012c0 .21.107.33.215.33 1.524-.99 3.918-.216 5.118-2.052 1.32-2.52 4.566-2.274 6.33-3.798l-1.5-2.592c-1.044.258-3.03 1.302-4.062 1.818-5.34 4.992-13.067 5.508-20.027 6.468-5.76-.887-9.15 5.19-14.7 5.617v.324c.216 0 .54 0 .648.217-.21-.438.77-.426.985-.978.54.227-.33.87 0 .66l.324-.433c.03.234.13.408.287.522l2.646-.115" fill="#e8d9a8"/><path d="M335.96 224.705c4.693.048 9.75.648 14.305-.09 1.848.324 2.388.876 4.344.996 6.413-.305 13.71-.953 20.015-.93 5.868-1.06 11.298 1.13 16.638.05 5.538-.53 10.542-.085 16.2-.163v-.444c-.762-11.334-5.412-21.474-10.854-31.164l-2.1.167c-2.19 1.008-4.555 1.59-6.097 3.75-.438.324-.762.324-1.2.654-.33-.34-.768.32-1.194.32-2.72-.33-5.443.75-8.6.947-1.193.864-2.83.864-4.133.75-3.696-.12-6.426 3.348-10.344 3.126-.978.21-1.746.972-2.616 1.62l.978.762c1.194-.648 1.74.222 3.156.012-.113.324.217.324.433.54l.546-.762.54.762c.323-.108.215-.318.215-.54l1.194.012c0 .21.1.323.21.323l.323-.534c0 .21.108.323.216.43l.215-.21c.54 0 1.854-.66 2.934.325l.21.222c.113-.534.983-.114 1.307.216l.426.444.216-.222c1.625.876.107 2.286.533 3.702-2.604.54-3.918.96-6.636.738-2.28-.876-4.458-1.314-7.284-1.536l-.324-.445-.44.432c-5.225 1.842-8.58-4.254-13.913-2.424-.972.432-3.366.852-4.668.42-1.525.318-3.265 1.29-4.147 3.144-3.048 1.512-6.54.84-9.474 1.92 2.495 2.61 9.37-3.342 8.483 2.964-4.032 3.367-9.378-1.043-14.064 1.117 0-.216-3.997-1.488-5.63-1.398-4.02-.223-6.857 2.05-11.423.947-2.826.108-5.658 1.08-9.03.738-2.802.93-5.682 3.12-8.166 5.1l-3.005 1.854.27 1.81 1.362 1.213c1.704-.084 3.366-1.266 5.49-.75 4.986 3.174 9.792-2.04 14.79.03 3.03 2.73 6.414-1.17 9.78-.396 4.194 1.032 8.052.654 12.21.096 0 0 1.362-4.362 1.902-4.77.545-.414 3.67-1.914 4.625-2.58.948-.69 6.528-3.984 8.7-3.984 2.178.01 13.302-.505 16.638-.163 3.342.336 7.692.84 7.284 1.53-.408.708-2.178 4.5-3.804 3.282-1.632-1.22-2.31-1.087-6.936-1.087-4.614 0-4.614 0-8.424.408-3.804.41-5.922-.33-8.466 1.663-2.544 2.004-4.17 4.992-4.17 4.992" fill="#a81800"/><path d="M274.605 202.56c1.596.96 2.136 2.915 2.514 4.547.425 5.004 3.24 9.138 6.485 12.96.108-.21.54-.54.108-.762-.42-3.156-3.576-4.674-4.002-7.842-2.38-3.582.025-8.916-4.32-11.214-.755.407-1.535.797-2.32 1.193l1.523 1.104M263.66 208.523c-.203.294-.395.612-.575.936h-.654c-.107-.433-.54-.763-.317-1.405-2.928-3.06-3.9-7.416-7.698-9.924-4.668-2.735-1.062-8.7-5.838-11.22l-1.416 1.67.877 2.47c.336 1.07.408 2.365 1.386 3.14 3.138 4.475 10.092 7.115 9.858 12.87.86 6.527 9.77 9.06 9.637 15.9.54 1.313-.228 3.167 1.074 4.14 4.35.125 5.75 5.13 9.775 5.903-.966-2.94-4.002-5.67-7.158-5.892-3.804-2.195-1.716-7.51-4.65-10.36-1.212-2.155-2.514-4.405-3.468-6.517l-.83-1.722" fill="#a89982"/><path d="M246.255 189.64l-5.334 6.307-.005 2.79c-.318 1.83-.252 3.69.648 5.334 4.014 4.357 2.91 10.885 7.794 14.917 1.29 1.956 2.16 4.032 2.7 6.318 6.294 2.298 13.362 2.976 18.786 7.662 2.172.66 4.566 1.326 6.408 2.19 1.747-1.734 2.497 1.2 4.135.228 0-.216-.114-.318-.216-.438-.98.858-1.525-.984-2.173-.984-3.804-.012-5.088-6.318-9.336-5.682-2.495-1.313-1.613-4.14-2.37-6.095-.42-6.852-9.983-8.61-9.305-16.122-1.614-5.334-8.028-8.178-10.734-12.87.055-.618-.215-1.194-.407-1.77l-.582-1.788" fill="#e8d9a8"/><path d="M240.01 197.003l-1.37 1.62c-.76.312-1.41.102-1.955.534-3.258-1.746-3.03-5.34-4.548-7.956-3.36-.335-4.5-4.193-6.018-6.27-.655.763-.397 1.855-1.267 2.173.102.762.336 2.118.876 2.448 2.71 2.18 4.007 3.42 6.833 6.103.966 1.314 1.188 3.048 1.944 4.362 3.144.222 1.944 3.81 2.478 5.88.3 7.398 11.286 9.06 10.5 16.992.21 1.2 1.296 2.616.642 3.708-.54.21-.864-.12-.978-.54-2.503.09-5.107.528-7.507.408l-4.23-2.952c-3.912-1.673-7.128 1.147-10.194 3.307l1.547-.186c.372-.143.774-.28 1.026-.635 1.416-.642 2.61-1.08 3.918-1.194 1.957-.197 3.367.337 5.22.457 2.827.444 2.6 3.702 4.88 4.908 3.047-.21 4.667 2.838 7.277 3.72-.21-2.076-2.598-3.06-3.576-4.692.985-1.302.98.762 1.957.552-.108-1.638 2.28-.108 3.156-.54v.21l.438-.432c4.573-.42 10.01.036 12.71 4.932 1.085.87 2.723-.75 3.695-.21 3.918.132 4.662 4.698 7.38 6.552h.654l.005-1.842c2.292-4.344-4.452-2.742-6.294-5.028l.217-.21-.216.21c-.76-1.416-2.387-1.308-3.473-2.4-2.28-.33-3.912-1.638-5.868-2.19l.215-.21c-1.956.42-4.674-.456-6.306-1.536-.98-.01-2.28-.665-3.15-.995-.32-4.35-3.35-7.632-5.845-11.214-.18-5.963-6.852-10.445-4.98-16.29l.204-1.547" fill="#a89982"/><path d="M228.693 233.873c-.432.03-.9.234-1.14.174-2.178.102-1.314 3.588-3.708 3.138l-1.194.984c-4.133.203-8.153-.03-11.747.28-.216.21-.438.54-.768.433-.756-1.626-.42-4.344-.198-6.3 3.81-.972 7.614-.96 10.122-4.218-2.93-2.184-6.74-1.116-9.895-.246 1.566-14.36 6.822-27.6 13.602-40.093-.222 2.61 3.474 2.94 4.116 5.448 4.89.894 3.132 6.972 7.374 8.286.858 2.4-.126 5.335 1.5 7.62 1.722 4.687 8.25 6.337 9.426 11.34-.222 1.417.21 2.617.312 3.92-3.48.43-7.944 1.283-10.542-2.31-1.626-.33-3.69-1.207-5.22-.013-2.556.384-4.488 2.376-6.462 4.11l-1.067.93 2.538.174 1.29-.21c1.375-.257 2.81-.97 4.23-1.3 2.61.12 4.79-.53 6.637 1.427 1.284 5.226 7.164 3.072 9.444 7.206 1.41.33 2.93 1.974 4.243.774-.108-.762-.978-.642-1.524-.984.215-1.302-.427-3.036-1.62-3.912 5.225-.42 10.77-1.487 13.907 3.96.438.973 1.74.65 2.604.973-1.973 5.664-9.46 1.62-13.163 2.91l-14.142.828-.984.54c-.323-.54-.97-1.415-1.733-1.523-2.268.882-2.658-1.65-3.918-2.52l-2.323-1.806" fill="#e8d9a8"/><path d="M230.115 236.063c.942.786 1.452 2.154 2.316 3.102 1.303.87 3.265-.312 3.48 1.974-1.427 2.927 2.155 5.975-1.33 7.823-3.59-1.65-5.34 3.672-8.485.738-1.302-.125-2.826.2-3.69-.995-.864-1.302-2.388-2.94-1.728-4.674.222-2.075 3.702-2.273 2.946-4.56.768-2.177 3.702-1.613 3.708-4.23.277-.27.625-.407 1.015-.515l1.776 1.326" fill="#008600"/><path d="M372.057 209.345l-.33.432.33-.432" fill="#fff"/><path d="M218.325 228.467c-2.616 2.274-5.01 2.274-8.382 2.916-1.614-4.026 3.27-2.586 5.124-3.468 1.194-.642 2.178.45 3.258.552" fill="#a89982"/><path d="M246.165 253.805c-.204-.084-.438-.132-.72-.132-2.064-.762.12-3.48-1.074-4.344-1.415.76.103 2.165-.66 3.15-.443 1.853-2.94.42-3.27 1.943 1.507.096 2.935-.036 4.297-.3l1.434-.306" fill="#a2d100"/><path d="M269.655 250.18c.438-.245.978-.347 1.464-.347 1.09-.438 1.96-1.41 1.967-2.604 3.048-1.945-.102-4.453.018-6.853-1.296-1.302-2.49-3.048-3.684-4.68-4.23-3.384-3.377 4.23-7.08 4.326-3.593 2.826.967 5.004.63 8.166.21 1.09.757 2.17 2.06 1.955.353.168.617.378.833.612l3.786-.564" fill="#008600"/><path d="M268.107 252.9c.48-.277 1.05-.57.726-1.543l-2.562.09c.163.456.205.96.2 1.512l1.637-.06M280.677 253.99c.114-.54.006-1.523-.318-1.18l-1.177 1.157 1.494.036" fill="#a81800"/><path d="M278.39 254.74c-3.81 1.843-6.63-2.087-10.433-.455l-1.974-.162c-1.152 1.158-2.946.522-4.656.9-.978-.33-2.088.444-2.844.162l-3.246-.174c-1.854.32-4.14 1.183-6.204.847-1.176-.072-1.56-.942-2.154-1.548l-1.873.827c-1.644.246-3.606.354-5.43.258-.108-.21-.54-.432-.324-.756h-.762v.323c-2.105-.738-5.23-.27-7.223-1.512l-3.534-.27c-3.042-.22-6.312.307-8.814 1.71-.33.54-.445 1.645.107 1.963 4.02.234 6.96.024 10.662-1.266.323.432 1.295-.222 1.295.54 1.848.756 3.588.114 5.106 1.428v-.432l6.637-.204c.438.215.978.647 1.416.215.984-.75 1.416-.108 2.286-.978.215.33.87.552.647.984h1.2c1.296.12 2.94-.96 4.02.23-.108.113-.216.22-.108.443.323-.222 1.085 0 1.09-.648 1.41-.324 3.697-.21 4.89.984 2.72-2.377 5.97 2.087 8.04.785 4.25-1.722 8.377.354 12.41-.948 4.89 2.19 9.46-1.602 13.81 1.02 1.74-.108 4.783-.306 6.09-1.278-2.495-1.64-6.305-.787-8.8-1.98-2.7-.013-5.18-.47-7.55-1.243l-3.755.222" fill="#008600"/><path d="M257.84 254.47c.043-.335.175-.605.36-.82l-1.847-.397c-.072.318-.204.624-.372.9" fill="#a81800"/><path d="M258.897 253.14c.75-.38 1.734-.54 2.43-1.045.876-2.508.234-6.204-1.17-8.814l-3.048.42c-.98.763-1.855 1.855-2.4 2.935.43 1.194.863 2.502.75 3.702.653.102.43.864.755 1.194.126.295.192.6.204.877l2.477.732" fill="#008600"/><path d="M230.475 252.82c-.33-.365-.6-.81-.792-1.373-1.116-.15-1.182.504-1.482 1.116l2.275.246" fill="#a81800"/><path d="M287.247 239.435c.432 2.064 3.144 4.464.744 6.528l-.01 3.702c-1.957.972-5.113.636-6.097 2.922-.318-2.718-5.766-.234-4.662-4.374-.54-1.074-2.825-1.524-1.403-3.048-.972-1.194.876-2.376 1.2-3.36.774-1.734-.75-3.48.672-5.322.215-.54 1.09-.432 1.523-.102.438.757 1.524.985 2.394.547.972-.972 2.07-1.734 3.258-.54.324 1.314 1.626 2.076 2.382 3.06" fill="#008600"/><path d="M261.033 239.8c-.33 1.087-1.092 1.405-1.638 2.39-1.74.095-3.81.095-4.68 2.05-.216.433-.33.973-.768 1.195-2.28-.774-4.122-3.174-6.63-2.52-1.41.318-2.178 2.826-3.804 2.172-1.086-1.314-1.518-2.406-3.258-2.85-1.2.108-2.178.54-3.162 1.194.546-.97-.102-1.955-.204-2.927.215-.654.977.54.977-.33 8.04-.408 16.092-.816 23.16-.36M275.283 241.583c-.006.21.108.642-.222.762-.43-.108-.43-.87-.21-1.092.11.21.54 0 .44.33" fill="#a2d100"/><path d="M243.945 246.6c.318 1.085-.444 2.057-1.422 2.387-.768 1.092.864 2.508-.552 3.48-.977.54-2.063-.444-2.507.972-.204-1.31-3.258-.457-1.95-2.51-.42-2.07-.204-3.803-.198-5.765.762-.654 1.416-1.524 2.286-1.734 1.95.223 2.49 2.72 4.34 3.17M254.163 248.37c.318 2.07-3.816 1.403-1.974 4.12-1.195.87-2.935.65-3.92 1.525-.54-.984-2.28-1.104-2.603-2.076.654-.865.66-1.747.006-2.61-1.194-.44.006-2.065-.306-3.26.972-.87 1.74-2.17 3.042-1.943 1.955.756 4.997 1.968 5.753 4.254" fill="#008600"/><path d="M398.38 246.293l.437-.444-.216-.21.433.653.108-.222c.325.013-.54.325-.97.223h-.115l.006-.762h.11c.107.21-.11.54.215.763M397.185 246.61h-1.308l.216-.107c-.108-.12-.216-.342-.432-.222-.005.763-.87 0-1.2 0l.217.21c.438-.76.864-.21 1.416-.64-.114.31.21.43.324.653.108-.54.762-.54 1.194-.864-.113.43.433.97-.437.97M387.615 246.245c0-.198-.546.444-1.2.762-.648-.432-1.302.21-1.956.54l-.325-.318-.216.21c.54.22 2.723-1.303 3.7-1.195M382.713 246.995v.444c-1.41-.985-2.28-.445-3.258.095l-.216-.108c-1.963 1.512-5.55-.558-7.837.954-.432-.107-1.086.103-1.41-.227 2.178-.09 4.464-1.512 6.312-.408 1.302.12 2.826.12 3.918-.75.216-.114.216-.432.216-.54.113-.114.215.108.323.108l.216-.318c.437.432 1.193.54 1.733.762M390.543 246.81l.216-.21-.217.21.438.43.217-.21v.21c.54.12 1.416-.197 2.07-.42-.216 0-.876 1.405-1.746.643h-.54c-.215-.114-1.2-.552-1.74-.864v-.33c.44.21.98.22 1.303.54" fill="#fff"/><path d="M278.727 252.353c-.546 1.524-2.508.972-3.486 1.404-1.955-.33-3.257-1.314-5.32-.996-.32-2.177 2.61-1.403 3.593-2.927l1.2-2.604c2.934 1.415.312 5.225 4.008 5.123M236.535 250.055c-.438.654-.876 1.416-.444 2.178.433.54.973 1.092 1.735.984v.762c-2.388-.775-6.306.305-7.608-2.965 1.314-2.166 3.588.552 4.902-1.722.767-.54 1.3.114 1.415.762" fill="#a2d100"/><path d="M348.663 251.04c-.876 2.705-3.816 1.93-5.664 2.915-6.643 3.456-11.443 8.886-15.925 15.18-.216 1.086.108 2.718 1.41 3.162 1.518.864 2.61-.762 3.702-1.734 3.72-7.926 10.8-12.258 18.204-15.39 1.195.33 3.157-.09 3.367 1.536-1.098 2.17-3.702 1.08-5.556 2.16-6.425 3.677-11.56 10.943-16.463 15.935-.876 1.416-2.076 2.928-3.276 3.798-4.565-.996-8.26-1.446-13.157-1.992-1.53 2.497-3.168 4.453-5.346 6.397-.42-2.178-2.814-3.6-3.894-5.448 1.302-1.855 1.752-3.92 3.822-5.1 4.782.88 9.786-.74 14.034-1.59 2.627-7.49 9.173-13.573 15.49-18.343 2.94-.858 5.99-3.132 9.253-1.5" fill="#354600"/><path d="M255.237 252.935c-.984 1.632-2.616 1.62-4.68 1.512 1.302.33 2.61-.42 2.934-1.512.33-.864-.755-1.848.66-2.178.98.12.427 1.524 1.087 2.178M265.24 252.97c-.77.433-2.287.65-3.265.53.978-.643.546-1.843.984-2.707.54.972 2.927.222 2.28 2.178" fill="#a2d100"/><path d="M367.04 252.07l.217-.21c-1.524.973-3.486.63-5.118.74.767-1.093 2.723-.53 4.577-.96l.324.443M368.985 257.95l.216-.22c-.005.22-.005.54.21.54l.33-.32-.113.21c1.302.553 1.956-.533 3.048-.197 0 .21.102.318.21.318l-.54.223v-.222h-.978v.655c-.114-.114-.216-.222-.438-.222-.44.444.215 0 0-.21-.217-.108-.325-.432-.54-.33-.217.108-.217.33-.217.54 0-.21-.108-.33-.216-.432 0 .643-.762.433-.978.21-.325-.97-1.843-.33-.967-1.313.534-.198.858.45.972.774" fill="#fff"/><path d="M232.79 265.78c1.31-.443 3.21-.76 3.493-2.015.33-1.302.222-2.718-.642-4.02-.425-3.048-4.337-2.742-5.435-.996-1.524.75-2.508 2.813-2.406 4.45.61 1.02 1.69 1.657 2.633 2.36l2.358.22M229.51 268.03c-1.04.59-2.515.847-3.253 1.573-.546.762.102 1.524.756 1.848 3.588-1.29 6.522 1.867 9.786-.185.653-1.194-.32-2.064-.757-2.928-.66 0-1.806-.18-2.742.054l-3.797-.36" fill="#008600"/><path d="M229.983 267.713c.408-.336.678-.798.69-1.44l1.284-.132c-.486.32-.612.775.03 1.525l-2.004.036" fill="#a81800"/><path d="M367.017 258.27c-.768 1.955-2.934 1.3-4.248 1.403-.973-.864-2.935-.012-3.92-.012.44-.443.44-.533.985-.76l.108.215c.438-.66.978-.438 1.416-.438.767-.972 1.523 1.104 2.177.222-.114.107-.216.227-.216.33.433.54.763-.103 1.195-.103.648-.108 1.74-.87 2.502-.87l.216-.318v.54l-.216-.223" fill="#fff"/><path d="M246.53 266.273c.62-.138 1.447.024 1.7-.294.653 0 .545-.763.545-1.303-2.172-1.524.228-4.242-1.176-5.88-.763-.648-1.633.21-2.287 0v-.432c-1.302-.012-2.07 1.074-3.156 1.392-2.79 2.52.468 3.798 1.716 5.874l2.652.643M246.525 269.1c.486.54 1.164.923 1.806 1.217-2.285-.222-4.787-.222-6.96-.774.487-.552 1.32-.624 1.98-.882l3.17.44" fill="#008600"/><path d="M243.933 268.313c.21-.21.36-.504.384-.936.03-.294.006-.576-.054-.846l1.722.06c-.126.163-.192.41-.144.787 0 .372.08.714.217 1.014l-2.124-.09" fill="#a81800"/><path d="M257.36 266.123c.583-.426 1.363-.612 1.97-.87-.973-1.524-.313-3.924-1.285-5.448-1.302-.66-2.502-1.644-4.134-1.206-1.625-.11-1.307 1.745-1.637 2.717-2.382 2.46.894 3.282 2.04 5.052l3.048-.247M254.27 269.285c-.293.468-.707.864-1.157 1.056.438.433 1.086.54 1.74.763 1.956-.648 4.674.666 5.658-1.188-.323-.21-.653-.762-1.193-.534-.336-.107-.702-.215-1.068-.365l-3.98.27" fill="#008600"/><path d="M257.253 268.44c-.36-.3-.612-.703-.648-1.255h-1.956c.16.366.137.834-.007 1.302l2.61-.048M313.395 261.257c-.666 5.556-5.352 9.444-7.65 14.346-1.854 1.182-2.19 3.468-2.736 5.424-.115.642-.66 1.524-.985 2.388-.336 4.128-2.52 8.04-3.402 12.282-1.416-.666-2.826-1.098-4.344-1.428 1.643-4.573 3.07-9.89 5.795-14.017 1.314-2.274 1.866-4.992 3.72-7.056.876-3.582 3.72-6.948 5.148-10.536-.54-3.36 2.934-.97 4.458-1.39" fill="#a81800"/><path d="M325.113 289.99c-.36-.923-.984-1.793-2.004-2.603-1.855.66-2.293 3.036-4.465 2.052-1.416.437-3.078.21-4.026.21-1.41-2.06-3.253-3.493-3.463-5.893l4.146-4.65-.216-.222c.99-2.064 3.918-.096 5.658-.528 2.388.774 5.544.78 7.5 1.542 1.524-.103 6.414.67 6.414.67.107-.107.977-.107 1.625.115 0 1.2-1.962 1.842-1.2 2.934.972 1.733 2.706 3.16 2.922 5.327-.87.33-2.394.21-3.372.75-2.394.18-5.298-.234-7.584.186l-1.937.096" fill="#a89982"/><path d="M325.45 291.305c.383 1.992-.175 4.254-.577 6.75-1.638 2.814-3.924 4.326-6.648 5.844-4.458.965-8.046.203-11.958-1.993-.21-.534-.54-.984.222-1.416 2.177-.197 4.025-1.613 5.657-2.693-1.296-2.286-2.7-4.686-4.11-7.08-1.194.108-2.604.096-3.258-.774-.21-.984.875-2.07 1.53-2.928-.54-1.206-1.62-2.94-2.275-3.27-1.53 4.02-2.958 8.472-3.84 12.714 1.416.55 3.588-.42 4.566 1.103.205 4.896-3.72 9.024-7.54 12.162l3.917-.21c1.416.654 4.026-.528 5.328.996l-.216.21c1.3 1.093 1.403 2.94 1.613 4.363 1.416-.438 2.394.762 3.48.114.444-1.416.228-2.94 1.758-4.02 1.633-.972 3.81-1.404 5.12-1.944.97.222 2.393-.63 2.5.12 3.805-.75 7.825 1.44 11.42 1.23 8.363 1.008 16.63.372 24.467-2.43 5.112-.75 12.522-4.53 17.406-.606-1.752 2.718-5.13 4.884-7.422 7.806v.864c.65 1.092 1.945 3.06 3.26 2.73 7.193-4.548 12.863-11.706 18.323-18 .978-1.086 1.962-2.286 2.076-3.48-.11-.102 0 .66-.54.33-.325-.33-.973-.108-1.52-.762l-.437.972c-3.042-1.206-6.744-.888-10.002-1.77-1.63.648-4.247 1.068-5.44.948v-.21c-1.093.648-3.043-.222-3.697-.552-2.496-2.178-6.966 1.068-8.796-2.742-1.95-2.83 2.61-1.835 1.968-4.553 1.416-2.508 3.366-.87 5.004-1.29l.437-.438c.216.215.534.023.864-.09l1.08-.38c-.005-.16-.005-.335.013-.503-.858-1.416-2.718-1.098-3.48-1.968-4.338-.985-7.38-2.3-11.73-3.187-3.594 1.734-6.744.63-10.23 1.38-.432-.534-1.524.216-1.524-.654h-.65c-.653-.21-1.085-.865-1.193-1.525 1.092-1.092 1.308-2.508 1.422-3.912.767-.87 1.637-1.524 2.513-1.944-.642-3.81 5.01-4.34 4.812-8.263-.648-1.524-1.95-3.048-2.928-4.242-5.238 5.646-11.238 10.836-15.606 16.8 2.395.342 4.573.672 6.53 1.116.76.223.755 1.195.755 1.627-.438.33-.654 1.2-1.422 1.2-.006 2.508 3.582 4.578 2.592 7.404-1.302.33-3.48.75-4.134.53-1.955.863-3.257.1-5.11.64-.27-.407-1.285-.15-2.28-.047l-2.06-.078" fill="#a2d100"/><path d="M367.97 288.15c-1.127.49-2.843.27-3.97.34-1.093.12-1.2 1.303-1.315 2.077-.438.762-1.2 1.404-1.962 1.404-.324.973.432 1.417.978 1.957 5.005-1.182 9.343 3.942 14.677 1.02-.978-.102-.972-1.626-1.95-1.416-1.854-1.145-4.35-3.173-5.1-5.64l-1.356.26" fill="#008600"/><path d="M390.495 264.107c1.2-.54 2.4-1.422 3.702-.87.54 0 2.388 2.076 3.588.882 1.092-.54 1.854-.65 2.94-.65-1.308 1.195-2.178.11-3.594.973l-.107-.21c-.546.762-1.524.75-2.178.198-.762-.76-1.95-1.193-2.934-.773-1.085.33-2.393 1.2-3.695.75-1.518-2.718-4.236-.336-6.516-.768 2.38.113 5.22-2.053 7.055.455h1.74" fill="#fff"/><path d="M301.18 272.975c.54 1.632-1.2 2.706-1.1 4.35-.215-.12-.33.102-.437.21-1.95-2.298-3.138-5.124-5.856-6.762-.864-1.416-1.188-3.048-1.506-4.674 4.91-3.685 6.187 4.577 8.893 6.875" fill="#a81800"/><path d="M365.47 267.503l-.217.222c.978 1.194 2.826.984 3.918.552 1.525-1.734 3.48 1.638 5.33.234 0-.33-.44-.55-.655-.773.87.444 1.854.774 2.61-.21.216-.21.438-.54.768-.432.534 1.296-1.416.54-1.638 1.626-1.854.32-3.81.96-5.436-.455-1.303.432-3.38 1.734-4.897.42-.432-2.178-1.854-.54-3.156-.654-.762.433-1.632.75-2.502.853 1.74-1.182 2.178-.96 4.134-1.614.113.113 1.42-.973 1.74.22" fill="#fff"/><path d="M353.69 279.983c-3.7 1.29-6.857.738-10.553 1.17l-1.416-.546c1.64-1.524.457-4.782 3.175-5.322 1.194-.432.768-2.076 1.206-3.15 1.417-.978 3.38-2.496 3.71-4.236.425 4.14 2.807 7.95 3.88 12.083" fill="#008600"/><path d="M298.88 278.507l-1.637 3.702c-2.604-.997-5.55.083-8.16-.247-6.306-.114-10.98.084-16.86.714.552-2.508-.09-4.896-.198-7.392l-.756-1.632c2.717-.21 5.765-.21 8.807-.738 3.918-.642 8.598-.186 12.51-.288l1.086-.228c2.28 1.535 3.258 3.833 5.202 6.12" fill="#354600"/><path d="M270.7 282.13h-.217c.012-3.047-1.722-5.663-.732-8.813 1.735 2.298 1.507 5.988.95 8.814M389.277 273.665c-.006.87.87-.21.648.762-2.064-.444-2.94 2.274-5.334 1.512-1.085-.325-2.825-.445-3.695-.337-1.194.864-2.28.642-2.934.312 1.855.33 3.703-.63 4.903-1.062 1.518 1.404 3.366.654 4.674.114.324-.54.87-1.302 1.746-1.302M390.25 273.995l.215.654-.216-.655M391.665 274.65c-.114.33-.54.107-.762.215l.216-.648c.323.432.323-.114.54.432" fill="#fff"/><path d="M227.757 277.877c8.802 1.008 18.48 2.448 27.282 4.98.43.534.755 1.296.317 1.944-2.724 1.303-5.988 2.167-9.03 2.365-.654.54-.768 1.734-.12 2.286 2.388 2.51 5.868 3.06 8.796 4.915 6.63 1.218 11.982-5.616 19.584-2.874 1.956.763 4.458 1.417 5.652 3.39-.985 1.52-.553 3.583-1.65 5.095-4.25 2.166-8.605 4.878-13.075 6.924-6.306-1.53-13.584-2.317-19.026-.385-1.195-.318-2.287 1.302-3.265 1.194-1.638 1.3-3.264 1.51-4.362 3.257h-.426c-8.352-9.924-17.13-19.524-21.228-31.38l-1.297-3.702c3.696 1.206 8.04 1.65 11.85 1.992" fill="#e86f00"/><path d="M316.99 296.297c-.54 1.194-1.74 1.524-2.725 1.944-2.598-4.24-5.406-9.035-7.572-13.5l-2.166-2.94.774-3.257c4.55 5.658 7.363 11.988 11.69 17.766" fill="#a81800"/><path d="M373.263 283.685c0 .222.114.33.216.45.54.102.113-.54.437-.45.438-.42.654.012 1.092-.42-.115 0-.33.972-1.093.642-.324.108-.216.318-.216.54-1.853.75-3.36-3.594-5.32-2.178-1.303-.883-2.395 1.39-3.48-.355.977.45 2.933-.42 4.247-.408 2.178-.21 2.058 2.838 4.122 2.178M386.96 283.99c-.215-.21-.437-.54-.76-.33l1.955.013c.108.54-.546.54-.87.75h-.762c0-.864-.54.222-.762-.642-.107.103-.215.21-.215.433-.972-.864-1.41-.012-2.502-.222l-.654.65c.113-1.74 2.07-1.41 3.37-.98 0 .45.865.673 1.2.343" fill="#fff"/><path d="M261.44 287.975c.65 1.104 1.303 2.19 2.173 3.162-2.07 1.2-4.794 1.74-7.296 2.274-3.258-1.307-6.63-2.74-9.342-4.92 2.934 0 5.112-1.39 8.16-1.71.978-.653 2.07-1.523 1.638-2.927 1.848 1.086 3.15 3.042 4.662 4.146" fill="#a81800"/><path d="M306.027 289.09l.87-.97.54.76-1.416.21M321.88 299.46c-2.947 3.035-7.303 4.115-11.323 2.68l-1.626-.533c2.28-.438 4.79-1.29 6.86-2.37 2.393-1.194 3.27-4.134 5.567-5.424.864-.972 1.962-2.274 2.286-3.69 1.08 2.94.63 6.738-1.764 9.348" fill="#a89982"/><path d="M317 293.8l-1.95-3.16 4.35.22-2.4 2.93" fill="#a2d100"/><path d="M321.897 290.873c-.984 1.848-2.616 3.258-4.146 4.452.87-1.194 2.293-2.934 3.385-4.242.324 0 .438-.318.762-.21" fill="#3c5858"/><path d="M300.13 297.22c-.127 4.573-3.505 8.695-6.457 12.6l-3.156.32c.768-1.2-1.194-2.185-1.29-3.487-1.512-4.134-1.5-8.496.792-12.174 3.587.443 6.63 2.19 10.103 2.753" fill="#a89982"/><path d="M303.285 297.665c.534 4.35-3.834 7.608-6.45 10.314 2.076-3.26 4.698-6.397 4.71-10.537.54.222.978-.198 1.74.222" fill="#3c5858"/><path d="M372.213 307.44c-2.184 3.035-5.67 4.667-7.092 7.805.205 2.718 3.14 4.254 4.657 5.892-7.626 3.672-17.19.168-25.026 2.112-7.62 1.71-13.925 3.22-22.187 1.66-.54-3.91 2.418-9.113-2.688-10.54-2.064-1.315-5.226 1.18-6.084-2.42 8.39-5.08 18.163 1.903 26.437.073 10.218.69 20.352-5.484 30.03-5.124.54.317 1.302.33 1.956.54M289.54 311.555c.977.432 2.83-.972 3.917.336l.768-.755c3.366-.438 6.306-.306 9.786-.294-1.313 2.6-5.447 3.247-6.437 6.607-1.524 2.718-1.644 5.226-2.742 8.16-3.69-2.298-9.683.618-13.697-1.782-9.678-2.1-19.248-2.676-28.596-1.83-.768.54-2.07 0-2.718-.774-.21-.97.983-2.165 1.967-3.347l-.216-.228c.87-1.296 2.725-2.166 2.185-3.678-2.274-2.952-4.236-3.936-6.834-6.444 15.133-5.064 27.17 8.568 42.62 4.044" fill="#e8d9a8"/><path d="M245.937 308.273c2.172 1.968 5.1 3.834 6.828 6.33l-4.362 5.424-9.114-8.4c1.63-1.41 3.593-2.814 5.88-3.354.33.114.113.654.545.552.21 0 .216-.342.216-.552M306.393 314.32l-3.372-.443c1.093-.66 1.963-1.524 2.617-2.724.216 1.092 1.086 1.854.756 3.168M314.745 315.503c-.108.12-1.836-.072-2.052-.396l.162-2.52c0 .324 1.782 2.706 1.89 2.916" fill="#a81800"/><path d="M300.73 315.07c-1.195 1.837-2.617 3.35-2.623 5.533-.654 1.086-.12 2.178-1.098 3.042.323 1.092-1.2 1.41-.445 2.172-.864.432-.006 1.416-.006 2.178 1.41.972 3.365 1.536 5.32.984 3.42-1.07 9.433-.433 15.985 1.793 2.832-.87 2.838-4.35 3.606-6.846-.54-2.598.99-5.106-.63-7.614-1.3-1.194-2.5-.882-4.127-1.428 0 0-.894 1.968-3.324 1.968-2.43 0-6.74-1.08-6.74-1.08l-5.927-.714" fill="#e8d9a8"/><path d="M293.415 326.25c1.848.653 1.29 3.7 3.36 3.27 3.69 1.967 6.234-.385 11.232-.26 1.296-.43 6.816 1.843 9.852 2.707 1.74-.42 3.263-1.512 3.707-3.348l.66-2.51c6.408 1.22 14.136.48 20.772-1.35 6.095-1.08 13.103-1.03 18.87-.797l-4.717 3.444c-7.41 5.088-15.042 7.974-25.014 10.878-10.885 3.114-22.897 1.278-33.45 1.464-11.527-1.35-22.94-4.867-33.03-10.44-4.13-1.525-9.11-4.62-12.17-6.12 10.225-.517 19.47-.163 29.797 2.8l10.11.247" fill="#a2d100"/><path d="M287.29 150.587c-1.363-.132-2.85.126-4.08.816-.277.132-.685.132-.93.144-.84.396-.84 1.614-.565 2.436.27.948 1.362 1.218 2.172 1.488.816.283 1.632.283 2.448 0 .684-.125 1.224-.947 1.902-1.08 2.04-.69 4.08-.407 6.12-.137 1.086 0 2.304.408 3.126 0 .678-.408 1.488-.678 2.034-.948.948-.414 2.034.138 2.976.258.42-.12 1.236-.258 1.962-.318.222.198.63.468 1.194.12.665-.192 1.48-.06 2.16-.06 0 0 .137.138.125.282.552.408.42-.948 1.194.222.035-.097.18-.223 0 0 .72-.097 1.127-.097 1.673-.097.408 0 .276-.54.726-.666.49-.282 1.037-.408 1.583-.69.678-.414 1.77-.27 2.652-.048.468.047.468-.493.768-.66.66.035 1.338-.103 2.016.167.275.126 0 .408-.05.492.05.185.325.185.457.185 0 .396.276.678.51.798 1.398.15 3.024.552 3.81-.858.306-.078.852-.078 1.086-.114.582.163 1.122.445 1.668.307 0 0 0-.282-.25-.516 1.067.103 1.883.235 2.56.517 2.04.816 4.22 1.764 6.397 1.356.534-.138 1.218-.69 1.35-1.356 0-.552.132-1.092-.132-1.5-.54-1.092-1.632-2.04-3.09-1.716-.168-.04-.3-.455-.438-.455-1.77 0-3.402 0-5.112-.432-.054.024-.054-.378-.108-.318-1.446-.336-2.802-.75-4.302-.468-1.362.408-2.31 1.362-3.666 1.77-1.357.27-2.443-.552-3.775-.786-1.254-.16-2.34.65-3.156 1.41-.27.2-1.087.325-1.22-.07-.137-.54-.683-.69-1.09-.823-.95-.282-1.903-.282-2.797.21-.33.06-.738-.21-1.194-.102-.217-.786-.36-1.464-.9-1.878-1.225-.678-2.587-.408-3.805-.54-.276 0-.408.414-.726.774-.36.445-1.033.59-1.633.763.192.108.042.108 0 0-.9.786-2.262 1.056-3.486 1.056-.947 0-2.17.27-3.15.12-1.745-.54-3.78-.54-5.003.96M286.065 160.92c-.954 0-2.034-.41-2.718.27-.54.413 0 1.09.21 1.45.738.32 1.692.59 2.508.59 1.356 2.177 4.08 2.85 6.396 2.177.817-.27 1.22-1.626 2.3-1.746 2.045-.16 3.947.38 5.98.66 2.04.41 4.22.54 5.977-.623.96-.456 1.776.492 2.73.762.276.143 0 .677.528.66 1.242.15 2.328.017 3.552.287 1.092.132 1.902.402 2.988.132.54-.133.948-.54 1.512-.95.258-.13.798.14 1.074 0 .54-.27 1.087-.4 1.645.127.126-.528.534-.258.942-.396v-.27c1.764.41 3.672-.13 5.436.41.948.27 2.034.4 2.988 0 .817-.27 1.5-1.37.955-2.04-.816-1.087-2.448-.535-3.678-.95-.948-.137-2.028.27-2.928 0-.733-.407-1.55-.677-2.227-.947-.948-.408-1.632-1.362-2.448-1.632-1.218-.407-2.712-.533-3.696.6.16.085.03.085 0 0-.92.493-2.017.763-2.96.355-.677-.27-1.493-.54-2.363-.366-.078-.05-.486-.175-.894.095-.408.138-.684.81-1.224.678-.41-.27-1.087-.408-1.495-.138-.276.138-.684.408-.624.324-1.27.365-2.225 1.175-3.45.76-.13-.125-.13-.27-.25-.443-.15-.234-.565.048-.697-.234-.684-1.218-2.178-1.08-3.21-1.08-.054 0-.192.27 0 0-1.14.27-2.094.54-2.91.132-.948-.414-2.04-.948-2.994-.54-.133 0-.817.27-.41.714-.54.095-.815.233-1.523-.115-1.062-.33-2.286-.612-3.24.078-.672.402-1.77.402-1.488 1.35-.133 0-.133-.132-.277-.132M333.645 170.297c-1.362-.81-3.258-.948-4.212.282-.816 1.085-1.092 3.257.408 3.803.27.132.68.132.95.132 1.493.27 3.125.54 4.21-.822 0-.126.14-.54-.13-.81 1.223 0 2.447-.264 3.533.132.816.27 1.356 1.218 2.172 1.362.54.138.816.534 1.362.534.54 0 1.092.145 1.494 0 .685-.395 1.225-.935 1.91-1.085.677-.27 1.493-.27 2.177 0 .948.282 2.034.69 2.988.948.678.282 1.5 0 2.046-.54.265-.126.535-.27.943-.27 0-.138 0-.408.042-.492.366.085.906.223 1.314.223.275.132.54.402.815.54.684.27 1.362 0 2.04.132.948.408 1.902.138 2.58-.684.408-.27.954-.407 1.362-.677.402-.126.948-.126 1.362.138.4.27.94.133 1.487 0 .27 0 .27-.533.558-.617 1.344-.198 2.7.21 3.924-.198 1.36-.414 2.447-2.448 1.36-3.402-1.085-1.086-2.85-.804-4.35 0-.27.144-.407-.126-.7-.102-.115-.035-.115.373-.217.325-1.254.048-2.472.048-3.696-.006-1.092.335-2.448.467-3.372-.013-.57-.204-1.242-.06-1.932-.06-.126 0-.27-.282-.45-.27-1.446.27-2.67 1.758-4.164 1.08-.41-.132-.955-.54-1.363-.954-.132 0-.27.144-.348.072-1.147-.876-2.64-.612-3.865-.342-.132 0-.54.54-.816.66-2.18.294-4.213.162-6.253-.786-.408-.144-.816 0-1.362.21-.534.186-1.218.048-1.764.048-.815.138-1.223.822-2.04 1.092M369.405 180.095c-1.362-.144-2.718-.954-3.81-.27-.948.666 0 1.896.816 2.574.817.413 1.5.82 2.31 1.09 1.363.27 2.587.27 3.81 0 .54-.125 1.225-.407 1.225-1.217h.942-.126c1.213 0 2.443-.408 3.66 0 .133 0 .54 0 .835.114.66.552 1.476 1.236 2.022.696 1.224-.81.684-2.184.408-3.402-.132-.677-1.224-.54-1.902-.54-.132 0-.408-.263-.516-.22-.978.49-1.938.773-2.886.365-1.77-.54-3.803-1.218-5.43.126-.13.145-.54 0-.81.025M365.517 186.293c.228.21-.054-.222 0 0-.054-.222-.054.048 0 0-1.692.048-3.456.318-4.95-.096-.684-.27-1.494-.54-2.31-.27-.276 0-.54.144-.948.144 0 .127 0 .397.053.307-.33.09-.33-.036-.216.21-1.062-.246-1.878.294-2.556-.12-.815-.408-1.763-1.086-2.58-.678-.13 0-.407.395-.515.563-.708.246-1.524.246-2.202-.024-1.5-.403-2.994.137-4.35.81-.408.275-1.092.275-1.5.137-.54-.27-.948-.678-1.41-.948-1.17-.27-2.262.27-3.486.63-.81.18-1.764.18-2.172-.63 0-.145.132-.27.216-.355-1.715-.048-4.703-.456-4.98 1.854 0 .54.68 1.073.835 1.29 2.292 1.145 4.878 1.553 7.5 1.763-.18-.21-.042.06 0 0 .504-.066 1.044-.21 1.524-.654.467-.09 1.15-.223 1.56-.09 1.625 1.085 3.395 1.5 5.297 1.355.546-1.356 2.04-.678 3.15-1.008.114.048.252.33.21.648.45-.192.714-.048 1.086.114.99.107 2.076-.025 3.024-.163 0-.132-.132-.27-.09-.378.366.107.774-.307 1.194 0-.01-.163-.01-.445-.01-.445 1.08-.126 2.027-.27 3.167.234.222.035.63.035.978 0 .336-.097.744-.505.978-.32.306.223.714.085.978.33.823.295 1.915.295 2.593-.107 1.362-.816.678-2.586.678-3.948 0-.126-.27.282-.755-.174M330.927 195.587c-.948 0-1.902.138-2.718.552-1.087.395-2.18.125-3.26.803-.54.402-1.5.132-2.31.132.27.408-.137.948 0 1.368.41.81 1.22 1.35 2.035 1.488 1.362.133 2.586.133 3.942-.125.54 0 .54-.822.948-1.23.816-.81 1.77-.27 2.718-.402 1.5 2.31 4.35 1.218 6.528 1.632.817-.948 2.18-1.632 2.18-3.132-.41 0-.817.132-1.057.048-.846-.593-1.524-1.277-2.478-.863-1.362.408-3.126 1.086-4.35.408-.678.666-.948-.408-1.77-.408M260.565 178.547l5.112-2.262 7.338 19.266-4.896 2.917-7.555-19.92M270.43 172.62l5.525 22.72 5.118-1.51-4.932-22.855-5.71 1.632M284.295 169.373l-.81 24.714 4.62 1.488 1.416-25.758-5.225-.444M289.19 196.817l1.633 3.81 13.188-17.004-2.585-4.746-12.24 17.94M292.143 202.673l.72 3.516 17.262-8.563-.12-5.454-17.862 10.5M293.133 208.23v3.797l17.268-4.62-.275-4.488-16.992 5.31" fill="#fff"/><path d="M329.157 225.22s1.224-3.395 1.632-3.665c.407-.282 8.153-5.718 12.095-6.402 3.942-.666 6.15.108 9.522-.396 3.666-.54 13.59.81 13.59.81s-.678 2.448-1.626 2.448c-.947 0-4.895-2.178-8.567-1.218-3.288.852-5.982 0-9.108.126-3.126.144-6.66 1.362-8.562 3.132-1.908 1.77-3.942 4.896-3.942 4.896l-5.033.27" fill="#e8d9a8"/><path d="M303.873 242.765s1.452 1.266 2.724 1.818c1.266.54 3.438 2.34 4.164 2.706.72.37 4.16 1.277 5.617 0 1.446-1.267 8.52-2.167 11.058-1.44 2.532.713 12.864 2.89 14.316 1.81 1.447-1.097 3.085-3.63 6.71-3.27 3.623.367 14.315-.713 15.407-.173 1.086.54 9.24 1.632 10.146.714.906-.9 3.444-2.717 7.068-2.717 3.62 0 7.43.186 9.607.918 2.172.715 7.242-.365 9.054-.917 1.813-.54 6.89-.714 7.795-1.266.906-.54.54-1.626.54-1.626s-4.896-.54-6.528.175c-1.626.726-9.786 1.644-11.058.912-1.267-.726-4.71-1.272-7.243-1.086-2.538.175-19.032.715-20.484.9-1.446.175-9.966 1.28-12.33 1.28-2.352 0-4.896.173-7.614 0-2.72-.187-12.505 0-14.317.173-1.812.18-5.622.726-7.248.906-1.632.185-11.424.54-12.51.36-1.086-.175-4.896-.175-4.896-.175M392.6 249.42l.44-.445-.217-.21.432.654.114-.223c.323 0-.54.33-.98.222h-.113l.006-.775h.108c.115.228-.107.552.217.774M391.407 249.737H390.1l.215-.114c-.108-.108-.21-.318-.432-.216-.006.762-.87 0-1.194 0l.215.216c.438-.762.864-.216 1.416-.648-.113.33.21.432.325.66.108-.552.762-.54 1.194-.87-.115.432.43.984-.44.972M381.837 249.383c0-.222-.546.438-1.2.762-.648-.444-1.302.216-1.956.54l-.323-.324-.216.21c.54.21 2.725-1.3 3.703-1.187M376.935 250.14v.43c-1.41-.983-2.28-.443-3.258.09l-.216-.1c-1.96 1.523-5.55-.553-7.835.947-.438-.108-1.086.108-1.41-.21 2.178-.108 4.464-1.512 6.306-.42 1.303.114 2.827.114 3.92-.75.215-.108.215-.438.215-.54.108-.108.216.102.33.102l.216-.313c.427.432 1.19.534 1.73.762M384.765 249.935l.216-.21-.215.21.438.45.216-.228v.228c.54.102 1.415-.216 2.063-.438-.21 0-.87 1.422-1.74.648h-.54c-.216-.108-1.194-.54-1.74-.882v-.318c.438.216.978.216 1.302.54M361.263 255.197l.21-.21c-1.524.972-3.48.648-5.112.738.77-1.08 2.725-.528 4.58-.948l.323.432M363.207 261.083l.216-.21c-.006.21-.006.534.21.534l.33-.324-.114.222c1.3.54 1.955-.54 3.047-.21-.006.21.108.324.21.324l-.54.215v-.216l-.978-.013v.66c-.115-.12-.217-.21-.44-.21-.437.42.217 0 0-.222-.215-.108-.323-.438-.54-.33-.215.102-.215.33-.215.54 0-.21-.108-.318-.216-.438 0 .66-.763.438-.98.216-.317-.978-1.84-.33-.965-1.302.534-.22.858.433.972.763M358.935 260.987c-.768 1.956-2.94 1.302-4.248 1.404-.978-.863-2.934-.005-3.918-.005.437-.438.437-.54.977-.762l.114.222c.44-.66.98-.438 1.417-.438.762-.984 1.518 1.092 2.172.228-.11.102-.21.21-.217.312.438.552.768-.102 1.194-.102.648-.108 1.74-.858 2.508-.858l.21-.33v.54l-.21-.21M384.717 267.233c1.2-.54 2.4-1.404 3.702-.864.54 0 2.387 2.07 3.587.875 1.092-.528 1.854-.642 2.94-.642-1.308 1.194-2.178.102-3.594.972l-.108-.222c-.546.762-1.524.762-2.178.21-.762-.762-1.95-1.194-2.928-.762-1.087.32-2.395 1.183-3.697.75-1.518-2.73-4.242-.34-6.522-.785 2.39.12 5.22-2.052 7.057.456h1.74M358.06 271.39l-.217.23c.978 1.193 2.826.983 3.918.545 1.525-1.734 3.475 1.644 5.33.234 0-.325-.44-.547-.655-.77.87.445 1.854.77 2.61-.215.216-.21.438-.534.768-.432.534 1.302-1.422.54-1.638 1.632-1.854.312-3.81.96-5.436-.462-1.31.438-3.38 1.734-4.897.426-.432-2.185-1.848-.553-3.156-.66-.762.425-1.632.75-2.502.857 1.74-1.194 2.178-.972 4.134-1.62.113.12 1.42-.972 1.74.228M383.5 276.797c-.007.864.863-.21.647.774-2.064-.443-2.94 2.263-5.334 1.5-1.086-.33-2.826-.443-3.696-.34-1.194.87-2.28.647-2.934.33 1.854.323 3.702-.65 4.902-1.08 1.518 1.415 3.366.66 4.674.13.323-.55.87-1.3 1.745-1.3M384.47 277.127l.217.654-.216-.653M385.887 277.78c-.114.33-.54.115-.762.21l.216-.64c.325.43.325-.11.54.43M380.06 290.087c-.005.222.11.324.21.444.547.11.115-.54.44-.443.437-.438.653.012 1.09-.438-.107 0-.33.99-1.09.66-.325.1-.217.317-.217.54-1.854.76-3.36-3.6-5.322-2.197-1.3-.876-2.393 1.41-3.48-.336.98.444 2.94-.432 4.25-.426 2.177-.21 2.057 2.84 4.127 2.185M386.373 289.883c-.216-.21-.438-.534-.762-.324l1.957.01c.108.54-.546.54-.87.75h-.762c0-.87-.546.21-.762-.66-.114.11-.216.223-.216.45-.978-.88-1.416-.01-2.508-.233l-.655.654c.12-1.733 2.076-1.403 3.378-.96 0 .42.87.643 1.194.325M388.467 256.84c-.774 1.957-2.94 1.297-4.248 1.405-.973-.864-2.935-.012-3.92-.012.44-.432.44-.54.985-.762l.108.21c.438-.64.978-.42 1.416-.42.767-.97 1.523 1.093 2.177.21-.114.12-.216.223-.216.33.427.553.763-.107 1.195-.107.648-.102 1.734-.864 2.508-.864l.216-.32-.007.54-.21-.22M382.707 253.78l.216-.22c-1.524.97-3.486.64-5.118.75.768-1.093 2.724-.54 4.578-.96l.324.43M384.65 259.65l.217-.21c-.006.21-.006.54.21.54l.33-.33-.114.227c1.302.534 1.962-.54 3.048-.216 0 .223.11.33.217.33l-.546.21v-.21l-.977-.01v.66c-.114-.11-.216-.217-.438-.217-.438.438.216 0 0-.222-.21-.1-.324-.43-.54-.323-.216.114-.216.324-.216.534 0-.21-.11-.31-.217-.42 0 .65-.762.42-.978.2-.318-.973-1.842-.325-.966-1.303.533-.21.857.438.97.762M382.69 259.967c-.77 1.956-2.935 1.302-4.25 1.41-.97-.87-2.933-.012-3.917-.012.438-.438.444-.54.984-.762l.108.222c.438-.66.978-.438 1.416-.438.77-.984 1.525 1.092 2.173.228-.108.102-.21.21-.21.312.426.552.762-.102 1.2-.102.642-.108 1.734-.858 2.502-.858l.21-.33v.54l-.21-.21M359.763 247.56c-.768 1.955-2.934 1.3-4.248 1.403-.972-.864-2.934-.012-3.918-.012.438-.443.438-.54.984-.76l.11.21c.437-.643.977-.433 1.415-.433.768-.96 1.524 1.104 2.178.222-.114.12-.216.22-.216.33.432.54.762-.11 1.194-.11.65-.1 1.74-.85 2.503-.85l.216-.33v.54l-.217-.21" fill="#fff"/><path d="M355.78 246.095l.215-.21c-1.524.972-3.486.642-5.118.75.768-1.092 2.724-.54 4.572-.978l.33.45M357.71 251.975l.217-.21c0 .21 0 .54.216.54l.33-.33-.114.222c1.3.54 1.955-.54 3.047-.21 0 .21.102.33.21.33l-.54.21v-.21h-.978v.642c-.115-.103-.217-.21-.44-.21-.437.43.217 0 0-.21-.215-.12-.323-.445-.54-.343-.215.12-.215.33-.215.54 0-.21-.108-.318-.216-.432 0 .654-.763.432-.98.21-.323-.972-1.84-.33-.965-1.302.534-.21.858.432.966.762M355.755 252.305c-.768 1.944-2.934 1.29-4.248 1.392-.972-.864-2.934-.012-3.918-.012.437-.432.437-.54.983-.762l.108.222c.44-.654.98-.444 1.417-.432.768-.972 1.524 1.092 2.172.222-.11.108-.21.21-.21.318.425.54.76-.108 1.2-.108.64-.102 1.733-.864 2.5-.852l.21-.33v.54l-.21-.21M372.01 275.693c-.77 1.944-2.94 1.29-4.25 1.398-.977-.87-2.933 0-3.917-.01.438-.44.438-.54.978-.75l.11.21c.443-.655.983-.433 1.415-.433.768-.972 1.524 1.086 2.178.222-.108.1-.216.21-.216.323.438.54.762-.102 1.2-.102.654-.12 1.746-.87 2.508-.87l.216-.323v.534l-.215-.21M366.25 272.627l.215-.228c-1.524.983-3.486.647-5.112.75.762-1.075 2.718-.535 4.572-.96l.324.437M368.187 278.495l.216-.21c0 .21 0 .552.216.552l.323-.33-.108.21c1.302.54 1.956-.54 3.042-.21 0 .222.102.33.21.33l-.534.21v-.21h-.978l-.006.642c-.11-.103-.21-.21-.433-.21-.438.43.216 0 0-.21-.216-.12-.324-.433-.54-.33-.216.107-.216.33-.222.54.006-.21-.108-.33-.21-.433-.006.642-.762.42-.972.198-.324-.972-1.854-.33-.978-1.302.546-.21.864.444.978.762M365.943 278.333c-.768 1.956-2.94 1.302-4.248 1.404-.978-.864-2.934-.012-3.918-.012.438-.432.438-.54.978-.762l.108.21c.438-.642.984-.42 1.416-.42.767-.984 1.523 1.092 2.17.21-.1.12-.21.222-.21.33.44.552.763-.108 1.195-.108.648-.102 1.74-.864 2.508-.864l.21-.317v.54l-.21-.222M388.575 267.857c-.768 1.956-2.94 1.296-4.248 1.404-.978-.875-2.934-.01-3.918-.023.437-.42.437-.54.977-.75l.114.21c.44-.642.98-.432 1.417-.42.762-.984 1.518 1.092 2.172.21-.11.12-.217.21-.217.33.438.54.768-.108 1.2-.108.654-.103 1.746-.865 2.508-.865l.217-.318v.54l-.216-.222M382.815 264.797l.216-.21c-1.523.972-3.48.63-5.11.738.767-1.092 2.717-.528 4.57-.96l.325.432M384.753 270.665l.216-.21c0 .21 0 .54.215.54l.324-.33-.11.222c1.297.54 1.957-.534 3.043-.21 0 .21.108.33.21.33l-.534.21v-.222h-.98l-.005.654c-.108-.103-.21-.21-.432-.223-.438.45.216.012 0-.21-.216-.102-.324-.432-.54-.33-.216.108-.216.33-.216.54 0-.21-.114-.312-.216-.432 0 .654-.76.432-.97.21-.325-.984-1.855-.324-.973-1.302.54-.222.858.438.972.762M382.797 270.995c-.768 1.944-2.94 1.29-4.248 1.392-.98-.864-2.935 0-3.92-.006.44-.437.44-.54.98-.75l.113.21c.438-.66.978-.437 1.416-.437.76-.972 1.517 1.092 2.17.228-.107.103-.215.21-.215.325.438.54.768-.102 1.194-.102.653-.108 1.74-.87 2.507-.87l.216-.33v.54l-.216-.21M365.92 262.78c-.77 1.957-2.94 1.303-4.243 1.405-.978-.864-2.934-.012-3.918-.012.437-.432.437-.534.977-.762l.114.217c.44-.648.98-.438 1.417-.438.762-.96 1.518 1.103 2.172.22-.11.12-.217.23-.217.33.438.54.768-.1 1.194-.1.654-.11 1.74-.86 2.508-.86l.21-.33v.54l-.21-.21M360.16 259.71l.215-.21c-1.524.97-3.48.64-5.112.75.768-1.093 2.718-.54 4.572-.96l.324.43M362.097 265.595l.216-.21c0 .21 0 .534.216.534l.323-.325-.108.222c1.302.54 1.956-.54 3.042-.21 0 .222.108.324.216.324l-.54.21v-.21h-.978l-.006.65c-.11-.11-.21-.21-.433-.21-.438.43.216 0 0-.23-.216-.1-.324-.43-.54-.31-.216.1-.216.31-.216.54 0-.23-.107-.33-.215-.45 0 .66-.756.437-.972.215-.324-.978-1.854-.33-.972-1.302.54-.21.865.444.973.762M359.24 265.83c-.767 1.955-2.94 1.3-4.247 1.403-.972-.864-2.928-.012-3.912-.012.433-.43.44-.54.98-.76l.107.21c.438-.643.978-.42 1.416-.42.768-.985 1.524 1.09 2.178.21-.107.12-.215.22-.215.33.438.55.762-.11 1.194-.11.647-.1 1.74-.863 2.507-.863l.21-.318-.006.54-.203-.223M399.17 276.857c-.767 1.956-2.94 1.284-4.247 1.392-.978-.865-2.934-.013-3.918-.013.438-.432.438-.54.978-.762l.114.222c.438-.642.978-.432 1.416-.432.762-.972 1.518 1.092 2.172.222-.108.108-.216.21-.216.33.437.54.767-.12 1.193-.12.654-.102 1.74-.852 2.508-.852l.217-.33v.54l-.216-.21M393.41 273.797l.217-.222c-1.524.972-3.48.642-5.112.75.768-1.092 2.718-.54 4.572-.96l.324.432M395.35 279.665l.215-.222c0 .222 0 .54.216.54l.325-.318-.108.216c1.302.547 1.956-.527 3.042-.203 0 .21.107.318.215.318l-.54.222v-.222h-.978v.654c-.114-.115-.216-.223-.438-.223-.44.438.215 0 0-.21-.217-.114-.325-.432-.54-.33-.217.108-.217.318-.217.54 0-.222-.114-.324-.216-.444 0 .654-.762.444-.978.222-.325-.984-1.843-.324-.967-1.314.534-.21.858.45.966.775M393.393 279.983c-.768 1.956-2.94 1.29-4.248 1.404-.978-.864-2.934-.006-3.918-.018.438-.44.438-.54.978-.75l.114.21c.437-.66.977-.44 1.415-.44.762-.97 1.518 1.093 2.178.23-.114.1-.222.22-.222.323.44.54.77-.102 1.2-.102.655-.107 1.747-.87 2.51-.87l.215-.33v.54l-.216-.21M379.3 256.055c-.77 1.956-2.935 1.302-4.25 1.404-.97-.865-2.933-.013-3.917-.013.438-.444.438-.54.984-.762l.108.21c.438-.642.978-.432 1.416-.432.77-.96 1.525 1.104 2.18.222-.115.12-.217.222-.217.33.426.54.762-.108 1.194-.108.648-.102 1.734-.852 2.502-.852l.21-.33v.54l-.21-.21M373.54 252.983l.215-.21c-1.524.972-3.486.642-5.118.75.768-1.092 2.724-.54 4.572-.96l.33.432M375.477 258.87l.216-.217c0 .216 0 .54.216.54l.33-.324-.115.22c1.302.54 1.956-.54 3.048-.21 0 .223.102.325.21.325l-.54.21v-.21l-.978-.012v.66c-.114-.108-.216-.216-.438-.216-.438.438.216 0 0-.222-.216-.102-.324-.432-.54-.312-.216.102-.216.312-.216.534 0-.222-.107-.324-.215-.444 0 .66-.762.438-.978.21-.324-.972-1.842-.324-.966-1.296.535-.216.86.432.967.762M373.52 259.18c-.767 1.957-2.933 1.303-4.247 1.41-.972-.87-2.934-.01-3.918-.01.438-.44.438-.54.984-.763l.107.21c.438-.642.978-.42 1.416-.42.768-.984 1.524 1.086 2.178.222-.113.1-.215.21-.215.31.432.553.762-.1 1.194-.1.647-.11 1.74-.87 2.5-.87l.217-.313v.534l-.216-.22M403.407 255.575c-.768 1.956-2.94 1.302-4.248 1.404-.973-.865-2.935-.013-3.92-.013.44-.444.44-.54.985-.762l.108.21c.438-.642.978-.432 1.416-.432.767-.96 1.523 1.104 2.177.222-.108.12-.216.222-.216.33.427.54.763-.108 1.195-.108.654-.102 1.734-.852 2.508-.852l.216-.33-.007.54-.21-.21M397.647 252.515l.216-.21c-1.524.972-3.486.63-5.112.738.763-1.092 2.72-.528 4.573-.96l.324.444M399.59 258.383l.217-.21c0 .21-.006.54.21.54l.33-.33-.114.228c1.302.535 1.962-.54 3.048-.215 0 .228.11.33.217.33l-.546.21v-.21l-.977-.012v.66c-.108-.12-.216-.216-.438-.216-.438.438.216 0 0-.222-.21-.102-.324-.432-.54-.324-.21.115-.216.325-.216.547 0-.222-.11-.324-.21-.444-.007.66-.77.432-.985.21-.318-.972-1.842-.324-.966-1.296.533-.228.863.432.97.756M397.63 258.7c-.775 1.957-2.94 1.303-4.25 1.41-.977-.87-2.94-.01-3.917-.01.444-.44.444-.54.984-.763l.108.222c.438-.66.978-.433 1.416-.433.77-.99 1.525 1.086 2.173.222-.102.1-.21.21-.21.31.426.553.762-.1 1.194-.1.648-.11 1.734-.86 2.508-.86l.21-.323-.006.534-.205-.21M406.67 249.91c-.767 1.963-2.94 1.29-4.247 1.41-.978-.88-2.934-.01-3.918-.01.438-.433.438-.54.978-.763l.114.21c.438-.642.978-.432 1.416-.432.762-.972 1.518 1.098 2.172.222-.108.114-.216.21-.216.33.437.534.76-.108 1.193-.108.654-.11 1.74-.87 2.508-.87l.217-.325v.552l-.216-.228M400.91 246.845l.217-.21c-1.53.972-3.48.642-5.112.75.768-1.092 2.718-.54 4.572-.978l.324.45M402.85 252.725l.215-.21c0 .21 0 .54.216.54l.325-.33-.108.21c1.302.552 1.956-.528 3.042-.198 0 .21.1.33.215.33l-.54.21v-.21h-.978l-.006.642c-.107-.103-.21-.223-.43-.223-.44.444.215 0 0-.21-.217-.108-.325-.432-.54-.33-.217.12-.217.33-.217.54 0-.21-.108-.33-.216-.432 0 .654-.756.432-.972.21-.324-.972-1.854-.33-.972-1.314.54-.197.864.445.972.775" fill="#fff"/><path d="M400.893 253.043c-.768 1.956-2.94 1.302-4.248 1.404-.978-.864-2.934-.012-3.918-.012.438-.444.438-.54.978-.762l.114.21c.437-.642.977-.432 1.415-.432.762-.96 1.518 1.105 2.172.223-.108.12-.216.222-.216.33.44.54.763-.108 1.195-.108.654-.102 1.746-.852 2.508-.852l.216-.33v.54l-.217-.21M401.235 268.745c-.768 1.956-2.94 1.29-4.248 1.404-.978-.877-2.934-.013-3.918-.02.437-.437.437-.54.977-.75l.108.21c.438-.66.984-.437 1.416-.437.77-.972 1.525 1.092 2.18.228-.11.103-.217.223-.217.325.438.54.762-.102 1.2-.102.654-.108 1.74-.87 2.508-.87l.21-.33v.54l-.21-.21M395.475 265.673l.216-.21c-1.523.972-3.485.648-5.11.738.76-1.073 2.717-.54 4.57-.96l.325.433M398.78 272.53l.223-.22c-.006.22-.006.54.21.54l.33-.32-.114.21c1.3.54 1.955-.54 3.047-.21-.006.21.102.33.21.33l-.54.21v-.21l-.978-.01v.653c-.115-.108-.217-.21-.44-.21-.437.42.217 0 0-.222-.215-.107-.323-.43-.54-.33-.215.12-.215.33-.215.54 0-.21-.108-.33-.216-.43 0 .653-.763.43-.98.21-.323-.973-1.84-.33-.965-1.303.534-.21.858.432.966.762M395.457 271.877c-.768 1.956-2.94 1.296-4.248 1.392-.98-.87-2.935 0-3.92-.013.44-.42.44-.54.98-.75l.107.21c.438-.642.978-.432 1.416-.42.768-.984 1.524 1.086 2.178.21-.107.12-.215.21-.215.33.432.54.762-.108 1.194-.108.653-.103 1.74-.865 2.507-.865l.216-.318-.006.54-.21-.222M326.27 248.273c-.773 1.944-2.94 1.29-4.247 1.392-.978-.864-2.934 0-3.918-.012.438-.42.444-.534.984-.75l.107.216c.438-.66.978-.44 1.416-.44.768-.97 1.524 1.105 2.178.223-.107.108-.215.216-.215.33.432.54.762-.102 1.194-.102.653-.107 1.74-.87 2.507-.87l.216-.317-.006.54-.21-.222M331.9 253.313l.215-.21c0 .21 0 .534.216.534l.325-.324-.108.21c1.302.552 1.956-.54 3.042-.198 0 .21.107.324.215.324l-.546.215v-.228h-.973l-.006.66c-.107-.12-.215-.21-.43-.21-.44.42.21 0 0-.222-.217-.108-.33-.438-.54-.33-.217.102-.223.33-.223.54 0-.21-.102-.33-.204-.438-.006.648-.768.438-.978.216-.324-.984-1.854-.342-.978-1.302.546-.22.87.433.978.763M331.503 250.067c-.768 1.944-2.94 1.29-4.248 1.392-.972-.865-2.934-.013-3.918-.013.438-.432.438-.54.978-.762l.114.222c.437-.654.977-.444 1.415-.444.762-.972 1.524 1.104 2.172.222-.108.12-.21.222-.21.33.426.54.762-.108 1.194-.108.65-.102 1.74-.852 2.51-.852l.21-.342v.552l-.21-.21M335.56 249.87l.215-.23c0 .23 0 .54.216.54l.33-.31-.113.21c1.302.55 1.956-.54 3.048-.2 0 .21.102.313.204.313l-.535.222v-.222h-.978v.66c-.114-.12-.216-.222-.438-.222-.44.433.215 0 0-.215-.217-.114-.325-.444-.54-.324-.217.103-.217.325-.217.54 0-.215-.108-.33-.216-.437 0 .648-.762.438-.978.21-.325-.984-1.85-.324-.973-1.308.54-.21.87.444.972.774M346.69 247.83l.215-.21c0 .21 0 .533.216.533l.33-.324-.113.22c1.302.54 1.956-.54 3.048-.21-.006.21.102.313.204.313l-.535.228v-.227h-.978v.66c-.114-.12-.216-.222-.438-.222-.44.445.215 0 0-.21-.217-.107-.325-.45-.54-.33-.217.103-.217.33-.217.54 0-.21-.108-.33-.216-.437 0 .66-.762.438-.978.216-.325-.985-1.85-.33-.973-1.315.54-.21.864.444.972.774M361.63 246.96l.215-.21c0 .21 0 .55.21.55l.33-.33-.114.21c1.303.54 1.963-.54 3.05-.21 0 .21.1.33.21.33l-.54.21v-.21h-.98v.643c-.107-.102-.215-.222-.437-.222-.438.445.216 0 .006-.21-.217-.107-.33-.43-.547-.33-.216.12-.216.33-.216.54 0-.21-.108-.33-.21-.43-.006.653-.768.43-.978.21-.325-.973-1.855-.33-.98-1.303.547-.21.87.438.98.762M404.547 244.24c-.768 1.945-2.94 1.29-4.248 1.4-.98-.87-2.935 0-3.92-.013.44-.438.44-.54.98-.762l.113.222c.438-.66.978-.438 1.416-.438.76-.973 1.517 1.09 2.177.227-.114.102-.216.21-.216.324.427.54.763-.1 1.195-.1.654-.11 1.74-.87 2.508-.87l.21-.33v.54l-.21-.21M375.867 263.153c-.774 1.962-2.94 1.29-4.248 1.41-.973-.882-2.935-.012-3.913-.012.438-.443.438-.54.978-.76l.108.21c.438-.643.984-.433 1.416-.433.767-.972 1.523 1.086 2.177.222-.114.1-.216.21-.216.33.44.533.763-.11 1.2-.11.65-.12 1.74-.87 2.51-.87l.21-.323-.007.54-.204-.216M396.165 285.653c-.768 1.962-2.934 1.302-4.248 1.41-.972-.882-2.934-.012-3.918-.012.437-.43.437-.54.983-.76l.108.21c.44-.643.98-.433 1.417-.42.768-.985 1.524 1.085 2.178.22-.114.103-.216.2-.216.32.425.533.76-.11 1.193-.11.648-.107 1.734-.87 2.502-.87l.216-.31v.54l-.215-.23M397.45 227.615c1.955.768 1.295 2.94 1.403 4.254-.87.97-.012 2.927-.012 3.91-.437-.443-.54-.443-.76-.983l.215-.108c-.648-.445-.432-.985-.432-1.417-.972-.762 1.092-1.512.222-2.166.114.102.216.21.324.21.545-.432-.11-.762-.11-1.194-.107-.66-.863-1.746-.863-2.508l-.324-.228h.54l-.216.228M393.447 236.94c1.95-.775 1.29-2.93 1.398-4.255-.87-.96-.006-2.916-.012-3.912-.432.444-.54.444-.756.984l.216.108c-.654.444-.438.984-.432 1.416-.977.763 1.093 1.525.223 2.18.108-.103.21-.223.324-.223.54.432-.108.762-.108 1.194-.11.66-.865 1.747-.865 2.51l-.324.22.54-.01-.215-.21M386.613 226.99c1.956.775 1.296 2.94 1.404 4.255-.87.972-.012 2.928-.012 3.912-.438-.432-.54-.432-.762-.972l.216-.114c-.655-.43-.433-.97-.433-1.42-.978-.763 1.092-1.52.222-2.167.107.108.215.21.323.21.546-.432-.108-.762-.108-1.194-.108-.655-.864-1.747-.864-2.51l-.323-.21h.54l-.216.21M382.605 236.32c1.95-.76 1.29-2.933 1.398-4.24-.87-.973-.006-2.94-.012-3.93-.43.45-.54.45-.755.99l.21.1c-.648.445-.432.985-.432 1.417-.972.774 1.098 1.524.222 2.184.114-.12.216-.21.33-.21.54.42-.108.757-.108 1.183-.108.654-.864 1.746-.864 2.508l-.33.21h.546l-.217-.21M372.453 228.983c1.956.774 1.296 2.94 1.404 4.254-.87.972-.012 2.928-.012 3.912-.438-.433-.54-.433-.762-.973l.216-.102c-.65-.444-.433-.984-.433-1.422-.978-.768 1.092-1.518.222-2.178.107.108.215.21.323.21.546-.432-.108-.762-.108-1.182-.108-.654-.864-1.746-.864-2.508l-.323-.222.54.012-.216.21M368.445 238.325c1.95-.774 1.29-2.94 1.398-4.254-.87-.97-.006-2.933-.012-3.917-.43.438-.54.438-.755.978l.216.103c-.653.444-.437.984-.43 1.428-.98.763 1.09 1.513.22 2.173.11-.108.21-.21.325-.21.54.432-.108.762-.108 1.194-.108.654-.87 1.746-.864 2.508l-.324.21h.54l-.217-.21M379.365 226.45c1.95.763 1.296 2.935 1.398 4.243-.87.972-.006 2.934-.012 3.918-.43-.437-.54-.437-.755-.97l.216-.12c-.653-.433-.437-.973-.43-1.405-.98-.774 1.09-1.524.22-2.184.11.12.21.21.325.21.54-.42-.108-.755-.108-1.193-.108-.642-.87-1.734-.864-2.496l-.324-.22.54.01-.217.21M375.35 235.78c1.957-.773 1.297-2.94 1.405-4.253-.87-.972-.012-2.928-.012-3.912-.438.432-.54.432-.762.972l.217.114c-.648.44-.432.973-.432 1.423-.972.762 1.092 1.512.222 2.166.108-.11.216-.21.324-.21.547.43-.107.76-.1 1.193-.115.654-.865 1.746-.865 2.508l-.324.21h.54l-.215-.21M365.403 227.32c1.956.763 1.296 2.93 1.404 4.243-.87.972-.006 2.928-.012 3.912-.438-.432-.54-.432-.756-.972l.21-.12c-.65-.432-.433-.972-.433-1.416-.972-.762 1.098-1.512.222-2.166.113.103.215.223.33.223.54-.444-.11-.762-.11-1.194-.107-.66-.863-1.747-.863-2.51l-.324-.22h.54l-.216.22M361.4 236.645c1.957-.768 1.297-2.94 1.405-4.254-.87-.97-.012-2.927-.012-3.91-.438.443-.54.443-.762.983l.217.108c-.654.445-.432.985-.432 1.417-.978.762 1.092 1.524.222 2.178.108-.102.216-.222.324-.222.547.438-.107.762-.107 1.194-.108.66-.864 1.746-.864 2.508l-.325.228.54-.012-.216-.215M357.447 229.71c1.956.773 1.296 2.94 1.404 4.253-.87.972-.01 2.928-.01 3.918-.44-.437-.54-.437-.763-.977l.216-.114c-.648-.433-.432-.973-.432-1.417-.97-.762 1.093-1.512.223-2.172.114.11.216.21.33.21.54-.43-.114-.76-.108-1.18-.108-.655-.864-1.747-.864-2.51l-.323-.22h.54l-.216.22M353.445 239.04c1.95-.763 1.296-2.93 1.398-4.243-.87-.972-.006-2.94-.006-3.924-.438.444-.546.444-.762.984l.216.102c-.653.443-.43.983-.43 1.42-.98.77 1.09 1.52.22 2.18.11-.12.217-.21.325-.21.546.42-.108.76-.108 1.18-.108.655-.864 1.747-.864 2.51l-.324.22.54-.01-.217-.21M349.683 227.495c1.956.762 1.296 2.94 1.398 4.242-.87.984-.005 2.94-.005 3.924-.438-.443-.546-.443-.762-.983l.216-.102c-.655-.444-.433-.984-.433-1.422-.978-.762 1.092-1.518.222-2.166.107.108.215.21.323.21.546-.432-.108-.774-.108-1.194-.108-.654-.864-1.746-.864-2.508l-.323-.21h.54l-.216.21M345.67 236.825c1.955-.774 1.295-2.94 1.403-4.254-.87-.97-.006-2.933-.012-3.917-.437.438-.54.438-.76.984l.215.108c-.648.432-.432.972-.432 1.416-.972.763 1.098 1.525.222 2.173.114-.108.216-.21.33-.21.54.432-.108.762-.108 1.194-.108.654-.864 1.734-.864 2.496l-.324.222h.54l-.217-.222M342.2 230.435c1.957.774 1.297 2.946 1.405 4.254-.87.97-.012 2.933-.012 3.917-.438-.438-.54-.438-.762-.984l.217-.108c-.648-.432-.432-.972-.432-1.416-.978-.763 1.092-1.525.222-2.185.108.12.216.222.324.222.547-.432-.107-.756-.107-1.194-.108-.654-.864-1.734-.864-2.508l-.325-.21h.54l-.216.21M338.2 239.765c1.95-.762 1.29-2.94 1.397-4.242-.87-.984-.006-2.94-.012-3.924-.432.443-.54.443-.756.983l.215.102c-.654.45-.438.984-.438 1.422-.972.762 1.098 1.524.222 2.166.113-.108.215-.21.33-.21.54.432-.11.774-.11 1.194-.107.654-.863 1.746-.863 2.508l-.33.21h.546l-.216-.21M335.45 227.543c1.957.762 1.297 2.928 1.405 4.242-.87.972-.012 2.928-.012 3.912-.438-.432-.546-.432-.762-.972l.217-.114c-.654-.437-.438-.97-.432-1.42-.978-.763 1.092-1.513.222-2.167.108.108.216.222.324.222.547-.444-.107-.774-.107-1.194-.108-.66-.864-1.745-.864-2.507l-.325-.222h.54l-.216.223M331.443 236.86c1.956-.76 1.296-2.933 1.404-4.24-.87-.98-.012-2.935-.012-3.92-.438.44-.54.44-.762.973l.216.12c-.65.432-.433.972-.433 1.404-.972.774 1.092 1.524.222 2.184.113-.12.215-.215.33-.215.54.426-.115.762-.11 1.2-.107.654-.87 1.734-.87 2.508l-.323.21h.54l-.216-.21M327.95 230.94c1.957.76 1.297 2.933 1.405 4.24-.87.973-.012 2.935-.012 3.92-.438-.44-.54-.44-.762-.985l.217-.108c-.654-.432-.432-.972-.432-1.416-.978-.76 1.092-1.523.222-2.183.108.12.216.228.324.228.547-.438-.107-.762-.107-1.2-.108-.642-.864-1.734-.864-2.508l-.325-.21h.54l-.216.21M323.95 240.257c1.95-.762 1.29-2.928 1.397-4.242-.87-.972-.006-2.928-.012-3.912-.438.432-.54.432-.756.972l.21.114c-.65.437-.433.97-.433 1.42-.972.763 1.098 1.525.222 2.167.113-.108.215-.21.33-.21.54.432-.11.762-.11 1.194-.107.655-.863 1.747-.863 2.51l-.33.21h.546l-.216-.21M322.287 227.717c1.956.774 1.296 2.94 1.404 4.242-.87.97-.01 2.94-.01 3.917-.44-.438-.54-.438-.763-.978l.216-.103c-.648-.444-.432-.984-.432-1.416-.97-.773 1.093-1.523.223-2.183.114.12.216.21.324.21.546-.42-.108-.762-.102-1.194-.114-.654-.864-1.746-.864-2.508l-.323-.21h.54l-.216.21M318.28 237.047c1.95-.762 1.295-2.94 1.397-4.242-.87-.984-.006-2.94-.012-3.924-.432.445-.54.445-.756.985l.215.102c-.654.444-.438.984-.432 1.416-.978.762 1.092 1.524.222 2.172.108-.108.21-.21.324-.21.54.432-.11.774-.11 1.194-.107.653-.863 1.745-.863 2.507l-.324.21h.54l-.216-.21" fill="#fff"/><path d="M317.007 233.153c1.956.774 1.296 2.946 1.404 4.254-.87.978-.005 2.934-.01 3.918-.44-.438-.54-.438-.763-.984l.216-.107c-.648-.432-.432-.972-.432-1.416-.97-.762 1.093-1.524.223-2.178.114.113.216.22.33.22.54-.437-.108-.76-.108-1.2-.114-.64-.864-1.733-.864-2.507l-.323-.21h.54l-.216.21M313.167 241.205c1.956-.774 1.296-2.928 1.404-4.242-.87-.972-.01-2.928-.017-3.912-.432.445-.54.445-.756.985l.216.102c-.654.438-.432.99-.432 1.422-.977.76 1.093 1.523.223 2.165.108-.102.216-.21.324-.21.54.432-.108.762-.108 1.194-.11.66-.865 1.745-.865 2.507l-.324.222.54-.013-.215-.21M310.545 228.21c1.956.773 1.296 2.94 1.404 4.24-.87.973-.013 2.94-.013 3.93-.438-.45-.54-.45-.762-.99l.216-.1c-.653-.445-.43-.985-.43-1.417-.98-.762 1.09-1.524.22-2.172.11.11.217.21.325.21.546-.43-.108-.773-.108-1.193-.108-.654-.864-1.746-.864-2.508l-.324-.21h.54l-.217.21M306.543 237.54c1.95-.763 1.29-2.93 1.398-4.243-.87-.972-.005-2.94-.01-3.924-.44.444-.54.444-.757.984l.21.102c-.648.443-.432.983-.432 1.42-.97.77 1.1 1.52.223 2.18.114-.12.216-.21.33-.21.54.42-.108.76-.108 1.193-.108.654-.864 1.734-.864 2.496l-.33.22h.547l-.216-.22M303.957 227.285c1.95.762 1.29 2.928 1.398 4.242-.87.972-.006 2.928-.012 3.912-.432-.433-.54-.433-.756-.973l.216-.114c-.654-.438-.438-.972-.432-1.422-.977-.76 1.093-1.51.217-2.165.114.108.216.21.33.222.54-.444-.108-.774-.108-1.194-.11-.654-.87-1.746-.865-2.508l-.324-.222h.54l-.215.222M299.95 236.603c1.955-.774 1.295-2.946 1.403-4.254-.87-.973-.012-2.935-.012-3.92-.437.44-.54.44-.76.985l.215.108c-.648.432-.432.972-.432 1.416-.978.76 1.092 1.523.222 2.183.108-.12.216-.228.324-.228.545.438-.11.762-.11 1.212-.107.642-.863 1.734-.863 2.496l-.324.21h.54l-.216-.21" fill="#fff"/><path d="M301.24 227.717c1.955.774 1.295 2.94 1.403 4.242-.876.97-.012 2.94-.018 3.917-.432-.438-.54-.438-.756-.978l.215-.103c-.654-.444-.438-.984-.432-1.416-.978-.773 1.092-1.523.222-2.183.108.12.21.21.324.21.54-.42-.11-.762-.11-1.194-.107-.654-.863-1.746-.863-2.508l-.324-.21h.54l-.216.21M297.23 237.047c1.957-.762 1.297-2.94 1.405-4.242-.87-.984-.012-2.94-.012-3.924-.438.445-.54.445-.762.985l.217.102c-.648.444-.432.984-.432 1.416-.972.762 1.092 1.524.222 2.172.114-.108.216-.21.33-.21.54.432-.114.774-.108 1.194-.11.653-.865 1.745-.865 2.507l-.324.21h.54l-.215-.21M312.507 231.377c1.95.762 1.296 2.94 1.398 4.242-.87.97-.006 2.927-.012 3.91-.432-.43-.54-.43-.756-.97l.216-.12c-.654-.433-.438-.973-.432-1.405-.977-.762 1.093-1.524.223-2.178.108.102.216.222.324.222.54-.445-.108-.775-.108-1.195-.11-.66-.865-1.746-.865-2.508l-.324-.228h.54l-.215.227M308.5 240.69c1.955-.763 1.295-2.93 1.403-4.243-.87-.972-.012-2.928-.012-3.912-.437.432-.54.432-.76.984l.215.107c-.648.432-.432.972-.432 1.404-.972.775 1.092 1.525.222 2.18.114-.103.216-.21.324-.21.545.43-.11.76-.103 1.193-.114.648-.864 1.734-.864 2.496l-.324.22h.54l-.217-.22M306.303 231.15c1.956.773 1.296 2.945 1.404 4.253-.87.978-.012 2.934-.018 3.918-.433-.437-.54-.437-.757-.983l.216-.108c-.655-.433-.433-.973-.433-1.417-.978-.762 1.092-1.524.222-2.178.107.114.215.222.323.222.54-.438-.108-.762-.108-1.2-.108-.654-.864-1.734-.864-2.508l-.323-.21h.54l-.216.21" fill="#1691ff"/><path d="M302.29 240.48c1.955-.775 1.295-2.94 1.403-4.243-.87-.984-.012-2.94-.012-3.924-.437.444-.54.444-.76.984l.215.102c-.648.45-.432.983-.432 1.42-.972.763 1.098 1.525.222 2.167.114-.102.216-.21.33-.21.54.432-.114.762-.108 1.194-.108.66-.864 1.747-.864 2.51l-.324.22h.545l-.222-.22M318.615 227.37c1.956.76 1.296 2.927 1.404 4.24-.877.973-.013 2.93-.013 3.913-.438-.432-.54-.432-.762-.984l.216-.11c-.647-.43-.43-.97-.43-1.403-.98-.774 1.09-1.524.22-2.178.11.1.217.21.325.21.54-.433-.108-.763-.108-1.195-.108-.648-.864-1.746-.864-2.508l-.324-.216h.54l-.217.217M314.607 236.68c1.956-.773 1.296-2.927 1.404-4.253-.87-.972-.005-2.928-.01-3.912-.44.444-.54.444-.757.984l.21.107c-.648.444-.432.984-.432 1.416-.97.762 1.1 1.512.223 2.166.114-.103.216-.21.33-.21.54.43-.108.76-.108 1.193-.108.648-.864 1.746-.864 2.508l-.323.21h.54l-.216-.21M324.79 231.515c1.95.774 1.29 2.94 1.397 4.242-.87.984-.006 2.94-.012 3.924-.432-.443-.54-.443-.756-.983l.215-.102c-.654-.438-.438-.984-.438-1.422-.972-.762 1.098-1.524.222-2.166.107.108.215.21.33.21.533-.432-.11-.762-.11-1.194-.107-.654-.87-1.746-.863-2.508l-.33-.21h.546l-.216.21M320.78 240.845c1.957-.762 1.297-2.946 1.405-4.242-.87-.984-.012-2.934-.012-3.918-.438.438-.54.438-.762.972l.217.108c-.648.432-.432.984-.432 1.416-.978.763 1.092 1.525.222 2.185.108-.12.216-.228.324-.228.547.45-.107.762-.107 1.212-.108.64-.864 1.733-.864 2.507l-.325.21.54-.012-.216-.198M329.865 226.98c1.956.773 1.296 2.94 1.404 4.253-.877.972-.013 2.928-.013 3.912-.438-.432-.546-.432-.762-.972l.216-.114c-.653-.433-.43-.973-.43-1.423-.98-.756 1.09-1.506.22-2.166.11.11.217.21.325.21.546-.43-.108-.76-.108-1.18-.108-.655-.864-1.747-.864-2.51l-.324-.22h.54l-.217.22" fill="#1691ff"/><path d="M325.857 236.31c1.95-.763 1.29-2.93 1.398-4.243-.87-.972-.006-2.94-.012-3.918-.432.437-.54.437-.762.977l.217.102c-.648.443-.432.983-.432 1.415-.972.774 1.098 1.524.222 2.184.114-.12.216-.21.33-.21.54.42-.108.76-.108 1.193-.11.654-.87 1.734-.865 2.496l-.33.22h.546l-.215-.22M332.78 231.527c1.95.774 1.297 2.94 1.4 4.242-.87.983-.007 2.94-.007 3.923-.438-.444-.546-.444-.762-.984l.217-.103c-.654-.45-.438-.984-.432-1.422-.978-.762 1.092-1.524.222-2.178.108.12.216.222.324.222.54-.433-.107-.763-.107-1.195-.108-.654-.864-1.746-.864-2.508l-.325-.222h.54l-.216.222M328.767 240.857c1.956-.774 1.296-2.946 1.404-4.242-.87-.978-.005-2.934-.01-3.918-.44.438-.54.438-.763.972l.216.12c-.648.43-.432.97-.432 1.403-.97.774 1.093 1.524.223 2.184.114-.12.216-.216.33-.216.54.427-.114.763-.108 1.2-.108.643-.864 1.735-.864 2.51l-.323.21.54-.013-.216-.198M340.03 226.99c1.955.775 1.295 2.94 1.403 4.255-.87.972-.012 2.928-.012 3.912-.437-.432-.54-.432-.76-.972l.215-.114c-.648-.43-.432-.97-.432-1.42-.972-.763 1.092-1.52.222-2.167.114.108.216.21.324.21.545-.432-.11-.762-.11-1.194-.107-.655-.863-1.747-.863-2.51l-.324-.21h.54l-.216.21M336.02 236.32c1.95-.76 1.29-2.933 1.4-4.24-.87-.973-.007-2.94-.013-3.93-.432.45-.54.45-.756.99l.217.1c-.654.445-.438.985-.432 1.417-.978.774 1.092 1.524.222 2.184.108-.12.21-.21.324-.21.54.42-.107.757-.107 1.183-.108.654-.864 1.746-.864 2.508l-.325.21h.54l-.216-.21M342.19 231.293c1.955.762 1.295 2.928 1.403 4.242-.87.972-.012 2.928-.012 3.912-.437-.432-.54-.432-.76-.984l.215-.102c-.648-.437-.432-.977-.432-1.42-.978-.763 1.092-1.525.222-2.167.108.108.216.21.324.21.545-.432-.11-.762-.11-1.194-.107-.655-.863-1.747-.863-2.51l-.324-.21h.54l-.216.21M348.29 227.273c1.957.774 1.297 2.94 1.405 4.242-.87.984-.012 2.94-.012 3.924-.438-.445-.54-.445-.762-.985l.217-.102c-.648-.45-.432-.984-.432-1.422-.978-.76 1.092-1.523.222-2.165.114.108.216.21.324.21.547-.432-.107-.762-.1-1.194-.11-.653-.865-1.745-.865-2.507l-.324-.21h.54l-.215.21M344.29 236.603c1.95-.774 1.295-2.946 1.397-4.254-.87-.973-.006-2.935-.012-3.92-.432.44-.54.44-.756.973l.215.12c-.654.432-.438.972-.432 1.416-.978.76 1.092 1.51.222 2.17.108-.107.21-.215.324-.215.54.438-.11.762-.11 1.2-.107.654-.863 1.746-.863 2.508l-.324.21h.54l-.216-.21M354.47 231.43c1.957.763 1.297 2.947 1.4 4.243-.87.972-.007 2.934-.013 3.918-.432-.437-.54-.437-.756-.97l.217-.12c-.654-.433-.432-.973-.432-1.405-.978-.762 1.092-1.524.222-2.184.108.12.21.217.324.217.54-.426-.107-.762-.107-1.2-.108-.642-.864-1.734-.864-2.508l-.325-.21h.54l-.216.21M350.865 239.225c1.95-.774 1.296-2.94 1.398-4.242-.87-.984-.006-2.94-.012-3.924-.43.443-.54.443-.755.983l.216.102c-.653.45-.437.99-.43 1.422-.98.762 1.09 1.524.22 2.166.11-.102.21-.21.325-.21.54.432-.108.762-.108 1.194-.108.66-.864 1.746-.864 2.508l-.324.21h.54l-.217-.21M359.54 226.895c1.957.774 1.297 2.946 1.405 4.254-.87.977-.012 2.933-.012 3.917-.438-.432-.54-.432-.762-.984l.217-.108c-.648-.432-.432-.972-.432-1.416-.978-.763 1.092-1.525.222-2.18.108.115.216.223.324.223.547-.438-.107-.762-.1-1.212-.11-.64-.865-1.733-.865-2.495l-.324-.21h.54l-.215.21" fill="#1691ff"/><path d="M355.54 236.225c1.95-.774 1.295-2.928 1.397-4.242-.87-.972-.006-2.94-.012-3.924-.432.443-.54.443-.756.983l.215.102c-.654.45-.438.99-.432 1.422-.978.774 1.092 1.524.222 2.178.108-.114.21-.222.324-.222.54.432-.11.762-.11 1.194-.107.66-.863 1.746-.863 2.508l-.33.21h.546l-.216-.21M362.457 231.443c1.956.762 1.296 2.934 1.404 4.242-.87.972-.01 2.934-.01 3.918-.44-.438-.54-.438-.763-.972l.216-.12c-.648-.43-.432-.97-.432-1.403-.977-.774 1.093-1.524.223-2.184.108.12.216.216.324.216.546-.427-.108-.763-.108-1.2-.11-.643-.865-1.735-.865-2.497l-.324-.21h.54l-.215.21M357.59 238.45c1.95-.76 1.297-2.927 1.4-4.24-.87-.973-.007-2.93-.013-3.913-.432.432-.54.432-.756.972l.217.113c-.654.438-.438.978-.432 1.422-.978.762 1.092 1.512.222 2.166.108-.1.21-.21.324-.22.54.443-.107.773-.107 1.205-.108.66-.864 1.746-.864 2.508l-.325.21h.54l-.216-.21M369.71 226.907c1.95.774 1.29 2.946 1.4 4.242-.87.977-.007 2.933-.013 3.917-.438-.432-.54-.432-.762-.972l.216-.12c-.647-.432-.43-.972-.43-1.404-.973-.773 1.097-1.523.22-2.183.115.12.217.216.33.216.54-.426-.113-.762-.107-1.2-.108-.642-.864-1.734-.864-2.508l-.33-.21.545.012-.216.198M365.697 236.237c1.956-.774 1.296-2.94 1.404-4.242-.875-.984-.01-2.94-.017-3.924-.432.445-.54.445-.756.985l.216.102c-.648.45-.432.984-.432 1.422-.977.76 1.093 1.523.223 2.165.108-.108.216-.21.324-.21.54.432-.108.762-.108 1.194-.11.653-.865 1.745-.865 2.507l-.324.222h.54l-.215-.223M377.577 230.927c1.95.762 1.29 2.934 1.398 4.242-.87.97-.006 2.933-.012 3.917-.432-.438-.54-.438-.762-.972l.217-.12c-.648-.432-.432-.972-.432-1.404-.972-.773 1.098-1.523.222-2.183.114.12.216.216.33.216.54-.426-.108-.762-.108-1.2-.11-.642-.865-1.734-.865-2.508l-.33-.21h.54l-.21.21M383.68 226.907c1.95.774 1.29 2.946 1.397 4.254-.87.98-.006 2.935-.012 3.92-.432-.44-.54-.44-.756-.973l.215-.12c-.654-.432-.438-.972-.432-1.404-.978-.774 1.092-1.524.222-2.184.108.107.21.215.324.215.54-.426-.11-.762-.11-1.2-.107-.642-.87-1.734-.863-2.508l-.324-.21.54.012-.216.197M379.67 236.237c1.957-.762 1.297-2.928 1.405-4.242-.87-.972-.012-2.928-.012-3.912-.438.432-.54.432-.762.972l.217.114c-.648.437-.432.97-.432 1.42-.978.763 1.092 1.513.222 2.167.108-.108.216-.222.324-.222.547.444-.107.762-.107 1.206-.108.655-.864 1.747-.864 2.51l-.325.21h.54l-.216-.21M389.853 231.07c1.956.775 1.296 2.94 1.404 4.243-.87.984-.012 2.94-.012 3.924-.438-.444-.54-.444-.762-.984l.216-.108c-.65-.444-.433-.984-.433-1.416-.978-.763 1.092-1.525.222-2.167.113.102.215.21.323.21.546-.432-.108-.762-.108-1.194-.108-.66-.864-1.747-.864-2.51l-.323-.21h.54l-.216.21M386.235 238.09c1.95-.773 1.29-2.945 1.398-4.253-.87-.972-.006-2.934-.012-3.918-.43.437-.54.437-.76.983l.215.108c-.648.433-.432.973-.432 1.417-.972.762 1.098 1.524.228 2.184.11-.12.21-.227.325-.227.54.438-.108.762-.108 1.212-.108.642-.87 1.734-.864 2.496l-.33.21h.546l-.217-.21M394.93 226.547c1.95.762 1.295 2.928 1.397 4.242-.87.97-.006 2.927-.012 3.91-.432-.43-.54-.43-.756-.97l.21-.115c-.65-.438-.433-.978-.433-1.422-.972-.762 1.098-1.512.228-2.166.108.108.21.21.324.21.54-.432-.11-.762-.11-1.194-.107-.66-.863-1.746-.863-2.508l-.33-.21h.546l-.216.21" fill="#1691ff"/><path d="M390.92 235.865c1.957-.762 1.297-2.934 1.405-4.242-.87-.978-.012-2.934-.012-3.918-.438.432-.54.432-.762.972l.217.12c-.648.432-.432.972-.432 1.404-.978.775 1.092 1.525.222 2.185.108-.12.216-.216.324-.216.547.425-.107.76-.107 1.2-.108.64-.864 1.733-.864 2.495l-.325.21h.54l-.216-.21M397.713 229.217c1.95.774 1.296 2.94 1.398 4.254-.87.973-.005 2.93-.01 3.913-.433-.432-.54-.432-.757-.972l.216-.113c-.655-.432-.44-.972-.433-1.416-.978-.76 1.092-1.51.222-2.17.107.107.21.21.323.21.54-.433-.108-.763-.108-1.195-.108-.642-.87-1.734-.864-2.496l-.323-.223h.54l-.216.222M393.147 239.153c1.956-.768 1.296-2.94 1.404-4.254-.87-.973-.01-2.93-.01-3.913-.44.444-.547.444-.763.984l.216.11c-.654.443-.432.983-.432 1.403-.977.774 1.093 1.524.223 2.178.108-.1.216-.21.324-.21.546.433-.108.763-.108 1.195-.11.66-.865 1.746-.865 2.508l-.324.228.54-.01-.215-.217M405.093 226.56c1.956.76 1.296 2.927 1.404 4.24-.876.973-.012 2.93-.018 3.913-.433-.432-.54-.432-.757-.984l.216-.103c-.655-.438-.433-.978-.433-1.422-.978-.762 1.092-1.524.222-2.166.107.1.21.21.323.21.54-.433-.108-.763-.108-1.195-.108-.66-.864-1.734-.864-2.496l-.323-.223h.54l-.216.222M401.08 235.877c1.955-.762 1.295-2.946 1.403-4.242-.87-.99-.012-2.934-.012-3.918-.437.432-.54.432-.76.972l.215.12c-.648.43-.432.97-.432 1.403-.972.762 1.092 1.524.222 2.178.114-.113.216-.21.324-.21.545.427-.11.763-.103 1.2-.108.643-.864 1.735-.864 2.503l-.324.216h.54l-.217-.217M371.607 238.103c1.95-.774 1.29-2.946 1.398-4.254-.87-.973-.006-2.935-.012-3.92-.432.44-.54.44-.756.985l.216.108c-.654.432-.438.972-.438 1.416-.972.76 1.098 1.51.222 2.183.108-.12.21-.228.33-.228.534.438-.108.762-.108 1.2-.11.642-.87 1.734-.865 2.508l-.33.21h.546l-.215-.21M374.115 234.54c1.956-.763 1.296-2.94 1.404-4.243-.87-.984-.013-2.94-.013-3.924-.438.444-.54.444-.762.984l.216.102c-.647.443-.43.983-.43 1.42-.973.757 1.09 1.52.22 2.18.115-.12.217-.21.325-.223.546.432-.108.774-.102 1.194-.114.655-.864 1.747-.864 2.51l-.325.21h.54l-.216-.21" fill="#1691ff"/><path d="M403.09 237.503c1.95-.774 1.29-2.94 1.397-4.242-.87-.97-.006-2.927-.012-3.91-.432.43-.54.43-.756.97l.215.115c-.654.438-.438.972-.432 1.422-.978.762 1.092 1.512.222 2.166.108-.108.21-.222.324-.222.54.445-.11.775-.11 1.195-.107.654-.863 1.746-.863 2.508l-.33.222h.546l-.216-.222M399.843 227.627c1.956.768 1.296 2.94 1.398 4.254-.87.973-.005 2.93-.01 3.913-.433-.444-.54-.444-.757-.984l.216-.11c-.655-.443-.44-.983-.433-1.403-.978-.774 1.092-1.524.222-2.178.107.1.215.21.323.21.54-.44-.108-.763-.108-1.195-.108-.648-.864-1.752-.864-2.508l-.323-.216h.54l-.216.217" fill="#fff"/><path d="M378.783 250.697c0 .87.87-.21.648.762-2.063-.445-2.94 2.273-5.327 1.51-1.086-.33-2.826-.443-3.696-.335-1.194.864-2.286.642-2.934.312 1.848.33 3.696-.63 4.896-1.062 1.523 1.416 3.37.654 4.673.114.33-.54.876-1.303 1.746-1.303M373.005 253.83c0 .863.87-.21.654.773-2.07-.45-2.947 2.274-5.335 1.5-1.086-.33-2.826-.45-3.696-.33-1.195.864-2.287.63-2.935.318 1.848.325 3.696-.647 4.896-1.08 1.525 1.417 3.373.655 4.675.127.33-.534.876-1.296 1.746-1.296M372.31 248.027c-.77 1.944-2.94 1.29-4.25 1.392-.977-.865-2.933-.013-3.917-.013.438-.432.444-.534.984-.762l.108.228c.438-.66.984-.45 1.416-.438.77-.972 1.525 1.092 2.173.222-.102.108-.21.216-.21.318.426.54.762-.102 1.194-.102.648-.108 1.734-.858 2.508-.858l.21-.33-.006.54-.205-.21M393.243 246.983c-.006.87.864-.21.648.762-2.063-.432-2.94 2.274-5.333 1.512-1.086-.33-2.826-.444-3.696-.342-1.193.87-2.28.648-2.933.318 1.854.33 3.702-.63 4.902-1.068 1.517 1.41 3.365.66 4.673.12.324-.54.87-1.302 1.746-1.302" fill="#a8efff"/><path d="M387.465 250.115c-.006.864.864-.216.648.762-2.064-.45-2.94 2.268-5.334 1.506-1.087-.324-2.827-.444-3.69-.324-1.2.85-2.287.63-2.94.305 1.853.336 3.7-.636 4.9-1.08 1.52 1.428 3.367.666 4.675.126.33-.533.864-1.295 1.74-1.295M386.763 244.3c-.768 1.957-2.94 1.303-4.248 1.405-.972-.864-2.934-.012-3.918-.012.438-.444.438-.54.978-.762l.114.21c.437-.64.977-.43 1.415-.43.762-.96 1.524 1.103 2.178.22-.114.12-.216.223-.216.33.432.54.762-.107 1.194-.107.655-.102 1.747-.852 2.51-.852l.215-.33v.54l-.216-.21M400.19 249.293c0 .864.87-.21.655.774-2.064-.444-2.946 2.274-5.334 1.5-1.085-.33-2.825-.444-3.695-.342-1.194.87-2.286.648-2.934.33 1.85.33 3.697-.648 4.897-1.08 1.524 1.416 3.372.66 4.68.132.324-.54.87-1.302 1.74-1.302M394.413 252.42c0 .87.87-.21.654.76-2.07-.43-2.94 2.275-5.334 1.513-1.086-.324-2.826-.444-3.696-.324-1.194.85-2.286.63-2.934.31 1.848.33 3.696-.64 4.896-1.073 1.523 1.416 3.37.654 4.68.114.323-.54.87-1.29 1.74-1.29M393.723 246.623c-.768 1.944-2.94 1.284-4.248 1.392-.978-.87-2.934-.012-3.918-.012.438-.432.438-.54.978-.762l.108.21c.444-.64.984-.42 1.416-.42.767-.97 1.523 1.093 2.177.21-.108.12-.216.223-.216.343.44.54.763-.12 1.195-.12.654-.102 1.74-.864 2.508-.852l.216-.33v.54l-.217-.21M405.273 259.78c-.006.865.864-.21.648.763-2.063-.444-2.94 2.274-5.327 1.512-1.092-.33-2.832-.444-3.696-.342-1.2.87-2.286.648-2.94.318 1.854.343 3.702-.635 4.902-1.08 1.517 1.435 3.365.673 4.673.133.33-.54.864-1.302 1.74-1.29M399.495 262.907c-.006.87.864-.21.648.762-2.064-.445-2.94 2.273-5.328 1.51-1.092-.323-2.832-.443-3.696-.335-1.2.864-2.287.642-2.94.312 1.853.33 3.7-.63 4.9-1.062 1.52 1.416 3.367.654 4.675.114.324-.54.864-1.303 1.74-1.303M398.793 257.11c-.768 1.957-2.934 1.285-4.248 1.393-.972-.864-2.934-.012-3.918-.012.438-.43.438-.54.984-.76l.11.22c.437-.64.977-.43 1.415-.43.762-.973 1.524 1.09 2.178.22-.114.11-.216.21-.216.33.426.54.762-.12 1.194-.107.65-.114 1.735-.864 2.503-.864l.216-.32v.54l-.217-.22M403.87 264.725c-.007.882.863-.198.647.774-2.064-.445-2.94 2.273-5.334 1.5-1.086-.32-2.826-.433-3.696-.33-1.194.857-2.28.647-2.934.317 1.854.33 3.702-.642 4.902-1.08 1.518 1.434 3.366.672 4.674.132.323-.54.87-1.303 1.745-1.303M396.345 269.165c-.006.87.864-.21.648.762-2.064-.444-2.94 2.274-5.334 1.512-1.087-.325-2.827-.445-3.697-.337-1.194.864-2.28.642-2.934.312 1.853.33 3.7-.63 4.9-1.062 1.52 1.416 3.367.654 4.675.114.33-.54.87-1.302 1.746-1.29" fill="#a8efff"/><path d="M395.643 263.357c-.768 1.956-2.934 1.296-4.248 1.404-.978-.87-2.934-.01-3.918-.01.438-.433.438-.54.984-.763l.11.21c.437-.642.977-.42 1.415-.42.768-.984 1.518 1.092 2.178.21-.114.12-.216.222-.222.33.44.552.77-.108 1.2-.108.65-.103 1.74-.853 2.503-.853l.216-.33v.54l-.217-.21M383.397 261.833c0 .864.87-.21.654.762-2.07-.45-2.945 2.274-5.333 1.512-1.086-.33-2.826-.45-3.696-.33-1.193.864-2.285.63-2.933.306 1.848.336 3.696-.636 4.896-1.068 1.524 1.416 3.372.654 4.674.12.33-.54.876-1.29 1.746-1.29M377.62 264.96c0 .87.87-.21.653.76-2.07-.43-2.946 2.275-5.334 1.513-1.087-.33-2.827-.444-3.697-.342-1.2.87-2.286.66-2.934.32 1.847.34 3.695-.63 4.895-1.07 1.524 1.423 3.372.673 4.674.133.33-.54.875-1.302 1.745-1.302M376.923 259.145c-.774 1.962-2.94 1.302-4.248 1.41-.978-.87-2.934-.012-3.918-.012.438-.432.438-.54.978-.762l.108.21c.438-.64.978-.42 1.416-.42.767-.97 1.523 1.087 2.177.223-.108.102-.216.21-.216.318.44.547.763-.107 1.195-.107.654-.108 1.734-.864 2.508-.864l.216-.32-.007.54-.21-.22" fill="#a8efff"/><path d="M368.787 259.63c-.006.865.87-.215.648.757-2.064-.444-2.94 2.274-5.328 1.512-1.092-.325-2.832-.445-3.696-.337-1.2.864-2.285.642-2.94.318 1.855.325 3.703-.647 4.903-1.067 1.524 1.416 3.366.654 4.674.114.33-.54.864-1.296 1.74-1.296M363.01 262.757c0 .87.87-.21.647.762-2.064-.433-2.94 2.273-5.328 1.51-1.093-.33-2.833-.443-3.697-.34-1.2.87-2.286.647-2.94.317 1.854.342 3.702-.63 4.902-1.068 1.524 1.42 3.366.66 4.674.13.33-.54.87-1.3 1.74-1.3M362.313 256.955c-.768 1.944-2.934 1.29-4.248 1.398-.972-.87-2.934 0-3.918-.012.438-.437.438-.54.984-.75l.11.21c.437-.66.977-.43 1.415-.43.768-.98 1.524 1.085 2.172.22-.108.103-.21.21-.21.325.426.54.762-.102 1.2-.102.642-.108 1.734-.87 2.502-.87l.21-.324v.533l-.21-.21M373.12 271.277c0 .858.87-.222.653.762-2.064-.445-2.946 2.273-5.334 1.51-1.087-.34-2.827-.455-3.697-.353-1.194.87-2.28.66-2.934.33 1.847.33 3.695-.642 4.9-1.08 1.52 1.422 3.367.672 4.675.132.324-.54.87-1.303 1.74-1.303M365.57 274.373c0 .864.87-.216.655.768-2.064-.443-2.94 2.275-5.334 1.5-1.085-.31-2.825-.443-3.695-.323-1.194.852-2.28.642-2.934.318 1.85.324 3.697-.648 4.903-1.08 1.518 1.416 3.366.654 4.674.126.324-.54.87-1.295 1.74-1.295M361.617 268.77c-.774 1.955-2.94 1.3-4.248 1.403-.98-.864-2.94-.012-3.92-.012.44-.443.44-.533.98-.76l.107.215c.438-.648.978-.438 1.416-.438.768-.96 1.524 1.104 2.178.222-.113.12-.215.227-.215.33.426.54.762-.103 1.2-.103.648-.108 1.74-.87 2.508-.87l.21-.318-.006.54-.204-.223M387.663 271.92c0 .87.87-.21.654.773-2.07-.444-2.946 2.274-5.334 1.5-1.086-.324-2.832-.444-3.696-.324-1.194.85-2.286.63-2.934.31 1.848.33 3.696-.64 4.896-1.073 1.523 1.416 3.37.654 4.673.114.33-.54.876-1.3 1.746-1.3M381.885 275.063c0 .864.87-.21.654.762-2.07-.444-2.947 2.274-5.335 1.512-1.086-.342-2.826-.45-3.696-.342-1.2.87-2.287.642-2.935.318 1.848.324 3.696-.648 4.896-1.08 1.525 1.416 3.373.666 4.675.132.33-.54.876-1.302 1.746-1.302M381.195 269.25c-.774 1.955-2.94 1.29-4.248 1.403-.978-.864-2.94-.012-3.918-.012.437-.443.437-.533.977-.755l.108.21c.438-.648.978-.438 1.416-.438.77-.972 1.525 1.104 2.18.228-.11.114-.217.222-.217.324.438.54.762-.103 1.2-.103.654-.108 1.746-.858 2.508-.858l.217-.33-.006.54-.21-.21M398.68 275.8c-.007.865.87-.21.647.763-2.064-.432-2.94 2.274-5.328 1.512-1.093-.33-2.833-.444-3.697-.342-1.2.87-2.286.648-2.934.318 1.847.337 3.695-.635 4.895-1.08 1.524 1.43 3.372.667 4.674.133.33-.54.87-1.302 1.745-1.29M392.9 278.927c0 .87.87-.21.65.762-2.065-.445-2.94 2.273-5.33 1.51-1.09-.323-2.83-.443-3.695-.335-1.2.864-2.286.642-2.934.312 1.85.33 3.697-.63 4.897-1.062 1.524 1.416 3.372.654 4.674.114.33-.54.87-1.303 1.747-1.29" fill="#a8efff"/><path d="M392.2 273.13c-.77 1.957-2.935 1.285-4.25 1.393-.97-.87-2.933-.012-3.917-.012.438-.43.438-.54.984-.76l.108.22c.438-.64.978-.43 1.416-.43.77-.973 1.525 1.09 2.18.22-.115.11-.217.21-.217.33.432.54.762-.12 1.194-.12.648-.1 1.74-.85 2.502-.85l.22-.33-.005.54-.216-.21M388.803 287.67c-.006.87.87-.21.648.76-2.063-.43-2.94 2.275-5.333 1.513-1.086-.324-2.826-.444-3.696-.324-1.2.85-2.28.63-2.933.3 1.854.34 3.702-.63 4.902-1.063 1.517 1.416 3.365.654 4.673.114.324-.54.87-1.29 1.746-1.29M382.245 284.027c0 .864.87-.222.654.762-2.07-.445-2.947 2.273-5.335 1.51-1.086-.34-2.826-.443-3.696-.353-1.195.882-2.287.66-2.935.33 1.848.33 3.696-.642 4.896-1.08 1.525 1.422 3.373.672 4.68.132.325-.54.87-1.303 1.74-1.303" fill="#a8efff"/><path d="M382.33 285c-.77 1.955-2.94 1.29-4.25 1.403-.977-.864-2.933-.012-3.917-.012.438-.443.438-.533.978-.755l.115.21c.438-.648.978-.438 1.416-.438.763-.972 1.52 1.092 2.18.228-.115.114-.217.222-.223.324.438.54.768-.103 1.2-.103.654-.108 1.746-.858 2.508-.858l.216-.33v.54l-.215-.21M394.87 288.317c0 .864.87-.21.653.762-2.07-.445-2.946 2.273-5.334 1.51-1.087-.34-2.827-.45-3.697-.34-1.194.87-2.286.64-2.934.317 1.847.324 3.695-.648 4.895-1.08 1.524 1.416 3.372.666 4.68.132.324-.54.87-1.303 1.74-1.303M389.09 291.443c0 .87.87-.222.655.762-2.07-.444-2.94 2.274-5.334 1.512-1.085-.33-2.825-.444-3.695-.336-1.2.865-2.286.643-2.934.313 1.85.33 3.697-.63 4.903-1.074 1.518 1.415 3.366.665 4.674.125.324-.54.87-1.302 1.74-1.302" fill="#a8efff"/><path d="M388.395 285.635c-.768 1.956-2.94 1.284-4.248 1.392-.978-.87-2.934 0-3.918-.012.437-.432.437-.54.977-.762l.114.222c.44-.642.98-.432 1.41-.432.77-.972 1.525 1.098 2.18.222-.11.12-.217.21-.217.33.438.54.762-.12 1.194-.108.654-.102 1.746-.864 2.508-.864l.216-.318v.54l-.215-.222M337.593 250.45c-.006.87.87-.22.648.763-2.063-.444-2.945 2.274-5.333 1.512-1.086-.33-2.826-.456-3.696-.342-1.193.87-2.285.648-2.933.318 1.848.33 3.702-.64 4.902-1.073 1.517 1.416 3.365.666 4.673.126.324-.54.87-1.302 1.746-1.302M331.12 247.77c-.77 1.955-2.94 1.3-4.25 1.403-.977-.864-2.933-.012-3.917-.012.438-.443.438-.533.978-.76l.115.215c.438-.648.978-.438 1.416-.438.763-.972 1.52 1.104 2.173.222-.108.107-.216.227-.216.33.438.54.762-.103 1.194-.103.655-.108 1.74-.87 2.51-.87l.21-.318v.54l-.21-.223" fill="#a8efff"/><path d="M262.605 315.713c0-2.586 1.464-4.086 4.068-4.086 2.598 0 4.068 1.512 4.068 4.086 0 2.592-1.47 4.092-4.067 4.092-2.598 0-4.068-1.5-4.068-4.092zm4.068-2.568c-1.476 0-1.782 1.362-1.782 2.592 0 1.17.307 2.532 1.783 2.532s1.782-1.363 1.782-2.533c0-1.218-.306-2.592-1.782-2.592M275.44 321.07h-2.18v-7.853h3.63c1.327 0 3.043.366 3.043 2.016 0 1.182-.9 1.794-1.998 1.932v.036c1.392.037 1.65.74 1.794 1.957.047.648.173 1.278.36 1.902h-2.36c-.12-.54-.185-1.105-.24-1.657-.083-.948-.125-1.344-1.235-1.344h-.816v3.01zm.845-4.523c.702 0 1.368-.108 1.368-.906 0-.803-.672-.9-1.368-.9h-.846v1.807h.845M281.823 318.365c0-2.58 1.47-4.08 4.068-4.08 2.6 0 4.07 1.5 4.07 4.08 0 2.586-1.465 4.086-4.07 4.086-2.597 0-4.067-1.5-4.067-4.085zm4.068-2.568c-1.475 0-1.78 1.368-1.78 2.598 0 1.164.305 2.532 1.78 2.532 1.477 0 1.783-1.368 1.783-2.532 0-1.23-.306-2.598-1.782-2.598"/><path d="M302.247 324.527v-1.302M315.843 324.365v-1.302" fill="none" stroke="#000" stroke-width="5.436"/><path d="M324.52 322.56v-7.855h3.605c1.926 0 3.186.624 3.186 2.52 0 1.914-1.265 2.52-3.185 2.52h-1.434v2.802h-2.177l.006.012zm3.293-4.327c.858-.036 1.212-.42 1.212-.996 0-.576-.36-.96-1.212-1.008h-1.116v2.003h1.116M332.17 322.427v-7.848h2.177v6.323h3.546v1.524h-5.724M338.81 321.467l3.097-7.836h2.652l3.09 7.837h-2.45l-.52-1.524h-3.187l-.51 1.524h-2.178.006zm5.347-3.048l-1.002-3.26h-.036l-1.063 3.26h2.1M349.653 314.74h-2.406v-1.523h7.038v1.524h-2.46v6.33h-2.172v-6.33M353.9 320.53l3.097-7.853h2.652l3.095 7.854h-2.454l-.52-1.535h-3.187l-.51 1.536h-2.178.006zm5.347-3.06l-1.002-3.27h-.036l-1.07 3.27h2.107M307.85 323.717l-2.975-4.92h2.502l1.698 3.258 1.758-3.258h2.214l-3.048 4.92-.11 4.194h-2.153l.114-4.193"/><path d="M124.942 108.295V69.382h11.835l7.74 29.614 7.635-29.614h11.888v38.913h-7.503V76.91l-7.9 31.385h-8.188l-8.006-31.384v31.385h-7.502M194.076 88.878c0 4.28.95 7.608 2.853 9.986 1.9 2.36 4.56 3.54 7.978 3.54 3.45 0 6.137-1.18 8.057-3.54 1.92-2.378 2.88-5.707 2.88-9.986 0-4.28-.96-7.6-2.88-9.96-1.92-2.377-4.606-3.566-8.057-3.566-3.417 0-6.077 1.18-7.98 3.54-1.9 2.36-2.852 5.688-2.852 9.986m-8.163 0c0-6.288 1.71-11.272 5.125-14.953 3.435-3.698 8.058-5.547 13.87-5.547 5.81 0 10.434 1.85 13.87 5.547 3.45 3.7 5.177 8.683 5.177 14.953s-1.726 11.254-5.178 14.952c-3.435 3.698-8.058 5.548-13.87 5.548-5.81 0-10.434-1.85-13.87-5.548-3.415-3.698-5.124-8.683-5.124-14.952M245.723 108.295V69.382h8.374l15.798 26.734V69.382h7.898v38.913h-8.268L253.62 81.56v26.735h-7.897M309.362 108.295V76.33h-11.544V69.38h31.014v6.947h-11.465v31.965h-8.005M363.333 77.175l-5.39 16.564h10.806l-5.417-16.565m-4.65-7.793h9.247l14.028 38.913h-8.4l-2.643-8.005H355.83l-2.562 8.005h-8.427l13.844-38.913M401.375 108.295V69.382h8.374l15.797 26.734V69.382h7.9v38.913h-8.27L409.274 81.56v26.735h-7.9M471.434 77.175l-5.39 16.564h10.806l-5.416-16.565m-4.65-7.793h9.247l14.028 38.913h-8.4l-2.642-8.005H463.93l-2.56 8.005h-8.428l13.842-38.913" style="text-align:center;line-height:125%" font-size="57.967" font-weight="bold" text-anchor="middle" fill="#ffd90f" font-family="Swis721 BT"/></svg>