<svg xmlns="http://www.w3.org/2000/svg" xmlns:xlink="http://www.w3.org/1999/xlink" width="900" height="600" viewBox="0 0 1107 738"><defs><path id="b" fill="#fff" d="M0-3l1.763 5.427-4.616-3.354h5.706l-4.616 3.354z"/><clipPath id="a"><path d="M0 0h60.5v60.5H0z"/></clipPath></defs><path fill="#bf0a30" d="M0 0h1107v738H0z"/><g clip-path="url(#a)" transform="scale(8)"><path stroke="#fff" stroke-width="12" d="M0 0l60 60M0 60L60 0"/><path stroke="#002868" stroke-width="9" d="M0 0l60 60M0 60L60 0"/><g id="c"><use xlink:href="#b" x="6" y="6"/><use xlink:href="#b" x="14" y="14"/><use xlink:href="#b" x="22" y="22"/><use xlink:href="#b" x="38" y="38"/><use xlink:href="#b" x="46" y="46"/><use xlink:href="#b" x="54" y="54"/></g><use xlink:href="#c" transform="scale(-1 1)" x="-60"/><use xlink:href="#b" x="30" y="30"/></g><path fill="#fff" d="M480 0h627v492H0v-12h480z"/><path fill="#002868" d="M492 0h615v246H492z"/></svg>