<svg viewBox="0 0 360 240" width="750" height="500" xmlns="http://www.w3.org/2000/svg" xmlns:xlink="http://www.w3.org/1999/xlink"><defs><path id="a" transform="scale(.24)" d="M0 215a32 32 0 0 0 32-32v-16h31a32 32 0 0 0 0-64H32V32h199v31a32 32 0 0 0 64 0V32h28a32 32 0 0 0 32-32H0z"/></defs><g id="c"><path d="M0 0h180v120H0z"/><path fill="#EAAB00" d="M0 120V20l30 20v80h30V0h30v120h30V0h30v120h30v-20L30 0v40l120 80z"/></g><g id="b"><path fill="#fff" d="M180 0h180v120H180z"/><path fill="#981E32" d="M270 0h90v60H180v60h90z"/><g transform="translate(270 60)"><use fill="#981E32" xlink:href="#a"/><use fill="#fff" transform="scale(-1 1)" xlink:href="#a"/><use fill="#fff" transform="scale(1 -1)" xlink:href="#a"/><use fill="#981E32" transform="scale(-1)" xlink:href="#a"/></g></g><use x="-180" y="120" xlink:href="#b"/><use x="180" y="120" xlink:href="#c"/></svg>