<svg xmlns="http://www.w3.org/2000/svg" version="1" width="615" height="410"><path d="M0 410h615V0H0v410z" fill="#002a86"/><path d="M281.721 341.873c14.724 3.84 38.112 2.352 38.106 2.574 0 0 7.254-.81 8.994-1.242.864-.642 10.878-3.222 11.97-3.552 0 0 9.882-3.948 12.384-4.812 8.166-3.012 16.044-9.456 23.13-14.886l3.492-2.928c3.492-4.77 7.2-6.936 10.8-11.826 10.8-13.86 16.5-27.246 19.92-42.024 0 0 3.09-17.178 2.574-24.348 0 0-.27-11.298-1.908-18.18-2.79-12.288-6.972-24.258-14.31-34.992-5.304-9.372-12.204-16.788-19.578-23.55-17.142-13.866-34.986-23.208-59.82-25.56-7.182-.576-20.022.258-23.022.54-9.462.618-18.336 4.404-26.826 7.428-17.424 7.35-33.234 19.722-44.802 36-10.704 15.084-16.446 33.138-18.456 51.726-.696 15.654.54 29.73 5.802 44.412 5.292 12.084 11.772 25.278 21.744 34.986 12.468 14.4 29.184 23.01 39.702 26.46l10.104 3.762"/><path d="M282.31 340.829c5.255 1.44 14.291 2.412 20.663 2.532 8.592.57 18.486.174 28.458-2.184 8.046-2.04 14.502-4.158 23.298-8.34 3.888-2.172 10.596-5.976 10.596-5.976 9.606-6.528 21.282-19.212 21.39-19.212 5.784-6.726 10.674-12.84 13.956-20.658 7.974-15.774 10.878-30.81 11.598-47.13 0 0-.72-16.68-4.53-27.378-3.624-14.67-17.22-36.246-21.438-39.42-12.792-14.178-27.342-23.718-43.632-29.64-11.622-4.488-23.238-5.754-36.618-5.796l-11.052.912c-17.838 1.686-31.896 8.694-47.094 18.564-25.062 17.226-38.64 44.508-41.718 72.054-1.68 14.466-.366 26.478 3.432 40.83 5.502 15.132 12.09 29.94 24.894 41.94 7.734 9.492 22.782 18.378 22.782 18.378 3.624 2.718 25.014 10.512 25.014 10.512" fill="#ffd90f"/><path d="M307.503 140.89c7.248-.36 11.598-1.271 25.92 2.185 4.896.9 21.39 8.694 25.914 11.226 9.786 3.63 28.278 24.114 28.278 24.114.972.87 12.102 17.85 12.642 19.164 2.268 5.658 5.286 10.92 6.57 16.908 1.938 8.604 2.208 17.37 3.09 26.94.36 11.298-2.568 23.16-6.072 33.48-3.942 9.45-8.43 17.7-14.436 26.172h-.324c-6.438 6.606-11.136 14.214-19.296 18.762.426.54 1.29.972 1.404 1.734-1.092 1.956-5.328 1.734-5.328 1.944-2.346-.456-6.102 3.786-9.156 5.412-12.042 7.902-31.032 11.874-31.032 11.874-9.132.84-27.732-.306-27.732-.306-7.476-.396-23.97-5.298-29.772-8.67-6.408-2.952-12.492-6.564-19.008-9.414-9.546-8.28-17.682-17.016-25.158-27.15-7.464-12.858-13.848-27.306-15.108-42.54-.522-7.5-.324-20.694-.54-21.564 1.236-15.654 7.662-30.642 15.216-44.106 4.362-8.088 23.214-25.314 23.214-25.314 2.286-1.944 15.192-10.182 16.494-10.512 24.294-12.15 44.232-10.338 44.232-10.338"/><path d="M393.633 188.177c-2.544-3.804-5.586-8.262-6.804-9.468-.864-1.416-2.712-2.61-3.906-3.702-3.036-3.822-18.33-17.976-26.664-21.42-20.298-9.786-30.81-11.064-30.81-11.064-6.528-.726-20.118-1.08-22.656-.54-20.334-.06-41.7 11.532-44.442 13.416 0 0-22.08 14.484-31.326 28.458.978 1.626 2.412 3.75 3.384 5.4 3.156.33 3.906 3.81 4.656 6.21.324 1.194 1.734 2.838 2.712 2.616 3.486-3.696 6.33-8.25 9.822-11.718l1.41-.438c4.242 1.434 3.138 6.318 4.65 9.366 4.344 3.282 6.288 8.178 9.432 12.21 1.632-1.734 3.27-3.138 4.692-4.884 3.258.114 4.794-4.446 8.166-3.342 5.322 3.162 2.796 9.258 5.286 13.722 2.064 1.632 3.258 3.912 3.678 5.886 6.864-5.748 16.332-6.486 25.254-6.132 5.442-.858 10.344-3.996 15.882-3.33 7.836-.408 13.176-7.788 20.79-7.542 4.344 1.428 9.138-.732 13.278-1.926 5.238-5.742 14.142-2.892 20.46-5.586 4.674-.216 7.41-5.208 12.084-5.298l.96-.882" fill="#ffd90f"/><path d="M257.29 182.47c.87-.971 1.091-.54 1.961-1.613l1.08 1.734c-.984 2.928-3.258-.222-5.226.852-1.632 1.524-3.702 1.62-5.652 1.08 0 0-.33.108-.216 0-2.394-.882-4.242-.666-6.528.408-1.524-.324-2.928-1.746-4.458-.774-1.194.54-2.07.216-3.366.54.324-1.302 2.064-1.734 3.156-2.274l.216.108c1.524-.318 3.594-3.258 5.328-.738.978-.21 1.962-1.194 3.048-.54.756 2.178 2.502.762 3.804.342.546-.87 1.524-.66 2.286-.33l.648.552c.534-.21 1.194-.87 1.74-1.194.648.864.756 2.388 2.172 1.848" fill="#fff"/><path d="M408.681 241.313c.294 8.016-.09 15.984-2.748 23.154-3.078 11.418-7.998 22.056-14.772 31.932-1.626-1.308-3.264.318-4.674-.996l-.324.33c-3.696-.552-8.586-.024-11.73-3.516-2.064-1.194-4.236-3.27-3.9-5.88-3.798-4.362-10.104-4.266-15.102-6.354-.864-.552-1.41-1.746-1.194-2.718-3.024-5.124-2.25-11.754-7.134-16.128 2.076-1.614 4.032-1.182 6.21-2.046 1.092-.636 1.632-1.722 1.422-3.144-.756-.864-1.194-1.746-2.382-1.968-4.134-.876-7.188 2.814-11.004 4.104l-1.95-.222c2.286-1.842 5.448-3.576 8.052-3.672 1.086-.54 1.632-1.746 2.184-2.598.87-1.302-1.296-1.968-1.944-2.508-5.496.048-10.134 2.88-14.208 6.594l-2.556-.324c-6.306-2.886-13.626-3.798-19.452-7.032 0 0 2.736.96 3.456.786.726-.192 5.802-2.184 7.254-2.184 1.446 0 7.068 0 8.88.726 1.812.72 5.106.708 7.248 1.08 3.078.54 5.256-.9 5.976-1.626.72-.72 2.718-1.806 5.076-1.632 2.352.186 10.068-.864 13.05-.54 1.632.192 2.538.918 5.436 1.092 2.904.174 6.714.36 7.62-.54.906-.9 3.618-2.352 7.794-1.992 2.73.234 6.882.54 9.42.9 2.538.366 6.162-1.086 9.246-1.272 1.716-.096 6.744-1.806 6.744-1.806" fill="#1691ff"/><path d="M408.55 238.39c-.229-4.253-.6-8.507-.87-12.63-1.633.433-3.81.199-4.135.319-.438.54-.762-.12-1.2-.12l-9.57-.246c-5.658 1.398-11.634-.36-17.184-.048-8.04.858-15.546.492-22.728 1.128-4.122-1.968-8.268.306-12.396-.468-8.37-.996-16.644 1.908-24.582.372-2.934-.126-5.556 1.71-8.052 1.278-4.008-2.844-9.132-.456-13.374.174-1.854-.444-3.588-1.968-5.436-1.428-.438 1.302-2.598.108-2.928.96l.756.984c.096 3.48 3.354 3.39 5.646 4.362 2.064.984 2.49 2.622 3.354 4.476 2.484.666 4.476 2.52 6.504 4.242 0 0 17.472.456 18.744-.258 1.272-.726 19.032-1.092 25.374-.726 6.348.366 12.51-1.626 16.314-1.452 3.81.186 20.664-1.44 23.928-.54 3.258.912 12.504.726 13.41 0 .9-.714 8.418-.378 8.418-.378" fill="#a8efff"/><path d="M339.831 259.169c-.54-.114-.978-.546-1.524-.546" fill="#fff"/><path d="M338.313 258.623c-4.038 3.348-7.308 7.368-10.038 11.268-.114.66.108 1.092.54 1.422 3.27-1.41 4.152-5.1 6.552-7.596 1.206-2.928 2.958-1.746 4.584-5.016l-1.632-.078" fill="#a2d100"/><path d="M287.337 310.463c-1.38.246-2.904.354-4.422.42-5.004-.018-10.44-1.452-15.216-3.09 3.162-3.036 8.382-4.218 12.09-7.254.654-1.416 1.098-2.928 1.206-4.452 2.442 3.828 4.002 8.376 5.544 12.816l.798 1.572" fill="#a81800"/><path d="M288.483 310.229a9.143 9.143 0 0 0 1.062-.306c-3.138-4.788-3.768-11.754-.168-16.638 1.308-.75 2.178.654 3.366.666l3.948-10.548-.54-.21c-.654.21-2.178.318-2.178.21l-7.83-.018c-2.61-.012-5.766-.24-8.484.078-2.826-.444-6.972 2.052-8.592-1.332.012-2.826-1.392-5.442-.948-8.262-.21-1.2 1.092-1.854 1.962-2.172.108.762 1.194.33 1.416.438 1.656.948 5.436.234 8.376.03 4.242-.534 9.354-.528 12.942-.726-.102-2.178-2.928-4.146-1.398-6.3 1.962-.66 4.032-2.052 5.334-.756l5.412 7.842c.87-1.404 2.076-3.036 2.844-4.65 1.638-2.616 2.412-5.436 4.26-7.83 1.956.774 5.772-1.068 5.652 2.298-1.854 2.928-2.52 6.408-4.704 9.234 1.416.222 4.026-.096 5.328.012 2.394.342 4.674-1.29 7.614-1.5.876-2.496 2.082-5.214 3.72-7.056 1.668-1.944 3.426-3.948 5.304-5.802l-1.758-.63c-1.992-.222-3.906-1.476-5.7-2.052-5.106-.552-9.45-3.174-14.01-5.04-3.36-4.794-8.472-3.504-13.152-5.154-1.542-.576-3.264-.846-4.95-1.128l-2.226-.126c.492 2.106-2.646 3.762-.99 6.456-.984 1.854-3.486 2.166-5.118 2.604-.864-.12-1.194 1.074-.984 1.524 1.632.534 2.826.756 4.458.666 3.588 1.848 8.7.114 11.958 2.964.21 1.092-.444 1.854-1.206 2.496-2.604-.774-3.372 1.29-6.09 1.182-4.89-2.742-9.252 1.278-14.028-1.242-4.026 1.734-6.846-.996-10.764.726-3.162 1.2-5.652-1.206-8.478-1.218 1.518 2.286.312 4.14 1.608 6.54-.546 1.08-1.2 1.62-2.4 1.944.438.33 1.086.438 1.416.33.87.444 1.734 1.092 1.95 2.178-.222.762-.66 1.524-1.422 1.734-2.286.762-5.55 1.29-7.608-.024-.762-.534-1.74-.984-1.518-2.058.324-.45.762-.762 1.296-.66.654-.102.984-.972.768-1.302-.102-1.296-1.194-1.194-1.95-1.956-2.82-2.19.558-4.674.024-7.29-.654-.21-1.092.33-1.734.216-.336 2.178-.342 4.896.624 7.182-.438 1.302-1.848 2.052-2.94 1.944.648 1.182 3.15 1.314 2.706 3.378-2.28 1.194-6.084-.462-8.586-.024-.87-.552-1.41-1.206-1.41-2.184.768-.972 1.74-1.524 2.94-1.512.222-2.178-2.496-2.412-2.928-4.146-.102-1.854.012-3.258 1.428-4.662l-4.782-.024c.318 2.076 2.052 4.032.852 6.198-1.092 1.626-2.94 1.734-4.356 2.376.87.012 1.854.12 2.502-.198 1.2.21 1.524 1.092 2.172 1.956.858 1.314.096 2.934-.774 3.918-.978.324-2.832.102-3.48.432-2.61-.444-4.566-1.104-7.068-.786-1.194-.444-1.848-1.638-1.62-2.94.984-1.524 2.838-1.944 4.356-2.604.87-1.296-1.086-1.086-1.518-1.956-1.086-.864-1.626-2.178-1.188-3.702.546-1.854 2.292-3.15 3.708-4.122-1.41-.108-2.61.102-3.696.75-.87-.108-1.2.534-2.394.21-1.74-.33-3.702.75-5.436-.234l-.216.222-.762-.774c-.534-1.422-.096-3.036 1.206-3.69 1.956-1.29 5.328-1.5 7.944-1.386.324-.21.33-.972-.102-1.206l-.216.222c-.972-1.194-3.156-.012-3.912-.996-1.848-1.524-3.906-4.032-3.354-6.642.336-1.95 3.162-2.052 2.946-4.116-4.02-.126-8.262.186-12.288.612-1.23 12.174 2.214 23.388 5.118 34.38.648.984 2.064.882 2.934 1.428 13.152 1.446 26.304 2.58 38.592 5.976 2.7 2.616 6.828 5.136 8.232 8.838 3.48-.642 6.852-1.29 10.332-.186 1.086.444 2.718.654 3.366 1.416l.114-.21c.432.552.972.87 1.626.984 4.062 4.398 5.544 10.206 7.398 15.762l.84 1.758" fill="#a2d100"/><path d="M289.743 241.63c-1.086-1.973-2.382-4.151-3.684-5.897-.864-1.194-1.95-1.626-3.366-1.314l-.108.108c-2.052-3.69-5.196-8.166-9.762-8.616-1.842-1.848-1.29-4.674-2.154-6.852-1.878-2.94-3.264-6.12-5.022-9.036l-1.152-2.616c1.986-2.352 4.686-3.936 7.422-5.352l1.824 1.524c.666.48 1.422.984 1.644 1.794-.126 6.852 4.968 11.538 7.554 17.316-.066 1.02-.012 2.124.366 3l.822 1.68c3.366 1.428 1.938 7.512 6.618 6.222.648.444 1.626.762 2.388 1.206.756 2.274 2.376 4.782 5.208 5.334 1.842 1.206 2.922 2.292 4.77 3.504-3.312-.516-7.182-1.866-10.842-1.83l-2.526-.174" fill="#e8d9a8"/><path d="M359.32 204.587c.257.126.683.222.677.702.33-.12.654.102.978.102.438.228 1.524.552 1.524.012l.426.426c-.102-.198 0-.318.114-.426 3.798 2.508 7.836-1.722 10.65 2.208 0 .972-.87 1.614-.87 2.166-.216-.108-.114-.432-.114-.54-.534.108-.972.21-1.404.108v-.108c-.66 1.08-2.064-.774-1.746.972-.54-.774-1.74-.324-2.178-.444v-.222l-.216.222-.534-.552c-.546.222-1.524-.642-1.956 0l-.654-.654-.318.432c-.114-.108-.216-.21-.216-.432h-.54c-.114-.12-.324-.21-.216-.33l-.216.12-.972-.774-.006.432c-.54-.21-1.086.54-1.524-.432 0 .432.654.762.108 1.182l-.756-1.182c-.33.102-1.194-.012-.984.642-.768 1.41-.426-.222-1.302-.222 0 .21-.108.33-.21.33l-.648-.54.21.21-.54.54c-.108-.762-.978-.33-1.41-.774l.216-.21c-.438.114-.876.762-1.194 0l.216-.21-.216.21c-.438-1.092-1.746.318-1.524-.984-.216 0-.54 0-.654.21l-.324-.54c-.33.54-.864-1.092-.978 0-.216 0-.324-.114-.438-.21.114-.12.216-.222.222-.444l-.444.654c-.108-.114-.21-.222-.108-.444l-.216.222c-.324.108-1.086-.12-.972-.222l-.216.222c-.108-.12-.21-.222-.21-.444-.768.21-1.194-.33-1.524.432-1.2-.222-1.092.33-1.956-.012-.654.54-1.308.54-1.632.762-1.524-1.092-2.61.87-4.02.198l.108.222c-.438.108-.984.54-1.308.096 0 .552-.762.54-.216.984-1.854 2.382-5.118 2.37-8.052 2.592-3.042.75-3.63.024-5.802 1.32 4.008-.702 2.724 1.164 4.056.624.978.21 2.058 1.314 3.15.342 1.632.864 3.702-1.62 4.674.444-.114 2.064-2.61 1.614-3.702 1.944-2.604-.552-4.782-1.428-7.5-.786-1.2.54-1.278.69-2.586.144.108-.108-1.524-.192-1.632-.414h-2.442c-2.61-.864-3.234-.618-5.844.234-2.502-.336-4.35 1.398-6.204.198-2.712.54-5.868.528-7.716.528-2.064-.336-3.702 1.29-5.658 1.938-1.944.702-3.834 2.19-5.406 3.9l-2.28.612-.156-1.056c8.292-8.358 21.228-5.382 30.582-7.734 5.448-3.588 12.294-.846 17.85-3.87 6.21-2.484 11.556-8.118 19.374-5.598.864-.216 1.956.114 2.508-.318.45 1.368 1.65.936 2.922.924l2.148.354" fill="#e8d9a8"/><path d="M360.117 203.297c2.118-.456 4.098-2.088 6.528-1.914 2.178-1.404 4.464-2.154 7.182-2.586.864.432 1.848 0 2.604-.21l.216.21c1.308-.972 3.588-.42 5.004-1.512l2.178.012c0 .21.108.33.216.33 1.524-.99 3.918-.216 5.118-2.052 1.32-2.52 4.566-2.274 6.33-3.798l-1.5-2.592c-1.044.258-3.03 1.302-4.062 1.818-5.34 4.992-13.068 5.508-20.028 6.468-5.76-.888-9.15 5.19-14.7 5.616v.324c.216 0 .54 0 .648.216-.21-.438.768-.426.984-.978.54.228-.33.87 0 .66l.324-.432c.03.234.132.408.288.522l2.646-.114" fill="#e8d9a8"/><path d="M335.961 224.705c4.692.048 9.75.648 14.304-.09 1.848.324 2.388.876 4.344.996 6.414-.306 13.71-.954 20.016-.93 5.868-1.062 11.298 1.128 16.638.048 5.538-.528 10.542-.084 16.2-.162v-.444c-.762-11.334-5.412-21.474-10.854-31.164l-2.1.168c-2.19 1.008-4.554 1.59-6.096 3.75-.438.324-.762.324-1.2.654-.33-.342-.768.318-1.194.318-2.718-.33-5.442.75-8.598.948-1.194.864-2.832.864-4.134.75-3.696-.12-6.426 3.348-10.344 3.126-.978.21-1.746.972-2.616 1.62l.978.762c1.194-.648 1.74.222 3.156.012-.114.324.216.324.432.54l.546-.762.54.762c.324-.108.216-.318.216-.54l1.194.012c0 .21.102.324.21.324l.324-.534c0 .21.108.324.216.432l.216-.21c.54 0 1.854-.66 2.934.324l.21.222c.114-.534.984-.114 1.308.216l.426.444.216-.222c1.626.876.108 2.286.534 3.702-2.604.54-3.918.96-6.636.738-2.28-.876-4.458-1.314-7.284-1.536l-.324-.444-.438.432c-5.226 1.842-8.58-4.254-13.914-2.424-.972.432-3.366.852-4.668.42-1.524.318-3.264 1.29-4.146 3.144-3.048 1.512-6.54.84-9.474 1.92 2.496 2.61 9.372-3.342 8.484 2.964-4.032 3.366-9.378-1.044-14.064 1.116 0-.216-3.996-1.488-5.628-1.398-4.02-.222-6.858 2.052-11.424.948-2.826.108-5.658 1.08-9.03.738-2.802.93-5.682 3.12-8.166 5.1l-3.006 1.854.27 1.812 1.362 1.212c1.704-.084 3.366-1.266 5.49-.75 4.986 3.174 9.792-2.04 14.79.03 3.03 2.73 6.414-1.17 9.78-.396 4.194 1.032 8.052.654 12.21.096 0 0 1.362-4.362 1.902-4.77.546-.414 3.672-1.914 4.626-2.58.948-.69 6.528-3.984 8.7-3.984 2.178.012 13.302-.504 16.638-.162 3.342.336 7.692.84 7.284 1.53-.408.708-2.178 4.5-3.804 3.282-1.632-1.218-2.31-1.086-6.936-1.086-4.614 0-4.614 0-8.424.408-3.804.408-5.922-.33-8.466 1.662-2.544 2.004-4.17 4.992-4.17 4.992" fill="#a81800"/><path d="M274.605 202.559c1.596.96 2.136 2.916 2.514 4.548.426 5.004 3.24 9.138 6.486 12.96.108-.21.54-.54.108-.762-.42-3.156-3.576-4.674-4.002-7.842-2.382-3.582.024-8.916-4.32-11.214-.756.408-1.536.798-2.322 1.194l1.524 1.104M263.661 208.523a11.14 11.14 0 0 0-.576.936h-.654c-.108-.432-.54-.762-.318-1.404-2.928-3.06-3.9-7.416-7.698-9.924-4.668-2.736-1.062-8.7-5.838-11.22l-1.416 1.668.876 2.472c.336 1.068.408 2.364 1.386 3.138 3.138 4.476 10.092 7.116 9.858 12.87.858 6.528 9.768 9.06 9.636 15.9.54 1.314-.228 3.168 1.074 4.14 4.35.126 5.748 5.13 9.774 5.904-.966-2.94-4.002-5.67-7.158-5.892-3.804-2.196-1.716-7.512-4.65-10.362-1.212-2.154-2.514-4.404-3.468-6.516l-.828-1.722" fill="#a89982"/><path d="M246.255 189.64l-5.334 6.307-.006 2.79c-.318 1.83-.252 3.69.648 5.334 4.014 4.356 2.91 10.884 7.794 14.916 1.29 1.956 2.16 4.032 2.7 6.318 6.294 2.298 13.362 2.976 18.786 7.662 2.172.66 4.566 1.326 6.408 2.19 1.746-1.734 2.496 1.2 4.134.228 0-.216-.114-.318-.216-.438-.978.858-1.524-.984-2.172-.984-3.804-.012-5.088-6.318-9.336-5.682-2.496-1.314-1.614-4.14-2.37-6.096-.42-6.852-9.984-8.61-9.306-16.122-1.614-5.334-8.028-8.178-10.734-12.87.054-.618-.216-1.194-.408-1.77l-.582-1.788" fill="#e8d9a8"/><path d="M240.01 197.003l-1.369 1.62c-.762.312-1.41.102-1.956.534-3.258-1.746-3.03-5.34-4.548-7.956-3.36-.336-4.5-4.194-6.018-6.27-.654.762-.396 1.854-1.266 2.172.102.762.336 2.118.876 2.448 2.712 2.178 4.008 3.42 6.834 6.102.966 1.314 1.188 3.048 1.944 4.362 3.144.222 1.944 3.81 2.478 5.88.3 7.398 11.286 9.06 10.5 16.992.21 1.2 1.296 2.616.642 3.708-.54.21-.864-.12-.978-.54-2.502.09-5.106.528-7.506.408l-4.23-2.952c-3.912-1.674-7.128 1.146-10.194 3.306l1.548-.186c.372-.144.774-.282 1.026-.636 1.416-.642 2.61-1.08 3.918-1.194 1.956-.198 3.366.336 5.22.456 2.826.444 2.598 3.702 4.878 4.908 3.048-.21 4.668 2.838 7.278 3.72-.21-2.076-2.598-3.06-3.576-4.692.984-1.302.978.762 1.956.552-.108-1.638 2.28-.108 3.156-.54v.21l.438-.432c4.572-.42 10.008.036 12.708 4.932 1.086.87 2.724-.75 3.696-.21 3.918.132 4.662 4.698 7.38 6.552h.654l.006-1.842c2.292-4.344-4.452-2.742-6.294-5.028l.216-.21-.216.21c-.762-1.416-2.388-1.308-3.474-2.4-2.28-.33-3.912-1.638-5.868-2.19l.216-.21c-1.956.42-4.674-.456-6.306-1.536-.978-.012-2.28-.666-3.15-.996-.318-4.35-3.348-7.632-5.844-11.214-.18-5.964-6.852-10.446-4.98-16.29l.204-1.548" fill="#a89982"/><path d="M228.693 233.873c-.432.03-.9.234-1.14.174-2.178.102-1.314 3.588-3.708 3.138l-1.194.984c-4.134.204-8.154-.03-11.748.282-.216.21-.438.54-.768.432-.756-1.626-.42-4.344-.198-6.3 3.81-.972 7.614-.96 10.122-4.218-2.928-2.184-6.738-1.116-9.894-.246 1.566-14.358 6.822-27.6 13.602-40.092-.222 2.61 3.474 2.94 4.116 5.448 4.89.894 3.132 6.972 7.374 8.286.858 2.4-.126 5.334 1.5 7.62 1.722 4.686 8.25 6.336 9.426 11.34-.222 1.416.21 2.616.312 3.918-3.48.432-7.944 1.284-10.542-2.31-1.626-.33-3.69-1.206-5.22-.012-2.556.384-4.488 2.376-6.462 4.11l-1.068.93 2.538.174 1.29-.21c1.374-.258 2.808-.972 4.23-1.302 2.61.12 4.788-.528 6.636 1.428 1.284 5.226 7.164 3.072 9.444 7.206 1.41.33 2.928 1.974 4.242.774-.108-.762-.978-.642-1.524-.984.216-1.302-.426-3.036-1.62-3.912 5.226-.42 10.77-1.488 13.908 3.96.438.972 1.74.648 2.604.972-1.974 5.664-9.462 1.62-13.164 2.91l-14.142.828-.984.54c-.324-.54-.972-1.416-1.734-1.524-2.268.882-2.658-1.65-3.918-2.52l-2.322-1.806" fill="#e8d9a8"/><path d="M230.115 236.063c.942.786 1.452 2.154 2.316 3.102 1.302.87 3.264-.312 3.48 1.974-1.428 2.928 2.154 5.976-1.332 7.824-3.588-1.65-5.34 3.672-8.484.738-1.302-.126-2.826.198-3.69-.996-.864-1.302-2.388-2.94-1.728-4.674.222-2.076 3.702-2.274 2.946-4.56.768-2.178 3.702-1.614 3.708-4.23.276-.27.624-.408 1.014-.516l1.776 1.326" fill="#008600"/><path d="M372.057 209.345l-.33.432.33-.432" fill="#fff"/><path d="M218.325 228.467c-2.616 2.274-5.01 2.274-8.382 2.916-1.614-4.026 3.27-2.586 5.124-3.468 1.194-.642 2.178.45 3.258.552" fill="#a89982"/><path d="M246.165 253.805a1.858 1.858 0 0 0-.72-.132c-2.064-.762.12-3.48-1.074-4.344-1.416.762.102 2.166-.66 3.15-.444 1.854-2.94.42-3.27 1.944 1.506.096 2.934-.036 4.296-.3l1.434-.306" fill="#a2d100"/><path d="M269.655 250.18c.438-.245.978-.347 1.464-.347 1.092-.438 1.962-1.41 1.968-2.604 3.048-1.944-.102-4.452.018-6.852-1.296-1.302-2.49-3.048-3.684-4.68-4.23-3.384-3.378 4.23-7.08 4.326-3.594 2.826.966 5.004.63 8.166.21 1.092.756 2.172 2.058 1.956.354.168.618.378.834.612l3.786-.564" fill="#008600"/><path d="M268.107 252.899c.48-.276 1.05-.57.726-1.542l-2.562.09c.162.456.204.96.198 1.512l1.638-.06M280.677 253.99c.114-.54.006-1.523-.318-1.181l-1.176 1.158 1.494.036" fill="#a81800"/><path d="M278.391 254.74c-3.81 1.843-6.63-2.087-10.434-.455l-1.974-.162c-1.152 1.158-2.946.522-4.656.9-.978-.33-2.088.444-2.844.162l-3.246-.174c-1.854.318-4.14 1.182-6.204.846-1.176-.072-1.56-.942-2.154-1.548l-1.872.828a28.183 28.183 0 0 1-5.43.258c-.108-.21-.54-.432-.324-.756h-.762v.324c-2.106-.738-5.232-.27-7.224-1.512l-3.534-.27c-3.042-.222-6.312.306-8.814 1.71-.33.54-.444 1.644.108 1.962 4.02.234 6.96.024 10.662-1.266.324.432 1.296-.222 1.296.54 1.848.756 3.588.114 5.106 1.428v-.432l6.636-.204c.438.216.978.648 1.416.216.984-.75 1.416-.108 2.286-.978.216.33.87.552.648.984h1.2c1.296.12 2.94-.96 4.02.228-.108.114-.216.222-.108.444.324-.222 1.086 0 1.092-.648 1.41-.324 3.696-.21 4.89.984 2.718-2.376 5.97 2.088 8.04.786 4.248-1.722 8.376.354 12.408-.948 4.89 2.19 9.462-1.602 13.812 1.02 1.74-.108 4.782-.306 6.09-1.278-2.496-1.638-6.306-.786-8.802-1.98-2.7-.012-5.178-.468-7.548-1.242l-3.756.222" fill="#008600"/><path d="M257.841 254.47c.042-.335.174-.605.36-.821l-1.848-.396a3.037 3.037 0 0 1-.372.9" fill="#a81800"/><path d="M258.897 253.139c.75-.378 1.734-.54 2.43-1.044.876-2.508.234-6.204-1.17-8.814l-3.048.42c-.978.762-1.854 1.854-2.4 2.934.432 1.194.864 2.502.75 3.702.654.102.432.864.756 1.194.126.294.192.6.204.876l2.478.732" fill="#008600"/><path d="M230.475 252.82a3.87 3.87 0 0 1-.792-1.373c-1.116-.15-1.182.504-1.482 1.116l2.274.246" fill="#a81800"/><path d="M287.247 239.435c.432 2.064 3.144 4.464.744 6.528l-.012 3.702c-1.956.972-5.112.636-6.096 2.922-.318-2.718-5.766-.234-4.662-4.374-.54-1.074-2.826-1.524-1.404-3.048-.972-1.194.876-2.376 1.2-3.36.774-1.734-.75-3.48.672-5.322.216-.54 1.092-.432 1.524-.102.438.756 1.524.984 2.394.546.972-.972 2.07-1.734 3.258-.54.324 1.314 1.626 2.076 2.382 3.06" fill="#008600"/><path d="M261.033 239.8c-.33 1.087-1.092 1.405-1.638 2.389-1.74.096-3.81.096-4.68 2.052-.216.432-.33.972-.768 1.194-2.28-.774-4.122-3.174-6.63-2.52-1.41.318-2.178 2.826-3.804 2.172-1.086-1.314-1.518-2.406-3.258-2.85-1.2.108-2.178.54-3.162 1.194.546-.972-.102-1.956-.204-2.928.216-.654.978.54.978-.33 8.04-.408 16.092-.816 23.16-.36M275.283 241.583c-.006.21.108.642-.222.762-.432-.108-.432-.87-.21-1.092.108.21.54 0 .438.33" fill="#a2d100"/><path d="M243.945 246.599c.318 1.086-.444 2.058-1.422 2.388-.768 1.092.864 2.508-.552 3.48-.978.54-2.064-.444-2.508.972-.204-1.308-3.258-.456-1.95-2.508-.42-2.07-.204-3.804-.198-5.766.762-.654 1.416-1.524 2.286-1.734 1.95.222 2.49 2.718 4.338 3.168M254.163 248.369c.318 2.07-3.816 1.404-1.974 4.122-1.194.87-2.934.648-3.918 1.524-.54-.984-2.28-1.104-2.604-2.076.654-.864.66-1.746.006-2.61-1.194-.438.006-2.064-.306-3.258.972-.87 1.74-2.172 3.042-1.944 1.956.756 4.998 1.968 5.754 4.254" fill="#008600"/><path d="M398.38 246.293l.437-.444-.216-.21.432.654.108-.222c.324.012-.54.324-.972.222h-.114l.006-.762h.108c.108.21-.108.54.216.762M397.185 246.61h-1.308l.216-.107c-.108-.12-.216-.342-.432-.222-.006.762-.87 0-1.2 0l.216.21c.438-.762.864-.21 1.416-.642-.114.312.21.432.324.654.108-.54.762-.54 1.194-.864-.114.432.432.972-.438.972M387.615 246.245c0-.198-.546.444-1.2.762-.648-.432-1.302.21-1.956.54l-.324-.318-.216.21c.54.222 2.724-1.302 3.702-1.194M382.713 246.995v.444c-1.41-.984-2.28-.444-3.258.096l-.216-.108c-1.962 1.512-5.55-.558-7.836.954-.432-.108-1.086.102-1.41-.228 2.178-.09 4.464-1.512 6.312-.408 1.302.12 2.826.12 3.918-.75.216-.114.216-.432.216-.54.114-.114.216.108.324.108l.216-.318c.438.432 1.194.54 1.734.762M390.543 246.809l.216-.21-.216.21.438.432.216-.21v.21c.54.12 1.416-.198 2.07-.42-.216 0-.876 1.404-1.746.642h-.54c-.216-.114-1.2-.552-1.74-.864v-.33c.438.21.978.222 1.302.54" fill="#fff"/><path d="M278.727 252.353c-.546 1.524-2.508.972-3.486 1.404-1.956-.33-3.258-1.314-5.322-.996-.318-2.178 2.61-1.404 3.594-2.928l1.2-2.604c2.934 1.416.312 5.226 4.008 5.124M236.535 250.055c-.438.654-.876 1.416-.444 2.178.432.54.972 1.092 1.734.984v.762c-2.388-.774-6.306.306-7.608-2.964 1.314-2.166 3.588.552 4.902-1.722.768-.54 1.302.114 1.416.762" fill="#a2d100"/><path d="M348.663 251.039c-.876 2.706-3.816 1.932-5.664 2.916-6.642 3.456-11.442 8.886-15.924 15.18-.216 1.086.108 2.718 1.41 3.162 1.518.864 2.61-.762 3.702-1.734 3.72-7.926 10.8-12.258 18.204-15.39 1.194.33 3.156-.09 3.366 1.536-1.098 2.172-3.702 1.08-5.556 2.16-6.426 3.678-11.562 10.944-16.464 15.936-.876 1.416-2.076 2.928-3.276 3.798-4.566-.996-8.262-1.446-13.158-1.992-1.53 2.496-3.168 4.452-5.346 6.396-.42-2.178-2.814-3.6-3.894-5.448 1.302-1.854 1.752-3.918 3.822-5.1 4.782.882 9.786-.738 14.034-1.59 2.628-7.488 9.174-13.572 15.492-18.342 2.94-.858 5.988-3.132 9.252-1.5" fill="#354600"/><path d="M255.237 252.935c-.984 1.632-2.616 1.62-4.68 1.512 1.302.33 2.61-.42 2.934-1.512.33-.864-.756-1.848.66-2.178.978.12.426 1.524 1.086 2.178M265.24 252.97c-.769.433-2.287.649-3.265.529.978-.642.546-1.842.984-2.706.54.972 2.928.222 2.28 2.178" fill="#a2d100"/><path d="M367.041 252.07l.216-.21c-1.524.973-3.486.63-5.118.739.768-1.092 2.724-.528 4.578-.96l.324.444M368.985 257.95l.216-.221c-.006.222-.006.54.21.54l.33-.318-.114.21c1.302.552 1.956-.534 3.048-.198 0 .21.102.318.21.318l-.54.222v-.222h-.978v.654c-.114-.114-.216-.222-.438-.222-.438.444.216 0 0-.21-.216-.108-.324-.432-.54-.33-.216.108-.216.33-.216.54 0-.21-.108-.33-.216-.432 0 .642-.762.432-.978.21-.324-.972-1.842-.33-.966-1.314.534-.198.858.45.972.774" fill="#fff"/><path d="M232.791 265.78c1.308-.443 3.21-.761 3.492-2.015.33-1.302.222-2.718-.642-4.02-.426-3.048-4.338-2.742-5.436-.996-1.524.75-2.508 2.814-2.406 4.452.612 1.02 1.692 1.656 2.634 2.358l2.358.222M229.51 268.03c-1.039.589-2.515.847-3.253 1.573-.546.762.102 1.524.756 1.848 3.588-1.29 6.522 1.866 9.786-.186.654-1.194-.318-2.064-.756-2.928-.66 0-1.806-.18-2.742.054l-3.798-.36" fill="#008600"/><path d="M229.983 267.713c.408-.336.678-.798.69-1.44l1.284-.132c-.486.318-.612.774.03 1.524l-2.004.036" fill="#a81800"/><path d="M367.017 258.269c-.768 1.956-2.934 1.302-4.248 1.404-.972-.864-2.934-.012-3.918-.012.438-.444.438-.534.984-.762l.108.216c.438-.66.978-.438 1.416-.438.768-.972 1.524 1.104 2.178.222-.114.108-.216.228-.216.33.432.54.762-.102 1.194-.102.648-.108 1.74-.87 2.502-.87l.216-.318v.54l-.216-.222" fill="#fff"/><path d="M246.531 266.273c.618-.138 1.446.024 1.698-.294.654 0 .546-.762.546-1.302-2.172-1.524.228-4.242-1.176-5.88-.762-.648-1.632.21-2.286 0v-.432c-1.302-.012-2.07 1.074-3.156 1.392-2.79 2.52.468 3.798 1.716 5.874l2.652.642M246.525 269.099c.486.54 1.164.924 1.806 1.218-2.286-.222-4.788-.222-6.96-.774.486-.552 1.32-.624 1.98-.882l3.168.438" fill="#008600"/><path d="M243.933 268.313c.21-.21.36-.504.384-.936.03-.294.006-.576-.054-.846l1.722.06c-.126.162-.192.408-.144.786 0 .372.078.714.216 1.014l-2.124-.09" fill="#a81800"/><path d="M257.361 266.123c.582-.426 1.362-.612 1.968-.87-.972-1.524-.312-3.924-1.284-5.448-1.302-.66-2.502-1.644-4.134-1.206-1.626-.108-1.308 1.746-1.638 2.718-2.382 2.46.894 3.282 2.04 5.052l3.048-.246M254.271 269.285c-.294.468-.708.864-1.158 1.056.438.432 1.086.54 1.74.762 1.956-.648 4.674.666 5.658-1.188-.324-.21-.654-.762-1.194-.534-.336-.108-.702-.216-1.068-.366l-3.978.27" fill="#008600"/><path d="M257.253 268.439a1.72 1.72 0 0 1-.648-1.254h-1.956c.162.366.138.834-.006 1.302l2.61-.048M313.395 261.257c-.666 5.556-5.352 9.444-7.65 14.346-1.854 1.182-2.19 3.468-2.736 5.424-.114.642-.66 1.524-.984 2.388-.336 4.128-2.52 8.04-3.402 12.282-1.416-.666-2.826-1.098-4.344-1.428 1.644-4.572 3.072-9.888 5.796-14.016 1.314-2.274 1.866-4.992 3.72-7.056.876-3.582 3.72-6.948 5.148-10.536-.54-3.36 2.934-.972 4.458-1.392" fill="#a81800"/><path d="M325.113 289.99c-.36-.923-.984-1.793-2.004-2.603-1.854.66-2.292 3.036-4.464 2.052-1.416.438-3.078.21-4.026.21-1.41-2.058-3.252-3.492-3.462-5.892l4.146-4.65-.216-.222c.99-2.064 3.918-.096 5.658-.528 2.388.774 5.544.78 7.5 1.542 1.524-.102 6.414.672 6.414.672.108-.108.978-.108 1.626.114 0 1.2-1.962 1.842-1.2 2.934.972 1.734 2.706 3.162 2.922 5.328-.87.33-2.394.21-3.372.75-2.394.18-5.298-.234-7.584.186l-1.938.096" fill="#a89982"/><path d="M325.45 291.305c.383 1.992-.175 4.254-.577 6.75-1.638 2.814-3.924 4.326-6.648 5.844-4.458.966-8.046.204-11.958-1.992-.21-.534-.54-.984.222-1.416 2.178-.198 4.026-1.614 5.658-2.694a503.387 503.387 0 0 0-4.11-7.08c-1.194.108-2.604.096-3.258-.774-.21-.984.876-2.07 1.53-2.928-.54-1.206-1.62-2.94-2.274-3.27-1.53 4.02-2.958 8.472-3.84 12.714 1.416.552 3.588-.42 4.566 1.104.204 4.896-3.72 9.024-7.542 12.162l3.918-.21c1.416.654 4.026-.528 5.328.996l-.216.21c1.302 1.092 1.404 2.94 1.614 4.362 1.416-.438 2.394.762 3.48.114.444-1.416.228-2.94 1.758-4.02 1.632-.972 3.81-1.404 5.118-1.944.972.222 2.394-.63 2.502.12 3.804-.75 7.824 1.44 11.418 1.23 8.364 1.008 16.632.372 24.468-2.43 5.112-.75 12.522-4.53 17.406-.606-1.752 2.718-5.13 4.884-7.422 7.806v.864c.648 1.092 1.944 3.06 3.258 2.73 7.194-4.548 12.864-11.706 18.324-18 .978-1.086 1.962-2.286 2.076-3.48-.108-.102 0 .66-.54.33-.324-.33-.972-.108-1.518-.762l-.438.972c-3.042-1.206-6.744-.888-10.002-1.77-1.632.648-4.248 1.068-5.442.948v-.21c-1.092.648-3.042-.222-3.696-.552-2.496-2.178-6.966 1.068-8.796-2.742-1.95-2.832 2.61-1.836 1.968-4.554 1.416-2.508 3.366-.87 5.004-1.29l.438-.438c.216.216.534.024.864-.09l1.08-.378a3.556 3.556 0 0 1 .012-.504c-.858-1.416-2.718-1.098-3.48-1.968-4.338-.984-7.38-2.298-11.73-3.186-3.594 1.734-6.744.63-10.23 1.38-.432-.534-1.524.216-1.524-.654h-.648c-.654-.21-1.086-.864-1.194-1.524 1.092-1.092 1.308-2.508 1.422-3.912.768-.87 1.638-1.524 2.514-1.944-.642-3.81 5.01-4.338 4.812-8.262-.648-1.524-1.95-3.048-2.928-4.242-5.238 5.646-11.238 10.836-15.606 16.8 2.394.342 4.572.672 6.528 1.116.762.222.756 1.194.756 1.626-.438.33-.654 1.2-1.422 1.2-.006 2.508 3.582 4.578 2.592 7.404-1.302.33-3.48.75-4.134.528-1.956.864-3.258.102-5.112.642-.27-.408-1.284-.15-2.28-.048l-2.058-.078" fill="#a2d100"/><path d="M367.971 288.149c-1.128.492-2.844.27-3.972.342-1.092.12-1.2 1.302-1.314 2.076-.438.762-1.2 1.404-1.962 1.404-.324.972.432 1.416.978 1.956 5.004-1.182 9.342 3.942 14.676 1.02-.978-.102-.972-1.626-1.95-1.416-1.854-1.146-4.35-3.174-5.1-5.64l-1.356.258" fill="#008600"/><path d="M390.495 264.107c1.2-.54 2.4-1.422 3.702-.87.54 0 2.388 2.076 3.588.882 1.092-.54 1.854-.648 2.94-.648-1.308 1.194-2.178.108-3.594.972l-.108-.21c-.546.762-1.524.75-2.178.198-.762-.762-1.95-1.194-2.934-.774-1.086.33-2.394 1.2-3.696.75-1.518-2.718-4.236-.336-6.516-.768 2.382.114 5.22-2.052 7.056.456h1.74" fill="#fff"/><path d="M301.18 272.975c.54 1.632-1.2 2.706-1.099 4.35-.216-.12-.33.102-.438.21-1.95-2.298-3.138-5.124-5.856-6.762-.864-1.416-1.188-3.048-1.506-4.674 4.908-3.684 6.186 4.578 8.892 6.876" fill="#a81800"/><path d="M365.47 267.503l-.217.222c.978 1.194 2.826.984 3.918.552 1.524-1.734 3.48 1.638 5.328.234 0-.33-.438-.552-.654-.774.87.444 1.854.774 2.61-.21.216-.21.438-.54.768-.432.534 1.296-1.416.54-1.638 1.626-1.854.318-3.81.96-5.436-.456-1.302.432-3.378 1.734-4.896.42-.432-2.178-1.854-.54-3.156-.654-.762.432-1.632.75-2.502.852 1.74-1.182 2.178-.96 4.134-1.614.114.114 1.422-.972 1.74.222" fill="#fff"/><path d="M353.691 279.983c-3.702 1.29-6.858.738-10.554 1.17l-1.416-.546c1.638-1.524.456-4.782 3.174-5.322 1.194-.432.768-2.076 1.206-3.15 1.416-.978 3.378-2.496 3.708-4.236.426 4.14 2.808 7.95 3.882 12.084" fill="#008600"/><path d="M298.881 278.507l-1.638 3.702c-2.604-.996-5.55.084-8.16-.246-6.306-.114-10.98.084-16.86.714.552-2.508-.09-4.896-.198-7.392l-.756-1.632c2.718-.21 5.766-.21 8.808-.738 3.918-.642 8.598-.186 12.51-.288l1.086-.228c2.28 1.536 3.258 3.834 5.202 6.12" fill="#354600"/><path d="M270.7 282.13h-.217c.012-3.047-1.722-5.663-.732-8.813 1.734 2.298 1.506 5.988.948 8.814M389.277 273.665c-.006.87.87-.21.648.762-2.064-.444-2.94 2.274-5.334 1.512-1.086-.324-2.826-.444-3.696-.336-1.194.864-2.28.642-2.934.312 1.854.33 3.702-.63 4.902-1.062 1.518 1.404 3.366.654 4.674.114.324-.54.87-1.302 1.746-1.302M390.25 273.995l.215.654-.216-.654M391.665 274.649c-.114.33-.54.108-.762.216l.216-.648c.324.432.324-.114.54.432" fill="#fff"/><path d="M227.757 277.877c8.802 1.008 18.48 2.448 27.282 4.98.432.534.756 1.296.318 1.944-2.724 1.302-5.988 2.166-9.03 2.364-.654.54-.768 1.734-.12 2.286 2.388 2.508 5.868 3.06 8.796 4.914 6.63 1.218 11.982-5.616 19.584-2.874 1.956.762 4.458 1.416 5.652 3.39-.984 1.518-.552 3.582-1.65 5.094-4.248 2.166-8.604 4.878-13.074 6.924-6.306-1.53-13.584-2.316-19.026-.384-1.194-.318-2.286 1.302-3.264 1.194-1.638 1.302-3.264 1.512-4.362 3.258h-.426c-8.352-9.924-17.13-19.524-21.228-31.38l-1.296-3.702c3.696 1.206 8.04 1.65 11.85 1.992" fill="#e86f00"/><path d="M316.99 296.297c-.54 1.194-1.74 1.524-2.725 1.944-2.598-4.242-5.406-9.036-7.572-13.5l-2.166-2.94.774-3.258c4.548 5.658 7.362 11.988 11.688 17.766" fill="#a81800"/><path d="M373.263 283.685c0 .222.114.33.216.45.54.102.114-.54.438-.45.438-.42.654.012 1.092-.42-.114 0-.33.972-1.092.642-.324.108-.216.318-.216.54-1.854.75-3.36-3.594-5.322-2.178-1.302-.882-2.394 1.392-3.48-.354.978.45 2.934-.42 4.248-.408 2.178-.21 2.058 2.838 4.122 2.178M386.961 283.99c-.216-.21-.438-.54-.762-.33l1.956.013c.108.54-.546.54-.87.75h-.762c0-.864-.54.222-.762-.642-.108.102-.216.21-.216.432-.972-.864-1.41-.012-2.502-.222l-.654.648c.114-1.74 2.07-1.41 3.372-.978 0 .45.864.672 1.2.342" fill="#fff"/><path d="M261.441 287.975c.648 1.104 1.302 2.19 2.172 3.162-2.07 1.2-4.794 1.74-7.296 2.274-3.258-1.308-6.63-2.742-9.342-4.92 2.934 0 5.112-1.392 8.16-1.71.978-.654 2.07-1.524 1.638-2.928 1.848 1.086 3.15 3.042 4.662 4.146" fill="#a81800"/><path d="M306.027 289.09l.87-.971.54.762-1.416.21M321.88 299.459c-2.947 3.036-7.303 4.116-11.323 2.682l-1.626-.534c2.28-.438 4.788-1.29 6.858-2.37 2.394-1.194 3.27-4.134 5.568-5.424.864-.972 1.962-2.274 2.286-3.69 1.08 2.94.63 6.738-1.764 9.348" fill="#a89982"/><path d="M317.001 293.8l-1.95-3.161 4.35.222-2.4 2.928" fill="#a2d100"/><path d="M321.897 290.873c-.984 1.848-2.616 3.258-4.146 4.452.87-1.194 2.292-2.934 3.384-4.242.324 0 .438-.318.762-.21" fill="#3c5858"/><path d="M300.13 297.22c-.127 4.573-3.505 8.695-6.457 12.6l-3.156.319c.768-1.2-1.194-2.184-1.29-3.486-1.512-4.134-1.5-8.496.792-12.174 3.588.444 6.63 2.19 10.104 2.754" fill="#a89982"/><path d="M303.285 297.665c.534 4.35-3.834 7.608-6.45 10.314 2.076-3.258 4.698-6.396 4.71-10.536.54.222.978-.198 1.74.222" fill="#3c5858"/><path d="M372.213 307.439c-2.184 3.036-5.67 4.668-7.092 7.806.204 2.718 3.138 4.254 4.656 5.892-7.626 3.672-17.19.168-25.026 2.112-7.62 1.71-13.926 3.222-22.188 1.662-.54-3.912 2.418-9.114-2.688-10.542-2.064-1.314-5.226 1.182-6.084-2.418 8.388-5.082 18.162 1.902 26.436.072 10.218.69 20.352-5.484 30.03-5.124.54.318 1.302.33 1.956.54M289.54 311.555c.977.432 2.831-.972 3.917.336l.768-.756c3.366-.438 6.306-.306 9.786-.294-1.314 2.598-5.448 3.246-6.438 6.606-1.524 2.718-1.644 5.226-2.742 8.16-3.69-2.298-9.684.618-13.698-1.782-9.678-2.1-19.248-2.676-28.596-1.83-.768.54-2.07 0-2.718-.774-.21-.972.984-2.166 1.968-3.348l-.216-.228c.87-1.296 2.724-2.166 2.184-3.678-2.274-2.952-4.236-3.936-6.834-6.444 15.132-5.064 27.168 8.568 42.618 4.044" fill="#e8d9a8"/><path d="M245.937 308.273c2.172 1.968 5.1 3.834 6.828 6.33l-4.362 5.424-9.114-8.4c1.632-1.41 3.594-2.814 5.88-3.354.33.114.114.654.546.552.21 0 .216-.342.216-.552M306.393 314.32l-3.372-.443a7.019 7.019 0 0 0 2.616-2.724c.216 1.092 1.086 1.854.756 3.168M314.745 315.503c-.108.12-1.836-.072-2.052-.396l.162-2.52c0 .324 1.782 2.706 1.89 2.916" fill="#a81800"/><path d="M300.73 315.07c-1.195 1.837-2.617 3.349-2.623 5.533-.654 1.086-.12 2.178-1.098 3.042.324 1.092-1.2 1.41-.444 2.172-.864.432-.006 1.416-.006 2.178 1.41.972 3.366 1.536 5.322.984 3.42-1.068 9.432-.432 15.984 1.794 2.832-.87 2.838-4.35 3.606-6.846-.54-2.598.99-5.106-.63-7.614-1.302-1.194-2.502-.882-4.128-1.428 0 0-.894 1.968-3.324 1.968-2.43 0-6.738-1.08-6.738-1.08l-5.928-.714" fill="#e8d9a8"/><path d="M293.415 326.249c1.848.654 1.29 3.702 3.36 3.27 3.69 1.968 6.234-.384 11.232-.258 1.296-.432 6.816 1.842 9.852 2.706 1.74-.42 3.264-1.512 3.708-3.348l.66-2.508c6.408 1.218 14.136.48 20.772-1.35 6.096-1.08 13.104-1.032 18.87-.798l-4.716 3.444c-7.41 5.088-15.042 7.974-25.014 10.878-10.884 3.114-22.896 1.278-33.45 1.464-11.526-1.35-22.938-4.866-33.03-10.44-4.128-1.524-9.108-4.62-12.168-6.12 10.224-.516 19.47-.162 29.796 2.802l10.11.246" fill="#a2d100"/><path d="M287.29 150.587c-1.363-.132-2.85.126-4.08.816-.277.132-.685.132-.93.144-.84.396-.84 1.614-.565 2.436.27.948 1.362 1.218 2.172 1.488a3.648 3.648 0 0 0 2.448 0c.684-.126 1.224-.948 1.902-1.08 2.04-.69 4.08-.408 6.12-.138 1.086 0 2.304.408 3.126 0 .678-.408 1.488-.678 2.034-.948.948-.414 2.034.138 2.976.258.42-.12 1.236-.258 1.962-.318.222.198.63.468 1.194.12.666-.192 1.482-.06 2.16-.06 0 0 .138.138.126.282.552.408.42-.948 1.194.222.036-.096.18-.222 0 0 .72-.096 1.128-.096 1.674-.096.408 0 .276-.54.726-.666.492-.282 1.038-.408 1.584-.69.678-.414 1.77-.27 2.652-.048.468.048.468-.492.768-.66.66.036 1.338-.102 2.016.168.276.126 0 .408-.048.492.048.186.324.186.456.186 0 .396.276.678.51.798 1.398.15 3.024.552 3.81-.858.306-.078.852-.078 1.086-.114.582.162 1.122.444 1.668.306 0 0 0-.282-.252-.516 1.068.102 1.884.234 2.562.516 2.04.816 4.218 1.764 6.396 1.356.534-.138 1.218-.69 1.35-1.356 0-.552.132-1.092-.132-1.5-.54-1.092-1.632-2.04-3.09-1.716-.168-.042-.3-.456-.438-.456-1.77 0-3.402 0-5.112-.432-.054.024-.054-.378-.108-.318-1.446-.336-2.802-.75-4.302-.468-1.362.408-2.31 1.362-3.666 1.77-1.356.27-2.442-.552-3.774-.786-1.254-.162-2.34.648-3.156 1.41-.27.198-1.086.324-1.218-.072-.138-.54-.684-.69-1.092-.822-.948-.282-1.902-.282-2.796.21-.33.06-.738-.21-1.194-.102-.216-.786-.36-1.464-.9-1.878-1.224-.678-2.586-.408-3.804-.54-.276 0-.408.414-.726.774-.36.444-1.032.588-1.632.762.192.108.042.108 0 0-.9.786-2.262 1.056-3.486 1.056-.948 0-2.172.27-3.15.12-1.746-.54-3.78-.54-5.004.96M286.065 160.919c-.954 0-2.034-.408-2.718.27-.54.414 0 1.092.21 1.452.738.318 1.692.588 2.508.588 1.356 2.178 4.08 2.85 6.396 2.178.816-.27 1.218-1.626 2.298-1.746 2.046-.162 3.948.378 5.982.66 2.04.408 4.218.54 5.976-.624.96-.456 1.776.492 2.73.762.276.144 0 .678.528.66 1.242.15 2.328.018 3.552.288 1.092.132 1.902.402 2.988.132.54-.132.948-.54 1.512-.948.258-.132.798.138 1.074 0 .54-.27 1.086-.402 1.644.126.126-.528.534-.258.942-.396v-.27c1.764.408 3.672-.132 5.436.408.948.27 2.034.402 2.988 0 .816-.27 1.5-1.368.954-2.04-.816-1.086-2.448-.534-3.678-.948-.948-.138-2.028.27-2.928 0-.732-.408-1.548-.678-2.226-.948-.948-.408-1.632-1.362-2.448-1.632-1.218-.408-2.712-.534-3.696.6.162.084.03.084 0 0-.918.492-2.016.762-2.958.354-.678-.27-1.494-.54-2.364-.366-.078-.048-.486-.174-.894.096-.408.138-.684.81-1.224.678-.408-.27-1.086-.408-1.494-.138-.276.138-.684.408-.624.324-1.272.366-2.226 1.176-3.45.762-.132-.126-.132-.27-.252-.444-.15-.234-.564.048-.696-.234-.684-1.218-2.178-1.08-3.21-1.08-.054 0-.192.27 0 0-1.14.27-2.094.54-2.91.132-.948-.414-2.04-.948-2.994-.54-.132 0-.816.27-.408.714-.54.096-.816.234-1.524-.114-1.062-.33-2.286-.612-3.24.078-.672.402-1.77.402-1.488 1.35-.132 0-.132-.132-.276-.132M333.645 170.297c-1.362-.81-3.258-.948-4.212.282-.816 1.086-1.092 3.258.408 3.804.27.132.678.132.948.132 1.494.27 3.126.54 4.212-.822 0-.126.138-.54-.132-.81 1.224 0 2.448-.264 3.534.132.816.27 1.356 1.218 2.172 1.362.54.138.816.534 1.362.534.54 0 1.092.144 1.494 0 .684-.396 1.224-.936 1.908-1.086a3.03 3.03 0 0 1 2.178 0c.948.282 2.034.69 2.988.948.678.282 1.5 0 2.046-.54.264-.126.534-.27.942-.27 0-.138 0-.408.042-.492.366.084.906.222 1.314.222.276.132.54.402.816.54.684.27 1.362 0 2.04.132.948.408 1.902.138 2.58-.684.408-.27.954-.408 1.362-.678.402-.126.948-.126 1.362.138.402.27.942.132 1.488 0 .27 0 .27-.534.558-.618 1.344-.198 2.7.21 3.924-.198 1.362-.414 2.448-2.448 1.362-3.402-1.086-1.086-2.85-.804-4.35 0-.27.144-.408-.126-.702-.102-.114-.036-.114.372-.216.324a44.638 44.638 0 0 1-3.696-.006c-1.092.336-2.448.468-3.372-.012-.57-.204-1.242-.06-1.932-.06-.126 0-.27-.282-.45-.27-1.446.27-2.67 1.758-4.164 1.08-.408-.132-.954-.54-1.362-.954-.132 0-.27.144-.348.072-1.146-.876-2.64-.612-3.864-.342-.132 0-.54.54-.816.66-2.178.294-4.212.162-6.252-.786-.408-.144-.816 0-1.362.21-.534.186-1.218.048-1.764.048-.816.138-1.224.822-2.04 1.092M369.405 180.095c-1.362-.144-2.718-.954-3.81-.27-.948.666 0 1.896.816 2.574.816.414 1.5.822 2.31 1.092 1.362.27 2.586.27 3.81 0 .54-.126 1.224-.408 1.224-1.218h.942-.126c1.212 0 2.442-.408 3.66 0 .132 0 .54 0 .834.114.66.552 1.476 1.236 2.022.696 1.224-.81.684-2.184.408-3.402-.132-.678-1.224-.54-1.902-.54-.132 0-.408-.264-.516-.222-.978.492-1.938.774-2.886.366-1.77-.54-3.804-1.218-5.43.126-.132.144-.54 0-.81.024M365.517 186.293c.228.21-.054-.222 0 0-.054-.222-.054.048 0 0-1.692.048-3.456.318-4.95-.096-.684-.27-1.494-.54-2.31-.27-.276 0-.54.144-.948.144 0 .126 0 .396.054.306-.33.09-.33-.036-.216.21-1.062-.246-1.878.294-2.556-.12-.816-.408-1.764-1.086-2.58-.678-.132 0-.408.396-.516.564-.708.246-1.524.246-2.202-.024-1.5-.402-2.994.138-4.35.81-.408.276-1.092.276-1.5.138-.54-.27-.948-.678-1.41-.948-1.17-.27-2.262.27-3.486.63-.81.18-1.764.18-2.172-.63 0-.144.132-.27.216-.354-1.716-.048-4.704-.456-4.98 1.854 0 .54.678 1.074.834 1.29 2.292 1.146 4.878 1.554 7.5 1.764-.18-.21-.042.06 0 0 .504-.066 1.044-.21 1.524-.654.468-.09 1.152-.222 1.56-.09 1.626 1.086 3.396 1.5 5.298 1.356.546-1.356 2.04-.678 3.15-1.008.114.048.252.33.21.648.45-.192.714-.048 1.086.114.99.108 2.076-.024 3.024-.162 0-.132-.132-.27-.09-.378.366.108.774-.306 1.194 0-.012-.162-.012-.444-.012-.444 1.08-.126 2.028-.27 3.168.234.222.036.63.036.978 0 .336-.096.744-.504.978-.318.306.222.714.084.978.33.822.294 1.914.294 2.592-.108 1.362-.816.678-2.586.678-3.948 0-.126-.27.282-.756-.174M330.927 195.587c-.948 0-1.902.138-2.718.552-1.086.396-2.178.126-3.258.804-.54.402-1.5.132-2.31.132.27.408-.138.948 0 1.368.408.81 1.218 1.35 2.034 1.488 1.362.132 2.586.132 3.942-.126.54 0 .54-.822.948-1.23.816-.81 1.77-.27 2.718-.402 1.5 2.31 4.35 1.218 6.528 1.632.816-.948 2.178-1.632 2.178-3.132-.408 0-.816.132-1.056.048-.846-.594-1.524-1.278-2.478-.864-1.362.408-3.126 1.086-4.35.408-.678.666-.948-.408-1.77-.408M260.565 178.547l5.112-2.262 7.338 19.266-4.896 2.916-7.554-19.92M270.43 172.619l5.525 22.722 5.118-1.512-4.932-22.854-5.712 1.632M284.295 169.373l-.81 24.714 4.62 1.488 1.416-25.758-5.226-.444M289.191 196.817l1.632 3.81 13.188-17.004-2.586-4.746-12.24 17.94M292.143 202.673l.72 3.516 17.262-8.562-.12-5.454-17.862 10.5M293.133 208.229v3.798l17.268-4.62-.276-4.488-16.992 5.31" fill="#fff"/><path d="M329.157 225.22s1.224-3.395 1.632-3.665c.408-.282 8.154-5.718 12.096-6.402 3.942-.666 6.15.108 9.522-.396 3.666-.54 13.59.81 13.59.81s-.678 2.448-1.626 2.448c-.948 0-4.896-2.178-8.568-1.218-3.288.852-5.982 0-9.108.126-3.126.144-6.66 1.362-8.562 3.132-1.908 1.77-3.942 4.896-3.942 4.896l-5.034.27" fill="#e8d9a8"/><path d="M303.873 242.765s1.452 1.266 2.724 1.818c1.266.54 3.438 2.34 4.164 2.706.72.372 4.158 1.278 5.616 0 1.446-1.266 8.52-2.166 11.058-1.44 2.532.714 12.864 2.892 14.316 1.812 1.446-1.098 3.084-3.63 6.708-3.27 3.624.366 14.316-.714 15.408-.174 1.086.54 9.24 1.632 10.146.714.906-.9 3.444-2.718 7.068-2.718 3.618 0 7.428.186 9.606.918 2.172.714 7.242-.366 9.054-.918 1.812-.54 6.888-.714 7.794-1.266.906-.54.54-1.626.54-1.626s-4.896-.54-6.528.174c-1.626.726-9.786 1.644-11.058.912-1.266-.726-4.71-1.272-7.242-1.086-2.538.174-19.032.714-20.484.9-1.446.174-9.966 1.278-12.33 1.278-2.352 0-4.896.174-7.614 0-2.718-.186-12.504 0-14.316.174-1.812.18-5.622.726-7.248.906-1.632.186-11.424.54-12.51.36-1.086-.174-4.896-.174-4.896-.174M392.601 249.419l.438-.444-.216-.21.432.654.114-.222c.324 0-.54.33-.978.222h-.114l.006-.774h.108c.114.228-.108.552.216.774M391.407 249.737H390.1l.216-.114c-.108-.108-.21-.318-.432-.216-.006.762-.87 0-1.194 0l.216.216c.438-.762.864-.216 1.416-.648-.114.33.21.432.324.66.108-.552.762-.54 1.194-.87-.114.432.432.984-.438.972M381.837 249.383c0-.222-.546.438-1.2.762-.648-.444-1.302.216-1.956.54l-.324-.324-.216.21c.54.21 2.724-1.302 3.702-1.188M376.935 250.139v.432c-1.41-.984-2.28-.444-3.258.09l-.216-.102c-1.962 1.524-5.55-.552-7.836.948-.438-.108-1.086.108-1.41-.21 2.178-.108 4.464-1.512 6.306-.42 1.302.114 2.826.114 3.918-.75.216-.108.216-.438.216-.54.108-.108.216.102.33.102l.216-.312c.426.432 1.188.534 1.728.762M384.765 249.935l.216-.21-.216.21.438.45.216-.228v.228c.54.102 1.416-.216 2.064-.438-.21 0-.87 1.422-1.74.648h-.54c-.216-.108-1.194-.54-1.74-.882v-.318c.438.216.978.216 1.302.54M361.263 255.197l.21-.21c-1.524.972-3.48.648-5.112.738.768-1.08 2.724-.528 4.578-.948l.324.432M363.207 261.083l.216-.21c-.006.21-.006.534.21.534l.33-.324-.114.222c1.302.54 1.956-.54 3.048-.21-.006.21.108.324.21.324l-.54.216v-.216l-.978-.012v.66c-.114-.12-.216-.21-.438-.21-.438.42.216 0 0-.222-.216-.108-.324-.438-.54-.33-.216.102-.216.33-.216.54 0-.21-.108-.318-.216-.438 0 .66-.762.438-.978.216-.318-.978-1.842-.33-.966-1.302.534-.222.858.432.972.762M358.935 260.987c-.768 1.956-2.94 1.302-4.248 1.404-.978-.864-2.934-.006-3.918-.006.438-.438.438-.54.978-.762l.114.222c.438-.66.978-.438 1.416-.438.762-.984 1.518 1.092 2.172.228-.108.102-.21.21-.216.312.438.552.768-.102 1.194-.102.648-.108 1.74-.858 2.508-.858l.21-.33v.54l-.21-.21M384.717 267.233c1.2-.54 2.4-1.404 3.702-.864.54 0 2.388 2.07 3.588.876 1.092-.528 1.854-.642 2.94-.642-1.308 1.194-2.178.102-3.594.972l-.108-.222c-.546.762-1.524.762-2.178.21-.762-.762-1.95-1.194-2.928-.762-1.086.318-2.394 1.182-3.696.75-1.518-2.73-4.242-.342-6.522-.786 2.388.12 5.22-2.052 7.056.456h1.74M358.06 271.39l-.217.229c.978 1.194 2.826.984 3.918.546 1.524-1.734 3.474 1.644 5.328.234 0-.324-.438-.546-.654-.768.87.444 1.854.768 2.61-.216.216-.21.438-.534.768-.432.534 1.302-1.422.54-1.638 1.632-1.854.312-3.81.96-5.436-.462-1.308.438-3.378 1.734-4.896.426-.432-2.184-1.848-.552-3.156-.66-.762.426-1.632.75-2.502.858 1.74-1.194 2.178-.972 4.134-1.62.114.12 1.422-.972 1.74.228M383.5 276.797c-.007.864.863-.21.647.774-2.064-.444-2.94 2.262-5.334 1.5-1.086-.33-2.826-.444-3.696-.342-1.194.87-2.28.648-2.934.33 1.854.324 3.702-.648 4.902-1.08 1.518 1.416 3.366.66 4.674.132.324-.552.87-1.302 1.746-1.302M384.471 277.127l.216.654-.216-.654M385.887 277.78c-.114.33-.54.115-.762.21l.216-.641c.324.432.324-.108.54.432M380.061 290.087c-.006.222.108.324.21.444.546.108.114-.54.438-.444.438-.438.654.012 1.092-.438-.108 0-.33.99-1.092.66-.324.102-.216.318-.216.54-1.854.762-3.36-3.6-5.322-2.196-1.302-.876-2.394 1.41-3.48-.336.978.444 2.94-.432 4.248-.426 2.178-.21 2.058 2.838 4.128 2.184M386.373 289.883c-.216-.21-.438-.534-.762-.324l1.956.012c.108.54-.546.54-.87.75h-.762c0-.87-.546.21-.762-.66-.114.108-.216.222-.216.45-.978-.882-1.416-.012-2.508-.234l-.654.654c.12-1.734 2.076-1.404 3.378-.96 0 .42.87.642 1.194.324M388.467 256.84c-.774 1.957-2.94 1.297-4.248 1.405-.972-.864-2.934-.012-3.918-.012.438-.432.438-.54.984-.762l.108.21c.438-.642.978-.42 1.416-.42.768-.972 1.524 1.092 2.178.21-.114.12-.216.222-.216.33.426.552.762-.108 1.194-.108.648-.102 1.734-.864 2.508-.864l.216-.318-.006.54-.21-.222M382.707 253.78l.216-.221c-1.524.972-3.486.642-5.118.75.768-1.092 2.724-.54 4.578-.96l.324.432M384.651 259.649l.216-.21c-.006.21-.006.54.21.54l.33-.33-.114.228c1.302.534 1.962-.54 3.048-.216 0 .222.108.33.216.33l-.546.21v-.21l-.978-.012v.66c-.114-.108-.216-.216-.438-.216-.438.438.216 0 0-.222-.21-.102-.324-.432-.54-.324-.216.114-.216.324-.216.534 0-.21-.108-.312-.216-.42 0 .648-.762.42-.978.198-.318-.972-1.842-.324-.966-1.302.534-.21.858.438.972.762M382.69 259.967c-.769 1.956-2.935 1.302-4.249 1.41-.972-.87-2.934-.012-3.918-.012.438-.438.444-.54.984-.762l.108.222c.438-.66.978-.438 1.416-.438.768-.984 1.524 1.092 2.172.228-.108.102-.21.21-.21.312.426.552.762-.102 1.2-.102.642-.108 1.734-.858 2.502-.858l.21-.33v.54l-.21-.21M359.763 247.559c-.768 1.956-2.934 1.302-4.248 1.404-.972-.864-2.934-.012-3.918-.012.438-.444.438-.54.984-.762l.108.21c.438-.642.978-.432 1.416-.432.768-.96 1.524 1.104 2.178.222-.114.12-.216.222-.216.33.432.54.762-.108 1.194-.108.648-.102 1.74-.852 2.502-.852l.216-.33v.54l-.216-.21" fill="#fff"/><path d="M355.78 246.095l.215-.21c-1.524.972-3.486.642-5.118.75.768-1.092 2.724-.54 4.572-.978l.33.45M357.711 251.975l.216-.21c0 .21 0 .54.216.54l.33-.33-.114.222c1.302.54 1.956-.54 3.048-.21 0 .21.102.33.21.33l-.54.21v-.21h-.978v.642c-.114-.102-.216-.21-.438-.21-.438.432.216 0 0-.21-.216-.12-.324-.444-.54-.342-.216.12-.216.33-.216.54 0-.21-.108-.318-.216-.432 0 .654-.762.432-.978.21-.324-.972-1.842-.33-.966-1.302.534-.21.858.432.966.762M355.755 252.305c-.768 1.944-2.934 1.29-4.248 1.392-.972-.864-2.934-.012-3.918-.012.438-.432.438-.54.984-.762l.108.222c.438-.654.978-.444 1.416-.432.768-.972 1.524 1.092 2.172.222-.108.108-.21.21-.21.318.426.54.762-.108 1.2-.108.642-.102 1.734-.864 2.502-.852l.21-.33v.54l-.21-.21M372.01 275.693c-.769 1.944-2.94 1.29-4.249 1.398-.978-.87-2.934 0-3.918-.012.438-.438.438-.54.978-.75l.108.21c.444-.654.984-.432 1.416-.432.768-.972 1.524 1.086 2.178.222-.108.102-.216.21-.216.324.438.54.762-.102 1.2-.102.654-.12 1.746-.87 2.508-.87l.216-.324v.534l-.216-.21M366.25 272.627l.215-.228c-1.524.984-3.486.648-5.112.75.762-1.074 2.718-.534 4.572-.96l.324.438M368.187 278.495l.216-.21c0 .21 0 .552.216.552l.324-.33-.108.21c1.302.54 1.956-.54 3.042-.21 0 .222.102.33.21.33l-.534.21v-.21h-.978l-.006.642c-.108-.102-.21-.21-.432-.21-.438.432.216 0 0-.21-.216-.12-.324-.432-.54-.33-.216.108-.216.33-.222.54.006-.21-.108-.33-.21-.432-.006.642-.762.42-.972.198-.324-.972-1.854-.33-.978-1.302.546-.21.864.444.978.762M365.943 278.333c-.768 1.956-2.94 1.302-4.248 1.404-.978-.864-2.934-.012-3.918-.012.438-.432.438-.54.978-.762l.108.21c.438-.642.984-.42 1.416-.42.768-.984 1.524 1.092 2.172.21-.102.12-.21.222-.21.33.438.552.762-.108 1.194-.108.648-.102 1.74-.864 2.508-.864l.21-.318v.54l-.21-.222M388.575 267.857c-.768 1.956-2.94 1.296-4.248 1.404-.978-.876-2.934-.012-3.918-.024.438-.42.438-.54.978-.75l.114.21c.438-.642.978-.432 1.416-.42.762-.984 1.518 1.092 2.172.21-.108.12-.216.21-.216.33.438.54.768-.108 1.2-.108.654-.102 1.746-.864 2.508-.864l.216-.318v.54l-.216-.222M382.815 264.797l.216-.21c-1.524.972-3.48.63-5.112.738.768-1.092 2.718-.528 4.572-.96l.324.432M384.753 270.665l.216-.21c0 .21 0 .54.216.54l.324-.33-.108.222c1.296.54 1.956-.534 3.042-.21 0 .21.108.33.21.33l-.534.21v-.222h-.978l-.006.654c-.108-.102-.21-.21-.432-.222-.438.45.216.012 0-.21-.216-.102-.324-.432-.54-.33-.216.108-.216.33-.216.54 0-.21-.114-.312-.216-.432 0 .654-.762.432-.972.21-.324-.984-1.854-.324-.972-1.302.54-.222.858.438.972.762M382.797 270.995c-.768 1.944-2.94 1.29-4.248 1.392-.978-.864-2.934 0-3.918-.006.438-.438.438-.54.978-.75l.114.21c.438-.66.978-.438 1.416-.438.762-.972 1.518 1.092 2.172.228-.108.102-.216.21-.216.324.438.54.768-.102 1.194-.102.654-.108 1.74-.87 2.508-.87l.216-.33v.54l-.216-.21M365.92 262.78c-.769 1.957-2.94 1.303-4.243 1.405-.978-.864-2.934-.012-3.918-.012.438-.432.438-.534.978-.762l.114.216c.438-.648.978-.438 1.416-.438.762-.96 1.518 1.104 2.172.222-.108.12-.216.228-.216.33.438.54.768-.102 1.194-.102.654-.108 1.74-.858 2.508-.858l.21-.33v.54l-.21-.21M360.16 259.709l.215-.21c-1.524.972-3.48.642-5.112.75.768-1.092 2.718-.54 4.572-.96l.324.432M362.097 265.595l.216-.21c0 .21 0 .534.216.534l.324-.324-.108.222c1.302.54 1.956-.54 3.042-.21 0 .222.108.324.216.324l-.54.21v-.21h-.978l-.006.648c-.108-.108-.21-.21-.432-.21-.438.432.216 0 0-.228-.216-.102-.324-.432-.54-.312-.216.102-.216.312-.216.54 0-.228-.108-.33-.216-.45 0 .66-.756.438-.972.216-.324-.978-1.854-.33-.972-1.302.54-.21.864.444.972.762M359.241 265.829c-.768 1.956-2.94 1.302-4.248 1.404-.972-.864-2.928-.012-3.912-.012.432-.432.438-.54.978-.762l.108.21c.438-.642.978-.42 1.416-.42.768-.984 1.524 1.092 2.178.21-.108.12-.216.222-.216.33.438.552.762-.108 1.194-.108.648-.102 1.74-.864 2.508-.864l.21-.318-.006.54-.204-.222M399.171 276.857c-.768 1.956-2.94 1.284-4.248 1.392-.978-.864-2.934-.012-3.918-.012.438-.432.438-.54.978-.762l.114.222c.438-.642.978-.432 1.416-.432.762-.972 1.518 1.092 2.172.222-.108.108-.216.21-.216.33.438.54.768-.12 1.194-.12.654-.102 1.74-.852 2.508-.852l.216-.33v.54l-.216-.21M393.411 273.797l.216-.222c-1.524.972-3.48.642-5.112.75.768-1.092 2.718-.54 4.572-.96l.324.432M395.35 279.665l.215-.222c0 .222 0 .54.216.54l.324-.318-.108.216c1.302.546 1.956-.528 3.042-.204 0 .21.108.318.216.318l-.54.222v-.222h-.978v.654c-.114-.114-.216-.222-.438-.222-.438.438.216 0 0-.21-.216-.114-.324-.432-.54-.33-.216.108-.216.318-.216.54 0-.222-.114-.324-.216-.444 0 .654-.762.444-.978.222-.324-.984-1.842-.324-.966-1.314.534-.21.858.45.966.774M393.393 279.983c-.768 1.956-2.94 1.29-4.248 1.404-.978-.864-2.934-.006-3.918-.018.438-.438.438-.54.978-.75l.114.21c.438-.66.978-.438 1.416-.438.762-.972 1.518 1.092 2.178.228-.114.102-.222.222-.222.324.438.54.768-.102 1.2-.102.654-.108 1.746-.87 2.508-.87l.216-.33v.54l-.216-.21M379.3 256.055c-.769 1.956-2.935 1.302-4.249 1.404-.972-.864-2.934-.012-3.918-.012.438-.444.438-.54.984-.762l.108.21c.438-.642.978-.432 1.416-.432.768-.96 1.524 1.104 2.178.222-.114.12-.216.222-.216.33.426.54.762-.108 1.194-.108.648-.102 1.734-.852 2.502-.852l.21-.33v.54l-.21-.21M373.54 252.983l.215-.21c-1.524.972-3.486.642-5.118.75.768-1.092 2.724-.54 4.572-.96l.33.432M375.477 258.869l.216-.216c0 .216 0 .54.216.54l.33-.324-.114.222c1.302.54 1.956-.54 3.048-.21 0 .222.102.324.21.324l-.54.21v-.21l-.978-.012v.66c-.114-.108-.216-.216-.438-.216-.438.438.216 0 0-.222-.216-.102-.324-.432-.54-.312-.216.102-.216.312-.216.534 0-.222-.108-.324-.216-.444 0 .66-.762.438-.978.21-.324-.972-1.842-.324-.966-1.296.534-.216.858.432.966.762M373.521 259.18c-.768 1.957-2.934 1.303-4.248 1.41-.972-.87-2.934-.011-3.918-.011.438-.438.438-.54.984-.762l.108.21c.438-.642.978-.42 1.416-.42.768-.984 1.524 1.086 2.178.222-.114.102-.216.21-.216.312.432.552.762-.102 1.194-.102.648-.108 1.74-.87 2.502-.87l.216-.312v.534l-.216-.222M403.407 255.575c-.768 1.956-2.94 1.302-4.248 1.404-.972-.864-2.934-.012-3.918-.012.438-.444.438-.54.984-.762l.108.21c.438-.642.978-.432 1.416-.432.768-.96 1.524 1.104 2.178.222-.108.12-.216.222-.216.33.426.54.762-.108 1.194-.108.654-.102 1.734-.852 2.508-.852l.216-.33-.006.54-.21-.21M397.647 252.515l.216-.21c-1.524.972-3.486.63-5.112.738.762-1.092 2.718-.528 4.572-.96l.324.444M399.591 258.383l.216-.21c0 .21-.006.54.21.54l.33-.33-.114.228c1.302.534 1.962-.54 3.048-.216 0 .228.108.33.216.33l-.546.21v-.21l-.978-.012v.66c-.108-.12-.216-.216-.438-.216-.438.438.216 0 0-.222-.21-.102-.324-.432-.54-.324-.21.114-.216.324-.216.546 0-.222-.108-.324-.21-.444-.006.66-.768.432-.984.21-.318-.972-1.842-.324-.966-1.296.534-.228.864.432.972.756M397.63 258.7c-.775 1.957-2.94 1.303-4.249 1.41-.978-.87-2.94-.011-3.918-.011.444-.438.444-.54.984-.762l.108.222c.438-.66.978-.432 1.416-.432.768-.99 1.524 1.086 2.172.222-.102.102-.21.21-.21.312.426.552.762-.102 1.194-.102.648-.108 1.734-.858 2.508-.858l.21-.324-.006.534-.204-.21M406.671 249.91c-.768 1.963-2.94 1.29-4.248 1.41-.978-.881-2.934-.011-3.918-.011.438-.432.438-.54.978-.762l.114.21c.438-.642.978-.432 1.416-.432.762-.972 1.518 1.098 2.172.222-.108.114-.216.21-.216.33.438.534.762-.108 1.194-.108.654-.108 1.74-.87 2.508-.87l.216-.324v.552l-.216-.228M400.911 246.845l.216-.21c-1.53.972-3.48.642-5.112.75.768-1.092 2.718-.54 4.572-.978l.324.45M402.85 252.725l.215-.21c0 .21 0 .54.216.54l.324-.33-.108.21c1.302.552 1.956-.528 3.042-.198 0 .21.102.33.216.33l-.54.21v-.21h-.978l-.006.642c-.108-.102-.21-.222-.432-.222-.438.444.216 0 0-.21-.216-.108-.324-.432-.54-.33-.216.12-.216.33-.216.54 0-.21-.108-.33-.216-.432 0 .654-.756.432-.972.21-.324-.972-1.854-.33-.972-1.314.54-.198.864.444.972.774" fill="#fff"/><path d="M400.893 253.043c-.768 1.956-2.94 1.302-4.248 1.404-.978-.864-2.934-.012-3.918-.012.438-.444.438-.54.978-.762l.114.21c.438-.642.978-.432 1.416-.432.762-.96 1.518 1.104 2.172.222-.108.12-.216.222-.216.33.438.54.762-.108 1.194-.108.654-.102 1.746-.852 2.508-.852l.216-.33v.54l-.216-.21M401.235 268.745c-.768 1.956-2.94 1.29-4.248 1.404-.978-.876-2.934-.012-3.918-.018.438-.438.438-.54.978-.75l.108.21c.438-.66.984-.438 1.416-.438.768-.972 1.524 1.092 2.178.228-.108.102-.216.222-.216.324.438.54.762-.102 1.2-.102.654-.108 1.74-.87 2.508-.87l.21-.33v.54l-.21-.21M395.475 265.673l.216-.21c-1.524.972-3.486.648-5.112.738.762-1.074 2.718-.54 4.572-.96l.324.432M398.781 272.53l.222-.221c-.006.222-.006.54.21.54l.33-.318-.114.21c1.302.54 1.956-.54 3.048-.21-.006.21.102.33.21.33l-.54.21v-.21l-.978-.012v.654c-.114-.108-.216-.21-.438-.21-.438.42.216 0 0-.222-.216-.108-.324-.432-.54-.33-.216.12-.216.33-.216.54 0-.21-.108-.33-.216-.432 0 .654-.762.432-.978.21-.324-.972-1.842-.33-.966-1.302.534-.21.858.432.966.762M395.457 271.877c-.768 1.956-2.94 1.296-4.248 1.392-.978-.87-2.934 0-3.918-.012.438-.42.438-.54.978-.75l.108.21c.438-.642.978-.432 1.416-.42.768-.984 1.524 1.086 2.178.21-.108.12-.216.21-.216.33.432.54.762-.108 1.194-.108.654-.102 1.74-.864 2.508-.864l.216-.318-.006.54-.21-.222M326.271 248.273c-.774 1.944-2.94 1.29-4.248 1.392-.978-.864-2.934 0-3.918-.012.438-.42.444-.534.984-.75l.108.216c.438-.66.978-.438 1.416-.438.768-.972 1.524 1.104 2.178.222-.108.108-.216.216-.216.33.432.54.762-.102 1.194-.102.654-.108 1.74-.87 2.508-.87l.216-.318-.006.54-.21-.222M331.9 253.313l.215-.21c0 .21 0 .534.216.534l.324-.324-.108.21c1.302.552 1.956-.54 3.042-.198 0 .21.108.324.216.324l-.546.216v-.228h-.972l-.006.66c-.108-.12-.216-.21-.432-.21-.438.42.21 0 0-.222-.216-.108-.33-.438-.54-.33-.216.102-.222.33-.222.54 0-.21-.102-.33-.204-.438-.006.648-.768.438-.978.216-.324-.984-1.854-.342-.978-1.302.546-.222.87.432.978.762M331.503 250.067c-.768 1.944-2.94 1.29-4.248 1.392-.972-.864-2.934-.012-3.918-.012.438-.432.438-.54.978-.762l.114.222c.438-.654.978-.444 1.416-.444.762-.972 1.524 1.104 2.172.222-.108.12-.21.222-.21.33.426.54.762-.108 1.194-.108.648-.102 1.74-.852 2.508-.852l.21-.342v.552l-.21-.21M335.56 249.869l.215-.228c0 .228 0 .54.216.54l.33-.312-.114.21c1.302.552 1.956-.54 3.048-.198 0 .21.102.312.204.312l-.534.222v-.222h-.978v.66c-.114-.12-.216-.222-.438-.222-.438.432.216 0 0-.216-.216-.114-.324-.444-.54-.324-.216.102-.216.324-.216.54 0-.216-.108-.33-.216-.438 0 .648-.762.438-.978.21-.324-.984-1.848-.324-.972-1.308.54-.21.87.444.972.774M346.69 247.829l.215-.21c0 .21 0 .534.216.534l.33-.324-.114.222c1.302.54 1.956-.54 3.048-.21-.006.21.102.312.204.312l-.534.228v-.228h-.978v.66c-.114-.12-.216-.222-.438-.222-.438.444.216 0 0-.21-.216-.108-.324-.45-.54-.33-.216.102-.216.33-.216.54 0-.21-.108-.33-.216-.438 0 .66-.762.438-.978.216-.324-.984-1.848-.33-.972-1.314.54-.21.864.444.972.774M361.63 246.959l.215-.21c0 .21 0 .552.21.552l.33-.33-.114.21c1.302.54 1.962-.54 3.048-.21 0 .21.102.33.21.33l-.54.21v-.21h-.978v.642c-.108-.102-.216-.222-.438-.222-.438.444.216 0 .006-.21-.216-.108-.33-.432-.546-.33-.216.12-.216.33-.216.54 0-.21-.108-.33-.21-.432-.006.654-.768.432-.978.21-.324-.972-1.854-.33-.978-1.302.546-.21.87.438.978.762M404.547 244.24c-.768 1.945-2.94 1.29-4.248 1.399-.978-.87-2.934 0-3.918-.012.438-.438.438-.54.978-.762l.114.222c.438-.66.978-.438 1.416-.438.762-.972 1.518 1.092 2.178.228-.114.102-.216.21-.216.324.426.54.762-.102 1.194-.102.654-.108 1.74-.87 2.508-.87l.21-.33v.54l-.21-.21M375.867 263.153c-.774 1.962-2.94 1.29-4.248 1.41-.972-.882-2.934-.012-3.912-.012.438-.444.438-.54.978-.762l.108.21c.438-.642.984-.432 1.416-.432.768-.972 1.524 1.086 2.178.222-.114.102-.216.21-.216.33.438.534.762-.108 1.2-.108.648-.12 1.74-.87 2.508-.87l.21-.324-.006.54-.204-.216M396.165 285.653c-.768 1.962-2.934 1.302-4.248 1.41-.972-.882-2.934-.012-3.918-.012.438-.432.438-.54.984-.762l.108.21c.438-.642.978-.432 1.416-.42.768-.984 1.524 1.086 2.178.222-.114.102-.216.198-.216.318.426.534.762-.108 1.194-.108.648-.108 1.734-.87 2.502-.87l.216-.312v.54l-.216-.228M397.45 227.615c1.955.768 1.295 2.94 1.403 4.254-.87.972-.012 2.928-.012 3.912-.438-.444-.54-.444-.762-.984l.216-.108c-.648-.444-.432-.984-.432-1.416-.972-.762 1.092-1.512.222-2.166.114.102.216.21.324.21.546-.432-.108-.762-.108-1.194-.108-.66-.864-1.746-.864-2.508l-.324-.228h.54l-.216.228M393.447 236.939c1.95-.774 1.29-2.928 1.398-4.254-.87-.96-.006-2.916-.012-3.912-.432.444-.54.444-.756.984l.216.108c-.654.444-.438.984-.432 1.416-.978.762 1.092 1.524.222 2.178.108-.102.21-.222.324-.222.54.432-.108.762-.108 1.194-.108.66-.864 1.746-.864 2.508l-.324.222.54-.012-.216-.21M386.613 226.99c1.956.775 1.296 2.94 1.404 4.255-.87.972-.012 2.928-.012 3.912-.438-.432-.54-.432-.762-.972l.216-.114c-.654-.432-.432-.972-.432-1.422-.978-.762 1.092-1.518.222-2.166.108.108.216.21.324.21.546-.432-.108-.762-.108-1.194-.108-.654-.864-1.746-.864-2.508l-.324-.21h.54l-.216.21M382.605 236.32c1.95-.761 1.29-2.933 1.398-4.241-.87-.972-.006-2.94-.012-3.93-.432.45-.54.45-.756.99l.21.102c-.648.444-.432.984-.432 1.416-.972.774 1.098 1.524.222 2.184.114-.12.216-.21.33-.21.54.42-.108.756-.108 1.182-.108.654-.864 1.746-.864 2.508l-.33.21h.546l-.216-.21M372.453 228.983c1.956.774 1.296 2.94 1.404 4.254-.87.972-.012 2.928-.012 3.912-.438-.432-.54-.432-.762-.972l.216-.102c-.648-.444-.432-.984-.432-1.422-.978-.768 1.092-1.518.222-2.178.108.108.216.21.324.21.546-.432-.108-.762-.108-1.182-.108-.654-.864-1.746-.864-2.508l-.324-.222.54.012-.216.21M368.445 238.325c1.95-.774 1.29-2.94 1.398-4.254-.87-.972-.006-2.934-.012-3.918-.432.438-.54.438-.756.978l.216.102c-.654.444-.438.984-.432 1.428-.978.762 1.092 1.512.222 2.172.108-.108.21-.21.324-.21.54.432-.108.762-.108 1.194-.108.654-.87 1.746-.864 2.508l-.324.21h.54l-.216-.21M379.365 226.45c1.95.763 1.296 2.935 1.398 4.243-.87.972-.006 2.934-.012 3.918-.432-.438-.54-.438-.756-.972l.216-.12c-.654-.432-.438-.972-.432-1.404-.978-.774 1.092-1.524.222-2.184.108.12.21.21.324.21.54-.42-.108-.756-.108-1.194-.108-.642-.87-1.734-.864-2.496l-.324-.222.54.012-.216.21M375.351 235.78c1.956-.773 1.296-2.94 1.404-4.253-.87-.972-.012-2.928-.012-3.912-.438.432-.54.432-.762.972l.216.114c-.648.438-.432.972-.432 1.422-.972.762 1.092 1.512.222 2.166.108-.108.216-.21.324-.21.546.432-.108.762-.102 1.194-.114.654-.864 1.746-.864 2.508l-.324.21h.54l-.216-.21M365.403 227.32c1.956.763 1.296 2.929 1.404 4.243-.87.972-.006 2.928-.012 3.912-.438-.432-.54-.432-.756-.972l.21-.12c-.648-.432-.432-.972-.432-1.416-.972-.762 1.098-1.512.222-2.166.114.102.216.222.33.222.54-.444-.108-.762-.108-1.194-.108-.66-.864-1.746-.864-2.508l-.324-.222h.54l-.216.222M361.401 236.645c1.956-.768 1.296-2.94 1.404-4.254-.87-.972-.012-2.928-.012-3.912-.438.444-.54.444-.762.984l.216.108c-.654.444-.432.984-.432 1.416-.978.762 1.092 1.524.222 2.178.108-.102.216-.222.324-.222.546.438-.108.762-.108 1.194-.108.66-.864 1.746-.864 2.508l-.324.228.54-.012-.216-.216M357.447 229.709c1.956.774 1.296 2.94 1.404 4.254-.87.972-.012 2.928-.012 3.918-.438-.438-.54-.438-.762-.978l.216-.114c-.648-.432-.432-.972-.432-1.416-.972-.762 1.092-1.512.222-2.172.114.108.216.21.33.21.54-.432-.114-.762-.108-1.182-.108-.654-.864-1.746-.864-2.508l-.324-.222h.54l-.216.222M353.445 239.039c1.95-.762 1.296-2.928 1.398-4.242-.87-.972-.006-2.94-.006-3.924-.438.444-.546.444-.762.984l.216.102c-.654.444-.432.984-.432 1.422-.978.768 1.092 1.518.222 2.178.108-.12.216-.21.324-.21.546.42-.108.762-.108 1.182-.108.654-.864 1.746-.864 2.508l-.324.222.54-.012-.216-.21M349.683 227.495c1.956.762 1.296 2.94 1.398 4.242-.87.984-.006 2.94-.006 3.924-.438-.444-.546-.444-.762-.984l.216-.102c-.654-.444-.432-.984-.432-1.422-.978-.762 1.092-1.518.222-2.166.108.108.216.21.324.21.546-.432-.108-.774-.108-1.194-.108-.654-.864-1.746-.864-2.508l-.324-.21h.54l-.216.21M345.67 236.825c1.955-.774 1.295-2.94 1.403-4.254-.87-.972-.006-2.934-.012-3.918-.438.438-.54.438-.762.984l.216.108c-.648.432-.432.972-.432 1.416-.972.762 1.098 1.524.222 2.172.114-.108.216-.21.33-.21.54.432-.108.762-.108 1.194-.108.654-.864 1.734-.864 2.496l-.324.222h.54l-.216-.222M342.201 230.435c1.956.774 1.296 2.946 1.404 4.254-.87.972-.012 2.934-.012 3.918-.438-.438-.54-.438-.762-.984l.216-.108c-.648-.432-.432-.972-.432-1.416-.978-.762 1.092-1.524.222-2.184.108.12.216.222.324.222.546-.432-.108-.756-.108-1.194-.108-.654-.864-1.734-.864-2.508l-.324-.21h.54l-.216.21M338.2 239.765c1.95-.762 1.29-2.94 1.397-4.242-.87-.984-.006-2.94-.012-3.924-.432.444-.54.444-.756.984l.216.102c-.654.45-.438.984-.438 1.422-.972.762 1.098 1.524.222 2.166.114-.108.216-.21.33-.21.54.432-.108.774-.108 1.194-.108.654-.864 1.746-.864 2.508l-.33.21h.546l-.216-.21M335.451 227.543c1.956.762 1.296 2.928 1.404 4.242-.87.972-.012 2.928-.012 3.912-.438-.432-.546-.432-.762-.972l.216-.114c-.654-.438-.438-.972-.432-1.422-.978-.762 1.092-1.512.222-2.166.108.108.216.222.324.222.546-.444-.108-.774-.108-1.194-.108-.66-.864-1.746-.864-2.508l-.324-.222h.54l-.216.222M331.443 236.86c1.956-.761 1.296-2.933 1.404-4.241-.87-.978-.012-2.934-.012-3.918-.438.438-.54.438-.762.972l.216.12c-.648.432-.432.972-.432 1.404-.972.774 1.092 1.524.222 2.184.114-.12.216-.216.33-.216.54.426-.114.762-.108 1.2-.108.654-.87 1.734-.87 2.508l-.324.21h.54l-.216-.21M327.951 230.939c1.956.762 1.296 2.934 1.404 4.242-.87.972-.012 2.934-.012 3.918-.438-.438-.54-.438-.762-.984l.216-.108c-.654-.432-.432-.972-.432-1.416-.978-.762 1.092-1.524.222-2.184.108.12.216.228.324.228.546-.438-.108-.762-.108-1.2-.108-.642-.864-1.734-.864-2.508l-.324-.21h.54l-.216.21M323.95 240.257c1.95-.762 1.29-2.928 1.397-4.242-.87-.972-.006-2.928-.012-3.912-.438.432-.54.432-.756.972l.21.114c-.648.438-.432.972-.432 1.422-.972.762 1.098 1.524.222 2.166.114-.108.216-.21.33-.21.54.432-.108.762-.108 1.194-.108.654-.864 1.746-.864 2.508l-.33.21h.546l-.216-.21M322.287 227.717c1.956.774 1.296 2.94 1.404 4.242-.87.972-.012 2.94-.012 3.918-.438-.438-.54-.438-.762-.978l.216-.102c-.648-.444-.432-.984-.432-1.416-.972-.774 1.092-1.524.222-2.184.114.12.216.21.324.21.546-.42-.108-.762-.102-1.194-.114-.654-.864-1.746-.864-2.508l-.324-.21h.54l-.216.21M318.28 237.047c1.95-.762 1.295-2.94 1.397-4.242-.87-.984-.006-2.94-.012-3.924-.432.444-.54.444-.756.984l.216.102c-.654.444-.438.984-.432 1.416-.978.762 1.092 1.524.222 2.172.108-.108.21-.21.324-.21.54.432-.108.774-.108 1.194-.108.654-.864 1.746-.864 2.508l-.324.21h.54l-.216-.21" fill="#fff"/><path d="M317.007 233.153c1.956.774 1.296 2.946 1.404 4.254-.87.978-.006 2.934-.012 3.918-.438-.438-.54-.438-.762-.984l.216-.108c-.648-.432-.432-.972-.432-1.416-.972-.762 1.092-1.524.222-2.178.114.114.216.222.33.222.54-.438-.108-.762-.108-1.2-.114-.642-.864-1.734-.864-2.508l-.324-.21h.54l-.216.21M313.167 241.205c1.956-.774 1.296-2.928 1.404-4.242-.87-.972-.012-2.928-.018-3.912-.432.444-.54.444-.756.984l.216.102c-.654.438-.432.99-.432 1.422-.978.762 1.092 1.524.222 2.166.108-.102.216-.21.324-.21.54.432-.108.762-.108 1.194-.108.66-.864 1.746-.864 2.508l-.324.222.54-.012-.216-.21M310.545 228.209c1.956.774 1.296 2.94 1.404 4.242-.87.972-.012 2.94-.012 3.93-.438-.45-.54-.45-.762-.99l.216-.102c-.654-.444-.432-.984-.432-1.416-.978-.762 1.092-1.524.222-2.172.108.108.216.21.324.21.546-.432-.108-.774-.108-1.194-.108-.654-.864-1.746-.864-2.508l-.324-.21h.54l-.216.21M306.543 237.539c1.95-.762 1.29-2.928 1.398-4.242-.87-.972-.006-2.94-.012-3.924-.438.444-.54.444-.756.984l.21.102c-.648.444-.432.984-.432 1.422-.972.768 1.098 1.518.222 2.178.114-.12.216-.21.33-.21.54.42-.108.762-.108 1.194-.108.654-.864 1.734-.864 2.496l-.33.222h.546l-.216-.222M303.957 227.285c1.95.762 1.29 2.928 1.398 4.242-.87.972-.006 2.928-.012 3.912-.432-.432-.54-.432-.756-.972l.216-.114c-.654-.438-.438-.972-.432-1.422-.978-.762 1.092-1.512.216-2.166.114.108.216.21.33.222.54-.444-.108-.774-.108-1.194-.108-.654-.87-1.746-.864-2.508l-.324-.222h.54l-.216.222M299.95 236.603c1.955-.774 1.295-2.946 1.403-4.254-.87-.972-.012-2.934-.012-3.918-.438.438-.54.438-.762.984l.216.108c-.648.432-.432.972-.432 1.416-.978.762 1.092 1.524.222 2.184.108-.12.216-.228.324-.228.546.438-.108.762-.108 1.212-.108.642-.864 1.734-.864 2.496l-.324.21h.54l-.216-.21" fill="#fff"/><path d="M301.24 227.717c1.955.774 1.295 2.94 1.403 4.242-.876.972-.012 2.94-.018 3.918-.432-.438-.54-.438-.756-.978l.216-.102c-.654-.444-.438-.984-.432-1.416-.978-.774 1.092-1.524.222-2.184.108.12.21.21.324.21.54-.42-.108-.762-.108-1.194-.108-.654-.864-1.746-.864-2.508l-.324-.21h.54l-.216.21M297.231 237.047c1.956-.762 1.296-2.94 1.404-4.242-.87-.984-.012-2.94-.012-3.924-.438.444-.54.444-.762.984l.216.102c-.648.444-.432.984-.432 1.416-.972.762 1.092 1.524.222 2.172.114-.108.216-.21.33-.21.54.432-.114.774-.108 1.194-.108.654-.864 1.746-.864 2.508l-.324.21h.54l-.216-.21M312.507 231.377c1.95.762 1.296 2.94 1.398 4.242-.87.972-.006 2.928-.012 3.912-.432-.432-.54-.432-.756-.972l.216-.12c-.654-.432-.438-.972-.432-1.404-.978-.762 1.092-1.524.222-2.178.108.102.216.222.324.222.54-.444-.108-.774-.108-1.194-.108-.66-.864-1.746-.864-2.508l-.324-.228h.54l-.216.228M308.5 240.689c1.955-.762 1.295-2.928 1.403-4.242-.87-.972-.012-2.928-.012-3.912-.438.432-.54.432-.762.984l.216.108c-.648.432-.432.972-.432 1.404-.972.774 1.092 1.524.222 2.178.114-.102.216-.21.324-.21.546.432-.108.762-.102 1.194-.114.648-.864 1.734-.864 2.496l-.324.222h.54l-.216-.222M306.303 231.149c1.956.774 1.296 2.946 1.404 4.254-.87.978-.012 2.934-.018 3.918-.432-.438-.54-.438-.756-.984l.216-.108c-.654-.432-.432-.972-.432-1.416-.978-.762 1.092-1.524.222-2.178.108.114.216.222.324.222.54-.438-.108-.762-.108-1.2-.108-.654-.864-1.734-.864-2.508l-.324-.21h.54l-.216.21" fill="#1691ff"/><path d="M302.29 240.479c1.955-.774 1.295-2.94 1.403-4.242-.87-.984-.012-2.94-.012-3.924-.438.444-.54.444-.762.984l.216.102c-.648.45-.432.984-.432 1.422-.972.762 1.098 1.524.222 2.166.114-.102.216-.21.33-.21.54.432-.114.762-.108 1.194-.108.66-.864 1.746-.864 2.508l-.324.222h.546l-.222-.222M318.615 227.369c1.956.762 1.296 2.928 1.404 4.242-.876.972-.012 2.928-.012 3.912-.438-.432-.54-.432-.762-.984l.216-.108c-.648-.432-.432-.972-.432-1.404-.978-.774 1.092-1.524.222-2.178.108.102.216.21.324.21.54-.432-.108-.762-.108-1.194-.108-.648-.864-1.746-.864-2.508l-.324-.216h.54l-.216.216M314.607 236.68c1.956-.773 1.296-2.927 1.404-4.253-.87-.972-.006-2.928-.012-3.912-.438.444-.54.444-.756.984l.21.108c-.648.444-.432.984-.432 1.416-.972.762 1.098 1.512.222 2.166.114-.102.216-.21.33-.21.54.432-.108.762-.108 1.194-.108.648-.864 1.746-.864 2.508l-.324.21h.54l-.216-.21M324.79 231.515c1.95.774 1.29 2.94 1.397 4.242-.87.984-.006 2.94-.012 3.924-.432-.444-.54-.444-.756-.984l.216-.102c-.654-.438-.438-.984-.438-1.422-.972-.762 1.098-1.524.222-2.166.108.108.216.21.33.21.534-.432-.108-.762-.108-1.194-.108-.654-.87-1.746-.864-2.508l-.33-.21h.546l-.216.21M320.781 240.845c1.956-.762 1.296-2.946 1.404-4.242-.87-.984-.012-2.934-.012-3.918-.438.438-.54.438-.762.972l.216.108c-.648.432-.432.984-.432 1.416-.978.762 1.092 1.524.222 2.184.108-.12.216-.228.324-.228.546.45-.108.762-.108 1.212-.108.642-.864 1.734-.864 2.508l-.324.21.54-.012-.216-.198M329.865 226.979c1.956.774 1.296 2.94 1.404 4.254-.876.972-.012 2.928-.012 3.912-.438-.432-.546-.432-.762-.972l.216-.114c-.654-.432-.432-.972-.432-1.422-.978-.756 1.092-1.506.222-2.166.108.108.216.21.324.21.546-.432-.108-.762-.108-1.182-.108-.654-.864-1.746-.864-2.508l-.324-.222h.54l-.216.222" fill="#1691ff"/><path d="M325.857 236.309c1.95-.762 1.29-2.928 1.398-4.242-.87-.972-.006-2.94-.012-3.918-.432.438-.54.438-.762.978l.216.102c-.648.444-.432.984-.432 1.416-.972.774 1.098 1.524.222 2.184.114-.12.216-.21.33-.21.54.42-.108.762-.108 1.194-.108.654-.87 1.734-.864 2.496l-.33.222h.546l-.216-.222M332.781 231.527c1.95.774 1.296 2.94 1.398 4.242-.87.984-.006 2.94-.006 3.924-.438-.444-.546-.444-.762-.984l.216-.102c-.654-.45-.438-.984-.432-1.422-.978-.762 1.092-1.524.222-2.178.108.12.216.222.324.222.54-.432-.108-.762-.108-1.194-.108-.654-.864-1.746-.864-2.508l-.324-.222h.54l-.216.222M328.767 240.857c1.956-.774 1.296-2.946 1.404-4.242-.87-.978-.006-2.934-.012-3.918-.438.438-.54.438-.762.972l.216.12c-.648.432-.432.972-.432 1.404-.972.774 1.092 1.524.222 2.184.114-.12.216-.216.33-.216.54.426-.114.762-.108 1.2-.108.642-.864 1.734-.864 2.508l-.324.21.54-.012-.216-.198M340.03 226.99c1.955.775 1.295 2.94 1.403 4.255-.87.972-.012 2.928-.012 3.912-.438-.432-.54-.432-.762-.972l.216-.114c-.648-.432-.432-.972-.432-1.422-.972-.762 1.092-1.518.222-2.166.114.108.216.21.324.21.546-.432-.108-.762-.108-1.194-.108-.654-.864-1.746-.864-2.508l-.324-.21h.54l-.216.21M336.021 236.32c1.95-.761 1.29-2.933 1.398-4.241-.87-.972-.006-2.94-.012-3.93-.432.45-.54.45-.756.99l.216.102c-.654.444-.438.984-.432 1.416-.978.774 1.092 1.524.222 2.184.108-.12.21-.21.324-.21.54.42-.108.756-.108 1.182-.108.654-.864 1.746-.864 2.508l-.324.21h.54l-.216-.21M342.19 231.293c1.955.762 1.295 2.928 1.403 4.242-.87.972-.012 2.928-.012 3.912-.438-.432-.54-.432-.762-.984l.216-.102c-.648-.438-.432-.978-.432-1.422-.978-.762 1.092-1.524.222-2.166.108.108.216.21.324.21.546-.432-.108-.762-.108-1.194-.108-.654-.864-1.746-.864-2.508l-.324-.21h.54l-.216.21M348.291 227.273c1.956.774 1.296 2.94 1.404 4.242-.87.984-.012 2.94-.012 3.924-.438-.444-.54-.444-.762-.984l.216-.102c-.648-.45-.432-.984-.432-1.422-.978-.762 1.092-1.524.222-2.166.114.108.216.21.324.21.546-.432-.108-.762-.102-1.194-.108-.654-.864-1.746-.864-2.508l-.324-.21h.54l-.216.21M344.29 236.603c1.95-.774 1.295-2.946 1.397-4.254-.87-.972-.006-2.934-.012-3.918-.432.438-.54.438-.756.972l.216.12c-.654.432-.438.972-.432 1.416-.978.762 1.092 1.512.222 2.172.108-.108.21-.216.324-.216.54.438-.108.762-.108 1.2-.108.654-.864 1.746-.864 2.508l-.324.21h.54l-.216-.21M354.471 231.43c1.956.763 1.296 2.947 1.398 4.243-.87.972-.006 2.934-.012 3.918-.432-.438-.54-.438-.756-.972l.216-.12c-.654-.432-.432-.972-.432-1.404-.978-.762 1.092-1.524.222-2.184.108.12.21.216.324.216.54-.426-.108-.762-.108-1.2-.108-.642-.864-1.734-.864-2.508l-.324-.21h.54l-.216.21M350.865 239.225c1.95-.774 1.296-2.94 1.398-4.242-.87-.984-.006-2.94-.012-3.924-.432.444-.54.444-.756.984l.216.102c-.654.45-.438.99-.432 1.422-.978.762 1.092 1.524.222 2.166.108-.102.21-.21.324-.21.54.432-.108.762-.108 1.194-.108.66-.864 1.746-.864 2.508l-.324.21h.54l-.216-.21M359.541 226.895c1.956.774 1.296 2.946 1.404 4.254-.87.978-.012 2.934-.012 3.918-.438-.432-.54-.432-.762-.984l.216-.108c-.648-.432-.432-.972-.432-1.416-.978-.762 1.092-1.524.222-2.178.108.114.216.222.324.222.546-.438-.108-.762-.102-1.212-.108-.642-.864-1.734-.864-2.496l-.324-.21h.54l-.216.21" fill="#1691ff"/><path d="M355.54 236.225c1.95-.774 1.295-2.928 1.397-4.242-.87-.972-.006-2.94-.012-3.924-.432.444-.54.444-.756.984l.216.102c-.654.45-.438.99-.432 1.422-.978.774 1.092 1.524.222 2.178.108-.114.21-.222.324-.222.54.432-.108.762-.108 1.194-.108.66-.864 1.746-.864 2.508l-.33.21h.546l-.216-.21M362.457 231.443c1.956.762 1.296 2.934 1.404 4.242-.87.972-.012 2.934-.012 3.918-.438-.438-.54-.438-.762-.972l.216-.12c-.648-.432-.432-.972-.432-1.404-.978-.774 1.092-1.524.222-2.184.108.12.216.216.324.216.546-.426-.108-.762-.108-1.2-.108-.642-.864-1.734-.864-2.496l-.324-.21h.54l-.216.21M357.591 238.45c1.95-.761 1.296-2.927 1.398-4.241-.87-.972-.006-2.928-.012-3.912-.432.432-.54.432-.756.972l.216.114c-.654.438-.438.978-.432 1.422-.978.762 1.092 1.512.222 2.166.108-.102.21-.21.324-.222.54.444-.108.774-.108 1.206-.108.66-.864 1.746-.864 2.508l-.324.21h.54l-.216-.21M369.711 226.907c1.95.774 1.29 2.946 1.398 4.242-.87.978-.006 2.934-.012 3.918-.438-.432-.54-.432-.762-.972l.216-.12c-.648-.432-.432-.972-.432-1.404-.972-.774 1.098-1.524.222-2.184.114.12.216.216.33.216.54-.426-.114-.762-.108-1.2-.108-.642-.864-1.734-.864-2.508l-.33-.21.546.012-.216.198M365.697 236.237c1.956-.774 1.296-2.94 1.404-4.242-.876-.984-.012-2.94-.018-3.924-.432.444-.54.444-.756.984l.216.102c-.648.45-.432.984-.432 1.422-.978.762 1.092 1.524.222 2.166.108-.108.216-.21.324-.21.54.432-.108.762-.108 1.194-.108.654-.864 1.746-.864 2.508l-.324.222h.54l-.216-.222M377.577 230.927c1.95.762 1.29 2.934 1.398 4.242-.87.972-.006 2.934-.012 3.918-.432-.438-.54-.438-.762-.972l.216-.12c-.648-.432-.432-.972-.432-1.404-.972-.774 1.098-1.524.222-2.184.114.12.216.216.33.216.54-.426-.108-.762-.108-1.2-.108-.642-.864-1.734-.864-2.508l-.33-.21h.54l-.21.21M383.68 226.907c1.95.774 1.29 2.946 1.397 4.254-.87.978-.006 2.934-.012 3.918-.432-.438-.54-.438-.756-.972l.216-.12c-.654-.432-.438-.972-.432-1.404-.978-.774 1.092-1.524.222-2.184.108.108.21.216.324.216.54-.426-.108-.762-.108-1.2-.108-.642-.87-1.734-.864-2.508l-.324-.21.54.012-.216.198M379.671 236.237c1.956-.762 1.296-2.928 1.404-4.242-.87-.972-.012-2.928-.012-3.912-.438.432-.54.432-.762.972l.216.114c-.648.438-.432.972-.432 1.422-.978.762 1.092 1.512.222 2.166.108-.108.216-.222.324-.222.546.444-.108.762-.108 1.206-.108.654-.864 1.746-.864 2.508l-.324.21h.54l-.216-.21M389.853 231.07c1.956.775 1.296 2.94 1.404 4.243-.87.984-.012 2.94-.012 3.924-.438-.444-.54-.444-.762-.984l.216-.108c-.648-.444-.432-.984-.432-1.416-.978-.762 1.092-1.524.222-2.166.114.102.216.21.324.21.546-.432-.108-.762-.108-1.194-.108-.66-.864-1.746-.864-2.508l-.324-.21h.54l-.216.21M386.235 238.09c1.95-.773 1.29-2.945 1.398-4.253-.87-.972-.006-2.934-.012-3.918-.432.438-.54.438-.762.984l.216.108c-.648.432-.432.972-.432 1.416-.972.762 1.098 1.524.228 2.184.108-.12.21-.228.324-.228.54.438-.108.762-.108 1.212-.108.642-.87 1.734-.864 2.496l-.33.21h.546l-.216-.21M394.93 226.547c1.95.762 1.295 2.928 1.397 4.242-.87.972-.006 2.928-.012 3.912-.432-.432-.54-.432-.756-.972l.21-.114c-.648-.438-.432-.978-.432-1.422-.972-.762 1.098-1.512.228-2.166.108.108.21.21.324.21.54-.432-.108-.762-.108-1.194-.108-.66-.864-1.746-.864-2.508l-.33-.21h.546l-.216.21" fill="#1691ff"/><path d="M390.921 235.865c1.956-.762 1.296-2.934 1.404-4.242-.87-.978-.012-2.934-.012-3.918-.438.432-.54.432-.762.972l.216.12c-.648.432-.432.972-.432 1.404-.978.774 1.092 1.524.222 2.184.108-.12.216-.216.324-.216.546.426-.108.762-.108 1.2-.108.642-.864 1.734-.864 2.496l-.324.21h.54l-.216-.21M397.713 229.217c1.95.774 1.296 2.94 1.398 4.254-.87.972-.006 2.928-.012 3.912-.432-.432-.54-.432-.756-.972l.216-.114c-.654-.432-.438-.972-.432-1.416-.978-.762 1.092-1.512.222-2.172.108.108.21.21.324.21.54-.432-.108-.762-.108-1.194-.108-.642-.87-1.734-.864-2.496l-.324-.222h.54l-.216.222M393.147 239.153c1.956-.768 1.296-2.94 1.404-4.254-.87-.972-.012-2.928-.012-3.912-.438.444-.546.444-.762.984l.216.108c-.654.444-.432.984-.432 1.404-.978.774 1.092 1.524.222 2.178.108-.102.216-.21.324-.21.546.432-.108.762-.108 1.194-.108.66-.864 1.746-.864 2.508l-.324.228.54-.012-.216-.216M405.093 226.559c1.956.762 1.296 2.928 1.404 4.242-.876.972-.012 2.928-.018 3.912-.432-.432-.54-.432-.756-.984l.216-.102c-.654-.438-.432-.978-.432-1.422-.978-.762 1.092-1.524.222-2.166.108.102.21.21.324.21.54-.432-.108-.762-.108-1.194-.108-.66-.864-1.734-.864-2.496l-.324-.222h.54l-.216.222M401.08 235.877c1.955-.762 1.295-2.946 1.403-4.242-.87-.99-.012-2.934-.012-3.918-.438.432-.54.432-.762.972l.216.12c-.648.432-.432.972-.432 1.404-.972.762 1.092 1.524.222 2.178.114-.114.216-.21.324-.21.546.426-.108.762-.102 1.2-.108.642-.864 1.734-.864 2.502l-.324.216h.54l-.216-.216M371.607 238.103c1.95-.774 1.29-2.946 1.398-4.254-.87-.972-.006-2.934-.012-3.918-.432.438-.54.438-.756.984l.216.108c-.654.432-.438.972-.438 1.416-.972.762 1.098 1.512.222 2.184.108-.12.21-.228.33-.228.534.438-.108.762-.108 1.2-.108.642-.87 1.734-.864 2.508l-.33.21h.546l-.216-.21M374.115 234.539c1.956-.762 1.296-2.94 1.404-4.242-.87-.984-.012-2.94-.012-3.924-.438.444-.54.444-.762.984l.216.102c-.648.444-.432.984-.432 1.422-.972.756 1.092 1.518.222 2.178.114-.12.216-.21.324-.222.546.432-.108.774-.102 1.194-.114.654-.864 1.746-.864 2.508l-.324.21h.54l-.216-.21" fill="#1691ff"/><path d="M403.09 237.503c1.95-.774 1.29-2.94 1.397-4.242-.87-.972-.006-2.928-.012-3.912-.432.432-.54.432-.756.972l.216.114c-.654.438-.438.972-.432 1.422-.978.762 1.092 1.512.222 2.166.108-.108.21-.222.324-.222.54.444-.108.774-.108 1.194-.108.654-.864 1.746-.864 2.508l-.33.222h.546l-.216-.222M399.843 227.627c1.956.768 1.296 2.94 1.398 4.254-.87.972-.006 2.928-.012 3.912-.432-.444-.54-.444-.756-.984l.216-.108c-.654-.444-.438-.984-.432-1.404-.978-.774 1.092-1.524.222-2.178.108.102.216.21.324.21.54-.438-.108-.762-.108-1.194-.108-.648-.864-1.752-.864-2.508l-.324-.216h.54l-.216.216" fill="#fff"/><path d="M378.783 250.697c0 .87.87-.21.648.762-2.064-.444-2.94 2.274-5.328 1.512-1.086-.33-2.826-.444-3.696-.336-1.194.864-2.286.642-2.934.312 1.848.33 3.696-.63 4.896-1.062 1.524 1.416 3.372.654 4.674.114.33-.54.876-1.302 1.746-1.302M373.005 253.829c0 .864.87-.21.654.774-2.07-.45-2.946 2.274-5.334 1.5-1.086-.33-2.826-.45-3.696-.33-1.194.864-2.286.63-2.934.318 1.848.324 3.696-.648 4.896-1.08 1.524 1.416 3.372.654 4.674.126.33-.534.876-1.296 1.746-1.296M372.31 248.027c-.769 1.944-2.94 1.29-4.249 1.392-.978-.864-2.934-.012-3.918-.012.438-.432.444-.534.984-.762l.108.228c.438-.66.984-.45 1.416-.438.768-.972 1.524 1.092 2.172.222-.102.108-.21.216-.21.318.426.54.762-.102 1.194-.102.648-.108 1.734-.858 2.508-.858l.21-.33-.006.54-.204-.21M393.243 246.983c-.006.87.864-.21.648.762-2.064-.432-2.94 2.274-5.334 1.512-1.086-.33-2.826-.444-3.696-.342-1.194.87-2.28.648-2.934.318 1.854.33 3.702-.63 4.902-1.068 1.518 1.41 3.366.66 4.674.12.324-.54.87-1.302 1.746-1.302" fill="#a8efff"/><path d="M387.465 250.115c-.006.864.864-.216.648.762-2.064-.45-2.94 2.268-5.334 1.506-1.086-.324-2.826-.444-3.69-.324-1.2.852-2.286.63-2.94.306 1.854.336 3.702-.636 4.902-1.08 1.518 1.428 3.366.666 4.674.126.33-.534.864-1.296 1.74-1.296M386.763 244.3c-.768 1.957-2.94 1.303-4.248 1.405-.972-.864-2.934-.012-3.918-.012.438-.444.438-.54.978-.762l.114.21c.438-.642.978-.432 1.416-.432.762-.96 1.524 1.104 2.178.222-.114.12-.216.222-.216.33.432.54.762-.108 1.194-.108.654-.102 1.746-.852 2.508-.852l.216-.33v.54l-.216-.21M400.191 249.293c0 .864.87-.21.654.774-2.064-.444-2.946 2.274-5.334 1.5-1.086-.33-2.826-.444-3.696-.342-1.194.87-2.286.648-2.934.33 1.848.33 3.696-.648 4.896-1.08 1.524 1.416 3.372.66 4.68.132.324-.54.87-1.302 1.74-1.302M394.413 252.419c0 .87.87-.21.654.762-2.07-.432-2.94 2.274-5.334 1.512-1.086-.324-2.826-.444-3.696-.324-1.194.852-2.286.63-2.934.312 1.848.33 3.696-.642 4.896-1.074 1.524 1.416 3.372.654 4.68.114.324-.54.87-1.29 1.74-1.29M393.723 246.623c-.768 1.944-2.94 1.284-4.248 1.392-.978-.87-2.934-.012-3.918-.012.438-.432.438-.54.978-.762l.108.21c.444-.642.984-.42 1.416-.42.768-.972 1.524 1.092 2.178.21-.108.12-.216.222-.216.342.438.54.762-.12 1.194-.12.654-.102 1.74-.864 2.508-.852l.216-.33v.54l-.216-.21M405.273 259.78c-.006.865.864-.21.648.763-2.064-.444-2.94 2.274-5.328 1.512-1.092-.33-2.832-.444-3.696-.342-1.2.87-2.286.648-2.94.318 1.854.342 3.702-.636 4.902-1.08 1.518 1.434 3.366.672 4.674.132.33-.54.864-1.302 1.74-1.29M399.495 262.907c-.006.87.864-.21.648.762-2.064-.444-2.94 2.274-5.328 1.512-1.092-.324-2.832-.444-3.696-.336-1.2.864-2.286.642-2.94.312 1.854.33 3.702-.63 4.902-1.062 1.518 1.416 3.366.654 4.674.114.324-.54.864-1.302 1.74-1.302M398.793 257.11c-.768 1.957-2.934 1.285-4.248 1.393-.972-.864-2.934-.012-3.918-.012.438-.432.438-.54.984-.762l.108.222c.438-.642.978-.432 1.416-.432.762-.972 1.524 1.092 2.178.222-.114.108-.216.21-.216.33.426.54.762-.12 1.194-.108.648-.114 1.734-.864 2.502-.864l.216-.318v.54l-.216-.222M403.87 264.725c-.007.882.863-.198.647.774-2.064-.444-2.94 2.274-5.334 1.5-1.086-.318-2.826-.432-3.696-.33-1.194.858-2.28.648-2.934.318 1.854.33 3.702-.642 4.902-1.08 1.518 1.434 3.366.672 4.674.132.324-.54.87-1.302 1.746-1.302M396.345 269.165c-.006.87.864-.21.648.762-2.064-.444-2.94 2.274-5.334 1.512-1.086-.324-2.826-.444-3.696-.336-1.194.864-2.28.642-2.934.312 1.854.33 3.702-.63 4.902-1.062 1.518 1.416 3.366.654 4.674.114.33-.54.87-1.302 1.746-1.29" fill="#a8efff"/><path d="M395.643 263.357c-.768 1.956-2.934 1.296-4.248 1.404-.978-.87-2.934-.012-3.918-.012.438-.432.438-.54.984-.762l.108.21c.438-.642.978-.42 1.416-.42.768-.984 1.518 1.092 2.178.21-.114.12-.216.222-.222.33.438.552.768-.108 1.2-.108.648-.102 1.74-.852 2.502-.852l.216-.33v.54l-.216-.21M383.397 261.833c0 .864.87-.21.654.762-2.07-.45-2.946 2.274-5.334 1.512-1.086-.33-2.826-.45-3.696-.33-1.194.864-2.286.63-2.934.306 1.848.336 3.696-.636 4.896-1.068 1.524 1.416 3.372.654 4.674.12.33-.54.876-1.29 1.746-1.29M377.62 264.959c0 .87.87-.21.653.762-2.07-.432-2.946 2.274-5.334 1.512-1.086-.33-2.826-.444-3.696-.342-1.2.87-2.286.66-2.934.318 1.848.342 3.696-.63 4.896-1.068 1.524 1.422 3.372.672 4.674.132.33-.54.876-1.302 1.746-1.302M376.923 259.145c-.774 1.962-2.94 1.302-4.248 1.41-.978-.87-2.934-.012-3.918-.012.438-.432.438-.54.978-.762l.108.21c.438-.642.978-.42 1.416-.42.768-.972 1.524 1.086 2.178.222-.108.102-.216.21-.216.318.438.546.762-.108 1.194-.108.654-.108 1.734-.864 2.508-.864l.216-.318-.006.54-.21-.222" fill="#a8efff"/><path d="M368.787 259.63c-.006.865.87-.215.648.757-2.064-.444-2.94 2.274-5.328 1.512-1.092-.324-2.832-.444-3.696-.336-1.2.864-2.286.642-2.94.318 1.854.324 3.702-.648 4.902-1.068 1.524 1.416 3.366.654 4.674.114.33-.54.864-1.296 1.74-1.296M363.01 262.757c0 .87.87-.21.647.762-2.064-.432-2.94 2.274-5.328 1.512-1.092-.33-2.832-.444-3.696-.342-1.2.87-2.286.648-2.94.318 1.854.342 3.702-.63 4.902-1.068 1.524 1.422 3.366.66 4.674.132.33-.54.87-1.302 1.74-1.302M362.313 256.955c-.768 1.944-2.934 1.29-4.248 1.398-.972-.87-2.934 0-3.918-.012.438-.438.438-.54.984-.75l.108.21c.438-.66.978-.432 1.416-.432.768-.978 1.524 1.086 2.172.222-.108.102-.21.21-.21.324.426.54.762-.102 1.2-.102.642-.108 1.734-.87 2.502-.87l.21-.324v.534l-.21-.21M373.12 271.277c0 .858.87-.222.653.762-2.064-.444-2.946 2.274-5.334 1.512-1.086-.342-2.826-.456-3.696-.354-1.194.87-2.28.66-2.934.33 1.848.33 3.696-.642 4.902-1.08 1.518 1.422 3.366.672 4.674.132.324-.54.87-1.302 1.74-1.302M365.571 274.373c0 .864.87-.216.654.768-2.064-.444-2.94 2.274-5.334 1.5-1.086-.312-2.826-.444-3.696-.324-1.194.852-2.28.642-2.934.318 1.848.324 3.696-.648 4.902-1.08 1.518 1.416 3.366.654 4.674.126.324-.54.87-1.296 1.74-1.296M361.617 268.769c-.774 1.956-2.94 1.302-4.248 1.404-.978-.864-2.94-.012-3.918-.012.438-.444.438-.534.978-.762l.108.216c.438-.648.978-.438 1.416-.438.768-.96 1.524 1.104 2.178.222-.114.12-.216.228-.216.33.426.54.762-.102 1.2-.102.648-.108 1.74-.87 2.508-.87l.21-.318-.006.54-.204-.222M387.663 271.919c0 .87.87-.21.654.774-2.07-.444-2.946 2.274-5.334 1.5-1.086-.324-2.832-.444-3.696-.324-1.194.852-2.286.63-2.934.312 1.848.33 3.696-.642 4.896-1.074 1.524 1.416 3.372.654 4.674.114.33-.54.876-1.302 1.746-1.302M381.885 275.063c0 .864.87-.21.654.762-2.07-.444-2.946 2.274-5.334 1.512-1.086-.342-2.826-.45-3.696-.342-1.2.87-2.286.642-2.934.318 1.848.324 3.696-.648 4.896-1.08 1.524 1.416 3.372.666 4.674.132.33-.54.876-1.302 1.746-1.302M381.195 269.249c-.774 1.956-2.94 1.29-4.248 1.404-.978-.864-2.94-.012-3.918-.012.438-.444.438-.534.978-.756l.108.21c.438-.648.978-.438 1.416-.438.768-.972 1.524 1.104 2.178.228-.108.114-.216.222-.216.324.438.54.762-.102 1.2-.102.654-.108 1.746-.858 2.508-.858l.216-.33-.006.54-.21-.21M398.68 275.8c-.007.865.87-.21.647.763-2.064-.432-2.94 2.274-5.328 1.512-1.092-.33-2.832-.444-3.696-.342-1.2.87-2.286.648-2.934.318 1.848.336 3.696-.636 4.896-1.08 1.524 1.428 3.372.666 4.674.132.33-.54.87-1.302 1.746-1.29M392.901 278.927c0 .87.87-.21.648.762-2.064-.444-2.94 2.274-5.328 1.512-1.092-.324-2.832-.444-3.696-.336-1.2.864-2.286.642-2.934.312 1.848.33 3.696-.63 4.896-1.062 1.524 1.416 3.372.654 4.674.114.33-.54.87-1.302 1.746-1.29" fill="#a8efff"/><path d="M392.2 273.13c-.769 1.957-2.935 1.285-4.249 1.393-.972-.87-2.934-.012-3.918-.012.438-.432.438-.54.984-.762l.108.222c.438-.642.978-.432 1.416-.432.768-.972 1.524 1.092 2.178.222-.114.108-.216.21-.216.33.432.54.762-.12 1.194-.12.648-.102 1.74-.852 2.502-.852l.222-.33-.006.54-.216-.21M388.803 287.669c-.006.87.87-.21.648.762-2.064-.432-2.94 2.274-5.334 1.512-1.086-.324-2.826-.444-3.696-.324-1.2.852-2.28.63-2.934.3 1.854.342 3.702-.63 4.902-1.062 1.518 1.416 3.366.654 4.674.114.324-.54.87-1.29 1.746-1.29M382.245 284.027c0 .864.87-.222.654.762-2.07-.444-2.946 2.274-5.334 1.512-1.086-.342-2.826-.444-3.696-.354-1.194.882-2.286.66-2.934.33 1.848.33 3.696-.642 4.896-1.08 1.524 1.422 3.372.672 4.68.132.324-.54.87-1.302 1.74-1.302" fill="#a8efff"/><path d="M382.33 284.999c-.769 1.956-2.94 1.29-4.249 1.404-.978-.864-2.934-.012-3.918-.012.438-.444.438-.534.978-.756l.114.21c.438-.648.978-.438 1.416-.438.762-.972 1.518 1.092 2.178.228-.114.114-.216.222-.222.324.438.54.768-.102 1.2-.102.654-.108 1.746-.858 2.508-.858l.216-.33v.54l-.216-.21M394.87 288.317c0 .864.87-.21.653.762-2.07-.444-2.946 2.274-5.334 1.512-1.086-.342-2.826-.45-3.696-.342-1.194.87-2.286.642-2.934.318 1.848.324 3.696-.648 4.896-1.08 1.524 1.416 3.372.666 4.68.132.324-.54.87-1.302 1.74-1.302M389.091 291.443c0 .87.87-.222.654.762-2.07-.444-2.94 2.274-5.334 1.512-1.086-.33-2.826-.444-3.696-.336-1.2.864-2.286.642-2.934.312 1.848.33 3.696-.63 4.902-1.074 1.518 1.416 3.366.666 4.674.126.324-.54.87-1.302 1.74-1.302" fill="#a8efff"/><path d="M388.395 285.635c-.768 1.956-2.94 1.284-4.248 1.392-.978-.87-2.934 0-3.918-.012.438-.432.438-.54.978-.762l.114.222c.438-.642.978-.432 1.41-.432.768-.972 1.524 1.098 2.178.222-.108.12-.216.21-.216.33.438.54.762-.12 1.194-.108.654-.102 1.746-.864 2.508-.864l.216-.318v.54l-.216-.222M337.593 250.45c-.006.87.87-.221.648.763-2.064-.444-2.946 2.274-5.334 1.512-1.086-.33-2.826-.456-3.696-.342-1.194.87-2.286.648-2.934.318 1.848.33 3.702-.642 4.902-1.074 1.518 1.416 3.366.666 4.674.126.324-.54.87-1.302 1.746-1.302M331.12 247.769c-.769 1.956-2.94 1.302-4.249 1.404-.978-.864-2.934-.012-3.918-.012.438-.444.438-.534.978-.762l.114.216c.438-.648.978-.438 1.416-.438.762-.972 1.518 1.104 2.172.222-.108.108-.216.228-.216.33.438.54.762-.102 1.194-.102.654-.108 1.74-.87 2.508-.87l.21-.318v.54l-.21-.222" fill="#a8efff"/><path d="M262.605 315.713c0-2.586 1.464-4.086 4.068-4.086 2.598 0 4.068 1.512 4.068 4.086 0 2.592-1.47 4.092-4.068 4.092s-4.068-1.5-4.068-4.092zm4.068-2.568c-1.476 0-1.782 1.362-1.782 2.592 0 1.17.306 2.532 1.782 2.532s1.782-1.362 1.782-2.532c0-1.218-.306-2.592-1.782-2.592M275.44 321.07h-2.179v-7.853h3.63c1.326 0 3.042.366 3.042 2.016 0 1.182-.9 1.794-1.998 1.932v.036c1.392.036 1.65.738 1.794 1.956.048.648.174 1.278.36 1.902h-2.358c-.12-.54-.186-1.104-.24-1.656-.084-.948-.126-1.344-1.236-1.344h-.816v3.012zm.845-4.523c.702 0 1.368-.108 1.368-.906 0-.804-.672-.9-1.368-.9h-.846v1.806h.846M281.823 318.365c0-2.58 1.47-4.08 4.068-4.08s4.068 1.5 4.068 4.08c0 2.586-1.464 4.086-4.068 4.086-2.598 0-4.068-1.5-4.068-4.086zm4.068-2.568c-1.476 0-1.782 1.368-1.782 2.598 0 1.164.306 2.532 1.782 2.532s1.782-1.368 1.782-2.532c0-1.23-.306-2.598-1.782-2.598"/><path d="M302.247 324.527v-1.302M315.843 324.365v-1.302" fill="none" stroke="#000" stroke-width="5.436"/><path d="M324.52 322.559v-7.854h3.605c1.926 0 3.186.624 3.186 2.52 0 1.914-1.266 2.52-3.186 2.52h-1.434v2.802h-2.178l.006.012zm3.293-4.326c.858-.036 1.212-.42 1.212-.996 0-.576-.36-.96-1.212-1.008h-1.116v2.004h1.116M332.17 322.427v-7.848h2.177v6.324h3.546v1.524h-5.724M338.811 321.467l3.096-7.836h2.652l3.09 7.836h-2.448l-.522-1.524h-3.186l-.51 1.524h-2.178.006zm5.346-3.048l-1.002-3.258h-.036l-1.062 3.258h2.1M349.653 314.74h-2.406v-1.523h7.038v1.524h-2.46v6.33h-2.172v-6.33M353.901 320.53l3.096-7.853h2.652l3.096 7.854h-2.454l-.522-1.536h-3.186l-.51 1.536h-2.178.006zm5.346-3.06l-1.002-3.27h-.036l-1.068 3.27h2.106M307.851 323.717l-2.976-4.92h2.502l1.698 3.258 1.758-3.258h2.214l-3.048 4.92-.108 4.194h-2.154l.114-4.194"/><path d="M124.942 108.295V69.382h11.835l7.74 29.614 7.635-29.614h11.888v38.913h-7.503V76.91l-7.899 31.384h-8.19l-8.004-31.384v31.384h-7.502M194.076 88.878c0 4.28.951 7.608 2.853 9.986 1.902 2.36 4.562 3.54 7.979 3.54 3.451 0 6.137-1.18 8.057-3.54 1.92-2.378 2.88-5.707 2.88-9.986 0-4.28-.96-7.6-2.88-9.96-1.92-2.377-4.606-3.566-8.057-3.566-3.417 0-6.077 1.18-7.979 3.54-1.902 2.36-2.853 5.688-2.853 9.986m-8.163 0c0-6.288 1.709-11.272 5.125-14.953 3.435-3.698 8.058-5.547 13.87-5.547 5.811 0 10.434 1.849 13.869 5.547 3.452 3.699 5.178 8.683 5.178 14.953s-1.726 11.254-5.178 14.952c-3.435 3.698-8.058 5.548-13.87 5.548-5.811 0-10.434-1.85-13.869-5.548-3.416-3.698-5.125-8.683-5.125-14.952M245.723 108.295V69.382h8.374l15.798 26.734V69.382h7.898v38.913h-8.268L253.62 81.56v26.735h-7.898M309.362 108.295V76.329h-11.544v-6.947h31.014v6.947h-11.465v31.966h-8.005M363.333 77.175l-5.389 16.564h10.805l-5.416-16.564m-4.65-7.793h9.247l14.028 38.913h-8.401l-2.642-8.005h-15.084l-2.563 8.005h-8.427l13.843-38.913M401.375 108.295V69.382h8.374l15.798 26.734V69.382h7.899v38.913h-8.27L409.275 81.56v26.735h-7.9M471.434 77.175l-5.39 16.564h10.806l-5.416-16.564m-4.65-7.793h9.247l14.027 38.913h-8.4l-2.642-8.005H463.93l-2.562 8.005h-8.427l13.842-38.913" style="text-align:center;line-height:125%" font-size="57.967" font-weight="700" text-anchor="middle" fill="#ffd90f" font-family="Swis721 BT"/></svg>