<svg xmlns="http://www.w3.org/2000/svg" height="450" width="900" version="1"><path fill="#002a86" d="M0 450h900V0H0v450z"/><path fill="#46b7e8" d="M413.63 300.63h-.03.03M414.08 300.65h.03-.03M414.41 300.63h-.06.06M415.09 300.51h-.01.01M491.53 315.36c-.11.02-.21.02-.32.04.11-.02.21-.02.32-.04M490.44 315.5c-.18.02-.36.02-.53.02.18 0 .36 0 .53-.02M490.98 315.44c-.12.02-.24.02-.36.04.11-.02.23-.02.36-.04M492.07 315.23c-.1.02-.19.07-.3.07.11-.02.2-.05.3-.07M410.93 317.92c-.02 0-.03 0-.05.03.02-.03.03-.03.05-.03"/><path fill="#46b7e8" d="M520.13 318.45v-.59c0-1.3-.03-7.48-.03-15.77v.06h-.65l-38.77 1.39 6.46 3.22-4.62.46 6.01 1.39-3.7 1.39 6.46.46-5.53 1.37 9.24.45-9.24 2.3 8.76-.45-2.38 1.06c2.03-.53 3.77-1.52 3.77-1.52s-2.3-6.01 4.16-1.84c6.46 4.16 9.7 4.62 9.7 4.62s4.61-5.55 3.68-.95c-.92 4.63 5.53 4.17 5.53 4.17l1.1.59c.02-.59.02-1.43.02-1.83M413.4 317.21c-.03.01-.06.01-.11.01.03 0 .07-.01.11-.01M392.52 320.62c5.08 1.38 6 0 6 0s5.08-3.71 8.31-3.22c1.38.17 2.01.46 2.66.57l1.02-1.5-6.92-.93 8.3-1.38-7.83-.93 5.99-1.37-6.46-.91 5.07-1.41-5.07-1.37 7.85-.93-9.24-.9 13.85-1.41s2.3-1.83-6.92-1.83c-9.24 0-28.16-1.39-28.16-1.39h-.65c-.02 8.45-.03 14.82-.03 16.17v.59l.23-.15c7.85 0 6.91.93 11.99 2.3M412.64 317.48c-.05 0-.08.02-.12.02.04-.02.07-.02.12-.02M411.95 317.67c-.02 0-.06.02-.08.02.02 0 .06-.02.08-.02M450.13 175.71H409.5c-5.41 10.73-14.65 19.02-25.81 23.19 5.4 6.8 8.35 15.15 8.35 23.94 0 10.36-4.26 20.35-11.71 27.54.01 1.89.02 4.23.02 6.85l-.29.6s1.84-1.86 5.53-3.69c3.69-1.85 5.07-2.77 7.85-.92 2.77 1.85 5.53 2.78 5.53 2.78s3.69-2.32 6.92-4.61c3.23-2.32 2.3-3.68 6.46-2.78 4.15.93 14.3-1.84 18-3.67 3.69-1.85 5.53.44 8.76-3.7 3.23-4.17 3.23-3.69 7.84-5.56 4.62-1.83 3.69-5.04 9.69-3.22 6 1.83 9.23.93 18 7.85 8.76 6.92 14.31 9.23 18 12.91 3.68 3.68 7.37 6.02 7.37 6.02s3.7-1.39 7.39-3.24c3.68-1.83 5.07-3.22 7.85-1.37 2.77 1.85 5.07 2.29 5.07 2.29l-.29-.33c.01-2.36.02-4.46.02-6.21-7.45-7.17-11.71-17.15-11.71-27.52 0-8.78 2.95-17.14 8.35-23.94-11.16-4.17-20.39-12.46-25.81-23.21h-40.81M418.15 156.34s-.15 0-.41.03c3.69.61 12.67-.03 12.67-.03-4.15-.81-4.34-4.56-6.61-6.66-2.26-2.1-4.34-3.09-7.36-3.09-3.47 0-5.24 1.85-4.89 5.12.34 3.29 2.95 4.63 6.23 4.63M448.38 149.66c-2.26-2.1-4.34-3.07-7.35-3.07-1.93 0-3.59 1.39-5.89 2.14.28.27.6.59.98.93 2.26 2.12 2.45 5.87 6.61 6.68 0 0-.15 0-.41.03 3.69.61 12.67-.03 12.67-.03-4.16-.81-4.34-4.56-6.61-6.68M472.97 149.66c-2.26-2.1-4.34-3.07-7.36-3.07-1.92 0-3.58 1.39-5.88 2.14.28.27.6.59.98.93 2.26 2.12 2.44 5.87 6.6 6.68 0 0-.14 0-.4.03 3.68.61 12.67-.03 12.67-.03-4.16-.81-4.34-4.56-6.61-6.68"/><path fill="#46b7e8" d="M477.1 146.4c2.89-4.55 4.55-9.93 4.55-15.71 0-16.23-13.15-29.35-29.37-29.35s-29.37 13.12-29.37 29.35c0 5.82 1.7 11.27 4.62 15.81l-.2.32c.45-.12.93-.21 1.4-.21 2.52 0 4.37.65 6.22 2.08l.78-.16c2-.79 3.52-1.92 5.27-1.92 2.44 0 4.25.6 6.06 1.95l.35.17c2.3-.75 3.96-2.16 5.89-2.16 2.53 0 4.4.69 6.3 2.18l.1-.02c2.3-.75 3.96-2.16 5.87-2.16 2.4 0 4.23.63 6.01 1.98l.38.18c2.04-.67 3.55-1.83 5.21-2.1l-.11-.23M553.48 204.64s2.42-2.74 6.22-3.8c3.81-1.03 7.96-1.37 13.85-1.74 5.88-.36 4.15.37 8.3 1.04 4.15.7 8.64 2.76 10.38 4.87 0 9.33-.69 20.74-2.08 31.13-1.38 10.39-2.08 10.75-2.08 10.75v.34l5.54 2.41s2.76 4.17 5.87 3.12c3.1-1.05 2.43-.69 2.08-16.28-.34-15.56-5.19-39.11-5.19-39.11v.69l-1.03-2.75c-.69-4.16-5.71-3.28-6.74-2.08-1.04 1.22-1.39 1.55-1.39 1.55s-.86-.18-3.47-1.05c-2.59-.86-5.36-1.03-10.03-1.03s-4.16 0-9 .88c-4.85.87-6.92 1.54-9.17 3.64l-2.08 7.42M293.06 171.06s6.45-13.83 9.92-19.13c2.23-3.42 3.71-4.59 5.26-4.33 0 0 2.13-.88 5.57-1.43 3.46-.57 8.42-3.47 8.42-3.47v.1s1.85 6.59 3.35 9.93 1.96 2.55 3.47 2.42c1.49-.11 5.42-.24 7.73-.24 2.3 0 1.5-.92 2.19-3.8s.81-7.03.81-7.03l.35.93v-.58s1.48 2.89 5.3 4.03c3.8 1.15 7.38 1.7 7.38 1.7 3.1.51 6.62 8.98 10.09 12.62 3.46 3.64 2.93 5.17 2.93 7.42l.12.38c-1.01-1.24-2.02-1.75-2.02-1.75-5.71-.53-5.36 5.54-5.71 10.21.74 1.46 2.8 3.05 5.01 4.33l-.32.15s-2.6 11.08-4.16 15.22c-1.54 4.16-3.27-1.2-4.49-6.22-1.2-5.03-2.77-9.87-3.45-21.11-.87 5.18-1.57 20.07-1.57 20.07l-.3.32c-1.01-.07-2.29.31-3.51 1.17-3.23 2.32-1.15 1.16-5.07 1.16-3.93 0-9.24-.92-13.38-2.77-4.16-1.83-5.53-.93-8.76 0-3.24.92-6.01.7-6.01.7s-2.31-3.02-.92-8.54c.6-2.42.92-2.32-.46-3.48-1.39-1.15-1.15-6.91-1.15-6.91s-1.15 1.59-1.61 3.93c-.46 2.31-4.21 15.66-4.21 15.66-2.07 6.75-6.18 12.24-8.07 5.49l-.41-6.85c3.47-1.16 4.38-4.86 5.31-11.32.87-6.07-3.68-8.1-7.6-7.37v-1.63"/><path fill="#46b7e8" d="M312.55 197.03c-4.15 4.5-5.19 9.7-6.22 17.65-1.04 7.96-.69 13.85-.34 19.05-3.82 14.53 4.5 36.69 4.5 36.69s-1.74 10.7 1.04 22.16c-2.09 4.14-2.78 3.79-2.78 3.79s3.81 6.56 2.78 11.08c-1.04 4.48-.7 4.83 2.08 7.61-1.39 2.09 3.11 11.09.69 22.83 3.45-1.36 10.04 3.82 16.61 6.59 6.57 2.76 15.57.34 19.72-1.72 4.16-2.11 10.38 1.72 10.38 1.72s1.04 2.76-.69-2.42c-1.73-5.19-4.84-9-4.84-9s-2.77-28.75-1.74-38.1c1.04-9.31 2.08-9.67 2.08-9.67s-1.73-4.17-2.08-10.74 1.38-13.85 2.43-19.04c1.04-5.19-.35-8.28-.35-8.28l-.01-.02c-.45-.09-.91-.21-1.38-.34-2.41-.69-2.41-.36-3.45.34-1.04.69-2.08 0-4.5-.7-2.44-.67-.7-6.22-.7-6.22l-.11-.46-.46-38.78s-8.99.94-13.37 1.18c-4.39.23-1.85-1.39-6.7-3.68-4.85-2.32-12.68-1.18-12.68-1.18"/><path fill="#fff" d="M449.75 388.35c26.76 0 30.47-1.96 56.3-7.05-4.15-8.29-4.15-15.46-7.38-25.15-3.23-9.67 12-9.23 23.08-9.67 11.08-.47 76.61.92 92.31 1.38 15.69.47 16.61-.92 29.53 6.46-4.15 6.45-8.76 17.54-11.53 22.6-2.78 5.09-3.69 7.39-12 5.54l-1.84 5.55c-11.54-.46-16.62-1.39-12-6.92s5.54-9.71 5.54-9.71l-54.46.48 7.85 12.47s-40.62 27.21-115.39 27.21c-74.75 0-115.37-27.21-115.37-27.21l7.83-12.47-54.44-.48s.91 4.16 5.52 9.71c4.62 5.53-.46 6.46-11.98 6.92l-1.85-5.55c-8.3 1.85-9.23-.45-12-5.54-2.76-5.06-7.38-16.15-11.53-22.6 12.92-7.38 13.85-5.99 29.54-6.46 15.69-.46 81.23-1.85 92.31-1.38 11.07.44 26.31 0 23.07 9.67-3.23 9.69-2.77 16.18-6.91 24.48 25.83 5.07 29.06 7.72 55.83 7.72"/><path fill="#ffe84f" d="M452.51 234.07c6.49 0 11.75-5.26 11.75-11.74 0-6.49-5.26-11.76-11.75-11.76-6.48 0-11.74 5.27-11.74 11.76 0 6.48 5.26 11.74 11.74 11.74M577.96 163.69l9.61-.22-3.64-16.44-3.66-.77c.36.26.91 1.21 1.47 4.3.93 5.05 2.08 9.93 2.08 9.93l-5.08.2c.03-.02.05-.02.08-.02l-4.45.24.01-.02-6.48.27s-1.85-9.69-5.08-15.23l-2.41.77c2.08 3.25 5.53 17.28 5.53 17.28l7.3-.18c.08 1.32.32 2.85.32 4.17 0 2.78-2.43 8.31-3.47 11.78s-3.98 13.66-3.98 13.66l4.33-.49s2.42-6.59 4.5-12.82c2.07-6.22 2.77-7.96 3.12-13.16l-.17-3.19M488.83 148.14s11.52-.16 14.27-.08c2.78.08 2.78-2.35 0-2.35h-14.36c-2.76 0-3.9 2.27.09 2.43M494.37 156.54s.1 2.6.1 3.64 1.99 2.18 1.99.07c0-2.05-.08-4.06-.08-4.06M431.86 109.22c1.66-.93 3.23 4.17 3.23 4.17l.47 2.98s-.7.92.69.26c1.37-.7 2.29.66 2.29.66l-.35.13c-.68.69-1.37.18-2.42 1.37-1.03 1.22-2.25 2.08-2.25 2.08s-1.2-.16-1.2 1.41c0 1.54-.53 2.23-.7 1.17-.18-1.02-.18-1.53-1.56-2.05-.69-.25-1.3-.49-1.78-.4l-.12-.46s-.23-2.52-1.38-4.17c0 0 3.46-6.22 5.07-7.15"/><path fill="#ffe84f" d="M407.32 251.71c.41.03.8-2.42 2.04-2.91 3.31-1.65 6.94-3.66 9.61-6.5l-1.06.02c-5.18 3.54-10.73 6.02-17.06 7.22l-1.02-.87c3.95-4.37 9.59-6.35 14.08-9.9l.29-1.51-.81-.15-4.46 1.26-5.9.49-.22-.51 2.45-1.49c.45-.92-1.33-.48-1.89-1.12l-.2-.75 6.35-2.65.31-.88c-.84-.66-2.44.65-3.21-.64.6-1.05 2.27-1.07 3.92-1.45-.11-.2 1.05.61.8-.42 1.5-.38 3.62-.71 3.88-2.41-1.28-.34-2.64.06-4.09-.09-3.52-1.56 1.72-1.21 1.19-2.86-2.94-.53-5.91-.02-9.17-.09-2.35-.16-5.81.37-6.93-1.48 1.8-.64 4.07-1.58 5.88-1.67-.58.06-2.22-.8-2.44-1.38l8.69-.51 7.4-1.51c.76-.76-.41-1.37-.66-1.66-3.9-1.35-8.28-3.35-12.77-4.99-.84-.59-2.23-1.3-2.04-2.4 3.31-.4 6.14 2.34 9.19 1.9 3.29-.27 7.31 2.5 10.91 1.52-.09-.51-.29-1.15-1.02-1.02-5.24-3.68-10.85-6.6-15.48-10.16-.17-.98.89-.52 1.07-.84l-.28-.67-6.13-3.9.84-.66c6.83.57 11.97 4.61 18.51 7.26.46.18.84-.7.39-1.04-2.67-1.72-5.28-3.31-7.69-5.53 1.42-2.35-2.06-2.88-1.85-4.88l.63-.05c6.5 3.67 13.59 9.6 20.62 12.23l.95-.53c-5.06-6.03-10.78-9.91-15.98-15.98.08-.67-1.34-1.59-.18-2.03l5.83 3.88.07-1.36c4.46 2.65 8.35 7.21 12.51 9.4-2.49-3.41-3.34-7.09-6.12-10.46l-.92-2.45c1.3-.64-.55-1.33-.11-2.23.26-.55.81.2 1.23.18l10.29 12.37.83-.59-.39-.95c.32-.4-.27-.71-.54-.69-1.27-2.99-2.67-4.94-3.68-7.91 1.13-.75 1.4 1.96 2.53 1.03-.41-1.36.99-.84 1.3-1.72.19-1.12-1.3-3.42-.31-4.92.93-.17 1.36 1.06 1.72 1.51 1.15 4.29 3.07 8.4 6.22 12.1 1.74 1.22 1.04 3.23 3.22 3.74 2.26-1.62 1.91-4.88 3.75-7.11 1.03.11 2.02.57 2.47 1.66l1.7-1 1.53 1.34c.62-.06 1.38-1.81 2.17-.83.52 2.27-.28 4.7-.75 7.1l.41.67.43-.23 6.49-15.17 1.02-1.15.58.42-1.72 6.35c.58.48 1.19-.64 1.67.04-1.24 2.44 1.24.07 1.79.82.11 3.49-1.8 6.48-.6 8.92 1.14.48 2.81-.21 3.55-1.22 1.89-3.58 4.61-7.37 6.26-9.84l1.05-.02c-1.66 4.48-4.02 8.25-5.2 12.25.62.53.55-1.35 1.58-1.24l.67-.97c1.87-2.5 4.07-4.22 6.61-5.9.44-.92 1.71-1.71 2.78-2.48 1.34.35.5 1.65.66 2.09l.63-.05c1.18.65.02 1.66.36 2.48.68.13 1.88-1.33 2.83-.97l.03.97-4.04 5.21-.45.32-2.28 2.52-3 4.67.32.82c3.32-3.07 6.68-3.89 9.72-6.9l1.93-1.26 1.29-.27c.29 1.83 1.89 1.81.64 3.11l1.23.14.57.55c-2.59 1.45-4.33 4-7.12 4.74-2.71 1.86-5.36 1.86-7.12 4.11l.37.93.33-.36c3.7-.84 6.95-1.91 11.07-2.8 1.11-1.26 2.29-1.13 3.64-1.46 1.41-.28.85 1.04.7 1.81.4.24 2.53-.22 2.08 1.46l-.88 1.03 1.09.87c-1.36 1.6-3.3 2.92-4.64 3.13-3.7.72-6.4 1.26-9.74 2.51l-.07.69 2.39-.11c3.81.06 8.51-2.23 12.94-1.87.64 1.18.91 1.2 1.79 2.19l-.96 1.15c.41.74 2.48.82 1.66 2.06-5.97.46-10.11.72-15.18 1.37l-1.38 1.1.85 1.1.61.16c4.19-.8 8.09.52 12.66 1.36l-.04 1.18c-.47 1.14 1 1.01 1.36 1.6l-1.23 1.11c-.58 1.54 1.41.51 1.05 1.85l-2.86.74-11.82-.76-1.19.61c1.74.76 3.55 2.76 5.19 2.92 3.1 2.84 7.9 3.7 11.52 6.11.5.68 1.31.84 1.11 1.38l.48 1.31c-.07 0-1.15.29-1.49-.3-5.09-1.18-9.19-2.59-14.11-4.02l.34.59c1.22 1.01-.74 1.1-.81 1.79 3.86 3.53 8.25 6.1 13.58 7.74 2.81.44 4.14 3.55 6.85 3.7l.88 1.49"/><path fill="#ffd9ee" d="M565.37 144.99s1.37-2.52 1.37-6.45c0-3.91-.69-6.67-.69-6.67l-1.61-.72s2.3-1.37 2.09-2.29c-.24-.93-.24-2.31-.24-2.31s7.39.92 12.92.69c0 0 .49.05.58 1.39.09 1.24.78 1.72.81 3.45.04 2.9-1.61 2.09-1.61 6.01 0 3.91-.46 7.36-.46 7.36l1.38.72s.93-.72 1.85 4.35c.93 5.09 2.08 9.93 2.08 9.93l-15.92.68s-1.84-9.69-5.07-15.22l2.54-.92M567.67 121.22s6.7.24 9.24.24c0 0-1.39-2.07-1.62-2.98-.23-.93-1.61-1.63-2.08.22-.46 1.84-2.77 2.99-3.46 1.6-.7-1.36-1.62-1.6-2.09.92M529.26 172.12s-5.54-4.5-10.74-9.34c-5.19-4.85-7.61-6.24-10.39-9.72-2.78-3.45-9-4.5-9-4.5s-.69 1.43-1.17 2.73c-.32.97-.74 1.25-1.2 1.54l.88-1.7s-3.81-1.39-4.96-2.09c-1.14-.68-3.23-.46-2.54.91.7 1.41.58 1.98.58 3.48 0 1.48 0 2.74 1.27 2.89 1.26.09 2.99 0 2.99 0l.14-.27c.28.23.58.23 1.5-.35l-.13.09s-.39.97 3.47 1.96 3.5-.48 5.58 1.98c2.09 2.48 16.45 22.31 22.1 25.87 5.64 3.59 11.42 4.87 11.42 4.87l-9.79-18.35"/><path fill="#ffd9ee" d="M539.17 190.56c.35-4.81-1.39-11.52-1.96-13.25-2.88.8-5.31 1.36-6.92-1.85-1.62-3.24-1.73-2.65-1.5-3.47M605.74 171.06c.7-3.97 2.43-8.28 2.43-15.22 0 0-2.09 0-2.43-1.9-.35-1.88-.35-3.46-.35-3.46s-1.9-.51-1.38-1.2c.52-.7.87.18.34-.53-.52-.66-2.08-1.91 0-2.05 2.09-.18 3.64-.18 4.16-.18.51 0 .69 0 2.07 1.57 1.39 1.52 2.08 1.21 2.6 4.5.53 3.27 1.22 11.41-.69 19.02s-5.02 19.55-7.96 22.5c-2.95 2.94-5.19 2.43-5.54-1.19-.33-3.64-.51-5.37-.51-5.37 1.21-.87 2.24-.87 2.94-3.98.69-3.11 1.91-4.33 2.94-6.58 1.05-2.25 2.26-4.67 1.39-5.86M322.24 142.8s1.96-1.04 2.54-2.65c.58-1.59.47-2.65.35-5.98-.11-3.35-.23-4.04-.23-4.04s-1.96.92-2.08-.93c-.11-1.85.11-3.92.11-3.92s1.03-.09 1.62-2.07c.57-1.96 3.22-5.54 4.84-6 1.61-.46 4.04-2.41 4.04-2.41s.67 2.41 2.52 3.11c1.84.69 4.5.69 4.96 4.5.45 3.8.11 4.14-.34 6.68-.46 2.55-1.16 2.78-1.27 6.69-.1 3.93-.71 6.33.8 9.25l-.34-.93s-.12 4.15-.81 7.03.11 3.8-2.18 3.8c-2.31 0-6.23.11-7.73.24-1.5.12-1.96.93-3.47-2.42-1.5-3.34-3.35-9.93-3.35-9.93M293.06 172.69c3.92-.7 8.48 1.32 7.61 7.37-.93 6.48-1.84 10.17-5.31 11.32"/><path fill="#ffd9ee" d="M292.6 192.53c-4.38-2.28-8.07-9.44-9.7-22.39-1.61-12.91-3.23-21.21-1.38-24.23 1.85-2.98 2.31-7.13 3-8.74.69-1.63.69-3.93 2.08-5.78 1.38-1.83 3.69-3 2.54-1.37-1.16 1.62-1.16 1.37-1.86 4.15-.68 2.76-.92 4.37 1.16 3.46 2.07-.92 6.23 0 4.84 1.15s-.92.93-.92.93 2.07 1.37.68 1.83c-1.38.46-.68.24-.68.24s1.84.69.92 1.61c-.92.93-1.61-.22-.69.44.93.69 1.15 1.41-.23 2.1 0 0-1.86 1.59-3.93 4.15-2.08 2.54-2.77 1.16-1.85 4.85.93 3.69 3.92 8.52 3.92 8.52M363.96 168.83s2.95 1.54 3.81 5.54c5.54-3.12 14.01-7.95 18.52-11.59 4.5-3.64 3.98-2.6 6.58-4.67 2.57-2.08 3.63-2.41 7.42-3.47 3.81-1.03 5.7-1.19 7.26-1.72 1.57-.53 2.95-.33 2.78.69-.18 1.03-.18.53-.18.53s2.6 1.89 3.64 2.77c1.04.84 2.26 3.09.18 1.73-2.09-1.41-3.47-2.61-3.47-2.61s-.35 2.78-.87 2.78c-.5 0-.32-2.44-.32-2.44s-.86-.32-2.78.71c-1.9 1.03-5.36 1.18-5.36 1.18s-.53.55 1.21 1.41c1.73.86 3.46 1.88 2.77 2.58-.7.69-.7.69-2.77-.15-2.08-.86-.69-.69-2.94-.52-2.26.17-4.33-1.22-6.07 2.06-1.73 3.3-11.42 17.14-19.72 21.14-2.77 1.17-3.11 1.89-6.22.69-3.12-1.22-7.96-4-9.17-6.41.33-4.69 0-10.76 5.7-10.23M317.24 340.01s-2.78.86-3.99 2.75-2.43 2.25-.18 3.13c2.26.84 2.95.49 5.19-.38 2.26-.84 3.98-2.06 3.98-2.06l-2.76-1.92-3.47 2.09s.17-2.42.87-2.59c.69-.19 1.21-.52 1.21-.52l-.86-.53M317.93 338.95l5.87 3.81 1.55-1.2-6.91-3.28-.51.67M349.24 343.78l2.95 1.75s-.69-1.75 1.57-1.89c2.25-.17 4.15-.7 4.15-.7s-5.71-1.91-8.66.84M353.76 346.39s3.11 3.81 3.98 4.14c.86.36 1.56.53 2.08.53.51 0 1.04-.17 1.89 0 .86.17 1.39-.69 1.39-.69s.68.69 1.39.16c.68-.52 2.07-.52.51-1.74-1.57-1.17-3.47-3.78-3.47-3.78s-2.41.88-1.04 2.25c-1.89-1.56-5.35-3.81-6.73-.88M538.25 339.48l-1.21 2.27 3.64 2.06 2.25-2.59s-2.42-2.27-4.67-1.74M543.78 342.06l-1.56 2.78 2.6 2.23 2.25-2.23-3.29-2.78M539.63 351.76l4.16-3.98s-1.56-2.06-3.11-.16c-1.56 1.89-2.43 1.53-1.73.33.68-1.22-.88-3.47-1.57-3.81-.7-.33-.34-.69-1.55 1.01-1.21 1.75-1.9 1.58-.69 3.13 1.2 1.54 1.2 2.25 2.6 2.41 1.38.18 1.89 1.05 1.89 1.05M578.22 346.76c1.56.88 2.08 2.25 3.47 2.41 1.38.17 1.2.17 1.89.17s1.05.35 1.56.51c.51.18 1.22 0 1.22 0s-.34 0 1.37-.33c1.73-.35 1.9-.88 1.9-.88s-.85-1.2-1.9-1.88c-1.03-.7-4.84-2.76-4.84-2.76s-1.21-.88-2.07.48c-.88 1.41-2.61 2.28-2.61 2.28"/><path fill="#193a84" d="M398.87 331.34s6.11-3.35 11.18-3.8c5.08-.44 6.46 1.4 10.62.91 4.15-.46 17.52-4.13 17.52-4.13 6.93-3.24-3.68-4.17-3.68-4.17l-5.07-.44s-.92-.46-5.08-3.22c-4.16-2.78-5.07-1.41-10.15.44-2.9 1.06-3.85 1.22-4.72 1.06l1.02-1.5-6.92-.92 8.3-1.39-7.83-.93 5.99-1.37-6.46-.92 5.07-1.4-5.07-1.37 7.85-.93-9.24-.9 13.85-1.41s2.3-1.83-6.92-1.83c-9.24 0-28.16-1.39-28.16-1.39h-.65c.01-3.15.01-6.58.02-10.15l.18-.44h138.92l.63.44c.01 3.73.01 7.33.02 10.61h-.65l-38.77 1.39 6.46 3.22-4.62.46 6.01 1.39-3.7 1.39 6.46.45-5.53 1.39 9.24.47-9.24 2.29 8.76-.44-2.39 1.05c-.73.18-1.49.32-2.23.32-2.75 0-9.21 2.75-9.21 2.75s-2.31 1.85-5.54 0c-3.24-1.83-7.38-3.68-11.54-3.24-4.15.46-6.46 6.48-6.46 6.48s-2.3 1.85.46 4.63c2.77 2.75-.93 1.82-5.08 2.75-4.15.92-5.08-.16-8.76 0-10.15.48-21.69 4.61-11.08 6.02 10.62 1.36 28.62.9 33.7 1.36 5.07.47-2.78 4.61-13.39 4.61-10.62 0-20.77-.9-21.69-2.76-.92-1.85-7.37-4.14-8.76-1.85-1.39 2.32-8.76 2.78-8.76 2.78"/><path fill="#197352" d="M380.06 257.85s1.84-1.83 5.53-3.68c3.68-1.86 5.07-2.78 7.84-.93 2.75 1.85 5.53 2.76 5.53 2.76s3.7-2.32 6.93-4.63c3.23-2.3 2.3-3.69 6.46-2.76 4.15.93 14.3-1.84 18-3.69 3.69-1.83 5.53.48 8.76-3.68 3.23-4.15 3.23-3.71 7.85-5.54s3.68-5.06 9.69-3.24c5.99 1.85 9.22.93 17.99 7.87 8.76 6.91 14.31 9.23 18 12.91s7.39 6.02 7.39 6.02 3.69-1.41 7.38-3.24c3.68-1.85 5.07-3.22 7.85-1.39 2.77 1.85 5.07 2.29 5.07 2.29v33.71l-139.84.93-.47-33.71"/><path fill="#c5baad" d="M608.34 155.84l.18 12.97-3.3-.16.86-13.65M608.75 141.29c0-.97-.76-1.74-1.71-1.74s-1.71.77-1.71 1.74c0 .58.3 1.11.76 1.42v3.27l2.09-.19-.16-3.11c.45-.3.74-.83.74-1.39"/><path fill="#10503a" d="M410.05 327.54c5.08-.44 6.46 1.4 10.62.91 4.15-.46 17.54-4.13 17.54-4.13 6.92-3.24-3.7-4.17-3.7-4.17l-5.07-.46s-.92-.46-5.08-3.22c-4.16-2.78-5.07-1.39-10.15.46-.28.13-.55.22-.81.28-.03.01-.06.04-.11.04-.23.08-.45.15-.65.23-.05 0-.08.02-.12.02-.2.07-.39.11-.56.17-.02 0-.06.02-.08.02-.18.06-.33.1-.49.15h-.01c-.15.02-.29.06-.43.08h-.05c-.13.05-.23.05-.35.07-.02 0-.05.02-.07.02-.11 0-.2.02-.3.02H409.86v-.02c-.1 0-.18-.02-.27-.02-.02 0-.02-.02-.04-.02h-.03c-.65-.11-1.28-.4-2.65-.6-3.23-.44-8.32 3.25-8.32 3.25s-.92 1.38-5.98 0c-5.08-1.39-4.16-2.32-12-2.32l-.22.15c0 .4 0 1.24.02 1.83.19.12.44.27.8.51 1.96 1.06 8.99 5.08 18.15 10.33 1.4-.73 6.46-3.18 10.79-3.58"/><path fill="#10503a" d="M518.97 319.69s-6.46.44-5.53-4.17c.93-4.57-3.68.95-3.68.95s-3.24-.48-9.7-4.63c-6.46-4.13-4.16 1.85-4.16 1.85s-1.74.99-3.77 1.52l-.01.02h-.05c-.09.02-.19.05-.29.07-.08.02-.15.04-.24.06-.11.02-.21.02-.32.04-.08.03-.15.03-.23.03-.12.01-.23.03-.36.05-.07 0-.12 0-.19.02-.18.02-.36.02-.53.02-2.76 0-9.23 2.78-9.23 2.78s-2.29 1.83-5.52 0c-3.25-1.85-7.39-3.7-11.54-3.24s-6.46 6.46-6.46 6.46-2.3 1.85.46 4.63c2.76 2.77-.93 1.83-5.07 2.77-4.16.9-5.09 0-8.77 0-10.15.46-21.69 4.6-11.08 5.99 10.62 1.37 28.62.93 33.7 1.37 5.07.46-2.78 4.63-13.39 4.63-10.62 0-20.77-.93-21.68-2.78-.93-1.85-7.39-4.14-8.77-1.85-1.39 2.34-8.76 2.78-8.76 2.78l-6.87-3.58c14.57 8.37 31.96 18.4 43.26 24.92h.13c21.13-12.22 63.7-36.7 69.02-39.63.37-.2.61-.37.8-.49l-1.12-.59M469.6 272.17s2.77-4.17-4.16-4.63c-6.91-.47-8.76-2.3-14.76-1.39-6 .92-10.15.92-10.15-1.83 0-2.77 3.23-3.69 6-1.84 2.78 1.84 3.23-.47 6.46.44 3.24.91 4.15.91 6.47-.91 2.3-1.85 2.3-2.31 5.99-1.85 3.69.44 4.62 0-.92-2.31-5.53-2.32-6-.93-3.23-5.56 2.78-4.58 1.84-7.35-2.3-6.89-4.16.44-4.16 2.28-6.01 5.53-1.84 3.21 3.69 5.07-3.68 6.92-7.38 1.85-15.22.46-18.46.46-3.23 0-3.23-.93-5.53 3.22-2.31 4.16-2.31 3.69-9.69 4.64-7.39.9-7.39 2.76-5.54 4.12 1.85 1.41-.45 1.86-3.69 1.86-3.23 0-5.99.46-9.22.92s-.93 3.24-.93 3.24 4.62 1.39-1.84 1.85c-6.46.45-16.61 5.06-8.77 5.53 7.85.44 12.92.44 14.31 2.29 1.39 1.83 3.23 4.63 3.23 4.63h-22.61v-21.24c6.92-3.68 12-6.89 16.62-6.45 4.61.46 7.84 3.69 10.61 1.84 2.78-1.84 6.46-2.28 6.46-2.28s6.47 1.84 7.39.44c.92-1.37 2.75-4.17 2.75-4.17s-5.52-2.75-7.37-3.22c-1.84-.46-2.78-1.85.92-2.75 3.69-.93.93-4.63.93-4.63l4.16-.47s2.76 3.69 1.37 6c4.16 0 3.7-1.39 8.32 1.85 4.6 3.22 9.69.93 9.69.93s10.14-4.17 8.76-8.78c-1.39-4.59-3.23-8.76 1.39-9.22 4.62-.47 4.15 2.29 4.15 2.29s4.62-1.83 8.32-1.83c3.68 0 6.45-.93 6.45-.93l5.08 3.69c-7.39.92-8.31 0-9.69 3.72-1.39 3.67-1.84 6.45-2.77 7.82-.93 1.39 3.68 1.39 3.68 1.39s3.69.92 6.92-2.76c3.23-3.7 6.93-6.45 6.93-6.45s5.53 3.67 8.76 6.45c3.22 2.76 8.3 5.53 10.61 7.83 2.3 2.31 5.99 5.52 10.61 6.45 4.62.92 8.29 3.7 8.29 3.7l-.45 6s-6.91-3.68-12.46 0c-5.53 3.7-5.08 1.41-9.24 1.41-4.15 0-9.22-1.41-11.99-1.41-2.76 0-10.6 2.78-14.3 2.78-3.69 0-4.15 0-9.23-1.86-5.06-1.85-4.61-.44-7.84.93-3.23 1.39-6 0-10.62 2.76s-7.85 1.4-7.85 1.4 3.7-1.4.46-4.65c-3.23-3.21-1.84-5.53-1.84-5.53s-4.62-6.9 0-5.53c4.61 1.41 5.08 4.16 11.07 5.09 6.01.93 14.31.93 14.31.93h9.7"/><path fill="#596e60" d="M447.73 111.2c-.69-1.41-.34-1.89.18-3.11.5-1.25.33-1.58.16-2.27-.16-.7-1.56-1.56.51-1.04 2.08.53 1.73.18 2.94.32 1.22.19 1.91 1.05 1.39 1.91-.5.86 0 1.39-1.39 2.08-1.37.68-2.06 1.03-2.41 1.56-.34.53-1.39.53-1.39.53M453.96 109.64c.87-.33 2.09 0 1.04.51-1.04.5-1.04-.51-1.04-.51M444.44 109.97c.52-.35.17-.88.87-1.02.69-.17.69-.17.51-1.23-.16-1.04.16-1.21-.86-1.72-1.04-.51-1.91-.69-1.21.15.69.86.52 1.75.52 1.75l-1.22 1.19s.87 1.23 1.39.87M459.49 115.36c0-.89.53-1.24-.34-1.91-.87-.7-1.57-1.72-.35-1.03s3.12 1.36 2.08 2.25c-1.03.86-1.39.69-1.39.69"/><path fill="#596e60" d="M457.94 115c0-1.04 1.03-1.9.86-.88-.17 1.05-.86.88-.86.88M432.71 128.76c.69-.39.13-.79.91-.61.79.17.7.17 1.04.57.35.4.56.77-.13.58-.7-.16-.51.08-1-.08-.47-.15-.82-.46-.82-.46M431.76 127.03c-.28-1.22-.69-1.42-1.21-1.24-.53.17-1.13-.51-.48-.51s.7-.29 1.6.62c.92.92 1.82 2.12 1.04 1.96-.78-.15-.87-.45-.95-.83"/><path fill="#596e60" d="M470.22 147.18c-.17-1.54 0-2.23.7-3.64.69-1.34 1.38-2.75.17-3.64-1.21-.84-1.04-1.34-1.04-2.23 0-.86 1.21-1.56-.86-1.72-2.09-.17-3.29.34-5.02 1.05-1.73.67-2.95 0-3.98-1.05-1.04-1.03-1.39-1.91-1.73-2.59-.35-.69.17-1.75-.18-2.96-.32-1.2-.15-2.25.69-3.64.88-1.37 1.74-2.25 1.74-2.25l.51-1.53s-.34-.7 1.22-.87c1.56-.19 2.42-.89 3.47-1.4 1.03-.51 1.03-.17 1.55.51.5.7.68.35 1.9.7 1.2.36 1.55.17 1.38-.35-.18-.51.17-.51 1.21-.7 1.04-.16 2.07-.51 1.73-1.7-.34-1.24-.34-1.06-1.21-.69-.86.33-.86 0-1.38-.72-.52-.69-.69-1.2 0-1.73.68-.5 1.73-1.03.34-1.72-1.39-.68-3.12-.88-2.25.53.86 1.37 1.38 1.37.69 2.39-.69 1.05.52 2.59-.52 1.58-1.04-1.05.52-1.74-2.08-2.6-2.59-.86-2.59 0-1.2.69 1.38.7 2.25 1.38 2.07 2.07-.15.68-.68-.16-.68-.16s-.52-.33-1.73-1.05c-1.21-.69-2.31-.53-2.42.72-.18 1.88.52 2.23-1.39 2.74-1.9.53-1.73.18-2.07-1.02-.36-1.23-1.22-2.09.51-2.09 1.74 0 2.08-.51 1.22-1.19-.87-.71-.87-.71-.18-1.75.7-1.05.52-1.89 1.91-2.42 1.38-.53 1.38-1.39 1.21-1.9s-.69-.7-1.56-1.21c-.86-.53-2.25-2.06-1.56-.88.7 1.21 1.38 1.91 1.73 2.27.34.33-.35 1.34-1.03.48-.7-.84-.7.38-1.39-.31-.69-.72-1.22-1.74-1.04-2.78.18-1.03-.7-1.91.69-1.91s2.08 0 2.08-1.02c0-1.04.34-.71-1.91-1.57s-4.15-1.19-4.32-2.05v-.28c10.45 1.39 19.16 8.29 23.13 17.66l-.29-.79s0 1.39.18 2.76c.16 1.39.33 2.62-.18 4.34-.5 1.75-.85.16-1.55-1.2-.69-1.38-2.76-3.63-2.76-3.63l-.7.49s1.73 2.25 2.95 3.99c1.21 1.74 1.89 2.76 1.89 2.76l1.03-1.38s.36 3.81-.34 5.86c-.69 2.07-.85 2.78-1.2 5.89-.34 3.11-.7 2.42-1.21 3.81-.51 1.37-1.39 2.78-2.41 4.67l-2.61 1.83-1.9-1.49M434.75 148.23s-.17-1.39-1.73-2.94c-1.56-1.54-2.08-3.09-2.78-5.03-.69-1.9-.86-2.94-.16-4.15.69-1.19 1.2-1.39 0-2.43-1.21-1.01-1.74-.66-1.9-2.95-.17-2.23-1.2-2.76-1.9-4.12-.69-1.4-1.21-1.57-.35-4.52.87-2.94.52-5.7 1.22-6.89l-.8 1.72c3.24-6.1 8.58-10.92 15.07-13.5l.12.75c-.07.41-.03 1.06.48 2 1.03 1.92 1.21 1.55-1.21 2.25-2.42.67-2.94.67-2.59 2.25.34 1.58 0 2.61 0 2.61s.85-.86 1.55-1.39c.69-.53.69-.86 1.37-1.57.7-.66 1.05.18 1.57.35.52.2.17-.7.7 1.75.5 2.42 1.02 5 .16 4.14-.86-.88-.16-1.21-1.56-1.39-1.38-.17-1.9.34-1.9.34s1.2 1.21 0 1.58c-1.2.31-1.2-.37-1.89.31-.7.69-1.39.2-2.44 1.39-1.03 1.22-2.25 2.08-2.25 2.08s-1.2-.14-1.2 1.39c0 1.56-.53 2.25-.7 1.19-.17-1.02-.17-1.55-1.56-2.08-1.38-.5-2.43-.86-2.77 1.06-.35 1.89-.16 4.66.69 3.64.87-1.06 1.9-.91 1.09.29-1.11 1.64-.55 1.77-.05 2.45.52.7.35.53.18 1.57-.18 1.05 0 1.91.51 1.91.52 0 .7.71 1.56 0 .85-.7 1.74-.7 2.77.16s2.08.18 3.28 2.09c1.21 1.9 1.39 1.53 2.43 2.08 1.03.51.17-.53 1.9 1.89s2.08 2.08 3.81 2.78c1.74.67 5.54 1.37 3.81 2.92-1.73 1.58-1.56 1.39-1.73 2.44s-.52 1.37-.52 1.37-2.83-1.67-5.36-1.43c-2.53.23-6.68 2.29-6.68 2.29l-.24-.68"/><path fill="#fff" d="M450.27 375.24s67.5-38.87 75.29-43.21c7.79-4.31 7.44-9.5 7.44-14.17v-72.69l-2.39-2.61c-5.7-4.67-9.34-11.76-9.34-19.7 0-8.96 4.58-16.83 11.56-21.37l2.44-1.64-6.11-10.99c-14.3-1.85-25.82-13.4-29.44-26.01h-49.45l-.15 12.84h40.82c5.4 10.75 14.64 19.04 25.81 23.23-5.41 6.78-8.36 15.13-8.36 23.92 0 10.36 4.25 20.35 11.7 27.54-.07 16.07.03 63.55.03 67.48v.59c0 .4 0 1.24-.03 1.83-.18.12-.42.27-.78.49-5.32 2.93-47.89 27.41-69.02 39.63h-.14c-21.14-12.22-63.71-36.7-69.03-39.63-.36-.2-.61-.37-.79-.49-.03-.59-.03-1.43-.03-1.83v-.59c0-3.93.11-51.41.03-67.48 7.45-7.19 11.71-17.18 11.71-27.54 0-8.78-2.95-17.14-8.35-23.92 11.16-4.17 20.39-12.48 25.81-23.23h40.63l.03-12.84h-49.45c-3.61 13.66-15.13 24.16-29.44 26.01l-6.1 10.99 2.43 1.64c6.96 4.54 11.55 12.41 11.55 21.37 0 7.94-3.64 15.01-9.34 19.7l-2.39 2.61v72.69c0 4.67-.35 9.84 7.43 14.17 7.78 4.34 75.28 43.21 75.28 43.21h.12"/><path fill="#fff" d="M422.11 296.2c2.08-2.94 1.04-4.31 1.04-4.31l9.52-.21 2.07 5.74c-1.9 0-3.3-.86-3.3-.86l-9.5.16-1.56 1.54M422.28 290.31c3.12-1.02 8.83-.14 8.83-.14s1.39-1.92.17-4.86l-9.34-.68s1.89 1.04.32 5.7M424.19 283.75l5.7.51s1.05-1.39.7-2.59l-6.23-.35s.33.52-.17 2.43M432.5 287.72l.86 4.7 2.95-.2-2.78-4.5h-1.03M420.39 295.17v-3.47l-11.43-1.53s1.04 1.37 0 6.22l11.43-1.22"/><path fill="#fff" d="M411.56 289.81c1.39-2.27 2.08-4.86 1.04-7.78l10.38.33s-1.2.17-1.72 2.95l-.53 2.77-9.17 1.73M421.42 282.03c-3.98-.86-8.66-1.39-8.66-1.39l.18-3.11 7.26.53s1.04 1.36 1.21 3.97"/><path fill="#fff" d="M412.25 287.72l-6.75-.52s.69-2.77-.87-6.03l7.62.86M408.62 290.17l-5.36-.22c.86 4.36 1.2 4.7 0 6.95l5.36-.86v2.43M490.71 300.54c-6-7.39-5.88-17.52-5.88-17.52l-5.3 2.29v17.28l13.96-2.62M477.56 302.28c-1.96-5.66-3.23-12.93-1.5-16.97 0 0-5.89 8.2-8.42 14.53l9.93 2.42M564.39 126.59s1.2-2.75 1.55-3.63c.35-.87.35-1.74 2.26-1.54 1.89.17 8.64.17 8.64.17s1.55.5 2.61 1.37c1.02.88 1.38 2.76 1.71 3.63.34.88 0 2.25-.85 1.56-.86-.68-2.08-.84-2.08-.84l-11.25-.53-2.59-.17M497.57 145.45l-1.39-72.168h-1.38l-1.39 72.168M289.37 149.39s16.84 193.13 17.3 195.91c.47 2.78 2.55 1.85 2.55 1.85l-18.24-199.37M288.33 137.17l-.52-5.36 1.39-1.75.86 6.94M288.85 129.01l-1.04-9.16-1.56.86 1.21 9"/><path fill="#ffd90f" d="M450.23 372.66c8.09-4.69 67.01-38.59 74.22-42.58 6.31-3.51 6.3-7.28 6.29-11.65v-.57c0-4.35-.05-63.82-.01-71.81l-1.71-1.88c-6.37-5.27-10.01-13.03-10.01-21.31 0-9.4 4.7-18.11 12.58-23.24-.01 0 .3-.21.69-.48l-4.56-8.2c-14.02-2.25-25.43-13.25-29.7-25.84h-47.76l-.08 8.36h42.14c5.54 11.88 15.79 20.72 28.31 24.44-6.35 6.62-10.01 15.52-10.01 24.96 0 10.15 4.25 19.76 11.72 26.58-.08 16.35.03 64.49.03 68.42v.59c.01 1.01.01 2.56-.16 2.96-.02.02-.36.51-1.81 1.35-5.67 3.11-50.3 28.79-70.14 40.24h-.08c-19.83-11.48-64.49-37.13-70.13-40.24-1.46-.84-1.8-1.33-1.83-1.35-.15-.42-.15-1.95-.15-2.96v-.59c0-3.93.1-52.07.02-68.42 7.46-6.82 11.71-16.43 11.71-26.58 0-9.47-3.65-18.34-10.01-24.96 12.52-3.72 22.77-12.56 28.31-24.44h41.96l.09-8.36H402.4c-4.26 13.62-15.68 23.59-29.7 25.84l-4.56 8.2c.4.27.7.48.69.48 7.88 5.13 12.59 13.82 12.59 23.24 0 8.28-3.66 16.04-10.02 21.31l-1.71 1.88c.04 7.99-.01 67.46-.01 71.81v.57c-.01 4.37-.02 8.12 6.29 11.65 7.21 3.99 66.13 37.89 74.22 42.58h.05M436.11 149.66c-2.26-2.1-4.34-3.07-7.37-3.07-1.93 0-3.57 1.39-5.88 2.14.28.27.6.59.97.93 2.26 2.12 2.46 5.87 6.61 6.68 0 0-.14 0-.4.03 3.69.61 12.68-.03 12.68-.03-4.16-.81-4.34-4.56-6.61-6.68M460.67 149.66c-2.26-2.1-4.33-3.07-7.35-3.07-1.93 0-3.58 1.39-5.89 2.14.28.27.61.59.98.93 2.26 2.12 2.46 5.87 6.61 6.68 0 0-.15 0-.41.03 3.7.61 12.68-.03 12.68-.03-4.16-.81-4.34-4.56-6.62-6.68M477.89 146.59c-1.93 0-3.57 1.39-5.89 2.14.29.27.6.59.98.93 2.26 2.12 2.46 5.87 6.61 6.68 0 0-.15 0-.41.03 4.67.29 8.18.86 8.18-3.16s-4.45-6.33-9.47-6.6M436.83 46.226c-4.16-.44-4.85 2.983-4.85 2.983s2.78-1.143 4.62-.443c.46.173.92.205 1.34.334l.49-1.657-1.59-1.217M447.67 99.778s-.54-1.238-.69-2.54l-1.88.15c.39.69.35 1.787.49 2.39 0 1.562.32 2.582-1.5 3.092-1.81.53-2.42.88-2.68 2.61.78-.78 1.38-1.91 2.17-1.2.77.7 1.9 1.12 1.9 1.12s-1.21-1.56.52-2.09c1.73-.52 4.76-.44 4.76-.44s-2.18-1-2.52-1.7c-.34-.69-.58-1.392-.58-1.392M459.9 100.22s-.23.93-.69-2.78c0 0 0-.268-.15-.935l-1.65.247c.12.57-.05 1.282.41 2.778.17.69-1.01.93-1.7 1.79 0 0 2.69-.34 2.43.97-.25 1.26.26 2.22.26 2.22s.52-.5 1.22-.86c0 0 .76.08 2.25.52 1.46.42 1.98 1.29 1.98 1.29s.78-2.25-1.55-3.45c-1.99-.95-2.68-1.47-2.68-1.47M564.9 119.61c3.47-1.85 6.46-3.24 8.31-2.76 1.85.44 7.39 2.3 7.39 2.3s.4-2.48-.93-2.99c-5.31-2.08-8.76-3.01-11.77-1.16-3 1.85-.48.88-3 1.85-.92.34-.86 3.29 0 2.76M570.09 179.73c1.04-3.47 3.47-9 3.47-11.78 0-1.37-.25-2.87-.35-4.16l-7.27.17s-3.46-14.03-5.54-17.28l-.19-.35c-3.9.72-11.6 2.42-13.14 5.01 0 0-.69 3.97-2.42 6.39-1.72 2.42-2.42 4.68-2.42 4.68s2.77 9-.68 11.41c-3.47 2.42-4.5 2.93-4.5 2.93s2.25 9.53-2.08 21.63l-.17.19s2.25 4.48 4.33 2.76c2.08-1.73.34-3.31 2.95-7.62 2.58-4.34 12.09-17.64 12.09-17.64s3.64 9.86 2.08 14.03c-1.55 4.14-2.08 6.22-.68 7.08 2.25-2.08 4.33-2.78 9.17-3.64.52-.11.97-.18 1.38-.25.67-2.29 3.08-10.62 3.98-13.58M604.02 170.06c-2.77-1.92-3.99-4.89-5.36-9.19-1.38-4.33-2.43-5.89-3.46-7.97-1.05-2.67-7.69-4.57-11.08-5.7l-.17-.17 3.63 16.44-9.6.24h-.14c.19.79.32 1.83.23 3.23-.34 5.2-1.04 6.92-3.12 13.14-1.91 5.72-4.09 11.74-4.45 12.66.79-.02 1.75-.02 3.24-.02 4.67 0 7.44.2 10.04 1.04 2.6.86 3.45 1.04 3.45 1.04s.35-.35 1.39-1.55c1.03-1.22 6.05-2.09 6.75 2.08l1.03 2.75s0-5.69 1.05-10.39c1.03-4.66.33.36 1.55 0 1.21-.35 1.73-2.41 2.59-5.16.87-2.78 2.43-3.47 3.47-6.95 1.03-3.44 1.73-3.64-1.04-5.52M593.64 261.42s.34-.33-1.05.34c-1.39.7.35-2.06.35-2.06l-1.74 1.72v-1.72l-1.03 2.41v-3.47l-1.73 2.78v-3.11l-1.39 1.7 1.04-12.8v-.34s.69-.34 2.08-10.73c1.38-10.36 2.08-21.8 2.08-31.15-1.73-2.07-6.22-4.15-10.39-4.85-4.16-.69-2.41-1.38-8.3-1.04-5.88.35-10.04.69-13.85 1.74-3.8 1.03-6.22 3.8-6.22 3.8s-.7 4.15-2.42 7.96c-1.74 3.8-1.74 9-3.11 21.44-1.39 12.47-.35 18 .69 24.94 1.03 6.9-.69 8.31-2.08 19.7-1.39 11.42-2.08 20.11-3.47 27.7-1.39 7.61-1.73 10.05-1.03 14.87.69 4.86-1.39 7.27-3.47 11.08-2.08 3.8-4.15 7.61-4.15 11.41 1.73-3.78 5.18-5.52 8.31-2.77 3.11 2.77 6.56 5.21 6.56 5.21l22.51 1.37s2.76-.35 5.87-3.11c3.12-2.76 3.46-2.42 5.54-.35s5.53 1.02 5.53 1.02 2.08-2.41 4.5-3.43c2.44-1.05-1.73-20.43-1.73-31.85 0-11.43 1.04-40.51 2.09-47.44v-1.01M339.67 115.11s-.45-1.06-1.03-1.5c-.58-.46-.35.81-1.27-.09-.93-.93-1.15.44-1.5 0-1.2-1.63-1.38 0-2.18-.93-.81-.93-.93.8-2.08.23-1.14-.6-.35.57-1.62.12-1.27-.48-.8.45-1.94.32-1.16-.11-1.04.26-1.74.26-.69 0-1.15.44-1.15.44s-.93 0-1.5.33l-.34 1.15-.24 1.85c2.44-1.61 4.73-3 8.77-3 4.03 0 6.35.46 7.84.8M312.21 192.07s2.77.21 6.01-.67c3.21-.93 4.61-1.85 8.76 0 4.13 1.83 9.45 2.75 13.37 2.75 3.91 0 1.83 1.16 5.07-1.16 3.22-2.28 6.91-1.15 4.84 2.53 2.99 2.78 2.76 4.62.69 6.01 0 0 7.84 30.68 7.84 36.44-7.61-.2-13.15 1.86-13.15 1.86l-.47-38.78s-9 .94-13.38 1.16c-4.36.25-1.84-1.37-6.68-3.68-4.84-2.3-12.69-1.16-12.69-1.16s1.38-1.36.23-5.3M363.21 343.78c3.69-1.26 2.65-1.13 3.58-2.05.93-.93 1.49-1.52 1.49-1.52l1.26 2.09 1.39 2.41.79-.67.12-.59.69-.46.58.79.47-.46.92.93-.11.7.23.46-1.03 1.15-.57-.69-.93 1.03 1.72 2.42s3.34-1.72 4.38-4.5c1.03-2.78 1.73-5.65-.91-6.35-2.66-.67-4.39-1.96-5.43.23-1.04 2.21-2.3 3.47-2.3 3.47l-1.39-1.98s1.5-3.55 2.89-4.48c1.38-.93 3.93-.69 5.77 0 1.83.68 5.29 1.6 4.95 4.84-.35 3.23-.68 6.45-2.98 8.08-2.31 1.61-3.7 2.41-3.7 2.41l.59.59s.58-1.41 4.27-1.28c3.68.12 5.64-.11 7.61 1.75 1.94 1.83 3.09 2.05 2.29 5.4-.79 3.34-2.06 6.22-3.68 6.14-1.61-.13-5.42-.25-5.42-.25l-.68-1.85s3.23.25 4.37.25 1.72-.11 2.41-2.19c.7-2.1 1.39-3.95.24-4.86-1.15-.92-2.19-2.88-5.19-2.31-2.98.59-5.18 1.17-5.18 1.17l.79 2.64 1.38-.11v-.57l.93-.35.58.46.46-.22.59 1.5-.59.33.24 1.15-.81.24-.46-.59-.92.59 2.07 4.48s-5.88-.22-7.38.93c-1.49 1.14-1.84 1.14-1.84 1.14s-.11-4.36-1.84-8.06c-1.74-3.7-3.23-8.9-4.73-10.62-1.49-1.74-1.96-2.78-1.96-2.78"/><path fill="#ffd90f" d="M381.1 344.73c.58 0 1.5-.33 2.42.34.93.67.24 1.03 1.16.57.91-.47 2.06-2.42 1.14-.11-.93 2.29-.81 3.94.09 3.45.93-.46 1.74-.8 1.62.23s-.12.8-1.5 1.16c-1.36.34-2.29-.7-3.91-.23-1.61.44-6.92 1.93-6.92 1.93l-.45-.9 4.26-2.99 1.73-2.54.35-.93M458.3 232.53c3.56-2 5.96-5.83 5.96-10.22 0-6.49-5.26-11.76-11.75-11.76-6.48 0-11.74 5.27-11.74 11.76 0 5.84 4.28 10.7 9.88 11.58"/><path fill="#d18644" d="M402.56 297.78l1.9 3.45h26.32s2.41-1.39 3.8-3.45c-5.19 1.17-23.54.84-26.66.84-3.1 0-5.35-.84-5.35-.84M475.13 306.06h14.88s1.84-1.02 1.15-3.58c0 0-10.73 1.06-17.07.81 0 0-.35.94 1.03 2.77M445.32 219.81c.6-1.21.93-1.35 2.35-1.28 1.42.05 1.54-.51 2.5-.46.93.05 1.08.84 1.08.84s-.65-.79-1.63.06c-1.3 1.15-3.26.73-3.26.73l-1.18.6.14-.49M459.94 219.81c-.6-1.21-.92-1.35-2.34-1.28-1.43.05-1.54-.51-2.49-.46-.96.05-1.1.84-1.1.84s.67-.79 1.63.06c1.32 1.15 3.27.73 3.27.73l1.18.6-.14-.49M450.27 224.01c.93.15 1.74.26 2.43.15.69-.15 1.39-.15 1.84-.24.46-.09.91 0 .12.33-.81.35-1.27.69-1.86.69-.58 0-1.37-.21-1.84-.45-.45-.24-.69-.69-.34-.58M449.34 226.79c1.85-.11 1.61 0 2.88-.11 1.27-.1 3.22 0 3.22 0l.29.53s-.17.04-1.2.04c-1.04 0-2.19-.11-3.11 0-.93.13-2.29-.02-2.29-.02l.2-.42M454.54 228.89c-1.04 0-1.96-.49-2.77-.49s-1.5.83-.58.7M449.87 222.66s-1.96 1.94-2.31 2.28c-.34.37-.12.25-.12 1.41 0 1.14-.69 1.36-.69 1.36s1.5-3.8 2.78-4.96M454.94 222.66s1.96 1.94 2.3 2.28c.34.37.12.25.12 1.41 0 1.14.69 1.36.69 1.36s-1.5-3.8-2.77-4.96M564.9 116.85c2.31-1.41 0 0 3-1.85s6.46-.92 11.77 1.16l-.23-.32c-.52-2.06-1.05-2.06-3.12-3.62-2.08-1.55-3.99-1.55-5.88-1.55-1.91 0-3.3 1.55-4.68 3.11-1.37 1.58-1.19 3.14-1.19 3.14l.33-.07M579.99 127.83s-.89-.36-.2.78c.69 1.15 1.05 1.72.81 3.47-.39 2.88-1.61 2.09-1.61 5.99 0 3.91-.46 7.38-.46 7.38l1.38.72.93.31s-.53-.86 1.9.2c1.04.44 3.24 1.06 5.54 1.88l.34-.16s-.17 0-.34-.53.17-1.19.85-1.54c.69-.35.34-1.22-.5-3.8-.87-2.6-1.56-2.27-3.29-3.81-1.74-1.55-1.22-2.08-1.39-6.05s-1.04-5.7-2.42-9c-1.39-3.29-.88-4.33-.88-4.33l-.05-.17s-5.53-1.85-7.39-2.3c-1.83-.48-4.83.91-8.3 2.76l-.34.23s-.16 1.03-1.38 1.75c-1.22.67-1.73 1.89-2.95 3.95-1.2 2.08-1.2 4.16-.17 6.75 1.04 2.61-.52 2.25-2.59 3.3-2.07 1.03-2.6 4.84-3.81 6.22-1.21 1.37 1.21 1.56.34 3.28-.86 1.73-.86 1.22-.16 2.61l.03.11c4.15-1.22 8.62-1.85 8.62-1.85l.32-.05 2.55-.92s1.37-2.54 1.37-6.47c0-3.91-.69-6.69-.69-6.69l-1.61-.7s2.3-1.37 2.09-2.29c-.24-.93-.24-2.31-.24-2.31v.06c-1.9.15-2.08.15-2.08.15s.39-1.11 1.04-2.59c.69-1.54 1.04-2.77 2.08-2.58l.34-.37c.46-2.52 1.39-2.28 2.09-.9.69 1.37 2.99.22 3.47-1.62.45-1.83 1.84-1.15 2.07-.22.23.91 1.61 2.98 1.61 2.98l.29.13s.68-.72 2.08 1.02c1.36 1.75 1.72 1.9 2.25 4.34.5 2.41-1.91.36-1.91.36l.37.52M352.6 150.21s-3.35-.6-7.16-1.75c-3.81-1.14-5.3-4.03-5.3-4.03l-.35-.35.35.91c-1.52-2.88-.93-5.28-.81-9.21.11-3.91.81-4.14 1.27-6.69.46-2.54.81-2.9.35-6.7-.46-3.79-3.12-3.79-4.96-4.48-1.85-.7-2.54-3.11-2.54-3.11s-2.41 1.95-4.04 2.39c-1.6.46-4.27 4.06-4.84 6.02-.57 1.95-1.61 2.07-1.61 2.07s-.23 2.07-.1 3.9c.1 1.85 2.07.95 2.07.95s.1.69.23 4.04c.12 3.31.24 4.34-.34 5.98-.59 1.63-2.55 2.65-2.55 2.65v-.1s-4.95 2.88-8.4 3.45c-3.47.59-5.43 1.28-5.43 1.28 2.65-5.32 2.65-9.46 5.77-12.8 3.11-3.35 4.37-4.3 4.37-4.3s-.57-4.14-.22-6.11c.33-1.96-.11-2.3.33-3.56.46-1.27.12-1.62 1.95-2.31 1.84-.7 1.96-.7 1.96-.7s.69-1.04 2.65-1.83c1.96-.82 3.23-1.04 5.07-1.28 1.85-.23 3 .13 5.32.24 2.3.1 4.15.35 5.41 2.07 1.27 1.73 4.72 7.95 2.99 13.72 2.66 3.69 2.89 5.67 3.82 8.32.92 2.65-.93 1.72 1.15 2.42.52.17.83 1.24 1.03 1.29.58.06.21-.97 1.5 2.29 1.73 4.37 1.61 5.3 1.61 5.3M338.64 113.61c-.58-.46-.35.81-1.27-.09-.93-.93-1.15.44-1.5 0-1.2-1.63-1.38 0-2.18-.93-.81-.93-.93.8-2.08.23-1.15-.6-.36.57-1.62.12-1.27-.48-.8.45-1.94.32-1.15-.11-1.03.26-1.74.26-.68 0-1.14.44-1.14.44s-.93 0-1.5.33l.12-.24s1.27-2.64 2.08-3.8c.81-1.14 1.84-2.4 4.96-2.4 3.1 0 4.5-.35 6.56 2.63 2.08 3.01 1.27 2.91 1.27 2.91v.22M294.25 114.92l.13-.08h-3.64c-2.42 0-2.59-.7-2.59-.7s-.35-1.39-1.57-2.94c-.16-1.74-1.38-4.17-1.38-4.17.17-.86.7-3.11-.17-4.67 1.91-.33 2.77-1.88 3.64-3.8.86-1.894.52-1.194-1.21-1.366-1.72-.172-5.18-.355-5.87 3.956-1.91 1.91-2.94 3.99-2.25 6.41-1.03 3.11-.17 3.47.34 4.17-.69 1.21.15 2.58.15 2.58-1.02 2.27-.84 3.64 0 5.19.1.2.19.28.26.36-.02.04-.04.1-.06.17-.86 2.08-1.04 3.64-1.22 5.53l.34-.21c.08.4.45.63 1.04.57 1.38-.17 4.33-1.06 6.05-1.75l2.08-1.19c3.98-2.76 5.7-4.85 6.22-6.4.29-.88.42-1.6-.3-1.66M311.69 344.67s1.92.97 3.81 1.39c3.11.7 6.4-2.94 6.4-2.94l-2.08-2.09-3.47 1.91s-.51-1.21.53-1.74c1.03-.53 1.21-.69 1.21-.69l-.69-.7.86-1.03 5.87 3.81 1.21-.51 1.39.7-6.39 5.17-5.55 1.06-1.02-.2-3.64-2.58 1.04-1.72M347.87 344s5.71 7.26 10.56 8.28c4.84 1.03 7.26-.34 7.26-.34l-.34-1.74-1.56.33s-.69 1.06-1.39.89c-.69-.16-.86-.36-.86-.36s-.17.7-1.22.53c-1.03-.17-1.2.33-2.75-1.22-1.55-1.58-3.63-3.79-3.63-3.79s-.17-1.57 1.38-1.41c1.55.2 2.92.2 4.32 1.41 1.38 1.2.68.49.68.49s-.85-.84-.32-1.18c.49-.38 1.37-.88 1.37-.88l-.5-.7-3.12-1.37s-4.67-.16-5.36 2.59l-3.47-2.25-1.04.7M574.25 347.09s2.76 2.78 5.53 3.97c2.77 1.22 3.8 1.37 6.05 1.06 2.26-.36 4.32-.7 4.32-.7l-.51-2.27-2.59.86s-.86 1.05-2.08.36c-1.22-.7-.52.34-2.6-.7-2.08-1.03-3.99-3.11-3.99-3.11l3.81-3.11s.88-2.61-3.11.33c-3.98 2.95-4.84 3.29-4.84 3.29M547.07 344.48l-2.25 2.44-2.42-2.61 1.38-2.25-1.21-.84-1.56 2.56-4.49-1.36-.33.86s3.81 1.73 3.28 3.28c-.5 1.56-.68 2.45-.68 2.45s1.03-.53 1.9-1.39c.85-.89 1.72-1.06 2.25-.53.51.53 1.21.86 1.21.86l-3.63 3.99-1.74-1.21s-1.55 0-2.07-.51c-.52-.53-1.55-2.1-1.55-2.1l-.35-1.2 3.46-7.09s-2.6 1.56-3.46 3.14c-.87 1.54-3.29 5.53-1.9 6.72 1.37 1.22 3.45 3.98 5.36 3.98 1.9 0 2.6-.34 5.19-2.25s5.87-5.53 5.87-5.53l-2.25-1.41"/><path fill="#b3875a" d="M459.03 96.462c-.37-2.735-.16-1.098 1.33-1.303 1.6-.216 1.14-3.457 1.14-3.457s4.84-.71 6.92-.71c2.07 0 1.37-2.51 3.91-3.22 2.55-.69 1.85-1.593 1.85-1.593s.46-.72 2.77-.463c2.31.226 2.54-.926 2.54-.926v-1.625l2.53-.463.23-2.056 3.69-.237.46-1.4 3-.442-.23-1.39.92-.462-.92-1.83h2.77l.23-2.53 2.07-.69-.92-1.388 1.61-.463-.7-2.314 1.39-.44v-1.41l2.08-.906-.24-1.615 2.53-.237-.45-1.594v-.248s2.53-.68 3.92-3.456c1.39-2.757 3.23-3.446 3.23-3.446l-.93-1.14 1.84-.938.24-1.604s3.69-.69 7.85-2.314c4.16-1.615 5.08-5.524 5.08-5.524s-9.46 1.594-21.47 2.983c-11.99 1.39-22.38 2.54-27.69 4.166-5.3 1.593-.92 5.985-7.61 12.908-3.89 4.016-9.7 1.83-11.3-1.163-1.62-2.982-3.69-8.99-3.69-8.99h1.84l-1.84-3.456 1.84-.926s-1.61-.926-5.3-2.778c-3.69-1.82-6.46-.915-8.77.926-4.15-.442-4.84 3.014-4.84 3.014s2.77-1.162 4.62-.463c1.84.69 3.45-.7 4.15 9.69.69 10.368-4.39 8.538-10.15 8.312-4.84-.7-6.01-2.09-7.16-5.997-1.15-3.93.24-5.997-4.62-9.464-4.83-3.467-20.52-6.223-29.75-7.838-9.24-1.625-21.92-5.07-21.92-5.07s.22 1.85 2.99 3.682c2.75 1.85 4.37 3.692 4.37 3.692s.24.237 1.61 2.294c1.38 2.088 3.68 2.777 3.68 2.777s.92 1.627 1.85 3.005c.92 1.367 5.07 5.75 6.69 7.15 1.62 1.366 4.61 1.366 4.61 1.366-1.15 0-1.61.7-1.84 2.09 1.39 1.615 3.69 2.315 3.69 2.315l-.46 1.614 2.99.678-.45 2.304 4.16.926-.93 1.367 3.93.7-.92 1.39 3 .666-.7 1.39 4.16.463-.7 1.852h3.92l-.92 1.615 3.24.463s6.22 4.145 10.62 5.275c4.38 1.184 2.29 2.552 7.83.72 5.54-1.83 3.7-1.387 3.7-1.387s2.99.926 2.3 2.294c-.7 1.41.68 2.54 2.07 5.544 1.38 2.993.69 2.09 2.3 2.09.69 0 .87.02 1.07.527l1.96.118c-.07-.463-.09-.926-.03-1.346.24-1.615 1.15-1.852 1.15-1.852l2.07 1.368s-.46-1.368-1.15-4.597c-.69-3.22-.24-3.92-.24-3.92l1.86.442s1.37 4.63 4.62 6.944c1.83 1.303 1.92 1.7 1.99 2.444l1.74-.44M556.59 183.54c.7-1.58.7-1.58.36-3.64-.36-2.07-.53-2.25 0-4.14.51-1.92.69-.7.34-4.15-.34-3.47-.17-1.74-1.56-2.61-1.39-.86-2.08-.7-1.04-3.46s2.6-1.92 1.56-5.03c-1.04-3.09-2.43-4.32-1.91-4.83s-.52 1.88-.86 4.83c-.36 2.96 0 3.47-.36 6.58-.34 3.11-.86 5.03-.34 5.69.53.73 1.39 3.64 1.39 3.64l2.25 7.61M563.17 335.15c2.77-17.98 5.53-33.57 6.58-38.78 1.03-5.17 3.11-12.11 3.11-19.37s.34-9.35 2.07-18.36c1.73-9 2.43-15.22 2.43-24.55 0-9.36-2.08-19.75-2.08-19.75s1.72-1.72 2.41 2.08c.69 3.81 1.39 4.5 2.08 2.42.69-2.07 1.39-3.45 2.42-1.03 1.05 2.42 2.44 2.42 2.44 2.42l1.03-.7 1.73 1.72 2.42-2.41 2.08-3.45s1.03 5.88-1.04 12.1c-2.07 6.24-2.07 4.85-2.07 9.35s.35 6.25.35 6.25-1.04.64-1.39-3.81c-.35-4.5-1.04-7.97-2.08 1.03-1.03 9-4.5 17.65-3.11 8.3 1.38-9.33 2.42-20.77 0-18.69-2.43 2.08-3.47-.33-3.81 8.31-.35 8.66.7 8.3-.69 13.48-1.39 5.19 0 6.93-1.73 16.99-1.74 10-2.77 9.69-3.12 16.25-.34 6.59 1.04 10.36.35 19.03s-1.04 9.69-2.77 10.39c-1.72.69-1.02 0-1.72 8.3-.69 8.31-1.73 14.2-1.73 14.2l-4.16-.34M590.86 262.81s-2.77 17.3-3.81 32.17c-1.03 14.89-.35 24.92-2.08 31.84s-.34 14.19-.34 14.19-.35 2.77-1.39-2.75c-1.04-5.53-4.5-12.81-3.1-5.53 1.38 7.25 2.06 10.72 2.06 10.72s2.44 2.78 4.5 2.08c2.08-.69 1.03-1.05 2.76-3.8 1.73-2.78 2.78-.36 1.04-9.71-1.73-9.35.35-23.87 1.04-30.12.7-6.22-.35-6.9-.35-18 0-11.07-.34-21.11-.34-21.11M558.67 335.15c2.96-7.91 5.19-19.72 5.89-26.65.69-6.92.69-15.92-1.05-6.58-1.73 9.34-3.46 17.31-4.5 25.27s-1.39 10.7-.35 7.96"/><path fill="#b3875a" d="M562.82 291.87c.35-6.22 1.39-7.59 3.47-12.8 2.08-5.2 1.38-4.85 3.1-13.85s2.77-13.13 3.11-18.33c.35-5.19 1.05-7.26 1.05-7.26s-.35 1.73-3.12 11.76c-2.76 10.05-4.16 13.5-5.19 19.72s-1.03 7.64-3.11 12.81c-2.08 5.19-1.04 4.53-1.38 9-.35 4.53 1.38 2.08 2.07-1.05M541.7 193.56c.7-3.78.36-5.89-.69-10.02-1.04-4.17-1.73-6.23-1.73-6.23s.34.34 1.39 0c1.03-.34 1.03-1.05 2.42 2.06 1.39 3.14 1.04 3.14.34 6.25-.68 3.11-1.73 7.94-1.73 7.94M546.9 183.19c1.39-1.41 1.74-.68 1.74-5.18s-1.04-4.86-.69-6.95c.34-2.06-.35-3.44-1.05.37-.69 3.8-.34 4.49-.69 6.91-.34 2.44-.69 5.89-.69 5.89l1.38-1.04M534.93 198.24s-2.06-6.99-2.54-9.97l6.11 2.01s-.62 5.01-3.57 7.96M573.39 167.42s-.36 5.2-5.19 5.36c-4.85.18-7.1 0-7.1 0s3.99 1.21 6.4 1.56c2.43.36 4.15-.5 4.15-.5l1.74-5.36M594.57 171.25c-.09.51-.23.97-.42 1.39-1.04 2.25-2.07 2.94-2.07 2.94s1.9 1.9 2.42 9.34c.52 7.45-.69 7.09-.69 7.09s1.39 2.08 1.03 1.57c-.34-.52.36-6.77 1.05-10.21.69-3.47 1.03-5.89 1.9-7.95.87-2.09 2.25-2.09 2.94-2.61.69-.5.18-1.01-1.55-.32-1.73.68-1.73-.86-1.73-.86M597.18 169.3l-.1-.47-.69-3.29c-1.56-4.15-1.2-5.01-1.9-7.1-.69-2.07-2.6-4.15-1.73-1.02.87 3.11.34 5.87 1.21 7.42.55.99.96 2.97.92 4.83"/><path fill="#ffe8b8" d="M446.98 97.237c-.04-.377-.05-.775 0-1.163.24-1.593 1.15-1.84 1.15-1.84l2.08 1.4s-.46-1.4-1.15-4.62c-.69-3.24-.24-3.93-.24-3.93s.24-3.22-2.08-5.996c-2.3-2.778-7.61-5.76-7.85-1.142-.23 4.63-.82 7.214-.82 7.214.84.387 1.97 1.098 1.52 2.002-.7 1.39.69 2.54 2.08 5.534 1.38 3.004.69 2.078 2.31 2.078.56 0 .89.248 1.11.635l1.87-.152M459.06 96.505c-.15-.657-.43-1.712-1.01-3.198-1.15-3.014-1.39-3.92-.24-4.845 1.15-.915 1.39-1.593 1.39-1.593s-.93-3.005-1.39-6.482c-.45-3.445-5.53-4.135-6.22-2.304-.7 1.84-2.08 6.47-.93 9.463 0 0 1.38 4.62 4.62 6.912 1.62 1.162 2.01 1.68 2.13 2.292l1.65-.236M452.51 61.45s-1.61-.442-1.84 3.908c-.23 4.393-1.61 7.633-5.32 9.485l-5.53.69s-.68-1.853-.93-4.157c-.22-2.293 1.62-2.53-5.3-1.83-6.93.668-9.23.463-16.84-7.87-7.61-8.28-5.07-9.227-15.7-12.22 0 0-11.98-3.23-19.37-5.06-7.38-1.83-11.3-2.088-14.53-5.997 0 0 12.68 3.445 21.92 5.05 9.24 1.635 24.92 4.39 29.77 7.858 4.84 3.478 3.44 5.534 4.61 9.442 1.15 3.93 2.29 5.32 7.14 6.018 5.76.227 10.85 2.078 10.16-8.31-.53-7.774-1.56-8.96-2.82-9.357l.49-1.592-1.6-1.282c2.3-1.83 5.07-2.756 8.76-.925 3.69 1.852 5.31 2.767 5.31 2.767l-1.84.926 1.84 3.456h-1.84s2.08 6.007 3.69 9c1.61 2.982 7.43 5.168 11.3 1.152 6.7-6.912 2.31-11.294 7.62-12.91 5.3-1.625 15.68-2.777 27.68-4.165 11.99-1.39 21.46-2.983 21.46-2.983-8.54 3.446-29.08 7.375-34.38 9-5.3 1.594-6.45 1.594-11.76 9.464-5.31 7.838-16.15 10.132-18.24 7.128-2.08-2.993-2.08-4.834-2.08-4.834"/><path fill="#9bd9f4" d="M344.58 148.06s-.35 3.45-1.04 7.95-2.6 3.97-5.71 4.17c-1.4.05-7.61.05-12.45.33-3.13.18-2.94-.53-4.5-4.34-1.57-3.78-3.13-11.22-3.13-11.22l4.5-2.25s2.94 8.99 3.81 10.73c.85 1.72 0 1.55 3.46 1.38 3.46-.19 5.53.17 6.91 0 1.39-.19 1.39 1.36 2.26-2.77.86-4.15 1.04-7.97 1.04-7.97s2.77 3.27 4.84 3.99"/><path fill="#ff3515" d="M570.44 134.63c.92-.93 1.15-.93 2.54-.93 1.38 0 1.61.36 2.3.1.68-.21 1.61.81 1.61.81s-.93 0-2.08.48c-1.14.44-1.38-.26-2.31-.26-.92 0-2.07-.22-2.07-.22M601.59 251.73v6.23c0 3.11-.34 3.46-.34 3.46l-1.04-2.78-1.39 3.47v-2.08l-2.08 3.11-.69-2.77-1.72 2.77-.69-1.72s.34-.33-1.04.34.34-2.08.34-2.08l-1.72 1.74v-1.74l-1.04 2.41v-3.45l-1.73 2.78v-3.13l-1.39 1.74 1.04-12.82 5.02 2.77s2.94 2.95 4.66 2.95c1.74 0 3.81-1.22 3.81-1.22M546.9 151l-2.42 3.45s-1.73 1.39-3.81 2.42-2.08 3.11-2.77 7.28c-.69 4.14-2.76 2.06-5.52 4.14-2.77 2.08-3.47 4.14-3.47 4.14s0 1.41 2.08 4.16c2.08 2.78 6.57.36 6.57.36l4.15-2.78s1.74-2.74 1.39-6.22c-.34-3.47-1.03-5.52-1.03-5.52l3.11-5.2s1.72-3.11 1.72-6.23M534.79 198.59s2.25 4.5 4.33 2.78.34-3.31 2.95-7.61c2.59-4.34 12.09-17.65 12.09-17.65s3.64 9.84 2.08 14.03c-1.54 4.14-2.08 6.2-.68 7.08l-2.08 7.42s-.69 4.17-2.42 7.96c-1.74 3.82-1.74 9-3.11 21.47-1.39 12.46-.35 18 .69 24.91 1.04 6.92-.69 8.31-2.08 19.72-1.39 11.45-2.08 20.11-3.47 27.7-1.39 7.62-1.73 10.05-1.03 14.88.69 4.85-1.39 7.26-3.47 11.07-2.08 3.82-4.16 7.61-4.16 11.43l-1.15 2.63s-8.58-.16-13.01.13c0 0 1.36-1.74 3.45-3.11 2.08-1.39 2.77-1.75 3.46-4.5.7-2.76 1.04-3.11 3.81-6.58 2.78-3.46 3.47-7.59 3.81-14.18.34-6.58 1.38-34.27 1.72-44.68.35-10.35-.69-55.37 0-60.23.69-4.83 0-5.88.35-7.59.33-1.72-1.38-5.18-1.38-5.18"/><path fill="#ff3515" d="M599.69 253.28c3.12-1.03 2.42-.69 2.08-16.28-.35-15.55-5.19-39.1-5.19-39.1l-1.04-2.07 1.04 2.76s0-5.69 1.04-10.37.35.34 1.56 0l-.52-.19.52 5.37c.35 3.63 2.6 4.16 5.54 1.22l.49-.89s5.88 50.53 6.57 54.36c.7 3.8-2.41.69-2.08 4.16.36 3.48 3.47 5.53.36 7.96s-5.54 2.76-5.89 8.63c-.33 5.89 1.04 54 2.08 61.97s1.04 9 3.81 11.78c2.76 2.78 3.81 5.19 3.81 5.19-6.01-.46-24.58-.36-24.58-.36l-.93-1.85 5.07-3.31c2.44-1.06-1.72-20.45-1.72-31.88s1.03-40.51 2.08-47.41M330.04 131.03c.3-.11.63-.06.88-.13 1.18-.35 1.92-.44 2.85-.44.66 0 1.21.23 1.71.46.37.14.77.19 1.1.23 0 0-1.31.13-2.12.46-.81.34-1.26.34-1.95 0-.7-.33-2.47-.58-2.47-.58M306.67 344.48s.35 0-3.12.36c-3.46.33-7.61-8.62-14.19-16.26-6.58-7.61-3.12-25.29-3.12-25.29-2.07-1.34-3.46-2.75-3.46-2.75.35-4.5 2.08-23.54 2.08-23.54-3.11-.67-3.45-2.06-3.45-2.06l11.41-80.3 13.83 149.87M361.12 344.48c-.08.03-.1.03-.1.03s.63 1.65.1-.03M363.44 325.45c-1.04-10.72-.68-26.64-1.04-39.8-.34-13.15 1.04-34.26 2.43-50.17 1.38-15.93-.7-50.9-.7-50.9l-1.2-1.04s-2.6 11.1-4.16 15.22c-1.54 4.18-3.27-1.18-4.5-6.23-1.2-5-2.75-9.84-3.45-21.1-.87 5.19-1.57 20.08-1.57 20.08l-.34.31c1.71.08 2.69 1.41 1.39 3.72 2.99 2.78 2.77 4.62.69 5.99 0 0 7.85 30.68 7.85 36.46l-.08.24c-.96 0-5.48.02-6.73.34-1.39.35-6.23 1.72-6.23 1.72s-1.72 5.53.7 6.24c2.42.68 3.47 1.39 4.5.68 1.04-.68 1.04-1.03 3.47-.37.47.16.93.28 1.4.35l-.02.02s1.39 3.13.34 8.28c-1.04 5.21-2.77 12.47-2.41 19.06.33 6.57 2.07 10.72 2.07 10.72s-1.04.35-2.07 9.69c-1.05 9.35 1.73 38.08 1.73 38.08s3.1 3.83 4.83 9c.39 1.18.64 1.94.8 2.4.19-.02.8-.15 2.33-.68 2.06-.69 4.15-1.72 6.56-6.22 0 0-5.53-1.37-6.56-12.11M313.94 337.92c-1.73.72-3.47 3.11-5.19 5.86l-12.98-145.52c1.9 6.75 6.01 1.26 8.07-5.49 0 0 3.75-13.4 4.21-15.69.45-2.32 1.62-3.91 1.62-3.91s-.24 5.76 1.15 6.89c1.38 1.16 1.05 1.06.46 3.48-1.39 5.52.92 8.53.92 8.53h.46c1.15 3.94-.23 5.3-.23 5.3l.11-.32c-4.14 4.5-5.19 9.68-6.22 17.65-1.05 7.96-.69 13.83-.35 19.03-3.81 14.53 4.5 36.69 4.5 36.69s-1.73 10.73 1.05 22.16c-2.09 4.14-2.78 3.79-2.78 3.79s3.81 6.58 2.78 11.08c-1.05 4.5-.7 4.85 2.07 7.61-1.38 2.09 2.75 11.09.33 22.83"/><path fill="#ff3515" d="M364.36 353.04s4.27 9.34 4.96 10.49c.7 1.14 2.2 3.68 2.2 1.5 0-2.19-2.89-11.43-3.93-13.97-1.03-2.54-4.62-7.02-4.62-7.02l-1.84.56s.46.7 1.96 2.3c1.5 1.62 2.53 2.77 2.53 4.03 0 1.28.11 1.75-1.26 2.09M370.82 344.48c-.11-.34-1.03-1.72-1.03-1.72l1.27-2.66s8.54-.09 7.95 1.96c-.57 2.08-.57 3.58-1.96 5.09-1.39 1.49-2.54 2.19-2.88 1.95-.35-.22-1.84-2.08-1.84-2.08l.69-1.05.58.48.92-.79-.34-.59.45-.47-.93-1.26-.58.22-.34-.57-1.39.35.24.68-.81.46M378.79 358.82l.92-.46.35.34.92-.23v-1.06l.57-.1-.1-1.5-.59-.1-.46-.7-1.73.44.12.7-.93.36-1.03-2.91s1.03-.77 3.23-.92c2.19-.1 4.38-.44 4.5.46.12.93 1.39 3.01.23 4.87-1.15 1.84-3.57 3.2-4.5 3.2h-.34l-1.15-2.41"/><path fill="#d18644" d="M571.83 130.69c1.15.7.92.7 1.84.46l1.84-.46-.45-1.85s2.29 1.85.92 2.31c-1.39.46-2.08.7-2.99.46-.93-.22-1.15-.92-1.15-.92M339.21 121.59c1.26.84-4.27-.59-4.38.67-.12 1.26.45 3.11.81 4.04.34.92.34 2.29-1.16 2.18-1.49-.11-2.88.46-2.54-.46.35-.93.45-.8.45-.8s-.33.7.24.8c.58.11.7.11 1.27.11.58 0 1.27 0 1.38-.69.12-.7 0-1.17-.45-2.53-.46-1.41-.7-2.54-.24-3.24.45-.72 1.15-1.03 2.42-.93 1.27.11 1.86.57 2.2.83M332.18 123.18c.23-1.03.11-1.85-1.15-2.29-1.27-.46-2.54-.11-3.7.8 0 0 .59.13 1.85-.1 1.27-.22 2.3.1 2.54.46.23.36.46 1.16.46 1.16M331.94 132.65c-.73-.47 1.74.22 2.31.22-1.05.49-1.62.26-2.31-.22"/><path fill="#c5baad" d="M590.06 205.74c0 3.79-4.6 6.86-10.28 6.86-5.67 0-10.28-3.07-10.28-6.86 0 0 6.83-.88 10.11-.88 3.56 0 10.45.88 10.45.88M644.07 205.74c0 3.79-4.6 6.86-10.27 6.86-5.69 0-10.29-3.07-10.29-6.86 0 0 6.83-.36 10.1-.36 3.3 0 10.46.36 10.46.36M607.13 171.43l27.52.69v-1.39c-.52-.17-25.27-1.73-25.27-1.73l-1.91.18h-.34l-1.91-.18s-24.74 1.53-25.27 1.73v1.39l27.52-.69"/><path fill="#61619e" d="M362.93 183.19l-4.67-3.99.34-6.22 2.26-3.8 2.93-.51 1.9 1.55-.16-1.39s-3.81-4.33-6.57-1.89c-2.77 2.4-3.99 6.74-4.33 14.7-.35 7.95 0 13.16 0 13.16s.87 2.07 1.73 4.15c.87 2.06 1.22 2.42 2.08 0 .87-2.42 4.5-15.73 4.5-15.73M296.46 190.98s4.67 2.08 4.15 5.03c0 0 .52-11.45 0-14.56 0 0-.17 6.75-4.15 9.51M309.8 176.79s.69 1.74 1.73 2.58c1.03.86 3.11.53 1.91 2.27-1.22 1.73-1.39 5.53-1.57 6.73-.17 1.22-.87.69-.87.69s-.51-3.11.36-5.52c.86-2.42 1.03-1.92-.17-3.12-1.22-1.22-1.22-2.94-1.22-2.94"/><path fill="#61619e" d="M312.72 191.86l-.68.15-.69-2.59s.17.53 3.28.7c3.12.16 3.64-.53 5.72-.89 2.08-.33 4.33 0 6.56-.33 2.26-.32-1.21 1.22 2.77 1.57 3.99.34 5.71.17 7.61.17s4.15 1.89 6.74-.86c2.61-2.77 3.81-2.59 3.47-6.08-.33-3.44-2.08-6.03-2.76-7.59-.7-1.57-.87-1.92 1.03-3.99 1.9-2.06 3.64-1.54 4.15-5.18.52-3.63 0-4.86-.18-6.94-.16-2.05.53-9.31.87-5.86.35 3.44 2.25 3.81 1.91 8.66-.35 4.84-.52 3.98 1.55 2.25 2.08-1.74 6.22-4.67 2.94-.52-3.29 4.16-4.5 6.57-5.19 10.39-.69 3.77-.16 3.77-.16 3.77l-1.05-6.89-1.56 19.71s-2.58.71-4.84 1.9c-2.25 1.23-2.93.87-5.71.7-2.77-.17-6.91-.86-10.55-2.42-3.64-1.55-5.02-1.88-7.8-.88-2.76 1.05-8.12 1.41-8.12 1.41M304.94 176.79l-4.67-3.48c1.73 1.94 2.78 5.73 2.26 6.95l.23-.32c.15 1.2.58 5.08.29 8.26-.35 3.81.17 7.11.34 2.44.15-4.36.61-10.03.4-12.19l1.15-1.66"/><path fill="#61619e" d="M315.67 170.53c2.86 1.44 6.4 2.28 9.01 1.41l-1.22 12.29s0 3.11.69.35c.69-2.77 4.15-20.78 4.5-22.5.33-1.74 0-2.6-.35-1.21-.34 1.41-1.21 7.43-3.12 8.64-1.9 1.22-9 .71-9.69.18-.7-.51-.87.35.17.87M333.68 161.06s1.37 10.72 1.73 14.17c.34 3.46 1.38 4.67.86.69s-2.08-5.72 1.39-5.02c3.44.69 6.74 4.16 10.55-.51 3.8-4.67 2.94-4.34 2.94-4.34s-1.03-6.91-1.73-3.62c-.69 3.27-1.56 5.71-4.16 6.55-2.58.89-4.16 1.75-6.05 1.22s-3.11 2.25-3.46-.33c-.34-2.61-1.21-7.26-1.21-8.14 0-.86-1.04-2.41-.86-.69M309.8 175.23s2.42 1.05 1.56-3.8c-.87-4.85-1.22-4.68-.87-6.57.34-1.92.87-2.43-.18-5.72-1.04-3.28-2.59.18-2.59.18s.52 2.22.17 5.36c-.34 3.11-.7 1.88-1.04 3.11-.34 1.19-.34 4.85-.85 8.63-.53 3.81-1.47 12.88-.53 9.18.04-.16.07-.32.13-.49-.47 3.91-.3 3.47-.3 9.65 0 6.41.51 7.28.7 10.91.16 3.64-.35 3.64-.18 5.03.18 1.37 0 2.06.85-.33.88-2.45 2.08-9.2 3.3-10.23 1.22-1.02 1.22-.16-.7-1.55-1.9-1.37-2.25-3.28-1.9-5.19.36-1.92 0-7.26.36-10.56.17-1.74.12-3.58-.11-4.44 1.12-3.3 2-5.25 2-5.25l.17 2.1M315.33 196.87c-1.56 4.5-1.56 5.17-1.91 7.25s.35 2.08 1.38-.34c1.05-2.41 3.13-6.05 3.64-6.58l-3.11-.33M323.98 198.59c2.43 2.27 5.59 2.61 6.47 5.7.85 3.13 1.19 7.98 2.07 4.36.85-3.64 2.59-4.87 4.32-5.03 1.73-.2 3.75-.88 4.1 3.64.34 4.5.85 3.8.16 12.27-.68 8.47-1.73 19.54-.68 16.11 1.03-3.47 1.55-8.5 2.26-14.72.67-6.24.67-5.91 1.19-5.03.53.86 1.39 2.6 1.39 2.6v-17.12l-15.57 1.02s-2.59-4.13-5.53-4.33M308.98 261.99c-3.39-10.83-3.47-18.24-2.54-23.07.92-4.83 1.85-3.44 1.39.71-.47 4.12 1.61 16.37 2.07 20.53.47 4.14.24 5.53-.92 1.85"/><path fill="#61619e" d="M330.45 229.46c-.93 11.29-1.62 1.16-.47 12.7 1.16 11.52 3 14.74.69 26.06-2.3 11.31-2.53 21.46-2.53 28.61 0 7.17.93 15.01 1.84 4.17.93-10.85 3.47-28.85 3-36.02-.46-7.13.92-17.08 1.14-25.15.23-8.08 1.15-15.47.92-22.36-.22-6.94-1.84-4.65-2.76-1.85-.92 2.76-.46 3.68-.46 3.68l-1.37 10.16M344.98 228.53c-1.39 10.16-2.3 16.41-3.69 26.78-1.39 10.38-4.16 19.38-5.31 29.08-1.15 9.69-.93 17.3 0 9 .93-8.31 2.99-15.93 5.07-26.78 2.08-10.83 3.93-22.86 3.93-22.86l.68-3.88-.68-11.32M346.83 246.77c-.46 9.89.69 8.99-2.78 24.01-3.46 15-4.15 16.15-5.53 26.76s-1.6 3.92-2.76 14.54c-1.15 10.61-3.23 11.29.68 15.22 3.93 3.91 8.31 5.07 8.31 5.07s-3-2.29-4.84-4.83c-1.84-2.55-2.99-4.85-2.77-6.26.23-1.34 2.77-.2 2.77-.2s-1.84-.93-1.62-4.84c.23-3.94 2.77-4.4 2.77-4.4s-.24-6.69.93-15.22c1.15-8.56.92-15.23 3-18.9 2.08-3.7 3.92-7.63 4.38.44.46 8.08 1.62 25.38 1.62 34.4 0 9 .69 16.15 2.54 19.6 1.83 3.45 4.84 5.53 4.84 5.53l-2.54-4.61s-1.61-12.46-2.07-21.68c-.47-9.23-1.86-19.38 2.07-26.53-2.07-9.24-3.93-10.16 0-27.7.93-3.93.46-7.61 0-9.93l-3.69-1.13s-1.39 1.39-5.31.68"/><path fill="#61619e" d="M343.13 335.86c-6.22-2.78-9.93-4.86-12.68-10.17-2.78-5.31-3.23-6.91-3.93-15.91-.69-9-2.54-22.85-2.08-14.53.46 8.29-.68 20.51-.24 29.51.46 9 4.38 8.76.24 8.76-4.16 0-9-.2-.24 2.09 8.77 2.31 3.23 7.15 9.7 4.62 6.46-2.52 1.62-5.06 9.23-4.37M312.68 289.22c.45-.93 5.07-10.15 5.07-10.15s.47-2.3.69-5.31c.23-2.98-1.38-2.08-2.99-.93-1.62 1.17-2.99-1.13-3.47 4.41-.45 5.52.24 8.07.7 11.98M322.37 276.08c4.62-10.39 6.46-15.69 6.01-21.24-.46-5.53.23-11.06-.46-7.61-.69 3.47-3 11.54-2.08 5.55.92-6.01.92-9 1.84-9 .93 0 1.61 0 1.61 6.66 0 6.71 1.15 10.65-1.61 21.73-2.77 11.05-3.47 16.15-3.47 16.15s.24-4.86-1.15-7.15c-1.38-2.34-2.08-2.34-.69-5.09M330.9 163.29c-.69 7.24-.35 13.5-1.04 19.38-.69 5.89 1.04 6.56 1.21-.5.17-7.11.35-15.59.35-18.21 0-2.57-.18-3.62-.52-.65"/><path fill="#fff" d="M382.02 347.09c.53 0 .97-.44.97-.97 0-.55-.44-.99-.97-.99-.54 0-.98.42-.98.99 0 .53.44.97.98.97"/><path fill="#fff" d="M383.87 347.42c.54 0 .98-.42.98-.97 0-.51-.44-.96-.98-.96s-.98.45-.98.96c0 .55.44.97.98.97M383.29 349.51c.54 0 .98-.43.98-.97 0-.55-.44-.99-.98-.99s-.97.44-.97.99c0 .54.43.97.97.97M381.21 349.4c.54 0 .98-.44.98-.99 0-.52-.44-.97-.98-.97s-.98.45-.98.97c0 .55.44.99.98.99M386.06 348.81c.54 0 .97-.42.97-.97s-.44-.99-.97-.99-.98.44-.98.99c0 .53.45.97.98.97M388.37 351.94c.54 0 .97-.44.97-1.01 0-.51-.44-.97-.97-.97-.54 0-.98.46-.98.97 0 .57.44 1.01.98 1.01M390.1 353.55c.54 0 .97-.43.97-.97 0-.55-.44-.99-.97-.99-.54 0-.98.44-.98.99 0 .54.44.97.98.97M390.9 355.76c.54 0 .98-.45.98-.97 0-.55-.44-.99-.98-.99s-.97.44-.97.99c0 .52.44.97.97.97M391.14 358.3c.53 0 .98-.44.98-.97 0-.55-.45-.99-.98-.99-.54 0-.98.44-.98.99 0 .53.44.97.98.97M390.9 360.59c.54 0 .98-.44.98-.97 0-.55-.44-.97-.98-.97s-.97.42-.97.97c0 .53.44.97.97.97M389.87 362.78c.53 0 .96-.42.96-.97 0-.53-.43-.97-.96-.97-.54 0-.98.44-.98.97 0 .55.44.97.98.97M382.71 344.44c.53 0 .98-.44.98-.97 0-.55-.45-.97-.98-.97-.54 0-.98.42-.98.97 0 .53.44.97.98.97M383.05 342.35c.54 0 .98-.44.98-.96 0-.55-.44-.97-.98-.97s-.97.45-.97.97.44.96.97.96M382.83 340.4c.54 0 .97-.44.97-.97 0-.52-.44-.96-.97-.96s-.97.42-.97.96c0 .53.44.97.97.97M381.33 338.55c.54 0 .98-.44.98-.97 0-.52-.44-.97-.98-.97s-.97.42-.97.97.44.97.97.97"/><path d="M437.74 45.3c2.08 0 3.47-.215 5.31 1.13 1.85 1.41-.69.26-2.53 0-1.85-.204-2.78-1.13-2.78-1.13M491.26 148.42l6.57 2.58 1.56-3.02-8.13.4M327.91 123.31c.8-.23 1.38-1.16 2.07-.59.69.59 1.05.71 1.05.71s-.47.24-1.15.57c-.7.34-.59 0-1.05-.22l-.92-.45M335.75 123.42c.81-.24 1.39-1.16 2.08-.57.69.57 1.05.67 1.05.67l-1.16.57c-.7.35-.58 0-1.04-.23-.46-.21-.93-.44-.93-.44M286.94 101.27s-1.84.6-3.47.69c-1.61.11-2.65.81-1.15 1.27 1.5.47 3.47 1.38 3.47 1.05 0-.34-.69-1.75-.69-1.75l1.84-1.26M286.02 109.92c-1.84 1.39-1.95 2.06-.92 1.85 1.03-.24 1.5-.46 1.5-.46l-.59-1.39M279.67 111.77c1.15.34 2.54.12 2.54.12s-.23-.69-1.27-1.15c-1.04-.47-1.73-1.39-1.85-.47-.11.93.58 1.5.58 1.5M280.03 120.66c-.55 1.35 1.49-.92 3.23-2.18 1.72-1.29 2.64-1.96 2.64-1.96s.68-1.28-1.15.11c-1.85 1.39-2.77 1.59-3.69 1.85-.92.2-1.39.31-1.39.31s.81.69.36 1.85M286.35 121.53l.02.26s.23-.24-.02-.26"/><path d="M290.41 116.26c-2.43.81-3.34 2.09-5.43 3.13-2.08 1.02-1.96 1.72-1.96 1.72s-1.15.68-2.3 1.48c0 0-.81 1.16-1.14 1.75-.35.57.33.57 1.14-.23.8-.82 1.49-.82 3.92-1.96 1.05-.51 1.52-.62 1.71-.62l-.1-1.12 1.73-.93.24.93c.1-.09.18-.19.26-.27l.09.06c1.48-.46 1.37.58 2.41-1.26.79-1.41.78-1.83 1.04-2.29.62-.2 1.26-.42 1.72-.72 1.04-.69-.91-.47-3.33.33M392.32 391.67l-.06-.06c-.06-3.02-2.3-5.07-4.81-5.71-1.32-.33-1.87-.12-2.13.93l-.79 3.13c2.06.48 3.74.42 4.83-1.42l-.01-.02-1.48 5.94.01.07c-.06-2.15-1.52-3.07-3.59-3.6l-1.43 5.93c-.26 1.06.09 1.5 1.43 1.83 2.87.71 6.04-.46 7.42-3.09l-1.52 5.59-13.64-3.38-.08-.04c1.6.39 2.72-1.66 2.98-2.74l2.31-9.18c.25-1.08 0-2.36-1.57-2.76l.02-.06 13.3 3.29-1.18 5.33M401.26 403.46l.17-.84c1.48.28 1.77.15 1.85-.18.08-.44-.06-.72-.24-1.21l-1.35-3.64-2.78 2.74c-.33.35-.52.63-.58.9-.09.51.33.86 1.78 1.14l-.15.89-6.15-1.19-.07-.02c1.23.11 2.66-1.09 3.6-1.97l3.94-3.66-2.33-6.2c-.34-.91-.68-2.89-1.91-3.09l-.02.04 7.48 1.42h.01c-1.4-.24-1.8.66-1.91 1.19-.04.25.03.52.18.97l1.09 3.15 2.44-2.38c.31-.29.53-.57.61-.9.07-.44-.19-1.62-1.31-1.83l.05.04 5.79 1.11h-.05c-1.75-.23-2.53.99-3.78 2.13l-3.25 2.96 2.73 7.37c.32.84.73 2.2 1.91 2.56h-.06l-7.66-1.48M427.07 397.53l-.07.02c-.76-3.25-2.59-5.17-5.15-5.48-2.72-.34-4.21 1.99-4.76 6.31-.55 4.48.65 7.02 3.64 7.37 2.91.36 5.32-1.21 5.91-4.52l.45.07c-.48 3.83-2.95 5.89-6.96 5.4-5.19-.65-7.6-4.61-7.07-8.83.52-4.23 4.54-7.38 8.68-6.85 1.65.19 2.99.99 4.16 1.83l1.88-.68h-.04l-.67 5.35M444.28 398.48l.02.06c-.63-2.92-3.33-4.66-5.92-4.79-1.37-.06-1.85.23-1.91 1.3l-.09 3.29c2.12.09 3.8-.42 4.5-2.47l-.03.09-.3 6.16-.02.02c-.48-2.1-2.07-2.69-4.18-2.8l-.36 6.08c-.06 1.09.39 1.43 1.75 1.52 2.96.14 5.88-1.63 6.73-4.47h-.03l-.41 5.79-14.04-.7-.02-.02c1.64.07 2.25-1.11 2.29-2.21l.52-10.52c.05-1.1-.35-2.41-1.98-2.49l-.07.04 13.69.66-.13 5.44M448.06 408.32l.03-.02c1.65-.04 2.1-1.29 2.08-2.39l-.28-10.52c-.04-1.11-.52-2.32-2.16-2.28l-.08-.02 8.06-.22.02.02c-1.64.04-2.16 1.28-2.13 2.39l.29 10.5c.02 1.05.43 1.36 1.54 1.32 2.22-.06 4.84-2.4 5.34-4.94l.03-.02.03 5.84-12.78.34M464.2 401.89l.04.02c.84 2.34 3.51 4.73 6.31 4.44 1.5-.15 2.74-.97 2.56-2.82-.32-3.2-8.74-1.22-9.26-6.29-.32-3.16 1.84-5.19 4.63-5.49 2.39-.23 3.31.84 3.9.78.43-.02 1.47-.61 1.68-1.05l.01-.02.54 5.23-.03.02c-.87-2.32-3.38-4.2-5.68-3.97-1.39.15-2.47 1.05-2.33 2.49.36 3.42 8.83.86 9.43 6.55.32 3.31-2.47 5.32-4.91 5.56-2.72.29-3.87-.77-4.58-.7-.43.06-1.51.74-1.66 1.05l-.06.02-.59-5.8M480.22 405.95h-.03c1.62-.28 1.96-1.56 1.79-2.65l-1.72-10.41c-.17-1.1-.93-2.23-2.55-1.96h.02l7.95-1.32-.02.02c-1.61.26-1.91 1.56-1.73 2.65l1.71 10.41c.18 1.09.87 2.2 2.49 1.96l.02.02-7.95 1.28M495.73 387.19c4.08-.92 8.4 1.77 9.37 5.9.97 4.17-1.7 8.5-5.8 9.47-4.07.92-8.38-1.79-9.35-5.94-.97-4.11 1.7-8.49 5.78-9.43zm3.34 14.38c2.52-.58 2.93-3.36 1.96-7.53-.97-4.12-2.55-6.43-5.07-5.85-2.52.6-2.92 3.35-1.96 7.52.95 4.13 2.54 6.45 5.06 5.86M522.55 396.02c-.93.31-1.38.49-1.38.49-2.15.66-3.35-.24-4.27-2.67-.94-2.56-1.23-3.2-3.62-2.82l1.36 4.43c.36 1.2 1.08 2.45 2.84 1.87l-.03.05-7.5 2.29.02.02c1.58-.46 1.69-1.83 1.36-2.88l-3.08-10.09c-.32-1.06-1.17-2.05-2.73-1.58l-.03-.05 7.42-2.25c3.6-1.08 5.86-.22 6.61 2.23.84 2.78-1.7 4.32-4.06 5.07l.03.07c2.69-.47 3.7.73 4.63 2.03 1.29 1.88 1.6 2.74 2.11 2.6 2.07-.64 2.34.49.32 1.19v.02-.02zm-9.5-5.78c2.27-.82 3.59-1.63 2.83-4.04-.53-1.76-1.78-2.67-3.25-2.25-.74.23-1.29.71-.99 1.7l1.4 4.59"/><path d="M370 249.14c0 3.2 7.67 1.1 7.67 4.32m-2.46-12.8c-2.15 2.34 4.89 6.02 2.74 8.36m-.14-11.89c-1.77 2.65 5.78 5.16 4.01 7.83m-2.03-11.71c-1.32 2.89 6.52 4.15 5.21 7.08m-3.87-11.27c-.84 3.09 7.11 3.09 6.27 6.18m-5.6-10.49c-.33 3.18 7.51 1.93 7.17 5.11m-7.21-9.47c.18 3.18 7.72.7 7.89 3.9m-8.61-8.23c.68 3.14 7.73-.52 8.41 2.59m-9.8-6.73c1.16 2.99 7.53-1.72 8.7 1.24m-10.75-5.06c1.62 2.73 7.17-2.97 8.79-.22m-11.43-3.29c2.05 2.43 6.62-4.04 8.65-1.59m-11.8-1.43c2.41 2.11 5.89-5.03 8.29-2.92m.97-9.72c-2.94 1.23 1.96 7.47-.98 8.73m4.99-10.8c-2.78 1.58 2.76 7.23-.03 8.79m3.81-11.25c-2.6 1.84 3.54 6.87.93 8.72m2.52-11.6c-2.39 2.12 4.25 6.48 1.87 8.58m1.25-11.83c-2.14 2.36 4.93 5.98 2.78 8.34m0-11.89c-1.87 2.59 5.54 5.41 3.67 7.99m-1.3-11.81c-1.57 2.78 6.09 4.77 4.52 7.55m-2.04-12.91c-1.88 2.56 6.16 5.63 4.29 8.19m-36.76 71.52c-.32 3.18 7.52 1.9 7.2 5.07m-7.79 2.79c0 3.2 7.67 1.14 7.67 4.32m33.2-84.37c3.19 0 1.12-7.65 4.31-7.65m1 7.65c3.2 0 1.12-7.65 4.3-7.65m1.01 7.65c3.19 0 1.12-7.65 4.31-7.65m.99 7.65c3.2 0 1.12-7.65 4.32-7.65m.99 7.65c3.19 0 1.11-7.65 4.31-7.65m1 7.65c3.2 0 1.12-7.65 4.31-7.65m1 7.65c3.19 0 1.12-7.65 4.31-7.65m.99 7.65c3.2 0 1.12-7.65 4.32-7.65m.99 7.65c3.19 0 1.11-7.65 4.31-7.65m1 7.65c3.2 0 1.12-7.65 4.31-7.65m1 7.65c3.2 0 1.12-7.65 4.31-7.65m1 7.65c3.19 0 1.12-7.65 4.31-7.65m.99 7.65c3.19 0 1.11-7.65 4.31-7.65m1 7.65c3.2 0 1.12-7.65 4.31-7.65m1 7.65c3.2 0 1.12-7.65 4.32-7.65m.99 7.65c3.19 0 1.12-7.65 4.31-7.65M370 257.8c0 3.18 7.67 1.11 7.67 4.31m-7.67.37c0 3.18 7.67 1.11 7.67 4.3m-7.67.36c0 3.18 7.67 1.14 7.67 4.32m-7.67.37c0 3.18 7.67 1.09 7.67 4.29m-7.67.37c0 3.18 7.67 1.1 7.67 4.32m-7.67.36c0 3.2 7.67 1.11 7.67 4.3m-7.67.36c0 3.2 7.67 1.14 7.67 4.32m-7.67.35c0 3.18 7.67 1.12 7.67 4.31m-7.67.39c0 3.17 7.67 1.08 7.67 4.28m-7.67.38c0 3.17 7.67 1.12 7.67 4.32m-7.67.35c0 3.2 7.67 1.11 7.67 4.31m-7.67.35c0 3.18 7.67 1.12 7.67 4.32m-7.32 1.04c0 3.18 7.66 1.12 7.66 4.32m-2.35 10.55c2.76 1.63 4.81-6.05 7.56-4.46m-3.06 7.07c2.76 1.62 4.81-6.05 7.56-4.46m-3.07 7.07c2.77 1.58 4.81-6.08 7.56-4.48m-3.06 7.09c2.77 1.57 4.81-6.08 7.56-4.48m-3.07 7.04c2.77 1.63 4.81-6.05 7.56-4.46m-3.06 7.07c2.77 1.62 4.81-6.05 7.56-4.48m-3.06 7.09c2.77 1.6 4.81-6.08 7.56-4.5m-3.07 7.09c2.77 1.59 4.81-6.09 7.56-4.48m-3.06 7.08c2.77 1.6 4.81-6.08 7.56-4.45m-3.07 7.04c2.77 1.62 4.81-6.05 7.56-4.46m-3.06 7.06c2.77 1.61 4.81-6.07 7.56-4.48m-3.06 7.08c2.77 1.57 4.81-6.09 7.56-4.48m-3.07 7.08c2.77 1.6 4.81-6.08 7.56-4.48M434.11 363.2c2.77 1.59 4.81-6.08 7.56-4.46m-3.07 7.04c2.77 1.63 4.81-6.03 7.56-4.46m-3.74 6.6c2.76 1.61 4.8-6.07 7.55-4.5m-80.36-42.96c1.06 3.02 7.6-1.46 8.66 1.54m-6.8 3.6c2.26 2.27 6.2-4.65 8.46-2.4m-.45-125.91c-1.07-1.92-3.42-2.12-5.32-1.92-1.92.2-3.2-.44-3.2-.44m159.46 54.21c0 3.2-7.67 1.1-7.67 4.32m2.45-12.8c2.16 2.34-4.89 6.02-2.74 8.36m.15-11.89c1.76 2.65-5.78 5.16-4.02 7.83m2.04-11.71c1.32 2.89-6.52 4.15-5.21 7.08m3.87-11.27c.84 3.09-7.11 3.09-6.27 6.18m5.6-10.49c.33 3.18-7.51 1.93-7.17 5.11m7.21-9.47c-.17 3.18-7.72.7-7.89 3.9m8.61-8.23c-.68 3.14-7.73-.52-8.41 2.59m9.81-6.73c-1.17 2.99-7.54-1.72-8.71 1.24m10.76-5.06c-1.63 2.75-7.17-2.93-8.8-.18m11.43-3.33c-2.05 2.43-6.62-4.04-8.65-1.59m11.79-1.47c-2.39 2.11-5.88-5.02-8.29-2.92m-.96-9.68c2.94 1.23-1.96 7.47.98 8.73m-4.98-10.8c2.78 1.58-2.76 7.23.03 8.79m-3.82-11.25c2.6 1.84-3.54 6.87-.93 8.72m-2.52-11.6c2.39 2.12-4.25 6.48-1.87 8.58m-1.27-11.83c2.14 2.36-4.93 5.98-2.78 8.34m.02-11.89c1.87 2.59-5.53 5.41-3.67 7.99m1.3-11.81c1.57 2.78-6.1 4.77-4.52 7.55m34.51 66.8c.32 3.18-7.52 1.9-7.2 5.07m7.79 2.79c0 3.2-7.67 1.14-7.67 4.32m7.67.37c0 3.18-7.67 1.11-7.67 4.31m7.67.37c0 3.18-7.67 1.11-7.67 4.3m7.67.36c0 3.18-7.67 1.14-7.67 4.32m7.67.37c0 3.18-7.67 1.09-7.67 4.29m7.67.37c0 3.18-7.67 1.1-7.67 4.32m7.67.36c0 3.2-7.67 1.11-7.67 4.3m7.67.36c0 3.2-7.67 1.14-7.67 4.32m7.67.35c0 3.18-7.67 1.12-7.67 4.31m7.67.39c0 3.17-7.67 1.08-7.67 4.28m7.67.38c0 3.17-7.67 1.12-7.67 4.32m7.67.35c0 3.2-7.67 1.11-7.67 4.31m7.67.35c0 3.18-7.67 1.12-7.67 4.32m7.32 1.04c0 3.18-7.66 1.12-7.66 4.32m2.36 10.57c-2.78 1.59-4.81-6.09-7.57-4.5m3.07 7.09c-2.78 1.6-4.81-6.05-7.57-4.48m3.07 7.12c-2.77 1.55-4.81-6.11-7.56-4.51m3.06 7.09c-2.77 1.55-4.81-6.08-7.56-4.48m3.07 7.04c-2.77 1.61-4.81-6.07-7.56-4.46m3.06 7.07c-2.77 1.62-4.81-6.05-7.56-4.48m3.06 7.09c-2.77 1.57-4.81-6.1-7.56-4.5m3.07 7.09c-2.77 1.59-4.81-6.09-7.56-4.48m3.06 7.08c-2.77 1.57-4.81-6.09-7.56-4.48m3.07 7.07c-2.77 1.62-4.81-6.05-7.56-4.46m3.06 7.04c-2.77 1.6-4.81-6.05-7.56-4.48m3.06 7.1c-2.77 1.57-4.81-6.09-7.56-4.48m3.07 7.06c-2.77 1.59-4.81-6.08-7.56-4.48m3.06 7.09c-2.77 1.58-4.81-6.1-7.56-4.46m3.07 7.04c-2.77 1.63-4.81-6.05-7.56-4.46m3.74 6.6c-2.76 1.61-4.8-6.07-7.55-4.48m80.36-42.98c-1.06 3.02-7.6-1.46-8.66 1.54m6.8 3.6c-2.26 2.27-6.2-4.63-8.46-2.4m.45-125.91c1.07-1.92 3.42-2.12 5.32-1.92 1.92.2 3.2-.44 3.2-.44m-120.66-22c1.49-.92-.85-6.57.21-7.21m84.46 8.78s5.01-5.12 5.1-6.71" stroke="#000" stroke-linecap="round" stroke-width="1.151" fill="none"/><path d="M458.3 232.53c3.56-2 5.96-5.83 5.96-10.22 0-6.49-5.26-11.76-11.75-11.76-6.48 0-11.74 5.27-11.74 11.76 0 5.84 4.28 10.7 9.88 11.58" stroke="#d18644" stroke-width=".696" fill="none"/><path d="M450.15 162.82H400.7c-3.61 13.67-15.14 24.16-29.44 26.04l-6.11 10.99 2.44 1.63c6.97 4.53 11.56 12.4 11.56 21.33 0 7.95-3.64 15.06-9.34 19.73l-2.39 2.6v72.7c0 4.65-.35 9.84 7.44 14.18 7.77 4.32 75.29 43.2 75.29 43.2h.1s67.5-38.88 75.29-43.2c7.79-4.34 7.44-9.53 7.44-14.18v-72.7l-2.39-2.6c-5.69-4.67-9.34-11.78-9.34-19.73 0-8.91 4.58-16.8 11.56-21.33l2.44-1.63-6.11-10.99c-14.3-1.88-25.82-13.4-29.44-26.04h-49.45m-.14 12.89h40.82c5.4 10.73 14.64 19.02 25.8 23.19-5.4 6.8-8.35 15.15-8.35 23.94 0 10.36 4.25 20.35 11.7 27.54-.07 16.07.02 63.55.02 67.48v.59c0 .38 0 1.24-.02 1.83-.18.1-.42.27-.78.49-5.32 2.96-47.89 27.41-69.03 39.63h-.14c-21.13-12.22-63.7-36.67-69.02-39.63-.36-.2-.61-.37-.79-.49-.03-.59-.03-1.45-.03-1.83v-.59c0-3.93.11-51.41.03-67.48 7.45-7.19 11.71-17.18 11.71-27.54 0-8.78-2.95-17.14-8.36-23.94 11.17-4.17 20.4-12.46 25.82-23.19h40.63m.03-10.63h-47.76c-4.26 13.61-15.68 23.56-29.7 25.83l-4.56 8.23c.4.25.7.44.69.44 7.88 5.13 12.59 13.84 12.59 23.23 0 8.28-3.66 16.05-10.02 21.32l-1.71 1.87c.04 7.99-.01 67.51-.01 71.84v.57c-.01 4.37-.01 8.14 6.29 11.65 7.21 3.99 66.13 37.88 74.22 42.58h.05c8.09-4.7 67.01-38.59 74.22-42.58 6.31-3.51 6.3-7.26 6.29-11.65v-.57c0-4.33-.05-63.85-.01-71.84l-1.71-1.87c-6.37-5.27-10.01-13.04-10.01-21.32 0-9.39 4.7-18.08 12.58-23.23-.01 0 .3-.19.69-.44l-4.56-8.23c-14.02-2.25-25.43-13.26-29.7-25.83h-47.75m-.08 8.36h42.14c5.54 11.89 15.79 20.71 28.31 24.44-6.35 6.62-10.01 15.49-10.01 24.93 0 10.2 4.25 19.77 11.72 26.61-.08 16.35.03 64.49.03 68.42v.59c.01 1.01.01 2.56-.15 2.96-.03.02-.37.53-1.82 1.35-5.67 3.13-50.3 28.78-70.15 40.24h-.08c-19.84-11.48-64.49-37.11-70.14-40.24-1.45-.82-1.8-1.33-1.82-1.35-.15-.4-.15-1.95-.15-2.96v-.59c0-3.93.1-52.07.02-68.42 7.46-6.84 11.7-16.43 11.7-26.61 0-9.42-3.64-18.31-10-24.93 12.51-3.73 22.76-12.54 28.31-24.44h41.97m-69.73 118.1l.18-.45h22.56m32.53-.02h36.64m2.88 0h4.5m6.58 0h33.23l.63.47m-120.81 39.58c1.41-.71 6.47-3.18 10.79-3.58 5.08-.44 6.46 1.4 10.62.91 4.15-.46 17.54-4.13 17.54-4.13 6.92-3.24-3.7-4.17-3.7-4.17l-5.07-.46s-.92-.46-5.08-3.22c-4.16-2.78-5.07-1.39-10.15.46-.28.13-.55.22-.81.28-.03.01-.06.04-.11.04-.23.08-.45.15-.65.23-.05 0-.08.02-.12.02-.2.07-.39.11-.56.17-.02 0-.06.02-.08.02-.18.06-.33.1-.49.15h-.01c-.15.02-.29.06-.43.08h-.05c-.13.05-.23.05-.35.07-.02 0-.05.02-.07.02-.11 0-.2.02-.3.02H409.86v-.02c-.1 0-.18-.02-.27-.02-.02 0-.02-.02-.04-.02h-.03c-.65-.11-1.28-.4-2.65-.6-3.23-.44-8.32 3.25-8.32 3.25s-.92 1.38-5.98 0c-5.08-1.39-4.16-2.32-12-2.32l-.22.15" stroke="#000" stroke-width=".696" fill="none"/><path d="M450.27 360.42c21.14-12.24 63.71-36.69 69.03-39.63.36-.2.61-.39.79-.51l-1.12-.59s-6.46.46-5.53-4.15-3.68.93-3.68.93-3.24-.48-9.7-4.63c-6.46-4.16-4.16 1.83-4.16 1.83s-1.74.99-3.77 1.54h-.01c-.01 0-.03 0-.05.02-.09.02-.19.05-.29.07-.08.02-.15.02-.24.04-.11.02-.21.02-.32.04-.08.02-.15.05-.23.06-.12.02-.23.02-.36.02-.07 0-.12.02-.19.02-.18.02-.36.02-.53.02-2.76 0-9.23 2.78-9.23 2.78s-2.29 1.83-5.52 0c-3.25-1.83-7.39-3.68-11.54-3.22-4.15.44-6.46 6.46-6.46 6.46s-2.3 1.85.46 4.61-.93 1.85-5.07 2.76c-4.16.93-5.09 0-8.77 0-10.15.47-21.69 4.61-11.08 6 10.62 1.39 28.62.93 33.7 1.39 5.07.46-2.78 4.63-13.39 4.63-10.62 0-20.77-.93-21.68-2.78-.93-1.83-7.39-4.16-8.77-1.83-1.39 2.29-8.76 2.76-8.76 2.76m-11.24-41.28l1.9 3.45h26.32s2.41-1.39 3.8-3.45c-5.19 1.17-23.54.84-26.66.84-3.1 0-5.35-.84-5.35-.84h-.01zm.34.16l-4.84-.88 5.36-5.52m29.08.52c.17 2.41-.7 2.59-1.22 4.16l-1.21 1.58m6.24-5.58l2.77 3.47-4.16 1.9m-17.83-23.88v3.8m-.34 3.44l-.17.89m.17 6.75l-.35 2.59m0 4.5l.18 2.77m-7.62-17.13v-3.99m.18 9.87v2.42m18.51-11.25v2.95m0 2.77v1.22m-.34 4.5v2.06m0 4.85l.17 1.57m-22.33-8.67l1.56-2.08m22.16 8.83l.69 1.74m-9.17-3.13l-1.74 3.13m3.46-7.63l-4.67 7.63m3.29-10.05l-1.73 3.3m3.11 4.84c2.08-2.94 1.04-4.31 1.04-4.31l9.52-.21 2.07 5.74c-1.9 0-3.3-.86-3.3-.86l-9.5.16-1.56 1.54m1.9-7.95c3.12-1.02 8.83-.14 8.83-.14s1.39-1.92.17-4.86l-9.34-.68s1.89 1.04.32 5.7h.01l.01-.02zm1.91-6.56l5.7.51s1.05-1.39.7-2.59l-6.23-.35s.33.52-.17 2.43zm8.31 3.97l.86 4.7 2.95-.2-2.78-4.5h-1.03zm-12.11 7.45v-3.47l-11.43-1.53s1.04 1.37 0 6.22l11.43-1.22zm-8.83-5.36c1.39-2.27 2.08-4.86 1.04-7.78l10.38.33s-1.2.17-1.72 2.95l-.53 2.77-9.17 1.73zm9.86-7.78c-3.98-.86-8.66-1.39-8.66-1.39l.18-3.11 7.26.53s1.04 1.36 1.21 3.97h.01zm-9.17 5.69l-6.75-.52s.69-2.77-.87-6.03l7.62.86m-3.63 8.14l-5.36-.22c.86 4.36 1.2 4.7 0 6.95l5.36-.86v2.43M475.13 306.06h14.88s1.84-1.02 1.15-3.58c0 0-10.73 1.06-17.07.81 0 0-.35.94 1.03 2.77h.01zm.59-2.77l-9.01-3.56m11.77 3.45v-23.65m1.04 5.78v17.28l13.96-2.65m-2.77.6c-6-7.39-5.88-17.52-5.88-17.52m-7.27 19.26c-1.96-5.66-3.23-12.93-1.5-16.97 0 0-5.89 8.2-8.42 14.53l9.93 2.42-.01.02zm-1.74-16.87l2.65-5.06m.36 5.52l7.16-3.57m-105.93-24.45s1.84-1.83 5.53-3.68c3.68-1.86 5.07-2.78 7.84-.93 2.75 1.85 5.53 2.76 5.53 2.76s3.7-2.32 6.93-4.63c3.23-2.3 2.3-3.69 6.46-2.76 4.15.93 14.3-1.84 18-3.69 3.69-1.83 5.53.48 8.76-3.68 3.23-4.15 3.23-3.71 7.85-5.54s3.68-5.06 9.69-3.24c5.99 1.85 9.22.93 17.99 7.87 8.76 6.91 14.31 9.23 18 12.91s7.39 6.02 7.39 6.02 3.69-1.41 7.38-3.24c3.68-1.85 5.07-3.22 7.85-1.39 2.77 1.85 5.07 2.29 5.07 2.29m-19.81 2.3s5.07 4.61 8.3 6.44c3.23 1.86 10.62 3.71 10.62 3.71m-83.33-119.71c-2.26-2.1-4.34-3.07-7.37-3.07-1.93 0-3.57 1.39-5.88 2.14.28.27.6.59.97.93 2.26 2.12 2.46 5.87 6.61 6.68 0 0-.14 0-.4.03 3.69.61 12.68-.03 12.68-.03-4.16-.81-4.34-4.56-6.61-6.68zm-17.96 6.68s-.15 0-.41.03c3.69.61 12.67-.03 12.67-.03-4.15-.81-4.34-4.56-6.61-6.66-2.26-2.1-4.34-3.09-7.36-3.09-3.47 0-5.24 1.85-4.89 5.12.34 3.29 2.95 4.63 6.23 4.63m30.6-6.68c-2.26-2.1-4.34-3.07-7.35-3.07-1.93 0-3.59 1.39-5.89 2.14.28.27.6.59.98.93 2.26 2.12 2.45 5.87 6.61 6.68 0 0-.15 0-.41.03 3.69.61 12.67-.03 12.67-.03-4.16-.81-4.34-4.56-6.61-6.68zm12.29 0c-2.26-2.1-4.33-3.07-7.35-3.07-1.93 0-3.58 1.39-5.89 2.14.28.27.61.59.98.93 2.26 2.12 2.46 5.87 6.61 6.68 0 0-.15 0-.41.03 3.7.61 12.68-.03 12.68-.03-4.16-.81-4.34-4.56-6.62-6.68zm12.3 0c-2.26-2.1-4.34-3.07-7.36-3.07-1.92 0-3.58 1.39-5.88 2.14.28.27.6.59.98.93 2.26 2.12 2.44 5.87 6.6 6.68 0 0-.14 0-.4.03 3.68.61 12.67-.03 12.67-.03-4.16-.81-4.34-4.56-6.61-6.68zm4.92-3.07c-1.93 0-3.57 1.39-5.89 2.14.29.27.6.59.98.93 2.26 2.12 2.46 5.87 6.61 6.68 0 0-.15 0-.41.03 4.67.29 8.18.86 8.18-3.16s-4.45-6.33-9.47-6.6v-.02zm-.79-.19c2.89-4.55 4.55-9.93 4.55-15.71 0-11.92-7.1-22.18-17.3-26.77m-5.88-1.96c-1.99-.42-4.07-.62-6.18-.62-1.2 0-2.39.06-3.56.18m-3.41.64c-12.85 3.11-22.4 14.69-22.4 28.53 0 5.82 1.7 11.25 4.62 15.81m31.56-49.834c-.34-2.648-.22-1.28 1.26-1.496 1.62-.226 1.15-3.467 1.15-3.467s4.85-.71 6.93-.71c2.06 0 1.36-2.51 3.89-3.22 2.55-.678 1.85-1.593 1.85-1.593s.46-.72 2.77-.463c2.31.226 2.54-.926 2.54-.926v-1.625l2.53-.463.24-2.056 3.69-.237.45-1.39 3-.452-.24-1.39.93-.462-.93-1.83h2.78l.22-2.53 2.07-.69-.92-1.388 1.61-.463-.69-2.314 1.39-.44v-1.41l2.07-.906-.23-1.615 2.53-.237-.45-1.594v-.248s2.53-.68 3.91-3.456c1.39-2.757 3.23-3.446 3.23-3.446l-.93-1.14 1.84-.938.24-1.604s3.69-.69 7.85-2.314c4.16-1.615 5.08-5.524 5.08-5.524s-9.46 1.594-21.47 2.983c-11.99 1.39-22.38 2.54-27.69 4.166-5.31 1.614-.92 5.985-7.61 12.908-3.89 4.016-9.7 1.83-11.3-1.163-1.62-2.982-3.69-8.99-3.69-8.99h1.85L449 49.08l1.85-.926s-1.61-.926-5.31-2.778c-3.7-1.82-6.46-.915-8.77.926-4.14-.442-4.84 3.036-4.84 3.036s2.77-1.184 4.62-.485c1.85.69 3.45-.7 4.15 9.69.69 10.368-4.38 8.538-10.15 8.312-4.84-.7-6-2.068-7.15-5.997-1.15-3.93.23-5.997-4.62-9.464-4.84-3.467-20.53-6.223-29.77-7.838-9.23-1.625-21.92-5.07-21.92-5.07s.23 1.85 3 3.682c2.76 1.85 4.38 3.692 4.38 3.692s.23.237 1.61 2.294c1.37 2.088 3.69 2.777 3.69 2.777s.91 1.627 1.84 3.005c.92 1.367 5.07 5.75 6.68 7.15 1.62 1.366 4.61 1.366 4.61 1.366-1.15 0-1.6.7-1.83 2.09 1.38 1.615 3.68 2.315 3.68 2.315l-.46 1.614 2.99.678-.45 2.304 4.16.926-.93 1.367 3.93.7-.93 1.39 3.01.666-.7 1.41 4.15.443-.7 1.852h3.93l-.92 1.615 3.24.463s6.22 4.145 10.61 5.275c4.39 1.184 2.31 2.552 7.85.72 5.54-1.83 3.69-1.387 3.69-1.387s2.99.926 2.3 2.315c-.7 1.39.69 2.54 2.08 5.523 1.38 3.015.69 2.09 2.3 2.09.56 0 .91.247 1.11.623" stroke="#000" stroke-width=".696" fill="none"/><path d="M457.44 96.903c-.07-.7-.4-1.184-2.15-2.444-3.24-2.294-4.62-6.934-4.62-6.934l-1.85-.442s-.45.69.24 3.908c.69 3.24 1.15 4.608 1.15 4.608l-2.08-1.367s-.92.226-1.15 1.84c-.06.41-.04.852.01 1.272m-72-51.355l2.76.463m2.31 4.166l3.93.462m-1.39 3.22l6.69.688m-3.23 3.704l7.39.204m-1.4 3.24l6.01-.667m-2.78 5.298l5.53-1.162m-3.45 3.703l4.62-1.153m3.46 2.778l-4.38 1.13m2.77 2.54l4.38-1.592m-2.3 3.24l4.38-1.85m-.46 3.68l3.69-2.088m-.93 4.167l4.38-2.315m-1.84 3.93l3.69-1.852m-1.38 3.477c2.3-.484 4.15-2.336 4.15-2.336m-1.61 3.467c2.3-.463 3.93-1.83 3.93-1.83m-.46 3.682c1.38-.463 3.91-2.54 3.91-2.54m43.39 4.39l-3-.71m6.68-1.367l-3.68-1.162m8.77-2.294l-5.32-1.152m7.86-1.388l-5.76-1.152m9.91-.463l-9.46-2.09m12.23.464l-6-1.388m6-.463l-6-1.594m9-1.41l-5.77-.926m7.61-1.39l-5.77-.44m5.55-1.853l-3.47-.69m5.31-1.16l-3.92-.464m5.77-2.283l-4.15-.463m6.45-1.647l-4.61-.44m8.53-3.242l-5.53.258m7.61-4.65l-3.92.462m6.23-2.52l-4.62.227M445.1 97.388c.39.69.35 1.787.49 2.39 0 1.542.32 2.582-1.5 3.112-1.81.51-2.42.86-2.68 2.59.78-.76 1.38-1.36 2.17-.7.77.7 1.9.6 1.9.6s-1.21-1.54.52-2.07c1.72-.52 4.75-.42 4.75-.42s-2.17-1.02-2.51-1.74c-.34-.67-.58-1.372-.58-1.372s-.54-1.238-.69-2.54m10.45-.486c.12.593-.05 1.282.41 2.8.16.668-1.01.928-1.7 1.768 0 0 2.68-.34 2.43.97-.25 1.28.25 2.22.25 2.22s.51-.5 1.21-.86c0 0 .77.08 2.25.52 1.47.42 1.99 1.31 1.99 1.31s.78-2.25-1.56-3.47c-1.98-.95-2.66-1.47-2.66-1.47m-.14-.32s-.23.93-.69-2.78c0 0 0-.268-.15-.935m115.32 64.365l-6.48.26s-1.85-9.69-5.08-15.22l2.55-.92s1.37-2.52 1.37-6.45c0-3.91-.69-6.67-.69-6.67l-1.61-.72s2.3-1.37 2.09-2.29c-.24-.93-.24-2.31-.24-2.31s7.73.84 13.27.61c0 0 .11.84.23 1.47.26 1.5.69 1.48.47 3.45-.34 2.9-1.27 2.09-1.27 6.01 0 3.91-.46 7.38-.46 7.38l1.38.7s.93-.7 1.85 4.35c.93 5.09 2.08 9.93 2.08 9.93l-5.38.24m-10.79-39.47s6.7.24 9.24.24c0 0-1.39-2.07-1.62-2.98-.23-.93-1.61-1.63-2.08.22-.46 1.84-2.77 2.99-3.46 1.6-.7-1.36-1.62-1.6-2.09.92h.01zm11.07 16.15s-1.38 3.48-4.38 3.24c-3-.22-5.08-1.41-5.08-1.41m-4.38-19.59c3.47-1.85 6.46-3.24 8.31-2.76 1.85.44 7.39 2.3 7.39 2.3s.4-2.48-.93-2.99c-5.31-2.08-8.76-3.01-11.77-1.16-3 1.85-.48.88-3 1.85-.92.34-.86 3.29 0 2.76z" stroke="#000" stroke-width=".696" fill="none"/><path d="M566.29 126.59c-1.9.17-2.08.17-2.08.17s.39-1.13 1.04-2.59c.69-1.56 1.04-2.75 2.08-2.58m12.28 5.72s2.42 2.05 1.91-.36c-.52-2.44-.88-2.61-2.26-4.34-1.38-1.74-2.07-1.04-2.07-1.04m-23.37 26.15c-.7-1.41-.7-.88.18-2.61.86-1.72-1.56-1.91-.35-3.28 1.21-1.38 1.74-5.17 3.81-6.22s3.63-.69 2.6-3.3c-1.04-2.59-1.04-4.65.15-6.75 1.22-2.09 1.73-3.26 2.95-3.97 1.22-.7 1.39-1.74 1.39-1.74m.01-2.95s-.17-1.54 1.2-3.12c1.38-1.56 2.76-3.11 4.67-3.11 1.9 0 3.81 0 5.87 1.55 2.07 1.56 2.6 1.56 3.12 3.62m1.22 3.5s-.51 1.02.88 4.33c1.38 3.28 2.25 4.98 2.42 8.98.15 3.97-.35 4.5 1.38 6.05 1.72 1.56 2.41 1.2 3.28 3.81.86 2.58 1.21 3.44.52 3.8-.69.34-1.04 1.01-.87 1.56.18.51.35.51.35.51m-26.12-2.4s-13.33 1.89-15.41 5.36c0 0-.69 3.97-2.42 6.39-1.73 2.45-2.43 4.7-2.43 4.7s2.78 9-.69 11.41c-3.45 2.42-4.5 2.93-4.5 2.93s5.88 11.34-2.07 21.61c-1.55-3.07-2.07-7.07-2.59-10.18m2.42 10.39s2.25 4.5 4.33 2.78.34-3.31 2.95-7.61c2.59-4.34 12.09-17.65 12.09-17.65s3.64 9.84 2.08 14.03c-1.54 4.14-2.08 6.2-.68 7.08 2.25-2.07 4.33-2.77 9.17-3.64 4.85-.86 4.33-.86 8.99-.86 4.67 0 7.44.18 10.03 1.04 2.61.88 3.47 1.04 3.47 1.04s.35-.35 1.39-1.57c1.03-1.2 6.04-2.07 6.75 2.08l1.03 2.75s0-5.69 1.04-10.37c1.03-4.66.33.36 1.55 0 1.2-.33 1.73-2.41 2.59-5.16.86-2.78 2.43-3.47 3.47-6.95.73-2.45 1.3-3.26.57-4.17m-2.92-2.47c-1.87-1.87-2.9-4.52-4.05-8.05-1.37-4.35-2.42-5.89-3.45-7.97-1.22-3.11-10.05-5.18-12.47-6.22-2.43-1.06-1.89-.18-1.89-.18m3.11.51l3.64 16.44-9.61.22m-4.72.11l-7.31.16s-3.46-14.01-5.54-17.28m-6.92 57.27l2.08-7.28m40.83.7s4.85 23.55 5.19 39.11c.33 15.59 1.03 15.23-2.07 16.28-3.13 1.03-5.88-3.12-5.88-3.12h-.7c-2.77-1.72-4.85-2.77-4.85-2.77s.69-.34 2.08-10.73c1.38-10.36 2.08-21.8 2.08-31.15-1.74-2.07-6.22-4.15-10.39-4.85-4.16-.69-2.41-1.38-8.3-1.04-5.88.35-10.04.69-13.85 1.74-3.81 1.03-6.22 3.8-6.22 3.8s-.7 4.15-2.43 7.96c-1.74 3.8-1.74 9-3.1 21.44-1.39 12.47-.35 18 .69 24.94 1.02 6.9-.69 8.31-2.08 19.7-1.39 11.42-2.08 20.11-3.47 27.7-1.39 7.61-1.73 10.05-1.03 14.87.69 4.86-1.39 7.27-3.47 11.08-2.09 3.8-4.16 7.61-4.16 11.41 1.74-3.78 5.19-5.52 8.32-2.77 3.11 2.77 6.56 5.21 6.56 5.21l22.5 1.37s2.77-.35 5.88-3.11 3.46-2.42 5.54-.35c2.07 2.07 5.53 1.02 5.53 1.02s2.07-2.41 4.5-3.43c2.42-1.05-1.73-20.43-1.73-31.85 0-11.43 1.04-40.51 2.09-47.44m-5.53-15.16l-1.04 12.8 1.39-1.72v3.11l1.73-2.78v3.47l1.03-2.41v1.72l1.74-1.72s-1.74 2.76-.35 2.08c1.38-.69 1.04-.36 1.04-.36l.69 1.72 1.73-2.77.68 2.77 2.08-3.11v2.08l1.38-3.47 1.05 2.78s.34-.33.34-3.46v-6.23m-35.46-58.33s2.94-10.21 3.98-13.67c1.04-3.47 3.46-8.98 3.46-11.78 0-2.76-.99-6.35.39-7.04l4.88-.25c-2.53.84-.43 1.15-.77 6.27-.35 5.19-1.05 6.91-3.11 13.13-2.08 6.25-4.5 12.84-4.5 12.84m-32.89-15.95s-4.5 2.42-6.58-.33c-2.08-2.78-2.08-4.15-2.08-4.15s.7-2.1 3.47-4.17c2.77-2.05 4.84 0 5.53-4.15.7-4.15.7-6.22 2.78-7.26 2.08-1.05 3.8-2.42 3.8-2.42l2.41-3.47" stroke="#000" stroke-width=".696" fill="none"/><path d="M539.05 190.47s-5.77-1.28-11.42-4.85c-5.65-3.58-20.01-23.41-22.1-25.89-2.08-2.44-1.73-.96-5.58-1.98-3.85-.99-3.46-1.93-3.46-1.93l.12-.12c-1.5.98-1.38.37-2.11-.39-.74-.8 1.04-1.53 1.72-2.08.7-.57 1.26-.63 1.73-1.91.48-1.31 1.17-2.74 1.17-2.74s6.22 1.03 9 4.5c2.78 3.46 5.19 4.87 10.39 9.7 5.19 4.86 10.74 9.34 10.74 9.34m-31.61-21.01s-3.82-1.39-4.97-2.09c-1.15-.69-3.23-.46-2.54.93.7 1.39.58 1.96.58 3.48 0 1.48 0 2.74 1.27 2.85s3 0 3 0m1.5-.67s.58-.33 1.5-.8c.93-.46 1.84-.92 2.78-.92m-9.93-3.02s.57.35 1.96.82c1.39.45 3.93.93 3.93.93m-5.78.24c1.04.44 2.99.92 4.15.92m-4.03.91s1.27.59 3.23.48m-5.46-7.03s11.52-.16 14.27-.08c2.78.08 2.78-2.35 0-2.35h-14.36c-2.76 0-3.9 2.27.09 2.43zm5.54 8.4s.1 2.6.1 3.64 1.99 2.18 1.99.07c0-2.05-.08-4.06-.08-4.06m1.19-10.74l-1.39-72.168h-1.38l-1.39 72.168m114.76 10.39s-2.09 0-2.43-1.9c-.35-1.88-.35-3.46-.35-3.46s-1.9-.53-1.38-1.22c.52-.68.87.2.34-.51-.52-.69-2.08-1.91 0-2.05 2.09-.18 3.64-.18 4.16-.18.51 0 .69 0 2.07 1.54 1.39 1.55 2.08 1.22 2.6 4.5.46 2.94 1.06 9.76-.17 16.62m-.51 2.41c-1.91 7.61-5.02 19.57-7.96 22.5-2.95 2.94-5.19 2.42-5.54-1.19-.33-3.64-.51-5.37-.51-5.37m7.08-37.22l1.9-.7m-2.94-1.19l2.08-.7m-.7 4.12l1.73-.48m-1.56 2.23l1.56-.34m-2.59 39.98s5.88 50.52 6.57 54.36c.7 3.8-2.42.69-2.08 4.14s3.47 5.53.34 7.97c-3.11 2.41-5.53 2.76-5.87 8.63-.35 5.89 1.04 54.01 2.07 61.95 1.05 7.98 1.05 9 3.81 11.78 2.77 2.76 3.81 5.2 3.81 5.2m-93.27-.87s1.2-1.55 3.29-2.92c2.08-1.39 2.77-1.74 3.46-4.5.7-2.75 1.04-3.11 3.8-6.58 2.77-3.45 3.45-7.61 3.81-14.18.34-6.57 1.38-34.26 1.72-44.68.36-10.36-.68-55.37 0-60.22.7-4.84 0-5.89.36-7.61.34-1.75-1.39-5.17-1.39-5.17m71.65-31.35l-1.91-.18s-24.75 1.56-25.27 1.73v1.39l27.52-.69m0-2.25l1.91-.18s24.74 1.56 25.27 1.73v1.39l-27.52-.69m-1.91-2.78l.86-13.67m2.44 13.85l-.18-12.99m-.35-13.48l.18 3.45m-2.09.17v-3.45m.95.49c.95 0 1.71-.78 1.71-1.71 0-.97-.76-1.74-1.71-1.74s-1.71.77-1.71 1.74c0 .93.76 1.71 1.71 1.71zm-16.97 62.72c0 3.79-4.6 6.86-10.28 6.86-5.67 0-10.28-3.07-10.28-6.86 0 0 6.83.86 10.11.86 3.29 0 10.45-.86 10.45-.86zm54.01 0c0 3.79-4.6 6.86-10.27 6.86-5.69 0-10.29-3.07-10.29-6.86 0 0 6.83.86 10.1.86 3.3 0 10.46-.86 10.46-.86zm-61.87.48l-2.25-34.1-10.56 33.4s9.18-.51 20.61-.16l-9.17-33.05m55.38 33.91l-2.25-34.1-10.56 33.4c7.61-.51 16.26-.16 20.59-.16l-9.17-33.05M322.24 142.8s1.96-1.04 2.54-2.65c.58-1.59.47-2.65.35-5.98-.11-3.35-.23-4.04-.23-4.04s-1.96.92-2.08-.93c-.11-1.85.11-3.92.11-3.92s1.03-.09 1.62-2.07c.57-1.96 3.22-5.54 4.84-6 1.61-.46 4.04-2.41 4.04-2.41s.67 2.41 2.52 3.11c1.84.69 4.5.69 4.96 4.5.45 3.8.11 4.14-.34 6.68-.46 2.55-1.16 2.78-1.27 6.69-.1 3.93-.71 6.33.8 9.25l-.34-.93s-.12 4.15-.81 7.03.11 3.8-2.18 3.8c-2.31 0-6.23.11-7.73.24-1.5.12-1.96.93-3.47-2.42-1.5-3.34-3.35-9.93-3.35-9.93l.02-.02zm17.2-10.15c-.93 2.44-1.73 3.7-5.07 3.93s-5.19-.93-5.19-.93m-6.94 7.05s-4.96 2.88-8.42 3.45c-3.46.59-5.42 1.28-5.42 1.28 2.65-5.32 2.65-9.46 5.77-12.8 3.11-3.35 4.38-4.3 4.38-4.3s-.58-4.14-.24-6.09c.35-1.96-.11-2.32.35-3.58.46-1.27.12-1.6 1.96-2.31 1.84-.7 1.96-.7 1.96-.7s.69-1.04 2.64-1.83c1.95-.8 3.22-1.04 5.06-1.28 1.86-.23 3.01.13 5.32.24 2.31.1 4.16.35 5.42 2.07 1.27 1.73 4.73 7.95 2.99 13.72 2.66 3.69 2.89 5.67 3.81 8.32.93 2.65-.92 1.72 1.15 2.42 1.05.34 1.24 1.18 1.4 1.45.16.23.27-.06 1.13 2.11 1.74 4.39 1.62 5.32 1.62 5.32m-12.98-5.76s1.49 2.89 5.3 4.03c3.8 1.15 7.16 1.75 7.16 1.75m-12.93-35.1s-.45-1.06-1.03-1.5c-.58-.46-.35.81-1.27-.09-.93-.93-1.15.44-1.5 0-1.2-1.63-1.38 0-2.18-.93-.81-.93-.93.8-2.08.23-1.14-.6-.35.57-1.62.12-1.27-.48-.8.45-1.94.32-1.16-.11-1.04.26-1.74.26-.69 0-1.15.44-1.15.44s-.93 0-1.5.33l-.34 1.15-.24 1.85m.67-3.21s1.27-2.65 2.08-3.81c.8-1.16 1.84-2.42 4.96-2.42 3.11 0 4.5-.35 6.57 2.63 2.07 3.04 1.26 2.91 1.26 2.91m-45.56 59.3c3.92-.7 8.48 1.32 7.61 7.37-.93 6.48-1.84 10.17-5.31 11.32m-4.85-27.91s-2.99-4.85-3.91-8.56c-.93-3.67-.24-2.29 1.84-4.83 2.07-2.54 3.93-4.17 3.93-4.17 1.38-.67 1.15-1.37.23-2.06-.92-.71-.23.45.68-.46.93-.92-.92-1.61-.92-1.61s-.69.22.68-.24c1.39-.46-.68-1.85-.68-1.85s-.46.24.92-.93c1.39-1.13-2.77-2.08-4.84-1.13-2.08.93-1.83-.7-1.14-3.46.68-2.76.68-2.53 1.84-4.17 1.15-1.61-1.15-.44-2.53 1.39-1.39 1.85-1.39 4.15-2.08 5.76-.7 1.61-1.15 5.78-2.99 8.78-1.85 3-.24 11.32 1.37 24.23 1.62 12.92 5.32 20.07 9.7 22.37m-.47-53.07h-3.23m3.46 2.08l-2.31-.23m2.31 2.77l-2.54.22m-.46 5.09s16.84 193.13 17.3 195.91c.47 2.78 2.55 1.85 2.55 1.85l-18.24-199.37m72.98 21.05s2.95 1.54 3.81 5.54c5.54-3.12 14.01-7.95 18.52-11.59 4.5-3.64 3.98-2.6 6.58-4.67 2.57-2.08 3.63-2.41 7.42-3.47 3.81-1.03 5.7-1.19 7.26-1.72 1.57-.53 2.95-.33 2.78.69-.18 1.03-.18.53-.18.53s2.6 1.89 3.64 2.77c1.04.84 2.26 3.09.18 1.73-2.09-1.41-3.47-2.61-3.47-2.61s-.35 2.78-.87 2.78c-.5 0-.32-2.44-.32-2.44s-.86-.32-2.78.71c-1.9 1.03-5.36 1.18-5.36 1.18s-.53.55 1.21 1.41c1.73.86 3.46 1.88 2.77 2.58-.7.69-.7.69-2.77-.15-2.08-.86-.69-.69-2.94-.52-2.26.17-4.33-1.22-6.07 2.06-1.73 3.3-11.42 17.14-19.72 21.14-2.77 1.17-3.11 1.89-6.22.69-3.12-1.22-7.96-4-9.17-6.41.33-4.69 0-10.76 5.7-10.23v.02-.02zM410 153.94s-.35-.35-2.25.18m1.21 2.05l1.57-.14m-102.47-8.27c-1.55-.27-2.84.75-5.08 4.17-3.47 5.3-9.92 19.13-9.92 19.13" stroke="#000" stroke-width=".696" fill="none"/><path d="M312.21 192.07s-2.31-3.01-.93-8.53c.61-2.4.93-2.32-.46-3.48-1.39-1.13-1.15-6.91-1.15-6.91s-1.15 1.61-1.62 3.93c-.45 2.29-4.2 15.69-4.2 15.69-2.07 6.75-6.18 12.24-8.07 5.47m16.43-6.17s2.77.21 6.01-.67c3.21-.93 4.61-1.85 8.76 0 4.13 1.83 9.45 2.75 13.37 2.75 3.91 0 1.83 1.16 5.07-1.16 3.22-2.28 6.91-1.15 4.84 2.53 2.99 2.78 2.76 4.62.69 6.01 0 0 7.84 30.68 7.84 36.44-7.61-.2-13.15 1.86-13.15 1.86l-.47-38.78s-9 .94-13.38 1.16c-4.36.25-1.84-1.37-6.68-3.68-4.84-2.3-12.69-1.16-12.69-1.16s1.38-1.36.23-5.3m36.59-.56s.7-14.89 1.57-20.08c.69 11.24 2.25 16.1 3.46 21.1 1.21 5.03 2.94 10.41 4.5 6.23 1.55-4.12 4.15-15.22 4.15-15.22m2.95-13.34c0-2.25.52-3.78-2.94-7.42-3.47-3.64-6.75-12.11-9.87-12.64m-7.27 90.17s-1.74 5.53.7 6.22c2.41.7 3.46 1.39 4.5.7 1.04-.7 1.04-1.05 3.46-.34 2.42.7 4.85.7 4.85.7s.32-6.23-.36-9.36m-3.11 9s1.39 3.14.35 8.3c-1.05 5.19-2.78 12.47-2.42 19.06.34 6.56 2.07 10.72 2.07 10.72s-1.04.34-2.07 9.69c-1.05 9.34 1.73 38.06 1.73 38.06s3.11 3.81 4.84 9c1.74 5.2.69 2.42.69 2.42s-6.22-3.79-10.38-1.72c-4.15 2.06-13.15 4.5-19.73 1.72-6.57-2.75-13.16-7.95-16.61-6.56 2.43-11.77-2.08-20.77-.69-22.84-2.78-2.78-3.12-3.11-2.08-7.61 1.03-4.5-2.78-11.08-2.78-11.08s.69.36 2.78-3.81c-2.78-11.41-1.04-22.14-1.04-22.14s-8.32-22.16-4.5-36.69c-.35-5.2-.7-11.06.34-19.05 1.03-7.95 2.08-13.15 6.22-17.65m-19.72-2.43l-11.42 80.3s.34 1.39 3.46 2.08c0 0-1.73 19.04-2.08 23.54 0 0 1.39 1.36 3.47 2.75 0 0-3.47 17.66 3.12 25.27 6.57 7.61 10.72 16.61 14.19 16.26 3.45-.34 3.1-.34 3.1-.34m-21.81-67.5s3.81 2.09 8.31 3.83c4.5 1.72 4.84 2.77 1.38 5.87-3.45 3.11-13.84 13.5-11.08 14.88m2.78 1.73s8.66 2.77 5.88 7.29c-2.77 4.48-6.92 7.61-5.88 11.42m11.08-39.13s-2.08-12.09 1.04-29.76m10.38 90.67c1.74-2.75 3.12-5.16 4.85-5.86m-23.54-200.94l-.86-6.92m-.87 7.11l-.52-5.36m1.04-2.8l-1.04-9.16-1.56.86 1.21 9m.87-6.75c3.98-2.76 5.7-4.85 6.22-6.4.52-1.58.52-2.6-3.81-.35s-8.65 5.19-10.38 6.75c-1.73 1.55-1.56 3.11-.17 2.92 1.38-.16 4.33-1.04 6.05-1.73m8.14-9.31h-3.64c-2.42 0-2.59-.72-2.59-.72s-.35-1.39-1.57-2.92c-.16-1.74-1.38-4.17-1.38-4.17.17-.86.7-3.11-.17-4.67 1.91-.33 2.77-1.9 3.64-3.8.86-1.894.52-1.194-1.21-1.366-1.72-.194-5.18-.355-5.87 3.956-1.91 1.91-2.94 3.99-2.25 6.41-1.03 3.11-.17 3.47.34 4.17-.69 1.21.15 2.58.15 2.58-1.02 2.27-.84 3.64 0 5.19.88 1.56 1.05-1.55.19.53s-1.04 3.64-1.21 5.53m21.81 51.39c.18 7.95 1.38 20.42-.87 23.36m55.21-5.53c-.69-8.3-.17-23.19 2.61-26.48 2.31-2.74 7.26-2.43 7.94.7m-20.93-21.28s-.35 3.79-1.04 8.29-2.6 3.97-5.71 4.17c-1.4.05-7.61.05-12.45.33-3.13.18-2.94-.53-4.5-4.34-1.57-3.78-3.13-11.22-3.13-11.22M329 160.18c-1.03.16-1.56-.86-.51-3.48m4.49-1.89c1.73.36 1.9.52 2.07 2.77.19 2.23-.17 1.54-.17 1.54m12.99 185.02c2.43 3.13 8.2 8.86 13.21 8.64 5-.14 4.78-.14 4.61-1.52-.17-1.39 0-.53 0-.53l-.68-.53s1.55.36-.7-1.89-3.29-3.8-3.29-3.8.35 0 2.42-.7c2.07-.69 4.51-1.49 6.92-5.99 0 0-5.87-1.63-6.92-12.35-1.04-10.74-.68-26.65-1.04-39.8-.34-13.17 1.04-34.26 2.43-50.19 1.37-15.93-.7-50.87-.7-50.87" stroke="#000" stroke-width=".696" fill="none"/><path d="M365.01 350.73s-.7.33-1.22 0c-.52-.34-1.22 1.91-1.91.86-.69-1.03-1.39.53-2.07-.17-.69-.67-.87.17-1.9-.51-1.04-.69-2.78-3.13-3.81-4.15m-.52 1.21s-.52-2.44 1.55-2.78c2.08-.33 3.64.34 5.88 2.78 0 0-2.25-2.96-.16-2.6m-8.66 1.39c0-1.92 1.04-2.98 2.43-3.12 1.39-.17 3.46-.36 3.46-.36m5.54 7.45l-1.56-1.56m-.69 1.89l-.88-1.39m-1.37 1.39l-.36-1.39m-6.39-3.97s-1.91-.53-3.13-2.06m-22.49-.65c-4.62 3.24-5.3 5.32-9.23 6.02-3.92.68-3.47.46-5.54-.93-2.08-1.37-1.84-1.37-1.14-2.78 2.07 2.54 4.85 3.01 8.54 1.15 3.68-1.85 3.23-2.29 3.23-2.29s0-.91-1.38-2.08c-1.39-1.15-1.61-.92-3.47.24-1.84 1.15-1.84 1.82-1.84 1.82s-.23-1.62.45-2.28c.7-.72 1.62-1.41 1.62-1.41s-.42-.53-1.3-.33c-1.32.35-3.07 1.67-3.56 2.62-.45.93-2.21 2.43-.45 2.77m1-1.2c-.34.4-1.15 1.35-.7 1.61.88.47.4.24.4.24m1.12-1.59c-.9 1.4-1.03 1.74-.08 1.91m1.34-1.51c-1.04 1-1.47 1.46-.69 1.46s.13-.12 1.42-.22c1.31-.15.79 0 2.44-.86 1.63-.89 2.75-1.79 2.75-1.79m2.12-.44c-.6-1.14-2.07-1.9-3.11-2.67-1.04-.8-2.6-1.41-2.6-1.41l-.78.69m-5.27 4.05l-1.13 1.23m223.7-1.01s-3.99 4.64-.86 6.89c3.12 2.25 4.32 4.17 7.78 1.89 3.47-2.25 3.29-2.41 5.02-4.32 1.73-1.9 2.58-2.25 2.58-2.25m24.77.55c5.71 4.66 7.96 6.02 11.94 5.69 3.99-.33 4.5-.69 4.5-.69l-.7-2.07s.53-1.05-.86-2.05c-1.39-1.06-3.98-2.61-3.98-2.61m-2.42-1.25c-2.08.53-4.33 3.14-4.33 3.14s.52.68 2.08 1.72c1.56 1.05 2.25 1.21 3.12 1.21.85 0 .32-.16 1.39.16 1.01.36 1.18 1.05 1.89.36.68-.68.51-.36 1.2-.36.7 0 .87.36 1.21-.16.35-.51.87-1.04.87-1.04m-2.93.86l-1.39-.86m3.29.7l-1.21-.72m-3.29.88l-.69-.66" stroke="#000" stroke-width=".696" fill="none"/><path d="M543.61 348.12c-2.77 3.47-3.64 4.66-4.33 3.64-.69-1.03-1.39-.85-1.39-.85s-.34.15-.86-.35c-.52-.51-1.05-.51-1.55-1.75-.52-1.17-1.56-1.17-.69-2.58.85-1.39 1.72-2.59 1.72-2.59s3.63 1.37 2.77 3.8c-.85 2.41-.51 1.9-.51 1.9s.85-.33 1.9-1.56c1.03-1.22 1.9-1.05 2.76-.16m-.51-6.42l-2.25 2.94s-1.56-1.2-3.81-1.88l1.9-2.61m5.37 2.94l-1.56 2.25s1.56.69 2.08 2.08.35.72.35.72.17-.55.7-1.06c.5-.52 1.55-1.91 1.55-1.91m-8.82 5.86l.52-.5m-2.44-.36l.53-.86m-2.08-1.03l.69-.67m-161.47 2.1c2.42-1.26 4.27-3.89 4.73-5.99.46-2.08.58-4.27-2.08-4.96-2.65-.68-3.93-1.5-4.73 0-.81 1.49-2.54 4.04-2.54 4.04l1.39 2.3.8-.46v-.56l.92-.72.58.83.57-.35.93 1.17-.46.56.34.7-1.03.81-.58-.46-.92.9 1.72 2.19h.36zm-11.08-5.17s.34.47 1.96 2.41c1.61 1.96 3.35 6.59 5.19 12.02 1.85 5.41 1.5 6.8 1.5 6.8s1.72-1.28 5.41-1.61c3.69-.31 6.95-.09 6.95-.09 1.44.22 2.93.31 4.06-1.43 1.15-1.74 4.24-8.05-1.28-10.68-5.51-2.65-8.1-1.03-11.12.31l-.69-.64c2.89-1.64 5.43-2.54 6.58-8.56s-5.77-7.26-7.85-7.39c-2.06-.1-3.22.7-3.91 1.98m7.16 16.32c2.47-1.18 5.7-1.09 7.65-.23s3.77 2.04 2.75 4.61c-1.01 2.54-1.12 4.05-2.81 3.8-1.69-.23-4.75-.36-4.75-.36l-1.04-2.48.84-.37.46.35 1.11-.33-.31-.93.63-.28-.38-1.41-.74.05-.36-.69-1.27.35.03.73-1.29.2-.74-2.69.2-.29.02-.03zm-5.66 12.14s-.58 1.13-2.42-2.65c-1.84-3.81-4.62-10.16-4.62-10.16m16.97-8.08c.7-.33.8-.13 1.61.11.81.23.93 1.13 1.74.8.8-.36 1.96-1.26 1.15.33-.81 1.63-.93 1.27-.58 2.21.33.9.1.9.92.59.81-.38 1.38-.49 1.38.44s-.11 1.06-1.14 1.16c-1.05.12-1.39-.1-1.39-.1m-3-3.18c.53 0 .97-.44.97-.97 0-.55-.44-.99-.97-.99-.54 0-.98.42-.98.99 0 .53.44.97.98.97zm1.85.33c.54 0 .98-.42.98-.97 0-.51-.44-.96-.98-.96s-.98.45-.98.96c0 .55.44.97.98.97zm-.58 2.09c.54 0 .98-.43.98-.97 0-.55-.44-.99-.98-.99s-.97.44-.97.99c0 .54.43.97.97.97zm-2.08-.11c.54 0 .98-.44.98-.99 0-.52-.44-.97-.98-.97s-.98.45-.98.97c0 .55.44.99.98.99zm4.85-.59c.54 0 .97-.42.97-.97s-.44-.99-.97-.99-.98.44-.98.99c0 .53.45.97.98.97zm2.31 3.13c.54 0 .97-.44.97-1.01 0-.51-.44-.97-.97-.97-.54 0-.98.46-.98.97 0 .57.44 1.01.98 1.01z" stroke="#000" stroke-width=".696" fill="none"/><path d="M390.1 353.55c.54 0 .97-.43.97-.97 0-.55-.44-.99-.97-.99-.54 0-.98.44-.98.99 0 .54.44.97.98.97zm.8 2.21c.54 0 .98-.45.98-.97 0-.55-.44-.99-.98-.99s-.97.44-.97.99c0 .52.44.97.97.97zm.24 2.54c.53 0 .98-.44.98-.97 0-.55-.45-.99-.98-.99-.54 0-.98.44-.98.99 0 .53.44.97.98.97zm-.24 2.29c.54 0 .98-.44.98-.97 0-.55-.44-.97-.98-.97s-.97.42-.97.97c0 .53.44.97.97.97zm-1.03 2.19c.53 0 .96-.42.96-.97 0-.53-.43-.97-.96-.97-.54 0-.98.44-.98.97 0 .55.44.97.98.97zm-7.16-18.34c.53 0 .98-.44.98-.97 0-.55-.45-.97-.98-.97-.54 0-.98.42-.98.97 0 .53.44.97.98.97zm.34-2.09c.54 0 .98-.44.98-.96 0-.55-.44-.97-.98-.97s-.97.45-.97.97.44.96.97.96zm-.22-1.95c.54 0 .97-.44.97-.97 0-.52-.44-.96-.97-.96s-.97.42-.97.96c0 .53.44.97.97.97zm-1.5-1.85c.54 0 .98-.44.98-.97 0-.52-.44-.97-.98-.97s-.97.42-.97.97.44.97.97.97zm68.42 72.96c-74.76 0-115.38-27.2-115.38-27.2l7.84-12.47-54.45-.48s.92 4.18 5.53 9.71c4.62 5.53-.46 6.46-11.99 6.92l-1.85-5.56c-8.3 1.86-9.23-.44-11.99-5.53-2.76-5.06-7.38-16.15-11.53-22.6 12.92-7.38 13.85-5.99 29.53-6.46 4.75-.14 14.07-.35 25.05-.6m11.56-.24c9.27-.17 18.97-.33 27.69-.46m36.35.24c8.94.49 17.17 1.99 14.7 9.37-3.23 9.67-2.76 16.15-6.91 24.45 25.84 5.05 28.62 7.72 55.38 7.72m-179.99-7.72c-2.77-5.06-.92-8.76 18.46-9.22m-7.84 11.52c6.92-.44 10.15-6.46 14.77.92m47.07-12.44c3.69-6.48 4.16-12.93 11.54-9.7 7.39 3.22 43.39 13.4 47.54-5.53m-54 5.99c-2.78 7.39 10.62 12.48 47.08 18.46m55.84 30.91c74.77 0 115.39-27.2 115.39-27.2l-7.16-12.64 53.77-.31s-.93 4.18-5.54 9.71c-4.62 5.53.46 6.46 12 6.92l1.84-5.53c8.31 1.83 9.22-.47 12-5.56 2.75-5.06 7.38-16.15 11.52-22.6-12.92-7.38-13.84-5.99-29.53-6.46-4.72-.14-13.88-.35-24.74-.57m-56.07-.89c-5.32-.04-9.38 0-11.48.07-11.08.45-26.31 0-23.08 9.68 3.23 9.69 3.23 16.84 7.38 25.15-25.85 5.08-29.08 7.04-55.84 7.04m179.99-7.72c2.78-5.06.93-8.76-18.45-9.22m7.85 11.52c-6.93-.44-10.16-6.46-14.78.92m-47.08-12.44c-3.68-6.48-4.15-12.93-11.53-9.7-7.38 3.22-43.39 13.4-47.54-5.53m54 5.99c2.77 7.39-10.84 10.63-46.62 19.16" stroke="#000" stroke-width=".696" fill="none"/></svg>