<svg xmlns="http://www.w3.org/2000/svg" xmlns:xlink="http://www.w3.org/1999/xlink" height="500" version="1" width="750"><defs><linearGradient id="a"><stop offset="0" stop-color="#014004"/><stop offset="1" stop-color="#014004" stop-opacity="0"/></linearGradient><radialGradient xlink:href="#a" id="b" gradientUnits="userSpaceOnUse" gradientTransform="matrix(1 0 0 .94827 0 9.465)" cx="79.311" cy="182.979" fx="79.311" fy="182.979" r="10.849"/><radialGradient xlink:href="#a" id="c" gradientUnits="userSpaceOnUse" gradientTransform="matrix(1 0 0 1.01639 0 -2.604)" cx="86.412" cy="158.866" fx="86.412" fy="158.866" r="10.748"/><radialGradient xlink:href="#a" id="d" gradientUnits="userSpaceOnUse" gradientTransform="matrix(1 0 0 1.35155 0 -58.145)" cx="63.265" cy="165.398" fx="63.265" fy="165.398" r="6.976"/><radialGradient xlink:href="#a" id="e" gradientUnits="userSpaceOnUse" gradientTransform="matrix(1 0 0 .72588 0 38.76)" cx="62.874" cy="141.393" fx="62.874" fy="141.393" r="9.733"/><radialGradient xlink:href="#a" id="f" gradientUnits="userSpaceOnUse" gradientTransform="matrix(1 0 0 1.15797 0 -18.784)" cx="59.143" cy="118.906" fx="59.143" fy="118.906" r="6.907"/><radialGradient xlink:href="#a" id="g" gradientUnits="userSpaceOnUse" gradientTransform="matrix(1 0 0 .6949 0 31.301)" cx="77.34" cy="102.59" fx="77.34" fy="102.59" r="8.255"/><radialGradient xlink:href="#a" id="h" gradientUnits="userSpaceOnUse" gradientTransform="matrix(1 0 0 .97725 0 2.9)" cx="95.646" cy="127.457" fx="95.646" fy="127.457" r="9.389"/></defs><path fill="#0047ab" fill-rule="evenodd" stroke-width="1pt" d="M0 0h750v500H0z"/><g transform="matrix(.99777 0 0 1.00136 -216.662 -80.281)"><g stroke-width="1pt"><g font-size="12" font-weight="100" font-stretch="ultra-condensed" letter-spacing="0" fill="#ffdf00" fill-rule="evenodd" stroke="#000" font-family="Bitstream Vera Sans"><path style="marker:none" d="M458.853 165.084c7.082 12.646 26.811 12.646 27.823 17.2 1.012 4.552-3.035 8.852-3.035 8.852s-29.088-9.106-35.158-18.211c-6.07-9.106 10.37-7.841 10.37-7.841z" fill-opacity=".941" stroke-width="1.01238pt"/><path style="marker:none" d="M486.826 183.931c.373 3.272-11.532-.889-14.061-.636-2.53.253-5.06 3.288-4.047 5.059 1.011 1.77 7.335 4.552 10.623 4.805 3.288.253 8.014-5.522 7.485-9.228z" stroke-width="1.01238pt"/><path style="marker:none" d="M480.605 202.346c3.036-9.358-14.293-15.971-7.693-17.715-3.552-.183-8.874 3.992-6.218 7.604.96 1.304 13.153 4.04 13.911 10.111z" fill-opacity=".941" stroke-width="1.01238pt"/></g><g font-size="12" font-weight="100" font-stretch="ultra-condensed" letter-spacing="0" fill="#ffdf00" fill-rule="evenodd" stroke="#000" font-family="Bitstream Vera Sans"><path style="marker:none" d="M291.693 164.539c-7.082 12.646-26.811 12.646-27.823 17.2-1.012 4.552 3.035 8.852 3.035 8.852s29.088-9.106 35.158-18.211c6.07-9.106-10.37-7.841-10.37-7.841z" stroke-width="1.01238pt"/><path style="marker:none" d="M263.72 183.387c-.373 3.27 11.532-.89 14.061-.637 2.53.253 5.059 3.288 4.047 5.059-1.011 1.77-7.335 4.552-10.623 4.805-3.288.253-8.014-5.522-7.486-9.227z" fill-opacity=".941" stroke-width="1.01238pt"/><path style="marker:none" d="M269.94 200.455c-3.035-9.358 14.294-15.972 7.694-17.716 3.552-.183 8.874 3.987 6.218 7.599-.96 1.304-13.153 4.047-13.912 10.117z" stroke-width="1.01238pt"/></g><g fill="#ffdf00" fill-rule="evenodd" stroke="#000"><path d="M482.615 145.697c4.89-10.446-12.76-22.431 3.962-13.661-1.587-9.728-13.552-5.355-13.552-1.585 0 3.77 5 7.46 4.918 10.492-.082 3.033-5.082 5.164-5.082 5.164l9.754-.41z" stroke-width="1.01238pt"/><path d="M456.439 127.959c9.83-1.035 15.06 17.158 26.157 17.993.305 1.02-2.587 3.851-8.15 3.88-8.278.044-24.835-16.427-24.835-16.427l6.828-5.446z" stroke-width="1.01238pt"/><path d="M468.045 158.668c-.286-7.145-14.048-16.538-15.252-24.16-.857-5.43 4.287-6.573 4.287-6.573s-6.573-2-20.862 17.718c-14.29 19.72 31.645 13.041 31.827 13.015z" stroke-width="1.01238pt"/></g><g fill="#ffdf00" fill-rule="evenodd" stroke="#000"><path d="M267.094 145.997c-4.89-10.446 12.76-22.431-3.961-13.661 1.586-9.728 13.551-5.355 13.551-1.585 0 3.77-5 7.46-4.918 10.492.082 3.033 5.082 5.164 5.082 5.164l-9.754-.41z" stroke-width="1.01238pt"/><path d="M293.27 128.259c-9.83-1.035-15.06 17.158-26.157 17.993-.304 1.02 2.588 3.851 8.15 3.88 8.279.044 24.836-16.428 24.836-16.428l-6.828-5.445z" stroke-width="1.01238pt"/><path d="M281.664 158.968c.286-7.145 14.049-16.539 15.252-24.16.857-5.43-4.287-6.573-4.287-6.573s6.573-2 20.863 17.718c14.289 19.72-31.645 13.04-31.828 13.015z" stroke-width="1.01238pt"/></g><path d="M282.305 158.825c19.699.248 42.69-38.075 92.695-38.075 50.18 0 77.619 36.673 91.828 37.306 6.899.307-18.333 24.354-22.114 24.571-8.355.48-39.697-33.617-69.219-33.617-25.514 0-53.716 32.36-69.934 31.982-3.083-.071-28.336-22.23-23.256-22.167z" fill="#ffdf00" fill-rule="evenodd" stroke="#000" stroke-width="1.01238pt"/><g font-size="12" font-weight="400" font-stretch="condensed" font-family="Impact"><path d="M442.77 155.266l-10.915 13.636-2.656-2.126 3.386-7.46-4.962 6.199-2.533-2.028 10.915-13.636 2.533 2.028-3.216 7.5 4.914-6.14 2.534 2.027M423.752 141.66l2.328 1.457c1.552.972 2.558 1.699 3.017 2.181.465.486.687 1.126.669 1.92-.01.792-.41 1.819-1.2 3.08-.721 1.153-1.328 1.85-1.82 2.094-.494.243-1.124.179-1.893-.192.533.597.812 1.124.838 1.58.025.458-.02.837-.136 1.138-.106.298-.534 1.044-1.282 2.24l-2.444 3.904-3.055-1.912 3.08-4.92c.496-.793.748-1.318.757-1.575.014-.254-.205-.523-.659-.807l-4.178 6.676-3.29-2.06 9.268-14.804m1.704 4.592l-2.061 3.292c.37.231.664.335.882.31.228-.027.545-.367.954-1.02l.51-.813c.293-.47.413-.823.359-1.06-.05-.235-.264-.471-.644-.71M413.807 147.945c-.705 1.574-1.237 2.676-1.598 3.305a4.451 4.451 0 0 1-1.396 1.524 3.637 3.637 0 0 1-1.907.646c-.698.036-1.424-.115-2.18-.453-.717-.32-1.301-.744-1.753-1.272a3.65 3.65 0 0 1-.819-1.853 4.471 4.471 0 0 1 .18-2.068c.223-.675.695-1.82 1.417-3.433l1.2-2.68c.704-1.575 1.232-2.675 1.584-3.3.36-.628.828-1.14 1.401-1.534a3.7 3.7 0 0 1 1.915-.642c.698-.036 1.424.115 2.18.453.716.32 1.297.746 1.74 1.278.453.527.73 1.143.832 1.847a4.471 4.471 0 0 1-.18 2.068c-.223.675-.695 1.82-1.417 3.432l-1.2 2.682m-1.178-6.707c.326-.73.498-1.21.516-1.442.026-.236-.068-.403-.283-.499a.51.51 0 0 0-.535.063c-.165.12-.429.583-.79 1.39l-3.273 7.317c-.407.91-.628 1.485-.662 1.725-.03.243.072.416.303.52.237.105.444.05.62-.165.176-.216.47-.785.883-1.708l3.221-7.201M395.535 130.101l3.722 1.066c1.175.337 2.034.698 2.575 1.085.547.389.913.965 1.097 1.728.186.757.071 1.861-.345 3.313-.28.982-.61 1.629-.986 1.94-.371.312-.973.462-1.807.448.798.475 1.274 1.022 1.428 1.643.157.613.08 1.466-.234 2.559l-.445 1.555c-.325 1.134-.678 1.942-1.059 2.424-.375.484-.833.757-1.375.819-.542.061-1.563-.123-3.063-.552l-4.316-1.236 4.808-16.792m2.908 3.942l-1.069 3.733c.161.04.286.071.375.097.366.104.63.068.79-.111.161-.186.385-.776.67-1.772.15-.526.214-.904.19-1.135-.021-.238-.092-.404-.212-.498-.114-.093-.362-.198-.744-.314m-1.817 6.347l-1.346 4.698c.532.13.894.129 1.085-.003.197-.13.393-.535.587-1.213l.448-1.566c.206-.719.266-1.173.18-1.362-.087-.19-.405-.374-.954-.554M371.435 126.758h6.51v3.516h-2.606v3.332h2.439v3.343h-2.439v3.121h2.865v3.51h-6.769v-16.822M361.583 127.987l2.606 13.358 3.804-.766.668 3.309-7.531 1.523-3.257-16.7 3.71-.724M351.476 130.513l1.201 3.283-2.164.792 4.803 13.12-3.644 1.333-4.803-13.12-2.155.79-1.202-3.283 7.964-2.915M338.655 135.639l1.566 3.125-2.06 1.032 6.258 12.491-3.47 1.739-6.258-12.491-2.052 1.028-1.566-3.125 7.582-3.8M325.152 143.457l11.357 13.455-3.335 2.159-1.869-2.53-1.168.756 1.512 2.76-3.374 2.185-7.835-15.735 4.712-3.05m4.378 10.545a239.536 239.536 0 0 1-4.476-5.83c1.483 3.016 2.604 5.2 3.361 6.55l1.115-.72M307.285 154.565l3.175-2.215c1.003-.7 1.826-1.137 2.467-1.312.647-.18 1.325-.1 2.033.24.704.333 1.488 1.119 2.352 2.358.584.837.878 1.5.882 1.99.008.484-.256 1.045-.793 1.683.872-.319 1.597-.342 2.176-.07.575.265 1.187.864 1.837 1.796l.926 1.327c.674.968 1.078 1.752 1.212 2.351.138.596.06 1.124-.234 1.583-.294.46-1.08 1.136-2.361 2.028l-3.682 2.568-9.99-14.327m4.892.231l2.221 3.186c.132-.1.236-.177.312-.23.312-.218.45-.445.412-.682-.042-.243-.359-.789-.951-1.638-.313-.449-.566-.737-.76-.865-.198-.133-.372-.183-.52-.15-.144.03-.382.157-.714.38m3.776 5.415l2.796 4.01c.436-.331.663-.613.681-.844.023-.236-.167-.643-.57-1.22l-.931-1.337c-.428-.614-.743-.947-.944-1-.202-.052-.545.079-1.032.391"/></g></g><path d="M374.848 158.636l9.091 25.152H410l-21.818 16.06L396.97 225l-20.91-16.06-22.424 15.757 8.182-24.848L340 183.788l27.273-.606 7.575-24.546z" fill="#c9c0bb" fill-rule="evenodd" stroke-width="1pt"/><g id="i" fill-rule="evenodd"><path d="M178.467 223.039c-4.685 3.407-13.204-13.204-35.779-16.612-22.574-3.407-20.445 17.89-31.519 11.074-11.074-6.815 15.334-10.648 15.334-10.648s-6.815.426-11.075 0c-4.259-.426-11.5 4.26-16.611 4.685-5.111.426-7.667-2.981-8.519-6.389a70.931 70.931 0 0 1-1.278-6.389s6.39 5.537 9.797 5.963c3.407.426 10.222 0 10.222 0s-5.537-2.555-9.796-5.11c-4.26-2.556-8.945-6.39-8.945-6.39s-8.093 4.26-15.76 2.982c-7.666-1.278-12.777-13.63-12.777-13.63s7.666 8.944 13.204 9.796c5.537.852 8.944-1.703 8.944-1.703s-5.537-6.39-8.518-10.649c-2.982-4.26-3.408-2.555-2.982-4.26.426-1.703.426-3.407.426-3.407l-5.963-2.13-3.834-4.259s-5.11-5.537-5.537-8.092c-.426-2.556 5.111-7.241 7.241-6.39 2.13.852-1.278 4.26-.852 7.241.426 2.982 7.241 6.815 7.241 6.815s-3.407-5.963-3.407-8.518c0-2.556-.426-3.834-.426-3.834s.852 1.278-2.13-1.703c-2.981-2.982-8.519-2.556-8.519-5.964 0-3.407-.426-5.11-.426-5.11s2.13 2.98 4.686 4.685c2.555 1.703 4.685 1.703 4.685 1.703s-2.556-2.981-5.537-7.24c-2.982-4.26-13.63-9.371-13.204-11.5.426-2.13 1.704-4.26 1.704-4.26s1.277 4.26 5.537 4.26 4.26-8.52 4.26-8.52 2.555 7.241 5.11 7.241c2.556 0 5.537-3.833 5.537-3.833s-.851 8.093-2.555 10.222c-1.704 2.13-4.26 4.26-2.556 6.815 1.704 2.556 5.111 8.945 5.111 8.945s1.278.852 2.982-2.556c1.704-3.407 4.26-8.944 1.704-12.352-2.556-3.407-5.537-5.963-5.537-5.963s3.833 2.13 4.685 1.278c.852-.852-.852-7.241-2.556-13.63-1.703-6.389-5.537-11.926-5.537-11.926s3.834 3.407 10.223 3.833c6.389.426 13.63-.852 13.63-.852s-4.686 2.13-7.241 2.982c-2.556.852-4.686 2.13-4.686 2.13s5.112-.852 4.686.851c-.426 1.704-6.815 3.408-6.39 6.39.427 2.981 6.816-2.556 11.075-4.686 4.26-2.13 9.796-2.13 9.796-2.13s-5.537 7.241-8.092 8.52l-9.37 4.684s2.129 1.704 4.684.426c2.556-1.277 4.686-3.407 4.686-3.407s-1.704 6.815-4.686 9.37c-2.981 2.556-5.963 1.704-5.963 1.704s-.426 1.278-.426 4.686c0 3.407-.852 5.963-.852 5.963s5.964-5.538 7.241-8.093c1.278-2.556 6.815-4.26 6.815-4.26L88.594 137l6.815-6.815 1.704 5.111S97.54 137 100.095 137c2.555 0 3.833.426 3.833.426s-5.963 1.703-11.5 2.13c-5.537.425-8.519-1.278-9.37.851-.853 2.13 0 3.408-2.556 6.39-2.556 2.98-5.111 11.074-5.111 14.481 0 3.408 1.277 4.26 1.277 4.26s0 .425 2.13-3.834c2.13-4.26 6.815-8.945 6.815-8.945s-3.408 9.37-4.685 11.927c-1.278 2.555-3.408 5.537-1.704 8.944 1.704 3.408 10.648 13.204 14.908 17.038 4.259 3.833 8.518 7.24 8.518 7.24s-2.555-4.259-.852-6.815c1.704-2.555 6.815 2.556 8.52 5.538 1.703 2.981 3.407 6.389 5.536 7.24 2.13.852 1.704.426 1.704.426l-.426-5.963s2.556 3.408 5.537 4.26c2.982.852 6.815 1.278 6.815 1.278s-5.111-3.834-8.518-7.667c-3.408-3.834-6.39-6.39-7.667-5.537-1.278.851-2.556 3.407-4.686.425-2.13-2.981-3.833-6.389-6.815-6.814-2.981-.426-5.11 4.259-5.11 4.259s-.853-4.685-.853-7.667 4.26-2.982 3.408-5.111c-.852-2.13-2.982-1.704-4.685-6.815-1.704-5.111-5.964-9.37-5.964-9.37s7.241 6.814 9.371 6.388c2.13-.426 6.39-6.815 6.39-6.815s-.853 5.112-.853 10.649c0 5.537 0 11.074 2.556 11.5 2.555.426 1.704-4.26 4.685-1.704 2.982 2.556 5.537 10.223 8.093 11.5 2.555 1.278 3.833-1.277 2.555-4.685-1.277-3.407-4.685-2.981-5.11-6.815-.427-3.833.425-5.111.425-5.111s1.704 6.389 3.408 6.389c1.703 0 3.407-11.926 3.407-11.926s5.963 8.519 5.537 12.778c-.426 4.26-4.259 3.833-4.259 7.24 0 3.408-.426 8.945 1.704 8.52 2.13-.426 5.11-7.667 5.11-7.667s.853 4.259 2.557 7.24l3.407 5.964s1.278-1.278 0-6.815c-1.278-5.537-2.982-8.519-3.407-11.5-.426-2.982 1.703-6.39 3.833-5.538 2.13.852 2.13 4.26 1.704 10.223-.426 5.963-.852 12.778.852 12.778 1.703 0 13.63 2.555 22.148 7.667 8.519 5.11 17.464 9.37 15.76 13.204z" fill="#017b21" stroke="#014004" stroke-width="1.25" transform="matrix(1.02021 .22593 .08278 1.0133 204.483 76.648)"/><path d="M73.515 182.345c-2.663-2.283-6.087-1.522-3.804-4.946 2.282-3.424 5.326-3.043 7.609-1.522 2.283 1.522-1.522-3.043 1.902-2.663 3.424.38 8.75 5.707 6.848 7.61-1.902 1.902 2.664 1.902 3.425 4.565.76 2.663-1.142 8.37-4.946 7.229-3.805-1.142-8.37-.38-8.751-3.044-.38-2.663-1.902-10.653-2.283-7.229z" fill="#ffdf00" stroke="url(#b)" transform="matrix(1.02021 .22593 .08278 1.0133 204.483 76.648)"/><path d="M79.037 160.97c2.873 7.542 5.746 8.62 9.696 8.26 3.95-.359 10.056-9.337 7.183-12.928-2.873-3.592-7.542 3.232-7.542 3.232s0-1.796-.718-3.591c-.718-1.796-2.514-1.796-2.514-1.796s2.155 1.436 5.028 0c2.873-1.437 3.232-3.232 1.436-4.669-1.795-1.436-8.26-1.436-11.85.36-3.592 1.795-3.592 6.464-3.592 8.618 0 2.155 0 1.437 2.873 2.514z" fill="#ffdf00" stroke="url(#c)" transform="matrix(1.02021 .22593 .08278 1.0133 204.483 76.648)"/><path d="M60.909 171.075c-5.537 2.13-4.686-7.241-2.13-10.223 2.556-2.981 3.408-5.537 5.537-3.833 2.13 1.703-1.278 4.259 1.278 3.407 2.556-.852.852-4.685 2.982-3.833 2.13.852.851 5.111 0 8.518-.852 3.408-1.704 7.667-3.834 8.52-2.13.851-4.685 1.703-3.833-2.556z" fill="#ffdf00" stroke="url(#d)" transform="matrix(1.02021 .22593 .08278 1.0133 204.483 76.648)"/><path d="M63.038 147.222c-6.815 0-5.963-.426-6.389-2.555-.426-2.13 2.982-1.278.426-3.834-2.555-2.555-2.981.852-3.407-2.13-.426-2.981 4.26-3.407 7.667-3.833 3.407-.426 1.277 2.556 4.259 2.556s4.685-.852 4.685-.852l-1.278 3.833s3.834-1.278 2.982 1.704c-.852 2.982-1.704 7.667-8.945 5.111z" fill="#ffdf00" stroke="url(#e)" transform="matrix(1.02021 .22593 .08278 1.0133 204.483 76.648)"/><path d="M58.353 119.962c-1.278 4.686 1.278 6.815-2.556 6.39-3.833-.427-2.981-4.26-2.981-8.093 0-3.834 2.13-7.241 5.963-6.815 3.833.426 6.815 4.259 4.685 7.24-2.13 2.982 4.26-.851 1.278 2.13-2.981 2.982-4.685 2.556-6.389-.852z" fill="#ffdf00" stroke="url(#f)" transform="matrix(1.02021 .22593 .08278 1.0133 204.483 76.648)"/><path d="M70.705 97.814c1.278 3.833-4.26 8.518 1.704 9.796 5.963 1.278 14.482-3.407 12.352-5.963-2.13-2.555-4.685 0-8.093 0-3.407 0-2.555-5.963-5.963-3.833z" fill="#ffdf00" stroke="url(#g)" transform="matrix(1.02021 .22593 .08278 1.0133 204.483 76.648)"/><path d="M103.928 134.444c-2.555 3.834-5.537 0-8.944-.426-3.408-.426-7.241 0-8.093-2.981-.852-2.982 2.555-.426 4.685-2.13 2.13-1.704 0-2.982 2.13-2.982s1.703.426 3.407 2.13-.852-4.685.426-6.815c1.278-2.13 5.111-4.26 5.537 0 .426 4.26-1.278 8.093-2.13 9.37-.851 1.279 5.538-2.129 2.982 3.834z" fill="#ffdf00" stroke="url(#h)" transform="matrix(1.02021 .22593 .08278 1.0133 204.483 76.648)"/></g><use xlink:href="#i" width="744.094" transform="matrix(-1 0 0 1 750 1)" height="496.063"/><g fill="#ffdf00" font-size="12" font-weight="400" font-stretch="condensed" stroke-width="1pt" font-family="Impact"><path d="M406.663 228.475l10.837 10.2-3.549 2.685-1.764-1.972-1.243.94 1.385 2.26-3.59 2.715-7.09-13.034 5.014-3.794m3.856 8.913a152.069 152.069 0 0 1-4.24-4.509c1.34 2.502 2.359 4.304 3.054 5.406l1.186-.897M388.617 240.06l2.794-1.52c1.804-.98 3.063-1.567 3.776-1.762.72-.198 1.337-.217 1.852-.057.515.16.928.427 1.238.802.307.37.791 1.166 1.452 2.388l2.446 4.52c.627 1.158.984 1.967 1.073 2.428.092.452.047.872-.134 1.259-.184.381-.473.738-.868 1.07-.397.325-1.042.731-1.935 1.216l-4.711 2.56-6.983-12.905m4.93.179l4.593 8.489c.538-.293.818-.568.838-.827.018-.264-.206-.827-.672-1.688l-2.713-5.013c-.316-.585-.54-.948-.67-1.09a.597.597 0 0 0-.478-.205c-.19 0-.49.112-.898.334M383.003 241.168l5.618 13.781-4.343.968-.785-2.527-1.522.339.322 2.63-4.394.979-1.034-14.803 6.138-1.367m-.196 9.71a152.124 152.124 0 0 1-1.983-5.863c.18 2.832.356 4.894.531 6.186l1.452-.323M375.363 242.483l-4.2 14.242-6.743-.9-.62-14.887 4.684.626c.006 4.079-.06 7.517-.197 10.315.606-2.766 1.18-5.219 1.724-7.359l.668-2.663 4.684.626M352.023 237.382l9.51 3.105-.885 2.8-3.806-1.243-.838 2.654 3.562 1.163-.84 2.662-3.563-1.163-.972 3.077 4.186 1.366-.884 2.8-9.89-3.228 4.42-13.993M350.877 236.631l-8.445 12-3.899-2.745 1.525-7.083-3.839 5.454-3.719-2.617 8.445-11.999 3.72 2.618-1.31 7.158 3.803-5.403 3.719 2.617"/></g></g></svg>