<svg xmlns="http://www.w3.org/2000/svg" version="1" width="750" height="500"><path font-size="12" fill="#bf0a30" fill-rule="evenodd" stroke-width="1.018" d="M250.032.043H750v250.065H250.032z"/><path font-size="12" fill="#002868" fill-rule="evenodd" stroke-width="1pt" d="M0 0h250.03v500H0z"/><path font-size="12" fill="#fff" fill-rule="evenodd" stroke-width="1.018" d="M250.073 250.17h499.873v249.827H250.073z"/><path d="M37.395 117.308c-15.63 8.73-18.465 12.37-27.032 19.063l18.998.4c-.225 1.768-4.373 23.794-4.766 25.35 14.303-9.506 21.09-13.863 40.604-19.36 7.754-2.153-.61-10.03-1.417-12.127-5.3 2.393-9.376 5.234-13.284 8.716" font-size="12" fill="#ffca00" fill-rule="evenodd" stroke="#002868"/><path d="M50.75 139.165c29.138-26.694 125.556-26.056 152.41.824.867-.312 18.24-29.622 17.374-29.31C167.81 73.745 73.34 80.072 33.69 109.22l.47 1.74 16.59 28.205z" font-size="12" fill="#ffca00" fill-rule="evenodd" stroke="#002868"/><path d="M55.757 127.582c-.145-.38-8.472-15.89-8.472-15.89l13.63 12.013-3.17-17.552 8.926 15.02M105.193 100.794c.06-4.74 3.86-5.06 6.475-4.24 1.534 1.17 2.34 4.984.5 7.158l-3.692 3.147c-1.276 1.595-2.69 3.417-2.598 5.424l8.342-.32M120.335 95.73c-1.523.746-2.036 1.923-2.39 3.667-.227 2.006-.125 6.748.285 8.708.365 1.46.728 2.417 1.824 3.374 1.276.728 2.69.592 3.465.09 1.047-.592 1.777-1.823 2.142-3.283.592-1.87.547-7.34.136-9.346-.38-1.336-.85-2.4-1.915-3.19-1.277-.548-2.773-.43-3.548-.02zM160.176 100.286c1.588-.663 2.795-1.475 4.12-3.03l-2.345 16.51M172.375 99.44c.19.073 7.93 2.323 7.93 2.323-3.774 4.716-6.868 8.904-9.39 14.228M187.066 103.555l7.672 3.784c-4.555 3.255-8.3 7.35-11.615 12.142M206.517 113.48l-5.025-2.946-4.444 6.018c3.192-.63 5.337.335 6.255 3.232.563 4.267-1.994 6.703-4.758 6.78-2.908-.067-4.41-1.664-4.82-5.016M70.938 119.023s.485-17.925.667-17.905c.08-.726 10.12 14.86 10.12 14.86M71.267 112.638l6.823-2.008" font-size="12" fill="none" fill-rule="evenodd" stroke="#002868" stroke-width="3.125" stroke-linecap="round" stroke-linejoin="round"/><path d="M31.44 288.14l9.967.133-.315-43.188L60.2 288.5h10.373v-63.524l-10.125.136.154 40.163-17.86-39.983-11.15.135-.153 62.712zM213.63 245.13h10.618l-.128-5.596c-.3-3.616-1.667-8.197-5.234-11.585-2.374-2.643-5.185-4.136-8.83-5.132-3.095-1.215-10.674-.857-14.52 1.295-4.55 2.54-8.39 7.07-10.956 14.37-3.364 12.29-1.844 27.682.288 34.925 2.538 7.676 6.52 11.773 11.82 14.357 3.3 1.108 9.054 1.954 14.44.495 5.865-2.22 8.547-6.07 10.876-10.18 1.415-2.78 3.038-8.11 2.755-14.02l-11.08.135c.01 2.162-.43 4.658-.98 6.82-1.253 3.022-3.19 5.045-8 5.044-3.227-.004-5.407-1.332-7.212-3.713-2.437-2.352-3.075-7.617-3.238-9.106-.734-6.72-.755-13.374 1.182-20.386.738-2.834 2.205-5.455 4.123-6.732 3.11-1.685 6.327-1.435 8.146-.904 2.39.738 4.592 2.522 5.28 4.886.535 2.222.62 3.573.65 5.027z" font-size="12" fill="#ffca00" fill-rule="evenodd" stroke-width=".625"/><path d="M151.997 290.224l-23.8-18.494-24.425 18.38 9.68-28.785-24.765-18.222 29.78.705 9.122-29.642 8.725 29.22 30.4-.097-24.386 17.353 9.667 29.582z" font-size="12" fill="#fff" fill-rule="evenodd" stroke-width=".644"/><path d="M50.758 139.27" fill="none" fill-rule="evenodd" stroke="#000" stroke-width="1pt"/><path d="M50.83 139.18c1.05 1.073 3.122.807 5.98.265 2.284-.276 4.886-.38 6.933-.617 3.388.277 5.33 1.07 3.937 2.677" fill="none" fill-rule="evenodd" stroke="#002868"/><path d="M216.645 118.25c15.63 8.73 18.465 12.37 27.032 19.064l-18.998.397c.225 1.77 4.372 23.797 4.766 25.35-14.303-9.503-21.09-13.86-40.604-19.358-7.754-2.153.89-10.17 1.696-12.266 5.302 2.393 9.798 5.234 13.006 8.855" font-size="12" fill="#ffca00" fill-rule="evenodd" stroke="#002868"/><path d="M203.28 140.212" fill="none" fill-rule="evenodd" stroke="#000" stroke-width="1pt"/><path d="M202.985 140.124c-1.755.81-3.566.452-5.758.263-2.08-.302-4.438-.657-6.774-.735-3.915.027-5.33 1.66-4.094 2.796" fill="none" fill-rule="evenodd" stroke="#002868"/><path d="M129.374 101.868c3.026.056 5.953.175 5.953.175M138.667 97.914l-.353 14.423M144.945 112.99c.844-10.352-.51-10.72-5.512-10.698" font-size="12" fill="none" fill-rule="evenodd" stroke="#002868" stroke-width="2.25" stroke-linecap="round" stroke-linejoin="round"/><path d="M131.734 97.392l-.222 11.99c-.033 2.273.675 2.92 2.654 2.92" fill="none" fill-rule="evenodd" stroke="#002868" stroke-width="2.25" stroke-linecap="round" stroke-linejoin="round"/><path d="M80.6 98.96l7.412 7.518 1.338 8.164M92.248 96.376l-4.06 10.462" font-size="12" fill="none" fill-rule="evenodd" stroke="#002868" stroke-width="3.125" stroke-linecap="round" stroke-linejoin="round"/><path d="M38.025 387.45c-15.63-8.535-18.465-12.095-27.032-18.64l18.998-.39c-.225-1.73-4.373-23.268-4.766-24.788 14.303 9.294 21.09 13.555 40.604 18.93 7.753 2.106-.61 9.81-1.417 11.858-5.3-2.34-9.377-5.118-13.284-8.522" font-size="12" fill="#ffca00" fill-rule="evenodd" stroke="#002868"/><path d="M51.38 366.078c29.138 26.103 125.556 25.48 152.41-.807.867.306 18.24 28.967 17.374 28.662C168.44 430.05 73.97 423.862 34.32 395.36l.47-1.702 16.59-27.58z" font-size="12" fill="#ffca00" fill-rule="evenodd" stroke="#002868"/><path d="M50.758 366.29" fill="none" fill-rule="evenodd" stroke="#000" stroke-width="1.318"/><path d="M51.46 366.062c1.05-1.05 3.122-.788 5.98-.258 2.284.27 4.886.372 6.933.603 3.388-.27 5.33-1.046 3.937-2.618" fill="none" fill-rule="evenodd" stroke="#002868"/><path d="M217.274 386.53c15.63-8.537 18.465-12.096 27.032-18.642l-18.998-.39c.226-1.73 4.373-23.268 4.767-24.788-14.303 9.294-21.09 13.555-40.604 18.93-7.753 2.106.89 9.946 1.697 11.995 5.302-2.34 9.798-5.118 13.006-8.66" font-size="12" fill="#ffca00" fill-rule="evenodd" stroke="#002868"/><path d="M203.28 365.368" fill="none" fill-rule="evenodd" stroke="#000" stroke-width="1.318"/><path d="M203.615 365.14c-1.755-.793-3.566-.442-5.758-.258-2.08.296-4.44.643-6.774.72-3.915-.027-5.33-1.625-4.094-2.735" fill="none" fill-rule="evenodd" stroke="#002868"/><path d="M126.723 400.31c1.256-4.308 4.116-3.78 6.667-3.19 2.048 1.405 2.34 5.235.385 7.464l-3.59 2.734c-1.518 1.008-3.025 2.88-2.968 4.97l8.694-.172M117.945 399.727c1.575-.856 1.953-1.195 3.16-2.947l-.674 15.576" font-size="12" fill="none" fill-rule="evenodd" stroke="#002868" stroke-width="3.125" stroke-linecap="round" stroke-linejoin="round"/><path d="M98.77 392.876c-.002.095-2.65 16.27-2.763 16.93l8.423 1.19" font-size="12" fill="none" fill-rule="evenodd" stroke="#002868" stroke-width="3.125" stroke-linecap="round"/><path d="M88.88 408.944l2.593-17.643" font-size="12" fill="none" fill-rule="evenodd" stroke="#002868" stroke-width="3.125" stroke-linecap="round" stroke-linejoin="round"/><path d="M58.79 399.694l6.426-16.316c1.925.965 4.405 1.346 6.544 3.254 1.39 2.31.75 7.045-3.23 7.494-2.193-.292-4.025-1.354-5.948-2.225" font-size="12" fill="none" fill-rule="evenodd" stroke="#002868" stroke-width="3.125" stroke-linecap="round"/><path d="M163.908 396.39c1.27-1.235 2.136-2.48 2.862-4.51l3.286 17.318" font-size="12" fill="none" fill-rule="evenodd" stroke="#002868" stroke-width="3.084" stroke-linecap="round" stroke-linejoin="round"/><path d="M171.324 391.407c.205-.053 8.41-2.923 8.41-2.923-.376 6.28-.493 12.308.292 17.882M184.045 387l8.414-3.294c-.363 6.368-.757 13.148.413 17.925M204.037 380.404c-.96-1.59-2.43-2.175-4.494-1.632-1.914 1.68-2.27 3.004-2.405 5.047.078 2.53.775 5.03 1.925 7.263.788 2.083 2.493 3.57 3.778 3.896 1.455.535 2.544.398 3.71-.61.89-1.123 1.295-3.008 1.213-4.428-.277-1.885-1.128-3.593-3.05-4.593-1.487-.61-2.1-.735-3.444-.164-2.04 1.204-2.41 3.435-2.108 5.71" font-size="12" fill="none" fill-rule="evenodd" stroke="#002868" stroke-width="3.125" stroke-linecap="round" stroke-linejoin="round"/><path d="M138.002 401.708c3.023-.14 5.952-.21 5.952-.21" font-size="12" fill="none" fill-rule="evenodd" stroke="#002868" stroke-width="2.25" stroke-linecap="round" stroke-linejoin="round"/><path d="M140.068 397.088l.552 11.978c.114 2.272.862 2.873 2.837 2.745" fill="none" fill-rule="evenodd" stroke="#002868" stroke-width="2.25" stroke-linecap="round" stroke-linejoin="round"/><path d="M145.93 396.963l1.66 14.33M154.25 411.018c-.608-10.37-2-10.546-6.95-9.826" font-size="12" fill="none" fill-rule="evenodd" stroke="#002868" stroke-width="2.25" stroke-linecap="round" stroke-linejoin="round"/><path d="M43.758 392.41s12.875-13.532 13-13.39c.568-.507-2.53 18.558-2.53 18.558M48.465 387.698l6.68 3.205" font-size="12" fill="none" fill-rule="evenodd" stroke="#002868" stroke-width="3.125" stroke-linecap="round" stroke-linejoin="round"/><path d="M72.802 405.544c-.002-.095 4.686-17.506 4.686-17.506 2.008.487 4.106.782 6.023 1.463 1.343.44 3.38 2.1 2.593 4.78-.37 1.625-1.125 3.07-2.275 3.953" font-size="12" fill="none" fill-rule="evenodd" stroke="#002868" stroke-width="3.125" stroke-linecap="round"/><path d="M75.424 396.546l6.408 1.643c1.726.62 2.144 2.13 2.147 2.225.32 1.417-.76 7.525-.76 7.525" font-size="12" fill="none" fill-rule="evenodd" stroke="#002868" stroke-width="3.125" stroke-linecap="round" stroke-linejoin="round"/></svg>