<svg xmlns="http://www.w3.org/2000/svg" xmlns:xlink="http://www.w3.org/1999/xlink" height="500" version="1" width="750"><defs><linearGradient id="a"><stop offset="0" stop-color="#014004"/><stop offset="1" stop-color="#014004" stop-opacity="0"/></linearGradient><radialGradient xlink:href="#a" id="b" gradientUnits="userSpaceOnUse" gradientTransform="matrix(1 0 0 .9 0 9.5)" cx="79.311" cy="182.979" fx="79.311" fy="182.979" r="10.849"/><radialGradient xlink:href="#a" id="c" gradientUnits="userSpaceOnUse" gradientTransform="translate(0 -2.6)" cx="86.412" cy="158.866" fx="86.412" fy="158.866" r="10.748"/><radialGradient xlink:href="#a" id="d" gradientUnits="userSpaceOnUse" gradientTransform="matrix(1 0 0 1.4 0 -58.1)" cx="63.265" cy="165.398" fx="63.265" fy="165.398" r="6.976"/><radialGradient xlink:href="#a" id="e" gradientUnits="userSpaceOnUse" gradientTransform="matrix(1 0 0 .7 0 38.8)" cx="62.874" cy="141.393" fx="62.874" fy="141.393" r="9.733"/><radialGradient xlink:href="#a" id="f" gradientUnits="userSpaceOnUse" gradientTransform="matrix(1 0 0 1.2 0 -18.8)" cx="59.143" cy="118.906" fx="59.143" fy="118.906" r="6.907"/><radialGradient xlink:href="#a" id="g" gradientUnits="userSpaceOnUse" gradientTransform="matrix(1 0 0 .7 0 31.3)" cx="77.34" cy="102.59" fx="77.34" fy="102.59" r="8.255"/><radialGradient xlink:href="#a" id="h" gradientUnits="userSpaceOnUse" gradientTransform="translate(0 2.9)" cx="95.646" cy="127.457" fx="95.646" fy="127.457" r="9.389"/></defs><path fill="#0047ab" fill-rule="evenodd" stroke-width="1pt" d="M0 0h750v500H0z"/><g transform="rotate(4 -96988.4 -35937.8)"><g stroke-width="1pt"><g font-size="12" font-weight="100" font-stretch="ultra-condensed" letter-spacing="0" fill="#ffdf00" fill-rule="evenodd" stroke="#000" font-family="Bitstream Vera Sans"><path d="M458.853 165.084c7.082 12.646 26.81 12.646 27.823 17.2 1.012 4.552-3.035 8.852-3.035 8.852s-29.087-9.106-35.157-18.21c-6.07-9.107 10.37-7.842 10.37-7.842z" fill-opacity=".941" stroke-width="1.01238pt"/><path d="M486.826 183.93c.373 3.273-11.532-.888-14.06-.635-2.53.253-5.06 3.288-4.048 5.06 1.01 1.77 7.335 4.55 10.623 4.804 3.29.252 8.015-5.523 7.486-9.23z" stroke-width="1.01238pt"/><path d="M480.605 202.346c3.036-9.358-14.293-15.97-7.693-17.715-3.552-.182-8.874 3.993-6.218 7.605.96 1.304 13.153 4.04 13.91 10.11z" fill-opacity=".941" stroke-width="1.01238pt"/></g><g font-size="12" font-weight="100" font-stretch="ultra-condensed" letter-spacing="0" fill="#ffdf00" fill-rule="evenodd" stroke="#000" font-family="Bitstream Vera Sans"><path d="M291.693 164.54c-7.082 12.645-26.81 12.645-27.823 17.198-1.012 4.553 3.035 8.853 3.035 8.853s29.088-9.105 35.158-18.21c6.07-9.106-10.37-7.84-10.37-7.84z" stroke-width="1.01238pt"/><path d="M263.72 183.387c-.373 3.27 11.532-.89 14.06-.637 2.53.253 5.06 3.288 4.048 5.06-1.01 1.77-7.335 4.55-10.623 4.804-3.288.253-8.014-5.522-7.486-9.227z" fill-opacity=".941" stroke-width="1.01238pt"/><path d="M269.94 200.455c-3.035-9.358 14.294-15.972 7.694-17.716 3.552-.184 8.874 3.986 6.218 7.598-.96 1.304-13.153 4.047-13.912 10.117z" stroke-width="1.01238pt"/></g><g fill="#ffdf00" fill-rule="evenodd" stroke="#000"><path d="M482.615 145.697c4.89-10.446-12.76-22.43 3.962-13.66-1.587-9.73-13.552-5.356-13.552-1.586 0 3.772 5 7.46 4.918 10.493-.082 3.033-5.082 5.164-5.082 5.164l9.755-.41z" stroke-width="1.01238pt"/><path d="M456.44 127.96c9.83-1.036 15.06 17.157 26.156 17.992.305 1.02-2.587 3.85-8.15 3.88-8.278.044-24.835-16.427-24.835-16.427l6.83-5.446z" stroke-width="1.01238pt"/><path d="M468.045 158.668c-.286-7.145-14.048-16.538-15.252-24.16-.857-5.43 4.287-6.573 4.287-6.573s-6.573-2-20.862 17.718c-14.29 19.72 31.645 13.04 31.827 13.015z" stroke-width="1.01238pt"/></g><g fill="#ffdf00" fill-rule="evenodd" stroke="#000"><path d="M267.094 145.997c-4.89-10.446 12.76-22.43-3.96-13.66 1.585-9.73 13.55-5.356 13.55-1.586 0 3.772-5 7.46-4.918 10.493.082 3.033 5.082 5.164 5.082 5.164l-9.754-.41z" stroke-width="1.01238pt"/><path d="M293.27 128.26c-9.83-1.036-15.06 17.157-26.157 17.992-.304 1.02 2.588 3.85 8.15 3.88 8.28.044 24.836-16.428 24.836-16.428l-6.83-5.445z" stroke-width="1.01238pt"/><path d="M281.664 158.968c.286-7.145 14.05-16.54 15.252-24.16.857-5.43-4.287-6.573-4.287-6.573s6.572-2 20.862 17.718c14.29 19.72-31.645 13.04-31.828 13.015z" stroke-width="1.01238pt"/></g><path d="M282.305 158.825c19.7.248 42.69-38.075 92.695-38.075 50.18 0 77.62 36.673 91.828 37.306 6.9.307-18.333 24.354-22.114 24.57-8.355.48-39.697-33.616-69.22-33.616-25.513 0-53.715 32.36-69.933 31.982-3.082-.07-28.335-22.23-23.255-22.167z" fill="#ffdf00" fill-rule="evenodd" stroke="#000" stroke-width="1.01238pt"/><g font-size="12" font-stretch="condensed" font-family="Impact"><path d="M442.77 155.266l-10.915 13.636-2.656-2.126 3.385-7.46-4.962 6.2-2.533-2.03 10.915-13.635 2.533 2.03-3.216 7.498 4.914-6.14 2.534 2.028M423.752 141.66l2.328 1.457c1.552.972 2.558 1.7 3.017 2.18.465.487.687 1.127.67 1.922-.01.79-.41 1.817-1.2 3.08-.722 1.15-1.33 1.85-1.822 2.092-.493.243-1.123.18-1.892-.192.533.597.812 1.124.838 1.58.026.458-.02.837-.135 1.138-.106.298-.534 1.044-1.282 2.24l-2.444 3.904-3.056-1.912 3.08-4.92c.496-.793.748-1.318.757-1.575.015-.254-.204-.523-.658-.807l-4.178 6.676-3.29-2.06 9.268-14.804m1.704 4.592l-2.06 3.292c.37.23.663.335.88.31.23-.027.546-.367.955-1.02l.51-.813c.294-.47.414-.822.36-1.06-.05-.234-.264-.47-.644-.708M413.807 147.945c-.705 1.574-1.237 2.676-1.598 3.305-.353.624-.82 1.132-1.397 1.524-.574.394-1.21.61-1.907.646-.698.036-1.424-.115-2.18-.453-.717-.32-1.3-.744-1.753-1.272-.444-.53-.717-1.15-.82-1.853-.1-.704-.04-1.393.182-2.068s.694-1.82 1.416-3.433l1.2-2.68c.705-1.574 1.233-2.674 1.585-3.3.36-.627.828-1.14 1.4-1.533.58-.39 1.218-.605 1.916-.642.7-.036 1.425.115 2.18.453.717.32 1.298.746 1.742 1.278.452.527.73 1.143.83 1.847.103.704.043 1.393-.18 2.068-.222.676-.694 1.82-1.416 3.433l-1.2 2.682m-1.178-6.707c.326-.73.498-1.21.516-1.442.026-.236-.068-.403-.283-.5-.18-.08-.36-.06-.534.064-.165.12-.43.583-.79 1.39l-3.273 7.317c-.407.91-.628 1.485-.662 1.725-.028.243.073.416.304.52.237.105.444.05.62-.165.176-.216.47-.785.883-1.708l3.22-7.202M395.535 130.1l3.722 1.067c1.175.337 2.034.698 2.575 1.085.547.39.913.965 1.097 1.728.185.757.07 1.86-.346 3.313-.28.982-.61 1.63-.986 1.94-.37.312-.973.462-1.807.448.8.476 1.275 1.023 1.43 1.644.156.613.078 1.466-.235 2.56l-.445 1.554c-.325 1.134-.678 1.942-1.06 2.424-.374.484-.832.757-1.374.82-.542.06-1.563-.124-3.063-.553l-4.316-1.237 4.808-16.792m2.908 3.943l-1.07 3.733c.162.04.287.07.376.097.365.104.628.068.788-.11.162-.187.386-.777.67-1.773.15-.526.215-.904.19-1.135-.02-.238-.09-.404-.21-.498-.115-.093-.363-.198-.745-.314m-1.817 6.347l-1.346 4.698c.532.13.894.13 1.085-.003.197-.13.393-.535.587-1.213l.448-1.566c.206-.72.266-1.173.18-1.362-.087-.19-.405-.374-.954-.554M371.435 126.758h6.51v3.516h-2.606v3.332h2.438v3.343h-2.44v3.12h2.866v3.51h-6.77v-16.822M361.583 127.987l2.606 13.358 3.803-.766.668 3.308-7.53 1.523-3.257-16.7 3.71-.723M351.476 130.513l1.2 3.283-2.163.792 4.803 13.12-3.644 1.333-4.803-13.118-2.156.79-1.202-3.284 7.964-2.915M338.655 135.64l1.566 3.124-2.06 1.032 6.26 12.49-3.47 1.74-6.26-12.49-2.05 1.027-1.567-3.125 7.582-3.8M325.152 143.457l11.357 13.455-3.336 2.16-1.87-2.53-1.167.755 1.512 2.76-3.375 2.185-7.835-15.735 4.712-3.05m4.378 10.545c-1.24-1.554-2.732-3.497-4.476-5.83 1.483 3.016 2.604 5.2 3.36 6.55l1.116-.72M307.285 154.565l3.175-2.215c1.003-.7 1.826-1.137 2.467-1.312.647-.18 1.325-.1 2.033.24.704.333 1.488 1.12 2.352 2.358.584.837.878 1.5.882 1.99.008.484-.256 1.045-.793 1.683.873-.32 1.598-.343 2.177-.072.575.266 1.187.865 1.837 1.797l.926 1.327c.674.968 1.078 1.752 1.212 2.35.138.597.06 1.125-.234 1.584-.294.46-1.08 1.136-2.36 2.028l-3.683 2.568-9.99-14.327m4.892.23l2.22 3.187c.133-.1.237-.177.313-.23.312-.218.45-.445.412-.682-.042-.243-.36-.79-.95-1.638-.314-.45-.567-.737-.76-.865-.2-.133-.373-.183-.522-.15-.143.03-.38.157-.713.38m3.776 5.415l2.796 4.01c.435-.33.662-.613.68-.844.023-.236-.167-.643-.57-1.22l-.93-1.337c-.43-.613-.744-.946-.945-.998-.202-.053-.545.078-1.032.39"/></g></g><path d="M374.848 158.636l9.09 25.152H410l-21.818 16.06L396.97 225l-20.91-16.06-22.424 15.757 8.182-24.848L340 183.787l27.273-.606 7.575-24.546z" fill="#c9c0bb" fill-rule="evenodd" stroke-width="1pt"/><g id="i" fill-rule="evenodd"><path d="M178.467 223.04c-4.685 3.406-13.204-13.205-35.78-16.613-22.573-3.407-20.444 17.89-31.518 11.074-11.075-6.814 15.333-10.647 15.333-10.647s-6.815.426-11.075 0c-4.26-.426-11.5 4.26-16.61 4.685-5.112.426-7.668-2.98-8.52-6.39-.852-3.406-1.278-6.388-1.278-6.388s6.39 5.537 9.797 5.963c3.407.426 10.222 0 10.222 0s-5.538-2.555-9.797-5.11c-4.26-2.556-8.945-6.39-8.945-6.39s-8.093 4.26-15.76 2.982c-7.666-1.278-12.777-13.63-12.777-13.63s7.667 8.944 13.205 9.796c5.537.853 8.944-1.702 8.944-1.702s-5.538-6.39-8.52-10.65c-2.98-4.258-3.407-2.554-2.98-4.258.425-1.704.425-3.408.425-3.408l-5.963-2.13-3.834-4.26s-5.11-5.536-5.537-8.09c-.425-2.557 5.112-7.242 7.242-6.39 2.13.85-1.278 4.26-.852 7.24.426 2.982 7.24 6.815 7.24 6.815s-3.406-5.963-3.406-8.518c0-2.557-.426-3.835-.426-3.835s.852 1.278-2.13-1.703c-2.98-2.982-8.52-2.556-8.52-5.964 0-3.407-.425-5.11-.425-5.11s2.13 2.98 4.686 4.685c2.554 1.703 4.684 1.703 4.684 1.703s-2.556-2.98-5.537-7.24c-2.982-4.26-13.63-9.37-13.204-11.5.426-2.13 1.704-4.26 1.704-4.26s1.277 4.26 5.537 4.26 4.26-8.52 4.26-8.52 2.555 7.24 5.11 7.24c2.556 0 5.537-3.832 5.537-3.832s-.85 8.093-2.554 10.222c-1.704 2.13-4.26 4.26-2.556 6.815 1.704 2.557 5.11 8.946 5.11 8.946s1.28.852 2.983-2.556c1.704-3.407 4.26-8.944 1.704-12.352-2.556-3.407-5.537-5.963-5.537-5.963s3.833 2.13 4.685 1.278c.852-.852-.852-7.24-2.556-13.63-1.704-6.39-5.538-11.926-5.538-11.926s3.834 3.407 10.223 3.833c6.39.426 13.63-.852 13.63-.852s-4.686 2.13-7.24 2.982c-2.557.852-4.687 2.13-4.687 2.13s5.112-.852 4.686.85c-.426 1.705-6.815 3.41-6.39 6.39.427 2.982 6.816-2.555 11.075-4.685 4.258-2.13 9.795-2.13 9.795-2.13s-5.537 7.24-8.092 8.52l-9.37 4.684s2.13 1.703 4.684.425c2.556-1.277 4.686-3.407 4.686-3.407s-1.704 6.815-4.686 9.37c-2.98 2.556-5.963 1.704-5.963 1.704s-.426 1.278-.426 4.686c0 3.407-.852 5.963-.852 5.963s5.964-5.537 7.24-8.092c1.28-2.556 6.816-4.26 6.816-4.26L88.594 137l6.815-6.815 1.703 5.11S97.54 137 100.095 137c2.555 0 3.833.426 3.833.426s-5.963 1.703-11.5 2.13c-5.537.425-8.52-1.278-9.37.85-.853 2.13 0 3.41-2.556 6.39-2.556 2.982-5.11 11.075-5.11 14.482 0 3.408 1.276 4.26 1.276 4.26s0 .425 2.13-3.834c2.13-4.26 6.815-8.945 6.815-8.945s-3.408 9.37-4.685 11.926c-1.278 2.555-3.408 5.537-1.704 8.944 1.704 3.408 10.648 13.204 14.908 17.038 4.26 3.833 8.518 7.24 8.518 7.24s-2.555-4.26-.852-6.815c1.704-2.555 6.815 2.556 8.52 5.538 1.703 2.982 3.407 6.39 5.536 7.242 2.13.85 1.704.425 1.704.425l-.426-5.963s2.556 3.408 5.537 4.26c2.98.852 6.814 1.278 6.814 1.278s-5.11-3.834-8.518-7.667c-3.408-3.834-6.39-6.39-7.667-5.537-1.28.85-2.557 3.407-4.687.425-2.13-2.98-3.833-6.39-6.815-6.814-2.98-.427-5.11 4.258-5.11 4.258s-.853-4.685-.853-7.667c0-2.98 4.26-2.98 3.408-5.11-.852-2.13-2.982-1.704-4.685-6.815-1.704-5.11-5.964-9.37-5.964-9.37s7.24 6.814 9.37 6.388c2.13-.426 6.39-6.815 6.39-6.815s-.852 5.112-.852 10.65c0 5.536 0 11.073 2.556 11.5 2.555.425 1.704-4.26 4.685-1.705 2.982 2.556 5.537 10.223 8.093 11.5 2.555 1.278 3.833-1.277 2.555-4.685-1.276-3.407-4.684-2.98-5.11-6.815-.426-3.833.426-5.11.426-5.11s1.704 6.388 3.408 6.388c1.703 0 3.407-11.925 3.407-11.925s5.964 8.52 5.538 12.778c-.426 4.26-4.26 3.833-4.26 7.24 0 3.408-.425 8.945 1.705 8.52 2.13-.426 5.11-7.667 5.11-7.667s.853 4.26 2.557 7.24l3.407 5.964s1.278-1.278 0-6.815c-1.278-5.537-2.982-8.52-3.407-11.5-.426-2.982 1.703-6.39 3.833-5.538 2.13.852 2.13 4.26 1.704 10.223-.426 5.963-.852 12.778.852 12.778 1.702 0 13.628 2.555 22.147 7.667 8.52 5.11 17.464 9.37 15.76 13.204z" fill="#017b21" stroke="#014004" stroke-width="1.25" transform="matrix(1 .2 .1 1 204.5 76.6)"/><path d="M73.515 182.345c-2.663-2.283-6.087-1.522-3.804-4.946 2.283-3.425 5.327-3.044 7.61-1.523 2.283 1.522-1.522-3.043 1.902-2.663 3.424.38 8.75 5.707 6.848 7.61-1.902 1.902 2.664 1.902 3.425 4.565.76 2.662-1.142 8.37-4.946 7.228-3.806-1.142-8.372-.38-8.752-3.044-.38-2.663-1.902-10.653-2.283-7.23z" fill="#ffdf00" stroke="url(#b)" transform="matrix(1 .2 .1 1 204.5 76.6)"/><path d="M79.037 160.97c2.873 7.542 5.746 8.62 9.696 8.26 3.95-.36 10.056-9.337 7.183-12.928-2.873-3.592-7.542 3.232-7.542 3.232s0-1.796-.718-3.59c-.718-1.797-2.514-1.797-2.514-1.797s2.155 1.436 5.028 0c2.873-1.437 3.232-3.232 1.436-4.67-1.795-1.435-8.26-1.435-11.85.36-3.592 1.796-3.592 6.465-3.592 8.62 0 2.154 0 1.436 2.873 2.513z" fill="#ffdf00" stroke="url(#c)" transform="matrix(1 .2 .1 1 204.5 76.6)"/><path d="M60.91 171.075c-5.538 2.13-4.687-7.24-2.13-10.223 2.555-2.98 3.407-5.537 5.536-3.833 2.13 1.702-1.278 4.258 1.278 3.406 2.556-.852.852-4.685 2.982-3.833 2.13.852.85 5.11 0 8.518-.852 3.41-1.704 7.668-3.834 8.52-2.13.852-4.685 1.704-3.833-2.555z" fill="#ffdf00" stroke="url(#d)" transform="matrix(1 .2 .1 1 204.5 76.6)"/><path d="M63.038 147.222c-6.815 0-5.963-.426-6.39-2.555-.425-2.13 2.983-1.278.427-3.834-2.555-2.555-2.98.852-3.407-2.13-.426-2.98 4.26-3.407 7.667-3.833 3.407-.426 1.277 2.556 4.26 2.556 2.98 0 4.684-.852 4.684-.852L69 140.407s3.835-1.278 2.983 1.704c-.852 2.982-1.704 7.668-8.945 5.112z" fill="#ffdf00" stroke="url(#e)" transform="matrix(1 .2 .1 1 204.5 76.6)"/><path d="M58.353 119.962c-1.278 4.686 1.278 6.815-2.556 6.39-3.833-.427-2.98-4.26-2.98-8.093 0-3.835 2.13-7.242 5.962-6.816 3.832.426 6.814 4.26 4.684 7.24-2.13 2.982 4.26-.85 1.278 2.13-2.98 2.982-4.685 2.556-6.39-.852z" fill="#ffdf00" stroke="url(#f)" transform="matrix(1 .2 .1 1 204.5 76.6)"/><path d="M70.705 97.814c1.278 3.833-4.26 8.518 1.704 9.796 5.962 1.278 14.48-3.407 12.35-5.963-2.13-2.555-4.684 0-8.092 0-3.407 0-2.555-5.963-5.963-3.833z" fill="#ffdf00" stroke="url(#g)" transform="matrix(1 .2 .1 1 204.5 76.6)"/><path d="M103.928 134.444c-2.555 3.834-5.537 0-8.944-.426-3.408-.426-7.24 0-8.093-2.98-.85-2.983 2.556-.427 4.686-2.13 2.13-1.705 0-2.983 2.13-2.983s1.703.426 3.407 2.13-.852-4.685.426-6.815c1.277-2.13 5.11-4.26 5.536 0 .426 4.26-1.278 8.093-2.13 9.37-.85 1.28 5.538-2.13 2.982 3.834z" fill="#ffdf00" stroke="url(#h)" transform="matrix(1 .2 .1 1 204.5 76.6)"/></g><use xlink:href="#i" width="744.094" transform="matrix(-1 0 0 1 750 1)" height="496.063"/><g fill="#ffdf00" font-size="12" font-stretch="condensed" stroke-width="1pt" font-family="Impact"><path d="M406.663 228.475l10.837 10.2-3.55 2.685-1.763-1.972-1.243.94 1.385 2.26-3.59 2.715-7.09-13.034 5.013-3.795m3.856 8.913c-1.18-1.192-2.592-2.695-4.24-4.51 1.34 2.503 2.358 4.305 3.053 5.407l1.186-.897M388.617 240.06l2.794-1.52c1.805-.98 3.064-1.567 3.777-1.762.72-.198 1.337-.217 1.852-.057.514.16.927.428 1.237.803.307.37.79 1.166 1.452 2.388l2.445 4.52c.627 1.16.984 1.968 1.073 2.43.092.45.047.87-.134 1.258-.184.38-.473.738-.868 1.07-.397.325-1.042.73-1.935 1.216l-4.71 2.56-6.983-12.905m4.93.178l4.593 8.49c.538-.294.818-.57.838-.828.018-.264-.206-.827-.672-1.688l-2.713-5.013c-.316-.586-.54-.95-.67-1.09-.13-.144-.29-.212-.478-.206-.19 0-.49.112-.898.334M383.003 241.168l5.618 13.78-4.342.97-.785-2.528-1.522.34.323 2.63-4.394.978-1.035-14.803 6.138-1.367m-.196 9.71c-.577-1.574-1.238-3.528-1.983-5.863.18 2.832.356 4.894.53 6.186l1.453-.322M375.363 242.483l-4.2 14.242-6.743-.9-.62-14.887 4.684.626c.006 4.08-.06 7.517-.197 10.315.606-2.767 1.18-5.22 1.724-7.36l.67-2.663 4.683.626M352.023 237.382l9.51 3.105-.885 2.8-3.806-1.243-.838 2.654 3.562 1.163-.84 2.663-3.563-1.163-.972 3.077 4.187 1.366-.884 2.8-9.89-3.228 4.42-13.993M350.877 236.63l-8.445 12-3.9-2.744 1.526-7.083-3.84 5.454-3.718-2.617 8.445-12 3.72 2.62-1.31 7.157 3.803-5.403 3.72 2.617"/></g></g></svg>