<svg xmlns="http://www.w3.org/2000/svg" version="1" width="675" height="450"><path d="M-2514.28 2316.776z"/><path d="M0 450h675V0H0v450z" fill="#0073cf"/><path d="M374.385 234.32h.318-.318" fill="#9a3b26"/><path d="M291.953 79.826c-.354.336-.654.828-1.17.51.138-8.34-3.468-15.198-7.59-21.78-.45-.894-1.728-1.584-2.622-1.83 1.885 5.334.51 10.11 1.44 15.456.067.186.45.504 0 .69-.773-1.578-1.673-3.102-2.19-4.812-.905-1.584-2.44-2.85-4.037-3.726-2.544-1.128-4.278-3.354-6.642-4.926-.935-.198-1.703-1.368-2.537-1.524l-1.284.036-.205 1.182c.036.492.246 1.02.21 1.47 3.15 4.698 7.95 8.094 9.828 13.5-1.08-.12-1.98-1.254-3.318-1.128-.318.012-.378.39-.312.642.84 2.22 2.442 4.248 3.096 6.414-5.557-2.838-3.89-10.362-9.127-13.572-.768-.318-1.35-1.896-2.304-1.38.713 1.524 1.037 3.102 1.56 4.698.515 1.278.46 2.226.785 3.564l-.192-.258c-1.914-.438-3.258-2.148-5.172-2.454l-.377.318c3.456 3.294 5.328 7.416 7.644 11.286 1.62 4.254 3.306 8.568 7.08 11.79-.564.738-1.29 1.344-1.806 2.016l-1.41 1.428c-1.05-.666-2.117-1.326-3.203-1.806-.702-.246-.696.576-.69 1.02l2.292 3.354-.98.702c-.03.036-.065.084-.095.12l-.6.606c-4.188 5.73-7.626 11.004-9.762 17.628-.702-.132-1.788-.696-2.166.012-1.212 1.488-.336 2.976.57 4.392l-.786 1.392c-.293-.522-.66-1.008-1.217-1.332-2.664 1.356-.294 4.02-.216 5.856-2.256 5.742-3.552 12.12-4.344 18.18-1.2 1.404-2.844 2.808-3.534 4.662l.125.126c-.378.576-.564 1.278-.678 1.986-.756.96-2.478.51-3.882.78-.948.258-.432 1.212-.558 1.842.708 1.278 2.04.378 3.186.81l.828.114c-.107 2.172-2.597 1.806-3.99 2.394-1.463.516-3.37.27-4.45 1.302.51.174.707.756 1.025 1.134.39 1.338-1.26 1.782-1.824 2.868.08 2.556-.035 4.656.175 7.266.57.438.126.954-.12 1.458-.114 2.538-.606 5.034-.396 7.578-.127.702.635.378.893.762l.048 7.128c.26.57.823.246 1.14.564-.797 3.312.685 6.936.2 10.566.257.432.767.318 1.02.624-.3 1.278-1.13 2.496-1.177 3.702-.234 3.504-.846 7.392-.762 10.884l.26.258c.19.192.383-.066.575.06-.066.186.066.39-.126.504-.99 4.02.94 7.77.197 12.036.39.702 1.47.432 2.166.432-.366.762-.618 1.656-1.386 2.172-1.89 2.55-.156 4.968-.714 7.896l.9.432c0 .444-.444.648-.444 1.092.395 1.782.473 4.38 2.2 5.778.96.114.89-1.02 1.393-1.608.06-1.008.558-1.968.87-2.988 2.532-1.992 2.262-4.602 2.37-7.524-.39-1.968 1.188-3.642 1.302-5.742-.27-2.226 1.368-3.948 1.674-6.114-.71-2.226 1.313-3.708 1.11-5.73-1.993-3.108 1.36-6.06-.253-9.18 1.524-1.02.876-2.544 1.314-4.02 1.195-2.352-1.487-3.666.535-5.844 1.578-2.052-.486-6.048 2.814-7.338l1.157 1.266.126-.138.45.444c1.62 5.214 4.074 10.29 6.654 15.234 2.448 4.956 6.168 9.444 9.258 14.13-2.28 2.382-4.62 5.064-7.086 7.242-1.735-2.586-2.455-5.832-4.7-8.304l-.125.126-.258-.246c-1.596-.504-3.312-.048-4.578 1.302-1.585.96-2.275 2.364-3.03 4.032-1.44 3.63 3.347 5.13 4.823 7.086.702.576 2.1.624 2.106 1.584-2.827 5.04-8.155 8.448-11.88 12.798-2.46 3.396-7.537 6.42-8.017 10.944.132.702.9 1.14 1.47.75 8.808-5.904 15.822-13.782 24.048-21.48.385-.258.45.576.77.12.51.51 1.27.504 1.967.444.126-.834-.138-1.782-.456-2.616 2.653-2.814 6.45-5.574 9.553-8.4-.234 2.238-1.302 4.344-1.986 6.504-.756 1.278-2.154 1.416-3.234 2.13-1.08.318-1.98-.63-2.868-.234-.948 1.02-.174 2.472.15 3.564-.57.762-1.464-.12-2.16.33-1.716.84-1.002 2.868-1.5 4.266.384.642 1.02.948 1.662 1.146-.252 1.008-.372 2.028-.81 2.988-.438.96-1.71 1.536-1.698 2.742.773 2.1-.42 4.092-.283 6.186l.45.696c.45.054 1.53-.144 2.034-.27.265 1.464-1.193 1.98-2.147 2.562-1.32 2.484-.468 5.724-.834 8.334-.18 1.404-.235 3.444.473 4.266-.126 1.02-1.2 2.166-.426 3.186.138 1.914.918 4.644.486 6.684.012 1.134-.678 3.444.6 4.062-.048 2.616.606 4.584.366 7.128 1.47 1.134-.367 2.682.275 3.876.132.576.582.834 1.026 1.14-.49 2.04-.605 4.332.607 6.114-.108 1.902.978 3.624 1.626 5.334.954-.39.948-1.662 1.26-2.484 1.956-2.25 3.078-5.814 1.914-8.862 2.28-1.734 1.308-4.722 1.164-7.02 1.075-1.836.87-3.888.793-6.042 1.068-1.728.87-3.06.54-4.974 1.512-2.238.726-4.896 1.92-7.332.564-1.02-.774-2.028.174-2.988 1.266-.33 1.26-1.854.996-2.742-.654-2.862.348-5.664-.054-8.718.755-1.596 1.313-3.258 1.685-5.04.564-1.524-.594-3.048-.348-4.584.51-.516.558-2.04 1.836-1.476.894.06.696-1.092.564-1.596-.84-1.782 1.002-2.868.546-4.524-.912-2.538-3.342-4.5-4.056-7.158.558-1.794 1.122-3.576 1.68-5.424.228.126.42.444.618.654l.51.984c-.174.282-.318.588-.408.906 1.104 3.234 4.902.594 6.384 3.516-.31.252-.31.768-.31 1.026.263 1.524 1.925 2.016 3.137 2.394 1.086.576 2.22-.774 2.868.678 3.702 1.956 7.224 4.92 10.986 6.87v.258c-.053.186-.305.066-.563.126-.12.762-1.008 1.35-1.578 1.854-1.34-.366-2.557-1.2-4.147-1.056-.06.456.258.642.138 1.08.32.702 1.087 1.206 1.723 1.464 1.146.246 2.61.102 3.432-.342-.378.894-.624 1.842-1.128 2.742-1.764 2.298-4.302 4.218-7.29 4.374.066.702-.114 1.464-.234 2.166.132.822.768 1.02 1.398 1.266.325.564-.047 1.266-.107 1.71-.18 1.536-.804 3.39 1.044 4.266.192 1.008-.69 1.596-.552 2.616.066.69.768.876 1.152 1.26.126.252-.126.378-.186.576.457 2.226-.605 4.584 1.375 6.294-1.584 1.218.276 3.108-.606 4.452-.06.702.953.378.767 1.14-.69.774-.492 1.92-.552 3 1.602 1.512-.486 3.558-.408 5.472 1.476 2.544 1.566 6.162.756 8.844-.06.762.894.45 1.152.696.06.186-.126.186-.258.312.018 2.418-1.368 4.782-.522 7.326 1.302 4.512.066 10.314 3.402 14.112.57-.132 1.074-.516 1.392-1.032 1.505-3.192 2.057-6.246 2.675-9.564 1.77-1.536 1.818-3.888 2.118-5.874-.018-3.102.918-6.102.9-9.348 1.374-3.588 2.682-8.166.936-11.916-.445-.246-.77-.696-.835-1.14.882-1.98 1.752-4.98.528-7.254-.324-.642.318-.384.696-.588.443-.186.76-.63.82-1.146.12-.702.313-1.278-.27-1.842-1.29-3.234 1.363-6.126.77-9.234-2.497-2.472.347-5.484-.75-8.532-.71-1.26-2.167-.3-3.193-.864-2.616-1.254-.408-4.254-.612-6.162l1.02.174c3.516 2.646 8.1 2.742 12.246 3.864.517.318 1.47.306 1.537 1.14.642.762 1.218 1.008 2.046 1.008 1.392.174 2.334-1.806 3.552-.972.954-.198 1.02.816 1.602 1.38 1.272.822 2.988-.024 4.26-.726l.528 1.596c-.264 1.722-.15 3.48-.294 5.154l-.19.246c-1.405-.306-2.49-1.626-3.457-2.706-1.272.384-1.326 1.536-2.082 2.424-.053.894.967 1.842 1.67 2.472-.253.192-.637.258-.823.27-1.206.834-3.186.198-4.134 1.362.078 2.34-.288 4.266.426 6.42.575.576 1.205-.072 1.78-.198.325.948.457 1.968.403 3.048-3.558 1.23-.864 4.392-1.806 6.762-.684 1.908 1.602 1.38 2.304 1.512-.69 1.332.217 3.816-2.01 4.464-.57.444-.37 1.206-.37 1.98.07 1.008 1.343.876 1.86 1.194-.75 2.166-.865 4.842-1.23 6.822 0 .702.7.75 1.025 1.134-.312 1.092-.432 2.676-.168 3.882-1.452 1.602-1.182 4.218-.792 5.742.066.372.318.246.576.432-.18.186-.053.576-.113.834-.564 1.848-1.44 3.63.408 5.142-.492 2.112-.858 4.536-.972 6.504.456 2.484 2.004 4.902.942 7.572-.612 3.948 1.632 7.5 1.656 11.58 1.723.042 1.837-2.052 2.527-3.33.75-2.358 1.752-4.524 1.866-7.14-.084-3.054 1.62-5.67 2.94-8.292.942-1.482.678-3.378.54-5.028.942-1.41.996-3.318 1.242-4.914-.006-.57-.582-.948-.264-1.524 1.633-2.88 1.55-6.762 1.777-10.194 1.26-2.238.918-5.298 1.092-7.782 1.247-3.444 1.097-7.194 1.523-10.77-.138-1.134-1.794-2.526.108-3.246.367-2.094 1.243-4.71.08-6.75l1.14-1.392c.31-.834-.457-1.464-.715-2.166-1.344-1.386-2.502-3.096-3.342-4.878-.642-.888-1.848-.114-2.418-.822.168-2.472.096-3.876.078-6.48l-.258-.516c2.676-.138 5.664-.162 7.956-.492 7.64.216 15.78-.996 23.34-3.774.577.882 1.783.306 2.485.426.006 1.404-.3 2.742-.546 4.146-.127.186-.445.318-.32.636-1.643 1.158-1.793-1.644-3.13-2.016-.823.516-1.135 1.464-1.447 2.298-.252.888-1.326 2.106-.294 2.868-.697.576-1.59.516-2.287.846-1.02.372-.822 1.206-.69 2.04.132.69 1.026.876 1.344 1.26-.504.576-1.398.204-1.902.774-.432 2.544.09 4.458.612 6.87.132.822 1.092 1.968-.234 2.286-.948 1.086-.618 2.742-.168 3.816.636.192 1.146-.252 1.722.192-.504.702-.882 1.464-1.26 2.238-.354 4.194 1.074 8.448 1.098 12.654l1.464.12c-.56 1.524-1.64 2.796-1.56 4.59 1.48 3.048 1.697 6.858.767 10.176.324 1.206.33 2.538.468 3.816.132.696.636.12 1.014.438l.155 4.32c.198 1.152.018 2.688 1.038 3.246l-.312.45c-.293 3.186-.34 5.856-.257 9.288-.054.576.39 1.338 1.026 1.02 1.013-.516 2.153-1.548 2.14-2.754.06-.96.24-2.094.685-3.114l-.132-.132c2.028-1.992 2.328-4.848 2.568-6.96.295-3.492 1.297-6.564 2.035-10.008-.474-4.266 1.668-8.214.684-12.348 1.457-1.482.863-3.378 2.07-4.98.365-1.842-.535-3.81.407-5.604.24-1.722-.912-3.048-1.044-4.452.804-2.616-1.938-4.374-1.89-6.726 1.206-.774 3.12.042 3.876-1.434.18-.888-.33-1.71-.463-2.598.378-.318.822-.39 1.266-.516 1.59-.33-.012-1.668.684-2.298l-.252.258-1.86-2.532c-.45-.702.438-1.278.114-1.908-1.795-2.16-3.085-4.758-3.805-7.434-1.98-.936-1.488-3.492-1.434-4.956 2.683 1.068 5.995 1.116 8.73 1.35 3.565-.402 5.63 3.468 9.313 2.226.954.12 2.28-.642 3.426-.714.9 1.71 1.805 3.42 2.77 5.13-.13.132-.317.204-.443.258.006 1.278-.042 3.378-.48 4.464-.312.834.012 2.1 1.092 2.406-1.135 1.218-.865 3.126-1.363 4.722.066.762.828.06 1.272.444-2.275 1.662-1.11 5.028-2.69 7.08-.437.96.2 1.722.583 2.412-1.254 2.424-.216 4.968.936 7.128-.823 1.074-1.255 2.61-.865 3.876 1.476 1.71-.804 2.94-.54 4.722.714 2.406.732 5.088-.906 7.194-1.135 1.596.72 2.862.407 4.386-.876 2.298 1.17 4.068.486 6.36-.054 1.212 1.092 1.842 2.04 1.398 1.08-.642 1.392-1.98 1.386-3-1.297-2.988 3.533-4.548 2.813-7.662-.018-3.234 2.382-5.43 2.808-8.544 1.207-.906 1.897-2.43 1.567-3.774-1.416-3.162 1.428-5.604 1.41-8.46-.42-2.766 1.038-4.656 1.308-7.2l.144-1.086c1.697 1.944 3.03 4.194 4.385 6.27 1.35 2.286 3.468 4.242 4.44 6.654.318.132.312-.258.438-.384 1.932 2.79 4.932 4.044 7.614 5.484 1.2-1.092-.402-2.802-.726-4.128-.13-.702-.9-1.266-.84-1.836-.39-.894-1.47-1.842-1.6-2.604-.39-.69-.9-1.452-1.735-1.638-1.8-3.048-2.904-6.354-4.896-9.33-1.483-2.862-3.727-5.52-4.513-8.568l1.272-.702c-.013-1.98-.09-3.69-1.057-5.412-.258-.624-.9-1.386-.966-2.028.576.312 1.152.948 1.722 1.008 1.08-.516 1.39-1.722 1.703-2.742.372-1.464-1.224-2.418-2.058-3.552.57-.198 1.206-.072 1.842-.144 1.272-.57 1.26-2.034 1.698-3.198-.066-.762-.768-1.134-1.032-1.824 2.718-3.33-2.508-4.83-3.168-8.004.504-.516.828-.462 1.59-.462 1.59-.012.876-2.166 1.38-3.186-.072-1.404-1.728-1.65-2.31-2.79-3.138-2.904.276-6.492-.51-10.182 2.76-1.608 2.532-4.56 1.98-7.452l.69-.42c.108.63.234 1.272.348 1.944.258.504.768.816 1.404.618 1.068-.96 1.032-2.67.762-4.278l.683-.546c.906-1.512 1.848-3.036 2.502-4.68.732-1.824 1.476-3.642 2.208-5.46l.228.636c-.203 2.004.577 4.194.433 6.21.006.816 1.02.75 1.596.876l-1.135 1.464c-1.644 2.31-.036 4.656-1.356 6.894.905 2.286-2.01 4.908.167 6.81-.378.444-1.014.768-1.14 1.344-.438 1.206.72 2.088 1.296 2.976-.06.516-.564 1.152-.882 1.722-1.067 1.722.09 3.378-.09 5.16-.953.96-1.51 2.556-.995 3.702 1.986 1.77.09 4.194.93 6.354-2.274 3.006.804 6.042.948 9.162h.384c1.266-1.536 2.91-3.144 3.276-5.178 1.392-1.596 1.824-3.636 3.084-5.37 2.046 1.068-.768-.822.63-1.404-.654-2.604 1.884-4.152 1.104-6.504.235-3.366 2-6.048 3.32-8.988.227-3.504 2.05-7.14 2.285-10.644 2.274-2.622 2.19-6.126 2.73-9.444-.522-3.234.852-6.234.51-9.738 3.042-2.886-.288-6.738 1.404-10.194-.53-2.676.917-5.802.39-8.016l.443-.456c-.39-1.14-1.662-.696-2.616-.81l-2.196-4.89c-.45-.948.247-1.59.69-2.28.12-.588.75-1.536-.143-1.986-.762-.504-1.776-.114-2.28.72-1.71 1.578-1.902-.492-2.484-1.926l-1.362-1.638c-.03-1.524-.593-2.964-1.74-4.104 1.23-6.816-1.23-12.852-1.59-19.206-.01-2.424-1.295-4.452-1.187-6.75.126 0 .252-.06.318.132.57-.192.63-.774.565-1.278-.678-1.644-1.986-2.958-3.462-3.996l-.198-.822c.192-.504-.45-.762-.39-1.266.444-.318 1.212.246 1.524-.456.43-2.418-2.25-3.924-4.033-4.992-.012-1.278-.906-2.172-1.038-3.306-2.707-4.884-5.16-9.9-8.815-14.4 4.044-3.774 7.776-8.064 12.27-11.976 1.134-1.35 2.652-2.568 2.838-4.482-.324-1.416-1.122-2.706-2.04-3.852l.888-.834c.69-.42 1.345-1.182 1.807-1.746-.582-1.134-1.986-2.016-2.76-2.964-1.08.576-2.148 1.608-2.652 2.628-.636-.576-1.284-1.716-2.304-2.028-1.145-.246-2.35-.048-3.18.726-3.263 3.432-7.025 5.904-9.785 9.702l-1.032.42c-1.98-1.134-2.22 1.476-3.552 1.992-.7-1.65-3.113-.36-3.76-2.388l.125-.132c.75-.516.492-1.332-.012-1.908-1.326-.432-2.634-.444-3.87-.162l-.636-1.02c-.396-.726-1.512-1.188-1.944-1.902-5.178-3.456-10.038-6.864-15.654-9.186-6.325-2.88-12.83-4.818-19.843-6.174l.066-.12c.312-.456.378-.9.246-1.476-.583-1.008-1.59.012-2.42.024-1.33 1.146-3.623.714-5.345.858.57-.708 1.458-1.596 1.128-2.676-2.094.39-4.128 1.044-5.838 2.196-3.186-.294-5.874-.246-8.976-.258-7.573 1.194-15.59 2.13-22.765 4.722-.888.138-4.08 1.23-4.08 1.23-.186-.894-1.062-.612-1.77-1.056-2.412.9-2.388 4.02-4.998 4.608-.774-1.77-1.674-3.492-2.772-5.136-1.218-1.842-3.078-4.122-5.43-3.654-.252.384-.444.828-.186 1.278 1.475 3.222 2.393 6.714 2.71 10.44"/><path d="M418.727 229.586c-.042.426-.018.858.084 1.302 1.657.438 3.697.426 4.705-1.17.12-.642.306-1.35.24-1.908-1.2.408-2.448.762-3.606 1.284l-1.423.492M427.583 230.552c-.54-.846-.708-1.914-.774-2.766.19.054.383.054.51.186 1.15.63 1.205-.9 1.775-1.35 1.218 1.2-.624 2.298-.744 3.504-.03.282-.113.588-.22.906l-.54-.48" fill="#9a3b26"/><path d="M431.867 215.258c-.816.282-.894 1.782-1.554 2.508-.324-.246-.708-.444-1.026-.69-1.272.126-1.026-.822-1.032-1.842h-.378c-.378.888.588 2.856-.864 3.258-1.32 2.742-4.374 3.138-6.852 3.48-2.435-1.842.29-4.08-.485-6.306 1.26-1.59.42-3.564.666-5.286.18-1.464 1.32-2.61 2.01-3.888-.575-.132-1.33.258-1.72-.378-.133-1.206-.277-3.432-.35-5.028-.053-.468-.28-.984-.21-1.428l-.185-1.356c3.204-7.992 6.144-16.032 7.092-24.942-.33-1.278.822-.774 1.326-1.53.582 1.392.72 3.042.474 4.578-.12 1.206-.942 2.226-1.122 3.246h.378c2.202-2.226 1.476-6.102.72-8.82l-.42-1.704c-.528-1.368-1.656-2.61-.966-4.17l.708.948c.192.636-.048 1.842.648 2.028-.066-.948.24-2.154-.654-2.73l.57-.384.935.864c-.042.612.684 1.068.798 1.662.222 4.914.324 10.818.684 16.488.816-1.404.288-3.312.408-5.022.702.69.834 1.764 1.476 2.4.44-.888-.455-1.71-.78-2.544-.317-.06-.695.144-.82-.174-.085-3.06-.367-7.254-.325-10.314 1.338.69 2.088-1.35 3.36-1.416.708.948-.36 1.968-.804 2.868-.18 1.338.71 2.286 1.04 3.426.64 1.146 1.157 2.28 1.547 3.546.444-.504 1.08-.384 1.782-.258.39 1.266.21 3.18-.037 4.716.726 3.75-1.674 6.504-.312 10.554.583 1.338-.875 2.184-1.253 3.318.594 2.928-1.416 5.94-.384 8.79-.75 2.238-.348 4.464-.972 6.69-1.09-1.194-2.435-2.142-3.587-3.408-.192-.246-.072-1.02-.702-.822.14 1.71 1.1 3.294 1.747 4.944.198.762 1.152 1.206 1.152 2.04-.26.69-.47 1.386-.66 2.076l-1.057.012" fill="#efe8c7"/><path d="M432.767 215.852c-.636 2.556-.972 5.124-2.034 7.77l-.258-.258c-.966-1.134-1.044-3.558-2.886-3.408.005 1.326.083 3.174-.865 4.392-.828-.258-.33-1.59-1.284-1.65-1.24 1.092-2.94 1.944-4.667 2.274l-1.188.432c-.426-.468-.936-.936-.876-1.578.053-.708.63-1.08 1.193-1.41 1.908-.33 3.876-.468 5.526-1.428 1.2-1.35 2.657-2.25 3.155-3.906l1.41 1.008c1.392.33 1.506-1.392 2.022-2.46l.75.234" fill="#9a3b26"/><path d="M419.71 225.56c.355.42.59.864.223 1.44-.576.654-.99 1.416-1.152 2.226l1.363-.612c1.236-.75 2.718-.816 4.056-1.32.197 1.266.01 2.226-.427 3.372-1.524.588-2.79 1.29-4.452.666-.25.504.007 1.02-.113 1.656-.378 1.092-1.644 1.98-1.128 3.318l1.71-1.728c1.66 1.512 3.245.168 5.153.084.45.06.642.894 1.152.444.69-1.218 1.836-1.734 1.698-3.126.048-.15.102-.306.162-.456l-.726-.69c-.967-.954-1.22-2.568-.997-3.612.828-.396 1.086.564 1.722.42.378-.702.69-1.836 1.068-2.166.768.114.33 1.854 1.218 1.134 0-.258-.065-.57.253-.702.054-.444.3-1.134.234-1.836-1.332-.636-1.662-2.346-2.442-3.552-.63.828.198 1.404-.234 2.298-.437.702-.43 1.836-1.45 1.98-.57.054-.77-.576-.96-.954.065-.126-.127-.198-.193-.312-1.614.726-2.94 1.734-4.68 1.758l-1.056.27" fill="#efe8c7"/><path d="M405.737 272.222c-.648-.69-1.362-1.326-2.142-1.896-.054 1.272.528 2.856 1.296 4.062l-.57.144c.26.3.385.762.835.948.198-.774.36-1.218.414-1.902l.16-1.356" fill="#9a3b26"/><path d="M336.377 301.964c-.234-.33-.45-.654-.762-.96-.894-.186-.06.96-.63 1.278-.444-.318-.576-.894-1.146-.696-.77.204-.505 1.212-.373 1.728.582 1.392 1.74 3.348.984 4.566-.257-.114-.575-.372-.827-.114l-.108 3.306c-.126.126-.252.312-.444.258-.125-.132-.317-.252-.317-.45-.516-.126-.96-.75-1.53-.36.462 2.73 3.522 4.044 3.732 6.84-.114 1.98-1.44 3.516-2.514 5.052-1.145-.384-1.343-1.782-2.423-2.286-.888.972-.624 2.43-.174 3.45.912 2.472-.024 5.976-1.344 8.28-.9-1.524-.09-3.816-1.183-5.154l-1.14.9c.192-.63.054-1.776.558-2.484l.384.192c.45.258 1.02.114 1.33-.33.373-1.968-.593-4.14-.797-6.048-.516-.75-1.284-1.326-2.112-1.38.307-1.782.17-3.366 1.117-4.914 1.398-.516 2.79-1.29 3.87-2.304.246-.834 1.068-1.596.552-2.556-1.783-.048-3.93 2.766-5.215.294.114-.516-.012-1.47.882-1.278 1.392-1.29 3.03-2.826 4.23-4.422-1.152-1.65-3.438.27-4.842-1.296-.012-1.596-.336-3.132.414-4.47-.445.072-.83-.054-1.147-.372.108-2.484.666-5.04 1.224-7.452-.642-.132-1.404-.06-1.854-.696-.9-2.538 2.724-2.562 2.07-5.166.312-.63-.324-1.908 1.002-2.04.696-.384 1.392-1.086 1.326-1.848-1.073 1.206-2.525 2.424-4.187 2.118l-.414-5.976c.57-.642 1.457-1.29 2.08-1.86-.125-1.212-.13-2.358-.46-3.624-.703-.06-.95.9-1.717.576-.51-.504-.072-1.266-.522-1.698-.065-1.224-.335-3.378.23-4.596 1.59-.27 3.36-.846 5.02-1.302-.515-.888-1.86-1.584-1.865-2.718.378-.702.756-1.476 1.392-1.992 1.086 1.206 2.298 2.85 4.152 2.388.36-1.518.03-3.864.233-5.766l.024-1.146c.708.12 1.458.132 2.172.222.065.258-.253.186-.313.378-.114 1.332.27 3.054.15 4.206.786 3.102-1.554 5.484-.9 8.4-.102 2.484 1.998 4.128 2.718 6.282l.444-.258c-.39-1.266-1.165-2.34-2-3.408-.323-1.536-.84-2.742-.467-4.464.048-1.212.294-2.484.546-3.438.887.246 2.033-.078 2.423.996.27 2.172 2.694 3.366 3.474 5.262.828.894-.57 1.164-.882 1.722-.57.588.072 1.278.204 1.854.263 1.908.347 4.77-1.303 6.048-.438 1.146.714 1.908.786 2.988-.432 2.742-.918 5.61-.84 8.346-.57.702-.312 1.272-.684 1.98-.583-.822-.775-1.842-1.16-2.73-.39-.696-.773-1.584-1.475-1.962-.372 1.914.156 4.512.486 6.672l-.25.198c-.45 0-.77-.186-1.153-.306-.006-.96-.834-1.842-1.032-2.856h-.318c-.06.828.396 2.226 1.35 2.73l-.186.444c.517 1.452 1.23 2.844 1.62 4.38 1.603 1.188.66 2.946.727 4.572l-.894.282" fill="#efe8c7"/><path d="M335.975 302.246c-.066-.048-.138-.084-.228-.108-.126.258-.12.702-.564.714-.636.132-.576-.57-1.026-.816-.564 1.134.588 2.214.846 3.3.264.822.462 1.902.21 2.664l-.444.33c-.067-.192-.32-.06-.445-.132-.12 1.02-.18 2.166-.234 3.246-.31.774-1.02.27-1.463.072-.132-.318-.45-.438-.702-.564l-.126.126c.833 1.338 1.667 2.664 2.885 3.798.942-1.782 1.566-4.206.786-6.114 1.56-1.41 1.243-3.726 1.657-5.706l-1.152-.81" fill="#9a3b26"/><path d="M245.657 157.298c.054-.708-.018-1.362.03-2.064-1.278-.186-2.418.33-3.69.468-.192.318-.06.834-.12 1.146.9 1.008 2.166-.012 3.252.486l.527-.036" fill="#efe8c7"/><path d="M427.99 169.364c-.245-.348-.45-.786-.605-1.17-.522-1.584-1.296-2.976-2.448-4.242-.576 0-1.092-1.206-1.854-1.266-.384.072-.894-.114-1.146.39.33 1.464 1.608 2.598 2.316 3.996 1.098 1.578 1.488 3.618 3.282 4.884.57-.138.312-.9.18-1.278-.192-.318-.51-.576-.45-1.02.48 0 .564.648.924.858l-.2-1.152M257.027 124.052c.24.372.462.75.624 1.122.96.948.65 1.71.21 2.862-.91-.612-1.265-1.668-1.72-2.64l.887-1.344M279.84 229.166c-.78-.96-1.705-1.92-2.57-2.844.637-.318 1.075-.834 1.645-1.41 1.602 1.584 2.886 2.976 4.674 4.362-.823.27-2.413.396-3.05.336l-.7-.444" fill="#9a3b26"/><path d="M414.035 209.408c-.132-.678-.294-1.326-.402-1.848 5.4-10.854 8.256-22.458 10.536-34.446.245-1.206.425-2.61.803-3.69 2.868 2.088.792 4.83.876 7.572-1.177 5.154-2.035 10.194-4.045 14.79-.246 1.218-1.254 2.742-1.38 3.702-2.34 4.368-3.33 9.36-5.916 13.524l-.475.396M418.397 126.758c.81.372 1.662.822 2.478 1.332l-.084-.876.175.024c-.204-.636.066-1.56-.984-1.644-.707-.63-1.727-1.008-2.62-1.452-.103.492.113 1.02.413 1.476l.624 1.128" fill="#9a3b26"/><path d="M403.133 89.576c3.072 4.86 2.31 11.13 2.52 16.05 5.376-5.754 11.01-11.07 16.512-16.578.756-1.032 1.386-1.926.798-3.258l-.252-.192-.125.132c-.654-2.928-3.654-4.5-5.388-6.972-.96-.564-1.596-.432-2.55-.108-3.51 3.12-7.746 6.306-10.704 10.302l-.81.624M422.135 81.818c.486-.564 1.326-.87 1.56-1.644-.576-.876-1.536-1.44-2.304-2.142-.887.714-1.577 1.476-2.02 2.424.605.63 1.29 1.326 1.937 2.076l.828-.714" fill="#efe8c7"/><path d="M388.03 88.016c-.125.09-.25.186-.37.294-.067 0-.133-.072-.133-.192-.06.06-.06.12-.186.12l.007 1.218c1.848.552 4.578-.858 5.166 1.62-.51.258-.444.702-.564 1.146.707 1.584 2.16.174 3.437.294l2.43 1.71-.126.576c-2.153 1.404-4.05 3.582-5.945 5.304-.888.774-1.962 2.052-3.432 1.362-.51-.174 0-.564-.006-.888-.264-1.656.552-3.12-.216-4.704-1.59-.558-3.82-.678-5.987-.666-.186.834-.558 1.662-.558 2.298-.246 1.146-.366 2.298-.804 3.372l-5.027.036c-.69 1.596-.486 3.822-.54 5.472.384.318 1.278.636 1.722.318.642.504 2.358-.024 3.12.48.204 1.278-.486 3.132.474 3.882-9.613 9.864-19.993 19.476-29.347 29.598h-.384c-.463-2.67-.547-6.306-.823-8.778-.576-.372-.072-1.536-1.086-1.266-1.39 1.608-1.763 3.576-2.705 5.43-1.446 2.55-1.428 5.412-1.662 8.34-.18.906.456 1.782-.168 2.556-.498-7.698-.87-15.912-6.126-21.996-.517-.618-.775-1.134-1.603-1.254-.312.384-.564.834-.432 1.404 2.316 4.116 1.074 9.414-.168 13.62-.21-2.226-.096-4.386-.168-6.42.4-5.988-2.107-11.454-5.137-16.212-.576-.372-1.344-.804-1.968-.36-.384.384.192.888.126 1.392.487 6.306.41 13.434-.63 19.806.27 3.048 1.255 6.234 1.837 9.15.072 1.278.462 2.418-.162 3.564-.444-.306-.834-1.008-1.278-1.38-1.098-2.286-3.216-4.374-4.5-6.726 1.32-2.43 2.382-4.98 3.516-7.464 2.1-9.246.438-20.496-3.054-29.394-.967-1.524-1.68-3.936-3.847-4.11-.57.258-.312.96-.438 1.272 2.646 5.97-1.452 12.036.816 18.33.103 6.048 1.993 12.588-.13 18.906-.193.126-.38.456-.697.324-2.304-1.512-2.832-4.242-2.526-6.606 1.512-2.298 2.514-4.914 2.688-7.584-.108-6.75.42-14.202-5.028-19.584-1.662-.75-2.82-2.718-4.602-2.952-.678 2.358-.978 5.286-.33 7.698 2.628 3.294 3.678 8.124 3.192 11.886l-2.1-1.584c-1.278-.174-2.478 1.104-3.3 1.932-.582-1.266-1.608-2.34-2.064-3.738.126-.57.438-1.146.882-1.404 1.554-5.802 3.684-11.358 1.608-17.52-.714-1.842 1.836-.588 2.4-1.734l.216-6.306c-1.657-.75-3.697-.798-5.287-1.23-.39-1.596.102-3.504-.03-5.154-1.788-.822-3.702-1.572-5.616-1.434.06-1.26-.27-2.598-.594-3.816-.006-.438-.648-1.194.054-1.452.45.558.132 1.014.708 1.452 2.034-.33 2.022-2.754 3.54-3.774 4.188-1.686 8.568-2.916 13.02-3.846 7.104-.852 14.394-2.154 20.952-2.238l.792.108c-.265.594-.397 1.218-.163 1.872 2.04.684 3.036-2.634 5.328-2.13.45.246.492-.18 1.602.456 1.206-.024-.126 1.182.834 1.614 1.405.378 2.287-1.098 3.427-1.542.636.372 1.464.246 2.04.69 4.014.48 7.338 2.496 11.166 3.36 8.322 3.942 17.136 6.906 24.714 12.492l.246.684" fill="#b3995d"/><path d="M390.953 86.078C380.25 76.88 366.587 71.012 352.96 68.48l-2.657 2.118c2.364 1.254 5.292.984 7.59 2.37 8.862 2.358 16.974 6.576 25.152 10.722 1.602.87 3.948 2.616 5.526 3.738l2.383-1.356" fill="#9a3b26"/><path d="M382.313 242.384c2.532 1.89 4.962 3.972 8.334 4.02.126-.06.444-.186.444-.444-.45-.186.06-.318-.257-.576l-2.526-6.468c-1.782.402-3.462 1.83-5.214 2.826l-.78.642" fill="#1691ff"/><path d="M381.49 241.79c-.28-.204-.57-.402-.863-.576l1.182-.996c1.865-.924 3.557-2.202 5.34-3.27.317.384.45.834.707 1.278-1.68 1.194-3.564 2.13-5.118 3.222l-1.25.342M367.175 247.19l-.078.612c-.174.288-.294.678-.372.984-3.048 1.23-5.91 1.824-9.084 2.67-4.895 1.302-10.625.834-15.46 1.5-2.923.024-6.8.552-9.733.06l2.4-2.112c3.948.426 7.572-.234 11.586-.396 7.146-.906 13.53-.378 19.986-3.108l.755-.21" fill="#9a3b26"/><path d="M389.375 186.536c-.258.114-.516.246-.834.246-3.18-.108-5.26 2.952-6.84 5.07-2.393 4.224-3.25 9.12-6.6 12.834-.58-1.338-1.86-2.4-2.063-3.996 1.836-1.476 3.036-3.456 4.23-5.364 4.038-5.7 2.46-13.266 2.928-19.95.618-2.808 1.044-5.742.198-8.4-.252-.33-.132-1.092-.828-.894.066.39-.444.576-.57.906-8.238 5.964-4.602 16.956-8.178 25.122-.942 1.926-.546 4.008-.978 5.988-1.22-1.452-2.57-2.916-3.98-4.242l-.065-.558 2.838-4.68c1.632-3.054 2.694-6.762 3.816-10.02.917-5.598 3.623-10.71 3.52-16.368-.46-2.358-.22-5.028-2.207-6.798-1.002 2.298-2.58 3.894-4.416 5.694-4.488 3.972-7.386 9.786-4.92 15.942l-.252.702c-.318-.06-.384-.564-.768-.378-2.67.402-3.984 3.588-4.482 6.012-1.152-1.134-1.542-2.658-1.614-4.122 2.713-3.456 4.153-7.164 3.937-11.742-.414-4.902-1.974-9.786-2.706-14.874 5-4.044 8.605-8.142 13.093-12.876l19.11-18.33c3.222-3.27 6.516-6.282 9.924-9.366-.678 2.556-1.362 4.986-1.662 7.782.012 1.842 1.416 3.426 1.752 5.274-1.5 3.762-1.92 8.028-.366 11.898-1.32 3-1.74 6.642-1.337 10.008-2.334 3.198-1.29 7.332-.372 11.016-1.895 3-1.163 7.518-.185 10.884-1.452 2.298-2.964 4.734-2.82 7.536.078 1.896 2.442 3.54.864 5.4-.5 1.464.46 2.73.473 3.996-.828.66-1.2 1.794-1.128 2.754.006 1.02.9 1.968.588 2.862-.948 1.02-.618 2.544-.102 3.69-.317.258-.76.762-.88 1.278-.127.888.07 1.908.78 2.604-.18 1.518-.115 2.424.15 3.888.383.504.953-.198 1.145-.588-.198-.762.942-1.218.432-1.908.438-1.218.48-3.06.474-4.266.757-1.35.68-3.126.607-4.596l.258.258.444-.516.09-5.214.443-.126c.378-.588.822-1.278.816-1.854.69-1.848.93-4.206.66-6.174l.635-.576c.24-2.364 1.374-3.582 1.11-6-.138-.948-.144-1.65-.462-2.412-.264-1.338-.912-2.604.546-3.636l-.127-.126c1.386-2.112.918-4.266 1.032-6.306.762-1.02.876-2.61 1.122-3.762-.516-1.206.882-1.65.558-2.868 3.288-3.462 2.682-8.16 2.214-12.294 2.52-3.714 1.41-8.286.81-12.294 1.69-4.02 2.357-8.286 1.955-13.056-.198-.702-.588-1.464-.654-2.04 1.8 2.286 3.09 5.076 4.255 7.746l-.192.246c-.126-.186-.318-.114-.51-.114-.444.186-.06.702-.312.888.517 1.206 1.795 2.088 3.007 2.406.096.552.33 1.242.648 1.86l.258.948c-.666-.198-1.326-.456-1.848-.828-.252-.132-.636-.258-1.014.126.02 3.06 3.457 2.85 5 5.322 2.915 8.13 3.48 17.028 3.665 26.004l-.636.012c-1.01 1.596.72 2.988 1.613 4.182-.372.39.324 1.464-.564 1.278-.06-.06-.127-.126-.127-.186-.702-.246-1.53-.564-2.034.198-.307 2.238 1.99 3.624 2.645 5.592-2.268 13.308-5.238 26.646-11.082 38.574l-.708-.876c-.252-.258-.768-.444-.894-.39-.39 1.176-.49 2.262-.443 3.342l-.87.48c-.024-.114-.042-.246-.06-.36l-.45-.636c-.768-.702-1.212.186-1.716.576-.695-.246.5-1.398-.7-1.266-1.903 1.734-3.925 3.972-4.417 6.528.27 2.226-1.176 4.836-2.25 6.69-.93-6.366 4.962-10.908 2.628-16.884-.647-1.842-1.037-3.168-1.745-4.89-.324-.576-.264-1.524-.906-1.71.15 3.618-1.927 7.206-4.07 10.338-.875 2.166-2.135 4.146-3.077 6.312l-.198-.432c-.3-7.068.018-17.25 1.182-24.588.048-1.968.036-3.762-.606-5.214-1.187.684-2.225 1.488-3.113 2.418l-1.512.246M345.917 174.872c-1.314-.078-2.616.45-3.72 1.056-2.22 1.29-.552 3.186-.48 4.908-1.272-.3-2.994-.102-4.584-.606-1.848-.306-3.636-.798-5.604-.912.497-.966 1.51-1.536 2.075-2.442l.3-.726c.948-.516 1.284-.678 2.046-1.32 2.275-2.244 6.42-1.188 8.84-.942.353.036.63.282.94.48l.187.504" fill="#b3995d"/><path d="M369.64 234.782c2.053-.6 4.13-1.278 6.343-1.512.456 1.266.144 2.352.024 3.75-2.16.27-4.266.036-6.492-.21l-.054-.588.18-1.44" fill="#9a3b26"/><path d="M307.78 129.602c-1.41-3.594-3.34-6.78-5.987-9.804-2.094.9-4.056 2.952-6.15 3.984-8.13 2.226-14.79-3.414-23.052-1.95-.57-.312-1.14.204-1.463-.444.564-1.206 2.148-2.364 3.282-3.324.827-.708 1.973-.516 2.86-1.032-2.5-3.168-2.597-7.878-6.497-9.96-.12-.564-.636-1.2-.318-1.716.378-.444 1.074-.582 1.578-.324 6.18.726 8.514 7.452 13.626 9.972 2.423.552 5.027.15 7.325.774 2.55.3 4.722 2.142 7.458 1.416-.972-2.532-2.904-5.766-6.024-6-3.637-1.068-7.77-1.614-11.593-1.65-.126-.318-.954-.306-1.464-.504-3.444-1.242-6.54-3.93-9.036-6.87l-1.086.972c-.623 1.08-1.613 2.1-2.183 3.234-3.654 5.31-7.632 10.692-9.504 16.806.204 1.842 1.554 3.552 1.056 5.274-.39-.504-1.28-.624-1.603-1.38l-1.008 1.59c.707 1.206 1.223 2.412 1.17 3.936-.253.258-.505.576-.89.462l-1.15-.822-.505.576c-1.182 4.146-3.102 13.194-3.102 13.194-1.014 10.38-1.008 20.694 1.596 30.348.527 2.418.857 4.458 1.067 6.996 1.026 1.08 3 1.446 3.072 3.096-.63.774-1.525.588-2.353.654.006.762.396 1.458.078 2.226 1.536 1.2 3.45 1.632 4.608 3.156.384.702-.504 1.08-1.014 1.404h-.697c.264 1.41 1.356 2.862 1.746 4.194 3.67 7.176 7.793 14.406 12.863 20.676l4.104-4.362 20.484-21.138c.29-.246 0-.39.32-.702.76-.072 1.21.558 1.847.69-.198-1.266-.72-3.174.228-4.452 4.116-3.6 8.1-7.5 12.084-11.418-.835-.63-1.73-1.062-2.305-1.824.696-.648 1.65-.966 2.286-1.476-1.847.066-4.133.852-5.987.222-1.59-.624-2.61-.552-4.146-1.314-.444.198-.762-.306-1.02-.492v-.444c1.14-.33 1.962-1.29 3.108-1.734-2.43-.954-5.682-2.262-5.574-5.454-.257-.558.38-.702.697-.828 2.418-.144 5.868 2.058 8.592.396 3.88-.912 9.167-.186 12.84-3.138-4.897.348-9.787 2.61-14.437 2.508-3.126-.942-6.63-1.548-9.318-3.894-1.656-.552-3.318-1.818-4.284-3.024 4.117-3.528 8.473.714 13.177-.21 3.114-.588 5.52-3.024 8.58-2.658 3.366-.66 7.584 1.848 10.302-1.338-.51-.444-.65-1.266-1.22-1.524.12-.702-.713-1.392-1.097-1.896-.642-.834-1.476-1.782-2.496-1.956-1.332-.06-2.286.702-3.294 1.284-1.962 1.224-3.99 2.766-6.084 3.798-1.91.588-4.387 1.362-6.493.738-4.014-.984-8.16-2.166-11.046-5.274-1.54-2.022-2.507-4.308-4.05-6.276-.19-.504.313-.762.44-.954 1.523-.516 2.68.942 4.02.798 3.827 1.686 7.727 4.662 12.305 3.222 2.916-1.344 6.36-.666 9.216-2.214l-2.375-2.844c-2.478.714-4.188 2.25-6.792 2.646-5.718 1.884-9.258-4.14-15.234-2.508-1.273-.504-3.055-.432-4.34-1.242-1.655-.246-2.55-1.128-4.145-1.44-1.086-.564-2.232-1.572-2.556-2.79-.703-.306-.583-1.194-1.285-1.698l.126-.06c-.767-1.092-2.05-2.154-3.01-3.108.437-1.02 1.715-.456 2.543-.582 2.418.546 4.776 1.428 6.888 2.364 2.293.69 4.513-.09 7.003.972 2.424.438 4.722 1.692 6.768 3.27.835.432 1.915.432 2.875.678.06-.57-.582-1.074-.714-1.71-.197-1.146-.143-2.538.36-3.558 1.68-.282 3.715-.45 5.503.09l-.096-1.302" fill="#b3995d"/><path d="M367.89 246.932c.73.21 1.45.432 2.14.69-.377 1.02-1.457 1.668-2.537 1.734-.492-.48-.018-.888.114-1.332l.282-1.092M410.53 210.122c.073.366.15.726.223 1.104l.768-.072c-.083-.48-.15-.948-.203-1.416l-.708.552M271.6 97.67c.595.378 1.663 1.02 2.245 1.362.69-1.41 2.016-2.556 2.964-3.702-.637-.45-1.405-.762-2.107-1.14-.522.912-1.296 1.572-1.968 2.274L271.6 97.67M339.113 69.944c.216-.384.468-.762.678-1.122.38-.576.95-1.032 1.195-1.596-3.246-.306-7.002-.564-11.076.072-7.82 1.122-15.2 2.262-22.31 4.908-.635.072-2.37.762-2.37.948 0 0-.287 2.064-.917 2.766 1.908-.456 3.876-1.416 5.91-1.884 6.666-2.202 12.84-2.382 19.902-3.564 2.508.108 5.37-.564 8.076-.516l.913-.012" fill="#9a3b26"/><path d="M291.953 79.826c.126-.132.264-.228.414-.258"/><path d="M290.88 84.722c-.163 1.758-.463 3.54-.607 5.298.324.69.456 1.452 1.032 2.028-.21-3.192 2.19-5.484 1.788-8.616-.252.072-.486.408-.726.666l-1.488.624" fill="#b3995d"/><path d="M346.51 65.336c-.815 1.782-2.97 3.012-4.23 4.608-1.27.516-1.9 1.734-3.173 2.19.054-2.166 1.758-4.086 3.534-5.508 1.14-.702 2.54-.9 3.87-1.29M353.267 66.44c.33 1.464-1.452 1.92-2.016 2.742-1.457.972-2.98 1.866-4.373 2.706-.072-.504.372-1.146.69-1.662 1.512-2.112 3.414-3.144 5.7-3.786M348.82 67.868l-2.105 2.382-1.56-.084s-.774-.048-1.602-.348l2.022-2.184c.9.144 2.1-.012 3.246.234M301.78 78.488c-.245.372-.437.888-.88 1.146-.72-2.856.725-5.916 3.13-7.59 1.927 2.34-1.625 4.206-2.25 6.444" fill="#9a3b26"/><path d="M275.53 74.642c1.033 1.656 3.007 2.202 4.225 3.6 1.224 1.452 3.264 2.904 3.282 5.004-.96-.174-1.788-.81-2.556-1.44-1.535-1.2-3.76-.684-5.17-2.262-.907-2.1-2.317-3.996-3.097-6.156 1.146.246 2.112 1.068 3.318 1.254" fill="#395839"/><path d="M300.18 76.076c-.505.63-.247 1.722-.817 2.292-.132-.504-.198-1.02-.33-1.524.45-.138.636-.768 1.146-.768M305.4 85.904c.01 2.04-.493 3.504.03 5.358 1.847.234 3.82.294 5.29 1.23l-.215 5.472c-.51.516-1.404.072-1.974.396-.905-2.598-2.513-4.758-4.115-6.972-.384 0-.702-.444-1.086-.114-1.19 3.114.803 6.348.065 9.606-.306 2.286-.804 4.452-.408 6.552-.636.072-1.584-.102-2.412-.234 2.826-6.072 3.336-14.604-.768-20.496.18-.69.174-1.524.618-2.154 1.782.102 3.438.534 4.974 1.356" fill="#9a3b26"/><path d="M280.205 88.238l-.822.888-2.754-2.388.125-.072c1.086.636 2.172 1.254 3.45 1.572" fill="#1691ff"/><path d="M395.357 87.818c-2.412 1.53-4.704 1.488-7.248 1.194h-.193c.246-.96 1.584-1.29 2.406-1.932 1.584-.774 3.432-.588 5.028.162l.007.576M282.953 89.936c-.252.318-.57.894-1.014.762l-2.113-1.314c.882-1.848 2.166.234 3.126.552M395.495 89.528c-1.146-.048-2.28 1.92-3.12.282.822-.72 2.034-.462 2.862-1.176-.258.072 0 .648.258.894" fill="#9a3b26"/><path d="M347.82 90.404l.04 5.862c1.14-.198 2.54.42 3.63.996.775.948.145 2.412.15 3.564-.63.888.145 3.3-1.89 2.742-1.145.078-1.973-.552-3.12-.294-.425 3.186-.34 6.552-1.337 9.492-1.65 1.218-3.756.408-5.73.162-1.782-.306-.462-2.472-.66-3.306.432-2.166-.03-4.578.276-7.008-1.47-.492-3.5.216-4.59-.852-.205-1.782.293-4.08.407-6.12 1.644-1.662 5.862 1.242 5.52-2.52.186-1.206-.018-2.79.546-4.008 2.298.624 4.464.54 6.756 1.29"/><path d="M401.165 110.126c-.078.156-.168.294-.318.378-.12.702-.756 1.086-1.326 1.59-11.957 11.346-24.677 23.148-35.55 34.74-1.835 1.788-3.54 3.582-5.567 5.19-1.17-3.684-1.2-8.076-4.398-10.536-.252 0-.444 0-.57.258.972 3.174-.786 6.36-.636 9.798.455 2.226-.8 4.464-.655 6.69l-1.266.774c2.19-5.742 1.133-11.334.01-17.19l.127-.576c10.68-11.076 21.252-21.072 32.196-31.902 4.74-4.428 9.486-9.48 14.484-13.968.03 4.842 2.526 8.802 4.08 12.906l-.612 1.848M402.173 101.726c-1.278-2.976-1.752-6.024-1.062-9.366 1.453 3.156 1.8 6.894 1.603 10.5l-.54-1.134" fill="#efe8c7"/><path d="M401.435 102.242c-1.116-2.874-1.836-5.928-1.338-9.306.192-.63.564-1.338 1.332-1.02.96.69.965 1.698 1.415 2.604.6 4.452 1.206 9.222-.162 13.746l-.57 2.34c-.144.258-.402.528-.558.774-.996 3.834-3.444 8.754-.492 12.492l.444.12c.132.186-.126.318-.054.444 1.152 1.77 1.866 3.612 2.766 5.52 1.103 3.108 2.267 6.222 3.94 9.138 2.01-4.146.967-8.214-.07-12.276-3.847-4.188-5.03-9.516-6.397-14.736.126-.186.114-.57.444-.57 1.158 3.432 2.076 7.056 3.504 10.416.96 1.644 2.305 3.108 3.27 4.746 1.25-3.504 2.18-7.392 1.71-11.34-.72-3.24-3.035-7.104-6.665-7.842.126-.198.378-.132.57-.132l.114-1.02c.413-5.28.57-10.824-1.37-15.714-.443-.504-.833-1.782-1.72-1.32-.757 1.332-2.347 1.662-2.845 3.198-.552 3.63.426 7.44 1.914 10.614.125.378 1.283 2.664 1.48 3.942l.127-.012c.252-.438-.006-1.2.246-1.524.06-.504.114-1.02.162-1.536l-1.2-1.746" fill="#773141"/><path d="M347.123 90.794c.39 1.65-.228 4.134.162 5.796.516.504 1.404.048 2.04.366l1.716.69c.145 1.71-.095 3.492-.66 5.226-1.457.45-3.437-.876-4.577.282-.168 3.366-.342 6.168-1.086 9.48-1.014.588-2.292-.048-3.306.156-.7-.132-1.47-.192-2.045-.696.426-3.432.402-6.546.384-9.924-1.087-.432-2.04-.114-3.187-.234l-1.146-.186c-.078-2.16-.084-4.068.408-5.862 1.842-.642 2.928.12 4.77-.468.816-1.662.36-3.762.792-5.544l5.736.918" fill="#9a3b26"/><path d="M286.277 91.952c-.96-.186-2.172-.432-3.192-.87.882-1.602 2.166.426 3.192.87" fill="#b3995d"/><path d="M397.853 90.476c.192.186.45.372.516.762-.89.516-1.97.444-2.99.588-1.02-.06-1.967.714-2.86.264 0-.312.31-.57.57-.828.635.258.695-.444 1.14-.576 1.27-.456 2.41-.528 3.623-.21M397.81 93.392c-.575.012-.96-.504-1.403-.75.57-.126 1.146-.126 1.59-.456-.192.33-.252.774-.186 1.206" fill="#9a3b26"/><path d="M296.1 96.326c.61.162 1.235.324 1.535.714.15 2.538-.354 4.266-.528 6.75-1.026-1.08-1.224-2.73-2.19-3.996-.228-1.242-.096-2.418.234-3.528l.95.06" fill="#b3995d"/><path d="M296.117 95.702c.456.084.954.396 1.452.306-.2-1.08-.65-1.956-.973-2.976-.456.804-.882 1.65-1.206 2.532l.727.138" fill="#9a3b26"/><path d="M289.175 97.916c1.296 3.174 3.666 5.838 5.028 9-3-.48-4.548-3.786-7.476-4.278-4.146-.798-8.604-1.344-12.312-3.48.564-1.278 1.962-2.238 2.844-3.258 3.827 1.056 7.907 2.226 11.915 2.016" fill="#b3995d"/><path d="M387.39 95.876l.443.45c.078 2.034-.102 3.312-.216 5.412.45.504 1.086.504 1.722.432-2.527 3.072-5.755 5.952-8.73 8.652l-.03-4.14c-1.53-.69-2.99.024-4.71-.54-.205-1.392-.085-3.174.22-4.638 1.4-.27 3.757.348 5.347-.174.624-1.842.678-3.822 1.236-5.604 1.782-.144 3.054.552 4.716.15M269.8 100.322c-1.817 2.07-3.137 3.288-3.815 4.614-3.534 4.476-5.538 9.456-7.734 14.496.39.894.65 1.968 1.165 2.862 2.436-7.266 7.122-13.188 12.402-20.592l-2.016-1.38" fill="#9a3b26"/><path d="M405.905 105.968c-.402.408-.654.912-.558 1.638 1.344.306 2.814 1.386 3.456 2.334l-2.538-2.976-.36-.996" fill="#d1b881"/><path d="M406.277 105.614c.672-.558 1.512-1.032 1.914-1.836h.193c3.336 4.614 5.976 9.504 8.556 14.388l.965 2.604c-3.816.396-3.396-4.242-5.316-6.27-1.813-2.652-3.577-5.508-5.905-7.866l-.408-1.02" fill="#9a3b26"/><path d="M303.125 108.578c.138 2.232 2.256 4.512.486 6.624-1.097-2.286-4.48-4.17-3.36-7.302.9.444 2.04.108 2.875.678" fill="#b3995d"/><path d="M258.065 120.08c.906 2.472 1.434 5.142 2.34 7.554-1.986-1.578-3.084-4.056-4.434-6.15-.323-.822.055-1.71.69-2.286.57-.012 1.273.306 1.405.882M422.14 125.126c-.06.258.193.648-.185.774-2.43-1.134-4.344-2.586-6.768-3.456-.39-.384-.9-.822-.966-1.392 3.247.03 6.373 1.158 7.92 4.074M256.007 126.524c.9 1.956 2.76 3.606 2.706 5.832-1.53-.372-3.132-2.202-3.588-3.738.258-.186-.318-.246-.318-.246-.198-1.392-1.734-2.73-.534-4.134 1.206.186 1.152 1.524 1.734 2.286" fill="#9a3b26"/><path d="M407.333 139.106c.45.564-.246 1.212.522 1.716.342 3.504.684 7.512-1.59 10.32-.324-1.464-.594-3.504-1.242-5.082-1.176-5.088-5.022-9.204-5.058-14.604.114-1.98.672-3.948 1.236-5.874 2.575 4.326 3.373 9.27 6.133 13.524" fill="#773141"/><path d="M424.613 133.13c-3.504.024-4.992-4.29-8.184-5.094-.32-.504-1.213-.882-1.027-1.524 3.63.864 7.848 2.88 9.21 6.618M256.295 131.798c-2.118 7.218-4.17 15.114-3.996 22.5-.163 4.524-.325 8.472.527 13.038.294 5.346 2.292 9.99 2.904 15.588-1.025-1.278-3.953-.924-3.395-3.102-1.566-6.036-1.278-11.196-2.016-17.172l.12-1.146.06.126s-.145-3.114-.09-4.452c.473-5.1-.39-11.46 1.48-17.004.607-3.576 1.735-7.02 2.917-10.392.324.69 1.032 1.194 1.482 2.016" fill="#9a3b26"/><path d="M423.923 135.314c1.56 4.956 1.284 11.25 2.652 16.146.018 2.484.54 5.214.048 7.572-.642-.894-2.04-.75-2.304-1.83-.36-6.42-.595-13.302-2.16-19.338-.145-2.154-1.045-3.948-1.567-5.976.774 1.464 3.888 1.056 3.33 3.426" fill="#9a3b26"/><path d="M306.85 134.336c.385-.054.895.06 1.597.12.828.306 1.974.624 2.298 1.584-.762-.132-1.02-.894-1.848-.882-1.47-.372-3.444-.81-4.776-.102-.257-.132-.13-.378-.13-.564.317.114.317-.258.443-.39.576.306 2.034-.078 2.418.234"/><path d="M405.383 152.294l-.318.324c.012 1.464.024 3.18-.48 4.584-.912-3.678-3.984-6.282-4.836-10.032-.21-2.988-.36-6.606.827-9.552 2.448 4.5 4.452 9.402 4.806 14.676" fill="#773141"/><path d="M337.47 153.368c-.763.576-.883 1.338-1.71 1.668-.835-.954-1.73-1.77-2.437-2.85.042-3.114 1.044-5.856 1.788-8.604l.44-1.848c.083 3.948 1.067 7.83 1.92 11.634" fill="#b3995d"/><path d="M249.24 153.158c-.9 1.734-1.13 3.504-1.495 5.496.642.378 1.278.636 1.854 1.14.137-2.358.305-4.584.36-6.954l-.72.318" fill="#1691ff"/><path d="M249.88 151.778c.03-1.23.055-2.484.09-3.762-1.265 1.332-2.723 2.868-3.03 4.794-1.44 3.444-.515 8.142-1.193 11.586-.75 2.298.156 5.028-.654 7.452-.504.966-1.326 2.112-2.532 2.31-.58-.888.89-.96 1.26-1.602.95-1.854 1.123-4.08.667-5.988l-1.14 1.404c-.312.384-.51-.174-.828-.246.887-.96 1.77-1.92 2.273-3.072-.012-1.968.924-4.266.66-5.544-1.896 1.926-4.89 1.56-7.302 2.472.385.504.71 1.266.59 1.974-3.685 1.86-1.05 5.538-1.795 8.598.138 1.08 1.47.624 2.112 1.254.006 1.092-1.398.27-1.968.66-.625 2.484-.733 5.352-.27 7.956.25.054.317-.258.57-.39.065.132.257.192.19.378l2.67-.39c.067.12.325.246.2.438-.89.384-1.975.27-2.863.594.066.576-.624 2.04.588 1.968.702.378 1.656 1.068 1.41 2.028.576.69 1.146-.27 1.848-.078.45.642-.12 1.146.012 1.776-1.146.834-1.638 2.556-3.108 1.866.15 3.69.618 6.81.642 10.572.57.312 1.397-.204 1.847.432-.318.576-.702.186-1.02.444-.624 1.914-1.44 3.774-1.23 6l1.14-.27c1.092.822.21 2.73.792 3.882 1.08-.576 2.213-1.476 2.777-2.628 1.266-.582.576 1.14 1.218 1.584.894.06.822-1.152 1.518-1.278.192.174.066.504.132.69.768.06.9 1.02 1.602 1.398.444-.132.504-.648.756-.96.258-.072.384.186.576.246 0-.318-.007-1.08-.007-1.398-1.35-1.77 2.082-2.364.924-4.206.882-2.04-.276-3.762.09-5.862-.84-1.77-1.998-4.182-1.182-6.162 1.014-.126.96 1.584 1.218 1.71-.144-2.352 1.506-3.63 2.19-5.61.192-.318.51.054.642.174l-.18 2.106h.126c.763-.642.823-1.464.56-2.292.125-.132.25-.318.443-.258l.138-.576c-.09-.096-.18-.198-.27-.318.817-2.298-2.31-2.472-2.573-4.5-.384-.63-.33-1.908.558-2.166-1.626-5.274-1.212-10.17-1.818-15.456-1.092-1.77.978-5.286-1.818-5.91-.45-.372-.51.132-.83.33-.017-2.412.17-5.286 1.693-7.29l.882-.864" fill="#efe8c7"/><path d="M254.62 188.528c1.82 1.578 4.35 2.226 6.325 3.84.066.204.324.318.198.576-.444.642-1.338.33-1.908.27-1.728-.948-3.444-1.254-4.602-2.964-.042-.282.204-.66.198-.972l-.21-.75" fill="#9a3b26"/><path d="M343.84 164.15l-1.667-1.524c1.008-1.782-.024-3.936.474-5.916.36-3.12 1.422-5.988 1.656-9.174.864 5.214 1.032 11.646-.462 16.614" fill="#efe8c7"/><path d="M403.96 159.056c.013 1.908.09 4.062-.917 5.73-2.388-4.758-6.174-9.762-4.236-15.438-.066-.312.12-.96.498-1.272.858 3.936 4.818 6.714 4.656 10.98" fill="#773141"/><path d="M337.66 153.932c.073 1.404.59 2.544.727 3.948-.516-1.02-2.112-1.638-1.992-2.79.384-.312.888-.888 1.266-1.146" fill="#efe8c7"/><path d="M426.635 160.364c1.272.708 1.41 2.226 1.608 3.564.006.318-.372.762-.18 1.02-1.35-2.1-4.23-4.302-5.136-6.846l.126-.312c1.212.75 3.06.996 3.582 2.574" fill="#9a3b26"/><path d="M331.517 159.08c-.246.498-.882.828-1.134 1.332-.006-.444.504-1.146.432-1.836.384-.072.45.3.702.504M354.005 167.42c-.138-.138-.312-.282-.408-.396-1.464-.318-2.736.516-3.81 1.548-.438.762-.948 1.53-.876 2.484-.45-.954-1.41-1.902-1.99-2.922.37-1.968 2.333-3.444 2.64-5.298.63-1.332 1.187-3.054 2.71-3.828.56 3.09 1.987 5.04 2.083 8.364l-.348.048" fill="#b3995d"/><path d="M353.273 167.948c-.246-.21-.516-.396-.816-.222-1.08.126-2.16.96-2.538 1.98-.38.516-.12 1.146-.433 1.476.648 1.71 2.184 2.976 3.336 4.428.762-.762.438-1.722.81-2.742.612-1.428.81-2.832.774-4.23l-1.134-.69" fill="#1d5c42"/><path d="M402.347 165.11c-.876 2.298.726 4.458.552 6.87.07 1.65-.56 2.61-.805 4.146h-.126c-2.07-5.4-5.293-11.496-3.103-17.424 1.098 2.214 2.382 4.254 3.48 6.408" fill="#773141"/><path d="M248.465 161.96c-.12 1.02-.558 2.556.468 3.12 0 .498.516.816.582 1.26-.126.132-.252.318-.444.204-.323-.45-.52-1.152-1.03-1.464-.18 1.086-1.195 2.622-.103 3.444.258.57.582 1.206.456 1.836-.642-.372-.708-1.206-1.158-1.71-.126.39-.186.96-.564 1.152h-.19c.3-2.802 1.115-5.028 1.415-7.716l.252-.186c0 .132.192.06.318.06"/><path d="M426.665 165.392c-.198-1.32-2.364-1.698-1.74-3.294.708 1.08 2.556 2.016 1.74 3.294" fill="#9a3b26"/><path d="M305.555 170.126c-.072-1.086-2.298-1.008-3.198-2.082-1.146-.696-1.794-1.83-1.866-3.168 2.42-.456 4.34 1.188 6.883.714 1.968-.84 4.194-1.038 6.42-1.254-2.982 1.494-5.256 3.798-8.238 5.79" fill="#1d5c42"/><path d="M339.15 167.678c-5.6.036-9.457 3.75-14.545 5.19-2.16.588-4.83.786-7.062.492.762-.642 1.458-1.23 1.896-2.106.9-.702 3.005-1.698 3.005-1.698s5.214-.036 7.674-.54c2.345-1.29 4.955-2.004 7.3-3.354l1.73 2.016" fill="#efe8c7"/><path d="M401.207 176.258l-.252.186c.336 2.988.486 5.988-.774 8.544-1.355-2.988-3.155-5.838-3.94-9.084-.08-2.412 1.247-4.278 2.25-6.318.97 2.1 1.81 4.458 2.717 6.672" fill="#773141"/><path d="M352.097 171.032c-.888 1.146.84 2.352.402 3.444-.637-.318-.583-1.404-1.1-2.028-.19-.516-.137-1.596.697-1.416"/><path d="M315.125 173.69c1.212-.33 2.67-1.104 3.552-1.932-1.14.9-2.022 2.106-3.552 1.932" fill="#b3995d"/><path d="M244.985 174.722c-.186.888.078 2.1-.684 2.67-.13-.888.24-1.848.11-2.856.19-.258.57-.072.575.174M432.455 175.352c.072 1.278 1.29 2.226.918 3.564-.84-1.392-1.356-2.988-1.938-4.452.63-.258.768.576 1.02.888"/><path d="M333.347 176.468c-1.398.642-1.884 3.738-3.738 2.412l-1.4-.114c1.585-.834 3.42-1.77 5.137-2.298" fill="#efe8c7"/><path d="M246.533 177.944c.33 1.908-1.374 4.218 1.056 5.73.125.39.515.822.13 1.206-.635-.504-.833-1.392-1.41-2.028-.37 1.596-.425 2.934-1.44 4.278-.125.318-.51.132-.695 0 2.4-2.496.846-6.492 2.358-9.186M350.807 178.754c-.636-.06-1.716-.06-2.292-.246l-.006-.318c.767.186 1.655-.012 2.297.564M244.847 183.314c-.252.126-.318.312-.57.258-.006-.762-.27-2.286.618-2.556l-.048 2.298"/><path d="M258.803 185.888c.132.648-.57.516-.882.774-2.357-.432-5.543-.912-6.137-3.84-.066-.258-.132-.576-.072-.894l.45-.258c2.485.996 4.537 2.766 6.643 4.218" fill="#9a3b26"/><path d="M399.737 185.618c-.186 0-.312.258-.438.39l.01 2.04c-1.157-1.968-3.023-4.5-2.02-6.984.773 1.452 1.487 3.234 2.447 4.554" fill="#773141"/><path d="M362.933 183.38c-.564 1.08-.558 2.862-1.566 4.02l-.192-.384c.312-.444.564-1.152.75-1.782-.006-.648-.204-2.1 1.008-1.854"/><path d="M238.883 186.332c-.06.516.006 1.092.582 1.278l1.398-.138c.006.948-.882 1.35-1.512 1.98-.51 0-1.02.384-1.59.084-.455-1.152-.15-2.934-.287-4.458.576.378 1.152.564 1.41 1.254" fill="#9a3b26"/><path d="M429.395 184.094c-.444.576-1.008 1.41-1.776 1.608.25-.576.88-1.464 1.775-1.608M437.417 184.814c-.186.258.006.57-.312.516-.258-.45-.894-.708-1.026-1.152.57-.186 1.145.132 1.337.636"/><path d="M392.645 234.734c-.06-.186-.12-.378-.168-.552.054-.114.144-.234.234-.342l1.55-1.344c.473-.492 1.127-.894 1.32-1.326l.125.12c1.074-.954 1.83-2.112 2.712-3.45.924 3.414-2.868 4.14-4.95 5.886l-.822 1.008" fill="#9a3b26"/><path d="M393.917 234.416c1.296-1.11 2.994-1.944 4.206-2.94-.234 2.856-2.064 5.412-3.318 8.04-.54-1.116-1.308-2.52-1.872-3.972l.984-1.116" fill="#1691ff"/><path d="M389.567 228.662c-.354-.9-.756-1.794-1.218-2.598 1.84-1.032 3.87-2.382 4.62-4.62-.11 2.862-.29 4.842-1.29 7.326-.037.594-.577 1.008-.9 1.44l-1.213-1.536" fill="#b3995d"/><path d="M390.677 231.194c2.148-1.854 2.766-5.112 3.006-7.71.102-3.258-.234-6.492.888-9.624 1.56-5.106 5.995-9.078 6.66-14.55 1.675 4.254 3.367 9.654.403 13.8-2.13 5.112-1.134 11.724-4.92 16.2l-2.85 2.766-1.524 1.308c-.247.21-.427.54-.5.798.397 2.472 1.813 4.572 2.78 6.858.893.114.443-.894.887-1.278 2.586-3.774 4.08-8.556 3.798-12.882.48-4.464 4.722-8.178 4.5-13.074.498-1.98 2.202-3.516 3.534-5.052.935 7.698 1.757 16.02-1.765 23.238-1.944 4.794-5.676 8.25-8.322 12.654 1.038 3.048 3.162 6.096 4.77 9.144 5.088 9.012 11.19 17.496 15.384 26.82-1.14.27-2.856.846-3.294 2.25-7.77-10.512-14.334-21.492-21.024-32.46.317-.504.767.186.887-.57l-.444-.318c-3.048 1.674-7.566 2.028-10.446-.378-3.57-1.254-7.194-.336-10.764-1.524-3.318-.738-6.258-2.25-9.756-2.484-2.616-.936-5.238-2.058-7.032-4.662-.258-.504-.204-1.392.564-1.464 3.43-.6 5.927 1.86 9.49 1.278 3.307-.024 6.607-1.89 9.74-.258l3.695.738c3.834 2.964 7.74 5.868 12.642 5.904l.252-.444c-.913-2.67-1.945-5.274-3.175-7.806.066-.138-.96-1.65-1.284-2.286-1.42-2.928-4.41-2.718-6.9-3.396-1.397-.378-2.795-.048-4.14-.408-3.94.78-7.62 2.646-11.88 2.928-3.755.09-8.02.75-10.08-3.234-.39-.96-1.223-1.71-1.29-2.73 5.99 1.29 12.607.492 18.2-.822 1.98.492 4.2-.6 6.113.096 2.04.804 4.02 1.872 6.192 2.562 1.14-.384.114-1.404-.018-2.04-.576-1.26-1.602-2.28-2.31-3.42-3.486 2.124-8.646 1.266-12.396 1.668-5.04-1.866-10.277-4.326-16.127-3.072-1.398.198-3.114 1.098-4.26.078 1.392-1.272 1.95-3.312 4.104-3.324 2.988-1.29 6.18.396 9.366.318 3.306-.588 6.054 1.296 9.162.006l3.69-.78c1.086.432 1.728 1.566 2.748 1.812l.126-.114c.51.444 1.47.564 2.165.306.318-.33-.132-.762-.45-.894-2.352.516-3.642-1.626-4.92-2.964-.264-.888.69-1.404 1.134-1.98.317.258.575.822 1.21.504 1.525-.774 1.723.876 3.127.864.834 1.08 1.476 2.028 2.436 2.982.126.198.312-.06.438-.132-.257-1.134-1.47-2.088-2.177-2.85-.834-1.332-.528-3.372.42-4.578-.582-.576.492-1.218.816-1.596 1.26-1.158 2.92-.21 4.445-.864.012 2.166.978 4.392.804 6.432-.38 1.134-1.645 1.848-1.89 3.126.125.06.257.306.443.192 1.2-1.35 2.784-2.64 2.136-4.722-1.033-1.782.035-3.822-.8-5.604 2.69-7.464-2.405-18.132 5-24.096l1.583-1.476c.732 5.286-1.14 11.214-.912 16.758-.095 4.902-.305 10.44.29 15.33.21 3-1.237 5.928-3.71 7.602-.695.192-1.265.648-1.835 1.02.204 1.23.864 2.298 1.416 3.438l1.74 2.154" fill="#1d5c42"/><path d="M431.37 184.79c-.115 1.392.85 2.916-.29 3.876l-.023-3.876h.312"/><path d="M256.39 187.064l.27 2.022c-.893-.246-1.66-.804-2.17-1.566l-.013-1.152c.768-.126 1.218.636 1.914.696" fill="#9a3b26"/><path d="M399.01 191.492c-.06.186-.125-.516-.51-.33-.185.456-.053 1.35.013 1.92-1.158-1.836-2.958-4.638-1.254-6.864 1.157 1.38 1.87 3.354 1.75 5.274" fill="#773141"/><path d="M245.207 190.064c.264 1.518.978 2.844 1.62 4.11l-.318.39c-.96-1.266-1.417-2.922-1.873-4.5-.378.57-.498 1.71-1.392 1.53.63-.96 1.134-1.86 1.512-2.88.828.126.132.96.45 1.35M426.82 190.154c.637-.318 1.333-1.206 2.03-1.344-.313.702-1.135 1.476-2.03 1.344"/><path d="M305.85 197.54c.617.984 1.433 2.214 2.76 1.98 6.593-3.798 11.393-10.08 16.895-15.588.384.186.768.318 1.152.576 4.08.852 7.53 3.57 11.49 4.944 5.088.354 9.582-3.234 13.446-6.384 1.398-.318 2.364 1.32 3.258 2.214.073.504 1.285 1.062.205 1.452-1.218-.75-2.73.024-4.014-.222-.76.012-1.013.96-.88 1.536.455 2.058 1.775 3.828 3.43 5.178l-.827.552-2.112.432c-3.63-.234-7.33-1.608-10.9-2.67-.895-.564-1.98-.75-3-1.116-3.373-.174-7.135-.654-10.183.246-.252.702-.054 1.722.336 2.424 3.132 2.394 6.702 3.516 9.9 5.664 3.582 2.4 6.75-.108 10.176-.96l6.683-.168c.696-.066 1.59.06 2.292.306 2.166.456 4.38-.012 5.874-1.266l1.715 1.71c-.744-.336-1.668.024-2.688.036-1.206.318-3.054.198-4.194.6-.828.444-1.908.258-2.67.774-3.816.786-6.474 3.606-10.482 3.888-2.795.456-5.417-1.428-8.147-.084.144 2.358 1.806 3.81 3.474 5.262 2.43 1.716 6.306 1.176 8.592-.042l.125.054c.882-.606 1.758-1.218 2.802-1.512l-.306 1.422c-2.267 3.57-5.897 5.328-9.905 5.67-1.02.072-1.842.972-2.862.6.054-1.782.294-4.266-.294-5.862-.51-.174-1.147-.564-1.717-.234-1.716-.822-3.174.084-4.83.6.516.888.078 2.412-.042 3.558-1.583.774-3.18-.03-4.83.738-.06.762-.497 1.47-.305 2.16-.564 1.662-.294 3.702.036 5.166.51.504 1.147-.138 1.717.234.768.06 1.212-.126 1.782.12-.235 3.114-.403 5.976-.385 8.904 2.292.624 4.716.678 6.876.528.68-2.604.54-5.4.78-7.884l4.89-.99c.817-.9.295-2.94.42-4.014l.253-.318c2.292.492 4.584.036 6.744-.174-1.584 1.284-3.42 2.376-5.004 3.468l.45.96c.768.618 1.98.678 2.868.294l.127.126c1.146-.27 1.968-.846 3.114-.846-.437 1.14-1.643 1.596-2.08 2.748.647 1.518 2.675 1.002 4.013.924 2.412-.834 5.658-.984 8.016-.42 3.51 1.11 6.125 1.734 9.443 3.3-1.776.714-3.18.714-5.022.93-3.88.522-8.015.174-11.585-.624l-.258.246c.144 1.908 1.614 3.624 2.772 5.274 2.303 2.334 4.98 2.064 7.967 1.854 1.908.09 3.756-.294 5.592-.81l.143 1.11c-.048.342-.03.72 0 1.056 2.352.306 5.034.798 7.446.402.437-1.152.43-2.736.42-4.266.443-.708 1.337.054 1.907-.204 2.874 1.056 6.81-.234 8.046 3.516-2.16 1.35-4.056 2.826-6.276 4.044l.126.06c.102-.036.21-.072.312-.132l-1.092.12c-1.44-.81-2.994-1.362-4.83-1.29-2.49-.936-5.796-.15-8.274.246-4.07 1.23-7.273-2.052-11.083-1.08-.57.33-.888.834-.816 1.536 2.33 4.488 7.32 5.298 11.935 6.492l-.708.204c-2.412.84-4.89 1.626-7.482 2.07-7.632.492-15.714 1.62-23.16 1.866l-.444-.318c.565-1.092 1.387-2.106 1.375-3.444-.51-.258-.702-1.14-1.404-.822-1.71 1.278-2.585 3.576-4.42 4.608-.895-.378-1.915-.492-2.87-.738.757-1.41 3.93-2.442 2.45-4.41-.127-.198-.505 0-.63-.186-.57-.06-1.147 0-1.4.702-1.835.714-2.59 2.382-4.11 3.468-.19.258-.575-.126-.7-.246-10.267-1.836-19.273-6.888-28.22-12.102-1.403-.69-.137-1.596-.395-2.73-.966-1.722-2.298-.504-3.444-.438-1.013.774-1.72-.804-2.423-1.254.312-.444.762-.444 1.074-.888.187-.642.18-1.404-.137-2.1-1.854-.69-3.888-.42-5.61-.606-1.08-1.326-2.49-2.46-3.708-3.672l-.126.132-.775-1.134c3.042-3.012 6.522-5.91 9.294-9.096.15 3.492-.08 6.42-.055 9.924l.51.564c1.656-.33 4.074-.024 5.73-.468.612-2.628.534-4.914.96-7.596 1.206-1.086 3.246.048 4.776-.336l.08-7.716c-1.093-1.512-4.705 1.302-4.027-1.872 2.718-2.826 6.522-5.52 8.922-8.658.882-.894-.714-1.584-.846-2.406.15-.138.287-.27.42-.42l.593 1.02" fill="#b3995d"/><path d="M305.59 196.142c.205-.21.42-.42.703-.618-.198-.894-.972-1.968-1.74-2.73-.888.066-1.518 1.476-2.346.912-.9-1.092-1.164-2.73-.726-4.08 1.85.18 3.445 1.188 4.603 2.838.648 2.1 3.012 3.798 2.454 6.162.192-.012.318-.258.444-.384.115-2.616-1.87-4.326-2.777-6.48-.966-1.656-2.88-2.274-4.41-2.706 4.242-3.846 8.226-7.758 12.342-11.664 1.98 1.44 3.762 1.314 5.934 2.25-.193.192-.51.39-.57.702-.313.966-.055 1.782.84 2.358 1.655.234 3.31.42 4.72 1.23-4.05 4.428-8.285 8.85-12.653 12.69-1.518 1.092-2.718 2.442-4.566 2.322-.617-.33-1.157-.858-1.583-1.44l-.666-1.362" fill="#efe8c7"/><path d="M350.65 208.31c-1.54 3.816-5.86 5.82-9.73 6.276-.77.318-1.597.258-2.293.774.714 1.47 2.304 1.512 3.324 2.076 3.955.42 8.467.012 11.12-3.318 2.537-1.734 5.52-3.666 6.39-6.786-2.64.33-5.52 0-8.287-.054l-.522 1.032" fill="#1d5c42"/><path d="M330.725 162.332c.936.024 1.674.462 2.664.036.443-.258 1.14-.456 1.007-1.146-1.152-1.524-2.112-2.346-3.588-3.666l-.313.384c-.858 5.604-6.492 10.218-11.25 12.726-4.308 3.342-10.986 4.596-15.84 1.758 3.168-2.25 6.588-4.932 9.948-7.182 3.234-1.674 7.5-1.452 10.026-4.398-.76-.312-1.59.072-2.417.072-.378 0-.888.516-1.206.012l.06-.06c-3.558 1.164-7.308 1.962-11.184 2.43-1.914.012-3.054-.81-4.908-.984-3.258-1.128-6.198-3.024-9.012-5.298 2.658-2.172 6.36-.414 9.168.138 3.83 1.182 6.42-1.638 9.727-2.544 4.254-.726 9.366 1.47 12.72-1.17l-.126-.06.38-.516c-.65-2.028-2.383-4.242-4.177-5.694-.894-.186-1.914-.564-2.736-.048-5.016 2.394-9.618 7.956-15.816 5.004-3.63-.294-6.51-2.376-9.197-4.836-1.41-2.028-2.634-4.128-3.918-6.21l.444-.204c3.18.552 5.987 2.124 8.86 3.576 5.3 2.766 8.785-.564 13.177-.846 1.272-.27 3.114-.336 3.426-1.746l-2.31-2.658c-2.676-.048-4.566 2.388-7.242 2.718-3.803 1.428-7.445-1.83-10.763-2.754-3.498.012-6.942-.246-10.326-1.56-3.82-.492-5.057-4.542-7.367-7.074-.258-.45-1.02-.636-1.152-1.152 2.353-.582 4.273.798 6.313 1.434 2.232 1.32 5.166 1.242 7.776 1.344 4.39.168 6.833 4.278 11.16 4.512.82-.774 1.277.564 2.04.432 1.217.696 2.423.306 3.82.552.26-.012.445-.396.193-.582-2.04.138-4.14.09-5.742-1.68-.893-1.008-.515-2.286-.587-3.558 1.134-1.728 3.75-.528 5.526-.612 2.04.492 2.687 2.658 3.905 3.924.318 0 .258.378.576.06-.197-.762-1.09-1.134-1.41-1.896-.64-1.032-1.5-1.704-2.46-2.124l-.317-1.278c-1.122-3.96-3.636-7.404-6.096-10.674-.828-.306-1.332.702-2.094.846-4.296 5.424-11.628 3.444-17.238 2.142-3.576-1.758-7.194-.21-11.148-1.08.696-.888 1.962-1.908 2.976-2.754 1.398-.198 2.856-1.602 4.2-.594.312-.318-.072-.576-.198-.762 1.776-.834 3.81-1.434 5.724-1.314-2.107-.678-4.46.222-6.3 1.068-2.755-2.592-2.527-6.612-5.593-8.886-.642-.63-1.92-1.38-1.482-2.4 5.922-.048 8.508 6.306 12.984 9.21 2.237 1.38 5.16 1.104 7.835 1.404 2.868.492 5.484 1.746 8.352 1.926.702.114.954-.648.822-1.092-.907-2.154-2.19-4.314-4.177-5.694-2.292-.432-4.338-1.44-6.63-1.686-5.346.102-10.254-.822-14.034-4.362-1.603-1.512-3.265-3.294-4.873-5.124-1.086-.63-2.04-1.506-2.94-2.586-.132-.444-.774-.948-.39-1.398 2.55 1.512 4.986 3.27 7.602 4.524 2.357 1.008 5.1 1.188 7.59 2.064 4.007-.096 6.76 2.874 9.96 4.83l1.145.114c.444-.312.504-.702.504-1.146-1.675-3.036-3.733-5.826-5.215-8.94-2.868-.426-5.988-.342-8.604-1.278-4.715-.858-8.62-4.596-10.75-8.91-1.945-5.718-5.287-10.776-9.013-15.726l.126-.126c1.344 1.194 3.51 1.122 4.794 2.706 1.296 4.314 3.87 8.508 7.902 11.214.887.444 1.913.81 2.303 1.89 2.814 2.856 6.138 4.8 9.96 5.352.576 0 1.092 1.326 1.53.306-1.416-2.532-4.476-3.282-6.588-4.866 0 0-.258-.312-.444-.246l-6.575-2.88c-6.588-4.476-7.908-12.366-10.056-19.104.767.696 1.667 1.266 2.31 2.16.317.186-.253.816.317.432 3.012 2.85 2.406 7.428 5.478 10.404 2.046 2.088 4.908 2.076 7.464 3.072 1.085.888 2.495 2.088 4.02 1.572-.025-3.438-3.727-5.766-6.157-7.668-2.688-2.268-3.474-6.018-5.976-8.742-1.938-2.598-5.514-4.722-6.09-7.98l.984-.816c1.963 1.308 4.003 2.82 5.713 4.404 2.556 1.884 6 2.952 7.422 6.06 1.302 4.566 4.824 8.304 6.126 12.888 1.417 1.83.025 3.882.487 5.85.192.504.456 1.71 1.152 1.38-.193-.432-.325-.816-.577-1.134.102-3.306-.042-6.234-1.65-9.096-4.434-6.138-2.064-13.344-3.57-20.472-.192-.246-.192-.372-.006-.702 5.13 6.084 7.914 13.452 8.604 21.27 1.37 4.824-2.23 9.888 1.045 14.004.318.444.39 1.65 1.026 1.452-1.673-3.552.913-6.492 1.405-9.738.348-5.484-.396-11.658-2.97-16.476-.006-.636.822-.636 1.266-.456 3.715 2.718 5.647 6.714 6.697 10.968.39 1.782 1.23 3.69 1.11 5.79-1.17 4.524-3.822 8.046-5.454 12.312-1.248 3.462 1.632 5.664 2.472 8.466.258.498.006 1.074.264 1.392.99-4.392 2.417-9.69-.03-14.136.24-1.776 1.823-3.312 2.387-5.166 3.984 5.952 3.084 14.682.132 20.628-1.13 3.372 2.26 5.328 3.61 7.932l.83-.012c.63-.888 1.007-1.854 1-2.988-1.42-3.564-1.895-7.182-1.025-11.262.996-3.39-.936-6.366-.132-9.738 1.218.948 1.608 2.592 2.64 3.798 2.634 4.182 2.736 10.488 1.812 15.198-1.002 2.424-.534 5.412-2.496 7.464-.373 1.722 1.295 3.12 1.877 4.698l.57.246.162 4.656c.13 1.266 2.105 1.122 1.415 2.79.324.57 1.152.876 1.722.558-1.218-1.71-.54-4.71-.744-6.678l-.384-.318c.27 2.286-.415 4.464.617 6.426l-.192.198c-1.152-.576-.462-2.418-1.992-2.862-.012-1.452-.468-3.492-.156-4.77.372-1.146 1.71-1.536 2.658-1.98 4.596 1.746.48 5.346.948 8.334l.252-.012c.06-.378.312-.894.186-1.206 1.693-3.834 2.107-8.73.865-12.738-.144-3.366-4.23-5.442-2.916-9.144.113-1.074.04-2.298.545-3.258l3.006 2.274c5.887 4.488 5.49 12.318 5.725 18.678.276 3.504-1.554 6.378-3.054 9.318.013 2.73 1.05 5.718 3.6 6.714.83-.126-.197-.69.57-.948.99-4.146 1.915-8.856.805-13.242.09-5.598-1.794-11.448-.306-17.322.623-2.796-.733-5.142-.613-7.698.63.258 1.206.948 1.596 1.524 4.506 7.92 5.658 18.552 5.076 27.342-.163 4.452-2.3 8.094-4.13 11.802.84 2.214 2.953 3.924 4.05 6.078.77.822 1.165 2.604 2.755 2.346 1.374-3.906-1.068-7.194-1.092-10.89-1.164-3.492.528-7.77.63-11.07-.408-3.822.264-8.85-.648-12.024.252-.144.384.174.636.114 3.145 3.354 3.745 7.806 5.36 11.862-.09 5.286.707 10.698-.787 16.056-.744 2.742-1.812 5.742-1.794 8.34l6.03 6.846.317-.198c-.48-5.148-2.352-9.468-2.706-14.556-1.235-5.142 1.663-9.12 1.633-14.214.048-2.214-1.11-4.056-1.188-6.096 2.694 3.354 5.076 6.972 5.862 11.226 1.446 6.552 1.62 14.184-.438 20.754-.685 2.172.54 4.71-.595 6.75.834.702 1.152 1.206 2.052 2.028-.192.132-.06.378-.126.576.26.126.385-.132.445-.198 1.818-4.782 2.232-10.008 1.308-15.156-.264-1.146-.594-2.856.228-3.888h-.125c-.84-1.956.036-3.822-.042-6.168.936-3.054 2.064-6.054 3.828-8.61l.26.432c-.205 8.16 3.413 16.596 1.487 24.048-.54 4.338-2.688 8.238-4.632 12.198.516 1.14 1.536 2.16 2.316 3.036l.127-.126c.768 1.968 2.442 3.48 3.846 5.13.57 0 .762-.318 1.14-.642.552-2.874 1.554-5.544 1.284-8.286.036-4.254-3.426-8.184-1.542-12.456-.408-3.762.966-8.16.936-12.18.577.576.84 1.206 1.29 1.854 1.747 4.626 2.413 9.714 3.72 14.472 1.447 7.254 2.96 14.754-2.795 20.46.258.564.324 1.266.648 1.842.198 1.266 1.476 2.412 1.998 3.738.445.444.835 1.332 1.47 1.452-.005-.948-1.283-1.71-1.163-2.916.882-1.914.798-4.266 3.084-5.43.51-.126 1.273-.258 1.717.12-.552 2.298-.792 4.65-.654 7.008 1.476 2.154-1.884 3.186-1.236 5.154.75-1.848 2.652-3.066 2.064-5.286-.78-3.126.853-6.186.26-9.546-3.36-8.004 5.58-13.35 9.3-19.164 1.343 2.73 1.757 6.48 1.08 9.48-2.06 7.326-3.277 15.036-6.74 21.81-.81 2.166-2.837 3.9-3.143 6.198l3.912 4.488c.443-.126.767.576 1.145-.012.03-4.452 1.854-8.538 2.778-12.75.528-6.678.612-13.932 6.756-18.504.39 1.41.593 3.048.347 4.584-1.794 8.412 1.512 17.754-4.422 24.798-.948 1.338-1.698 3-3.156 3.774-.44.702.203 1.266.33 1.968.7.888 1.343 2.154 1.733 3.174 1.782-.27 2.214-2.052 3.102-3.324 2.952-5.382 3.852-14.232 11.808-14.982l.39.294c-2.406 3.144-3.336 7.266-2.736 11.496-2.268 3.834-5.874 7.104-10.134 8.028.384.306.198.948.264 1.452.774 1.266 1.548 2.862 2.634 3.738.9 1.716-.995 3.39-.287 5.1-.762-.372-1.404-.822-2.292-.822-.713-1.638-1.733-3.234-3.15-4.428-1.47-1.842-3.63-.552-5.28-.096-4.75 2.958-9.377 6.684-14.97 7.992-3.113.66-6.035 2.148-9.215 2.16-.318-.06-.768-.378-.702-.69 7.29-4.314 13.482-11.616 22.128-13.326 1.59-.258 3.373.048 4.705-.726-.258-1.08-1.158-1.842-1.542-2.85h-.45l.006.318c-3.11 1.806-6.93 1.83-10.62 2.298-3.3 1.032-7.393-1.29-10.43 1.206-2.47.972-5.46 1.5-8.147.492-1.53-1.194-4.146-2.58-3.78-4.806.702-.126 1.338-.198 2.028-.342 3.96 1.386 8.6.528 12.025-1.662 2.598-1.476 5.52-2.388 8.382-2.844 2.076.222 3.756-.774 5.91-.414l-2.16-2.448c-1.668.762-3.342 1.62-5.28 1.404-2.49-1.134-5.664.156-8.79-.396-3.498.222-6.594 3.234-9.978 1.662-3.073-1.956-6.33-3.396-9.457-5.094-.894-.576-1.92-1.458-1.8-2.604 1.014-1.092 3.114-.396 4.2-.6 5.724-.792 9.876 2.358 14.916 3.228 2.14.312 4.787 1.086 6.815.234l1.422-.366c.84.6 1.74 1.116 2.652 1.512.065-.114.125-.318.25-.444 1.14-.186 2.287-.012 3.44-.6l-.007-.246c-1.212-.504-2.544.588-4.008.414-3.06-1.008-5.436-4.116-5.904-7.224.955-.456 2.167-.468 3.313-.468 1.458.12 2.418.942 3.318 2.076.385.762 1.41 1.71.715 2.472-.834-.69-1.974-.996-3-.996 1.404.576 2.682 1.386 3.966 2.52 0-.06.06-.186.187-.12.192-.252-.192-.756.378-.828-.834-1.464-1.356-3.234-2.826-4.314.125-.258.317 0 .51 0-.26-.576-.265-1.596-1.093-1.596-.774-1.008-1.734-1.824-2.628-2.832-.703-.258-1.405-.636-2.167-.246-4.11 3.468-9.054 7.512-14.67 5.694-4.086-2.58-8.676-4.08-13.206-5.634-1.152-.318-2.424-.246-3.444-.882-.45-.69-.138-1.584.552-1.968 4.572-2.19 9.102.072 13.878.162 4.398.984 9.498 1.842 13.632.942.696-.462 2.16-.402 2.088-1.422-.822.39-1.71.702-2.538 1.092-1.53-.12-3.876.726-5.028-.21-.51-1.092-1.218-2.16-.912-3.438 1.074-1.404 2.724-2.25 4.572-1.872.066.126.324.258.198.432 1.398.444 2.61 1.326 3.702 2.406-.06-.132.126-.192.186-.318-.132-.504-.576-.636-.9-1.008-.828-.576-2.034-.762-2.424-1.656l-.77-1.014c-.365-.378-1.013-.648-1.53-.738-2.55.006-4.463-1.056-6.875.03-3.3 2.136-6.918 3.552-10.404 5.226-2.29.012-4.457-.15-6.617.612-3.126-.738-6.252-1.548-8.742-3.504 3.043-2.052 6.607-1.44 10.11-1.65 5.15-.738 9.457-3.75 14.287-5.382 1.206-.198 2.61-.138 3.756-.468-.516-1.08-1.476-1.956-2.316-2.976-1.974-.306-3.294 1.674-5.142 1.944-2.658 1.992-5.016 1.488-8.01 1.698-.57-.114-1.014.588-1.464.012l2.155-1.722c1.2-1.278 2.406-2.376 3.414-3.714.16-.372.347-.762.57-1.146l1.343.054" fill="#1d5c42"/><path d="M329.615 161.888c.612-.984 1.392-1.908 2.226-2.508.835.648 1.47 1.206 1.987 2.028l-.444.39c-.9.57-1.884-.024-2.748-.036l-1.02.126" fill="#efe8c7"/><path d="M251.405 193.13c.012 1.722.276 3.564-.864 4.842-.7-.936-1.03-2.604-1.163-3.552.252.318.384.762.768.894 1.458-.846.492-3 1.692-4.164.258.702-.312 1.35-.432 1.98" fill="#9a3b26"/><path d="M435.3 191.126c.257 1.008.9 1.968.845 2.988-.834-.312-.906-1.59-1.164-2.484-.065-.246-.005-.63.32-.504"/><path d="M259.24 193.976c2.653 6.984 6.71 13.452 10.5 19.794l.127-.132 3.858 5.394c.258.762-.948 1.278-1.392 1.908-6.798-8.412-12.018-18.126-15.648-28.158.894.186 1.722.876 2.556 1.194" fill="#9a3b26"/><path d="M397.96 195.944c-1.025-.936-1.733-2.4-1.235-3.996l.192-.072c.516 1.278 1.926 2.664 1.044 4.068M303.67 194.072l.697-.576 1.284 1.836c-.503.378-1.71 1.092-1.385 1.914.324.702 1.536 1.524.462 2.286-8.166 7.38-15.822 14.622-23.664 22.626-4.746 3.918-9.624 8.334-14.37 12.246-.522-1.71-1.362-3.294-1.5-5.142 2.598-2.052 4.488-4.992 7.278-6.918 8.407-9.738 18.277-18.96 27.187-28.698l.432-.234c1.33.444 2.25 2.004 3.575.66" fill="#773141"/><path d="M431.675 192.674c.132.762.336 1.908-.366 2.484l-.205-2.73c.186-.012.378.06.57.246M428.82 194.036c-.505.198-.823.702-1.393.516.504-.762 1.392-.966 2.022-1.536.515.246-.373.816-.63 1.02M247.14 203.15l-.253.198c-.456-1.722-.846-3.042-1.494-4.698-.636.186-.696.948-1.008 1.41l.078 2.598h-.192c-1.29-2.586 1.76-4.278 1.297-6.948-.876 2.754 1.554 4.71 1.572 7.44"/><path d="M397.793 199.322c-.576.066-1.152-.81-1.536-1.254-.39-.762-.204-1.854.234-2.556 1.22 1.02 1.67 2.154 1.303 3.81" fill="#773141"/><path d="M431.2 197.582c-.377 1.266.403 2.994-.42 4.008l-.19-.186c-.007-1.206-.277-3.06.61-3.822"/><path d="M397.42 200.912c-.317.444-.31 1.02-.437 1.464-.132-.69-.264-1.77-.21-2.598.636 0 .456.762.648 1.134" fill="#773141"/><path d="M428.74 201.158l-1.145.012c.57-.444 1.524-.528 2.028-1.29.384.636-.438 1.02-.882 1.278"/><path d="M385.83 210.476c-2.1.084-4.01.15-5.143 1.758-.318-.186-.324-.96-.834-1.02-.576-.822-.966-1.77-1.608-2.604.762-.516-.39-.816-.264-1.392 1.843-.516 3.937-1.428 5.395-2.892 1.392-.966 2.718-2.568 3.726-4.044.09 3.762.685 7.008-1.27 10.194" fill="#b3995d"/><path d="M246.15 207.356c-.067.072-.127.144-.253.144-.516-.444-.264-1.278-.84-1.596-.444.648-.816 1.596-1.452 1.926.816-1.596 2.208-3.144 1.812-5.172l.438-1.146c-.054 1.65-.864 4.074.294 5.844M430.6 203.186c0 .576.133 1.266-.245 1.854h-.318c.186-.576-.006-1.464.564-1.854"/><path d="M370.085 206.948c-1.776.456-4.008-.108-5.598.924-1.968.012-3.804 1.68-5.838 2.208.503-.894 1.385-1.794 1.38-2.748.827-.456 2.165-.078 3.18-.336 2.23-.012 4.133-.858 6.1-1.572l.775 1.524" fill="#b3995d"/><path d="M412.74 207.884l-.127.132c1.032 1.578 1.296 3.492.864 5.274-.06.258-.318.444-.57.324-1.032-2.094-.99-4.896-1.002-7.308.51.372.768 1.008.834 1.578M239.597 208.238l.276 3.618c1.404.12 2.67-1.344 3.486-2.508.39 1.08.905 2.286.023 3.318-.696.894-1.776 1.092-2.598 1.734-1.086 0-1.584 1.218-2.604 1.608-.263-2.16-.095-5.472.397-7.77.318 0 .696-.516 1.02-.012M296.903 210.032c1.272.174 2.478-.33 3.306.102l-.085 6.996c-1.584.528-3.822-1.17-4.896.612.077 2.028-.475 5.028-.78 7.326-1.783.138-3.5.21-5.155.222-.084-3.18.144-7.068.192-10.188l-.132-.126 6.834-6.54c.383.504-.373 1.476.713 1.596M434.093 212.27v.06c-1.212-1.14-1.8-2.85-2.316-4.446.774 1.464 3.834 2.652 2.316 4.386M336.425 209.528c.336 2.286.03 4.008.168 6.102.132.246.45.192.702.192 1.14-.648 1.278 1.062 2.298 1.38l1.146.306c-.115 1.59.27 2.928-.35 4.266-1.847.078-3.31.282-5.02.924-.115 2.556-.097 5.1-.397 7.698-1.908.27-3.756.024-5.736-.21-.33-2.61.09-6.114.39-9.036l-.258-.186-3.5-.108c-.395-2.226-.413-4.908.403-6.876 1.59-.144 2.988.162 4.452-.282l.252-.198.426-3.69c1.584-.966 3.18-.156 5.022-.282M409.5 208.856c.533 2.988 2.723 7.5-.51 9.75-.27-2.484-.097-5.352-.81-7.824-.39-.834.49-2.172 1.32-1.926" fill="#9a3b26"/><path d="M427.26 208.622c-.313.954-.625 2.04-1.573 2.556.372-.888.942-1.98 1.572-2.556"/><path d="M248.58 218.81c-1.267 1.53.15 3.876-1.117 5.28.192.258-.252.516-.312.834l.133.06c-.132 0-.192.072-.258.126-.132-.816-1.656-.69-1.158-1.824-1.722-1.71-.528-3.822-.732-5.922l-.318-.372c-.63 1.02-.048 2.544-.87 3.432.198 1.266-.942 2.298-1.062 3.576 1.086.114.756-1.536 1.386-2.166.325.558.84 1.65 1.165 2.526-.504.966-.432 2.1-.87 3.06l-.834-.762c-1.013.714-.497 2.112-.677 2.94-.888 1.092-.99 3.438-3.162 2.688-.25.138-.635.138-.82.456.13.948 1.08.06 1.517.246.702.114 1.272-.27 1.782-.588.125-.384.69-1.146 1.067-1.722.39.822.522 2.1 1.608 2.346-.372 1.908-.036 3.876-.408 5.856.264 1.596-2.526 2.556-2.262 4.41-.51.186-.054.762-.504 1.02-.455-1.584-.905-3.18-.917-4.962 1.386-1.344 2.772-3.324 2.004-5.496-1.08.402-1.2 1.734-2.346 1.866-.25-.378-.383-1.008-.96-1.008-.503.186-.245.762-.563 1.146-.456-1.02-.21-2.538.234-3.558 1.645-.774 1.38-3.072 2.455-4.29.114-1.152.876-2.358-.21-2.862-.396-1.968-.792-3.936-1.758-5.718-.702-.114-.888.516-1.266.972.115-1.086-.845-2.928.295-3.948l1.638-1.608.192.258c1.14-.642 2.478-1.17 3.234-2.19.515.948.84 2.226 1.037 3.432.192.192.636-.066.702-.384-.14-1.278-.847-2.604-1.11-4.008.76-.126.88-.96 1.133-1.464.912 2.916 1.056 5.658 2.922 8.322" fill="#efe8c7"/><path d="M248.945 216.77c.132.312.132.888.012 1.278-1.29-2.226-1.752-4.77-2.34-7.242.45.372.96 1.38 1.596.69l.444-.456.126.126.306-.576c-.36 1.914-1.11 4.08-.145 6.18" fill="#9a3b26"/><path d="M244.895 210.806c-.06.198-.126.384-.252.456v-.444l.252-.012" fill="#efe8c7"/><path d="M427.787 211.04c-.378.888-.882 1.722-1.512 2.484-.198-.948.876-1.914 1.512-2.484"/><path d="M374.58 213.23c-.89.06-1.783-.246-2.863.33-.252 0-.762.012-1.14.27-.186 1.134-.3 2.916-.42 4.452-1.908.138-3.882.024-5.592 1.05l.006 1.278c-3.047.462-5.35-.792-8.28-.654.637-.444 1.657-.456 2.287-1.158 2.598-1.218 4.95-2.64 7.356-4.188.888-.384 1.71-1.476 2.856-1.734 1.457-.828 2.47-1.602 4.193-1.17.51.63 1.152.876 1.596 1.524" fill="#b3995d"/><path d="M376.253 215.504c-.948.888-3.108 1.806-2.4 3.516.132.312.576.57.582.948-2.868.024-6.162 1.944-9.162.63-.198-.702.114-1.518 1.008-1.53 1.465-.012 3.055-.402 4.327-.084.882-1.734.366-2.802.672-4.596 1.53-.012 4.697-1.872 4.973 1.116" fill="#9a3b26"/><path d="M383.153 219.662h-.252c-.137-1.08.11-2.868.673-3.762-.12 1.092-.108 2.742-.42 3.762M425.28 216.908c-.895.33-1.97 1.218-2.863.588 0-.246.318-.132.444-.132v.132c.763.06 1.525-.648 2.42-.588"/><path d="M239.423 220.388c.39 1.782 1.164 3.306 1.434 5.16 1.08.492.198 1.836.144 2.73-.575.312-1.33 1.02-1.973.582-.012-2.484.096-5.028-.618-7.254.185-.57.503-.9 1.013-1.218" fill="#9a3b26"/><path d="M260.885 222.548l2.778 6.03c-1.65 1.152-3.426 2.184-4.752 3.72.007.312-.503.57-.12.888-.06.132-.25.132-.383.132-1.92-2.22-6.9-3.966-5.772-7.536.936-2.43 3.216-4.536 5.694-5.064 1.205-.138 1.853 1.008 2.555 1.83" fill="#773141"/><path d="M381.635 220.94c-.636.258-1.596-.564-2.484-.42l-.005-.444c.828.3 1.914.234 2.49.876"/><path d="M246.84 225.818c-.24 1.908-.8 4.464-1.615 6.57h-.192c-.834-1.332-1.224-2.79-1.17-4.38.702.432 1.398-.144 1.584-.774l.432-2.238c.443.06.575.576.96.822" fill="#9a3b26"/><path d="M278.11 228.356c-.185.504-.245 1.02-.563 1.524.006.648-.498 1.218-.432 1.794.264 1.08-.942 2.04-.552 2.988.72 3.174 5.19 5.508 3.366 9.024.005.762-.18 2.154.275 2.988-.51.69-1.02.132-1.53.258-1.836 1.476-1.188 3.258-.666 5.154.34 3.894-3.27 6.462-1.657 10.212-1.002 2.154.03 4.194.048 6.546-.377.708-1.523.834-1.583 1.794 1.098 2.73-1.422 5.226-.84 8.148-2.274 1.8 1.05 4.392-1.35 6.186-.06 1.08.138 2.154.018 3.114-.768-.63-.654-2.796-2.052-2.022.132.9.204 1.776.144 2.61-.378.186-.894-.564-1.272.012-.174 2.154 1.104 3.678 1.944 5.394l.57-.258c.137 1.014.395 2.094-.17 3.114l-.695.642.126.132c-.635.258-.64-.948-1.403-1.008-.702.06-.57.258-.888.834-.313.63.077 1.782.143 2.472-.318-.246-.702.012-.954.27-1.537-1.524 1.127-3.39-.6-4.584-.385-.126-.51.258-.895.132-.51-.822.054-1.716-.966-2.286 1.715-.258 2.273-2.112 2.65-3.45-.13-.828.18-1.662-.27-2.424.95-.702 1.513-1.98 2.083-3-.066-.258-.198-.63-.516-.702-.696 1.158-1.26 2.178-1.89 3.456-.636.132-.822.834-1.26 1.278-.138-1.134-1.092-1.896-1.416-2.988 1.333-.444 1.963-2.112 3.097-2.628 1.326-1.218 1.32-3.054 1.242-4.71-.967-1.392-1.97.774-3.115.846-.006-1.08 2.022-2.94.42-3.822-.828 0-1.014.834-1.71 1.164.06-1.02-.39-1.782-.78-2.616l-.438-.114c.564-1.092.42-2.556 1.878-3.144.126-.576 1.014-.948.69-1.596-.882-.174-.882 1.032-1.446 1.536l-1.075.774c-.204-1.464-.216-3.048.09-4.578-.012-2.1-.342-4.2.342-6.492.438-1.152 1.968-.774 2.274-1.998.06-.63.313-1.518.055-2.034-.702.138-1.398.84-2.16.594-.588-2.544 1.176-4.908.21-7.134 1.644-1.218 1.95-3 2.256-4.854.45 0 .583 1.266 1.153.564-.066-.69-.774-1.134-1.41-1.326-.51-.06-1.02-.306-1.278-.816.18-1.338.042-2.994 1.248-3.636.894.186 2.04.048 2.544-.714-.516-.948-1.032-2.154-.468-3.246 1.595 1.008 3.18-.27 4.643-.666 2.466-2.052 2.766-5.172 3.642-7.986.444.33 1.02.762 1.152 1.266" fill="#efe8c7"/><path d="M381.095 226.556c.966 1.134 1.548 2.4 2.124 3.666-1.34-.504-2.743-.81-3.83-1.818-.893-.186-1.72-.564-2.615-.678 1.338-.084 3.048-1.23 4.32-1.17" fill="#b3995d"/><path d="M374.675 227.738c-.636.126-1.272.33-2.034.138.57-.384 1.333-.012 2.035-.138M371.495 227.762c-.318.444-.894 0-1.404.258.32-.444.955-.132 1.405-.258" fill="#9a3b26"/><path d="M410.62 234.83l.133.114c-.636.198-2.04.15-2.544.972-.115 2.238 2.057 3.108 3.215 4.758.258.576 1.092 1.266.588 2.1-.51.504-.888 1.206-.756 1.782 1.41.816.78 2.094.468 3.246-.432 1.908-3.762-.492-2.724 2.046.45 1.08 2.43 1.458 1.867 2.85-.504.714-.432 1.98-1.386 2.178-.64-.63-1.41-.948-2.17-1.194-.637.576.07 1.464.455 2.028 1.032 1.842 1.872 4.134 1.632 6.036-.444.198-.894.198-1.272.528-3.156-5.394-6.564-10.782-9.714-16.242l-.33-1.266c2.46-4.092 6.067-7.488 7.945-11.826-.048 2.484-1.044 5.346-2.112 7.77.126.198.318.258.576.258 1.38-2.682 2.063-5.874 2.23-8.742l-.377.012c.504-.894.936-2.742 1.374-4.152.462 2.802 5.112 3.402 2.904 6.732" fill="#efe8c7"/><path d="M265.21 232.13c.457 1.152.913 2.544.92 3.624.443.246.45 1.134.58 1.71-.635-.12-1.53.012-1.72-.75-1.98-.492-4.087-1.818-5.623-3.21.558-2.172 3.036-3.012 4.68-4.362.768.702.84 1.968 1.164 2.988" fill="#773141"/><path d="M289.457 230.948c.39 1.02-.438 1.278-1.134 1.608-2.604.582-6.36 1.05-8.22-1.224-.132-.498.12-.888.312-1.146 2.736-.084 6.234-.738 8.85.198l.192.564M288.33 233.444c.323.444.893.504 1.025 1.008-.636.33-1.464.396-2.292.396-.258-.63-1.02-.63-1.47-1.134l2.862-.714c-.192.072-.06.318-.126.444M294.065 234.932c.138.894-.498 1.662-1.254 2.178-1.715.648-3.755.786-5.603-.09-.51-.318-1.026-.822-1.026-1.452 2.87.546 4.825-1.5 7.44-1.2l.445.564" fill="#9a3b26"/><path d="M263.717 237.302c-7.848 7.242-14.796 15.3-23.67 21.336-.444-.246-.39-.948-.39-1.524l1.134-1.908c5.18-5.892 10.56-10.956 15.937-16.524 1.074-1.158 2.016-2.556 2.646-4.032 1.41 1.008 2.94 1.698 4.344 2.652" fill="#773141"/><path d="M239.35 239.36c-.827-.186-.455-1.65-.395-2.154.57-.198.312-.96.69-1.35.198.39.774.894 1.404.636l1.14-1.032c-.115 1.536-1.19 3.444-2.84 3.9M426.305 237.98c-.648-1.146-1.608-1.908-2.88-1.71-1.524.456-2.982 1.356-4.44 2.064-.132-.504-.516-1.068-.456-1.584.7-.198.88-1.152 1.45-1.476 1.603 1.32 3.06.36 4.717-.024.384.318.768.69 1.398.564.444-.39.828-.648 1.14-1.152.006.948.084 2.664-.93 3.318M303.155 242.516c6.198 3.528 12.834 5.832 19.782 7.32-.696.894-1.842 1.032-2.406 1.998.06-.204-.197-.762-.575-.708-4.212-1.11-9.048-1.146-12.378-3.792l.126-.144c-1.464-.552-3.06-.924-4.404-1.806-3.955-1.824-7.61-5.166-11.63-7.242.823-.324 1.585-.582 2.22-1.29 2.815 2.532 6.2 3.774 9.265 5.664" fill="#9a3b26"/><path d="M243.55 239.138c-.125.198-.317.258-.57.198l-.455-1.206c.636-.444.708.636 1.026 1.008"/><path d="M426.245 238.67c.384.702.072 1.656-.114 2.358-.947.57-1.835 1.158-2.273 2.238-.258-.576-.834-.822-1.41-.822l-.126.138c-.065-.126 1.07-2.682-1.03-1.968-.127-.384-.193-.762-.577-1.02-.57-.126-.822.33-1.332.33 0-.126 0-.63-.13-.888 1.715-.906 3.227-1.992 5.273-1.89.696.318.894 1.278 1.722 1.524" fill="#efe8c7"/><path d="M241.553 245.198l-.246.96c-1.476-1.266-1.362-3.36-1.818-5.142.06-.444.12-1.02.63-1.152.203 1.914.533 3.624 1.433 5.334" fill="#9a3b26"/><path d="M406.067 239.372c-.306 1.722-.738 3.318-1.368 4.914h-.32c.63-1.596.553-3.438 1.31-4.914h.377M271.9 242.726c.085 2.658-.545 4.452-.78 7.122-.377.462-.63 1.092-1.2 1.35-.51.072-.635.072-1.085-.06.318-.516 1.59-.774 1.71-1.722.12-.834.306-1.662.24-2.424l-.828.576c-.126-.12-.126-.378-.318-.438 1.457-.9 1.637-2.55 1.565-3.96-.51-.186-.762.516-1.146-.306.12-.516.82-.258 1.14-.456l1.517-1.278c.39.762-.504 1.02-.816 1.596"/><path d="M421.87 241.31c-.053 1.722-2.027 1.662-2.723 2.88l.132.132-.385.198c.318-.774.432-2.298-.018-3.186-.072-1.08 1.146-.33 1.65-.846.006.642.774 1.278 1.344.822" fill="#9a3b26"/><path d="M274.457 243.848c.066.708.834 1.398.204 2.1l-.323-.69c-.636.432-.18 1.968-.942 2.154l-.192-.444c.114-1.842.678-3.504 1.11-5.154.708.444.072 1.332.144 2.034"/><path d="M421.21 247.742c-.52-1.266.175-2.616-1.043-3.552l1.584-1.158c-.88 1.722 3.08 3.606-.54 4.71" fill="#efe8c7"/><path d="M423.73 244.04l.703-.204c0 .318-.438 1.41-.942 2.04-.137-.948-1.41-1.578-.785-2.73.516.132.516.762 1.026.894" fill="#9a3b26"/><path d="M407.243 243.38c-.492 3.438.174 7.698-.888 10.95l-.444.006c.937-3.258.403-7.062.89-10.764.125-.132.25-.318.443-.192"/><path d="M419.855 245.024c.768.936-.174 2.916 1.296 3.42.38-.198.89-.456 1.14-.96l.32-.012c-.307 1.662-1.765 2.88-2.52 4.416-.27-2.298-2.323-4.44-1.38-6.864.323.504.76 0 1.145 0M329.915 246.356c-1.452 1.854-3.288 3.588-4.926 5.568-.955.39-1.843 1.29-3.055.786l-.576-.576c2.285-1.536 4.877-3.786 6.84-5.634.19-.132.887-.198.57-.588.383.132.827.132 1.145.444" fill="#9a3b26"/><path d="M305.483 247.79c-.63 1.074-.048 2.226-.87 3.186-.054 2.1.594 4.008.864 5.718.318.186.192.576.576.576.378-.648-.264-1.464-.396-2.172l-.33-1.836c.834 1.206 2.364 1.122 3.762 1.254.587 1.836-.043 3.75-.283 5.532-.12 1.59 1.674 2.856 1.05 4.638.27 2.226-1.314 4.08-.978 6.306.005 1.218 1.475 2.544.15 3.564l-1.147.138c-.444.702.198 1.278.33 1.968-1.41-1.392-1.044-3.75-2.64-5.13-.852-3.06-.36-6.048-.57-9.108l-.192-.186-.25.318c.077 2.292-.475 5.796.43 8.274.073 1.086-.81 2.034-.677 3.312.21 2.934-.792 5.1-.39 8.346.324.69 1.146.114 1.596.36.395 2.358 3.63.75 3.33 3.294.395 2.286-.103 4.326-.283 5.988-.39-1.662-.594-3.69-1.878-4.698-.313.444-.44.894-.373 1.464l-.156 5.532c-.197-1.008-.45-2.286-1.025-2.79-.45-.126-.828.39-.828.702-.672 4.152 3.36 7.878 2.112 12.012-.235 2.484-.6 4.974-2.25 6.894.005.384.005.702.005 1.02 0-.318-.384-1.14-.9-1.326-.438.636-.234 1.596-.552 2.298-.63 1.02-.558 2.298-1.38 3.186-.39-1.968-.474-4.452-1.248-6.606-.258-.258-.642-.504-.96-.258l-.438.456c-.714-2.04-1.248-5.532-.372-7.644.51-.444.312-1.392.624-1.968 2.213-2.25 3.6-4.734 4.343-7.674l-.384-.378c-.883.894-2.22.966-2.85 2.184-.33-1.524-1.23-3.18-2.893-3.996-.006-1.584.432-2.418.93-4.008 1.902-.846 4.122-2.196 5.004-4.23l-.257-.39c-1.65.66-3.3 1.674-5.214 1.314.245-1.338.69-1.596 2.153-1.92.636-.258 1.65-.402 2.028-1.29.06-.762.433-1.98-.335-2.418-1.326.774-2.604.462-4.128.732l-.258-.258.815-1.728c-2.238-1.452-1.044-3.864-1.506-6.03.383-.132 0-.636.443-.576-.516-.702-1.02-.69-1.41-1.398.12-1.272 1.38-3.126-.594-3.876-.205-1.71.36-2.802.347-4.452-.384-.702-1.212-.636-1.53-1.266l.24-2.166c2.796-.012 5.904-1.89 7.416-4.632.564-1.65 1.95-3.258 1.242-5.154.444.054.306-.462.63-.588.708.762 2.352.69 2.298 1.584" fill="#efe8c7"/><path d="M335.65 247.028c-.49 3.174-3.4 5.808-6.39 6.654-.317 0-.887-.06-.893-.432 1.716-1.032 3.426-1.932 4.626-3.672.756-.96 1.26-2.238 2.4-2.808l.258.258" fill="#9a3b26"/><path d="M301.853 247.496c.774 1.524-1.266 1.086-1.836 1.794-1.02.126-1.908-.048-2.616-.624-.317-.372-.45-.834-.39-1.278 1.783-.324 3.517 2.148 4.843.108" fill="#efe8c7"/><path d="M404.525 247.142c-.114 1.854-.354 3.834-.918 5.616-.126 0-.192.072-.186.126-.39-.702-.01-1.65.175-2.412l.678-3.318h.252"/><path d="M363.09 294.83c.323.36.785.714.947 1.026.318.45 1.02.492 1.338.108.504-.318.822-.702 1.524-.576-.11 2.742-3.6 4.476-2.63 7.266.32.318.96.822 1.53.444l1.585-1.734c.078 2.934-2.01 5.04-3.966 7.032-.985-4.452 1.15-8.79-1.23-13.098.023-.354.065-.684.143-1.008l.756.54" fill="#9a3b26"/><path d="M362.55 293.63c.083-.222.19-.42.323-.63l-.126-.06c.612-3.126 4.488-4.11 3.384-7.734-.45-.372-1.397-.174-1.973-.552.372-.9.876-1.722 1.128-2.61-.516-.894-1.464.066-2.166.198-.63.444-1.01 1.218-1.453 1.848-.396-2.856-1.5-6.348.84-8.598-.708-.882-2.802.468-2.304-1.572-.006-.96.306-1.908 1.134-2.298.948-.828-.204-1.59-.336-2.412-.587-2.028-.85-3.81-.73-6.174 1.007-.072 1.895-.714 2.4-1.536-.77-.444-2.1-.564-1.723-1.902l-.006-.384c1.213-.132 2.155-1.032 3.427-1.044.126-.114.318-.246.318-.444-.384-.432-1.722-.432-1.032-1.392l1.38-3.06c.96.63 1.23 2.472 2.754 2.274l.444-.39c.583 1.71.41 3.75.607 5.664.132.126.258.126.45.198.57-.456-.006-1.218.114-1.854.247-1.968-1.103-3.822-.16-5.472.18-1.464.55-3.06.545-4.464l.444-.444c.017 3.558 1.57 6.924.19 10.626.205 1.656 2.06 2.718 1.62 4.44.26.258.637-.054.703-.312 1.128-2.172-3.144-3.294-.93-5.532.054-1.98-.342-3.948-.48-5.73 1.794 2.028 1.302 5.082 3.672 6.786.132.516.702.762.708 1.332-1.194 2.112 1.614 3.366 2.004 5.274-.504.894-1.782.072-2.088 1.164-.127 1.074 1.283 2.214.143 3.102-.636.27-1.458.396-2.034.342-.445.384-1.273-.12-1.65.582.455 2.028 1.42 3.81 2.327 5.58-.312 1.092-.624 1.854.018 2.874-.258-.072-.51.126-.57.384 0 .186.126.504-.06.636-.192-.318-.642-.822-1.086-.564-.253.312.065.372-.06.69-.385-.378-.637-1.068-1.405-1.008l-.252.33c.462 2.154 1.74 3.924 3.024 5.706.258.246.384 0 .57-.072 1.038 2.16-1.236 4.152-1.098 6.492-.697.714-.817 1.278-.56 2.298-.113 1.464.41 3.822-.407 5.286h-.126c-.396-1.782-1.554-3.294-2.07-5.016-.192-.12-.324-.318-.576-.246-.377 1.02-.24 2.286-.107 3.306.522 1.848 1.236 3.618 2.076 5.274.25.126.31-.132.503-.192-.06.318.072 1.266-.114 2.04-1.153-1.086-1.033-2.61-1.993-3.75-.318-.126-.444.132-.696.33-.24 2.598 1.363 5.076.295 7.44-.69 1.152-2.214.972-3.102 1.992-.576-.576-.522-2.226-1.728-1.638l-.06.126c-.132-.258.186-.384.06-.702l-.192-.186c.882-1.218 1.962-1.806 2.142-3.132 1.074-1.158 1.128-3 1.428-4.476-.12-.246-.06-.762-.57-.69l-2.274 2.556c-.77-.306-.39-1.452-.337-2.1.372-2.094 3.168-3.198 2.256-5.61-1.02-.438-1.843.396-2.54.84-.52-.336-.81-.912-1.18-1.392l-1.07-.636" fill="#efe8c7"/><path d="M273.245 253.73c-.126.186-.378.258-.57.258-.642-1.02-.336-2.484-.276-3.576l.377-.444c.642 1.08-.366 2.61.468 3.762"/><path d="M330.263 250.94c-1.266.702-2.658 2.124-4.194 1.044l1.325-1.608c.96.192 1.848.564 2.868.564" fill="#9a3b26"/><path d="M302.91 253.214c-.247 1.854-.11 3.504.347 5.214-.702-.114-1.458.648-1.902 1.158-.258-.816.948-1.218 1.452-1.722-.132-1.332-.204-2.412-.342-3.63-.444.198-.504.516-.822.9-.132-.63.756-1.476 1.266-1.92M271.085 253.988l-.558 3.06c-1.272-.438.054-2.16.048-3.306.252-.072.318.114.51.246M404.897 255.044c-.066.054-.126.126-.252.126-.45-.63-.078-1.524.108-2.166.708.318.138 1.536.144 2.04"/><path d="M393.677 293.864c.972 2.184 0 4.794-1.092 6.774-.444.576.258.636.582.882 2.286-.144 2.142-2.874 3.852-3.906.893-.126 1.343.636 1.985 1.008 1.32-1.734-1.044-2.988-1.05-4.71-.066.06-.126.198-.258.132-.444.384-.882 1.404-1.836 1.158-.533-.282-1.17-.666-1.625-1.146l-.558-.192" fill="#9a3b26"/><path d="M393.587 293.126c0-.15-.036-.294-.162-.384 2.802-.342 3.03-3.714 4.548-5.58.06-.432.438-1.02.12-1.452-.258-.384-.834-.246-1.146-.132-.384.258-.57 1.164-1.14.846l-1.284-1.134c.378-.33.252-.834.378-1.152 2.67-.468 3.86-3.21 4.74-5.316-1.09-.942-2.027 1.416-2.615-.366-.318-.63-.324-1.392-.9-1.896-1.152-.504-2.412 1.602-2.802-.234 3.108-1.176 5.958-3.096 8.232-5.982 0-.57.438-1.074.12-1.65-1.218-1.392-2.346 1.218-3.558 1.674-1.392.576-2.466 1.734-3.738 2.382.245-1.722-.277-3.504 1.685-4.668.126-.444-.258-.816-.576-.816l-.57.012c.305-1.476.04-3.246 1.307-4.338.12-1.218-1.914-.762-1.29-2.1.312-1.59.81-3.312.48-4.896 3.084 4.62 5.79 9.378 8.874 14.004-.125.258-1.15-1.134-1.463.012-.18 1.524.66 3.12 1.494 4.44-.575-.306-1.15-1.134-1.92-1.194-1.71.9-.173 2.616.025 3.876.708.576.906 1.596 1.794 1.902-.055.834.263 1.722-.175 2.298-1.026-1.398-1.422-3.492-3.144-4.188-.437 1.224-.047 2.874.157 4.212.45 1.392.906 2.844 1.86 3.936-.75 1.452-.48 3.174-.216 4.77-1.47-1.512-1.99-3.492-3.023-5.262-.192-.06-.318.126-.444.258l.132.432-.576.258c-1.003 2.556.1 5.358 2.213 7.182-.06 1.08-.432 2.556-.996 3.702-.96-1.002-.906-2.538-1.872-3.546-1.014.066-1.134 1.278-2.022 1.464-.54-.282-1.038-.648-1.53-1.116l-.996-.246" fill="#efe8c7"/><path d="M271.673 257.162c.018 1.854.348 4.008.102 5.616-.252.258-.51.126-.576-.192l-.03-5.28c.19 0 .25-.204.503-.132M304.8 260.528l-.127.114c-.45-.75-.588-1.956-.462-2.844.385.69.2 1.836.59 2.73M374.89 261.536l-.185.444c-1.086-.492-1.284-1.71-1.608-2.718l.186-.456c.708.762.714 1.98 1.608 2.73M333.203 262.826l-.312.372c.77.576-.053 1.536.205 2.166-.876 2.358-.03 4.968-.714 7.584h-.45c.433-2.742-.16-6.048.84-8.85l-.13-.57-.57.702c-.193-.258-.45-.258-.325-.69l1.014-1.164c.317.06.25.45.443.45M303.233 264.734c.144 2.04-.096 4.524-1.104 6.306l-.253.012c-.132-.648.564-.906.69-1.476.048-1.974.798-4.008.15-5.85.324.174.324.69.516 1.008M368.74 264.884c-.365 2.988.29 5.922.44 9.096l-.57.012c-.02-2.874-1.13-6.366-.06-9.108h.19M271.733 265.634c-.564 1.668-.234 3.564-1.05 5.286.132.39.324 1.08-.438 1.152l-.192.006c.624-2.034.42-4.518 1.422-6.444h.258M370.355 268.25c-.432 2.67.54 4.836.426 7.44-.125-.06-.19.072-.25.072l-.193-.186c-.336-2.49-.99-5.16-.432-7.704.06-.312.378-.456.696-.456.32.318-.25.516-.245.834"/><path d="M400.98 269.96c-1.89 2.568-4.615 4.806-7.73 5.646.367-2.916 3.607-3.774 5.695-5.19l1.902-1.722c.51.318.072 1.02.132 1.266" fill="#9a3b26"/><path d="M269.47 270.242c.325 1.266-.557 2.412-1.253 3.114-.132-.504.564-1.392.684-2.166 0-.372.06-.948.57-.948M302.897 271.298c-.126.762-.564 1.464-.882 2.034-.318-.702.504-1.272.564-2.034h.317M303.03 272.174c.005.96.077 2.37-.427 3.132-.006-.894.18-2.04.3-3.12h.126"/><path d="M305.447 272.294c.966 1.722.792 4.134 2.898 5.016.33 1.896-.168 3.372-.666 5.094-.45.06-.57.636-.313 1.02l.192.186c-1.147.258-1.29-2.154-3-1.452-.09-3.552.593-6.36.635-9.864h.252" fill="#9a3b26"/><path d="M335.435 272.924c-.246 1.722-.552 3.636.732 5.028.258.126 0 .318-.126.444-.635-.246-.893-1.074-1.217-1.71-.264-1.338-.276-2.988.42-4.008l.192.246M328.56 273.158c-.565.588-1.267.972-1.897 1.422-.324-.504.312-.648.564-1.02.378-.258.954-.462 1.332-.402"/><path d="M264.803 277.388c.702-.126 1.272-.456 1.716-1.032-.187 1.224-1.58 2.628-.553 3.648.954-.144 1.776-.528 2.472-1.17.07.888-.05 2.292-.295 3.312-1.458.906-2.022 2.742-3.738 3.27-.15-3.822.276-7.068-.768-10.758.515.822.27 2.1 1.163 2.73M404.717 276.686c-.312.504-.438 1.02-.372 1.65-.9-1.26-2.178-2.658-1.872-4.38.96.63 2.172 1.71 2.244 2.73" fill="#9a3b26"/><path d="M339.593 276.332l-.186.33c-.576-.186-.834-.444-1.278-.888l.12-.378c.51.246.893.564 1.343.936M368.507 278l.57.06c-.552 2.868.486 6.492-1.788 8.538h-.26c1.513-2.55 1.37-5.61 1.477-8.412-.444.702-.432 2.04-1.386 1.98-.13-.504.44-1.02.56-1.584.57-1.158.233-2.424 1-3.252l-.173 2.67"/><path d="M396.58 279.032c.33.948 1.405.504 2.04.36-.75 1.794-2.01 3.576-3.977 4.176-.714-1.338-2.058-2.79-1.05-4.398.252-.444.378-1.134.306-1.59.635-.06 1.145-.39 1.715-.576l.966 2.028" fill="#9a3b26"/><path d="M370.427 280.34l.006.516c-.828-.444-.582-1.524-.78-2.412l.126-.588c.383.648.58 1.596.647 2.484"/><path d="M299.52 280.61c-.637.39-1.4.204-2.035.576-.642-.372.18-1.452-.27-2.154 1.272-.072 2.742.102 4.008-.6.834 1.338-.816 1.794-1.704 2.178" fill="#9a3b26"/><path d="M333.455 282.302c-.18 1.53-.678 2.868-1.56 4.02h-.384c-.005-.822.69-1.338.943-2.04.558-1.854.738-4.152.66-5.988.96 1.074.018 2.796.342 4.008"/><path d="M403.8 282.098l-.56 2.298c-1.283-1.77-1.62-3.936-1.757-6.162.768 1.338 1.29 2.73 2.316 3.864M375.023 281.972c.45 1.02-.684 2.166-.3 3.174-.834-1.38-2.112-2.532-2.442-4.11.385.114.703.69 1.02.444.127-.144.32-.258.253-.456.324.372.57-.132.888-.132.26.378.073.948.583 1.08" fill="#9a3b26"/><path d="M417.923 281.564c.258.444.33.96.774 1.332.954-.774.9.894 1.602 1.068 1.283 1.908 2.25 3.936 2.837 6.162-3-1.698-6.39-3.468-8.19-6.384-.384-.762.3-1.584 1.008-1.854.636-.114 1.2-.702 1.962-.324" fill="#1d5c42"/><path d="M364.145 282.674c-.126.948-1.644 2.112-.432 2.874l1.722.114c.522 2.028-1.062 3.444-2.454 4.464-.25 0-.635.576-.827.012.24-2.04-.408-3.762-.354-5.73 1.145.12 1.133-1.722 2.345-1.734M301.697 283.202c-.816 1.146-2.154 1.734-3.168 2.436-.38-.246-.89-.246-1.147-.69l-.006-.888c1.338.054 3.12-.084 4.32-.858" fill="#9a3b26"/><path d="M369.437 284.294c-.06 1.02.714 2.538-.168 3.186-.39-1.08-.27-1.908-.15-3.174l.317-.012"/><path d="M402.52 291.032c-.065.504-.25.876-.57 1.266-.827-.192-1.47-1.008-1.853-1.704-.906-1.776-.72-2.856-.606-4.896.33 2.04 1.933 3.612 3.03 5.334" fill="#9a3b26"/><path d="M302.993 286.436c-.372 1.92.276 3.444-.096 5.358h-.186c.055-1.02-.137-1.464-.27-2.418-.317.318-.18.954-.76.96.503-1.272.815-2.55.995-3.9h.318"/><path d="M396.51 287.048l.82-.894.007.702c-1.266 1.668-1.824 3.708-3.342 5.184h-.318c2.022-1.866-.726-3.954.66-6.12.768.246 1.158 1.71 2.172 1.128M266.79 289.412l.57-.576c.137 1.212.083 2.994-1.183 3.762-.258-.126-.576.258-.828.39.37-1.656-.277-3.75-.355-5.658.828.558.15 3.246 1.794 2.082M338.35 291.11c.08 2.298-.03 4.656-.785 6.564-.456-1.65-1.416-2.976-1.872-4.572.762.12 1.08.246 1.524-.384-.078-1.854-.852-3.624-.738-5.472.647 1.266 1.037 2.658 1.87 3.864M272.333 290.138c-1.008 1.092-.048 2.172-.36 3.378-.708-1.266-1.416-2.532-1.62-3.996.324-.072.576.246.828-.012.445-.39.445-1.08.44-1.524.515.63.84 1.452.713 2.154" fill="#9a3b26"/><path d="M332.663 287.84c.132.576-.114 1.338-.432 1.914-.51-.432-.005-1.338.115-1.914h.318"/><path d="M307.187 295.646l-.228 4.14h-.06c-.715-2.358-2.39-4.758-1.897-7.056.708.762-.102 2.298 1.164 2.73 1.08-.516.63-1.596.876-2.424l-.15-4.008c.648 2.04 1.938 4.698.294 6.618" fill="#9a3b26"/><path d="M269.22 291.11c.197.834.905 1.842.587 2.484-.696.204-.45-1.518-1.146-.888.32.258-.065.444-.125.702h-.318c.054-1.074.174-2.544.678-3.444.51.258.258.576.324 1.146M368.777 290.798c-.174 2.226.474 4.062-.024 5.988-.252.054-.318-.132-.51-.258.24-1.968-.024-3.75.216-5.73h.317"/><path d="M299.61 295.25l.383.258c.762-.648 1.518-1.536 2.346-1.866-.69 2.172-1.885 4.338-3.59 6l-.005-.114-.954-.132c.56-2.802.475-5.34-.365-8.016 1.02 1.08 2.178 2.274 2.184 3.87" fill="#9a3b26"/><path d="M332.705 293.576c-.066.126-.192.126-.318.126-.384-.444-.264-1.146-.138-1.65.635.246.197 1.074.455 1.524"/><path d="M266.26 296.48h1.087c-.564 1.596-.552 3.432.474 4.698.127-.06.32-.126.57-.126-.69 1.146-.617 2.292-.545 3.57 2.1.366.27 2.73.726 4.128-1.667-1.77-.6-4.512-2.14-6.414-.523-1.518 1.175-3.756-.733-5.022-.006-.762-.516-1.14-.012-1.842.126.372.192.762.576 1.008M372.227 302.102c-.654-1.896-1.614-3.618-1.884-5.718.774 1.842 1.74 3.738 1.884 5.718M270.833 304.028c-.264-.894-.402-2.346-.852-3.438-.005-.888-.647-1.896-.275-2.988 1.668 1.524 1.878 4.386 1.128 6.426" fill="#9a3b26"/><path d="M332.747 300.572c.33 1.908-1.248 3.51-1.878 4.662l-.45-.06c.25-.888 1.14-1.536 1.577-2.31.372-1.452.234-3.36.096-4.698.708.378.456 1.584.654 2.406"/><path d="M398.2 303.08c-.173 2.352-3.413 3.396-2.7 5.868l-2.033-.162c-1.092-1.464-.15-3.708-.612-5.418l-.516-1.464c.9.894 1.715-.324 2.67-.27 1.78-.582 1.433-5.286 3.743-2.436l-.552 3.882" fill="#efe8c7"/><path d="M301.643 304.4c-.51-.63.438-.948.564-1.59.12-.762.114-1.596.432-2.298.323 1.332.01 2.868-.997 3.888"/><path d="M270.263 305.174l-.69 1.02c-.258-.63.558-1.842-.714-2.028l-.127.132c-.192-.39-.198-1.212-.012-1.722.06-.762.38-1.02.565-1.728.642 1.338.21 2.934.978 4.326" fill="#efe8c7"/><path d="M330.15 302.318c-1.52 1.404-2.587 3.384-4.687 3.9-.516-1.14-.018-2.412-.024-3.69l.695-1.02c1.278 1.074 2.544.306 4.014.81M371.735 304.976h.252c-.618 2.73-.984 5.154-1.794 7.842.246-1.224-1.614-3.18.354-3.894.624-1.968.108-3.492-.036-5.544.325.576.523 1.656 1.225 1.596M328.487 311.234c-1.014.258-1.842.846-2.73 1.158-.96-.948-.078-2.412-.024-3.69.45.246.708.822 1.344 1.08 1.08-.084 2.034-.846 3.114-1.116l.127-.186c.006.888-.75 2.238-1.83 2.754M395.063 309.404l-.132.132.577.114c.132 1.02-.306 1.914-1.002 2.43-1.272.456-.708-1.008-1.158-1.512l.12-1.224c.636.06 1.086.318 1.596.06M299.58 310.016c.905 2.544.095 5.028 1.703 7.122.51.246.756-.396 1.008-.714.505-1.278.943-2.67 1.243-3.888.462 2.226-.792 4.332-1.092 6.558-.377.708-.563 1.728-1.39 2.052-2.31-2.976-1.76-6.738-2.36-10.428.445-.06.38-.69.89-.702M365.85 310.856c.13.204.45.39.575.258l-.126.132c.893.564 1.265-.846 2.033-.846.204 2.358-1.314 4.338-2.826 6.198h-.576c-.33-1.908-.34-4.452-.36-6.492l.703-.384c.192.258.45.888.576 1.134" fill="#9a3b26"/><path d="M370.007 313.694c.204 2.166-.222 4.722-1.23 6.702-1.02-.444-1.65.774-2.67.774-.324-.762.24-2.04-.906-2.286.12-1.392 1.135-2.094 2.017-3.198.948-1.206 1.77-2.802 1.692-4.392.515.63.395 1.782 1.097 2.4" fill="#efe8c7"/><path d="M326.945 318.944c.33 1.968 1.302 4.128.804 6.036-1.08.198-1.153-.624-1.22-1.452-.52-1.71-1.487-3.366-.99-5.406.697-.312.955.564 1.405.822M366.113 322.13c.252-.384.57-.324.828-.516l-.13-.054c.64.432.827-.588 1.397-.528-1.704 1.932-.15 5.73-3.078 6.582-.14-2.484-.29-5.472.077-8.028.45.762-.558 2.298.906 2.544M332.447 322.916l.378-.384c-2.082 2.952-1.038 6.948-2.61 10.206-.366 1.968-1.44 3.702-2.124 5.556-.263-.834-.27-2.172-.593-3.12-.396-2.226-1.614-4.572-1.194-7.182.252-.258.57-.516.696-.834.317.378.323 1.08.455 1.584-.114 1.404.144 2.61.72 3.69.51-.186 1.08-.774 1.266-1.29.877-2.73 2.125-6.246.583-9.162l-.012-1.146c.9.57 1.1 2.226 2.437 2.094M292.5 80.06c-.427.42-1.13.666-1.585 1.23.078.816.078 1.638.03 2.484l.912-.024c.324-.42.93-.66 1.356-1.14.018-.936 0-1.848-.054-2.766l-.66.216c.1-.12.19-.234.25-.378" fill="#9a3b26"/><path d="M195.923 353.87c2.656 0 4.742.103 6.26.312 1.517.19 2.845.53 3.983 1.024 3.642 1.593 5.88 4.43 6.715 8.507.342 1.67.513 5.026.513 10.072 0 4.23-.133 7.122-.4 8.678-.757 4.42-2.863 7.445-6.315 9.076-1.328.606-2.93 1.052-4.808 1.336-1.86.266-4.278.398-7.256.398-2.996 0-5.358-.15-7.084-.455-1.726-.323-3.215-.873-4.467-1.65-2.92-1.784-4.723-4.468-5.406-8.053-.284-1.498-.427-3.993-.427-7.483 0-6.525.342-11.01 1.025-13.457.948-3.396 3.442-5.805 7.482-7.227 1.973-.702 5.368-1.062 10.186-1.08m-.313 8.932c-2.447 0-4.097.18-4.95.54-1.176.475-1.926 1.357-2.248 2.647-.322 1.29-.484 4.01-.484 8.165 0 3.983.228 6.582.683 7.796.362.93 1.016 1.565 1.964 1.907.95.322 2.59.484 4.922.484 2.144 0 3.642-.19 4.496-.568.872-.38 1.527-1.12 1.963-2.22.512-1.29.768-4.087.768-8.393 0-2.676-.047-4.496-.142-5.464-.075-.986-.265-1.83-.568-2.532-.398-.93-1.034-1.546-1.906-1.85-.854-.322-2.352-.493-4.496-.512m33.147-8.65v14.71h3.13l10.015-14.71h12.518l-13.685 19.064 14.823 19.774h-12.774l-10.812-15.307h-3.215v15.307h-10.442v-38.837h10.442m40.06 0v29.903h16.33v8.934h-26.772v-38.837h10.442m43.048 32.15h-13.97l-1.878 6.687h-10.812l11.666-38.837h15.763l11.808 38.837h-10.584l-1.99-6.686m-2.078-7.54l-4.894-16.872-4.75 16.872h9.644m51.81-24.61v38.836h-10.44v-15.28H337.67v15.28h-10.44v-38.837h10.44v14.624h13.487v-14.624H361.6m23.7-.284c2.655 0 4.74.103 6.26.312 1.516.19 2.844.53 3.982 1.024 3.642 1.593 5.88 4.43 6.715 8.507.34 1.67.512 5.026.512 10.072 0 4.23-.134 7.122-.4 8.678-.758 4.42-2.864 7.445-6.316 9.076-1.328.606-2.93 1.052-4.808 1.336-1.86.266-4.278.398-7.256.398-2.997 0-5.358-.15-7.084-.455-1.726-.323-3.215-.873-4.467-1.65-2.922-1.784-4.724-4.468-5.407-8.053-.284-1.498-.427-3.993-.427-7.483 0-6.525.342-11.01 1.025-13.457.95-3.396 3.443-5.805 7.483-7.227 1.973-.702 5.368-1.062 10.186-1.08m-.314 8.932c-2.447 0-4.097.18-4.95.54-1.176.475-1.926 1.357-2.248 2.647-.323 1.29-.484 4.01-.484 8.165 0 3.983.228 6.582.683 7.796.36.93 1.015 1.565 1.963 1.907.95.322 2.59.484 4.922.484 2.144 0 3.642-.19 4.496-.568.872-.38 1.527-1.12 1.963-2.22.513-1.29.77-4.087.77-8.393 0-2.676-.048-4.496-.143-5.464-.076-.986-.266-1.83-.57-2.532-.397-.93-1.033-1.546-1.905-1.85-.854-.322-2.352-.493-4.496-.512m70.79-8.65v38.838H445.53v-11.637c.02-2.864.19-7.397.512-13.6l.256-4.524h-.34l-1.367 4.438-1.366 4.41-2.93 8.848-4.012 12.064h-8.99l-4.098-12.092c-2.01-5.975-3.936-11.865-5.776-17.67h-.34l.256 4.525c.38 6.487.58 11.02.598 13.6v11.637H407.69v-38.837h16.247l3.642 11.125c1.06 3.262 2.38 7.69 3.954 13.287h.398l.882-3.3c.91-3.453 1.85-6.763 2.817-9.93l3.53-11.182h16.615m29.42 32.15h-13.97l-1.88 6.687h-10.81l11.665-38.837h15.762l11.808 38.837h-10.584l-1.992-6.686m-2.077-7.54l-4.894-16.872-4.75 16.872h9.644" style="text-align:center;line-height:125%" font-size="58.27" text-anchor="middle" fill="#fff" font-family="Eurostile T Black"/></svg>