<svg xmlns="http://www.w3.org/2000/svg" width="750" height="450" version="1"><path d="M-2428.457 2316.886z"/><path d="M0 450h750V0H0v450z" fill="#002a86"/><path d="M330.9 118.75c-5.72.316-12.785 2.755-17.53 6.592.575 1.392 1.623 1.25 2.78.907l.344-.44c.81 0 1.85-.812 2.78-1.28.06-.09.138-.186.22-.25.023-.017.07-.047.094-.063.75-.448 2.144-.265 2.813-.906.153-.153.287-.358.344-.624 4.746-2.904 9.357-2.08 15.375-1.625v1.157c-4.05-.81-11.464-1.386-14.938 2.094 3.474 3 7.89 4.602 12.75 4.032l3.47-1.5c1.733 6.816 9.147 9.824 14.81 12.032.697-1.164 1.174-2.657 1.282-4.157-1.386-1.626-3.837-1.646-4.875-3.5 1.96.12 4.53 1.053 5.687 2.907.582 1.734-.025 3.472-1.063 4.75.433.534 1.298.556 1.78.28.017-.01.05-.02.064-.03l8.125-6.5c.027-.023.065-.045.094-.063.577-.335 1.41.104 1.625.75l.25-.218c2.658 3.36 6.94 4.282 9.72 7.282l-.345.468.062.094c-.578-.048-1.358-.8-2.032-1.125-2.778-2.423-6.128-3.713-8.906-6.155-2.43 3.012-5.816 4.055-8.594 6.72-5.436-.24-10.638-3.596-15.156-7.064-1.038-1.5-2.413-3.12-2.875-4.968-1.158-.12-2.217 1.043-3.375 1.157-4.398-.235-10.058-.593-13.53-4.75-3.24.575-6.72 5.324-9.845 1.28h-.563c-10.884 10.758-25.83 17.465-34.625 29.97 1.853 2.543 4.647-.924 6.843-1.626 3.012-2.544 7.764-3.934 10.656-7.75l.218-1.032-.03-.03-.032-.032c-.016-.01-.047-.022-.063-.03-.01-.007-.05-.027-.063-.033-.454-.2-1.217.028-1.624-.187-.01-.006-.022-.025-.032-.03l-.03-.033c-.02-.014-.048-.045-.063-.062-.003-.005-.027-.027-.03-.03-.004-.006-.03-.027-.032-.033-.006-.01-.026-.05-.03-.062-.004-.006 0-.025 0-.03-.006-.014-.03-.05-.032-.064-.006-.022.003-.07 0-.094-.007-.05-.032-.128-.032-.187 0-.03-.002-.06 0-.094.577-.863 1.723-.648 2.156-1.124.008-.01.024-.02.032-.03.003-.006.028-.027.03-.032.01-.016.024-.046.032-.063.006-.01.027-.05.03-.06.013-.033.025-.09.033-.126.002-.015-.002-.047 0-.063 3.702-2.2 8.222-4.196 11-7.436l4.97-4.157c.01.01.05.022.06.032.007.003.026.025.032.03.012.008.048.024.062.03.013.008.048.026.062.032.18.077.41.12.563.188.018.008.046.02.062.03.004.005.026.03.03.032.01.008.024.023.032.032.003.004.028.026.03.03.01.016.026.046.032.063.002.007 0 .025 0 .032.003.02 0 .07 0 .092-.005.05-.01.123-.03.188-5.67 4.29-9.615 9.365-16.095 11.687v1.375c1.505.348 2.786-1.24 4.406-1.593 3.125-1.97 6.02-4.408 9.375-5.908.235.456.458.82.344 1.282-1.158.702-1.853 1.262-3.125 1.718l-.344.344.187.22c-.053-.01-.107.002-.156 0-.078-.005-.18-.01-.25 0-.41.055-.712.288-1.063.468v.375l-.22-.25c-.923 1.62-2.878 2.206-4.498 3.124-1.16.348-2.12 1.26-3.157 1.5-.1-.196-.23-.298-.376-.375-.17-.087-.376-.152-.53-.22l-.063-.03c-.013-.01-.05-.024-.062-.033-.006-.004-.025-.026-.03-.03-.054-.046-.125-.116-.157-.188-.01-.027-.023-.066-.03-.095-1.764 5.742-8.13 6.668-12.282 10.125-.007.018-.025.044-.03.062-.163.59.29 1.564 1.06 1.782h1.876c4.632-3.132 9.696-6.716 14.094-10.532.555-.363 1.504-.818 2.03-.687.09.027.19.09.25.156.008.01.026.024.033.032.003.005-.002.027 0 .032 0 .01.002.052 0 .062-.002.014.004.05 0 .063-.003.012-.026.048-.03.06-.003.008.002.026 0 .032-.307.726-1.61.88-2.032 1.407-3.936 3.935-7.988 6.726-12.5 9.624-.006.032.002.064 0 .093-.002.06-.01.14 0 .188.006.024.022.072.03.094.008.013.025.048.033.06.01.014.023.05.032.064.004.006.026.025.03.03l.032.032c.218.21.594.302.875.438 5.093-.69 8.23-5.534 12.28-7.844 3.937-3.234 7.183-6.01 10.657-9.375.222.218.654.35.78.562.003.004 0 .028 0 .032.082.144.147.248.157.342v.094c0 .005-.03.027-.03.03-.002.005 0 .03 0 .033l-.032.06c-.022.034-.062.07-.094.095-.14.105-.367.195-.5.312-.006.006-.026.026-.03.032-.022.025-.05.06-.064.092 0 .005.002.028 0 .032-.002.008-.03.022-.03.03-.002.006 0 .027 0 .032v.093c.005.057.035.147.062.22-3.35 1.853-5.8 5.078-8.813 7.28-2.43 1.968-5.534 4.06-7.844 6.25 1.967 1.854 4.382-.927 6.812-.813.348-1.38 2.315-3.257 3.594-3.593l.343.468c-.81 1.044-1.856 2.086-2.438 3.25 1.278.348 2.773-.242 3.47-1.406 4.858-3.468 5.56-9.837 10.655-12.97.924 2.203-2.324 2.32-2.438 4.408-1.393 1.614-2.43 3.364-3.126 5.218l-.22-.25-1.748 2.313c.695.81 1.524 1.28 2.562 1.28 2.55-2.423 3.586-5.304 6.25-7.968.21.085.37.152.47.25.01.013.02.05.03.063.003.005.028.026.03.03.007.01.027.023.033.032.003.005-.002.027 0 .032.005.01.028.05.032.062 0 .006-.002.026 0 .03 0 .007-.002.027 0 .033 0 .005.03.024.03.03.017.124.005.285-.03.47-1.044 1.043-2.34 2.31-2.688 3.81 3.006 1.38 3.818-2.893 5.438-4.405.93-2.424 2.212-5.08 3.72-6.813.006.008.022.025.03.032.048.038.13.096.187.125.127.06.294.112.406.186.028.02.07.068.093.094.002.004.027.027.03.03.006.01.027.023.032.032.002.005-.003.027 0 .032.004.01.027.02.03.03.012.028.024.072.032.095.005.013-.003.048 0 .06.005.02.03.048.03.064.002.005 0 .026.002.03v.032c0 .004-.03.028-.032.03 0 .004.002.03 0 .033-.002 0-.03-.003-.03 0-.008.004-.024.026-.032.03-.006.002-.025-.002-.03 0-.055.013-.135.033-.19.062l-.03.032c-.003.003-.03.028-.03.03-.007.008-.028.024-.033.032-.003.005 0 .027 0 .03-.003.006 0 .027 0 .033-1.393 2.2-2.68 4.293-3.376 6.717.006.002.026-.002.03 0 .007.003.027-.002.033 0 .005.003.026.03.03.032.39.22.7.93 1.095 1.155.005.003.026-.003.03 0 .006.002.027.03.032.03.006.003.026 0 .03 0 .007.003.027 0 .033 0 .017.005.045.03.062.032h.092c.013 0 .05-.028.064-.03.006-.002.024 0 .03 0 .014-.005.05-.027.063-.032.006-.003.024.003.03 0 .06-.032.153-.1.22-.156.014-.015.047-.05.062-.064.046-.046.107-.127.156-.187.8-1.04 1.515-2.384 2.313-3.314.015.01.05.02.063.03l.03.033c.047.044.096.106.126.155l.03.062c.004.007.03.025.032.032.116.28.062.614.062.936v.063c-.002.023-.027.07-.03.092-.126.568-.827 1.093-1.063 1.594-.006.014-.025.05-.03.063-.006.013-.028.047-.032.06-.004.015.003.05 0 .064-.006.035-.032.09-.03.125 0 .013.028.047.03.06.002.015-.004.05 0 .064.004.014.026.048.03.062.007.014.025.05.033.063.087.147.236.314.5.467 1.507-.468 2.914-1.38 3.376-3 .15.084.273.195.343.313.003.006.027.025.03.03.013.026.022.07.032.095.316.94-1.044 2.62-1.03 3.344 0 .032-.01.095 0 .124.002.008.026.023.03.03.004.008.026.025.03.032.004.004-.002.028 0 .03l.032.033c.004 0 .028-.004.03 0 .01.004.024.025.033.03.004.002.026-.002.03 0 .006.002.027.03.032.03.004.003.025 0 .03 0 .27.074.792.007 1.657-.28.01-.004.022-.027.03-.03.083-.045.167-.116.22-.19.015-.02.05-.07.062-.093.094-.177.154-.41.25-.562.004-.007.026-.025.03-.03.06-.076.15-.136.25-.158.078-.01.2-.032.313 0 .14.06.236.163.313.25.026.033.075.09.093.125.037.08.056.194.062.282.007.225-.088.49-.22.687-.07.102-.162.213-.25.282 1.28 1.614 3.354 1.162 4.626 2.782.348-.576.683-1.143 1.03-1.72h.595v.032c.042.144.006.365.03.53.004.015-.003.05 0 .064.004.008.03.023.033.03.002.005-.003.03 0 .032.004.008.025.025.03.032l.032.03c.012.01.05.025.063.032-.013.01-.018.054-.03.063-.05.035-.118.083-.157.124-.25.274-.318.66-.53.906-.04.042-.107.09-.157.125-.023.014-.07.05-.094.062-.01.004-.023-.003-.03 0 .23.636.514.895.81.938.085.01.197-.015.282-.03.388-.088.807-.366 1.125-.44.015-.002.047-.028.062-.03.022-.002.072 0 .094 0 .027.003.067.022.093.03l.062.032c.048.032.116.092.156.157.093.164.154.43.188.843.303.3.63.61 1.03.75.204.067.456.1.72.063.625-.533.98-1.71 1.812-1.844.014-.002.048.002.063 0h.094c.024 0 .07-.002.094 0 .114 1.164-.352 2.545.344 3.47.228.1.434.1.594.06.043-.01.115-.044.156-.06.225-.104.44-.285.687-.345.09-.017.203-.018.312 0-.022.142-.04.278-.03.376 0 .016.027.048.03.063.003.013-.004.048 0 .06.004.014.026.05.03.064l.032.062c.004.006.028.026.03.03.02.027.04.073.064.095l.03.032c.142.115.356.195.595.313l.03.03 1.44.72c.677-1.896 1.657-4.07 1.718-6.22.57-.588.883-1.094 1-1.5.02-.075.025-.178.032-.25.002-.034.03-.09.03-.124 0-.032-.026-.09-.03-.124-.004-.024.005-.07 0-.094-.006-.023-.024-.07-.03-.093-.007-.016-.027-.05-.033-.064-.575-1.31-3.867-1.57-4.657-2.937-.004-.01-.027-.025-.03-.033-4.747-2.544-8.793-7.643-12.5-11.687-.044-.037-.09-.086-.126-.125-.514-.587-.375-1.438-.906-1.97-2.777 4.4-8.09 2.907-12.374 2.907-3.71-1.164-8.697-3.82-9.97-8.687l.25-1.5c.095-.007.176-.007.25 0 .037.004.094.023.126.03l.094.032c.04.018.093.04.125.063.005.004.027.027.032.03.01.01.023.023.03.032.005.005.03.027.032.032.015.02.02.07.03.093.004.006.03.026.033.032.002.005-.002.024 0 .03.137.424-.057 1.125.062 1.594.003.013.026.05.03.062.005.013.026.05.032.063.003.005-.003.024 0 .03.003.006.028.025.03.03.008.013.024.053.032.064l.03.03c.02.02.042.045.064.063.772.55.713 1.84 1.5 2.063.033.008.09.026.125.03.696-1.043 1.373-1.533 2.063-2.343 1.74 1.866-3.464 3.26-.344 4.657l2.22-2.907.905.813c-.81.81-1.37 1.862-1.72 2.906.697.456 1.487.68 2.064 1.25.35-2.082 1.624-3.703 2.782-5.437 1.272 1.277-1.053 2.79-1.28 4.405-.184.268-.56.494-.72.78-.003.007-.03.026-.03.032-.007.013.003.05 0 .063-.004.006-.03.025-.033.03-.004.014 0 .05 0 .064-.002.013 0 .048 0 .062 3.353.12 7.384 2.1 9.124-2.53.15.076.272.175.344.28.014.023.05.07.063.094.018.04.022.113.032.156.01.053.03.132.03.188 0 .3-.132.65-.25 1l-1.03.812c3 1.266 3.594-2.432 5.562-3.812.81.804.7 2.3 1.28 3.343 5.21 5.448 9.596 11.706 16.658 14.25 1.038-1.614 2.194-3.47 2.656-5.437 1.62-.924 3.027-.91 4.875-.688 1.74 1.044 2.764 2.412 3.688 4.032.463 2.658.12 5.33-.343 7.875 1.62.81 4.177.34 6.03-.47-.233-3-2.685-8.09 1.25-9.938 2.083-.576 4.18-.472 6.376-.25.696-3.246-.822-6.94-2.094-9.718-.158-.666-.034-1.077.218-1.344.075-.074.185-.166.28-.22.745-.386 2.054-.25 2.75-.655.037-.022.094-.07.126-.094 6.6-1.5 14.476-4.037 16.906-11.093h.438c-.348 7.056-8.453 9.47-13.78 11.438-1.97.576-4.142.592-5.876 1.75 0 1.386.788 2.555 1.25 3.72 3.126-.12 7.082-2.787 10.094-4.533.81 0 1.6-.813 2.062-1.28 3.936-.93 6.475-6 10.53-6 1.273.125 2.558 2.2 4.064 1.624 2.778.696 6.24-.024 8.094-2.562.032-.1.094-.18.156-.25.388-.4 1.254-.313 1.937-.313 2.43 2.203 5.32 3.442 8.093 4.72.468-.157.74-.038 1.03-.094.015-.003.05-.027.064-.03.014-.005.048.004.062 0 .014-.007.047-.026.062-.032.082-.04.182-.107.28-.188-6.707-5.316-13.417-10.403-22.093-10.625-9.38-2.32-13.446 11.67-22.938 9.595-2.196.108-5.78.003-6.938-2.313-2.082 2.082-5.31 3.804-8.437 2.532-1.968-1.5-4.053-2.3-5.906-3.813-1.967 1.393-4.034 3.34-6.812 2.314-7.062-1.974-12.28-9.36-20.03-9.125-.137.004-.27-.01-.407 0zm14.938 9.592c.003-.002.028.002.03 0 1.273.456 2.883 1.38 3.345 2.657-.14.063-.277.077-.406.092-.055.006-.134.034-.188.032-.045-.003-.114-.024-.157-.032s-.114-.018-.156-.03c-.792-.262-1.457-1.26-2.22-1.688-.167-.246-.317-.615-.31-.844 0-.005-.002-.027 0-.03 0-.006-.002-.028 0-.033 0-.004-.003-.027 0-.03 0-.005.028-.028.03-.032.002-.003-.003-.028 0-.03.002-.004.028 0 .03 0 .004-.004-.002-.03 0-.033z" fill="#ffea0f"/><path d="M403.088 155.78c-.192.042-.376.14-.5.22-4.506 4.17-10.417 7.166-15.625 9.374-4.278 1.392-8.925 2.297-13.438 2.53-.003.006-.028.027-.03.032-.01.022-.022.074-.032.094-.023.044-.05.113-.063.156-.007.03-.024.09-.03.125-.02.194.015.406 0 .595-.008.07-.032.176-.063.25-.062.118-.167.25-.344.375l.22.22c-1.393 1.967-4.053 1.175-5.907 1.06-2.018-.908-6.052.81-7.594-1.03-.218-.27-.4-.628-.5-1.063l-.813-1.03c-2.97-.763-6.238-1.02-8.938-2.532l-2.53-.75c-1.585-.594-3.717-1.128-3.345-3.438H343.182l-.063.032c-.012-.002-.052 0-.063 0-.434.177-.682.71-1.03.874-.007.005-.027.025-.033.03h-.062c-.006.004-.026.03-.03.032-.004.002-.03 0-.033 0h-.093l-.064-.03h-.063c-.01-.006-.05-.027-.062-.032l-.063-.032-.062-.03c-.047-.026-.113-.063-.156-.095l-.063-.062c-.734-.837-.73-2.235-1.75-2.844-.098-.055-.224-.114-.344-.155-.233.708-.23 1.518-.812 2.094-1.734-.925-3.697-1.856-4.97-3.47-.188.266-.28.486-.31.687-.053.402.075.788-.157 1.407-2.082-.708-1.943-3.27-4.5-3.157-.335.576-.25 1.626-.25 2.094-.007.008-.023.026-.03.032-.055.045-.134.094-.188.125-.055.03-.133.076-.188.094-.055.017-.132.027-.187.032-.024.002-.07 0-.094 0-.016 0-.047.002-.063 0-.016 0-.046.003-.062 0-.908-.156-1.89-1.497-3-1.75-.108-.022-.232-.03-.344-.03l-.22-.22c-.81.912.113 1.722-.81 2.532-1.507-.708-3.13-2.196-4.75-1.032.113 1.734.473 2.995-.907 4.375.216.2.412.33.594.375h.032c.032 0 .093.002.125 0h.155c.026-.007.074-.024.095-.03.728-.247 1.258-1.52 2-1.845.99-.08 1.8-1.222 2.72-1.5.363-.102.762-.074 1.186.22.16.445.153.834.03 1.155-.298.747-1.14 1.276-1.436 1.97-.013.03-.047.084-.063.124-.002.006.002.026 0 .03-.007.024-.025.073-.03.095.868.478 1.496.544 1.937.376.023-.01.066-.02.094-.03l.063-.032.094-.063c.008-.004.024-.024.032-.03.903-.722.99-2.75 1.78-3.625l.064-.063c.042-.04.11-.09.156-.125.023-.016.07-.048.094-.062.015-.01.046-.023.062-.03.033-.017.09-.052.125-.064.493-.16 1.2-.015 2.22.626.01.017.02.046.03.063.017.033.05.09.063.124.028.075.048.175.062.25.147.908-.738 1.738-.813 2.343-.002.033-.002.094 0 .125v.063c.007.022.022.072.032.094.003.004.027.025.03.03.02.028.045.073.064.094l.032.03c.037.034.106.094.156.126.157.096.388.182.688.25.923-1.044 1.525-2.427 3.03-2.78.463.587.813 1.504.345 2.092-.12.18-.29.297-.374.438l-.032.062v.032l-.03.03v.125c0 .003-.002.027 0 .03.005.02.027.05.03.064v.03l.03.063c.005.003.03.03.033.032 2.196 1.38 3.222-3.25 6-1.283.114 1.278-.353 2.097.344 2.907 1.5-.354 2.892-1.962 4.626-1.032.042.024.11.06.156.094l.03.03c.59.65.88 2.602 1.657 3.095.018.013.042.023.062.032.355.155.837.042 1.47-.593 2.2 0 4.047 2.084 6.25.686 1.505-.57 2.808-.15 4.842 3.438l31.188.937c4.92-4.397 11.07-5.655 16.625-5.655l.03-.03c.102-.093.226-.18.314-.25.028-.025.072-.07.094-.095l.03-.03.002-.033v-.03-.032-.03-.033c-6.02-1.968-9.72 1.73-15.625 1.844-.15-.383-.532-.742-.687-1.062-.006-.01-.026-.052-.03-.063-.003-.004 0-.024 0-.03-.01-.04-.03-.092-.032-.125v-.063c.002-.022-.005-.065 0-.093.002-.008.03-.026.032-.033.002-.006-.003-.025 0-.03 4.398-1.5 7.76-5.334 12.97-5.22 2.314-.468 4.65-1.375 6.5-2.875-1.16-.468-2.323-.604-3.595-.25-1.848 1.158-4.288 3.714-6.25 2.094.57-1.848 3.112-2.22 4.156-3.72-.01-.027-.02-.067-.03-.092-.01-.02-.02-.045-.032-.063-.004-.005-.026-.024-.03-.03-.024-.03-.07-.07-.094-.094-.006-.004-.027-.027-.032-.03-.005-.005-.026-.03-.03-.032-.017-.01-.052-.026-.063-.032-.024-.01-.073-.024-.093-.03-.028-.01-.09-.025-.125-.032-.034-.002-.095 0-.125 0h-.188c-.014.002-.02-.003-.032 0zm-19.97 13.687c.294-.022.572-.006.814.063l.094.03c.068.03.158.083.218.126.053.04.112.102.156.156.098.126.202.288.25.5-.762.247-2.055.312-2.718-.125-.007-.004-.025-.026-.03-.03-.048-.036-.12-.085-.158-.126-.005-.005-.026-.024-.03-.03-.01-.012-.023-.05-.032-.063-.077-.11-.138-.256-.156-.406.45.094 1.056-.05 1.593-.093zm-6 .032h.064c.014-.002.048-.002.062 0h.063c.02.004.073.023.094.03.024.007.07.02.094.03l.063.032c.005.006.026.026.03.032.006.004.027.026.032.03.027.028.07.07.093.095l.063.06c.054.08.11.196.156.314-.008.02-.02.044-.03.062-.005.006-.03.026-.033.03-.04.057-.082.117-.126.158-.5.415-1.554.105-2.25.218l-.22-.25h.063c.008 0 .025.002.032 0 .02-.005.07-.023.093-.03.414-.144 1-.606 1.5-.75.038-.01.088-.026.125-.032l.03-.03zM367.213 112.217c-1.185.056-2.403.266-3.063.594-3.474 1.045-3.808 5.204-4.156 8.564-.23 1.364-1.234 2.637-1.375 3.78l.218-.187c.007 0 .024.002.03 0 .016-.002.05.003.064 0 .253-.032.543.017.75.157.065.046.14.125.187.187.003.007.026.027.03.032.008.012.025.05.032.063.003.006.028.025.03.03.016.034.023.09.032.126.752.418 1.64.946 2.375.876.086-.01.2-.034.28-.062.055-.02.136-.064.188-.094.034-.02.092-.07.125-.094.238-.19.467-.498.625-.97.346-.084.628-.045.844.126.06.053.137.144.187.22-.21.646-.047 1.484-.47 1.968-.022.024-.067.072-.093.094.02.058.034.143.062.187.01.017.05.05.062.064.024.026.066.073.094.093.013.01.047.023.062.032.022.01.07.05.094.06.023.01.07.025.094.032.164.05.367.078.53.125l.095.032c.024.008.072.018.094.03.036.02.094.065.125.094.017.018.045.04.062.062 2.898.93 4.38-1.264 6.47-2.656.46-2.436-2.67-5.208-1.283-8.094 1.277-1.734 2.906-.705 4.874-1.28.104.26.295.607.53.874.043.045.113.116.158.156.256.218.583.353.937.25.46-1.512.11-3.263-1.282-4.187-1.272-.457-2.877-.218-3.688.592-.303.33-.57.487-.78.5-.023 0-.073.003-.094 0-.015-.002-.05-.028-.063-.03-.027-.008-.068-.02-.094-.032l-.063-.03c-.006-.005-.025-.028-.03-.033-.025-.017-.072-.04-.095-.062l-.03-.03c-.417-.437-.687-1.383-1.095-1.658-.08.03-.178.05-.25.063-.416.07-.756-.122-1.22-.313l.22-.218c-.424-.03-.88-.054-1.344-.033zm.188 2.188c.54-.137 1.185.528 1.626.97.233.803-.715 1.145-1.063 1.5-.81-.355-1.26-1.17-1.03-2.095.05-.08.1-.134.155-.188l.03-.03c.006-.005.027-.028.033-.032.016-.012.047-.02.063-.03.005-.004.026-.03.03-.033.007-.002.027.003.033 0 .005-.002.025-.03.03-.03.022-.01.072-.026.095-.032zM416.466 128.676c3.012 1.278 5.79 3.942 9.378 3.132 5.67 3.582 11.802 8.568 17.706 11.448 2.778 3.246 7.176 4.524 9.378 8.112-6.714-4.866-13.89-6.954-20.604-12.036-2.664-.93-5.442.114-7.752-1.632-3.708-1.5-6.6-5.202-10.188-7.17-.576-1.032-1.506-2.076-1.044-3.234 1.626-.924 1.74 1.266 3.126 1.392M401.886 129.372c-.582 8.796-10.764 14.352-16.668 19.788-1.392.234-2.43 1.62-4.164 1.398-1.392-3.132-2.316-6.834-2.424-10.182 6.474-1.74 12.03-6.258 17.814-9.39.81-1.146 1.968-2.076 3.126-2.646.924-.132 1.854.336 2.316 1.032" fill="#ffea0f"/><path d="M418.32 135.39c-1.392 1.632-3.012 1.278-4.98 1.044.234-.702-.576-.702-.576-1.278-1.272.354-2.43 2.898-3.936 1.044-2.424-.81-2.772 2.436-5.088.81l-2.43.234c-.81 2.886 2.778.342 3.708 1.5 1.734 1.62 2.778-3.468 4.626-.456 1.392.456 2.202-.81 3.126-1.044.696 1.5 2.082.576 3.474.81.576-.12 1.032-.576 1.728-.354 1.158 3.012 3.702 5.448 6.48 7.302.81-1.854-1.968-3.012-3.006-4.17-1.158-1.386-2.778-3.354-2.43-4.632l-.456-.468c.336.12.69-.456 1.032.234l.234-.234-.234.234c3.24 1.512 7.524 5.79 10.65 3.936 0 .228-.114.354-.234.462 3.822-.462 6.366 3.702 9.84 4.746 2.664 1.848 5.442 3.126 8.334 5.094 2.778 1.266 4.626 2.19 6.018 5.202 0 .81 0 1.974-.81 2.208l-.804-.12c-5.208-3.936-10.302-7.872-15.624-11.106-.93.456.114 1.26.348 1.734 4.626 3.348 9.954 6.48 14.004 10.182-.468.81-1.044 2.424-2.316 1.38-3.822-.69-7.41-3.804-10.65-6.246-3.24-4.158-8.1-6.126-10.416-10.758-.348.222-.81.222-1.044.576v.69c6.024 5.448 11.46 12.858 18.756 16.206 0 .474.114 1.044-.348 1.278-1.614-1.044-3.354-2.316-5.214-2.082-1.146 1.614-3.234.468-4.626.234-2.772-3.132-6.942-6.378-9.138-10.08-.348-.108-.582.234-.81.468.81 2.898 4.746 5.91 6.828 8.568-.576.456-.924 1.614-1.62 1.146l-3.822-3.702c-.114.354-.69.354-.81 0-3.354-3.114-6.018-5.892-7.752-9.948-.348-.12-.696 0-1.044.354 1.506 4.734 5.094 7.518 8.334 11.214-.348.234-.114.582-.114.936-3.006-1.158-4.968-4.404-7.98-5.214-.582-3.12-2.892-5.088-3.474-7.992-.462-.108-.576.234-.924.468.348 2.892 2.892 5.214 3.012 7.86.114 0 .228.132.342.234-2.196 0-3.354-2.424-5.436-3.582 0-1.854-.582-4.164-1.392-6.012h-.696c-.114 1.848 1.278 4.392.468 6.012-1.044-.69-1.62-3.012-3.36-2.664-1.386 2.544-5.556.93-6.48 3.708l.234.234h-.348c0-.702 0-1.278-.696-1.62-1.038.81-.462 2.544-1.614 3.468-.81-.69-2.202-.114-2.082-1.614-1.854.102-.348 2.424-1.74 3.126-.924-.234-.576-2.556-2.082-1.626l-.114 2.892c-.81-.234-2.082-.456-2.778.222-.582.468-.582 1.164-.804 1.866-.696-.12-1.272-1.164-2.082-.468-.816.468-.582 2.316-1.854 1.734.228-1.032-1.158-1.266-1.044-2.088-.228-1.956-1.386-4.044-.69-5.658 6.132-1.044 9.954-6.6 14.466-10.422 4.398-3.012 5.67-7.062 7.062-11.46 2.892.93 6.018.222 8.556-1.044.576 3.132 4.284 4.056 6.366 6.486M363.804 148.926c-.114 5.91-1.386 11.46-2.082 16.914h-1.272c.228-1.044.462-2.556-.234-3.366-1.968.354.582 5.67-3.354 3.702-1.044-.69.462-1.968-1.158-2.082-.228.468-.696 1.038-.228 1.512-.81.102-1.734-.234-2.544-.474.234-1.848 3.012-3.582 1.734-5.436-1.272 1.398-2.778 3.246-2.778 5.1h-1.038c2.082-4.278 1.038-9.024 3.354-13.194l-.228-.234.69-.342c-.114-.936.582-2.088 1.044-3.132.234-.924 1.158-1.848 2.082-2.082.462.468 1.392 0 1.152-.69 2.316.114 3.822 1.968 4.86 3.816M373.932 146.592c-.626.006-1.346.032-2.25.032-1.158.456-1.293 1.732-1.406 2.656 1.385 5.67.484 11.47 2.218 16.906.07.11.145.205.22.28.053.055.13.12.187.158.015.01.05.022.063.03.014.01.048.025.063.032.043.02.11.05.156.063.706.2 1.546-.345 2.312-.345l-.22-.813c.09-1.072-.997-2.644-.53-3.562.05-.092.134-.204.22-.28.15-.13.38-.237.655-.314.923 1.62.797 3.466 1.03 5.188l6.5-1.72c-.695-1.157-.366-2.89-1.062-4.155-.087-.118-.148-.242-.188-.345-.004-.013-.027-.05-.03-.063-.002-.006 0-.025 0-.03-.003-.013 0-.05 0-.063v-.033-.062-.03c0-.007-.002-.027 0-.033 0-.005-.002-.025 0-.03.003-.012.026-.052.03-.063.003-.007-.002-.027 0-.033l.032-.03c.017-.03.038-.067.062-.095l.063-.062.03-.03.032-.033c.054-.043.145-.08.218-.125-2.898-3.942-1.052-9.048-4.406-12.75-1.67-.235-2.623-.262-4-.25zm5.5 15.875c.93.468.797 1.733 1.03 2.657-.003.005.005.026 0 .03-.003.006-.026.027-.03.032l-.03.03-.033.033c-.045.04-.11.072-.157.092-.053.02-.134.028-.188.032-.125.005-.272 0-.374 0-.175-.698-.79-1.54-.656-2.25.008-.037.02-.09.03-.125.01-.023.023-.074.033-.095.027-.057.084-.133.125-.188.063-.08.152-.174.25-.25zM369.822 157.614c.12 3.582.234 7.638 2.316 10.65.348.81-.576 1.266-.81 1.734-1.506.69-2.658-1.734-4.164-.924.114-.69.576-1.854 0-2.43-.582.228-1.278.81-1.278 1.386v1.278h-1.728c-.576-1.044.582-2.898-1.038-3.702.348-2.322.348-5.442.924-8.334 1.728 1.044 4.398-.354 5.778.342M360.912 169.542v-2.088c.696.222 1.044-.456 1.62-.582l.228 2.67h-1.848" fill="#ffea0f"/><path d="M305.706 171.66s-3.762-7.038-8.682-7.614c-4.92-.588-7.716-.402-11.19 1.626-3.474 2.028-10.002 6.084-13.698 19.77-3.66 13.608-4.05 21.222-2.892 29.814 0 0 4.632 34.428 22.572 59.028 17.94 24.6 32.79 36.456 43.11 42.246 8.832 4.944 34.146 14.178 34.146 14.178s32.118-7.818 56.712-33.864c24.594-26.04 28.26-35.874 35.208-52.656 6.942-16.782 7.326-29.802 6.168-39.348-1.152-9.552-4.914-28.938-13.884-35.016-8.97-6.072-14.472-5.202-18.81-3.468-4.338 1.734-8.1 6.36-8.1 6.36l-120.66-1.056z" fill="none" stroke="#ffea0f" stroke-width="3.474"/><path d="M346.62 180.717c-.004.004.002.03 0 .032-.042.02-.093.047-.126.06-.04.02-.09.044-.125.064-.157.1-.274.265-.313.437-.172.897.937 2.5.937 2.5l1.72 27.782-2.688-.187-.594-8.875-4.22.375v7.156h-4.25l-2.905 2.69-.563-8.314 5.97-.375-.563-2.5-5.843.595-1.313-14.094h-2.125l.406 25.47-5.22-.78-3.655-17.158-1.562.188-.75.75-4.25-.375v5.78l5 .782 2.53 11.375s-.737.177-1.217.5c-.024.017-.07.045-.093.063l-.03.03c-.01.008-.026.026-.033.032l-.03.032c-.028.03-.076.095-.095.124l-.032.03v.032l-.03.03c-.01.025-.026.07-.032.095V215.343l.03.063v.03c.39.973 2.313 3.095 2.313 3.095l11-.938 1.562-1.75 1.906 1.532 3.688.218 1.343-1.937 2.687 1.53s6.952-2.124 9.844-2.124c2.892 0 53.032 1.345 53.032 1.345l-1.72 2.72c.028.19.313 1.75 1.94 1.936 1.74.187 31.25.157 31.25.157l-1.75 5.032.78 3.28-3.47 4.844 3.282.187-4.844 6.907 3.094.407-3.094 3.093 4.438-.218v10.81l2.313-.186V251.5h3.094l-.187 4.06h3.094v-5.968l1.72.188v6.187h2.124l.97-17 2.687 1.75-.374-4.625 1.156-.187s-2.72-4.455-2.72-6.375c0-1.932-.186-4.25-.186-4.25l2.125.97 1.344 2.31-.937 2.5 2.312-.968-.407 17.375-2.688 3.657 2.5-1.157.594 1.375 2.874-5.625V230.28l.78-4.813 3.095-.375.187-1.53-2.906-1.75 3.094-1.72-2.312-2.343-.406-4.814 2.906-2.5-2.906-.97-.75-4.81 1.906-1.376s-1.523-2.49-1.906-3.438c-.385-.972-.782-2.906-.782-2.906l3.875-1.344s-4.45-3.858-7.157-5.406c-2.595-1.476-7.154-3.33-8.188-4.156-.028-.026-.072-.073-.093-.094-.768-.774-3.094-3.28-3.094-3.28s-2.07-.614-3.03-.157c-.05.023-.115.062-.157.092l-.062.032-.03.03-.032.032c-1.126 1.056-13.868 11.405-14.438 12.313-.384.773-1.543 4.85-2.125 5.81-.576.96-2.51 3.64-3.47 5-.904 1.26-1.297 2.37-1.342 2.5.08.063.61.467 1.094.595h.03c.03.007.096.024.127.03h.157c.022-.005.072-.023.094-.03h.032c.576-.186 3.096-1.16 4.062-.78.906.36 1.465 1.07 1.53 1.155h-2.498c-1.542 0-4.624 1.54-5.782 2.5-1.158.96-3.656 2.125-3.656 2.125l-.78-.375 5.405-3.875c-.125-.1-1.13-.873-1.688-.594-.01.006-.05.027-.062.032-.576.372-4.046 1.914-5.594 2.688-1.446.726-2.722 1.974-2.876 2.125v.53c-.29-.495-5.053-8.432-12.156-8.624-7.103-.18-11.867 8.137-12.156 8.657l-14.656-2.312.375 1.562-8.468-.593 4.22-1.344.405.78 2.5-.78-13.5-3.47-1.344 3.47-3.688-.375-3.062-27.78s.564-1.466.156-2.314l-.032-.06c-.024-.038-.068-.094-.094-.126-.02-.024-.07-.072-.094-.094-.032-.027-.093-.072-.124-.094-.136-.085-.322-.152-.532-.187-.074-.013-.167-.033-.25-.033H346.652c-.004.003-.03-.003-.033 0zm104.218 10.094c.197.088 1.36.567 2.063.907.775.402.75 1.56.75 3.282 0 1.624-.332 2.74-.374 2.874l1.343 2.343 1.343-2.53h.97l-2.314 4.655.03.032c.007.006.03.03.032.03l.03.032c.03.025.08.066.126.094.014.008.047.023.063.03.175.083.46.157.876.157h.125c.035.007.097.023.126.032.692.22.884 1.347.906 1.5 0 0-.188 2.718-.188 4.842 0 .563-.133.978-.312 1.282-.072.116-.165.227-.25.312l-.03.03c-.106.095-.242.194-.345.25-.262.14-.542.202-.688.22h-.063c.065.068.587.636 1.312 1.188.767.57.937 2.29.937 6.53 0 4.11-2.706 5.158-2.875 5.22l-2.906-5.782 2.312-1.156-3.063-5.812 3.063-1.532s-.748-1.545-1.906-3.093c-1.152-1.537.187-4.814.187-4.814.082-.133.727-1.25.187-2.875-.528-1.57.23-2.525.375-2.686v-.032s-.38-1.523-.188-2.687c.01-.068.032-.176.03-.25 0-.004 0-.027.002-.03v-.064c-.15-.98-1.38-2.204-1.688-2.5zm-2.625.94l-.906 1.53 1.72 1.906s-.666 3.302-.25 4.47c-.002.002 0 .027 0 .03.004.012.024.053.03.063l.03.06c.583.96 2.7 2.143 1.157 6-1.542 3.853-1.754 5.59-1.562 7.126.192 1.548 0 3.656 0 3.656l-.938-.187-.594-3.47-.562-1.343s.563-3.295.563-4.843c0-1.537-1.156-4.408-1.156-4.408s-6.154 1.13-7.312 1.72c-1.158.57-3.875 1.562-3.875 1.562l-.375-1.188s8.363-3.04 9.062-3.47c.576-.383 2.125-.374 2.125-.374l1.156-4.625s-1.344-1.35-1.344-1.937V194v-.033-.03l.03-.032c.35-.628 2.688-1.978 3-2.156zm-8.78 15c.006 0 .028-.002.03 0 .01 0 .052-.002.063 0h.03c.005 0 .028-.002.032 0h.03c.04-.003.11-.003.158 0h.03c.047.007.108.017.157.03h.063l.03.03h.032l.03.032h.033l.032.032c.01.01.052.05.062.062l.03.03c.047.06.094.15.127.22.207.48.17 1.195.157 1.313l-1.375 2.905.78.75 2.69 1.375.967-4.25 1.156-.563s.406 1.726.406 2.5c0 .762-1.17 3.86-1.938 5.594-.725 1.627.25 2.91.375 3.064l-.563 2.125h-.97v-1.158c.02-.13.133-1.225-.593-2.125l-.03-.03-.032-.032c-.04-.04-.09-.092-.125-.125-.003-.003-.03-.028-.03-.03-.675-.533-1.57-.07-2.126.03h-.156c-.576 0-2.312-1.156-2.312-1.156s-.768.19-1.344.562l-.03.03-.064.033c-.003-.002-.028 0-.03 0-.012.005-.053.024-.063.03h-.03c-.62.042-1.586-.988-2.094-2-.577-1.158-1.157-4.25-1.157-4.25l-.97.406-.968-.97 4.062-3.28.188 1.53-1.156 1.345s-.01.977.375 3.095c.36 1.99 2.1 2.45 2.313 2.5l1.75-1.344 1.344 1.94 2.687.374.97-2.5s-4.44-1.948-5.407-3.094c-.106-.127-.188-.268-.25-.406-.48-1.124.348-2.572 1.03-3.25.517-.52.973-1.053 1.44-1.282.042-.02.11-.048.155-.062v-.03zm9.218 11.78l-.187 2.875-1.156 3.094-.406-.75-.562-4.25 2.313-.97zm-6 5.594l1.157 2.312-.938 2.5-1.376.97v-3.282l1.156-2.5zm4.438 5.03l1.75.376s.188 2.332.188 3.094c0 .774-1.344 4.437-1.344 4.437l-1.344-2.343.75-5.562zm-5.375 2.876l.938 1.562-.75 2.875-1.156-.187V233l.97-.97zm.75 6.187l.78 1.72-.592.968-1.906-.188 1.72-2.5zm3.28 2.313l1.94.375-.97 6.187-.97-.218v-6.344zm-4.436 3.28l2.5.782.22.75-2.908 2.875-.782-.343-.188-3.125 1.157-.94z" fill="#ffea0f"/><path d="M351.463 216.842c-1.774.24-3.29 1.527-4.47 2.47-.044.035-.083.084-.124.124l-.063.063c-1.565 1.78.42 7.11 1.344 11.186.966 4.242 8.5 15.25 8.5 15.25l3.657 6.938s-.955.784-1.53 1.75c-.584.96-2.14 4.622-1.75 9.062.382 4.434 4.452 6.153 6.186 7.125 1.74.96 5.78.376 5.78.376l1.345 1.156-23.72-1.156 1.72-6.75 1.375-3.062s.746 4.6.938 5.375c.002.005 0 .023 0 .03.015.04.047.09.063.125.024.045.062.115.094.156.006.008.025.025.03.032l.064.063c.016.014.047.05.063.062.065.054.15.117.22.157.323.18.754.26 1.06.187.03-.006.07-.02.095-.03l.063-.03.063-.033c.024-.02.073-.07.094-.093.005-.006.026-.026.03-.032.385-.576.564-3.093.564-6.375 0-3.27.192-12.158 0-14.468-.197-2.323-2.312-2.69-2.312-2.69l-5.97-.374s.006-1.162-.186-1.75v-.03c-.004-.004-.03-.03-.03-.032-.016-.026-.046-.07-.064-.094-.445-.548-2.15-1.24-3.375-1.594-1.35-.372-9.06-.937-11.375-.937-2.31 0-8.88 1.134-14.094.936-5.208-.186-13.875 1.75-13.875 1.75l-3.47-2.875-1.937 1.532-2.53.188.78 3.28s-1.522 7.53-1.906 8.69c-.01.033-.024.09-.03.124-.02.092-.035.21-.033.312v.03c.11 1.15 1.56 2.684 2.563 3.19 1.152.575 3.28.56 3.28.56l1.876-1.842c-.085.246-.156.564-.156.906 0 .774.594 1.906.594 1.906s2.622.94 3.626.78h.03c.967-.197 3.47-.592 3.47-.592s1.73 4.047 2.5 5.78c.774 1.747-.188 7.157-.188 7.157s-2.9.483-3.844 1.157l-.03.032c-.042.037-.094.088-.126.124l-.03.03-.032.032c-.01.017-.027.053-.032.063-.01.02-.025.067-.03.092v.157l.03.03c.014.033.044.09.063.125l.03.062.032.063.03.03.032.032c.618.63 2.367 1.25 3.906 1.25 2.124 0 8.12.375 12.938.375 4.823 0 14.257-.395 18.5-.593 4.24-.192 9.082-.75 13.906-.75 4.818 0 16.383.75 19.28.75 2.893 0 12.55.78 15.25.78 2.707 0 14.082.22 16.782.407 2.706.2 17.744 1.906 19.094 1.72.24-.035.458-.11.625-.188.118-.056.23-.12.313-.187l.062-.063.063-.062.032-.03c.027-.035.072-.093.094-.126.034-.058.072-.136.093-.188.012-.028.047-.093.062-.125v-.03-.03-.033-.03-.032-.03l-4.438-1.533s-8.535.37-9.25.313h-.03v-.03h.03c.132-.02.462-.054.97-.095 4.625-.396 8.658-4.634 9.624-6.938.966-2.31.375-7.343.375-7.343s2.128.374 3.094.374c.954 0 3.678-.192 5.406 0 1.734.198 2.904-.572 4.063-1.532 1.157-.966 2.125-1.53 2.125-1.53l-6.374-.595.968-3.656.375 3.282 2.124-.593-.187-8.47-.594-.406-2.313 2.53.782.563-1.156.782-1.344-2.314-2.72 5h1.376l-.594 2.906H425.9s.178-3.865.376-7.53c.19-3.673 6.157-16.002 8.28-18.126 2.125-2.118 2.14-4.815 1.75-5.78l-.03-.064c-.013-.022-.046-.07-.063-.093-.005-.007-.026-.027-.03-.033-.033-.035-.086-.09-.126-.125-1.016-.84-4.43-1.625-6.313-1.625-2.118 0-4.255 1.175-6.187.407-1.852-.744-5.85-.05-6.844.687-.005.007-.026.027-.03.032l-.064.032-.032.03c-.047.042-.124.087-.188.126-1.105.643-4.41.896-6.906-.53-2.7-1.537-5.418-.58-7.344-.19-1.93.385-3.667.193-5.593-1.343-1.932-1.548-5.007-.57-5.78 0l-.064.032-.063.03c-.94.483-3.61.427-5.25-.656-1.74-1.164-2.897-.78-6.75-.407-3.863.402-3.684-.57-6-1.53-2.315-.96-7.91.983-11 1.187-3.083.186-3.28-.4-6.562-2.907-1.1-.842-2.164-1.16-3.156-1.125h-.374c-.03.004-.067-.003-.095 0zm-52.625 31.032c.08-.016.125 0 .125 0v1.343c-.002.036-.02.093-.03.125-.02.048-.062.115-.095.157l-.063.06c-.074.07-.184.14-.28.19-.284.14-.62.205-.688.217 0 0-.2-.07-.375-.218-.038-.034-.09-.087-.125-.126-.06-.075-.127-.184-.156-.282-.036-.144-.033-.337.063-.53.312-.63 1.28-.87 1.625-.938zm7.156 1.937c.063-.008.13.003.188 0 .254 0 .48.076.594.126.036.018.082.025.093.03 0 0-.206.957-.782 1.533-.108.11-.22.198-.313.25-.046.022-.114.05-.156.06-.014.005-.05.03-.063.032h-.156c-.052-.007-.118-.045-.156-.062l-.062-.03c-.025-.018-.055-.026-.063-.033 0 0-.368-1.36.406-1.75.167-.084.322-.133.468-.156zm116.406 1.72l.407 5.187s-1.365-2.305-2.906-2.875c-1.547-.576-3.46-.78-8.093-.78-4.482 0-7.357 4.88-7.53 5.187l-.97-.376 1.156-5-25.625.78c.26.113 2.408 1.055 4.22 2.5 1.925 1.537 3.843 5.595 3.843 5.595l-.562.78 9.844.187s-.768 3.646 0 5.188c.774 1.536 2.312 3.687 2.312 3.687H381.9s3.08-3.493 3.47-4.843c.383-1.35.968-4.22.968-4.22s-.772-.973-1.156-2.125c-.39-1.158-1.735-2.52-3.47-4.063-.006-.006-.023-.025-.03-.03-1.836-1.525-10.97-2.282-10.97-2.282l-1.936-1.156 53.625-1.344zm-31.25 2.312l.782 1.157v1.905l-1.344.22v-2.126l.563-1.158zm23.157.97l.97.937-.783 3.28-.562-.188.375-4.03zm-101.094.187l.97 2.124-.97 12.03c-.17-.98-1.535-8.733-2.094-9.5-.005-.005.004-.026 0-.03-.583-.576-1.75-3.282-1.75-3.282l3.843-1.343zm50.156 0l3.874.75-2.125 1.75-2.313-1.345.562-1.156zm36.28 0l1.344.374-.78 3.093-.75-2.125.187-1.343zm12.532 0l.594 3.655-1.75.375-1.157-3.47 2.312-.56zm-4.25.967l1.344 2.688-.375.78-2.5-1.155 1.532-2.313zm-35.094.188l1.72.187-.376 3.657-2.5-2.126 1.156-1.72zm44.563 0l.97 1.156-1.563 2.126-.75-.375 1.344-2.905zm-40.124.375l1.718 1.562-1.156 2.688h-1.156l-.188-.97.78-3.28zm-37.625.97l.594 2.686 4.03 2.344-1.717 7.906-6.75.188 3.844-13.125zm21.626.592l3.468 1.157-.406.56-3.656-.968.594-.75zm28.343 0l5 .188.218 1.156h-5.03l-.19-1.344zm-19.282 1.157l1.72 1.53-.97 1.53-1.906-.186 1.156-2.875zm35.688.186l2.687 1.72.188 1.374-2.687.937-.188-4.03zm-88.563.563l4.625 3.655v6.78l-5.594-.593.97-9.843zm102.625.186l-.188 1.375-2.687.75-.22-1.905 3.095-.22zm-40.5.22h1.156l.188 2.874-2.313.187-.376-.937 1.344-2.125zm-19.5.374l3.875.78-3.875.564v-1.344zm53.438.75c.012-.005.05.003.062 0h.157c.033 0 .086-.006.125 0 .028.005.07.025.093.03.005.003.025 0 .03 0 .042.016.095.05.126.064.148.073.297.2.406.343.02.03.07.09.093.125.127.224.187.515.187.813 0 .113-.01.237-.03.344-.043.19-.123.383-.22.53-.015.022-.045.07-.063.094-.033.036-.094.096-.125.125-.012.01-.052.05-.063.06-.023.018-.07.05-.094.064-.135.08-.31.12-.47.125-.17 0-.355-.04-.5-.126-.022-.015-.07-.046-.092-.063-.01-.01-.05-.05-.062-.06-.03-.03-.092-.09-.125-.126-.018-.025-.048-.072-.063-.094-.097-.147-.177-.34-.218-.53-.02-.108-.03-.232-.03-.345 0-.335.092-.668.25-.906.004-.01.024-.025.03-.033.108-.142.257-.27.406-.343.03-.015.085-.048.125-.063.006 0 .026.003.03 0 .012-.002.02-.025.033-.03zm-78.313.22l-3.656 8.874-4.25.187s-.777-1.527-.97-2.5c-.19-.96 0-6.374 0-6.374l8.876-.187zm39.28 1.31c.017-.004.047.005.064 0h.377c.05.013.11.042.156.064.047.023.115.062.156.093.08.065.166.16.22.25l.03.063c.007.016.026.046.03.062.007.01.027.052.033.063v.03l.03.064v.06c.002.015 0 .05 0 .064v.062c0 .008.002.026 0 .03-.005.024-.023.073-.03.095-.007.03-.02.068-.03.095-.016.035-.045.093-.064.125-.015.023-.045.072-.063.094-.012.014-.05.05-.062.062-.04.04-.108.095-.156.125-.033.02-.09.05-.125.064-.036.013-.088.022-.125.03-.006.007-.026.026-.03.032h-.251l-.062-.03c-.178-.042-.356-.147-.47-.282-.03-.042-.065-.102-.092-.157-.007-.013-.026-.048-.032-.062-.005-.014-.026-.05-.03-.063-.003-.006 0-.024 0-.03v-.063-.033c-.005-.013-.025-.044-.032-.062-.002-.004 0-.028 0-.03v-.064l.03-.06v-.064-.03l.032-.064c.006-.015.025-.047.03-.062.01-.015.025-.048.033-.063.008-.014.022-.048.03-.062.025-.035.066-.094.095-.125.04-.042.107-.093.156-.125.014-.01.048-.023.063-.03.03-.016.063-.053.094-.064zm-9.967.595l.406.97-3.28 1.75-.97-1.533 3.844-1.187zm52.875 0l1.907.22-.188.967-1.72-.218v-.97zm-48.437.22h2.906l.187 1.155-1.72 1.906-1.374-3.062zm31.438.374h1.188l-.22 1.56-.967.75v-2.31zm8.313.186l.375 1.156-2.5 1.75-.78-2.312 2.905-.594zm-30.28.406l2.686.563-.563 1.53-2.5-.56.375-1.533zm37.218.97l1.157 3.28-2.125.938-.375-3.844 1.344-.375zm-50.156.187l.78.75-.78 1.936-1.906-.78 1.906-1.907zm10.813.967h.97l.56 2.125-1.343.563-.187-2.688zm-2.688.188l1.53 1.156-.187 1.532-2.5-.187 1.156-2.5zm36.062 1.156l-.188 2.314-1.375-.594 1.562-1.72zm2.125.782l.97.375v1.907h-1.75l.78-2.282z" fill="#ffea0f"/><path d="M354.702 234.36s-2.7-4.83-2.892-6.762c-.198-1.926.96-5.976 3.66-3.27 2.7 2.694 3.474 4.428 3.282 5.586-.192 1.164-.192 3.084-.192 3.084m2.892-9.258s2.892 7.338 4.05 10.218c1.158 2.91 1.542 6.762 1.542 6.762m4.056-.972l-1.158-11.178m13.5 14.07l.582-10.026m11.766 5.598l.576-6.174m9.84 8.682l1.158-9.84m10.224 11.574l3.084-9.066m-51.696 9.066s3.282.576 4.242 1.164c.966.57 2.316.762 2.316 1.734v2.88m0-2.88s.192-2.124 2.892-1.938c2.7.204 4.44 0 4.632 2.31.192 2.322.192 3.096.192 3.096m2.508-.186s-.774-4.056 2.124-4.056c2.892 0 5.784.198 5.976 1.548.192 1.344.39 2.694.39 2.694m7.524 0s0-4.242 2.892-4.044m9.642-1.158s-3.666.57-3.474 2.508c.198 1.92.582 2.508.582 2.508m5.592-.402s.966-3.27 2.316-3.654c1.35-.39 3.09-.774 3.09-.774m-62.31.384l3.474-1.548" fill="none" stroke="#002a86" stroke-width="1.158" stroke-linecap="round"/><path d="M428.004 263.094h2.124m2.31-.192l10.998-2.316m-14.856 5.988l2.898-.198m-6.558 2.892l5.976-1.158m.192 2.508s5.4 1.344 6.366.768" fill="none" stroke="#ffea0f" stroke-width="1.158" stroke-linecap="round"/><path d="M361.068 246.144l3.468-1.542m-2.94 3.258l3.474-1.548m-2.316 3.282l3.474-1.548m-2.892 3.258l3.468-1.536M303.582 244.578s6.558-1.734 8.292-1.734c1.74 0 3.474 1.146 4.056.96.576-.186 2.7-.774 4.236-1.164 1.542-.372 11.958.774 11.958.774m11.97.39l-2.508.186m-24.888 2.136s-1.926.762-1.542 1.734c.384.96.966 2.508.576 3.078-.384.576-1.926 2.124-.768 2.706 1.158.576 2.118.762 2.118.762m1.356-3.078s-.582-2.694.768-3.084c1.35-.384 2.7-.198 2.7-.198m2.898 4.626l2.31 6.564" fill="none" stroke="#002a86" stroke-width="1.158" stroke-linecap="round"/><path d="M287.557 181.5l-1.344.217-.188.938-3.28 1.53 3.28.22v1.53l-2.5 2.126-1.937 4.25-.188 4.44-8.312 7.686 9.47 11 27.593.594.75-2.906 1.938-2.5.188-5.22.968.22.188-1h-5v.03l-.594 2.72 1.53.375-1.342 2.124-2.125.562.594-11 2.688-.75-.188-1.75-5.97-.375.377 14.064-5-.188-.218-6.562 3.094.375v-9.626l-2.875-.407v-2.5l2.313.22-.188-5.813-1.937-.188-.406-2.687h-2.094l-.406 4.06-2.313 2.5-.376 1.72 2.875.406v2.125l-5.376-.405v5.594h-1.75l.188-9.658 3.094-2.28-4.438-1-.78-4.813zm-1.72 18.905L286.62 211l-2.313-.19.187-10.218 1.344-.187zm-3.874 2.125v7.5l-2.094-1.906 1.53-5.407.563-.187zm12.156 0l2.312.187v8.47h-8.094v-3.626l1.156.157-.187.97 4.437-.188.375-5.97zm-16.563 1.906l-.22 1.75-1.155-1.156 1.375-.594z" fill="#ffea0f"/><path d="M410.448 209.466l11.766-4.83m-13.116 3.282l15.624-8.286 35.298-17.748m-1.536-4.818l-49.77 29.118m43.206-35.496l-44.556 33.564m25.464-35.868l-26.622 36.252 38.772-37.8m-21.606 6.75l-19.674 30.294m9.066-30.486l-11.19 28.74m5.4-29.124l-6.558 29.124m.198-28.938l-2.508 28.176m-3.666-28.176l.966 28.176m-9.072-27.978l6.756 27.39m-19.68-27.588l17.556 27.972-11.382-27.774m-14.466-.198l23.34 29.706m-30.672-29.892l28.746 32.016m-36.846-32.016l35.298 32.79m-47.256-32.79l46.872 31.83m-58.836-32.016l58.062 33.36m-95.676-40.122l94.716 41.286m-102.048-36.846l99.54 40.128M276 177.252l103.776 35.112m-106.284-29.91l96.258 27.402m-97.806-19.878l10.224 2.508m40.128 8.886l20.442 6.162m-72.912 6.372l12.534.39m27.204 0l11.766.774" fill="none" stroke="#ffea0f" stroke-width="2.316"/><path d="M280.434 217.95s-1.926-1.536-2.892-1.344c-.966.198-3.474.972-3.474.972s1.542.762 2.892.96c1.35.186 3.474-.588 3.474-.588M280.554 221.982s-1.926-1.548-2.892-1.35c-.966.192-3.474.966-3.474.966s1.542.774 2.892.96c1.35.186 3.474-.576 3.474-.576" fill="#ffea0f" stroke="#ffea0f"/><path d="M286.224 222.006s-1.932-1.548-2.898-1.35c-.966.192-3.468.966-3.468.966s1.542.768 2.892.96c1.35.198 3.474-.576 3.474-.576M281.976 225.474s-1.926-1.548-2.892-1.344c-.966.198-3.474.96-3.474.96s1.542.774 2.898.972c1.35.186 3.468-.588 3.468-.588" fill="#ffea0f" stroke="#ffea0f"/><path d="M286.248 220.086s-1.932-1.548-2.898-1.362c-.96.198-3.468.96-3.468.96s1.542.774 2.892.972c1.35.192 3.474-.57 3.474-.57M292.974 219.498s-1.932-1.548-2.898-1.35c-.96.192-3.468.966-3.468.966s1.542.774 2.892.972c1.35.186 3.474-.588 3.474-.588M292.974 222.78s-1.932-1.548-2.898-1.362c-.96.204-3.468.972-3.468.972s1.542.774 2.892.966c1.35.198 3.474-.576 3.474-.576M299.916 219.384s-1.926-1.548-2.892-1.35c-.966.186-3.474.96-3.474.96s1.542.762 2.892.96c1.356.198 3.474-.57 3.474-.57M292.248 225.132s-1.926-1.53-2.892-1.344c-.966.198-3.474.96-3.474.96s1.542.774 2.898.972c1.344.186 3.468-.588 3.468-.588M299.988 225.906s-1.926-1.53-2.892-1.344c-.966.198-3.474.972-3.474.972s1.542.762 2.892.96c1.35.186 3.474-.588 3.474-.588M297.408 229.344s-1.926-1.548-2.892-1.35c-.966.186-3.474.948-3.474.948s1.542.774 2.892.972c1.356.192 3.474-.57 3.474-.57M303.03 221.442s-1.932-1.536-2.898-1.332c-.96.186-3.468.96-3.468.96s1.542.774 2.892.96c1.35.186 3.474-.588 3.474-.588M307.44 222.78s-1.926-1.548-2.892-1.362c-.966.204-3.474.972-3.474.972s1.542.774 2.892.966c1.35.198 3.474-.576 3.474-.576M310.716 220.656s-1.926-1.542-2.892-1.344c-.96.186-3.468.96-3.468.96s1.542.774 2.892.96c1.35.186 3.468-.576 3.468-.576M319.206 218.724s-1.926-1.548-2.892-1.344c-.966.198-3.474.96-3.474.96s1.542.774 2.892.972c1.35.186 3.474-.588 3.474-.588M318.24 222.006s-1.926-1.548-2.892-1.35c-.966.192-3.474.966-3.474.966s1.548.768 2.898.96c1.35.198 3.468-.576 3.468-.576M325.188 222.192s-1.932-1.536-2.892-1.344c-.966.198-3.474.972-3.474.972s1.542.762 2.892.96c1.35.186 3.474-.588 3.474-.588M313.614 226.836s-1.932-1.548-2.898-1.35c-.96.186-3.468.948-3.468.948s1.542.774 2.892.972c1.35.192 3.474-.57 3.474-.57M319.59 228.756s-1.926-1.548-2.892-1.35c-.966.192-3.474.966-3.474.966s1.548.768 2.898.972c1.35.186 3.468-.588 3.468-.588M329.142 228.114s-1.932-1.548-2.892-1.35c-.966.186-3.474.948-3.474.948s1.542.774 2.892.972c1.35.192 3.474-.57 3.474-.57" fill="#ffea0f" stroke="#ffea0f"/><path d="M285.066 260.586l11.184.582-2.7 1.926 4.05-2.508 11.766-.39" fill="#ffea0f" stroke="#ffea0f" stroke-width="2.316"/><path d="M305.682 265.212s-1.932-1.548-2.898-1.344c-.96.198-3.468.96-3.468.96s1.542.774 2.892.972c1.35.186 3.474-.588 3.474-.588M306.864 267.918s-1.932-1.542-2.898-1.344c-.96.186-3.468.96-3.468.96s1.542.774 2.892.96c1.35.186 3.474-.576 3.474-.576M299.916 271.002s-1.926-1.548-2.892-1.35c-.966.192-3.474.966-3.474.966s1.542.768 2.892.972c1.356.186 3.474-.588 3.474-.588M308.79 279.3s-1.926-1.548-2.892-1.35c-.966.186-3.474.96-3.474.96s1.542.774 2.892.966c1.35.198 3.474-.576 3.474-.576" fill="#ffea0f" stroke="#ffea0f"/><path d="M320.604 286.002s3.858-.774 6.174-.96c2.316-.198 3.09.186 5.4 1.344 2.316 1.152.576 1.536.768 3.858.192 2.31-5.01 3.084-9.45 3.468-4.434.39-2.892-3.468-2.7-8.298.192-4.812-1.158-4.038-5.016-4.038-3.852 0-9.834 3.276-9.834 3.276l5.208 2.7-.582 3.468 9.456-1.152" fill="none" stroke="#ffea0f" stroke-width="2.316" stroke-linecap="round"/><path d="M426.894 287.16s-5.982-4.824-9.84-5.4c-3.858-.588-6.75-.588-6.168 3.468.576 4.044 1.302 6.612 1.302 6.612s1.008-.246 3.906-.246c2.892 0 4.626 1.158 4.626 1.158l.39-4.428 5.784-1.164zm-98.382-8.496s-1.926 8.1 7.14 7.722c9.066-.384 67.71-.198 67.71-.198s4.242-.57 4.05-4.242c-.192-3.654 1.92-6.36-10.224-6.936-12.156-.588-62.694-.588-62.694-.588s-6.366-.57-5.982 4.242z" fill="none" stroke="#ffea0f" stroke-width="2.316"/><path d="M402.156 286.626s.126 4.5 3.084 5.784c6.174 2.712 8.874-.186 8.874-.186m-3.666-8.106l-3.276.768" fill="none" stroke="#ffea0f" stroke-width="2.316" stroke-linecap="round"/><path d="M358.838 287.092l2.5 4.22-4.438-1.907-1.156 1.72 2.875 2.905-4.813-.78-1.906 4.06 9.438 1.532-.97 6.75-8.686-.78-3.063-8.657-2.907.375 1.938 8.5-11-.22 3.094 10.44h2.125l-1.75-7.345 8.687.594.97 3.655-5.22-1.156.375 3.28 9.28 2.906 1.532 4.625s3.082 1.33 7.906 1.907c4.825.588 17.938-.562 17.938-.562l-.594-4.25s1.357-.967 4.063-2.125c2.7-1.158 5.593-8.47 5.594-8.47l2.907-1.155-3.28-1.344 4.81-6.968 8.314-.187v-1.938l-8.874-.187-3.282 2.125 2.125-3.47 7.312-.78.187-1.53-8.876-.22-10.22 12.375-2.498-.406.375-6.563 3.094.782-1.344-1.937 2.5-.75-1.343-1.156 1.156-2.126-5.78-1.157 2.686-3.093-2.313-1.344-3.844 3.28.938-3.28h-7.124l-.375 2.906-1.156-3.094h-3.28l-.188 2.688-.97-2.5-3.468-.188zm-.78 21.032l.374 1.937-3.47 3.064-1.936-4.813 5.03-.186z" fill="#ffea0f"/><path d="M360.366 315.252l-2.118 3.084m8.1 2.118l1.158-2.118m4.434 2.892l.582-2.118m-8.298-13.704h8.682m5.208 3.48l-4.632 6.942h6.366" fill="none" stroke="#002a86" stroke-width="2.316" stroke-linecap="round"/><path d="M338.916 278.55h-2.244v-1.302h6.582v1.302h-2.304v5.376h-2.034v-5.376" fill="#ffea0f" stroke="#ffea0f"/><path d="M344.034 283.926v-6.678h2.046v2.646h2.49v-2.646h2.028v6.678h-2.028v-2.742h-2.502v2.742h-2.034M351.984 283.926v-6.678h5.598v1.302h-3.564v1.368h3.276v1.29h-3.276v1.422h3.564v1.284h-5.598M369.216 277.248v4.23c-.018 1.854-1.656 2.58-3.504 2.58-1.854 0-3.492-.714-3.51-2.58v-4.23h2.034v4.14c.03.84.516 1.38 1.476 1.38.954 0 1.44-.54 1.47-1.38v-4.14h2.028M370.608 277.248h2.85l2.46 4.968.024-.012v-4.956h1.824v6.678h-2.82l-2.484-5.118h-.018v5.118h-1.836v-6.678M379.062 283.913h2.094v-6.653h-2.094v6.653zM382.26 280.59c0-2.202 1.368-3.48 3.804-3.48 2.43 0 3.804 1.278 3.804 3.48s-1.374 3.48-3.804 3.48c-2.436 0-3.804-1.278-3.804-3.48zm3.804-2.196c-1.386 0-1.668 1.176-1.668 2.22 0 .996.282 2.154 1.668 2.154 1.38 0 1.668-1.158 1.668-2.154 0-1.044-.288-2.22-1.668-2.22M390.96 277.248h2.85l2.46 4.968.024-.012v-4.956h1.83v6.678h-2.82l-2.49-5.118h-.018v5.118h-1.836v-6.678M258.696 209.844l1.956 3.078 3.06.39-2.046 2.718.498 3.444-3.144-1.524-3.414 1.152.774-3.06-2.124-2.73 3.132-.39 1.308-3.078M258.636 196.356l1.962 3.078 3.054.39-2.046 2.718.504 3.444-3.144-1.524-3.414 1.152.768-3.06-2.118-2.73 3.132-.39 1.302-3.078M262.698 181.308l1.572 3.306 2.982.75-2.364 2.448.078 3.492-2.934-1.902-3.528.708 1.14-2.946-1.77-2.964 3.156.012 1.668-2.916M267.552 167.43l1.566 3.306 2.988.75-2.364 2.46.072 3.48-2.934-1.896-3.528.714 1.146-2.952-1.776-2.964 3.156.012 1.674-2.91M259.632 222.792l2.004 3.072 3.06.324-2.01 2.754.552 3.444-3.168-1.488-3.396 1.2.732-3.072-2.166-2.694 3.132-.426 1.26-3.114M261.288 236.688l2.004 3.06 3.06.354-2.01 2.742.546 3.444-3.156-1.488-3.402 1.194.732-3.072-2.16-2.694 3.126-.42 1.26-3.12M265.884 249.438l2.148 2.964 3.072.204-1.878 2.844.714 3.402-3.228-1.326-3.342 1.35.582-3.108-2.286-2.592 3.108-.558 1.11-3.18M270.384 261.078l2.148 2.964 3.072.186-1.878 2.862.714 3.396-3.228-1.326-3.342 1.35.582-3.108-2.286-2.586 3.102-.576 1.116-3.162M277.326 273.228l2.148 2.964 3.072.198-1.872 2.838.714 3.408-3.234-1.32-3.336 1.344.582-3.102-2.286-2.592 3.102-.576 1.11-3.162M284.85 284.808l2.148 2.964 3.072.186-1.872 2.85.714 3.408-3.234-1.326-3.336 1.338.582-3.096-2.286-2.586 3.102-.576 1.11-3.162M293.34 295.224l2.148 2.964 3.072.192-1.878 2.844.714 3.408-3.234-1.332-3.336 1.356.582-3.114-2.286-2.58 3.102-.576 1.116-3.162M303.948 305.058l2.148 2.964 3.072.198-1.872 2.838.708 3.408-3.228-1.326-3.342 1.35.588-3.102-2.292-2.592 3.108-.576 1.11-3.162M315.918 312.558l1.89 3.126 3.048.456-2.106 2.676.426 3.456-3.108-1.596-3.444 1.068.84-3.048-2.058-2.766 3.138-.312 1.374-3.06M326.616 320.352l1.89 3.126 3.048.456-2.106 2.676.426 3.456-3.114-1.596-3.438 1.068.84-3.048-2.058-2.766 3.138-.318 1.374-3.054M338.766 327.3l1.896 3.126 3.042.45-2.106 2.682.426 3.456-3.108-1.596-3.438 1.056.84-3.036-2.064-2.778 3.138-.3 1.368-3.06M353.232 331.542l1.896 3.126 3.042.45-2.106 2.682.426 3.456-3.108-1.596-3.438 1.068.84-3.048-2.064-2.778 3.144-.3 1.362-3.06M368.088 334.236l1.89 3.144 3.048.444-2.106 2.67.426 3.456-3.108-1.59-3.444 1.062.846-3.042-2.064-2.766 3.138-.306 1.368-3.072M292.356 409.86h12.6v-44.406h-12.6v44.406zM330.75 387.672c-5.412-.762-7.296-4.206-7.296-9.996 0-9.036 7.23-11.574 14.55-11.574 7.956 0 13.998 2.472 13.998 11.574 0 5.472-1.398 9.366-6.234 10.056v.33c6.24.63 9.702 5.892 9.702 12.762 0 10.44-10.278 11.226-18.678 11.226-7.698 0-16.428-3.21-16.428-12.39 0-6.936 4.02-10.968 10.386-11.796v-.192zm14.064 10.056c0-4.194-3.054-6.048-6.81-6.048s-6.81 1.854-6.81 6.048c0 4.206 3.054 6.048 6.81 6.048s6.81-1.842 6.81-6.048zm-12.732-19.158c0 3.432 2.418 5.472 5.922 5.472 3.498 0 5.916-2.04 5.916-5.472 0-3.438-2.418-5.472-5.916-5.472-3.504 0-5.922 2.034-5.922 5.472M372.06 398.13c1.158.768 4.92 3.078 8.106 3.078 4.392 0 5.778-1.266 5.778-5.016 0-4.062-1.92-6.948-3.846-6.786-2.22.18-7.788 1.02-8.106 3.318l-6.948-2.694 4.368-22.71 24.594.048v8.268l-15.456-.276-1.542 6.948c.384-1.164.756-.39 5.4-.39 8.592 0 13.89 5.298 13.89 13.5 0 10.254-6.15 15.822-16.206 15.822-9.294 0-11.958-3.084-13.89-3.852l3.858-9.258M417.972 401.598c.066 1.464 4.608.606 5.688 1.242 1.086.63 2.25-.672 3.57-.858 2.7-.384 6.306-2.436 6.558-8.094-2.478 3.114-6.054 2.832-10.026 2.304-5.79-.774-11.19-6.066-11.19-14.658 0-10.632 5.94-15.234 15.612-15.48 12.93-.33 18.012 11.376 17.568 24.738-.192 6.114-2.856 12.96-5.4 15.444-4.524 4.386-9.264 5.394-13.314 5.766-7.8.726-12.54-1.524-12.54-1.524l3.474-8.88zm10.02-27.27c-4.266 0-6.876 2.598-6.876 6.618 0 4.572 2.928 6.612 6.876 6.612 4.584 0 6.87-3.564 6.87-6.612 0-4.266-2.736-6.618-6.87-6.618M137.88 67.974l-6.366 5.202s-3.762-3.762-7.236-3.468c-3.462.294-7.212 4.536.582 9.552 8.1 5.202 9.486 11.79 9.258 17.076-.288 6.642-5.76 11.376-11.574 11.562-8.97.294-17.94-5.496-17.94-5.496l5.208-8.388 9.546 4.056s4.632 0 3.762-4.926c-.864-4.908-9.672-13.92-11.862-17.94-3.468-6.36 4.344-16.194 10.128-15.618 8.64.864 11.574 2.028 13.02 3.762 1.446 1.734 3.474 4.626 3.474 4.626M143.958 62.184v10.71l10.416-.864.288 33.846 10.704-1.152-.288-33.564 9.258-1.746-.576-9.534-29.802 2.316M204.713 56.405l-13.875 1.156-9.844 46.314 10.72-.313 2.593-7.218 11.844-1.156 2.344 4.906 9.53-2.03-13.31-41.657zm-6.063 13.312l5.782 16.782-9.563 1.436 3.78-18.22zM219.474 53.208v9.846l11.868-1.44.576 35.292 12.726-2.022-.282-34.728 8.388-2.598V47.43l-33.276 5.778M262.302 45.696l1.158 44.556 27.774-4.056-.576-9.258-16.206 1.734.288-7.512 7.23-1.452-.282-8.388-6.366.294-.582-8.982 17.076-3.174-.87-9.27-28.644 5.508M338.12 37.874c-9.56.396-19.41 6.077-18.25 20.843 1.673 21.378 10.134 27.188 19.968 27.188 9.84 0 17.67-13.295 17.094-24.875-.582-11.568-4.923-23.732-18.813-23.156zm.312 8.687c.183-.01.38-.005.562 0 8.1.295 8.094 9.268 8.094 14.47 0 5.214-1.15 14.17-9.25 13.875-8.106-.276-7.817-8.965-8.688-15.03-.84-5.87 4.24-12.988 9.282-13.314zM387.3 39.042l-23.436-.588-.288 45.726h11.28V64.8h5.214l-.294-8.682-5.208-.294V46.86l13.026.276-.294-8.094M432.65 42c-9.426.186-19.166 5.565-18.593 20.124.84 21.42 9.078 27.56 18.906 27.937 9.834.385 18.126-12.6 18-24.186-.126-11.592-3.973-23.91-17.875-23.875-.15 0-.288-.004-.438 0zm.344 8.686c.205-.007.422.016.625.03 8.08.613 7.734 9.58 7.53 14.783-.203 5.2-1.724 14.11-9.812 13.5-8.082-.6-7.432-9.268-8.063-15.376-.6-5.875 4.688-12.75 9.72-12.938zM460.338 45.31c-1.015.01-1.563.095-1.563.095L457.62 94l9.25 1.75.593-11L483.37 99.5l1.718-10.126L476.994 81s11.288-6.097 11-13.033c-.294-6.936-2.028-15.337-12.156-19.375-7.28-2.915-12.907-3.3-15.5-3.28zM470.4 57.75c1.51-.04 3.393.155 5.157.967 3.762 1.734 2.595 8.67 1.437 12.157-1.158 3.468-10.125 4.03-10.125 4.03l.593-16.78s1.226-.33 2.938-.375zM498.702 54.66l-2.892 44.85 24.018 5.214.576-9.84-12.732-4.044.288-7.242h6.654l.294-9.54-6.078-1.164v-7.8l11.574 1.44.576-8.682-22.278-3.18M560.046 73.176l-6.948 5.214s-4.05-7.518-11.28-3.48c-7.236 4.056-7.236 11.58-6.078 16.782 1.158 5.214 2.652 10.326 7.524 11.004 8.388 1.152 6.366-4.056 6.366-4.056l-5.208-.57-.294-9.552 15.63.87s.546 16.884-3.474 19.968c-4.92 3.762-16.35 6.792-23.436-.294-6.078-6.084-8.34-14.556-7.23-23.718.696-5.778 3.468-15.342 8.964-18.234 5.496-2.898 12.15-3.762 15.624-2.31 3.474 1.44 9.84 8.388 9.84 8.388M584.994 69.124c-9.558.39-19.377 6.09-18.22 20.843 1.675 21.39 10.13 27.188 19.97 27.188 9.834 0 17.64-13.295 17.063-24.875-.582-11.58-4.923-23.738-18.813-23.156zm.375 8.687c.163-.008.336-.005.5 0 8.1.295 8.093 9.256 8.093 14.47 0 5.202-1.15 14.17-9.25 13.875-8.1-.288-7.818-8.953-8.688-15.03-.842-5.895 4.282-13.043 9.344-13.314zM610.974 70.872l.576 44.844 9.84-.294.288-19.086 12.726 17.352h10.992l-1.446-45.714-10.128.87 1.158 23.718-16.782-21.984-7.23.294M476.796 210.99l-1.962 3.096-3.054.384 2.046 2.718-.498 3.444 3.144-1.518 3.414 1.134-.774-3.06 2.124-2.718-3.132-.384-1.308-3.084M476.856 197.502l-1.962 3.096-3.054.384 2.046 2.718-.504 3.444 3.144-1.518 3.414 1.134-.768-3.06 2.118-2.718-3.132-.384-1.302-3.084M472.788 182.454l-1.566 3.318-2.982.75 2.364 2.448-.078 3.492 2.934-1.908 3.528.714-1.14-2.94 1.77-2.964-3.156.012-1.674-2.922M467.94 168.594l-1.566 3.3-2.988.75 2.364 2.466-.072 3.468 2.928-1.902 3.534.726-1.146-2.952 1.776-2.964-3.156.012-1.674-2.904M475.86 223.95l-2.004 3.06-3.06.342 2.01 2.754-.552 3.444 3.168-1.488 3.396 1.182-.732-3.06 2.16-2.706-3.126-.408-1.26-3.12M474.204 237.852l-2.004 3.054-3.06.342 2.01 2.754-.552 3.444 3.162-1.488 3.402 1.194-.732-3.066 2.16-2.706-3.126-.414-1.26-3.114M469.608 250.602l-2.148 2.964-3.072.186 1.878 2.85-.714 3.408 3.228-1.326 3.342 1.35-.582-3.108 2.286-2.586-3.102-.576-1.116-3.162M465.108 262.236l-2.148 2.964-3.072.186 1.878 2.85-.714 3.408 3.228-1.332 3.342 1.356-.582-3.102 2.286-2.592-3.102-.576-1.116-3.162M458.166 274.386l-2.148 2.97-3.072.198 1.872 2.832-.714 3.414 3.234-1.338 3.336 1.35-.582-3.096 2.286-2.586-3.102-.576-1.11-3.168M450.642 285.966l-2.148 2.964-3.072.192 1.872 2.844-.708 3.414 3.228-1.338 3.336 1.344-.582-3.102 2.286-2.58-3.102-.57-1.11-3.168M442.152 296.388l-2.148 2.964-3.072.186 1.878 2.85-.714 3.396 3.234-1.326 3.336 1.35-.582-3.108 2.286-2.574-3.102-.588-1.116-3.15M431.544 306.216l-2.148 2.964-3.072.204 1.878 2.832-.714 3.414 3.228-1.338 3.342 1.356-.588-3.102 2.286-2.592-3.102-.57-1.11-3.168M419.574 313.716l-1.89 3.132-3.048.456 2.106 2.67-.426 3.456 3.108-1.59 3.444 1.062-.846-3.042 2.064-2.766-3.138-.318-1.374-3.06M408.876 321.498l-1.89 3.138-3.048.45 2.106 2.682-.426 3.456 3.114-1.59 3.438 1.062-.84-3.048 2.058-2.772-3.138-.306-1.374-3.06M396.726 328.446l-1.89 3.144-3.048.444 2.106 2.67-.426 3.468 3.108-1.602 3.438 1.062-.84-3.03 2.064-2.778-3.138-.306-1.374-3.06M382.254 332.688l-1.89 3.144-3.042.444 2.106 2.682-.426 3.456 3.108-1.602 3.438 1.068-.84-3.048 2.064-2.766-3.144-.318-1.374-3.06" fill="#ffea0f"/></svg>