<svg xmlns="http://www.w3.org/2000/svg" color-interpolation="auto" font-size="12" font-weight="400" height="496.063" stroke-miterlimit="10" width="531.496" version="1" stroke="#000" stroke-linecap="square" font-family="Dialog"><path d="M-4737.384 4138.85" stroke="none"/><path d="M0 0h531.496v496.063H0z" fill="#fec500" fill-rule="evenodd" stroke="none"/><path d="M0 17.717h513.78v460.63H0z" fill-rule="evenodd" stroke="none" fill="#fff"/><path d="M180.454 308.635s12.204 13.948 17.435 16.563c5.23 2.616 30.512 16.564 30.512 16.564l-.872 20.05s-14.82-3.487-31.383-13.076c-16.564-9.59-31.384-25.281-31.384-25.281l17.435.872-1.743-15.692zM281.578 360.94s20.05-4.358 33.998-14.82c13.948-10.46 27.897-22.665 27.897-22.665l-16.564 1.743 1.744-16.563s-13.077 13.076-21.794 19.179c-8.718 6.102-27.025 11.333-27.025 11.333l1.744 21.794z" fill="#003271" fill-rule="evenodd" stroke="#fff" stroke-width=".6001429500000001" stroke-linecap="butt" stroke-miterlimit="4"/><path d="M210.965 319.096s22.666 12.205 41.845 11.333c19.178-.872 43.588-11.333 43.588-11.333l.871 27.896s-27.024 9.59-43.587 9.59c-16.564 0-42.717-9.59-42.717-9.59v-27.896z" fill="#003271" fill-rule="evenodd" stroke="#fff" stroke-width=".6001429500000001" stroke-linecap="butt" stroke-miterlimit="4"/><path d="M210.989 346.828l16.375 14.701M296.94 346.992l-15.198 13.501" fill="none" stroke="#fff" stroke-width=".6001429500000001" stroke-linecap="butt" stroke-miterlimit="4"/><path d="M216.688 328.597l-.283 15.558 4.526 1.698v-6.224l6.79.283-.284 7.355 4.526.849.283-16.408-3.96-.282-.566 5.091-6.506-.565v-6.224l-4.526-1.131zM280.902 348.116l-.283-17.822 12.164-3.677v3.96l-7.92 2.546v3.677l7.637-2.829-.283 4.244-7.355 1.697-.282 4.243 8.203-3.111.283 2.828-12.164 4.244zM242.713 342.175s-.283-5.94 3.677-5.94 4.527 4.526 4.244 6.506c-.283 1.98-.849 5.375-3.678 5.657-2.829.283-3.96-1.98-4.243-6.223zm3.96 9.618c5.083-.134 7.638-3.395 7.638-9.9 0-6.224-4.526-9.053-7.92-9.053-3.395 0-7.638 4.243-7.638 9.335 0 5.092 2.254 9.767 7.92 9.618zM265.627 336.517v4.244s5.94.282 5.94-2.546c0-2.83-5.092-1.415-5.94-1.698zm-3.96 15.276l-.567-17.539 6.79-.565c3.1-.259 7.637 1.131 7.355 3.96-.283 2.829-.605 5.342-5.092 5.94l-4.244.566-.283 7.355-3.96.283z" fill="#fec500" fill-rule="evenodd" stroke="none"/><path d="M250.194 166.539s-.871 95.893-.871 102.867c0 6.974 0 16.563-7.846 14.82-7.846-1.744-17.435-1.744-31.383-11.333-13.948-9.59-13.948-11.333-13.948-11.333l13.076-4.359s-13.076-2.615-21.794-8.717c-8.718-6.103-15.692-11.333-15.692-11.333s-.872 13.076 3.487 22.666c4.36 9.589 13.077 18.307 13.077 18.307V266.79s12.204 11.333 16.563 13.948c4.359 2.615 21.794 9.59 28.768 13.948 6.974 4.359 20.922 16.563 20.922 16.563s12.205-13.948 20.922-17.435c8.718-3.487 20.051-8.717 25.281-12.204 5.231-3.487 19.18-16.564 19.18-16.564v14.82s9.589-11.333 12.204-19.179c2.615-7.845 3.487-21.794 3.487-21.794s-6.974 5.23-13.077 7.846c-6.102 2.616-23.537 9.59-23.537 9.59l13.948 3.487s-22.666 17.435-30.511 20.922c-7.846 3.487-24.41 5.23-24.41-3.487 0-8.718.872-110.713.872-110.713h-8.718z" fill="#fec500" fill-rule="evenodd" stroke="#fec500" stroke-width="1.3340421" stroke-linecap="butt"/><path fill="#fec500" fill-rule="evenodd" stroke="#fec500" stroke-width=".9996515999999999" d="M251.066 134.284h6.102v26.153h-6.102z"/><path d="M207.478 160.436s24.41-5.23 47.075-5.23c22.666 0 46.203 5.23 46.203 5.23v9.59s-31.383 4.358-49.69 4.358-44.46-5.23-44.46-5.23l.872-8.718z" fill="#fec500" fill-rule="evenodd" stroke="#fff" stroke-width="1.3340421" stroke-linecap="butt"/><path d="M263.27 156.077c0 5.778-4.097 10.461-9.153 10.461-5.055 0-9.153-4.683-9.153-10.46 0-5.778 4.098-10.462 9.153-10.462 5.056 0 9.154 4.684 9.154 10.461zm4.36-.435c0 7.944-6.245 14.384-13.948 14.384-7.704 0-13.949-6.44-13.949-14.384 0-7.945 6.245-14.384 13.949-14.384 7.703 0 13.948 6.44 13.948 14.384z" fill="#fec500" fill-rule="evenodd" stroke="#fff" stroke-width="1.2495645"/><path d="M254.965 59.252l7.581 18.55 20.3 1.859-15.657 12.8 4.47 19.496-17.258-10.64-17.538 10.191 4.991-19.375-15.307-13.198 20.342-1.335zM344.778 81.199l-2.673 19.86 16.673 11.729-19.953 3.293-5.842 19.13-9.66-17.824-20.282.095 13.983-14.31L310.33 84.1l18.301 8.98zM410.903 141.309l-11.015 16.74 9.944 17.795-19.409-5.677-13.554 14.71-.982-20.25-18.321-8.703 18.802-6.838 2.232-20.089 12.602 16.024zM442.347 229.097l-17.421 9.902.765 20.37-14.705-13.882-18.761 6.938 8.333-18.482-12.36-16.082 19.856 2.46 11.121-16.877 3.938 20.002zM433.113 320.383l-20.025.755-8.712 18.428-6.65-19.098-19.846-2.493 15.916-12.558-3.554-19.97 16.486 11.337 17.65-9.849-5.727 19.565zM164.895 80.995l14.964 13.33 19.05-7.254-8.436 18.378 12.584 15.548-20.177-1.97-11.273 16.862-4.034-19.596-19.55-5.126 17.684-10.141zM302.052 382.847l.287 20.038 18.22 9.14-19.249 6.201-2.956 19.783-12.183-16.205-20.047 3.086 11.719-16.216-9.434-17.876 19.426 6.183zM128.627 131.165l1.652 19.972 18.8 7.877-18.78 7.498-1.602 19.939-13.26-15.337-19.79 4.445 10.588-16.977-10.63-17.192 19.802 4.845zM87.751 203.493l10.98 16.765 20.28-2.046-12.928 15.55 8.104 18.287-18.97-7.154-15.272 13.348 1.205-19.971-17.543-10.038 19.714-5.19zM84.539 285.795l17.729 9.342 16.747-11.62-3.77 19.867 15.952 12.067-20.06 2.938-6.888 19.077-8.626-18.052-20.21-.276 14.728-14.094zM149.844 343.644l5.436 19.289 19.96 4.141-17.004 10.948 2.237 19.877-15.945-12.523-18.576 8.144 7.149-18.687-13.718-14.844 20.363.973zM236.599 391.3l-9.231 17.787 11.724 16.676-19.891-3.648-11.967 16.028-3.063-20.042-19.12-6.769 17.998-8.738.15-20.212 14.187 14.64zM358.465 344.543l10.126 17.293 20.359-1.028-13.692 14.883 7.18 18.67-18.588-8.095-15.922 12.567 2.204-19.886-17.02-10.903 19.95-4.196z" fill="#fec500" fill-rule="evenodd" stroke="none"/></svg>