<svg xmlns="http://www.w3.org/2000/svg" color-interpolation="auto" font-size="12" height="496.063" stroke-miterlimit="10" width="531.496" version="1" stroke="#000" stroke-linecap="square" font-family="Dialog"><path d="M-4737.384 4138.85" stroke="none"/><path d="M0 0h531.496v496.063H0z" fill="#fec500" fill-rule="evenodd" stroke="none" stroke-width="1.75995"/><path d="M0 17.717h513.78v460.63H0z" fill-rule="evenodd" stroke="none" fill="#fff" stroke-width="1.75995"/><path d="M180.454 308.635s12.204 13.948 17.435 16.563c5.23 2.616 30.51 16.564 30.51 16.564l-.87 20.05s-14.82-3.487-31.384-13.076c-16.564-9.59-31.384-25.28-31.384-25.28l17.435.87-1.743-15.69zM281.578 360.94s20.05-4.358 33.998-14.82c13.948-10.46 27.897-22.665 27.897-22.665l-16.564 1.743 1.743-16.563s-13.077 13.076-21.794 19.18c-8.72 6.1-27.026 11.332-27.026 11.332l1.744 21.794z" fill="#003271" fill-rule="evenodd" stroke="#fff" stroke-width=".6001429500000001" stroke-linecap="butt" stroke-miterlimit="4"/><path d="M210.965 319.096S233.63 331.3 252.81 330.43c19.178-.873 43.588-11.334 43.588-11.334l.87 27.896s-27.023 9.59-43.586 9.59c-16.564 0-42.717-9.59-42.717-9.59v-27.896z" fill="#003271" fill-rule="evenodd" stroke="#fff" stroke-width=".6001429500000001" stroke-linecap="butt" stroke-miterlimit="4"/><path d="M210.99 346.828l16.374 14.7M296.94 346.992l-15.198 13.5" fill="none" stroke="#fff" stroke-width=".6001429500000001" stroke-linecap="butt" stroke-miterlimit="4"/><path d="M216.688 328.597l-.283 15.558 4.526 1.698v-6.224l6.79.282-.283 7.355 4.526.85.283-16.41-3.96-.28-.566 5.09-6.506-.565v-6.224l-4.526-1.13zM280.902 348.116l-.283-17.822 12.163-3.677v3.96l-7.92 2.546v3.677l7.637-2.83-.283 4.245-7.355 1.697-.282 4.243 8.203-3.11.283 2.827-12.164 4.244zM242.713 342.175s-.283-5.94 3.677-5.94 4.527 4.526 4.244 6.506c-.283 1.98-.85 5.376-3.678 5.658-2.83.283-3.96-1.98-4.243-6.223zm3.96 9.618c5.083-.134 7.638-3.395 7.638-9.9 0-6.224-4.525-9.053-7.92-9.053-3.394 0-7.637 4.243-7.637 9.335 0 5.092 2.254 9.767 7.92 9.618zM265.627 336.517v4.244s5.94.283 5.94-2.545c0-2.83-5.092-1.415-5.94-1.698zm-3.96 15.276l-.567-17.54 6.79-.564c3.1-.26 7.637 1.13 7.355 3.96-.283 2.828-.605 5.34-5.092 5.94l-4.244.565-.284 7.355-3.96.283z" fill="#fec500" fill-rule="evenodd" stroke="none" stroke-width="1.75995"/><path d="M250.194 166.54s-.87 95.892-.87 102.866c0 6.974 0 16.563-7.847 14.82-7.846-1.744-17.435-1.744-31.383-11.333-13.948-9.59-13.948-11.333-13.948-11.333l13.076-4.36s-13.076-2.614-21.794-8.716c-8.718-6.103-15.692-11.333-15.692-11.333s-.872 13.077 3.487 22.667c4.36 9.59 13.077 18.307 13.077 18.307V266.79s12.204 11.334 16.563 13.95c4.36 2.614 21.794 9.588 28.768 13.947 6.975 4.36 20.923 16.563 20.923 16.563s12.205-13.948 20.922-17.435c8.718-3.487 20.05-8.717 25.28-12.204 5.232-3.486 19.18-16.563 19.18-16.563v14.82s9.59-11.333 12.205-19.18c2.615-7.844 3.487-21.793 3.487-21.793s-6.974 5.23-13.077 7.846c-6.102 2.616-23.537 9.59-23.537 9.59l13.948 3.487s-22.665 17.435-30.51 20.922c-7.846 3.486-24.41 5.23-24.41-3.488s.872-110.713.872-110.713h-8.718z" fill="#fec500" fill-rule="evenodd" stroke="#fec500" stroke-width="1.3340421" stroke-linecap="butt"/><path fill="#fec500" fill-rule="evenodd" stroke="#fec500" stroke-width=".9996515999999999" d="M251.066 134.284h6.102v26.153h-6.102z"/><path d="M207.478 160.436s24.41-5.23 47.075-5.23c22.666 0 46.203 5.23 46.203 5.23v9.59s-31.383 4.358-49.69 4.358-44.46-5.23-44.46-5.23l.872-8.718z" fill="#fec500" fill-rule="evenodd" stroke="#fff" stroke-width="1.3340421" stroke-linecap="butt"/><path d="M263.27 156.077c0 5.778-4.097 10.46-9.153 10.46-5.055 0-9.153-4.682-9.153-10.46 0-5.777 4.098-10.46 9.153-10.46 5.056 0 9.154 4.683 9.154 10.46zm4.36-.435c0 7.944-6.245 14.384-13.948 14.384-7.704 0-13.95-6.44-13.95-14.384 0-7.945 6.246-14.384 13.95-14.384 7.703 0 13.948 6.44 13.948 14.384z" fill="#fec500" fill-rule="evenodd" stroke="#fff" stroke-width="1.2495645"/><path transform="matrix(.9 0 0 .9 24.4 7.7)" d="M248.45 56.693l8.17 20.39 21.87 2.044-16.87 14.07 4.816 21.432-18.593-11.697-18.895 11.202 5.377-21.297-16.493-14.51 21.917-1.466z" fill="#fec500" fill-rule="evenodd" stroke="none"/><path transform="matrix(.8 .5 -.5 .8 170.6 -78.4)" d="M248.45 56.693l8.17 20.39 21.87 2.044-16.87 14.07 4.816 21.432-18.593-11.697-18.895 11.202 5.377-21.297-16.493-14.51 21.917-1.466z" fill="#fec500" fill-rule="evenodd" stroke="none"/><path transform="matrix(.5 .8 -.8 .5 323.1 -78.1)" d="M248.45 56.693l8.17 20.39 21.87 2.044-16.87 14.07 4.816 21.432-18.593-11.697-18.895 11.202 5.377-21.297-16.493-14.51 21.917-1.466z" fill="#fec500" fill-rule="evenodd" stroke="none"/><path transform="matrix(.1 .9 -.9 .1 463.9 -6.2)" d="M248.45 56.693l8.17 20.39 21.87 2.044-16.87 14.07 4.816 21.432-18.593-11.697-18.895 11.202 5.377-21.297-16.493-14.51 21.917-1.466z" fill="#fec500" fill-rule="evenodd" stroke="none"/><path transform="matrix(-.3 .9 -.9 -.3 560.7 121.5)" d="M248.45 56.693l8.17 20.39 21.87 2.044-16.87 14.07 4.816 21.432-18.593-11.697-18.895 11.202 5.377-21.297-16.493-14.51 21.917-1.466z" fill="#fec500" fill-rule="evenodd" stroke="none"/><path transform="matrix(.8 -.4 .4 .8 -64.9 136)" d="M248.45 56.693l8.17 20.39 21.87 2.044-16.87 14.07 4.816 21.432-18.593-11.697-18.895 11.202 5.377-21.297-16.493-14.51 21.917-1.466z" fill="#fec500" fill-rule="evenodd" stroke="none"/><path transform="matrix(.9 .3 -.3 .8 106.2 250.7)" d="M248.45 56.693l8.17 20.39 21.87 2.044-16.87 14.07 4.816 21.432-18.593-11.697-18.895 11.202 5.377-21.297-16.493-14.51 21.917-1.466z" fill="#fec500" fill-rule="evenodd" stroke="none"/><path transform="matrix(.9 .3 -.3 .9 -75.8 12.6)" d="M248.45 56.693l8.17 20.39 21.87 2.044-16.87 14.07 4.816 21.432-18.593-11.697-18.895 11.202 5.377-21.297-16.493-14.51 21.917-1.466z" fill="#fec500" fill-rule="evenodd" stroke="none"/><path transform="matrix(.9 -.2 .2 .9 -148.4 196.8)" d="M248.45 56.693l8.17 20.39 21.87 2.044-16.87 14.07 4.816 21.432-18.593-11.697-18.895 11.202 5.377-21.297-16.493-14.51 21.917-1.466z" fill="#fec500" fill-rule="evenodd" stroke="none"/><path transform="matrix(.7 -.6 .6 .7 -125.3 394.5)" d="M248.45 56.693l8.17 20.39 21.87 2.044-16.87 14.07 4.816 21.432-18.593-11.697-18.895 11.202 5.377-21.297-16.493-14.51 21.917-1.466z" fill="#fec500" fill-rule="evenodd" stroke="none"/><path transform="matrix(.9 .1 -.1 .9 -73.4 266.3)" d="M248.45 56.693l8.17 20.39 21.87 2.044-16.87 14.07 4.816 21.432-18.593-11.697-18.895 11.202 5.377-21.297-16.493-14.51 21.917-1.466z" fill="#fec500" fill-rule="evenodd" stroke="none"/><path transform="matrix(.6 .7 -.7 .6 126.6 182.2)" d="M248.45 56.693l8.17 20.39 21.87 2.044-16.87 14.07 4.816 21.432-18.593-11.697-18.895 11.202 5.377-21.297-16.493-14.51 21.917-1.466z" fill="#fec500" fill-rule="evenodd" stroke="none"/><path transform="matrix(.9 -.1 .1 .9 122.9 326.1)" d="M248.45 56.693l8.17 20.39 21.87 2.044-16.87 14.07 4.816 21.432-18.593-11.697-18.895 11.202 5.377-21.297-16.493-14.51 21.917-1.466z" fill="#fec500" fill-rule="evenodd" stroke="none"/></svg>