<svg xmlns="http://www.w3.org/2000/svg" width="750" height="500"><path fill="#036" d="M0 0h750v500H0z"/><path d="M41.52 93.346c-21.148 70.5 63.886 127.468 121.808 76.353 60.744-63.783-7.044-149.93-77.44-122.43 51.378-8.834 82.003 50.53 47.454 87.572-33.37 34.09-94.226 11.688-91.822-41.496zM412.563 84.605c-2.695 1.253-4.685 4.898-5.822 7.775-2.698 8.032-5.473 16.047-8.185 24.065-1.416 3.605-2.78 7.274-4.207 10.85-2.616-.352 1.032-4.822.83-6.735.866-3.926 2.788-7.763 2.952-11.77-.657-3 .067-6.894-1.423-9.336-2.223 5.13-5.04 10.044-6.952 15.29-1.44 6.294-3.37 12.477-4.177 18.9-.482 3.325-1.067 6.603-2.147 9.79-2.66-.247-1.958-4.94-3.524-6.873-1.42-4.518-4.282-8.428-6.35-12.67-1.057-1.05-3.485-8.436-3.44-4.32-.24 2.974-.443 5.95-.716 8.922-5.916-11.058-11.85-22.105-17.774-33.16.482 3.592-.015 7.462 1.29 10.855 2.873 6.193 5.498 12.5 8.242 18.75-1.444 1.366-1.735-.892-2.457-1.81l-16.418-28.99c-2.21 1.553-.67 4.416-.956 6.655.903 3.14 2.983 5.95 4.4 8.925 2.59 4.846 5.253 9.67 7.913 14.465-1.908 2.102-2.946-3.85-4.31-5.19-4.95-8.587-9.848-17.204-14.944-25.704-2.233.772-2.924 2.407-2.55 4.57-.368 2.17.53 4.013 1.785 5.756 3.83 6.628 7.695 13.235 11.556 19.844-1.308 1.52-1.708-.7-2.47-1.588l-18.64-29.494c-1.51-.68-3.65-2.495-3.165.518-.718 3.77 3.38 6.408 4.72 9.67 5.527 8.55 11.222 17.146 16.725 25.613-1.152 1.553-1.68-.43-2.423-1.283l-10.475-14.856c-1.304-.34-2.98-1.186-2.487.93-.086 1.342-.444 2.76.696 3.77 5.585 8.383 11.275 16.723 16.796 25.133 1.79 3.664 3.423 7.438 5.313 11.034l9.568 9.847c-2.29 1.845-4.61-4.007-6.89-5.064-2.415-2.718-5.663-4.89-7.027-8.37-1.656-2.59-2.607-5.684-5.163-7.578-2.83-2.124-5.006-5.993-8.29-6.955-1.06 2.34-.195 7.606 2.984 9.415.317.872 4.774 3.874 2.327 3.26-4.8-.53-9.307-2.208-13.805-3.866-2.718 2.607 6.488 4.694 1.32 5.757-3.737.05-6.62-3.338-10.035-4.594-8.514-4.656-17.238-8.944-25.943-13.213l-5.423-1.636c-.503 3.153 4.423 4.043 6.06 6.272 6.604 3.566 13.37 6.945 19.988 10.527-.212 1.99-2.007.485-3.208.293l-37.155-11.965c-2.08-.497-1.717.595-.876 1.998.207 1.623 1.82 1.704 3.078 2.173 9.722 3.262 19.435 6.552 29.163 9.797.384 1.533.705 3.08 1.04 4.625-2.21-1.82-4.39-3.902-7.416-4.1-6.332-1.567-12.857-.238-19.277-.165-3.425-.82-3.87 1.944-.458 2.535 2.74 2.13 6.275.934 9.462 1.103 5.183-.154 10.365-.32 15.548-.505.917 2.953-5.06.977-5.287 3.375-.598 2.848 4.775 2.848 6.715 2.266 2.964.05 5.018-4.344 7.538-3.596-.66 2.818-5.607 3.448-6.168 6.364-.373 2.92 5.588 2.06 7.303.813 1.99-1.653 5.415-4.15 5.598.28.58 4 5.87 2.45 8.746 3.806 5.127.782 10.376 1.106 15.457 1.946 4.86 2.205 9.738 4.394 14.588 6.61-.998 2.752-5.273-1.42-7.488-1.26-3.67-1.023-7.05-3.106-10.95-3.145-3.37-.62-6.755-.547-10.14-.153-10.247.856-20.516 1.55-30.75 2.508-9.528 1.61-19.078 3.15-28.602 4.724-2.42.75-7.68 2.17-2.643 3.146 10.815-.508 21.608-1.418 32.404-2.234.78 1.888-1.54 1.244-2.702 1.545-8.978.913-17.956 1.824-26.934 2.735-2.764 2.044-6.453 3.168-7.96 6.512.433 4.76 6.392.407 9.344.724 7.768-1.306 15.507-2.542 22.997-4.94 2.232.18 7.81-3.805 8.148-.942-8.47 2.612-16.96 5.26-25.5 7.628l-5.456 1.275c-.53 4.372 6.08 1.823 8.777 2.517 5.927-1.386 11.576-3.777 17.434-5.44 3.124-.256 7.856-3.917 10.12-2.414-2.012 2.054-6.683 3.137-9.603 4.836-6.027 2.636-12.14 5.057-18.014 8.05-3.868 3.92 4.112 3.56 6.072 1.53 6.275-2.877 12.473-5.917 18.656-9.016 1.516 1.253-.712 1.852-1.502 2.713-3.502 2.742-6.92 5.578-10.825 7.734-1.512 1.216-3.986 1.64-4.282 3.868 3.43 1.95 6.71-.415 9.784-1.95 8.038-5.205 16.168-10.295 24.35-15.26 3.537-1.583 7.166-2.955 10.76-4.403 1.387 1.386-.882 1.807-1.742 2.62-3.948 2.642-7.91 5.266-11.85 7.92-4.306 4.453-8.205 9.35-13.29 12.966-2.37 1.984-4.79 3.77-6.665 5.957-3.72 3.74-7.57 7.347-11.253 11.12-1.15 3.813-3.6 7.396-3.328 11.486.047 4.403-.453 8.854-.038 13.227.452 1.818 1.5 5.96 1.855 1.82.2-1.895 1.508-8.425 2.91-3.843.772 1.714 1.53 6.882 2.444 5.985 1.338-2.652 1.586-6.372 3.74-8.383 1.92 1.12 3.435 3.882 5.263.703 2.32-2.7 1.977-6.76 3.13-10.05.996-4.268 1.994-8.535 2.995-12.8 1.818-.527 1.388 1.674 1.84 2.804l1.747 7.89c3.968-1.72 2.347-7.084 3.627-10.478.254-2.545 1.063-9.243 3.795-4.13 1.605 3.848 6.05-.588 5.916-3.387.907-4.434 1.776-8.877 2.705-13.307 1.19 2.122 2.433 4.215 3.65 6.323 4.144-.193 5.57-4.35 8.258-6.813 2.416-2.508 4.57-5.414 7.252-7.596 3.055-1.574 5.918-3.678 9.06-5.033 3.067 2.834-1.56 6.66-3.303 9.092-3.888 4.802-8.687 8.758-12.757 13.41-1.606 1.853-4.12 3.41-3.446 6.17 2.043.91 4.173 1.738 6.23 2.66-3.107 1.558-6.446 2.897-9.313 4.783-2.775 2.4-5.772 4.532-8.682 6.764-.786 2.112-1.294 4.497 1.83 3.62 2.232-.385 8.24.568 3.518 2.766-4.438 2.9-9.576 4.71-13.968 7.582-1.217 1.624-4.482 4.173-.504 4.058 2.657-.382 6.635-4.43 8.61-2.38-2.794 3.085-6.414 6.063-9.47 9.146-1.557 1.203-5.01 4.553-2.966 5.494 4.843-2.315 8.246-6.666 12.37-9.982 1.45-2.303 5.336-4.35 4.106.14-4.79 5.964-9.42 12.097-14.35 17.904.498 5.832 4.248-1.674 6.095-3.24 2.88-3.4 5.56-7.043 9.324-9.53 1.307-.283 4.755-5.195 4.937-3.187-.088 1.67.428 3.533-.99 4.833-2.98 4.014-4.97 8.606-7.41 12.948-.403 1.875-.82 7.26 1.888 4.72 3.223-6.013 7.157-11.635 9.695-18.002 2.602-5.46 4.357-11.32 6.538-16.92 1.835-2.738 2.732-1.81 2.477 1.054.296 2.663.183 8.36 2.022 8.763 3.34-7.635 7.536-14.856 11.1-22.377 1.232-3.67 2.697-7.275 4.22-10.845 1.92-.2 1.038 1.883 1.227 3.093-.128 2.428.258 4.94-.187 7.316-2.07 5.945-3.623 12.076-6.51 17.704-1.75 3.62-4.224 6.88-5.917 10.52-1.696 2.21-1.067 2.226.845.927 3.38-1.548 5.65-4.45 7.994-7.21 3.687-2.957.95 3.765.1 5.19-2.005 5.685-3.303 11.65-5.572 17.263-.028 1.7-.618 5.612 1.55 2.618 4.068-3.18 5.55-8.276 7.983-12.622 1.475 2.156 4.252 3.402 5.596.743-.224-3.357-1.773-6.837-.26-10.09 1.492-5.378 2.718-10.86 3.56-16.372.405-3.352.63-6.742 1.046-10.082 1.865-.96 1.077 2 1.227 3.125v7.666c1.827.202 5.18-3.036 6.134-.91-1.844 1.58-4.66 2.557-6.33 4.276l-.213 6.42c2.275-1.385 4.55-2.77 6.827-4.153 1.614 1.135-.525 1.92-1.256 2.858-1.867 1.744-3.734 3.486-5.602 5.228-.03 1.51-.063 3.02-.094 4.53 1.582-.497 3.176-.96 4.75-1.478 1.298 1.477-.94 1.81-1.868 2.58-1.05.975-3.41 1.142-3.07 2.975-.118 4.61-.287 9.216-.473 13.824.832-1.65 3.767-5.614 3.338-5.84-.962 1.883-4.463 2.01-2.08.05.992-1.204 6.394-5.05 4.486-1.207-1.858 2.682-3.474 6.252-5.426 8.455-.555-.054-1.22 3.888.462 3.11 1.396.95 5.707 1.383 2.73 3.037-1.274 1.28-2.87 2.418-3.95 3.782.09 3.858-.883 10.282-.128 12.523 1.138-1.6 4.883-4.488 4.097-5.243-1.58.754-6.393.395-3.024-.83 2.053-.778 7.785-.998 4.122 2.233-1.952 3.48-6.6 4.574-5.722 8.38.018 2.807-1.132 4.522 2.305 4.008 3.933-.344 4.207 3.49.66 4.537-2.437 1.423-4.567 1.33-3.095 4.562.76 2.124 6.004 3.557 4.688 5.757-.196-2.48-.754.957-2.11-1.532-1.672-1.332-3.822-4.5-3.115-.298-.307 8.014-.624 16.027-.94 24.04 1.652-.505 4.584 1.81 4.613 2.884-1.704 1.58-5.774-5.324-4.716.144.057 2.462-.59 7.013-.09 8.16.82-.69 2.124 1.283 3.13 1.624l3.448 2.384c-.633 1.953-1.98-.06-3.06-.58l-3.798-2.63c.297 3.26-1.134 9.253.177 10.94 1.495 1.1 5.4 4.27 5.305 6.04-1.933.517-4.724-5.25-5.94-4.92-.19 4.86-.364 9.724-.55 14.587 2.03.68 6.143 3.324 7.215 4.99-1.834 1.553-5.706-4.218-7.294-3.485-.288 3.928-.05 7.943-.614 11.826-.746 2.823 7.03 2.126 5.35 5.01-2.87-.945-6.85-5.05-6.872.254-.613 4.227-4.46 8.544-1.466 12.55 1.153 3.253 4.848 4.64 7.614 6.292 3.266-.515 6.402-2.13 9.804-2.257 5.014-.777 10.114-1.057 15.112-1.864 2.112-1.54 4.73-2.992 1.545-4.967-2.534-3.11-1.932-7.545-3.4-11.077-.005-2.876-.596-4.126-3.125-2.05-1.983.392-5.065 4.62-6.188 1.986 2.962-1.434 5.65-3.3 8.65-4.688-.354-3.762-1.08-7.504-1.006-11.294-2.37 1.53-5.87 4.708-8.146 4.27.928-2.118 5.46-3.05 7.39-5.277 1.404-.018.488-2.01.726-3.185l-.096-9.84c-2.195 2.48-4.824 4.247-8.148 4.783-2.472-2.16 3.774-1.382 4.58-3.223 1.495-1.688 4.258-2.74 3.518-5.38l-.075-8.7c-1.932 1.283-5.473 5.884-7.338 3.978 2.016-1.797 6.383-3.517 7.298-6.206l-.12-11.3c-2.08 2.783-4.924 4.69-8.288 5.566-1.65 1.83-5.02.204-1.662-.712 3.275-1.086 6.583-2.272 8.62-5.25 1.85-.99 1.228-2.754 1.295-4.58l-.09-8.048c-3.91 3.47-7.445 7.314-11.325 10.822-2.043-2.156 3.796-4.026 4.625-6.166 1.93-2.314 5.206-4.55 6.696-6.54l-.09-8.78c-1.492 1.378-3.906 3.127-.85 1.478 1.368 1.54-1.034 1.697-2.04 2.365-1.385.65-2.775 1.29-4.158 1.944-1.446-2.716 4.68-4.047 5.9-6.436 1.655.406 1.042-1.152 1.117-2.76l-.065-6.125c-2.044 3.72-6.117 1.563-9.366.888-2.402-.195-.143-.927.854-1.52l7.724-4.15c1.452 1.466-.943 1.744-1.913 2.462l-4.568 2.415c2.855 1.6 6.355.576 7.23-2.197.008-4.903-.134-9.723-.37-14.634-2.257 2.267-3.552 4.747-6.356 5.758 1.312-.607 6.72.18 3.084 1.132-2.086.417-9.05.683-4.177-1.975 2.49-.976 4.105-2.794 5.688-4.882 1.882-1.084 1.864-1.82 1.61-4.034-.13-3.018-.256-6.036-.384-9.053-1.14 1.405-6.006 5.25-4.765 5.246 1.456-.918 7.165-1.184 3.77.464-2.176-.138-6.88 2.893-7.656.237 3.033-1.742 5.262-4.46 7.795-6.86 1.484.192.506-1.99.692-3.337l-1.094-27.178c-1.425 1.266-7.392 6.087-5.21 1.3 1.462-1.675 2.952-4.607 4.577-5.177 1.063-.546.092-2.524.34-3.644.245-2.772-1.446-5.133-2.273-7.68-.057-1.04-2.007-2.856-.35-3.164 1.805 1.532 2.66 5.694 4.122 8.157 2.223 5.148 4.763 10.182 6.72 15.432 1.082 4.368 2.235 8.72 2.39 13.244 1.112-.406 3.184.264 3.108-1.467.26-1.704 1.49-3.46.41-5.092-4.874-13.258-10.414-26.253-15.566-39.403 1.222-1.27 1.627.46 2.106 1.49 2.997 5.975 4.954 12.4 7.45 18.597 2.535 6.718 5.2 13.398 8.25 19.898 4.694-2.73.813-7.62.15-11.594-2.194-7.267-5.16-14.277-7.7-21.428-.756-1.27-2.405-1.867-3.503-2.88-1.616-1.19-3.273-2.4-4.865-3.58 1.324-2.5 4.263 1.895 6.294 2.112 3.494 3.682 4.355-1.977 7.455-2.627.868 3.19-5.025 5.772-1.887 9.456 2.26 7.715 4.29 15.507 7.284 22.98.496 1.346.997 2.69 1.49 4.038-1.013 1.457.43 7.69 2.495 6.082.708-3.364 2.86-6.694 1.032-10.094-2.682-10.252-6.364-20.21-9.463-30.34.04-3.692 2.348 1.574 2.605 3.16 3.563 9.678 7.418 19.266 10.568 29.085-.67 2.885-.648 8.984 3.115 5.538.168-3.85.47-7.794-1.133-11.42-3.258-8.67-5.847-17.594-8.746-26.395-1.656 1.8-4.77.076-5.254-1.913.556-4.373-3.054-4.25-6.316-3.97-1.426-.14 2.49-2.183 2.95-2.926 1.76-.968 5.516-3.932 1.895-4.727-1.157-.53-2.307-1.075-3.47-1.596 1.73-2.973 3.52-5.89 5.808-8.48 1.41-2.57.34-7.183-2.397-8.75-1.984-1.09-1.76-3.604-2.546-5.467-1.035-1.097.004-3.21.83-1.62.515 1.772 1.03 3.544 1.547 5.316 2.988 1.602 4.375 4.234 4.305 7.55 1.363 3.097-2.228 4.975-3.553 7.318-.79 1.148-1.457 2.385-2.2 3.567 1.663.783 3.362 1.496 5.002 2.328.344 3.126-5.052 5.193-4.656 6.26 5.236-1.405 2.058 5.893 6.01 6.49 1.344-.012 2.512-1.348 3.783-1.903 2.267.43-.953 1.485-.42 2.5 4.228 11.492 8.568 22.995 12.584 34.534-.382 4.175 3.595 4.72 6.072 6.45.343 2.225 1.408 6.452 3.757 5.545.1-5.956.474-11.945.49-17.88.34-2.032-3.114-6.958-.283-7.203 1.59 4.656 3.693 9.195 4.785 13.988.77 3.113-.764 8.17 3.7 8.633 1.97.8.447-6.354 2.558-4.406l3.492 2.77c4.725.112 1.21-5.07 1.29-7.71-1.487-3.693-2.897-7.433-4.374-11.136 2.2-.91-1.18.322-.543-2.037-.508-3.654-2.875-6.402-4.995-9.258-.898-1.935-.838-4.228-2.517-1.48-1.997 1.655-1.117 4.383.284 6.127 2.278 3.527 2.052 8.188 4.898 11.376 1.252 2.055 2.93 4.127 2.496 6.675.11 1.174.204 3.507-1.258 2.377-.196-1.99.534-4.143-.698-5.725-1.508-2.966-3.673-4.818-4.273-8.15-.654-3.35-2.523-6.215-3.933-9.25.316-.736-4.7.405-4.31-1.163 1.386-.196 1.14-.807 3.493-.284 1.78-1.506 1.763-4.342.566-6.23-2.362-5.294-6-9.935-8.65-15.07-.67-3.35.662-7.474-2.55-9.808-3.32-3.233-5-7.593-6.857-11.74-2.133-2.973-5.606-4.725-8.085-7.425-1.35.427-6.44.586-3.912-.938 3.482-1.393 5.878.594 8.096 2.95 2.527 1.966 5.21 3.998 6.058 7.225 1.576 3.767 3.627 7.252 6.547 10.143 2.572 2.415 1.244 6.276 1.93 9.374 3.166 5.744 7.4 10.987 9.532 17.24-.462 2.735.754-.875 2.053-.556-.123-3.096.956-7.284-1.048-10.17-2.09-3.89-4.526-7.638-6.417-11.61-1.316-2.834-2.927-6.38-4.394-9.473-1.54-3.576-3.778-6.785-5.894-10.03 2.11-2.208 3.208 4.148 4.845 5.252 3.684 6.516 6.003 13.715 10.03 20.05 1.175 2.78 3.666 5.217 4.193 8.178.405 1.77-.703 7.503.734 7.028.717-1.382 1.447-2.757 2.157-4.143 1.147-.544 3.42-.197 3.695-1.454.398-3.865-3.493-6.677-3.885-10.47-1.1-5.174-3.173-10.067-5.745-14.67-2.76-6.06-6.814-11.444-9-17.77-.577-3.69 2.416 1.02 2.478 2.743 2.125 4.835 5.228 9.178 7.423 13.998 2.09 3.922 4.09 7.877 5.24 12.195.786 4.06 2.46 7.813 4.575 11.37.364 1.622-.047 2.887 1.336 3.034.64 1.49-2.466.736-1.238 3.02.353 1.43-.37 6.832-1.443 3.758.094-2.535 1.29-6.658-2.332-4.717-.965.837-1.334 2.43-2.075 3.55-.61 1.524-2.89 1.417-1.338 3.58 2.03 3.023 4.734 5.715 5.265 9.48.43 3.36 3.22 5.634 4.908 8.535 1.83 1.88 3.975 7.638 5.81 6.604.82-3.576-2.32-5.96-3.467-9.067-2.456-5.254-4.684-10.613-7.03-15.918 1.907 1.375 4.336 2.176 5.422 4.432 4.364 5.812 8.654 11.684 13.14 17.4 4.7 2.258 1.813-3.6.377-5.44-3.583-7.234-8.49-13.703-12.724-20.563-.92-.938-3.86-5.502-1.113-4.097l14.5 17.895c1.632 1.115 4.58 2.045 3.6-.734-4.145-7.568-9.422-14.44-14.037-21.73-4.825-6.862-8.923-14.2-13.253-21.39 2.278-1.845 5.268 2.784 7.808 3.39 4.06 2.218 7.682 5.052 11.007 8.255 5.604 4.873 10.992 10.03 16.815 14.632 2.903 1.59 5.166 4.366 8.288 5.402.05-1.05-3.192-4.986-1.83-4.96 3.272.92 6.364 2.28 9.386 3.79 2.026.997 8.36 3.38 5.186-.75-1.01-2.065-5.822-3.183-5.036-5.424.893-.48 2.343 1.028 3.45 1.313 2.543 1.528 5.4 2.222 8.318 2.633 4.265-.192 1.585-4.633-1.295-4.663-6.612-3.52-13.172-7.147-19.75-10.722 1.363-2.763 5.826 1.624 8.398 1.48 1.505-.474 7.027.66 5.094-1.945-.818-1.002-2.51-1.035-3.68-1.645-9.015-3.266-18.048-6.49-27.052-9.78-3.842-2.59-7.748-5.098-11.61-7.646.59-2.367 4.462.68 6.387.44 3.372.88 6.762 1.608 10.266 1.566 2.25.062 6.97.634 7.79.26-1.492-.805-8.067-2.708-4.313-3.733 1.883-.116 7.8-.235 2.755-.423-3.578-.372-7.317-.244-10.773-1.194.442-1.28 2.23-.797 4.565-.55 2.55.875 7.712-.622 8.71 1.516 2.528.81 6.972-.23 10.228-.033 4.506-.398 9.463.224 13.684-.89 1.47-2.29 5.873-3.035 5.792-6.01-.293-2.76-.325-5.606-.78-8.315-.937-1.024-1.135-3.105-2.723-3.197-4.254-.698-8.322-1.868-12.357-3.317-8.396-.204-16.826-.128-25.2-.628-2.712-.177-5.942 2.28-9.06 2.108-4.815.484-9.734.086-14.405 1.575-1.8 1.396-4.304-.618-1.42-.978 3.61-.955 7.26-1.608 11.003-1.55 3.808-.123 7.636-.407 11.165-1.965 2.164-1.468 2.643 1.025 3.067-1.697 1.98-.75 8.318-.22 6.825-2.307-7.82.266-15.646.36-23.47.504-2.813-.28-6.4 1.46-9.185 2.8-3.263 1.32-.57-1.99 1.447-2.077 3.462-2.054 7.772-1.544 11.136-3.775 5.257-2.45 10.197-5.55 15.32-8.242 1.33-1.178 5.035-3.014 1.116-3.396-3.074-.708-6.36 1.063-9.547 1.1-4.2.74.005-2.92 1.584-3.625 4.905-2.522 9.705-5.28 14.397-8.205 1.488-1.136 5.88-1.91 4.467-3.806-3.977 1.328-7.915 3.23-11.986 4.34-1.377.33-7.623 1.1-4.538-1.334 5.997-3.96 11.9-8.067 17.845-12.098 1.98-2.66.546-2.73-1.83-1.643-2.755.84-4.807 3.09-7.37 4.4-.882 1.542-5.815 2.85-3.196.175 2.655-2.308 5.25-4.694 8.022-6.864 1.402-1.95 2.838-6.595-.967-4.406-2.453 1.29-5.607 1.484-7.317 3.87-3.02 3.14-6.097 6.256-9.08 9.41-2.183-2.047 3.46-4.303 4.155-6.47 2.45-2.807 5.032-5.536 7.232-8.537.465-2.462.573-4.195-1.925-2.48l-3.643 1.567c.365 2.54-5.023 5.19-6.733 7.708-2.894 2.47-6.83 3.508-9.375 6.45-2.035-2.173 3.562-3.822 5-5.097 4.07-1.98 6.824-5.71 10.1-8.715-3.585.728-7.716.58-9.815 4.153-5.428 5.16-10.71 10.5-16.265 15.51-6.773 4.696-13.655 9.298-20.606 13.685-3.18 1.28-7.698.228-9.203 4.062-2.655 3.735-5.8 7.076-8.76 10.567 3.182-.7 6.203.026 9.076 1.436 2.762.967 5.11 2.876 7.755 4.07-.59 2.628-4.216 4.62-7.07 4.14-1.795-.05-3.412-1.263-5.135-1.782.17-2.067 1.925-.398 3.096-.105 2.3 1.245 5.42.76 7.115-1.28-.885-1.816-5.576-3.65-8.3-4.664-2.47-1.484-5.302-.462-7.982-.43-3.17.72.885-2.088 1.354-3.185 3.508-3.943 6.865-8.01 9.91-12.324-.222-3.184 3.31-5.435 4.485-8.373 3.46-5.1 5.248-11.11 7.902-16.653 1.13-2.312.547-5.012.84-7.514-.084-1.357.397-2.836-.078-4.11-2.463 4.532-4.997 9.06-7.362 13.623-2.914.168-.3-4.45.54-5.65 2.24-4.527 4.766-8.977 6.86-13.54.06-1.908.12-3.817.182-5.727-1.887-1.64-2.837 3.956-4.335 5.268-3.278 5.46-6.307 11.1-9.725 16.457-.335 1.813-3.957 3.13-2.505.563 4.885-8.986 9.9-17.94 14.912-26.83 2.014-3.572 1.367-7.74 1.654-11.658-1.93-3.05-3.278 1.642-4.825 2.854-1.977 2.456-2.705 5.684-4.225 8.444-2.466 5.355-5.023 10.676-7.528 16.008-2.803-1.155 1.617-5.34 1.654-7.695 2.404-6.21 4.795-12.423 7.187-18.637-1.198-2.492-3.89 4.084-5.16 5.6-2.28 5.1-4.93 10.025-7.455 15.006-2.7-1.176 1.646-5.322 1.53-7.58 1.306-3.773 3.026-7.51 4.29-11.233-.19-1.405 1.8-5.057.03-5.128zm17.303 67.702c.62 2.482-3.118 3.613-4.656 5.536-1.933.722-8.845 2.418-5.87 3.973 1.967-1.042 3.938-2.076 5.9-3.123 2.514 2.385 6.316 4.938 6.02 8.58-2.39.6-1.37-4.68-4.213-5.17-1.31-2.267-2.968-1.69-4.732-.44-1.403.754-2.834 1.458-4.215 2.252-2.347-3.205.254-5.796 3.63-6.178 3.35-.523 5.3-3.41 7.82-5.336l.07-.056.246-.037zm17.806 6.92c.233 2.802-4.695 1.58-6.023 3.944-2.15 1.04-4.324 4.233-6.244 4.206-2.12-.413 2.547-2.46 3.29-3.613 2.686-2.152 5.428-4.136 8.976-4.535zm22.84 10.95c-.545.52-.163.416 0 0zm-64.524 2.736c2.92 1.098 6.03 1.796 8.503 3.814 3.195 1.13 3.346 4.783 4.273 7.54.09 1.777-1.446 7.43-3.057 6.22.65-2.605 2.963-5.816 1.01-8.797-.258-3.277-3.66-4.187-5.963-5.767l-5.205-1.846.44-1.164zm82.236.314c5.93.243 11.91.502 17.806 1.07.657.694-1.185.736-.912 1.1-7.638-.347-15.274-1.275-22.92-.642-3.58-.46-6.706 2.274-10.33 1.502-1.933.378-6.38-.654-3.338-1.457 3.472.39 7.007.432 10.247-1.057 3.07-.56 6.32-.186 9.447-.516zm-9.124 4.97c6.127.873 12.28 1.417 18.474 1.342 3.903.218 8.468-.173 11.974.45-.583 2.598-6.033.09-8.36.867-6.88-.08-13.772-.08-20.577-1.212-1.317.037-1.725-.17-1.51-1.447zm6.638 6.86c2.522 2.625 6.13 3.098 9.76 2.51 4.268-.278 8.642.88 12.782-.71 3.6-.336-.262 2.025-2.147 1.79-4.184.88-8.46-.282-12.687.247-3.376 1.195-6.142-1.65-8.566-2.285-1.813 1.07-3.804 1.303-5.852 1.152h-8.83c-.597-1.963 1.664-1.068 2.84-1.26 2.943-.02 5.895.043 8.83-.03 1.276-.5 2.516-1.16 3.87-1.416zm-120.27 3.995c3.066 1.262-2.492 4.298-1.587 6.294.138 2.095.385 3.583 1.368.69.45-1.354.866-2.718 1.352-4.06 1.24 2.046 2.87 3.19 5.223 3.21 1.006 1.726 1.488 5.637 2.547 2.024.97-1.865 1.72-4.02 3.116-5.547 2.27 1.296-.315 5.91.346 8.274-.187 3.724.604 7.45.077 11.184.325 2.224-1.868 7.88 2.083 5.184 1.364-.65 1.543-2.572 2.38-3.788 1.512-2.927.953-6.494 1.94-9.59 2.93-.752.27 8.145 3.098 5.322.826-3.01-1.405-5.547-1.65-8.878v-5.914c1.962-.596 1.067 1.665 1.258 2.84-.145 2.372.104 4.73 1.132 6.912 3.232 1.745 2.713-4.266 5.286-5.474 2.8-1.12 1.227-6.96 4.058-6.323-.263 3.6-2.268 6.577-4.75 9.03-1.018 1.715-1.49 5.854-4.405 4.184 2.113 2.168-.286 6.715-2.895 5.946-.577-1.927-.623-4.182-.93-.888-.092 2.748-2.013 4.922-3.003 7.4-2.375 1.305-6.647 2.734-5.085-1.686.29-4.734.633-9.474.052-14.2-.056-1.554.79-6.438.018-5.478-1.09 2.21-2.135 4.458-3.228 6.672-1.352-2.023-.814-6.8-4.017-6.316-1.776-.353-2.403-2.473-2.84.402-.788.85-1.765 5.603-3.18 3.46-.343-2.614-.127-6.675-3.113-3.49-.55-2.127-1.068-4.26-1.605-6.388 1.76-1.068 1.45 1.34 1.916 2.442-.1 3.613 3.765.092 4.22-1.78.27-.558.543-1.114.818-1.668zm49.33 15.95c3.352 6.795 6.906 13.512 10.506 20.197 1.945 4.743 4.293 9.375 5.112 14.48-.768 2.425 4.947 5.714 2.156 6.345-3.082-2.408-3.4-6.234-4.248-9.752-2.013-6.28-4.915-12.264-8.136-18.02-2.323-4.13-4.295-8.424-6.46-12.622.356-.21.712-.42 1.07-.628zm-6.86 7.424c3.206.367-2.912 3.703 1.075 4.078 2.065.34 1.532 3.258 3.403 3.75 4.71.268-.51 6.968 4.33 5.983 2.325 1.83-.118 6.563 3.525 7.77 3.028 1.456 2.17 5.044 3.585 7.53.337 1.907 1.428 1.62 2.743.68.98-.65 2.938-1.66 2.57.13-1.708.85-3.416 1.694-5.122 2.546-1.36-2.634-2.57-5.35-2.863-8.337-2.666-2.006-5.08-4.236-4.664-7.9.633-2.81-4.72.052-3.307-3.484 1.855-3.594-2.295-3.132-3.152-5.544-.236-2.42-3.864-2.024-4.072-4.15.597-1.05 1.35-2.004 1.95-3.052zm-19.22 34.7c-.528 1.565-5.562 6.263-1.84 3.294 1.926-1.165 2.2-.407 1.853-2.99l-.01-.218-.003-.086zm-.756 11.168c3.638.62-4.525 4.122-2.772 4.21 1.068-.776 3.35-.676 2.165.67l-5.308 1.633c-1.318-2.826 4.48-4.235 5.852-6.45l.062-.063zm.377 12.05c2.987.092-1.637 3.11-2.486 4.404-3.26 2.65 3.875-2.627 3.303-.007-1.365.96-6.32 4.077-8.033 2.35 2.143-2.438 5.215-4.03 7.215-6.747zm-17.933 10.79c-.165 2.3-.604 5.19 1.607 2.33 2.46-1.51-.258-1.442-1.607-2.33zm-1.07 27.842c-.053 2.16-.87 5.597 1.982 2.894 2.11-.918 3.69-2.575.295-2.547-.758-.123-1.52-.23-2.278-.347zm-.534 23.595c1.898 1.16 6.747 1.448 6.624 3.61-1.36-.21-6.385-1.37-6.624-3.006v-.603zm-8.652 79.5c-7.43.204-14.885-.036-22.304.22-3.205 2.043-6.91 3.385-9.418 6.342-1.898 2.667 3.187 4.952 5.8 4.354 1.318.875 6.022-.837 5.223 1.636-1.23 3.57-5.246 4.198-7.896 6.355-1.634 3.394 2.245 7.61 5.16 4.373 1.727-1.64 3.218-1.83 4.442.195 2.023 1.586-1.417 5.855 3.014 5.625 2.894-1.458 5.477-4.005 8.195-5.935 1.804-2.306 4.724-4.87 5.867-.514 2.65 2.266 5.972 1.703 9.137 1.494 3.886-.133 8.167-.655 10.4-4.317 3.635-1.737 7.1 1.81 8.932 4.653 2.454 1.612 6.545 1.825 5.295-2.257-.964-2.672-.13-5.496 3.08-3.775 3.518.672 6.247 3.336 9.62 4.265-.203-2.564-.238-7.395 3.322-4.113 3 2.175 6.135 4.284 9.765 5.246.13-1.515-.27-3.173.22-4.593 2.334-2.398 7 4.637 5.978-.724.486-1.84-2.034-5.91.535-5.632 3.546 1.496 7.287 2.53 11.074 3.21-2.507-4.17-6.982-6.46-10.79-9.25-3.68-1.53-7.565-2.745-11.59-2.67-4.34-.395-8.79-.214-13.074-.85-1.834-1.333-1.532-.142-1.197.248-2.56 3.67-7.137 2.96-11.012 3.654-5.413.517-10.883 1.058-16.01 2.984-3.545.46-6.68-2.666-9.246-4.846-1.128-1.562-1.662-3.615-2.52-5.378z" fill="#fff" fill-rule="evenodd"/></svg>