<svg xmlns="http://www.w3.org/2000/svg" width="1000" height="700" viewBox="0 0 3000 2100" shape-rendering="geometricprecision" text-rendering="geometricprecision" fill-rule="evenodd" clip-rule="evenodd"><defs><style><![CDATA[
    .str0 {stroke:#002868;stroke-width:4}
    .str1 {stroke:#002868;stroke-width:4;stroke-linejoin:bevel}
    .fil4 {fill:none}
    .fil3 {fill:#002868}
    .fil2 {fill:#002868}
    .fil0 {fill:#BF0A30}
    .fil1 {fill:white}
   ]]></style></defs><path id="rect2289" class="fil0" d="M0 0h3000v2100H0z"/><path id="rect2290" class="fil1" d="M150 150h2700v1800H150z"/><path id="rect2291" class="fil2" d="M225 225h2550v1650H225z"/><path id="path2288" class="fil1" d="M1006.58 1200.68c-9.935-49.674-41.395-91.07-51.33-94.38-9.935-3.31-28.15-8.28-28.15-8.28s13.247-9.934 6.625-28.148c-6.625-18.214-36.43-67.89-38.085-96.037-1.654-28.15 6.624-64.577 0-87.758-6.622-23.18-31.46-43.05-33.115-86.103-1.656-43.05 69.543-102.66 110.94-104.315 41.395-1.656 79.477 13.246 102.66 11.59 23.18-1.656 51.328-31.46 69.543-38.084 18.214-6.622 26.492 3.312 38.082-1.655 11.592-4.966 105.973-82.79 200.353-82.79 94.382 0 165.58 34.773 187.108 34.773 21.526 0 61.265-9.936 91.07 0 29.805 9.934 66.232 54.64 109.284 66.23 43.05 11.592 291.422 56.3 319.57 101.005 28.15 44.707 46.363 109.283 46.363 140.745 0 31.46-8.278 115.906-8.278 132.464 0 16.557 8.277 38.084 4.965 59.61-3.31 21.524-13.246 29.803-13.246 29.803s-6.624-36.428-8.28-57.953c-1.656-21.526 13.246-81.135 11.59-115.906-1.655-34.772-16.557-77.822-16.557-77.822s-9.935 49.674-18.215 81.135c-8.278 31.46-33.115 120.874-33.115 172.204 0 51.33 14.902 125.84 14.902 125.84s-41.396 71.2-44.707 99.35c-3.31 28.148-9.934 94.38-8.28 102.66 1.657 8.278-9.933-3.312-13.245 6.623-3.312 9.935-1.656 23.18-1.656 23.18l-38.084-3.31s1.657-16.56 8.28-28.15c6.623-11.59 16.557-19.87 14.902-34.772-1.656-14.902 1.655-79.478 1.655-79.478s-28.148 48.02-36.428 66.232c-8.28 18.214-8.28 41.396-11.59 49.675-3.312 8.278-9.934 8.278-13.246 18.213-3.313 9.935-8.28 9.935-8.28 9.935l-29.805 1.655s57.956-142.398 61.268-178.826c3.31-36.43-36.43-110.94-44.708-135.776-8.28-24.838-8.28-44.707-16.56-54.64-8.277-9.937-36.426-21.527-46.36-16.56-9.936 4.967-64.577 56.298-76.167 71.2-11.592 14.902-41.396 43.05-41.396 43.05s-66.232-36.428-101.004-44.707c-34.77-8.278-120.874-14.9-120.874-14.9s6.623 127.497 3.31 147.366c-3.31 19.87-19.87 26.493-19.87 39.74V1406c0 9.936-26.492 13.248-33.114 21.526-6.625 8.28 0 14.902-8.28 26.493-8.28 11.59-19.87 8.278-24.837 14.9-4.97 6.625-1.657 46.364-1.657 46.364l-66.233-1.657s26.493-54.64 24.837-86.1c-1.655-31.46-28.148-77.824-33.115-102.66-4.968-24.837-19.87-62.922-39.74-62.922s-36.427 9.936-36.427 9.936 4.968-82.79-23.182-117.56c-28.15-34.773-96.036-31.462-117.562-26.495-21.526 4.967-44.706 36.428-52.985 39.74-8.28 3.312-14.902 0-28.15 4.966-13.244 4.97-29.803 18.216-41.394 28.15z"/><g id="g3286"><g id="g1883"><path id="path1825" class="fil1 str0" d="M1307.59 689.937c0-13.64 11.76-9.876 23.048-15.052 11.29-5.173 21.166-12.7 21.166-12.7l.472 35.28H1309l-1.41-7.528z"/><path id="path1826" class="fil1 str0" d="M1494.32 723.806c-11.76 7.056-14.58.47-22.107-6.586-7.526-7.055-30.105-23.518-30.105-23.518l60.21 9.878-7.998 20.226z"/><path id="path1824" class="fil1 str1" d="M1307.66 687.855c-1.446 13.525-.522 23.33 6.51 29.835 7.054 6.585 12.698 4.234 17.873 3.293 5.174-.942 68.204-26.34 87.49-26.34 19.285 0 45.632.933 60.208 14.58 6.56 6.142 13.17 10.818 12.23 14.582-.94 3.763 23.52-13.17 23.048-23.99-.47-10.818-34.337-32.454-70.556-37.63-36.218-5.173-84.57 23.993-119.476 26.812-12.526 1.193-17.343 3.03-17.326-1.142z"/><path id="text1827" class="fil3" d="M1493.26 703.22c-1.228 1.708-.754 3.36.87 4.67 1.1.89 2.93 1.754 4.043.376 1.024-1.27.124-2.444-.72-3.518-.86-1.086-2.058-2.295-2.484-3.62-.67-2.086 1.333-4.013 3.314-4.147 2.357-.16 4.823 2.068 5.455 4.234.332 1.108.045 2.227-.863 3.35l-1.29-1.038c.37-.597.557-1.132.567-1.603.014-1.547-2.074-3.54-3.643-3.405-1.143.098-2.233 1.137-1.744 2.345.514 1.24 1.712 2.437 2.552 3.504 1.168 1.48 1.685 3.125.368 4.756-1.852 2.296-4.588 1.46-6.587-.152-2.2-1.774-3.066-4.45-1.13-6.79l1.29 1.04z"/><path id="path1848" class="fil3" d="M1494.72 693.28l-.9 1.266-3.57-2.533-6.63 9.343-1.46-1.034 6.63-9.343-3.58-2.536.9-1.262z"/><path id="path1847" class="fil3" d="M1470.53 680.407l1.61.74-2.23 4.884 6.15 2.817 2.23-4.886 1.62.742-5.41 11.822-1.62-.74 2.53-5.53-6.15-2.815-2.53 5.528-1.62-.74z"/><path id="path1846" class="fil3" d="M1457.32 677.092c1.183.3 2.148.79 2.895 1.468 1.085.976 1.56 2.323 1.42 4.04l-1.69-.43c.028-.97-.227-1.75-.767-2.33-.54-.59-1.3-1.008-2.283-1.257-1.167-.298-2.262-.11-3.285.56-1.018.674-1.747 1.876-2.187 3.61-.382 1.498-.364 2.802.054 3.913.42 1.106 1.37 1.847 2.86 2.224 1.137.29 2.162.2 3.072-.268.916-.474 1.572-1.445 1.964-2.915l-3.946-1.004.36-1.415 5.532 1.407-1.713 6.74-1.098-.278v-1.726c-.74.49-1.364.8-1.87.932-.86.232-1.865.202-3.02-.09-1.492-.382-2.653-1.19-3.482-2.432-.865-1.51-1.028-3.322-.49-5.44.537-2.108 1.536-3.64 2.997-4.598 1.39-.912 2.947-1.15 4.675-.71z"/><path id="path1844" class="fil3" d="M1443.05 674.852l1.77.182-1.33 12.935-1.77-.183z"/><path id="path1842" class="fil3" d="M1433.04 680.066c.826.045 1.486-.085 1.98-.39.5-.303.776-.884.822-1.745.05-.924-.252-1.574-.905-1.945-.35-.197-.825-.31-1.426-.343l-4.294-.233-.24 4.435 4.064.22m-5.502-6.262l6.01.324c.99.055 1.8.244 2.426.566 1.19.62 1.743 1.676 1.662 3.166-.042.777-.238 1.405-.59 1.882-.345.478-.813.85-1.406 1.12.494.234.86.526 1.094.875.24.35.356.904.345 1.66l-.033 1.744c-.01.496.012.867.064 1.11.085.42.26.695.523.827l-.015.293-2.157-.118c-.052-.115-.09-.262-.117-.44-.026-.18-.036-.523-.033-1.03l.012-2.17c.005-.852-.28-1.438-.853-1.758-.33-.177-.85-.286-1.57-.325l-4.003-.217-.303 5.567-1.758-.095.702-12.982z"/><path id="path1840" class="fil3" d="M1377.29 682.59l1.73-.368 2.38 11.202 6.44-1.37.32 1.516-8.16 1.736z"/><path id="path1839" class="fil3" d="M1369.57 693.318l-3.405-5.03-.525 6.094 3.93-1.064m-4.798-6.652l1.923-.52 7.948 11.32-1.862.503-2.29-3.417-4.963 1.343-.34 4.128-1.745.472 1.33-13.83z"/><path id="path1836" class="fil3" d="M1348.55 692.766l1.635 7.867c.19.924.524 1.657 1 2.197.705.82 1.668 1.1 2.887.847 1.46-.305 2.35-1.01 2.67-2.12.17-.6.158-1.362-.032-2.28l-1.636-7.868 1.75-.365 1.487 7.15c.327 1.565.364 2.814.12 3.745-.456 1.697-1.758 2.77-3.907 3.216-2.15.446-3.767-.02-4.856-1.395-.596-.756-1.057-1.917-1.383-3.48l-1.486-7.15 1.752-.364z"/><path id="path1832" class="fil3" d="M1317.14 702.914l9.02-2.918.49 1.514-7.38 2.39 1.21 3.756 6.83-2.21.46 1.432-6.83 2.21 1.36 4.194 7.51-2.43.48 1.472-9.14 2.96z"/><path id="path1849" class="fil3" d="M1345.81 707.363l-.586 1.26-2.33-.973c-.873.826-1.923 1.41-3.084 1.715-1.952.51-3.648.273-5.092-.716-1.3-.99-2.198-2.418-2.688-4.292-.446-1.7-.405-3.267.122-4.698.678-1.837 2.078-3.034 4.202-3.59 2.22-.582 4.05-.298 5.492.847 1.126.896 1.915 2.21 2.37 3.945.48 1.827.49 3.937-.488 5.61l2.082.89m-5.218.095c.294-.13.537-.298.73-.5l-1.662-.72.58-1.276 1.977.846c.687-1.38.643-3 .26-4.46-.39-1.478-1.088-2.567-2.1-3.265-1.008-.698-2.183-.873-3.523-.523-1.36.357-2.32 1.074-2.888 2.15-.567 1.07-.615 2.502-.144 4.3.397 1.513 1.092 2.618 2.086 3.315 1.44 1.002 3.16.72 4.684.135z"/></g><g id="use1823"><path id="path2293" class="fil1 str0" d="M1476.77 1013.57s-11.11-9.028-13.887-13.194c-2.778-4.167-10.415-17.36-10.415-17.36l19.442-20.137s14.582 18.054 14.582 21.526c0 3.47-9.722 29.164-9.722 29.164z"/><path id="path2294" class="fil1 str0" d="M1479.55 915.667s-24.302-20.138-26.387-24.998c-2.082-4.862-2.777-22.22-2.777-22.22l11.805-2.778s4.86 4.166 11.11 7.637c6.25 3.472 15.277 4.166 15.277 4.166l-9.027 38.19z"/><path id="path2295" class="fil1 str0" d="M1496.38 741.43s-.32-7.966-.478-11.63c-.16-3.665-5.257-8.286-5.257-8.286s-6.055 5.895-6.375 8.127c-.32 2.23-.477 13.225-.477 13.225l12.587-1.434z"/><path id="path2296" class="fil1 str0" d="M1505.78 1022.14l-4.33-233.827-25.11.864-3.47 234.703z"/><path id="path2297" class="fil4 str0" d="M1481.3 1024.39l2.218-243.656m-2.218 243.656z"/><path id="path2298" class="fil4 str0" d="M1476.86 1024.39l.444-243.656m-.444 243.656z"/><path id="path2299" class="fil4 str0" d="M1494.61 1025.72l1.774-245.875m-1.774 245.875z"/><path id="path2300" class="fil4 str0" d="M1487.96 1025.28c-.443-2.22 1.775-245.876 1.775-245.876m-1.775 245.876z"/><path id="path2301" class="fil4 str0" d="M1502.16 1026.16l.443-246.763m-.443 246.763z"/><path id="path2302" class="fil1 str0" d="M1510.98 1039.46v-14.72l-4.33-3.46h-31.18l-7.79 4.33 1.73 15.59z"/><path id="path2303" class="fil1 str0" d="M1504.83 753.86l-4.62-7.33 9.24-8.125-37.45-.64 8.13 8.765-3.66 7.17z"/><path id="path2304" class="fil1 str0" d="M1501.72 776.963l-6.93-7.17s15.136-14.34 17.208-14.34c2.072 0 3.346 3.346 5.576 3.186 2.23-.16 3.505-1.116 3.505-3.506 0-2.39-2.23-3.506-5.577-3.346l-49.076-.637c-3.505.16-4.62 2.23-4.46 3.984.158 1.753 2.548 3.505 4.62 3.346 2.072-.16 2.708-3.506 4.94-3.346 2.23.16 11.79 13.384 11.79 14.34l-7.966 7.648 26.37-.16z"/><path id="path2305" class="fil1 str0" d="M1507.44 784.468c6.81 7.604 11.345 12.38 10.998 24.265 0 12.5-17.063 31.482-29.784 42.926-12.86 11.572-35.538 19.827-35.538 30.007 0 9.893 1.966 11.154 4.41 14.32-2.014-2.302-12.692-9.483-12.692-26.15 0-16.663 13.888-34.717 29.86-44.44 15.968-9.72 35.412-22.914 35.412-29.857.426-6.187-2.666-11.072-2.666-11.072z"/><path id="path2306" class="fil1 str0" d="M1504.07 889.256c.237 6.826 0 12.524.482 18.08.606 6.56-20.138 20.137-28.47 28.468-8.332 8.333-29.163 17.36-30.552 29.86-1.39 12.497 10.94 24.133 13.817 28.88-3.164-6.618 4.017-14.3 12.256-20.98 7.256-5.885 22.916-14.554 30.865-23.178 7.882-8.55 16.666-22.22 16.666-35.413 0-13.193-8.815-23.634-15.064-25.717z"/><path id="path2307" class="fil1 str0" d="M1510.16 782.46l-8.76 6.454-25.41.797-8.45-7.01 8.45-5.737h25.73z"/></g><g id="g1930"><path id="path1927" class="fil1 str0" d="M1387.51 720.102c-17.945 2.87-22.25 25.84-22.25 25.84s7.894 1.435 7.894 8.613c0 7.177.718 15.79.718 15.79l15.79-17.226-2.152-33.018z"/><path id="path1928" class="fil1 str0" d="M1366.69 745.224c-6.46 6.46-9.33 14.355-9.33 14.355s-8.613-19.38-6.46-23.688c2.153-4.306 7.894-9.33 7.177-13.637-.718-4.306-4.306-5.024-8.612-4.306-4.308.717-4.308 25.12-4.308 31.58 0 6.46 1.437 17.944 5.025 22.25 3.59 4.306 6.46 10.766 10.05 11.484 3.587.718 13.636-14.355 13.636-14.355s1.435-14.355-.72-17.945c-2.152-3.588-6.458-5.74-6.458-5.74z"/><path id="path1926" class="fil1 str0" d="M1433.44 726.56c23.686 13.64 20.816 32.3 20.098 38.76-.72 6.46 0 10.766 0 10.766s10.048 10.05 14.355 16.508c4.306 6.46 16.507 25.122 16.507 25.122l-4.306 4.306s-17.944-12.92-25.12-21.532c-7.178-8.614-38.76-60.29-38.76-60.29l17.226-13.64z"/><path id="path1929" class="fil4 str0" d="M1373.87 964.854l-17.943-252.82m17.943 252.82z"/><path id="path1905" class="fil1 str0" d="M1436.1 960.737l-62.138-.056c0-1.71 8.447-210.04 8.447-221.53 0-11.493-1.71-20.295.733-22.985 2.446-2.69 24.208-1.956 29.098 0 4.89 1.956 19.805 6.603 21.028 9.292 1.223 2.69-2.933 18.827-2.933 24.45 0 5.624 6.356 20.784 5.868 28.607-.49 7.825 6.373 88.395 6.373 93.774 0 6.638-5.445-3.406-7.903-.23-2.95 3.81 8.605 85.45 1.427 88.68z"/><g id="g1911"><path id="path1904" class="fil1 str0" d="M1400.26 697.583s-.733 15.404-.733 19.56c0 4.158 6.845 11.248 11.247 11.98 4.4.735 9.047-4.155 8.558-11.002-.49-6.844-2.69-5.867-2.69-13.935 0-8.07-1.467-13.938-1.467-13.938l-14.915 7.336z"/><path id="path1899" class="fil1 str0" d="M1397.08 679.245c-1.222 6.846-.98 18.093-.246 20.783.735 2.69.735 10.025 5.136 10.758 4.4.734 11.736-8.802 13.938-12.96 2.2-4.155 3.177-9.29 3.177-9.29l-11.735-17.116-10.27 7.825z"/><path id="path1902" class="fil1 str0" d="M1397.57 703.695l6.602-.49m-6.602.49z"/><path id="path1903" class="fil1 str0" d="M1404.41 688.78h5.135m-5.135 0z"/><path id="path1898" class="fil1 str0" d="M1395.86 679.49c-2.2-4.647.733-13.695 9.047-13.45 8.313.245 17.36 12.225 17.36 18.338 0 6.114-1.71 11.736-3.18 11.736-1.466 0-8.312-19.316-13.936-19.56-5.623-.244-5.134 3.178-9.29 2.935z"/></g><path id="path1906" class="fil1 str0" d="M1411.75 751.375c-12.47 24.45-22.005 33.008-26.407 33.254-4.402.242-10.025-.49-10.025-.49l2.484 50.738 35.678.945m-1.73-84.448z"/><path id="path1907" class="fil1 str0" d="M1422.51 752.108c-12.226 48.412-49.88 73.84-49.88 73.84l4.663 75.38 37.035-36.742m8.182-112.478z"/><path id="path1908" class="fil1 str0" d="M1416.4 788.54c-10.025 78.244-44.5 65.773-44.5 65.773l1.904 69.353c28.778-6.9 30.93-29.87 30.93-29.87s10.05 2.87 17.227-4.306c7.178-7.177.72-30.862 2.872-41.63 2.153-10.765 2.87-22.25 2.87-22.25m-11.302-37.07z"/><path id="path1919" class="fil4 str0" d="M1424.83 794.03c-2.87 12.202-5.743 38.04-5.743 38.04m5.743-38.04z"/><path id="path1920" class="fil4 str0" d="M1384.63 833.506c12.2-5.743 27.274-44.502 27.274-44.502m-27.274 44.502z"/><path id="path1921" class="fil4 str0" d="M1415.5 862.217c-1.435 7.894.718 18.66.718 18.66m-.718-18.66z"/><path id="path1922" class="fil4 str0" d="M1416.21 913.894c.717-17.945-1.436-20.098-1.436-20.098m1.436 20.098z"/><path id="path1923" class="fil4 str0" d="M1421.24 743.07c4.306-7.18 5.023-20.098 5.023-20.098m-5.023 20.098z"/><path id="path1925" class="fil4 str0" d="M1437.03 871.546c-7.896-3.588-12.202-6.46-12.202-6.46m12.202 6.46z"/></g><g id="g1775"><path id="path1773" class="fil1 str0" d="M1336.12 1015.2s11.11-9.027 13.887-13.194c2.778-4.166 10.416-17.36 10.416-17.36l-19.442-20.135s-14.582 18.054-14.582 21.525c0 3.473 9.722 29.165 9.722 29.165z"/><path id="path1774" class="fil1 str0" d="M1333.34 917.295s24.305-20.137 26.387-24.998c2.083-4.86 2.777-22.22 2.777-22.22L1350.7 867.3s-4.86 4.166-11.11 7.638c-6.25 3.472-15.276 4.166-15.276 4.166l9.026 38.19z"/><path id="path1764" class="fil1 str0" d="M1316.51 743.06s.32-7.968.477-11.63c.16-3.666 5.26-8.288 5.26-8.288s6.054 5.896 6.373 8.126c.32 2.232.477 13.226.477 13.226l-12.587-1.435z"/><path id="path1760" class="fil1 str0" d="M1307.11 1023.77l4.33-233.83 25.12.866 3.46 234.694z"/><path id="path1765" class="fil4 str0" d="M1331.6 1026.02l-2.22-243.656m2.22 243.656z"/><path id="path1769" class="fil4 str0" d="M1336.04 1026.02l-.443-243.656m.443 243.656z"/><path id="path1767" class="fil4 str0" d="M1318.28 1027.35l-1.775-245.876m1.775 245.876z"/><path id="path1766" class="fil4 str0" d="M1324.94 1026.9c.443-2.22-1.776-245.875-1.776-245.875m1.776 245.875z"/><path id="path1768" class="fil4 str0" d="M1310.74 1027.79l-.444-246.762m.444 246.762z"/><path id="path1759" class="fil1 str0" d="M1301.92 1041.09v-14.72l4.33-3.46h31.17l7.8 4.33-1.73 15.58z"/><path id="path1763" class="fil1 str0" d="M1308.07 755.487l4.62-7.33-9.24-8.126 37.44-.635-8.12 8.762 3.66 7.17z"/><path id="path1762" class="fil1 str0" d="M1311.26 778.114l6.853-6.692s-15.137-14.34-17.21-14.34c-2.07 0-3.345 3.346-5.575 3.186-2.232-.16-3.507-1.115-3.507-3.506 0-2.39 2.232-3.504 5.58-3.346l49.075-.638c3.505.16 4.62 2.232 4.46 3.984-.16 1.753-2.548 3.506-4.62 3.346-2.072-.16-2.71-3.505-4.94-3.346-2.23.16-11.79 13.385-11.79 14.34l7.966 7.65-26.29-.638z"/><path id="path1770" class="fil1 str0" d="M1305.92 786.44c-6.81 8.332-11.61 12.184-11.465 23.92 0 12.5 17.063 31.482 29.783 42.928 12.862 11.572 35.54 19.827 35.54 30.008 0 9.893-1.965 11.154-4.412 14.32 2.015-2.303 12.693-9.484 12.693-26.15 0-16.665-13.888-34.718-29.86-44.44-15.97-9.72-35.412-22.914-35.412-29.858-.18-6.006 3.132-10.727 3.132-10.727z"/><path id="path1772" class="fil1 str0" d="M1308.83 890.883c-.24 6.826 0 12.524-.482 18.08-.607 6.56 20.138 20.136 28.47 28.468 8.332 8.334 29.163 17.36 30.552 29.86 1.39 12.5-10.94 24.134-13.82 28.882 3.167-6.618-4.014-14.3-12.253-20.98-7.256-5.885-22.918-14.554-30.865-23.177-7.882-8.553-16.666-22.22-16.666-35.415 0-13.193 8.815-23.634 15.064-25.717z"/><path id="path1761" class="fil1 str0" d="M1302.73 784.09l8.76 6.45 25.42.8 8.44-7.014-8.44-5.735h-25.73z"/></g><path id="text1791" class="fil3" d="M1360.05 859.923l.977.863-3.192 3.604 6.795-.412 1.383 1.223-5.713.26-.746 7.21-1.303-1.153.697-6-2.185.086-2.28 2.576-.978-.864 6.546-7.393m-4.074-3.966c.936.828 1.444 1.717 1.524 2.668.08.95-.13 1.765-.628 2.442l-.976-.863c.312-.575.424-1.148.338-1.72-.082-.57-.422-1.12-1.018-1.648-.73-.645-1.545-.91-2.45-.794-.896.114-1.814.7-2.75 1.757-.766.865-1.186 1.746-1.262 2.643-.07.896.296 1.698 1.098 2.41.74.652 1.55.867 2.44.642.468-.118.97-.376 1.5-.773l.977.864c-.778.702-1.645 1.1-2.6 1.19-1.148.116-2.22-.268-3.218-1.15-.858-.76-1.35-1.66-1.472-2.697-.16-1.368.396-2.77 1.667-4.207.965-1.09 2.046-1.73 3.24-1.915 1.296-.206 2.492.177 3.59 1.15M1348.038 848.927c1.304 1.158 1.9 2.433 1.784 3.826-.09 1.09-.585 2.142-1.488 3.163-.977 1.103-2.07 1.773-3.278 2.008-1.418.276-2.735-.124-3.953-1.203-1.137-1.006-1.7-2.174-1.685-3.502.06-1.238.582-2.412 1.562-3.518.886-1 1.89-1.636 3.017-1.908 1.444-.347 2.792.03 4.04 1.135m-6.022 7.003c.882.782 1.8 1.03 2.75.748.958-.283 1.8-.837 2.527-1.66.77-.867 1.16-1.768 1.174-2.702.016-.93-.37-1.747-1.158-2.444-.766-.677-1.623-.966-2.573-.867-.947.095-1.874.656-2.78 1.677-.724.82-1.13 1.694-1.216 2.622-.08.93.345 1.804 1.274 2.627M1343.75 845.49l-.78.882-2.49-2.206-5.767 6.513-1.016-.903 5.765-6.51-2.49-2.206.78-.88 5.998 5.31m-15.88-5.127c-.35.44-.553.867-.61 1.282-.1.786.268 1.55 1.106 2.292.377.332.765.58 1.17.746.78.32 1.41.214 1.884-.322.357-.402.484-.8.385-1.194-.107-.394-.377-.895-.81-1.498l-.802-1.114c-.523-.726-.842-1.3-.957-1.718-.196-.724-.022-1.393.52-2.008.59-.664 1.303-1.005 2.14-1.025.836-.02 1.675.343 2.518 1.09.774.686 1.265 1.456 1.473 2.31.214.853-.044 1.69-.77 2.513l-.94-.834c.297-.44.46-.838.483-1.196.036-.654-.312-1.306-1.043-1.955-.59-.52-1.126-.772-1.603-.753-.478.018-.862.193-1.154.523-.32.36-.405.76-.25 1.195.1.282.43.814.986 1.592l.828 1.155c.4.557.646 1.054.743 1.493.164.76-.046 1.47-.627 2.13-.727.817-1.543 1.138-2.452.96-.906-.172-1.753-.608-2.54-1.305-.92-.814-1.432-1.687-1.536-2.617-.106-.926.197-1.785.915-2.574l.942.833M1324.877 828.782l5.39 4.773-.803.906-4.412-3.906-1.988 2.244 4.082 3.613-.757.857-4.082-3.614-2.22 2.506 4.49 3.974-.78.88-5.465-4.84 6.545-7.392m-6.417-5.68l-3.45 8.176 7.673-4.438 1.124.994-9.244 5.004-1.06-.94 3.85-9.776 1.108.98m-3.214-2.847l1.01.895-6.543 7.393-1.01-.896 6.543-7.392m-5.922-5.245l1 .887-5.765 6.512 3.744 3.314-.78.88-4.746-4.2 6.545-7.394z"/><path id="text1794" class="fil3" d="M1340.62 951.483l1.182 1.048-1.568 9.295 5.302-5.988.952.842-6.546 7.39-1.123-.993 1.508-9.338-5.298 5.982-.956-.845 6.546-7.394m-2.632-2.33l1.01.895-6.544 7.392-1.012-.895 6.545-7.39M1330.767 950.544l1.77-4.26-4.085 2.21 2.315 2.05m2.218-5.82l1.132 1.002-3.864 9.767-1.096-.972 1.21-2.877-2.922-2.59-2.762 1.507-1.026-.91 9.328-4.927M1323.927 942.746c.47.416.924.65 1.362.703.44.055.878-.162 1.31-.652.468-.528.594-1.056.382-1.585-.116-.28-.345-.574-.688-.876l-2.446-2.166-2.235 2.527 2.314 2.05m-.317-6.323l3.42 3.03c.565.498.957.992 1.178 1.48.414.93.247 1.82-.506 2.67-.392.442-.804.722-1.24.84-.43.122-.885.122-1.365.003.185.373.264.718.24 1.037-.022.323-.215.705-.578 1.15l-.843 1.022c-.24.29-.403.52-.488.69-.15.29-.175.536-.08.74l-.147.166-1.228-1.087c.024-.093.07-.2.14-.317.068-.12.224-.33.465-.63l1.032-1.286c.403-.503.512-.986.32-1.448-.11-.26-.37-.57-.78-.933l-2.28-2.017-2.806 3.17-1.002-.887 6.546-7.392m-4.688-4.492c.696.616 1.178 1.282 1.446 2 .392 1.034.244 2.108-.447 3.22l-.99-.877c.357-.647.455-1.26.292-1.84-.16-.585-.528-1.133-1.104-1.644-.684-.605-1.49-.86-2.413-.762-.922.1-1.832.66-2.73 1.676-.78.88-1.22 1.766-1.325 2.66-.102.893.285 1.725 1.156 2.498.668.59 1.39.886 2.168.886.785 0 1.564-.428 2.342-1.284l-2.315-2.05.735-.83 3.246 2.873-3.5 3.955-.646-.57.6-1.165c-.667.072-1.196.065-1.586-.022-.66-.142-1.328-.51-2.006-1.11-.875-.777-1.377-1.726-1.505-2.853-.058-1.32.463-2.6 1.56-3.842 1.097-1.238 2.304-1.925 3.622-2.062 1.255-.135 2.39.248 3.402 1.144m-.156-.156z"/><path id="text1797" class="fil3" d="M1490.2 832.63c.392.458.8.762 1.228.907.807.272 1.69.04 2.646-.69.43-.328.774-.687 1.032-1.078.5-.758.516-1.444.05-2.057-.352-.46-.745-.678-1.18-.655-.438.03-1.022.213-1.75.544l-1.34.615c-.877.4-1.547.62-2.012.653-.805.057-1.476-.266-2.01-.967-.578-.76-.792-1.582-.637-2.467.152-.887.71-1.698 1.672-2.432.884-.676 1.798-1.034 2.742-1.075.946-.05 1.775.396 2.492 1.333l-1.075.82c-.404-.407-.79-.66-1.162-.758-.685-.175-1.444.057-2.28.694-.674.513-1.05 1.023-1.13 1.534-.078.507.026.95.312 1.325.317.412.72.583 1.21.513.32-.05.948-.287 1.886-.71l1.39-.634c.668-.307 1.246-.466 1.73-.476.836-.016 1.54.353 2.113 1.104.713.935.88 1.864.508 2.786-.372.92-1.007 1.723-1.907 2.41-1.05.8-2.076 1.16-3.08 1.077-.998-.08-1.84-.58-2.525-1.5l1.075-.82M1477.363 833.38l6.152-4.695.79 1.034-5.04 3.843 1.956 2.563 4.662-3.555.745.978-4.66 3.556 2.183 2.86 5.125-3.91.768 1.005-6.24 4.76-6.44-8.44M1468.818 839.9l1.35-1.03 9.48 3.584-5.216-6.838 1.086-.828 6.44 8.44-1.28.978-9.54-3.53 5.212 6.832-1.09.832-6.442-8.44M1465.812 842.192l1.156-.88 6.44 8.44-1.154.882-6.44-8.442m-10.148 7.744l1.637-1.25 7.87 5.287-3.037-8.974 1.62-1.237 6.44 8.44-1.085.83-3.8-4.984c-.133-.172-.346-.46-.643-.865-.295-.404-.618-.834-.966-1.29l3.027 8.956-1.133.865-7.857-5.27.198.26c.157.206.402.52.734.94.332.412.576.718.727.916l3.8 4.984-1.09.832-6.44-8.44z"/><path id="text1800" class="fil3" d="M1467.74 951.25l1.143-.873 5.674 7.435 4.275-3.262.767 1.006-5.42 4.134-6.44-8.44m-3.006 2.293l1.155-.882 6.44 8.442-1.154.882-6.442-8.44m-5.937 4.166c1.49-1.137 2.957-1.5 4.405-1.088 1.128.32 2.138 1.063 3.026 2.227.963 1.258 1.442 2.552 1.44 3.874-.004 1.554-.7 2.86-2.09 3.922-1.3.99-2.646 1.34-4.045 1.05-1.294-.322-2.422-1.115-3.387-2.38-.872-1.14-1.334-2.334-1.387-3.578-.068-1.598.61-2.94 2.037-4.027m6.138 7.808c1.01-.77 1.46-1.685 1.36-2.746-.1-1.07-.51-2.073-1.225-3.012-.758-.992-1.627-1.59-2.61-1.8-.98-.21-1.92.028-2.82.716-.872.665-1.355 1.51-1.448 2.532-.096 1.018.302 2.112 1.194 3.28.713.935 1.55 1.544 2.512 1.828.964.277 1.976.012 3.037-.798m-6.105-7.833z"/><g id="g1723"><path id="path1627" class="fil1 str0" d="M1212.19 1036.01l397.043.59-42.35 62.35s-160.582 58.82-167.64 57.642c-7.06-1.175-168.818-58.82-168.818-58.82l-18.235-61.762z"/><path id="path1634" class="fil1 str0" d="M1362.18 971.31v88.82l8.83-2.35v-87.645z"/><path id="path1635" class="fil1 str0" d="M1442.18 970.135l1.76 89.995h8.83l-1.18-89.995z"/><path id="path1630" class="fil1 str0" d="M1353.95 1058.37l.59 15.29h104.11l-.59-15.29z"/><path id="path1629" class="fil1 str0" d="M1348.65 1067.19v14.12l114.12.59-.59-14.71z"/><g id="g1700"><path id="path1653" class="fil1 str0" d="M1490.27 1105.81v25.38l-19.22-1.72.25-30.31z"/><path id="path1652" class="fil1 str0" d="M1339.49 1101.13l-.74 26.86-17-8.87 1.97-16.51z"/><path id="path1651" class="fil1 str0" d="M1322.49 1112.47c-.985-13.058 3.943-19.71 7.884-19.71 3.942 0 142.16-.493 150.043 0 7.884.492 9.854 8.13 9.854 12.32v14.042s-.796-7.6-17.058-8.586c-16.26-.985-6.346 3.41-68.185 2.92-61.84-.494-60.363-2.91-69.725-3.65-9.362-.74-11.825.2-12.812 2.664z"/><path id="text1660" class="fil3" d="M1471.68 1095.75c1.556 0 2.68.64 3.374 1.92.537.99.806 2.348.806 4.072 0 1.633-.245 2.983-.73 4.052-.705 1.533-1.858 2.3-3.458 2.3-1.444 0-2.517-.626-3.222-1.88-.587-1.046-.88-2.45-.88-4.212 0-1.366.175-2.537.527-3.517.66-1.823 1.855-2.735 3.583-2.735m-.015 10.968c.782 0 1.406-.348 1.87-1.04.465-.695.696-1.987.696-3.877 0-1.365-.167-2.487-.502-3.365-.335-.884-.987-1.326-1.955-1.326-.89 0-1.54.42-1.956 1.26-.408.83-.613 2.062-.613 3.69 0 1.225.133 2.21.395 2.953.402 1.137 1.09 1.705 2.065 1.705z"/><path id="path1677" class="fil3" d="M1459.75 1104.86c.045.833.367 1.41.966 1.73.307.167.654.25 1.04.25.722 0 1.337-.3 1.846-.898.51-.604.87-1.826 1.083-3.666-.336.53-.753.906-1.25 1.123-.494.213-1.025.318-1.596.318-1.158 0-2.076-.36-2.753-1.082-.67-.722-1.006-1.65-1.006-2.786 0-1.09.333-2.05 1-2.88.664-.827 1.647-1.24 2.945-1.24 1.75 0 2.958.79 3.625 2.366.37.868.554 1.952.554 3.255 0 1.473-.22 2.777-.663 3.912-.73 1.892-1.975 2.837-3.725 2.837-1.174 0-2.067-.31-2.677-.924-.61-.615-.915-1.388-.915-2.316h1.527m2.29-2.467c.6 0 1.146-.196 1.637-.59.5-.395.748-1.086.748-2.07 0-.885-.225-1.54-.67-1.973-.444-.437-1.01-.654-1.696-.654-.74 0-1.33.248-1.764.747-.43.49-.646 1.152-.646 1.98 0 .783.19 1.407.57 1.87.38.46.99.69 1.82.69z"/><path id="path1675" class="fil3" d="M1452.58 1100.78c.666 0 1.186-.184 1.56-.553.376-.375.562-.82.562-1.334 0-.448-.18-.86-.537-1.233-.357-.376-.902-.564-1.636-.564-.728 0-1.254.188-1.58.564-.322.374-.484.813-.484 1.316 0 .565.21 1.008.628 1.326.42.32.914.478 1.486.478m.092 5.95c.7 0 1.278-.187 1.738-.562.464-.38.695-.945.695-1.695 0-.777-.237-1.37-.713-1.77-.475-.403-1.086-.605-1.83-.605-.72 0-1.31.208-1.77.62-.453.41-.68.978-.68 1.705 0 .627.207 1.17.622 1.628.42.455 1.065.68 1.938.68m-2.148-5.37c-.42-.18-.747-.39-.982-.63-.442-.447-.662-1.028-.662-1.745 0-.896.323-1.663.972-2.308.65-.643 1.57-.965 2.76-.965 1.154 0 2.057.306 2.712.915.654.605.982 1.312.982 2.123 0 .75-.19 1.357-.57 1.82-.214.264-.543.522-.99.773.496.23.888.492 1.173.79.53.558.796 1.286.796 2.18 0 1.058-.354 1.956-1.065 2.695-.71.732-1.714 1.098-3.01 1.098-1.17 0-2.16-.316-2.97-.948-.808-.638-1.21-1.56-1.21-2.77 0-.71.173-1.32.52-1.836.347-.52.862-.918 1.544-1.192z"/><path id="path1672" class="fil3" d="M1439.98 1099.26v-1.157c1.09-.107 1.852-.283 2.283-.528.43-.252.752-.843.965-1.772h1.192v11.967h-1.61v-8.51h-2.83z"/><path id="path1671" class="fil3" d="M1368.41 1104.56c.045.834.367 1.41.965 1.728.308.17.655.254 1.04.254.723 0 1.338-.3 1.847-.9.51-.602.87-1.825 1.083-3.666-.336.53-.753.907-1.25 1.124-.494.213-1.025.32-1.596.32-1.158 0-2.075-.362-2.753-1.083-.67-.723-1.006-1.65-1.006-2.786 0-1.09.333-2.05 1-2.877.664-.828 1.647-1.243 2.945-1.243 1.75 0 2.958.79 3.625 2.367.37.867.554 1.952.554 3.255 0 1.472-.22 2.776-.663 3.91-.73 1.892-1.975 2.838-3.725 2.838-1.174 0-2.067-.31-2.677-.923-.61-.616-.915-1.387-.915-2.317h1.527m2.29-2.467c.6 0 1.146-.196 1.638-.587.498-.397.747-1.088.747-2.073 0-.885-.225-1.54-.67-1.97-.444-.438-1.01-.656-1.696-.656-.74 0-1.33.248-1.764.747-.43.49-.645 1.152-.645 1.98 0 .783.19 1.407.57 1.87.38.46.99.69 1.82.69z"/><path id="path1669" class="fil3" d="M1361.59 1095.39c1.343 0 2.277.35 2.803 1.05.53.692.797 1.41.797 2.147h-1.494c-.09-.475-.232-.848-.426-1.116-.365-.502-.916-.754-1.654-.754-.844 0-1.517.39-2.015 1.174-.497.778-.774 1.895-.83 3.35.348-.51.785-.89 1.31-1.142.48-.225 1.017-.337 1.61-.337 1.008 0 1.887.324 2.635.966.75.645 1.126 1.604 1.126 2.88 0 1.09-.354 2.057-1.066 2.902-.71.84-1.723 1.26-3.037 1.26-1.125 0-2.096-.426-2.912-1.276-.817-.856-1.226-2.293-1.226-4.314 0-1.493.182-2.76.545-3.8.7-1.992 1.977-2.988 3.835-2.988m-.11 11.034c.796 0 1.39-.265 1.78-.796.398-.538.597-1.17.597-1.897 0-.614-.178-1.2-.53-1.753-.352-.56-.993-.84-1.92-.84-.65 0-1.22.216-1.713.648-.486.43-.73 1.08-.73 1.946 0 .763.22 1.403.663 1.923.446.513 1.065.77 1.854.77z"/><path id="path1667" class="fil3" d="M1351.67 1100.48c.665 0 1.186-.184 1.56-.553.375-.375.562-.82.562-1.334 0-.448-.18-.86-.537-1.235-.358-.374-.902-.562-1.637-.562-.726 0-1.252.188-1.577.562-.322.376-.485.815-.485 1.318 0 .565.21 1.007.63 1.326.418.32.913.478 1.485.478m.09 5.95c.7 0 1.28-.187 1.738-.563.466-.38.697-.944.697-1.694 0-.778-.237-1.37-.713-1.77-.476-.403-1.086-.605-1.83-.605-.72 0-1.31.207-1.77.62-.453.41-.68.977-.68 1.705 0 .627.206 1.17.62 1.627.42.452 1.066.68 1.94.68m-2.15-5.37c-.42-.18-.745-.39-.98-.63-.443-.447-.664-1.03-.664-1.745 0-.896.325-1.664.974-2.308.65-.643 1.57-.965 2.76-.965 1.154 0 2.056.305 2.712.915.654.604.98 1.312.98 2.123 0 .75-.19 1.357-.57 1.82-.212.263-.543.52-.99.772.498.23.89.493 1.175.79.53.56.796 1.285.796 2.182 0 1.056-.355 1.955-1.066 2.694-.71.732-1.714 1.098-3.012 1.098-1.17 0-2.16-.316-2.97-.948-.806-.638-1.21-1.56-1.21-2.77 0-.71.175-1.32.522-1.836.346-.52.86-.918 1.543-1.192z"/><path id="path1664" class="fil3" d="M1339.08 1098.95v-1.157c1.09-.107 1.852-.283 2.282-.528.43-.252.753-.844.965-1.772h1.192v11.967h-1.612v-8.51h-2.828z"/></g><path id="path1628" class="fil1 str0" d="M1243.95 1076.6l325.28 1.77-5.29 12.35-305.28.59z"/><path id="path1631" class="fil1 str0" d="M1356.3 967.782l.59 6.47h20.58l.59-7.058z"/><path id="path1632" class="fil1 str0" d="M1437.47 967.194l.59 7.058h17.65l.59-7.058z"/><path id="path1633" class="fil1 str0" d="M1362.18 957.783l-.59 9.41h88.24v-8.822z"/><path id="path1638" class="fil1 str0" d="M1416.89 1006.02c-1.176-6.47-4.119-35.292-14.118-35.882-10-.588-12.94 7.648-12.94 7.648s14.118 1.763 12.94 7.646c-1.175 5.88-7.058 20.588-10 22.35-2.94 1.766 18.824-1.175 24.118-1.762z"/><path id="path1639" class="fil1 str0" d="M1396.89 1003.07l-2.36 40 28.24.59-1.18-38.82z"/><path id="path1637" class="fil1 str0" d="M1371.01 1033.48s-.52-24.697 1.175-31.586c1.178-7.058 5.294-11.764 12.353-11.176 7.06.587 19.412 13.53 19.412 13.53 0-.002 18.823-17.06 25.88-16.47 8.082 2.325 12.22 8.063 12.987 14.657.196 5.126.615 31.34.615 31.34s-14.672-16.586-19.484-18.352c-4.117-1.177-12.352-2.352-12.352-2.352l-1.123 32-6.523-.237s-.59-15.293-1.178-21.175c-.587-5.882-2.94-11.177-2.94-11.177s-10.588 5.296-14.117 9.412c-4.258 3.88-14.705 11.588-14.705 11.588z"/><g id="g1712"><path id="path1640" class="fil1 str0" d="M1371.58 1035.78l70.604.23v29.41c-.554 25.89-35.663 62.374-35.665 62.375 0 0-35.54-33.542-35.51-63.55-.59-30 .57-28.465.57-28.465z"/><path id="path1641" class="fil3" d="M1381.5 1069.86l.01 26.48 5.01 7.81-.02-34.29z"/><path id="path1642" class="fil3" d="M1392.5 1069.86l.09 42.45 4.91 5.91-.01-48.36z"/><path id="path1643" class="fil3" d="M1403.49 1069.86l.02 54.98 3 2.96 2.97-3.28v-54.66z"/><path id="path1644" class="fil3" d="M1415.48 1069.86l.05 47.65 4.96-6.26-.02-41.39z"/><path id="path1645" class="fil3" d="M1426.47 1069.86l.07 33.03 4.92-7.68.01-25.35z"/><path id="path1646" class="fil3" d="M1371.51 1069.86h5v15.81z"/><path id="path1647" class="fil3" d="M1436.51 1069.86l.02 15.91 5.35-15.91z"/><path id="path1649" class="fil1 str0" d="M1371.01 1035.25l71.17.76v28l-71.17.24z"/></g><path id="_132303184" class="fil3" d="M1406.63 1038.49l2.952 9.082h9.548l-7.726 5.612 2.952 9.082-7.726-5.613-7.726 5.613 2.952-9.082-7.726-5.613 9.548.002 2.952-9.082zM1405.155 1043.03"/></g><g id="g1566"><path id="path1547" class="fil1 str0" d="M1584.98 1020.62l2.48-95.83h6.61l-.83 96.66z"/><path id="path1548" class="fil1 str0" d="M1594.89 876.874v26.437c0 7.436-11.566 18.175-10.74 23.96.827 5.782 8.262 4.955 10.74 3.303 2.48-1.653 15.698-23.96 15.698-37.177 0-13.218 1.65-33.046-1.652-33.87-3.306-.828-14.872 12.39-14.872 12.39l.826 4.958z"/><path id="path1543" class="fil1 str0" d="M1541.19 1004.1s-1.654 31.394-1.654 39.656c0 8.26-.825 17.35-6.61 22.305-5.782 4.958-10.74 3.307-12.39 6.61-1.652 3.306.826 5.784.826 5.784l37.177-.827s-1.654-29.74-.827-40.48c.826-10.742 8.26-27.264 4.13-30.568-4.13-3.307-17.35-3.307-20.653-2.48z"/><path id="path1544" class="fil1 str0" d="M1502.36 995.014s19.827 15.697 19.002 21.48c-.827 5.782-9.915 12.392-6.61 15.696 3.305 3.305 5.783 2.48 5.783 2.48l27.264-24.786-31.395-25.61-14.045 10.74z"/><path id="path1546" class="fil1 str0" d="M1566.8 1007.41s8.262 11.566 19.002 11.566c10.74 0 24.785-29.742 24.785-29.742s-4.958 40.482-23.96 39.656c-19-.826-19.827-13.22-19.827-21.48z"/><path id="path1545" class="fil1 str0" d="M1563.5 907.44c4.957-4.13 6.61-28.088 6.61-28.088l7.434-14.044s12.393 14.044 18.176 13.217c5.783-.827 14.045-.827 14.045-5.782 0-4.958 2.478-12.393-1.652-16.524-4.13-4.13-25.61-21.48-29.742-23.96-4.13-2.478-47.09-7.435-50.394-7.435-3.305 0-16.524 8.262-18.176 15.697-1.65 7.436-4.957 32.22-4.957 38.83 0 6.61.707 16.66.707 16.66l12.512-8.398 4.13 11.566 41.308 8.26z"/><path id="path1549" class="fil1 str0" d="M1519.71 828.13c9.087 9.913 11.566 35.525 11.566 35.525s2.478-14.045 9.088-19.003c6.61-4.956 22.306-5.782 22.306-13.217 0-7.435-17.35-9.914-22.306-9.914-4.957 0-13.22.827-20.654 6.61z"/><path id="path1550" class="fil1 str0" d="M1531.28 824c0 8.26 3.305 11.566 7.435 12.392 4.13.827 14.045-4.13 13.22-8.262-.828-4.13-20.655-4.13-20.655-4.13z"/><path id="path1551" class="fil1 str0" d="M1534.59 823.173s0 9.914 4.956 9.087c4.957-.825 9.087-10.74 9.087-10.74l-14.043 1.653z"/><path id="path1554" class="fil1 str0" d="M1531.67 783.926c-.306 5.825-.92 12.573-1.84 13.8-.92 1.226-3.988 6.132-4.293 8.585-.306 2.455 2.76 2.15 2.76 2.15s-.613 11.346-.92 13.492c-.307 2.146 4.906.305 7.053 3.986 2.147 3.68 2.147 8.893 3.373 7.973 1.226-.92 5.827-5.52 8.28-8.28 2.453-2.758 6.133-.612 7.054-4.29.92-3.682 1.84-31.282 1.84-31.282l-23.307-6.132z"/><path id="path1542" class="fil1 str0" d="M1551.11 1004.93c-9.087.827-12.392-.826-13.22-4.956-.824-4.13-.824-30.57-2.477-39.655-1.652-9.09-4.13-13.22-4.13-13.22s-21.48 15.697-21.48 23.132c0 7.436 6.61 13.218 6.61 13.218l-13.22 11.567s-27.264-15.697-27.264-24.785c0-9.088 28.09-39.656 33.045-46.265 4.96-6.61 6.61-25.61 11.567-26.437 4.958-.826 35.525 1.654 40.482 5.784 4.956 4.13 15.697 22.305 14.87 33.872-.825 11.566-4.956 9.914-5.782 14.045-.826 4.132 0 7.435-.826 13.22-.827 5.782-4.957 1.65-4.957 6.608 0 4.956 1.65 26.437-.828 30.57-2.478 4.13-4.13 3.302-12.392 3.302z"/><path id="path1552" class="fil1 str0" d="M1535.41 775.256c-5.783 4.958-9.09 6.61-7.435 9.915 1.652 3.305 14.87 4.132 16.522 8.262 1.653 4.13 0 10.74 0 10.74l6.61-1.65v19s16.523-13.22 14.87-26.438c-1.65-13.218-18.174-14.87-23.132-15.696-4.957-.826-4.957-1.653-7.435-4.132z"/><path id="path1553" class="fil1 str0" d="M1504.68 897.39c.306 4.293 1.227 26.987-.307 30.36-1.533 3.373-4.293 8.894-.614 13.187 3.68 4.293 7.972 6.132 9.813 2.76 1.84-3.374-.613-19.013 1.533-27.907 2.147-8.893 2.454-24.84.92-26.986-1.533-2.147-10.733-1.227-11.346 8.587z"/><path id="path1555" class="fil4 str0" d="M1531.36 947.07c-4.907-9.814-4.294-19.626-4.294-19.626m4.294 19.625z"/><path id="path1556" class="fil4 str0" d="M1518.48 889.11l.307-32.813m-.307 32.813z"/><path id="path1557" class="fil4 str0" d="M1570.31 879.604s-4.906-3.68-6.44-5.52c-1.534-1.84-3.374-4.6-3.374-4.6m9.814 10.12z"/><path id="path1558" class="fil4 str0" d="M1589.32 876.23c-.307-15.64 19.626-18.706 19.626-18.706m-19.626 18.706z"/><path id="path1559" class="fil4 str0" d="M1527.68 813.978l4.906.307m-4.906-.307z"/><path id="path1560" class="fil4 str0" d="M1530.44 794.965l7.054 6.135m-7.054-6.135z"/></g><g id="g1607"><path id="path1603" class="fil1 str0" d="M1251.25 800.79s-2.588-9.705-.324-11.646c2.266-1.94 16.823-12.295 21.03-11.97 4.206.322 12.293 12.293 12.293 12.293l-33 11.323z"/><path id="path1588" class="fil1 str0" d="M1259.51 831.295s-53.51 39.24-54.104 49.346c-.594 10.108 23.783 39.24 23.783 39.24l10.105-9.513s-1.188-7.133-3.566-13.674c-2.38-6.54-7.73-13.674-7.73-13.674s1.19.594 7.134-1.784c5.946-2.378 10.107-5.352 10.107-5.352s-1.782 11.89 1.19 18.43c2.972 6.542 12.486 22.593 12.486 22.593l35.078-2.377s1.19-46.374.594-57.076c-.594-10.702-13.674-30.916-13.674-30.916l-21.404 4.757z"/><path id="path1595" class="fil1 str0" d="M1267.84 1008.47s14.27 10.108 19.62 14.864c5.35 4.757 7.134 7.18 7.134 7.18l.577 5.394-14.84-.05-15.462-17.874 2.972-9.514z"/><path id="path1592" class="fil1 str0" d="M1260.97 830.324c-.646 2.587 14.592 11.672 18.755 16.428 4.162 4.756 13.08 11.297 13.08 11.297s.593-7.73-4.757-17.838-3.086-11.725-5.464-12.32c-2.377-.594-23.914-.908-21.614 2.432z"/><path id="path1590" class="fil1 str0" d="M1255.95 923.448s-9.513 39.24-10.702 70.75c-1.19 31.51 6.54 63.02 6.54 63.02l22.592-2.972v-37.455s42.212-43.4 42.212-49.94c0-6.54-23.187-38.052-21.998-42.213 1.19-4.163-.594-10.107-.594-10.107l-38.05 8.918z"/><path id="path1591" class="fil1 str0" d="M1274.97 990.63s6.103-18.97 7.886-24.32c1.784-5.353 2.326-9.515 2.326-9.515s7.03 5.892 6.434 9.46c-.594 3.57-8.917-1.19-16.646 24.376z"/><path id="path1605" class="fil3 str0" d="M1241.22 1004.6s-.647-17.793-1.94-22.97c-1.296-5.177-6.147-20.058-6.147-31.38 0-11.324 2.264-19.09 9.38-28.146 7.12-9.06 14.56-11.97 14.56-11.97s7.117 0 17.792-.325c10.677-.323 20.382-.97 20.382-.97l-.323 11.322s-13.588 3.882-22.323 3.882c-8.735 0-18.116-1.94-18.116-1.94s-14.882 14.234-14.235 27.82c.647 13.59 4.53 33.324 4.205 38.824-.322 5.5-3.235 15.852-3.235 15.852z"/><path id="path1593" class="fil1 str0" d="M1258.65 831.67s-.918-14.05.272-19.995c1.19-5.946 6.54-20.215 6.54-20.215l20.808-.594-.594 27.943-4.162-.595 1.783 9.512s-7.134 3.57-13.675 4.163c-6.538.594-10.972-.22-10.972-.22z"/><path id="path1586" class="fil1 str0" d="M1262.71 810.058c-13.08 2.972-19.846 8.75-24.008 4.59-4.16-4.16 4.756-16.648 23.78-24.376 19.026-7.73 36.863-3.568 38.053 0 1.188 3.567-8.325 10.107-13.08 10.7-4.757.595-13.676 0-17.243 2.38-3.567 2.377-7.502 6.706-7.502 6.706z"/><path id="path1587" class="fil1 str0" d="M1258.39 824.864c-7.35.36-8.813-6.9-5.413-12 3.568-5.352 10.108-14.864 17.836-17.242 7.73-2.378 14.27 0 14.864 4.16 1.415 4.37.246 7.5.246 7.5s-10.975-8.545-15.704-3.932c-4.163 4.758-4.758 13.675-8.324 17.837-1.165 1.746-1.48 3.583-3.506 3.677z"/><path id="path1594" class="fil1 str0" d="M1251.19 911.557c.594-10.107 9.302-12.485 11.89-12.485 2.265 0 5.946 11.296 5.946 19.025 0 7.73-4.757 23.187-8.918 23.78-4.162.595-2.972-20.213-2.972-20.213h-4.758l-1.188-10.107z"/><path id="path1596" class="fil1 str0" d="M1252.38 1056.62l-.594 21.404 46.374-1.19s1.19-3.566-1.784-6.54c-2.973-2.972-16.05-4.16-18.43-8.322-2.38-4.163-2.973-6.54-2.973-6.54l-22.593 1.188z"/><path id="path1598" class="fil4 str0" d="M1272.6 831.2c8.735 5.177 19.088 20.704 19.735 23.293.646 2.588.646 3.56.646 3.56M1272.6 831.2z"/><path id="path1599" class="fil1 str0" d="M1226.01 916.284c4.205-9.058 12.293-8.734 12.293-8.734s11.323 5.824 11 8.734c-.325 2.913-9.06-.322-9.707 1.618-.647 1.942 4.853 8.088 1.942 11-2.91 2.91-12.618-5.823-15.528-12.618z"/><path id="path1601" class="fil4 str0" d="M1282.4 822.954l-3.657-.49m4.853.648z"/><path id="path1602" class="fil4 str0" d="M1274.54 1016.9c.215-9.274-1.186-19.195.647-27.823m-.647 27.823z"/><path id="path1604" class="fil3" d="M1281.66 809.687c0-1.697-1.448-3.074-3.235-3.074s-3.235 1.377-3.235 3.074c0 1.697 1.448 3.072 3.235 3.072s3.235-1.376 3.235-3.073z"/><path id="path1606" class="fil4 str0" d="M1285.22 956.725c1.942-11.97.646-24.263.646-24.263m-.646 24.263z"/></g><path id="path919" class="fil1 str0" d="M1704.59 891.04c0 164.387-133.604 297.803-298.224 297.803-164.617 0-298.22-133.416-298.22-297.804 0-164.39 133.603-297.807 298.22-297.807 164.62 0 298.224 133.416 298.224 297.806zm-59.29-.942c0 132.38-107.042 239.818-238.932 239.818s-238.932-107.44-238.932-239.818c0-132.38 107.042-239.817 238.932-239.817s238.93 107.44 238.93 239.818z"/><path id="text1951" class="fil3" d="M1482.86 612.633c3.124 1.146 5.603 2.74 7.437 4.786 2.67 2.947 3.574 6.73 2.717 11.347l-4.458-1.637c.348-2.628-.128-4.806-1.43-6.534-1.293-1.743-3.24-3.09-5.835-4.045-3.076-1.128-6.097-.928-9.056.605-2.946 1.54-5.257 4.595-6.937 9.168-1.452 3.953-1.766 7.493-.945 10.62.826 3.113 3.202 5.39 7.125 6.83 3.003 1.102 5.805 1.145 8.403.13 2.62-1.024 4.667-3.475 6.14-7.352l-10.41-3.82 1.37-3.736 14.6 5.36-6.53 17.793-2.9-1.066.486-4.675c-2.14 1.115-3.917 1.782-5.333 2-2.387.39-5.104.025-8.153-1.095-3.938-1.446-6.858-3.965-8.76-7.557-1.917-4.334-1.85-9.294.198-14.877 2.044-5.57 5.18-9.443 9.406-11.624 4.02-2.087 8.308-2.293 12.866-.62z"/><path id="path2004" class="fil3" d="M1248.95 652.12l4.97-2.707 29.43 16.666-13.71-25.213 4.01-2.175 16.91 31.122-4.72 2.567-29.64-16.517 13.69 25.19-4.03 2.19z"/><path id="path2002" class="fil3" d="M1222.46 672.728l3.59-3.258 23.81 26.23-3.59 3.257z"/><path id="path2000" class="fil3" d="M1174.2 721.372l4.22-5.422 29.884 10.37-17.423-26.372 4.178-5.366 27.95 21.763-2.8 3.595-16.496-12.843c-.57-.444-1.507-1.193-2.806-2.246-1.3-1.052-2.702-2.164-4.212-3.34l17.366 26.326-2.92 3.748-29.824-10.325.856.666c.687.533 1.743 1.336 3.17 2.406 1.425 1.05 2.467 1.828 3.127 2.342l16.494 12.843-2.814 3.617-27.95-21.762z"/><path id="path1999" class="fil3" d="M1151.4 757.874c2.532-5.72 6.244-9.138 11.135-10.26 3.817-.875 7.96-.325 12.428 1.654 4.835 2.143 8.31 5.15 10.43 9.024 2.486 4.546 2.548 9.488.185 14.824-2.207 4.982-5.588 8.17-10.143 9.565-4.3 1.136-8.877.63-13.728-1.517-4.38-1.94-7.646-4.688-9.798-8.243-2.762-4.564-2.932-9.58-.51-15.046m30.488 12.974c1.712-3.865 1.567-7.27-.434-10.214-2.01-2.964-4.816-5.244-8.416-6.838-3.808-1.687-7.315-2.044-10.523-1.074-3.2.957-5.566 3.16-7.096 6.614-1.485 3.352-1.543 6.597-.172 9.736 1.355 3.13 4.274 5.69 8.758 7.676 3.587 1.588 7.014 2.024 10.284 1.31 3.262-.735 5.795-3.138 7.598-7.21z"/><path id="path1996" class="fil3" d="M1130.93 822.23l1.29-5.44 18.91-5.973-14.22-13.83 1.3-5.467 17.49 17.902 13.89 3.296-1.11 4.67-13.89-3.297z"/><path id="path1994" class="fil3" d="M1120.85 881.05l29.11-5.28-28.4-9.387.25-5.202 29.17-6.604-28.46-8.062.26-5.25 34.93 11.006-.25 5.033-29.73 6.747 28.94 9.63-.24 5.035-35.83 7.538z"/><path id="path1993" class="fil3" d="M1134.11 975.872l-6.99-23.557 4.17-1.234 5.62 18.958 10.31-3.058-4.94-16.667 4.04-1.2 4.94 16.667 15.45-4.58 1.36 4.602z"/><path id="path1992" class="fil3" d="M1149.96 1016.94c-3.804-4.963-5.027-9.86-3.666-14.69 1.06-3.77 3.53-7.142 7.407-10.114 4.198-3.218 8.504-4.828 12.918-4.83 5.183-.002 9.55 2.31 13.1 6.943 3.316 4.323 4.493 8.82 3.533 13.484-1.062 4.32-3.7 8.093-7.91 11.32-3.8 2.916-7.778 4.466-11.93 4.65-5.33.238-9.812-2.017-13.45-6.764m26-20.54c-2.573-3.355-5.63-4.86-9.173-4.514-3.564.344-6.91 1.714-10.036 4.11-3.303 2.533-5.298 5.44-5.984 8.72-.695 3.266.106 6.4 2.404 9.4 2.23 2.907 5.05 4.513 8.463 4.814 3.398.31 7.043-1.025 10.934-4.01 3.113-2.383 5.14-5.184 6.08-8.395.917-3.216.022-6.59-2.687-10.124z"/><path id="path1989" class="fil3" d="M1206.98 1094.86l-16.95-19.48 3.27-2.85 13.88 15.95 8.12-7.06-12.84-14.75 3.09-2.69 12.84 14.75 9.06-7.88-14.12-16.23 3.19-2.77 17.18 19.76z"/><path id="path1987" class="fil3" d="M1222 1109.91l2.37-3.49 9.87 6.71 17.55-25.8 4.02 2.74-17.54 25.8 9.87 6.71-2.38 3.49z"/><path id="path1986" class="fil3" d="M1273.5 1119.64l-2.787 16.312 12.52-10.99-9.733-5.322m-3.11 22.127l-4.76-2.603 5.713-37.246 4.614 2.522-1.937 11.033 12.29 6.72 8.456-7.47 4.315 2.36-28.69 24.684z"/><path id="path1983" class="fil3" d="M1297.74 1156.16l1.36-3.99 11.3 3.84 10.05-29.54 4.61 1.57-10.05 29.54 11.3 3.84-1.35 4z"/><path id="path1982" class="fil3" d="M1362 1149.34c.207-2.003-.004-3.687-.63-5.06-1.202-2.566-3.787-4.17-7.756-4.803-1.777-.284-3.438-.29-4.978-.016-2.984.534-4.677 2.07-5.085 4.61-.302 1.905.076 3.358 1.136 4.357 1.08.987 2.858 1.98 5.336 2.98l4.568 1.827c2.983 1.193 5.05 2.314 6.202 3.36 1.99 1.817 2.75 4.176 2.286 7.08-.502 3.144-2.002 5.55-4.498 7.218-2.5 1.667-5.74 2.183-9.723 1.547-3.668-.588-6.636-1.974-8.907-4.16-2.29-2.173-3.125-5.205-2.502-9.094l4.452.712c-.06 1.912.217 3.43.835 4.553 1.153 2.06 3.46 3.364 6.92 3.916 2.793.448 4.895.18 6.305-.798 1.41-.98 2.24-2.246 2.49-3.802.272-1.715-.24-3.084-1.543-4.106-.855-.657-2.874-1.63-6.052-2.92l-4.727-1.904c-2.278-.918-3.986-1.948-5.122-3.09-1.96-1.99-2.693-4.54-2.196-7.652.62-3.874 2.476-6.417 5.568-7.633 3.077-1.216 6.478-1.527 10.21-.93 4.348.695 7.576 2.35 9.68 4.967 2.11 2.6 2.837 5.784 2.185 9.554l-4.453-.71z"/><path id="path1980" class="fil3" d="M1463.33 1171.03l-25.42 4.55-.77-4.27 20.82-3.73-1.9-10.59-19.25 3.45-.72-4.03 19.25-3.45-2.12-11.82-21.17 3.79-.75-4.15 25.78-4.62z"/><path id="path1978" class="fil3" d="M1520.1 1153.92l-4.6 1.52-4.59-13.9-17.49 5.78 4.59 13.9-4.6 1.52-11.12-33.63 4.6-1.52 5.2 15.73 17.49-5.78-5.2-15.73 4.6-1.52z"/><path id="path1977" class="fil3" d="M1545.09 1141.13l-2.25-3.57 10.11-6.35-16.61-26.42 4.12-2.59 16.61 26.42 10.11-6.36 2.24 3.58z"/><path id="path1976" class="fil3" d="M1629.88 1071.08l-16.29 18.39-3.25-2.87 13.11-14.81-8.05-7.12-11.52 13.01-3.16-2.8 11.52-13.01-12.05-10.68 3.18-3.59z"/><path id="path1975" class="fil3" d="M1653.18 1043.66c-4.147 4.68-8.72 6.814-13.722 6.4-3.902-.322-7.683-2.102-11.342-5.343-3.96-3.507-6.36-7.427-7.202-11.76-.993-5.086.446-9.813 4.314-14.182 3.614-4.08 7.8-6.093 12.565-6.04 4.443.22 8.65 2.088 12.622 5.606 3.586 3.177 5.867 6.786 6.84 10.825 1.247 5.187-.11 10.017-4.075 14.495m-25.123-21.606c-2.803 3.164-3.696 6.452-2.68 9.865 1.016 3.433 3 6.456 5.947 9.067 3.117 2.762 6.35 4.165 9.7 4.212 3.342.058 6.265-1.326 8.77-4.154 2.43-2.744 3.466-5.82 3.112-9.225-.342-3.395-2.348-6.72-6.02-9.968-2.935-2.6-6.07-4.057-9.403-4.368-3.332-.287-6.473 1.237-9.426 4.57z"/><path id="path1972" class="fil3" d="M1687.31 949.566l-1.28 4.625-30.07-8.335-4.79 17.288-4.07-1.127 6.07-21.912z"/><path id="path1971" class="fil3" d="M1671.5 917.13l16.185-3.442-14.842-7.567-1.343 11.01m21.706-5.295l-.656 5.385-36.717 8.47.636-5.218 10.965-2.282 1.696-13.906-10.066-5.09.596-4.884 33.546 17.525z"/><path id="path1968" class="fil3" d="M1689.92 853.34l1.92 25.752-4.33.324-1.57-21.088-10.72.8 1.45 19.502-4.09.306-1.45-19.502-11.98.894 1.6 21.45-4.2.314-1.95-26.114z"/><path id="path1966" class="fil3" d="M1656.23 810.5c-1.85.79-3.223 1.792-4.117 3.003-1.667 2.295-1.816 5.333-.448 9.113.612 1.692 1.41 3.146 2.398 4.363 1.91 2.35 4.074 3.088 6.495 2.213 1.813-.655 2.9-1.69 3.262-3.104.34-1.423.347-3.46.02-6.11l-.612-4.882c-.402-3.19-.423-5.54-.065-7.054.625-2.62 2.32-4.43 5.087-5.43 2.994-1.082 5.824-.936 8.493.44 2.67 1.376 4.69 3.963 6.063 7.756 1.263 3.493 1.488 6.762.676 9.807-.793 3.057-3.04 5.255-6.743 6.595l-1.536-4.24c1.702-.873 2.895-1.852 3.58-2.936 1.24-2.005 1.264-4.655.072-7.95-.962-2.66-2.213-4.37-3.752-5.13-1.54-.76-3.05-.87-4.532-.335-1.633.59-2.58 1.703-2.845 3.337-.16 1.067-.036 3.304.377 6.712l.624 5.054c.3 2.44.226 4.43-.223 5.98-.79 2.678-2.668 4.554-5.63 5.625-3.69 1.334-6.815.942-9.375-1.174-2.555-2.102-4.475-4.928-5.76-8.48-1.5-4.143-1.613-7.768-.345-10.877 1.254-3.105 3.688-5.284 7.302-6.54l1.533 4.24z"/><path id="path1964" class="fil3" d="M1653.99 748.34l-3.61 2.186-6.18-10.212-26.69 16.156-2.52-4.168 26.69-16.155-6.18-10.212 3.61-2.185z"/><path id="path1963" class="fil3" d="M1604.23 717.07l8.75-14.046-15.747 5.44 6.997 8.605m11.246-19.31l3.422 4.21-19.373 32.32-3.317-4.078 5.965-9.482-8.84-10.87-10.65 3.72-3.103-3.816 35.897-12.003z"/><path id="path1960" class="fil3" d="M1566.92 654.47l20.51 15.702-2.64 3.445L1568 660.76l-6.54 8.536 15.53 11.892-2.5 3.254-15.52-11.89-7.3 9.532 17.07 13.08-2.56 3.35-20.79-15.923z"/><path id="path1956" class="fil3" d="M1315.39 618.45c3.228-.81 6.176-.886 8.843-.23 3.864.935 6.743 3.552 8.634 7.85l-4.61 1.158c-1.19-2.37-2.81-3.902-4.857-4.598-2.05-.71-4.417-.73-7.1-.058-3.18.798-5.562 2.665-7.147 5.597-1.568 2.93-1.76 6.756-.573 11.48 1.025 4.085 2.756 7.19 5.195 9.31 2.436 2.11 5.68 2.653 9.733 1.636 3.104-.778 5.443-2.318 7.02-4.62 1.588-2.322 1.9-5.5.938-9.533l-10.758 2.7-.968-3.86 15.085-3.787 4.613 18.383-2.993.752-2.233-4.14c-1.14 2.127-2.235 3.677-3.282 4.653-1.753 1.666-4.204 2.895-7.353 3.685-4.07 1.022-7.9.583-11.494-1.317-4.025-2.502-6.762-6.64-8.21-12.408-1.444-5.753-1.033-10.72 1.23-14.902 2.15-3.988 5.58-6.57 10.287-7.753z"/><path id="path2005" class="fil3" d="M1526.76 650.304c1.994 1.044 3.776 1.47 5.347 1.276 1.585-.188 2.922-1.32 4.01-3.4 1.17-2.237 1.156-4.185-.044-5.847-.645-.88-1.694-1.702-3.148-2.463l-10.383-5.433-5.61 10.726 9.828 5.14m-6.56-21.743l14.53 7.6c2.393 1.252 4.183 2.634 5.37 4.144 2.25 2.88 2.43 6.124.545 9.727-.983 1.88-2.18 3.215-3.59 4.002-1.394.793-2.98 1.19-4.756 1.184.963 1.14 1.54 2.276 1.727 3.41.2 1.14-.14 2.64-1.02 4.5l-2.053 4.286c-.583 1.22-.95 2.162-1.098 2.827-.266 1.13-.146 2.01.36 2.637l-.367.705-5.215-2.727c0-.345.067-.753.206-1.225.14-.473.5-1.335 1.083-2.59l2.483-5.37c.974-2.103.93-3.877-.13-5.32-.61-.808-1.784-1.668-3.522-2.577l-9.68-5.064-7.04 13.46-4.25-2.225 16.417-31.385z"/></g></svg>