<svg xmlns="http://www.w3.org/2000/svg" xmlns:xlink="http://www.w3.org/1999/xlink" width="500" height="500" viewBox="0 0 2500 2500"><title>Flag of Vatican City</title><path font-size="12" fill="#fff" fill-rule="evenodd" stroke-width="1pt" d="M0 0h2500v2500H0z"/><path d="M1944.256 678.066s-4.8-17.08-8.87-24.893c-2.432-4.67-5.83-8.79-9.155-12.876-3.982-4.894-8-9.87-12.875-13.877-4.417-3.63-9.536-6.346-14.593-9.013-5.432-2.866-10.89-5.956-16.844-7.472-6.14-1.563-18.944-1.54-18.944-1.54s-12.787-.027-18.943 1.54c-5.952 1.515-11.41 4.606-16.844 7.472-5.056 2.667-10.176 5.382-14.592 9.013-4.875 4.007-8.893 8.983-12.876 13.877-3.324 4.085-6.723 8.205-9.156 12.876-4.07 7.812-8.87 24.893-8.87 24.893l81.282-3.148z" fill="#fff" stroke="#000" stroke-width="3.205" stroke-linecap="round" stroke-linejoin="round"/><path d="M1870.293 608.25c3.894.288 8.632 4.268 11.588 1.718 1.337-1.153.676-3.664 0-5.294-1.573-3.8-8.412-4.625-8.726-8.726-.27-3.538 5.19-5.212 6.295-8.584.548-1.677.68-3.666 0-5.294-2.753-6.577-14.494-6.95-16.528-13.68-.9-2.982 5.932-6.493 6.8-6.87 4.34-1.878 9.703 2.66 13.987.8 2.898-1.258 6.125-4.123 6.07-7.283-.06-3.44-3.727-6.317-6.88-7.69-6.108-2.656-16.22 5.906-19.978.406-3.46-5.062 8.643-11.08 7.03-16.995-.767-2.81-6.978-5.26-6.978-5.26s-6.202 2.438-6.977 5.26c-1.624 5.912 10.488 11.933 7.03 16.995-3.758 5.5-13.87-3.062-19.98-.405-3.152 1.372-6.817 4.25-6.878 7.69-.057 3.16 3.17 6.024 6.07 7.282 4.283 1.86 9.647-2.678 13.987-.8.867.377 7.7 3.888 6.8 6.87-2.034 6.73-13.776 7.103-16.527 13.68-.68 1.628-.55 3.617 0 5.294 1.103 3.372 6.565 5.046 6.294 8.584-.313 4.1-7.152 4.926-8.726 8.726-.676 1.63-1.336 4.14 0 5.294 2.956 2.55 7.693-1.43 11.588-1.717 2.433-.178 7.318 0 7.318 0s4.87-.18 7.32 0z" fill="#ce9d09" stroke="#000" stroke-width="3.205" stroke-linecap="round" stroke-linejoin="round"/><path font-size="12" fill="#ffe000" fill-rule="evenodd" stroke-width="1pt" d="M0 0h1250v2500H0z"/><defs transform="matrix(26.4 0 0 27.8 -38568.8 -6880)" fill-rule="evenodd"><path id="a" d="M529.124 342.16v98.06H469.76V342.93z"/></defs><path d="M1796.285 806.822l-46.067 9.156-16.88-50.93 12.302-14.02 53.506-24.32 63.828-4.58 63.83 4.58 53.504 24.32 12.304 14.02-16.882 50.93-46.066-9.156-66.69-11.16z" fill="#fff"/><path d="M1842.037 729.033c-11.977.723-24.01 1.474-35.81 3.642-12.294 2.258-24.486 5.397-36.216 9.71-11.112 4.088-22.868 22.645-32.095 15.223-1.983-1.595.753-5.084 1.717-7.44 1.865-4.555 4.43-8.93 7.725-12.588 2.414-2.678 7.976-3.027 8.584-6.58.443-2.583-3.473-4.094-4.29-6.582-1.045-3.177-1.54-6.814-.573-10.015 1.24-4.108 6.525-6.18 7.725-10.3 1.043-3.582-2.547-7.833-.858-11.16 2.133-4.2 11.337-2.776 12.017-7.438.333-2.273-3.824-2.98-4.577-5.15-.532-1.535.31-3.24.286-4.865-.032-2.2.39-4.6-.573-6.58-.857-1.76-3.702-2.14-4.292-4.006-.558-1.766-.172-4.134 1.145-5.437 1.036-1.026 3.632.443 4.29-.858 1.333-2.627-2.537-5.315-3.718-8.013-1.407-3.212-3.207-6.313-4.006-9.728-.63-2.7-2.958-6.887-.572-8.298 2.732-1.617 5.477 3.238 8.01 5.15 3.347 2.523 7.11 4.817 9.444 8.297 1.683 2.51.742 6.51 2.948 8.577 2.647 2.48 7.758.49 10.5 2.868 2.356 2.042 4.44 5.55 3.72 8.583-.69 2.9-7.532 2.818-6.868 5.723.79 3.45 6.813 3.18 10.3 2.576 2.034-.352 3.463-2.247 5.15-3.434 1.312-.92 2.39-2.232 3.864-2.86 1.69-.723 5.436-.93 5.436-.93l-2.146-.5s-3.172-2.53-3.505-4.365c-.314-1.728.437-3.732 1.645-5.007 1.355-1.43 3.538-2.16 5.508-2.146 1.647.012 3.446.663 4.578 1.86 1.16 1.227 1.824 3.113 1.645 4.792-.156 1.468-1.127 2.88-2.29 3.792-1.257.986-4.577 1.43-4.577 1.43l2.29.644 6.15 8.44 26.54-1.453s3.273-3.34 2.63-5.16c-.69-1.95-2.503-2.668-5.665-2.53-8.58.377-10.34-6.828-10.014-12.038.27-4.333 5.484-7.274 9.51-8.902 3.876-1.568 10.786 3.593 12.543-.202 1.54-3.327-5.82-5.02-6.98-8.498-.504-1.504-.51-3.336.2-4.754 1.814-3.622 5.714-6.03 9.41-7.688 1.556-.7 5.054-.81 5.054-.81s3.482.105 5.055.81c3.696 1.655 7.595 4.066 9.407 7.688.71 1.418.706 3.25.203 4.754-1.162 3.477-8.52 5.17-6.98 8.498 1.756 3.795 8.667-1.366 12.544.202 4.025 1.628 9.24 4.57 9.51 8.902.323 5.21-1.435 12.415-10.016 12.038-3.162-.138-4.976.58-5.665 2.53-.643 1.82 2.63 5.16 2.63 5.16l26.54 1.453 6.15-8.44 2.29-.645s-3.32-.444-4.58-1.43c-1.16-.912-2.13-2.324-2.288-3.792-.18-1.68.485-3.565 1.646-4.792 1.133-1.197 2.93-1.848 4.58-1.86 1.97-.014 4.15.715 5.506 2.146 1.21 1.275 1.96 3.28 1.646 5.007-.334 1.836-3.505 4.364-3.505 4.364l-2.146.5s3.746.21 5.437.93c1.474.63 2.552 1.94 3.863 2.862 1.688 1.187 3.117 3.082 5.15 3.434 3.487.604 9.51.875 10.3-2.575.665-2.904-6.177-2.823-6.866-5.722-.722-3.033 1.363-6.54 3.72-8.583 2.74-2.377 7.852-.387 10.5-2.868 2.204-2.068 1.264-6.066 2.947-8.578 2.334-3.48 6.098-5.775 9.443-8.298 2.535-1.912 5.28-6.767 8.012-5.15 2.386 1.41.06 5.598-.573 8.297-.798 3.414-2.6 6.515-4.005 9.728-1.18 2.697-5.052 5.385-3.72 8.01.66 1.302 3.255-.167 4.292.86 1.315 1.302 1.702 3.67 1.143 5.436-.59 1.866-3.434 2.246-4.29 4.006-.966 1.98-.543 4.38-.574 6.58-.024 1.624.818 3.33.285 4.865-.752 2.17-4.91 2.877-4.578 5.15.68 4.662 9.885 3.238 12.018 7.44 1.69 3.325-1.902 7.576-.86 11.158 1.2 4.12 6.486 6.192 7.727 10.3.966 3.2.47 6.838-.573 10.015-.818 2.488-4.734 4-4.292 6.58.607 3.555 6.17 3.904 8.583 6.582 3.298 3.657 5.86 8.033 7.727 12.59.964 2.354 3.7 5.843 1.717 7.438-9.227 7.422-20.983-11.135-32.096-15.222-11.73-4.314-23.923-7.453-36.215-9.71-11.8-2.17-23.835-2.92-35.81-3.643-6.97-.42-20.94-.405-20.94-.405s-13.95-.017-20.936.405zM1856.227 561.52c-2.642-5.6 1.975-9.75 6.747-13.856 4.773 4.107 9.39 8.256 6.748 13.857" fill="#ce9d09" stroke="#000" stroke-width="3.205" stroke-linecap="round" stroke-linejoin="round"/><path d="M1785.74 670.894s-6.864.513-9.252-1.5c-2.465-2.08-3.915-6.02-3.14-9.15.612-2.464 5.55-5.213 5.55-5.213" fill="none" stroke="#000" stroke-width="3.205" stroke-linecap="round" stroke-linejoin="round"/><path d="M1769.97 685.433s12.543-3.188 18.875-4.506c6.924-1.442 13.873-2.82 20.887-3.72 8.068-1.035 16.2-1.555 24.325-1.928 9.63-.444 28.917-.368 28.917-.368s19.27-.076 28.917.367c8.126.372 16.26.892 24.326 1.927 7.014.9 13.964 2.278 20.887 3.72 6.333 1.318 18.875 4.506 18.875 4.506" fill="#ce9d09" stroke="#000" stroke-width="3.205" stroke-linecap="round" stroke-linejoin="round"/><path d="M1764.93 668.752l11.515.605M1765.927 658.967l7.515.982M1795.88 674.316l2.68 4.655" fill="#fbe704" stroke="#000" stroke-width="3.205" stroke-linecap="round" stroke-linejoin="round"/><path d="M1758.518 704.48s11.295-2.82 16.955-4.177c8.08-1.938 16.1-4.195 24.28-5.665 9.26-1.663 18.62-2.884 28.005-3.554 11.71-.835 35.216-.572 35.216-.572s23.488-.264 35.216.572c9.387.67 18.745 1.89 28.007 3.554 8.18 1.47 16.197 3.727 24.278 5.665 5.66 1.358 16.955 4.178 16.955 4.178M1855.043 765.524l-8.573-7.133s-13.436 5.728-17.99 11.107c-1.27 1.5-2.35 3.5-2.224 5.463.448 6.962 10.318 18.21 10.318 18.21l19.928-8.284" fill="#ce9d09" stroke="#000" stroke-width="3.205" stroke-linecap="round" stroke-linejoin="round"/><path d="M1848.916 955.026c-8.7.096-17.44-.636-26.1.202-13.113 1.27-26.078 4.034-38.845 7.284-6.262 1.594-18.444 5.97-18.444 5.97l-1.144-10.013 3.862-5.152-9.728-20.315-10.3-9.3.143-19.884s-4.968 3.106-7.584 2.574c-2.945-.6-5.496-3.265-6.724-6.01-.974-2.175.65-4.858 0-7.152-.594-2.1-2.208-3.772-3.433-5.58-1.3-1.918-2.68-3.788-4.15-5.58-1.714-2.087-5.504-3.307-5.436-6.008.05-1.955 4.148-4.148 4.148-4.148l5.437-1.145 11.3-19.6-.842-21.38s-4.636-3.242-5.867-5.666c-.893-1.76-.808-5.867-.808-5.867l11.937-15.58s-3.398.123-4.857-.606c-2.603-1.3-6.07-6.27-6.07-6.27s-6.667 4.61-10.318 4.045c-1.8-.278-3.295-1.886-4.25-3.44-1.01-1.645-1.643-3.78-1.213-5.664.343-1.498 1.658-2.648 2.833-3.64 2.28-1.93 6.395-1.663 7.89-4.25 1.182-2.044.45-4.81-.202-7.08-1.36-4.736-4.747-8.65-7.486-12.747-1.74-2.6-5.294-4.38-5.665-7.486-.2-1.68 2.023-4.653 2.023-4.653s5.225-.127 7.69.607c4.076 1.215 8.306 3 11.2 6.118 2.406 2.592 3.113 6.36 4.377 9.664.96 2.51 2.428 7.688 2.428 7.688s6.04-.01 8.7 1.214c3.516 1.617 7.11 4.16 8.7 7.688 1.247 2.767 1.073 6.266 0 9.105-1.082 2.86-3.488 5.24-6.07 6.878-2.846 1.808-9.71 2.833-9.71 2.833s6.016 6.006 9.913 7.284c2.05.672 4.413.64 6.474 0 2.5-.777 4.434-2.81 6.474-4.452 4.61-3.71 9.226-7.54 12.95-12.14 2.132-2.632 5.26-8.7 5.26-8.7s-5.348-2.822-7.284-5.057c-1.283-1.482-2.5-3.304-2.63-5.26-.15-2.277.62-4.853 2.226-6.474 1.56-1.578 4.053-2.22 6.272-2.227 1.855-.006 3.848.617 5.26 1.82 1.63 1.39 2.78 3.54 3.035 5.666.218 1.813-.51 3.695-1.368 5.308-1.3 2.447-5.512 6.223-5.512 6.223s12.91 10.143 20.637 12.14c7.577 1.96 15.962 1.605 23.47-.606 1.883-.555 5.03-3.065 5.03-3.065 8.827-5.622 17.653-8.708 26.427-7.862 8.774-.846 17.6 2.24 26.427 7.86 0 0 3.15 2.51 5.032 3.066 7.507 2.21 15.893 2.565 23.47.607 7.727-1.997 20.636-12.14 20.636-12.14s-4.21-3.775-5.51-6.222c-.86-1.613-1.587-3.495-1.368-5.31.256-2.126 1.404-4.274 3.034-5.664 1.412-1.204 3.405-1.827 5.26-1.82 2.22.007 4.712.648 6.273 2.225 1.605 1.62 2.376 4.196 2.225 6.473-.13 1.956-1.347 3.778-2.63 5.26-1.935 2.235-7.284 5.058-7.284 5.058s3.128 6.068 5.26 8.7c3.724 4.6 8.34 8.43 12.95 12.14 2.04 1.643 3.973 3.675 6.474 4.452 2.06.64 4.423.672 6.474 0 3.896-1.278 9.914-7.284 9.914-7.284s-6.865-1.025-9.712-2.833c-2.58-1.64-4.988-4.018-6.07-6.878-1.073-2.84-1.247-6.338 0-9.105 1.59-3.528 5.185-6.07 8.7-7.688 2.66-1.224 8.7-1.214 8.7-1.214s1.467-5.178 2.428-7.688c1.264-3.303 1.972-7.072 4.378-9.664 2.894-3.118 7.123-4.903 11.2-6.117 2.465-.733 7.69-.606 7.69-.606s2.223 2.974 2.022 4.653c-.37 3.107-3.925 4.885-5.665 7.486-2.738 4.096-6.124 8.01-7.485 12.746-.652 2.27-1.384 5.036-.202 7.08 1.495 2.587 5.61 2.32 7.89 4.25 1.175.992 2.49 2.142 2.833 3.64.43 1.884-.203 4.02-1.214 5.666-.953 1.553-2.448 3.16-4.25 3.44-3.65.564-10.317-4.047-10.317-4.047s-3.467 4.97-6.07 6.27c-1.46.73-4.855.608-4.855.608l11.937 15.58s.085 4.106-.81 5.866c-1.23 2.424-5.867 5.665-5.867 5.665l-.842 21.38 11.302 19.6 5.436 1.146s4.1 2.193 4.15 4.148c.066 2.7-3.724 3.92-5.437 6.01-1.472 1.79-2.85 3.66-4.15 5.578-1.225 1.808-2.84 3.48-3.434 5.58-.65 2.294.974 4.977 0 7.153-1.228 2.744-3.778 5.41-6.724 6.01-2.615.53-7.582-2.576-7.582-2.576l.143 19.884-10.3 9.3-9.73 20.314 3.864 5.15-1.145 10.015s-12.18-4.377-18.444-5.97c-12.767-3.25-25.733-6.015-38.846-7.285-8.66-.838-17.4-.106-26.1-.202-4.686-.052-14.058-.202-14.058-.202s-9.354.15-14.058.202z" fill="#ce9d09" stroke="#000" stroke-width="3.205" stroke-linejoin="round"/><path d="M1744.905 774.986s-4.134 3.595-5.647 5.84c-1.442 2.142-2.578 4.562-3.136 7.082-.61 2.753-.162 8.456-.162 8.456M1741.08 829.79s10.885-5.062 16.59-6.88c10.412-3.32 21.234-5.216 31.966-7.283 12.467-2.403 25.26-3.052 37.622-5.944 3.892-.91 7.53-2.77 11.445-3.576 5.4-1.114 11.063-2.882 16.452-1.717 2.952.638 7.82 4.578 7.82 4.578s4.85-3.94 7.82-4.578c5.39-1.157 11.05.603 16.45 1.717 3.915.807 7.554 2.666 11.446 3.576 12.363 2.892 25.156 3.54 37.623 5.944 10.73 2.067 21.554 3.964 31.967 7.283 5.704 1.818 16.59 6.88 16.59 6.88" fill="#ce9d09" stroke="#000" stroke-width="3.205" stroke-linecap="round" stroke-linejoin="round"/><path d="M1741.784 851.41s17.56-5.92 26.406-8.672c9.128-2.84 18.173-6.063 27.515-8.093 11.184-2.43 22.61-3.63 33.99-4.856 11.06-1.193 33.28-2.43 33.28-2.43s22.203 1.236 33.278 2.43c11.38 1.225 22.806 2.424 33.99 4.855 9.343 2.03 18.387 5.252 27.516 8.093 8.845 2.752 26.405 8.67 26.405 8.67M1847.124 867.078s-5.055.946-7.11 2.366c-3.077 2.125-5.783 5.193-7.082 8.7-.89 2.404-1.242 5.345-.202 7.688 1.514 3.41 5.156 5.625 8.498 7.284 2 .993 4.342 1.743 6.553 1.417 2.866-.423 7.602-4.21 7.602-4.21" fill="none" stroke="#000" stroke-width="3.205" stroke-linecap="round" stroke-linejoin="round"/><path d="M1737.854 874.924l5.652 11.92c-5.8.17-7.913 3.108-9.454 6.474M1748.66 890.59s5.16-5.397 8.604-6.073c2.207-.433 4.742.215 6.576 1.517 2.372 1.685 3.955 4.56 4.653 7.385.625 2.527.353 5.367-.607 7.788-.813 2.052-2.1 4.338-4.148 5.16-4.8 1.925-15.383-2.024-15.383-2.024" fill="#ce9d09" stroke="#000" stroke-width="3.205" stroke-linecap="round" stroke-linejoin="round"/><path d="M1743.084 885.993l5.58 4.29-.31 14.06" fill="#ce9d09" stroke="#000" stroke-width="3.205" stroke-linecap="round" stroke-linejoin="round"/><path d="M1847.832 894.437s-2.952 5.63-5.624 6.95c-7.87 3.887-17.823 2.904-26.324.715-5.196-1.338-12.797-2.9-13.877-8.155-.405-1.97 2.866-2.98 3.577-4.864.575-1.523.934-3.317.43-4.864-.787-2.41-2.712-4.65-5.008-5.724-1.945-.908-4.397-.808-6.438-.143-1.94.633-3.87 1.937-4.864 3.72-1.168 2.093-1.443 4.87-.716 7.153.75 2.35 4.226 3.196 4.865 5.58.64 2.394 0 5.273-1.43 7.296-2.88 4.065-8.157 5.99-12.877 7.582-3.048 1.03-6.592 2.326-9.585 1.145-2.228-.882-4.63-5.5-4.63-5.5" fill="none" stroke="#000" stroke-width="3.205" stroke-linecap="round" stroke-linejoin="round"/><path d="M1793.73 894.664l8.446-.946" fill="#fbe704" stroke="#000" stroke-width="3.205" stroke-linecap="round" stroke-linejoin="round"/><path d="M1877.017 1000.815c21.737-1.626 43.6-4.126 64.664-9.728 5.984-1.59 12.752-2.538 17.312-6.724 1.995-1.832 3.29-4.603 3.576-7.296.312-2.938-.326-6.27-2.144-8.6-7.48-9.584-20.505-13.794-32.19-17.152-20.96-6.022-65.26-4.578-65.26-4.578s-44.283-1.448-65.26 4.578c-11.684 3.358-24.708 7.568-32.19 17.152-1.818 2.33-2.456 5.662-2.144 8.6.286 2.693 1.582 5.464 3.577 7.296 4.56 4.186 11.328 5.133 17.31 6.724 21.066 5.602 42.928 8.102 64.665 9.728 4.668.35 14.042 0 14.042 0s9.358.35 14.043 0z" fill="#fff" stroke="#000" stroke-width="3.205" stroke-linejoin="round"/><path d="M1873.158 595.4l-10.184.118-10.183-.117" fill="#fbe704" stroke="#000" stroke-width="3.205" stroke-linecap="round" stroke-linejoin="round"/><path d="M1940.21 670.894s6.862.513 9.25-1.5c2.465-2.08 3.916-6.02 3.14-9.15-.61-2.464-5.55-5.213-5.55-5.213" fill="none" stroke="#000" stroke-width="3.205" stroke-linecap="round" stroke-linejoin="round"/><path d="M1961.02 668.752l-11.517.605M1960.022 658.967l-7.515.982M1930.07 674.316l-2.68 4.655" fill="#fbe704" stroke="#000" stroke-width="3.205" stroke-linecap="round" stroke-linejoin="round"/><path d="M1970.008 731s-11.953-4.757-18.026-6.868c-5.1-1.773-10.206-3.582-15.45-4.864-6.398-1.565-12.933-2.54-19.457-3.434-9.394-1.29-18.844-2.208-28.308-2.784-8.584-.523-25.793-.607-25.793-.607s-17.19.083-25.793.607c-9.463.575-18.913 1.495-28.306 2.784-6.524.895-13.06 1.87-19.456 3.434-5.245 1.282-10.35 3.09-15.45 4.864-6.075 2.11-18.027 6.867-18.027 6.867" fill="none" stroke="#000" stroke-width="3.205" stroke-linecap="round" stroke-linejoin="round"/><path d="M1848.464 669.248l8.056-6.2 6.507.14-6.656-.144s-3.59-2.448-4.577-4.292c-.958-1.79-1.415-4.02-1.002-6.01.554-2.653 2.087-5.457 4.43-6.823 2.236-1.306 7.754-.473 7.754-.473s5.503-.84 7.755.472c2.342 1.364 3.875 4.17 4.427 6.823.414 1.988-.043 4.22-1 6.01-.988 1.843-4.58 4.29-4.58 4.29l-6.655.144 6.506-.14 8.057 6.2M1870.906 765.524l8.572-7.133s13.437 5.728 17.99 11.107c1.27 1.5 2.35 3.5 2.225 5.463-.45 6.962-10.32 18.21-10.32 18.21l-19.927-8.284" fill="#ce9d09" stroke="#000" stroke-width="3.205" stroke-linecap="round" stroke-linejoin="round"/><path d="M1856.806 785.278s-6.48-5.91-7.688-9.913c-.527-1.75-.45-3.85.405-5.463 1.168-2.206 5.867-4.653 5.867-4.653s-7.085-3.444-8.902-6.678c-1.03-1.83-1.158-4.245-.607-6.272.875-3.215 3.3-5.97 5.868-8.093 3.185-2.633 11.226-5.26 11.226-5.26s8.027 2.62 11.226 5.26c2.57 2.12 4.994 4.878 5.868 8.093.55 2.027.422 4.44-.607 6.272-1.816 3.234-8.9 6.677-8.9 6.677s4.698 2.446 5.866 4.652c.855 1.613.932 3.714.405 5.463-1.207 4.003-7.688 9.913-7.688 9.913l-6.168.405z" fill="#ce9d09" stroke="#000" stroke-width="3.205" stroke-linecap="round" stroke-linejoin="round"/><path d="M1996.318 870.98s-5.236 4.178-8.284 3.94c-4.38-.342-7.063-5.256-10.873-7.44-4.848-2.778-10.01-4.992-15.164-7.153-7.124-2.985-14.366-5.727-21.745-8.01-9.303-2.88-18.687-5.765-28.326-7.154-9.73-1.402-19.662-1.81-29.47-1.145-6.596.447-19.532 3.434-19.532 3.434s5.515 2.236 8.04 3.783c2.912 1.783 6.556 3.225 8.094 6.272 1.307 2.59 1.358 6.04.202 8.7-1.33 3.067-4.39 5.415-7.486 6.676-2.734 1.115-8.85.405-8.85.405s7.024.266 9.457 2.428c1.675 1.49 2.522 4.032 2.427 6.272-.13 3.074-1.616 6.408-4.046 8.295-2.106 1.637-7.838 1.62-7.838 1.62s2.95.322 4.347-.067c1.92-.535 3.883-1.487 5.165-3.014 1.33-1.582 1.958-3.755 2.153-5.812.207-2.172.184-4.676-1.076-6.458-1.088-1.538-4.947-2.735-4.947-2.735s3.125-.793 4.516-1.57c2.183-1.218 5.814-4.736 5.814-4.736s2.975.066 4.305.647c2.946 1.287 5.703 3.383 7.533 6.027 1.847 2.668 3.545 6.055 3.014 9.257-.53 3.186-3.253 5.78-5.812 7.75-2.577 1.983-9.04 3.66-9.04 3.66s.228 2.18.86 3.013c2.12 2.797 5.59 4.562 8.965 5.52 5.226 1.485 11.09.83 16.3.025 5.265-.813 9.23-2.277 15.24-4.85 2.04-.87 3.84-5.43 3.84-5.43s-4.332-3.346-4.737-5.813c-.396-2.42.905-5.1 2.583-6.888 1.562-1.662 3.963-2.835 6.243-2.798 3.112.048 6.778 1.428 8.394 4.09 1.454 2.39.968 5.856-.215 8.394-1.053 2.258-5.598 4.95-5.598 4.95 1.164 4.732 2.79 7.154 4.52 9.042 6.315 3.604 12.63 5.62 18.944 7.534l3.66-2.368 2.583-4.52s-3.735-5.166-3.876-8.18c-.118-2.517 1.18-5.012 2.583-7.104 1.19-1.772 2.76-3.5 4.736-4.305 1.862-.76 4.088-.745 6.028-.215 2.958.807 7.75 4.95 7.75 4.95s4.74-3.79 6.458-6.242c1.715-2.446 3.66-8.18 3.66-8.18z" fill="#fff" stroke="#000" stroke-width="3.205" stroke-linecap="round" stroke-linejoin="round"/><path d="M1981.044 774.986s4.134 3.595 5.647 5.84c1.443 2.142 2.58 4.562 3.137 7.082.61 2.753.162 8.456.162 8.456" fill="#ce9d09" stroke="#000" stroke-width="3.205" stroke-linecap="round" stroke-linejoin="round"/><path d="M1878.824 867.078s5.055.946 7.11 2.366c3.078 2.125 5.783 5.193 7.082 8.7.89 2.404 1.243 5.345.203 7.688-1.516 3.41-5.157 5.625-8.5 7.284-2 .993-4.342 1.743-6.553 1.417-2.865-.423-7.6-4.21-7.6-4.21" fill="none" stroke="#000" stroke-width="3.205" stroke-linecap="round" stroke-linejoin="round"/><path d="M1988.094 874.924l-5.652 11.92c5.8.17 7.914 3.108 9.454 6.474M1977.29 890.59s-5.16-5.397-8.606-6.073c-2.207-.433-4.74.215-6.575 1.517-2.373 1.685-3.956 4.56-4.654 7.385-.625 2.527-.353 5.367.607 7.788.813 2.052 2.1 4.338 4.147 5.16 4.8 1.925 15.384-2.024 15.384-2.024" fill="#ce9d09" stroke="#000" stroke-width="3.205" stroke-linecap="round" stroke-linejoin="round"/><path d="M1982.864 885.993l-5.58 4.29.31 14.06" fill="#ce9d09" stroke="#000" stroke-width="3.205" stroke-linecap="round" stroke-linejoin="round"/><path d="M1878.116 894.437s2.953 5.63 5.625 6.95c7.87 3.887 17.824 2.904 26.324.715 5.196-1.338 12.797-2.9 13.877-8.155.407-1.97-2.864-2.98-3.575-4.864-.575-1.523-.934-3.317-.43-4.864.787-2.41 2.712-4.65 5.008-5.724 1.945-.908 4.397-.808 6.438-.143 1.94.633 3.87 1.937 4.865 3.72 1.167 2.093 1.443 4.87.715 7.153-.75 2.35-4.226 3.196-4.864 5.58-.64 2.394 0 5.273 1.43 7.296 2.88 4.065 8.157 5.99 12.876 7.582 3.05 1.03 6.593 2.326 9.585 1.145 2.23-.882 4.63-5.5 4.63-5.5" fill="none" stroke="#000" stroke-width="3.205" stroke-linecap="round" stroke-linejoin="round"/><path d="M1932.22 894.664l-8.447-.946" fill="#fbe704" stroke="#000" stroke-width="3.205" stroke-linecap="round" stroke-linejoin="round"/><path d="M1967.373 933.128s-3.178-2.845-4.96-4c-3.748-2.425-7.77-4.472-11.938-6.07-5.606-2.147-11.553-3.287-17.4-4.652-6.697-1.564-13.414-3.14-20.23-4.047-7.975-1.06-16.034-1.538-24.077-1.62-8.607-.086-25.794 1.215-25.794 1.215s-17.17-1.3-25.793-1.214c-8.042.082-16.102.56-24.075 1.62-6.818.906-13.535 2.482-20.232 4.046-5.847 1.365-11.793 2.505-17.4 4.653-4.168 1.596-8.19 3.643-11.937 6.07-1.783 1.153-4.96 3.998-4.96 3.998" fill="#ce9d09" stroke="#000" stroke-width="3.205" stroke-linecap="round" stroke-linejoin="round"/><path d="M1957.84 953.5s-7.155-3.02-10.804-4.34c-6.598-2.39-13.26-4.634-20.03-6.476-6.6-1.795-13.233-3.69-20.03-4.45-14.576-1.635-44.002-.203-44.002-.203s-29.408-1.433-44.002.203c-6.797.762-13.43 2.656-20.03 4.45-6.77 1.843-13.432 4.087-20.03 6.476-3.65 1.32-10.803 4.34-10.803 4.34" fill="none" stroke="#000" stroke-width="3.205" stroke-linecap="round" stroke-linejoin="round"/><g id="b" stroke="#000" stroke-width="2" stroke-linejoin="round"><path d="M1724.084 1141.768l41.273 36.014s-8.345 7.428-13.353 9.71c-9.824 4.48-20.768 7.518-31.562 7.285-7.73-.167-15.32-2.973-22.35-6.186-15.722-7.183-33.032-14.73-43.17-28.73-3.585-4.956-5-11.572-4.888-17.687.128-6.933 6.28-19.83 6.28-19.83s2.392 8.635 5.134 12.02c4.513 5.574 11.118 9.303 17.597 12.376 4.847 2.298 10.144 4.02 15.5 4.335 6.95.408 14.162-.674 20.636-3.237 3.34-1.322 8.904-6.07 8.904-6.07z" fill="#fff" stroke-width="3.2046"/><path d="M1658.653 877.668s3.294 6.6 4.297 10.128c1.715 6.033 2.908 12.326 2.86 18.598-.046 6.287-1.467 12.54-3.146 18.598-2.516 9.08-6.32 17.783-10.3 26.323-2.525 5.416-6.054 10.324-8.584 15.737-4.08 8.73-6.994 17.956-10.587 26.896-3 7.46-6.864 14.61-9.156 22.318-3.044 10.238-4.562 20.89-6.01 31.474-1.243 9.103-2.227 18.28-2.288 27.468-.072 10.9.256 21.91 2.288 32.618 2.014 10.61 4.977 21.204 9.73 30.902 3.83 7.816 8.93 15.103 14.877 21.46 4.916 5.252 10.706 9.756 16.882 13.447 5.61 3.354 11.95 5.31 18.026 7.725 8.392 3.336 25.432 9.336 25.432 9.336s-23.527-11.593-31.727-21.353c-6.784-8.074-10.52-18.62-12.876-28.9-2.727-11.904-2.383-24.472-1.144-36.623 1.332-13.072 5.18-25.817 9.156-38.34 4.196-13.218 10.095-25.836 15.45-38.627 3.86-9.22 8.276-18.2 12.018-27.47 4.417-10.94 8.764-21.933 12.303-33.19 2.158-6.864 4.85-13.72 5.43-20.893.63-7.793-.383-15.742-2.17-23.354-2.503-10.662-5.598-21.65-11.836-30.65-3.755-5.42-8.9-10.154-14.77-13.152-5.733-2.928-12.544-5.4-18.858-4.154-2.11.417-5.3 3.678-5.3 3.678z" fill="#fff" stroke-width="3.2046"/><path d="M1711.59 945.593s4.456-17.99 5.21-27.187c.645-7.867.224-15.823-.607-23.672-.925-8.734-1.47-17.794-4.856-25.897-3.513-8.406-9.024-16.13-15.578-22.458-6.46-6.238-14.295-11.306-22.66-14.568-8.803-3.43-18.493-4.28-27.922-4.855-8.088-.495-16.24.19-24.278 1.213-4.645.59-9.323 1.332-13.758 2.833-4.114 1.393-11.735 5.665-11.735 5.665l29.944 48.962s9.373-5.518 14.568-6.88c5.494-1.44 11.325-1.545 16.995-1.213 5.757.337 11.726.894 16.995 3.237 6.707 2.983 12.49 7.984 17.547 13.304 6.102 6.42 11.548 13.787 14.96 21.96 3.165 7.59 3.58 16.073 4.72 24.218.247 1.77.456 5.337.456 5.337z" fill="#fff" stroke-width="3.2046"/><path d="M1717.054 906.676s-5.334-16.56-10.37-23.474c-5.85-8.03-13.365-15.39-22.255-19.828-9.43-4.705-30.996-6.217-30.996-6.217l11.414 21.13-19.966-.49-10.427-17.433-19.232 8.706-9.568-15.645 20.43-9.473-9.413-15.186 20.423-1.942 8.892 14.7s15.874.048 23.588 1.667c5.24 1.1 10.386 2.91 15.12 5.406 4.532 2.39 8.7 5.522 12.447 9.013 4.508 4.198 8.732 8.863 11.874 14.163 3.054 5.15 6.542 16.727 6.542 16.727z" fill="#ce9d09" stroke-width="3.2046"/><path d="M1595.578 836.947l-15.032 8.788-14.306 10.873 30.9 47.21 13.735-10.586 14.12-8.184zM1581.648 845.09l31.9 46.593M1653.794 1035.866l17.883-36.91 19.14 7.613 7.754-19.06-19.025-8.87 9.872-21.316-14.02-6.295-10.587 20.457-19.193-8.024-8.43 19.963 18.61 7.804-17.168 36.624z" fill="#ce9d09" stroke-width="3.2046"/><path d="M1781.075 990.29l16.106 3.842 25.664 4.17 11.76 1.292-2.076 49.916s-2.81 33.178-7.688 48.962c-3.618 11.7-15.782 33.18-15.782 33.18l-7.688 11.735-45.32-39.25s7.726-10.947 10.52-16.995c3.508-7.59 7.69-23.874 7.69-23.874l4.45-25.897 2.428-32.775z" fill="#fff" stroke-width="3.2046"/><path d="M1796.92 1024.827l18.208-.405v21.042l17.533.83-2.98 21.36-16.358-1.03s-2.7 12.574-5.122 18.494c-2.513 6.14-9.662 17.4-9.662 17.4l-19.423-4.856s7.026-11.048 9.71-16.995c2.406-5.326 5.666-16.59 5.666-16.59l-19.937-2.516 3.47-20.19 18.087 1.26z" fill="#ce9d09" stroke-width="3.2046"/></g><use height="1052.362" width="744.094" transform="matrix(-1 0 0 1 3726.2 0)" xlink:href="#b"/><path d="M1533.478 903.82s.703-5.063 0-7.44c-1.143-3.87-3.574-7.468-6.58-10.158-2.544-2.275-5.808-3.924-9.157-4.578-3.613-.706-7.462-.115-11.014.858-2.42.663-6.754 3.323-6.754 3.323l-14.85 6.12-5.51 17.667s-3.174 5.58-3.93 8.656c-.81 3.293-1.41 6.87-.573 10.157.98 3.86 3.23 7.612 6.294 10.158 2.833 2.355 6.626 3.73 10.3 4.006 2.827.212 8.298-1.86 8.298-1.86 1.58-18.612 9.856-32.815 33.476-36.91z" fill="#ce9d09" stroke="#000" stroke-width="3.205" stroke-linejoin="round"/><path d="M1500.27 885.645l-38.752-17.02-3.148 3.004 21.12 38.2s5.924-8.737 9.353-12.735c3.51-4.093 11.428-11.45 11.428-11.45z" fill="#ce9d09" stroke="#000" stroke-width="3.205" stroke-linejoin="round"/><path d="M1473.25 865.263a15.952 15.952 0 1 1-31.904 0 15.952 15.952 0 1 1 31.903 0z" fill="#ce9d09" stroke="#000" stroke-width="3.2046" stroke-linejoin="round"/><path d="M1533.275 904.042l101.17 86.714s-5.132 11.213-7.278 16.99c-1.98 5.325-3.817 10.726-5.145 16.25-1.96 8.145-4.135 24.79-4.135 24.79L1499.945 940.75c1.673-24.69 15.566-33.488 33.33-36.708z" fill="#ccc" stroke="#000" stroke-width="3.205" stroke-linejoin="round"/><path d="M1566.193 932.256c3.39 27.952 7.322 55.905 16.025 83.857l31.07 28.46c-6.626-29.233-18.443-58.465-18.37-87.696z" fill="#ce9d09" stroke="#000" stroke-width="3.205" stroke-linejoin="round"/><path d="M1613.047 972.415l-85.487-6.37 27.2 24.917 78.068 3.38 1.147-3.99z" fill="#ce9d09" stroke="#000" stroke-width="3.205" stroke-linejoin="round"/><path d="M1518.992 958.197l-24.284 27.167 15.165 14.593-23.462 22.89-15.164-15.165-25.515 27.202-.235 33.743 58.083 45.494 20.03-14.878-1.145-32.332 15.45 8.584 15.45-9.442.86 29.185-12.59-9.157-13.734 18.026-1.432 32.046 43.778 38.914 53.05-47.08-4.01-14.112-2.305-12.678-1.245-25.13 1.98-27.438z" fill="#ccc" stroke="#000" stroke-width="3.205" stroke-linejoin="round"/><path d="M1494.708 985.364l-.62 29.993 15.642-15.26z" fill="#ccc" stroke="#000" stroke-width="3.205" stroke-linejoin="round"/><path d="M1446 1034.598l57.578 49.194 18.884-16.882-14.878-12.59 16.595-15.736 12.875 11.16 14.592-14.88 18.885 18.312-17.15 13.447 16.005 14.593-15.165 14.02M1527.898 1104.12l44.064 36.897 45.055-39.54M1502.85 1083.147l.312 30.648M1523.743 1038.997l.542 28.925M1537.338 1049.454l.83 25.884M1551.504 1035.01l.645 31.784" fill="none" stroke="#000" stroke-width="3.205" stroke-linejoin="round"/><path d="M1901.35 1229.352l48.602 44.58 10.763 31.428-62.642-6.673-35.664-35.277zM1679.516 1032.318l183.014 162.24-38.09 33.677-164.04-142.138s3.48-13.102 5.636-19.522c3.124-9.3 6.867-18.385 10.565-27.472.93-2.28 2.916-6.785 2.916-6.785z" fill="#ccc" stroke="#000" stroke-width="3.205" stroke-linejoin="round"/><path d="M1718.365 1066.92c-22.445 8.46-31.418 22.31-37.857 37.17-6.353.56-12.306.62-14.41-4.132 5.347-34.7 30.21-45.552 35.753-47.747 14.95-2.824 12.18 8.85 16.515 14.71zM1745.88 1092.817c-22.444 8.46-31.417 22.31-37.856 37.17-6.353.56-12.306.62-14.41-4.132 5.347-34.7 30.21-45.55 35.752-47.747 14.95-2.825 12.18 8.85 16.515 14.71z" fill="#ce9d09" stroke="#000" stroke-width="3.205" stroke-linejoin="round"/><path d="M2192.39 902.674s-.702-5.06 0-7.44c1.145-3.868 3.575-7.467 6.582-10.157 2.543-2.275 5.807-3.923 9.156-4.578 3.615-.707 7.464-.116 11.016.858 2.42.663 6.753 3.322 6.753 3.322l14.85 6.12 5.51 17.667s3.174 5.58 3.93 8.656c.812 3.293 1.41 6.87.574 10.158-.982 3.86-3.23 7.612-6.294 10.158-2.833 2.355-6.627 3.73-10.3 4.006-2.827.213-8.298-1.86-8.298-1.86-4.558-23.565-15.95-35.47-33.477-36.91z" fill="#ccc" stroke="#000" stroke-width="3.205" stroke-linejoin="round"/><path d="M2225.6 884.5l38.752-17.02 3.147 3.005-21.12 38.2s-5.924-8.737-9.353-12.735c-3.51-4.093-11.43-11.45-11.43-11.45z" fill="#ccc" stroke="#000" stroke-width="3.205" stroke-linejoin="round"/><path d="M2252.62 864.12a15.952 15.952 0 1 1 31.903 0 15.952 15.952 0 1 1-31.903 0z" fill="#ccc" stroke="#000" stroke-width="3.2046" stroke-linejoin="round"/><path d="M2192.594 902.898l-101.17 86.713s5.132 11.215 7.278 16.99c1.98 5.327 3.817 10.727 5.146 16.252 1.958 8.145 4.135 24.79 4.135 24.79l117.942-108.036c-3.533-17.256-9.245-33.912-33.33-36.708z" fill="#ce9d09" stroke="#000" stroke-width="3.205" stroke-linejoin="round"/><path d="M2159.676 931.112c-3.39 27.952-7.322 55.904-16.025 83.856l-31.068 28.46c6.625-29.232 18.443-58.464 18.368-87.696z" fill="#ccc" stroke="#000" stroke-width="3.205" stroke-linejoin="round"/><path d="M2112.822 971.27l85.487-6.37-27.2 24.917-78.07 3.38-1.146-3.99z" fill="#ccc" stroke="#000" stroke-width="3.205" stroke-linejoin="round"/><path d="M2206.878 957.053l24.283 27.167-15.164 14.592 23.463 22.89 15.163-15.164 25.515 27.2.237 33.744-58.084 45.494-20.028-14.878 1.145-32.332-15.45 8.583-15.452-9.443-.858 29.185 12.59-9.156 13.733 18.026 1.43 32.046-43.776 38.913-53.05-47.078 4.01-14.113 2.304-12.68 1.247-25.127-1.98-27.44z" fill="#ce9d09" stroke="#000" stroke-width="3.205" stroke-linejoin="round"/><path d="M2231.16 984.22l.622 29.993-15.643-15.26z" fill="#ce9d09" stroke="#000" stroke-width="3.205" stroke-linejoin="round"/><path d="M2279.87 1033.454l-57.58 49.193-18.883-16.88 14.878-12.59-16.595-15.738-12.876 11.158-14.592-14.878-18.884 18.312 17.15 13.447-16.006 14.592 15.165 14.02M2197.97 1102.975l-44.063 36.897-45.055-39.54M2223.02 1082.002l-.312 30.648M2202.126 1037.853l-.54 28.925M2188.53 1048.31l-.83 25.884M2174.365 1033.865l-.644 31.785" fill="none" stroke="#000" stroke-width="3.205" stroke-linejoin="round"/><path d="M2046.487 1031.913L1772.51 1274.15l-19.02 23.01 34.272 24.107 29.413-18.294 248.427-217.28s-3.478-13.102-5.635-19.523c-3.124-9.3-6.867-18.384-10.565-27.472-.928-2.28-2.915-6.785-2.915-6.785z" fill="#ce9d09" stroke="#000" stroke-width="3.205" stroke-linejoin="round"/><path d="M2007.638 1066.515c22.445 8.46 31.418 22.31 37.857 37.17 6.353.56 12.306.62 14.41-4.132-5.347-34.7-30.21-45.55-35.752-47.747-14.95-2.825-12.18 8.85-16.515 14.71zM1980.123 1092.412c22.444 8.46 31.417 22.31 37.857 37.172 6.353.558 12.305.617 14.41-4.134-5.348-34.7-30.21-45.55-35.753-47.747-14.95-2.825-12.18 8.85-16.514 14.71z" fill="#ccc" stroke="#000" stroke-width="3.205" stroke-linejoin="round"/><g transform="matrix(1.6 0 0 1.6 1255.5 411.3)"><path d="M261.6 589.687s-12.37-2.72-16.282 1.058c-3.237 3.127-1.344 13.435-1.344 13.435l4.03 15.316 17.197 11.016s12.962 1.675 16.93-2.418c3.386-3.495 1.61-14.513 1.61-14.513l-9.672-13.162z" fill="#ccc" stroke="#000" stroke-width="2" stroke-linejoin="round"/><path d="M273.214 667.05c0 44.702-36.238 80.94-80.94 80.94-44.7 0-80.937-36.238-80.937-80.94 0-44.7 36.238-80.937 80.938-80.937s80.94 36.237 80.94 80.938z" fill="#ce9d09" stroke="#000" stroke-width="2" stroke-linejoin="round"/><path d="M222.565 670.485c13.952 0 25.263 11.31 25.263 25.262 0 13.953-11.31 25.263-25.263 25.263-13.952 0-25.262-11.31-25.262-25.263l-8.754-.38c0 13.953-11.31 25.263-25.263 25.263-13.953 0-25.263-11.31-25.263-25.263 0-13.952 11.31-25.262 25.263-25.262l-.38-4.954c-13.953 0-25.263-11.31-25.263-25.26 0-13.953 11.31-25.264 25.263-25.264 13.952 0 25.262 11.31 25.262 25.263l8.753-.76c0-13.953 11.31-25.264 25.262-25.264s25.263 11.31 25.263 25.263c0 13.95-11.31 25.26-25.263 25.26z" fill="#fff" stroke="#000" stroke-width="2" stroke-linejoin="round"/><path d="M324.583 514.705c-16.91 23.634-45.367 45.958-54.008 56.694-8.64 10.736-14.207 20.932-1.612 34.66 12.595 13.73 26.876 5.94 38.155-1.61 11.278-7.552 30.957-32.02 59.112-50.784z" fill="#ce9d09" stroke="#000" stroke-width="2" stroke-linejoin="round"/><path d="M330.952 520.664c-1.512 4.97-.358 10.468-2.26 15.238-1.883 4.715-8.753 12.465-8.753 12.465s4.366.61 6.403 1.4c2.953 1.148 7.462 1.692 8.22 4.768.665 2.69-2.533 5.01-4.424 7.034-1.813 1.94-4.148 3.352-6.44 4.696-3.83 2.247-7.732 4.777-12.102 5.565-5.47.987-15.683-6.712-16.63-1.235-.394 2.278 4.61.82 6.686 1.84 4.842 2.378 7.27 7.56 3.008 11.166-2.737 2.317-7.036 1.466-10.61 1.762-3.425.284-7.337-1.713-10.31.01-3.502 2.03-7.907 6.93-6.05 10.527 1.912 3.7 9.04 3.6 12.437 1.19 2.51-1.78 1.838-5.912 2.21-8.968.11-.91 0-1.833 0-2.75M334.546 554.466l21.95-9.907" fill="none" stroke="#000" stroke-width="2" stroke-linejoin="round"/><path id="c" d="M140.977 601.693c0 6.086-4.934 11.02-11.02 11.02-6.086 0-11.02-4.934-11.02-11.02 0-6.086 4.934-11.02 11.02-11.02 6.086 0 11.02 4.934 11.02 11.02z" fill="#ccc" stroke="#000" stroke-width="2" stroke-linejoin="round"/><use xlink:href="#c" id="d" transform="translate(-3.8 127.7)" width="744.094" height="1052.362" fill="#ccc"/><use xlink:href="#d" transform="translate(123.9 7.2)" width="744.094" height="1052.362" fill="#ccc"/><path d="M201.395 645.772c0 5.036-4.083 9.12-9.12 9.12-5.036 0-9.12-4.084-9.12-9.12 0-5.037 4.084-9.12 9.12-9.12 5.037 0 9.12 4.083 9.12 9.12z" id="e" fill="#ce9d09" stroke="#000" stroke-width="2" stroke-linejoin="round"/><use xlink:href="#e" id="f" transform="translate(-21.7 21.3)" width="744.094" height="1052.362"/><use xlink:href="#f" id="g" transform="translate(21.3 19.4)" width="744.094" height="1052.362"/><use xlink:href="#g" transform="translate(22.4 -19.4)" width="744.094" height="1052.362"/><path d="M191.136 617.652c3.33-6.838 7.876-9.948 13.68-13.68-8.268-3.59-18.35-2.93-27.36 0 5.803 2.903 10.01 7.487 13.68 13.68z" id="h" fill="#fff" stroke="#000" stroke-width="2" stroke-linejoin="round"/><use xlink:href="#h" id="i" transform="rotate(-90 191.9 667.3)" width="744.094" height="1052.362"/><use xlink:href="#i" id="j" transform="matrix(-1 0 0 1 383.8 -2.3)" width="744.094" height="1052.362"/><use xlink:href="#j" transform="rotate(90 192.7 667)" width="744.094" height="1052.362"/></g><path d="M2043.588 1356.188s19.82-4.357 26.087 1.696c5.187 5.01 2.153 21.527 2.153 21.527l-6.458 24.54-27.554 17.653s-20.767 2.683-27.124-3.875c-5.427-5.6-2.583-23.253-2.583-23.253l15.498-21.092z" fill="#ce9d09" stroke="#000" stroke-width="3.205" stroke-linejoin="round"/><path d="M2024.978 1480.15a129.687 129.687 0 1 1 259.374 0 129.687 129.687 0 1 1-259.374 0z" fill="#ccc" stroke="#000" stroke-width="3.2046" stroke-linejoin="round"/><path d="M2106.132 1485.65c-22.356 0-40.478 18.124-40.478 40.48 0 22.355 18.122 40.477 40.478 40.477 22.355 0 40.478-18.122 40.478-40.478l14.026-.61c0 22.356 18.123 40.48 40.478 40.48s40.478-18.124 40.478-40.48c0-22.355-18.123-40.477-40.478-40.477l.61-7.938c22.354 0 40.477-18.123 40.477-40.478s-18.122-40.478-40.477-40.478c-22.356 0-40.478 18.12-40.478 40.477l-14.026-1.218c0-22.356-18.124-40.48-40.48-40.48-22.355 0-40.477 18.124-40.477 40.48 0 22.355 18.122 40.477 40.478 40.477z" fill="#fff" stroke="#000" stroke-width="3.205" stroke-linejoin="round"/><path d="M1942.67 1236.044c27.093 37.87 72.69 73.64 86.535 90.842 13.845 17.204 22.765 33.54 2.583 55.538-20.18 21.998-43.064 9.516-61.135-2.583-18.07-12.097-49.603-51.302-94.716-81.37z" fill="#ccc" stroke="#000" stroke-width="3.205" stroke-linejoin="round"/><path d="M1932.463 1245.592c2.423 7.966.574 16.774 3.624 24.416 3.015 7.555 14.022 19.974 14.022 19.974s-6.998.977-10.262 2.245c-4.73 1.837-11.957 2.71-13.172 7.637-1.064 4.31 4.06 8.026 7.09 11.27 2.904 3.112 6.644 5.373 10.315 7.527 6.138 3.6 12.392 7.654 19.394 8.917 8.766 1.58 25.13-10.756 26.647-1.98.632 3.65-7.388 1.313-10.712 2.947-7.758 3.812-11.65 12.117-4.82 17.894 4.384 3.71 11.274 2.346 17 2.82 5.487.455 11.756-2.745 16.52.016 5.612 3.25 12.67 11.107 9.693 16.868-3.062 5.928-14.483 5.77-19.926 1.91-4.025-2.855-2.947-9.474-3.542-14.372-.177-1.458 0-2.937 0-4.406M1926.704 1299.753l-35.17-15.873" fill="none" stroke="#000" stroke-width="3.205" stroke-linejoin="round"/><path d="M2236.86 1375.425a17.657 17.657 0 1 1 35.315 0 17.657 17.657 0 1 1-35.314 0zM2242.95 1580.002a17.657 17.657 0 1 1 35.314 0 17.657 17.657 0 1 1-35.314 0zM2044.46 1591.57a17.657 17.657 0 1 1 35.315 0 17.657 17.657 0 1 1-35.314 0z" fill="#ce9d09" stroke="#000" stroke-width="3.2046" stroke-linejoin="round"/><path d="M2140.052 1446.053a14.613 14.613 0 1 1 29.226 0 14.613 14.613 0 1 1-29.226 0zM2174.757 1480.15a14.613 14.613 0 1 1 29.226 0 14.613 14.613 0 1 1-29.226 0zM2140.66 1511.2a14.613 14.613 0 1 1 29.226 0 14.613 14.613 0 1 1-29.225 0zM2104.738 1480.15a14.613 14.613 0 1 1 29.226 0 14.613 14.613 0 1 1-29.226 0z" fill="#ccc" stroke="#000" stroke-width="3.2046" stroke-linejoin="round"/><path d="M2156.492 1400.997c-5.338-10.956-12.62-15.94-21.92-21.92 13.248-5.753 29.4-4.695 43.84 0-9.3 4.65-16.043 11.997-21.92 21.92z" fill="#fff" stroke="#000" stroke-width="3.205" stroke-linejoin="round"/><use xlink:href="#h" transform="matrix(0 -1.6 -1.6 0 3224.6 1788.1)" width="744.094" height="1052.362" fill="none"/><use xlink:href="#i" transform="matrix(1.6 0 0 1.6 1847.8 407.7)" width="744.094" height="1052.362" fill="none"/><use xlink:href="#j" transform="matrix(0 1.6 1.6 0 1085.4 1171.3)" width="744.094" height="1052.362" fill="none"/><path d="M1815.196 1866.34c19.292 12.238 37.25 11.14 54.247.43l-40.255-41.976" fill="#fa0204" stroke="#000" stroke-width="3.205" stroke-linejoin="round"/><path d="M1849.638 1848.258c19.902 5.524 31.76 5.236 48.22.43l-17.437-27.984" fill="#fa0204" stroke="#000" stroke-width="3.205" stroke-linejoin="round"/><path d="M1888.306 1776.165l-31.708-8.142s.367-35.183 20.39-32.115c16.62 2.546 11.985 40.34 11.318 40.257z" fill="#ce9d09" stroke="#000" stroke-width="3.205" stroke-linejoin="round"/><path d="M1897.705 1848.657c-10.226-8.256-36.582-5.833-47.98-.348-4.453 0-16.446-83.24 25.72-81.184 38.722 1.89 24.95 81.915 22.26 81.53zM1880.315 1608.6c-2.878 3.7.914 11.26 4.995 14.707 4.286 3.617 12.86 6.278 15.874 2.39 3.04-3.924-1.482-11.936-5.93-15.426-4.15-3.253-12.097-5.323-14.94-1.67z" fill="#fa0204" stroke="#000" stroke-width="3.205" stroke-linejoin="round"/><path d="M1862.018 1610.753c-2.878 3.7.913 11.26 4.995 14.707 4.285 3.617 12.86 6.278 15.874 2.39 3.04-3.925-1.483-11.937-5.932-15.426-4.15-3.254-12.096-5.324-14.938-1.67z" fill="#fa0204" stroke="#000" stroke-width="3.205" stroke-linejoin="round"/><path d="M1848.215 1608.312c-3.986 2.465-3.066 10.873-.44 15.525 2.756 4.884 9.867 10.365 14.046 7.77 4.22-2.62 2.77-11.705-.185-16.526-2.755-4.494-9.483-9.203-13.42-6.768z" fill="#fa0204" stroke="#000" stroke-width="3.205" stroke-linejoin="round"/><path d="M1829.918 1605.514c-3.986 2.464-3.066 10.873-.44 15.525 2.755 4.882 9.866 10.363 14.046 7.77 4.217-2.62 2.768-11.706-.186-16.527-2.756-4.496-9.484-9.204-13.42-6.77zM1869.19 1175.778c0 5.38-4.498 7.458-13.24 7.458-8.744 0-12.787-2.535-12.787-7.915s4.043-6.696 12.786-6.696c8.742 0 13.24 1.774 13.24 7.154z" fill="#fa0204" stroke="#000" stroke-width="3.205" stroke-linejoin="round"/><path d="M1875.584 1190.086c0 5.38-4.5 7.46-13.242 7.46-8.743 0-12.786-2.536-12.786-7.917 0-5.38 4.043-6.698 12.786-6.698 8.743 0 13.242 1.774 13.242 7.154z" fill="#fa0204" stroke="#000" stroke-width="3.205" stroke-linejoin="round"/><path d="M1877.344 1208.69c-1.772 5.08-6.705 5.56-14.96 2.68-8.255-2.88-11.238-6.605-9.466-11.685 1.772-5.08 6.023-4.992 14.278-2.112s11.92 6.036 10.148 11.116zM1877.514 1222.51c-1.065 5.275-5.887 6.42-14.457 4.69-8.57-1.73-12.032-5.015-10.967-10.29 1.065-5.273 5.29-5.764 13.86-4.033 8.57 1.73 12.63 4.36 11.564 9.634zM1881.47 1238.646c-1.064 5.274-5.886 6.42-14.456 4.69-8.57-1.73-12.03-5.017-10.966-10.29 1.065-5.274 5.29-5.765 13.86-4.034 8.57 1.73 12.628 4.36 11.563 9.634zM1924.048 1220.834c-2.59-.69-2.303-5.303-1.583-7.885 1.107-3.97 8.354-9.11 8.354-9.11s1.766 5.56.95 8.184c-1.163 3.728-3.95 9.817-7.722 8.81z" fill="#fa0204" stroke="#000" stroke-width="3.205" stroke-linejoin="round"/><path d="M1914.61 1229.054c-2.82-.622-3.18-5.523-2.443-8.316 1.142-4.324 9.645-9.325 9.645-9.325s1.476 6.04.52 8.83c-1.267 3.694-3.908 9.65-7.72 8.81zM1901.52 1240.014c-4.292-1.14-3.805-8.763-2.66-13.053.947-3.54 3.716-9.118 7.278-8.248 4.167 1.02 4.115 8.322 3.103 12.49-.92 3.796-3.946 9.813-7.72 8.81z" fill="#fa0204" stroke="#000" stroke-width="3.205" stroke-linejoin="round"/><path d="M1888.734 1252.19c-4.214-.925-6.007-7.638-5.164-11.87.885-4.44 5.36-10.41 9.782-9.43 4.462.988 6.005 8.352 4.93 12.795-1.004 4.142-5.385 9.42-9.548 8.506zM1929.285 1250.885c-3.244 2.846-9.713.312-12.622-2.874-3.054-3.344-5.21-10.486-1.8-13.467 3.44-3.01 10.287.112 13.227 3.61 2.743 3.264 4.398 9.92 1.195 12.732z" fill="#fa0204" stroke="#000" stroke-width="3.205" stroke-linejoin="round"/><path d="M1922.283 1263.67c-3.244 2.847-9.713.313-12.622-2.873-3.052-3.345-5.21-10.486-1.8-13.468 3.44-3.01 10.288.11 13.228 3.61 2.743 3.263 4.4 9.92 1.195 12.73zM1909.8 1274.326c-3.242 2.846-9.71.312-12.62-2.874-3.054-3.345-5.21-10.486-1.8-13.468 3.44-3.01 10.286.112 13.227 3.61 2.742 3.264 4.398 9.92 1.194 12.732z" fill="#fa0204" stroke="#000" stroke-width="3.205" stroke-linejoin="round"/><path d="M1905.19 1281.184c-1.14 4.162-7.933 5.613-12.116 4.557-4.392-1.108-10.126-5.88-8.924-10.246 1.212-4.406 8.646-5.575 13.028-4.275 4.086 1.21 9.136 5.853 8.012 9.964zM1886.507 1259.58c-1.076 5.088-7.503 6.86-11.46 5.57-4.155-1.355-9.58-7.187-8.443-12.524 1.148-5.386 8.18-6.814 12.324-5.226 3.866 1.48 8.643 7.156 7.58 12.18zM1826.837 1219.065c5.212 1.047 5.108 7.12 2.443 10.846-2.797 3.912-10.883 8.993-16.35 7.888-5.514-1.115-4.843-7.757-1.794-11.658 2.843-3.637 10.553-8.11 15.7-7.075zM1801.468 1210.286s5.138 2.53 7.35 4.792c2.32 2.374 5.11 3.322 3.708 6.923-1.414 3.635-5.843 2.39-8.127-.155-2.13-2.372-2.932-11.56-2.932-11.56zM1844.257 1230.555c4.853 2.168 3.414 8.07 0 11.118-3.59 3.198-12.597 6.375-17.685 4.093-5.135-2.302-3.017-8.633.816-11.767 3.574-2.923 12.08-5.588 16.874-3.445zM1858.26 1241.21c4.854 2.168 3.415 8.07 0 11.118-3.59 3.2-12.596 6.375-17.684 4.093-5.135-2.3-3.017-8.632.816-11.766 3.574-2.922 12.08-5.587 16.874-3.444z" fill="#fa0204" stroke="#000" stroke-width="3.205" stroke-linejoin="round"/><path d="M1862.97 1250.68c4.787.753 6.07 7.414 4.584 11.695-1.56 4.494-7.473 10.67-12.495 9.87-5.07-.806-5.983-8.132-4.202-12.634 1.66-4.198 7.383-9.676 12.113-8.93zM1789.023 1225.436c4.243-.376 7.182 5.965 7.127 10.585-.06 4.85-3.317 12.403-7.77 12.79-4.496.39-7.31-6.7-7.067-11.61.228-4.58 3.52-11.393 7.71-11.765z" fill="#fa0204" stroke="#000" stroke-width="3.205" stroke-linejoin="round"/><path d="M1802.914 1237.65c4.157.93 5.028 7.866 3.57 12.25-1.532 4.602-6.933 10.806-11.293 9.82-4.4-.995-4.924-8.607-3.198-13.21 1.61-4.293 6.817-9.783 10.923-8.862z" fill="#fa0204" stroke="#000" stroke-width="3.205" stroke-linejoin="round"/><path d="M1815.792 1246.242c4.92 1.16 5.952 9.77 4.225 15.216-1.813 5.715-8.207 13.42-13.37 12.195-5.21-1.235-5.83-10.688-3.787-16.405 1.906-5.332 8.07-12.15 12.933-11.006z" fill="#fa0204" stroke="#000" stroke-width="3.205" stroke-linejoin="round"/><path d="M1826.216 1256.797c5.014-.644 9.005 7.057 9.3 12.76.31 5.99-2.97 15.45-8.234 16.116-5.31.673-9.212-7.96-9.308-14.03-.09-5.66 3.29-14.21 8.243-14.847z" fill="#fa0204" stroke="#000" stroke-width="3.205" stroke-linejoin="round"/><path d="M1838.594 1265.66c4.557-.534 8.183 5.85 8.452 10.578.28 4.964-2.7 12.806-7.482 13.358-4.827.558-8.372-6.598-8.458-11.63-.08-4.692 2.988-11.78 7.49-12.306zM1831.343 1312.912c-3.392 3.235-.755 11.272 2.773 15.282 3.706 4.21 11.795 8.104 15.35 4.703 3.585-3.433.29-12.024-3.595-16.13-3.623-3.832-11.178-7.05-14.528-3.855z" fill="#fa0204" stroke="#000" stroke-width="3.205" stroke-linejoin="round"/><path d="M1839.954 1301.718c-3.392 3.235-.756 11.272 2.773 15.282 3.705 4.21 11.794 8.105 15.348 4.703 3.587-3.433.293-12.024-3.593-16.13-3.624-3.83-11.18-7.05-14.53-3.855zM1824.024 1326.69c-3.392 3.234-.755 11.27 2.773 15.28 3.706 4.21 11.795 8.105 15.35 4.704 3.585-3.433.29-12.024-3.595-16.13-3.624-3.832-11.18-7.05-14.53-3.855zM1851.38 1276.01c4.557-.533 8.183 5.85 8.452 10.58.28 4.963-2.7 12.804-7.482 13.357-4.827.558-8.372-6.598-8.458-11.63-.08-4.693 2.99-11.78 7.49-12.307z" fill="#fa0204" stroke="#000" stroke-width="3.205" stroke-linejoin="round"/><path d="M1875.1 1265.326c3.966 2.308 3.034 9.59.412 13.534-2.754 4.14-9.845 8.622-14.003 6.193-4.196-2.45-2.736-10.302.215-14.38 2.752-3.8 9.46-7.626 13.377-5.347zM1869.62 1287.55c3.966 2.308 3.035 9.59.412 13.533-2.754 4.14-9.845 8.622-14.002 6.193-4.196-2.45-2.736-10.302.215-14.378 2.753-3.802 9.46-7.628 13.377-5.348z" fill="#fa0204" stroke="#000" stroke-width="3.205" stroke-linejoin="round"/><path d="M1887.184 1278.19c3.64 2.54 2.785 10.55.377 14.89-2.53 4.553-9.04 9.484-12.86 6.812-3.852-2.696-2.512-11.333.2-15.818 2.526-4.183 8.687-8.392 12.284-5.884z" fill="#fa0204" stroke="#000" stroke-width="3.205" stroke-linejoin="round"/><path d="M1882.237 1303.18c2.442 3.707-1.32 10.832-5.164 13.97-4.036 3.293-11.912 5.462-14.47 1.566-2.58-3.93 1.865-11.458 6.043-14.62 3.897-2.95 11.18-4.577 13.592-.916z" fill="#fa0204" stroke="#000" stroke-width="3.205" stroke-linejoin="round"/><path d="M1884.976 1319.315c2.443 3.706-1.32 10.832-5.163 13.97-4.036 3.293-11.912 5.462-14.47 1.566-2.58-3.93 1.865-11.457 6.043-14.62 3.897-2.95 11.18-4.577 13.59-.915z" fill="#fa0204" stroke="#000" stroke-width="3.205" stroke-linejoin="round"/><path d="M1884.672 1337.276c2.442 3.707-1.32 10.832-5.163 13.97-4.037 3.293-11.913 5.463-14.47 1.567-2.58-3.932 1.863-11.46 6.042-14.62 3.897-2.95 11.178-4.578 13.59-.917z" fill="#fa0204" stroke="#000" stroke-width="3.205" stroke-linejoin="round"/><path d="M1884.368 1355.542c2.442 3.707-1.32 10.832-5.164 13.97-4.036 3.293-11.912 5.462-14.47 1.566-2.58-3.93 1.865-11.458 6.043-14.62 3.897-2.95 11.18-4.577 13.592-.916z" fill="#fa0204" stroke="#000" stroke-width="3.205" stroke-linejoin="round"/><path d="M1884.063 1372.286c2.443 3.706-1.32 10.832-5.163 13.97-4.036 3.293-11.912 5.462-14.47 1.566-2.58-3.932 1.864-11.458 6.043-14.62 3.897-2.95 11.178-4.578 13.59-.916zM1884.976 1390.247c2.443 3.707-1.32 10.832-5.163 13.97-4.036 3.293-11.912 5.463-14.47 1.566-2.58-3.93 1.865-11.458 6.043-14.62 3.897-2.95 11.18-4.577 13.59-.916z" fill="#fa0204" stroke="#000" stroke-width="3.205" stroke-linejoin="round"/><path d="M1883.76 1407.6c2.44 3.706-1.32 10.832-5.165 13.97-4.036 3.293-11.91 5.462-14.47 1.566-2.58-3.932 1.865-11.458 6.043-14.62 3.897-2.95 11.18-4.578 13.592-.916z" fill="#fa0204" stroke="#000" stroke-width="3.205" stroke-linejoin="round"/><path d="M1883.255 1426.056c2.696 3.834-1.457 11.203-5.7 14.448-4.455 3.406-13.148 5.65-15.97 1.62-2.848-4.065 2.057-11.85 6.67-15.12 4.3-3.05 12.338-4.734 15-.947z" fill="#fa0204" stroke="#000" stroke-width="3.205" stroke-linejoin="round"/><path d="M1882.092 1443.583c3.392 3.235.755 11.272-2.773 15.282-3.707 4.21-11.796 8.104-15.35 4.703-3.586-3.433-.292-12.025 3.594-16.132 3.624-3.83 11.18-7.048 14.53-3.853z" fill="#fa0204" stroke="#000" stroke-width="3.205" stroke-linejoin="round"/><path d="M1882.7 1463.98c3.393 3.234.756 11.272-2.772 15.282-3.706 4.21-11.795 8.104-15.35 4.702-3.585-3.432-.29-12.024 3.595-16.13 3.624-3.83 11.18-7.05 14.53-3.854z" fill="#fa0204" stroke="#000" stroke-width="3.205" stroke-linejoin="round"/><path d="M1883.005 1484.072c3.392 3.235.756 11.272-2.773 15.282-3.705 4.21-11.794 8.105-15.348 4.703-3.586-3.433-.293-12.024 3.593-16.13 3.624-3.83 11.18-7.05 14.53-3.855zM1882.397 1505.687c3.39 3.234.755 11.272-2.774 15.282-3.705 4.208-11.794 8.103-15.348 4.7-3.586-3.432-.293-12.023 3.593-16.13 3.624-3.83 11.18-7.048 14.53-3.853z" fill="#fa0204" stroke="#000" stroke-width="3.205" stroke-linejoin="round"/><path d="M1883.005 1525.78c3.392 3.234.756 11.27-2.773 15.28-3.705 4.21-11.794 8.106-15.348 4.704-3.586-3.433-.293-12.024 3.593-16.13 3.624-3.832 11.18-7.05 14.53-3.855z" fill="#fa0204" stroke="#000" stroke-width="3.205" stroke-linejoin="round"/><path d="M1882.397 1546.176c3.39 3.235.755 11.272-2.774 15.282-3.705 4.21-11.794 8.104-15.348 4.703-3.586-3.432-.293-12.024 3.593-16.13 3.624-3.83 11.18-7.05 14.53-3.854z" fill="#fa0204" stroke="#000" stroke-width="3.205" stroke-linejoin="round"/><path d="M1882.7 1566.573c3.393 3.234.756 11.272-2.772 15.282-3.706 4.21-11.795 8.104-15.35 4.702-3.585-3.432-.29-12.024 3.595-16.13 3.624-3.83 11.18-7.05 14.53-3.854z" fill="#fa0204" stroke="#000" stroke-width="3.205" stroke-linejoin="round"/><path d="M1882.7 1587.274c3.393 3.235.756 11.272-2.772 15.282-3.706 4.21-11.795 8.104-15.35 4.703-3.585-3.434-.29-12.025 3.595-16.132 3.624-3.83 11.18-7.05 14.53-3.854z" fill="#fa0204" stroke="#000" stroke-width="3.205" stroke-linejoin="round"/><path d="M1881.788 1607.975c3.39 3.235.755 11.272-2.774 15.282-3.705 4.21-11.794 8.105-15.348 4.703-3.586-3.433-.293-12.024 3.593-16.13 3.623-3.83 11.178-7.05 14.53-3.854z" fill="#fa0204" stroke="#000" stroke-width="3.205" stroke-linejoin="round"/><path d="M1883.005 1626.85c3.392 3.235.756 11.272-2.773 15.282-3.705 4.21-11.794 8.104-15.348 4.703-3.586-3.433-.293-12.024 3.593-16.13 3.624-3.832 11.18-7.05 14.53-3.855z" fill="#fa0204" stroke="#000" stroke-width="3.205" stroke-linejoin="round"/><path d="M1883.005 1646.638c3.392 3.235.756 11.272-2.773 15.282-3.705 4.21-11.794 8.104-15.348 4.703-3.586-3.433-.293-12.025 3.593-16.132 3.624-3.83 11.18-7.047 14.53-3.852zM1882.397 1667.948c3.39 3.235.755 11.272-2.774 15.282-3.705 4.21-11.794 8.105-15.348 4.703-3.586-3.433-.293-12.024 3.593-16.13 3.624-3.83 11.18-7.05 14.53-3.855zM1882.397 1688.954c3.39 3.234.755 11.272-2.774 15.282-3.705 4.21-11.794 8.104-15.348 4.702-3.586-3.432-.293-12.024 3.593-16.13 3.624-3.83 11.18-7.05 14.53-3.854zM1832.647 1704.175c-3.39 3.235-.755 11.272 2.774 15.282 3.706 4.21 11.795 8.105 15.35 4.703 3.585-3.433.292-12.024-3.594-16.13-3.625-3.83-11.18-7.05-14.53-3.854zM1833.256 1681.952c-3.39 3.235-.755 11.272 2.773 15.282 3.705 4.21 11.794 8.104 15.348 4.703 3.586-3.433.292-12.025-3.594-16.132-3.624-3.83-11.18-7.048-14.53-3.853z" fill="#fa0204" stroke="#000" stroke-width="3.205" stroke-linejoin="round"/><path d="M1833.256 1662.164c-3.39 3.235-.755 11.272 2.773 15.282 3.705 4.21 11.794 8.104 15.348 4.703 3.586-3.434.292-12.026-3.594-16.133-3.624-3.83-11.18-7.048-14.53-3.853zM1833.256 1640.854c-3.39 3.234-.755 11.272 2.773 15.282 3.705 4.21 11.794 8.104 15.348 4.702 3.586-3.432.292-12.024-3.594-16.13-3.624-3.83-11.18-7.05-14.53-3.854zM1833.865 1618.022c-3.392 3.234-.755 11.272 2.773 15.282 3.706 4.208 11.795 8.104 15.35 4.702 3.585-3.433.29-12.024-3.595-16.13-3.624-3.83-11.18-7.05-14.53-3.854zM1833.865 1596.103c-3.392 3.234-.755 11.27 2.773 15.28 3.706 4.21 11.795 8.106 15.35 4.704 3.585-3.433.29-12.024-3.595-16.13-3.624-3.83-11.18-7.05-14.53-3.854z" fill="#fa0204" stroke="#000" stroke-width="3.205" stroke-linejoin="round"/><path d="M1835.083 1576.01c-3.392 3.235-.756 11.272 2.773 15.282 3.705 4.21 11.794 8.105 15.348 4.703 3.587-3.433.293-12.024-3.593-16.13-3.623-3.832-11.178-7.05-14.528-3.855z" fill="#fa0204" stroke="#000" stroke-width="3.205" stroke-linejoin="round"/><path d="M1835.69 1556.222c-3.39 3.235-.754 11.272 2.775 15.282 3.705 4.21 11.794 8.105 15.348 4.703 3.586-3.433.293-12.024-3.593-16.13-3.624-3.83-11.18-7.05-14.53-3.855z" fill="#fa0204" stroke="#000" stroke-width="3.205" stroke-linejoin="round"/><path d="M1835.69 1536.434c-3.39 3.235-.754 11.272 2.775 15.282 3.705 4.21 11.794 8.105 15.348 4.703 3.586-3.434.293-12.025-3.593-16.132-3.624-3.83-11.18-7.05-14.53-3.854z" fill="#fa0204" stroke="#000" stroke-width="3.205" stroke-linejoin="round"/><path d="M1835.083 1516.037c-3.392 3.235-.756 11.272 2.773 15.282 3.705 4.208 11.794 8.104 15.348 4.702 3.587-3.433.293-12.024-3.593-16.13-3.623-3.83-11.178-7.05-14.528-3.855z" fill="#fa0204" stroke="#000" stroke-width="3.205" stroke-linejoin="round"/><path d="M1834.778 1496.858c-3.39 3.235-.755 11.272 2.774 15.282 3.705 4.21 11.794 8.105 15.348 4.703 3.586-3.433.293-12.024-3.593-16.13-3.625-3.83-11.18-7.05-14.53-3.855z" fill="#fa0204" stroke="#000" stroke-width="3.205" stroke-linejoin="round"/><path d="M1835.996 1476.766c-3.392 3.234-.755 11.272 2.773 15.282 3.705 4.21 11.794 8.104 15.348 4.702 3.586-3.432.292-12.024-3.594-16.13-3.624-3.83-11.18-7.05-14.53-3.854z" fill="#fa0204" stroke="#000" stroke-width="3.205" stroke-linejoin="round"/><path d="M1835.996 1456.37c-3.392 3.234-.755 11.27 2.773 15.28 3.705 4.21 11.794 8.105 15.348 4.704 3.586-3.433.292-12.025-3.594-16.132-3.624-3.83-11.18-7.048-14.53-3.853z" fill="#fa0204" stroke="#000" stroke-width="3.205" stroke-linejoin="round"/><path d="M1833.56 1439.32c-3.39 3.236-.755 11.273 2.774 15.283 3.705 4.21 11.794 8.104 15.348 4.702 3.586-3.432.293-12.024-3.593-16.13-3.625-3.83-11.18-7.05-14.53-3.854z" fill="#fa0204" stroke="#000" stroke-width="3.205" stroke-linejoin="round"/><path d="M1835.996 1421.968c-3.392 3.235-.755 11.272 2.773 15.282 3.705 4.21 11.794 8.105 15.348 4.703 3.586-3.433.292-12.024-3.594-16.13-3.624-3.83-11.18-7.05-14.53-3.855z" fill="#fa0204" stroke="#000" stroke-width="3.205" stroke-linejoin="round"/><path d="M1833.56 1400.658c-3.39 3.235-.755 11.272 2.774 15.282 3.705 4.21 11.794 8.105 15.348 4.703 3.586-3.433.293-12.024-3.593-16.13-3.625-3.83-11.18-7.05-14.53-3.855zM1836.91 1381.48c-3.392 3.234-.756 11.27 2.773 15.28 3.705 4.21 11.794 8.105 15.348 4.704 3.587-3.433.294-12.024-3.592-16.13-3.625-3.832-11.18-7.05-14.53-3.855z" fill="#fa0204" stroke="#000" stroke-width="3.205" stroke-linejoin="round"/><path d="M1835.996 1360.778c-3.392 3.234-.755 11.272 2.773 15.282 3.705 4.21 11.794 8.104 15.348 4.702 3.586-3.432.292-12.024-3.594-16.13-3.624-3.83-11.18-7.05-14.53-3.854zM1835.69 1339.468c-3.39 3.234-.754 11.272 2.775 15.282 3.705 4.21 11.794 8.104 15.348 4.702 3.586-3.433.293-12.024-3.593-16.13-3.624-3.83-11.18-7.05-14.53-3.854z" fill="#fa0204" stroke="#000" stroke-width="3.205" stroke-linejoin="round"/><path d="M1835.996 1319.375c-3.392 3.235-.755 11.272 2.773 15.282 3.705 4.21 11.794 8.105 15.348 4.703 3.586-3.433.292-12.024-3.594-16.13-3.624-3.83-11.18-7.05-14.53-3.855zM1820.832 1339.55c-4.348 1.748-4.876 10.19-3.083 15.22 1.882 5.284 7.953 11.898 12.514 10.054 4.603-1.86 4.725-11.06 2.636-16.315-1.948-4.9-7.774-10.688-12.07-8.96z" fill="#fa0204" stroke="#000" stroke-width="3.205" stroke-linejoin="round"/><path d="M1810.284 1354.402c-4.348 1.75-4.876 10.19-3.083 15.223 1.884 5.282 7.955 11.896 12.516 10.052 4.603-1.86 4.725-11.06 2.636-16.315-1.948-4.9-7.774-10.687-12.07-8.96z" fill="#fa0204" stroke="#000" stroke-width="3.205" stroke-linejoin="round"/><path d="M1802.66 1371.044c-4.57 1.037-6.43 9.29-5.458 14.54 1.022 5.515 5.968 13.008 10.763 11.91 4.84-1.106 6.42-10.17 5.19-15.69-1.146-5.146-5.98-11.784-10.496-10.76z" fill="#fa0204" stroke="#000" stroke-width="3.205" stroke-linejoin="round"/><path d="M1792.543 1386.974c-4.57 1.037-6.43 9.29-5.458 14.54 1.022 5.515 5.967 13.008 10.763 11.91 4.84-1.107 6.42-10.17 5.19-15.69-1.147-5.147-5.98-11.785-10.496-10.76z" fill="#fa0204" stroke="#000" stroke-width="3.205" stroke-linejoin="round"/><path d="M1784.063 1403.298c-4.684.17-8.042 7.935-8.06 13.276-.02 5.608 3.45 13.888 8.367 13.7 4.96-.19 8.194-8.805 8.01-14.456-.172-5.27-3.692-12.69-8.318-12.52z" fill="#fa0204" stroke="#000" stroke-width="3.205" stroke-linejoin="round"/><path d="M1773.73 1422.457c-4.684.17-8.042 7.934-8.06 13.276-.02 5.608 3.45 13.888 8.367 13.7 4.96-.19 8.194-8.805 8.01-14.457-.172-5.27-3.692-12.69-8.318-12.52z" fill="#fa0204" stroke="#000" stroke-width="3.205" stroke-linejoin="round"/><path d="M1761.675 1440.324c-4.684.17-8.042 7.934-8.06 13.276-.02 5.608 3.45 13.888 8.367 13.7 4.96-.19 8.194-8.805 8.01-14.457-.172-5.27-3.69-12.69-8.318-12.52z" fill="#fa0204" stroke="#000" stroke-width="3.205" stroke-linejoin="round"/><path d="M1749.19 1455.608c-4.684.17-8.042 7.934-8.06 13.276-.02 5.607 3.45 13.888 8.367 13.7 4.96-.19 8.194-8.806 8.01-14.457-.172-5.27-3.692-12.69-8.318-12.52z" fill="#fa0204" stroke="#000" stroke-width="3.205" stroke-linejoin="round"/><path d="M1736.274 1469.815c-4.684.17-8.042 7.935-8.06 13.276-.02 5.61 3.45 13.89 8.367 13.7 4.962-.19 8.195-8.804 8.01-14.455-.17-5.27-3.69-12.69-8.317-12.52z" fill="#fa0204" stroke="#000" stroke-width="3.205" stroke-linejoin="round"/><path d="M1722.066 1481.44c-4.683.17-8.04 7.934-8.06 13.275-.02 5.608 3.45 13.89 8.367 13.7 4.96-.19 8.194-8.805 8.01-14.456-.172-5.27-3.69-12.69-8.318-12.52z" fill="#fa0204" stroke="#000" stroke-width="3.205" stroke-linejoin="round"/><path d="M1708.505 1493.925c-4.684.17-8.042 7.934-8.06 13.276-.02 5.61 3.45 13.89 8.367 13.7 4.96-.19 8.194-8.804 8.01-14.456-.172-5.27-3.692-12.69-8.318-12.52z" fill="#fa0204" stroke="#000" stroke-width="3.205" stroke-linejoin="round"/><path d="M1692.79 1500.167l-5.262 20.596s2.936 7.334 6 7.026c5.48-.553 6.965-9.048 8.01-14.457.947-8.424-8.748-13.166-8.748-13.166zM1648.155 1517.51c-4.167-2.147-10.898 2.976-13.53 7.623-2.765 4.88-3.797 13.798.58 16.042 4.42 2.265 11.458-3.66 14.066-8.677 2.434-4.68 3-12.87-1.115-14.99z" fill="#fa0204" stroke="#000" stroke-width="3.205" stroke-linejoin="round"/><path d="M1642.01 1534.397c-4.415-1.572-10.405 4.4-12.397 9.357-2.09 5.204-1.926 14.18 2.712 15.822 4.68 1.656 10.868-5.153 12.786-10.472 1.79-4.96 1.26-13.155-3.1-14.708z" fill="#fa0204" stroke="#000" stroke-width="3.205" stroke-linejoin="round"/><path d="M1647.737 1549.94c-4.54-1.166-9.962 5.325-11.496 10.442-1.608 5.37-.63 14.296 4.137 15.51 4.81 1.225 10.356-6.117 11.783-11.588 1.33-5.102.06-13.216-4.423-14.366z" fill="#fa0204" stroke="#000" stroke-width="3.205" stroke-linejoin="round"/><path d="M1662.367 1556.31c-4.5-1.314-10.132 4.997-11.832 10.06-1.784 5.317-1.1 14.268 3.626 15.638 4.77 1.382 10.552-5.775 12.157-11.197 1.497-5.055.493-13.205-3.95-14.502z" fill="#fa0204" stroke="#000" stroke-width="3.205" stroke-linejoin="round"/><path d="M1671.912 1558.808c-4.547 1.134-6.232 9.423-5.148 14.653 1.14 5.492 6.242 12.88 11.013 11.68 4.815-1.21 6.202-10.305 4.856-15.797-1.255-5.12-6.23-11.655-10.722-10.535z" fill="#fa0204" stroke="#000" stroke-width="3.205" stroke-linejoin="round"/><path d="M1688.703 1565.05c-4.548 1.134-6.232 9.424-5.148 14.654 1.138 5.49 6.242 12.877 11.013 11.68 4.815-1.21 6.202-10.307 4.856-15.798-1.256-5.122-6.23-11.656-10.722-10.536z" fill="#fa0204" stroke="#000" stroke-width="3.205" stroke-linejoin="round"/><path d="M1701.62 1575.592c-3.986 2.464-3.066 10.873-.44 15.525 2.756 4.883 9.866 10.365 14.046 7.77 4.218-2.62 2.768-11.705-.186-16.526-2.756-4.494-9.483-9.203-13.42-6.768z" fill="#fa0204" stroke="#000" stroke-width="3.205" stroke-linejoin="round"/><path d="M1720.563 1583.34c-3.986 2.466-3.066 10.875-.44 15.527 2.756 4.883 9.867 10.364 14.046 7.77 4.217-2.62 2.768-11.705-.187-16.526-2.755-4.495-9.483-9.203-13.42-6.77z" fill="#fa0204" stroke="#000" stroke-width="3.205" stroke-linejoin="round"/><path d="M1738.645 1586.14c-3.986 2.464-3.065 10.873-.44 15.525 2.756 4.883 9.867 10.365 14.047 7.77 4.217-2.62 2.768-11.705-.187-16.526-2.755-4.497-9.483-9.205-13.42-6.77zM1758.45 1591.09c-3.986 2.466-3.066 10.874-.44 15.526 2.756 4.883 9.866 10.365 14.046 7.77 4.218-2.62 2.768-11.705-.186-16.526-2.756-4.495-9.484-9.204-13.42-6.77z" fill="#fa0204" stroke="#000" stroke-width="3.205" stroke-linejoin="round"/><path d="M1776.317 1593.674c-3.986 2.465-3.066 10.873-.44 15.525 2.756 4.883 9.866 10.364 14.046 7.77 4.218-2.62 2.768-11.706-.186-16.527-2.756-4.495-9.484-9.204-13.42-6.77z" fill="#fa0204" stroke="#000" stroke-width="3.205" stroke-linejoin="round"/><path d="M1793.968 1597.333c-3.986 2.465-3.066 10.874-.44 15.526 2.756 4.882 9.867 10.363 14.046 7.768 4.218-2.618 2.77-11.704-.186-16.525-2.755-4.496-9.483-9.204-13.42-6.77z" fill="#fa0204" stroke="#000" stroke-width="3.205" stroke-linejoin="round"/><path d="M1812.05 1602.285c-3.985 2.464-3.065 10.873-.44 15.525 2.757 4.883 9.867 10.364 14.047 7.77 4.218-2.62 2.768-11.705-.186-16.526-2.755-4.496-9.483-9.204-13.42-6.77zM1898.828 1604.94c-2.878 3.7.914 11.26 4.995 14.707 4.285 3.618 12.86 6.278 15.874 2.39 3.04-3.924-1.483-11.936-5.93-15.426-4.15-3.253-12.097-5.322-14.94-1.67z" fill="#fa0204" stroke="#000" stroke-width="3.205" stroke-linejoin="round"/><path d="M1916.177 1603.805c-2.29 4.09 2.594 10.995 7.147 13.79 4.78 2.932 13.656 4.275 16.052-.02 2.418-4.337-3.258-11.58-8.18-14.362-4.59-2.594-12.758-3.447-15.02.592z" fill="#fa0204" stroke="#000" stroke-width="3.205" stroke-linejoin="round"/><path d="M1936.197 1600.576c-2.29 4.09 2.594 10.995 7.146 13.79 4.78 2.932 13.657 4.275 16.053-.02 2.417-4.337-3.258-11.58-8.18-14.36-4.59-2.596-12.758-3.45-15.02.59z" fill="#fa0204" stroke="#000" stroke-width="3.205" stroke-linejoin="round"/><path d="M1953.48 1595.433c-1.903 4.283 3.597 10.71 8.388 13.07 5.03 2.48 13.993 2.998 15.982-1.502 2.007-4.54-4.312-11.227-9.47-13.543-4.81-2.16-13.022-2.255-14.902 1.976z" fill="#fa0204" stroke="#000" stroke-width="3.205" stroke-linejoin="round"/><path d="M1972.423 1589.836c-1.903 4.283 3.598 10.71 8.39 13.07 5.03 2.48 13.992 2.998 15.98-1.502 2.008-4.54-4.312-11.228-9.47-13.543-4.81-2.16-13.022-2.254-14.9 1.977z" fill="#fa0204" stroke="#000" stroke-width="3.205" stroke-linejoin="round"/><path d="M1991.262 1583.893c-1.646 4.388 4.225 10.477 9.147 12.552 5.167 2.178 14.145 2.165 15.864-2.444 1.736-4.65-4.968-10.953-10.254-12.96-4.93-1.87-13.132-1.48-14.758 2.853z" fill="#fa0204" stroke="#000" stroke-width="3.205" stroke-linejoin="round"/><path d="M2010.42 1577.65c-1.645 4.388 4.225 10.478 9.148 12.553 5.167 2.177 14.145 2.165 15.865-2.445 1.735-4.65-4.968-10.953-10.255-12.96-4.93-1.872-13.132-1.482-14.758 2.853z" fill="#fa0204" stroke="#000" stroke-width="3.205" stroke-linejoin="round"/><path d="M2028.934 1569.9c-1.646 4.388 4.224 10.478 9.146 12.553 5.168 2.177 14.146 2.165 15.866-2.444 1.735-4.653-4.97-10.955-10.255-12.962-4.928-1.87-13.13-1.482-14.757 2.853zM2048.738 1561.72c-1.646 4.388 4.225 10.478 9.147 12.553 5.167 2.177 14.145 2.165 15.865-2.445 1.735-4.65-4.968-10.953-10.254-12.96-4.93-1.87-13.133-1.482-14.76 2.853z" fill="#fa0204" stroke="#000" stroke-width="3.205" stroke-linejoin="round"/><path d="M2068.758 1555.263c-1.646 4.388 4.224 10.477 9.146 12.552 5.168 2.177 14.146 2.165 15.866-2.444 1.735-4.65-4.97-10.953-10.255-12.96-4.93-1.87-13.132-1.482-14.758 2.853z" fill="#fa0204" stroke="#000" stroke-width="3.205" stroke-linejoin="round"/><path d="M2071.126 1539.548c-1.647 4.388 4.224 10.478 9.146 12.553 5.168 2.178 14.146 2.166 15.866-2.444 1.735-4.65-4.97-10.953-10.255-12.96-4.93-1.872-13.132-1.482-14.758 2.853z" fill="#fa0204" stroke="#000" stroke-width="3.205" stroke-linejoin="round"/><path d="M2066.71 1534.88s13.55 1.99 14.79-2.875c1.645-6.463-15.42-12.746-15.42-12.746zM2017.208 1513.25c1.61 6.125 15.26 11.315 15.26 11.315l-6.65-27.758c-5.718.154-9.495 12.436-8.61 16.444z" fill="#fa0204" stroke="#000" stroke-width="3.205" stroke-linejoin="round"/><path d="M2016.006 1490.954c-4.36-1.72-10.55 4.043-12.708 8.93-2.267 5.128-2.41 14.105 2.17 15.904 4.62 1.815 11.037-4.779 13.135-10.03 1.957-4.896 1.71-13.104-2.597-14.805z" fill="#fa0204" stroke="#000" stroke-width="3.205" stroke-linejoin="round"/><path d="M2000.82 1478.668c-4.682-.243-8.713 7.193-9.203 12.512-.515 5.584 2.21 14.14 7.124 14.385 4.96.25 8.94-8.046 9.257-13.69.294-5.266-2.556-12.967-7.18-13.207z" fill="#fa0204" stroke="#000" stroke-width="3.205" stroke-linejoin="round"/><path d="M1987.424 1464.97c-4.68-.244-8.712 7.192-9.202 12.51-.514 5.585 2.21 14.14 7.124 14.386 4.958.25 8.94-8.046 9.256-13.69.294-5.266-2.556-12.967-7.18-13.208z" fill="#fa0204" stroke="#000" stroke-width="3.205" stroke-linejoin="round"/><path d="M1974.942 1449.443c-4.68-.243-8.71 7.193-9.202 12.512-.514 5.584 2.21 14.14 7.124 14.385 4.958.25 8.94-8.046 9.256-13.69.295-5.266-2.555-12.967-7.18-13.208z" fill="#fa0204" stroke="#000" stroke-width="3.205" stroke-linejoin="round"/><path d="M1962.156 1436.352c-4.68-.243-8.71 7.193-9.202 12.512-.514 5.585 2.21 14.14 7.124 14.386 4.958.248 8.94-8.046 9.256-13.692.294-5.264-2.556-12.966-7.18-13.206z" fill="#fa0204" stroke="#000" stroke-width="3.205" stroke-linejoin="round"/><path d="M1951.805 1418.39c-4.68-.242-8.71 7.194-9.202 12.513-.514 5.584 2.21 14.14 7.124 14.385 4.96.25 8.94-8.046 9.256-13.69.295-5.266-2.555-12.967-7.178-13.208z" fill="#fa0204" stroke="#000" stroke-width="3.205" stroke-linejoin="round"/><path d="M1940.54 1402.256c-4.68-.243-8.71 7.193-9.2 12.512-.515 5.584 2.21 14.14 7.123 14.385 4.96.25 8.94-8.046 9.257-13.69.294-5.266-2.556-12.967-7.18-13.207z" fill="#fa0204" stroke="#000" stroke-width="3.205" stroke-linejoin="round"/><path d="M1930.19 1385.208c-4.68-.243-8.71 7.193-9.2 12.512-.515 5.584 2.21 14.14 7.123 14.385 4.958.25 8.94-8.046 9.256-13.69.293-5.266-2.557-12.967-7.18-13.208z" fill="#fa0204" stroke="#000" stroke-width="3.205" stroke-linejoin="round"/><path d="M1921.058 1365.42c-4.68-.243-8.71 7.193-9.202 12.512-.514 5.584 2.21 14.14 7.124 14.385 4.958.25 8.94-8.046 9.256-13.69.294-5.266-2.556-12.967-7.18-13.207z" fill="#fa0204" stroke="#000" stroke-width="3.205" stroke-linejoin="round"/><path d="M1911.012 1347.46c-4.68-.244-8.712 7.192-9.202 12.51-.514 5.585 2.21 14.14 7.124 14.386 4.958.25 8.94-8.046 9.256-13.69.294-5.266-2.556-12.967-7.18-13.208z" fill="#fa0204" stroke="#000" stroke-width="3.205" stroke-linejoin="round"/><path d="M1902.792 1326.15c-4.68-.245-8.71 7.192-9.202 12.51-.514 5.585 2.21 14.14 7.124 14.386 4.958.248 8.94-8.046 9.256-13.69.295-5.266-2.556-12.968-7.18-13.208z" fill="#fa0204" stroke="#000" stroke-width="3.205" stroke-linejoin="round"/><path d="M1883.848 1304.564s-1.647 26.677 8.038 28.39c6.038 1.067 10.778-14.91 10.778-14.91z" fill="#fa0204" stroke="#000" stroke-width="3.205" stroke-linejoin="round"/><path d="M1856.312 1738.257a12.916 12.916 0 1 1-25.832 0 12.916 12.916 0 1 1 25.832 0zM1885.803 1722.973a12.916 12.916 0 1 1-25.832 0 12.916 12.916 0 1 1 25.833 0z" fill="#ce9d09" stroke="#000" stroke-width="3.2046" stroke-linejoin="round"/><path d="M1859.325 1780.02l-32.72-.647s-4.245-26.613 16.145-27.77c16.924-.96 17.252 28.364 16.575 28.416z" fill="#ce9d09" stroke="#000" stroke-width="3.205" stroke-linejoin="round"/><path d="M1869.363 1867.006c-4.926-6.19-40.227-8.828-54.096-.39-5.02 0-18.54-93.85 29-91.53 43.656 2.13 28.13 92.354 25.096 91.92zM1825.96 1810.37c-6.094 21.22-4.67 38.05 3.013 51.234M1838.445 1811.232c-1.745 18.485-1.096 35.6 5.166 49.51M1885.372 1791.858c7.05 17.864 11.37 33.24 4.736 53.386" fill="#fa0204" stroke="#000" stroke-width="3.205" stroke-linejoin="round"/><path d="M1571.935 1140.426l-1.82 34.263" fill="#e6e6e6" stroke="#000" stroke-width="3.205"/><path d="M2153.817 1139.516l1.738 34.097" fill="#e6e6e6" stroke="#000" stroke-width="3.205" stroke-linejoin="round"/><path d="M1854.65 765.196l8.324-2.437 8.325 2.436" fill="none" stroke="#000" stroke-width="3.205" stroke-linecap="round" stroke-linejoin="round"/><path d="M1729.63 870.98s5.236 4.178 8.285 3.94c4.378-.342 7.063-5.256 10.873-7.44 4.85-2.778 10.01-4.992 15.164-7.153 7.125-2.985 14.367-5.727 21.746-8.01 9.303-2.88 18.687-5.765 28.326-7.154 9.73-1.402 19.663-1.81 29.47-1.145 6.597.447 19.533 3.434 19.533 3.434s-5.515 2.236-8.042 3.783c-2.91 1.783-6.555 3.225-8.092 6.272-1.307 2.59-1.358 6.04-.203 8.7 1.332 3.067 4.39 5.415 7.486 6.676 2.735 1.115 8.85.405 8.85.405s-7.024.266-9.457 2.428c-1.677 1.49-2.523 4.032-2.43 6.272.13 3.074 1.618 6.408 4.048 8.295 2.107 1.637 7.84 1.62 7.84 1.62s-2.952.322-4.35-.067c-1.92-.535-3.882-1.487-5.165-3.014-1.33-1.582-1.957-3.755-2.153-5.812-.206-2.172-.183-4.676 1.077-6.458 1.088-1.538 4.946-2.735 4.946-2.735s-3.124-.793-4.516-1.57c-2.182-1.218-5.812-4.736-5.812-4.736s-2.975.066-4.305.647c-2.948 1.287-5.704 3.383-7.534 6.027-1.847 2.668-3.545 6.055-3.014 9.257.528 3.186 3.253 5.78 5.812 7.75 2.576 1.983 9.04 3.66 9.04 3.66s-.23 2.18-.86 3.013c-2.12 2.797-5.59 4.562-8.965 5.52-5.227 1.485-11.09.83-16.3.025-5.266-.813-9.23-2.277-15.243-4.85-2.037-.87-3.838-5.43-3.838-5.43s4.33-3.346 4.735-5.813c.397-2.42-.904-5.1-2.583-6.888-1.56-1.662-3.962-2.835-6.243-2.798-3.113.048-6.78 1.428-8.396 4.09-1.453 2.39-.967 5.856.215 8.394 1.05 2.258 5.596 4.95 5.596 4.95-1.163 4.732-2.788 7.154-4.52 9.042-6.315 3.604-12.63 5.62-18.944 7.534l-3.66-2.368-2.582-4.52s3.733-5.166 3.874-8.18c.118-2.517-1.18-5.012-2.583-7.104-1.187-1.772-2.76-3.5-4.735-4.305-1.86-.76-4.087-.745-6.027-.215-2.957.807-7.75 4.95-7.75 4.95s-4.74-3.79-6.457-6.242c-1.714-2.446-3.66-8.18-3.66-8.18z" fill="#fff" stroke="#000" stroke-width="3.205" stroke-linecap="round" stroke-linejoin="round"/></svg>