<svg xmlns="http://www.w3.org/2000/svg" xmlns:xlink="http://www.w3.org/1999/xlink" width="1200" height="600"><defs><linearGradient id="b" gradientUnits="userSpaceOnUse" x1="103.083" y1="111.276" x2="92.551" y2="107.764" gradientTransform="matrix(1 0 0 2.3 703.8 -75)"><stop stop-color="red" offset="0"/><stop stop-color="#ff0" offset="1"/></linearGradient><clipPath id="a"><path d="M0 0v150h700v150H600zm600 0H300v350H0v-50z"/></clipPath></defs><path fill="#00247d" d="M0 0h1200v600H0z"/><path d="M0 0l600 300m0-300L0 300" stroke="#fff" stroke-width="60"/><path d="M0 0l600 300m0-300L0 300" stroke="#cf142b" stroke-width="40" clip-path="url(#a)"/><path d="M300 0v350M0 150h700" stroke="#fff" stroke-width="100"/><path d="M300 0v350M0 150h700" stroke="#cf142b" stroke-width="60"/><path d="M0 300h600V0h600v600H0z" fill="#00247d"/><path fill="#fff" d="M776.26 144.068l250.4-.93-.464 222.993s8.827 33.914-104.992 85.48c40.882-4.18 85.48-47.85 85.48-47.85s18.12-23.227 26.946-10.22c8.826 13.008 17.188 19.512 23.692 24.622 6.504 5.11 11.614 19.048 1.86 29.268s-25.088 11.614-29.27-.93c-6.503 3.253-46.456 51.568-128.22 53.89-83.156-1.393-128.684-54.354-128.684-54.354s-11.15 17.654-26.945 3.717c-15.33-18.118-3.716-29.732-3.716-29.732s13.007-7.432 16.724-12.543c6.04-6.968 7.9-16.26 18.12-16.26 12.078.93 16.723 10.685 16.723 10.685s41.81 44.134 86.874 49.71C779.05 402.827 775.334 372.63 775.8 365.197l.464-221.133z"/><path fill="#006129" stroke="#000" stroke-width="1.887" d="M782.3 150.107l238.786-1.394v214.63c.465 27.874-46.457 56.213-119.858 92.45-75.724-39.025-119.394-62.717-119.858-92.914l.93-212.772z"/><g id="c" fill="#f7c600" stroke="#000" stroke-width=".944"><path fill="none" stroke="#f7c600" stroke-width="1.887" d="M814.794 181.83l14.095-20.702 14.163 20.744"/><path d="M831.72 174.09c0 1.546-1.254 2.8-2.8 2.8s-2.8-1.254-2.8-2.8c0-1.546 1.253-2.8 2.8-2.8s2.8 1.254 2.8 2.8z"/><path d="M817.444 197.12l21.852.06s.342-2.835-2.283-4.558c11.446-1.574 8.472-11.67 18.058-12.242 1.86.286-5.007 4.292-5.007 4.292s-5.78 4.078-3.147 6.152c2.09 1.646 3.004-1 3.29-3.004.286-2.003 9.3-3.29 8.012-9.014-2.146-4.72-14.736 3.148-14.736 3.148l-8.982-.05c-.56-1.008-3.035-5.05-5.592-5.07-3.033.11-5.17 5.12-5.17 5.12h-20.315s-.696 5.212 9.605 6.214c2.32 3.03 4.117 3.875 6.133 4.66-1.343 1.12-1.722 2.474-1.716 4.29zM819.017 192.684l18.2-.062M810.68 181.953s1.457 8.513 8.177 10.53"/><path fill="url(#b)" d="M809.56 181.84c.673-3.247 1.905-3.807 3.25-7.95.223-4.034-3.25-3.586-2.24-6.162 1.79-2.8.895-5.488-2.465-7.616.672 3.696-4.368 7.168-4.368 10.192 0 3.025 2.576 2.353 2.24 6.945.224 2.687-.672 2.015-.896 4.59h4.48z"/><path d="M831.495 161.657c0 1.423-1.153 2.576-2.575 2.576-1.423 0-2.576-1.153-2.575-2.576 0-1.423 1.152-2.576 2.575-2.576 1.422 0 2.575 1.154 2.575 2.577z"/></g><use xlink:href="#c" x="-.772" y="41.304"/><use xlink:href="#c" x="-1.089" y="82.013"/><use xlink:href="#c" x="25.627" y="126.099"/><use xlink:href="#c" x="-4.574" y="162.163"/><use xlink:href="#c" x="-3.782" y="204.773"/><use xlink:href="#c" x="146.28" y=".672"/><use xlink:href="#c" x="144.936" y="41.218"/><use xlink:href="#c" x="143.144" y="82.661"/><use xlink:href="#c" x="145.16" y="123.431"/><use xlink:href="#c" x="144.712" y="164.201"/><use xlink:href="#c" x="144.936" y="205.195"/><g fill="#ffc6b5" stroke="#000" stroke-width=".944"><path fill="#f7c600" d="M915.843 406.315s5.702 13.147 12.197 5.07c6.494-8.08 4.118-11.564 4.118-11.564l-14.573-7.92-4.276 9.03 2.533 5.385z"/><path d="M928.357 404.572s.95.16 1.742-1.267c.79-1.426-1.743-2.06-2.852-3.643l-1.267 2.534 2.377 2.376zM895.41 401.087l-12.83 6.97s-6.338 1.267-6.813 0c-.475-1.268.16-2.376 3.485-2.535 3.327-.158 12.355-8.395 12.355-8.395l3.802 3.96zM895.568 173.15s.317 3.01.475 4.593c.16 1.584-2.534 4.91-2.693 4.752s-1.425.158-1.267 1.108c.16.95 2.06 1.268 2.06 1.268s-.793 3.327 0 3.485c.79.16-2.06 4.277 0 5.386 2.06 1.11 5.543 2.535 7.127 2.22 1.584-.318 0 6.176 0 6.176l-4.435 9.504 24.394-2.534-5.07-8.08s-2.376-1.583-1.742-6.176c.633-4.594-.317-25.344-.317-25.344l-17.423-2.376-1.11 6.02zM891.132 209.264s-7.92 3.643-7.603 13.464c-2.06 9.504-3.17 19.008-3.17 19.008s-9.345 10.613-12.196 14.415c-2.85 3.802-7.128 11.564-8.712 13.623-1.584 2.06-7.762 8.87-7.603 11.405.157 2.534-1.427 13.78 4.75 15.048 1.585.633 6.654-12.99 6.654-12.99s.316-5.86-1.426-6.97c-1.742-1.107 3.802-4.91 3.802-4.91s10.612-7.76 12.988-9.662c2.376-1.9 8.87-9.187 8.87-9.187l3.644-43.243z"/><path fill="#fff" d="M900.16 201.82s2.06 5.544 6.654 4.594c4.594-.95 9.98-5.228 9.98-5.228s4.276-.158 4.91.476c.633.633 11.563 11.246 11.246 14.572-.317 3.327-5.07 2.376-6.81 4.594-1.744 2.218-4.595 7.762-3.803 11.88.792 4.12 3.168 9.504 2.85 11.563-.315 2.06-2.058 2.694-2.058 3.803 0 1.11 1.425 3.01 1.425 5.07 0 2.058-1.9 5.068-1.584 7.127.318 2.06.476 8.078.476 8.078l-.475 27.88s1.585.95 1.743 2.533c.16 1.585 10.77 47.68 10.77 47.68s-.474 1.425-1.583 1.267c-1.108-.16 4.277 7.128 4.436 9.187.158 2.06 5.544 18.216 5.385 20.434-.157 2.217-.95 7.128-1.424 7.286-.476.158 3.484 10.138 2.85 11.722-.633 1.584-7.127 1.425-7.127 1.425l-1.744-.315s.16 2.06-1.108 2.217-10.613-.475-10.613-.475-2.693 4.118-4.277 3.96c-1.584-.158-3.643-3.01-4.12-2.534-.474.475 1.427 3.167.952 3.96-.475.792-8.554 2.534-10.138-1.268-1.584-3.8.95-2.85.476-3.643-.476-.792-4.12-2.85-5.228-2.217-1.11.633 2.852 1.584 2.693 3.168-.158 1.584-3.485 3.96-4.752 3.96s-4.276-5.86-8.71-5.228c-4.436.634-7.287 1.743-7.287 1.743s-5.228 2.217-7.445 1.742c-2.218-.475-3.168-2.218-3.168-3.168 0-.95 1.584-5.07 1.425-6.336s-1.425-2.534-1.425-4.435c0-1.9 3.643-8.394 3.643-8.394l-.158-29.146s-3.327 0-3.485-2.06 5.07-46.094 5.86-48.945c.793-2.85 2.852-12.99 2.852-12.99s-2.376 1.11-2.535 0c-.158-1.108 7.128-26.293 7.128-26.293s1.268-12.514 1.268-15.84c0-3.327-.634-7.92-.634-7.92s-6.504-2.753-6.654-6.97c-.595-6.71 6.178-10.454 6.97-12.672l3.168-8.87s3.485-6.02 9.187-6.97z"/><path fill="#f7c600" d="M897.785 402.988s-15.365 8.08-17.582 8.712c-2.218.634-3.644-2.693-1.426-3.326 2.218-.634 5.702-.95 5.702-.95s-5.228-4.12-5.07-4.278c.16-.158 7.13-2.692 7.287-2.692s2.218 4.118 3.643 3.8c1.426-.316 5.544-3.483 5.544-3.483s2.218 2.535 1.9 2.218z"/><path d="M919.432 407.423c1.453 1.874 2.02 5.123 5.347 3.222 3.326-1.9-1.705-5.428-1.705-5.428l-3.643 2.206z"/><path d="M925.505 407.106s1.584 1.267 3.01-.158-2.852-4.436-2.852-4.436l-2.06 2.376 1.902 2.218zM932.317 216.96c.158 0 5.227 15.682 5.86 19.642.634 3.96 2.694 19.8 1.902 22.017-.793 2.217-8.872 12.83-9.822 15.523-.95 2.692-6.653 12.99-6.653 12.99s-1.426 10.136-2.06 10.61c-.633.477 1.636 2.965 1.426 3.803-.313.943-4.592 5.386-6.493 4.91-1.9-.475-4.91-2.693-5.07-4.752s.16-8.87 1.585-10.612c1.426-1.743 8.87-19.325 9.346-20.434.475-1.11 6.81-14.89 6.97-17.266.158-2.376-1.972-7.87-4.212-9.886-4.985-14.673-3.026-23.522 7.22-26.546z"/><path fill="#9c5100" d="M895.092 172.2s3.485.474 5.386-.635c1.9-1.108 4.118-1.584 5.702.634 1.584 2.217 2.693 2.058 2.693 2.058s-2.376 5.86 0 6.495c2.376.633 3.485.633 3.643 1.425.16.792-2.06 2.535-1.426 3.327.634.792 1.743 1.742 1.9 2.376.16.634-1.424 3.327-.95 3.96.476.634 1.902 3.17 2.852 3.17s.317 3.96 3.168 3.008 2.693-3.485 2.693-3.485 3.01-.475 3.802-3.168c.79-2.692 2.692-3.326 2.692-3.326s3.802-2.06-1.267-5.228c0-22.176-14.573-19.8-14.573-19.8s-1.742-3.96-4.593-3.485-3.01 3.802-5.07 3.485c-2.058-.317-2.533-1.743-2.692-1.584-.158.158-1.9 3.326-1.9 4.118 0 .792-5.545-1.11-5.07 3.01.476 4.118 3.168 3.96 3.01 3.643z"/><g fill="none"><path d="M920.753 207.997s-14.098 9.03-13.78 12.197M923.92 209.58s-3.167 3.486-3.325 3.486M928.198 213.383s-6.97 5.702-5.86 9.346M895.25 207.205s-2.058 4.277-1.583 5.702c.475 1.426 3.96 6.812 4.435 10.138.475 3.326 0 5.703 0 5.703M891.608 215.125s.634 5.07 1.584 6.02c.95.95 3.485 5.226 3.802 6.97M890.34 236.192s4.12 2.06 7.92-5.86M904.438 224.788c-.158 0-3.01 7.762 2.06 10.613 5.068 2.852 8.87 2.535 11.087 1.743 2.218-.792 4.594-2.217 4.594-2.217M902.22 234.292s.318 10.455 15.683 20.75M902.854 244.112s-.158 9.187 5.86 13.306M899.686 233.34s-4.594 13.623-8.237 15.05M898.26 243.32s-.157 9.82-1.425 13.306M895.568 259.002s3.168 3.96 6.653 3.643c3.486-.316 4.91-4.435 7.287-3.8 2.376.632 4.594 2.533 10.138 2.058M911.725 265.02s0 8.08 1.426 8.87.793 8.238.793 8.238M892.4 261.22s-.158 7.603-1.11 10.296c-.95 2.693-2.85 7.287-2.533 11.247M882.737 287.197c.792-.317 3.485-2.693 3.485-2.693M887.648 286.247s-6.81 29.146-4.91 46.57M889.232 287.673s-3.485 21.86-1.9 25.978M887.49 287.04c.157 0 13.305.95 13.305.95M902.696 286.247s3.643 1.9 8.712 1.584M901.112 296.86s-.634 37.383-1.584 45.62M920.595 305.413s4.118 32.79 6.494 35.798M912.675 309.532s2.534 28.987 3.96 31.522M876.718 351.19s4.91-1.583 9.345-6.335c5.07 6.81 12.83.317 12.83.317s12.04 8.237 17.425-.95c8.237 5.385 12.355-.793 12.355-.793s3.01 4.593 5.228 4.118M920.753 350.716s6.178 28.987 15.365 37.224M888.915 347.706s.792 24.235 2.218 41.342M887.806 375.11s-.792 15.84-1.743 16.95M878.46 393.642s1.742 6.81 10.454.475c8.712-6.336 8.87 2.376 9.188 3.327.316.95 1.742 7.76 5.068 2.06M910.14 390.158s-1.425 14.097 11.09 3.8c12.513-10.294 14.572-.157 14.89 3.01M910.3 166.813s-1.11 6.97 6.335 6.336c-.95 3.8 1.9 5.068 1.9 5.068M924.08 182.495c.16 0 3.326 2.06-.158 4.594M913.31 188.04s1.583 1.9 3.325 1.425c1.743-.475 4.594 1.742 4.594 1.742s2.375.792 2.692.317M903.646 194.058s5.386 2.06 8.87-6.494M893.667 185.03l3.168.157M858.523 284.924l.248 6.942M852.013 284.41s4.45 7.442 4.08 11.41"/><path stroke-linejoin="round" d="M894.142 188.197h2.85l-2.533 1.11M911.665 299.962s3.328-.35 3.223 5.206c2.125-6.902 6.446-7.066 6.446-7.066"/><path stroke-width="1.699" stroke-linejoin="round" d="M898.102 179.327c.475 0 2.217-.634 2.534-.158.317.474-1.9.79-2.534.157z"/></g></g><g fill="none" stroke="#000" stroke-width="1.887"><path fill="#f7c600" d="M900.3 458.58c66.897-1.86 110.1-50.174 109.637-50.64-.465-.463 8.827-13.47 16.26-11.613 7.433 1.858 18.118 23.693 31.126 28.338 6.504 10.22-1.86 19.512-4.646 21.37-2.787 1.86-15.33 6.97-17.19-.464-1.857-7.432-5.574-6.038-5.574-6.038s-59.464 58.07-128.22 55.748c-71.078.464-129.614-55.748-129.614-55.748l-5.11 5.574s-5.576 6.04-8.363 5.575c-2.787-.463-14.866-8.36-15.795-16.26-.93-7.896 7.433-13.006 7.433-13.006s20.44-15.796 22.764-24.158c4.644-4.646 13.47 3.252 13.47 3.252s53.89 61.787 113.82 58.07z"/><path d="M748.855 422.646s5.528-1.474 7.555.83c2.027 2.302 15.938 15.938 15.938 15.938"/><path d="M761.477 429.095l-5.528 4.146s13.91 2.764 10.78 11.886M1052.34 422.185s-2.764-1.474-7.094 1.75c-4.33 3.225-15.294 15.48-15.294 15.48"/><path d="M1039.9 428.727l5.989 4.607s-12.53.83-9.767 12.714"/></g><path d="M819.664 437.396c-.362 1.052-1.32-.03-2.117.183-2.094.078-3.834 1.444-5.628 2.376l-18.408 10.73c-.62-.202-.473-.703-.322-1.205 1.636-7.662 3.335-15.312 4.925-22.985.264-1.342.69-3.01-.606-3.986-.552-.377.3-1.14.654-.447l9.41 6.71c-.302.885-.837.265-1.372-.094-1.303-1.254-2.873-.096-2.835 1.487-1.12 5.052-2.21 10.11-3.318 15.165 4.164-2.476 8.377-4.874 12.505-7.412 1.474-.656 2.56-2.63 1.03-3.855-.583-.343-1.545-1.28-.586-1.422 2.22 1.584 4.442 3.17 6.664 4.753zM826.275 469.382c-.168.572-.466.698-.922.286l-11.074-6.056c.166-.572.465-.698.92-.286 1 .68 2.635.938 3.364-.255 1.466-2.35 2.7-4.838 4.06-7.252 1.845-3.42 3.77-6.8 5.56-10.248.855-1.222-.1-2.728-1.3-3.25-.404-.218-1-.38-.488-.865.246-.304.77.345 1.13.423l10.616 5.806c-.168.572-.467.698-.923.286-1.002-.68-2.643-.94-3.38.245-1.466 2.35-2.7 4.84-4.06 7.254-1.846 3.42-3.77 6.798-5.56 10.247-.854 1.23.098 2.747 1.315 3.26l.74.405zM868.884 459.388l-3.007 8.443c-1.232-.13-.413-1.707-.796-2.538-.44-3.8-3.242-7.348-7.06-8.16-2.92-.796-6 .707-7.714 3.08-2.59 3.538-4.165 7.854-4.387 12.236-.15 2.49.994 5.046 3.168 6.357 1.724 1.136 3.818 1.593 5.864 1.536.722-2.13 1.586-4.214 2.187-6.38.246-1.41-1.21-2.26-2.376-2.583-.18-.41.27-.912.745-.472 3.678 1.31 7.357 2.62 11.036 3.932-.132 1.358-1.667-.11-2.517.433-1.36.522-1.477 2.157-1.992 3.34-.45 1.258-.897 2.517-1.345 3.775-4.946.35-10.044-.696-14.348-3.186-4.185-2.638-7.015-7.73-6.192-12.723.638-4.274 3.3-8.277 7.242-10.165 3.62-1.924 8.037-1.916 11.796-.392 2.056.693 3.83 1.964 5.42 3.41.965 1.3 2.83 1.303 3.62-.175l.654.233M886.836 488.2c-.022.45-.072.86-.61.61l-12.638-1.914c.023-.45.073-.86.61-.61 1.096.224 2.564.206 3.093-.976.536-1.688.643-3.476.95-5.215.724-4.856 1.496-9.706 2.187-14.567.268-1.048-.09-2.233-1.175-2.64-.614-.29-1.3-.334-1.96-.444.023-.45.073-.86.61-.61l12.638 1.915c-.022.448-.072.858-.61.608-1.1-.227-2.563-.197-3.11.974-.536 1.688-.643 3.476-.95 5.215-.724 4.856-1.496 9.706-2.187 14.567-.266 1.045.094 2.254 1.185 2.648.62.282 1.305.33 1.968.44zM920.954 479.914l-.5 8.962-22.546 1.15c-.138-.548.01-.84.606-.725 1.133.03 2.593-.45 2.737-1.75.102-2.228-.15-4.456-.223-6.682-.243-4.442-.42-8.887-.71-13.325.125-1.322-1.066-2.3-2.32-2.26-.398-.203-1.475.414-1.367-.312-.182-.587.635-.274.98-.386l12.54-.64c.14.55-.008.84-.605.725-1.158-.007-2.665.275-2.985 1.583-.183 1.926.086 3.864.137 5.795.254 4.625.434 9.256.74 13.877-.094 1.21.877 2.28 2.13 2.047 1.83-.09 3.7-.013 5.487-.473 2.507-.668 3.874-3.15 4.56-5.47.45-.628.078-2.192 1.07-2.102l.27-.014M938.53 458.22c-.597.01-.333.772-.485 1.172-.998 7.476-1.944 14.96-2.976 22.432-.252 1.655-.665 3.588-2.298 4.425-.603.213-.072 1.16.48.634l7.53-2.26c-.096-1.267-1.54-.115-2.35-.338-1.728-.002-1.985-2.1-1.745-3.41.104-.886.21-1.772.313-2.657l8.625-2.595c1.1 1.386 2.314 2.69 3.31 4.153.747 1.41-1.07 2.055-2.125 2.327-.493.052-.063 1.085.387.605l11.334-3.397c-.033-1.283-1.676-.08-2.368-.937-2.12-1.594-3.644-3.812-5.4-5.775l-12.23-14.38zm-.062 8.968l6.125 7.312c-2.447.73-4.895 1.46-7.343 2.188l1.218-9.5zM977.1 441.38c1.086 2.02 2.172 4.04 3.26 6.06-1.015.87-1.542-1.15-2.462-1.458-1.506-1.268-3.778-1.508-5.456-.432-.687.357-1.365.73-2.048 1.095 3.277 6.068 6.51 12.16 9.815 18.212.51 1.552 2.417 1.843 3.647.968.476-.345.906-.54 1.06.188-1.664.965-3.482 1.882-5.205 2.828-2.17 1.168-4.34 2.334-6.51 3.5-.51-.53-.168-.802.408-1.005 1.542-.573 2.135-2.445 1.102-3.763-3.206-6.025-6.46-12.026-9.685-18.042-1.796.995-4.09 1.892-4.543 4.132-.51 1.41.24 3.135.24 4.334-.553.574-.698-.21-.954-.623l-2.785-5.18L977.1 441.38zM992.35 432.337c2.08 2.754 4.156 5.51 6.234 8.263 1.445-.92 2.652-2.56 2.218-4.353.167-1.4-1.836-2.988-1.148-3.97.453-.28.72.767 1.095 1.044 2.372 3.146 4.745 6.29 7.117 9.437-.928 1.057-1.6-1.098-2.583-1.33-1.387-.987-3.333-1.478-4.82-.398-1.11.353-1.058.976-.303 1.66 1.67 2.157 3.222 4.41 5.004 6.476 1.09 1.06 2.448-.048 3.372-.784 2.388-1.626 4.485-4.165 4.362-7.21.156-1.33-.68-2.814-.67-3.935.535-.713.685.393.992.755l3.366 6.08-17.544 13.233c-.76-.54-.012-.857.468-1.23 1.638-1.012 1.117-3.078-.088-4.213-3.748-4.936-7.43-9.924-11.226-14.823-.972-1.32-2.765-.625-3.745.294-.406.577-1.043-.58-.272-.664l16.543-12.48 4.53 6.004c-1.05 1.064-1.98-1.307-3.176-1.43-2.173-1.132-4.757-.22-6.553 1.21-1.073.763-2.113 1.574-3.17 2.363"/></svg>