<svg xmlns="http://www.w3.org/2000/svg" xmlns:xlink="http://www.w3.org/1999/xlink" width="750" height="500"><path fill="#fff" d="M0 0h750v500H0z"/><g stroke="#000" stroke-width="1.496"><g fill="#188400" stroke-linejoin="round" stroke-linecap="round"><path d="M301.528 400.744l13.816-11.475s-3.045-6.323-14.05-6.09c-10.303-7.258-28.1-24.352-28.1-24.352l-8.897-24.12s7.26-2.106 8.898-7.96c1.638-5.855-.468-13.114-1.17-13.815-.704-.703-7.962 1.17-10.07 4.214-2.107 3.046-5.386 14.753-10.303 10.772-4.917-3.98.703-8.43.703-8.43s4.917-6.088 4.683-9.367c-.234-3.278-6.555-13.113-7.26-13.347-.702-.234-2.106 12.88-3.98 14.285-1.873 1.407-4.448 7.26-8.195 3.98-3.746-3.277 1.873-8.195 1.873-8.195s10.537-5.62.233-24.12c-3.045 7.963-8.898 13.114-8.898 13.114s-2.81 4.917-5.386.7c-2.575-4.213 3.045-8.194 3.045-8.194s9.133-5.386 9.368-13.348c.233-7.96-11.005-17.094-11.005-17.094s-.702 14.753-4.215 16.626c-3.513 1.873-4.918 4.918-8.898 1.64-3.98-3.28 3.044-10.538 3.044-10.538s12.176-12.176 11.474-19.202c-.703-7.025-1.405-8.195-1.405-8.195s-9.133 5.62-10.303 8.43c-1.17 2.81-4.917 12.878-9.6 9.834-3.28-3.747 2.81-11.006 2.81-11.006s4.448-4.917 4.215-7.025-3.746-8.43-10.538-14.52c-.936-1.872-1.405-9.366-1.405-9.366s-5.15 6.088-4.916 9.367c.234 3.28-.47 9.835.234 17.094.702 7.26-5.62-2.34-5.62-2.34l1.17-23.418s-8.897-10.772-19.668-14.752c3.98 5.854 3.746 11.474 3.746 11.474s-4.45 9.6-4.45 12.177c0 2.575 5.152 13.815 14.753 21.308-14.517-15.688-32.546-10.537-37.933-13.582 2.576 3.046 10.304 14.52 9.367 17.564-.936 3.044 13.816 9.367 13.816 9.367l15.688.235s7.727 5.385 8.43 8.897c.702 3.513-11.24-6.557-15.923-6.322-4.683.234-17.093-1.638-17.093-1.638s7.493 7.024 7.726 10.07c.234 3.043 3.512 10.067 7.962 11.94 4.45 1.874 16.39 2.578 16.39 2.578s5.15-3.045 6.09.233c.935 3.278-6.79 5.855-6.79 5.855s-7.962 0-10.54-2.108c-2.575-2.108-3.043-5.62-14.516-7.025-1.17 9.6 6.322 19.435 6.322 19.435s31.61-2.576 31.376 4.216c-.234 6.79-26.225.7-27.162-1.406-.936-2.107 1.172 13.346 7.26 16.625 6.087 3.278 19.67 1.64 21.308.937 1.64-.703 7.727-1.405 7.727 2.108s-30.908 6.323-31.376 5.386c-.47-.937 4.682 11.943 17.093 11.24 12.41-.703 17.795-4.45 17.795-4.45s7.493-1.406 8.195 1.64c.702 3.044-7.493 4.448-7.493 4.448s-19.67.47-20.37-.47c-.704-.935 4.448 12.413 18.263 12.18 10.303-.94 11.005-5.388 13.113-6.09 3.044-.702 9.6-.702 10.537-.468.936.234 17.328 11.707 17.328 11.707l41.678 42.15zM180.706 215.754s-.47 22.48 10.77 29.27M204.355 233.55s7.493 11.474-5.15 15.688M165.485 241.278s-.936 12.878 21.777 11.943M221.682 252.518s-3.746 9.132-12.878 8.663M230.112 273.124c0 1.17 1.64 13.582-10.302 13.347M172.978 267.972s14.986 9.368 21.776 8.665M176.256 290.686s7.024 7.494 19.903 5.62M238.073 295.838c0 .938-2.34 8.197-7.493 9.134M187.964 312.465s5.62 7.258 20.37 3.278M252.122 309.42s-2.342 11.473-8.43 11.707M266.405 321.83s-4.683 13.817-16.625 11.71M211.38 346.417s4.682 4.216 16.155-.938M198.5 332.368c.937 0 6.79 4.917 20.84-2.576M301.506 383.535s-8.75 3.917-.26 17.106"/></g><g fill="#00cede"><path d="M573.017 219.396s-4.465 63.806-4.68 63.66c-.217-.145-9.313-11.145-9.313-11.145l-28.072 88.008 6.562 19.198-16.344 53.59-13.48-17.096-21.774 8.756 17.48-56.444 16.147-11.603 29.077-86.7-16.137 2.02 40.534-52.244z"/><path d="M635.053 245.714S601.1 299.92 600.978 299.69c-.123-.23-2.974-14.217-2.974-14.217l-55.792 51.754-59.574 57.485-.165-11.84-20.385-2.517 26.963-20.63 13.808-2.275 87.042-78.894-15.192-5.81 60.345-27.032z"/><path stroke-width="1.527" d="M482.678 382.78c.37-.77 30.977-26.923 30.977-26.923"/><path d="M616.913 199.858s-16.595 61.772-16.78 61.588c-.184-.184-7.005-12.723-7.005-12.723L525.825 364.34l2.765 20.098-24.154 44.255-9.957-19.362-23.05 4.427 25.815-46.836 18.07-8.297 68.04-114.142-16.227-1.105 49.785-43.517zM494.85 408.594c0-.368 23.232-40.935 23.232-40.935"/></g><g fill="#ffd600"><g id="a" stroke-linejoin="round" stroke-linecap="round"><path d="M303.496 191.197s-15.07 16.213-22.606 4.11c-7.535-12.1 10.503-15.527 10.732-15.756.23-.226 10.504-3.424 11.416-22.377.914-18.953-22.605-31.284-29.227-32.883-6.62-1.598-26.03-1.598-26.03-1.598s-71.013-17.126-78.32-22.378C162.153 95.06 95.02 82.73 95.02 82.73s-10.73-1.37-9.817 8.22c.914 9.592 9.818 10.733 9.818 10.733s-7.535 5.938-6.62 11.19c.913 5.253 6.62 13.7 18.495 12.33-1.37 18.725 24.66 21.694 24.66 21.694s2.74 26.945 26.717 25.575c5.71 18.496 27.172 19.182 27.172 19.182s10.047 12.56 24.66 13.472c8.448 21.008 26.716 15.07 26.716 15.07s-1.37 13.246 7.078 13.246c-4.34 15.07 11.872 17.125 18.038 14.157 1.6 3.195 7.078 13.014 19.638 6.85 7.534 11.19 19.866 5.937 19.866 5.937s2.74 8.906 13.47 5.48c10.735-3.426-11.64-74.214-11.414-74.67zM256.915 135.936s16.67 1.828 14.614 27.63M193.438 109.22s-31.968 21.922 27.858 28.771"/><path d="M202.57 135.023c-.226.456-15.07 18.04 12.33 23.292-13.014 12.33 11.418 16.44 11.418 16.44s-5.024 13.016 9.59 16.44c-4.794 13.474 10.96 12.79 10.96 12.79s.457 16.44 19.182 16.213c-.23 11.19 12.786 11.874 12.786 11.874s3.883 12.102 16.44 8.45c1.37 8.447 10.047 6.62 10.047 6.62M301.67 260.615s.685-11.646-2.055-13.93M280.89 254.22c.23-.228 5.482-10.73 3.654-12.56M261.71 247.6l14.16-13.93M243.9 233.898c.23-.23 21.463-13.472 21.463-13.472M236.366 220.425c.23-.23 12.101-5.252 12.56-9.59M210.106 205.125s28.77 6.166 33.795-.456M186.13 191.425c1.142 0 43.156 4.567 47.04-.685M158.273 172.47c.685-.228 49.777 9.136 63.706 2.056M134.755 147.125c1.143 0 65.305 15.528 74.895 10.732M110.322 124.747c.456 0 76.494 17.812 86.083 10.503M100.504 103.054c.227 0 72.84 23.748 79.005 17.81"/></g><use xlink:href="#a" transform="matrix(-1 0 0 1 789.3 .5)"/><path d="M441.494 180.034c0-3.448-1.12-10.142-4.764-12.46-4.68-2.433-4.68-3.93-5.054-7.112s7.86-9.17 7.86-9.17-7.486-3.368-10.292-2.994c-2.806.375-8.234.936-8.982 1.685-.75.75-4.866-13.474-2.246-15.72 2.62-2.246 8.046 5.24 8.046 5.24s3.555-8.234-8.982-23.954c4.304-30.69-24.328-37.803-30.877-37.616-5.427-.748-19.462 4.305-21.707 11.04-7.112 2.434-7.486 8.61-7.486 8.61s-14.596 2.62-16.467 15.346c8.607-7.11 14.22.75 14.22.75s7.487 5.24 11.417 5.427c3.928.187-3.743 13.1-5.988 15.345-2.246 2.246-11.603 10.855-11.23 11.416.375.56 7.3 2.62 6.925 5.8-.375 3.183-21.333 12.914-20.21 15.347 5.427-1.685 9.658-.387 9.658-.387.756 5.313-1.36 11.43-4.972 13.412l101.13-.006z"/><path stroke-width="1.495" d="M356.438 98.427l6.78 6.782c1.84.573 12.184 5.63 11.61 9.078"/><path stroke-width="1.495" stroke-linecap="round" d="M374.828 114.288c-.575 3.448-7.356 5.172-7.356 5.172"/><path d="M364.598 89.233l10.344 9.884s1.84 8.505 9.194 7.815 6.322-3.793 6.322-3.793-8.85-6.208-15.86-4.714"/><g><path d="M473.38 268.472s9.195 8.828 9.38 10.667c.184 1.838 2.39 10.48 4.78 11.77 2.39 1.288 11.77 8.827 13.058 11.77 1.286 2.943 9.562 15.448 9.562 15.448s7.724 15.816 12.873 17.104c5.15 1.286 19.68-.92 22.62 6.07 2.942 6.99 2.207 17.103 2.207 17.103s-3.495 3.127-5.15 1.288c-1.654-1.84-4.597 9.194-9.746 6.068-7.014-14.933-25.37-12.496-25.37-12.496s4.037-6.26-12.33-11.78c-25.562 4.415-33.103-22.25-33.103-22.25l-14.55-12.622 25.77-38.14z"/><path d="M458.667 306.357l11.402 5.334-.92-9.746M474.85 304.886l10.483 5.15-4.23-8.46M474.3 291.094l10.297 5.517-4.78-10.665M490.666 341.668s-11.77-15.45-11.586-15.45c.185 0 20.046 3.863 20.046 3.863l-7.356-15.814 18.206 4.78M524.505 344.06s11.586 2.575 11.218 21.885M530.573 341.117s12.506-.735 11.77 18.758"/></g><g stroke-linecap="round"><path d="M314.9 270.865s-9.197 8.828-9.38 10.666c-.184 1.84-3.916 9.34-6.306 10.627-2.392 1.288-10.626 9.59-11.914 12.535-1.287 2.942-9.18 15.83-9.18 15.83s-9.06 13.145-14.21 14.433c-6.292.525-18.342 1.75-21.284 8.738-2.943 6.99 1.607 17.676 5.04 17.676 5.147 2.287 7.497 4.65 9.152 2.81 2.8.83 1.198 3.227 6.348.1-3.914-5.015-3.496-9.862.428-11.133 3.913-1.34 10.287 4.617 10.287 4.617s2.32-10.83 18.69-16.348c25.562 4.415 32.43-16.213 34.22-21.134 4.03-5.486 10.3-6.946 15.448-10.42l-27.34-38.997z"/><path stroke-linejoin="round" d="M330.058 306.514l-11.85 6.228.92-8.405M314.323 304.82l-11.153 5.148 5.124-8.682M314.65 291.25l-9.627 4.175 3.44-7.088M298.06 341.6c1.788-3.578 10.874-14.776 10.69-14.776-.184 0-18.704 3.863-18.704 3.863l6.014-15.594-16.193 3.216M264.536 343.974s-14.065 2.575-8.548 19.978"/><path stroke-linecap="butt" d="M258.468 341.603s-15.365.408-10.053 19.52"/></g><g stroke-linejoin="round" stroke-linecap="round"><path d="M435.947 320.267s.953 11.25-3.814 16.017c21.165 1.335 32.605 22.882 32.796 28.03.188 5.148-6.485 9.153-6.485 9.153s2.29 9.153-6.483 10.678c.19 8.77-5.91 8.77-5.91 8.77s-2.288 7.247-9.343 6.866c-2.1 10.488-12.967 10.297-12.967 10.297s-6.292 15.255-15.635 9.344c-5.91 12.967-21.545 12.395-27.456 0-3.24-.188-10.486 4.196-14.872-8.77-9.724 1.717-13.538-10.677-13.538-10.677s-6.483-.573-8.962-7.056c-7.626-1.525-6.292-9.152-6.292-9.152s-7.626-2.097-7.436-10.487c-6.102-3.624-5.53-10.106-5.53-10.106s4.768-22.5 32.415-27.267c-4.386-6.29-3.814-15.444-3.814-15.444l83.324-.193z"/><path d="M414.972 336.666c0 .382 2.86 12.394-6.483 14.3 18.495-4.957 37.752 41.95 37.752 41.95"/><path d="M421.265 332.28s2.48 9.534-5.72 14.3c29.744 6.485 36.608 37.374 36.608 37.374"/><path fill="none" stroke-width="1.869" d="M427.747 327.513c0-.19 5.148 12.966-5.91 15.254 28.41-2.097 36.418 30.317 36.418 30.317"/><path d="M406.01 342.005s4.768 9.15-4.003 12.012c16.588 1.716 21.927 56.25 21.927 56.25"/><path d="M400.29 345.246s2.67 10.106-5.91 13.156c17.352-9.15 14.11 61.4 14.11 61.4M388.85 345.82s-3.622 10.677 4.387 12.774c-15.826-4.385-12.775 61.21-12.775 61.21"/><path d="M381.414 341.624s-2.48 9.724 7.246 14.68c-16.207-10.295-22.88 54.726-22.88 54.726M407.155 350.586s29.552 28.41 29.363 49.385M360.442 327.704c0 .19-3.623 15.255 6.865 15.636M367.878 333.234c0 .38-2.86 12.774 5.528 13.347M374.55 336.857s-5.147 12.394 7.436 14.11M381.033 351.157c-.19 0-24.596 22.692-28.41 49.004M376.457 348.87c-.19 0-31.08 19.257-33.176 43.855M369.594 345.628s-34.32 20.02-32.795 38.135M361.394 341.242s-25.55 4.767-31.842 32.225"/></g></g><g stroke="none"><path fill="#fff" d="M307.51 165.56s24.708 13.646 42.41 12.91c17.7-.738 44.252-12.172 44.252-12.172s23.6 13.276 42.778 11.434c19.177-1.844 45.728-12.17 45.728-12.17 15.856 79.166-20.282 150.22-88.506 182.183-72.403-33.07-107.558-112.605-86.662-182.184z"/><g fill="#be0a2f"><path d="M316.616 223.093v49.498l14.038 23.67v-73.167h-14.038zM344.692 223.093v89.624l14.038 13.067v-102.69h-14.038zM372.768 223.093v113.3l14.038 7.794V223.093h-14.038zM471.036 223.093v49.512l-14.038 23.875v-73.387h14.038zM442.96 223.093v90.065l-14.038 12.802V223.092h14.038zM414.884 223.093v113.084l-14.038 8.363V223.093h14.038z"/></g><path fill="#002768" d="M307.51 165.56s6.178 3.412 14.566 6.73c8.39 3.32 18.99 6.547 27.84 6.178 17.703-.738 44.254-12.17 44.254-12.17s23.602 13.275 42.78 11.432c19.175-1.844 45.726-12.17 45.726-12.17 3.873 22.988 5.808 34.728 2.397 57.532H302.58c-2.322-22.756-2.198-33.068 4.93-57.53z"/><path fill="none" stroke="#000" d="M485.073 223.092H302.578m4.932-57.53s24.708 13.644 42.41 12.906 44.253-12.17 44.253-12.17 23.6 13.276 42.778 11.432c19.176-1.844 45.73-12.17 45.73-12.17 15.856 79.168-20.284 150.223-88.507 182.184-72.403-33.07-107.56-112.605-86.662-182.184z"/></g><g fill="#00cede"><path d="M37.935 188.24l40.566.185-4.055 9.774 17.7 70.07 21.39-69.887-7.56-10.142H148.2l-9.036 9.774-34.85 100.127 9.036 13.093H72.784l9.035-13.092-34.113-99.757-9.772-10.142zM660.245 190.638h38.537l-6.27 8.666-.184 101.97 8.667 9.59h-40.75l8.113-10.326-.185-101.05-7.928-8.85z"/></g></g></svg>