<svg version="1" xmlns="http://www.w3.org/2000/svg" xmlns:xlink="http://www.w3.org/1999/xlink" width="600" height="360" viewBox="0 0 950 570"><path fill="#d21034" d="M0 0h950v285H0z"/><path fill="#009543" d="M0 285h950v285H0z"/><path d="M0 0l552.813 285L0 570z"/><path d="M0 234h950v102H0z"/><path d="M0 40.502L474.25 285 0 529.496z" fill="#fdce12"/><path fill="#fdce12" d="M0 270h950v30H0z"/><path d="M0 74.255L408.782 285 0 495.745z"/><path d="M115.48 339.524V372c28.254 0 83.7-21.65 83.7-91.356 0-69.706-59.143-82.644-76.834-82.644C104.656 198 50 210.674 50 267.706c0 57.032 53.6 62.313 64.16 62.313 10.562 0 50.168-9.507 45.68-52.28 0 12.145-13.73 37.757-42.51 37.757-28.78 0-46.735-21.388-46.735-42.51 0-21.124 17.426-49.376 47.79-49.376s52.543 26.932 52.543 54.13c0 27.195-21.386 61.784-55.447 61.784z" fill="#fdce12"/><g id="a" fill="#fdce12"><path d="M90.728 297.245l1.683 1.09s13.368-30.497 49.31-52.18c-4.555 2.474-28.615 14.455-50.992 51.09z" stroke="#fdce12"/><path d="M94.193 291.997s-4.158-8.515-.495-12.277c3.664-3.763 1.98 10 1.98 10l1.585-2.277s-2.476-10.397.297-12.575c2.772-2.178 1.386 10 1.386 10l1.683-2.178s-1.783-10.1.89-11.98c2.674-1.882.99 9.505.99 9.505l1.98-2.278s-1.484-9.604 1.783-11.88c3.268-2.28.396 9.108.396 9.108l2.177-2.376s-.99-8.814 1.783-10.794c2.772-1.98.396 8.317.396 8.317l1.98-2.08s-.594-8.217 2.08-10.098c2.673-1.882.197 7.822.197 7.822l2.08-1.98s-.495-8.22 2.87-9.803c3.367-1.584-.593 7.723-.593 7.723l2.277-1.98s.693-9.604 3.565-10.496c2.87-.89-1.287 8.517-1.287 8.517l2.08-1.684s1.088-8.218 4.256-9.208c3.17-.99-1.98 7.525-1.98 7.525l2.08-1.584s2.278-8.218 5.248-9.11c2.97-.89-3.07 7.724-3.07 7.724l1.98-1.386s3.268-7.427 5.942-7.922c2.673-.495-2.97 6.14-2.97 6.14l2.475-1.486s4.257-7.723 5.743-5.347c1.485 2.376-5.94 5.84-5.94 5.84l-2.477 1.387s9.012-4.257 10.1-2.08c1.09 2.18-12.376 3.566-12.376 3.566l-2.178 1.485s9.01-2.476 7.92-.198c-1.088 2.277-10 1.782-10 1.782l-2.08 1.485s9.01-2.178 7.823-.1c-1.19 2.08-10 1.882-10 1.882l-2.18 1.782s8.813-2.278 7.526.396c-1.288 2.673-11.288 2.574-11.288 2.574l-2.475 2.277s9.307-3.17 8.515-.694c-.792 2.476-11.387 3.763-11.387 3.763l-2.375 2.375s10-3.366 7.03-.297c-2.97 3.07-10.198 3.862-10.198 3.862l-2.872 3.465s9.902-5.94 8.515-2.574c-1.386 3.367-11.09 5.645-11.09 5.645l-1.98 2.376s8.912-5.148 8.02-2.276c-.89 2.87-10.396 5.94-10.396 5.94l-1.584 2.18s10.495-6.24 9.604-3.07c-.89 3.168-10.89 5.445-10.89 5.445l-1.288 1.98s9.703-5.545 9.802-2.872c.1 2.673-11.387 5.347-11.387 5.347l-.197-2.278z"/></g><use xlink:href="#a" transform="matrix(-1 0 0 1 238.5 0)"/></svg>