<svg xmlns="http://www.w3.org/2000/svg" width="1260" height="900"><title>Flag of Kosovo</title><path d="M0 .063L.063 900l1260 .063V0z" fill="#244aa5"/><path d="M644.057 288.51c4.684 6.09 8.588 12.182 8.588 19.795-4.685 2.285-10.93 3.046-14.053 6.853 21.08-3.046 25.763 22.84 49.184 12.943 1.56 3.808 4.684 6.853 9.37 5.33l2.34-6.852c9.37-3.045 7.027 12.943 17.176 9.898 4.684 4.568 1.56 12.182 4.684 17.51 0 6.092 3.123 11.42 5.465 16.75 2.343-3.044 3.904-7.612 10.15-6.09 4.684 4.568 7.807 9.136 8.588 14.466-1.562 9.898-3.904 19.034 6.246 24.364v3.045c7.026 3.046 21.86-3.044 21.86 9.137-.782 4.57 4.684.762 6.244 3.046 4.685-1.523 10.15-.762 15.615-.762 3.903 9.138-5.465 15.99-7.807 24.365 3.903 4.568 2.342 12.182 1.56 17.51l-2.34 1.523c6.244 1.523 14.832-.76 21.077 3.046l10.93 4.57c5.466-3.047 11.71-3.808 17.956-3.047 5.465 3.807-1.562 10.66 3.123 13.704 5.465 0 10.93.763 11.71 6.092l.78 1.523c4.685-7.614 16.395-2.284 21.86-8.375 8.588 0 10.15 9.898 14.053 15.227 1.56 13.705-14.053 19.795-9.37 33.5-3.122 6.852-10.148 12.182-14.832 18.273 1.56.76.78 3.045.78 4.568-5.464 3.046-.78 12.182-7.806 12.943-.78 6.092-11.71 3.808-7.807 9.9 7.027 9.135-3.902 15.226-3.902 23.6-3.904 4.57-12.492-4.567-12.492 4.57-5.465 1.52-10.15-4.57-14.052.76-1.562 6.09 3.903 8.376 3.122 14.466 8.588-.76 10.93 7.614 14.053 12.943l8.587 9.136c-8.588 6.852-19.518-.762-29.667 3.045-2.342-1.522 0-4.567-2.342-6.09-3.123-3.045-7.807-3.045-12.49-3.807.78 3.807-6.246 5.33-3.124 9.898 0 1.524 1.56 5.33-1.56 5.33-7.028 2.285-6.247-6.09-12.493-3.045-7.806 3.045-1.56 15.228-12.49 13.705 1.562 10.658-17.175 17.51-4.684 26.647 2.342 2.284.78 5.33 1.56 8.375-7.806 6.852-21.858 4.568-30.446 1.523-7.026-1.523-2.342-10.66-5.465-15.227-2.342-4.57-10.15-7.614-10.15-13.705-4.683-2.284-9.368-3.807-12.49-8.375-12.49 12.182-26.544 23.603-43.72 24.364-7.806 3.807-11.71 19.795-24.2 12.943-4.685 8.375-18.738 0-19.52 11.42-5.463 2.285-3.12 9.898-6.244 13.705-1.56 8.375 0 15.99 7.027 21.318 3.123 6.852-6.245 6.852-2.342 12.943.78 2.285 0 5.33-1.56 6.092-2.343 1.522-3.124 3.045-2.343 5.33-2.342 0-3.123 1.523-4.684 3.045-2.343 4.568-9.37 6.852-14.053 9.898-4.684 1.522-7.807-2.285-10.93-5.33-.78 4.568-4.684 7.613-9.368 7.613-7.027 0-5.465-6.09-10.93-9.136 2.342-7.613-4.684-11.42-2.342-18.272 5.465-4.568 14.834-7.614 12.49-16.75-6.245-7.614-3.902-19.034-10.148-27.41-3.903-3.806-10.15-9.136-7.807-17.51 5.465-6.853 0-14.466-3.123-21.32-1.56-6.09-4.684-11.42-4.684-18.272-9.37-5.33-10.15-20.556-23.42-22.08-9.37 0-10.93-12.18-20.3-11.42-.78-1.522-3.122-3.044-4.683-4.567-7.027 4.57-15.614-1.522-24.202.762-5.465-9.898 4.684-22.84-10.15-28.932v-6.09c1.563.76 2.343-.762 3.124-1.523.78-6.852-10.93-7.614-6.246-15.227-2.342-2.284-5.465-3.046-3.904-7.614-6.245-13.705-25.763-12.182-29.666-25.886 3.123-3.045 3.123-6.09 4.684-9.137-3.123-5.33-3.904-10.658-3.123-16.75 3.123-.76 4.685-4.568 6.246-7.613-3.904-3.046-8.587-6.852-12.49-5.33-7.808-1.522-13.273-7.613-20.3-11.42-1.56-1.523-.78-4.568-.78-6.852 9.368-3.045-1.56-16.75 10.15-15.227 3.122-3.806 9.368-5.33 14.052-8.375 4.684-.76 8.587.762 13.272 2.285 3.903 5.33 10.93 3.045 14.833 7.613 3.903-.76 8.587-3.045 13.272-.76 0-7.615 3.122-12.183 8.587-17.512.78-3.045 5.465-5.33 9.368-6.852 7.026 1.523 15.614 1.523 21.08-3.806 3.12 2.284 6.244-2.284 10.148-2.284 4.684-.762 8.587.76 11.71 3.045.78-9.136 15.614-1.523 18.737-12.182 3.123-6.85-9.37-9.896-8.588-15.987-2.342-6.852 3.123-10.66 5.465-15.228 3.123-1.522 6.246-3.045 10.15-2.284 10.148-3.805 2.34-24.362 17.955-16.748 0 2.284-.78 4.568.78 5.33 5.466 0 6.247-6.853 10.15-9.137 1.562-6.09-2.342-13.705 3.123-18.273 2.342-.76 4.684-1.523 6.246-3.806 0-4.57-2.343-7.614-6.246-10.66-1.56 2.285-4.684.762-7.026 1.523 0-5.33-3.123-9.137-3.903-13.705-2.344-1.523-3.905-3.807-3.125-6.853 3.904-3.807 0-13.704 9.37-11.42 3.122-3.045 9.367-.762 12.49-6.09 9.368-5.33 21.08-5.33 28.105-15.228 3.123.76 6.246-2.284 9.368 0 .78 6.09 8.588 3.807 9.37 9.136" fill="#cfa550" fill-rule="evenodd"/><g fill="#fff"><path d="M276.242 229.333l38.184.354 12.374-37.124 12.728 36.77h37.477l-30.052 23.335 11.313 36.416-31.112-22.628-31.113 22.628L307 251.96zM394.39 187.06l38.183.353 12.374-37.123 12.728 36.77h37.477L465.1 210.394l11.313 36.416-31.113-22.627-31.112 22.627 10.96-37.123zM517.78 165.14l38.183.353 12.374-37.123 12.728 36.77h37.477l-30.052 23.334 11.313 36.416-31.112-22.628-31.112 22.628 10.96-37.123z"/><g><path d="M984.59 229.687l-38.183.353-12.374-37.123-12.728 36.77h-37.477l30.052 23.334-11.314 36.417 31.113-22.627 31.112 22.627-10.96-37.123zM866.444 187.413l-38.184.354-12.374-37.123-12.728 36.77H765.68l30.053 23.334-11.314 36.416 31.112-22.628 31.113 22.628-10.96-37.123zM743.054 165.493l-38.184.353-12.375-37.123-12.727 36.77H642.29l30.053 23.334-11.314 36.416 31.112-22.627 31.113 22.627-10.96-37.123z"/></g></g></svg>