<svg xmlns="http://www.w3.org/2000/svg" width="1260" height="900"><title>Flag of Kosovo</title><path d="M0 .063L.063 900l1260 .063V0z" fill="#244aa5"/><path d="M644.057 288.51c4.684 6.09 8.588 12.182 8.588 19.795-4.685 2.285-10.93 3.046-14.053 6.853 21.079-3.046 25.763 22.84 49.184 12.943 1.561 3.807 4.684 6.852 9.369 5.33l2.342-6.853c9.368-3.045 7.026 12.943 17.175 9.898 4.684 4.568 1.561 12.182 4.684 17.511 0 6.09 3.123 11.42 5.465 16.75 2.342-3.045 3.903-7.613 10.15-6.091 4.683 4.568 7.806 9.136 8.587 14.466-1.562 9.898-3.904 19.034 6.246 24.364v3.045c7.026 3.045 21.859-3.045 21.859 9.136-.78 4.569 4.685.762 6.245 3.046 4.685-1.523 10.15-.762 15.615-.762 3.903 9.137-5.465 15.99-7.807 24.364 3.903 4.568 2.342 12.182 1.561 17.511l-2.342 1.523c6.245 1.522 14.833-.761 21.078 3.045l10.93 4.569c5.466-3.046 11.711-3.807 17.956-3.046 5.466 3.807-1.56 10.659 3.124 13.704 5.465 0 10.93.762 11.71 6.091l.78 1.523c4.685-7.614 16.395-2.284 21.86-8.375 8.588 0 10.15 9.898 14.053 15.227 1.561 13.705-14.053 19.795-9.369 33.5-3.123 6.852-10.149 12.182-14.833 18.273 1.561.761.78 3.045.78 4.568-5.464 3.046-.78 12.182-7.806 12.943-.78 6.09-11.71 3.807-7.807 9.898 7.026 9.136-3.903 15.227-3.903 23.602-3.904 4.568-12.492-4.568-12.492 4.568-5.465 1.522-10.15-4.568-14.052.762-1.562 6.09 3.903 8.375 3.122 14.465 8.588-.761 10.93 7.614 14.053 12.943l8.588 9.137c-8.588 6.852-19.518-.762-29.667 3.045-2.342-1.523 0-4.568-2.342-6.09-3.123-3.046-7.807-3.046-12.491-3.808.78 3.807-6.245 5.33-3.123 9.898 0 1.523 1.561 5.33-1.561 5.33-7.027 2.284-6.246-6.091-12.492-3.046-7.807 3.045-1.561 15.228-12.49 13.705 1.56 10.658-17.176 17.51-4.685 26.647 2.342 2.284.78 5.33 1.561 8.375-7.807 6.852-21.86 4.568-30.447 1.523-7.026-1.523-2.342-10.66-5.465-15.227-2.342-4.569-10.149-7.614-10.149-13.705-4.684-2.284-9.369-3.807-12.49-8.375-12.492 12.182-26.545 23.603-43.72 24.364-7.807 3.807-11.71 19.795-24.202 12.943-4.684 8.375-18.737 0-19.518 11.42-5.464 2.285-3.122 9.898-6.245 13.705-1.561 8.375 0 15.989 7.026 21.318 3.123 6.852-6.245 6.852-2.342 12.943.78 2.284 0 5.33-1.561 6.09-2.342 1.523-3.123 3.046-2.342 5.33-2.342 0-3.123 1.524-4.684 3.046-2.343 4.568-9.369 6.852-14.053 9.898-4.684 1.522-7.807-2.285-10.93-5.33-.78 4.568-4.684 7.613-9.368 7.613-7.027 0-5.465-6.09-10.93-9.136 2.342-7.613-4.684-11.42-2.342-18.272 5.465-4.568 14.834-7.614 12.491-16.75-6.246-7.614-3.903-19.034-10.149-27.41-3.903-3.806-10.15-9.136-7.807-17.51 5.465-6.853 0-14.466-3.123-21.319-1.561-6.09-4.684-11.42-4.684-18.273-9.369-5.329-10.15-20.556-23.421-22.08-9.368 0-10.93-12.18-20.298-11.42-.78-1.522-3.123-3.044-4.684-4.567-7.027 4.568-15.614-1.523-24.202.761-5.465-9.898 4.684-22.84-10.15-28.932v-6.09c1.563.761 2.343-.762 3.124-1.523.78-6.852-10.93-7.614-6.246-15.227-2.342-2.284-5.465-3.046-3.904-7.614-6.245-13.705-25.763-12.182-29.666-25.886 3.123-3.045 3.123-6.09 4.684-9.137-3.123-5.33-3.904-10.658-3.123-16.75 3.123-.76 4.685-4.568 6.246-7.613-3.904-3.046-8.587-6.852-12.491-5.33-7.807-1.522-13.272-7.613-20.298-11.42-1.562-1.523-.781-4.568-.781-6.852 9.368-3.045-1.561-16.75 10.15-15.227 3.122-3.807 9.368-5.33 14.052-8.376 4.684-.76 8.587.762 13.272 2.285 3.903 5.33 10.93 3.045 14.833 7.613 3.903-.761 8.587-3.045 13.272-.761 0-7.614 3.122-12.182 8.587-17.511.781-3.046 5.466-5.33 9.369-6.853 7.026 1.523 15.614 1.523 21.079-3.806 3.122 2.284 6.245-2.284 10.149-2.284 4.684-.762 8.587.76 11.71 3.045.781-9.136 15.614-1.523 18.737-12.182 3.123-6.852-9.369-9.897-8.588-15.988-2.342-6.852 3.123-10.66 5.465-15.228 3.123-1.522 6.246-3.045 10.15-2.284 10.148-3.806 2.341-24.363 17.955-16.75 0 2.285-.78 4.569.781 5.33 5.465 0 6.246-6.852 10.15-9.136 1.56-6.091-2.343-13.705 3.122-18.273 2.342-.761 4.684-1.523 6.246-3.806 0-4.569-2.343-7.614-6.246-10.66-1.561 2.285-4.684.762-7.026 1.523 0-5.33-3.123-9.136-3.903-13.704-2.343-1.523-3.904-3.807-3.124-6.853 3.904-3.807 0-13.704 9.369-11.42 3.123-3.045 9.368-.762 12.49-6.091 9.37-5.33 21.08-5.33 28.106-15.227 3.123.761 6.246-2.284 9.368 0 .781 6.09 8.588 3.807 9.369 9.136" fill="#cfa550" fill-rule="evenodd"/><g fill="#fff"><path d="M276.242 229.333l38.184.354 12.374-37.124 12.728 36.77h37.477l-30.052 23.335 11.313 36.416-31.112-22.628-31.113 22.628L307 251.96zM394.389 187.06l38.184.353 12.374-37.123 12.728 36.77h37.477l-30.053 23.334 11.314 36.416-31.113-22.627-31.112 22.627 10.96-37.123zM517.779 165.14l38.184.353 12.374-37.123 12.728 36.77h37.477l-30.052 23.334 11.313 36.416-31.112-22.628-31.113 22.628 10.96-37.123z"/><g><path d="M984.59 229.687l-38.183.353-12.374-37.123-12.728 36.77h-37.477l30.052 23.334-11.314 36.416 31.113-22.627 31.113 22.627-10.96-37.123zM866.444 187.413l-38.184.354-12.374-37.123-12.728 36.77H765.68l30.052 23.334-11.314 36.416 31.113-22.628 31.113 22.628-10.96-37.123zM743.054 165.493l-38.184.353-12.375-37.123-12.727 36.77H642.29l30.052 23.334-11.314 36.416 31.113-22.627 31.113 22.627-10.96-37.123z"/></g></g></svg>