<svg xmlns="http://www.w3.org/2000/svg" xmlns:xlink="http://www.w3.org/1999/xlink" width="750" height="500"><path fill="#fff" d="M0 0h750v500H0z"/><path fill="#d42e12" d="M184.013 105.044v-54.44h17.75l11.61 41.43 11.452-41.43h17.83v54.44h-11.252V61.138l-11.848 43.906h-12.283l-12.006-43.906v43.906h-11.253m92.56-43.536L268.49 84.68h16.207l-8.123-23.172M269.6 50.605h13.868l21.04 54.44h-12.6l-3.962-11.2H265.32l-3.843 11.2h-12.64l20.763-54.44m67.004 54.44h-12.006v-20.29l-21.2-34.15H318.1l12.48 23.468 11.53-23.468h13.71l-19.216 34.15v20.29M370.76 77.88c0 5.987 1.426 10.644 4.28 13.97 2.852 3.302 6.84 4.952 11.965 4.952 5.177 0 9.206-1.65 12.085-4.952 2.88-3.326 4.32-7.983 4.32-13.97 0-5.987-1.44-10.63-4.32-13.933-2.88-3.326-6.908-4.99-12.085-4.99-5.125 0-9.113 1.652-11.966 4.953-2.854 3.302-4.28 7.958-4.28 13.97m-12.244 0c0-8.796 2.562-15.768 7.687-20.918 5.15-5.174 12.085-7.76 20.802-7.76 8.717 0 15.65 2.586 20.802 7.76 5.178 5.174 7.767 12.147 7.767 20.918 0 8.77-2.59 15.744-7.767 20.918-5.15 5.174-12.085 7.76-20.802 7.76-8.717 0-15.65-2.586-20.802-7.76-5.125-5.174-7.687-12.147-7.687-20.918m78.653 27.164v-44.72h-17.317v-9.72h46.518v9.72h-17.195v44.72H437.17m48.18 0v-44.72h-17.315v-9.72h46.518v9.72h-17.196v44.72H485.35m36.098 0v-54.44h42.358v9.463h-30.51V71.67h27.894v9.315h-27.895v14.007h31.937v10.052h-43.784"/><g id="a"><path fill="#dfdfdf" d="M220.568 144.814c-5.075.714-8.9 2.108-14.01 5.182-1.644 1-3.18 1.715-3.466 1.608s-.608-.965-.75-2c-.144-.966-.466-2.074-.716-2.396-.715-1-1.394-.18-2.716 3.18-.607 1.61-1.286 3.146-1.465 3.36-.643.786-1.5.5-2.538-.786-1.036-1.322-2.608-1.715-2.966-.75-.106.285-.035 1.43.18 2.573.643 3.36-.393 3.86-3.324 1.608-2.537-1.966-3.502-2.36-4.467-1.86-1.002.538-.966 1.288.32 4.254 1.108 2.574 1.18 4.432.108 2.93-.286-.392-1.61-1.286-2.967-1.93-1.357-.678-3.465-1.786-4.716-2.5-1.25-.68-2.966-1.502-3.824-1.823-1.573-.536-10.078-1.787-10.793-1.537-.214.07.965 1.036 2.573 2.18 3.538 2.43 10.33 8.65 10.33 9.435 0 .465-.395.536-2.86.322-3.253-.286-3.18-.394-2.467 3.002.25 1.18.286 1.965.072 2.18s-1.322.143-3.002-.215c-1.465-.285-2.752-.535-2.895-.535-.536 0-.286 2.823.465 5.218.715 2.25.715 2.466.143 2.86-.715.535-1.537.285-6.97-2.217-3.216-1.5-4.038-1.75-5.79-1.68-1.107.036-2.43.286-2.965.572l-1 .5 2.323 2.502c2.752 3.002 5.54 7.005 5.968 8.613.788 2.68-1.857 3.145-10.756 2.002-4.86-.644-8.148-.536-9.756.32-1.25.645-5.54 4.647-5.54 5.183 0 .18 2.073.43 4.61.536 5.325.215 9.185 1.144 12.366 2.895 3.002 1.643 2.93 2-.322 2-2.716 0-4.288.43-5.718 1.573-.68.536-.68.572 0 1.322 1.036 1.144 3.038 2.038 5.504 2.43 1.25.215 2.323.43 2.394.537.072.07-1.036.32-2.466.536-3.716.607-8.934 2.144-11.472 3.43-2.287 1.144-2.394 1.287-2.86 4.61l-.213 1.36 1.144-.25c1.787-.394 11.008-.61 12.51-.287 2.286.5 1.643 1.002-1.895 1.43-4.433.537-6.935 1.037-8.114 1.644l-.93.5 1.93.93c1.073.536 3.54 1.287 5.504 1.68 8.363 1.715 9.4 2.68 2.395 2.323-5.754-.286-8.04-.072-7.862.822.178 1 3.716 2.715 7.397 3.644 2.252.572 1.394 1-2.287 1.144-3.324.107-5.825.965-6.862 2.358-.82 1.037-.32 5.754.645 6.362.214.107.643-.036.965-.322.32-.322 1.786-1.108 3.252-1.823 2.752-1.322 2.787-1.322 6.72-.714 1.678.25 3.144 1.643 4.394 4.216.608 1.215 1.86 3.145 2.788 4.288s2 2.466 2.36 2.93c.678.823.678.86-.073 2.36-.392.857-.82 1.822-.928 2.144-.643 2.216-11.58 1.465-20.192-1.394-3.43-1.143-8.506-3.645-10.793-5.325l-1.75-1.287v1.393c0 3.43 2.68 9.257 5.36 11.65l1.715 1.538-1.75 3.36c-2.18 4.18-2.324 5.79-.645 7.47.608.642 1.037 1.357.894 1.643-.106.285-1.036 1-2.072 1.572-3.216 1.822-3.073 1.643-1.75 2.322.642.357 2.393.715 3.823.822 1.573.143 2.824.393 3.04.68.892 1.07-.966 3.43-4.183 5.36-.536.32-.143.464 2.18.822 1.573.214 3.86.43 5.075.464l2.216.072-.75 1.358c-.894 1.608-2.574 3.36-3.968 4.217l-1 .643 1.108.143c.607.108 1.858.036 2.787-.107 2.68-.43 5.933-.357 6.648.143 1.107.82.178 2.68-2.61 5.36l-2.43 2.36 1.573.25c2.966.428 6.72-.037 8.72-1.073 1.037-.5 1.93-.894 2.002-.822.5.536-1.43 5.718-2.68 7.147-.287.322-.43.715-.287.894.144.143 2.074.25 4.254.25 3.11 0 4.29-.143 5.218-.643.68-.322 1.286-.608 1.358-.608.036 0 .107.75.107 1.68 0 1.215-.25 1.965-.93 2.86l-.892 1.178h1c2.323-.036 7.827-1.822 9.793-3.252 1.286-.892 1.393-.857 1.393.466-.034 1.5-.82 3.68-1.643 4.61-.75.858-.57.858 2.93-.036 3.146-.786 5.933-1.894 7.363-2.895 1.322-.965 1.465-.857 1.18.644-.322 1.786-1 2.822-2.36 3.537-.607.286-1.036.643-.93.714.287.323 7.828-.856 9.544-1.464.857-.286 1.858-.822 2.215-1.143.607-.537.643-.537.643.32 0 .502-.393 1.645-.894 2.574s-.894 1.752-.894 1.86c0 .285 1.965-.323 4.253-1.324 1.25-.57 2.715-1.036 3.25-1.036 1.216 0 2.645 1.108 3.753 2.86.608.964 1.537 1.68 3.324 2.572l2.502 1.25.142-1.465c.178-1.322 6.075-16.833 6.647-17.44.25-.25 7.433 4.68 14.366 9.828 4.18 3.11 13.795 12.65 16.618 16.51 7.755 10.58 10.293 17.87 10.33 29.664 0 6.504-.43 9.97-1.93 16.225-3.29 13.366-10.937 26.09-19.622 32.522-5.718 4.253-12.472 5.682-25.052 5.29-15.225-.466-24.73-3.646-31.772-10.544-5.218-5.146-8.648-11.865-10.078-19.727-.214-1.287-.393-4.432-.393-6.97 0-8.72 1.966-14.76 6.254-19.37 3.718-3.967 7.685-6.147 12.76-6.933 4.824-.75 10.328.858 13.723 3.967 2.36 2.18 2.466 3.217.608 6.933-1.643 3.324-1.786 4.182-.75 5.218.965.965 2.967.93 5.254-.18 3.324-1.535 4.968-5.288 4.682-10.506-.286-4.68-2.466-7.72-7.398-10.22-4.79-2.395-7.22-2.86-14.69-2.824-6.18 0-6.825.07-9.827 1-6.003 1.823-9.648 4.253-12.47 8.185-6.434 9.077-9.972 24.66-7.9 34.737 1.61 7.684 5.897 16.01 11.865 22.873 10.08 11.65 23.445 16.976 42.636 16.976 14.225 0 24.303-2.717 34.31-9.222 11.15-7.22 18.37-16.582 24.48-31.7 1.645-4.145 2.288-6.72 2.574-10.292.107-1.752.393-3.18.715-3.54 1.43-1.643 1.93-6.324 1.035-9.362l-.536-1.715 1.107-.966c1.966-1.752 1.75-5.54-.464-8.077l-1.037-1.18 1.18-1.18c1.536-1.57 2.215-4.538 1.93-8.47-.18-2.715-1.394-6.503-2.073-6.503-.715 0-.25-.965.786-1.573 1.607-.964 2.465-2.572 2.465-4.716 0-4.325-1.787-10.972-3.11-11.472-.536-.215-.643-1.18-.142-1.18.822 0 1.93-3.36 2.108-6.397.216-3.824-.535-6.754-2.107-8.327l-1.037-1.072 1.108-2.287c.965-1.967 1.108-2.54.93-4.183-.394-3.788-4.575-10.793-7.72-12.866-1.144-.75-1.465-1.178-1.465-2 0-2.394-1.967-5.933-5.255-9.47-3.43-3.646-4.54-5.29-5.254-7.863-.5-1.644-1.035-2.502-2.536-4.003-1.75-1.75-5.468-3.967-7.684-4.54-.464-.106-.715-.463-.715-1.035-.035-2.288-2.86-6.112-5.36-7.256-1.25-.572-1.43-.786-1.43-1.822 0-1.466-1.215-2.93-4.074-4.897-2.715-1.822-7.004-2.93-13.615-3.502-13.903-1.144-20.085-3.467-26.625-9.97-3.967-3.932-5.504-6.577-6.934-11.795-1.18-4.324-1.25-8.362-.178-11.507.75-2.215 3.145-6.718 3.573-6.718.144 0-.07 1.18-.463 2.573-.93 3.395-1.037 8.97-.18 11.686 1.18 3.79 3.504 6.613 6.756 8.293 2.216 1.143 3.288 1.393 7.076 1.75 3.93.358 6.575 1.144 7.86 2.324 1.93 1.787 6.256 2 10.4.572 1.073-.394 3.075-.823 4.47-.93l2.572-.25 3.323 2.322c3.43 2.36 18.263 10.722 20.872 11.758 4.753 1.894 10.114.572 12.365-3.038 1.823-2.894.18-5.61-7.576-12.615-6.29-5.647-7.79-7.577-8.613-10.865-.358-1.393-1.5-4.43-2.61-6.72-2.608-5.61-2.644-6.574-.178-9.148.965-1.036 2.037-2.465 2.323-3.216.572-1.322.822-4.324.43-4.753-.216-.18-2.61.32-3.86.786-.394.144-.465-.392-.358-2.858.07-1.93-.072-3.467-.322-4.146l-.464-1.072-1.287 1.25c-1.322 1.288-2.287 1.61-2.716.93-.106-.178-.357-1.215-.535-2.287-.358-2.252-1.787-5.754-2.145-5.325-.143.143-.464.893-.714 1.608-.215.75-.536 1.358-.715 1.358-.142 0-.392-.858-.535-1.894-.393-3.073-.822-4.36-1.787-5.253-.786-.75-1-.786-1.25-.357-.18.286-.358.93-.358 1.43 0 1.572-1 4.753-2.323 7.433-2.574 5.147-5.004 4.646-10.007-1.965-2.86-3.788-3.288-4.967-2.502-6.682 1.894-4.003 9.828-9.4 17.298-11.723 1.393-.428 2.537-.893 2.537-1.036 0-.68-1.787-2.288-3.36-3.04-1.786-.82-3.86-1-6.825-.606z"/><path d="M146.735 215.84c2.27-1.26-8.74-1.063-11.07-1.038-1.575.475-3.023 1.162-3.507.938-.484-.225-.095-1.985.396-4.976 1.733-1.423 3.528-2.185 5.438-2.742 1.82-.646 3.428-1.07 5.506-1.733 1.992-.24 2.637-.148 5.472-.766-3.325-.53-5.686-.123-8.993-3.605 1.337-.805 1.863-1.822 3.47-2.208 1.607-.344 2.172-.29 3.492-.29 2.53 0 3.27.463 1.576-.758-1.694-1.22-4.927-2.605-8.557-3.265-3.19-.55-8.03-.568-10.363-.662 1.07-2.117 3.062-3.354 4.272-4.674 1.98-2.42 6.53-2.365 13.35-1.265 10.78 1.32 11.44 0 4.62-8.58l-4.336-4.772 2.75-1.092 3.003-.08c2.86.66 6.502 2.863 8.702 3.743 3.52 1.54 3.328.088 2.228-2.77-.88-2.42-.242-2.41-.583-5.087 1.76 0 6.4 1.76 6.4.66 0-1.32-.608-2.203-.95-5.24 1.54 0 4.993.415 5.753.25s-1.057-1.913-2.907-3.57l-4.76-4.27-6.728-4.535 9.98 1.25c3.08 0 7.954 3.346 10.54 4.693 1.29.675 2.518.884 3.295 1.698 1.777.66-.36 2.422.93.8.656-1.18-2.386-4.67-1.973-6.493 2.18-4.16 7.07 3.456 8.133 2.225 2.035-.22-.996-4.958.618-5.92 2.303-1.37 3.614 3.34 4.854 2.507 1.24-.833 2.042-6.87 4.002-7.627 1.96-.76 1.16 6.16 2.48 5.225 2.86-1.98 9.05-5.865 14.143-6.57 2.545-.352 5.51-1.084 8.023-.632 2.51.453 4.88 2.18 5.563 4.288-3.38.987-3.915 1.078-7.435 2.618-3.52 1.32-8.14 4.62-10.34 6.82-3.74 4.18-3.74 4.62.44 9.9 5.28 7.26 7.92 6.82 10.78-1.54 1.21-3.3.833-5.396 1.407-6.52.332.242 1.536.74 2.26 1.874.635.99 1.2 5.37 1.194 6.514.53-.322 1.024-1.76 1.52-4.068 1.322 2.55 1.7 3.39 2.14 4.6s.06 4.42 1.38 4.42c.77 0 1.704-1.487 3.343-2.935 1.415 2.658 1.213 5.98.648 8.498 1.108-.36 3.38-1.135 4.485-1.238.344 1.325.322 2.92.054 4.125-.803 1.725-1.052 3.21-2.812 4.53-2.64 2.2-2.64 3.52 0 8.58 1.76 3.3 3.08 7.04 3.08 8.58 0 1.32 3.96 5.72 9.02 9.9 6.16 5.28 8.36 8.58 7.48 11-2.2 5.28-9.02 6.82-15.18 3.52-2.86-1.54-9.24-5.06-14.3-7.92-3.41-1.87-5.655-3.908-7.735-5.215-3.342-.045-5.89.262-8.765 1.696-4.4.66-7.92.22-8.8-1.1s-4.4-2.42-7.7-2.42c-8.8 0-14.56-5.82-14.906-14.34-.133-3.705.367-6.044 1.596-10.214-4.857 7.67-5.142 11.207-3.398 17.974 2.1 9.446 11.867 21.54 33.427 21.76 4.07.11 7.48 1.264 11.33 2.035 2.46 1.457 7.708 4.247 6.642 7.745 3.992 1.065 6.732 5.203 6.79 8.6 9.8 2.932 11.098 8.68 11.098 9.78s2.42 4.4 5.5 7.26 5.12 7.484 4.742 10.034c3.41 1.76 4.632 4.33 6.706 7.126 1.758 3.57 4.685 8.01.367 13.348 4.52 1.676 4.323 14.477.713 16.33 2.656 1.826 3.226 6.28 3.792 12.342.025 2.04-.634 3.866-3.873 5.48.863.435 1.55 1.63 2.02 3.193.47 1.563.722 3.494.72 5.4-.003 1.904-.262 3.785-.816 5.247s-1.403 2.508-2.587 2.743c4.036 2.636 3.938 9.61.458 10.328 1.95 3.56 1.338 10.556-1.15 11.93.545 7.18-2.3 12.275-3.805 16.07-3.012 7.59-6.98 14.025-11.953 19.43-4.974 5.403-10.955 9.775-17.995 13.24-15.4 7.48-41.58 7.26-56.54-.44-13.2-6.82-23.98-21.56-26.18-35.86-1.98-12.76 4.18-31.46 12.1-37.4 12.54-9.24 36.96-6.16 40.48 5.06 1.76 5.72-.44 12.54-4.62 14.08-5.5 1.98-7.7-.66-4.62-5.5 2.2-3.74 1.98-4.84-1.54-7.7-10.56-7.7-26.4-.88-30.14 12.76-4.62 17.6 2.64 35.42 17.38 42.68 12.32 6.16 37.18 6.6 45.98 1.1 17.16-10.78 27.94-40.04 22.66-62.04-2.86-12.1-14.74-27.06-30.14-37.4l-9.68-6.82-3.52 9.02c-1.87 4.73-3.52 7.357-3.075 10.345-2.858-1.743-3.89-1.428-5.862-3.286-.88-1.98-2.503-4.2-4.923-3.54-.55.166-3.885 2.13-7.205 2.58 1.144-2.672 2.303-2.748 2.167-5.413-1.78 2.27-6.88 2.55-13.492 3.25 5.173-2.96 4.19-3.54 4.576-6.03-1.98 2.24-6.92 3.637-12.636 4.665 2.947-3.08 2.443-4.026 2.732-6.83-2.898 2.852-9.956 4.445-12.574 4.277 2.293-2.668 2.33-2.633 2.285-5.932-2.573 2.02-7.328 1.735-11.58.983 2.62-2.807 3.423-5.903 3.573-8.255-3.448 3.205-9.095 2.514-12.785 1.902 2.89-2.563 4.64-4.007 5.54-5.615 1.045-2.022.34-2.682-3.18-2.682-2.42 0-4.094 1.552-7.666.184 5.178-2.047 6.584-8.665 7.747-8.8 4.633-.53-6.445 8.433 3.472 6.546 2.476-.356 3.603-.313 5.44-.208-1.287 1.89-1.507 1.97-2.615 3.378-1.245 1.835-1.493 4.227-4.44 5.773 2.502.016 4.546.244 6.202-1.07s1.673-1.85 5.163-4.362c.476 2.63.24 3.158-.017 4.902-.446 3.018-1.03 3.812-1.937 6.2 3.79.878 6.12-.318 6.78-1.953.99-1.034 2.404-3.666 4.347-4.198.79 2.37-.05 2.462-.34 4.47-.827 2.26-1.032 3.868-1.74 5.988 3.846-1.094 6.208-2.48 8.642-5.41 4.18-3.52 4.18-3.52 2.86 1.1-.544 3.08-.412 3.77-1.53 6.427 3.704-.645 7.14-2.357 9.01-5.327 2.2-3.3 2.42-3.08 1.54 1.1-.124 2.812.364 3.267-.328 5.987 3.362-.71 5.828-2.027 7.588-4.887 2.2-3.3 2.42-3.08 1.54 1.1-.55 2.64.46 3.184-1.098 5.94 3.8-1.62 3.958-1.21 5.278-3.3.88-1.76 2.33.59 4.09 3.89 1.43 2.53 2.592 2.724 3.658 2.847.26-1.93 1.052-3.217 2.812-7.397 1.98-4.84 3.3-8.8 3.08-9.24-.44-.22-5.94-3.08-12.1-6.38-6.38-3.08-11.66-6.6-11.66-7.92 0-1.1-1.1-1.98-2.64-1.98-3.52 0-12.76-8.8-12.76-12.1 0-1.54-1.98-5.28-4.4-8.14-3.3-4.4-7.04-5.94-16.94-7.04-7-1.237-12.87-3.08-16.5-5.06-1.816-.95-2.064-1.753-3.46-2.295-.054 1.155.71 4.715 3.24 7.135 1.43 1.54 2.895 1.874 4.196 2.678-1.223 1.246-2.105 3.592-3.095 5.242-2.2 3.52-2.2 4.62.88 5.72 2.86 1.1 2.86 1.76.44 3.3-.99.77-2.48 1.3-3.524 1.973 1.636.406 2.914.51 6.034-.288 3.96-2.398 4.263-1.69 2.55.736-1.402 2.117-2.35 4.482-4.39 6.124 2.335.125 3.4-.294 5.49-1.064 2.2-.88 4.063-1.47 2.552 1.945-1.437 2.387-.644-1.284-2.007 1.866-2.35.452-7.684-.108-11.585-1.05 3.51-1.926 4.794-3.43 5.234-4.42.66-1.98-1.235-1.862-2.995-1.862-.77 0-3.315.308-5.217-1.802 1.58-.86 3.982-1.64 5.428-3.453-4.51-2.6-1.89-6.542-.838-8.414.87-1.497.94-2.29 1.952-3.842-1.388-.1-3.415-2.73-4.405-4.49-2.09-3.74-2.997-7.293-2.694-10.35 2.982 2.3 4.138 3.04 5.995 3.964 3.152 1.884 9.917 4.255 15.894 5.16 5.976.903 11.165.786 11.165-1.414s2.392-2.017.662-3.776c-3.24-3.294-4.982-6.25-5.99-9.165-1.887-2.283-4.268-2.45-7.424-2.484-1.674.895-4.94 1.675-6.448 3.853-1.418-.678-2.15-5.047-1.43-7.127.308-.894 3.95-2.605 6.006-2.677 2.055-.072 3.146.513 4.955-.253-2.13-.614-3.294-.578-5.513-1.684-1.973-.984-3.886-1.568-3.627-2.82.32-1.55 11.233-.493 12.773-.438 1.265.055-2.386-1.46-5.076-1.8-1.765-.633-5.7-.386-9.68-3.34 2.937-1.887 4.484-1.093 6.892-1.982m9.065.362c-.887 1.866-11.494 1.358-8.544 2.13 0 0 8.193 1.508 10.904 3.836.48 2.06-2.38 2.973-2.38 2.973l-10.39-1.107c-.11 1.422 10.1 1.96 9.75 4.096-.115.692.565 1.997-2.834 1.61-3.094.142-6.89-.173-9.188 1.016-1.67.832-1.87 2.683-1.346 4.267 1.51-1.233 3.916-2.247 5.236-2.687 2.818-.365 4.857.214 6.762 1.03s3.23 1.686 4.885 4.945c1.1 2.86 4.62 6.16 7.92 7.48 3.52 1.1 9.144 4.113 11.66 7.48 2.79 3.732 4.87 6.757 11.59 10.638 6.6 5.94.9 3.83 3.726 4.263 7.576 1.162 11.745 2.918 13.065 4.678 1.54 1.76 5.06 3.74 7.92 4.4 3.08.88 5.5 2.42 5.5 3.52 0 1.32 1.54 2.2 3.52 2.2 4.84 0 26.4 22.66 30.36 31.68 7.48 16.94 8.8 23.1 8.8 39.6-.22 11-1.54 20.9-3.52 25.52-4.4 10.34-23.163 31.116-28.223 31.116-.895.252-.533.16-1.594.332-.486.726-.764.796-2.483 1.6-2.498 1.248-5.7 1.857-9.606 1.97-3.907.11-8.515-.276-13.826-1.02-5.31-.745-10.518-1.847-14.397-3.134-3.88-1.287-5.307-1.983-6.432-3.17-.336-.355-1.23-.817-1.08-2.363-.798.727-2.653.555-4.87-1.452-1.8-1.63-3.532-2.387-2.63-4.025-2.38-.25-2.787-1.26-4.662-3.896-1.234-1.735-2.636-3.268-2.036-5.72-1.64.325-2.452-1.97-3.39-4.142-.825-1.905-2.293-4.5-.466-5.44-2.1.053-1.705-2.515-1.96-4.3-.256-1.787-.783-4.56 1.335-5.046-2.17-.686-1.24-2.927-.914-4.937.46-2.82.718-4.345 2.518-4.718-1.61-.72-.628-3.364.433-6.974.85-2.894 2.8-3.95 5.042-3.47-2.145-1.635 1.77-4.304 2.613-5.006 2.338-1.952 4.997-2.676 5.52-1.408-.226-2.375 8.067-2.584 11.24-2.226 3.172.358 5.96 1.788 8.93 4.208 4.62 3.74 4.84 4.84 2.42 8.8-2.86 5.06-.66 6.16 3.52 1.98 4.4-4.4 3.08-9.9-3.3-14.96-4.84-3.96-8.14-4.62-16.5-3.96-14.74 1.54-20.68 6.16-24.86 19.8-6.6 22.66 2.42 45.1 22.22 54.78 8.8 4.18 14.08 5.28 28.38 5.28 20.9-.22 33.88-5.28 45.98-18.7 7.48-8.14 15.84-29.405 13.2-33.365-4.295-1.827 0-1.835 1.32-1.835 1.76 0 2.42-9.115-.857-10.772 6.54.024 3.076-8.147-.86-9.755 3.524-.083 5.268-3.53 5.373-7.175.105-3.646-1.43-7.49-4.46-8.373-2.285-.665-.18-1.272 1.964-1.76 2.558-.582 3.54-.964 3.226-5.52-.38-2.987-1.43-7.98-3.595-8.9-2.228-.947-5.698-1.222-7.633-1.395 2.35-.758 4.59-1.198 6.403-1.35 3.96-1.65 5.295-9.658 1.735-11.9-3.56-2.243-12.523 2.165-12.994.346 1.747-1.912 7.16-2.382 9.564-4.13 2.942-2.893 5.655-5.655.815-12.475-2.42-3.74-2.035-4.667-4.837-5.7-3.714-.15-11.68 4.85-17.774 4.655 2.79-2.323 12.284-4.187 15.313-6.384 3.03-2.197.73-5.61-2.382-9.512-3.74-3.3-5.28-3.52-10.12-1.32-3.3 1.32-8.523 2.694-14.183 3.642 2.197-2.268 12.203-4.742 14.403-6.502 4.18-3.08 4.18-4.37.22-8.77l-5.924-2.437-6.615 3.508c-4.84 2.2-12.33 4.812-12.33 4.152 0-.44 6.83-3.492 10.35-5.472 3.74-1.98 6.018-4.84 6.018-6.38 0-5.5-5.075-6.23-12.853-.81-3.96 2.31-13.846 5.325-14.437 4.213-.732-1.378 6.63-2.728 10.272-4.502 3.616-2.063 10.407-5.446 10.407-7.206-.893-2.984-4.907-5.114-22.287-7.094-12.98-1.54-19.8-5.72-25.52-15.18-7.04-11.44-5.72-21.34 3.74-30.36l7.92-7.48-4.62 7.04c-8.58 12.32-4.4 27.06 7.7 27.06 2.86 0 7.04 1.1 9.24 2.64 3.08 1.76 5.76 1.38 8.347.62l4.205-1.24 1.457-.314-6.09-4.126c-6.82-3.3-9.68-9.68-5.94-13.42 1.32-1.32 1.76 0 1.1 3.52-.88 4.18 0 6.16 3.08 7.26 2.2 1.1 6.6 3.52 9.46 5.72 9.46 6.82 22.22 14.74 23.54 14.74.66 0-.44-2.2-2.86-5.06-2.42-2.64-1.1-2.2 2.86 1.54 5.94 5.28 7.7 5.94 10.56 3.52 4.84-3.96 4.18-5.72-4.18-11-5.06-2.86-8.58-7.48-10.34-12.76-1.32-4.4-3.52-9.24-4.4-10.56-1.32-1.54-.66-3.52 1.32-5.28 1.87-1.54 3.74-5.117 3.54-6.426-.867.163-1.527.406-2.44.926-1.1.66-2.2-.22-2.2-2.2 0-.99.763-4.74.557-5.66-.518.953-2.095 3.13-2.755 3.46-1.1.66-2.42 0-2.42-1.54-.33-3.19-.74-4.123-1.013-5.624-.45.82-2.73 4.11-3.763 4.898.877-2.428.183-10.222-.195-10.947-.064 2.088-1.24 5.8-1.595 7.142-2.336 3.294-2.904 4.014-5.533 4.81-2.228.083-3.302-.83-6.382-4.46-3.08-3.74-4.964-6.54-5.143-8.448 0-1.98 6.527-9.812 14.256-12.758 3.274-1.19 3.718-1.526 5.727-2.062-.547-.124-1.35-.888-3.738-1.334-1.25-.233-6.316-.216-9.585 1.336-2.923.938-9.68 3.824-12.76 6.904-1.67.28.225-5.34-1.725-4.527-1.95.81-1.178 6.663-2.824 7.54-2.468 1.317-2.866-3.005-3.966-3.005-1.1.11.886 5.128-1.157 6.297-1.337.765-5.968-4.92-6.518-4.04-.406.687 3.575 5.388 2.502 6.086-1.326 1.045-1.197 2.444-4.13 1.282-2.404-1.212-13.02-7.877-15.754-7.686 2.537 1.664 4.51 3.687 7.26 6.2 4.4 4.62 5.645 5.196 2.125 5.732-3.27-.536-4.078-1.524-5.692-.433-.807.546.738 4.71-.355 5.377-1.093.666-4.846-.8-5.265-.365-1.677 1.732 1.307 4.054.317 6.584-1.32 3.74-1.98 3.74-6.38.66-3.52-2.53-8.02-4.34-8.154-3.384-.178 1.258.894 1.843 2.874 4.703 6.38 9.02 4.62 10.78-7.92 9.46 0 0-10.212-2.98-13.27 1.688 3.02-.567 10.26.873 12.19 1.71 1.045.454 3.31 1.81 5.264 3.364.977.777.412 1.387-.18 3.105-2.29.825-4.782 1.33-7.482 1.178 8.165 3.287 7.434.57 10.394 2.22-2.126 3.508-3.818 3.248-11.09 4.267-1.802.86-3.543 1.267-5.523 1.817-2.035.55-3.294 2.128-2.79 2.308.5.18 2.497-.324 4.74-.546 2.63.034 1.268.01 7.16.618 2.756.672 3.99 2.695 3.456 3.798z"/><path d="M225.167 194.704c0 1.286-.747 2.328-1.668 2.328-.922 0-1.67-1.042-1.67-2.328 0-1.285.748-2.327 1.67-2.327.897 0 1.634.992 1.666 2.245"/><path fill="none" stroke="#000" stroke-width="1.7" d="M228.52 196.42c-1.057 2.673-4.158 4.013-6.927 2.994-2.77-1.018-4.16-4.01-3.103-6.68 1.056-2.673 4.157-4.013 6.926-2.994 2.766 1.017 4.156 4.002 3.107 6.672M209.11 187.76c6.945-3.663 16.54 2.02 16.54 2.02"/><g fill="#dfdfdf"><path d="M157.047 250.83c-.248-1.18.29-1.766 2.2-2.992 2.358.293 6.454 1.97 9.05 4.27 4.422 3.915 5.093 5.375 7.586 8.726-1.017 2.013-1.678 2.448-3.607 4.325-1.958 1.28-3.117 2.06-4.447 2.696-1.063-3.293-2.355-4.92-5.288-8.704-1.37-2.092-5.426-3.685-7.482-5.234.444-1.638 1.257-1.767 1.987-3.088zM173.588 266.36c2.025-1.306 2.562-3.154 3.968-4 1.852.796 1.37 1.025 4.377 2.5 3.232 2.043 2.063 1.588 4.556 4.94-1.018 2.012-1.553 2.952-3.102 5.082-1.706 1.534-1.73 2.692-3.31 4.59-2.958-.767-4.88-1.89-7.182-4.536-1.624-1.966-3.532-2.044-4.325-5.36 2.086-1.386 3.783-2.02 5.018-3.215zM185.08 275.705c1.52-2.064 1.804-3.534 3.083-5.012 2.23.292 4.023.647 6.65 1.49 3.61.78 4.084 1.967 5.945 3.93-1.017 2.013-1.173 4.594-1.965 8.24-.57 2.544-1.097 3.954-2.175 6.23-2.956-1.27-5.13-2.394-7.685-4.03-2.635-1.588-5.174-3.18-6.346-6.497 1.328-2.396 1.257-3.156 2.492-4.35zM200.862 285.554c.636-2.822.542-5.807 1.948-8.043 2.23.294 1.876 1.027 4.503 1.87 2.727 1.16 4.59 1.462 6.07 4.435-2.405 2.266-2.94 1.943-3.732 5.588-.568 2.545.546 6.1-.532 8.38-2.956-1.274-3.237-2.018-5.79-3.654-2.636-1.59-2.902-.91-4.58-2.584.95-2.9 1.51-4.292 2.114-5.992zM211.72 289.594c1.268-2.57 1.806-3.155 3.212-4.38 2.61 1.05 3.77.394 6.27 2.626 2.35 1.665 7.24 5.755 9.102 7.718-1.774.876-3.43 1.482-5.5 4.198s-1.476 3.45-2.68 6.485c-2.2-1.398-3.237-2.142-5.287-3.4-2.13-1.965-3.026-2.548-5.462-4.223.95-2.775-.006-6.818.346-9.023zM226.242 301.464c1.267-2.57 3.068-3.03 4.473-4.255 2.61 1.05 3.644 3.298 6.145 5.53 3.106 3.433 3.578 3.988 5.06 6.077-2.28 1.13-2.925 1.23-4.995 3.062-2.14 1.894-2.738 1.933-4.194 3.58-1.567-1.778-1.343-1.638-3.392-3.654-2.13-1.966-2.395-1.917-5.21-4.476.823-2.9 1.257-3.913 2.114-5.866zM238.364 313.712c1.52-1.18 2.94-2.02 4.22-2.866 1.222 1.43 2.38 2.542 3.115 4.143 1.21 1.537 1.305 1.84 2.282 3.928-2.28 1.13-2.042.85-3.733 1.673-1.645.8-2.36 1.683-4.322 2.95-1.567-1.777-.46-1.132-2.508-3.147-.993-1.21-1.512-2.17-3.063-3.72 2.21-1.89 2.52-2.145 4.007-2.96zM244.362 322.614c1.836-.865 2.626-1.325 4.158-1.982 1.03 1.934 1.307 2.226 2.04 3.827.455 1.348.8 2.03 1.59 4.244-1.712.624-2.232.788-3.355 1.294-1.147.518-2.36 1.24-3.69 2.003-1.25-2.345-1.217-1.826-1.94-3.21-.677-1.335-1.133-1.73-2.368-3.53 1.832-1.386 2.393-1.893 3.565-2.646zM248.916 331.72c1.836-.864 1.822-.654 3.354-1.31 1.032 1.933 1.754 5.35 2.31 7.442.41 2.375.755 5.02.873 7.905-1.622.312-.952.12-2.372.402-1.41.28-1.486.333-2.995.96-.448-3.148-.836-4.884-1.652-7.036-.543-1.513-1.668-4.942-2.904-6.744 1.564-.85 2.214-.866 3.386-1.62zM252.89 348.015c.566-.132 1.173-.232 2.37-.33.23 4.12.237 5.127.122 9.23-.304 4.294-.36 7.787-1.045 12.145-.775-.224-.953-.46-2.372-.536-1.417-.075-1.333-.1-2.797-.007 1.025-4.086 1.06-5.487 1.363-10.354.128-3.79.118-5.015-.187-9.283 1.118-.36 1.597-.603 2.546-.865zM250.925 370.515c.567-.132 1.978.036 3.176-.062-1.29 7.246-2.353 9.95-4.79 14.407-2.893 4.206-5.716 8.146-9.437 12.147-.46-.32-.774-.74-1.21-1.16-.423-.408-.778-.532-1.28-.99 4.24-5.605 4.988-7.273 7.524-12.408 2.09-5.13 2.438-6.534 3.83-12.14 1.117.444 1.24.467 2.188.205zM237.62 397.033c.726.468.37.303 1.48 1.01-1.736 2.067-2.978 3.252-6.218 6.46-2.447 1.795-3.18 3.36-8.19 5.382-.596-.67-.62-.76-.91-1.188-.28-.413-.4-.52-.713-1.324 2.542-.783 5.55-2.557 7.46-4.477 3.163-2.72 3.958-3.944 6.063-6.604.487.318.71.435 1.028.74zM221.806 409.44c.398.63.247.812.62 1.555-2.27 1.353-2.778 1.468-8.352 2.555-6.85.232-9.735.068-12.952-.365.117-.857.127-.936.165-1.746.036-.767-.063-.517-.003-1.337 6.405.425 8.35-.004 10.884-.167 4.56-.426 7.995-1.498 9.078-1.773.487.887.432.654.56 1.276zM199.44 411.582c-.137.676-.11.456-.316 1.422-5.308-.923-5.414-.808-11.836-2.132-4.84-1.376-6.437-2.42-9.43-4.014-.22-1.057-.158-.93.082-1.37.317-.58.078-.395.796-.832 3.56 2.137 7.37 2.764 9.414 3.45 4.87 1.003 7.28 1.27 11.4 1.71-.05.93-.06 1.144-.11 1.766zM176.493 404.127c-.806.61-.866.893-1.88.752-1.652-.23-1.865-.698-3.453-1.995-.778-.636-1.988-1.867-1.747-2.308.317-.58.852-2.324 1.555-1.188.614.993 3.234 2.53 4.786 3.595 1.235.848 1.052.905.74 1.142zM168.547 398.68c-.94.297-.704.484-1.477-.185-.627-.543-1.063-1.457-2.204-2.798-.65-.765-1.954-2.97-2.015-3.468-.173-1.43.623-2.373 1.243-1.19 1.106 2.11 2.52 4.316 4.474 6.096 1.108 1.01.355 1.426-.02 1.544zM162.833 389.484c-.94.297-.838.484-1.61-.185-.627-.544-1.254-1.954-1.982-3.558-.427-.944-1.38-2.357-1.032-3.29.386-1.036 1.74-1.746 2.09-.474.636 2.296.845 2.326 1.93 5.025.418 1.04.98 2.363.605 2.48zM159.752 379.707c-.368.708-1.046.622-2.147.127-.886-.398-.554-1.8-.686-3.556-.072-.944-.265-1.822-.007-3.067.224-1.082 2.266-1.474 2.403-.16.1.956-.042 1.513.144 3.15.3 2.643.58 2.955.292 3.507zM158.95 370.466c-.215.598-1.092.4-1.612-.23-.62-.75.116-2.068.162-3.557.03-.947.293-1.9.798-3.067.313-.726 1.444-.812 1.465.508.01.645-.172 1.482-.347 2.883-.193 1.537-.125 2.51-.467 3.463zM160.51 361.136c-.213.598-1.167.03-1.342-.766-.263-1.195.567-2.512.92-3.958.298-1.214.845-2.658 1.825-3.47.715-.59 2.008-.916 1.733.376-.213 1-1.645 2.91-2.133 4.533-.446 1.485-.66 2.332-1.002 3.286zM166.36 350.466c-.635.025-1.37.203-1.165-.587.183-.705.867-1.053 2.17-2.084.667-.528 1.838-1.492 2.494-1.817.756-.376 2.24-.845 1.733.373-.213.51-.887.722-2.09 1.542-1.28.874-2.713 2.555-3.144 2.57z"/></g></g><use xlink:href="#a" transform="matrix(-1 0 0 1 750 0)"/><path d="M278.855 412.412c-12.98 4.4-31.68 13.42-39.16 18.48-2.42 1.76-2.2 3.74 1.54 11.22 2.64 4.84 5.28 9.02 5.72 9.02.66 0 7.92-3.3 16.06-7.48 8.14-3.96 18.54-9.185 23.32-10.12 3.655-.715 6.993-1.392 9.06-2.25.83 2.02.32.894 1.835 4.068 2.18 4.56.823 4.457 4.59 5.705 3.975 1.316 13.775-4.003 13.775-4.003 11.44-3.96 17.82-4.4 58.96-4.4s47.52.44 58.96 4.62c0 0 9.206 3.132 10.39 3.51 1.175.377 1.796.674 3.038.376 1.133-.272 2.313-2.005 2.835-3.05 0 0 2.53-6.08 3.18-8.213 2.19 1.055 6.187 2.427 10.037 3.637 4.62 1.54 14.96 6.16 23.1 10.12 8.14 4.18 15.4 7.48 16.06 7.48.44 0 3.08-4.18 5.72-9.02 5.28-10.34 5.72-9.46-13.42-19.36-25.52-13.2-51.04-19.14-53.46-12.76-.44 1.21-.813 1.918-1.418 3.487-2.557-.59-9.252-2.168-15.962-3.268-20.68-3.74-77.44-3.74-98.12 0-6.71 1.1-11.246 2.935-15.038 3.987-2.146-4.295-1.697-2.587-2.137-3.797-1.76-4.4-13.405-3.71-29.465 2.01z"/><g fill="#dfdfdf"><path d="M299.75 409.25c-9.447.297-27.166 6.347-45.094 15.47-15.4 7.7-15.836 8.14-11.656 16.28 1.76 3.74 3.75 7.06 3.97 7.5.004.003.024.03.03.03.82.217 7.677-2.824 15.562-6.874 8.36-4.18 18.943-8.774 23.563-10.094 3.41-1.21 5.888-1.32 8.937-1.968-.556-3.24.133-.446-2.03-6.625 2.495-6.26 7.316-11.668 12-12.845-1.205-.643-2.99-.947-5.282-.875z"/><path d="M372.03 409.406c-18.236.174-36.17 1.065-44.374 2.344-13.97 2.31-21.503 6.738-26.688 9.437-1.896 1.416-3.56 1.76-5.625 3 1.637 3.708 1.573 5.94 2.97 9.188 1.468 3.417.734 5.577 4.75 5.687 4.014.11 12.75-4.22 12.75-4.22 11.22-3.958 17.83-4.405 58.75-4.405 41.14 0 49.428 1.31 58.937 4.625 6.893 2.373 9.735 4.246 12.5 3.75 1.42-.255 2.16-2.306 3.156-4.78 1.357-3.373 2.994-7.902 3.813-13.563-2.164-.317-1.21.79-4.158-.533-6.367-2.854-7.578-3.07-11.78-4.844-4.99-2.104-9.655-2.108-16.97-3.468-8.58-1.32-27.65-1.837-46.28-2.22-.59.005-1.163-.005-1.75 0z"/><path d="M448.47 409.438c-1.243.01-2.298.144-3.19.406 1.92 1.207 4.163 3.223 5.408 3.875 4.62 2.42 4.6 4.656 4.156 8.812-.206 1.92-.382 2.652-1.125 5.28 1.723.78 5.98 2.54 9.5 3.75 4.4 1.32 14.95 5.915 23.31 10.095 7.76 3.984 14.535 6.985 15.533 6.875.018-.003.05-.026.062-.03.002-.002.03 0 .03 0 .22-.44 2.21-3.76 3.97-7.5 2.86-5.5 3.075-7.46.875-9.22-4.84-3.96-24.42-13.004-38.5-17.844-9.013-3.004-15.642-4.535-20.03-4.5z"/><path d="M442.938 411.22c-.154.165-.283.34-.406.53-.667.813-.76 1.683-.97 2.688 1.46.515 6.377 3.58 8.907 3.47.54-.002.97-.025 1.218-.127.014-.004.05-.023.063-.03.006-.003.026-.028.032-.03.02-.015.047-.047.062-.063.007-.008.026-.023.03-.032.004-.005.03-.026.033-.03.002-.006 0-.027 0-.032v-.03-.032-.03c-.005-.025-.02-.068-.032-.094l-.03-.063-.063-.094c-.353-.46-1.425-1.2-3.532-2.376-1.486-.83-3.892-2.466-5.312-3.625zM306.344 411.28c-1.445 1.102-3.895 2.62-5.47 3.69-2.826 1.92-3.247 3.41-4.468 6.092-.025.056-.054.126-.062.156v.032h.062c.4-.183 2.54-2.11 7.657-3.844 4.39-1.638 2.054-.837 4.78-1.97-1.796-2.775-2.03-2.964-2.25-3.624-.063-.19-.15-.362-.25-.53z"/></g><path d="M325.41 417.812l.504 4.357 2.986-.347c1.077-.124 1.816-.387 2.218-.787.408-.4.565-1.01.47-1.824-.088-.762-.36-1.277-.815-1.542-.456-.266-1.248-.334-2.377-.203l-2.986.345m-1.886-1.313l4.985-.577c.808-.094 1.406-.127 1.793-.1.392.024.75.1 1.07.23.576.233 1.034.6 1.375 1.096.346.496.56 1.102.644 1.818.08.693 0 1.304-.24 1.833-.24.524-.638.96-1.194 1.307.517.08.9.276 1.147.584.254.308.453.854.597 1.64l.394 2.104c.08.45.18.784.292 1 .12.21.274.353.465.425l.042.357-2.017.233c-.194-.25-.374-.81-.54-1.68l-.005-.053-.3-1.664c-.157-.855-.405-1.392-.743-1.613-.338-.22-1.124-.26-2.358-.116l-2.83.327.638 5.51-1.73.2-1.486-12.86m15.272 6.036l4.023-.295-2.417-5.55-1.607 5.846m-3.34 5.64l3.847-13.265 1.937-.14 5.76 12.557-1.902.14-1.65-3.757-5.085.373-1.093 3.958-1.814.134m17.79-1.126l-.38-12.94 1.757-.052.156 5.315 6.71-.196-.155-5.315 1.766-.053.38 12.94-1.766.053-.177-6.062-6.712.197.177 6.06-1.757.053m15.28-5.722l4.035-.02-2.033-5.704-2 5.724m-3.718 5.398l4.74-12.97 1.943-.01 4.89 12.92-1.906.01-1.39-3.86-5.098.026-1.36 3.875-1.82.01m22.045-4.698l1.705.03c-.104 1.574-.664 2.82-1.682 3.74-1.012.915-2.31 1.36-3.89 1.332-1.823-.033-3.242-.68-4.257-1.938-1.01-1.26-1.495-2.99-1.457-5.186.035-2.027.605-3.625 1.71-4.796 1.104-1.176 2.576-1.75 4.415-1.717 1.465.025 2.656.424 3.575 1.196.924.77 1.448 1.81 1.572 3.12l-1.722-.03c-.15-.858-.528-1.52-1.135-1.988-.607-.474-1.403-.72-2.387-.736-1.31-.023-2.34.42-3.08 1.327-.737.907-1.12 2.2-1.15 3.874-.026 1.582.327 2.857 1.06 3.825.74.968 1.73 1.462 2.972 1.484 1.06.018 1.933-.295 2.618-.94.69-.65 1.07-1.516 1.135-2.6m3.696 4.9l.594-12.932 1.756.08-.243 5.312 6.707.308.244-5.312 1.764.08-.592 12.933-1.765-.08.278-6.06-6.708-.306-.278 6.057-1.756-.08m13.02.674l.897-12.914 1.754.12-.895 12.917-1.754-.122m7.422-10.904l-.425 4.365 2.992.292c1.078.105 1.856.004 2.333-.303.483-.307.764-.868.844-1.685.074-.764-.083-1.324-.473-1.68-.39-.355-1.15-.588-2.28-.698l-2.992-.29m-1.568-1.68l4.995.485c.81.078 1.4.17 1.773.278.38.108.71.258 1 .45.512.35.883.805 1.11 1.363.235.558.318 1.196.248 1.913-.067.694-.273 1.275-.62 1.74-.344.462-.825.804-1.44 1.027.487.19.82.46.998.812.183.354.262.93.238 1.728l-.058 2.14c-.015.458.01.804.075 1.04.072.23.194.402.365.513l-.035.358-2.02-.196c-.137-.284-.195-.87-.174-1.757 0-.022.003-.04.004-.05l.06-1.69c.024-.87-.105-1.447-.39-1.734-.283-.287-1.044-.49-2.28-.61l-2.834-.276-.537 5.52-1.732-.17 1.254-12.884m10.67 14.146l1.686-12.836 1.742.23-1.686 12.835-1.743-.228"/><g><path fill="#171796" stroke="#000" stroke-width="2" d="M299.715 160.554c-5.955 3.1-9.056 7.67-9.545 13.87-.49 6.69.98 11.42 4.813 15.01 1.713 1.713 3.182 3.345 3.182 3.753 0 .326-1.305 1.958-2.937 3.508-3.834 3.59-6.037 8.32-6.037 13.216 0 5.06 1.55 8.567 5.712 13.136l3.426 3.752-3.753 4.16c-7.505 8.322-7.26 17.868.57 25.78l3.346 3.51h153.62l3.753-3.998c7.26-7.75 7.26-16.154.08-25.046l-3.67-4.487 3.427-4.08c7.505-8.973 7.342-17.213-.408-25.86-3.508-3.835-3.59-4.57-.816-6.364 4.487-3.02 7.26-13.216 5.22-19.417-3.017-9.3-15.99-15.5-23.902-11.42-1.47.733-4.406 2.773-6.608 4.486-2.203 1.795-4.243 3.182-4.65 3.182-.327 0-2.285-1.47-4.324-3.264-7.914-6.77-17.214-6.28-25.128 1.387l-3.018 2.937-3.998-3.67c-8.076-7.588-18.192-7.262-26.432.733l-3.02 2.937-3.262-2.937c-4.813-4.405-7.995-5.71-13.543-5.792-5.3-.082-10.278 2.12-14.194 6.363l-1.958 2.04-4.242-3.59c-7.832-6.69-14.114-7.832-21.7-3.834z"/><path fill="#d42e12" stroke="#000" stroke-width="2" d="M295.754 265.034c-7.995 8.892-7.913 17.948.163 26.922l3.02 3.345-3.428 3.754c-1.877 2.04-3.917 4.976-4.57 6.445-2.61 6.28-.652 14.683 4.488 19.497 3.1 3.018 3.18 4.242.244 7.832-1.305 1.55-2.855 3.75-3.426 4.893-6.12 11.585 3.02 26.107 16.56 26.107 5.385 0 9.465-1.714 13.136-5.63 2.937-3.1 4.487-3.18 7.097-.407 3.834 4.242 8.892 6.852 13.134 6.852 4.977 0 8.077-1.55 13.135-6.363l3.833-3.753 3.508 3.834c7.588 8.158 15.257 8.403 25.455.652l4.16-3.1 3.59 3.263c4.487 3.915 7.832 5.465 12.237 5.465 4.406 0 7.67-1.713 12.81-6.77l4.24-4.08 3.264 2.937c6.282 5.63 9.71 7.424 14.277 7.424 4.732 0 8.077-1.55 12.808-5.792 4.407-3.998 6.773-8.648 6.202-12.482-.57-4.16-4.324-11.748-7.098-14.36l-2.366-2.283 3.67-4.162c7.996-9.382 8.078-16.642.165-25.943l-3.264-3.916 3.426-4.16c7.668-9.057 7.587-17.46-.163-25.7l-4.16-4.323-76.362.08-76.36.083-3.426 3.834z"/><path d="M278.855 254.452s.05 76.333.206 105.48c-.26 4.314 2.268 5.36 5.97 8.23 5.985 4.646 12.37 9.51 46.625 6.85 31.46.22 38.06 2.64 41.36 15.18l1.76 7.04 1.54-7.04c2.42-12.1 9.886-14.96 40.246-15.18 39.085.588 42.33-1.865 47.932-6.643 0 0 4.09-3.15 5.146-6.175 1.184-3.395.617-6.17.617-6.17V147.53h-191.4v106.92zm189.2.88l.41 88.07c0 11.855.855 15.49-.41 17.75s-3.826 5.266-3.826 5.266c-5.94 5.94-10.97 7.155-38.06 6.805-17.5.048-26.955.532-40.74 2.708-2.165 1.944-8.11 1.77-10.875 13.08-3.587-11.31-6.146-10.817-6.146-10.817-14.648-6.146-21.2-4.922-44.675-5.16-15.18 2.2-31.46-.66-37.62-6.82 0 0-.917.248-5.06-4.65.04-21.453 0-106.23 0-106.23v-105.6h187v105.6z"/><path fill="#fff" d="M348.088 195.61c-5.79 11.98-6.036 17.358-1.224 26.958 3.753 7.374 8.157 12.06 14.193 15.055 15.742 7.91 35.89 2.074 43.8-12.673 4.895-9.064 4.324-24.195-1.06-30.8l-1.468-1.767-1.388 5.223c-1.957 7.45-3.915 11.214-7.83 15.208-7.34 7.45-17.455 9.14-27.895 4.532-8.075-3.61-11.338-8.603-14.356-22.505l-.733-3.455-2.04 4.224z"/><path d="M346.175 196.372c-4.84 11-4.4 16.5 1.54 28.16 15.4 30.36 61.16 18.92 60.94-15.4-.22-5.5-.05-9.082-3.08-15.18-1.43-2.53-2.042-3.28-3.062-4.81-.403 1.656-1.008 4.59-2.218 9.43-4.4 16.94-18.92 24.86-34.1 18.48-8.58-3.52-12.54-9.24-14.74-21.12l-1.54-7.7-3.74 8.14zm14.96 21.78c10.56 6.82 26.62 4.62 34.76-4.4 3.3-3.74 5.327-9.575 6.16-12.54.822-2.926.983-3.364 1.48-6.287 1.276 2.833 1.978 4.322 2.58 8.704.89 6.472-.54 11.882-2.08 15.842-7.7 20.24-32.34 26.4-47.74 11.88-7.48-6.82-13.42-20.222-10.17-28.87 1.15-3.066 1.414-4.814 2.92-8.05.273 2.21.43 5.24 1.97 9.86 1.98 6.38 5.5 11 10.12 13.86z"/><g id="b" stroke="#000"><path fill="#e9d315" stroke-width="1.625" d="M337.418 297.577c-.147 4.76.082 6.936.834 10.464-2.395-2.31-4.808-3.926-8.127-5.852-4.227-2.454-9.565-4.796-11.378-1.802-1.745 2.88 3.26 6.827 7.178 9.038 4.284 2.417 6.754 2.748 9.54 3.84-2.36 1.25-5.578 2.087-9.146 4.376-3.502 2.246-8.736 6.893-6.75 9.86 2.02 3.02 7.86-.374 11.15-2.577 2.743-1.835 6.37-4.732 7.782-6.214-.28 2.127-1.122 6.368-1.06 10.424.077 4.926.758 10.438 4.426 10.428 3.745-.01 4.54-6.5 4.482-10.89-.06-4.585-.585-7.827-1.036-10.09 1.622 1.655 4.07 4.027 7.297 6.57 2.665 2.1 9.188 5.21 11.14 2.23 1.99-3.03-1.106-6.046-6.795-9.656-3.987-2.53-6.81-3.396-9.408-4.472 2.627-1.077 5.498-1.353 9.697-3.905 6.23-3.787 8.868-6.32 6.96-9.58-1.857-3.168-5.608-1.437-11.304 2.187-3.052 1.942-5.908 4.515-7.843 6.366.442-2.913.918-7.206.882-10.387-.056-4.728-1.092-10.84-4.31-10.858-3.22-.02-4.052 5.294-4.212 10.5z"/><path fill="#fff" stroke-width="1.86843321" d="M346.662 313.3c0 2.767-2.244 5.01-5.01 5.01s-5.013-2.243-5.013-5.01 2.243-5.013 5.01-5.013c2.766 0 5.01 2.24 5.012 5.006"/></g><use xlink:href="#b" x="65.63"/></g></svg>