<svg xmlns="http://www.w3.org/2000/svg" width="2100" height="1400"><path fill="#198a00" d="M0 0h2100v1400H0z"/><path fill="#ef7d00" d="M1850 500h250v900h-250z"/><path d="M1600 500h250v900h-250z"/><path fill="#de2010" d="M1350 500h250v900h-250z"/><g fill="#ef7d00" stroke="#000" stroke-width="2.25" stroke-linecap="round" stroke-linejoin="round"><path d="M1916.425 168.334s86.002-33.706 94.334-40.656c3.79 4.17-34.477 46.564-108.732 62.2 67.435-14.594 125.023-60.462 136.768-59.072 3.41.695 2.65 44.826-151.923 83.05 106.837-25.715 168.97-72.973 168.213-67.76.757 1.042-10.608 37.18-104.185 65.327 26.142-5.56 96.988-45.174 96.23-37.53 2.273 3.13-68.573 86.525-196.626 59.422 102.292 24.324 168.59-34.402 178.062-33.36 1.895.348-18.944 51.43-147.753 54.556 61.755-5.906 43.946-.347 43.946-.347s-36.372 26.06-80.318 8.34c34.476 8.69 38.264 9.035 39.02 11.815-2.27 3.474-30.686 8.687-57.963-4.866 21.972 8.34 41.673 9.73 42.05 12.858-.377 1.042-14.394 8.34-26.896 3.128-12.502-5.214-127.676-70.193-127.676-70.193l196.25-49.343zM1685.713 344.105c-17.257 0-17.734 14.085-17.734 14.085s-1.425 1.017-.475 7.844c2.85-4.65 4.275-6.1 4.275-6.1 1.9.29 9.816 2.468 22.324-6.535-11.4 10.89-4.59 14.956-4.59 14.956s-2.692 8.568 6.014 10.31c-2.69-3.485-1.107-6.534-1.107-6.534s12.192-1.16 11.4-14.81c.476 12.34 7.76 15.39 7.76 15.39s0 6.825 7.914 7.407c-4.273-3.487-3.325-8.86-3.325-8.86s10.29-6.825 1.583-18.443c5.225-2.76 9.5-10.455 9.5-10.455s-7.124-2.76-10.45-5.082c-1.584-3.05-.157-19.75-.157-19.75l-4.276-21.64-12.192 33.694c.474-4.793.792 14.52-16.465 14.52z"/><path d="M1770.944 295.514c.378.348 12.882 13.206 25.004 12.51 4.545-3.474-9.472-11.12-9.472-12.857 4.925 4.17 25.762 20.5 39.023 14.594 5.302-6.948-9.473-5.905-25.764-24.67 11.365 6.95 39.78 22.24 53.04 16.332 5.685-5.56-29.55-22.936-41.296-36.487l-30.307-14.246-41.296 30.926zM1724.345 189.88s14.017-7.646 70.088-3.824c6.062.695 38.264-10.077 48.494-13.204 16.29-2.78 68.193-13.205 82.212-22.935 9.85-1.042-2.655 16.68-15.155 20.85-13.262 5.56-61.376 20.85-78.425 18.764 20.46.35 9.094 15.638-25.005 8.34 16.292 8.34 10.23 9.73 10.23 9.73s-28.792 1.39-36.37-4.517c19.323 6.602 11.366 9.035 11.366 9.035s-19.7 1.737-28.793-2.085c14.017 3.822 6.82 6.255 6.82 6.255s-11.365 1.737-20.837-1.39c-9.47-3.128-23.868-25.02-24.625-25.02zM1746.827 302.716l2.06 33.982s-1.11 1.743-2.06 2.76c-.95 1.016-26.283-3.632-22.8 14.085 0 7.262.16 9.15 5.543 13.215-1.426-4.792-.95-8.13-.95-8.13s7.124 3.92 14.09-6.826c-4.748 10.6-1.425 14.376-.316 14.667 1.11 1.888-1.9 10.454 7.6 10.31-3.64-3.196-1.9-7.844-1.9-7.844s9.976-1.45 6.492-18.006c3.642-3.34 5.066-.145 5.066-.145s1.108 9.874 9.816 7.842c3.96 2.032-.632 7.405-.632 7.405s6.332.146 8.232-4.792c1.9-4.937 4.117-13.796-6.334-17.426-1.266-3.484 4.118-3.775 4.118-3.775s6.65 2.03 8.55 5.08c1.9 3.05 1.266-7.985-6.967-9.148-10.133-.29-10.766-2.178-10.766-2.613 0-.438-1.742-24.688-2.534-31.66z"/><path d="M1782.07 331.675c.123-1.558-17.287-23.06-12.87-25.838 4.415.833 11.656 10.613 17.522 7.438-1.778-3.81-7.018-1.665-12.97-11.423-5.948-11.032-6.817-27.593-27.654-45.658 13.49 19.116 44.092 30.322 45.388 24.748 1.296-5.575-26.946-26.653-25.5-31.733 5.617 10.432 33.975 33.677 54.868 31.752 1.432-4.475-17.11-13.508-21.88-21.942-13.348-8.224-49.066-36.462-49.78-43.01-13-17.388-21.112-22.648-24.89-24.65-1.46-1.578-1.827-3.086-2.113-4.045-8.067-17.446 2.62-23.11 8.875-23.95 5.147-.523 6.642.183 10.346-1.462-4.385-1.574-8.77-3.046-13.155-4.62 5.72 3.848 20.325.46 17.16 11.542 6.403-2.235 20.03-17.104-15.444-20.46-11.544-12.147-59.008-19.128-70.888 33.888.948.743 1.445 1.354 4.464 3.422-14.99-6.663-55.42-11.802-69.992-13.96-39.364-10.418-80.244-35.52-84.174-32.434-5.256 2.14 23.784 26.92 22.274 27.47-25.18-13.467-48.182-23.007-69.585-31.688-15.06-5.163-30.14-17.182-31.803-14.896-5.542 10.53 24.14 36.996 29.662 40.11 5.522 2.978 48.946 21.453 48.306 21.684-65.406-27.23-76.372-32.165-79.654-35.305-5.764-1.19-19.807-18.58-23.72-17.463-2.143 1.93 2.154 29.41 33.364 41.744 5.087 3.4 66.9 23.74 66.295 25.333-.15.398-70.797-26.744-73.54-27.715-13.622-4.9-30.335-22.07-33.46-20.14-2.982 1.753 7.705 20.34 21.468 26.168 7.215 2.92 34.887 15.492 59.82 23.493 1.59.527-44.816-16.14-67.127-24.693-10.115-5.15-14.88-11.568-16.42-10.187-2.28 1.38 3.683 28.837 75.38 44.33 1.89.737 25.238-5.074 24.084-4.303-.29.193-23.186 4.765-25.415 4.608-1.985-.277-14.53 1.363-14.756 1.96-.758 1.857 4.545 11.688 41.564 9.638 4.733-.26 30.416-8.58 28.258-6.79-1.08.896-34.973 10.997-37.554 11.196-2.242.29-14.15 1.433-14.59 2.595-.537 1.583 8.814 8.58 28.694 9.7 17.602.858 51.05-9.864 50.378-9.17-.67.696-32.244 10.62-33.07 11.224-1.142.593-12.704 1.168-13.11 1.982-.942 2.026 16.678 17.138 68.787 1.01-5.234 6.486-30.492 10.92-30.456 12.09-.117.847 5.565 5.882 14.396 7.684 4.415.9 10.46.717 15.982-.083 9.918-1.82 20.37-5.42 33.65-16.678 1.587 3.532-33.174 19.667-31.542 21.206 7.537 6.41 32.576-.827 34.216-1.667 1.64-.843 48.215-24.93 48.055-27.72.724 3.574-60.045 33.86-59.39 35.102 3.902 5.71 24.66-.3 25.653-.825.99-.523 26.493-13.16 27.192-13.532.697-.373-29.973 16.464-27.24 19.027-1.32 10.933 47.898-7.546 51.755-9.847 1.93-1.15-23.644 10.313-23.712 15.76 8.235 12.77 34.603 8.718 38.67 5.91 2.035-1.406-2.393 9.485-.967 8.496.498-.204 5.736-5.885 7.75-9.997-.642 3.568-3.533 9.19-5.22 15.638-1.688 6.45-2.172 13.727-4.49 21.46-.53 3.395 16.248-6.64 13.81-30.632 1.437 12.48-5.298 35.813-3.535 37.026 3.525 2.426 13.27-11.62 14.255-21.12 2.894 4.798 8.968 14.813 14.193 17.117-.57-7.257.1-6.924-2.252-14.058 1.358-9.47 1.547-22.578 1.875-37.38 14.2 24.948 19.862 35.483 15.895 54.588 4.222 1.615 10.966-13.335 10.422-21.03 5.422 21.38 28.825 24.587 29.197 23.965z"/><path d="M1545.575 173.288s-9.664 6.697-21.69 6.303c3.006 11.032 27.918 2.562 27.918 2.562s-12.027 12.212-20.617 14.182c5.154 3.94 26.845 2.56 30.497.59 3.65-1.97 10.093-9.65 10.093-9.65s-22.335 23.636-25.557 23.44c-.43 2.757 23.408 1.772 28.348-2.364 4.94-4.137 17.395-10.243 17.395-10.243s-32.643 20.88-34.147 20.88c12.24 2.954 36.724-3.546 52.402-12.41-23.195 14.182-25.34 16.743-37.153 21.47 10.524 2.167 15.89 8.668 51.542-5.515 20.403-8.864 31.998-25.016 31.998-25.016-12.67 15.56-32.644 28.76-54.762 41.76-1.29 2.363 23.622 12.014 55.406-18.32M1718.24 239.078s2.15 9.258 10.74 16.35c8.59 7.09 9.235 13.984 9.235 13.984M1713.947 178.803s3.006 8.273 11.81 13.592c9.022 5.318 22.553 22.06 23.626 25.016 1.04 3.577 6.227 29.35 5.798 32.107"/><path d="M1659.184 191.606c.644 3.152-12.672 19.107 5.582 37.82-16.537 18.515-16.535 20.88-16.535 20.88s9.235 4.727 25.772-8.274c27.273 30.73 18.185 44.792 18.185 44.792"/><path d="M1690.014 265.13s-2.512-3.3 1.967-15.626c4.034 4.456 8.52 5.407 10.485 7.21 1.965 1.805 22.558 4.54 23.867 17.162M1714.223 149.432c0-.927-4.147-9.088-19.616 1.113 8.29.464 16.48 4.822 19.616-1.113zM1861.87 186.75c.756.35 46.22 9.383 61.374 4.866-19.322 23.63-57.965 7.645-57.965 7.645 18.94 5.213 19.7 4.866 25.76 9.73 1.895 4.518-34.854 2.433-46.978-3.822 33.72 9.73 34.476 9.035 35.614 12.857 1.517 5.212-55.314-1.39-60.24-8.34 15.156 10.772 23.49 12.857 31.825 17.722-10.228 4.17-29.17 8.34-64.026-14.247 45.84 38.224 87.137 35.79 93.58 42.74-15.913 21.545-77.668-12.856-106.083-30.23-28.413-17.375 62.134 42.046 70.47 41.003-4.168 5.907-34.097.695-35.992-2.085M1873.613 226.712c-5.302.695-21.214.695-23.487.348M1532.26 166.984s34.576 16.743 49.18 15.562c-3.866 3.348-9.666 4.727-9.666 4.727 3.652 1.38 13.746 6.303 28.995 3.152-3.653 3.348-8.378 7.09-8.378 7.09s13.1 4.53 27.92-2.56c-4.51 5.12-7.09 8.864-7.09 8.864l10.31.59"/></g></svg>