<svg xmlns="http://www.w3.org/2000/svg" xmlns:xlink="http://www.w3.org/1999/xlink" width="1008" height="504" viewBox="0 0 252 126"><path fill="#319208" d="M0 0h252v126H0z"/><path fill="#FFD200" d="M0 18h252v90H0z"/><path fill="#DE2010" d="M0 36h252v54H0z"/><path d="M0 54h252v18H0z"/><path d="M4.583 0l84 63-84 63H0V0z"/><path d="M0 0l84 63-84 63" fill="#FFF"/><g fill="#DE2010"><g transform="matrix(32 0 0 32 34 63)"><path id="a" d="M0-1l-.443.897L.23.23z"/><use id="c" xlink:href="#a" transform="scale(-1 1)"/><path id="b" d="M0-1l-.335.942.707.252z"/><use id="d" xlink:href="#b" transform="scale(-1 1)"/><use xlink:href="#a" transform="rotate(72)"/><use xlink:href="#c" transform="rotate(-72)"/><use xlink:href="#b" transform="rotate(72)"/><use xlink:href="#d" transform="rotate(-72)"/></g><g transform="matrix(27.5 0 0 27.5 34 63)"><g id="f"><path id="e" d="M0-1l-.41.912.456.205z"/><use xlink:href="#e" transform="scale(-1 1)"/></g><use xlink:href="#f" transform="rotate(144)"/><use xlink:href="#f" transform="rotate(-144)"/></g></g><path d="M28.635 55.11c1.977 4.305 2.47 4.587 7.41 6.28 4.942 1.695 18.9 3.3 20.275 3.46-.9-.9-16.62-12.546-19.85-14.875-3.23-2.33-4.13-3.388-4.13-3.388s-2.91-5.24-3.916-6.776c-1.006-1.534-2.86-3.704-5.294-3.704-2.435 0-3.917 1.43-4.623 3.97-.388.106-2.47 1.376-2.4 2.682.6-.07 4.377-1.13 5.682 3.14 1.305 4.27 1.376 11.258.035 14.717-1.34 3.458-3.424 6.07-3.424 9.104 0 .423.284 1.27.99 1.27.247 1.34 2.223 10.904 2.223 10.904h28.16l4.474-17.292" fill="#ffc618" overflow="visible"/><g fill="none" stroke="#000" stroke-width=".212" overflow="visible"><path d="M28.635 55.11c1.977 4.305 2.47 4.587 7.41 6.28 4.942 1.695 18.9 3.3 20.275 3.46-.9-.9-16.62-12.546-19.85-14.875-3.23-2.33-4.13-3.388-4.13-3.388s-2.91-5.24-3.916-6.776c-1.006-1.534-2.86-3.704-5.294-3.704-2.435 0-3.917 1.43-4.623 3.97-.388.106-2.47 1.376-2.4 2.682.6-.07 4.377-1.13 5.682 3.14 1.305 4.27 1.376 11.258.035 14.717-1.34 3.458-3.424 6.07-3.424 9.104 0 .423.284 1.27.99 1.27.247 1.34 2.223 10.904 2.223 10.904h28.16l4.474-17.292"/><path d="M19.39 70.99s6-.353 7.622-.353c1.623 0 16.734.02 25.165 1.968"/><path d="M21.508 70.87s-.6-.727-.213-2.174c.388-1.447 4.623-5.188 4.623-10.48M25.142 70.637s-.494-2.365 4.905-4.376c1.518-.458 5.858-2.893 6-4.87M29.473 66.485s13.243.058 23.724 2.176"/><path d="M32.793 64.905s4.55.156 5.29-.056c.742-.212 2.054-.763 2.576-2.314M35.49 64.96s2.435-1.266 2.91-2.912M28.14 81.894s-1.04-7.216-1.25-11.257l2.716 2.594 2.875-2.514 2.472 2.638 2.858-2.425 2.47 2.777 2.83-2.407 2.253 2.62 2.822-2.042 3.355 3.19M50.95 77.345c-10.08-1.444-23.57-1.35-23.57-1.35M22.694 51.052s8.2-3.918 9.647-4.465"/></g><g transform="matrix(.2 0 0 .2 16 36)" fill="none" stroke="#000" overflow="visible"><path d="M52.487 177.086l13.018 11.85 11.762-11.76 11.896 12.266 12.846-11.358 11.826 12.43 13.34-11.013 10.896 12.73 13.27-10.146 13.947 12.32"/><circle cx="89.425" cy="154.584" r="5.167"/><circle cx="111.237" cy="156.047" r="5.167"/><circle cx="30.05" cy="16.5" r="4"/></g></svg>