<svg width="600" height="450" viewBox="0 0 600 450" xmlns="http://www.w3.org/2000/svg" fill-rule="evenodd" clip-rule="evenodd" stroke-linecap="round" stroke-linejoin="round" stroke-miterlimit="1.5">
    <path fill="url(#a)" d="M0 0h600v450H0z"/>
    <path d="M374 384.829L629 290l-130-53-312 126" fill="url(#b)"/>
    <path d="M374 72v312.829L413 362V96l-39-24z" fill="#f7f7f7"/>
    <path d="M187 96l187-23v311.829L187 363V96z" fill="#fff"/>
    <path d="M187 96v267l187 21.829L413 362V96l-39-23-187 23z" fill="none" stroke="#969696" stroke-width="2"/>
    <path d="M291.466 305.869v-22.591l-22.591-2.759v22.591l22.591 2.759zm27.335-122.653c0-41.306-18.567-41.314-40.212-40.637-8.189.255-19.428 1.886-25.302 2.524v16.492c7.003-.5 18.299-1.38 27.561-.249 11.295 1.379 18.75 6.808 18.75 21.492 0 14.684-.903 16.155-15.587 31.757l-13.555 14.384v27.335l19.202 2.345v-23.687l12.199-12.969c15.136-15.998 16.944-21.166 16.944-38.787z" fill="#ccc" fill-rule="nonzero"/>
    <g fill-rule="nonzero">
        <path d="M388.788 360.247v8.369l-.813.47v-8.37l-1.44.831v-1.019l3.692-2.132v1.019l-1.439.832zm4.362 1.491v4.36l-.842.486v-4.36l-1.672-4.064.897-.517 1.233 3.082 1.234-4.507.851-.491-1.701 6.011zm4.224-1.62l-.785.453v3.541l-.814.47v-9.389s.805-.559 1.581-1.007c1.42-.82 1.831.204 1.831 1.853 0 2.039-.486 3.313-1.813 4.079m.093-5.03a7.66 7.66 0 0 0-.878.588v3.915l.878-.507c.524-.303.889-1.009.889-2.471 0-1.342-.226-1.908-.889-1.525m4.655 5.923c-1.542.89-1.953-.482-1.953-3.767 0-3.153.412-4.92 1.953-5.81 1.542-.89 1.953.402 1.953 3.555 0 3.285-.411 5.132-1.953 6.022m0-8.598c-.84.485-1.121 1.466-1.121 4.417 0 2.883.281 3.688 1.121 3.203.841-.486 1.121-1.615 1.121-4.497 0-2.951-.28-3.608-1.121-3.123m4.299 6.116c-.458.264-1.139.457-1.225.478v-.978c.225-.063.804-.259 1.216-.497.476-.274.785-1.033.785-2.067 0-1.219-.139-1.783-.803-1.399l-.767.442v-.98l.672-.388c.759-.438.794-1.572.794-2.107 0-1.061-.232-1.356-.699-1.086-.411.237-.88.655-1.15.892v-.979c.102-.086.655-.606 1.13-.881.963-.556 1.515-.284 1.515 1.715 0 .912-.225 1.846-.721 2.388.571-.275.832.472.832 1.786 0 1.999-.542 3.062-1.579 3.661"/>
        <path d="M382.618 368.303a1.666 1.666 0 0 1-.375.293c-1.13.652-2.789-4.056-2.789-5.942 0-.694.115-.991.276-1.284-1.382 1.03-3.042 2.717-3.572 3.949-.115.298-.184.702-.184 1.165 0 2.943 2.189 8.359 3.733 7.468.715-.413 1.92-2.794 2.911-5.649m-.721-8.381c1.428-.825 2.858-1.32 2.858-.162 0 2.348-1.038 5.793-1.567 6.099-.945.545-2.121-2.548-2.121-4.433 0-.86.231-1.158.83-1.504" fill="#ff8700"/>
    </g>
    <defs>
        <linearGradient id="a" x2="1" gradientUnits="userSpaceOnUse" gradientTransform="rotate(36.9) scale(750)">
            <stop offset="0" stop-color="#fff"/>
            <stop offset="1" stop-color="#e6e6e6"/>
        </linearGradient>
        <linearGradient id="b" x2="1" gradientUnits="userSpaceOnUse" gradientTransform="rotate(53.626 -3.606 595.823) scale(98.3078)">
            <stop offset="0" stop-color="#fff" stop-opacity="0"/>
            <stop offset=".48" stop-color="#3b3b3b" stop-opacity=".039"/>
            <stop offset="1" stop-opacity=".051"/>
        </linearGradient>
    </defs>
</svg>
