<svg xmlns="http://www.w3.org/2000/svg" viewBox="0 0 16 16"><path d="M4.3 16h7.5V8.5H4.3V16zm1-6.4h5.4V15H5.3V9.6zM4.3 0v7.5h7.5V0H4.3zm6.4 6.4H5.3V1.1h5.4v5.3z" fill="#9a9999"/><path d="M8 13.4l-.9-.9-.5.5L8 14.4 9.4 13l-.5-.5-.9.9zm-1.4-1.9l.5.5.9-.9.9.9.5-.5L8 10.1l-1.4 1.4zM8 4.9L7.1 4l-.5.5L8 5.9l1.4-1.4-.5-.5-.9.9zm0-2.3l.9.9.5-.5L8 1.6 6.6 3l.5.5.9-.9z" fill="#676767"/><g fill="#fff"><path d="M5.3 1.1v5.4h5.4V1.1H5.3zM8 5.9L6.6 4.5l.5-.5.9.9.9-.9.5.5L8 5.9zm.9-2.4L8 2.6l-.9.9-.5-.5L8 1.6 9.4 3l-.5.5zM5.3 14.9h5.4V9.6H5.3v5.3zM8 10.1l1.4 1.4-.5.5-.9-.9-.9.9-.5-.5L8 10.1zm-.9 2.4l.9.9.9-.9.5.5L8 14.4 6.6 13l.5-.5z"/></g></svg>