<svg xmlns="http://www.w3.org/2000/svg" viewBox="0 0 16 16"><path d="M15 1H1v15h15V1h-1zm0 14H2V2h13v13z" fill="#676767"/><path d="M7 8H4v1h3V8zM2 2v13h13V2H2zm6 12H3v-3h5v3zm0-4H3V7h5v3zm0-4H3V3h5v3zm6 8H9v-3h5v3zm0-4H9V7h5v3zm0-4H9V3h5v3zm-7 6H4v1h3v-1zm6-4h-3v1h3V8zM7 4H4v1h3V4zm6 8h-3v1h3v-1zm0-8h-3v1h3V4z" fill="#fff"/><path d="M3 6h5V3H3v3zm1-2h3v1H4V4zm-1 6h5V7H3v3zm1-2h3v1H4V8zm-1 6h5v-3H3v3zm1-2h3v1H4v-1zm5-9v3h5V3H9zm4 2h-3V4h3v1zm-4 5h5V7H9v3zm1-2h3v1h-3V8zm-1 6h5v-3H9v3zm1-2h3v1h-3v-1z" fill="#9a9999"/></svg>