<svg xmlns="http://www.w3.org/2000/svg" viewBox="0 0 16 16"><path d="M3 15V1h6v4h4v1.6h1V4l-4-4H2v16h3v-1H3zm7-13.6L12.6 4H10V1.4z" fill="#999"/><path d="M9.5 5.7l1-.7H9l.5.7zm1-.7l2.2 1.6h.3V5h-2.5z" fill="#cbcbcb"/><path d="M5.8 9.5l.8.6V8.7l-.8.6v.2zm3.8-2.9h1.7l-.8-.6-.9.6zm4.8 2.3v1.3l.8-.6v-.1l-.8-.6z" fill="#ffe6bb"/><path d="M9.5 5.7L9 5V1H3v14h2V8.9l1.6-1.1V6.6h1.6l1.3-.9zm.5-4.3V4h2.6L10 1.4zm-2.6 6v3.3l3.1 2.3 3.1-2.2V7.4H7.4z" fill="#fff"/><path fill="#666" d="M6.6 6.6v3.5l.8.6V7.4h6.2v3.4l.8-.6V6.6z"/><path d="M9.3 12.1h2.5l1.1-.8H8.2l1.1.8zm-1.1-1.6h4.7v-.8H8.2v.8zm0-2.3V9h4.7v-.8H8.2z" fill="#b9b9b9"/><path d="M5.8 10.4v4.8l2.7-2.8-2.7-2zm6.7 2.1l2.7 2.8v-4.8l-2.7 2zm-2 1.3l-1.3-.9-2.3 2.3h7.2l-2.3-2.3-1.3.9z" fill="#ffc857"/><path d="M10.5 6l.8.6h1.4L10.5 5 8.2 6.6h1.4l.9-.6zm3.9 1.8v1.1l.8.6v.1L10.5 13 5.8 9.5v-.2l.8-.6v-1L5 8.9V16h11V8.9l-1.6-1.1zm-8.6 2.6l2.7 2-2.7 2.8v-4.8zm1.1 4.8l2.3-2.3 1.3.9 1.3-.9 2.3 2.3H6.9zm8.3.1l-2.7-2.8 2.7-2v4.8z" fill="#e8a33d"/></svg>