<svg xmlns="http://www.w3.org/2000/svg" viewBox="0 0 16 16"><path d="M4.8 8h2.9V5h-3v3h.1zM1 5h3v3H1V5zm3.7 3.5v3h3v-3h-3zM1 8.5h3v3H1v-3zM4.8 12h-.1v3h3v-3H4.8zM1 12h3v3H1v-3zm11-7h3v3h-3V5zm-.8 3h.1V5h-3v3h2.9zm-2.9.5v3h3v-3h-3zm3.7 0h3v3h-3v-3zm0 3.5h3v3h-3v-3zm-.8 0H8.3v3h3v-3h-.1zM4.8 2V1H3v3h1.8V2zM13 2V1h-1.8v3H13V2z" fill="#fff"/><path d="M12 5h-.7v3h-3V5h-.6v3h-3V5H4v3H1v.5h3v3H1v.5h3v3h.7v-3h3v3h.6v-3h3v3h.7v-3h3v-.5h-3v-3h3V8h-3V5zm-4.3 6.5h-3v-3h3v3zm3.6 0h-3v-3h3v3z" fill="#8c8c8c"/><path d="M15 2h-1V0h-3.8v2H5.7V0H2v2H0v14h16V2h-1zm-3.8 0V1H13v3h-1.8V2zM3 2V1h1.8v3H3V2zm12 6v7H1V5H15v3z" fill="#676767"/></svg>