<svg xmlns="http://www.w3.org/2000/svg" viewBox="0 0 16 16"><path d="M8.8 6.8L7.6 8l-.5-.5-.3.3.8.8.3-.3 1.2-1.2-.3-.3zm0 2.4l-1.2 1.3-.5-.5-.3.3.8.8.3-.3 1.2-1.2-.3-.4zm0 2.6L7.6 13l-.5-.5-.3.3.8.8.3-.3 1.2-1.2-.3-.3z" fill="#79a548"/><path d="M3 1v14h2V5h4V1H3zm7 3V1.4L12.6 4H10zM6 15h9V6H6v9zm3.2-7.6h5v1.2h-5V7.4zm0 2.5h5v1.2h-5V9.9zm0 2.5h5v1.2h-5v-1.2zM7.1 7.5l.5.5 1.2-1.2.3.3-1.2 1.2-.3.3-.8-.8.3-.3zm0 2.5l.5.5 1.2-1.3.3.4-1.2 1.2-.3.3-.8-.8.3-.3zm0 2.5l.5.5 1.2-1.2.3.3-1.2 1.2-.3.3-.8-.8.3-.3z" fill="#fff"/><path d="M9.2 7.4h5v1.2h-5V7.4zm0 2.5h5v1.2h-5V9.9zm0 2.5h5v1.2h-5v-1.2zM15 6v9H6V6h9m1-1H5v11h11V5z" fill="#676767"/><path d="M3 15V1h6v4h5V4l-4-4H2v16h3v-1H3zm7-13.6L12.6 4H10V1.4z" fill="#999"/></svg>