<svg xmlns="http://www.w3.org/2000/svg" viewBox="0 0 16 16"><path d="M12.9 3.8l-1.4-.4c0-.1-.1-.2-.1-.3l.7-1.2v-.2l-.7-.7c-.1-.1-.1-.1-.2 0l-1.3.6c-.1 0-.2-.1-.3-.1L9.2.1C9.2 0 9.1 0 9 0H8c-.1 0-.2 0-.2.1l-.4 1.4c-.1 0-.2.1-.3.1L5.9.9h-.2l-.8.8c-.1.1-.1.1 0 .2l.7 1.2c0 .1-.1.2-.1.3l-1.4.4c-.1 0-.1.1-.1.2v1c0 .1 0 .1.1.2l1.4.4c0 .1.1.2.1.3l-.7 1.2v.2l.7.7c.1.1.1.1.2 0L7 7.3c.1 0 .2.1.3.1l.4 1.4c.1.2.2.2.3.2h1c.1 0 .1 0 .2-.1l.4-1.4c.1 0 .2-.1.3-.1l1.2.7h.2l.7-.7c.1-.1.1-.1 0-.2L11.3 6c0-.1.1-.2.1-.3l1.4-.4c.2-.1.2-.2.2-.3V4c0-.1 0-.2-.1-.2zM8.5 6.4c-1.1 0-1.9-.9-1.9-1.9s.9-1.9 1.9-1.9c1.1 0 1.9.9 1.9 1.9s-.8 1.9-1.9 1.9zm-2.6 4.2l-.8-.6v-.2l.7-.6v-.1l-.2-.6-.1-.1-.9.1c-.1 0-.1-.1-.2-.1l.1-.9s0-.1-.1-.1l-.6-.3h-.1l-.6.8h-.2l-.7-.8h-.1l-.6.3-.1.1.1.9c0 .1-.1.1-.1.2l-1-.1s-.1 0-.1.1l-.2.6v.1l.8.6v.2l-.7.6v.1l.3.6.1.1.9-.1.2.2-.1.9s0 .1.1.1l.6.3h.1l.6-.8h.2l.6.7h.1l.6-.3.1-.1-.1-.9.2-.2.9.1s.1 0 .1-.1l.2-.7c0 .1 0 .1 0 0zm-3.4.6c-.7-.3-1-1-.7-1.7s1-1 1.7-.7 1 1 .7 1.7-1 1-1.7.7z" fill="#676767"/><path d="M15.9 12.6l-4.4-3.3v2.2H7.1v2.2h4.4v2.1l4.4-3.2z" fill="#79a548"/><path d="M8.5 2.6c-1 0-1.9.9-1.9 1.9s.8 1.9 1.9 1.9 1.9-.9 1.9-1.9-.8-1.9-1.9-1.9zm-5 6.2c-.7-.3-1.4 0-1.7.7s0 1.4.7 1.7 1.4 0 1.7-.7 0-1.4-.7-1.7z" fill="#fff"/></svg>