<svg xmlns="http://www.w3.org/2000/svg" viewBox="0 0 16 16"><path d="M2 5.3h1.6V3.7H2v1.6zm2.5 0h1.6V3.7H4.5v1.6zM7 3.7v1.6h1.6V3.7H7zm-5 8.6h1.6v-1.6H2v1.6zm2.5 0h1.6v-1.6H4.5v1.6zm2.5 0h1.6v-1.6H7v1.6z" fill="#676767"/><path d="M0 2v5h16V2H0zm15 4H1V3h14v3zM0 14h16V9H0v5zm1-4h14v3H1v-3z" fill="#9a9999"/><path d="M1 3v3h14V3H1zm2.6 2.3H2V3.7h1.6v1.6zm2.5 0H4.5V3.7h1.6v1.6zm2.5 0H7V3.7h1.6v1.6zM1 13h14v-3H1v3zm6-2.3h1.6v1.6H7v-1.6zm-2.5 0h1.6v1.6H4.5v-1.6zm-2.5 0h1.6v1.6H2v-1.6z" fill="#fff"/></svg>