<svg id="Ebene_1" xmlns="http://www.w3.org/2000/svg" viewBox="0 0 16 16"><style>.st0{fill:#efefef}.st1{opacity:.65;fill:#fff;enable-background:new}.st2{fill:#b9b9b9}.st3{fill:#79a548}.st4{opacity:.2;enable-background:new}.st5{fill:#999}</style><path class="st0" d="M2 0v16h12V4l-4-4H2z"/><path class="st1" d="M10 4V0l4 4h-4z"/><path class="st2" d="M7 7h5v1H7zM7 9h5v1H7zM7 11h5v1H7z"/><path class="st3" d="M4 7h2v1H4zM4 9h2v1H4zM4 11h2v1H4z"/><path class="st2" d="M7 13h5v1H7z"/><path class="st3" d="M4 13h2v1H4z"/><path class="st4" d="M13 5v5L9 5h4z"/><path class="st5" d="M2 0v16h12V4l-4-4H2zm1 1h6v4h4v10H3V1zm7 .4L12.6 4H10V1.4z"/></svg>