<?xml version="1.0" encoding="utf-8"?>
<!-- Generator: Adobe Illustrator 19.0.1, SVG Export Plug-In . SVG Version: 6.00 Build 0)  -->
<svg version="1.1" xmlns="http://www.w3.org/2000/svg" xmlns:xlink="http://www.w3.org/1999/xlink" x="0px" y="0px"
	 viewBox="0 0 64 64" enable-background="new 0 0 64 64" xml:space="preserve">
<g id="Background">
	<rect fill="#4C7E3A" width="64" height="64"/>
</g>
<g id="Icon">
	<path fill="#FFFFFF" d="M51,38.3c0-3.6-2.5-6.6-5.9-7.4c0.5-0.8,0.8-1.7,0.8-2.7c0-2.8-2.3-5.1-5.1-5.1c-1.3,0-2.4,0.5-3.3,1.2
		c-1.5-3.7-5.1-6.3-9.4-6.3c-5.6,0-10.1,4.5-10.1,10.1c0,0.3,0,0.6,0,0.9c-3,1.4-5.1,4.5-5.1,8c0,4.9,4,8.9,8.9,8.9h21.5
		C47.6,45.9,51,42.5,51,38.3z"/>
</g>
</svg>
