<svg xmlns="http://www.w3.org/2000/svg" viewBox="0 0 64 64"><path fill="#D04038" d="M0 0h64v64H0z"/><path fill="#FFF" d="M47.5 32c-3.4 5.3-9 9-15.5 9s-12-3.7-15.5-9c1.9-3 4.5-5.5 7.7-7.1-.8 1.4-1.2 2.9-1.2 4.5 0 5 4 9 9 9s9-4 9-9c0-1.6-.4-3.2-1.2-4.5 3.1 1.6 5.7 4.1 7.7 7.1zM33 24.3c0 .5-.4 1-1 1-2.3 0-4.2 1.9-4.2 4.2 0 .5-.4 1-1 1s-1-.4-1-1c0-3.4 2.8-6.1 6.1-6.1.6-.1 1.1.4 1.1.9zM50 32c0-.5-.2-1-.4-1.4-3.7-6.1-10.5-10.2-17.6-10.2-7.1 0-13.9 4.1-17.6 10.2-.3.4-.4.9-.4 1.4 0 .5.2 1 .4 1.4 3.7 6.1 10.5 10.2 17.6 10.2 7.1 0 13.9-4.1 17.6-10.2.3-.4.4-.9.4-1.4z"/></svg>