<?xml version="1.0" encoding="utf-8"?>
<!-- Generator: Adobe Illustrator 19.0.1, SVG Export Plug-In . SVG Version: 6.00 Build 0)  -->
<svg version="1.1" xmlns="http://www.w3.org/2000/svg" xmlns:xlink="http://www.w3.org/1999/xlink" x="0px" y="0px"
	 viewBox="0 0 64 64" enable-background="new 0 0 64 64" xml:space="preserve">
<g id="Background">
	<rect fill="#D04038" width="64" height="64"/>
</g>
<g id="Icon">
	<path fill="#FFFFFF" d="M47.5,32c-3.4,5.3-9,9-15.5,9s-12-3.7-15.5-9c1.9-3,4.5-5.5,7.7-7.1c-0.8,1.4-1.2,2.9-1.2,4.5c0,5,4,9,9,9
		s9-4,9-9c0-1.6-0.4-3.2-1.2-4.5C42.9,26.5,45.5,29,47.5,32z M33,24.3c0,0.5-0.4,1-1,1c-2.3,0-4.2,1.9-4.2,4.2c0,0.5-0.4,1-1,1
		s-1-0.4-1-1c0-3.4,2.8-6.1,6.1-6.1C32.5,23.3,33,23.8,33,24.3z M50,32c0-0.5-0.2-1-0.4-1.4C45.9,24.5,39.1,20.4,32,20.4
		c-7.1,0-13.9,4.1-17.6,10.2C14.1,31,14,31.5,14,32c0,0.5,0.2,1,0.4,1.4c3.7,6.1,10.5,10.2,17.6,10.2c7.1,0,13.9-4.1,17.6-10.2
		C49.9,33,50,32.5,50,32z"/>
</g>
</svg>
