<!-- Copyright © 2015 MODULUS Sp. z o. o. / FUTURAMO™ --><svg xmlns="http://www.w3.org/2000/svg" x="0px" y="0px" width="64px" height="64px" viewBox="0 0 64 64"><rect x="0" y="0" width="64" height="64" rx="0" ry="0" fill="#696DBB"></rect><path transform="translate(16, 16)" fill="#FFFFFF" d="M16,16c0-1.104,0.896-2,2-2c1.104,0,2,0.896,2,2c0,1.104-0.896,2-2,2C16.896,18,16,17.104,16,16z M16,20 l-4.286,2l-5.143-6L4,20.375V26h18L16,20z M6,4h26v20h-6v6H0V10h6V4z M24,12H2v16h22V12z M8,10h18v12h4V6H8V10z"></path></svg>