<!-- Copyright © 2015 MODULUS Sp. z o. o. / FUTURAMO™ --><svg xmlns="http://www.w3.org/2000/svg" x="0px" y="0px" width="64px" height="64px" viewBox="0 0 64 64"><rect x="0" y="0" width="64" height="64" rx="0" ry="0" fill="#69BBB5"></rect><path transform="translate(16, 16)" fill="#FFFFFF" d="M31.634,6.064L30.109,5.81c-0.066-0.284-0.155-0.559-0.265-0.823c-0.11-0.264-0.241-0.517-0.391-0.757 l0.9-1.259v0l0.215-0.301l-0.157-0.157l-0.105-0.105l0,0l-0.713-0.714l0,0l-0.262-0.262L29.15,1.561h0l-1.38,0.986 c-0.481-0.3-1.012-0.524-1.58-0.656l-0.254-1.525l0,0L25.875,0h-0.222h-0.148h-1.009h-0.148h-0.222l-0.036,0.219l0,0L23.81,1.891 c-0.568,0.132-1.1,0.356-1.581,0.656l-1.259-0.9l0,0l-0.302-0.216l-0.157,0.157l0,0l-0.679,0.68l-0.139,0.139l0,0l-0.105,0.105 l-0.157,0.157L19.56,2.85l0,0l0.985,1.38c-0.299,0.481-0.523,1.012-0.655,1.58l-1.671,0.278l0,0L18,6.125l0,0.222l0,0l0.001,1.305v0 l0,0.222l0.365,0.061l0,0l0.819,0.136l0.705,0.117c0.066,0.284,0.155,0.559,0.265,0.823c0.11,0.264,0.241,0.517,0.391,0.757 l-0.986,1.38l0,0l-0.129,0.181l0.157,0.157c0,0,0,0,0,0l0.924,0.922h0l0.157,0.157l0.301-0.215h0l1.259-0.899 c0.481,0.3,1.012,0.524,1.58,0.656l0.278,1.671l0,0L24.125,14h0.222h0.148h1.009h0.148h0.222l0.061-0.365l0,0l0.254-1.525 c0.569-0.132,1.1-0.356,1.581-0.656l0.998,0.713l0.261,0.187h0l0.302,0.216l0.262-0.262l0.713-0.713l0.262-0.262l-0.215-0.302l0,0 l-0.9-1.26c0.15-0.24,0.281-0.493,0.391-0.757c0.11-0.264,0.199-0.539,0.265-0.823l1.525-0.254l0,0L32,7.875V7.653V7.504V6.496 V6.347V6.125L31.634,6.064L31.634,6.064z M25,10c-1.657,0-3-1.343-3-3s1.343-3,3-3s3,1.343,3,3S26.657,10,25,10z M30,16h2v8H18v6h8 v2H6v-2h8v-6H0V0h16v2H2v20h28V16z"></path></svg>