<svg xmlns="http://www.w3.org/2000/svg" viewBox="0 0 64 64"><path fill="#EE8433" d="M0 0h64v64H0z"/><path fill-rule="evenodd" clip-rule="evenodd" fill="#FFF" d="M44.1 49.5H19.9c-1 0-1.9-.8-1.9-1.9V16.4c0-1 .8-1.9 1.9-1.9h15.5c1 0 2.5.6 3.2 1.3l6.1 5.1c.7.7 1.3 2.2 1.3 3.2v23.5c0 1.1-.8 1.9-1.9 1.9zm-.6-26.8L36.8 17c-.1-.1-.5-.3-.8-.4v7h8c-.2-.4-.3-.8-.5-.9zm.5 2.8h-8.6c-1 0-1.4-.3-1.4-1.4v-7.6H20v31h24v-22zm-19.4 4h14.8c.4 0 .6.3.6.6v.7c0 .4-.3.6-.6.6H24.6c-.4 0-.6-.3-.6-.6v-.7c0-.3.2-.6.6-.6zm0 4h14.8c.4 0 .6.3.6.6v.7c0 .4-.3.6-.6.6H24.6c-.4 0-.6-.3-.6-.6v-.7c0-.3.2-.6.6-.6zm0 4h14.8c.4 0 .6.3.6.6v.7c0 .4-.3.6-.6.6H24.6c-.4 0-.6-.3-.6-.6v-.7c0-.3.2-.6.6-.6zm0 4h14.8c.4 0 .6.3.6.6v.7c0 .4-.3.6-.6.6H24.6c-.4 0-.6-.3-.6-.6v-.7c0-.3.2-.6.6-.6z"/></svg>