<svg xmlns="http://www.w3.org/2000/svg" viewBox="0 0 64 64"><path fill="#E49139" d="M0 0h64v64H0z"/><path fill="#FFF" d="M49 23.3c-.3-.4-.8-.7-1.2-.9 0 .4 0 .8-.1 1.2l-6.3 20.6c-.2.8-1.1 1.9-1.9 1.9H20c-1.2 0-2.6-.9-3-2.1-.2-.5-.1-.3 0-.6.2-.3.5-.3.8-.3h18.3c2.7 0 3.2-1 4.2-4.2l5.7-19c.3-1 .2-2-.4-2.7-.5-.7-1.4-1.2-2.4-1.2h-16c-.4 0-.7.1-1.1.2v-.1c-2.7-.8-2.8 2.1-3.7 3.4-.3.5-.8.9-.9 1.3-.1.4.1.7.1 1.1-.1 1.1-1 3.1-1.5 3.8-.3.4-.8.6-.9 1.1-.1.3.1.8 0 1.3-.1 1-.8 2.8-1.4 3.8-.2.4-.6.7-.7 1.1-.1.4.1.8 0 1.2-.2 1.1-.9 2.8-1.6 3.8-.3.6-.8.9-.9 1.4 0 .3.1.5.1.9 0 .5-.1.9-.1 1.3-.3.8-.3 1.7 0 2.6.8 2.2 3.1 3.9 5.2 3.9h19.4c1.8 0 3.7-1.4 4.2-3.1l6-19c.3-1 .1-2-.4-2.7z"/></svg>