<?xml version="1.0" encoding="utf-8"?>
<svg version="1.1" xmlns="http://www.w3.org/2000/svg" xmlns:xlink="http://www.w3.org/1999/xlink" x="0px" y="0px"
	 viewBox="0 0 283.5 283.5" style="enable-background:new 0 0 283.5 283.5;" xml:space="preserve">
<style type="text/css">
	.content-socialmedia-st0{fill:#999999;}
</style>
<path class="content-socialmedia-st0" d="M17.7,17.8v248h248v-248L17.7,17.8L17.7,17.8z M35.4,35.5H248v212.6H35.4V35.5z"/>
<g>
	<g>
		<path d="M141.7,137.1c11.4,0,20.6-9.2,20.6-20.6s-9.2-20.6-20.6-20.6s-20.6,9.2-20.6,20.6C121.1,127.9,130.3,137.1,141.7,137.1z"
			/>
		<path d="M163.2,135.3c-5.2,6-13,9.9-21.6,9.9s-16.4-3.9-21.6-9.9c-22.2,6.7-22.7,48.3-22.7,48.3h44.2h44.2
			C185.9,183.5,185.4,142,163.2,135.3z"/>
	</g>
	<g>
		<path d="M141.7,229.2l-24.3-24.5H75.5c-11.8,0-21.4-9.6-21.4-21.4V90.8c0-11.8,9.6-21.4,21.4-21.4h132.4
			c11.8,0,21.4,9.6,21.4,21.4v92.7c0,11.8-9.6,21.4-21.4,21.4H166L141.7,229.2z M75.5,77.4c-7.4,0-13.4,6-13.4,13.4v92.7
			c0,7.4,6,13.4,13.4,13.4h45.2l20.9,21.1l20.9-21.1h45.2c7.4,0,13.4-6,13.4-13.4V90.8c0-7.4-6-13.4-13.4-13.4H75.5z"/>
	</g>
</g>
</svg>
