<?xml version="1.0" encoding="UTF-8"?><svg id="a" xmlns="http://www.w3.org/2000/svg" viewBox="0 0 64 64"><rect width="64" height="64" fill="#b45023"/><path d="M44.26,48.78c-.21-.51-.52-.75-.92-.75s-.68.15-1.16.44c-1.11.77-2.14,1.38-3.09,1.87-.93.49-2.01.89-3.22,1.2s-2.57.46-4.09.46c-3.56,0-6.69-.78-9.36-2.33-2.68-1.56-4.75-3.82-6.23-6.78-1.47-2.96-2.2-6.49-2.2-10.58s.76-7.53,2.28-10.61c1.52-3.08,3.63-5.46,6.34-7.16s5.78-2.55,9.24-2.55,4.13.31,5.72.94c1.58.61,3.12,1.49,4.63,2.61.4.32.76.48,1.09.48.76,0,1.24-1.07,1.43-3.23h1.28c-.14,2.35-.22,6.52-.22,12.5h-1.28c-.27-1.63-.52-2.9-.76-3.79-.22-.9-.49-1.67-.81-2.3s-.73-1.27-1.27-1.95c-1.14-1.41-2.57-2.48-4.31-3.19-1.74-.71-3.61-1.06-5.62-1.06s-4.56.78-6.38,2.33c-1.82,1.56-3.25,3.77-4.25,6.65s-1.5,6.26-1.5,10.13.55,7.33,1.65,10.16c1.09,2.84,2.6,4.98,4.53,6.45,1.92,1.47,4.09,2.21,6.53,2.21s3.68-.34,5.45-1.03,3.15-1.72,4.13-3.1c.76-1,1.31-2.07,1.65-3.22.33-1.17.65-2.94.97-5.37h1.28c0,6.24.08,10.59.22,13.05h-1.28c-.1-1.13-.24-1.95-.46-2.45v-.05h0Z" fill="#fff"/></svg>
