<svg xmlns="http://www.w3.org/2000/svg" viewBox="0 0 69.11 69.11"><g id="Ebene_2" data-name="Ebene 2"><g id="Ebene_1-2" data-name="Ebene 1"><rect width="69.11" height="69.11" style="fill:#5b9959"/><rect x="10.01" y="46.14" width="49.1" height="11.81" style="fill:#fff;opacity:0.5"/><polygon points="59.1 57.96 55.87 57.96 55.87 56.11 57.26 56.11 57.26 54.72 59.1 54.72 59.1 57.96" style="fill:#fff"/><path d="M51.13,58H46.4V56.11h4.73Zm-9.47,0H36.92V56.11h4.74Zm-9.47,0H27.45V56.11h4.74Zm-9.47,0H18V56.11h4.74Z" style="fill:#fff"/><polygon points="13.24 57.96 10.01 57.96 10.01 54.72 11.86 54.72 11.86 56.11 13.24 56.11 13.24 57.96" style="fill:#fff"/><rect x="10.01" y="50.83" width="1.85" height="2.45" style="fill:#fff"/><polygon points="11.86 49.38 10.01 49.38 10.01 46.14 13.24 46.14 13.24 47.99 11.86 47.99 11.86 49.38" style="fill:#fff"/><path d="M51.13,48H46.4V46.14h4.73Zm-9.47,0H36.92V46.14h4.74Zm-9.47,0H27.45V46.14h4.74Zm-9.48,0H18V46.14h4.73Z" style="fill:#fff"/><polygon points="59.1 49.38 57.26 49.38 57.26 47.99 55.87 47.99 55.87 46.14 59.1 46.14 59.1 49.38" style="fill:#fff"/><rect x="57.26" y="50.83" width="1.85" height="2.45" style="fill:#fff"/><rect x="10.01" y="28.65" width="49.1" height="11.81" style="fill:#fff;opacity:0.5"/><polygon points="59.1 40.46 55.87 40.46 55.87 38.61 57.26 38.61 57.26 37.23 59.1 37.23 59.1 40.46" style="fill:#fff"/><path d="M51.13,40.46H46.4V38.61h4.73Zm-9.47,0H36.92V38.61h4.74Zm-9.47,0H27.45V38.61h4.74Zm-9.47,0H18V38.61h4.74Z" style="fill:#fff"/><polygon points="13.24 40.46 10.01 40.46 10.01 37.23 11.86 37.23 11.86 38.61 13.24 38.61 13.24 40.46" style="fill:#fff"/><rect x="10.01" y="33.33" width="1.85" height="2.45" style="fill:#fff"/><polygon points="11.86 31.89 10.01 31.89 10.01 28.65 13.24 28.65 13.24 30.5 11.86 30.5 11.86 31.89" style="fill:#fff"/><path d="M51.13,30.5H46.4V28.65h4.73Zm-9.47,0H36.92V28.65h4.74Zm-9.47,0H27.45V28.65h4.74Zm-9.48,0H18V28.65h4.73Z" style="fill:#fff"/><polygon points="59.1 31.89 57.26 31.89 57.26 30.5 55.87 30.5 55.87 28.65 59.1 28.65 59.1 31.89" style="fill:#fff"/><rect x="57.26" y="33.33" width="1.85" height="2.45" style="fill:#fff"/><rect x="10.01" y="11.15" width="49.1" height="11.81" style="fill:#fff"/></g></g></svg>