<svg xmlns="http://www.w3.org/2000/svg" viewBox="0 0 16 16"><path fill="#FFF" d="M11 3H1v12h14V3z"/><path fill="#999" d="M1 3v12h14V3H1zm13 11H2V4h12v10z"/><path fill="#B9B9B9" d="M6 6h1v1H6zM3 6h2v7H3zM8 6h1v1H8zM10 6h1v1h-1zM12 6h1v1h-1zM6 8h1v1H6zM8 8h1v1H8z"/><path fill="#666" d="M10 8h1v1h-1z"/><path fill="#B9B9B9" d="M12 8h1v1h-1zM6 10h1v1H6zM8 10h1v1H8zM10 10h1v1h-1zM12 10h1v1h-1zM6 12h1v1H6zM8 12h1v1H8zM10 12h1v1h-1zM12 12h1v1h-1z"/><path fill="#666" d="M1 1h14v3H1z"/><path fill="#999" d="M11 1h2v1h-2zM3 1h2v1H3z"/></svg>