<svg xmlns="http://www.w3.org/2000/svg" xml:space="preserve" viewBox="0 0 16 16"><path fill="#FFF" d="M3 13V3h10v10H3z"/><path fill="#B9B9B9" d="M14 10h1v2h-1zM14 4h1v2h-1zM14 7h1v2h-1zM1 10h1v2H1zM1 4h1v2H1zM1 7h1v2H1z"/><path fill="#666" d="M3 13h10V3H3v10zm1-1V4h8v8H4z"/><path fill="#B9B9B9" d="M5 5h2v1H5zM8 5h3v1H8zM5 7h2v1H5zM8 7h3v1H8zM5 9h2v1H5zM8 9h3v1H8zM3 1H1v2h1V2h1zM4 1h2v1H4zM7 1h2v1H7zM10 1h2v1h-2zM15 1h-2v1h1v1h1zM4 14h2v1H4zM2 14v-1H1v2h2v-1zM7 14h2v1H7zM10 14h2v1h-2zM15 13h-1v1h-1v1h2z"/></svg>