<svg xmlns="http://www.w3.org/2000/svg" viewBox="0 0 16 16"><path fill="#EFEFEF" d="M2 0v16h12V4l-4-4H2z"/><path fill="#FFF" d="M10 4V0l4 4h-4z" opacity=".65"/><path fill="#B9B9B9" d="M7 7h5v1H7zM7 9h5v1H7zM7 11h5v1H7z"/><path fill="#79A548" d="M4 7h2v1H4zM4 9h2v1H4zM4 11h2v1H4z"/><path fill="#B9B9B9" d="M7 13h5v1H7z"/><path fill="#79A548" d="M4 13h2v1H4z"/><path fill="#212121" d="M13 5v5L9 5h4z" opacity=".2"/><path fill="#999" d="M2 0v16h12V4l-4-4H2zm1 1h6v4h4v10H3V1zm7 .4L12.6 4H10V1.4z"/></svg>