<svg xmlns="http://www.w3.org/2000/svg" viewBox="0 0 64 64"><path fill="#2A6190" d="M0 0h64v64H0z"/><path fill-rule="evenodd" clip-rule="evenodd" fill="#FFF" d="M49.4 26l-5.8 18.9c-.5 1.8-2.4 3.1-4.2 3.1H20c-2.1 0-4.4-1.7-5.2-3.9-.3-.9-.3-1.9 0-2.6 0-.4.1-.8.1-1.3 0-.3-.2-.6-.1-.9.1-.5.5-.9.9-1.4.6-1 1.3-2.7 1.6-3.8.1-.4-.1-.9 0-1.2.1-.4.5-.7.7-1.1.6-1 1.3-2.8 1.4-3.8 0-.4-.2-.9 0-1.3.1-.5.6-.7.9-1.1.5-.7 1.3-2.7 1.5-3.8 0-.4-.2-.7-.1-1.1.1-.4.6-.8.9-1.3.9-1.3 1.1-4.1 3.7-3.4v.1c.4-.1.7-.2 1.1-.2h16c1 0 1.9.4 2.4 1.2.5.8.7 1.7.4 2.7l-5.8 18.9c-1 3.2-1.5 4.2-4.2 4.2H17.8c-.3 0-.6.1-.8.3-.2.3-.2.1 0 .6.4 1.2 1.9 2.1 3 2.1h19.4c.8 0 1.7-1.1 1.9-1.9l6.3-20.6c.1-.4.1-.8.1-1.2.5.2.9.5 1.2.9.6.9.8 1.9.5 2.9zm-23 11h3.8c.4 0 .7-.2.8-.5l1.1-3.3c.1-.3-.1-.5-.4-.5h-3.8c-.4 0-.7.2-.8.5L26 36.4c-.1.3.1.6.4.6zm-.5-13.1l2 1.7c.1.1.2.1.3.1.2 0 .4-.1.6-.2 1.3-1 1.7-1.3 2.2-1.6.4-.2 1.1-.4 1.8-.4 1.3 0 2.2.7 1.9 1.5-.3.9-1 1.3-2.3 1.8-1.6.5-3.9 1.9-4.5 3.6l-.1.6c-.1.3.1.5.4.5H32c.4 0 .7-.2.8-.5.1-.4 1-1.2 2-1.7 1.7-.7 4.1-1.7 4.9-4.3 1-3.1-2-5.5-5.4-5.5-3.2 0-6 1.2-8.4 3.6-.2.3-.2.6 0 .8z"/></svg>