<?xml version="1.0" encoding="utf-8"?>
<!-- Generator: Adobe Illustrator 19.0.1, SVG Export Plug-In . SVG Version: 6.00 Build 0)  -->
<svg version="1.1" xmlns="http://www.w3.org/2000/svg" xmlns:xlink="http://www.w3.org/1999/xlink" x="0px" y="0px"
	 viewBox="0 0 64 64" enable-background="new 0 0 64 64" xml:space="preserve">
<g id="Background">
	<rect fill="#2A6190" width="64" height="64"/>
</g>
<g id="Icon">
	<path fill-rule="evenodd" clip-rule="evenodd" fill="#FFFFFF" d="M49.4,26l-5.8,18.9c-0.5,1.8-2.4,3.1-4.2,3.1H20
		c-2.1,0-4.4-1.7-5.2-3.9c-0.3-0.9-0.3-1.9,0-2.6c0-0.4,0.1-0.8,0.1-1.3c0-0.3-0.2-0.6-0.1-0.9c0.1-0.5,0.5-0.9,0.9-1.4
		c0.6-1,1.3-2.7,1.6-3.8c0.1-0.4-0.1-0.9,0-1.2c0.1-0.4,0.5-0.7,0.7-1.1c0.6-1,1.3-2.8,1.4-3.8c0-0.4-0.2-0.9,0-1.3
		c0.1-0.5,0.6-0.7,0.9-1.1c0.5-0.7,1.3-2.7,1.5-3.8c0-0.4-0.2-0.7-0.1-1.1c0.1-0.4,0.6-0.8,0.9-1.3c0.9-1.3,1.1-4.1,3.7-3.4l0,0.1
		c0.4-0.1,0.7-0.2,1.1-0.2h16c1,0,1.9,0.4,2.4,1.2c0.5,0.8,0.7,1.7,0.4,2.7l-5.8,18.9c-1,3.2-1.5,4.2-4.2,4.2H17.8
		c-0.3,0-0.6,0.1-0.8,0.3c-0.2,0.3-0.2,0.1,0,0.6c0.4,1.2,1.9,2.1,3,2.1h19.4c0.8,0,1.7-1.1,1.9-1.9l6.3-20.6
		c0.1-0.4,0.1-0.8,0.1-1.2c0.5,0.2,0.9,0.5,1.2,0.9C49.5,24,49.7,25,49.4,26z M26.4,37l3.8,0c0.4,0,0.7-0.2,0.8-0.5l1.1-3.3
		c0.1-0.3-0.1-0.5-0.4-0.5l-3.8,0c-0.4,0-0.7,0.2-0.8,0.5L26,36.4C25.9,36.7,26.1,37,26.4,37z M25.9,23.9l2,1.7
		c0.1,0.1,0.2,0.1,0.3,0.1c0.2,0,0.4-0.1,0.6-0.2c1.3-1,1.7-1.3,2.2-1.6c0.4-0.2,1.1-0.4,1.8-0.4c1.3,0,2.2,0.7,1.9,1.5
		c-0.3,0.9-1,1.3-2.3,1.8c-1.6,0.5-3.9,1.9-4.5,3.6L27.8,31c-0.1,0.3,0.1,0.5,0.4,0.5l3.8,0c0.4,0,0.7-0.2,0.8-0.5
		c0.1-0.4,1-1.2,2-1.7c1.7-0.7,4.1-1.7,4.9-4.3c1-3.1-2-5.5-5.4-5.5c-3.2,0-6,1.2-8.4,3.6C25.7,23.4,25.7,23.7,25.9,23.9z"/>
</g>
</svg>
