<svg xmlns="http://www.w3.org/2000/svg" viewBox="0 0 64 64"><g fill="currentColor"><path d="M46 18c-3.5-3.5-18 8-18 8h-8l-4 4 4 4 2 2-4 4 6 6 4-4 2 2 4 4 4-4v-8s11.5-14.5 8-18zM21.4 32.6L18.8 30l2-2H26l-4.6 4.6zM36 43.2l-2 2-2.6-2.6L36 38v5.2zm.5-8.5L30 41.2l-.6-.6-1.4-1.4-1.4 1.4-2.6 2.6-3.2-3.2 2.6-2.6 1.4-1.4-1.4-1.4-.6-.6 6.5-6.5c4-3.2 11.5-8.2 14.8-8.2.3 0 .5.1.5.1.9 1.2-2.5 8.1-8.1 15.3z"/><path d="M38 25c.6 0 1 .4 1 1s-.4 1-1 1-1-.4-1-1 .4-1 1-1m0-1c-1.1 0-2 .9-2 2s.9 2 2 2 2-.9 2-2-.9-2-2-2zM18 46h-2v2h2v-2zM20 44h-2v2h2v-2zM18 42h-2v2h2v-2zM22 46h-2v2h2v-2z"/></g></svg>