<svg xmlns="http://www.w3.org/2000/svg" viewBox="0 0 16 16"><path d="M8.39 14H3V2h6v3.5c0 .28.22.5.5.5H13v1.44l1 .95V5.25c0-.41-.24-.99-.53-1.28l-2.44-2.44c-.29-.29-.87-.53-1.28-.53H2.5c-.28 0-.5.22-.5.5v13c0 .28.22.5.5.5h6.94l-1.05-1zM10 2.06c.13.05.27.12.32.17l2.45 2.45c.05.05.13.19.17.32H10V2.06z"/><path d="M15.9 11.75l-1.33-1.4c-.06-.07-.15-.1-.23-.1-.18 0-.33.16-.33.35v.4h-1v-1h.4c.19 0 .35-.15.35-.33 0-.09-.04-.17-.1-.23l-1.4-1.33C12.18 8.04 12.09 8 12 8s-.18.04-.25.1l-1.4 1.33c-.07.06-.1.15-.1.23 0 .18.16.33.35.33h.4v1h-1v-.4c0-.19-.15-.35-.33-.35-.09 0-.17.04-.23.1l-1.33 1.4c-.07.08-.11.17-.11.26s.04.18.1.25l1.33 1.4c.06.07.15.1.23.1.18 0 .33-.16.33-.35V13h1v1h-.4c-.19 0-.35.15-.35.33 0 .09.04.17.1.23l1.4 1.33c.08.07.17.11.26.11s.18-.04.25-.1l1.4-1.33c.07-.06.1-.15.1-.23 0-.18-.16-.33-.35-.33H13v-1h1v.4c0 .19.15.35.33.35.09 0 .17-.04.23-.1l1.33-1.4c.07-.08.11-.17.11-.26s-.04-.18-.1-.25z"/></svg>