<svg xmlns="http://www.w3.org/2000/svg" viewBox="0 0 16 16"><path d="M15.79 8.07c-.07-.05-.15-.07-.22-.07s-.13.02-.2.05c-.05.03-.12.08-.21.13-.42.29-1.3.88-2.11.88-.22 0-.43-.05-.6-.15-.78-.43-1.71-.91-2.84-.91-1.43 0-2.96.98-3.4 1.27-.13.1-.21.26-.21.43v5.8c0 .18.08.34.22.44.07.04.14.06.21.06.07 0 .16-.02.22-.07.79-.56 2.17-1.14 3.15-1.14.84 0 1.38.31 2.07.71l.19.11c.31.18.67.27 1.07.27 1.05 0 2.07-.64 2.51-.91.05-.03.09-.05.12-.07.14-.08.24-.25.24-.44V8.5c0-.17-.08-.34-.21-.43zM15 14.2c-.4.24-1.18.68-1.86.68-.22 0-.41-.05-.57-.14l-.19-.11c-.72-.42-1.46-.85-2.57-.85-.87 0-1.93.35-2.81.78V9.95C7.76 9.47 8.79 9 9.61 9c.87 0 1.61.37 2.34.78.33.19.7.28 1.1.28.7 0 1.38-.28 1.95-.6v4.74z"/><path d="M5 14V9.7c0-.24.06-.48.17-.7H4.5c-.28 0-.5.22-.5.5V14H2V2h2v3.5c0 .28.22.5.5.5h5c.28 0 .5-.22.5-.5V2h.8c.28 0 .55.12.74.32l1.91 2c.35.37.55.87.55 1.38v2.03c.18-.1.38-.22.59-.36.01-.01.03-.02.04-.03.08-.05.14-.09.18-.12.02-.01.03-.02.05-.03.04-.02.09-.03.13-.05V5.41c0-.52-.2-1.02-.56-1.39l-2.35-2.43c-.37-.38-.88-.59-1.41-.59H1.5c-.28 0-.5.22-.5.5v13c0 .28.22.5.5.5H5v-1zM7 2.25c0-.14.11-.25.25-.25h1.5c.14 0 .25.11.25.25v2.5c0 .14-.11.25-.25.25h-1.5C7.11 5 7 4.89 7 4.75v-2.5z"/></svg>