<svg xmlns="http://www.w3.org/2000/svg" viewBox="0 0 16 16"><path d="M8 15c-3.86 0-7-3.14-7-7s3.14-7 7-7 7 3.14 7 7-3.14 7-7 7zm.18-11.67c-1.49 0-2.6.64-3.38 1.94-.08.13-.04.3.07.39l1.2.91c.05.04.11.05.17.05.08 0 .17-.04.23-.11.44-.54.62-.71.79-.83.15-.11.46-.22.78-.22.58 0 1.12.37 1.12.78 0 .47-.25.71-.8.97-.64.28-1.53 1.04-1.53 1.92v.33c0 .16.13.29.29.29h1.75c.16 0 .29-.13.29-.29 0-.21.26-.66.69-.9.69-.39 1.64-.92 1.64-2.31.01-1.67-1.74-2.92-3.31-2.92zm.99 7.29c0-.16-.13-.29-.29-.29H7.13c-.16 0-.29.13-.29.29v1.75c0 .16.13.29.29.29h1.75c.16 0 .29-.13.29-.29v-1.75z"/></svg>