<svg xmlns="http://www.w3.org/2000/svg" viewBox="0 0 16 16"><path d="M15.79 8.07c-.07-.05-.15-.07-.22-.07s-.13.02-.2.05c-.05.03-.12.08-.21.13-.23.16-.59.39-1 .58.22.28.31.64.23.99.21-.08.42-.18.61-.28v4.73c-.4.24-1.18.68-1.86.68-.22 0-.41-.05-.57-.14l-.19-.11c-.06-.03-.12-.07-.17-.1l-.42.91c.03.02.06.03.1.05l.19.11c.31.18.67.27 1.07.27 1.05 0 2.07-.64 2.51-.91.05-.03.09-.05.12-.07.12-.07.22-.24.22-.43V8.5c0-.17-.08-.34-.21-.43zM9.45 13.82c-.79.08-1.69.37-2.45.75V9.95c.33-.21.71-.41 1.1-.58l.29-1.17c-.99.31-1.87.86-2.18 1.07-.13.1-.21.26-.21.43v5.8c0 .18.08.34.22.44.07.04.14.06.21.06.07 0 .16-.02.22-.07.64-.45 1.65-.9 2.54-1.06l.26-1.05z"/><path d="M13.4 9.61l-2.92 6.26c-.04.08-.13.13-.23.13-.02 0-.05-.01-.08-.01-.12-.04-.19-.15-.16-.26l1.07-4.37-2.2.55c-.02.01-.04.01-.07.01-.06 0-.12-.02-.17-.06-.07-.05-.09-.14-.07-.21l1.09-4.46c.04-.12.13-.19.25-.19h1.77c.13 0 .24.1.24.23 0 .03-.01.07-.03.1l-.92 2.5 2.14-.53c.02-.01.04-.01.07-.01.07 0 .13.03.18.08.06.06.08.16.04.24z"/><path d="M5 14V9.7c0-.24.06-.48.17-.7H4.5c-.28 0-.5.22-.5.5V14H2V2h2v3.5c0 .28.22.5.5.5h5c.28 0 .5-.22.5-.5V2h.8c.28 0 .55.12.74.32l1.91 2c.35.37.55.87.55 1.38v2.03c.18-.1.38-.22.59-.36.01-.01.03-.02.04-.03.08-.05.14-.09.18-.12.02-.01.03-.02.05-.03.04-.02.09-.03.13-.05V5.41c0-.52-.2-1.02-.56-1.39l-2.35-2.43c-.37-.38-.88-.59-1.41-.59H1.5c-.28 0-.5.22-.5.5v13c0 .28.22.5.5.5H5v-1zM7 2.25c0-.14.11-.25.25-.25h1.5c.14 0 .25.11.25.25v2.5c0 .14-.11.25-.25.25h-1.5C7.11 5 7 4.89 7 4.75v-2.5z"/></svg>