<svg xmlns="http://www.w3.org/2000/svg" viewBox="0 0 16 16"><path d="M14.62 5.2l-1.89-1.89c-.24-.25-.63-.31-.98-.31H11V1.5c0-.28-.22-.5-.5-.5h-9c-.28 0-.5.22-.5.5v11c0 .28.22.5.5.5H5v1.5c0 .27.22.5.5.5h9c.28 0 .5-.23.5-.5V6.25c0-.35-.14-.8-.38-1.05zM3.25 3C3.11 3 3 2.89 3 2.75v-.5c0-.14.11-.25.25-.25h5.5c.14 0 .25.11.25.25v.5c0 .14-.12.25-.25.25h-5.5zM14 14H6V4h5v2.75c0 .14.11.25.25.25H14v7zm-2-8V4l2 2h-2z"/><path d="M12.93 10.14l-2.56 2.31c-.07.06-.15.07-.23.04-.07-.03-.14-.1-.14-.19V11H7V9h3V7.71c0-.08.07-.16.14-.19.08-.03.17-.02.23.03l2.56 2.28c.04.04.07.09.07.15s-.03.12-.07.16z"/></svg>