<svg xmlns="http://www.w3.org/2000/svg" viewBox="0 0 16 16"><path d="M13 13.16V14h-.84l-1 1h2.34c.28 0 .5-.22.5-.5v-2.34l-1 1zM5 14H3V2h6v3.5c0 .28.22.5.5.5h2.34l.46-.46c.41-.42 1.06-.59 1.67-.47-.05-.39-.26-.85-.51-1.1l-2.44-2.44c-.28-.29-.86-.53-1.27-.53H2.5c-.28 0-.5.22-.5.5v13c0 .28.22.5.5.5H5v-1zm5-11.94c0 .05.27.12.32.17l2.45 2.45c.05.05.12.32.17.32H10V2.06z"/><path d="M14.24 10.51L8.75 16H6v-2.75l5.49-5.49 2.75 2.75zM9 14.55L7.45 13l-.6.6v.71h.84v.84h.71l.6-.6zm2.7-5.67c-.04 0-.08.01-.11.05l-3.58 3.58c-.03.03-.05.07-.05.11 0 .09.06.14.15.14.04 0 .08-.01.11-.05l3.58-3.58c.03-.03.05-.07.05-.11 0-.08-.06-.14-.15-.14zm4.06.11l-1.1 1.1-2.75-2.75 1.1-1.09c.15-.16.37-.25.59-.25.22 0 .44.09.6.25l1.55 1.54c.16.16.25.38.25.61 0 .22-.09.44-.24.59z"/></svg>