<svg xmlns="http://www.w3.org/2000/svg" viewBox="0 0 16 16"><path d="M8.9 14H3V2h7v2.5c0 .3.2.5.5.5H13v3.1c.6.1 1 .6 1 1.2V3.9c0-.3-.1-.5-.3-.7l-1.9-1.9c-.2-.2-.4-.3-.7-.3H2.5c-.3 0-.5.2-.5.5v13c0 .3.2.5.5.5h7.3l-.9-1zM11 2l2 2h-2V2z"/><path d="M4 6h2v1H4zM7 6h2v1H7zM10 6h2v1h-2zM4 8h2v1H4zM7 8h2v1H7zM4 10h2v1H4zM7 10h2v1H7zM4 12h2v1H4zM7.8 12H7v1h1.1c-.3-.3-.3-.7-.3-1zM11.3 8H10v1h.1c.1-.6.5-1 1.2-1zM9.1 12H11V9.3c0-.2.1-.3.3-.3h1.5c.1 0 .2.1.2.3V12h2c.2 0 .3.3.2.4l-3 3.4c-.1.1-.3.1-.4 0l-2.9-3.4c-.2-.1-.1-.4.2-.4z"/></svg>