<svg xmlns="http://www.w3.org/2000/svg" viewBox="0 0 16 16"><path d="M13.46 2c.22 0 .42.14.5.33.09.2.04.44-.12.6l-4.2 4.2v6.32c0 .22-.14.42-.33.5-.08.03-.15.05-.22.05-.14 0-.28-.05-.38-.16l-2.18-2.18c-.1-.1-.16-.24-.16-.38V7.13l-4.2-4.2c-.17-.15-.22-.39-.13-.6.09-.19.28-.33.5-.33h10.92m0-1H2.54c-.61 0-1.17.37-1.42.93-.25.6-.11 1.29.35 1.72l3.89 3.89v3.73c0 .41.16.8.46 1.09L8 14.55c.26.28.66.45 1.09.45.19 0 .38-.04.57-.11.61-.26.98-.82.98-1.44v-5.9l3.91-3.91c.44-.42.58-1.1.33-1.69-.25-.58-.81-.95-1.42-.95z"/></svg>