<svg xmlns="http://www.w3.org/2000/svg" viewBox="0 0 16 16"><path d="M10 14H3V2h6v3.5c0 .28.22.5.5.5H13v1.09c.58.21 1 .76 1 1.41V5.25c0-.41-.24-.99-.53-1.28l-2.44-2.44c-.29-.29-.87-.53-1.28-.53H2.5c-.28 0-.5.22-.5.5v13c0 .28.22.5.5.5H10v-1zm0-11.94c.13.05.27.12.32.17l2.45 2.45c.05.05.13.19.17.32H10V2.06z"/><path d="M15.5 13H13v2.5c0 .28-.22.5-.5.5h-1c-.28 0-.5-.22-.5-.5V13H8.5c-.28 0-.5-.22-.5-.5v-1c0-.28.22-.5.5-.5H11V8.5c0-.28.22-.5.5-.5h1c.28 0 .5.22.5.5V11h2.5c.28 0 .5.22.5.5v1c0 .28-.22.5-.5.5z"/></svg>