<svg xmlns="http://www.w3.org/2000/svg" viewBox="0 0 64 64"><path fill="#59F" d="M0 0h64v64H0z"/><path fill="#FFF" d="M46.6 41.2c-2.815-.768-4.974-1.825-6.976-2.678-.042.543-.243 1.113-.782 1.664-1.62 1.726-4.1 3.814-6.808 3.814-2.72 0-5.288-2.115-6.88-3.817-.558-.573-.743-1.177-.762-1.738-2.007.896-4.17 1.885-6.993 2.655 0 0-3.1 1.9-3.4 8.9h36c-.2-7.1-3.4-8.8-3.4-8.8z"/><path fill="#FFF" d="M40 20.5c0-3.6-3.2-6.5-7-6.5h-2c-3.6 0-7 2.9-7 6.5v5c0 2.11 1.628 4.713 3.5 6.553-.1 5.4-1.7 5.947-.9 6.747 2.5 2.7 8.1 2.9 10.8 0 .797-.797-.59-1.3-.896-6.747 1.83-1.838 3.438-4.463 3.496-6.553v-5z"/><path fill="#FFF" d="M33.77 57.25c-.824 0-1.668-.37-2.313-1.017l-1.69-1.69c-.646-.645-1.016-1.488-1.016-2.312s.37-1.667 1.017-2.313l10.856-10.99c-.114-.567-.172-1.16-.172-1.775 0-2.33.824-4.332 2.447-5.955 1.622-1.623 3.625-2.446 5.953-2.446.778 0 1.53.152 2.196.286l.11.022.107.042c.652.26 1.177.518 1.678.77.643.228 1.06.924 1.06 1.56 0 .648-.407 1.055-.626 1.274l-.114.114-4.2 2.45v2.078l1.638.968c.177-.116.384-.254.578-.384.542-.36 1.077-.66 1.55-.925.25-.14.488-.273.71-.408 1.165-.697 1.636-.697 1.814-.697.213 0 .778 0 1.274.496l.366.366v.29c.065.136.13.285.195.48l.064.193v.203c0 .6-.18 1.403-.48 2.154-.678 1.69-1.673 2.98-3.045 3.94-1.445 1.012-3.087 1.525-4.877 1.525-.694 0-1.36-.073-1.994-.22L36.09 56.23c-.652.65-1.495 1.02-2.32 1.02z"/><path fill="#59F" d="M48.85 30c.65 0 1.3.13 1.95.26.65.26 1.17.52 1.69.78.13 0 .26.26.26.39s-.13.26-.26.39l-4.68 2.73v3.51l2.86 1.69c.13 0 .52-.26 1.3-.78s1.56-.91 2.21-1.3 1.04-.52 1.17-.52c.13 0 .26 0 .39.13 0 .13.13.26.26.65 0 .39-.13 1.04-.39 1.69-.52 1.3-1.3 2.47-2.6 3.38-1.3.91-2.73 1.3-4.16 1.3-1.95 0-3.64-.65-5.07-2.08-1.43-1.43-2.08-3.12-2.08-5.07s.65-3.64 2.08-5.07C45.21 30.65 46.9 30 48.85 30m-7.54 10.01c.39 1.04 1.04 1.95 1.82 2.73.78.91 1.69 1.43 2.73 1.82L35.2 55.35c-.39.39-.91.65-1.43.65s-1.04-.26-1.43-.65l-1.69-1.69c-.39-.39-.65-.91-.65-1.43 0-.52.26-1.04.65-1.43l10.66-10.79m-6.5 12.22c.26 0 .52 0 .65-.26.13-.13.26-.39.26-.65s0-.39-.26-.65c-.13-.13-.39-.26-.65-.26s-.39 0-.65.26c-.13.13-.26.39-.26.65s0 .39.26.65c.13.13.39.26.65.26M48.85 27.5c-2.67 0-4.972.946-6.838 2.812-1.866 1.866-2.812 4.167-2.812 6.838 0 .462.028.913.085 1.353l-10.413 10.54c-.868.868-1.372 2.033-1.372 3.187s.504 2.32 1.382 3.198l1.69 1.69c.878.878 2.044 1.382 3.198 1.382s2.32-.504 3.198-1.382l10.308-10.434c.51.077 1.034.116 1.574.116 2.022 0 3.956-.606 5.594-1.752 1.577-1.104 2.718-2.576 3.488-4.5.36-.904.57-1.858.57-2.618v-.406l-.13-.385c-.043-.134-.088-.252-.13-.355v-.54l-.733-.733c-.573-.572-1.3-.862-2.16-.862-.463 0-1.16.1-2.455.876-.213.128-.44.255-.68.388-.47.264-1 .56-1.555.925l-.35-.207v-.647l3.44-2.006.28-.163.23-.23c.27-.27.99-.99.99-2.157 0-1.114-.705-2.29-1.83-2.72-.484-.24-1.03-.507-1.69-.77l-.213-.086-.225-.045c-.725-.146-1.545-.31-2.442-.31z"/></svg>