<svg xmlns="http://www.w3.org/2000/svg" viewBox="0 0 64 64"><path fill="#59F" d="M0 0h64v64H0z"/><path fill="#FFF" d="M48.6 47c-.4 0-.8 0-1.2-.1L44.2 50H50c0-1.2-.2-2.2-.3-3.1-.4.1-.8.1-1.1.1zM32.2 50c.2-.5.5-1 .9-1.4l8.1-8.2c0-.3-.1-.6-.1-.9v-.3c-.9-.4-1.7-.7-2.5-1.1 0 .5-.1.9-.5 1.3-1.4 1.5-3.6 2.4-6.1 2.4-2.5 0-4.8-.9-6.1-2.4-.5-.5-.6-.9-.5-1.4-2.3 1-4.7 2.2-8 3.1 0 0-3.1 1.8-3.4 8.8h18.2z"/><path fill="#FFF" d="M32 34.3c-1.6 0-3.2-.9-4.5-2.2-.1 5.4-1.7 5.9-.9 6.7 2.5 2.7 8.1 2.9 10.8 0 .8-.8-.6-1.3-.9-6.8-1.3 1.3-2.9 2.3-4.5 2.3z"/><path fill="#FFF" d="M32 34.3c-3.8 0-7.7-5.2-7.7-8.8v-5c0-3.6 3.2-6.5 6.8-6.5h1.8c3.8 0 6.8 2.9 6.8 6.5v5c-.1 3.6-3.9 8.8-7.7 8.8zM37.7 51.1c-.2 0-.4-.1-.5-.2-.2-.2-.2-.3-.2-.5s.1-.4.2-.5c.2-.2.3-.2.5-.2s.4.1.5.2c.2.2.2.3.2.5s-.1.4-.2.5c-.1.2-.3.2-.5.2zm6.4-7.3c-.6-.6-1.1-1.3-1.4-2.1L34.5 50c-.3.3-.5.7-.5 1.1 0 .4.2.8.5 1.1l1.3 1.3c.3.3.7.5 1.1.5.4 0 .8-.2 1.1-.5l8.2-8.3c-.8-.3-1.5-.7-2.1-1.4zm9.7-4.2c-.1-.1-.2-.1-.3-.1-.1 0-.4.1-.9.4-.5.3-1.1.6-1.7 1-.6.4-.9.6-1 .6l-2.2-1.3v-2.7l3.6-2.1c.1-.1.2-.2.2-.3s-.1-.3-.2-.3c-.4-.2-.8-.4-1.3-.6-.5-.1-1-.2-1.5-.2-1.5 0-2.8.5-3.9 1.6S43 38 43 39.5s.5 2.8 1.6 3.9S47 45 48.5 45c1.1 0 2.2-.3 3.2-1s1.6-1.6 2-2.6c.2-.5.3-1 .3-1.3-.1-.3-.2-.4-.2-.5z"/></svg>