<svg xmlns="http://www.w3.org/2000/svg" viewBox="0 0 64 64"><path fill="#589FD2" d="M0 0h64v64H0z"/><g fill="#FFF"><path d="M37.8 51.1c-.2 0-.4-.1-.5-.2-.2-.2-.2-.3-.2-.5s.1-.4.2-.5c.2-.2.3-.2.5-.2s.4.1.5.2c.2.2.2.3.2.5s-.1.4-.2.5c-.1.2-.3.2-.5.2zm6.5-7.3c-.6-.6-1.1-1.3-1.4-2.1L34.6 50c-.3.3-.5.7-.5 1.1 0 .4.2.8.5 1.1l1.3 1.3c.3.3.7.5 1.1.5.4 0 .8-.2 1.1-.5l8.3-8.3c-.8-.3-1.5-.7-2.1-1.4zm9.8-4.2c-.1-.1-.2-.1-.3-.1-.1 0-.4.1-.9.4-.5.3-1.1.6-1.7 1-.6.4-.9.6-1 .6L48 40.2v-2.7l3.6-2.1c.1-.1.2-.2.2-.3 0-.1-.1-.3-.2-.3-.4-.2-.8-.4-1.3-.6-.5-.1-1-.2-1.5-.2-1.5 0-2.8.5-3.9 1.6s-1.6 2.4-1.6 3.9.5 2.8 1.6 3.9 2.4 1.6 3.9 1.6c1.1 0 2.2-.3 3.2-1s1.6-1.6 2-2.6c.2-.5.3-1 .3-1.3-.1-.3-.2-.4-.2-.5z"/><path fill-rule="evenodd" clip-rule="evenodd" d="M43.1 33.5c-1.6 1.6-2.5 3.7-2.5 6v.7L32.8 48s0 .1-.1.1H23c-3.3 0-5.5-2-5.5-5.3 0-4.6 1.1-11.8 7.1-11.8.6 0 3.3 2.9 7.4 2.9 4 0 6.7-2.9 7.4-2.9 2 0 3.4.8 4.4 2-.2.1-.5.2-.7.5zm-11-1.3c-4.4 0-7.9-3.5-7.9-7.9s3.5-7.9 7.9-7.9 7.9 3.5 7.9 7.9-3.6 7.9-7.9 7.9z"/></g></svg>