<svg xmlns="http://www.w3.org/2000/svg" preserveAspectRatio="xMidYMid" width="1200" height="1200" viewBox="0 0 1200 1200"><defs><style>.cls-1 { fill: #28882d; } .cls-2 { fill: #fff; fill-rule: evenodd; }</style></defs><path class="cls-1" d="M-1-3h1203v1203H-1z"/><path d="M883.593 825.16L719.466 660.624h93.495c7.076 0 13.2-2.583 18.374-7.757 5.167-5.167 7.757-11.29 7.757-18.372 0-7.075-2.59-13.2-7.756-18.373L667.206 451.587h80.43c7.076 0 13.2-2.584 18.373-7.758 5.167-5.168 7.757-11.292 7.757-18.373 0-7.075-2.59-13.2-7.758-18.373L609.23 250.306c-5.173-5.167-11.297-7.757-18.37-7.757-7.082 0-13.207 2.59-18.374 7.756L415.708 407.084c-5.174 5.174-7.757 11.298-7.757 18.373 0 7.08 2.584 13.205 7.758 18.372 5.167 5.173 11.29 7.757 18.372 7.757h80.43L350.385 616.122c-5.174 5.174-7.758 11.298-7.758 18.373 0 7.08 2.584 13.205 7.758 18.372 5.167 5.174 11.29 7.757 18.372 7.757h93.495L298.125 825.16c-5.173 5.173-7.757 11.298-7.757 18.372 0 7.08 2.584 13.205 7.757 18.373 5.167 5.173 11.292 7.757 18.373 7.757H505.12c-.274 4.625-1.09 16.535-2.45 35.724-1.364 19.19-2.04 33.95-2.04 44.298 0 6.8 2.45 12.587 7.348 17.352 4.9 4.76 10.75 7.145 17.556 7.145h130.65c6.8 0 12.655-2.385 17.555-7.144 4.898-4.765 7.348-10.55 7.348-17.352 0-10.347-.683-25.11-2.042-44.298-1.365-19.19-2.18-31.1-2.45-35.724h188.625c7.075 0 13.2-2.584 18.373-7.757 5.167-5.168 7.757-11.292 7.757-18.373 0-7.074-2.59-13.2-7.757-18.372z" class="cls-2"/></svg>