<svg xmlns="http://www.w3.org/2000/svg" viewBox="0 0 64 64"><path fill="#5D6364" d="M0 0h64v64H0z"/><path fill-rule="evenodd" clip-rule="evenodd" fill="#FFF" d="M45.3 22H44v22.5c0 2.5-1 3.5-3 3.5H23c-2 0-3-1.1-3-3.6V22h-1.3c-.4 0-.7-.3-.7-.7v-.5c0-.4.3-.7.7-.7h5.1l1.6-2c.5-1.1 1.8-2 3-2h7.3c1.2 0 2.6.9 3 2l1.6 2h5c.4 0 .7.3.7.7v.5c0 .4-.3.7-.7.7zM36 18.2c-.1-.1-.3-.2-.4-.3h-7.2c-.1 0-.3.2-.4.3L26.9 20h10.2L36 18.2zm6 3.8H22v22.5c0 1.1.6 1.5.7 1.5h18.5c.1 0 .7-.4.7-1.5V22zm-4.7 20h-.6c-.4 0-.7-.3-.7-.7V26.7c0-.4.3-.7.7-.7h.6c.4 0 .7.3.7.7v14.6c0 .4-.3.7-.7.7zm-5 0h-.6c-.4 0-.7-.3-.7-.7V26.7c0-.4.3-.7.7-.7h.6c.4 0 .7.3.7.7v14.6c0 .4-.3.7-.7.7zm-5 0h-.5c-.4 0-.7-.3-.7-.7V26.7c0-.4.3-.7.7-.7h.5c.4 0 .7.3.7.7v14.6c0 .4-.3.7-.7.7z"/></svg>