<svg xmlns="http://www.w3.org/2000/svg" viewBox="2 -3 16 16"><circle fill="#59F" cx="10" cy="5" r="8"/><path fill="#AAD400" d="M16.973 4.378c-.22-2.364-1.602-4.393-3.545-5.48-.092.097-.117.04-.117.137-.276.097-.645-.097-.922-.194-.738-.29-1.476-.29-2.122-.096-.277.097-.922.194-.646.776.184.292.645.583 1.107.195.184-.194.37-.485.645-.194.093.1.093.196.093.293-.093.29-.37.388-.646.388-.37.098-.74 0-1.11.098-.37.097-.922.194-.922.68 0 .58-.185.678-.647.775-.37 0-.552.194-.37.582.094.29.37.29.556.194.738-.39 1.384-1.36 2.214-.195l.184-.097c.185-.776.37-.29.554 0l.277.29c1.107-1.066.83.486 1.2.776-.74-.194-1.57.582-2.215.097-1.107-.87-1.845-.483-2.86.39-.83.68-1.015 1.55-.83 2.327.276.97 1.29 1.067 2.122.873.276-.098.83-.098.83.096-.185.873.83 1.455.46 2.424-.276.776.186 1.746.83 2.037.647.29 1.2-.485 1.478-1.164.092-.097 0-.29.092-.388.738-.97.646-2.424 1.568-3.394.277-.29 1.2-1.356.46-2.23 1.754-.484 1.11 1.26 1.478 2.038.276-.582.46-1.164.645-1.65.092-.29.16-.38.16-.38zM6.948-.79c.29-.306.303-.356.594-.765-.61.214-1.374.638-1.923 1.1l.167.176h.873s.097 0 .097-.1l.097-.102s.097 0 .097-.102l.097-.102.097-.103c-.29.206-.29.104-.194 0 0 .104 0 .104 0 0 0 .104 0 0 0 0h-.002zM5.666 8.65s-.096-.092 0 0c-.096-.092-.096-.092 0 0v-.276l-.096-.092c-.095 0-.095-.093-.19-.093s-.19-.094-.286-.094h-.192s-.095 0-.095-.092c-.668-.37-.953-1.015-1.144-1.752 0-.185-.095-.37-.095-.554-.095-.093-.095-.185-.19-.278-.19-.184-.095-.553.095-.922v-.184c0-.093 0-.093.095-.185 0-.09 0-.09.096-.184.19-.37.572-.646.762-.923.095-.092.095-.092.095-.184v-.093c.095-.092.095-.277.19-.37 0-.09.096-.276.096-.368 0-.186 0-.278-.097-.46-.096-.28-.154-.52-.344-.704C3.51 2.046 3 3.392 3 4.96c0 2.122.902 4.005 2.413 5.323 0 0 .06.026.06-.064v-.095c0-.092.096-.092.096-.184.095-.37.095-.92.096-1.29z"/><path opacity=".2" d="M10 13c-4.41 0-8-3.59-8-8s3.59-8 8-8 8 3.59 8 8-3.59 8-8 8zm0-15C6.14-2 3 1.14 3 5s3.14 7 7 7 7-3.14 7-7-3.14-7-7-7z"/><g><path fill="#666" d="M14.15 2h-.3c-1.172 0-2.125.937-2.125 2.088v.825c0 .434.16.91.438 1.33-.268.12-.546.24-.875.333l-.117.033-.104.06c-.17.096-1.012.692-1.065 2.33v3h8V9c-.053-1.638-.897-2.234-1.066-2.33l-.105-.06-.118-.034c-.33-.094-.608-.214-.875-.333.277-.42.438-.897.438-1.33v-.825c0-1.15-.953-2.088-2.125-2.088z"/><path fill="#FFC857" d="M16.438 7.538c-.637-.182-1.08-.432-1.525-.6-.05-.14-.153-.382-.164-.935.306-.305.526-.74.526-1.09v-.825c0-.6-.526-1.088-1.126-1.088h-.3c-.6 0-1.125.488-1.125 1.088v.825c0 .35.22.785.527 1.09-.01.553-.114.796-.164.934-.444.17-.888.42-1.525.6 0 0-.525.3-.562 1.463v1h6V9c-.038-1.162-.562-1.462-.562-1.462z"/><path fill="#AAD400" d="M16.438 7.538c-.633-.18-1.075-.428-1.515-.598.027.087.03.13-.022.185-.45.488-1.387.45-1.8 0-.054-.055-.043-.1-.01-.19-.444.17-.888.42-1.526.603 0 0-.525.3-.562 1.462v2h6V9c-.04-1.2-.564-1.462-.564-1.462z"/><g><path fill="#666" d="M11.15 4h-.3c-1.172 0-2.126.937-2.126 2.088v.825c0 .434.16.91.438 1.33-.267.12-.546.24-.875.333l-.117.033-.105.06C7.897 8.765 7.055 9.36 7 11v2h8v-2c-.053-1.638-.897-2.234-1.066-2.33l-.105-.06-.118-.034c-.33-.094-.608-.214-.875-.333.277-.42.438-.897.438-1.33v-.825c0-1.15-.953-2.088-2.125-2.088z"/><path fill="#FFC857" d="M13.438 9.538c-.637-.182-1.08-.432-1.525-.6-.05-.14-.153-.382-.164-.935.306-.305.526-.74.526-1.09v-.825c0-.6-.526-1.088-1.126-1.088h-.3c-.6 0-1.125.488-1.125 1.088v.825c0 .35.22.785.527 1.09-.01.553-.114.796-.164.934-.444.17-.888.42-1.525.6 0 0-.525.3-.562 1.463v1h6v-1c-.038-1.162-.562-1.462-.562-1.462z"/><path fill="#79A548" d="M13.438 9.538c-.633-.18-1.075-.428-1.515-.598.027.087.03.13-.022.185-.45.488-1.387.45-1.8 0-.054-.055-.043-.1-.01-.19-.444.17-.888.42-1.526.603 0 0-.525.3-.562 1.462v1h6v-1c-.04-1.2-.564-1.462-.564-1.462z"/></g></g></svg>