<svg xmlns="http://www.w3.org/2000/svg" viewBox="0 0 16 16"><path fill="#AAA" d="M.5 5.5v-5h2.293l1 1H6.5v4z"/><path fill="#666" d="M2.586 1l.707.707.293.293H6v3H1V1h1.586M3 0H0v6h7V1H4L3 0z"/><path fill="#AAA" d="M.5 15.5v-5h2.293l1 1H6.5v4z"/><path fill="#666" d="M2.586 11l.707.707.293.293H6v3H1v-4h1.586M3 10H0v6h7v-5H4l-1-1z"/><path fill="#999" d="M10 3h1v1h-1z"/><path fill="#666" d="M12 3h1v1h-1z"/><path fill="#999" d="M10 13h1v1h-1z"/><path fill="#AAA" d="M8 3h1v1H8zM8 13h1v1H8z"/><path fill="#666" d="M12 13h1v1h-1z"/><path fill="#79A548" d="M10 11L6 8.5 10 6v2h3v1h-3z"/></svg>