<svg xmlns="http://www.w3.org/2000/svg" viewBox="2 -3 16 16"><path fill="#888" d="M2-1v12h12.69V.81H7.08L5.95-1H2z"/><path fill="#666" d="M7.15-3h-.3c-1.172 0-2.126.937-2.126 2.088v.825c0 .434.16.91.438 1.33-.267.12-.546.24-.875.333l-.117.033-.105.06C3.897 1.765 3.055 2.36 3 4v5h8V4c-.053-1.638-.897-2.234-1.066-2.33l-.105-.06-.118-.034c-.33-.094-.608-.214-.875-.333.277-.42.438-.897.438-1.33v-.825C9.275-2.062 8.322-3 7.15-3z"/><path fill="#FFC857" d="M9.438 2.538c-.637-.182-1.08-.432-1.525-.6-.05-.14-.153-.382-.164-.935.306-.305.526-.74.526-1.09v-.825C8.276-1.512 7.75-2 7.15-2h-.3c-.6 0-1.125.488-1.125 1.088v.825c0 .35.22.785.527 1.09-.01.553-.114.796-.164.934-.444.17-.888.42-1.525.6 0 0-.525.3-.562 1.463v4h6V4c-.038-1.162-.562-1.462-.562-1.462z"/><path fill="#AAD400" d="M9.438 2.538c-.633-.18-1.075-.428-1.515-.598.027.087.03.13-.022.185-.45.488-1.387.45-1.8 0-.054-.055-.043-.1-.01-.19-.444.17-.888.42-1.526.603 0 0-.525.3-.562 1.462v4h6V4c-.04-1.2-.564-1.462-.564-1.462z"/><g><path fill="#666" d="M11.15-2h-.3C9.678-2 8.724-1.063 8.724.088v.825c0 .434.16.91.438 1.33-.267.12-.546.24-.875.333l-.117.033-.105.06C7.897 2.765 7.055 3.36 7 5v5h8V5c-.053-1.638-.897-2.234-1.066-2.33l-.105-.06-.118-.034c-.33-.094-.608-.214-.875-.333.277-.42.438-.897.438-1.33V.088c0-1.15-.953-2.088-2.125-2.088z"/><path fill="#FFC857" d="M13.438 3.538c-.637-.182-1.08-.432-1.525-.6-.05-.14-.153-.382-.164-.935.306-.305.526-.74.526-1.09V.088c0-.6-.526-1.088-1.126-1.088h-.3c-.6 0-1.125.488-1.125 1.088v.825c0 .35.22.785.527 1.09-.01.553-.114.796-.164.934-.444.17-.888.42-1.525.6 0 0-.525.3-.562 1.463v4h6V5c-.038-1.162-.562-1.462-.562-1.462z"/><path fill="#79A548" d="M13.438 3.538c-.633-.18-1.075-.428-1.515-.598.027.087.03.13-.022.185-.45.488-1.387.45-1.8 0-.054-.055-.043-.1-.01-.19-.444.17-.888.42-1.526.603 0 0-.525.3-.562 1.462v4h6V5c-.04-1.2-.564-1.462-.564-1.462z"/></g><path fill="#AAA" d="M10.26 3.08L8.55 4.4H4.53L2 11h12.96L18 3.08h-7.74z"/></svg>