<svg xmlns="http://www.w3.org/2000/svg" viewBox="0 0 16 16"><circle fill="#59F" cx="8" cy="8" r="8"/><path fill="#AAD400" d="M14.973 7.378c-.22-2.364-1.602-4.393-3.545-5.48-.092.097-.117.04-.117.137-.276.097-.645-.097-.922-.194-.738-.29-1.476-.29-2.122-.096-.277.097-.922.194-.646.776.184.292.645.583 1.107.195.184-.194.37-.485.645-.194.093.1.093.196.093.293-.093.29-.37.388-.646.388-.37.098-.74 0-1.11.098-.37.097-.922.194-.922.68 0 .58-.185.678-.647.775-.37 0-.552.194-.37.582.094.29.37.29.556.194.738-.39 1.384-1.36 2.214-.195l.184-.097c.185-.776.37-.29.554 0l.277.29c1.107-1.066.83.486 1.2.776-.74-.194-1.57.582-2.215.097-1.107-.87-1.845-.483-2.86.39-.83.68-1.015 1.55-.83 2.327.276.97 1.29 1.067 2.122.873.276-.098.83-.098.83.096-.185.873.83 1.455.46 2.424-.276.776.186 1.746.83 2.037.647.29 1.2-.485 1.478-1.164.092-.097 0-.29.092-.388.738-.97.646-2.424 1.568-3.394.277-.29 1.2-1.356.46-2.23 1.754-.484 1.11 1.26 1.478 2.038.276-.582.46-1.164.645-1.65.092-.29.16-.38.16-.38zM4.948 2.21c.29-.306.303-.356.594-.765-.61.214-1.374.638-1.923 1.1l.167.176h.873s.097 0 .097-.1l.097-.102s.097 0 .097-.102l.097-.102.097-.103c-.29.206-.29.104-.194 0 0 .104 0 .104 0 0 0 .104 0 0 0 0h-.002zM3.666 11.65s-.096-.092 0 0c-.096-.092-.096-.092 0 0v-.276l-.096-.092c-.095 0-.095-.093-.19-.093s-.19-.094-.286-.094h-.192s-.095 0-.095-.092c-.668-.37-.953-1.015-1.144-1.752 0-.185-.095-.37-.095-.554-.095-.093-.095-.185-.19-.278-.19-.184-.095-.553.095-.922v-.184c0-.093 0-.093.095-.185 0-.09 0-.09.096-.184.19-.37.572-.646.762-.923.095-.092.095-.092.095-.184v-.093c.095-.092.095-.277.19-.37 0-.09.096-.276.096-.368 0-.186 0-.278-.097-.46-.096-.28-.154-.52-.344-.704C1.51 5.046 1 6.392 1 7.96c0 2.122.902 4.005 2.413 5.323 0 0 .06.026.06-.064v-.095c0-.092.096-.092.096-.184.095-.37.095-.92.096-1.29z"/><path opacity=".2" d="M8 16c-4.41 0-8-3.59-8-8s3.59-8 8-8 8 3.59 8 8-3.59 8-8 8zM8 1C4.14 1 1 4.14 1 8s3.14 7 7 7 7-3.14 7-7-3.14-7-7-7z"/><g><path fill="#666" d="M10.725 5h-.45C8.818 5 7.588 6.205 7.588 7.63V8.87c0 .65.287 1.38.77 1.99-.013.118-.028.217-.045.3l-.288.128c-.44.196-.896.398-1.456.558l-.117.033-.105.06C6.135 12.06 5 12.81 5 15v1h11v-1c0-2.275-1.175-2.978-1.396-3.088l-.084-.042-.09-.026c-.56-.16-1.018-.364-1.46-.56l-.255-.113c-.02-.093-.038-.203-.053-.337.47-.606.75-1.327.75-1.966V7.63c0-1.474-1.18-2.63-2.687-2.63z"/><path fill="#FFC857" d="M14.156 12.806c-.95-.27-1.612-.642-2.272-.896-.063-.207-.214-.574-.25-1.418.454-.457.78-1.103.78-1.623V7.63c0-.9-.732-1.63-1.69-1.63h-.45c-.9 0-1.687.73-1.687 1.63V8.87c0 .525.33 1.177.79 1.635-.016.83-.172 1.194-.246 1.4-.665.255-1.33.63-2.286.903 0 0-.787.45-.844 2.194h9c-.056-1.8-.844-2.194-.844-2.194z"/><path fill="#79A548" d="M14.156 12.806c-.95-.27-1.612-.642-2.273-.897.04.13.047.196-.034.277-.676.73-2.082.675-2.7 0-.083-.082-.067-.15-.018-.284-.666.254-1.332.63-2.29.903 0 0-.786.45-.843 2.194h9c-.056-1.8-.844-2.194-.844-2.194z"/></g></svg>