<svg xmlns="http://www.w3.org/2000/svg" viewBox="0 0 16 16"><path fill="#AAA" d="M.5 4.5v-4h2.293l1 1H6.5v3"/><path fill="#666" d="M2.586 1l.707.707.293.293H6v2H1V1h1.586M3 0H0v5h7V1H4L3 0z"/><path fill="#AAA" d="M.5 10.5v-4h2.293l1 1H6.5v3"/><path fill="#666" d="M2.586 7l.707.707.293.293H6v2H1V7h1.586M3 6H0v5h7V7H4L3 6z"/><path fill="#999" d="M10 3h1v1h-1z"/><path fill="#666" d="M12 3h1v1h-1z"/><path fill="#999" d="M10 9h1v1h-1z"/><path fill="#AAA" d="M8 3h1v1H8zM8 9h1v1H8z"/><path fill="#666" d="M12 9h1v1h-1z"/><path fill="#79A548" d="M10 16l-4-2.5 4-2.5v2h4v-2h1v3h-5"/></svg>