<svg xmlns="http://www.w3.org/2000/svg" viewBox="0 0 16 16"><path fill="#FFF" d="M1 1h10v10H1V1z"/><path fill="#999" d="M10 2v8H2V2h8m1-1H1v10h10V1z"/><path fill="#FFF" d="M3 3h10v10H3V3z"/><path fill="#999" d="M12 4v8H4V4h8m1-1H3v10h10V3z"/><path fill="#999" d="M5 5h10v10H5V5z"/><path fill="#EFEFEF" d="M6 6h8v8H6V6z"/><path fill="#59F" d="M11.5 13H7l1.125-1.5L9.25 10l1.125 1.5L11.5 13z"/><path fill="#59F" d="M13 13H9l1-1 1-1 1 1 1 1z"/><circle fill="#E8A33D" cx="11.75" cy="9.25" r=".75"/></svg>