<svg xmlns="http://www.w3.org/2000/svg" viewBox="0 0 16 16"><path fill="#EFEFEF" d="M2 0v16h12V4l-4-4H2z"/><path opacity=".65" fill="#FFF" d="M10 4V0l4 4h-4z"/><path opacity=".2" d="M13 5v5L9 5h4z"/><path fill="#999" d="M2 0v16h12V4l-4-4H2zm1 1h6v4h4v10H3V1zm7 .4L12.6 4H10V1.4z"/><g><path fill="#666" d="M10.725 5h-.45C8.818 5 7.588 6.205 7.588 7.63V8.87c0 .65.287 1.38.77 1.99-.013.118-.028.217-.045.3l-.288.128c-.44.196-.896.398-1.456.558l-.117.033-.105.06C6.135 12.06 5 12.81 5 15v1h11v-1c0-2.275-1.175-2.978-1.396-3.088l-.084-.042-.09-.026c-.56-.16-1.018-.364-1.46-.56l-.255-.113c-.02-.093-.038-.203-.053-.337.47-.606.75-1.327.75-1.966V7.63c0-1.474-1.18-2.63-2.687-2.63z"/><path fill="#FFC857" d="M14.156 12.806c-.95-.27-1.612-.642-2.272-.896-.063-.207-.214-.574-.25-1.418.454-.457.78-1.103.78-1.623V7.63c0-.9-.732-1.63-1.69-1.63h-.45c-.9 0-1.687.73-1.687 1.63V8.87c0 .525.33 1.177.79 1.635-.016.83-.172 1.194-.246 1.4-.665.255-1.33.63-2.286.903 0 0-.787.45-.844 2.194h9c-.056-1.8-.844-2.194-.844-2.194z"/><path fill="#79A548" d="M14.156 12.806c-.95-.27-1.612-.642-2.273-.897.04.13.047.196-.034.277-.676.73-2.082.675-2.7 0-.083-.082-.067-.15-.018-.284-.666.254-1.332.63-2.29.903 0 0-.786.45-.843 2.194h9c-.056-1.8-.844-2.194-.844-2.194z"/></g></svg>