<svg xmlns="http://www.w3.org/2000/svg" viewBox="0 0 16 16"><path d="M2 0v16h12V4l-4-4zm8 0z" fill="#efefef" stroke="#b9b9b9" stroke-width="0" stroke-linejoin="round"/><path d="M10 3.98V0l4 4z" opacity=".65" fill="#fff" stroke-width="0" stroke-linejoin="round"/><path d="M13 5.024V10L9 5z" opacity=".15" stroke-width="0" stroke-linejoin="round"/><path d="M2 0v16h12V4h-.012l.004-.008L10.008.006 10 .014V0H2zm1 1h6v4h4v10H3V1zm7 .412L12.586 4H10V1.412z" fill="#b9b9b9"/><g stroke-width="0" stroke-linejoin="round"><path d="M3 4.333V15h8V7L8.333 4.333zm5.333 0z" fill="#b9b9b9" stroke="#b9b9b9" transform="matrix(.75 0 0 .75 2.75 1.75)"/><path d="M9 6.99V5l2 2z" opacity=".65" fill="#fff"/><path d="M11 7.012V9.5L9 7z" opacity=".15"/></g></svg>