<svg xmlns="http://www.w3.org/2000/svg" viewBox="0 0 16 16"><g opacity=".5"><path fill="#666" d="M11.733 1.412c-.615 0-1.23.236-1.7.707l-1.99 1.987c-.942.943-.942 2.46 0 3.403l.448.447c.944.943 2.46.943 3.404 0l1.988-1.988c.943-.944.943-2.46 0-3.404l-.447-.447c-.473-.472-1.087-.708-1.702-.708zm-.182 1.12c.437-.02.937.18 1.337.58.64.64.77 1.54.295 2.017l-2.127 2.126c-.477.477-1.378.347-2.018-.293s-.77-1.54-.293-2.018l2.127-2.127c.18-.18.42-.272.68-.285zM5.808 7.336c-.615 0-1.23.236-1.7.707l-1.99 1.988c-.942.944-.942 2.462 0 3.404l.448.447c.943.944 2.46.944 3.403 0l1.987-1.987c.943-.943.943-2.46 0-3.403l-.447-.447c-.473-.47-1.086-.707-1.702-.707zm-.183 1.122c.436-.022.938.18 1.338.58.64.64.77 1.54.293 2.018L5.13 13.183c-.478.477-1.377.345-2.017-.295s-.77-1.538-.295-2.016l2.127-2.127c.178-.18.418-.274.68-.287z"/><path opacity=".3" d="M8.018 7.535l.447.447c.343.343.762.557 1.2.65l1.317-1.316c-.487.43-1.35.293-1.97-.328.317-.207-1.146.2-.994.547zM7.515 8.047l.447.447c.343.343.557.762.65 1.2l-1.316 1.317c.43-.486.293-1.35-.328-1.97-.208.317.2-1.145.547-.993z"/><path fill="#999" d="M5.002 9.458l4.463-4.463c.256-.256.81-.12 1.234.306.424.426.56.98.305 1.235l-4.463 4.463c-.256.256-.81.12-1.234-.306-.425-.425-.562-.978-.306-1.234z"/></g></svg>