<svg xmlns="http://www.w3.org/2000/svg" viewBox="0 0 16 16"><path fill="#FFC857" d="M16 4v10H0V2h7l1.33 2H16z"/><path fill="#E8A33D" d="M16 5H8.33L7 7H0V4h16v1z"/><g><path fill="#666" d="M14.972 9c-.249-2.247-2.16-4-4.472-4S6.277 6.753 6.028 9H5v7h11V9h-1.028zM9.634 9a1 1 0 0 1 1.732 0H9.634z"/><path fill="#FFC857" d="M6 10h9v5H6z"/><path fill="#AAA" d="M8.5 10v-.5c0-1.103.897-2 2-2s2 .897 2 2v.5H14v-.5a3.5 3.5 0 1 0-7 0v.5h1.5z"/><path opacity=".3" d="M11.5 12a1 1 0 0 0-2 0c0 .366.206.673.5.847V14h1v-1.153a.985.985 0 0 0 .5-.847z"/></g></svg>