<svg xmlns="http://www.w3.org/2000/svg" viewBox="0 0 16 16"><g transform="matrix(.57 0 0 .57 6.29 8.002)" stroke-linecap="square" stroke-linejoin="round"><path d="M10.402-12.407c-1.077 0-2.153.413-2.977 1.237l-3.48 3.48c-1.65 1.65-1.65 4.305 0 5.954l.783.783c1.65 1.65 4.304 1.65 5.954 0l3.48-3.48c1.65-1.65 1.65-4.304 0-5.954l-.783-.783c-.826-.824-1.902-1.237-2.978-1.237zm-.318 1.962c.763-.038 1.638.315 2.338 1.015 1.12 1.12 1.35 2.692.516 3.528L9.216-2.18c-.836.835-2.41.607-3.53-.513-1.12-1.12-1.35-2.695-.514-3.53l3.722-3.723c.314-.313.732-.476 1.19-.5zM-1.715-.29C-2.79-.29-3.867.122-4.692.947l-3.48 3.48c-1.65 1.65-1.65 4.304 0 5.954l.783.784c1.65 1.65 4.306 1.65 5.955 0l3.48-3.48c1.65-1.65 1.65-4.305 0-5.954L1.262.947C.437.122-.638-.29-1.715-.29zm-.32 1.962c.762-.04 1.64.315 2.34 1.015 1.12 1.12 1.348 2.695.513 3.53L-2.904 9.94c-.836.835-2.408.604-3.528-.516s-1.35-2.692-.516-3.528l3.722-3.722c.314-.313.732-.48 1.19-.502z" fill="#b9b9b9"/><path d="M3.945-1.736l.783.783c.6.6 1.333.974 2.102 1.138L9.134-2.12c-.853.75-2.362.514-3.45-.573.555-.362-2.005.35-1.74.957zM1.27.952l.783.783c.6.6.975 1.333 1.138 2.102L.89 6.14c.75-.85.512-2.36-.575-3.448-.36.554.352-2.006.958-1.74z" opacity=".3"/><rect transform="rotate(-45)" rx="1.148" ry="2.406" y=".21" x="-4.543" height="3.812" width="13.342" fill="#b9b9b9"/></g></svg>