<svg xmlns="http://www.w3.org/2000/svg" viewBox="0 0 16 16"><g><path fill="#AAA" d="M.5 9.5v-4h2.293l1 1H6.5v3z"/><path fill="#666" d="M2.586 6l.707.707.293.293H6v2H1V6h1.586M3 5H0v5h7V6H4L3 5z"/></g><g><path fill="#AAA" d="M.5 15.5v-4h2.293l1 1H6.5v3z"/><path fill="#666" d="M2.586 12l.707.707.293.293H6v2H1v-3h1.586M3 11H0v5h7v-4H4l-1-1z"/></g><path fill="#999" d="M10 8h1v1h-1z"/><path fill="#666" d="M12 8h1v1h-1z"/><path fill="#999" d="M10 14h1v1h-1z"/><path fill="#AAA" d="M8 8h1v1H8zM8 14h1v1H8z"/><path fill="#666" d="M12 14h1v1h-1z"/><path fill="#79A548" d="M10 2h5v3h-1V3h-4v2L6 2.5 10 0z"/></svg>