<svg xmlns="http://www.w3.org/2000/svg" viewBox="0 0 16 16"><path fill="#EFEFEF" d="M2 0v16h12V4l-4-4H2z"/><path opacity=".65" fill="#FFF" d="M10 4V0l4 4h-4z"/><path opacity=".2" d="M13 5v5L9 5h4z"/><path fill="#999" d="M2 0v16h12V4l-4-4H2zm1 1h6v4h4v10H3V1zm7 .4L12.6 4H10V1.4z"/><g><path fill="#666" d="M12.15 5h-.3c-1.172 0-2.125.937-2.125 2.088v.825c0 .434.16.91.438 1.33-.268.12-.546.24-.875.333l-.117.033-.104.06C8.896 9.765 8.054 10.36 8 12v3h8v-3c-.053-1.638-.897-2.234-1.066-2.33l-.105-.06-.118-.034c-.33-.094-.608-.214-.875-.333.277-.42.438-.897.438-1.33v-.825c0-1.15-.953-2.088-2.125-2.088z"/><path fill="#FFC857" d="M14.438 10.538c-.637-.182-1.08-.432-1.525-.6-.05-.14-.153-.382-.164-.935.306-.305.526-.74.526-1.09v-.825c0-.6-.526-1.088-1.126-1.088h-.3c-.6 0-1.125.488-1.125 1.088v.825c0 .35.22.785.527 1.09-.01.553-.114.796-.164.934-.444.17-.888.42-1.525.6 0 0-.525.3-.562 1.463v1h6v-1c-.038-1.162-.562-1.462-.562-1.462z"/><path fill="#AAD400" d="M14.438 10.538c-.633-.18-1.075-.428-1.515-.598.027.087.03.13-.022.185-.45.488-1.387.45-1.8 0-.054-.055-.043-.1-.01-.19-.444.17-.888.42-1.526.603 0 0-.525.3-.562 1.462v2h6v-2c-.04-1.2-.564-1.462-.564-1.462z"/><g><path fill="#666" d="M9.15 7h-.3c-1.172 0-2.126.937-2.126 2.088v.825c0 .434.16.91.438 1.33-.267.12-.546.24-.875.333l-.117.033-.105.06c-.168.096-1.01.692-1.064 2.33v2h8v-2c-.053-1.638-.897-2.234-1.066-2.33l-.105-.06-.118-.034c-.33-.094-.608-.214-.875-.333.277-.42.438-.897.438-1.33v-.825C11.275 7.938 10.322 7 9.15 7z"/><path fill="#FFC857" d="M11.438 12.538c-.637-.182-1.08-.432-1.525-.6-.05-.14-.153-.382-.164-.935.306-.305.526-.74.526-1.09v-.825C10.276 8.488 9.75 8 9.15 8h-.3c-.6 0-1.125.488-1.125 1.088v.825c0 .35.22.785.527 1.09-.01.553-.114.796-.164.934-.444.17-.888.42-1.525.6 0 0-.525.3-.562 1.463v1h6v-1c-.038-1.162-.562-1.462-.562-1.462z"/><path fill="#79A548" d="M11.438 12.538c-.633-.18-1.075-.428-1.515-.598.027.087.03.13-.022.185-.45.488-1.387.45-1.8 0-.054-.055-.043-.1-.01-.19-.444.17-.888.42-1.526.603 0 0-.525.3-.562 1.462v1h6v-1c-.04-1.2-.564-1.462-.564-1.462z"/></g></g></svg>