<svg xmlns="http://www.w3.org/2000/svg" viewBox="0 0 16 16"><circle fill="#59F" cx="8" cy="8" r="8"/><path fill="#AAD400" d="M14.973 7.378c-.22-2.364-1.602-4.393-3.545-5.48-.092.097-.117.04-.117.137-.276.097-.645-.097-.922-.194-.738-.29-1.476-.29-2.122-.096-.277.097-.922.194-.646.776.184.292.645.583 1.107.195.184-.194.37-.485.645-.194.093.1.093.196.093.293-.093.29-.37.388-.646.388-.37.098-.74 0-1.11.098-.37.097-.922.194-.922.68 0 .58-.185.678-.647.775-.37 0-.552.194-.37.582.094.29.37.29.556.194.738-.39 1.384-1.36 2.214-.195l.184-.097c.185-.776.37-.29.554 0l.277.29c1.107-1.066.83.486 1.2.776-.74-.194-1.57.582-2.215.097-1.107-.87-1.845-.483-2.86.39-.83.68-1.015 1.55-.83 2.327.276.97 1.29 1.067 2.122.873.276-.098.83-.098.83.096-.185.873.83 1.455.46 2.424-.276.776.186 1.746.83 2.037.647.29 1.2-.485 1.478-1.164.092-.097 0-.29.092-.388.738-.97.646-2.424 1.568-3.394.277-.29 1.2-1.356.46-2.23 1.754-.484 1.11 1.26 1.478 2.038.276-.582.46-1.164.645-1.65.092-.29.16-.38.16-.38zM4.948 2.21c.29-.306.303-.356.594-.765-.61.214-1.374.638-1.923 1.1l.167.176h.873s.097 0 .097-.1l.097-.102s.097 0 .097-.102l.097-.102.097-.103c-.29.206-.29.104-.194 0 0 .104 0 .104 0 0 0 .104 0 0 0 0h-.002zM3.666 11.65s-.096-.092 0 0c-.096-.092-.096-.092 0 0v-.276l-.096-.092c-.095 0-.095-.093-.19-.093s-.19-.094-.286-.094h-.192s-.095 0-.095-.092c-.668-.37-.953-1.015-1.144-1.752 0-.185-.095-.37-.095-.554-.095-.093-.095-.185-.19-.278-.19-.184-.095-.553.095-.922v-.184c0-.093 0-.093.095-.185 0-.09 0-.09.096-.184.19-.37.572-.646.762-.923.095-.092.095-.092.095-.184v-.093c.095-.092.095-.277.19-.37 0-.09.096-.276.096-.368 0-.186 0-.278-.097-.46-.096-.28-.154-.52-.344-.704C1.51 5.046 1 6.392 1 7.96c0 2.122.902 4.005 2.413 5.323 0 0 .06.026.06-.064v-.095c0-.092.096-.092.096-.184.095-.37.095-.92.096-1.29z"/><path opacity=".2" d="M8 16c-4.41 0-8-3.59-8-8s3.59-8 8-8 8 3.59 8 8-3.59 8-8 8zM8 1C4.14 1 1 4.14 1 8s3.14 7 7 7 7-3.14 7-7-3.14-7-7-7z"/><g><path fill="#666" d="M13.05 5c-.705 0-1.37.276-1.87.776L9.824 7.134c-.518.518-.784 1.212-.77 1.913h-.05c-.704 0-1.368.276-1.868.776l-1.36 1.357c-.5.5-.775 1.165-.775 1.87 0 .705.276 1.37.777 1.87l.305.304c.5.5 1.164.776 1.87.776.704 0 1.368-.276 1.868-.776l1.358-1.358c.52-.52.785-1.215.77-1.918h.06c.7 0 1.36-.273 1.858-.77l1.358-1.358c1.03-1.03 1.03-2.708 0-3.738l-.305-.305c-.502-.5-1.165-.777-1.87-.777z"/><path fill="#DDD" d="M13.05 6c-.42 0-.84.16-1.162.483L10.53 7.84c-.644.645-.644 1.68 0 2.325l.305.305c.644.644 1.68.644 2.324 0l1.357-1.358c.644-.644.644-1.68 0-2.324l-.305-.305C13.89 6.16 13.47 6 13.05 6zm-.125.766c.298-.015.64.123.913.396.437.437.527 1.05.2 1.377L12.587 9.99c-.326.326-.94.237-1.378-.2s-.526-1.05-.2-1.378L12.46 6.96c.123-.122.287-.186.465-.194zM9.003 10.047c-.42 0-.84.16-1.162.483l-1.357 1.358c-.644.644-.644 1.68 0 2.324l.305.305c.644.644 1.68.644 2.324 0l1.358-1.358c.644-.645.644-1.68 0-2.325l-.305-.305c-.323-.322-.742-.483-1.162-.483zm-.126.766c.298-.015.64.123.914.396.438.436.527 1.05.2 1.377L8.54 14.04c-.326.326-.94.236-1.377-.2-.436-.438-.526-1.052-.2-1.378l1.453-1.453c.122-.124.286-.19.464-.197z"/><path opacity=".3" d="M10.53 10.166l.304.305c.234.235.52.382.82.445l.9-.9c-.333.294-.922.2-1.347-.223.217-.14-.782.138-.678.374zM10.17 10.532l.304.305c.234.234.38.52.444.82l-.9.9c.294-.333.2-.923-.223-1.347-.142.217.136-.782.374-.678z"/><path fill="#FFF" d="M8.452 11.496l3.05-3.05c.174-.174.552-.08.842.21.29.29.384.668.21.843l-3.05 3.048c-.175.175-.553.08-.843-.21-.29-.29-.383-.667-.208-.842z"/></g></svg>