<svg xmlns="http://www.w3.org/2000/svg" viewBox="0 0 16 16"><g opacity=".5"><path fill="#EFEFEF" d="M2 0v16h12V4l-4-4H2z"/><path opacity=".65" fill="#FFF" d="M10 4V0l4 4h-4z"/><path opacity=".2" d="M13 5v5L9 5h4z"/><path fill="#999" d="M2 0v16h12V4h-.012l.004-.008L10.008.006 10 .014V0H2zm1 1h6v4h4v10H3V1zm7 .412L12.586 4H10V1.412z"/></g><path fill="#639" d="M5 5h11v11H5z"/><path opacity=".3" d="M15 6v9H6V6h9m1-1H5v11h11V5z"/><path fill="#FFF" d="M10 8h1v5h-1z"/><path fill="#FFF" d="M8 10h5v1H8z"/></svg>