<svg xmlns="http://www.w3.org/2000/svg" viewBox="0 0 16 16"><g opacity=".5"><path fill="#EFEFEF" d="M2 0v16h12V4l-4-4H2z"/><path opacity=".65" fill="#FFF" d="M10 4V0l4 4h-4z"/><path opacity=".2" d="M13 5v5L9 5h4z"/><path fill="#999" d="M2 0v16h12V4l-4-4H2zm1 1h6v4h4v10H3V1zm7 .4L12.6 4H10V1.4z"/></g><path fill="#666" d="M12.15 5h-.3c-1.172 0-2.125.937-2.125 2.088v.825c0 .434.161.91.438 1.33a6.483 6.483 0 0 1-.875.333l-.117.033-.105.06c-.169.097-1.012.693-1.065 2.331L8 15h8v-3c-.053-1.638-.897-2.234-1.066-2.331l-.105-.06-.117-.033a6.432 6.432 0 0 1-.875-.333c.277-.42.438-.897.438-1.33v-.825C14.276 5.937 13.322 5 12.15 5z"/><path fill="#FFC857" d="M14.438 10.538c-.637-.182-1.081-.432-1.525-.601-.049-.138-.153-.381-.164-.934.307-.305.527-.74.527-1.09v-.825c0-.6-.526-1.088-1.126-1.088h-.3c-.6 0-1.125.488-1.125 1.088v.825c0 .35.22.785.527 1.09-.01.553-.114.796-.164.934-.444.169-.888.419-1.525.601 0 0-.525.3-.562 1.462v1h6v-1c-.039-1.162-.563-1.462-.563-1.462z"/><path fill="#ABD7FF" d="M14.438 10.538c-.633-.181-1.075-.428-1.515-.598.027.087.031.131-.022.185-.45.488-1.388.45-1.8 0-.055-.055-.044-.099-.011-.189-.444.169-.888.419-1.526.602 0 0-.525.3-.562 1.462v2h6v-2c-.04-1.2-.564-1.462-.564-1.462z"/><g><path fill="#666" d="M9.15 7h-.3c-1.172 0-2.126.937-2.126 2.088v.825c0 .434.161.91.438 1.33a6.432 6.432 0 0 1-.875.333l-.117.033-.105.06c-.168.097-1.011.693-1.064 2.331L5 16h8v-2c-.053-1.638-.897-2.234-1.066-2.331l-.105-.06-.117-.033a6.432 6.432 0 0 1-.875-.333c.277-.42.438-.897.438-1.33v-.825C11.276 7.937 10.322 7 9.15 7z"/><path fill="#FFC857" d="M11.438 12.538c-.637-.182-1.081-.432-1.525-.601-.049-.138-.153-.381-.164-.934.307-.305.527-.74.527-1.09v-.825C10.276 8.488 9.75 8 9.15 8h-.3c-.6 0-1.125.488-1.125 1.088v.825c0 .35.22.785.527 1.09-.01.553-.114.796-.164.934-.444.169-.888.419-1.525.601 0 0-.525.3-.562 1.462v1h6v-1c-.039-1.162-.563-1.462-.563-1.462z"/><path fill="#59F" d="M11.438 12.538c-.633-.181-1.075-.428-1.515-.598.027.087.031.131-.022.185-.45.488-1.388.45-1.8 0-.055-.055-.044-.099-.011-.189-.444.169-.888.419-1.526.602 0 0-.525.3-.562 1.462v1h6v-1c-.04-1.2-.564-1.462-.564-1.462z"/></g></svg>