<svg xmlns="http://www.w3.org/2000/svg" viewBox="0 0 16 16"><g opacity=".55"><path d="M2 0v16h12V4l-4-4zm8 0z" fill="#fff"/><path d="M10 3.98V0l4 4z" opacity=".65" fill="#fff"/><path d="M13 5.024V10L9 5z" opacity=".15"/><path d="M2 0v16h12V4h-.012l.004-.008L10.008.006 10 .014V0H2zm1 1h6v4h4v10H3V1zm7 .412L12.586 4H10V1.412z" fill="#b9b9b9"/></g><g opacity=".55"><path d="M5 5v8h6V7L9 5zm4 0z" fill="#efefef"/><path d="M9 6.99V5l2 2z" opacity=".65" fill="#fff"/><path d="M10.5 7.512V10l-2-2.5z" opacity=".15"/><path d="M5 5v8h6V7h-.006l.002-.004-1.992-1.993L9 5.007V5H5zm.5.5h3v2h2v5h-5v-7zm3.5.206L10.293 7H9V5.706z" fill="#b9b9b9"/></g></svg>