<svg xmlns="http://www.w3.org/2000/svg" viewBox="0 0 16 16"><g fill="currentColor"><path d="M4.034 2.67C5.64 3.874 7.367 6.316 8 7.628c.633-1.309 2.36-3.751 3.966-4.956C13.124 1.8 15 1.13 15 3.27c0 .426-.245 3.589-.388 4.103-.5 1.782-2.321 2.239-3.941 1.961 2.83.482 3.55 2.077 1.994 3.672-2.954 3.031-4.244-.759-4.574-1.73-.047-.135-.072-.214-.091-.214s-.044.082-.09.214c-.33.971-1.624 4.761-4.575 1.73-1.554-1.595-.836-3.19 1.994-3.672-1.62.278-3.44-.179-3.938-1.964C1.245 6.857 1 3.694 1 3.268c0-2.14 1.876-1.47 3.034-.6v.003Z"/></g></svg>