<svg xmlns="http://www.w3.org/2000/svg" xml:space="preserve" viewBox="0 0 16 16"><g fill="currentColor"><path d="M14 6h-3v1h3v7H7v-3H6v3a1 1 0 0 0 1 1h7a1 1 0 0 0 1-1V7a1 1 0 0 0-1-1z"/><path d="M12.5 12a.5.5 0 1 0 0 1 .5.5 0 0 0 0-1zM12.5 8a.5.5 0 1 0 0 1 .5.5 0 0 0 0-1zM8.5 12a.5.5 0 1 0 0 1 .5.5 0 0 0 0-1zM9 2v7H2V2h7m0-1H2a1 1 0 0 0-1 1v7a1 1 0 0 0 1 1h7a1 1 0 0 0 1-1V2a1 1 0 0 0-1-1z"/><path d="M7.5 3a.5.5 0 1 0 0 1 .5.5 0 0 0 0-1zM5.5 5a.5.5 0 1 0 0 1 .5.5 0 0 0 0-1zM3.5 7a.5.5 0 1 0 0 1 .5.5 0 0 0 0-1z"/></g></svg>