<svg xmlns="http://www.w3.org/2000/svg" viewBox="0 0 16 16"><g class="icon-color"><path d="M2 14V2h12v3.289a3.84 3.84 0 0 1 1 .603V1.5a.5.5 0 0 0-.5-.5h-13a.5.5 0 0 0-.5.5v13a.5.5 0 0 0 .5.5H7v-1H2zm1-6v1h4.9v-.111c0-.308.042-.603.108-.889H3zm0-2v1h5.589c.21-.378.475-.715.796-1H3zm0-1h10V3H3v2zm12 5v-.5C15 8.1 13.9 7 12.5 7S10 8.1 10 9.5v.5H9v6h7v-6h-1zm-2 3.9V15h-1v-1.1c-.6-.2-1-.8-1-1.4 0-.8.7-1.5 1.5-1.5s1.5.7 1.5 1.5c0 .7-.4 1.2-1 1.4zM11 10v-.5c0-.8.7-1.5 1.5-1.5s1.5.7 1.5 1.5v.5h-3zm-7.94 2H7v1H3.06v-1zm0-2H7v1H3.06v-1z"/></g></svg>