<svg xmlns="http://www.w3.org/2000/svg" viewBox="0 0 16 16"><g fill="currentColor"><path d="M8.112 15.25h-.004c-2.163-.015-3.826-.728-4.944-2.12-.995-1.24-1.507-2.964-1.525-5.125v-.01c.018-2.162.53-3.885 1.525-5.124C4.281 1.478 5.944.765 8.108.75h.008c1.658.011 3.046.438 4.124 1.267 1.014.78 1.727 1.89 2.12 3.303l-1.232.344c-.666-2.392-2.354-3.615-5.016-3.635-1.758.013-3.087.565-3.951 1.642C3.35 4.68 2.933 6.136 2.918 8c.016 1.865.434 3.321 1.243 4.329.864 1.077 2.193 1.629 3.95 1.642 1.585-.012 2.634-.381 3.506-1.235.995-.975.977-2.171.658-2.898-.187-.43-.528-.786-.987-1.057-.115.816-.375 1.478-.776 1.977-.534.665-1.293 1.03-2.252 1.081-.727.04-1.427-.133-1.97-.484-.642-.416-1.018-1.052-1.058-1.791-.04-.72.246-1.38.803-1.862.532-.46 1.28-.73 2.164-.78a8.28 8.28 0 0 1 1.824.087c-.074-.449-.226-.804-.451-1.061-.31-.354-.79-.534-1.426-.539h-.018c-.51 0-1.203.14-1.644.797l-1.062-.714c.591-.878 1.551-1.362 2.706-1.362h.026c1.93.012 3.08 1.193 3.194 3.255.066.028.13.056.194.086.9.423 1.56 1.065 1.905 1.854.481 1.101.526 2.895-.936 4.325-1.116 1.094-2.472 1.587-4.395 1.6h-.004v.001zm.606-7.064a7.6 7.6 0 0 0-.446.013c-1.11.063-1.8.571-1.762 1.295.041.758.878 1.11 1.682 1.067.74-.04 1.703-.327 1.864-2.241a6.428 6.428 0 0 0-1.338-.134z"/></g></svg>