<svg xmlns="http://www.w3.org/2000/svg" viewBox="0 0 16 16"><g class="icon-color"><path d="M14 2H2a1 1 0 0 0-1 1v10a1 1 0 0 0 1 1h12a1 1 0 0 0 1-1V3a1 1 0 0 0-1-1zm0 1v3H2V3h12zM2 13V7h12v6H2z"/><path d="M3.75 5h-.5A.25.25 0 0 1 3 4.75v-.5A.25.25 0 0 1 3.25 4h.5a.25.25 0 0 1 .25.25v.5a.25.25 0 0 1-.25.25zM5.75 5h-.5A.25.25 0 0 1 5 4.75v-.5A.25.25 0 0 1 5.25 4h.5a.25.25 0 0 1 .25.25v.5a.25.25 0 0 1-.25.25zM7.75 5h-.5A.25.25 0 0 1 7 4.75v-.5A.25.25 0 0 1 7.25 4h.5a.25.25 0 0 1 .25.25v.5a.25.25 0 0 1-.25.25z"/></g></svg>