<svg xmlns="http://www.w3.org/2000/svg" viewBox="0 0 16 16"><g class="icon-color"><path d="M13.7 3.2l-1.9-1.9c-.2-.2-.4-.3-.7-.3H2.5c-.3 0-.5.2-.5.5v13c0 .3.2.5.5.5h11c.3 0 .5-.2.5-.5V3.9c0-.3-.1-.5-.3-.7zM13 14H3V2h7v2.5c0 .3.2.5.5.5H13v9zM11 4V2l2 2h-2z"/><path d="M12 10.2c0-.1-.1-.1-.1-.2-.2-.2-.5-.2-1.1-.2-.4 0-.8 0-1.3.1-.2-.2-.4-.3-.5-.5-.5-.4-.9-1-1.1-1.6v-.2s.3-1.4.2-1.9v-.2c-.1-.2-.2-.3-.4-.3h-.1c-.3 0-.5.1-.6.3-.1.5.1 1.4.3 2.5v.2c-.2.5-.5 1-.7 1.5v.1c-.2.5-.5.9-.7 1.2h-.2l-.4.2c-.7.4-1.2.9-1.2 1.3 0 .1 0 .3.1.3l.2.1c0 .1.1.1.2.1.5 0 1.1-.6 1.9-2 .9-.3 2-.5 2.9-.7.7.4 1.5.7 2.1.7h.2c.1 0 .2-.1.2-.2.1-.2.1-.4.1-.6zm-7.5 2.4c.1-.2.4-.7 1-1.2l.2-.2c-.6 1-1 1.3-1.2 1.4zm3.1-7.2c.2 0 .2.4.3.8 0 .4-.1.6-.2.8-.1-.3-.2-.7-.2-1 0 0 0-.6.1-.6zm-.9 5.2L7 10c.3-.5.5-1 .6-1.3.3.5.6.9 1 1.2 0 0 .1.1.2.1-.8.1-1.5.3-2.1.6zm5-.1h-.3c-.3 0-.6-.1-1.1-.3h.5c.3 0 .4 0 .7.1s.3.2.2.2z"/></g></svg>