<svg xmlns="http://www.w3.org/2000/svg" viewBox="0 0 16 16"><g class="icon-color"><path d="M5.9 6.4c.2.2.4.6.4 1.1 0 1.2-1 2-2.4 2-.4 0-.7 0-.9-.1l-.3.5 1.1.1c1.9.1 3.1.2 3.1 1.7 0 1.3-1.1 2-3.1 2S1 13.2 1 12.3c0-.5.2-.8.6-1.1-.4-.2-.5-.4-.5-.7 0-.2.1-.5.3-.7.2-.3.5-.5.7-.8-.5-.3-1-.8-1-1.7 0-1.3.8-2.2 2.5-2.2.5 0 .8 0 1 .1h2.2v.9l-.9.3zm-3.3 5c-.1.2-.3.4-.3.6 0 .4.6.6 1.3.6.6 0 1.5 0 1.5-.6 0-.4-.4-.4-1-.4l-1.5-.2zm1.2-5.1c-.6 0-1.1.3-1.1 1 0 .5.3.9 1 .9.6 0 1-.4 1-.9.1-.6-.2-1-.9-1zM7.4 11v-.9H8c.2 0 .2-.1.2-.2V6.6c0-.1 0-.2-.1-.2l-.7-.3.1-.9h2.3v4.6c0 .2 0 .2.2.2l.6.1v.9H7.4zm1.5-6.7c-.6 0-1-.4-1-1s.4-1 1-1 1 .3 1 1-.4 1-1 1zM15 10.6c-.5.2-1.2.4-1.8.4-1.3 0-1.8-.5-1.8-1.8V6.3c0-.1 0-.1-.1-.1h-.8v-1c1-.1 1.4-.6 1.5-1.8h1V5c0 .1 0 .1.1.1h1.6v1.1H13v2.7c0 .7.2.9.8.9.3 0 .6-.1.9-.2l.3 1z"/></g></svg>