<svg xmlns="http://www.w3.org/2000/svg" viewBox="0 0 16 16"><g class="icon-color"><path d="M8 1C4.14 1 1 4.14 1 8s3.14 7 7 7 7-3.14 7-7-3.14-7-7-7zm0 13.125a6.09 6.09 0 0 1-4.005-1.502c.012.003.045.01.045-.056v-.082c0-.081.083-.081.083-.161.084-.324.084-.807.084-1.129l.001-.001v-.241l-.084-.08c-.083 0-.083-.081-.166-.081s-.166-.081-.25-.081H3.54s-.083 0-.083-.081c-.584-.325-.834-.89-1.001-1.534 0-.162-.083-.324-.083-.485-.082-.082-.082-.162-.166-.244-.167-.161-.083-.483.084-.806V7.4c0-.081 0-.081.083-.162 0-.079 0-.079.084-.16.166-.324.5-.565.667-.808.083-.08.083-.08.083-.161v-.08c.083-.081.083-.242.166-.324 0-.079.084-.242.084-.322 0-.162 0-.242-.084-.402-.083-.241-.135-.449-.297-.61.315-.426.68-.811 1.092-1.143l.145.152h.764s.085 0 .085-.088l.085-.09s.085 0 .085-.089l.084-.089.085-.09c-.254.179-.254.09-.17 0h-.003c.251-.265.267-.313.513-.659A6.09 6.09 0 0 1 8 1.875c1.088 0 2.109.289 2.996.789-.077.079-.099.034-.099.117-.242.085-.565-.085-.808-.17a2.821 2.821 0 0 0-1.856-.085c-.243.085-.807.17-.566.679.161.256.564.51.969.171.161-.17.324-.424.564-.17.081.086.081.171.081.255-.081.254-.324.34-.565.34-.324.085-.648 0-.97.085-.323.085-.806.17-.806.595 0 .508-.162.593-.566.678-.324 0-.484.17-.324.509.081.254.324.254.486.17.646-.34 1.211-1.188 1.937-.17l.161-.085c.162-.679.324-.254.485 0l.242.254c.969-.933.726.425 1.05.679-.647-.17-1.374.509-1.938.085-.969-.763-1.615-.424-2.503.339-.726.595-.888 1.358-.726 2.037.241.849 1.129.934 1.856.764.242-.086.726-.086.726.084-.162.764.726 1.273.403 2.121-.242.679.163 1.528.726 1.782.566.254 1.05-.424 1.293-1.019.08-.085 0-.254.08-.34.646-.849.565-2.121 1.372-2.97.242-.254 1.05-1.187.403-1.951 1.535-.424.971 1.103 1.293 1.782.241-.509.402-1.019.564-1.444.074-.232.127-.314.136-.327.017.18.029.359.029.541A6.132 6.132 0 0 1 8 14.125zm-3.818-2.956c-.01-.01-.012-.012 0 0z"/></g></svg>