<svg xmlns="http://www.w3.org/2000/svg" viewBox="0 0 16 16"><g class="icon-color"><path d="M8 1C4.1 1 1 4.1 1 8s3.1 7 7 7 7-3.1 7-7-3.1-7-7-7zm.995 11.75a.25.25 0 0 1-.25.25h-1.5a.25.25 0 0 1-.25-.25v-1.5a.25.25 0 0 1 .25-.25h1.5a.25.25 0 0 1 .25.25v1.5zm.486-4.152a.983.983 0 0 0-.486.835v.317a.25.25 0 0 1-.25.25h-1.5a.25.25 0 0 1-.25-.25v-.317c0-1.117.612-2.086 1.518-2.6A.983.983 0 0 0 8.995 6a1.002 1.002 0 0 0-1.976-.222c-.028.124-.12.222-.247.222H5.261c-.144 0-.267-.124-.255-.267a3.003 3.003 0 0 1 3.54-2.683 3.01 3.01 0 0 1 2.4 2.401 2.99 2.99 0 0 1-1.465 3.147z"/></g></svg>