<svg xmlns="http://www.w3.org/2000/svg" viewBox="0 0 16 16"><g class="icon-color"><path d="M9.3 7.7c-.4 0-.7.3-.7.8 0 .4.3.8.7.8.4 0 .7-.3.7-.8s-.4-.8-.7-.8zm-2.5 0c-.4 0-.7.3-.7.8 0 .4.3.8.7.8.4 0 .7-.3.7-.8s-.4-.8-.7-.8z"/><path d="M12.6 2H3.4C2.6 2 2 2.6 2 3.4v9.2c0 .8.6 1.4 1.4 1.4h7.8l-.4-1.3.9.8.8.8 1.5 1.3V3.4c0-.8-.6-1.4-1.4-1.4zm-2.7 8.9s-.2-.3-.5-.5c.9-.3 1.2-.8 1.2-.8-.3.2-.5.3-.8.4-.3.1-.7.2-1 .3-.7.1-1.3.1-1.8 0-.4-.1-.7-.2-1-.3 0-.1-.2-.2-.3-.3h-.1l-.2-.2s.3.5 1.2.8c-.2.3-.5.6-.5.6-1.5 0-2.1-1-2.1-1 0-2.2 1-4 1-4 1-.7 1.9-.7 1.9-.7l.1.1c-1.2.3-1.8.8-1.8.8s.2 0 .4-.1c.7-.3 1.3-.4 1.6-.4h.1c.4-.1.9-.1 1.4 0 .7.1 1.4.3 2.1.7 0 0-.5-.5-1.7-.9l.1-.1s.9 0 1.9.7c0 0 1 1.8 1 4-.1-.2-.6.8-2.2.9z"/></g></svg>