<svg xmlns="http://www.w3.org/2000/svg" viewBox="0 0 16 16"><g class="icon-color"><path d="M14.5 2h-13c-.3 0-.5.2-.5.5v9c0 .3.2.5.5.5H6v1H4v1h8v-1h-2v-1h4.5c.3 0 .5-.2.5-.5v-9c0-.3-.2-.5-.5-.5zm-.5 9H2V3h12v8z"/><path d="M10 8.75c-.5-.188-.875-.375-1.25-.5 0-.062-.125-.312-.125-.75.25-.25.438-.625.438-.875v-.75C9.062 5.375 8.688 5 8.125 5h-.25c-.5 0-.938.375-.938.875v.688c0 .312.188.688.438.938 0 .438-.125.688-.125.75-.375.124-.75.311-1.25.499-.312.188-.5.25-.5 1.25h5c0-1-.188-1.125-.5-1.25z"/></g></svg>