<svg xmlns="http://www.w3.org/2000/svg" viewBox="0 0 16 16"><g class="icon-color"><path d="M13 2v6c0 3.067-3.749 5.246-5 5.888C6.747 13.246 3 11.066 3 8V2h10m1-1H2v7c0 4.375 6 7 6 7s6-2.625 6-7V1z"/><path d="M9.672 8.38c-.087.044-.174.044-.261.044-.783 0-1.913-2.696-1.913-3.609 0-.348.087-.435.174-.522-.913.131-2.044.479-2.392.914-.087.086-.13.26-.13.478 0 1.435 1.478 4.609 2.565 4.609.478-.001 1.305-.783 1.957-1.914M9.193 4.207c.957 0 1.957.174 1.957.696 0 1.13-.696 2.478-1.087 2.478-.652 0-1.435-1.783-1.435-2.696 0-.392.174-.478.565-.478"/></g></svg>