<svg xmlns="http://www.w3.org/2000/svg" viewBox="0 0 16 16"><g class="icon-color"><path d="M15 10v4h-3.2l-.8.4V14H8v-4m-1-.5v5a.5.5 0 0 0 .5.5H10v1l1.9-.9c.1-.1.1-.1.2-.1h3.4a.5.5 0 0 0 .5-.5v-5a.5.5 0 0 0-.5-.5h-8a.5.5 0 0 0-.5.5z"/><path d="M12.249 4.025A4.502 4.502 0 0 0 8.5 2H5.723A1.994 1.994 0 1 0 3 4.723v6.555c-.595.346-1 .984-1 1.722a2 2 0 1 0 4 0c0-.738-.405-1.376-1-1.723V4.723c.3-.175.548-.423.723-.723H8.5c.745 0 1.407.334 1.866.853A1.98 1.98 0 0 0 10 6a2 2 0 1 0 4 0 1.994 1.994 0 0 0-1.751-1.975zM4 14c-.551 0-1-.449-1-1s.449-1 1-1 1 .449 1 1-.449 1-1 1zM4 4c-.551 0-1-.449-1-1s.449-1 1-1 1 .449 1 1-.449 1-1 1zm8 3c-.551 0-1-.449-1-1s.449-1 1-1 1 .449 1 1-.449 1-1 1z"/></g></svg>