<svg xmlns="http://www.w3.org/2000/svg" viewBox="0 0 16 16"><g class="icon-color"><path d="M10.757 9.343l3.182-3.182-2.506-1.253a.499.499 0 0 0-.577.094l-.664.664-2.758-1.485.849-.849-1.768-1.767a.5.5 0 0 0-.707 0L1.565 5.808a.5.5 0 0 0 0 .707l1.768 1.768.849-.849 1.485 2.758-.664.664a.5.5 0 0 0-.094.577l1.253 2.506 3.182-3.182L13.586 15H15v-1.414l-4.243-4.243zM3.333 6.868l-.707-.707 3.535-3.536.707.707-3.535 3.536zm1.586-.172L6.695 4.92l2.758 1.485-3.049 3.048-1.485-2.757zm1.045 4.612l5.345-5.345.943.471-5.816 5.816-.472-.942z"/></g></svg>