<svg xmlns="http://www.w3.org/2000/svg" viewBox="0 0 16 16"><path d="M11 3v10H5V3h6m.5-1h-7a.5.5 0 0 0-.5.5v11a.5.5 0 0 0 .5.5h7a.5.5 0 0 0 .5-.5v-11a.5.5 0 0 0-.5-.5z"/><g class="icon-color"><path d="M4 9H2.5a.5.5 0 0 1-.5-.5v-1a.5.5 0 0 1 .5-.5H4v2zM4 3H2.5a.5.5 0 0 0 0 1H4V3zM4 5H2.5a.5.5 0 0 0 0 1H4V5zM4 10H2.5a.5.5 0 0 0 0 1H4v-1zM4 12H2.5a.5.5 0 0 0 0 1H4v-1zM12 9h1.5a.5.5 0 0 0 .5-.5v-1a.5.5 0 0 0-.5-.5H12v2zM12 3h1.5a.5.5 0 0 1 0 1H12V3zM12 5h1.5a.5.5 0 0 1 0 1H12V5zM12 10h1.5a.5.5 0 0 1 0 1H12v-1zM12 12h1.5a.5.5 0 0 1 0 1H12v-1z"/></g></svg>