<svg xmlns="http://www.w3.org/2000/svg" viewBox="0 0 16 16"><g class="icon-color"><path d="M12.589 7.231c.111-.413.661-.783.661-1.231 0-.448-.55-.817-.661-1.23-.114-.427.174-1.021-.042-1.395-.219-.379-.88-.425-1.188-.733-.308-.308-.354-.969-.733-1.188a.715.715 0 0 0-.371-.084c-.25 0-.531.069-.784.069a.947.947 0 0 1-.241-.028C8.818 1.3 8.448.75 8 .75c-.448 0-.817.55-1.23.661a.94.94 0 0 1-.24.028c-.253 0-.534-.069-.784-.069a.725.725 0 0 0-.371.083c-.379.219-.425.88-.733 1.188s-.969.353-1.189.733c-.216.374.072.968-.042 1.395C3.3 5.182 2.75 5.552 2.75 6c0 .448.55.817.661 1.23.114.427-.174 1.022.042 1.396.219.379.88.425 1.188.733.163.163.359.401.359.666V15l3-1 3 1v-4.976c0-.264.196-.502.358-.665.308-.308.969-.354 1.188-.733.217-.374-.071-.968.043-1.395zM8 3.5a2.5 2.5 0 1 1 0 5 2.5 2.5 0 0 1 0-5z"/></g></svg>