<svg xmlns="http://www.w3.org/2000/svg" viewBox="0 0 16 16"><g class="icon-color"><path d="M7.084 6.561c-.056.103-.787 1.387-2.19 3.859-.153.259-.337.391-.553.391H2.307c-.241 0-.378-.234-.266-.45l2.156-3.79c.006 0 .006-.003 0-.009L2.826 4.199c-.135-.243.009-.44.265-.44h2.034c.228 0 .416.128.562.381l1.397 2.421zm6.871-5.12L9.456 9.345v.009l2.862 5.205c.121.222.006.441-.266.441h-2.037c-.237 0-.425-.125-.562-.381L6.566 9.354l4.524-7.973c.143-.253.324-.381.546-.381h2.053c.25 0 .384.209.266.441z"/></g></svg>