<svg xmlns="http://www.w3.org/2000/svg" viewBox="0 0 16 16"><g class="icon-color"><path d="M10.25 1.75a4.004 4.004 0 0 1 3.975 4.45c-.192 1.751-1.61 3.174-3.343 3.492-.645.118-1.277.058-1.98-.195l-.598-.216-.718.719H6v1.75a.25.25 0 0 1-.25.25H4v1.75a.25.25 0 0 1-.25.25h-1.5a.25.25 0 0 1-.25-.25v-1.652a.5.5 0 0 1 .137-.344l4.344-4.586-.12-.522a3.982 3.982 0 0 1-.111-.896c0-2.206 1.794-4 4-4m0-1a5 5 0 0 0-5 5c0 .386.053.759.136 1.12l-4.112 4.34a1 1 0 0 0-.274.688v2.352c0 .414.336.75.75.75h2.5a.75.75 0 0 0 .75-.75V13h1.25a.75.75 0 0 0 .75-.75V11h1l.563-.563c1.22.44 2.618.513 4.18-.427 1.328-.8 2.307-2.154 2.476-3.695A5.001 5.001 0 0 0 10.25.75z"/><circle cx="11.5" cy="4.5" r=".875"/></g></svg>