<svg xmlns="http://www.w3.org/2000/svg" viewBox="0 0 16 16"><g class="icon-color"><path d="M3.25 14a.25.25 0 0 1-.25-.25V4h8v1.256l1-.993V4h.5a.5.5 0 0 0 0-1H10v-.75C10 1.56 9.44 1 8.75 1h-3.5C4.56 1 4 1.56 4 2.25V3H1.5a.5.5 0 0 0 0 1H2v9.75c0 .69.56 1.25 1.25 1.25h.767l.009-1H3.25zM5 2.25A.25.25 0 0 1 5.25 2h3.5a.25.25 0 0 1 .25.25V3H5v-.75zM9 5H8v3.233l1-.992V5zM6 5H5v6.21l1-.992V5zm7.2 1.2l1.6 1.6c.1.1.1.3 0 .4l-1.3 1.3-2-2 1.3-1.3c.1-.1.3-.1.4 0zm-7.1 6.7L11 8l2 2-4.9 4.9c-.1.1-.1.1-.2.1H6v-1.9c0-.1 0-.1.1-.2z"/></g></svg>