<svg xmlns="http://www.w3.org/2000/svg" xml:space="preserve" viewBox="0 0 16 16"><g fill="currentColor"><path d="M12.5 10c-.651 0-1.2.419-1.407 1H7.95a3.504 3.504 0 0 0-.701-1.643l-.513 1.026-.014-.006c.172.34.278.717.278 1.123a2.5 2.5 0 1 1-5 0c0-1.23.89-2.248 2.061-2.456l-.008-.004.517-1.034C4.546 8.006 4.524 8 4.5 8a3.5 3.5 0 0 0 0 7 3.49 3.49 0 0 0 3.45-3h3.143A1.496 1.496 0 0 0 14 11.5a1.5 1.5 0 0 0-1.5-1.5zm0 2.25a.75.75 0 1 1 0-1.5.75.75 0 0 1 0 1.5z"/><path d="M12.5 8c-.384 0-.748.077-1.095.192L9.578 4.54a1.5 1.5 0 1 0-1.078.46c.062 0 .121-.01.181-.018l1.825 3.648A3.514 3.514 0 0 0 9.356 10h1.151v.005A2.488 2.488 0 0 1 12.5 9a2.5 2.5 0 1 1 0 5 2.488 2.488 0 0 1-1.992-1.004V13H9.35a3.49 3.49 0 0 0 3.15 2 3.5 3.5 0 0 0 0-7zm-4-3.75a.75.75 0 1 1 0-1.5.75.75 0 0 1 0 1.5z"/><path d="M8.5 0A3.5 3.5 0 0 0 5 3.5c0 1.19.598 2.238 1.506 2.87l-1.824 3.648c-.06-.007-.12-.018-.182-.018a1.5 1.5 0 1 0 1.079.461l1.827-3.654c.346.115.71.192 1.094.192.024 0 .046-.006.069-.007L8.052 5.96l.007-.003A2.497 2.497 0 0 1 8.5 1 2.5 2.5 0 0 1 11 3.5c0 .407-.106.785-.279 1.125l.015-.008.512 1.026A3.467 3.467 0 0 0 12 3.499 3.5 3.5 0 0 0 8.5 0zm-4 12.25a.75.75 0 1 1 0-1.5.75.75 0 0 1 0 1.5z"/></g></svg>