<svg xmlns="http://www.w3.org/2000/svg" viewBox="0 0 16 16"><g class="icon-color"><path d="M15.366 6.604L8.284 2.177a.501.501 0 0 0-.556.017l-6.12 4.371a.5.5 0 0 0 .026.831L2 7.625V11h1V8.25l1 .625v2.342a.5.5 0 0 0 .243.429l4.479 2.687a.493.493 0 0 0 .544-.02l4.551-3.194a.5.5 0 0 0 .213-.413l-.018-2.286 1.38-.986a.5.5 0 0 0-.026-.83zm-2.339 3.848l-4.07 2.856L5 10.934V9.5l3.716 2.323a.496.496 0 0 0 .556-.017l3.745-2.675.01 1.321zm-4.064.346L2.798 6.945l5.239-3.742 6.165 3.853-5.239 3.742z"/></g></svg>