<svg xmlns="http://www.w3.org/2000/svg" viewBox="0 0 16 16"><g class="icon-color"><circle cx="8" cy="12" r="1"/><path d="M8.5 10h-1l-.445-4.45A.5.5 0 0 1 7.552 5h.896a.5.5 0 0 1 .497.55L8.5 10z"/><path d="M8 2.008a.98.98 0 0 1 .875.515l5.536 9.992a.983.983 0 0 1-.013.993.983.983 0 0 1-.862.492H2.464a.983.983 0 0 1-.862-.492.983.983 0 0 1-.013-.993l5.536-9.992A.98.98 0 0 1 8 2.008m0-1a1.98 1.98 0 0 0-1.75 1.03L.715 12.032C-.024 13.364.94 15 2.464 15h11.072c1.524 0 2.488-1.636 1.75-2.97L9.749 2.04A1.98 1.98 0 0 0 8 1.009z"/></g></svg>