<svg xmlns="http://www.w3.org/2000/svg" xml:space="preserve" viewBox="0 0 16 16"><g fill="currentColor"><path d="M7 9h2v4H7z"/><path d="M13.829 8.18s-.435-.179-.879-.179c.117-.456 0-1.001 0-1.001a2.5 2.5 0 0 0-3.7-1.665 3.502 3.502 0 0 0-6.221 1.709A2.501 2.501 0 0 0 3.5 12H6v-1H3.5a1.5 1.5 0 0 1-.283-2.973l.711-.136.093-.718a2.501 2.501 0 0 1 4.444-1.219l.536.68.75-.434a1.5 1.5 0 0 1 2.219 1.601l-.25 1.23L12.974 9H13a1 1 0 0 1 0 2h-3v1h3a2 2 0 0 0 .829-3.82zM7.823 15.823l-2.396-2.396A.25.25 0 0 1 5.604 13h4.792a.25.25 0 0 1 .177.427l-2.396 2.396a.25.25 0 0 1-.354 0z"/></g></svg>