<svg xmlns="http://www.w3.org/2000/svg" viewBox="0 0 16 16"><g class="icon-color"><path d="M11.5 11a1.5 1.5 0 1 1-.001 3.001A1.5 1.5 0 0 1 11.5 11m0-1C10.122 10 9 11.122 9 12.5s1.122 2.5 2.5 2.5 2.5-1.122 2.5-2.5-1.122-2.5-2.5-2.5zM4.5 11a1.5 1.5 0 1 1-.001 3.001A1.5 1.5 0 0 1 4.5 11m0-1C3.122 10 2 11.122 2 12.5S3.122 15 4.5 15 7 13.878 7 12.5 5.878 10 4.5 10zM4.5 2a1.5 1.5 0 1 1-.001 3.001A1.5 1.5 0 0 1 4.5 2m0-1C3.122 1 2 2.122 2 3.5S3.122 6 4.5 6 7 4.878 7 3.5 5.878 1 4.5 1z"/><path d="M4 5h1v6H4z"/><path d="M5 5v1a1 1 0 0 0 1 1h4a2 2 0 0 1 2 2v2h-1V9a1 1 0 0 0-1-1H6a2 2 0 0 1-2-2V5h1z"/></g></svg>