<svg xmlns="http://www.w3.org/2000/svg" viewBox="0 0 16 16"><g fill="currentColor"><path d="M1.99.783a.498.498 0 0 0-.354.853l12.728 12.728a.498.498 0 0 0 .707 0 .5.5 0 0 0 0-.707l-1.724-1.724A.987.987 0 0 0 14 11V3.414a1 1 0 0 0-1.007-1.002.98.98 0 0 0-.7.295l-.828.828A5 5 0 0 1 7.929 5H6.414L2.344.93A.498.498 0 0 0 1.99.782ZM13 11l-1.067-.8a5.733 5.733 0 0 0-.822-.503L7.414 6h.515a5.96 5.96 0 0 0 4.243-1.757L13 3.415V11ZM3.597 5H3a1 1 0 0 0-1 1v3a1 1 0 0 0 1 1h1v2.5a.5.5 0 0 0 .5.5h2a.5.5 0 0 0 .5-.5V10h1.333c.097 0 .19.018.287.023L7.597 9H7v-.597l-1-1V9H3V6h1.597l-1-1ZM5 12v-2h1v2H5Z"/></g></svg>