<svg xmlns="http://www.w3.org/2000/svg" xml:space="preserve" viewBox="0 0 16 16"><g fill="currentColor"><path d="M5.5 2a.5.5 0 0 1 .5.5v3a.5.5 0 0 1-.5.5h-3a.5.5 0 0 1-.5-.5v-3a.5.5 0 0 1 .5-.5h3m0-1h-3C1.673 1 1 1.673 1 2.5v3C1 6.327 1.673 7 2.5 7h3C6.327 7 7 6.327 7 5.5v-3C7 1.673 6.327 1 5.5 1zM13.5 2a.5.5 0 0 1 .5.5v3a.5.5 0 0 1-.5.5h-3a.5.5 0 0 1-.5-.5v-3a.5.5 0 0 1 .5-.5h3m0-1h-3C9.673 1 9 1.673 9 2.5v3c0 .827.673 1.5 1.5 1.5h3c.827 0 1.5-.673 1.5-1.5v-3c0-.827-.673-1.5-1.5-1.5zM13.5 10a.5.5 0 0 1 .5.5v3a.5.5 0 0 1-.5.5h-3a.5.5 0 0 1-.5-.5v-3a.5.5 0 0 1 .5-.5h3m0-1h-3C9.673 9 9 9.673 9 10.5v3c0 .827.673 1.5 1.5 1.5h3c.827 0 1.5-.673 1.5-1.5v-3c0-.827-.673-1.5-1.5-1.5zM5.5 10a.5.5 0 0 1 .5.5v3a.5.5 0 0 1-.5.5h-3a.5.5 0 0 1-.5-.5v-3a.5.5 0 0 1 .5-.5h3m0-1h-3C1.673 9 1 9.673 1 10.5v3c0 .827.673 1.5 1.5 1.5h3c.827 0 1.5-.673 1.5-1.5v-3C7 9.673 6.327 9 5.5 9z"/></g></svg>