<svg xmlns="http://www.w3.org/2000/svg" viewBox="0 0 16 16"><g fill="currentColor"><path d="m13.776 11.553-.67-1.342A1 1 0 0 1 13 9.764V7A5 5 0 0 0 3 7v2.764a1 1 0 0 1-.106.447l-.67 1.342A1 1 0 0 0 3.118 13H6a2 2 0 0 0 4 0h2.882a1 1 0 0 0 .894-1.447ZM8 14c-.551 0-1-.449-1-1h2c0 .551-.449 1-1 1Zm-4.882-2 .67-1.341A2.01 2.01 0 0 0 4 9.764V7c0-2.206 1.794-4 4-4s4 1.794 4 4v2.764c0 .309.073.618.211.895L12.882 12H3.118ZM14.183 5.5a.498.498 0 0 0 .476-.654 7.015 7.015 0 0 0-2.94-3.77c-.233-.145-.542-.076-.69.158s-.076.542.158.69a6.017 6.017 0 0 1 2.52 3.23.5.5 0 0 0 .476.346ZM1.817 5.5a.498.498 0 0 1-.476-.654 7.015 7.015 0 0 1 2.94-3.77c.233-.145.542-.076.69.158s.076.542-.158.69a6.017 6.017 0 0 0-2.52 3.23.5.5 0 0 1-.476.346Z"/></g></svg>