<svg xmlns="http://www.w3.org/2000/svg" viewBox="0 0 16 16"><g class="icon-color"><path d="M15.5 13H13v2.5c0 .3-.2.5-.5.5h-1c-.3 0-.5-.2-.5-.5V13H8.5c-.3 0-.5-.2-.5-.5v-1c0-.3.2-.5.5-.5H11V8.5c0-.3.2-.5.5-.5h1c.3 0 .5.2.5.5V11h2.5c.3 0 .5.2.5.5v1c0 .3-.2.5-.5.5z"/><path d="M14 14v1h.5c.3 0 .5-.2.5-.5V14h-1zM10 14H5v-3.8c0-.1.1-.2.3-.2H10V9H4.5c-.3 0-.5.2-.5.5V14H2V2h2v3.5c0 .3.2.5.5.5h5c.3 0 .5-.2.5-.5V2h.8c.3 0 .5.1.7.3l1.9 2c.4.4.6.9.6 1.4V10h1V5.4c0-.5-.2-1-.6-1.4L12 1.6c-.3-.4-.8-.6-1.3-.6H1.5c-.3 0-.5.2-.5.5v13c0 .3.2.5.5.5H10v-1zM7 2.3c0-.2.1-.3.3-.3h1.5c.1 0 .2.1.2.3v2.5c0 .1-.1.2-.2.2H7.3c-.2 0-.3-.1-.3-.2V2.3z"/></g></svg>