<svg xmlns="http://www.w3.org/2000/svg" viewBox="0 0 16 16"><g class="icon-color"><path d="M12.5 11a1.5 1.5 0 1 1-.001 3.001A1.5 1.5 0 0 1 12.5 11m0-1c-1.378 0-2.5 1.122-2.5 2.5s1.122 2.5 2.5 2.5 2.5-1.122 2.5-2.5-1.122-2.5-2.5-2.5zM3.5 11a1.5 1.5 0 1 1-.001 3.001A1.5 1.5 0 0 1 3.5 11m0-1C2.122 10 1 11.122 1 12.5S2.122 15 3.5 15 6 13.878 6 12.5 4.878 10 3.5 10zM3.5 2a1.5 1.5 0 1 1-.001 3.001A1.5 1.5 0 0 1 3.5 2m0-1C2.122 1 1 2.122 1 3.5S2.122 6 3.5 6 6 4.878 6 3.5 4.878 1 3.5 1z"/><path d="M3 5h1v6H3z"/><path d="M11 12H9a1 1 0 0 1-1-1v-1a2 2 0 0 0-2-2H3v1h3a1 1 0 0 1 1 1v1a2 2 0 0 0 2 2h2v-1zM14 2v4h-2.2L10 7.4V6H8V2h6m-7-.5v5a.5.5 0 0 0 .5.5H9v1.422a.5.5 0 0 0 .807.395L12.143 7H14.5a.5.5 0 0 0 .5-.5v-5a.5.5 0 0 0-.5-.5h-7a.5.5 0 0 0-.5.5z"/></g></svg>