<svg xmlns="http://www.w3.org/2000/svg" viewBox="0 0 16 16"><g fill="currentColor"><path d="m5.738 14.5 2-5H2.935l6.234-7.905a.247.247 0 0 1 .196-.095h.898l-2 5h4.803l-6.232 7.905a.25.25 0 0 1-.197.095h-.898Z"/><path d="M9.523 2 8.071 5.629 7.523 7h4.51l-5.518 7h-.038l1.451-3.629L8.477 9h-4.51l5.518-7h.038m.738-1h-.897a.75.75 0 0 0-.59.286L2.519 9.223a.5.5 0 0 0 .416.777H7l-1.726 4.314A.5.5 0 0 0 5.74 15h.897a.75.75 0 0 0 .59-.286l6.256-7.937A.5.5 0 0 0 13.066 6H9l1.726-4.314A.5.5 0 0 0 10.26 1Z"/></g></svg>