<svg xmlns="http://www.w3.org/2000/svg" viewBox="0 0 16 16"><g fill="currentColor"><path d="M8.006 1C4.132 1 1 4.155 1 8.058c0 3.12 2.007 5.76 4.79 6.695.348.07.476-.152.476-.338 0-.164-.012-.725-.012-1.31-1.948.422-2.354-.84-2.354-.84-.313-.819-.777-1.029-.777-1.029-.638-.432.046-.432.046-.432.708.047 1.079.724 1.079.724.626 1.075 1.635.772 2.041.585.058-.456.244-.772.44-.947-1.553-.164-3.189-.771-3.189-3.482 0-.771.278-1.402.72-1.893-.07-.175-.314-.9.069-1.87 0 0 .591-.187 1.925.725a6.736 6.736 0 0 1 1.752-.234c.591 0 1.194.082 1.751.234 1.334-.912 1.926-.725 1.926-.725.383.97.139 1.695.07 1.87.452.49.718 1.122.718 1.893 0 2.71-1.635 3.307-3.201 3.482.255.222.476.643.476 1.309 0 .946-.012 1.706-.012 1.94 0 .186.128.409.476.338A7.053 7.053 0 0 0 15 8.058C15.011 4.155 11.868 1 8.006 1Z"/></g></svg>