<svg xmlns="http://www.w3.org/2000/svg" viewBox="0 0 16 16"><g fill="currentColor"><path d="M13 2H3a2 2 0 0 0-2 2v8a2 2 0 0 0 2 2h10a2 2 0 0 0 2-2V4a2 2 0 0 0-2-2Zm-9 8.75a.25.25 0 0 1-.25.25h-.5a.25.25 0 0 1-.25-.25v-.5a.25.25 0 0 1 .25-.25h.5a.25.25 0 0 1 .25.25v.5Zm0-2a.25.25 0 0 1-.25.25h-.5A.25.25 0 0 1 3 8.75v-.5A.25.25 0 0 1 3.25 8h.5a.25.25 0 0 1 .25.25v.5Zm0-2a.25.25 0 0 1-.25.25h-.5A.25.25 0 0 1 3 6.75v-.5A.25.25 0 0 1 3.25 6h.5a.25.25 0 0 1 .25.25v.5Zm0-2a.25.25 0 0 1-.25.25h-.5A.25.25 0 0 1 3 4.75v-.5A.25.25 0 0 1 3.25 4h.5a.25.25 0 0 1 .25.25v.5ZM14 12c0 .551-.449 1-1 1H6V3h7c.551 0 1 .449 1 1v8Z"/></g></svg>