<svg xmlns="http://www.w3.org/2000/svg" viewBox="0 0 16 16"><g class="icon-color"><path d="M6.1 1c-.7 0-1.4.6-1.4 1.4s.6 1.4 1.4 1.4h1.4V2.4c0-.8-.6-1.4-1.4-1.4m0 3.7H2.4c-.8 0-1.4.7-1.4 1.4 0 .8.6 1.4 1.4 1.4h3.7c.8 0 1.4-.6 1.4-1.4 0-.7-.6-1.4-1.4-1.4M15 6.1c0-.8-.6-1.4-1.4-1.4s-1.4.6-1.4 1.4v1.4h1.4c.8 0 1.4-.6 1.4-1.4m-3.7 0V2.4c0-.8-.6-1.4-1.4-1.4-.8 0-1.4.6-1.4 1.4v3.7c0 .8.6 1.4 1.4 1.4.7 0 1.4-.6 1.4-1.4M9.9 15c.8 0 1.4-.6 1.4-1.4 0-.8-.6-1.4-1.4-1.4H8.5v1.4c0 .8.6 1.4 1.4 1.4m0-3.7h3.7c.8 0 1.4-.6 1.4-1.4 0-.8-.6-1.4-1.4-1.4H9.9c-.8 0-1.4.6-1.4 1.4 0 .7.6 1.4 1.4 1.4M1 9.9c0 .8.6 1.4 1.4 1.4.8 0 1.4-.6 1.4-1.4V8.5H2.4c-.8 0-1.4.6-1.4 1.4m3.7 0v3.7c0 .8.6 1.4 1.4 1.4s1.4-.6 1.4-1.4V9.9c0-.8-.6-1.4-1.4-1.4-.7 0-1.4.6-1.4 1.4"/></g></svg>