<svg xmlns="http://www.w3.org/2000/svg" viewBox="0 0 16 16"><g class="icon-color"><path d="M2.1 6h2.1c.6 0 1.1.2 1.3.5.3.3.4.8.3 1.4 0 .3-.1.5-.2.8-.2.3-.3.5-.6.7-.2.3-.5.5-.8.5s-.6.1-.9.1h-.9l-.3 1.5H1L2.1 6m.9.8l-.5 2.4h.2c.5 0 .9 0 1.2-.1.3-.1.6-.5.7-1.1.1-.6.1-1-.2-1-.3-.1-.6-.1-1-.1h-.2c-.1 0-.1 0-.2-.1M7 4.5h1.1L7.8 6h1c.5 0 .9.1 1.2.3.3.2.3.6.2 1.2L9.6 10H8.5L9 7.6c.1-.3 0-.4 0-.6-.1-.1-.3-.1-.5-.1h-.9L7 10H5.9L7 4.5M11.3 6h2.1c.6 0 1.1.2 1.3.5.3.3.4.8.3 1.4 0 .3-.1.5-.2.8-.1.3-.3.5-.5.7-.3.3-.5.4-.8.5s-.7.1-1 .1h-.9l-.3 1.5h-1.1L11.3 6m.9.8l-.5 2.3h.2c.5 0 .9 0 1.2-.1.3-.1.6-.5.7-1.1.1-.5 0-.9-.3-.9-.3-.1-.6-.1-1-.1h-.2s-.1 0-.1-.1"/></g></svg>