<svg xmlns="http://www.w3.org/2000/svg" viewBox="0 0 16 16"><g class="icon-color"><path d="M5.5 12a.5.5 0 1 1-.001 1.001A.5.5 0 0 1 5.5 12m0-1a1.5 1.5 0 1 0 0 3 1.5 1.5 0 0 0 0-3zM11.5 12a.5.5 0 1 1-.001 1.001A.5.5 0 0 1 11.5 12m0-1a1.5 1.5 0 1 0 0 3 1.5 1.5 0 0 0 0-3zM3.75 2h-2.5a.25.25 0 0 0-.25.25v.5c0 .138.112.25.25.25H3l1 6v1.75c0 .138.112.25.25.25h8.5a.25.25 0 0 0 .25-.25v-.5a.25.25 0 0 0-.25-.25H5V9h7.82a.25.25 0 0 0 .237-.171l1.833-5.5A.25.25 0 0 0 14.653 3H4v-.75A.25.25 0 0 0 3.75 2zm1.097 6L4.18 4h9.433l-1.334 4H4.847z"/></g></svg>