<svg xmlns="http://www.w3.org/2000/svg" xml:space="preserve" viewBox="0 0 16 16"><g fill="currentColor"><path d="M11.5 3C12.855 3 14 4.145 14 5.5c0 2.122-3.615 5.416-5.352 6.999-.242.221-.461.421-.648.595-.189-.177-.407-.375-.648-.595C5.615 10.916 2 7.622 2 5.5 2 4.145 3.145 3 4.5 3a2.976 2.976 0 0 1 2.606 1.447l.876 1.733.908-1.724A2.973 2.973 0 0 1 11.5 3m0-1C9 2 8 4 8 4S7 2 4.5 2C2.6 2 1 3.6 1 5.5c0 3.2 5.7 7.6 6.8 8.8.05.05.125.075.2.075s.15-.025.2-.075C9.3 13.1 15 8.7 15 5.5 15 3.6 13.4 2 11.5 2z"/></g></svg>