<svg xmlns="http://www.w3.org/2000/svg" viewBox="0 0 16 16"><g class="icon-color"><path d="M8 1C4.1 1 1 4.1 1 8s3.1 7 7 7 7-3.1 7-7-3.1-7-7-7zm5.2 4h-2.5c-.2-1.1-.6-2.1-1-2.7 1.5.4 2.7 1.4 3.5 2.7zM10 8c0 .7-.1 1.4-.1 2H6.1c0-.6-.1-1.3-.1-2s.1-1.4.1-2h3.7c.1.6.2 1.3.2 2zm-2 6c-.5 0-1.2-1.1-1.7-3h3.3c-.4 1.9-1.1 3-1.6 3zM6.3 5C6.8 3.1 7.5 2 8 2s1.2 1.1 1.7 3H6.3zm0-2.7c-.4.6-.8 1.6-1 2.7H2.8c.8-1.3 2-2.3 3.5-2.7zM2.4 6h2.8C5 6.6 5 7.3 5 8s0 1.4.1 2H2.4C2.1 9.4 2 8.7 2 8s.1-1.4.4-2zm.4 5h2.5c.2 1.1.6 2.1 1 2.7-1.5-.4-2.7-1.4-3.5-2.7zm6.9 2.7c.4-.7.8-1.6 1-2.7h2.5c-.8 1.3-2 2.3-3.5 2.7zm3.9-3.7h-2.8c.2-.6.2-1.3.2-2s0-1.4-.1-2h2.8c.2.6.3 1.3.3 2s-.1 1.4-.4 2z"/></g></svg>