<svg xmlns="http://www.w3.org/2000/svg" xml:space="preserve" viewBox="0 0 16 16"><g fill="currentColor"><path d="M8 2.261c1.869 0 2.09.007 2.829.041.682.031 1.053.145 1.3.241.327.127.56.279.805.524s.397.478.524.805c.096.247.21.617.241 1.3.033.738.04.959.04 2.828s-.007 2.09-.041 2.829c-.031.682-.145 1.053-.241 1.3-.127.327-.279.56-.524.805a2.168 2.168 0 0 1-.805.524c-.247.096-.617.21-1.3.241-.737.033-.959.04-2.828.04s-2.091-.007-2.829-.041c-.682-.031-1.053-.145-1.3-.241a2.168 2.168 0 0 1-.805-.524 2.168 2.168 0 0 1-.524-.805c-.096-.247-.21-.617-.241-1.3-.033-.738-.04-.959-.04-2.828s.007-2.09.041-2.829c.031-.682.145-1.053.241-1.3.127-.327.279-.56.524-.805.245-.244.478-.396.805-.523.247-.096.617-.21 1.3-.241.738-.034.959-.041 2.828-.041M8 1c-1.901 0-2.139.008-2.886.042-.745.034-1.254.152-1.699.325-.46.179-.851.418-1.24.807-.389.389-.629.78-.807 1.24-.174.446-.292.955-.326 1.7C1.008 5.861 1 6.099 1 8c0 1.901.008 2.139.042 2.886.034.745.152 1.254.325 1.699.179.46.418.851.807 1.24.389.389.78.629 1.24.807.445.173.954.291 1.699.325.748.035.986.043 2.887.043s2.139-.008 2.886-.042c.745-.034 1.254-.152 1.699-.325.46-.179.851-.418 1.24-.807.389-.389.629-.78.807-1.24.173-.445.291-.954.325-1.699.035-.748.043-.986.043-2.887s-.008-2.139-.042-2.886c-.034-.745-.152-1.254-.325-1.699a3.435 3.435 0 0 0-.807-1.24 3.422 3.422 0 0 0-1.24-.807c-.445-.173-.954-.291-1.699-.325C10.139 1.008 9.901 1 8 1z"/><path d="M8 4.405a3.596 3.596 0 1 0 .001 7.191A3.596 3.596 0 0 0 8 4.405zm0 5.928a2.333 2.333 0 1 1 0-4.666 2.333 2.333 0 0 1 0 4.666z"/><circle cx="11.737" cy="4.263" r=".84"/></g></svg>