<svg xmlns="http://www.w3.org/2000/svg" viewBox="0 0 16 16"><g class="icon-color"><path d="M13.7 3.2l-1.9-1.9c-.2-.2-.4-.3-.7-.3H2.5c-.3 0-.5.2-.5.5v13c0 .3.2.5.5.5h11c.3 0 .5-.2.5-.5V3.9c0-.3-.1-.5-.3-.7zM13 14H3V2h7v2.5c0 .3.2.5.5.5H13v9zM11 4V2l2 2h-2z"/><path d="M10.8 10H5.2c-.1 0-.2-.1-.2-.2v-.6c0-.1.1-.2.2-.2h5.5c.2 0 .3.1.3.2v.5c0 .2-.1.3-.2.3zM10.8 8H5.2c-.1 0-.2-.1-.2-.2v-.6c0-.1.1-.2.2-.2h5.5c.2 0 .3.1.3.2v.5c0 .2-.1.3-.2.3zM10.8 12H5.2c-.1 0-.2-.1-.2-.2v-.5c0-.2.1-.3.2-.3h5.5c.1 0 .2.1.2.2v.5c.1.2 0 .3-.1.3z"/></g></svg>