<svg xmlns="http://www.w3.org/2000/svg" viewBox="0 0 16 16"><g class="icon-color"><path d="M6.585 2H3.51a.502.502 0 0 0-.51.494v12.012c0 .268.228.494.51.494h6.987-1.994c-.652 0-1.208-.42-1.416-1H4V3h1v.495c0 .291.22.505.491.505h5.018A.503.503 0 0 0 11 3.495V3h1v3h1V2.494A.505.505 0 0 0 12.49 2H9.415a1.5 1.5 0 0 0-2.83 0zM8 3.25a.75.75 0 1 0 0-1.5.75.75 0 0 0 0 1.5zm0 4.253v5.994c0 .27.225.503.503.503h5.994c.27 0 .503-.225.503-.503V7.503A.508.508 0 0 0 14.497 7H8.503A.508.508 0 0 0 8 7.503zM9 8h5v5H9V8zm1 1h3v1h-3V9zm0 2h3v1h-3v-1z"/></g></svg>