<svg xmlns="http://www.w3.org/2000/svg" viewBox="0 0 16 16"><g fill="currentColor"><path d="M14.587 4.1c-.204-1.505-1.53-2.69-3.1-2.92C11.22 1.141 10.216 1 7.89 1h-.018c-2.327 0-2.826.141-3.091.18-1.528.223-2.922 1.289-3.26 2.81-.164.75-.181 1.581-.15 2.344.042 1.093.05 2.184.151 3.273.07.723.19 1.44.362 2.147.322 1.304 1.624 2.39 2.9 2.832a7.858 7.858 0 0 0 4.242.222c.155-.036.308-.077.46-.124.341-.108.742-.228 1.037-.44a.033.033 0 0 0 .013-.025v-1.055a.031.031 0 0 0-.024-.03.032.032 0 0 0-.014 0 11.88 11.88 0 0 1-2.753.319c-1.596 0-2.025-.75-2.148-1.061a3.257 3.257 0 0 1-.186-.836.03.03 0 0 1 .024-.032h.014c.887.212 1.796.319 2.708.319.22 0 .438 0 .658-.006.917-.025 1.884-.072 2.787-.246l.064-.014c1.424-.27 2.779-1.12 2.917-3.269.005-.085.018-.886.018-.974 0-.299.097-2.117-.015-3.235zm-2.19 5.363h-1.498V5.836c0-.764-.322-1.153-.976-1.153-.72 0-1.08.46-1.08 1.37V8.04H7.355V6.054c0-.91-.36-1.371-1.08-1.371-.65 0-.975.39-.976 1.153v3.627H3.803V5.726c0-.764.197-1.37.591-1.82.407-.449.94-.679 1.602-.679.767 0 1.346.292 1.732.874l.372.618.373-.618c.386-.582.965-.874 1.73-.874.662 0 1.195.23 1.603.679.394.45.591 1.056.591 1.82v3.737z"/></g></svg>