<svg xmlns="http://www.w3.org/2000/svg" viewBox="0 0 16 16"><g class="icon-color"><path d="M11.2 9h-.1c-2.8 0-5 1.6-5 3.5S8.2 16 11 16s5-1.6 5-3.5-2.2-3.4-4.8-3.5zm-.1.8c.1 0 .3.1.3.2s-.1.2-.3.2c-.6 0-1.2.5-1.2 1.1 0 .1-.1.2-.3.2s-.3-.1-.3-.2c.1-.8.9-1.5 1.8-1.5zM11 15c-2.2 0-4-1.1-4-2.5 0-.9.7-1.6 1.8-2.1-.2.3-.2.7-.2 1.1 0 1.4 1.1 2.5 2.5 2.5s2.5-1.1 2.5-2.5c0-.4-.1-.7-.2-1 1 .5 1.7 1.2 1.7 2C15 13.9 13.2 15 11 15z"/><path d="M5.3 14H5v-3.8c0-.1.1-.2.3-.2H6c.3-.4.7-.7 1.2-1H4.5c-.3 0-.5.2-.5.5V14H2V2h2v3.5c0 .3.2.5.5.5h5c.3 0 .5-.2.5-.5V2h.8c.3 0 .5.1.7.3l1.9 2c.4.4.6.9.6 1.4v2.9c.4.2.7.3 1 .5V5.4c0-.5-.2-1-.6-1.4L12 1.6c-.3-.4-.8-.6-1.3-.6H1.5c-.3 0-.5.2-.5.5v13c0 .3.2.5.5.5H6c-.3-.3-.5-.6-.7-1zM7 2.3c0-.2.1-.3.3-.3h1.5c.1 0 .2.1.2.3v2.5c0 .1-.1.2-.2.2H7.3c-.2 0-.3-.1-.3-.2V2.3z"/></g></svg>