<svg xmlns="http://www.w3.org/2000/svg" viewBox="0 0 16 16"><g class="icon-color"><path d="M15 9V8h-3V6l1.9-1.9s.1-.2.1-.3V1h-1v2.3c0 .1-.1.3-.1.4l-.9.8V4h-2V3l-.9-.9S8.9 2 8.8 2H7.2c-.1 0-.3.1-.3.1L6 3v1H4v1l-.9-.9S3 3.9 3 3.8V1H2v3.3c0 .1.1.3.1.4L4 6.5V8H1v1h3v1.5l-1.9 1.9s-.1.2-.1.3V15h1v-1.8c0-.1.1-.3.1-.4L4 12l1.9 1.9s.2.1.3.1h3.6c.1 0 .3-.1.4-.1l1.6-1.6 1.1 1.1c.1.1.1.2.1.4V15h1v-1.8c0-.1-.1-.3-.1-.4L12 11V9h3zM7 3.4l.4-.4h1.2l.4.4V4H7v-.6zm4 8.2L9.6 13H6.4L5 11.6V5h2.5v6h1V5H11v6.6z"/></g></svg>