<svg xmlns="http://www.w3.org/2000/svg" viewBox="0 0 16 16"><g class="icon-color"><path d="M12.5 11a1.5 1.5 0 1 1-.001 3.001A1.5 1.5 0 0 1 12.5 11m0-1c-1.378 0-2.5 1.122-2.5 2.5s1.122 2.5 2.5 2.5 2.5-1.122 2.5-2.5-1.122-2.5-2.5-2.5zM3.5 2a1.5 1.5 0 1 1-.001 3.001A1.5 1.5 0 0 1 3.5 2m0-1C2.122 1 1 2.122 1 3.5S2.122 6 3.5 6 6 4.878 6 3.5 4.878 1 3.5 1z"/><path d="M8.914 3l1.622-1.621-.708-.707L7 3.5l2.828 2.828.708-.707L8.914 4H12v7h1V3zM6.172 9.672l-.708.707L7.086 12H4V5H3v8h4.086l-1.622 1.621.708.708L9 12.5z"/></g></svg>