<svg xmlns="http://www.w3.org/2000/svg" viewBox="0 0 16 16"><g class="icon-color"><path d="M8.07 3C4.112 3 1 5.286 1 8s2.97 5 7 5c3.889 0 7-2.286 7-4.93C15 5.285 11.889 3.142 8.212 3h-.141zm-.025 1.127c.141 0 .423.141.423.282s-.14.282-.423.282c-.845 0-1.69.704-1.69 1.55 0 .14-.141.282-.423.282-.282 0-.423-.141-.423-.282.141-1.127 1.268-2.114 2.536-2.114zM2 8.03c0-1.298 1.017-2.591 2.647-3.312-.296.432-.296 1.01-.296 1.587 0 2.02 1.63 3.606 3.703 3.606 2.074 0 3.704-1.587 3.704-3.606 0-.577-.148-1.01-.296-1.443C12.943 5.582 14 6.875 14 8.029c-.148 2.02-2.841 3.924-6 3.971-3.36-.047-6-1.95-6-3.97z"/></g></svg>