<?xml version="1.0" encoding="utf-8"?>
<!-- Generator: Adobe Illustrator 19.1.0, SVG Export Plug-In . SVG Version: 6.00 Build 0)  -->
<svg version="1.1" id="actions-document-export-csv"
	 xmlns="http://www.w3.org/2000/svg" xmlns:xlink="http://www.w3.org/1999/xlink" x="0px" y="0px" viewBox="0 0 16 16"
	 style="enable-background:new 0 0 16 16;" xml:space="preserve">
<path d="M8.9,14H3V2h7v2.5C10,4.8,10.2,5,10.5,5H13v3.1c0.6,0.1,1,0.6,1,1.2V3.9c0-0.3-0.1-0.5-0.3-0.7l-1.9-1.9
	C11.6,1.1,11.4,1,11.1,1H2.5C2.2,1,2,1.2,2,1.5v13C2,14.8,2.2,15,2.5,15h7.3L8.9,14z M11,2l2,2h-2V2z"/>
<g id="g4186" transform="translate(1,0)">
	<rect id="rect4159" x="3" y="6" width="2" height="1"/>
	<rect id="rect4163" x="6" y="6" width="2" height="1"/>
	<rect id="rect4165" x="9" y="6" width="2" height="1"/>
	<rect id="rect4167" x="3" y="8" width="2" height="1"/>
	<rect id="rect4169" x="6" y="8" width="2" height="1"/>
	<rect id="rect4174" x="3" y="10" width="2" height="1"/>
	<rect id="rect4176" x="6" y="10" width="2" height="1"/>
	<rect id="rect4180" x="3" y="12" width="2" height="1"/>
	<path d="M6.8,12H6v1h1.1C6.8,12.7,6.8,12.3,6.8,12z"/>
	<path d="M10.3,8H9v1h0.1C9.2,8.4,9.6,8,10.3,8z"/>
</g>
<path d="M9.1,12H11V9.3C11,9.1,11.1,9,11.3,9h1.5C12.9,9,13,9.1,13,9.3V12h2c0.2,0,0.3,0.3,0.2,0.4l-3,3.4c-0.1,0.1-0.3,0.1-0.4,0
	l-2.9-3.4C8.7,12.3,8.8,12,9.1,12z"/>
</svg>
