<?xml version="1.0" encoding="utf-8"?>
<!-- Generator: Adobe Illustrator 19.1.0, SVG Export Plug-In . SVG Version: 6.00 Build 0)  -->
<svg version="1.1" xmlns="http://www.w3.org/2000/svg" xmlns:xlink="http://www.w3.org/1999/xlink" x="0px" y="0px"
	 viewBox="0 0 16 16" enable-background="new 0 0 16 16" xml:space="preserve">
<g id="save">
	<path d="M10.7,1H1.5C1.2,1,1,1.2,1,1.5v13C1,14.8,1.2,15,1.5,15h13c0.3,0,0.5-0.2,0.5-0.5V5.4c0-0.5-0.2-1-0.6-1.4l-2.4-2.4
		C11.7,1.2,11.2,1,10.7,1z M7.3,2h1.5C8.9,2,9,2.1,9,2.3v2.5C9,4.9,8.9,5,8.8,5H7.3C7.1,5,7,4.9,7,4.8V2.3C7,2.1,7.1,2,7.3,2z
		 M11,14H5v-3.8C5,10.1,5.1,10,5.3,10h5.5c0.1,0,0.3,0.1,0.3,0.3V14z M14,14h-2V9.5C12,9.2,11.8,9,11.5,9h-7C4.2,9,4,9.2,4,9.5V14H2
		V2h2v3.5C4,5.8,4.2,6,4.5,6h5C9.8,6,10,5.8,10,5.5V2h0.8c0.3,0,0.5,0.1,0.7,0.3l1.9,2C13.8,4.7,14,5.2,14,5.7V14z"/>
</g>
</svg>
