<?xml version="1.0" encoding="utf-8"?>
<!-- Generator: Adobe Illustrator 19.1.0, SVG Export Plug-In . SVG Version: 6.00 Build 0)  -->
<svg version="1.1" xmlns="http://www.w3.org/2000/svg" xmlns:xlink="http://www.w3.org/1999/xlink" x="0px" y="0px"
	 viewBox="0 0 16 16" enable-background="new 0 0 16 16" xml:space="preserve">
<g id="help-open">
	<path d="M8,15c-3.86,0-7-3.14-7-7s3.14-7,7-7c3.86,0,7,3.14,7,7S11.86,15,8,15z M8.18,3.33c-1.49,0-2.6,0.64-3.38,1.94
		C4.72,5.4,4.76,5.57,4.87,5.66l1.2,0.91c0.05,0.04,0.11,0.05,0.17,0.05c0.08,0,0.17-0.04,0.23-0.11C6.91,5.97,7.09,5.8,7.26,5.68
		c0.15-0.11,0.46-0.22,0.78-0.22c0.58,0,1.12,0.37,1.12,0.78c0,0.47-0.25,0.71-0.8,0.97C7.72,7.49,6.83,8.25,6.83,9.13v0.33
		c0,0.16,0.13,0.29,0.29,0.29h1.75c0.16,0,0.29-0.13,0.29-0.29c0-0.21,0.26-0.66,0.69-0.9c0.69-0.39,1.64-0.92,1.64-2.31
		C11.5,4.58,9.75,3.33,8.18,3.33z M9.17,10.62c0-0.16-0.13-0.29-0.29-0.29H7.13c-0.16,0-0.29,0.13-0.29,0.29v1.75
		c0,0.16,0.13,0.29,0.29,0.29h1.75c0.16,0,0.29-0.13,0.29-0.29V10.62z"/>
</g>
</svg>
