<?xml version="1.0" encoding="utf-8"?>
<!-- Generator: Adobe Illustrator 19.1.0, SVG Export Plug-In . SVG Version: 6.00 Build 0)  -->
<svg version="1.1" xmlns="http://www.w3.org/2000/svg" xmlns:xlink="http://www.w3.org/1999/xlink" x="0px" y="0px"
	 viewBox="0 0 16 16" enable-background="new 0 0 16 16" xml:space="preserve">
<g id="save-translation">
	<path d="M15.79,8.07C15.72,8.02,15.64,8,15.57,8c-0.07,0-0.13,0.02-0.2,0.05c-0.05,0.03-0.12,0.08-0.21,0.13
		c-0.42,0.29-1.3,0.88-2.11,0.88c-0.22,0-0.43-0.05-0.6-0.15C11.67,8.48,10.74,8,9.61,8c-1.43,0-2.96,0.98-3.4,1.27
		C6.08,9.37,6,9.53,6,9.7v5.8c0,0.18,0.08,0.34,0.22,0.44C6.29,15.98,6.36,16,6.43,16c0.07,0,0.16-0.02,0.22-0.07
		c0.79-0.56,2.17-1.14,3.15-1.14c0.84,0,1.38,0.31,2.07,0.71l0.19,0.11c0.31,0.18,0.67,0.27,1.07,0.27c1.05,0,2.07-0.64,2.51-0.91
		c0.05-0.03,0.09-0.05,0.12-0.07C15.9,14.82,16,14.65,16,14.46V8.5C16,8.33,15.92,8.16,15.79,8.07z M15,14.2
		c-0.4,0.24-1.18,0.68-1.86,0.68c-0.22,0-0.41-0.05-0.57-0.14l-0.19-0.11c-0.72-0.42-1.46-0.85-2.57-0.85
		c-0.87,0-1.93,0.35-2.81,0.78V9.95C7.76,9.47,8.79,9,9.61,9c0.87,0,1.61,0.37,2.34,0.78c0.33,0.19,0.7,0.28,1.1,0.28
		c0.7,0,1.38-0.28,1.95-0.6V14.2z"/>
	<path d="M5,14v-3.75V9.7C5,9.46,5.06,9.22,5.17,9H4.5C4.22,9,4,9.22,4,9.5V14H2V2h2v3.5C4,5.78,4.22,6,4.5,6h5
		C9.78,6,10,5.78,10,5.5V2h0.8c0.28,0,0.55,0.12,0.74,0.32l1.91,2C13.8,4.69,14,5.19,14,5.7v2.03c0.18-0.1,0.38-0.22,0.59-0.36
		c0.01-0.01,0.03-0.02,0.04-0.03c0.08-0.05,0.14-0.09,0.18-0.12c0.02-0.01,0.03-0.02,0.05-0.03c0.04-0.02,0.09-0.03,0.13-0.05V5.41
		c0-0.52-0.2-1.02-0.56-1.39l-2.35-2.43C11.71,1.21,11.2,1,10.67,1H1.5C1.22,1,1,1.22,1,1.5v13C1,14.78,1.22,15,1.5,15H5V14z
		 M7,2.25C7,2.11,7.11,2,7.25,2h1.5C8.89,2,9,2.11,9,2.25v2.5C9,4.89,8.89,5,8.75,5h-1.5C7.11,5,7,4.89,7,4.75V2.25z"/>
</g>
</svg>
