<?xml version="1.0" encoding="utf-8"?>
<!-- Generator: Adobe Illustrator 19.1.0, SVG Export Plug-In . SVG Version: 6.00 Build 0)  -->
<svg version="1.1" id="actions-document-duplicates-select"
	 xmlns="http://www.w3.org/2000/svg" xmlns:xlink="http://www.w3.org/1999/xlink" x="0px" y="0px" viewBox="-471 273 16 16"
	 enable-background="new -471 273 16 16" xml:space="preserve">
<path d="M-456,277h-3v-3h-11v11h3v3h11V277z M-469,284v-9h9v2h-7v7H-469z M-457,287h-9v-2v-1v-6h6h1h2V287z"/>
<path d="M-460,285h-3v-0.68c0.21-0.2,0.42-0.39,0.63-0.59c0.21-0.2,0.4-0.39,0.58-0.59c0.38-0.41,0.64-0.73,0.78-0.98
	c0.14-0.24,0.21-0.5,0.21-0.77c0-0.26-0.07-0.45-0.22-0.6c-0.15-0.14-0.37-0.22-0.64-0.22c-0.18,0-0.38,0.03-0.58,0.11
	c-0.21,0.07-0.42,0.18-0.62,0.33h-0.03v-0.69c0.14-0.07,0.33-0.15,0.56-0.22c0.23-0.07,0.47-0.09,0.68-0.09
	c0.46,0,0.81,0.13,1.06,0.37c0.26,0.24,0.39,0.57,0.39,0.98c0,0.18-0.02,0.36-0.07,0.52c-0.04,0.16-0.1,0.32-0.19,0.46
	c-0.07,0.13-0.17,0.27-0.27,0.4c-0.11,0.13-0.23,0.27-0.38,0.44c-0.21,0.23-0.43,0.45-0.66,0.67c-0.23,0.22-0.43,0.42-0.64,0.6h2.39
	V285z"/>
</svg>
