<?xml version="1.0" encoding="utf-8"?>
<!-- Generator: Adobe Illustrator 19.1.0, SVG Export Plug-In . SVG Version: 6.00 Build 0)  -->
<svg version="1.1" id="Ebene_1" xmlns="http://www.w3.org/2000/svg" xmlns:xlink="http://www.w3.org/1999/xlink" x="0px" y="0px"
	 viewBox="0 0 16 16" enable-background="new 0 0 16 16" xml:space="preserve">
<rect x="2" y="6" width="6" height="4"/>
<path d="M16,11.5v-7C16,4.22,15.78,4,15.5,4H10V3h1V2H8v1h1v1v1v6v1v1H8v1h3v-1h-1v-1h5.5C15.78,12,16,11.78,16,11.5z M10,5h5v6h-5
	V5z"/>
<path d="M8,12H0.5C0.22,12,0,11.78,0,11.5v-7C0,4.22,0.22,4,0.5,4H8v1H1v6h7V12z"/>
</svg>
