<?xml version="1.0" encoding="utf-8"?>
<!-- Generator: Adobe Illustrator 19.1.0, SVG Export Plug-In . SVG Version: 6.00 Build 0)  -->
<svg version="1.1" id="actions-page-open" xmlns="http://www.w3.org/2000/svg" xmlns:xlink="http://www.w3.org/1999/xlink" x="0px"
	 y="0px" viewBox="0 0 16 16" enable-background="new 0 0 16 16" xml:space="preserve">
 <g id="page-open">
	<path d="M13,13.16V14h-0.84l-1,1h2.34c0.28,0,0.5-0.22,0.5-0.5v-2.34L13,13.16z"/>
	<path d="M5,14H3V2h6v3.5C9,5.78,9.22,6,9.5,6h2.34l0.46-0.46c0.41-0.42,1.06-0.59,1.67-0.47c-0.05-0.39-0.26-0.85-0.51-1.1
		l-2.44-2.44C10.74,1.24,10.16,1,9.75,1H2.5C2.22,1,2,1.22,2,1.5v13C2,14.78,2.22,15,2.5,15H5V14z M10,2.06
		c0,0.05,0.27,0.12,0.32,0.17l2.45,2.45C12.82,4.73,12.89,5,12.94,5H10V2.06z"/>
	<path d="M14.24,10.51L8.75,16H6v-2.75l5.49-5.49L14.24,10.51z M9,14.55L7.45,13l-0.6,0.6v0.71h0.84v0.84H8.4L9,14.55z M11.7,8.88
		c-0.04,0-0.08,0.01-0.11,0.05l-3.58,3.58c-0.03,0.03-0.05,0.07-0.05,0.11c0,0.09,0.06,0.14,0.15,0.14c0.04,0,0.08-0.01,0.11-0.05
		l3.58-3.58c0.03-0.03,0.05-0.07,0.05-0.11C11.85,8.94,11.79,8.88,11.7,8.88z M15.76,8.99l-1.1,1.1l-2.75-2.75l1.1-1.09
		C13.16,6.09,13.38,6,13.6,6c0.22,0,0.44,0.09,0.6,0.25l1.55,1.54C15.91,7.95,16,8.17,16,8.4C16,8.62,15.91,8.84,15.76,8.99z"/>
</g>
</svg>
