<?xml version="1.0" encoding="utf-8"?>
<!-- Generator: Adobe Illustrator 19.1.0, SVG Export Plug-In . SVG Version: 6.00 Build 0)  -->
<svg version="1.1" xmlns="http://www.w3.org/2000/svg" xmlns:xlink="http://www.w3.org/1999/xlink" x="0px" y="0px"
	 viewBox="0 0 16 16" enable-background="new 0 0 16 16" xml:space="preserve">
<g id="actions-refresh">
	<path d="M14,8c0-3.31-2.69-6-6-6C6.88,2,5.84,2.31,4.94,2.84l0.61,0.97C6.27,3.39,7.1,3.13,8,3.13c2.68,0,4.87,2.18,4.87,4.87H11
		l2.5,4L16,8H14z"/>
	<path d="M8,12.87c-2.68,0-4.87-2.18-4.87-4.87H5L2.5,4L0,8h2c0,3.31,2.69,6,6,6c1.09,0,2.1-0.29,2.98-0.8l-0.61-0.97
		C9.67,12.63,8.87,12.87,8,12.87z"/>
</g>
</svg>
