<?xml version="1.0" encoding="utf-8"?>
<!-- Generator: Adobe Illustrator 19.1.0, SVG Export Plug-In . SVG Version: 6.00 Build 0)  -->
<svg version="1.1" xmlns="http://www.w3.org/2000/svg" xmlns:xlink="http://www.w3.org/1999/xlink" x="0px" y="0px"
	 viewBox="0 0 16 16" enable-background="new 0 0 16 16" xml:space="preserve">
<g id="save-close">
	<path d="M15.2,10.2L13.4,12l1.8,1.8c0.2,0.2,0.2,0.5,0,0.7l-0.7,0.7c-0.2,0.2-0.5,0.2-0.7,0L12,13.4l-1.8,1.8
		c-0.2,0.2-0.5,0.2-0.7,0l-0.7-0.7c-0.2-0.2-0.2-0.5,0-0.7l1.8-1.8l-1.8-1.8c-0.2-0.2-0.2-0.5,0-0.7l0.7-0.7c0.2-0.2,0.5-0.2,0.7,0
		l1.8,1.8l1.8-1.8c0.2-0.2,0.5-0.2,0.7,0l0.7,0.7C15.4,9.7,15.4,10,15.2,10.2z"/>
	<path d="M7.7,14H5v-3.8C5,10.1,5.1,10,5.3,10h2.4c0-0.4,0.1-0.7,0.3-1H4.5C4.2,9,4,9.2,4,9.5V14H2V2h2v3.5C4,5.8,4.2,6,4.5,6h5
		C9.8,6,10,5.8,10,5.5V2h0.8c0.3,0,0.5,0.1,0.7,0.3l1.9,2C13.8,4.7,14,5.2,14,5.7v2c0,0,0.1,0,0.1,0c0.3,0,0.6,0.1,0.9,0.3V5.4
		c0-0.5-0.2-1-0.6-1.4l-2.4-2.4C11.7,1.2,11.2,1,10.7,1H1.5C1.2,1,1,1.2,1,1.5v13C1,14.8,1.2,15,1.5,15H8C7.8,14.7,7.7,14.4,7.7,14z
		 M7,2.3C7,2.1,7.1,2,7.3,2h1.5C8.9,2,9,2.1,9,2.3v2.5C9,4.9,8.9,5,8.8,5H7.3C7.1,5,7,4.9,7,4.8V2.3z"/>
</g>
</svg>
