<?xml version="1.0" encoding="utf-8"?>
<!-- Generator: Adobe Illustrator 19.1.0, SVG Export Plug-In . SVG Version: 6.00 Build 0)  -->
<svg version="1.1" id="Ebene_1" xmlns="http://www.w3.org/2000/svg" xmlns:xlink="http://www.w3.org/1999/xlink" x="0px" y="0px"
	 viewBox="0 0 16 16" enable-background="new 0 0 16 16" xml:space="preserve">
<g>
	<path fill="#79A548" d="M13,4.6l-6,11.1C6.8,15.9,6.7,16,6.5,16c0,0-0.1,0-0.2,0c-0.2-0.1-0.4-0.3-0.3-0.5l2.2-7.8l-4.5,1
		c0,0-0.1,0-0.1,0c-0.1,0-0.3,0-0.3-0.1C3,8.5,3,8.4,3,8.2l2.2-7.9C5.3,0.1,5.5,0,5.7,0h3.7c0.3,0,0.5,0.2,0.5,0.4
		c0,0.1,0,0.1-0.1,0.2L7.9,5l4.4-0.9c0,0,0.1,0,0.1,0c0.1,0,0.3,0.1,0.4,0.1C13,4.3,13,4.5,13,4.6z"/>
</g>
</svg>
