<?xml version="1.0" encoding="utf-8"?>
<!-- Generator: Adobe Illustrator 19.1.0, SVG Export Plug-In . SVG Version: 6.00 Build 0)  -->
<svg version="1.1" xmlns="http://www.w3.org/2000/svg" xmlns:xlink="http://www.w3.org/1999/xlink" x="0px" y="0px"
	 viewBox="0 0 16 16" enable-background="new 0 0 16 16" xml:space="preserve">
<g id="actions-document-paste-after">
	<path d="M14.62,5.2l-1.89-1.89C12.49,3.06,12.1,3,11.75,3H11V1.5C11,1.22,10.78,1,10.5,1h-9C1.22,1,1,1.22,1,1.5
		v11C1,12.78,1.22,13,1.5,13H5v1.5C5,14.77,5.22,15,5.5,15h9c0.28,0,0.5-0.23,0.5-0.5V6.25C15,5.9,14.86,5.45,14.62,5.2z M3.25,3
		C3.11,3,3,2.89,3,2.75v-0.5C3,2.11,3.11,2,3.25,2h5.5C8.89,2,9,2.11,9,2.25v0.5C9,2.89,8.88,3,8.75,3H3.25z M14,14H6V4h5v2.75
		C11,6.89,11.11,7,11.25,7H14V14z M12,6V4l2,2H12z"/>
	<path d="M9.86,12.93l-2.31-2.56c-0.06-0.07-0.07-0.15-0.04-0.23C7.55,10.07,7.62,10,7.71,10H9V8h2v2h1.29
		c0.08,0,0.16,0.07,0.19,0.14c0.03,0.08,0.02,0.17-0.03,0.23l-2.28,2.56C10.13,12.97,10.08,13,10.02,13
		C9.96,13,9.9,12.97,9.86,12.93z"/>
</g>
</svg>
