<?xml version="1.0" encoding="utf-8"?>
<!-- Generator: Adobe Illustrator 19.1.0, SVG Export Plug-In . SVG Version: 6.00 Build 0)  -->
<svg version="1.1" xmlns="http://www.w3.org/2000/svg" xmlns:xlink="http://www.w3.org/1999/xlink" x="0px" y="0px"
	 viewBox="0 0 16 16" enable-background="new 0 0 16 16" xml:space="preserve">
<g id="save-cleartranslationcache">
	<path d="M15.79,8.07C15.72,8.02,15.64,8,15.57,8c-0.07,0-0.13,0.02-0.2,0.05c-0.05,0.03-0.12,0.08-0.21,0.13
		c-0.23,0.16-0.59,0.39-1,0.58c0.22,0.28,0.31,0.64,0.23,0.99C14.6,9.67,14.81,9.57,15,9.47v4.73c-0.4,0.24-1.18,0.68-1.86,0.68
		c-0.22,0-0.41-0.05-0.57-0.14l-0.19-0.11c-0.06-0.03-0.12-0.07-0.17-0.1l-0.42,0.91c0.03,0.02,0.06,0.03,0.1,0.05l0.19,0.11
		c0.31,0.18,0.67,0.27,1.07,0.27c1.05,0,2.07-0.64,2.51-0.91c0.05-0.03,0.09-0.05,0.12-0.07C15.9,14.82,16,14.65,16,14.46V8.5
		C16,8.33,15.92,8.16,15.79,8.07z"/>
	<path d="M9.45,13.82C8.66,13.9,7.76,14.19,7,14.57V9.95c0.33-0.21,0.71-0.41,1.1-0.58L8.39,8.2C7.4,8.51,6.52,9.06,6.21,9.27
		C6.08,9.37,6,9.53,6,9.7v5.8c0,0.18,0.08,0.34,0.22,0.44C6.29,15.98,6.36,16,6.43,16c0.07,0,0.16-0.02,0.22-0.07
		c0.64-0.45,1.65-0.9,2.54-1.06L9.45,13.82z"/>
	<path d="M13.4,9.61l-2.92,6.26C10.44,15.95,10.35,16,10.25,16c-0.02,0-0.05-0.01-0.08-0.01c-0.12-0.04-0.19-0.15-0.16-0.26
		l1.07-4.37l-2.2,0.55c-0.02,0.01-0.04,0.01-0.07,0.01c-0.06,0-0.12-0.02-0.17-0.06c-0.07-0.05-0.09-0.14-0.07-0.21l1.09-4.46
		C9.7,7.07,9.79,7,9.91,7h1.77c0.13,0,0.24,0.1,0.24,0.23c0,0.03-0.01,0.07-0.03,0.1l-0.92,2.5l2.14-0.53
		c0.02-0.01,0.04-0.01,0.07-0.01c0.07,0,0.13,0.03,0.18,0.08C13.42,9.43,13.44,9.53,13.4,9.61z"/>
	<path d="M5,14v-3.75V9.7C5,9.46,5.06,9.22,5.17,9H4.5C4.22,9,4,9.22,4,9.5V14H2V2h2v3.5C4,5.78,4.22,6,4.5,6h5
		C9.78,6,10,5.78,10,5.5V2h0.8c0.28,0,0.55,0.12,0.74,0.32l1.91,2C13.8,4.69,14,5.19,14,5.7v2.03c0.18-0.1,0.38-0.22,0.59-0.36
		c0.01-0.01,0.03-0.02,0.04-0.03c0.08-0.05,0.14-0.09,0.18-0.12c0.02-0.01,0.03-0.02,0.05-0.03c0.04-0.02,0.09-0.03,0.13-0.05V5.41
		c0-0.52-0.2-1.02-0.56-1.39l-2.35-2.43C11.71,1.21,11.2,1,10.67,1H1.5C1.22,1,1,1.22,1,1.5v13C1,14.78,1.22,15,1.5,15H5V14z
		 M7,2.25C7,2.11,7.11,2,7.25,2h1.5C8.89,2,9,2.11,9,2.25v2.5C9,4.89,8.89,5,8.75,5h-1.5C7.11,5,7,4.89,7,4.75V2.25z"/>
</g>
</svg>
