<?xml version="1.0" encoding="utf-8"?>
<!-- Generator: Adobe Illustrator 19.1.0, SVG Export Plug-In . SVG Version: 6.00 Build 0)  -->
<svg version="1.1" xmlns="http://www.w3.org/2000/svg" xmlns:xlink="http://www.w3.org/1999/xlink" x="0px" y="0px"
	 viewBox="0 0 16 16" enable-background="new 0 0 16 16" xml:space="preserve">
<g id="save-new">
	<path d="M15.5,13H13v2.5c0,0.3-0.2,0.5-0.5,0.5h-1c-0.3,0-0.5-0.2-0.5-0.5V13H8.5C8.2,13,8,12.8,8,12.5v-1C8,11.2,8.2,11,8.5,11H11
		V8.5C11,8.2,11.2,8,11.5,8h1C12.8,8,13,8.2,13,8.5V11h2.5c0.3,0,0.5,0.2,0.5,0.5v1C16,12.8,15.8,13,15.5,13z"/>
	<path d="M14,14v1h0.5c0.3,0,0.5-0.2,0.5-0.5V14H14z"/>
	<path d="M10,14H8.5H5v-3.8C5,10.1,5.1,10,5.3,10h3.3H10V9H4.5C4.2,9,4,9.2,4,9.5V14H2V2h2v3.5C4,5.8,4.2,6,4.5,6h5
		C9.8,6,10,5.8,10,5.5V2h0.8c0.3,0,0.5,0.1,0.7,0.3l1.9,2C13.8,4.7,14,5.2,14,5.7v2.8V10h1V5.4c0-0.5-0.2-1-0.6-1.4l-2.4-2.4
		C11.7,1.2,11.2,1,10.7,1H1.5C1.2,1,1,1.2,1,1.5v13C1,14.8,1.2,15,1.5,15H10V14z M7,2.3C7,2.1,7.1,2,7.3,2h1.5C8.9,2,9,2.1,9,2.3
		v2.5C9,4.9,8.9,5,8.8,5H7.3C7.1,5,7,4.9,7,4.8V2.3z"/>
</g>
</svg>
