<?xml version="1.0" encoding="utf-8"?>
<!-- Generator: Adobe Illustrator 19.1.0, SVG Export Plug-In . SVG Version: 6.00 Build 0)  -->
<svg version="1.1" id="Ebene_1" xmlns="http://www.w3.org/2000/svg" xmlns:xlink="http://www.w3.org/1999/xlink" x="0px" y="0px"
	 viewBox="0 0 16 16" enable-background="new 0 0 16 16" xml:space="preserve">
<path d="M13.46,2c0.22,0,0.42,0.14,0.5,0.33c0.09,0.2,0.04,0.44-0.12,0.6l-4.2,4.2v6.32c0,0.22-0.14,0.42-0.33,0.5
	C9.23,13.98,9.16,14,9.09,14c-0.14,0-0.28-0.05-0.38-0.16l-2.18-2.18c-0.1-0.1-0.16-0.24-0.16-0.38V7.13l-4.2-4.2
	C2,2.78,1.95,2.54,2.04,2.33C2.13,2.14,2.32,2,2.54,2H13.46 M13.46,1H2.54C1.93,1,1.37,1.37,1.12,1.93
	c-0.25,0.6-0.11,1.29,0.35,1.72l3.89,3.89v3.73c0,0.41,0.16,0.8,0.46,1.09L8,14.55C8.26,14.83,8.66,15,9.09,15
	c0.19,0,0.38-0.04,0.57-0.11c0.61-0.26,0.98-0.82,0.98-1.44V7.55l3.91-3.91c0.44-0.42,0.58-1.1,0.33-1.69
	C14.63,1.37,14.07,1,13.46,1L13.46,1z"/>
</svg>
