<?xml version="1.0" encoding="utf-8"?>
<!-- Generator: Adobe Illustrator 19.1.0, SVG Export Plug-In . SVG Version: 6.00 Build 0)  -->
<svg version="1.1" xmlns="http://www.w3.org/2000/svg" xmlns:xlink="http://www.w3.org/1999/xlink" x="0px" y="0px"
	 viewBox="0 0 16 16" enable-background="new 0 0 16 16" xml:space="preserve">
<g id="actions-page-new">
	<path d="M10,14H8.5H3V2h6v3.5C9,5.78,9.22,6,9.5,6H13v1.09c0.58,0.21,1,0.76,1,1.41V5.25
		c0-0.41-0.24-0.99-0.53-1.28l-2.44-2.44C10.74,1.24,10.16,1,9.75,1H2.5C2.22,1,2,1.22,2,1.5v13C2,14.78,2.22,15,2.5,15H10V14z
		 M10,2.06c0.13,0.05,0.27,0.12,0.32,0.17l2.45,2.45c0.05,0.05,0.13,0.19,0.17,0.32H10V2.06z"/>
	<path d="M15.5,13H13v2.5c0,0.28-0.22,0.5-0.5,0.5h-1c-0.28,0-0.5-0.22-0.5-0.5V13H8.5C8.22,13,8,12.78,8,12.5v-1
		C8,11.22,8.22,11,8.5,11H11V8.5C11,8.22,11.22,8,11.5,8h1C12.78,8,13,8.22,13,8.5V11h2.5c0.28,0,0.5,0.22,0.5,0.5v1
		C16,12.78,15.78,13,15.5,13z"/>
</g>
</svg>
