<?xml version="1.0" encoding="utf-8"?>
<!-- Generator: Adobe Illustrator 19.1.0, SVG Export Plug-In . SVG Version: 6.00 Build 0)  -->
<svg version="1.1" xmlns="http://www.w3.org/2000/svg" xmlns:xlink="http://www.w3.org/1999/xlink" x="0px" y="0px"
	 viewBox="0 0 16 16" enable-background="new 0 0 16 16" xml:space="preserve">
<g id="save-view">
	<path display="inline" d="M11.2,9c0,0-0.1,0-0.1,0c0,0,0,0,0,0c0,0,0,0,0,0c-2.8,0-5,1.6-5,3.5S8.2,16,11,16s5-1.6,5-3.5
		C16,10.6,13.8,9.1,11.2,9z M11.1,9.8c0.1,0,0.3,0.1,0.3,0.2c0,0.1-0.1,0.2-0.3,0.2c-0.6,0-1.2,0.5-1.2,1.1c0,0.1-0.1,0.2-0.3,0.2
		s-0.3-0.1-0.3-0.2C9.4,10.5,10.2,9.8,11.1,9.8z M11,15c-2.2,0-4-1.1-4-2.5c0-0.9,0.7-1.6,1.8-2.1c-0.2,0.3-0.2,0.7-0.2,1.1
		c0,1.4,1.1,2.5,2.5,2.5s2.5-1.1,2.5-2.5c0-0.4-0.1-0.7-0.2-1c1,0.5,1.7,1.2,1.7,2C15,13.9,13.2,15,11,15z"/>
	<path d="M5.3,14H5v-3.8C5,10.1,5.1,10,5.3,10H6c0.3-0.4,0.7-0.7,1.2-1H4.5C4.2,9,4,9.2,4,9.5V14H2V2h2v3.5C4,5.8,4.2,6,4.5,6h5
		C9.8,6,10,5.8,10,5.5V2h0.8c0.3,0,0.5,0.1,0.7,0.3l1.9,2C13.8,4.7,14,5.2,14,5.7v2.9c0.4,0.2,0.7,0.3,1,0.5V5.4
		c0-0.5-0.2-1-0.6-1.4l-2.4-2.4C11.7,1.2,11.2,1,10.7,1H1.5C1.2,1,1,1.2,1,1.5v13C1,14.8,1.2,15,1.5,15H6C5.7,14.7,5.5,14.4,5.3,14
		z M7,2.3C7,2.1,7.1,2,7.3,2h1.5C8.9,2,9,2.1,9,2.3v2.5C9,4.9,8.9,5,8.8,5H7.3C7.1,5,7,4.9,7,4.8V2.3z"/>
</g>
</svg>
