<svg xmlns="http://www.w3.org/2000/svg" viewBox="0 0 64 64"><g fill="currentColor"><path d="M33.49 38h-3a.5.5 0 0 0-.5.5v3a.5.5 0 0 0 .5.5h3a.5.5 0 0 0 .5-.5v-3a.5.5 0 0 0-.5-.5zM37.892 26.902c-.426-2.402-2.394-4.374-4.798-4.802a6.007 6.007 0 0 0-7.082 5.366c-.024.286.222.534.51.534h3.022c.254 0 .438-.196.494-.444A2.007 2.007 0 0 1 31.99 26c1.102 0 2 .898 2 2 0 .714-.398 1.314-.964 1.666a5.968 5.968 0 0 0-3.036 5.2v.634a.5.5 0 0 0 .5.5h3a.5.5 0 0 0 .5-.5v-.634c0-.718.402-1.318.972-1.67a5.978 5.978 0 0 0 2.93-6.294z"/><path d="M32 19c7.168 0 13 5.832 13 13s-5.832 13-13 13-13-5.832-13-13 5.832-13 13-13m0-3c-8.837 0-16 7.163-16 16s7.163 16 16 16 16-7.163 16-16-7.163-16-16-16z"/></g></svg>