<?xml version="1.0" encoding="utf-8"?>
<!-- Generator: Adobe Illustrator 27.4.0, SVG Export Plug-In . SVG Version: 6.00 Build 0)  -->
<svg version="1.1" id="Ebene_1" xmlns="http://www.w3.org/2000/svg" xmlns:xlink="http://www.w3.org/1999/xlink" x="0px" y="0px"
	 viewBox="0 0 1200 1200" enable-background="new 0 0 1200 1200" xml:space="preserve">
<path fill="#28882D" d="M-1-3h1203v1203H-1V-3z"/>
<path fill-rule="evenodd" clip-rule="evenodd" fill="#FFFFFF" d="M883.5930176,825.1599731L719.4660034,660.6240234h93.4949951
	c7.0759888,0,13.2000122-2.5830078,18.3740234-7.757019c5.1669922-5.1669922,7.757019-11.289978,7.757019-18.3720093
	c0-7.0750122-2.5900269-13.2000122-7.7559814-18.3729858L667.2059937,451.5870056h80.4299927
	c7.0759888,0,13.2000122-2.5840149,18.3729858-7.7579956c5.1669922-5.1679993,7.757019-11.2919922,7.757019-18.3729858
	c0-7.0750122-2.5900269-13.2000122-7.7579956-18.3729858L609.2299805,250.3059998
	c-5.1729736-5.1669922-11.2969971-7.7570038-18.3699951-7.7570038c-7.0819702,0-13.2069702,2.5899963-18.3740234,7.7559967
	L415.7080078,407.0840149c-5.1740112,5.1740112-7.7569885,11.2980042-7.7569885,18.3729858
	c0,7.0799866,2.5840149,13.2049866,7.7579956,18.3720093c5.1669922,5.1730042,11.2900085,7.7569885,18.3720093,7.7569885h80.4300232
	L350.3850098,616.1220093c-5.1740112,5.1740112-7.7579956,11.2979736-7.7579956,18.3729858
	c0,7.0800171,2.5840149,13.2050171,7.7579956,18.3720093c5.1669922,5.1740112,11.2900085,7.757019,18.3720093,7.757019h93.4949951
	L298.125,825.1599731c-5.1730042,5.1729736-7.7569885,11.2979736-7.7569885,18.3720093
	c0,7.0800171,2.5840149,13.2050171,7.7569885,18.3729858c5.1669922,5.1729736,11.2919922,7.757019,18.3729858,7.757019h188.6220093
	c-0.2739868,4.625-1.0899963,16.5349731-2.4500122,35.723999c-1.3640137,19.1900024-2.0400085,33.9500122-2.0400085,44.2979736
	c0,6.7999878,2.4500122,12.5869751,7.3479919,17.3519897c4.9000244,4.7600098,10.75,7.1450195,17.5559692,7.1450195H656.18396
	c6.7999878,0,12.6550293-2.3850098,17.5549927-7.1439819c4.8980103-4.7650146,7.3480225-10.5499878,7.3480225-17.3519897
	c0-10.3469849-0.6829834-25.1099854-2.0419922-44.2979736c-1.3649902-19.1900024-2.1799927-31.0999756-2.4500122-35.723999h188.625
	c7.0750122,0,13.2000122-2.5839844,18.3729858-7.757019c5.1669922-5.1680298,7.757019-11.2919922,7.757019-18.3729858
	c0-7.0739746-2.5900269-13.2000122-7.757019-18.3720093L883.5930176,825.1599731z"/>
</svg>
