<svg xmlns="http://www.w3.org/2000/svg" preserveAspectRatio="xMidYMid" width="848" height="1033.031" viewBox="0 0 848 1033.031"><defs><style>.cls-1 { fill: #28882d; fill-rule: evenodd; }</style></defs><path d="M837.063 822.615L605.47 590.303H737.4c9.983 0 18.624-3.648 25.924-10.952 7.292-7.295 10.946-15.942 10.946-25.94 0-9.99-3.654-18.636-10.946-25.94L531.73 295.158h113.492c9.982 0 18.624-3.648 25.924-10.953 7.29-7.296 10.946-15.943 10.946-25.94 0-9.99-3.655-18.636-10.946-25.94L449.923 10.964C442.623 3.67 433.983.012 424 .012c-9.993 0-18.634 3.657-25.926 10.953l-221.222 221.36c-7.3 7.304-10.946 15.95-10.946 25.94 0 9.997 3.645 18.644 10.946 25.94 7.29 7.305 15.932 10.953 25.924 10.953h113.492L84.675 527.47c-7.3 7.304-10.945 15.95-10.945 25.94 0 9.998 3.645 18.645 10.945 25.94 7.292 7.305 15.933 10.953 25.925 10.953h131.927L10.934 822.615C3.634 829.92-.01 838.567-.01 848.555c0 10 3.644 18.646 10.944 25.94 7.292 7.306 15.933 10.954 25.925 10.954h266.158c-.387 6.53-1.54 23.345-3.457 50.44-1.925 27.092-2.88 47.935-2.88 62.544 0 9.602 3.457 17.77 10.37 24.5 6.914 6.72 15.168 10.088 24.773 10.088h184.352c9.596 0 17.86-3.37 24.772-10.088 6.914-6.73 10.37-14.898 10.37-24.5 0-14.61-.963-35.452-2.88-62.545-1.927-27.095-3.08-43.91-3.457-50.44h266.16c9.98 0 18.623-3.65 25.923-10.954 7.292-7.295 10.946-15.942 10.946-25.94 0-9.99-3.655-18.636-10.947-25.94z" class="cls-1"/></svg>