<svg xmlns="http://www.w3.org/2000/svg" viewBox="0 0 32 32"><path fill="#59F" d="M27.4 23.2c-3-.8-5-2-7.1-2.8.1.4.1.6-.1.9-2.1 2.3-6.5 2.1-8.4 0-.3-.3-.2-.5-.1-.9-2.1.8-4.1 2-7.1 2.8 0 0-2.5 1.4-2.6 6.8h28c-.2-5.6-2.6-6.8-2.6-6.8z"/><path fill="#FFC857" d="M16 17.8c-1.2 0-2.5-.7-3.5-1.7-.1 4.2-1.3 4.6-.7 5.2 1.9 2.1 6.3 2.3 8.4 0 .6-.6-.5-1-.7-5.3-1 1-2.2 1.8-3.5 1.8z"/><path fill="#212121" d="M16 17.8c-1.2 0-2.5-.7-3.5-1.7-.1 4.2-1.3 4.6-.7 5.2 1.9 2.1 6.3 2.3 8.4 0 .6-.6-.5-1-.7-5.3-1 1-2.2 1.8-3.5 1.8z" opacity=".05"/><path fill="#FFC857" d="M16 17.8c-3 0-5.9-4-5.9-6.8V7.1c0-2.8 2.4-5.1 5.3-5.1h1.4c3 0 5.3 2.3 5.3 5.1V11c-.2 2.7-3.1 6.8-6.1 6.8z"/><path fill="#FFF" d="M16 17.8c-3 0-5.9-4-5.9-6.8V7.1c0-2.8 2.4-5.1 5.3-5.1h1.4c3 0 5.3 2.3 5.3 5.1V11c-.2 2.7-3.1 6.8-6.1 6.8z" opacity=".15"/></svg>