<svg xmlns="http://www.w3.org/2000/svg" viewBox="0 0 32 32"><g opacity=".5"><path fill="#FF8700" d="M23.8 20.2c-2.6-.7-4.3-1.7-6.1-2.4.1.3.1.5-.1.8-1.8 2-5.6 1.8-7.2 0-.3-.3-.2-.4-.1-.8-1.8.7-3.5 1.7-6.1 2.4 0 0-2.1 1.2-2.2 5.8h24c-.2-4.8-2.2-5.8-2.2-5.8z"/><path fill="#FFC857" d="M14 15.5c-1 0-2.1-.6-3-1.5-.1 3.6-1.1 3.9-.6 4.5 1.6 1.8 5.4 2 7.2 0 .5-.5-.4-.9-.6-4.5-.9.9-1.9 1.5-3 1.5z"/><path fill="#212121" d="M14 15.5c-1 0-2.1-.6-3-1.5-.1 3.6-1.1 3.9-.6 4.5 1.6 1.8 5.4 2 7.2 0 .5-.5-.4-.9-.6-4.5-.9.9-1.9 1.5-3 1.5z" opacity=".05"/><path fill="#FFC857" d="M14 15.5c-2.6 0-5.1-3.4-5.1-5.8V6.4C8.9 4 11 2 13.5 2h1.2c2.6 0 4.5 2 4.5 4.4v3.3c-.1 2.3-2.6 5.8-5.2 5.8z"/><path fill="#FFF" d="M14 15.5c-2.6 0-5.1-3.4-5.1-5.8V6.4C8.9 4 11 2 13.5 2h1.2c2.6 0 4.5 2 4.5 4.4v3.3c-.1 2.3-2.6 5.8-5.2 5.8z" opacity=".15"/></g><g><path fill="#79A548" d="M27.8 24.2c-2.6-.7-4.3-1.7-6.1-2.4.1.3.1.5-.1.8-1.8 2-5.6 1.8-7.2 0-.3-.3-.2-.4-.1-.8-1.8.7-3.5 1.7-6.1 2.4 0 0-2.1 1.2-2.2 5.8h24c-.2-4.8-2.2-5.8-2.2-5.8z"/><path fill="#FFC857" d="M18 19.5c-1 0-2.1-.6-3-1.5-.1 3.6-1.1 3.9-.6 4.5 1.6 1.8 5.4 2 7.2 0 .5-.5-.4-.9-.6-4.5-.9.9-1.9 1.5-3 1.5z"/><path d="M18 19.5c-1 0-2.1-.6-3-1.5-.1 3.6-1.1 3.9-.6 4.5 1.6 1.8 5.4 2 7.2 0 .5-.5-.4-.9-.6-4.5-.9.9-1.9 1.5-3 1.5z" opacity=".05"/><path fill="#FFC857" d="M18 19.5c-2.6 0-5.1-3.4-5.1-5.8v-3.3C12.9 8 15 6 17.5 6h1.2c2.6 0 4.5 2 4.5 4.4v3.3c-.1 2.3-2.6 5.8-5.2 5.8z"/><path fill="#FFF" d="M18 19.5c-2.6 0-5.1-3.4-5.1-5.8v-3.3C12.9 8 15 6 17.5 6h1.2c2.6 0 4.5 2 4.5 4.4v3.3c-.1 2.3-2.6 5.8-5.2 5.8z" opacity=".15"/></g></svg>