<svg xmlns="http://www.w3.org/2000/svg" viewBox="0 0 32 32"><g><g><g><path fill="#C83C3C" d="M5 2v28h22V8l-6-6H5z"/></g></g></g><path fill="#FFF" d="M21 8V2l6 6h-6z" opacity=".65"/><path fill="#212121" d="M27 8v6l-6-6h6z" opacity=".15"/><g><path fill="#FFF" d="M19.9 15.5L17.4 18l2.5 2.5c.2.2.2.5 0 .7l-.7.7c-.2.2-.5.2-.7 0L16 19.4l-2.5 2.5c-.2.2-.5.2-.7 0l-.7-.7c-.2-.2-.2-.5 0-.7l2.5-2.5-2.5-2.5c-.2-.2-.2-.5 0-.7l.7-.7c.2-.2.5-.2.7 0l2.5 2.5 2.5-2.5c.2-.2.5-.2.7 0l.7.7c.2.2.2.5 0 .7z"/></g></svg>