<svg xmlns="http://www.w3.org/2000/svg" viewBox="0 0 32 32"><g><path fill="#79A548" d="M6 5.5h20v21H6z"/><g fill="#79A548"><ellipse cx="16" cy="26.5" rx="10" ry="3.5"/><ellipse cx="16" cy="5.5" rx="10" ry="3.5"/></g><g opacity=".25"><ellipse cx="16" cy="5.5" fill="#FFF" rx="10" ry="3.5"/><ellipse cx="16" cy="5.3" fill="#212121" rx="7" ry="1.8"/></g></g><g fill="#FFF"><path d="M22.1 17.9c-.1-.1-.2-.2-.4-.2h-.9c-.1-2.5-2.2-4.5-4.7-4.5-.8 0-1.7.2-2.4.7l-.3.1.7 1.2.2-.1c.5-.3 1.1-.5 1.7-.5 1.8 0 3.3 1.4 3.4 3.2h-.8c-.2 0-.3.1-.4.2-.1.1-.1.3 0 .4l1.5 2.5c.2.1.3.1.5.1s.3-.1.4-.2l1.5-2.5c.1-.1.1-.2 0-.4zM17.6 21c-.5.3-1.1.4-1.7.4a3.4 3.4 0 0 1-3.4-3.2h.8c.2 0 .3-.1.4-.2.1-.1.1-.3 0-.4l-1.5-2.5c-.2-.2-.6-.2-.7 0L10 17.6c-.1.1-.1.3 0 .4.1.1.2.2.4.2h.9c.1 2.5 2.2 4.5 4.7 4.5.8 0 1.6-.2 2.4-.6l.2-.1-.7-1.1-.3.1z"/></g></svg>