<svg xmlns="http://www.w3.org/2000/svg" viewBox="0 0 32 32"><g><path fill="#59F" d="M10.7 6h16.4c.5 0 .9.4.9.9v18.2c0 .5-.4.9-.9.9h-10L10.7 6z"/></g><path fill="#FFF" d="M14.4 13.5V13c0-.4.3-.7.7-.7H19v-1.1c0-.4.3-.7.7-.7h.3c.4 0 .7.3.7.7v1.1h3.9c.4 0 .7.3.7.7v.5c0 .4-.3.7-.7.7h-.9c-.4 1.4-1.3 2.9-2.6 4.3.6.5 1.2 1 1.8 1.4.3.2.4.6.2.9l-.2.4c-.2.3-.6.4-1 .2-.7-.5-1.4-1-2.1-1.6-.7.6-1.4 1.1-2.2 1.6-.3.2-.8.1-1-.2l-.2-.4c-.2-.3-.1-.7.2-.9.6-.4 1.3-.9 1.8-1.4-.6-.6-1.1-1.3-1.5-1.9-.2-.3-.1-.8.2-1l.4-.2c.3-.2.7-.1.9.2.4.5.8 1.1 1.2 1.6.9-1 1.5-2 1.9-3H15c-.3 0-.6-.3-.6-.7z"/><path fill="#212121" d="M24 26H11V6h6.7z" opacity=".25"/><g><path fill="#C83C3C" d="M23 27H5c-.5 0-1-.4-1-1V6c0-.6.4-1 1-1h11l7 22z"/></g><path fill="#FFF" d="M7 22l3.8-12H14l3.8 12h-2.9l-.7-2.9h-3.7L9.8 22H7zm4.3-6.1L11 17h2.6l-.3-1.1c-.2-.6-.3-1.2-.5-1.9s-.3-1.3-.5-2h-.1c-.1.6-.3 1.3-.5 2 0 .7-.2 1.3-.4 1.9z"/></svg>