<svg xmlns="http://www.w3.org/2000/svg" viewBox="0 0 32 32"><path fill="#FFC857" d="M24.8 5H7.2c-.1 0-.2.1-.3.1L4 10.9V26.7c0 .2.1.3.3.3h23.5c.1 0 .3-.1.3-.3V11l-2.9-5.8c-.2-.1-.3-.2-.4-.2z"/><g fill="#212121" opacity=".15"><path d="M24.8 5H7.2c-.1 0-.2.1-.3.1l-1 2.2h20.3l-1.1-2.1c-.1-.1-.2-.2-.3-.2zM26.9 8.8H5.1L4 11h24z"/></g><g><path fill="#515151" d="M23.6 28.3l-2.8-2.8c-.4.6-.9 1.1-1.5 1.5l2.8 2.7c.2.2.5.3.8.3.6 0 1.1-.5 1.1-1.1 0-.2-.2-.4-.4-.6z"/><circle cx="15.9" cy="22.1" r="6" fill="#ABD7FF"/><path fill="#59F" d="M15.9 17.6c2.5 0 4.5 2 4.5 4.5s-2 4.5-4.5 4.5-4.5-2-4.5-4.5 2-4.5 4.5-4.5m0-1.5c-3.3 0-6 2.7-6 6s2.7 6 6 6 6-2.7 6-6-2.6-6-6-6z"/><circle cx="17.5" cy="20.6" r="1.5" fill="#FFF" opacity=".6"/></g></svg>