<svg xmlns="http://www.w3.org/2000/svg" viewBox="0 0 32 32"><path fill="#59F" d="M2 4h22v22H2z"/><ellipse cx="13" cy="26" fill="#59F" rx="11" ry="4"/><ellipse cx="13" cy="4" fill="#59F" rx="11" ry="4"/><g opacity=".25"><ellipse cx="13" cy="4" fill="#FFF" rx="11" ry="4"/><ellipse cx="13" cy="4" fill="#212121" rx="7" ry="2"/></g><path fill="#FFC857" d="M14 13h16v16H14z"/><ellipse cx="22" cy="29" fill="#FFC857" rx="8" ry="3"/><ellipse cx="22" cy="13" fill="#FFC857" rx="8" ry="3"/><g opacity=".25"><ellipse cx="22" cy="13" fill="#FFF" rx="8" ry="3"/><ellipse cx="22" cy="13" rx="5" ry="1.5"/></g><path fill="#FFF" d="M20.5 27.8l4.5-5.7c.1-.2.1-.5-.2-.5H23c-.2 0-.3-.1-.2-.3l1.6-2.8c.1-.2.1-.5-.2-.5H21c-.2 0-.4.2-.5.3l-1.4 5c-.1.2.1.3.3.3H21c.2 0 .3.2.2.3 0 0-1.4 3.5-1.4 3.6 0 .2.2.4.4.4.1 0 .2 0 .3-.1-.1.1-.1 0 0 0z"/></svg>