<svg xmlns="http://www.w3.org/2000/svg" viewBox="0 0 16 16" style="enable-background:new 0 0 16 16;" xml:space="preserve"><path style="fill:#5599FF;" d="M15,12c0,1.657-1.344,3-3,3H4c-1.657,0-3-1.343-3-3V4c0-1.657,1.343-3,3-3h8c1.656,0,3,1.343,3,3V12z"/><path style="fill:#FFFFFF;" d="M8.007,4c1.069,0.002,2.039,0.423,2.757,1.107l0.576-0.575C11.582,4.287,12,4.46,12,4.805v2.162 c0,0.215-0.175,0.386-0.388,0.386H9.451c-0.345,0-0.517-0.417-0.273-0.66l0.673-0.673c-0.498-0.465-1.143-0.726-1.827-0.73 C6.533,5.278,5.276,6.484,5.29,8.023C5.302,9.484,6.486,10.709,8,10.709c0.663,0,1.292-0.236,1.787-0.668 c0.075-0.067,0.191-0.065,0.264,0.008l0.639,0.641c0.078,0.076,0.075,0.205-0.008,0.279C9.972,11.609,9.032,12,8,12 c-2.209,0-4-1.792-4-4C3.999,5.793,5.8,3.996,8.007,4z"/></svg>
