<svg xmlns="http://www.w3.org/2000/svg" viewBox="0 0 64 64"><path fill="#3471A9" d="M0 0h64v64H0z"/><path fill="#FFF" d="M34.9 42v-2h11v2h-11zM28 33v-2h17.9v2H28zm11-9v-2h7v2h-7zm9 15.2c0-.6-.5-1.1-1.1-1.1H17.1c-.6 0-1.1.5-1.1 1.1v3.7c0 .6.5 1.1 1.1 1.1h29.7c.6 0 1.1-.5 1.1-1.1v-3.7zm0-9c0-.6-.5-1.1-1.1-1.1H17.1c-.6 0-1.1.5-1.1 1.1v3.7c0 .6.5 1.1 1.1 1.1h29.7c.6 0 1.1-.5 1.1-1.1v-3.7zm0-9.1c0-.6-.5-1.1-1.1-1.1H17.1c-.6 0-1.1.5-1.1 1.1v3.7c0 .6.5 1.1 1.1 1.1h29.7c.6 0 1.1-.5 1.1-1.1v-3.7z"/></svg>