<svg xmlns="http://www.w3.org/2000/svg" viewBox="24 -24 64 64"><style>.st0{fill:#3471a9}.st1{fill:#fff}</style><path class="st0" d="M24-24h64v64H24v-64z"/><path class="st1" d="M71-6H41a1 1 0 0 0-1 1v6a1 1 0 0 0 1 1h30a1 1 0 0 0 1-1v-6a1 1 0 0 0-1-1z"/><path class="st0" d="M62-4h8v4h-8z"/><path class="st1" d="M71 4H41a1 1 0 0 0-1 1v6a1 1 0 0 0 1 1h30a1 1 0 0 0 1-1V5a1 1 0 0 0-1-1z"/><path class="st0" d="M52 6h18v4H52z"/><path class="st1" d="M71 14H41a1 1 0 0 0-1 1v6a1 1 0 0 0 1 1h30a1 1 0 0 0 1-1v-6a1 1 0 0 0-1-1z"/><path class="st0" d="M58 16h12v4H58z"/></svg>