<?xml version="1.0" encoding="utf-8"?>
<!-- Generator: Adobe Illustrator 19.0.1, SVG Export Plug-In . SVG Version: 6.00 Build 0)  -->
<svg version="1.1" xmlns="http://www.w3.org/2000/svg" xmlns:xlink="http://www.w3.org/1999/xlink" x="0px" y="0px"
	 viewBox="0 0 64 64" enable-background="new 0 0 64 64" xml:space="preserve">
<g id="Background">
	<rect fill="#F08D34" width="64" height="64"/>
</g>
<g id="Icon">
	<path fill="#FFFFFF" d="M53.1,37c0-2.3-1.3-4.5-3.9-4.5c-2.8,0-4.1,2.2-5.6,2.2c-0.8,0-1.5-0.5-2-1c-0.6-0.7-0.8-1.7-0.8-2.6
		c0-1.8,0.2-3.7,0.5-5.5c0-0.2,0.2-1.5,0.3-1.6v0c-2.5,0.1-5.1,0.7-7.7,0.7c-1.6,0-3.2-0.6-3.2-2.5c0-2.5,2.5-3.2,2.5-5.9
		c0-2.4-1.9-3.8-4.2-3.8c-2.4,0-4.5,1.3-4.5,3.9c0,2.8,2.2,4.1,2.2,5.6c0,0.8-0.5,1.5-1,2c-0.7,0.6-1.7,0.8-2.6,0.8
		c-1.8,0-3.7-0.2-5.5-0.5c-0.2,0-1.5-0.2-1.6-0.3v22.9c0,0,0.1,0,0.1,0l0.3,0c0.4,0.1,0.8,0.1,1.2,0.2c1.8,0.3,3.6,0.5,5.5,0.5
		c0.9,0,1.9-0.1,2.6-0.8c0.5-0.5,1-1.2,1-2c0-1.5-2.2-2.8-2.2-5.6c0-2.6,2.2-3.9,4.5-3.9c2.3,0,4.2,1.3,4.2,3.8
		c0,2.7-2.5,3.4-2.5,5.9c0,1.8,1.7,2.5,3.2,2.5c2.3,0,4.6-0.4,6.9-0.7c0.2,0,0.5,0,0.7,0v-0.1c0-1.7-0.7-3.4-0.7-5.1
		c0-1.7,0.7-2.8,2.5-2.8c2.5,0,3.2,2.5,5.9,2.5C51.8,41.2,53.1,39.3,53.1,37z"/>
</g>
</svg>
