<svg viewBox="0 0 64 64" xmlns="http://www.w3.org/2000/svg"><title>module-extensionmanager</title><g fill="none" fill-rule="evenodd"><path d="M0 0h64v64H0z" fill="#F08D34"/><path d="M33.018 27.928l10.897-3.8c.518-.194 1.094.068 1.288.585.194.517-.068 1.093-.585 1.287L34 29.703V42.93c0 .59-.448 1.066-1 1.066s-1-.477-1-1.066V29.687l-10.67-3.815c-.517-.194-.78-.77-.585-1.287.194-.518.77-.78 1.287-.586l10.986 3.928zm.454-12c-.26-.083-.687-.082-.944 0l-16.056 5.12c-.26.085-.472.366-.472.644v20.633c0 .27.215.56.472.642l16.056 5.122c.26.082.687.08.944 0l16.056-5.123c.26-.083.472-.364.472-.642V21.692c0-.272-.215-.56-.472-.643l-16.056-5.122z" fill="#FFF"/></g></svg>