<svg xmlns="http://www.w3.org/2000/svg" viewBox="0 0 64 64"><path fill="#F08D34" d="M0 0h64v64H0z"/><path fill="#FFF" d="M53.1 37c0-2.3-1.3-4.5-3.9-4.5-2.8 0-4.1 2.2-5.6 2.2-.8 0-1.5-.5-2-1-.6-.7-.8-1.7-.8-2.6 0-1.8.2-3.7.5-5.5 0-.2.2-1.5.3-1.6-2.5.1-5.1.7-7.7.7-1.6 0-3.2-.6-3.2-2.5 0-2.5 2.5-3.2 2.5-5.9 0-2.4-1.9-3.8-4.2-3.8-2.4 0-4.5 1.3-4.5 3.9 0 2.8 2.2 4.1 2.2 5.6 0 .8-.5 1.5-1 2-.7.6-1.7.8-2.6.8-1.8 0-3.7-.2-5.5-.5-.2 0-1.5-.2-1.6-.3v22.9h.4c.4.1.8.1 1.2.2 1.8.3 3.6.5 5.5.5.9 0 1.9-.1 2.6-.8.5-.5 1-1.2 1-2 0-1.5-2.2-2.8-2.2-5.6 0-2.6 2.2-3.9 4.5-3.9s4.2 1.3 4.2 3.8c0 2.7-2.5 3.4-2.5 5.9 0 1.8 1.7 2.5 3.2 2.5 2.3 0 4.6-.4 6.9-.7h.7v-.1c0-1.7-.7-3.4-.7-5.1 0-1.7.7-2.8 2.5-2.8 2.5 0 3.2 2.5 5.9 2.5 2.6-.1 3.9-2 3.9-4.3z"/></svg>