<?xml version="1.0" standalone="no"?>
<!DOCTYPE svg PUBLIC "-//W3C//DTD SVG 1.1//EN" "http://www.w3.org/Graphics/SVG/1.1/DTD/svg11.dtd" >
<svg xmlns="http://www.w3.org/2000/svg">
<metadata></metadata>
<defs>
<font id="share-boldregular" horiz-adv-x="1073" >
<font-face units-per-em="2048" ascent="1655" descent="-393" />
<missing-glyph horiz-adv-x="573" />
<glyph unicode="fi" horiz-adv-x="1112" d="M51 793v231h133v82q0 104 21.5 172.5t67.5 106t108 52.5t154 15q165 0 368 -37v-231q-185 35 -317 35q-77 0 -103 -18.5t-26 -76.5v-100h522v-1024h-272v793h-250v-793h-273v793h-133z" />
<glyph unicode="fl" horiz-adv-x="1167" d="M51 793v231h133v82q0 104 21.5 172.5t67.5 106t108 52.5t154 15q84 0 172 -18h272v-1121q0 -51 13 -69.5t50 -18.5q34 0 74 8v-227q-77 -16 -186 -16q-124 0 -173.5 74t-49.5 239v490h-250v-793h-273v793h-133zM457 1024h250v184q-72 11 -121 11q-77 0 -103 -18.5 t-26 -76.5v-100z" />
<glyph unicode="&#xd;" horiz-adv-x="573" />
<glyph unicode=" "  horiz-adv-x="573" />
<glyph unicode="&#x09;" horiz-adv-x="573" />
<glyph unicode="&#xa0;" horiz-adv-x="573" />
<glyph unicode="!" horiz-adv-x="552" d="M123 0v266h307v-266h-307zM137 467v967h277v-967h-277z" />
<glyph unicode="&#x22;" horiz-adv-x="860" d="M82 1208v226h297v-226l-62 -321h-174zM481 1208v226h297v-226l-61 -321h-174z" />
<glyph unicode="#" horiz-adv-x="1015" d="M31 348l20 236h123l25 286h-123l20 236h123l29 328h260l-29 -328h123l29 328h260l-29 -328h123l-20 -236h-123l-25 -286h123l-20 -236h-123l-31 -348h-260l31 348h-123l-31 -348h-260l31 348h-123zM434 584h123l25 286h-123z" />
<glyph unicode="$" horiz-adv-x="962" d="M106 987q0 297 256 373v237h256v-213q106 -7 193 -28v-242q-136 31 -254 31q-84 0 -125 -27.5t-41 -107.5q0 -73 33 -114t113 -58q104 -22 171.5 -65t107.5 -129.5t40 -217.5q0 -186 -60 -283.5t-178 -132.5v-235h-256v211q-139 3 -233 28v244q122 -31 244 -31 q108 0 153 42.5t45 136.5q0 85 -40 134t-123 66q-302 63 -302 381z" />
<glyph unicode="%" horiz-adv-x="1875" d="M133 1024q0 82 8 143.5t29.5 117t57 91t92.5 56t135 20.5t135 -20.5t92.5 -56t56.5 -91t29 -117t8 -143.5t-8 -145t-29 -121t-56.5 -96t-93 -60t-134.5 -22t-134.5 22t-93 60t-57 96t-29.5 121t-8 145zM356 1016q0 -154 19 -204t80 -50t79.5 50t18.5 204q0 108 -8 160 t-28.5 73t-61.5 21q-42 0 -62 -20t-28.5 -72.5t-8.5 -161.5zM567 0l502 1434h242l-502 -1434h-242zM1100 426q0 82 8 143.5t29 117t56.5 91t92.5 56t135 20.5t135 -20.5t92.5 -56t57 -91t29.5 -117t8 -143.5t-8 -145t-29.5 -121t-57 -96t-93 -60t-134.5 -22t-134.5 22 t-93 60t-56.5 96t-29 121t-8 145zM1323 418q0 -154 18.5 -204t79.5 -50t80 50t19 204q0 107 -8.5 160t-29 73.5t-61.5 20.5q-42 0 -61.5 -20t-28 -72t-8.5 -162z" />
<glyph unicode="&#x26;" horiz-adv-x="1054" d="M92 438q0 164 36 253t128 126q-137 82 -137 256q0 113 23.5 187.5t73 115.5t115 57.5t161.5 16.5q72 0 168 -10t118 -17v-231q-24 6 -106 16.5t-123 10.5q-89 0 -121.5 -28t-32.5 -106q0 -98 32.5 -131.5t129.5 -33.5h467v-232h-150v-670q-207 -38 -403 -38 q-205 0 -292 105.5t-87 352.5zM371 418q0 -107 30 -157t105 -50q64 0 108 14v463h-88q-62 0 -94 -22.5t-46.5 -80t-14.5 -167.5z" />
<glyph unicode="'" horiz-adv-x="460" d="M82 1208v226h297v-226l-62 -321h-174z" />
<glyph unicode="(" horiz-adv-x="665" d="M82 717q0 292 61.5 524t198.5 438h231q-122 -208 -168.5 -429.5t-46.5 -532.5t46.5 -533t168.5 -430h-231q-137 206 -198.5 438.5t-61.5 524.5z" />
<glyph unicode=")" horiz-adv-x="665" d="M92 -246q122 208 168.5 430t46.5 533t-46.5 532.5t-168.5 429.5h232q137 -206 198.5 -438t61.5 -524t-61.5 -524.5t-198.5 -438.5h-232z" />
<glyph unicode="*" horiz-adv-x="1075" d="M82 1065l86 250l266 -117q-4 45 -17 150t-16 147h275l-31 -297q45 17 138.5 57t131.5 54l78 -248l-274 -45l199 -242l-218 -151l-163 280q-28 -45 -86 -146t-82 -139l-213 160l202 234q-54 12 -158 31t-118 22z" />
<glyph unicode="+" horiz-adv-x="1146" d="M141 502v235h308v324h249v-324h308v-235h-308v-324h-249v324h-308z" />
<glyph unicode="," horiz-adv-x="512" d="M20 -307l82 307v266h308v-266l-189 -307h-201z" />
<glyph unicode="-" horiz-adv-x="1013" d="M154 502v235h706v-235h-706z" />
<glyph unicode="." horiz-adv-x="512" d="M102 0v266h308v-266h-308z" />
<glyph unicode="/" horiz-adv-x="665" d="M-41 -225l483 1884h265l-484 -1884h-264z" />
<glyph unicode="0" horiz-adv-x="962" d="M72 733q0 111 4 192t14.5 160t29.5 133.5t49.5 101.5t74 74.5t102.5 42.5t135 15t135.5 -15t102.5 -42.5t73.5 -74.5t50 -101.5t30 -133.5t14.5 -160t4 -192q0 -134 -6 -231t-22.5 -186t-45.5 -147.5t-74 -102.5t-110 -64t-152 -20t-152 20t-110 64t-74 102.5t-45 147.5 t-22 186t-6 231zM344 723q0 -90 0.5 -147.5t3 -116t6.5 -91.5t11 -65t16.5 -47t24.5 -27.5t32.5 -16t42.5 -3.5t42.5 3.5t32.5 16t24.5 27.5t16.5 47t11 65t6.5 91.5t3 116t0.5 147.5q0 118 -1 186t-6.5 132t-13.5 94t-24 53.5t-37.5 30t-54.5 6.5q-25 0 -42.5 -3.5 t-32.5 -16t-24.5 -27t-16.5 -46t-11 -64t-6.5 -89t-3 -112.5t-0.5 -144z" />
<glyph unicode="1" horiz-adv-x="962" d="M121 1081v250l239 103h293v-1203h197v-231h-709v231h240v953z" />
<glyph unicode="2" horiz-adv-x="962" d="M104 0v258l287 389q53 68 84 117t46 96t18.5 83.5t3.5 98.5q0 96 -37.5 137.5t-132.5 41.5q-65 0 -232 -37v233q2 0 25.5 5t48.5 9.5t57.5 9.5t66.5 8t62 3q98 0 169.5 -18t118 -51.5t74.5 -87.5t39 -118.5t11 -152.5q0 -148 -26 -229.5t-121 -210.5l-256 -351h409v-233 h-715z" />
<glyph unicode="3" horiz-adv-x="962" d="M123 16v228q171 -35 256 -35q75 0 118.5 51.5t43.5 145.5q0 122 -37 174.5t-129 52.5h-158v223h137q164 0 164 195q0 89 -34 131.5t-109 42.5q-26 0 -52.5 -2t-56.5 -7t-46.5 -8t-49 -10t-37.5 -8v227q2 0 26 5t49.5 9.5t59 9.5t69 8t64.5 3q102 0 172 -20t120.5 -66.5 t74 -125.5t23.5 -196q0 -102 -37.5 -181.5t-116.5 -106.5q178 -36 178 -330q0 -125 -30.5 -214t-87 -138t-126 -70.5t-159.5 -21.5q-64 0 -160.5 13.5t-128.5 20.5z" />
<glyph unicode="4" horiz-adv-x="962" d="M102 319v259l193 856h264l-197 -883h136l45 385h231v-385h123v-232h-123v-319h-276v319h-396z" />
<glyph unicode="5" horiz-adv-x="962" d="M123 16v230q162 -35 264 -35q164 0 164 225q0 79 -11 130t-35 76.5t-52 34.5t-72 9h-238v748h641v-232h-368v-299h10q149 0 234.5 -42t125 -138t39.5 -266q0 -135 -29.5 -230t-84.5 -147.5t-123.5 -75t-157.5 -22.5q-134 0 -307 34z" />
<glyph unicode="6" horiz-adv-x="962" d="M80 727q0 213 30.5 355t96.5 223t156.5 114t222.5 33q45 0 114 -8.5t101 -16.5v-229q-128 29 -223 29q-117 0 -165 -72t-57 -268q91 53 187 53q102 0 170 -29t107 -93.5t55 -154t16 -223.5q0 -103 -22 -182.5t-60 -131t-92 -84.5t-113 -46.5t-129 -13.5q-81 0 -140.5 20 t-109.5 70.5t-81 135t-47.5 213.5t-16.5 306zM352 684q0 -128 5.5 -214.5t15 -139t28 -79.5t38 -35.5t50.5 -8.5q71 0 100 54t29 202q0 135 -28.5 195.5t-95.5 60.5q-66 0 -142 -35z" />
<glyph unicode="7" horiz-adv-x="962" d="M92 1194v240h707v-281l-322 -1153h-284l335 1194h-436z" />
<glyph unicode="8" horiz-adv-x="962" d="M55 428q0 237 183 305q-68 29 -111 119.5t-43 183.5q0 118 27 200.5t80.5 129t123.5 66.5t166 20t166 -20t124 -66.5t81 -129t27 -200.5q0 -47 -15 -96.5t-53 -99t-92 -74.5q64 -15 107.5 -68t62 -121.5t18.5 -148.5q0 -222 -100.5 -334t-325.5 -112t-325.5 112 t-100.5 334zM328 408q0 -115 33.5 -159t119.5 -44q87 0 120.5 44t33.5 159q0 39 -1.5 64.5t-6.5 52.5t-14.5 43.5t-25.5 32.5t-40 24t-57.5 13t-77.5 5q-52 -33 -68 -77t-16 -158zM352 1055q0 -43 3 -71t14 -55t31 -42t55 -24t86 -9q40 25 54.5 72t14.5 129q0 102 -25.5 140 t-99.5 38q-68 0 -100.5 -40.5t-32.5 -137.5z" />
<glyph unicode="9" horiz-adv-x="962" d="M57 993q0 459 416 459q82 0 140.5 -17.5t109 -64t81 -127t47.5 -207t17 -303.5q0 -137 -10.5 -244.5t-29.5 -186.5t-50.5 -135.5t-68.5 -92t-89.5 -56.5t-106.5 -28.5t-126 -7.5q-46 0 -117 8t-102 16v230q128 -29 227 -29q55 0 88 12t57.5 49t36 103t15.5 176 q-85 -53 -186 -53t-170 33.5t-107.5 101t-55 155t-16.5 209.5zM330 971q0 -135 29 -195.5t96 -60.5q73 0 141 35q0 98 -3.5 171t-8 124.5t-14.5 85t-19 53t-25.5 29t-30 12t-36.5 2.5q-68 0 -98.5 -55t-30.5 -201z" />
<glyph unicode=":" horiz-adv-x="512" d="M102 0v266h308v-266h-308zM102 758v266h308v-266h-308z" />
<glyph unicode=";" horiz-adv-x="512" d="M20 -307l82 307v266h308v-266l-189 -307h-201zM102 758v266h308v-266h-308z" />
<glyph unicode="&#x3c;" horiz-adv-x="1126" d="M154 514v334l819 346v-268l-613 -238l613 -239v-273z" />
<glyph unicode="=" horiz-adv-x="1126" d="M154 297v235h819v-235h-819zM154 707v235h819v-235h-819z" />
<glyph unicode="&#x3e;" horiz-adv-x="1126" d="M154 176v273l612 239l-612 238v268l819 -346v-334z" />
<glyph unicode="?" horiz-adv-x="778" d="M61 1188v231q47 11 128.5 22t132.5 11q106 0 174.5 -14.5t121 -54.5t76 -114t23.5 -188q0 -98 -22.5 -155.5t-86.5 -134.5l-149 -181v-143h-277v223l164 201q58 71 76 104t18 82q0 56 -10.5 83.5t-46 43t-107.5 15.5q-83 0 -215 -31zM168 0v266h307v-266h-307z" />
<glyph unicode="@" horiz-adv-x="1726" d="M154 707q0 175 25 300t76.5 212t138 137.5t200 73t272.5 22.5q134 0 230.5 -10.5t179.5 -37.5t136 -72t91 -115.5t54 -167.5t16 -228q0 -103 -6.5 -181t-27.5 -157.5t-56.5 -130t-97 -82.5t-146.5 -32q-78 0 -140 42.5t-87 131.5q-76 -117 -228 -117q-64 0 -109.5 15 t-85 55t-59.5 120.5t-20 200.5q0 109 21.5 188t55.5 125t89.5 72t110.5 34.5t131 8.5q47 0 133 -9.5t131 -19.5v-591q0 -30 15 -46t38 -16q50 0 60 56.5t10 332.5q0 75 -2 124t-11 94.5t-20.5 72t-37.5 49.5t-54 33.5t-78 18.5t-102.5 10t-133.5 2q-97 0 -162 -8t-117.5 -31 t-82 -57.5t-49.5 -95.5t-26.5 -137t-6.5 -189q0 -111 6.5 -186t26 -133t47 -91t77 -53.5t109 -27.5t150.5 -7q137 0 270 14v-225q-144 -16 -270 -16q-138 0 -238 14t-178.5 49t-128 88t-81.5 136.5t-45 188t-13 249.5zM756 707q0 -119 18.5 -162t73.5 -43q33 0 54.5 12 t30 35.5t11 42t2.5 47.5v264q-40 10 -96 10q-94 0 -94 -206z" />
<glyph unicode="A" horiz-adv-x="1116" d="M31 0l327 1434h414l313 -1434h-288l-66 334h-342l-65 -334h-293zM436 575h250l-127 678z" />
<glyph unicode="B" horiz-adv-x="1120" d="M143 0v1434q238 18 373 18q248 0 350.5 -90.5t102.5 -298.5q0 -239 -183 -291q92 -10 157 -94t65 -238q0 -111 -23.5 -193.5t-62.5 -132.5t-99.5 -80t-125 -41t-148.5 -11q-76 0 -177.5 4.5t-165.5 9.5zM424 233q71 -6 147 -6q81 0 116.5 54t35.5 157q0 108 -49 154.5 t-127 46.5h-123v-406zM424 868h108q86 0 123 41t37 135q0 77 -35 120.5t-96 43.5q-30 0 -64.5 -2t-53.5 -4l-19 -2v-332z" />
<glyph unicode="C" horiz-adv-x="886" d="M102 739q0 132 10.5 235t29.5 178t51.5 127.5t69 85.5t89.5 51.5t106.5 25t125.5 6.5q40 0 118.5 -10.5t102.5 -18.5v-248q-132 31 -248 31q-49 0 -77.5 -15t-51.5 -64t-32 -144.5t-9 -253.5q0 -211 17.5 -317.5t51.5 -141.5t101 -35q116 0 248 31v-246 q-36 -10 -117.5 -20t-130.5 -10q-99 0 -168 18.5t-126.5 67t-91 133.5t-51.5 216.5t-18 317.5z" />
<glyph unicode="D" horiz-adv-x="1118" d="M143 0v1434q248 20 363 20q88 0 153 -11t125.5 -40t101 -80.5t71 -129.5t45 -191t14.5 -263q0 -181 -20.5 -313t-58.5 -218t-99.5 -136.5t-134.5 -71t-173 -20.5q-64 0 -161 5t-161 10zM424 236q39 -9 125 -9q66 0 104.5 42t58 151.5t19.5 304.5q0 131 -7.5 219 t-20 140.5t-36.5 79t-49.5 34.5t-66.5 8q-34 0 -65.5 -2t-46.5 -4l-15 -2v-962z" />
<glyph unicode="E" horiz-adv-x="978" d="M143 0v1434h734v-222h-453v-362h401v-219h-401v-410h453v-221h-734z" />
<glyph unicode="F" horiz-adv-x="989" d="M174 0v1434h733v-222h-452v-383h401v-221h-401v-608h-281z" />
<glyph unicode="G" horiz-adv-x="1044" d="M102 739q0 128 11.5 229.5t33 176t56.5 128.5t75.5 88.5t97.5 54.5t116.5 28t136.5 8q97 0 260 -35v-241q-161 30 -281 30q-55 0 -89.5 -11.5t-62 -40.5t-41.5 -85t-21 -137.5t-7 -206.5q0 -208 17.5 -314t55.5 -145t113 -39q59 0 86 2v324h-131v242h404v-777 q-196 -36 -352 -36q-108 0 -183 20.5t-134 70t-93 137t-51 216.5t-17 313z" />
<glyph unicode="H" horiz-adv-x="1167" d="M143 0v1434h281v-592h319v592h281v-1434h-281v608h-319v-608h-281z" />
<glyph unicode="I" horiz-adv-x="710" d="M72 0v217h143v1000h-143v217h567v-217h-143v-1000h143v-217h-567z" />
<glyph unicode="J" horiz-adv-x="851" d="M61 8v244q120 -21 218 -21q94 0 126.5 62.5t32.5 226.5v672h-291v242h572v-899q0 -131 -12 -221t-39.5 -157t-75.5 -104.5t-115.5 -55t-165.5 -17.5q-118 0 -250 28z" />
<glyph unicode="K" horiz-adv-x="1120" d="M143 0v1434h281v-496l330 496h315l-428 -623l438 -811h-323l-291 563l-41 -63v-500h-281z" />
<glyph unicode="L" horiz-adv-x="860" d="M143 0v1434h281v-1196h416v-238h-697z" />
<glyph unicode="M" horiz-adv-x="1363" d="M143 0v1434h426l121 -551l123 551h408v-1434h-254v1227l-176 -746h-213l-185 746v-1227h-250z" />
<glyph unicode="N" horiz-adv-x="1212" d="M143 0v1434h408l274 -1174v1174h244v-1434h-407l-271 1151v-1151h-248z" />
<glyph unicode="O" horiz-adv-x="1163" d="M102 733q0 152 12 260.5t43.5 200t85.5 146t138 84.5t201 30q98 0 172 -19.5t127 -61t88 -99t55.5 -141.5t28.5 -179t8 -221q0 -114 -5 -200.5t-18.5 -168t-37 -139t-59.5 -106.5t-86.5 -78t-118 -45t-154.5 -16t-154.5 16t-118 45t-87 77.5t-59.5 106.5t-36.5 139.5 t-19 168t-5.5 200.5zM387 723q0 -208 19 -320.5t60 -157t116 -44.5t115.5 44.5t59.5 156.5t19 321q0 211 -19 320.5t-59 149.5t-116 40t-116 -40t-59.5 -150t-19.5 -320z" />
<glyph unicode="P" horiz-adv-x="1064" d="M143 0v1434q207 20 377 20q137 0 230 -31t146 -94.5t75 -147.5t22 -204q0 -262 -110.5 -372.5t-341.5 -110.5h-117v-494h-281zM424 735h129q72 0 114 62t42 166q0 126 -34 185.5t-118 59.5q-39 0 -72.5 -3t-46.5 -6l-14 -3v-461z" />
<glyph unicode="Q" horiz-adv-x="1163" d="M102 733q0 152 12 260.5t43.5 200t85.5 146t138 84.5t201 30q98 0 172 -19.5t127 -61t88 -99t55.5 -141.5t28.5 -179t8 -221q0 -278 -45 -444t-158 -242l203 -47v-254l-553 238q-102 9 -173.5 45t-117 94t-71 152.5t-35 200.5t-9.5 257zM387 723q0 -208 19 -320.5 t60 -157t116 -44.5t115.5 44.5t59.5 156.5t19 321q0 211 -19 320.5t-59 149.5t-116 40t-116 -40t-59.5 -150t-19.5 -320z" />
<glyph unicode="R" horiz-adv-x="1091" d="M143 0v1434q207 20 377 20q132 0 221 -27.5t141.5 -86.5t74.5 -140.5t22 -200.5q0 -313 -195 -411l256 -588h-317l-217 541h-82v-541h-281zM424 782h129q65 0 103 52.5t38 150.5q0 124 -30 173.5t-115 49.5q-27 0 -58.5 -3t-48.5 -6l-18 -3v-414z" />
<glyph unicode="S" horiz-adv-x="868" d="M51 1036q0 220 122 316t366 96q56 0 132.5 -9.5t121.5 -21.5v-241q-52 12 -136 21t-139 9q-182 0 -182 -147q0 -96 31.5 -131t130.5 -56q79 -16 135.5 -44.5t102 -79t68.5 -131t23 -191.5q0 -81 -12.5 -145.5t-33.5 -110t-55 -79t-71.5 -53.5t-88.5 -32t-100 -16t-112 -4 q-174 0 -291 30v244q49 -12 131 -22.5t140 -10.5q209 0 209 179q0 106 -42 153t-132 66q-169 35 -243.5 132.5t-74.5 278.5z" />
<glyph unicode="T" horiz-adv-x="911" d="M20 1186v248h871v-248h-295v-1186h-281v1186h-295z" />
<glyph unicode="U" horiz-adv-x="1136" d="M133 440v994h281v-1033q0 -174 155 -174q154 0 154 174v1033h281v-994q0 -126 -28.5 -214t-86 -140.5t-135.5 -76t-185 -23.5t-185 23.5t-135.5 75.5t-86.5 140.5t-29 214.5z" />
<glyph unicode="V" horiz-adv-x="1110" d="M51 1434h295l215 -1233l223 1233h275l-289 -1434h-432z" />
<glyph unicode="W" horiz-adv-x="1286" d="M92 1434h250l55 -1215l146 610h233l129 -610l58 1215h231l-70 -1434h-395l-86 481l-102 -481h-379z" />
<glyph unicode="X" horiz-adv-x="1075" d="M31 0l368 743l-327 691h311l168 -424l174 424h305l-342 -689l356 -745h-317l-188 475l-203 -475h-305z" />
<glyph unicode="Y" horiz-adv-x="1087" d="M20 1434h304l227 -553l227 553h289l-383 -803v-631h-287v631z" />
<glyph unicode="Z" horiz-adv-x="954" d="M72 0v272l512 918h-465v244h764v-273l-510 -917h489v-244h-790z" />
<glyph unicode="[" horiz-adv-x="675" d="M143 -246v1925h451v-235h-184v-1444h184v-246h-451z" />
<glyph unicode="\" horiz-adv-x="665" d="M-41 1659h264l484 -1884h-265z" />
<glyph unicode="]" horiz-adv-x="675" d="M82 0h184v1444h-184v235h450v-1925h-450v246z" />
<glyph unicode="^" horiz-adv-x="1017" d="M61 860l275 696h356l264 -696h-309l-133 492l-170 -492h-283z" />
<glyph unicode="_" horiz-adv-x="1044" d="M6 -102h1032v-246h-1032v246z" />
<glyph unicode="`" horiz-adv-x="641" d="M51 1464h326l213 -276h-228z" />
<glyph unicode="a" horiz-adv-x="1042" d="M92 309q0 181 109 261.5t325 80.5h92v43q0 61 -31.5 92t-105.5 31q-154 0 -315 -49v233q57 17 148.5 29t166.5 12q87 0 151.5 -9t109.5 -30t74.5 -49t46 -71.5t22.5 -91.5t6 -115v-406q0 -32 18 -48.5t62 -16.5v-205h-119q-129 0 -176 84q-83 -102 -270 -102 q-314 0 -314 327zM369 324q0 -51 27.5 -82t86.5 -31q40 0 68.5 15t42 39t19 47t5.5 46v93h-102q-147 0 -147 -127z" />
<glyph unicode="b" horiz-adv-x="1058" d="M133 10v1424h273v-463q94 71 217 71q116 0 187 -42t108.5 -145t37.5 -277q0 -227 -47 -355.5t-151 -184.5t-287 -56q-125 0 -338 28zM406 219q58 -4 83 -4q60 0 94.5 13t57.5 52.5t31 103.5t8 173q0 104 -13 158t-39.5 74t-76.5 20q-64 0 -104.5 -47.5t-40.5 -106.5v-436 z" />
<glyph unicode="c" horiz-adv-x="833" d="M102 532q0 268 104.5 389t311.5 121q116 0 234 -28v-240q-10 2 -34.5 7.5t-34.5 7.5t-31 5.5t-36 5t-38 2.5t-48 1q-30 0 -51.5 -7.5t-40.5 -27.5t-30.5 -54.5t-18 -89.5t-6.5 -132q0 -149 34.5 -210t108.5 -61q47 0 84.5 4t87 14t54.5 11v-238q-110 -30 -236 -30 q-86 0 -146 12t-114 46.5t-85.5 95t-50 159t-18.5 237.5z" />
<glyph unicode="d" d="M102 485q0 209 52.5 331.5t157.5 174t282 51.5q14 0 38.5 -1t35.5 -1v394h272v-1434h-221l-21 84q-110 -102 -256 -102q-89 0 -150 23t-105 80t-64.5 155t-20.5 245zM379 467q0 -103 14.5 -158t42 -74.5t78.5 -19.5q65 0 109.5 48t44.5 106v434l-93 6q-75 0 -115.5 -26.5 t-60.5 -100.5t-20 -215z" />
<glyph unicode="e" horiz-adv-x="1001" d="M102 512q0 277 106.5 403.5t313.5 126.5q114 0 190.5 -29.5t119 -91t60 -142t17.5 -195.5v-172h-530q6 -114 42 -155.5t128 -41.5q133 0 285 31v-230q-48 -13 -138 -23.5t-147 -10.5q-68 0 -118.5 5.5t-99.5 20t-83 39.5t-63 64.5t-46.5 95.5t-27 132t-9.5 173zM381 612 h266v54q0 76 -31 113.5t-98 37.5q-65 0 -96.5 -45.5t-40.5 -159.5z" />
<glyph unicode="f" horiz-adv-x="698" d="M51 793v231h133v82q0 104 19 172.5t60 106t95.5 52.5t135.5 15q97 0 225 -25v-231q-99 23 -174 23q-48 0 -68 -24.5t-20 -70.5v-100h223v-231h-223v-793h-273v793h-133z" />
<glyph unicode="g" horiz-adv-x="1122" d="M92 684q0 76 18 135.5t53 97.5t77 64t99.5 38.5t110 17.5t117.5 5q101 0 178 -24l336 14v-209l-131 8q29 -76 29 -163q0 -181 -114.5 -266t-348.5 -85q-56 0 -121 7q-12 -24 -12 -60q0 -13 4 -33q143 13 242 13q195 0 291 -74.5t96 -255.5q0 -66 -17 -117t-51 -84 t-74.5 -54.5t-97.5 -32.5t-110.5 -15t-122.5 -4q-74 0 -206 12t-192 23v221q202 -35 410 -35q101 0 140.5 21.5t39.5 70.5q0 43 -27 67.5t-98 24.5q-59 0 -184.5 -7.5t-185.5 -14.5q-37 34 -67 95.5t-30 135.5q0 105 54 178q-105 89 -105 285zM365 668q0 -133 151 -133 q100 0 145.5 30t45.5 119q0 76 -35.5 106.5t-124.5 30.5q-107 0 -144.5 -33.5t-37.5 -119.5z" />
<glyph unicode="h" d="M133 0v1434h273v-461q91 69 212 69q84 0 143 -16.5t96 -46.5t57.5 -82.5t28 -112.5t7.5 -149v-635h-272v641q0 97 -27.5 131.5t-87.5 34.5q-73 0 -113.5 -42t-43.5 -101v-664h-273z" />
<glyph unicode="i" horiz-adv-x="538" d="M123 1198v236h293v-236h-293zM133 0v1024h273v-1024h-273z" />
<glyph unicode="j" horiz-adv-x="538" d="M-92 -123q53 -6 129 -6q56 0 76 19t20 73v1061h273v-1051q0 -191 -74 -263t-250 -72q-82 0 -174 10v229zM123 1198v236h293v-236h-293z" />
<glyph unicode="k" horiz-adv-x="1013" d="M133 0v1434h273v-717l245 307h312l-347 -410l367 -614h-313l-221 424l-43 -55v-369h-273z" />
<glyph unicode="l" horiz-adv-x="593" d="M133 303v1131h273v-1121q0 -51 13 -69.5t50 -18.5q34 0 74 8v-227q-77 -16 -187 -16q-124 0 -173.5 74t-49.5 239z" />
<glyph unicode="m" horiz-adv-x="1536" d="M133 0v1024h221l17 -76q97 94 227 94q183 0 252 -104q101 104 252 104q81 0 137 -17.5t90 -47.5t53 -83t25 -112t6 -147v-635h-272v641q0 99 -21 132.5t-73 33.5q-66 0 -100.5 -41.5t-37.5 -101.5v-664h-272v641q0 99 -21 132.5t-73 33.5q-68 0 -102.5 -45.5 t-34.5 -108.5v-653h-273z" />
<glyph unicode="n" d="M133 0v1024h221l19 -80q105 98 245 98q84 0 143 -16.5t96 -46.5t57.5 -82.5t28 -112.5t7.5 -149v-635h-272v641q0 97 -27.5 131.5t-87.5 34.5q-73 0 -113.5 -42t-43.5 -101v-664h-273z" />
<glyph unicode="o" horiz-adv-x="1085" d="M102 532q0 262 105 384t334 122q230 0 336 -122t106 -384q0 -159 -27.5 -266t-85.5 -168.5t-136.5 -86.5t-192.5 -25t-192 25t-135.5 86.5t-84.5 168t-27 266.5zM381 502q0 -172 33 -233.5t127 -61.5q95 0 129.5 62t34.5 233q0 179 -35.5 247t-128.5 68q-92 0 -126 -67.5 t-34 -247.5z" />
<glyph unicode="p" horiz-adv-x="1062" d="M133 -348v1372h221l21 -84q102 102 252 102q116 0 187.5 -42t109 -145t37.5 -277q0 -227 -47.5 -355.5t-150.5 -184.5t-284 -56q-48 0 -73 2v-332h-273zM406 219q58 -4 88 -4q79 0 118 27.5t55.5 98.5t16.5 216q0 104 -13 158t-39.5 74t-76.5 20q-64 0 -106.5 -47.5 t-42.5 -106.5v-436z" />
<glyph unicode="q" d="M102 485q0 158 26.5 264t87 171.5t149.5 93.5t221 28q171 0 354 -28v-1362h-272v409q-98 -79 -232 -79q-89 0 -149 23t-103 80t-62.5 155t-19.5 245zM379 467q0 -104 13 -158t39.5 -74t76.5 -20q64 0 110.5 45.5t49.5 101.5v441q-5 0 -44.5 3t-56.5 3q-75 0 -113.5 -27 t-56.5 -99.5t-18 -215.5z" />
<glyph unicode="r" horiz-adv-x="722" d="M133 0v1024h221l21 -92q92 110 213 110q46 0 94 -10v-270q-53 12 -102 12q-48 0 -83.5 -25.5t-54.5 -69.5t-27.5 -94t-8.5 -108v-477h-273z" />
<glyph unicode="s" horiz-adv-x="870" d="M92 723q0 170 102.5 244.5t323.5 74.5q97 0 236 -34v-234q-132 39 -244 39q-76 0 -108.5 -18.5t-32.5 -65.5q0 -36 32 -55.5t101 -30.5q155 -25 220.5 -106.5t65.5 -227.5q0 -91 -29 -156t-85.5 -101.5t-128.5 -53t-168 -16.5q-155 0 -281 32v234q163 -37 244 -37 q82 0 125 18t43 68q0 49 -27 73.5t-102 37.5q-153 27 -220 104t-67 211z" />
<glyph unicode="t" horiz-adv-x="712" d="M41 788v236h133v246h272v-246h205v-236h-205v-481q0 -49 20 -70.5t66 -21.5q60 0 130 18v-227q-23 -7 -94 -15.5t-122 -8.5q-67 0 -116 18t-78.5 47.5t-47.5 74.5t-24 90.5t-6 104.5v471h-133z" />
<glyph unicode="u" horiz-adv-x="1060" d="M123 381v643h272v-651q0 -96 27.5 -126t87.5 -30q72 0 108.5 45.5t36.5 108.5v653h273v-1024h-221l-19 80q-101 -98 -244 -98q-95 0 -158 24t-98.5 76.5t-50 123t-14.5 175.5z" />
<glyph unicode="v" horiz-adv-x="1007" d="M41 1022h285l182 -827l184 827h275l-265 -1024h-395z" />
<glyph unicode="w" horiz-adv-x="1314" d="M31 1024h272l96 -782l150 598h242l139 -598l98 782h256l-158 -1024h-358l-111 504l-120 -504h-349z" />
<glyph unicode="x" horiz-adv-x="1034" d="M51 0l305 532l-272 492h313l125 -244l125 244h299l-278 -467l315 -557h-315l-154 309l-162 -309h-301z" />
<glyph unicode="y" horiz-adv-x="1009" d="M41 1024h291l198 -797l175 797h264l-262 -1110q-65 -276 -291 -276q-122 0 -185 10v231q49 -6 101 -6q84 0 100 90l6 37h-69z" />
<glyph unicode="z" horiz-adv-x="856" d="M61 0v227l424 578h-383v219h693v-246l-422 -559h401v-219h-713z" />
<glyph unicode="{" horiz-adv-x="706" d="M61 573v287q65 0 110.5 42t45.5 130v340q0 164 78 243t207 79q57 0 112 -11v-221q-36 6 -57 6q-78 0 -78 -75v-402q0 -123 -57.5 -192.5t-136.5 -81.5q79 -12 136.5 -82t57.5 -193v-401q0 -76 78 -76q21 0 57 6v-221q-50 -10 -112 -10q-130 0 -207.5 78.5t-77.5 242.5 v340q0 88 -45.5 130t-110.5 42z" />
<glyph unicode="|" horiz-adv-x="634" d="M184 -225v1884h267v-1884h-267z" />
<glyph unicode="}" horiz-adv-x="706" d="M92 -29q36 -6 58 -6q77 0 77 76v401q0 123 58 193t137 82q-79 12 -137 81.5t-58 192.5v402q0 75 -77 75q-22 0 -58 -6v221q55 11 113 11q129 0 206.5 -79t77.5 -243v-340q0 -88 45.5 -130t110.5 -42v-287q-65 0 -110.5 -42t-45.5 -130v-340q0 -164 -77.5 -242.5 t-206.5 -78.5q-63 0 -113 10v221z" />
<glyph unicode="~" horiz-adv-x="1044" d="M154 483v242q119 72 213 72q56 0 166.5 -40t162.5 -40q94 0 195 69v-241q-107 -72 -213 -72q-58 0 -163 42t-163 42q-90 0 -198 -74z" />
<glyph unicode="&#xa1;" horiz-adv-x="552" d="M123 758v266h307v-266h-307zM139 -410v967h277v-967h-277z" />
<glyph unicode="&#xa2;" horiz-adv-x="962" d="M152 530q0 225 73.5 346t218.5 152v201h256v-199q74 -12 101 -18v-240q-11 2 -35 7.5t-34 7.5t-30.5 5.5t-35.5 5t-38 2.5t-48 1q-51 0 -81 -23t-48.5 -93t-18.5 -196q0 -149 34 -209.5t109 -60.5q47 0 84.5 4t87 14t54.5 11v-238q-32 -9 -101 -20v-215h-256v213 q-75 11 -126.5 42t-90 92t-57 162t-18.5 246z" />
<glyph unicode="&#xa3;" horiz-adv-x="962" d="M104 0v231h134v404h-134v231h134v54q0 131 12.5 220t38.5 150.5t73 95.5t109 48t154 14q108 0 227 -18v-236q-103 18 -162 18q-42 0 -68 -3t-46.5 -15.5t-31 -28.5t-17 -51t-8 -74t-1.5 -106v-68h211v-231h-211v-404h354v-231h-768z" />
<glyph unicode="&#xa4;" horiz-adv-x="1167" d="M27 231l147 148q-41 96 -41 235q0 133 43 234l-149 149l174 174l135 -135q106 64 248 64q138 0 247 -64l136 135l174 -174l-140 -139q54 -108 54 -244q0 -134 -54 -245l140 -138l-174 -174l-133 131q-103 -59 -250 -59q-149 0 -252 59l-131 -131zM383 614 q0 -121 51 -193.5t150 -72.5t149.5 73t50.5 193t-50.5 193.5t-149.5 73.5t-150 -73t-51 -194z" />
<glyph unicode="&#xa5;" horiz-adv-x="962" d="M20 1434h293l174 -457l172 457h283l-297 -676h193v-215h-217v-92h217v-215h-217v-236h-287v236h-213v215h213v92h-213v215h188z" />
<glyph unicode="&#xa6;" horiz-adv-x="634" d="M184 -225v737h267v-737h-267zM184 922v737h267v-737h-267z" />
<glyph unicode="&#xa7;" horiz-adv-x="962" d="M119 707q0 129 121 219q-93 84 -93 207q0 170 101.5 244.5t322.5 74.5q87 0 230 -35v-233q-45 13 -67 19t-71 13t-100 7q-76 0 -107.5 -18.5t-31.5 -65.5q0 -30 29.5 -50.5t95.5 -35.5q110 -25 169.5 -61t88.5 -98.5t29 -166.5q0 -126 -123 -211q94 -85 94 -215 q0 -170 -101.5 -244.5t-322.5 -74.5q-90 0 -229 34v234q46 -14 67 -19.5t70 -12.5t100 -7q76 0 107.5 18.5t31.5 65.5q0 30 -29 50.5t-95 35.5q-160 37 -223.5 108.5t-63.5 217.5zM391 727q0 -58 22.5 -84.5t78.5 -40.5q71 35 71 105q0 59 -21.5 84.5t-78.5 37.5 q-72 -30 -72 -102z" />
<glyph unicode="&#xa8;" horiz-adv-x="778" d="M51 1147v235h266v-235h-266zM461 1147v235h266v-235h-266z" />
<glyph unicode="&#xa9;" horiz-adv-x="1658" d="M143 717q0 175 37 307t117.5 229.5t216.5 148t326 50.5t323 -50.5t209.5 -149.5t110 -229t33.5 -306q0 -141 -20.5 -251.5t-68.5 -203t-125 -153t-193 -94t-269 -33.5q-191 0 -327 49t-216.5 146t-117 229t-36.5 311zM383 717q0 -96 7 -165.5t25 -133.5t50.5 -105t83 -72 t122.5 -45t169 -14q83 0 146.5 11.5t110 31t78.5 55t52 75t31 99.5t14.5 119.5t3.5 143.5t-3.5 143.5t-14.5 119t-31 99t-52 75t-78.5 55t-110 31t-146.5 11.5q-97 0 -169 -13.5t-122.5 -44t-83 -71.5t-50.5 -104t-25 -133t-7 -168zM602 729q0 124 14 201t47.5 118.5 t77.5 55.5t117 14q23 0 74.5 -5.5t68.5 -10.5v-150q-60 13 -108 13q-32 0 -46.5 -3t-30 -14t-20.5 -38.5t-8.5 -71t-3.5 -117.5q0 -75 3.5 -120.5t9.5 -73.5t21.5 -40t30.5 -15t46 -3q48 0 106 12v-149q-20 -5 -74 -11t-81 -6q-91 0 -141.5 33t-76.5 123.5t-26 257.5z" />
<glyph unicode="&#xaa;" horiz-adv-x="882" d="M113 905q0 127 89.5 188.5t229.5 61.5h64v21q0 98 -103 98q-105 0 -223 -31v174q42 13 115.5 22t132.5 9q165 0 232 -74t67 -221v-274q0 -50 53 -50v-161h-104q-30 0 -63.5 19t-45.5 63q-55 -93 -215 -93q-46 0 -84 11.5t-72 38t-53.5 77t-19.5 121.5zM127 0v236h616 v-236h-616zM334 915q0 -33 20.5 -55t59.5 -22q75 0 82 80v86h-52q-110 0 -110 -89z" />
<glyph unicode="&#xab;" horiz-adv-x="952" d="M102 612l179 424h221l-125 -424l125 -424h-221zM451 612l178 424h221l-125 -424l125 -424h-221z" />
<glyph unicode="&#xac;" horiz-adv-x="1177" d="M123 502v235h932v-520h-246v285h-686z" />
<glyph unicode="&#xad;" horiz-adv-x="1013" d="M154 502v235h706v-235h-706z" />
<glyph unicode="&#xae;" horiz-adv-x="1658" d="M143 717q0 175 37 307t117.5 229.5t216.5 148t326 50.5t323 -50.5t209.5 -149.5t110 -229t33.5 -306q0 -141 -20.5 -251.5t-68.5 -203t-125 -153t-193 -94t-269 -33.5q-191 0 -327 49t-216.5 146t-117 229t-36.5 311zM383 717q0 -96 7 -165.5t25 -133.5t50.5 -105t83 -72 t122.5 -45t169 -14q83 0 146.5 11.5t110 31t78.5 55t52 75t31 99.5t14.5 119.5t3.5 143.5t-3.5 143.5t-14.5 119t-31 99t-52 75t-78.5 55t-110 31t-146.5 11.5q-97 0 -169 -13.5t-122.5 -44t-83 -71.5t-50.5 -104t-25 -133t-7 -168zM614 326v788q123 8 217 8 q136 0 191 -61.5t55 -181.5q0 -170 -106 -226l153 -327h-190l-125 301h-25v-301h-170zM784 774h21q58 0 78 18.5t20 81.5q0 64 -15 84.5t-69 20.5l-35 -4v-201z" />
<glyph unicode="&#xaf;" horiz-adv-x="706" d="M51 1210v224h604v-224h-604z" />
<glyph unicode="&#xb0;" horiz-adv-x="784" d="M41 1108q0 340 350 340q352 0 352 -340q0 -171 -89 -260.5t-263 -89.5t-262 89.5t-88 260.5zM272 1110q0 -160 119 -160t119 160q0 150 -119 150t-119 -150z" />
<glyph unicode="&#xb1;" horiz-adv-x="1126" d="M141 502v235h308v324h249v-324h308v-235h-308v-180h-249v180h-308zM154 0v236h839v-236h-839z" />
<glyph unicode="&#xb2;" horiz-adv-x="839" d="M117 420v213l209 254q67 74 87.5 125t20.5 129q0 46 -28.5 77t-94.5 31q-60 0 -168 -22v198l40 7q40 6 86.5 11t82.5 5q152 0 235 -85.5t83 -236.5q0 -167 -99 -286l-184 -219h295v-201h-565z" />
<glyph unicode="&#xb3;" horiz-adv-x="839" d="M141 428v193q116 -25 172 -25q60 0 94.5 32t34.5 95q0 145 -133 145h-88v187h74q79 0 105 29t26 85q0 88 -111 88q-57 0 -165 -24v192q22 5 87.5 14t118.5 9q169 0 236 -67.5t67 -221.5q0 -62 -35 -117.5t-94 -74.5q63 -17 105.5 -82t42.5 -146q0 -96 -22.5 -162.5 t-66 -103t-98 -52t-126.5 -15.5q-51 0 -123 8t-101 14z" />
<glyph unicode="&#xb4;" horiz-adv-x="641" d="M51 1188l213 276h326l-311 -276h-228z" />
<glyph unicode="&#xb5;" horiz-adv-x="1071" d="M133 -348v1372h273v-651q0 -96 27 -126t87 -30q72 0 109 46t37 108v653h272v-1024h-221l-19 80q-101 -98 -243 -98q-9 0 -26 1t-23 1v-332h-273z" />
<glyph unicode="&#xb6;" horiz-adv-x="1136" d="M82 1092q0 86 19.5 150.5t51 104t78 63.5t93.5 33t104 9q59 0 122.5 -4.5t97.5 -9.5l34 -4v-220q-104 19 -172 19q-101 0 -137.5 -30.5t-36.5 -115.5q0 -77 32 -109t99 -32h215v-946h-258v725h-39q-303 0 -303 367zM772 0v1434h252v-1434h-252z" />
<glyph unicode="&#xb7;" horiz-adv-x="512" d="M102 500v266h308v-266h-308z" />
<glyph unicode="&#xb8;" horiz-adv-x="688" d="M133 -260q65 -10 111 -10t64 10t18 37t-36 37t-134 10l45 278h196l-22 -141q89 -10 132.5 -61.5t43.5 -130.5q0 -224 -262 -224q-73 0 -156 17v178z" />
<glyph unicode="&#xb9;" horiz-adv-x="839" d="M141 1143v213l170 78h252v-809h137v-205h-542v205h170v598z" />
<glyph unicode="&#xba;" horiz-adv-x="888" d="M113 1069q0 198 77 290.5t254 92.5t254.5 -92.5t77.5 -290.5q0 -159 -38 -251.5t-108.5 -128.5t-185.5 -36q-86 0 -145.5 19.5t-102.5 66.5t-63 128.5t-20 201.5zM119 0v236h643v-236h-643zM338 1049q0 -118 23 -169t83 -51t83.5 51.5t23.5 168.5q0 134 -22.5 180.5 t-84.5 46.5t-84 -45.5t-22 -181.5z" />
<glyph unicode="&#xbb;" horiz-adv-x="952" d="M102 188l125 424l-125 424h222l178 -424l-178 -424h-222zM451 188l124 424l-124 424h221l178 -424l-178 -424h-221z" />
<glyph unicode="&#xbc;" horiz-adv-x="1792" d="M90 1143v213l170 78h252v-809h137v-205h-543v205h170v598zM473 -205l635 1864h244l-635 -1864h-244zM1049 240v213l145 561h223l-147 -582h78l22 232h207v-232l92 -12v-180h-92v-240h-234v240h-294z" />
<glyph unicode="&#xbd;" horiz-adv-x="1792" d="M90 1143v213l170 78h252v-809h137v-205h-543v205h170v598zM483 -205l635 1864h244l-635 -1864h-244zM1176 0v213l208 254q67 74 88 125t21 129q0 46 -28.5 77t-94.5 31q-60 0 -168 -22v199q3 0 28.5 4t52 8t63.5 7t65 3q152 0 235 -85t83 -236q0 -168 -99 -287l-184 -219 h295v-201h-565z" />
<glyph unicode="&#xbe;" horiz-adv-x="1792" d="M125 428v193q116 -25 172 -25q60 0 94.5 32t34.5 95q0 145 -133 145h-88v187h74q79 0 105 29t26 85q0 88 -111 88q-58 0 -166 -24v192q22 5 88 14t119 9q169 0 236 -67.5t67 -221.5q0 -62 -35 -117.5t-94 -74.5q63 -17 105.5 -82t42.5 -146q0 -95 -23 -162t-66.5 -103.5 t-98 -52t-126.5 -15.5q-51 0 -122.5 8t-100.5 14zM451 -205l634 1864h244l-635 -1864h-243zM1034 240v213l146 561h223l-148 -582h78l23 232h207v-232h92v-192h-92v-240h-234v240h-295z" />
<glyph unicode="&#xbf;" horiz-adv-x="778" d="M61 -57q0 98 23 156.5t86 133.5l149 181v143h277v-223l-164 -201q-57 -69 -75.5 -102.5t-18.5 -83.5q0 -56 10.5 -83.5t46 -43t107.5 -15.5q83 0 215 31v-231q-47 -11 -128 -22t-132 -11q-84 0 -143 9t-109.5 32.5t-80.5 65t-46.5 107t-16.5 157.5zM303 758v266h307v-266 h-307z" />
<glyph unicode="&#xc0;" horiz-adv-x="1116" d="M31 0l327 1434h414l313 -1434h-288l-66 334h-342l-65 -334h-293zM195 1722h329l213 -235h-231zM436 575h250l-127 678z" />
<glyph unicode="&#xc1;" horiz-adv-x="1116" d="M31 0l327 1434h414l313 -1434h-288l-66 334h-342l-65 -334h-293zM336 1487l213 235h330l-312 -235h-231zM436 575h250l-127 678z" />
<glyph unicode="&#xc2;" horiz-adv-x="1116" d="M31 0l327 1434h414l313 -1434h-288l-66 334h-342l-65 -334h-293zM190 1495l226 236h311l227 -236h-301l-82 125l-82 -125h-299zM436 575h250l-127 678z" />
<glyph unicode="&#xc3;" horiz-adv-x="1116" d="M31 0l327 1434h414l313 -1434h-288l-66 334h-342l-65 -334h-293zM238 1481v213q80 67 196 67q50 0 153.5 -40t141.5 -40q101 0 184 74v-213q-70 -67 -196 -67q-53 0 -153 39.5t-142 39.5q-51 0 -100 -20.5t-84 -52.5zM436 575h250l-127 678z" />
<glyph unicode="&#xc4;" horiz-adv-x="1116" d="M31 0l327 1434h414l313 -1434h-288l-66 334h-342l-65 -334h-293zM227 1495v236h267v-236h-267zM436 575h250l-127 678zM637 1495v236h266v-236h-266z" />
<glyph unicode="&#xc5;" horiz-adv-x="1116" d="M31 0l323 1421q-26 53 -26 142q0 249 237 249q238 0 238 -249q0 -82 -29 -142l311 -1421h-288l-66 334h-342l-65 -334h-293zM436 575h250l-127 678zM508 1565q0 -55 11 -78t46 -23q33 0 45.5 24t12.5 77q0 55 -11.5 77.5t-46.5 22.5t-46 -22.5t-11 -77.5z" />
<glyph unicode="&#xc6;" horiz-adv-x="1599" d="M31 0l430 1434h995v-222h-547l54 -362h477v-219h-445l62 -410h440v-221h-713l-39 334h-335l-95 -334h-284zM475 575h242l-72 613z" />
<glyph unicode="&#xc7;" horiz-adv-x="886" d="M102 739q0 132 10.5 235t29.5 178t51.5 127.5t69 85.5t89.5 51.5t106.5 25t125.5 6.5q40 0 118.5 -10.5t102.5 -18.5v-248q-132 31 -248 31q-49 0 -77.5 -15t-51.5 -64t-32 -144.5t-9 -253.5q0 -211 17.5 -317.5t51.5 -141.5t101 -35q116 0 248 31v-246q-47 -13 -189 -26 l-4 -29q89 -10 132.5 -61.5t43.5 -130.5q0 -224 -262 -224q-72 0 -155 17v178q65 -10 110 -10q46 0 64 10t18 37t-36 37t-134 10l27 174q-84 16 -141.5 59.5t-98.5 129.5t-59.5 221t-18.5 331z" />
<glyph unicode="&#xc8;" horiz-adv-x="978" d="M143 0v1434h734v-222h-453v-362h401v-219h-401v-410h453v-221h-734zM199 1722h329l213 -235h-231z" />
<glyph unicode="&#xc9;" horiz-adv-x="978" d="M143 0v1434h734v-222h-453v-362h401v-219h-401v-410h453v-221h-734zM305 1487l213 235h330l-311 -235h-232z" />
<glyph unicode="&#xca;" horiz-adv-x="978" d="M129 1495l225 236h312l227 -236h-301l-82 125l-82 -125h-299zM143 0v1434h734v-222h-453v-362h401v-219h-401v-410h453v-221h-734z" />
<glyph unicode="&#xcb;" horiz-adv-x="978" d="M143 0v1434h734v-222h-453v-362h401v-219h-401v-410h453v-221h-734zM174 1475v235h266v-235h-266zM584 1475v235h266v-235h-266z" />
<glyph unicode="&#xcc;" horiz-adv-x="710" d="M49 1722h330l213 -235h-232zM72 0v217h143v1000h-143v217h567v-217h-143v-1000h143v-217h-567z" />
<glyph unicode="&#xcd;" horiz-adv-x="710" d="M72 0v217h143v1000h-143v217h567v-217h-143v-1000h143v-217h-567zM113 1487l213 235h329l-311 -235h-231z" />
<glyph unicode="&#xce;" horiz-adv-x="710" d="M-27 1495l226 236h311l227 -236h-301l-82 125l-82 -125h-299zM72 0v217h143v1000h-143v217h567v-217h-143v-1000h143v-217h-567z" />
<glyph unicode="&#xcf;" horiz-adv-x="710" d="M18 1475v235h267v-235h-267zM72 0v217h143v1000h-143v217h567v-217h-143v-1000h143v-217h-567zM428 1475v235h266v-235h-266z" />
<glyph unicode="&#xd0;" horiz-adv-x="1148" d="M61 666v235h113v533q248 20 363 20q88 0 153 -11t125.5 -40t101 -80.5t71 -129.5t45 -191t14.5 -263q0 -181 -20.5 -313t-58.5 -218t-99.5 -136.5t-134.5 -71t-173 -20.5q-64 0 -161 5t-162 10l-64 5v666h-113zM455 236q39 -9 125 -9q66 0 104.5 42t58 151.5t19.5 304.5 q0 131 -7.5 219t-20 140.5t-36.5 79t-49.5 34.5t-66.5 8q-34 0 -65.5 -2t-46.5 -4l-15 -2v-297h170v-235h-170v-430z" />
<glyph unicode="&#xd1;" horiz-adv-x="1212" d="M143 0v1434h408l274 -1174v1174h244v-1434h-407l-271 1151v-1151h-248zM274 1481v213q42 35 96 51t101 16q50 0 153.5 -40t141.5 -40q101 0 184 74v-213q-70 -67 -196 -67q-53 0 -153 39.5t-142 39.5q-51 0 -100.5 -21t-84.5 -52z" />
<glyph unicode="&#xd2;" horiz-adv-x="1163" d="M102 733q0 152 12 260.5t43.5 200t85.5 146t138 84.5t201 30q98 0 172 -19.5t127 -61t88 -99t55.5 -141.5t28.5 -179t8 -221q0 -114 -5 -200.5t-18.5 -168t-37 -139t-59.5 -106.5t-86.5 -78t-118 -45t-154.5 -16t-154.5 16t-118 45t-87 77.5t-59.5 106.5t-36.5 139.5 t-19 168t-5.5 200.5zM207 1722h330l213 -235h-232zM387 723q0 -208 19 -320.5t60 -157t116 -44.5t115.5 44.5t59.5 156.5t19 321q0 211 -19 320.5t-59 149.5t-116 40t-116 -40t-59.5 -150t-19.5 -320z" />
<glyph unicode="&#xd3;" horiz-adv-x="1163" d="M102 733q0 152 12 260.5t43.5 200t85.5 146t138 84.5t201 30q98 0 172 -19.5t127 -61t88 -99t55.5 -141.5t28.5 -179t8 -221q0 -114 -5 -200.5t-18.5 -168t-37 -139t-59.5 -106.5t-86.5 -78t-118 -45t-154.5 -16t-154.5 16t-118 45t-87 77.5t-59.5 106.5t-36.5 139.5 t-19 168t-5.5 200.5zM387 723q0 -208 19 -320.5t60 -157t116 -44.5t115.5 44.5t59.5 156.5t19 321q0 211 -19 320.5t-59 149.5t-116 40t-116 -40t-59.5 -150t-19.5 -320zM401 1487l213 235h330l-311 -235h-232z" />
<glyph unicode="&#xd4;" horiz-adv-x="1163" d="M102 733q0 152 12 260.5t43.5 200t85.5 146t138 84.5t201 30q98 0 172 -19.5t127 -61t88 -99t55.5 -141.5t28.5 -179t8 -221q0 -114 -5 -200.5t-18.5 -168t-37 -139t-59.5 -106.5t-86.5 -78t-118 -45t-154.5 -16t-154.5 16t-118 45t-87 77.5t-59.5 106.5t-36.5 139.5 t-19 168t-5.5 200.5zM201 1495l225 236h311l228 -236h-301l-82 125l-82 -125h-299zM387 723q0 -208 19 -320.5t60 -157t116 -44.5t115.5 44.5t59.5 156.5t19 321q0 211 -19 320.5t-59 149.5t-116 40t-116 -40t-59.5 -150t-19.5 -320z" />
<glyph unicode="&#xd5;" horiz-adv-x="1163" d="M102 733q0 152 12 260.5t43.5 200t85.5 146t138 84.5t201 30q98 0 172 -19.5t127 -61t88 -99t55.5 -141.5t28.5 -179t8 -221q0 -114 -5 -200.5t-18.5 -168t-37 -139t-59.5 -106.5t-86.5 -78t-118 -45t-154.5 -16t-154.5 16t-118 45t-87 77.5t-59.5 106.5t-36.5 139.5 t-19 168t-5.5 200.5zM242 1481v213q80 67 196 67q50 0 153.5 -40t141.5 -40q102 0 185 74v-213q-70 -67 -197 -67q-53 0 -153 39.5t-142 39.5q-51 0 -100 -20.5t-84 -52.5zM387 723q0 -208 19 -320.5t60 -157t116 -44.5t115.5 44.5t59.5 156.5t19 321q0 211 -19 320.5 t-59 149.5t-116 40t-116 -40t-59.5 -150t-19.5 -320z" />
<glyph unicode="&#xd6;" horiz-adv-x="1163" d="M102 733q0 152 12 260.5t43.5 200t85.5 146t138 84.5t201 30q98 0 172 -19.5t127 -61t88 -99t55.5 -141.5t28.5 -179t8 -221q0 -114 -5 -200.5t-18.5 -168t-37 -139t-59.5 -106.5t-86.5 -78t-118 -45t-154.5 -16t-154.5 16t-118 45t-87 77.5t-59.5 106.5t-36.5 139.5 t-19 168t-5.5 200.5zM244 1495v236h266v-236h-266zM387 723q0 -208 19 -320.5t60 -157t116 -44.5t115.5 44.5t59.5 156.5t19 321q0 211 -19 320.5t-59 149.5t-116 40t-116 -40t-59.5 -150t-19.5 -320zM653 1495v236h267v-236h-267z" />
<glyph unicode="&#xd7;" horiz-adv-x="1167" d="M170 375l240 239l-240 240l174 174l240 -240l239 240l174 -174l-239 -240l239 -239l-174 -174l-239 239l-240 -239z" />
<glyph unicode="&#xd8;" horiz-adv-x="1122" d="M113 733q0 126 8 221t28.5 179t55.5 141.5t88 99t127 61t172 19.5q57 0 119 -10l57 176h205l-80 -248q100 -78 139 -231.5t39 -407.5q0 -114 -5 -200.5t-18.5 -168t-37 -139t-59.5 -106.5t-86.5 -78t-118 -45t-154.5 -16q-68 0 -143 14l-58 -180h-205l84 262 q-91 83 -124 238.5t-33 418.5zM397 723q0 -137 9 -231l235 735q-24 6 -49 6q-76 0 -116 -40t-59.5 -150t-19.5 -320zM520 213q24 -12 72 -12q75 0 115.5 44.5t59.5 156.5t19 321q0 170 -12 278z" />
<glyph unicode="&#xd9;" horiz-adv-x="1136" d="M133 440v994h281v-1033q0 -174 155 -174q154 0 154 174v1033h281v-994q0 -126 -28.5 -214t-86 -140.5t-135.5 -76t-185 -23.5t-185 23.5t-135.5 75.5t-86.5 140.5t-29 214.5zM186 1722h330l213 -235h-231z" />
<glyph unicode="&#xda;" horiz-adv-x="1136" d="M133 440v994h281v-1033q0 -174 155 -174q154 0 154 174v1033h281v-994q0 -126 -28.5 -214t-86 -140.5t-135.5 -76t-185 -23.5t-185 23.5t-135.5 75.5t-86.5 140.5t-29 214.5zM412 1487l213 235h329l-311 -235h-231z" />
<glyph unicode="&#xdb;" horiz-adv-x="1136" d="M133 440v994h281v-1033q0 -174 155 -174q154 0 154 174v1033h281v-994q0 -126 -28.5 -214t-86 -140.5t-135.5 -76t-185 -23.5t-185 23.5t-135.5 75.5t-86.5 140.5t-29 214.5zM184 1495l226 236h311l227 -236h-301l-82 125l-82 -125h-299z" />
<glyph unicode="&#xdc;" horiz-adv-x="1136" d="M133 440v994h281v-1033q0 -174 155 -174q154 0 154 174v1033h281v-994q0 -126 -28.5 -214t-86 -140.5t-135.5 -76t-185 -23.5t-185 23.5t-135.5 75.5t-86.5 140.5t-29 214.5zM227 1495v236h267v-236h-267zM637 1495v236h266v-236h-266z" />
<glyph unicode="&#xdd;" horiz-adv-x="1087" d="M20 1434h304l227 -553l227 553h289l-383 -803v-631h-287v631zM401 1487l213 235h330l-311 -235h-232z" />
<glyph unicode="&#xde;" horiz-adv-x="1085" d="M143 0v1434h281v-222q16 0 48 1t48 1q137 0 230 -31t146 -94.5t75 -147.5t22 -204q0 -262 -110.5 -372.5t-341.5 -110.5h-117v-254h-281zM424 496h129q72 0 114 61.5t42 165.5q0 126 -34 186t-118 60q-39 0 -72.5 -3.5t-46.5 -6.5l-14 -3v-460z" />
<glyph unicode="&#xdf;" horiz-adv-x="1099" d="M133 0v1030q0 71 12 131.5t41 115t74 92.5t115.5 60.5t161.5 22.5q176 0 278.5 -83t102.5 -228q0 -123 -33 -295q-107 0 -148 -19.5t-41 -70.5q0 -26 16.5 -40.5t53.5 -29.5q56 -22 95.5 -47t75 -64.5t53.5 -98t18 -136.5q0 -85 -20 -149.5t-52.5 -103.5t-81 -63 t-98.5 -33t-111 -9q-96 0 -188 18v233q68 -22 133 -22q137 0 137 119q0 59 -30 93.5t-99 65.5q-89 40 -127.5 101.5t-38.5 167.5q0 103 60 174t161 84q19 43 19 84q0 61 -29 92t-106 31q-72 0 -100.5 -41.5t-28.5 -137.5v-1044h-275z" />
<glyph unicode="&#xe0;" horiz-adv-x="1042" d="M92 309q0 181 109 261.5t325 80.5h92v43q0 61 -31.5 92t-105.5 31q-154 0 -315 -49v233q57 17 148.5 29t166.5 12q87 0 151.5 -9t109.5 -30t74.5 -49t46 -71.5t22.5 -91.5t6 -115v-406q0 -32 18 -48.5t62 -16.5v-205h-119q-129 0 -176 84q-83 -102 -270 -102 q-314 0 -314 327zM209 1464h326l213 -276h-228zM369 324q0 -51 27.5 -82t86.5 -31q40 0 68.5 15t42 39t19 47t5.5 46v93h-102q-147 0 -147 -127z" />
<glyph unicode="&#xe1;" horiz-adv-x="1042" d="M92 309q0 181 109 261.5t325 80.5h92v43q0 61 -31.5 92t-105.5 31q-154 0 -315 -49v233q57 17 148.5 29t166.5 12q87 0 151.5 -9t109.5 -30t74.5 -49t46 -71.5t22.5 -91.5t6 -115v-406q0 -32 18 -48.5t62 -16.5v-205h-119q-129 0 -176 84q-83 -102 -270 -102 q-314 0 -314 327zM369 324q0 -51 27.5 -82t86.5 -31q40 0 68.5 15t42 39t19 47t5.5 46v93h-102q-147 0 -147 -127zM371 1188l213 276h325l-311 -276h-227z" />
<glyph unicode="&#xe2;" horiz-adv-x="1042" d="M92 309q0 181 109 261.5t325 80.5h92v43q0 61 -31.5 92t-105.5 31q-154 0 -315 -49v233q57 17 148.5 29t166.5 12q87 0 151.5 -9t109.5 -30t74.5 -49t46 -71.5t22.5 -91.5t6 -115v-406q0 -32 18 -48.5t62 -16.5v-205h-119q-129 0 -176 84q-83 -102 -270 -102 q-314 0 -314 327zM121 1188l250 276h303l252 -276h-301l-103 151l-102 -151h-299zM369 324q0 -51 27.5 -82t86.5 -31q40 0 68.5 15t42 39t19 47t5.5 46v93h-102q-147 0 -147 -127z" />
<glyph unicode="&#xe3;" horiz-adv-x="1042" d="M92 309q0 181 109 261.5t325 80.5h92v43q0 61 -31.5 92t-105.5 31q-154 0 -315 -49v233q57 17 148.5 29t166.5 12q87 0 151.5 -9t109.5 -30t74.5 -49t46 -71.5t22.5 -91.5t6 -115v-406q0 -32 18 -48.5t62 -16.5v-205h-119q-129 0 -176 84q-83 -102 -270 -102 q-314 0 -314 327zM193 1194v213q42 35 96 51.5t100 16.5q50 0 153.5 -40t141.5 -40q102 0 184 73v-213q-70 -67 -196 -67q-53 0 -153 40t-142 40q-102 0 -184 -74zM369 324q0 -51 27.5 -82t86.5 -31q40 0 68.5 15t42 39t19 47t5.5 46v93h-102q-147 0 -147 -127z" />
<glyph unicode="&#xe4;" horiz-adv-x="1042" d="M92 309q0 181 109 261.5t325 80.5h92v43q0 61 -31.5 92t-105.5 31q-154 0 -315 -49v233q57 17 148.5 29t166.5 12q87 0 151.5 -9t109.5 -30t74.5 -49t46 -71.5t22.5 -91.5t6 -115v-406q0 -32 18 -48.5t62 -16.5v-205h-119q-129 0 -176 84q-83 -102 -270 -102 q-314 0 -314 327zM190 1147v235h267v-235h-267zM369 324q0 -51 27.5 -82t86.5 -31q40 0 68.5 15t42 39t19 47t5.5 46v93h-102q-147 0 -147 -127zM600 1147v235h266v-235h-266z" />
<glyph unicode="&#xe5;" horiz-adv-x="1042" d="M92 309q0 181 109 261.5t325 80.5h92v43q0 61 -31.5 92t-105.5 31q-154 0 -315 -49v233q57 17 148.5 29t166.5 12q87 0 151.5 -9t109.5 -30t74.5 -49t46 -71.5t22.5 -91.5t6 -115v-406q0 -32 18 -48.5t62 -16.5v-205h-119q-129 0 -176 84q-83 -102 -270 -102 q-314 0 -314 327zM276 1321q0 250 238 250t238 -250t-238 -250t-238 250zM369 324q0 -51 27.5 -82t86.5 -31q40 0 68.5 15t42 39t19 47t5.5 46v93h-102q-147 0 -147 -127zM457 1323q0 -55 11 -77.5t46 -22.5q33 0 45 23.5t12 76.5q0 55 -11 77.5t-46 22.5t-46 -22.5 t-11 -77.5z" />
<glyph unicode="&#xe6;" horiz-adv-x="1517" d="M102 303q0 179 107.5 252.5t327.5 73.5h92v65q0 61 -31.5 92t-105.5 31q-155 0 -316 -49v233q57 17 149 29t167 12q221 0 307 -71q91 71 250 71q114 0 190.5 -29.5t119 -91t60 -142t17.5 -195.5v-156h-533q4 -124 40.5 -168.5t131.5 -44.5q133 0 285 31v-230 q-48 -13 -138 -23.5t-147 -10.5q-137 0 -219.5 26.5t-130.5 100.5q-90 -127 -309 -127q-71 0 -125 15.5t-98 51t-67.5 99.5t-23.5 155zM379 317q0 -106 115 -106q40 0 68.5 15t42 39t19 47t5.5 46v70h-103q-147 0 -147 -111zM907 629h267v37q0 151 -130 151q-63 0 -95 -42 t-42 -146z" />
<glyph unicode="&#xe7;" horiz-adv-x="833" d="M102 532q0 268 104.5 389t311.5 121q116 0 234 -28v-240q-10 2 -34.5 7.5t-34.5 7.5t-31 5.5t-36 5t-38 2.5t-48 1q-30 0 -51.5 -7.5t-40.5 -27.5t-30.5 -54.5t-18 -89.5t-6.5 -132q0 -149 34.5 -210t108.5 -61q47 0 84.5 4t87 14t54.5 11v-238q-91 -22 -177 -28l-4 -23 q89 -10 133 -61.5t44 -130.5q0 -224 -263 -224q-72 0 -155 17v178q65 -10 110 -10q46 0 64 10t18 37t-36 37t-134 10l27 168q-95 17 -153 69.5t-91 168t-33 302.5z" />
<glyph unicode="&#xe8;" horiz-adv-x="1001" d="M102 512q0 277 106.5 403.5t313.5 126.5q114 0 190.5 -29.5t119 -91t60 -142t17.5 -195.5v-172h-530q6 -114 42 -155.5t128 -41.5q133 0 285 31v-230q-48 -13 -138 -23.5t-147 -10.5q-68 0 -118.5 5.5t-99.5 20t-83 39.5t-63 64.5t-46.5 95.5t-27 132t-9.5 173zM197 1464 h325l213 -276h-227zM381 612h266v54q0 76 -31 113.5t-98 37.5q-65 0 -96.5 -45.5t-40.5 -159.5z" />
<glyph unicode="&#xe9;" horiz-adv-x="1001" d="M102 512q0 277 106.5 403.5t313.5 126.5q114 0 190.5 -29.5t119 -91t60 -142t17.5 -195.5v-172h-530q6 -114 42 -155.5t128 -41.5q133 0 285 31v-230q-48 -13 -138 -23.5t-147 -10.5q-68 0 -118.5 5.5t-99.5 20t-83 39.5t-63 64.5t-46.5 95.5t-27 132t-9.5 173zM332 1188 l213 276h325l-311 -276h-227zM381 612h266v54q0 76 -31 113.5t-98 37.5q-65 0 -96.5 -45.5t-40.5 -159.5z" />
<glyph unicode="&#xea;" horiz-adv-x="1001" d="M102 512q0 277 106.5 403.5t313.5 126.5q114 0 190.5 -29.5t119 -91t60 -142t17.5 -195.5v-172h-530q6 -114 42 -155.5t128 -41.5q133 0 285 31v-230q-48 -13 -138 -23.5t-147 -10.5q-68 0 -118.5 5.5t-99.5 20t-83 39.5t-63 64.5t-46.5 95.5t-27 132t-9.5 173zM104 1188 l250 276h303l252 -276h-301l-102 151l-103 -151h-299zM381 612h266v54q0 76 -31 113.5t-98 37.5q-65 0 -96.5 -45.5t-40.5 -159.5z" />
<glyph unicode="&#xeb;" horiz-adv-x="1001" d="M102 512q0 277 106.5 403.5t313.5 126.5q114 0 190.5 -29.5t119 -91t60 -142t17.5 -195.5v-172h-530q6 -114 42 -155.5t128 -41.5q133 0 285 31v-230q-48 -13 -138 -23.5t-147 -10.5q-68 0 -118.5 5.5t-99.5 20t-83 39.5t-63 64.5t-46.5 95.5t-27 132t-9.5 173zM182 1147 v235h267v-235h-267zM381 612h266v54q0 76 -31 113.5t-98 37.5q-65 0 -96.5 -45.5t-40.5 -159.5zM592 1147v235h266v-235h-266z" />
<glyph unicode="&#xec;" horiz-adv-x="538" d="M-80 1464h326l213 -276h-228zM133 0v1024h273v-1024h-273z" />
<glyph unicode="&#xed;" horiz-adv-x="538" d="M74 1188l213 276h325l-311 -276h-227zM133 0v1024h273v-1024h-273z" />
<glyph unicode="&#xee;" horiz-adv-x="538" d="M-133 1188l250 276h303l252 -276h-301l-103 151l-102 -151h-299zM133 0v1024h273v-1024h-273z" />
<glyph unicode="&#xef;" horiz-adv-x="538" d="M-68 1147v235h267v-235h-267zM133 0v1024h273v-1024h-273zM342 1147v235h266v-235h-266z" />
<glyph unicode="&#xf0;" horiz-adv-x="1040" d="M102 430q0 127 17.5 220.5t57 165.5t109.5 108.5t171 36.5q98 0 186 -43q-22 150 -90 225l-47 -86h-219l88 162q-55 4 -176 4v229q197 0 295 -16l55 100h219l-86 -158q123 -64 184.5 -214t61.5 -425q0 -222 -24.5 -367.5t-80.5 -232.5t-137 -122t-203 -35q-50 0 -98.5 11 t-101 41.5t-91.5 78.5t-64.5 130t-25.5 187zM375 453q0 -100 15.5 -154t43 -73t76.5 -19q38 0 62 17t44 68.5t29 153t10 263.5q-81 30 -149 30q-131 0 -131 -286z" />
<glyph unicode="&#xf1;" d="M133 0v1024h221l19 -80q105 98 245 98q84 0 143 -16.5t96 -46.5t57.5 -82.5t28 -112.5t7.5 -149v-635h-272v641q0 97 -27.5 131.5t-87.5 34.5q-73 0 -113.5 -42t-43.5 -101v-664h-273zM240 1194v213q42 35 96 51.5t100 16.5q50 0 153.5 -40t141.5 -40q102 0 184 73v-213 q-70 -67 -196 -67q-53 0 -153 40t-142 40q-102 0 -184 -74z" />
<glyph unicode="&#xf2;" horiz-adv-x="1085" d="M102 532q0 262 105 384t334 122q230 0 336 -122t106 -384q0 -159 -27.5 -266t-85.5 -168.5t-136.5 -86.5t-192.5 -25t-192 25t-135.5 86.5t-84.5 168t-27 266.5zM197 1464h325l213 -276h-227zM381 502q0 -172 33 -233.5t127 -61.5q95 0 129.5 62t34.5 233 q0 179 -35.5 247t-128.5 68q-92 0 -126 -67.5t-34 -247.5z" />
<glyph unicode="&#xf3;" horiz-adv-x="1085" d="M102 532q0 262 105 384t334 122q230 0 336 -122t106 -384q0 -159 -27.5 -266t-85.5 -168.5t-136.5 -86.5t-192.5 -25t-192 25t-135.5 86.5t-84.5 168t-27 266.5zM348 1188l213 276h326l-312 -276h-227zM381 502q0 -172 33 -233.5t127 -61.5q95 0 129.5 62t34.5 233 q0 179 -35.5 247t-128.5 68q-92 0 -126 -67.5t-34 -247.5z" />
<glyph unicode="&#xf4;" horiz-adv-x="1085" d="M102 532q0 262 105 384t334 122q230 0 336 -122t106 -384q0 -159 -27.5 -266t-85.5 -168.5t-136.5 -86.5t-192.5 -25t-192 25t-135.5 86.5t-84.5 168t-27 266.5zM141 1188l250 276h303l252 -276h-301l-102 151l-103 -151h-299zM381 502q0 -172 33 -233.5t127 -61.5 q95 0 129.5 62t34.5 233q0 179 -35.5 247t-128.5 68q-92 0 -126 -67.5t-34 -247.5z" />
<glyph unicode="&#xf5;" horiz-adv-x="1085" d="M102 532q0 262 105 384t334 122q230 0 336 -122t106 -384q0 -159 -27.5 -266t-85.5 -168.5t-136.5 -86.5t-192.5 -25t-192 25t-135.5 86.5t-84.5 168t-27 266.5zM205 1194v213q42 35 96 51.5t100 16.5q50 0 153.5 -40t141.5 -40q103 0 185 73v-213q-70 -67 -197 -67 q-53 0 -153 40t-142 40q-102 0 -184 -74zM381 502q0 -172 33 -233.5t127 -61.5q95 0 129.5 62t34.5 233q0 179 -35.5 247t-128.5 68q-92 0 -126 -67.5t-34 -247.5z" />
<glyph unicode="&#xf6;" horiz-adv-x="1085" d="M102 532q0 262 105 384t334 122q230 0 336 -122t106 -384q0 -159 -27.5 -266t-85.5 -168.5t-136.5 -86.5t-192.5 -25t-192 25t-135.5 86.5t-84.5 168t-27 266.5zM211 1147v235h266v-235h-266zM381 502q0 -172 33 -233.5t127 -61.5q95 0 129.5 62t34.5 233 q0 179 -35.5 247t-128.5 68q-92 0 -126 -67.5t-34 -247.5zM621 1147v235h266v-235h-266z" />
<glyph unicode="&#xf7;" horiz-adv-x="1126" d="M143 502v235h840v-235h-840zM410 92v266h307v-266h-307zM410 881v266h307v-266h-307z" />
<glyph unicode="&#xf8;" horiz-adv-x="1085" d="M102 532q0 262 105 384t334 122q62 0 106 -8l68 176h192l-90 -237q166 -112 166 -437q0 -159 -27.5 -266t-85.5 -168.5t-136.5 -86.5t-192.5 -25q-55 0 -101 6l-65 -174h-195l88 231q-84 55 -125 171t-41 312zM381 502q0 -86 6 -144l176 457q-6 2 -22 2q-92 0 -126 -67.5 t-34 -247.5zM524 207h17q95 0 129.5 62t34.5 233q0 90 -9 151z" />
<glyph unicode="&#xf9;" horiz-adv-x="1060" d="M123 381v643h272v-651q0 -96 27.5 -126t87.5 -30q72 0 108.5 45.5t36.5 108.5v653h273v-1024h-221l-19 80q-101 -98 -244 -98q-95 0 -158 24t-98.5 76.5t-50 123t-14.5 175.5zM143 1464h326l213 -276h-227z" />
<glyph unicode="&#xfa;" horiz-adv-x="1060" d="M123 381v643h272v-651q0 -96 27.5 -126t87.5 -30q72 0 108.5 45.5t36.5 108.5v653h273v-1024h-221l-19 80q-101 -98 -244 -98q-95 0 -158 24t-98.5 76.5t-50 123t-14.5 175.5zM307 1188l213 276h326l-311 -276h-228z" />
<glyph unicode="&#xfb;" horiz-adv-x="1060" d="M123 381v643h272v-651q0 -96 27.5 -126t87.5 -30q72 0 108.5 45.5t36.5 108.5v653h273v-1024h-221l-19 80q-101 -98 -244 -98q-95 0 -158 24t-98.5 76.5t-50 123t-14.5 175.5zM123 1188l250 276h303l252 -276h-301l-103 151l-102 -151h-299z" />
<glyph unicode="&#xfc;" horiz-adv-x="1060" d="M123 381v643h272v-651q0 -96 27.5 -126t87.5 -30q72 0 108.5 45.5t36.5 108.5v653h273v-1024h-221l-19 80q-101 -98 -244 -98q-95 0 -158 24t-98.5 76.5t-50 123t-14.5 175.5zM188 1147v235h267v-235h-267zM598 1147v235h266v-235h-266z" />
<glyph unicode="&#xfd;" horiz-adv-x="1009" d="M41 1024h291l198 -797l175 797h264l-262 -1110q-65 -276 -291 -276q-122 0 -185 10v231q49 -6 101 -6q84 0 100 90l6 37h-69zM354 1188l213 276h326l-311 -276h-228z" />
<glyph unicode="&#xfe;" horiz-adv-x="1062" d="M133 -348v1782h273v-467q95 75 221 75q116 0 187.5 -42t109 -145t37.5 -277q0 -227 -47.5 -355.5t-150.5 -184.5t-284 -56q-48 0 -73 2v-332h-273zM406 220q50 -5 88 -5q79 0 118 27.5t55.5 98.5t16.5 216q0 104 -13 158t-39.5 74t-76.5 20q-64 0 -106.5 -47.5 t-42.5 -106.5v-435z" />
<glyph unicode="&#xff;" horiz-adv-x="1009" d="M41 1024h291l198 -797l175 797h264l-262 -1110q-65 -276 -291 -276q-122 0 -185 10v231q49 -6 101 -6q84 0 100 90l6 37h-69zM162 1147v235h266v-235h-266zM571 1147v235h267v-235h-267z" />
<glyph unicode="&#x100;" horiz-adv-x="1116" d="M31 0l327 1434h414l313 -1434h-288l-66 334h-342l-65 -334h-293zM263 1577v223h604v-223h-604zM436 575h250l-127 678z" />
<glyph unicode="&#x101;" horiz-adv-x="1042" d="M92 309q0 181 109 261.5t325 80.5h92v43q0 61 -31.5 92t-105.5 31q-154 0 -315 -49v233q57 17 148.5 29t166.5 12q87 0 151.5 -9t109.5 -30t74.5 -49t46 -71.5t22.5 -91.5t6 -115v-406q0 -32 18 -48.5t62 -16.5v-205h-119q-129 0 -176 84q-83 -102 -270 -102 q-314 0 -314 327zM179 1165v224h604v-224h-604zM369 324q0 -51 27.5 -82t86.5 -31q40 0 68.5 15t42 39t19 47t5.5 46v93h-102q-147 0 -147 -127z" />
<glyph unicode="&#x102;" horiz-adv-x="1116" d="M31 0l327 1434h414l313 -1434h-288l-66 334h-342l-65 -334h-293zM233 1874h240q3 -49 27.5 -77t64.5 -28t65.5 29t26.5 76h240q-2 -47 -21 -95t-55.5 -95t-104 -77t-155.5 -30q-71 0 -128.5 20.5t-93 51.5t-59.5 72t-34.5 78.5t-12.5 74.5zM436 575h250l-127 678z" />
<glyph unicode="&#x103;" horiz-adv-x="1042" d="M92 309q0 181 109 261.5t325 80.5h92v43q0 61 -31.5 92t-105.5 31q-154 0 -315 -49v233q57 17 148.5 29t166.5 12q87 0 151.5 -9t109.5 -30t74.5 -49t46 -71.5t22.5 -91.5t6 -115v-406q0 -32 18 -48.5t62 -16.5v-205h-119q-129 0 -176 84q-83 -102 -270 -102 q-314 0 -314 327zM150 1462h239q3 -49 27.5 -76.5t64.5 -27.5t65.5 28.5t26.5 75.5h240q-2 -47 -21 -95t-55.5 -95t-104 -77t-155.5 -30q-71 0 -128.5 20.5t-92.5 51.5t-59.5 72t-34.5 78.5t-12 74.5zM369 324q0 -51 27.5 -82t86.5 -31q40 0 68.5 15t42 39t19 47t5.5 46v93 h-102q-147 0 -147 -127z" />
<glyph unicode="&#x104;" horiz-adv-x="1116" d="M31 0l327 1434h414l313 -1434h-279q-35 -59 -58 -119.5t-23 -96.5q0 -41 21 -67.5t59 -26.5q39 0 125 14v-194q-82 -21 -174 -21q-141 0 -197.5 64t-56.5 198q0 144 110 267h181l-62 316h-342l-65 -334h-293zM436 575h250l-127 678z" />
<glyph unicode="&#x105;" horiz-adv-x="1042" d="M92 309q0 181 109 261.5t325 80.5h92v43q0 61 -31.5 92t-105.5 31q-154 0 -315 -49v233q57 17 148.5 29t166.5 12q87 0 151.5 -9t109.5 -30t74.5 -49t46 -71.5t22.5 -91.5t6 -115v-406q0 -32 18 -48.5t62 -16.5v-205h-80q-66 -120 -66 -189q0 -41 21 -67.5t59 -26.5 q39 0 125 14v-195q-78 -20 -174 -20q-141 0 -197.5 64t-56.5 198q0 142 109 264q-22 17 -35 42q-83 -102 -270 -102q-314 0 -314 327zM369 324q0 -51 27.5 -82t86.5 -31q40 0 68.5 15t42 39t19 47t5.5 46v93h-102q-147 0 -147 -127z" />
<glyph unicode="&#x106;" horiz-adv-x="886" d="M102 739q0 132 10.5 235t29.5 178t51.5 127.5t69 85.5t89.5 51.5t106.5 25t125.5 6.5q40 0 118.5 -10.5t102.5 -18.5v-248q-132 31 -248 31q-49 0 -77.5 -15t-51.5 -64t-32 -144.5t-9 -253.5q0 -211 17.5 -317.5t51.5 -141.5t101 -35q116 0 248 31v-246 q-36 -10 -117.5 -20t-130.5 -10q-99 0 -168 18.5t-126.5 67t-91 133.5t-51.5 216.5t-18 317.5zM470 1577l213 276h326l-312 -276h-227z" />
<glyph unicode="&#x107;" horiz-adv-x="833" d="M102 532q0 268 104.5 389t311.5 121q116 0 234 -28v-240q-10 2 -34.5 7.5t-34.5 7.5t-31 5.5t-36 5t-38 2.5t-48 1q-30 0 -51.5 -7.5t-40.5 -27.5t-30.5 -54.5t-18 -89.5t-6.5 -132q0 -149 34.5 -210t108.5 -61q47 0 84.5 4t87 14t54.5 11v-238q-110 -30 -236 -30 q-86 0 -146 12t-114 46.5t-85.5 95t-50 159t-18.5 237.5zM404 1165l213 277h326l-311 -277h-228z" />
<glyph unicode="&#x108;" horiz-adv-x="886" d="M102 739q0 132 10.5 235t29.5 178t51.5 127.5t69 85.5t89.5 51.5t106.5 25t125.5 6.5q40 0 118.5 -10.5t102.5 -18.5v-248q-132 31 -248 31q-49 0 -77.5 -15t-51.5 -64t-32 -144.5t-9 -253.5q0 -211 17.5 -317.5t51.5 -141.5t101 -35q116 0 248 31v-246 q-36 -10 -117.5 -20t-130.5 -10q-99 0 -168 18.5t-126.5 67t-91 133.5t-51.5 216.5t-18 317.5zM181 1577l250 276h303l252 -276h-301l-102 152l-103 -152h-299z" />
<glyph unicode="&#x109;" horiz-adv-x="833" d="M102 532q0 268 104.5 389t311.5 121q116 0 234 -28v-240q-10 2 -34.5 7.5t-34.5 7.5t-31 5.5t-36 5t-38 2.5t-48 1q-30 0 -51.5 -7.5t-40.5 -27.5t-30.5 -54.5t-18 -89.5t-6.5 -132q0 -149 34.5 -210t108.5 -61q47 0 84.5 4t87 14t54.5 11v-238q-110 -30 -236 -30 q-86 0 -146 12t-114 46.5t-85.5 95t-50 159t-18.5 237.5zM116 1165l250 277h303l252 -277h-301l-103 152l-102 -152h-299z" />
<glyph unicode="&#x10a;" horiz-adv-x="886" d="M102 739q0 132 10.5 235t29.5 178t51.5 127.5t69 85.5t89.5 51.5t106.5 25t125.5 6.5q40 0 118.5 -10.5t102.5 -18.5v-248q-132 31 -248 31q-49 0 -77.5 -15t-51.5 -64t-32 -144.5t-9 -253.5q0 -211 17.5 -317.5t51.5 -141.5t101 -35q116 0 248 31v-246 q-36 -10 -117.5 -20t-130.5 -10q-99 0 -168 18.5t-126.5 67t-91 133.5t-51.5 216.5t-18 317.5zM437 1577v235h293v-235h-293z" />
<glyph unicode="&#x10b;" horiz-adv-x="833" d="M102 532q0 268 104.5 389t311.5 121q116 0 234 -28v-240q-10 2 -34.5 7.5t-34.5 7.5t-31 5.5t-36 5t-38 2.5t-48 1q-30 0 -51.5 -7.5t-40.5 -27.5t-30.5 -54.5t-18 -89.5t-6.5 -132q0 -149 34.5 -210t108.5 -61q47 0 84.5 4t87 14t54.5 11v-238q-110 -30 -236 -30 q-86 0 -146 12t-114 46.5t-85.5 95t-50 159t-18.5 237.5zM372 1165v236h293v-236h-293z" />
<glyph unicode="&#x10c;" horiz-adv-x="886" d="M102 739q0 132 10.5 235t29.5 178t51.5 127.5t69 85.5t89.5 51.5t106.5 25t125.5 6.5q40 0 118.5 -10.5t102.5 -18.5v-248q-132 31 -248 31q-49 0 -77.5 -15t-51.5 -64t-32 -144.5t-9 -253.5q0 -211 17.5 -317.5t51.5 -141.5t101 -35q116 0 248 31v-246 q-36 -10 -117.5 -20t-130.5 -10q-99 0 -168 18.5t-126.5 67t-91 133.5t-51.5 216.5t-18 317.5zM181 1853h301l103 -151l102 151h299l-250 -276h-303z" />
<glyph unicode="&#x10d;" horiz-adv-x="833" d="M102 532q0 268 104.5 389t311.5 121q116 0 234 -28v-240q-10 2 -34.5 7.5t-34.5 7.5t-31 5.5t-36 5t-38 2.5t-48 1q-30 0 -51.5 -7.5t-40.5 -27.5t-30.5 -54.5t-18 -89.5t-6.5 -132q0 -149 34.5 -210t108.5 -61q47 0 84.5 4t87 14t54.5 11v-238q-110 -30 -236 -30 q-86 0 -146 12t-114 46.5t-85.5 95t-50 159t-18.5 237.5zM116 1442h301l102 -152l103 152h299l-250 -277h-303z" />
<glyph unicode="&#x10e;" horiz-adv-x="1118" d="M143 0v1434q248 20 363 20q88 0 153 -11t125.5 -40t101 -80.5t71 -129.5t45 -191t14.5 -263q0 -181 -20.5 -313t-58.5 -218t-99.5 -136.5t-134.5 -71t-173 -20.5q-64 0 -161 5t-161 10zM177 1853h301l103 -151l102 151h299l-250 -276h-303zM424 236q39 -9 125 -9 q66 0 104.5 42t58 151.5t19.5 304.5q0 131 -7.5 219t-20 140.5t-36.5 79t-49.5 34.5t-66.5 8q-34 0 -65.5 -2t-46.5 -4l-15 -2v-962z" />
<glyph unicode="&#x10f;" d="M102 485q0 209 52.5 331.5t157.5 174t282 51.5q14 0 38.5 -1t35.5 -1v394h272v-1434h-221l-21 84q-110 -102 -256 -102q-89 0 -150 23t-105 80t-64.5 155t-20.5 245zM379 467q0 -103 14.5 -158t42 -74.5t78.5 -19.5q65 0 109.5 48t44.5 106v434l-93 6q-75 0 -115.5 -26.5 t-60.5 -100.5t-20 -215zM1124 860l82 307v267h307v-267l-188 -307h-201z" />
<glyph unicode="&#x110;" horiz-adv-x="1228" d="M6 600v236h211v598q248 20 363 20q88 0 153 -11t125.5 -40t101 -80.5t71 -129.5t45 -191t14.5 -263q0 -181 -20.5 -313t-58.5 -218t-99.5 -136.5t-134.5 -71t-173 -20.5q-64 0 -161 5t-161 10l-65 5v600h-211zM498 236q39 -9 125 -9q66 0 104.5 42t58 151.5t19.5 304.5 q0 131 -7.5 219t-20 140.5t-36.5 79t-49.5 34.5t-66.5 8q-34 0 -65.5 -2t-46.5 -4l-15 -2v-362h215v-236h-215v-364z" />
<glyph unicode="&#x111;" d="M102 485q0 209 52.5 331.5t157.5 174t282 51.5q14 0 38.5 -1t35.5 -1v84h-301v236h301v74h272v-74h133v-236h-133v-1124h-221l-21 84q-110 -102 -256 -102q-89 0 -150 23t-105 80t-64.5 155t-20.5 245zM379 467q0 -103 14.5 -158t42 -74.5t78.5 -19.5q65 0 109.5 48 t44.5 106v434l-93 6q-75 0 -115.5 -26.5t-60.5 -100.5t-20 -215z" />
<glyph unicode="&#x112;" horiz-adv-x="978" d="M143 0v1434h734v-222h-453v-362h401v-219h-401v-410h453v-221h-734zM208 1577v223h604v-223h-604z" />
<glyph unicode="&#x113;" horiz-adv-x="1001" d="M102 512q0 277 106.5 403.5t313.5 126.5q114 0 190.5 -29.5t119 -91t60 -142t17.5 -195.5v-172h-530q6 -114 42 -155.5t128 -41.5q133 0 285 31v-230q-48 -13 -138 -23.5t-147 -10.5q-68 0 -118.5 5.5t-99.5 20t-83 39.5t-63 64.5t-46.5 95.5t-27 132t-9.5 173zM220 1165 v224h604v-224h-604zM381 612h266v54q0 76 -31 113.5t-98 37.5q-65 0 -96.5 -45.5t-40.5 -159.5z" />
<glyph unicode="&#x114;" horiz-adv-x="978" d="M143 0v1434h734v-222h-453v-362h401v-219h-401v-410h453v-221h-734zM178 1874h240q3 -49 27.5 -77t64.5 -28t65.5 29t26.5 76h240q-2 -47 -21 -95t-55.5 -95t-104 -77t-155.5 -30q-71 0 -128.5 20.5t-93 51.5t-59.5 72t-34.5 78.5t-12.5 74.5z" />
<glyph unicode="&#x115;" horiz-adv-x="1001" d="M102 512q0 277 106.5 403.5t313.5 126.5q114 0 190.5 -29.5t119 -91t60 -142t17.5 -195.5v-172h-530q6 -114 42 -155.5t128 -41.5q133 0 285 31v-230q-48 -13 -138 -23.5t-147 -10.5q-68 0 -118.5 5.5t-99.5 20t-83 39.5t-63 64.5t-46.5 95.5t-27 132t-9.5 173zM190 1462 h240q3 -49 27.5 -76.5t64.5 -27.5t65.5 28.5t26.5 75.5h240q-2 -47 -21 -95t-55.5 -95t-104 -77t-155.5 -30q-71 0 -128.5 20.5t-93 51.5t-59.5 72t-34.5 78.5t-12.5 74.5zM381 612h266v54q0 76 -31 113.5t-98 37.5q-65 0 -96.5 -45.5t-40.5 -159.5z" />
<glyph unicode="&#x116;" horiz-adv-x="978" d="M143 0v1434h734v-222h-453v-362h401v-219h-401v-410h453v-221h-734zM364 1577v235h292v-235h-292z" />
<glyph unicode="&#x117;" horiz-adv-x="1001" d="M102 512q0 277 106.5 403.5t313.5 126.5q114 0 190.5 -29.5t119 -91t60 -142t17.5 -195.5v-172h-530q6 -114 42 -155.5t128 -41.5q133 0 285 31v-230q-48 -13 -138 -23.5t-147 -10.5q-68 0 -118.5 5.5t-99.5 20t-83 39.5t-63 64.5t-46.5 95.5t-27 132t-9.5 173zM376 1165 v236h293v-236h-293zM381 612h266v54q0 76 -31 113.5t-98 37.5q-65 0 -96.5 -45.5t-40.5 -159.5z" />
<glyph unicode="&#x118;" horiz-adv-x="978" d="M143 0v1434h734v-222h-453v-362h401v-219h-401v-410h453v-221h-173q-35 -59 -58 -119.5t-23 -96.5q0 -42 20.5 -68t58.5 -26q39 0 125 14v-194q-82 -21 -174 -21q-141 0 -197.5 64t-56.5 198q0 135 96 249h-352z" />
<glyph unicode="&#x119;" horiz-adv-x="1001" d="M102 512q0 277 106.5 403.5t313.5 126.5q114 0 190.5 -29.5t119 -91t60 -142t17.5 -195.5v-172h-530q6 -114 42 -155.5t128 -41.5q133 0 285 31v-230q-64 -18 -191 -29q-37 -59 -60.5 -121.5t-23.5 -99.5q0 -41 21 -67.5t59 -26.5q39 0 125 14v-195q-78 -20 -174 -20 q-141 0 -197.5 64t-56.5 198q0 135 99 253q-87 9 -146 36.5t-103 86.5t-64 158t-20 245zM381 612h266v54q0 76 -31 113.5t-98 37.5q-65 0 -96.5 -45.5t-40.5 -159.5z" />
<glyph unicode="&#x11a;" horiz-adv-x="978" d="M108 1853h301l102 -151l102 151h299l-249 -276h-304zM143 0v1434h734v-222h-453v-362h401v-219h-401v-410h453v-221h-734z" />
<glyph unicode="&#x11b;" horiz-adv-x="1001" d="M102 512q0 277 106.5 403.5t313.5 126.5q114 0 190.5 -29.5t119 -91t60 -142t17.5 -195.5v-172h-530q6 -114 42 -155.5t128 -41.5q133 0 285 31v-230q-48 -13 -138 -23.5t-147 -10.5q-68 0 -118.5 5.5t-99.5 20t-83 39.5t-63 64.5t-46.5 95.5t-27 132t-9.5 173zM120 1442 h301l102 -152l103 152h299l-250 -277h-303zM381 612h266v54q0 76 -31 113.5t-98 37.5q-65 0 -96.5 -45.5t-40.5 -159.5z" />
<glyph unicode="&#x11c;" horiz-adv-x="1044" d="M102 739q0 128 11.5 229.5t33 176t56.5 128.5t75.5 88.5t97.5 54.5t116.5 28t136.5 8q97 0 260 -35v-241q-161 30 -281 30q-55 0 -89.5 -11.5t-62 -40.5t-41.5 -85t-21 -137.5t-7 -206.5q0 -208 17.5 -314t55.5 -145t113 -39q59 0 86 2v324h-131v242h404v-777 q-196 -36 -352 -36q-108 0 -183 20.5t-134 70t-93 137t-51 216.5t-17 313zM226 1577l250 276h303l252 -276h-301l-102 152l-103 -152h-299z" />
<glyph unicode="&#x11d;" horiz-adv-x="1122" d="M92 684q0 76 18 135.5t53 97.5t77 64t99.5 38.5t110 17.5t117.5 5q101 0 178 -24l336 14v-209l-131 8q29 -76 29 -163q0 -181 -114.5 -266t-348.5 -85q-56 0 -121 7q-12 -24 -12 -60q0 -13 4 -33q143 13 242 13q195 0 291 -74.5t96 -255.5q0 -66 -17 -117t-51 -84 t-74.5 -54.5t-97.5 -32.5t-110.5 -15t-122.5 -4q-74 0 -206 12t-192 23v221q202 -35 410 -35q101 0 140.5 21.5t39.5 70.5q0 43 -27 67.5t-98 24.5q-59 0 -184.5 -7.5t-185.5 -14.5q-37 34 -67 95.5t-30 135.5q0 105 54 178q-105 89 -105 285zM165 1165l250 277h303 l252 -277h-301l-103 152l-102 -152h-299zM365 668q0 -133 151 -133q100 0 145.5 30t45.5 119q0 76 -35.5 106.5t-124.5 30.5q-107 0 -144.5 -33.5t-37.5 -119.5z" />
<glyph unicode="&#x11e;" horiz-adv-x="1044" d="M102 739q0 128 11.5 229.5t33 176t56.5 128.5t75.5 88.5t97.5 54.5t116.5 28t136.5 8q97 0 260 -35v-241q-161 30 -281 30q-55 0 -89.5 -11.5t-62 -40.5t-41.5 -85t-21 -137.5t-7 -206.5q0 -208 17.5 -314t55.5 -145t113 -39q59 0 86 2v324h-131v242h404v-777 q-196 -36 -352 -36q-108 0 -183 20.5t-134 70t-93 137t-51 216.5t-17 313zM297 1874h240q3 -49 27.5 -77t64.5 -28t65.5 29t26.5 76h240q-2 -47 -21 -95t-55.5 -95t-104 -77t-155.5 -30q-71 0 -128.5 20.5t-93 51.5t-59.5 72t-34.5 78.5t-12.5 74.5z" />
<glyph unicode="&#x11f;" horiz-adv-x="1122" d="M92 684q0 76 18 135.5t53 97.5t77 64t99.5 38.5t110 17.5t117.5 5q101 0 178 -24l336 14v-209l-131 8q29 -76 29 -163q0 -181 -114.5 -266t-348.5 -85q-56 0 -121 7q-12 -24 -12 -60q0 -13 4 -33q143 13 242 13q195 0 291 -74.5t96 -255.5q0 -66 -17 -117t-51 -84 t-74.5 -54.5t-97.5 -32.5t-110.5 -15t-122.5 -4q-74 0 -206 12t-192 23v221q202 -35 410 -35q101 0 140.5 21.5t39.5 70.5q0 43 -27 67.5t-98 24.5q-59 0 -184.5 -7.5t-185.5 -14.5q-37 34 -67 95.5t-30 135.5q0 105 54 178q-105 89 -105 285zM236 1462h239 q3 -49 27.5 -76.5t64.5 -27.5t65.5 28.5t26.5 75.5h240q-2 -47 -21 -95t-55.5 -95t-104 -77t-155.5 -30q-71 0 -128.5 20.5t-92.5 51.5t-59.5 72t-34.5 78.5t-12 74.5zM365 668q0 -133 151 -133q100 0 145.5 30t45.5 119q0 76 -35.5 106.5t-124.5 30.5q-107 0 -144.5 -33.5 t-37.5 -119.5z" />
<glyph unicode="&#x120;" horiz-adv-x="1044" d="M102 739q0 128 11.5 229.5t33 176t56.5 128.5t75.5 88.5t97.5 54.5t116.5 28t136.5 8q97 0 260 -35v-241q-161 30 -281 30q-55 0 -89.5 -11.5t-62 -40.5t-41.5 -85t-21 -137.5t-7 -206.5q0 -208 17.5 -314t55.5 -145t113 -39q59 0 86 2v324h-131v242h404v-777 q-196 -36 -352 -36q-108 0 -183 20.5t-134 70t-93 137t-51 216.5t-17 313zM482 1577v235h293v-235h-293z" />
<glyph unicode="&#x121;" horiz-adv-x="1122" d="M92 684q0 76 18 135.5t53 97.5t77 64t99.5 38.5t110 17.5t117.5 5q101 0 178 -24l336 14v-209l-131 8q29 -76 29 -163q0 -181 -114.5 -266t-348.5 -85q-56 0 -121 7q-12 -24 -12 -60q0 -13 4 -33q143 13 242 13q195 0 291 -74.5t96 -255.5q0 -66 -17 -117t-51 -84 t-74.5 -54.5t-97.5 -32.5t-110.5 -15t-122.5 -4q-74 0 -206 12t-192 23v221q202 -35 410 -35q101 0 140.5 21.5t39.5 70.5q0 43 -27 67.5t-98 24.5q-59 0 -184.5 -7.5t-185.5 -14.5q-37 34 -67 95.5t-30 135.5q0 105 54 178q-105 89 -105 285zM365 668q0 -133 151 -133 q100 0 145.5 30t45.5 119q0 76 -35.5 106.5t-124.5 30.5q-107 0 -144.5 -33.5t-37.5 -119.5zM421 1165v236h293v-236h-293z" />
<glyph unicode="&#x122;" horiz-adv-x="1044" d="M102 739q0 128 11.5 229.5t33 176t56.5 128.5t75.5 88.5t97.5 54.5t116.5 28t136.5 8q97 0 260 -35v-241q-161 30 -281 30q-55 0 -89.5 -11.5t-62 -40.5t-41.5 -85t-21 -137.5t-7 -206.5q0 -208 17.5 -314t55.5 -145t113 -39q59 0 86 2v324h-131v242h404v-777 q-91 -17 -158 -24v-260l-188 -307h-201l82 307v254q-135 17 -212.5 91t-115 232t-37.5 428z" />
<glyph unicode="&#x123;" horiz-adv-x="1122" d="M92 684q0 76 18 135.5t53 97.5t77 64t99.5 38.5t110 17.5t117.5 5q101 0 178 -24l336 14v-209l-131 8q29 -76 29 -163q0 -181 -114.5 -266t-348.5 -85q-56 0 -121 7q-12 -24 -12 -60q0 -13 4 -33q143 13 242 13q195 0 291 -74.5t96 -255.5q0 -66 -17 -117t-51 -84 t-74.5 -54.5t-97.5 -32.5t-110.5 -15t-122.5 -4q-74 0 -206 12t-192 23v221q202 -35 410 -35q101 0 140.5 21.5t39.5 70.5q0 43 -27 67.5t-98 24.5q-59 0 -184.5 -7.5t-185.5 -14.5q-37 34 -67 95.5t-30 135.5q0 105 54 178q-105 89 -105 285zM365 668q0 -133 151 -133 q100 0 145.5 30t45.5 119q0 76 -35.5 106.5t-124.5 30.5q-107 0 -144.5 -33.5t-37.5 -119.5zM375 1180v178q65 -10 110 -10q46 0 64 10t18 37t-36 37t-134 10l45 278h197l-23 -141q89 -10 133 -62t44 -131q0 -223 -263 -223q-72 0 -155 17z" />
<glyph unicode="&#x124;" horiz-adv-x="1167" d="M143 0v1434h281v-592h319v592h281v-1434h-281v608h-319v-608h-281zM181 1577l250 276h303l252 -276h-301l-102 152l-103 -152h-299z" />
<glyph unicode="&#x125;" d="M133 0v1434h273v-461q91 69 212 69q84 0 143 -16.5t96 -46.5t57.5 -82.5t28 -112.5t7.5 -149v-635h-272v641q0 97 -27.5 131.5t-87.5 34.5q-73 0 -113.5 -42t-43.5 -101v-664h-273zM139 1556l250 277h303l252 -277h-301l-102 152l-103 -152h-299z" />
<glyph unicode="&#x126;" horiz-adv-x="1167" d="M55 1042v236h88v156h281v-156h319v156h281v-156h76v-236h-76v-1042h-281v608h-319v-608h-281v1042h-88zM424 842h319v200h-319v-200z" />
<glyph unicode="&#x127;" d="M-6 1128v236h139v70h273v-70h294v-236h-294v-155q91 69 212 69q84 0 143 -16.5t96 -46.5t57.5 -82.5t28 -112.5t7.5 -149v-635h-272v641q0 97 -27.5 131.5t-87.5 34.5q-73 0 -113.5 -42t-43.5 -101v-664h-273v1128h-139z" />
<glyph unicode="&#x128;" horiz-adv-x="710" d="M17 1583v213q42 35 96.5 51.5t100.5 16.5q50 0 153.5 -40t141.5 -40q101 0 184 74v-213q-71 -68 -196 -68q-53 0 -153 40t-142 40q-51 0 -100.5 -21t-84.5 -53zM72 0v217h143v1000h-143v217h567v-217h-143v-1000h143v-217h-567z" />
<glyph unicode="&#x129;" horiz-adv-x="538" d="M-70 1167v213q42 35 96 51.5t101 16.5q50 0 153.5 -40t141.5 -40q101 0 184 74v-213q-71 -68 -196 -68q-53 0 -153 40t-142 40q-51 0 -100.5 -21t-84.5 -53zM133 0v1024h273v-1024h-273z" />
<glyph unicode="&#x12a;" horiz-adv-x="710" d="M53 1577v223h604v-223h-604zM72 0v217h143v1000h-143v217h567v-217h-143v-1000h143v-217h-567z" />
<glyph unicode="&#x12b;" horiz-adv-x="538" d="M-34 1161v223h604v-223h-604zM133 0v1024h273v-1024h-273z" />
<glyph unicode="&#x12c;" horiz-adv-x="710" d="M24 1874h239q3 -49 27.5 -77t64.5 -28t65.5 29t26.5 76h240q-2 -47 -21 -95t-55.5 -95t-104 -77t-155.5 -30q-71 0 -128.5 20.5t-92.5 51.5t-59.5 72t-34.5 78.5t-12 74.5zM72 0v217h143v1000h-143v217h567v-217h-143v-1000h143v-217h-567z" />
<glyph unicode="&#x12d;" horiz-adv-x="538" d="M-63 1458h239q3 -49 27.5 -76.5t64.5 -27.5t65.5 28.5t26.5 75.5h240q-2 -47 -21 -95t-55.5 -95t-104 -77t-155.5 -30q-71 0 -128.5 20.5t-92.5 51.5t-59.5 72t-34.5 78.5t-12 74.5zM133 0v1024h273v-1024h-273z" />
<glyph unicode="&#x12e;" horiz-adv-x="710" d="M72 0v217h143v1000h-143v217h567v-217h-143v-1000h143v-217h-192q-35 -59 -58 -119.5t-23 -96.5q0 -42 20.5 -68t58.5 -26q39 0 125 14v-194q-82 -21 -174 -21q-141 0 -197.5 64t-56.5 198q0 135 96 249h-166z" />
<glyph unicode="&#x12f;" horiz-adv-x="538" d="M56 -249q0 135 96 249h-19v1024h273v-1024h-45q-35 -59 -58 -119.5t-23 -96.5q0 -42 20.5 -68t58.5 -26q39 0 125 14v-194q-82 -21 -174 -21q-141 0 -197.5 64t-56.5 198zM123 1198v236h293v-236h-293z" />
<glyph unicode="&#x130;" horiz-adv-x="710" d="M72 0v217h143v1000h-143v217h567v-217h-143v-1000h143v-217h-567zM209 1577v235h293v-235h-293z" />
<glyph unicode="&#x131;" horiz-adv-x="538" d="M133 0v1024h273v-1024h-273z" />
<glyph unicode="&#x132;" horiz-adv-x="1562" d="M72 0v217h143v1000h-143v217h567v-217h-143v-1000h143v-217h-567zM772 8v244q120 -21 217 -21q95 0 127.5 62.5t32.5 226.5v672h-291v242h572v-899q0 -131 -12 -221t-39.5 -157t-75.5 -104.5t-115.5 -55t-165.5 -17.5q-118 0 -250 28z" />
<glyph unicode="&#x133;" horiz-adv-x="1077" d="M123 1198v236h293v-236h-293zM133 0v1024h273v-1024h-273zM446 -123q52 -6 129 -6q56 0 76.5 19t20.5 73v1061h272v-1051q0 -191 -73.5 -263t-249.5 -72q-83 0 -175 10v229zM662 1198v236h292v-236h-292z" />
<glyph unicode="&#x134;" horiz-adv-x="851" d="M31 1577l250 276h303l252 -276h-301l-103 152l-102 -152h-299zM61 8v244q120 -21 218 -21q94 0 126.5 62.5t32.5 226.5v672h-291v242h572v-899q0 -131 -12 -221t-39.5 -157t-75.5 -104.5t-115.5 -55t-165.5 -17.5q-118 0 -250 28z" />
<glyph unicode="&#x135;" horiz-adv-x="538" d="M-133 1167l250 277h303l252 -277h-301l-103 152l-102 -152h-299zM-92 -123q53 -6 129 -6q56 0 76 19t20 73v1061h273v-1051q0 -191 -74 -263t-250 -72q-82 0 -174 10v229z" />
<glyph unicode="&#x136;" horiz-adv-x="1120" d="M143 0v1434h281v-496l330 496h315l-428 -623l438 -811h-323l-291 563l-41 -63v-500h-281zM417 -696l82 307v266h307v-266l-189 -307h-200z" />
<glyph unicode="&#x137;" horiz-adv-x="1013" d="M133 0v1434h273v-717l245 307h312l-347 -410l367 -614h-172v-266l-188 -307h-201l82 307v266h166l-221 424l-43 -55v-369h-273z" />
<glyph unicode="&#x139;" horiz-adv-x="860" d="M143 0v1434h281v-1196h416v-238h-697zM169 1577l213 276h326l-312 -276h-227z" />
<glyph unicode="&#x13a;" horiz-adv-x="593" d="M133 303v1131h273v-1121q0 -51 13 -69.5t50 -18.5q34 0 74 8v-227q-77 -16 -187 -16q-124 0 -173.5 74t-49.5 239zM155 1556l213 277h325l-311 -277h-227z" />
<glyph unicode="&#x13b;" horiz-adv-x="860" d="M143 0v1434h281v-1196h416v-238h-697zM297 -696l82 307v266h307v-266l-188 -307h-201z" />
<glyph unicode="&#x13c;" horiz-adv-x="593" d="M133 303v1131h273v-1121q0 -51 13 -69.5t50 -18.5q34 0 74 8v-227q-77 -16 -187 -16q-124 0 -173.5 74t-49.5 239zM162 -707l82 308v266h307v-266l-189 -308h-200z" />
<glyph unicode="&#x13d;" horiz-adv-x="860" d="M143 0v1434h281v-1196h416v-238h-697zM614 881l82 307v266h308v-266l-189 -307h-201z" />
<glyph unicode="&#x13e;" horiz-adv-x="593" d="M133 303v1131h273v-1121q0 -51 13 -69.5t50 -18.5q34 0 74 8v-227q-77 -16 -187 -16q-124 0 -173.5 74t-49.5 239zM453 860l82 307v267h307v-267l-189 -307h-200z" />
<glyph unicode="&#x13f;" horiz-adv-x="860" d="M143 0v1434h281v-1196h416v-238h-697zM553 594v266h307v-266h-307z" />
<glyph unicode="&#x140;" horiz-adv-x="958" d="M133 303v1131h273v-1121q0 -51 13 -69.5t50 -18.5q34 0 74 8v-227q-77 -16 -187 -16q-124 0 -173.5 74t-49.5 239zM573 500v266h308v-266h-308z" />
<glyph unicode="&#x141;" horiz-adv-x="880" d="M41 594v242l123 63v535h280v-392l181 95v-246l-181 -92v-561h416v-238h-696v655z" />
<glyph unicode="&#x142;" horiz-adv-x="614" d="M51 594v242l103 61v537h272v-373l127 76v-246l-127 -76v-502q0 -51 13 -69.5t50 -18.5q34 0 74 8v-227q-77 -16 -186 -16q-124 0 -173.5 74t-49.5 239v350z" />
<glyph unicode="&#x143;" horiz-adv-x="1212" d="M143 0v1434h408l274 -1174v1174h244v-1434h-407l-271 1151v-1151h-248zM493 1577l213 276h325l-311 -276h-227z" />
<glyph unicode="&#x144;" d="M133 0v1024h221l19 -80q105 98 245 98q84 0 143 -16.5t96 -46.5t57.5 -82.5t28 -112.5t7.5 -149v-635h-272v641q0 97 -27.5 131.5t-87.5 34.5q-73 0 -113.5 -42t-43.5 -101v-664h-273zM428 1165l213 277h326l-312 -277h-227z" />
<glyph unicode="&#x145;" horiz-adv-x="1212" d="M143 0v1434h408l274 -1174v1174h244v-1434h-201v-250l-188 -307h-201l82 307v266h97l-267 1135v-1151h-248z" />
<glyph unicode="&#x146;" d="M133 0v1024h221l19 -80q105 98 245 98q84 0 143 -16.5t96 -46.5t57.5 -82.5t28 -112.5t7.5 -149v-635h-127v-250l-188 -307h-201l82 307v266h162v625q0 97 -27.5 131.5t-87.5 34.5q-73 0 -113.5 -42t-43.5 -101v-664h-273z" />
<glyph unicode="&#x147;" horiz-adv-x="1212" d="M143 0v1434h408l274 -1174v1174h244v-1434h-407l-271 1151v-1151h-248zM204 1853h301l102 -151l103 151h299l-250 -276h-303z" />
<glyph unicode="&#x148;" d="M133 0v1024h221l19 -80q105 98 245 98q84 0 143 -16.5t96 -46.5t57.5 -82.5t28 -112.5t7.5 -149v-635h-272v641q0 97 -27.5 131.5t-87.5 34.5q-73 0 -113.5 -42t-43.5 -101v-664h-273zM139 1442h301l103 -152l102 152h299l-250 -277h-303z" />
<glyph unicode="&#x149;" horiz-adv-x="1261" d="M-18 891l61 321v226h276v-226l-143 -321h-194zM362 0v1024h222l18 -80q105 98 246 98q84 0 143 -16.5t96 -46.5t57.5 -82.5t28 -112.5t7.5 -149v-635h-273v641q0 97 -27 131.5t-87 34.5q-73 0 -114 -42t-44 -101v-664h-273z" />
<glyph unicode="&#x14c;" horiz-adv-x="1163" d="M102 733q0 152 12 260.5t43.5 200t85.5 146t138 84.5t201 30q98 0 172 -19.5t127 -61t88 -99t55.5 -141.5t28.5 -179t8 -221q0 -114 -5 -200.5t-18.5 -168t-37 -139t-59.5 -106.5t-86.5 -78t-118 -45t-154.5 -16t-154.5 16t-118 45t-87 77.5t-59.5 106.5t-36.5 139.5 t-19 168t-5.5 200.5zM280 1577v223h604v-223h-604zM387 723q0 -208 19 -320.5t60 -157t116 -44.5t115.5 44.5t59.5 156.5t19 321q0 211 -19 320.5t-59 149.5t-116 40t-116 -40t-59.5 -150t-19.5 -320z" />
<glyph unicode="&#x14d;" horiz-adv-x="1085" d="M102 532q0 262 105 384t334 122q230 0 336 -122t106 -384q0 -159 -27.5 -266t-85.5 -168.5t-136.5 -86.5t-192.5 -25t-192 25t-135.5 86.5t-84.5 168t-27 266.5zM239 1161v223h604v-223h-604zM381 502q0 -172 33 -233.5t127 -61.5q95 0 129.5 62t34.5 233 q0 179 -35.5 247t-128.5 68q-92 0 -126 -67.5t-34 -247.5z" />
<glyph unicode="&#x14e;" horiz-adv-x="1163" d="M102 733q0 152 12 260.5t43.5 200t85.5 146t138 84.5t201 30q98 0 172 -19.5t127 -61t88 -99t55.5 -141.5t28.5 -179t8 -221q0 -114 -5 -200.5t-18.5 -168t-37 -139t-59.5 -106.5t-86.5 -78t-118 -45t-154.5 -16t-154.5 16t-118 45t-87 77.5t-59.5 106.5t-36.5 139.5 t-19 168t-5.5 200.5zM250 1874h239q3 -49 28 -77t65 -28t65.5 29t26.5 76h239q-2 -37 -13 -74.5t-36.5 -78.5t-62 -72t-94.5 -51.5t-129 -20.5t-128.5 20.5t-93 51.5t-59.5 72t-34.5 78.5t-12.5 74.5zM387 723q0 -208 19 -320.5t60 -157t116 -44.5t115.5 44.5t59.5 156.5 t19 321q0 211 -19 320.5t-59 149.5t-116 40t-116 -40t-59.5 -150t-19.5 -320z" />
<glyph unicode="&#x14f;" horiz-adv-x="1085" d="M102 532q0 262 105 384t334 122q230 0 336 -122t106 -384q0 -159 -27.5 -266t-85.5 -168.5t-136.5 -86.5t-192.5 -25t-192 25t-135.5 86.5t-84.5 168t-27 266.5zM209 1458h240q3 -49 27.5 -76.5t64.5 -27.5t65.5 28.5t26.5 75.5h239q-2 -37 -13 -74.5t-36.5 -78.5 t-62 -72t-94.5 -51.5t-129 -20.5t-128.5 20.5t-93 51.5t-59.5 72t-34.5 78.5t-12.5 74.5zM381 502q0 -172 33 -233.5t127 -61.5q95 0 129.5 62t34.5 233q0 179 -35.5 247t-128.5 68q-92 0 -126 -67.5t-34 -247.5z" />
<glyph unicode="&#x150;" horiz-adv-x="1163" d="M102 733q0 152 12 260.5t43.5 200t85.5 146t138 84.5t201 30q98 0 172 -19.5t127 -61t88 -99t55.5 -141.5t28.5 -179t8 -221q0 -114 -5 -200.5t-18.5 -168t-37 -139t-59.5 -106.5t-86.5 -78t-118 -45t-154.5 -16t-154.5 16t-118 45t-87 77.5t-59.5 106.5t-36.5 139.5 t-19 168t-5.5 200.5zM273 1577l211 301h349l-343 -301h-217zM387 723q0 -208 19 -320.5t60 -157t116 -44.5t115.5 44.5t59.5 156.5t19 321q0 211 -19 320.5t-59 149.5t-116 40t-116 -40t-59.5 -150t-19.5 -320zM673 1577l211 301h348l-342 -301h-217z" />
<glyph unicode="&#x151;" horiz-adv-x="1085" d="M102 532q0 262 105 384t334 122q230 0 336 -122t106 -384q0 -159 -27.5 -266t-85.5 -168.5t-136.5 -86.5t-192.5 -25t-192 25t-135.5 86.5t-84.5 168t-27 266.5zM232 1161l211 301h349l-342 -301h-218zM381 502q0 -172 33 -233.5t127 -61.5q95 0 129.5 62t34.5 233 q0 179 -35.5 247t-128.5 68q-92 0 -126 -67.5t-34 -247.5zM632 1161l211 301h348l-342 -301h-217z" />
<glyph unicode="&#x152;" horiz-adv-x="1628" d="M102 733q0 152 12 260.5t43.5 200t85.5 146t138 84.5t201 30q90 0 172 -20h772v-222h-527q50 -128 60 -362h416v-219h-416q-6 -272 -62 -410h529v-221h-772q-82 -20 -172 -20q-87 0 -154.5 16t-118 45t-87 77.5t-59.5 106.5t-36.5 139.5t-19 168t-5.5 200.5zM387 723 q0 -208 19 -320.5t60 -157t116 -44.5t115.5 44.5t59.5 156.5t19 321q0 211 -19 320.5t-59 149.5t-116 40t-116 -40t-59.5 -150t-19.5 -320z" />
<glyph unicode="&#x153;" horiz-adv-x="1595" d="M102 532q0 262 105 384t334 122q185 0 299 -102q106 106 276 106q114 0 190.5 -29.5t119 -91t60 -142t17.5 -195.5v-172h-530q6 -114 42 -155.5t128 -41.5q132 0 284 31v-230q-48 -13 -137.5 -23.5t-146.5 -10.5q-221 0 -316 92q-101 -88 -286 -88q-114 0 -192 25 t-135.5 86.5t-84.5 168t-27 266.5zM381 502q0 -172 33 -233.5t127 -61.5q95 0 129.5 62t34.5 233q0 179 -35.5 247t-128.5 68q-92 0 -126 -67.5t-34 -247.5zM975 612h266v54q0 76 -31 113.5t-98 37.5q-65 0 -96.5 -45.5t-40.5 -159.5z" />
<glyph unicode="&#x154;" horiz-adv-x="1091" d="M143 0v1434q207 20 377 20q132 0 221 -27.5t141.5 -86.5t74.5 -140.5t22 -200.5q0 -313 -195 -411l256 -588h-317l-217 541h-82v-541h-281zM407 1577l213 276h325l-311 -276h-227zM424 782h129q65 0 103 52.5t38 150.5q0 124 -30 173.5t-115 49.5q-27 0 -58.5 -3 t-48.5 -6l-18 -3v-414z" />
<glyph unicode="&#x155;" horiz-adv-x="722" d="M133 0v1024h221l21 -92q92 110 213 110q46 0 94 -10v-270q-53 12 -102 12q-48 0 -83.5 -25.5t-54.5 -69.5t-27.5 -94t-8.5 -108v-477h-273zM294 1165l213 277h326l-312 -277h-227z" />
<glyph unicode="&#x156;" horiz-adv-x="1091" d="M143 0v1434q207 20 377 20q132 0 221 -27.5t141.5 -86.5t74.5 -140.5t22 -200.5q0 -313 -195 -411l256 -588h-184v-250l-188 -307h-201l82 307v266h167l-210 525h-82v-541h-281zM424 782h129q65 0 103 52.5t38 150.5q0 124 -30 173.5t-115 49.5q-27 0 -58.5 -3t-48.5 -6 l-18 -3v-414z" />
<glyph unicode="&#x157;" horiz-adv-x="722" d="M133 0v1024h221l21 -92q92 110 213 110q46 0 94 -10v-270q-53 12 -102 12q-48 0 -83.5 -25.5t-54.5 -69.5t-27.5 -94t-8.5 -108v-461h159v-266l-188 -307h-201l82 307v250h-125z" />
<glyph unicode="&#x158;" horiz-adv-x="1091" d="M118 1853h301l102 -151l103 151h299l-250 -276h-303zM143 0v1434q207 20 377 20q132 0 221 -27.5t141.5 -86.5t74.5 -140.5t22 -200.5q0 -313 -195 -411l256 -588h-317l-217 541h-82v-541h-281zM424 782h129q65 0 103 52.5t38 150.5q0 124 -30 173.5t-115 49.5 q-27 0 -58.5 -3t-48.5 -6l-18 -3v-414z" />
<glyph unicode="&#x159;" horiz-adv-x="722" d="M5 1442h301l103 -152l102 152h299l-250 -277h-303zM133 0v1024h221l21 -92q92 110 213 110q46 0 94 -10v-270q-53 12 -102 12q-48 0 -83.5 -25.5t-54.5 -69.5t-27.5 -94t-8.5 -108v-477h-273z" />
<glyph unicode="&#x15a;" horiz-adv-x="868" d="M51 1036q0 220 122 316t366 96q56 0 132.5 -9.5t121.5 -21.5v-241q-52 12 -136 21t-139 9q-182 0 -182 -147q0 -96 31.5 -131t130.5 -56q79 -16 135.5 -44.5t102 -79t68.5 -131t23 -191.5q0 -81 -12.5 -145.5t-33.5 -110t-55 -79t-71.5 -53.5t-88.5 -32t-100 -16t-112 -4 q-174 0 -291 30v244q49 -12 131 -22.5t140 -10.5q209 0 209 179q0 106 -42 153t-132 66q-169 35 -243.5 132.5t-74.5 278.5zM425 1577l213 276h326l-312 -276h-227z" />
<glyph unicode="&#x15b;" horiz-adv-x="870" d="M92 723q0 170 102.5 244.5t323.5 74.5q97 0 236 -34v-234q-132 39 -244 39q-76 0 -108.5 -18.5t-32.5 -65.5q0 -36 32 -55.5t101 -30.5q155 -25 220.5 -106.5t65.5 -227.5q0 -91 -29 -156t-85.5 -101.5t-128.5 -53t-168 -16.5q-155 0 -281 32v234q163 -37 244 -37 q82 0 125 18t43 68q0 49 -27 73.5t-102 37.5q-153 27 -220 104t-67 211zM404 1165l213 277h326l-311 -277h-228z" />
<glyph unicode="&#x15c;" horiz-adv-x="868" d="M51 1036q0 220 122 316t366 96q56 0 132.5 -9.5t121.5 -21.5v-241q-52 12 -136 21t-139 9q-182 0 -182 -147q0 -96 31.5 -131t130.5 -56q79 -16 135.5 -44.5t102 -79t68.5 -131t23 -191.5q0 -81 -12.5 -145.5t-33.5 -110t-55 -79t-71.5 -53.5t-88.5 -32t-100 -16t-112 -4 q-174 0 -291 30v244q49 -12 131 -22.5t140 -10.5q209 0 209 179q0 106 -42 153t-132 66q-169 35 -243.5 132.5t-74.5 278.5zM136 1577l250 276h303l252 -276h-301l-102 152l-103 -152h-299z" />
<glyph unicode="&#x15d;" horiz-adv-x="870" d="M92 723q0 170 102.5 244.5t323.5 74.5q97 0 236 -34v-234q-132 39 -244 39q-76 0 -108.5 -18.5t-32.5 -65.5q0 -36 32 -55.5t101 -30.5q155 -25 220.5 -106.5t65.5 -227.5q0 -91 -29 -156t-85.5 -101.5t-128.5 -53t-168 -16.5q-155 0 -281 32v234q163 -37 244 -37 q82 0 125 18t43 68q0 49 -27 73.5t-102 37.5q-153 27 -220 104t-67 211zM116 1165l250 277h303l252 -277h-301l-103 152l-102 -152h-299z" />
<glyph unicode="&#x15e;" horiz-adv-x="868" d="M51 1036q0 220 122 316t366 96q56 0 132.5 -9.5t121.5 -21.5v-241q-52 12 -136 21t-139 9q-182 0 -182 -147q0 -96 31.5 -131t130.5 -56q79 -16 135.5 -44.5t102 -79t68.5 -131t23 -191.5q0 -99 -18.5 -173.5t-50 -122t-80.5 -78.5t-103 -44.5t-125 -18.5l-20 -126 q89 -10 132.5 -62t43.5 -131q0 -223 -262 -223q-73 0 -156 17v178q71 -11 111 -11q46 0 64 10.5t18 37.5t-36 37t-134 10l43 264q-126 9 -191 26v244q49 -12 131 -22.5t140 -10.5q209 0 209 179q0 106 -42 153t-132 66q-169 35 -243.5 132.5t-74.5 278.5z" />
<glyph unicode="&#x15f;" horiz-adv-x="870" d="M92 723q0 170 102.5 244.5t323.5 74.5q97 0 236 -34v-234q-132 39 -244 39q-76 0 -108.5 -18.5t-32.5 -65.5q0 -36 31.5 -55t101.5 -31q155 -25 220.5 -106.5t65.5 -227.5q0 -154 -81.5 -230.5t-233.5 -92.5l-20 -127q89 -10 132.5 -62t43.5 -131q0 -223 -262 -223 q-78 0 -156 16v179q71 -11 111 -11q46 0 63.5 10t17.5 38q0 27 -36 37t-134 10l43 264q-107 9 -180 28v234q163 -37 244 -37q82 0 125 18t43 68q0 49 -27 73.5t-102 37.5q-153 28 -220 104.5t-67 210.5z" />
<glyph unicode="&#x160;" horiz-adv-x="868" d="M51 1036q0 220 122 316t366 96q56 0 132.5 -9.5t121.5 -21.5v-241q-52 12 -136 21t-139 9q-182 0 -182 -147q0 -96 31.5 -131t130.5 -56q79 -16 135.5 -44.5t102 -79t68.5 -131t23 -191.5q0 -81 -12.5 -145.5t-33.5 -110t-55 -79t-71.5 -53.5t-88.5 -32t-100 -16t-112 -4 q-174 0 -291 30v244q49 -12 131 -22.5t140 -10.5q209 0 209 179q0 106 -42 153t-132 66q-169 35 -243.5 132.5t-74.5 278.5zM76 1731h301l82 -125l82 125h299l-226 -236h-311z" />
<glyph unicode="&#x161;" horiz-adv-x="870" d="M59 1466h301l103 -151l102 151h299l-250 -276h-303zM92 723q0 170 102.5 244.5t323.5 74.5q97 0 236 -34v-234q-132 39 -244 39q-76 0 -108.5 -18.5t-32.5 -65.5q0 -36 32 -55.5t101 -30.5q155 -25 220.5 -106.5t65.5 -227.5q0 -91 -29 -156t-85.5 -101.5t-128.5 -53 t-168 -16.5q-155 0 -281 32v234q163 -37 244 -37q82 0 125 18t43 68q0 49 -27 73.5t-102 37.5q-153 27 -220 104t-67 211z" />
<glyph unicode="&#x162;" horiz-adv-x="911" d="M20 1186v248h871v-248h-295v-1186h-45l-20 -123q89 -10 133 -61.5t44 -130.5q0 -223 -263 -223q-77 0 -155 16v178q65 -10 110 -10q46 0 64 10t18 37t-36 37t-134 10l42 260h-39v1186h-295z" />
<glyph unicode="&#x163;" horiz-adv-x="712" d="M41 788v236h133v246h272v-246h205v-236h-205v-481q0 -49 20 -70.5t66 -21.5q60 0 130 18v-227q-28 -9 -119 -19l-21 -128q89 -10 132.5 -62t43.5 -131q0 -223 -262 -223q-77 0 -155 16v179q71 -11 110 -11q46 0 64 10.5t18 37.5t-36 37t-134 10l44 272q-52 14 -87 45 t-53.5 76t-25.5 93t-7 109v471h-133z" />
<glyph unicode="&#x164;" horiz-adv-x="911" d="M20 1186v248h871v-248h-295v-1186h-281v1186h-295zM53 1853h301l103 -151l102 151h299l-250 -276h-303z" />
<glyph unicode="&#x165;" d="M41 788v236h133v246h272v-246h205v-236h-205v-481q0 -49 20 -70.5t66 -21.5q60 0 130 18v-227q-23 -7 -94 -15.5t-122 -8.5q-67 0 -116 18t-78.5 47.5t-47.5 74.5t-24 90.5t-6 104.5v471h-133zM750 696l81 308v266h308q-1 -7 -1 -78l1 -188l-189 -308h-200z" />
<glyph unicode="&#x166;" horiz-adv-x="911" d="M20 1186v248h871v-248h-295v-363h203v-235h-203v-588h-281v588h-223v235h223v363h-295z" />
<glyph unicode="&#x167;" horiz-adv-x="712" d="M39 440v236h135v112h-133v236h133v246h272v-246h205v-236h-205v-112h197v-236h-197v-133q0 -49 20 -70.5t66 -21.5q60 0 130 18v-227q-23 -7 -94 -15.5t-122 -8.5q-67 0 -116 18t-78.5 47.5t-47.5 74.5t-24 90.5t-6 104.5v123h-135z" />
<glyph unicode="&#x168;" horiz-adv-x="1136" d="M133 440v994h281v-1033q0 -174 155 -174q154 0 154 174v1033h281v-994q0 -126 -28.5 -214t-86 -140.5t-135.5 -76t-185 -23.5t-185 23.5t-135.5 75.5t-86.5 140.5t-29 214.5zM230 1583v213q42 35 96 51.5t101 16.5q50 0 153.5 -40t141.5 -40q101 0 184 74v-213 q-71 -68 -196 -68q-53 0 -153 40t-142 40q-51 0 -100.5 -21t-84.5 -53z" />
<glyph unicode="&#x169;" horiz-adv-x="1060" d="M123 381v643h272v-651q0 -96 27.5 -126t87.5 -30q72 0 108.5 45.5t36.5 108.5v653h273v-1024h-221l-19 80q-101 -98 -244 -98q-95 0 -158 24t-98.5 76.5t-50 123t-14.5 175.5zM187 1167v213q42 35 96.5 51.5t100.5 16.5q50 0 153.5 -40t141.5 -40q101 0 184 74v-213 q-71 -68 -196 -68q-53 0 -153 40t-142 40q-51 0 -100.5 -21t-84.5 -53z" />
<glyph unicode="&#x16a;" horiz-adv-x="1136" d="M133 440v994h281v-1033q0 -174 155 -174q154 0 154 174v1033h281v-994q0 -126 -28.5 -214t-86 -140.5t-135.5 -76t-185 -23.5t-185 23.5t-135.5 75.5t-86.5 140.5t-29 214.5zM266 1577v223h604v-223h-604z" />
<glyph unicode="&#x16b;" horiz-adv-x="1060" d="M123 381v643h272v-651q0 -96 27.5 -126t87.5 -30q72 0 108.5 45.5t36.5 108.5v653h273v-1024h-221l-19 80q-101 -98 -244 -98q-95 0 -158 24t-98.5 76.5t-50 123t-14.5 175.5zM223 1161v223h604v-223h-604z" />
<glyph unicode="&#x16c;" horiz-adv-x="1136" d="M133 440v994h281v-1033q0 -174 155 -174q154 0 154 174v1033h281v-994q0 -126 -28.5 -214t-86 -140.5t-135.5 -76t-185 -23.5t-185 23.5t-135.5 75.5t-86.5 140.5t-29 214.5zM237 1874h239q3 -49 27.5 -77t64.5 -28t65.5 29t26.5 76h240q-2 -47 -21 -95t-55.5 -95 t-104 -77t-155.5 -30q-71 0 -128.5 20.5t-92.5 51.5t-59.5 72t-34.5 78.5t-12 74.5z" />
<glyph unicode="&#x16d;" horiz-adv-x="1060" d="M123 381v643h272v-651q0 -96 27.5 -126t87.5 -30q72 0 108.5 45.5t36.5 108.5v653h273v-1024h-221l-19 80q-101 -98 -244 -98q-95 0 -158 24t-98.5 76.5t-50 123t-14.5 175.5zM194 1458h239q3 -49 27.5 -76.5t64.5 -27.5t65.5 28.5t26.5 75.5h240q-2 -47 -21 -95 t-55.5 -95t-104 -77t-155.5 -30q-71 0 -128.5 20.5t-92.5 51.5t-59.5 72t-34.5 78.5t-12 74.5z" />
<glyph unicode="&#x16e;" horiz-adv-x="1136" d="M133 440v994h281v-1033q0 -174 155 -174q154 0 154 174v1033h281v-994q0 -126 -28.5 -214t-86 -140.5t-135.5 -76t-185 -23.5t-185 23.5t-135.5 75.5t-86.5 140.5t-29 214.5zM331 1827q0 250 237 250q238 0 238 -250t-238 -250q-237 0 -237 250zM511 1829q0 -55 11 -77.5 t46 -22.5q33 0 45.5 23.5t12.5 76.5q0 55 -11.5 77.5t-46.5 22.5t-46 -22.5t-11 -77.5z" />
<glyph unicode="&#x16f;" horiz-adv-x="1060" d="M123 381v643h272v-651q0 -96 27.5 -126t87.5 -30q72 0 108.5 45.5t36.5 108.5v653h273v-1024h-221l-19 80q-101 -98 -244 -98q-95 0 -158 24t-98.5 76.5t-50 123t-14.5 175.5zM288 1411q0 250 237 250q238 0 238 -250t-238 -250q-237 0 -237 250zM468 1413 q0 -55 11 -77.5t46 -22.5q33 0 45.5 23.5t12.5 76.5q0 55 -11.5 77.5t-46.5 22.5t-46 -22.5t-11 -77.5z" />
<glyph unicode="&#x170;" horiz-adv-x="1136" d="M133 440v994h281v-1033q0 -174 155 -174q154 0 154 174v1033h281v-994q0 -126 -28.5 -214t-86 -140.5t-135.5 -76t-185 -23.5t-185 23.5t-135.5 75.5t-86.5 140.5t-29 214.5zM260 1577l211 301h348l-342 -301h-217zM659 1577l211 301h349l-342 -301h-218z" />
<glyph unicode="&#x171;" horiz-adv-x="1060" d="M123 381v643h272v-651q0 -96 27.5 -126t87.5 -30q72 0 108.5 45.5t36.5 108.5v653h273v-1024h-221l-19 80q-101 -98 -244 -98q-95 0 -158 24t-98.5 76.5t-50 123t-14.5 175.5zM217 1161l211 301h348l-342 -301h-217zM616 1161l211 301h349l-342 -301h-218z" />
<glyph unicode="&#x172;" horiz-adv-x="1136" d="M133 440v994h281v-1033q0 -174 155 -174q154 0 154 174v1033h281v-994q0 -217 -85 -323t-255 -126q-37 -59 -60.5 -121.5t-23.5 -99.5q0 -42 20.5 -68t58.5 -26q39 0 125 14v-195q-78 -20 -174 -20q-141 0 -197.5 64t-56.5 198q0 137 102 256q-162 23 -243.5 129 t-81.5 318z" />
<glyph unicode="&#x173;" horiz-adv-x="1060" d="M123 381v643h272v-651q0 -96 27.5 -126t87.5 -30q72 0 108.5 45.5t36.5 108.5v653h273v-1024h-221l-19 80q-101 -98 -244 -98q-95 0 -158 24t-98.5 76.5t-50 123t-14.5 175.5zM578 -267q0 143 110 266h205q-40 -61 -66 -128t-26 -105q0 -41 21 -67.5t59 -26.5 q39 0 125 14v-195q-78 -20 -175 -20q-141 0 -197 64t-56 198z" />
<glyph unicode="&#x174;" horiz-adv-x="1286" d="M92 1434h250l55 -1215l146 610h233l129 -610l58 1215h231l-70 -1434h-395l-86 481l-102 -481h-379zM241 1577l249 276h304l252 -276h-302l-102 152l-102 -152h-299z" />
<glyph unicode="&#x175;" horiz-adv-x="1314" d="M31 1024h272l96 -782l150 598h242l139 -598l98 782h256l-158 -1024h-358l-111 504l-120 -504h-349zM255 1161l250 277h303l252 -277h-301l-103 152l-102 -152h-299z" />
<glyph unicode="&#x176;" horiz-adv-x="1087" d="M20 1434h304l227 -553l227 553h289l-383 -803v-631h-287v631zM141 1577l250 276h303l252 -276h-301l-102 152l-103 -152h-299z" />
<glyph unicode="&#x177;" horiz-adv-x="1009" d="M41 1024h291l198 -797l175 797h264l-262 -1110q-65 -276 -291 -276q-122 0 -185 10v231q49 -6 101 -6q84 0 100 90l6 37h-69zM102 1161l250 277h303l252 -277h-301l-102 152l-103 -152h-299z" />
<glyph unicode="&#x178;" horiz-adv-x="1087" d="M20 1434h304l227 -553l227 553h289l-383 -803v-631h-287v631zM213 1475v235h266v-235h-266zM623 1475v235h266v-235h-266z" />
<glyph unicode="&#x179;" horiz-adv-x="954" d="M72 0v272l512 918h-465v244h764v-273l-510 -917h489v-244h-790zM387 1577l213 276h326l-312 -276h-227z" />
<glyph unicode="&#x17a;" horiz-adv-x="856" d="M61 0v227l424 578h-383v219h693v-246l-422 -559h401v-219h-713zM335 1161l213 277h325l-311 -277h-227z" />
<glyph unicode="&#x17b;" horiz-adv-x="954" d="M72 0v272l512 918h-465v244h764v-273l-510 -917h489v-244h-790zM354 1577v235h293v-235h-293z" />
<glyph unicode="&#x17c;" horiz-adv-x="856" d="M61 0v227l424 578h-383v219h693v-246l-422 -559h401v-219h-713zM302 1161v236h293v-236h-293z" />
<glyph unicode="&#x17d;" horiz-adv-x="954" d="M72 0v272l512 918h-465v244h764v-273l-510 -917h489v-244h-790zM123 1731h301l82 -125l82 125h299l-225 -236h-312z" />
<glyph unicode="&#x17e;" horiz-adv-x="856" d="M61 1466h301l103 -151l102 151h299l-250 -276h-303zM80 0v227l424 578h-383v219h692v-246l-422 -559h402v-219h-713z" />
<glyph unicode="&#x192;" horiz-adv-x="626" d="M-41 -123q53 -6 129 -6q56 0 76 19t20 73v830h-133v231h133v82q0 104 19 172.5t60 106t95.5 52.5t135.5 15q97 0 225 -25v-231q-99 23 -174 23q-48 0 -68 -24.5t-20 -70.5v-100h223v-231h-223v-820q0 -191 -74 -263t-250 -72q-82 0 -174 10v229z" />
<glyph unicode="&#x1a0;" horiz-adv-x="1347" d="M102 733q0 152 12 260.5t43.5 200t85.5 146t138 84.5t201 30q98 0 172 -19.5t127 -61t88 -99t55.5 -141.5t28.5 -179t8 -221q0 -114 -5 -200.5t-18.5 -168t-37 -139t-59.5 -106.5t-86.5 -78t-118 -45t-154.5 -16t-154.5 16t-118 45t-87 77.5t-59.5 106.5t-36.5 139.5 t-19 168t-5.5 200.5zM387 723q0 -208 19 -320.5t60 -157t116 -44.5t115.5 44.5t59.5 156.5t19 321q0 211 -19 320.5t-59 149.5t-116 40t-116 -40t-59.5 -150t-19.5 -320zM1126 881l82 307v266h308v-266l-189 -307h-201z" />
<glyph unicode="&#x1a1;" horiz-adv-x="1380" d="M102 532q0 262 105 384t334 122q230 0 336 -122t106 -384q0 -159 -27.5 -266t-85.5 -168.5t-136.5 -86.5t-192.5 -25t-192 25t-135.5 86.5t-84.5 168t-27 266.5zM381 502q0 -172 33 -233.5t127 -61.5q95 0 129.5 62t34.5 233q0 179 -35.5 247t-128.5 68q-92 0 -126 -67.5 t-34 -247.5zM1049 465l81 307v266h308v-266l-189 -307h-200z" />
<glyph unicode="&#x1af;" horiz-adv-x="1136" d="M133 440v994h281v-1033q0 -174 155 -174q154 0 154 174v1033h281v-994q0 -126 -28.5 -214t-86 -140.5t-135.5 -76t-185 -23.5t-185 23.5t-135.5 75.5t-86.5 140.5t-29 214.5zM1065 881l82 307v266h307v-266l-188 -307h-201z" />
<glyph unicode="&#x1b0;" horiz-adv-x="1060" d="M123 381v643h272v-651q0 -96 27.5 -126t87.5 -30q72 0 108.5 45.5t36.5 108.5v653h273v-1024h-221l-19 80q-101 -98 -244 -98q-95 0 -158 24t-98.5 76.5t-50 123t-14.5 175.5zM989 465l82 307v266h307v-266l-188 -307h-201z" />
<glyph unicode="&#x1cd;" horiz-adv-x="1116" d="M31 0l327 1434h414l313 -1434h-288l-66 334h-342l-65 -334h-293zM163 1853h301l102 -151l103 151h299l-250 -276h-303zM436 575h250l-127 678z" />
<glyph unicode="&#x1ce;" horiz-adv-x="1042" d="M79 1442h301l102 -152l103 152h299l-250 -277h-303zM92 309q0 181 109 261.5t325 80.5h92v43q0 61 -31.5 92t-105.5 31q-154 0 -315 -49v233q57 17 148.5 29t166.5 12q87 0 151.5 -9t109.5 -30t74.5 -49t46 -71.5t22.5 -91.5t6 -115v-406q0 -32 18 -48.5t62 -16.5v-205 h-119q-129 0 -176 84q-83 -102 -270 -102q-314 0 -314 327zM369 324q0 -51 27.5 -82t86.5 -31q40 0 68.5 15t42 39t19 47t5.5 46v93h-102q-147 0 -147 -127z" />
<glyph unicode="&#x1cf;" horiz-adv-x="710" d="M-47 1853h301l102 -151l103 151h299l-250 -276h-303zM72 0v217h143v1000h-143v217h567v-217h-143v-1000h143v-217h-567z" />
<glyph unicode="&#x1d0;" horiz-adv-x="538" d="M-134 1438h301l102 -152l103 152h299l-250 -277h-303zM133 0v1024h273v-1024h-273z" />
<glyph unicode="&#x1d1;" horiz-adv-x="1163" d="M102 733q0 152 12 260.5t43.5 200t85.5 146t138 84.5t201 30q98 0 172 -19.5t127 -61t88 -99t55.5 -141.5t28.5 -179t8 -221q0 -114 -5 -200.5t-18.5 -168t-37 -139t-59.5 -106.5t-86.5 -78t-118 -45t-154.5 -16t-154.5 16t-118 45t-87 77.5t-59.5 106.5t-36.5 139.5 t-19 168t-5.5 200.5zM179 1853h301l103 -151l102 151h299l-250 -276h-303zM387 723q0 -208 19 -320.5t60 -157t116 -44.5t115.5 44.5t59.5 156.5t19 321q0 211 -19 320.5t-59 149.5t-116 40t-116 -40t-59.5 -150t-19.5 -320z" />
<glyph unicode="&#x1d2;" horiz-adv-x="1085" d="M102 532q0 262 105 384t334 122q230 0 336 -122t106 -384q0 -159 -27.5 -266t-85.5 -168.5t-136.5 -86.5t-192.5 -25t-192 25t-135.5 86.5t-84.5 168t-27 266.5zM138 1438h301l103 -152l102 152h299l-250 -277h-303zM381 502q0 -172 33 -233.5t127 -61.5q95 0 129.5 62 t34.5 233q0 179 -35.5 247t-128.5 68q-92 0 -126 -67.5t-34 -247.5z" />
<glyph unicode="&#x1d3;" horiz-adv-x="1136" d="M133 440v994h281v-1033q0 -174 155 -174q154 0 154 174v1033h281v-994q0 -126 -28.5 -214t-86 -140.5t-135.5 -76t-185 -23.5t-185 23.5t-135.5 75.5t-86.5 140.5t-29 214.5zM166 1853h301l102 -151l103 151h299l-250 -276h-303z" />
<glyph unicode="&#x1d4;" horiz-adv-x="1060" d="M123 381v643h272v-651q0 -96 27.5 -126t87.5 -30q72 0 108.5 45.5t36.5 108.5v653h273v-1024h-221l-19 80q-101 -98 -244 -98q-95 0 -158 24t-98.5 76.5t-50 123t-14.5 175.5zM123 1438h301l102 -152l103 152h299l-250 -277h-303z" />
<glyph unicode="&#x1d5;" horiz-adv-x="1136" d="M133 440v994h281v-1033q0 -174 155 -174q154 0 154 174v1033h281v-994q0 -126 -28.5 -214t-86 -140.5t-135.5 -76t-185 -23.5t-185 23.5t-135.5 75.5t-86.5 140.5t-29 214.5zM227 1495v236h267v-236h-267zM263 1853v224h604v-224h-604zM637 1495v236h266v-236h-266z" />
<glyph unicode="&#x1d6;" horiz-adv-x="1060" d="M123 381v643h272v-651q0 -96 27.5 -126t87.5 -30q72 0 108.5 45.5t36.5 108.5v653h273v-1024h-221l-19 80q-101 -98 -244 -98q-95 0 -158 24t-98.5 76.5t-50 123t-14.5 175.5zM188 1147v235h267v-235h-267zM224 1505v224h604v-224h-604zM598 1147v235h266v-235h-266z" />
<glyph unicode="&#x1d7;" horiz-adv-x="1136" d="M133 440v994h281v-1033q0 -174 155 -174q154 0 154 174v1033h281v-994q0 -126 -28.5 -214t-86 -140.5t-135.5 -76t-185 -23.5t-185 23.5t-135.5 75.5t-86.5 140.5t-29 214.5zM227 1495v236h267v-236h-267zM452 1853l213 277h325l-311 -277h-227zM637 1495v236h266v-236 h-266z" />
<glyph unicode="&#x1d8;" horiz-adv-x="1060" d="M123 381v643h272v-651q0 -96 27.5 -126t87.5 -30q72 0 108.5 45.5t36.5 108.5v653h273v-1024h-221l-19 80q-101 -98 -244 -98q-95 0 -158 24t-98.5 76.5t-50 123t-14.5 175.5zM188 1147v235h267v-235h-267zM413 1505l213 277h325l-311 -277h-227zM598 1147v235h266v-235 h-266z" />
<glyph unicode="&#x1d9;" horiz-adv-x="1136" d="M133 440v994h281v-1033q0 -174 155 -174q154 0 154 174v1033h281v-994q0 -126 -28.5 -214t-86 -140.5t-135.5 -76t-185 -23.5t-185 23.5t-135.5 75.5t-86.5 140.5t-29 214.5zM163 2130h301l102 -152l103 152h299l-250 -277h-303zM227 1495v236h267v-236h-267zM637 1495 v236h266v-236h-266z" />
<glyph unicode="&#x1da;" horiz-adv-x="1060" d="M123 381v643h272v-651q0 -96 27.5 -126t87.5 -30q72 0 108.5 45.5t36.5 108.5v653h273v-1024h-221l-19 80q-101 -98 -244 -98q-95 0 -158 24t-98.5 76.5t-50 123t-14.5 175.5zM124 1782h301l102 -152l103 152h299l-250 -277h-303zM188 1147v235h267v-235h-267zM598 1147 v235h266v-235h-266z" />
<glyph unicode="&#x1db;" horiz-adv-x="1136" d="M133 440v994h281v-1033q0 -174 155 -174q154 0 154 174v1033h281v-994q0 -126 -28.5 -214t-86 -140.5t-135.5 -76t-185 -23.5t-185 23.5t-135.5 75.5t-86.5 140.5t-29 214.5zM140 2130h326l213 -277h-227zM227 1495v236h267v-236h-267zM637 1495v236h266v-236h-266z" />
<glyph unicode="&#x1dc;" horiz-adv-x="1060" d="M101 1782h326l213 -277h-227zM123 381v643h272v-651q0 -96 27.5 -126t87.5 -30q72 0 108.5 45.5t36.5 108.5v653h273v-1024h-221l-19 80q-101 -98 -244 -98q-95 0 -158 24t-98.5 76.5t-50 123t-14.5 175.5zM188 1147v235h267v-235h-267zM598 1147v235h266v-235h-266z" />
<glyph unicode="&#x1de;" horiz-adv-x="1116" d="M31 0l327 1434h414l313 -1434h-288l-66 334h-342l-65 -334h-293zM227 1495v236h267v-236h-267zM263 1853v224h604v-224h-604zM436 575h250l-127 678zM637 1495v236h266v-236h-266z" />
<glyph unicode="&#x1df;" horiz-adv-x="1042" d="M92 309q0 181 109 261.5t325 80.5h92v43q0 61 -31.5 92t-105.5 31q-154 0 -315 -49v233q57 17 148.5 29t166.5 12q87 0 151.5 -9t109.5 -30t74.5 -49t46 -71.5t22.5 -91.5t6 -115v-406q0 -32 18 -48.5t62 -16.5v-205h-119q-129 0 -176 84q-83 -102 -270 -102 q-314 0 -314 327zM190 1147v235h267v-235h-267zM226 1505v224h604v-224h-604zM369 324q0 -51 27.5 -82t86.5 -31q40 0 68.5 15t42 39t19 47t5.5 46v93h-102q-147 0 -147 -127zM600 1147v235h266v-235h-266z" />
<glyph unicode="&#x1e2;" horiz-adv-x="1599" d="M31 0l430 1434h995v-222h-547l54 -362h477v-219h-445l62 -410h440v-221h-713l-39 334h-335l-95 -334h-284zM475 575h242l-72 613zM656 1577v223h605v-223h-605z" />
<glyph unicode="&#x1e3;" horiz-adv-x="1517" d="M102 303q0 179 107.5 252.5t327.5 73.5h92v65q0 61 -31.5 92t-105.5 31q-155 0 -316 -49v233q57 17 149 29t167 12q221 0 307 -71q91 71 250 71q114 0 190.5 -29.5t119 -91t60 -142t17.5 -195.5v-156h-533q4 -124 40.5 -168.5t131.5 -44.5q133 0 285 31v-230 q-48 -13 -138 -23.5t-147 -10.5q-137 0 -219.5 26.5t-130.5 100.5q-90 -127 -309 -127q-71 0 -125 15.5t-98 51t-67.5 99.5t-23.5 155zM379 317q0 -106 115 -106q40 0 68.5 15t42 39t19 47t5.5 46v70h-103q-147 0 -147 -111zM468 1165v224h604v-224h-604zM907 629h267v37 q0 151 -130 151q-63 0 -95 -42t-42 -146z" />
<glyph unicode="&#x1e6;" horiz-adv-x="1044" d="M102 739q0 128 11.5 229.5t33 176t56.5 128.5t75.5 88.5t97.5 54.5t116.5 28t136.5 8q97 0 260 -35v-241q-161 30 -281 30q-55 0 -89.5 -11.5t-62 -40.5t-41.5 -85t-21 -137.5t-7 -206.5q0 -208 17.5 -314t55.5 -145t113 -39q59 0 86 2v324h-131v242h404v-777 q-196 -36 -352 -36q-108 0 -183 20.5t-134 70t-93 137t-51 216.5t-17 313zM226 1853h301l103 -151l102 151h299l-250 -276h-303z" />
<glyph unicode="&#x1e7;" horiz-adv-x="1122" d="M92 684q0 76 18 135.5t53 97.5t77 64t99.5 38.5t110 17.5t117.5 5q101 0 178 -24l336 14v-209l-131 8q29 -76 29 -163q0 -181 -114.5 -266t-348.5 -85q-56 0 -121 7q-12 -24 -12 -60q0 -13 4 -33q143 13 242 13q195 0 291 -74.5t96 -255.5q0 -66 -17 -117t-51 -84 t-74.5 -54.5t-97.5 -32.5t-110.5 -15t-122.5 -4q-74 0 -206 12t-192 23v221q202 -35 410 -35q101 0 140.5 21.5t39.5 70.5q0 43 -27 67.5t-98 24.5q-59 0 -184.5 -7.5t-185.5 -14.5q-37 34 -67 95.5t-30 135.5q0 105 54 178q-105 89 -105 285zM165 1442h301l102 -152 l103 152h299l-250 -277h-303zM365 668q0 -133 151 -133q100 0 145.5 30t45.5 119q0 76 -35.5 106.5t-124.5 30.5q-107 0 -144.5 -33.5t-37.5 -119.5z" />
<glyph unicode="&#x1e8;" horiz-adv-x="1120" d="M143 0v1434h281v-496l330 496h315l-428 -623l438 -811h-323l-291 563l-41 -63v-500h-281zM204 1853h301l102 -151l103 151h299l-250 -276h-303z" />
<glyph unicode="&#x1e9;" horiz-adv-x="1013" d="M-133 1833h301l102 -152l103 152h299l-250 -277h-303zM133 0v1434h273v-717l245 307h312l-347 -410l367 -614h-313l-221 424l-43 -55v-369h-273z" />
<glyph unicode="&#x1ea;" horiz-adv-x="1163" d="M102 733q0 152 12 260.5t43.5 200t85.5 146t138 84.5t201 30q98 0 172 -19.5t127 -61t88 -99t55.5 -141.5t28.5 -179t8 -221q0 -147 -9 -252t-33.5 -198t-67.5 -152t-111 -97t-164 -49q-37 -59 -60.5 -121.5t-23.5 -99.5q0 -42 21 -68.5t59 -26.5q32 0 125 15v-195 q-78 -20 -174 -20q-141 0 -197.5 64t-56.5 198q0 139 101 256q-91 13 -156.5 52.5t-106.5 98.5t-64.5 151.5t-32 196t-8.5 247.5zM387 723q0 -208 19 -320.5t60 -157t116 -44.5t115.5 44.5t59.5 156.5t19 321q0 211 -19 320.5t-59 149.5t-116 40t-116 -40t-59.5 -150 t-19.5 -320z" />
<glyph unicode="&#x1eb;" horiz-adv-x="1085" d="M102 532q0 262 105 384t334 122q230 0 336 -122t106 -384q0 -187 -40.5 -303.5t-114.5 -170.5t-193 -67q-37 -59 -60.5 -121.5t-23.5 -99.5q0 -41 21 -67.5t59 -26.5q39 0 125 14v-195q-78 -20 -174 -20q-141 0 -197.5 64t-56.5 198q0 139 101 256q-169 24 -248 146.5 t-79 392.5zM381 502q0 -172 33 -233.5t127 -61.5q95 0 129.5 62t34.5 233q0 179 -35.5 247t-128.5 68q-92 0 -126 -67.5t-34 -247.5z" />
<glyph unicode="&#x1ec;" horiz-adv-x="1163" d="M102 733q0 152 12 260.5t43.5 200t85.5 146t138 84.5t201 30q98 0 172 -19.5t127 -61t88 -99t55.5 -141.5t28.5 -179t8 -221q0 -147 -9 -252t-33.5 -198t-67.5 -152t-111 -97t-164 -49q-37 -59 -60.5 -121.5t-23.5 -99.5q0 -42 21 -68.5t59 -26.5q32 0 125 15v-195 q-78 -20 -174 -20q-141 0 -197.5 64t-56.5 198q0 139 101 256q-91 13 -156.5 52.5t-106.5 98.5t-64.5 151.5t-32 196t-8.5 247.5zM280 1577v223h604v-223h-604zM387 723q0 -208 19 -320.5t60 -157t116 -44.5t115.5 44.5t59.5 156.5t19 321q0 211 -19 320.5t-59 149.5 t-116 40t-116 -40t-59.5 -150t-19.5 -320z" />
<glyph unicode="&#x1ed;" horiz-adv-x="1085" d="M102 532q0 262 105 384t334 122q230 0 336 -122t106 -384q0 -187 -40.5 -303.5t-114.5 -170.5t-193 -67q-37 -59 -60.5 -121.5t-23.5 -99.5q0 -41 21 -67.5t59 -26.5q39 0 125 14v-195q-78 -20 -174 -20q-141 0 -197.5 64t-56.5 198q0 139 101 256q-169 24 -248 146.5 t-79 392.5zM239 1161v223h604v-223h-604zM381 502q0 -172 33 -233.5t127 -61.5q95 0 129.5 62t34.5 233q0 179 -35.5 247t-128.5 68q-92 0 -126 -67.5t-34 -247.5z" />
<glyph unicode="&#x1f0;" horiz-adv-x="538" d="M-134 1438h301l102 -152l103 152h299l-250 -277h-303zM-92 -123q53 -6 129 -6q56 0 76 19t20 73v1061h273v-1051q0 -191 -74 -263t-250 -72q-82 0 -174 10v229z" />
<glyph unicode="&#x1f4;" horiz-adv-x="1044" d="M102 739q0 128 11.5 229.5t33 176t56.5 128.5t75.5 88.5t97.5 54.5t116.5 28t136.5 8q97 0 260 -35v-241q-161 30 -281 30q-55 0 -89.5 -11.5t-62 -40.5t-41.5 -85t-21 -137.5t-7 -206.5q0 -208 17.5 -314t55.5 -145t113 -39q59 0 86 2v324h-131v242h404v-777 q-196 -36 -352 -36q-108 0 -183 20.5t-134 70t-93 137t-51 216.5t-17 313zM515 1577l213 276h326l-312 -276h-227z" />
<glyph unicode="&#x1f5;" horiz-adv-x="1122" d="M92 684q0 76 18 135.5t53 97.5t77 64t99.5 38.5t110 17.5t117.5 5q101 0 178 -24l336 14v-209l-131 8q29 -76 29 -163q0 -181 -114.5 -266t-348.5 -85q-56 0 -121 7q-12 -24 -12 -60q0 -13 4 -33q143 13 242 13q195 0 291 -74.5t96 -255.5q0 -66 -17 -117t-51 -84 t-74.5 -54.5t-97.5 -32.5t-110.5 -15t-122.5 -4q-74 0 -206 12t-192 23v221q202 -35 410 -35q101 0 140.5 21.5t39.5 70.5q0 43 -27 67.5t-98 24.5q-59 0 -184.5 -7.5t-185.5 -14.5q-37 34 -67 95.5t-30 135.5q0 105 54 178q-105 89 -105 285zM365 668q0 -133 151 -133 q100 0 145.5 30t45.5 119q0 76 -35.5 106.5t-124.5 30.5q-107 0 -144.5 -33.5t-37.5 -119.5zM454 1165l213 277h325l-311 -277h-227z" />
<glyph unicode="&#x1f8;" horiz-adv-x="1212" d="M143 0v1434h408l274 -1174v1174h244v-1434h-407l-271 1151v-1151h-248zM181 1853h326l213 -276h-227z" />
<glyph unicode="&#x1f9;" d="M117 1442h325l213 -277h-227zM133 0v1024h221l19 -80q105 98 245 98q84 0 143 -16.5t96 -46.5t57.5 -82.5t28 -112.5t7.5 -149v-635h-272v641q0 97 -27.5 131.5t-87.5 34.5q-73 0 -113.5 -42t-43.5 -101v-664h-273z" />
<glyph unicode="&#x1fa;" horiz-adv-x="1116" d="M31 0l323 1421q-26 53 -26 142q0 249 237 249q238 0 238 -249q0 -82 -29 -142l311 -1421h-288l-66 334h-342l-65 -334h-293zM436 575h250l-127 678zM452 1935l213 277h325l-311 -277h-227zM508 1565q0 -55 11 -78t46 -23q33 0 45.5 24t12.5 77q0 55 -11.5 77.5 t-46.5 22.5t-46 -22.5t-11 -77.5z" />
<glyph unicode="&#x1fb;" horiz-adv-x="1042" d="M92 309q0 181 109 261.5t325 80.5h92v43q0 61 -31.5 92t-105.5 31q-154 0 -315 -49v233q57 17 148.5 29t166.5 12q87 0 151.5 -9t109.5 -30t74.5 -49t46 -71.5t22.5 -91.5t6 -115v-406q0 -32 18 -48.5t62 -16.5v-205h-119q-129 0 -176 84q-83 -102 -270 -102 q-314 0 -314 327zM276 1321q0 250 238 250t238 -250t-238 -250t-238 250zM369 324q0 -51 27.5 -82t86.5 -31q40 0 68.5 15t42 39t19 47t5.5 46v93h-102q-147 0 -147 -127zM400 1694l213 276h326l-311 -276h-228zM457 1323q0 -55 11 -77.5t46 -22.5q33 0 45 23.5t12 76.5 q0 55 -11 77.5t-46 22.5t-46 -22.5t-11 -77.5z" />
<glyph unicode="&#x1fc;" horiz-adv-x="1599" d="M31 0l430 1434h995v-222h-547l54 -362h477v-219h-445l62 -410h440v-221h-713l-39 334h-335l-95 -334h-284zM475 575h242l-72 613zM845 1577l213 276h325l-311 -276h-227z" />
<glyph unicode="&#x1fd;" horiz-adv-x="1517" d="M102 303q0 179 107.5 252.5t327.5 73.5h92v65q0 61 -31.5 92t-105.5 31q-155 0 -316 -49v233q57 17 149 29t167 12q221 0 307 -71q91 71 250 71q114 0 190.5 -29.5t119 -91t60 -142t17.5 -195.5v-156h-533q4 -124 40.5 -168.5t131.5 -44.5q133 0 285 31v-230 q-48 -13 -138 -23.5t-147 -10.5q-137 0 -219.5 26.5t-130.5 100.5q-90 -127 -309 -127q-71 0 -125 15.5t-98 51t-67.5 99.5t-23.5 155zM379 317q0 -106 115 -106q40 0 68.5 15t42 39t19 47t5.5 46v70h-103q-147 0 -147 -111zM656 1165l213 277h326l-311 -277h-228zM907 629 h267v37q0 151 -130 151q-63 0 -95 -42t-42 -146z" />
<glyph unicode="&#x1fe;" horiz-adv-x="1122" d="M113 733q0 126 8 221t28.5 179t55.5 141.5t88 99t127 61t172 19.5q57 0 119 -10l57 176h205l-80 -248q100 -78 139 -231.5t39 -407.5q0 -114 -5 -200.5t-18.5 -168t-37 -139t-59.5 -106.5t-86.5 -78t-118 -45t-154.5 -16q-68 0 -143 14l-58 -180h-205l84 262 q-91 83 -124 238.5t-33 418.5zM397 723q0 -137 9 -231l235 735q-24 6 -49 6q-76 0 -116 -40t-59.5 -150t-19.5 -320zM478 1743l213 276h326l-311 -276h-228zM520 213q24 -12 72 -12q75 0 115.5 44.5t59.5 156.5t19 321q0 170 -12 278z" />
<glyph unicode="&#x1ff;" horiz-adv-x="1085" d="M102 532q0 262 105 384t334 122q62 0 106 -8l68 176h192l-90 -237q166 -112 166 -437q0 -159 -27.5 -266t-85.5 -168.5t-136.5 -86.5t-192.5 -25q-55 0 -101 6l-65 -174h-195l88 231q-84 55 -125 171t-41 312zM381 502q0 -86 6 -144l176 457q-6 2 -22 2q-92 0 -126 -67.5 t-34 -247.5zM429 1329l213 277h326l-312 -277h-227zM524 207h17q95 0 129.5 62t34.5 233q0 90 -9 151z" />
<glyph unicode="&#x202;" horiz-adv-x="1116" d="M31 0l327 1434h414l313 -1434h-288l-66 334h-342l-65 -334h-293zM233 1577q2 37 12.5 74.5t34.5 78.5t59.5 72t93 51.5t128.5 20.5q88 0 155.5 -30t104 -77t55.5 -95t21 -95h-240q-1 47 -26.5 75.5t-65.5 28.5t-64.5 -27.5t-27.5 -76.5h-240zM436 575h250l-127 678z" />
<glyph unicode="&#x203;" horiz-adv-x="1042" d="M92 309q0 181 109 261.5t325 80.5h92v43q0 61 -31.5 92t-105.5 31q-154 0 -315 -49v233q57 17 148.5 29t166.5 12q87 0 151.5 -9t109.5 -30t74.5 -49t46 -71.5t22.5 -91.5t6 -115v-406q0 -32 18 -48.5t62 -16.5v-205h-119q-129 0 -176 84q-83 -102 -270 -102 q-314 0 -314 327zM150 1165q2 37 12 74.5t34.5 78.5t59.5 72t92.5 51.5t128.5 20.5q88 0 155.5 -30t104 -77t55.5 -95t21 -95h-240q-1 47 -26.5 76t-65.5 29t-64.5 -28t-27.5 -77h-239zM369 324q0 -51 27.5 -82t86.5 -31q40 0 68.5 15t42 39t19 47t5.5 46v93h-102 q-147 0 -147 -127z" />
<glyph unicode="&#x206;" horiz-adv-x="978" d="M143 0v1434h734v-222h-453v-362h401v-219h-401v-410h453v-221h-734zM178 1577q2 37 12.5 74.5t34.5 78.5t59.5 72t93 51.5t128.5 20.5q88 0 155.5 -30t104 -77t55.5 -95t21 -95h-240q-1 47 -26.5 75.5t-65.5 28.5t-64.5 -27.5t-27.5 -76.5h-240z" />
<glyph unicode="&#x207;" horiz-adv-x="1001" d="M102 512q0 277 106.5 403.5t313.5 126.5q114 0 190.5 -29.5t119 -91t60 -142t17.5 -195.5v-172h-530q6 -114 42 -155.5t128 -41.5q133 0 285 31v-230q-48 -13 -138 -23.5t-147 -10.5q-68 0 -118.5 5.5t-99.5 20t-83 39.5t-63 64.5t-46.5 95.5t-27 132t-9.5 173zM190 1165 q2 37 12.5 74.5t34.5 78.5t59.5 72t93 51.5t128.5 20.5q88 0 155.5 -30t104 -77t55.5 -95t21 -95h-240q-1 47 -26.5 76t-65.5 29t-64.5 -28t-27.5 -77h-240zM381 612h266v54q0 76 -31 113.5t-98 37.5q-65 0 -96.5 -45.5t-40.5 -159.5z" />
<glyph unicode="&#x20a;" horiz-adv-x="710" d="M24 1577q2 37 12 74.5t34.5 78.5t59.5 72t92.5 51.5t128.5 20.5q88 0 155.5 -30t104 -77t55.5 -95t21 -95h-240q-1 47 -26.5 75.5t-65.5 28.5t-64.5 -27.5t-27.5 -76.5h-239zM72 0v217h143v1000h-143v217h567v-217h-143v-1000h143v-217h-567z" />
<glyph unicode="&#x20b;" horiz-adv-x="538" d="M-63 1161q2 37 12 74.5t34.5 78.5t59.5 72t92.5 51.5t128.5 20.5q88 0 155.5 -30t104 -77t55.5 -95t21 -95h-240q-1 47 -26.5 76t-65.5 29t-64.5 -28t-27.5 -77h-239zM133 0v1024h273v-1024h-273z" />
<glyph unicode="&#x20e;" horiz-adv-x="1163" d="M102 733q0 152 12 260.5t43.5 200t85.5 146t138 84.5t201 30q98 0 172 -19.5t127 -61t88 -99t55.5 -141.5t28.5 -179t8 -221q0 -114 -5 -200.5t-18.5 -168t-37 -139t-59.5 -106.5t-86.5 -78t-118 -45t-154.5 -16t-154.5 16t-118 45t-87 77.5t-59.5 106.5t-36.5 139.5 t-19 168t-5.5 200.5zM250 1577q2 37 12.5 74.5t34.5 78.5t59.5 72t93 51.5t128.5 20.5t129 -20.5t94.5 -51.5t62 -72t36.5 -78.5t13 -74.5h-239q-1 47 -26.5 75.5t-65.5 28.5t-65 -27.5t-28 -76.5h-239zM387 723q0 -208 19 -320.5t60 -157t116 -44.5t115.5 44.5t59.5 156.5 t19 321q0 211 -19 320.5t-59 149.5t-116 40t-116 -40t-59.5 -150t-19.5 -320z" />
<glyph unicode="&#x20f;" horiz-adv-x="1085" d="M102 532q0 262 105 384t334 122q230 0 336 -122t106 -384q0 -159 -27.5 -266t-85.5 -168.5t-136.5 -86.5t-192.5 -25t-192 25t-135.5 86.5t-84.5 168t-27 266.5zM209 1161q2 37 12.5 74.5t34.5 78.5t59.5 72t93 51.5t128.5 20.5t129 -20.5t94.5 -51.5t62 -72t36.5 -78.5 t13 -74.5h-239q-1 47 -26.5 76t-65.5 29t-64.5 -28t-27.5 -77h-240zM381 502q0 -172 33 -233.5t127 -61.5q95 0 129.5 62t34.5 233q0 179 -35.5 247t-128.5 68q-92 0 -126 -67.5t-34 -247.5z" />
<glyph unicode="&#x212;" horiz-adv-x="1091" d="M143 0v1434q207 20 377 20q132 0 221 -27.5t141.5 -86.5t74.5 -140.5t22 -200.5q0 -313 -195 -411l256 -588h-317l-217 541h-82v-541h-281zM188 1577q2 37 12.5 74.5t34.5 78.5t59.5 72t93 51.5t128.5 20.5q88 0 155.5 -30t104 -77t55.5 -95t21 -95h-240 q-1 47 -26.5 75.5t-65.5 28.5t-64.5 -27.5t-27.5 -76.5h-240zM424 782h129q65 0 103 52.5t38 150.5q0 124 -30 173.5t-115 49.5q-27 0 -58.5 -3t-48.5 -6l-18 -3v-414z" />
<glyph unicode="&#x213;" horiz-adv-x="722" d="M76 1165q2 37 12 74.5t34.5 78.5t59.5 72t92.5 51.5t128.5 20.5q88 0 155.5 -30t104 -77t55.5 -95t21 -95h-239q-1 47 -26.5 76t-65.5 29t-65 -28t-28 -77h-239zM133 0v1024h221l21 -92q92 110 213 110q46 0 94 -10v-270q-53 12 -102 12q-48 0 -83.5 -25.5t-54.5 -69.5 t-27.5 -94t-8.5 -108v-477h-273z" />
<glyph unicode="&#x216;" horiz-adv-x="1136" d="M133 440v994h281v-1033q0 -174 155 -174q154 0 154 174v1033h281v-994q0 -126 -28.5 -214t-86 -140.5t-135.5 -76t-185 -23.5t-185 23.5t-135.5 75.5t-86.5 140.5t-29 214.5zM237 1577q2 37 12 74.5t34.5 78.5t59.5 72t92.5 51.5t128.5 20.5q88 0 155.5 -30t104 -77 t55.5 -95t21 -95h-240q-1 47 -26.5 75.5t-65.5 28.5t-64.5 -27.5t-27.5 -76.5h-239z" />
<glyph unicode="&#x217;" horiz-adv-x="1060" d="M123 381v643h272v-651q0 -96 27.5 -126t87.5 -30q72 0 108.5 45.5t36.5 108.5v653h273v-1024h-221l-19 80q-101 -98 -244 -98q-95 0 -158 24t-98.5 76.5t-50 123t-14.5 175.5zM194 1161q2 37 12 74.5t34.5 78.5t59.5 72t92.5 51.5t128.5 20.5q88 0 155.5 -30t104 -77 t55.5 -95t21 -95h-240q-1 47 -26.5 76t-65.5 29t-64.5 -28t-27.5 -77h-239z" />
<glyph unicode="&#x218;" horiz-adv-x="868" d="M51 1036q0 220 122 316t366 96q56 0 132.5 -9.5t121.5 -21.5v-241q-52 12 -136 21t-139 9q-182 0 -182 -147q0 -96 31.5 -131t130.5 -56q79 -16 135.5 -44.5t102 -79t68.5 -131t23 -191.5q0 -140 -37 -231.5t-97.5 -134t-151.5 -60.5h8v-266l-189 -307h-200l82 307v256 q-115 9 -179 26v244q49 -12 131 -22.5t140 -10.5q209 0 209 179q0 106 -42 153t-132 66q-169 35 -243.5 132.5t-74.5 278.5z" />
<glyph unicode="&#x219;" horiz-adv-x="870" d="M92 723q0 170 102.5 244.5t323.5 74.5q97 0 236 -34v-234q-132 39 -244 39q-76 0 -108.5 -18.5t-32.5 -65.5q0 -36 31.5 -55t101.5 -31q155 -25 220.5 -106.5t65.5 -227.5q0 -252 -234 -309h7v-266l-188 -307h-201l82 307v254q-101 11 -158 26v234q163 -37 244 -37 q82 0 125 18t43 68q0 49 -27 73.5t-102 37.5q-153 28 -220 104.5t-67 210.5z" />
<glyph unicode="&#x21a;" horiz-adv-x="911" d="M20 1186v248h871v-248h-295v-1186v-266l-188 -307h-201l82 307v266h26v1186h-295z" />
<glyph unicode="&#x21b;" horiz-adv-x="712" d="M41 788v236h133v246h272v-246h205v-236h-205v-481q0 -49 20 -70.5t66 -21.5q60 0 130 18v-227q-22 -6 -68 -12v-232l-188 -307h-201l82 307v258q-64 40 -88.5 115t-24.5 182v471h-133z" />
<glyph unicode="&#x21e;" horiz-adv-x="1167" d="M143 0v1434h281v-592h319v592h281v-1434h-281v608h-319v-608h-281zM181 1853h301l103 -151l102 151h299l-250 -276h-303z" />
<glyph unicode="&#x21f;" d="M133 0v1434h273v-461q91 69 212 69q84 0 143 -16.5t96 -46.5t57.5 -82.5t28 -112.5t7.5 -149v-635h-272v641q0 97 -27.5 131.5t-87.5 34.5q-73 0 -113.5 -42t-43.5 -101v-664h-273zM139 1833h301l103 -152l102 152h299l-250 -277h-303z" />
<glyph unicode="&#x226;" horiz-adv-x="1116" d="M31 0l327 1434h414l313 -1434h-288l-66 334h-342l-65 -334h-293zM419 1577v235h293v-235h-293zM436 575h250l-127 678z" />
<glyph unicode="&#x227;" horiz-adv-x="1042" d="M92 309q0 181 109 261.5t325 80.5h92v43q0 61 -31.5 92t-105.5 31q-154 0 -315 -49v233q57 17 148.5 29t166.5 12q87 0 151.5 -9t109.5 -30t74.5 -49t46 -71.5t22.5 -91.5t6 -115v-406q0 -32 18 -48.5t62 -16.5v-205h-119q-129 0 -176 84q-83 -102 -270 -102 q-314 0 -314 327zM335 1165v236h293v-236h-293zM369 324q0 -51 27.5 -82t86.5 -31q40 0 68.5 15t42 39t19 47t5.5 46v93h-102q-147 0 -147 -127z" />
<glyph unicode="&#x228;" horiz-adv-x="978" d="M143 0v1434h734v-222h-453v-362h401v-219h-401v-410h453v-221h-272l-19 -123q89 -10 132.5 -61.5t43.5 -130.5q0 -223 -262 -223q-78 0 -156 16v178q65 -10 111 -10t64 10t18 37t-36 37t-134 10l42 260h-266z" />
<glyph unicode="&#x229;" horiz-adv-x="1001" d="M102 512q0 277 106.5 403.5t313.5 126.5q114 0 190.5 -29.5t119 -91t60 -142t17.5 -195.5v-172h-530q6 -114 42 -155.5t128 -41.5q133 0 285 31v-230q-65 -18 -189 -29l-20 -128q89 -10 132.5 -62t43.5 -131q0 -223 -262 -223q-78 0 -156 16v179q71 -11 111 -11 q46 0 63.5 10t17.5 38q0 27 -35.5 37t-133.5 10l42 263q-91 8 -152 34.5t-106.5 85t-66.5 158.5t-21 249zM381 612h266v54q0 76 -31 113.5t-98 37.5q-65 0 -96.5 -45.5t-40.5 -159.5z" />
<glyph unicode="&#x22a;" horiz-adv-x="1163" d="M102 733q0 152 12 260.5t43.5 200t85.5 146t138 84.5t201 30q98 0 172 -19.5t127 -61t88 -99t55.5 -141.5t28.5 -179t8 -221q0 -114 -5 -200.5t-18.5 -168t-37 -139t-59.5 -106.5t-86.5 -78t-118 -45t-154.5 -16t-154.5 16t-118 45t-87 77.5t-59.5 106.5t-36.5 139.5 t-19 168t-5.5 200.5zM244 1495v236h266v-236h-266zM280 1853v224h604v-224h-604zM387 723q0 -208 19 -320.5t60 -157t116 -44.5t115.5 44.5t59.5 156.5t19 321q0 211 -19 320.5t-59 149.5t-116 40t-116 -40t-59.5 -150t-19.5 -320zM653 1495v236h267v-236h-267z" />
<glyph unicode="&#x22b;" horiz-adv-x="1085" d="M102 532q0 262 105 384t334 122q230 0 336 -122t106 -384q0 -159 -27.5 -266t-85.5 -168.5t-136.5 -86.5t-192.5 -25t-192 25t-135.5 86.5t-84.5 168t-27 266.5zM211 1147v235h266v-235h-266zM247 1505v224h604v-224h-604zM381 502q0 -172 33 -233.5t127 -61.5 q95 0 129.5 62t34.5 233q0 179 -35.5 247t-128.5 68q-92 0 -126 -67.5t-34 -247.5zM621 1147v235h266v-235h-266z" />
<glyph unicode="&#x22c;" horiz-adv-x="1163" d="M102 733q0 152 12 260.5t43.5 200t85.5 146t138 84.5t201 30q98 0 172 -19.5t127 -61t88 -99t55.5 -141.5t28.5 -179t8 -221q0 -114 -5 -200.5t-18.5 -168t-37 -139t-59.5 -106.5t-86.5 -78t-118 -45t-154.5 -16t-154.5 16t-118 45t-87 77.5t-59.5 106.5t-36.5 139.5 t-19 168t-5.5 200.5zM136 1884v223h604v-223h-604zM242 1481v213q80 67 196 67q50 0 153.5 -40t141.5 -40q102 0 185 74v-213q-70 -67 -197 -67q-53 0 -153 39.5t-142 39.5q-51 0 -100 -20.5t-84 -52.5zM387 723q0 -208 19 -320.5t60 -157t116 -44.5t115.5 44.5t59.5 156.5 t19 321q0 211 -19 320.5t-59 149.5t-116 40t-116 -40t-59.5 -150t-19.5 -320z" />
<glyph unicode="&#x22d;" horiz-adv-x="1085" d="M99 1597v224h604v-224h-604zM102 532q0 262 105 384t334 122q230 0 336 -122t106 -384q0 -159 -27.5 -266t-85.5 -168.5t-136.5 -86.5t-192.5 -25t-192 25t-135.5 86.5t-84.5 168t-27 266.5zM205 1194v213q42 35 96 51.5t100 16.5q50 0 153.5 -40t141.5 -40q103 0 185 73 v-213q-70 -67 -197 -67q-53 0 -153 40t-142 40q-102 0 -184 -74zM381 502q0 -172 33 -233.5t127 -61.5q95 0 129.5 62t34.5 233q0 179 -35.5 247t-128.5 68q-92 0 -126 -67.5t-34 -247.5z" />
<glyph unicode="&#x22e;" horiz-adv-x="1163" d="M102 733q0 152 12 260.5t43.5 200t85.5 146t138 84.5t201 30q98 0 172 -19.5t127 -61t88 -99t55.5 -141.5t28.5 -179t8 -221q0 -114 -5 -200.5t-18.5 -168t-37 -139t-59.5 -106.5t-86.5 -78t-118 -45t-154.5 -16t-154.5 16t-118 45t-87 77.5t-59.5 106.5t-36.5 139.5 t-19 168t-5.5 200.5zM387 723q0 -208 19 -320.5t60 -157t116 -44.5t115.5 44.5t59.5 156.5t19 321q0 211 -19 320.5t-59 149.5t-116 40t-116 -40t-59.5 -150t-19.5 -320zM435 1577v235h293v-235h-293z" />
<glyph unicode="&#x22f;" horiz-adv-x="1085" d="M102 532q0 262 105 384t334 122q230 0 336 -122t106 -384q0 -159 -27.5 -266t-85.5 -168.5t-136.5 -86.5t-192.5 -25t-192 25t-135.5 86.5t-84.5 168t-27 266.5zM381 502q0 -172 33 -233.5t127 -61.5q95 0 129.5 62t34.5 233q0 179 -35.5 247t-128.5 68q-92 0 -126 -67.5 t-34 -247.5zM394 1161v236h293v-236h-293z" />
<glyph unicode="&#x230;" horiz-adv-x="1163" d="M102 733q0 152 12 260.5t43.5 200t85.5 146t138 84.5t201 30q98 0 172 -19.5t127 -61t88 -99t55.5 -141.5t28.5 -179t8 -221q0 -114 -5 -200.5t-18.5 -168t-37 -139t-59.5 -106.5t-86.5 -78t-118 -45t-154.5 -16t-154.5 16t-118 45t-87 77.5t-59.5 106.5t-36.5 139.5 t-19 168t-5.5 200.5zM280 1935v224h604v-224h-604zM387 723q0 -208 19 -320.5t60 -157t116 -44.5t115.5 44.5t59.5 156.5t19 321q0 211 -19 320.5t-59 149.5t-116 40t-116 -40t-59.5 -150t-19.5 -320zM435 1577v235h293v-235h-293z" />
<glyph unicode="&#x231;" horiz-adv-x="1085" d="M102 532q0 262 105 384t334 122q230 0 336 -122t106 -384q0 -159 -27.5 -266t-85.5 -168.5t-136.5 -86.5t-192.5 -25t-192 25t-135.5 86.5t-84.5 168t-27 266.5zM239 1520v223h604v-223h-604zM381 502q0 -172 33 -233.5t127 -61.5q95 0 129.5 62t34.5 233 q0 179 -35.5 247t-128.5 68q-92 0 -126 -67.5t-34 -247.5zM394 1161v236h293v-236h-293z" />
<glyph unicode="&#x232;" horiz-adv-x="1087" d="M20 1434h304l227 -553l227 553h289l-383 -803v-631h-287v631zM242 1577v223h604v-223h-604z" />
<glyph unicode="&#x233;" horiz-adv-x="1009" d="M41 1024h291l198 -797l175 797h264l-262 -1110q-65 -276 -291 -276q-122 0 -185 10v231q49 -6 101 -6q84 0 100 90l6 37h-69zM203 1161v223h604v-223h-604z" />
<glyph unicode="&#x237;" horiz-adv-x="538" d="M-92 -123q53 -6 129 -6q56 0 76 19t20 73v1061h273v-1051q0 -191 -74 -263t-250 -72q-82 0 -174 10v229z" />
<glyph unicode="&#x2c6;" horiz-adv-x="886" d="M41 1188l250 276h303l252 -276h-301l-103 151l-102 -151h-299z" />
<glyph unicode="&#x2c7;" horiz-adv-x="886" d="M41 1466h301l102 -151l103 151h299l-250 -276h-303z" />
<glyph unicode="&#x2c9;" horiz-adv-x="706" d="M51 1210v224h604v-224h-604z" />
<glyph unicode="&#x2d8;" horiz-adv-x="765" d="M51 1466h240q3 -49 27.5 -76.5t64.5 -27.5t65.5 28.5t26.5 75.5h240q-2 -47 -21 -95t-55.5 -95t-104 -77t-155.5 -30q-71 0 -128.5 20.5t-93 51.5t-59.5 72t-34.5 78.5t-12.5 74.5z" />
<glyph unicode="&#x2d9;" horiz-adv-x="395" d="M51 1198v236h293v-236h-293z" />
<glyph unicode="&#x2da;" horiz-adv-x="577" d="M51 1321q0 250 238 250q237 0 237 -250t-237 -250q-238 0 -238 250zM231 1323q0 -55 11.5 -77.5t46.5 -22.5q33 0 45 23.5t12 76.5q0 55 -11 77.5t-46 22.5t-46.5 -22.5t-11.5 -77.5z" />
<glyph unicode="&#x2db;" horiz-adv-x="692" d="M133 -143q0 142 111 266h205q-40 -61 -66.5 -128.5t-26.5 -105.5q0 -41 21 -67.5t59 -26.5q33 0 125 15v-195q-82 -21 -174 -21q-141 0 -197.5 64.5t-56.5 198.5z" />
<glyph unicode="&#x2dc;" horiz-adv-x="778" d="M51 1194v213q42 35 96.5 51.5t100.5 16.5q50 0 153.5 -40t141.5 -40q102 0 184 73v-213q-70 -67 -197 -67q-53 0 -152.5 40t-141.5 40q-51 0 -100.5 -21t-84.5 -53z" />
<glyph unicode="&#x2dd;" horiz-adv-x="1060" d="M51 1225l211 301h348l-342 -301h-217zM451 1225l211 301h348l-342 -301h-217z" />
<glyph unicode="&#x3bc;" horiz-adv-x="1071" d="M133 -348v1372h273v-651q0 -96 27 -126t87 -30q72 0 109 46t37 108v653h272v-1024h-221l-19 80q-101 -98 -243 -98q-9 0 -26 1t-23 1v-332h-273z" />
<glyph unicode="&#x3c0;" horiz-adv-x="1196" d="M72 791v233h1052v-233h-184v-490q0 -42 14.5 -59t53.5 -17q15 0 55 8v-227q-74 -12 -160 -12q-127 0 -181 73.5t-54 223.5v500h-162v-791h-273v791h-161z" />
<glyph unicode="&#x1e00;" horiz-adv-x="1116" d="M31 0l327 1434h414l313 -1434h-288l-66 334h-342l-65 -334h-293zM321 -373q0 250 237 250q238 0 238 -250t-238 -250q-237 0 -237 250zM436 575h250l-127 678zM501 -371q0 -55 11 -77.5t46 -22.5q33 0 45 23.5t12 76.5q0 55 -11 78t-46 23t-46 -23t-11 -78z" />
<glyph unicode="&#x1e01;" horiz-adv-x="1042" d="M92 309q0 181 109 261.5t325 80.5h92v43q0 61 -31.5 92t-105.5 31q-154 0 -315 -49v233q57 17 148.5 29t166.5 12q87 0 151.5 -9t109.5 -30t74.5 -49t46 -71.5t22.5 -91.5t6 -115v-406q0 -32 18 -48.5t62 -16.5v-205h-119q-129 0 -176 84q-83 -102 -270 -102 q-314 0 -314 327zM168 -391q0 250 238 250q237 0 237 -250t-237 -250q-238 0 -238 250zM348 -389q0 -55 11.5 -77.5t46.5 -22.5q33 0 45 23.5t12 76.5q0 55 -11 77.5t-46 22.5t-46.5 -22.5t-11.5 -77.5zM369 324q0 -51 27.5 -82t86.5 -31q40 0 68.5 15t42 39t19 47t5.5 46 v93h-102q-147 0 -147 -127z" />
<glyph unicode="&#x1e02;" horiz-adv-x="1120" d="M143 0v1434q238 18 373 18q248 0 350.5 -90.5t102.5 -298.5q0 -239 -183 -291q92 -10 157 -94t65 -238q0 -111 -23.5 -193.5t-62.5 -132.5t-99.5 -80t-125 -41t-148.5 -11q-76 0 -177.5 4.5t-165.5 9.5zM424 233q71 -6 147 -6q81 0 116.5 54t35.5 157q0 108 -49 154.5 t-127 46.5h-123v-406zM424 868h108q86 0 123 41t37 135q0 77 -35 120.5t-96 43.5q-30 0 -64.5 -2t-53.5 -4l-19 -2v-332zM429 1577v235h293v-235h-293z" />
<glyph unicode="&#x1e03;" horiz-adv-x="1058" d="M133 10v1424h273v-463q94 71 217 71q116 0 187 -42t108.5 -145t37.5 -277q0 -227 -47 -355.5t-151 -184.5t-287 -56q-125 0 -338 28zM398 1556v236h293v-236h-293zM406 219q58 -4 83 -4q60 0 94.5 13t57.5 52.5t31 103.5t8 173q0 104 -13 158t-39.5 74t-76.5 20 q-64 0 -104.5 -47.5t-40.5 -106.5v-436z" />
<glyph unicode="&#x1e04;" horiz-adv-x="1120" d="M143 0v1434q238 18 373 18q248 0 350.5 -90.5t102.5 -298.5q0 -239 -183 -291q92 -10 157 -94t65 -238q0 -111 -23.5 -193.5t-62.5 -132.5t-99.5 -80t-125 -41t-148.5 -11q-76 0 -177.5 4.5t-165.5 9.5zM402 -141h293v-236h-293v236zM424 233q71 -6 147 -6q81 0 116.5 54 t35.5 157q0 108 -49 154.5t-127 46.5h-123v-406zM424 868h108q86 0 123 41t37 135q0 77 -35 120.5t-96 43.5q-30 0 -64.5 -2t-53.5 -4l-19 -2v-332z" />
<glyph unicode="&#x1e05;" horiz-adv-x="1058" d="M133 10v1424h273v-463q94 71 217 71q116 0 187 -42t108.5 -145t37.5 -277q0 -227 -47 -355.5t-151 -184.5t-287 -56q-125 0 -338 28zM325 -141h292v-236h-292v236zM406 219q58 -4 83 -4q60 0 94.5 13t57.5 52.5t31 103.5t8 173q0 104 -13 158t-39.5 74t-76.5 20 q-64 0 -104.5 -47.5t-40.5 -106.5v-436z" />
<glyph unicode="&#x1e06;" horiz-adv-x="1120" d="M143 0v1434q238 18 373 18q248 0 350.5 -90.5t102.5 -298.5q0 -239 -183 -291q92 -10 157 -94t65 -238q0 -111 -23.5 -193.5t-62.5 -132.5t-99.5 -80t-125 -41t-148.5 -11q-76 0 -177.5 4.5t-165.5 9.5zM247 -141h604v-224h-604v224zM424 233q71 -6 147 -6q81 0 116.5 54 t35.5 157q0 108 -49 154.5t-127 46.5h-123v-406zM424 868h108q86 0 123 41t37 135q0 77 -35 120.5t-96 43.5q-30 0 -64.5 -2t-53.5 -4l-19 -2v-332z" />
<glyph unicode="&#x1e07;" horiz-adv-x="1058" d="M133 10v1424h273v-463q94 71 217 71q116 0 187 -42t108.5 -145t37.5 -277q0 -227 -47 -355.5t-151 -184.5t-287 -56q-125 0 -338 28zM169 -141h604v-224h-604v224zM406 219q58 -4 83 -4q60 0 94.5 13t57.5 52.5t31 103.5t8 173q0 104 -13 158t-39.5 74t-76.5 20 q-64 0 -104.5 -47.5t-40.5 -106.5v-436z" />
<glyph unicode="&#x1e08;" horiz-adv-x="886" d="M102 739q0 132 10.5 235t29.5 178t51.5 127.5t69 85.5t89.5 51.5t106.5 25t125.5 6.5q40 0 118.5 -10.5t102.5 -18.5v-248q-132 31 -248 31q-49 0 -77.5 -15t-51.5 -64t-32 -144.5t-9 -253.5q0 -211 17.5 -317.5t51.5 -141.5t101 -35q116 0 248 31v-246q-47 -13 -189 -26 l-4 -29q89 -10 132.5 -61.5t43.5 -130.5q0 -224 -262 -224q-72 0 -155 17v178q65 -10 110 -10q46 0 64 10t18 37t-36 37t-134 10l27 174q-84 16 -141.5 59.5t-98.5 129.5t-59.5 221t-18.5 331zM470 1577l213 276h326l-312 -276h-227z" />
<glyph unicode="&#x1e09;" horiz-adv-x="833" d="M102 532q0 268 104.5 389t311.5 121q116 0 234 -28v-240q-10 2 -34.5 7.5t-34.5 7.5t-31 5.5t-36 5t-38 2.5t-48 1q-30 0 -51.5 -7.5t-40.5 -27.5t-30.5 -54.5t-18 -89.5t-6.5 -132q0 -149 34.5 -210t108.5 -61q47 0 84.5 4t87 14t54.5 11v-238q-91 -22 -177 -28l-4 -23 q89 -10 133 -61.5t44 -130.5q0 -224 -263 -224q-72 0 -155 17v178q65 -10 110 -10q46 0 64 10t18 37t-36 37t-134 10l27 168q-95 17 -153 69.5t-91 168t-33 302.5zM404 1165l213 277h326l-311 -277h-228z" />
<glyph unicode="&#x1e0a;" horiz-adv-x="1118" d="M143 0v1434q248 20 363 20q88 0 153 -11t125.5 -40t101 -80.5t71 -129.5t45 -191t14.5 -263q0 -181 -20.5 -313t-58.5 -218t-99.5 -136.5t-134.5 -71t-173 -20.5q-64 0 -161 5t-161 10zM424 236q39 -9 125 -9q66 0 104.5 42t58 151.5t19.5 304.5q0 131 -7.5 219 t-20 140.5t-36.5 79t-49.5 34.5t-66.5 8q-34 0 -65.5 -2t-46.5 -4l-15 -2v-962zM433 1577v235h293v-235h-293z" />
<glyph unicode="&#x1e0b;" d="M102 485q0 209 52.5 331.5t157.5 174t282 51.5q14 0 38.5 -1t35.5 -1v394h272v-1434h-221l-21 84q-110 -102 -256 -102q-89 0 -150 23t-105 80t-64.5 155t-20.5 245zM375 1556v236h293v-236h-293zM379 467q0 -103 14.5 -158t42 -74.5t78.5 -19.5q65 0 109.5 48t44.5 106 v434l-93 6q-75 0 -115.5 -26.5t-60.5 -100.5t-20 -215z" />
<glyph unicode="&#x1e0c;" horiz-adv-x="1118" d="M143 0v1434q248 20 363 20q88 0 153 -11t125.5 -40t101 -80.5t71 -129.5t45 -191t14.5 -263q0 -181 -20.5 -313t-58.5 -218t-99.5 -136.5t-134.5 -71t-173 -20.5q-64 0 -161 5t-161 10zM384 -143h293v-236h-293v236zM424 236q39 -9 125 -9q66 0 104.5 42t58 151.5 t19.5 304.5q0 131 -7.5 219t-20 140.5t-36.5 79t-49.5 34.5t-66.5 8q-34 0 -65.5 -2t-46.5 -4l-15 -2v-962z" />
<glyph unicode="&#x1e0d;" d="M102 485q0 209 52.5 331.5t157.5 174t282 51.5q14 0 38.5 -1t35.5 -1v394h272v-1434h-221l-21 84q-110 -102 -256 -102q-89 0 -150 23t-105 80t-64.5 155t-20.5 245zM296 -141h293v-236h-293v236zM379 467q0 -103 14.5 -158t42 -74.5t78.5 -19.5q65 0 109.5 48t44.5 106 v434l-93 6q-75 0 -115.5 -26.5t-60.5 -100.5t-20 -215z" />
<glyph unicode="&#x1e0e;" horiz-adv-x="1118" d="M143 0v1434q248 20 363 20q88 0 153 -11t125.5 -40t101 -80.5t71 -129.5t45 -191t14.5 -263q0 -181 -20.5 -313t-58.5 -218t-99.5 -136.5t-134.5 -71t-173 -20.5q-64 0 -161 5t-161 10zM228 -143h605v-224h-605v224zM424 236q39 -9 125 -9q66 0 104.5 42t58 151.5 t19.5 304.5q0 131 -7.5 219t-20 140.5t-36.5 79t-49.5 34.5t-66.5 8q-34 0 -65.5 -2t-46.5 -4l-15 -2v-962z" />
<glyph unicode="&#x1e0f;" d="M102 485q0 209 52.5 331.5t157.5 174t282 51.5q14 0 38.5 -1t35.5 -1v394h272v-1434h-221l-21 84q-110 -102 -256 -102q-89 0 -150 23t-105 80t-64.5 155t-20.5 245zM140 -141h604v-224h-604v224zM379 467q0 -103 14.5 -158t42 -74.5t78.5 -19.5q65 0 109.5 48t44.5 106 v434l-93 6q-75 0 -115.5 -26.5t-60.5 -100.5t-20 -215z" />
<glyph unicode="&#x1e10;" horiz-adv-x="1118" d="M143 0v1434q248 20 363 20q88 0 153 -11t125.5 -40t101 -80.5t71 -129.5t45 -191t14.5 -263q0 -202 -24.5 -342.5t-75 -227t-120.5 -129.5t-169 -55l-21 -128q89 -10 132.5 -62t43.5 -131q0 -223 -262 -223q-77 0 -155 16v179q72 -11 110 -11q46 0 64 10t18 37t-36 37.5 t-134 10.5l42 262q-60 2 -131.5 6.5t-113.5 7.5zM424 236q39 -9 125 -9q66 0 104.5 42t58 151.5t19.5 304.5q0 131 -7.5 219t-20 140.5t-36.5 79t-49.5 34.5t-66.5 8q-34 0 -65.5 -2t-46.5 -4l-15 -2v-962z" />
<glyph unicode="&#x1e11;" d="M102 485q0 209 52.5 331.5t157.5 174t282 51.5q14 0 38.5 -1t35.5 -1v394h272v-1434h-221l-21 84q-71 -66 -158 -90l-22 -135q89 -10 132.5 -62t43.5 -131q0 -223 -262 -223q-78 0 -156 16v179q71 -11 111 -11q46 0 64 10.5t18 37.5t-36 37t-134 10l43 268 q-125 25 -182.5 138t-57.5 357zM379 467q0 -103 14.5 -158t42 -74.5t78.5 -19.5q65 0 109.5 48t44.5 106v434l-93 6q-75 0 -115.5 -26.5t-60.5 -100.5t-20 -215z" />
<glyph unicode="&#x1e12;" horiz-adv-x="1118" d="M128 -420l250 277h303l252 -277h-301l-103 152l-102 -152h-299zM143 0v1434q248 20 363 20q88 0 153 -11t125.5 -40t101 -80.5t71 -129.5t45 -191t14.5 -263q0 -181 -20.5 -313t-58.5 -218t-99.5 -136.5t-134.5 -71t-173 -20.5q-64 0 -161 5t-161 10zM424 236 q39 -9 125 -9q66 0 104.5 42t58 151.5t19.5 304.5q0 131 -7.5 219t-20 140.5t-36.5 79t-49.5 34.5t-66.5 8q-34 0 -65.5 -2t-46.5 -4l-15 -2v-962z" />
<glyph unicode="&#x1e13;" d="M40 -418l250 277h303l252 -277h-301l-103 152l-102 -152h-299zM102 485q0 209 52.5 331.5t157.5 174t282 51.5q14 0 38.5 -1t35.5 -1v394h272v-1434h-221l-21 84q-110 -102 -256 -102q-89 0 -150 23t-105 80t-64.5 155t-20.5 245zM379 467q0 -103 14.5 -158t42 -74.5 t78.5 -19.5q65 0 109.5 48t44.5 106v434l-93 6q-75 0 -115.5 -26.5t-60.5 -100.5t-20 -215z" />
<glyph unicode="&#x1e14;" horiz-adv-x="978" d="M85 2200h326l213 -277h-228zM143 0v1434h734v-222h-453v-362h401v-219h-401v-410h453v-221h-734zM208 1577v223h604v-223h-604z" />
<glyph unicode="&#x1e15;" horiz-adv-x="1001" d="M97 1788h326l213 -277h-227zM102 512q0 277 106.5 403.5t313.5 126.5q114 0 190.5 -29.5t119 -91t60 -142t17.5 -195.5v-172h-530q6 -114 42 -155.5t128 -41.5q133 0 285 31v-230q-48 -13 -138 -23.5t-147 -10.5q-68 0 -118.5 5.5t-99.5 20t-83 39.5t-63 64.5t-46.5 95.5 t-27 132t-9.5 173zM220 1165v224h604v-224h-604zM381 612h266v54q0 76 -31 113.5t-98 37.5q-65 0 -96.5 -45.5t-40.5 -159.5z" />
<glyph unicode="&#x1e16;" horiz-adv-x="978" d="M143 0v1434h734v-222h-453v-362h401v-219h-401v-410h453v-221h-734zM208 1577v223h604v-223h-604zM396 1923l213 277h326l-311 -277h-228z" />
<glyph unicode="&#x1e17;" horiz-adv-x="1001" d="M102 512q0 277 106.5 403.5t313.5 126.5q114 0 190.5 -29.5t119 -91t60 -142t17.5 -195.5v-172h-530q6 -114 42 -155.5t128 -41.5q133 0 285 31v-230q-48 -13 -138 -23.5t-147 -10.5q-68 0 -118.5 5.5t-99.5 20t-83 39.5t-63 64.5t-46.5 95.5t-27 132t-9.5 173zM220 1165 v224h604v-224h-604zM381 612h266v54q0 76 -31 113.5t-98 37.5q-65 0 -96.5 -45.5t-40.5 -159.5zM409 1511l213 277h325l-311 -277h-227z" />
<glyph unicode="&#x1e18;" horiz-adv-x="978" d="M108 -399l249 276h303l252 -276h-301l-102 151l-102 -151h-299zM143 0v1434h734v-222h-453v-362h401v-219h-401v-410h453v-221h-734z" />
<glyph unicode="&#x1e19;" horiz-adv-x="1001" d="M102 512q0 277 106.5 403.5t313.5 126.5q114 0 190.5 -29.5t119 -91t60 -142t17.5 -195.5v-172h-530q6 -114 42 -155.5t128 -41.5q133 0 285 31v-230q-48 -13 -138 -23.5t-147 -10.5q-68 0 -118.5 5.5t-99.5 20t-83 39.5t-63 64.5t-46.5 95.5t-27 132t-9.5 173zM146 -418 l250 277h303l252 -277h-301l-102 152l-103 -152h-299zM381 612h266v54q0 76 -31 113.5t-98 37.5q-65 0 -96.5 -45.5t-40.5 -159.5z" />
<glyph unicode="&#x1e1a;" horiz-adv-x="978" d="M143 0v1434h734v-222h-453v-362h401v-219h-401v-410h453v-221h-734zM172 -190q42 35 96 51t101 16q50 0 153.5 -40t141.5 -40q101 0 184 74v-213q-71 -68 -197 -68q-53 0 -153 40t-142 40q-51 0 -100 -20.5t-84 -52.5v213z" />
<glyph unicode="&#x1e1b;" horiz-adv-x="1001" d="M102 512q0 277 106.5 403.5t313.5 126.5q114 0 190.5 -29.5t119 -91t60 -142t17.5 -195.5v-172h-530q6 -114 42 -155.5t128 -41.5q133 0 285 31v-230q-48 -13 -138 -23.5t-147 -10.5q-68 0 -118.5 5.5t-99.5 20t-83 39.5t-63 64.5t-46.5 95.5t-27 132t-9.5 173zM211 -209 q42 35 96.5 51.5t100.5 16.5q50 0 153 -40t141 -40q102 0 185 74v-213q-71 -68 -197 -68q-53 0 -153 40t-142 40q-102 0 -184 -74v213zM381 612h266v54q0 76 -31 113.5t-98 37.5q-65 0 -96.5 -45.5t-40.5 -159.5z" />
<glyph unicode="&#x1e1c;" horiz-adv-x="978" d="M143 0v1434h734v-222h-453v-362h401v-219h-401v-410h453v-221h-272l-19 -123q89 -10 132.5 -61.5t43.5 -130.5q0 -223 -262 -223q-78 0 -156 16v178q65 -10 111 -10t64 10t18 37t-36 37t-134 10l42 260h-266zM178 1874h240q3 -49 27.5 -77t64.5 -28t65.5 29t26.5 76h240 q-2 -47 -21 -95t-55.5 -95t-104 -77t-155.5 -30q-71 0 -128.5 20.5t-93 51.5t-59.5 72t-34.5 78.5t-12.5 74.5z" />
<glyph unicode="&#x1e1d;" horiz-adv-x="1001" d="M102 512q0 277 106.5 403.5t313.5 126.5q114 0 190.5 -29.5t119 -91t60 -142t17.5 -195.5v-172h-530q6 -114 42 -155.5t128 -41.5q133 0 285 31v-230q-65 -18 -189 -29l-20 -128q89 -10 132.5 -62t43.5 -131q0 -223 -262 -223q-78 0 -156 16v179q71 -11 111 -11 q46 0 63.5 10t17.5 38q0 27 -35.5 37t-133.5 10l42 263q-91 8 -152 34.5t-106.5 85t-66.5 158.5t-21 249zM190 1462h240q3 -49 27.5 -76.5t64.5 -27.5t65.5 28.5t26.5 75.5h240q-2 -47 -21 -95t-55.5 -95t-104 -77t-155.5 -30q-71 0 -128.5 20.5t-93 51.5t-59.5 72 t-34.5 78.5t-12.5 74.5zM381 612h266v54q0 76 -31 113.5t-98 37.5q-65 0 -96.5 -45.5t-40.5 -159.5z" />
<glyph unicode="&#x1e1e;" horiz-adv-x="989" d="M174 0v1434h733v-222h-452v-383h401v-221h-401v-608h-281zM394 1577v235h293v-235h-293z" />
<glyph unicode="&#x1e1f;" horiz-adv-x="698" d="M51 793v231h133v82q0 104 19 172.5t60 106t95.5 52.5t135.5 15q97 0 225 -25v-231q-99 23 -174 23q-48 0 -68 -24.5t-20 -70.5v-100h223v-231h-223v-793h-273v793h-133zM347 1575v235h293v-235h-293z" />
<glyph unicode="&#x1e20;" horiz-adv-x="1044" d="M102 739q0 128 11.5 229.5t33 176t56.5 128.5t75.5 88.5t97.5 54.5t116.5 28t136.5 8q97 0 260 -35v-241q-161 30 -281 30q-55 0 -89.5 -11.5t-62 -40.5t-41.5 -85t-21 -137.5t-7 -206.5q0 -208 17.5 -314t55.5 -145t113 -39q59 0 86 2v324h-131v242h404v-777 q-196 -36 -352 -36q-108 0 -183 20.5t-134 70t-93 137t-51 216.5t-17 313zM327 1577v223h604v-223h-604z" />
<glyph unicode="&#x1e21;" horiz-adv-x="1122" d="M92 684q0 76 18 135.5t53 97.5t77 64t99.5 38.5t110 17.5t117.5 5q101 0 178 -24l336 14v-209l-131 8q29 -76 29 -163q0 -181 -114.5 -266t-348.5 -85q-56 0 -121 7q-12 -24 -12 -60q0 -13 4 -33q143 13 242 13q195 0 291 -74.5t96 -255.5q0 -66 -17 -117t-51 -84 t-74.5 -54.5t-97.5 -32.5t-110.5 -15t-122.5 -4q-74 0 -206 12t-192 23v221q202 -35 410 -35q101 0 140.5 21.5t39.5 70.5q0 43 -27 67.5t-98 24.5q-59 0 -184.5 -7.5t-185.5 -14.5q-37 34 -67 95.5t-30 135.5q0 105 54 178q-105 89 -105 285zM265 1165v224h604v-224h-604z M365 668q0 -133 151 -133q100 0 145.5 30t45.5 119q0 76 -35.5 106.5t-124.5 30.5q-107 0 -144.5 -33.5t-37.5 -119.5z" />
<glyph unicode="&#x1e22;" horiz-adv-x="1167" d="M143 0v1434h281v-592h319v592h281v-1434h-281v608h-319v-608h-281zM437 1577v235h293v-235h-293z" />
<glyph unicode="&#x1e23;" d="M133 0v1434h273v-461q91 69 212 69q84 0 143 -16.5t96 -46.5t57.5 -82.5t28 -112.5t7.5 -149v-635h-272v641q0 97 -27.5 131.5t-87.5 34.5q-73 0 -113.5 -42t-43.5 -101v-664h-273zM667 1556v236h292v-236h-292z" />
<glyph unicode="&#x1e24;" horiz-adv-x="1167" d="M143 0v1434h281v-592h319v592h281v-1434h-281v608h-319v-608h-281zM437 -123h293v-235h-293v235z" />
<glyph unicode="&#x1e25;" d="M133 0v1434h273v-461q91 69 212 69q84 0 143 -16.5t96 -46.5t57.5 -82.5t28 -112.5t7.5 -149v-635h-272v641q0 97 -27.5 131.5t-87.5 34.5q-73 0 -113.5 -42t-43.5 -101v-664h-273zM395 -123h293v-235h-293v235z" />
<glyph unicode="&#x1e26;" horiz-adv-x="1167" d="M143 0v1434h281v-592h319v592h281v-1434h-281v608h-319v-608h-281zM246 1577v235h266v-235h-266zM655 1577v235h267v-235h-267z" />
<glyph unicode="&#x1e27;" d="M133 0v1434h273v-461q91 69 212 69q84 0 143 -16.5t96 -46.5t57.5 -82.5t28 -112.5t7.5 -149v-635h-272v641q0 97 -27.5 131.5t-87.5 34.5q-73 0 -113.5 -42t-43.5 -101v-664h-273zM204 1556v236h266v-236h-266zM613 1556v236h267v-236h-267z" />
<glyph unicode="&#x1e28;" horiz-adv-x="1167" d="M119 -344q65 -10 110 -10q46 0 64 10t18 37t-36 37t-134 10l42 260h-40v1434h281v-592h319v592h281v-1434h-281v608h-319v-608h-44l-20 -123q89 -10 133 -61.5t44 -130.5q0 -223 -263 -223q-77 0 -155 16v178z" />
<glyph unicode="&#x1e29;" d="M104 -344q65 -10 111 -10t64 10t18 37t-36 37t-134 10l42 260h-36v1434h273v-461q91 69 212 69q84 0 143 -16.5t96 -46.5t57.5 -82.5t28 -112.5t7.5 -149v-635h-272v641q0 97 -27.5 131.5t-87.5 34.5q-73 0 -113.5 -42t-43.5 -101v-664h-40l-20 -123q89 -10 132.5 -61.5 t43.5 -130.5q0 -223 -262 -223q-78 0 -156 16v178z" />
<glyph unicode="&#x1e2a;" horiz-adv-x="1167" d="M143 0v1434h281v-592h319v592h281v-1434h-281v608h-319v-608h-281zM252 -123h240q3 -49 27.5 -76.5t64.5 -27.5t65.5 28.5t26.5 75.5h239q-2 -37 -13 -74.5t-36.5 -78.5t-62 -72t-94.5 -51.5t-129 -20.5t-128.5 20.5t-93 51.5t-59.5 72t-34.5 78.5t-12.5 74.5z" />
<glyph unicode="&#x1e2b;" d="M133 0v1434h273v-461q91 69 212 69q84 0 143 -16.5t96 -46.5t57.5 -82.5t28 -112.5t7.5 -149v-635h-272v641q0 97 -27.5 131.5t-87.5 34.5q-73 0 -113.5 -42t-43.5 -101v-664h-273zM210 -123h240q3 -49 27.5 -76.5t64.5 -27.5t65.5 28.5t26.5 75.5h239q-2 -37 -13 -74.5 t-36.5 -78.5t-62 -72t-94.5 -51.5t-129 -20.5t-128.5 20.5t-93 51.5t-59.5 72t-34.5 78.5t-12.5 74.5z" />
<glyph unicode="&#x1e2c;" horiz-adv-x="710" d="M17 -190q42 35 96 51t101 16q50 0 153.5 -40t141.5 -40q101 0 184 74v-213q-71 -68 -196 -68q-53 0 -153 40t-142 40q-51 0 -100.5 -21t-84.5 -52v213zM72 0v217h143v1000h-143v217h567v-217h-143v-1000h143v-217h-567z" />
<glyph unicode="&#x1e2d;" horiz-adv-x="538" d="M-69 -190q42 35 96 51t101 16q50 0 153.5 -40t141.5 -40q101 0 184 74v-213q-71 -68 -196 -68q-53 0 -153 40t-142 40q-51 0 -100.5 -21t-84.5 -52v213zM123 1198v236h293v-236h-293zM133 0v1024h273v-1024h-273z" />
<glyph unicode="&#x1e2e;" horiz-adv-x="710" d="M18 1475v235h267v-235h-267zM72 0v217h143v1000h-143v217h567v-217h-143v-1000h143v-217h-567zM243 1833l213 276h325l-311 -276h-227zM428 1475v235h266v-235h-266z" />
<glyph unicode="&#x1e2f;" horiz-adv-x="538" d="M-68 1147v235h267v-235h-267zM133 0v1024h273v-1024h-273zM157 1505l213 277h325l-311 -277h-227zM342 1147v235h266v-235h-266z" />
<glyph unicode="&#x1e30;" horiz-adv-x="1120" d="M143 0v1434h281v-496l330 496h315l-428 -623l438 -811h-323l-291 563l-41 -63v-500h-281zM493 1577l213 276h325l-311 -276h-227z" />
<glyph unicode="&#x1e31;" horiz-adv-x="1013" d="M133 0v1434h273v-717l245 307h312l-347 -410l367 -614h-313l-221 424l-43 -55v-369h-273zM155 1556l213 277h325l-311 -277h-227z" />
<glyph unicode="&#x1e32;" horiz-adv-x="1120" d="M143 0v1434h281v-496l330 496h315l-428 -623l438 -811h-323l-291 563l-41 -63v-500h-281zM465 -123h293v-235h-293v235z" />
<glyph unicode="&#x1e33;" horiz-adv-x="1013" d="M133 0v1434h273v-717l245 307h312l-347 -410l367 -614h-313l-221 424l-43 -55v-369h-273zM412 -123h293v-235h-293v235z" />
<glyph unicode="&#x1e34;" horiz-adv-x="1120" d="M143 0v1434h281v-496l330 496h315l-428 -623l438 -811h-323l-291 563l-41 -63v-500h-281zM309 -123h604v-223h-604v223z" />
<glyph unicode="&#x1e35;" horiz-adv-x="1013" d="M133 0v1434h273v-717l245 307h312l-347 -410l367 -614h-313l-221 424l-43 -55v-369h-273zM256 -123h604v-223h-604v223z" />
<glyph unicode="&#x1e36;" horiz-adv-x="860" d="M143 0v1434h281v-1196h416v-238h-697zM345 -123h293v-235h-293v235z" />
<glyph unicode="&#x1e37;" horiz-adv-x="593" d="M133 303v1131h273v-1121q0 -51 13 -69.5t50 -18.5q34 0 74 8v-227q-77 -16 -187 -16q-124 0 -173.5 74t-49.5 239zM210 -133h293v-236h-293v236z" />
<glyph unicode="&#x1e38;" horiz-adv-x="860" d="M-19 1577v223h604v-223h-604zM143 0v1434h281v-1196h416v-238h-697zM345 -123h293v-235h-293v235z" />
<glyph unicode="&#x1e39;" horiz-adv-x="593" d="M-33 1556v224h604v-224h-604zM133 303v1131h273v-1121q0 -51 13 -69.5t50 -18.5q34 0 74 8v-227q-77 -16 -187 -16q-124 0 -173.5 74t-49.5 239zM210 -133h293v-236h-293v236z" />
<glyph unicode="&#x1e3a;" horiz-adv-x="860" d="M143 0v1434h281v-1196h416v-238h-697zM189 -123h605v-223h-605v223z" />
<glyph unicode="&#x1e3b;" horiz-adv-x="593" d="M54 -133h604v-223h-604v223zM133 303v1131h273v-1121q0 -51 13 -69.5t50 -18.5q34 0 74 8v-227q-77 -16 -187 -16q-124 0 -173.5 74t-49.5 239z" />
<glyph unicode="&#x1e3c;" horiz-adv-x="860" d="M89 -399l250 276h303l252 -276h-301l-103 151l-102 -151h-299zM143 0v1434h281v-1196h416v-238h-697z" />
<glyph unicode="&#x1e3d;" horiz-adv-x="593" d="M-46 -410l250 277h303l252 -277h-301l-103 152l-102 -152h-299zM133 303v1131h273v-1121q0 -51 13 -69.5t50 -18.5q34 0 74 8v-227q-77 -16 -187 -16q-124 0 -173.5 74t-49.5 239z" />
<glyph unicode="&#x1e3e;" horiz-adv-x="1363" d="M143 0v1434h426l121 -551l123 551h408v-1434h-254v1227l-176 -746h-213l-185 746v-1227h-250zM568 1577l213 276h326l-311 -276h-228z" />
<glyph unicode="&#x1e3f;" horiz-adv-x="1536" d="M133 0v1024h221l17 -76q97 94 227 94q183 0 252 -104q101 104 252 104q81 0 137 -17.5t90 -47.5t53 -83t25 -112t6 -147v-635h-272v641q0 99 -21 132.5t-73 33.5q-66 0 -100.5 -41.5t-37.5 -101.5v-664h-272v641q0 99 -21 132.5t-73 33.5q-68 0 -102.5 -45.5 t-34.5 -108.5v-653h-273zM736 1165l213 277h326l-311 -277h-228z" />
<glyph unicode="&#x1e40;" horiz-adv-x="1363" d="M143 0v1434h426l121 -551l123 551h408v-1434h-254v1227l-176 -746h-213l-185 746v-1227h-250zM536 1577v235h292v-235h-292z" />
<glyph unicode="&#x1e41;" horiz-adv-x="1536" d="M133 0v1024h221l17 -76q97 94 227 94q183 0 252 -104q101 104 252 104q81 0 137 -17.5t90 -47.5t53 -83t25 -112t6 -147v-635h-272v641q0 99 -21 132.5t-73 33.5q-66 0 -100.5 -41.5t-37.5 -101.5v-664h-272v641q0 99 -21 132.5t-73 33.5q-68 0 -102.5 -45.5 t-34.5 -108.5v-653h-273zM703 1165v236h293v-236h-293z" />
<glyph unicode="&#x1e42;" horiz-adv-x="1363" d="M143 0v1434h426l121 -551l123 551h408v-1434h-254v1227l-176 -746h-213l-185 746v-1227h-250zM536 -123h292v-235h-292v235z" />
<glyph unicode="&#x1e43;" horiz-adv-x="1536" d="M133 0v1024h221l17 -76q97 94 227 94q183 0 252 -104q101 104 252 104q81 0 137 -17.5t90 -47.5t53 -83t25 -112t6 -147v-635h-272v641q0 99 -21 132.5t-73 33.5q-66 0 -100.5 -41.5t-37.5 -101.5v-664h-272v641q0 99 -21 132.5t-73 33.5q-68 0 -102.5 -45.5 t-34.5 -108.5v-653h-273zM627 -123h293v-235h-293v235z" />
<glyph unicode="&#x1e44;" horiz-adv-x="1212" d="M143 0v1434h408l274 -1174v1174h244v-1434h-407l-271 1151v-1151h-248zM460 1577v235h293v-235h-293z" />
<glyph unicode="&#x1e45;" d="M133 0v1024h221l19 -80q105 98 245 98q84 0 143 -16.5t96 -46.5t57.5 -82.5t28 -112.5t7.5 -149v-635h-272v641q0 97 -27.5 131.5t-87.5 34.5q-73 0 -113.5 -42t-43.5 -101v-664h-273zM395 1165v236h293v-236h-293z" />
<glyph unicode="&#x1e46;" horiz-adv-x="1212" d="M143 0v1434h408l274 -1174v1174h244v-1434h-407l-271 1151v-1151h-248zM460 -123h293v-235h-293v235z" />
<glyph unicode="&#x1e47;" d="M133 0v1024h221l19 -80q105 98 245 98q84 0 143 -16.5t96 -46.5t57.5 -82.5t28 -112.5t7.5 -149v-635h-272v641q0 97 -27.5 131.5t-87.5 34.5q-73 0 -113.5 -42t-43.5 -101v-664h-273zM395 -123h293v-235h-293v235z" />
<glyph unicode="&#x1e48;" horiz-adv-x="1212" d="M143 0v1434h408l274 -1174v1174h244v-1434h-407l-271 1151v-1151h-248zM304 -123h604v-223h-604v223z" />
<glyph unicode="&#x1e49;" d="M133 0v1024h221l19 -80q105 98 245 98q84 0 143 -16.5t96 -46.5t57.5 -82.5t28 -112.5t7.5 -149v-635h-272v641q0 97 -27.5 131.5t-87.5 34.5q-73 0 -113.5 -42t-43.5 -101v-664h-273zM240 -123h604v-223h-604v223z" />
<glyph unicode="&#x1e4a;" horiz-adv-x="1212" d="M143 0v1434h408l274 -1174v1174h244v-1434h-407l-271 1151v-1151h-248zM204 -399l250 276h303l252 -276h-301l-103 151l-102 -151h-299z" />
<glyph unicode="&#x1e4b;" d="M133 0v1024h221l19 -80q105 98 245 98q84 0 143 -16.5t96 -46.5t57.5 -82.5t28 -112.5t7.5 -149v-635h-272v641q0 97 -27.5 131.5t-87.5 34.5q-73 0 -113.5 -42t-43.5 -101v-664h-273zM139 -399l250 276h303l252 -276h-301l-102 151l-103 -151h-299z" />
<glyph unicode="&#x1e4c;" horiz-adv-x="1163" d="M102 733q0 152 12 260.5t43.5 200t85.5 146t138 84.5t201 30q98 0 172 -19.5t127 -61t88 -99t55.5 -141.5t28.5 -179t8 -221q0 -114 -5 -200.5t-18.5 -168t-37 -139t-59.5 -106.5t-86.5 -78t-118 -45t-154.5 -16t-154.5 16t-118 45t-87 77.5t-59.5 106.5t-36.5 139.5 t-19 168t-5.5 200.5zM242 1481v213q80 67 196 67q50 0 153.5 -40t141.5 -40q102 0 185 74v-213q-70 -67 -197 -67q-53 0 -153 39.5t-142 39.5q-51 0 -100 -20.5t-84 -52.5zM325 1884l213 277h325l-311 -277h-227zM387 723q0 -208 19 -320.5t60 -157t116 -44.5t115.5 44.5 t59.5 156.5t19 321q0 211 -19 320.5t-59 149.5t-116 40t-116 -40t-59.5 -150t-19.5 -320z" />
<glyph unicode="&#x1e4d;" horiz-adv-x="1085" d="M102 532q0 262 105 384t334 122q230 0 336 -122t106 -384q0 -159 -27.5 -266t-85.5 -168.5t-136.5 -86.5t-192.5 -25t-192 25t-135.5 86.5t-84.5 168t-27 266.5zM205 1194v213q42 35 96 51.5t100 16.5q50 0 153.5 -40t141.5 -40q103 0 185 73v-213q-70 -67 -197 -67 q-53 0 -153 40t-142 40q-102 0 -184 -74zM288 1597l213 277h325l-311 -277h-227zM381 502q0 -172 33 -233.5t127 -61.5q95 0 129.5 62t34.5 233q0 179 -35.5 247t-128.5 68q-92 0 -126 -67.5t-34 -247.5z" />
<glyph unicode="&#x1e4e;" horiz-adv-x="1163" d="M100 1884v236h267v-236h-267zM102 733q0 152 12 260.5t43.5 200t85.5 146t138 84.5t201 30q98 0 172 -19.5t127 -61t88 -99t55.5 -141.5t28.5 -179t8 -221q0 -114 -5 -200.5t-18.5 -168t-37 -139t-59.5 -106.5t-86.5 -78t-118 -45t-154.5 -16t-154.5 16t-118 45t-87 77.5 t-59.5 106.5t-36.5 139.5t-19 168t-5.5 200.5zM242 1481v213q80 67 196 67q50 0 153.5 -40t141.5 -40q102 0 185 74v-213q-70 -67 -197 -67q-53 0 -153 39.5t-142 39.5q-51 0 -100 -20.5t-84 -52.5zM387 723q0 -208 19 -320.5t60 -157t116 -44.5t115.5 44.5t59.5 156.5 t19 321q0 211 -19 320.5t-59 149.5t-116 40t-116 -40t-59.5 -150t-19.5 -320zM510 1884v236h266v-236h-266z" />
<glyph unicode="&#x1e4f;" horiz-adv-x="1085" d="M63 1597v236h267v-236h-267zM102 532q0 262 105 384t334 122q230 0 336 -122t106 -384q0 -159 -27.5 -266t-85.5 -168.5t-136.5 -86.5t-192.5 -25t-192 25t-135.5 86.5t-84.5 168t-27 266.5zM205 1194v213q42 35 96 51.5t100 16.5q50 0 153.5 -40t141.5 -40q103 0 185 73 v-213q-70 -67 -197 -67q-53 0 -153 40t-142 40q-102 0 -184 -74zM381 502q0 -172 33 -233.5t127 -61.5q95 0 129.5 62t34.5 233q0 179 -35.5 247t-128.5 68q-92 0 -126 -67.5t-34 -247.5zM473 1597v236h266v-236h-266z" />
<glyph unicode="&#x1e50;" horiz-adv-x="1163" d="M102 733q0 152 12 260.5t43.5 200t85.5 146t138 84.5t201 30q98 0 172 -19.5t127 -61t88 -99t55.5 -141.5t28.5 -179t8 -221q0 -114 -5 -200.5t-18.5 -168t-37 -139t-59.5 -106.5t-86.5 -78t-118 -45t-154.5 -16t-154.5 16t-118 45t-87 77.5t-59.5 106.5t-36.5 139.5 t-19 168t-5.5 200.5zM157 2200h325l213 -277h-227zM280 1577v223h604v-223h-604zM387 723q0 -208 19 -320.5t60 -157t116 -44.5t115.5 44.5t59.5 156.5t19 321q0 211 -19 320.5t-59 149.5t-116 40t-116 -40t-59.5 -150t-19.5 -320z" />
<glyph unicode="&#x1e51;" horiz-adv-x="1085" d="M102 532q0 262 105 384t334 122q230 0 336 -122t106 -384q0 -159 -27.5 -266t-85.5 -168.5t-136.5 -86.5t-192.5 -25t-192 25t-135.5 86.5t-84.5 168t-27 266.5zM116 1784h325l213 -277h-227zM239 1161v223h604v-223h-604zM381 502q0 -172 33 -233.5t127 -61.5 q95 0 129.5 62t34.5 233q0 179 -35.5 247t-128.5 68q-92 0 -126 -67.5t-34 -247.5z" />
<glyph unicode="&#x1e52;" horiz-adv-x="1163" d="M102 733q0 152 12 260.5t43.5 200t85.5 146t138 84.5t201 30q98 0 172 -19.5t127 -61t88 -99t55.5 -141.5t28.5 -179t8 -221q0 -114 -5 -200.5t-18.5 -168t-37 -139t-59.5 -106.5t-86.5 -78t-118 -45t-154.5 -16t-154.5 16t-118 45t-87 77.5t-59.5 106.5t-36.5 139.5 t-19 168t-5.5 200.5zM280 1577v223h604v-223h-604zM387 723q0 -208 19 -320.5t60 -157t116 -44.5t115.5 44.5t59.5 156.5t19 321q0 211 -19 320.5t-59 149.5t-116 40t-116 -40t-59.5 -150t-19.5 -320zM468 1923l213 277h326l-312 -277h-227z" />
<glyph unicode="&#x1e53;" horiz-adv-x="1085" d="M102 532q0 262 105 384t334 122q230 0 336 -122t106 -384q0 -159 -27.5 -266t-85.5 -168.5t-136.5 -86.5t-192.5 -25t-192 25t-135.5 86.5t-84.5 168t-27 266.5zM239 1161v223h604v-223h-604zM381 502q0 -172 33 -233.5t127 -61.5q95 0 129.5 62t34.5 233 q0 179 -35.5 247t-128.5 68q-92 0 -126 -67.5t-34 -247.5zM427 1507l213 277h326l-312 -277h-227z" />
<glyph unicode="&#x1e54;" horiz-adv-x="1064" d="M143 0v1434q207 20 377 20q137 0 230 -31t146 -94.5t75 -147.5t22 -204q0 -262 -110.5 -372.5t-341.5 -110.5h-117v-494h-281zM407 1577l213 276h325l-311 -276h-227zM424 735h129q72 0 114 62t42 166q0 126 -34 185.5t-118 59.5q-39 0 -72.5 -3t-46.5 -6l-14 -3v-461z " />
<glyph unicode="&#x1e55;" horiz-adv-x="1062" d="M133 -348v1372h221l21 -84q102 102 252 102q116 0 187.5 -42t109 -145t37.5 -277q0 -227 -47.5 -355.5t-150.5 -184.5t-284 -56q-48 0 -73 2v-332h-273zM406 219q58 -4 88 -4q79 0 118 27.5t55.5 98.5t16.5 216q0 104 -13 158t-39.5 74t-76.5 20q-64 0 -106.5 -47.5 t-42.5 -106.5v-436zM513 1165l213 277h326l-312 -277h-227z" />
<glyph unicode="&#x1e56;" horiz-adv-x="1064" d="M143 0v1434q207 20 377 20q137 0 230 -31t146 -94.5t75 -147.5t22 -204q0 -262 -110.5 -372.5t-341.5 -110.5h-117v-494h-281zM374 1577v235h293v-235h-293zM424 735h129q72 0 114 62t42 166q0 126 -34 185.5t-118 59.5q-39 0 -72.5 -3t-46.5 -6l-14 -3v-461z" />
<glyph unicode="&#x1e57;" horiz-adv-x="1062" d="M133 -348v1372h221l21 -84q102 102 252 102q116 0 187.5 -42t109 -145t37.5 -277q0 -227 -47.5 -355.5t-150.5 -184.5t-284 -56q-48 0 -73 2v-332h-273zM406 219q58 -4 88 -4q79 0 118 27.5t55.5 98.5t16.5 216q0 104 -13 158t-39.5 74t-76.5 20q-64 0 -106.5 -47.5 t-42.5 -106.5v-436zM480 1165v236h293v-236h-293z" />
<glyph unicode="&#x1e58;" horiz-adv-x="1091" d="M143 0v1434q207 20 377 20q132 0 221 -27.5t141.5 -86.5t74.5 -140.5t22 -200.5q0 -313 -195 -411l256 -588h-317l-217 541h-82v-541h-281zM374 1577v235h293v-235h-293zM424 782h129q65 0 103 52.5t38 150.5q0 124 -30 173.5t-115 49.5q-27 0 -58.5 -3t-48.5 -6l-18 -3 v-414z" />
<glyph unicode="&#x1e59;" horiz-adv-x="722" d="M133 0v1024h221l21 -92q92 110 213 110q46 0 94 -10v-270q-53 12 -102 12q-48 0 -83.5 -25.5t-54.5 -69.5t-27.5 -94t-8.5 -108v-477h-273zM261 1165v236h293v-236h-293z" />
<glyph unicode="&#x1e5a;" horiz-adv-x="1091" d="M143 0v1434q207 20 377 20q132 0 221 -27.5t141.5 -86.5t74.5 -140.5t22 -200.5q0 -313 -195 -411l256 -588h-317l-217 541h-82v-541h-281zM424 782h129q65 0 103 52.5t38 150.5q0 124 -30 173.5t-115 49.5q-27 0 -58.5 -3t-48.5 -6l-18 -3v-414zM445 -123h293v-235h-293 v235z" />
<glyph unicode="&#x1e5b;" horiz-adv-x="722" d="M123 -123h293v-235h-293v235zM133 0v1024h221l21 -92q92 110 213 110q46 0 94 -10v-270q-53 12 -102 12q-48 0 -83.5 -25.5t-54.5 -69.5t-27.5 -94t-8.5 -108v-477h-273z" />
<glyph unicode="&#x1e5c;" horiz-adv-x="1091" d="M143 0v1434q207 20 377 20q132 0 221 -27.5t141.5 -86.5t74.5 -140.5t22 -200.5q0 -313 -195 -411l256 -588h-317l-217 541h-82v-541h-281zM218 1577v223h604v-223h-604zM424 782h129q65 0 103 52.5t38 150.5q0 124 -30 173.5t-115 49.5q-27 0 -58.5 -3t-48.5 -6l-18 -3 v-414zM445 -123h293v-235h-293v235z" />
<glyph unicode="&#x1e5d;" horiz-adv-x="722" d="M123 -123h293v-235h-293v235zM133 0v1024h221l21 -92q92 110 213 110q46 0 94 -10v-270q-53 12 -102 12q-48 0 -83.5 -25.5t-54.5 -69.5t-27.5 -94t-8.5 -108v-477h-273zM286 1165v224h604v-224h-604z" />
<glyph unicode="&#x1e5e;" horiz-adv-x="1091" d="M143 0v1434q207 20 377 20q132 0 221 -27.5t141.5 -86.5t74.5 -140.5t22 -200.5q0 -313 -195 -411l256 -588h-317l-217 541h-82v-541h-281zM290 -123h604v-223h-604v223zM424 782h129q65 0 103 52.5t38 150.5q0 124 -30 173.5t-115 49.5q-27 0 -58.5 -3t-48.5 -6l-18 -3 v-414z" />
<glyph unicode="&#x1e5f;" horiz-adv-x="722" d="M-33 -123h604v-223h-604v223zM133 0v1024h221l21 -92q92 110 213 110q46 0 94 -10v-270q-53 12 -102 12q-48 0 -83.5 -25.5t-54.5 -69.5t-27.5 -94t-8.5 -108v-477h-273z" />
<glyph unicode="&#x1e60;" horiz-adv-x="868" d="M51 1036q0 220 122 316t366 96q56 0 132.5 -9.5t121.5 -21.5v-241q-52 12 -136 21t-139 9q-182 0 -182 -147q0 -96 31.5 -131t130.5 -56q79 -16 135.5 -44.5t102 -79t68.5 -131t23 -191.5q0 -81 -12.5 -145.5t-33.5 -110t-55 -79t-71.5 -53.5t-88.5 -32t-100 -16t-112 -4 q-174 0 -291 30v244q49 -12 131 -22.5t140 -10.5q209 0 209 179q0 106 -42 153t-132 66q-169 35 -243.5 132.5t-74.5 278.5zM392 1577v235h293v-235h-293z" />
<glyph unicode="&#x1e61;" horiz-adv-x="870" d="M92 723q0 170 102.5 244.5t323.5 74.5q97 0 236 -34v-234q-132 39 -244 39q-76 0 -108.5 -18.5t-32.5 -65.5q0 -36 32 -55.5t101 -30.5q155 -25 220.5 -106.5t65.5 -227.5q0 -91 -29 -156t-85.5 -101.5t-128.5 -53t-168 -16.5q-155 0 -281 32v234q163 -37 244 -37 q82 0 125 18t43 68q0 49 -27 73.5t-102 37.5q-153 27 -220 104t-67 211zM372 1165v236h293v-236h-293z" />
<glyph unicode="&#x1e62;" horiz-adv-x="868" d="M51 1036q0 220 122 316t366 96q56 0 132.5 -9.5t121.5 -21.5v-241q-52 12 -136 21t-139 9q-182 0 -182 -147q0 -96 31.5 -131t130.5 -56q79 -16 135.5 -44.5t102 -79t68.5 -131t23 -191.5q0 -81 -12.5 -145.5t-33.5 -110t-55 -79t-71.5 -53.5t-88.5 -32t-100 -16t-112 -4 q-174 0 -291 30v244q49 -12 131 -22.5t140 -10.5q209 0 209 179q0 106 -42 153t-132 66q-169 35 -243.5 132.5t-74.5 278.5zM208 -137h293v-236h-293v236z" />
<glyph unicode="&#x1e63;" horiz-adv-x="870" d="M92 723q0 170 102.5 244.5t323.5 74.5q97 0 236 -34v-234q-132 39 -244 39q-76 0 -108.5 -18.5t-32.5 -65.5q0 -36 32 -55.5t101 -30.5q155 -25 220.5 -106.5t65.5 -227.5q0 -91 -29 -156t-85.5 -101.5t-128.5 -53t-168 -16.5q-155 0 -281 32v234q163 -37 244 -37 q82 0 125 18t43 68q0 49 -27 73.5t-102 37.5q-153 27 -220 104t-67 211zM230 -141h293v-236h-293v236z" />
<glyph unicode="&#x1e64;" horiz-adv-x="868" d="M51 1036q0 220 122 316t366 96q56 0 132.5 -9.5t121.5 -21.5v-241q-52 12 -136 21t-139 9q-182 0 -182 -147q0 -96 31.5 -131t130.5 -56q79 -16 135.5 -44.5t102 -79t68.5 -131t23 -191.5q0 -81 -12.5 -145.5t-33.5 -110t-55 -79t-71.5 -53.5t-88.5 -32t-100 -16t-112 -4 q-174 0 -291 30v244q49 -12 131 -22.5t140 -10.5q209 0 209 179q0 106 -42 153t-132 66q-169 35 -243.5 132.5t-74.5 278.5zM425 1577l213 276h326l-312 -276h-227zM654 1976v236h293v-236h-293z" />
<glyph unicode="&#x1e65;" horiz-adv-x="870" d="M92 723q0 170 102.5 244.5t323.5 74.5q97 0 236 -34v-234q-132 39 -244 39q-76 0 -108.5 -18.5t-32.5 -65.5q0 -36 32 -55.5t101 -30.5q155 -25 220.5 -106.5t65.5 -227.5q0 -91 -29 -156t-85.5 -101.5t-128.5 -53t-168 -16.5q-155 0 -281 32v234q163 -37 244 -37 q82 0 125 18t43 68q0 49 -27 73.5t-102 37.5q-153 27 -220 104t-67 211zM404 1165l213 277h326l-311 -277h-228zM634 1565v235h293v-235h-293z" />
<glyph unicode="&#x1e66;" horiz-adv-x="868" d="M51 1036q0 220 122 316t366 96q56 0 132.5 -9.5t121.5 -21.5v-241q-52 12 -136 21t-139 9q-182 0 -182 -147q0 -96 31.5 -131t130.5 -56q79 -16 135.5 -44.5t102 -79t68.5 -131t23 -191.5q0 -81 -12.5 -145.5t-33.5 -110t-55 -79t-71.5 -53.5t-88.5 -32t-100 -16t-112 -4 q-174 0 -291 30v244q49 -12 131 -22.5t140 -10.5q209 0 209 179q0 106 -42 153t-132 66q-169 35 -243.5 132.5t-74.5 278.5zM76 1731h301l82 -125l82 125h299l-226 -236h-311zM311 1853v236h293v-236h-293z" />
<glyph unicode="&#x1e67;" horiz-adv-x="870" d="M59 1466h301l103 -151l102 151h299l-250 -276h-303zM92 723q0 170 102.5 244.5t323.5 74.5q97 0 236 -34v-234q-132 39 -244 39q-76 0 -108.5 -18.5t-32.5 -65.5q0 -36 32 -55.5t101 -30.5q155 -25 220.5 -106.5t65.5 -227.5q0 -91 -29 -156t-85.5 -101.5t-128.5 -53 t-168 -16.5q-155 0 -281 32v234q163 -37 244 -37q82 0 125 18t43 68q0 49 -27 73.5t-102 37.5q-153 27 -220 104t-67 211zM315 1589v236h293v-236h-293z" />
<glyph unicode="&#x1e68;" horiz-adv-x="868" d="M51 1036q0 220 122 316t366 96q56 0 132.5 -9.5t121.5 -21.5v-241q-52 12 -136 21t-139 9q-182 0 -182 -147q0 -96 31.5 -131t130.5 -56q79 -16 135.5 -44.5t102 -79t68.5 -131t23 -191.5q0 -81 -12.5 -145.5t-33.5 -110t-55 -79t-71.5 -53.5t-88.5 -32t-100 -16t-112 -4 q-174 0 -291 30v244q49 -12 131 -22.5t140 -10.5q209 0 209 179q0 106 -42 153t-132 66q-169 35 -243.5 132.5t-74.5 278.5zM208 -137h293v-236h-293v236zM392 1577v235h293v-235h-293z" />
<glyph unicode="&#x1e69;" horiz-adv-x="870" d="M92 723q0 170 102.5 244.5t323.5 74.5q97 0 236 -34v-234q-132 39 -244 39q-76 0 -108.5 -18.5t-32.5 -65.5q0 -36 32 -55.5t101 -30.5q155 -25 220.5 -106.5t65.5 -227.5q0 -91 -29 -156t-85.5 -101.5t-128.5 -53t-168 -16.5q-155 0 -281 32v234q163 -37 244 -37 q82 0 125 18t43 68q0 49 -27 73.5t-102 37.5q-153 27 -220 104t-67 211zM230 -141h293v-236h-293v236zM372 1165v236h293v-236h-293z" />
<glyph unicode="&#x1e6a;" horiz-adv-x="911" d="M20 1186v248h871v-248h-295v-1186h-281v1186h-295zM309 1577v235h293v-235h-293z" />
<glyph unicode="&#x1e6b;" horiz-adv-x="712" d="M41 788v236h133v246h272v-246h205v-236h-205v-481q0 -49 20 -70.5t66 -21.5q60 0 130 18v-227q-23 -7 -94 -15.5t-122 -8.5q-67 0 -116 18t-78.5 47.5t-47.5 74.5t-24 90.5t-6 104.5v471h-133zM163 1393v235h293v-235h-293z" />
<glyph unicode="&#x1e6c;" horiz-adv-x="911" d="M20 1186v248h871v-248h-295v-1186h-281v1186h-295zM309 -123h293v-235h-293v235z" />
<glyph unicode="&#x1e6d;" horiz-adv-x="712" d="M41 788v236h133v246h272v-246h205v-236h-205v-481q0 -49 20 -70.5t66 -21.5q60 0 130 18v-227q-23 -7 -94 -15.5t-122 -8.5q-67 0 -116 18t-78.5 47.5t-47.5 74.5t-24 90.5t-6 104.5v471h-133zM300 -141h293v-236h-293v236z" />
<glyph unicode="&#x1e6e;" horiz-adv-x="911" d="M20 1186v248h871v-248h-295v-1186h-281v1186h-295zM154 -123h604v-223h-604v223z" />
<glyph unicode="&#x1e6f;" horiz-adv-x="712" d="M41 788v236h133v246h272v-246h205v-236h-205v-481q0 -49 20 -70.5t66 -21.5q60 0 130 18v-227q-23 -7 -94 -15.5t-122 -8.5q-67 0 -116 18t-78.5 47.5t-47.5 74.5t-24 90.5t-6 104.5v471h-133zM144 -141h605v-224h-605v224z" />
<glyph unicode="&#x1e70;" horiz-adv-x="911" d="M20 1186v248h871v-248h-295v-1186h-281v1186h-295zM53 -399l250 276h303l252 -276h-301l-102 151l-103 -151h-299z" />
<glyph unicode="&#x1e71;" horiz-adv-x="712" d="M41 788v236h133v246h272v-246h205v-236h-205v-481q0 -49 20 -70.5t66 -21.5q60 0 130 18v-227q-23 -7 -94 -15.5t-122 -8.5q-67 0 -116 18t-78.5 47.5t-47.5 74.5t-24 90.5t-6 104.5v471h-133zM44 -418l250 277h303l252 -277h-301l-103 152l-102 -152h-299z" />
<glyph unicode="&#x1e72;" horiz-adv-x="1136" d="M133 440v994h281v-1033q0 -174 155 -174q154 0 154 174v1033h281v-994q0 -126 -28.5 -214t-86 -140.5t-135.5 -76t-185 -23.5t-185 23.5t-135.5 75.5t-86.5 140.5t-29 214.5zM231 -137h267v-236h-267v236zM641 -137h266v-236h-266v236z" />
<glyph unicode="&#x1e73;" horiz-adv-x="1060" d="M106 -141h267v-236h-267v236zM123 381v643h272v-651q0 -96 27.5 -126t87.5 -30q72 0 108.5 45.5t36.5 108.5v653h273v-1024h-221l-19 80q-101 -98 -244 -98q-95 0 -158 24t-98.5 76.5t-50 123t-14.5 175.5zM516 -141h266v-236h-266v236z" />
<glyph unicode="&#x1e74;" horiz-adv-x="1136" d="M133 440v994h281v-1033q0 -174 155 -174q154 0 154 174v1033h281v-994q0 -126 -28.5 -214t-86 -140.5t-135.5 -76t-185 -23.5t-185 23.5t-135.5 75.5t-86.5 140.5t-29 214.5zM231 -205q42 35 96.5 51.5t100.5 16.5q50 0 153.5 -40t141.5 -40q101 0 184 74v-213 q-71 -68 -196 -68q-53 0 -153 40t-142 40q-51 0 -100.5 -21t-84.5 -53v213z" />
<glyph unicode="&#x1e75;" horiz-adv-x="1060" d="M106 -209q42 35 96 51.5t101 16.5q50 0 153.5 -40t141.5 -40q101 0 184 74v-213q-71 -68 -196 -68q-53 0 -153 40t-142 40q-51 0 -100.5 -21t-84.5 -53v213zM123 381v643h272v-651q0 -96 27.5 -126t87.5 -30q72 0 108.5 45.5t36.5 108.5v653h273v-1024h-221l-19 80 q-101 -98 -244 -98q-95 0 -158 24t-98.5 76.5t-50 123t-14.5 175.5z" />
<glyph unicode="&#x1e76;" horiz-adv-x="1136" d="M133 440v994h281v-1033q0 -174 155 -174q154 0 154 174v1033h281v-994q0 -126 -28.5 -214t-86 -140.5t-135.5 -76t-185 -23.5t-185 23.5t-135.5 75.5t-86.5 140.5t-29 214.5zM167 -414l250 277h303l252 -277h-301l-103 152l-102 -152h-299z" />
<glyph unicode="&#x1e77;" horiz-adv-x="1060" d="M42 -418l250 277h303l252 -277h-301l-103 152l-102 -152h-299zM123 381v643h272v-651q0 -96 27.5 -126t87.5 -30q72 0 108.5 45.5t36.5 108.5v653h273v-1024h-221l-19 80q-101 -98 -244 -98q-95 0 -158 24t-98.5 76.5t-50 123t-14.5 175.5z" />
<glyph unicode="&#x1e78;" horiz-adv-x="1136" d="M133 440v994h281v-1033q0 -174 155 -174q154 0 154 174v1033h281v-994q0 -126 -28.5 -214t-86 -140.5t-135.5 -76t-185 -23.5t-185 23.5t-135.5 75.5t-86.5 140.5t-29 214.5zM230 1583v213q42 35 96 51.5t101 16.5q50 0 153.5 -40t141.5 -40q101 0 184 74v-213 q-71 -68 -196 -68q-53 0 -153 40t-142 40q-51 0 -100.5 -21t-84.5 -53zM313 1987l213 276h326l-311 -276h-228z" />
<glyph unicode="&#x1e79;" horiz-adv-x="1060" d="M123 381v643h272v-651q0 -96 27.5 -126t87.5 -30q72 0 108.5 45.5t36.5 108.5v653h273v-1024h-221l-19 80q-101 -98 -244 -98q-95 0 -158 24t-98.5 76.5t-50 123t-14.5 175.5zM187 1167v213q42 35 96.5 51.5t100.5 16.5q50 0 153.5 -40t141.5 -40q101 0 184 74v-213 q-71 -68 -196 -68q-53 0 -153 40t-142 40q-51 0 -100.5 -21t-84.5 -53zM270 1571l213 276h326l-311 -276h-228z" />
<glyph unicode="&#x1e7a;" horiz-adv-x="1136" d="M133 440v994h281v-1033q0 -174 155 -174q154 0 154 174v1033h281v-994q0 -126 -28.5 -214t-86 -140.5t-135.5 -76t-185 -23.5t-185 23.5t-135.5 75.5t-86.5 140.5t-29 214.5zM230 1923v236h267v-236h-267zM266 1577v223h604v-223h-604zM640 1923v236h266v-236h-266z" />
<glyph unicode="&#x1e7b;" horiz-adv-x="1060" d="M123 381v643h272v-651q0 -96 27.5 -126t87.5 -30q72 0 108.5 45.5t36.5 108.5v653h273v-1024h-221l-19 80q-101 -98 -244 -98q-95 0 -158 24t-98.5 76.5t-50 123t-14.5 175.5zM187 1507v236h267v-236h-267zM223 1161v223h604v-223h-604zM597 1507v236h266v-236h-266z" />
<glyph unicode="&#x1e7c;" horiz-adv-x="1110" d="M51 1434h295l215 -1233l223 1233h275l-289 -1434h-432zM217 1583v213q42 35 96.5 51.5t100.5 16.5q50 0 153.5 -40t141.5 -40q101 0 184 74v-213q-71 -68 -197 -68q-53 0 -153 40t-142 40q-102 0 -184 -74z" />
<glyph unicode="&#x1e7d;" horiz-adv-x="1007" d="M41 1022h285l182 -827l184 827h275l-265 -1024h-395zM166 1167v213q42 35 96 51.5t100 16.5q50 0 153.5 -40t141.5 -40q102 0 185 74v-213q-71 -68 -197 -68q-53 0 -153 40t-142 40q-102 0 -184 -74z" />
<glyph unicode="&#x1e7e;" horiz-adv-x="1110" d="M51 1434h295l215 -1233l223 1233h275l-289 -1434h-432zM408 -123h292v-235h-292v235z" />
<glyph unicode="&#x1e7f;" horiz-adv-x="1007" d="M41 1022h285l182 -827l184 827h275l-265 -1024h-395zM358 -125h293v-235h-293v235z" />
<glyph unicode="&#x1e80;" horiz-adv-x="1286" d="M92 1434h250l55 -1215l146 610h233l129 -610l58 1215h231l-70 -1434h-395l-86 481l-102 -481h-379zM218 1853h326l213 -276h-228z" />
<glyph unicode="&#x1e81;" horiz-adv-x="1314" d="M31 1024h272l96 -782l150 598h242l139 -598l98 782h256l-158 -1024h-358l-111 504l-120 -504h-349zM232 1438h326l213 -277h-227z" />
<glyph unicode="&#x1e82;" horiz-adv-x="1286" d="M92 1434h250l55 -1215l146 610h233l129 -610l58 1215h231l-70 -1434h-395l-86 481l-102 -481h-379zM529 1577l213 276h326l-311 -276h-228z" />
<glyph unicode="&#x1e83;" horiz-adv-x="1314" d="M31 1024h272l96 -782l150 598h242l139 -598l98 782h256l-158 -1024h-358l-111 504l-120 -504h-349zM544 1161l213 277h325l-311 -277h-227z" />
<glyph unicode="&#x1e84;" horiz-adv-x="1286" d="M92 1434h250l55 -1215l146 610h233l129 -610l58 1215h231l-70 -1434h-395l-86 481l-102 -481h-379zM305 1577v235h266v-235h-266zM715 1577v235h266v-235h-266z" />
<glyph unicode="&#x1e85;" horiz-adv-x="1314" d="M31 1024h272l96 -782l150 598h242l139 -598l98 782h256l-158 -1024h-358l-111 504l-120 -504h-349zM319 1161v236h267v-236h-267zM729 1161v236h266v-236h-266z" />
<glyph unicode="&#x1e86;" horiz-adv-x="1286" d="M92 1434h250l55 -1215l146 610h233l129 -610l58 1215h231l-70 -1434h-395l-86 481l-102 -481h-379zM497 1577v235h293v-235h-293z" />
<glyph unicode="&#x1e87;" horiz-adv-x="1314" d="M31 1024h272l96 -782l150 598h242l139 -598l98 782h256l-158 -1024h-358l-111 504l-120 -504h-349zM511 1161v236h293v-236h-293z" />
<glyph unicode="&#x1e88;" horiz-adv-x="1286" d="M92 1434h250l55 -1215l146 610h233l129 -610l58 1215h231l-70 -1434h-395l-86 481l-102 -481h-379zM497 -123h293v-235h-293v235z" />
<glyph unicode="&#x1e89;" horiz-adv-x="1314" d="M31 1024h272l96 -782l150 598h242l139 -598l98 782h256l-158 -1024h-358l-111 504l-120 -504h-349zM511 -123h293v-235h-293v235z" />
<glyph unicode="&#x1e8a;" horiz-adv-x="1075" d="M31 0l368 743l-327 691h311l168 -424l174 424h305l-342 -689l356 -745h-317l-188 475l-203 -475h-305zM404 1577v235h293v-235h-293z" />
<glyph unicode="&#x1e8b;" horiz-adv-x="1034" d="M51 0l305 532l-272 492h313l125 -244l125 244h299l-278 -467l315 -557h-315l-154 309l-162 -309h-301zM369 1161v236h293v-236h-293z" />
<glyph unicode="&#x1e8c;" horiz-adv-x="1075" d="M31 0l368 743l-327 691h311l168 -424l174 424h305l-342 -689l356 -745h-317l-188 475l-203 -475h-305zM213 1577v235h266v-235h-266zM623 1577v235h266v-235h-266z" />
<glyph unicode="&#x1e8d;" horiz-adv-x="1034" d="M51 0l305 532l-272 492h313l125 -244l125 244h299l-278 -467l315 -557h-315l-154 309l-162 -309h-301zM177 1161v236h266v-236h-266zM587 1161v236h266v-236h-266z" />
<glyph unicode="&#x1e8e;" horiz-adv-x="1087" d="M20 1434h304l227 -553l227 553h289l-383 -803v-631h-287v631zM397 1577v235h293v-235h-293z" />
<glyph unicode="&#x1e8f;" horiz-adv-x="1009" d="M41 1024h291l198 -797l175 797h264l-262 -1110q-65 -276 -291 -276q-122 0 -185 10v231q49 -6 101 -6q84 0 100 90l6 37h-69zM358 1161v236h293v-236h-293z" />
<glyph unicode="&#x1e90;" horiz-adv-x="954" d="M72 0v272l512 918h-465v244h764v-273l-510 -917h489v-244h-790zM98 1577l250 276h303l252 -276h-301l-102 152l-103 -152h-299z" />
<glyph unicode="&#x1e91;" horiz-adv-x="856" d="M46 1161l250 277h303l252 -277h-301l-103 152l-102 -152h-299zM61 0v227l424 578h-383v219h693v-246l-422 -559h401v-219h-713z" />
<glyph unicode="&#x1e92;" horiz-adv-x="954" d="M72 0v272l512 918h-465v244h764v-273l-510 -917h489v-244h-790zM321 -123h292v-235h-292v235z" />
<glyph unicode="&#x1e93;" horiz-adv-x="856" d="M61 0v227l424 578h-383v219h693v-246l-422 -559h401v-219h-713zM271 -123h293v-235h-293v235z" />
<glyph unicode="&#x1e94;" horiz-adv-x="954" d="M72 0v272l512 918h-465v244h764v-273l-510 -917h489v-244h-790zM165 -123h604v-223h-604v223z" />
<glyph unicode="&#x1e95;" horiz-adv-x="856" d="M61 0v227l424 578h-383v219h693v-246l-422 -559h401v-219h-713zM116 -123h604v-223h-604v223z" />
<glyph unicode="&#x1e96;" d="M133 0v1434h273v-461q91 69 212 69q84 0 143 -16.5t96 -46.5t57.5 -82.5t28 -112.5t7.5 -149v-635h-272v641q0 97 -27.5 131.5t-87.5 34.5q-73 0 -113.5 -42t-43.5 -101v-664h-273zM240 -123h604v-223h-604v223z" />
<glyph unicode="&#x1e97;" horiz-adv-x="712" d="M-29 1393v235h267v-235h-267zM41 788v236h133v246h272v-246h205v-236h-205v-481q0 -49 20 -70.5t66 -21.5q60 0 130 18v-227q-23 -7 -94 -15.5t-122 -8.5q-67 0 -116 18t-78.5 47.5t-47.5 74.5t-24 90.5t-6 104.5v471h-133zM381 1393v235h266v-235h-266z" />
<glyph unicode="&#x1e98;" horiz-adv-x="1314" d="M31 1024h272l96 -782l150 598h242l139 -598l98 782h256l-158 -1024h-358l-111 504l-120 -504h-349zM420 1411q0 250 237 250q238 0 238 -250t-238 -250q-237 0 -237 250zM600 1413q0 -55 11 -77.5t46 -22.5q33 0 45.5 23.5t12.5 76.5q0 55 -11.5 77.5t-46.5 22.5 t-46 -22.5t-11 -77.5z" />
<glyph unicode="&#x1e99;" horiz-adv-x="1009" d="M41 1024h291l198 -797l175 797h264l-262 -1110q-65 -276 -291 -276q-122 0 -185 10v231q49 -6 101 -6q84 0 100 90l6 37h-69zM267 1411q0 250 238 250q237 0 237 -250t-237 -250q-238 0 -238 250zM447 1413q0 -55 11.5 -77.5t46.5 -22.5q33 0 45 23.5t12 76.5 q0 55 -11 77.5t-46 22.5t-46.5 -22.5t-11.5 -77.5z" />
<glyph unicode="&#x1ea0;" horiz-adv-x="1116" d="M31 0l327 1434h414l313 -1434h-288l-66 334h-342l-65 -334h-293zM412 -123h293v-235h-293v235zM436 575h250l-127 678z" />
<glyph unicode="&#x1ea1;" horiz-adv-x="1042" d="M92 309q0 181 109 261.5t325 80.5h92v43q0 61 -31.5 92t-105.5 31q-154 0 -315 -49v233q57 17 148.5 29t166.5 12q87 0 151.5 -9t109.5 -30t74.5 -49t46 -71.5t22.5 -91.5t6 -115v-406q0 -32 18 -48.5t62 -16.5v-205h-119q-129 0 -176 84q-83 -102 -270 -102 q-314 0 -314 327zM259 -141h293v-236h-293v236zM369 324q0 -51 27.5 -82t86.5 -31q40 0 68.5 15t42 39t19 47t5.5 46v93h-102q-147 0 -147 -127z" />
<glyph unicode="&#x1ea4;" horiz-adv-x="1116" d="M31 0l327 1434h414l313 -1434h-288l-66 334h-342l-65 -334h-293zM190 1495l226 236h311l227 -236h-301l-82 125l-82 -125h-299zM436 575h250l-127 678zM458 1853l213 277h325l-311 -277h-227z" />
<glyph unicode="&#x1ea5;" horiz-adv-x="1042" d="M92 309q0 181 109 261.5t325 80.5h92v43q0 61 -31.5 92t-105.5 31q-154 0 -315 -49v233q57 17 148.5 29t166.5 12q87 0 151.5 -9t109.5 -30t74.5 -49t46 -71.5t22.5 -91.5t6 -115v-406q0 -32 18 -48.5t62 -16.5v-205h-119q-129 0 -176 84q-83 -102 -270 -102 q-314 0 -314 327zM121 1188l250 276h303l252 -276h-301l-103 151l-102 -151h-299zM369 324q0 -51 27.5 -82t86.5 -31q40 0 68.5 15t42 39t19 47t5.5 46v93h-102q-147 0 -147 -127zM409 1587l213 277h325l-311 -277h-227z" />
<glyph unicode="&#x1ea6;" horiz-adv-x="1116" d="M31 0l327 1434h414l313 -1434h-288l-66 334h-342l-65 -334h-293zM146 2130h326l213 -277h-227zM190 1495l226 236h311l227 -236h-301l-82 125l-82 -125h-299zM436 575h250l-127 678z" />
<glyph unicode="&#x1ea7;" horiz-adv-x="1042" d="M92 309q0 181 109 261.5t325 80.5h92v43q0 61 -31.5 92t-105.5 31q-154 0 -315 -49v233q57 17 148.5 29t166.5 12q87 0 151.5 -9t109.5 -30t74.5 -49t46 -71.5t22.5 -91.5t6 -115v-406q0 -32 18 -48.5t62 -16.5v-205h-119q-129 0 -176 84q-83 -102 -270 -102 q-314 0 -314 327zM97 1864h326l213 -277h-227zM121 1188l250 276h303l252 -276h-301l-103 151l-102 -151h-299zM369 324q0 -51 27.5 -82t86.5 -31q40 0 68.5 15t42 39t19 47t5.5 46v93h-102q-147 0 -147 -127z" />
<glyph unicode="&#x1eaa;" horiz-adv-x="1116" d="M31 0l327 1434h414l313 -1434h-288l-66 334h-342l-65 -334h-293zM190 1495l226 236h311l227 -236h-301l-82 125l-82 -125h-299zM233 1860v213q42 35 96 51t101 16q50 0 153.5 -40t141.5 -40q101 0 184 74v-213q-71 -68 -196 -68q-53 0 -153 40t-142 40q-51 0 -100.5 -21 t-84.5 -52zM436 575h250l-127 678z" />
<glyph unicode="&#x1eab;" horiz-adv-x="1042" d="M92 309q0 181 109 261.5t325 80.5h92v43q0 61 -31.5 92t-105.5 31q-154 0 -315 -49v233q57 17 148.5 29t166.5 12q87 0 151.5 -9t109.5 -30t74.5 -49t46 -71.5t22.5 -91.5t6 -115v-406q0 -32 18 -48.5t62 -16.5v-205h-119q-129 0 -176 84q-83 -102 -270 -102 q-314 0 -314 327zM121 1188l250 276h303l252 -276h-301l-103 151l-102 -151h-299zM184 1593v213q42 35 96 51.5t101 16.5q50 0 153.5 -40t141.5 -40q101 0 184 74v-213q-71 -68 -196 -68q-53 0 -153 40t-142 40q-51 0 -100.5 -21t-84.5 -53zM369 324q0 -51 27.5 -82 t86.5 -31q40 0 68.5 15t42 39t19 47t5.5 46v93h-102q-147 0 -147 -127z" />
<glyph unicode="&#x1eac;" horiz-adv-x="1116" d="M31 0l327 1434h414l313 -1434h-288l-66 334h-342l-65 -334h-293zM163 1577l250 276h303l252 -276h-301l-103 152l-102 -152h-299zM412 -123h293v-235h-293v235zM436 575h250l-127 678z" />
<glyph unicode="&#x1ead;" horiz-adv-x="1042" d="M79 1165l250 277h303l252 -277h-301l-103 152l-102 -152h-299zM92 309q0 181 109 261.5t325 80.5h92v43q0 61 -31.5 92t-105.5 31q-154 0 -315 -49v233q57 17 148.5 29t166.5 12q87 0 151.5 -9t109.5 -30t74.5 -49t46 -71.5t22.5 -91.5t6 -115v-406q0 -32 18 -48.5 t62 -16.5v-205h-119q-129 0 -176 84q-83 -102 -270 -102q-314 0 -314 327zM259 -141h293v-236h-293v236zM369 324q0 -51 27.5 -82t86.5 -31q40 0 68.5 15t42 39t19 47t5.5 46v93h-102q-147 0 -147 -127z" />
<glyph unicode="&#x1eae;" horiz-adv-x="1116" d="M31 0l327 1434h414l313 -1434h-288l-66 334h-342l-65 -334h-293zM233 1874h240q3 -49 27.5 -77t64.5 -28t65.5 29t26.5 76h240q-2 -47 -21 -95t-55.5 -95t-104 -77t-155.5 -30q-71 0 -128.5 20.5t-93 51.5t-59.5 72t-34.5 78.5t-12.5 74.5zM436 575h250l-127 678z M452 1997l213 276h325l-311 -276h-227z" />
<glyph unicode="&#x1eaf;" horiz-adv-x="1042" d="M92 309q0 181 109 261.5t325 80.5h92v43q0 61 -31.5 92t-105.5 31q-154 0 -315 -49v233q57 17 148.5 29t166.5 12q87 0 151.5 -9t109.5 -30t74.5 -49t46 -71.5t22.5 -91.5t6 -115v-406q0 -32 18 -48.5t62 -16.5v-205h-119q-129 0 -176 84q-83 -102 -270 -102 q-314 0 -314 327zM150 1462h239q3 -49 27.5 -76.5t64.5 -27.5t65.5 28.5t26.5 75.5h240q-2 -47 -21 -95t-55.5 -95t-104 -77t-155.5 -30q-71 0 -128.5 20.5t-92.5 51.5t-59.5 72t-34.5 78.5t-12 74.5zM368 1585l213 277h325l-311 -277h-227zM369 324q0 -51 27.5 -82 t86.5 -31q40 0 68.5 15t42 39t19 47t5.5 46v93h-102q-147 0 -147 -127z" />
<glyph unicode="&#x1eb0;" horiz-adv-x="1116" d="M31 0l327 1434h414l313 -1434h-288l-66 334h-342l-65 -334h-293zM140 2273h326l213 -276h-227zM233 1874h240q3 -49 27.5 -77t64.5 -28t65.5 29t26.5 76h240q-2 -47 -21 -95t-55.5 -95t-104 -77t-155.5 -30q-71 0 -128.5 20.5t-93 51.5t-59.5 72t-34.5 78.5t-12.5 74.5z M436 575h250l-127 678z" />
<glyph unicode="&#x1eb1;" horiz-adv-x="1042" d="M56 1862h326l213 -277h-227zM92 309q0 181 109 261.5t325 80.5h92v43q0 61 -31.5 92t-105.5 31q-154 0 -315 -49v233q57 17 148.5 29t166.5 12q87 0 151.5 -9t109.5 -30t74.5 -49t46 -71.5t22.5 -91.5t6 -115v-406q0 -32 18 -48.5t62 -16.5v-205h-119q-129 0 -176 84 q-83 -102 -270 -102q-314 0 -314 327zM150 1462h239q3 -49 27.5 -76.5t64.5 -27.5t65.5 28.5t26.5 75.5h240q-2 -47 -21 -95t-55.5 -95t-104 -77t-155.5 -30q-71 0 -128.5 20.5t-92.5 51.5t-59.5 72t-34.5 78.5t-12 74.5zM369 324q0 -51 27.5 -82t86.5 -31q40 0 68.5 15 t42 39t19 47t5.5 46v93h-102q-147 0 -147 -127z" />
<glyph unicode="&#x1eb4;" horiz-adv-x="1116" d="M31 0l327 1434h414l313 -1434h-288l-66 334h-342l-65 -334h-293zM227 2003v213q42 35 96.5 51.5t100.5 16.5q50 0 153.5 -40t141.5 -40q102 0 184 73v-213q-70 -67 -196 -67q-53 0 -153 40t-142 40q-51 0 -100.5 -21t-84.5 -53zM233 1874h240q3 -49 27.5 -77t64.5 -28 t65.5 29t26.5 76h240q-2 -47 -21 -95t-55.5 -95t-104 -77t-155.5 -30q-71 0 -128.5 20.5t-93 51.5t-59.5 72t-34.5 78.5t-12.5 74.5zM436 575h250l-127 678z" />
<glyph unicode="&#x1eb5;" horiz-adv-x="1042" d="M92 309q0 181 109 261.5t325 80.5h92v43q0 61 -31.5 92t-105.5 31q-154 0 -315 -49v233q57 17 148.5 29t166.5 12q87 0 151.5 -9t109.5 -30t74.5 -49t46 -71.5t22.5 -91.5t6 -115v-406q0 -32 18 -48.5t62 -16.5v-205h-119q-129 0 -176 84q-83 -102 -270 -102 q-314 0 -314 327zM143 1591v213q42 35 96.5 51.5t100.5 16.5q50 0 153.5 -40t141.5 -40q101 0 184 74v-213q-71 -68 -196 -68q-53 0 -153 40t-142 40q-51 0 -100.5 -21t-84.5 -53zM150 1462h239q3 -49 27.5 -76.5t64.5 -27.5t65.5 28.5t26.5 75.5h240q-2 -47 -21 -95 t-55.5 -95t-104 -77t-155.5 -30q-71 0 -128.5 20.5t-92.5 51.5t-59.5 72t-34.5 78.5t-12 74.5zM369 324q0 -51 27.5 -82t86.5 -31q40 0 68.5 15t42 39t19 47t5.5 46v93h-102q-147 0 -147 -127z" />
<glyph unicode="&#x1eb6;" horiz-adv-x="1116" d="M31 0l327 1434h414l313 -1434h-288l-66 334h-342l-65 -334h-293zM233 1874h240q3 -49 27.5 -77t64.5 -28t65.5 29t26.5 76h240q-2 -47 -21 -95t-55.5 -95t-104 -77t-155.5 -30q-71 0 -128.5 20.5t-93 51.5t-59.5 72t-34.5 78.5t-12.5 74.5zM412 -123h293v-235h-293v235z M436 575h250l-127 678z" />
<glyph unicode="&#x1eb7;" horiz-adv-x="1042" d="M92 309q0 181 109 261.5t325 80.5h92v43q0 61 -31.5 92t-105.5 31q-154 0 -315 -49v233q57 17 148.5 29t166.5 12q87 0 151.5 -9t109.5 -30t74.5 -49t46 -71.5t22.5 -91.5t6 -115v-406q0 -32 18 -48.5t62 -16.5v-205h-119q-129 0 -176 84q-83 -102 -270 -102 q-314 0 -314 327zM150 1462h239q3 -49 27.5 -76.5t64.5 -27.5t65.5 28.5t26.5 75.5h240q-2 -47 -21 -95t-55.5 -95t-104 -77t-155.5 -30q-71 0 -128.5 20.5t-92.5 51.5t-59.5 72t-34.5 78.5t-12 74.5zM259 -141h293v-236h-293v236zM369 324q0 -51 27.5 -82t86.5 -31 q40 0 68.5 15t42 39t19 47t5.5 46v93h-102q-147 0 -147 -127z" />
<glyph unicode="&#x1eb8;" horiz-adv-x="978" d="M143 0v1434h734v-222h-453v-362h401v-219h-401v-410h453v-221h-734zM364 -123h292v-235h-292v235z" />
<glyph unicode="&#x1eb9;" horiz-adv-x="1001" d="M102 512q0 277 106.5 403.5t313.5 126.5q114 0 190.5 -29.5t119 -91t60 -142t17.5 -195.5v-172h-530q6 -114 42 -155.5t128 -41.5q133 0 285 31v-230q-48 -13 -138 -23.5t-147 -10.5q-68 0 -118.5 5.5t-99.5 20t-83 39.5t-63 64.5t-46.5 95.5t-27 132t-9.5 173zM381 612 h266v54q0 76 -31 113.5t-98 37.5q-65 0 -96.5 -45.5t-40.5 -159.5zM402 -141h293v-236h-293v236z" />
<glyph unicode="&#x1ebc;" horiz-adv-x="978" d="M143 0v1434h734v-222h-453v-362h401v-219h-401v-410h453v-221h-734zM172 1583v213q42 35 96 51.5t101 16.5q50 0 153.5 -40t141.5 -40q101 0 184 74v-213q-71 -68 -197 -68q-53 0 -153 40t-142 40q-102 0 -184 -74z" />
<glyph unicode="&#x1ebd;" horiz-adv-x="1001" d="M102 512q0 277 106.5 403.5t313.5 126.5q114 0 190.5 -29.5t119 -91t60 -142t17.5 -195.5v-172h-530q6 -114 42 -155.5t128 -41.5q133 0 285 31v-230q-48 -13 -138 -23.5t-147 -10.5q-68 0 -118.5 5.5t-99.5 20t-83 39.5t-63 64.5t-46.5 95.5t-27 132t-9.5 173zM184 1171 v213q42 35 96 51.5t101 16.5q50 0 153.5 -40t141.5 -40q101 0 184 74v-213q-71 -68 -196 -68q-53 0 -153 40t-142 40q-51 0 -100.5 -21t-84.5 -53zM381 612h266v54q0 76 -31 113.5t-98 37.5q-65 0 -96.5 -45.5t-40.5 -159.5z" />
<glyph unicode="&#x1ebe;" horiz-adv-x="978" d="M129 1495l225 236h312l227 -236h-301l-82 125l-82 -125h-299zM143 0v1434h734v-222h-453v-362h401v-219h-401v-410h453v-221h-734zM396 1853l213 277h326l-311 -277h-228z" />
<glyph unicode="&#x1ebf;" horiz-adv-x="1001" d="M102 512q0 277 106.5 403.5t313.5 126.5q114 0 190.5 -29.5t119 -91t60 -142t17.5 -195.5v-172h-530q6 -114 42 -155.5t128 -41.5q133 0 285 31v-230q-48 -13 -138 -23.5t-147 -10.5q-68 0 -118.5 5.5t-99.5 20t-83 39.5t-63 64.5t-46.5 95.5t-27 132t-9.5 173zM104 1188 l250 276h303l252 -276h-301l-102 151l-103 -151h-299zM381 612h266v54q0 76 -31 113.5t-98 37.5q-65 0 -96.5 -45.5t-40.5 -159.5zM392 1587l213 277h326l-311 -277h-228z" />
<glyph unicode="&#x1ec0;" horiz-adv-x="978" d="M85 2130h326l213 -277h-228zM129 1495l225 236h312l227 -236h-301l-82 125l-82 -125h-299zM143 0v1434h734v-222h-453v-362h401v-219h-401v-410h453v-221h-734z" />
<glyph unicode="&#x1ec1;" horiz-adv-x="1001" d="M81 1864h326l213 -277h-228zM102 512q0 277 106.5 403.5t313.5 126.5q114 0 190.5 -29.5t119 -91t60 -142t17.5 -195.5v-172h-530q6 -114 42 -155.5t128 -41.5q133 0 285 31v-230q-48 -13 -138 -23.5t-147 -10.5q-68 0 -118.5 5.5t-99.5 20t-83 39.5t-63 64.5t-46.5 95.5 t-27 132t-9.5 173zM104 1188l250 276h303l252 -276h-301l-102 151l-103 -151h-299zM381 612h266v54q0 76 -31 113.5t-98 37.5q-65 0 -96.5 -45.5t-40.5 -159.5z" />
<glyph unicode="&#x1ec4;" horiz-adv-x="978" d="M129 1495l225 236h312l227 -236h-301l-82 125l-82 -125h-299zM143 0v1434h734v-222h-453v-362h401v-219h-401v-410h453v-221h-734zM172 1860v213q42 35 96 51t101 16q50 0 153.5 -40t141.5 -40q101 0 184 74v-213q-71 -68 -197 -68q-53 0 -153 40t-142 40 q-51 0 -100 -20.5t-84 -52.5z" />
<glyph unicode="&#x1ec5;" horiz-adv-x="1001" d="M102 512q0 277 106.5 403.5t313.5 126.5q114 0 190.5 -29.5t119 -91t60 -142t17.5 -195.5v-172h-530q6 -114 42 -155.5t128 -41.5q133 0 285 31v-230q-48 -13 -138 -23.5t-147 -10.5q-68 0 -118.5 5.5t-99.5 20t-83 39.5t-63 64.5t-46.5 95.5t-27 132t-9.5 173zM104 1188 l250 276h303l252 -276h-301l-102 151l-103 -151h-299zM168 1593v213q42 35 96 51.5t101 16.5q50 0 153 -40t141 -40q102 0 185 74v-213q-71 -68 -197 -68q-53 0 -153 40t-142 40q-102 0 -184 -74zM381 612h266v54q0 76 -31 113.5t-98 37.5q-65 0 -96.5 -45.5t-40.5 -159.5z " />
<glyph unicode="&#x1ec6;" horiz-adv-x="978" d="M108 1577l249 276h303l252 -276h-301l-102 152l-102 -152h-299zM143 0v1434h734v-222h-453v-362h401v-219h-401v-410h453v-221h-734zM364 -123h292v-235h-292v235z" />
<glyph unicode="&#x1ec7;" horiz-adv-x="1001" d="M102 512q0 277 106.5 403.5t313.5 126.5q114 0 190.5 -29.5t119 -91t60 -142t17.5 -195.5v-172h-530q6 -114 42 -155.5t128 -41.5q133 0 285 31v-230q-48 -13 -138 -23.5t-147 -10.5q-68 0 -118.5 5.5t-99.5 20t-83 39.5t-63 64.5t-46.5 95.5t-27 132t-9.5 173zM120 1165 l250 277h303l252 -277h-301l-103 152l-102 -152h-299zM381 612h266v54q0 76 -31 113.5t-98 37.5q-65 0 -96.5 -45.5t-40.5 -159.5zM402 -141h293v-236h-293v236z" />
<glyph unicode="&#x1eca;" horiz-adv-x="710" d="M72 0v217h143v1000h-143v217h567v-217h-143v-1000h143v-217h-567zM209 -123h293v-235h-293v235z" />
<glyph unicode="&#x1ecb;" horiz-adv-x="538" d="M123 -123h293v-235h-293v235zM123 1198v236h293v-236h-293zM133 0v1024h273v-1024h-273z" />
<glyph unicode="&#x1ecc;" horiz-adv-x="1163" d="M102 733q0 152 12 260.5t43.5 200t85.5 146t138 84.5t201 30q98 0 172 -19.5t127 -61t88 -99t55.5 -141.5t28.5 -179t8 -221q0 -114 -5 -200.5t-18.5 -168t-37 -139t-59.5 -106.5t-86.5 -78t-118 -45t-154.5 -16t-154.5 16t-118 45t-87 77.5t-59.5 106.5t-36.5 139.5 t-19 168t-5.5 200.5zM387 723q0 -208 19 -320.5t60 -157t116 -44.5t115.5 44.5t59.5 156.5t19 321q0 211 -19 320.5t-59 149.5t-116 40t-116 -40t-59.5 -150t-19.5 -320zM435 -143h293v-236h-293v236z" />
<glyph unicode="&#x1ecd;" horiz-adv-x="1085" d="M102 532q0 262 105 384t334 122q230 0 336 -122t106 -384q0 -159 -27.5 -266t-85.5 -168.5t-136.5 -86.5t-192.5 -25t-192 25t-135.5 86.5t-84.5 168t-27 266.5zM381 502q0 -172 33 -233.5t127 -61.5q95 0 129.5 62t34.5 233q0 179 -35.5 247t-128.5 68q-92 0 -126 -67.5 t-34 -247.5zM394 -137h293v-236h-293v236z" />
<glyph unicode="&#x1ed0;" horiz-adv-x="1163" d="M102 733q0 152 12 260.5t43.5 200t85.5 146t138 84.5t201 30q98 0 172 -19.5t127 -61t88 -99t55.5 -141.5t28.5 -179t8 -221q0 -114 -5 -200.5t-18.5 -168t-37 -139t-59.5 -106.5t-86.5 -78t-118 -45t-154.5 -16t-154.5 16t-118 45t-87 77.5t-59.5 106.5t-36.5 139.5 t-19 168t-5.5 200.5zM201 1495l225 236h311l228 -236h-301l-82 125l-82 -125h-299zM387 723q0 -208 19 -320.5t60 -157t116 -44.5t115.5 44.5t59.5 156.5t19 321q0 211 -19 320.5t-59 149.5t-116 40t-116 -40t-59.5 -150t-19.5 -320zM468 1853l213 277h326l-312 -277h-227z " />
<glyph unicode="&#x1ed1;" horiz-adv-x="1085" d="M102 532q0 262 105 384t334 122q230 0 336 -122t106 -384q0 -159 -27.5 -266t-85.5 -168.5t-136.5 -86.5t-192.5 -25t-192 25t-135.5 86.5t-84.5 168t-27 266.5zM141 1188l250 276h303l252 -276h-301l-102 151l-103 -151h-299zM381 502q0 -172 33 -233.5t127 -61.5 q95 0 129.5 62t34.5 233q0 179 -35.5 247t-128.5 68q-92 0 -126 -67.5t-34 -247.5zM429 1587l213 277h326l-312 -277h-227z" />
<glyph unicode="&#x1ed2;" horiz-adv-x="1163" d="M102 733q0 152 12 260.5t43.5 200t85.5 146t138 84.5t201 30q98 0 172 -19.5t127 -61t88 -99t55.5 -141.5t28.5 -179t8 -221q0 -114 -5 -200.5t-18.5 -168t-37 -139t-59.5 -106.5t-86.5 -78t-118 -45t-154.5 -16t-154.5 16t-118 45t-87 77.5t-59.5 106.5t-36.5 139.5 t-19 168t-5.5 200.5zM157 2130h325l213 -277h-227zM201 1495l225 236h311l228 -236h-301l-82 125l-82 -125h-299zM387 723q0 -208 19 -320.5t60 -157t116 -44.5t115.5 44.5t59.5 156.5t19 321q0 211 -19 320.5t-59 149.5t-116 40t-116 -40t-59.5 -150t-19.5 -320z" />
<glyph unicode="&#x1ed3;" horiz-adv-x="1085" d="M102 532q0 262 105 384t334 122q230 0 336 -122t106 -384q0 -159 -27.5 -266t-85.5 -168.5t-136.5 -86.5t-192.5 -25t-192 25t-135.5 86.5t-84.5 168t-27 266.5zM118 1864h325l213 -277h-227zM141 1188l250 276h303l252 -276h-301l-102 151l-103 -151h-299zM381 502 q0 -172 33 -233.5t127 -61.5q95 0 129.5 62t34.5 233q0 179 -35.5 247t-128.5 68q-92 0 -126 -67.5t-34 -247.5z" />
<glyph unicode="&#x1ed6;" horiz-adv-x="1163" d="M102 733q0 152 12 260.5t43.5 200t85.5 146t138 84.5t201 30q98 0 172 -19.5t127 -61t88 -99t55.5 -141.5t28.5 -179t8 -221q0 -114 -5 -200.5t-18.5 -168t-37 -139t-59.5 -106.5t-86.5 -78t-118 -45t-154.5 -16t-154.5 16t-118 45t-87 77.5t-59.5 106.5t-36.5 139.5 t-19 168t-5.5 200.5zM201 1495l225 236h311l228 -236h-301l-82 125l-82 -125h-299zM244 1860v213q80 67 196 67q50 0 153.5 -40t141.5 -40q102 0 185 74v-213q-71 -68 -197 -68q-53 0 -153 40t-142 40q-51 0 -100 -20.5t-84 -52.5zM387 723q0 -208 19 -320.5t60 -157 t116 -44.5t115.5 44.5t59.5 156.5t19 321q0 211 -19 320.5t-59 149.5t-116 40t-116 -40t-59.5 -150t-19.5 -320z" />
<glyph unicode="&#x1ed7;" horiz-adv-x="1085" d="M102 532q0 262 105 384t334 122q230 0 336 -122t106 -384q0 -159 -27.5 -266t-85.5 -168.5t-136.5 -86.5t-192.5 -25t-192 25t-135.5 86.5t-84.5 168t-27 266.5zM141 1188l250 276h303l252 -276h-301l-102 151l-103 -151h-299zM205 1593v213q42 35 96 51.5t100 16.5 q50 0 153.5 -40t141.5 -40q102 0 185 74v-213q-71 -68 -197 -68q-53 0 -153 40t-142 40q-102 0 -184 -74zM381 502q0 -172 33 -233.5t127 -61.5q95 0 129.5 62t34.5 233q0 179 -35.5 247t-128.5 68q-92 0 -126 -67.5t-34 -247.5z" />
<glyph unicode="&#x1ed8;" horiz-adv-x="1163" d="M102 733q0 152 12 260.5t43.5 200t85.5 146t138 84.5t201 30q98 0 172 -19.5t127 -61t88 -99t55.5 -141.5t28.5 -179t8 -221q0 -114 -5 -200.5t-18.5 -168t-37 -139t-59.5 -106.5t-86.5 -78t-118 -45t-154.5 -16t-154.5 16t-118 45t-87 77.5t-59.5 106.5t-36.5 139.5 t-19 168t-5.5 200.5zM179 1577l250 276h303l252 -276h-301l-102 152l-103 -152h-299zM387 723q0 -208 19 -320.5t60 -157t116 -44.5t115.5 44.5t59.5 156.5t19 321q0 211 -19 320.5t-59 149.5t-116 40t-116 -40t-59.5 -150t-19.5 -320zM435 -143h293v-236h-293v236z" />
<glyph unicode="&#x1ed9;" horiz-adv-x="1085" d="M102 532q0 262 105 384t334 122q230 0 336 -122t106 -384q0 -159 -27.5 -266t-85.5 -168.5t-136.5 -86.5t-192.5 -25t-192 25t-135.5 86.5t-84.5 168t-27 266.5zM138 1161l250 277h303l252 -277h-301l-102 152l-103 -152h-299zM381 502q0 -172 33 -233.5t127 -61.5 q95 0 129.5 62t34.5 233q0 179 -35.5 247t-128.5 68q-92 0 -126 -67.5t-34 -247.5zM394 -137h293v-236h-293v236z" />
<glyph unicode="&#x1eda;" horiz-adv-x="1347" d="M102 733q0 152 12 260.5t43.5 200t85.5 146t138 84.5t201 30q98 0 172 -19.5t127 -61t88 -99t55.5 -141.5t28.5 -179t8 -221q0 -114 -5 -200.5t-18.5 -168t-37 -139t-59.5 -106.5t-86.5 -78t-118 -45t-154.5 -16t-154.5 16t-118 45t-87 77.5t-59.5 106.5t-36.5 139.5 t-19 168t-5.5 200.5zM387 723q0 -208 19 -320.5t60 -157t116 -44.5t115.5 44.5t59.5 156.5t19 321q0 211 -19 320.5t-59 149.5t-116 40t-116 -40t-59.5 -150t-19.5 -320zM498 1577l213 276h325l-311 -276h-227zM1126 881l82 307v266h308v-266l-189 -307h-201z" />
<glyph unicode="&#x1edb;" horiz-adv-x="1380" d="M102 532q0 262 105 384t334 122q230 0 336 -122t106 -384q0 -159 -27.5 -266t-85.5 -168.5t-136.5 -86.5t-192.5 -25t-192 25t-135.5 86.5t-84.5 168t-27 266.5zM381 502q0 -172 33 -233.5t127 -61.5q95 0 129.5 62t34.5 233q0 179 -35.5 247t-128.5 68q-92 0 -126 -67.5 t-34 -247.5zM432 1161l213 277h326l-312 -277h-227zM1049 465l81 307v266h308v-266l-189 -307h-200z" />
<glyph unicode="&#x1edc;" horiz-adv-x="1347" d="M102 733q0 152 12 260.5t43.5 200t85.5 146t138 84.5t201 30q98 0 172 -19.5t127 -61t88 -99t55.5 -141.5t28.5 -179t8 -221q0 -114 -5 -200.5t-18.5 -168t-37 -139t-59.5 -106.5t-86.5 -78t-118 -45t-154.5 -16t-154.5 16t-118 45t-87 77.5t-59.5 106.5t-36.5 139.5 t-19 168t-5.5 200.5zM174 1853h326l213 -276h-228zM387 723q0 -208 19 -320.5t60 -157t116 -44.5t115.5 44.5t59.5 156.5t19 321q0 211 -19 320.5t-59 149.5t-116 40t-116 -40t-59.5 -150t-19.5 -320zM1126 881l82 307v266h308v-266l-189 -307h-201z" />
<glyph unicode="&#x1edd;" horiz-adv-x="1380" d="M102 532q0 262 105 384t334 122q230 0 336 -122t106 -384q0 -159 -27.5 -266t-85.5 -168.5t-136.5 -86.5t-192.5 -25t-192 25t-135.5 86.5t-84.5 168t-27 266.5zM141 1438h326l213 -277h-227zM381 502q0 -172 33 -233.5t127 -61.5q95 0 129.5 62t34.5 233 q0 179 -35.5 247t-128.5 68q-92 0 -126 -67.5t-34 -247.5zM1049 465l81 307v266h308v-266l-189 -307h-200z" />
<glyph unicode="&#x1ee0;" horiz-adv-x="1347" d="M102 733q0 152 12 260.5t43.5 200t85.5 146t138 84.5t201 30q98 0 172 -19.5t127 -61t88 -99t55.5 -141.5t28.5 -179t8 -221q0 -114 -5 -200.5t-18.5 -168t-37 -139t-59.5 -106.5t-86.5 -78t-118 -45t-154.5 -16t-154.5 16t-118 45t-87 77.5t-59.5 106.5t-36.5 139.5 t-19 168t-5.5 200.5zM274 1583v213q42 35 96 51.5t101 16.5q50 0 153.5 -40t141.5 -40q101 0 184 74v-213q-71 -68 -196 -68q-53 0 -153 40t-142 40q-51 0 -100.5 -21t-84.5 -53zM387 723q0 -208 19 -320.5t60 -157t116 -44.5t115.5 44.5t59.5 156.5t19 321q0 211 -19 320.5 t-59 149.5t-116 40t-116 -40t-59.5 -150t-19.5 -320zM1126 881l82 307v266h308v-266l-189 -307h-201z" />
<glyph unicode="&#x1ee1;" horiz-adv-x="1380" d="M102 532q0 262 105 384t334 122q230 0 336 -122t106 -384q0 -159 -27.5 -266t-85.5 -168.5t-136.5 -86.5t-192.5 -25t-192 25t-135.5 86.5t-84.5 168t-27 266.5zM213 1167v213q42 35 96.5 51.5t100.5 16.5q50 0 153.5 -40t141.5 -40q101 0 184 74v-213q-71 -68 -197 -68 q-53 0 -153 40t-142 40q-102 0 -184 -74zM381 502q0 -172 33 -233.5t127 -61.5q95 0 129.5 62t34.5 233q0 179 -35.5 247t-128.5 68q-92 0 -126 -67.5t-34 -247.5zM1049 465l81 307v266h308v-266l-189 -307h-200z" />
<glyph unicode="&#x1ee2;" horiz-adv-x="1347" d="M102 733q0 152 12 260.5t43.5 200t85.5 146t138 84.5t201 30q98 0 172 -19.5t127 -61t88 -99t55.5 -141.5t28.5 -179t8 -221q0 -114 -5 -200.5t-18.5 -168t-37 -139t-59.5 -106.5t-86.5 -78t-118 -45t-154.5 -16t-154.5 16t-118 45t-87 77.5t-59.5 106.5t-36.5 139.5 t-19 168t-5.5 200.5zM387 723q0 -208 19 -320.5t60 -157t116 -44.5t115.5 44.5t59.5 156.5t19 321q0 211 -19 320.5t-59 149.5t-116 40t-116 -40t-59.5 -150t-19.5 -320zM435 -143h293v-236h-293v236zM1126 881l82 307v266h308v-266l-189 -307h-201z" />
<glyph unicode="&#x1ee3;" horiz-adv-x="1380" d="M102 532q0 262 105 384t334 122q230 0 336 -122t106 -384q0 -159 -27.5 -266t-85.5 -168.5t-136.5 -86.5t-192.5 -25t-192 25t-135.5 86.5t-84.5 168t-27 266.5zM381 502q0 -172 33 -233.5t127 -61.5q95 0 129.5 62t34.5 233q0 179 -35.5 247t-128.5 68q-92 0 -126 -67.5 t-34 -247.5zM394 -137h293v-236h-293v236zM1049 465l81 307v266h308v-266l-189 -307h-200z" />
<glyph unicode="&#x1ee4;" horiz-adv-x="1136" d="M133 440v994h281v-1033q0 -174 155 -174q154 0 154 174v1033h281v-994q0 -126 -28.5 -214t-86 -140.5t-135.5 -76t-185 -23.5t-185 23.5t-135.5 75.5t-86.5 140.5t-29 214.5zM423 -137h293v-236h-293v236z" />
<glyph unicode="&#x1ee5;" horiz-adv-x="1060" d="M123 381v643h272v-651q0 -96 27.5 -126t87.5 -30q72 0 108.5 45.5t36.5 108.5v653h273v-1024h-221l-19 80q-101 -98 -244 -98q-95 0 -158 24t-98.5 76.5t-50 123t-14.5 175.5zM298 -141h293v-236h-293v236z" />
<glyph unicode="&#x1ee8;" horiz-adv-x="1280" d="M133 440v994h281v-1033q0 -174 155 -174q154 0 154 174v1033h281v-994q0 -126 -28.5 -214t-86 -140.5t-135.5 -76t-185 -23.5t-185 23.5t-135.5 75.5t-86.5 140.5t-29 214.5zM465 1577l213 276h326l-312 -276h-227zM1065 881l82 307v266h307v-266l-188 -307h-201z" />
<glyph unicode="&#x1ee9;" horiz-adv-x="1269" d="M123 381v643h272v-651q0 -96 27.5 -126t87.5 -30q72 0 108.5 45.5t36.5 108.5v653h273v-1024h-221l-19 80q-101 -98 -244 -98q-95 0 -158 24t-98.5 76.5t-50 123t-14.5 175.5zM412 1161l213 277h325l-311 -277h-227zM989 465l82 307v266h307v-266l-188 -307h-201z" />
<glyph unicode="&#x1eea;" horiz-adv-x="1136" d="M133 440v994h281v-1033q0 -174 155 -174q154 0 154 174v1033h281v-994q0 -126 -28.5 -214t-86 -140.5t-135.5 -76t-185 -23.5t-185 23.5t-135.5 75.5t-86.5 140.5t-29 214.5zM162 1853h325l213 -276h-227zM1065 881l82 307v266h307v-266l-188 -307h-201z" />
<glyph unicode="&#x1eeb;" horiz-adv-x="1269" d="M80 1438h326l212 -277h-227zM123 381v643h272v-651q0 -96 27.5 -126t87.5 -30q72 0 108.5 45.5t36.5 108.5v653h273v-1024h-221l-19 80q-101 -98 -244 -98q-95 0 -158 24t-98.5 76.5t-50 123t-14.5 175.5zM989 465l82 307v266h307v-266l-188 -307h-201z" />
<glyph unicode="&#x1eee;" horiz-adv-x="1275" d="M133 440v994h281v-1033q0 -174 155 -174q154 0 154 174v1033h281v-994q0 -126 -28.5 -214t-86 -140.5t-135.5 -76t-185 -23.5t-185 23.5t-135.5 75.5t-86.5 140.5t-29 214.5zM225 1583v213q42 35 96.5 51.5t100.5 16.5q50 0 153.5 -40t141.5 -40q101 0 184 74v-213 q-71 -68 -196 -68q-53 0 -153 40t-142 40q-51 0 -100.5 -21t-84.5 -53zM1065 881l82 307v266h307v-266l-188 -307h-201z" />
<glyph unicode="&#x1eef;" horiz-adv-x="1269" d="M123 381v643h272v-651q0 -96 27.5 -126t87.5 -30q72 0 108.5 45.5t36.5 108.5v653h273v-1024h-221l-19 80q-101 -98 -244 -98q-95 0 -158 24t-98.5 76.5t-50 123t-14.5 175.5zM197 1167v213q42 35 96 51.5t100 16.5q50 0 153.5 -40t141.5 -40q101 0 184 74v-213 q-71 -68 -196 -68q-53 0 -153 40t-142 40q-102 0 -184 -74zM989 465l82 307v266h307v-266l-188 -307h-201z" />
<glyph unicode="&#x1ef0;" horiz-adv-x="1136" d="M133 440v994h281v-1033q0 -174 155 -174q154 0 154 174v1033h281v-994q0 -126 -28.5 -214t-86 -140.5t-135.5 -76t-185 -23.5t-185 23.5t-135.5 75.5t-86.5 140.5t-29 214.5zM423 -137h293v-236h-293v236zM1065 881l82 307v266h307v-266l-188 -307h-201z" />
<glyph unicode="&#x1ef1;" horiz-adv-x="1060" d="M123 381v643h272v-651q0 -96 27.5 -126t87.5 -30q72 0 108.5 45.5t36.5 108.5v653h273v-1024h-221l-19 80q-101 -98 -244 -98q-95 0 -158 24t-98.5 76.5t-50 123t-14.5 175.5zM298 -141h293v-236h-293v236zM989 465l82 307v266h307v-266l-188 -307h-201z" />
<glyph unicode="&#x1ef2;" horiz-adv-x="1087" d="M20 1434h304l227 -553l227 553h289l-383 -803v-631h-287v631zM119 1853h325l213 -276h-227z" />
<glyph unicode="&#x1ef3;" horiz-adv-x="1009" d="M41 1024h291l198 -797l175 797h264l-262 -1110q-65 -276 -291 -276q-122 0 -185 10v231q49 -6 101 -6q84 0 100 90l6 37h-69zM80 1438h326l212 -277h-227z" />
<glyph unicode="&#x1ef4;" horiz-adv-x="1087" d="M20 1434h304l227 -553l227 553h289l-383 -803v-631h-287v631zM394 -123h293v-235h-293v235z" />
<glyph unicode="&#x1ef5;" horiz-adv-x="1009" d="M41 1024h291l198 -797l175 797h264l-262 -1110q-65 -276 -291 -276q-122 0 -185 10v231q49 -6 101 -6q84 0 100 90l6 37h-69zM269 -485h293v-236h-293v236z" />
<glyph unicode="&#x1ef8;" horiz-adv-x="1087" d="M20 1434h304l227 -553l227 553h289l-383 -803v-631h-287v631zM206 1583v213q42 35 96 51.5t100 16.5q50 0 153.5 -40t141.5 -40q102 0 185 74v-213q-71 -68 -197 -68q-53 0 -153 40t-142 40q-102 0 -184 -74z" />
<glyph unicode="&#x1ef9;" horiz-adv-x="1009" d="M41 1024h291l198 -797l175 797h264l-262 -1110q-65 -276 -291 -276q-122 0 -185 10v231q49 -6 101 -6q84 0 100 90l6 37h-69zM167 1167v213q42 35 96.5 51.5t100.5 16.5q50 0 153 -40t141 -40q102 0 185 74v-213q-71 -68 -197 -68q-53 0 -153 40t-142 40q-102 0 -184 -74 z" />
<glyph unicode="&#x2013;" horiz-adv-x="1126" d="M154 502v235h819v-235h-819z" />
<glyph unicode="&#x2014;" horiz-adv-x="1239" d="M113 502v235h1013v-235h-1013z" />
<glyph unicode="&#x2018;" horiz-adv-x="481" d="M82 885v225l143 322h195l-62 -322v-225h-276z" />
<glyph unicode="&#x2019;" horiz-adv-x="481" d="M61 887l62 321v226h276v-226l-143 -321h-195z" />
<glyph unicode="&#x201a;" horiz-adv-x="481" d="M61 -322l62 322v225h276v-225l-143 -322h-195z" />
<glyph unicode="&#x201c;" horiz-adv-x="829" d="M82 885v225l143 322h195l-62 -322v-225h-276zM430 885v225l143 322h195l-61 -322v-225h-277z" />
<glyph unicode="&#x201d;" horiz-adv-x="808" d="M61 887l62 321v226h276v-226l-143 -321h-195zM410 887l61 321v226h277v-226l-144 -321h-194z" />
<glyph unicode="&#x201e;" horiz-adv-x="808" d="M61 -322l62 322v225h276v-225l-143 -322h-195zM410 -322l61 322v225h277v-225l-144 -322h-194z" />
<glyph unicode="&#x2020;" horiz-adv-x="962" d="M102 788v236h248v410h266v-410h246v-236h-246v-788h-266v788h-248z" />
<glyph unicode="&#x2021;" horiz-adv-x="962" d="M102 410v235h248v164h-248v235h248v390h266v-390h246v-235h-246v-164h246v-235h-246v-410h-266v410h-248z" />
<glyph unicode="&#x2022;" horiz-adv-x="624" d="M102 440v400h420v-400h-420z" />
<glyph unicode="&#x2026;" horiz-adv-x="1536" d="M102 0v266h308v-266h-308zM614 0v266h308v-266h-308zM1126 0v266h308v-266h-308z" />
<glyph unicode="&#x2030;" horiz-adv-x="2598" d="M133 1024q0 82 8 143.5t29.5 117t57 91t92.5 56t135 20.5t135 -20.5t92.5 -56t56.5 -91t29 -117t8 -143.5t-8 -145t-29 -121t-56.5 -96t-93 -60t-134.5 -22t-134.5 22t-93 60t-57 96t-29.5 121t-8 145zM356 1016q0 -154 19 -204t80 -50t79.5 50t18.5 204q0 108 -8 160 t-28.5 73t-61.5 21q-42 0 -62 -20t-28.5 -72.5t-8.5 -161.5zM567 0l502 1434h242l-502 -1434h-242zM1100 426q0 82 8 143.5t29 117t56.5 91t92.5 56t135 20.5t135 -20.5t92.5 -56t57 -91t29.5 -117t8 -143.5t-8 -145t-29.5 -121t-57 -96t-93 -60t-134.5 -22t-134.5 22 t-93 60t-56.5 96t-29 121t-8 145zM1323 418q0 -154 18.5 -204t79.5 -50t80 50t19 204q0 107 -8.5 160t-29 73.5t-61.5 20.5q-42 0 -61.5 -20t-28 -72t-8.5 -162zM1823 426q0 82 8 143.5t29 117t56.5 91t92.5 56t135 20.5t135 -20.5t92.5 -56t57 -91t29.5 -117t8 -143.5 t-8 -145t-29.5 -121t-57 -96t-93 -60t-134.5 -22t-134.5 22t-93 60t-56.5 96t-29 121t-8 145zM2046 418q0 -154 18.5 -204t79.5 -50t80 50t19 204q0 107 -8.5 160t-29 73.5t-61.5 20.5q-42 0 -61.5 -20t-28 -72t-8.5 -162z" />
<glyph unicode="&#x2039;" horiz-adv-x="604" d="M102 612l179 424h221l-125 -424l125 -424h-221z" />
<glyph unicode="&#x203a;" horiz-adv-x="604" d="M102 188l125 424l-125 424h222l178 -424l-178 -424h-222z" />
<glyph unicode="&#x203c;" horiz-adv-x="1105" d="M123 0v266h307v-266h-307zM137 467v967h277v-967h-277zM676 0v266h307v-266h-307zM690 467v967h277v-967h-277z" />
<glyph unicode="&#x2044;" horiz-adv-x="471" d="M-205 -205l635 1864h244l-635 -1864h-244z" />
<glyph unicode="&#x20ac;" horiz-adv-x="962" d="M51 475l41 191h109v137h-150l41 190h119q9 98 26.5 170.5t45.5 123t61.5 83t82.5 50.5t100 25t122 7q40 0 120.5 -10.5t104.5 -18.5l-49 -237q-102 20 -202 20q-43 0 -68 -15t-42 -62t-24 -136h304l-39 -190h-273v-137h246l-37 -191h-201q9 -101 29.5 -156t49 -73.5 t75.5 -18.5q99 0 231 31v-246q-37 -10 -110 -20t-121 -10q-104 0 -174.5 21t-126.5 75.5t-87 151.5t-44 245h-160z" />
<glyph unicode="&#x2122;" horiz-adv-x="1658" d="M61 1247v187h977l82 -400l74 400h352v-1037h-213v856l-123 -514h-200l-111 514v-856h-215v850h-184v-850h-221v850h-218z" />
<glyph unicode="&#x2126;" horiz-adv-x="1163" d="M102 0v221h88q-88 177 -88 512q0 152 12 260.5t43.5 200t85.5 146t138 84.5t201 30q98 0 172 -19.5t127 -61t88 -99t55.5 -141.5t28.5 -179t8 -221q0 -338 -82 -512h86v-221h-395v221q58 37 82 151t24 351q0 211 -19 320.5t-59 149.5t-116 40t-116 -40t-59.5 -150 t-19.5 -320q0 -242 25 -355t86 -147v-221h-396z" />
<glyph unicode="&#x2202;" horiz-adv-x="962" d="M72 430q0 127 16 217t55 158.5t107.5 101.5t169.5 33q95 0 186 -53q-6 137 -29 210t-67 101.5t-125 28.5q-95 0 -223 -29v229q32 8 101 16.5t114 8.5q106 0 183 -19t140.5 -67t102 -128.5t59.5 -204t21 -294.5q0 -223 -23.5 -367.5t-77.5 -232t-134 -122.5t-202 -35 q-41 0 -80.5 8t-83.5 26t-80.5 52.5t-66 82t-46.5 119.5t-17 160zM344 453q0 -101 13.5 -154.5t40 -72.5t75.5 -19q50 0 77 31t43 136.5t17 309.5q-76 35 -141 35q-66 0 -95.5 -65t-29.5 -201z" />
<glyph unicode="&#x2206;" horiz-adv-x="1105" d="M31 0l329 1434h400l315 -1434h-1044zM360 231h385l-186 986z" />
<glyph unicode="&#x220f;" horiz-adv-x="1216" d="M72 1198v236h1073v-236h-184v-897q0 -39 14.5 -57.5t52.5 -18.5q25 0 55 6v-225q-68 -14 -168 -14q-68 0 -115 23.5t-71.5 67.5t-34.5 94t-10 114v907h-174v-1198h-277v1198h-161z" />
<glyph unicode="&#x2211;" horiz-adv-x="962" d="M82 -74l344 621l-317 610v277h739v-236h-457l332 -651l-363 -662h510v-233h-788v274z" />
<glyph unicode="&#x2212;" horiz-adv-x="1126" d="M143 502v235h840v-235h-840z" />
<glyph unicode="&#x2215;" horiz-adv-x="471" d="M-205 -205l635 1864h244l-635 -1864h-244z" />
<glyph unicode="&#x2219;" horiz-adv-x="512" d="M102 500v266h308v-266h-308z" />
<glyph unicode="&#x221a;" horiz-adv-x="1228" d="M41 803h285l178 -606l332 1482h424v-235h-191l-340 -1444h-446z" />
<glyph unicode="&#x221e;" horiz-adv-x="1495" d="M70 676q0 356 383 356q181 0 282 -133q47 60 126 96.5t179 36.5q383 0 383 -356q0 -168 -91.5 -262.5t-291.5 -94.5q-178 0 -284 132q-47 -59 -126 -95.5t-177 -36.5q-200 0 -291.5 94.5t-91.5 262.5zM313 676q0 -71 39.5 -108.5t96.5 -37.5q82 0 128 36.5t46 129.5 q-18 69 -67 97t-107 28q-57 0 -96.5 -37.5t-39.5 -107.5zM870 655q18 -69 67 -97t107 -28q57 0 96.5 38t39.5 108q0 71 -39.5 108t-96.5 37q-82 0 -128 -36.5t-46 -129.5z" />
<glyph unicode="&#x2224;" horiz-adv-x="512" d="M102 500v266h308v-266h-308z" />
<glyph unicode="&#x2227;" horiz-adv-x="512" d="M102 500v266h308v-266h-308z" />
<glyph unicode="&#x222b;" horiz-adv-x="675" d="M-51 -256q53 -6 129 -6q56 0 76 19t20 73v1522q0 104 18.5 172.5t59.5 106t95.5 52.5t135.5 15q96 0 224 -25v-231q-95 22 -172 22q-48 0 -68.5 -24t-20.5 -70v-1530q0 -191 -73.5 -263.5t-249.5 -72.5q-73 0 -174 11v229z" />
<glyph unicode="&#x2248;" horiz-adv-x="1044" d="M154 295v242q117 71 213 71q56 0 166.5 -40t162.5 -40q93 0 195 70v-242q-106 -71 -213 -71q-58 0 -163 42t-163 42q-90 0 -198 -74zM154 641v242q117 71 213 71q56 0 166.5 -40t162.5 -40q93 0 195 70v-242q-106 -71 -213 -71q-58 0 -163 42t-163 42q-90 0 -198 -74z " />
<glyph unicode="&#x2260;" horiz-adv-x="1126" d="M154 102l104 195h-104v235h233l94 175h-327v235h456l107 195h256l-107 -195h107v-235h-236l-94 -175h330v-235h-459l-104 -195h-256z" />
<glyph unicode="&#x2264;" horiz-adv-x="1126" d="M154 0v236h819v-236h-819zM154 541v333l819 320v-268l-592 -211l592 -164v-272z" />
<glyph unicode="&#x2265;" horiz-adv-x="1126" d="M154 0v236h819v-236h-819zM154 279v272l591 164l-591 211v268l819 -320v-333z" />
<glyph unicode="&#x22c5;" horiz-adv-x="512" d="M102 500v266h308v-266h-308z" />
<glyph unicode="&#x25af;" horiz-adv-x="1069" d="M133 0v1434h803v-1434h-803zM369 209h331v1016h-331v-1016z" />
<glyph unicode="&#x25ca;" horiz-adv-x="1011" d="M51 717l264 717h381l265 -717l-265 -717h-385zM342 717l164 -506l164 506l-164 506z" />
<glyph unicode="&#xe000;" horiz-adv-x="1024" d="M0 0v1024h1024v-1024h-1024z" />
</font>
</defs>
</svg>
