<?xml version="1.0" standalone="no"?>
<!DOCTYPE svg PUBLIC "-//W3C//DTD SVG 1.1//EN" "http://www.w3.org/Graphics/SVG/1.1/DTD/svg11.dtd" >
<svg xmlns="http://www.w3.org/2000/svg">
<metadata></metadata>
<defs>
<font id="share-bolditalicregular" horiz-adv-x="1085" >
<font-face units-per-em="2048" ascent="1655" descent="-393" />
<missing-glyph horiz-adv-x="573" />
<glyph unicode="fi" horiz-adv-x="1112" d="M160 -37l71 830h-133l21 231h133l8 82q11 106 36 173t72.5 105.5t111 53t161.5 14.5q185 0 365 -37l-21 -231q-151 35 -313 35q-59 0 -89 -12t-37 -29t-11 -54l-9 -100h521l-89 -1024h-272l68 793h-248l-72 -820q-9 -101 -32 -166t-67.5 -102.5t-104 -52t-150.5 -14.5 q-80 0 -172 10l20 231q70 -8 127 -8q56 0 78.5 19t26.5 73z" />
<glyph unicode="fl" horiz-adv-x="1167" d="M1114 233l-18 -227q-77 -16 -189 -16q-113 0 -156.5 51t-43.5 166q0 26 4 96l43 490h-248l-72 -820q-9 -101 -32 -166t-67.5 -102.5t-104 -52t-150.5 -14.5q-80 0 -172 10l20 231q70 -8 127 -8q56 0 78.5 19t26.5 73l71 830h-133l21 231h133l8 82q11 106 36 173 t72.5 105.5t111 53t161.5 14.5q93 0 170 -18h272l-94 -1074q-6 -62 -6 -75q0 -33 12.5 -46.5t44.5 -13.5q34 0 74 8zM535 1124l-9 -100h248l17 188q-65 7 -119 7q-59 0 -89 -12t-37 -29t-11 -54z" />
<glyph unicode="&#xd;" horiz-adv-x="573" />
<glyph unicode=" "  horiz-adv-x="573" />
<glyph unicode="&#x09;" horiz-adv-x="573" />
<glyph unicode="&#xa0;" horiz-adv-x="573" />
<glyph unicode="!" horiz-adv-x="552" d="M410 0h-308l23 266h307zM432 467h-276l86 967h276z" />
<glyph unicode="&#x22;" horiz-adv-x="860" d="M463 1208l-90 -321h-174l-33 321l20 226h297zM862 1208l-90 -321h-174l-33 321l21 226h297z" />
<glyph unicode="#" horiz-adv-x="1015" d="M575 584l25 286h-123l-24 -286h122zM938 348h-123l-29 -348h-260l29 348h-123l-29 -348h-260l29 348h-123l21 236h123l24 286h-123l21 236h123l28 328h260l-28 -328h123l28 328h260l-28 -328h123l-21 -236h-123l-24 -286h122z" />
<glyph unicode="$" horiz-adv-x="962" d="M578 -225h-256l18 211q-140 3 -231 28l22 244q118 -31 240 -31q116 0 166.5 49.5t50.5 157.5q0 142 -150 172q-268 57 -268 326q0 344 289 428l22 237h256l-20 -213q107 -7 190 -28l-20 -242q-132 31 -252 31q-89 0 -132.5 -32.5t-43.5 -129.5q0 -60 29.5 -95t99.5 -50 q70 -14 120.5 -38.5t89 -65t57.5 -101t19 -141.5q0 -401 -276 -482z" />
<glyph unicode="%" horiz-adv-x="1875" d="M621 1016q8 106 8 127q0 73 -19 100t-65 27q-61 0 -84.5 -48t-36.5 -206q-8 -106 -8 -129q0 -72 18.5 -98.5t65.5 -26.5q61 0 84 50t37 204zM844 1024q-8 -84 -19.5 -145t-37 -121t-63.5 -96.5t-98.5 -59t-142.5 -22.5q-155 0 -220.5 90t-65.5 254q0 99 8.5 174 t32.5 144.5t64 113.5t105 70t154 26q156 0 221.5 -83.5t65.5 -244.5q0 -65 -4 -100zM1415 1434l-627 -1434h-241l627 1434h241zM1534 418q8 106 8 127q0 73 -19 100t-65 27q-61 0 -84.5 -48t-36.5 -206q-6 -77 -6 -127q0 -73 18 -100t64 -27q61 0 85 50.5t36 203.5z M1757 426q-8 -85 -19.5 -145.5t-37 -120.5t-63 -96.5t-98 -59t-142.5 -22.5q-155 0 -221 90t-66 254q0 99 8.5 174t32.5 144.5t64.5 113.5t105.5 70t154 26q156 0 221 -83.5t65 -244.5q0 -65 -4 -100z" />
<glyph unicode="&#x26;" horiz-adv-x="1054" d="M111 459q15 167 58 244t138 118q-58 33 -87.5 99.5t-29.5 136.5v18q10 113 39 187t81.5 115t119.5 57t166 16q152 0 285 -27l-21 -233q-23 6 -103.5 17.5t-121.5 11.5q-100 0 -134 -36t-34 -143q0 -69 32 -94.5t117 -25.5h467l-20 -232h-150l-59 -661q-209 -47 -405 -47 q-179 0 -262 88t-83 274q0 56 7 117zM565 688q-62 0 -100 -25.5t-60 -98.5t-22 -202q0 -77 28 -114t93 -37q64 0 108 14l41 463h-88z" />
<glyph unicode="'" horiz-adv-x="460" d="M463 1208l-90 -321h-174l-33 321l20 226h297z" />
<glyph unicode="(" horiz-adv-x="665" d="M123 717q26 298 103.5 528.5t230.5 433.5h241q-140 -208 -205.5 -429t-93.5 -533q-14 -148 -14 -295q0 -193 33.5 -353.5t111.5 -314.5h-221q-194 334 -194 764q0 106 8 199z" />
<glyph unicode=")" horiz-adv-x="665" d="M625 717q-26 -298 -103.5 -529t-230.5 -434h-242q140 207 205.5 429t93.5 534q14 148 14 295q0 193 -33.5 353t-111.5 314h221q195 -336 195 -764q0 -105 -8 -198z" />
<glyph unicode="*" horiz-adv-x="1075" d="M1034 1061l-274 -45l198 -242l-217 -151l-163 280q-28 -45 -86 -146t-82 -139l-213 160l202 234q-54 12 -158 31t-118 22l86 250l266 -117q-4 45 -17 150t-16 147h275l-31 -297q45 17 138.5 57t131.5 54z" />
<glyph unicode="+" horiz-adv-x="1146" d="M1028 502h-307l-29 -324h-250l29 324h-307l20 235h308l28 324h250l-29 -324h308z" />
<glyph unicode="," horiz-adv-x="512" d="M389 0l-217 -307h-199l109 307l22 266h308z" />
<glyph unicode="-" horiz-adv-x="1013" d="M883 502h-707l21 235h706z" />
<glyph unicode="." horiz-adv-x="512" d="M389 0h-307l22 266h308z" />
<glyph unicode="/" horiz-adv-x="665" d="M-80 -225l645 1884h264l-647 -1884h-262z" />
<glyph unicode="0" horiz-adv-x="962" d="M659 723q23 238 23 326q0 104 -25 140t-90 36q-33 0 -55 -6.5t-40.5 -30.5t-29.5 -54t-21.5 -93.5t-18 -132t-17.5 -185.5q-20 -250 -20 -334q0 -108 23.5 -144t88.5 -36q25 0 43 3.5t34 16t27 27.5t21 47t16.5 65.5t14 91t13 116t13.5 147.5zM934 733q-8 -91 -16 -158.5 t-19.5 -138.5t-25.5 -121.5t-33.5 -101t-44.5 -84t-58 -64t-74 -47.5t-91.5 -26.5t-112.5 -9.5q-196 0 -276.5 119t-80.5 376q0 103 13 256q10 115 19.5 192.5t26 159.5t38.5 134t56.5 100.5t80.5 75t108.5 42t143.5 15.5q199 0 278.5 -113.5t79.5 -359.5q0 -111 -12 -246z " />
<glyph unicode="1" horiz-adv-x="962" d="M829 0h-708l18 231h240l84 949l-268 -103l20 254l250 103h293l-107 -1203h197z" />
<glyph unicode="2" horiz-adv-x="962" d="M799 0h-715l22 258l320 389q121 136 154.5 219t33.5 215q0 74 -35 107t-120 33q-75 0 -236 -39l21 237q190 33 264 33q201 0 289 -86t88 -260q0 -24 -4 -82q-11 -148 -44 -230t-139 -214l-278 -347h397z" />
<glyph unicode="3" horiz-adv-x="962" d="M834 487q0 -264 -115 -384.5t-330 -120.5q-64 0 -161 12.5t-126 19.5l21 232q174 -37 252 -37q89 0 135.5 66.5t46.5 191.5q0 89 -33 127.5t-114 38.5h-158l18 223h138q182 0 182 231q0 70 -30.5 104t-98.5 34q-102 0 -246 -33l21 229q178 31 272 31q176 0 266 -75.5 t90 -256.5q0 -56 -9 -110.5t-29 -108.5t-57.5 -94t-88.5 -55q154 -46 154 -265z" />
<glyph unicode="4" horiz-adv-x="962" d="M903 319h-123l-26 -319h-277l27 319h-395l22 259l268 856h267l-277 -883h135l80 385h230l-33 -385h123z" />
<glyph unicode="5" horiz-adv-x="962" d="M868 1202h-368l-27 -299h10q190 0 277.5 -80.5t87.5 -273.5q0 -130 -21.5 -229t-59 -162.5t-94 -103.5t-121 -56t-144.5 -16q-143 0 -306 32l21 234q171 -37 262 -37q186 0 186 297q0 108 -36 143t-115 35h-238l66 748h641z" />
<glyph unicode="6" horiz-adv-x="962" d="M907 440q-11 -129 -49 -219.5t-99 -142t-135.5 -74t-170.5 -22.5q-81 0 -140.5 24t-106 81.5t-70 161.5t-23.5 255q0 68 10 223q19 215 59.5 355t111.5 222.5t165 115t233 32.5q47 0 115 -7t96 -15l-18 -232q-128 29 -221 29q-79 0 -126.5 -30.5t-77 -103t-48.5 -206.5 q97 53 192 53q163 0 236 -90.5t73 -284.5q0 -57 -6 -125zM535 719q-64 0 -144 -35q-14 -155 -14 -260q0 -92 13.5 -140.5t34.5 -62.5t60 -14q51 0 83.5 27.5t52.5 104t20 208.5q0 89 -25.5 130.5t-80.5 41.5z" />
<glyph unicode="7" horiz-adv-x="962" d="M879 1153l-422 -1153h-291l442 1194h-432l21 240h706z" />
<glyph unicode="8" horiz-adv-x="962" d="M653 481q0 88 -43 127t-164 39q-59 -34 -82.5 -95t-23.5 -204q0 -79 31.5 -111t101.5 -32q107 0 143.5 66t36.5 210zM684 1108q0 70 -24.5 97.5t-88.5 27.5q-77 0 -114 -55t-37 -187q0 -73 37 -107t137 -34q86 49 90 258zM926 479q0 -119 -24 -208t-77.5 -155t-145 -100 t-220.5 -34q-389 0 -389 376q0 314 211 375q-60 31 -94.5 111.5t-34.5 167.5q0 440 436 440q82 0 145 -17t114 -55.5t78 -107.5t27 -166q0 -33 -6 -72t-23 -96t-58 -104t-101 -68q83 -25 122.5 -103t39.5 -184z" />
<glyph unicode="9" horiz-adv-x="962" d="M123 993q9 105 36.5 185t67.5 131.5t96 84t118.5 45.5t138.5 13q65 0 114.5 -12.5t94 -46t72.5 -89.5t44.5 -144.5t16.5 -209.5q0 -68 -11 -217q-14 -161 -36 -279.5t-56 -202t-75 -136t-101 -82t-124 -40.5t-154 -11q-46 0 -117.5 8t-100.5 16l21 232q132 -31 223 -31 q73 0 113 24.5t68 97.5t46 218q-88 -53 -190 -53q-162 0 -235.5 99.5t-73.5 291.5q0 71 4 108zM496 715q71 0 143 35q14 161 14 270q0 73 -6 116t-22.5 62.5t-32.5 24t-47 4.5q-35 0 -62 -15.5t-49 -52t-33.5 -105t-11.5 -167.5q0 -89 25.5 -130.5t81.5 -41.5z" />
<glyph unicode=":" horiz-adv-x="512" d="M389 0h-307l22 266h308zM455 758h-308l23 266h307z" />
<glyph unicode=";" horiz-adv-x="512" d="M389 0l-217 -307h-199l109 307l22 266h308zM455 758h-308l23 266h307z" />
<glyph unicode="&#x3c;" horiz-adv-x="1126" d="M967 176l-791 338l31 334l850 346l-25 -270l-633 -238l592 -240z" />
<glyph unicode="=" horiz-adv-x="1126" d="M977 297h-819l20 235h819zM1014 707h-819l20 235h819z" />
<glyph unicode="&#x3e;" horiz-adv-x="1126" d="M995 514l-848 -338l25 275l633 239l-592 238l25 266l788 -346z" />
<glyph unicode="?" horiz-adv-x="778" d="M455 0h-308l23 266h307zM791 1081q-7 -100 -35.5 -157.5t-100.5 -137.5l-163 -180l-15 -139h-276l20 223l182 201q70 78 91.5 118t21.5 109q0 56 -32 78.5t-122 22.5q-83 0 -219 -31l21 235q45 10 128.5 19.5t135.5 9.5q71 0 123.5 -7t100 -27t77 -53.5t47 -87.5 t17.5 -128q0 -43 -2 -68z" />
<glyph unicode="@" horiz-adv-x="1726" d="M981 639l23 264q-40 10 -95 10q-116 0 -116 -295q0 -64 17 -90t60 -26q28 0 48 9t31.5 21.5t18.5 33t9.5 36t3.5 37.5zM1624 821q-7 -77 -14 -131t-20.5 -120t-31 -110t-46.5 -89.5t-66 -72t-89.5 -43.5t-117.5 -17q-30 0 -62 9.5t-63 29.5t-55 55t-33 80 q-18 -25 -33.5 -41t-43 -36t-68.5 -30t-93 -10q-40 0 -72.5 7t-65 27t-55 53t-36.5 89t-14 131q0 110 15 194t46 139.5t68.5 91.5t92 54.5t106 25.5t120.5 7q46 0 131.5 -9.5t130.5 -19.5l-51 -600q0 -25 13 -39t34 -14q50 0 65 56.5t40 332.5q8 81 8 158q0 43 -3.5 74.5 t-14.5 57.5t-24.5 43.5t-39 30.5t-53.5 20.5t-72.5 12t-91 6t-113.5 1.5q-97 0 -163 -8t-120 -31t-87 -57.5t-58 -95.5t-38 -137t-23 -189q-10 -117 -10 -181q0 -68 8 -116.5t27.5 -84.5t47 -58t72.5 -35t97.5 -18t128.5 -5q139 0 272 14l-21 -225q-144 -16 -270 -16 q-176 0 -291.5 26t-193 89.5t-111 167.5t-33.5 263q0 80 9 179q19 220 65.5 361t138.5 228t223 121.5t330 34.5q104 0 185 -6t153.5 -21t125 -40.5t94.5 -63.5t67.5 -90.5t39 -121.5t13.5 -157q0 -60 -6 -131z" />
<glyph unicode="A" horiz-adv-x="1116" d="M721 575l-68 678l-188 -678h256zM1065 0h-283l-37 334h-348l-94 -334h-293l449 1434h413z" />
<glyph unicode="B" horiz-adv-x="1120" d="M741 473q0 166 -159 166h-123l-37 -406q73 -6 149 -6q166 0 170 246zM764 1069q0 66 -31 102.5t-88 36.5q-30 0 -64.5 -2t-53.5 -4l-19 -2l-29 -332h111q93 0 132 50t42 151zM1022 422q-11 -130 -47.5 -216.5t-101 -135t-147 -68.5t-200.5 -20q-76 0 -177 4.5t-163 9.5 l-63 4l125 1434q240 18 375 18q217 0 318 -78.5t101 -249.5q0 -91 -15.5 -157t-45.5 -105.5t-66 -60t-84 -29.5q88 -14 141.5 -87t53.5 -193q0 -34 -4 -70z" />
<glyph unicode="C" horiz-adv-x="886" d="M807 262l-23 -248q-35 -9 -117 -18.5t-132 -9.5q-101 0 -170 22t-123.5 79t-80.5 161.5t-26 261.5q0 122 10 229q12 134 30.5 235.5t42.5 177t59 128t73.5 85.5t93.5 51.5t111 25t133 6.5q40 0 118 -10.5t101 -18.5l-20 -250q-125 33 -246 33q-48 0 -78 -15t-57 -64 t-45.5 -145t-32.5 -253q-3 -25 -7.5 -125.5t-4.5 -122.5q0 -101 16 -155.5t44 -72.5t79 -18q115 0 252 31z" />
<glyph unicode="D" horiz-adv-x="1118" d="M772 725q12 144 12 233q0 82 -9 132.5t-30 75.5t-45.5 32.5t-64.5 7.5q-34 0 -65.5 -2t-46.5 -4l-15 -2l-84 -962q37 -9 123 -9q66 0 108 42t71.5 151.5t45.5 304.5zM1059 739q-16 -183 -46 -313.5t-73 -217t-108 -137t-141.5 -71t-182.5 -20.5q-64 0 -160.5 5t-160.5 10 l-64 5l125 1434q249 20 364 20q88 0 153 -12.5t124.5 -46.5t97 -92t59 -152.5t21.5 -224.5q0 -96 -8 -187z" />
<glyph unicode="E" horiz-adv-x="978" d="M856 0h-733l125 1434h733l-20 -222h-453l-31 -362h402l-21 -219h-401l-35 -410h452z" />
<glyph unicode="F" horiz-adv-x="989" d="M991 1212h-452l-33 -383h401l-20 -221h-402l-51 -608h-280l125 1434h733z" />
<glyph unicode="G" horiz-adv-x="1044" d="M979 795l-68 -777q-200 -36 -354 -36q-110 0 -185 24t-130.5 83t-81 163t-25.5 260q0 122 10 227q11 129 30.5 229.5t46 176t65 129t81.5 88t102 54.5t121 28t144 8q124 0 256 -29l-20 -245q-134 28 -279 28q-54 0 -90 -11.5t-66 -40.5t-49 -85t-33.5 -137.5 t-25.5 -206.5q-12 -144 -12 -240q0 -104 16.5 -160t48.5 -77t90 -21q59 0 86 2l29 324h-131l20 242h404z" />
<glyph unicode="H" horiz-adv-x="1167" d="M1004 0h-281l51 608h-319l-52 -608h-280l125 1434h280l-53 -592h320l53 592h280z" />
<glyph unicode="I" horiz-adv-x="710" d="M618 0h-567l19 217h143l86 1000h-143l20 217h567l-20 -217h-143l-86 -1000h143z" />
<glyph unicode="J" horiz-adv-x="851" d="M743 535q-10 -116 -24.5 -198t-39.5 -146t-57.5 -103t-82 -64t-108.5 -34.5t-142 -9.5q-113 0 -248 30l20 246q143 -25 215 -25q95 0 134 63t53 226l57 672h-291l23 242h571z" />
<glyph unicode="K" horiz-adv-x="1120" d="M1059 0h-324l-241 563l-48 -63l-43 -500h-280l125 1434h280l-43 -496l373 496h316l-484 -623z" />
<glyph unicode="L" horiz-adv-x="860" d="M819 0h-696l125 1434h280l-104 -1196h416z" />
<glyph unicode="M" horiz-adv-x="1363" d="M1200 0h-254l107 1227l-242 -746h-213l-119 746l-106 -1227h-250l125 1434h420l71 -551l172 551h414z" />
<glyph unicode="N" horiz-adv-x="1212" d="M1049 0h-408l-170 1151l-100 -1151h-248l125 1434h407l172 -1174l103 1174h244z" />
<glyph unicode="O" horiz-adv-x="1163" d="M817 723q12 144 12 238q0 158 -36.5 215t-124.5 57q-76 0 -119.5 -40t-72.5 -150t-48 -320q-12 -138 -12 -236q0 -162 37.5 -224t124.5 -62q75 0 119.5 44.5t73 157t46.5 320.5zM1104 733q-9 -102 -19 -177t-25.5 -152t-35.5 -130.5t-49.5 -104.5t-68 -83.5t-89 -58 t-114.5 -36.5t-144 -11q-121 0 -203.5 31.5t-131.5 98t-70 160t-21 226.5q0 108 12 237q9 110 21 192t32 160.5t47.5 133.5t67.5 102t93.5 74.5t123.5 43t158 15.5q233 0 329.5 -125t96.5 -391q0 -82 -10 -205z" />
<glyph unicode="P" horiz-adv-x="1064" d="M772 963q2 23 2 63q0 93 -30 137.5t-103 44.5q-39 0 -72.5 -3t-46.5 -6l-14 -3l-41 -461h129q72 0 119.5 62t56.5 166zM1057 977q-23 -266 -137.5 -374.5t-356.5 -108.5h-117l-43 -494h-280l125 1434q209 20 379 20q231 0 332.5 -98.5t101.5 -294.5q0 -26 -4 -84z" />
<glyph unicode="Q" horiz-adv-x="1163" d="M1104 733q-11 -121 -23 -207t-33.5 -171.5t-51.5 -144t-75.5 -106.5t-105.5 -77l191 -27l-23 -254l-506 238q-189 21 -266.5 144.5t-77.5 367.5q0 108 12 237q9 110 21 192t32 160.5t47.5 133.5t67.5 102t93.5 74.5t123.5 43t158 15.5q233 0 329.5 -125t96.5 -391 q0 -82 -10 -205zM817 723q12 144 12 238q0 158 -36.5 215t-124.5 57q-76 0 -119.5 -40t-72.5 -150t-48 -320q-12 -138 -12 -236q0 -162 37.5 -224t124.5 -62q75 0 119.5 44.5t73 157t46.5 320.5z" />
<glyph unicode="R" horiz-adv-x="1091" d="M1044 999q-15 -169 -71.5 -269.5t-155.5 -145.5l203 -584h-309l-168 541h-92l-48 -541h-280l125 1434q209 20 379 20q223 0 322.5 -91t99.5 -282q0 -9 -5 -82zM760 985q2 25 2 68q0 85 -28.5 120t-100.5 35q-27 0 -58.5 -3t-48.5 -6l-18 -3l-37 -414h129q65 0 108 52.5 t52 150.5z" />
<glyph unicode="S" horiz-adv-x="868" d="M848 516q0 -22 -4 -72q-11 -115 -40 -197.5t-71 -133t-106 -79t-132 -38.5t-163 -10q-70 0 -155 8.5t-134 21.5l23 244q47 -12 128.5 -22.5t137.5 -10.5q227 0 227 234q0 79 -37 113t-121 55q-148 36 -215 120.5t-67 217.5q0 250 124.5 365.5t395.5 115.5q58 0 136 -8.5 t120 -20.5l-21 -243q-108 30 -272 30q-99 0 -147.5 -50.5t-48.5 -158.5q0 -58 30.5 -84t116.5 -45q143 -33 219 -115t76 -237z" />
<glyph unicode="T" horiz-adv-x="911" d="M973 1186h-295l-103 -1186h-280l102 1186h-295l23 248h870z" />
<glyph unicode="U" horiz-adv-x="1136" d="M1108 1434l-88 -994q-23 -250 -133.5 -352t-339.5 -102q-402 0 -402 383q0 9 5 71l88 994h280l-88 -1002q-4 -58 -4 -61q0 -144 141 -144q155 0 170 174l90 1033h281z" />
<glyph unicode="V" horiz-adv-x="1110" d="M1163 1434l-413 -1434h-433l-161 1434h288l107 -1233l332 1233h280z" />
<glyph unicode="W" horiz-adv-x="1286" d="M1298 1434l-194 -1434h-395l-45 481l-144 -481h-379l56 1434h245l-51 -1215l199 610h233l76 -610l164 1215h235z" />
<glyph unicode="X" horiz-adv-x="1075" d="M1024 0h-313l-148 475l-244 -475h-309l432 743l-266 691h311l131 -424l211 424h306l-404 -689z" />
<glyph unicode="Y" horiz-adv-x="1087" d="M1171 1434l-454 -803l-53 -631h-287l53 631l-305 803h297l178 -553l277 553h294z" />
<glyph unicode="Z" horiz-adv-x="954" d="M963 1161l-580 -917h479l-20 -244h-791l23 272l581 918h-454l22 244h764z" />
<glyph unicode="[" horiz-adv-x="675" d="M551 -246h-451l168 1925h451l-21 -235h-184l-125 -1444h184z" />
<glyph unicode="\" horiz-adv-x="665" d="M412 -225l-340 1884h264l340 -1884h-264z" />
<glyph unicode="]" horiz-adv-x="675" d="M489 -246h-450l22 246h185l125 1444h-185l21 235h450z" />
<glyph unicode="^" horiz-adv-x="1017" d="M1010 860h-303l-91 492l-213 -492h-288l336 696h356z" />
<glyph unicode="_" horiz-adv-x="1044" d="M987 -348h-1030l20 246h1031z" />
<glyph unicode="`" horiz-adv-x="641" d="M672 1188h-217l-297 276h325z" />
<glyph unicode="a" horiz-adv-x="1067" d="M123 485q14 159 49 264.5t98.5 171t153 93.5t219.5 28q160 0 336 -49l-61 -733q0 -28 15.5 -41.5t57.5 -13.5l-16 -205h-119q-26 0 -51 5t-52.5 16.5t-47.5 36t-27 59.5q-109 -135 -277 -135q-150 0 -217 82.5t-67 277.5q0 66 6 143zM494 215q51 0 89.5 40t56.5 91.5 t22 106.5l28 352q-58 4 -86 4q-36 0 -65 -10.5t-57 -40t-47 -78t-30.5 -129.5t-11.5 -189q0 -86 22.5 -116.5t78.5 -30.5z" />
<glyph unicode="b" horiz-adv-x="1058" d="M987 557q-15 -170 -54 -283t-106.5 -177t-154 -89.5t-211.5 -25.5q-119 0 -348 28l125 1424h272l-43 -488q103 96 244 96q282 0 282 -362q0 -70 -6 -123zM618 809q-74 0 -124 -69.5t-58 -153.5l-33 -367q66 -4 97 -4q40 0 70 12t59.5 44t50.5 99.5t33 168.5q6 53 6 108 q0 92 -24.5 127t-76.5 35z" />
<glyph unicode="c" horiz-adv-x="835" d="M754 250l-21 -238q-113 -30 -237 -30q-73 0 -126 9.5t-102 36t-79 71.5t-48 119.5t-18 176.5q0 346 112.5 496.5t354.5 150.5q113 0 231 -28l-20 -240q-10 2 -40.5 9t-41.5 8.5t-35.5 5.5t-48 5t-53.5 1t-52 -7.5t-43 -27.5t-35.5 -54.5t-26.5 -89.5t-19 -132 q-5 -73 -5 -80q0 -104 30.5 -147.5t94.5 -43.5q36 0 72 3.5t57.5 7t53.5 10t45 8.5z" />
<glyph unicode="d" horiz-adv-x="1079" d="M129 496q26 302 147.5 424t385.5 122q27 0 81 -4l35 396h273l-125 -1434h-221l-13 117q-116 -135 -280 -135q-156 0 -223.5 81t-67.5 273q0 50 8 160zM504 215q43 0 79 25.5t58.5 65.5t36 82.5t16.5 82.5l29 332q-53 6 -100 6q-40 0 -71 -10.5t-60.5 -39t-49 -76.5 t-31.5 -127.5t-12 -186.5q0 -91 23.5 -122.5t81.5 -31.5z" />
<glyph unicode="e" horiz-adv-x="991" d="M940 745q0 -176 -93.5 -264t-309.5 -88q-93 0 -144 6v-16q0 -97 33.5 -132.5t122.5 -35.5q106 0 264 31l-20 -230q-51 -14 -130.5 -24t-134.5 -10q-65 0 -115 6.5t-98.5 22.5t-82 45.5t-59.5 74t-39 110.5t-13 152q0 55 6 119q26 281 138.5 405.5t328.5 124.5 q83 0 146.5 -20.5t100.5 -51.5t60 -73t31 -78.5t8 -73.5zM569 817q-61 0 -97.5 -46t-57.5 -159q52 -6 96 -6q162 0 162 107q0 50 -20.5 77t-82.5 27z" />
<glyph unicode="f" horiz-adv-x="698" d="M160 -37l71 830h-133l21 231h133l8 82q14 140 54 215.5t106 103t180 27.5q99 0 221 -25l-18 -231q-99 23 -172 23q-48 0 -70.5 -24.5t-25.5 -70.5l-9 -100h222l-21 -231h-221l-72 -820q-9 -101 -32 -166t-67.5 -102.5t-104 -52t-150.5 -14.5q-80 0 -172 10l20 231 q70 -8 127 -8q56 0 78.5 19t26.5 73z" />
<glyph unicode="g" horiz-adv-x="1079" d="M928 41q-21 -242 -120.5 -338t-313.5 -96q-124 0 -314 35l21 221q175 -35 262 -35q100 0 142 44t50 148l7 80q-106 -98 -250 -98q-152 0 -220.5 81.5t-68.5 274.5q0 195 31.5 327t100 211t166.5 112.5t241 33.5q152 0 350 -49zM504 236q78 0 129.5 68t58.5 151l29 348 q-50 6 -98 6q-39 0 -70 -9.5t-61 -37t-49.5 -73.5t-31.5 -123.5t-12 -182.5q0 -86 23.5 -116.5t81.5 -30.5z" />
<glyph unicode="h" horiz-adv-x="1073" d="M385 0h-272l125 1434h272l-43 -486q104 94 244 94q152 0 215 -73.5t63 -235.5q0 -49 -6 -119l-53 -614h-273l54 621q4 36 4 67q0 69 -24 94t-77 25q-72 0 -121.5 -69t-56.5 -150z" />
<glyph unicode="i" horiz-adv-x="538" d="M500 1198h-293l20 236h293zM385 0h-272l88 1024h272z" />
<glyph unicode="j" horiz-adv-x="538" d="M473 1024l-92 -1051q-10 -103 -33 -168t-67 -102.5t-102.5 -51t-149.5 -13.5q-80 0 -172 10l20 229q53 -6 127 -6q56 0 78.5 19t26.5 73l92 1061h272zM500 1198h-293l20 236h293z" />
<glyph unicode="k" horiz-adv-x="1013" d="M963 0h-304l-194 418l-49 -60l-31 -358h-272l125 1434h272l-61 -703l262 293h319l-379 -412z" />
<glyph unicode="l" horiz-adv-x="593" d="M541 233l-19 -227q-77 -16 -188 -16q-113 0 -157 51t-44 166q0 26 4 96l101 1131h272l-94 -1074q-6 -62 -6 -75q0 -33 12.5 -46.5t44.5 -13.5q34 0 74 8z" />
<glyph unicode="m" horiz-adv-x="1536" d="M385 0h-272l88 1024h221l10 -104q107 122 258 122q92 0 148 -28t82 -90q111 118 274 118q140 0 199 -68.5t59 -228.5q0 -69 -6 -131l-53 -614h-273l54 621q4 46 4 81q0 58 -18 81.5t-62 23.5q-63 0 -107 -65.5t-51 -145.5l-51 -596h-273l54 621q4 46 4 81q0 58 -18 81.5 t-62 23.5q-37 0 -67.5 -25.5t-49.5 -66t-30.5 -82.5t-14.5 -82z" />
<glyph unicode="n" horiz-adv-x="1073" d="M385 0h-272l88 1024h221l10 -109q114 127 279 127q152 0 215 -73.5t63 -235.5q0 -43 -6 -119l-53 -614h-273l54 608q4 40 4 80q0 69 -24 94t-77 25q-42 0 -76.5 -26t-56 -66t-34 -82t-15.5 -82z" />
<glyph unicode="o" d="M1018 625q0 -27 -4 -93q-11 -129 -35.5 -222t-62.5 -156t-96 -100t-128.5 -52.5t-167.5 -15.5q-100 0 -170.5 20t-123 68t-78 132.5t-25.5 207.5q0 326 114 475t375 149q202 0 302 -100.5t100 -312.5zM733 502q6 64 6 112q0 112 -33.5 157.5t-109.5 45.5 q-92 0 -131.5 -67t-54.5 -248q-7 -79 -7 -117q0 -100 31.5 -139t108.5 -39q95 0 135 62t55 233z" />
<glyph unicode="p" horiz-adv-x="1062" d="M354 -348h-272l119 1372h221l10 -113q115 131 279 131q282 0 282 -362q0 -70 -6 -123q-15 -164 -49.5 -272.5t-98 -177t-154.5 -97t-224 -28.5q-55 0 -78 2zM618 809q-39 0 -72 -21t-54.5 -56t-36 -72.5t-21.5 -77.5l-31 -363q66 -4 97 -4q38 0 69.5 11.5t60 41.5 t47.5 78t30.5 124.5t11.5 176.5q0 92 -24.5 127t-76.5 35z" />
<glyph unicode="q" horiz-adv-x="1079" d="M129 485q14 158 50 264t102 171.5t157.5 93.5t223.5 28q152 0 350 -49l-117 -1341h-272l36 430q-105 -100 -247 -100q-152 0 -220.5 83.5t-68.5 280.5q0 62 6 139zM504 215q52 0 93.5 38t62.5 88t30 105l31 357q-50 6 -98 6q-40 0 -71 -10.5t-60.5 -39t-49 -76.5 t-31.5 -127.5t-12 -186.5q0 -91 23.5 -122.5t81.5 -31.5z" />
<glyph unicode="r" horiz-adv-x="722" d="M385 0h-272l88 1024h221l12 -129q93 147 228 147q50 0 90 -8l-25 -282q-46 12 -88 12q-87 0 -144.5 -77.5t-68.5 -203.5z" />
<glyph unicode="s" horiz-adv-x="870" d="M797 358q0 -109 -32 -184.5t-94 -116.5t-138 -58t-179 -17q-152 0 -278 32l20 232q155 -35 242 -35t131.5 23.5t44.5 84.5q0 38 -26 58t-95 33q-262 52 -262 272q0 193 109.5 276.5t337.5 83.5q120 0 243 -30l-20 -234q-119 35 -242 35q-79 0 -113 -22.5t-34 -73.5 q0 -31 28 -46t97 -30q142 -31 201 -102t59 -181z" />
<glyph unicode="t" horiz-adv-x="712" d="M698 788h-204l-37 -440q-1 -16 -2 -29.5t-1.5 -20.5t-0.5 -9q0 -39 18 -56.5t59 -17.5q59 0 129 18l-18 -227q-25 -7 -95.5 -15.5t-121.5 -8.5q-140 0 -194 60.5t-54 186.5q0 26 4 88l41 471h-133l21 236h133l22 246h273l-23 -246h205z" />
<glyph unicode="u" horiz-adv-x="1060" d="M190 1024h273l-51 -600q-1 -18 -3.5 -51t-2.5 -41q0 -67 22.5 -91t73.5 -24q41 0 74.5 25.5t53.5 66t31.5 82.5t14.5 82l47 551h272l-88 -1024h-221l-10 102q-110 -120 -270 -120q-150 0 -212.5 75.5t-62.5 237.5q0 26 4 100z" />
<glyph unicode="v" horiz-adv-x="1007" d="M1034 1022l-354 -1024h-395l-176 1024h280l111 -827l256 827h278z" />
<glyph unicode="w" horiz-adv-x="1314" d="M1352 1024l-246 -1024h-358l-68 504l-164 -504h-348l-70 1024h269l28 -782l201 598h242l88 -598l166 782h260z" />
<glyph unicode="x" horiz-adv-x="1034" d="M963 0h-308l-129 309l-186 -309h-309l350 535l-229 489h305l104 -244l146 244h307l-320 -469z" />
<glyph unicode="y" horiz-adv-x="1009" d="M1036 1024l-358 -1110q-89 -276 -316 -276q-121 0 -184 10l21 231q50 -6 100 -6q84 0 109 90l10 37h-70l-239 1024h286l129 -797l244 797h268z" />
<glyph unicode="z" horiz-adv-x="856" d="M842 778l-471 -559h401l-18 -219h-713l18 227l476 578h-383l18 219h692z" />
<glyph unicode="{" horiz-adv-x="706" d="M233 424q0 77 -41 113t-102 36l25 287q65 0 115 42t57 130l28 340q28 322 314 322q60 0 110 -11l-18 -221q-36 6 -57 6q-78 0 -84 -75l-35 -402q-11 -130 -74.5 -199t-144.5 -81q71 -10 121.5 -71.5t50.5 -168.5q0 -23 -4 -59l-29 -330q-4 -50 -4 -51q0 -66 71 -66 q22 0 58 6l-19 -221q-50 -10 -114 -10q-109 0 -183.5 69t-74.5 207q0 20 4 66l22 248q1 10 3 33t3.5 40.5t1.5 20.5z" />
<glyph unicode="|" horiz-adv-x="634" d="M410 -225h-267l164 1884h266z" />
<glyph unicode="}" horiz-adv-x="706" d="M463 723q-71 12 -121.5 73t-50.5 167q0 13 4 59l31 330q2 25 2 51q0 65 -72 65q-21 0 -57 -6l18 221q63 11 115 11q108 0 183 -69.5t75 -207.5q0 -19 -4 -65l-25 -299q-4 -40 -4 -47q0 -74 41 -110t100 -36l-24 -287q-64 0 -113 -42t-57 -130l-31 -340 q-15 -167 -93.5 -244t-219.5 -77q-61 0 -111 10l19 221q36 -6 57 -6q78 0 84 76l35 401q11 129 75 199t144 82z" />
<glyph unicode="~" horiz-adv-x="1044" d="M174 483l21 246q119 68 221 68q62 0 166 -40t155 -40q93 0 201 69l-20 -245q-109 -68 -220 -68q-64 0 -163.5 42t-155.5 42q-89 0 -205 -74z" />
<glyph unicode="&#xa1;" horiz-adv-x="552" d="M190 1024h308l-23 -266h-307zM166 557h276l-84 -967h-276z" />
<glyph unicode="&#xa2;" horiz-adv-x="962" d="M659 -225h-256l19 213q-61 11 -105.5 36t-78.5 71t-51 120.5t-17 177.5q0 298 83.5 449.5t258.5 185.5l18 201h256l-18 -199q70 -11 100 -18l-20 -240q-10 2 -40.5 9t-41.5 8.5t-35.5 5.5t-48 5t-53.5 1q-51 0 -83 -23t-56.5 -93t-36.5 -196q-4 -58 -4 -79 q0 -104 30 -147.5t94 -43.5q36 0 72 3.5t57.5 7t53.5 10t45 8.5l-21 -238q-36 -9 -102 -20z" />
<glyph unicode="&#xa3;" horiz-adv-x="962" d="M578 934l-7 -68h213l-20 -231h-213l-35 -404h354l-18 -231h-768l18 231h134l34 404h-131l21 231h131l6 54q10 111 24 188.5t37 138.5t53.5 98t77 61t103.5 33t137 9q111 0 227 -21l-20 -237q-90 22 -162 22q-42 0 -67.5 -3t-47.5 -15.5t-33 -28.5t-21 -51t-15.5 -74 t-11.5 -106z" />
<glyph unicode="&#xa4;" horiz-adv-x="1167" d="M68 231l147 148q-41 96 -41 235q0 133 43 234l-149 149l174 174l135 -135q106 64 248 64q138 0 247 -64l136 135l174 -174l-140 -139q54 -108 54 -244q0 -134 -54 -245l140 -138l-174 -174l-134 131q-103 -59 -249 -59q-149 0 -252 59l-131 -131zM825 614 q0 120 -50.5 193.5t-149.5 73.5t-150 -73t-51 -194t51 -193.5t150 -72.5t149.5 73t50.5 193z" />
<glyph unicode="&#xa5;" horiz-adv-x="962" d="M864 543h-219l-6 -92h217l-18 -215h-217l-21 -236h-287l21 236h-213l18 215h213l6 92h-211l19 215h186l-227 676h289l133 -457l213 457h287l-357 -676h193z" />
<glyph unicode="&#xa6;" horiz-adv-x="634" d="M410 -225h-267l64 737h266zM510 922h-266l63 737h266z" />
<glyph unicode="&#xa7;" horiz-adv-x="962" d="M158 657q0 171 145 279q-39 29 -58.5 81.5t-19.5 104.5q0 172 111 251t342 79q98 0 225 -31l-20 -233q-115 35 -234 35q-77 0 -112 -20t-35 -70q0 -62 116 -84q138 -26 200.5 -94t62.5 -181q0 -170 -148 -268q38 -29 59 -84.5t21 -106.5q0 -173 -112 -253t-341 -80 q-104 0 -227 30l21 234q115 -35 235 -35q76 0 111 22t35 72q0 61 -117 80q-260 49 -260 272zM606 731q0 47 -20.5 73t-67.5 36q-42 -18 -64 -56.5t-22 -85.5q0 -44 20 -69t66 -37q39 17 63.5 55.5t24.5 83.5z" />
<glyph unicode="&#xa8;" horiz-adv-x="778" d="M805 1147h-266l22 235h266zM395 1147h-266l23 235h266z" />
<glyph unicode="&#xa9;" horiz-adv-x="1658" d="M1042 481v-149q-20 -5 -74 -11t-81 -6q-91 0 -141.5 33t-76.5 123.5t-26 257.5q0 124 14 201t47.5 118.5t77.5 55.5t117 14q23 0 74.5 -5.5t68.5 -10.5v-150q-60 13 -108 13q-32 0 -46.5 -3t-30 -14t-20.5 -38.5t-8.5 -71t-3.5 -117.5q0 -75 3.5 -120.5t9.5 -73.5 t21.5 -40t30.5 -15t46 -3q48 0 106 12zM1556 717q0 -141 -20.5 -251.5t-68.5 -203t-124.5 -153t-192.5 -94t-269 -33.5q-191 0 -327 49t-216.5 146t-117 229t-36.5 311q0 175 37 307t117.5 229.5t216.5 148t326 50.5q127 0 229 -23t175.5 -68t126 -107t84 -146t46 -179.5 t14.5 -211.5zM1317 717q0 84 -3.5 143.5t-14.5 119t-31 99t-52 75t-78.5 55t-110 31t-146.5 11.5q-97 0 -169 -13.5t-122.5 -44t-83 -71.5t-50.5 -104t-25 -133t-7 -168q0 -96 7 -165.5t25 -133.5t50.5 -105t83 -72t122.5 -45t169 -14q83 0 146.5 11.5t110 31t78.5 55t52 75 t31 99.5t14.5 119.5t3.5 143.5z" />
<glyph unicode="&#xaa;" horiz-adv-x="882" d="M174 1030q21 231 112.5 324.5t278.5 93.5q112 0 252 -37l-47 -541q0 -21 11 -31t40 -10l-12 -163h-84q-119 0 -135 86q-81 -101 -207 -101q-112 0 -163.5 63t-51.5 210q0 48 6 106zM723 0h-617l21 236h616zM453 838q31 0 53.5 17t35 46t18.5 57.5t9 61.5l21 240 q-10 0 -29 1t-26 1q-35 0 -59.5 -12t-46.5 -45.5t-33 -103.5t-11 -177q0 -54 14 -70t54 -16z" />
<glyph unicode="&#xab;" horiz-adv-x="952" d="M496 188h-220l-141 424l215 424h223l-163 -424zM844 188h-219l-142 424l215 424h224l-164 -424z" />
<glyph unicode="&#xac;" horiz-adv-x="1177" d="M1053 217h-246l22 285h-684l21 235h932z" />
<glyph unicode="&#xad;" horiz-adv-x="1013" d="M883 502h-707l21 235h706z" />
<glyph unicode="&#xae;" horiz-adv-x="1658" d="M1556 717q0 -141 -20.5 -251.5t-68.5 -203t-124.5 -153t-192.5 -94t-269 -33.5q-191 0 -327 49t-216.5 146t-117 229t-36.5 311q0 175 37 307t117.5 229.5t216.5 148t326 50.5q127 0 229 -23t175.5 -68t126 -107t84 -146t46 -179.5t14.5 -211.5zM1317 717 q0 84 -3.5 143.5t-14.5 119t-31 99t-52 75t-78.5 55t-110 31t-146.5 11.5q-97 0 -169 -13.5t-122.5 -44t-83 -71.5t-50.5 -104t-25 -133t-7 -168q0 -96 7 -165.5t25 -133.5t50.5 -105t83 -72t122.5 -45t169 -14q83 0 146.5 11.5t110 31t78.5 55t52 75t31 99.5t14.5 119.5 t3.5 143.5zM1118 879q0 -170 -106 -226l153 -327h-190l-125 301h-25v-301h-170v788q123 8 217 8q136 0 191 -61.5t55 -181.5zM944 874q0 64 -15 84.5t-69 20.5l-35 -4v-201h21q58 0 78 18.5t20 81.5z" />
<glyph unicode="&#xaf;" horiz-adv-x="706" d="M739 1210h-604l21 224h604z" />
<glyph unicode="&#xb0;" horiz-adv-x="784" d="M586 1110q2 10 2 31q0 119 -109 119q-133 0 -133 -181q0 -129 107 -129q119 0 133 160zM819 1108q-15 -174 -108 -262t-275 -88q-153 0 -237 78t-84 225q0 194 94 290.5t287 96.5q155 0 240 -74t85 -219q0 -31 -2 -47z" />
<glyph unicode="&#xb1;" horiz-adv-x="1126" d="M973 0h-840l21 236h839zM1028 502h-307l-16 -180h-250l16 180h-307l20 235h308l28 324h250l-29 -324h308z" />
<glyph unicode="&#xb2;" horiz-adv-x="839" d="M696 420h-565l21 213l229 254q78 78 105.5 134t27.5 136q0 40 -27.5 66t-87.5 26q-62 0 -170 -22l17 198q3 0 28.5 4t53 8t64.5 7.5t65 3.5q134 0 213.5 -77t79.5 -208q0 -197 -117 -323l-203 -219h285z" />
<glyph unicode="&#xb3;" horiz-adv-x="839" d="M723 780q0 -194 -86.5 -284t-257.5 -90q-51 0 -122.5 7t-98.5 13l16 192q102 -22 170 -22q67 0 104 38.5t37 115.5q0 118 -120 118h-89l17 187h74q83 0 111 33t28 94q0 75 -103 75q-54 0 -167 -24l16 192q104 23 209 23q147 0 213.5 -57t66.5 -179q0 -36 -7.5 -72 t-23.5 -72t-46 -63.5t-70 -37.5q53 -13 91 -71t38 -116z" />
<glyph unicode="&#xb4;" horiz-adv-x="641" d="M360 1188h-227l227 276h336z" />
<glyph unicode="&#xb5;" horiz-adv-x="1071" d="M190 1024h273l-57 -637q-3 -27 -3 -43v-18q0 -60 26 -84.5t73 -24.5q33 0 61.5 17.5t47.5 44.5t33.5 62t21.5 68t10 64l47 551h272l-88 -1024h-221l-10 102q-110 -120 -270 -120q-25 0 -35 2l-29 -332h-272l63 719q0 16 2 24z" />
<glyph unicode="&#xb6;" horiz-adv-x="1136" d="M743 946l-81 -946h-259l62 725h-39q-39 0 -73.5 7t-72 27.5t-64.5 53t-44.5 88.5t-17.5 129q0 101 20.5 177t54.5 122t84.5 74.5t103.5 38.5t118 10q59 0 122 -4.5t96 -9.5l33 -4l-20 -220q-101 19 -170 19q-107 0 -147.5 -37t-40.5 -137q0 -61 29.5 -87t90.5 -26h215z M1128 1434l-129 -1475q-9 -104 -29 -165.5t-61 -96.5t-95 -46t-146 -11q-80 0 -172 10l22 221q87 -10 127 -10q54 0 76 23t27 79l129 1471h251z" />
<glyph unicode="&#xb7;" horiz-adv-x="512" d="M432 500h-307l22 266h308z" />
<glyph unicode="&#xb8;" horiz-adv-x="688" d="M74 -438l14 178q65 -10 111 -10t66 10t20 37t-33.5 37t-132.5 10l69 278h197l-35 -141q82 -10 122 -55.5t40 -116.5q0 -111 -70.5 -177.5t-214.5 -66.5q-74 0 -153 17z" />
<glyph unicode="&#xb9;" horiz-adv-x="839" d="M715 420h-543l18 205h170l54 596l-195 -80l19 215l178 78h252l-72 -809h137z" />
<glyph unicode="&#xba;" horiz-adv-x="888" d="M621 1049q6 55 6 96q0 75 -20.5 103t-71.5 28q-43 0 -70.5 -23t-44.5 -91t-17 -187q0 -76 21.5 -111t71.5 -35q60 0 88 51.5t37 168.5zM848 1069q-14 -162 -56.5 -252.5t-116 -127t-196.5 -36.5q-148 0 -223.5 73t-75.5 253q0 247 84 360t287 113q153 0 227 -77t74 -236 q0 -20 -4 -70zM741 0h-643l21 236h643z" />
<glyph unicode="&#xbb;" horiz-adv-x="952" d="M668 188h-224l164 424l-86 424h219l142 -424zM319 188h-223l164 424l-86 424h219l142 -424z" />
<glyph unicode="&#xbc;" horiz-adv-x="1792" d="M664 420h-543l18 205h170l53 596l-194 -80l18 215l179 78h251l-71 -809h137zM1706 240h-92l-23 -240h-233l22 240h-295l19 213l194 561h226l-201 -582h78l51 232h199l-21 -232l92 -12zM1475 1659l-797 -1864h-242l795 1864h244z" />
<glyph unicode="&#xbd;" horiz-adv-x="1792" d="M664 420h-543l18 205h170l53 596l-194 -80l18 215l179 78h251l-71 -809h137zM1755 0h-565l20 213l230 254q78 78 105.5 134t27.5 136q0 40 -27.5 66t-87.5 26q-62 0 -170 -22l17 199q3 0 29 4t53 8t64 7t65 3q134 0 213 -76.5t79 -208.5q0 -198 -116 -323l-203 -219h285z M1485 1659l-797 -1864h-242l795 1864h244z" />
<glyph unicode="&#xbe;" horiz-adv-x="1792" d="M707 780q0 -194 -87 -284t-258 -90q-51 0 -122.5 7t-98.5 13l17 192q102 -22 170 -22q67 0 104 38.5t37 115.5q0 118 -121 118h-88l16 187h74q83 0 111 33t28 94q0 75 -102 75q-55 0 -168 -24l17 192q103 23 208 23q147 0 214 -57t67 -179q0 -36 -7.5 -72t-23.5 -72 t-46 -63.5t-70 -37.5q53 -13 91 -71t38 -116zM1692 240h-93l-22 -240h-234l23 240h-295l19 213l194 561h225l-200 -582h77l52 232h198l-20 -232h92zM1452 1659l-797 -1864h-241l794 1864h244z" />
<glyph unicode="&#xbf;" horiz-adv-x="778" d="M371 1024h307l-23 -266h-307zM35 -57q9 101 36.5 160.5t96.5 134.5l166 180l12 139h277l-19 -223l-182 -201q-70 -77 -91.5 -116.5t-21.5 -110.5q0 -56 32 -78.5t122 -22.5q83 0 219 31l-20 -235q-45 -10 -129 -19.5t-136 -9.5q-91 0 -153.5 12.5t-113 45t-75 93 t-24.5 152.5q0 18 4 68z" />
<glyph unicode="&#xc0;" horiz-adv-x="1116" d="M846 1487h-221l-301 235h329zM721 575l-68 678l-188 -678h256zM1065 0h-283l-37 334h-348l-94 -334h-293l449 1434h413z" />
<glyph unicode="&#xc1;" horiz-adv-x="1116" d="M686 1487h-242l234 235h330zM721 575l-68 678l-188 -678h256zM1065 0h-283l-37 334h-348l-94 -334h-293l449 1434h413z" />
<glyph unicode="&#xc2;" horiz-adv-x="1116" d="M1063 1495h-297l-70 125l-94 -125h-303l246 236h311zM721 575l-68 678l-188 -678h256zM1065 0h-283l-37 334h-348l-94 -334h-293l449 1434h413z" />
<glyph unicode="&#xc3;" horiz-adv-x="1116" d="M721 575l-68 678l-188 -678h256zM1065 0h-283l-37 334h-348l-94 -334h-293l449 1434h413zM342 1481l18 215q84 65 201 65q50 0 150.5 -40t138.5 -40q100 0 190 74l-18 -215q-73 -65 -203 -65q-53 0 -149 39.5t-138 39.5q-51 0 -102.5 -21t-87.5 -52z" />
<glyph unicode="&#xc4;" horiz-adv-x="1116" d="M721 575l-68 678l-188 -678h256zM1065 0h-283l-37 334h-348l-94 -334h-293l449 1434h413zM1001 1495h-266l23 236h266zM592 1495h-266l22 236h266z" />
<glyph unicode="&#xc5;" horiz-adv-x="1116" d="M918 1563q-10 -97 -44 -150l191 -1413h-283l-37 334h-348l-94 -334h-293l447 1427q-17 49 -17 99q0 286 262 286q104 0 161 -56t57 -157q0 -24 -2 -36zM721 575l-68 678l-188 -678h256zM737 1565q2 14 2 37q0 33 -11.5 48t-39.5 15q-38 0 -52.5 -32.5t-14.5 -104.5 q0 -33 11.5 -48.5t39.5 -15.5q32 0 46 23.5t19 77.5z" />
<glyph unicode="&#xc6;" horiz-adv-x="1599" d="M1477 0h-705l-10 334h-336l-123 -334h-293l555 1434h996l-21 -222h-547l23 -362h477l-20 -219h-445l27 -410h440zM735 1188l-223 -613h242z" />
<glyph unicode="&#xc7;" horiz-adv-x="886" d="M311 -438l15 178q65 -10 110 -10q46 0 66 10t20 37t-33.5 37t-132.5 10l43 174q-133 29 -198.5 146t-65.5 366q0 122 10 229q12 134 30.5 235.5t42.5 177t59 128t73.5 85.5t93.5 51.5t111 25t133 6.5q40 0 118 -10.5t101 -18.5l-20 -250q-125 33 -246 33q-48 0 -78 -15 t-57 -64t-45.5 -145t-32.5 -253q-3 -25 -7.5 -125.5t-4.5 -122.5q0 -101 16 -155.5t44 -72.5t79 -18q115 0 252 31l-23 -248q-49 -14 -190 -26l-6 -27q82 -10 122 -55.5t40 -116.5q0 -111 -70.5 -177.5t-214.5 -66.5q-75 0 -154 17z" />
<glyph unicode="&#xc8;" horiz-adv-x="978" d="M850 1487h-221l-301 235h329zM856 0h-733l125 1434h733l-20 -222h-453l-31 -362h402l-21 -219h-401l-35 -410h452z" />
<glyph unicode="&#xc9;" horiz-adv-x="978" d="M655 1487h-241l233 235h330zM856 0h-733l125 1434h733l-20 -222h-453l-31 -362h402l-21 -219h-401l-35 -410h452z" />
<glyph unicode="&#xca;" horiz-adv-x="978" d="M1001 1495h-296l-70 125l-94 -125h-303l245 236h312zM856 0h-733l125 1434h733l-20 -222h-453l-31 -362h402l-21 -219h-401l-35 -410h452z" />
<glyph unicode="&#xcb;" horiz-adv-x="978" d="M856 0h-733l125 1434h733l-20 -222h-453l-31 -362h402l-21 -219h-401l-35 -410h452zM948 1475h-266l23 235h266zM539 1475h-267l23 235h266z" />
<glyph unicode="&#xcc;" horiz-adv-x="710" d="M700 1487h-221l-301 235h330zM618 0h-567l19 217h143l86 1000h-143l20 217h567l-20 -217h-143l-86 -1000h143z" />
<glyph unicode="&#xcd;" horiz-adv-x="710" d="M463 1487h-242l234 235h329zM618 0h-567l19 217h143l86 1000h-143l20 217h567l-20 -217h-143l-86 -1000h143z" />
<glyph unicode="&#xce;" horiz-adv-x="710" d="M846 1495h-297l-70 125l-94 -125h-303l246 236h311zM618 0h-567l19 217h143l86 1000h-143l20 217h567l-20 -217h-143l-86 -1000h143z" />
<glyph unicode="&#xcf;" horiz-adv-x="710" d="M618 0h-567l19 217h143l86 1000h-143l20 217h567l-20 -217h-143l-86 -1000h143zM793 1475h-267l23 235h266zM383 1475h-266l22 235h267z" />
<glyph unicode="&#xd0;" horiz-adv-x="1118" d="M1059 739q-16 -183 -46 -313.5t-73 -217t-108 -137t-141.5 -71t-182.5 -20.5q-64 0 -160.5 5t-160.5 10l-64 5l57 666h-82l21 235h82l47 533q249 20 364 20q88 0 153 -12.5t124.5 -46.5t97 -92t59 -152.5t21.5 -224.5q0 -96 -8 -187zM772 725q12 144 12 233 q0 82 -9 132.5t-30 75.5t-45.5 32.5t-64.5 7.5q-34 0 -65.5 -2t-46.5 -4l-15 -2l-27 -297h201l-20 -235h-201l-37 -430q37 -9 123 -9q66 0 108 42t71.5 151.5t45.5 304.5z" />
<glyph unicode="&#xd1;" horiz-adv-x="1212" d="M1049 0h-408l-170 1151l-100 -1151h-248l125 1434h407l172 -1174l103 1174h244zM379 1481l18 215q84 65 201 65q50 0 150.5 -40t138.5 -40q100 0 190 74l-18 -215q-73 -65 -203 -65q-53 0 -149 39.5t-138 39.5q-51 0 -102.5 -21t-87.5 -52z" />
<glyph unicode="&#xd2;" horiz-adv-x="1163" d="M858 1487h-221l-301 235h330zM817 723q12 144 12 238q0 158 -36.5 215t-124.5 57q-76 0 -119.5 -40t-72.5 -150t-48 -320q-12 -138 -12 -236q0 -162 37.5 -224t124.5 -62q75 0 119.5 44.5t73 157t46.5 320.5zM1104 733q-9 -102 -19 -177t-25.5 -152t-35.5 -130.5 t-49.5 -104.5t-68 -83.5t-89 -58t-114.5 -36.5t-144 -11q-121 0 -203.5 31.5t-131.5 98t-70 160t-21 226.5q0 108 12 237q9 110 21 192t32 160.5t47.5 133.5t67.5 102t93.5 74.5t123.5 43t158 15.5q233 0 329.5 -125t96.5 -391q0 -82 -10 -205z" />
<glyph unicode="&#xd3;" horiz-adv-x="1163" d="M752 1487h-242l233 235h330zM817 723q12 144 12 238q0 158 -36.5 215t-124.5 57q-76 0 -119.5 -40t-72.5 -150t-48 -320q-12 -138 -12 -236q0 -162 37.5 -224t124.5 -62q75 0 119.5 44.5t73 157t46.5 320.5zM1104 733q-9 -102 -19 -177t-25.5 -152t-35.5 -130.5 t-49.5 -104.5t-68 -83.5t-89 -58t-114.5 -36.5t-144 -11q-121 0 -203.5 31.5t-131.5 98t-70 160t-21 226.5q0 108 12 237q9 110 21 192t32 160.5t47.5 133.5t67.5 102t93.5 74.5t123.5 43t158 15.5q233 0 329.5 -125t96.5 -391q0 -82 -10 -205z" />
<glyph unicode="&#xd4;" horiz-adv-x="1163" d="M1073 1495h-297l-69 125l-95 -125h-303l246 236h311zM817 723q12 144 12 238q0 158 -36.5 215t-124.5 57q-76 0 -119.5 -40t-72.5 -150t-48 -320q-12 -138 -12 -236q0 -162 37.5 -224t124.5 -62q75 0 119.5 44.5t73 157t46.5 320.5zM1104 733q-9 -102 -19 -177 t-25.5 -152t-35.5 -130.5t-49.5 -104.5t-68 -83.5t-89 -58t-114.5 -36.5t-144 -11q-121 0 -203.5 31.5t-131.5 98t-70 160t-21 226.5q0 108 12 237q9 110 21 192t32 160.5t47.5 133.5t67.5 102t93.5 74.5t123.5 43t158 15.5q233 0 329.5 -125t96.5 -391q0 -82 -10 -205z" />
<glyph unicode="&#xd5;" horiz-adv-x="1163" d="M817 723q12 144 12 238q0 158 -36.5 215t-124.5 57q-76 0 -119.5 -40t-72.5 -150t-48 -320q-12 -138 -12 -236q0 -162 37.5 -224t124.5 -62q75 0 119.5 44.5t73 157t46.5 320.5zM1104 733q-9 -102 -19 -177t-25.5 -152t-35.5 -130.5t-49.5 -104.5t-68 -83.5t-89 -58 t-114.5 -36.5t-144 -11q-121 0 -203.5 31.5t-131.5 98t-70 160t-21 226.5q0 108 12 237q9 110 21 192t32 160.5t47.5 133.5t67.5 102t93.5 74.5t123.5 43t158 15.5q233 0 329.5 -125t96.5 -391q0 -82 -10 -205zM346 1481l19 215q84 65 200 65q50 0 150.5 -40t138.5 -40 q100 0 190 74l-18 -215q-73 -65 -203 -65q-53 0 -148.5 39.5t-137.5 39.5q-51 0 -103 -21t-88 -52z" />
<glyph unicode="&#xd6;" horiz-adv-x="1163" d="M1018 1495h-266l22 236h266zM608 1495h-266l23 236h266zM817 723q12 144 12 238q0 158 -36.5 215t-124.5 57q-76 0 -119.5 -40t-72.5 -150t-48 -320q-12 -138 -12 -236q0 -162 37.5 -224t124.5 -62q75 0 119.5 44.5t73 157t46.5 320.5zM1104 733q-9 -102 -19 -177 t-25.5 -152t-35.5 -130.5t-49.5 -104.5t-68 -83.5t-89 -58t-114.5 -36.5t-144 -11q-121 0 -203.5 31.5t-131.5 98t-70 160t-21 226.5q0 108 12 237q9 110 21 192t32 160.5t47.5 133.5t67.5 102t93.5 74.5t123.5 43t158 15.5q233 0 329.5 -125t96.5 -391q0 -82 -10 -205z" />
<glyph unicode="&#xd7;" horiz-adv-x="1167" d="M211 375l240 239l-240 240l174 174l240 -240l239 240l174 -174l-239 -240l239 -239l-174 -174l-239 239l-240 -239z" />
<glyph unicode="&#xd8;" horiz-adv-x="1122" d="M1114 733q-9 -102 -19 -177t-25.5 -152t-35.5 -130.5t-49.5 -104.5t-68 -83.5t-89 -58t-114.5 -36.5t-144 -11q-71 0 -143 14l-74 -180h-202l108 266q-115 118 -115 416q0 97 13 237q9 110 21 192t32 160.5t47.5 133.5t67.5 102t93 74.5t123 43t158 15.5q57 0 119 -10 l72 176h205l-105 -252q135 -118 135 -430q0 -82 -10 -205zM827 723q13 156 13 238v40l-324 -788q30 -12 72 -12q75 0 119.5 44.5t73 157t46.5 320.5zM438 723q-12 -138 -12 -236l301 740q-21 6 -49 6q-76 0 -119.5 -40t-72.5 -150t-48 -320z" />
<glyph unicode="&#xd9;" horiz-adv-x="1136" d="M838 1487h-222l-301 235h330zM1108 1434l-88 -994q-23 -250 -133.5 -352t-339.5 -102q-402 0 -402 383q0 9 5 71l88 994h280l-88 -1002q-4 -58 -4 -61q0 -144 141 -144q155 0 170 174l90 1033h281z" />
<glyph unicode="&#xda;" horiz-adv-x="1136" d="M762 1487h-242l234 235h329zM1108 1434l-88 -994q-23 -250 -133.5 -352t-339.5 -102q-402 0 -402 383q0 9 5 71l88 994h280l-88 -1002q-4 -58 -4 -61q0 -144 141 -144q155 0 170 174l90 1033h281z" />
<glyph unicode="&#xdb;" horiz-adv-x="1136" d="M1057 1495h-297l-70 125l-94 -125h-303l246 236h311zM1108 1434l-88 -994q-23 -250 -133.5 -352t-339.5 -102q-402 0 -402 383q0 9 5 71l88 994h280l-88 -1002q-4 -58 -4 -61q0 -144 141 -144q155 0 170 174l90 1033h281z" />
<glyph unicode="&#xdc;" horiz-adv-x="1136" d="M1022 1495h-266l22 236h266zM612 1495h-266l23 236h266zM1108 1434l-88 -994q-23 -250 -133.5 -352t-339.5 -102q-402 0 -402 383q0 9 5 71l88 994h280l-88 -1002q-4 -58 -4 -61q0 -144 141 -144q155 0 170 174l90 1033h281z" />
<glyph unicode="&#xdd;" horiz-adv-x="1087" d="M741 1487h-231l233 235h330zM1171 1434l-454 -803l-53 -631h-287l53 631l-305 803h297l178 -553l277 553h294z" />
<glyph unicode="&#xde;" d="M1036 737q-23 -266 -138 -374.5t-357 -108.5h-117l-21 -254h-280l125 1434h280l-20 -222q16 0 48 1t48 1q231 0 333.5 -98t102.5 -295q0 -26 -4 -84zM750 723q4 50 4 72q0 89 -30.5 131.5t-102.5 42.5q-39 0 -73 -3.5t-48 -6.5l-15 -3l-39 -460h129q72 0 119 61.5 t56 165.5z" />
<glyph unicode="&#xdf;" horiz-adv-x="1099" d="M1018 383q0 -113 -28.5 -192.5t-82.5 -124.5t-123 -64.5t-161 -19.5q-99 0 -187 18l19 233q68 -22 133 -22q80 0 113.5 35.5t33.5 109.5q0 50 -27.5 79t-89.5 54q-143 57 -143 228q0 119 66.5 206t179.5 93q27 50 27 110q0 47 -28.5 72t-96.5 25q-72 0 -105 -42t-41 -137 l-90 -1044h-274l90 1030q6 73 21 131.5t47 114.5t79 93.5t121.5 60t171.5 22.5q156 0 255 -76t99 -205q0 -112 -59 -327q-109 0 -153 -22.5t-44 -78.5q0 -46 64 -69q213 -72 213 -291z" />
<glyph unicode="&#xe0;" horiz-adv-x="1067" d="M123 485q14 159 49 264.5t98.5 171t153 93.5t219.5 28q160 0 336 -49l-61 -733q0 -28 15.5 -41.5t57.5 -13.5l-16 -205h-119q-26 0 -51 5t-52.5 16.5t-47.5 36t-27 59.5q-109 -135 -277 -135q-150 0 -217 82.5t-67 277.5q0 66 6 143zM494 215q51 0 89.5 40t56.5 91.5 t22 106.5l28 352q-58 4 -86 4q-36 0 -65 -10.5t-57 -40t-47 -78t-30.5 -129.5t-11.5 -189q0 -86 22.5 -116.5t78.5 -30.5zM862 1188h-217l-297 276h326z" />
<glyph unicode="&#xe1;" horiz-adv-x="1067" d="M123 485q14 159 49 264.5t98.5 171t153 93.5t219.5 28q160 0 336 -49l-61 -733q0 -28 15.5 -41.5t57.5 -13.5l-16 -205h-119q-26 0 -51 5t-52.5 16.5t-47.5 36t-27 59.5q-109 -135 -277 -135q-150 0 -217 82.5t-67 277.5q0 66 6 143zM494 215q51 0 89.5 40t56.5 91.5 t22 106.5l28 352q-58 4 -86 4q-36 0 -65 -10.5t-57 -40t-47 -78t-30.5 -129.5t-11.5 -189q0 -86 22.5 -116.5t78.5 -30.5zM694 1188h-227l227 276h336z" />
<glyph unicode="&#xe2;" horiz-adv-x="1067" d="M123 485q14 159 49 264.5t98.5 171t153 93.5t219.5 28q160 0 336 -49l-61 -733q0 -28 15.5 -41.5t57.5 -13.5l-16 -205h-119q-26 0 -51 5t-52.5 16.5t-47.5 36t-27 59.5q-109 -135 -277 -135q-150 0 -217 82.5t-67 277.5q0 66 6 143zM494 215q51 0 89.5 40t56.5 91.5 t22 106.5l28 352q-58 4 -86 4q-36 0 -65 -10.5t-57 -40t-47 -78t-30.5 -129.5t-11.5 -189q0 -86 22.5 -116.5t78.5 -30.5zM1047 1188h-295l-88 151l-117 -151h-305l274 276h303z" />
<glyph unicode="&#xe3;" horiz-adv-x="1067" d="M123 485q14 159 49 264.5t98.5 171t153 93.5t219.5 28q160 0 336 -49l-61 -733q0 -28 15.5 -41.5t57.5 -13.5l-16 -205h-119q-26 0 -51 5t-52.5 16.5t-47.5 36t-27 59.5q-109 -135 -277 -135q-150 0 -217 82.5t-67 277.5q0 66 6 143zM494 215q51 0 89.5 40t56.5 91.5 t22 106.5l28 352q-58 4 -86 4q-36 0 -65 -10.5t-57 -40t-47 -78t-30.5 -129.5t-11.5 -189q0 -86 22.5 -116.5t78.5 -30.5zM301 1194l18 215q85 66 201 66q50 0 150.5 -40t138.5 -40q101 0 190 73l-18 -215q-73 -65 -203 -65q-53 0 -148.5 40t-137.5 40q-51 0 -103 -21.5 t-88 -52.5z" />
<glyph unicode="&#xe4;" horiz-adv-x="1067" d="M123 485q14 159 49 264.5t98.5 171t153 93.5t219.5 28q160 0 336 -49l-61 -733q0 -28 15.5 -41.5t57.5 -13.5l-16 -205h-119q-26 0 -51 5t-52.5 16.5t-47.5 36t-27 59.5q-109 -135 -277 -135q-150 0 -217 82.5t-67 277.5q0 66 6 143zM494 215q51 0 89.5 40t56.5 91.5 t22 106.5l28 352q-58 4 -86 4q-36 0 -65 -10.5t-57 -40t-47 -78t-30.5 -129.5t-11.5 -189q0 -86 22.5 -116.5t78.5 -30.5zM969 1147h-267l23 235h266zM559 1147h-266l22 235h267z" />
<glyph unicode="&#xe5;" horiz-adv-x="1067" d="M713 1323q2 14 2 37q0 33 -11.5 48t-39.5 15q-38 0 -53 -32.5t-15 -104.5q0 -33 11.5 -48t39.5 -15q33 0 47 23.5t19 76.5zM893 1321q-11 -124 -72 -187t-188 -63q-105 0 -161 55.5t-56 157.5q0 287 262 287q104 0 160.5 -55.5t56.5 -157.5q0 -25 -2 -37zM123 485 q14 159 49 264.5t98.5 171t153 93.5t219.5 28q160 0 336 -49l-61 -733q0 -28 15.5 -41.5t57.5 -13.5l-16 -205h-119q-26 0 -51 5t-52.5 16.5t-47.5 36t-27 59.5q-109 -135 -277 -135q-150 0 -217 82.5t-67 277.5q0 66 6 143zM494 215q51 0 89.5 40t56.5 91.5t22 106.5 l28 352q-58 4 -86 4q-36 0 -65 -10.5t-57 -40t-47 -78t-30.5 -129.5t-11.5 -189q0 -86 22.5 -116.5t78.5 -30.5z" />
<glyph unicode="&#xe6;" horiz-adv-x="1515" d="M1464 745q0 -177 -95.5 -266.5t-311.5 -89.5q-71 0 -139 8q0 -109 30.5 -145.5t124.5 -36.5q106 0 264 31l-20 -230q-51 -14 -130 -24t-134 -10q-121 0 -201.5 27t-128.5 97q-47 -57 -133.5 -90.5t-196.5 -33.5q-61 0 -110.5 13.5t-91 44t-64.5 86t-23 132.5 q0 206 113 297.5t342 91.5q54 0 103 -8l6 55q2 8 2 23q0 100 -129 100q-152 0 -320 -49l21 233q58 17 151 29t168 12q210 0 297 -71q103 71 260 71q83 0 146.5 -20.5t100.5 -51.5t60 -73t31 -78.5t8 -73.5zM492 211q40 0 69.5 15t45 39t23 47t9.5 46l6 80q-57 11 -102 11 q-71 0 -114.5 -39.5t-43.5 -108.5q0 -90 107 -90zM1094 817q-61 0 -98 -48t-58 -161q46 -6 88 -6q170 0 170 111q0 51 -20 77.5t-82 26.5z" />
<glyph unicode="&#xe7;" horiz-adv-x="835" d="M272 -438l15 178q65 -10 110 -10q46 0 66 10t20 37t-33.5 37t-132.5 10l41 170q-116 23 -175.5 115t-59.5 286q0 346 112.5 496.5t354.5 150.5q113 0 231 -28l-20 -240q-10 2 -40.5 9t-41.5 8.5t-35.5 5.5t-48 5t-53.5 1t-52 -7.5t-43 -27.5t-35.5 -54.5t-26.5 -89.5 t-19 -132q-5 -73 -5 -80q0 -104 30.5 -147.5t94.5 -43.5q36 0 72 3.5t57.5 7t53.5 10t45 8.5l-21 -238q-78 -21 -180 -28l-4 -23q82 -10 122 -55.5t40 -116.5q0 -111 -70.5 -177.5t-214.5 -66.5q-75 0 -154 17z" />
<glyph unicode="&#xe8;" horiz-adv-x="991" d="M940 745q0 -176 -93.5 -264t-309.5 -88q-93 0 -144 6v-16q0 -97 33.5 -132.5t122.5 -35.5q106 0 264 31l-20 -230q-51 -14 -130.5 -24t-134.5 -10q-65 0 -115 6.5t-98.5 22.5t-82 45.5t-59.5 74t-39 110.5t-13 152q0 55 6 119q26 281 138.5 405.5t328.5 124.5 q83 0 146.5 -20.5t100.5 -51.5t60 -73t31 -78.5t8 -73.5zM569 817q-61 0 -97.5 -46t-57.5 -159q52 -6 96 -6q162 0 162 107q0 50 -20.5 77t-82.5 27zM819 1188h-217l-297 276h326z" />
<glyph unicode="&#xe9;" horiz-adv-x="991" d="M940 745q0 -176 -93.5 -264t-309.5 -88q-93 0 -144 6v-16q0 -97 33.5 -132.5t122.5 -35.5q106 0 264 31l-20 -230q-51 -14 -130.5 -24t-134.5 -10q-65 0 -115 6.5t-98.5 22.5t-82 45.5t-59.5 74t-39 110.5t-13 152q0 55 6 119q26 281 138.5 405.5t328.5 124.5 q83 0 146.5 -20.5t100.5 -51.5t60 -73t31 -78.5t8 -73.5zM569 817q-61 0 -97.5 -46t-57.5 -159q52 -6 96 -6q162 0 162 107q0 50 -20.5 77t-82.5 27zM643 1188h-227l227 276h336z" />
<glyph unicode="&#xea;" horiz-adv-x="991" d="M940 745q0 -176 -93.5 -264t-309.5 -88q-93 0 -144 6v-16q0 -97 33.5 -132.5t122.5 -35.5q106 0 264 31l-20 -230q-51 -14 -130.5 -24t-134.5 -10q-65 0 -115 6.5t-98.5 22.5t-82 45.5t-59.5 74t-39 110.5t-13 152q0 55 6 119q26 281 138.5 405.5t328.5 124.5 q83 0 146.5 -20.5t100.5 -51.5t60 -73t31 -78.5t8 -73.5zM569 817q-61 0 -97.5 -46t-57.5 -159q52 -6 96 -6q162 0 162 107q0 50 -20.5 77t-82.5 27zM993 1188h-295l-88 151l-116 -151h-306l275 276h303z" />
<glyph unicode="&#xeb;" horiz-adv-x="991" d="M940 745q0 -176 -93.5 -264t-309.5 -88q-93 0 -144 6v-16q0 -97 33.5 -132.5t122.5 -35.5q106 0 264 31l-20 -230q-51 -14 -130.5 -24t-134.5 -10q-65 0 -115 6.5t-98.5 22.5t-82 45.5t-59.5 74t-39 110.5t-13 152q0 55 6 119q26 281 138.5 405.5t328.5 124.5 q83 0 146.5 -20.5t100.5 -51.5t60 -73t31 -78.5t8 -73.5zM569 817q-61 0 -97.5 -46t-57.5 -159q52 -6 96 -6q162 0 162 107q0 50 -20.5 77t-82.5 27zM938 1147h-266l22 235h267zM528 1147h-266l23 235h266z" />
<glyph unicode="&#xec;" horiz-adv-x="538" d="M385 0h-272l88 1024h272zM541 1188h-217l-297 276h325z" />
<glyph unicode="&#xed;" horiz-adv-x="538" d="M385 0h-272l88 1024h272zM383 1188h-227l227 276h336z" />
<glyph unicode="&#xee;" horiz-adv-x="538" d="M385 0h-272l88 1024h272zM754 1188h-295l-88 151l-117 -151h-305l274 276h303z" />
<glyph unicode="&#xef;" horiz-adv-x="538" d="M385 0h-272l88 1024h272zM686 1147h-266l22 235h267zM276 1147h-266l23 235h266z" />
<glyph unicode="&#xf0;" horiz-adv-x="1040" d="M119 430q9 102 25.5 180t46.5 146t73 112t107.5 68.5t148.5 24.5q99 0 180 -43q-8 155 -69 225l-53 -86h-220l103 162q-30 2 -93 2.5t-83 1.5l20 229q192 0 293 -16l64 100h219l-101 -160q98 -56 148.5 -169.5t50.5 -305.5q0 -82 -8 -162q-19 -225 -53 -368t-95.5 -231.5 t-146.5 -123t-215 -34.5q-43 0 -86 9.5t-90.5 36t-84 67.5t-60 111t-23.5 159q0 42 2 65zM549 739q-75 0 -117.5 -100.5t-42.5 -271.5q0 -93 27.5 -126.5t89.5 -33.5q38 0 63.5 17t50 68t42.5 153t32 264q-73 30 -145 30z" />
<glyph unicode="&#xf1;" horiz-adv-x="1073" d="M385 0h-272l88 1024h221l10 -109q114 127 279 127q152 0 215 -73.5t63 -235.5q0 -43 -6 -119l-53 -614h-273l54 608q4 40 4 80q0 69 -24 94t-77 25q-42 0 -76.5 -26t-56 -66t-34 -82t-15.5 -82zM324 1194l18 215q85 66 201 66q50 0 150 -40t138 -40q102 0 191 73 l-18 -215q-73 -65 -203 -65q-53 0 -149 40t-138 40q-51 0 -102.5 -21t-87.5 -53z" />
<glyph unicode="&#xf2;" d="M1018 625q0 -27 -4 -93q-11 -129 -35.5 -222t-62.5 -156t-96 -100t-128.5 -52.5t-167.5 -15.5q-100 0 -170.5 20t-123 68t-78 132.5t-25.5 207.5q0 326 114 475t375 149q202 0 302 -100.5t100 -312.5zM733 502q6 43 6 112q0 112 -33.5 157.5t-109.5 45.5 q-92 0 -131.5 -67t-54.5 -248q-7 -79 -7 -117q0 -100 31.5 -139t108.5 -39q95 0 135 62t55 233zM817 1188h-217l-297 276h326z" />
<glyph unicode="&#xf3;" d="M1018 625q0 -27 -4 -93q-11 -129 -35.5 -222t-62.5 -156t-96 -100t-128.5 -52.5t-167.5 -15.5q-100 0 -170.5 20t-123 68t-78 132.5t-25.5 207.5q0 326 114 475t375 149q202 0 302 -100.5t100 -312.5zM733 502q6 64 6 112q0 112 -33.5 157.5t-109.5 45.5 q-92 0 -131.5 -67t-54.5 -248q-7 -79 -7 -117q0 -100 31.5 -139t108.5 -39q95 0 135 62t55 233zM657 1188h-227l227 276h336z" />
<glyph unicode="&#xf4;" d="M1018 625q0 -27 -4 -93q-11 -129 -35.5 -222t-62.5 -156t-96 -100t-128.5 -52.5t-167.5 -15.5q-100 0 -170.5 20t-123 68t-78 132.5t-25.5 207.5q0 326 114 475t375 149q202 0 302 -100.5t100 -312.5zM733 502q6 64 6 112q0 112 -33.5 157.5t-109.5 45.5 q-92 0 -131.5 -67t-54.5 -248q-7 -79 -7 -117q0 -100 31.5 -139t108.5 -39q95 0 135 62t55 233zM1028 1188h-295l-88 151l-117 -151h-305l275 276h303z" />
<glyph unicode="&#xf5;" d="M1018 625q0 -27 -4 -93q-11 -129 -35.5 -222t-62.5 -156t-96 -100t-128.5 -52.5t-167.5 -15.5q-100 0 -170.5 20t-123 68t-78 132.5t-25.5 207.5q0 326 114 475t375 149q202 0 302 -100.5t100 -312.5zM733 502q6 64 6 112q0 112 -33.5 157.5t-109.5 45.5 q-92 0 -131.5 -67t-54.5 -248q-7 -79 -7 -117q0 -100 31.5 -139t108.5 -39q95 0 135 62t55 233zM289 1194l18 215q85 66 201 66q50 0 150.5 -40t138.5 -40q101 0 190 73l-18 -215q-73 -65 -203 -65q-53 0 -149 40t-138 40q-51 0 -102.5 -21t-87.5 -53z" />
<glyph unicode="&#xf6;" d="M1018 625q0 -27 -4 -93q-11 -129 -35.5 -222t-62.5 -156t-96 -100t-128.5 -52.5t-167.5 -15.5q-100 0 -170.5 20t-123 68t-78 132.5t-25.5 207.5q0 326 114 475t375 149q202 0 302 -100.5t100 -312.5zM733 502q6 64 6 112q0 112 -33.5 157.5t-109.5 45.5 q-92 0 -131.5 -67t-54.5 -248q-7 -79 -7 -117q0 -100 31.5 -139t108.5 -39q95 0 135 62t55 233zM965 1147h-267l23 235h266zM555 1147h-266l22 235h267z" />
<glyph unicode="&#xf7;" horiz-adv-x="1126" d="M1006 502h-840l20 235h840zM702 92h-307l25 266h307zM772 881h-307l22 266h308z" />
<glyph unicode="&#xf8;" d="M1018 625q0 -27 -4 -93q-11 -129 -35.5 -222t-62.5 -156t-96 -100t-128.5 -52.5t-167.5 -15.5q-38 0 -104 8l-82 -176h-195l111 235q-127 92 -127 361q0 326 114 475t375 149q58 0 99 -8l84 176h192l-112 -237q139 -100 139 -344zM733 502q6 64 6 112q0 9 -1 26.5 t-1 25.5l-217 -459h23q95 0 135 62t55 233zM403 385v-18l211 450h-18q-92 0 -131.5 -67t-54.5 -248q-7 -79 -7 -117z" />
<glyph unicode="&#xf9;" horiz-adv-x="1060" d="M190 1024h273l-51 -600q-4 -75 -6 -92q0 -67 22.5 -91t73.5 -24q41 0 74.5 25.5t53.5 66t31.5 82.5t14.5 82l47 551h272l-88 -1024h-221l-10 102q-110 -120 -270 -120q-150 0 -212.5 75.5t-62.5 237.5q0 26 4 100zM764 1188h-217l-297 276h325z" />
<glyph unicode="&#xfa;" horiz-adv-x="1060" d="M190 1024h273l-51 -600q-4 -75 -6 -92q0 -67 22.5 -91t73.5 -24q41 0 74.5 25.5t53.5 66t31.5 82.5t14.5 82l47 551h272l-88 -1024h-221l-10 102q-110 -120 -270 -120q-150 0 -212.5 75.5t-62.5 237.5q0 26 4 100zM616 1188h-227l227 276h336z" />
<glyph unicode="&#xfb;" horiz-adv-x="1060" d="M190 1024h273l-51 -600q-4 -75 -6 -92q0 -67 22.5 -91t73.5 -24q41 0 74.5 25.5t53.5 66t31.5 82.5t14.5 82l47 551h272l-88 -1024h-221l-10 102q-110 -120 -270 -120q-150 0 -212.5 75.5t-62.5 237.5q0 26 4 100zM1010 1188h-295l-88 151l-117 -151h-305l274 276h303z " />
<glyph unicode="&#xfc;" horiz-adv-x="1060" d="M190 1024h273l-51 -600q-4 -75 -6 -92q0 -67 22.5 -91t73.5 -24q41 0 74.5 25.5t53.5 66t31.5 82.5t14.5 82l47 551h272l-88 -1024h-221l-10 102q-110 -120 -270 -120q-150 0 -212.5 75.5t-62.5 237.5q0 26 4 100zM942 1147h-266l22 235h267zM532 1147h-266l23 235h266z " />
<glyph unicode="&#xfd;" horiz-adv-x="1009" d="M1036 1024l-358 -1110q-89 -276 -316 -276q-121 0 -184 10l21 231q50 -6 100 -6q84 0 109 90l10 37h-70l-239 1024h286l129 -797l244 797h268zM664 1188h-228l228 276h335z" />
<glyph unicode="&#xfe;" horiz-adv-x="1062" d="M354 -348h-272l156 1782h272l-43 -488q103 96 244 96q282 0 282 -362q0 -70 -6 -123q-15 -164 -49.5 -272.5t-98 -177t-154.5 -97t-224 -28.5q-55 0 -78 2zM618 809q-74 0 -124 -69.5t-58 -153.5l-33 -367q66 -4 97 -4q38 0 69.5 11.5t60 41.5t47.5 78t30.5 124.5 t11.5 176.5q0 92 -24.5 127t-76.5 35z" />
<glyph unicode="&#xff;" horiz-adv-x="1009" d="M1036 1024l-358 -1110q-89 -276 -316 -276q-121 0 -184 10l21 231q50 -6 100 -6q84 0 109 90l10 37h-70l-239 1024h286l129 -797l244 797h268zM915 1147h-266l23 235h266zM506 1147h-266l22 235h266z" />
<glyph unicode="&#x100;" horiz-adv-x="1116" d="M980 1577h-605l21 223h604zM721 575l-68 678l-188 -678h256zM1065 0h-283l-37 334h-348l-94 -334h-293l449 1434h413z" />
<glyph unicode="&#x101;" horiz-adv-x="1067" d="M955 1165h-604l21 224h604zM123 485q14 159 49 264.5t98.5 171t153 93.5t219.5 28q160 0 336 -49l-61 -733q0 -28 15.5 -41.5t57.5 -13.5l-16 -205h-119q-26 0 -51 5t-52.5 16.5t-47.5 36t-27 59.5q-109 -135 -277 -135q-150 0 -217 82.5t-67 277.5q0 66 6 143zM494 215 q51 0 89.5 40t56.5 91.5t22 106.5l28 352q-58 4 -86 4q-36 0 -65 -10.5t-57 -40t-47 -78t-30.5 -129.5t-11.5 -189q0 -86 22.5 -116.5t78.5 -30.5z" />
<glyph unicode="&#x102;" horiz-adv-x="1116" d="M372 1874h240q0 -50 21 -77.5t62 -27.5q40 0 67.5 29t33.5 76h239q-5 -38 -18 -75t-40.5 -78t-66 -72t-100 -51.5t-137.5 -20.5q-68 0 -122.5 20.5t-87 51.5t-54 72t-29.5 78.5t-8 74.5zM721 575l-68 678l-188 -678h256zM1065 0h-283l-37 334h-348l-94 -334h-293 l449 1434h413z" />
<glyph unicode="&#x103;" horiz-adv-x="1067" d="M348 1462h239q0 -50 21.5 -77t62.5 -27q40 0 67.5 28.5t33.5 75.5h239q-5 -38 -18 -75t-40.5 -78t-66 -72t-100 -51.5t-137.5 -20.5q-68 0 -122.5 20.5t-87 51.5t-54 72t-29.5 78.5t-8 74.5zM123 485q14 159 49 264.5t98.5 171t153 93.5t219.5 28q160 0 336 -49l-61 -733 q0 -28 15.5 -41.5t57.5 -13.5l-16 -205h-119q-26 0 -51 5t-52.5 16.5t-47.5 36t-27 59.5q-109 -135 -277 -135q-150 0 -217 82.5t-67 277.5q0 66 6 143zM494 215q51 0 89.5 40t56.5 91.5t22 106.5l28 352q-58 4 -86 4q-36 0 -65 -10.5t-57 -40t-47 -78t-30.5 -129.5 t-11.5 -189q0 -86 22.5 -116.5t78.5 -30.5z" />
<glyph unicode="&#x104;" horiz-adv-x="1116" d="M997 -296l-14 -194q-82 -21 -174 -21q-126 0 -180 52t-54 159t38 181.5t100 136.5h67l-35 316h-348l-94 -334h-293l449 1434h413l193 -1434h-160q-44 -63 -72 -128t-28 -100q0 -37 18.5 -59.5t53.5 -22.5q34 0 120 14zM721 575l-68 678l-188 -678h256z" />
<glyph unicode="&#x105;" horiz-adv-x="1067" d="M494 215q51 0 89.5 40t56.5 91.5t22 106.5l28 352q-58 4 -86 4q-36 0 -65 -10.5t-57 -40t-47 -78t-30.5 -129.5t-11.5 -189q0 -86 22.5 -116.5t78.5 -30.5zM644 -314l-14 -195q-78 -20 -174 -20q-126 0 -180 52t-54 159q0 172 123 303q-119 14 -173.5 97t-54.5 260 q0 66 6 143q14 159 49 264.5t98.5 171t153 93.5t219.5 28q160 0 336 -49l-61 -733q0 -28 15.5 -41.5t57.5 -13.5l-16 -205h-119q-26 0 -51 5t-52.5 16.5t-47.5 36t-27 59.5q-69 -87 -162 -118h48q-49 -65 -80.5 -136t-31.5 -110q0 -37 18 -59t53 -22t121 14z" />
<glyph unicode="&#x106;" horiz-adv-x="886" d="M813 1577h-227l227 276h336zM807 262l-23 -248q-35 -9 -117 -18.5t-132 -9.5q-101 0 -170 22t-123.5 79t-80.5 161.5t-26 261.5q0 122 10 229q12 134 30.5 235.5t42.5 177t59 128t73.5 85.5t93.5 51.5t111 25t133 6.5q40 0 118 -10.5t101 -18.5l-20 -250q-125 33 -246 33 q-48 0 -78 -15t-57 -64t-45.5 -145t-32.5 -253q-3 -25 -7.5 -125.5t-4.5 -122.5q0 -101 16 -155.5t44 -72.5t79 -18q115 0 252 31z" />
<glyph unicode="&#x107;" horiz-adv-x="835" d="M714 1165h-227l227 277h336zM754 250l-21 -238q-113 -30 -237 -30q-73 0 -126 9.5t-102 36t-79 71.5t-48 119.5t-18 176.5q0 346 112.5 496.5t354.5 150.5q113 0 231 -28l-20 -240q-10 2 -40.5 9t-41.5 8.5t-35.5 5.5t-48 5t-53.5 1t-52 -7.5t-43 -27.5t-35.5 -54.5 t-26.5 -89.5t-19 -132q-5 -73 -5 -80q0 -104 30.5 -147.5t94.5 -43.5q36 0 72 3.5t57.5 7t53.5 10t45 8.5z" />
<glyph unicode="&#x108;" horiz-adv-x="886" d="M1102 1577h-295l-88 152l-117 -152h-305l274 276h304zM807 262l-23 -248q-35 -9 -117 -18.5t-132 -9.5q-101 0 -170 22t-123.5 79t-80.5 161.5t-26 261.5q0 122 10 229q12 134 30.5 235.5t42.5 177t59 128t73.5 85.5t93.5 51.5t111 25t133 6.5q40 0 118 -10.5t101 -18.5 l-20 -250q-125 33 -246 33q-48 0 -78 -15t-57 -64t-45.5 -145t-32.5 -253q-3 -25 -7.5 -125.5t-4.5 -122.5q0 -101 16 -155.5t44 -72.5t79 -18q115 0 252 31z" />
<glyph unicode="&#x109;" horiz-adv-x="835" d="M1003 1165h-295l-88 152l-117 -152h-305l275 277h303zM754 250l-21 -238q-113 -30 -237 -30q-73 0 -126 9.5t-102 36t-79 71.5t-48 119.5t-18 176.5q0 346 112.5 496.5t354.5 150.5q113 0 231 -28l-20 -240q-10 2 -40.5 9t-41.5 8.5t-35.5 5.5t-48 5t-53.5 1t-52 -7.5 t-43 -27.5t-35.5 -54.5t-26.5 -89.5t-19 -132q-5 -73 -5 -80q0 -104 30.5 -147.5t94.5 -43.5q36 0 72 3.5t57.5 7t53.5 10t45 8.5z" />
<glyph unicode="&#x10a;" horiz-adv-x="886" d="M846 1577h-293l20 235h293zM807 262l-23 -248q-35 -9 -117 -18.5t-132 -9.5q-101 0 -170 22t-123.5 79t-80.5 161.5t-26 261.5q0 122 10 229q12 134 30.5 235.5t42.5 177t59 128t73.5 85.5t93.5 51.5t111 25t133 6.5q40 0 118 -10.5t101 -18.5l-20 -250q-125 33 -246 33 q-48 0 -78 -15t-57 -64t-45.5 -145t-32.5 -253q-3 -25 -7.5 -125.5t-4.5 -122.5q0 -101 16 -155.5t44 -72.5t79 -18q115 0 252 31z" />
<glyph unicode="&#x10b;" horiz-adv-x="835" d="M747 1165h-293l21 236h292zM754 250l-21 -238q-113 -30 -237 -30q-73 0 -126 9.5t-102 36t-79 71.5t-48 119.5t-18 176.5q0 346 112.5 496.5t354.5 150.5q113 0 231 -28l-20 -240q-10 2 -40.5 9t-41.5 8.5t-35.5 5.5t-48 5t-53.5 1t-52 -7.5t-43 -27.5t-35.5 -54.5 t-26.5 -89.5t-19 -132q-5 -73 -5 -80q0 -104 30.5 -147.5t94.5 -43.5q36 0 72 3.5t57.5 7t53.5 10t45 8.5z" />
<glyph unicode="&#x10c;" horiz-adv-x="886" d="M321 1853h295l90 -151l114 151h306l-275 -276h-303zM807 262l-23 -248q-35 -9 -117 -18.5t-132 -9.5q-101 0 -170 22t-123.5 79t-80.5 161.5t-26 261.5q0 122 10 229q12 134 30.5 235.5t42.5 177t59 128t73.5 85.5t93.5 51.5t111 25t133 6.5q40 0 118 -10.5t101 -18.5 l-20 -250q-125 33 -246 33q-48 0 -78 -15t-57 -64t-45.5 -145t-32.5 -253q-3 -25 -7.5 -125.5t-4.5 -122.5q0 -101 16 -155.5t44 -72.5t79 -18q115 0 252 31z" />
<glyph unicode="&#x10d;" horiz-adv-x="835" d="M222 1442h295l90 -152l115 152h305l-275 -277h-303zM754 250l-21 -238q-113 -30 -237 -30q-73 0 -126 9.5t-102 36t-79 71.5t-48 119.5t-18 176.5q0 346 112.5 496.5t354.5 150.5q113 0 231 -28l-20 -240q-10 2 -40.5 9t-41.5 8.5t-35.5 5.5t-48 5t-53.5 1t-52 -7.5 t-43 -27.5t-35.5 -54.5t-26.5 -89.5t-19 -132q-5 -73 -5 -80q0 -104 30.5 -147.5t94.5 -43.5q36 0 72 3.5t57.5 7t53.5 10t45 8.5z" />
<glyph unicode="&#x10e;" horiz-adv-x="1118" d="M316 1853h295l90 -151l115 151h305l-274 -276h-303zM772 725q12 144 12 233q0 82 -9 132.5t-30 75.5t-45.5 32.5t-64.5 7.5q-34 0 -65.5 -2t-46.5 -4l-15 -2l-84 -962q37 -9 123 -9q66 0 108 42t71.5 151.5t45.5 304.5zM1059 739q-16 -183 -46 -313.5t-73 -217t-108 -137 t-141.5 -71t-182.5 -20.5q-64 0 -160.5 5t-160.5 10l-64 5l125 1434q249 20 364 20q88 0 153 -12.5t124.5 -46.5t97 -92t59 -152.5t21.5 -224.5q0 -96 -8 -187z" />
<glyph unicode="&#x10f;" horiz-adv-x="1079" d="M1602 1167l-218 -307h-198l108 307l23 267h307zM129 496q26 302 147.5 424t385.5 122q27 0 81 -4l35 396h273l-125 -1434h-221l-13 117q-116 -135 -280 -135q-156 0 -223.5 81t-67.5 273q0 50 8 160zM504 215q43 0 79 25.5t58.5 65.5t36 82.5t16.5 82.5l29 332 q-53 6 -100 6q-40 0 -71 -10.5t-60.5 -39t-49 -76.5t-31.5 -127.5t-12 -186.5q0 -91 23.5 -122.5t81.5 -31.5z" />
<glyph unicode="&#x110;" horiz-adv-x="1118" d="M1059 739q-16 -183 -46 -313.5t-73 -217t-108 -137t-141.5 -71t-182.5 -20.5q-64 0 -160.5 5t-160.5 10l-64 5l57 666h-82l21 235h82l47 533q249 20 364 20q88 0 153 -12.5t124.5 -46.5t97 -92t59 -152.5t21.5 -224.5q0 -96 -8 -187zM772 725q12 144 12 233 q0 82 -9 132.5t-30 75.5t-45.5 32.5t-64.5 7.5q-34 0 -65.5 -2t-46.5 -4l-15 -2l-27 -297h201l-20 -235h-201l-37 -430q37 -9 123 -9q66 0 108 42t71.5 151.5t45.5 304.5z" />
<glyph unicode="&#x111;" horiz-adv-x="1153" d="M129 496q26 302 147.5 424t385.5 122q27 0 81 -4l6 66h-341l20 235h342l8 95h273l-9 -95h93l-21 -235h-92l-96 -1104h-221l-13 117q-116 -135 -280 -135q-156 0 -223.5 81t-67.5 273q0 50 8 160zM504 215q56 0 100 44.5t64.5 100t25.5 111.5l29 332q-53 6 -100 6 q-40 0 -71 -10.5t-60.5 -39t-49 -76.5t-31.5 -127.5t-12 -186.5q0 -91 23.5 -122.5t81.5 -31.5z" />
<glyph unicode="&#x112;" horiz-adv-x="978" d="M928 1577h-604l21 223h604zM856 0h-733l125 1434h733l-20 -222h-453l-31 -362h402l-21 -219h-401l-35 -410h452z" />
<glyph unicode="&#x113;" horiz-adv-x="991" d="M906 1165h-604l20 224h605zM940 745q0 -176 -93.5 -264t-309.5 -88q-93 0 -144 6v-16q0 -97 33.5 -132.5t122.5 -35.5q106 0 264 31l-20 -230q-51 -14 -130.5 -24t-134.5 -10q-65 0 -115 6.5t-98.5 22.5t-82 45.5t-59.5 74t-39 110.5t-13 152q0 55 6 119 q26 281 138.5 405.5t328.5 124.5q83 0 146.5 -20.5t100.5 -51.5t60 -73t31 -78.5t8 -73.5zM569 817q-61 0 -97.5 -46t-57.5 -159q52 -6 96 -6q162 0 162 107q0 50 -20.5 77t-82.5 27z" />
<glyph unicode="&#x114;" horiz-adv-x="978" d="M321 1874h239q0 -50 21.5 -77.5t62.5 -27.5q40 0 67.5 29t33.5 76h239q-5 -38 -18 -75t-40.5 -78t-66 -72t-100 -51.5t-137.5 -20.5q-68 0 -122.5 20.5t-87 51.5t-54 72t-29.5 78.5t-8 74.5zM856 0h-733l125 1434h733l-20 -222h-453l-31 -362h402l-21 -219h-401l-35 -410 h452z" />
<glyph unicode="&#x115;" horiz-adv-x="991" d="M298 1462h240q0 -50 21.5 -77t62.5 -27q40 0 67 28.5t33 75.5h240q-5 -38 -18 -75t-40.5 -78t-66 -72t-100 -51.5t-137.5 -20.5q-68 0 -122.5 20.5t-87 51.5t-54.5 72t-30 78.5t-8 74.5zM940 745q0 -176 -93.5 -264t-309.5 -88q-93 0 -144 6v-16q0 -97 33.5 -132.5 t122.5 -35.5q106 0 264 31l-20 -230q-51 -14 -130.5 -24t-134.5 -10q-65 0 -115 6.5t-98.5 22.5t-82 45.5t-59.5 74t-39 110.5t-13 152q0 55 6 119q26 281 138.5 405.5t328.5 124.5q83 0 146.5 -20.5t100.5 -51.5t60 -73t31 -78.5t8 -73.5zM569 817q-61 0 -97.5 -46 t-57.5 -159q52 -6 96 -6q162 0 162 107q0 50 -20.5 77t-82.5 27z" />
<glyph unicode="&#x116;" horiz-adv-x="978" d="M773 1577h-293l21 235h293zM856 0h-733l125 1434h733l-20 -222h-453l-31 -362h402l-21 -219h-401l-35 -410h452z" />
<glyph unicode="&#x117;" horiz-adv-x="991" d="M751 1165h-293l21 236h292zM940 745q0 -176 -93.5 -264t-309.5 -88q-93 0 -144 6v-16q0 -97 33.5 -132.5t122.5 -35.5q106 0 264 31l-20 -230q-51 -14 -130.5 -24t-134.5 -10q-65 0 -115 6.5t-98.5 22.5t-82 45.5t-59.5 74t-39 110.5t-13 152q0 55 6 119 q26 281 138.5 405.5t328.5 124.5q83 0 146.5 -20.5t100.5 -51.5t60 -73t31 -78.5t8 -73.5zM569 817q-61 0 -97.5 -46t-57.5 -159q52 -6 96 -6q162 0 162 107q0 50 -20.5 77t-82.5 27z" />
<glyph unicode="&#x118;" horiz-adv-x="978" d="M732 -296l-14 -194q-82 -21 -174 -21q-126 0 -180 52t-54 159q0 169 121 300h-308l125 1434h733l-20 -222h-453l-31 -362h402l-21 -219h-401l-35 -410h452l-18 -221h-216q-44 -63 -72 -128t-28 -100q0 -37 18 -59.5t53 -22.5t121 14z" />
<glyph unicode="&#x119;" horiz-adv-x="991" d="M569 817q-61 0 -97.5 -46t-57.5 -159q52 -6 96 -6q162 0 162 107q0 50 -20.5 77t-82.5 27zM669 -314l-15 -195q-78 -20 -174 -20q-126 0 -179.5 52t-53.5 159q0 178 131 311q-127 24 -192 115t-65 285q0 55 6 119q26 281 138.5 405.5t328.5 124.5q83 0 146.5 -20.5 t100.5 -51.5t60 -73t31 -78.5t8 -73.5q0 -176 -93.5 -264t-309.5 -88q-93 0 -144 6v-16q0 -97 33.5 -132.5t122.5 -35.5q106 0 264 31l-20 -230q-86 -24 -216 -33q-44 -63 -72.5 -128.5t-28.5 -101.5q0 -37 18.5 -59t53.5 -22t121 14z" />
<glyph unicode="&#x11a;" horiz-adv-x="978" d="M248 1853h295l90 -151l115 151h305l-274 -276h-303zM856 0h-733l125 1434h733l-20 -222h-453l-31 -362h402l-21 -219h-401l-35 -410h452z" />
<glyph unicode="&#x11b;" horiz-adv-x="991" d="M226 1442h295l90 -152l115 152h305l-275 -277h-303zM940 745q0 -176 -93.5 -264t-309.5 -88q-93 0 -144 6v-16q0 -97 33.5 -132.5t122.5 -35.5q106 0 264 31l-20 -230q-51 -14 -130.5 -24t-134.5 -10q-65 0 -115 6.5t-98.5 22.5t-82 45.5t-59.5 74t-39 110.5t-13 152 q0 55 6 119q26 281 138.5 405.5t328.5 124.5q83 0 146.5 -20.5t100.5 -51.5t60 -73t31 -78.5t8 -73.5zM569 817q-61 0 -97.5 -46t-57.5 -159q52 -6 96 -6q162 0 162 107q0 50 -20.5 77t-82.5 27z" />
<glyph unicode="&#x11c;" horiz-adv-x="1044" d="M1149 1577h-295l-88 152l-117 -152h-305l274 276h303zM979 795l-68 -777q-200 -36 -354 -36q-110 0 -185 24t-130.5 83t-81 163t-25.5 260q0 122 10 227q11 129 30.5 229.5t46 176t65 129t81.5 88t102 54.5t121 28t144 8q124 0 256 -29l-20 -245q-134 28 -279 28 q-54 0 -90 -11.5t-66 -40.5t-49 -85t-33.5 -137.5t-25.5 -206.5q-12 -144 -12 -240q0 -104 16.5 -160t48.5 -77t90 -21q59 0 86 2l29 324h-131l20 242h404z" />
<glyph unicode="&#x11d;" horiz-adv-x="1079" d="M1075 1165h-295l-88 152l-117 -152h-305l274 277h303zM928 41q-21 -242 -120.5 -338t-313.5 -96q-124 0 -314 35l21 221q175 -35 262 -35q100 0 142 44t50 148l7 80q-106 -98 -250 -98q-152 0 -220.5 81.5t-68.5 274.5q0 195 31.5 327t100 211t166.5 112.5t241 33.5 q152 0 350 -49zM504 236q78 0 129.5 68t58.5 151l29 348q-50 6 -98 6q-39 0 -70 -9.5t-61 -37t-49.5 -73.5t-31.5 -123.5t-12 -182.5q0 -86 23.5 -116.5t81.5 -30.5z" />
<glyph unicode="&#x11e;" horiz-adv-x="1044" d="M440 1874h240q0 -50 21.5 -77.5t62.5 -27.5q40 0 67 29t33 76h239q-5 -38 -18 -75t-40.5 -78t-66 -72t-100 -51.5t-137.5 -20.5q-68 0 -122.5 20.5t-87 51.5t-54 72t-29.5 78.5t-8 74.5zM979 795l-68 -777q-200 -36 -354 -36q-110 0 -185 24t-130.5 83t-81 163t-25.5 260 q0 122 10 227q11 129 30.5 229.5t46 176t65 129t81.5 88t102 54.5t121 28t144 8q124 0 256 -29l-20 -245q-134 28 -279 28q-54 0 -90 -11.5t-66 -40.5t-49 -85t-33.5 -137.5t-25.5 -206.5q-12 -144 -12 -240q0 -104 16.5 -160t48.5 -77t90 -21q59 0 86 2l29 324h-131l20 242 h404z" />
<glyph unicode="&#x11f;" horiz-adv-x="1079" d="M366 1462h240q0 -50 21.5 -77t62.5 -27q40 0 67 28.5t33 75.5h240q-5 -38 -18 -75t-41 -78t-66.5 -72t-100 -51.5t-137.5 -20.5q-68 0 -122.5 20.5t-87 51.5t-54 72t-29.5 78.5t-8 74.5zM928 41q-21 -242 -120.5 -338t-313.5 -96q-124 0 -314 35l21 221q175 -35 262 -35 q100 0 142 44t50 148l7 80q-106 -98 -250 -98q-152 0 -220.5 81.5t-68.5 274.5q0 195 31.5 327t100 211t166.5 112.5t241 33.5q152 0 350 -49zM504 236q78 0 129.5 68t58.5 151l29 348q-50 6 -98 6q-39 0 -70 -9.5t-61 -37t-49.5 -73.5t-31.5 -123.5t-12 -182.5 q0 -86 23.5 -116.5t81.5 -30.5z" />
<glyph unicode="&#x120;" horiz-adv-x="1044" d="M892 1577h-292l20 235h293zM979 795l-68 -777q-200 -36 -354 -36q-110 0 -185 24t-130.5 83t-81 163t-25.5 260q0 122 10 227q11 129 30.5 229.5t46 176t65 129t81.5 88t102 54.5t121 28t144 8q124 0 256 -29l-20 -245q-134 28 -279 28q-54 0 -90 -11.5t-66 -40.5 t-49 -85t-33.5 -137.5t-25.5 -206.5q-12 -144 -12 -240q0 -104 16.5 -160t48.5 -77t90 -21q59 0 86 2l29 324h-131l20 242h404z" />
<glyph unicode="&#x121;" horiz-adv-x="1079" d="M819 1165h-293l20 236h293zM928 41q-21 -242 -120.5 -338t-313.5 -96q-124 0 -314 35l21 221q175 -35 262 -35q100 0 142 44t50 148l7 80q-106 -98 -250 -98q-152 0 -220.5 81.5t-68.5 274.5q0 195 31.5 327t100 211t166.5 112.5t241 33.5q152 0 350 -49zM504 236 q78 0 129.5 68t58.5 151l29 348q-50 6 -98 6q-39 0 -70 -9.5t-61 -37t-49.5 -73.5t-31.5 -123.5t-12 -182.5q0 -86 23.5 -116.5t81.5 -30.5z" />
<glyph unicode="&#x122;" horiz-adv-x="1044" d="M718 -408l-217 -307h-198l108 307l23 267h307zM979 795l-68 -777q-200 -36 -354 -36q-110 0 -185 24t-130.5 83t-81 163t-25.5 260q0 122 10 227q11 129 30.5 229.5t46 176t65 129t81.5 88t102 54.5t121 28t144 8q124 0 256 -29l-20 -245q-134 28 -279 28 q-54 0 -90 -11.5t-66 -40.5t-49 -85t-33.5 -137.5t-25.5 -206.5q-12 -144 -12 -240q0 -104 16.5 -160t48.5 -77t90 -21q59 0 86 2l29 324h-131l20 242h404z" />
<glyph unicode="&#x123;" horiz-adv-x="1079" d="M528 1163l15 178q65 -10 110 -10q46 0 66 10t20 37t-33.5 37t-132.5 10l70 279h197l-35 -141q82 -10 122 -55.5t40 -116.5q0 -111 -70.5 -177.5t-214.5 -66.5q-80 0 -154 16zM928 41q-21 -242 -120.5 -338t-313.5 -96q-124 0 -314 35l21 221q175 -35 262 -35 q100 0 142 43.5t50 148.5l7 80q-106 -98 -250 -98q-152 0 -220.5 81.5t-68.5 274.5q0 195 31.5 327t100 211t166.5 112.5t241 33.5q152 0 350 -49zM504 236q78 0 129.5 68t58.5 151l29 348q-50 6 -98 6q-39 0 -70 -9.5t-61 -37t-49.5 -73.5t-31.5 -123.5t-12 -182.5 q0 -86 23.5 -116.5t81.5 -30.5z" />
<glyph unicode="&#x124;" horiz-adv-x="1167" d="M1103 1577h-295l-88 152l-117 -152h-305l275 276h303zM1004 0h-281l51 608h-319l-52 -608h-280l125 1434h280l-53 -592h320l53 592h280z" />
<glyph unicode="&#x125;" horiz-adv-x="1073" d="M1058 1556h-295l-88 152l-117 -152h-305l275 277h303zM385 0h-272l125 1434h272l-43 -486q104 94 244 94q152 0 215 -73.5t63 -235.5q0 -49 -6 -119l-53 -614h-273l54 621q4 36 4 67q0 69 -24 94t-77 25q-72 0 -121.5 -69t-56.5 -150z" />
<glyph unicode="&#x126;" horiz-adv-x="1320" d="M1004 0h-281l51 608h-319l-52 -608h-280l90 1036h-147l20 236h148l14 162h280l-14 -162h319l15 162h280l-14 -162h133l-20 -236h-133zM812 1036h-319l-18 -194h320z" />
<glyph unicode="&#x127;" horiz-adv-x="1073" d="M385 0h-272l96 1108h-186l20 235h187l8 91h272l-8 -91h248l-21 -235h-248l-14 -160q104 94 244 94q152 0 215 -73.5t63 -235.5q0 -49 -6 -119l-53 -614h-273l54 621q4 36 4 67q0 69 -24 94t-77 25q-71 0 -121 -68.5t-57 -150.5z" />
<glyph unicode="&#x128;" horiz-adv-x="710" d="M135 1583l19 215q85 66 201 66q50 0 150 -40t138 -40q101 0 191 74l-19 -216q-73 -65 -202 -65q-53 0 -149 40t-138 40q-51 0 -103 -21.5t-88 -52.5zM618 0h-567l19 217h143l86 1000h-143l20 217h567l-20 -217h-143l-86 -1000h143z" />
<glyph unicode="&#x129;" horiz-adv-x="538" d="M12 1167l18 215q85 66 201 66q50 0 150.5 -40t138.5 -40q100 0 190 74l-18 -215q-74 -66 -203 -66q-53 0 -149 40t-138 40q-51 0 -102.5 -21t-87.5 -53zM385 0h-272l88 1024h272z" />
<glyph unicode="&#x12a;" horiz-adv-x="710" d="M774 1577h-604l20 223h604zM618 0h-567l19 217h143l86 1000h-143l20 217h567l-20 -217h-143l-86 -1000h143z" />
<glyph unicode="&#x12b;" horiz-adv-x="538" d="M650 1161h-604l21 223h604zM385 0h-272l88 1024h272z" />
<glyph unicode="&#x12c;" horiz-adv-x="710" d="M166 1874h240q0 -50 21.5 -77.5t62.5 -27.5q40 0 67 29t33 76h240q-5 -38 -18 -75t-41 -78t-66.5 -72t-100 -51.5t-137.5 -20.5q-68 0 -122.5 20.5t-87 51.5t-54 72t-29.5 78.5t-8 74.5zM618 0h-567l19 217h143l86 1000h-143l20 217h567l-20 -217h-143l-86 -1000h143z " />
<glyph unicode="&#x12d;" horiz-adv-x="538" d="M43 1458h239q0 -50 21.5 -77t62.5 -27q40 0 67.5 28.5t33.5 75.5h239q-5 -38 -18 -75t-40.5 -78t-66 -72t-100 -51.5t-137.5 -20.5q-68 0 -122.5 20.5t-87 51.5t-54 72t-29.5 78.5t-8 74.5zM385 0h-272l88 1024h272z" />
<glyph unicode="&#x12e;" horiz-adv-x="710" d="M475 -296l-14 -194q-82 -21 -174 -21q-126 0 -180 52t-54 159q0 169 121 300h-123l19 217h143l86 1000h-143l20 217h567l-20 -217h-143l-86 -1000h143l-19 -217h-233q-102 -172 -102 -228q0 -37 18 -59.5t53 -22.5t121 14z" />
<glyph unicode="&#x12f;" horiz-adv-x="538" d="M500 1198h-293l20 236h293zM389 -296l-14 -194q-82 -21 -174 -21q-126 0 -180 52t-54 159t38 181.5t100 136.5h9l87 1006h272l-88 -1024h-88q-44 -63 -72 -128t-28 -100q0 -37 18 -59.5t53 -22.5t121 14z" />
<glyph unicode="&#x130;" horiz-adv-x="710" d="M619 1577h-293l20 235h293zM618 0h-567l19 217h143l86 1000h-143l20 217h567l-20 -217h-143l-86 -1000h143z" />
<glyph unicode="&#x131;" horiz-adv-x="538" d="M385 0h-272l88 1024h272z" />
<glyph unicode="&#x132;" horiz-adv-x="1562" d="M1454 535q-12 -139 -32.5 -231.5t-52.5 -158t-84 -100.5t-119 -50t-167 -15q-112 0 -247 30l20 246q142 -25 215 -25q95 0 134 63t53 226l57 672h-291l23 242h571zM618 0h-567l19 217h143l86 1000h-143l20 217h567l-20 -217h-143l-86 -1000h143z" />
<glyph unicode="&#x133;" horiz-adv-x="1077" d="M1012 1024l-92 -1051q-10 -103 -33 -168t-67.5 -102t-103 -51t-149.5 -14q-80 0 -172 10l21 229q53 -6 127 -6q56 0 78 19t26 73l92 1061h273zM1038 1198h-293l21 236h293zM500 1198h-293l20 236h293zM385 0h-272l88 1024h272z" />
<glyph unicode="&#x134;" horiz-adv-x="851" d="M953 1577h-295l-88 152l-117 -152h-305l274 276h303zM743 535q-10 -116 -24.5 -198t-39.5 -146t-57.5 -103t-82 -64t-108.5 -34.5t-142 -9.5q-113 0 -248 30l20 246q143 -25 215 -25q95 0 134 63t53 226l57 672h-291l23 242h571z" />
<glyph unicode="&#x135;" horiz-adv-x="538" d="M473 1024l-92 -1051q-10 -103 -33 -168t-67 -102.5t-102.5 -51t-149.5 -13.5q-80 0 -172 10l20 229q53 -6 127 -6q56 0 78.5 19t26.5 73l92 1061h272zM731 1174h-295l-88 151l-117 -151h-305l275 276h303z" />
<glyph unicode="&#x136;" horiz-adv-x="1120" d="M834 -266l-218 -307h-198l108 307l23 266h186l-241 563l-48 -63l-43 -500h-280l125 1434h280l-43 -496l373 496h316l-484 -623l369 -811h-203z" />
<glyph unicode="&#x137;" horiz-adv-x="1013" d="M776 -266l-217 -307h-199l109 307l23 266h167l-194 418l-49 -60l-31 -358h-272l125 1434h272l-61 -703l262 293h319l-379 -412l312 -612h-164z" />
<glyph unicode="&#x139;" horiz-adv-x="860" d="M720 1577h-228l228 276h336zM819 0h-696l125 1434h280l-104 -1196h416z" />
<glyph unicode="&#x13a;" horiz-adv-x="593" d="M498 1556h-227l227 277h336zM541 233l-19 -227q-77 -16 -188 -16q-113 0 -157 51t-44 166q0 26 4 96l101 1131h272l-94 -1074q-6 -62 -6 -75q0 -33 12.5 -46.5t44.5 -13.5q34 0 74 8z" />
<glyph unicode="&#x13b;" horiz-adv-x="860" d="M637 -266l-217 -307h-199l109 307l22 266h-229l125 1434h280l-104 -1196h416l-21 -238h-160z" />
<glyph unicode="&#x13c;" horiz-adv-x="593" d="M449 -225l-218 -307h-198l108 307l23 266h13q-44 50 -44 166q0 26 4 96l101 1131h272l-94 -1074q-6 -62 -6 -75q0 -33 12.5 -46.5t44.5 -13.5q34 0 74 8l-19 -227q-20 -4 -55 -8z" />
<glyph unicode="&#x13d;" horiz-adv-x="860" d="M819 0h-696l125 1434h280l-104 -1196h416zM1077 1188l-217 -307h-198l108 307l23 266h307z" />
<glyph unicode="&#x13e;" horiz-adv-x="593" d="M1061 1167l-217 -307h-199l109 307l22 267h307zM541 233l-19 -227q-77 -16 -188 -16q-113 0 -157 51t-44 166q0 26 4 96l101 1131h272l-94 -1074q-6 -62 -6 -75q0 -33 12.5 -46.5t44.5 -13.5q34 0 74 8z" />
<glyph unicode="&#x13f;" horiz-adv-x="958" d="M819 0h-696l125 1434h280l-104 -1196h416zM936 594h-307l22 266h307z" />
<glyph unicode="&#x140;" horiz-adv-x="1015" d="M541 233l-19 -227q-77 -16 -188 -16q-113 0 -157 51t-44 166q0 26 4 96l101 1131h272l-94 -1074q-6 -62 -6 -75q0 -33 12.5 -46.5t44.5 -13.5q34 0 74 8zM940 500h-307l22 266h308z" />
<glyph unicode="&#x141;" horiz-adv-x="880" d="M840 0h-697l58 655l-129 -61l20 242l129 63l47 535h281l-35 -392l188 95l-20 -246l-188 -92l-50 -561h416z" />
<glyph unicode="&#x142;" horiz-adv-x="614" d="M561 233l-18 -227q-77 -16 -189 -16q-113 0 -156.5 51t-43.5 166q0 26 4 96l30 350l-106 -59l20 242l107 61l49 537h272l-32 -373l133 76l-21 -246l-135 -76l-39 -455q-6 -62 -6 -75q0 -33 12.5 -46.5t44.5 -13.5q34 0 74 8z" />
<glyph unicode="&#x143;" horiz-adv-x="1212" d="M837 1577h-227l227 276h336zM1049 0h-408l-170 1151l-100 -1151h-248l125 1434h407l172 -1174l103 1174h244z" />
<glyph unicode="&#x144;" horiz-adv-x="1073" d="M736 1165h-228l228 277h335zM385 0h-272l88 1024h221l10 -109q114 127 279 127q152 0 215 -73.5t63 -235.5q0 -43 -6 -119l-53 -614h-273l54 608q4 40 4 80q0 69 -24 94t-77 25q-42 0 -76.5 -26t-56 -66t-34 -82t-15.5 -82z" />
<glyph unicode="&#x145;" horiz-adv-x="1212" d="M747 -389l-217 -307h-199l109 307l22 266h308zM1049 0h-408l-170 1151l-100 -1151h-248l125 1434h407l172 -1174l103 1174h244z" />
<glyph unicode="&#x146;" horiz-adv-x="1073" d="M683 -389l-218 -307h-198l108 307l23 266h307zM385 0h-272l88 1024h221l10 -109q114 127 279 127q152 0 215 -73.5t63 -235.5q0 -43 -6 -119l-53 -614h-273l54 608q4 40 4 80q0 69 -24 94t-77 25q-42 0 -76.5 -26t-56 -66t-34 -82t-15.5 -82z" />
<glyph unicode="&#x147;" horiz-adv-x="1212" d="M345 1853h294l91 -151l114 151h305l-274 -276h-303zM1049 0h-408l-170 1151l-100 -1151h-248l125 1434h407l172 -1174l103 1174h244z" />
<glyph unicode="&#x148;" horiz-adv-x="1073" d="M243 1442h295l90 -152l115 152h305l-274 -277h-303zM385 0h-272l88 1024h221l10 -109q114 127 279 127q152 0 215 -73.5t63 -235.5q0 -43 -6 -119l-53 -614h-273l54 608q4 40 4 80q0 69 -24 94t-77 25q-42 0 -76.5 -26t-56 -66t-34 -82t-15.5 -82z" />
<glyph unicode="&#x149;" horiz-adv-x="1294" d="M428 1208l-168 -321h-199l91 321l20 226h277zM606 0h-272l88 1024h221l10 -109q114 127 279 127q152 0 215 -73.5t63 -235.5q0 -43 -6 -119l-53 -614h-272l53 608q4 40 4 80q0 69 -23.5 94t-76.5 25q-42 0 -76.5 -26t-56 -66t-34.5 -82.5t-16 -81.5z" />
<glyph unicode="&#x14c;" horiz-adv-x="1163" d="M1000 1577h-604l21 223h604zM817 723q12 144 12 238q0 158 -36.5 215t-124.5 57q-76 0 -119.5 -40t-72.5 -150t-48 -320q-12 -138 -12 -236q0 -162 37.5 -224t124.5 -62q75 0 119.5 44.5t73 157t46.5 320.5zM1104 733q-9 -102 -19 -177t-25.5 -152t-35.5 -130.5 t-49.5 -104.5t-68 -83.5t-89 -58t-114.5 -36.5t-144 -11q-121 0 -203.5 31.5t-131.5 98t-70 160t-21 226.5q0 108 12 237q9 110 21 192t32 160.5t47.5 133.5t67.5 102t93.5 74.5t123.5 43t158 15.5q233 0 329.5 -125t96.5 -391q0 -82 -10 -205z" />
<glyph unicode="&#x14d;" d="M929 1161h-605l21 223h604zM1018 625q0 -27 -4 -93q-11 -129 -35.5 -222t-62.5 -156t-96 -100t-128.5 -52.5t-167.5 -15.5q-100 0 -170.5 20t-123 68t-78 132.5t-25.5 207.5q0 326 114 475t375 149q202 0 302 -100.5t100 -312.5zM733 502q6 64 6 112q0 112 -33.5 157.5 t-109.5 45.5q-92 0 -131.5 -67t-54.5 -248q-7 -79 -7 -117q0 -100 31.5 -139t108.5 -39q95 0 135 62t55 233z" />
<glyph unicode="&#x14e;" horiz-adv-x="1163" d="M393 1874h239q0 -50 21.5 -77.5t62.5 -27.5q40 0 67.5 29t33.5 76h239q-5 -38 -18 -75t-40.5 -78t-66 -72t-100 -51.5t-137.5 -20.5q-68 0 -122.5 20.5t-87 51.5t-54 72t-29.5 78.5t-8 74.5zM817 723q12 144 12 238q0 158 -36.5 215t-124.5 57q-76 0 -119.5 -40 t-72.5 -150t-48 -320q-12 -138 -12 -236q0 -162 37.5 -224t124.5 -62q75 0 119.5 44.5t73 157t46.5 320.5zM1104 733q-9 -102 -19 -177t-25.5 -152t-35.5 -130.5t-49.5 -104.5t-68 -83.5t-89 -58t-114.5 -36.5t-144 -11q-121 0 -203.5 31.5t-131.5 98t-70 160t-21 226.5 q0 108 12 237q9 110 21 192t32 160.5t47.5 133.5t67.5 102t93.5 74.5t123.5 43t158 15.5q233 0 329.5 -125t96.5 -391q0 -82 -10 -205z" />
<glyph unicode="&#x14f;" d="M321 1458h240q0 -50 21.5 -77t62.5 -27q40 0 67 28.5t33 75.5h240q-5 -38 -18 -75t-41 -78t-66.5 -72t-100 -51.5t-137.5 -20.5q-68 0 -122.5 20.5t-87 51.5t-54 72t-29.5 78.5t-8 74.5zM1018 625q0 -27 -4 -93q-11 -129 -35.5 -222t-62.5 -156t-96 -100t-128.5 -52.5 t-167.5 -15.5q-100 0 -170.5 20t-123 68t-78 132.5t-25.5 207.5q0 326 114 475t375 149q202 0 302 -100.5t100 -312.5zM733 502q6 64 6 112q0 112 -33.5 157.5t-109.5 45.5q-92 0 -131.5 -67t-54.5 -248q-7 -79 -7 -117q0 -100 31.5 -139t108.5 -39q95 0 135 62t55 233z" />
<glyph unicode="&#x150;" horiz-adv-x="1163" d="M976 1878l-368 -301h-217l237 301h348zM1376 1878l-369 -301h-217l238 301h348zM817 723q12 144 12 238q0 158 -36.5 215t-124.5 57q-76 0 -119.5 -40t-72.5 -150t-48 -320q-12 -138 -12 -236q0 -162 37.5 -224t124.5 -62q75 0 119.5 44.5t73 157t46.5 320.5zM1104 733 q-9 -102 -19 -177t-25.5 -152t-35.5 -130.5t-49.5 -104.5t-68 -83.5t-89 -58t-114.5 -36.5t-144 -11q-121 0 -203.5 31.5t-131.5 98t-70 160t-21 226.5q0 108 12 237q9 110 21 192t32 160.5t47.5 133.5t67.5 102t93.5 74.5t123.5 43t158 15.5q233 0 329.5 -125t96.5 -391 q0 -82 -10 -205z" />
<glyph unicode="&#x151;" d="M905 1462l-369 -301h-217l238 301h348zM1304 1462l-369 -301h-217l238 301h348zM1018 625q0 -27 -4 -93q-11 -129 -35.5 -222t-62.5 -156t-96 -100t-128.5 -52.5t-167.5 -15.5q-100 0 -170.5 20t-123 68t-78 132.5t-25.5 207.5q0 326 114 475t375 149q202 0 302 -100.5 t100 -312.5zM733 502q6 64 6 112q0 112 -33.5 157.5t-109.5 45.5q-92 0 -131.5 -67t-54.5 -248q-7 -79 -7 -117q0 -100 31.5 -139t108.5 -39q95 0 135 62t55 233z" />
<glyph unicode="&#x152;" horiz-adv-x="1628" d="M1505 0h-772q-85 -20 -174 -20q-120 0 -202.5 32t-131.5 99t-70.5 162t-21.5 229q0 57 12 231q10 110 22 192t32 160.5t48 133.5t68 102t93 74.5t122.5 43t157.5 15.5t170 -20h772l-20 -222h-531q33 -109 33 -274q0 -57 -2 -88h418l-21 -219h-415q-29 -272 -95 -410h527z M817 723q12 144 12 238q0 158 -36.5 215t-124.5 57q-76 0 -119.5 -40t-72.5 -150t-48 -320q-12 -138 -12 -236q0 -162 37.5 -224t124.5 -62q75 0 119.5 44.5t73 157t46.5 320.5z" />
<glyph unicode="&#x153;" horiz-adv-x="1585" d="M1534 745q0 -177 -95 -265.5t-311 -88.5q-73 0 -141 8q0 -108 31 -146t125 -38q106 0 264 31l-21 -230q-51 -14 -130 -24t-134 -10q-207 0 -301 94q-110 -90 -303 -90q-98 0 -168 20.5t-123.5 68t-79.5 132t-26 207.5q0 326 114 475t375 149q183 0 283 -100 q107 104 295 104q83 0 146.5 -20.5t100.5 -51.5t60 -73t31 -78.5t8 -73.5zM727 502q6 64 6 112q0 112 -33.5 157.5t-109.5 45.5q-92 0 -132 -67.5t-55 -247.5q-6 -68 -6 -117q0 -100 31.5 -139t108.5 -39q95 0 135 62t55 233zM1163 817q-61 0 -97.5 -46t-57.5 -159 q50 -6 94 -6q164 0 164 107q0 50 -20.5 77t-82.5 27z" />
<glyph unicode="&#x154;" horiz-adv-x="1091" d="M751 1577h-227l227 276h336zM1044 999q-15 -169 -71.5 -269.5t-155.5 -145.5l203 -584h-309l-168 541h-92l-48 -541h-280l125 1434q209 20 379 20q223 0 322.5 -91t99.5 -282q0 -9 -5 -82zM760 985q2 25 2 68q0 85 -28.5 120t-100.5 35q-27 0 -58.5 -3t-48.5 -6l-18 -3 l-37 -414h129q65 0 108 52.5t52 150.5z" />
<glyph unicode="&#x155;" horiz-adv-x="722" d="M602 1165h-228l228 277h336zM385 0h-272l88 1024h221l12 -129q93 147 228 147q50 0 90 -8l-25 -282q-46 12 -88 12q-87 0 -144.5 -77.5t-68.5 -203.5z" />
<glyph unicode="&#x156;" horiz-adv-x="1091" d="M813 -266l-217 -307h-199l109 307l22 266h183l-168 541h-92l-48 -541h-280l125 1434q209 20 379 20q223 0 322.5 -91t99.5 -282q0 -9 -5 -82q-15 -169 -71.5 -269.5t-155.5 -145.5l203 -584h-184zM760 985q2 25 2 68q0 85 -28.5 120t-100.5 35q-27 0 -58.5 -3t-48.5 -6 l-18 -3l-37 -414h129q65 0 108 52.5t52 150.5z" />
<glyph unicode="&#x157;" horiz-adv-x="722" d="M469 -266l-217 -307h-199l109 307l22 266h-71l88 1024h221l12 -129q93 147 228 147q50 0 90 -8l-25 -282q-46 12 -88 12q-87 0 -144.5 -77.5t-68.5 -203.5l-41 -483h107z" />
<glyph unicode="&#x158;" horiz-adv-x="1091" d="M259 1853h295l90 -151l115 151h305l-275 -276h-303zM1044 999q-15 -169 -71.5 -269.5t-155.5 -145.5l203 -584h-309l-168 541h-92l-48 -541h-280l125 1434q209 20 379 20q223 0 322.5 -91t99.5 -282q0 -9 -5 -82zM760 985q2 25 2 68q0 85 -28.5 120t-100.5 35 q-27 0 -58.5 -3t-48.5 -6l-18 -3l-37 -414h129q65 0 108 52.5t52 150.5z" />
<glyph unicode="&#x159;" horiz-adv-x="722" d="M109 1442h295l90 -152l115 152h305l-274 -277h-303zM385 0h-272l88 1024h221l12 -129q93 147 228 147q50 0 90 -8l-25 -282q-46 12 -88 12q-87 0 -144.5 -77.5t-68.5 -203.5z" />
<glyph unicode="&#x15a;" horiz-adv-x="868" d="M764 1577h-227l227 276h336zM848 516q0 -22 -4 -72q-11 -115 -40 -197.5t-71 -133t-106 -79t-132 -38.5t-163 -10q-70 0 -155 8.5t-134 21.5l23 244q47 -12 128.5 -22.5t137.5 -10.5q227 0 227 234q0 79 -37 113t-121 55q-148 36 -215 120.5t-67 217.5q0 250 124.5 365.5 t395.5 115.5q58 0 136 -8.5t120 -20.5l-21 -243q-108 30 -272 30q-99 0 -147.5 -50.5t-48.5 -158.5q0 -58 30.5 -84t116.5 -45q143 -33 219 -115t76 -237z" />
<glyph unicode="&#x15b;" horiz-adv-x="870" d="M702 1165h-227l227 277h336zM797 358q0 -109 -32 -184.5t-94 -116.5t-138 -58t-179 -17q-152 0 -278 32l20 232q155 -35 242 -35t131.5 23.5t44.5 84.5q0 38 -26 58t-95 33q-262 52 -262 272q0 193 109.5 276.5t337.5 83.5q120 0 243 -30l-20 -234q-119 35 -242 35 q-79 0 -113 -22.5t-34 -73.5q0 -31 28 -46t97 -30q142 -31 201 -102t59 -181z" />
<glyph unicode="&#x15c;" horiz-adv-x="868" d="M1053 1577h-295l-88 152l-117 -152h-305l274 276h303zM848 516q0 -22 -4 -72q-11 -115 -40 -197.5t-71 -133t-106 -79t-132 -38.5t-163 -10q-70 0 -155 8.5t-134 21.5l23 244q47 -12 128.5 -22.5t137.5 -10.5q227 0 227 234q0 79 -37 113t-121 55q-148 36 -215 120.5 t-67 217.5q0 250 124.5 365.5t395.5 115.5q58 0 136 -8.5t120 -20.5l-21 -243q-108 30 -272 30q-99 0 -147.5 -50.5t-48.5 -158.5q0 -58 30.5 -84t116.5 -45q143 -33 219 -115t76 -237z" />
<glyph unicode="&#x15d;" horiz-adv-x="870" d="M991 1165h-295l-88 152l-117 -152h-305l274 277h303zM797 358q0 -109 -32 -184.5t-94 -116.5t-138 -58t-179 -17q-152 0 -278 32l20 232q155 -35 242 -35t131.5 23.5t44.5 84.5q0 38 -26 58t-95 33q-262 52 -262 272q0 193 109.5 276.5t337.5 83.5q120 0 243 -30 l-20 -234q-119 35 -242 35q-79 0 -113 -22.5t-34 -73.5q0 -31 28 -46t97 -30q142 -31 201 -102t59 -181z" />
<glyph unicode="&#x15e;" horiz-adv-x="868" d="M75 -536l14 178q71 -11 111 -11q46 0 66 10.5t20 37.5t-33.5 37t-132.5 10l67 267q-93 8 -144 23l23 244q47 -12 128.5 -22.5t137.5 -10.5q227 0 227 234q0 79 -37 113t-121 55q-148 36 -215 120.5t-67 217.5q0 250 124.5 365.5t395.5 115.5q58 0 136 -8.5t120 -20.5 l-21 -243q-108 30 -272 30q-99 0 -147.5 -50.5t-48.5 -158.5q0 -58 30.5 -83.5t116.5 -45.5q143 -33 219 -115t76 -237q0 -22 -4 -72q-10 -109 -36.5 -188t-64.5 -129.5t-95 -81.5t-119.5 -43.5t-146.5 -15.5l-31 -123q82 -10 122 -55.5t40 -116.5q0 -111 -70.5 -177.5 t-214.5 -66.5q-74 0 -153 17z" />
<glyph unicode="&#x15f;" horiz-adv-x="870" d="M97 -541l15 179q71 -11 110 -11q46 0 66 10.5t20 37.5t-33.5 37t-132.5 10l68 269q-91 12 -134 23l20 232q155 -35 242 -35t131.5 23.5t44.5 84.5q0 38 -26 58t-95 33q-262 52 -262 272q0 193 109.5 276.5t337.5 83.5q120 0 243 -30l-20 -234q-119 35 -242 35 q-79 0 -113 -22.5t-34 -73.5q0 -31 28 -46t97 -30q141 -32 200.5 -102.5t59.5 -180.5q0 -102 -28 -174.5t-82 -114.5t-122.5 -62t-160.5 -24l-30 -124q82 -10 122 -55.5t40 -116.5q0 -111 -70.5 -177.5t-214.5 -66.5q-80 0 -154 16z" />
<glyph unicode="&#x160;" horiz-adv-x="868" d="M205 1731h301l72 -125l92 125h299l-246 -236h-311zM848 516q0 -22 -4 -72q-11 -115 -40 -197.5t-71 -133t-106 -79t-132 -38.5t-163 -10q-70 0 -155 8.5t-134 21.5l23 244q47 -12 128.5 -22.5t137.5 -10.5q227 0 227 234q0 79 -37 113t-121 55q-148 36 -215 120.5 t-67 217.5q0 250 124.5 365.5t395.5 115.5q58 0 136 -8.5t120 -20.5l-21 -243q-108 30 -272 30q-99 0 -147.5 -50.5t-48.5 -158.5q0 -58 30.5 -84t116.5 -45q143 -33 219 -115t76 -237z" />
<glyph unicode="&#x161;" horiz-adv-x="870" d="M797 358q0 -109 -32 -184.5t-94 -116.5t-138 -58t-179 -17q-152 0 -278 32l20 232q155 -35 242 -35t131.5 23.5t44.5 84.5q0 38 -26 58t-95 33q-262 52 -262 272q0 193 109.5 276.5t337.5 83.5q120 0 243 -30l-20 -234q-119 35 -242 35q-79 0 -113 -22.5t-34 -73.5 q0 -31 28 -46t97 -30q142 -31 201 -102t59 -181zM166 1466h295l90 -151l115 151h305l-275 -276h-303z" />
<glyph unicode="&#x162;" horiz-adv-x="911" d="M178 -522l14 178q65 -10 111 -10t66 10t20 37t-33.5 37t-132.5 10l70 279h4l100 1167h-295l23 248h870l-22 -248h-295l-103 -1186h-90l-30 -123q82 -10 121.5 -55.5t39.5 -116.5q0 -111 -70 -177t-214 -66q-80 0 -154 16z" />
<glyph unicode="&#x163;" horiz-adv-x="712" d="M167 -541l14 179q72 -11 111 -11q46 0 66 10.5t20 37.5t-33.5 37t-132.5 10l70 278h15q-66 24 -93.5 80.5t-27.5 148.5q0 26 4 88l41 471h-133l21 236h133l22 246h273l-23 -246h205l-21 -236h-204l-37 -440q-1 -16 -2 -29.5t-1.5 -20.5t-0.5 -9q0 -39 18 -56.5t59 -17.5 q59 0 129 18l-18 -227q-57 -15 -167 -23l-31 -124q82 -10 122 -55.5t40 -116.5q0 -111 -70.5 -177.5t-214.5 -66.5q-79 0 -153 16z" />
<glyph unicode="&#x164;" horiz-adv-x="911" d="M194 1853h295l90 -151l115 151h305l-275 -276h-303zM973 1186h-295l-103 -1186h-280l102 1186h-295l23 248h870z" />
<glyph unicode="&#x165;" horiz-adv-x="1073" d="M698 788h-204l-37 -440q-1 -16 -2 -29.5t-1.5 -20.5t-0.5 -9q0 -39 18 -56.5t59 -17.5q59 0 129 18l-18 -227q-25 -7 -95.5 -15.5t-121.5 -8.5q-140 0 -194 60.5t-54 186.5q0 26 4 88l41 471h-133l21 236h133l22 246h273l-23 -246h205zM1153 1004l-217 -308h-199l109 308 l22 266h308z" />
<glyph unicode="&#x166;" horiz-adv-x="911" d="M973 1186h-295l-30 -346h204l-21 -236h-203l-53 -604h-280l52 604h-222l20 236h222l30 346h-295l23 248h870z" />
<glyph unicode="&#x167;" horiz-adv-x="712" d="M698 788h-204l-8 -96h182l-21 -235h-181l-9 -109q-1 -16 -2 -29.5t-1.5 -20.5t-0.5 -9q0 -39 18 -56.5t59 -17.5q59 0 129 18l-18 -227q-25 -7 -95.5 -15.5t-121.5 -8.5q-140 0 -194 60.5t-54 186.5q0 26 4 88l12 140h-133l21 235h133l8 96h-133l21 236h133l22 246h273 l-23 -246h205z" />
<glyph unicode="&#x168;" horiz-adv-x="1136" d="M348 1583l19 215q85 66 201 66q50 0 150 -40t138 -40q101 0 191 74l-19 -216q-73 -65 -202 -65q-53 0 -149 40t-138 40q-51 0 -103 -21.5t-88 -52.5zM1108 1434l-88 -994q-23 -250 -133.5 -352t-339.5 -102q-402 0 -402 383q0 9 5 71l88 994h280l-88 -1002q-4 -58 -4 -61 q0 -144 141 -144q155 0 170 174l90 1033h281z" />
<glyph unicode="&#x169;" horiz-adv-x="1060" d="M268 1167l18 215q85 66 201 66q50 0 150.5 -40t138.5 -40q100 0 190 74l-18 -215q-74 -66 -203 -66q-53 0 -149 40t-138 40q-51 0 -102.5 -21t-87.5 -53zM190 1024h273l-51 -600q-1 -18 -3.5 -51t-2.5 -41q0 -67 22.5 -91t73.5 -24q41 0 74.5 25.5t53.5 66t31.5 82.5 t14.5 82l47 551h272l-88 -1024h-221l-10 102q-110 -120 -270 -120q-150 0 -212.5 75.5t-62.5 237.5q0 26 4 100z" />
<glyph unicode="&#x16a;" horiz-adv-x="1136" d="M987 1577h-604l20 223h604zM1108 1434l-88 -994q-23 -250 -133.5 -352t-339.5 -102q-402 0 -402 383q0 9 5 71l88 994h280l-88 -1002q-4 -58 -4 -61q0 -144 141 -144q155 0 170 174l90 1033h281z" />
<glyph unicode="&#x16b;" horiz-adv-x="1060" d="M906 1161h-604l21 223h604zM190 1024h273l-51 -600q-1 -18 -3.5 -51t-2.5 -41q0 -67 22.5 -91t73.5 -24q41 0 74.5 25.5t53.5 66t31.5 82.5t14.5 82l47 551h272l-88 -1024h-221l-10 102q-110 -120 -270 -120q-150 0 -212.5 75.5t-62.5 237.5q0 26 4 100z" />
<glyph unicode="&#x16c;" horiz-adv-x="1136" d="M379 1874h240q0 -50 21.5 -77.5t62.5 -27.5q40 0 67 29t33 76h240q-5 -38 -18 -75t-41 -78t-66.5 -72t-100 -51.5t-137.5 -20.5q-68 0 -122.5 20.5t-87 51.5t-54 72t-29.5 78.5t-8 74.5zM1108 1434l-88 -994q-23 -250 -133.5 -352t-339.5 -102q-402 0 -402 383q0 9 5 71 l88 994h280l-88 -1002q-4 -58 -4 -61q0 -144 141 -144q155 0 170 174l90 1033h281z" />
<glyph unicode="&#x16d;" horiz-adv-x="1060" d="M299 1458h239q0 -50 21.5 -77t62.5 -27q40 0 67.5 28.5t33.5 75.5h239q-5 -38 -18 -75t-40.5 -78t-66 -72t-100 -51.5t-137.5 -20.5q-68 0 -122.5 20.5t-87 51.5t-54 72t-29.5 78.5t-8 74.5zM190 1024h273l-51 -600q-1 -18 -3.5 -51t-2.5 -41q0 -67 22.5 -91t73.5 -24 q41 0 74.5 25.5t53.5 66t31.5 82.5t14.5 82l47 551h272l-88 -1024h-221l-10 102q-110 -120 -270 -120q-150 0 -212.5 75.5t-62.5 237.5q0 26 4 100z" />
<glyph unicode="&#x16e;" horiz-adv-x="1136" d="M764 1829q2 14 2 37q0 33 -11.5 48t-40.5 15q-38 0 -52.5 -32.5t-14.5 -104.5q0 -33 11.5 -48t39.5 -15q33 0 47 23.5t19 76.5zM944 1827q-11 -124 -72 -187t-188 -63q-105 0 -161 55.5t-56 157.5q0 287 262 287q104 0 160.5 -55.5t56.5 -157.5q0 -25 -2 -37zM1108 1434 l-88 -994q-23 -250 -133.5 -352t-339.5 -102q-402 0 -402 383q0 9 5 71l88 994h280l-88 -1002q-4 -58 -4 -61q0 -144 141 -144q155 0 170 174l90 1033h281z" />
<glyph unicode="&#x16f;" horiz-adv-x="1060" d="M683 1413q2 14 2 37q0 33 -11.5 48t-39.5 15q-38 0 -53 -32.5t-15 -104.5q0 -33 11.5 -48t40.5 -15q32 0 46 23t19 77zM863 1411q-11 -124 -72 -187t-188 -63q-105 0 -161 55.5t-56 157.5q0 287 262 287q104 0 160.5 -55.5t56.5 -157.5q0 -25 -2 -37zM190 1024h273 l-51 -600q-1 -18 -3.5 -51t-2.5 -41q0 -67 22.5 -91t73.5 -24q41 0 74.5 25.5t53.5 66t31.5 82.5t14.5 82l47 551h272l-88 -1024h-221l-10 102q-110 -120 -270 -120q-150 0 -212.5 75.5t-62.5 237.5q0 26 4 100z" />
<glyph unicode="&#x170;" horiz-adv-x="1136" d="M963 1878l-369 -301h-217l238 301h348zM1362 1878l-368 -301h-218l238 301h348zM1108 1434l-88 -994q-23 -250 -133.5 -352t-339.5 -102q-402 0 -402 383q0 9 5 71l88 994h280l-88 -1002q-4 -58 -4 -61q0 -144 141 -144q155 0 170 174l90 1033h281z" />
<glyph unicode="&#x171;" horiz-adv-x="1060" d="M882 1462l-368 -301h-217l237 301h348zM1282 1462l-369 -301h-217l238 301h348zM190 1024h273l-51 -600q-1 -18 -3.5 -51t-2.5 -41q0 -67 22.5 -91t73.5 -24q41 0 74.5 25.5t53.5 66t31.5 82.5t14.5 82l47 551h272l-88 -1024h-221l-10 102q-110 -120 -270 -120 q-150 0 -212.5 75.5t-62.5 237.5q0 26 4 100z" />
<glyph unicode="&#x172;" horiz-adv-x="1136" d="M687 -310l-14 -195q-78 -20 -174 -20q-126 0 -180 52t-54 159q0 180 135 315q-255 60 -255 368q0 9 5 71l88 994h280l-88 -1002q-4 -58 -4 -61q0 -144 141 -144q155 0 170 174l90 1033h281l-88 -994q-21 -237 -121.5 -340.5t-303.5 -112.5q-44 -62 -72 -127.5t-28 -101.5 q0 -37 18 -59.5t53 -22.5t121 14z" />
<glyph unicode="&#x173;" horiz-adv-x="1060" d="M648 -314l-14 -195q-78 -20 -174 -20q-126 0 -180 52t-54 159q0 172 123 303q-118 13 -168 88.5t-50 221.5q0 26 4 100l55 629h273l-51 -600q-1 -18 -3.5 -51t-2.5 -41q0 -67 22.5 -91t73.5 -24q41 0 74.5 25.5t53.5 66t31.5 82.5t14.5 82l47 551h272l-88 -1024h-221 l-10 102q-68 -75 -156 -103h48q-49 -65 -80.5 -136t-31.5 -110q0 -37 18.5 -59t53.5 -22q34 0 120 14z" />
<glyph unicode="&#x174;" horiz-adv-x="1286" d="M1162 1577h-294l-89 152l-116 -152h-305l274 276h303zM1298 1434l-194 -1434h-395l-45 481l-144 -481h-379l56 1434h245l-51 -1215l199 610h233l76 -610l164 1215h235z" />
<glyph unicode="&#x175;" horiz-adv-x="1314" d="M1139 1161h-295l-88 152l-116 -152h-305l274 277h303zM1352 1024l-246 -1024h-358l-68 504l-164 -504h-348l-70 1024h269l28 -782l201 598h242l88 -598l166 782h260z" />
<glyph unicode="&#x176;" horiz-adv-x="1087" d="M1063 1577h-295l-88 152l-117 -152h-305l275 276h303zM1171 1434l-454 -803l-53 -631h-287l53 631l-305 803h297l178 -553l277 553h294z" />
<glyph unicode="&#x177;" horiz-adv-x="1009" d="M987 1161h-295l-88 152l-117 -152h-305l274 277h304zM1036 1024l-358 -1110q-89 -276 -316 -276q-121 0 -184 10l21 231q50 -6 100 -6q84 0 109 90l10 37h-70l-239 1024h286l129 -797l244 797h268z" />
<glyph unicode="&#x178;" horiz-adv-x="1087" d="M1171 1434l-454 -803l-53 -631h-287l53 631l-305 803h297l178 -553l277 553h294zM987 1475h-266l22 235h267zM578 1475h-267l23 235h266z" />
<glyph unicode="&#x179;" horiz-adv-x="954" d="M731 1577h-227l227 276h336zM963 1161l-580 -917h479l-20 -244h-791l23 272l581 918h-454l22 244h764z" />
<glyph unicode="&#x17a;" horiz-adv-x="856" d="M642 1161h-228l228 277h336zM842 778l-471 -559h401l-18 -219h-713l18 227l476 578h-383l18 219h692z" />
<glyph unicode="&#x17b;" horiz-adv-x="954" d="M764 1577h-293l21 235h293zM963 1161l-580 -917h479l-20 -244h-791l23 272l581 918h-454l22 244h764z" />
<glyph unicode="&#x17c;" horiz-adv-x="856" d="M674 1161h-292l20 236h293zM842 778l-471 -559h401l-18 -219h-713l18 227l476 578h-383l18 219h692z" />
<glyph unicode="&#x17d;" horiz-adv-x="954" d="M252 1731h301l72 -125l92 125h299l-246 -236h-311zM963 1161l-580 -917h479l-20 -244h-791l23 272l581 918h-454l22 244h764z" />
<glyph unicode="&#x17e;" horiz-adv-x="856" d="M860 778l-471 -559h402l-19 -219h-713l19 227l475 578h-383l18 219h693zM168 1466h295l90 -151l115 151h305l-275 -276h-309z" />
<glyph unicode="&#x192;" horiz-adv-x="698" d="M160 -37l71 830h-133l21 231h133l8 82q14 140 54 215.5t106 103t180 27.5q99 0 221 -25l-18 -231q-99 23 -172 23q-48 0 -70.5 -24.5t-25.5 -70.5l-9 -100h222l-21 -231h-221l-72 -820q-9 -101 -32 -166t-67.5 -102.5t-104 -52t-150.5 -14.5q-80 0 -172 10l20 231 q70 -8 127 -8q56 0 78.5 19t26.5 73z" />
<glyph unicode="&#x1a0;" horiz-adv-x="1499" d="M817 723q12 144 12 238q0 158 -36.5 215t-124.5 57q-76 0 -119.5 -40t-72.5 -150t-48 -320q-12 -138 -12 -236q0 -162 37.5 -224t124.5 -62q75 0 119.5 44.5t73 157t46.5 320.5zM1104 733q-9 -102 -19 -177t-25.5 -152t-35.5 -130.5t-49.5 -104.5t-68 -83.5t-89 -58 t-114.5 -36.5t-144 -11q-121 0 -203.5 31.5t-131.5 98t-70 160t-21 226.5q0 108 12 237q9 110 21 192t32 160.5t47.5 133.5t67.5 102t93.5 74.5t123.5 43t158 15.5q233 0 329.5 -125t96.5 -391q0 -82 -10 -205zM1585 1188l-217 -307h-199l109 307l22 266h308z" />
<glyph unicode="&#x1a1;" horiz-adv-x="1445" d="M1018 625q0 -27 -4 -93q-11 -129 -35.5 -222t-62.5 -156t-96 -100t-128.5 -52.5t-167.5 -15.5q-100 0 -170.5 20t-123 68t-78 132.5t-25.5 207.5q0 326 114 475t375 149q202 0 302 -100.5t100 -312.5zM733 502q6 64 6 112q0 112 -33.5 157.5t-109.5 45.5 q-92 0 -131.5 -67t-54.5 -248q-7 -79 -7 -117q0 -100 31.5 -139t108.5 -39q95 0 135 62t55 233zM1495 772l-217 -307h-199l109 307l22 266h308z" />
<glyph unicode="&#x1af;" horiz-adv-x="1136" d="M1538 1188l-217 -307h-199l109 307l22 266h307zM1108 1434l-88 -994q-23 -250 -133.5 -352t-339.5 -102q-402 0 -402 383q0 9 5 71l88 994h280l-88 -1002q-4 -58 -4 -61q0 -144 141 -144q155 0 170 174l90 1033h281z" />
<glyph unicode="&#x1b0;" horiz-adv-x="1060" d="M1425 772l-218 -307h-198l108 307l23 266h307zM190 1024h273l-51 -600q-1 -18 -3.5 -51t-2.5 -41q0 -67 22.5 -91t73.5 -24q41 0 74.5 25.5t53.5 66t31.5 82.5t14.5 82l47 551h272l-88 -1024h-221l-10 102q-110 -120 -270 -120q-150 0 -212.5 75.5t-62.5 237.5 q0 26 4 100z" />
<glyph unicode="&#x1cd;" horiz-adv-x="1116" d="M299 1853h295l91 -151l114 151h305l-274 -276h-303zM721 575l-68 678l-188 -678h256zM1065 0h-283l-37 334h-348l-94 -334h-293l449 1434h413z" />
<glyph unicode="&#x1ce;" horiz-adv-x="1067" d="M275 1442h295l90 -152l115 152h305l-274 -277h-303zM123 485q14 159 49 264.5t98.5 171t153 93.5t219.5 28q160 0 336 -49l-61 -733q0 -28 15.5 -41.5t57.5 -13.5l-16 -205h-119q-26 0 -51 5t-52.5 16.5t-47.5 36t-27 59.5q-109 -135 -277 -135q-150 0 -217 82.5 t-67 277.5q0 66 6 143zM494 215q51 0 89.5 40t56.5 91.5t22 106.5l28 352q-58 4 -86 4q-36 0 -65 -10.5t-57 -40t-47 -78t-30.5 -129.5t-11.5 -189q0 -86 22.5 -116.5t78.5 -30.5z" />
<glyph unicode="&#x1cf;" horiz-adv-x="710" d="M94 1853h295l90 -151l114 151h306l-275 -276h-303zM618 0h-567l19 217h143l86 1000h-143l20 217h567l-20 -217h-143l-86 -1000h143z" />
<glyph unicode="&#x1d0;" horiz-adv-x="538" d="M-74 1438h295l90 -152l115 152h305l-274 -277h-303zM385 0h-272l88 1024h272z" />
<glyph unicode="&#x1d1;" horiz-adv-x="1163" d="M320 1853h295l90 -151l115 151h305l-274 -276h-303zM817 723q12 144 12 238q0 158 -36.5 215t-124.5 57q-76 0 -119.5 -40t-72.5 -150t-48 -320q-12 -138 -12 -236q0 -162 37.5 -224t124.5 -62q75 0 119.5 44.5t73 157t46.5 320.5zM1104 733q-9 -102 -19 -177t-25.5 -152 t-35.5 -130.5t-49.5 -104.5t-68 -83.5t-89 -58t-114.5 -36.5t-144 -11q-121 0 -203.5 31.5t-131.5 98t-70 160t-21 226.5q0 108 12 237q9 110 21 192t32 160.5t47.5 133.5t67.5 102t93.5 74.5t123.5 43t158 15.5q233 0 329.5 -125t96.5 -391q0 -82 -10 -205z" />
<glyph unicode="&#x1d2;" d="M249 1438h294l91 -152l114 152h305l-274 -277h-303zM1018 625q0 -27 -4 -93q-11 -129 -35.5 -222t-62.5 -156t-96 -100t-128.5 -52.5t-167.5 -15.5q-100 0 -170.5 20t-123 68t-78 132.5t-25.5 207.5q0 326 114 475t375 149q202 0 302 -100.5t100 -312.5zM733 502 q6 64 6 112q0 112 -33.5 157.5t-109.5 45.5q-92 0 -131.5 -67t-54.5 -248q-7 -79 -7 -117q0 -100 31.5 -139t108.5 -39q95 0 135 62t55 233z" />
<glyph unicode="&#x1d3;" horiz-adv-x="1136" d="M307 1853h295l90 -151l114 151h306l-275 -276h-303zM1108 1434l-88 -994q-23 -250 -133.5 -352t-339.5 -102q-402 0 -402 383q0 9 5 71l88 994h280l-88 -1002q-4 -58 -4 -61q0 -144 141 -144q155 0 170 174l90 1033h281z" />
<glyph unicode="&#x1d4;" horiz-adv-x="1060" d="M226 1438h295l90 -152l115 152h305l-274 -277h-303zM190 1024h273l-51 -600q-1 -18 -3.5 -51t-2.5 -41q0 -67 22.5 -91t73.5 -24q41 0 74.5 25.5t53.5 66t31.5 82.5t14.5 82l47 551h272l-88 -1024h-221l-10 102q-110 -120 -270 -120q-150 0 -212.5 75.5t-62.5 237.5 q0 26 4 100z" />
<glyph unicode="&#x1d5;" horiz-adv-x="1136" d="M1019 1853h-604l20 224h604zM1022 1495h-266l22 236h266zM612 1495h-266l23 236h266zM1108 1434l-88 -994q-23 -250 -133.5 -352t-339.5 -102q-402 0 -402 383q0 9 5 71l88 994h280l-88 -1002q-4 -58 -4 -61q0 -144 141 -144q155 0 170 174l90 1033h281z" />
<glyph unicode="&#x1d6;" horiz-adv-x="1060" d="M939 1505h-604l20 224h604zM190 1024h273l-51 -600q-4 -75 -6 -92q0 -67 22.5 -91t73.5 -24q41 0 74.5 25.5t53.5 66t31.5 82.5t14.5 82l47 551h272l-88 -1024h-221l-10 102q-110 -120 -270 -120q-150 0 -212.5 75.5t-62.5 237.5q0 26 4 100zM942 1147h-266l22 235h267z M532 1147h-266l23 235h266z" />
<glyph unicode="&#x1d7;" horiz-adv-x="1136" d="M831 1853h-227l227 277h336zM1022 1495h-266l22 236h266zM612 1495h-266l23 236h266zM1108 1434l-88 -994q-23 -250 -133.5 -352t-339.5 -102q-402 0 -402 383q0 9 5 71l88 994h280l-88 -1002q-4 -58 -4 -61q0 -144 141 -144q155 0 170 174l90 1033h281z" />
<glyph unicode="&#x1d8;" horiz-adv-x="1060" d="M751 1505h-227l227 277h336zM190 1024h273l-51 -600q-4 -75 -6 -92q0 -67 22.5 -91t73.5 -24q41 0 74.5 25.5t53.5 66t31.5 82.5t14.5 82l47 551h272l-88 -1024h-221l-10 102q-110 -120 -270 -120q-150 0 -212.5 75.5t-62.5 237.5q0 26 4 100zM942 1147h-266l22 235h267z M532 1147h-266l23 235h266z" />
<glyph unicode="&#x1d9;" horiz-adv-x="1136" d="M339 2130h295l90 -152l114 152h306l-275 -277h-303zM1022 1495h-266l22 236h266zM612 1495h-266l23 236h266zM1108 1434l-88 -994q-23 -250 -133.5 -352t-339.5 -102q-402 0 -402 383q0 9 5 71l88 994h280l-88 -1002q-4 -58 -4 -61q0 -144 141 -144q155 0 170 174 l90 1033h281z" />
<glyph unicode="&#x1da;" horiz-adv-x="1060" d="M259 1782h295l90 -152l115 152h305l-275 -277h-303zM190 1024h273l-51 -600q-4 -75 -6 -92q0 -67 22.5 -91t73.5 -24q41 0 74.5 25.5t53.5 66t31.5 82.5t14.5 82l47 551h272l-88 -1024h-221l-10 102q-110 -120 -270 -120q-150 0 -212.5 75.5t-62.5 237.5q0 26 4 100z M942 1147h-266l22 235h267zM532 1147h-266l23 235h266z" />
<glyph unicode="&#x1db;" horiz-adv-x="1136" d="M826 1853h-217l-297 277h325zM1022 1495h-266l22 236h266zM612 1495h-266l23 236h266zM1108 1434l-88 -994q-23 -250 -133.5 -352t-339.5 -102q-402 0 -402 383q0 9 5 71l88 994h280l-88 -1002q-4 -58 -4 -61q0 -144 141 -144q155 0 170 174l90 1033h281z" />
<glyph unicode="&#x1dc;" horiz-adv-x="1060" d="M746 1505h-217l-297 277h326zM190 1024h273l-51 -600q-4 -75 -6 -92q0 -67 22.5 -91t73.5 -24q41 0 74.5 25.5t53.5 66t31.5 82.5t14.5 82l47 551h272l-88 -1024h-221l-10 102q-110 -120 -270 -120q-150 0 -212.5 75.5t-62.5 237.5q0 26 4 100zM942 1147h-266l22 235h267 zM532 1147h-266l23 235h266z" />
<glyph unicode="&#x1de;" horiz-adv-x="1116" d="M998 1853h-604l21 224h604zM721 575l-68 678l-188 -678h256zM1065 0h-283l-37 334h-348l-94 -334h-293l449 1434h413zM1001 1495h-266l23 236h266zM592 1495h-266l22 236h266z" />
<glyph unicode="&#x1df;" horiz-adv-x="1067" d="M966 1505h-605l21 224h604zM123 485q14 159 49 264.5t98.5 171t153 93.5t219.5 28q160 0 336 -49l-61 -733q0 -28 15.5 -41.5t57.5 -13.5l-16 -205h-119q-26 0 -51 5t-52.5 16.5t-47.5 36t-27 59.5q-109 -135 -277 -135q-150 0 -217 82.5t-67 277.5q0 66 6 143zM494 215 q51 0 89.5 40t56.5 91.5t22 106.5l28 352q-58 4 -86 4q-36 0 -65 -10.5t-57 -40t-47 -78t-30.5 -129.5t-11.5 -189q0 -86 22.5 -116.5t78.5 -30.5zM969 1147h-267l23 235h266zM559 1147h-266l22 235h267z" />
<glyph unicode="&#x1e2;" horiz-adv-x="1599" d="M1377 1577h-604l20 223h604zM1477 0h-705l-10 334h-336l-123 -334h-293l555 1434h996l-21 -222h-547l23 -362h477l-20 -219h-445l27 -410h440zM735 1188l-223 -613h242z" />
<glyph unicode="&#x1e3;" horiz-adv-x="1515" d="M1152 1165h-604l20 224h604zM1464 745q0 -177 -95.5 -266.5t-311.5 -89.5q-71 0 -139 8q0 -109 30.5 -145.5t124.5 -36.5q106 0 264 31l-20 -230q-51 -14 -130 -24t-134 -10q-121 0 -201.5 27t-128.5 97q-47 -57 -133.5 -90.5t-196.5 -33.5q-61 0 -110.5 13.5t-91 44 t-64.5 86t-23 132.5q0 206 113 297.5t342 91.5q54 0 103 -8l6 55q2 8 2 23q0 100 -129 100q-152 0 -320 -49l21 233q58 17 151 29t168 12q210 0 297 -71q103 71 260 71q83 0 146.5 -20.5t100.5 -51.5t60 -73t31 -78.5t8 -73.5zM492 211q40 0 69.5 15t45 39t23 47t9.5 46 l6 80q-57 11 -102 11q-71 0 -114.5 -39.5t-43.5 -108.5q0 -90 107 -90zM1094 817q-61 0 -98 -48t-58 -161q46 -6 88 -6q170 0 170 111q0 51 -20 77.5t-82 26.5z" />
<glyph unicode="&#x1e6;" horiz-adv-x="1044" d="M368 1853h294l91 -151l114 151h305l-274 -276h-303zM979 795l-68 -777q-200 -36 -354 -36q-110 0 -185 24t-130.5 83t-81 163t-25.5 260q0 122 10 227q11 129 30.5 229.5t46 176t65 129t81.5 88t102 54.5t121 28t144 8q124 0 256 -29l-20 -245q-134 28 -279 28 q-54 0 -90 -11.5t-66 -40.5t-49 -85t-33.5 -137.5t-25.5 -206.5q-12 -144 -12 -240q0 -104 16.5 -160t48.5 -77t90 -21q59 0 86 2l29 324h-131l20 242h404z" />
<glyph unicode="&#x1e7;" horiz-adv-x="1079" d="M294 1442h295l90 -152l114 152h305l-274 -277h-303zM928 41q-21 -242 -120.5 -338t-313.5 -96q-124 0 -314 35l21 221q175 -35 262 -35q100 0 142 44t50 148l7 80q-106 -98 -250 -98q-152 0 -220.5 81.5t-68.5 274.5q0 195 31.5 327t100 211t166.5 112.5t241 33.5 q152 0 350 -49zM504 236q78 0 129.5 68t58.5 151l29 348q-50 6 -98 6q-39 0 -70 -9.5t-61 -37t-49.5 -73.5t-31.5 -123.5t-12 -182.5q0 -86 23.5 -116.5t81.5 -30.5z" />
<glyph unicode="&#x1e8;" horiz-adv-x="1120" d="M345 1853h294l91 -151l114 151h305l-274 -276h-303zM1059 0h-324l-241 563l-48 -63l-43 -500h-280l125 1434h280l-43 -496l373 496h316l-484 -623z" />
<glyph unicode="&#x1e9;" horiz-adv-x="1013" d="M6 1833h295l90 -152l115 152h305l-275 -277h-303zM963 0h-304l-194 418l-49 -60l-31 -358h-272l125 1434h272l-61 -703l262 293h319l-379 -412z" />
<glyph unicode="&#x1ea;" horiz-adv-x="1163" d="M700 -316l-15 -195q-78 -20 -174 -20q-126 0 -179.5 52t-53.5 159q0 181 134 315q-152 36 -215.5 157.5t-63.5 343.5q0 108 12 237q9 110 21 192t32 160.5t47.5 133.5t67.5 102t93.5 74.5t123.5 43t158 15.5q233 0 329.5 -125t96.5 -391q0 -82 -10 -205 q-10 -112 -21 -193t-29 -162.5t-42.5 -137.5t-61 -106t-84.5 -80.5t-112 -49.5t-146 -23q-44 -63 -72.5 -128.5t-28.5 -101.5q0 -37 18.5 -59.5t53.5 -22.5q29 0 121 15zM817 723q12 144 12 238q0 158 -36.5 215t-124.5 57q-76 0 -119.5 -40t-72.5 -150t-48 -320 q-12 -138 -12 -236q0 -162 37.5 -224t124.5 -62q75 0 119.5 44.5t73 157t46.5 320.5z" />
<glyph unicode="&#x1eb;" d="M665 -310l-15 -195q-78 -20 -174 -20q-126 0 -179.5 52t-53.5 159q0 180 134 314q-126 29 -188 126t-62 288q0 326 114 475t375 149q202 0 302 -100.5t100 -312.5q0 -27 -4 -93q-17 -203 -69.5 -320.5t-140 -168t-231.5 -56.5q-44 -63 -72.5 -128t-28.5 -101 q0 -37 18.5 -59.5t53.5 -22.5t121 14zM733 502q6 64 6 112q0 112 -33.5 157.5t-109.5 45.5q-92 0 -131 -67t-55 -248q-7 -79 -7 -117q0 -100 31.5 -139t108.5 -39q95 0 134.5 62t55.5 233z" />
<glyph unicode="&#x1ec;" horiz-adv-x="1163" d="M1000 1577h-604l21 223h604zM700 -316l-15 -195q-78 -20 -174 -20q-126 0 -179.5 52t-53.5 159q0 181 134 315q-152 36 -215.5 157.5t-63.5 343.5q0 108 12 237q9 110 21 192t32 160.5t47.5 133.5t67.5 102t93.5 74.5t123.5 43t158 15.5q233 0 329.5 -125t96.5 -391 q0 -82 -10 -205q-10 -112 -21 -193t-29 -162.5t-42.5 -137.5t-61 -106t-84.5 -80.5t-112 -49.5t-146 -23q-44 -63 -72.5 -128.5t-28.5 -101.5q0 -37 18.5 -59.5t53.5 -22.5q29 0 121 15zM817 723q12 144 12 238q0 158 -36.5 215t-124.5 57q-76 0 -119.5 -40t-72.5 -150 t-48 -320q-12 -138 -12 -236q0 -162 37.5 -224t124.5 -62q75 0 119.5 44.5t73 157t46.5 320.5z" />
<glyph unicode="&#x1ed;" d="M929 1161h-605l21 223h604zM665 -310l-15 -195q-78 -20 -174 -20q-126 0 -179.5 52t-53.5 159q0 180 134 314q-126 29 -188 126t-62 288q0 326 114 475t375 149q202 0 302 -100.5t100 -312.5q0 -27 -4 -93q-17 -203 -69.5 -320.5t-140 -168t-231.5 -56.5 q-44 -63 -72.5 -128t-28.5 -101q0 -37 18.5 -59.5t53.5 -22.5t121 14zM733 502q6 64 6 112q0 112 -33.5 157.5t-109.5 45.5q-92 0 -131 -67t-55 -248q-7 -79 -7 -117q0 -100 31.5 -139t108.5 -39q95 0 134.5 62t55.5 233z" />
<glyph unicode="&#x1f0;" horiz-adv-x="583" d="M473 1024l-92 -1051q-10 -103 -33 -168t-67 -102.5t-102.5 -51t-149.5 -13.5q-80 0 -172 10l20 229q53 -6 127 -6q56 0 78.5 19t26.5 73l92 1061h272zM-23 1438h295l90 -152l115 152h305l-274 -277h-303z" />
<glyph unicode="&#x1f4;" horiz-adv-x="1044" d="M860 1577h-228l228 276h336zM979 795l-68 -777q-200 -36 -354 -36q-110 0 -185 24t-130.5 83t-81 163t-25.5 260q0 122 10 227q11 129 30.5 229.5t46 176t65 129t81.5 88t102 54.5t121 28t144 8q124 0 256 -29l-20 -245q-134 28 -279 28q-54 0 -90 -11.5t-66 -40.5 t-49 -85t-33.5 -137.5t-25.5 -206.5q-12 -144 -12 -240q0 -104 16.5 -160t48.5 -77t90 -21q59 0 86 2l29 324h-131l20 242h404z" />
<glyph unicode="&#x1f5;" horiz-adv-x="1079" d="M786 1165h-227l227 277h336zM928 41q-21 -242 -120.5 -338t-313.5 -96q-124 0 -314 35l21 221q175 -35 262 -35q100 0 142 44t50 148l7 80q-106 -98 -250 -98q-152 0 -220.5 81.5t-68.5 274.5q0 195 31.5 327t100 211t166.5 112.5t241 33.5q152 0 350 -49zM504 236 q78 0 129.5 68t58.5 151l29 348q-50 6 -98 6q-39 0 -70 -9.5t-61 -37t-49.5 -73.5t-31.5 -123.5t-12 -182.5q0 -86 23.5 -116.5t81.5 -30.5z" />
<glyph unicode="&#x1f8;" horiz-adv-x="1212" d="M832 1577h-217l-297 276h325zM1049 0h-408l-170 1151l-100 -1151h-248l125 1434h407l172 -1174l103 1174h244z" />
<glyph unicode="&#x1f9;" horiz-adv-x="1073" d="M730 1165h-217l-297 277h326zM385 0h-272l88 1024h221l10 -109q114 127 279 127q152 0 215 -73.5t63 -235.5q0 -43 -6 -119l-53 -614h-273l54 608q4 40 4 80q0 69 -24 94t-77 25q-42 0 -76.5 -26t-56 -66t-34 -82t-15.5 -82z" />
<glyph unicode="&#x1fa;" horiz-adv-x="1116" d="M827 1935h-227l227 277h336zM918 1563q-10 -97 -44 -150l191 -1413h-283l-37 334h-348l-94 -334h-293l447 1427q-17 49 -17 99q0 286 262 286q104 0 161 -56t57 -157q0 -24 -2 -36zM721 575l-68 678l-188 -678h256zM737 1565q2 14 2 37q0 33 -11.5 48t-39.5 15 q-38 0 -52.5 -32.5t-14.5 -104.5q0 -33 11.5 -48.5t39.5 -15.5q32 0 46 23.5t19 77.5z" />
<glyph unicode="&#x1fb;" horiz-adv-x="1067" d="M802 1694h-227l227 276h336zM713 1323q2 14 2 37q0 33 -11.5 48t-39.5 15q-38 0 -53 -32.5t-15 -104.5q0 -33 11.5 -48t39.5 -15q33 0 47 23.5t19 76.5zM893 1321q-11 -124 -72 -187t-188 -63q-105 0 -161 55.5t-56 157.5q0 287 262 287q104 0 160.5 -55.5t56.5 -157.5 q0 -25 -2 -37zM123 485q14 159 49 264.5t98.5 171t153 93.5t219.5 28q160 0 336 -49l-61 -733q0 -28 15.5 -41.5t57.5 -13.5l-16 -205h-119q-26 0 -51 5t-52.5 16.5t-47.5 36t-27 59.5q-109 -135 -277 -135q-150 0 -217 82.5t-67 277.5q0 66 6 143zM494 215q51 0 89.5 40 t56.5 91.5t22 106.5l28 352q-58 4 -86 4q-36 0 -65 -10.5t-57 -40t-47 -78t-30.5 -129.5t-11.5 -189q0 -86 22.5 -116.5t78.5 -30.5z" />
<glyph unicode="&#x1fc;" horiz-adv-x="1599" d="M1189 1577h-227l227 276h336zM1477 0h-705l-10 334h-336l-123 -334h-293l555 1434h996l-21 -222h-547l23 -362h477l-20 -219h-445l27 -410h440zM735 1188l-223 -613h242z" />
<glyph unicode="&#x1fd;" horiz-adv-x="1515" d="M964 1165h-227l227 277h336zM1464 745q0 -177 -95.5 -266.5t-311.5 -89.5q-71 0 -139 8q0 -109 30.5 -145.5t124.5 -36.5q106 0 264 31l-20 -230q-51 -14 -130 -24t-134 -10q-121 0 -201.5 27t-128.5 97q-47 -57 -133.5 -90.5t-196.5 -33.5q-61 0 -110.5 13.5t-91 44 t-64.5 86t-23 132.5q0 206 113 297.5t342 91.5q54 0 103 -8l6 55q2 8 2 23q0 100 -129 100q-152 0 -320 -49l21 233q58 17 151 29t168 12q210 0 297 -71q103 71 260 71q83 0 146.5 -20.5t100.5 -51.5t60 -73t31 -78.5t8 -73.5zM492 211q40 0 69.5 15t45 39t23 47t9.5 46 l6 80q-57 11 -102 11q-71 0 -114.5 -39.5t-43.5 -108.5q0 -90 107 -90zM1094 817q-61 0 -98 -48t-58 -161q46 -6 88 -6q170 0 170 111q0 51 -20 77.5t-82 26.5z" />
<glyph unicode="&#x1fe;" horiz-adv-x="1122" d="M836 1743h-228l228 276h335zM1114 733q-9 -102 -19 -177t-25.5 -152t-35.5 -130.5t-49.5 -104.5t-68 -83.5t-89 -58t-114.5 -36.5t-144 -11q-71 0 -143 14l-74 -180h-202l108 266q-115 118 -115 416q0 97 13 237q9 110 21 192t32 160.5t47.5 133.5t67.5 102t93 74.5 t123 43t158 15.5q57 0 119 -10l72 176h205l-105 -252q135 -118 135 -430q0 -82 -10 -205zM827 723q13 156 13 238v40l-324 -788q30 -12 72 -12q75 0 119.5 44.5t73 157t46.5 320.5zM438 723q-12 -138 -12 -236l301 740q-21 6 -49 6q-76 0 -119.5 -40t-72.5 -150t-48 -320z " />
<glyph unicode="&#x1ff;" d="M758 1329h-227l227 277h336zM1018 625q0 -27 -4 -93q-11 -129 -35.5 -222t-62.5 -156t-96 -100t-128.5 -52.5t-167.5 -15.5q-38 0 -104 8l-82 -176h-195l111 235q-127 92 -127 361q0 326 114 475t375 149q58 0 99 -8l84 176h192l-112 -237q139 -100 139 -344zM733 502 q6 64 6 112q0 9 -1 26.5t-1 25.5l-217 -459h23q95 0 135 62t55 233zM403 385v-18l211 450h-18q-92 0 -131.5 -67t-54.5 -248q-7 -79 -7 -117z" />
<glyph unicode="&#x218;" horiz-adv-x="868" d="M493 -266l-217 -307h-199l109 307l22 257q-104 8 -165 25l23 244q47 -12 128.5 -22.5t137.5 -10.5q227 0 227 234q0 79 -37 113t-121 55q-148 36 -215 120.5t-67 217.5q0 250 124.5 365.5t395.5 115.5q58 0 136 -8.5t120 -20.5l-21 -243q-108 30 -272 30 q-99 0 -147.5 -50.5t-48.5 -158.5q0 -58 30.5 -83.5t116.5 -45.5q143 -33 219 -115t76 -237q0 -22 -4 -72q-20 -216 -100.5 -317t-227.5 -128z" />
<glyph unicode="&#x219;" horiz-adv-x="870" d="M516 -266l-217 -307h-199l108 307l22 255q-103 11 -154 25l20 232q155 -35 242 -35t131.5 23.5t44.5 84.5q0 38 -26 58t-95 33q-262 52 -262 272q0 193 109.5 276.5t337.5 83.5q120 0 243 -30l-20 -234q-119 35 -242 35q-79 0 -113 -22.5t-34 -73.5q0 -31 28 -46t97 -30 q141 -32 200.5 -102.5t59.5 -180.5q0 -159 -67 -244t-192 -114z" />
<glyph unicode="&#x21a;" horiz-adv-x="911" d="M553 -266l-217 -307h-199l109 307l22 266h27l102 1186h-295l23 248h870l-22 -248h-295l-103 -1186z" />
<glyph unicode="&#x21b;" horiz-adv-x="712" d="M555 -266l-217 -307h-199l109 307l22 266h28q-67 24 -94.5 80.5t-27.5 148.5q0 26 4 88l41 471h-133l21 236h133l22 246h273l-23 -246h205l-21 -236h-204l-37 -440q-1 -16 -2 -29.5t-1.5 -20.5t-0.5 -9q0 -39 18 -56.5t59 -17.5q59 0 129 18l-18 -227q-24 -6 -64 -12z " />
<glyph unicode="&#x21e;" horiz-adv-x="1167" d="M322 1853h295l90 -151l115 151h305l-275 -276h-303zM1004 0h-281l51 608h-319l-52 -608h-280l125 1434h280l-53 -592h320l53 592h280z" />
<glyph unicode="&#x21f;" horiz-adv-x="1073" d="M277 1833h295l90 -152l115 152h305l-275 -277h-303zM385 0h-272l125 1434h272l-43 -486q104 94 244 94q152 0 215 -73.5t63 -235.5q0 -49 -6 -119l-53 -614h-273l54 621q4 36 4 67q0 69 -24 94t-77 25q-72 0 -121.5 -69t-56.5 -150z" />
<glyph unicode="&#x226;" horiz-adv-x="1116" d="M824 1577h-292l20 235h293zM721 575l-68 678l-188 -678h256zM1065 0h-283l-37 334h-348l-94 -334h-293l449 1434h413z" />
<glyph unicode="&#x227;" horiz-adv-x="1067" d="M800 1165h-293l21 236h293zM123 485q14 159 49 264.5t98.5 171t153 93.5t219.5 28q160 0 336 -49l-61 -733q0 -28 15.5 -41.5t57.5 -13.5l-16 -205h-119q-26 0 -51 5t-52.5 16.5t-47.5 36t-27 59.5q-109 -135 -277 -135q-150 0 -217 82.5t-67 277.5q0 66 6 143zM494 215 q51 0 89.5 40t56.5 91.5t22 106.5l28 352q-58 4 -86 4q-36 0 -65 -10.5t-57 -40t-47 -78t-30.5 -129.5t-11.5 -189q0 -86 22.5 -116.5t78.5 -30.5z" />
<glyph unicode="&#x228;" horiz-adv-x="978" d="M232 -522l15 178q65 -10 110 -10q46 0 66 10t20 37t-33.5 37t-132.5 10l65 260h-219l125 1434h733l-20 -222h-453l-31 -362h402l-21 -219h-401l-35 -410h452l-18 -221h-317l-30 -123q82 -10 122 -55.5t40 -116.5q0 -111 -70.5 -177t-214.5 -66q-80 0 -154 16z" />
<glyph unicode="&#x229;" horiz-adv-x="991" d="M271 -541l15 179q72 -11 110 -11q46 0 66 10.5t20 37.5t-33.5 37t-132.5 10l68 270q-130 23 -196.5 114t-66.5 287q0 55 6 119q26 281 138.5 405.5t328.5 124.5q83 0 146.5 -20.5t100.5 -51.5t60 -73t31 -78.5t8 -73.5q0 -176 -93.5 -264t-309.5 -88q-93 0 -144 6v-16 q0 -97 33.5 -132.5t122.5 -35.5q106 0 264 31l-20 -230q-86 -24 -214 -33l-31 -124q82 -10 122 -55.5t40 -116.5q0 -111 -70.5 -177.5t-214.5 -66.5q-80 0 -154 16zM569 817q-61 0 -97.5 -46t-57.5 -159q52 -6 96 -6q162 0 162 107q0 50 -20.5 77t-82.5 27z" />
<glyph unicode="&#x22a;" horiz-adv-x="1163" d="M1015 1853h-604l20 224h604zM1018 1495h-266l22 236h266zM608 1495h-266l23 236h266zM817 723q12 144 12 238q0 158 -36.5 215t-124.5 57q-76 0 -119.5 -40t-72.5 -150t-48 -320q-12 -138 -12 -236q0 -162 37.5 -224t124.5 -62q75 0 119.5 44.5t73 157t46.5 320.5z M1104 733q-9 -102 -19 -177t-25.5 -152t-35.5 -130.5t-49.5 -104.5t-68 -83.5t-89 -58t-114.5 -36.5t-144 -11q-121 0 -203.5 31.5t-131.5 98t-70 160t-21 226.5q0 108 12 237q9 110 21 192t32 160.5t47.5 133.5t67.5 102t93.5 74.5t123.5 43t158 15.5q233 0 329.5 -125 t96.5 -391q0 -82 -10 -205z" />
<glyph unicode="&#x22b;" d="M961 1505h-604l21 224h604zM1018 625q0 -27 -4 -93q-11 -129 -35.5 -222t-62.5 -156t-96 -100t-128.5 -52.5t-167.5 -15.5q-100 0 -170.5 20t-123 68t-78 132.5t-25.5 207.5q0 326 114 475t375 149q202 0 302 -100.5t100 -312.5zM733 502q6 64 6 112q0 112 -33.5 157.5 t-109.5 45.5q-92 0 -131.5 -67t-54.5 -248q-7 -79 -7 -117q0 -100 31.5 -139t108.5 -39q95 0 135 62t55 233zM965 1147h-267l23 235h266zM555 1147h-266l22 235h267z" />
<glyph unicode="&#x22c;" horiz-adv-x="1163" d="M877 1884h-604l21 223h604zM817 723q12 144 12 238q0 158 -36.5 215t-124.5 57q-76 0 -119.5 -40t-72.5 -150t-48 -320q-12 -138 -12 -236q0 -162 37.5 -224t124.5 -62q75 0 119.5 44.5t73 157t46.5 320.5zM1104 733q-9 -102 -19 -177t-25.5 -152t-35.5 -130.5 t-49.5 -104.5t-68 -83.5t-89 -58t-114.5 -36.5t-144 -11q-121 0 -203.5 31.5t-131.5 98t-70 160t-21 226.5q0 108 12 237q9 110 21 192t32 160.5t47.5 133.5t67.5 102t93.5 74.5t123.5 43t158 15.5q233 0 329.5 -125t96.5 -391q0 -82 -10 -205zM346 1481l19 215 q84 65 200 65q50 0 150.5 -40t138.5 -40q100 0 190 74l-18 -215q-73 -65 -203 -65q-53 0 -148.5 39.5t-137.5 39.5q-51 0 -103 -21t-88 -52z" />
<glyph unicode="&#x22d;" d="M820 1597h-604l20 224h605zM1018 625q0 -27 -4 -93q-11 -129 -35.5 -222t-62.5 -156t-96 -100t-128.5 -52.5t-167.5 -15.5q-100 0 -170.5 20t-123 68t-78 132.5t-25.5 207.5q0 326 114 475t375 149q202 0 302 -100.5t100 -312.5zM733 502q6 64 6 112q0 112 -33.5 157.5 t-109.5 45.5q-92 0 -131.5 -67t-54.5 -248q-7 -79 -7 -117q0 -100 31.5 -139t108.5 -39q95 0 135 62t55 233zM289 1194l18 215q85 66 201 66q50 0 150.5 -40t138.5 -40q101 0 190 73l-18 -215q-73 -65 -203 -65q-53 0 -149 40t-138 40q-51 0 -102.5 -21t-87.5 -53z" />
<glyph unicode="&#x22e;" horiz-adv-x="1163" d="M845 1577h-293l21 235h293zM817 723q12 144 12 238q0 158 -36.5 215t-124.5 57q-76 0 -119.5 -40t-72.5 -150t-48 -320q-12 -138 -12 -236q0 -162 37.5 -224t124.5 -62q75 0 119.5 44.5t73 157t46.5 320.5zM1104 733q-9 -102 -19 -177t-25.5 -152t-35.5 -130.5 t-49.5 -104.5t-68 -83.5t-89 -58t-114.5 -36.5t-144 -11q-121 0 -203.5 31.5t-131.5 98t-70 160t-21 226.5q0 108 12 237q9 110 21 192t32 160.5t47.5 133.5t67.5 102t93.5 74.5t123.5 43t158 15.5q233 0 329.5 -125t96.5 -391q0 -82 -10 -205z" />
<glyph unicode="&#x22f;" d="M774 1161h-293l20 236h293zM1018 625q0 -27 -4 -93q-11 -129 -35.5 -222t-62.5 -156t-96 -100t-128.5 -52.5t-167.5 -15.5q-100 0 -170.5 20t-123 68t-78 132.5t-25.5 207.5q0 326 114 475t375 149q202 0 302 -100.5t100 -312.5zM733 502q6 64 6 112q0 112 -33.5 157.5 t-109.5 45.5q-92 0 -131.5 -67t-54.5 -248q-7 -79 -7 -117q0 -100 31.5 -139t108.5 -39q95 0 135 62t55 233z" />
<glyph unicode="&#x230;" horiz-adv-x="1163" d="M1031 1935h-604l21 224h604zM845 1577h-293l21 235h293zM817 723q12 144 12 238q0 158 -36.5 215t-124.5 57q-76 0 -119.5 -40t-72.5 -150t-48 -320q-12 -138 -12 -236q0 -162 37.5 -224t124.5 -62q75 0 119.5 44.5t73 157t46.5 320.5zM1104 733q-9 -102 -19 -177 t-25.5 -152t-35.5 -130.5t-49.5 -104.5t-68 -83.5t-89 -58t-114.5 -36.5t-144 -11q-121 0 -203.5 31.5t-131.5 98t-70 160t-21 226.5q0 108 12 237q9 110 21 192t32 160.5t47.5 133.5t67.5 102t93.5 74.5t123.5 43t158 15.5q233 0 329.5 -125t96.5 -391q0 -82 -10 -205z" />
<glyph unicode="&#x231;" d="M960 1520h-604l20 223h604zM774 1161h-293l20 236h293zM1018 625q0 -27 -4 -93q-11 -129 -35.5 -222t-62.5 -156t-96 -100t-128.5 -52.5t-167.5 -15.5q-100 0 -170.5 20t-123 68t-78 132.5t-25.5 207.5q0 326 114 475t375 149q202 0 302 -100.5t100 -312.5zM733 502 q6 64 6 112q0 112 -33.5 157.5t-109.5 45.5q-92 0 -131.5 -67t-54.5 -248q-7 -79 -7 -117q0 -100 31.5 -139t108.5 -39q95 0 135 62t55 233z" />
<glyph unicode="&#x232;" horiz-adv-x="1087" d="M962 1577h-604l20 223h605zM1171 1434l-454 -803l-53 -631h-287l53 631l-305 803h297l178 -553l277 553h294z" />
<glyph unicode="&#x233;" horiz-adv-x="1009" d="M886 1161h-604l20 223h604zM1036 1024l-358 -1110q-89 -276 -316 -276q-121 0 -184 10l21 231q50 -6 100 -6q84 0 109 90l10 37h-70l-239 1024h286l129 -797l244 797h268z" />
<glyph unicode="&#x237;" horiz-adv-x="538" d="M473 1024l-92 -1051q-10 -103 -33 -168t-67 -102.5t-102.5 -51t-149.5 -13.5q-80 0 -172 10l20 229q53 -6 127 -6q56 0 78.5 19t26.5 73l92 1061h272z" />
<glyph unicode="&#x2c6;" horiz-adv-x="886" d="M928 1188h-295l-88 151l-117 -151h-305l274 276h303z" />
<glyph unicode="&#x2c7;" horiz-adv-x="886" d="M147 1466h295l90 -151l115 151h305l-274 -276h-303z" />
<glyph unicode="&#x2c9;" horiz-adv-x="706" d="M739 1210h-604l21 224h604z" />
<glyph unicode="&#x2d8;" horiz-adv-x="765" d="M158 1466h239q0 -50 21.5 -77t62.5 -27q40 0 67.5 28.5t33.5 75.5h239q-5 -38 -18 -75t-40.5 -78t-66 -72t-100 -51.5t-137.5 -20.5q-68 0 -122.5 20.5t-87 51.5t-54 72t-29.5 78.5t-8 74.5z" />
<glyph unicode="&#x2d9;" horiz-adv-x="395" d="M428 1198h-293l21 236h293z" />
<glyph unicode="&#x2da;" horiz-adv-x="577" d="M440 1323q2 14 2 37q0 33 -11.5 48t-39.5 15q-38 0 -52.5 -32.5t-14.5 -104.5q0 -33 11.5 -48t39.5 -15q32 0 46 23t19 77zM621 1321q-11 -124 -72.5 -187t-188.5 -63q-105 0 -161 55.5t-56 157.5q0 287 263 287q104 0 160.5 -55.5t56.5 -157.5q0 -25 -2 -37z" />
<glyph unicode="&#x2db;" horiz-adv-x="692" d="M518 -190l-14 -195q-82 -21 -174 -21q-126 0 -180 52t-54 159q0 181 137 318h205q-49 -65 -80.5 -136t-31.5 -110q0 -37 18 -59.5t53 -22.5q29 0 121 15z" />
<glyph unicode="&#x2dc;" horiz-adv-x="778" d="M135 1194l19 215q85 66 200 66q50 0 150.5 -40t138.5 -40q102 0 191 73l-19 -215q-73 -65 -203 -65q-53 0 -148.5 40t-137.5 40q-51 0 -103 -21.5t-88 -52.5z" />
<glyph unicode="&#x2dd;" horiz-adv-x="1060" d="M723 1526l-369 -301h-217l238 301h348zM1122 1526l-368 -301h-217l237 301h348z" />
<glyph unicode="&#x3bc;" horiz-adv-x="1071" d="M190 1024h273l-57 -637q-3 -27 -3 -43v-18q0 -60 26 -84.5t73 -24.5q33 0 61.5 17.5t47.5 44.5t33.5 62t21.5 68t10 64l47 551h272l-88 -1024h-221l-10 102q-110 -120 -270 -120q-25 0 -35 2l-29 -332h-272l63 719q0 16 2 24z" />
<glyph unicode="&#x3c0;" horiz-adv-x="1196" d="M485 0h-272l68 791h-162l20 233h1053l-21 -233h-188l-39 -449q-4 -50 -4 -57q0 -31 13.5 -45.5t47.5 -14.5q26 0 56 6l-19 -225q-68 -14 -161 -14q-207 0 -207 235q0 44 4 84l41 480h-162z" />
<glyph unicode="&#x1e00;" horiz-adv-x="1116" d="M562 -371q3 21 3 37q0 33 -12 48.5t-40 15.5q-38 0 -52.5 -32.5t-14.5 -105.5q0 -33 11.5 -48t39.5 -15q32 0 46 23t19 77zM743 -373q-11 -124 -72 -187t-188 -63q-105 0 -161 55.5t-56 157.5q0 287 262 287q104 0 160.5 -55.5t56.5 -157.5q0 -25 -2 -37zM721 575 l-68 678l-188 -678h256zM1065 0h-283l-37 334h-348l-94 -334h-293l449 1434h413z" />
<glyph unicode="&#x1e01;" horiz-adv-x="1067" d="M426 -389q2 14 2 37q0 33 -11.5 48t-39.5 15q-38 0 -52.5 -32.5t-14.5 -104.5q0 -33 11.5 -48t39.5 -15q32 0 46 23t19 77zM607 -391q-11 -124 -72.5 -187t-188.5 -63q-105 0 -161 55.5t-56 157.5q0 287 262 287q104 0 161 -56t57 -157q0 -25 -2 -37zM123 485 q14 159 49 264.5t98.5 171t153 93.5t219.5 28q160 0 336 -49l-61 -733q0 -28 15.5 -41.5t57.5 -13.5l-16 -205h-119q-26 0 -51 5t-52.5 16.5t-47.5 36t-27 59.5q-109 -135 -277 -135q-150 0 -217 82.5t-67 277.5q0 66 6 143zM494 215q51 0 89.5 40t56.5 91.5t22 106.5 l28 352q-58 4 -86 4q-36 0 -65 -10.5t-57 -40t-47 -78t-30.5 -129.5t-11.5 -189q0 -86 22.5 -116.5t78.5 -30.5z" />
<glyph unicode="&#x1e02;" horiz-adv-x="1120" d="M836 1577h-292l20 235h293zM741 473q0 166 -159 166h-123l-37 -406q73 -6 149 -6q166 0 170 246zM764 1069q0 66 -31 102.5t-88 36.5q-30 0 -64.5 -2t-53.5 -4l-19 -2l-29 -332h111q93 0 132 50t42 151zM1022 422q-11 -130 -47.5 -216.5t-101 -135t-147 -68.5t-200.5 -20 q-76 0 -177 4.5t-163 9.5l-63 4l125 1434q240 18 375 18q217 0 318 -78.5t101 -249.5q0 -91 -15.5 -157t-45.5 -105.5t-66 -60t-84 -29.5q88 -14 141.5 -87t53.5 -193q0 -34 -4 -70z" />
<glyph unicode="&#x1e03;" horiz-adv-x="1058" d="M806 1556h-293l21 236h292zM987 557q-15 -170 -54 -283t-106.5 -177t-154 -89.5t-211.5 -25.5q-119 0 -348 28l125 1424h272l-43 -488q103 96 244 96q282 0 282 -362q0 -70 -6 -123zM618 809q-74 0 -124 -69.5t-58 -153.5l-33 -367q66 -4 97 -4q40 0 70 12t59.5 44 t50.5 99.5t33 168.5q6 53 6 108q0 92 -24.5 127t-76.5 35z" />
<glyph unicode="&#x1e04;" horiz-adv-x="1120" d="M642 -377h-293l21 236h292zM741 473q0 166 -159 166h-123l-37 -406q73 -6 149 -6q166 0 170 246zM764 1069q0 66 -31 102.5t-88 36.5q-30 0 -64.5 -2t-53.5 -4l-19 -2l-29 -332h111q93 0 132 50t42 151zM1022 422q-11 -130 -47.5 -216.5t-101 -135t-147 -68.5t-200.5 -20 q-76 0 -177 4.5t-163 9.5l-63 4l125 1434q240 18 375 18q217 0 318 -78.5t101 -249.5q0 -91 -15.5 -157t-45.5 -105.5t-66 -60t-84 -29.5q88 -14 141.5 -87t53.5 -193q0 -34 -4 -70z" />
<glyph unicode="&#x1e05;" horiz-adv-x="1058" d="M576 -377h-292l20 236h293zM987 557q-15 -170 -54 -283t-106.5 -177t-154 -89.5t-211.5 -25.5q-119 0 -348 28l125 1424h272l-43 -488q103 96 244 96q282 0 282 -362q0 -70 -6 -123zM618 809q-74 0 -124 -69.5t-58 -153.5l-33 -367q66 -4 97 -4q40 0 70 12t59.5 44 t50.5 99.5t33 168.5q6 53 6 108q0 92 -24.5 127t-76.5 35z" />
<glyph unicode="&#x1e06;" horiz-adv-x="1120" d="M798 -365h-604l20 224h605zM741 473q0 166 -159 166h-123l-37 -406q73 -6 149 -6q166 0 170 246zM764 1069q0 66 -31 102.5t-88 36.5q-30 0 -64.5 -2t-53.5 -4l-19 -2l-29 -332h111q93 0 132 50t42 151zM1022 422q-11 -130 -47.5 -216.5t-101 -135t-147 -68.5t-200.5 -20 q-76 0 -177 4.5t-163 9.5l-63 4l125 1434q240 18 375 18q217 0 318 -78.5t101 -249.5q0 -91 -15.5 -157t-45.5 -105.5t-66 -60t-84 -29.5q88 -14 141.5 -87t53.5 -193q0 -34 -4 -70z" />
<glyph unicode="&#x1e07;" horiz-adv-x="1058" d="M733 -365h-605l21 224h604zM987 557q-15 -170 -54 -283t-106.5 -177t-154 -89.5t-211.5 -25.5q-119 0 -348 28l125 1424h272l-43 -488q103 96 244 96q282 0 282 -362q0 -70 -6 -123zM618 809q-74 0 -124 -69.5t-58 -153.5l-33 -367q66 -4 97 -4q40 0 70 12t59.5 44 t50.5 99.5t33 168.5q6 53 6 108q0 92 -24.5 127t-76.5 35z" />
<glyph unicode="&#x1e08;" horiz-adv-x="886" d="M813 1577h-227l227 276h336zM311 -438l15 178q65 -10 110 -10q46 0 66 10t20 37t-33.5 37t-132.5 10l43 174q-133 29 -198.5 146t-65.5 366q0 122 10 229q12 134 30.5 235.5t42.5 177t59 128t73.5 85.5t93.5 51.5t111 25t133 6.5q40 0 118 -10.5t101 -18.5l-20 -250 q-125 33 -246 33q-48 0 -78 -15t-57 -64t-45.5 -145t-32.5 -253q-3 -25 -7.5 -125.5t-4.5 -122.5q0 -101 16 -155.5t44 -72.5t79 -18q115 0 252 31l-23 -248q-49 -14 -190 -26l-6 -27q82 -10 122 -55.5t40 -116.5q0 -111 -70.5 -177.5t-214.5 -66.5q-75 0 -154 17z" />
<glyph unicode="&#x1e09;" horiz-adv-x="835" d="M714 1165h-227l227 277h336zM272 -438l15 178q65 -10 110 -10q46 0 66 10t20 37t-33.5 37t-132.5 10l41 170q-116 23 -175.5 115t-59.5 286q0 346 112.5 496.5t354.5 150.5q113 0 231 -28l-20 -240q-10 2 -40.5 9t-41.5 8.5t-35.5 5.5t-48 5t-53.5 1t-52 -7.5t-43 -27.5 t-35.5 -54.5t-26.5 -89.5t-19 -132q-5 -73 -5 -80q0 -104 30.5 -147.5t94.5 -43.5q36 0 72 3.5t57.5 7t53.5 10t45 8.5l-21 -238q-78 -21 -180 -28l-4 -23q82 -10 122 -55.5t40 -116.5q0 -111 -70.5 -177.5t-214.5 -66.5q-75 0 -154 17z" />
<glyph unicode="&#x1e0a;" horiz-adv-x="1118" d="M841 1577h-293l21 235h293zM772 725q12 144 12 233q0 82 -9 132.5t-30 75.5t-45.5 32.5t-64.5 7.5q-34 0 -65.5 -2t-46.5 -4l-15 -2l-84 -962q37 -9 123 -9q66 0 108 42t71.5 151.5t45.5 304.5zM1059 739q-16 -183 -46 -313.5t-73 -217t-108 -137t-141.5 -71 t-182.5 -20.5q-64 0 -160.5 5t-160.5 10l-64 5l125 1434q249 20 364 20q88 0 153 -12.5t124.5 -46.5t97 -92t59 -152.5t21.5 -224.5q0 -96 -8 -187z" />
<glyph unicode="&#x1e0b;" horiz-adv-x="1079" d="M787 1556h-293l21 236h293zM129 496q26 302 147.5 424t385.5 122q27 0 81 -4l35 396h273l-125 -1434h-221l-13 117q-116 -135 -280 -135q-156 0 -223.5 81t-67.5 273q0 50 8 160zM504 215q43 0 79 25.5t58.5 65.5t36 82.5t16.5 82.5l29 332q-53 6 -100 6q-40 0 -71 -10.5 t-60.5 -39t-49 -76.5t-31.5 -127.5t-12 -186.5q0 -91 23.5 -122.5t81.5 -31.5z" />
<glyph unicode="&#x1e0c;" horiz-adv-x="1118" d="M624 -379h-293l20 236h293zM772 725q12 144 12 233q0 82 -9 132.5t-30 75.5t-45.5 32.5t-64.5 7.5q-34 0 -65.5 -2t-46.5 -4l-15 -2l-84 -962q37 -9 123 -9q66 0 108 42t71.5 151.5t45.5 304.5zM1059 739q-16 -183 -46 -313.5t-73 -217t-108 -137t-141.5 -71 t-182.5 -20.5q-64 0 -160.5 5t-160.5 10l-64 5l125 1434q249 20 364 20q88 0 153 -12.5t124.5 -46.5t97 -92t59 -152.5t21.5 -224.5q0 -96 -8 -187z" />
<glyph unicode="&#x1e0d;" horiz-adv-x="1079" d="M527 -377h-293l21 236h293zM129 496q26 302 147.5 424t385.5 122q27 0 81 -4l35 396h273l-125 -1434h-221l-13 117q-116 -135 -280 -135q-156 0 -223.5 81t-67.5 273q0 50 8 160zM504 215q43 0 79 25.5t58.5 65.5t36 82.5t16.5 82.5l29 332q-53 6 -100 6q-40 0 -71 -10.5 t-60.5 -39t-49 -76.5t-31.5 -127.5t-12 -186.5q0 -91 23.5 -122.5t81.5 -31.5z" />
<glyph unicode="&#x1e0e;" horiz-adv-x="1118" d="M780 -367h-604l20 224h604zM772 725q12 144 12 233q0 82 -9 132.5t-30 75.5t-45.5 32.5t-64.5 7.5q-34 0 -65.5 -2t-46.5 -4l-15 -2l-84 -962q37 -9 123 -9q66 0 108 42t71.5 151.5t45.5 304.5zM1059 739q-16 -183 -46 -313.5t-73 -217t-108 -137t-141.5 -71 t-182.5 -20.5q-64 0 -160.5 5t-160.5 10l-64 5l125 1434q249 20 364 20q88 0 153 -12.5t124.5 -46.5t97 -92t59 -152.5t21.5 -224.5q0 -96 -8 -187z" />
<glyph unicode="&#x1e0f;" horiz-adv-x="1079" d="M683 -365h-604l21 224h604zM129 496q26 302 147.5 424t385.5 122q27 0 81 -4l35 396h273l-125 -1434h-221l-13 117q-116 -135 -280 -135q-156 0 -223.5 81t-67.5 273q0 50 8 160zM504 215q43 0 79 25.5t58.5 65.5t36 82.5t16.5 82.5l29 332q-53 6 -100 6q-40 0 -71 -10.5 t-60.5 -39t-49 -76.5t-31.5 -127.5t-12 -186.5q0 -91 23.5 -122.5t81.5 -31.5z" />
<glyph unicode="&#x1e10;" horiz-adv-x="1118" d="M251 -543l14 179q71 -11 111 -11q46 0 66 10t20 37t-33.5 37.5t-132.5 10.5l66 264l-239 16l125 1434q249 20 364 20q88 0 153 -12.5t124.5 -46.5t97 -92t59 -152.5t21.5 -224.5q0 -96 -8 -187q-16 -174 -43.5 -300t-67.5 -212.5t-98 -139t-128 -77t-164 -29.5l-31 -124 q82 -10 122 -55.5t40 -116.5q0 -111 -70.5 -177.5t-214.5 -66.5q-79 0 -153 16zM772 725q12 144 12 233q0 82 -9 132.5t-30 75.5t-45.5 32.5t-64.5 7.5q-34 0 -65.5 -2t-46.5 -4l-15 -2l-84 -962q37 -9 123 -9q66 0 108 42t71.5 151.5t45.5 304.5z" />
<glyph unicode="&#x1e11;" horiz-adv-x="1079" d="M155 -541l14 179q71 -11 111 -11q46 0 66 10.5t20 37.5t-33.5 37t-132.5 10l69 278h11q-84 29 -121.5 109.5t-37.5 226.5q0 50 8 160q26 302 147.5 424t385.5 122q27 0 81 -4l35 396h273l-125 -1434h-221l-13 117q-98 -115 -230 -132l-31 -126q82 -10 122 -55.5 t40 -116.5q0 -111 -70.5 -177.5t-214.5 -66.5q-79 0 -153 16zM504 215q56 0 100 44.5t64.5 100t25.5 111.5l29 332q-53 6 -100 6q-40 0 -71 -10.5t-60.5 -39t-49 -76.5t-31.5 -127.5t-12 -186.5q0 -91 23.5 -122.5t81.5 -31.5z" />
<glyph unicode="&#x1e12;" horiz-adv-x="1118" d="M876 -420h-295l-88 152l-117 -152h-305l275 277h303zM772 725q12 144 12 233q0 82 -9 132.5t-30 75.5t-45.5 32.5t-64.5 7.5q-34 0 -65.5 -2t-46.5 -4l-15 -2l-84 -962q37 -9 123 -9q66 0 108 42t71.5 151.5t45.5 304.5zM1059 739q-16 -183 -46 -313.5t-73 -217 t-108 -137t-141.5 -71t-182.5 -20.5q-64 0 -160.5 5t-160.5 10l-64 5l125 1434q249 20 364 20q88 0 153 -12.5t124.5 -46.5t97 -92t59 -152.5t21.5 -224.5q0 -96 -8 -187z" />
<glyph unicode="&#x1e13;" horiz-adv-x="1079" d="M780 -418h-295l-88 152l-117 -152h-305l274 277h304zM129 496q26 302 147.5 424t385.5 122q27 0 81 -4l35 396h273l-125 -1434h-221l-13 117q-116 -135 -280 -135q-156 0 -223.5 81t-67.5 273q0 50 8 160zM504 215q43 0 79 25.5t58.5 65.5t36 82.5t16.5 82.5l29 332 q-53 6 -100 6q-40 0 -71 -10.5t-60.5 -39t-49 -76.5t-31.5 -127.5t-12 -186.5q0 -91 23.5 -122.5t81.5 -31.5z" />
<glyph unicode="&#x1e14;" horiz-adv-x="978" d="M766 1923h-217l-297 277h326zM928 1577h-604l21 223h604zM856 0h-733l125 1434h733l-20 -222h-453l-31 -362h402l-21 -219h-401l-35 -410h452z" />
<glyph unicode="&#x1e15;" horiz-adv-x="991" d="M744 1511h-217l-297 277h325zM906 1165h-604l20 224h605zM940 745q0 -176 -93.5 -264t-309.5 -88q-93 0 -144 6v-16q0 -97 33.5 -132.5t122.5 -35.5q106 0 264 31l-20 -230q-51 -14 -130.5 -24t-134.5 -10q-65 0 -115 6.5t-98.5 22.5t-82 45.5t-59.5 74t-39 110.5 t-13 152q0 55 6 119q26 281 138.5 405.5t328.5 124.5q83 0 146.5 -20.5t100.5 -51.5t60 -73t31 -78.5t8 -73.5zM569 817q-61 0 -97.5 -46t-57.5 -159q52 -6 96 -6q162 0 162 107q0 50 -20.5 77t-82.5 27z" />
<glyph unicode="&#x1e16;" horiz-adv-x="978" d="M771 1923h-227l227 277h336zM928 1577h-604l21 223h604zM856 0h-733l125 1434h733l-20 -222h-453l-31 -362h402l-21 -219h-401l-35 -410h452z" />
<glyph unicode="&#x1e17;" horiz-adv-x="991" d="M749 1511h-227l227 277h336zM906 1165h-604l20 224h605zM940 745q0 -176 -93.5 -264t-309.5 -88q-93 0 -144 6v-16q0 -97 33.5 -132.5t122.5 -35.5q106 0 264 31l-20 -230q-51 -14 -130.5 -24t-134.5 -10q-65 0 -115 6.5t-98.5 22.5t-82 45.5t-59.5 74t-39 110.5t-13 152 q0 55 6 119q26 281 138.5 405.5t328.5 124.5q83 0 146.5 -20.5t100.5 -51.5t60 -73t31 -78.5t8 -73.5zM569 817q-61 0 -97.5 -46t-57.5 -159q52 -6 96 -6q162 0 162 107q0 50 -20.5 77t-82.5 27z" />
<glyph unicode="&#x1e18;" horiz-adv-x="978" d="M858 -399h-295l-88 151l-117 -151h-305l274 276h303zM856 0h-733l125 1434h733l-20 -222h-453l-31 -362h402l-21 -219h-401l-35 -410h452z" />
<glyph unicode="&#x1e19;" horiz-adv-x="991" d="M897 -418h-295l-88 152l-117 -152h-305l274 277h303zM940 745q0 -176 -93.5 -264t-309.5 -88q-93 0 -144 6v-16q0 -97 33.5 -132.5t122.5 -35.5q106 0 264 31l-20 -230q-51 -14 -130.5 -24t-134.5 -10q-65 0 -115 6.5t-98.5 22.5t-82 45.5t-59.5 74t-39 110.5t-13 152 q0 55 6 119q26 281 138.5 405.5t328.5 124.5q83 0 146.5 -20.5t100.5 -51.5t60 -73t31 -78.5t8 -73.5zM569 817q-61 0 -97.5 -46t-57.5 -159q52 -6 96 -6q162 0 162 107q0 50 -20.5 77t-82.5 27z" />
<glyph unicode="&#x1e1a;" horiz-adv-x="978" d="M118 -403l18 215q84 65 201 65q50 0 150 -40t138 -40q101 0 191 74l-19 -215q-74 -66 -202 -66q-53 0 -149 40t-138 40q-51 0 -102.5 -21t-87.5 -52zM856 0h-733l125 1434h733l-20 -222h-453l-31 -362h402l-21 -219h-401l-35 -410h452z" />
<glyph unicode="&#x1e1b;" horiz-adv-x="991" d="M156 -422l19 215q85 66 201 66q50 0 150 -40t138 -40q101 0 191 74l-19 -215q-74 -66 -202 -66q-53 0 -149 40t-138 40q-51 0 -103 -21.5t-88 -52.5zM940 745q0 -176 -93.5 -264t-309.5 -88q-93 0 -144 6v-16q0 -97 33.5 -132.5t122.5 -35.5q106 0 264 31l-20 -230 q-51 -14 -130.5 -24t-134.5 -10q-65 0 -115 6.5t-98.5 22.5t-82 45.5t-59.5 74t-39 110.5t-13 152q0 55 6 119q26 281 138.5 405.5t328.5 124.5q83 0 146.5 -20.5t100.5 -51.5t60 -73t31 -78.5t8 -73.5zM569 817q-61 0 -97.5 -46t-57.5 -159q52 -6 96 -6q162 0 162 107 q0 50 -20.5 77t-82.5 27z" />
<glyph unicode="&#x1e1c;" horiz-adv-x="978" d="M321 1874h239q0 -50 21.5 -77.5t62.5 -27.5q40 0 67.5 29t33.5 76h239q-5 -38 -18 -75t-40.5 -78t-66 -72t-100 -51.5t-137.5 -20.5q-68 0 -122.5 20.5t-87 51.5t-54 72t-29.5 78.5t-8 74.5zM232 -522l15 178q65 -10 110 -10q46 0 66 10t20 37t-33.5 37t-132.5 10l65 260 h-219l125 1434h733l-20 -222h-453l-31 -362h402l-21 -219h-401l-35 -410h452l-18 -221h-317l-30 -123q82 -10 122 -55.5t40 -116.5q0 -111 -70.5 -177t-214.5 -66q-80 0 -154 16z" />
<glyph unicode="&#x1e1d;" horiz-adv-x="991" d="M298 1462h240q0 -50 21.5 -77t62.5 -27q40 0 67 28.5t33 75.5h240q-5 -38 -18 -75t-40.5 -78t-66 -72t-100 -51.5t-137.5 -20.5q-68 0 -122.5 20.5t-87 51.5t-54.5 72t-30 78.5t-8 74.5zM271 -541l15 179q72 -11 110 -11q46 0 66 10.5t20 37.5t-33.5 37t-132.5 10l68 270 q-130 23 -196.5 114t-66.5 287q0 55 6 119q26 281 138.5 405.5t328.5 124.5q83 0 146.5 -20.5t100.5 -51.5t60 -73t31 -78.5t8 -73.5q0 -176 -93.5 -264t-309.5 -88q-93 0 -144 6v-16q0 -97 33.5 -132.5t122.5 -35.5q106 0 264 31l-20 -230q-86 -24 -214 -33l-31 -124 q82 -10 122 -55.5t40 -116.5q0 -111 -70.5 -177.5t-214.5 -66.5q-80 0 -154 16zM569 817q-61 0 -97.5 -46t-57.5 -159q52 -6 96 -6q162 0 162 107q0 50 -20.5 77t-82.5 27z" />
<glyph unicode="&#x1e1e;" horiz-adv-x="989" d="M804 1577h-293l21 235h292zM991 1212h-452l-33 -383h401l-20 -221h-402l-51 -608h-280l125 1434h733z" />
<glyph unicode="&#x1e1f;" horiz-adv-x="698" d="M757 1575h-293l21 235h293zM160 -37l71 830h-133l21 231h133l8 82q14 140 54 215.5t106 103t180 27.5q99 0 221 -25l-18 -231q-99 23 -172 23q-48 0 -70.5 -24.5t-25.5 -70.5l-9 -100h222l-21 -231h-221l-72 -820q-9 -101 -32 -166t-67.5 -102.5t-104 -52t-150.5 -14.5 q-80 0 -172 10l20 231q70 -8 127 -8q56 0 78.5 19t26.5 73z" />
<glyph unicode="&#x1e20;" horiz-adv-x="1044" d="M1048 1577h-605l21 223h604zM979 795l-68 -777q-200 -36 -354 -36q-110 0 -185 24t-130.5 83t-81 163t-25.5 260q0 122 10 227q11 129 30.5 229.5t46 176t65 129t81.5 88t102 54.5t121 28t144 8q124 0 256 -29l-20 -245q-134 28 -279 28q-54 0 -90 -11.5t-66 -40.5 t-49 -85t-33.5 -137.5t-25.5 -206.5q-12 -144 -12 -240q0 -104 16.5 -160t48.5 -77t90 -21q59 0 86 2l29 324h-131l20 242h404z" />
<glyph unicode="&#x1e21;" horiz-adv-x="1079" d="M974 1165h-604l20 224h604zM928 41q-21 -242 -120.5 -338t-313.5 -96q-124 0 -314 35l21 221q175 -35 262 -35q100 0 142 44t50 148l7 80q-106 -98 -250 -98q-152 0 -220.5 81.5t-68.5 274.5q0 195 31.5 327t100 211t166.5 112.5t241 33.5q152 0 350 -49zM504 236 q78 0 129.5 68t58.5 151l29 348q-50 6 -98 6q-39 0 -70 -9.5t-61 -37t-49.5 -73.5t-31.5 -123.5t-12 -182.5q0 -86 23.5 -116.5t81.5 -30.5z" />
<glyph unicode="&#x1e22;" horiz-adv-x="1167" d="M847 1577h-293l21 235h292zM1004 0h-281l51 608h-319l-52 -608h-280l125 1434h280l-53 -592h320l53 592h280z" />
<glyph unicode="&#x1e23;" horiz-adv-x="1073" d="M802 1556h-293l20 236h293zM385 0h-272l125 1434h272l-43 -486q104 94 244 94q152 0 215 -73.5t63 -235.5q0 -49 -6 -119l-53 -614h-273l54 621q4 36 4 67q0 69 -24 94t-77 25q-72 0 -121.5 -69t-56.5 -150z" />
<glyph unicode="&#x1e24;" horiz-adv-x="1167" d="M679 -358h-293l20 235h293zM1004 0h-281l51 608h-319l-52 -608h-280l125 1434h280l-53 -592h320l53 592h280z" />
<glyph unicode="&#x1e25;" horiz-adv-x="1073" d="M637 -358h-293l20 235h293zM385 0h-272l125 1434h272l-43 -486q104 94 244 94q152 0 215 -73.5t63 -235.5q0 -49 -6 -119l-53 -614h-273l54 621q4 36 4 67q0 69 -24 94t-77 25q-72 0 -121.5 -69t-56.5 -150z" />
<glyph unicode="&#x1e26;" horiz-adv-x="1167" d="M1037 1577h-266l23 235h266zM628 1577h-266l22 235h266zM1004 0h-281l51 608h-319l-52 -608h-280l125 1434h280l-53 -592h320l53 592h280z" />
<glyph unicode="&#x1e27;" horiz-adv-x="1073" d="M992 1556h-266l23 236h266zM583 1556h-267l23 236h266zM385 0h-272l125 1434h272l-43 -486q104 94 244 94q152 0 215 -73.5t63 -235.5q0 -49 -6 -119l-53 -614h-273l54 621q4 36 4 67q0 69 -24 94t-77 25q-72 0 -121.5 -69t-56.5 -150z" />
<glyph unicode="&#x1e28;" horiz-adv-x="1167" d="M208 -522l14 178q65 -10 111 -10t66 10t20 37t-33.5 37t-132.5 10l65 260h-195l125 1434h280l-53 -592h320l53 592h280l-124 -1434h-281l51 608h-319l-50 -589h114l-35 -142q82 -10 122 -55.5t40 -116.5q0 -111 -70.5 -177t-214.5 -66q-79 0 -153 16z" />
<glyph unicode="&#x1e29;" horiz-adv-x="1073" d="M166 -522l14 178q65 -10 111 -10t66 10t20 37t-33.5 37t-132.5 10l65 260h-163l125 1434h272l-43 -486q104 94 244 94q152 0 215 -73.5t63 -235.5q0 -49 -6 -119l-53 -614h-273l54 621q4 36 4 67q0 69 -24 94t-77 25q-71 0 -121 -68.5t-57 -150.5l-49 -569h90l-35 -142 q82 -10 122 -55.5t40 -116.5q0 -111 -70.5 -177t-214.5 -66q-79 0 -153 16z" />
<glyph unicode="&#x1e2a;" horiz-adv-x="1167" d="M221 -123h240q0 -50 21.5 -77t62.5 -27q40 0 67 28.5t33 75.5h240q-5 -38 -18 -75t-41 -78t-66.5 -72t-100 -51.5t-137.5 -20.5q-68 0 -122.5 20.5t-87 51.5t-54 72t-29.5 78.5t-8 74.5zM1004 0h-281l51 608h-319l-52 -608h-280l125 1434h280l-53 -592h320l53 592h280z " />
<glyph unicode="&#x1e2b;" horiz-adv-x="1073" d="M179 -123h240q0 -50 21.5 -77t62.5 -27q40 0 67 28.5t33 75.5h240q-5 -38 -18 -75t-41 -78t-66.5 -72t-100 -51.5t-137.5 -20.5q-68 0 -122.5 20.5t-87 51.5t-54 72t-29.5 78.5t-8 74.5zM385 0h-272l125 1434h272l-43 -486q104 94 244 94q152 0 215 -73.5t63 -235.5 q0 -49 -6 -119l-53 -614h-273l54 621q4 36 4 67q0 69 -24 94t-77 25q-72 0 -121.5 -69t-56.5 -150z" />
<glyph unicode="&#x1e2c;" horiz-adv-x="710" d="M-37 -403l18 215q84 65 201 65q50 0 150.5 -40t138.5 -40q100 0 190 74l-18 -215q-74 -66 -203 -66q-53 0 -149 40t-138 40q-51 0 -102.5 -21t-87.5 -52zM618 0h-567l19 217h143l86 1000h-143l20 217h567l-20 -217h-143l-86 -1000h143z" />
<glyph unicode="&#x1e2d;" horiz-adv-x="538" d="M-123 -403l18 215q84 65 201 65q50 0 150.5 -40t138.5 -40q100 0 190 74l-18 -215q-74 -66 -203 -66q-53 0 -149 40t-138 40q-51 0 -102.5 -21t-87.5 -52zM500 1198h-293l20 236h293zM385 0h-272l88 1024h272z" />
<glyph unicode="&#x1e2e;" horiz-adv-x="710" d="M602 1833h-228l228 276h335zM618 0h-567l19 217h143l86 1000h-143l20 217h567l-20 -217h-143l-86 -1000h143zM793 1475h-267l23 235h266zM383 1475h-266l22 235h267z" />
<glyph unicode="&#x1e2f;" horiz-adv-x="538" d="M495 1505h-227l227 277h336zM385 0h-272l88 1024h272zM686 1147h-266l22 235h267zM276 1147h-266l23 235h266z" />
<glyph unicode="&#x1e30;" horiz-adv-x="1120" d="M837 1577h-227l227 276h336zM1059 0h-324l-241 563l-48 -63l-43 -500h-280l125 1434h280l-43 -496l373 496h316l-484 -623z" />
<glyph unicode="&#x1e31;" horiz-adv-x="1013" d="M498 1556h-227l227 277h336zM963 0h-304l-194 418l-49 -60l-31 -358h-272l125 1434h272l-61 -703l262 293h319l-379 -412z" />
<glyph unicode="&#x1e32;" horiz-adv-x="1120" d="M707 -358h-293l20 235h293zM1059 0h-324l-241 563l-48 -63l-43 -500h-280l125 1434h280l-43 -496l373 496h316l-484 -623z" />
<glyph unicode="&#x1e33;" horiz-adv-x="1013" d="M653 -358h-293l21 235h293zM963 0h-304l-194 418l-49 -60l-31 -358h-272l125 1434h272l-61 -703l262 293h319l-379 -412z" />
<glyph unicode="&#x1e34;" horiz-adv-x="1120" d="M863 -346h-604l20 223h604zM1059 0h-324l-241 563l-48 -63l-43 -500h-280l125 1434h280l-43 -496l373 496h316l-484 -623z" />
<glyph unicode="&#x1e35;" horiz-adv-x="1013" d="M809 -346h-604l21 223h604zM963 0h-304l-194 418l-49 -60l-31 -358h-272l125 1434h272l-61 -703l262 293h319l-379 -412z" />
<glyph unicode="&#x1e36;" horiz-adv-x="860" d="M587 -358h-293l20 235h293zM819 0h-696l125 1434h280l-104 -1196h416z" />
<glyph unicode="&#x1e37;" horiz-adv-x="593" d="M449 -369h-292l20 236h293zM541 233l-19 -227q-77 -16 -188 -16q-113 0 -157 51t-44 166q0 26 4 96l101 1131h272l-94 -1074q-6 -62 -6 -75q0 -33 12.5 -46.5t44.5 -13.5q34 0 74 8z" />
<glyph unicode="&#x1e38;" horiz-adv-x="860" d="M702 1577h-604l20 223h605zM587 -358h-293l20 235h293zM819 0h-696l125 1434h280l-104 -1196h416z" />
<glyph unicode="&#x1e39;" horiz-adv-x="593" d="M686 1556h-604l20 224h604zM449 -369h-292l20 236h293zM541 233l-19 -227q-77 -16 -188 -16q-113 0 -157 51t-44 166q0 26 4 96l101 1131h272l-94 -1074q-6 -62 -6 -75q0 -33 12.5 -46.5t44.5 -13.5q34 0 74 8z" />
<glyph unicode="&#x1e3a;" horiz-adv-x="860" d="M743 -346h-604l20 223h604zM819 0h-696l125 1434h280l-104 -1196h416z" />
<glyph unicode="&#x1e3b;" horiz-adv-x="593" d="M606 -356h-605l21 223h604zM541 233l-19 -227q-77 -16 -188 -16q-113 0 -157 51t-44 166q0 26 4 96l101 1131h272l-94 -1074q-6 -62 -6 -75q0 -33 12.5 -46.5t44.5 -13.5q34 0 74 8z" />
<glyph unicode="&#x1e3c;" horiz-adv-x="860" d="M839 -399h-295l-88 151l-116 -151h-306l275 276h303zM819 0h-696l125 1434h280l-104 -1196h416z" />
<glyph unicode="&#x1e3d;" horiz-adv-x="593" d="M702 -410h-295l-88 152l-117 -152h-305l275 277h303zM541 233l-19 -227q-77 -16 -188 -16q-113 0 -157 51t-44 166q0 26 4 96l101 1131h272l-94 -1074q-6 -62 -6 -75q0 -33 12.5 -46.5t44.5 -13.5q34 0 74 8z" />
<glyph unicode="&#x1e3e;" horiz-adv-x="1363" d="M913 1577h-228l228 276h335zM1200 0h-254l107 1227l-242 -746h-213l-119 746l-106 -1227h-250l125 1434h420l71 -551l172 551h414z" />
<glyph unicode="&#x1e3f;" horiz-adv-x="1536" d="M1066 1165h-227l227 277h336zM385 0h-272l88 1024h221l10 -104q107 122 258 122q92 0 148 -28t82 -90q111 118 274 118q140 0 199 -68.5t59 -228.5q0 -69 -6 -131l-53 -614h-273l54 621q4 46 4 81q0 58 -18 81.5t-62 23.5q-63 0 -107 -65.5t-51 -145.5l-51 -596h-273 l54 621q4 46 4 81q0 58 -18 81.5t-62 23.5q-37 0 -67.5 -25.5t-49.5 -66t-30.5 -82.5t-14.5 -82z" />
<glyph unicode="&#x1e40;" horiz-adv-x="1363" d="M945 1577h-293l21 235h293zM1200 0h-254l107 1227l-242 -746h-213l-119 746l-106 -1227h-250l125 1434h420l71 -551l172 551h414z" />
<glyph unicode="&#x1e41;" horiz-adv-x="1536" d="M1099 1165h-293l21 236h293zM385 0h-272l88 1024h221l10 -104q107 122 258 122q92 0 148 -28t82 -90q111 118 274 118q140 0 199 -68.5t59 -228.5q0 -69 -6 -131l-53 -614h-273l54 621q4 46 4 81q0 58 -18 81.5t-62 23.5q-63 0 -107 -65.5t-51 -145.5l-51 -596h-273 l54 621q4 46 4 81q0 58 -18 81.5t-62 23.5q-37 0 -67.5 -25.5t-49.5 -66t-30.5 -82.5t-14.5 -82z" />
<glyph unicode="&#x1e42;" horiz-adv-x="1363" d="M777 -358h-293l21 235h293zM1200 0h-254l107 1227l-242 -746h-213l-119 746l-106 -1227h-250l125 1434h420l71 -551l172 551h414z" />
<glyph unicode="&#x1e43;" horiz-adv-x="1536" d="M868 -358h-293l21 235h293zM385 0h-272l88 1024h221l10 -104q107 122 258 122q92 0 148 -28t82 -90q111 118 274 118q140 0 199 -68.5t59 -228.5q0 -69 -6 -131l-53 -614h-273l54 621q4 46 4 81q0 58 -18 81.5t-62 23.5q-63 0 -107 -65.5t-51 -145.5l-51 -596h-273 l54 621q4 46 4 81q0 58 -18 81.5t-62 23.5q-37 0 -67.5 -25.5t-49.5 -66t-30.5 -82.5t-14.5 -82z" />
<glyph unicode="&#x1e44;" horiz-adv-x="1212" d="M869 1577h-292l20 235h293zM1049 0h-408l-170 1151l-100 -1151h-248l125 1434h407l172 -1174l103 1174h244z" />
<glyph unicode="&#x1e45;" horiz-adv-x="1073" d="M768 1165h-293l21 236h293zM385 0h-272l88 1024h221l10 -109q114 127 279 127q152 0 215 -73.5t63 -235.5q0 -43 -6 -119l-53 -614h-273l54 608q4 40 4 80q0 69 -24 94t-77 25q-42 0 -76.5 -26t-56 -66t-34 -82t-15.5 -82z" />
<glyph unicode="&#x1e46;" horiz-adv-x="1212" d="M701 -358h-292l20 235h293zM1049 0h-408l-170 1151l-100 -1151h-248l125 1434h407l172 -1174l103 1174h244z" />
<glyph unicode="&#x1e47;" horiz-adv-x="1073" d="M637 -358h-293l20 235h293zM385 0h-272l88 1024h221l10 -109q114 127 279 127q152 0 215 -73.5t63 -235.5q0 -43 -6 -119l-53 -614h-273l54 608q4 40 4 80q0 69 -24 94t-77 25q-42 0 -76.5 -26t-56 -66t-34 -82t-15.5 -82z" />
<glyph unicode="&#x1e48;" horiz-adv-x="1212" d="M858 -346h-605l21 223h604zM1049 0h-408l-170 1151l-100 -1151h-248l125 1434h407l172 -1174l103 1174h244z" />
<glyph unicode="&#x1e49;" horiz-adv-x="1073" d="M793 -346h-604l20 223h605zM385 0h-272l88 1024h221l10 -109q114 127 279 127q152 0 215 -73.5t63 -235.5q0 -43 -6 -119l-53 -614h-273l54 608q4 40 4 80q0 69 -24 94t-77 25q-42 0 -76.5 -26t-56 -66t-34 -82t-15.5 -82z" />
<glyph unicode="&#x1e4a;" horiz-adv-x="1212" d="M954 -399h-295l-88 151l-117 -151h-305l275 276h303zM1049 0h-408l-170 1151l-100 -1151h-248l125 1434h407l172 -1174l103 1174h244z" />
<glyph unicode="&#x1e4b;" horiz-adv-x="1073" d="M889 -399h-294l-89 151l-116 -151h-305l274 276h303zM385 0h-272l88 1024h221l10 -109q114 127 279 127q152 0 215 -73.5t63 -235.5q0 -43 -6 -119l-53 -614h-273l54 608q4 40 4 80q0 69 -24 94t-77 25q-42 0 -76.5 -26t-56 -66t-34 -82t-15.5 -82z" />
<glyph unicode="&#x1e4c;" horiz-adv-x="1163" d="M690 1884h-228l228 277h336zM817 723q12 144 12 238q0 158 -36.5 215t-124.5 57q-76 0 -119.5 -40t-72.5 -150t-48 -320q-12 -138 -12 -236q0 -162 37.5 -224t124.5 -62q75 0 119.5 44.5t73 157t46.5 320.5zM1104 733q-9 -102 -19 -177t-25.5 -152t-35.5 -130.5 t-49.5 -104.5t-68 -83.5t-89 -58t-114.5 -36.5t-144 -11q-121 0 -203.5 31.5t-131.5 98t-70 160t-21 226.5q0 108 12 237q9 110 21 192t32 160.5t47.5 133.5t67.5 102t93.5 74.5t123.5 43t158 15.5q233 0 329.5 -125t96.5 -391q0 -82 -10 -205zM346 1481l19 215 q84 65 200 65q50 0 150.5 -40t138.5 -40q100 0 190 74l-18 -215q-73 -65 -203 -65q-53 0 -148.5 39.5t-137.5 39.5q-51 0 -103 -21t-88 -52z" />
<glyph unicode="&#x1e4d;" d="M632 1597h-227l227 277h336zM1018 625q0 -27 -4 -93q-11 -129 -35.5 -222t-62.5 -156t-96 -100t-128.5 -52.5t-167.5 -15.5q-100 0 -170.5 20t-123 68t-78 132.5t-25.5 207.5q0 326 114 475t375 149q202 0 302 -100.5t100 -312.5zM733 502q6 64 6 112q0 112 -33.5 157.5 t-109.5 45.5q-92 0 -131.5 -67t-54.5 -248q-7 -79 -7 -117q0 -100 31.5 -139t108.5 -39q95 0 135 62t55 233zM289 1194l18 215q85 66 201 66q50 0 150.5 -40t138.5 -40q101 0 190 73l-18 -215q-73 -65 -203 -65q-53 0 -149 40t-138 40q-51 0 -102.5 -21t-87.5 -53z" />
<glyph unicode="&#x1e4e;" horiz-adv-x="1163" d="M913 1884h-266l22 236h266zM503 1884h-266l22 236h267zM817 723q12 144 12 238q0 158 -36.5 215t-124.5 57q-76 0 -119.5 -40t-72.5 -150t-48 -320q-12 -138 -12 -236q0 -162 37.5 -224t124.5 -62q75 0 119.5 44.5t73 157t46.5 320.5zM1104 733q-9 -102 -19 -177 t-25.5 -152t-35.5 -130.5t-49.5 -104.5t-68 -83.5t-89 -58t-114.5 -36.5t-144 -11q-121 0 -203.5 31.5t-131.5 98t-70 160t-21 226.5q0 108 12 237q9 110 21 192t32 160.5t47.5 133.5t67.5 102t93.5 74.5t123.5 43t158 15.5q233 0 329.5 -125t96.5 -391q0 -82 -10 -205z M346 1481l19 215q84 65 200 65q50 0 150.5 -40t138.5 -40q100 0 190 74l-18 -215q-73 -65 -203 -65q-53 0 -148.5 39.5t-137.5 39.5q-51 0 -103 -21t-88 -52z" />
<glyph unicode="&#x1e4f;" d="M855 1597h-266l23 236h266zM446 1597h-266l22 236h266zM1018 625q0 -27 -4 -93q-11 -129 -35.5 -222t-62.5 -156t-96 -100t-128.5 -52.5t-167.5 -15.5q-100 0 -170.5 20t-123 68t-78 132.5t-25.5 207.5q0 326 114 475t375 149q202 0 302 -100.5t100 -312.5zM733 502 q6 64 6 112q0 112 -33.5 157.5t-109.5 45.5q-92 0 -131.5 -67t-54.5 -248q-7 -79 -7 -117q0 -100 31.5 -139t108.5 -39q95 0 135 62t55 233zM289 1194l18 215q85 66 201 66q50 0 150.5 -40t138.5 -40q101 0 190 73l-18 -215q-73 -65 -203 -65q-53 0 -149 40t-138 40 q-51 0 -102.5 -21t-87.5 -53z" />
<glyph unicode="&#x1e50;" horiz-adv-x="1163" d="M838 1923h-217l-297 277h326zM1000 1577h-604l21 223h604zM817 723q12 144 12 238q0 158 -36.5 215t-124.5 57q-76 0 -119.5 -40t-72.5 -150t-48 -320q-12 -138 -12 -236q0 -162 37.5 -224t124.5 -62q75 0 119.5 44.5t73 157t46.5 320.5zM1104 733q-9 -102 -19 -177 t-25.5 -152t-35.5 -130.5t-49.5 -104.5t-68 -83.5t-89 -58t-114.5 -36.5t-144 -11q-121 0 -203.5 31.5t-131.5 98t-70 160t-21 226.5q0 108 12 237q9 110 21 192t32 160.5t47.5 133.5t67.5 102t93.5 74.5t123.5 43t158 15.5q233 0 329.5 -125t96.5 -391q0 -82 -10 -205z" />
<glyph unicode="&#x1e51;" d="M766 1507h-217l-297 277h326zM929 1161h-605l21 223h604zM1018 625q0 -27 -4 -93q-11 -129 -35.5 -222t-62.5 -156t-96 -100t-128.5 -52.5t-167.5 -15.5q-100 0 -170.5 20t-123 68t-78 132.5t-25.5 207.5q0 326 114 475t375 149q202 0 302 -100.5t100 -312.5zM733 502 q6 64 6 112q0 112 -33.5 157.5t-109.5 45.5q-92 0 -131.5 -67t-54.5 -248q-7 -79 -7 -117q0 -100 31.5 -139t108.5 -39q95 0 135 62t55 233z" />
<glyph unicode="&#x1e52;" horiz-adv-x="1163" d="M843 1923h-227l227 277h336zM1000 1577h-604l21 223h604zM817 723q12 144 12 238q0 158 -36.5 215t-124.5 57q-76 0 -119.5 -40t-72.5 -150t-48 -320q-12 -138 -12 -236q0 -162 37.5 -224t124.5 -62q75 0 119.5 44.5t73 157t46.5 320.5zM1104 733q-9 -102 -19 -177 t-25.5 -152t-35.5 -130.5t-49.5 -104.5t-68 -83.5t-89 -58t-114.5 -36.5t-144 -11q-121 0 -203.5 31.5t-131.5 98t-70 160t-21 226.5q0 108 12 237q9 110 21 192t32 160.5t47.5 133.5t67.5 102t93.5 74.5t123.5 43t158 15.5q233 0 329.5 -125t96.5 -391q0 -82 -10 -205z" />
<glyph unicode="&#x1e53;" d="M771 1507h-227l227 277h336zM929 1161h-605l21 223h604zM1018 625q0 -27 -4 -93q-11 -129 -35.5 -222t-62.5 -156t-96 -100t-128.5 -52.5t-167.5 -15.5q-100 0 -170.5 20t-123 68t-78 132.5t-25.5 207.5q0 326 114 475t375 149q202 0 302 -100.5t100 -312.5zM733 502 q6 64 6 112q0 112 -33.5 157.5t-109.5 45.5q-92 0 -131.5 -67t-54.5 -248q-7 -79 -7 -117q0 -100 31.5 -139t108.5 -39q95 0 135 62t55 233z" />
<glyph unicode="&#x1e54;" horiz-adv-x="1064" d="M751 1577h-227l227 276h336zM772 963q2 23 2 63q0 93 -30 137.5t-103 44.5q-39 0 -72.5 -3t-46.5 -6l-14 -3l-41 -461h129q72 0 119.5 62t56.5 166zM1057 977q-23 -266 -137.5 -374.5t-356.5 -108.5h-117l-43 -494h-280l125 1434q209 20 379 20q231 0 332.5 -98.5 t101.5 -294.5q0 -26 -4 -84z" />
<glyph unicode="&#x1e55;" horiz-adv-x="1062" d="M835 1165h-227l227 277h336zM354 -348h-272l119 1372h221l10 -113q115 131 279 131q282 0 282 -362q0 -70 -6 -123q-15 -164 -49.5 -272.5t-98 -177t-154.5 -97t-224 -28.5q-55 0 -78 2zM618 809q-39 0 -72 -21t-54.5 -56t-36 -72.5t-21.5 -77.5l-31 -363q66 -4 97 -4 q38 0 69.5 11.5t60 41.5t47.5 78t30.5 124.5t11.5 176.5q0 92 -24.5 127t-76.5 35z" />
<glyph unicode="&#x1e56;" horiz-adv-x="1064" d="M784 1577h-293l20 235h293zM772 963q2 23 2 63q0 93 -30 137.5t-103 44.5q-39 0 -72.5 -3t-46.5 -6l-14 -3l-41 -461h129q72 0 119.5 62t56.5 166zM1057 977q-23 -266 -137.5 -374.5t-356.5 -108.5h-117l-43 -494h-280l125 1434q209 20 379 20q231 0 332.5 -98.5 t101.5 -294.5q0 -26 -4 -84z" />
<glyph unicode="&#x1e57;" horiz-adv-x="1062" d="M868 1165h-293l20 236h293zM354 -348h-272l119 1372h221l10 -113q115 131 279 131q282 0 282 -362q0 -70 -6 -123q-15 -164 -49.5 -272.5t-98 -177t-154.5 -97t-224 -28.5q-55 0 -78 2zM618 809q-39 0 -72 -21t-54.5 -56t-36 -72.5t-21.5 -77.5l-31 -363q66 -4 97 -4 q38 0 69.5 11.5t60 41.5t47.5 78t30.5 124.5t11.5 176.5q0 92 -24.5 127t-76.5 35z" />
<glyph unicode="&#x1e58;" horiz-adv-x="1091" d="M784 1577h-293l20 235h293zM1044 999q-15 -169 -71.5 -269.5t-155.5 -145.5l203 -584h-309l-168 541h-92l-48 -541h-280l125 1434q209 20 379 20q223 0 322.5 -91t99.5 -282q0 -9 -5 -82zM760 985q2 25 2 68q0 85 -28.5 120t-100.5 35q-27 0 -58.5 -3t-48.5 -6l-18 -3 l-37 -414h129q65 0 108 52.5t52 150.5z" />
<glyph unicode="&#x1e59;" horiz-adv-x="722" d="M634 1165h-292l20 236h293zM385 0h-272l88 1024h221l12 -129q93 147 228 147q50 0 90 -8l-25 -282q-46 12 -88 12q-87 0 -144.5 -77.5t-68.5 -203.5z" />
<glyph unicode="&#x1e5a;" horiz-adv-x="1091" d="M687 -358h-293l21 235h293zM1044 999q-15 -169 -71.5 -269.5t-155.5 -145.5l203 -584h-309l-168 541h-92l-48 -541h-280l125 1434q209 20 379 20q223 0 322.5 -91t99.5 -282q0 -9 -5 -82zM760 985q2 25 2 68q0 85 -28.5 120t-100.5 35q-27 0 -58.5 -3t-48.5 -6l-18 -3 l-37 -414h129q65 0 108 52.5t52 150.5z" />
<glyph unicode="&#x1e5b;" horiz-adv-x="722" d="M364 -358h-292l20 235h293zM385 0h-272l88 1024h221l12 -129q93 147 228 147q50 0 90 -8l-25 -282q-46 12 -88 12q-87 0 -144.5 -77.5t-68.5 -203.5z" />
<glyph unicode="&#x1e5c;" horiz-adv-x="1091" d="M939 1577h-604l20 223h604zM687 -358h-293l21 235h293zM1044 999q-15 -169 -71.5 -269.5t-155.5 -145.5l203 -584h-309l-168 541h-92l-48 -541h-280l125 1434q209 20 379 20q223 0 322.5 -91t99.5 -282q0 -9 -5 -82zM760 985q2 25 2 68q0 85 -28.5 120t-100.5 35 q-27 0 -58.5 -3t-48.5 -6l-18 -3l-37 -414h129q65 0 108 52.5t52 150.5z" />
<glyph unicode="&#x1e5d;" horiz-adv-x="722" d="M974 1165h-604l20 224h604zM364 -358h-292l20 235h293zM385 0h-272l88 1024h221l12 -129q93 147 228 147q50 0 90 -8l-25 -282q-46 12 -88 12q-87 0 -144.5 -77.5t-68.5 -203.5z" />
<glyph unicode="&#x1e5e;" horiz-adv-x="1091" d="M843 -346h-604l21 223h604zM1044 999q-15 -169 -71.5 -269.5t-155.5 -145.5l203 -584h-309l-168 541h-92l-48 -541h-280l125 1434q209 20 379 20q223 0 322.5 -91t99.5 -282q0 -9 -5 -82zM760 985q2 25 2 68q0 85 -28.5 120t-100.5 35q-27 0 -58.5 -3t-48.5 -6l-18 -3 l-37 -414h129q65 0 108 52.5t52 150.5z" />
<glyph unicode="&#x1e5f;" horiz-adv-x="722" d="M521 -346h-604l20 223h604zM385 0h-272l88 1024h221l12 -129q93 147 228 147q50 0 90 -8l-25 -282q-46 12 -88 12q-87 0 -144.5 -77.5t-68.5 -203.5z" />
<glyph unicode="&#x1e60;" horiz-adv-x="868" d="M797 1577h-293l20 235h293zM848 516q0 -22 -4 -72q-11 -115 -40 -197.5t-71 -133t-106 -79t-132 -38.5t-163 -10q-70 0 -155 8.5t-134 21.5l23 244q47 -12 128.5 -22.5t137.5 -10.5q227 0 227 234q0 79 -37 113t-121 55q-148 36 -215 120.5t-67 217.5q0 250 124.5 365.5 t395.5 115.5q58 0 136 -8.5t120 -20.5l-21 -243q-108 30 -272 30q-99 0 -147.5 -50.5t-48.5 -158.5q0 -58 30.5 -84t116.5 -45q143 -33 219 -115t76 -237z" />
<glyph unicode="&#x1e61;" horiz-adv-x="870" d="M735 1165h-293l20 236h293zM797 358q0 -109 -32 -184.5t-94 -116.5t-138 -58t-179 -17q-152 0 -278 32l20 232q155 -35 242 -35t131.5 23.5t44.5 84.5q0 38 -26 58t-95 33q-262 52 -262 272q0 193 109.5 276.5t337.5 83.5q120 0 243 -30l-20 -234q-119 35 -242 35 q-79 0 -113 -22.5t-34 -73.5q0 -31 28 -46t97 -30q142 -31 201 -102t59 -181z" />
<glyph unicode="&#x1e62;" horiz-adv-x="868" d="M447 -373h-292l20 236h293zM848 516q0 -22 -4 -72q-11 -115 -40 -197.5t-71 -133t-106 -79t-132 -38.5t-163 -10q-70 0 -155 8.5t-134 21.5l23 244q47 -12 128.5 -22.5t137.5 -10.5q227 0 227 234q0 79 -37 113t-121 55q-148 36 -215 120.5t-67 217.5q0 250 124.5 365.5 t395.5 115.5q58 0 136 -8.5t120 -20.5l-21 -243q-108 30 -272 30q-99 0 -147.5 -50.5t-48.5 -158.5q0 -58 30.5 -84t116.5 -45q143 -33 219 -115t76 -237z" />
<glyph unicode="&#x1e63;" horiz-adv-x="870" d="M470 -377h-293l21 236h292zM797 358q0 -109 -32 -184.5t-94 -116.5t-138 -58t-179 -17q-152 0 -278 32l20 232q155 -35 242 -35t131.5 23.5t44.5 84.5q0 38 -26 58t-95 33q-262 52 -262 272q0 193 109.5 276.5t337.5 83.5q120 0 243 -30l-20 -234q-119 35 -242 35 q-79 0 -113 -22.5t-34 -73.5q0 -31 28 -46t97 -30q142 -31 201 -102t59 -181z" />
<glyph unicode="&#x1e64;" horiz-adv-x="868" d="M1089 1976h-293l21 236h292zM764 1577h-227l227 276h336zM848 516q0 -22 -4 -72q-11 -115 -40 -197.5t-71 -133t-106 -79t-132 -38.5t-163 -10q-70 0 -155 8.5t-134 21.5l23 244q47 -12 128.5 -22.5t137.5 -10.5q227 0 227 234q0 79 -37 113t-121 55q-148 36 -215 120.5 t-67 217.5q0 250 124.5 365.5t395.5 115.5q58 0 136 -8.5t120 -20.5l-21 -243q-108 30 -272 30q-99 0 -147.5 -50.5t-48.5 -158.5q0 -58 30.5 -84t116.5 -45q143 -33 219 -115t76 -237z" />
<glyph unicode="&#x1e65;" horiz-adv-x="870" d="M1027 1565h-293l21 235h292zM702 1165h-227l227 277h336zM797 358q0 -109 -32 -184.5t-94 -116.5t-138 -58t-179 -17q-152 0 -278 32l20 232q155 -35 242 -35t131.5 23.5t44.5 84.5q0 38 -26 58t-95 33q-262 52 -262 272q0 193 109.5 276.5t337.5 83.5q120 0 243 -30 l-20 -234q-119 35 -242 35q-79 0 -113 -22.5t-34 -73.5q0 -31 28 -46t97 -30q142 -31 201 -102t59 -181z" />
<glyph unicode="&#x1e66;" horiz-adv-x="868" d="M744 1853h-293l20 236h293zM205 1731h301l72 -125l92 125h299l-246 -236h-311zM848 516q0 -22 -4 -72q-11 -115 -40 -197.5t-71 -133t-106 -79t-132 -38.5t-163 -10q-70 0 -155 8.5t-134 21.5l23 244q47 -12 128.5 -22.5t137.5 -10.5q227 0 227 234q0 79 -37 113t-121 55 q-148 36 -215 120.5t-67 217.5q0 250 124.5 365.5t395.5 115.5q58 0 136 -8.5t120 -20.5l-21 -243q-108 30 -272 30q-99 0 -147.5 -50.5t-48.5 -158.5q0 -58 30.5 -84t116.5 -45q143 -33 219 -115t76 -237z" />
<glyph unicode="&#x1e67;" horiz-adv-x="870" d="M725 1589h-292l20 236h293zM797 358q0 -109 -32 -184.5t-94 -116.5t-138 -58t-179 -17q-152 0 -278 32l20 232q155 -35 242 -35t131.5 23.5t44.5 84.5q0 38 -26 58t-95 33q-262 52 -262 272q0 193 109.5 276.5t337.5 83.5q120 0 243 -30l-20 -234q-119 35 -242 35 q-79 0 -113 -22.5t-34 -73.5q0 -31 28 -46t97 -30q142 -31 201 -102t59 -181zM166 1466h295l90 -151l115 151h305l-275 -276h-303z" />
<glyph unicode="&#x1e68;" horiz-adv-x="868" d="M797 1577h-293l20 235h293zM447 -373h-292l20 236h293zM848 516q0 -22 -4 -72q-11 -115 -40 -197.5t-71 -133t-106 -79t-132 -38.5t-163 -10q-70 0 -155 8.5t-134 21.5l23 244q47 -12 128.5 -22.5t137.5 -10.5q227 0 227 234q0 79 -37 113t-121 55q-148 36 -215 120.5 t-67 217.5q0 250 124.5 365.5t395.5 115.5q58 0 136 -8.5t120 -20.5l-21 -243q-108 30 -272 30q-99 0 -147.5 -50.5t-48.5 -158.5q0 -58 30.5 -84t116.5 -45q143 -33 219 -115t76 -237z" />
<glyph unicode="&#x1e69;" horiz-adv-x="870" d="M735 1165h-293l20 236h293zM470 -377h-293l21 236h292zM797 358q0 -109 -32 -184.5t-94 -116.5t-138 -58t-179 -17q-152 0 -278 32l20 232q155 -35 242 -35t131.5 23.5t44.5 84.5q0 38 -26 58t-95 33q-262 52 -262 272q0 193 109.5 276.5t337.5 83.5q120 0 243 -30 l-20 -234q-119 35 -242 35q-79 0 -113 -22.5t-34 -73.5q0 -31 28 -46t97 -30q142 -31 201 -102t59 -181z" />
<glyph unicode="&#x1e6a;" horiz-adv-x="911" d="M719 1577h-293l21 235h292zM973 1186h-295l-103 -1186h-280l102 1186h-295l23 248h870z" />
<glyph unicode="&#x1e6b;" horiz-adv-x="712" d="M557 1393h-292l20 235h293zM698 788h-204l-37 -440q-1 -16 -2 -29.5t-1.5 -20.5t-0.5 -9q0 -39 18 -56.5t59 -17.5q59 0 129 18l-18 -227q-25 -7 -95.5 -15.5t-121.5 -8.5q-140 0 -194 60.5t-54 186.5q0 26 4 88l41 471h-133l21 236h133l22 246h273l-23 -246h205z" />
<glyph unicode="&#x1e6c;" horiz-adv-x="911" d="M551 -358h-293l20 235h293zM973 1186h-295l-103 -1186h-280l102 1186h-295l23 248h870z" />
<glyph unicode="&#x1e6d;" horiz-adv-x="712" d="M540 -377h-293l20 236h293zM698 788h-204l-37 -440q-1 -16 -2 -29.5t-1.5 -20.5t-0.5 -9q0 -39 18 -56.5t59 -17.5q59 0 129 18l-18 -227q-25 -7 -95.5 -15.5t-121.5 -8.5q-140 0 -194 60.5t-54 186.5q0 26 4 88l41 471h-133l21 236h133l22 246h273l-23 -246h205z" />
<glyph unicode="&#x1e6e;" horiz-adv-x="911" d="M707 -346h-604l20 223h605zM973 1186h-295l-103 -1186h-280l102 1186h-295l23 248h870z" />
<glyph unicode="&#x1e6f;" horiz-adv-x="712" d="M696 -365h-604l20 224h604zM698 788h-204l-37 -440q-1 -16 -2 -29.5t-1.5 -20.5t-0.5 -9q0 -39 18 -56.5t59 -17.5q59 0 129 18l-18 -227q-25 -7 -95.5 -15.5t-121.5 -8.5q-140 0 -194 60.5t-54 186.5q0 26 4 88l41 471h-133l21 236h133l22 246h273l-23 -246h205z" />
<glyph unicode="&#x1e70;" horiz-adv-x="911" d="M803 -399h-294l-89 151l-116 -151h-305l274 276h303zM973 1186h-295l-103 -1186h-280l102 1186h-295l23 248h870z" />
<glyph unicode="&#x1e71;" horiz-adv-x="712" d="M792 -418h-295l-88 152l-117 -152h-305l275 277h303zM698 788h-204l-37 -440q-1 -16 -2 -29.5t-1.5 -20.5t-0.5 -9q0 -39 18 -56.5t59 -17.5q59 0 129 18l-18 -227q-25 -7 -95.5 -15.5t-121.5 -8.5q-140 0 -194 60.5t-54 186.5q0 26 4 88l41 471h-133l21 236h133l22 246 h273l-23 -246h205z" />
<glyph unicode="&#x1e72;" horiz-adv-x="1136" d="M853 -373h-266l22 236h266zM443 -373h-266l23 236h266zM1108 1434l-88 -994q-23 -250 -133.5 -352t-339.5 -102q-402 0 -402 383q0 9 5 71l88 994h280l-88 -1002q-4 -58 -4 -61q0 -144 141 -144q155 0 170 174l90 1033h281z" />
<glyph unicode="&#x1e73;" horiz-adv-x="1060" d="M712 -377h-267l23 236h266zM302 -377h-266l22 236h267zM190 1024h273l-51 -600q-1 -18 -3.5 -51t-2.5 -41q0 -67 22.5 -91t73.5 -24q41 0 74.5 25.5t53.5 66t31.5 82.5t14.5 82l47 551h272l-88 -1024h-221l-10 102q-110 -120 -270 -120q-150 0 -212.5 75.5t-62.5 237.5 q0 26 4 100z" />
<glyph unicode="&#x1e74;" horiz-adv-x="1136" d="M175 -418l18 215q85 66 201 66q50 0 150.5 -40t138.5 -40q100 0 190 74l-18 -215q-74 -66 -203 -66q-53 0 -149 40t-138 40q-51 0 -102.5 -21t-87.5 -53zM1108 1434l-88 -994q-23 -250 -133.5 -352t-339.5 -102q-402 0 -402 383q0 9 5 71l88 994h280l-88 -1002 q-4 -58 -4 -61q0 -144 141 -144q155 0 170 174l90 1033h281z" />
<glyph unicode="&#x1e75;" horiz-adv-x="1060" d="M34 -422l18 215q85 66 201 66q50 0 150 -40t138 -40q101 0 191 74l-18 -215q-74 -66 -203 -66q-53 0 -149 40t-138 40q-51 0 -102.5 -21t-87.5 -53zM190 1024h273l-51 -600q-1 -18 -3.5 -51t-2.5 -41q0 -67 22.5 -91t73.5 -24q41 0 74.5 25.5t53.5 66t31.5 82.5t14.5 82 l47 551h272l-88 -1024h-221l-10 102q-110 -120 -270 -120q-150 0 -212.5 75.5t-62.5 237.5q0 26 4 100z" />
<glyph unicode="&#x1e76;" horiz-adv-x="1136" d="M915 -414h-295l-88 152l-117 -152h-305l275 277h303zM1108 1434l-88 -994q-23 -250 -133.5 -352t-339.5 -102q-402 0 -402 383q0 9 5 71l88 994h280l-88 -1002q-4 -58 -4 -61q0 -144 141 -144q155 0 170 174l90 1033h281z" />
<glyph unicode="&#x1e77;" horiz-adv-x="1060" d="M774 -418h-295l-88 152l-117 -152h-305l274 277h303zM190 1024h273l-51 -600q-1 -18 -3.5 -51t-2.5 -41q0 -67 22.5 -91t73.5 -24q41 0 74.5 25.5t53.5 66t31.5 82.5t14.5 82l47 551h272l-88 -1024h-221l-10 102q-110 -120 -270 -120q-150 0 -212.5 75.5t-62.5 237.5 q0 26 4 100z" />
<glyph unicode="&#x1e78;" horiz-adv-x="1136" d="M692 1987h-227l227 276h336zM348 1583l19 215q85 66 201 66q50 0 150 -40t138 -40q101 0 191 74l-19 -216q-73 -65 -202 -65q-53 0 -149 40t-138 40q-51 0 -103 -21.5t-88 -52.5zM1108 1434l-88 -994q-23 -250 -133.5 -352t-339.5 -102q-402 0 -402 383q0 9 5 71l88 994 h280l-88 -1002q-4 -58 -4 -61q0 -144 141 -144q155 0 170 174l90 1033h281z" />
<glyph unicode="&#x1e79;" horiz-adv-x="1060" d="M612 1571h-228l228 276h335zM268 1167l18 215q85 66 201 66q50 0 150.5 -40t138.5 -40q100 0 190 74l-18 -215q-74 -66 -203 -66q-53 0 -149 40t-138 40q-51 0 -102.5 -21t-87.5 -53zM190 1024h273l-51 -600q-1 -18 -3.5 -51t-2.5 -41q0 -67 22.5 -91t73.5 -24 q41 0 74.5 25.5t53.5 66t31.5 82.5t14.5 82l47 551h272l-88 -1024h-221l-10 102q-110 -120 -270 -120q-150 0 -212.5 75.5t-62.5 237.5q0 26 4 100z" />
<glyph unicode="&#x1e7a;" horiz-adv-x="1136" d="M1053 1923h-267l23 236h266zM643 1923h-266l22 236h267zM987 1577h-604l20 223h604zM1108 1434l-88 -994q-23 -250 -133.5 -352t-339.5 -102q-402 0 -402 383q0 9 5 71l88 994h280l-88 -1002q-4 -58 -4 -61q0 -144 141 -144q155 0 170 174l90 1033h281z" />
<glyph unicode="&#x1e7b;" horiz-adv-x="1060" d="M972 1507h-266l23 236h266zM563 1507h-267l23 236h266zM906 1161h-604l21 223h604zM190 1024h273l-51 -600q-1 -18 -3.5 -51t-2.5 -41q0 -67 22.5 -91t73.5 -24q41 0 74.5 25.5t53.5 66t31.5 82.5t14.5 82l47 551h272l-88 -1024h-221l-10 102q-110 -120 -270 -120 q-150 0 -212.5 75.5t-62.5 237.5q0 26 4 100z" />
<glyph unicode="&#x1e7c;" horiz-adv-x="1110" d="M335 1583l19 215q85 66 200 66q50 0 150.5 -40t138.5 -40q100 0 190 74l-18 -216q-73 -65 -203 -65q-53 0 -148.5 40t-137.5 40q-51 0 -103 -21.5t-88 -52.5zM1163 1434l-413 -1434h-433l-161 1434h288l107 -1233l332 1233h280z" />
<glyph unicode="&#x1e7d;" horiz-adv-x="1007" d="M247 1167l18 215q85 66 201 66q50 0 150.5 -40t138.5 -40q100 0 190 74l-18 -215q-74 -66 -203 -66q-53 0 -149 40t-138 40q-51 0 -102.5 -21t-87.5 -53zM1034 1022l-354 -1024h-395l-176 1024h280l111 -827l256 827h278z" />
<glyph unicode="&#x1e7e;" horiz-adv-x="1110" d="M649 -358h-293l21 235h293zM1163 1434l-413 -1434h-433l-161 1434h288l107 -1233l332 1233h280z" />
<glyph unicode="&#x1e7f;" horiz-adv-x="1007" d="M598 -360h-293l21 235h292zM1034 1022l-354 -1024h-395l-176 1024h280l111 -827l256 827h278z" />
<glyph unicode="&#x1e80;" horiz-adv-x="1286" d="M869 1577h-218l-296 276h325zM1298 1434l-194 -1434h-395l-45 481l-144 -481h-379l56 1434h245l-51 -1215l199 610h233l76 -610l164 1215h235z" />
<glyph unicode="&#x1e81;" horiz-adv-x="1314" d="M846 1161h-218l-297 277h326zM1352 1024l-246 -1024h-358l-68 504l-164 -504h-348l-70 1024h269l28 -782l201 598h242l88 -598l166 782h260z" />
<glyph unicode="&#x1e82;" horiz-adv-x="1286" d="M874 1577h-228l228 276h336zM1298 1434l-194 -1434h-395l-45 481l-144 -481h-379l56 1434h245l-51 -1215l199 610h233l76 -610l164 1215h235z" />
<glyph unicode="&#x1e83;" horiz-adv-x="1314" d="M851 1161h-228l228 277h336zM1352 1024l-246 -1024h-358l-68 504l-164 -504h-348l-70 1024h269l28 -782l201 598h242l88 -598l166 782h260z" />
<glyph unicode="&#x1e84;" horiz-adv-x="1286" d="M1097 1577h-266l22 235h266zM687 1577h-266l23 235h266zM1298 1434l-194 -1434h-395l-45 481l-144 -481h-379l56 1434h245l-51 -1215l199 610h233l76 -610l164 1215h235z" />
<glyph unicode="&#x1e85;" horiz-adv-x="1314" d="M1074 1161h-266l22 236h266zM664 1161h-266l22 236h267zM1352 1024l-246 -1024h-358l-68 504l-164 -504h-348l-70 1024h269l28 -782l201 598h242l88 -598l166 782h260z" />
<glyph unicode="&#x1e86;" horiz-adv-x="1286" d="M906 1577h-293l21 235h293zM1298 1434l-194 -1434h-395l-45 481l-144 -481h-379l56 1434h245l-51 -1215l199 610h233l76 -610l164 1215h235z" />
<glyph unicode="&#x1e87;" horiz-adv-x="1314" d="M883 1161h-293l21 236h293zM1352 1024l-246 -1024h-358l-68 504l-164 -504h-348l-70 1024h269l28 -782l201 598h242l88 -598l166 782h260z" />
<glyph unicode="&#x1e88;" horiz-adv-x="1286" d="M738 -358h-293l21 235h293zM1298 1434l-194 -1434h-395l-45 481l-144 -481h-379l56 1434h245l-51 -1215l199 610h233l76 -610l164 1215h235z" />
<glyph unicode="&#x1e89;" horiz-adv-x="1314" d="M753 -358h-293l20 235h293zM1352 1024l-246 -1024h-358l-68 504l-164 -504h-348l-70 1024h269l28 -782l201 598h242l88 -598l166 782h260z" />
<glyph unicode="&#x1e8a;" horiz-adv-x="1075" d="M814 1577h-293l21 235h293zM1024 0h-313l-148 475l-244 -475h-309l432 743l-266 691h311l131 -424l211 424h306l-404 -689z" />
<glyph unicode="&#x1e8b;" horiz-adv-x="1034" d="M741 1161h-293l21 236h292zM963 0h-308l-129 309l-186 -309h-309l350 535l-229 489h305l104 -244l146 244h307l-320 -469z" />
<glyph unicode="&#x1e8c;" horiz-adv-x="1075" d="M1005 1577h-267l23 235h266zM595 1577h-266l22 235h267zM1024 0h-313l-148 475l-244 -475h-309l432 743l-266 691h311l131 -424l211 424h306l-404 -689z" />
<glyph unicode="&#x1e8d;" horiz-adv-x="1034" d="M931 1161h-266l23 236h266zM522 1161h-266l22 236h266zM963 0h-308l-129 309l-186 -309h-309l350 535l-229 489h305l104 -244l146 244h307l-320 -469z" />
<glyph unicode="&#x1e8e;" horiz-adv-x="1087" d="M807 1577h-293l21 235h293zM1171 1434l-454 -803l-53 -631h-287l53 631l-305 803h297l178 -553l277 553h294z" />
<glyph unicode="&#x1e8f;" horiz-adv-x="1009" d="M731 1161h-293l20 236h293zM1036 1024l-358 -1110q-89 -276 -316 -276q-121 0 -184 10l21 231q50 -6 100 -6q84 0 109 90l10 37h-70l-239 1024h286l129 -797l244 797h268z" />
<glyph unicode="&#x1e90;" horiz-adv-x="954" d="M1020 1577h-295l-88 152l-117 -152h-305l275 276h303zM963 1161l-580 -917h479l-20 -244h-791l23 272l581 918h-454l22 244h764z" />
<glyph unicode="&#x1e91;" horiz-adv-x="856" d="M931 1161h-295l-88 152l-117 -152h-305l274 277h303zM842 778l-471 -559h401l-18 -219h-713l18 227l476 578h-383l18 219h692z" />
<glyph unicode="&#x1e92;" horiz-adv-x="954" d="M562 -358h-293l21 235h293zM963 1161l-580 -917h479l-20 -244h-791l23 272l581 918h-454l22 244h764z" />
<glyph unicode="&#x1e93;" horiz-adv-x="856" d="M513 -358h-293l21 235h292zM842 778l-471 -559h401l-18 -219h-713l18 227l476 578h-383l18 219h692z" />
<glyph unicode="&#x1e94;" horiz-adv-x="954" d="M718 -346h-604l21 223h604zM963 1161l-580 -917h479l-20 -244h-791l23 272l581 918h-454l22 244h764z" />
<glyph unicode="&#x1e95;" horiz-adv-x="856" d="M669 -346h-604l20 223h605zM842 778l-471 -559h401l-18 -219h-713l18 227l476 578h-383l18 219h692z" />
<glyph unicode="&#x1e96;" horiz-adv-x="1073" d="M793 -346h-604l20 223h605zM385 0h-272l125 1434h272l-43 -486q104 94 244 94q152 0 215 -73.5t63 -235.5q0 -49 -6 -119l-53 -614h-273l54 621q4 36 4 67q0 69 -24 94t-77 25q-72 0 -121.5 -69t-56.5 -150z" />
<glyph unicode="&#x1e97;" horiz-adv-x="712" d="M748 1393h-266l22 235h266zM338 1393h-266l23 235h266zM698 788h-204l-37 -440q-1 -16 -2 -29.5t-1.5 -20.5t-0.5 -9q0 -39 18 -56.5t59 -17.5q59 0 129 18l-18 -227q-25 -7 -95.5 -15.5t-121.5 -8.5q-140 0 -194 60.5t-54 186.5q0 26 4 88l41 471h-133l21 236h133 l22 246h273l-23 -246h205z" />
<glyph unicode="&#x1e98;" horiz-adv-x="1314" d="M815 1413q2 14 2 37q0 33 -11.5 48t-39.5 15q-38 0 -52.5 -32.5t-14.5 -104.5q0 -33 11.5 -48t39.5 -15q32 0 46 23t19 77zM995 1411q-11 -124 -72 -187t-188 -63q-105 0 -161 55.5t-56 157.5q0 287 262 287q104 0 161 -56t57 -157q0 -19 -3 -37zM1352 1024l-246 -1024 h-358l-68 504l-164 -504h-348l-70 1024h269l28 -782l201 598h242l88 -598l166 782h260z" />
<glyph unicode="&#x1e99;" horiz-adv-x="1009" d="M663 1413q2 14 2 37q0 33 -11.5 48t-39.5 15q-38 0 -53 -32.5t-15 -104.5q0 -33 11.5 -48t39.5 -15q33 0 47 23.5t19 76.5zM843 1411q-11 -124 -72 -187t-188 -63q-105 0 -161 55.5t-56 157.5q0 287 262 287q104 0 160.5 -55.5t56.5 -157.5q0 -25 -2 -37zM1036 1024 l-358 -1110q-89 -276 -316 -276q-121 0 -184 10l21 231q50 -6 100 -6q84 0 109 90l10 37h-70l-239 1024h286l129 -797l244 797h268z" />
<glyph unicode="&#x1ea0;" horiz-adv-x="1116" d="M653 -358h-293l21 235h293zM721 575l-68 678l-188 -678h256zM1065 0h-283l-37 334h-348l-94 -334h-293l449 1434h413z" />
<glyph unicode="&#x1ea1;" horiz-adv-x="1067" d="M517 -377h-293l21 236h293zM123 485q14 159 49 264.5t98.5 171t153 93.5t219.5 28q160 0 336 -49l-61 -733q0 -28 15.5 -41.5t57.5 -13.5l-16 -205h-119q-26 0 -51 5t-52.5 16.5t-47.5 36t-27 59.5q-109 -135 -277 -135q-150 0 -217 82.5t-67 277.5q0 66 6 143zM494 215 q51 0 89.5 40t56.5 91.5t22 106.5l28 352q-58 4 -86 4q-36 0 -65 -10.5t-57 -40t-47 -78t-30.5 -129.5t-11.5 -189q0 -86 22.5 -116.5t78.5 -30.5z" />
<glyph unicode="&#x1ea4;" horiz-adv-x="1116" d="M825 1853h-227l227 277h336zM1063 1495h-297l-70 125l-94 -125h-303l246 236h311zM721 575l-68 678l-188 -678h256zM1065 0h-283l-37 334h-348l-94 -334h-293l449 1434h413z" />
<glyph unicode="&#x1ea5;" horiz-adv-x="1067" d="M792 1587h-227l227 277h336zM123 485q14 159 49 264.5t98.5 171t153 93.5t219.5 28q160 0 336 -49l-61 -733q0 -28 15.5 -41.5t57.5 -13.5l-16 -205h-119q-26 0 -51 5t-52.5 16.5t-47.5 36t-27 59.5q-109 -135 -277 -135q-150 0 -217 82.5t-67 277.5q0 66 6 143zM494 215 q51 0 89.5 40t56.5 91.5t22 106.5l28 352q-58 4 -86 4q-36 0 -65 -10.5t-57 -40t-47 -78t-30.5 -129.5t-11.5 -189q0 -86 22.5 -116.5t78.5 -30.5zM1047 1188h-295l-88 151l-117 -151h-305l274 276h303z" />
<glyph unicode="&#x1ea6;" horiz-adv-x="1116" d="M820 1853h-217l-297 277h325zM1063 1495h-297l-70 125l-94 -125h-303l246 236h311zM721 575l-68 678l-188 -678h256zM1065 0h-283l-37 334h-348l-94 -334h-293l449 1434h413z" />
<glyph unicode="&#x1ea7;" horiz-adv-x="1067" d="M787 1587h-217l-297 277h326zM123 485q14 159 49 264.5t98.5 171t153 93.5t219.5 28q160 0 336 -49l-61 -733q0 -28 15.5 -41.5t57.5 -13.5l-16 -205h-119q-26 0 -51 5t-52.5 16.5t-47.5 36t-27 59.5q-109 -135 -277 -135q-150 0 -217 82.5t-67 277.5q0 66 6 143z M494 215q51 0 89.5 40t56.5 91.5t22 106.5l28 352q-58 4 -86 4q-36 0 -65 -10.5t-57 -40t-47 -78t-30.5 -129.5t-11.5 -189q0 -86 22.5 -116.5t78.5 -30.5zM1047 1188h-295l-88 151l-117 -151h-305l274 276h303z" />
<glyph unicode="&#x1eaa;" horiz-adv-x="1116" d="M374 1860l19 215q84 65 200 65q50 0 150.5 -40t138.5 -40q101 0 191 74l-19 -215q-74 -66 -202 -66q-53 0 -149 40t-138 40q-51 0 -103 -21t-88 -52zM1063 1495h-297l-70 125l-94 -125h-303l246 236h311zM721 575l-68 678l-188 -678h256zM1065 0h-283l-37 334h-348 l-94 -334h-293l449 1434h413z" />
<glyph unicode="&#x1eab;" horiz-adv-x="1067" d="M342 1593l18 215q85 66 201 66q50 0 150 -40t138 -40q101 0 191 74l-19 -215q-74 -66 -202 -66q-53 0 -149 40t-138 40q-51 0 -102.5 -21t-87.5 -53zM123 485q14 159 49 264.5t98.5 171t153 93.5t219.5 28q160 0 336 -49l-61 -733q0 -28 15.5 -41.5t57.5 -13.5l-16 -205 h-119q-26 0 -51 5t-52.5 16.5t-47.5 36t-27 59.5q-109 -135 -277 -135q-150 0 -217 82.5t-67 277.5q0 66 6 143zM494 215q51 0 89.5 40t56.5 91.5t22 106.5l28 352q-58 4 -86 4q-36 0 -65 -10.5t-57 -40t-47 -78t-30.5 -129.5t-11.5 -189q0 -86 22.5 -116.5t78.5 -30.5z M1047 1188h-295l-88 151l-117 -151h-305l274 276h303z" />
<glyph unicode="&#x1eac;" horiz-adv-x="1116" d="M1081 1577h-295l-88 152l-117 -152h-305l274 276h303zM653 -358h-293l21 235h293zM721 575l-68 678l-188 -678h256zM1065 0h-283l-37 334h-348l-94 -334h-293l449 1434h413z" />
<glyph unicode="&#x1ead;" horiz-adv-x="1067" d="M1056 1165h-295l-88 152l-116 -152h-306l275 277h303zM517 -377h-293l21 236h293zM123 485q14 159 49 264.5t98.5 171t153 93.5t219.5 28q160 0 336 -49l-61 -733q0 -28 15.5 -41.5t57.5 -13.5l-16 -205h-119q-26 0 -51 5t-52.5 16.5t-47.5 36t-27 59.5 q-109 -135 -277 -135q-150 0 -217 82.5t-67 277.5q0 66 6 143zM494 215q51 0 89.5 40t56.5 91.5t22 106.5l28 352q-58 4 -86 4q-36 0 -65 -10.5t-57 -40t-47 -78t-30.5 -129.5t-11.5 -189q0 -86 22.5 -116.5t78.5 -30.5z" />
<glyph unicode="&#x1eae;" horiz-adv-x="1116" d="M828 1997h-227l227 276h336zM372 1874h240q0 -50 21 -77.5t62 -27.5q40 0 67.5 29t33.5 76h239q-5 -38 -18 -75t-40.5 -78t-66 -72t-100 -51.5t-137.5 -20.5q-68 0 -122.5 20.5t-87 51.5t-54 72t-29.5 78.5t-8 74.5zM721 575l-68 678l-188 -678h256zM1065 0h-283l-37 334 h-348l-94 -334h-293l449 1434h413z" />
<glyph unicode="&#x1eaf;" horiz-adv-x="1067" d="M804 1585h-228l228 277h336zM348 1462h239q0 -50 21.5 -77t62.5 -27q40 0 67.5 28.5t33.5 75.5h239q-5 -38 -18 -75t-40.5 -78t-66 -72t-100 -51.5t-137.5 -20.5q-68 0 -122.5 20.5t-87 51.5t-54 72t-29.5 78.5t-8 74.5zM123 485q14 159 49 264.5t98.5 171t153 93.5 t219.5 28q160 0 336 -49l-61 -733q0 -28 15.5 -41.5t57.5 -13.5l-16 -205h-119q-26 0 -51 5t-52.5 16.5t-47.5 36t-27 59.5q-109 -135 -277 -135q-150 0 -217 82.5t-67 277.5q0 66 6 143zM494 215q51 0 89.5 40t56.5 91.5t22 106.5l28 352q-58 4 -86 4q-36 0 -65 -10.5 t-57 -40t-47 -78t-30.5 -129.5t-11.5 -189q0 -86 22.5 -116.5t78.5 -30.5z" />
<glyph unicode="&#x1eb0;" horiz-adv-x="1116" d="M823 1997h-217l-297 276h326zM372 1874h240q0 -50 21 -77.5t62 -27.5q40 0 67.5 29t33.5 76h239q-5 -38 -18 -75t-40.5 -78t-66 -72t-100 -51.5t-137.5 -20.5q-68 0 -122.5 20.5t-87 51.5t-54 72t-29.5 78.5t-8 74.5zM721 575l-68 678l-188 -678h256zM1065 0h-283 l-37 334h-348l-94 -334h-293l449 1434h413z" />
<glyph unicode="&#x1eb1;" horiz-adv-x="1067" d="M799 1585h-217l-297 277h325zM348 1462h239q0 -50 21.5 -77t62.5 -27q40 0 67.5 28.5t33.5 75.5h239q-5 -38 -18 -75t-40.5 -78t-66 -72t-100 -51.5t-137.5 -20.5q-68 0 -122.5 20.5t-87 51.5t-54 72t-29.5 78.5t-8 74.5zM123 485q14 159 49 264.5t98.5 171t153 93.5 t219.5 28q160 0 336 -49l-61 -733q0 -28 15.5 -41.5t57.5 -13.5l-16 -205h-119q-26 0 -51 5t-52.5 16.5t-47.5 36t-27 59.5q-109 -135 -277 -135q-150 0 -217 82.5t-67 277.5q0 66 6 143zM494 215q51 0 89.5 40t56.5 91.5t22 106.5l28 352q-58 4 -86 4q-36 0 -65 -10.5 t-57 -40t-47 -78t-30.5 -129.5t-11.5 -189q0 -86 22.5 -116.5t78.5 -30.5z" />
<glyph unicode="&#x1eb4;" horiz-adv-x="1116" d="M378 2003l18 215q85 66 201 66q50 0 150 -40t138 -40q102 0 191 73l-18 -215q-73 -65 -203 -65q-53 0 -149 40t-138 40q-51 0 -102.5 -21t-87.5 -53zM372 1874h240q0 -50 21 -77.5t62 -27.5q40 0 67.5 29t33.5 76h239q-5 -38 -18 -75t-40.5 -78t-66 -72t-100 -51.5 t-137.5 -20.5q-68 0 -122.5 20.5t-87 51.5t-54 72t-29.5 78.5t-8 74.5zM721 575l-68 678l-188 -678h256zM1065 0h-283l-37 334h-348l-94 -334h-293l449 1434h413z" />
<glyph unicode="&#x1eb5;" horiz-adv-x="1067" d="M353 1591l19 215q85 66 200 66q50 0 150.5 -40t138.5 -40q101 0 191 74l-19 -215q-74 -66 -203 -66q-53 0 -148.5 40t-137.5 40q-51 0 -103 -21.5t-88 -52.5zM348 1462h239q0 -50 21.5 -77t62.5 -27q40 0 67.5 28.5t33.5 75.5h239q-5 -38 -18 -75t-40.5 -78t-66 -72 t-100 -51.5t-137.5 -20.5q-68 0 -122.5 20.5t-87 51.5t-54 72t-29.5 78.5t-8 74.5zM123 485q14 159 49 264.5t98.5 171t153 93.5t219.5 28q160 0 336 -49l-61 -733q0 -28 15.5 -41.5t57.5 -13.5l-16 -205h-119q-26 0 -51 5t-52.5 16.5t-47.5 36t-27 59.5 q-109 -135 -277 -135q-150 0 -217 82.5t-67 277.5q0 66 6 143zM494 215q51 0 89.5 40t56.5 91.5t22 106.5l28 352q-58 4 -86 4q-36 0 -65 -10.5t-57 -40t-47 -78t-30.5 -129.5t-11.5 -189q0 -86 22.5 -116.5t78.5 -30.5z" />
<glyph unicode="&#x1eb6;" horiz-adv-x="1116" d="M372 1874h240q0 -50 21 -77.5t62 -27.5q40 0 67.5 29t33.5 76h239q-5 -38 -18 -75t-40.5 -78t-66 -72t-100 -51.5t-137.5 -20.5q-68 0 -122.5 20.5t-87 51.5t-54 72t-29.5 78.5t-8 74.5zM653 -358h-293l21 235h293zM721 575l-68 678l-188 -678h256zM1065 0h-283l-37 334 h-348l-94 -334h-293l449 1434h413z" />
<glyph unicode="&#x1eb7;" horiz-adv-x="1067" d="M348 1462h239q0 -50 21.5 -77t62.5 -27q40 0 67.5 28.5t33.5 75.5h239q-5 -38 -18 -75t-40.5 -78t-66 -72t-100 -51.5t-137.5 -20.5q-68 0 -122.5 20.5t-87 51.5t-54 72t-29.5 78.5t-8 74.5zM517 -377h-293l21 236h293zM123 485q14 159 49 264.5t98.5 171t153 93.5 t219.5 28q160 0 336 -49l-61 -733q0 -28 15.5 -41.5t57.5 -13.5l-16 -205h-119q-26 0 -51 5t-52.5 16.5t-47.5 36t-27 59.5q-109 -135 -277 -135q-150 0 -217 82.5t-67 277.5q0 66 6 143zM494 215q51 0 89.5 40t56.5 91.5t22 106.5l28 352q-58 4 -86 4q-36 0 -65 -10.5 t-57 -40t-47 -78t-30.5 -129.5t-11.5 -189q0 -86 22.5 -116.5t78.5 -30.5z" />
<glyph unicode="&#x1eb8;" horiz-adv-x="978" d="M605 -358h-293l21 235h293zM856 0h-733l125 1434h733l-20 -222h-453l-31 -362h402l-21 -219h-401l-35 -410h452z" />
<glyph unicode="&#x1eb9;" horiz-adv-x="991" d="M644 -377h-293l21 236h293zM940 745q0 -176 -93.5 -264t-309.5 -88q-93 0 -144 6v-16q0 -97 33.5 -132.5t122.5 -35.5q106 0 264 31l-20 -230q-51 -14 -130.5 -24t-134.5 -10q-65 0 -115 6.5t-98.5 22.5t-82 45.5t-59.5 74t-39 110.5t-13 152q0 55 6 119 q26 281 138.5 405.5t328.5 124.5q83 0 146.5 -20.5t100.5 -51.5t60 -73t31 -78.5t8 -73.5zM569 817q-61 0 -97.5 -46t-57.5 -159q52 -6 96 -6q162 0 162 107q0 50 -20.5 77t-82.5 27z" />
<glyph unicode="&#x1ebc;" horiz-adv-x="978" d="M290 1583l18 215q85 66 201 66q50 0 150.5 -40t138.5 -40q100 0 190 74l-18 -216q-73 -65 -203 -65q-53 0 -148.5 40t-137.5 40q-51 0 -103 -21.5t-88 -52.5zM856 0h-733l125 1434h733l-20 -222h-453l-31 -362h402l-21 -219h-401l-35 -410h452z" />
<glyph unicode="&#x1ebd;" horiz-adv-x="991" d="M268 1171l18 215q85 66 201 66q50 0 150.5 -40t138.5 -40q100 0 190 74l-18 -215q-74 -66 -203 -66q-53 0 -149 40t-138 40q-51 0 -102.5 -21t-87.5 -53zM940 745q0 -176 -93.5 -264t-309.5 -88q-93 0 -144 6v-16q0 -97 33.5 -132.5t122.5 -35.5q106 0 264 31l-20 -230 q-51 -14 -130.5 -24t-134.5 -10q-65 0 -115 6.5t-98.5 22.5t-82 45.5t-59.5 74t-39 110.5t-13 152q0 55 6 119q26 281 138.5 405.5t328.5 124.5q83 0 146.5 -20.5t100.5 -51.5t60 -73t31 -78.5t8 -73.5zM569 817q-61 0 -97.5 -46t-57.5 -159q52 -6 96 -6q162 0 162 107 q0 50 -20.5 77t-82.5 27z" />
<glyph unicode="&#x1ebe;" horiz-adv-x="978" d="M763 1853h-227l227 277h336zM1001 1495h-296l-70 125l-94 -125h-303l245 236h312zM856 0h-733l125 1434h733l-20 -222h-453l-31 -362h402l-21 -219h-401l-35 -410h452z" />
<glyph unicode="&#x1ebf;" horiz-adv-x="991" d="M739 1587h-228l228 277h336zM940 745q0 -176 -93.5 -264t-309.5 -88q-93 0 -144 6v-16q0 -97 33.5 -132.5t122.5 -35.5q106 0 264 31l-20 -230q-51 -14 -130.5 -24t-134.5 -10q-65 0 -115 6.5t-98.5 22.5t-82 45.5t-59.5 74t-39 110.5t-13 152q0 55 6 119 q26 281 138.5 405.5t328.5 124.5q83 0 146.5 -20.5t100.5 -51.5t60 -73t31 -78.5t8 -73.5zM569 817q-61 0 -97.5 -46t-57.5 -159q52 -6 96 -6q162 0 162 107q0 50 -20.5 77t-82.5 27zM993 1188h-295l-88 151l-116 -151h-306l275 276h303z" />
<glyph unicode="&#x1ec0;" horiz-adv-x="978" d="M758 1853h-217l-297 277h326zM1001 1495h-296l-70 125l-94 -125h-303l245 236h312zM856 0h-733l125 1434h733l-20 -222h-453l-31 -362h402l-21 -219h-401l-35 -410h452z" />
<glyph unicode="&#x1ec1;" horiz-adv-x="991" d="M734 1587h-217l-297 277h325zM940 745q0 -176 -93.5 -264t-309.5 -88q-93 0 -144 6v-16q0 -97 33.5 -132.5t122.5 -35.5q106 0 264 31l-20 -230q-51 -14 -130.5 -24t-134.5 -10q-65 0 -115 6.5t-98.5 22.5t-82 45.5t-59.5 74t-39 110.5t-13 152q0 55 6 119 q26 281 138.5 405.5t328.5 124.5q83 0 146.5 -20.5t100.5 -51.5t60 -73t31 -78.5t8 -73.5zM569 817q-61 0 -97.5 -46t-57.5 -159q52 -6 96 -6q162 0 162 107q0 50 -20.5 77t-82.5 27zM993 1188h-295l-88 151l-116 -151h-306l275 276h303z" />
<glyph unicode="&#x1ec4;" horiz-adv-x="978" d="M313 1860l18 215q84 65 201 65q50 0 150.5 -40t138.5 -40q100 0 190 74l-18 -215q-74 -66 -203 -66q-53 0 -149 40t-138 40q-51 0 -102.5 -21t-87.5 -52zM1001 1495h-296l-70 125l-94 -125h-303l245 236h312zM856 0h-733l125 1434h733l-20 -222h-453l-31 -362h402 l-21 -219h-401l-35 -410h452z" />
<glyph unicode="&#x1ec5;" horiz-adv-x="991" d="M288 1593l19 215q85 66 200 66q50 0 150.5 -40t138.5 -40q101 0 191 74l-19 -215q-74 -66 -203 -66q-53 0 -148.5 40t-137.5 40q-51 0 -103 -21.5t-88 -52.5zM940 745q0 -176 -93.5 -264t-309.5 -88q-93 0 -144 6v-16q0 -97 33.5 -132.5t122.5 -35.5q106 0 264 31 l-20 -230q-51 -14 -130.5 -24t-134.5 -10q-65 0 -115 6.5t-98.5 22.5t-82 45.5t-59.5 74t-39 110.5t-13 152q0 55 6 119q26 281 138.5 405.5t328.5 124.5q83 0 146.5 -20.5t100.5 -51.5t60 -73t31 -78.5t8 -73.5zM569 817q-61 0 -97.5 -46t-57.5 -159q52 -6 96 -6 q162 0 162 107q0 50 -20.5 77t-82.5 27zM993 1188h-295l-88 151l-116 -151h-306l275 276h303z" />
<glyph unicode="&#x1ec6;" horiz-adv-x="978" d="M1029 1577h-295l-88 152l-116 -152h-306l275 276h303zM605 -358h-293l21 235h293zM856 0h-733l125 1434h733l-20 -222h-453l-31 -362h402l-21 -219h-401l-35 -410h452z" />
<glyph unicode="&#x1ec7;" horiz-adv-x="991" d="M1007 1165h-295l-88 152l-117 -152h-305l275 277h303zM644 -377h-293l21 236h293zM940 745q0 -176 -93.5 -264t-309.5 -88q-93 0 -144 6v-16q0 -97 33.5 -132.5t122.5 -35.5q106 0 264 31l-20 -230q-51 -14 -130.5 -24t-134.5 -10q-65 0 -115 6.5t-98.5 22.5t-82 45.5 t-59.5 74t-39 110.5t-13 152q0 55 6 119q26 281 138.5 405.5t328.5 124.5q83 0 146.5 -20.5t100.5 -51.5t60 -73t31 -78.5t8 -73.5zM569 817q-61 0 -97.5 -46t-57.5 -159q52 -6 96 -6q162 0 162 107q0 50 -20.5 77t-82.5 27z" />
<glyph unicode="&#x1eca;" horiz-adv-x="710" d="M451 -358h-293l20 235h293zM618 0h-567l19 217h143l86 1000h-143l20 217h567l-20 -217h-143l-86 -1000h143z" />
<glyph unicode="&#x1ecb;" horiz-adv-x="538" d="M364 -358h-292l20 235h293zM500 1198h-293l20 236h293zM385 0h-272l88 1024h272z" />
<glyph unicode="&#x1ecc;" horiz-adv-x="1163" d="M675 -379h-293l20 236h293zM817 723q12 144 12 238q0 158 -36.5 215t-124.5 57q-76 0 -119.5 -40t-72.5 -150t-48 -320q-12 -138 -12 -236q0 -162 37.5 -224t124.5 -62q75 0 119.5 44.5t73 157t46.5 320.5zM1104 733q-9 -102 -19 -177t-25.5 -152t-35.5 -130.5 t-49.5 -104.5t-68 -83.5t-89 -58t-114.5 -36.5t-144 -11q-121 0 -203.5 31.5t-131.5 98t-70 160t-21 226.5q0 108 12 237q9 110 21 192t32 160.5t47.5 133.5t67.5 102t93.5 74.5t123.5 43t158 15.5q233 0 329.5 -125t96.5 -391q0 -82 -10 -205z" />
<glyph unicode="&#x1ecd;" d="M640 -373h-293l21 236h292zM1018 625q0 -27 -4 -93q-11 -129 -35.5 -222t-62.5 -156t-96 -100t-128.5 -52.5t-167.5 -15.5q-100 0 -170.5 20t-123 68t-78 132.5t-25.5 207.5q0 326 114 475t375 149q202 0 302 -100.5t100 -312.5zM733 502q6 64 6 112q0 112 -33.5 157.5 t-109.5 45.5q-92 0 -131.5 -67t-54.5 -248q-7 -79 -7 -117q0 -100 31.5 -139t108.5 -39q95 0 135 62t55 233z" />
<glyph unicode="&#x1ed0;" horiz-adv-x="1163" d="M835 1853h-227l227 277h336zM1073 1495h-297l-69 125l-95 -125h-303l246 236h311zM817 723q12 144 12 238q0 158 -36.5 215t-124.5 57q-76 0 -119.5 -40t-72.5 -150t-48 -320q-12 -138 -12 -236q0 -162 37.5 -224t124.5 -62q75 0 119.5 44.5t73 157t46.5 320.5zM1104 733 q-9 -102 -19 -177t-25.5 -152t-35.5 -130.5t-49.5 -104.5t-68 -83.5t-89 -58t-114.5 -36.5t-144 -11q-121 0 -203.5 31.5t-131.5 98t-70 160t-21 226.5q0 108 12 237q9 110 21 192t32 160.5t47.5 133.5t67.5 102t93.5 74.5t123.5 43t158 15.5q233 0 329.5 -125t96.5 -391 q0 -82 -10 -205z" />
<glyph unicode="&#x1ed1;" d="M774 1587h-228l228 277h336zM1018 625q0 -27 -4 -93q-11 -129 -35.5 -222t-62.5 -156t-96 -100t-128.5 -52.5t-167.5 -15.5q-100 0 -170.5 20t-123 68t-78 132.5t-25.5 207.5q0 326 114 475t375 149q202 0 302 -100.5t100 -312.5zM733 502q6 64 6 112q0 112 -33.5 157.5 t-109.5 45.5q-92 0 -131.5 -67t-54.5 -248q-7 -79 -7 -117q0 -100 31.5 -139t108.5 -39q95 0 135 62t55 233zM1028 1188h-295l-88 151l-117 -151h-305l275 276h303z" />
<glyph unicode="&#x1ed2;" horiz-adv-x="1163" d="M830 1853h-217l-297 277h326zM1073 1495h-297l-69 125l-95 -125h-303l246 236h311zM817 723q12 144 12 238q0 158 -36.5 215t-124.5 57q-76 0 -119.5 -40t-72.5 -150t-48 -320q-12 -138 -12 -236q0 -162 37.5 -224t124.5 -62q75 0 119.5 44.5t73 157t46.5 320.5z M1104 733q-9 -102 -19 -177t-25.5 -152t-35.5 -130.5t-49.5 -104.5t-68 -83.5t-89 -58t-114.5 -36.5t-144 -11q-121 0 -203.5 31.5t-131.5 98t-70 160t-21 226.5q0 108 12 237q9 110 21 192t32 160.5t47.5 133.5t67.5 102t93.5 74.5t123.5 43t158 15.5q233 0 329.5 -125 t96.5 -391q0 -82 -10 -205z" />
<glyph unicode="&#x1ed3;" d="M769 1587h-218l-297 277h326zM1018 625q0 -27 -4 -93q-11 -129 -35.5 -222t-62.5 -156t-96 -100t-128.5 -52.5t-167.5 -15.5q-100 0 -170.5 20t-123 68t-78 132.5t-25.5 207.5q0 326 114 475t375 149q202 0 302 -100.5t100 -312.5zM733 502q6 64 6 112q0 112 -33.5 157.5 t-109.5 45.5q-92 0 -131.5 -67t-54.5 -248q-7 -79 -7 -117q0 -100 31.5 -139t108.5 -39q95 0 135 62t55 233zM1028 1188h-295l-88 151l-117 -151h-305l275 276h303z" />
<glyph unicode="&#x1ed6;" horiz-adv-x="1163" d="M385 1860l18 215q84 65 201 65q50 0 150 -40t138 -40q101 0 191 74l-19 -215q-74 -66 -202 -66q-53 0 -149 40t-138 40q-51 0 -102.5 -21t-87.5 -52zM1073 1495h-297l-69 125l-95 -125h-303l246 236h311zM817 723q12 144 12 238q0 158 -36.5 215t-124.5 57 q-76 0 -119.5 -40t-72.5 -150t-48 -320q-12 -138 -12 -236q0 -162 37.5 -224t124.5 -62q75 0 119.5 44.5t73 157t46.5 320.5zM1104 733q-9 -102 -19 -177t-25.5 -152t-35.5 -130.5t-49.5 -104.5t-68 -83.5t-89 -58t-114.5 -36.5t-144 -11q-121 0 -203.5 31.5t-131.5 98 t-70 160t-21 226.5q0 108 12 237q9 110 21 192t32 160.5t47.5 133.5t67.5 102t93.5 74.5t123.5 43t158 15.5q233 0 329.5 -125t96.5 -391q0 -82 -10 -205z" />
<glyph unicode="&#x1ed7;" d="M323 1593l19 215q85 66 200 66q50 0 150.5 -40t138.5 -40q100 0 190 74l-18 -215q-74 -66 -203 -66q-53 0 -148.5 40t-137.5 40q-51 0 -103 -21.5t-88 -52.5zM1018 625q0 -27 -4 -93q-11 -129 -35.5 -222t-62.5 -156t-96 -100t-128.5 -52.5t-167.5 -15.5 q-100 0 -170.5 20t-123 68t-78 132.5t-25.5 207.5q0 326 114 475t375 149q202 0 302 -100.5t100 -312.5zM733 502q6 64 6 112q0 112 -33.5 157.5t-109.5 45.5q-92 0 -131.5 -67t-54.5 -248q-7 -79 -7 -117q0 -100 31.5 -139t108.5 -39q95 0 135 62t55 233zM1028 1188h-295 l-88 151l-117 -151h-305l275 276h303z" />
<glyph unicode="&#x1ed8;" horiz-adv-x="1163" d="M1101 1577h-295l-88 152l-116 -152h-306l275 276h303zM675 -379h-293l20 236h293zM817 723q12 144 12 238q0 158 -36.5 215t-124.5 57q-76 0 -119.5 -40t-72.5 -150t-48 -320q-12 -138 -12 -236q0 -162 37.5 -224t124.5 -62q75 0 119.5 44.5t73 157t46.5 320.5zM1104 733 q-9 -102 -19 -177t-25.5 -152t-35.5 -130.5t-49.5 -104.5t-68 -83.5t-89 -58t-114.5 -36.5t-144 -11q-121 0 -203.5 31.5t-131.5 98t-70 160t-21 226.5q0 108 12 237q9 110 21 192t32 160.5t47.5 133.5t67.5 102t93.5 74.5t123.5 43t158 15.5q233 0 329.5 -125t96.5 -391 q0 -82 -10 -205z" />
<glyph unicode="&#x1ed9;" d="M1030 1161h-295l-88 152l-117 -152h-305l274 277h303zM640 -373h-293l21 236h292zM1018 625q0 -27 -4 -93q-11 -129 -35.5 -222t-62.5 -156t-96 -100t-128.5 -52.5t-167.5 -15.5q-100 0 -170.5 20t-123 68t-78 132.5t-25.5 207.5q0 326 114 475t375 149q202 0 302 -100.5 t100 -312.5zM733 502q6 64 6 112q0 112 -33.5 157.5t-109.5 45.5q-92 0 -131.5 -67t-54.5 -248q-7 -79 -7 -117q0 -100 31.5 -139t108.5 -39q95 0 135 62t55 233z" />
<glyph unicode="&#x1eda;" horiz-adv-x="1499" d="M817 723q12 144 12 238q0 158 -36.5 215t-124.5 57q-76 0 -119.5 -40t-72.5 -150t-48 -320q-12 -138 -12 -236q0 -162 37.5 -224t124.5 -62q75 0 119.5 44.5t73 157t46.5 320.5zM1104 733q-9 -102 -19 -177t-25.5 -152t-35.5 -130.5t-49.5 -104.5t-68 -83.5t-89 -58 t-114.5 -36.5t-144 -11q-121 0 -203.5 31.5t-131.5 98t-70 160t-21 226.5q0 108 12 237q9 110 21 192t32 160.5t47.5 133.5t67.5 102t93.5 74.5t123.5 43t158 15.5q233 0 329.5 -125t96.5 -391q0 -82 -10 -205zM1585 1188l-217 -307h-199l109 307l22 266h308zM848 1577h-227 l227 276h336z" />
<glyph unicode="&#x1edb;" horiz-adv-x="1445" d="M1018 625q0 -27 -4 -93q-11 -129 -35.5 -222t-62.5 -156t-96 -100t-128.5 -52.5t-167.5 -15.5q-100 0 -170.5 20t-123 68t-78 132.5t-25.5 207.5q0 326 114 475t375 149q202 0 302 -100.5t100 -312.5zM733 502q6 64 6 112q0 112 -33.5 157.5t-109.5 45.5 q-92 0 -131.5 -67t-54.5 -248q-7 -79 -7 -117q0 -100 31.5 -139t108.5 -39q95 0 135 62t55 233zM1495 772l-217 -307h-199l109 307l22 266h308zM766 1161h-227l227 277h336z" />
<glyph unicode="&#x1edc;" horiz-adv-x="1499" d="M817 723q12 144 12 238q0 158 -36.5 215t-124.5 57q-76 0 -119.5 -40t-72.5 -150t-48 -320q-12 -138 -12 -236q0 -162 37.5 -224t124.5 -62q75 0 119.5 44.5t73 157t46.5 320.5zM1104 733q-9 -102 -19 -177t-25.5 -152t-35.5 -130.5t-49.5 -104.5t-68 -83.5t-89 -58 t-114.5 -36.5t-144 -11q-121 0 -203.5 31.5t-131.5 98t-70 160t-21 226.5q0 108 12 237q9 110 21 192t32 160.5t47.5 133.5t67.5 102t93.5 74.5t123.5 43t158 15.5q233 0 329.5 -125t96.5 -391q0 -82 -10 -205zM1585 1188l-217 -307h-199l109 307l22 266h308zM864 1577h-217 l-297 276h326z" />
<glyph unicode="&#x1edd;" horiz-adv-x="1445" d="M1018 625q0 -27 -4 -93q-11 -129 -35.5 -222t-62.5 -156t-96 -100t-128.5 -52.5t-167.5 -15.5q-100 0 -170.5 20t-123 68t-78 132.5t-25.5 207.5q0 326 114 475t375 149q202 0 302 -100.5t100 -312.5zM733 502q6 64 6 112q0 112 -33.5 157.5t-109.5 45.5 q-92 0 -131.5 -67t-54.5 -248q-7 -79 -7 -117q0 -100 31.5 -139t108.5 -39q95 0 135 62t55 233zM1495 772l-217 -307h-199l109 307l22 266h308zM786 1161h-217l-297 277h326z" />
<glyph unicode="&#x1ee0;" horiz-adv-x="1499" d="M817 723q12 144 12 238q0 158 -36.5 215t-124.5 57q-76 0 -119.5 -40t-72.5 -150t-48 -320q-12 -138 -12 -236q0 -162 37.5 -224t124.5 -62q75 0 119.5 44.5t73 157t46.5 320.5zM1104 733q-9 -102 -19 -177t-25.5 -152t-35.5 -130.5t-49.5 -104.5t-68 -83.5t-89 -58 t-114.5 -36.5t-144 -11q-121 0 -203.5 31.5t-131.5 98t-70 160t-21 226.5q0 108 12 237q9 110 21 192t32 160.5t47.5 133.5t67.5 102t93.5 74.5t123.5 43t158 15.5q233 0 329.5 -125t96.5 -391q0 -82 -10 -205zM1585 1188l-217 -307h-199l109 307l22 266h308zM412 1583 l18 215q85 66 201 66q50 0 150.5 -40t138.5 -40q100 0 190 74l-18 -216q-73 -65 -203 -65q-53 0 -149 40t-138 40q-51 0 -102.5 -21t-87.5 -53z" />
<glyph unicode="&#x1ee1;" horiz-adv-x="1445" d="M1018 625q0 -27 -4 -93q-11 -129 -35.5 -222t-62.5 -156t-96 -100t-128.5 -52.5t-167.5 -15.5q-100 0 -170.5 20t-123 68t-78 132.5t-25.5 207.5q0 326 114 475t375 149q202 0 302 -100.5t100 -312.5zM733 502q6 64 6 112q0 112 -33.5 157.5t-109.5 45.5 q-92 0 -131.5 -67t-54.5 -248q-7 -79 -7 -117q0 -100 31.5 -139t108.5 -39q95 0 135 62t55 233zM1495 772l-217 -307h-199l109 307l22 266h308zM309 1167l19 215q85 66 200 66q50 0 150.5 -40t138.5 -40q101 0 191 74l-19 -215q-74 -66 -203 -66q-53 0 -148.5 40t-137.5 40 q-51 0 -103 -21.5t-88 -52.5z" />
<glyph unicode="&#x1ee2;" horiz-adv-x="1499" d="M675 -379h-293l20 236h293zM817 723q12 144 12 238q0 158 -36.5 215t-124.5 57q-76 0 -119.5 -40t-72.5 -150t-48 -320q-12 -138 -12 -236q0 -162 37.5 -224t124.5 -62q75 0 119.5 44.5t73 157t46.5 320.5zM1104 733q-9 -102 -19 -177t-25.5 -152t-35.5 -130.5 t-49.5 -104.5t-68 -83.5t-89 -58t-114.5 -36.5t-144 -11q-121 0 -203.5 31.5t-131.5 98t-70 160t-21 226.5q0 108 12 237q9 110 21 192t32 160.5t47.5 133.5t67.5 102t93.5 74.5t123.5 43t158 15.5q233 0 329.5 -125t96.5 -391q0 -82 -10 -205zM1585 1188l-217 -307h-199 l109 307l22 266h308z" />
<glyph unicode="&#x1ee3;" horiz-adv-x="1445" d="M640 -373h-293l21 236h292zM1018 625q0 -27 -4 -93q-11 -129 -35.5 -222t-62.5 -156t-96 -100t-128.5 -52.5t-167.5 -15.5q-100 0 -170.5 20t-123 68t-78 132.5t-25.5 207.5q0 326 114 475t375 149q202 0 302 -100.5t100 -312.5zM733 502q6 64 6 112q0 112 -33.5 157.5 t-109.5 45.5q-92 0 -131.5 -67t-54.5 -248q-7 -79 -7 -117q0 -100 31.5 -139t108.5 -39q95 0 135 62t55 233zM1495 772l-217 -307h-199l109 307l22 266h308z" />
<glyph unicode="&#x1ee4;" horiz-adv-x="1136" d="M662 -373h-292l20 236h293zM1108 1434l-88 -994q-23 -250 -133.5 -352t-339.5 -102q-402 0 -402 383q0 9 5 71l88 994h280l-88 -1002q-4 -58 -4 -61q0 -144 141 -144q155 0 170 174l90 1033h281z" />
<glyph unicode="&#x1ee5;" horiz-adv-x="1060" d="M521 -377h-293l21 236h293zM190 1024h273l-51 -600q-1 -18 -3.5 -51t-2.5 -41q0 -67 22.5 -91t73.5 -24q41 0 74.5 25.5t53.5 66t31.5 82.5t14.5 82l47 551h272l-88 -1024h-221l-10 102q-110 -120 -270 -120q-150 0 -212.5 75.5t-62.5 237.5q0 26 4 100z" />
<glyph unicode="&#x1ee8;" horiz-adv-x="1447" d="M1538 1188l-217 -307h-199l109 307l22 266h307zM1108 1434l-88 -994q-23 -250 -133.5 -352t-339.5 -102q-402 0 -402 383q0 9 5 71l88 994h280l-88 -1002q-4 -58 -4 -61q0 -144 141 -144q155 0 170 174l90 1033h281zM799 1577h-228l228 276h336z" />
<glyph unicode="&#x1ee9;" horiz-adv-x="1331" d="M1425 772l-218 -307h-198l108 307l23 266h307zM190 1024h273l-51 -600q-1 -18 -3.5 -51t-2.5 -41q0 -67 22.5 -91t73.5 -24q41 0 74.5 25.5t53.5 66t31.5 82.5t14.5 82l47 551h272l-88 -1024h-221l-10 102q-110 -120 -270 -120q-150 0 -212.5 75.5t-62.5 237.5 q0 26 4 100zM725 1161h-227l227 277h336z" />
<glyph unicode="&#x1eea;" horiz-adv-x="1464" d="M1538 1188l-217 -307h-199l109 307l22 266h307zM1108 1434l-88 -994q-23 -250 -133.5 -352t-339.5 -102q-402 0 -402 383q0 9 5 71l88 994h280l-88 -1002q-4 -58 -4 -61q0 -144 141 -144q155 0 170 174l90 1033h281zM803 1577h-217l-297 276h325z" />
<glyph unicode="&#x1eeb;" horiz-adv-x="1343" d="M1425 772l-218 -307h-198l108 307l23 266h307zM190 1024h273l-51 -600q-1 -18 -3.5 -51t-2.5 -41q0 -67 22.5 -91t73.5 -24q41 0 74.5 25.5t53.5 66t31.5 82.5t14.5 82l47 551h272l-88 -1024h-221l-10 102q-110 -120 -270 -120q-150 0 -212.5 75.5t-62.5 237.5 q0 26 4 100zM717 1161h-217l-297 277h325z" />
<glyph unicode="&#x1eee;" horiz-adv-x="1460" d="M1538 1188l-217 -307h-199l109 307l22 266h307zM1108 1434l-88 -994q-23 -250 -133.5 -352t-339.5 -102q-402 0 -402 383q0 9 5 71l88 994h280l-88 -1002q-4 -58 -4 -61q0 -144 141 -144q155 0 170 174l90 1033h281zM342 1583l18 215q85 66 201 66q50 0 150.5 -40 t138.5 -40q100 0 190 74l-18 -216q-73 -65 -203 -65q-53 0 -149 40t-138 40q-51 0 -102.5 -21t-87.5 -53z" />
<glyph unicode="&#x1eef;" horiz-adv-x="1351" d="M1425 772l-218 -307h-198l108 307l23 266h307zM190 1024h273l-51 -600q-1 -18 -3.5 -51t-2.5 -41q0 -67 22.5 -91t73.5 -24q41 0 74.5 25.5t53.5 66t31.5 82.5t14.5 82l47 551h272l-88 -1024h-221l-10 102q-110 -120 -270 -120q-150 0 -212.5 75.5t-62.5 237.5 q0 26 4 100zM285 1167l18 215q85 66 201 66q50 0 150.5 -40t138.5 -40q100 0 190 74l-18 -215q-74 -66 -203 -66q-53 0 -149 40t-138 40q-51 0 -102.5 -21t-87.5 -53z" />
<glyph unicode="&#x1ef0;" horiz-adv-x="1136" d="M662 -373h-292l20 236h293zM1538 1188l-217 -307h-199l109 307l22 266h307zM1108 1434l-88 -994q-23 -250 -133.5 -352t-339.5 -102q-402 0 -402 383q0 9 5 71l88 994h280l-88 -1002q-4 -58 -4 -61q0 -144 141 -144q155 0 170 174l90 1033h281z" />
<glyph unicode="&#x1ef1;" horiz-adv-x="1060" d="M521 -377h-293l21 236h293zM1425 772l-218 -307h-198l108 307l23 266h307zM190 1024h273l-51 -600q-1 -18 -3.5 -51t-2.5 -41q0 -67 22.5 -91t73.5 -24q41 0 74.5 25.5t53.5 66t31.5 82.5t14.5 82l47 551h272l-88 -1024h-221l-10 102q-110 -120 -270 -120 q-150 0 -212.5 75.5t-62.5 237.5q0 26 4 100z" />
<glyph unicode="&#x1ef2;" horiz-adv-x="1087" d="M769 1577h-217l-297 276h326zM1171 1434l-454 -803l-53 -631h-287l53 631l-305 803h297l178 -553l277 553h294z" />
<glyph unicode="&#x1ef3;" horiz-adv-x="1009" d="M693 1161h-217l-297 277h326zM1036 1024l-358 -1110q-89 -276 -316 -276q-121 0 -184 10l21 231q50 -6 100 -6q84 0 109 90l10 37h-70l-239 1024h286l129 -797l244 797h268z" />
<glyph unicode="&#x1ef4;" horiz-adv-x="1087" d="M636 -358h-293l20 235h293zM1171 1434l-454 -803l-53 -631h-287l53 631l-305 803h297l178 -553l277 553h294z" />
<glyph unicode="&#x1ef5;" horiz-adv-x="1009" d="M478 -721h-293l21 236h293zM1036 1024l-358 -1110q-89 -276 -316 -276q-121 0 -184 10l21 231q50 -6 100 -6q84 0 109 90l10 37h-70l-239 1024h286l129 -797l244 797h268z" />
<glyph unicode="&#x1ef8;" horiz-adv-x="1087" d="M324 1583l18 215q85 66 201 66q50 0 150.5 -40t138.5 -40q100 0 190 74l-18 -216q-73 -65 -203 -65q-53 0 -149 40t-138 40q-51 0 -102.5 -21t-87.5 -53zM1171 1434l-454 -803l-53 -631h-287l53 631l-305 803h297l178 -553l277 553h294z" />
<glyph unicode="&#x1ef9;" horiz-adv-x="1009" d="M248 1167l18 215q85 66 201 66q50 0 150 -40t138 -40q101 0 191 74l-19 -215q-74 -66 -202 -66q-53 0 -149 40t-138 40q-51 0 -102.5 -21t-87.5 -53zM1036 1024l-358 -1110q-89 -276 -316 -276q-121 0 -184 10l21 231q50 -6 100 -6q84 0 109 90l10 37h-70l-239 1024h286 l129 -797l244 797h268z" />
<glyph unicode="&#x2013;" horiz-adv-x="1126" d="M995 502h-819l21 235h819z" />
<glyph unicode="&#x2014;" horiz-adv-x="1239" d="M1149 502h-1014l21 235h1013z" />
<glyph unicode="&#x2018;" horiz-adv-x="481" d="M158 1110l176 322h190l-90 -322l-20 -225h-277z" />
<glyph unicode="&#x2019;" horiz-adv-x="481" d="M483 1208l-168 -321h-198l90 321l20 226h277z" />
<glyph unicode="&#x201a;" horiz-adv-x="481" d="M379 0l-168 -322h-199l90 322l19 225h276z" />
<glyph unicode="&#x201c;" horiz-adv-x="829" d="M158 1110l168 322h198l-90 -322l-20 -225h-277zM506 1110l168 322h198l-90 -322l-20 -225h-277z" />
<glyph unicode="&#x201d;" horiz-adv-x="808" d="M831 1208l-167 -321h-199l90 321l20 226h277zM483 1208l-168 -321h-198l90 321l20 226h277z" />
<glyph unicode="&#x201e;" horiz-adv-x="808" d="M727 0l-168 -322h-199l91 322l18 225h276zM379 0l-168 -322h-199l90 322l19 225h276z" />
<glyph unicode="&#x2020;" horiz-adv-x="962" d="M596 0h-266l67 788h-247l20 236h248l37 410h266l-37 -410h246l-21 -236h-245z" />
<glyph unicode="&#x2021;" horiz-adv-x="962" d="M596 0h-266l35 410h-248l20 235h248l14 164h-247l20 235h248l35 390h266l-35 -390h246l-21 -235h-245l-15 -164h246l-20 -235h-246z" />
<glyph unicode="&#x2022;" horiz-adv-x="624" d="M539 440h-420l35 400h419z" />
<glyph unicode="&#x2026;" horiz-adv-x="1536" d="M389 0h-307l22 266h308zM901 0h-307l22 266h308zM1413 0h-307l22 266h308z" />
<glyph unicode="&#x2030;" horiz-adv-x="2598" d="M2257 418q8 106 8 127q0 73 -19 100t-65 27q-61 0 -84.5 -48t-36.5 -206q-6 -77 -6 -127q0 -73 18 -100t64 -27q61 0 85 50.5t36 203.5zM621 1016q8 106 8 127q0 73 -19 100t-65 27q-61 0 -84.5 -48t-36.5 -206q-8 -106 -8 -129q0 -72 18.5 -98.5t65.5 -26.5q61 0 84 50 t37 204zM844 1024q-8 -84 -19.5 -145t-37 -121t-63.5 -96.5t-98.5 -59t-142.5 -22.5q-155 0 -220.5 90t-65.5 254q0 99 8.5 174t32.5 144.5t64 113.5t105 70t154 26q156 0 221.5 -83.5t65.5 -244.5q0 -65 -4 -100zM1415 1434l-627 -1434h-241l627 1434h241zM1534 418 q8 106 8 127q0 73 -19 100t-65 27q-61 0 -84.5 -48t-36.5 -206q-6 -77 -6 -127q0 -73 18 -100t64 -27q61 0 85 50.5t36 203.5zM1757 426q-8 -85 -19.5 -145.5t-37 -120.5t-63 -96.5t-98 -59t-142.5 -22.5q-155 0 -221 90t-66 254q0 99 8.5 174t32.5 144.5t64.5 113.5 t105.5 70t154 26q156 0 221 -83.5t65 -244.5q0 -65 -4 -100zM2480 426q-8 -85 -19.5 -145.5t-37 -120.5t-63 -96.5t-98 -59t-142.5 -22.5q-155 0 -221 90t-66 254q0 99 8.5 174t32.5 144.5t64.5 113.5t105.5 70t154 26q156 0 221 -83.5t65 -244.5q0 -65 -4 -100z" />
<glyph unicode="&#x2039;" horiz-adv-x="604" d="M500 188h-224l-141 424l215 424h219l-159 -424z" />
<glyph unicode="&#x203a;" horiz-adv-x="604" d="M319 188h-223l164 424l-86 424h219l142 -424z" />
<glyph unicode="&#x203c;" horiz-adv-x="1105" d="M963 0h-308l23 266h307zM985 467h-276l86 967h276zM410 0h-308l23 266h307zM432 467h-276l86 967h276z" />
<glyph unicode="&#x2044;" horiz-adv-x="471" d="M797 1659l-797 -1864h-242l795 1864h244z" />
<glyph unicode="&#x20ac;" horiz-adv-x="962" d="M877 258l-23 -250q-34 -9 -108.5 -17.5t-124.5 -8.5q-98 0 -165.5 21.5t-119.5 75.5t-78 152t-27 244h-159l57 191h109q3 27 12 137h-150l58 190h116q17 98 39 170.5t53.5 123.5t67.5 83t87 50.5t105.5 25t129.5 6.5q40 0 119.5 -10.5t101.5 -18.5l-70 -237 q-98 20 -200 20q-43 0 -69 -15t-47.5 -62t-37.5 -136h305l-55 -190h-273q-11 -124 -12 -137h246l-53 -191h-201q0 -100 15 -155t42 -74t74 -19q99 0 236 31z" />
<glyph unicode="&#x2122;" horiz-adv-x="1658" d="M1559 397h-211l75 856l-170 -514h-200l-68 514l-76 -856h-213l76 850h-184l-76 -850h-221l76 850h-217l16 187h975l47 -400l108 400h355z" />
<glyph unicode="&#x2126;" horiz-adv-x="1163" d="M496 221l-19 -221h-395l18 221h93q-56 133 -56 340q0 64 8 172q14 155 34.5 261t59 199t96 147t145 84t208.5 30q231 0 328.5 -125.5t97.5 -392.5q0 -223 -37 -414t-96 -301h82l-19 -221h-395l19 221q61 37 95 151t54 351q12 144 12 238q0 158 -36.5 215t-124.5 57 q-76 0 -119.5 -40t-72.5 -150t-48 -320q-12 -141 -12 -236q0 -117 19 -179t61 -87z" />
<glyph unicode="&#x2202;" horiz-adv-x="962" d="M88 430q12 130 34 218t66 157t116 102t177 33q96 0 183 -53q0 13 1 36.5t1 34.5q0 156 -43 212.5t-152 56.5q-97 0 -225 -29l18 229q33 8 103.5 16.5t115.5 8.5q88 0 155 -14.5t124.5 -51t94 -96.5t57 -152.5t20.5 -217.5q0 -73 -8 -181q-20 -226 -52.5 -368t-92 -231 t-143.5 -123.5t-214 -34.5q-43 0 -85.5 9.5t-89.5 36t-82.5 67t-59 110t-23.5 157.5q0 18 4 68zM510 719q-152 0 -152 -361q0 -89 25.5 -120t85.5 -31q38 0 62 15.5t46.5 65t39 145t30.5 251.5q-72 35 -137 35z" />
<glyph unicode="&#x2206;" horiz-adv-x="1105" d="M1055 0h-1045l455 1434h399zM750 231l-101 986l-284 -986h385z" />
<glyph unicode="&#x220f;" horiz-adv-x="1216" d="M1229 1198h-187l-73 -856q-4 -50 -4 -57q0 -31 13.5 -45.5t47.5 -14.5q25 0 55 6l-18 -225q-68 -14 -170 -14q-207 0 -207 235q0 44 4 84l78 887h-174l-105 -1198h-276l104 1198h-161l20 236h1073z" />
<glyph unicode="&#x2211;" horiz-adv-x="962" d="M819 -348h-788l22 274l400 621l-265 610l25 277h739l-20 -236h-457l275 -651l-420 -662h510z" />
<glyph unicode="&#x2212;" horiz-adv-x="1126" d="M1006 502h-840l20 235h840z" />
<glyph unicode="&#x2215;" horiz-adv-x="471" d="M797 1659l-797 -1864h-242l795 1864h244z" />
<glyph unicode="&#x2219;" horiz-adv-x="512" d="M432 500h-307l22 266h308z" />
<glyph unicode="&#x221a;" horiz-adv-x="1228" d="M1364 1444h-190l-465 -1444h-447l-172 803h281l125 -606l460 1482h428z" />
<glyph unicode="&#x221e;" horiz-adv-x="1495" d="M522 1032q76 0 152 -34t119 -99q115 133 317 133q175 0 263.5 -83.5t88.5 -227.5q0 -92 -21.5 -163t-68.5 -126t-129 -84t-196 -29q-76 0 -152 34t-121 98q-118 -132 -315 -132q-175 0 -265 84t-90 230q0 399 418 399zM1069 530q62 0 106 44t44 124q0 60 -35 91.5 t-88 31.5q-82 0 -132.5 -36.5t-58.5 -129.5q12 -69 59 -97t105 -28zM500 821q-59 0 -104.5 -42.5t-45.5 -119.5q0 -63 35 -96t88 -33q83 0 132.5 36.5t56.5 129.5q-11 69 -57.5 97t-104.5 28z" />
<glyph unicode="&#x2224;" horiz-adv-x="512" d="M432 500h-307l22 266h308z" />
<glyph unicode="&#x2227;" horiz-adv-x="512" d="M432 500h-307l22 266h308z" />
<glyph unicode="&#x222b;" horiz-adv-x="675" d="M831 1673l-20 -231q-90 22 -170 22q-86 0 -96 -94l-133 -1530q-9 -98 -32.5 -162.5t-68 -103t-105 -54.5t-149.5 -16q-69 0 -170 11l21 229q50 -6 125 -6q56 0 78 19t26 73l133 1522q9 104 34 172.5t69.5 106t100 52.5t136.5 15q93 0 221 -25z" />
<glyph unicode="&#x2248;" horiz-adv-x="1044" d="M186 641l21 246q118 67 221 67q62 0 166.5 -40t155.5 -40q91 0 200 70l-20 -246q-108 -67 -219 -67q-64 0 -164 42t-156 42q-89 0 -205 -74zM156 295l20 246q118 67 221 67q62 0 166.5 -40t155.5 -40q92 0 201 70l-21 -246q-108 -67 -219 -67q-64 0 -164 42t-156 42 q-88 0 -204 -74z" />
<glyph unicode="&#x2260;" horiz-adv-x="1126" d="M977 297h-457l-123 -195h-256l123 195h-106l20 235h234l110 175h-327l20 235h457l123 195h256l-123 -195h106l-20 -235h-236l-110 -175h329z" />
<glyph unicode="&#x2264;" horiz-adv-x="1126" d="M952 0h-819l21 236h819zM975 279l-795 262l29 333l848 320l-25 -272l-610 -211l577 -164z" />
<glyph unicode="&#x2265;" horiz-adv-x="1126" d="M952 0h-819l21 236h819zM999 541l-843 -262l24 276l606 164l-573 211l25 264l790 -320z" />
</font>
</defs>
</svg>
