<?xml version="1.0" standalone="no"?>
<!DOCTYPE svg PUBLIC "-//W3C//DTD SVG 1.1//EN" "http://www.w3.org/Graphics/SVG/1.1/DTD/svg11.dtd" >
<svg xmlns="http://www.w3.org/2000/svg">
<metadata>
This is a custom SVG webfont generated by Font Squirrel.
Copyright   : Copyright c This Font is designed by Ralph Oliver du Carrois 2005 All rights reserved
Designer    : Ralph du Carrois
Foundry     : This Font is designed by Ralph Oliver du Carrois
</metadata>
<defs>
<font id="Share-BoldRegular" horiz-adv-x="962" >
<font-face units-per-em="2048" ascent="1655" descent="-393" />
<missing-glyph horiz-adv-x="573" />
<glyph unicode=" "  horiz-adv-x="573" />
<glyph unicode="&#x09;" horiz-adv-x="573" />
<glyph unicode="&#xa0;" horiz-adv-x="573" />
<glyph unicode="!" horiz-adv-x="552" d="M123 0v266h307v-266h-307zM137 467v967h277v-967h-277z" />
<glyph unicode="&#x22;" horiz-adv-x="860" d="M82 1208v226h297v-226l-62 -321h-174zM481 1208v226h297v-226l-61 -321h-174z" />
<glyph unicode="#" horiz-adv-x="1015" d="M31 348l20 236h123l25 286h-123l20 236h123l29 328h260l-29 -328h123l29 328h260l-29 -328h123l-20 -236h-123l-25 -286h123l-20 -236h-123l-31 -348h-260l31 348h-123l-31 -348h-260l31 348h-123zM434 584h123l25 286h-123z" />
<glyph unicode="$" d="M106 987q0 297 256 373v237h256v-213q104 -6 193 -28v-242q-131 31 -254 31q-84 0 -125 -27.5t-41 -107.5q0 -74 33 -115t113 -57q158 -33 238.5 -126.5t80.5 -285.5q0 -186 -59.5 -283.5t-178.5 -132.5v-235h-256v211q-139 4 -233 28v244q119 -31 244 -31q109 0 153 42 q45 43 45 137q0 168 -163 200q-302 64 -302 381z" />
<glyph unicode="%" horiz-adv-x="1875" d="M133 1024q0 213 68.5 320.5t253 107.5t253 -107.5t68.5 -320.5q0 -215 -68.5 -329.5t-253 -114.5t-253 114.5t-68.5 329.5zM356 1016q0 -154 18.5 -204t80 -50t80 50t18.5 204q0 156 -19.5 205t-78.5 49q-61 0 -80 -48t-19 -206zM567 0l502 1434h242l-502 -1434h-242z M1100 426q0 213 68.5 320.5t253 107.5t253 -107.5t68.5 -320.5q0 -215 -68.5 -329.5t-253 -114.5t-253 114.5t-68.5 329.5zM1323 418q0 -154 18.5 -204t80 -50t80 50t18.5 204q0 156 -19.5 205t-79.5 49q-61 0 -79.5 -48t-18.5 -206z" />
<glyph unicode="&#x26;" horiz-adv-x="1054" d="M92 438q0 164 36 253t128 126q-137 82 -137 256q0 217 89 297t284 80q72 0 169 -10t117 -17v-231q-23 6 -105.5 16.5t-123.5 10.5q-90 0 -122 -28t-32 -106q0 -98 33 -131.5t129 -33.5h467v-232h-150v-670q-207 -39 -403 -38q-205 0 -292 106t-87 352zM371 418 q0 -106 29.5 -156.5t105.5 -50.5q66 0 108 14v463h-88q-90 0 -122.5 -55t-32.5 -215z" />
<glyph unicode="'" horiz-adv-x="460" d="M82 1208v226h297v-226l-62 -321h-174z" />
<glyph unicode="(" horiz-adv-x="665" d="M82 716.5q0 573.5 260 962.5h231q-123 -207 -169 -429t-46 -533.5t46.5 -533.5t168.5 -429h-231q-260 389 -260 962.5z" />
<glyph unicode=")" horiz-adv-x="665" d="M92 -246q123 207 169 429.5t46 533.5t-46 533.5t-169 428.5h232q260 -389 260 -962.5t-260 -962.5h-232z" />
<glyph unicode="*" horiz-adv-x="1075" d="M82 1065l86 250l266 -117q-4 45 -16 149.5l-17 147.5h275l-31 -297q45 16 138.5 56t131.5 55l78 -248l-274 -45l199 -242l-218 -151l-163 280q-29 -45 -86.5 -145.5t-81.5 -139.5l-213 160l202 234q-53 12 -152 30.5t-124 22.5z" />
<glyph unicode="+" horiz-adv-x="1146" d="M141 502v235h308v324h249v-324h308v-235h-308v-324h-249v324h-308z" />
<glyph unicode="," horiz-adv-x="512" d="M20 -307l82 307v266h308v-266l-189 -307h-201z" />
<glyph unicode="-" horiz-adv-x="1013" d="M154 502v235h706v-235h-706z" />
<glyph unicode="." horiz-adv-x="512" d="M102 0v266h308v-266h-308z" />
<glyph unicode="/" horiz-adv-x="665" d="M-41 -225l483 1884h265l-484 -1884h-264z" />
<glyph unicode="0" d="M72 733q0 158 8 261.5t32.5 197.5t69.5 147.5t119 83t180.5 29.5t180 -29.5t118.5 -83t69.5 -147.5t33 -197.5t8.5 -261.5q0 -162 -9.5 -272.5t-35 -207.5t-70.5 -152.5t-117.5 -87t-177 -31.5t-177.5 31.5t-118 87t-70.5 152.5t-34.5 207.5t-9 272.5zM344 723 q0 -121 1 -190.5t6 -135t13.5 -96.5t25 -55.5t38 -30.5t54 -6t54 6t38 30.5t24.5 55.5t13 96.5t6 135t1 190.5q0 119 -1 186.5t-6 132t-13 94t-24.5 53t-38 30t-54 6.5t-54 -6.5t-38 -31t-25 -54t-13.5 -93t-6 -132t-1 -185.5z" />
<glyph unicode="1" d="M121 1081v250l239 103h293v-1203h197v-231h-709v231h240v953z" />
<glyph unicode="2" d="M104 0v258l287 389q100 129 126 202t26 193q0 96 -38 137.5t-132 41.5q-68 0 -232 -37v233q190 35 260 35q236 0 324 -102.5t88 -325.5q0 -147 -25.5 -229t-121.5 -211l-256 -351h409v-233h-715z" />
<glyph unicode="3" d="M123 16v228q168 -35 256 -35q76 0 119 51t43 146q0 123 -37 175t-129 52h-158v223h137q164 0 164 195q0 88 -33.5 131t-109.5 43q-74 0 -242 -35v227q190 35 268 35q205 0 297.5 -90t92.5 -318q0 -102 -37 -182t-117 -106q178 -35 178 -330q0 -444 -403 -444 q-133 -1 -289 34z" />
<glyph unicode="4" d="M102 319v259l193 856h264l-197 -883h136l45 385h231v-385h123v-232h-123v-319h-276v319h-396z" />
<glyph unicode="5" d="M123 16v230q156 -35 264 -35q164 0 164 225q0 152 -41 201t-129 49h-238v748h641v-232h-368v-299h10q221 0 310 -98t89 -348q0 -260 -104.5 -367.5t-290.5 -107.5q-133 -1 -307 34z" />
<glyph unicode="6" d="M80 727q0 283 58.5 443.5t164 221t283.5 60.5q121 0 215 -25v-229q-125 29 -223 29q-117 0 -165 -72t-57 -268q92 53 187 53q199 0 273.5 -116.5t74.5 -383.5q0 -246 -114.5 -352t-301.5 -106q-137 0 -219 60t-129 227t-47 458zM352 684q0 -209 16.5 -314.5t42 -134 t78.5 -28.5q72 0 100.5 54t28.5 202q0 135 -28.5 195.5t-96 60.5t-141.5 -35z" />
<glyph unicode="7" d="M92 1194v240h707v-281l-322 -1153h-284l335 1194h-436z" />
<glyph unicode="8" d="M55 428q0 238 183 305q-68 29 -111 120t-43 183q0 229 100.5 322.5t297 93.5t297 -93t100.5 -323q0 -76 -40 -154.5t-120 -115.5q94 -23 141 -118t47 -220q0 -223 -100 -334.5t-325.5 -111.5t-326 111.5t-100.5 334.5zM328 407.5q0 -114.5 33.5 -158.5t119.5 -44t120 44 t34 159q0 135 -39 185t-184 50q-51 -33 -67.5 -77t-16.5 -158.5zM352 1055q0 -109 35 -155t154 -46q70 43 69 201q0 102 -25.5 140t-99.5 38q-68 0 -100.5 -41t-32.5 -137z" />
<glyph unicode="9" d="M57 993q0 459 416 459q102 0 171 -28.5t122 -106.5t77.5 -221.5t24.5 -362.5q0 -190 -20.5 -325.5t-57 -218.5t-99 -129t-132.5 -62t-172 -16q-125 0 -219 24v230q125 -29 227 -29q106 0 147.5 64.5t49.5 275.5q-86 -53 -186 -53q-195 0 -272 124.5t-77 374.5zM330 971 q0 -135 28.5 -195.5t96.5 -60.5q76 0 141 35q0 223 -17.5 328.5t-42 127t-77.5 21.5q-68 0 -98.5 -55.5t-30.5 -200.5z" />
<glyph unicode=":" horiz-adv-x="512" d="M102 0v266h308v-266h-308zM102 758v266h308v-266h-308z" />
<glyph unicode=";" horiz-adv-x="512" d="M20 -307l82 307v266h308v-266l-189 -307h-201zM102 758v266h308v-266h-308z" />
<glyph unicode="&#x3c;" horiz-adv-x="1126" d="M154 514v334l819 346v-268l-613 -238l613 -239v-273z" />
<glyph unicode="=" horiz-adv-x="1126" d="M154 297v235h819v-235h-819zM154 707v235h819v-235h-819z" />
<glyph unicode="&#x3e;" horiz-adv-x="1126" d="M154 176v273l612 239l-612 238v268l819 -346v-334z" />
<glyph unicode="?" horiz-adv-x="778" d="M61 1188v231q141 33 261 33q213 0 304 -74.5t91 -296.5q0 -98 -22.5 -156.5t-86.5 -133.5l-149 -181v-143h-277v223l164 201q57 72 75.5 104.5t18.5 81.5q0 82 -29.5 112t-134.5 30q-88 0 -215 -31zM168 0v266h307v-266h-307z" />
<glyph unicode="@" horiz-adv-x="1726" d="M154 707q0 426 158.5 585.5t553.5 159.5q203 0 328 -24.5t215 -94t127 -192.5t37 -320q0 -131 -12.5 -225t-45 -181t-102.5 -132t-174 -45q-78 0 -140.5 42t-86.5 132q-74 -117 -228 -117q-133 0 -203.5 81t-70.5 310q0 135 29.5 224t90 131t126 57.5t162.5 15.5 q141 0 264 -29v-591q0 -61 53 -62q49 0 59.5 56.5t10.5 332.5q0 100 -4.5 158.5t-22.5 109t-43 73t-80 40t-117.5 20.5t-171.5 3q-145 0 -227 -19.5t-133 -79t-67.5 -154.5t-16.5 -265q0 -166 15.5 -259.5t65.5 -149.5t124.5 -72.5t210.5 -16.5q137 0 270 14v-225 q-143 -16 -270 -16q-403 0 -543.5 150.5t-140.5 574.5zM756 707q0 -119 18.5 -162t73.5 -43q43 0 66.5 24.5t27.5 49t4 63.5v264q-41 10 -96 10q-94 1 -94 -206z" />
<glyph unicode="A" horiz-adv-x="1116" d="M31 0l327 1434h414l313 -1434h-288l-66 334h-342l-65 -334h-293zM436 575h250l-127 678z" />
<glyph unicode="B" horiz-adv-x="1120" d="M143 0v1434q238 18 373 18q248 0 350.5 -90t102.5 -299q0 -240 -183 -291q92 -10 157 -94t65 -238q0 -264 -119 -361t-340 -97q-76 0 -177.5 5t-164.5 9zM424 233q72 -6 147 -6q152 0 152 211q0 201 -176 201h-123v-406zM424 868h108q86 0 123 41t37 135q0 78 -34.5 121 t-96.5 43l-137 -8v-332z" />
<glyph unicode="C" horiz-adv-x="886" d="M102 739q0 229 29 372.5t96.5 216.5t147.5 96.5t209 23.5q41 0 118.5 -10.5t102.5 -18.5v-248q-127 31 -248 31q-66 0 -98.5 -29.5t-52 -134t-19.5 -313.5q0 -211 17.5 -317.5t51 -141.5t101.5 -35q119 0 248 31v-246q-113 -31 -248 -30q-125 0 -205 30.5t-139 112.5 t-85 230.5t-26 379.5z" />
<glyph unicode="D" horiz-adv-x="1118" d="M143 0v1434q248 20 363 20q133 0 220 -27.5t156.5 -102.5t101.5 -218t32 -367q0 -299 -57.5 -468t-159 -230t-269.5 -61zM424 236q39 -8 125 -9q98 0 140 105.5t42 392.5q0 215 -21.5 321.5t-55 133t-103.5 26.5l-127 -8v-962z" />
<glyph unicode="E" horiz-adv-x="978" d="M143 0v1434h734v-222h-453v-362h401v-219h-401v-410h453v-221h-734z" />
<glyph unicode="F" horiz-adv-x="989" d="M174 0v1434h733v-222h-452v-383h401v-221h-401v-608h-281z" />
<glyph unicode="G" horiz-adv-x="1044" d="M102 739q0 223 33 365.5t104.5 218.5t162 102.5t227.5 26.5q102 0 260 -35v-241q-162 31 -281 30q-90 0 -135 -36.5t-65.5 -138t-20.5 -306.5q0 -303 38 -400.5t148 -97.5q59 0 86 2v324h-131v242h404v-777q-195 -37 -352 -36q-180 0 -279.5 62t-149 226t-49.5 469z" />
<glyph unicode="H" horiz-adv-x="1167" d="M143 0v1434h281v-592h319v592h281v-1434h-281v608h-319v-608h-281z" />
<glyph unicode="I" horiz-adv-x="710" d="M72 0v217h143v1000h-143v217h567v-217h-143v-1000h143v-217h-567z" />
<glyph unicode="J" horiz-adv-x="851" d="M61 8v244q115 -20 218 -21q94 0 126.5 62.5t32.5 226.5v672h-291v242h572v-899q0 -319 -85 -437t-323 -118q-119 -1 -250 28z" />
<glyph unicode="K" horiz-adv-x="1120" d="M143 0v1434h281v-496l330 496h315l-428 -623l438 -811h-323l-291 563l-41 -63v-500h-281z" />
<glyph unicode="L" horiz-adv-x="860" d="M143 0v1434h281v-1196h416v-238h-697z" />
<glyph unicode="M" horiz-adv-x="1363" d="M143 0v1434h426l121 -551l123 551h408v-1434h-254v1227l-176 -746h-213l-185 746v-1227h-250z" />
<glyph unicode="N" horiz-adv-x="1212" d="M143 0v1434h408l274 -1174v1174h244v-1434h-407l-271 1151v-1151h-248z" />
<glyph unicode="O" horiz-adv-x="1163" d="M102 733q0 385 99.5 553t380 168t380 -168t99.5 -553q0 -203 -18.5 -332t-68.5 -230t-146.5 -146t-246 -45t-245.5 45t-146.5 146t-69 230t-18.5 332zM387 723q0 -305 42 -413.5t152.5 -108.5t152.5 108.5t42 413.5q0 307 -41 408.5t-153.5 101.5t-153.5 -101.5 t-41 -408.5z" />
<glyph unicode="P" horiz-adv-x="1064" d="M143 0v1434q207 20 377 20q266 0 369.5 -116.5t103.5 -360.5q0 -262 -110.5 -372.5t-341.5 -110.5h-117v-494h-281zM424 735h129q72 0 114 61.5t42 166.5q0 125 -34 185t-118 60q-39 0 -72.5 -3t-46.5 -5l-14 -4v-461z" />
<glyph unicode="Q" horiz-adv-x="1163" d="M102 733q0 385 99.5 553t380 168t380 -168t99.5 -553q0 -279 -45 -444.5t-158 -241.5l203 -47v-254l-553 238q-102 8 -174 45t-117 94t-70.5 151.5t-35 200.5t-9.5 258zM387 723q0 -305 42 -413.5t152.5 -108.5t152.5 108.5t42 413.5q0 307 -41 408.5t-153.5 101.5 t-153.5 -101.5t-41 -408.5z" />
<glyph unicode="R" horiz-adv-x="1091" d="M143 0v1434q207 20 377 20q256 0 357.5 -108.5t101.5 -346.5q0 -313 -195 -411l256 -588h-317l-217 541h-82v-541h-281zM424 782h129q66 0 103.5 52.5t37.5 150.5q0 123 -29.5 173t-115.5 50l-125 -12v-414z" />
<glyph unicode="S" horiz-adv-x="868" d="M51 1036q0 221 122 316.5t366 95.5q143 0 254 -31v-241q-131 31 -275 30q-182 0 -182 -147q0 -96 31.5 -131t130.5 -56q162 -33 245.5 -132t83.5 -314q0 -139 -33.5 -230.5t-102 -135.5t-145.5 -59t-192 -15q-174 0 -291 30v244q127 -33 271 -33q209 0 209 179 q0 106 -42 153t-132 66q-170 35 -244 132t-74 279z" />
<glyph unicode="T" horiz-adv-x="911" d="M20 1186v248h871v-248h-295v-1186h-281v1186h-295z" />
<glyph unicode="U" horiz-adv-x="1136" d="M133 440v994h281v-1033q0 -174 155 -174q154 0 154 174v1033h281v-994q0 -246 -109 -350t-326 -104t-326.5 104t-109.5 350z" />
<glyph unicode="V" horiz-adv-x="1110" d="M51 1434h295l215 -1233l223 1233h275l-289 -1434h-432z" />
<glyph unicode="W" horiz-adv-x="1286" d="M92 1434h250l55 -1215l146 610h233l129 -610l58 1215h231l-70 -1434h-395l-86 481l-102 -481h-379z" />
<glyph unicode="X" horiz-adv-x="1075" d="M31 0l368 743l-327 691h311l168 -424l174 424h305l-342 -689l356 -745h-317l-188 475l-203 -475h-305z" />
<glyph unicode="Y" horiz-adv-x="1087" d="M20 1434h304l227 -553l227 553h289l-383 -803v-631h-287v631z" />
<glyph unicode="Z" horiz-adv-x="954" d="M72 0v272l512 918h-465v244h764v-273l-510 -917h489v-244h-790z" />
<glyph unicode="[" horiz-adv-x="675" d="M143 -246v1925h451v-235h-184v-1444h184v-246h-451z" />
<glyph unicode="\" horiz-adv-x="665" d="M-41 1659h264l484 -1884h-265z" />
<glyph unicode="]" horiz-adv-x="675" d="M82 0h184v1444h-184v235h450v-1925h-450v246z" />
<glyph unicode="^" horiz-adv-x="1017" d="M61 860l275 696h356l264 -696h-309l-133 492l-170 -492h-283z" />
<glyph unicode="_" horiz-adv-x="1044" d="M6 -102h1032v-246h-1032v246z" />
<glyph unicode="`" horiz-adv-x="641" d="M51 1464h326l213 -276h-228z" />
<glyph unicode="a" horiz-adv-x="1042" d="M92 309q0 180 109.5 261t324.5 81h92v43q0 123 -137 123q-152 0 -315 -49v233q137 41 315 41q129 0 211 -20.5t125 -69.5t58.5 -111.5t15.5 -164.5v-406q0 -66 80 -65v-205h-119q-129 0 -176 84q-82 -102 -270 -102q-314 -1 -314 327zM369 324q0 -113 114 -113 q74 0 104.5 46t30.5 101v93h-102q-147 0 -147 -127z" />
<glyph unicode="b" horiz-adv-x="1058" d="M133 10v1424h273v-463q96 72 217 71q174 0 253.5 -104t79.5 -360q0 -336 -107.5 -466t-377.5 -130q-125 -1 -338 28zM406 219q57 -4 83 -4q115 0 153 66.5t38 275.5q0 152 -27.5 202t-101.5 50q-63 0 -104 -47t-41 -107v-436z" />
<glyph unicode="c" horiz-adv-x="833" d="M102 532q0 268 104.5 389t311.5 121q115 0 234 -28v-240q-133 29 -222 29q-78 0 -112.5 -63.5t-34.5 -247.5q0 -150 35 -210.5t108 -60.5q59 0 226 29v-238q-109 -31 -236 -30q-109 0 -178.5 20.5t-126.5 78.5t-83 168.5t-26 282.5z" />
<glyph unicode="d" horiz-adv-x="1073" d="M102 485q0 309 114 433t378 124q14 0 38.5 -1t35.5 -1v394h272v-1434h-221l-21 84q-109 -102 -256 -102q-180 0 -260 108t-80 395zM379 467q0 -150 29.5 -201t105.5 -51q66 0 110 48t44 106v434q-10 0 -30 2t-35 3t-28 1q-111 0 -153.5 -68.5t-42.5 -273.5z" />
<glyph unicode="e" horiz-adv-x="1001" d="M102 512q0 276 106.5 403t313.5 127q221 0 304 -112.5t83 -345.5v-172h-530q6 -115 42 -156t128 -41q135 0 285 31v-230q-123 -35 -285 -34q-121 0 -197 19t-136 74.5t-87 162t-27 274.5zM381 612h266v54q0 152 -129 151q-66 0 -97.5 -45t-39.5 -160z" />
<glyph unicode="f" horiz-adv-x="698" d="M51 793v231h133v82q0 201 73 273.5t237 72.5q102 0 225 -25v-231q-94 23 -174 23q-88 0 -88 -95v-100h223v-231h-223v-793h-273v793h-133z" />
<glyph unicode="g" horiz-adv-x="1122" d="M92 684q0 92 27.5 158.5t70.5 104.5t109 59.5t127 28.5t141 7q100 0 178 -24l336 14v-209l-131 8q29 -74 29 -163q0 -180 -114.5 -265.5t-348.5 -85.5q-66 0 -121 7q-12 -25 -12 -60q0 -12 4 -33q133 12 242 13q195 0 291 -75t96 -255q0 -80 -26.5 -136.5t-67.5 -89 t-105.5 -52t-127 -24.5t-146.5 -5q-74 0 -206 12t-192 23v221q197 -35 410 -35q102 0 141 21.5t39 70.5q0 92 -125 92q-190 0 -370 -22q-37 33 -67 95t-30 136q0 106 54 178q-105 88 -105 285zM365 668q0 -133 151 -133q100 0 145.5 29.5t45.5 119.5q0 76 -35 106.5 t-125 30.5q-106 0 -144 -33.5t-38 -119.5z" />
<glyph unicode="h" horiz-adv-x="1073" d="M133 0v1434h273v-461q92 70 212 69q201 0 266.5 -92t65.5 -315v-635h-272v641q0 96 -27.5 131t-87.5 35q-74 0 -113.5 -42t-43.5 -101v-664h-273z" />
<glyph unicode="i" horiz-adv-x="538" d="M123 1198v236h293v-236h-293zM133 0v1024h273v-1024h-273z" />
<glyph unicode="j" horiz-adv-x="538" d="M-92 -123q51 -6 129 -6q55 0 75.5 19.5t20.5 72.5v1061h273v-1051q0 -190 -74 -262.5t-250 -72.5q-82 0 -174 10v229zM123 1198v236h293v-236h-293z" />
<glyph unicode="k" horiz-adv-x="1013" d="M133 0v1434h273v-717l245 307h312l-347 -410l367 -614h-313l-221 424l-43 -55v-369h-273z" />
<glyph unicode="l" horiz-adv-x="593" d="M133 303v1131h273v-1121q0 -51 13 -69.5t50 -18.5q33 0 74 8v-227q-76 -16 -187 -16q-125 0 -174 73.5t-49 239.5z" />
<glyph unicode="m" horiz-adv-x="1536" d="M133 0v1024h221l17 -76q98 94 227 94q182 0 252 -104q100 104 252 104q193 0 252 -93t59 -314v-635h-272v641q0 98 -21.5 132t-72.5 34q-66 0 -100 -42t-38 -101v-664h-272v641q0 98 -21.5 132t-72.5 34q-68 0 -102.5 -46t-34.5 -108v-653h-273z" />
<glyph unicode="n" horiz-adv-x="1073" d="M133 0v1024h221l19 -80q104 98 245 98q201 0 266.5 -92t65.5 -315v-635h-272v641q0 96 -27.5 131t-87.5 35q-74 0 -113.5 -42t-43.5 -101v-664h-273z" />
<glyph unicode="o" horiz-adv-x="1085" d="M102 532q0 262 104.5 384t334 122t336 -121.5t106.5 -384.5q0 -309 -106.5 -427.5t-336 -118.5t-334 118.5t-104.5 427.5zM381 502q0 -172 32.5 -233.5t127 -61.5t129.5 62.5t35 232.5q0 178 -36 246.5t-128 68.5t-126 -67.5t-34 -247.5z" />
<glyph unicode="p" horiz-adv-x="1062" d="M133 -348v1372h221l21 -84q102 102 252 102q174 0 254 -104t80 -360q0 -334 -106.5 -465t-375.5 -131q-49 0 -73 2v-332h-273zM406 219q57 -4 88 -4q115 0 152.5 66.5t37.5 275.5q0 152 -27.5 202t-101.5 50q-66 0 -107.5 -47t-41.5 -107v-436z" />
<glyph unicode="q" horiz-adv-x="1073" d="M102 485q0 311 111 434t373 123q170 0 354 -28v-1362h-272v409q-100 -80 -232 -79q-178 0 -256 108t-78 395zM379 467q0 -152 27.5 -202t101.5 -50q63 0 109.5 46t50.5 101v441q-4 0 -44 3t-57 3q-111 0 -149.5 -67.5t-38.5 -274.5z" />
<glyph unicode="r" horiz-adv-x="722" d="M133 0v1024h221l21 -92q94 111 213 110q47 0 94 -10v-270q-51 12 -102 12q-92 0 -133 -85t-41 -212v-477h-273z" />
<glyph unicode="s" horiz-adv-x="870" d="M92 723q0 170 102.5 244.5t323.5 74.5q96 0 236 -34v-234q-129 39 -244 39q-76 0 -108.5 -18.5t-32.5 -65.5q0 -66 133 -86q156 -25 221 -106.5t65 -227.5q0 -178 -107.5 -252.5t-303.5 -74.5q-154 0 -281 32v234q160 -37 244 -37q168 0 168 86q0 49 -26.5 72.5 t-102.5 38.5q-154 27 -220.5 103.5t-66.5 211.5z" />
<glyph unicode="t" horiz-adv-x="712" d="M41 788v236h133v246h272v-246h205v-236h-205v-481q0 -49 20.5 -70.5t65.5 -21.5q59 0 130 18v-227q-80 -25 -216 -24q-158 0 -215 89t-57 246v471h-133z" />
<glyph unicode="u" horiz-adv-x="1060" d="M123 381v643h272v-651q0 -96 28 -126t87 -30q72 0 108.5 46t36.5 108v653h273v-1024h-221l-19 80q-102 -98 -244 -98q-184 0 -252.5 94t-68.5 305z" />
<glyph unicode="v" horiz-adv-x="1007" d="M41 1022h285l182 -827l184 827h275l-265 -1024h-395z" />
<glyph unicode="w" horiz-adv-x="1314" d="M31 1024h272l96 -782l150 598h242l139 -598l98 782h256l-158 -1024h-358l-111 504l-120 -504h-349z" />
<glyph unicode="x" horiz-adv-x="1034" d="M51 0l305 532l-272 492h313l125 -244l125 244h299l-278 -467l315 -557h-315l-154 309l-162 -309h-301z" />
<glyph unicode="y" horiz-adv-x="1009" d="M41 1024h291l198 -797l175 797h264l-262 -1110q-66 -276 -291 -276q-123 0 -185 10v231q49 -6 101 -6q84 0 100 90l6 37h-69z" />
<glyph unicode="z" horiz-adv-x="856" d="M61 0v227l424 578h-383v219h693v-246l-422 -559h401v-219h-713z" />
<glyph unicode="{" horiz-adv-x="706" d="M61 573v287q66 0 111 42t45 130v340q0 164 78 243t207 79q61 0 112 -11v-221q-37 6 -57 6q-78 0 -78 -75v-402q0 -123 -57 -192.5t-137 -81.5q80 -12 137 -82t57 -193v-401q0 -76 78 -76q20 0 57 6v-221q-51 -10 -112 -10q-129 0 -207 79t-78 242v340q0 88 -45 130 t-111 42z" />
<glyph unicode="|" horiz-adv-x="634" d="M184 -225v1884h267v-1884h-267z" />
<glyph unicode="}" horiz-adv-x="706" d="M92 -29q37 -6 58 -6q78 0 77 76v401q0 123 57.5 193t137.5 82q-80 12 -137.5 81.5t-57.5 192.5v402q0 76 -77 75q-20 0 -58 -6v221q51 10 113 11q129 0 206.5 -79t77.5 -243v-340q0 -88 45.5 -130t110.5 -42v-287q-66 0 -111 -42t-45 -130v-340q0 -164 -77.5 -242.5 t-206.5 -78.5q-61 0 -113 10v221z" />
<glyph unicode="~" horiz-adv-x="1044" d="M154 725q117 72 213 72q55 0 165.5 -40t163.5 -40q92 0 195 69v-241q-109 -72 -213 -72q-57 0 -162.5 42t-163.5 42q-90 0 -198 -74v242z" />
<glyph unicode="&#xa1;" horiz-adv-x="552" d="M123 758v266h307v-266h-307zM139 -410v967h277v-967h-277z" />
<glyph unicode="&#xa2;" d="M152 530q0 434 292 498v201h256v-199q74 -12 101 -18v-240q-133 29 -221 29q-78 0 -113 -63.5t-35 -248.5q0 -150 35 -210t108 -60q59 0 226 29v-238q-31 -8 -101 -20v-215h-256v213q-152 23 -222 141t-70 401z" />
<glyph unicode="&#xa3;" d="M104 0v231h134v404h-134v231h134v54q0 315 80.5 421.5t306.5 106.5q109 0 227 -18v-236q-102 18 -162 18q-117 0 -144.5 -46t-27.5 -232v-68h211v-231h-211v-404h354v-231h-768z" />
<glyph unicode="&#xa4;" horiz-adv-x="1167" d="M27 231l147 148q-41 96 -41 235q0 131 43 234l-149 149l174 174l135 -135q104 63 248 64q139 0 247 -64l136 135l174 -174l-140 -139q53 -106 54 -244q0 -135 -54 -245l140 -138l-174 -174l-133 131q-102 -59 -250 -59q-150 0 -252 59l-131 -131zM383 614.5 q0 -120.5 51 -193.5t149.5 -73t149.5 74t51 192.5t-51 192.5t-149.5 74t-149.5 -73t-51 -193.5z" />
<glyph unicode="&#xa5;" d="M20 1434h293l174 -457l172 457h283l-297 -676h193v-215h-217v-92h217v-215h-217v-236h-287v236h-213v215h213v92h-213v215h188z" />
<glyph unicode="&#xa6;" horiz-adv-x="634" d="M184 -225v737h267v-737h-267zM184 922v737h267v-737h-267z" />
<glyph unicode="&#xa7;" d="M119 707q0 129 121 219q-92 82 -93 207q0 170 101.5 244.5t322.5 74.5q90 0 230 -35v-233q-129 39 -238 39q-76 0 -107.5 -18.5t-31.5 -65.5q0 -57 125 -86q162 -37 224.5 -105.5t62.5 -220.5q0 -125 -123 -211q94 -86 94 -215q0 -170 -101.5 -244.5t-322.5 -74.5 q-90 0 -229 34v234q129 -39 237 -39q76 0 107.5 18.5t31.5 65.5q0 57 -124 86q-160 37 -223.5 109t-63.5 217zM391 727q0 -57 22.5 -84t78.5 -41q72 37 71 105q0 59 -21.5 84.5t-78.5 37.5q-72 -30 -72 -102z" />
<glyph unicode="&#xa8;" horiz-adv-x="778" d="M51 1147v235h266v-235h-266zM461 1147v235h266v-235h-266z" />
<glyph unicode="&#xa9;" horiz-adv-x="1658" d="M143 717q0 358 163 546.5t534 188.5q369 0 522.5 -187.5t153.5 -547.5q0 -362 -153 -548.5t-523 -186.5q-375 0 -536 185t-161 550zM383 716.5q0 -147.5 17.5 -238.5t65.5 -162.5t139 -102.5t234.5 -31t231.5 31t133 104.5t58.5 161.5t13.5 237.5t-13.5 237.5t-58.5 162 t-133 104.5t-231 30.5q-145 0 -235.5 -30.5t-139.5 -101t-65.5 -163t-16.5 -240zM602 729q0 164 27.5 249t80 112.5t148.5 27.5q84 0 143 -16v-150q-55 12 -108 13q-51 0 -69.5 -12.5t-29 -61.5t-10.5 -170q0 -123 11.5 -175t31 -64.5t68.5 -12.5t106 12v-149 q-66 -16 -155 -17q-135 0 -189.5 85t-54.5 329z" />
<glyph unicode="&#xaa;" horiz-adv-x="882" d="M113 905q0 127 89 188.5t230 61.5h64v21q0 98 -103 98q-111 0 -223 -31v174q96 31 248 31q166 0 232.5 -74t66.5 -221v-274q0 -49 53 -50v-161h-104q-31 0 -64 19.5t-45 62.5q-53 -92 -215 -93q-98 0 -163.5 56.5t-65.5 191.5zM127 0v236h616v-236h-616zM334 915 q0 -33 20.5 -55t59.5 -22q74 0 82 80v86h-52q-110 -1 -110 -89z" />
<glyph unicode="&#xab;" horiz-adv-x="952" d="M102 612l179 424h221l-125 -424l125 -424h-221zM451 612l178 424h221l-125 -424l125 -424h-221z" />
<glyph unicode="&#xac;" horiz-adv-x="1177" d="M123 502v235h932v-520h-246v285h-686z" />
<glyph unicode="&#xad;" horiz-adv-x="1013" d="M154 502v235h706v-235h-706z" />
<glyph unicode="&#xae;" horiz-adv-x="1658" d="M143 717q0 358 163 546.5t534 188.5q369 0 522.5 -187.5t153.5 -547.5q0 -362 -153 -548.5t-523 -186.5q-375 0 -536 185t-161 550zM383 716.5q0 -147.5 17.5 -238.5t65.5 -162.5t139 -102.5t234.5 -31t231.5 31t133 104.5t58.5 161.5t13.5 237.5t-13.5 237.5t-58.5 162 t-133 104.5t-231 30.5q-145 0 -235.5 -30.5t-139.5 -101t-65.5 -163t-16.5 -240zM614 326v788q123 8 217 8q135 0 190.5 -61.5t55.5 -181.5q0 -168 -106 -226l153 -327h-190l-125 301h-25v-301h-170zM784 774h21q57 0 77.5 18.5t20.5 82t-15.5 84t-68.5 20.5l-35 -4v-201z " />
<glyph unicode="&#xaf;" horiz-adv-x="706" d="M51 1210v224h604v-224h-604z" />
<glyph unicode="&#xb0;" horiz-adv-x="784" d="M41 1108q0 340 350 340q352 0 352 -340q0 -172 -89 -261t-263 -89q-350 0 -350 350zM272 1110q0 -160 119 -160t119 160q0 150 -119 150t-119 -150z" />
<glyph unicode="&#xb1;" horiz-adv-x="1126" d="M141 502v235h308v324h249v-324h308v-235h-308v-180h-249v180h-308zM154 0v236h839v-236h-839z" />
<glyph unicode="&#xb2;" horiz-adv-x="839" d="M117 420v213l209 254q68 74 88 125t20 129q0 109 -123 108q-59 0 -168 -22v198q4 0 29 4.5t52.5 8.5t63.5 7t64 3q152 0 235 -85t83 -237q0 -170 -99 -286l-184 -219h295v-201h-565z" />
<glyph unicode="&#xb3;" horiz-adv-x="839" d="M141 428v193q111 -25 172 -25q129 0 129 127q0 145 -133 145h-88v187h74q78 0 104.5 29.5t26.5 84.5q0 88 -111 88q-57 0 -165 -24v192q90 23 206 23q170 0 236.5 -67.5t66.5 -221.5q0 -61 -34.5 -117.5t-94.5 -74.5q63 -16 105.5 -81t42.5 -147q0 -184 -82 -258.5 t-231 -74.5q-120 -1 -224 22z" />
<glyph unicode="&#xb4;" horiz-adv-x="641" d="M51 1188l213 276h326l-311 -276h-228z" />
<glyph unicode="&#xb5;" horiz-adv-x="1071" d="M133 -348v1372h273v-651q0 -96 27.5 -126t86.5 -30q72 0 109 46t37 108v653h272v-1024h-221l-19 80q-102 -98 -243 -98q-10 0 -26.5 1t-22.5 1v-332h-273z" />
<glyph unicode="&#xb6;" horiz-adv-x="1136" d="M82 1092q0 360 346 360q59 0 122.5 -5t96.5 -9l35 -4v-220q-100 18 -172 19q-100 0 -137 -31t-37 -115q0 -78 31.5 -109.5t99.5 -31.5h215v-946h-258v725h-39q-303 0 -303 367zM772 0v1434h252v-1434h-252z" />
<glyph unicode="&#xb7;" horiz-adv-x="512" d="M102 500v266h308v-266h-308z" />
<glyph unicode="&#xb8;" horiz-adv-x="688" d="M133 -260q66 -10 111 -10q47 0 64.5 10t17.5 36.5t-36 37t-134 10.5l45 278h196l-22 -141q88 -10 132 -61.5t44 -130.5q0 -223 -262 -224q-78 0 -156 17v178z" />
<glyph unicode="&#xb9;" horiz-adv-x="839" d="M141 1143v213l170 78h252v-809h137v-205h-542v205h170v598z" />
<glyph unicode="&#xba;" horiz-adv-x="888" d="M113 1069q0 199 77.5 291t254 92t254 -92t77.5 -291q0 -233 -78.5 -324.5t-253 -91.5t-253 91.5t-78.5 324.5zM119 0v236h643v-236h-643zM338 1049q0 -117 23.5 -168.5t83 -51.5t83 51.5t23.5 168.5q0 133 -22.5 180t-84 47t-84 -45t-22.5 -182z" />
<glyph unicode="&#xbb;" horiz-adv-x="952" d="M102 188l125 424l-125 424h222l178 -424l-178 -424h-222zM451 188l124 424l-124 424h221l178 -424l-178 -424h-221z" />
<glyph unicode="&#xbc;" horiz-adv-x="1792" d="M90 1143v213l170 78h252v-809h137v-205h-543v205h170v598zM473 -205l635 1864h244l-635 -1864h-244zM1049 240v213l145 561h223l-147 -582h78l22 232h207v-232l92 -12v-180h-92v-240h-234v240h-294z" />
<glyph unicode="&#xbd;" horiz-adv-x="1792" d="M90 1143v213l170 78h252v-809h137v-205h-543v205h170v598zM483 -205l635 1864h244l-635 -1864h-244zM1176 0v213l208 254q68 74 88.5 125t20.5 129q0 109 -123 108q-59 0 -168 -22v199q4 0 28.5 4t52.5 8t63.5 7t64.5 3q152 0 235 -85t83 -236q0 -170 -99 -287l-184 -219 h295v-201h-565z" />
<glyph unicode="&#xbe;" horiz-adv-x="1792" d="M125 428v193q111 -25 172 -25q129 0 129 127q0 145 -133 145h-88v187h74q78 0 104.5 29.5t26.5 84.5q0 88 -111 88q-57 0 -166 -24v192q90 23 207 23q170 0 236.5 -67.5t66.5 -221.5q0 -61 -35 -117.5t-94 -74.5q63 -16 105.5 -81t42.5 -147q0 -184 -82 -258.5 t-232 -74.5q-119 -1 -223 22zM451 -205l634 1864h244l-635 -1864h-243zM1034 240v213l146 561h223l-148 -582h78l23 232h207v-232h92v-192h-92v-240h-234v240h-295z" />
<glyph unicode="&#xbf;" horiz-adv-x="778" d="M61 -57q0 98 24 156.5t85 133.5l149 181v143h277v-223l-164 -201q-57 -70 -75.5 -103.5t-18.5 -82.5q0 -82 29.5 -112t134.5 -30q88 0 215 31v-231q-141 -33 -260 -33q-213 0 -304.5 75t-91.5 296zM303 758v266h307v-266h-307z" />
<glyph unicode="&#xc0;" horiz-adv-x="1116" d="M31 0l327 1434h414l313 -1434h-288l-66 334h-342l-65 -334h-293zM195 1722h329l213 -235h-231zM436 575h250l-127 678z" />
<glyph unicode="&#xc1;" horiz-adv-x="1116" d="M31 0l327 1434h414l313 -1434h-288l-66 334h-342l-65 -334h-293zM336 1487l213 235h330l-312 -235h-231zM436 575h250l-127 678z" />
<glyph unicode="&#xc2;" horiz-adv-x="1116" d="M31 0l327 1434h414l313 -1434h-288l-66 334h-342l-65 -334h-293zM190 1495l226 236h311l227 -236h-301l-82 125l-82 -125h-299zM436 575h250l-127 678z" />
<glyph unicode="&#xc3;" horiz-adv-x="1116" d="M31 0l327 1434h414l313 -1434h-288l-66 334h-342l-65 -334h-293zM238 1694q82 68 196 67q49 0 153.5 -40t141.5 -40q100 0 184 74v-213q-70 -68 -196 -67q-53 0 -152.5 39.5t-142.5 39.5q-102 0 -184 -73v213zM436 575h250l-127 678z" />
<glyph unicode="&#xc4;" horiz-adv-x="1116" d="M31 0l327 1434h414l313 -1434h-288l-66 334h-342l-65 -334h-293zM227 1495v236h267v-236h-267zM436 575h250l-127 678zM637 1495v236h266v-236h-266z" />
<glyph unicode="&#xc5;" horiz-adv-x="1116" d="M31 0l323 1421q-27 53 -26 142q0 250 237.5 249.5t237.5 -249.5q0 -84 -29 -142l311 -1421h-288l-66 334h-342l-65 -334h-293zM436 575h250l-127 678zM508 1564.5q0 -55.5 11 -78t46 -22.5q33 0 45.5 23.5t12.5 77.5q0 55 -11.5 77.5t-46.5 22.5t-46 -22.5t-11 -78z" />
<glyph unicode="&#xc6;" horiz-adv-x="1599" d="M31 0l430 1434h995v-222h-547l54 -362h477v-219h-445l62 -410h440v-221h-713l-39 334h-335l-95 -334h-284zM475 575h242l-72 613z" />
<glyph unicode="&#xc7;" horiz-adv-x="886" d="M102 739q0 229 29 372.5t96.5 216.5t147.5 96.5t209 23.5q41 0 118.5 -10.5t102.5 -18.5v-248q-127 31 -248 31q-66 0 -98.5 -29.5t-52 -134t-19.5 -313.5q0 -211 17.5 -317.5t51 -141.5t101.5 -35q119 0 248 31v-246q-47 -14 -189 -26l-4 -29q88 -10 132 -61.5 t44 -130.5q0 -223 -262 -224q-78 0 -155 17v178q66 -10 110 -10q47 0 64.5 10t17.5 36.5t-35.5 37t-134.5 10.5l27 174q-113 20 -180.5 94t-102.5 230.5t-35 416.5z" />
<glyph unicode="&#xc8;" horiz-adv-x="978" d="M143 0v1434h734v-222h-453v-362h401v-219h-401v-410h453v-221h-734zM199 1722h329l213 -235h-231z" />
<glyph unicode="&#xc9;" horiz-adv-x="978" d="M143 0v1434h734v-222h-453v-362h401v-219h-401v-410h453v-221h-734zM305 1487l213 235h330l-311 -235h-232z" />
<glyph unicode="&#xca;" horiz-adv-x="978" d="M129 1495l225 236h312l227 -236h-301l-82 125l-82 -125h-299zM143 0v1434h734v-222h-453v-362h401v-219h-401v-410h453v-221h-734z" />
<glyph unicode="&#xcb;" horiz-adv-x="978" d="M143 0v1434h734v-222h-453v-362h401v-219h-401v-410h453v-221h-734zM174 1475v235h266v-235h-266zM584 1475v235h266v-235h-266z" />
<glyph unicode="&#xcc;" horiz-adv-x="710" d="M49 1722h330l213 -235h-232zM72 0v217h143v1000h-143v217h567v-217h-143v-1000h143v-217h-567z" />
<glyph unicode="&#xcd;" horiz-adv-x="710" d="M72 0v217h143v1000h-143v217h567v-217h-143v-1000h143v-217h-567zM113 1487l213 235h329l-311 -235h-231z" />
<glyph unicode="&#xce;" horiz-adv-x="710" d="M-27 1495l226 236h311l227 -236h-301l-82 125l-82 -125h-299zM72 0v217h143v1000h-143v217h567v-217h-143v-1000h143v-217h-567z" />
<glyph unicode="&#xcf;" horiz-adv-x="710" d="M18 1475v235h267v-235h-267zM72 0v217h143v1000h-143v217h567v-217h-143v-1000h143v-217h-567zM428 1475v235h266v-235h-266z" />
<glyph unicode="&#xd0;" horiz-adv-x="1148" d="M61 666v235h113v533q248 20 363 20q133 0 220 -27.5t156.5 -102.5t101.5 -218t32 -367q0 -299 -57.5 -468t-159 -230t-269.5 -61l-387 20v666h-113zM455 236q39 -8 125 -9q98 0 140 105.5t42 392.5q0 215 -21.5 321.5t-55.5 133t-103 26.5l-127 -8v-297h170v-235h-170 v-430z" />
<glyph unicode="&#xd1;" horiz-adv-x="1212" d="M143 0v1434h408l274 -1174v1174h244v-1434h-407l-271 1151v-1151h-248zM274 1694q82 68 197 67q49 0 153.5 -40t141.5 -40q100 0 184 74v-213q-70 -68 -196 -67q-53 0 -152.5 39.5t-142.5 39.5q-102 0 -185 -73v213z" />
<glyph unicode="&#xd2;" horiz-adv-x="1163" d="M102 733q0 385 99.5 553t380 168t380 -168t99.5 -553q0 -203 -18.5 -332t-68.5 -230t-146.5 -146t-246 -45t-245.5 45t-146.5 146t-69 230t-18.5 332zM207 1722h330l213 -235h-232zM387 723q0 -305 42 -413.5t152.5 -108.5t152.5 108.5t42 413.5q0 307 -41 408.5 t-153.5 101.5t-153.5 -101.5t-41 -408.5z" />
<glyph unicode="&#xd3;" horiz-adv-x="1163" d="M102 733q0 385 99.5 553t380 168t380 -168t99.5 -553q0 -203 -18.5 -332t-68.5 -230t-146.5 -146t-246 -45t-245.5 45t-146.5 146t-69 230t-18.5 332zM387 723q0 -305 42 -413.5t152.5 -108.5t152.5 108.5t42 413.5q0 307 -41 408.5t-153.5 101.5t-153.5 -101.5 t-41 -408.5zM401 1487l213 235h330l-311 -235h-232z" />
<glyph unicode="&#xd4;" horiz-adv-x="1163" d="M102 733q0 385 99.5 553t380 168t380 -168t99.5 -553q0 -203 -18.5 -332t-68.5 -230t-146.5 -146t-246 -45t-245.5 45t-146.5 146t-69 230t-18.5 332zM201 1495l225 236h311l228 -236h-301l-82 125l-82 -125h-299zM387 723q0 -305 42 -413.5t152.5 -108.5t152.5 108.5 t42 413.5q0 307 -41 408.5t-153.5 101.5t-153.5 -101.5t-41 -408.5z" />
<glyph unicode="&#xd5;" horiz-adv-x="1163" d="M102 733q0 385 99.5 553t380 168t380 -168t99.5 -553q0 -203 -18.5 -332t-68.5 -230t-146.5 -146t-246 -45t-245.5 45t-146.5 146t-69 230t-18.5 332zM242 1694q82 68 196 67q49 0 153.5 -40t141.5 -40q100 0 185 74v-213q-70 -68 -197 -67q-53 0 -152.5 39.5 t-142.5 39.5q-102 0 -184 -73v213zM387 723q0 -305 42 -413.5t152.5 -108.5t152.5 108.5t42 413.5q0 307 -41 408.5t-153.5 101.5t-153.5 -101.5t-41 -408.5z" />
<glyph unicode="&#xd6;" horiz-adv-x="1163" d="M102 733q0 385 99.5 553t380 168t380 -168t99.5 -553q0 -203 -18.5 -332t-68.5 -230t-146.5 -146t-246 -45t-245.5 45t-146.5 146t-69 230t-18.5 332zM244 1495v236h266v-236h-266zM387 723q0 -305 42 -413.5t152.5 -108.5t152.5 108.5t42 413.5q0 307 -41 408.5 t-153.5 101.5t-153.5 -101.5t-41 -408.5zM653 1495v236h267v-236h-267z" />
<glyph unicode="&#xd7;" horiz-adv-x="1167" d="M170 375l240 239l-240 240l174 174l240 -240l239 240l174 -174l-239 -240l239 -239l-174 -174l-239 239l-240 -239z" />
<glyph unicode="&#xd8;" horiz-adv-x="1122" d="M113 733q0 385 99 553t380 168q57 0 119 -10l57 176h205l-80 -248q100 -78 139 -231.5t39 -407.5q0 -203 -18.5 -332t-68.5 -230t-146.5 -146t-245.5 -45q-68 0 -143 14l-58 -180h-205l84 262q-92 82 -124.5 238.5t-32.5 418.5zM397 723q0 -147 9 -231l235 735 q-25 6 -49 6q-113 0 -154 -101.5t-41 -408.5zM520 213q25 -12 72 -12q111 0 152.5 108.5t41.5 413.5q0 170 -12 278z" />
<glyph unicode="&#xd9;" horiz-adv-x="1136" d="M133 440v994h281v-1033q0 -174 155 -174q154 0 154 174v1033h281v-994q0 -246 -109 -350t-326 -104t-326.5 104t-109.5 350zM186 1722h330l213 -235h-231z" />
<glyph unicode="&#xda;" horiz-adv-x="1136" d="M133 440v994h281v-1033q0 -174 155 -174q154 0 154 174v1033h281v-994q0 -246 -109 -350t-326 -104t-326.5 104t-109.5 350zM412 1487l213 235h329l-311 -235h-231z" />
<glyph unicode="&#xdb;" horiz-adv-x="1136" d="M133 440v994h281v-1033q0 -174 155 -174q154 0 154 174v1033h281v-994q0 -246 -109 -350t-326 -104t-326.5 104t-109.5 350zM184 1495l226 236h311l227 -236h-301l-82 125l-82 -125h-299z" />
<glyph unicode="&#xdc;" horiz-adv-x="1136" d="M133 440v994h281v-1033q0 -174 155 -174q154 0 154 174v1033h281v-994q0 -246 -109 -350t-326 -104t-326.5 104t-109.5 350zM227 1495v236h267v-236h-267zM637 1495v236h266v-236h-266z" />
<glyph unicode="&#xdd;" horiz-adv-x="1087" d="M20 1434h304l227 -553l227 553h289l-383 -803v-631h-287v631zM401 1487l213 235h330l-311 -235h-232z" />
<glyph unicode="&#xde;" horiz-adv-x="1085" d="M143 0v1434h281v-222q16 0 48 1t48 1q266 0 369.5 -116.5t103.5 -360.5q0 -262 -110.5 -372.5t-341.5 -110.5h-117v-254h-281zM424 496h129q72 0 114 61t42 166q0 125 -34 185.5t-118 60.5q-39 0 -72.5 -3t-46.5 -8l-14 -2v-460z" />
<glyph unicode="&#xdf;" horiz-adv-x="1099" d="M133 0v1030q0 422 404 422q176 0 278.5 -83t102.5 -228q0 -127 -33 -295q-106 0 -147.5 -19.5t-41.5 -70.5q0 -25 16.5 -39.5t53.5 -30.5q117 -47 179.5 -123t62.5 -223q0 -106 -29 -179t-82 -111t-113.5 -53t-138.5 -15q-96 0 -188 18v233q68 -23 133 -22q137 0 137 119 q0 59 -30.5 94t-98.5 65q-88 41 -127 101.5t-39 167.5q0 102 60.5 172.5t160.5 85.5q18 41 19 84q0 61 -30 92t-105 31q-72 0 -100.5 -41t-28.5 -138v-1044h-275z" />
<glyph unicode="&#xe0;" horiz-adv-x="1042" d="M92 309q0 180 109.5 261t324.5 81h92v43q0 123 -137 123q-152 0 -315 -49v233q137 41 315 41q129 0 211 -20.5t125 -69.5t58.5 -111.5t15.5 -164.5v-406q0 -66 80 -65v-205h-119q-129 0 -176 84q-82 -102 -270 -102q-314 -1 -314 327zM209 1464h326l213 -276h-228z M369 324q0 -113 114 -113q74 0 104.5 46t30.5 101v93h-102q-147 0 -147 -127z" />
<glyph unicode="&#xe1;" horiz-adv-x="1042" d="M92 309q0 180 109.5 261t324.5 81h92v43q0 123 -137 123q-152 0 -315 -49v233q137 41 315 41q129 0 211 -20.5t125 -69.5t58.5 -111.5t15.5 -164.5v-406q0 -66 80 -65v-205h-119q-129 0 -176 84q-82 -102 -270 -102q-314 -1 -314 327zM369 324q0 -113 114 -113 q74 0 104.5 46t30.5 101v93h-102q-147 0 -147 -127zM371 1188l213 276h325l-311 -276h-227z" />
<glyph unicode="&#xe2;" horiz-adv-x="1042" d="M92 309q0 180 109.5 261t324.5 81h92v43q0 123 -137 123q-152 0 -315 -49v233q137 41 315 41q129 0 211 -20.5t125 -69.5t58.5 -111.5t15.5 -164.5v-406q0 -66 80 -65v-205h-119q-129 0 -176 84q-82 -102 -270 -102q-314 -1 -314 327zM121 1188l250 276h303l252 -276 h-301l-103 151l-102 -151h-299zM369 324q0 -113 114 -113q74 0 104.5 46t30.5 101v93h-102q-147 0 -147 -127z" />
<glyph unicode="&#xe3;" horiz-adv-x="1042" d="M92 309q0 180 109.5 261t324.5 81h92v43q0 123 -137 123q-152 0 -315 -49v233q137 41 315 41q129 0 211 -20.5t125 -69.5t58.5 -111.5t15.5 -164.5v-406q0 -66 80 -65v-205h-119q-129 0 -176 84q-82 -102 -270 -102q-314 -1 -314 327zM193 1407q82 68 196 68 q49 0 153.5 -40t141.5 -40q100 0 184 73v-213q-70 -68 -196 -67q-53 0 -152.5 40t-142.5 40q-102 0 -184 -74v213zM369 324q0 -113 114 -113q74 0 104.5 46t30.5 101v93h-102q-147 0 -147 -127z" />
<glyph unicode="&#xe4;" horiz-adv-x="1042" d="M92 309q0 180 109.5 261t324.5 81h92v43q0 123 -137 123q-152 0 -315 -49v233q137 41 315 41q129 0 211 -20.5t125 -69.5t58.5 -111.5t15.5 -164.5v-406q0 -66 80 -65v-205h-119q-129 0 -176 84q-82 -102 -270 -102q-314 -1 -314 327zM190 1147v235h267v-235h-267z M369 324q0 -113 114 -113q74 0 104.5 46t30.5 101v93h-102q-147 0 -147 -127zM600 1147v235h266v-235h-266z" />
<glyph unicode="&#xe5;" horiz-adv-x="1042" d="M92 309q0 180 109.5 261t324.5 81h92v43q0 123 -137 123q-152 0 -315 -49v233q137 41 315 41q129 0 211 -20.5t125 -69.5t58.5 -111.5t15.5 -164.5v-406q0 -66 80 -65v-205h-119q-129 0 -176 84q-82 -102 -270 -102q-314 -1 -314 327zM276 1321q0 250 238 250t238 -250 t-238 -250t-238 250zM369 324q0 -113 114 -113q74 0 104.5 46t30.5 101v93h-102q-147 0 -147 -127zM457 1323q0 -55 11 -77.5t46 -22.5q33 0 45 23.5t12 76.5q0 55 -11 77.5t-46 22.5t-46 -22.5t-11 -77.5z" />
<glyph unicode="&#xe6;" horiz-adv-x="1517" d="M102 303q0 178 107.5 252t327.5 74h92v65q0 123 -137 123q-152 0 -316 -49v233q137 41 316 41q219 0 307 -71q92 72 250 71q221 0 304 -112.5t83 -345.5v-156h-533q4 -125 40 -169t132 -44q137 0 285 31v-230q-123 -35 -285 -34q-137 0 -220 26.5t-130 100.5 q-90 -127 -309 -127q-147 0 -230.5 72.5t-83.5 248.5zM379 317q0 -106 115 -106q74 0 104.5 46t30.5 101v70h-103q-147 0 -147 -111zM907 629h267v37q0 152 -130 151q-63 0 -95 -42t-42 -146z" />
<glyph unicode="&#xe7;" horiz-adv-x="833" d="M102 532q0 268 104.5 389t311.5 121q115 0 234 -28v-240q-133 29 -222 29q-78 0 -112.5 -63.5t-34.5 -247.5q0 -150 35 -210.5t108 -60.5q59 0 226 29v-238q-92 -23 -177 -28l-4 -23q88 -10 132.5 -61.5t44.5 -130.5q0 -223 -263 -224q-78 0 -155 17v178q66 -10 110 -10 q47 0 64.5 10t17.5 36.5t-35.5 37t-134.5 10.5l27 168q-143 27 -210 145.5t-67 394.5z" />
<glyph unicode="&#xe8;" horiz-adv-x="1001" d="M102 512q0 276 106.5 403t313.5 127q221 0 304 -112.5t83 -345.5v-172h-530q6 -115 42 -156t128 -41q135 0 285 31v-230q-123 -35 -285 -34q-121 0 -197 19t-136 74.5t-87 162t-27 274.5zM197 1464h325l213 -276h-227zM381 612h266v54q0 152 -129 151q-66 0 -97.5 -45 t-39.5 -160z" />
<glyph unicode="&#xe9;" horiz-adv-x="1001" d="M102 512q0 276 106.5 403t313.5 127q221 0 304 -112.5t83 -345.5v-172h-530q6 -115 42 -156t128 -41q135 0 285 31v-230q-123 -35 -285 -34q-121 0 -197 19t-136 74.5t-87 162t-27 274.5zM332 1188l213 276h325l-311 -276h-227zM381 612h266v54q0 152 -129 151 q-66 0 -97.5 -45t-39.5 -160z" />
<glyph unicode="&#xea;" horiz-adv-x="1001" d="M102 512q0 276 106.5 403t313.5 127q221 0 304 -112.5t83 -345.5v-172h-530q6 -115 42 -156t128 -41q135 0 285 31v-230q-123 -35 -285 -34q-121 0 -197 19t-136 74.5t-87 162t-27 274.5zM104 1188l250 276h303l252 -276h-301l-102 151l-103 -151h-299zM381 612h266v54 q0 152 -129 151q-66 0 -97.5 -45t-39.5 -160z" />
<glyph unicode="&#xeb;" horiz-adv-x="1001" d="M102 512q0 276 106.5 403t313.5 127q221 0 304 -112.5t83 -345.5v-172h-530q6 -115 42 -156t128 -41q135 0 285 31v-230q-123 -35 -285 -34q-121 0 -197 19t-136 74.5t-87 162t-27 274.5zM182 1147v235h267v-235h-267zM381 612h266v54q0 152 -129 151q-66 0 -97.5 -45 t-39.5 -160zM592 1147v235h266v-235h-266z" />
<glyph unicode="&#xec;" horiz-adv-x="538" d="M-80 1464h326l213 -276h-228zM133 0v1024h273v-1024h-273z" />
<glyph unicode="&#xed;" horiz-adv-x="538" d="M74 1188l213 276h325l-311 -276h-227zM133 0v1024h273v-1024h-273z" />
<glyph unicode="&#xee;" horiz-adv-x="538" d="M-133 1188l250 276h303l252 -276h-301l-103 151l-102 -151h-299zM133 0v1024h273v-1024h-273z" />
<glyph unicode="&#xef;" horiz-adv-x="538" d="M-68 1147v235h267v-235h-267zM133 0v1024h273v-1024h-273zM342 1147v235h266v-235h-266z" />
<glyph unicode="&#xf0;" horiz-adv-x="1040" d="M102 430q0 260 80 395.5t275 135.5q96 0 186 -43q-23 152 -90 225l-47 -86h-219l88 162q-55 4 -176 4v229q197 0 295 -16l55 100h219l-86 -158q123 -63 184.5 -213.5t61.5 -425.5q0 -432 -100.5 -594.5t-344.5 -162.5q-63 0 -123.5 19t-122 65.5t-98.5 140.5t-37 223z M375 453q0 -145 30.5 -195.5t104.5 -50.5q51 0 79.5 31.5t47 144.5t18.5 326q-80 31 -149 30q-131 1 -131 -286z" />
<glyph unicode="&#xf1;" horiz-adv-x="1073" d="M133 0v1024h221l19 -80q104 98 245 98q201 0 266.5 -92t65.5 -315v-635h-272v641q0 96 -27.5 131t-87.5 35q-74 0 -113.5 -42t-43.5 -101v-664h-273zM240 1407q82 68 196 68q51 0 153.5 -40t141.5 -40q100 0 184 73v-213q-70 -68 -196 -67q-53 0 -152.5 40t-142.5 40 q-102 0 -184 -74v213z" />
<glyph unicode="&#xf2;" horiz-adv-x="1085" d="M102 532q0 262 104.5 384t334 122t336 -121.5t106.5 -384.5q0 -309 -106.5 -427.5t-336 -118.5t-334 118.5t-104.5 427.5zM197 1464h325l213 -276h-227zM381 502q0 -172 32.5 -233.5t127 -61.5t129.5 62.5t35 232.5q0 178 -36 246.5t-128 68.5t-126 -67.5t-34 -247.5z " />
<glyph unicode="&#xf3;" horiz-adv-x="1085" d="M102 532q0 262 104.5 384t334 122t336 -121.5t106.5 -384.5q0 -309 -106.5 -427.5t-336 -118.5t-334 118.5t-104.5 427.5zM348 1188l213 276h326l-312 -276h-227zM381 502q0 -172 32.5 -233.5t127 -61.5t129.5 62.5t35 232.5q0 178 -36 246.5t-128 68.5t-126 -67.5 t-34 -247.5z" />
<glyph unicode="&#xf4;" horiz-adv-x="1085" d="M102 532q0 262 104.5 384t334 122t336 -121.5t106.5 -384.5q0 -309 -106.5 -427.5t-336 -118.5t-334 118.5t-104.5 427.5zM141 1188l250 276h303l252 -276h-301l-102 151l-103 -151h-299zM381 502q0 -172 32.5 -233.5t127 -61.5t129.5 62.5t35 232.5q0 178 -36 246.5 t-128 68.5t-126 -67.5t-34 -247.5z" />
<glyph unicode="&#xf5;" horiz-adv-x="1085" d="M102 532q0 262 104.5 384t334 122t336 -121.5t106.5 -384.5q0 -309 -106.5 -427.5t-336 -118.5t-334 118.5t-104.5 427.5zM205 1407q82 68 196 68q49 0 153.5 -40t141.5 -40q100 0 185 73v-213q-70 -68 -197 -67q-53 0 -152.5 40t-142.5 40q-102 0 -184 -74v213zM381 502 q0 -172 32.5 -233.5t127 -61.5t129.5 62.5t35 232.5q0 178 -36 246.5t-128 68.5t-126 -67.5t-34 -247.5z" />
<glyph unicode="&#xf6;" horiz-adv-x="1085" d="M102 532q0 262 104.5 384t334 122t336 -121.5t106.5 -384.5q0 -309 -106.5 -427.5t-336 -118.5t-334 118.5t-104.5 427.5zM211 1147v235h266v-235h-266zM381 502q0 -172 32.5 -233.5t127 -61.5t129.5 62.5t35 232.5q0 178 -36 246.5t-128 68.5t-126 -67.5t-34 -247.5z M621 1147v235h266v-235h-266z" />
<glyph unicode="&#xf7;" horiz-adv-x="1126" d="M143 502v235h840v-235h-840zM410 92v266h307v-266h-307zM410 881v266h307v-266h-307z" />
<glyph unicode="&#xf8;" horiz-adv-x="1085" d="M102 532q0 262 104.5 384t334.5 122q63 0 106 -8l68 176h192l-90 -237q166 -111 166 -437q0 -309 -106.5 -427.5t-335.5 -118.5q-53 0 -101 6l-65 -174h-195l88 231q-166 106 -166 483zM381 502q0 -84 6 -144l176 457q-6 2 -22 2q-92 0 -126 -67.5t-34 -247.5zM524 207 h17q94 0 129 62.5t35 232.5q0 96 -9 151z" />
<glyph unicode="&#xf9;" horiz-adv-x="1060" d="M123 381v643h272v-651q0 -96 28 -126t87 -30q72 0 108.5 46t36.5 108v653h273v-1024h-221l-19 80q-102 -98 -244 -98q-184 0 -252.5 94t-68.5 305zM143 1464h326l213 -276h-227z" />
<glyph unicode="&#xfa;" horiz-adv-x="1060" d="M123 381v643h272v-651q0 -96 28 -126t87 -30q72 0 108.5 46t36.5 108v653h273v-1024h-221l-19 80q-102 -98 -244 -98q-184 0 -252.5 94t-68.5 305zM307 1188l213 276h326l-311 -276h-228z" />
<glyph unicode="&#xfb;" horiz-adv-x="1060" d="M123 381v643h272v-651q0 -96 28 -126t87 -30q72 0 108.5 46t36.5 108v653h273v-1024h-221l-19 80q-102 -98 -244 -98q-184 0 -252.5 94t-68.5 305zM123 1188l250 276h303l252 -276h-301l-103 151l-102 -151h-299z" />
<glyph unicode="&#xfc;" horiz-adv-x="1060" d="M123 381v643h272v-651q0 -96 28 -126t87 -30q72 0 108.5 46t36.5 108v653h273v-1024h-221l-19 80q-102 -98 -244 -98q-184 0 -252.5 94t-68.5 305zM188 1147v235h267v-235h-267zM598 1147v235h266v-235h-266z" />
<glyph unicode="&#xfd;" horiz-adv-x="1009" d="M41 1024h291l198 -797l175 797h264l-262 -1110q-66 -276 -291 -276q-123 0 -185 10v231q49 -6 101 -6q84 0 100 90l6 37h-69zM354 1188l213 276h326l-311 -276h-228z" />
<glyph unicode="&#xfe;" horiz-adv-x="1062" d="M133 -348v1782h273v-1782h-273zM172 10l131 221q4 0 78 -8t113 -8q115 0 152.5 66.5t37.5 275.5q0 152 -27.5 202t-101.5 50q-66 0 -107.5 -47t-41.5 -107l-170 33q43 150 139 252t252 102q174 0 254 -104t80 -360q0 -334 -106.5 -465t-375.5 -131q-94 -1 -307 28z" />
<glyph unicode="&#xff;" horiz-adv-x="1009" d="M41 1024h291l198 -797l175 797h264l-262 -1110q-66 -276 -291 -276q-123 0 -185 10v231q49 -6 101 -6q84 0 100 90l6 37h-69zM162 1147v235h266v-235h-266zM571 1147v235h267v-235h-267z" />
<glyph unicode="&#x152;" horiz-adv-x="1628" d="M102 733q0 385 99.5 553t380.5 168q90 0 172 -20h772v-222h-527q49 -127 60 -362h416v-219h-416q-6 -272 -62 -410h529v-221h-772q-82 -20 -172 -20q-150 0 -246 45t-146.5 146t-69 230t-18.5 332zM387 723q0 -305 42 -413.5t152.5 -108.5t152.5 108.5t42 413.5 q0 307 -41 408.5t-153.5 101.5t-153.5 -101.5t-41 -408.5z" />
<glyph unicode="&#x153;" horiz-adv-x="1595" d="M102 532q0 262 104.5 384t334.5 122q186 0 299 -102q106 106 276 106q221 0 304 -112.5t83 -345.5v-172h-530q6 -115 42 -156t128 -41q135 0 284 31v-230q-123 -35 -284 -34q-221 0 -316 92q-100 -88 -286 -88q-229 0 -334 118.5t-105 427.5zM381 502q0 -172 32.5 -233.5 t127 -61.5t129.5 62.5t35 232.5q0 178 -36 246.5t-128 68.5t-126 -67.5t-34 -247.5zM975 612h266v54q0 152 -129 151q-66 0 -97.5 -45t-39.5 -160z" />
<glyph unicode="&#x178;" horiz-adv-x="1087" d="M20 1434h304l227 -553l227 553h289l-383 -803v-631h-287v631zM213 1475v235h266v-235h-266zM623 1475v235h266v-235h-266z" />
<glyph unicode="&#x2c6;" horiz-adv-x="886" d="M41 1188l250 276h303l252 -276h-301l-103 151l-102 -151h-299z" />
<glyph unicode="&#x2dc;" horiz-adv-x="778" d="M51 1407q82 68 197 68q51 0 153.5 -40t141.5 -40q100 0 184 73v-213q-70 -68 -197 -67q-53 0 -152 40t-142 40q-102 0 -185 -74v213z" />
<glyph unicode="&#x2013;" horiz-adv-x="1126" d="M154 502v235h819v-235h-819z" />
<glyph unicode="&#x2014;" horiz-adv-x="1239" d="M113 502v235h1013v-235h-1013z" />
<glyph unicode="&#x2018;" horiz-adv-x="481" d="M82 885v225l143 322h195l-62 -322v-225h-276z" />
<glyph unicode="&#x2019;" horiz-adv-x="481" d="M61 887l62 321v226h276v-226l-143 -321h-195z" />
<glyph unicode="&#x201a;" horiz-adv-x="481" d="M61 -322l62 322v225h276v-225l-143 -322h-195z" />
<glyph unicode="&#x201c;" horiz-adv-x="829" d="M82 885v225l143 322h195l-62 -322v-225h-276zM430 885v225l143 322h195l-61 -322v-225h-277z" />
<glyph unicode="&#x201d;" horiz-adv-x="808" d="M61 887l62 321v226h276v-226l-143 -321h-195zM410 887l61 321v226h277v-226l-144 -321h-194z" />
<glyph unicode="&#x201e;" horiz-adv-x="808" d="M61 -322l62 322v225h276v-225l-143 -322h-195zM410 -322l61 322v225h277v-225l-144 -322h-194z" />
<glyph unicode="&#x2022;" horiz-adv-x="624" d="M102 440v400h420v-400h-420z" />
<glyph unicode="&#x2026;" horiz-adv-x="1536" d="M102 0v266h308v-266h-308zM614 0v266h308v-266h-308zM1126 0v266h308v-266h-308z" />
<glyph unicode="&#x2039;" horiz-adv-x="604" d="M102 612l179 424h221l-125 -424l125 -424h-221z" />
<glyph unicode="&#x203a;" horiz-adv-x="604" d="M102 188l125 424l-125 424h222l178 -424l-178 -424h-222z" />
<glyph unicode="&#x20ac;" d="M51 475l41 191h109v137h-150l41 190h119q14 145 46 237.5t89 140.5t127 64.5t176 16.5q41 0 121 -10t104 -19l-49 -237q-102 20 -202 20q-63 0 -93 -42t-41 -171h304l-39 -190h-273v-137h246l-37 -191h-201q12 -147 47 -197.5t107 -50.5q102 0 231 31v-246 q-113 -31 -231 -30q-209 0 -308 103t-124 390h-160z" />
<glyph unicode="&#x2122;" horiz-adv-x="1658" d="M61 1247v187h977l82 -400l74 400h352v-1037h-213v856l-123 -514h-200l-111 514v-856h-215v850h-184v-850h-221v850h-218z" />
<glyph unicode="&#xe000;" horiz-adv-x="1025" d="M0 1025h1025v-1025h-1025v1025z" />
<glyph unicode="&#xfb01;" horiz-adv-x="1112" d="M51 793v231h133v82q0 201 82 273.5t269 72.5q170 0 368 -37v-231q-178 35 -317 35q-78 0 -103.5 -18.5t-25.5 -76.5v-100h522v-1024h-272v793h-250v-793h-273v793h-133z" />
<glyph unicode="&#xfb02;" horiz-adv-x="1167" d="M51 793v231h133v82q0 201 82 273.5t269 72.5q84 0 172 -18h272v-1121q0 -51 13.5 -69.5t49.5 -18.5q33 0 74 8v-227q-76 -16 -186 -16q-125 0 -174 73.5t-49 239.5v490h-250v-793h-273v793h-133zM457 1024h250v184q-66 10 -121 11q-78 0 -103.5 -18.5t-25.5 -76.5v-100z " />
<glyph unicode="&#xfb03;" horiz-adv-x="1935" d="M51 793v231h133v82q0 201 73 273.5t237 72.5q102 0 225 -25v-231q-94 23 -174 23q-88 0 -88 -95v-100h223v-231h-223v-793h-273v793h-133zM750 793v231h133v82q0 201 72.5 273.5t236.5 72.5q102 0 225 -25v-231q-94 23 -174 23q-88 0 -88 -95v-100h223v-231h-223v-793 h-272v793h-133zM1520 1198v236h292v-236h-292zM1530 0v1024h272v-1024h-272z" />
<glyph unicode="&#xfb04;" horiz-adv-x="1990" d="M51 793v231h133v82q0 201 73 273.5t237 72.5q102 0 225 -25v-231q-94 23 -174 23q-88 0 -88 -95v-100h223v-231h-223v-793h-273v793h-133zM750 793v231h133v82q0 201 72.5 273.5t236.5 72.5q102 0 225 -25v-231q-94 23 -174 23q-88 0 -88 -95v-100h223v-231h-223v-793 h-272v793h-133zM1530 303v1131h272v-1121q0 -51 13.5 -69.5t50.5 -18.5q33 0 73 8v-227q-76 -16 -186 -16q-125 0 -174 73.5t-49 239.5z" />
</font>
</defs>
</svg>
