<?xml version="1.0" standalone="no"?>
<!DOCTYPE svg PUBLIC "-//W3C//DTD SVG 1.1//EN" "http://www.w3.org/Graphics/SVG/1.1/DTD/svg11.dtd" >
<svg xmlns="http://www.w3.org/2000/svg">
<metadata></metadata>
<defs>
<font id="share-italicregular" horiz-adv-x="1005" >
<font-face units-per-em="2048" ascent="1655" descent="-393" />
<missing-glyph horiz-adv-x="532" />
<glyph unicode="fi" horiz-adv-x="1044" d="M-123 -348l12 145q86 -8 148 -8q51 0 82 29.5t35 83.5l86 972h-134l13 150h133l10 119q6 76 26 129.5t61.5 94.5t111 61t170.5 20q135 0 309 -41l-14 -143q-136 41 -281 41q-61 0 -101.5 -9.5t-62.5 -30.5t-31 -45.5t-12 -62.5l-12 -133h522l-88 -1024h-174l74 874h-346 l-84 -962q-21 -270 -279 -270q-86 0 -174 10z" />
<glyph unicode="fl" horiz-adv-x="1075" d="M-123 -348l12 145q86 -8 148 -8q51 0 82 29.5t35 83.5l86 972h-134l13 150h133l10 119q6 76 26 129.5t61.5 94.5t111 61t170.5 20q80 0 180 -14h174l-100 -1153l-2.5 -27.5t-2.5 -28t-1 -14.5q0 -37 13.5 -52.5t47.5 -15.5q10 0 21 2t21.5 5.5t12.5 3.5l-12 -144 q-77 -16 -125 -16q-68 0 -112 43.5t-44 146.5q0 26 5 66l92 1044q-93 13 -154 13t-101.5 -10t-62 -31t-31 -46t-12.5 -63l-12 -133h192l-12 -150h-192l-84 -962q-21 -270 -279 -270q-86 0 -174 10z" />
<glyph unicode="&#xd;" horiz-adv-x="532" />
<glyph unicode=" "  horiz-adv-x="532" />
<glyph unicode="&#x09;" horiz-adv-x="532" />
<glyph unicode="&#xa0;" horiz-adv-x="532" />
<glyph unicode="!" horiz-adv-x="512" d="M133 0l17 205h204l-16 -205h-205zM184 426l88 1008h174l-88 -1008h-174z" />
<glyph unicode="&#x22;" horiz-adv-x="737" d="M201 1249l16 185h195l-17 -185l-69 -321h-113zM518 1249l17 185h194l-16 -185l-70 -321h-113z" />
<glyph unicode="#" horiz-adv-x="962" d="M102 369l15 153h143l35 410h-143l14 153h143l31 349h164l-31 -349h164l31 349h163l-30 -349h143l-14 -153h-144l-34 -410h143l-14 -153h-144l-30 -369h-164l30 369h-163l-31 -369h-164l31 369h-144zM424 522h164l35 410h-164z" />
<glyph unicode="$" horiz-adv-x="962" d="M172 20l14 150q118 -31 234 -31q112 0 159.5 73t47.5 224q0 96 -31 141t-94 58q-126 26 -197.5 114t-71.5 218q0 182 67.5 275.5t191.5 123.5l20 231h174l-18 -215q70 -2 176 -30l-13 -150q-132 31 -215 31q-95 0 -146.5 -57.5t-51.5 -196.5q0 -77 28.5 -118t96.5 -56 q135 -29 201.5 -108.5t66.5 -229.5q0 -20 -4 -70q-18 -191 -81 -279t-181 -114l-23 -270h-174l23 256q-104 3 -199 30z" />
<glyph unicode="%" horiz-adv-x="1753" d="M236 901q0 59 6 123q8 85 18.5 143.5t32.5 115.5t55 90.5t86 54t125 20.5q139 0 194.5 -76.5t55.5 -226.5q0 -57 -6 -121q-8 -85 -18.5 -145t-33 -119.5t-56 -95.5t-87 -58t-125.5 -22q-137 0 -192 81.5t-55 235.5zM377 897q0 -102 27 -147t90 -45q77 0 115 72t53 239 q6 62 6 112q0 105 -28 152t-91 47q-87 0 -129.5 -102t-42.5 -328zM526 0l627 1434h160l-627 -1434h-160zM1028 303q0 59 6 123q8 85 18.5 143.5t32.5 115.5t55.5 90.5t86.5 54t125 20.5q139 0 194.5 -76.5t55.5 -226.5q0 -46 -7 -121q-8 -85 -18.5 -145t-33 -119.5 t-55.5 -95.5t-86.5 -58t-125.5 -22q-137 0 -192.5 81.5t-55.5 235.5zM1169 299q0 -102 27 -147.5t90 -45.5q77 0 115 72.5t53 239.5q6 61 6 112q0 105 -28 152t-91 47q-87 0 -129.5 -102t-42.5 -328z" />
<glyph unicode="&#x26;" horiz-adv-x="1038" d="M143 324q0 94 10.5 175t33.5 152.5t64 119t97 63.5q-58 42 -86.5 105.5t-28.5 127.5q0 96 22.5 166.5t58 111t91 64.5t109 31.5t123.5 7.5q106 0 203 -31l-15 -149q-28 7 -96 18.5t-108 11.5q-47 0 -80.5 -7.5t-66 -29.5t-49.5 -68.5t-17 -117.5q0 -174 155 -174h481 l-12 -149h-172l-63 -742q-159 -24 -336 -24q-157 0 -237.5 80t-80.5 258zM319 342q0 -97 42.5 -152t113.5 -55q90 0 172 17l51 600h-178q-52 0 -92 -35t-63 -95t-34.5 -130.5t-11.5 -149.5z" />
<glyph unicode="'" horiz-adv-x="419" d="M201 1249l16 185h195l-17 -185l-69 -321h-113z" />
<glyph unicode="(" horiz-adv-x="655" d="M145 508q0 346 83.5 650.5t258.5 520.5h170q-340 -479 -340 -1185q0 -210 41.5 -387.5t130.5 -352.5h-170q-174 300 -174 754z" />
<glyph unicode=")" horiz-adv-x="655" d="M80 -246q340 479 340 1186q0 210 -41.5 387t-130.5 352h170q176 -299 176 -753q0 -753 -344 -1172h-170z" />
<glyph unicode="*" horiz-adv-x="987" d="M133 1085l55 164l281 -112l-27 307h185l-27 -307l285 108l51 -162l-293 -59l211 -252l-145 -102l-177 291l-180 -293l-141 106l211 250z" />
<glyph unicode="+" horiz-adv-x="1126" d="M201 563l12 154h309l29 323h164l-29 -323h307l-12 -154h-307l-29 -321h-164l29 321h-309z" />
<glyph unicode="," horiz-adv-x="471" d="M4 -287l109 287l16 205h205l-17 -205l-174 -287h-139z" />
<glyph unicode="-" horiz-adv-x="1013" d="M203 563l12 154h666l-13 -154h-665z" />
<glyph unicode="." horiz-adv-x="471" d="M113 0l16 205h205l-17 -205h-204z" />
<glyph unicode="/" horiz-adv-x="665" d="M-29 -225l645 1884h162l-647 -1884h-160z" />
<glyph unicode="0" horiz-adv-x="962" d="M143 440q2 84 17 293q10 112 20 192t26 159.5t37 132.5t52 100t72 74t95.5 42t123.5 15q177 0 247 -105t70 -337q0 -130 -14 -273q-9 -103 -17.5 -177t-21.5 -151t-29 -129.5t-39 -103.5t-53 -82.5t-69.5 -56.5t-89 -36t-111.5 -11q-175 0 -245.5 108.5t-70.5 345.5z M315 412q0 -152 34.5 -214.5t121.5 -62.5q42 0 73 12.5t55.5 43t41 72.5t30 112.5t23 150.5t19.5 197q18 193 18 311q0 149 -35.5 206.5t-122.5 57.5q-49 0 -83 -17.5t-59 -54t-43 -107.5t-30.5 -162t-25.5 -234q-3 -34 -10 -161.5t-7 -149.5z" />
<glyph unicode="1" horiz-adv-x="962" d="M164 0l12 154h248l98 1116l-278 -105l14 166l258 103h195l-113 -1280h203l-13 -154h-624z" />
<glyph unicode="2" horiz-adv-x="962" d="M113 0l14 180l348 467q13 17 42.5 56t38 51.5t30 43.5t27.5 44.5t20 42t17.5 49t10 52t8 64t1.5 72.5q0 176 -158 176q-94 0 -254 -34l14 151q3 1 24 5t44.5 8.5t54 9t64.5 7.5t65 3q320 0 320 -318q0 -77 -8.5 -137.5t-21.5 -105.5t-43 -99t-57 -93t-81 -111l-322 -432 h469l-12 -152h-655z" />
<glyph unicode="3" horiz-adv-x="962" d="M129 20l14 150q164 -35 263 -35q96 0 147 90t51 250q0 102 -34 148.5t-121 46.5h-168l12 149h147q52 0 91 23.5t59 55.5t32 75.5t14.5 72.5t2.5 58q0 105 -30.5 149.5t-104.5 44.5q-83 0 -256 -34l14 149q2 0 33.5 7t61.5 12.5t74.5 10.5t80.5 5q145 0 223 -71t78 -242 q0 -161 -45 -255.5t-141 -127.5q52 -3 87.5 -42.5t50.5 -100.5t15 -140q0 -249 -95.5 -366t-289.5 -117q-113 0 -266 34z" />
<glyph unicode="4" horiz-adv-x="962" d="M147 319l17 177l285 938h165l-278 -965h231l39 467h174l-39 -467h144l-15 -150h-143l-27 -319h-174l27 319h-406z" />
<glyph unicode="5" horiz-adv-x="962" d="M154 20l14 150q153 -35 260 -35q195 0 195 379q0 113 -37 156t-125 43h-225l63 721h543l-15 -150h-368l-37 -422h41q186 0 262 -80t76 -247q0 -281 -90.5 -415t-302.5 -134q-30 0 -59 2t-60 7t-47.5 7.5t-49.5 9.5t-38 8z" />
<glyph unicode="6" horiz-adv-x="962" d="M160 455q0 120 16 323q12 141 31.5 245t49.5 179t66.5 122.5t89 75t110 38t136.5 10.5q87 0 195 -31l-12 -145q-4 1 -33 8t-42 9.5t-39.5 7t-51 6.5t-49.5 2q-64 0 -104 -16t-74 -64.5t-55.5 -139t-37.5 -239.5q98 63 222 63q86 0 143.5 -20.5t89 -62.5t44.5 -96.5 t13 -131.5q0 -305 -94.5 -458.5t-316.5 -153.5q-78 0 -129 18t-91 68t-58.5 143.5t-18.5 239.5zM328 410q0 -116 17.5 -178t45.5 -80.5t78 -18.5q119 0 171 113.5t52 335.5q0 97 -30 138.5t-111 41.5q-95 0 -209 -55q-14 -175 -14 -297z" />
<glyph unicode="7" horiz-adv-x="962" d="M213 1280l14 154h625l-18 -199l-437 -1235h-182l453 1280h-455z" />
<glyph unicode="8" horiz-adv-x="962" d="M106 330q0 101 17.5 176t50 120t65.5 70.5t78 44.5q-61 31 -92.5 105t-31.5 166q0 123 29 210t84 135.5t123 69.5t157 21q325 0 325 -324q0 -71 -7.5 -122t-27 -99t-57.5 -83.5t-96 -61.5q82 -19 121 -97t39 -190q0 -242 -99 -363.5t-325 -121.5q-181 0 -267 84.5 t-86 259.5zM281 330q0 -109 45.5 -153t144.5 -44q59 0 101.5 16t68.5 43.5t41.5 72t21 94.5t5.5 118q0 116 -53.5 162.5t-204.5 46.5q-95 -48 -132.5 -120.5t-37.5 -235.5zM365 1004q0 -105 49 -149t176 -44q151 57 151 311q0 91 -39.5 134.5t-128.5 43.5q-113 0 -160.5 -72 t-47.5 -224z" />
<glyph unicode="9" horiz-adv-x="962" d="M172 862q0 586 401 586q67 0 113.5 -10t85.5 -38t61.5 -77.5t35 -127.5t12.5 -189q0 -131 -19 -351q-12 -142 -30 -245t-46 -178.5t-62 -122.5t-84 -74.5t-106.5 -38t-134.5 -10.5q-89 0 -194 30l14 150q140 -33 213 -33q46 0 77 9.5t60 36t48 77.5t35.5 131t29.5 199 q-100 -62 -221 -62q-158 0 -223.5 85t-65.5 253zM346 854q0 -98 30 -140t111 -42q97 0 207 53q17 213 17 301t-9 143t-29.5 83.5t-46 38t-65.5 9.5q-215 0 -215 -446z" />
<glyph unicode=":" horiz-adv-x="471" d="M113 0l16 205h205l-17 -205h-204zM182 819l19 205h205l-19 -205h-205z" />
<glyph unicode=";" horiz-adv-x="471" d="M4 -287l109 287l16 205h205l-17 -205l-174 -287h-139zM182 819l19 205h205l-19 -205h-205z" />
<glyph unicode="&#x3c;" horiz-adv-x="1126" d="M203 573l18 215l811 367l-16 -192l-660 -279l611 -281l-17 -188z" />
<glyph unicode="=" horiz-adv-x="1126" d="M184 358l13 154h778l-12 -154h-779zM219 768l14 154h779l-15 -154h-778z" />
<glyph unicode="&#x3e;" horiz-adv-x="1126" d="M172 215l16 197l672 280l-622 279l16 184l745 -367l-18 -215z" />
<glyph unicode="?" horiz-adv-x="737" d="M162 1266l12 151q137 31 232 31q167 0 252 -64.5t85 -222.5q0 -36 -4 -76q-7 -71 -19 -112.5t-49 -94.5t-114 -133l-125 -131l-14 -188h-174l20 248l135 145q106 114 129 148q37 54 42 130q1 22 1 54q0 81 -40 114t-117 33q-84 0 -252 -32zM193 0l16 205h205l-17 -205 h-204z" />
<glyph unicode="@" horiz-adv-x="1669" d="M207 526q0 93 8 181q13 148 36 256t62 192.5t92.5 139t132.5 89.5t175.5 49.5t226.5 14.5q93 0 165 -6t138 -20.5t113 -39.5t85.5 -62t62 -88.5t36 -119.5t12.5 -154q0 -64 -6 -137q-8 -83 -16 -145.5t-21.5 -126t-31 -108.5t-43.5 -85.5t-59 -65t-77.5 -38.5t-99.5 -14 q-60 0 -116.5 40t-63.5 113q-33 -43 -99.5 -69.5t-150.5 -26.5q-49 0 -89 14t-77 47.5t-57.5 98t-20.5 155.5q0 122 24.5 212.5t65.5 145.5t103 88.5t127.5 45.5t148.5 12q81 0 207 -29l-49 -571q-1 -10 -2.5 -28t-2.5 -29.5t-1 -12.5q0 -31 17.5 -52t49.5 -21 q74 0 108.5 108.5t55.5 341.5q8 81 8 160q0 81 -13.5 135t-43 92t-85 58t-129 28.5t-185.5 8.5q-105 0 -180 -11t-133.5 -40t-96.5 -71t-65 -112.5t-42 -155t-26 -206.5q-10 -120 -10 -191q0 -144 37.5 -224.5t133.5 -120.5t271 -40q87 0 324 25l-13 -146q-173 -24 -323 -24 q-167 0 -280 29t-184.5 95.5t-102.5 167t-31 248.5zM688 618q0 -107 33.5 -143.5t101.5 -36.5q84 0 126 42t46 95l35 392q-40 10 -76 10q-45 0 -80 -7.5t-71.5 -30.5t-60.5 -61.5t-39 -104.5t-15 -155z" />
<glyph unicode="A" horiz-adv-x="1024" d="M31 0l467 1434h235l219 -1434h-178l-47 362h-403l-111 -362h-182zM371 516h338l-105 782z" />
<glyph unicode="B" horiz-adv-x="1048" d="M154 0l125 1434q190 14 323 14q170 0 266.5 -78.5t96.5 -241.5q0 -286 -193 -364q31 -11 58.5 -31t54.5 -52.5t43 -84.5t16 -117q0 -35 -4 -67q-11 -121 -43 -204t-88 -131.5t-130.5 -69.5t-178.5 -21q-76 0 -162.5 3.5t-135.5 6.5zM344 145q100 -10 186 -10 q46 0 80.5 11t67 40t53 87t27.5 145q4 50 4 65q0 102 -42 149.5t-138 47.5h-191zM403 827h170q30 0 52 3t51 16.5t49 37t36.5 68.5t22.5 107q4 50 4 67q0 93 -39 133.5t-135 40.5q-44 0 -86.5 -3t-63.5 -6l-20 -3z" />
<glyph unicode="C" horiz-adv-x="866" d="M164 485q0 110 12 254q16 182 43 306t64.5 204t96.5 123.5t127 59.5t169 16q38 0 105.5 -12t95.5 -21l-15 -151q-124 30 -235 30q-60 0 -99 -19.5t-74 -78.5t-58 -173.5t-40 -297.5q-14 -231 -14 -262q0 -82 8.5 -140.5t23 -94t39 -55.5t51 -27t64.5 -7q103 0 240 31 l-14 -150q-41 -11 -112.5 -22.5t-117.5 -11.5q-75 0 -130 14t-100 47.5t-72.5 90.5t-42.5 143t-15 204z" />
<glyph unicode="D" horiz-adv-x="1077" d="M154 0l125 1434q190 14 331 14q76 0 131.5 -11.5t106 -43.5t82 -87t49.5 -144.5t18 -213.5q0 -79 -10 -209q-16 -183 -43.5 -313t-65.5 -215.5t-94 -135t-121 -69.5t-155 -20q-71 0 -159.5 3.5t-141.5 6.5zM344 143q109 -8 195 -8q50 0 90 29.5t74.5 96.5t60 183.5 t39.5 280.5q12 138 12 233q0 83 -8.5 144.5t-23 98.5t-37 59t-47 30t-56.5 8l-199 -8z" />
<glyph unicode="E" horiz-adv-x="958" d="M154 0l125 1434h671l-14 -150h-494l-41 -469h443l-13 -149h-442l-45 -516h494l-13 -150h-671z" />
<glyph unicode="F" horiz-adv-x="937" d="M154 0l125 1434h671l-14 -150h-494l-43 -489h443l-13 -150h-442l-55 -645h-178z" />
<glyph unicode="G" horiz-adv-x="1013" d="M164 485q0 110 12 254q16 181 45 305.5t69.5 204.5t104.5 123.5t137 59.5t181 16q87 0 227 -33l-12 -147q-161 30 -264 30q-56 0 -95 -12t-75 -47t-60.5 -98.5t-44.5 -165.5t-33 -250q-14 -231 -14 -266q0 -102 12 -167t39 -99t60.5 -46t85.5 -12q62 0 161 15l41 454 h-182l14 150h353l-66 -734q-185 -34 -323 -34q-99 0 -165.5 22.5t-115 78t-70.5 153t-22 245.5z" />
<glyph unicode="H" horiz-adv-x="1126" d="M154 0l125 1434h178l-56 -623h422l56 623h178l-125 -1434h-178l57 659h-422l-57 -659h-178z" />
<glyph unicode="I" horiz-adv-x="649" d="M72 0l12 150h143l99 1134h-144l15 150h465l-15 -150h-143l-98 -1134h143l-12 -150h-465z" />
<glyph unicode="J" horiz-adv-x="819" d="M51 10l12 150q41 -7 111 -14t96 -7q47 0 77.5 7.5t58 29t44.5 62.5t29.5 104.5t20.5 157.5l67 784h-329l14 150h508l-82 -920q-11 -134 -31.5 -225t-50.5 -151.5t-78.5 -93t-106 -45.5t-143.5 -13q-59 0 -217 24z" />
<glyph unicode="K" horiz-adv-x="1007" d="M154 0l125 1434h178l-56 -629l439 629h190l-444 -627l340 -807h-197l-266 657l-86 -122l-45 -535h-178z" />
<glyph unicode="L" horiz-adv-x="839" d="M154 0l125 1434h178l-113 -1278h457l-13 -156h-634z" />
<glyph unicode="M" horiz-adv-x="1290" d="M154 0l125 1434h288l121 -734l254 734h279l-125 -1434h-166l110 1286l-292 -805h-170l-150 805l-111 -1286h-163z" />
<glyph unicode="N" horiz-adv-x="1120" d="M154 0l125 1434h290l203 -1282l113 1282h166l-125 -1434h-293l-203 1282l-111 -1282h-165z" />
<glyph unicode="O" horiz-adv-x="1122" d="M166 535q0 53 10 198q13 152 33 260t56 198.5t89 144.5t130.5 83t181.5 29q204 0 290 -121.5t86 -382.5q0 -84 -10 -211q-14 -159 -35 -271.5t-57 -207t-89 -151t-130.5 -87t-181.5 -30.5q-206 0 -289.5 132t-83.5 417zM344 487q0 -191 48.5 -271.5t158.5 -80.5 q94 0 151.5 56t92 182.5t53.5 349.5q14 168 14 246q0 184 -48.5 256.5t-160.5 72.5q-94 0 -150 -50t-91 -174t-56 -351q-12 -210 -12 -236z" />
<glyph unicode="P" horiz-adv-x="1024" d="M154 0l125 1434q176 14 346 14q191 0 279.5 -97t88.5 -268q0 -21 -6 -96q-19 -221 -119 -323.5t-317 -102.5h-172l-47 -561h-178zM393 711h193q94 0 150 65t69 223q4 62 4 84q0 112 -40 164.5t-132 52.5q-50 0 -98.5 -3t-71.5 -6l-23 -3z" />
<glyph unicode="Q" horiz-adv-x="1122" d="M166 535q0 53 10 198q13 152 33 260t56 198.5t89 144.5t130.5 83t181.5 29q204 0 290 -121.5t86 -382.5q0 -84 -10 -211q-26 -282 -85 -448t-173 -240l236 -45l-17 -172l-454 158q-206 0 -289.5 132t-83.5 417zM344 487q0 -191 48.5 -271.5t158.5 -80.5q94 0 151.5 56 t92 182.5t53.5 349.5q14 168 14 246q0 184 -48.5 256.5t-160.5 72.5q-94 0 -150 -50t-91 -174t-56 -351q-12 -210 -12 -236z" />
<glyph unicode="R" horiz-adv-x="1064" d="M154 0l125 1434q176 14 346 14q193 0 279.5 -91t86.5 -259q0 -22 -4 -68q-16 -167 -72 -268t-167 -141l225 -621h-193l-207 594h-190l-51 -594h-178zM395 743h193q95 0 148 58t67 215q4 58 4 78q0 109 -39 157.5t-131 48.5q-50 0 -98.5 -3t-71.5 -6l-23 -3z" />
<glyph unicode="S" horiz-adv-x="888" d="M117 18l14 152q133 -35 254 -35q119 0 174 80t55 246q0 101 -35 145t-110 60q-147 32 -215 106.5t-68 218.5q0 457 435 457q96 0 221 -35l-15 -149q-145 34 -233 34q-100 0 -162.5 -71t-62.5 -223q0 -81 30 -115.5t111 -52.5q143 -30 216 -108.5t73 -242.5 q0 -271 -105.5 -385t-335.5 -114q-117 0 -241 32z" />
<glyph unicode="T" horiz-adv-x="870" d="M121 1278l14 156h809l-14 -156h-316l-110 -1278h-178l110 1278h-315z" />
<glyph unicode="U" horiz-adv-x="1095" d="M174 324q0 39 4 75l90 1035h178l-92 -1051q-4 -66 -4 -72q0 -89 49.5 -132.5t139.5 -43.5q96 0 155 50.5t68 154.5l96 1094h178l-92 -1055q-18 -203 -123.5 -298t-294.5 -95q-160 0 -256 84t-96 254z" />
<glyph unicode="V" horiz-adv-x="968" d="M176 1434h180l115 -1254l354 1254h176l-426 -1434h-243z" />
<glyph unicode="W" horiz-adv-x="1236" d="M182 0l56 1434h157l-55 -1321l244 716h168l127 -716l180 1321h149l-194 -1434h-279l-84 623l-202 -623h-267z" />
<glyph unicode="X" horiz-adv-x="1015" d="M51 0l412 741l-256 693h190l174 -498l263 498h194l-385 -691l281 -743h-197l-188 553l-291 -553h-197z" />
<glyph unicode="Y" d="M145 1434h193l217 -596l324 596h190l-440 -768l-58 -666h-184l57 666z" />
<glyph unicode="Z" horiz-adv-x="892" d="M72 0l14 180l623 1102h-480l15 152h661l-16 -181l-621 -1101h504l-12 -152h-688z" />
<glyph unicode="[" horiz-adv-x="665" d="M131 -246l168 1925h389l-12 -153h-225l-142 -1618h226l-15 -154h-389z" />
<glyph unicode="\" horiz-adv-x="665" d="M133 1659h162l319 -1884h-161z" />
<glyph unicode="]" horiz-adv-x="665" d="M59 -246l15 154h225l141 1618h-225l12 153h389l-167 -1925h-390z" />
<glyph unicode="^" horiz-adv-x="997" d="M145 860l357 696h233l223 -696h-182l-162 574l-284 -574h-185z" />
<glyph unicode="_" horiz-adv-x="1044" d="M-43 -348l12 153h1030l-12 -153h-1030z" />
<glyph unicode="`" horiz-adv-x="620" d="M203 1464h223l188 -276h-155z" />
<glyph unicode="a" horiz-adv-x="1019" d="M145 348q0 47 7 119q28 302 143.5 436.5t347.5 134.5q53 0 131.5 -14t130.5 -31l-65 -714q0 -1 -1 -10.5t-2 -25.5t-1 -32q0 -78 79 -78l-10 -133h-39q-140 0 -176 127q-95 -141 -282 -141q-138 0 -200.5 91.5t-62.5 270.5zM324 334q0 -104 30 -152.5t99 -48.5 q99 0 155 64t64 155l47 531q-54 8 -111 8q-284 0 -284 -557z" />
<glyph unicode="b" horiz-adv-x="1021" d="M143 10l125 1424h174l-45 -502q96 106 246 106q148 0 213.5 -90.5t65.5 -263.5q0 -69 -4 -106q-15 -170 -45 -279t-87.5 -181t-142.5 -102t-213 -30q-140 0 -287 24zM328 139q49 -6 137 -6q58 0 101 19.5t72.5 54.5t49.5 92t31.5 122.5t19.5 156.5q4 37 4 102 q0 109 -32.5 160t-108.5 51q-57 0 -101.5 -26t-70.5 -68.5t-40.5 -88.5t-18.5 -94z" />
<glyph unicode="c" horiz-adv-x="827" d="M150 367q0 243 45.5 391.5t134 214t229.5 65.5q91 0 221 -32l-12 -154q-128 33 -236 33q-91 0 -135.5 -85t-64.5 -308q-6 -73 -6 -127q0 -71 9.5 -117t30 -69.5t44 -31.5t59.5 -8q24 0 49.5 2t43.5 4t42.5 6.5t36.5 7t36.5 8t31.5 7.5l-15 -154q-125 -34 -225 -34 q-83 0 -137.5 14.5t-98 54.5t-63.5 117t-20 195z" />
<glyph unicode="d" horiz-adv-x="1032" d="M147 356q0 62 5 111q28 306 140.5 438.5t356.5 132.5q55 0 113 -10l37 406h174l-125 -1434h-143l-11 123q-107 -137 -276 -137q-138 0 -204.5 92t-66.5 278zM326 348q0 -109 32.5 -162t104.5 -53q56 0 102.5 25.5t75.5 67t45.5 88t20.5 94.5l43 475q-62 8 -136 8 q-72 0 -122.5 -28.5t-82.5 -88t-50 -137.5t-29 -191q-4 -70 -4 -98z" />
<glyph unicode="e" horiz-adv-x="933" d="M150 367q0 182 27.5 312.5t81.5 208.5t128.5 114t173.5 36q83 0 145.5 -23.5t97.5 -64t51.5 -88.5t16.5 -104q0 -175 -104.5 -257.5t-294.5 -82.5q-75 0 -151 8v-74q0 -54 8.5 -94.5t22.5 -64t34.5 -37.5t40.5 -18.5t45 -4.5q38 0 72.5 2t67 7t51.5 8t50 10t38 8 l-15 -148q-50 -14 -125.5 -24t-130.5 -10q-63 0 -109.5 8.5t-90.5 32.5t-71 65.5t-43.5 110.5t-16.5 164zM332 567q61 -6 110 -6q143 0 205 44t62 145q0 67 -32 105t-118 38q-96 0 -152 -74t-75 -252z" />
<glyph unicode="f" horiz-adv-x="626" d="M-123 -348l12 145q86 -8 148 -8q51 0 82 29.5t35 83.5l86 972h-134l13 150h133l14 160q24 264 283 264q78 0 190 -23l-12 -147q-90 22 -164 22q-54 0 -85 -28t-36 -74l-16 -174h248l-12 -150h-248l-84 -962q-21 -270 -279 -270q-86 0 -174 10z" />
<glyph unicode="g" horiz-adv-x="1032" d="M147 365q0 61 5 112q28 303 142 432t355 129q125 0 285 -45l-82 -911q-9 -105 -24.5 -179.5t-41 -126.5t-55.5 -83t-77.5 -48t-96.5 -22.5t-123 -5.5q-92 0 -233 29l14 151q147 -30 242 -30q55 0 89 9t63 37.5t44.5 83.5t22.5 144l6 80q-100 -115 -264 -115 q-140 0 -205.5 87.5t-65.5 271.5zM326 360q0 -107 32 -156.5t105 -49.5q58 0 105 24.5t75.5 64t45 83.5t20.5 90l41 465q-78 10 -136 10q-72 0 -122.5 -27t-82.5 -84.5t-50 -133.5t-29 -189q-4 -70 -4 -97z" />
<glyph unicode="h" horiz-adv-x="1036" d="M143 0l125 1434h174l-43 -502q92 106 244 106q153 0 216 -74t63 -221q0 -26 -4 -88l-56 -655h-174l55 655q7 70 7 78q0 76 -34 117t-118 41q-55 0 -98.5 -26t-69.5 -69.5t-40.5 -91t-18.5 -98.5l-54 -606h-174z" />
<glyph unicode="i" horiz-adv-x="501" d="M143 0l88 1024h175l-89 -1024h-174zM242 1249l16 185h195l-17 -185h-194z" />
<glyph unicode="j" horiz-adv-x="501" d="M-143 -348l12 145q86 -8 147 -8q51 0 82 29.5t35 83.5l98 1122h175l-97 -1112q-25 -270 -278 -270q-86 0 -174 10zM242 1249l16 185h195l-17 -185h-194z" />
<glyph unicode="k" horiz-adv-x="950" d="M143 0l125 1434h174l-67 -762l334 352h223l-381 -395l307 -629h-199l-237 508l-68 -70l-37 -438h-174z" />
<glyph unicode="l" horiz-adv-x="552" d="M160 184q0 34 4 66l104 1184h174l-100 -1153l-2.5 -27.5t-2.5 -28t-1 -14.5q0 -37 13.5 -52.5t47.5 -15.5q10 0 21.5 2t22 5.5t12.5 3.5l-13 -144q-77 -16 -125 -16q-68 0 -111.5 43.5t-43.5 146.5z" />
<glyph unicode="m" horiz-adv-x="1495" d="M143 0l88 1024h144l2 -111q88 125 246 125q189 0 237 -137q43 68 106 102.5t158 34.5q144 0 201 -71t57 -215q0 -50 -6 -117l-53 -635h-174l55 655q6 75 6 93q0 70 -28.5 106.5t-102.5 36.5q-54 0 -94.5 -25.5t-63 -69t-34 -88t-15.5 -96.5l-51 -612h-174l55 655 q7 87 7 93q0 70 -28.5 106.5t-102.5 36.5q-55 0 -95.5 -26t-63.5 -70.5t-34.5 -90t-15.5 -98.5l-52 -606h-174z" />
<glyph unicode="n" horiz-adv-x="1036" d="M143 0l88 1024h144l2 -119q96 133 266 133q153 0 216 -74t63 -221q0 -26 -4 -88l-56 -655h-174l55 655q7 70 7 78q0 76 -34 117t-118 41q-55 0 -99 -26t-70 -69.5t-41 -91t-19 -98.5l-52 -606h-174z" />
<glyph unicode="o" horiz-adv-x="1044" d="M152 401q0 331 104.5 484t335.5 153q348 0 348 -391q0 -343 -104.5 -502t-335.5 -159q-85 0 -146.5 19.5t-108.5 66t-70 128.5t-23 201zM328 389q0 -138 43.5 -199t140.5 -61q115 0 171 86t73 287q6 80 6 141q0 138 -41 195t-141 57q-122 0 -174.5 -86t-71.5 -307 q-6 -61 -6 -113z" />
<glyph unicode="p" horiz-adv-x="1021" d="M113 -348l118 1372h144l4 -115q99 129 264 129q148 0 213.5 -90.5t65.5 -263.5q0 -62 -7 -127q-14 -161 -44 -266t-86.5 -175.5t-142 -100t-212.5 -29.5q-41 0 -115 8l-28 -342h-174zM328 139q46 -6 137 -6q133 0 192.5 100.5t79.5 323.5q6 56 6 123q0 109 -32.5 160 t-108.5 51q-52 0 -93.5 -23t-66 -57t-42 -80.5t-25 -85.5t-10.5 -80z" />
<glyph unicode="q" horiz-adv-x="1032" d="M145 350q0 45 7 117q28 305 141.5 438t355.5 133q143 0 285 -45l-117 -1341h-174l39 457q-101 -123 -264 -123q-143 0 -208 90t-65 274zM326 348q0 -109 32.5 -162t104.5 -53q47 0 86 18t65.5 46.5t46.5 67t31 75.5t17 76l41 465q-52 10 -136 10q-72 0 -122.5 -28.5 t-82.5 -88t-50 -137.5t-29 -191q-4 -70 -4 -98z" />
<glyph unicode="r" horiz-adv-x="692" d="M143 0l88 1024h144l4 -127q91 141 223 141q49 0 107 -12l-15 -178q-70 16 -123 16q-49 0 -87.5 -27t-62 -72t-36.5 -95t-18 -105l-50 -565h-174z" />
<glyph unicode="s" horiz-adv-x="823" d="M111 16l14 150q155 -33 256 -33q47 0 81 17.5t51 46.5t24.5 58.5t7.5 61.5q0 56 -25.5 84t-91.5 43q-264 60 -264 258q0 178 93.5 257t272.5 79q105 0 222 -30l-13 -150l-32 8t-34 8l-32.5 6.5t-39 6t-41.5 3t-52 1.5q-164 0 -164 -166q0 -49 29 -77t92 -40 q138 -28 200 -95.5t62 -174.5q0 -182 -89.5 -267t-283.5 -85q-131 0 -243 30z" />
<glyph unicode="t" horiz-adv-x="657" d="M106 870l13 154h133l22 246h175l-23 -246h238l-13 -154h-237l-52 -579q-4 -40 -4 -60q0 -38 21 -67t72 -29q63 0 137 19l-13 -144q-74 -22 -178 -22q-112 0 -163.5 61.5t-51.5 167.5q0 5 6 80l52 573h-134z" />
<glyph unicode="u" d="M162 266q0 29 4 103l55 655h174l-57 -676q-4 -58 -4 -80q0 -67 27.5 -101t103.5 -34q57 0 100 28t67 75.5t37 95.5t17 100l49 592h174l-88 -1024h-143l-4 109q-89 -123 -250 -123q-148 0 -205 69.5t-57 210.5z" />
<glyph unicode="v" horiz-adv-x="946" d="M139 1024h183l145 -883l293 883h182l-362 -1024h-252z" />
<glyph unicode="w" horiz-adv-x="1372" d="M150 1024h178l86 -893l245 709h175l108 -709l244 893h172l-291 -1024h-268l-82 555l-189 -555h-262z" />
<glyph unicode="x" horiz-adv-x="950" d="M61 0l342 528l-229 496h201l143 -334l209 334h193l-320 -487l258 -537h-203l-161 375l-238 -375h-195z" />
<glyph unicode="y" horiz-adv-x="948" d="M139 1024h185l165 -846l273 846h182l-393 -1114q-24 -68 -45 -110.5t-53 -82t-76.5 -57.5t-104.5 -18q-39 0 -114 12l12 149q58 -8 106 -8q55 0 91 92l43 113h-41z" />
<glyph unicode="z" horiz-adv-x="825" d="M72 0l12 164l504 708h-400l13 152h590l-17 -182l-498 -690h418l-12 -152h-610z" />
<glyph unicode="{" horiz-adv-x="665" d="M102 604l21 225q27 0 48 3.5t45.5 15.5t41.5 32.5t30 56.5t17 85l37 408q6 72 20 118t41.5 79.5t72.5 48t112 14.5q35 0 90 -11l-12 -139q-36 6 -62 6q-48 0 -72 -20.5t-28 -65.5l-43 -499q-4 -51 -21.5 -92.5t-41 -68.5t-55 -46t-60.5 -28.5t-60 -14.5q74 -8 135.5 -67 t61.5 -150q0 -8 -6 -62l-35 -397q-1 -13 -2.5 -30.5t-2.5 -29.5t-1 -14q0 -39 20.5 -56.5t65.5 -17.5q21 0 63 7l-12 -140q-50 -10 -92 -10q-107 0 -155 52t-48 159q0 34 4 70l29 346q6 69 6 75q0 50 -13 83t-37.5 48.5t-48 21t-53.5 5.5z" />
<glyph unicode="|" horiz-adv-x="593" d="M174 -225l164 1884h164l-164 -1884h-164z" />
<glyph unicode="}" horiz-adv-x="665" d="M70 -246l12 140q42 -7 63 -7q49 0 71.5 20t27.5 66l45 500q6 61 30 109.5t59.5 77t72 44t73.5 19.5q-74 12 -133 67t-59 146q0 15 4 65l35 410q1 13 2.5 28.5t2.5 25.5t1 12q0 69 -86 69q-30 0 -66 -6l13 139q55 11 94 11q107 0 155 -52t48 -159q0 -27 -7 -90l-28 -326 q-6 -69 -6 -76q0 -49 13 -82t37 -48.5t47.5 -21.5t53.5 -6l-20 -225q-33 0 -59.5 -6.5t-54.5 -25t-46 -59t-23 -101.5l-34 -408q-12 -145 -68 -202.5t-178 -57.5q-42 0 -92 10z" />
<glyph unicode="~" horiz-adv-x="1044" d="M201 545l14 160q68 40 115.5 53.5t97.5 13.5q56 0 147.5 -40t143.5 -40q84 0 196 74l-14 -160q-103 -67 -213 -67q-57 0 -145.5 39.5t-145.5 39.5q-86 0 -196 -73z" />
<glyph unicode="&#xa1;" horiz-adv-x="512" d="M113 -410l88 1008h174l-88 -1008h-174zM203 819l18 205h205l-18 -205h-205z" />
<glyph unicode="&#xa2;" horiz-adv-x="962" d="M217 365q0 328 81.5 485t254.5 182l18 197h164l-18 -201q59 -8 131 -24l-12 -154q-128 33 -236 33q-91 0 -136 -85.5t-65 -308.5q-6 -73 -6 -127q0 -71 10 -117t30.5 -69t44 -31t59.5 -8q29 0 56 2t56.5 7t42.5 7.5t47 10t37 8.5l-14 -154q-65 -19 -135 -28l-17 -195 h-164l17 193q-63 6 -106.5 26t-76 62.5t-48 113.5t-15.5 175z" />
<glyph unicode="&#xa3;" horiz-adv-x="962" d="M115 0l12 150h141l49 546h-143l14 150h144l10 115q14 153 40 246.5t76.5 148t117.5 73.5t174 19q52 0 194 -27l-12 -151q-114 24 -182 24q-86 0 -128 -22t-65.5 -88.5t-36.5 -208.5l-12 -129h264l-14 -150h-262l-50 -546h408l-12 -150h-727z" />
<glyph unicode="&#xa4;" horiz-adv-x="1167" d="M106 211l130 129q-62 114 -62 274q0 159 62 273l-130 131l115 115l121 -121q119 84 283 84t280 -84l123 121l115 -115l-129 -131q61 -113 61 -273q0 -161 -61 -274l129 -129l-115 -115l-123 121q-112 -84 -280 -84t-283 84l-121 -121zM352 614q0 -160 76.5 -249 t196.5 -89t196 88.5t76 249.5t-76 249.5t-196 88.5t-196.5 -89t-76.5 -249z" />
<glyph unicode="&#xa5;" horiz-adv-x="962" d="M121 236l12 153h266l15 154h-267l13 153h262l-277 738h193l201 -560l297 560h190l-410 -738h261l-13 -153h-266l-14 -154h266l-12 -153h-267l-20 -236h-184l20 236h-266z" />
<glyph unicode="&#xa6;" horiz-adv-x="593" d="M174 -225l64 737h163l-63 -737h-164zM274 922l64 737h164l-64 -737h-164z" />
<glyph unicode="&#xa7;" horiz-adv-x="962" d="M172 18l14 150q6 -2 32 -9t34.5 -9t32 -7t40 -6.5t41.5 -3.5t52 -2q74 0 123 48.5t49 115.5q0 109 -119 127q-140 24 -201 85.5t-61 164.5q0 90 40.5 162.5t110.5 109.5q-36 26 -55.5 76.5t-19.5 103.5q0 87 28 151t79 101t116.5 54.5t146.5 17.5q37 0 74.5 -4.5 t56.5 -8.5t51.5 -13t34.5 -9l-12 -147q-9 2 -33 8.5t-34.5 9t-33 7.5t-39.5 7t-41.5 3.5t-51.5 1.5q-48 0 -83 -17t-53 -43.5t-26 -53t-8 -52.5q0 -105 118 -125q136 -22 198.5 -91.5t62.5 -166.5q0 -177 -158 -267q84 -56 84 -178q0 -323 -373 -323q-25 0 -50.5 2t-43.5 4 t-39.5 6.5t-32 7t-29 7t-22.5 5.5zM385 686q0 -58 33 -90.5t123 -46.5q41 18 79.5 78.5t38.5 117.5q0 58 -34.5 92t-128.5 50q-47 -17 -79 -76.5t-32 -124.5z" />
<glyph unicode="&#xa8;" horiz-adv-x="727" d="M158 1219l14 163h174l-14 -163h-174zM567 1219l15 163h174l-15 -163h-174z" />
<glyph unicode="&#xa9;" horiz-adv-x="1638" d="M215 717q0 731 655 731q139 0 246 -33t180 -94t120 -152t68 -202t21 -250q0 -175 -34 -307t-108 -228.5t-197.5 -146t-295.5 -49.5q-341 0 -498 186t-157 545zM373 717q0 -113 14 -201t49 -163t91 -124t142 -76.5t201 -27.5q96 0 170.5 18.5t126.5 55.5t87.5 86.5 t56 118.5t29 143.5t8.5 169.5t-8.5 169.5t-29 143.5t-56 118.5t-87.5 86.5t-126.5 55.5t-170.5 18.5q-143 0 -241.5 -40t-153.5 -119.5t-78.5 -184t-23.5 -248.5zM639 729q0 122 15.5 200t50.5 118.5t78 54.5t110 14q23 0 62 -5.5t51 -10.5v-99q-60 13 -129 13 q-28 0 -44.5 -4.5t-33 -20.5t-25 -47.5t-13.5 -85.5t-5 -135q0 -84 5.5 -140t14 -88t25.5 -48.5t33.5 -20.5t44.5 -4q69 0 127 12v-98q-71 -17 -125 -17q-51 0 -87.5 10.5t-67 37.5t-49 73.5t-28.5 118.5t-10 172z" />
<glyph unicode="&#xaa;" horiz-adv-x="808" d="M117 0l12 154h514l-12 -154h-514zM180 928q0 24 4 90q22 227 109 328.5t260 101.5q40 0 99.5 -11t97.5 -24l-50 -569v-10q0 -58 60 -58l-8 -108h-31q-108 0 -137 84q-67 -95 -197 -95q-108 0 -157.5 67t-49.5 204zM324 913q0 -78 21 -107.5t75 -29.5q65 0 102.5 44 t42.5 108l35 397q-36 4 -72 4q-204 0 -204 -416z" />
<glyph unicode="&#xab;" horiz-adv-x="952" d="M186 612l220 424h137l-168 -424l92 -424h-135zM514 612l219 424h137l-168 -424l93 -424h-136z" />
<glyph unicode="&#xac;" horiz-adv-x="1239" d="M162 563l12 154h973l-43 -500h-174l28 346h-796z" />
<glyph unicode="&#xad;" horiz-adv-x="1013" d="M203 563l12 154h666l-13 -154h-665z" />
<glyph unicode="&#xae;" horiz-adv-x="1638" d="M215 717q0 731 655 731q139 0 246 -33t180 -94t120 -152t68 -202t21 -250q0 -175 -34 -307t-108 -228.5t-197.5 -146t-295.5 -49.5q-341 0 -498 186t-157 545zM373 717q0 -113 14 -201t49 -163t91 -124t142 -76.5t201 -27.5q96 0 170.5 18.5t126.5 55.5t87.5 86.5 t56 118.5t29 143.5t8.5 169.5t-8.5 169.5t-29 143.5t-56 118.5t-87.5 86.5t-126.5 55.5t-170.5 18.5q-143 0 -241.5 -40t-153.5 -119.5t-78.5 -184t-23.5 -248.5zM676 326v788q90 6 184 6q122 0 173.5 -59.5t51.5 -169.5q0 -180 -112 -227l153 -338h-125l-137 321h-78v-321 h-110zM786 745h88q52 0 75.5 26.5t23.5 111.5q0 83 -20 113t-79 30l-88 -4v-277z" />
<glyph unicode="&#xaf;" horiz-adv-x="665" d="M158 1239l14 143h522l-14 -143h-522z" />
<glyph unicode="&#xb0;" horiz-adv-x="743" d="M137 1083q0 76 19 140t58.5 114t106 78.5t154.5 28.5q148 0 217.5 -74.5t69.5 -200.5q0 -76 -19.5 -140t-59.5 -115.5t-107 -81t-156 -29.5q-144 0 -213.5 77t-69.5 203zM287 1100q0 -72 33 -119t110 -47q50 0 86 20.5t55.5 55.5t28.5 72t10 79q0 156 -145 156 q-49 0 -85 -19.5t-55.5 -52t-28.5 -69t-9 -76.5z" />
<glyph unicode="&#xb1;" horiz-adv-x="1126" d="M154 0l12 154h778l-12 -154h-778zM203 563l12 154h307l29 323h164l-29 -323h307l-12 -154h-307l-25 -270h-164l25 270h-307z" />
<glyph unicode="&#xb2;" horiz-adv-x="839" d="M150 420l14 145l256 322q86 113 111.5 170.5t25.5 156.5q0 49 -26 74t-87 25q-67 0 -190 -25l10 133q2 0 36 6.5t76.5 11.5t78.5 5q125 0 189.5 -63.5t64.5 -176.5q0 -105 -30.5 -174.5t-119.5 -189.5l-229 -287h336l-13 -133h-503z" />
<glyph unicode="&#xb3;" horiz-adv-x="839" d="M180 432l13 131q105 -24 190 -24q71 0 108 56.5t37 164.5q0 71 -26 104t-92 33h-117l10 129h103q147 0 147 193q0 57 -25 76.5t-82 19.5q-70 0 -182 -25l10 131q92 23 189 23q53 0 94.5 -10.5t76 -34.5t53 -70t18.5 -112q0 -112 -34 -169t-106 -81q56 -12 86.5 -68 t30.5 -141q0 -32 -4 -60q-14 -157 -88 -222.5t-209 -65.5q-50 0 -117.5 8.5t-83.5 13.5z" />
<glyph unicode="&#xb4;" horiz-adv-x="620" d="M174 1188l238 276h223l-285 -276h-176z" />
<glyph unicode="&#xb5;" d="M102 -348l119 1372h174l-57 -672q-6 -75 -6 -82q0 -67 28 -102t105 -35q57 0 100 28t67 75.5t37 95.5t17 100l49 592h174l-88 -1024h-143l-4 109q-89 -123 -250 -123q-55 0 -117 16l-31 -350h-174z" />
<glyph unicode="&#xb6;" horiz-adv-x="1044" d="M186 1053q0 103 28 181.5t76.5 123.5t106 67.5t123.5 22.5q49 0 102.5 -3.5t81.5 -6.5l29 -4l-12 -144q-119 13 -148 13q-129 0 -180 -56.5t-51 -199.5q0 -60 35 -99t98 -39h207l-78 -909h-168l66 766h-49q-44 0 -80.5 7t-72.5 26t-60 50t-39 83t-15 121zM426 -348 l12 145q86 -8 148 -8q51 0 83 29.5t38 83.5l135 1532h164l-136 -1522q-15 -127 -77.5 -198.5t-192.5 -71.5q-86 0 -174 10z" />
<glyph unicode="&#xb7;" horiz-adv-x="471" d="M158 532l18 205h205l-19 -205h-204z" />
<glyph unicode="&#xb8;" horiz-adv-x="618" d="M78 -395l12 127q60 -13 111 -13q46 0 67 14.5t21 55.5q0 29 -34 42t-126 13l64 258h133l-37 -157q84 -10 120.5 -44t36.5 -100q0 -106 -64.5 -158.5t-174.5 -52.5q-52 0 -129 15z" />
<glyph unicode="&#xb9;" horiz-adv-x="839" d="M207 420l12 135h180l66 733l-205 -78l12 146l189 78h170l-78 -879h147l-12 -135h-481z" />
<glyph unicode="&#xba;" horiz-adv-x="851" d="M119 0l12 154h565l-12 -154h-565zM201 971q0 249 77 363t252 114q265 0 265 -305q0 -10 -1 -27t-3 -37.5t-3 -29.5q-13 -154 -51 -239.5t-102 -119t-172 -33.5q-130 0 -196 70t-66 244zM344 940q0 -86 29 -125t100 -39q89 0 122 59t46 205q6 58 6 107q0 91 -28.5 136.5 t-98.5 45.5q-96 0 -136 -99t-40 -290z" />
<glyph unicode="&#xbb;" horiz-adv-x="952" d="M147 188l168 424l-90 424h133l146 -424l-219 -424h-138zM475 188l168 424l-90 424h133l145 -424l-219 -424h-137z" />
<glyph unicode="&#xbc;" horiz-adv-x="1792" d="M186 420l13 135h180l65 733l-204 -78l12 146l188 78h170l-78 -879h148l-12 -135h-482zM467 -205l815 1864h164l-815 -1864h-164zM1073 240l12 151l207 623h142l-207 -643h157l27 293h152l-27 -293h102l-10 -131h-102l-23 -240h-151l22 240h-301z" />
<glyph unicode="&#xbd;" horiz-adv-x="1792" d="M186 420l13 135h180l65 733l-204 -78l12 146l188 78h170l-78 -879h148l-12 -135h-482zM477 -205l815 1864h164l-815 -1864h-164zM1141 0l14 145l256 322q86 113 111.5 171t25.5 157q0 49 -25.5 73.5t-86.5 24.5q-69 0 -191 -25l10 133q2 0 36 6.5t76.5 11.5t78.5 5 q125 0 189.5 -63.5t64.5 -176.5q0 -105 -30.5 -174.5t-119.5 -189.5l-229 -287h336l-12 -133h-504z" />
<glyph unicode="&#xbe;" horiz-adv-x="1792" d="M195 432l12 131q105 -24 190 -24q71 0 108.5 56.5t37.5 164.5q0 71 -26.5 104t-92.5 33h-117l10 129h103q147 0 147 193q0 57 -25 76.5t-81 19.5q-69 0 -182 -25l10 131q92 23 188 23q53 0 94.5 -10.5t76 -34.5t53 -70t18.5 -112q0 -112 -33.5 -169t-105.5 -81 q56 -12 86 -68t30 -141q0 -32 -4 -60q-14 -157 -88 -222.5t-209 -65.5q-50 0 -116.5 8.5t-83.5 13.5zM444 -205l816 1864h163l-815 -1864h-164zM1059 240l12 151l207 623h141l-207 -643h158l27 293h151l-26 -293h102l-10 -131h-103l-22 -240h-152l23 240h-301z" />
<glyph unicode="&#xbf;" horiz-adv-x="737" d="M43 -76q0 85 38 164.5t146 192.5l125 129l15 188h174l-21 -248l-135 -143q-39 -42 -51 -54.5t-38.5 -42.5t-32 -39t-20 -32.5t-16.5 -35.5t-7.5 -35.5t-6 -44.5t-0.5 -52q0 -78 41.5 -110.5t118.5 -32.5q29 0 66.5 3.5t64 7.5t67 10.5t54.5 8.5l-13 -149 q-134 -33 -235 -33q-166 0 -250 64.5t-84 224.5v59zM371 819l16 205h205l-17 -205h-204z" />
<glyph unicode="&#xc0;" horiz-adv-x="1024" d="M31 0l467 1434h235l219 -1434h-178l-47 362h-403l-111 -362h-182zM371 516h338l-105 782zM379 1722h227l193 -235h-170z" />
<glyph unicode="&#xc1;" horiz-adv-x="1024" d="M31 0l467 1434h235l219 -1434h-178l-47 362h-403l-111 -362h-182zM371 516h338l-105 782zM438 1487l234 235h227l-291 -235h-170z" />
<glyph unicode="&#xc2;" horiz-adv-x="1024" d="M31 0l467 1434h235l219 -1434h-178l-47 362h-403l-111 -362h-182zM299 1495l246 236h188l207 -236h-199l-110 131l-135 -131h-197zM371 516h338l-105 782z" />
<glyph unicode="&#xc3;" horiz-adv-x="1024" d="M31 0l467 1434h235l219 -1434h-178l-47 362h-403l-111 -362h-182zM358 1503l15 150q87 67 182 67q50 0 118.5 -40t106.5 -40q50 0 86 17t84 57l-12 -149q-76 -68 -182 -68q-43 0 -81 20t-73.5 40t-71.5 20q-83 0 -172 -74zM371 516h338l-105 782z" />
<glyph unicode="&#xc4;" horiz-adv-x="1024" d="M31 0l467 1434h235l219 -1434h-178l-47 362h-403l-111 -362h-182zM330 1505l14 164h174l-14 -164h-174zM371 516h338l-105 782zM739 1505l15 164h174l-15 -164h-174z" />
<glyph unicode="&#xc5;" horiz-adv-x="1024" d="M31 0l450 1384q-49 55 -49 136q0 101 57 166t154 65q82 0 131 -50.5t49 -133.5q0 -4 -1 -12.5t-1 -12.5q-9 -107 -80 -166l211 -1376h-178l-47 362h-403l-111 -362h-182zM371 516h338l-105 782zM549 1530q0 -86 67 -86q46 0 64 27t22 73v19q0 82 -69 82q-45 0 -64.5 -34 t-19.5 -81z" />
<glyph unicode="&#xc6;" horiz-adv-x="1521" d="M31 0l610 1434h832l-15 -150h-551l15 -469h485l-12 -149h-467l16 -516h457l-12 -150h-611l-10 362h-406l-147 -362h-184zM426 520h338l-19 764z" />
<glyph unicode="&#xc7;" horiz-adv-x="866" d="M164 485q0 110 12 254q16 182 43 306t64.5 204t96.5 123.5t127 59.5t169 16q38 0 105.5 -12t95.5 -21l-15 -151q-124 30 -235 30q-60 0 -99 -19.5t-74 -78.5t-58 -173.5t-40 -297.5q-14 -231 -14 -262q0 -82 8.5 -140.5t23 -94t39 -55.5t51 -27t64.5 -7q103 0 240 31 l-14 -150q-116 -31 -224 -34l-8 -41q85 -10 121.5 -44t36.5 -100q0 -106 -65 -158.5t-175 -52.5q-52 0 -129 15l13 127q60 -13 110 -13q46 0 67 14.5t21 55.5q0 29 -34 42t-126 13l37 154q-121 29 -178 140.5t-57 346.5z" />
<glyph unicode="&#xc8;" horiz-adv-x="958" d="M154 0l125 1434h671l-14 -150h-494l-41 -469h443l-13 -149h-442l-45 -516h494l-13 -150h-671zM358 1722h228l192 -235h-170z" />
<glyph unicode="&#xc9;" horiz-adv-x="958" d="M154 0l125 1434h671l-14 -150h-494l-41 -469h443l-13 -149h-442l-45 -516h494l-13 -150h-671zM481 1487l234 235h227l-291 -235h-170z" />
<glyph unicode="&#xca;" horiz-adv-x="958" d="M154 0l125 1434h671l-14 -150h-494l-41 -469h443l-13 -149h-442l-45 -516h494l-13 -150h-671zM299 1495l246 236h188l207 -236h-199l-110 131l-135 -131h-197z" />
<glyph unicode="&#xcb;" horiz-adv-x="958" d="M154 0l125 1434h671l-14 -150h-494l-41 -469h443l-13 -149h-442l-45 -516h494l-13 -150h-671zM334 1505l14 164h174l-14 -164h-174zM743 1505l15 164h174l-14 -164h-175z" />
<glyph unicode="&#xcc;" horiz-adv-x="649" d="M72 0l12 150h143l99 1134h-144l15 150h465l-15 -150h-143l-98 -1134h143l-12 -150h-465zM207 1722h227l193 -235h-170z" />
<glyph unicode="&#xcd;" horiz-adv-x="649" d="M72 0l12 150h143l99 1134h-144l15 150h465l-15 -150h-143l-98 -1134h143l-12 -150h-465zM233 1487l234 235h227l-291 -235h-170z" />
<glyph unicode="&#xce;" horiz-adv-x="649" d="M72 0l12 150h143l99 1134h-144l15 150h465l-15 -150h-143l-98 -1134h143l-12 -150h-465zM113 1495l245 236h189l207 -236h-195l-110 131l-136 -131h-200z" />
<glyph unicode="&#xcf;" horiz-adv-x="649" d="M72 0l12 150h143l99 1134h-144l15 150h465l-15 -150h-143l-98 -1134h143l-12 -150h-465zM145 1505l15 164h174l-15 -164h-174zM555 1505l14 164h174l-14 -164h-174z" />
<glyph unicode="&#xd0;" horiz-adv-x="1097" d="M88 666l12 153h146l53 615q191 14 332 14q76 0 131.5 -11.5t106 -43.5t82 -87t49.5 -144.5t18 -213.5q0 -79 -10 -209q-16 -183 -43.5 -313t-65.5 -215.5t-94.5 -135t-121.5 -69.5t-155 -20q-71 0 -159.5 3.5t-141.5 6.5l-53 4l57 666h-143zM365 143q108 -8 194 -8 q50 0 90 29.5t74.5 96.5t60 183.5t39.5 280.5q13 149 13 233q0 83 -8.5 144.5t-23 98.5t-37 59t-47 30t-56.5 8l-199 -8l-41 -471h229l-12 -153h-231z" />
<glyph unicode="&#xd1;" horiz-adv-x="1120" d="M154 0l125 1434h290l203 -1282l113 1282h166l-125 -1434h-293l-203 1282l-111 -1282h-165zM389 1503l14 150q87 67 183 67q50 0 118.5 -40t106.5 -40q50 0 86 17t84 57l-12 -149q-76 -68 -183 -68q-43 0 -81 20t-73 40t-71 20q-83 0 -172 -74z" />
<glyph unicode="&#xd2;" horiz-adv-x="1122" d="M166 535q0 53 10 198q13 152 33 260t56 198.5t89 144.5t130.5 83t181.5 29q204 0 290 -121.5t86 -382.5q0 -84 -10 -211q-14 -159 -35 -271.5t-57 -207t-89 -151t-130.5 -87t-181.5 -30.5q-206 0 -289.5 132t-83.5 417zM344 487q0 -191 48.5 -271.5t158.5 -80.5 q94 0 151.5 56t92 182.5t53.5 349.5q14 168 14 246q0 184 -48.5 256.5t-160.5 72.5q-94 0 -150 -50t-91 -174t-56 -351q-12 -210 -12 -236zM397 1722h228l192 -235h-170z" />
<glyph unicode="&#xd3;" horiz-adv-x="1122" d="M166 535q0 53 10 198q13 152 33 260t56 198.5t89 144.5t130.5 83t181.5 29q204 0 290 -121.5t86 -382.5q0 -84 -10 -211q-14 -159 -35 -271.5t-57 -207t-89 -151t-130.5 -87t-181.5 -30.5q-206 0 -289.5 132t-83.5 417zM344 487q0 -191 48.5 -271.5t158.5 -80.5 q94 0 151.5 56t92 182.5t53.5 349.5q14 168 14 246q0 184 -48.5 256.5t-160.5 72.5q-94 0 -150 -50t-91 -174t-56 -351q-12 -210 -12 -236zM530 1487l234 235h227l-291 -235h-170z" />
<glyph unicode="&#xd4;" horiz-adv-x="1122" d="M166 535q0 53 10 198q13 152 33 260t56 198.5t89 144.5t130.5 83t181.5 29q204 0 290 -121.5t86 -382.5q0 -84 -10 -211q-14 -159 -35 -271.5t-57 -207t-89 -151t-130.5 -87t-181.5 -30.5q-206 0 -289.5 132t-83.5 417zM344 487q0 -191 48.5 -271.5t158.5 -80.5 q94 0 151.5 56t92 182.5t53.5 349.5q14 168 14 246q0 184 -48.5 256.5t-160.5 72.5q-94 0 -150 -50t-91 -174t-56 -351q-12 -210 -12 -236zM350 1495l246 236h188l207 -236h-198l-111 131l-135 -131h-197z" />
<glyph unicode="&#xd5;" horiz-adv-x="1122" d="M166 535q0 53 10 198q13 152 33 260t56 198.5t89 144.5t130.5 83t181.5 29q204 0 290 -121.5t86 -382.5q0 -84 -10 -211q-14 -159 -35 -271.5t-57 -207t-89 -151t-130.5 -87t-181.5 -30.5q-206 0 -289.5 132t-83.5 417zM344 487q0 -191 48.5 -271.5t158.5 -80.5 q94 0 151.5 56t92 182.5t53.5 349.5q14 168 14 246q0 184 -48.5 256.5t-160.5 72.5q-94 0 -150 -50t-91 -174t-56 -351q-12 -210 -12 -236zM391 1503l15 150q87 67 182 67q50 0 118.5 -40t106.5 -40q50 0 86 17t84 57l-12 -149q-76 -68 -183 -68q-43 0 -81 20t-73 40t-71 20 q-83 0 -172 -74z" />
<glyph unicode="&#xd6;" horiz-adv-x="1122" d="M166 535q0 53 10 198q13 152 33 260t56 198.5t89 144.5t130.5 83t181.5 29q204 0 290 -121.5t86 -382.5q0 -84 -10 -211q-14 -159 -35 -271.5t-57 -207t-89 -151t-130.5 -87t-181.5 -30.5q-206 0 -289.5 132t-83.5 417zM344 487q0 -191 48.5 -271.5t158.5 -80.5 q94 0 151.5 56t92 182.5t53.5 349.5q14 168 14 246q0 184 -48.5 256.5t-160.5 72.5q-94 0 -150 -50t-91 -174t-56 -351q-12 -210 -12 -236zM381 1505l14 164h174l-14 -164h-174zM791 1505l14 164h174l-14 -164h-174z" />
<glyph unicode="&#xd7;" horiz-adv-x="1126" d="M246 395l237 240l-237 239l114 115l240 -237l240 237l114 -115l-237 -239l237 -240l-114 -114l-240 237l-240 -237z" />
<glyph unicode="&#xd8;" horiz-adv-x="1122" d="M166 535q0 53 10 198q13 152 33 260t56 198.5t89 144.5t130.5 83t181.5 29q76 0 137 -18l74 190h155l-102 -264q112 -115 112 -412q0 -84 -10 -211q-14 -159 -35 -271.5t-57 -207t-89 -151t-130.5 -87t-181.5 -30.5q-71 0 -133 16l-74 -188h-154l103 264 q-115 120 -115 457zM344 487q0 -119 18 -196l383 991q-43 16 -92 16q-94 0 -150 -50t-91 -174t-56 -351q-12 -210 -12 -236zM463 152q35 -17 88 -17q94 0 151.5 56t92 182.5t53.5 349.5q14 168 14 246q0 100 -16 172z" />
<glyph unicode="&#xd9;" horiz-adv-x="1095" d="M174 324q0 39 4 75l90 1035h178l-92 -1051q-4 -66 -4 -72q0 -89 49.5 -132.5t139.5 -43.5q96 0 155 50.5t68 154.5l96 1094h178l-92 -1055q-18 -203 -123.5 -298t-294.5 -95q-160 0 -256 84t-96 254zM377 1722h227l193 -235h-170z" />
<glyph unicode="&#xda;" horiz-adv-x="1095" d="M174 324q0 39 4 75l90 1035h178l-92 -1051q-4 -66 -4 -72q0 -89 49.5 -132.5t139.5 -43.5q96 0 155 50.5t68 154.5l96 1094h178l-92 -1055q-18 -203 -123.5 -298t-294.5 -95q-160 0 -256 84t-96 254zM530 1487l234 235h227l-291 -235h-170z" />
<glyph unicode="&#xdb;" horiz-adv-x="1095" d="M174 324q0 39 4 75l90 1035h178l-92 -1051q-4 -66 -4 -72q0 -89 49.5 -132.5t139.5 -43.5q96 0 155 50.5t68 154.5l96 1094h178l-92 -1055q-18 -203 -123.5 -298t-294.5 -95q-160 0 -256 84t-96 254zM340 1495l246 236h188l207 -236h-199l-110 131l-135 -131h-197z" />
<glyph unicode="&#xdc;" horiz-adv-x="1095" d="M174 324q0 39 4 75l90 1035h178l-92 -1051q-4 -66 -4 -72q0 -89 49.5 -132.5t139.5 -43.5q96 0 155 50.5t68 154.5l96 1094h178l-92 -1055q-18 -203 -123.5 -298t-294.5 -95q-160 0 -256 84t-96 254zM371 1505l14 164h174l-14 -164h-174zM780 1505l15 164h174l-15 -164 h-174z" />
<glyph unicode="&#xdd;" d="M145 1434h193l217 -596l324 596h190l-440 -768l-58 -666h-184l57 666zM489 1487l234 235h227l-291 -235h-170z" />
<glyph unicode="&#xde;" horiz-adv-x="1044" d="M154 0l125 1434h178l-25 -267l75 5t95 4q367 0 367 -363q0 -21 -6 -96q-9 -107 -35 -184t-76.5 -133t-130.5 -83.5t-193 -27.5h-172l-24 -289h-178zM369 438h192q93 0 150 65.5t71 223.5q4 58 4 78q0 116 -40.5 169.5t-133.5 53.5q-50 0 -98 -3t-71 -6l-23 -3z" />
<glyph unicode="&#xdf;" horiz-adv-x="1062" d="M143 0l95 1092q15 173 110.5 264.5t269.5 91.5q148 0 230 -75t82 -197q0 -35 -2.5 -63.5t-9.5 -60.5t-11 -48.5t-17 -58.5t-18 -60q-123 0 -174 -29.5t-51 -99.5q0 -26 18 -52t44 -36q239 -99 239 -310q0 -192 -91.5 -282t-285.5 -90q-22 0 -70.5 6.5t-74.5 13.5l12 150 q86 -23 152 -23q93 0 134.5 59.5t41.5 147.5q0 67 -30 108t-107 76q-77 37 -112.5 87t-35.5 126q0 131 69.5 194.5t197.5 84.5q30 73 30 147q0 58 -43.5 97.5t-132.5 39.5q-79 0 -129 -48.5t-59 -145.5l-97 -1106h-174z" />
<glyph unicode="&#xe0;" horiz-adv-x="1019" d="M145 348q0 47 7 119q28 302 143.5 436.5t347.5 134.5q53 0 131.5 -14t130.5 -31l-65 -714q0 -1 -1 -10.5t-2 -25.5t-1 -32q0 -78 79 -78l-10 -133h-39q-140 0 -176 127q-95 -141 -282 -141q-138 0 -200.5 91.5t-62.5 270.5zM324 334q0 -104 30 -152.5t99 -48.5 q99 0 155 64t64 155l47 531q-54 8 -111 8q-284 0 -284 -557zM397 1464h224l188 -276h-156z" />
<glyph unicode="&#xe1;" horiz-adv-x="1019" d="M145 348q0 47 7 119q28 302 143.5 436.5t347.5 134.5q53 0 131.5 -14t130.5 -31l-65 -714q0 -1 -1 -10.5t-2 -25.5t-1 -32q0 -78 79 -78l-10 -133h-39q-140 0 -176 127q-95 -141 -282 -141q-138 0 -200.5 91.5t-62.5 270.5zM324 334q0 -104 30 -152.5t99 -48.5 q99 0 155 64t64 155l47 531q-54 8 -111 8q-284 0 -284 -557zM524 1188l238 276h223l-285 -276h-176z" />
<glyph unicode="&#xe2;" horiz-adv-x="1019" d="M145 348q0 47 7 119q28 302 143.5 436.5t347.5 134.5q53 0 131.5 -14t130.5 -31l-65 -714q0 -1 -1 -10.5t-2 -25.5t-1 -32q0 -78 79 -78l-10 -133h-39q-140 0 -176 127q-95 -141 -282 -141q-138 0 -200.5 91.5t-62.5 270.5zM324 334q0 -104 30 -152.5t99 -48.5 q99 0 155 64t64 155l47 531q-54 8 -111 8q-284 0 -284 -557zM334 1188l254 276h180l207 -276h-199l-106 172l-140 -172h-196z" />
<glyph unicode="&#xe3;" horiz-adv-x="1019" d="M145 348q0 47 7 119q28 302 143.5 436.5t347.5 134.5q53 0 131.5 -14t130.5 -31l-65 -714q0 -1 -1 -10.5t-2 -25.5t-1 -32q0 -78 79 -78l-10 -133h-39q-140 0 -176 127q-95 -141 -282 -141q-138 0 -200.5 91.5t-62.5 270.5zM324 334q0 -104 30 -152.5t99 -48.5 q99 0 155 64t64 155l47 531q-54 8 -111 8q-284 0 -284 -557zM360 1217l15 149q88 68 182 68q50 0 118.5 -40t106.5 -40q50 0 86 17t84 56l-12 -149q-76 -68 -182 -68q-43 0 -81 20t-73.5 40t-71.5 20q-84 0 -172 -73z" />
<glyph unicode="&#xe4;" horiz-adv-x="1019" d="M145 348q0 47 7 119q28 302 143.5 436.5t347.5 134.5q53 0 131.5 -14t130.5 -31l-65 -714q0 -1 -1 -10.5t-2 -25.5t-1 -32q0 -78 79 -78l-10 -133h-39q-140 0 -176 127q-95 -141 -282 -141q-138 0 -200.5 91.5t-62.5 270.5zM324 334q0 -104 30 -152.5t99 -48.5 q99 0 155 64t64 155l47 531q-54 8 -111 8q-284 0 -284 -557zM354 1219l15 163h174l-15 -163h-174zM764 1219l14 163h174l-14 -163h-174z" />
<glyph unicode="&#xe5;" horiz-adv-x="1019" d="M145 348q0 47 7 119q28 302 143.5 436.5t347.5 134.5q53 0 131.5 -14t130.5 -31l-65 -714q0 -1 -1 -10.5t-2 -25.5t-1 -32q0 -78 79 -78l-10 -133h-39q-140 0 -176 127q-95 -141 -282 -141q-138 0 -200.5 91.5t-62.5 270.5zM324 334q0 -104 30 -152.5t99 -48.5 q99 0 155 64t64 155l47 531q-54 8 -111 8q-284 0 -284 -557zM440 1298q0 101 57 166.5t154 65.5q82 0 131 -50.5t49 -133.5q0 -4 -1 -12.5t-1 -12.5q-8 -93 -64.5 -151t-150.5 -58q-77 0 -125.5 53.5t-48.5 132.5zM557 1309q0 -86 68 -86q46 0 64 27t22 73v18q0 82 -70 82 q-45 0 -64.5 -33.5t-19.5 -80.5z" />
<glyph unicode="&#xe6;" horiz-adv-x="1464" d="M104 250q0 360 396 360q74 0 162 -10q12 137 12 160q0 58 -38 94.5t-106 36.5q-138 0 -299 -45l13 151q139 41 280 41q194 0 264 -108q97 108 269 108q67 0 120.5 -15.5t89 -41.5t58.5 -62.5t33 -76t10 -84.5q0 -330 -399 -330q-77 0 -156 8v-74q0 -229 156 -229 q38 0 72.5 2t67 7t51 8.5t49.5 10t38 7.5l-14 -148q-50 -14 -125.5 -24t-130.5 -10q-110 0 -179.5 29.5t-105.5 111.5q-93 -141 -307 -141q-39 0 -76 7t-75 26t-66 47.5t-46 76t-18 107.5zM285 272q0 -76 37.5 -107.5t115.5 -31.5q47 0 85 15t60 37t34 44t14 41l18 191 q-92 10 -172 10q-81 0 -136.5 -47t-55.5 -152zM823 578q75 -7 115 -7q146 0 206 39.5t60 139.5q0 68 -31.5 105.5t-117.5 37.5q-97 0 -154 -70.5t-78 -244.5z" />
<glyph unicode="&#xe7;" horiz-adv-x="827" d="M150 367q0 243 45.5 391.5t134 214t229.5 65.5q91 0 221 -32l-12 -154q-128 33 -236 33q-91 0 -135.5 -85t-64.5 -308q-6 -73 -6 -127q0 -71 9.5 -117t30 -69.5t44 -31.5t59.5 -8q24 0 49.5 2t43.5 4t42.5 6.5t36.5 7t36.5 8t31.5 7.5l-15 -154q-101 -28 -196 -34l-9 -41 q85 -10 121.5 -44t36.5 -100q0 -106 -64.5 -158.5t-174.5 -52.5q-52 0 -129 15l12 127q60 -13 110 -13q46 0 67 14.5t21 55.5q0 29 -34 42t-125 13l37 150q-112 18 -164.5 100.5t-52.5 272.5z" />
<glyph unicode="&#xe8;" horiz-adv-x="933" d="M150 367q0 182 27.5 312.5t81.5 208.5t128.5 114t173.5 36q83 0 145.5 -23.5t97.5 -64t51.5 -88.5t16.5 -104q0 -175 -104.5 -257.5t-294.5 -82.5q-75 0 -151 8v-74q0 -54 8.5 -94.5t22.5 -64t34.5 -37.5t40.5 -18.5t45 -4.5q38 0 72.5 2t67 7t51.5 8t50 10t38 8 l-15 -148q-50 -14 -125.5 -24t-130.5 -10q-63 0 -109.5 8.5t-90.5 32.5t-71 65.5t-43.5 110.5t-16.5 164zM324 1464h223l188 -276h-155zM332 567q61 -6 110 -6q143 0 205 44t62 145q0 67 -32 105t-118 38q-96 0 -152 -74t-75 -252z" />
<glyph unicode="&#xe9;" horiz-adv-x="933" d="M150 367q0 182 27.5 312.5t81.5 208.5t128.5 114t173.5 36q83 0 145.5 -23.5t97.5 -64t51.5 -88.5t16.5 -104q0 -175 -104.5 -257.5t-294.5 -82.5q-75 0 -151 8v-74q0 -54 8.5 -94.5t22.5 -64t34.5 -37.5t40.5 -18.5t45 -4.5q38 0 72.5 2t67 7t51.5 8t50 10t38 8 l-15 -148q-50 -14 -125.5 -24t-130.5 -10q-63 0 -109.5 8.5t-90.5 32.5t-71 65.5t-43.5 110.5t-16.5 164zM332 567q61 -6 110 -6q143 0 205 44t62 145q0 67 -32 105t-118 38q-96 0 -152 -74t-75 -252zM455 1188l237 276h223l-284 -276h-176z" />
<glyph unicode="&#xea;" horiz-adv-x="933" d="M150 367q0 182 27.5 312.5t81.5 208.5t128.5 114t173.5 36q83 0 145.5 -23.5t97.5 -64t51.5 -88.5t16.5 -104q0 -175 -104.5 -257.5t-294.5 -82.5q-75 0 -151 8v-74q0 -54 8.5 -94.5t22.5 -64t34.5 -37.5t40.5 -18.5t45 -4.5q38 0 72.5 2t67 7t51.5 8t50 10t38 8 l-15 -148q-50 -14 -125.5 -24t-130.5 -10q-63 0 -109.5 8.5t-90.5 32.5t-71 65.5t-43.5 110.5t-16.5 164zM268 1188l254 276h180l207 -276h-198l-107 172l-139 -172h-197zM332 567q61 -6 110 -6q143 0 205 44t62 145q0 67 -32 105t-118 38q-96 0 -152 -74t-75 -252z" />
<glyph unicode="&#xeb;" horiz-adv-x="933" d="M150 367q0 182 27.5 312.5t81.5 208.5t128.5 114t173.5 36q83 0 145.5 -23.5t97.5 -64t51.5 -88.5t16.5 -104q0 -175 -104.5 -257.5t-294.5 -82.5q-75 0 -151 8v-74q0 -54 8.5 -94.5t22.5 -64t34.5 -37.5t40.5 -18.5t45 -4.5q38 0 72.5 2t67 7t51.5 8t50 10t38 8 l-15 -148q-50 -14 -125.5 -24t-130.5 -10q-63 0 -109.5 8.5t-90.5 32.5t-71 65.5t-43.5 110.5t-16.5 164zM305 1219l14 163h175l-15 -163h-174zM332 567q61 -6 110 -6q143 0 205 44t62 145q0 67 -32 105t-118 38q-96 0 -152 -74t-75 -252zM715 1219l14 163h174l-14 -163 h-174z" />
<glyph unicode="&#xec;" horiz-adv-x="501" d="M57 1464h224l188 -276h-156zM143 0l88 1024h175l-89 -1024h-174z" />
<glyph unicode="&#xed;" horiz-adv-x="501" d="M143 0l88 1024h175l-89 -1024h-174zM195 1188l237 276h223l-284 -276h-176z" />
<glyph unicode="&#xee;" horiz-adv-x="501" d="M12 1188l254 276h180l207 -276h-198l-107 172l-139 -172h-197zM143 0l88 1024h175l-89 -1024h-174z" />
<glyph unicode="&#xef;" horiz-adv-x="501" d="M45 1219l14 163h174l-14 -163h-174zM143 0l88 1024h175l-89 -1024h-174zM455 1219l14 163h174l-14 -163h-174z" />
<glyph unicode="&#xf0;" horiz-adv-x="1030" d="M156 365q0 24 4 86q6 70 13 121t20 106.5t30.5 93.5t45.5 74t64.5 57.5t87.5 34t114 12.5q121 0 219 -63q2 33 2 67q0 130 -26.5 200t-84.5 103l-80 -118h-168l105 155q-27 2 -178 11l12 143q169 -7 254 -21l74 109h167l-100 -150q101 -46 151 -147.5t50 -286.5 q0 -75 -8 -155q-15 -174 -31.5 -295t-42 -215t-56.5 -149.5t-78 -91t-102.5 -48t-134.5 -12.5q-149 0 -236 91.5t-87 287.5zM328 350q0 -109 40 -163t136 -54q51 0 83.5 20.5t63 83.5t52.5 186t40 322q-104 58 -206 58q-43 0 -75.5 -17.5t-54 -46.5t-37 -78t-24 -102 t-14.5 -127q-4 -58 -4 -82z" />
<glyph unicode="&#xf1;" horiz-adv-x="1036" d="M143 0l88 1024h144l2 -119q96 133 266 133q153 0 216 -74t63 -221q0 -26 -4 -88l-56 -655h-174l55 655q7 70 7 78q0 76 -34 117t-118 41q-55 0 -99 -26t-70 -69.5t-41 -91t-19 -98.5l-52 -606h-174zM358 1217l15 149q88 68 182 68q50 0 118.5 -40t106.5 -40q50 0 86 17 t84 56l-12 -149q-76 -68 -182 -68q-43 0 -81 20t-73.5 40t-71.5 20q-84 0 -172 -73z" />
<glyph unicode="&#xf2;" horiz-adv-x="1044" d="M152 401q0 331 104.5 484t335.5 153q348 0 348 -391q0 -343 -104.5 -502t-335.5 -159q-85 0 -146.5 19.5t-108.5 66t-70 128.5t-23 201zM328 389q0 -138 43.5 -199t140.5 -61q115 0 171 86t73 287q6 80 6 141q0 138 -41 195t-141 57q-122 0 -174.5 -86t-71.5 -307 q-6 -61 -6 -113zM354 1464h224l188 -276h-156z" />
<glyph unicode="&#xf3;" horiz-adv-x="1044" d="M152 401q0 331 104.5 484t335.5 153q348 0 348 -391q0 -343 -104.5 -502t-335.5 -159q-85 0 -146.5 19.5t-108.5 66t-70 128.5t-23 201zM328 389q0 -138 43.5 -199t140.5 -61q115 0 171 86t73 287q6 80 6 141q0 138 -41 195t-141 57q-122 0 -174.5 -86t-71.5 -307 q-6 -61 -6 -113zM465 1188l237 276h224l-285 -276h-176z" />
<glyph unicode="&#xf4;" horiz-adv-x="1044" d="M152 401q0 331 104.5 484t335.5 153q348 0 348 -391q0 -343 -104.5 -502t-335.5 -159q-85 0 -146.5 19.5t-108.5 66t-70 128.5t-23 201zM285 1188l254 276h180l207 -276h-199l-106 172l-140 -172h-196zM328 389q0 -138 43.5 -199t140.5 -61q115 0 171 86t73 287 q6 80 6 141q0 138 -41 195t-141 57q-122 0 -174.5 -86t-71.5 -307q-6 -61 -6 -113z" />
<glyph unicode="&#xf5;" horiz-adv-x="1044" d="M152 401q0 331 104.5 484t335.5 153q348 0 348 -391q0 -343 -104.5 -502t-335.5 -159q-85 0 -146.5 19.5t-108.5 66t-70 128.5t-23 201zM328 389q0 -138 43.5 -199t140.5 -61q115 0 171 86t73 287q6 80 6 141q0 138 -41 195t-141 57q-122 0 -174.5 -86t-71.5 -307 q-6 -61 -6 -113zM330 1217l14 149q88 68 182 68q50 0 119 -40t107 -40q50 0 86 17t84 56l-13 -149q-76 -68 -182 -68q-43 0 -81 20t-73 40t-71 20q-84 0 -172 -73z" />
<glyph unicode="&#xf6;" horiz-adv-x="1044" d="M152 401q0 331 104.5 484t335.5 153q348 0 348 -391q0 -343 -104.5 -502t-335.5 -159q-85 0 -146.5 19.5t-108.5 66t-70 128.5t-23 201zM317 1219l15 163h174l-14 -163h-175zM328 389q0 -138 43.5 -199t140.5 -61q115 0 171 86t73 287q6 80 6 141q0 138 -41 195t-141 57 q-122 0 -174.5 -86t-71.5 -307q-6 -61 -6 -113zM727 1219l14 163h174l-14 -163h-174z" />
<glyph unicode="&#xf7;" horiz-adv-x="1126" d="M203 563l12 154h778l-12 -154h-778zM451 133l18 205h205l-19 -205h-204zM522 942l17 205h204l-16 -205h-205z" />
<glyph unicode="&#xf8;" horiz-adv-x="1044" d="M152 401q0 331 104.5 484t335.5 153q46 0 94 -10l74 178h158l-99 -235q121 -95 121 -324q0 -343 -104.5 -502t-335.5 -159q-48 0 -92 6l-72 -174h-160l96 229q-120 91 -120 354zM328 389q0 -102 22 -158l277 660q-28 4 -47 4q-122 0 -174.5 -86t-71.5 -307 q-6 -61 -6 -113zM467 131q14 -2 45 -2q115 0 171 86t73 287q6 80 6 141q0 89 -19 148z" />
<glyph unicode="&#xf9;" d="M162 266q0 29 4 103l55 655h174l-57 -676q-4 -58 -4 -80q0 -67 27.5 -101t103.5 -34q57 0 100 28t67 75.5t37 95.5t17 100l49 592h174l-88 -1024h-143l-4 109q-89 -123 -250 -123q-148 0 -205 69.5t-57 210.5zM330 1464h223l188 -276h-155z" />
<glyph unicode="&#xfa;" d="M162 266q0 29 4 103l55 655h174l-57 -676q-4 -58 -4 -80q0 -67 27.5 -101t103.5 -34q57 0 100 28t67 75.5t37 95.5t17 100l49 592h174l-88 -1024h-143l-4 109q-89 -123 -250 -123q-148 0 -205 69.5t-57 210.5zM459 1188l237 276h224l-285 -276h-176z" />
<glyph unicode="&#xfb;" d="M162 266q0 29 4 103l55 655h174l-57 -676q-4 -58 -4 -80q0 -67 27.5 -101t103.5 -34q57 0 100 28t67 75.5t37 95.5t17 100l49 592h174l-88 -1024h-143l-4 109q-89 -123 -250 -123q-148 0 -205 69.5t-57 210.5zM264 1188l254 276h180l207 -276h-198l-107 172l-139 -172 h-197z" />
<glyph unicode="&#xfc;" d="M162 266q0 29 4 103l55 655h174l-57 -676q-4 -58 -4 -80q0 -67 27.5 -101t103.5 -34q57 0 100 28t67 75.5t37 95.5t17 100l49 592h174l-88 -1024h-143l-4 109q-89 -123 -250 -123q-148 0 -205 69.5t-57 210.5zM295 1219l14 163h174l-14 -163h-174zM705 1219l14 163h174 l-14 -163h-174z" />
<glyph unicode="&#xfd;" horiz-adv-x="948" d="M139 1024h185l165 -846l273 846h182l-393 -1114q-24 -68 -45 -110.5t-53 -82t-76.5 -57.5t-104.5 -18q-39 0 -114 12l12 149q58 -8 106 -8q55 0 91 92l43 113h-41zM477 1188l238 276h223l-285 -276h-176z" />
<glyph unicode="&#xfe;" horiz-adv-x="1021" d="M113 -348l155 1782h174l-45 -502q96 106 246 106q148 0 213.5 -90.5t65.5 -263.5q0 -62 -7 -127q-14 -161 -44 -266t-86.5 -175.5t-142 -100t-212.5 -29.5q-41 0 -115 8l-28 -342h-174zM328 139q49 -6 137 -6q133 0 192.5 100.5t79.5 323.5q6 56 6 123q0 109 -32.5 160 t-108.5 51q-57 0 -101.5 -26t-70.5 -68.5t-40.5 -88.5t-18.5 -94z" />
<glyph unicode="&#xff;" horiz-adv-x="948" d="M139 1024h185l165 -846l273 846h182l-393 -1114q-24 -68 -45 -110.5t-53 -82t-76.5 -57.5t-104.5 -18q-39 0 -114 12l12 149q58 -8 106 -8q55 0 91 92l43 113h-41zM270 1219l15 163h174l-15 -163h-174zM680 1219l14 163h174l-14 -163h-174z" />
<glyph unicode="&#x100;" horiz-adv-x="1024" d="M31 0l467 1434h235l219 -1434h-178l-47 362h-403l-111 -362h-182zM365 1571l15 143h522l-14 -143h-523zM371 516h338l-105 782z" />
<glyph unicode="&#x101;" horiz-adv-x="1019" d="M145 348q0 47 7 119q28 302 143.5 436.5t347.5 134.5q53 0 131.5 -14t130.5 -31l-65 -714q0 -1 -1 -10.5t-2 -25.5t-1 -32q0 -78 79 -78l-10 -133h-39q-140 0 -176 127q-95 -141 -282 -141q-138 0 -200.5 91.5t-62.5 270.5zM324 334q0 -104 30 -152.5t99 -48.5 q99 0 155 64t64 155l47 531q-54 8 -111 8q-284 0 -284 -557zM392 1161l14 144h522l-14 -144h-522z" />
<glyph unicode="&#x102;" horiz-adv-x="1024" d="M31 0l467 1434h235l219 -1434h-178l-47 362h-403l-111 -362h-182zM360 1837h168q0 -141 110 -141q64 0 94.5 37.5t42.5 103.5h166q-11 -44 -20.5 -72t-33.5 -69t-54.5 -65t-83.5 -42t-121 -18q-71 0 -124 25t-82 66.5t-44 84.5t-18 90zM371 516h338l-105 782z" />
<glyph unicode="&#x103;" horiz-adv-x="1019" d="M145 348q0 47 7 119q28 302 143.5 436.5t347.5 134.5q53 0 131.5 -14t130.5 -31l-65 -714q0 -1 -1 -10.5t-2 -25.5t-1 -32q0 -78 79 -78l-10 -133h-39q-140 0 -176 127q-95 -141 -282 -141q-138 0 -200.5 91.5t-62.5 270.5zM324 334q0 -104 30 -152.5t99 -48.5 q99 0 155 64t64 155l47 531q-54 8 -111 8q-284 0 -284 -557zM386 1427h168q0 -141 111 -141q64 0 94.5 37.5t42.5 103.5h166q-11 -44 -21 -72.5t-33.5 -69t-54.5 -64.5t-84 -42t-121 -18q-71 0 -124 25t-82 66.5t-44 84.5t-18 90z" />
<glyph unicode="&#x104;" horiz-adv-x="1024" d="M31 0l467 1434h235l219 -1434h-118q-44 -64 -73.5 -142.5t-29.5 -123.5q0 -41 20 -55.5t64 -14.5q45 0 131 14l-8 -133q-82 -20 -154 -20q-118 0 -167.5 39.5t-49.5 138.5q0 85 40 170t98 143h67l-45 346h-403l-111 -362h-182zM371 516h338l-105 782z" />
<glyph unicode="&#x105;" horiz-adv-x="1019" d="M145 348q0 47 7 119q29 303 144.5 437t346.5 134q53 0 131.5 -14t130.5 -31l-65 -714q0 -1 -1 -10.5t-2 -25.5t-1 -32q0 -78 79 -78l-10 -133h-39q-3 0 -9 0.5t-9 0.5q-38 -62 -62 -131t-24 -110t20 -55t64 -14q45 0 131 14l-8 -133q-86 -21 -154 -21q-118 0 -167.5 40 t-49.5 139q0 85 39.5 170t97.5 143h4q-34 31 -49 84q-95 -141 -282 -141q-138 0 -200.5 91.5t-62.5 270.5zM324 334q0 -104 30 -152.5t99 -48.5q99 0 155 64t64 155l47 531q-54 8 -111 8q-284 0 -284 -557z" />
<glyph unicode="&#x106;" horiz-adv-x="866" d="M164 485q0 110 12 254q16 182 43 306t64.5 204t96.5 123.5t127 59.5t169 16q38 0 105.5 -12t95.5 -21l-15 -151q-124 30 -235 30q-60 0 -99 -19.5t-74 -78.5t-58 -173.5t-40 -297.5q-14 -231 -14 -262q0 -82 8.5 -140.5t23 -94t39 -55.5t51 -27t64.5 -7q103 0 240 31 l-14 -150q-41 -11 -112.5 -22.5t-117.5 -11.5q-75 0 -130 14t-100 47.5t-72.5 90.5t-42.5 143t-15 204zM599 1571l237 276h223l-284 -276h-176z" />
<glyph unicode="&#x107;" horiz-adv-x="827" d="M150 367q0 243 45.5 391.5t134 214t229.5 65.5q91 0 221 -32l-12 -154q-128 33 -236 33q-91 0 -135.5 -85t-64.5 -308q-6 -73 -6 -127q0 -71 9.5 -117t30 -69.5t44 -31.5t59.5 -8q24 0 49.5 2t43.5 4t42.5 6.5t36.5 7t36.5 8t31.5 7.5l-15 -154q-125 -34 -225 -34 q-83 0 -137.5 14.5t-98 54.5t-63.5 117t-20 195zM482 1161l237 277h224l-285 -277h-176z" />
<glyph unicode="&#x108;" horiz-adv-x="866" d="M164 485q0 110 12 254q16 182 43 306t64.5 204t96.5 123.5t127 59.5t169 16q38 0 105.5 -12t95.5 -21l-15 -151q-124 30 -235 30q-60 0 -99 -19.5t-74 -78.5t-58 -173.5t-40 -297.5q-14 -231 -14 -262q0 -82 8.5 -140.5t23 -94t39 -55.5t51 -27t64.5 -7q103 0 240 31 l-14 -150q-41 -11 -112.5 -22.5t-117.5 -11.5q-75 0 -130 14t-100 47.5t-72.5 90.5t-42.5 143t-15 204zM366 1571l254 276h180l207 -276h-198l-107 172l-139 -172h-197z" />
<glyph unicode="&#x109;" horiz-adv-x="827" d="M150 367q0 243 45.5 391.5t134 214t229.5 65.5q91 0 221 -32l-12 -154q-128 33 -236 33q-91 0 -135.5 -85t-64.5 -308q-6 -73 -6 -127q0 -71 9.5 -117t30 -69.5t44 -31.5t59.5 -8q24 0 49.5 2t43.5 4t42.5 6.5t36.5 7t36.5 8t31.5 7.5l-15 -154q-125 -34 -225 -34 q-83 0 -137.5 14.5t-98 54.5t-63.5 117t-20 195zM249 1161l254 277h181l206 -277h-198l-107 172l-139 -172h-197z" />
<glyph unicode="&#x10a;" horiz-adv-x="866" d="M164 485q0 110 12 254q16 182 43 306t64.5 204t96.5 123.5t127 59.5t169 16q38 0 105.5 -12t95.5 -21l-15 -151q-124 30 -235 30q-60 0 -99 -19.5t-74 -78.5t-58 -173.5t-40 -297.5q-14 -231 -14 -262q0 -82 8.5 -140.5t23 -94t39 -55.5t51 -27t64.5 -7q103 0 240 31 l-14 -150q-41 -11 -112.5 -22.5t-117.5 -11.5q-75 0 -130 14t-100 47.5t-72.5 90.5t-42.5 143t-15 204zM599 1571l16 174h174l-16 -174h-174z" />
<glyph unicode="&#x10b;" horiz-adv-x="827" d="M150 367q0 243 45.5 391.5t134 214t229.5 65.5q91 0 221 -32l-12 -154q-128 33 -236 33q-91 0 -135.5 -85t-64.5 -308q-6 -73 -6 -127q0 -71 9.5 -117t30 -69.5t44 -31.5t59.5 -8q24 0 49.5 2t43.5 4t42.5 6.5t36.5 7t36.5 8t31.5 7.5l-15 -154q-125 -34 -225 -34 q-83 0 -137.5 14.5t-98 54.5t-63.5 117t-20 195zM482 1161l17 174h174l-17 -174h-174z" />
<glyph unicode="&#x10c;" horiz-adv-x="866" d="M164 485q0 110 12 254q16 182 43 306t64.5 204t96.5 123.5t127 59.5t169 16q38 0 105.5 -12t95.5 -21l-15 -151q-124 30 -235 30q-60 0 -99 -19.5t-74 -78.5t-58 -173.5t-40 -297.5q-14 -231 -14 -262q0 -82 8.5 -140.5t23 -94t39 -55.5t51 -27t64.5 -7q103 0 240 31 l-14 -150q-41 -11 -112.5 -22.5t-117.5 -11.5q-75 0 -130 14t-100 47.5t-72.5 90.5t-42.5 143t-15 204zM390 1847h199l108 -172l138 172h196l-250 -276h-180z" />
<glyph unicode="&#x10d;" horiz-adv-x="827" d="M150 367q0 243 45.5 391.5t134 214t229.5 65.5q91 0 221 -32l-12 -154q-128 33 -236 33q-91 0 -135.5 -85t-64.5 -308q-6 -73 -6 -127q0 -71 9.5 -117t30 -69.5t44 -31.5t59.5 -8q24 0 49.5 2t43.5 4t42.5 6.5t36.5 7t36.5 8t31.5 7.5l-15 -154q-125 -34 -225 -34 q-83 0 -137.5 14.5t-98 54.5t-63.5 117t-20 195zM273 1438h199l109 -172l137 172h196l-249 -277h-181z" />
<glyph unicode="&#x10e;" horiz-adv-x="1077" d="M154 0l125 1434q190 14 331 14q76 0 131.5 -11.5t106 -43.5t82 -87t49.5 -144.5t18 -213.5q0 -79 -10 -209q-16 -183 -43.5 -313t-65.5 -215.5t-94 -135t-121 -69.5t-155 -20q-71 0 -159.5 3.5t-141.5 6.5zM344 143q109 -8 195 -8q50 0 90 29.5t74.5 96.5t60 183.5 t39.5 280.5q12 138 12 233q0 83 -8.5 144.5t-23 98.5t-37 59t-47 30t-56.5 8l-199 -8zM378 1847h199l108 -172l137 172h197l-250 -276h-180z" />
<glyph unicode="&#x10f;" horiz-adv-x="1032" d="M147 356q0 62 5 111q28 306 140.5 438.5t356.5 132.5q55 0 113 -10l37 406h174l-125 -1434h-143l-11 123q-107 -137 -276 -137q-138 0 -204.5 92t-66.5 278zM326 348q0 -109 32.5 -162t104.5 -53q56 0 102.5 25.5t75.5 67t45.5 88t20.5 94.5l43 475q-62 8 -136 8 q-72 0 -122.5 -28.5t-82.5 -88t-50 -137.5t-29 -191q-4 -70 -4 -98zM1115 942l108 287l17 205h204l-16 -205l-174 -287h-139z" />
<glyph unicode="&#x110;" horiz-adv-x="1097" d="M88 666l12 153h146l53 615q191 14 332 14q76 0 131.5 -11.5t106 -43.5t82 -87t49.5 -144.5t18 -213.5q0 -79 -10 -209q-16 -183 -43.5 -313t-65.5 -215.5t-94.5 -135t-121.5 -69.5t-155 -20q-71 0 -159.5 3.5t-141.5 6.5l-53 4l57 666h-143zM365 143q108 -8 194 -8 q50 0 90 29.5t74.5 96.5t60 183.5t39.5 280.5q13 149 13 233q0 83 -8.5 144.5t-23 98.5t-37 59t-47 30t-56.5 8l-199 -8l-41 -471h229l-12 -153h-231z" />
<glyph unicode="&#x111;" horiz-adv-x="1032" d="M147 356q0 62 5 111q28 306 140.5 438.5t356.5 132.5q55 0 113 -10l12 133h-403l12 154h405l11 119h174l-11 -119h87l-13 -154h-87l-101 -1161h-143l-11 123q-107 -137 -276 -137q-138 0 -204.5 92t-66.5 278zM326 348q0 -109 32.5 -162t104.5 -53q56 0 102.5 25.5t75 67 t45.5 88t21 94.5l43 475q-62 8 -136 8q-72 0 -122.5 -28.5t-82.5 -88t-50 -137.5t-29 -191q-4 -70 -4 -98z" />
<glyph unicode="&#x112;" horiz-adv-x="958" d="M154 0l125 1434h671l-14 -150h-494l-41 -469h443l-13 -149h-442l-45 -516h494l-13 -150h-671zM364 1571l15 143h522l-14 -143h-523z" />
<glyph unicode="&#x113;" horiz-adv-x="933" d="M150 367q0 182 27.5 312.5t81.5 208.5t128.5 114t173.5 36q83 0 145.5 -23.5t97.5 -64t51.5 -88.5t16.5 -104q0 -175 -104.5 -257.5t-294.5 -82.5q-75 0 -151 8v-74q0 -54 8.5 -94.5t22.5 -64t34.5 -37.5t40.5 -18.5t45 -4.5q38 0 72.5 2t67 7t51.5 8t50 10t38 8 l-15 -148q-50 -14 -125.5 -24t-130.5 -10q-63 0 -109.5 8.5t-90.5 32.5t-71 65.5t-43.5 110.5t-16.5 164zM310 1161l14 144h522l-14 -144h-522zM332 567q61 -6 110 -6q143 0 205 44t62 145q0 67 -32 105t-118 38q-96 0 -152 -74t-75 -252z" />
<glyph unicode="&#x114;" horiz-adv-x="958" d="M154 0l125 1434h671l-14 -150h-494l-41 -469h443l-13 -149h-442l-45 -516h494l-13 -150h-671zM359 1837h168q0 -141 110 -141q64 0 94.5 37.5t42.5 103.5h166q-11 -44 -20.5 -72t-33.5 -69t-54.5 -65t-83.5 -42t-121 -18q-71 0 -124 25t-82 66.5t-44 84.5t-18 90z" />
<glyph unicode="&#x115;" horiz-adv-x="933" d="M150 367q0 182 27.5 312.5t81.5 208.5t128.5 114t173.5 36q83 0 145.5 -23.5t97.5 -64t51.5 -88.5t16.5 -104q0 -175 -104.5 -257.5t-294.5 -82.5q-75 0 -151 8v-74q0 -54 8.5 -94.5t22.5 -64t34.5 -37.5t40.5 -18.5t45 -4.5q38 0 72.5 2t67 7t51.5 8t50 10t38 8 l-15 -148q-50 -14 -125.5 -24t-130.5 -10q-63 0 -109.5 8.5t-90.5 32.5t-71 65.5t-43.5 110.5t-16.5 164zM304 1427h168q0 -141 111 -141q64 0 94.5 37.5t42.5 103.5h166q-11 -44 -20.5 -72t-33.5 -69t-54.5 -65t-83.5 -42t-121 -18q-57 0 -103.5 17t-75.5 44t-49 63 t-29 70.5t-12 71.5zM332 567q61 -6 110 -6q143 0 205 44t62 145q0 67 -32 105t-118 38q-96 0 -152 -74t-75 -252z" />
<glyph unicode="&#x116;" horiz-adv-x="958" d="M154 0l125 1434h671l-14 -150h-494l-41 -469h443l-13 -149h-442l-45 -516h494l-13 -150h-671zM539 1571l16 174h174l-16 -174h-174z" />
<glyph unicode="&#x117;" horiz-adv-x="933" d="M150 367q0 182 27.5 312.5t81.5 208.5t128.5 114t173.5 36q83 0 145.5 -23.5t97.5 -64t51.5 -88.5t16.5 -104q0 -175 -104.5 -257.5t-294.5 -82.5q-75 0 -151 8v-74q0 -54 8.5 -94.5t22.5 -64t34.5 -37.5t40.5 -18.5t45 -4.5q38 0 72.5 2t67 7t51.5 8t50 10t38 8 l-15 -148q-50 -14 -125.5 -24t-130.5 -10q-63 0 -109.5 8.5t-90.5 32.5t-71 65.5t-43.5 110.5t-16.5 164zM332 567q61 -6 110 -6q143 0 205 44t62 145q0 67 -32 105t-118 38q-96 0 -152 -74t-75 -252zM484 1161l17 174h174l-17 -174h-174z" />
<glyph unicode="&#x118;" horiz-adv-x="958" d="M154 0l125 1434h671l-14 -150h-494l-41 -469h443l-13 -149h-442l-45 -516h494l-13 -150h-245q-44 -64 -73.5 -142.5t-29.5 -123.5q0 -41 20 -55.5t64 -14.5q45 0 131 14l-8 -133q-82 -20 -154 -20q-118 0 -167.5 39.5t-49.5 138.5q0 78 35 158t87 139h-281z" />
<glyph unicode="&#x119;" horiz-adv-x="933" d="M150 367q0 182 27.5 312.5t81.5 208.5t128.5 114t173.5 36q83 0 145.5 -23.5t97.5 -64t51.5 -88.5t16.5 -104q0 -175 -104.5 -257.5t-294.5 -82.5q-75 0 -151 8v-74q0 -54 8.5 -94.5t22.5 -64t34.5 -37.5t40.5 -18.5t45 -4.5q38 0 72.5 2t67 7t51.5 8t50 10t38 8 l-15 -148q-108 -31 -236 -34q-44 -64 -73.5 -143t-29.5 -124q0 -41 20 -55t64 -14q45 0 131 14l-8 -133q-82 -20 -154 -20q-118 0 -167.5 39.5t-49.5 138.5q0 82 38 165.5t93 141.5q-106 22 -160.5 106t-54.5 265zM332 567q61 -6 110 -6q143 0 205 44t62 145q0 67 -32 105 t-118 38q-96 0 -152 -74t-75 -252z" />
<glyph unicode="&#x11a;" horiz-adv-x="958" d="M154 0l125 1434h671l-14 -150h-494l-41 -469h443l-13 -149h-442l-45 -516h494l-13 -150h-671zM330 1847h199l108 -172l137 172h197l-250 -276h-180z" />
<glyph unicode="&#x11b;" horiz-adv-x="933" d="M150 367q0 182 27.5 312.5t81.5 208.5t128.5 114t173.5 36q83 0 145.5 -23.5t97.5 -64t51.5 -88.5t16.5 -104q0 -175 -104.5 -257.5t-294.5 -82.5q-75 0 -151 8v-74q0 -54 8.5 -94.5t22.5 -64t34.5 -37.5t40.5 -18.5t45 -4.5q38 0 72.5 2t67 7t51.5 8t50 10t38 8 l-15 -148q-50 -14 -125.5 -24t-130.5 -10q-63 0 -109.5 8.5t-90.5 32.5t-71 65.5t-43.5 110.5t-16.5 164zM275 1438h199l109 -172l137 172h196l-249 -277h-181zM332 567q61 -6 110 -6q143 0 205 44t62 145q0 67 -32 105t-118 38q-96 0 -152 -74t-75 -252z" />
<glyph unicode="&#x11c;" horiz-adv-x="1013" d="M164 485q0 110 12 254q16 181 45 305.5t69.5 204.5t104.5 123.5t137 59.5t181 16q87 0 227 -33l-12 -147q-161 30 -264 30q-56 0 -95 -12t-75 -47t-60.5 -98.5t-44.5 -165.5t-33 -250q-14 -231 -14 -266q0 -102 12 -167t39 -99t60.5 -46t85.5 -12q62 0 161 15l41 454 h-182l14 150h353l-66 -734q-185 -34 -323 -34q-99 0 -165.5 22.5t-115 78t-70.5 153t-22 245.5zM403 1571l254 276h180l207 -276h-199l-106 172l-139 -172h-197z" />
<glyph unicode="&#x11d;" horiz-adv-x="1032" d="M147 365q0 61 5 112q28 303 142 432t355 129q125 0 285 -45l-82 -911q-9 -105 -24.5 -179.5t-41 -126.5t-55.5 -83t-77.5 -48t-96.5 -22.5t-123 -5.5q-92 0 -233 29l14 151q147 -30 242 -30q55 0 89 9t63 37.5t44.5 83.5t22.5 144l6 80q-100 -115 -264 -115 q-140 0 -205.5 87.5t-65.5 271.5zM326 360q0 -107 32 -156.5t105 -49.5q58 0 105 24.5t75.5 64t45 83.5t20.5 90l41 465q-78 10 -136 10q-72 0 -122.5 -27t-82.5 -84.5t-50 -133.5t-29 -189q-4 -70 -4 -97zM340 1161l253 277h181l207 -277h-199l-107 172l-139 -172h-196z " />
<glyph unicode="&#x11e;" horiz-adv-x="1013" d="M164 485q0 110 12 254q16 181 45 305.5t69.5 204.5t104.5 123.5t137 59.5t181 16q87 0 227 -33l-12 -147q-161 30 -264 30q-56 0 -95 -12t-75 -47t-60.5 -98.5t-44.5 -165.5t-33 -250q-14 -231 -14 -266q0 -102 12 -167t39 -99t60.5 -46t85.5 -12q62 0 161 15l41 454 h-182l14 150h353l-66 -734q-185 -34 -323 -34q-99 0 -165.5 22.5t-115 78t-70.5 153t-22 245.5zM456 1837h168q0 -141 110 -141q64 0 95 38t43 103h165q-11 -44 -20.5 -72t-33.5 -69t-54.5 -65t-83.5 -42t-121 -18q-71 0 -124 25t-82 66.5t-44 84.5t-18 90z" />
<glyph unicode="&#x11f;" horiz-adv-x="1032" d="M147 365q0 61 5 112q28 303 142 432t355 129q125 0 285 -45l-82 -911q-9 -105 -24.5 -179.5t-41 -126.5t-55.5 -83t-77.5 -48t-96.5 -22.5t-123 -5.5q-92 0 -233 29l14 151q147 -30 242 -30q55 0 89 9t63 37.5t44.5 83.5t22.5 144l6 80q-100 -115 -264 -115 q-140 0 -205.5 87.5t-65.5 271.5zM326 360q0 -107 32 -156.5t105 -49.5q58 0 105 24.5t75.5 64t45 83.5t20.5 90l41 465q-78 10 -136 10q-72 0 -122.5 -27t-82.5 -84.5t-50 -133.5t-29 -189q-4 -70 -4 -97zM392 1427h168q0 -141 111 -141q64 0 94.5 37.5t42.5 103.5h166 q-11 -44 -20.5 -72t-33.5 -69t-54.5 -65t-83.5 -42t-121 -18q-57 0 -103.5 17t-75.5 44t-49 63t-29 70.5t-12 71.5z" />
<glyph unicode="&#x120;" horiz-adv-x="1013" d="M164 485q0 110 12 254q16 181 45 305.5t69.5 204.5t104.5 123.5t137 59.5t181 16q87 0 227 -33l-12 -147q-161 30 -264 30q-56 0 -95 -12t-75 -47t-60.5 -98.5t-44.5 -165.5t-33 -250q-14 -231 -14 -266q0 -102 12 -167t39 -99t60.5 -46t85.5 -12q62 0 161 15l41 454 h-182l14 150h353l-66 -734q-185 -34 -323 -34q-99 0 -165.5 22.5t-115 78t-70.5 153t-22 245.5zM636 1571l16 174h174l-16 -174h-174z" />
<glyph unicode="&#x121;" horiz-adv-x="1032" d="M147 365q0 61 5 112q28 303 142 432t355 129q125 0 285 -45l-82 -911q-9 -105 -24.5 -179.5t-41 -126.5t-55.5 -83t-77.5 -48t-96.5 -22.5t-123 -5.5q-92 0 -233 29l14 151q147 -30 242 -30q55 0 89 9t63 37.5t44.5 83.5t22.5 144l6 80q-100 -115 -264 -115 q-140 0 -205.5 87.5t-65.5 271.5zM326 360q0 -107 32 -156.5t105 -49.5q58 0 105 24.5t75.5 64t45 83.5t20.5 90l41 465q-78 10 -136 10q-72 0 -122.5 -27t-82.5 -84.5t-50 -133.5t-29 -189q-4 -70 -4 -97zM572 1161l17 174h174l-17 -174h-174z" />
<glyph unicode="&#x122;" horiz-adv-x="1013" d="M164 485q0 110 12 254q16 181 45 305.5t69.5 204.5t104.5 123.5t137 59.5t181 16q87 0 227 -33l-12 -147q-161 30 -264 30q-56 0 -95 -12t-75 -47t-60.5 -98.5t-44.5 -165.5t-33 -250q-14 -231 -14 -266q0 -102 12 -167t39 -99t60.5 -46t85.5 -12q62 0 161 15l41 454 h-182l14 150h353l-66 -734q-94 -18 -185 -27l-16 -198l-174 -287h-139l109 287l15 193q-107 10 -172 57.5t-99.5 154.5t-34.5 285z" />
<glyph unicode="&#x123;" horiz-adv-x="1032" d="M147 365q0 61 5 112q28 303 142 432t355 129q125 0 285 -45l-82 -911q-9 -105 -24.5 -179.5t-41 -126.5t-55.5 -83t-77.5 -48t-96.5 -22.5t-123 -5.5q-92 0 -233 29l14 151q147 -30 242 -30q55 0 89 9t63 37.5t44.5 83.5t22.5 144l6 80q-100 -115 -264 -115 q-140 0 -205.5 87.5t-65.5 271.5zM326 360q0 -107 32 -156.5t105 -49.5q58 0 105 24.5t75.5 64t45 83.5t20.5 90l41 465q-78 10 -136 10q-72 0 -122.5 -27t-82.5 -84.5t-50 -133.5t-29 -189q-4 -70 -4 -97zM502 1153l12 127q56 -12 111 -12q46 0 67 14.5t21 54.5 q0 29 -34.5 42.5t-125.5 13.5l63 258h134l-37 -158q85 -10 121 -43.5t36 -99.5q0 -106 -64.5 -158.5t-174.5 -52.5q-57 0 -129 14z" />
<glyph unicode="&#x124;" horiz-adv-x="1126" d="M154 0l125 1434h178l-56 -623h422l56 623h178l-125 -1434h-178l57 659h-422l-57 -659h-178zM359 1571l254 276h180l207 -276h-198l-107 172l-139 -172h-197z" />
<glyph unicode="&#x125;" horiz-adv-x="1036" d="M143 0l125 1434h174l-43 -502q92 106 244 106q153 0 216 -74t63 -221q0 -26 -4 -88l-56 -655h-174l55 655q7 70 7 78q0 76 -34 117t-118 41q-55 0 -98.5 -26t-69.5 -69.5t-40.5 -91t-18.5 -98.5l-54 -606h-174zM317 1556l254 277h180l207 -277h-198l-107 173l-139 -173 h-197z" />
<glyph unicode="&#x126;" horiz-adv-x="1126" d="M147 1032l13 154h97l22 248h178l-22 -248h422l22 248h178l-22 -248h91l-12 -154h-92l-90 -1032h-178l57 659h-422l-57 -659h-178l90 1032h-97zM401 811h422l20 221h-422z" />
<glyph unicode="&#x127;" horiz-adv-x="1036" d="M115 1174l12 153h132l9 107h174l-9 -107h360l-13 -153h-360l-21 -242q92 106 244 106q153 0 216 -74t63 -221q0 -26 -4 -88l-56 -655h-174l55 655q7 70 7 78q0 76 -34 117t-118 41q-44 0 -81.5 -17.5t-62 -46t-43 -66.5t-28 -76.5t-12.5 -78.5l-54 -606h-174l103 1174 h-131z" />
<glyph unicode="&#x128;" horiz-adv-x="649" d="M72 0l12 150h143l99 1134h-144l15 150h465l-15 -150h-143l-98 -1134h143l-12 -150h-465zM155 1577l14 149q88 68 182 68q50 0 118.5 -40t106.5 -40q50 0 86 17t84 57l-12 -150q-75 -67 -182 -67q-43 0 -81 20t-73 40t-71 20q-83 0 -172 -74z" />
<glyph unicode="&#x129;" horiz-adv-x="501" d="M44 1167l14 150q87 67 183 67q50 0 118.5 -39.5t106.5 -39.5q50 0 86 17t84 56l-12 -149q-76 -68 -183 -68q-43 0 -81 20t-73 40t-71 20q-83 0 -172 -74zM143 0l88 1024h175l-89 -1024h-174z" />
<glyph unicode="&#x12a;" horiz-adv-x="649" d="M72 0l12 150h143l99 1134h-144l15 150h465l-15 -150h-143l-98 -1134h143l-12 -150h-465zM179 1571l14 143h523l-15 -143h-522z" />
<glyph unicode="&#x12b;" horiz-adv-x="501" d="M68 1161l15 144h522l-14 -144h-523zM143 0l88 1024h175l-89 -1024h-174z" />
<glyph unicode="&#x12c;" horiz-adv-x="649" d="M72 0l12 150h143l99 1134h-144l15 150h465l-15 -150h-143l-98 -1134h143l-12 -150h-465zM173 1837h168q0 -141 111 -141q64 0 94.5 37.5t42.5 103.5h166q-11 -44 -20.5 -72t-33.5 -69t-54.5 -65t-83.5 -42t-121 -18q-57 0 -103.5 17t-75.5 44t-49 63t-29 70.5t-12 71.5z " />
<glyph unicode="&#x12d;" horiz-adv-x="501" d="M63 1427h168q0 -141 110 -141q64 0 95 38t43 103h165q-11 -44 -20.5 -72t-33.5 -69t-54.5 -65t-83.5 -42t-121 -18q-71 0 -124 25t-82 66.5t-44 84.5t-18 90zM143 0l88 1024h175l-89 -1024h-174z" />
<glyph unicode="&#x12e;" horiz-adv-x="649" d="M57 -297q0 78 35 158t87 139h-107l12 150h143l99 1134h-144l15 150h465l-15 -150h-143l-98 -1134h143l-12 -150h-213q-44 -64 -73.5 -142.5t-29.5 -123.5q0 -41 20 -55.5t64 -14.5q45 0 131 14l-8 -133q-82 -20 -154 -20q-118 0 -167.5 39.5t-49.5 138.5z" />
<glyph unicode="&#x12f;" horiz-adv-x="501" d="M-17 -297q0 85 40 170t98 143h24l86 1008h175l-89 -1024h-67q-44 -64 -73.5 -142.5t-29.5 -123.5q0 -41 20 -55.5t64 -14.5q45 0 131 14l-8 -133q-82 -20 -154 -20q-118 0 -167.5 39.5t-49.5 138.5zM242 1249l16 185h195l-17 -185h-194z" />
<glyph unicode="&#x130;" horiz-adv-x="649" d="M72 0l12 150h143l99 1134h-144l15 150h465l-15 -150h-143l-98 -1134h143l-12 -150h-465zM353 1571l17 174h174l-16 -174h-175z" />
<glyph unicode="&#x131;" horiz-adv-x="501" d="M143 0l88 1024h175l-89 -1024h-174z" />
<glyph unicode="&#x132;" horiz-adv-x="1468" d="M72 0l12 150h143l99 1134h-144l15 150h465l-15 -150h-143l-98 -1134h143l-12 -150h-465zM700 10l13 150q41 -7 111 -14t96 -7q47 0 77.5 7.5t57.5 29t44 62.5t29.5 104t20.5 158l68 784h-330l14 150h508l-82 -920q-9 -112 -24 -193t-39 -140.5t-54 -96.5t-74.5 -59 t-95.5 -30.5t-122 -8.5q-60 0 -218 24z" />
<glyph unicode="&#x133;" horiz-adv-x="1003" d="M143 0l88 1024h175l-89 -1024h-174zM242 1249l16 185h195l-17 -185h-194zM358 -348l13 145q86 -8 147 -8q51 0 82 29.5t35 83.5l98 1122h174l-96 -1112q-11 -125 -78 -197.5t-201 -72.5q-86 0 -174 10zM743 1249l17 185h194l-16 -185h-195z" />
<glyph unicode="&#x134;" horiz-adv-x="819" d="M51 10l12 150q41 -7 111 -14t96 -7q47 0 77.5 7.5t58 29t44.5 62.5t29.5 104.5t20.5 157.5l67 784h-329l14 150h508l-82 -920q-11 -134 -31.5 -225t-50.5 -151.5t-78.5 -93t-106 -45.5t-143.5 -13q-59 0 -217 24zM197 1571l254 276h181l206 -276h-198l-107 172l-139 -172 h-197z" />
<glyph unicode="&#x135;" horiz-adv-x="501" d="M-143 -348l12 145q86 -8 147 -8q51 0 82 29.5t35 83.5l98 1122h175l-97 -1112q-25 -270 -278 -270q-86 0 -174 10zM6 1198l254 277h180l207 -277h-198l-107 172l-139 -172h-197z" />
<glyph unicode="&#x136;" horiz-adv-x="1007" d="M154 0l125 1434h178l-56 -629l439 629h190l-444 -627l340 -807h-121l-17 -205l-174 -287h-139l109 287l16 205h129l-266 657l-86 -122l-45 -535h-178z" />
<glyph unicode="&#x137;" horiz-adv-x="950" d="M143 0l125 1434h174l-67 -762l334 352h223l-381 -395l307 -629h-133l-16 -205l-174 -287h-140l109 287l16 205h139l-237 508l-68 -70l-37 -438h-174z" />
<glyph unicode="&#x139;" horiz-adv-x="839" d="M154 0l125 1434h178l-113 -1278h457l-13 -156h-634zM519 1571l237 276h223l-284 -276h-176z" />
<glyph unicode="&#x13a;" horiz-adv-x="552" d="M160 184q0 34 4 66l104 1184h174l-100 -1153l-2.5 -27.5t-2.5 -28t-1 -14.5q0 -37 13.5 -52.5t47.5 -15.5q10 0 21.5 2t22 5.5t12.5 3.5l-13 -144q-77 -16 -125 -16q-68 0 -111.5 43.5t-43.5 146.5zM278 1556l238 277h223l-285 -277h-176z" />
<glyph unicode="&#x13b;" horiz-adv-x="839" d="M154 0l125 1434h178l-113 -1278h457l-13 -156h-174q-16 -91 -16 -178v-27l-174 -287h-139l108 287l17 205h-256z" />
<glyph unicode="&#x13c;" horiz-adv-x="552" d="M70 -442l108 286l17 205q-35 48 -35 135q0 34 4 66l104 1184h174l-100 -1153l-2.5 -27.5t-2.5 -28t-1 -14.5q0 -37 13.5 -52.5t47.5 -15.5q10 0 21.5 2t22 5.5t12.5 3.5l-13 -144q-17 -4 -44 -9l-13 -157l-174 -286h-139z" />
<glyph unicode="&#x13d;" horiz-adv-x="839" d="M154 0l125 1434h178l-113 -1278h457l-13 -156h-634zM567 956l109 287l16 205h205l-16 -205q-7 -17 -50.5 -89t-83.5 -135l-40 -63h-140z" />
<glyph unicode="&#x13e;" horiz-adv-x="552" d="M160 184q0 34 4 66l104 1184h174l-100 -1153l-2.5 -27.5t-2.5 -28t-1 -14.5q0 -37 13.5 -52.5t47.5 -15.5q10 0 21.5 2t22 5.5t12.5 3.5l-13 -144q-77 -16 -125 -16q-68 0 -111.5 43.5t-43.5 146.5zM584 942l109 287l16 205h205l-16 -205l-174 -287h-140z" />
<glyph unicode="&#x13f;" horiz-adv-x="839" d="M154 0l125 1434h178l-113 -1278h457l-13 -156h-634zM526 623l19 204h205l-19 -204h-205z" />
<glyph unicode="&#x140;" horiz-adv-x="839" d="M160 184q0 34 4 66l104 1184h174l-100 -1153l-2.5 -27.5t-2.5 -28t-1 -14.5q0 -37 13.5 -52.5t47.5 -15.5q10 0 21.5 2t22 5.5t12.5 3.5l-13 -144q-77 -16 -125 -16q-68 0 -111.5 43.5t-43.5 146.5zM506 532l18 205h205l-18 -205h-205z" />
<glyph unicode="&#x141;" horiz-adv-x="860" d="M84 614l14 164l127 60l54 596h178l-45 -510l262 120l-15 -163l-262 -121l-53 -604h457l-13 -156h-634l57 674z" />
<glyph unicode="&#x142;" horiz-adv-x="573" d="M104 614l15 160l119 72l51 588h174l-41 -476l139 86l-14 -163l-139 -84l-46 -516l-2.5 -27.5t-2.5 -28t-1 -14.5q0 -37 14 -52.5t48 -15.5q10 0 21 2t21.5 5.5t12.5 3.5l-12 -144q-77 -16 -125 -16q-68 0 -112 43.5t-44 146.5q0 34 4 66l39 436z" />
<glyph unicode="&#x143;" horiz-adv-x="1120" d="M154 0l125 1434h290l203 -1282l113 1282h166l-125 -1434h-293l-203 1282l-111 -1282h-165zM589 1571l237 276h223l-284 -276h-176z" />
<glyph unicode="&#x144;" horiz-adv-x="1036" d="M143 0l88 1024h144l2 -119q96 133 266 133q153 0 216 -74t63 -221q0 -26 -4 -88l-56 -655h-174l55 655q7 70 7 78q0 76 -34 117t-118 41q-55 0 -99 -26t-70 -69.5t-41 -91t-19 -98.5l-52 -606h-174zM515 1161l238 277h223l-285 -277h-176z" />
<glyph unicode="&#x145;" horiz-adv-x="1120" d="M154 0l125 1434h290l203 -1282l113 1282h166l-125 -1434h-195l-16 -205l-174 -287h-140l109 287l16 205h107l-203 1282l-111 -1282h-165z" />
<glyph unicode="&#x146;" horiz-adv-x="1036" d="M143 0l88 1024h144l2 -119q96 133 266 133q153 0 216 -74t63 -221q0 -26 -4 -88l-56 -655h-112l-17 -205l-174 -287h-139l108 287l17 205h143l55 655q7 70 7 78q0 76 -34 117t-118 41q-55 0 -98.5 -26t-70 -69.5t-41.5 -91t-19 -98.5l-52 -606h-174z" />
<glyph unicode="&#x147;" horiz-adv-x="1120" d="M154 0l125 1434h290l203 -1282l113 1282h166l-125 -1434h-293l-203 1282l-111 -1282h-165zM380 1847h199l108 -172l138 172h196l-250 -276h-180z" />
<glyph unicode="&#x148;" horiz-adv-x="1036" d="M143 0l88 1024h144l2 -119q96 133 266 133q153 0 216 -74t63 -221q0 -26 -4 -88l-56 -655h-174l55 655q7 70 7 78q0 76 -34 117t-118 41q-55 0 -99 -26t-70 -69.5t-41 -91t-19 -98.5l-52 -606h-174zM307 1438h198l109 -172l137 172h197l-250 -277h-180z" />
<glyph unicode="&#x149;" horiz-adv-x="1081" d="M33 928l90 321l16 185h195l-17 -185l-151 -321h-133zM188 0l88 1024h144l2 -119q96 133 266 133q153 0 216 -74t63 -221q0 -26 -4 -88l-56 -655h-174l55 655q7 70 7 78q0 76 -34 117t-118 41q-55 0 -99 -26t-70 -69.5t-41 -91t-19 -98.5l-52 -606h-174z" />
<glyph unicode="&#x14c;" horiz-adv-x="1122" d="M166 535q0 53 10 198q13 152 33 260t56 198.5t89 144.5t130.5 83t181.5 29q204 0 290 -121.5t86 -382.5q0 -84 -10 -211q-14 -159 -35 -271.5t-57 -207t-89 -151t-130.5 -87t-181.5 -30.5q-206 0 -289.5 132t-83.5 417zM344 487q0 -191 48.5 -271.5t158.5 -80.5 q94 0 151.5 56t92 182.5t53.5 349.5q14 168 14 246q0 184 -48.5 256.5t-160.5 72.5q-94 0 -150 -50t-91 -174t-56 -351q-12 -210 -12 -236zM414 1571l15 143h522l-14 -143h-523z" />
<glyph unicode="&#x14d;" horiz-adv-x="1044" d="M152 401q0 331 104.5 484t335.5 153q348 0 348 -391q0 -343 -104.5 -502t-335.5 -159q-85 0 -146.5 19.5t-108.5 66t-70 128.5t-23 201zM328 389q0 -138 43.5 -199t140.5 -61q115 0 171 86t73 287q6 80 6 141q0 138 -41 195t-141 57q-122 0 -174.5 -86t-71.5 -307 q-6 -61 -6 -113zM341 1161l14 144h522l-14 -144h-522z" />
<glyph unicode="&#x14e;" horiz-adv-x="1122" d="M166 535q0 53 10 198q13 152 33 260t56 198.5t89 144.5t130.5 83t181.5 29q204 0 290 -121.5t86 -382.5q0 -84 -10 -211q-14 -159 -35 -271.5t-57 -207t-89 -151t-130.5 -87t-181.5 -30.5q-206 0 -289.5 132t-83.5 417zM344 487q0 -191 48.5 -271.5t158.5 -80.5 q94 0 151.5 56t92 182.5t53.5 349.5q14 168 14 246q0 184 -48.5 256.5t-160.5 72.5q-94 0 -150 -50t-91 -174t-56 -351q-12 -210 -12 -236zM409 1837h168q0 -141 110 -141q64 0 94.5 37.5t42.5 103.5h166q-11 -44 -20.5 -72t-33.5 -69t-54.5 -65t-83.5 -42t-121 -18 q-71 0 -124 25t-82 66.5t-44 84.5t-18 90z" />
<glyph unicode="&#x14f;" horiz-adv-x="1044" d="M152 401q0 331 104.5 484t335.5 153q348 0 348 -391q0 -343 -104.5 -502t-335.5 -159q-85 0 -146.5 19.5t-108.5 66t-70 128.5t-23 201zM328 389q0 -138 43.5 -199t140.5 -61q115 0 171 86t73 287q6 80 6 141q0 138 -41 195t-141 57q-122 0 -174.5 -86t-71.5 -307 q-6 -61 -6 -113zM335 1427h168q0 -141 110 -141q64 0 95 38t43 103h166q-11 -44 -21 -72.5t-33.5 -69t-54.5 -64.5t-84 -42t-121 -18q-71 0 -124 25t-82 66.5t-44 84.5t-18 90z" />
<glyph unicode="&#x150;" horiz-adv-x="1122" d="M166 535q0 53 10 198q13 152 33 260t56 198.5t89 144.5t130.5 83t181.5 29q204 0 290 -121.5t86 -382.5q0 -84 -10 -211q-14 -159 -35 -271.5t-57 -207t-89 -151t-130.5 -87t-181.5 -30.5q-206 0 -289.5 132t-83.5 417zM344 487q0 -191 48.5 -271.5t158.5 -80.5 q94 0 151.5 56t92 182.5t53.5 349.5q14 168 14 246q0 184 -48.5 256.5t-160.5 72.5q-94 0 -150 -50t-91 -174t-56 -351q-12 -210 -12 -236zM425 1571l237 301h246l-328 -301h-155zM773 1571l237 301h246l-328 -301h-155z" />
<glyph unicode="&#x151;" horiz-adv-x="1044" d="M152 401q0 331 104.5 484t335.5 153q348 0 348 -391q0 -343 -104.5 -502t-335.5 -159q-85 0 -146.5 19.5t-108.5 66t-70 128.5t-23 201zM328 389q0 -138 43.5 -199t140.5 -61q115 0 171 86t73 287q6 80 6 141q0 138 -41 195t-141 57q-122 0 -174.5 -86t-71.5 -307 q-6 -61 -6 -113zM351 1161l237 301h246l-328 -301h-155zM699 1161l238 301h245l-327 -301h-156z" />
<glyph unicode="&#x152;" horiz-adv-x="1558" d="M166 512q0 88 10 221q14 152 34 260t56 198.5t89 144.5t130 83t181 29q31 0 108 -14h776l-14 -150h-567q59 -115 59 -328q0 -68 -6 -141h422l-12 -149h-420q-20 -186 -52 -311.5t-86 -204.5h564l-13 -150h-776q-82 -14 -110 -14q-198 0 -285.5 128.5t-87.5 397.5z M344 487q0 -191 48.5 -271.5t158.5 -80.5q137 0 198 127.5t89 460.5q14 146 14 262q0 176 -45.5 244.5t-153.5 68.5q-95 0 -151 -50.5t-90.5 -173.5t-55.5 -351q-12 -135 -12 -236z" />
<glyph unicode="&#x153;" horiz-adv-x="1531" d="M152 403q0 328 107 481.5t333 153.5q196 0 280 -133q96 133 287 133q83 0 145.5 -23.5t97.5 -64t51.5 -88.5t16.5 -104q0 -175 -104.5 -257.5t-294.5 -82.5q-75 0 -151 8v-74q0 -54 8.5 -94.5t22.5 -64t34.5 -37.5t40.5 -18.5t45 -4.5q38 0 72.5 2t67 7t51.5 8t50 10 t38 8l-15 -148q-50 -14 -125.5 -24t-130.5 -10q-102 0 -168.5 25.5t-105.5 94.5q-100 -120 -305 -120q-85 0 -146 19.5t-108 66t-70.5 129t-23.5 202.5zM328 389q0 -138 43.5 -199t140.5 -61q115 0 171 86t73 287q6 80 6 141q0 138 -41 195t-141 57q-122 0 -174.5 -86 t-71.5 -307q-6 -61 -6 -113zM930 567q62 -6 110 -6q143 0 205 44t62 145q0 67 -32 105t-118 38q-96 0 -152 -74t-75 -252z" />
<glyph unicode="&#x154;" horiz-adv-x="1064" d="M154 0l125 1434q176 14 346 14q193 0 279.5 -91t86.5 -259q0 -22 -4 -68q-16 -167 -72 -268t-167 -141l225 -621h-193l-207 594h-190l-51 -594h-178zM395 743h193q95 0 148 58t67 215q4 58 4 78q0 109 -39 157.5t-131 48.5q-50 0 -98.5 -3t-71.5 -6l-23 -3zM547 1571 l238 276h223l-284 -276h-177z" />
<glyph unicode="&#x155;" horiz-adv-x="692" d="M143 0l88 1024h144l4 -127q91 141 223 141q49 0 107 -12l-15 -178q-70 16 -123 16q-49 0 -87.5 -27t-62 -72t-36.5 -95t-18 -105l-50 -565h-174zM394 1161l238 277h223l-284 -277h-177z" />
<glyph unicode="&#x156;" horiz-adv-x="1064" d="M154 0l125 1434q176 14 346 14q193 0 279.5 -91t86.5 -259q0 -22 -4 -68q-16 -167 -72 -268t-167 -141l225 -621h-113q-17 -96 -17 -178q0 -4 0.5 -13t0.5 -14l-174 -287h-140l109 287l16 205h125l-207 594h-190l-51 -594h-178zM395 743h193q95 0 148 58t67 215 q4 58 4 78q0 109 -39 157.5t-131 48.5q-50 0 -98.5 -3t-71.5 -6l-23 -3z" />
<glyph unicode="&#x157;" horiz-adv-x="692" d="M82 -492l108 287l17 205h-64l88 1024h144l4 -127q91 141 223 141q49 0 107 -12l-15 -178q-70 16 -123 16q-49 0 -87.5 -27t-62 -72t-36.5 -95t-18 -105l-50 -565h95l-17 -205l-174 -287h-139z" />
<glyph unicode="&#x158;" horiz-adv-x="1064" d="M154 0l125 1434q176 14 346 14q193 0 279.5 -91t86.5 -259q0 -22 -4 -68q-16 -167 -72 -268t-167 -141l225 -621h-193l-207 594h-190l-51 -594h-178zM339 1847h199l108 -172l137 172h197l-250 -276h-180zM395 743h193q95 0 148 58t67 215q4 58 4 78q0 109 -39 157.5 t-131 48.5q-50 0 -98.5 -3t-71.5 -6l-23 -3z" />
<glyph unicode="&#x159;" horiz-adv-x="692" d="M143 0l88 1024h144l4 -127q91 141 223 141q49 0 107 -12l-15 -178q-70 16 -123 16q-49 0 -87.5 -27t-62 -72t-36.5 -95t-18 -105l-50 -565h-174zM186 1438h199l108 -172l137 172h197l-250 -277h-180z" />
<glyph unicode="&#x15a;" horiz-adv-x="888" d="M117 18l14 152q133 -35 254 -35q119 0 174 80t55 246q0 101 -35 145t-110 60q-147 32 -215 106.5t-68 218.5q0 457 435 457q96 0 221 -35l-15 -149q-145 34 -233 34q-100 0 -162.5 -71t-62.5 -223q0 -81 30 -115.5t111 -52.5q143 -30 216 -108.5t73 -242.5 q0 -271 -105.5 -385t-335.5 -114q-117 0 -241 32zM543 1571l238 276h223l-285 -276h-176z" />
<glyph unicode="&#x15b;" horiz-adv-x="823" d="M111 16l14 150q155 -33 256 -33q47 0 81 17.5t51 46.5t24.5 58.5t7.5 61.5q0 56 -25.5 84t-91.5 43q-264 60 -264 258q0 178 93.5 257t272.5 79q105 0 222 -30l-13 -150l-32 8t-34 8l-32.5 6.5t-39 6t-41.5 3t-52 1.5q-164 0 -164 -166q0 -49 29 -77t92 -40 q138 -28 200 -95.5t62 -174.5q0 -182 -89.5 -267t-283.5 -85q-131 0 -243 30zM453 1161l238 277h223l-285 -277h-176z" />
<glyph unicode="&#x15c;" horiz-adv-x="888" d="M117 18l14 152q133 -35 254 -35q119 0 174 80t55 246q0 101 -35 145t-110 60q-147 32 -215 106.5t-68 218.5q0 457 435 457q96 0 221 -35l-15 -149q-145 34 -233 34q-100 0 -162.5 -71t-62.5 -223q0 -81 30 -115.5t111 -52.5q143 -30 216 -108.5t73 -242.5 q0 -271 -105.5 -385t-335.5 -114q-117 0 -241 32zM311 1571l254 276h180l207 -276h-199l-106 172l-140 -172h-196z" />
<glyph unicode="&#x15d;" horiz-adv-x="823" d="M111 16l14 150q155 -33 256 -33q47 0 81 17.5t51 46.5t24.5 58.5t7.5 61.5q0 56 -25.5 84t-91.5 43q-264 60 -264 258q0 178 93.5 257t272.5 79q105 0 222 -30l-13 -150l-32 8t-34 8l-32.5 6.5t-39 6t-41.5 3t-52 1.5q-164 0 -164 -166q0 -49 29 -77t92 -40 q138 -28 200 -95.5t62 -174.5q0 -182 -89.5 -267t-283.5 -85q-131 0 -243 30zM221 1161l254 277h180l207 -277h-199l-106 172l-140 -172h-196z" />
<glyph unicode="&#x15e;" horiz-adv-x="888" d="M117 18l14 152q133 -35 254 -35q119 0 174 80t55 246q0 101 -35 145t-110 60q-147 32 -215 106.5t-68 218.5q0 457 435 457q96 0 221 -35l-15 -149q-145 34 -233 34q-100 0 -162.5 -71t-62.5 -223q0 -81 30 -115.5t111 -52.5q143 -30 216 -108.5t73 -242.5 q0 -265 -100.5 -379.5t-318.5 -119.5l-33 -141q85 -10 121.5 -43.5t36.5 -99.5q0 -106 -65 -158.5t-175 -52.5q-57 0 -129 14l13 127q55 -12 110 -12q46 0 67 14.5t21 54.5q0 29 -34 42.5t-125 13.5l61 248q-69 9 -132 25z" />
<glyph unicode="&#x15f;" horiz-adv-x="823" d="M111 16l14 150q155 -33 256 -33q47 0 81 17.5t51 46.5t24.5 58.5t7.5 61.5q0 56 -25.5 84t-91.5 43q-264 62 -264 258q0 178 93.5 257t272.5 79q105 0 222 -30l-13 -150l-32 8t-34 8l-32.5 6.5t-39 6t-41.5 3t-52 1.5q-164 0 -164 -166q0 -49 29 -76.5t92 -40.5 q138 -28 200 -95.5t62 -174.5q0 -177 -84 -262.5t-267 -89.5l-33 -141q85 -10 121.5 -43.5t36.5 -99.5q0 -106 -65 -158.5t-175 -52.5q-57 0 -129 14l13 127q55 -12 110 -12q46 0 67 14.5t21 54.5q0 29 -34 42.5t-125 13.5l60 246q-66 7 -133 25z" />
<glyph unicode="&#x160;" horiz-adv-x="888" d="M117 18l14 152q133 -35 254 -35q119 0 174 80t55 246q0 101 -35 145t-110 60q-147 32 -215 106.5t-68 218.5q0 457 435 457q96 0 221 -35l-15 -149q-145 34 -233 34q-100 0 -162.5 -71t-62.5 -223q0 -81 30 -115.5t111 -52.5q143 -30 216 -108.5t73 -242.5 q0 -271 -105.5 -385t-335.5 -114q-117 0 -241 32zM291 1729h198l111 -138l135 138h197l-250 -236h-180z" />
<glyph unicode="&#x161;" horiz-adv-x="823" d="M111 16l14 150q155 -33 256 -33q47 0 81 17.5t51 46.5t24.5 58.5t7.5 61.5q0 56 -25.5 84t-91.5 43q-264 60 -264 258q0 178 93.5 257t272.5 79q105 0 222 -30l-13 -150l-32 8t-34 8l-32.5 6.5t-39 6t-41.5 3t-52 1.5q-164 0 -164 -166q0 -49 29 -77t92 -40 q138 -28 200 -95.5t62 -174.5q0 -182 -89.5 -267t-283.5 -85q-131 0 -243 30zM219 1462h199l108 -172l138 172h196l-250 -276h-180z" />
<glyph unicode="&#x162;" horiz-adv-x="870" d="M121 1278l14 156h809l-14 -156h-316l-110 -1278h-67l-33 -141q85 -10 121 -43.5t36 -99.5q0 -106 -64.5 -158.5t-174.5 -52.5q-57 0 -129 14l12 127q55 -12 111 -12q46 0 67 14.5t21 55.5q0 29 -34 42t-126 13l63 258h20l109 1261h-315z" />
<glyph unicode="&#x163;" horiz-adv-x="657" d="M106 870l13 154h133l22 246h175l-23 -246h238l-13 -154h-237l-52 -579q-4 -40 -4 -60q0 -38 21 -67t72 -29q63 0 137 19l-13 -144q-66 -19 -156 -22l-33 -141q85 -10 121.5 -43.5t36.5 -99.5q0 -106 -65 -158.5t-175 -52.5q-57 0 -129 14l13 127q55 -12 110 -12 q46 0 67 14.5t21 54.5q0 29 -34 42.5t-125 13.5l63 258h8q-116 47 -116 212q0 5 6 80l52 573h-134z" />
<glyph unicode="&#x164;" horiz-adv-x="870" d="M121 1278l14 156h809l-14 -156h-316l-110 -1278h-178l110 1278h-315zM255 1847h199l108 -172l138 172h196l-250 -276h-180z" />
<glyph unicode="&#x165;" horiz-adv-x="903" d="M106 870l13 154h133l22 246h175l-23 -246h238l-13 -154h-237l-52 -579q-4 -40 -4 -60q0 -38 21 -67t72 -29q63 0 137 19l-13 -144q-74 -22 -178 -22q-112 0 -163.5 61.5t-51.5 167.5q0 5 6 80l52 573h-134zM686 778l109 287l16 205h205l-17 -205l-174 -287h-139z" />
<glyph unicode="&#x166;" horiz-adv-x="870" d="M121 1278l14 156h809l-14 -156h-316l-36 -416h239l-12 -153h-240l-61 -709h-178l61 709h-248l13 153h248l36 416h-315z" />
<glyph unicode="&#x167;" horiz-adv-x="657" d="M59 584l13 153h156l12 133h-134l13 154h133l22 246h175l-23 -246h238l-13 -154h-237l-12 -133h206l-12 -153h-208l-26 -293q-4 -40 -4 -60q0 -38 21 -67t72 -29q63 0 137 19l-13 -144q-74 -22 -178 -22q-112 0 -163.5 61.5t-51.5 167.5q0 5 6 80l26 287h-155z" />
<glyph unicode="&#x168;" horiz-adv-x="1095" d="M174 324q0 39 4 75l90 1035h178l-92 -1051q-4 -66 -4 -72q0 -89 49.5 -132.5t139.5 -43.5q96 0 155 50.5t68 154.5l96 1094h178l-92 -1055q-18 -203 -123.5 -298t-294.5 -95q-160 0 -256 84t-96 254zM378 1577l14 149q88 68 182 68q50 0 119 -40t107 -40q50 0 86 17 t84 57l-13 -150q-75 -67 -182 -67q-43 0 -81 20t-73 40t-71 20q-83 0 -172 -74z" />
<glyph unicode="&#x169;" d="M162 266q0 29 4 103l55 655h174l-57 -676q-4 -58 -4 -80q0 -67 27.5 -101t103.5 -34q57 0 100 28t67 75.5t37 95.5t17 100l49 592h174l-88 -1024h-143l-4 109q-89 -123 -250 -123q-148 0 -205 69.5t-57 210.5zM291 1167l14 150q87 67 182 67q50 0 119 -39.5t107 -39.5 q50 0 86 17t84 56l-13 -149q-76 -68 -182 -68q-43 0 -81 20t-73 40t-71 20q-83 0 -172 -74z" />
<glyph unicode="&#x16a;" horiz-adv-x="1095" d="M174 324q0 39 4 75l90 1035h178l-92 -1051q-4 -66 -4 -72q0 -89 49.5 -132.5t139.5 -43.5q96 0 155 50.5t68 154.5l96 1094h178l-92 -1055q-18 -203 -123.5 -298t-294.5 -95q-160 0 -256 84t-96 254zM402 1571l15 143h522l-14 -143h-523z" />
<glyph unicode="&#x16b;" d="M162 266q0 29 4 103l55 655h174l-57 -676q-4 -58 -4 -80q0 -67 27.5 -101t103.5 -34q57 0 100 28t67 75.5t37 95.5t17 100l49 592h174l-88 -1024h-143l-4 109q-89 -123 -250 -123q-148 0 -205 69.5t-57 210.5zM315 1161l15 144h522l-15 -144h-522z" />
<glyph unicode="&#x16c;" horiz-adv-x="1095" d="M174 324q0 39 4 75l90 1035h178l-92 -1051q-4 -66 -4 -72q0 -89 49.5 -132.5t139.5 -43.5q96 0 155 50.5t68 154.5l96 1094h178l-92 -1055q-18 -203 -123.5 -298t-294.5 -95q-160 0 -256 84t-96 254zM397 1837h168q0 -141 110 -141q64 0 94.5 37.5t42.5 103.5h166 q-11 -44 -20.5 -72t-33.5 -69t-54.5 -65t-83.5 -42t-121 -18q-71 0 -124 25t-82 66.5t-44 84.5t-18 90z" />
<glyph unicode="&#x16d;" d="M162 266q0 29 4 103l55 655h174l-57 -676q-4 -58 -4 -80q0 -67 27.5 -101t103.5 -34q57 0 100 28t67 75.5t37 95.5t17 100l49 592h174l-88 -1024h-143l-4 109q-89 -123 -250 -123q-148 0 -205 69.5t-57 210.5zM310 1427h168q0 -141 110 -141q64 0 94.5 37.5t42.5 103.5 h166q-11 -44 -20.5 -72t-33.5 -69t-54.5 -65t-83.5 -42t-121 -18q-71 0 -124 25t-82 66.5t-44 84.5t-18 90z" />
<glyph unicode="&#x16e;" horiz-adv-x="1095" d="M174 324q0 39 4 75l90 1035h178l-92 -1051q-4 -66 -4 -72q0 -89 49.5 -132.5t139.5 -43.5q96 0 155 50.5t68 154.5l96 1094h178l-92 -1055q-18 -203 -123.5 -298t-294.5 -95q-160 0 -256 84t-96 254zM487 1757q0 101 57 166.5t154 65.5q82 0 131 -51t49 -134q0 -4 -1 -12 t-1 -12q-8 -93 -64.5 -151t-150.5 -58q-77 0 -125.5 53.5t-48.5 132.5zM604 1767q0 -86 67 -86q46 0 64 27.5t22 73.5v18q0 82 -69 82q-45 0 -64.5 -34t-19.5 -81z" />
<glyph unicode="&#x16f;" d="M162 266q0 29 4 103l55 655h174l-57 -676q-4 -58 -4 -80q0 -67 27.5 -101t103.5 -34q57 0 100 28t67 75.5t37 95.5t17 100l49 592h174l-88 -1024h-143l-4 109q-89 -123 -250 -123q-148 0 -205 69.5t-57 210.5zM400 1348q0 101 57 166t154 65q82 0 131 -50.5t49 -133.5 q0 -4 -1 -12.5t-1 -12.5q-8 -93 -64.5 -151t-150.5 -58q-77 0 -125.5 54t-48.5 133zM517 1358q0 -86 67 -86q46 0 64 27t22 73v19q0 82 -69 82q-45 0 -64.5 -34t-19.5 -81z" />
<glyph unicode="&#x170;" horiz-adv-x="1095" d="M174 324q0 39 4 75l90 1035h178l-92 -1051q-4 -66 -4 -72q0 -89 49.5 -132.5t139.5 -43.5q96 0 155 50.5t68 154.5l96 1094h178l-92 -1055q-18 -203 -123.5 -298t-294.5 -95q-160 0 -256 84t-96 254zM412 1571l238 301h246l-328 -301h-156zM761 1571l237 301h246 l-328 -301h-155z" />
<glyph unicode="&#x171;" d="M162 266q0 29 4 103l55 655h174l-57 -676q-4 -58 -4 -80q0 -67 27.5 -101t103.5 -34q57 0 100 28t67 75.5t37 95.5t17 100l49 592h174l-88 -1024h-143l-4 109q-89 -123 -250 -123q-148 0 -205 69.5t-57 210.5zM325 1161l238 301h246l-328 -301h-156zM674 1161l237 301 h246l-328 -301h-155z" />
<glyph unicode="&#x172;" horiz-adv-x="1095" d="M174 324q0 39 4 75l90 1035h178l-92 -1051q-4 -66 -4 -72q0 -89 49.5 -132.5t139.5 -43.5q96 0 155 50.5t68 154.5l96 1094h178l-92 -1055q-34 -384 -398 -393q-44 -64 -73.5 -143t-29.5 -124q0 -41 20 -55t64 -14q45 0 131 14l-8 -133q-82 -20 -154 -20 q-118 0 -167.5 39.5t-49.5 138.5q0 83 38.5 167t95.5 142q-112 27 -175.5 108t-63.5 218z" />
<glyph unicode="&#x173;" d="M162 266q0 29 4 103l55 655h174l-57 -676q-4 -58 -4 -80q0 -67 27.5 -101t103.5 -34q57 0 100 28t67 75.5t37 95.5t17 100l49 592h174l-88 -1024h-143l-4 109q-61 -84 -150 -110q-48 -65 -80.5 -148.5t-32.5 -131.5q0 -41 20 -55t64 -14q45 0 131 14l-8 -133 q-82 -20 -153 -20q-118 0 -167.5 39.5t-49.5 138.5q0 79 35.5 159.5t88.5 139.5q-117 12 -163.5 81t-46.5 197z" />
<glyph unicode="&#x174;" horiz-adv-x="1236" d="M182 0l56 1434h157l-55 -1321l244 716h168l127 -716l180 1321h149l-194 -1434h-279l-84 623l-202 -623h-267zM414 1571l254 276h181l207 -276h-199l-107 172l-139 -172h-197z" />
<glyph unicode="&#x175;" horiz-adv-x="1372" d="M150 1024h178l86 -893l245 709h175l108 -709l244 893h172l-291 -1024h-268l-82 555l-189 -555h-262zM445 1161l254 277h180l207 -277h-198l-107 172l-139 -172h-197z" />
<glyph unicode="&#x176;" d="M145 1434h193l217 -596l324 596h190l-440 -768l-58 -666h-184l57 666zM299 1571l254 276h180l207 -276h-199l-106 172l-140 -172h-196z" />
<glyph unicode="&#x177;" horiz-adv-x="948" d="M139 1024h185l165 -846l273 846h182l-393 -1114q-24 -68 -45 -110.5t-53 -82t-76.5 -57.5t-104.5 -18q-39 0 -114 12l12 149q58 -8 106 -8q55 0 91 92l43 113h-41zM233 1161l254 277h180l207 -277h-198l-107 172l-139 -172h-197z" />
<glyph unicode="&#x178;" d="M145 1434h193l217 -596l324 596h190l-440 -768l-58 -666h-184l57 666zM330 1505l14 164h174l-14 -164h-174zM739 1505l15 164h174l-15 -164h-174z" />
<glyph unicode="&#x179;" horiz-adv-x="892" d="M72 0l14 180l623 1102h-480l15 152h661l-16 -181l-621 -1101h504l-12 -152h-688zM498 1571l238 276h223l-284 -276h-177z" />
<glyph unicode="&#x17a;" horiz-adv-x="825" d="M72 0l12 164l504 708h-400l13 152h590l-17 -182l-498 -690h418l-12 -152h-610zM420 1161l237 277h223l-284 -277h-176z" />
<glyph unicode="&#x17b;" horiz-adv-x="892" d="M72 0l14 180l623 1102h-480l15 152h661l-16 -181l-621 -1101h504l-12 -152h-688zM499 1571l16 174h174l-16 -174h-174z" />
<glyph unicode="&#x17c;" horiz-adv-x="825" d="M72 0l12 164l504 708h-400l13 152h590l-17 -182l-498 -690h418l-12 -152h-610zM420 1161l16 174h174l-16 -174h-174z" />
<glyph unicode="&#x17d;" horiz-adv-x="892" d="M72 0l14 180l623 1102h-480l15 152h661l-16 -181l-621 -1101h504l-12 -152h-688zM276 1729h199l111 -138l135 138h197l-250 -236h-181z" />
<glyph unicode="&#x17e;" horiz-adv-x="825" d="M72 0l12 164l504 708h-400l13 152h590l-17 -182l-498 -690h418l-12 -152h-610zM229 1462h199l109 -172l137 172h196l-249 -276h-181z" />
<glyph unicode="&#x192;" horiz-adv-x="626" d="M-123 -348l12 145q86 -8 148 -8q51 0 82 29.5t35 83.5l86 972h-134l13 150h133l14 160q24 264 283 264q78 0 190 -23l-12 -147q-90 22 -164 22q-54 0 -85 -28t-36 -74l-16 -174h248l-12 -150h-248l-84 -962q-21 -270 -279 -270q-86 0 -174 10z" />
<glyph unicode="&#x1a0;" horiz-adv-x="1355" d="M166 535q0 53 10 198q13 152 33 260t56 198.5t89 144.5t130.5 83t181.5 29q204 0 290 -121.5t86 -382.5q0 -84 -10 -211q-14 -159 -35 -271.5t-57 -207t-89 -151t-130.5 -87t-181.5 -30.5q-206 0 -289.5 132t-83.5 417zM344 487q0 -191 48.5 -271.5t158.5 -80.5 q94 0 151.5 56t92 182.5t53.5 349.5q14 168 14 246q0 184 -48.5 256.5t-160.5 72.5q-94 0 -150 -50t-91 -174t-56 -351q-12 -210 -12 -236zM1092 956l108 287l17 205h204l-16 -205l-174 -287h-139z" />
<glyph unicode="&#x1a1;" horiz-adv-x="1249" d="M152 401q0 331 104.5 484t335.5 153q348 0 348 -391q0 -343 -104.5 -502t-335.5 -159q-85 0 -146.5 19.5t-108.5 66t-70 128.5t-23 201zM328 389q0 -138 43.5 -199t140.5 -61q115 0 171 86t73 287q6 80 6 141q0 138 -41 195t-141 57q-122 0 -174.5 -86t-71.5 -307 q-6 -61 -6 -113zM981 547l109 287l16 204h205l-17 -204l-174 -287h-139z" />
<glyph unicode="&#x1af;" horiz-adv-x="1095" d="M174 324q0 39 4 75l90 1035h178l-92 -1051q-4 -66 -4 -72q0 -89 49.5 -132.5t139.5 -43.5q96 0 155 50.5t68 154.5l96 1094h178l-92 -1055q-18 -203 -123.5 -298t-294.5 -95q-160 0 -256 84t-96 254zM1057 956l108 287l16 205h205l-16 -205l-174 -287h-139z" />
<glyph unicode="&#x1b0;" d="M162 266q0 29 4 103l55 655h174l-57 -676q-4 -58 -4 -80q0 -67 27.5 -101t103.5 -34q57 0 100 28t67 75.5t37 95.5t17 100l49 592h174l-88 -1024h-143l-4 109q-89 -123 -250 -123q-148 0 -205 69.5t-57 210.5zM930 547l108 287l17 204h204l-16 -204l-174 -287h-139z" />
<glyph unicode="&#x1cd;" horiz-adv-x="1024" d="M31 0l467 1434h235l219 -1434h-178l-47 362h-403l-111 -362h-182zM331 1847h199l108 -172l137 172h197l-250 -276h-180zM371 516h338l-105 782z" />
<glyph unicode="&#x1ce;" horiz-adv-x="1019" d="M145 348q0 47 7 119q28 302 143.5 436.5t347.5 134.5q53 0 131.5 -14t130.5 -31l-65 -714q0 -1 -1 -10.5t-2 -25.5t-1 -32q0 -78 79 -78l-10 -133h-39q-140 0 -176 127q-95 -141 -282 -141q-138 0 -200.5 91.5t-62.5 270.5zM324 334q0 -104 30 -152.5t99 -48.5 q99 0 155 64t64 155l47 531q-54 8 -111 8q-284 0 -284 -557zM357 1438h199l109 -172l137 172h196l-249 -277h-181z" />
<glyph unicode="&#x1cf;" horiz-adv-x="649" d="M72 0l12 150h143l99 1134h-144l15 150h465l-15 -150h-143l-98 -1134h143l-12 -150h-465zM145 1847h198l109 -172l137 172h197l-250 -276h-180z" />
<glyph unicode="&#x1d0;" horiz-adv-x="501" d="M34 1438h199l108 -172l137 172h197l-250 -277h-180zM143 0l88 1024h175l-89 -1024h-174z" />
<glyph unicode="&#x1d1;" horiz-adv-x="1122" d="M166 535q0 53 10 198q13 152 33 260t56 198.5t89 144.5t130.5 83t181.5 29q204 0 290 -121.5t86 -382.5q0 -84 -10 -211q-14 -159 -35 -271.5t-57 -207t-89 -151t-130.5 -87t-181.5 -30.5q-206 0 -289.5 132t-83.5 417zM344 487q0 -191 48.5 -271.5t158.5 -80.5 q94 0 151.5 56t92 182.5t53.5 349.5q14 168 14 246q0 184 -48.5 256.5t-160.5 72.5q-94 0 -150 -50t-91 -174t-56 -351q-12 -210 -12 -236zM380 1847h199l108 -172l137 172h197l-250 -276h-180z" />
<glyph unicode="&#x1d2;" horiz-adv-x="1044" d="M152 401q0 331 104.5 484t335.5 153q348 0 348 -391q0 -343 -104.5 -502t-335.5 -159q-85 0 -146.5 19.5t-108.5 66t-70 128.5t-23 201zM306 1438h199l108 -172l138 172h196l-250 -277h-180zM328 389q0 -138 43.5 -199t140.5 -61q115 0 171 86t73 287q6 80 6 141 q0 138 -41 195t-141 57q-122 0 -174.5 -86t-71.5 -307q-6 -61 -6 -113z" />
<glyph unicode="&#x1d3;" horiz-adv-x="1095" d="M174 324q0 39 4 75l90 1035h178l-92 -1051q-4 -66 -4 -72q0 -89 49.5 -132.5t139.5 -43.5q96 0 155 50.5t68 154.5l96 1094h178l-92 -1055q-18 -203 -123.5 -298t-294.5 -95q-160 0 -256 84t-96 254zM368 1847h198l109 -172l137 172h197l-250 -276h-180z" />
<glyph unicode="&#x1d4;" d="M162 266q0 29 4 103l55 655h174l-57 -676q-4 -58 -4 -80q0 -67 27.5 -101t103.5 -34q57 0 100 28t67 75.5t37 95.5t17 100l49 592h174l-88 -1024h-143l-4 109q-89 -123 -250 -123q-148 0 -205 69.5t-57 210.5zM281 1438h198l109 -172l137 172h197l-250 -277h-180z" />
<glyph unicode="&#x1d5;" horiz-adv-x="1095" d="M174 324q0 39 4 75l90 1035h178l-92 -1051q-4 -66 -4 -72q0 -89 49.5 -132.5t139.5 -43.5q96 0 155 50.5t68 154.5l96 1094h178l-92 -1055q-18 -203 -123.5 -298t-294.5 -95q-160 0 -256 84t-96 254zM371 1505l14 164h174l-14 -164h-174zM426 1792l14 143h522l-14 -143 h-522zM780 1505l15 164h174l-15 -164h-174z" />
<glyph unicode="&#x1d6;" d="M162 266q0 29 4 103l55 655h174l-57 -676q-4 -58 -4 -80q0 -67 27.5 -101t103.5 -34q57 0 100 28t67 75.5t37 95.5t17 100l49 592h174l-88 -1024h-143l-4 109q-89 -123 -250 -123q-148 0 -205 69.5t-57 210.5zM295 1219l14 163h174l-14 -163h-174zM350 1505l14 144h522 l-14 -144h-522zM705 1219l14 163h174l-14 -163h-174z" />
<glyph unicode="&#x1d7;" horiz-adv-x="1095" d="M174 324q0 39 4 75l90 1035h178l-92 -1051q-4 -66 -4 -72q0 -89 49.5 -132.5t139.5 -43.5q96 0 155 50.5t68 154.5l96 1094h178l-92 -1055q-18 -203 -123.5 -298t-294.5 -95q-160 0 -256 84t-96 254zM371 1505l14 164h174l-14 -164h-174zM600 1792l237 276h223l-284 -276 h-176zM780 1505l15 164h174l-15 -164h-174z" />
<glyph unicode="&#x1d8;" d="M162 266q0 29 4 103l55 655h174l-57 -676q-4 -58 -4 -80q0 -67 27.5 -101t103.5 -34q57 0 100 28t67 75.5t37 95.5t17 100l49 592h174l-88 -1024h-143l-4 109q-89 -123 -250 -123q-148 0 -205 69.5t-57 210.5zM295 1219l14 163h174l-14 -163h-174zM524 1505l237 277h224 l-285 -277h-176zM705 1219l14 163h174l-14 -163h-174z" />
<glyph unicode="&#x1d9;" horiz-adv-x="1095" d="M174 324q0 39 4 75l90 1035h178l-92 -1051q-4 -66 -4 -72q0 -89 49.5 -132.5t139.5 -43.5q96 0 155 50.5t68 154.5l96 1094h178l-92 -1055q-18 -203 -123.5 -298t-294.5 -95q-160 0 -256 84t-96 254zM371 1505l14 164h174l-14 -164h-174zM391 2068h199l108 -172l138 172 h196l-250 -276h-180zM780 1505l15 164h174l-15 -164h-174z" />
<glyph unicode="&#x1da;" d="M162 266q0 29 4 103l55 655h174l-57 -676q-4 -58 -4 -80q0 -67 27.5 -101t103.5 -34q57 0 100 28t67 75.5t37 95.5t17 100l49 592h174l-88 -1024h-143l-4 109q-89 -123 -250 -123q-148 0 -205 69.5t-57 210.5zM295 1219l14 163h174l-14 -163h-174zM315 1782h199l109 -172 l137 172h196l-249 -277h-181zM705 1219l14 163h174l-14 -163h-174z" />
<glyph unicode="&#x1db;" horiz-adv-x="1095" d="M174 324q0 39 4 75l90 1035h178l-92 -1051q-4 -66 -4 -72q0 -89 49.5 -132.5t139.5 -43.5q96 0 155 50.5t68 154.5l96 1094h178l-92 -1055q-18 -203 -123.5 -298t-294.5 -95q-160 0 -256 84t-96 254zM354 2068h223l189 -276h-156zM371 1505l14 164h174l-14 -164h-174z M780 1505l15 164h174l-15 -164h-174z" />
<glyph unicode="&#x1dc;" d="M162 266q0 29 4 103l55 655h174l-57 -676q-4 -58 -4 -80q0 -67 27.5 -101t103.5 -34q57 0 100 28t67 75.5t37 95.5t17 100l49 592h174l-88 -1024h-143l-4 109q-89 -123 -250 -123q-148 0 -205 69.5t-57 210.5zM278 1782h223l189 -277h-156zM295 1219l14 163h174l-14 -163 h-174zM705 1219l14 163h174l-14 -163h-174z" />
<glyph unicode="&#x1de;" horiz-adv-x="1024" d="M31 0l467 1434h235l219 -1434h-178l-47 362h-403l-111 -362h-182zM330 1505l14 164h174l-14 -164h-174zM371 516h338l-105 782zM385 1792l14 143h522l-14 -143h-522zM739 1505l15 164h174l-15 -164h-174z" />
<glyph unicode="&#x1df;" horiz-adv-x="1019" d="M145 348q0 47 7 119q28 302 143.5 436.5t347.5 134.5q53 0 131.5 -14t130.5 -31l-65 -714q0 -1 -1 -10.5t-2 -25.5t-1 -32q0 -78 79 -78l-10 -133h-39q-140 0 -176 127q-95 -141 -282 -141q-138 0 -200.5 91.5t-62.5 270.5zM324 334q0 -104 30 -152.5t99 -48.5 q99 0 155 64t64 155l47 531q-54 8 -111 8q-284 0 -284 -557zM354 1219l15 163h174l-15 -163h-174zM409 1505l15 144h522l-15 -144h-522zM764 1219l14 163h174l-14 -163h-174z" />
<glyph unicode="&#x1e2;" horiz-adv-x="1521" d="M31 0l610 1434h832l-15 -150h-551l15 -469h485l-12 -149h-467l16 -516h457l-12 -150h-611l-10 362h-406l-147 -362h-184zM426 520h338l-19 764zM807 1571l14 143h522l-14 -143h-522z" />
<glyph unicode="&#x1e3;" horiz-adv-x="1464" d="M104 250q0 360 396 360q74 0 162 -10q12 137 12 160q0 58 -38 94.5t-106 36.5q-138 0 -299 -45l13 151q139 41 280 41q194 0 264 -108q97 108 269 108q67 0 120.5 -15.5t89 -41.5t58.5 -62.5t33 -76t10 -84.5q0 -330 -399 -330q-77 0 -156 8v-74q0 -229 156 -229 q38 0 72.5 2t67 7t51 8.5t49.5 10t38 7.5l-14 -148q-50 -14 -125.5 -24t-130.5 -10q-110 0 -179.5 29.5t-105.5 111.5q-93 -141 -307 -141q-39 0 -76 7t-75 26t-66 47.5t-46 76t-18 107.5zM285 272q0 -76 37.5 -107.5t115.5 -31.5q47 0 85 15t60 37t34 44t14 41l18 191 q-92 10 -172 10q-81 0 -136.5 -47t-55.5 -152zM539 1161l15 144h522l-14 -144h-523zM823 578q75 -7 115 -7q146 0 206 39.5t60 139.5q0 68 -31.5 105.5t-117.5 37.5q-97 0 -154 -70.5t-78 -244.5z" />
<glyph unicode="&#x1e6;" horiz-adv-x="1013" d="M164 485q0 110 12 254q16 181 45 305.5t69.5 204.5t104.5 123.5t137 59.5t181 16q87 0 227 -33l-12 -147q-161 30 -264 30q-56 0 -95 -12t-75 -47t-60.5 -98.5t-44.5 -165.5t-33 -250q-14 -231 -14 -266q0 -102 12 -167t39 -99t60.5 -46t85.5 -12q62 0 161 15l41 454 h-182l14 150h353l-66 -734q-185 -34 -323 -34q-99 0 -165.5 22.5t-115 78t-70.5 153t-22 245.5zM427 1847h199l108 -172l137 172h197l-250 -276h-180z" />
<glyph unicode="&#x1e7;" horiz-adv-x="1032" d="M147 365q0 61 5 112q28 303 142 432t355 129q125 0 285 -45l-82 -911q-9 -105 -24.5 -179.5t-41 -126.5t-55.5 -83t-77.5 -48t-96.5 -22.5t-123 -5.5q-92 0 -233 29l14 151q147 -30 242 -30q55 0 89 9t63 37.5t44.5 83.5t22.5 144l6 80q-100 -115 -264 -115 q-140 0 -205.5 87.5t-65.5 271.5zM326 360q0 -107 32 -156.5t105 -49.5q58 0 105 24.5t75.5 64t45 83.5t20.5 90l41 465q-78 10 -136 10q-72 0 -122.5 -27t-82.5 -84.5t-50 -133.5t-29 -189q-4 -70 -4 -97zM363 1438h199l109 -172l137 172h197l-250 -277h-181z" />
<glyph unicode="&#x1e8;" horiz-adv-x="1007" d="M154 0l125 1434h178l-56 -629l439 629h190l-444 -627l340 -807h-197l-266 657l-86 -122l-45 -535h-178zM370 1847h199l108 -172l137 172h197l-250 -276h-180z" />
<glyph unicode="&#x1e9;" horiz-adv-x="950" d="M70 1833h198l109 -172l137 172h197l-250 -277h-180zM143 0l125 1434h174l-67 -762l334 352h223l-381 -395l307 -629h-199l-237 508l-68 -70l-37 -438h-174z" />
<glyph unicode="&#x1ea;" horiz-adv-x="1122" d="M166 535q0 53 10 198q13 152 33 260t56 198.5t89 144.5t130.5 83t181.5 29q204 0 290 -121.5t86 -382.5q0 -84 -10 -211q-14 -155 -34.5 -266.5t-55.5 -205.5t-86 -151t-125 -89t-173 -35q-44 -64 -73.5 -143t-29.5 -124q0 -41 20 -55t64 -14q45 0 131 14l-8 -133 q-82 -20 -153 -20q-118 0 -167.5 39.5t-49.5 138.5q0 83 38.5 167t94.5 142q-141 33 -200 163.5t-59 373.5zM344 487q0 -191 48.5 -271.5t158.5 -80.5q94 0 151.5 56t92 182.5t53.5 349.5q14 168 14 246q0 184 -48.5 256.5t-160.5 72.5q-94 0 -150 -50t-91 -174t-56 -351 q-12 -210 -12 -236z" />
<glyph unicode="&#x1eb;" horiz-adv-x="1044" d="M152 401q0 331 104.5 484t335.5 153q348 0 348 -391q0 -336 -100 -495t-320 -166q-44 -65 -74 -143.5t-30 -123.5q0 -41 20 -55t64 -14q46 0 132 14l-9 -133q-82 -20 -153 -20q-118 0 -167.5 39.5t-49.5 138.5q0 83 38 166.5t94 141.5q-116 26 -174.5 120.5t-58.5 283.5z M328 389q0 -138 43.5 -199t140.5 -61q115 0 171 86t73 287q6 80 6 141q0 138 -41 195t-141 57q-122 0 -174.5 -86t-71.5 -307q-6 -61 -6 -113z" />
<glyph unicode="&#x1ec;" horiz-adv-x="1122" d="M166 535q0 53 10 198q13 152 33 260t56 198.5t89 144.5t130.5 83t181.5 29q204 0 290 -121.5t86 -382.5q0 -84 -10 -211q-14 -155 -34.5 -266.5t-55.5 -205.5t-86 -151t-125 -89t-173 -35q-44 -64 -73.5 -143t-29.5 -124q0 -41 20 -55t64 -14q45 0 131 14l-8 -133 q-82 -20 -153 -20q-118 0 -167.5 39.5t-49.5 138.5q0 83 38.5 167t94.5 142q-141 33 -200 163.5t-59 373.5zM344 487q0 -191 48.5 -271.5t158.5 -80.5q94 0 151.5 56t92 182.5t53.5 349.5q14 168 14 246q0 184 -48.5 256.5t-160.5 72.5q-94 0 -150 -50t-91 -174t-56 -351 q-12 -210 -12 -236zM414 1571l15 143h522l-14 -143h-523z" />
<glyph unicode="&#x1ed;" horiz-adv-x="1044" d="M152 401q0 331 104.5 484t335.5 153q348 0 348 -391q0 -336 -100 -495t-320 -166q-44 -65 -74 -143.5t-30 -123.5q0 -41 20 -55t64 -14q46 0 132 14l-9 -133q-82 -20 -153 -20q-118 0 -167.5 39.5t-49.5 138.5q0 83 38 166.5t94 141.5q-116 26 -174.5 120.5t-58.5 283.5z M328 389q0 -138 43.5 -199t140.5 -61q115 0 171 86t73 287q6 80 6 141q0 138 -41 195t-141 57q-122 0 -174.5 -86t-71.5 -307q-6 -61 -6 -113zM341 1161l14 144h522l-14 -144h-522z" />
<glyph unicode="&#x1f0;" horiz-adv-x="501" d="M-143 -348l12 145q86 -8 147 -8q51 0 82 29.5t35 83.5l98 1122h175l-97 -1112q-25 -270 -278 -270q-86 0 -174 10zM31 1438h198l109 -172l137 172h197l-250 -277h-180z" />
<glyph unicode="&#x1f4;" horiz-adv-x="1013" d="M164 485q0 110 12 254q16 181 45 305.5t69.5 204.5t104.5 123.5t137 59.5t181 16q87 0 227 -33l-12 -147q-161 30 -264 30q-56 0 -95 -12t-75 -47t-60.5 -98.5t-44.5 -165.5t-33 -250q-14 -231 -14 -266q0 -102 12 -167t39 -99t60.5 -46t85.5 -12q62 0 161 15l41 454 h-182l14 150h353l-66 -734q-185 -34 -323 -34q-99 0 -165.5 22.5t-115 78t-70.5 153t-22 245.5zM635 1571l238 276h223l-284 -276h-177z" />
<glyph unicode="&#x1f5;" horiz-adv-x="1032" d="M147 365q0 61 5 112q28 303 142 432t355 129q125 0 285 -45l-82 -911q-9 -105 -24.5 -179.5t-41 -126.5t-55.5 -83t-77.5 -48t-96.5 -22.5t-123 -5.5q-92 0 -233 29l14 151q147 -30 242 -30q55 0 89 9t63 37.5t44.5 83.5t22.5 144l6 80q-100 -115 -264 -115 q-140 0 -205.5 87.5t-65.5 271.5zM326 360q0 -107 32 -156.5t105 -49.5q58 0 105 24.5t75.5 64t45 83.5t20.5 90l41 465q-78 10 -136 10q-72 0 -122.5 -27t-82.5 -84.5t-50 -133.5t-29 -189q-4 -70 -4 -97zM572 1161l238 277h223l-285 -277h-176z" />
<glyph unicode="&#x1f8;" horiz-adv-x="1120" d="M154 0l125 1434h290l203 -1282l113 1282h166l-125 -1434h-293l-203 1282l-111 -1282h-165zM343 1847h223l188 -276h-155z" />
<glyph unicode="&#x1f9;" horiz-adv-x="1036" d="M143 0l88 1024h144l2 -119q96 133 266 133q153 0 216 -74t63 -221q0 -26 -4 -88l-56 -655h-174l55 655q7 70 7 78q0 76 -34 117t-118 41q-55 0 -99 -26t-70 -69.5t-41 -91t-19 -98.5l-52 -606h-174zM269 1438h224l188 -277h-156z" />
<glyph unicode="&#x1fa;" horiz-adv-x="1024" d="M31 0l450 1384q-49 55 -49 136q0 101 57 166t154 65q82 0 131 -50.5t49 -133.5q0 -4 -1 -12.5t-1 -12.5q-9 -107 -80 -166l211 -1376h-178l-47 362h-403l-111 -362h-182zM371 516h338l-105 782zM549 1530q0 -86 67 -86q46 0 64 27t22 73v19q0 82 -69 82q-45 0 -64.5 -34 t-19.5 -81zM566 1874l237 276h224l-285 -276h-176z" />
<glyph unicode="&#x1fb;" horiz-adv-x="1019" d="M145 348q0 47 7 119q28 302 143.5 436.5t347.5 134.5q53 0 131.5 -14t130.5 -31l-65 -714q0 -1 -1 -10.5t-2 -25.5t-1 -32q0 -78 79 -78l-10 -133h-39q-140 0 -176 127q-95 -141 -282 -141q-138 0 -200.5 91.5t-62.5 270.5zM324 334q0 -104 30 -152.5t99 -48.5 q99 0 155 64t64 155l47 531q-54 8 -111 8q-284 0 -284 -557zM440 1298q0 101 57 166.5t154 65.5q82 0 131 -50.5t49 -133.5q0 -4 -1 -12.5t-1 -12.5q-8 -93 -64.5 -151t-150.5 -58q-77 0 -125.5 53.5t-48.5 132.5zM557 1309q0 -86 68 -86q46 0 64 27t22 73v18q0 82 -70 82 q-45 0 -64.5 -33.5t-19.5 -80.5zM574 1653l238 276h223l-285 -276h-176z" />
<glyph unicode="&#x1fc;" horiz-adv-x="1521" d="M31 0l610 1434h832l-15 -150h-551l15 -469h485l-12 -149h-467l16 -516h457l-12 -150h-611l-10 362h-406l-147 -362h-184zM426 520h338l-19 764zM981 1571l237 276h224l-285 -276h-176z" />
<glyph unicode="&#x1fd;" horiz-adv-x="1464" d="M104 250q0 360 396 360q74 0 162 -10q12 137 12 160q0 58 -38 94.5t-106 36.5q-138 0 -299 -45l13 151q139 41 280 41q194 0 264 -108q97 108 269 108q67 0 120.5 -15.5t89 -41.5t58.5 -62.5t33 -76t10 -84.5q0 -330 -399 -330q-77 0 -156 8v-74q0 -229 156 -229 q38 0 72.5 2t67 7t51 8.5t49.5 10t38 7.5l-14 -148q-50 -14 -125.5 -24t-130.5 -10q-110 0 -179.5 29.5t-105.5 111.5q-93 -141 -307 -141q-39 0 -76 7t-75 26t-66 47.5t-46 76t-18 107.5zM285 272q0 -76 37.5 -107.5t115.5 -31.5q47 0 85 15t60 37t34 44t14 41l18 191 q-92 10 -172 10q-81 0 -136.5 -47t-55.5 -152zM713 1161l238 277h223l-285 -277h-176zM823 578q75 -7 115 -7q146 0 206 39.5t60 139.5q0 68 -31.5 105.5t-117.5 37.5q-97 0 -154 -70.5t-78 -244.5z" />
<glyph unicode="&#x1fe;" horiz-adv-x="1122" d="M166 535q0 53 10 198q13 152 33 260t56 198.5t89 144.5t130.5 83t181.5 29q76 0 137 -18l74 190h155l-102 -264q112 -115 112 -412q0 -84 -10 -211q-14 -159 -35 -271.5t-57 -207t-89 -151t-130.5 -87t-181.5 -30.5q-71 0 -133 16l-74 -188h-154l103 264 q-115 120 -115 457zM344 487q0 -119 18 -196l383 991q-43 16 -92 16q-94 0 -150 -50t-91 -174t-56 -351q-12 -210 -12 -236zM463 152q35 -17 88 -17q94 0 151.5 56t92 182.5t53.5 349.5q14 168 14 246q0 100 -16 172zM604 1743l237 276h224l-285 -276h-176z" />
<glyph unicode="&#x1ff;" horiz-adv-x="1044" d="M152 401q0 331 104.5 484t335.5 153q46 0 94 -10l74 178h158l-99 -235q121 -95 121 -324q0 -343 -104.5 -502t-335.5 -159q-48 0 -92 6l-72 -174h-160l96 229q-120 91 -120 354zM328 389q0 -102 22 -158l277 660q-28 4 -47 4q-122 0 -174.5 -86t-71.5 -307 q-6 -61 -6 -113zM467 131q14 -2 45 -2q115 0 171 86t73 287q6 80 6 141q0 89 -19 148zM528 1329l237 277h223l-284 -277h-176z" />
<glyph unicode="&#x218;" horiz-adv-x="888" d="M117 18l14 152q133 -35 254 -35q119 0 174 80t55 246q0 101 -35 145t-110 60q-147 32 -215 106.5t-68 218.5q0 457 435 457q96 0 221 -35l-15 -149q-145 34 -233 34q-100 0 -162.5 -71t-62.5 -223q0 -81 30 -115.5t111 -52.5q143 -30 216 -108.5t73 -242.5 q0 -227 -74 -342.5t-230 -145.5l-16 -202l-174 -287h-139l108 287l16 194q-87 7 -173 29z" />
<glyph unicode="&#x219;" horiz-adv-x="823" d="M111 16l14 150q155 -33 256 -33q47 0 81 17.5t51 46.5t24.5 58.5t7.5 61.5q0 56 -25.5 84t-91.5 43q-264 62 -264 258q0 178 93.5 257t272.5 79q105 0 222 -30l-13 -150l-32 8t-34 8l-32.5 6.5t-39 6t-41.5 3t-52 1.5q-164 0 -164 -166q0 -49 29 -76.5t92 -40.5 q138 -28 200 -95.5t62 -174.5q0 -146 -57 -229t-179 -110l-16 -204l-174 -287h-139l108 287l16 193q-95 6 -175 28z" />
<glyph unicode="&#x21a;" horiz-adv-x="870" d="M121 1278l14 156h809l-14 -156h-316l-110 -1278h16l-16 -205l-174 -287h-140l109 287l16 205h11l110 1278h-315z" />
<glyph unicode="&#x21b;" horiz-adv-x="657" d="M106 870l13 154h133l22 246h175l-23 -246h238l-13 -154h-237l-52 -579q-4 -40 -4 -60q0 -38 21 -67t72 -29q63 0 137 19l-13 -144q-24 -8 -85 -16l-15 -182l-174 -287h-139l108 287l16 198q-104 51 -104 207q0 5 6 80l52 573h-134z" />
<glyph unicode="&#x21e;" horiz-adv-x="1126" d="M154 0l125 1434h178l-56 -623h422l56 623h178l-125 -1434h-178l57 659h-422l-57 -659h-178zM383 1847h199l108 -172l138 172h196l-250 -276h-180z" />
<glyph unicode="&#x21f;" horiz-adv-x="1036" d="M143 0l125 1434h174l-43 -502q92 106 244 106q153 0 216 -74t63 -221q0 -26 -4 -88l-56 -655h-174l55 655q7 70 7 78q0 76 -34 117t-118 41q-55 0 -98.5 -26t-69.5 -69.5t-40.5 -91t-18.5 -98.5l-54 -606h-174zM341 1833h199l108 -172l138 172h196l-250 -277h-180z" />
<glyph unicode="&#x226;" horiz-adv-x="1024" d="M31 0l467 1434h235l219 -1434h-178l-47 362h-403l-111 -362h-182zM371 516h338l-105 782zM540 1571l16 174h174l-16 -174h-174z" />
<glyph unicode="&#x227;" horiz-adv-x="1019" d="M145 348q0 47 7 119q28 302 143.5 436.5t347.5 134.5q53 0 131.5 -14t130.5 -31l-65 -714q0 -1 -1 -10.5t-2 -25.5t-1 -32q0 -78 79 -78l-10 -133h-39q-140 0 -176 127q-95 -141 -282 -141q-138 0 -200.5 91.5t-62.5 270.5zM324 334q0 -104 30 -152.5t99 -48.5 q99 0 155 64t64 155l47 531q-54 8 -111 8q-284 0 -284 -557zM566 1161l17 174h174l-17 -174h-174z" />
<glyph unicode="&#x228;" horiz-adv-x="958" d="M154 0l125 1434h671l-14 -150h-494l-41 -469h443l-13 -149h-442l-45 -516h494l-13 -150h-314l-33 -141q85 -10 121.5 -43.5t36.5 -99.5q0 -106 -65 -158.5t-175 -52.5q-57 0 -129 14l13 127q55 -12 110 -12q46 0 67 14.5t21 55.5q0 29 -34 42t-125 13l59 241h-224z" />
<glyph unicode="&#x229;" horiz-adv-x="933" d="M150 367q0 182 27.5 312.5t81.5 208.5t128.5 114t173.5 36q83 0 145.5 -23.5t97.5 -64t51.5 -88.5t16.5 -104q0 -175 -104.5 -257.5t-294.5 -82.5q-75 0 -151 8v-74q0 -54 8.5 -94.5t22.5 -64t34.5 -37.5t40.5 -18.5t45 -4.5q38 0 72.5 2t67 7t51.5 8t50 10t38 8 l-15 -148q-99 -28 -234 -34l-33 -141q85 -10 121.5 -43.5t36.5 -99.5q0 -106 -65 -158.5t-175 -52.5q-57 0 -129 14l13 127q56 -12 110 -12q46 0 67 14.5t21 54.5q0 29 -34.5 42.5t-125.5 13.5l62 249q-109 20 -165.5 104.5t-56.5 268.5zM332 567q61 -6 110 -6q143 0 205 44 t62 145q0 67 -32 105t-118 38q-96 0 -152 -74t-75 -252z" />
<glyph unicode="&#x22a;" horiz-adv-x="1122" d="M166 535q0 53 10 198q13 152 33 260t56 198.5t89 144.5t130.5 83t181.5 29q204 0 290 -121.5t86 -382.5q0 -84 -10 -211q-14 -159 -35 -271.5t-57 -207t-89 -151t-130.5 -87t-181.5 -30.5q-206 0 -289.5 132t-83.5 417zM344 487q0 -191 48.5 -271.5t158.5 -80.5 q94 0 151.5 56t92 182.5t53.5 349.5q14 168 14 246q0 184 -48.5 256.5t-160.5 72.5q-94 0 -150 -50t-91 -174t-56 -351q-12 -210 -12 -236zM381 1505l14 164h174l-14 -164h-174zM436 1792l14 143h522l-14 -143h-522zM791 1505l14 164h174l-14 -164h-174z" />
<glyph unicode="&#x22b;" horiz-adv-x="1044" d="M152 401q0 331 104.5 484t335.5 153q348 0 348 -391q0 -343 -104.5 -502t-335.5 -159q-85 0 -146.5 19.5t-108.5 66t-70 128.5t-23 201zM317 1219l15 163h174l-14 -163h-175zM328 389q0 -138 43.5 -199t140.5 -61q115 0 171 86t73 287q6 80 6 141q0 138 -41 195t-141 57 q-122 0 -174.5 -86t-71.5 -307q-6 -61 -6 -113zM372 1505l15 144h522l-14 -144h-523zM727 1219l14 163h174l-14 -163h-174z" />
<glyph unicode="&#x22c;" horiz-adv-x="1122" d="M166 535q0 53 10 198q13 152 33 260t56 198.5t89 144.5t130.5 83t181.5 29q204 0 290 -121.5t86 -382.5q0 -84 -10 -211q-14 -159 -35 -271.5t-57 -207t-89 -151t-130.5 -87t-181.5 -30.5q-206 0 -289.5 132t-83.5 417zM337 1843l14 144h522l-14 -144h-522zM344 487 q0 -191 48.5 -271.5t158.5 -80.5q94 0 151.5 56t92 182.5t53.5 349.5q14 168 14 246q0 184 -48.5 256.5t-160.5 72.5q-94 0 -150 -50t-91 -174t-56 -351q-12 -210 -12 -236zM391 1503l15 150q87 67 182 67q50 0 118.5 -40t106.5 -40q50 0 86 17t84 57l-12 -149 q-76 -68 -183 -68q-43 0 -81 20t-73 40t-71 20q-83 0 -172 -74z" />
<glyph unicode="&#x22d;" horiz-adv-x="1044" d="M152 401q0 331 104.5 484t335.5 153q348 0 348 -391q0 -343 -104.5 -502t-335.5 -159q-85 0 -146.5 19.5t-108.5 66t-70 128.5t-23 201zM275 1556l14 144h523l-15 -144h-522zM328 389q0 -138 43.5 -199t140.5 -61q115 0 171 86t73 287q6 80 6 141q0 138 -41 195t-141 57 q-122 0 -174.5 -86t-71.5 -307q-6 -61 -6 -113zM330 1217l14 149q88 68 182 68q50 0 119 -40t107 -40q50 0 86 17t84 56l-13 -149q-76 -68 -182 -68q-43 0 -81 20t-73 40t-71 20q-84 0 -172 -73z" />
<glyph unicode="&#x22e;" horiz-adv-x="1122" d="M166 535q0 53 10 198q13 152 33 260t56 198.5t89 144.5t130.5 83t181.5 29q204 0 290 -121.5t86 -382.5q0 -84 -10 -211q-14 -159 -35 -271.5t-57 -207t-89 -151t-130.5 -87t-181.5 -30.5q-206 0 -289.5 132t-83.5 417zM344 487q0 -191 48.5 -271.5t158.5 -80.5 q94 0 151.5 56t92 182.5t53.5 349.5q14 168 14 246q0 184 -48.5 256.5t-160.5 72.5q-94 0 -150 -50t-91 -174t-56 -351q-12 -210 -12 -236zM589 1571l16 174h174l-16 -174h-174z" />
<glyph unicode="&#x22f;" horiz-adv-x="1044" d="M152 401q0 331 104.5 484t335.5 153q348 0 348 -391q0 -343 -104.5 -502t-335.5 -159q-85 0 -146.5 19.5t-108.5 66t-70 128.5t-23 201zM328 389q0 -138 43.5 -199t140.5 -61q115 0 171 86t73 287q6 80 6 141q0 138 -41 195t-141 57q-122 0 -174.5 -86t-71.5 -307 q-6 -61 -6 -113zM515 1161l16 174h174l-16 -174h-174z" />
<glyph unicode="&#x230;" horiz-adv-x="1122" d="M166 535q0 53 10 198q13 152 33 260t56 198.5t89 144.5t130.5 83t181.5 29q204 0 290 -121.5t86 -382.5q0 -84 -10 -211q-14 -159 -35 -271.5t-57 -207t-89 -151t-130.5 -87t-181.5 -30.5q-206 0 -289.5 132t-83.5 417zM344 487q0 -191 48.5 -271.5t158.5 -80.5 q94 0 151.5 56t92 182.5t53.5 349.5q14 168 14 246q0 184 -48.5 256.5t-160.5 72.5q-94 0 -150 -50t-91 -174t-56 -351q-12 -210 -12 -236zM441 1868l14 143h522l-14 -143h-522zM589 1571l16 174h174l-16 -174h-174z" />
<glyph unicode="&#x231;" horiz-adv-x="1044" d="M152 401q0 331 104.5 484t335.5 153q348 0 348 -391q0 -343 -104.5 -502t-335.5 -159q-85 0 -146.5 19.5t-108.5 66t-70 128.5t-23 201zM328 389q0 -138 43.5 -199t140.5 -61q115 0 171 86t73 287q6 80 6 141q0 138 -41 195t-141 57q-122 0 -174.5 -86t-71.5 -307 q-6 -61 -6 -113zM367 1458l15 144h522l-15 -144h-522zM515 1161l16 174h174l-16 -174h-174z" />
<glyph unicode="&#x232;" d="M145 1434h193l217 -596l324 596h190l-440 -768l-58 -666h-184l57 666zM357 1571l15 143h522l-15 -143h-522z" />
<glyph unicode="&#x233;" horiz-adv-x="948" d="M139 1024h185l165 -846l273 846h182l-393 -1114q-24 -68 -45 -110.5t-53 -82t-76.5 -57.5t-104.5 -18q-39 0 -114 12l12 149q58 -8 106 -8q55 0 91 92l43 113h-41zM292 1161l14 144h522l-14 -144h-522z" />
<glyph unicode="&#x237;" horiz-adv-x="501" d="M-143 -348l12 145q86 -8 147 -8q51 0 82 29.5t35 83.5l98 1122h175l-97 -1112q-25 -270 -278 -270q-86 0 -174 10z" />
<glyph unicode="&#x2c6;" horiz-adv-x="784" d="M154 1188l254 276h180l207 -276h-199l-107 172l-139 -172h-196z" />
<glyph unicode="&#x2c7;" horiz-adv-x="784" d="M178 1462h199l108 -172l138 172h196l-250 -276h-180z" />
<glyph unicode="&#x2c9;" horiz-adv-x="665" d="M158 1239l14 143h522l-14 -143h-522z" />
<glyph unicode="&#x2d8;" horiz-adv-x="724" d="M180 1485h168q0 -142 111 -142q64 0 94.5 38t42.5 104h166q-11 -44 -20.5 -72t-33.5 -69t-54.5 -65t-83.5 -42t-121 -18q-57 0 -103.5 17t-75.5 44t-49 63t-29 70.5t-12 71.5z" />
<glyph unicode="&#x2d9;" horiz-adv-x="335" d="M160 1260l16 174h174l-16 -174h-174z" />
<glyph unicode="&#x2da;" horiz-adv-x="532" d="M166 1298q0 101 57 166.5t154 65.5q82 0 131 -50.5t49 -133.5q0 -4 -1 -12.5t-1 -12.5q-8 -93 -64.5 -151t-150.5 -58q-77 0 -125.5 53.5t-48.5 132.5zM283 1309q0 -86 67 -86q46 0 64 27t22 73v18q0 82 -69 82q-45 0 -64.5 -33.5t-19.5 -80.5z" />
<glyph unicode="&#x2db;" horiz-adv-x="651" d="M96 -190q0 85 39.5 170t97.5 143h142q-49 -64 -82 -149t-33 -134q0 -41 20 -55t64 -14q45 0 131 14l-8 -133q-86 -21 -154 -21q-118 0 -167.5 40t-49.5 139z" />
<glyph unicode="&#x2dc;" horiz-adv-x="716" d="M156 1217l14 149q88 68 182 68q50 0 119 -40t107 -40q50 0 86 17t84 56l-13 -149q-76 -68 -182 -68q-43 0 -81 20t-73 40t-71 20q-84 0 -172 -73z" />
<glyph unicode="&#x2dd;" horiz-adv-x="948" d="M158 1225l237 301h246l-328 -301h-155zM506 1225l237 301h246l-327 -301h-156z" />
<glyph unicode="&#x3bc;" d="M102 -348l119 1372h174l-57 -672q-6 -75 -6 -82q0 -67 28 -102t105 -35q57 0 100 28t67 75.5t37 95.5t17 100l49 592h174l-88 -1024h-143l-4 109q-89 -123 -250 -123q-55 0 -117 16l-31 -350h-174z" />
<glyph unicode="&#x3c0;" horiz-adv-x="1134" d="M147 874l13 150h950l-12 -150h-187l-53 -634q0 -5 -1 -15t-1 -14q0 -37 14 -52.5t48 -15.5q10 0 21 2t21.5 5.5t12.5 3.5l-12 -144q-68 -14 -125 -14q-65 0 -110.5 44.5t-45.5 147.5q0 27 2 41l55 645h-256l-73 -874h-175l74 874h-160z" />
<glyph unicode="&#x1e00;" horiz-adv-x="1024" d="M31 0l467 1434h235l219 -1434h-178l-47 362h-403l-111 -362h-182zM267 -354q0 101 57 166t154 65q83 0 132 -51t49 -133q0 -4 -1 -12.5t-1 -12.5q-8 -92 -65 -150.5t-151 -58.5q-77 0 -125.5 54t-48.5 133zM371 516h338l-105 782zM384 -344q0 -86 68 -86q46 0 64 27 t22 73v19q0 82 -70 82q-45 0 -64.5 -34t-19.5 -81z" />
<glyph unicode="&#x1e01;" horiz-adv-x="1019" d="M145 348q0 47 7 119q28 302 143.5 436.5t347.5 134.5q53 0 131.5 -14t130.5 -31l-65 -714q0 -1 -1 -10.5t-2 -25.5t-1 -32q0 -78 79 -78l-10 -133h-39q-140 0 -176 127q-95 -141 -282 -141q-138 0 -200.5 91.5t-62.5 270.5zM183 -369q0 101 57 166.5t154 65.5 q82 0 131.5 -51t49.5 -134q0 -4 -1 -12t-1 -12q-8 -93 -64.5 -151t-150.5 -58q-77 0 -126 53.5t-49 132.5zM300 -358q0 -86 68 -86q46 0 64 27t22 73v18q0 82 -70 82q-45 0 -64.5 -33.5t-19.5 -80.5zM324 334q0 -104 30 -152.5t99 -48.5q99 0 155 64t64 155l47 531 q-54 8 -111 8q-284 0 -284 -557z" />
<glyph unicode="&#x1e02;" horiz-adv-x="1048" d="M154 0l125 1434q190 14 323 14q170 0 266.5 -78.5t96.5 -241.5q0 -286 -193 -364q31 -11 58.5 -31t54.5 -52.5t43 -84.5t16 -117q0 -35 -4 -67q-11 -121 -43 -204t-88 -131.5t-130.5 -69.5t-178.5 -21q-76 0 -162.5 3.5t-135.5 6.5zM344 145q100 -10 186 -10 q46 0 80.5 11t67 40t53 87t27.5 145q4 50 4 65q0 102 -42 149.5t-138 47.5h-191zM403 827h170q30 0 52 3t51 16.5t49 37t36.5 68.5t22.5 107q4 50 4 67q0 93 -39 133.5t-135 40.5q-44 0 -86.5 -3t-63.5 -6l-20 -3zM578 1571l16 174h174l-16 -174h-174z" />
<glyph unicode="&#x1e03;" horiz-adv-x="1021" d="M143 10l125 1424h174l-45 -502q96 106 246 106q148 0 213.5 -90.5t65.5 -263.5q0 -69 -4 -106q-15 -170 -45 -279t-87.5 -181t-142.5 -102t-213 -30q-140 0 -287 24zM328 139q49 -6 137 -6q58 0 101 19.5t72.5 54.5t49.5 92t31.5 122.5t19.5 156.5q4 37 4 102 q0 109 -32.5 160t-108.5 51q-57 0 -101.5 -26t-70.5 -68.5t-40.5 -88.5t-18.5 -94zM552 1556l17 175h174l-17 -175h-174z" />
<glyph unicode="&#x1e04;" horiz-adv-x="1048" d="M154 0l125 1434q190 14 323 14q170 0 266.5 -78.5t96.5 -241.5q0 -286 -193 -364q31 -11 58.5 -31t54.5 -52.5t43 -84.5t16 -117q0 -35 -4 -67q-11 -121 -43 -204t-88 -131.5t-130.5 -69.5t-178.5 -21q-76 0 -162.5 3.5t-135.5 6.5zM344 145q100 -10 186 -10 q46 0 80.5 11t67 40t53 87t27.5 145q4 50 4 65q0 102 -42 149.5t-138 47.5h-191zM386 -311l17 174h174l-16 -174h-175zM403 827h170q30 0 52 3t51 16.5t49 37t36.5 68.5t22.5 107q4 50 4 67q0 93 -39 133.5t-135 40.5q-44 0 -86.5 -3t-63.5 -6l-20 -3z" />
<glyph unicode="&#x1e05;" horiz-adv-x="1021" d="M143 10l125 1424h174l-45 -502q96 106 246 106q148 0 213.5 -90.5t65.5 -263.5q0 -69 -4 -106q-15 -170 -45 -279t-87.5 -181t-142.5 -102t-213 -30q-140 0 -287 24zM317 -311l16 174h174l-16 -174h-174zM328 139q49 -6 137 -6q58 0 101 19.5t72.5 54.5t49.5 92 t31.5 122.5t19.5 156.5q4 37 4 102q0 109 -32.5 160t-108.5 51q-57 0 -101.5 -26t-70.5 -68.5t-40.5 -88.5t-18.5 -94z" />
<glyph unicode="&#x1e06;" horiz-adv-x="1048" d="M154 0l125 1434q190 14 323 14q170 0 266.5 -78.5t96.5 -241.5q0 -286 -193 -364q31 -11 58.5 -31t54.5 -52.5t43 -84.5t16 -117q0 -35 -4 -67q-11 -121 -43 -204t-88 -131.5t-130.5 -69.5t-178.5 -21q-76 0 -162.5 3.5t-135.5 6.5zM215 -281l14 144h522l-14 -144h-522z M344 145q100 -10 186 -10q46 0 80.5 11t67 40t53 87t27.5 145q4 50 4 65q0 102 -42 149.5t-138 47.5h-191zM403 827h170q30 0 52 3t51 16.5t49 37t36.5 68.5t22.5 107q4 50 4 67q0 93 -39 133.5t-135 40.5q-44 0 -86.5 -3t-63.5 -6l-20 -3z" />
<glyph unicode="&#x1e07;" horiz-adv-x="1021" d="M143 10l125 1424h174l-45 -502q96 106 246 106q148 0 213.5 -90.5t65.5 -263.5q0 -69 -4 -106q-15 -170 -45 -279t-87.5 -181t-142.5 -102t-213 -30q-140 0 -287 24zM145 -281l14 144h523l-15 -144h-522zM328 139q49 -6 137 -6q58 0 101 19.5t72.5 54.5t49.5 92 t31.5 122.5t19.5 156.5q4 37 4 102q0 109 -32.5 160t-108.5 51q-57 0 -101.5 -26t-70.5 -68.5t-40.5 -88.5t-18.5 -94z" />
<glyph unicode="&#x1e08;" horiz-adv-x="866" d="M164 485q0 110 12 254q16 182 43 306t64.5 204t96.5 123.5t127 59.5t169 16q38 0 105.5 -12t95.5 -21l-15 -151q-124 30 -235 30q-60 0 -99 -19.5t-74 -78.5t-58 -173.5t-40 -297.5q-14 -231 -14 -262q0 -82 8.5 -140.5t23 -94t39 -55.5t51 -27t64.5 -7q103 0 240 31 l-14 -150q-116 -31 -224 -34l-8 -41q85 -10 121.5 -44t36.5 -100q0 -106 -65 -158.5t-175 -52.5q-52 0 -129 15l13 127q60 -13 110 -13q46 0 67 14.5t21 55.5q0 29 -34 42t-126 13l37 154q-121 29 -178 140.5t-57 346.5zM599 1571l237 276h223l-284 -276h-176z" />
<glyph unicode="&#x1e09;" horiz-adv-x="827" d="M150 367q0 243 45.5 391.5t134 214t229.5 65.5q91 0 221 -32l-12 -154q-128 33 -236 33q-91 0 -135.5 -85t-64.5 -308q-6 -73 -6 -127q0 -71 9.5 -117t30 -69.5t44 -31.5t59.5 -8q24 0 49.5 2t43.5 4t42.5 6.5t36.5 7t36.5 8t31.5 7.5l-15 -154q-101 -28 -196 -34l-9 -41 q85 -10 121.5 -44t36.5 -100q0 -106 -64.5 -158.5t-174.5 -52.5q-52 0 -129 15l12 127q60 -13 110 -13q46 0 67 14.5t21 55.5q0 29 -34 42t-125 13l37 150q-112 18 -164.5 100.5t-52.5 272.5zM482 1161l237 277h224l-285 -277h-176z" />
<glyph unicode="&#x1e0a;" horiz-adv-x="1077" d="M154 0l125 1434q190 14 331 14q76 0 131.5 -11.5t106 -43.5t82 -87t49.5 -144.5t18 -213.5q0 -79 -10 -209q-16 -183 -43.5 -313t-65.5 -215.5t-94 -135t-121 -69.5t-155 -20q-71 0 -159.5 3.5t-141.5 6.5zM344 143q109 -8 195 -8q50 0 90 29.5t74.5 96.5t60 183.5 t39.5 280.5q12 138 12 233q0 83 -8.5 144.5t-23 98.5t-37 59t-47 30t-56.5 8l-199 -8zM587 1571l16 174h174l-16 -174h-174z" />
<glyph unicode="&#x1e0b;" horiz-adv-x="1032" d="M147 356q0 62 5 111q28 306 140.5 438.5t356.5 132.5q55 0 113 -10l37 406h174l-125 -1434h-143l-11 123q-107 -137 -276 -137q-138 0 -204.5 92t-66.5 278zM326 348q0 -109 32.5 -162t104.5 -53q56 0 102.5 25.5t75.5 67t45.5 88t20.5 94.5l43 475q-62 8 -136 8 q-72 0 -122.5 -28.5t-82.5 -88t-50 -137.5t-29 -191q-4 -70 -4 -98zM527 1556l17 175h174l-17 -175h-174z" />
<glyph unicode="&#x1e0c;" horiz-adv-x="1077" d="M154 0l125 1434q190 14 331 14q76 0 131.5 -11.5t106 -43.5t82 -87t49.5 -144.5t18 -213.5q0 -79 -10 -209q-16 -183 -43.5 -313t-65.5 -215.5t-94 -135t-121 -69.5t-155 -20q-71 0 -159.5 3.5t-141.5 6.5zM344 143q109 -8 195 -8q50 0 90 29.5t74.5 96.5t60 183.5 t39.5 280.5q12 138 12 233q0 83 -8.5 144.5t-23 98.5t-37 59t-47 30t-56.5 8l-199 -8zM395 -311l16 174h174l-16 -174h-174z" />
<glyph unicode="&#x1e0d;" horiz-adv-x="1032" d="M147 356q0 62 5 111q28 306 140.5 438.5t356.5 132.5q55 0 113 -10l37 406h174l-125 -1434h-143l-11 123q-107 -137 -276 -137q-138 0 -204.5 92t-66.5 278zM305 -311l16 174h174l-16 -174h-174zM326 348q0 -109 32.5 -162t104.5 -53q56 0 102.5 25.5t75.5 67t45.5 88 t20.5 94.5l43 475q-62 8 -136 8q-72 0 -122.5 -28.5t-82.5 -88t-50 -137.5t-29 -191q-4 -70 -4 -98z" />
<glyph unicode="&#x1e0e;" horiz-adv-x="1077" d="M154 0l125 1434q190 14 331 14q76 0 131.5 -11.5t106 -43.5t82 -87t49.5 -144.5t18 -213.5q0 -79 -10 -209q-16 -183 -43.5 -313t-65.5 -215.5t-94 -135t-121 -69.5t-155 -20q-71 0 -159.5 3.5t-141.5 6.5zM223 -281l14 144h523l-15 -144h-522zM344 143q109 -8 195 -8 q50 0 90 29.5t74.5 96.5t60 183.5t39.5 280.5q12 138 12 233q0 83 -8.5 144.5t-23 98.5t-37 59t-47 30t-56.5 8l-199 -8z" />
<glyph unicode="&#x1e0f;" horiz-adv-x="1032" d="M133 -281l14 144h522l-14 -144h-522zM147 356q0 62 5 111q28 306 140.5 438.5t356.5 132.5q55 0 113 -10l37 406h174l-125 -1434h-143l-11 123q-107 -137 -276 -137q-138 0 -204.5 92t-66.5 278zM326 348q0 -109 32.5 -162t104.5 -53q56 0 102.5 25.5t75.5 67t45.5 88 t20.5 94.5l43 475q-62 8 -136 8q-72 0 -122.5 -28.5t-82.5 -88t-50 -137.5t-29 -191q-4 -70 -4 -98z" />
<glyph unicode="&#x1e10;" horiz-adv-x="1077" d="M154 0l125 1434q190 14 331 14q76 0 131.5 -11.5t106 -43.5t82 -87t49.5 -144.5t18 -213.5q0 -79 -10 -209q-16 -178 -42 -306t-63 -213.5t-90 -136.5t-115.5 -73t-146.5 -24l-33 -141q85 -10 121.5 -43.5t36.5 -99.5q0 -106 -65 -158.5t-175 -52.5q-57 0 -129 14l12 127 q56 -12 111 -12q46 0 67 14.5t21 54.5q0 29 -34.5 42.5t-125.5 13.5l60 243zM344 143q109 -8 195 -8q50 0 90 30t74.5 96.5t60 183t39.5 280.5q12 138 12 233q0 83 -8.5 144.5t-23 98.5t-37 59t-47 30t-56.5 8l-199 -8z" />
<glyph unicode="&#x1e11;" horiz-adv-x="1032" d="M147 356q0 62 5 111q28 306 140.5 438.5t356.5 132.5q55 0 113 -10l37 406h174l-125 -1434h-143l-11 123q-103 -129 -254 -137l-33 -141q85 -10 121 -43.5t36 -99.5q0 -106 -64.5 -158.5t-174.5 -52.5q-57 0 -129 14l12 127q55 -12 111 -12q46 0 67 14.5t21 54.5 q0 29 -34.5 42.5t-125.5 13.5l63 258h2q-165 61 -165 353zM326 348q0 -109 32.5 -162t104.5 -53q56 0 102.5 25.5t75 67t45.5 88t21 94.5l43 475q-62 8 -136 8q-72 0 -122.5 -28.5t-82.5 -88t-50 -137.5t-29 -191q-4 -70 -4 -98z" />
<glyph unicode="&#x1e12;" horiz-adv-x="1077" d="M153 -414l254 277h180l207 -277h-199l-106 172l-139 -172h-197zM154 0l125 1434q190 14 331 14q76 0 131.5 -11.5t106 -43.5t82 -87t49.5 -144.5t18 -213.5q0 -79 -10 -209q-16 -183 -43.5 -313t-65.5 -215.5t-94 -135t-121 -69.5t-155 -20q-71 0 -159.5 3.5t-141.5 6.5z M344 143q109 -8 195 -8q50 0 90 29.5t74.5 96.5t60 183.5t39.5 280.5q12 138 12 233q0 83 -8.5 144.5t-23 98.5t-37 59t-47 30t-56.5 8l-199 -8z" />
<glyph unicode="&#x1e13;" horiz-adv-x="1032" d="M63 -414l254 277h180l207 -277h-199l-106 172l-140 -172h-196zM147 356q0 62 5 111q28 306 140.5 438.5t356.5 132.5q55 0 113 -10l37 406h174l-125 -1434h-143l-11 123q-107 -137 -276 -137q-138 0 -204.5 92t-66.5 278zM326 348q0 -109 32.5 -162t104.5 -53 q56 0 102.5 25.5t75.5 67t45.5 88t20.5 94.5l43 475q-62 8 -136 8q-72 0 -122.5 -28.5t-82.5 -88t-50 -137.5t-29 -191q-4 -70 -4 -98z" />
<glyph unicode="&#x1e14;" horiz-adv-x="958" d="M154 0l125 1434h671l-14 -150h-494l-41 -469h443l-13 -149h-442l-45 -516h494l-13 -150h-671zM317 2114h223l188 -277h-155zM364 1571l15 143h522l-14 -143h-523z" />
<glyph unicode="&#x1e15;" horiz-adv-x="933" d="M150 367q0 182 27.5 312.5t81.5 208.5t128.5 114t173.5 36q83 0 145.5 -23.5t97.5 -64t51.5 -88.5t16.5 -104q0 -175 -104.5 -257.5t-294.5 -82.5q-75 0 -151 8v-74q0 -54 8.5 -94.5t22.5 -64t34.5 -37.5t40.5 -18.5t45 -4.5q38 0 72.5 2t67 7t51.5 8t50 10t38 8 l-15 -148q-50 -14 -125.5 -24t-130.5 -10q-63 0 -109.5 8.5t-90.5 32.5t-71 65.5t-43.5 110.5t-16.5 164zM262 1704h224l188 -277h-156zM310 1161l14 144h522l-14 -144h-522zM332 567q61 -6 110 -6q143 0 205 44t62 145q0 67 -32 105t-118 38q-96 0 -152 -74t-75 -252z" />
<glyph unicode="&#x1e16;" horiz-adv-x="958" d="M154 0l125 1434h671l-14 -150h-494l-41 -469h443l-13 -149h-442l-45 -516h494l-13 -150h-671zM364 1571l15 143h522l-14 -143h-523zM563 1837l237 277h223l-284 -277h-176z" />
<glyph unicode="&#x1e17;" horiz-adv-x="933" d="M150 367q0 182 27.5 312.5t81.5 208.5t128.5 114t173.5 36q83 0 145.5 -23.5t97.5 -64t51.5 -88.5t16.5 -104q0 -175 -104.5 -257.5t-294.5 -82.5q-75 0 -151 8v-74q0 -54 8.5 -94.5t22.5 -64t34.5 -37.5t40.5 -18.5t45 -4.5q38 0 72.5 2t67 7t51.5 8t50 10t38 8 l-15 -148q-50 -14 -125.5 -24t-130.5 -10q-63 0 -109.5 8.5t-90.5 32.5t-71 65.5t-43.5 110.5t-16.5 164zM310 1161l14 144h522l-14 -144h-522zM332 567q61 -6 110 -6q143 0 205 44t62 145q0 67 -32 105t-118 38q-96 0 -152 -74t-75 -252zM508 1427l238 277h223l-285 -277 h-176z" />
<glyph unicode="&#x1e18;" horiz-adv-x="958" d="M135 -399l253 276h181l207 -276h-199l-107 172l-139 -172h-196zM154 0l125 1434h671l-14 -150h-494l-41 -469h443l-13 -149h-442l-45 -516h494l-13 -150h-671z" />
<glyph unicode="&#x1e19;" horiz-adv-x="933" d="M126 -414l254 277h181l206 -277h-198l-107 172l-139 -172h-197zM150 367q0 182 27.5 312.5t81.5 208.5t128.5 114t173.5 36q83 0 145.5 -23.5t97.5 -64t51.5 -88.5t16.5 -104q0 -175 -104.5 -257.5t-294.5 -82.5q-75 0 -151 8v-74q0 -54 8.5 -94.5t22.5 -64t34.5 -37.5 t40.5 -18.5t45 -4.5q38 0 72.5 2t67 7t51.5 8t50 10t38 8l-15 -148q-50 -14 -125.5 -24t-130.5 -10q-63 0 -109.5 8.5t-90.5 32.5t-71 65.5t-43.5 110.5t-16.5 164zM332 567q61 -6 110 -6q143 0 205 44t62 145q0 67 -32 105t-118 38q-96 0 -152 -74t-75 -252z" />
<glyph unicode="&#x1e1a;" horiz-adv-x="958" d="M154 0l125 1434h671l-14 -150h-494l-41 -469h443l-13 -149h-442l-45 -516h494l-13 -150h-671zM173 -340l14 150q87 67 183 67q50 0 118.5 -40t106.5 -40q50 0 86 17t84 57l-12 -150q-75 -67 -183 -67q-43 0 -81 20t-73 40t-71 20q-83 0 -172 -74z" />
<glyph unicode="&#x1e1b;" horiz-adv-x="933" d="M150 367q0 182 27.5 312.5t81.5 208.5t128.5 114t173.5 36q83 0 145.5 -23.5t97.5 -64t51.5 -88.5t16.5 -104q0 -175 -104.5 -257.5t-294.5 -82.5q-75 0 -151 8v-74q0 -54 8.5 -94.5t22.5 -64t34.5 -37.5t40.5 -18.5t45 -4.5q38 0 72.5 2t67 7t51.5 8t50 10t38 8 l-15 -148q-50 -14 -125.5 -24t-130.5 -10q-63 0 -109.5 8.5t-90.5 32.5t-71 65.5t-43.5 110.5t-16.5 164zM165 -354l14 149q88 68 182 68q50 0 119 -40t107 -40q50 0 86 17t84 57l-13 -150q-75 -67 -182 -67q-43 0 -81 20t-73 39.5t-71 19.5q-84 0 -172 -73zM332 567 q61 -6 110 -6q143 0 205 44t62 145q0 67 -32 105t-118 38q-96 0 -152 -74t-75 -252z" />
<glyph unicode="&#x1e1c;" horiz-adv-x="958" d="M154 0l125 1434h671l-14 -150h-494l-41 -469h443l-13 -149h-442l-45 -516h494l-13 -150h-314l-33 -141q85 -10 121.5 -43.5t36.5 -99.5q0 -106 -65 -158.5t-175 -52.5q-57 0 -129 14l13 127q55 -12 110 -12q46 0 67 14.5t21 55.5q0 29 -34 42t-125 13l59 241h-224z M359 1837h168q0 -141 110 -141q64 0 94.5 37.5t42.5 103.5h166q-11 -44 -20.5 -72t-33.5 -69t-54.5 -65t-83.5 -42t-121 -18q-71 0 -124 25t-82 66.5t-44 84.5t-18 90z" />
<glyph unicode="&#x1e1d;" horiz-adv-x="933" d="M150 367q0 182 27.5 312.5t81.5 208.5t128.5 114t173.5 36q83 0 145.5 -23.5t97.5 -64t51.5 -88.5t16.5 -104q0 -175 -104.5 -257.5t-294.5 -82.5q-75 0 -151 8v-74q0 -54 8.5 -94.5t22.5 -64t34.5 -37.5t40.5 -18.5t45 -4.5q38 0 72.5 2t67 7t51.5 8t50 10t38 8 l-15 -148q-99 -28 -234 -34l-33 -141q85 -10 121.5 -43.5t36.5 -99.5q0 -106 -65 -158.5t-175 -52.5q-57 0 -129 14l13 127q56 -12 110 -12q46 0 67 14.5t21 54.5q0 29 -34.5 42.5t-125.5 13.5l62 249q-109 20 -165.5 104.5t-56.5 268.5zM304 1427h168q0 -141 111 -141 q64 0 94.5 37.5t42.5 103.5h166q-11 -44 -20.5 -72t-33.5 -69t-54.5 -65t-83.5 -42t-121 -18q-57 0 -103.5 17t-75.5 44t-49 63t-29 70.5t-12 71.5zM332 567q61 -6 110 -6q143 0 205 44t62 145q0 67 -32 105t-118 38q-96 0 -152 -74t-75 -252z" />
<glyph unicode="&#x1e1e;" horiz-adv-x="937" d="M154 0l125 1434h671l-14 -150h-494l-43 -489h443l-13 -150h-442l-55 -645h-178zM539 1571l16 174h174l-16 -174h-174z" />
<glyph unicode="&#x1e1f;" horiz-adv-x="626" d="M-123 -348l12 145q86 -8 148 -8q51 0 82 29.5t35 83.5l86 972h-134l13 150h133l14 160q24 264 283 264q78 0 190 -23l-12 -147q-90 22 -164 22q-54 0 -85 -28t-36 -74l-16 -174h248l-12 -150h-248l-84 -962q-21 -270 -279 -270q-86 0 -174 10zM472 1571l16 174h174 l-16 -174h-174z" />
<glyph unicode="&#x1e20;" horiz-adv-x="1013" d="M164 485q0 110 12 254q16 181 45 305.5t69.5 204.5t104.5 123.5t137 59.5t181 16q87 0 227 -33l-12 -147q-161 30 -264 30q-56 0 -95 -12t-75 -47t-60.5 -98.5t-44.5 -165.5t-33 -250q-14 -231 -14 -266q0 -102 12 -167t39 -99t60.5 -46t85.5 -12q62 0 161 15l41 454 h-182l14 150h353l-66 -734q-185 -34 -323 -34q-99 0 -165.5 22.5t-115 78t-70.5 153t-22 245.5zM461 1571l15 143h522l-14 -143h-523z" />
<glyph unicode="&#x1e21;" horiz-adv-x="1032" d="M147 365q0 61 5 112q28 303 142 432t355 129q125 0 285 -45l-82 -911q-9 -105 -24.5 -179.5t-41 -126.5t-55.5 -83t-77.5 -48t-96.5 -22.5t-123 -5.5q-92 0 -233 29l14 151q147 -30 242 -30q55 0 89 9t63 37.5t44.5 83.5t22.5 144l6 80q-100 -115 -264 -115 q-140 0 -205.5 87.5t-65.5 271.5zM326 360q0 -107 32 -156.5t105 -49.5q58 0 105 24.5t75.5 64t45 83.5t20.5 90l41 465q-78 10 -136 10q-72 0 -122.5 -27t-82.5 -84.5t-50 -133.5t-29 -189q-4 -70 -4 -97zM398 1161l14 144h523l-15 -144h-522z" />
<glyph unicode="&#x1e22;" horiz-adv-x="1126" d="M154 0l125 1434h178l-56 -623h422l56 623h178l-125 -1434h-178l57 659h-422l-57 -659h-178zM592 1571l16 174h174l-16 -174h-174z" />
<glyph unicode="&#x1e23;" horiz-adv-x="1036" d="M143 0l125 1434h174l-43 -502q92 106 244 106q153 0 216 -74t63 -221q0 -26 -4 -88l-56 -655h-174l55 655q7 70 7 78q0 76 -34 117t-118 41q-55 0 -98.5 -26t-69.5 -69.5t-40.5 -91t-18.5 -98.5l-54 -606h-174zM550 1556l17 175h174l-17 -175h-174z" />
<glyph unicode="&#x1e24;" horiz-adv-x="1126" d="M154 0l125 1434h178l-56 -623h422l56 623h178l-125 -1434h-178l57 659h-422l-57 -659h-178zM429 -297l17 174h174l-16 -174h-175z" />
<glyph unicode="&#x1e25;" horiz-adv-x="1036" d="M143 0l125 1434h174l-43 -502q92 106 244 106q153 0 216 -74t63 -221q0 -26 -4 -88l-56 -655h-174l55 655q7 70 7 78q0 76 -34 117t-118 41q-55 0 -98.5 -26t-69.5 -69.5t-40.5 -91t-18.5 -98.5l-54 -606h-174zM390 -297l16 174h174l-16 -174h-174z" />
<glyph unicode="&#x1e26;" horiz-adv-x="1126" d="M154 0l125 1434h178l-56 -623h422l56 623h178l-125 -1434h-178l57 659h-422l-57 -659h-178zM388 1571l14 164h174l-14 -164h-174zM797 1571l15 164h174l-15 -164h-174z" />
<glyph unicode="&#x1e27;" horiz-adv-x="1036" d="M143 0l125 1434h174l-43 -502q92 106 244 106q153 0 216 -74t63 -221q0 -26 -4 -88l-56 -655h-174l55 655q7 70 7 78q0 76 -34 117t-118 41q-55 0 -98.5 -26t-69.5 -69.5t-40.5 -91t-18.5 -98.5l-54 -606h-174zM346 1556l14 164h174l-14 -164h-174zM756 1556l14 164h174 l-14 -164h-174z" />
<glyph unicode="&#x1e28;" horiz-adv-x="1126" d="M154 0l125 1434h178l-56 -623h422l56 623h178l-125 -1434h-178l57 659h-422l-57 -659h-178zM254 -481l12 127q56 -12 111 -12q46 0 67 14.5t21 55.5q0 29 -34 42t-126 13l64 258h133l-37 -158q85 -10 121.5 -43.5t36.5 -99.5q0 -106 -65 -158.5t-175 -52.5q-57 0 -129 14 z" />
<glyph unicode="&#x1e29;" horiz-adv-x="1036" d="M143 0l125 1434h174l-43 -502q92 106 244 106q153 0 216 -74t63 -221q0 -26 -4 -88l-56 -655h-174l55 655q7 70 7 78q0 76 -34 117t-118 41q-55 0 -98.5 -26t-69.5 -69.5t-40.5 -91t-18.5 -98.5l-54 -606h-174zM214 -481l13 127q56 -12 110 -12q46 0 67 14.5t21 55.5 q0 29 -34 42t-126 13l64 258h133l-37 -158q85 -10 121.5 -43.5t36.5 -99.5q0 -106 -65 -158.5t-175 -52.5q-57 0 -129 14z" />
<glyph unicode="&#x1e2a;" horiz-adv-x="1126" d="M154 0l125 1434h178l-56 -623h422l56 623h178l-125 -1434h-178l57 659h-422l-57 -659h-178zM241 -123h168q0 -141 111 -141q64 0 94.5 37.5t42.5 103.5h166q-11 -44 -20.5 -72t-33.5 -69t-54.5 -65t-83.5 -42t-121 -18q-57 0 -103.5 17t-75.5 44t-49 63t-29 70.5 t-12 71.5z" />
<glyph unicode="&#x1e2b;" horiz-adv-x="1036" d="M143 0l125 1434h174l-43 -502q92 106 244 106q153 0 216 -74t63 -221q0 -26 -4 -88l-56 -655h-174l55 655q7 70 7 78q0 76 -34 117t-118 41q-55 0 -98.5 -26t-69.5 -69.5t-40.5 -91t-18.5 -98.5l-54 -606h-174zM201 -123h168q0 -141 111 -141q64 0 94.5 37.5t42.5 103.5 h166q-11 -44 -20.5 -72t-33.5 -69t-54.5 -65t-83.5 -42t-121 -18q-57 0 -103.5 17t-75.5 44t-49 63t-29 70.5t-12 71.5z" />
<glyph unicode="&#x1e2c;" horiz-adv-x="649" d="M-12 -340l14 150q87 67 182 67q50 0 119 -40t107 -40q50 0 86 17t84 57l-13 -150q-75 -67 -182 -67q-43 0 -81 20t-73 40t-71 20q-83 0 -172 -74zM72 0l12 150h143l99 1134h-144l15 150h465l-15 -150h-143l-98 -1134h143l-12 -150h-465z" />
<glyph unicode="&#x1e2d;" horiz-adv-x="501" d="M-86 -340l14 150q87 67 183 67q50 0 118.5 -40t106.5 -40q50 0 86 17t84 57l-12 -150q-75 -67 -183 -67q-43 0 -81 20t-73 40t-71 20q-83 0 -172 -74zM143 0l88 1024h175l-89 -1024h-174zM242 1249l16 185h195l-17 -185h-194z" />
<glyph unicode="&#x1e2e;" horiz-adv-x="649" d="M72 0l12 150h143l99 1134h-144l15 150h465l-15 -150h-143l-98 -1134h143l-12 -150h-465zM145 1505l15 164h174l-15 -164h-174zM374 1792l238 276h223l-285 -276h-176zM555 1505l14 164h174l-14 -164h-174z" />
<glyph unicode="&#x1e2f;" horiz-adv-x="501" d="M45 1219l14 163h174l-14 -163h-174zM143 0l88 1024h175l-89 -1024h-174zM274 1505l238 277h223l-285 -277h-176zM455 1219l14 163h174l-14 -163h-174z" />
<glyph unicode="&#x1e30;" horiz-adv-x="1007" d="M154 0l125 1434h178l-56 -629l439 629h190l-444 -627l340 -807h-197l-266 657l-86 -122l-45 -535h-178zM578 1571l238 276h223l-285 -276h-176z" />
<glyph unicode="&#x1e31;" horiz-adv-x="950" d="M143 0l125 1434h174l-67 -762l334 352h223l-381 -395l307 -629h-199l-237 508l-68 -70l-37 -438h-174zM278 1556l238 277h223l-285 -277h-176z" />
<glyph unicode="&#x1e32;" horiz-adv-x="1007" d="M154 0l125 1434h178l-56 -629l439 629h190l-444 -627l340 -807h-197l-266 657l-86 -122l-45 -535h-178zM426 -297l17 174h174l-17 -174h-174z" />
<glyph unicode="&#x1e33;" horiz-adv-x="950" d="M143 0l125 1434h174l-67 -762l334 352h223l-381 -395l307 -629h-199l-237 508l-68 -70l-37 -438h-174zM387 -297l17 174h174l-16 -174h-175z" />
<glyph unicode="&#x1e34;" horiz-adv-x="1007" d="M154 0l125 1434h178l-56 -629l439 629h190l-444 -627l340 -807h-197l-266 657l-86 -122l-45 -535h-178zM255 -266l14 143h522l-14 -143h-522z" />
<glyph unicode="&#x1e35;" horiz-adv-x="950" d="M143 0l125 1434h174l-67 -762l334 352h223l-381 -395l307 -629h-199l-237 508l-68 -70l-37 -438h-174zM216 -266l14 143h522l-14 -143h-522z" />
<glyph unicode="&#x1e36;" horiz-adv-x="839" d="M154 0l125 1434h178l-113 -1278h457l-13 -156h-634zM358 -297l16 174h174l-16 -174h-174z" />
<glyph unicode="&#x1e37;" horiz-adv-x="552" d="M160 184q0 34 4 66l104 1184h174l-100 -1153l-2.5 -27.5t-2.5 -28t-1 -14.5q0 -37 13.5 -52.5t47.5 -15.5q10 0 21.5 2t22 5.5t12.5 3.5l-13 -144q-77 -16 -125 -16q-68 0 -111.5 43.5t-43.5 146.5zM202 -303l17 174h174l-17 -174h-174z" />
<glyph unicode="&#x1e38;" horiz-adv-x="839" d="M118 1571l14 143h522l-14 -143h-522zM154 0l125 1434h178l-113 -1278h457l-13 -156h-634zM358 -297l16 174h174l-16 -174h-174z" />
<glyph unicode="&#x1e39;" horiz-adv-x="552" d="M104 1556l14 144h523l-15 -144h-522zM160 184q0 34 4 66l104 1184h174l-100 -1153l-2.5 -27.5t-2.5 -28t-1 -14.5q0 -37 13.5 -52.5t47.5 -15.5q10 0 21.5 2t22 5.5t12.5 3.5l-13 -144q-77 -16 -125 -16q-68 0 -111.5 43.5t-43.5 146.5zM202 -303l17 174h174l-17 -174 h-174z" />
<glyph unicode="&#x1e3a;" horiz-adv-x="839" d="M154 0l125 1434h178l-113 -1278h457l-13 -156h-634zM186 -266l14 143h523l-15 -143h-522z" />
<glyph unicode="&#x1e3b;" horiz-adv-x="552" d="M30 -272l15 143h522l-14 -143h-523zM160 184q0 34 4 66l104 1184h174l-100 -1153l-2.5 -27.5t-2.5 -28t-1 -14.5q0 -37 13.5 -52.5t47.5 -15.5q10 0 21.5 2t22 5.5t12.5 3.5l-13 -144q-77 -16 -125 -16q-68 0 -111.5 43.5t-43.5 146.5z" />
<glyph unicode="&#x1e3c;" horiz-adv-x="839" d="M116 -399l254 276h180l207 -276h-199l-106 172l-139 -172h-197zM154 0l125 1434h178l-113 -1278h457l-13 -156h-634z" />
<glyph unicode="&#x1e3d;" horiz-adv-x="552" d="M-40 -406l254 277h181l206 -277h-198l-107 173l-139 -173h-197zM160 184q0 34 4 66l104 1184h174l-100 -1153l-2.5 -27.5t-2.5 -28t-1 -14.5q0 -37 13.5 -52.5t47.5 -15.5q10 0 21.5 2t22 5.5t12.5 3.5l-13 -144q-77 -16 -125 -16q-68 0 -111.5 43.5t-43.5 146.5z" />
<glyph unicode="&#x1e3e;" horiz-adv-x="1290" d="M154 0l125 1434h288l121 -734l254 734h279l-125 -1434h-166l110 1286l-292 -805h-170l-150 805l-111 -1286h-163zM674 1571l237 276h223l-284 -276h-176z" />
<glyph unicode="&#x1e3f;" horiz-adv-x="1495" d="M143 0l88 1024h144l2 -111q88 125 246 125q189 0 237 -137q43 68 106 102.5t158 34.5q144 0 201 -71t57 -215q0 -50 -6 -117l-53 -635h-174l55 655q6 75 6 93q0 70 -28.5 106.5t-102.5 36.5q-54 0 -94.5 -25.5t-63 -69t-34 -88t-15.5 -96.5l-51 -612h-174l55 655 q7 87 7 93q0 70 -28.5 106.5t-102.5 36.5q-55 0 -95.5 -26t-63.5 -70.5t-34.5 -90t-15.5 -98.5l-52 -606h-174zM796 1161l238 277h223l-285 -277h-176z" />
<glyph unicode="&#x1e40;" horiz-adv-x="1290" d="M154 0l125 1434h288l121 -734l254 734h279l-125 -1434h-166l110 1286l-292 -805h-170l-150 805l-111 -1286h-163zM674 1571l16 174h174l-16 -174h-174z" />
<glyph unicode="&#x1e41;" horiz-adv-x="1495" d="M143 0l88 1024h144l2 -111q88 125 246 125q189 0 237 -137q43 68 106 102.5t158 34.5q144 0 201 -71t57 -215q0 -50 -6 -117l-53 -635h-174l55 655q6 75 6 93q0 70 -28.5 106.5t-102.5 36.5q-54 0 -94.5 -25.5t-63 -69t-34 -88t-15.5 -96.5l-51 -612h-174l55 655 q7 87 7 93q0 70 -28.5 106.5t-102.5 36.5q-55 0 -95.5 -26t-63.5 -70.5t-34.5 -90t-15.5 -98.5l-52 -606h-174zM797 1161l16 174h174l-16 -174h-174z" />
<glyph unicode="&#x1e42;" horiz-adv-x="1290" d="M154 0l125 1434h288l121 -734l254 734h279l-125 -1434h-166l110 1286l-292 -805h-170l-150 805l-111 -1286h-163zM511 -297l17 174h174l-17 -174h-174z" />
<glyph unicode="&#x1e43;" horiz-adv-x="1495" d="M143 0l88 1024h144l2 -111q88 125 246 125q189 0 237 -137q43 68 106 102.5t158 34.5q144 0 201 -71t57 -215q0 -50 -6 -117l-53 -635h-174l55 655q6 75 6 93q0 70 -28.5 106.5t-102.5 36.5q-54 0 -94.5 -25.5t-63 -69t-34 -88t-15.5 -96.5l-51 -612h-174l55 655 q7 87 7 93q0 70 -28.5 106.5t-102.5 36.5q-55 0 -95.5 -26t-63.5 -70.5t-34.5 -90t-15.5 -98.5l-52 -606h-174zM620 -297l16 174h174l-16 -174h-174z" />
<glyph unicode="&#x1e44;" horiz-adv-x="1120" d="M154 0l125 1434h290l203 -1282l113 1282h166l-125 -1434h-293l-203 1282l-111 -1282h-165zM589 1571l16 174h174l-16 -174h-174z" />
<glyph unicode="&#x1e45;" horiz-adv-x="1036" d="M143 0l88 1024h144l2 -119q96 133 266 133q153 0 216 -74t63 -221q0 -26 -4 -88l-56 -655h-174l55 655q7 70 7 78q0 76 -34 117t-118 41q-55 0 -99 -26t-70 -69.5t-41 -91t-19 -98.5l-52 -606h-174zM516 1161l16 174h174l-16 -174h-174z" />
<glyph unicode="&#x1e46;" horiz-adv-x="1120" d="M154 0l125 1434h290l203 -1282l113 1282h166l-125 -1434h-293l-203 1282l-111 -1282h-165zM426 -297l17 174h174l-17 -174h-174z" />
<glyph unicode="&#x1e47;" horiz-adv-x="1036" d="M143 0l88 1024h144l2 -119q96 133 266 133q153 0 216 -74t63 -221q0 -26 -4 -88l-56 -655h-174l55 655q7 70 7 78q0 76 -34 117t-118 41q-55 0 -99 -26t-70 -69.5t-41 -91t-19 -98.5l-52 -606h-174zM390 -297l16 174h174l-16 -174h-174z" />
<glyph unicode="&#x1e48;" horiz-adv-x="1120" d="M154 0l125 1434h290l203 -1282l113 1282h166l-125 -1434h-293l-203 1282l-111 -1282h-165zM255 -266l14 143h522l-14 -143h-522z" />
<glyph unicode="&#x1e49;" horiz-adv-x="1036" d="M143 0l88 1024h144l2 -119q96 133 266 133q153 0 216 -74t63 -221q0 -26 -4 -88l-56 -655h-174l55 655q7 70 7 78q0 76 -34 117t-118 41q-55 0 -99 -26t-70 -69.5t-41 -91t-19 -98.5l-52 -606h-174zM218 -266l14 143h522l-14 -143h-522z" />
<glyph unicode="&#x1e4a;" horiz-adv-x="1120" d="M154 0l125 1434h290l203 -1282l113 1282h166l-125 -1434h-293l-203 1282l-111 -1282h-165zM185 -399l254 276h180l207 -276h-199l-106 172l-140 -172h-196z" />
<glyph unicode="&#x1e4b;" horiz-adv-x="1036" d="M143 0l88 1024h144l2 -119q96 133 266 133q153 0 216 -74t63 -221q0 -26 -4 -88l-56 -655h-174l55 655q7 70 7 78q0 76 -34 117t-118 41q-55 0 -99 -26t-70 -69.5t-41 -91t-19 -98.5l-52 -606h-174zM148 -399l254 276h180l207 -276h-199l-106 172l-140 -172h-196z" />
<glyph unicode="&#x1e4c;" horiz-adv-x="1122" d="M166 535q0 53 10 198q13 152 33 260t56 198.5t89 144.5t130.5 83t181.5 29q204 0 290 -121.5t86 -382.5q0 -84 -10 -211q-14 -159 -35 -271.5t-57 -207t-89 -151t-130.5 -87t-181.5 -30.5q-206 0 -289.5 132t-83.5 417zM344 487q0 -191 48.5 -271.5t158.5 -80.5 q94 0 151.5 56t92 182.5t53.5 349.5q14 168 14 246q0 184 -48.5 256.5t-160.5 72.5q-94 0 -150 -50t-91 -174t-56 -351q-12 -210 -12 -236zM391 1503l15 150q87 67 182 67q50 0 118.5 -40t106.5 -40q50 0 86 17t84 57l-12 -149q-76 -68 -183 -68q-43 0 -81 20t-73 40t-71 20 q-83 0 -172 -74zM511 1843l237 277h223l-284 -277h-176z" />
<glyph unicode="&#x1e4d;" horiz-adv-x="1044" d="M152 401q0 331 104.5 484t335.5 153q348 0 348 -391q0 -343 -104.5 -502t-335.5 -159q-85 0 -146.5 19.5t-108.5 66t-70 128.5t-23 201zM328 389q0 -138 43.5 -199t140.5 -61q115 0 171 86t73 287q6 80 6 141q0 138 -41 195t-141 57q-122 0 -174.5 -86t-71.5 -307 q-6 -61 -6 -113zM330 1217l14 149q88 68 182 68q50 0 119 -40t107 -40q50 0 86 17t84 56l-13 -149q-76 -68 -182 -68q-43 0 -81 20t-73 40t-71 20q-84 0 -172 -73zM449 1556l238 277h223l-285 -277h-176z" />
<glyph unicode="&#x1e4e;" horiz-adv-x="1122" d="M166 535q0 53 10 198q13 152 33 260t56 198.5t89 144.5t130.5 83t181.5 29q204 0 290 -121.5t86 -382.5q0 -84 -10 -211q-14 -159 -35 -271.5t-57 -207t-89 -151t-130.5 -87t-181.5 -30.5q-206 0 -289.5 132t-83.5 417zM307 1843l14 164h174l-14 -164h-174zM344 487 q0 -191 48.5 -271.5t158.5 -80.5q94 0 151.5 56t92 182.5t53.5 349.5q14 168 14 246q0 184 -48.5 256.5t-160.5 72.5q-94 0 -150 -50t-91 -174t-56 -351q-12 -210 -12 -236zM391 1503l15 150q87 67 182 67q50 0 118.5 -40t106.5 -40q50 0 86 17t84 57l-12 -149 q-76 -68 -183 -68q-43 0 -81 20t-73 40t-71 20q-83 0 -172 -74zM716 1843l15 164h174l-15 -164h-174z" />
<glyph unicode="&#x1e4f;" horiz-adv-x="1044" d="M152 401q0 331 104.5 484t335.5 153q348 0 348 -391q0 -343 -104.5 -502t-335.5 -159q-85 0 -146.5 19.5t-108.5 66t-70 128.5t-23 201zM245 1556l15 164h174l-15 -164h-174zM328 389q0 -138 43.5 -199t140.5 -61q115 0 171 86t73 287q6 80 6 141q0 138 -41 195t-141 57 q-122 0 -174.5 -86t-71.5 -307q-6 -61 -6 -113zM330 1217l14 149q88 68 182 68q50 0 119 -40t107 -40q50 0 86 17t84 56l-13 -149q-76 -68 -182 -68q-43 0 -81 20t-73 40t-71 20q-84 0 -172 -73zM655 1556l14 164h174l-14 -164h-174z" />
<glyph unicode="&#x1e50;" horiz-adv-x="1122" d="M166 535q0 53 10 198q13 152 33 260t56 198.5t89 144.5t130.5 83t181.5 29q204 0 290 -121.5t86 -382.5q0 -84 -10 -211q-14 -159 -35 -271.5t-57 -207t-89 -151t-130.5 -87t-181.5 -30.5q-206 0 -289.5 132t-83.5 417zM344 487q0 -191 48.5 -271.5t158.5 -80.5 q94 0 151.5 56t92 182.5t53.5 349.5q14 168 14 246q0 184 -48.5 256.5t-160.5 72.5q-94 0 -150 -50t-91 -174t-56 -351q-12 -210 -12 -236zM367 2114h223l188 -277h-155zM414 1571l15 143h522l-14 -143h-523z" />
<glyph unicode="&#x1e51;" horiz-adv-x="1044" d="M152 401q0 331 104.5 484t335.5 153q348 0 348 -391q0 -343 -104.5 -502t-335.5 -159q-85 0 -146.5 19.5t-108.5 66t-70 128.5t-23 201zM293 1704h223l189 -277h-156zM328 389q0 -138 43.5 -199t140.5 -61q115 0 171 86t73 287q6 80 6 141q0 138 -41 195t-141 57 q-122 0 -174.5 -86t-71.5 -307q-6 -61 -6 -113zM341 1161l14 144h522l-14 -144h-522z" />
<glyph unicode="&#x1e52;" horiz-adv-x="1122" d="M166 535q0 53 10 198q13 152 33 260t56 198.5t89 144.5t130.5 83t181.5 29q204 0 290 -121.5t86 -382.5q0 -84 -10 -211q-14 -159 -35 -271.5t-57 -207t-89 -151t-130.5 -87t-181.5 -30.5q-206 0 -289.5 132t-83.5 417zM344 487q0 -191 48.5 -271.5t158.5 -80.5 q94 0 151.5 56t92 182.5t53.5 349.5q14 168 14 246q0 184 -48.5 256.5t-160.5 72.5q-94 0 -150 -50t-91 -174t-56 -351q-12 -210 -12 -236zM414 1571l15 143h522l-14 -143h-523zM613 1837l237 277h223l-284 -277h-176z" />
<glyph unicode="&#x1e53;" horiz-adv-x="1044" d="M152 401q0 331 104.5 484t335.5 153q348 0 348 -391q0 -343 -104.5 -502t-335.5 -159q-85 0 -146.5 19.5t-108.5 66t-70 128.5t-23 201zM328 389q0 -138 43.5 -199t140.5 -61q115 0 171 86t73 287q6 80 6 141q0 138 -41 195t-141 57q-122 0 -174.5 -86t-71.5 -307 q-6 -61 -6 -113zM341 1161l14 144h522l-14 -144h-522zM539 1427l237 277h224l-285 -277h-176z" />
<glyph unicode="&#x1e54;" horiz-adv-x="1024" d="M154 0l125 1434q176 14 346 14q191 0 279.5 -97t88.5 -268q0 -21 -6 -96q-19 -221 -119 -323.5t-317 -102.5h-172l-47 -561h-178zM393 711h193q94 0 150 65t69 223q4 62 4 84q0 112 -40 164.5t-132 52.5q-50 0 -98.5 -3t-71.5 -6l-23 -3zM547 1571l238 276h223l-284 -276 h-177z" />
<glyph unicode="&#x1e55;" horiz-adv-x="1021" d="M113 -348l118 1372h144l4 -115q99 129 264 129q148 0 213.5 -90.5t65.5 -263.5q0 -62 -7 -127q-14 -161 -44 -266t-86.5 -175.5t-142 -100t-212.5 -29.5q-41 0 -115 8l-28 -342h-174zM328 139q46 -6 137 -6q133 0 192.5 100.5t79.5 323.5q6 56 6 123q0 109 -32.5 160 t-108.5 51q-52 0 -93.5 -23t-66 -57t-42 -80.5t-25 -85.5t-10.5 -80zM566 1161l237 277h224l-285 -277h-176z" />
<glyph unicode="&#x1e56;" horiz-adv-x="1024" d="M154 0l125 1434q176 14 346 14q191 0 279.5 -97t88.5 -268q0 -21 -6 -96q-19 -221 -119 -323.5t-317 -102.5h-172l-47 -561h-178zM393 711h193q94 0 150 65t69 223q4 62 4 84q0 112 -40 164.5t-132 52.5q-50 0 -98.5 -3t-71.5 -6l-23 -3zM548 1571l16 174h174l-16 -174 h-174z" />
<glyph unicode="&#x1e57;" horiz-adv-x="1021" d="M113 -348l118 1372h144l4 -115q99 129 264 129q148 0 213.5 -90.5t65.5 -263.5q0 -62 -7 -127q-14 -161 -44 -266t-86.5 -175.5t-142 -100t-212.5 -29.5q-41 0 -115 8l-28 -342h-174zM328 139q46 -6 137 -6q133 0 192.5 100.5t79.5 323.5q6 56 6 123q0 109 -32.5 160 t-108.5 51q-52 0 -93.5 -23t-66 -57t-42 -80.5t-25 -85.5t-10.5 -80zM566 1161l17 174h174l-17 -174h-174z" />
<glyph unicode="&#x1e58;" horiz-adv-x="1064" d="M154 0l125 1434q176 14 346 14q193 0 279.5 -91t86.5 -259q0 -22 -4 -68q-16 -167 -72 -268t-167 -141l225 -621h-193l-207 594h-190l-51 -594h-178zM395 743h193q95 0 148 58t67 215q4 58 4 78q0 109 -39 157.5t-131 48.5q-50 0 -98.5 -3t-71.5 -6l-23 -3zM548 1571 l16 174h174l-16 -174h-174z" />
<glyph unicode="&#x1e59;" horiz-adv-x="692" d="M143 0l88 1024h144l4 -127q91 141 223 141q49 0 107 -12l-15 -178q-70 16 -123 16q-49 0 -87.5 -27t-62 -72t-36.5 -95t-18 -105l-50 -565h-174zM395 1161l16 174h174l-16 -174h-174z" />
<glyph unicode="&#x1e5a;" horiz-adv-x="1064" d="M154 0l125 1434q176 14 346 14q193 0 279.5 -91t86.5 -259q0 -22 -4 -68q-16 -167 -72 -268t-167 -141l225 -621h-193l-207 594h-190l-51 -594h-178zM395 743h193q95 0 148 58t67 215q4 58 4 78q0 109 -39 157.5t-131 48.5q-50 0 -98.5 -3t-71.5 -6l-23 -3zM450 -297 l16 174h174l-16 -174h-174z" />
<glyph unicode="&#x1e5b;" horiz-adv-x="692" d="M117 -297l17 174h174l-17 -174h-174zM143 0l88 1024h144l4 -127q91 141 223 141q49 0 107 -12l-15 -178q-70 16 -123 16q-49 0 -87.5 -27t-62 -72t-36.5 -95t-18 -105l-50 -565h-174z" />
<glyph unicode="&#x1e5c;" horiz-adv-x="1064" d="M154 0l125 1434q176 14 346 14q193 0 279.5 -91t86.5 -259q0 -22 -4 -68q-16 -167 -72 -268t-167 -141l225 -621h-193l-207 594h-190l-51 -594h-178zM373 1571l15 143h522l-14 -143h-523zM395 743h193q95 0 148 58t67 215q4 58 4 78q0 109 -39 157.5t-131 48.5 q-50 0 -98.5 -3t-71.5 -6l-23 -3zM450 -297l16 174h174l-16 -174h-174z" />
<glyph unicode="&#x1e5d;" horiz-adv-x="692" d="M117 -297l17 174h174l-17 -174h-174zM143 0l88 1024h144l4 -127q91 141 223 141q49 0 107 -12l-15 -178q-70 16 -123 16q-49 0 -87.5 -27t-62 -72t-36.5 -95t-18 -105l-50 -565h-174zM351 1161l14 144h522l-14 -144h-522z" />
<glyph unicode="&#x1e5e;" horiz-adv-x="1064" d="M154 0l125 1434q176 14 346 14q193 0 279.5 -91t86.5 -259q0 -22 -4 -68q-16 -167 -72 -268t-167 -141l225 -621h-193l-207 594h-190l-51 -594h-178zM278 -266l15 143h522l-15 -143h-522zM395 743h193q95 0 148 58t67 215q4 58 4 78q0 109 -39 157.5t-131 48.5 q-50 0 -98.5 -3t-71.5 -6l-23 -3z" />
<glyph unicode="&#x1e5f;" horiz-adv-x="692" d="M-55 -266l15 143h522l-14 -143h-523zM143 0l88 1024h144l4 -127q91 141 223 141q49 0 107 -12l-15 -178q-70 16 -123 16q-49 0 -87.5 -27t-62 -72t-36.5 -95t-18 -105l-50 -565h-174z" />
<glyph unicode="&#x1e60;" horiz-adv-x="888" d="M117 18l14 152q133 -35 254 -35q119 0 174 80t55 246q0 101 -35 145t-110 60q-147 32 -215 106.5t-68 218.5q0 457 435 457q96 0 221 -35l-15 -149q-145 34 -233 34q-100 0 -162.5 -71t-62.5 -223q0 -81 30 -115.5t111 -52.5q143 -30 216 -108.5t73 -242.5 q0 -271 -105.5 -385t-335.5 -114q-117 0 -241 32zM544 1571l16 174h174l-16 -174h-174z" />
<glyph unicode="&#x1e61;" horiz-adv-x="823" d="M111 16l14 150q155 -33 256 -33q47 0 81 17.5t51 46.5t24.5 58.5t7.5 61.5q0 56 -25.5 84t-91.5 43q-264 60 -264 258q0 178 93.5 257t272.5 79q105 0 222 -30l-13 -150l-32 8t-34 8l-32.5 6.5t-39 6t-41.5 3t-52 1.5q-164 0 -164 -166q0 -49 29 -77t92 -40 q138 -28 200 -95.5t62 -174.5q0 -182 -89.5 -267t-283.5 -85q-131 0 -243 30zM454 1161l16 174h174l-16 -174h-174z" />
<glyph unicode="&#x1e62;" horiz-adv-x="888" d="M117 18l14 152q133 -35 254 -35q119 0 174 80t55 246q0 101 -35 145t-110 60q-147 32 -215 106.5t-68 218.5q0 457 435 457q96 0 221 -35l-15 -149q-145 34 -233 34q-100 0 -162.5 -71t-62.5 -223q0 -81 30 -115.5t111 -52.5q143 -30 216 -108.5t73 -242.5 q0 -271 -105.5 -385t-335.5 -114q-117 0 -241 32zM245 -311l17 174h174l-17 -174h-174z" />
<glyph unicode="&#x1e63;" horiz-adv-x="823" d="M111 16l14 150q155 -33 256 -33q47 0 81 17.5t51 46.5t24.5 58.5t7.5 61.5q0 56 -25.5 84t-91.5 43q-264 60 -264 258q0 178 93.5 257t272.5 79q105 0 222 -30l-13 -150l-32 8t-34 8l-32.5 6.5t-39 6t-41.5 3t-52 1.5q-164 0 -164 -166q0 -49 29 -77t92 -40 q138 -28 200 -95.5t62 -174.5q0 -182 -89.5 -267t-283.5 -85q-131 0 -243 30zM241 -311l16 174h175l-17 -174h-174z" />
<glyph unicode="&#x1e64;" horiz-adv-x="888" d="M117 18l14 152q133 -35 254 -35q119 0 174 80t55 246q0 101 -35 145t-110 60q-147 32 -215 106.5t-68 218.5q0 457 435 457q96 0 221 -35l-15 -149q-145 34 -233 34q-100 0 -162.5 -71t-62.5 -223q0 -81 30 -115.5t111 -52.5q143 -30 216 -108.5t73 -242.5 q0 -271 -105.5 -385t-335.5 -114q-117 0 -241 32zM543 1571l238 276h223l-285 -276h-176zM816 1970l16 174h174l-16 -174h-174z" />
<glyph unicode="&#x1e65;" horiz-adv-x="823" d="M111 16l14 150q155 -33 256 -33q47 0 81 17.5t51 46.5t24.5 58.5t7.5 61.5q0 56 -25.5 84t-91.5 43q-264 60 -264 258q0 178 93.5 257t272.5 79q105 0 222 -30l-13 -150l-32 8t-34 8l-32.5 6.5t-39 6t-41.5 3t-52 1.5q-164 0 -164 -166q0 -49 29 -77t92 -40 q138 -28 200 -95.5t62 -174.5q0 -182 -89.5 -267t-283.5 -85q-131 0 -243 30zM453 1161l238 277h223l-285 -277h-176zM726 1561l16 174h174l-16 -174h-174z" />
<glyph unicode="&#x1e66;" horiz-adv-x="888" d="M117 18l14 152q133 -35 254 -35q119 0 174 80t55 246q0 101 -35 145t-110 60q-147 32 -215 106.5t-68 218.5q0 457 435 457q96 0 221 -35l-15 -149q-145 34 -233 34q-100 0 -162.5 -71t-62.5 -223q0 -81 30 -115.5t111 -52.5q143 -30 216 -108.5t73 -242.5 q0 -271 -105.5 -385t-335.5 -114q-117 0 -241 32zM291 1729h198l111 -138l135 138h197l-250 -236h-180zM534 1851l17 174h174l-16 -174h-175z" />
<glyph unicode="&#x1e67;" horiz-adv-x="823" d="M111 16l14 150q155 -33 256 -33q47 0 81 17.5t51 46.5t24.5 58.5t7.5 61.5q0 56 -25.5 84t-91.5 43q-264 60 -264 258q0 178 93.5 257t272.5 79q105 0 222 -30l-13 -150l-32 8t-34 8l-32.5 6.5t-39 6t-41.5 3t-52 1.5q-164 0 -164 -166q0 -49 29 -77t92 -40 q138 -28 200 -95.5t62 -174.5q0 -182 -89.5 -267t-283.5 -85q-131 0 -243 30zM219 1462h199l108 -172l138 172h196l-250 -276h-180zM463 1585l16 174h174l-16 -174h-174z" />
<glyph unicode="&#x1e68;" horiz-adv-x="888" d="M117 18l14 152q133 -35 254 -35q119 0 174 80t55 246q0 101 -35 145t-110 60q-147 32 -215 106.5t-68 218.5q0 457 435 457q96 0 221 -35l-15 -149q-145 34 -233 34q-100 0 -162.5 -71t-62.5 -223q0 -81 30 -115.5t111 -52.5q143 -30 216 -108.5t73 -242.5 q0 -271 -105.5 -385t-335.5 -114q-117 0 -241 32zM245 -311l17 174h174l-17 -174h-174zM544 1571l16 174h174l-16 -174h-174z" />
<glyph unicode="&#x1e69;" horiz-adv-x="823" d="M111 16l14 150q155 -33 256 -33q47 0 81 17.5t51 46.5t24.5 58.5t7.5 61.5q0 56 -25.5 84t-91.5 43q-264 60 -264 258q0 178 93.5 257t272.5 79q105 0 222 -30l-13 -150l-32 8t-34 8l-32.5 6.5t-39 6t-41.5 3t-52 1.5q-164 0 -164 -166q0 -49 29 -77t92 -40 q138 -28 200 -95.5t62 -174.5q0 -182 -89.5 -267t-283.5 -85q-131 0 -243 30zM241 -311l16 174h175l-17 -174h-174zM454 1161l16 174h174l-16 -174h-174z" />
<glyph unicode="&#x1e6a;" horiz-adv-x="870" d="M121 1278l14 156h809l-14 -156h-316l-110 -1278h-178l110 1278h-315zM464 1571l16 174h174l-16 -174h-174z" />
<glyph unicode="&#x1e6b;" horiz-adv-x="657" d="M106 870l13 154h133l22 246h175l-23 -246h238l-13 -154h-237l-52 -579q-4 -40 -4 -60q0 -38 21 -67t72 -29q63 0 137 19l-13 -144q-74 -22 -178 -22q-112 0 -163.5 61.5t-51.5 167.5q0 5 6 80l52 573h-134zM285 1393l16 174h174l-16 -174h-174z" />
<glyph unicode="&#x1e6c;" horiz-adv-x="870" d="M121 1278l14 156h809l-14 -156h-316l-110 -1278h-178l110 1278h-315zM301 -297l17 174h174l-16 -174h-175z" />
<glyph unicode="&#x1e6d;" horiz-adv-x="657" d="M106 870l13 154h133l22 246h175l-23 -246h238l-13 -154h-237l-52 -579q-4 -40 -4 -60q0 -38 21 -67t72 -29q63 0 137 19l-13 -144q-74 -22 -178 -22q-112 0 -163.5 61.5t-51.5 167.5q0 5 6 80l52 573h-134zM284 -309l16 174h175l-17 -174h-174z" />
<glyph unicode="&#x1e6e;" horiz-adv-x="870" d="M121 1278l14 156h809l-14 -156h-316l-110 -1278h-178l110 1278h-315zM130 -266l14 143h522l-14 -143h-522z" />
<glyph unicode="&#x1e6f;" horiz-adv-x="657" d="M106 870l13 154h133l22 246h175l-23 -246h238l-13 -154h-237l-52 -579q-4 -40 -4 -60q0 -38 21 -67t72 -29q63 0 137 19l-13 -144q-74 -22 -178 -22q-112 0 -163.5 61.5t-51.5 167.5q0 5 6 80l52 573h-134zM112 -279l15 144h522l-14 -144h-523z" />
<glyph unicode="&#x1e70;" horiz-adv-x="870" d="M60 -399l254 276h180l207 -276h-199l-106 172l-140 -172h-196zM121 1278l14 156h809l-14 -156h-316l-110 -1278h-178l110 1278h-315z" />
<glyph unicode="&#x1e71;" horiz-adv-x="657" d="M42 -412l254 277h181l206 -277h-198l-107 172l-139 -172h-197zM106 870l13 154h133l22 246h175l-23 -246h238l-13 -154h-237l-52 -579q-4 -40 -4 -60q0 -38 21 -67t72 -29q63 0 137 19l-13 -144q-74 -22 -178 -22q-112 0 -163.5 61.5t-51.5 167.5q0 5 6 80l52 573h-134z " />
<glyph unicode="&#x1e72;" horiz-adv-x="1095" d="M174 324q0 39 4 75l90 1035h178l-92 -1051q-4 -66 -4 -72q0 -89 49.5 -132.5t139.5 -43.5q96 0 155 50.5t68 154.5l96 1094h178l-92 -1055q-18 -203 -123.5 -298t-294.5 -95q-160 0 -256 84t-96 254zM210 -301l14 164h174l-14 -164h-174zM619 -301l15 164h174l-15 -164 h-174z" />
<glyph unicode="&#x1e73;" d="M107 -301l15 164h174l-15 -164h-174zM162 266q0 29 4 103l55 655h174l-57 -676q-4 -58 -4 -80q0 -67 27.5 -101t103.5 -34q57 0 100 28t67 75.5t37 95.5t17 100l49 592h174l-88 -1024h-143l-4 109q-89 -123 -250 -123q-148 0 -205 69.5t-57 210.5zM517 -301l14 164h174 l-14 -164h-174z" />
<glyph unicode="&#x1e74;" horiz-adv-x="1095" d="M174 324q0 39 4 75l90 1035h178l-92 -1051q-4 -66 -4 -72q0 -89 49.5 -132.5t139.5 -43.5q96 0 155 50.5t68 154.5l96 1094h178l-92 -1055q-18 -203 -123.5 -298t-294.5 -95q-160 0 -256 84t-96 254zM210 -354l14 149q88 68 183 68q50 0 118.5 -40t106.5 -40q50 0 86 17 t84 57l-12 -150q-75 -67 -183 -67q-43 0 -81 20t-73 39.5t-71 19.5q-84 0 -172 -73z" />
<glyph unicode="&#x1e75;" d="M108 -354l14 149q88 68 182 68q50 0 118.5 -40t106.5 -40q50 0 86 17t84 57l-12 -150q-75 -67 -182 -67q-43 0 -81 20t-73 39.5t-71 19.5q-84 0 -172 -73zM162 266q0 29 4 103l55 655h174l-57 -676q-4 -58 -4 -80q0 -67 27.5 -101t103.5 -34q57 0 100 28t67 75.5t37 95.5 t17 100l49 592h174l-88 -1024h-143l-4 109q-89 -123 -250 -123q-148 0 -205 69.5t-57 210.5z" />
<glyph unicode="&#x1e76;" horiz-adv-x="1095" d="M171 -414l254 277h181l206 -277h-198l-107 172l-139 -172h-197zM174 324q0 39 4 75l90 1035h178l-92 -1051q-4 -66 -4 -72q0 -89 49.5 -132.5t139.5 -43.5q96 0 155 50.5t68 154.5l96 1094h178l-92 -1055q-18 -203 -123.5 -298t-294.5 -95q-160 0 -256 84t-96 254z" />
<glyph unicode="&#x1e77;" d="M69 -414l254 277h180l207 -277h-199l-106 172l-139 -172h-197zM162 266q0 29 4 103l55 655h174l-57 -676q-4 -58 -4 -80q0 -67 27.5 -101t103.5 -34q57 0 100 28t67 75.5t37 95.5t17 100l49 592h174l-88 -1024h-143l-4 109q-89 -123 -250 -123q-148 0 -205 69.5 t-57 210.5z" />
<glyph unicode="&#x1e78;" horiz-adv-x="1095" d="M174 324q0 39 4 75l90 1035h178l-92 -1051q-4 -66 -4 -72q0 -89 49.5 -132.5t139.5 -43.5q96 0 155 50.5t68 154.5l96 1094h178l-92 -1055q-18 -203 -123.5 -298t-294.5 -95q-160 0 -256 84t-96 254zM378 1577l14 149q88 68 182 68q50 0 119 -40t107 -40q50 0 86 17 t84 57l-13 -150q-75 -67 -182 -67q-43 0 -81 20t-73 40t-71 20q-83 0 -172 -74zM497 1917l238 276h223l-285 -276h-176z" />
<glyph unicode="&#x1e79;" d="M162 266q0 29 4 103l55 655h174l-57 -676q-4 -58 -4 -80q0 -67 27.5 -101t103.5 -34q57 0 100 28t67 75.5t37 95.5t17 100l49 592h174l-88 -1024h-143l-4 109q-89 -123 -250 -123q-148 0 -205 69.5t-57 210.5zM291 1167l14 150q87 67 182 67q50 0 119 -39.5t107 -39.5 q50 0 86 17t84 56l-13 -149q-76 -68 -182 -68q-43 0 -81 20t-73 40t-71 20q-83 0 -172 -74zM410 1507l238 277h223l-285 -277h-176z" />
<glyph unicode="&#x1e7a;" horiz-adv-x="1095" d="M174 324q0 39 4 75l90 1035h178l-92 -1051q-4 -66 -4 -72q0 -89 49.5 -132.5t139.5 -43.5q96 0 155 50.5t68 154.5l96 1094h178l-92 -1055q-18 -203 -123.5 -298t-294.5 -95q-160 0 -256 84t-96 254zM397 1837l14 164h174l-14 -164h-174zM402 1571l15 143h522l-14 -143 h-523zM806 1837l15 164h174l-15 -164h-174z" />
<glyph unicode="&#x1e7b;" d="M162 266q0 29 4 103l55 655h174l-57 -676q-4 -58 -4 -80q0 -67 27.5 -101t103.5 -34q57 0 100 28t67 75.5t37 95.5t17 100l49 592h174l-88 -1024h-143l-4 109q-89 -123 -250 -123q-148 0 -205 69.5t-57 210.5zM310 1427l14 164h174l-14 -164h-174zM315 1161l15 144h522 l-15 -144h-522zM719 1427l15 164h174l-15 -164h-174z" />
<glyph unicode="&#x1e7c;" horiz-adv-x="968" d="M176 1434h180l115 -1254l354 1254h176l-426 -1434h-243zM314 1577l15 149q88 68 182 68q50 0 118.5 -40t106.5 -40q50 0 86 17t84 57l-12 -150q-75 -67 -182 -67q-43 0 -81 20t-73.5 40t-71.5 20q-83 0 -172 -74z" />
<glyph unicode="&#x1e7d;" horiz-adv-x="946" d="M139 1024h183l145 -883l293 883h182l-362 -1024h-252zM266 1167l14 150q87 67 183 67q50 0 118.5 -39.5t106.5 -39.5q50 0 86 17t84 56l-12 -149q-76 -68 -183 -68q-43 0 -81 20t-73 40t-71 20q-83 0 -172 -74z" />
<glyph unicode="&#x1e7e;" horiz-adv-x="968" d="M176 1434h180l115 -1254l354 1254h176l-426 -1434h-243zM340 -297l17 174h174l-17 -174h-174z" />
<glyph unicode="&#x1e7f;" horiz-adv-x="946" d="M139 1024h183l145 -883l293 883h182l-362 -1024h-252zM340 -297l17 174h174l-17 -174h-174z" />
<glyph unicode="&#x1e80;" horiz-adv-x="1236" d="M182 0l56 1434h157l-55 -1321l244 716h168l127 -716l180 1321h149l-194 -1434h-279l-84 623l-202 -623h-267zM401 1847h223l189 -276h-156z" />
<glyph unicode="&#x1e81;" horiz-adv-x="1372" d="M150 1024h178l86 -893l245 709h175l108 -709l244 893h172l-291 -1024h-268l-82 555l-189 -555h-262zM432 1438h223l189 -277h-156z" />
<glyph unicode="&#x1e82;" horiz-adv-x="1236" d="M182 0l56 1434h157l-55 -1321l244 716h168l127 -716l180 1321h149l-194 -1434h-279l-84 623l-202 -623h-267zM647 1571l238 276h223l-285 -276h-176z" />
<glyph unicode="&#x1e83;" horiz-adv-x="1372" d="M150 1024h178l86 -893l245 709h175l108 -709l244 893h172l-291 -1024h-268l-82 555l-189 -555h-262zM678 1161l237 277h223l-284 -277h-176z" />
<glyph unicode="&#x1e84;" horiz-adv-x="1236" d="M182 0l56 1434h157l-55 -1321l244 716h168l127 -716l180 1321h149l-194 -1434h-279l-84 623l-202 -623h-267zM443 1571l14 164h175l-15 -164h-174zM853 1571l14 164h174l-14 -164h-174z" />
<glyph unicode="&#x1e85;" horiz-adv-x="1372" d="M150 1024h178l86 -893l245 709h175l108 -709l244 893h172l-291 -1024h-268l-82 555l-189 -555h-262zM474 1161l14 164h174l-14 -164h-174zM883 1161l15 164h174l-14 -164h-175z" />
<glyph unicode="&#x1e86;" horiz-adv-x="1236" d="M182 0l56 1434h157l-55 -1321l244 716h168l127 -716l180 1321h149l-194 -1434h-279l-84 623l-202 -623h-267zM647 1571l17 174h174l-17 -174h-174z" />
<glyph unicode="&#x1e87;" horiz-adv-x="1372" d="M150 1024h178l86 -893l245 709h175l108 -709l244 893h172l-291 -1024h-268l-82 555l-189 -555h-262zM678 1161l16 174h175l-17 -174h-174z" />
<glyph unicode="&#x1e88;" horiz-adv-x="1236" d="M182 0l56 1434h157l-55 -1321l244 716h168l127 -716l180 1321h149l-194 -1434h-279l-84 623l-202 -623h-267zM485 -297l16 174h174l-16 -174h-174z" />
<glyph unicode="&#x1e89;" horiz-adv-x="1372" d="M150 1024h178l86 -893l245 709h175l108 -709l244 893h172l-291 -1024h-268l-82 555l-189 -555h-262zM553 -297l17 174h174l-17 -174h-174z" />
<glyph unicode="&#x1e8a;" horiz-adv-x="1015" d="M51 0l412 741l-256 693h190l174 -498l263 498h194l-385 -691l281 -743h-197l-188 553l-291 -553h-197zM542 1571l16 174h174l-16 -174h-174z" />
<glyph unicode="&#x1e8b;" horiz-adv-x="950" d="M61 0l342 528l-229 496h201l143 -334l209 334h193l-320 -487l258 -537h-203l-161 375l-238 -375h-195zM471 1161l17 174h174l-17 -174h-174z" />
<glyph unicode="&#x1e8c;" horiz-adv-x="1015" d="M51 0l412 741l-256 693h190l174 -498l263 498h194l-385 -691l281 -743h-197l-188 553l-291 -553h-197zM338 1571l14 164h174l-14 -164h-174zM747 1571l15 164h174l-15 -164h-174z" />
<glyph unicode="&#x1e8d;" horiz-adv-x="950" d="M61 0l342 528l-229 496h201l143 -334l209 334h193l-320 -487l258 -537h-203l-161 375l-238 -375h-195zM267 1161l14 164h174l-14 -164h-174zM677 1161l14 164h174l-14 -164h-174z" />
<glyph unicode="&#x1e8e;" d="M145 1434h193l217 -596l324 596h190l-440 -768l-58 -666h-184l57 666zM532 1571l16 174h174l-16 -174h-174z" />
<glyph unicode="&#x1e8f;" horiz-adv-x="948" d="M139 1024h185l165 -846l273 846h182l-393 -1114q-24 -68 -45 -110.5t-53 -82t-76.5 -57.5t-104.5 -18q-39 0 -114 12l12 149q58 -8 106 -8q55 0 91 92l43 113h-41zM466 1161l16 174h175l-17 -174h-174z" />
<glyph unicode="&#x1e90;" horiz-adv-x="892" d="M72 0l14 180l623 1102h-480l15 152h661l-16 -181l-621 -1101h504l-12 -152h-688zM266 1571l254 276h180l207 -276h-199l-106 172l-139 -172h-197z" />
<glyph unicode="&#x1e91;" horiz-adv-x="825" d="M72 0l12 164l504 708h-400l13 152h590l-17 -182l-498 -690h418l-12 -152h-610zM187 1161l254 277h180l207 -277h-198l-107 172l-139 -172h-197z" />
<glyph unicode="&#x1e92;" horiz-adv-x="892" d="M72 0l14 180l623 1102h-480l15 152h661l-16 -181l-621 -1101h504l-12 -152h-688zM303 -297l16 174h174l-16 -174h-174z" />
<glyph unicode="&#x1e93;" horiz-adv-x="825" d="M72 0l12 164l504 708h-400l13 152h590l-17 -182l-498 -690h418l-12 -152h-610zM264 -297l16 174h174l-16 -174h-174z" />
<glyph unicode="&#x1e94;" horiz-adv-x="892" d="M72 0l14 180l623 1102h-480l15 152h661l-16 -181l-621 -1101h504l-12 -152h-688zM131 -266l14 143h522l-14 -143h-522z" />
<glyph unicode="&#x1e95;" horiz-adv-x="825" d="M72 0l12 164l504 708h-400l13 152h590l-17 -182l-498 -690h418l-12 -152h-610zM92 -266l14 143h522l-14 -143h-522z" />
<glyph unicode="&#x1e96;" horiz-adv-x="1036" d="M143 0l125 1434h174l-43 -502q92 106 244 106q153 0 216 -74t63 -221q0 -26 -4 -88l-56 -655h-174l55 655q7 70 7 78q0 76 -34 117t-118 41q-55 0 -98.5 -26t-69.5 -69.5t-40.5 -91t-18.5 -98.5l-54 -606h-174zM218 -266l14 143h522l-14 -143h-522z" />
<glyph unicode="&#x1e97;" horiz-adv-x="657" d="M80 1393l15 163h174l-15 -163h-174zM106 870l13 154h133l22 246h175l-23 -246h238l-13 -154h-237l-52 -579q-4 -40 -4 -60q0 -38 21 -67t72 -29q63 0 137 19l-13 -144q-74 -22 -178 -22q-112 0 -163.5 61.5t-51.5 167.5q0 5 6 80l52 573h-134zM490 1393l14 163h174 l-14 -163h-174z" />
<glyph unicode="&#x1e98;" horiz-adv-x="1372" d="M150 1024h178l86 -893l245 709h175l108 -709l244 893h172l-291 -1024h-268l-82 555l-189 -555h-262zM588 1348q0 101 57 166t154 65q82 0 131 -50.5t49 -133.5q0 -4 -1 -12.5t-1 -12.5q-8 -93 -64.5 -151t-150.5 -58q-77 0 -125.5 54t-48.5 133zM705 1358q0 -86 68 -86 q46 0 64 27t22 73v19q0 82 -70 82q-45 0 -64.5 -34t-19.5 -81z" />
<glyph unicode="&#x1e99;" horiz-adv-x="948" d="M139 1024h185l165 -846l273 846h182l-393 -1114q-24 -68 -45 -110.5t-53 -82t-76.5 -57.5t-104.5 -18q-39 0 -114 12l12 149q58 -8 106 -8q55 0 91 92l43 113h-41zM376 1348q0 101 57 166t154 65q82 0 131 -50.5t49 -133.5q0 -4 -1 -12.5t-1 -12.5q-8 -93 -64.5 -151 t-150.5 -58q-77 0 -125.5 54t-48.5 133zM493 1358q0 -86 68 -86q46 0 64 27t22 73v19q0 82 -70 82q-45 0 -64.5 -34t-19.5 -81z" />
<glyph unicode="&#x1ea0;" horiz-adv-x="1024" d="M31 0l467 1434h235l219 -1434h-178l-47 362h-403l-111 -362h-182zM371 516h338l-105 782zM378 -297l17 174h174l-17 -174h-174z" />
<glyph unicode="&#x1ea1;" horiz-adv-x="1019" d="M145 348q0 47 7 119q28 302 143.5 436.5t347.5 134.5q53 0 131.5 -14t130.5 -31l-65 -714q0 -1 -1 -10.5t-2 -25.5t-1 -32q0 -78 79 -78l-10 -133h-39q-140 0 -176 127q-95 -141 -282 -141q-138 0 -200.5 91.5t-62.5 270.5zM294 -311l17 174h174l-17 -174h-174zM324 334 q0 -104 30 -152.5t99 -48.5q99 0 155 64t64 155l47 531q-54 8 -111 8q-284 0 -284 -557z" />
<glyph unicode="&#x1ea4;" horiz-adv-x="1024" d="M31 0l467 1434h235l219 -1434h-178l-47 362h-403l-111 -362h-182zM299 1495l246 236h188l207 -236h-199l-110 131l-135 -131h-197zM371 516h338l-105 782zM562 1853l237 277h224l-285 -277h-176z" />
<glyph unicode="&#x1ea5;" horiz-adv-x="1019" d="M145 348q0 47 7 119q28 302 143.5 436.5t347.5 134.5q53 0 131.5 -14t130.5 -31l-65 -714q0 -1 -1 -10.5t-2 -25.5t-1 -32q0 -78 79 -78l-10 -133h-39q-140 0 -176 127q-95 -141 -282 -141q-138 0 -200.5 91.5t-62.5 270.5zM324 334q0 -104 30 -152.5t99 -48.5 q99 0 155 64t64 155l47 531q-54 8 -111 8q-284 0 -284 -557zM334 1188l254 276h180l207 -276h-199l-106 172l-140 -172h-196zM601 1587l237 277h223l-284 -277h-176z" />
<glyph unicode="&#x1ea6;" horiz-adv-x="1024" d="M31 0l467 1434h235l219 -1434h-178l-47 362h-403l-111 -362h-182zM299 1495l246 236h188l207 -236h-199l-110 131l-135 -131h-197zM316 2130h223l189 -277h-156zM371 516h338l-105 782z" />
<glyph unicode="&#x1ea7;" horiz-adv-x="1019" d="M145 348q0 47 7 119q28 302 143.5 436.5t347.5 134.5q53 0 131.5 -14t130.5 -31l-65 -714q0 -1 -1 -10.5t-2 -25.5t-1 -32q0 -78 79 -78l-10 -133h-39q-140 0 -176 127q-95 -141 -282 -141q-138 0 -200.5 91.5t-62.5 270.5zM324 334q0 -104 30 -152.5t99 -48.5 q99 0 155 64t64 155l47 531q-54 8 -111 8q-284 0 -284 -557zM334 1188l254 276h180l207 -276h-199l-106 172l-140 -172h-196zM355 1864h223l189 -277h-156z" />
<glyph unicode="&#x1eaa;" horiz-adv-x="1024" d="M31 0l467 1434h235l219 -1434h-178l-47 362h-403l-111 -362h-182zM299 1495l246 236h188l207 -236h-199l-110 131l-135 -131h-197zM363 1860l15 149q88 68 182 68q50 0 118.5 -40t106.5 -40q50 0 86 17t84 57l-12 -150q-76 -68 -182 -68q-43 0 -81 20t-73.5 40t-71.5 20 q-84 0 -172 -73zM371 516h338l-105 782z" />
<glyph unicode="&#x1eab;" horiz-adv-x="1019" d="M145 348q0 47 7 119q28 302 143.5 436.5t347.5 134.5q53 0 131.5 -14t130.5 -31l-65 -714q0 -1 -1 -10.5t-2 -25.5t-1 -32q0 -78 79 -78l-10 -133h-39q-140 0 -176 127q-95 -141 -282 -141q-138 0 -200.5 91.5t-62.5 270.5zM324 334q0 -104 30 -152.5t99 -48.5 q99 0 155 64t64 155l47 531q-54 8 -111 8q-284 0 -284 -557zM334 1188l254 276h180l207 -276h-199l-106 172l-140 -172h-196zM402 1593l14 150q87 67 183 67q50 0 118.5 -39.5t106.5 -39.5q50 0 86 17t84 56l-12 -149q-76 -68 -183 -68q-43 0 -81 20t-73 40t-71 20 q-83 0 -172 -74z" />
<glyph unicode="&#x1eac;" horiz-adv-x="1024" d="M31 0l467 1434h235l219 -1434h-178l-47 362h-403l-111 -362h-182zM307 1571l254 276h180l207 -276h-199l-106 172l-139 -172h-197zM371 516h338l-105 782zM378 -297l17 174h174l-17 -174h-174z" />
<glyph unicode="&#x1ead;" horiz-adv-x="1019" d="M145 348q0 47 7 119q28 302 143.5 436.5t347.5 134.5q53 0 131.5 -14t130.5 -31l-65 -714q0 -1 -1 -10.5t-2 -25.5t-1 -32q0 -78 79 -78l-10 -133h-39q-140 0 -176 127q-95 -141 -282 -141q-138 0 -200.5 91.5t-62.5 270.5zM294 -311l17 174h174l-17 -174h-174zM324 334 q0 -104 30 -152.5t99 -48.5q99 0 155 64t64 155l47 531q-54 8 -111 8q-284 0 -284 -557zM333 1161l254 277h181l206 -277h-198l-107 172l-139 -172h-197z" />
<glyph unicode="&#x1eae;" horiz-adv-x="1024" d="M31 0l467 1434h235l219 -1434h-178l-47 362h-403l-111 -362h-182zM360 1837h168q0 -141 110 -141q64 0 94.5 37.5t42.5 103.5h166q-11 -44 -20.5 -72t-33.5 -69t-54.5 -65t-83.5 -42t-121 -18q-71 0 -124 25t-82 66.5t-44 84.5t-18 90zM371 516h338l-105 782zM573 1960 l238 276h223l-285 -276h-176z" />
<glyph unicode="&#x1eaf;" horiz-adv-x="1019" d="M145 348q0 47 7 119q28 302 143.5 436.5t347.5 134.5q53 0 131.5 -14t130.5 -31l-65 -714q0 -1 -1 -10.5t-2 -25.5t-1 -32q0 -78 79 -78l-10 -133h-39q-140 0 -176 127q-95 -141 -282 -141q-138 0 -200.5 91.5t-62.5 270.5zM324 334q0 -104 30 -152.5t99 -48.5 q99 0 155 64t64 155l47 531q-54 8 -111 8q-284 0 -284 -557zM386 1427h168q0 -141 111 -141q64 0 94.5 37.5t42.5 103.5h166q-11 -44 -21 -72.5t-33.5 -69t-54.5 -64.5t-84 -42t-121 -18q-71 0 -124 25t-82 66.5t-44 84.5t-18 90zM600 1550l237 277h224l-285 -277h-176z" />
<glyph unicode="&#x1eb0;" horiz-adv-x="1024" d="M31 0l467 1434h235l219 -1434h-178l-47 362h-403l-111 -362h-182zM328 2236h223l188 -276h-155zM360 1837h168q0 -141 110 -141q64 0 94.5 37.5t42.5 103.5h166q-11 -44 -20.5 -72t-33.5 -69t-54.5 -65t-83.5 -42t-121 -18q-71 0 -124 25t-82 66.5t-44 84.5t-18 90z M371 516h338l-105 782z" />
<glyph unicode="&#x1eb1;" horiz-adv-x="1019" d="M145 348q0 47 7 119q28 302 143.5 436.5t347.5 134.5q53 0 131.5 -14t130.5 -31l-65 -714q0 -1 -1 -10.5t-2 -25.5t-1 -32q0 -78 79 -78l-10 -133h-39q-140 0 -176 127q-95 -141 -282 -141q-138 0 -200.5 91.5t-62.5 270.5zM324 334q0 -104 30 -152.5t99 -48.5 q99 0 155 64t64 155l47 531q-54 8 -111 8q-284 0 -284 -557zM354 1827h223l189 -277h-156zM386 1427h168q0 -141 111 -141q64 0 94.5 37.5t42.5 103.5h166q-11 -44 -21 -72.5t-33.5 -69t-54.5 -64.5t-84 -42t-121 -18q-71 0 -124 25t-82 66.5t-44 84.5t-18 90z" />
<glyph unicode="&#x1eb4;" horiz-adv-x="1024" d="M31 0l467 1434h235l219 -1434h-178l-47 362h-403l-111 -362h-182zM360 1837h168q0 -141 110 -141q64 0 94.5 37.5t42.5 103.5h166q-11 -44 -20.5 -72t-33.5 -69t-54.5 -65t-83.5 -42t-121 -18q-71 0 -124 25t-82 66.5t-44 84.5t-18 90zM371 516h338l-105 782zM375 1966 l14 150q87 67 182 67q50 0 119 -40t107 -40q50 0 86 17t84 57l-13 -149q-76 -68 -182 -68q-43 0 -81 20t-73 40t-71 20q-83 0 -172 -74z" />
<glyph unicode="&#x1eb5;" horiz-adv-x="1019" d="M145 348q0 47 7 119q28 302 143.5 436.5t347.5 134.5q53 0 131.5 -14t130.5 -31l-65 -714q0 -1 -1 -10.5t-2 -25.5t-1 -32q0 -78 79 -78l-10 -133h-39q-140 0 -176 127q-95 -141 -282 -141q-138 0 -200.5 91.5t-62.5 270.5zM324 334q0 -104 30 -152.5t99 -48.5 q99 0 155 64t64 155l47 531q-54 8 -111 8q-284 0 -284 -557zM386 1427h168q0 -141 111 -141q64 0 94.5 37.5t42.5 103.5h166q-11 -44 -21 -72.5t-33.5 -69t-54.5 -64.5t-84 -42t-121 -18q-71 0 -124 25t-82 66.5t-44 84.5t-18 90zM401 1556l15 150q88 68 182 68 q50 0 118.5 -40t106.5 -40q50 0 86 17t84 56l-12 -149q-76 -68 -182 -68q-43 0 -81 20t-73.5 40t-71.5 20q-83 0 -172 -74z" />
<glyph unicode="&#x1eb6;" horiz-adv-x="1024" d="M31 0l467 1434h235l219 -1434h-178l-47 362h-403l-111 -362h-182zM360 1837h168q0 -141 110 -141q64 0 94.5 37.5t42.5 103.5h166q-11 -44 -20.5 -72t-33.5 -69t-54.5 -65t-83.5 -42t-121 -18q-71 0 -124 25t-82 66.5t-44 84.5t-18 90zM371 516h338l-105 782zM378 -297 l17 174h174l-17 -174h-174z" />
<glyph unicode="&#x1eb7;" horiz-adv-x="1019" d="M145 348q0 47 7 119q28 302 143.5 436.5t347.5 134.5q53 0 131.5 -14t130.5 -31l-65 -714q0 -1 -1 -10.5t-2 -25.5t-1 -32q0 -78 79 -78l-10 -133h-39q-140 0 -176 127q-95 -141 -282 -141q-138 0 -200.5 91.5t-62.5 270.5zM294 -311l17 174h174l-17 -174h-174zM324 334 q0 -104 30 -152.5t99 -48.5q99 0 155 64t64 155l47 531q-54 8 -111 8q-284 0 -284 -557zM386 1427h168q0 -141 111 -141q64 0 94.5 37.5t42.5 103.5h166q-11 -44 -21 -72.5t-33.5 -69t-54.5 -64.5t-84 -42t-121 -18q-71 0 -124 25t-82 66.5t-44 84.5t-18 90z" />
<glyph unicode="&#x1eb8;" horiz-adv-x="958" d="M154 0l125 1434h671l-14 -150h-494l-41 -469h443l-13 -149h-442l-45 -516h494l-13 -150h-671zM376 -297l17 174h174l-17 -174h-174z" />
<glyph unicode="&#x1eb9;" horiz-adv-x="933" d="M150 367q0 182 27.5 312.5t81.5 208.5t128.5 114t173.5 36q83 0 145.5 -23.5t97.5 -64t51.5 -88.5t16.5 -104q0 -175 -104.5 -257.5t-294.5 -82.5q-75 0 -151 8v-74q0 -54 8.5 -94.5t22.5 -64t34.5 -37.5t40.5 -18.5t45 -4.5q38 0 72.5 2t67 7t51.5 8t50 10t38 8 l-15 -148q-50 -14 -125.5 -24t-130.5 -10q-63 0 -109.5 8.5t-90.5 32.5t-71 65.5t-43.5 110.5t-16.5 164zM332 567q61 -6 110 -6q143 0 205 44t62 145q0 67 -32 105t-118 38q-96 0 -152 -74t-75 -252zM368 -311l16 174h175l-17 -174h-174z" />
<glyph unicode="&#x1ebc;" horiz-adv-x="958" d="M154 0l125 1434h671l-14 -150h-494l-41 -469h443l-13 -149h-442l-45 -516h494l-13 -150h-671zM340 1577l14 149q88 68 182 68q50 0 119 -40t107 -40q50 0 86 17t84 57l-13 -150q-75 -67 -182 -67q-43 0 -81 20t-73 40t-71 20q-83 0 -172 -74z" />
<glyph unicode="&#x1ebd;" horiz-adv-x="933" d="M150 367q0 182 27.5 312.5t81.5 208.5t128.5 114t173.5 36q83 0 145.5 -23.5t97.5 -64t51.5 -88.5t16.5 -104q0 -175 -104.5 -257.5t-294.5 -82.5q-75 0 -151 8v-74q0 -54 8.5 -94.5t22.5 -64t34.5 -37.5t40.5 -18.5t45 -4.5q38 0 72.5 2t67 7t51.5 8t50 10t38 8 l-15 -148q-50 -14 -125.5 -24t-130.5 -10q-63 0 -109.5 8.5t-90.5 32.5t-71 65.5t-43.5 110.5t-16.5 164zM285 1167l15 150q87 67 182 67q50 0 118.5 -39.5t106.5 -39.5q50 0 86 17t84 56l-12 -149q-76 -68 -182 -68q-43 0 -81 20t-73.5 40t-71.5 20q-83 0 -172 -74z M332 567q61 -6 110 -6q143 0 205 44t62 145q0 67 -32 105t-118 38q-96 0 -152 -74t-75 -252z" />
<glyph unicode="&#x1ebe;" horiz-adv-x="958" d="M154 0l125 1434h671l-14 -150h-494l-41 -469h443l-13 -149h-442l-45 -516h494l-13 -150h-671zM299 1495l246 236h188l207 -236h-199l-110 131l-135 -131h-197zM562 1853l237 277h224l-285 -277h-176z" />
<glyph unicode="&#x1ebf;" horiz-adv-x="933" d="M150 367q0 182 27.5 312.5t81.5 208.5t128.5 114t173.5 36q83 0 145.5 -23.5t97.5 -64t51.5 -88.5t16.5 -104q0 -175 -104.5 -257.5t-294.5 -82.5q-75 0 -151 8v-74q0 -54 8.5 -94.5t22.5 -64t34.5 -37.5t40.5 -18.5t45 -4.5q38 0 72.5 2t67 7t51.5 8t50 10t38 8 l-15 -148q-50 -14 -125.5 -24t-130.5 -10q-63 0 -109.5 8.5t-90.5 32.5t-71 65.5t-43.5 110.5t-16.5 164zM268 1188l254 276h180l207 -276h-198l-107 172l-139 -172h-197zM332 567q61 -6 110 -6q143 0 205 44t62 145q0 67 -32 105t-118 38q-96 0 -152 -74t-75 -252z M535 1587l238 277h223l-285 -277h-176z" />
<glyph unicode="&#x1ec0;" horiz-adv-x="958" d="M154 0l125 1434h671l-14 -150h-494l-41 -469h443l-13 -149h-442l-45 -516h494l-13 -150h-671zM299 1495l246 236h188l207 -236h-199l-110 131l-135 -131h-197zM316 2130h223l189 -277h-156z" />
<glyph unicode="&#x1ec1;" horiz-adv-x="933" d="M150 367q0 182 27.5 312.5t81.5 208.5t128.5 114t173.5 36q83 0 145.5 -23.5t97.5 -64t51.5 -88.5t16.5 -104q0 -175 -104.5 -257.5t-294.5 -82.5q-75 0 -151 8v-74q0 -54 8.5 -94.5t22.5 -64t34.5 -37.5t40.5 -18.5t45 -4.5q38 0 72.5 2t67 7t51.5 8t50 10t38 8 l-15 -148q-50 -14 -125.5 -24t-130.5 -10q-63 0 -109.5 8.5t-90.5 32.5t-71 65.5t-43.5 110.5t-16.5 164zM268 1188l254 276h180l207 -276h-198l-107 172l-139 -172h-197zM289 1864h224l188 -277h-156zM332 567q61 -6 110 -6q143 0 205 44t62 145q0 67 -32 105t-118 38 q-96 0 -152 -74t-75 -252z" />
<glyph unicode="&#x1ec4;" horiz-adv-x="958" d="M154 0l125 1434h671l-14 -150h-494l-41 -469h443l-13 -149h-442l-45 -516h494l-13 -150h-671zM299 1495l246 236h188l207 -236h-199l-110 131l-135 -131h-197zM363 1860l15 149q88 68 182 68q50 0 118.5 -40t106.5 -40q50 0 86 17t84 57l-12 -150q-76 -68 -182 -68 q-43 0 -81 20t-73.5 40t-71.5 20q-84 0 -172 -73z" />
<glyph unicode="&#x1ec5;" horiz-adv-x="933" d="M150 367q0 182 27.5 312.5t81.5 208.5t128.5 114t173.5 36q83 0 145.5 -23.5t97.5 -64t51.5 -88.5t16.5 -104q0 -175 -104.5 -257.5t-294.5 -82.5q-75 0 -151 8v-74q0 -54 8.5 -94.5t22.5 -64t34.5 -37.5t40.5 -18.5t45 -4.5q38 0 72.5 2t67 7t51.5 8t50 10t38 8 l-15 -148q-50 -14 -125.5 -24t-130.5 -10q-63 0 -109.5 8.5t-90.5 32.5t-71 65.5t-43.5 110.5t-16.5 164zM268 1188l254 276h180l207 -276h-198l-107 172l-139 -172h-197zM332 567q61 -6 110 -6q143 0 205 44t62 145q0 67 -32 105t-118 38q-96 0 -152 -74t-75 -252z M337 1593l14 150q87 67 182 67q50 0 118.5 -39.5t106.5 -39.5q50 0 86 17t84 56l-12 -149q-76 -68 -182 -68q-43 0 -81 20t-73 40t-71 20q-83 0 -172 -74z" />
<glyph unicode="&#x1ec6;" horiz-adv-x="958" d="M154 0l125 1434h671l-14 -150h-494l-41 -469h443l-13 -149h-442l-45 -516h494l-13 -150h-671zM306 1571l254 276h180l207 -276h-199l-106 172l-139 -172h-197zM376 -297l17 174h174l-17 -174h-174z" />
<glyph unicode="&#x1ec7;" horiz-adv-x="933" d="M150 367q0 182 27.5 312.5t81.5 208.5t128.5 114t173.5 36q83 0 145.5 -23.5t97.5 -64t51.5 -88.5t16.5 -104q0 -175 -104.5 -257.5t-294.5 -82.5q-75 0 -151 8v-74q0 -54 8.5 -94.5t22.5 -64t34.5 -37.5t40.5 -18.5t45 -4.5q38 0 72.5 2t67 7t51.5 8t50 10t38 8 l-15 -148q-50 -14 -125.5 -24t-130.5 -10q-63 0 -109.5 8.5t-90.5 32.5t-71 65.5t-43.5 110.5t-16.5 164zM251 1161l254 277h181l206 -277h-198l-107 172l-139 -172h-197zM332 567q61 -6 110 -6q143 0 205 44t62 145q0 67 -32 105t-118 38q-96 0 -152 -74t-75 -252z M368 -311l16 174h175l-17 -174h-174z" />
<glyph unicode="&#x1eca;" horiz-adv-x="649" d="M72 0l12 150h143l99 1134h-144l15 150h465l-15 -150h-143l-98 -1134h143l-12 -150h-465zM191 -297l16 174h174l-16 -174h-174z" />
<glyph unicode="&#x1ecb;" horiz-adv-x="501" d="M117 -297l17 174h174l-17 -174h-174zM143 0l88 1024h175l-89 -1024h-174zM242 1249l16 185h195l-17 -185h-194z" />
<glyph unicode="&#x1ecc;" horiz-adv-x="1122" d="M166 535q0 53 10 198q13 152 33 260t56 198.5t89 144.5t130.5 83t181.5 29q204 0 290 -121.5t86 -382.5q0 -84 -10 -211q-14 -159 -35 -271.5t-57 -207t-89 -151t-130.5 -87t-181.5 -30.5q-206 0 -289.5 132t-83.5 417zM344 487q0 -191 48.5 -271.5t158.5 -80.5 q94 0 151.5 56t92 182.5t53.5 349.5q14 168 14 246q0 184 -48.5 256.5t-160.5 72.5q-94 0 -150 -50t-91 -174t-56 -351q-12 -210 -12 -236zM425 -311l17 174h174l-17 -174h-174z" />
<glyph unicode="&#x1ecd;" horiz-adv-x="1044" d="M152 401q0 331 104.5 484t335.5 153q348 0 348 -391q0 -343 -104.5 -502t-335.5 -159q-85 0 -146.5 19.5t-108.5 66t-70 128.5t-23 201zM328 389q0 -138 43.5 -199t140.5 -61q115 0 171 86t73 287q6 80 6 141q0 138 -41 195t-141 57q-122 0 -174.5 -86t-71.5 -307 q-6 -61 -6 -113zM386 -311l17 174h174l-16 -174h-175z" />
<glyph unicode="&#x1ed0;" horiz-adv-x="1122" d="M166 535q0 53 10 198q13 152 33 260t56 198.5t89 144.5t130.5 83t181.5 29q204 0 290 -121.5t86 -382.5q0 -84 -10 -211q-14 -159 -35 -271.5t-57 -207t-89 -151t-130.5 -87t-181.5 -30.5q-206 0 -289.5 132t-83.5 417zM344 487q0 -191 48.5 -271.5t158.5 -80.5 q94 0 151.5 56t92 182.5t53.5 349.5q14 168 14 246q0 184 -48.5 256.5t-160.5 72.5q-94 0 -150 -50t-91 -174t-56 -351q-12 -210 -12 -236zM350 1495l246 236h188l207 -236h-198l-111 131l-135 -131h-197zM613 1853l238 277h223l-285 -277h-176z" />
<glyph unicode="&#x1ed1;" horiz-adv-x="1044" d="M152 401q0 331 104.5 484t335.5 153q348 0 348 -391q0 -343 -104.5 -502t-335.5 -159q-85 0 -146.5 19.5t-108.5 66t-70 128.5t-23 201zM285 1188l254 276h180l207 -276h-199l-106 172l-140 -172h-196zM328 389q0 -138 43.5 -199t140.5 -61q115 0 171 86t73 287 q6 80 6 141q0 138 -41 195t-141 57q-122 0 -174.5 -86t-71.5 -307q-6 -61 -6 -113zM551 1587l238 277h223l-284 -277h-177z" />
<glyph unicode="&#x1ed2;" horiz-adv-x="1122" d="M166 535q0 53 10 198q13 152 33 260t56 198.5t89 144.5t130.5 83t181.5 29q204 0 290 -121.5t86 -382.5q0 -84 -10 -211q-14 -159 -35 -271.5t-57 -207t-89 -151t-130.5 -87t-181.5 -30.5q-206 0 -289.5 132t-83.5 417zM344 487q0 -191 48.5 -271.5t158.5 -80.5 q94 0 151.5 56t92 182.5t53.5 349.5q14 168 14 246q0 184 -48.5 256.5t-160.5 72.5q-94 0 -150 -50t-91 -174t-56 -351q-12 -210 -12 -236zM350 1495l246 236h188l207 -236h-198l-111 131l-135 -131h-197zM367 2130h223l189 -277h-156z" />
<glyph unicode="&#x1ed3;" horiz-adv-x="1044" d="M152 401q0 331 104.5 484t335.5 153q348 0 348 -391q0 -343 -104.5 -502t-335.5 -159q-85 0 -146.5 19.5t-108.5 66t-70 128.5t-23 201zM285 1188l254 276h180l207 -276h-199l-106 172l-140 -172h-196zM306 1864h223l188 -277h-155zM328 389q0 -138 43.5 -199t140.5 -61 q115 0 171 86t73 287q6 80 6 141q0 138 -41 195t-141 57q-122 0 -174.5 -86t-71.5 -307q-6 -61 -6 -113z" />
<glyph unicode="&#x1ed6;" horiz-adv-x="1122" d="M166 535q0 53 10 198q13 152 33 260t56 198.5t89 144.5t130.5 83t181.5 29q204 0 290 -121.5t86 -382.5q0 -84 -10 -211q-14 -159 -35 -271.5t-57 -207t-89 -151t-130.5 -87t-181.5 -30.5q-206 0 -289.5 132t-83.5 417zM344 487q0 -191 48.5 -271.5t158.5 -80.5 q94 0 151.5 56t92 182.5t53.5 349.5q14 168 14 246q0 184 -48.5 256.5t-160.5 72.5q-94 0 -150 -50t-91 -174t-56 -351q-12 -210 -12 -236zM350 1495l246 236h188l207 -236h-198l-111 131l-135 -131h-197zM414 1860l15 149q88 68 182 68q50 0 118.5 -40t106.5 -40 q50 0 86 17t84 57l-12 -150q-76 -68 -182 -68q-43 0 -81 20t-73.5 40t-71.5 20q-84 0 -172 -73z" />
<glyph unicode="&#x1ed7;" horiz-adv-x="1044" d="M152 401q0 331 104.5 484t335.5 153q348 0 348 -391q0 -343 -104.5 -502t-335.5 -159q-85 0 -146.5 19.5t-108.5 66t-70 128.5t-23 201zM285 1188l254 276h180l207 -276h-199l-106 172l-140 -172h-196zM328 389q0 -138 43.5 -199t140.5 -61q115 0 171 86t73 287 q6 80 6 141q0 138 -41 195t-141 57q-122 0 -174.5 -86t-71.5 -307q-6 -61 -6 -113zM353 1593l14 150q87 67 183 67q50 0 118.5 -39.5t106.5 -39.5q50 0 86 17t84 56l-12 -149q-76 -68 -183 -68q-43 0 -81 20t-73 40t-71 20q-83 0 -172 -74z" />
<glyph unicode="&#x1ed8;" horiz-adv-x="1122" d="M166 535q0 53 10 198q13 152 33 260t56 198.5t89 144.5t130.5 83t181.5 29q204 0 290 -121.5t86 -382.5q0 -84 -10 -211q-14 -159 -35 -271.5t-57 -207t-89 -151t-130.5 -87t-181.5 -30.5q-206 0 -289.5 132t-83.5 417zM344 487q0 -191 48.5 -271.5t158.5 -80.5 q94 0 151.5 56t92 182.5t53.5 349.5q14 168 14 246q0 184 -48.5 256.5t-160.5 72.5q-94 0 -150 -50t-91 -174t-56 -351q-12 -210 -12 -236zM356 1571l254 276h180l207 -276h-199l-106 172l-139 -172h-197zM425 -311l17 174h174l-17 -174h-174z" />
<glyph unicode="&#x1ed9;" horiz-adv-x="1044" d="M152 401q0 331 104.5 484t335.5 153q348 0 348 -391q0 -343 -104.5 -502t-335.5 -159q-85 0 -146.5 19.5t-108.5 66t-70 128.5t-23 201zM282 1161l254 277h180l207 -277h-198l-107 172l-139 -172h-197zM328 389q0 -138 43.5 -199t140.5 -61q115 0 171 86t73 287 q6 80 6 141q0 138 -41 195t-141 57q-122 0 -174.5 -86t-71.5 -307q-6 -61 -6 -113zM386 -311l17 174h174l-16 -174h-175z" />
<glyph unicode="&#x1eda;" horiz-adv-x="1355" d="M166 535q0 53 10 198q13 152 33 260t56 198.5t89 144.5t130.5 83t181.5 29q204 0 290 -121.5t86 -382.5q0 -84 -10 -211q-14 -159 -35 -271.5t-57 -207t-89 -151t-130.5 -87t-181.5 -30.5q-206 0 -289.5 132t-83.5 417zM344 487q0 -191 48.5 -271.5t158.5 -80.5 q94 0 151.5 56t92 182.5t53.5 349.5q14 168 14 246q0 184 -48.5 256.5t-160.5 72.5q-94 0 -150 -50t-91 -174t-56 -351q-12 -210 -12 -236zM588 1571l237 276h224l-285 -276h-176zM1092 956l108 287l17 205h204l-16 -205l-174 -287h-139z" />
<glyph unicode="&#x1edb;" horiz-adv-x="1249" d="M152 401q0 331 104.5 484t335.5 153q348 0 348 -391q0 -343 -104.5 -502t-335.5 -159q-85 0 -146.5 19.5t-108.5 66t-70 128.5t-23 201zM328 389q0 -138 43.5 -199t140.5 -61q115 0 171 86t73 287q6 80 6 141q0 138 -41 195t-141 57q-122 0 -174.5 -86t-71.5 -307 q-6 -61 -6 -113zM530 1161l238 277h223l-284 -277h-177zM981 547l109 287l16 204h205l-17 -204l-174 -287h-139z" />
<glyph unicode="&#x1edc;" horiz-adv-x="1355" d="M166 535q0 53 10 198q13 152 33 260t56 198.5t89 144.5t130.5 83t181.5 29q204 0 290 -121.5t86 -382.5q0 -84 -10 -211q-14 -159 -35 -271.5t-57 -207t-89 -151t-130.5 -87t-181.5 -30.5q-206 0 -289.5 132t-83.5 417zM344 487q0 -191 48.5 -271.5t158.5 -80.5 q94 0 151.5 56t92 182.5t53.5 349.5q14 168 14 246q0 184 -48.5 256.5t-160.5 72.5q-94 0 -150 -50t-91 -174t-56 -351q-12 -210 -12 -236zM346 1847h223l189 -276h-156zM1092 956l108 287l17 205h204l-16 -205l-174 -287h-139z" />
<glyph unicode="&#x1edd;" horiz-adv-x="1249" d="M152 401q0 331 104.5 484t335.5 153q348 0 348 -391q0 -343 -104.5 -502t-335.5 -159q-85 0 -146.5 19.5t-108.5 66t-70 128.5t-23 201zM272 1438h224l188 -277h-156zM328 389q0 -138 43.5 -199t140.5 -61q115 0 171 86t73 287q6 80 6 141q0 138 -41 195t-141 57 q-122 0 -174.5 -86t-71.5 -307q-6 -61 -6 -113zM981 547l109 287l16 204h205l-17 -204l-174 -287h-139z" />
<glyph unicode="&#x1ee0;" horiz-adv-x="1355" d="M166 535q0 53 10 198q13 152 33 260t56 198.5t89 144.5t130.5 83t181.5 29q204 0 290 -121.5t86 -382.5q0 -84 -10 -211q-14 -159 -35 -271.5t-57 -207t-89 -151t-130.5 -87t-181.5 -30.5q-206 0 -289.5 132t-83.5 417zM344 487q0 -191 48.5 -271.5t158.5 -80.5 q94 0 151.5 56t92 182.5t53.5 349.5q14 168 14 246q0 184 -48.5 256.5t-160.5 72.5q-94 0 -150 -50t-91 -174t-56 -351q-12 -210 -12 -236zM438 1577l15 149q88 68 182 68q50 0 118.5 -40t106.5 -40q50 0 86 17t84 57l-12 -150q-75 -67 -182 -67q-43 0 -81 20t-73.5 40 t-71.5 20q-83 0 -172 -74zM1092 956l108 287l17 205h204l-16 -205l-174 -287h-139z" />
<glyph unicode="&#x1ee1;" horiz-adv-x="1249" d="M152 401q0 331 104.5 484t335.5 153q348 0 348 -391q0 -343 -104.5 -502t-335.5 -159q-85 0 -146.5 19.5t-108.5 66t-70 128.5t-23 201zM328 389q0 -138 43.5 -199t140.5 -61q115 0 171 86t73 287q6 80 6 141q0 138 -41 195t-141 57q-122 0 -174.5 -86t-71.5 -307 q-6 -61 -6 -113zM348 1167l14 150q87 67 183 67q50 0 118.5 -39.5t106.5 -39.5q50 0 86 17t84 56l-12 -149q-76 -68 -183 -68q-43 0 -81 20t-73 40t-71 20q-83 0 -172 -74zM981 547l109 287l16 204h205l-17 -204l-174 -287h-139z" />
<glyph unicode="&#x1ee2;" horiz-adv-x="1355" d="M166 535q0 53 10 198q13 152 33 260t56 198.5t89 144.5t130.5 83t181.5 29q204 0 290 -121.5t86 -382.5q0 -84 -10 -211q-14 -159 -35 -271.5t-57 -207t-89 -151t-130.5 -87t-181.5 -30.5q-206 0 -289.5 132t-83.5 417zM344 487q0 -191 48.5 -271.5t158.5 -80.5 q94 0 151.5 56t92 182.5t53.5 349.5q14 168 14 246q0 184 -48.5 256.5t-160.5 72.5q-94 0 -150 -50t-91 -174t-56 -351q-12 -210 -12 -236zM425 -311l17 174h174l-17 -174h-174zM1092 956l108 287l17 205h204l-16 -205l-174 -287h-139z" />
<glyph unicode="&#x1ee3;" horiz-adv-x="1249" d="M152 401q0 331 104.5 484t335.5 153q348 0 348 -391q0 -343 -104.5 -502t-335.5 -159q-85 0 -146.5 19.5t-108.5 66t-70 128.5t-23 201zM328 389q0 -138 43.5 -199t140.5 -61q115 0 171 86t73 287q6 80 6 141q0 138 -41 195t-141 57q-122 0 -174.5 -86t-71.5 -307 q-6 -61 -6 -113zM386 -311l17 174h174l-16 -174h-175zM981 547l109 287l16 204h205l-17 -204l-174 -287h-139z" />
<glyph unicode="&#x1ee4;" horiz-adv-x="1095" d="M174 324q0 39 4 75l90 1035h178l-92 -1051q-4 -66 -4 -72q0 -89 49.5 -132.5t139.5 -43.5q96 0 155 50.5t68 154.5l96 1094h178l-92 -1055q-18 -203 -123.5 -298t-294.5 -95q-160 0 -256 84t-96 254zM413 -311l16 174h175l-17 -174h-174z" />
<glyph unicode="&#x1ee5;" d="M162 266q0 29 4 103l55 655h174l-57 -676q-4 -58 -4 -80q0 -67 27.5 -101t103.5 -34q57 0 100 28t67 75.5t37 95.5t17 100l49 592h174l-88 -1024h-143l-4 109q-89 -123 -250 -123q-148 0 -205 69.5t-57 210.5zM311 -311l16 174h174l-16 -174h-174z" />
<glyph unicode="&#x1ee8;" horiz-adv-x="1296" d="M174 324q0 39 4 75l90 1035h178l-92 -1051q-4 -66 -4 -72q0 -89 49.5 -132.5t139.5 -43.5q96 0 155 50.5t68 154.5l96 1094h178l-92 -1055q-18 -203 -123.5 -298t-294.5 -95q-160 0 -256 84t-96 254zM600 1571l238 276h223l-285 -276h-176zM1057 956l108 287l16 205h205 l-16 -205l-174 -287h-139z" />
<glyph unicode="&#x1ee9;" horiz-adv-x="1157" d="M162 266q0 29 4 103l55 655h174l-57 -676q-4 -58 -4 -80q0 -67 27.5 -101t103.5 -34q57 0 100 28t67 75.5t37 95.5t17 100l49 592h174l-88 -1024h-143l-4 109q-89 -123 -250 -123q-148 0 -205 69.5t-57 210.5zM514 1161l238 277h223l-285 -277h-176zM930 547l108 287 l17 204h204l-16 -204l-174 -287h-139z" />
<glyph unicode="&#x1eea;" horiz-adv-x="1292" d="M174 324q0 39 4 75l90 1035h178l-92 -1051q-4 -66 -4 -72q0 -89 49.5 -132.5t139.5 -43.5q96 0 155 50.5t68 154.5l96 1094h178l-92 -1055q-18 -203 -123.5 -298t-294.5 -95q-160 0 -256 84t-96 254zM350 1847h223l189 -276h-156zM1057 956l108 287l16 205h205l-16 -205 l-174 -287h-139z" />
<glyph unicode="&#x1eeb;" horiz-adv-x="1153" d="M162 266q0 29 4 103l55 655h174l-57 -676q-4 -58 -4 -80q0 -67 27.5 -101t103.5 -34q57 0 100 28t67 75.5t37 95.5t17 100l49 592h174l-88 -1024h-143l-4 109q-89 -123 -250 -123q-148 0 -205 69.5t-57 210.5zM248 1438h223l188 -277h-155zM930 547l108 287l17 204h204 l-16 -204l-174 -287h-139z" />
<glyph unicode="&#x1eee;" horiz-adv-x="1292" d="M174 324q0 39 4 75l90 1035h178l-92 -1051q-4 -66 -4 -72q0 -89 49.5 -132.5t139.5 -43.5q96 0 155 50.5t68 154.5l96 1094h178l-92 -1055q-18 -203 -123.5 -298t-294.5 -95q-160 0 -256 84t-96 254zM393 1577l15 149q88 68 182 68q50 0 118.5 -40t106.5 -40q50 0 86 17 t84 57l-12 -150q-75 -67 -182 -67q-43 0 -81 20t-73.5 40t-71.5 20q-83 0 -172 -74zM1057 956l108 287l16 205h205l-16 -205l-174 -287h-139z" />
<glyph unicode="&#x1eef;" horiz-adv-x="1181" d="M162 266q0 29 4 103l55 655h174l-57 -676q-4 -58 -4 -80q0 -67 27.5 -101t103.5 -34q57 0 100 28t67 75.5t37 95.5t17 100l49 592h174l-88 -1024h-143l-4 109q-89 -123 -250 -123q-148 0 -205 69.5t-57 210.5zM315 1167l15 150q87 67 182 67q50 0 118.5 -39.5 t106.5 -39.5q50 0 86 17t84 56l-12 -149q-76 -68 -182 -68q-43 0 -81 20t-73.5 40t-71.5 20q-83 0 -172 -74zM930 547l108 287l17 204h204l-16 -204l-174 -287h-139z" />
<glyph unicode="&#x1ef0;" horiz-adv-x="1095" d="M174 324q0 39 4 75l90 1035h178l-92 -1051q-4 -66 -4 -72q0 -89 49.5 -132.5t139.5 -43.5q96 0 155 50.5t68 154.5l96 1094h178l-92 -1055q-18 -203 -123.5 -298t-294.5 -95q-160 0 -256 84t-96 254zM413 -311l16 174h175l-17 -174h-174zM1057 956l108 287l16 205h205 l-16 -205l-174 -287h-139z" />
<glyph unicode="&#x1ef1;" d="M162 266q0 29 4 103l55 655h174l-57 -676q-4 -58 -4 -80q0 -67 27.5 -101t103.5 -34q57 0 100 28t67 75.5t37 95.5t17 100l49 592h174l-88 -1024h-143l-4 109q-89 -123 -250 -123q-148 0 -205 69.5t-57 210.5zM311 -311l16 174h174l-16 -174h-174zM930 547l108 287 l17 204h204l-16 -204l-174 -287h-139z" />
<glyph unicode="&#x1ef2;" d="M145 1434h193l217 -596l324 596h190l-440 -768l-58 -666h-184l57 666zM285 1847h224l188 -276h-156z" />
<glyph unicode="&#x1ef3;" horiz-adv-x="948" d="M139 1024h185l165 -846l273 846h182l-393 -1114q-24 -68 -45 -110.5t-53 -82t-76.5 -57.5t-104.5 -18q-39 0 -114 12l12 149q58 -8 106 -8q55 0 91 92l43 113h-41zM220 1438h223l189 -277h-156z" />
<glyph unicode="&#x1ef4;" d="M145 1434h193l217 -596l324 596h190l-440 -768l-58 -666h-184l57 666zM366 -297l16 174h174l-16 -174h-174z" />
<glyph unicode="&#x1ef5;" horiz-adv-x="948" d="M139 1024h185l165 -846l273 846h182l-393 -1114q-24 -68 -45 -110.5t-53 -82t-76.5 -57.5t-104.5 -18q-39 0 -114 12l12 149q58 -8 106 -8q55 0 91 92l43 113h-41zM159 -655l17 174h174l-17 -174h-174z" />
<glyph unicode="&#x1ef8;" d="M145 1434h193l217 -596l324 596h190l-440 -768l-58 -666h-184l57 666zM333 1577l14 149q88 68 182 68q50 0 119 -40t107 -40q50 0 86 17t84 57l-13 -150q-75 -67 -182 -67q-43 0 -81 20t-73 40t-71 20q-83 0 -172 -74z" />
<glyph unicode="&#x1ef9;" horiz-adv-x="948" d="M139 1024h185l165 -846l273 846h182l-393 -1114q-24 -68 -45 -110.5t-53 -82t-76.5 -57.5t-104.5 -18q-39 0 -114 12l12 149q58 -8 106 -8q55 0 91 92l43 113h-41zM267 1167l15 150q87 67 182 67q50 0 118.5 -39.5t106.5 -39.5q50 0 86 17t84 56l-12 -149 q-76 -68 -183 -68q-43 0 -81 20t-73 40t-71 20q-83 0 -172 -74z" />
<glyph unicode="&#x2013;" horiz-adv-x="1126" d="M203 563l12 154h778l-12 -154h-778z" />
<glyph unicode="&#x2014;" horiz-adv-x="1239" d="M162 563l12 154h973l-12 -154h-973z" />
<glyph unicode="&#x2018;" horiz-adv-x="419" d="M111 926l16 184l152 322h133l-90 -322l-17 -184h-194z" />
<glyph unicode="&#x2019;" horiz-adv-x="419" d="M111 928l90 321l16 185h195l-17 -185l-151 -321h-133z" />
<glyph unicode="&#x201a;" horiz-adv-x="419" d="M2 -322l90 322l14 184h195l-14 -184l-152 -322h-133z" />
<glyph unicode="&#x201c;" horiz-adv-x="737" d="M111 926l16 184l152 322h133l-90 -322l-17 -184h-194zM428 926l16 184l152 322h133l-90 -322l-16 -184h-195z" />
<glyph unicode="&#x201d;" horiz-adv-x="737" d="M111 928l90 321l16 185h195l-17 -185l-151 -321h-133zM428 928l90 321l17 185h194l-16 -185l-152 -321h-133z" />
<glyph unicode="&#x201e;" horiz-adv-x="737" d="M2 -322l90 322l14 184h195l-14 -184l-152 -322h-133zM319 -322l91 322l14 184h194l-14 -184l-151 -322h-134z" />
<glyph unicode="&#x2020;" horiz-adv-x="923" d="M147 870l13 154h289l36 410h164l-37 -410h287l-12 -154h-287l-76 -870h-164l76 870h-289z" />
<glyph unicode="&#x2021;" horiz-adv-x="923" d="M109 430l12 154h291l24 286h-289l13 154h289l36 410h164l-37 -410h287l-12 -154h-287l-25 -286h285l-12 -154h-287l-37 -430h-164l37 430h-288z" />
<glyph unicode="&#x2022;" horiz-adv-x="593" d="M164 481l29 318h307l-29 -318h-307z" />
<glyph unicode="&#x2026;" horiz-adv-x="1372" d="M113 0l16 205h205l-17 -205h-204zM563 0l17 205h204l-16 -205h-205zM1014 0l16 205h205l-16 -205h-205z" />
<glyph unicode="&#x2030;" horiz-adv-x="2412" d="M236 901q0 59 6 123q8 85 18.5 143.5t32.5 115.5t55 90.5t86 54t125 20.5q139 0 194.5 -76.5t55.5 -226.5q0 -57 -6 -121q-8 -85 -18.5 -145t-33 -119.5t-56 -95.5t-87 -58t-125.5 -22q-137 0 -192 81.5t-55 235.5zM377 897q0 -102 27 -147t90 -45q77 0 115 72t53 239 q6 62 6 112q0 105 -28 152t-91 47q-87 0 -129.5 -102t-42.5 -328zM526 0l627 1434h160l-627 -1434h-160zM1028 303q0 59 6 123q8 85 18.5 143.5t32.5 115.5t55.5 90.5t86.5 54t125 20.5q139 0 194.5 -76.5t55.5 -226.5q0 -46 -7 -121q-8 -85 -18.5 -145t-33 -119.5 t-55.5 -95.5t-86.5 -58t-125.5 -22q-137 0 -192.5 81.5t-55.5 235.5zM1169 299q0 -102 27 -147.5t90 -45.5q77 0 115 72.5t53 239.5q6 61 6 112q0 105 -28 152t-91 47q-87 0 -129.5 -102t-42.5 -328zM1688 303q0 59 6 123q8 85 18.5 143.5t32.5 115.5t55 90.5t86 54 t125 20.5q139 0 194.5 -76.5t55.5 -226.5q0 -57 -6 -121q-8 -85 -18.5 -145t-33 -119.5t-56 -95.5t-87 -58t-125.5 -22q-137 0 -192 81.5t-55 235.5zM1829 299q0 -102 27 -147.5t90 -45.5q77 0 115 72.5t53 239.5q6 62 6 112q0 105 -28 152t-91 47q-87 0 -129.5 -102 t-42.5 -328z" />
<glyph unicode="&#x2039;" horiz-adv-x="624" d="M186 612l220 424h137l-168 -424l90 -424h-133z" />
<glyph unicode="&#x203a;" horiz-adv-x="624" d="M147 188l168 424l-90 424h133l146 -424l-219 -424h-138z" />
<glyph unicode="&#x2044;" horiz-adv-x="471" d="M-211 -205l815 1864h164l-815 -1864h-164z" />
<glyph unicode="&#x20ac;" horiz-adv-x="962" d="M133 485l55 150h82q5 79 17 199h-123l53 149h92q20 116 50 198t67.5 134t91.5 81.5t113.5 40.5t142.5 11q93 0 201 -33l-53 -143q-120 26 -197 26q-48 0 -81 -12t-63.5 -45.5t-52.5 -96.5t-39 -161h334l-53 -149h-301q-10 -71 -18 -199h282l-55 -150h-234v-32 q0 -99 11 -163t36 -97.5t56 -45.5t78 -12q72 0 200 29l-14 -146q-120 -32 -188 -32q-74 0 -128 14t-99 47.5t-72.5 90.5t-42.5 143t-15 204h-133z" />
<glyph unicode="&#x2122;" horiz-adv-x="1515" d="M176 1313l10 121h820l84 -486l165 486h232l-92 -1037h-135l81 922l-211 -580h-129l-110 580l-82 -922h-133l82 916h-205l-82 -916h-139l82 916h-238z" />
<glyph unicode="&#x2126;" horiz-adv-x="1122" d="M123 0l12 147h117q-88 101 -88 355q0 33 12 231q13 151 33.5 260t57 198.5t89.5 144t130 83.5t180 29q204 0 290 -121t86 -383q0 -56 -10 -211q-21 -233 -62 -372.5t-118 -213.5h123l-12 -147h-334l12 154q90 35 137 165t70 404q12 144 12 246q0 186 -47.5 257.5 t-159.5 71.5q-95 0 -151 -50.5t-90.5 -173.5t-55.5 -351q-12 -138 -12 -238q0 -150 29.5 -228.5t95.5 -104.5l-12 -152h-334z" />
<glyph unicode="&#x2202;" horiz-adv-x="962" d="M135 354q0 24 4 82q8 94 20 159t37 128.5t63.5 101.5t99.5 61t145 23q122 0 211 -63q6 88 6 155q0 97 -12 158.5t-39 93t-60 42t-86 10.5q-73 0 -219 -33l12 145q109 31 199 31q76 0 131 -11t104.5 -41t79.5 -81.5t47 -135t17 -198.5q0 -75 -10 -195 q-15 -174 -32.5 -296.5t-43.5 -213.5t-56.5 -146t-76.5 -88t-97.5 -44.5t-125.5 -11.5q-67 0 -121.5 18.5t-100 59.5t-71 114.5t-25.5 175.5zM309 342q0 -107 39.5 -158t128.5 -51q49 0 80.5 19.5t60 79t48 174t36.5 301.5q-90 55 -196 55q-44 0 -75 -14t-51 -38.5 t-33.5 -69.5t-20.5 -94t-13 -124q-4 -58 -4 -80z" />
<glyph unicode="&#x2206;" horiz-adv-x="1044" d="M31 0l489 1434h228l225 -1434h-942zM264 150h508l-149 1134z" />
<glyph unicode="&#x220f;" horiz-adv-x="1155" d="M182 1280l15 154h970l-14 -154h-184l-90 -1040q0 -5 -1 -15t-1 -14q0 -37 13.5 -52.5t47.5 -15.5q10 0 21 2t21.5 5.5t12.5 3.5l-12 -144q-68 -14 -125 -14q-64 0 -112 49.5t-48 149.5q0 6 1 17t1 17l93 1051h-269l-110 -1280h-179l111 1280h-162z" />
<glyph unicode="&#x2211;" horiz-adv-x="962" d="M31 -348l18 192l406 703l-258 692l18 195h737l-14 -154h-557l268 -733l-428 -744h613l-15 -151h-788z" />
<glyph unicode="&#x2212;" horiz-adv-x="1126" d="M203 563l12 154h778l-12 -154h-778z" />
<glyph unicode="&#x2215;" horiz-adv-x="471" d="M-211 -205l815 1864h164l-815 -1864h-164z" />
<glyph unicode="&#x2219;" horiz-adv-x="593" d="M211 553l20 225h226l-21 -225h-225z" />
<glyph unicode="&#x221a;" horiz-adv-x="1136" d="M121 803h182l129 -678l498 1554h362l-12 -153h-231l-492 -1526h-262z" />
</font>
</defs>
</svg>
