<svg xmlns="http://www.w3.org/2000/svg" viewBox="0 0 64 64"><path fill="#DA6C39" d="M0 0h64v64H0z"/><path fill-rule="evenodd" clip-rule="evenodd" fill="#FFF" d="M49.4 26l-5.8 18.9c-.5 1.8-2.4 3.1-4.2 3.1H20c-2.1 0-4.4-1.7-5.2-3.9-.3-.9-.3-1.9 0-2.6 0-.4.1-.8.1-1.3 0-.3-.2-.6-.1-.9.1-.5.5-.9.9-1.4.6-1 1.3-2.7 1.6-3.8.1-.4-.1-.9 0-1.2.1-.4.5-.7.7-1.1.6-1 1.3-2.8 1.4-3.8 0-.4-.2-.9 0-1.3.1-.5.6-.7.9-1.1.5-.7 1.3-2.7 1.5-3.8 0-.4-.2-.7-.1-1.1.1-.4.6-.8.9-1.3.9-1.3 1.1-4.1 3.7-3.4v.1c.4-.1.7-.2 1.1-.2h16c1 0 1.9.4 2.4 1.2.5.8.7 1.7.4 2.7l-5.8 18.9c-1 3.2-1.5 4.2-4.2 4.2H17.8c-.3 0-.6.1-.8.3-.2.3-.2.1 0 .6.4 1.2 1.9 2.1 3 2.1h19.4c.8 0 1.7-1.1 1.9-1.9l6.3-20.6c.1-.4.1-.8.1-1.2.5.2.9.5 1.2.9.6.9.8 1.9.5 2.9zm-15.1 3.3c.7 0 3.2-2.7 4.2-4.9.5-1.1-1.3-1.4-3.3-1.4-.8 0-1.2.2-1.5 1-.8 1.8-.7 5.3.6 5.3zM27.2 35c1 0 3.3-1.6 5.5-3.7-.2.1-.4.1-.5.1-1.5 0-1.5-5.3-.8-7.1.3-.6.5-.9.8-1.1-2 .2-4.5.9-5.6 1.8-.2.2-.5.6-.7 1-1.1 2.8-.8 9 1.3 9z"/></svg>