<?xml version="1.0" encoding="utf-8"?><svg class="typo3-icons-apps" style="display: none;" xmlns="http://www.w3.org/2000/svg" xmlns:xlink="http://www.w3.org/1999/xlink"><symbol viewBox="0 0 16 16" id="apps-clipboard-images" xmlns="http://www.w3.org/2000/svg"><path fill="#FFF" d="M1 1h10v10H1V1z"/><path fill="#999" d="M10 2v8H2V2h8m1-1H1v10h10V1z"/><path fill="#FFF" d="M3 3h10v10H3V3z"/><path fill="#999" d="M12 4v8H4V4h8m1-1H3v10h10V3z"/><path fill="#999" d="M5 5h10v10H5V5z"/><path fill="#EFEFEF" d="M6 6h8v8H6V6z"/><path fill="#59F" d="M11.5 13H7l1.125-1.5L9.25 10l1.125 1.5L11.5 13z"/><path fill="#59F" d="M13 13H9l1-1 1-1 1 1 1 1z"/><circle cx="11.75" cy="9.25" r=".75" fill="#E8A33D"/></symbol><symbol viewBox="0 0 16 16" id="apps-clipboard-list" xmlns="http://www.w3.org/2000/svg"><path fill="#FFF" d="M1 2h14v12H1z"/><path fill="#999" d="M14 3v10H2V3h12m1-1H1v12h14V2z"/><path fill="#59F" d="M3 4h2v2H3zm0 3h2v2H3zm0 3h2v2H3z"/><path fill="#B9B9B9" d="M6 4h7v2H6zm0 3h7v2H6zm0 3h7v2H6z"/></symbol><symbol viewBox="0 0 16 16" id="apps-filetree-folder" xmlns="http://www.w3.org/2000/svg"><path fill="#FFC857" d="M16 4v10H0V2h7l1.33 2H16z"/><path fill="#E8A33D" d="M16 5H8.33L7 7H0V4h16v1z"/></symbol><symbol viewBox="0 0 16 16" id="apps-filetree-folder-add" xmlns="http://www.w3.org/2000/svg"><path fill="#FFC857" d="M16 4v10H0V2h7l1.33 2H16z"/><path fill="#E8A33D" d="M16 5H8.33L7 7H0V4h16v1z"/><g><circle cx="10.5" cy="10.5" r="5.5" fill="#79A548"/><path fill="#FFF" d="M8 10h5v1H8v-1z"/><path fill="#FFF" d="M10 8h1v5h-1V8z"/><path fill="#212121" d="M10.5 6C13 6 15 8 15 10.5S13 15 10.5 15 6 13 6 10.5 8 6 10.5 6m0-1C7.5 5 5 7.5 5 10.5S7.5 16 10.5 16s5.5-2.5 5.5-5.5S13.5 5 10.5 5z" opacity=".2"/></g></symbol><symbol viewBox="0 0 16 16" id="apps-filetree-folder-default" xmlns="http://www.w3.org/2000/svg"><path fill="#FFC857" d="M16 4v10H0V2h7l1.33 2H16z"/><path fill="#E8A33D" d="M16 5H8.33L7 7H0V4h16v1z"/></symbol><symbol viewBox="0 0 16 16" id="apps-filetree-folder-list" xmlns="http://www.w3.org/2000/svg"><path fill="#FFC857" d="M16 4v10H0V2h7l1.33 2H16z"/><path fill="#E8A33D" d="M16 5H8.33L7 7H0V4h16v1z"/><g><path fill="#666" d="M5 5h11v11H5z"/><path fill="#FFF" d="M6 6h9v9H6z"/><path fill="#FF8700" d="M7 8h1v1H7zm0 2h1v1H7zm0 2h1v1H7z"/><path fill="#AAA" d="M9 8h5v1H9zm0 2h5v1H9zm0 2h5v1H9z"/></g></symbol><symbol viewBox="0 0 16 16" id="apps-filetree-folder-locked" xmlns="http://www.w3.org/2000/svg"><path fill="#FFC857" d="M16 4v10H0V2h7l1.33 2H16z"/><path fill="#E8A33D" d="M16 5H8.33L7 7H0V4h16v1z"/><g><path fill="#666" d="M14.972 9c-.249-2.247-2.16-4-4.472-4S6.277 6.753 6.028 9H5v7h11V9h-1.028zM9.634 9a1 1 0 011.732 0H9.634z"/><path fill="#FFC857" d="M6 10h9v5H6z"/><path fill="#AAA" d="M8.5 10v-.5c0-1.103.897-2 2-2s2 .897 2 2v.5H14v-.5a3.5 3.5 0 10-7 0v.5h1.5z"/><path fill="#212121" d="M11.5 12a1 1 0 00-2 0c0 .366.206.673.5.847V14h1v-1.153a.985.985 0 00.5-.847z" opacity=".3"/></g></symbol><symbol viewBox="0 0 16 16" id="apps-filetree-folder-media" xmlns="http://www.w3.org/2000/svg"><path fill="#FFC857" d="M16 4v10H0V2h7l1.33 2H16z"/><path fill="#E8A33D" d="M16 5H8.33L7 7H0V4h16v1z"/><g><path fill="#59F" d="M5 5h11v11H5z"/><path fill="#212121" d="M15 6v9H6V6h9m1-1H5v11h11V5z" opacity=".2"/><path fill="#FFF" d="M12 14H7l1.25-2 1.25-2 1.25 2L12 14z"/><path fill="#FFF" d="M14 14H9l1.25-1.5L11.5 11l1.25 1.5L14 14z"/><circle cx="13" cy="9" r="1" fill="#FFF"/></g></symbol><symbol viewBox="0 0 16 16" id="apps-filetree-folder-news" xmlns="http://www.w3.org/2000/svg"><path fill="#FFC857" d="M16 4v10H0V2h7l1.33 2H16z"/><path fill="#E8A33D" d="M16 5H8.33L7 7H0V4h16v1z"/><g><path fill="#FFF" d="M5 5h11v11H5z"/><path fill="#666" d="M15 6v9H6V6h9m1-1H5v11h11V5z"/><path fill="#333" d="M7 7h7v1H7z"/><path fill="#59F" d="M7 9h3v3H7z"/><path fill="#AAA" d="M7 13h3v1H7zm4 0h3v1h-3zm0-2h3v1h-3zm0-2h3v1h-3z"/></g></symbol><symbol viewBox="0 0 16 16" id="apps-filetree-folder-opened" xmlns="http://www.w3.org/2000/svg"><path fill="#E8A33D" d="M0 2v12h12.69V3.81H5.08L3.95 2H0z"/><path fill="#FFC857" d="M8.26 6.08L6.55 7.4H2.53L0 14h12.96L16 6.08H8.26z"/></symbol><symbol viewBox="0 0 16 16" id="apps-filetree-folder-recycler" xmlns="http://www.w3.org/2000/svg"><path fill="#8c8c8c" d="M6 1.5h4V4H6V1.5z"/><path fill="#b9b9b9" d="M3 5.5h10L12 15H4z"/><path fill="#b9b9b9" d="M2 3h12v3H2V3z"/><path fill="#212121" d="M3.033 6h9.917l-.06.937-9.78.012z" opacity=".15"/></symbol><symbol viewBox="0 0 16 16" id="apps-filetree-folder-temp" xmlns="http://www.w3.org/2000/svg"><path fill="#AAA" d="M16 4v10H0V2h7l1.3 2H16z"/><path fill="#212121" d="M16 5H8.3L7 7H0V4h16v1z" opacity=".43"/></symbol><symbol viewBox="0 0 16 16" id="apps-filetree-folder-user" xmlns="http://www.w3.org/2000/svg"><path fill="#FFC857" d="M16 4v10H0V2h7l1.33 2H16z"/><path fill="#E8A33D" d="M16 5H8.33L7 7H0V4h16v1z"/><g><path fill="#666" d="M10.725 5h-.45C8.818 5 7.588 6.205 7.588 7.631v1.237c0 .649.287 1.38.769 1.99a3.108 3.108 0 01-.044.301l-.288.127c-.441.196-.896.398-1.456.558l-.116.033-.105.06C6.135 12.059 5 12.809 5 15v1h11v-1c0-2.275-1.175-2.978-1.396-3.088l-.084-.042-.089-.026c-.562-.16-1.019-.364-1.461-.56l-.255-.113a3.819 3.819 0 01-.053-.338c.47-.606.751-1.327.751-1.966V7.631C13.412 6.156 12.232 5 10.725 5z"/><path fill="#FFC857" d="M14.156 12.806c-.949-.271-1.612-.642-2.272-.896-.063-.207-.214-.574-.25-1.418.454-.457.779-1.103.779-1.623V7.631c0-.9-.731-1.631-1.688-1.631h-.45c-.9 0-1.688.731-1.688 1.631v1.237c0 .525.329 1.177.789 1.635-.015.829-.171 1.194-.245 1.401-.666.254-1.331.629-2.287.902 0 0-.787.45-.844 2.194h9c-.056-1.8-.844-2.194-.844-2.194z"/><path fill="#59F" d="M14.156 12.806c-.95-.271-1.612-.642-2.273-.897.04.131.047.197-.034.278-.675.731-2.081.675-2.7 0-.082-.082-.066-.149-.017-.284-.666.254-1.332.629-2.289.903 0 0-.787.45-.844 2.194H15c-.056-1.8-.844-2.194-.844-2.194z"/></g></symbol><symbol viewBox="0 0 16 16" id="apps-filetree-mount" xmlns="http://www.w3.org/2000/svg"><path fill="#AAA" d="M0 4h16v5H0V4zm16 8v2H0v-2h16z"/><path fill="#59F" d="M12 11v4H4v-4h2V9h4v2h2z"/><path fill="#666" d="M1 7h10v1H1V7zm0-2h10v1H1V5z"/><path fill="#AAA" d="M2.6 1h10.8L16 4H0l2.6-3z"/><path fill="#EFEFEF" d="M3.15 2h9.6l1.75 2H1.4l1.75-2z"/><path fill="#212121" d="M6 9h4v1H6V9z" opacity=".3"/><path fill="#CD201F" d="M13 7h2v1h-2V7z"/><path fill="#59F" d="M13 5h2v1h-2V5z"/></symbol><symbol viewBox="0 0 16 16" id="apps-filetree-root" xmlns="http://www.w3.org/2000/svg"><path fill="#EFEFEF" d="M14 16H5l-3-2.5V2l3-2h9z"/><path fill="#AAA" d="M5 0L2 2v11.5L5 16h9V0H5zM3 13V2.5l2-1.3v13.5L3 13z"/><path fill="#59F" d="M6 9h2v1H6V9z"/><path fill="#666" d="M6 6h7v1H6V6zm0-2h7v1H6V4z"/></symbol><symbol viewBox="0 0 16 16" id="apps-irre-collapsed" xmlns="http://www.w3.org/2000/svg"><path d="M11.43 8.407l-5.64 4.028a.5.5 0 01-.79-.407V3.972a.5.5 0 01.791-.407l5.64 4.028a.5.5 0 01-.001.814z"/></symbol><symbol viewBox="0 0 16 16" id="apps-irre-expanded" xmlns="http://www.w3.org/2000/svg"><path d="M7.593 11.43L3.565 5.79A.5.5 0 013.972 5h8.057a.5.5 0 01.407.791l-4.028 5.64a.5.5 0 01-.815-.001z"/></symbol><symbol viewBox="0 0 16 16" id="apps-pagetree-backend-user" xmlns="http://www.w3.org/2000/svg"><path fill="#EFEFEF" d="M2 0v16h12V4l-4-4H2z"/><path fill="#FFF" d="M10 4V0l4 4h-4z" opacity=".65"/><path fill="#212121" d="M13 5v5L9 5h4z" opacity=".2"/><path fill="#999" d="M2 0v16h12V4l-4-4H2zm1 1h6v4h4v10H3V1zm7 .4L12.6 4H10V1.4z"/><g><path fill="#666" d="M10.725 5h-.45C8.818 5 7.588 6.205 7.588 7.631v1.237c0 .649.287 1.38.769 1.99a3.108 3.108 0 01-.044.301l-.288.127c-.441.196-.896.398-1.456.558l-.116.033-.105.06C6.135 12.059 5 12.809 5 15v1h11v-1c0-2.275-1.175-2.978-1.396-3.088l-.084-.042-.089-.026c-.562-.16-1.019-.364-1.461-.56l-.255-.113a3.819 3.819 0 01-.053-.338c.47-.606.751-1.327.751-1.966V7.631C13.412 6.156 12.232 5 10.725 5z"/><path fill="#FFC857" d="M14.156 12.806c-.949-.271-1.612-.642-2.272-.896-.063-.207-.214-.574-.25-1.418.454-.457.779-1.103.779-1.623V7.631c0-.9-.731-1.631-1.688-1.631h-.45c-.9 0-1.688.731-1.688 1.631v1.237c0 .525.329 1.177.789 1.635-.015.829-.171 1.194-.245 1.401-.666.254-1.331.629-2.287.902 0 0-.787.45-.844 2.194h9c-.056-1.8-.844-2.194-.844-2.194z"/><path fill="#59F" d="M14.156 12.806c-.95-.271-1.612-.642-2.273-.897.04.131.047.197-.034.278-.675.731-2.081.675-2.7 0-.082-.082-.066-.149-.017-.284-.666.254-1.332.629-2.289.903 0 0-.787.45-.844 2.194H15c-.056-1.8-.844-2.194-.844-2.194z"/></g></symbol><symbol viewBox="2 -3 16 16" id="apps-pagetree-backend-user-hideinmenu" xmlns="http://www.w3.org/2000/svg"><g opacity=".5"><path fill="#EFEFEF" d="M4-3v16h12V1l-4-4H4z"/><path fill="#FFF" d="M12 1v-4l4 4h-4z" opacity=".65"/><path fill="#212121" d="M15 2v5l-4-5h4z" opacity=".2"/><path fill="#999" d="M4-3v16h12V1l-4-4H4zm1 1h6v4h4v10H5V-2zm7 .4L14.6 1H12v-2.6z"/></g><path fill="#666" d="M12.725 2h-.45c-1.457 0-2.687 1.205-2.687 2.631v1.237c0 .649.287 1.38.769 1.99a3.108 3.108 0 01-.044.301l-.288.127c-.441.196-.896.398-1.456.558l-.116.033-.105.06C8.135 9.059 7 9.809 7 12v1h11v-1c0-2.275-1.175-2.978-1.396-3.088l-.084-.042-.089-.026c-.562-.16-1.019-.364-1.461-.56l-.255-.113a3.819 3.819 0 01-.053-.338c.47-.606.751-1.327.751-1.966V4.631C15.412 3.156 14.232 2 12.725 2z"/><path fill="#FFC857" d="M16.156 9.806c-.949-.271-1.612-.642-2.272-.896-.063-.207-.214-.574-.25-1.418.454-.457.779-1.103.779-1.623V4.631c0-.9-.731-1.631-1.688-1.631h-.45c-.9 0-1.688.731-1.688 1.631v1.237c0 .525.329 1.177.789 1.635-.015.829-.171 1.194-.245 1.401-.666.254-1.331.629-2.287.902 0 0-.787.45-.844 2.194h9c-.056-1.8-.844-2.194-.844-2.194z"/><path fill="#59F" d="M16.156 9.806c-.95-.271-1.612-.642-2.273-.897.04.131.047.197-.034.278-.675.731-2.081.675-2.7 0-.082-.082-.066-.149-.017-.284-.666.254-1.332.629-2.289.903 0 0-.787.45-.844 2.194H17c-.056-1.8-.844-2.194-.844-2.194z"/></symbol><symbol viewBox="0 0 16 16" id="apps-pagetree-category-collapse-all" xmlns="http://www.w3.org/2000/svg"><path d="M7 1h8v2H7zm0 6h8v2H7zm0 6h8v2H7z" fill="#666"/><path fill="#999" d="M1 14h1v1H1zm2 0h1v1H3zm0-6h1v1H3zM1 8h1v1H1zm0-2h1v1H1zm0 4h1v1H1zm0 2h1v1H1zm4-4h1v1H5zm0 6h1v1H5zM3 2h1v1H3zm2 0h1v1H5zM1 4h1v1H1zm0-2h1v1H1zm0-2h1v1H1z"/></symbol><symbol viewBox="0 0 16 16" id="apps-pagetree-category-expand-all" xmlns="http://www.w3.org/2000/svg"><path fill="#AAA" d="M.4 4.5v-4h2l.9 1h2.3v3z"/><path fill="#666" d="M2.2 1l.6.7.3.3h2.1v2H.9V1h1.3m.4-1H0v5h6V1H3.4l-.8-1z"/><path fill="#AAA" d="M9.4 15.5v-4h2l.9 1h2.3v3z"/><path fill="#666" d="M11.2 12l.6.7.3.3h2.1v2H9.9v-3h1.3m.4-1H9v5h6v-4h-2.6l-.8-1z"/><path fill="#999" d="M3 14h1v1H3zm2 0h1v1H5z"/><g><path fill="#AAA" d="M7.4 9.5v-4h2l.9 1h2.3v3z"/><path fill="#666" d="M9.2 6l.6.7.3.3h2.1v2H7.9V6h1.3m.4-1H7v5h6V6h-2.6l-.8-1z"/></g><path fill="#999" d="M3 8h1v1H3zM1 8h1v1H1zm0-2h1v1H1zm2 4h1v1H3zm0 2h1v1H3zm2-4h1v1H5zm2 6h1v1H7z"/></symbol><symbol viewBox="0 0 16 16" id="apps-pagetree-collapse" xmlns="http://www.w3.org/2000/svg"><path d="M11.43 8.407l-5.64 4.028a.5.5 0 01-.79-.407V3.972a.5.5 0 01.791-.407l5.64 4.028a.5.5 0 01-.001.814z"/></symbol><symbol viewBox="0 0 16 16" id="apps-pagetree-drag-copy-above" xmlns="http://www.w3.org/2000/svg"><path fill="#AAA" d="M.5 9.5v-4h2.293l1 1H6.5v3z"/><path fill="#666" d="M2.586 6l.707.707.293.293H6v2H1V6h1.586M3 5H0v5h7V6H4L3 5z"/><path fill="#AAA" d="M.5 15.5v-4h2.293l1 1H6.5v3z"/><path fill="#666" d="M2.586 12l.707.707.293.293H6v2H1v-3h1.586M3 11H0v5h7v-4H4l-1-1z"/><path fill="#999" d="M10 8h1v1h-1z"/><path fill="#666" d="M12 8h1v1h-1z"/><path fill="#999" d="M10 14h1v1h-1z"/><path fill="#AAA" d="M8 8h1v1H8zm0 6h1v1H8z"/><path fill="#666" d="M12 14h1v1h-1z"/><path fill="#79A548" d="M10 2h5v3h-1V3h-4v2L6 2.5 10 0z"/></symbol><symbol viewBox="0 0 16 16" id="apps-pagetree-drag-copy-below" xmlns="http://www.w3.org/2000/svg"><path fill="#AAA" d="M.5 4.5v-4h2.293l1 1H6.5v3z"/><path fill="#666" d="M2.586 1l.707.707.293.293H6v2H1V1h1.586M3 0H0v5h7V1H4L3 0z"/><path fill="#AAA" d="M.5 10.5v-4h2.293l1 1H6.5v3z"/><path fill="#666" d="M2.586 7l.707.707.293.293H6v2H1V7h1.586M3 6H0v5h7V7H4L3 6z"/><path fill="#999" d="M10 3h1v1h-1z"/><path fill="#666" d="M12 3h1v1h-1z"/><path fill="#999" d="M10 9h1v1h-1z"/><path fill="#AAA" d="M8 3h1v1H8zm0 6h1v1H8z"/><path fill="#666" d="M12 9h1v1h-1z"/><path fill="#79A548" d="M10 16l-4-2.5 4-2.5v2h4v-2h1v3h-5z"/></symbol><symbol viewBox="0 0 16 16" id="apps-pagetree-drag-move-above" xmlns="http://www.w3.org/2000/svg"><path fill="#AAA" d="M.5 9.5v-4h2.293l1 1H6.5v3z"/><path fill="#666" d="M2.586 6l.707.707.293.293H6v2H1V6h1.586M3 5H0v5h7V6H4L3 5z"/><path fill="#AAA" d="M.5 15.5v-4h2.293l1 1H6.5v3z"/><path fill="#666" d="M2.586 12l.707.707.293.293H6v2H1v-3h1.586M3 11H0v5h7v-4H4l-1-1z"/><path fill="#999" d="M10 8h1v1h-1z"/><path fill="#666" d="M12 8h1v1h-1z"/><path fill="#999" d="M10 14h1v1h-1z"/><path fill="#AAA" d="M8 8h1v1H8zm0 6h1v1H8z"/><path fill="#666" d="M12 14h1v1h-1z"/><path d="M10 2h5v3h-1V3h-4v2L6 2.5 10 0z"/></symbol><symbol viewBox="0 0 16 16" id="apps-pagetree-drag-move-below" xmlns="http://www.w3.org/2000/svg"><path fill="#AAA" d="M.5 4.5v-4h2.293l1 1H6.5v3z"/><path fill="#666" d="M2.586 1l.707.707.293.293H6v2H1V1h1.586M3 0H0v5h7V1H4L3 0z"/><path fill="#AAA" d="M.5 10.5v-4h2.293l1 1H6.5v3z"/><path fill="#666" d="M2.586 7l.707.707.293.293H6v2H1V7h1.586M3 6H0v5h7V7H4L3 6z"/><path fill="#999" d="M10 3h1v1h-1z"/><path fill="#666" d="M12 3h1v1h-1z"/><path fill="#999" d="M10 9h1v1h-1z"/><path fill="#AAA" d="M8 3h1v1H8zm0 6h1v1H8z"/><path fill="#666" d="M12 9h1v1h-1z"/><path d="M10 16l-4-2.5 4-2.5v2h4v-2h1v3h-5z"/></symbol><symbol viewBox="0 0 16 16" id="apps-pagetree-drag-move-between" xmlns="http://www.w3.org/2000/svg"><path fill="#AAA" d="M.5 5.5v-5h2.293l1 1H6.5v4z"/><path fill="#666" d="M2.586 1l.707.707.293.293H6v3H1V1h1.586M3 0H0v6h7V1H4L3 0z"/><path fill="#AAA" d="M.5 15.5v-5h2.293l1 1H6.5v4z"/><path fill="#666" d="M2.586 11l.707.707.293.293H6v3H1v-4h1.586M3 10H0v6h7v-5H4l-1-1z"/><path fill="#999" d="M10 3h1v1h-1z"/><path fill="#666" d="M12 3h1v1h-1z"/><path fill="#999" d="M10 13h1v1h-1z"/><path fill="#AAA" d="M8 3h1v1H8zm0 10h1v1H8z"/><path fill="#666" d="M12 13h1v1h-1z"/><path d="M10 11L6 8.5 10 6v2h3v1h-3z"/></symbol><symbol viewBox="0 0 16 16" id="apps-pagetree-drag-move-into" xmlns="http://www.w3.org/2000/svg"><path fill="#AAA" d="M.5 10.5v-5h2.293l1 1H6.5v4z"/><path fill="#666" d="M2.586 6l.707.707.293.293H6v3H1V6h1.586M3 5H0v6h7V6H4L3 5z"/><path d="M13 11L9 8.5 13 6v2h3v1h-3z"/></symbol><symbol viewBox="0 0 16 16" id="apps-pagetree-drag-new-between" xmlns="http://www.w3.org/2000/svg"><path fill="#AAA" d="M.5 5.5v-5h2.293l1 1H6.5v4z"/><path fill="#666" d="M2.586 1l.707.707.293.293H6v3H1V1h1.586M3 0H0v6h7V1H4L3 0z"/><path fill="#AAA" d="M.5 15.5v-5h2.293l1 1H6.5v4z"/><path fill="#666" d="M2.586 11l.707.707.293.293H6v3H1v-4h1.586M3 10H0v6h7v-5H4l-1-1z"/><path fill="#999" d="M10 3h1v1h-1z"/><path fill="#666" d="M12 3h1v1h-1z"/><path fill="#999" d="M10 13h1v1h-1z"/><path fill="#AAA" d="M8 3h1v1H8zm0 10h1v1H8z"/><path fill="#666" d="M12 13h1v1h-1z"/><path fill="#79A548" d="M10 11L6 8.5 10 6v2h3v1h-3z"/></symbol><symbol viewBox="0 0 16 16" id="apps-pagetree-drag-new-inside" xmlns="http://www.w3.org/2000/svg"><path fill="#AAA" d="M.5 10.5v-5h2.293l1 1H6.5v4z"/><path fill="#666" d="M2.586 6l.707.707.293.293H6v3H1V6h1.586M3 5H0v6h7V6H4L3 5z"/><path fill="#79A548" d="M13 11L9 8.5 13 6v2h3v1h-3z"/></symbol><symbol viewBox="0 0 16 16" id="apps-pagetree-drag-place-denied" xmlns="http://www.w3.org/2000/svg"><path fill="#C83C3C" d="M12.596 4.818l-7.778 7.778-1.414-1.414 7.778-7.778z"/><path fill="#C83C3C" d="M8 3a4.97 4.97 0 013.536 1.464 5.005 5.005 0 010 7.071C10.591 12.48 9.336 13 8 13s-2.591-.52-3.536-1.464a5.006 5.006 0 010-7.071A4.967 4.967 0 018 3m0-2a6.999 6.999 0 00-4.95 11.949C4.417 14.317 6.209 15 8 15s3.583-.683 4.95-2.05a6.999 6.999 0 000-9.899A6.976 6.976 0 008 1z"/></symbol><symbol viewBox="0 0 16 16" id="apps-pagetree-expand" xmlns="http://www.w3.org/2000/svg"><path d="M7.593 11.43L3.565 5.79A.5.5 0 013.972 5h8.057a.5.5 0 01.407.791l-4.028 5.64a.5.5 0 01-.815-.001z"/></symbol><symbol viewBox="0 0 16 16" id="apps-pagetree-folder-contains" xmlns="http://www.w3.org/2000/svg"><path fill="#888" d="M0 2v12h12.69V3.81H5.08L3.95 2H0z"/><path fill="#AAA" d="M8.26 6.08L6.55 7.4H2.53L0 14h12.96L16 6.08H8.26z"/></symbol><symbol viewBox="0 0 16 16" id="apps-pagetree-folder-contains-approve" xmlns="http://www.w3.org/2000/svg"><path fill="#888" d="M0 2v12h12.69V3.81H5.08L3.95 2H0z"/><path fill="#79A548" d="M2 0h11v11H2z"/><path fill="#212121" d="M12 1v9H3V1h9m1-1H2v11h11V0z" opacity=".2"/><path fill="#FFF" d="M9.451 3.282L7.112 5.607 5.556 4.05 4.5 5.106l2.612 2.612L10.5 4.33z"/><path fill="#AAA" d="M8.26 6.08L6.55 7.4H2.53L0 14h12.96L16 6.08H8.26z"/></symbol><symbol viewBox="0 0 16 16" id="apps-pagetree-folder-contains-board" xmlns="http://www.w3.org/2000/svg"><path fill="#888" d="M0 2v12h12.69V3.81H5.08L3.95 2H0z"/><path fill="#666" d="M2 0h11v11H2z"/><path fill="#FFF" d="M3 1h9v9H3z"/><path fill="#639" d="M4 2h1v1H4zm0 2h1v1H4zm0 2h1v1H4z"/><path fill="#888" d="M6 2h5v1H6zm0 2h5v1H6zm0 2h5v1H6z"/><path fill="#AAA" d="M8.26 6.08L6.55 7.4H2.53L0 14h12.96L16 6.08H8.26z"/></symbol><symbol viewBox="2 -3 16 16" id="apps-pagetree-folder-contains-fe_users" xmlns="http://www.w3.org/2000/svg"><path fill="#888" d="M2-1v12h12.69V.81H7.08L5.95-1H2z"/><path fill="#666" d="M7.15-3h-.3c-1.172 0-2.126.937-2.126 2.088v.825c0 .434.161.91.438 1.33a6.432 6.432 0 01-.875.333l-.117.033-.105.06c-.168.097-1.011.693-1.064 2.331L3 9h8V4c-.053-1.638-.897-2.234-1.066-2.331l-.105-.06-.117-.033a6.432 6.432 0 01-.875-.333c.277-.42.438-.897.438-1.33v-.825C9.276-2.063 8.322-3 7.15-3z"/><path fill="#FFC857" d="M9.438 2.538c-.637-.182-1.081-.432-1.525-.601-.049-.138-.153-.381-.164-.934.307-.305.527-.74.527-1.09v-.825C8.276-1.512 7.75-2 7.15-2h-.3c-.6 0-1.125.488-1.125 1.088v.825c0 .35.22.785.527 1.09-.01.553-.114.796-.164.934-.444.169-.888.419-1.525.601 0 0-.525.3-.562 1.462v4h6V4c-.039-1.162-.563-1.462-.563-1.462z"/><path fill="#AAD400" d="M9.438 2.538c-.633-.181-1.075-.428-1.515-.598.027.087.031.131-.022.185-.45.488-1.388.45-1.8 0-.055-.055-.044-.099-.011-.189-.444.169-.888.419-1.526.602 0 0-.525.3-.562 1.462v4h6V4c-.04-1.2-.564-1.462-.564-1.462z"/><g><path fill="#666" d="M11.15-2h-.3C9.678-2 8.724-1.063 8.724.088v.825c0 .434.161.91.438 1.33a6.432 6.432 0 01-.875.333l-.117.033-.105.06c-.168.097-1.011.693-1.064 2.331L7 10h8V5c-.053-1.638-.897-2.234-1.066-2.331l-.105-.06-.117-.033a6.432 6.432 0 01-.875-.333c.277-.42.438-.897.438-1.33V.088C13.276-1.063 12.322-2 11.15-2z"/><path fill="#FFC857" d="M13.438 3.538c-.637-.182-1.081-.432-1.525-.601-.049-.138-.153-.381-.164-.934.307-.305.527-.74.527-1.09V.088c0-.6-.526-1.088-1.126-1.088h-.3c-.6 0-1.125.488-1.125 1.088v.825c0 .35.22.785.527 1.09-.01.553-.114.796-.164.934-.444.169-.888.419-1.525.601 0 0-.525.3-.562 1.462v4h6V5c-.039-1.162-.563-1.462-.563-1.462z"/><path fill="#79A548" d="M13.438 3.538c-.633-.181-1.075-.428-1.515-.598.027.087.031.131-.022.185-.45.488-1.388.45-1.8 0-.055-.055-.044-.099-.011-.189-.444.169-.888.419-1.526.602 0 0-.525.3-.562 1.462v4h6V5c-.04-1.2-.564-1.462-.564-1.462z"/></g><path fill="#AAA" d="M10.26 3.08L8.55 4.4H4.53L2 11h12.96L18 3.08h-7.74z"/></symbol><symbol viewBox="0 0 16 16" id="apps-pagetree-folder-contains-news" xmlns="http://www.w3.org/2000/svg"><path fill="#888" d="M0 2v12h12.69V3.81H5.08L3.95 2H0z"/><path fill="#FFF" d="M2 0h11v11H2z"/><path fill="#666" d="M12 1v9H3V1h9m1-1H2v11h11V0z"/><path fill="#333" d="M4 2h7v1H4z"/><path fill="#59F" d="M4 4h3v3H4z"/><path fill="#AAA" d="M4 8h3v1H4zm4 0h3v1H8zm0-2h3v1H8zm0-2h3v1H8z"/><path fill="#AAA" d="M8.26 6.08L6.55 7.4H2.53L0 14h12.96L16 6.08H8.26z"/></symbol><symbol viewBox="2 -3 16 16" id="apps-pagetree-folder-contains-shop" xmlns="http://www.w3.org/2000/svg"><path fill="#888" d="M2-1v12h12.69V.81H7.08L5.95-1H2z"/><path fill="#666" d="M4-3h11V8H4z"/><path fill="#FFF" d="M5-2h9v9H5z"/><path fill="#333" d="M6-1h1v7H6zm4 0h1v5h-1zM8-1h1v5H8zm4 0h1v7h-1z"/><path fill="#AAA" d="M8 5h3v1H8z"/><path fill="#AAA" d="M10.26 3.08L8.55 4.4H4.53L2 11h12.96L18 3.08h-7.74z"/></symbol><symbol viewBox="0 0 16 16" id="apps-pagetree-folder-default" xmlns="http://www.w3.org/2000/svg"><path fill="#AAA" d="M16 4v10H0V2h7l1.3 2H16z"/><path fill="#212121" d="M16 5H8.3L7 7H0V4h16v1z" opacity=".43"/></symbol><symbol viewBox="0 0 16 16" id="apps-pagetree-folder-hideinmenu" xmlns="http://www.w3.org/2000/svg"><path fill="#AAA" d="M16 4v10H0V2h7l1.3 2H16z"/><path fill="#212121" d="M16 5H8.3L7 7H0V4h16v1z" opacity=".43"/></symbol><symbol viewBox="0 0 16 16" id="apps-pagetree-folder-root" xmlns="http://www.w3.org/2000/svg"><circle cx="8" cy="8" r="8" fill="#59F"/><path fill="#AAD400" d="M14.973 7.378a7.034 7.034 0 00-3.545-5.48c-.092.097-.117.04-.117.137-.277.097-.646-.097-.923-.194a3.23 3.23 0 00-2.122-.097c-.277.097-.922.194-.646.776.184.292.645.583 1.107.195.184-.194.37-.485.645-.194.093.098.093.195.093.292-.093.29-.37.388-.646.388-.37.097-.74 0-1.108.097-.37.097-.923.194-.923.68 0 .58-.185.678-.647.775-.37 0-.553.194-.37.582.093.29.37.29.555.194.738-.388 1.384-1.358 2.214-.194l.184-.097c.185-.776.37-.29.554 0l.277.29c1.107-1.066.83.486 1.2.776-.74-.194-1.57.582-2.215.097-1.107-.872-1.845-.484-2.86.388-.83.68-1.015 1.552-.83 2.328.276.97 1.29 1.067 2.122.873.276-.098.83-.098.83.096-.185.873.83 1.455.46 2.424-.276.776.186 1.746.83 2.037.647.29 1.2-.485 1.478-1.164.092-.097 0-.29.092-.388.738-.97.646-2.424 1.568-3.394.277-.29 1.2-1.357.46-2.23 1.754-.485 1.11 1.26 1.478 2.037.276-.582.46-1.164.645-1.65.092-.29.16-.38.16-.38zM4.948 2.21c.29-.306.303-.356.594-.765a6.738 6.738 0 00-1.923 1.099l.168.177h.873s.097 0 .097-.1l.097-.103s.097 0 .097-.102l.096-.102.097-.103c-.29.205-.29.103-.194 0 0 .103 0 .103 0 0 0 .103 0 0 0 0l-.002-.001zm-1.282 9.44s-.096-.092 0 0c-.096-.092-.096-.092 0 0v-.276l-.096-.092c-.095 0-.095-.093-.19-.093s-.19-.093-.286-.093h-.191s-.095 0-.095-.092c-.668-.37-.953-1.015-1.144-1.752 0-.185-.095-.37-.095-.554-.094-.093-.094-.185-.19-.278-.19-.184-.094-.553.096-.922v-.184c0-.093 0-.093.095-.185 0-.09 0-.09.096-.183.19-.37.572-.646.762-.923.095-.092.095-.092.095-.184v-.092c.095-.092.095-.277.19-.37 0-.09.096-.276.096-.368 0-.185 0-.277-.096-.46-.096-.278-.154-.518-.344-.703-.858 1.2-1.37 2.546-1.37 4.113 0 2.123.903 4.006 2.414 5.324 0 0 .061.026.061-.064v-.094c0-.092.095-.092.095-.184.096-.37.096-.922.096-1.29l.001-.001z"/><path fill="#212121" d="M8 16c-4.411 0-8-3.589-8-8s3.589-8 8-8 8 3.589 8 8-3.589 8-8 8zM8 1C4.14 1 1 4.14 1 8c0 3.859 3.14 7 7 7 3.859 0 7-3.141 7-7 0-3.86-3.141-7-7-7z" opacity=".2"/></symbol><symbol viewBox="0 0 16 16" id="apps-pagetree-page" xmlns="http://www.w3.org/2000/svg"><path fill="#EFEFEF" d="M2 0v16h12V4l-4-4H2z"/><path fill="#FFF" d="M10 4V0l4 4h-4z" opacity=".65"/><path fill="#212121" d="M13 5v5L9 5h4z" opacity=".2"/><path fill="#999" d="M2 0v16h12V4l-4-4H2zm1 1h6v4h4v10H3V1zm7 .4L12.6 4H10V1.4z"/></symbol><symbol viewBox="0 0 16 16" id="apps-pagetree-page-advanced" xmlns="http://www.w3.org/2000/svg"><path fill="#EFEFEF" d="M2 0v16h12V4l-4-4H2z"/><path fill="#FFF" d="M10 4V0l4 4h-4z" opacity=".65"/><path fill="#212121" d="M13 5v5L9 5h4z" opacity=".2"/><path fill="#999" d="M2 0v16h12V4h-.012l.004-.008L10.008.006 10 .014V0H2zm1 1h6v4h4v10H3V1zm7 .412L12.586 4H10V1.412z"/><g><path fill="#639" d="M5 5h11v11H5z"/><path d="M15 6v9H6V6h9m1-1H5v11h11V5z" opacity=".3"/><path fill="#FFF" d="M10 8h1v5h-1z"/><path fill="#FFF" d="M8 10h5v1H8z"/></g></symbol><symbol viewBox="0 0 16 16" id="apps-pagetree-page-advanced-hideinmenu" xmlns="http://www.w3.org/2000/svg"><g opacity=".5"><path fill="#EFEFEF" d="M2 0v16h12V4l-4-4H2z"/><path fill="#FFF" d="M10 4V0l4 4h-4z" opacity=".65"/><path fill="#212121" d="M13 5v5L9 5h4z" opacity=".2"/><path fill="#999" d="M2 0v16h12V4h-.012l.004-.008L10.008.006 10 .014V0H2zm1 1h6v4h4v10H3V1zm7 .412L12.586 4H10V1.412z"/></g><path fill="#639" d="M5 5h11v11H5z"/><path fill="#212121" d="M15 6v9H6V6h9m1-1H5v11h11V5z" opacity=".3"/><path fill="#FFF" d="M10 8h1v5h-1z"/><path fill="#FFF" d="M8 10h5v1H8z"/></symbol><symbol viewBox="0 0 16 16" id="apps-pagetree-page-advanced-root" xmlns="http://www.w3.org/2000/svg"><circle cx="8" cy="8" r="8" fill="#59F"/><path fill="#AAD400" d="M14.973 7.378a7.034 7.034 0 00-3.545-5.48c-.092.097-.117.04-.117.137-.277.097-.646-.097-.923-.194a3.23 3.23 0 00-2.122-.097c-.277.097-.922.194-.646.776.184.292.645.583 1.107.195.184-.194.37-.485.645-.194.093.098.093.195.093.292-.093.29-.37.388-.646.388-.37.097-.74 0-1.108.097-.37.097-.923.194-.923.68 0 .58-.185.678-.647.775-.37 0-.553.194-.37.582.093.29.37.29.555.194.738-.388 1.384-1.358 2.214-.194l.184-.097c.185-.776.37-.29.554 0l.277.29c1.107-1.066.83.486 1.2.776-.74-.194-1.57.582-2.215.097-1.107-.872-1.845-.484-2.86.388-.83.68-1.015 1.552-.83 2.328.276.97 1.29 1.067 2.122.873.276-.098.83-.098.83.096-.185.873.83 1.455.46 2.424-.276.776.186 1.746.83 2.037.647.29 1.2-.485 1.478-1.164.092-.097 0-.29.092-.388.738-.97.646-2.424 1.568-3.394.277-.29 1.2-1.357.46-2.23 1.754-.485 1.11 1.26 1.478 2.037.276-.582.46-1.164.645-1.65.092-.29.16-.38.16-.38zM4.948 2.21c.29-.306.303-.356.594-.765a6.738 6.738 0 00-1.923 1.099l.168.177h.873s.097 0 .097-.1l.097-.103s.097 0 .097-.102l.096-.102.097-.103c-.29.205-.29.103-.194 0 0 .103 0 .103 0 0 0 .103 0 0 0 0l-.002-.001zm-1.282 9.44s-.096-.092 0 0c-.096-.092-.096-.092 0 0v-.276l-.096-.092c-.095 0-.095-.093-.19-.093s-.19-.093-.286-.093h-.191s-.095 0-.095-.092c-.668-.37-.953-1.015-1.144-1.752 0-.185-.095-.37-.095-.554-.094-.093-.094-.185-.19-.278-.19-.184-.094-.553.096-.922v-.184c0-.093 0-.093.095-.185 0-.09 0-.09.096-.183.19-.37.572-.646.762-.923.095-.092.095-.092.095-.184v-.092c.095-.092.095-.277.19-.37 0-.09.096-.276.096-.368 0-.185 0-.277-.096-.46-.096-.278-.154-.518-.344-.703-.858 1.2-1.37 2.546-1.37 4.113 0 2.123.903 4.006 2.414 5.324 0 0 .061.026.061-.064v-.094c0-.092.095-.092.095-.184.096-.37.096-.922.097-1.291z"/><path fill="#212121" d="M8 16c-4.411 0-8-3.589-8-8s3.589-8 8-8 8 3.589 8 8-3.589 8-8 8zM8 1C4.14 1 1 4.14 1 8c0 3.859 3.14 7 7 7 3.859 0 7-3.141 7-7 0-3.86-3.141-7-7-7z" opacity=".2"/><g><path fill="#639" d="M5 5h11v11H5z"/><path fill="#212121" d="M15 6v9H6V6h9m1-1H5v11h11V5z" opacity=".3"/><path fill="#FFF" d="M10 8h1v5h-1z"/><path fill="#FFF" d="M8 10h5v1H8z"/></g></symbol><symbol viewBox="2 -3 16 16" id="apps-pagetree-page-backend-user" xmlns="http://www.w3.org/2000/svg"><path fill="#EFEFEF" d="M4-3v16h12V1l-4-4H4z"/><path fill="#FFF" d="M12 1v-4l4 4h-4z" opacity=".65"/><path fill="#212121" d="M15 2v5l-4-5h4z" opacity=".2"/><path fill="#999" d="M4-3v16h12V1l-4-4H4zm1 1h6v4h4v10H5V-2zm7 .4L14.6 1H12v-2.6z"/><g><path fill="#666" d="M12.725 2h-.45c-1.457 0-2.687 1.205-2.687 2.631v1.237c0 .649.287 1.38.769 1.99a3.108 3.108 0 01-.044.301l-.288.127c-.441.196-.896.398-1.456.558l-.116.033-.105.06C8.135 9.059 7 9.809 7 12v1h11v-1c0-2.275-1.175-2.978-1.396-3.088l-.084-.042-.089-.026c-.562-.16-1.019-.364-1.461-.56l-.255-.113a3.819 3.819 0 01-.053-.338c.47-.606.751-1.327.751-1.966V4.631C15.412 3.156 14.232 2 12.725 2z"/><path fill="#FFC857" d="M16.156 9.806c-.949-.271-1.612-.642-2.272-.896-.063-.207-.214-.574-.25-1.418.454-.457.779-1.103.779-1.623V4.631c0-.9-.731-1.631-1.688-1.631h-.45c-.9 0-1.688.731-1.688 1.631v1.237c0 .525.329 1.177.789 1.635-.015.829-.171 1.194-.245 1.401-.666.254-1.331.629-2.287.902 0 0-.787.45-.844 2.194h9c-.056-1.8-.844-2.194-.844-2.194z"/><path fill="#59F" d="M16.156 9.806c-.95-.271-1.612-.642-2.273-.897.04.131.047.197-.034.278-.675.731-2.081.675-2.7 0-.082-.082-.066-.149-.017-.284-.666.254-1.332.629-2.289.903 0 0-.787.45-.844 2.194H17c-.056-1.8-.844-2.194-.844-2.194z"/></g></symbol><symbol viewBox="0 0 16 16" id="apps-pagetree-page-backend-user-hideinmenu" xmlns="http://www.w3.org/2000/svg"><g opacity=".5"><path fill="#EFEFEF" d="M2 0v16h12V4l-4-4H2z"/><path fill="#FFF" d="M10 4V0l4 4h-4z" opacity=".65"/><path fill="#212121" d="M13 5v5L9 5h4z" opacity=".2"/><path fill="#999" d="M2 0v16h12V4l-4-4H2zm1 1h6v4h4v10H3V1zm7 .4L12.6 4H10V1.4z"/></g><path fill="#666" d="M10.725 5h-.45C8.818 5 7.588 6.205 7.588 7.631v1.237c0 .649.287 1.38.769 1.99a3.108 3.108 0 01-.044.301l-.288.127c-.441.196-.896.398-1.456.558l-.116.033-.105.06C6.135 12.059 5 12.809 5 15v1h11v-1c0-2.275-1.175-2.978-1.396-3.088l-.084-.042-.089-.026c-.562-.16-1.019-.364-1.461-.56l-.255-.113a3.819 3.819 0 01-.053-.338c.47-.606.751-1.327.751-1.966V7.631C13.412 6.156 12.232 5 10.725 5z"/><path fill="#FFC857" d="M14.156 12.806c-.949-.271-1.612-.642-2.272-.896-.063-.207-.214-.574-.25-1.418.454-.457.779-1.103.779-1.623V7.631c0-.9-.731-1.631-1.688-1.631h-.45c-.9 0-1.688.731-1.688 1.631v1.237c0 .525.329 1.177.789 1.635-.015.829-.171 1.194-.245 1.401-.666.254-1.331.629-2.287.902 0 0-.787.45-.844 2.194h9c-.056-1.8-.844-2.194-.844-2.194z"/><path fill="#59F" d="M14.156 12.806c-.95-.271-1.612-.642-2.273-.897.04.131.047.197-.034.278-.675.731-2.081.675-2.7 0-.082-.082-.066-.149-.017-.284-.666.254-1.332.629-2.289.903 0 0-.787.45-.844 2.194H15c-.056-1.8-.844-2.194-.844-2.194z"/></symbol><symbol viewBox="2 -3 16 16" id="apps-pagetree-page-backend-user-root" xmlns="http://www.w3.org/2000/svg"><circle cx="10" cy="5" r="8" fill="#59F"/><path fill="#AAD400" d="M16.973 4.378a7.034 7.034 0 00-3.545-5.48c-.092.097-.117.04-.117.137-.277.097-.646-.097-.923-.194a3.23 3.23 0 00-2.122-.097c-.277.097-.922.194-.646.776.184.292.645.583 1.107.195.184-.194.37-.485.645-.194.093.098.093.195.093.292-.093.29-.37.388-.646.388-.37.097-.74 0-1.108.097-.37.097-.923.194-.923.68 0 .58-.185.678-.647.775-.37 0-.553.194-.37.582.093.29.37.29.555.194.738-.388 1.384-1.358 2.214-.194l.184-.097c.185-.776.37-.29.554 0l.277.29c1.107-1.066.83.486 1.2.776-.74-.194-1.57.582-2.215.097-1.107-.872-1.845-.484-2.86.388-.83.68-1.015 1.552-.83 2.328.276.97 1.29 1.067 2.122.873.276-.098.83-.098.83.096-.185.873.83 1.455.46 2.424-.276.776.186 1.746.83 2.037.647.29 1.2-.485 1.478-1.164.092-.097 0-.29.092-.388.738-.97.646-2.424 1.568-3.394.277-.29 1.2-1.357.46-2.23 1.754-.485 1.11 1.26 1.478 2.037.276-.582.46-1.164.645-1.65.092-.29.16-.38.16-.38zM6.948-.79c.29-.306.303-.356.594-.765A6.738 6.738 0 005.619-.456l.168.177h.873s.097 0 .097-.1l.097-.103s.097 0 .097-.102l.096-.102.097-.103c-.29.205-.29.103-.194 0 0 .103 0 .103 0 0 0 .103 0 0 0 0L6.948-.79zM5.666 8.65s-.096-.092 0 0c-.096-.092-.096-.092 0 0v-.276l-.096-.092c-.095 0-.095-.093-.19-.093s-.19-.093-.286-.093h-.191s-.095 0-.095-.092c-.668-.37-.953-1.015-1.144-1.752 0-.185-.095-.37-.095-.554-.094-.093-.094-.185-.19-.278-.19-.184-.094-.553.096-.922v-.184c0-.093 0-.093.095-.185 0-.09 0-.09.096-.183.19-.37.572-.646.762-.923.095-.092.095-.092.095-.184v-.092c.095-.092.095-.277.19-.37 0-.09.096-.276.096-.368 0-.185 0-.277-.096-.46-.096-.278-.154-.518-.344-.703-.858 1.2-1.37 2.546-1.37 4.113 0 2.123.903 4.006 2.414 5.324 0 0 .061.026.061-.064v-.094c0-.092.095-.092.095-.184.096-.37.096-.922.097-1.291z"/><path fill="#212121" d="M10 13c-4.411 0-8-3.589-8-8s3.589-8 8-8 8 3.589 8 8-3.589 8-8 8zm0-15C6.14-2 3 1.14 3 5c0 3.859 3.14 7 7 7 3.859 0 7-3.141 7-7 0-3.86-3.141-7-7-7z" opacity=".2"/><g><path fill="#666" d="M12.725 2h-.45c-1.457 0-2.687 1.205-2.687 2.631v1.237c0 .649.287 1.38.769 1.99a3.108 3.108 0 01-.044.301l-.288.127c-.441.196-.896.398-1.456.558l-.116.033-.105.06C8.135 9.059 7 9.809 7 12v1h11v-1c0-2.275-1.175-2.978-1.396-3.088l-.084-.042-.089-.026c-.562-.16-1.019-.364-1.461-.56l-.255-.113a3.819 3.819 0 01-.053-.338c.47-.606.751-1.327.751-1.966V4.631C15.412 3.156 14.232 2 12.725 2z"/><path fill="#FFC857" d="M16.156 9.806c-.949-.271-1.612-.642-2.272-.896-.063-.207-.214-.574-.25-1.418.454-.457.779-1.103.779-1.623V4.631c0-.9-.731-1.631-1.688-1.631h-.45c-.9 0-1.688.731-1.688 1.631v1.237c0 .525.329 1.177.789 1.635-.015.829-.171 1.194-.245 1.401-.666.254-1.331.629-2.287.902 0 0-.787.45-.844 2.194h9c-.056-1.8-.844-2.194-.844-2.194z"/><path fill="#59F" d="M16.156 9.806c-.95-.271-1.612-.642-2.273-.897.04.131.047.197-.034.278-.675.731-2.081.675-2.7 0-.082-.082-.066-.149-.017-.284-.666.254-1.332.629-2.289.903 0 0-.787.45-.844 2.194H17c-.056-1.8-.844-2.194-.844-2.194z"/></g></symbol><symbol viewBox="0 0 16 16" id="apps-pagetree-page-backend-users" xmlns="http://www.w3.org/2000/svg"><path fill="#EFEFEF" d="M2 0v16h12V4l-4-4H2z"/><path fill="#FFF" d="M10 4V0l4 4h-4z" opacity=".65"/><path fill="#212121" d="M13 5v5L9 5h4z" opacity=".2"/><path fill="#999" d="M2 0v16h12V4l-4-4H2zm1 1h6v4h4v10H3V1zm7 .4L12.6 4H10V1.4z"/><g><path fill="#666" d="M12.15 5h-.3c-1.172 0-2.125.937-2.125 2.088v.825c0 .434.161.91.438 1.33a6.483 6.483 0 01-.875.333l-.117.033-.105.06c-.169.097-1.012.693-1.065 2.331L8 15h8v-3c-.053-1.638-.897-2.234-1.066-2.331l-.105-.06-.117-.033a6.432 6.432 0 01-.875-.333c.277-.42.438-.897.438-1.33v-.825C14.276 5.937 13.322 5 12.15 5z"/><path fill="#FFC857" d="M14.438 10.538c-.637-.182-1.081-.432-1.525-.601-.049-.138-.153-.381-.164-.934.307-.305.527-.74.527-1.09v-.825c0-.6-.526-1.088-1.126-1.088h-.3c-.6 0-1.125.488-1.125 1.088v.825c0 .35.22.785.527 1.09-.01.553-.114.796-.164.934-.444.169-.888.419-1.525.601 0 0-.525.3-.562 1.462v1h6v-1c-.039-1.162-.563-1.462-.563-1.462z"/><path fill="#ABD7FF" d="M14.438 10.538c-.633-.181-1.075-.428-1.515-.598.027.087.031.131-.022.185-.45.488-1.388.45-1.8 0-.055-.055-.044-.099-.011-.189-.444.169-.888.419-1.526.602 0 0-.525.3-.562 1.462v2h6v-2c-.04-1.2-.564-1.462-.564-1.462z"/><path fill="#666" d="M9.15 7h-.3c-1.172 0-2.126.937-2.126 2.088v.825c0 .434.161.91.438 1.33a6.432 6.432 0 01-.875.333l-.117.033-.105.06c-.168.097-1.011.693-1.064 2.331L5 16h8v-2c-.053-1.638-.897-2.234-1.066-2.331l-.105-.06-.117-.033a6.432 6.432 0 01-.875-.333c.277-.42.438-.897.438-1.33v-.825C11.276 7.937 10.322 7 9.15 7z"/><path fill="#FFC857" d="M11.438 12.538c-.637-.182-1.081-.432-1.525-.601-.049-.138-.153-.381-.164-.934.307-.305.527-.74.527-1.09v-.825C10.276 8.488 9.75 8 9.15 8h-.3c-.6 0-1.125.488-1.125 1.088v.825c0 .35.22.785.527 1.09-.01.553-.114.796-.164.934-.444.169-.888.419-1.525.601 0 0-.525.3-.562 1.462v1h6v-1c-.039-1.162-.563-1.462-.563-1.462z"/><path fill="#59F" d="M11.438 12.538c-.633-.181-1.075-.428-1.515-.598.027.087.031.131-.022.185-.45.488-1.388.45-1.8 0-.055-.055-.044-.099-.011-.189-.444.169-.888.419-1.526.602 0 0-.525.3-.562 1.462v1h6v-1c-.04-1.2-.564-1.462-.564-1.462z"/></g></symbol><symbol viewBox="0 0 16 16" id="apps-pagetree-page-backend-users-hideinmenu" xmlns="http://www.w3.org/2000/svg"><g opacity=".5"><path fill="#EFEFEF" d="M2 0v16h12V4l-4-4H2z"/><path fill="#FFF" d="M10 4V0l4 4h-4z" opacity=".65"/><path fill="#212121" d="M13 5v5L9 5h4z" opacity=".2"/><path fill="#999" d="M2 0v16h12V4l-4-4H2zm1 1h6v4h4v10H3V1zm7 .4L12.6 4H10V1.4z"/></g><path fill="#666" d="M12.15 5h-.3c-1.172 0-2.125.937-2.125 2.088v.825c0 .434.161.91.438 1.33a6.483 6.483 0 01-.875.333l-.117.033-.105.06c-.169.097-1.012.693-1.065 2.331L8 15h8v-3c-.053-1.638-.897-2.234-1.066-2.331l-.105-.06-.117-.033a6.432 6.432 0 01-.875-.333c.277-.42.438-.897.438-1.33v-.825C14.276 5.937 13.322 5 12.15 5z"/><path fill="#FFC857" d="M14.438 10.538c-.637-.182-1.081-.432-1.525-.601-.049-.138-.153-.381-.164-.934.307-.305.527-.74.527-1.09v-.825c0-.6-.526-1.088-1.126-1.088h-.3c-.6 0-1.125.488-1.125 1.088v.825c0 .35.22.785.527 1.09-.01.553-.114.796-.164.934-.444.169-.888.419-1.525.601 0 0-.525.3-.562 1.462v1h6v-1c-.039-1.162-.563-1.462-.563-1.462z"/><path fill="#ABD7FF" d="M14.438 10.538c-.633-.181-1.075-.428-1.515-.598.027.087.031.131-.022.185-.45.488-1.388.45-1.8 0-.055-.055-.044-.099-.011-.189-.444.169-.888.419-1.526.602 0 0-.525.3-.562 1.462v2h6v-2c-.04-1.2-.564-1.462-.564-1.462z"/><path fill="#666" d="M9.15 7h-.3c-1.172 0-2.126.937-2.126 2.088v.825c0 .434.161.91.438 1.33a6.432 6.432 0 01-.875.333l-.117.033-.105.06c-.168.097-1.011.693-1.064 2.331L5 16h8v-2c-.053-1.638-.897-2.234-1.066-2.331l-.105-.06-.117-.033a6.432 6.432 0 01-.875-.333c.277-.42.438-.897.438-1.33v-.825C11.276 7.937 10.322 7 9.15 7z"/><path fill="#FFC857" d="M11.438 12.538c-.637-.182-1.081-.432-1.525-.601-.049-.138-.153-.381-.164-.934.307-.305.527-.74.527-1.09v-.825C10.276 8.488 9.75 8 9.15 8h-.3c-.6 0-1.125.488-1.125 1.088v.825c0 .35.22.785.527 1.09-.01.553-.114.796-.164.934-.444.169-.888.419-1.525.601 0 0-.525.3-.562 1.462v1h6v-1c-.039-1.162-.563-1.462-.563-1.462z"/><path fill="#59F" d="M11.438 12.538c-.633-.181-1.075-.428-1.515-.598.027.087.031.131-.022.185-.45.488-1.388.45-1.8 0-.055-.055-.044-.099-.011-.189-.444.169-.888.419-1.526.602 0 0-.525.3-.562 1.462v1h6v-1c-.04-1.2-.564-1.462-.564-1.462z"/></symbol><symbol viewBox="0 0 16 16" id="apps-pagetree-page-backend-users-root" xmlns="http://www.w3.org/2000/svg"><circle cx="8" cy="8" r="8" fill="#59F"/><path fill="#AAD400" d="M14.973 7.378a7.034 7.034 0 00-3.545-5.48c-.092.097-.117.04-.117.137-.277.097-.646-.097-.923-.194a3.23 3.23 0 00-2.122-.097c-.277.097-.922.194-.646.776.184.292.645.583 1.107.195.184-.194.37-.485.645-.194.093.098.093.195.093.292-.093.29-.37.388-.646.388-.37.097-.74 0-1.108.097-.37.097-.923.194-.923.68 0 .58-.185.678-.647.775-.37 0-.553.194-.37.582.093.29.37.29.555.194.738-.388 1.384-1.358 2.214-.194l.184-.097c.185-.776.37-.29.554 0l.277.29c1.107-1.066.83.486 1.2.776-.74-.194-1.57.582-2.215.097-1.107-.872-1.845-.484-2.86.388-.83.68-1.015 1.552-.83 2.328.276.97 1.29 1.067 2.122.873.276-.098.83-.098.83.096-.185.873.83 1.455.46 2.424-.276.776.186 1.746.83 2.037.647.29 1.2-.485 1.478-1.164.092-.097 0-.29.092-.388.738-.97.646-2.424 1.568-3.394.277-.29 1.2-1.357.46-2.23 1.754-.485 1.11 1.26 1.478 2.037.276-.582.46-1.164.645-1.65.092-.29.16-.38.16-.38zM4.948 2.21c.29-.306.303-.356.594-.765a6.738 6.738 0 00-1.923 1.099l.168.177h.873s.097 0 .097-.1l.097-.103s.097 0 .097-.102l.096-.102.097-.103c-.29.205-.29.103-.194 0 0 .103 0 .103 0 0 0 .103 0 0 0 0l-.002-.001zm-1.282 9.44s-.096-.092 0 0c-.096-.092-.096-.092 0 0v-.276l-.096-.092c-.095 0-.095-.093-.19-.093s-.19-.093-.286-.093h-.191s-.095 0-.095-.092c-.668-.37-.953-1.015-1.144-1.752 0-.185-.095-.37-.095-.554-.094-.093-.094-.185-.19-.278-.19-.184-.094-.553.096-.922v-.184c0-.093 0-.093.095-.185 0-.09 0-.09.096-.183.19-.37.572-.646.762-.923.095-.092.095-.092.095-.184v-.092c.095-.092.095-.277.19-.37 0-.09.096-.276.096-.368 0-.185 0-.277-.096-.46-.096-.278-.154-.518-.344-.703-.858 1.2-1.37 2.546-1.37 4.113 0 2.123.903 4.006 2.414 5.324 0 0 .061.026.061-.064v-.094c0-.092.095-.092.095-.184.096-.37.096-.922.097-1.291z"/><path fill="#212121" d="M8 16c-4.411 0-8-3.589-8-8s3.589-8 8-8 8 3.589 8 8-3.589 8-8 8zM8 1C4.14 1 1 4.14 1 8c0 3.859 3.14 7 7 7 3.859 0 7-3.141 7-7 0-3.86-3.141-7-7-7z" opacity=".2"/><g><path fill="#666" d="M12.15 5h-.3c-1.172 0-2.125.937-2.125 2.088v.825c0 .434.161.91.438 1.33a6.483 6.483 0 01-.875.333l-.117.033-.105.06c-.169.097-1.012.693-1.065 2.331L8 15h8v-3c-.053-1.638-.897-2.234-1.066-2.331l-.105-.06-.117-.033a6.432 6.432 0 01-.875-.333c.277-.42.438-.897.438-1.33v-.825C14.276 5.937 13.322 5 12.15 5z"/><path fill="#FFC857" d="M14.438 10.538c-.637-.182-1.081-.432-1.525-.601-.049-.138-.153-.381-.164-.934.307-.305.527-.74.527-1.09v-.825c0-.6-.526-1.088-1.126-1.088h-.3c-.6 0-1.125.488-1.125 1.088v.825c0 .35.22.785.527 1.09-.01.553-.114.796-.164.934-.444.169-.888.419-1.525.601 0 0-.525.3-.562 1.462v1h6v-1c-.039-1.162-.563-1.462-.563-1.462z"/><path fill="#ABD7FF" d="M14.438 10.538c-.633-.181-1.075-.428-1.515-.598.027.087.031.131-.022.185-.45.488-1.388.45-1.8 0-.055-.055-.044-.099-.011-.189-.444.169-.888.419-1.526.602 0 0-.525.3-.562 1.462v2h6v-2c-.04-1.2-.564-1.462-.564-1.462z"/><path fill="#666" d="M9.15 7h-.3c-1.172 0-2.126.937-2.126 2.088v.825c0 .434.161.91.438 1.33a6.432 6.432 0 01-.875.333l-.117.033-.105.06c-.168.097-1.011.693-1.064 2.331L5 16h8v-2c-.053-1.638-.897-2.234-1.066-2.331l-.105-.06-.117-.033a6.432 6.432 0 01-.875-.333c.277-.42.438-.897.438-1.33v-.825C11.276 7.937 10.322 7 9.15 7z"/><path fill="#FFC857" d="M11.438 12.538c-.637-.182-1.081-.432-1.525-.601-.049-.138-.153-.381-.164-.934.307-.305.527-.74.527-1.09v-.825C10.276 8.488 9.75 8 9.15 8h-.3c-.6 0-1.125.488-1.125 1.088v.825c0 .35.22.785.527 1.09-.01.553-.114.796-.164.934-.444.169-.888.419-1.525.601 0 0-.525.3-.562 1.462v1h6v-1c-.039-1.162-.563-1.462-.563-1.462z"/><path fill="#59F" d="M11.438 12.538c-.633-.181-1.075-.428-1.515-.598.027.087.031.131-.022.185-.45.488-1.388.45-1.8 0-.055-.055-.044-.099-.011-.189-.444.169-.888.419-1.526.602 0 0-.525.3-.562 1.462v1h6v-1c-.04-1.2-.564-1.462-.564-1.462z"/></g></symbol><symbol viewBox="0 0 16 16" id="apps-pagetree-page-content-from-page" xmlns="http://www.w3.org/2000/svg"><path fill="#EFEFEF" d="M2 0v16h12V4l-4-4H2z"/><path fill="#FFF" d="M5.5 12.5v-9h4v1h4v8z"/><path fill="#666" d="M9 4v1h4v7H6V4h3m1-1H5v10h9V4h-4V3z"/><path fill="#333" d="M7 5h7v2H7z"/><path fill="#B9B9B9" d="M7 8h7v1H7zm0 2h7v1H7z"/><path fill="#FFF" d="M10 4V0l4 4h-4z" opacity=".6"/><path fill="#212121" d="M13 5v5L9 5h4z" opacity=".2"/><path fill="#999" d="M2 0v16h12V4l-4-4H2zm1 1h6v4h4v10H3V1zm7 .4L12.6 4H10V1.4z"/></symbol><symbol viewBox="0 0 16 16" id="apps-pagetree-page-content-from-page-hideinmenu" xmlns="http://www.w3.org/2000/svg"><g opacity=".5"><path fill="#EFEFEF" d="M2 0v16h12V4l-4-4H2z"/><path fill="#FFF" d="M5.5 12.5v-9h4v1h4v8z"/><path fill="#666" d="M9 4v1h4v7H6V4h3m1-1H5v10h9V4h-4V3z"/><path fill="#333" d="M7 5h7v2H7z"/><path fill="#B9B9B9" d="M7 8h7v1H7zm0 2h7v1H7z"/><path fill="#FFF" d="M10 4V0l4 4h-4z" opacity=".6"/><path fill="#212121" d="M13 5v5L9 5h4z" opacity=".2"/><path fill="#999" d="M2 0v16h12V4l-4-4H2zm1 1h6v4h4v10H3V1zm7 .4L12.6 4H10V1.4z"/></g></symbol><symbol viewBox="0 0 16 16" id="apps-pagetree-page-content-from-page-root" xmlns="http://www.w3.org/2000/svg"><circle cx="8" cy="8" r="8" fill="#59F"/><path fill="#AAD400" d="M14.973 7.378a7.034 7.034 0 00-3.545-5.48c-.092.097-.117.04-.117.137-.277.097-.646-.097-.923-.194a3.23 3.23 0 00-2.122-.097c-.277.097-.922.194-.646.776.184.292.645.583 1.107.195.184-.194.37-.485.645-.194.093.098.093.195.093.292-.093.29-.37.388-.646.388-.37.097-.74 0-1.108.097-.37.097-.923.194-.923.68 0 .58-.185.678-.647.775-.37 0-.553.194-.37.582.093.29.37.29.555.194.738-.388 1.384-1.358 2.214-.194l.184-.097c.185-.776.37-.29.554 0l.277.29c1.107-1.066.83.486 1.2.776-.74-.194-1.57.582-2.215.097-1.107-.872-1.845-.484-2.86.388-.83.68-1.015 1.552-.83 2.328.276.97 1.29 1.067 2.122.873.276-.098.83-.098.83.096-.185.873.83 1.455.46 2.424-.276.776.186 1.746.83 2.037.647.29 1.2-.485 1.478-1.164.092-.097 0-.29.092-.388.738-.97.646-2.424 1.568-3.394.277-.29 1.2-1.357.46-2.23 1.754-.485 1.11 1.26 1.478 2.037.276-.582.46-1.164.645-1.65.092-.29.16-.38.16-.38zM4.948 2.21c.29-.306.303-.356.594-.765a6.738 6.738 0 00-1.923 1.099l.168.177h.873s.097 0 .097-.1l.097-.103s.097 0 .097-.102l.096-.102.097-.103c-.29.205-.29.103-.194 0 0 .103 0 .103 0 0 0 .103 0 0 0 0l-.002-.001zm-1.282 9.44s-.096-.092 0 0c-.096-.092-.096-.092 0 0v-.276l-.096-.092c-.095 0-.095-.093-.19-.093s-.19-.093-.286-.093h-.191s-.095 0-.095-.092c-.668-.37-.953-1.015-1.144-1.752 0-.185-.095-.37-.095-.554-.094-.093-.094-.185-.19-.278-.19-.184-.094-.553.096-.922v-.184c0-.093 0-.093.095-.185 0-.09 0-.09.096-.183.19-.37.572-.646.762-.923.095-.092.095-.092.095-.184v-.092c.095-.092.095-.277.19-.37 0-.09.096-.276.096-.368 0-.185 0-.277-.096-.46-.096-.278-.154-.518-.344-.703-.858 1.2-1.37 2.546-1.37 4.113 0 2.123.903 4.006 2.414 5.324 0 0 .061.026.061-.064v-.094c0-.092.095-.092.095-.184.096-.37.096-.922.097-1.291z"/><path fill="#212121" d="M8 16c-4.411 0-8-3.589-8-8s3.589-8 8-8 8 3.589 8 8-3.589 8-8 8zM8 1C4.14 1 1 4.14 1 8c0 3.859 3.14 7 7 7 3.859 0 7-3.141 7-7 0-3.86-3.141-7-7-7z" opacity=".2"/><path fill="#FFF" d="M13 6H3v6.894A6.976 6.976 0 008 15c1.96 0 3.729-.808 5-2.106V6z"/><path fill="#666" d="M13 6H3v6.894c.306.312.641.595 1 .846V7h8v6.74a7.027 7.027 0 001-.846V6z"/><path fill="#333" d="M5 8h6v2H5z"/><path fill="#B9B9B9" d="M5 11h6v1H5zm0 2h6v1H5z"/></symbol><symbol viewBox="0 0 16 16" id="apps-pagetree-page-default" xmlns="http://www.w3.org/2000/svg"><path fill="#EFEFEF" d="M2 0v16h12V4l-4-4H2z"/><path fill="#FFF" d="M10 3.98V0l4 4-4-.02z" opacity=".65"/><path fill="#212121" d="M13 5v5L9 5h4z" opacity=".2"/><path fill="#999" d="M2 0v16h12V4h-.012l.004-.008L10.008.006 10 .014V0H2zm1 1h6v4h4v10H3V1zm7 .412L12.586 4H10V1.412z"/></symbol><symbol viewBox="0 0 16 16" id="apps-pagetree-page-domain" xmlns="http://www.w3.org/2000/svg"><circle cx="8" cy="8" r="8" fill="#59F"/><path fill="#AAD400" d="M14.973 7.378a7.034 7.034 0 00-3.545-5.48c-.092.097-.117.04-.117.137-.277.097-.646-.097-.923-.194a3.23 3.23 0 00-2.122-.097c-.277.097-.922.194-.646.776.184.292.645.583 1.107.195.184-.194.37-.485.645-.194.093.098.093.195.093.292-.093.29-.37.388-.646.388-.37.097-.74 0-1.108.097-.37.097-.923.194-.923.68 0 .58-.185.678-.647.775-.37 0-.553.194-.37.582.093.29.37.29.555.194.738-.388 1.384-1.358 2.214-.194l.184-.097c.185-.776.37-.29.554 0l.277.29c1.107-1.066.83.486 1.2.776-.74-.194-1.57.582-2.215.097-1.107-.872-1.845-.484-2.86.388-.83.68-1.015 1.552-.83 2.328.276.97 1.29 1.067 2.122.873.276-.098.83-.098.83.096-.185.873.83 1.455.46 2.424-.276.776.186 1.746.83 2.037.647.29 1.2-.485 1.478-1.164.092-.097 0-.29.092-.388.738-.97.646-2.424 1.568-3.394.277-.29 1.2-1.357.46-2.23 1.754-.485 1.11 1.26 1.478 2.037.276-.582.46-1.164.645-1.65.092-.29.16-.38.16-.38zM4.948 2.21c.29-.306.303-.356.594-.765a6.738 6.738 0 00-1.923 1.099l.168.177h.873s.097 0 .097-.1l.097-.103s.097 0 .097-.102l.096-.102.097-.103c-.29.205-.29.103-.194 0 0 .103 0 .103 0 0 0 .103 0 0 0 0l-.002-.001zm-1.282 9.44s-.096-.092 0 0c-.096-.092-.096-.092 0 0v-.276l-.096-.092c-.095 0-.095-.093-.19-.093s-.19-.093-.286-.093h-.191s-.095 0-.095-.092c-.668-.37-.953-1.015-1.144-1.752 0-.185-.095-.37-.095-.554-.094-.093-.094-.185-.19-.278-.19-.184-.094-.553.096-.922v-.184c0-.093 0-.093.095-.185 0-.09 0-.09.096-.183.19-.37.572-.646.762-.923.095-.092.095-.092.095-.184v-.092c.095-.092.095-.277.19-.37 0-.09.096-.276.096-.368 0-.185 0-.277-.096-.46-.096-.278-.154-.518-.344-.703-.858 1.2-1.37 2.546-1.37 4.113 0 2.123.903 4.006 2.414 5.324 0 0 .061.026.061-.064v-.094c0-.092.095-.092.095-.184.096-.37.096-.922.096-1.29l.001-.001z"/><path fill="#212121" d="M8 16c-4.411 0-8-3.589-8-8s3.589-8 8-8 8 3.589 8 8-3.589 8-8 8zM8 1C4.14 1 1 4.14 1 8c0 3.859 3.14 7 7 7 3.859 0 7-3.141 7-7 0-3.86-3.141-7-7-7z" opacity=".2"/></symbol><symbol viewBox="0 0 16 16" id="apps-pagetree-page-frontend-user" xmlns="http://www.w3.org/2000/svg"><path fill="#EFEFEF" d="M2 0v16h12V4l-4-4H2z"/><path fill="#FFF" d="M10 4V0l4 4h-4z" opacity=".65"/><path fill="#212121" d="M13 5v5L9 5h4z" opacity=".2"/><path fill="#999" d="M2 0v16h12V4l-4-4H2zm1 1h6v4h4v10H3V1zm7 .4L12.6 4H10V1.4z"/><g><path fill="#666" d="M10.725 5h-.45C8.818 5 7.588 6.205 7.588 7.631v1.237c0 .649.287 1.38.769 1.99a3.108 3.108 0 01-.044.301l-.288.127c-.441.196-.896.398-1.456.558l-.116.033-.105.06C6.135 12.059 5 12.809 5 15v1h11v-1c0-2.275-1.175-2.978-1.396-3.088l-.084-.042-.089-.026c-.562-.16-1.019-.364-1.461-.56l-.255-.113a3.819 3.819 0 01-.053-.338c.47-.606.751-1.327.751-1.966V7.631C13.412 6.156 12.232 5 10.725 5z"/><path fill="#FFC857" d="M14.156 12.806c-.949-.271-1.612-.642-2.272-.896-.063-.207-.214-.574-.25-1.418.454-.457.779-1.103.779-1.623V7.631c0-.9-.731-1.631-1.688-1.631h-.45c-.9 0-1.688.731-1.688 1.631v1.237c0 .525.329 1.177.789 1.635-.015.829-.171 1.194-.245 1.401-.666.254-1.331.629-2.287.902 0 0-.787.45-.844 2.194h9c-.056-1.8-.844-2.194-.844-2.194z"/><path fill="#79A548" d="M14.156 12.806c-.95-.271-1.612-.642-2.273-.897.04.131.047.197-.034.278-.675.731-2.081.675-2.7 0-.082-.082-.066-.149-.017-.284-.666.254-1.332.629-2.289.903 0 0-.787.45-.844 2.194H15c-.056-1.8-.844-2.194-.844-2.194z"/></g></symbol><symbol viewBox="0 0 16 16" id="apps-pagetree-page-frontend-user-hideinmenu" xmlns="http://www.w3.org/2000/svg"><g opacity=".5"><path fill="#EFEFEF" d="M2 0v16h12V4l-4-4H2z"/><path fill="#FFF" d="M10 4V0l4 4h-4z" opacity=".65"/><path fill="#212121" d="M13 5v5L9 5h4z" opacity=".2"/><path fill="#999" d="M2 0v16h12V4l-4-4H2zm1 1h6v4h4v10H3V1zm7 .4L12.6 4H10V1.4z"/></g><path fill="#666" d="M10.725 5h-.45C8.818 5 7.588 6.205 7.588 7.631v1.237c0 .649.287 1.38.769 1.99a3.108 3.108 0 01-.044.301l-.288.127c-.441.196-.896.398-1.456.558l-.116.033-.105.06C6.135 12.059 5 12.809 5 15v1h11v-1c0-2.275-1.175-2.978-1.396-3.088l-.084-.042-.089-.026c-.562-.16-1.019-.364-1.461-.56l-.255-.113a3.819 3.819 0 01-.053-.338c.47-.606.751-1.327.751-1.966V7.631C13.412 6.156 12.232 5 10.725 5z"/><path fill="#FFC857" d="M14.156 12.806c-.949-.271-1.612-.642-2.272-.896-.063-.207-.214-.574-.25-1.418.454-.457.779-1.103.779-1.623V7.631c0-.9-.731-1.631-1.688-1.631h-.45c-.9 0-1.688.731-1.688 1.631v1.237c0 .525.329 1.177.789 1.635-.015.829-.171 1.194-.245 1.401-.666.254-1.331.629-2.287.902 0 0-.787.45-.844 2.194h9c-.056-1.8-.844-2.194-.844-2.194z"/><path fill="#79A548" d="M14.156 12.806c-.95-.271-1.612-.642-2.273-.897.04.131.047.197-.034.278-.675.731-2.081.675-2.7 0-.082-.082-.066-.149-.017-.284-.666.254-1.332.629-2.289.903 0 0-.787.45-.844 2.194H15c-.056-1.8-.844-2.194-.844-2.194z"/></symbol><symbol viewBox="0 0 16 16" id="apps-pagetree-page-frontend-user-root" xmlns="http://www.w3.org/2000/svg"><circle cx="8" cy="8" r="8" fill="#59F"/><path fill="#AAD400" d="M14.973 7.378a7.034 7.034 0 00-3.545-5.48c-.092.097-.117.04-.117.137-.277.097-.646-.097-.923-.194a3.23 3.23 0 00-2.122-.097c-.277.097-.922.194-.646.776.184.292.645.583 1.107.195.184-.194.37-.485.645-.194.093.098.093.195.093.292-.093.29-.37.388-.646.388-.37.097-.74 0-1.108.097-.37.097-.923.194-.923.68 0 .58-.185.678-.647.775-.37 0-.553.194-.37.582.093.29.37.29.555.194.738-.388 1.384-1.358 2.214-.194l.184-.097c.185-.776.37-.29.554 0l.277.29c1.107-1.066.83.486 1.2.776-.74-.194-1.57.582-2.215.097-1.107-.872-1.845-.484-2.86.388-.83.68-1.015 1.552-.83 2.328.276.97 1.29 1.067 2.122.873.276-.098.83-.098.83.096-.185.873.83 1.455.46 2.424-.276.776.186 1.746.83 2.037.647.29 1.2-.485 1.478-1.164.092-.097 0-.29.092-.388.738-.97.646-2.424 1.568-3.394.277-.29 1.2-1.357.46-2.23 1.754-.485 1.11 1.26 1.478 2.037.276-.582.46-1.164.645-1.65.092-.29.16-.38.16-.38zM4.948 2.21c.29-.306.303-.356.594-.765a6.738 6.738 0 00-1.923 1.099l.168.177h.873s.097 0 .097-.1l.097-.103s.097 0 .097-.102l.096-.102.097-.103c-.29.205-.29.103-.194 0 0 .103 0 .103 0 0 0 .103 0 0 0 0l-.002-.001zm-1.282 9.44s-.096-.092 0 0c-.096-.092-.096-.092 0 0v-.276l-.096-.092c-.095 0-.095-.093-.19-.093s-.19-.093-.286-.093h-.191s-.095 0-.095-.092c-.668-.37-.953-1.015-1.144-1.752 0-.185-.095-.37-.095-.554-.094-.093-.094-.185-.19-.278-.19-.184-.094-.553.096-.922v-.184c0-.093 0-.093.095-.185 0-.09 0-.09.096-.183.19-.37.572-.646.762-.923.095-.092.095-.092.095-.184v-.092c.095-.092.095-.277.19-.37 0-.09.096-.276.096-.368 0-.185 0-.277-.096-.46-.096-.278-.154-.518-.344-.703-.858 1.2-1.37 2.546-1.37 4.113 0 2.123.903 4.006 2.414 5.324 0 0 .061.026.061-.064v-.094c0-.092.095-.092.095-.184.096-.37.096-.922.097-1.291z"/><path fill="#212121" d="M8 16c-4.411 0-8-3.589-8-8s3.589-8 8-8 8 3.589 8 8-3.589 8-8 8zM8 1C4.14 1 1 4.14 1 8c0 3.859 3.14 7 7 7 3.859 0 7-3.141 7-7 0-3.86-3.141-7-7-7z" opacity=".2"/><g><path fill="#666" d="M10.725 5h-.45C8.818 5 7.588 6.205 7.588 7.631v1.237c0 .649.287 1.38.769 1.99a3.108 3.108 0 01-.044.301l-.288.127c-.441.196-.896.398-1.456.558l-.116.033-.105.06C6.135 12.059 5 12.809 5 15v1h11v-1c0-2.275-1.175-2.978-1.396-3.088l-.084-.042-.089-.026c-.562-.16-1.019-.364-1.461-.56l-.255-.113a3.819 3.819 0 01-.053-.338c.47-.606.751-1.327.751-1.966V7.631C13.412 6.156 12.232 5 10.725 5z"/><path fill="#FFC857" d="M14.156 12.806c-.949-.271-1.612-.642-2.272-.896-.063-.207-.214-.574-.25-1.418.454-.457.779-1.103.779-1.623V7.631c0-.9-.731-1.631-1.688-1.631h-.45c-.9 0-1.688.731-1.688 1.631v1.237c0 .525.329 1.177.789 1.635-.015.829-.171 1.194-.245 1.401-.666.254-1.331.629-2.287.902 0 0-.787.45-.844 2.194h9c-.056-1.8-.844-2.194-.844-2.194z"/><path fill="#79A548" d="M14.156 12.806c-.95-.271-1.612-.642-2.273-.897.04.131.047.197-.034.278-.675.731-2.081.675-2.7 0-.082-.082-.066-.149-.017-.284-.666.254-1.332.629-2.289.903 0 0-.787.45-.844 2.194H15c-.056-1.8-.844-2.194-.844-2.194z"/></g></symbol><symbol viewBox="0 0 16 16" id="apps-pagetree-page-frontend-users" xmlns="http://www.w3.org/2000/svg"><path fill="#EFEFEF" d="M2 0v16h12V4l-4-4H2z"/><path fill="#FFF" d="M10 4V0l4 4h-4z" opacity=".65"/><path fill="#212121" d="M13 5v5L9 5h4z" opacity=".2"/><path fill="#999" d="M2 0v16h12V4l-4-4H2zm1 1h6v4h4v10H3V1zm7 .4L12.6 4H10V1.4z"/><g><path fill="#666" d="M12.15 5h-.3c-1.172 0-2.125.937-2.125 2.088v.825c0 .434.161.91.438 1.33a6.483 6.483 0 01-.875.333l-.117.033-.105.06c-.169.097-1.012.693-1.065 2.331L8 15h8v-3c-.053-1.638-.897-2.234-1.066-2.331l-.105-.06-.117-.033a6.432 6.432 0 01-.875-.333c.277-.42.438-.897.438-1.33v-.825C14.276 5.937 13.322 5 12.15 5z"/><path fill="#FFC857" d="M14.438 10.538c-.637-.182-1.081-.432-1.525-.601-.049-.138-.153-.381-.164-.934.307-.305.527-.74.527-1.09v-.825c0-.6-.526-1.088-1.126-1.088h-.3c-.6 0-1.125.488-1.125 1.088v.825c0 .35.22.785.527 1.09-.01.553-.114.796-.164.934-.444.169-.888.419-1.525.601 0 0-.525.3-.562 1.462v1h6v-1c-.039-1.162-.563-1.462-.563-1.462z"/><path fill="#AAD400" d="M14.438 10.538c-.633-.181-1.075-.428-1.515-.598.027.087.031.131-.022.185-.45.488-1.388.45-1.8 0-.055-.055-.044-.099-.011-.189-.444.169-.888.419-1.526.602 0 0-.525.3-.562 1.462v2h6v-2c-.04-1.2-.564-1.462-.564-1.462z"/><path fill="#666" d="M9.15 7h-.3c-1.172 0-2.126.937-2.126 2.088v.825c0 .434.161.91.438 1.33a6.432 6.432 0 01-.875.333l-.117.033-.105.06c-.168.097-1.011.693-1.064 2.331L5 16h8v-2c-.053-1.638-.897-2.234-1.066-2.331l-.105-.06-.117-.033a6.432 6.432 0 01-.875-.333c.277-.42.438-.897.438-1.33v-.825C11.276 7.937 10.322 7 9.15 7z"/><path fill="#FFC857" d="M11.438 12.538c-.637-.182-1.081-.432-1.525-.601-.049-.138-.153-.381-.164-.934.307-.305.527-.74.527-1.09v-.825C10.276 8.488 9.75 8 9.15 8h-.3c-.6 0-1.125.488-1.125 1.088v.825c0 .35.22.785.527 1.09-.01.553-.114.796-.164.934-.444.169-.888.419-1.525.601 0 0-.525.3-.562 1.462v1h6v-1c-.039-1.162-.563-1.462-.563-1.462z"/><path fill="#79A548" d="M11.438 12.538c-.633-.181-1.075-.428-1.515-.598.027.087.031.131-.022.185-.45.488-1.388.45-1.8 0-.055-.055-.044-.099-.011-.189-.444.169-.888.419-1.526.602 0 0-.525.3-.562 1.462v1h6v-1c-.04-1.2-.564-1.462-.564-1.462z"/></g></symbol><symbol viewBox="0 0 16 16" id="apps-pagetree-page-frontend-users-hideinmenu" xmlns="http://www.w3.org/2000/svg"><g opacity=".5"><path fill="#EFEFEF" d="M2 0v16h12V4l-4-4H2z"/><path fill="#FFF" d="M10 4V0l4 4h-4z" opacity=".65"/><path fill="#212121" d="M13 5v5L9 5h4z" opacity=".2"/><path fill="#999" d="M2 0v16h12V4l-4-4H2zm1 1h6v4h4v10H3V1zm7 .4L12.6 4H10V1.4z"/></g><path fill="#666" d="M12.15 5h-.3c-1.172 0-2.125.937-2.125 2.088v.825c0 .434.161.91.438 1.33a6.483 6.483 0 01-.875.333l-.117.033-.105.06c-.169.097-1.012.693-1.065 2.331L8 15h8v-3c-.053-1.638-.897-2.234-1.066-2.331l-.105-.06-.117-.033a6.432 6.432 0 01-.875-.333c.277-.42.438-.897.438-1.33v-.825C14.276 5.937 13.322 5 12.15 5z"/><path fill="#FFC857" d="M14.438 10.538c-.637-.182-1.081-.432-1.525-.601-.049-.138-.153-.381-.164-.934.307-.305.527-.74.527-1.09v-.825c0-.6-.526-1.088-1.126-1.088h-.3c-.6 0-1.125.488-1.125 1.088v.825c0 .35.22.785.527 1.09-.01.553-.114.796-.164.934-.444.169-.888.419-1.525.601 0 0-.525.3-.562 1.462v1h6v-1c-.039-1.162-.563-1.462-.563-1.462z"/><path fill="#AAD400" d="M14.438 10.538c-.633-.181-1.075-.428-1.515-.598.027.087.031.131-.022.185-.45.488-1.388.45-1.8 0-.055-.055-.044-.099-.011-.189-.444.169-.888.419-1.526.602 0 0-.525.3-.562 1.462v2h6v-2c-.04-1.2-.564-1.462-.564-1.462z"/><path fill="#666" d="M9.15 7h-.3c-1.172 0-2.126.937-2.126 2.088v.825c0 .434.161.91.438 1.33a6.432 6.432 0 01-.875.333l-.117.033-.105.06c-.168.097-1.011.693-1.064 2.331L5 16h8v-2c-.053-1.638-.897-2.234-1.066-2.331l-.105-.06-.117-.033a6.432 6.432 0 01-.875-.333c.277-.42.438-.897.438-1.33v-.825C11.276 7.937 10.322 7 9.15 7z"/><path fill="#FFC857" d="M11.438 12.538c-.637-.182-1.081-.432-1.525-.601-.049-.138-.153-.381-.164-.934.307-.305.527-.74.527-1.09v-.825C10.276 8.488 9.75 8 9.15 8h-.3c-.6 0-1.125.488-1.125 1.088v.825c0 .35.22.785.527 1.09-.01.553-.114.796-.164.934-.444.169-.888.419-1.525.601 0 0-.525.3-.562 1.462v1h6v-1c-.039-1.162-.563-1.462-.563-1.462z"/><path fill="#79A548" d="M11.438 12.538c-.633-.181-1.075-.428-1.515-.598.027.087.031.131-.022.185-.45.488-1.388.45-1.8 0-.055-.055-.044-.099-.011-.189-.444.169-.888.419-1.526.602 0 0-.525.3-.562 1.462v1h6v-1c-.04-1.2-.564-1.462-.564-1.462z"/></symbol><symbol viewBox="2 -3 16 16" id="apps-pagetree-page-frontend-users-root" xmlns="http://www.w3.org/2000/svg"><circle cx="10" cy="5" r="8" fill="#59F"/><path fill="#AAD400" d="M16.973 4.378a7.034 7.034 0 00-3.545-5.48c-.092.097-.117.04-.117.137-.277.097-.646-.097-.923-.194a3.23 3.23 0 00-2.122-.097c-.277.097-.922.194-.646.776.184.292.645.583 1.107.195.184-.194.37-.485.645-.194.093.098.093.195.093.292-.093.29-.37.388-.646.388-.37.097-.74 0-1.108.097-.37.097-.923.194-.923.68 0 .58-.185.678-.647.775-.37 0-.553.194-.37.582.093.29.37.29.555.194.738-.388 1.384-1.358 2.214-.194l.184-.097c.185-.776.37-.29.554 0l.277.29c1.107-1.066.83.486 1.2.776-.74-.194-1.57.582-2.215.097-1.107-.872-1.845-.484-2.86.388-.83.68-1.015 1.552-.83 2.328.276.97 1.29 1.067 2.122.873.276-.098.83-.098.83.096-.185.873.83 1.455.46 2.424-.276.776.186 1.746.83 2.037.647.29 1.2-.485 1.478-1.164.092-.097 0-.29.092-.388.738-.97.646-2.424 1.568-3.394.277-.29 1.2-1.357.46-2.23 1.754-.485 1.11 1.26 1.478 2.037.276-.582.46-1.164.645-1.65.092-.29.16-.38.16-.38zM6.948-.79c.29-.306.303-.356.594-.765A6.738 6.738 0 005.619-.456l.168.177h.873s.097 0 .097-.1l.097-.103s.097 0 .097-.102l.096-.102.097-.103c-.29.205-.29.103-.194 0 0 .103 0 .103 0 0 0 .103 0 0 0 0L6.948-.79zM5.666 8.65s-.096-.092 0 0c-.096-.092-.096-.092 0 0v-.276l-.096-.092c-.095 0-.095-.093-.19-.093s-.19-.093-.286-.093h-.191s-.095 0-.095-.092c-.668-.37-.953-1.015-1.144-1.752 0-.185-.095-.37-.095-.554-.094-.093-.094-.185-.19-.278-.19-.184-.094-.553.096-.922v-.184c0-.093 0-.093.095-.185 0-.09 0-.09.096-.183.19-.37.572-.646.762-.923.095-.092.095-.092.095-.184v-.092c.095-.092.095-.277.19-.37 0-.09.096-.276.096-.368 0-.185 0-.277-.096-.46-.096-.278-.154-.518-.344-.703-.858 1.2-1.37 2.546-1.37 4.113 0 2.123.903 4.006 2.414 5.324 0 0 .061.026.061-.064v-.094c0-.092.095-.092.095-.184.096-.37.096-.922.097-1.291z"/><path fill="#212121" d="M10 13c-4.411 0-8-3.589-8-8s3.589-8 8-8 8 3.589 8 8-3.589 8-8 8zm0-15C6.14-2 3 1.14 3 5c0 3.859 3.14 7 7 7 3.859 0 7-3.141 7-7 0-3.86-3.141-7-7-7z" opacity=".2"/><g><path fill="#666" d="M14.15 2h-.3c-1.172 0-2.125.937-2.125 2.088v.825c0 .434.161.91.438 1.33a6.483 6.483 0 01-.875.333l-.117.033-.105.06c-.169.097-1.012.693-1.065 2.331L10 12h8V9c-.053-1.638-.897-2.234-1.066-2.331l-.105-.06-.117-.033a6.432 6.432 0 01-.875-.333c.277-.42.438-.897.438-1.33v-.825C16.276 2.937 15.322 2 14.15 2z"/><path fill="#FFC857" d="M16.438 7.538c-.637-.182-1.081-.432-1.525-.601-.049-.138-.153-.381-.164-.934.307-.305.527-.74.527-1.09v-.825c0-.6-.526-1.088-1.126-1.088h-.3c-.6 0-1.125.488-1.125 1.088v.825c0 .35.22.785.527 1.09-.01.553-.114.796-.164.934-.444.169-.888.419-1.525.601 0 0-.525.3-.562 1.462v1h6V9c-.039-1.162-.563-1.462-.563-1.462z"/><path fill="#AAD400" d="M16.438 7.538c-.633-.181-1.075-.428-1.515-.598.027.087.031.131-.022.185-.45.488-1.388.45-1.8 0-.055-.055-.044-.099-.011-.189-.444.169-.888.419-1.526.602 0 0-.525.3-.562 1.462v2h6V9c-.04-1.2-.564-1.462-.564-1.462z"/><path fill="#666" d="M11.15 4h-.3c-1.172 0-2.126.937-2.126 2.088v.825c0 .434.161.91.438 1.33a6.432 6.432 0 01-.875.333l-.117.033-.105.06c-.168.097-1.011.693-1.064 2.331L7 13h8v-2c-.053-1.638-.897-2.234-1.066-2.331l-.105-.06-.117-.033a6.432 6.432 0 01-.875-.333c.277-.42.438-.897.438-1.33v-.825C13.276 4.937 12.322 4 11.15 4z"/><path fill="#FFC857" d="M13.438 9.538c-.637-.182-1.081-.432-1.525-.601-.049-.138-.153-.381-.164-.934.307-.305.527-.74.527-1.09v-.825c0-.6-.526-1.088-1.126-1.088h-.3c-.6 0-1.125.488-1.125 1.088v.825c0 .35.22.785.527 1.09-.01.553-.114.796-.164.934-.444.169-.888.419-1.525.601 0 0-.525.3-.562 1.462v1h6v-1c-.039-1.162-.563-1.462-.563-1.462z"/><path fill="#79A548" d="M13.438 9.538c-.633-.181-1.075-.428-1.515-.598.027.087.031.131-.022.185-.45.488-1.388.45-1.8 0-.055-.055-.044-.099-.011-.189-.444.169-.888.419-1.526.602 0 0-.525.3-.562 1.462v1h6v-1c-.04-1.2-.564-1.462-.564-1.462z"/></g></symbol><symbol viewBox="0 0 16 16" id="apps-pagetree-page-hideinmenu" xmlns="http://www.w3.org/2000/svg"><g opacity=".5"><path fill="#EFEFEF" d="M2 0v16h12V4l-4-4H2z"/><path fill="#FFF" d="M10 3.98V0l4 4-4-.02z" opacity=".65"/><path fill="#212121" d="M13 5v5L9 5h4z" opacity=".2"/><path fill="#999" d="M2 0v16h12V4h-.012l.004-.008L10.008.006 10 .014V0H2zm1 1h6v4h4v10H3V1zm7 .412L12.586 4H10V1.412z"/></g></symbol><symbol viewBox="0 0 16 16" id="apps-pagetree-page-mountpoint" xmlns="http://www.w3.org/2000/svg"><path fill="#EFEFEF" d="M2 0v16h12V4l-4-4H2z"/><path fill="#FFF" d="M10 4V0l4 4h-4z" opacity=".65"/><path fill="#212121" d="M13 5v5L9 5h4z" opacity=".2"/><path fill="#999" d="M2 0v16h12V4h-.012l.004-.008L10.008.006 10 .014V0H2zm1 1h6v4h4v10H3V1zm7 .412L12.586 4H10V1.412z"/><g><path fill="#C83C3C" d="M5 5h11v11H5V5z"/><path fill="#212121" d="M15 6v9H6V6h9m1-1H5v11h11V5z" opacity=".2"/><path fill="#FFF" d="M11 13l-4-2.5L11 8v2h3v1h-3z"/></g></symbol><symbol viewBox="0 0 16 16" id="apps-pagetree-page-mountpoint-hideinmenu" xmlns="http://www.w3.org/2000/svg"><g opacity=".5"><path fill="#EFEFEF" d="M2 0v16h12V4l-4-4H2z"/><path fill="#FFF" d="M10 4V0l4 4h-4z" opacity=".65"/><path fill="#212121" d="M13 5v5L9 5h4z" opacity=".2"/><path fill="#999" d="M2 0v16h12V4h-.012l.004-.008L10.008.006 10 .014V0H2zm1 1h6v4h4v10H3V1zm7 .412L12.586 4H10V1.412z"/></g><path fill="#C83C3C" d="M5 5h11v11H5V5z"/><path fill="#212121" d="M15 6v9H6V6h9m1-1H5v11h11V5z" opacity=".2"/><path fill="#FFF" d="M11 13l-4-2.5L11 8v2h3v1h-3z"/></symbol><symbol viewBox="0 0 16 16" id="apps-pagetree-page-mountpoint-root" xmlns="http://www.w3.org/2000/svg"><circle cx="8" cy="8" r="8" fill="#59F"/><path fill="#AAD400" d="M14.973 7.378a7.034 7.034 0 00-3.545-5.48c-.092.097-.117.04-.117.137-.277.097-.646-.097-.923-.194a3.23 3.23 0 00-2.122-.097c-.277.097-.922.194-.646.776.184.292.645.583 1.107.195.184-.194.37-.485.645-.194.093.098.093.195.093.292-.093.29-.37.388-.646.388-.37.097-.74 0-1.108.097-.37.097-.923.194-.923.68 0 .58-.185.678-.647.775-.37 0-.553.194-.37.582.093.29.37.29.555.194.738-.388 1.384-1.358 2.214-.194l.184-.097c.185-.776.37-.29.554 0l.277.29c1.107-1.066.83.486 1.2.776-.74-.194-1.57.582-2.215.097-1.107-.872-1.845-.484-2.86.388-.83.68-1.015 1.552-.83 2.328.276.97 1.29 1.067 2.122.873.276-.098.83-.098.83.096-.185.873.83 1.455.46 2.424-.276.776.186 1.746.83 2.037.647.29 1.2-.485 1.478-1.164.092-.097 0-.29.092-.388.738-.97.646-2.424 1.568-3.394.277-.29 1.2-1.357.46-2.23 1.754-.485 1.11 1.26 1.478 2.037.276-.582.46-1.164.645-1.65.092-.29.16-.38.16-.38zM4.948 2.21c.29-.306.303-.356.594-.765a6.738 6.738 0 00-1.923 1.099l.168.177h.873s.097 0 .097-.1l.097-.103s.097 0 .097-.102l.096-.102.097-.103c-.29.205-.29.103-.194 0 0 .103 0 .103 0 0 0 .103 0 0 0 0l-.002-.001zm-1.282 9.44s-.096-.092 0 0c-.096-.092-.096-.092 0 0v-.276l-.096-.092c-.095 0-.095-.093-.19-.093s-.19-.093-.286-.093h-.191s-.095 0-.095-.092c-.668-.37-.953-1.015-1.144-1.752 0-.185-.095-.37-.095-.554-.094-.093-.094-.185-.19-.278-.19-.184-.094-.553.096-.922v-.184c0-.093 0-.093.095-.185 0-.09 0-.09.096-.183.19-.37.572-.646.762-.923.095-.092.095-.092.095-.184v-.092c.095-.092.095-.277.19-.37 0-.09.096-.276.096-.368 0-.185 0-.277-.096-.46-.096-.278-.154-.518-.344-.703-.858 1.2-1.37 2.546-1.37 4.113 0 2.123.903 4.006 2.414 5.324 0 0 .061.026.061-.064v-.094c0-.092.095-.092.095-.184.096-.37.096-.922.097-1.291z"/><path fill="#212121" d="M8 16c-4.411 0-8-3.589-8-8s3.589-8 8-8 8 3.589 8 8-3.589 8-8 8zM8 1C4.14 1 1 4.14 1 8c0 3.859 3.14 7 7 7 3.859 0 7-3.141 7-7 0-3.86-3.141-7-7-7z" opacity=".2"/><g><path fill="#C83C3C" d="M5 5h11v11H5V5z"/><path fill="#212121" d="M15 6v9H6V6h9m1-1H5v11h11V5z" opacity=".2"/><path fill="#FFF" d="M11 13l-4-2.5L11 8v2h3v1h-3z"/></g></symbol><symbol viewBox="0 0 16 16" id="apps-pagetree-page-recycler" xmlns="http://www.w3.org/2000/svg"><path fill="#8c8c8c" d="M6 1.5h4V4H6V1.5z"/><path fill="#b9b9b9" d="M3 5.5h10L12 15H4z"/><path fill="#b9b9b9" d="M2 3h12v3H2V3z"/><path fill="#212121" d="M3.033 6h9.917l-.06.937-9.78.012z" opacity=".15"/></symbol><symbol viewBox="0 0 16 16" id="apps-pagetree-page-recycler-hideinmenu" xmlns="http://www.w3.org/2000/svg"><path fill="#8c8c8c" d="M6 1.5h4V4H6V1.5z"/><path fill="#b9b9b9" d="M3 5.5h10L12 15H4z"/><path fill="#b9b9b9" d="M2 3h12v3H2V3z"/><path fill="#212121" d="M3.033 6h9.917l-.06.937-9.78.012z" opacity=".15"/></symbol><symbol viewBox="0 0 16 16" id="apps-pagetree-page-shortcut" xmlns="http://www.w3.org/2000/svg"><path fill="#EFEFEF" d="M2 0v16h12V4l-4-4H2z"/><path fill="#FFF" d="M10 4V0l4 4h-4z" opacity=".65"/><path fill="#212121" d="M13 5v5L9 5h4z" opacity=".2"/><path fill="#999" d="M2 0v16h12V4h-.012l.004-.008L10.008.006 10 .014V0H2zm1 1h6v4h4v10H3V1zm7 .412L12.586 4H10V1.412z"/><g><path fill="#666" d="M5 5h11v11H5z"/><path fill="#FFF" d="M6 6h9v9H6z"/><path fill="#212121" d="M10 11H9v2H8v-3h2V8l4 2.5-4 2.5z"/></g></symbol><symbol viewBox="0 0 16 16" id="apps-pagetree-page-shortcut-external" xmlns="http://www.w3.org/2000/svg"><path fill="#666" d="M11.733 1.412c-.615 0-1.23.236-1.701.707L8.044 4.107a2.4 2.4 0 000 3.403l.447.447a2.4 2.4 0 003.403 0l1.988-1.988a2.4 2.4 0 000-3.403l-.447-.447a2.404 2.404 0 00-1.702-.707zm-.182 1.121c.436-.022.936.18 1.336.58.64.64.771 1.538.295 2.016l-2.127 2.127c-.477.477-1.378.347-2.018-.293s-.77-1.539-.293-2.018l2.127-2.127c.179-.179.418-.272.68-.285zM5.808 7.336c-.615 0-1.23.236-1.701.707l-1.988 1.988a2.4 2.4 0 000 3.403l.447.447a2.4 2.4 0 003.403 0l1.988-1.988a2.4 2.4 0 000-3.403l-.447-.447a2.407 2.407 0 00-1.702-.707zm-.183 1.122c.436-.022.938.18 1.338.58.64.64.77 1.539.293 2.018l-2.127 2.127c-.477.477-1.376.345-2.016-.295s-.771-1.538-.295-2.016l2.127-2.127c.178-.179.418-.274.68-.287z"/><path fill="#212121" d="M8.018 7.535l.447.447a2.39 2.39 0 001.201.65l1.316-1.316c-.487.429-1.35.293-1.971-.328.318-.207-1.145.201-.993.547zm-.503.512l.447.447c.343.343.557.762.65 1.201l-1.316 1.316c.429-.487.293-1.351-.328-1.971-.208.317.2-1.145.547-.993z" opacity=".3"/><path fill="#999" d="M5.002 9.458l4.463-4.463c.256-.256.809-.119 1.234.306.425.425.562.978.306 1.234l-4.463 4.463c-.256.256-.809.119-1.234-.306-.425-.425-.562-.978-.306-1.234z"/></symbol><symbol viewBox="0 0 16 16" id="apps-pagetree-page-shortcut-external-hideinmenu" xmlns="http://www.w3.org/2000/svg"><g opacity=".5"><path fill="#666" d="M11.733 1.412c-.615 0-1.23.236-1.701.707L8.044 4.107a2.4 2.4 0 000 3.403l.447.447a2.4 2.4 0 003.403 0l1.988-1.988a2.4 2.4 0 000-3.403l-.447-.447a2.404 2.404 0 00-1.702-.707zm-.182 1.121c.436-.022.936.18 1.336.58.64.64.771 1.538.295 2.016l-2.127 2.127c-.477.477-1.378.347-2.018-.293s-.77-1.539-.293-2.018l2.127-2.127c.179-.179.418-.272.68-.285zM5.808 7.336c-.615 0-1.23.236-1.701.707l-1.988 1.988a2.4 2.4 0 000 3.403l.447.447a2.4 2.4 0 003.403 0l1.988-1.988a2.4 2.4 0 000-3.403l-.447-.447a2.407 2.407 0 00-1.702-.707zm-.183 1.122c.436-.022.938.18 1.338.58.64.64.77 1.539.293 2.018l-2.127 2.127c-.477.477-1.376.345-2.016-.295s-.771-1.538-.295-2.016l2.127-2.127c.178-.179.418-.274.68-.287z"/><path fill="#121212" d="M8.018 7.535l.447.447a2.39 2.39 0 001.201.65l1.316-1.316c-.487.429-1.35.293-1.971-.328.318-.207-1.145.201-.993.547zm-.503.512l.447.447c.343.343.557.762.65 1.201l-1.316 1.316c.429-.487.293-1.351-.328-1.971-.208.317.2-1.145.547-.993z" opacity=".3"/><path fill="#999" d="M5.002 9.458l4.463-4.463c.256-.256.809-.119 1.234.306.425.425.562.978.306 1.234l-4.463 4.463c-.256.256-.809.119-1.234-.306-.425-.425-.562-.978-.306-1.234z"/></g></symbol><symbol viewBox="0 0 16 16" id="apps-pagetree-page-shortcut-external-root" xmlns="http://www.w3.org/2000/svg"><circle cx="8" cy="8" r="8" fill="#59F"/><path fill="#AAD400" d="M14.973 7.378a7.034 7.034 0 00-3.545-5.48c-.092.097-.117.04-.117.137-.277.097-.646-.097-.923-.194a3.23 3.23 0 00-2.122-.097c-.277.097-.922.194-.646.776.184.292.645.583 1.107.195.184-.194.37-.485.645-.194.093.098.093.195.093.292-.093.29-.37.388-.646.388-.37.097-.74 0-1.108.097-.37.097-.923.194-.923.68 0 .58-.185.678-.647.775-.37 0-.553.194-.37.582.093.29.37.29.555.194.738-.388 1.384-1.358 2.214-.194l.184-.097c.185-.776.37-.29.554 0l.277.29c1.107-1.066.83.486 1.2.776-.74-.194-1.57.582-2.215.097-1.107-.872-1.845-.484-2.86.388-.83.68-1.015 1.552-.83 2.328.276.97 1.29 1.067 2.122.873.276-.098.83-.098.83.096-.185.873.83 1.455.46 2.424-.276.776.186 1.746.83 2.037.647.29 1.2-.485 1.478-1.164.092-.097 0-.29.092-.388.738-.97.646-2.424 1.568-3.394.277-.29 1.2-1.357.46-2.23 1.754-.485 1.11 1.26 1.478 2.037.276-.582.46-1.164.645-1.65.092-.29.16-.38.16-.38zM4.948 2.21c.29-.306.303-.356.594-.765a6.738 6.738 0 00-1.923 1.099l.168.177h.873s.097 0 .097-.1l.097-.103s.097 0 .097-.102l.096-.102.097-.103c-.29.205-.29.103-.194 0 0 .103 0 .103 0 0 0 .103 0 0 0 0l-.002-.001zm-1.282 9.44s-.096-.092 0 0c-.096-.092-.096-.092 0 0v-.276l-.096-.092c-.095 0-.095-.093-.19-.093s-.19-.093-.286-.093h-.191s-.095 0-.095-.092c-.668-.37-.953-1.015-1.144-1.752 0-.185-.095-.37-.095-.554-.094-.093-.094-.185-.19-.278-.19-.184-.094-.553.096-.922v-.184c0-.093 0-.093.095-.185 0-.09 0-.09.096-.183.19-.37.572-.646.762-.923.095-.092.095-.092.095-.184v-.092c.095-.092.095-.277.19-.37 0-.09.096-.276.096-.368 0-.185 0-.277-.096-.46-.096-.278-.154-.518-.344-.703-.858 1.2-1.37 2.546-1.37 4.113 0 2.123.903 4.006 2.414 5.324 0 0 .061.026.061-.064v-.094c0-.092.095-.092.095-.184.096-.37.096-.922.097-1.291z"/><path fill="#212121" d="M8 16c-4.411 0-8-3.589-8-8s3.589-8 8-8 8 3.589 8 8-3.589 8-8 8zM8 1C4.14 1 1 4.14 1 8c0 3.859 3.14 7 7 7 3.859 0 7-3.141 7-7 0-3.86-3.141-7-7-7z" opacity=".2"/><g><path fill="#666" d="M13.05 5c-.705 0-1.369.276-1.869.776L9.823 7.134a2.628 2.628 0 00-.77 1.913h-.049c-.705 0-1.369.276-1.869.776L5.776 11.18A2.632 2.632 0 005 13.05c0 .705.276 1.369.777 1.869l.305.305c.5.5 1.164.776 1.869.776.705 0 1.369-.276 1.869-.776l1.358-1.358a2.63 2.63 0 00.77-1.918l.059.001c.702 0 1.362-.274 1.859-.771l1.358-1.358a2.645 2.645 0 000-3.738l-.305-.305A2.626 2.626 0 0013.05 5z"/><path fill="#DDD" d="M13.05 6c-.42 0-.84.161-1.162.483L10.53 7.841a1.64 1.64 0 000 2.324l.305.305a1.64 1.64 0 002.324 0l1.358-1.358a1.64 1.64 0 000-2.324l-.305-.305A1.638 1.638 0 0013.05 6zm-.125.766c.298-.015.639.123.913.396.437.437.527 1.051.201 1.377l-1.453 1.453c-.326.326-.941.237-1.378-.2s-.526-1.051-.2-1.378l1.453-1.453a.685.685 0 01.464-.195zm-3.922 3.281c-.42 0-.84.161-1.162.483l-1.358 1.358a1.64 1.64 0 000 2.324l.305.305a1.64 1.64 0 002.324 0l1.358-1.358a1.64 1.64 0 000-2.324l-.305-.305a1.64 1.64 0 00-1.162-.483zm-.126.766c.298-.015.64.123.914.396.437.437.526 1.051.2 1.378L8.538 14.04c-.326.326-.94.236-1.377-.201-.437-.437-.527-1.051-.201-1.377l1.453-1.453a.686.686 0 01.464-.196z"/><path fill="#212121" d="M10.529 10.166l.305.305c.234.234.521.381.821.444l.899-.899c-.333.293-.922.2-1.347-.224.217-.141-.782.138-.678.374zm-.36.366l.305.305c.234.234.381.521.444.821l-.899.899c.293-.333.2-.923-.224-1.347-.142.217.136-.782.374-.678z" opacity=".3"/><path fill="#FFF" d="M8.452 11.496l3.049-3.049c.175-.175.553-.081.843.209.29.29.384.668.209.843l-3.049 3.049c-.175.175-.553.081-.843-.209-.29-.29-.384-.668-.209-.843z"/></g></symbol><symbol viewBox="0 0 16 16" id="apps-pagetree-page-shortcut-hideinmenu" xmlns="http://www.w3.org/2000/svg"><g opacity=".5"><path fill="#EFEFEF" d="M2 0v16h12V4l-4-4H2z"/><path fill="#FFF" d="M10 4V0l4 4h-4z" opacity=".65"/><path fill="#212121" d="M13 5v5L9 5h4z" opacity=".2"/><path fill="#999" d="M2 0v16h12V4h-.012l.004-.008L10.008.006 10 .014V0H2zm1 1h6v4h4v10H3V1zm7 .412L12.586 4H10V1.412z"/></g><path fill="#666" d="M5 5h11v11H5z"/><path fill="#FFF" d="M6 6h9v9H6z"/><path fill="#212121" d="M10 11H9v2H8v-3h2V8l4 2.5-4 2.5z"/></symbol><symbol viewBox="0 0 16 16" id="apps-pagetree-page-shortcut-root" xmlns="http://www.w3.org/2000/svg"><circle cx="8" cy="8" r="8" fill="#59F"/><path fill="#AAD400" d="M14.973 7.378a7.034 7.034 0 00-3.545-5.48c-.092.097-.117.04-.117.137-.277.097-.646-.097-.923-.194a3.23 3.23 0 00-2.122-.097c-.277.097-.922.194-.646.776.184.292.645.583 1.107.195.184-.194.37-.485.645-.194.093.098.093.195.093.292-.093.29-.37.388-.646.388-.37.097-.74 0-1.108.097-.37.097-.923.194-.923.68 0 .58-.185.678-.647.775-.37 0-.553.194-.37.582.093.29.37.29.555.194.738-.388 1.384-1.358 2.214-.194l.184-.097c.185-.776.37-.29.554 0l.277.29c1.107-1.066.83.486 1.2.776-.74-.194-1.57.582-2.215.097-1.107-.872-1.845-.484-2.86.388-.83.68-1.015 1.552-.83 2.328.276.97 1.29 1.067 2.122.873.276-.098.83-.098.83.096-.185.873.83 1.455.46 2.424-.276.776.186 1.746.83 2.037.647.29 1.2-.485 1.478-1.164.092-.097 0-.29.092-.388.738-.97.646-2.424 1.568-3.394.277-.29 1.2-1.357.46-2.23 1.754-.485 1.11 1.26 1.478 2.037.276-.582.46-1.164.645-1.65.092-.29.16-.38.16-.38zM4.948 2.21c.29-.306.303-.356.594-.765a6.738 6.738 0 00-1.923 1.099l.168.177h.873s.097 0 .097-.1l.097-.103s.097 0 .097-.102l.096-.102.097-.103c-.29.205-.29.103-.194 0 0 .103 0 .103 0 0 0 .103 0 0 0 0l-.002-.001zm-1.282 9.44s-.096-.092 0 0c-.096-.092-.096-.092 0 0v-.276l-.096-.092c-.095 0-.095-.093-.19-.093s-.19-.093-.286-.093h-.191s-.095 0-.095-.092c-.668-.37-.953-1.015-1.144-1.752 0-.185-.095-.37-.095-.554-.094-.093-.094-.185-.19-.278-.19-.184-.094-.553.096-.922v-.184c0-.093 0-.093.095-.185 0-.09 0-.09.096-.183.19-.37.572-.646.762-.923.095-.092.095-.092.095-.184v-.092c.095-.092.095-.277.19-.37 0-.09.096-.276.096-.368 0-.185 0-.277-.096-.46-.096-.278-.154-.518-.344-.703-.858 1.2-1.37 2.546-1.37 4.113 0 2.123.903 4.006 2.414 5.324 0 0 .061.026.061-.064v-.094c0-.092.095-.092.095-.184.096-.37.096-.922.097-1.291z"/><path fill="#212121" d="M8 16c-4.411 0-8-3.589-8-8s3.589-8 8-8 8 3.589 8 8-3.589 8-8 8zM8 1C4.14 1 1 4.14 1 8c0 3.859 3.14 7 7 7 3.859 0 7-3.141 7-7 0-3.86-3.141-7-7-7z" opacity=".2"/><g><path fill="#666" d="M5 5h11v11H5z"/><path fill="#FFF" d="M6 6h9v9H6z"/><path fill="#212121" d="M10 11H9v2H8v-3h2V8l4 2.5-4 2.5z"/></g></symbol><symbol viewBox="0 0 16 16" id="apps-pagetree-root" xmlns="http://www.w3.org/2000/svg"><path fill="#666" d="M12.053 11.026c-.238.07-.427.095-.674.095-2.033 0-5.017-7.1-5.017-9.462 0-.87.207-1.16.497-1.41C4.373.54 1.39 1.452.435 2.613c-.207.29-.332.746-.332 1.326C.103 7.628 4.04 16 6.82 16c1.283 0 3.45-2.114 5.233-4.974M10.756 0c2.57 0 5.14.415 5.14 1.865 0 2.943-1.865 6.508-2.818 6.508-1.7 0-3.814-4.725-3.814-7.088C9.264.207 9.68 0 10.756 0"/></symbol><symbol viewBox="0 0 16 16" id="apps-pagetree-spacer" xmlns="http://www.w3.org/2000/svg"><path fill="#666" d="M1 7h14v2H1z"/><path fill="#999" d="M10.5 5h-5L8 2zm0 6h-5L8 14z"/></symbol><symbol viewBox="0 0 16 16" id="apps-pagetree-spacer-hideinmenu" xmlns="http://www.w3.org/2000/svg"><g opacity=".5"><path fill="#666" d="M1 7h14v2H1z"/><path fill="#999" d="M10.5 5h-5L8 2zm0 6h-5L8 14z"/></g></symbol><symbol viewBox="0 0 16 16" id="apps-pagetree-spacer-root" xmlns="http://www.w3.org/2000/svg"><circle cx="8" cy="8" r="8" fill="#59F"/><path fill="#AAD400" d="M14.973 7.378a7.034 7.034 0 00-3.545-5.48c-.092.097-.117.04-.117.137-.277.097-.646-.097-.923-.194a3.23 3.23 0 00-2.122-.097c-.277.097-.922.194-.646.776.184.292.645.583 1.107.195.184-.194.37-.485.645-.194.093.098.093.195.093.292-.093.29-.37.388-.646.388-.37.097-.74 0-1.108.097-.37.097-.923.194-.923.68 0 .58-.185.678-.647.775-.37 0-.553.194-.37.582.093.29.37.29.555.194.738-.388 1.384-1.358 2.214-.194l.184-.097c.185-.776.37-.29.554 0l.277.29c1.107-1.066.83.486 1.2.776-.74-.194-1.57.582-2.215.097-1.107-.872-1.845-.484-2.86.388-.83.68-1.015 1.552-.83 2.328.276.97 1.29 1.067 2.122.873.276-.098.83-.098.83.096-.185.873.83 1.455.46 2.424-.276.776.186 1.746.83 2.037.647.29 1.2-.485 1.478-1.164.092-.097 0-.29.092-.388.738-.97.646-2.424 1.568-3.394.277-.29 1.2-1.357.46-2.23 1.754-.485 1.11 1.26 1.478 2.037.276-.582.46-1.164.645-1.65.092-.29.16-.38.16-.38zM4.948 2.21c.29-.306.303-.356.594-.765a6.738 6.738 0 00-1.923 1.099l.168.177h.873s.097 0 .097-.1l.097-.103s.097 0 .097-.102l.096-.102.097-.103c-.29.205-.29.103-.194 0 0 .103 0 .103 0 0 0 .103 0 0 0 0l-.002-.001zm-1.282 9.44s-.096-.092 0 0c-.096-.092-.096-.092 0 0v-.276l-.096-.092c-.095 0-.095-.093-.19-.093s-.19-.093-.286-.093h-.191s-.095 0-.095-.092c-.668-.37-.953-1.015-1.144-1.752 0-.185-.095-.37-.095-.554-.094-.093-.094-.185-.19-.278-.19-.184-.094-.553.096-.922v-.184c0-.093 0-.093.095-.185 0-.09 0-.09.096-.183.19-.37.572-.646.762-.923.095-.092.095-.092.095-.184v-.092c.095-.092.095-.277.19-.37 0-.09.096-.276.096-.368 0-.185 0-.277-.096-.46-.096-.278-.154-.518-.344-.703-.858 1.2-1.37 2.546-1.37 4.113 0 2.123.903 4.006 2.414 5.324 0 0 .061.026.061-.064v-.094c0-.092.095-.092.095-.184.096-.37.096-.922.096-1.29l.001-.001z"/><path fill="#212121" d="M8 16c-4.411 0-8-3.589-8-8s3.589-8 8-8 8 3.589 8 8-3.589 8-8 8zM8 1C4.14 1 1 4.14 1 8c0 3.859 3.14 7 7 7 3.859 0 7-3.141 7-7 0-3.86-3.141-7-7-7z" opacity=".2"/></symbol><symbol viewBox="0 0 16 16" id="apps-toolbar-menu-actions" xmlns="http://www.w3.org/2000/svg"><g class="icon-color"><path d="M14 2v2H2V2h12m.5-1h-13a.5.5 0 00-.5.5v3a.5.5 0 00.5.5h13a.5.5 0 00.5-.5v-3a.5.5 0 00-.5-.5zM14 7v2H2V7h12m.5-1h-13a.5.5 0 00-.5.5v3a.5.5 0 00.5.5h13a.5.5 0 00.5-.5v-3a.5.5 0 00-.5-.5zm-.5 6v2H2v-2h12m.5-1h-13a.5.5 0 00-.5.5v3a.5.5 0 00.5.5h13a.5.5 0 00.5-.5v-3a.5.5 0 00-.5-.5z"/><path d="M2 2h8v2H2zm0 5h5v2H2zm0 5h10v2H2z"/></g></symbol><symbol viewBox="0 0 16 16" id="apps-toolbar-menu-cache" xmlns="http://www.w3.org/2000/svg"><path d="M6.011 14.707l5.811-7.999c.161-.224.141-.669-.285-.669H9.234c-.271 0-.393-.2-.262-.447l2.046-3.875c.147-.24.143-.717-.3-.717H6.514a.675.675 0 00-.618.477L4.12 8.527c-.066.262.105.477.383.477h2.039c.284 0 .423.211.325.472 0 0-1.866 4.929-1.866 5.025a.498.498 0 00.865.34.467.467 0 00.145-.134z"/></symbol><symbol viewBox="0 0 16 16" id="apps-toolbar-menu-help" xmlns="http://www.w3.org/2000/svg"><g class="icon-color"><path d="M8 1.5c3.584 0 6.5 2.916 6.5 6.5s-2.916 6.5-6.5 6.5S1.5 11.584 1.5 8 4.416 1.5 8 1.5M8 0a8 8 0 100 16A8 8 0 008 0z"/><path d="M8.75 11h-1.5a.25.25 0 00-.25.25v1.5c0 .138.112.25.25.25h1.5a.25.25 0 00.25-.25v-1.5a.25.25 0 00-.25-.25zm2.201-5.549A3.01 3.01 0 008.552 3.05a3.003 3.003 0 00-3.541 2.683c-.012.143.111.267.255.267h1.511c.127 0 .219-.098.247-.222A1.002 1.002 0 019 6a.983.983 0 01-.482.833A2.984 2.984 0 007 9.433v.317c0 .138.112.25.25.25h1.5A.25.25 0 009 9.75v-.317c0-.359.201-.659.486-.835a2.99 2.99 0 001.465-3.147z"/></g></symbol><symbol viewBox="0 0 16 16" id="apps-toolbar-menu-opendocs" xmlns="http://www.w3.org/2000/svg"><path d="M13.707 3.207l-1.914-1.914A1 1 0 0011.086 1H2.5a.5.5 0 00-.5.5v13a.5.5 0 00.5.5h11a.5.5 0 00.5-.5V3.914a1 1 0 00-.293-.707zM11 2l2 2h-2V2zm2 12H3V2h7v2.5a.5.5 0 00.5.5H13v9z"/></symbol><symbol viewBox="0 0 16 16" id="apps-toolbar-menu-search" xmlns="http://www.w3.org/2000/svg"><path d="M13.92 15c-.29 0-.56-.12-.76-.32l-2.89-2.88c-.98.68-2.16 1.04-3.36 1.04C3.65 12.85 1 10.2 1 6.92 1 3.65 3.65 1 6.92 1s5.92 2.65 5.92 5.92c0 1.19-.36 2.37-1.04 3.36l2.89 2.89c.19.19.31.47.31.76 0 .58-.49 1.07-1.08 1.07zm-7-12.58c-2.48 0-4.5 2.02-4.5 4.5s2.02 4.5 4.5 4.5 4.5-2.02 4.5-4.5-2.02-4.5-4.5-4.5z"/></symbol><symbol viewBox="0 0 16 16" id="apps-toolbar-menu-shortcut" xmlns="http://www.w3.org/2000/svg"><path d="M5.323 5H1C.109 5-.337 6.077.293 6.707l3.534 3.534-1.755 4.388c-.327.816.484 1.626 1.3 1.3L8 14.077l4.629 1.851c.816.327 1.626-.484 1.3-1.3l-1.755-4.388 3.534-3.534C16.337 6.077 15.891 5 15 5h-4.323L8.928.629c-.335-.838-1.522-.838-1.857 0L5.323 5z"/></symbol><symbol viewBox="0 0 16 16" id="apps-toolbar-menu-systeminformation" xmlns="http://www.w3.org/2000/svg"><g class="icon-color"><path d="M14.5 1h-13a.5.5 0 00-.5.5v13a.5.5 0 00.5.5h13a.5.5 0 00.5-.5v-13a.5.5 0 00-.5-.5zM14 14H2V3h12v11z"/><path d="M4 5h1v1H4zm2 0h6v1H6zM4 7h1v1H4zm2 0h6v1H6zM4 9h1v1H4zm2 0h6v1H6zm-2 2h1v1H4zm2 0h6v1H6z"/></g></symbol><symbol viewBox="0 0 16 16" id="apps-toolbar-menu-workspace" xmlns="http://www.w3.org/2000/svg"><path d="M14.5 4H13V1.5a.5.5 0 00-.5-.5h-9a.5.5 0 00-.5.5V3H1.5a.5.5 0 00-.5.5v9a.5.5 0 00.5.5H4v1.5a.5.5 0 00.5.5h10a.5.5 0 00.5-.5v-10a.5.5 0 00-.5-.5zM4 2h8v8h-1V3.5a.5.5 0 00-.5-.5H4V2zM2 4h8v8H2V4zm12 10H5v-1h5.5a.5.5 0 00.5-.5V11h1.5a.5.5 0 00.5-.5V5h1v9z"/></symbol></svg>