<?xml version="1.0" encoding="utf-8"?><svg class="typo3-icons-avatar" style="display: none;" xmlns="http://www.w3.org/2000/svg" xmlns:xlink="http://www.w3.org/1999/xlink"><symbol viewBox="0 0 64 64" id="avatar-default" xmlns="http://www.w3.org/2000/svg"><path fill="#666" d="M0 0h64v64H0z"/><path fill="#FFF" d="M46.6 41.2c-3.3-.9-5.7-2.2-8-3.1 0 .5-.1.9-.5 1.3-1.4 1.5-3.6 2.4-6.1 2.4-2.5 0-4.8-.9-6.1-2.4-.5-.5-.6-.9-.5-1.4-2.3 1-4.7 2.2-8 3.1 0 0-3.1 1.8-3.4 8.8h36c-.2-7.1-3.4-8.7-3.4-8.7z"/><path fill="#FFF" d="M32 34.3c-1.6 0-3.2-.9-4.5-2.2-.1 5.4-1.7 5.9-.9 6.7 2.5 2.7 8.1 2.9 10.8 0 .8-.8-.6-1.3-.9-6.8-1.3 1.3-2.9 2.3-4.5 2.3z"/><path fill="#FFF" d="M32 34.3c-3.8 0-7.7-5.2-7.7-8.8v-5c0-3.6 3.2-6.5 6.8-6.5h1.8c3.8 0 6.8 2.9 6.8 6.5v5c-.1 3.6-3.9 8.8-7.7 8.8z"/></symbol></svg>