<?xml version="1.0" encoding="utf-8"?><svg class="typo3-icons-content" style="display: none;" xmlns="http://www.w3.org/2000/svg" xmlns:xlink="http://www.w3.org/1999/xlink"><symbol viewBox="0 0 16 16" id="content-accordion" xmlns="http://www.w3.org/2000/svg"><path fill="#CCC" d="M2 2h12v12H2z"/><path fill="#999" d="M13 3v10H3V3h10m1-1H2v12h12V2z"/><path fill="#FFF" d="M1 5h14v6H1z"/><path fill="#666" d="M14 6v4H2V6m13-1H1v6h14V5z"/><path fill="#CCC" d="M4 7h8v2H4z"/></symbol><symbol viewBox="0 0 16 16" id="content-audio" xmlns="http://www.w3.org/2000/svg"><path fill="#323232" d="M8 1C4.1 1 1 4.1 1 8s3.1 7 7 7 7-3.1 7-7-3.1-7-7-7zm0 9c-1.1 0-2-.9-2-2s.9-2 2-2 2 .9 2 2-.9 2-2 2z"/><path d="M9.9 7.5c.1.2.1.3.1.5 0 1.1-.9 2-2 2-.2 0-.3 0-.5-.1l3.1 4.5c1.7-.7 3.1-2.1 3.8-3.8L9.9 7.5zM6 8c0-1.1.9-2 2-2 .2 0 .3 0 .5.1L5.4 1.5c-1.8.7-3.2 2.1-3.9 3.9L6 8.5V8z" fill="#FFF" opacity=".15"/><path fill="#1A1A1A" d="M8 2c3.3 0 6 2.7 6 6s-2.7 6-6 6-6-2.7-6-6 2.7-6 6-6m0-1C4.1 1 1 4.1 1 8s3.1 7 7 7 7-3.1 7-7-3.1-7-7-7z"/><path fill="#1E1E1E" d="M8 7c.6 0 1 .4 1 1s-.4 1-1 1-1-.4-1-1 .4-1 1-1m0-1c-1.1 0-2 .9-2 2s.9 2 2 2 2-.9 2-2-.9-2-2-2z"/></symbol><symbol viewBox="0 0 16 16" id="content-beside-text-img-above-center" xmlns="http://www.w3.org/2000/svg"><path fill="#FFF" d="M1 1h14v14H1z"/><path fill="#999" d="M14 2v12H2V2h12m1-1H1v14h14V1z"/><path fill="#59F" d="M5 3h6v6H5V3z"/><path fill="#FFF" d="M9 8H6l.75-1 .75-1 .75 1L9 8z"/><path fill="#FFF" d="M10 8H7.333L8 7.333l.667-.666.666.666L10 8z"/><circle cx="9.5" cy="5.5" r=".5" fill="#FFF"/><g><path fill="#B9B9B9" d="M3 12h10v1H3z"/><path fill="#666" d="M3 10h10v1H3z"/></g></symbol><symbol viewBox="0 0 16 16" id="content-beside-text-img-above-left" xmlns="http://www.w3.org/2000/svg"><path fill="#FFF" d="M1 1h14v14H1z"/><path fill="#999" d="M14 2v12H2V2h12m1-1H1v14h14V1z"/><path fill="#59F" d="M3 3h6v6H3V3z"/><path fill="#FFF" d="M7 8H4l.75-1 .75-1 .75 1L7 8z"/><path fill="#FFF" d="M8 8H5.333L6 7.333l.667-.666.666.666L8 8z"/><circle cx="7.5" cy="5.5" r=".5" fill="#FFF"/><g><path fill="#B9B9B9" d="M3 12h10v1H3z"/><path fill="#666" d="M3 10h10v1H3z"/></g></symbol><symbol viewBox="0 0 16 16" id="content-beside-text-img-above-right" xmlns="http://www.w3.org/2000/svg"><path fill="#FFF" d="M1 1h14v14H1z"/><path fill="#999" d="M14 2v12H2V2h12m1-1H1v14h14V1z"/><path fill="#59F" d="M7 3h6v6H7V3z"/><path fill="#FFF" d="M11 8H8l.75-1 .75-1 .75 1L11 8z"/><path fill="#FFF" d="M12 8H9.333L10 7.333l.667-.666.666.666L12 8z"/><circle cx="11.5" cy="5.5" r=".5" fill="#FFF"/><g><path fill="#B9B9B9" d="M3 12h10v1H3z"/><path fill="#666" d="M3 10h10v1H3z"/></g></symbol><symbol viewBox="0 0 16 16" id="content-beside-text-img-below-center" xmlns="http://www.w3.org/2000/svg"><path fill="#FFF" d="M1 1h14v14H1z"/><path fill="#999" d="M14 2v12H2V2h12m1-1H1v14h14V1z"/><path fill="#59F" d="M5 7h6v6H5V7z"/><path fill="#FFF" d="M9 12H6l.75-1 .75-1 .75 1L9 12z"/><path fill="#FFF" d="M10 12H7.333L8 11.333l.667-.666.666.666L10 12z"/><circle cx="9.5" cy="9.5" r=".5" fill="#FFF"/><g><path fill="#B9B9B9" d="M3 5h10v1H3z"/><path fill="#666" d="M3 3h10v1H3z"/></g></symbol><symbol viewBox="0 0 16 16" id="content-beside-text-img-below-left" xmlns="http://www.w3.org/2000/svg"><path fill="#FFF" d="M1 1h14v14H1z"/><path fill="#999" d="M14 2v12H2V2h12m1-1H1v14h14V1z"/><path fill="#59F" d="M3 7h6v6H3V7z"/><path fill="#FFF" d="M7 12H4l.75-1 .75-1 .75 1L7 12z"/><path fill="#FFF" d="M8 12H5.333L6 11.333l.667-.666.666.666L8 12z"/><circle cx="7.5" cy="9.5" r=".5" fill="#FFF"/><g><path fill="#B9B9B9" d="M3 5h10v1H3z"/><path fill="#666" d="M3 3h10v1H3z"/></g></symbol><symbol viewBox="0 0 16 16" id="content-beside-text-img-below-right" xmlns="http://www.w3.org/2000/svg"><path fill="#FFF" d="M1 1h14v14H1z"/><path fill="#999" d="M14 2v12H2V2h12m1-1H1v14h14V1z"/><path fill="#59F" d="M7 7h6v6H7V7z"/><path fill="#FFF" d="M11 12H8l.75-1 .75-1 .75 1 .75 1z"/><path fill="#FFF" d="M12 12H9.333l.667-.667.667-.666.666.666L12 12z"/><circle cx="11.5" cy="9.5" r=".5" fill="#FFF"/><g><path fill="#B9B9B9" d="M3 5h10v1H3z"/><path fill="#666" d="M3 3h10v1H3z"/></g></symbol><symbol viewBox="0 0 16 16" id="content-beside-text-img-centered-left" xmlns="http://www.w3.org/2000/svg"><path fill="#FFF" d="M1 1h14v14H1z"/><path fill="#999" d="M14 2v12H2V2h12m1-1H1v14h14V1z"/><path fill="#59F" d="M3 5h6v6H3V5z"/><path fill="#FFF" d="M7 10H4l.8-1 .8-1 .8 1 .6 1z"/><path fill="#FFF" d="M8 10H5.3l.7-.7.7-.7.7.7.6.7z"/><circle cx="7.5" cy="7.5" r=".5" fill="#FFF"/><path fill="#B9B9B9" d="M10 5h3v1h-3zm0 2h3v1h-3zm0 2h3v1h-3zm0 2h3v1h-3z"/><path fill="#666" d="M10 3h3v1h-3z"/></symbol><symbol viewBox="0 0 16 16" id="content-beside-text-img-centered-right" xmlns="http://www.w3.org/2000/svg"><path fill="#FFF" d="M1 1h14v14H1z"/><path fill="#999" d="M14 2v12H2V2h12m1-1H1v14h14V1z"/><path fill="#59F" d="M7 5h6v6H7V5z"/><path fill="#FFF" d="M11 10H8l.8-1 .8-1 .8 1 .6 1z"/><path fill="#FFF" d="M12 10H9.3l.7-.7.7-.7.7.7.6.7z"/><circle cx="11.5" cy="7.5" r=".5" fill="#FFF"/><path fill="#B9B9B9" d="M3 5h3v1H3zm0 2h3v1H3zm0 2h3v1H3zm0 2h3v1H3z"/><path fill="#666" d="M3 3h3v1H3z"/></symbol><symbol viewBox="0 0 16 16" id="content-beside-text-img-left" xmlns="http://www.w3.org/2000/svg"><path fill="#FFF" d="M1 1h14v14H1z"/><path fill="#999" d="M14 2v12H2V2h12m1-1H1v14h14V1z"/><path fill="#59F" d="M3 3h6v6H3V3z"/><path fill="#FFF" d="M7 8H4l.75-1 .75-1 .75 1L7 8z"/><path fill="#FFF" d="M8 8H5.333L6 7.333l.667-.666.666.666L8 8z"/><circle cx="7.5" cy="5.5" r=".5" fill="#FFF"/><g><path fill="#B9B9B9" d="M10 5h3v1h-3zm0 2h3v1h-3zm0 2h3v1h-3zm0 2h3v1h-3z"/><path fill="#666" d="M10 3h3v1h-3z"/></g></symbol><symbol viewBox="0 0 16 16" id="content-beside-text-img-right" xmlns="http://www.w3.org/2000/svg"><path fill="#FFF" d="M1 1h14v14H1z"/><path fill="#999" d="M14 2v12H2V2h12m1-1H1v14h14V1z"/><path fill="#59F" d="M7 3h6v6H7V3z"/><path fill="#FFF" d="M11 8H8l.75-1 .75-1 .75 1L11 8z"/><path fill="#FFF" d="M12 8H9.333L10 7.333l.667-.666.666.666L12 8z"/><circle cx="11.5" cy="5.5" r=".5" fill="#FFF"/><g><path fill="#B9B9B9" d="M3 5h3v1H3zm0 2h3v1H3zm0 2h3v1H3zm0 2h3v1H3z"/><path fill="#666" d="M3 3h3v1H3z"/></g></symbol><symbol viewBox="0 0 16 16" id="content-book" xmlns="http://www.w3.org/2000/svg"><path fill="#9F6358" d="M3 1h9a1 1 0 011 1v12a1 1 0 01-1 1H3V1z"/><path fill="#6F453D" d="M12 2v12H4V2h8m0-1H3v14h9a1 1 0 001-1V2a1 1 0 00-1-1z"/><path fill="#BC928A" d="M10.75 6h-5.5A.25.25 0 015 5.75v-2.5A.25.25 0 015.25 3h5.5a.25.25 0 01.25.25v2.5a.25.25 0 01-.25.25z"/><path fill="#53342E" d="M3 1h1v14H3z"/><path fill="#402823" d="M11 11h2v2h-2z"/><path fill="#BC928A" d="M5 12h2v1H5z"/></symbol><symbol viewBox="0 0 16 16" id="content-briefcase" xmlns="http://www.w3.org/2000/svg"><path fill="#666" d="M10 3c.6 0 1 .4 1 1v1H5V4c0-.6.4-1 1-1h4m0-1H6c-1.1 0-2 .9-2 2v1c0 .6.4 1 1 1h6c.6 0 1-.4 1-1V4c0-1.1-.9-2-2-2z"/><path fill="#9F6358" d="M1 4h14v10H1z"/><path fill="#6F453D" d="M14 5v8H2V5h12m1-1H1v10h14V4z"/><path fill="#BC928A" d="M11 9H5L1 4h14z"/><path fill="#6F453D" d="M12.9 5l-2.4 3h-5L3.1 5h9.8M15 4H1l4 5h6l4-5z"/><path fill="#402823" d="M6 8h1v2H6zm3 0h1v2H9z"/></symbol><symbol viewBox="0 0 16 16" id="content-bullets" xmlns="http://www.w3.org/2000/svg"><path fill="#FFF" d="M1 1h14v14H1V1z"/><path fill="#999" d="M1 1v14h14V1H1zm1 1h12v12H2V2z"/><path fill="#666" d="M3 3h10v2H3V3z"/><path fill="#FF8700" d="M3 6h1v1H3V6zm0 2h1v1H3V8zm0 2h1v1H3v-1zm0 2h1v1H3v-1z"/><path fill="#B9B9B9" d="M5 6h8v1H5V6zm0 2h8v1H5V8zm0 2h8v1H5v-1zm0 2h8v1H5v-1z"/></symbol><symbol viewBox="0 0 16 16" id="content-card" xmlns="http://www.w3.org/2000/svg"><path fill="#FFF" d="M4 2h8v12H4z"/><path fill="#59F" d="M4 2h8v6H4V2z"/><path fill="#FFF" d="M9 7H6l.8-1 .8-1 .8 1L9 7z" opacity=".5"/><path fill="#FFF" d="M10 7H7.3l.7-.7.7-.7.7.7.6.7z" opacity=".5"/><circle cx="9.5" cy="4.5" r=".5" fill="#FFF" opacity=".5"/><path fill="#B9B9B9" d="M6 10h2v1H6zm0-1h4v1H6z"/><path fill="#666" d="M4 2v12h8V2H4zm7 11H5V3h6v10z"/></symbol><symbol viewBox="0 0 16 16" id="content-card-group" xmlns="http://www.w3.org/2000/svg"><path fill="#FFF" d="M2 1h8v12H2z"/><path fill="#CACACA" d="M2 1h8v6H2V1z"/><path fill="#FFF" d="M7 6H4l.8-1 .8-1 .8 1L7 6z" opacity=".5"/><path fill="#FFF" d="M8 6H5.3l.7-.7.7-.7.7.7.6.7z" opacity=".5"/><circle cx="7.5" cy="3.5" r=".5" fill="#FFF" opacity=".5"/><path fill="#B9B9B9" d="M4 9h2v1H4zm0-1h4v1H4z"/><path fill="#999" d="M2 1v12h8V1H2zm7 11H3V2h6v10z"/><path fill="#FFF" d="M6 3h8v12H6z"/><path fill="#59F" d="M6 3h8v6H6V3z"/><path fill="#FFF" d="M11 8H8l.8-1 .8-1 .8 1 .6 1z" opacity=".5"/><path fill="#FFF" d="M12 8H9.3l.7-.7.7-.7.7.7.6.7z" opacity=".5"/><circle cx="11.5" cy="5.5" r=".5" fill="#FFF" opacity=".5"/><path fill="#B9B9B9" d="M8 11h2v1H8zm0-1h4v1H8z"/><path fill="#666" d="M6 3v12h8V3H6zm7 11H7V4h6v10z"/></symbol><symbol viewBox="0 0 16 16" id="content-carousel" xmlns="http://www.w3.org/2000/svg"><path fill="#CCC" d="M1 3h14v10H1z"/><path fill="#999" d="M14 4v8H2V4h12m1-1H1v10h14V3z"/><path fill="#FFF" d="M3 2h10v12H3z"/><path fill="#666" d="M12 3v10H4V3h8m1-1H3v12h10V2z"/><path fill="#CCC" d="M5 7h6v1H5zm0 2h6v1H5zm0 2h6v1H5z"/><path fill="#666" d="M5 4h6v2H5z"/></symbol><symbol viewBox="0 0 16 16" id="content-carousel-header" xmlns="http://www.w3.org/2000/svg"><path fill="#CCC" d="M1 3h14v10H1z"/><path fill="#999" d="M14 4v8H2V4h12m1-1H1v10h14V3z"/><path fill="#FFF" d="M3 2h10v12H3z"/><path fill="#666" d="M12 3v10H4V3h8m1-1H3v12h10V2z"/><path fill="#CCC" d="M5 7h6v1H5z"/><path fill="#666" d="M5 4h6v2H5z"/></symbol><symbol viewBox="0 0 16 16" id="content-carousel-html" xmlns="http://www.w3.org/2000/svg"><path fill="#CCC" d="M1 3h14v10H1z"/><path fill="#999" d="M14 4v8H2V4h12m1-1H1v10h14V3z"/><path fill="#FFF" d="M3 2h10v12H3z"/><path fill="#666" d="M12 3v10H4V3h8m1-1H3v12h10V2z"/><path fill="#F16529" d="M5 8.4v-.8l2-2.1v1.1L5.8 8 7 9.4v1.1L5 8.4zm6 0l-2 2.1V9.4L10.2 8 9 6.6V5.5l2 2.1v.8z"/></symbol><symbol viewBox="0 0 16 16" id="content-carousel-image" xmlns="http://www.w3.org/2000/svg"><path fill="#CCC" d="M1 3h14v10H1z"/><path fill="#999" d="M14 4v8H2V4h12m1-1H1v10h14V3z"/><path fill="#FFF" d="M3 2h10v12H3z"/><path fill="#666" d="M12 3v10H4V3h8m1-1H3v12h10V2z"/><path fill="#59F" d="M5 4h6v8H5V4z"/><path fill="#E9F2FF" d="M11 5.7c-.1-.1-.3-.2-.5-.2-.6 0-1 .4-1 1s.4 1 1 1c.2 0 .4-.1.5-.2V5.7zM9.5 9l-2 3H11v-1z"/><path fill="#ACF" d="M5 9.8V12h4.5l-3-4.5z"/></symbol><symbol viewBox="0 0 16 16" id="content-carousel-item-calltoaction" xmlns="http://www.w3.org/2000/svg"><path fill="#CCC" d="M1 3h14v10H1z"/><path fill="#999" d="M14 4v8H2V4h12m1-1H1v10h14V3z"/><path fill="#FFF" d="M3 2h10v12H3z"/><path fill="#666" d="M12 3v10H4V3h8m1-1H3v12h10V2z"/><path fill="#666" d="M5 4h6v2H5z"/><path fill="#59F" d="M5 11h3v1H5v-1z"/><path fill="#CCC" d="M5 7h6v1H5zm0 2h6v1H5z"/></symbol><symbol viewBox="0 0 16 16" id="content-carousel-item-textandimage" xmlns="http://www.w3.org/2000/svg"><path fill="#CCC" d="M1 3h14v10H1V3z"/><path fill="#999" d="M14 4v8H2V4h12m1-1H1v10h14V3z"/><path fill="#FFF" d="M3 2h10v12H3V2z"/><path fill="#666" d="M12 3v10H4V3h8m1-1H3v12h10V2z"/><path fill="#666" d="M5 4h6v1H5V4z"/><path fill="#59F" d="M5 6h6v6H5V6z"/><path fill="#E9F2FF" d="M11 6.7c-.1-.1-.3-.2-.5-.2-.6 0-1 .4-1 1s.4 1 1 1c.2 0 .4-.1.5-.2V6.7zM9.5 9l-2 3H11v-1z"/><path fill="#ACF" d="M5 9.8V12h4.5l-3-4.5z"/></symbol><symbol viewBox="0 0 16 16" id="content-clock" xmlns="http://www.w3.org/2000/svg"><path fill="#FFF" d="M8 1C4.1 1 1 4.1 1 8s3.1 7 7 7 7-3.1 7-7-3.1-7-7-7z"/><path fill="#B9B9B9" d="M9.2 7.5l4.1-4.1c-.1-.1-.2-.3-.3-.4-.1-.1-.2-.2-.4-.3L8.5 6.8V1h-1v5.8L3.4 2.7l-.7.7 4.1 4.1H1v1h5.8l-4.1 4.1c.2.3.5.5.7.7l4.1-4.1V15h1V9.2l4.1 4.1c.3-.2.5-.5.7-.7L9.2 8.5H15v-1H9.2z"/><circle cx="8" cy="8" r="5" fill="#FFF"/><path fill="#515151" d="M8 2c3.3 0 6 2.7 6 6s-2.7 6-6 6-6-2.7-6-6 2.7-6 6-6m0-1C4.1 1 1 4.1 1 8s3.1 7 7 7 7-3.1 7-7-3.1-7-7-7z"/><path fill="#C83C3C" d="M7.7 7.2l.7 1.6 3.1-1.6c-.1-.3-.2-.6-.4-.9l-3.4.9z"/><path fill="#515151" d="M4.7 5.4l2.7 3.2 1.2-1.2-3.2-2.7c-.3.2-.5.4-.7.7z"/><path fill="#515151" d="M8 7.1c-.5 0-.9.4-.9.9s.4.9.9.9.9-.4.9-.9-.4-.9-.9-.9z"/><circle cx="8" cy="8" r=".5" fill="#FFF"/></symbol><symbol viewBox="0 0 16 16" id="content-coffee" xmlns="http://www.w3.org/2000/svg"><path fill="#9F6358" d="M12 15H4L2.5 3h11z"/><path fill="#FFF" d="M12 12H4L3 6h10z" opacity=".3"/><path fill="#6F453E" d="M12.4 4l-1.3 10H4.9L3.6 4h8.8m1.1-1h-11L4 15h8l1.5-12z"/><circle cx="8" cy="9" r="2.5" fill="#FFF"/><path fill="#212121" d="M2 3h12v1H2z"/><path fill="#333" d="M4 1h8v2H4z"/><ellipse cx="8" cy="9" fill="#9F6358" rx="1.5" ry="1" transform="rotate(-70.001 8 9)"/><path fill="#FFF" d="M8.761 6.616l.282.103-1.71 4.699-.282-.103z"/></symbol><symbol viewBox="0 0 16 16" id="content-csv" xmlns="http://www.w3.org/2000/svg"><path fill="#45B058" d="M1 1h14v14H1V1z"/><path d="M1 1v14h14V1H1zm1 1h12v12H2V2z" opacity=".2"/><path fill="#FFF" d="M3 3h10v2H3V3z"/><path fill="#FFF" d="M7 6h2v1H7V6zm0 2h2v1H7V8zm0 2h2v1H7v-1zm0 2h2v1H7v-1zm3-6h3v1h-3V6zm0 2h3v1h-3V8zm0 2h3v1h-3v-1zm0 2h3v1h-3v-1zM3 6h3v1H3V6zm0 2h3v1H3V8zm0 2h3v1H3v-1zm0 2h3v1H3v-1z" opacity=".5"/></symbol><symbol viewBox="0 0 16 16" id="content-dashboard" xmlns="http://www.w3.org/2000/svg"><path fill="#FFF" d="M6 1h7v3H6z"/><path fill="#BBB" d="M10 1H6v3h7V1h-3zM9 3H7V2h2v1zm3 0h-2V2h2v1z"/><path fill="#FFF" d="M1 1h6v2h8v12H1V1z"/><path fill="#999" d="M6 2v2h8v10H2V2h4m1-1H1v14h14V3H7V1z"/><path fill="#B9B9B9" d="M3 11h3v2H3z"/><path fill="#D9D9D9" d="M3 5h5v5H3z"/><path fill="#A4276A" d="M8 10H3V9l1.5-1.5 1.5 1L8 6v4z"/><path fill="#A4276A" d="M3 3h2v1H3z" opacity=".5"/><path fill="#666" d="M9 5h4v1H9z"/><path fill="#B9B9B9" d="M9 6h4v4H9zM7 12h4v1H7z"/><path fill="#666" d="M7 11h6v1H7z"/></symbol><symbol viewBox="0 0 16 16" id="content-dashboard-empty" xmlns="http://www.w3.org/2000/svg"><path fill="#FFF" d="M6 1h7v3H6z"/><path fill="#BBB" d="M10 1H6v3h7V1h-3zM9 3H7V2h2v1zm3 0h-2V2h2v1z"/><path fill="#FFF" d="M1 1h6v2h8v12H1V1z"/><path fill="#999" d="M6 2v2h8v10H2V2h4m1-1H1v14h14V3H7V1z"/><path fill="#EAEAEA" d="M13 5H3v8h10z"/><path fill="#999" d="M13 5h-2v1h2zm-4 7H8v1h1zm-2 0H6v1h1zM4 8H3v1h1zm1 4H3v1h2zm-1-2H3v1h1zm0-5H3v2h1zm2 0H5v1h1zm2 0H7v1h1zm2 0H9v1h1zm3 6h-1v2h1zm-2 1h-1v1h1zm2-5h-1v1h1zm0 2h-1v1h1z"/></symbol><symbol viewBox="0 0 16 16" id="content-elements-login" xmlns="http://www.w3.org/2000/svg"><path fill="#666" d="M9 2.5c.8 0 1.5.7 1.5 1.5v2c0 .8-.7 1.5-1.5 1.5H7c-.8 0-1.5-.7-1.5-1.5V4c0-.8.7-1.5 1.5-1.5h2M9 1H7C5.3 1 4 2.4 4 4v2c0 1.6 1.3 3 3 3h2c1.6 0 3-1.4 3-3V4c0-1.6-1.4-3-3-3z"/><path fill="#FFC857" d="M2 5h12v10H2z"/><path fill="#E8A33D" d="M13 6v8H3V6h10m1-1H2v10h12V5z"/><path fill="#B3812B" d="M10 9c0-1.1-.9-2-2-2s-2 .9-2 2c0 .7.4 1.4 1 1.7V13h2v-2.3c.6-.3 1-1 1-1.7z"/></symbol><symbol viewBox="0 0 16 16" id="content-elements-mailform" xmlns="http://www.w3.org/2000/svg"><path fill="#FFE6BB" d="M8 1l7 5v9H1V6l7-5z"/><path fill="#E8A33D" d="M8 2.2l6 4.3V14H2V6.5l6-4.3M8 1L1 6v9h14V6L8 1z"/><path fill="#FFF" d="M3 3h10v10H3z"/><path fill="#666" d="M12 4v8H4V4h8m1-1H3v10h10V3z"/><path fill="#B9B9B9" d="M5 7h6v1H5zm0-2h6v1H5zm0 4h6v1H5z"/><path fill="#FFC857" d="M15 6v9H1V6l7 5 7-5z"/><path fill="#E8A33D" d="M8 11L1 6v9h14V6l-7 5zM2 7.9l3.5 2.5L2 14V7.9zM3.4 14l2.9-2.9L8 12.2 9.6 11l2.9 2.9H3.4zm7.1-3.5L14 7.9V14l-3.5-3.5z"/></symbol><symbol viewBox="0 0 16 16" id="content-elements-searchform" xmlns="http://www.w3.org/2000/svg"><path fill="#E8A33D" d="M14.7 13.2l-2.8-2.8c-.4.6-.9 1.1-1.5 1.5l2.8 2.7c.2.2.5.3.8.3.6 0 1.1-.5 1.1-1.1-.1-.2-.2-.4-.4-.6z"/><circle cx="7" cy="7" r="6" fill="#ABD7FF"/><path fill="#59F" d="M7 2.5c2.5 0 4.5 2 4.5 4.5s-2 4.5-4.5 4.5-4.5-2-4.5-4.5 2-4.5 4.5-4.5M7 1C3.7 1 1 3.7 1 7s2.7 6 6 6 6-2.7 6-6-2.7-6-6-6z"/><circle cx="8.5" cy="5.5" r="1.5" fill="#FFF" opacity=".6"/></symbol><symbol viewBox="0 0 16 16" id="content-form" xmlns="http://www.w3.org/2000/svg"><path fill="#FFF" d="M1 1h14v14H1z"/><path fill="#999" d="M14 2v12H2V2h12m1-1H1v14h14V1z"/><path fill="#B9B9B9" d="M3 3h8v1H3zm0 2h8v1H3zm0 2h10v4H3z"/><path fill="#59F" d="M3 12h4v1H3z"/></symbol><symbol viewBox="0 0 16 16" id="content-gallery" xmlns="http://www.w3.org/2000/svg"><path fill="#999" d="M5 1h9v11H5z"/><path fill="#FFF" d="M6 2h7v9H6z"/><path fill="#59F" d="M7 3h5v7H7V3z"/><path fill="#E9F2FF" d="M12 3.653a.977.977 0 00-.5-.153 1 1 0 000 2 .977.977 0 00.5-.153V3.653zM11 7l-2 3h3V8.5z"/><path fill="#ACF" d="M7 7v3h4L8 5.5z"/><path fill="#666" d="M2 4h9v11H2z"/><path fill="#FFF" d="M3 5h7v9H3z"/><g><path fill="#59F" d="M4 6h5v7H4V6z"/><path fill="#E9F2FF" d="M9 6.653a.977.977 0 00-.5-.153 1 1 0 000 2 .977.977 0 00.5-.153V6.653zM8 10l-2 3h3v-1.5z"/><path fill="#ACF" d="M4 10v3h4L5 8.5z"/></g></symbol><symbol viewBox="0 0 16 16" id="content-header" xmlns="http://www.w3.org/2000/svg"><path fill="#FFF" d="M1 1h14v14H1V1z"/><path fill="#666" d="M3 3h10v2H3V3z"/><path fill="#999" d="M1 1v14h14V1H1zm1 1h12v12H2V2z"/></symbol><symbol viewBox="0 0 16 16" id="content-idea" xmlns="http://www.w3.org/2000/svg"><path fill="#FFC857" d="M13.5 4.5c0 3-2.5 4-2.5 7.5H5c0-3.5-2.5-4.5-2.5-7.5S5 0 8 0s5.5 1.5 5.5 4.5z"/><path fill="#E8A33D" d="M8 1c1.1 0 4.5.3 4.5 3.5 0 1.2-.5 2-1 3-.6 1-1.2 2-1.4 3.5H5.9c-.2-1.5-.8-2.6-1.4-3.5-.6-1-1-1.8-1-3C3.5 1.3 6.9 1 8 1m0-1C5 0 2.5 1.5 2.5 4.5S5 8.5 5 12h6c0-3.5 2.5-4.5 2.5-7.5S11 0 8 0z"/><path fill="#FFC857" d="M8.5 13h-1c-.5 0-1-.4-1-1V6c0-.5.4-1 1-1h1c.5 0 1 .4 1 1v6c0 .6-.4 1-1 1z"/><path fill="#E8A33D" d="M8.5 5.5c.3 0 .5.2.5.5v6c0 .3-.2.5-.5.5h-1c-.3 0-.5-.2-.5-.5V6c0-.3.2-.5.5-.5h1m0-.5h-1c-.6 0-1 .4-1 1v6c0 .6.4 1 1 1h1c.6 0 1-.4 1-1V6c0-.6-.4-1-1-1z"/><path fill="#AAA" d="M10 16H6c-.6 0-1-.4-1-1v-3c0-.6.4-1 1-1h4c.6 0 1 .4 1 1v3c0 .6-.4 1-1 1z"/><path fill="#666" d="M10 12v3H6v-3h4m0-1H6c-.6 0-1 .4-1 1v3c0 .6.4 1 1 1h4c.6 0 1-.4 1-1v-3c0-.6-.4-1-1-1z"/><path fill="#666" d="M5 13h6v1H5z"/></symbol><symbol viewBox="0 0 16 16" id="content-image" xmlns="http://www.w3.org/2000/svg"><path fill="#59F" d="M1 2h14v12H1V2z"/><path d="M14 3v10H2V3h12m1-1H1v12h14V2z" opacity=".2"/><path fill="#E9F2FF" d="M11 8.7L7 13h7v-1.4z"/><path fill="#ACF" d="M2 9.8V13h9L5 6.5z"/><circle cx="11" cy="6" r="1" fill="#FFF"/></symbol><symbol viewBox="0 0 16 16" id="content-info" xmlns="http://www.w3.org/2000/svg"><path fill="#6EAADD" d="M8 1c3.9 0 7 3.1 7 7s-3.1 7-7 7-7-3.1-7-7 3.1-7 7-7z"/><path fill="#4E789A" d="M8 2c3.3 0 6 2.7 6 6s-2.7 6-6 6-6-2.7-6-6 2.7-6 6-6m0-1C4.1 1 1 4.1 1 8s3.1 7 7 7 7-3.1 7-7-3.1-7-7-7z"/><path fill="#FFF" d="M10 11H9V7H6.5v1H7v3H6v1h4zM7 4h2v2H7z"/></symbol><symbol viewBox="0 0 16 16" id="content-inside-text-img-left" xmlns="http://www.w3.org/2000/svg"><path fill="#FFF" d="M1 1h14v14H1V1z"/><path fill="#999" d="M14 2v12H2V2h12m1-1H1v14h14V1z"/><path fill="#59F" d="M3 3h6v6H3V3z"/><path fill="#FFF" d="M7 8H4l.8-1 .8-1 .8 1L7 8z"/><path fill="#FFF" d="M8 8H5.3l.7-.7.7-.7.7.7.6.7z"/><circle cx="7.5" cy="5.5" r=".5" fill="#FFF"/><path fill="#B9B9B9" d="M10 6h3v1h-3zm0 2h3v1h-3zm-7 2h10v1H3zm0 2h10v1H3z"/><path fill="#666" d="M10 3h3v2h-3V3z"/></symbol><symbol viewBox="0 0 16 16" id="content-inside-text-img-right" xmlns="http://www.w3.org/2000/svg"><path fill="#FFF" d="M1 1h14v14H1V1z"/><path fill="#999" d="M14 2v12H2V2h12m1-1H1v14h14V1z"/><path fill="#59F" d="M7 3h6v6H7V3z"/><path fill="#FFF" d="M11 8H8l.8-1 .8-1 .8 1 .6 1z"/><path fill="#FFF" d="M12 8H9.3l.7-.7.7-.7.7.7.6.7z"/><circle cx="11.5" cy="5.5" r=".5" fill="#FFF"/><path fill="#B9B9B9" d="M3 6h3v1H3zm0 2h3v1H3zm0 2h10v1H3zm0 2h10v1H3z"/><path fill="#666" d="M3 3h3v2H3V3z"/></symbol><symbol viewBox="0 0 16 16" id="content-listgroup" xmlns="http://www.w3.org/2000/svg"><path fill="#FFF" d="M1 2h14v12H1V2z"/><path fill="#999" d="M1 2v12h14V2H1zm1 1h12v10H2V3z"/><path fill="#6F5499" d="M3 4h2v2H3z"/><path fill="#B9B9B9" d="M6 4h7v2H6z"/><path fill="#6F5499" d="M3 7h2v2H3z"/><path fill="#B9B9B9" d="M6 7h7v2H6z"/><path fill="#6F5499" d="M3 10h2v2H3z"/><path fill="#B9B9B9" d="M6 10h7v2H6z"/></symbol><symbol viewBox="0 0 16 16" id="content-map" xmlns="http://www.w3.org/2000/svg"><path fill="#59F" d="M1 1v12l4 2 5-2 5 2V3l-5-2-5 2z"/><path fill="#79A548" d="M1 1v8l4 2 5-2 5 2V3l-5-2-5 2z"/><path fill="#EFEFEF" d="M15 9.5l-4.3-1.7-4.1-5.4L10 1l5 2z"/><path fill="#CECECE" d="M15 8.5L11.3 7 7.6 2 10 1l5 2z"/><path fill="#FFC857" d="M10 9.5l-5 2v-2l5-2zm-9 0l4 2v-2l-4-2zm9 0l5 2v-2l-5-2z"/><path fill="#FFC857" d="M12.9 10.7L10 9.5 5 3l1.6-.6z"/><path fill="#212121" d="M10 13l-5 2V3l5-2z" opacity=".15"/><path fill="#212121" d="M10 2.1l4 1.6v9.8L10.4 12l-.4-.1-.4.1L5 13.9l-3-1.5V2.6l2.6 1.3.4.2.4-.2L10 2.1M10 1L5 3 1 1v12l4 2 5-2 5 2V3l-5-2z" opacity=".3"/></symbol><symbol viewBox="0 0 16 16" id="content-marker" xmlns="http://www.w3.org/2000/svg"><path fill="#C83C3C" d="M13 6c0 2.8-3 9-5 9S3 8.8 3 6s2.2-5 5-5 5 2.2 5 5z"/><path fill="#212121" d="M8 2c2.2 0 4 1.8 4 4 0 2.8-3 8-4 8S4 8.8 4 6c0-2.2 1.8-4 4-4m0-1C5.2 1 3 3.2 3 6s3 9 5 9 5-6.2 5-9-2.2-5-5-5z" opacity=".2"/><circle cx="8" cy="6" r="2" fill="#FFF"/></symbol><symbol viewBox="0 0 16 16" id="content-media" xmlns="http://www.w3.org/2000/svg"><path fill="#639" d="M1 2h14v12H1V2z"/><path fill="#212121" d="M14 3v10H2V3h12m1-1H1v12h14V2z" opacity=".2"/><path fill="#FFF" d="M6 10.5v-5l2.5 1.25L11 8 8.5 9.25 6 10.5z"/></symbol><symbol viewBox="0 0 16 16" id="content-menu-abstract" xmlns="http://www.w3.org/2000/svg"><path fill="#FFF" d="M1 1h14v14H1V1z"/><path fill="#999" d="M1 1v14h14V1H1zm1 1h12v12H2V2z"/><path fill="#B9B9B9" d="M5 9h8v1H5zm0-6h8v1H5zm0 2h8v3H5zm0 6h8v2H5z"/><path fill="#FF8700" d="M3 3h1v5H3zm0 6h1v4H3z"/></symbol><symbol viewBox="0 0 16 16" id="content-menu-card" xmlns="http://www.w3.org/2000/svg"><path fill="#FFF" d="M2 1h12v14H2V1z"/><path fill="#999" d="M2 1v14h12V1H2zm1 1h10v12H3V2z"/><path fill="#CCC" d="M4 8h2v2H4z"/><path fill="#666" d="M4 3h8v1H4z"/><path fill="#CCC" d="M4 5h2v2H4zm0 6h2v2H4z"/><path fill="#FFF" d="M7 5h8v11H7z"/><path fill="#59F" d="M7 5h8v6H7V5z"/><path fill="#FFF" d="M12 10H9l1.6-2 1.4 2z" opacity=".5"/><path fill="#FFF" d="M13 10h-2.7l1.4-1.4L13 10z" opacity=".5"/><circle cx="12.5" cy="7.5" r=".5" fill="#FFF" opacity=".5"/><path fill="#B9B9B9" d="M9 13h2v1H9zm0-1h4v1H9z"/><path fill="#666" d="M7 5v11h8V5H7zm7 10H8V6h6v9z"/></symbol><symbol viewBox="0 0 16 16" id="content-menu-categorized" xmlns="http://www.w3.org/2000/svg"><path fill="#FFF" d="M1 1h14v14H1V1z"/><path fill="#999" d="M1 1v14h14V1H1zm1 1h12v12H2V2z"/><path fill="#999" d="M3 6h10v1H3zm0 2h2v1H3zm0 2h2v1H3zm0 2h2v1H3z"/><path fill="#666" d="M3 3h10v2H3z"/><path fill="#FF8700" d="M7.5 8L6 9v4h3V9z"/><circle cx="7.5" cy="9.5" r=".5" fill="#FFF"/><path fill="#59F" d="M11.5 8L10 9v4h3V9z"/><circle cx="11.5" cy="9.5" r=".5" fill="#FFF"/></symbol><symbol viewBox="0 0 16 16" id="content-menu-pages" xmlns="http://www.w3.org/2000/svg"><path fill="#FFF" d="M1 1h14v14H1V1z"/><path fill="#999" d="M1 1v14h14V1H1zm1 1h12v12H2V2z"/><path fill="#B9B9B9" d="M6 3h7v2H6z"/><path fill="#FF8700" d="M3 3h2v2H3z"/><path fill="#B9B9B9" d="M6 6h7v1H6z"/><path fill="#FF8700" d="M4 6h1v1H4z"/><path fill="#B9B9B9" d="M8 8h5v1H8z"/><path fill="#FF8700" d="M6 8h1v1H6z"/><path fill="#B9B9B9" d="M8 10h5v1H8z"/><path fill="#FF8700" d="M6 10h1v1H6z"/><path fill="#B9B9B9" d="M8 12h5v1H8z"/><path fill="#FF8700" d="M6 12h1v1H6z"/></symbol><symbol viewBox="0 0 16 16" id="content-menu-recently-updated" xmlns="http://www.w3.org/2000/svg"><path fill="#FFF" d="M1 1h14v14H1V1z"/><path fill="#999" d="M1 1v14h14V1H1zm1 1h12v12H2V2z"/><path fill="#B9B9B9" d="M5 10h8v1H5z"/><path fill="#FF8700" d="M3 10h1v1H3z"/><path fill="#B9B9B9" d="M5 12h8v1H5z"/><path fill="#59F" d="M5 7h6v1H5z"/><path fill="#59F" d="M5 4h1v4H5zm5 0h1v4h-1z"/><path fill="#59F" d="M9 4h2v1H9zm-2 .5L9 3v3z"/><path fill="#FF8700" d="M3 12h1v1H3z"/></symbol><symbol viewBox="0 0 16 16" id="content-menu-related" xmlns="http://www.w3.org/2000/svg"><path fill="#59F" d="M1 10h6v5H1z"/><path fill="#212121" d="M1 10v5h6v-5H1zm5 4H2v-3h4v3z" opacity=".2"/><path fill="#FFF" d="M3 12h2v1H3v-1z"/><path fill="#639" d="M9 10h6v5H9z"/><path fill="#212121" d="M9 10v5h6v-5H9zm5 4h-4v-3h4v3z" opacity=".2"/><path fill="#FFF" d="M11 12h2v1h-2v-1z"/><g><path fill="#999" d="M4 1h8v8H4z"/><path fill="#FFF" d="M5 2h6v6H5z"/><path fill="#515151" d="M6 3h4v2H6V3z"/><path fill="#B9B9B9" d="M6 6h4v1H6z"/></g><path fill="#212121" d="M1 3h1v1H1zm2 0h1v1H3zM1 5h1v1H1zm0 2h1v1H1zm13-4h1v1h-1zm-2 0h1v1h-1zm2 2h1v1h-1zm0 2h1v1h-1zM1 9h1v1H1zm13 0h1v1h-1z" opacity=".2"/></symbol><symbol viewBox="0 0 16 16" id="content-menu-section" xmlns="http://www.w3.org/2000/svg"><path fill="#FFF" d="M1 1h14v14H1V1z"/><path fill="#999" d="M1 1v14h14V1H1zm1 1h12v12H2V2z"/><path fill="#B9B9B9" d="M5 12h8v1H5zm0-6h8v1H5zm2 2h6v1H7zm0 2h6v1H7v-1z"/><path fill="#666" d="M3 3h10v2H3V3z"/><path fill="#FF8700" d="M3 6h1v1H3zm2 2h1v1H5zm0 2h1v1H5zm-2 2h1v1H3z"/></symbol><symbol viewBox="0 0 16 16" id="content-menu-sitemap" xmlns="http://www.w3.org/2000/svg"><path fill="#59F" d="M3 11h4v4H3v-4z"/><path d="M6 12v2H4v-2h2m1-1H3v4h4v-4z" opacity=".25"/><path fill="#59F" d="M9 11h4v4H9v-4z"/><path d="M12 12v2h-2v-2h2m1-1H9v4h4v-4z" opacity=".25"/><path fill="#999" d="M4.5 10h1v1h-1zm6 0h1v1h-1z" opacity=".5"/><path fill="#999" d="M3 1h10v9H3z"/><path fill="#FFF" d="M4 2h8v7H4z"/><path fill="#515151" d="M5 3h6v2H5V3z"/><path fill="#B9B9B9" d="M5 6h6v1H5z"/></symbol><symbol viewBox="0 0 16 16" id="content-menu-sitemap-pages" xmlns="http://www.w3.org/2000/svg"><path fill="#639" d="M1 11h4v4H1v-4z"/><path d="M4 12v2H2v-2h2m1-1H1v4h4v-4z" opacity=".25"/><path fill="#59F" d="M6 11h4v4H6v-4z"/><path d="M9 12v2H7v-2h2m1-1H6v4h4v-4z" opacity=".25"/><path fill="#59F" d="M11 11h4v4h-4v-4z"/><path d="M14 12v2h-2v-2h2m1-1h-4v4h4v-4z" opacity=".25"/><path fill="#999" d="M1 2h9v8H1z"/><path fill="#FFF" d="M2 3h7v6H2z"/><path fill="#515151" d="M3 4h5v2H3V4z"/><path fill="#B9B9B9" d="M3 7h5v1H3z"/><g><path fill="#999" d="M6 1h9v9H6z"/><path fill="#FFF" d="M7 2h7v7H7z"/><path fill="#515151" d="M8 3h5v2H8V3z"/><path fill="#B9B9B9" d="M8 6h5v1H8z"/></g><path fill="#999" d="M2.5 10h1v1h-1zm5 0h1v1h-1zm5 0h1v1h-1z" opacity=".5"/><path fill="#FFF" d="M5 2h1v8H5z" opacity=".75"/></symbol><symbol viewBox="0 0 16 16" id="content-menu-thumbnail" xmlns="http://www.w3.org/2000/svg"><path fill="#FFF" d="M2 1h12v14H2z"/><path fill="#666" d="M13 2v12H3V2m11-1H2v14h12V1z"/><path fill="#CCC" d="M4 5h2v2H4zm3 0h2v2H7zm3 0h2v2h-2zM4 8h2v2H4zm3 0h2v2H7zm3 0h2v2h-2zm-6 3h2v2H4zm3 0h2v2H7zm3 0h2v2h-2z"/><path fill="#666" d="M4 3h8v1H4z"/></symbol><symbol viewBox="0 0 16 16" id="content-news" xmlns="http://www.w3.org/2000/svg"><path fill="#FFF" d="M14 3V1H2v14h14V3h-2z"/><path fill="#999" d="M14 3V1H2v14h14V3h-2zm1 11H3V2h10v11h1V4h1v10z"/><path fill="#333" d="M4 3h8v1H4V3z"/><path fill="#59F" d="M4 5h3v3H4V5z"/><path fill="#AAA" d="M4 9h3v1H4V9zm4 0h4v1H8V9zm-4 2h3v1H4v-1zm4 0h4v1H8v-1zm0-4h4v1H8V7zm0-2h4v1H8V5z"/></symbol><symbol viewBox="0 0 16 16" id="content-panel" xmlns="http://www.w3.org/2000/svg"><path fill="#FFF" d="M1 2h14v12H1z"/><path fill="#666" d="M14 13H2V4h12m1-2H1v12h14V2z"/><path fill="#CCC" d="M4 6h8v1H4zm0 2h8v1H4zm0 2h8v1H4z"/></symbol><symbol viewBox="0 0 16 16" id="content-plugin" xmlns="http://www.w3.org/2000/svg"><path fill="#666" d="M14.271 3.18L8.276 1.467 8 1.388l-.276.079L1.729 3.18 1 3.388v9.224l.729.208 5.995 1.713.276.079.276-.079 5.995-1.713.729-.208V3.388z"/><path fill="#AAD400" d="M8 2.433l5.035 1.438L8 5.336 2.945 3.877z"/><path fill="#FFC857" d="M2.004 4.651l5.494 1.585v7.188l-5.494-1.57z"/><path fill="#FF6777" d="M8.502 13.424V6.235l5.494-1.597v7.216z"/></symbol><symbol viewBox="0 0 16 16" id="content-quote" xmlns="http://www.w3.org/2000/svg"><path fill="#FFF" d="M6.3 12.5H2.5v-11h11v11H9.7L8 15.1z"/><path fill="#999" d="M13 2v10H9.5l-.3.4L8 14.2l-1.2-1.8-.3-.4H3V2h10m1-1H2v12h4l2 3 2-3h4V1z"/><path fill="#333" d="M4 3h8v2H4z"/><path fill="#B6B6B6" d="M4 6h6v1H4zm0 2h4v1H4z"/></symbol><symbol viewBox="0 0 16 16" id="content-special-div" xmlns="http://www.w3.org/2000/svg"><path fill="#FFF" d="M1 1h14v14H1V1z"/><path fill="#999" d="M1 1v14h14V1H1zm1 1h12v12H2V2z"/><path fill="#666" d="M4 7h8v2H4V7z"/></symbol><symbol viewBox="0 0 16 16" id="content-special-html" xmlns="http://www.w3.org/2000/svg"><path fill="#FFF" d="M1 1h14v14H1V1z"/><path fill="#999" d="M1 1v14h14V1H1zm1 1h12v12H2V2z"/><path fill="#F16529" d="M7.25 12L3 8.682V7.318L7.25 4v1.716l-2.975 2.29 2.974 2.278L7.25 12zM13 8.682L8.75 12v-1.716L11.726 8 8.75 5.716V4L13 7.318v1.364z"/></symbol><symbol viewBox="0 0 16 16" id="content-special-indexed_search" xmlns="http://www.w3.org/2000/svg"><path fill="#E8A33D" d="M14.7 13.2l-2.8-2.8c-.4.6-.9 1.1-1.5 1.5l2.8 2.7c.2.2.5.3.8.3.6 0 1.1-.5 1.1-1.1-.1-.2-.2-.4-.4-.6z"/><circle cx="7" cy="7" r="6" fill="#ABD7FF"/><path fill="#59F" d="M7 2.5c2.5 0 4.5 2 4.5 4.5s-2 4.5-4.5 4.5-4.5-2-4.5-4.5 2-4.5 4.5-4.5M7 1C3.7 1 1 3.7 1 7s2.7 6 6 6 6-2.7 6-6-2.7-6-6-6z"/><circle cx="8.5" cy="5.5" r="1.5" fill="#FFF" opacity=".6"/></symbol><symbol viewBox="0 0 16 16" id="content-special-menu" xmlns="http://www.w3.org/2000/svg"><path fill="#999" d="M1 1h14v14H1V1z"/><path fill="#FFF" d="M2 2h12v12H2V2z"/><path fill="#79A548" d="M6 4h4v2H6V4z"/><path fill="#FF8700" d="M4 10h3v2H4v-2z"/><path fill="#C83C3C" d="M9 10h3v2H9v-2z"/><path fill="#666" d="M7.5 6h1v3h-1zM5 8h1v2H5zm5 0h1v2h-1z"/><path fill="#666" d="M11 8v1H5V8h6z"/></symbol><symbol viewBox="0 0 16 16" id="content-special-shortcut" xmlns="http://www.w3.org/2000/svg"><path fill="#FFF" d="M1 1v14h7V8h7V1H1z"/><path fill="#999" d="M1 1v14h7v-1H2V2h12v6h1V1H1z"/><path fill="#666" d="M3 3h10v2H3z"/><path fill="#B9B9B9" d="M3 6h10v1H3zm0 2h5v1H3zm0 2h5v1H3zm0 2h5v1H3z"/><g><path fill="#666" d="M9 9h7v7H9z"/><path fill="#FFF" d="M10 10h5v5h-5z"/><path fill="#212121" d="M11 13.115c0 .082.012.178.036.286.024.107.052.205.083.294.03.088.064.177.102.266.037.088.065.152.085.192l.043.085c.011.024.031.036.06.036a.078.078 0 00.019-.002c.036-.011.052-.036.049-.072-.061-.568.014-.969.226-1.204a.882.882 0 01.364-.234c.151-.057.34-.094.569-.113v.535c0 .06.028.102.083.126a.148.148 0 00.053.011c.038 0 .07-.013.096-.04l1.091-1.091c.028-.029.041-.061.041-.098s-.013-.069-.04-.096l-1.091-1.091c-.041-.044-.091-.054-.149-.03a.128.128 0 00-.083.126v.558c-.584.04-1.009.197-1.276.471-.241.246-.361.608-.361 1.085z"/></g></symbol><symbol viewBox="0 0 16 16" id="content-special-uploads" xmlns="http://www.w3.org/2000/svg"><path fill="#FFF" d="M1 1h14v14H1V1z"/><path fill="#999" d="M1 1v14h14V1H1zm1 1h12v12H2V2z"/><path fill="#FFC857" d="M13 8v5H5V7h4l1 1h3z"/><path fill="#E8A33D" d="M13 9H9l-1 1H5V8h8v1z"/><path fill="#FF8700" d="M3 3h1v1H3zm0 2h1v1H3z"/><path fill="#B9B9B9" d="M5 3h8v1H5zm0 2h8v1H5z"/></symbol><symbol viewBox="0 0 16 16" id="content-store" xmlns="http://www.w3.org/2000/svg"><path fill="#B9B9B9" d="M2 6h13v9H2z"/><path fill="#94604C" d="M10 9h3v5h-3z"/><path d="M10 9v5h.5V9.5h2V14h.5V9z" opacity=".2"/><path fill="#212121" d="M14 7v7H3V7h11m1-1H2v9h13V6z" opacity=".15"/><path fill="#515151" d="M1 14h15v1H1z"/><path fill="#8C8C8C" d="M15.5 7.5h-14L1 7h15z"/><path fill="#C83C3C" d="M16 7H1l1-5h13z"/><path fill="#FFF" d="M3 7H2l.9-5h.8zM5 7H4l.6-5h.9zM7 7H6l.3-5h.9zM9 7H8l.1-5h.8zM11 7h-1l-.2-5h.9zM13 7h-1l-.5-5h.9zM15 7h-1l-.7-5h.8z"/><path d="M2.7 3h12.5L15 2H2l-.2 1z" opacity=".2"/><g><path fill="#59F" d="M4 9h5v4H4z"/><path fill="#515151" d="M8.5 9.5v3h-4v-3h4M9 9H4v4h5V9z"/><path fill="#FFF" d="M4.5 9.5h4v1h-4z" opacity=".2"/></g></symbol><symbol viewBox="0 0 16 16" id="content-tab" xmlns="http://www.w3.org/2000/svg"><path fill="#FFE3AB" d="M6 2h4v3H6z"/><path fill="#EEBA6E" d="M9 3v1H7V3h2m1-1H6v3h4V2z"/><path fill="#FFE3AB" d="M9 2h4v3H9z"/><path fill="#EEBA6E" d="M12 3v1h-2V3h2m1-1H9v3h4V2z"/><path fill="#FFC857" d="M7 4V2H1v12h14V4z"/><path fill="#E8A33D" d="M6 3v2h8v8H2V3h4m1-1H1v12h14V4H7V2z"/></symbol><symbol viewBox="0 0 16 16" id="content-tab-item" xmlns="http://www.w3.org/2000/svg"><path fill="#FFC857" d="M7 4V2H1v12h14V4z"/><path fill="#E8A33D" d="M6 3v2h8v8H2V3h4m1-1H1v12h14V4H7V2z"/></symbol><symbol viewBox="0 0 16 16" id="content-table" xmlns="http://www.w3.org/2000/svg"><path fill="#FFF" d="M1 1h14v14H1V1z"/><path fill="#999" d="M1 1v14h14V1H1zm1 1h12v12H2V2z"/><path fill="#666" d="M3 3h10v2H3V3z"/><path fill="#B9B9B9" d="M7 6h2v1H7V6zm0 2h2v1H7V8zm0 2h2v1H7v-1zm0 2h2v1H7v-1zm3-6h3v1h-3V6zm0 2h3v1h-3V8zm0 2h3v1h-3v-1zm0 2h3v1h-3v-1zM3 6h3v1H3V6zm0 2h3v1H3V8zm0 2h3v1H3v-1zm0 2h3v1H3v-1z"/></symbol><symbol viewBox="0 0 16 16" id="content-target" xmlns="http://www.w3.org/2000/svg"><circle cx="8" cy="8" r="7" fill="#C83C3C"/><circle cx="8" cy="8" r="5" fill="#FFF"/><circle cx="8" cy="8" r="3" fill="#C83C3C"/><circle cx="8" cy="8" r="1" fill="#FFF"/></symbol><symbol viewBox="0 0 16 16" id="content-text" xmlns="http://www.w3.org/2000/svg"><path fill="#FFF" d="M1 1h14v14H1V1z"/><path fill="#999" d="M1 1v14h14V1H1zm1 1h12v12H2V2z"/><path fill="#666" d="M3 3h10v2H3V3z"/><path fill="#B9B9B9" d="M3 6h10v1H3V6zm0 2h10v1H3V8zm0 2h10v1H3v-1zm0 2h10v1H3v-1z"/></symbol><symbol viewBox="0 0 16 16" id="content-text-columns" xmlns="http://www.w3.org/2000/svg"><path fill="#FFF" d="M1 1h14v14H1V1z"/><path fill="#999" d="M1 1v14h14V1H1zm1 1h12v12H2V2z"/><path fill="#666" d="M3 3h10v2H3V3z"/><path fill="#B9B9B9" d="M8.5 6H13v1H8.5V6zm0 2H13v1H8.5V8zm0 2H13v1H8.5v-1zm0 2H13v1H8.5v-1zM3 6h4.5v1H3V6zm0 2h4.5v1H3V8zm0 2h4.5v1H3v-1zm0 2h4.5v1H3v-1z"/></symbol><symbol viewBox="0 0 16 16" id="content-text-teaser" xmlns="http://www.w3.org/2000/svg"><path fill="#FFF" d="M1 1h14v14H1V1z"/><path fill="#999" d="M1 1v14h14V1H1zm1 1h12v12H2V2z"/><path fill="#666" d="M3 3h4.5v2H3V3z"/><path fill="#B9B9B9" d="M3 6h4.5v2H3V6zm5.5-1H13v1H8.5V5zm0 2H13v1H8.5V7zm0 2H13v1H8.5V9zm0 2H13v1H8.5v-1zm0-8H13v1H8.5V3z"/></symbol><symbol viewBox="0 0 16 16" id="content-textmedia" xmlns="http://www.w3.org/2000/svg"><path fill="#FFF" d="M1 1h14v14H1V1z"/><path fill="#999" d="M1 1v14h14V1H1zm1 1h12v12H2V2z"/><path fill="#666" d="M3 3h10v1H3V3z"/><path fill="#B9B9B9" d="M3 5h10v1H3V5z"/><path fill="#639" d="M7 7h6v6H7V7z"/><path fill="#B9B9B9" d="M3 7h3v1H3V7zm0 2h3v1H3V9zm0 2h3v1H3v-1z"/><path fill="#FFF" d="M9 11.5v-3l1.3.8 1.3.8-1.3.8-1.3.6z"/></symbol><symbol viewBox="0 0 16 16" id="content-textpic" xmlns="http://www.w3.org/2000/svg"><path fill="#FFF" d="M1 1h14v14H1V1z"/><path fill="#999" d="M1 1v14h14V1H1zm1 1h12v12H2V2z"/><path fill="#666" d="M3 3h10v1H3V3z"/><path fill="#B9B9B9" d="M3 5h10v1H3V5z"/><path fill="#59F" d="M7 7h6v6H7V7z"/><path fill="#FFF" d="M11 12H8l.75-1 .75-1 .75 1 .75 1z"/><path fill="#FFF" d="M12 12H9.333l.667-.667.667-.666.666.666L12 12z"/><circle cx="11.5" cy="9.5" r=".5" fill="#FFF"/><path fill="#B9B9B9" d="M3 7h3v1H3V7zm0 2h3v1H3V9zm0 2h3v1H3v-1z"/></symbol><symbol viewBox="0 0 16 16" id="content-timeline" xmlns="http://www.w3.org/2000/svg"><path fill="#FFF" d="M6 1h7v4H6z"/><path fill="#666" d="M12 2v2H7V2h5m1-1H6v4h7V1z"/><path fill="#FFF" d="M6 6h7v4H6z"/><path fill="#666" d="M12 7v2H7V7h5m1-1H6v4h7V6z"/><path fill="#FFF" d="M6 11h7v4H6z"/><path fill="#666" d="M12 12v2H7v-2h5m1-1H6v4h7v-4z"/><path fill="#59F" d="M7 2h2v2H7zm0 5h2v2H7zm0 5h2v2H7z"/><path fill="#999" d="M5 3.5v-1H4V1H3v14h1v-1.5h1v-1H4v-4h1v-1H4v-4z"/></symbol><symbol viewBox="0 0 16 16" id="content-timeline-item" xmlns="http://www.w3.org/2000/svg"><path fill="#FFF" d="M6 5h7v6H6z"/><path fill="#666" d="M12 6v4H7V6h5m1-1H6v6h7V5z"/><path fill="#59F" d="M7 6h2v4H7z"/><path fill="#999" d="M5 3.5v-1H4V1H3v14h1v-1.5h1v-1H4v-4h1v-1H4v-4zm1-1h1v1H6zm2 0h1v1H8zm2 0h1v1h-1zm-4 10h1v1H6zm2 0h1v1H8zm2 0h1v1h-1z"/></symbol><symbol viewBox="0 0 16 16" id="content-widget" xmlns="http://www.w3.org/2000/svg"><path fill="#FFF" d="M4 3h10v12H4V3z"/><path fill="#666" d="M4 3v12h10V3H4zm1 1h8v10H5V4z"/><path fill="#999" d="M5 4h8v1H5z"/><path fill="#B9B9B9" d="M2 1h1v1H2zm0 2h1v1H2zm0 2h1v1H2zm0 2h1v1H2zm0 2h1v1H2zm0 2h1v1H2zM4 1h1v1H4zm2 0h1v1H6zm2 0h1v1H8zm2 0h1v1h-1z"/></symbol><symbol viewBox="0 0 16 16" id="content-widget-calltoaction" xmlns="http://www.w3.org/2000/svg"><path fill="#FFF" d="M4 3h10v12H4V3z"/><path fill="#666" d="M4 3v12h10V3H4zm1 1h8v10H5V4z"/><path fill="#999" d="M5 4h8v1H5z"/><path fill="#B9B9B9" d="M2 1h1v1H2zm0 2h1v1H2zm0 2h1v1H2zm0 2h1v1H2zm0 2h1v1H2zm0 2h1v1H2zM4 1h1v1H4zm2 0h1v1H6zm2 0h1v1H8zm2 0h1v1h-1z"/><path fill="#59F" d="M8 11h2v1H8z"/><path fill="#B9B9B9" d="M7 7h4v1H7zm0 2h4v1H7z"/></symbol><symbol viewBox="0 0 16 16" id="content-widget-chart" xmlns="http://www.w3.org/2000/svg"><path fill="#FFF" d="M4 3h10v12H4V3z"/><path fill="#666" d="M4 3v12h10V3H4zm1 1h8v10H5V4z"/><path fill="#999" d="M5 4h8v1H5z"/><path fill="#B9B9B9" d="M2 1h1v1H2zm0 2h1v1H2zm0 2h1v1H2zm0 2h1v1H2zm0 2h1v1H2zm0 2h1v1H2zM4 1h1v1H4zm2 0h1v1H6zm2 0h1v1H8zm2 0h1v1h-1z"/><path fill="#FFC857" d="M12 13H6v-3l1.875-2 1.875 2L12 7.625V13z"/><path fill="#59F" d="M12 13H6v-1l1.875-2 1.875 2L12 9.625V13z"/></symbol><symbol viewBox="0 0 16 16" id="content-widget-chart-bar" xmlns="http://www.w3.org/2000/svg"><path fill="#FFF" d="M4 3h10v12H4V3z"/><path fill="#666" d="M4 3v12h10V3H4zm1 1h8v10H5V4z"/><path fill="#999" d="M5 4h8v1H5z"/><path fill="#B9B9B9" d="M2 1h1v1H2zm0 2h1v1H2zm0 2h1v1H2zm0 2h1v1H2zm0 2h1v1H2zm0 2h1v1H2zM4 1h1v1H4zm2 0h1v1H6zm2 0h1v1H8zm2 0h1v1h-1z"/><path fill="#59F" d="M6 10h2v3H6z"/><path fill="#FFC857" d="M8 6h2v7H8z"/><path fill="#79A548" d="M10 8h2v5h-2z"/></symbol><symbol viewBox="0 0 16 16" id="content-widget-chart-pie" xmlns="http://www.w3.org/2000/svg"><path fill="#FFF" d="M4 3h10v12H4V3z"/><path fill="#666" d="M4 3v12h10V3H4zm1 1h8v10H5V4z"/><path fill="#999" d="M5 4h8v1H5z"/><path fill="#B9B9B9" d="M2 1h1v1H2zm0 2h1v1H2zm0 2h1v1H2zm0 2h1v1H2zm0 2h1v1H2zm0 2h1v1H2zM4 1h1v1H4zm2 0h1v1H6zm2 0h1v1H8zm2 0h1v1h-1z"/><circle cx="9" cy="10" r="3" fill="#59F"/><path fill="#FFC857" d="M9 10h3c0-1.7-1.3-3-3-3v3z"/></symbol><symbol viewBox="0 0 16 16" id="content-widget-image" xmlns="http://www.w3.org/2000/svg"><path fill="#FFF" d="M4 3h10v12H4V3z"/><path fill="#666" d="M4 3v12h10V3H4zm1 1h8v10H5V4z"/><path fill="#999" d="M5 4h8v1H5z"/><path fill="#B9B9B9" d="M2 1h1v1H2zm0 2h1v1H2zm0 2h1v1H2zm0 2h1v1H2zm0 2h1v1H2zm0 2h1v1H2zM4 1h1v1H4zm2 0h1v1H6zm2 0h1v1H8zm2 0h1v1h-1z"/><path fill="#59F" d="M6 6h6v7H6V6z"/><path fill="#E9F2FF" d="M12 7.153A.977.977 0 0011.5 7a1 1 0 000 2 .977.977 0 00.5-.153V7.153zM10.5 10l-2 3H12v-1z"/><path fill="#ACF" d="M6 10.75V13h4.5l-3-4.5z"/></symbol><symbol viewBox="0 0 16 16" id="content-widget-list" xmlns="http://www.w3.org/2000/svg"><path fill="#FFF" d="M4 3h10v12H4V3z"/><path fill="#666" d="M4 3v12h10V3H4zm1 1h8v10H5V4z"/><path fill="#999" d="M5 4h8v1H5z"/><path fill="#B9B9B9" d="M2 1h1v1H2zm0 2h1v1H2zm0 2h1v1H2zm0 2h1v1H2zm0 2h1v1H2zm0 2h1v1H2zM4 1h1v1H4zm2 0h1v1H6zm2 0h1v1H8zm2 0h1v1h-1zM8 6h4v1H8V6zm0 2h4v1H8V8zm0 2h4v1H8v-1zm0 2h4v1H8v-1z"/><path fill="#FF8700" d="M6 6h1v1H6V6zm0 2h1v1H6V8zm0 2h1v1H6v-1zm0 2h1v1H6v-1z"/></symbol><symbol viewBox="0 0 16 16" id="content-widget-number" xmlns="http://www.w3.org/2000/svg"><path fill="#FFF" d="M4 3h10v12H4V3z"/><path fill="#666" d="M4 3v12h10V3H4zm1 1h8v10H5V4z"/><path fill="#999" d="M5 4h8v1H5z"/><path fill="#B9B9B9" d="M2 1h1v1H2zm0 2h1v1H2zm0 2h1v1H2zm0 2h1v1H2zm0 2h1v1H2zm0 2h1v1H2zM4 1h1v1H4zm2 0h1v1H6zm2 0h1v1H8zm2 0h1v1h-1z"/><path fill="#A4276A" d="M8 7v1h2v1H8v1h2v1H8v1h2.75a.25.25 0 00.25-.25v-4.5a.25.25 0 00-.25-.25H8z"/></symbol><symbol viewBox="0 0 16 16" id="content-widget-rss" xmlns="http://www.w3.org/2000/svg"><path fill="#FFF" d="M4 3h10v12H4V3z"/><path fill="#666" d="M4 3v12h10V3H4zm1 1h8v10H5V4z"/><path fill="#999" d="M5 4h8v1H5z"/><path fill="#B9B9B9" d="M2 1h1v1H2zm0 2h1v1H2zm0 2h1v1H2zm0 2h1v1H2zm0 2h1v1H2zm0 2h1v1H2zM4 1h1v1H4zm2 0h1v1H6zm2 0h1v1H8zm2 0h1v1h-1z"/><path fill="#FF8700" d="M6 8c2.757 0 5 2.243 5 5h1a6 6 0 00-6-6v1z"/><path fill="#FF8700" d="M6 10c1.654 0 3 1.346 3 3h1a4 4 0 00-4-4v1zm.75 3a.75.75 0 010-1.5.75.75 0 010 1.5z"/></symbol><symbol viewBox="0 0 16 16" id="content-widget-table" xmlns="http://www.w3.org/2000/svg"><path fill="#FFF" d="M4 3h10v12H4V3z"/><path fill="#666" d="M4 3v12h10V3H4zm1 1h8v10H5V4z"/><path fill="#999" d="M5 4h8v1H5z"/><path fill="#B9B9B9" d="M2 1h1v1H2zm0 2h1v1H2zm0 2h1v1H2zm0 2h1v1H2zm0 2h1v1H2zm0 2h1v1H2zM4 1h1v1H4zm2 0h1v1H6zm2 0h1v1H8zm2 0h1v1h-1z"/><path fill="#666" d="M6 6h2v1H6z"/><path fill="#B9B9B9" d="M6 8h2v1H6zm0 2h2v1H6zm0 2h2v1H6z"/><path fill="#666" d="M9 6h1v1H9z"/><path fill="#B9B9B9" d="M9 8h1v1H9zm0 2h1v1H9zm0 2h1v1H9z"/><path fill="#666" d="M11 6h1v1h-1z"/><path fill="#B9B9B9" d="M11 8h1v1h-1zm0 2h1v1h-1zm0 2h1v1h-1z"/></symbol><symbol viewBox="0 0 16 16" id="content-widget-text" xmlns="http://www.w3.org/2000/svg"><path fill="#FFF" d="M4 3h10v12H4V3z"/><path fill="#666" d="M4 3v12h10V3H4zm1 1h8v10H5V4z"/><path fill="#999" d="M5 4h8v1H5z"/><path fill="#B9B9B9" d="M2 1h1v1H2zm0 2h1v1H2zm0 2h1v1H2zm0 2h1v1H2zm0 2h1v1H2zm0 2h1v1H2zM4 1h1v1H4zm2 0h1v1H6zm2 0h1v1H8zm2 0h1v1h-1z"/><path fill="#666" d="M6 6h6v1H6z"/><path fill="#B9B9B9" d="M6 8h6v1H6zm0 2h6v1H6zm0 2h6v1H6z"/></symbol></svg>