<?xml version="1.0" encoding="utf-8"?><svg class="typo3-icons-files" style="display: none;" xmlns="http://www.w3.org/2000/svg" xmlns:xlink="http://www.w3.org/1999/xlink"><symbol viewBox="0 0 64 64" id="files-folder" xmlns="http://www.w3.org/2000/svg"><path fill="#E8A33D" fill-rule="evenodd" d="M64 16H32l-6-6H0v44h64V16z"/><path fill="#FFC857" fill-rule="evenodd" d="M0 22h26l6-6h32v38H0V22z"/></symbol><symbol viewBox="0 0 64 64" id="files-folder-content" xmlns="http://www.w3.org/2000/svg"><path fill="#E8A33D" fill-rule="evenodd" d="M64 16H32l-6-6H0v44h64V16z"/><path fill="#FFF" fill-rule="evenodd" d="M2.5 12.5h59v39h-59z"/><path fill="#EAEAEA" d="M61 13v38H3V13h58m1-1H2v40h60V12z"/><path fill="#FFC857" fill-rule="evenodd" d="M0 22h26l6-6h32v38H0V22z"/></symbol><symbol viewBox="0 0 64 64" id="files-folder-images" xmlns="http://www.w3.org/2000/svg"><path fill="#E8A33D" fill-rule="evenodd" d="M64 16H32l-6-6H0v44h64V16z"/><path fill="#EAEAEA" fill-rule="evenodd" d="M2 12h60v40H2z"/><path fill="#FFC857" fill-rule="evenodd" d="M0 48h26l6-6h32v12H0v-6z"/></symbol></svg>