<?xml version="1.0" encoding="utf-8"?><svg class="typo3-icons-form" style="display: none;" xmlns="http://www.w3.org/2000/svg" xmlns:xlink="http://www.w3.org/1999/xlink"><symbol viewBox="0 0 16 16" id="form-advanced-password" xmlns="http://www.w3.org/2000/svg"><path fill="#FFF" d="M1 2h14v5H1z"/><path fill="#999" d="M14 3v3H2V3h12m1-1H1v5h14V2z"/><path fill="#666" d="M3 4h1v1H3zm2 0h1v1H5zm2 0h1v1H7z"/><path fill="#FFF" d="M1 9h14v5H1z"/><path fill="#999" d="M14 10v3H2v-3h12m1-1H1v5h14V9z"/><path fill="#666" d="M3 11h1v1H3zm2 0h1v1H5zm2 0h1v1H7z"/></symbol><symbol viewBox="0 0 16 16" id="form-checkbox" xmlns="http://www.w3.org/2000/svg"><path fill="#FFF" d="M1 1h14v14H1z"/><path fill="#999" d="M1 1v14h14V1H1zm13 13H2V2h12v12z"/><path fill="#666" d="M12.1 5.3l-.4-.3c-.1-.1-.3-.1-.4 0L6.6 9.8l-2-2c-.1-.1-.3-.1-.4 0l-.3.4c-.1.1-.1.3 0 .4L6 10.7l.4.3c.1.1.3.1.4 0l.4-.4 4.9-4.9c.1-.1.1-.3 0-.4z"/></symbol><symbol viewBox="0 0 16 16" id="form-content-element" xmlns="http://www.w3.org/2000/svg"><path fill="#FFF" d="M1 1h14v14H1z"/><path fill="#999" d="M14 2v12H2V2h12m1-1H1v14h14V1z"/><path fill="#666" d="M3 3h4v4H3z"/><path fill="#B9B9B9" d="M8 6h5v1H8zM3 8h10v1H3zm0 2h10v1H3zm0 2h10v1H3z"/><path fill="#666" d="M8 3h5v2H8z"/></symbol><symbol viewBox="0 0 16 16" id="form-date-picker" xmlns="http://www.w3.org/2000/svg"><path fill="#FFF" d="M11 3H1v12h14V3z"/><path fill="#999" d="M1 3v12h14V3H1zm13 11H2V4h12v10z"/><path fill="#B9B9B9" d="M6 6h1v1H6zM3 6h2v7H3zm5 0h1v1H8zm2 0h1v1h-1zm2 0h1v1h-1zM6 8h1v1H6zm2 0h1v1H8z"/><path fill="#666" d="M10 8h1v1h-1z"/><path fill="#B9B9B9" d="M12 8h1v1h-1zm-6 2h1v1H6zm2 0h1v1H8zm2 0h1v1h-1zm2 0h1v1h-1zm-6 2h1v1H6zm2 0h1v1H8zm2 0h1v1h-1zm2 0h1v1h-1z"/><path fill="#666" d="M1 1h14v3H1z"/><path fill="#999" d="M11 1h2v1h-2zM3 1h2v1H3z"/></symbol><symbol viewBox="0 0 16 16" id="form-email" xmlns="http://www.w3.org/2000/svg"><path fill="#FFF" d="M1.5 5.5h13v5h-13z"/><path fill="#999" d="M14 6v4H2V6h12m1-1H1v6h14V5z"/><path fill="#676767" d="M3 3h3v1H3zm0 9h3v1H3zm1-8h1v8H4z"/></symbol><symbol viewBox="0 0 16 16" id="form-fieldset" xmlns="http://www.w3.org/2000/svg"><path fill="#FFF" d="M1 1h14v14H1z"/><path fill="#999" d="M14 2v12H2V2h12m1-1H1v14h14V1z"/><path fill="#676767" d="M3 3h4v1H3z"/><path fill="#B9B9B9" d="M3 5h10v2H3zm0 3h10v2H3zm0 3h10v2H3z"/></symbol><symbol viewBox="0 0 16 16" id="form-file-upload" xmlns="http://www.w3.org/2000/svg"><path fill="#FFF" d="M2 1h12v10H2z"/><path fill="#B9B9B9" d="M13 2v8H3V2h10m1-1H2v10h12V1z"/><path fill="#FFF" d="M1 10h14v5H1z"/><path fill="#999" d="M14 11v3H2v-3h12m1-1H1v5h14v-5z"/><path fill="#666" d="M12 12h1v1h-1zm-2 0h1v1h-1zm1.3-4H4.7c-.2 0-.3-.3-.2-.4l3.3-3.7c.1-.1.3-.1.4 0l3.3 3.7c.1.1 0 .4-.2.4zM7 8h2v2H7z"/></symbol><symbol viewBox="0 0 16 16" id="form-finisher" xmlns="http://www.w3.org/2000/svg"><path fill="#CECECE" d="M14 9l-4 1-4-1-4 1V2l4-1 4 1 4-1z"/><path d="M2 2v2l2-.5v-2zm0 4v2l2-.5v-2zm4-3l-2 .5v2L6 5zM4 9.5L6 9V7l-2 .5zM6 5v2l2 .5v-2zm2-3.5L6 1v2l2 .5zM10 6V4l-2-.5v2zM8 9.5l2 .5V8l-2-.5zM10 6v2l2-.5v-2zm2-4.5L10 2v2l2-.5zM14 5V3l-2 .5v2zm0 4V7l-2 .5v2z" fill="#666"/><path fill="#212121" d="M6 2l3.8 1h.4l2.8-.7v5.9L10 9 6.2 8h-.4L3 8.7V2.8L6 2m8-1l-4 1-4-1-4 1v8l4-1 4 1 4-1V1z" opacity=".3"/><path fill="#333" d="M2 1h1v14H2z"/></symbol><symbol viewBox="0 0 16 16" id="form-gridcontainer" xmlns="http://www.w3.org/2000/svg"><path fill="#FFF" d="M1.5 2.5h13v11h-13z"/><path fill="#666" d="M14 3v10H2V3h12m1-1H1v12h14V2z"/><path fill="#B9B9B9" d="M3 4h4v2H3zM8 4h5v2H8zM3 7h4v2H3zM8 7h5v2H8z"/><g><path fill="#B9B9B9" d="M3 10h4v2H3z"/></g></symbol><symbol viewBox="0 0 16 16" id="form-gridrow" xmlns="http://www.w3.org/2000/svg"><path fill="#FFF" d="M1.5 2.5h13v11h-13z"/><path fill="#999" d="M14 3v10H2V3h12m1-1H1v12h14V2z"/><path fill="#666" d="M3 4h4v8H3z"/><g><path fill="#666" d="M8 4h5v8H8z"/></g></symbol><symbol viewBox="0 0 16 16" id="form-hidden" xmlns="http://www.w3.org/2000/svg"><path fill="#FFF" d="M1 5h14v6H1z"/><path fill="#999" d="M14 6v4H2V6h12m1-1H1v6h14V5z"/><path d="M2 10h1v1H2zM1 9h1v1H1zm3 1h1v1H4zm2 0h1v1H6zm2 0h1v1H8zm2 0h1v1h-1zm2 0h1v1h-1zm2 0h1v1h-1zm0-2h1v1h-1zm0-2h1v1h-1zm-1-1h1v1h-1zm-2 0h1v1h-1zM9 5h1v1H9zM7 5h1v1H7zM5 5h1v1H5zM3 5h1v1H3zM1 5h1v1H1zm0 2h1v1H1z" fill="#FFF" opacity=".75"/></symbol><symbol viewBox="0 0 16 16" id="form-image-upload" xmlns="http://www.w3.org/2000/svg"><path fill="#FFF" d="M2 1h12v10H2z"/><path fill="#B9B9B9" d="M13 2v8H3V2h10m1-1H2v10h12V1z"/><path fill="#FFF" d="M1 10h14v5H1z"/><path fill="#999" d="M14 11v3H2v-3h12m1-1H1v5h14v-5z"/><path fill="#666" d="M10 10H4l1.5-2.5L7 5l1.5 2.5L10 10z"/><path fill="#666" d="M12 10H6.7L8 8.3l1.3-1.7 1.3 1.7L12 10z"/><circle cx="11" cy="4" r="1" fill="#666"/><path fill="#666" d="M12 12h1v1h-1zm-2 0h1v1h-1z"/></symbol><symbol viewBox="0 0 16 16" id="form-multi-checkbox" xmlns="http://www.w3.org/2000/svg"><path fill="#FFF" d="M1.5 1.5h11v11h-11z"/><path fill="#CCC" d="M12 2v10H2V2h10m1-1H1v12h12V1z"/><path fill="#FFF" d="M3.5 3.5h11v11h-11z"/><path fill="#999" d="M14 4v10H4V4h10m1-1H3v12h12V3z"/><g><path fill="#666" d="M11.1 6.9L8.3 9.7 6.9 8.3l-.7.7 2.1 2.1 3.5-3.5z"/></g></symbol><symbol viewBox="0 0 16 16" id="form-multi-select" xmlns="http://www.w3.org/2000/svg"><path fill="#FFF" d="M1.5 1.5h11v11h-11z"/><path fill="#CCC" d="M12 2v10H2V2h10m1-1H1v12h12V1z"/><path fill="#FFF" d="M3.5 3.5h11v11h-11z"/><path fill="#999" d="M14 4v10H4V4h10m1-1H3v12h12V3z"/><path fill="#666" d="M6.9 7.6l.7.7L9 6.9l1.4 1.4.7-.7L9 5.5zm4.2 2.8l-.7-.7L9 11.1 7.6 9.7l-.7.7L9 12.5z"/></symbol><symbol viewBox="0 0 16 16" id="form-number" xmlns="http://www.w3.org/2000/svg"><path fill="#FFF" d="M1.5 5.5h13v5h-13z"/><path fill="#999" d="M14 6v4H2V6h12m1-1H1v6h14V5z"/><path fill="#676767" d="M3 3h3v1H3zm0 9h3v1H3zm1-8h1v8H4z"/></symbol><symbol viewBox="0 0 16 16" id="form-page" xmlns="http://www.w3.org/2000/svg"><path fill="#EFEFEF" d="M2 0v16h12V4l-4-4H2z"/><path fill="#FFF" d="M10 4V0l4 4h-4z" opacity=".65"/><path fill="#B9B9B9" d="M4 4h4v1H4zm0 2h8v1H4zm0 2h8v4H4z"/><path fill="#59F" d="M4 13h4v1H4z"/><path fill="#212121" d="M13 5v5L9 5h4z" opacity=".2"/><path fill="#999" d="M2 0v16h12V4l-4-4H2zm1 1h6v4h4v10H3V1zm7 .4L12.6 4H10V1.4z"/></symbol><symbol viewBox="0 0 16 16" id="form-password" xmlns="http://www.w3.org/2000/svg"><path fill="#FFF" d="M1 5h14v6H1z"/><path fill="#999" d="M14 6v4H2V6h12m1-1H1v6h14V5z"/><path fill="#666" d="M3 7h1v2H3zm2 0h1v2H5zm2 0h1v2H7z"/></symbol><symbol viewBox="0 0 16 16" id="form-radio-button" xmlns="http://www.w3.org/2000/svg"><circle cx="8" cy="8" r="6.5" fill="#FFF"/><path fill="#999" d="M8 2c3.3 0 6 2.7 6 6s-2.7 6-6 6-6-2.7-6-6 2.7-6 6-6m0-1C4.1 1 1 4.1 1 8s3.1 7 7 7 7-3.1 7-7-3.1-7-7-7z"/><g><circle cx="8" cy="8" r="4" fill="#666"/></g></symbol><symbol viewBox="0 0 16 16" id="form-single-select" xmlns="http://www.w3.org/2000/svg"><path fill="#FFF" d="M1 1h14v14H1z"/><path fill="#999" d="M14 2v12H2V2h12m1-1H1v14h14V1z"/><path fill="#666" d="M5.2 6.8l.7.7L8 5.4l2.1 2.1.7-.7L8 4zm5.6 2.4l-.7-.7L8 10.6 5.9 8.5l-.7.7L8 12z"/></symbol><symbol viewBox="0 0 16 16" id="form-static-text" xmlns="http://www.w3.org/2000/svg"><path fill="#FFF" d="M1 1h14v14H1z"/><path fill="#999" d="M14 2v12H2V2h12m1-1H1v14h14V1z"/><path fill="#666" d="M3 3h10v2H3z"/><path fill="#B9B9B9" d="M3 6h10v1H3zm0 2h10v1H3zm0 2h10v1H3zm0 2h10v1H3z"/></symbol><symbol viewBox="0 0 16 16" id="form-summary-page" xmlns="http://www.w3.org/2000/svg"><path fill="#EFEFEF" d="M2 0v16h12V4l-4-4H2z"/><path fill="#FFF" d="M10 4V0l4 4h-4z" opacity=".65"/><path fill="#B9B9B9" d="M7 7h5v1H7zm0 2h5v1H7zm0 2h5v1H7z"/><path fill="#79A548" d="M4 7h2v1H4zm0 2h2v1H4zm0 2h2v1H4z"/><path fill="#B9B9B9" d="M7 13h5v1H7z"/><path fill="#79A548" d="M4 13h2v1H4z"/><path fill="#212121" d="M13 5v5L9 5h4z" opacity=".2"/><path fill="#999" d="M2 0v16h12V4l-4-4H2zm1 1h6v4h4v10H3V1zm7 .4L12.6 4H10V1.4z"/></symbol><symbol viewBox="0 0 16 16" id="form-telephone" xmlns="http://www.w3.org/2000/svg"><path fill="#FFF" d="M1.5 5.5h13v5h-13z"/><path fill="#999" d="M14 6v4H2V6h12m1-1H1v6h14V5z"/><path fill="#676767" d="M3 3h3v1H3zm0 9h3v1H3zm1-8h1v8H4z"/></symbol><symbol viewBox="0 0 16 16" id="form-text" xmlns="http://www.w3.org/2000/svg"><path fill="#FFF" d="M1.5 5.5h13v5h-13z"/><path fill="#999" d="M14 6v4H2V6h12m1-1H1v6h14V5z"/><path fill="#676767" d="M3 3h3v1H3zm0 9h3v1H3zm1-8h1v8H4z"/></symbol><symbol viewBox="0 0 16 16" id="form-textarea" xmlns="http://www.w3.org/2000/svg"><path fill="#FFF" d="M1 1h14v14H1z"/><path fill="#999" d="M14 2v12H2V2h12m1-1H1v14h14V1z"/><path fill="#666" d="M3 3h10v1H3zM3 5h10v1H3zM3 7h10v1H3zM3 9h10v1H3zM3 11h5v1H3z"/></symbol><symbol viewBox="0 0 16 16" id="form-url" xmlns="http://www.w3.org/2000/svg"><path fill="#FFF" d="M1.5 5.5h13v5h-13z"/><path fill="#999" d="M14 6v4H2V6h12m1-1H1v6h14V5z"/><path fill="#676767" d="M3 3h3v1H3zm0 9h3v1H3zm1-8h1v8H4z"/></symbol><symbol viewBox="0 0 16 16" id="form-validator" xmlns="http://www.w3.org/2000/svg"><path fill="#FFF" d="M2 1v7c0 4 5.6 6.8 5.8 6.9l.2.1.2-.1c.3-.1 5.8-3 5.8-6.9V1H2z"/><path fill="#999" d="M13 2v6c0 2.8-3.8 5.2-5 5.8-1.2-.6-5-3-5-5.8V2h10m1-1H2v7c0 4 5.6 6.8 5.8 6.9l.2.1.2-.1c.3-.1 5.8-3 5.8-6.9V1z"/><path fill="#666" d="M8 3H4v5c0 1.9 2.5 3.8 4 4.7V3z"/></symbol></svg>