<?xml version="1.0" encoding="utf-8"?><svg class="typo3-icons-information" style="display: none;" xmlns="http://www.w3.org/2000/svg" xmlns:xlink="http://www.w3.org/1999/xlink"><symbol viewBox="0 0 16 16" id="information-os-unknown" xmlns="http://www.w3.org/2000/svg"><g class="icon-color"><path d="M8 1C4.1 1 1 4.1 1 8s3.1 7 7 7 7-3.1 7-7-3.1-7-7-7zm6 7c0 3.3-2.7 6-6 6s-6-2.7-6-6 2.7-6 6-6 6 2.7 6 6z"/><path d="M8.1 7.9c0 .7-.2 1.4-.7 1.9-.5.5-1.2.8-1.9.7-.7 0-1.4-.2-1.9-.7-.5-.5-.8-1.2-.8-1.9S3 6.5 3.5 6c.5-.5 1.2-.8 1.9-.7.7 0 1.4.2 1.9.7.6.5.8 1.2.8 1.9zM6.4 9.2c.1-.2.2-.4.2-.6.1-.2.1-.5.1-.7 0-.3 0-.5-.1-.8 0-.2-.1-.4-.3-.5-.1-.2-.2-.3-.4-.3-.3-.1-.6-.1-.9 0-.2 0-.3.1-.4.3-.1.1-.2.3-.3.5-.1.3-.1.5-.1.8 0 .3 0 .5.1.8.1.1.2.3.3.5.1.1.2.2.4.3.2.1.3.1.5.1s.3 0 .5-.1c.1-.1.2-.2.4-.3zm6.5-.4c0 .5-.2.9-.6 1.2-.5.3-1.1.5-1.7.5-.4 0-.7 0-1.1-.1l-.9-.3V8.9h.1c.3.2.6.4.9.5.3.1.6.2 1 .2h.3c.1 0 .2 0 .3-.1.1 0 .2-.1.2-.2.1-.1.1-.2.1-.3 0-.1-.1-.2-.1-.3-.1-.1-.3-.2-.4-.2-.2 0-.4-.1-.6-.1-.2 0-.4-.1-.6-.2-.4 0-.7-.2-1-.5-.2-.2-.3-.5-.3-.8 0-.5.2-.9.6-1.2.5-.3 1.1-.5 1.6-.4.3 0 .7 0 1 .1.3.1.6.1.8.2v1.2h-.1c-.2-.2-.5-.3-.8-.4-.3-.1-.6-.2-.9-.2h-.3c-.1 0-.2 0-.3.1-.1 0-.2.1-.2.2v.2c0 .1.1.2.2.3.2.1.4.2.6.2.2 0 .4.1.5.1.2 0 .4.1.6.2.3.1.6.3.9.5.1.2.2.5.2.8z"/></g></symbol><symbol viewBox="0 0 16 16" id="information-typo3-version" xmlns="http://www.w3.org/2000/svg"><path d="M11.1 10.3c-.2 0-.3.1-.5.1C9 10.4 6.8 5 6.8 3.2c0-.7.2-.9.4-1.1-2 .2-4.2.9-4.9 1.8-.2.2-.3.6-.3 1 0 2.8 3 9.2 5.1 9.2 1 0 2.6-1.6 4-3.8m-1-8.4c1.9 0 3.9.3 3.9 1.4 0 2.2-1.4 4.9-2.1 4.9C10.6 8.3 9 4.7 9 2.9c0-.8.3-1 1.1-1"/></symbol></svg>