<?xml version="1.0" encoding="utf-8"?><svg class="typo3-icons-install" style="display: none;" xmlns="http://www.w3.org/2000/svg" xmlns:xlink="http://www.w3.org/1999/xlink"><symbol viewBox="0 0 32 32" id="install-check-brokenextension" xmlns="http://www.w3.org/2000/svg"><path fill="#C83C3C" d="M24.8 5H7.2c-.1 0-.2.1-.3.1L4 10.9v15.8c0 .2.1.3.3.3h23.5c.1 0 .3-.1.3-.3V11l-2.9-5.8c-.2-.1-.3-.2-.4-.2z"/><path d="M24.8 5H7.2c-.1 0-.2.1-.3.1l-1 2.2h20.3l-1.1-2.1c-.1-.1-.2-.2-.3-.2zm2.1 3.8H5.1L4 11h24z" fill="#212121" opacity=".15"/><path fill="#FFF" d="M19.9 16.5L17.4 19l2.5 2.5c.2.2.2.5 0 .7l-.7.7c-.2.2-.5.2-.7 0L16 20.4l-2.5 2.5c-.2.2-.5.2-.7 0l-.7-.7c-.2-.2-.2-.5 0-.7l2.5-2.5-2.5-2.5c-.2-.2-.2-.5 0-.7l.7-.7c.2-.2.5-.2.7 0l2.5 2.5 2.5-2.5c.2-.2.5-.2.7 0l.7.7c.2.2.2.5 0 .7z"/></symbol><symbol viewBox="0 0 32 32" id="install-check-directory" xmlns="http://www.w3.org/2000/svg"><path fill="#FFC857" fill-rule="evenodd" d="M29 9H15l-4-2H3v18h26V9z"/><path fill="#212121" fill-rule="evenodd" d="M29 9H3v16h26V9z" opacity=".25"/><path fill="#FFC857" fill-rule="evenodd" d="M3 13h8l4.1-3H29v15H3V13z"/></symbol><symbol viewBox="0 0 32 32" id="install-check-extables" xmlns="http://www.w3.org/2000/svg"><path fill="#C83C3C" d="M5 2v28h22V8l-6-6H5z"/><path fill="#FFF" d="M21 8V2l6 6h-6z" opacity=".65"/><path fill="#212121" d="M27 8v6l-6-6h6z" opacity=".15"/><path fill="#FFF" d="M19.9 15.5L17.4 18l2.5 2.5c.2.2.2.5 0 .7l-.7.7c-.2.2-.5.2-.7 0L16 19.4l-2.5 2.5c-.2.2-.5.2-.7 0l-.7-.7c-.2-.2-.2-.5 0-.7l2.5-2.5-2.5-2.5c-.2-.2-.2-.5 0-.7l.7-.7c.2-.2.5-.2.7 0l2.5 2.5 2.5-2.5c.2-.2.5-.2.7 0l.7.7c.2.2.2.5 0 .7z"/></symbol><symbol viewBox="0 0 32 32" id="install-check-tca" xmlns="http://www.w3.org/2000/svg"><path fill="#59F" d="M27 6H5V3c0-.6.4-1 1-1h20c.6 0 1 .4 1 1v3z"/><path fill="#515151" d="M26 30H6c-.6 0-1-.4-1-1V6h22v23c0 .6-.4 1-1 1z"/><path fill="#FFF" d="M22 20v2h-2v-1.5c0-.2-.2-.3-.4-.2l-3.3 2c-.2.1-.2.3 0 .4l3.3 2c.2.1.4 0 .4-.2V23h3v-3h-1zm-8 3h1l-1.5-4h-1L11 23h1l.2-.5h1.6l.2.5zm-1.4-1.5l.4-1.2.4 1.2h-.8zm8.4-5.7c0 .2 0 .4-.1.5-.1.2-.2.3-.4.4l-.6.3H17v-4h2.6c.2 0 .3.1.5.1.2.1.3.2.4.3.1.1.1.3.1.4 0 .2-.1.4-.2.5-.1.1-.3.3-.5.3.3.1.5.2.7.3.3.4.4.6.4.9zm-1.5-1.7c0-.1 0-.1-.1-.2 0-.1-.1-.1-.2-.1H18v.8h.9c.1 0 .2 0 .3-.1.1 0 .2-.1.2-.2 0 0 .1-.1.1-.2zm.2 1.7c0-.1 0-.2-.1-.3-.1-.1-.2-.1-.3-.2h-1.4v1h1c.1 0 .3 0 .4-.1s.2-.1.3-.2c.1-.1.1-.1.1-.2zm-4-2.5l-3.3-2c-.2-.1-.4 0-.4.2V13H9v3h1v-2h2v1.5c0 .2.2.3.4.2l3.3-2c.1-.1.1-.3 0-.4z"/><path fill="#FFF" d="M22.5 11h-7c-.3 0-.5.2-.5.5v.2l1 .6V12h6v6h-5v-.5c0-.3-.2-.5-.5-.5H16v-2.3l-1 .6V17H9.5c-.3 0-.5.2-.5.5v7c0 .3.2.5.5.5h7c.3 0 .5-.2.5-.5v-.2l-1-.6v.3h-6v-6h6v3.3l1-.6V19h5.5c.3 0 .5-.2.5-.5v-7c0-.3-.2-.5-.5-.5z"/></symbol><symbol viewBox="0 0 32 32" id="install-clear-autoload" xmlns="http://www.w3.org/2000/svg"><path fill="#777BB3" d="M24.8 5H7.2c-.1 0-.2.1-.3.1L4 10.9v15.8c0 .2.1.3.3.3h23.5c.1 0 .3-.1.3-.3V11l-2.9-5.8c-.2-.1-.3-.2-.4-.2z"/><path d="M24.8 5H7.2c-.1 0-.2.1-.3.1l-1 2.2h20.3l-1.1-2.1c-.1-.1-.2-.2-.3-.2zm2.1 3.8H5.1L4 11h24zM4.8 23L6 25v-1h2.7c.2 0 .3-.1.4-.3l1.4-2.5c.1-.2.1-.3 0-.5l-1.4-2.4-1.7 1L9 22H6v-1l-1.2 2zM4 16.7L5 15l1.5 2.6-.9.5H8L9.2 16l-.9.5-1.4-2.4c-.1 0-.3-.1-.5-.1H4v2.7z" fill="#FFF" opacity=".15"/><path d="M10.3 16.7h2.4c.7 0 1.2.2 1.5.6s.4.9.3 1.6c0 .3-.1.6-.3.9-.1.3-.3.6-.6.8-.3.3-.6.5-.9.6-.3.1-.7.1-1 .1h-1.1l-.4 1.7H9l1.3-6.3m1 1l-.5 2.6h.2c.6 0 1 0 1.4-.2.4-.1.6-.6.8-1.3.1-.6 0-1-.3-1.1s-.7-.1-1.2-.1h-.2c-.1.1-.1.1-.2.1m4.6-2.7h1.2l-.3 1.7h1.1c.6 0 1.1.1 1.3.4.3.2.4.7.3 1.3l-.6 2.9h-1.2l.6-2.8c.1-.3 0-.5-.1-.6s-.3-.2-.6-.2h-1l-.7 3.6h-1.2l1.2-6.3m4.9 1.7h2.4c.7 0 1.2.2 1.5.6s.4.9.3 1.6c0 .3-.1.6-.3.9-.1.3-.3.6-.6.8-.3.3-.6.5-.9.6s-.7.1-1 .1h-1.1l-.4 1.7h-1.2l1.3-6.3m1 1l-.5 2.6h.2c.6 0 1 0 1.4-.2.4-.1.6-.6.8-1.3.1-.6 0-1-.3-1.1s-.7-.1-1.2-.1H22c-.1.1-.1.1-.2.1" fill="#FFF"/></symbol><symbol viewBox="0 0 32 32" id="install-clear-cache" xmlns="http://www.w3.org/2000/svg"><path fill="#59F" d="M2 4h22v22H2z"/><ellipse cx="13" cy="26" fill="#59F" rx="11" ry="4"/><ellipse cx="13" cy="4" fill="#59F" rx="11" ry="4"/><g opacity=".25"><ellipse cx="13" cy="4" fill="#FFF" rx="11" ry="4"/><ellipse cx="13" cy="4" fill="#212121" rx="7" ry="2"/></g><path fill="#FFC857" d="M14 13h16v16H14z"/><ellipse cx="22" cy="29" fill="#FFC857" rx="8" ry="3"/><ellipse cx="22" cy="13" fill="#FFC857" rx="8" ry="3"/><g opacity=".25"><ellipse cx="22" cy="13" fill="#FFF" rx="8" ry="3"/><ellipse cx="22" cy="13" rx="5" ry="1.5"/></g><path fill="#FFF" d="M20.5 27.8l4.5-5.7c.1-.2.1-.5-.2-.5H23c-.2 0-.3-.1-.2-.3l1.6-2.8c.1-.2.1-.5-.2-.5H21c-.2 0-.4.2-.5.3l-1.4 5c-.1.2.1.3.3.3H21c.2 0 .3.2.2.3 0 0-1.4 3.5-1.4 3.6 0 .2.2.4.4.4.1 0 .2 0 .3-.1-.1.1-.1 0 0 0z"/></symbol><symbol viewBox="0 0 32 32" id="install-clear-database" xmlns="http://www.w3.org/2000/svg"><path fill="#59F" d="M6 5.5h20v21H6z"/><ellipse cx="16" cy="26.5" fill="#59F" rx="10" ry="3.5"/><ellipse cx="16" cy="5.5" fill="#59F" rx="10" ry="3.5"/><ellipse cx="16" cy="5.5" fill="#FFF" rx="10" ry="3.5" opacity=".25"/><ellipse cx="16" cy="5.3" fill="#212121" rx="7" ry="1.8" opacity=".25"/><g fill="#FFF"><path d="M19 17.1l1.2-2.1-.9.5-1.4-2.4c-.1-.2-.3-.2-.4-.2h-2.6c-.4 0-.7.2-.9.5l-1.2 2.1 1.7 1L16 14l1.5 2.6-.9.5H19zM15.8 22l1.2 2v-1h2.7c.2 0 .3-.1.4-.3l1.4-2.5c.1-.2.1-.3 0-.5l-1.4-2.4-1.7 1L20 21h-3v-1.1L15.8 22zm-2.6-5.1h-2.4l.9.5-1.4 2.4c-.1.2-.1.3 0 .5l1.4 2.5c.1.2.3.3.4.3h2.8v-2L12 21l1.5-2.6.9.5-1.2-2z"/></g></symbol><symbol viewBox="0 0 32 32" id="install-clear-files" xmlns="http://www.w3.org/2000/svg"><path fill="#FFC857" d="M6 5.5h20v21H6z"/><ellipse cx="16" cy="26.5" fill="#FFC857" rx="10" ry="3.5"/><ellipse cx="16" cy="5.5" fill="#FFC857" rx="10" ry="3.5"/><ellipse cx="16" cy="5.5" fill="#FFF" rx="10" ry="3.5" opacity=".25"/><ellipse cx="16" cy="5.3" fill="#212121" rx="7" ry="1.8" opacity=".25"/><g fill="#FFF"><path d="M19 17.1l1.2-2.1-.9.5-1.4-2.4c-.1-.2-.3-.2-.4-.2h-2.6c-.4 0-.7.2-.9.5l-1.2 2.1 1.7 1L16 14l1.5 2.6-.9.5H19zM15.8 22l1.2 2v-1h2.7c.2 0 .3-.1.4-.3l1.4-2.5c.1-.2.1-.3 0-.5l-1.4-2.4-1.7 1L20 21h-3v-1.1L15.8 22zm-2.6-5.1h-2.4l.9.5-1.4 2.4c-.1.2-.1.3 0 .5l1.4 2.5c.1.2.3.3.4.3h2.8v-2L12 21l1.5-2.6.9.5-1.2-2z"/></g></symbol><symbol viewBox="0 0 32 32" id="install-create-admin" xmlns="http://www.w3.org/2000/svg"><path fill="#FF8700" d="M27.4 23.2c-3-.8-5-2-7.1-2.8.1.4.1.6-.1.9-2.1 2.3-6.5 2.1-8.4 0-.3-.3-.2-.5-.1-.9-2.1.8-4.1 2-7.1 2.8 0 0-2.5 1.4-2.6 6.8h28c-.2-5.6-2.6-6.8-2.6-6.8z"/><path fill="#FFC857" d="M16 17.8c-1.2 0-2.5-.7-3.5-1.7-.1 4.2-1.3 4.6-.7 5.2 1.9 2.1 6.3 2.3 8.4 0 .6-.6-.5-1-.7-5.3-1 1-2.2 1.8-3.5 1.8z"/><path fill="#212121" d="M16 17.8c-1.2 0-2.5-.7-3.5-1.7-.1 4.2-1.3 4.6-.7 5.2 1.9 2.1 6.3 2.3 8.4 0 .6-.6-.5-1-.7-5.3-1 1-2.2 1.8-3.5 1.8z" opacity=".05"/><path fill="#FFC857" d="M16 17.8c-3 0-5.9-4-5.9-6.8V7.1c0-2.8 2.4-5.1 5.3-5.1h1.4c3 0 5.3 2.3 5.3 5.1V11c-.2 2.7-3.1 6.8-6.1 6.8z"/><path fill="#FFF" d="M16 17.8c-3 0-5.9-4-5.9-6.8V7.1c0-2.8 2.4-5.1 5.3-5.1h1.4c3 0 5.3 2.3 5.3 5.1V11c-.2 2.7-3.1 6.8-6.1 6.8z" opacity=".15"/></symbol><symbol viewBox="0 0 32 32" id="install-database-analyze" xmlns="http://www.w3.org/2000/svg"><path fill="#79A548" d="M6 5.5h20v21H6z"/><g fill="#79A548"><ellipse cx="16" cy="26.5" rx="10" ry="3.5"/><ellipse cx="16" cy="5.5" rx="10" ry="3.5"/></g><g opacity=".25"><ellipse cx="16" cy="5.5" fill="#FFF" rx="10" ry="3.5"/><ellipse cx="16" cy="5.3" fill="#212121" rx="7" ry="1.8"/></g><g fill="#FFF"><path d="M22.1 17.9c-.1-.1-.2-.2-.4-.2h-.9c-.1-2.5-2.2-4.5-4.7-4.5-.8 0-1.7.2-2.4.7l-.3.1.7 1.2.2-.1c.5-.3 1.1-.5 1.7-.5 1.8 0 3.3 1.4 3.4 3.2h-.8c-.2 0-.3.1-.4.2-.1.1-.1.3 0 .4l1.5 2.5c.2.1.3.1.5.1s.3-.1.4-.2l1.5-2.5c.1-.1.1-.2 0-.4zM17.6 21c-.5.3-1.1.4-1.7.4a3.4 3.4 0 01-3.4-3.2h.8c.2 0 .3-.1.4-.2.1-.1.1-.3 0-.4l-1.5-2.5c-.2-.2-.6-.2-.7 0L10 17.6c-.1.1-.1.3 0 .4.1.1.2.2.4.2h.9c.1 2.5 2.2 4.5 4.7 4.5.8 0 1.6-.2 2.4-.6l.2-.1-.7-1.1-.3.1z"/></g></symbol><symbol viewBox="0 0 32 32" id="install-documentation" xmlns="http://www.w3.org/2000/svg"><path fill="#9F6358" d="M6 4h20v26H6z"/><path fill="#FFF" d="M6 4h2v26H6z" opacity=".2"/><path fill="#212121" d="M8 4h1v26H8z" opacity=".2"/><path fill="#FFF" d="M21.8 12h-9.5c-.1 0-.3-.1-.3-.3V7.3c0-.2.1-.3.3-.3h9.5c.1 0 .2.1.2.3v4.5c0 .1-.1.2-.2.2z" opacity=".8"/><path fill="#7C4C46" d="M26 4H6l1-2h18z"/><path fill="#FFF" d="M8 4H6l1-2h2z" opacity=".2"/><path fill="#212121" d="M9 4H8l1-2h1z" opacity=".2"/><path fill="#FFF" d="M25.8 3.5H7l.5-1h17.8z" opacity=".8"/><path fill="#FFF" d="M17.8 26.1h-.1c-.4 0-.9-1.4-.9-1.8 0-.2 0-.2.1-.3-.5.1-1 .2-1.2.5-.1 0-.1.1-.1.3 0 .7.8 2.3 1.3 2.3.1-.1.5-.5.9-1m-.3-2.1c.5 0 1 .1 1 .4 0 .5-.4 1.2-.5 1.2-.3 0-.7-.9-.7-1.3 0-.3 0-.3.2-.3"/></symbol><symbol viewBox="0 0 32 32" id="install-extension-settings" xmlns="http://www.w3.org/2000/svg"><path fill="#FFC857" d="M24.8 5H7.2c-.1 0-.2.1-.3.1L4 10.9v15.8c0 .2.1.3.3.3h23.5c.1 0 .3-.1.3-.3V11l-2.9-5.8c-.2-.1-.3-.2-.4-.2z"/><path d="M24.8 5H7.2c-.1 0-.2.1-.3.1l-1 2.2h20.3l-1.1-2.1c-.1-.1-.2-.2-.3-.2zm2.1 3.8H5.1L4 11h24z" fill="#212121" opacity=".15"/><path fill="#3E3E3E" d="M20 19.4v-.9h-.1l-.9-.4-.3-.6.5-1-.6-.6h-.1l-.9.5-.6-.3-.6-1.1h-.9v.1l-.4.9-.6.3-1-.5-.6.6v.1l.5.9-.3.6-1.1.6v.9h.1l.9.4.3.6-.5 1 .6.7.1-.1.9-.5.6.3.4 1.1h.9v-.1l.4-.9.6-.3 1 .5.6-.6v-.1l-.5-.9.3-.6 1.3-.6zM16 21c-1.1 0-2-.9-2-2s.9-2 2-2 2 .9 2 2-.9 2-2 2z" opacity=".75"/></symbol><symbol viewBox="0 0 32 32" id="install-manage-features" xmlns="http://www.w3.org/2000/svg"><path fill="#CCE9FF" d="M27.3 25.5L20 15.9V4h-8v11.9l-7.3 9.6C3.6 27.5 5 30 7.3 30h17.3c2.4 0 3.8-2.5 2.7-4.5z"/><path fill="#59F" d="M27.3 25.5l-2-2.5c-1.4.1-2.7.2-3.6.1-4.2-.1-4.4-2.9-8.7-2.9-1.6 0-3.2.3-4.7.6l-3.5 4.7C3.6 27.5 5 30 7.3 30c0 0 4.7 1 8.7 1 4.7 0 8.7-1 8.7-1 2.3 0 3.7-2.5 2.6-4.5z"/><circle cx="17" cy="16" r="1" fill="#59F"/><circle cx="17.5" cy="9" r=".5" fill="#59F"/><circle cx="15.5" cy="12" r=".5" fill="#59F"/><circle cx="13.5" cy="18" r=".5" fill="#59F"/><circle cx="15" cy="7" r="1" fill="#59F"/><ellipse cx="16" cy="4" fill="#ABD7FF" rx="4" ry="1"/><g opacity=".25"><ellipse cx="16" cy="4" fill="#59F" rx="3.8" ry=".8"/><path fill="#212121" d="M16 3.5c1.8 0 2.9.3 3.4.5-.4.2-1.6.5-3.4.5s-2.9-.3-3.4-.5c.5-.2 1.6-.5 3.4-.5m0-.5c-2.2 0-4 .4-4 1s1.8 1 4 1 4-.4 4-1-1.8-1-4-1z"/></g></symbol><symbol viewBox="0 0 32 32" id="install-manage-language" xmlns="http://www.w3.org/2000/svg"><path fill="#59F" d="M10.7 6h16.4c.5 0 .9.4.9.9v18.2c0 .5-.4.9-.9.9h-10L10.7 6z"/><path fill="#FFF" d="M14.4 13.5V13c0-.4.3-.7.7-.7H19v-1.1c0-.4.3-.7.7-.7h.3c.4 0 .7.3.7.7v1.1h3.9c.4 0 .7.3.7.7v.5c0 .4-.3.7-.7.7h-.9c-.4 1.4-1.3 2.9-2.6 4.3.6.5 1.2 1 1.8 1.4.3.2.4.6.2.9l-.2.4c-.2.3-.6.4-1 .2-.7-.5-1.4-1-2.1-1.6-.7.6-1.4 1.1-2.2 1.6-.3.2-.8.1-1-.2l-.2-.4c-.2-.3-.1-.7.2-.9.6-.4 1.3-.9 1.8-1.4-.6-.6-1.1-1.3-1.5-1.9-.2-.3-.1-.8.2-1l.4-.2c.3-.2.7-.1.9.2.4.5.8 1.1 1.2 1.6.9-1 1.5-2 1.9-3H15c-.3 0-.6-.3-.6-.7z"/><path fill="#212121" d="M24 26H11V6h6.7z" opacity=".25"/><path fill="#C83C3C" d="M23 27H5c-.5 0-1-.4-1-1V6c0-.6.4-1 1-1h11l7 22z"/><path fill="#FFF" d="M7 22l3.8-12H14l3.8 12h-2.9l-.7-2.9h-3.7L9.8 22H7zm4.3-6.1L11 17h2.6l-.3-1.1c-.2-.6-.3-1.2-.5-1.9s-.3-1.3-.5-2h-.1c-.1.6-.3 1.3-.5 2 0 .7-.2 1.3-.4 1.9z"/></symbol><symbol viewBox="0 0 32 32" id="install-manage-maintainer" xmlns="http://www.w3.org/2000/svg"><g opacity=".5"><path fill="#FF8700" d="M23.8 20.2c-2.6-.7-4.3-1.7-6.1-2.4.1.3.1.5-.1.8-1.8 2-5.6 1.8-7.2 0-.3-.3-.2-.4-.1-.8-1.8.7-3.5 1.7-6.1 2.4 0 0-2.1 1.2-2.2 5.8h24c-.2-4.8-2.2-5.8-2.2-5.8z"/><path fill="#FFC857" d="M14 15.5c-1 0-2.1-.6-3-1.5-.1 3.6-1.1 3.9-.6 4.5 1.6 1.8 5.4 2 7.2 0 .5-.5-.4-.9-.6-4.5-.9.9-1.9 1.5-3 1.5z"/><path fill="#212121" d="M14 15.5c-1 0-2.1-.6-3-1.5-.1 3.6-1.1 3.9-.6 4.5 1.6 1.8 5.4 2 7.2 0 .5-.5-.4-.9-.6-4.5-.9.9-1.9 1.5-3 1.5z" opacity=".05"/><path fill="#FFC857" d="M14 15.5c-2.6 0-5.1-3.4-5.1-5.8V6.4C8.9 4 11 2 13.5 2h1.2c2.6 0 4.5 2 4.5 4.4v3.3c-.1 2.3-2.6 5.8-5.2 5.8z"/><path fill="#FFF" d="M14 15.5c-2.6 0-5.1-3.4-5.1-5.8V6.4C8.9 4 11 2 13.5 2h1.2c2.6 0 4.5 2 4.5 4.4v3.3c-.1 2.3-2.6 5.8-5.2 5.8z" opacity=".15"/></g><path fill="#79A548" d="M27.8 24.2c-2.6-.7-4.3-1.7-6.1-2.4.1.3.1.5-.1.8-1.8 2-5.6 1.8-7.2 0-.3-.3-.2-.4-.1-.8-1.8.7-3.5 1.7-6.1 2.4 0 0-2.1 1.2-2.2 5.8h24c-.2-4.8-2.2-5.8-2.2-5.8z"/><path fill="#FFC857" d="M18 19.5c-1 0-2.1-.6-3-1.5-.1 3.6-1.1 3.9-.6 4.5 1.6 1.8 5.4 2 7.2 0 .5-.5-.4-.9-.6-4.5-.9.9-1.9 1.5-3 1.5z"/><path d="M18 19.5c-1 0-2.1-.6-3-1.5-.1 3.6-1.1 3.9-.6 4.5 1.6 1.8 5.4 2 7.2 0 .5-.5-.4-.9-.6-4.5-.9.9-1.9 1.5-3 1.5z" opacity=".05"/><path fill="#FFC857" d="M18 19.5c-2.6 0-5.1-3.4-5.1-5.8v-3.3C12.9 8 15 6 17.5 6h1.2c2.6 0 4.5 2 4.5 4.4v3.3c-.1 2.3-2.6 5.8-5.2 5.8z"/><path fill="#FFF" d="M18 19.5c-2.6 0-5.1-3.4-5.1-5.8v-3.3C12.9 8 15 6 17.5 6h1.2c2.6 0 4.5 2 4.5 4.4v3.3c-.1 2.3-2.6 5.8-5.2 5.8z" opacity=".15"/></symbol><symbol viewBox="0 0 32 32" id="install-manage-presets" xmlns="http://www.w3.org/2000/svg"><path fill="#59F" d="M27 6H5V3c0-.6.4-1 1-1h20c.6 0 1 .4 1 1v3z"/><path fill="#515151" d="M26 30H6c-.6 0-1-.4-1-1V6h22v23c0 .6-.4 1-1 1z"/><path fill="#FFF" d="M21.3 14.8l-.7-.7c-.2-.2-.5-.2-.7 0l-5.4 5.4-2.5-2.6c-.2-.2-.5-.2-.7 0l-.6.7c-.2.2-.2.5 0 .7l3.6 3.6c.2.2.5.2.7 0l6.4-6.4c.1-.2.1-.5-.1-.7z"/></symbol><symbol viewBox="0 0 32 32" id="install-manage-settings" xmlns="http://www.w3.org/2000/svg"><path fill="#59F" d="M27 6H5V3c0-.6.4-1 1-1h20c.6 0 1 .4 1 1v3z"/><path fill="#515151" d="M26 30H6c-.6 0-1-.4-1-1V6h22v23c0 .6-.4 1-1 1z"/><path fill="#FFF" d="M22 18.6v-1.3h-.2l-1.3-.6-.5-.9.8-1.5-.9-.9h-.2l-1.3.8-.9-.4-.9-1.8h-1.3v.2l-.6 1.3-.9.5-1.5-.8-.9.9v.2l.8 1.3-.4.9-1.8.9v1.3h.2l1.3.6.5.9-.8 1.5.9 1 .2-.1 1.3-.8.9.4.6 1.7h1.4v-.2l.6-1.3.9-.4 1.5.8.9-.9v-.2l-.8-1.3.5-.9 1.9-.9zM16 21c-1.7 0-3-1.3-3-3s1.3-3 3-3 3 1.3 3 3-1.3 3-3 3z"/></symbol><symbol viewBox="0 0 32 32" id="install-password" xmlns="http://www.w3.org/2000/svg"><path fill="#FFC857" d="M7 15h18v14H7zm2-1h14l2 1H7z"/><path fill="#212121" d="M9 14h14l2 1H7z" opacity=".25"/><path fill="#212121" d="M18 21c0-1.1-.9-2-2-2s-2 .9-2 2c0 .7.4 1.4 1 1.7V25h2v-2.3c.6-.3 1-1 1-1.7z" opacity=".3"/><path fill="#666" d="M13 7c0-.8.2-1 1-1h4c.8 0 1 .2 1 1v7.5h2V7c0-1.6-1.4-3-3-3h-4c-1.7 0-3 1.4-3 3v7.5h2V7z"/></symbol><symbol viewBox="0 0 32 32" id="install-php-info" xmlns="http://www.w3.org/2000/svg"><path fill="#777BB3" d="M28.7 7H3.3c-.8 0-1.3.3-1.3.6v16.7c0 .4.5.7 1.3.7h25.5c.8 0 1.3-.3 1.3-.6V7.6c-.1-.3-.6-.6-1.4-.6z"/><path fill="#FFF" d="M7.6 13.1h3c.9 0 1.5.3 1.9.8s.5 1.2.4 2l-.3 1.2c-.2.4-.4.7-.7 1-.4.4-.8.6-1.2.7-.4.1-.9.2-1.3.2H8l-.5 2H6l1.6-7.9m1.3 1.3l-.7 3.3h.3c.7 0 1.3-.1 1.8-.2.5-.2.8-.7 1-1.6.1-.8 0-1.2-.4-1.3-.4-.1-.9-.2-1.5-.2h-.5m5.7-3.4h1.5l-.4 2.1H17c.8 0 1.3.2 1.7.5.4.3.5.9.3 1.7l-.7 3.7h-1.5l.7-3.5c.1-.4.1-.6-.1-.8-.1-.2-.4-.2-.8-.2h-1.2l-.9 4.5H13l1.6-8m6.1 2.1h3c.9 0 1.5.3 1.9.8s.5 1.2.4 2l-.3 1.2c-.2.4-.4.7-.7 1-.4.4-.8.6-1.2.7-.4.1-.9.2-1.3.2h-1.3l-.5 2h-1.5l1.5-7.9m1.3 1.3l-.7 3.3h.3c.7 0 1.3-.1 1.8-.2.5-.2.8-.7 1-1.6.1-.8 0-1.2-.4-1.3-.4-.1-.9-.2-1.5-.2H22"/></symbol><symbol viewBox="0 0 32 32" id="install-reset-user" xmlns="http://www.w3.org/2000/svg"><path fill="#59F" d="M27.4 23.2c-3-.8-5-2-7.1-2.8.1.4.1.6-.1.9-2.1 2.3-6.5 2.1-8.4 0-.3-.3-.2-.5-.1-.9-2.1.8-4.1 2-7.1 2.8 0 0-2.5 1.4-2.6 6.8h28c-.2-5.6-2.6-6.8-2.6-6.8z"/><path fill="#FFC857" d="M16 17.8c-1.2 0-2.5-.7-3.5-1.7-.1 4.2-1.3 4.6-.7 5.2 1.9 2.1 6.3 2.3 8.4 0 .6-.6-.5-1-.7-5.3-1 1-2.2 1.8-3.5 1.8z"/><path fill="#212121" d="M16 17.8c-1.2 0-2.5-.7-3.5-1.7-.1 4.2-1.3 4.6-.7 5.2 1.9 2.1 6.3 2.3 8.4 0 .6-.6-.5-1-.7-5.3-1 1-2.2 1.8-3.5 1.8z" opacity=".05"/><path fill="#FFC857" d="M16 17.8c-3 0-5.9-4-5.9-6.8V7.1c0-2.8 2.4-5.1 5.3-5.1h1.4c3 0 5.3 2.3 5.3 5.1V11c-.2 2.7-3.1 6.8-6.1 6.8z"/><path fill="#FFF" d="M16 17.8c-3 0-5.9-4-5.9-6.8V7.1c0-2.8 2.4-5.1 5.3-5.1h1.4c3 0 5.3 2.3 5.3 5.1V11c-.2 2.7-3.1 6.8-6.1 6.8z" opacity=".15"/></symbol><symbol viewBox="0 0 32 32" id="install-scan-extensions" xmlns="http://www.w3.org/2000/svg"><path fill="#FFC857" d="M24.8 5H7.2c-.1 0-.2.1-.3.1L4 10.9v15.8c0 .2.1.3.3.3h23.5c.1 0 .3-.1.3-.3V11l-2.9-5.8c-.2-.1-.3-.2-.4-.2z"/><path d="M24.8 5H7.2c-.1 0-.2.1-.3.1l-1 2.2h20.3l-1.1-2.1c-.1-.1-.2-.2-.3-.2zm2.1 3.8H5.1L4 11h24z" fill="#212121" opacity=".15"/><path fill="#515151" d="M23.6 28.3l-2.8-2.8c-.4.6-.9 1.1-1.5 1.5l2.8 2.7c.2.2.5.3.8.3.6 0 1.1-.5 1.1-1.1 0-.2-.2-.4-.4-.6z"/><circle cx="15.9" cy="22.1" r="6" fill="#ABD7FF"/><path fill="#59F" d="M15.9 17.6c2.5 0 4.5 2 4.5 4.5s-2 4.5-4.5 4.5-4.5-2-4.5-4.5 2-4.5 4.5-4.5m0-1.5c-3.3 0-6 2.7-6 6s2.7 6 6 6 6-2.7 6-6-2.6-6-6-6z"/><circle cx="17.5" cy="20.6" r="1.5" fill="#FFF" opacity=".6"/></symbol><symbol viewBox="0 0 32 32" id="install-show-environment" xmlns="http://www.w3.org/2000/svg"><path fill="#9F6358" d="M6 3h20v27H6z"/><path fill="#7C4C46" d="M26 3H6l1-1h18z"/><path fill="#FFF" d="M8 6h16v22H8z"/><path fill="#FFC857" d="M20 2h-8l-1 1v4h10V3z"/><path fill="#212121" d="M21 3H11l1-1h8z" opacity=".15"/><path fill="#212121" d="M10 9h11v1H10zm0 2h8v1h-8zm0 2h8v1h-8z" opacity=".75"/><path fill="#212121" d="M10 17h12v1H10zm0 2h12v1H10zm0 2h12v1H10zm0 2h12v1H10zm0 2h12v1H10z" opacity=".5"/><path fill="#212121" d="M12 4h8v2h-8z" opacity=".15"/></symbol><symbol viewBox="0 0 32 32" id="install-test-environment" xmlns="http://www.w3.org/2000/svg"><path fill="#DADADA" d="M27 7H5l-3 4v10h28V11z"/><path fill="#212121" d="M30 11H2l3-4h22z" opacity=".15"/><path fill="#59F" d="M22 13h6v2h-6v-2z"/><path fill="#CD201F" d="M22 17h6v2h-6v-2z"/><path fill="#212121" d="M4 13h16v2H4v-2zm0 4h16v2H4v-2z" opacity=".25"/><path fill="#AAA" d="M30 24v2H2v-2h28z"/><path fill="#59F" d="M20 23v4h-8v-4h2v-2h4v2h2z"/><path fill="#212121" d="M14 21h4v1h-4v-1z" opacity=".3"/></symbol><symbol viewBox="0 0 32 32" id="install-test-image" xmlns="http://www.w3.org/2000/svg"><path fill="#8C8C8C" d="M29.5 28h-27c-.3 0-.5-.2-.5-.5v-23c0-.3.2-.5.5-.5h27c.3 0 .5.2.5.5v23c0 .3-.2.5-.5.5z"/><path fill="#EFEFEF" d="M3 5h26v22H3z"/><path fill="#ABD7FF" d="M4 6h24v20H4z"/><path fill="#FFF" d="M25.7 13c.2-.3.3-.6.3-1 0-1.1-.9-2-2-2-.4 0-.8.1-1.1.3-.3-.7-1-1.3-1.9-1.3s-1.6.6-1.9 1.3c-.3-.2-.7-.3-1.1-.3-1.1 0-2 .9-2 2 0 .4.1.7.3 1h9.4z"/><circle cx="8" cy="10" r="2" fill="#FFC857"/><path fill="#79A548" d="M18 26H4l9-13 5 5z"/><path fill="#AAD400" d="M28 26H12L23 8l5 5z"/><path fill="#FFF" d="M8 18c-.4 0-.8.1-1.1.3-.3-.7-1-1.3-1.9-1.3-.4 0-.7.1-1 .3V21h5.7c.2-.3.3-.6.3-1 0-1.1-.9-2-2-2z"/></symbol><symbol viewBox="0 0 32 32" id="install-test-mail" xmlns="http://www.w3.org/2000/svg"><path fill="#FFC857" d="M16 2l14 10v18H2V12L16 2z"/><path fill="#FFF" d="M16 2l14 10v18H2V12L16 2z" opacity=".25"/><path fill="#FFF" d="M6 6h20v20H6z"/><path fill="#212121" d="M25 25H7V7h18m1-1H6v20h20V6z" opacity=".5"/><path fill="#B9B9B9" d="M9 11h8v1H9zm0-2h8v1H9zm0 5h14v1H9zm0 2h14v1H9zm0 2h14v1H9zm0 2h14v1H9zm0 2h14v1H9z"/><path fill="#FFC857" d="M30 12v18H2V12l14 10 14-10z"/><path d="M2 12v18l10.5-10.5zm17.5 7.5L30 30V12z" fill="#212121" opacity=".05"/></symbol><symbol viewBox="0 0 32 32" id="install-update" xmlns="http://www.w3.org/2000/svg"><path fill="#59F" d="M27 6H5V3c0-.6.4-1 1-1h20c.6 0 1 .4 1 1v3z"/><path fill="#515151" d="M26 30H6c-.6 0-1-.4-1-1V6h22v23c0 .6-.4 1-1 1z"/><path fill="#FFF" d="M23.5 18H22c0-3.3-2.7-6-6-6-1.1 0-2.2.3-3.1.8l.6 1c.7-.4 1.6-.7 2.4-.7 2.7 0 4.9 2.2 4.9 4.9h-1.4c-.2 0-.3.2-.2.4l2 3.3c.1.2.3.2.4 0l2-3.3c.3-.2.1-.4-.1-.4zm-5.1 4.2c-.7.4-1.5.6-2.4.6-2.7 0-4.9-2.2-4.9-4.9h1.4c.2 0 .3-.2.2-.4l-2-3.3c-.1-.2-.3-.2-.4 0l-2 3.3c-.1.2 0 .4.2.4H10c0 3.3 2.7 6 6 6 1.1 0 2.1-.3 3-.8l-.6-.9z"/></symbol><symbol viewBox="0 0 32 32" id="install-wizards" xmlns="http://www.w3.org/2000/svg"><ellipse cx="16" cy="26.5" fill="#4C2875" rx="14" ry="3.5"/><path fill="#639" d="M26 25l-10.2 2L6 25s3.5-10.4 7.1-16.6C16.5 2.6 20 2 21 2c2 0-.3 1 0 3 .6 4.5 5 20 5 20z"/><path fill="#FFC857" d="M16 25c-4.3 0-7.9-.8-9.3-1.9C6.2 24.3 6 25 6 25c0 1.7 4.5 3 10 3s10-1.3 10-3c0 0-.2-.8-.6-2-1.3 1.2-5 2-9.4 2zm5.2-15c-.2 0-.3.3-.2.4l.9.9-.4 1.1c-.1.2.1.4.3.3l.8-.3L22 10h-.8zm-.5 5h-1.1l-.4-1.1c-.1-.2-.4-.2-.5 0l-.4 1.1h-1.1c-.2 0-.3.3-.2.4l.9.9-.4 1.1c-.1.2.1.4.3.3l1.2-.5 1.2.5c.2.1.4-.1.3-.3l-.5-1.1.9-.9c.2-.1.1-.4-.2-.4zm-5.6-6.6l.9.9-.4 1.1c-.1.2.1.4.3.3l1.2-.5 1.2.5c.2.1.4-.1.3-.3L18 9.3l.9-.9c.2-.1.1-.4-.2-.4h-1.1l-.4-1.1c-.1-.2-.4-.2-.5 0L16.3 8h-1.1c-.2 0-.3.3-.1.4zm7.7 13.3l1.2-.5 1.1.4c-.3-1.1-.7-2.5-1.1-3.9-.1 0-.2 0-.2.2l-.5 1.1h-1.1c-.2 0-.3.3-.2.4l.9.9-.4 1.1c-.1.2.1.4.3.3zm-6-17l1.2-.4 1.2.5c.2.1.4-.1.3-.3L19 3.3l.9-.9c.1-.1.1-.2.1-.2-.8.2-2 .7-3.3 1.8l-.2.5c-.1.1.1.3.3.2zM8 21.3l1.2.5c.2.1.4-.1.3-.3L9 20.3l.9-.9c.2-.2 0-.4-.2-.4h-1l-.2-.6c-.5 1.2-.9 2.2-1.2 3.2l.7-.3zm9.2 1.4c.2.1.4-.1.3-.3l-.5-1.1.9-.9c.2-.2 0-.4-.2-.4h-1.1l-.4-1.1c-.1-.2-.4-.2-.5 0l-.4 1.1h-1.1c-.2 0-.3.3-.2.4l.9.9-.4 1.1c-.1.2.1.4.3.3l1.2-.5 1.2.5zm-5.7-11.2l.5-.2 1.2.5c.2.1.4-.1.3-.3l-.5-1.2.9-.9c.2-.1.1-.4-.2-.4h-1c-.4.8-.8 1.6-1.2 2.5zm3.2 3.5h-1.1l-.4-1.1c-.1-.2-.4-.2-.5 0l-.4 1.1h-1.1c-.2 0-.3.3-.2.4l.9.9-.4 1.1c-.1.2.1.4.3.3l1.2-.5 1.2.5c.2.1.4-.1.3-.3l-.5-1.1.9-.9c.2-.1.1-.4-.2-.4z"/></symbol></svg>