<?xml version="1.0" encoding="utf-8"?><svg class="typo3-icons-mimetypes" style="display: none;" xmlns="http://www.w3.org/2000/svg" xmlns:xlink="http://www.w3.org/1999/xlink"><symbol viewBox="0 0 16 16" id="mimetypes-application" xmlns="http://www.w3.org/2000/svg"><path fill="#59F" d="M2 0v16h12V4l-4-4H2z"/><path fill="#FFF" d="M10 4V0l4 4h-4z" opacity=".65"/><path fill="#212121" d="M14 4v5l-4-5h4z" opacity=".15"/><g><path fill="#FFF" d="M11.479 10.09c-.405-.405-.898-.29-1.402.08L8.679 8.772l2.119-2.158.192.192.73-.863-.664-.664-.863.73.192.192L8.227 8.32 6.826 6.919c.361-.503.48-1.003.084-1.398-.589-.59-1.016-.613-1.41-.393.09.079.182.16.286.264.588.588.738.798.06 1.476-.677.678-.866.506-1.454-.082a5.676 5.676 0 01-.264-.286c-.22.394-.197.821.392 1.41.439.438.979.267 1.527-.178l1.377 1.377-.458.45-.258-.258-2.19 2.19.99.991 2.19-2.191-.257-.257.45-.458 1.381 1.381c-.432.544-.61 1.094-.182 1.522.589.589 1.016.612 1.41.393a5.676 5.676 0 01-.286-.264c-.588-.588-.738-.798-.06-1.476.678-.678.866-.506 1.454.082.105.104.186.196.265.286.219-.394.195-.821-.394-1.41z"/></g></symbol><symbol viewBox="0 0 16 16" id="mimetypes-compressed" xmlns="http://www.w3.org/2000/svg"><path fill="#FFC857" d="M2 0v16h12V4l-4-4H2z"/><path fill="#FFF" d="M10 4V0l4 4h-4z" opacity=".65"/><path fill="#212121" d="M14 4v5l-4-5h4z" opacity=".15"/><g><path fill="#E8A33D" d="M4 0h1v16H4z"/><path fill="#8C8C8C" d="M5 14h1v1H5zm0-2h1v1H5zm0-2h1v1H5zm0-2h1v1H5zm0-2h1v1H5zm0-2h1v1H5zm0-2h1v1H5zm0-2h1v1H5z"/><path fill="#8C8C8C" d="M4 10h2v5H4z"/></g></symbol><symbol viewBox="0 0 16 16" id="mimetypes-excel" xmlns="http://www.w3.org/2000/svg"><path fill="#1E7145" d="M2 0v16h12V4l-4-4H2z"/><path fill="#FFF" d="M10 4V0l4 4h-4z" opacity=".65"/><path fill="#212121" d="M14 4v5l-4-5h4z" opacity=".15"/><g fill="#FFF"><path d="M4 6h2v1H4zm3 0h2v1H7zm3 0h2v1h-2zM4 8h2v1H4zm0 2h2v1H4zm0 2h2v1H4zm8.6 1.2h-1.9l-1.1-1.5-1.1 1.5H6.6l2-2.6-2-2.6h1.9l1.1 1.5L10.7 8h1.9l-2 2.5 2 2.7z"/></g></symbol><symbol viewBox="0 0 16 16" id="mimetypes-media-audio" xmlns="http://www.w3.org/2000/svg"><path fill="#515151" d="M2 0v16h12V4l-4-4H2z"/><path fill="#FFF" d="M10 4V0l4 4h-4z" opacity=".65"/><path fill="#212121" d="M14 4v5l-4-5h4z" opacity=".15"/><g><path fill="#FFF" d="M12 6H5.6c-.1 0-.3.1-.4.1-.1.2-.2.4-.2.5v4.1c-.2.1-.5.2-.7.4-.6.6-.7 1.3-.3 1.7.4.4 1.1.2 1.7-.3.3-.3.5-.6.5-1V7.2h3.6v3.5c-.2.1-.5.2-.7.4-.6.6-.7 1.3-.3 1.7.4.4 1.1.2 1.7-.3.3-.3.5-.6.5-1V7.2c.5-.1 1.1-.3 1-1.2z"/></g></symbol><symbol viewBox="0 0 16 16" id="mimetypes-media-flash" xmlns="http://www.w3.org/2000/svg"><path fill="#F32" d="M2 0v16h12V4l-4-4H2z"/><path fill="#FFF" d="M10 4V0l4 4h-4z" opacity=".65"/><path fill="#212121" d="M14 4v5l-4-5h4z" opacity=".15"/><g><path fill="#FFF" fill-rule="evenodd" d="M10.5 6.7c.2-.1.4-.1.7-.1V5c-1.1 0-2.1.4-2.8 1.3-.2.3-.4.7-.6 1.2l-.6 1.2c-.1.5-.3.9-.4 1.2-.2.4-.3.6-.5.8s-.4.4-.6.5c-.3.1-.5.2-.9.2V13c1.1 0 2.1-.4 2.8-1.3l.6-.9.4-1h1.8V8.2H9.2c.1-.3.2-.5.4-.7.1-.2.2-.4.4-.5.1-.1.3-.2.5-.3"/></g></symbol><symbol viewBox="0 0 16 16" id="mimetypes-media-image" xmlns="http://www.w3.org/2000/svg"><path fill="#59F" d="M2 0v16h12V4l-4-4H2z"/><path fill="#FFF" d="M10 4V0l4 4h-4z" opacity=".65"/><path fill="#212121" d="M14 4v5l-4-5h4z" opacity=".15"/><g fill="#FFF"><path d="M10 13H4l1.5-2L7 9l1.5 2 1.5 2z"/><path d="M12 13H6.7L8 11.7l1.3-1.3 1.3 1.3L12 13z"/><circle cx="10.3" cy="8" r="1"/></g></symbol><symbol viewBox="0 0 16 16" id="mimetypes-media-video" xmlns="http://www.w3.org/2000/svg"><path fill="#639" d="M2 0v16h12V4l-4-4H2z"/><path fill="#FFF" d="M10 4V0l4 4h-4z" opacity=".65"/><path fill="#212121" d="M14 4v5l-4-5h4z" opacity=".15"/><g><path fill="#FFF" d="M6 12V6.5l2.2 1.4 2.2 1.4-2.2 1.4L6 12z"/></g></symbol><symbol viewBox="0 0 16 16" id="mimetypes-media-video-vimeo" xmlns="http://www.w3.org/2000/svg"><path fill="#1AB7EA" d="M2 0v16h12V4l-4-4H2z"/><path fill="#FFF" d="M10 4V0l4 4h-4z" opacity=".65"/><path fill="#212121" d="M14 4v5l-4-5h4z" opacity=".15"/><g><path fill="#FFF" d="M3.5 7.9c.9-.8 1.7-2.2 2.6-1.9 1.5.4.8 3.2 1.7 4.6 1.2-.7 1.9-2 1.6-2.8-.1-.2 0-.7-.9-.3-.3.2-.3-.3-.3-.3.9-1 1.4-1.4 2-1.4.5.1 1.4.7 1.2 2-.3 2-3.3 5.2-4.3 5.1-1.1.3-1.7-3.3-2.5-5l-.8.3c-.4.1-.3-.1-.3-.3z"/></g></symbol><symbol viewBox="0 0 16 16" id="mimetypes-media-video-youtube" xmlns="http://www.w3.org/2000/svg"><path fill="#CD201F" d="M2 0v16h12V4l-4-4H2z"/><path fill="#FFF" d="M10 4V0l4 4h-4z" opacity=".65"/><path fill="#212121" d="M14 4v5l-4-5h4z" opacity=".15"/><g><path fill="#FFF" d="M7.1 11V8.5l2.4 1.3L7.1 11zm5.3-3s-.1-.6-.4-.9c-.3-.4-.7-.4-.9-.4H8s-1.9 0-3.2.1c-.2 0-.6 0-.9.4-.2.2-.3.8-.3.8s-.1.8-.1 1.5v.7c0 .7.1 1.5.1 1.5s.1.6.4.9c.3.4.8.3 1 .4h3s1.9 0 3.2-.1c.2 0 .6 0 .9-.4.3-.3.4-.9.4-.9s.1-.7.1-1.5v-.6c-.1-.7-.2-1.5-.2-1.5"/></g></symbol><symbol viewBox="0 0 16 16" id="mimetypes-open-document-database" xmlns="http://www.w3.org/2000/svg"><path fill="#951A40" d="M2 0v16h12V4l-4-4H2z"/><path fill="#FFF" d="M10 4V0l4 4h-4z" opacity=".65"/><path fill="#212121" d="M14 4v5l-4-5h4z" opacity=".15"/><g fill="#FFF"><path d="M11.8 6H4.3c-.2 0-.3.1-.3.3v1.5c0 .1.1.2.3.2h7.5c.1 0 .2-.1.2-.2V6.3c0-.2-.1-.3-.2-.3zm-1.3 1.5H10V7h.5v.5zm1 0H11V7h.5v.5zm.3 1.5H4.3c-.2 0-.3.1-.3.3v1.5c0 .1.1.2.3.2h7.5c.1 0 .2-.1.2-.2V9.3c0-.2-.1-.3-.2-.3zm-1.3 1.5H10V10h.5v.5zm1 0H11V10h.5v.5zm.3 1.5H4.3c-.2 0-.3.1-.3.3v1.5c0 .1.1.2.3.2h7.5c.1 0 .2-.1.2-.2v-1.5c0-.2-.1-.3-.2-.3zm-1.3 1.5H10V13h.5v.5zm1 0H11V13h.5v.5z"/></g></symbol><symbol viewBox="0 0 16 16" id="mimetypes-open-document-drawing" xmlns="http://www.w3.org/2000/svg"><path fill="#ECA701" d="M2 0v16h12V4l-4-4H2z"/><path fill="#FFF" d="M10 4V0l4 4h-4z" opacity=".65"/><path fill="#212121" d="M14 4v5l-4-5h4z" opacity=".15"/><g fill="#FFF"><path d="M8.5 6.7l1.8 1.8-4.4 4.4c-.1.1-.1.1-.2.1H4v-1.7c0-.1 0-.1.1-.2l4.4-4.4zm2-1.6l1.4 1.4c.1.1.1.3 0 .4L10.8 8 9 6.2 10.2 5s.2 0 .3.1z"/></g></symbol><symbol viewBox="0 0 16 16" id="mimetypes-open-document-formula" xmlns="http://www.w3.org/2000/svg"><path fill="#0E85CD" d="M2 0v16h12V4l-4-4H2z"/><path fill="#FFF" d="M10 4V0l4 4h-4z" opacity=".65"/><path fill="#212121" d="M14 4v5l-4-5h4z" opacity=".15"/><g><path fill="#FFF" d="M10.7 13H5.3v-.9l2.9-2.8-2.8-2.5V6h5.2v.8h-4l2.8 2.4v.1l-3 2.8h4.3v.9z"/></g></symbol><symbol viewBox="0 0 16 16" id="mimetypes-open-document-presentation" xmlns="http://www.w3.org/2000/svg"><path fill="#F17901" d="M2 0v16h12V4l-4-4H2z"/><path fill="#FFF" d="M10 4V0l4 4h-4z" opacity=".65"/><path fill="#212121" d="M14 4v5l-4-5h4z" opacity=".15"/><g fill="#FFF"><path d="M4 12h3v1H4v-1zm0-6h8v1H4V6zm3 3.5c0 .8-.7 1.5-1.5 1.5S4 10.3 4 9.5 4.7 8 5.5 8 7 8.7 7 9.5zM8 8h4v1H8V8zm0 2h4v1H8v-1zm0 2h4v1H8v-1z"/></g></symbol><symbol viewBox="0 0 16 16" id="mimetypes-open-document-spreadsheet" xmlns="http://www.w3.org/2000/svg"><path fill="#9EB238" d="M2 0v16h12V4l-4-4H2z"/><path fill="#FFF" d="M10 4V0l4 4h-4z" opacity=".65"/><path fill="#212121" d="M14 4v5l-4-5h4z" opacity=".15"/><g fill="#FFF"><path d="M4 6h2v1H4zm3 0h2v1H7zm3 0h2v1h-2zM4 8h2v1H4zm3 0h2v1H7zm3 0h2v1h-2zm-6 2h2v1H4zm3 0h2v1H7zm3 0h2v1h-2zm-6 2h2v1H4zm3 0h2v1H7zm3 0h2v1h-2z"/></g></symbol><symbol viewBox="0 0 16 16" id="mimetypes-open-document-text" xmlns="http://www.w3.org/2000/svg"><path fill="#0E85CD" d="M2 0v16h12V4l-4-4H2z"/><path fill="#FFF" d="M10 4V0l4 4h-4z" opacity=".65"/><path fill="#212121" d="M14 4v5l-4-5h4z" opacity=".15"/><g fill="#FFF"><path d="M4 6h8v1H4zm0 2h6v1H4zm0 2h7v1H4zm0 2h4v1H4z"/></g></symbol><symbol viewBox="0 0 16 16" id="mimetypes-other-other" xmlns="http://www.w3.org/2000/svg"><path fill="#B9B9B9" d="M2 0v16h12V4l-4-4H2z"/><path fill="#FFF" d="M10 4V0l4 4h-4z" opacity=".65"/><path fill="#212121" d="M14 4v5l-4-5h4z" opacity=".15"/></symbol><symbol viewBox="0 0 16 16" id="mimetypes-pdf" xmlns="http://www.w3.org/2000/svg"><path fill="red" d="M2 0v16h12V4l-4-4H2z"/><path fill="#FFF" d="M10 4V0l4 4h-4z" opacity=".65"/><path fill="#212121" d="M14 4v5l-4-5h4z" opacity=".15"/><g><path fill="#FFF" d="M4.5 13c-.2 0-.4-.3-.4-.6-.3-1.2 1.2-1.5 1.8-1.7-.4.7.5-1 .6-1.1.2-.5.5-1 .7-1.5V8c-.2-.9-.5-2.2-.3-2.6.1-.1.4-.3.7-.4.2 0 .4.1.5.3.2.7.1 1.7-.2 2.3v.1c.2.6.6 1.2 1 1.6.2.1.4.3.6.4.5-.1.9-.1 1.3-.1.3 0 .5 0 .7.1.2 0 .3.1.4.2.1.1.1.2.2.3-.1.4-.3.6-.4.7-.3.1-.6 0-1-.1s-.9-.3-1.3-.5c-.9.1-2 .4-2.8.7-.4.7-.8 1.3-1.1 1.6-.2.2-.3.3-.5.4h-.5zm.1-.6c.1 0 .3-.1.5-.4.1-.1.4-.6.5-.7-.2.1-1.1.4-1.1.7 0 .2 0 .4.1.4zm7-1.9s0-.1 0 0c-.4-.4-1.1-.3-1.5-.3.4.2 1.3.4 1.5.3zm-4.8-.1c.6-.3 1.2-.4 1.8-.5h-.1c-.4-.3-.7-.7-1-1.1-.1.3-.5 1.1-.5 1.1-.1.2-.1.3-.2.5zM7.6 7c0-.1.1-.2.1-.4.1-.3 0-.9-.1-1-.1.1-.2.4-.2.5 0 .2.1.6.2.9z"/></g></symbol><symbol viewBox="0 0 16 16" id="mimetypes-powerpoint" xmlns="http://www.w3.org/2000/svg"><path fill="#D14524" d="M2 0v16h12V4l-4-4H2z"/><path fill="#FFF" d="M10 4V0l4 4h-4z" opacity=".65"/><path fill="#212121" d="M14 4v5l-4-5h4z" opacity=".15"/><g fill="#FFF"><path d="M4 12h3v1H4v-1zm0-6h8v1H4V6zm3 3.5c0 .8-.7 1.5-1.5 1.5S4 10.3 4 9.5 4.7 8 5.5 8 7 8.7 7 9.5zM10.5 8H8v5h1v-2h1.5c.8 0 1.5-.7 1.5-1.5S11.3 8 10.5 8zm0 2H9V9h1.5c.3 0 .5.2.5.5s-.2.5-.5.5z"/></g></symbol><symbol viewBox="0 0 16 16" id="mimetypes-text-css" xmlns="http://www.w3.org/2000/svg"><path fill="#33ACDF" d="M2 0v16h12V4l-4-4H2z"/><path fill="#FFF" d="M10 4V0l4 4h-4z" opacity=".65"/><path fill="#212121" d="M14 4v5l-4-5h4z" opacity=".15"/><g fill="#FFF"><path d="M7.4 13h-.9c-.4 0-.7-.1-1-.3-.2-.2-.4-.5-.4-.9v-.5c0-.4-.1-.6-.2-.8-.2-.1-.4-.2-.8-.2H4v-.7h.2c.4 0 .6-.1.8-.2.2-.1.2-.4.2-.7v-.5c0-.4.1-.7.4-.9.2-.2.5-.3.9-.3h.8v.7h-.6c-.1 0-.2.1-.2.1-.1.1-.2.2-.2.3s-.1.2-.1.4v.3c0 .3-.1.5-.2.7-.2.2-.4.4-.7.5.3.1.5.3.7.5s.2.4.2.7v.3c0 .2 0 .3.1.4 0 .1.1.2.2.2.1.1.1.1.2.1h.6c.1.1.1.8.1.8zm4.6-2.6h-.2c-.4 0-.6.1-.8.2-.2.1-.2.4-.2.8v.5c0 .4-.1.7-.4.9-.2.1-.5.2-.9.2h-.9v-.7h.7c.1 0 .2-.1.3-.1l.2-.2c0-.1.1-.2.1-.4v-.3c0-.3.1-.5.2-.7.2-.2.4-.3.7-.5V10c-.3-.1-.5-.3-.7-.5-.3-.2-.3-.4-.3-.7v-.3c0-.2 0-.3-.1-.4 0-.1-.1-.2-.2-.2 0-.1-.1-.1-.2-.2h-.7V7h.8c.4 0 .7.1.9.3.2.2.4.5.4.9v.5c0 .4.1.6.2.8.2.1.4.2.8.2h.3v.7z"/></g></symbol><symbol viewBox="0 0 16 16" id="mimetypes-text-csv" xmlns="http://www.w3.org/2000/svg"><path fill="#45B058" d="M2 0v16h12V4l-4-4H2z"/><path fill="#FFF" d="M10 4V0l4 4h-4z" opacity=".65"/><path fill="#212121" d="M14 4v5l-4-5h4z" opacity=".15"/><g fill="#FFF"><path d="M4 6h2v1H4zm3 0h2v1H7zm3 0h2v1h-2zM4 8h2v1H4zm3 0h2v1H7zm3 0h2v1h-2zm-6 2h2v1H4zm3 0h2v1H7zm3 0h2v1h-2zm-6 2h2v1H4zm3 0h2v1H7zm3 0h2v1h-2z"/></g></symbol><symbol viewBox="0 0 16 16" id="mimetypes-text-html" xmlns="http://www.w3.org/2000/svg"><path fill="#F16529" d="M2 0v16h12V4l-4-4H2z"/><path fill="#FFF" d="M10 4V0l4 4h-4z" opacity=".65"/><path fill="#212121" d="M14 4v5l-4-5h4z" opacity=".15"/><g fill="#FFF"><path d="M7.4 13L4 10.3v-1l3.4-2.7V8L5 9.8l2.4 1.8V13zm4.6-2.7L8.6 13v-1.4L11 9.8 8.6 8V6.6L12 9.3v1z"/></g></symbol><symbol viewBox="0 0 16 16" id="mimetypes-text-js" xmlns="http://www.w3.org/2000/svg"><path fill="#F0DB4F" d="M2 0v16h12V4l-4-4H2z"/><path fill="#FFF" d="M10 4V0l4 4h-4z" opacity=".65"/><path fill="#212121" d="M14 4v5l-4-5h4z" opacity=".15"/><g fill="#212121"><path d="M7 10.5c0 .2 0 .4-.1.6-.1.2-.2.3-.3.5-.2.1-.3.2-.6.3-.3.1-.5.1-.9.1h-.6c-.2 0-.4 0-.5-.1v-1h.1c.1.1.2.1.3.1h.4c.2 0 .4 0 .5-.1s.2-.1.3-.3c0-.1.1-.2.1-.3V8H4.6v-.9H7v3.4zm5-.1c0 .5-.2.9-.6 1.2-.4.3-.9.4-1.6.4-.4 0-.7 0-1-.1s-.6-.2-.8-.3v-1.2c.3.2.5.4.9.5.3.1.6.2.9.2h.3c.1 0 .2 0 .3-.1.1 0 .2-.1.2-.1.1-.1.1-.1.1-.3 0-.1 0-.2-.1-.3s-.2-.1-.4-.2c-.2 0-.4-.1-.6-.1-.2 0-.4 0-.5-.1-.4-.1-.7-.3-.9-.5-.2-.2-.3-.5-.3-.9s.2-.8.6-1.1c.4-.2.9-.4 1.6-.4.3 0 .6 0 .9.1.3.1.6.1.8.2v1.1h-.1c-.2-.2-.4-.3-.7-.4s-.6-.2-.9-.2h-.3c-.1.1-.2.2-.3.2s-.2.1-.2.1c-.1.1-.1.2-.1.3 0 .1 0 .2.1.3s.3.1.5.2c.2 0 .3.1.5.1s.3.1.5.1c.4.1.6.3.8.5.3.2.4.5.4.8z"/></g></symbol><symbol viewBox="0 0 16 16" id="mimetypes-text-php" xmlns="http://www.w3.org/2000/svg"><path fill="#6B7EB9" d="M2 0v16h12V4l-4-4H2z"/><path fill="#FFF" d="M10 4V0l4 4h-4z" opacity=".65"/><path fill="#212121" d="M14 4v5l-4-5h4z" opacity=".15"/><g fill="#FFF"><path d="M12 8.1c0 .3 0 .5-.1.7-.1.2-.1.4-.2.5-.1.2-.2.3-.4.4-.2.1-.3.2-.5.3v1H9.5V9.6c.1-.1.5-.1.6-.2.1-.1.2-.1.4-.3.1-.1.2-.2.3-.4.1-.1.1-.3.1-.5 0-.3-.1-.5-.2-.6-.1-.1-.3-.2-.5-.2-.1 0-.3 0-.5.1-.3.3-.4.4-.6.5H9V6.8c.1-.1.3-.1.6-.2s.5-.1.8-.1c.5 0 .9.1 1.2.4.3.3.4.7.4 1.2zM10.8 13H9.5v-1.2h1.3V13zm-3.4 0L4 10.3v-1l3.4-2.7V8L5 9.8l2.4 1.8V13z"/></g></symbol><symbol viewBox="0 0 16 16" id="mimetypes-text-text" xmlns="http://www.w3.org/2000/svg"><path fill="#B9B9B9" d="M2 0v16h12V4l-4-4H2z"/><path fill="#FFF" d="M10 4V0l4 4h-4z" opacity=".65"/><path fill="#212121" d="M14 4v5l-4-5h4z" opacity=".15"/><g fill="#8C8C8C"><path d="M4 6h8v1H4zm0 2h8v1H4zm0 2h8v1H4zm0 2h8v1H4z"/></g></symbol><symbol viewBox="0 0 16 16" id="mimetypes-text-ts" xmlns="http://www.w3.org/2000/svg"><path fill="#FF8700" d="M2 0v16h12V4l-4-4H2z"/><path fill="#FFF" d="M10 4V0l4 4h-4z" opacity=".65"/><path fill="#212121" d="M14 4v5l-4-5h4z" opacity=".15"/><g fill="#FFF"><path d="M9.5 11.1h-.3c-.8 0-1.9-2.7-1.9-3.6 0-.3.1-.4.2-.5-.9.2-2 .5-2.4 1-.1.1-.1.2-.1.5C5 9.9 6.5 13 7.6 13c.4 0 1.3-.8 1.9-1.9M9 7c1 0 2 .2 2 .7 0 1.1-.7 2.5-1.1 2.5-.6 0-1.4-1.8-1.4-2.7 0-.5.1-.5.5-.5"/></g></symbol><symbol viewBox="0 0 16 16" id="mimetypes-text-typoscript" xmlns="http://www.w3.org/2000/svg"><path fill="#FF8700" d="M2 0v16h12V4l-4-4H2z"/><path fill="#FFF" d="M10 4V0l4 4h-4z" opacity=".65"/><path fill="#212121" d="M14 4v5l-4-5h4z" opacity=".15"/><g fill="#FFF"><path d="M9.5 11.1h-.3c-.8 0-1.9-2.7-1.9-3.6 0-.3.1-.4.2-.5-.9.2-2 .5-2.4 1-.1.1-.1.2-.1.5C5 9.9 6.5 13 7.6 13c.4 0 1.3-.8 1.9-1.9M9 7c1 0 2 .2 2 .7 0 1.1-.7 2.5-1.1 2.5-.6 0-1.4-1.8-1.4-2.7 0-.5.1-.5.5-.5"/></g></symbol><symbol viewBox="0 0 16 16" id="mimetypes-word" xmlns="http://www.w3.org/2000/svg"><path fill="#2A569F" d="M2 0v16h12V4l-4-4H2z"/><path fill="#FFF" d="M10 4V0l4 4h-4z" opacity=".65"/><path fill="#212121" d="M14 4v5l-4-5h4z" opacity=".15"/><g fill="#FFF"><path d="M12 10l-.9 3.5h-1l-.6-2.4-.6 2.4h-1L7 10h1l.5 2.4.6-2.4h.8l.6 2.4.5-2.4h1zM4 6h8v1H4zm0 2h8v1H4zm0 2h2v1H4zm0 2h2v1H4z"/></g></symbol><symbol viewBox="0 0 16 16" id="mimetypes-x-backend_layout" xmlns="http://www.w3.org/2000/svg"><path fill="#FFF" d="M1 1h14v14H1V1z"/><path fill="#FF8700" d="M1 1v14h14V1H1zm1 1h12v12H2V2z"/><path fill="#FF8700" d="M3 3h10v3H3V3zm0 4h3v6H3V7z"/><path fill="#FFC857" d="M7 7h6v6H7V7z"/></symbol><symbol viewBox="0 0 16 16" id="mimetypes-x-content-divider" xmlns="http://www.w3.org/2000/svg"><path fill="#FFF" d="M1 1h14v14H1V1z"/><path fill="#999" d="M1 1v14h14V1H1zm1 1h12v12H2V2z"/><path fill="#666" d="M4 7h8v2H4V7z"/></symbol><symbol viewBox="0 0 16 16" id="mimetypes-x-content-domain" xmlns="http://www.w3.org/2000/svg"><circle cx="8" cy="8" r="8" fill="#59F"/><path fill="#AAD400" d="M14.973 7.378a7.034 7.034 0 00-3.545-5.48c-.092.097-.117.04-.117.137-.277.097-.646-.097-.923-.194a3.23 3.23 0 00-2.122-.097c-.277.097-.922.194-.646.776.184.292.645.583 1.107.195.184-.194.37-.485.645-.194.093.098.093.195.093.292-.093.29-.37.388-.646.388-.37.097-.74 0-1.108.097-.37.097-.923.194-.923.68 0 .58-.185.678-.647.775-.37 0-.553.194-.37.582.093.29.37.29.555.194.738-.388 1.384-1.358 2.214-.194l.184-.097c.185-.776.37-.29.554 0l.277.29c1.107-1.066.83.486 1.2.776-.74-.194-1.57.582-2.215.097-1.107-.872-1.845-.484-2.86.388-.83.68-1.015 1.552-.83 2.328.276.97 1.29 1.067 2.122.873.276-.098.83-.098.83.096-.185.873.83 1.455.46 2.424-.276.776.186 1.746.83 2.037.647.29 1.2-.485 1.478-1.164.092-.097 0-.29.092-.388.738-.97.646-2.424 1.568-3.394.277-.29 1.2-1.357.46-2.23 1.754-.485 1.11 1.26 1.478 2.037.276-.582.46-1.164.645-1.65.092-.29.16-.38.16-.38zM4.948 2.21c.29-.306.303-.356.594-.765a6.738 6.738 0 00-1.923 1.099l.168.177h.873s.097 0 .097-.1l.097-.103s.097 0 .097-.102l.096-.102.097-.103c-.29.205-.29.103-.194 0 0 .103 0 .103 0 0 0 .103 0 0 0 0l-.002-.001zm-1.282 9.44s-.096-.092 0 0c-.096-.092-.096-.092 0 0v-.276l-.096-.092c-.095 0-.095-.093-.19-.093s-.19-.093-.286-.093h-.191s-.095 0-.095-.092c-.668-.37-.953-1.015-1.144-1.752 0-.185-.095-.37-.095-.554-.094-.093-.094-.185-.19-.278-.19-.184-.094-.553.096-.922v-.184c0-.093 0-.093.095-.185 0-.09 0-.09.096-.183.19-.37.572-.646.762-.923.095-.092.095-.092.095-.184v-.092c.095-.092.095-.277.19-.37 0-.09.096-.276.096-.368 0-.185 0-.277-.096-.46-.096-.278-.154-.518-.344-.703-.858 1.2-1.37 2.546-1.37 4.113 0 2.123.903 4.006 2.414 5.324 0 0 .061.026.061-.064v-.094c0-.092.095-.092.095-.184.096-.37.096-.922.096-1.29l.001-.001z"/><path fill="#212121" d="M8 16c-4.411 0-8-3.589-8-8s3.589-8 8-8 8 3.589 8 8-3.589 8-8 8zM8 1C4.14 1 1 4.14 1 8c0 3.859 3.14 7 7 7 3.859 0 7-3.141 7-7 0-3.86-3.141-7-7-7z" opacity=".2"/></symbol><symbol viewBox="0 0 16 16" id="mimetypes-x-content-form" xmlns="http://www.w3.org/2000/svg"><path fill="#FFF" d="M1 1h14v14H1z"/><path fill="#999" d="M14 2v12H2V2h12m1-1H1v14h14V1z"/><path fill="#B9B9B9" d="M3 3h8v1H3zm0 2h8v1H3zm0 2h10v4H3z"/><path fill="#59F" d="M3 12h4v1H3z"/></symbol><symbol viewBox="0 0 16 16" id="mimetypes-x-content-form-search" xmlns="http://www.w3.org/2000/svg"><path fill="#FFF" d="M1 1v14h10.5a3.5 3.5 0 113.5-3.5V1H1zm14 10.5l-.002.027H15V11.5z"/><path fill="#B9B9B9" d="M3 7v4h5.039A3.5 3.5 0 0111.5 8a3.492 3.492 0 011.5.342V7H3z"/><path fill="#59F" d="M3 12h4v1H3z"/><path fill="#999" d="M1 1v14h10.5a3.498 3.498 0 01-2.449-1H2V2h12v7.055a3.5 3.5 0 011 2.445V1H1zm14 10.5l-.002.027H15V11.5z"/><path fill="#B9B9B8" d="M3 3h8v1H3z"/><path fill="#B9B9B9" d="M3 5h8v1H3z"/><path fill="#E8A33D" d="M12.666 12.665c.261-.261.709-.237 1 .055l2.098 2.098c.291.291.316.739.055 1.001-.261.261-.709.237-1-.055l-2.098-2.098c-.292-.292-.316-.74-.055-1.001z"/><circle cx="11.5" cy="11.5" r="2.5" fill="#59F"/><circle cx="11.5" cy="11.5" r="1.5" fill="#ABD7FF"/><circle cx="12" cy="11" r=".5" fill="#FFF" opacity=".604"/></symbol><symbol viewBox="0 0 16 16" id="mimetypes-x-content-header" xmlns="http://www.w3.org/2000/svg"><path fill="#FFF" d="M1 1h14v14H1V1z"/><path fill="#666" d="M3 3h10v2H3V3z"/><path fill="#999" d="M1 1v14h14V1H1zm1 1h12v12H2V2z"/></symbol><symbol viewBox="0 0 16 16" id="mimetypes-x-content-html" xmlns="http://www.w3.org/2000/svg"><path fill="#FFF" d="M1 1h14v14H1V1z"/><path fill="#999" d="M1 1v14h14V1H1zm1 1h12v12H2V2z"/><path fill="#F16529" d="M7.25 12L3 8.682V7.318L7.25 4v1.716l-2.975 2.29 2.974 2.278L7.25 12zM13 8.682L8.75 12v-1.716L11.726 8 8.75 5.716V4L13 7.318v1.364z"/></symbol><symbol viewBox="0 0 16 16" id="mimetypes-x-content-image" xmlns="http://www.w3.org/2000/svg"><path fill="#FFF" d="M1 1h14v14H1V1z"/><path fill="#999" d="M1 1v14h14V1H1zm1 1h12v12H2V2z"/><path fill="#999" d="M3 4h10v8H3z"/><path fill="#EFEFEF" d="M4 5h8v6H4z"/><path fill="#59F" d="M7.25 7.251l-1.125 1.5L5 10.251h6.001l-1-1-.999-1-.572.572-.053-.071-1.125-1.5-.002-.001z"/><circle cx="9.3" cy="6.501" r=".75" fill="#E8A33D"/></symbol><symbol viewBox="0 0 16 16" id="mimetypes-x-content-link" xmlns="http://www.w3.org/2000/svg"><path fill="#FFF" d="M1 1v14h7V8h7V1H1z"/><path fill="#999" d="M1 1v14h7v-1H2V2h12v6h1V1H1z"/><path fill="#666" d="M3 3h10v2H3z"/><path fill="#B9B9B9" d="M3 6h10v1H3zm0 2h5v1H3zm0 2h5v1H3zm0 2h5v1H3z"/><g><path fill="#666" d="M9 9h7v7H9z"/><path fill="#FFF" d="M10 10h5v5h-5z"/><path fill="#212121" d="M11 13.115c0 .082.012.178.036.286.024.107.052.205.083.294.03.088.064.177.102.266.037.088.065.152.085.192l.043.085c.011.024.031.036.06.036a.078.078 0 00.019-.002c.036-.011.052-.036.049-.072-.061-.568.014-.969.226-1.204a.882.882 0 01.364-.234c.151-.057.34-.094.569-.113v.535c0 .06.028.102.083.126a.148.148 0 00.053.011c.038 0 .07-.013.096-.04l1.091-1.091c.028-.029.041-.061.041-.098s-.013-.069-.04-.096l-1.091-1.091c-.041-.044-.091-.054-.149-.03a.128.128 0 00-.083.126v.558c-.584.04-1.009.197-1.276.471-.241.246-.361.608-.361 1.085z"/></g></symbol><symbol viewBox="0 0 16 16" id="mimetypes-x-content-list-bullets" xmlns="http://www.w3.org/2000/svg"><path fill="#FFF" d="M1 1h14v14H1V1z"/><path fill="#999" d="M1 1v14h14V1H1zm1 1h12v12H2V2z"/><path fill="#666" d="M3 3h10v2H3V3z"/><path fill="#FF8700" d="M3 6h1v1H3V6zm0 2h1v1H3V8zm0 2h1v1H3v-1zm0 2h1v1H3v-1z"/><path fill="#B9B9B9" d="M5 6h8v1H5V6zm0 2h8v1H5V8zm0 2h8v1H5v-1zm0 2h8v1H5v-1z"/></symbol><symbol viewBox="0 0 16 16" id="mimetypes-x-content-list-files" xmlns="http://www.w3.org/2000/svg"><path fill="#FFF" d="M8 9.75V15H1V1h14v8.75z"/><path fill="#999" d="M1 1v14h7v-1H2V2h12v7.75h1V1H1z"/><path fill="#666" d="M3 3h10v2H3z"/><path fill="#FF8700" d="M3 6h1v1H3zm0 2h1v1H3zm0 2h1v1H3zm0 2h1v1H3z"/><path fill="#B9B9B9" d="M5 6h8v1H5zm0 2h8v1H5zm0 2h3v1H5zm0 2h3v1H5z"/><g><path fill="#FFC857" d="M16 11.625V16H9v-5.25h3.063l.582.875H16z"/><path fill="#E8A33D" d="M16 12.062h-3.356l-.582.875H9v-1.313h7v.438z"/></g></symbol><symbol viewBox="2 -3 16 16" id="mimetypes-x-content-login" xmlns="http://www.w3.org/2000/svg"><path fill="#FFF" d="M8.4 9.7l.1-.1h.1c.6-.2 1.1-.4 1.6-.6.1-.1.2-.1.4-.2v-.4c-.5-.7-.9-1.5-.9-2.2V4.8C9.9 3.3 11.2 2 12.8 2h.5C14.9 2 16 3.2 16 4.8v1.4c0 .7-.2 1.5-.7 2.1v.4c.1 0 .2.1.3.1.4.2.8.4 1.3.5V-2H3v14h4.1c.3-1.6 1.1-2.2 1.3-2.3z"/><path fill="#999" d="M7.4 11H4V-1h12V9.1c.3.1.6.3 1 .4V-2H3v14h4.1c.1-.4.2-.7.3-1z"/><path fill="#B9B9B9" d="M5 0h8v1H5zm7.7 2H5v1h5.6c.5-.6 1.3-1 2.1-1zM9.9 6.2V4.8c0-.3 0-.5.1-.8H5v4h5.5c-.4-.6-.6-1.2-.6-1.8z"/><path fill="#59F" d="M8.4 9.7l.1-.1h.1c.1 0 .2-.1.3-.1V9H5v1h3.1c.1-.2.3-.3.3-.3z"/><path fill="#79A548" d="M17.1 10.6c-1.1-.3-1.8-.7-2.5-1 0 .1.1.2 0 .3-.8.8-2.3.7-3 0-.1-.1-.1-.2 0-.3-.7.3-1.5.7-2.5 1 0 0-.9.5-.9 2.4h10c-.3-2-1.1-2.4-1.1-2.4z"/><path d="M8.7 12.4c.1-.8.4-1.2.5-1.2.7-.2 1.2-.5 1.7-.7.1 0 .1-.1.2-.1.5.4 1.2.7 1.9.7s1.4-.3 1.9-.7c.1 0 .1 0 .2.1.5.2 1.1.5 1.7.7.1.1.4.4.5 1.2l.1.6h.6c-.1-2-.9-2.4-.9-2.4-1.1-.3-1.8-.7-2.5-1 0 .1.1.2 0 .3-.4.4-.9.6-1.5.6s-1.2-.2-1.5-.6c-.1-.1-.1-.2 0-.3-.7.3-1.5.7-2.5 1 0 0-.9.5-.9 2.4h.6l-.1-.6z" opacity=".15"/><path fill="#FFC857" d="M13 8.6c-.4 0-.9-.3-1.2-.6 0 1.5-.5 1.6-.3 1.9.7.8 2.3.8 3 0 .2-.2-.2-.4-.2-1.9-.4.4-.9.6-1.3.6z"/><path d="M11.3 9.6c.1 0 .1-.1.2-.1-.1.1-.1.2 0 .3.1.2.2.2.3.3l.2-.1.1-.3c.1-.2.2-.6.3-1.3-.2-.1-.4-.3-.6-.4 0 .9-.2 1.3-.3 1.6h-.2zm2.6.1l.1.3.2.1c.1-.1.2-.1.3-.2.1-.1.1-.2 0-.3-.1-.2-.2-.6-.3-1.6-.2.2-.4.3-.6.4.1.7.2 1.1.3 1.3z" opacity=".15"/><path fill="#FFC857" d="M13 8.6c-1.1 0-2.1-1.4-2.1-2.4V4.8c0-1 .9-1.8 1.9-1.8h.5c1.1 0 1.9.8 1.9 1.8v1.4c-.1 1-1.1 2.4-2.2 2.4z"/><path d="M13.3 3.6c.7 0 1.3.5 1.3 1.2v1.4c0 .7-.8 1.8-1.5 1.8s-1.6-1.1-1.6-1.8V4.8c0-.6.6-1.2 1.3-1.2h.5m0-.6h-.5c-1 0-1.9.8-1.9 1.8v1.4c0 1 1.1 2.4 2.1 2.4s2.1-1.4 2.1-2.4V4.8c0-1-.8-1.8-1.8-1.8z" opacity=".15"/></symbol><symbol viewBox="0 0 16 16" id="mimetypes-x-content-menu" xmlns="http://www.w3.org/2000/svg"><path fill="#999" d="M1 1h14v14H1V1z"/><path fill="#FFF" d="M2 2h12v12H2V2z"/><path fill="#79A548" d="M6 4h4v2H6V4z"/><path fill="#FF8700" d="M4 10h3v2H4v-2z"/><path fill="#C83C3C" d="M9 10h3v2H9v-2z"/><path fill="#666" d="M7.5 6h1v3h-1zM5 8h1v2H5zm5 0h1v2h-1z"/><path fill="#666" d="M11 8v1H5V8h6z"/></symbol><symbol viewBox="0 0 16 16" id="mimetypes-x-content-multimedia" xmlns="http://www.w3.org/2000/svg"><path fill="#639" d="M1 2h14v12H1V2z"/><path fill="#212121" d="M14 3v10H2V3h12m1-1H1v12h14V2z" opacity=".2"/><path fill="#FFF" d="M6 10.5v-5l2.5 1.25L11 8 8.5 9.25 6 10.5z"/></symbol><symbol viewBox="0 0 16 16" id="mimetypes-x-content-page-language-overlay" xmlns="http://www.w3.org/2000/svg"><path fill="#EFEFEF" d="M2 0v16h12V4l-4-4H2z"/><path fill="#FFF" d="M10 4V0l4 4h-4z" opacity=".65"/><path fill="#212121" d="M13 5v5L9 5h4z" opacity=".2"/><path fill="#999" d="M2 0v16h12V4l-4-4H2zm1 1h6v4h4v10H3V1zm7 .4L12.6 4H10V1.4z"/><g><circle cx="10.5" cy="10.5" r="5.5" fill="#59F"/><path fill="#212121" d="M10.5 6c2.481 0 4.5 2.019 4.5 4.5S12.981 15 10.5 15 6 12.981 6 10.5 8.019 6 10.5 6m0-1a5.5 5.5 0 100 11 5.5 5.5 0 100-11z" opacity=".2"/><path fill="#AAD400" d="M14.982 10.1a4.521 4.521 0 00-2.279-3.523c-.059.062-.075.026-.075.088-.178.062-.415-.062-.593-.125a2.079 2.079 0 00-1.364-.062c-.178.062-.593.125-.415.499.118.188.415.375.712.125.118-.125.238-.312.415-.125.06.063.06.125.06.188-.06.186-.238.249-.415.249-.238.062-.476 0-.712.062-.24.064-.595.126-.595.438 0 .373-.119.436-.416.498-.238 0-.355.125-.238.374.06.186.238.186.357.125.474-.249.89-.873 1.423-.125l.118-.062c.119-.499.238-.186.356 0l.179.187c.712-.685.534.312.771.499-.476-.125-1.009.374-1.424.062-.712-.561-1.186-.311-1.838.249-.534.437-.652.998-.534 1.497.177.624.829.686 1.364.561.177-.063.534-.063.534.062-.119.561.534.935.296 1.558-.177.499.12 1.122.534 1.309.416.186.771-.312.95-.748.059-.062 0-.186.059-.249.474-.624.415-1.558 1.008-2.182.178-.186.771-.872.296-1.434 1.127-.312.714.81.95 1.309.177-.374.296-.748.415-1.061.058-.185.101-.243.101-.243zM8.538 6.778c.187-.197.195-.229.382-.492-.391.138-.883.41-1.236.707l.108.114h.561s.062 0 .062-.064l.062-.066s.062 0 .062-.066l.062-.066.062-.066c-.186.132-.186.066-.125 0 0 .066 0 .066 0 0 0 .066 0 0 0 0v-.001zm-.824 6.068s-.062-.059 0 0c-.062-.059-.062-.059 0 0v-.177l-.062-.059c-.061 0-.061-.06-.122-.06s-.122-.06-.184-.06h-.122s-.061 0-.061-.059c-.429-.238-.613-.653-.735-1.126 0-.119-.061-.238-.061-.356-.06-.06-.06-.119-.122-.179-.122-.118-.06-.356.062-.593v-.118c0-.06 0-.06.061-.119 0-.058 0-.058.062-.118.122-.238.368-.415.49-.593.059-.059.059-.059.059-.118v-.059c.061-.059.061-.178.122-.238 0-.058.062-.177.062-.237 0-.119 0-.178-.062-.296-.061-.178-.099-.332-.221-.451-.551.771-.88 1.636-.88 2.644a4.49 4.49 0 001.552 3.423s.039.017.039-.041v-.06c0-.059.061-.059.061-.118.061-.24.061-.594.062-.832z"/></g></symbol><symbol viewBox="0 0 16 16" id="mimetypes-x-content-plugin" xmlns="http://www.w3.org/2000/svg"><path fill="#666" d="M14.271 3.18L8.276 1.467 8 1.388l-.276.079L1.729 3.18 1 3.388v9.224l.729.208 5.995 1.713.276.079.276-.079 5.995-1.713.729-.208V3.388z"/><path fill="#AAD400" d="M8 2.433l5.035 1.438L8 5.336 2.945 3.877z"/><path fill="#FFC857" d="M2.004 4.651l5.494 1.585v7.188l-5.494-1.57z"/><path fill="#FF6777" d="M8.502 13.424V6.235l5.494-1.597v7.216z"/></symbol><symbol viewBox="0 0 16 16" id="mimetypes-x-content-script" xmlns="http://www.w3.org/2000/svg"><path fill="#FFF" d="M1 1h14v14H1V1z"/><path fill="#999" d="M1 1v14h14V1H1zm1 1h12v12H2V2z"/><path fill="#666" d="M13 5.883c0 .332-.037.627-.112.884a2.141 2.141 0 01-.31.662 2.437 2.437 0 01-.486.504c-.186.147-.355.282-.592.404v1.226H9.875V7.799c.177-.063.604-.127.746-.193.144-.066.295-.173.452-.321.147-.132.261-.285.343-.459.085-.174.127-.372.127-.592 0-.329-.081-.563-.243-.701-.159-.142-.385-.212-.676-.212-.179 0-.382.051-.609.153-.224.102-.43.234-.616.395H9.25V4.362c.159-.089.405-.181.736-.276a3.5 3.5 0 011.008-.148c.615 0 1.103.179 1.464.538.361.358.542.828.542 1.407zm-1.5 6.179H9.875V10.5H11.5v1.562zm-4.251.001L3 8.744V7.381l4.249-3.318v1.716l-2.974 2.29 2.974 2.278v1.716z"/></symbol><symbol viewBox="0 0 16 16" id="mimetypes-x-content-table" xmlns="http://www.w3.org/2000/svg"><path fill="#FFF" d="M1 1h14v14H1V1z"/><path fill="#999" d="M1 1v14h14V1H1zm1 1h12v12H2V2z"/><path fill="#666" d="M3 3h10v2H3V3z"/><path fill="#B9B9B9" d="M7 6h2v1H7V6zm0 2h2v1H7V8zm0 2h2v1H7v-1zm0 2h2v1H7v-1zm3-6h3v1h-3V6zm0 2h3v1h-3V8zm0 2h3v1h-3v-1zm0 2h3v1h-3v-1zM3 6h3v1H3V6zm0 2h3v1H3V8zm0 2h3v1H3v-1zm0 2h3v1H3v-1z"/></symbol><symbol viewBox="0 0 16 16" id="mimetypes-x-content-template" xmlns="http://www.w3.org/2000/svg"><path fill="#FFF" d="M1 1h14v14H1z"/><path fill="#59F" d="M14 2v12H2V2h12m1-1H1v14h14V1z"/><path fill="#59F" d="M3 3h10v3H3zm0 4h3v6H3z"/><path fill="#ABD7FF" d="M7 7h6v6H7z"/></symbol><symbol viewBox="0 0 16 16" id="mimetypes-x-content-template-extension" xmlns="http://www.w3.org/2000/svg"><path fill="#FFF" d="M1 1v14h7V8h7V1H1z"/><path fill="#59F" d="M1 1v14h7v-1H2V2h12v6h1V1H1z"/><path fill="#59F" d="M3 3h10v3H3V3zm0 4h3v6H3V7z"/><path fill="#ABD7FF" d="M7 7v6h1V8h5V7H7z"/><g><path fill="#FFF" d="M9 9h7v7H9z"/><path fill="#212121" d="M14 12h-1v-1h-1v1h-1v1h1v1h1v-1h1"/><path fill="#666" d="M9 9v7h7V9H9zm1 1h5v5h-5v-5z"/></g></symbol><symbol viewBox="0 0 16 16" id="mimetypes-x-content-template-static" xmlns="http://www.w3.org/2000/svg"><path fill="#FFF" d="M1 1h14v14H1z"/><path fill="#999" d="M14 2v12H2V2h12m1-1H1v14h14V1z"/><path fill="#666" d="M3 3h10v3H3zm0 4h3v6H3z"/><path fill="#B9B9B9" d="M7 7h6v6H7z"/></symbol><symbol viewBox="0 0 16 16" id="mimetypes-x-content-text" xmlns="http://www.w3.org/2000/svg"><path fill="#FFF" d="M1 1h14v14H1V1z"/><path fill="#999" d="M1 1v14h14V1H1zm1 1h12v12H2V2z"/><path fill="#666" d="M3 3h10v2H3V3z"/><path fill="#B9B9B9" d="M3 6h10v1H3V6zm0 2h10v1H3V8zm0 2h10v1H3v-1zm0 2h10v1H3v-1z"/></symbol><symbol viewBox="0 0 16 16" id="mimetypes-x-content-text-media" xmlns="http://www.w3.org/2000/svg"><path fill="#FFF" d="M1 1h14v14H1V1z"/><path fill="#999" d="M1 1v14h14V1H1zm1 1h12v12H2V2z"/><path fill="#666" d="M3 3h10v1H3V3z"/><path fill="#B9B9B9" d="M3 5h10v1H3V5z"/><path fill="#639" d="M7 7h6v6H7V7z"/><path fill="#B9B9B9" d="M3 7h3v1H3V7zm0 2h3v1H3V9zm0 2h3v1H3v-1z"/><path fill="#FFF" d="M9 11.5v-3l1.3.8 1.3.8-1.3.8-1.3.6z"/></symbol><symbol viewBox="0 0 16 16" id="mimetypes-x-content-text-picture" xmlns="http://www.w3.org/2000/svg"><path fill="#FFF" d="M1 1h14v14H1V1z"/><path fill="#999" d="M1 1v14h14V1H1zm1 1h12v12H2V2z"/><path fill="#666" d="M3 3h10v1H3V3z"/><path fill="#B9B9B9" d="M3 5h10v1H3V5z"/><path fill="#59F" d="M7 7h6v6H7V7z"/><path fill="#FFF" d="M11 12H8l.75-1 .75-1 .75 1 .75 1z"/><path fill="#FFF" d="M12 12H9.333l.667-.667.667-.666.666.666L12 12z"/><circle cx="11.5" cy="9.5" r=".5" fill="#FFF"/><path fill="#B9B9B9" d="M3 7h3v1H3V7zm0 2h3v1H3V9zm0 2h3v1H3v-1z"/></symbol><symbol viewBox="0 0 16 16" id="mimetypes-x-index_config" xmlns="http://www.w3.org/2000/svg"><path fill="#E8A33D" d="M14.69 13.17l-2.758-2.758a6.052 6.052 0 01-1.525 1.524l2.753 2.744c.2.2.47.32.76.32.59 0 1.08-.49 1.08-1.07 0-.29-.12-.57-.31-.76z"/><circle cx="7" cy="7" r="5" fill="#ABD7FF"/><path fill="#59F" d="M7 2.5c2.481 0 4.5 2.019 4.5 4.5S9.481 11.5 7 11.5 2.5 9.481 2.5 7 4.519 2.5 7 2.5M7 1a6 6 0 100 12A6 6 0 007 1z"/><circle cx="8.5" cy="5.5" r="1.5" fill="#FFF" opacity=".6"/></symbol><symbol viewBox="0 0 16 16" id="mimetypes-x-sys_action" xmlns="http://www.w3.org/2000/svg"><path fill="#EFEFEF" d="M2 0v16h12V4l-4-4H2z"/><path fill="#FFF" d="M10 4V0l4 4h-4z" opacity=".65"/><path fill="#212121" d="M13 5v5L9 5h4z" opacity=".2"/><path fill="#999" d="M2 0v16h12V4l-4-4H2zm1 1h6v4h4v10H3V1zm7 .4L12.6 4H10V1.4z"/><circle cx="12" cy="12" r="2" fill="#FFF"/><path fill="#666" d="M15.897 11.399l-1.213-.346a2.685 2.685 0 00-.115-.282l.611-1.101a.142.142 0 00-.024-.17l-.656-.656a.143.143 0 00-.17-.024l-1.1.611a2.775 2.775 0 00-.282-.115l-.346-1.213A.146.146 0 0012.463 8h-.927a.142.142 0 00-.137.103l-.347 1.213a2.685 2.685 0 00-.282.115l-1.1-.611a.143.143 0 00-.17.024l-.656.655a.144.144 0 00-.024.171l.611 1.101a2.775 2.775 0 00-.115.282l-1.213.346a.144.144 0 00-.103.138v.927c0 .064.042.12.103.137l1.213.346c.034.097.071.191.115.282l-.612 1.101a.142.142 0 00.024.17l.656.656a.143.143 0 00.17.024l1.101-.611c.091.044.186.081.282.115l.346 1.213a.146.146 0 00.139.103h.927c.064 0 .12-.042.137-.103l.346-1.213c.097-.034.191-.071.282-.115l1.101.611a.142.142 0 00.17-.024l.656-.656a.143.143 0 00.024-.17l-.611-1.101c.044-.091.081-.186.115-.282l1.213-.346a.144.144 0 00.103-.138v-.927a.143.143 0 00-.103-.137zM12 13.714a1.714 1.714 0 11-.001-3.427A1.714 1.714 0 0112 13.714z"/></symbol><symbol viewBox="0 0 16 16" id="mimetypes-x-sys_category" xmlns="http://www.w3.org/2000/svg"><path fill="#999" d="M1 1v5.6l8.5 8.5 5.7-5.7L6.7 1H1zm2.5 2.5c.7-.7 1.8-.7 2.5 0S6.7 5.3 6 6s-1.8.7-2.5 0-.7-1.8 0-2.5z"/><path fill="#FFF" d="M2 2v4.2l7.5 7.5 4.2-4.2L6.2 2H2zm1.5 1.5c.7-.7 1.8-.7 2.5 0S6.7 5.3 6 6s-1.8.7-2.5 0-.7-1.8 0-2.5z"/><path fill="#999" d="M3.5 3.5c-.7.7-.7 1.8 0 2.5s1.8.7 2.5 0 .7-1.8 0-2.5-1.8-.7-2.5 0zm.7.7c.3-.3.8-.3 1.1 0s.3.8 0 1.1-.8.3-1.1 0c-.3-.4-.3-.8 0-1.1z"/><path fill="#FF8700" d="M6.117 8.566L8.592 6.09l3.535 3.535L9.652 12.1z"/></symbol><symbol viewBox="0 0 16 16" id="mimetypes-x-sys_file_storage" xmlns="http://www.w3.org/2000/svg"><path fill="#EFEFEF" d="M14 16H5l-3-2.5V2l3-2h9z"/><path fill="#AAA" d="M5 0L2 2v11.5L5 16h9V0H5zM3 13V2.5l2-1.3v13.5L3 13z"/><path fill="#59F" d="M6 9h2v1H6V9z"/><path fill="#666" d="M6 6h7v1H6V6zm0-2h7v1H6V4z"/></symbol><symbol viewBox="0 0 16 16" id="mimetypes-x-sys_filemounts" xmlns="http://www.w3.org/2000/svg"><path fill="#EFEFEF" d="M14 16H5l-3-2.5V2l3-2h9z"/><path fill="#AAA" d="M5 0L2 2v11.5L5 16h9V0H5zM3 13V2.5l2-1.3v13.5L3 13z"/><path fill="#59F" d="M6 9h2v1H6V9z"/><path fill="#666" d="M6 6h7v1H6V6zm0-2h7v1H6V4z"/></symbol><symbol viewBox="0 0 16 16" id="mimetypes-x-sys_language" xmlns="http://www.w3.org/2000/svg"><path fill="#59F" d="M15 6c0 3.3-2.7 6-6 6S3 9.3 3 6s2.7-6 6-6 6 2.7 6 6z"/><path fill="#212121" d="M9 12c-3.3 0-6-2.7-6-6s2.7-6 6-6 6 2.7 6 6-2.7 6-6 6zM9 1C6.2 1 4 3.2 4 6s2.2 5 5 5 5-2.2 5-5-2.2-5-5-5z" opacity=".2"/><path fill="#AAD400" d="M11.6 1.8l-.1.1c-.2.1-.5-.1-.7-.1-.5-.2-1.1-.2-1.5-.1-.2.1-.7.1-.5.5.2.3.5.5.8.2.2-.2.3-.4.5-.2.1.1.1.1.1.2-.1.2-.3.3-.5.3-.3.1-.5 0-.8.1-.3.1-.7.1-.7.5s-.1.5-.5.6c-.2 0-.3.1-.2.4.1.2.3.2.4.1.5-.3 1-1 1.6-.1l.1-.1c.2-.5.3-.2.4 0l.2.2c.8-.7.6.4.9.6-.5-.1-1.1.4-1.6.1-.8-.6-1.3-.4-2 .3-.6.4-.8 1.1-.6 1.6.1.7.9.8 1.5.7.2-.1.6-.1.6 0-.2.7.6 1.1.3 1.8-.2.5.1 1.2.5 1.4.3 0 .5-.1.7-.2.2-.2.3-.4.4-.6.1-.1 0-.2.1-.3.5-.7.5-1.8 1.1-2.5.2-.2.9-1 .3-1.6 1.3-.4.8.9 1.1 1.5.2-.4.3-.8.5-1.2v-.1c0-.7-.1-1.3-.4-1.9v-.1c-.1-.1-.1-.2-.2-.4-.5-.6-1.1-1.3-1.8-1.7zm-5.7.3c.1 0 .1 0 0 0h.9s.1 0 .1-.1l.1-.1s.1 0 .1-.1l.1-.1H7c-.2.1-.2.1-.1 0 0-.1.1-.2.2-.3-.4.1-.8.4-1.2.7zm-.1 7.5c0-.1.1-.1.1-.1.1-.3.1-.7.1-.9V8.3h-.2c-.1 0-.1-.1-.1-.1h-.4s-.1 0-.1-.1c-.4-.3-.6-.7-.7-1.3 0-.1-.1-.3-.1-.4-.1 0-.1-.1-.1-.2-.2-.1-.1-.4 0-.6v-.1c0-.1 0-.1.1-.1 0-.1 0-.1.1-.1.1-.4.4-.6.5-.8l.1-.1v-.1c.1-.1.1-.2.1-.3 0-.1.1-.2.1-.3 0-.1 0-.2-.1-.3 0-.1-.1-.3-.2-.4-.6.8-1 1.9-1 3v.1c0 .2 0 .4.1.6 0 .2.1.5.2.7 0 .1 0 .1.1.2.1.2.2.5.3.7.1.1.1.2.2.3.1.1.1.2.2.3.2.3.5.6.8.9-.1-.1-.1-.1-.1-.2 0 .1 0 .1 0 0z"/><g><path fill="#FFC857" d="M12.7 14.5c-.1.2-.3.4-.5.6-.2.1-.5.2-.7.3l-6.4.6c-.9.1-1.7-.1-2.4-.5l-2-1.2c-.3-.2-.5-.4-.6-.8-.1-.3 0-.7.1-1l1.3-2.2c.2-.3.4-.5.8-.6.3-.1.7 0 1 .1l1 .6 1.8-1.2 1.8-3.1c.2-.3.4-.5.8-.6.3-.1.7 0 1 .1l.2.1c.5.3.7.6.9 1.1.1.5.1 1-.2 1.4l-1.4 2.4.6.7 2.3-3.9c.2-.4.5-.6 1-.8.4-.1.8-.1 1.2.1.4-.1.9 0 1.2.2l.2.1c0 .5.2.7.3 1 .1.3 0 .7-.1 1l-3.2 5.5z"/><path fill="#212121" d="M12.7 14.5c-.1.2-.3.4-.5.6-.2.1-.5.2-.7.3l-6.4.6c-.9.1-1.7-.1-2.4-.5l-2-1.2c-.3-.2-.5-.4-.6-.8-.1-.3 0-.7.1-1l1.3-2.2c.2-.3.4-.5.8-.6s.7 0 1 .1l1 .6 1.8-1.2 1.8-3.1c.2-.3.4-.5.8-.6.3-.1.7 0 1 .1l.2.1c.5.3.7.6.9 1.1.1.5.1 1-.2 1.4l-1.4 2.4.6.7 2.3-3.9c.2-.4.5-.6 1-.8.4-.1.8-.1 1.2.1.4-.1.9 0 1.2.2l.2.1c0 .5.2.7.3 1 .1.3 0 .7-.1 1-.1 0-3.2 5.5-3.2 5.5zm-11.6-.9l2 1.2c.6.3 1.2.5 1.9.4l6.3-.7c.3 0 .5-.2.6-.4L15 8.6c.1-.1.1-.2 0-.3 0-.1-.1-.2-.2-.3-.1-.1-.2-.1-.3-.2-.1 0-.2-.1-.3-.1h-.3c.1.1.2.2.2.4 0 .1 0 .3-.1.4l-2.7 4.7-.2-.1L14 8.4v-.3c0-.1-.1-.2-.2-.3-.2-.1-.3-.2-.3-.2-.2-.1-.4-.1-.6 0-.2.1-.3.2-.4.4l-2.1 3.6-.3.5c-.1.2-.2.2-.4.3s-.3 0-.5-.1c-.1 0-.1-.1-.2-.1l-.9-1s0-.1-.1-.2c0-.1 0-.3.1-.4l1.5-2.5c.1-.3.2-.5.1-.8s-.3-.5-.5-.7L9 6.5c-.1-.1-.2-.1-.3 0-.1 0-.2.1-.3.2L6.6 9.9c0 .1-.1.1-.1.1l-1.9 1.3c-.1.1-.2.1-.3.1-.1 0-.2 0-.3-.1l-1.1-.6c-.1-.1-.2-.1-.3 0-.1 0-.2.1-.3.2L.9 13c-.1.1-.1.2 0 .3 0 .1.1.2.2.3z" opacity=".2"/></g></symbol><symbol viewBox="0 0 16 16" id="mimetypes-x-sys_news" xmlns="http://www.w3.org/2000/svg"><path fill="#B9B9B9" d="M2 0v16h12V4l-4-4H2z"/><path fill="#FFF" d="M10 4V0l4 4h-4z" opacity=".65"/><path fill="#212121" d="M14 4v5l-4-5h4z" opacity=".15"/><g fill="#8C8C8C"><path d="M4 6h8v1H4zm0 2h8v1H4zm0 2h8v1H4zm0 2h8v1H4z"/></g><g><path fill="#FBB03B" d="M15.3 16H5.7c-.6 0-.9-.6-.7-1.1l4.8-9.1c.3-.5 1-.5 1.3 0l4.8 9.1c.3.5-.1 1.1-.6 1.1z"/><path fill="#212121" d="M10.5 6.7l4.3 8.3H6.2l4.3-8.3m0-1.3c-.3 0-.5.1-.7.4L5 14.9c-.2.5.2 1.1.7 1.1h9.5c.6 0 .9-.6.7-1.1l-4.8-9.1c-.1-.3-.3-.4-.6-.4z" opacity=".2"/><path fill="#FFF" d="M11 13v1h-1v-1h1zm0-4v3h-1V9h1z"/></g></symbol><symbol viewBox="0 0 16 16" id="mimetypes-x-sys_note" xmlns="http://www.w3.org/2000/svg"><path fill="#FFC857" d="M15 10l-5 5H1.5c-.3 0-.5-.2-.5-.5v-13c0-.3.2-.5.5-.5h13c.3 0 .5.2.5.5V10z"/><path fill="#E8A33D" d="M9 14H2V2h12v7h1V1.5c0-.3-.2-.5-.5-.5h-13c-.3 0-.5.2-.5.5v13c0 .3.2.5.5.5H9v-1z"/><path fill="#FFE3AB" d="M10 15H9V9.5c0-.3.2-.5.5-.5H15v1l-5 5z"/><path fill="#EEBA6E" d="M13.6 10L10 13.6V10h3.6M15 9H9.5c-.3 0-.5.2-.5.5V15h1l5-5V9z"/></symbol><symbol viewBox="0 0 16 16" id="mimetypes-x-sys_redirect" xmlns="http://www.w3.org/2000/svg"><path fill="#59F" d="M15 12a3 3 0 01-3 3H4a3 3 0 01-3-3V4a3 3 0 013-3h8a3 3 0 013 3v8z"/><path fill="#FFF" d="M8.007 4a3.995 3.995 0 012.757 1.107l.576-.575a.386.386 0 01.66.273v2.162a.387.387 0 01-.388.386H9.451a.386.386 0 01-.273-.66l.673-.673a2.71 2.71 0 10-.064 4.021.192.192 0 01.264.008l.639.641a.191.191 0 01-.008.279A4 4 0 014 8a4.006 4.006 0 014.007-4z"/></symbol><symbol viewBox="0 0 16 16" id="mimetypes-x-sys_workspace" xmlns="http://www.w3.org/2000/svg"><path fill="#FF8700" d="M6 6h9v9H6z"/><path fill="#FFC857" d="M6.9 6.9h7.2v7.2H6.9z"/><path fill="#79A548" d="M1 4h9v9H1z"/><path fill="#AAD400" d="M1.9 4.9h7.2v7.2H1.9z"/><path fill="#C83C3C" d="M3 1h9v9H3z"/><path fill="#FF6777" d="M4 2h7v7H4z"/></symbol><symbol viewBox="0 0 16 16" id="mimetypes-x-tx_rtehtmlarea_acronym" xmlns="http://www.w3.org/2000/svg"><path fill="#FFC857" d="M9 12H0V0h16v12h-3l-4 4z"/><path fill="#212121" d="M15 1v10h-2.4l-.3.3-2.3 2.3V11H1V1h14m1-1H0v12h9v4l4-4h3V0z" opacity=".2"/><path fill="#212121" d="M9.5 4.1c0 .3 0 .5-.1.7 0 .2-.1.3-.2.5l-.4.4c-.2.1-.3.2-.5.3v1H7V5.6c.1-.1.5-.1.6-.2.1 0 .2-.1.4-.2.1-.1.2-.2.2-.4.1-.1.1-.3.1-.5 0-.3-.1-.5-.2-.6-.1 0-.3-.1-.5-.1-.1 0-.3 0-.5.1s-.3.2-.5.3h-.1V2.8c.1 0 .3-.1.6-.2s.5-.1.8-.1c.5 0 .9.1 1.2.4.3.3.4.7.4 1.2zM8.3 9H7V7.8h1.3V9z"/></symbol><symbol viewBox="0 0 16 16" id="mimetypes-x-tx_scheduler_task_group" xmlns="http://www.w3.org/2000/svg"><path fill="#B9B9B9" d="M8 0C4.44 0 1.552 5.068 1.504 10h12.992C14.448 5.068 11.56 0 8 0zM1.533 11c.155 2.12.87 3.811 1.943 5h9.047c1.073-1.189 1.789-2.88 1.943-5H1.533z"/><path fill="#FFF" d="M8 1C4.962 1 2.5 5.51 2.5 9.859c0 2.217.643 3.96 1.672 5.141h7.655c1.03-1.18 1.672-2.924 1.672-5.141C13.5 5.51 11.038 1 8 1z"/><path fill="#FF8700" d="M2.5 10h11l-.05 1H2.55l-.05-1z"/><path fill="#8C8C8C" d="M7.5 6h1v3h-1V6z"/><path fill="#B9B9B9" d="M4 7h1v2H4V7zm7 0h1v2h-1V7z"/><path fill="#FF8700" d="M7.5 10.5h1V14h-1v-3.5z"/></symbol></svg>