<?xml version="1.0" encoding="utf-8"?><svg class="typo3-icons-module" style="display: none;" xmlns="http://www.w3.org/2000/svg" xmlns:xlink="http://www.w3.org/1999/xlink"><symbol viewBox="0 0 64 64" id="module-about" xmlns="http://www.w3.org/2000/svg"><path fill="currentColor" d="M42.14 39.54c-.58.29-1.16.29-1.74.29-5.22 0-12.75-17.97-12.75-24.06 0-2.32.58-2.9 1.16-3.48-6.09.87-13.62 3.19-15.94 6.09-.58.58-.87 1.74-.87 3.19 0 9.57 9.86 30.72 17.1 30.72 3.19 0 8.7-5.22 13.04-12.75m-3.18-27.83c6.38 0 13.04 1.16 13.04 4.64 0 7.54-4.64 16.52-7.25 16.52-4.35 0-9.57-11.88-9.57-17.97 0-2.61 1.16-3.19 3.77-3.19"/></symbol><symbol viewBox="0 0 64 64" id="module-aboutmodules" xmlns="http://www.w3.org/2000/svg"><rect width="8" height="8" x="12" y="12" fill="var(--icon-color-accent, #ff8700)" rx="2" ry="2"/><rect width="8" height="8" x="12" y="24" fill="var(--icon-color-accent, #ff8700)" rx="2" ry="2"/><rect width="8" height="8" x="12" y="36" fill="var(--icon-color-accent, #ff8700)" rx="2" ry="2"/><path fill="currentColor" d="M48 16v32H28V16h20m2-4H26c-1.1 0-2 .9-2 2v36c0 1.1.9 2 2 2h24c1.1 0 2-.9 2-2V14c0-1.1-.9-2-2-2Z"/><path fill="currentColor" d="M42 24h-8c-1.1 0-2-.9-2-2s.9-2 2-2h8c1.1 0 2 .9 2 2s-.9 2-2 2Zm0 8h-8c-1.1 0-2-.9-2-2s.9-2 2-2h8c1.1 0 2 .9 2 2s-.9 2-2 2Zm0 8h-8c-1.1 0-2-.9-2-2s.9-2 2-2h8c1.1 0 2 .9 2 2s-.9 2-2 2Z" opacity=".4"/></symbol><symbol viewBox="0 0 64 64" id="module-adminpanel" xmlns="http://www.w3.org/2000/svg"><path fill="currentColor" d="M26 48H16c-2.21 0-4-1.79-4-4V16c0-2.21 1.79-4 4-4h32c2.21 0 4 1.79 4 4v12c0 1.1-.9 2-2 2s-2-.9-2-2V16H16v28h10c1.1 0 2 .9 2 2s-.9 2-2 2Z"/><path fill="var(--icon-color-accent, #ff8700)" d="m51.41 48.59-5.54-5.54c.8-1.3 1.27-2.83 1.27-4.47 0-4.73-3.84-8.57-8.57-8.57S30 33.85 30 38.58s3.84 8.57 8.57 8.57c1.64 0 3.17-.47 4.47-1.27l5.54 5.54c.39.39.9.59 1.41.59s1.02-.2 1.41-.59c.78-.78.78-2.05 0-2.83Zm-12.84-5.45c-2.52 0-4.57-2.05-4.57-4.57S36.05 34 38.57 34s4.57 2.05 4.57 4.57-2.05 4.57-4.57 4.57Z"/><path fill="currentColor" d="M16 16h32v8H16z" opacity=".4"/></symbol><symbol viewBox="0 0 64 64" id="module-belog" xmlns="http://www.w3.org/2000/svg"><rect width="4" height="4" x="20" y="24" fill="var(--icon-color-accent, #ff8700)" rx="2" ry="2"/><rect width="16" height="4" x="28" y="24" fill="currentColor" rx="2" ry="2" opacity=".4"/><rect width="16" height="4" x="28" y="32" fill="currentColor" rx="2" ry="2" opacity=".4"/><rect width="16" height="4" x="28" y="40" fill="currentColor" rx="2" ry="2" opacity=".4"/><rect width="4" height="4" x="20" y="32" fill="var(--icon-color-accent, #ff8700)" rx="2" ry="2"/><rect width="4" height="4" x="20" y="40" fill="var(--icon-color-accent, #ff8700)" rx="2" ry="2"/><path fill="currentColor" d="M50 16H40v-2c0-1.1-.9-2-2-2H26c-1.1 0-2 .9-2 2v2H14c-1.1 0-2 .9-2 2v32c0 1.1.9 2 2 2h36c1.1 0 2-.9 2-2V18c0-1.1-.9-2-2-2Zm-2 32H16V20h32v28Z"/></symbol><symbol viewBox="0 0 64 64" id="module-beuser" xmlns="http://www.w3.org/2000/svg"><path fill="var(--icon-color-accent, #ff8700)" d="M46 34h-.61A7.965 7.965 0 0 0 48 28.1c0-4.42-3.58-8-8-8s-8 3.58-8 8c0 2.34 1.01 4.43 2.61 5.9H34c-3.31 0-6 2.69-6 6v10c0 1.1.9 2 2 2h20c1.1 0 2-.9 2-2V40c0-3.31-2.69-6-6-6Zm-6-9.9c2.21 0 4 1.79 4 4s-1.79 4-4 4-4-1.79-4-4 1.79-4 4-4ZM48 48H32v-8c0-1.1.9-2 2-2h12c1.1 0 2 .9 2 2v8Z"/><path fill="currentColor" d="M28 40c0-3.31 2.69-6 6-6h.61A7.965 7.965 0 0 1 32 28.1c0-.61.08-1.21.21-1.78-.68-.27-1.43-.42-2.21-.42h-.61A7.965 7.965 0 0 0 32 20c0-4.42-3.58-8-8-8s-8 3.58-8 8c0 2.34 1.01 4.43 2.61 5.9H18c-3.31 0-6 2.69-6 6v10c0 1.1.9 2 2 2h14V40Z" opacity=".4"/></symbol><symbol viewBox="0 0 64 64" id="module-config" xmlns="http://www.w3.org/2000/svg"><path fill="currentColor" d="M16 52c-1.1 0-2-.9-2-2V14c0-1.1.9-2 2-2s2 .9 2 2v36c0 1.1-.9 2-2 2Z"/><rect width="12" height="8" x="10" y="36" fill="var(--icon-color-accent, #ff8700)" rx="1.33" ry="1.33"/><path fill="currentColor" d="M36.51 52c-.67 0-1.24-.49-1.32-1.14l-.39-3.02c-.29-.11-.56-.24-.82-.39s-.51-.31-.75-.49l-2.89 1.18c-.62.25-1.34.02-1.67-.55l-2.49-4.19c-.34-.57-.19-1.29.35-1.69l2.5-1.84c-.02-.15-.03-.3-.03-.44v-.88c0-.14.01-.29.03-.44l-2.5-1.84c-.54-.4-.69-1.12-.35-1.69l2.49-4.19c.34-.57 1.05-.8 1.67-.55l2.89 1.18c.24-.17.5-.34.77-.49.27-.15.53-.28.8-.39l.39-3.02c.08-.65.65-1.14 1.32-1.14h4.98c.67 0 1.24.49 1.32 1.14l.39 3.02c.29.11.56.24.82.39s.51.31.75.49l2.89-1.18c.62-.25 1.34-.02 1.67.55l2.49 4.19c.34.57.19 1.29-.35 1.69l-2.5 1.84c.02.15.03.3.03.44v.88c0 .14-.02.29-.07.44l2.5 1.84c.54.4.69 1.12.35 1.69l-2.49 4.19c-.34.57-1.06.8-1.68.55l-2.85-1.18c-.24.17-.5.34-.77.49s-.53.28-.8.39l-.39 3.02c-.08.65-.65 1.14-1.32 1.14H36.5Zm2.56-8.45c1.29 0 2.39-.44 3.3-1.33s1.37-1.96 1.37-3.22-.46-2.33-1.37-3.22-2.01-1.33-3.3-1.33-2.42.44-3.32 1.33c-.9.89-1.35 1.96-1.35 3.22s.45 2.33 1.35 3.22c.9.89 2.01 1.33 3.32 1.33Z" opacity=".4"/><path fill="currentColor" d="m28.67 47.6-2.49-4.19c-.34-.57-.19-1.29.35-1.69l2.5-1.84c-.02-.15-.03-.3-.03-.44v-.88c0-.14.01-.29.03-.44l-2.5-1.84c-.54-.4-.69-1.12-.35-1.69l2.49-4.19c.28-.46.81-.69 1.33-.62V14c0-1.1-.9-2-2-2s-2 .9-2 2v36c0 1.1.9 2 2 2s2-.9 2-2v-1.78c-.52.07-1.05-.16-1.33-.62ZM41.49 26c.18 0 .35.04.51.1V14c0-1.1-.9-2-2-2s-2 .9-2 2v12h3.49Z"/><path fill="var(--icon-color-accent, #ff8700)" d="M28.67 30.4c.34-.57 1.05-.8 1.67-.55l2.89 1.18c.24-.17.5-.34.77-.49v-3.21c0-.74-.6-1.33-1.33-1.33h-9.33c-.74 0-1.33.6-1.33 1.33v5.33c0 .74.6 1.33 1.33 1.33h3.2l2.14-3.6Z"/><rect width="12" height="8" x="34" y="16" fill="var(--icon-color-accent, #ff8700)" rx="1.33" ry="1.33"/></symbol><symbol viewBox="0 0 64 64" id="module-contentelements" xmlns="http://www.w3.org/2000/svg"><path fill="currentColor" d="M50 44H14c-1.1 0-2-.9-2-2s.9-2 2-2h36c1.1 0 2 .9 2 2s-.9 2-2 2Zm0 8H14c-1.1 0-2-.9-2-2s.9-2 2-2h36c1.1 0 2 .9 2 2s-.9 2-2 2Z"/><path fill="var(--icon-color-accent, #ff8700)" d="M48 16v16H16V16h32m2-4H14c-1.1 0-2 .9-2 2v20c0 1.1.9 2 2 2h36c1.1 0 2-.9 2-2V14c0-1.1-.9-2-2-2Z"/><path fill="currentColor" d="m42 24-8 4-10-6-8 6.4V32h32v-3.5L42 24z" opacity=".4"/></symbol><symbol viewBox="0 0 64 64" id="module-cshmanual" xmlns="http://www.w3.org/2000/svg"><path fill="var(--icon-color-accent, #ff8700)" d="M40 20.05c.55 0 1.02.11 1.41.32s.59.62.59 1.2-.2.98-.59 1.2-.86.33-1.41.33-1.03-.11-1.42-.33-.58-.62-.58-1.2.19-.99.58-1.2.86-.32 1.42-.32Zm1.83 5.08V36h-3.67V25.13h3.67Z"/><path fill="currentColor" d="M48 16c-.43 0-1.09-.27-1.86-.59C44.71 14.82 42.74 14 40 14c-3.87 0-6.25 1.92-8 3.41-1.75-1.48-4.13-3.41-8-3.41-2.74 0-4.7.81-6.14 1.41-.77.32-1.43.59-1.86.59-1.1 0-2 .9-2 2v24c0 1.1.9 2 2 2 1.23 0 2.32-.44 3.47-.91C20.8 42.55 22.17 42 24 42c3.17 0 4.68 1.51 6.59 3.41.03.03.06.05.09.08s.07.06.11.09c.14.11.28.2.44.26h.01c.24.1.5.15.76.15s.52-.05.76-.15h.01c.16-.07.3-.16.44-.26.04-.03.07-.06.11-.09.03-.03.07-.05.09-.08C35.32 43.5 36.82 42 40 42c1.83 0 3.2.56 4.53 1.09 1.15.47 2.24.91 3.47.91 1.1 0 2-.9 2-2V18c0-1.1-.9-2-2-2ZM18 39.37V19.64c.46-.15.92-.34 1.39-.54C20.7 18.56 22.05 18 24 18c2.52 0 4.01 1.26 5.58 2.6.14.12.28.24.42.35v18.72c-1.54-.97-3.45-1.68-6-1.68s-4.56.79-6 1.37Zm28 0c-1.44-.58-3.41-1.37-6-1.37s-4.46.71-6 1.68V20.96c.14-.12.28-.23.42-.35 1.57-1.34 3.06-2.6 5.58-2.6 1.95 0 3.3.56 4.61 1.1.47.19.93.38 1.39.54v19.73Z"/><path fill="currentColor" d="M50 22v20c0 1.1-.9 2-2 2-1.23 0-2.32-.44-3.47-.91C43.2 42.55 41.83 42 40 42c-3.17 0-4.68 1.51-6.59 3.41-.03.03-.06.05-.09.08s-.07.06-.11.09c-.14.11-.28.2-.44.26h-.01c-.24.1-.5.15-.76.15s-.52-.05-.76-.15h-.01c-.16-.07-.3-.16-.44-.26-.04-.03-.07-.06-.11-.09-.03-.03-.07-.05-.09-.08C28.68 43.5 27.18 42 24 42c-1.83 0-3.2.56-4.53 1.09-1.15.47-2.24.91-3.47.91-1.1 0-2-.9-2-2V22c-1.1 0-2 .9-2 2v22c0 1.1.9 2 2 2h14c0 2 2 4 4 4s4-2 4-4h14c1.1 0 2-.9 2-2V24c0-1.1-.9-2-2-2Z" opacity=".6"/></symbol><symbol viewBox="0 0 64 64" id="module-dashboard" xmlns="http://www.w3.org/2000/svg"><path fill="var(--icon-color-accent, #ff8700)" d="M50 42h-4v-4c0-1.1-.9-2-2-2s-2 .9-2 2v4h-4c-1.1 0-2 .9-2 2s.9 2 2 2h4v4c0 1.1.9 2 2 2s2-.9 2-2v-4h4c1.1 0 2-.9 2-2s-.9-2-2-2Z" class="icon-accent"/><path fill="currentColor" d="M26 16v10H16V16h10m2-4H14c-1.1 0-2 .9-2 2v14c0 1.1.9 2 2 2h14c1.1 0 2-.9 2-2V14c0-1.1-.9-2-2-2Z"/><path fill="currentColor" d="M50 30H36c-1.1 0-2-.9-2-2V14c0-1.1.9-2 2-2h14c1.1 0 2 .9 2 2v14c0 1.1-.9 2-2 2ZM28 52H14c-1.1 0-2-.9-2-2V36c0-1.1.9-2 2-2h14c1.1 0 2 .9 2 2v14c0 1.1-.9 2-2 2Z" opacity=".4"/></symbol><symbol viewBox="0 0 64 64" id="module-dbal" xmlns="http://www.w3.org/2000/svg"><path fill="var(--icon-color-accent, #ff8700)" d="M28 32H14c-1.1 0-2 .9-2 2v8c0 1.1.9 2 2 2h14c1.1 0 2-.9 2-2v-8c0-1.1-.9-2-2-2Zm-4 8c-1.1 0-2-.9-2-2s.9-2 2-2 2 .9 2 2-.9 2-2 2Z"/><path fill="currentColor" d="M28 16H14c-1.1 0-2 .9-2 2v8c0 1.1.9 2 2 2h14c1.1 0 2-.9 2-2v-8c0-1.1-.9-2-2-2Zm-4 8c-1.1 0-2-.9-2-2s.9-2 2-2 2 .9 2 2-.9 2-2 2ZM50 16H36c-1.1 0-2 .9-2 2v8c0 1.1.9 2 2 2h14c1.1 0 2-.9 2-2v-8c0-1.1-.9-2-2-2Zm-4 8c-1.1 0-2-.9-2-2s.9-2 2-2 2 .9 2 2-.9 2-2 2Z" opacity=".4"/><path fill="var(--icon-color-accent, #ff8700)" d="M50 32H36c-1.1 0-2 .9-2 2v8c0 1.1.9 2 2 2h14c1.1 0 2-.9 2-2v-8c0-1.1-.9-2-2-2Zm-4 8c-1.1 0-2-.9-2-2s.9-2 2-2 2 .9 2 2-.9 2-2 2Z"/><path fill="currentColor" d="M40 44v4H24v-4h-4v4.8c0 1.82 1.72 3.2 4 3.2h16c2.28 0 4-1.38 4-3.2V44h-4Z"/></symbol><symbol viewBox="0 0 64 64" id="module-dbint" xmlns="http://www.w3.org/2000/svg"><path fill="var(--icon-color-accent, #ff8700)" d="M50 40H14c-1.1 0-2 .9-2 2v8c0 1.1.9 2 2 2h36c1.1 0 2-.9 2-2v-8c0-1.1-.9-2-2-2Zm-4 8c-1.1 0-2-.9-2-2s.9-2 2-2 2 .9 2 2-.9 2-2 2Zm-8 0c-1.1 0-2-.9-2-2s.9-2 2-2 2 .9 2 2-.9 2-2 2Z"/><path fill="currentColor" d="M50 12H14c-1.1 0-2 .9-2 2v8c0 1.1.9 2 2 2h36c1.1 0 2-.9 2-2v-8c0-1.1-.9-2-2-2Zm-4 8c-1.1 0-2-.9-2-2s.9-2 2-2 2 .9 2 2-.9 2-2 2Zm-8 0c-1.1 0-2-.9-2-2s.9-2 2-2 2 .9 2 2-.9 2-2 2Z" opacity=".4"/><path fill="currentColor" d="M50 26H14c-1.1 0-2 .9-2 2v8c0 1.1.9 2 2 2h36c1.1 0 2-.9 2-2v-8c0-1.1-.9-2-2-2Zm-4 8c-1.1 0-2-.9-2-2s.9-2 2-2 2 .9 2 2-.9 2-2 2Zm-8 0c-1.1 0-2-.9-2-2s.9-2 2-2 2 .9 2 2-.9 2-2 2Z"/></symbol><symbol viewBox="0 0 64 64" id="module-debug" xmlns="http://www.w3.org/2000/svg"><path fill="var(--icon-color-accent, #ff8700)" d="M46.1 38H50c1.1 0 2-.9 2-2s-.9-2-2-2h-3.9v-4H50c1.1 0 2-.9 2-2s-.9-2-2-2h-4.6a12.054 12.054 0 0 0-7.28-7.29l1.71-3.84c.45-1.01 0-2.19-1.01-2.64-1.01-.45-2.19 0-2.64 1.01L34.06 18h-4.08l-2.14-4.81c-.45-1.01-1.63-1.46-2.64-1.01-1.01.45-1.46 1.63-1.01 2.64l1.73 3.89c-3.4 1.21-6.09 3.9-7.3 7.3h-4.6c-1.1 0-2 .9-2 2s.9 2 2 2h3.9v4h-3.9c-1.1 0-2 .9-2 2s.9 2 2 2h3.9v2c0 .68.07 1.35.18 2h-4.08c-1.1 0-2 .9-2 2s.9 2 2 2h5.52c2.08 3.58 5.95 6 10.38 6h4.2c4.43 0 8.3-2.42 10.38-6h5.43c1.1 0 2-.9 2-2s-.9-2-2-2h-3.98c.11-.65.18-1.32.18-2v-2Zm-12 10h-4.2c-4.41 0-8-3.59-8-8V30c0-4.41 3.59-8 8-8h4.2c4.41 0 8 3.59 8 8v10c0 4.41-3.59 8-8 8Z"/><path fill="currentColor" d="M34.1 48c4.41 0 8-3.59 8-8V30c0-4.41-3.59-8-8-8H32v26h2.1Z" opacity=".4"/></symbol><symbol viewBox="0 0 64 64" id="module-documentation" xmlns="http://www.w3.org/2000/svg"><path fill="currentColor" d="M48 16c-.43 0-1.09-.27-1.86-.59C44.71 14.82 42.74 14 40 14c-3.87 0-6.25 1.92-8 3.41-1.75-1.48-4.13-3.41-8-3.41-2.74 0-4.7.81-6.14 1.41-.77.32-1.43.59-1.86.59-1.1 0-2 .9-2 2v24c0 1.1.9 2 2 2 1.23 0 2.32-.44 3.47-.91C20.8 42.55 22.17 42 24 42c3.17 0 4.68 1.51 6.59 3.41.03.03.06.05.09.08s.07.06.11.09c.14.11.28.2.44.26h.01c.24.1.5.15.76.15s.52-.05.76-.15h.01c.16-.07.3-.16.44-.26.04-.03.07-.06.11-.09.03-.03.07-.05.09-.08C35.32 43.5 36.82 42 40 42c1.83 0 3.2.56 4.53 1.09 1.15.47 2.24.91 3.47.91 1.1 0 2-.9 2-2V18c0-1.1-.9-2-2-2ZM18 39.37V19.64c.46-.15.92-.34 1.39-.54C20.7 18.56 22.05 18 24 18c2.52 0 4.01 1.26 5.58 2.6.14.12.28.24.42.35v18.72c-1.54-.97-3.45-1.68-6-1.68s-4.56.79-6 1.37Zm28 0c-1.44-.58-3.41-1.37-6-1.37s-4.46.71-6 1.68V20.96c.14-.12.28-.23.42-.35 1.57-1.34 3.06-2.6 5.58-2.6 1.95 0 3.3.56 4.61 1.1.47.19.93.38 1.39.54v19.73Z"/><path fill="currentColor" d="M50 22v20c0 1.1-.9 2-2 2-1.23 0-2.32-.44-3.47-.91C43.2 42.55 41.83 42 40 42c-3.17 0-4.68 1.51-6.59 3.41-.03.03-.06.05-.09.08s-.07.06-.11.09c-.14.11-.28.2-.44.26h-.01c-.24.1-.5.15-.76.15s-.52-.05-.76-.15h-.01c-.16-.07-.3-.16-.44-.26-.04-.03-.07-.06-.11-.09-.03-.03-.07-.05-.09-.08C28.68 43.5 27.18 42 24 42c-1.83 0-3.2.56-4.53 1.09-1.15.47-2.24.91-3.47.91-1.1 0-2-.9-2-2V22c-1.1 0-2 .9-2 2v22c0 1.1.9 2 2 2h14c0 2 2 4 4 4s4-2 4-4h14c1.1 0 2-.9 2-2V24c0-1.1-.9-2-2-2Z" opacity=".4"/><path fill="var(--icon-color-accent, #ff8700)" d="M42 26h-4c-1.1 0-2-.9-2-2s.9-2 2-2h4c1.1 0 2 .9 2 2s-.9 2-2 2Zm-16 0h-4c-1.1 0-2-.9-2-2s.9-2 2-2h4c1.1 0 2 .9 2 2s-.9 2-2 2Zm16 6h-4c-1.1 0-2-.9-2-2s.9-2 2-2h4c1.1 0 2 .9 2 2s-.9 2-2 2Zm-16 0h-4c-1.1 0-2-.9-2-2s.9-2 2-2h4c1.1 0 2 .9 2 2s-.9 2-2 2Z"/></symbol><symbol viewBox="0 0 64 64" id="module-extensionmanager" xmlns="http://www.w3.org/2000/svg"><path fill="currentColor" d="m50.81 20.17-18-8c-.52-.23-1.11-.23-1.62 0l-18 8s-.07.05-.11.07c-.06.03-.12.05-.17.08-.04.03-.08.07-.12.1-.06.04-.11.09-.17.14-.08.08-.15.16-.22.25-.04.06-.08.11-.12.17-.06.1-.11.21-.15.32-.02.06-.05.11-.06.17-.05.17-.08.35-.08.54v20c0 .79.47 1.51 1.19 1.83l18 8c.26.12.54.17.81.17.38 0 .76-.11 1.09-.32.57-.37.91-1 .91-1.68v-18.7l16.81-7.47c.72-.32 1.19-1.04 1.19-1.83s-.47-1.51-1.19-1.83ZM30 46.92 16 40.7V25.08l14 6.22v15.62Zm2-19.11L18.92 22 32 16.19 45.08 22 32 27.81Z"/><path fill="var(--icon-color-accent, #ff8700)" d="M32 52c-.38 0-.76-.11-1.09-.32-.57-.37-.91-1-.91-1.68V30c0-.79.47-1.51 1.19-1.83l18-8c.62-.28 1.33-.22 1.9.15s.91 1 .91 1.68v20c0 .79-.47 1.51-1.19 1.83l-18 8c-.26.12-.54.17-.81.17Zm2-20.7v15.62l14-6.22V25.08L34 31.3ZM50 42Z"/><path fill="currentColor" d="M18.92 22 32 27.81 45.08 22 32 16.19 18.92 22z" opacity=".4"/></symbol><symbol viewBox="0 0 64 64" id="module-filelist" xmlns="http://www.w3.org/2000/svg"><path fill="currentColor" d="M50 12H22c-1.1 0-2 .9-2 2v6h22c1.1 0 2 .9 2 2v22h6c1.1 0 2-.9 2-2V14c0-1.1-.9-2-2-2Z" opacity=".4"/><circle cx="32" cy="32" r="4" fill="currentColor"/><path fill="currentColor" d="M42 48c-.51 0-1.02-.2-1.41-.59l-4.84-4.84-4.64 3.09a2 2 0 0 1-2.31-.06L22 40.5l-6.8 5.1c-.89.67-2.14.48-2.8-.4-.66-.88-.48-2.14.4-2.8l8-6a2.01 2.01 0 0 1 2.4 0l6.87 5.15 4.82-3.21c.79-.53 1.85-.42 2.52.25l6 6A2.004 2.004 0 0 1 42 48.01Z"/><path fill="var(--icon-color-accent, #ff8700)" d="M40 24v24H16V24h24m2-4H14c-1.1 0-2 .9-2 2v28c0 1.1.9 2 2 2h28c1.1 0 2-.9 2-2V22c0-1.1-.9-2-2-2Z"/></symbol><symbol viewBox="0 0 64 64" id="module-form" xmlns="http://www.w3.org/2000/svg"><rect width="16" height="4" x="28" y="36" fill="var(--icon-color-accent, #ff8700)" rx="2" ry="2"/><path fill="var(--icon-color-accent, #ff8700)" d="M26 24h-4c-1.1 0-2-.9-2-2s.9-2 2-2h4v4Z"/><path fill="currentColor" d="M42 24H26v-4h16c1.1 0 2 .9 2 2s-.9 2-2 2Z" opacity=".4"/><path fill="var(--icon-color-accent, #ff8700)" d="M26 32h-4c-1.1 0-2-.9-2-2s.9-2 2-2h4v4Z"/><path fill="currentColor" d="M42 32H26v-4h16c1.1 0 2 .9 2 2s-.9 2-2 2Z" opacity=".4"/><path fill="currentColor" d="M48 16v28H16V16h32m2-4H14c-1.1 0-2 .9-2 2v32c0 1.1.9 2 2 2h36c1.1 0 2-.9 2-2V14c0-1.1-.9-2-2-2Z"/></symbol><symbol viewBox="0 0 64 64" id="module-func" xmlns="http://www.w3.org/2000/svg"><path fill="currentColor" d="M16 24h32v10H16z" opacity=".4"/><rect width="12" height="8" x="26" y="30" fill="var(--icon-color-accent, #ff8700)" rx="1.33" ry="1.33"/><path fill="currentColor" d="M50 20h-8v-4.2c0-2.09-1.76-3.8-3.92-3.8H25.92C23.76 12 22 13.71 22 15.8V20h-8c-1.1 0-2 .9-2 2v26c0 1.1.9 2 2 2h36c1.1 0 2-.9 2-2V22c0-1.1-.9-2-2-2Zm-24-4h12v4H26v-4Zm22 30H16V24h32v22Z"/></symbol><symbol viewBox="0 0 64 64" id="module-generic" xmlns="http://www.w3.org/2000/svg"><g fill="currentColor" opacity=".4"><path d="M38.26 12c-1.33 0-5.39 0-5.39 4.83 0 5.91 4.91 17.94 10.61 17.94 4.23 0 8.52-9.69 8.52-16.66C52 15.32 49.62 12 38.26 12ZM48 18.11v.09l-8.24 8.24c-.64-1.19-1.24-2.54-1.73-3.92l6.07-6.07c2.72.49 3.91 1.26 3.91 1.66Zm-11.06-1.98c.13-.04.48-.13 1.32-.13h.62l-1.95 1.95c-.04-.39-.06-.76-.06-1.13 0-.4.04-.61.07-.7Zm6.39 14.63c-.36-.07-.81-.41-1.3-.93l4.55-4.55c-1.06 2.83-2.45 5-3.26 5.48Z"/><path d="M40.25 36.89c-.1.05-.4.05-.68.05-.83 0-2.07-1.36-3.37-3.39-.03-.05-.06-.1-.09-.14-2.71-4.27-5.69-11.35-5.99-15.21v-.07c-.01-.18-.02-.36-.02-.53 0-1.22.15-1.37.45-1.66.62-.6.77-1.54.39-2.31a2.023 2.023 0 0 0-2.07-1.1c-4.44.62-12.67 2.6-15.56 6.04-.86.91-1.29 2.31-1.29 4.17 0 2.21.59 5.19 1.6 8.4.03.2.1.39.19.57a57.47 57.47 0 0 0 3.22 7.81c.06.15.13.3.23.44 1.28 2.49 2.73 4.83 4.27 6.78a2 2 0 0 0 .33.45c.04.04.08.06.12.1 2.37 2.84 4.94 4.71 7.44 4.71 4.33 0 9.88-6.18 13.46-12.3.45-.76.34-1.73-.26-2.37s-1.55-.82-2.35-.43Zm-18.9 2.3 8.64-8.63c.6 1.28 1.26 2.54 1.95 3.71l-8.45 8.45c-.73-1.07-1.45-2.26-2.14-3.52Zm-3.51-7.8 9.09-9.09c.36 1.32.83 2.77 1.39 4.27l-8.85 8.85c-.6-1.33-1.15-2.69-1.63-4.03Zm-1.65-10.05c.05-.05.1-.11.15-.16 1.18-1.46 5.17-3.08 9.76-4.08v.39l-9.54 9.54c-.35-1.55-.55-3.01-.55-4.28 0-.91.16-1.36.19-1.41ZM29.39 48c-.98 0-2.16-.79-3.42-2.12l8.28-8.28c1.08 1.3 2.22 2.31 3.38 2.86-3.41 4.93-6.82 7.53-8.24 7.53Z"/></g><path fill="currentColor" d="M43.48 34.77c-5.7 0-10.61-12.04-10.61-17.94 0-4.83 4.06-4.83 5.39-4.83C49.62 12 52 15.33 52 18.11c0 6.97-4.29 16.66-8.52 16.66Zm-6.54-18.64c-.03.09-.07.3-.07.7 0 5.41 4.46 13.53 6.46 13.93C44.74 29.9 48 23.84 48 18.12c0-.62-2.8-2.11-9.74-2.11-.84 0-1.19.08-1.32.13Z"/><path fill="currentColor" d="M29.39 52C21.1 52 12 31.46 12 22.74c0-1.86.43-3.26 1.29-4.17 2.89-3.45 11.12-5.42 15.56-6.04.86-.11 1.69.32 2.07 1.1.38.77.22 1.71-.39 2.31-.3.29-.45.44-.45 1.66 0 5.42 6.82 19.34 9.48 19.34.28 0 .58 0 .68-.05.79-.39 1.75-.21 2.35.43s.71 1.61.26 2.37c-3.58 6.12-9.14 12.3-13.46 12.3ZM26.1 17.09c-4.59 1-8.58 2.63-9.76 4.08-.05.06-.1.11-.15.16-.02.05-.19.5-.19 1.41C16 31.24 24.89 48 29.39 48c1.42 0 4.82-2.6 8.24-7.53-6.07-2.9-11.54-18.28-11.54-22.87 0-.18 0-.35.01-.51Z"/></symbol><symbol viewBox="0 0 64 64" id="module-help" xmlns="http://www.w3.org/2000/svg"><path fill="currentColor" d="M37.39 26.77c5.85 0 10.61 4.76 10.61 10.61s-4.76 10.61-10.61 10.61-10.61-4.76-10.61-10.61 4.76-10.61 10.61-10.61m0-4c-8.07 0-14.61 6.54-14.61 14.61s6.54 14.61 14.61 14.61S52 45.45 52 37.38s-6.54-14.61-14.61-14.61Z"/><path fill="var(--icon-color-accent, #ff8700)" d="M38.35 41.01c-.39-.29-.86-.44-1.39-.44s-1.01.15-1.4.44c-.44.32-.66.85-.66 1.57s.22 1.21.65 1.55c.39.31.87.46 1.41.46s1-.15 1.39-.46c.43-.34.65-.86.65-1.55s-.22-1.25-.66-1.57Zm2.42-9.8c-.79-.69-1.89-1.03-3.27-1.03-.87 0-1.68.11-2.42.33-.73.21-1.41.5-2.03.85l-.42.23.21.43 1.19 2.4.45-.23c.49-.25.98-.45 1.45-.6.45-.14.91-.22 1.36-.22.4 0 .7.07.9.21.11.08.22.19.22.47 0 .18-.03.34-.1.47-.08.15-.21.31-.38.48-.2.19-.48.41-.83.66-.44.32-.8.64-1.07.94-.29.33-.5.68-.64 1.05-.13.36-.2.78-.2 1.24v1.16h3.35v-1.03c0-.19.02-.34.07-.45.04-.1.13-.22.26-.35.17-.16.43-.37.77-.62.49-.36.91-.7 1.24-1.03.36-.35.64-.75.82-1.17.18-.43.28-.93.28-1.49 0-1.08-.41-1.99-1.21-2.69Z"/><path fill="currentColor" d="M22.77 37.39c0-2.28.54-4.44 1.47-6.36-.64-.24-1.23-.6-1.74-1.12-.97-.98-1.45-2.17-1.45-3.56s.49-2.57 1.45-3.56c.97-.98 2.16-1.47 3.57-1.47s2.57.49 3.56 1.47c.48.48.83 1.02 1.07 1.61 2-1.03 4.27-1.63 6.68-1.63.8 0 1.57.08 2.34.2.3-.44.37-1.01.08-1.5l-2.68-4.63c-.36-.63-1.13-.89-1.8-.6l-3.11 1.31c-.26-.19-.53-.37-.81-.54-.28-.17-.57-.31-.88-.43l-.42-3.34c-.09-.72-.7-1.26-1.43-1.26H23.3c-.72 0-1.34.54-1.43 1.26l-.42 3.34c-.29.12-.57.26-.86.43-.29.17-.56.35-.83.54l-3.11-1.31a1.44 1.44 0 0 0-1.8.6l-2.68 4.63c-.36.63-.2 1.43.38 1.87l2.69 2.04c-.02.17-.04.33-.04.48v.97c0 .16.01.32.04.48l-2.69 2.04c-.58.44-.74 1.24-.38 1.87l2.68 4.63c.36.63 1.13.89 1.8.6l3.11-1.31c.26.19.53.37.81.54.28.17.57.31.88.43l.42 3.34c.08.66.62 1.16 1.27 1.23-.25-1.06-.39-2.17-.39-3.3Z" opacity=".4"/></symbol><symbol viewBox="0 0 64 64" id="module-indexed_search" xmlns="http://www.w3.org/2000/svg"><path fill="currentColor" d="M20.85 49.75h-4.68c-2.3 0-4.17-1.79-4.17-3.99V15.99c0-2.2 1.87-3.99 4.17-3.99h31.67c2.3 0 4.17 1.79 4.17 3.99V26.1c0 1.1-.9 2-2 2s-2-.9-2-2V16.03s-.07-.02-.17-.02H16.17c-.13 0-.19.06-.19.06L16 45.74s.07.02.17.02h4.68c1.1 0 2 .9 2 2s-.9 2-2 2Z"/><path fill="currentColor" d="M30.33 32.91c.33-.5.87-.83 1.47-.9.6-.07 1.2.15 1.62.58l2.36 2.36 3.85-5.19a6.995 6.995 0 0 0-11.62 5.25c0 .44.05.86.12 1.28l2.2-3.37ZM37.61 39.19c-.35.47-.88.76-1.46.8a2.01 2.01 0 0 1-1.56-.58l-2.26-2.26-1.99 3.05A6.964 6.964 0 0 0 35 41.99c3.87 0 7-3.13 7-7 0-.52-.06-1.02-.17-1.51l-4.23 5.7Z" opacity=".4"/><path fill="var(--icon-color-accent, #ff8700)" d="m51.41 48.59-7.35-7.35A10.994 10.994 0 0 0 35 24.01c-6.08 0-11 4.92-11 11a10.994 10.994 0 0 0 17.23 9.06l7.35 7.35c.39.39.9.59 1.41.59s1.02-.2 1.41-.59c.78-.78.78-2.05 0-2.83ZM35 42c-3.86 0-7-3.14-7-7s3.14-7 7-7 7 3.14 7 7-3.14 7-7 7Z"/></symbol><symbol viewBox="0 0 64 64" id="module-info" xmlns="http://www.w3.org/2000/svg"><path fill="var(--icon-color-accent, #ff8700)" d="M35.65 32.6c.38.25.83.38 1.35.38s.96-.13 1.34-.38c.44-.29.66-.79.66-1.47s-.22-1.19-.67-1.48c-.76-.49-1.94-.48-2.68 0-.44.28-.66.78-.66 1.48s.22 1.18.65 1.47Zm-.53 1.31h3.75v10.8h-3.75z"/><path fill="currentColor" d="M37 26c6.07 0 11 4.93 11 11s-4.93 11-11 11-11-4.93-11-11 4.93-11 11-11m0-4c-8.28 0-15 6.72-15 15s6.72 15 15 15 15-6.72 15-15-6.72-15-15-15Z"/><rect width="8" height="24.23" x="12" y="28" fill="currentColor" rx="2" ry="2" opacity=".4"/><path fill="currentColor" d="M37 22c2.53 0 4.91.63 7 1.74V14c0-1.1-.9-2-2-2h-4c-1.1 0-2 .9-2 2v8.05c.33-.02.66-.05 1-.05ZM32 22.87V18c0-1.1-.9-2-2-2h-4c-1.1 0-2 .9-2 2v11.54c1.77-3.08 4.6-5.46 8-6.67Z" opacity=".4"/></symbol><symbol viewBox="0 0 64 64" id="module-install" xmlns="http://www.w3.org/2000/svg"><path fill="var(--icon-color-accent, #ff8700)" d="M36 44c-.53 0-1.04-.21-1.41-.59l-4-4c-.78-.78-.78-2.05 0-2.83s2.05-.78 2.83 0l2.37 2.37 4.62-6.16c.66-.88 1.92-1.06 2.8-.4.88.66 1.06 1.92.4 2.8l-6 8c-.35.46-.88.75-1.46.79h-.14Z"/><path fill="currentColor" d="M37.39 26.77c5.85 0 10.61 4.76 10.61 10.61s-4.76 10.61-10.61 10.61-10.61-4.76-10.61-10.61 4.76-10.61 10.61-10.61m0-4c-8.07 0-14.61 6.54-14.61 14.61s6.54 14.61 14.61 14.61S52 45.45 52 37.38s-6.54-14.61-14.61-14.61Z"/><path fill="currentColor" d="M22.77 37.39c0-2.28.54-4.44 1.47-6.36-.64-.24-1.23-.6-1.74-1.12-.97-.98-1.45-2.17-1.45-3.56s.49-2.57 1.45-3.56c.97-.98 2.16-1.47 3.57-1.47s2.57.49 3.56 1.47c.48.48.83 1.02 1.07 1.61 2-1.03 4.27-1.63 6.68-1.63.8 0 1.57.08 2.34.2.3-.44.37-1.01.08-1.5l-2.68-4.63c-.36-.63-1.13-.89-1.8-.6l-3.11 1.31c-.26-.19-.53-.37-.81-.54-.28-.17-.57-.31-.88-.43l-.42-3.34c-.09-.72-.7-1.26-1.43-1.26H23.3c-.72 0-1.34.54-1.43 1.26l-.42 3.34c-.29.12-.57.26-.86.43-.29.17-.56.35-.83.54l-3.11-1.31a1.44 1.44 0 0 0-1.8.6l-2.68 4.63c-.36.63-.2 1.43.38 1.87l2.69 2.04c-.02.17-.04.33-.04.48v.97c0 .16.01.32.04.48l-2.69 2.04c-.58.44-.74 1.24-.38 1.87l2.68 4.63c.36.63 1.13.89 1.8.6l3.11-1.31c.26.19.53.37.81.54.28.17.57.31.88.43l.42 3.34c.08.66.62 1.16 1.27 1.23-.25-1.06-.39-2.17-.39-3.3Z" opacity=".4"/></symbol><symbol viewBox="0 0 64 64" id="module-install-environment" xmlns="http://www.w3.org/2000/svg"><path fill="var(--icon-color-accent, #ff8700)" d="M42 28h-2v-4h2c1.1 0 2 .9 2 2s-.9 2-2 2Z"/><path fill="currentColor" d="M22 28h18v-4H22c-1.1 0-2 .9-2 2s.9 2 2 2Z" opacity=".4"/><path fill="var(--icon-color-accent, #ff8700)" d="M48 16v16H16V16h32m2-4H14c-1.1 0-2 .9-2 2v20c0 1.1.9 2 2 2h36c1.1 0 2-.9 2-2V14c0-1.1-.9-2-2-2Z"/><path fill="currentColor" d="M50 46H38c0-1.1-.9-2-2-2h-2v-8h-4v8h-2c-1.1 0-2 .9-2 2H14c-1.1 0-2 .9-2 2s.9 2 2 2h12c0 1.1.9 2 2 2h8c1.1 0 2-.9 2-2h12c1.1 0 2-.9 2-2s-.9-2-2-2Z"/></symbol><symbol viewBox="0 0 64 64" id="module-install-maintenance" xmlns="http://www.w3.org/2000/svg"><path d="m30.44 35.66 1.6-1.6-2.08-2.08-1.6 1.6c-.68.68-1.93.53-2.79-.33-.86-.86-2.11-1.01-2.79-.33l-1.23 1.23.22 1.86-.82.82s-1.24-.15-1.86-.22c-2.18 2.18-4.36 4.37-6.54 6.55-.9.9-.7 2.57.44 3.72l4.16 4.16c2.28 1.9 3.72.45 3.72.45s2.18-2.18 6.54-6.55c-.07-.62-.15-1.24-.22-1.86l.82-.82 1.86.22 1.23-1.23c.68-.68.53-1.93-.33-2.79s-1.01-2.11-.33-2.79Zm20.64-22.73c-.91-.91-2.19-1.19-3.07-.66l-3.94 2.34c-1.16.69-.16 3.42-.16 3.42l-11.9 11.89L34.09 32l11.9-11.89s2.72 1 3.41-.16l2.34-3.94c.52-.88.24-2.16-.66-3.07Z" fill="currentColor" opacity=".4"/><path fill="var(--icon-color-accent, #ff8700)" d="M40.2 36.2 27.8 23.8c-.52-.52-.69-1.28-.5-1.99.74-2.66.08-5.63-2.01-7.72-1.95-1.95-4.65-2.65-7.16-2.15-.78.16-1.06 1.13-.5 1.69l2.95 2.95c.39.39.39 1.02 0 1.41l-2.59 2.59a.996.996 0 0 1-1.41 0l-2.95-2.95c-.56-.56-1.54-.28-1.69.5-.51 2.51.2 5.21 2.15 7.16a7.876 7.876 0 0 0 7.72 2.01c.71-.2 1.47-.02 1.99.5l12.4 12.4c.52.52.69 1.28.5 1.99-.74 2.66-.08 5.63 2.01 7.72 1.95 1.95 4.65 2.65 7.16 2.15.78-.16 1.06-1.13.5-1.69l-2.95-2.95a.996.996 0 0 1 0-1.41l2.59-2.59a.996.996 0 0 1 1.41 0l2.95 2.95c.56.56 1.54.28 1.69-.5.51-2.51-.2-5.21-2.15-7.16a7.876 7.876 0 0 0-7.72-2.01c-.71.2-1.47.02-1.99-.5Z"/></symbol><symbol viewBox="0 0 64 64" id="module-install-settings" xmlns="http://www.w3.org/2000/svg"><path fill="currentColor" d="m23.86 38.67 2.73-2.07c-.02-.17-.04-.34-.04-.49v-.99c0-.16.01-.32.04-.49l-2.73-2.07c-.59-.45-.75-1.26-.38-1.9l.46-.79c-.61-.23-1.17-.58-1.67-1.08-.91-.91-1.36-2-1.37-3.28 0-1.28.45-2.38 1.37-3.3.91-.91 2-1.36 3.28-1.36s2.38.45 3.28 1.36 1.36 2.01 1.36 3.29c0 .25-.03.48-.07.72l1.05.44c.27-.19.55-.38.84-.55.29-.17.58-.32.87-.44l.42-3.4c.09-.73.71-1.28 1.45-1.28h3.24l-.34-1.27c-.17-.65-.8-1.07-1.46-.97l-3.08.43c-.08-.14-.17-.26-.27-.36l-.63-.63c-.1-.1-.21-.2-.34-.29l.43-3.09c.09-.66-.33-1.29-.97-1.47l-4.77-1.28c-.64-.17-1.32.16-1.57.78l-1.18 2.89c-.3.05-.59.11-.88.18-.29.07-.57.17-.86.29l-2.45-1.91c-.53-.41-1.28-.36-1.75.11l-3.5 3.51a1.34 1.34 0 0 0-.11 1.76l1.91 2.46c-.11.27-.2.55-.28.85-.08.3-.14.6-.19.89l-2.88 1.18c-.62.25-.95.93-.78 1.57l1.27 4.79c.17.65.8 1.07 1.46.97l3.08-.43c.09.13.19.24.29.34l.63.63c.1.1.21.2.34.29l-.43 3.09c-.09.66.33 1.29.97 1.47l4.03 1.08c.05-.06.09-.12.15-.17Z" opacity=".4"/><path fill="var(--icon-color-accent, #ff8700)" d="M39.49 50h-4.98c-1.68 0-3.1-1.24-3.31-2.89l-.24-1.88-1.86.76c-1.53.63-3.31.03-4.15-1.38l-2.49-4.19c-.86-1.45-.49-3.31.88-4.32l1.5-1.11-1.5-1.11a3.266 3.266 0 0 1-.88-4.32l2.49-4.19c.84-1.41 2.62-2 4.15-1.38l1.86.76.24-1.88c.21-1.64 1.63-2.88 3.31-2.88h4.98c1.68 0 3.1 1.24 3.31 2.89l.24 1.88L44.9 24c1.53-.62 3.31-.03 4.15 1.38l2.49 4.19c.86 1.45.49 3.31-.88 4.32l-1.52 1.12 1.49 1.1a3.264 3.264 0 0 1 .88 4.32l-2.49 4.19c-.84 1.42-2.63 2-4.16 1.37l-1.82-.75-.24 1.88c-.21 1.64-1.63 2.88-3.31 2.88Zm-4.4-4h3.82l.46-3.58 1.08-.44c.19-.08.38-.17.56-.28.21-.12.41-.25.6-.38l.9-.64 3.36 1.39 1.86-3.13-3.11-2.29.38-1.3v-.8s0-.1-.01-.15l-.18-1.19 2.95-2.17-1.86-3.14-3.39 1.39-.9-.64c-.2-.14-.41-.28-.62-.4a3.31 3.31 0 0 0-.5-.24l-1.13-.42-.46-3.61h-3.82l-.46 3.58-1.08.44c-.19.08-.38.17-.56.28-.21.12-.41.25-.6.38l-.9.63-3.39-1.39-1.86 3.14 2.95 2.17L29 34.4c0 .05-.01.1-.01.15v.88s0 .1.01.15l.18 1.19-2.95 2.17 1.86 3.14 3.39-1.39.9.63c.2.14.41.28.62.4.15.09.32.17.5.24l1.13.42.46 3.61Zm9.93-10.69Zm-7.95 6.24c-1.85 0-3.44-.64-4.72-1.91-1.27-1.26-1.95-2.86-1.95-4.64s.67-3.38 1.95-4.64c1.29-1.27 2.88-1.91 4.72-1.91s3.4.64 4.7 1.9c1.29 1.26 1.97 2.87 1.97 4.65s-.68 3.39-1.97 4.65c-1.29 1.26-2.87 1.9-4.7 1.9Zm0-9.1c-.78 0-1.39.24-1.92.76-.52.51-.75 1.07-.75 1.79s.23 1.28.76 1.79 1.13.76 1.91.76 1.37-.24 1.91-.76c.53-.51.76-1.07.76-1.79s-.24-1.27-.76-1.79c-.54-.52-1.14-.76-1.91-.76Z"/></symbol><symbol viewBox="0 0 64 64" id="module-install-upgrade" xmlns="http://www.w3.org/2000/svg"><rect width="40.18" height="6" x="11.82" y="46" fill="currentColor" rx="2" ry="2" opacity=".4"/><path fill="var(--icon-color-accent, #ff8700)" d="M38 42H26c-1.1 0-2-.9-2-2v-8h-4c-1.83 0-3.91 0-4.64-1.77-.71-1.71.75-3.17 1.23-3.65l13.9-14c.37-.38.88-.59 1.41-.59.53 0 1.04.21 1.41.58l14.09 14c.48.48 1.94 1.94 1.23 3.65-.73 1.77-2.81 1.77-4.64 1.77h-4v8c0 1.1-.9 2-2 2Zm-10-4h8v-8c0-1.1.9-2 2-2h5.16L31.92 16.83 20.82 28H26c1.1 0 2 .9 2 2v8Z"/></symbol><symbol viewBox="0 0 64 64" id="module-integrations" xmlns="http://www.w3.org/2000/svg"><path fill="currentColor" d="M34.01 44.56V25.07s-.01-.09-.01-.14V16c0-1.1-.9-2-2-2s-2 .9-2 2v10c0 3.9-.91 7.05-2.5 8.65-.91.91-2.05 1.35-3.49 1.35h-2.55c-.69-1.19-1.97-2-3.45-2-2.21 0-4 1.79-4 4s1.79 4 4 4c1.48 0 2.75-.81 3.45-2h2.55c2.37 0 4.38-.76 6.01-2.24v6.79c-1.19.69-2.01 1.97-2.01 3.45 0 2.21 1.79 4 4 4s4-1.79 4-4c0-1.47-.81-2.75-1.99-3.44Z" opacity=".4"/><path fill="var(--icon-color-accent, #ff8700)" d="M42 36h-2c-1.44 0-2.58-.44-3.49-1.35-1.6-1.6-2.51-4.75-2.5-8.65v-7.17l6.58 6.58a2.008 2.008 0 0 0 2.83.01c.78-.78.78-2.05 0-2.83l-9.99-10c-.38-.38-.88-.59-1.41-.59-.53 0-1.04.21-1.41.58l-10.01 10c-.78.78-.78 2.05 0 2.83.78.78 2.05.78 2.83 0l6.59-6.59v7.17c0 3.55.63 8.43 3.67 11.48 1.67 1.67 3.8 2.52 6.32 2.52h2c1.1 0 2-.9 2-2s-.9-2-2-2Z"/><path fill="currentColor" d="M46 36c1.1 0 2 .9 2 2s-.9 2-2 2-2-.9-2-2 .9-2 2-2m0-4c-3.31 0-6 2.69-6 6s2.69 6 6 6 6-2.69 6-6-2.69-6-6-6Z"/></symbol><symbol viewBox="0 0 64 64" id="module-lang" xmlns="http://www.w3.org/2000/svg"><path fill="var(--icon-color-accent, #ff8700)" d="M34 40c-.34 0-.69-.09-1-.27l-9.54-5.49h-7.47c-2.17 0-4.01-1.94-4.01-4.24V16c0-2.21 1.8-4 4.01-4h22c2.21 0 4 1.79 4 4v14c0 2.21-1.79 4-4 4h-2v4a2.003 2.003 0 0 1-2 2Zm-17.9-9.76H24c.35 0 .69.09 1 .27l7 4.03V32c0-1.1.9-2 2-2h4.02L38 16H16v14c0 .07.05.18.1.24Z"/><path fill="currentColor" d="M32 22H22c-1.1 0-2-.9-2-2s.9-2 2-2h10c1.1 0 2 .9 2 2s-.9 2-2 2Zm0 6H22c-1.1 0-2-.9-2-2s.9-2 2-2h10c1.1 0 2 .9 2 2s-.9 2-2 2Z"/><path fill="currentColor" d="M42 24.58V30c0 1.17-.51 2.21-1.32 2.95v3.23H36V38a2.003 2.003 0 0 1-2 2c-.34 0-.69-.09-1-.27L31.73 39v2.83a.89.89 0 0 0 .56.83l3.91 1.56.74 4.42c-2.65-.26-5.11-1.5-6.9-3.48a10.775 10.775 0 0 1-2.79-7.21c0-.5.04-.99.11-1.47l-2.98-1.72c-.25 1.03-.39 2.09-.39 3.19 0 7.72 6.28 14 14 14s14-6.28 14-14c0-6.33-4.23-11.66-10-13.39Zm1.37 22.67v-3.02l1.57-2.36c.07-.1.12-.22.14-.34.02-.12.02-.25-.01-.37l-.8-3.2v-2.68h4.12c.6 2.27.43 4.67-.47 6.84a10.65 10.65 0 0 1-4.54 5.13Z" opacity=".4"/></symbol><symbol viewBox="0 0 64 64" id="module-linkvalidator" xmlns="http://www.w3.org/2000/svg"><path fill="currentColor" d="M37.85 33.68a2.004 2.004 0 0 1-1.41-3.42l4.32-4.32c1.94-1.94 1.57-5.48-.82-7.88-2.4-2.4-5.93-2.77-7.88-.82l-4.32 4.32c-.78.78-2.05.78-2.83 0s-.78-2.05 0-2.83l4.32-4.32c3.5-3.5 9.58-3.13 13.53.82 3.96 3.96 4.33 10.03.82 13.53l-4.32 4.32c-.39.39-.9.59-1.41.59ZM22.73 46c-2.7 0-5.41-1.15-7.5-3.24-3.96-3.96-4.33-10.03-.82-13.53l4.32-4.32c.78-.78 2.05-.78 2.83 0s.78 2.05 0 2.83l-4.32 4.32c-1.94 1.94-1.57 5.48.82 7.88 1.56 1.56 3.7 2.32 5.59 1.99 1.09-.19 2.12.53 2.32 1.62a2 2 0 0 1-1.62 2.32c-.54.09-1.08.14-1.62.14Z"/><path fill="currentColor" d="M22.75 37.25a2.004 2.004 0 0 1-1.41-3.42l12.5-12.5c.78-.78 2.05-.78 2.83 0s.78 2.05 0 2.83l-12.5 12.5c-.39.39-.9.59-1.41.59Z" opacity=".4"/><path fill="var(--icon-color-accent, #ff8700)" d="M38 52c-.53 0-1.04-.21-1.41-.59l-6-6c-.78-.78-.78-2.05 0-2.83s2.05-.78 2.83 0l4.47 4.47 10.59-12.36c.72-.84 1.98-.93 2.82-.22.84.72.94 1.98.22 2.82l-12 14c-.36.42-.88.68-1.44.7H38Z"/></symbol><symbol viewBox="0 0 64 64" id="module-list" xmlns="http://www.w3.org/2000/svg"><path fill="currentColor" d="M48 16v28H16V16h32m2-4H14c-1.1 0-2 .9-2 2v32c0 1.1.9 2 2 2h36c1.1 0 2-.9 2-2V14c0-1.1-.9-2-2-2Z"/><path fill="var(--icon-color-accent, #ff8700)" d="M22 20h2v4h-2c-1.1 0-2-.9-2-2s.9-2 2-2Z"/><path fill="currentColor" d="M42 24H24v-4h18c1.1 0 2 .9 2 2s-.9 2-2 2Z" opacity=".4"/><path fill="var(--icon-color-accent, #ff8700)" d="M22 28h2v4h-2c-1.1 0-2-.9-2-2s.9-2 2-2Z"/><path fill="currentColor" d="M42 32H24v-4h18c1.1 0 2 .9 2 2s-.9 2-2 2Z" opacity=".4"/><path fill="var(--icon-color-accent, #ff8700)" d="M22 36h2v4h-2c-1.1 0-2-.9-2-2s.9-2 2-2Z"/><path fill="currentColor" d="M42 40H24v-4h18c1.1 0 2 .9 2 2s-.9 2-2 2Z" opacity=".4"/></symbol><symbol viewBox="0 0 64 64" id="module-page" xmlns="http://www.w3.org/2000/svg"><path fill="var(--icon-color-accent, #ff8700)" d="M34.34 16 44 25.66V48H20V16h14.34M36 12H18c-1.1 0-2 .9-2 2v36c0 1.1.9 2 2 2h28c1.1 0 2-.9 2-2V24L36 12Z"/><path fill="currentColor" d="M38 36H26c-1.1 0-2-.9-2-2s.9-2 2-2h12c1.1 0 2 .9 2 2s-.9 2-2 2Zm0 8H26c-1.1 0-2-.9-2-2s.9-2 2-2h12c1.1 0 2 .9 2 2s-.9 2-2 2Z"/><path fill="currentColor" d="M34 16v7.67c0 1.12 1.19 2.33 2.33 2.33H44v-.34L34.34 16H34Z" opacity=".4"/></symbol><symbol viewBox="0 0 64 64" id="module-permission" xmlns="http://www.w3.org/2000/svg"><path fill="var(--icon-color-accent, #ff8700)" d="M50.67 30H34.01v-6c0-3.25 2.75-6 6-6s6 2.75 6 6c0 1.1.9 2 2 2s2-.9 2-2c0-5.42-4.58-10-10-10s-10 4.58-10 10v6h-2.82c-.74 0-1.33.6-1.33 1.33v19.33c0 .74.6 1.33 1.33 1.33h23.49c.74 0 1.33-.6 1.33-1.33V31.33c0-.74-.6-1.33-1.33-1.33ZM48 48H29.85V34H48v14Z"/><path fill="currentColor" d="M41.49 39.84c0-1.42-1.15-2.56-2.56-2.56s-2.56 1.15-2.56 2.56c0 .83.42 1.53 1.03 2v2.49c0 .35.29.64.64.64h1.8c.35 0 .64-.29.64-.64v-2.49c.61-.47 1.03-1.17 1.03-2Z"/><path fill="currentColor" d="M25.85 32.03c-.97-.23-1.92-.65-2.59-1.32-1.04-1.02-1.56-2.26-1.56-3.71s.52-2.69 1.56-3.71 2.31-1.54 3.82-1.54c1.14 0 2.15.31 3.03.91.29-2.07 1.24-3.95 2.63-5.43-.28-.16-.58-.31-.89-.43l-.45-3.54c-.09-.72-.72-1.26-1.46-1.26h-5.86c-.74 0-1.37.54-1.46 1.26l-.45 3.54c-.31.13-.62.28-.92.45-.31.18-.6.36-.88.56l-3.38-1.39a1.49 1.49 0 0 0-1.84.6l-2.93 4.93c-.37.63-.21 1.43.39 1.86l2.92 2.16a3 3 0 0 0-.04.51v1.01c0 .16.01.33.04.51l-2.92 2.16c-.59.44-.76 1.24-.39 1.86l2.93 4.93c.37.63 1.16.88 1.84.6l3.38-1.39c.28.2.57.39.86.56s.61.32.94.45l.45 3.54c.09.72.72 1.26 1.46 1.26h1.78V32ZM38.53 27.51V26.5c0-.16-.01-.33-.04-.51l2.92-2.16c.59-.44.76-1.24.39-1.86l-2.34-3.94C36.45 18.31 34 20.93 34 24v6h7.14l-2.69-1.99c.05-.18.08-.34.08-.51Z" opacity=".4"/></symbol><symbol viewBox="0 0 64 64" id="module-qrcode" xmlns="http://www.w3.org/2000/svg"><path fill="currentColor" d="M20 44v4h-4v-4h4m2-4h-8c-1.1 0-2 .9-2 2v8c0 1.1.9 2 2 2h8c1.1 0 2-.9 2-2v-8c0-1.1-.9-2-2-2Zm26-24v4h-4v-4h4m2-4h-8c-1.1 0-2 .9-2 2v8c0 1.1.9 2 2 2h8c1.1 0 2-.9 2-2v-8c0-1.1-.9-2-2-2Z"/><path fill="var(--icon-color-accent, #ff8700)" d="M20 16v4h-4v-4h4m2-4h-8c-1.1 0-2 .9-2 2v8c0 1.1.9 2 2 2h8c1.1 0 2-.9 2-2v-8c0-1.1-.9-2-2-2Z"/><path fill="currentColor" d="M14 38c-1.1 0-2-.9-2-2v-8c0-1.1.9-2 2-2h2c1.1 0 2 .9 2 2s-.9 2-2 2v6c0 1.1-.9 2-2 2ZM22 38c-1.1 0-2-.9-2-2v-8c0-1.1.9-2 2-2s2 .9 2 2v8c0 1.1-.9 2-2 2ZM28 30c-1.1 0-2-.9-2-2v-8c0-1.1.9-2 2-2h8c1.1 0 2 .9 2 2v2c0 1.1-.9 2-2 2s-2-.9-2-2h-4v6c0 1.1-.9 2-2 2ZM36 16h-8c-1.1 0-2-.9-2-2s.9-2 2-2h8c1.1 0 2 .9 2 2s-.9 2-2 2Z" opacity=".4"/><path fill="currentColor" d="M50 30H34c-1.1 0-2-.9-2-2s.9-2 2-2h16c1.1 0 2 .9 2 2s-.9 2-2 2ZM28 46c-1.1 0-2-.9-2-2V34c0-1.1.9-2 2-2h6c1.1 0 2 .9 2 2s-.9 2-2 2h-4v8c0 1.1-.9 2-2 2ZM50 42h-6c-1.1 0-2-.9-2-2v-4h-2c-1.1 0-2-.9-2-2s.9-2 2-2h4c1.1 0 2 .9 2 2v4h4c1.1 0 2 .9 2 2s-.9 2-2 2ZM34 52h-6c-1.1 0-2-.9-2-2s.9-2 2-2h4v-2c0-1.1.9-2 2-2s2 .9 2 2v4c0 1.1-.9 2-2 2Z" opacity=".4"/><path fill="currentColor" d="M50 32c-1.1 0-2 .9-2 2s.9 2 2 2 2-.9 2-2-.9-2-2-2ZM38 42h-4c-1.1 0-2-.9-2-2s.9-2 2-2h4c1.1 0 2 .9 2 2s-.9 2-2 2ZM50 52c-1.1 0-2-.9-2-2v-4c0-1.1.9-2 2-2s2 .9 2 2v4c0 1.1-.9 2-2 2ZM44 48v-2c0-1.1-.9-2-2-2s-2 .9-2 2v2c-1.1 0-2 .9-2 2s.9 2 2 2h4c1.1 0 2-.9 2-2s-.9-2-2-2Z" opacity=".4"/></symbol><symbol viewBox="0 0 64 64" id="module-reactions" xmlns="http://www.w3.org/2000/svg"><circle cx="27" cy="37" r="3" fill="var(--icon-color-accent, #ff8700)"/><circle cx="37" cy="37" r="3" fill="var(--icon-color-accent, #ff8700)"/><path fill="var(--icon-color-accent, #ff8700)" d="M32 24c-3.31 0-6-2.69-6-6s2.69-6 6-6 6 2.69 6 6-2.69 6-6 6Zm0-8c-1.1 0-2 .9-2 2s.9 2 2 2 2-.9 2-2-.9-2-2-2Z"/><path fill="currentColor" d="M38 46H26c-1.1 0-2-.9-2-2s.9-2 2-2h12c1.1 0 2 .9 2 2s-.9 2-2 2Z"/><path fill="currentColor" d="M50 32h-2v14h2c1.1 0 2-.9 2-2V34c0-1.1-.9-2-2-2ZM14 46h2V32h-2c-1.1 0-2 .9-2 2v10c0 1.1.9 2 2 2Z" opacity=".4"/><path fill="currentColor" d="M44 26H34v-2.35c-.63.22-1.3.35-2 .35s-1.37-.13-2-.35V26H20c-2.21 0-4 1.79-4 4v18c0 2.21 1.79 4 4 4h24c2.21 0 4-1.79 4-4V30c0-2.21-1.79-4-4-4ZM20 48V30h24v18H20Z"/></symbol><symbol viewBox="0 0 64 64" id="module-recycler" xmlns="http://www.w3.org/2000/svg"><path fill="currentColor" d="M28 44c-1.1 0-2-.9-2-2V30c0-1.1.9-2 2-2s2 .9 2 2v12c0 1.1-.9 2-2 2ZM36 44c-1.1 0-2-.9-2-2V30c0-1.1.9-2 2-2s2 .9 2 2v12c0 1.1-.9 2-2 2Z" opacity=".4"/><path fill="var(--icon-color-accent, #ff8700)" d="M50 20H40v-6c0-1.1-.9-2-2-2H26c-1.1 0-2 .9-2 2v6H14c-1.1 0-2 .9-2 2s.9 2 2 2h36c1.1 0 2-.9 2-2s-.9-2-2-2Zm-22 0v-4h8v4h-8Z"/><path fill="currentColor" d="M44 47.97s-.08.03-.15.03H20.16c-.07 0-.12-.02-.15-.03V24h-4v24.07c0 2.17 1.86 3.93 4.15 3.93h23.69c2.29 0 4.15-1.76 4.15-3.93V24h-4v23.97Z"/></symbol><symbol viewBox="0 0 64 64" id="module-redirects" xmlns="http://www.w3.org/2000/svg"><circle cx="18" cy="46" r="6" fill="var(--icon-color-accent, #ff8700)"/><path fill="currentColor" d="m49.41 16.59-6-6c-.78-.78-2.05-.78-2.83 0l-6 6c-.78.78-.78 2.05 0 2.83s2.05.78 2.83 0L40 16.83V40c0 2.88-1.12 4-4 4s-4-1.12-4-4V24c0-5.08-2.92-8-8-8s-8 2.92-8 8v16.35c.63-.22 1.3-.35 2-.35s1.37.13 2 .35V24c0-2.88 1.12-4 4-4s4 1.12 4 4v16c0 5.08 2.92 8 8 8s8-2.92 8-8V16.83l2.59 2.59c.39.39.9.59 1.41.59s1.02-.2 1.41-.59c.78-.78.78-2.05 0-2.83Z"/></symbol><symbol viewBox="0 0 64 64" id="module-reports" xmlns="http://www.w3.org/2000/svg"><path fill="currentColor" d="M24 48h-8c-2.21 0-4-1.79-4-4V16c0-2.21 1.79-4 4-4h32c2.21 0 4 1.79 4 4v12c0 1.1-.9 2-2 2s-2-.9-2-2V16H16v28h8c1.1 0 2 .9 2 2s-.9 2-2 2Z"/><path fill="var(--icon-color-accent, #ff8700)" d="M38 52c-.53 0-1.04-.21-1.41-.59l-6-6c-.78-.78-.78-2.05 0-2.83s2.05-.78 2.83 0l4.47 4.47 10.59-12.36c.72-.84 1.98-.93 2.82-.22.84.72.94 1.98.22 2.82l-12 14c-.36.42-.88.68-1.44.7H38Z"/><rect width="24" height="4" x="20" y="22" fill="currentColor" rx="2" ry="2" opacity=".4"/><rect width="24" height="4" x="20" y="30" fill="currentColor" rx="2" ry="2" opacity=".4"/></symbol><symbol viewBox="0 0 64 64" id="module-rte-ckeditor" xmlns="http://www.w3.org/2000/svg"><circle cx="46" cy="22" r="6" fill="currentColor"/><path fill="var(--icon-color-accent, #ff8700)" d="M30 52.45c-.38 0-.76-.11-1.09-.33L12.9 41.67c-.57-.37-.91-1-.91-1.67V24c0-.68.35-1.32.93-1.69l16.01-10.17c.64-.41 1.46-.42 2.11-.02L37.46 16c.95.57 1.25 1.8.68 2.75s-1.8 1.25-2.75.68l-5.36-3.24L16 25.11v13.82l14.01 9.15 14-9.14v-6.92c0-1.1.9-2 2-2s2 .9 2 2v8c0 .68-.34 1.3-.91 1.67l-16 10.45c-.33.22-.71.33-1.09.33Z"/><path fill="currentColor" d="M36 30H24c-1.1 0-2-.9-2-2s.9-2 2-2h12c1.1 0 2 .9 2 2s-.9 2-2 2ZM32 37.93h-8c-1.1 0-2-.9-2-2s.9-2 2-2h8c1.1 0 2 .9 2 2s-.9 2-2 2Z" opacity=".4"/></symbol><symbol viewBox="0 0 64 64" id="module-scheduler" xmlns="http://www.w3.org/2000/svg"><path fill="currentColor" d="M24.99 50.56c-.26 0-.52-.05-.78-.16-1.43-.6-2.78-1.38-4.03-2.29a1.997 1.997 0 0 1 2.36-3.22c1 .73 2.09 1.35 3.23 1.83 1.02.43 1.49 1.6 1.06 2.62-.32.76-1.06 1.22-1.84 1.22Zm-9.01-8.37c-.73 0-1.43-.4-1.78-1.09a19.8 19.8 0 0 1-1.62-4.35c-.26-1.07.39-2.16 1.47-2.42s2.16.39 2.42 1.47c.29 1.21.73 2.38 1.29 3.47.5.98.12 2.19-.87 2.69-.29.15-.6.22-.91.22Zm-1.53-12.2a1.997 1.997 0 0 1-1.95-2.45c.35-1.51.87-2.98 1.55-4.37a2.002 2.002 0 0 1 3.59 1.77c-.55 1.11-.97 2.29-1.24 3.5-.21.93-1.04 1.55-1.95 1.55Zm6.67-10.34c-.6 0-1.2-.27-1.59-.79-.67-.88-.5-2.13.38-2.8 1.24-.94 2.58-1.73 4-2.36a2.01 2.01 0 0 1 2.64 1.02 2 2 0 0 1-1.02 2.64c-1.13.5-2.2 1.13-3.19 1.88-.36.27-.79.41-1.21.41Z" opacity=".4"/><path fill="currentColor" d="M32 52c-1.1 0-2-.9-2-2s.9-2 2-2c8.82 0 16-7.18 16-16s-7.18-16-16-16c-1.1 0-2-.9-2-2s.9-2 2-2c11.03 0 20 8.97 20 20s-8.97 20-20 20Z"/><path fill="var(--icon-color-accent, #ff8700)" d="m39.43 36.6-5.34-5.42V22c0-1.1-.9-2-2-2s-2 .9-2 2v10s0 .07.01.1c0 .09.01.19.03.28.01.06.03.11.05.17l.06.21.09.18c.03.06.06.11.09.17.05.08.11.15.17.22.02.03.04.06.07.08h.01v.01l5.9 5.99c.39.4.91.6 1.42.6s1.01-.19 1.4-.58c.79-.78.8-2.04.02-2.83Z"/></symbol><symbol viewBox="0 0 64 64" id="module-security" xmlns="http://www.w3.org/2000/svg"><path fill="var(--icon-color-accent, #ff8700)" d="M44 16v16.9c0 2.38-1 4.63-2.76 6.19L32 47.31l-9.24-8.22A8.302 8.302 0 0 1 20 32.9V16h24m2-4H18c-1.1 0-2 .91-2 2.03v18.86c0 3.52 1.49 6.87 4.1 9.18l10.59 9.42c.38.34.85.5 1.32.5s.94-.17 1.32-.5l10.59-9.42c2.6-2.32 4.1-5.66 4.1-9.18V14.03c0-1.12-.9-2.03-2-2.03Z"/><path fill="currentColor" d="M44 32.9V16H32v31.31l9.24-8.22A8.302 8.302 0 0 0 44 32.9Z" opacity=".4"/></symbol><symbol viewBox="0 0 64 64" id="module-seo" xmlns="http://www.w3.org/2000/svg"><path fill="var(--icon-color-accent, #ff8700)" d="m51.41 48.59-5.64-5.64c1.4-1.96 2.22-4.35 2.22-6.94 0-6.63-5.37-12-12-12s-12 5.37-12 12 5.37 12 12 12c2.59 0 4.99-.83 6.95-2.23l5.64 5.64c.39.39.9.59 1.41.59s1.02-.2 1.41-.59c.78-.78.78-2.05 0-2.83ZM28 36c0-4.41 3.59-8 8-8s8 3.59 8 8-3.59 8-8 8-8-3.59-8-8Z"/><path fill="currentColor" d="M24 36c0-1.25.19-2.45.55-3.58-.19-.14-.37-.29-.55-.46-1.11-1.09-1.66-2.41-1.66-3.96s.55-2.87 1.66-3.96c1.11-1.09 2.47-1.64 4.09-1.64s2.94.55 4.06 1.64c.15.15.27.31.4.47a11.921 11.921 0 0 1 9.47 1.12l1.33-.98c.66-.49.85-1.38.43-2.08l-3.07-5.16c-.41-.7-1.3-.99-2.06-.67l-3.55 1.45c-.3-.21-.61-.41-.92-.6-.31-.19-.65-.35-1.01-.48l-.48-3.72c-.1-.8-.8-1.4-1.63-1.4h-6.13c-.83 0-1.53.6-1.63 1.4l-.48 3.72c-.33.13-.66.29-.99.48-.33.19-.64.39-.94.6l-3.55-1.45c-.76-.31-1.64-.02-2.06.67l-3.07 5.16c-.42.7-.23 1.59.43 2.08l3.07 2.27c-.03.19-.04.37-.04.54v1.08c0 .17.01.35.04.54l-3.07 2.27c-.66.49-.85 1.38-.43 2.08l3.07 5.16c.41.7 1.3.99 2.06.67l3.55-1.45c.3.21.61.41.92.6.31.19.65.35 1.01.48l.48 3.72c.1.8.8 1.4 1.63 1.4h2.14a11.95 11.95 0 0 1-3.07-8Z" opacity=".4"/></symbol><symbol viewBox="0 0 64 64" id="module-setup" xmlns="http://www.w3.org/2000/svg"><path fill="var(--icon-color-accent, #ff8700)" d="M29.07 24.82c-3.18-3.38-7.13-3.16-10.04-2.22-.72.23-.95 1.14-.41 1.68l4.46 4.44c.4.39.4 1.03 0 1.42l-3.03 3.02c-.4.39-1.04.39-1.43 0l-4.46-4.44c-.54-.53-1.45-.31-1.68.41-.94 2.89-1.16 6.83 2.23 9.99s8.05 3.41 11.12 2.1c.35-.15.86-.03 1.13.24l9.99 9.94c.79.79 2.07.79 2.86 0l1.6-1.59c.79-.79.79-2.06 0-2.85l-9.99-9.94c-.27-.27-.39-.78-.24-1.13 1.31-3.06 1.05-7.72-2.11-11.08Z"/><path fill="currentColor" d="M48.47 28.01c.05-.18.08-.34.08-.51v-1.01c0-.16-.01-.33-.04-.51l2.88-2.12c.62-.46.79-1.29.4-1.95l-2.87-4.83c-.39-.65-1.21-.92-1.93-.63l-3.33 1.36c-.28-.2-.57-.39-.87-.56s-.61-.33-.94-.45l-.45-3.49c-.1-.75-.75-1.31-1.53-1.31h-5.75c-.78 0-1.43.56-1.53 1.31l-.45 3.49a7.1 7.1 0 0 0-.92.45c-.31.18-.6.36-.89.56L27 16.45a1.57 1.57 0 0 0-1.93.63l-2.87 4.83s-.02.07-.04.1c2.28-.11 4.76.54 6.9 2.8 3.16 3.35 3.42 8.02 2.11 11.08-.15.35-.03.86.24 1.13l5 4.98h3.45c.78 0 1.43-.56 1.53-1.31l.45-3.49c.31-.12.62-.27.92-.45s.6-.36.89-.56l3.29 1.36c.72.3 1.54.03 1.93-.63l2.87-4.83c.39-.66.22-1.49-.4-1.95l-2.88-2.12Zm-7.58 2.7c-1.05 1.03-2.32 1.54-3.81 1.54s-2.79-.51-3.83-1.54-1.56-2.26-1.56-3.71.52-2.69 1.56-3.71c1.04-1.03 2.32-1.54 3.83-1.54s2.76.51 3.81 1.54c1.05 1.02 1.58 2.26 1.58 3.71s-.53 2.69-1.58 3.71Z" opacity=".4"/></symbol><symbol viewBox="0 0 64 64" id="module-site-settings" xmlns="http://www.w3.org/2000/svg"><path fill="currentColor" d="M18 48h-2c-2.21 0-4-1.79-4-4V16c0-2.21 1.79-4 4-4h32c2.21 0 4 1.79 4 4v10c0 1.1-.9 2-2 2s-2-.9-2-2V16H16v28h2c1.1 0 2 .9 2 2s-.9 2-2 2Z"/><path fill="currentColor" d="M30 52c-1.1 0-2-.9-2-2V30c0-1.1.9-2 2-2s2 .9 2 2v20c0 1.1-.9 2-2 2Zm14 0c-1.1 0-2-.9-2-2V30c0-1.1.9-2 2-2s2 .9 2 2v20c0 1.1-.9 2-2 2Z"/><rect width="12" height="8" x="24" y="40" fill="var(--icon-color-accent, #ff8700)" rx="1.33" ry="1.33"/><rect width="12" height="8" x="38" y="32" fill="var(--icon-color-accent, #ff8700)" rx="1.33" ry="1.33"/><path fill="currentColor" d="M16 16h32v8H16z" opacity=".4"/></symbol><symbol viewBox="0 0 64 64" id="module-sites" xmlns="http://www.w3.org/2000/svg"><path fill="currentColor" d="M16 28h32v16H16z" opacity=".4"/><path fill="var(--icon-color-accent, #ff8700)" d="M48 16v28H16V16h32m2-4H14c-1.1 0-2 .9-2 2v32c0 1.1.9 2 2 2h36c1.1 0 2-.9 2-2V14c0-1.1-.9-2-2-2Z"/><path fill="currentColor" d="M34 24H22c-1.1 0-2-.9-2-2s.9-2 2-2h12c1.1 0 2 .9 2 2s-.9 2-2 2Z"/></symbol><symbol viewBox="0 0 64 64" id="module-styleguide" xmlns="http://www.w3.org/2000/svg"><path fill="currentColor" d="M16 28v2.56a2 2 0 0 0 1.37 1.9L28 36h8l10.63-3.54a2 2 0 0 0 1.37-1.9V28H16Z"/><path fill="currentColor" d="M28 40v8c0 2.21 1.79 4 4 4s4-1.79 4-4v-8h-8Z" opacity=".4"/><path fill="var(--icon-color-accent, #ff8700)" d="M46 12H18c-1.1 0-2 .9-2 2v14h4V16h4v4c0 1.1.9 2 2 2s2-.9 2-2v-4h4v6c0 1.1.9 2 2 2s2-.9 2-2v-6h8v12h4V14c0-1.1-.9-2-2-2Z"/></symbol><symbol viewBox="0 0 64 64" id="module-taskcenter" xmlns="http://www.w3.org/2000/svg"><path fill="currentColor" d="M48 16v8H16v-8h32m2-4H14c-1.1 0-2 .9-2 2v12c0 1.1.9 2 2 2h36c1.1 0 2-.9 2-2V14c0-1.1-.9-2-2-2Z"/><rect width="40" height="8" x="12" y="32" fill="currentColor" opacity=".4" rx="2" ry="2"/><rect width="40" height="8" x="12" y="44" fill="currentColor" opacity=".4" rx="2" ry="2"/><path fill="currentColor" d="M14 32h22v8H14c-1.1 0-2-.9-2-2v-4c0-1.1.9-2 2-2Zm0 12h14v8H14c-1.1 0-2-.9-2-2v-4c0-1.1.9-2 2-2Z"/><path fill="var(--icon-color-accent, #ff8700)" d="M16 16h24v8H16z"/></symbol><symbol viewBox="0 0 64 64" id="module-template" xmlns="http://www.w3.org/2000/svg"><path fill="var(--icon-color-accent, #ff8700)" d="M26 38a2.004 2.004 0 0 1-1.41-3.42l2.59-2.59-2.59-2.59c-.78-.78-.78-2.05 0-2.83s2.05-.78 2.83 0l4 4c.78.78.78 2.05 0 2.83l-4 4c-.39.39-.9.59-1.41.59Zm12 4h-6c-1.1 0-2-.9-2-2s.9-2 2-2h6c1.1 0 2 .9 2 2s-.9 2-2 2Z"/><path fill="currentColor" d="M34.34 16 44 25.66V48H20V16h14.34M36 12H18c-1.1 0-2 .9-2 2v36c0 1.1.9 2 2 2h28c1.1 0 2-.9 2-2V24L36 12Z"/><path fill="currentColor" d="M34 16v7.67c0 1.12 1.19 2.33 2.33 2.33H44v-.34L34.34 16H34Z" opacity=".4"/></symbol><symbol viewBox="0 0 64 64" id="module-tsconfig" xmlns="http://www.w3.org/2000/svg"><path fill="currentColor" d="M34 28h14v16H34z" opacity=".4"/><path fill="currentColor" d="M48 16v28H16V16h32m2-4H14c-1.1 0-2 .9-2 2v32c0 1.1.9 2 2 2h36c1.1 0 2-.9 2-2V14c0-1.1-.9-2-2-2Z"/><path fill="var(--icon-color-accent, #ff8700)" d="M16 24v4h14v16h4V28h14v-4H16z"/></symbol><symbol viewBox="0 0 64 64" id="module-upgrade" xmlns="http://www.w3.org/2000/svg"><rect width="40.18" height="6" x="11.82" y="46" fill="currentColor" rx="2" ry="2" opacity=".4"/><path fill="var(--icon-color-accent, #ff8700)" d="M38 42H26c-1.1 0-2-.9-2-2v-8h-4c-1.83 0-3.91 0-4.64-1.77-.71-1.71.75-3.17 1.23-3.65l13.9-14c.37-.38.88-.59 1.41-.59.53 0 1.04.21 1.41.58l14.09 14c.48.48 1.94 1.94 1.23 3.65-.73 1.77-2.81 1.77-4.64 1.77h-4v8c0 1.1-.9 2-2 2Zm-10-4h8v-8c0-1.1.9-2 2-2h5.16L31.92 16.83 20.82 28H26c1.1 0 2 .9 2 2v8Z"/></symbol><symbol viewBox="0 0 64 64" id="module-urls" xmlns="http://www.w3.org/2000/svg"><path fill="currentColor" d="M42.62 37.21a2.004 2.004 0 0 1-1.41-3.42l5.19-5.19c2.49-2.49 2.05-6.98-.99-10.02-1.51-1.51-3.42-2.42-5.37-2.57-1.83-.13-3.49.42-4.65 1.59l-5.19 5.19c-.78.78-2.05.78-2.83 0s-.78-2.05 0-2.83l5.19-5.19c2-2 4.76-2.98 7.79-2.75 2.9.22 5.7 1.55 7.89 3.73 4.59 4.59 5.04 11.62.99 15.67l-5.19 5.19c-.39.39-.9.59-1.41.59ZM24.52 52c-.29 0-.58-.01-.87-.03-2.9-.22-5.7-1.55-7.89-3.73-4.59-4.59-5.04-11.62-.99-15.67l5.19-5.19c.78-.78 2.05-.78 2.83 0s.78 2.05 0 2.83L17.6 35.4c-2.49 2.49-2.05 6.98.99 10.02 1.51 1.51 3.42 2.42 5.37 2.57 1.84.13 3.49-.42 4.65-1.59l5.19-5.19c.78-.78 2.05-.78 2.83 0s.78 2.05 0 2.83l-5.19 5.19c-1.81 1.81-4.24 2.78-6.92 2.78Z"/><path fill="var(--icon-color-accent, #ff8700)" d="M24.5 41.5a2.004 2.004 0 0 1-1.41-3.42l15-15c.78-.78 2.05-.78 2.83 0s.78 2.05 0 2.83l-15 15c-.39.39-.9.59-1.41.59Z"/></symbol><symbol viewBox="0 0 64 64" id="module-viewpage" xmlns="http://www.w3.org/2000/svg"><path fill="currentColor" d="M22 52h-2.25C17.68 52 16 50.29 16 48.2V15.8c0-2.09 1.68-3.8 3.75-3.8H35.5c.54 0 1.06.22 1.43.61l10.5 10.8c.36.37.57.87.57 1.39V30c0 1.1-.9 2-2 2s-2-.9-2-2v-4.39L34.66 16H20v32h2c1.1 0 2 .9 2 2s-.9 2-2 2Z"/><path fill="var(--icon-color-accent, #ff8700)" d="M38.2 34C33.13 34 28 37 24 43.01 27.9 49 32.99 52 38.07 52S48.18 49.01 52 43.01c-3.73-6-8.73-9.01-13.8-9.01Zm-.13 14c-3.22 0-6.38-1.75-9.09-4.97 1.35-1.59 2.81-2.82 4.32-3.67-.18.52-.3 1.06-.3 1.64 0 2.76 2.24 5 5 5s5-2.24 5-5c0-.65-.13-1.27-.36-1.84 1.59.84 3.09 2.12 4.45 3.82-2.66 3.25-5.8 5.02-9.03 5.02Z"/></symbol><symbol viewBox="0 0 64 64" id="module-webhooks" xmlns="http://www.w3.org/2000/svg"><path fill="currentColor" d="M42 36c-1.48 0-2.75.81-3.45 2H30c-1.1 0-2 .9-2 2 0 3.31-2.69 6-6 6s-6-2.69-6-6c0-2.74 1.85-5.13 4.5-5.81a1.997 1.997 0 1 0-.99-3.87 9.992 9.992 0 0 0-7.5 9.68c0 5.51 4.49 10 10 10 4.83 0 8.87-3.44 9.8-8h6.76c.69 1.19 1.97 2 3.45 2 2.21 0 4-1.79 4-4s-1.79-4-4-4Z"/><path fill="currentColor" d="M50.77 35.2c-2.32-4.24-7.28-6.13-11.72-4.75l-3.56-6.51c.32-.58.52-1.23.52-1.93 0-2.21-1.79-4-4-4s-4 1.79-4 4 1.79 4 4 4h.05l4.35 7.95c.25.46.68.81 1.19.96.51.15 1.06.09 1.52-.17 2.9-1.59 6.56-.52 8.14 2.38 1.59 2.9.52 6.55-2.38 8.14a5.99 5.99 0 0 1-7.26-1.16c-.76-.81-2.02-.85-2.83-.09s-.85 2.02-.09 2.83a9.986 9.986 0 0 0 12.09 1.93c4.84-2.65 6.62-8.74 3.97-13.57Z"/><path fill="var(--icon-color-accent, #ff8700)" d="M36.8 13.23c-4.84-2.65-10.93-.87-13.57 3.97-2.32 4.24-1.24 9.43 2.31 12.44l-3.49 6.37H22c-2.21 0-4 1.79-4 4s1.79 4 4 4 4-1.79 4-4c0-.71-.2-1.36-.52-1.93l4.43-8.09c.53-.97.18-2.18-.79-2.71-2.9-1.59-3.97-5.24-2.38-8.14a5.949 5.949 0 0 1 3.58-2.88c1.54-.45 3.16-.27 4.56.5a6.014 6.014 0 0 1 2.94 6.74c-.27 1.07.38 2.16 1.45 2.43 1.08.27 2.16-.38 2.43-1.45 1.12-4.42-.89-9.04-4.89-11.23Z"/></symbol><symbol viewBox="0 0 64 64" id="module-workspaces" xmlns="http://www.w3.org/2000/svg"><path fill="currentColor" d="M36 20v20H16V20h20m2-4H14c-1.1 0-2 .9-2 2v24c0 1.1.9 2 2 2h24c1.1 0 2-.9 2-2V18c0-1.1-.9-2-2-2Z"/><path fill="var(--icon-color-accent, #ff8700)" d="M36 20v20H16V20h20m2-4H14c-1.1 0-2 .9-2 2v24c0 1.1.9 2 2 2h24c1.1 0 2-.9 2-2V18c0-1.1-.9-2-2-2Z"/><path fill="currentColor" d="M50 24H40v4h8v20H28v-4h-4v6c0 1.1.9 2 2 2h24c1.1 0 2-.9 2-2V26c0-1.1-.9-2-2-2Z"/><path fill="currentColor" d="M40 18v6h8V14c0-1.1-.9-2-2-2H22c-1.1 0-2 .9-2 2v2h18c1.1 0 2 .9 2 2Z" opacity=".4"/></symbol></svg>