<?xml version="1.0" encoding="utf-8"?><svg class="typo3-icons-module" style="display: none;" xmlns="http://www.w3.org/2000/svg" xmlns:xlink="http://www.w3.org/1999/xlink"><symbol viewBox="0 0 64 64" id="module-about" xmlns="http://www.w3.org/2000/svg"><path fill="#FF8700" d="M0 0h64v64H0z"/><path fill="#FFF" d="M42.8 32.8c-3.6 0-8.1-10.1-8.1-15.1 0-2.3.9-2.7 3.2-2.7 5.5 0 11 .9 11 4-.1 6.2-4 13.8-6.1 13.8zM28.5 18.5c0 5 6.4 20.2 10.7 20.2.5 0 .9-.1 1.4-.2-3.8 6.1-8.4 10.6-11.2 10.6-5.9 0-14.3-17.9-14.3-25.7 0-1.2.3-2.2.7-2.8 2-2.5 8.4-4.4 13.7-5-.6.4-1 1-1 2.9z"/></symbol><symbol viewBox="0 0 64 64" id="module-aboutmodules" xmlns="http://www.w3.org/2000/svg"><g fill="none" fill-rule="evenodd"><path d="M0 0h64v64H0z" fill="#3A81B4"/><path fill="#FFF" d="M48 18v26H16V18h32zm-26 0v26h2V18h-2zm-4 18v2h2v-2h-2zm0 4v2h2v-2h-2zm0-8v2h2v-2h-2zm0-4v2h2v-2h-2zm0-4v2h2v-2h-2zm0-4v2h2v-2h-2zm10 4v2h10v-2H28zm0 8v2h10v-2H28zm0-4v2h14v-2H28z"/></g></symbol><symbol viewBox="0 0 64 64" id="module-adminpanel" xmlns="http://www.w3.org/2000/svg"><rect width="64" height="64" fill="#aebb69" rx="0" ry="0"/><path fill="#FFF" d="M44.031 40.784l3.441 4.915-2.457 1.721-3.441-4.915 2.457-1.721zm-2.376-.778c-.96.672-2.06.995-3.15.995a5.5 5.5 0 113.15-.995zm.292-3.898a3.479 3.479 0 00-.58-2.615A3.506 3.506 0 0038.496 32a3.48 3.48 0 00-2.003.633 3.505 3.505 0 00-.86 4.875 3.508 3.508 0 002.872 1.493 3.48 3.48 0 002.003-.633 3.477 3.477 0 001.439-2.26zM48 16v14h-2v-6H18v22h15v2H16V16h32zm-8 2H18v4h22v-4zm6 0h-4v4h4v-4z"/></symbol><symbol viewBox="0 0 64 64" id="module-belog" xmlns="http://www.w3.org/2000/svg"><path fill="#D04139" d="M0 0h64v64H0z"/><path fill="#FFF" d="M19 14h26c.6 0 1 .4 1 1v34c0 .6-.4 1-1 1H19c-.6 0-1-.4-1-1V15c0-.6.4-1 1-1zm21 0H24l2.7-2h10.6z"/><path fill="#D04139" d="M40 14H24l2.7 2h10.6z" opacity=".5"/><path fill="#D04139" d="M24 26h4v2h-4z"/><path fill="#D04139" d="M30 26h10v2H30z" opacity=".5"/><path fill="#D04139" d="M26 20h12v2H26zm-2 10h4v2h-4z"/><path fill="#D04139" d="M30 30h10v2H30z" opacity=".5"/><path fill="#D04139" d="M24 34h4v2h-4z"/><path fill="#D04139" d="M30 34h10v2H30z" opacity=".5"/><path fill="#D04139" d="M24 38h4v2h-4z"/><path fill="#D04139" d="M30 38h10v2H30z" opacity=".5"/><path fill="#D04139" d="M24 42h4v2h-4z"/><path fill="#D04139" d="M30 42h10v2H30z" opacity=".5"/></symbol><symbol viewBox="0 0 64 64" id="module-beuser" xmlns="http://www.w3.org/2000/svg"><path fill="#59F" d="M0 0h64v64H0z"/><path fill="#FFF" d="M46.6 41.2c-2.815-.768-4.974-1.825-6.976-2.678-.042.543-.243 1.113-.782 1.664-1.62 1.726-4.1 3.814-6.808 3.814-2.719 0-5.288-2.115-6.88-3.817-.558-.573-.743-1.177-.762-1.738-2.007.896-4.17 1.885-6.993 2.655 0 0-3.1 1.9-3.4 8.9h36c-.199-7.1-3.399-8.8-3.399-8.8z"/><path fill="#FFF" d="M40 20.5c0-3.6-3.2-6.5-7-6.5h-2c-3.6 0-7 2.9-7 6.5v5c0 2.109 1.628 4.713 3.5 6.553-.1 5.4-1.7 5.947-.9 6.747 2.5 2.7 8.1 2.9 10.8 0 .797-.797-.59-1.3-.896-6.747C38.333 30.215 39.942 27.59 40 25.5v-5z"/></symbol><symbol viewBox="0 0 64 64" id="module-config" xmlns="http://www.w3.org/2000/svg"><path fill="#EF8534" d="M0 0h64v64H0z"/><path fill="#FFF" d="M16 16h2v32h-2zm10 0h2v32h-2zm10 0h2v32h-2zm10 0h2v32h-2z"/><path fill="#FFF" d="M14 22h6v14h-6z"/><path fill="#EF8534" d="M16 20h2v2h-2zm0 16h2v2h-2z" opacity=".5"/><path fill="#FFF" d="M24 26h6v14h-6z"/><path fill="#EF8534" d="M26 24h2v2h-2zm0 16h2v2h-2z" opacity=".5"/><g><path fill="#FFF" d="M34 28h6v14h-6z"/><path fill="#EF8534" d="M36 26h2v2h-2zm0 16h2v2h-2z" opacity=".5"/></g><g><path fill="#FFF" d="M44 24h6v14h-6z"/><path fill="#EF8534" d="M46 22h2v2h-2zm0 16h2v2h-2z" opacity=".5"/></g></symbol><symbol viewBox="0 0 64 64" id="module-contentelements" xmlns="http://www.w3.org/2000/svg"><rect width="64" height="64" fill="#696DBB" rx="0" ry="0"/><path fill="#FFF" d="M32 32a2 2 0 114.001.001A2 2 0 0132 32zm0 4l-4.286 2-5.143-6L20 36.375V42h18l-6-6zM22 20h26v20h-6v6H16V26h6v-6zm18 8H18v16h22V28zm-16-2h18v12h4V22H24v4z"/></symbol><symbol viewBox="0 0 64 64" id="module-cshmanual" xmlns="http://www.w3.org/2000/svg"><path fill="#E49139" d="M0 0h64v64H0z"/><path fill="#FFF" d="M45 50H19c-.6 0-1-.4-1-1V15c0-.6.4-1 1-1h26c.6 0 1 .4 1 1v34c0 .6-.4 1-1 1z"/><path fill="#E49139" d="M20 16h2v32h-2zm6 2h16v2H26z"/></symbol><symbol viewBox="0 0 64 64" id="module-dashboard" xmlns="http://www.w3.org/2000/svg"><path fill="#A4276A" d="M0 0h64v64H0z"/><path fill="#FFF" d="M40 16h10v-1c0-.5-.5-1-1-1h-9v2z" opacity=".5"/><path fill="#FFF" d="M28 14h10v2H28z" opacity=".75"/><path fill="#FFF" d="M40 18H26v-4H15c-.5 0-1 .5-1 1v34c0 .5.5 1 1 1h34c.5 0 1-.5 1-1V18H40z"/><path fill="#A4276A" d="M38 22h8v14h-8z"/><path fill="#A4276A" fill-rule="evenodd" d="M18 22h18v14H18z"/><path fill="#FFF" d="M38 24h8v12h-8z" opacity=".5"/><path fill="#FFF" fill-rule="evenodd" d="M36 36H18v-4l6-2 4 2 4-2 4-6z" opacity=".5"/><path fill="#A4276A" d="M28 40h18v2H28zm0 4h10v2H28zm-10-4h8v6h-8z"/><path fill="#FFF" d="M18 42h8v4h-8z" opacity=".5"/></symbol><symbol viewBox="0 0 64 64" id="module-dbal" xmlns="http://www.w3.org/2000/svg"><path fill="#415697" d="M0 0h64v64H0z"/><path fill="#FFF" d="M49 22H35a1 1 0 01-1-1v-4a1 1 0 011-1h14a1 1 0 011 1v4a1 1 0 01-1 1z"/><path fill="#415697" d="M46 18h2v2h-2zm-4 0h2v2h-2z"/><path fill="#FFF" d="M49 30H35a1 1 0 01-1-1v-4a1 1 0 011-1h14a1 1 0 011 1v4a1 1 0 01-1 1z"/><path fill="#415697" d="M46 26h2v2h-2zm-4 0h2v2h-2z"/><path fill="#FFF" d="M49 42H35a1 1 0 01-1-1v-8a1 1 0 011-1h14a1 1 0 011 1v8a1 1 0 01-1 1z"/><path fill="#415697" d="M46 38h2v2h-2zm-4 0h2v2h-2z"/><g><path fill="#FFF" d="M29 22H15a1 1 0 01-1-1v-4a1 1 0 011-1h14a1 1 0 011 1v4a1 1 0 01-1 1z"/><path fill="#415697" d="M26 18h2v2h-2zm-4 0h2v2h-2z"/><path fill="#FFF" d="M29 30H15a1 1 0 01-1-1v-4a1 1 0 011-1h14a1 1 0 011 1v4a1 1 0 01-1 1z"/><path fill="#415697" d="M26 26h2v2h-2zm-4 0h2v2h-2z"/><path fill="#FFF" d="M29 42H15a1 1 0 01-1-1v-8a1 1 0 011-1h14a1 1 0 011 1v8a1 1 0 01-1 1z"/><path fill="#415697" d="M26 38h2v2h-2zm-4 0h2v2h-2z"/></g><g fill="#FFF"><path d="M40 44h4v2h-4zm-20 0h4v2h-4z"/><path d="M40 42h4v2h-4zm-20 0h4v2h-4z" opacity=".5"/><path d="M20 46h24v1a1 1 0 01-1 1H21a1 1 0 01-1-1v-1z"/></g></symbol><symbol viewBox="0 0 64 64" id="module-dbint" xmlns="http://www.w3.org/2000/svg"><path fill="#428859" d="M0 0h64v64H0z"/><path fill="#FFF" d="M47 24H17a1 1 0 01-1-1v-6a1 1 0 011-1h30a1 1 0 011 1v6a1 1 0 01-1 1z"/><path fill="#428859" d="M44 20h2v2h-2zm-4 0h2v2h-2z"/><path fill="#FFF" d="M47 34H17a1 1 0 01-1-1v-6a1 1 0 011-1h30a1 1 0 011 1v6a1 1 0 01-1 1z"/><path fill="#428859" d="M44 30h2v2h-2zm-4 0h2v2h-2z"/><path fill="#FFF" d="M47 48H17a1 1 0 01-1-1V37a1 1 0 011-1h30a1 1 0 011 1v10a1 1 0 01-1 1z"/><path fill="#428859" d="M44 44h2v2h-2zm-4 0h2v2h-2z"/></symbol><symbol viewBox="0 0 64 64" id="module-documentation" xmlns="http://www.w3.org/2000/svg"><path fill="#DA6C39" d="M0 0h64v64H0z"/><path fill="#FFF" d="M43.6 51.6l-6.8-6.8c-.3-.3-.1-.9.4-.9H42v-8h4v8h4.8c.4 0 .7.5.4.9l-6.8 6.8c-.2.2-.6.2-.8 0z"/><path fill="#FFF" d="M34 47.7c-1.3-1.3-1.7-3.2-1-4.9.7-1.7 2.3-2.8 4.2-2.8h.8v-8h8V15c0-.6-.4-1-1-1H19c-.6 0-1 .4-1 1v34c0 .6.4 1 1 1h17.3L34 47.7z"/><path fill="#DA6C39" d="M20 16h2v32h-2zm6 2h16v2H26z"/></symbol><symbol viewBox="0 0 64 64" id="module-extensionmanager" xmlns="http://www.w3.org/2000/svg"><g fill="none" fill-rule="evenodd"><path d="M0 0h64v64H0z" fill="#F08D34"/><path fill="#FFF" d="M33.018 27.928l10.897-3.8A1 1 0 1144.618 26L34 29.703V42.93c0 .589-.448 1.066-1 1.066s-1-.477-1-1.066V29.687l-10.67-3.815a1 1 0 11.702-1.873l10.986 3.929zm.454-12a1.83 1.83 0 00-.944 0L16.472 21.05a.712.712 0 00-.472.643v20.633c0 .271.215.56.472.642l16.056 5.122c.26.083.687.082.944 0l16.056-5.122a.712.712 0 00.472-.642V21.692a.723.723 0 00-.472-.643l-16.056-5.12z"/></g></symbol><symbol viewBox="0 0 64 64" id="module-filelist" xmlns="http://www.w3.org/2000/svg"><path fill="#4C7E3A" d="M0 0h64v64H0z"/><path fill="#FFF" d="M36 30h10c0-.692-.097-1.36-.262-2H36v2zm0-4h8.921a8.02 8.02 0 00-1.642-2H36v2zm0 8h14.648a5.958 5.958 0 00-1.195-2H36v2zm-2 6V21.865A9.959 9.959 0 0027 19c-5.413 0-9.81 4.304-9.984 9.675A6.995 6.995 0 0020 42h14v-2zm2-2h14.651A5.97 5.97 0 0051 36H36v2zm0 2v2h9a5.976 5.976 0 004.463-2H36z"/></symbol><symbol viewBox="0 0 64 64" id="module-form" xmlns="http://www.w3.org/2000/svg"><path fill="#3B7EB0" d="M0 0h64v64H0z"/><path fill="#FFF" d="M14 14h32v36H14z"/><path fill="#3B7EB0" d="M22 42h8v4h-8z"/><path fill="#3B7EB0" d="M32 42h8v4h-8z" opacity=".5"/><path fill="#3B7EB0" d="M22 18h14v2H22zm0 14h2v2h-2zm0 4h2v2h-2z"/><path fill="#3B7EB0" d="M26 32h16v2H26zm0 4h16v2H26zm-4-14h20v8H22z" opacity=".5"/><path fill="#3B7EB0" d="M14 14h4v4h-4z"/><path fill="#3B7EB0" d="M16 14h2v36h-2z" opacity=".5"/></symbol><symbol viewBox="0 0 64 64" id="module-func" xmlns="http://www.w3.org/2000/svg"><g fill="none" fill-rule="evenodd"><path d="M0 0h64v64H0z" fill="#08596C"/><path fill="#FFF" d="M38.083 22H48v4H34v-2h-4v2H16v-4h10.002v-3.01c0-.546.45-.99 1.007-.99h10.067c.556 0 1.007.451 1.007.99V22zM30 28H16v14h32V28H34v4h-4v-4zm-2-8v2h8v-2h-8z"/></g></symbol><symbol viewBox="0 0 64 64" id="module-generic" xmlns="http://www.w3.org/2000/svg"><path fill="#666" d="M0 0h64v64H0z"/><path fill="#FFF" d="M48.9 19.4V19c0-.2 0-.3-.1-.5 0-.1-.1-.2-.1-.3 0-.1 0-.1-.1-.2s-.1-.2-.2-.3v-.1c-.4-.6-1.1-1.1-2-1.5-1.8-.8-4.5-1.1-7.3-1.2h-1.2c-.7 0-1.3 0-1.8.2-.2 0-.3.1-.5.2-.1.1-.3.2-.4.3-.1.1-.2.2-.3.4-.2.4-.3.9-.3 1.7 0 1.1.2 2.5.6 4 .2.7.4 1.4.7 2.2.5 1.3 1.1 2.7 1.7 3.9.2.3.3.6.5.9.2.3.3.6.5.8.4.6.8 1.1 1.2 1.6.9 1 1.9 1.7 2.8 1.7 1.5 0 3.8-3.7 5.1-8.1.8-1.8 1.1-3.6 1.2-5.3zM37.1 17l-.4.4V17h.4zm-.1 2.9l2.9-2.9c1 0 1.8.1 2.6.2l-5 5c-.2-.8-.4-1.5-.5-2.3zm2.1 6.2c-.3-.6-.6-1.2-.8-1.8l6.6-6.6c1.1.3 1.6.7 1.9.9l-7.6 7.6s0-.1-.1-.1zm1.1 1.9l6.4-6.4c-.2 1.4-.6 2.7-1.1 3.9l-4.1 4.1c-.3-.4-.7-.9-1.2-1.6zM39.2 38.6c-.1 0-.3 0-.4-.1-.1 0-.3-.1-.4-.2-.5-.2-1.1-.6-1.6-1.2-.2-.2-.4-.4-.6-.7 0 0 0-.1-.1-.1-.2-.2-.4-.5-.6-.8-.4-.5-.8-1.1-1.1-1.7-.4-.6-.7-1.2-1-1.8-.3-.6-.6-1.2-1-1.9-.3-.6-.6-1.3-.9-1.9-.3-.7-.6-1.3-.8-2-.3-.7-.5-1.4-.7-2.1-.2-.8-.5-1.5-.7-2.2l-.3-1.2c-.1-.4-.1-.8-.2-1.1-.1-.5-.1-1-.1-1.4 0-.6 0-1.1.1-1.5.1-.4.2-.7.3-.9.1-.1.1-.2.2-.3.1-.1.2-.1.3-.2-.4 0-.8.1-1.3.2h-.2c-.4.1-.8.1-1.2.2-1.6.3-3.3.7-4.8 1.2H22c-.4.1-.7.2-1 .4h-.1c-2.2.8-4 1.8-4.9 3-.3.5-.6 1.2-.7 2v.8c0 1.7.4 3.8 1 6.1.9 3.2 2.4 6.8 4.1 10 .3.6.7 1.2 1 1.8 1.1 1.9 2.3 3.6 3.5 4.9.2.3.5.5.7.7.2.2.5.4.7.6.8.7 1.6 1.1 2.4 1.3h.1c.2 0 .5.1.7.1.2 0 .4 0 .7-.1h.1c.2-.1.5-.1.7-.2 2.5-1 5.8-4.4 8.8-8.8.3-.5.6-1 .9-1.4-.6.4-1 .5-1.5.5zm-11-12.7l-8.3 8.3c-.3-.7-.6-1.4-.8-2l8.4-8.4c.2.6.5 1.4.7 2.1zm-11.1-2.6v-.5l2.7-2.7c1.2-.6 2.7-1.1 4.4-1.5l-6.9 6.9c-.1-.8-.2-1.5-.2-2.2zm9.4-4.2c.1.7.2 1.5.4 2.4L18.4 30c-.2-.8-.4-1.5-.6-2.2l8.7-8.7zm-5.7 17L29 28c.3.7.5 1.3.8 2l-8.1 8c-.3-.6-.6-1.2-.9-1.9zm9.9-4.2c.3.6.6 1.3 1 1.9l-7.9 7.9c-.4-.5-.7-1.1-1.1-1.8l8-8zm-5.8 11.4l7.8-7.8c.4.6.8 1.1 1.2 1.7l-7.7 7.7c-.4-.5-.8-1-1.3-1.6zm10.4-4.7c.5.5 1 .9 1.6 1.3L29.7 47h-.3c-.4 0-1-.3-1.7-.8l7.6-7.6z"/></symbol><symbol viewBox="0 0 64 64" id="module-help" xmlns="http://www.w3.org/2000/svg"><path fill="#59F" d="M0 0h64v64H0z"/><path fill="#FFF" d="M35 42h-6a1 1 0 00-1 1v6a1 1 0 001 1h6a1 1 0 001-1v-6a1 1 0 00-1-1zm8.78-18.189c-.852-4.802-4.786-8.745-9.592-9.6-7.225-1.288-13.555 3.899-14.159 10.728-.048.572.444 1.068 1.02 1.068h6.036c.485 0 .88-.353.981-.828.563-2.64 3.732-4.329 6.674-2.22.1.072.194.167.266.268 1.817 2.573.864 4.981-.951 6.111-3.623 2.055-6.07 4.93-6.07 9.396V39a1 1 0 001 1h5.998a1 1 0 001-1v-.268c0-1.435.804-1.635 1.943-2.339 4.19-2.39 6.805-7.22 5.854-12.582z"/></symbol><symbol viewBox="0 0 64 64" id="module-indexed_search" xmlns="http://www.w3.org/2000/svg"><g fill="none" fill-rule="evenodd"><path d="M0 0h64v64H0z" fill="#458043"/><path fill="#FFF" d="M28.384 35.37l1.732 1-6.5 11.26-1.732-1 6.5-11.26zm7.232 0l-1.732 1 6.5 11.26 1.732-1-6.5-11.26z"/><path fill="#FFF" d="M46 22h1.007c.54 0 .993-.448.993-1 0-.556-.444-1-.993-1H16.993c-.54 0-.993.448-.993 1 0 .556.444 1 .993 1H18v17.008c0 .537.446.992.997.992h26.006a.99.99 0 00.997-.992V22zm-14.99 7.324l2.608 2.609.755.754.754-.754 5.354-5.355-1.508-1.508-4.56 4.64-2.662-2.66-.754-.755-.754.754-6.411 6.412 1.508 1.508 5.67-5.645z"/><path fill="#458043" d="M18 40h28v2H18z" opacity=".5"/></g></symbol><symbol viewBox="0 0 64 64" id="module-info" xmlns="http://www.w3.org/2000/svg"><g fill="none" fill-rule="evenodd"><path d="M0 0h64v64H0z" fill="#6DAAE0"/><path d="M39.95 43.5c0-.8-.7-1.5-1.5-1.5H36V29.5c0-.8-.7-1.5-1.5-1.5h-8.01c-.8 0-1.5.7-1.5 1.5v3.004c0 .8.7 1.5 1.5 1.5H28V42h-2.5c-.8 0-1.5.7-1.5 1.5l-.1 3.014c0 .8.7 1.5 1.5 1.5h13.05c.8 0 1.5-.7 1.5-1.5l.1-3.014h-.1zM34.52 16h-5.04c-.79 0-1.481.691-1.481 1.481v5.038c0 .79.691 1.481 1.481 1.481h5.038c.79 0 1.481-.691 1.481-1.481V17.48c0-.79-.691-1.481-1.481-1.481z" fill="#FFF"/></g></symbol><symbol viewBox="0 0 64 64" id="module-install" xmlns="http://www.w3.org/2000/svg"><path fill="#FF8700" d="M0 0h64v64H0z"/><path fill="#FFF" d="M49.535 29.295l-5.457-1.558a12.594 12.594 0 00-.517-1.27l2.751-4.953a.642.642 0 00-.108-.766l-2.952-2.952a.643.643 0 00-.766-.108l-4.953 2.751a12.69 12.69 0 00-1.27-.517l-1.558-5.457a.645.645 0 00-.62-.465h-4.171c-.288 0-.54.19-.617.465l-1.561 5.459c-.435.154-.859.319-1.27.517l-4.953-2.751a.64.64 0 00-.766.108l-2.949 2.949a.64.64 0 00-.108.766l2.751 4.953a12.69 12.69 0 00-.517 1.27l-5.459 1.558a.647.647 0 00-.465.621v4.173c0 .288.19.54.465.617l5.457 1.558c.154.435.319.859.517 1.27l-2.751 4.953a.642.642 0 00.108.766l2.952 2.952a.643.643 0 00.766.108l4.953-2.751c.411.198.836.363 1.27.517l1.558 5.457c.08.275.332.465.62.465h4.173c.288 0 .54-.19.617-.465l1.558-5.457c.435-.154.859-.319 1.27-.517l4.953 2.751a.642.642 0 00.766-.108l2.952-2.952a.643.643 0 00.108-.766l-2.751-4.953c.198-.411.363-.836.517-1.27l5.457-1.558a.645.645 0 00.465-.62v-4.171a.645.645 0 00-.465-.619zM32 39.714c-4.261 0-7.714-3.453-7.714-7.714s3.453-7.714 7.714-7.714 7.714 3.453 7.714 7.714-3.453 7.714-7.714 7.714z"/><path fill="#FFF" d="M32 32h24v24H32z"/><path fill="#FF8700" d="M54 34v20H34V34h20m4-4H30v28h28V30z"/><path fill="#FF8700" d="M36 36h16v2H36zm0 4h16v12H36z"/><path fill="#FFF" d="M42.391 49.625a.574.574 0 00.804-.002l5.636-5.636a.563.563 0 00-.003-.809l-.798-.798a.574.574 0 00-.802-.011l-4.04 4.04a.557.557 0 01-.794-.004l-1.618-1.618a.561.561 0 00-.805.007l-.798.798a.566.566 0 00-.006.807l3.224 3.226z"/></symbol><symbol viewBox="0 0 64 64" id="module-install-environment" xmlns="http://www.w3.org/2000/svg"><path fill="#428954" d="M0 0h64v64H0z"/><path fill="#FFF" d="M45 18H19l-3 4v14h32V22z"/><path fill="#428954" d="M48 22H16l3-4h26z" opacity=".5"/><path fill="#428954" d="M40 24h6v2h-6v-2zm0 8h6v2h-6v-2z"/><path fill="#428954" d="M18 24h20v2H18v-2z" opacity=".5"/><path fill="#428954" d="M40 28h6v2h-6v-2z"/><path fill="#428954" d="M18 28h20v2H18v-2zm0 4h20v2H18v-2z" opacity=".5"/><path fill="#FFF" d="M48 42v2H16v-2h32z" opacity=".75"/><path fill="#FFF" d="M36 40v6h-8v-6h2v-4h4v4h2z"/><path fill="#428954" d="M30 36h4v1h-4v-1z" opacity=".5"/></symbol><symbol viewBox="0 0 64 64" id="module-install-maintenance" xmlns="http://www.w3.org/2000/svg"><path fill="#D03F38" d="M0 0h64v64H0z"/><path fill="#FFF" d="M22.054 47.761c-.462.462-1.124.743-1.806.743s-1.345-.281-1.827-.743l-2.128-2.17a2.521 2.521 0 01-.763-1.808c0-.683.281-1.346.763-1.828l13.669-13.682a10.36 10.36 0 005.781 5.786L22.054 47.761zm-.522-6.549c-.702 0-1.285.583-1.285 1.286 0 .703.582 1.286 1.285 1.286s1.285-.583 1.285-1.286c0-.704-.582-1.286-1.285-1.286zm26.475-13.763c-1.265 3.576-4.697 6.047-8.491 6.047-4.958 0-8.992-4.038-8.992-9.001s4.034-9.001 8.992-9.001c1.465 0 3.372.442 4.596 1.266.201.141.321.321.321.563 0 .221-.141.442-.321.563l-5.881 3.395v4.5l3.874 2.15c.662-.382 5.319-3.315 5.721-3.315.401 0 .642.301.642.703.001.664-.24 1.488-.461 2.13z"/></symbol><symbol viewBox="0 0 64 64" id="module-install-settings" xmlns="http://www.w3.org/2000/svg"><path fill="#1D588E" d="M0 0h64v64H0z"/><path fill="#FFF" d="M49.535 29.295l-5.457-1.558a12.594 12.594 0 00-.517-1.27l2.751-4.953a.642.642 0 00-.108-.766l-2.952-2.952a.643.643 0 00-.766-.108l-4.953 2.751a12.69 12.69 0 00-1.27-.517l-1.558-5.457a.645.645 0 00-.62-.465h-4.171c-.288 0-.54.19-.617.465l-1.561 5.459c-.435.154-.859.319-1.27.517l-4.953-2.751a.64.64 0 00-.766.108l-2.949 2.949a.64.64 0 00-.108.766l2.751 4.953a12.69 12.69 0 00-.517 1.27l-5.459 1.558a.647.647 0 00-.465.621v4.173c0 .288.19.54.465.617l5.457 1.558c.154.435.319.859.517 1.27l-2.751 4.953a.642.642 0 00.108.766l2.952 2.952a.643.643 0 00.766.108l4.953-2.751c.411.198.836.363 1.27.517l1.558 5.457c.08.275.332.465.62.465h4.173c.288 0 .54-.19.617-.465l1.558-5.457c.435-.154.859-.319 1.27-.517l4.953 2.751a.642.642 0 00.766-.108l2.952-2.952a.643.643 0 00.108-.766l-2.751-4.953c.198-.411.363-.836.517-1.27l5.457-1.558a.645.645 0 00.465-.62v-4.171a.645.645 0 00-.465-.619zM32 39.714c-4.261 0-7.714-3.453-7.714-7.714s3.453-7.714 7.714-7.714 7.714 3.453 7.714 7.714-3.453 7.714-7.714 7.714z"/></symbol><symbol viewBox="0 0 64 64" id="module-install-upgrade" xmlns="http://www.w3.org/2000/svg"><path fill="#6C9DCC" d="M0 0h64v64H0z"/><path fill="#FFF" d="M32 43.25c-5.652 0-10.25-4.598-10.25-10.25 0-.34.039-.669.073-1h4.748a.5.5 0 00.354-.854l-6.571-6.571a.5.5 0 00-.707 0l-6.571 6.571a.5.5 0 00.353.854h4.372c-.024.332-.051.662-.051 1 0 7.857 6.393 14.25 14.25 14.25 3.104 0 5.971-1.009 8.314-2.701l-2.876-2.876A10.179 10.179 0 0132 43.25zM50.571 32h-4.372C45.682 24.609 39.52 18.75 32 18.75c-2.587 0-5.008.704-7.101 1.914l2.965 2.965A10.183 10.183 0 0132 22.75c5.315 0 9.695 4.066 10.199 9.25h-4.77a.5.5 0 00-.354.854l6.571 6.571a.5.5 0 00.707 0l6.571-6.571a.5.5 0 00-.353-.854z"/></symbol><symbol viewBox="0 0 64 64" id="module-lang" xmlns="http://www.w3.org/2000/svg"><path fill="#632F5F" d="M0 0h64v64H0z"/><path fill="#FFF" d="M32 18c7.732 0 14 6.268 14 14s-6.268 14-14 14-14-6.268-14-14 6.268-14 14-14m0-2c-8.822 0-16 7.178-16 16s7.178 16 16 16 16-7.178 16-16-7.178-16-16-16z"/><path fill="#FFF" d="M46 30.756c-.44-4.728-3.204-8.786-7.09-10.96-.184.194-.234.08-.234.274-.554.194-1.292-.194-1.846-.388a6.46 6.46 0 00-4.244-.194c-.554.194-1.844.388-1.292 1.552.368.584 1.29 1.166 2.214.39.368-.388.74-.97 1.29-.388.186.196.186.39.186.584-.186.58-.74.776-1.292.776-.74.194-1.48 0-2.216.194-.74.194-1.846.388-1.846 1.36 0 1.16-.37 1.356-1.294 1.55-.74 0-1.106.388-.74 1.164.186.58.74.58 1.11.388 1.476-.776 2.768-2.716 4.428-.388l.368-.194c.37-1.552.74-.58 1.108 0l.554.58c2.214-2.132 1.66.972 2.4 1.552-1.48-.388-3.14 1.164-4.43.194-2.214-1.744-3.69-.968-5.72.776-1.66 1.36-2.03 3.104-1.66 4.656.552 1.94 2.58 2.134 4.244 1.746.552-.196 1.66-.196 1.66.192-.37 1.746 1.66 2.91.92 4.848-.552 1.552.372 3.492 1.66 4.074 1.294.58 2.4-.97 2.956-2.328.184-.194 0-.58.184-.776 1.476-1.94 1.292-4.848 3.136-6.788.554-.58 2.4-2.714.92-4.46 3.508-.97 2.22 2.52 2.956 4.074.552-1.164.92-2.328 1.29-3.3.184-.58.32-.76.32-.76zM25.825 20.42c.58-.612.606-.712 1.188-1.53-1.218.428-2.748 1.276-3.846 2.198l.336.354h1.746s.194 0 .194-.2l.194-.206s.194 0 .194-.204l.192-.204.194-.206c-.58.41-.58.206-.388 0 0 .206 0 .206 0 0 0 .206 0 0 0 0l-.004-.002zM23.238 39.3s-.192-.184 0 0c-.192-.184-.192-.184 0 0v-.552l-.192-.184c-.19 0-.19-.186-.38-.186s-.38-.186-.572-.186h-.382s-.19 0-.19-.184c-1.336-.74-1.906-2.03-2.288-3.504 0-.37-.19-.74-.19-1.108-.188-.186-.188-.37-.38-.556-.38-.368-.188-1.106.192-1.844v-.368c0-.186 0-.186.19-.37 0-.18 0-.18.192-.366.38-.74 1.144-1.292 1.524-1.846.19-.184.19-.184.19-.368v-.184c.19-.184.19-.554.38-.74 0-.18.192-.552.192-.736 0-.37 0-.554-.192-.92-.192-.556-.308-1.036-.688-1.406-1.716 2.4-2.74 5.092-2.74 8.226 0 4.246 1.806 8.012 4.828 10.648 0 0 .122.052.122-.128v-.188c0-.184.19-.184.19-.368.192-.74.192-1.844.192-2.58l.002-.002z"/></symbol><symbol viewBox="0 0 64 64" id="module-list" xmlns="http://www.w3.org/2000/svg"><g fill="none" fill-rule="evenodd"><path d="M0 0h64v64H0z" fill="#CA6434"/><path fill="#FFF" d="M19 20a1 1 0 100-2 1 1 0 000 2zm3-1a1 1 0 011-1h22a1 1 0 110 2H23c-.552 0-1-.444-1-1zm-6-3h32v6H16v-6zm3 12a1 1 0 100-2 1 1 0 000 2zm3-1a1 1 0 011-1h22a1 1 0 110 2H23c-.552 0-1-.444-1-1zm-6-3h32v6H16v-6zm3 12a1 1 0 100-2 1 1 0 000 2zm3-1a1 1 0 011-1h22a1 1 0 110 2H23c-.552 0-1-.444-1-1zm-6-3h32v6H16v-6zm6 11a1 1 0 011-1h22a1 1 0 110 2H23c-.552 0-1-.444-1-1zm-3 1a1 1 0 100-2 1 1 0 000 2zm-3-4h32v6H16v-6z"/></g></symbol><symbol viewBox="0 0 64 64" id="module-page" xmlns="http://www.w3.org/2000/svg"><path fill="#EE8433" d="M0 0h64v64H0z"/><path fill="#FFF" d="M18 15v34a1 1 0 001 1h26a1 1 0 001-1V22l-8-8H19a1 1 0 00-1 1z"/><path fill="#EE8433" d="M38 21v-7l8 8h-7a1 1 0 01-1-1z" opacity=".6"/><path fill="#EE8433" d="M24 42h16v2H24zm0-4h16v2H24zm0-8h16v2H24zm0 4h16v2H24z"/></symbol><symbol viewBox="0 0 64 64" id="module-permission" xmlns="http://www.w3.org/2000/svg"><path fill="#184F44" d="M0 0h64v64H0z"/><path fill="#FFF" d="M45 48H19a1 1 0 01-1-1V31a1 1 0 011-1h26a1 1 0 011 1v16a1 1 0 01-1 1z"/><path fill="#FFF" d="M32 19.5c3.308 0 6 2.692 6 6h4c0-5.523-4.477-10-10-10s-10 4.477-10 10v8h4v-8c0-3.308 2.692-6 6-6z"/><circle cx="32" cy="38" r="4" fill="#184F44"/><path fill="#184F44" d="M30 38h4v6h-4z"/></symbol><symbol viewBox="0 0 64 64" id="module-recycler" xmlns="http://www.w3.org/2000/svg"><path fill="#5D6364" d="M0 0h64v64H0z"/><path fill="#FFF" d="M44 20h-4v-4a2 2 0 00-2-2H26a2 2 0 00-2 2v4h-6v4h2v22a2 2 0 002 2h20a2 2 0 002-2V24h2v-4h-2zM30 42h-2V26h2v16zm6 0h-2V26h2v16zm0-22h-8v-2h8v2z"/></symbol><symbol viewBox="0 0 64 64" id="module-redirects" xmlns="http://www.w3.org/2000/svg"><path fill="#59F" d="M0 0h64v64H0V0z"/><path fill="#FFF" d="M45.146 17.854l-3.61 3.61C39.01 19.168 35.675 17.75 32 17.75c-7.857 0-14.25 6.393-14.25 14.25S24.143 46.25 32 46.25c4.183 0 7.939-1.823 10.548-4.702l-2.827-2.827C37.84 40.878 35.08 42.25 32 42.25c-5.652 0-10.25-4.598-10.25-10.25S26.348 21.75 32 21.75c2.572 0 4.913.965 6.713 2.537l-2.86 2.86a.5.5 0 00.354.853H45.5a.5.5 0 00.5-.5v-9.293a.5.5 0 00-.854-.353z"/></symbol><symbol viewBox="0 0 64 64" id="module-reports" xmlns="http://www.w3.org/2000/svg"><path fill="#8B2F60" d="M0 0h64v64H0z"/><g fill="#FFF"><path d="M44 50h1c.6 0 1-.4 1-1v-5h-2v6z" opacity=".5"/><path d="M44 36h2v6h-2z" opacity=".75"/><path d="M44 28h2v6h-2z"/><path d="M45 14H17c-.6 0-1 .4-1 1v34c0 .6.4 1 1 1h25V26h4V15c0-.6-.4-1-1-1z"/></g><path fill="#8B2F60" d="M20 18h16v2H20zm0 4h10v2H20zm0 4h10v2H20zm0 8h4v12h-4zm6 4h4v8h-4zm6-6h4v14h-4z"/><path fill="#FFF" d="M20 40h4v6h-4zm6 0h4v6h-4zm6-6h4v12h-4z" opacity=".5"/></symbol><symbol viewBox="0 0 64 64" id="module-rte-ckeditor" xmlns="http://www.w3.org/2000/svg"><path fill="#0087D0" d="M0 0h64v64H0z"/><path fill="#FFF" d="M41.5 18.9c-.5 1-.7 2-.7 3.1 0 4.1 3.3 7.4 7.4 7.4v9.9c0 1.2-.7 2.4-1.8 3l-12.7 7.3c-1.1.6-2.4.6-3.5 0l-12.7-7.3c-1.1-.6-1.8-1.8-1.8-3V24.7c0-1.2.7-2.4 1.8-3l12.7-7.3c1.1-.6 2.4-.6 3.5 0 .1.1 7.8 4.5 7.8 4.5zm-17 6.5c-.5 0-.9.5-.9 1v.4c0 .5.4 1 .9 1h14.4c.5 0 .9-.5.9-1v-.4c0-.5-.4-1-.9-1H24.5zm0 5.4c-.5 0-.9.5-.9 1v.4c0 .5.4 1 .9 1h10.3c.5 0 .9-.5.9-1v-.4c0-.5-.4-1-.9-1H24.5zm0 5.4c-.5 0-.9.5-.9 1v.4c0 .5.4 1 .9 1h14.4c.5 0 .9-.5.9-1v-.4c0-.5-.4-1-.9-1H24.5z"/><path fill="#FFF" d="M48.2 15.8c-3.3 0-6 2.7-6 6s2.7 6 6 6 6-2.7 6-6-2.7-6-6-6zm1.6 7.6h-.6v1h-1v-1H46v-1l1.9-3h1.3v3h.6v1z"/><path fill="#FFF" d="M48.2 22.4v-1.8l-1.1 1.8z"/></symbol><symbol viewBox="0 0 64 64" id="module-scheduler" xmlns="http://www.w3.org/2000/svg"><path fill="#FF5E49" d="M0 0h64v64H0V0z"/><circle cx="32" cy="32" r="13.3" fill="#FFF"/><path fill="#FF5E49" d="M39 32l-11-6.4v12.8z"/><path fill="#FFF" d="M23.2 12.7l1.5 2.6c1.7-.7 3.5-1.2 5.3-1.4v-3c-2.4.2-4.7.8-6.8 1.8zm-5.9 8.5c1.1-1.5 2.4-2.8 3.9-3.9l-1.5-2.6c-1.9 1.4-3.6 3.1-5 5l2.6 1.5zM13.9 30c.2-1.9.7-3.7 1.4-5.3l-2.6-1.5c-1 2.1-1.6 4.4-1.8 6.8h3zm3.4 12.8l-2.6 1.5c1.4 1.9 3.1 3.6 5 5l1.5-2.6c-1.5-1.1-2.8-2.4-3.9-3.9z" opacity=".5"/><path fill="#FFF" d="M34 10.9v3c9.1 1 16.3 8.7 16.3 18.1S43.1 49.1 34 50.1v3C44.8 52.1 53.3 43 53.3 32S44.8 11.9 34 10.9z"/><path fill="#FFF" d="M15.3 39.3c-.7-1.7-1.2-3.5-1.4-5.3h-3c.2 2.4.9 4.7 1.8 6.8l2.6-1.5zM30 50.1c-1.9-.2-3.7-.7-5.3-1.4l-1.5 2.6c2.1 1 4.4 1.6 6.8 1.8v-3z" opacity=".5"/></symbol><symbol viewBox="0 0 64 64" id="module-seo" xmlns="http://www.w3.org/2000/svg"><path fill="#5992BD" d="M0 0h64v64H0z"/><path fill="#FFF" d="M49.4 48L48 49.4c-.8.8-2.1.8-2.8 0l-8.5-8.5c-.8-.8-.8-2.1 0-2.8l1.4-1.4c.8-.8 2.1-.8 2.8 0l8.5 8.5c.8.7.8 2 0 2.8z"/><path fill="#1D1D1B" d="M31 21c5.5 0 10 4.5 10 10s-4.5 10-10 10-10-4.5-10-10 4.5-10 10-10m0-4c-7.7 0-14 6.3-14 14s6.3 14 14 14 14-6.3 14-14-6.3-14-14-14z" opacity=".2"/><path fill="#FFF" d="M30 20c5.5 0 10 4.5 10 10s-4.5 10-10 10-10-4.5-10-10 4.5-10 10-10m0-4c-7.7 0-14 6.3-14 14s6.3 14 14 14 14-6.3 14-14-6.3-14-14-14z"/></symbol><symbol viewBox="0 0 64 64" id="module-setup" xmlns="http://www.w3.org/2000/svg"><path fill="#59F" d="M0 0h64v64H0z"/><path fill="#FFF" d="M46.6 41.2c-2.815-.768-4.974-1.825-6.976-2.678-.042.543-.243 1.113-.782 1.664-1.62 1.726-4.1 3.814-6.808 3.814-2.719 0-5.288-2.115-6.88-3.817-.558-.573-.743-1.177-.762-1.738-2.007.896-4.17 1.885-6.993 2.655 0 0-3.1 1.9-3.4 8.9h36c-.199-7.1-3.399-8.8-3.399-8.8z"/><path fill="#FFF" d="M40 20.5c0-3.6-3.2-6.5-7-6.5h-2c-3.6 0-7 2.9-7 6.5v5c0 2.109 1.628 4.713 3.5 6.553-.1 5.4-1.7 5.947-.9 6.747 2.5 2.7 8.1 2.9 10.8 0 .797-.797-.59-1.3-.896-6.747C38.333 30.215 39.942 27.59 40 25.5v-5z"/><path fill="#FFF" d="M33.77 57.25c-.824 0-1.668-.37-2.313-1.017l-1.69-1.689c-.646-.646-1.016-1.489-1.016-2.313s.37-1.668 1.016-2.314l10.856-10.989a9.014 9.014 0 01-.172-1.776c0-2.329.823-4.332 2.446-5.955 1.622-1.623 3.625-2.446 5.953-2.446.778 0 1.531.151 2.196.285l.111.022.106.042c.652.26 1.177.518 1.678.769.642.229 1.059.925 1.059 1.561 0 .648-.407 1.055-.626 1.274l-.114.114-4.2 2.449v2.079l1.638.968c.177-.116.384-.254.578-.384.542-.361 1.077-.66 1.549-.925.25-.14.489-.273.712-.408 1.164-.697 1.635-.697 1.813-.697.213 0 .778 0 1.274.496l.366.366v.29c.065.136.13.285.195.481l.064.192v.203c0 .599-.179 1.403-.479 2.154-.678 1.691-1.673 2.979-3.045 3.94-1.445 1.012-3.087 1.525-4.877 1.525a8.876 8.876 0 01-1.994-.219L36.09 56.229c-.652.651-1.495 1.021-2.32 1.021z"/><path fill="#59F" d="M48.85 30c.65 0 1.3.13 1.95.26.65.26 1.17.52 1.69.78.13 0 .26.26.26.39s-.13.26-.26.39l-4.68 2.73v3.51l2.86 1.69c.13 0 .52-.26 1.3-.78s1.56-.91 2.21-1.3 1.04-.52 1.17-.52c.13 0 .26 0 .39.13 0 .13.13.26.26.65 0 .39-.13 1.04-.39 1.69-.52 1.3-1.3 2.47-2.6 3.38-1.3.91-2.73 1.3-4.16 1.3-1.95 0-3.64-.65-5.07-2.08-1.43-1.43-2.08-3.12-2.08-5.07s.65-3.64 2.08-5.07C45.21 30.65 46.9 30 48.85 30m-7.54 10.01c.39 1.04 1.04 1.95 1.82 2.73.78.91 1.69 1.43 2.73 1.82L35.2 55.35c-.39.39-.91.65-1.43.65s-1.04-.26-1.43-.65l-1.69-1.69c-.39-.39-.65-.91-.65-1.43 0-.52.26-1.04.65-1.43l10.66-10.79m-6.5 12.22c.26 0 .52 0 .65-.26.13-.13.26-.39.26-.65s0-.39-.26-.65a.993.993 0 00-.65-.26c-.26 0-.39 0-.65.26-.13.13-.26.39-.26.65s0 .39.26.65c.13.13.39.26.65.26M48.85 27.5c-2.671 0-4.972.946-6.838 2.812-1.866 1.866-2.812 4.167-2.812 6.838 0 .462.028.913.085 1.353l-10.413 10.54c-.868.868-1.372 2.033-1.372 3.187s.504 2.319 1.382 3.198l1.69 1.69c.878.878 2.044 1.382 3.198 1.382s2.319-.504 3.198-1.382l10.308-10.434c.509.077 1.034.116 1.574.116a9.705 9.705 0 005.594-1.752c1.577-1.104 2.718-2.576 3.488-4.5.361-.904.569-1.858.569-2.618v-.406l-.128-.385a4.971 4.971 0 00-.132-.354v-.541l-.732-.732c-.572-.572-1.298-.862-2.158-.862-.464 0-1.162.1-2.456.876-.213.128-.441.255-.679.388-.471.264-1.002.561-1.556.925l-.349-.206v-.647l3.44-2.006.279-.163.229-.229c.271-.271.992-.992.992-2.158 0-1.114-.706-2.29-1.83-2.72a22.368 22.368 0 00-1.691-.771l-.213-.085-.225-.045c-.725-.145-1.545-.309-2.442-.309z"/></symbol><symbol viewBox="0 0 64 64" id="module-sites" xmlns="http://www.w3.org/2000/svg"><path fill="#439B92" d="M0 0h64v64H0z"/><path fill="#FFF" d="M14 12h36v40H14z"/><path fill="#439B92" d="M16 14h28v2H16z" opacity=".5"/><path fill="#439B92" d="M46 14h2v2h-2z"/><path fill="#439B92" d="M14 18h36v2H14z" opacity=".5"/><path fill="#439B92" d="M18 28h28v8H18zm0 10h10v14H18zm12 0h16v14H30z" opacity=".75"/><path fill="#439B92" d="M18 24h8v2h-8z"/><path fill="#439B92" d="M28 24h2v2h-2zm4 0h2v2h-2zm8 0h2v2h-2zm4 0h2v2h-2z" opacity=".5"/></symbol><symbol viewBox="0 0 64 64" id="module-taskcenter" xmlns="http://www.w3.org/2000/svg"><path fill="#3471A9" d="M0 0h64v64H0V0z"/><path fill="#FFF" d="M47 18H17a1 1 0 00-1 1v6a1 1 0 001 1h30a1 1 0 001-1v-6a1 1 0 00-1-1z"/><path fill="#3471A9" d="M38 20h8v4h-8z"/><path fill="#FFF" d="M47 28H17a1 1 0 00-1 1v6a1 1 0 001 1h30a1 1 0 001-1v-6a1 1 0 00-1-1z"/><path fill="#3471A9" d="M28 30h18v4H28z"/><path fill="#FFF" d="M47 38H17a1 1 0 00-1 1v6a1 1 0 001 1h30a1 1 0 001-1v-6a1 1 0 00-1-1z"/><path fill="#3471A9" d="M34 40h12v4H34z"/></symbol><symbol viewBox="0 0 64 64" id="module-templates" xmlns="http://www.w3.org/2000/svg"><rect width="64" height="64" fill="#B069BB" rx="0" ry="0"/><path fill="#FFF" d="M44 20v4H20v-4h24m2-2H18v8h28v-8zm-2 12v14h-4V30h4m2-2h-8v18h8V28zm-12 2v14H20V30h14m2-2H18v18h18V28z"/></symbol><symbol viewBox="0 0 64 64" id="module-tstemplate" xmlns="http://www.w3.org/2000/svg"><path fill="#1A568F" d="M0 0h64v64H0z"/><path fill="#FFF" d="M14 14h36v36H14z"/><path fill="#1A568F" d="M16 16h32v32H16z"/><path fill="#FFF" d="M18 18h28v8H18zm0 10h10v18H18zm12 0h16v18H30z"/></symbol><symbol viewBox="0 0 64 64" id="module-urls" xmlns="http://www.w3.org/2000/svg"><rect width="64" height="64" fill="#69bb7d" rx="0" ry="0"/><path fill="#FFF" d="M36 42v4h10V36H36v4h-8V26h8v4h10V20H36v4H26v8H16v2h10v8h10zm2-20h6v6h-6v-6zm0 16h6v6h-6v-6z"/></symbol><symbol viewBox="0 0 64 64" id="module-version" xmlns="http://www.w3.org/2000/svg"><path fill="#7A950F" d="M0 0h64v64H0z"/><g fill="#FFF"><path fill-rule="evenodd" d="M47.2 48H36.8c-1.6 0-2.9-1.3-2.9-2.9v-5.3l3.2 3.2c.7.7 1.6 1.1 2.6 1.1s1.9-.4 2.6-1.1l5.4-5.4c.7-.7 1.1-1.6 1.1-2.6v-.4c.7.5 1.2 1.4 1.2 2.3v8.3c0 1.5-1.3 2.8-2.8 2.8zm0-18h-1.8c-.4-5.3-2.4-8.7-6.1-10.2-1.3-.5-2.8-.8-4.6-.8-.2 0-.5 0-.7.1v-.2c0-1.6 1.3-2.9 2.9-2.9h10.3c1.6 0 2.9 1.3 2.9 2.9v8.3c-.1 1.5-1.4 2.8-2.9 2.8zm-18.6-9.3l-.1.1c-.3.1-.7.3-1.1.6-.9.6-1.5 1.7-1.5 2.8 0 1.8 1.5 3.3 3.4 3.3.2 0 .4 0 .7-.1-.1 1.4-1.4 2.6-2.8 2.6H16.8c-1.6 0-2.9-1.3-2.9-2.9v-8.3c0-1.6 1.3-2.9 2.9-2.9h10.3c1.6 0 2.9 1.3 2.9 2.9V20c-.4.3-.9.5-1.4.7zM16.8 34h10.3c1.6 0 2.9 1.3 2.9 2.9v8.3c0 1.6-1.3 2.9-2.9 2.9H16.8c-1.6 0-2.9-1.3-2.9-2.9v-8.3c.1-1.6 1.4-2.9 2.9-2.9z"/><path d="M34.7 22c1.2 0 2.4.1 3.5.6 3.7 1.5 4.3 5.8 4.3 9.3v2.4h2.7c.4 0 .7.3.7.7 0 .2-.1.4-.2.5l-5.4 5.4c-.2 0-.3.1-.5.1s-.4-.1-.5-.2l-5.4-5.4c-.1-.1-.2-.3-.2-.5 0-.4.3-.7.7-.7h2.7v-2.4c0-4.6-.9-7.6-5.9-7.6-.4 0-.9 0-1.3.1-.2 0-.4.1-.5.1-.2 0-.4-.1-.4-.3 0-.1.1-.2.2-.3.2-.2.6-.3.8-.4 1.2-.7 3.2-1.4 4.7-1.4z"/></g></symbol><symbol viewBox="0 0 64 64" id="module-viewpage" xmlns="http://www.w3.org/2000/svg"><path fill="#D04038" d="M0 0h64v64H0z"/><path fill="#FFF" d="M32 41.571c-6.5-.375-12-4.075-15.75-9.563 2.15-2.813 4.691-5.738 7.891-7.338-.8 1.4-1.141 3.326-1.141 4.926 0 5 4 8.657 9 8.6 5 .057 9-3.6 9-8.6 0-1.6-.262-3.626-1.062-4.926 3.1 1.6 5.562 4.526 7.812 7.338-3.65 5.488-9.25 9.188-15.75 9.563zm1-17.075c0 .5-.4 1-1 1-2.3 0-4.2 1.9-4.2 4.2 0 .5-.4 1-1 1s-1-.4-1-1c0-3.4 2.8-6.1 6.1-6.1.6-.1 1.1.4 1.1.9zm16.6 5.908c-3.7-6.1-10.5-10.2-17.6-10.2s-13.9 4.1-17.6 10.2c-.3.4-.4 1.293-.4 1.793s.2 1 .4 1.4c3.7 6.1 10.5 10.2 17.6 10.2s13.9-4.1 17.6-10.2c.3-.4.4-.9.4-1.4s-.2-1.393-.4-1.793z"/></symbol><symbol viewBox="0 0 64 64" id="module-workspaces" xmlns="http://www.w3.org/2000/svg"><path fill="#7A950F" d="M0 0h64v64H0z"/><path fill="#FFF" d="M49 26h-3v2h2v20H28v-2h-2v3c0 .6.4 1 1 1h22c.6 0 1-.4 1-1V27c0-.6-.4-1-1-1z"/><path fill="#FFF" d="M43 14H21c-.6 0-1 .4-1 1v3h2v-2h20v20h-2v2h3c.6 0 1-.4 1-1V15c0-.6-.4-1-1-1z"/><path fill="#FFF" d="M37 20H15c-.6 0-1 .4-1 1v22c0 .6.4 1 1 1h22c.6 0 1-.4 1-1V21c0-.6-.4-1-1-1zm-1 22H16V22h20v20z"/><path fill="#FFF" d="M20 18h2v2h-2zm18 18h2v2h-2zm6-10h2v2h-2zM26 44h2v2h-2z" opacity=".3"/></symbol></svg>