<?xml version="1.0" encoding="utf-8"?><svg class="typo3-icons-overlay" style="display: none;" xmlns="http://www.w3.org/2000/svg" xmlns:xlink="http://www.w3.org/1999/xlink"><symbol viewBox="0 0 11 11" id="overlay-advanced" xmlns="http://www.w3.org/2000/svg"><path fill="#639" d="M0 0h11v11H0z"/><path fill="#212121" d="M10 1v9H1V1h9m1-1H0v11h11V0z" opacity=".3"/><path fill="#FFF" d="M5 3h1v5H5z"/><path fill="#FFF" d="M3 5h5v1H3z"/></symbol><symbol viewBox="0 0 11 11" id="overlay-approved" xmlns="http://www.w3.org/2000/svg"><path fill="#79A548" d="M0 0h11v11H0z"/><path fill="#212121" d="M10 1v9H1V1h9m1-1H0v11h11V0z" opacity=".2"/><path fill="#FFF" d="M7.451 3.282L5.112 5.607 3.556 4.05 2.5 5.106l2.612 2.612L8.5 4.33z"/></symbol><symbol viewBox="0 0 11 11" id="overlay-backenduser" xmlns="http://www.w3.org/2000/svg"><path fill="#666" d="M5.725 0h-.45C3.818 0 2.588 1.205 2.588 2.631v1.237c0 .649.287 1.38.769 1.99a3.108 3.108 0 01-.044.301l-.288.127c-.441.196-.896.398-1.456.558l-.116.033-.105.06C1.135 7.059 0 7.809 0 10v1h11v-1c0-2.275-1.175-2.978-1.396-3.088L9.52 6.87l-.089-.026c-.562-.16-1.019-.364-1.461-.56l-.255-.113a3.819 3.819 0 01-.053-.338c.47-.606.751-1.327.751-1.966V2.631C8.412 1.156 7.232 0 5.725 0z"/><path fill="#FFC857" d="M9.156 7.806c-.949-.271-1.612-.642-2.272-.896-.063-.207-.214-.574-.25-1.418.454-.457.779-1.103.779-1.623V2.631c0-.9-.731-1.631-1.688-1.631h-.45c-.9 0-1.688.731-1.688 1.631v1.237c0 .525.329 1.177.789 1.635-.015.829-.171 1.194-.245 1.401-.666.254-1.331.629-2.287.902 0 0-.787.45-.844 2.194h9c-.056-1.8-.844-2.194-.844-2.194z"/><path fill="#59F" d="M9.156 7.806c-.95-.271-1.612-.642-2.273-.897.04.131.047.197-.034.278-.675.731-2.081.675-2.7 0-.082-.082-.066-.149-.017-.284-.666.254-1.332.629-2.289.903 0 0-.787.45-.844 2.194H10c-.056-1.8-.844-2.194-.844-2.194z"/></symbol><symbol viewBox="0 0 11 11" id="overlay-backendusers" xmlns="http://www.w3.org/2000/svg"><path fill="#666" d="M7.15 0h-.3C5.678 0 4.725.937 4.725 2.088v.825c0 .434.161.91.438 1.33a6.483 6.483 0 01-.875.333l-.117.033-.105.06c-.169.097-1.012.693-1.065 2.331L3 10h8V7c-.053-1.638-.897-2.234-1.066-2.331l-.105-.06-.117-.033a6.432 6.432 0 01-.875-.333c.277-.42.438-.897.438-1.33v-.825C9.276.937 8.322 0 7.15 0z"/><path fill="#FFC857" d="M9.438 5.538c-.637-.182-1.081-.432-1.525-.601-.049-.138-.153-.381-.164-.934.307-.305.527-.74.527-1.09v-.825C8.276 1.488 7.75 1 7.15 1h-.3c-.6 0-1.125.488-1.125 1.088v.825c0 .35.22.785.527 1.09-.01.553-.114.796-.164.934-.444.169-.888.419-1.525.601 0 0-.525.3-.562 1.462v1h6V7c-.039-1.162-.563-1.462-.563-1.462z"/><path fill="#ABD7FF" d="M9.438 5.538c-.633-.181-1.075-.428-1.515-.598.027.087.031.131-.022.185-.45.488-1.388.45-1.8 0-.055-.055-.044-.099-.011-.189-.444.169-.888.419-1.526.602 0 0-.525.3-.562 1.462v2h6V7c-.04-1.2-.564-1.462-.564-1.462z"/><g><path fill="#666" d="M4.15 2h-.3c-1.172 0-2.126.937-2.126 2.088v.825c0 .434.161.91.438 1.33a6.432 6.432 0 01-.875.333l-.117.033-.105.06C.897 6.766.054 7.362.001 9L0 11h8V9c-.053-1.638-.897-2.234-1.066-2.331l-.105-.06-.117-.033a6.432 6.432 0 01-.875-.333c.277-.42.438-.897.438-1.33v-.825C6.276 2.937 5.322 2 4.15 2z"/><path fill="#FFC857" d="M6.438 7.538c-.637-.182-1.081-.432-1.525-.601-.049-.138-.153-.381-.164-.934.307-.305.527-.74.527-1.09v-.825C5.276 3.488 4.75 3 4.15 3h-.3c-.6 0-1.125.488-1.125 1.088v.825c0 .35.22.785.527 1.09-.01.553-.114.796-.164.934-.444.169-.888.419-1.525.601 0 0-.525.3-.562 1.462v1h6V9c-.039-1.162-.563-1.462-.563-1.462z"/><path fill="#59F" d="M6.438 7.538c-.633-.181-1.075-.428-1.515-.598.027.087.031.131-.022.185-.45.488-1.388.45-1.8 0-.055-.055-.044-.099-.011-.189-.444.169-.888.419-1.526.602 0 0-.525.3-.562 1.462v1h6V9c-.04-1.2-.564-1.462-.564-1.462z"/></g></symbol><symbol viewBox="0 0 11 11" id="overlay-deleted" xmlns="http://www.w3.org/2000/svg"><path fill="#555" d="M8 0H3v1H0v4h1.126l.691 5.133.116.867h7.134l.116-.867L9.874 5H11V1H8V0z"/><path fill="#B9B9B9" d="M2 4h7l-.808 6H2.808L2 4z"/><path fill="#8C8C8C" d="M4 1h3v1H4z"/><path fill="#B9B9B9" d="M1 2h9v2H1z"/><path fill="#212121" d="M8.865 5L9 4H2l.135 1z" opacity=".15"/></symbol><symbol viewBox="0 0 11 11" id="overlay-edit" xmlns="http://www.w3.org/2000/svg"><path fill="#FFEDCF" d="M1 10V8l7-7h2v2l-7 7z"/><path fill="#333" d="M2.5 10H1V8.5z"/><path fill="#FF8700" d="M9 4L4 9 2 7l5-5z"/><path fill="#B9B9B9" d="M8 1l2 2-1 1-2-2z"/><path fill="#C83C3C" d="M10 3.2L7.8 1l.7-.7c.2-.2.6-.2.8 0l1.4 1.4c.2.2.2.6 0 .8l-.7.7z"/><path fill="#666" d="M10 1v2l-7 7H1V8l7-7h2M7.6 0L.3 7.3l-.3.3V11h3.4l.3-.3L11 3.4V0H7.6z"/></symbol><symbol viewBox="0 0 11 11" id="overlay-endtime" xmlns="http://www.w3.org/2000/svg"><circle cx="5.5" cy="5.5" r="5.5" fill="#C83C3C"/><path fill="#212121" d="M5.5 1C7.981 1 10 3.019 10 5.5S7.981 10 5.5 10 1 7.981 1 5.5 3.019 1 5.5 1m0-1a5.5 5.5 0 100 11 5.5 5.5 0 100-11z" opacity=".2"/><path fill="#FFF" d="M5 2h1v4H5z"/><path fill="#FFF" d="M5 5h3v1H5z"/></symbol><symbol viewBox="0 0 11 11" id="overlay-external-link" xmlns="http://www.w3.org/2000/svg"><path fill="#666" d="M8.05 0c-.705 0-1.369.276-1.87.776L4.823 2.134a2.628 2.628 0 00-.77 1.913h-.049c-.705 0-1.369.276-1.869.776L.776 6.18A2.632 2.632 0 000 8.05c0 .705.276 1.369.777 1.869l.305.305c.5.5 1.164.776 1.869.776.705 0 1.369-.276 1.869-.776l1.358-1.358a2.63 2.63 0 00.77-1.918l.059.001c.702 0 1.362-.274 1.859-.771l1.358-1.358a2.645 2.645 0 000-3.738L9.919.776A2.63 2.63 0 008.05 0z"/><path fill="#DDD" d="M8.05 1c-.42 0-.84.161-1.162.483L5.53 2.841a1.64 1.64 0 000 2.324l.305.305a1.64 1.64 0 002.324 0l1.358-1.358a1.64 1.64 0 000-2.324l-.305-.305A1.638 1.638 0 008.05 1zm-.125.766c.298-.015.639.123.913.396.437.437.527 1.05.202 1.377L7.587 4.992c-.326.326-.941.237-1.378-.2s-.526-1.051-.2-1.378L7.461 1.96a.69.69 0 01.464-.194zM4.003 5.047c-.42 0-.84.161-1.162.483L1.483 6.887a1.64 1.64 0 000 2.324l.305.305a1.64 1.64 0 002.324 0L5.47 8.159a1.64 1.64 0 000-2.324l-.305-.305a1.64 1.64 0 00-1.162-.483zm-.126.766c.298-.015.64.123.914.396.437.437.526 1.051.2 1.378L3.538 9.04c-.326.326-.94.236-1.377-.201-.437-.437-.527-1.051-.201-1.377l1.453-1.453a.69.69 0 01.464-.196z"/><path fill="#212121" d="M5.529 5.166l.305.305c.234.234.521.381.821.444l.899-.899c-.333.293-.922.2-1.347-.224.217-.141-.782.138-.678.374zm-.36.366l.305.305c.234.234.381.521.444.821l-.899.899c.293-.333.2-.923-.224-1.347-.142.217.136-.782.374-.678z" opacity=".3"/><path fill="#FFF" d="M3.452 6.496l3.049-3.049c.175-.175.553-.081.843.209.29.29.384.668.209.843L4.504 7.548c-.175.175-.553.081-.843-.209-.29-.29-.384-.668-.209-.843z"/></symbol><symbol viewBox="0 0 11 11" id="overlay-frontenduser" xmlns="http://www.w3.org/2000/svg"><path fill="#666" d="M5.725 0h-.45C3.818 0 2.588 1.205 2.588 2.631v1.237c0 .649.287 1.38.769 1.99a3.108 3.108 0 01-.044.301l-.288.127c-.441.196-.896.398-1.456.558l-.116.033-.105.06C1.135 7.059 0 7.809 0 10v1h11v-1c0-2.275-1.175-2.978-1.396-3.088L9.52 6.87l-.089-.026c-.562-.16-1.019-.364-1.461-.56l-.255-.113a3.819 3.819 0 01-.053-.338c.47-.606.751-1.327.751-1.966V2.631C8.412 1.156 7.232 0 5.725 0z"/><path fill="#FFC857" d="M9.156 7.806c-.949-.271-1.612-.642-2.272-.896-.063-.207-.214-.574-.25-1.418.454-.457.779-1.103.779-1.623V2.631c0-.9-.731-1.631-1.688-1.631h-.45c-.9 0-1.688.731-1.688 1.631v1.237c0 .525.329 1.177.789 1.635-.015.829-.171 1.194-.245 1.401-.666.254-1.331.629-2.287.902 0 0-.787.45-.844 2.194h9c-.056-1.8-.844-2.194-.844-2.194z"/><path fill="#79A548" d="M9.156 7.806c-.95-.271-1.612-.642-2.273-.897.04.131.047.197-.034.278-.675.731-2.081.675-2.7 0-.082-.082-.066-.149-.017-.284-.666.254-1.332.629-2.289.903 0 0-.787.45-.844 2.194H10c-.056-1.8-.844-2.194-.844-2.194z"/></symbol><symbol viewBox="0 0 11 11" id="overlay-frontendusers" xmlns="http://www.w3.org/2000/svg"><path fill="#666" d="M7.15 0h-.3C5.678 0 4.725.937 4.725 2.088v.825c0 .434.161.91.438 1.33a6.483 6.483 0 01-.875.333l-.117.033-.105.06c-.169.097-1.012.693-1.065 2.331L3 10h8V7c-.053-1.638-.897-2.234-1.066-2.331l-.105-.06-.117-.033a6.432 6.432 0 01-.875-.333c.277-.42.438-.897.438-1.33v-.825C9.276.937 8.322 0 7.15 0z"/><path fill="#FFC857" d="M9.438 5.538c-.637-.182-1.081-.432-1.525-.601-.049-.138-.153-.381-.164-.934.307-.305.527-.74.527-1.09v-.825C8.276 1.488 7.75 1 7.15 1h-.3c-.6 0-1.125.488-1.125 1.088v.825c0 .35.22.785.527 1.09-.01.553-.114.796-.164.934-.444.169-.888.419-1.525.601 0 0-.525.3-.562 1.462v1h6V7c-.039-1.162-.563-1.462-.563-1.462z"/><path fill="#AAD400" d="M9.438 5.538c-.633-.181-1.075-.428-1.515-.598.027.087.031.131-.022.185-.45.488-1.388.45-1.8 0-.055-.055-.044-.099-.011-.189-.444.169-.888.419-1.526.602 0 0-.525.3-.562 1.462v2h6V7c-.04-1.2-.564-1.462-.564-1.462z"/><g><path fill="#666" d="M4.15 2h-.3c-1.172 0-2.126.937-2.126 2.088v.825c0 .434.161.91.438 1.33a6.432 6.432 0 01-.875.333l-.117.033-.105.06C.897 6.766.054 7.362.001 9L0 11h8V9c-.053-1.638-.897-2.234-1.066-2.331l-.105-.06-.117-.033a6.432 6.432 0 01-.875-.333c.277-.42.438-.897.438-1.33v-.825C6.276 2.937 5.322 2 4.15 2z"/><path fill="#FFC857" d="M6.438 7.538c-.637-.182-1.081-.432-1.525-.601-.049-.138-.153-.381-.164-.934.307-.305.527-.74.527-1.09v-.825C5.276 3.488 4.75 3 4.15 3h-.3c-.6 0-1.125.488-1.125 1.088v.825c0 .35.22.785.527 1.09-.01.553-.114.796-.164.934-.444.169-.888.419-1.525.601 0 0-.525.3-.562 1.462v1h6V9c-.039-1.162-.563-1.462-.563-1.462z"/><path fill="#79A548" d="M6.438 7.538c-.633-.181-1.075-.428-1.515-.598.027.087.031.131-.022.185-.45.488-1.388.45-1.8 0-.055-.055-.044-.099-.011-.189-.444.169-.888.419-1.526.602 0 0-.525.3-.562 1.462v1h6V9c-.04-1.2-.564-1.462-.564-1.462z"/></g></symbol><symbol viewBox="0 0 11 11" id="overlay-hidden" xmlns="http://www.w3.org/2000/svg"><circle cx="5.5" cy="5.5" r="5.5" fill="#C83C3C"/><path fill="#FFF" d="M3 5h5v1H3V5z"/><path fill="#212121" d="M5.5 1C8 1 10 3 10 5.5S8 10 5.5 10 1 8 1 5.5 3 1 5.5 1m0-1C2.5 0 0 2.5 0 5.5S2.5 11 5.5 11 11 8.5 11 5.5 8.5 0 5.5 0z" opacity=".2"/></symbol><symbol viewBox="0 0 11 11" id="overlay-includes-subpages" xmlns="http://www.w3.org/2000/svg"><circle cx="5.5" cy="5.5" r="5.5" fill="#59F"/><path fill="#212121" d="M5.5 1C8 1 10 3 10 5.5S8 10 5.5 10 1 8 1 5.5 3 1 5.5 1m0-1C2.5 0 0 2.5 0 5.5S2.5 11 5.5 11 11 8.5 11 5.5 8.5 0 5.5 0z" opacity=".2"/><path fill="#FFF" d="M6 5.5l-3 3v-6zm3 0l-3 3v-6z"/></symbol><symbol viewBox="0 0 11 11" id="overlay-info" xmlns="http://www.w3.org/2000/svg"><circle cx="5.5" cy="5.5" r="5.5" fill="#59F"/><path fill="#FFF" d="M5 5h1v3H5zm0-2h1v1H5z"/><path fill="#212121" d="M5.5 1C8 1 10 3 10 5.5S8 10 5.5 10 1 8 1 5.5 3 1 5.5 1m0-1C2.5 0 0 2.5 0 5.5S2.5 11 5.5 11 11 8.5 11 5.5 8.5 0 5.5 0z" opacity=".2"/></symbol><symbol viewBox="0 0 11 11" id="overlay-list" xmlns="http://www.w3.org/2000/svg"><path fill="#666" d="M0 0h11v11H0z"/><path fill="#FFF" d="M1 1h9v9H1z"/><path fill="#FF8700" d="M2 3h1v1H2zm0 2h1v1H2zm0 2h1v1H2z"/><path fill="#AAA" d="M4 3h5v1H4zm0 2h5v1H4zm0 2h5v1H4z"/></symbol><symbol viewBox="0 0 11 11" id="overlay-locked" xmlns="http://www.w3.org/2000/svg"><path fill="#666" d="M9.972 4C9.723 1.753 7.812 0 5.5 0S1.277 1.753 1.028 4H0v7h11V4H9.972zM4.634 4a1 1 0 011.732 0H4.634z"/><path fill="#FFC857" d="M1 5h9v5H1z"/><path fill="#AAA" d="M3.5 5v-.5c0-1.103.897-2 2-2s2 .897 2 2V5H9v-.5a3.5 3.5 0 10-7 0V5h1.5z"/><path fill="#212121" d="M6.5 7a1 1 0 00-2 0c0 .366.206.673.5.847V9h1V7.847A.985.985 0 006.5 7z" opacity=".3"/></symbol><symbol viewBox="0 0 11 11" id="overlay-media" xmlns="http://www.w3.org/2000/svg"><path fill="#59F" d="M0 0h11v11H0z"/><path fill="#212121" d="M10 1v9H1V1h9m1-1H0v11h11V0z" opacity=".2"/><path fill="#FFF" d="M7 9H2l1.25-2L4.5 5l1.25 2L7 9z"/><path fill="#FFF" d="M9 9H4l1.25-1.5L6.5 6l1.25 1.5L9 9z"/><circle cx="8" cy="4" r="1" fill="#FFF"/></symbol><symbol viewBox="0 0 11 11" id="overlay-missing" xmlns="http://www.w3.org/2000/svg"><circle cx="5.5" cy="5.5" r="5.5" fill="#C83C3C"/><path fill="#FFF" d="M5 3h1v3H5zm0 4h1v1H5z"/><path fill="#212121" d="M5.5 1C8 1 10 3 10 5.5S8 10 5.5 10 1 8 1 5.5 3 1 5.5 1m0-1C2.5 0 0 2.5 0 5.5S2.5 11 5.5 11 11 8.5 11 5.5 8.5 0 5.5 0z" opacity=".2"/></symbol><symbol viewBox="0 0 11 11" id="overlay-mountpoint" xmlns="http://www.w3.org/2000/svg"><path fill="#C83C3C" d="M0 0h11v11H0V0z"/><path fill="#212121" d="M10 1v9H1V1h9m1-1H0v11h11V0z" opacity=".2"/><path fill="#FFF" d="M6 8L2 5.5 6 3v2h3v1H6z"/></symbol><symbol viewBox="0 0 11 11" id="overlay-new" xmlns="http://www.w3.org/2000/svg"><circle cx="5.5" cy="5.5" r="5.5" fill="#79A548"/><path fill="#FFF" d="M3 5h5v1H3V5z"/><path fill="#FFF" d="M5 3h1v5H5V3z"/><path fill="#212121" d="M5.5 1C8 1 10 3 10 5.5S8 10 5.5 10 1 8 1 5.5 3 1 5.5 1m0-1C2.5 0 0 2.5 0 5.5S2.5 11 5.5 11 11 8.5 11 5.5 8.5 0 5.5 0z" opacity=".2"/></symbol><symbol viewBox="0 0 11 11" id="overlay-news" xmlns="http://www.w3.org/2000/svg"><path fill="#FFF" d="M0 0h11v11H0z"/><path fill="#666" d="M10 1v9H1V1h9m1-1H0v11h11V0z"/><path fill="#333" d="M2 2h7v1H2z"/><path fill="#59F" d="M2 4h3v3H2z"/><path fill="#AAA" d="M2 8h3v1H2zm4 0h3v1H6zm0-2h3v1H6zm0-2h3v1H6z"/></symbol><symbol viewBox="0 0 11 11" id="overlay-readonly" xmlns="http://www.w3.org/2000/svg"><circle cx="5.5" cy="5.5" r="5.5" fill="#C83C3C"/><path fill="#FFF" d="M2.8 7.1L7 2.9 8.1 4 3.9 8.2 2.8 7.1z"/><path fill="#FFF" d="M2.8 3.9l1.1-1.1L8.1 7l-1 1.2-4.3-4.3z"/><path fill="#212121" d="M5.5 1C8 1 10 3 10 5.5S8 10 5.5 10 1 8 1 5.5 3 1 5.5 1m0-1C2.5 0 0 2.5 0 5.5S2.5 11 5.5 11 11 8.5 11 5.5 8.5 0 5.5 0z" opacity=".2"/></symbol><symbol viewBox="0 0 11 11" id="overlay-restricted" xmlns="http://www.w3.org/2000/svg"><path fill="#666" d="M5.725 0h-.45C3.818 0 2.588 1.205 2.588 2.631v1.237c0 .649.287 1.38.769 1.99a2.784 2.784 0 01-.045.302l-.288.127c-.44.196-.896.398-1.455.558l-.116.033-.105.06C1.135 7.059 0 7.809 0 10v1h11v-1c0-2.275-1.175-2.978-1.396-3.088L9.52 6.87l-.089-.025c-.562-.16-1.019-.364-1.461-.56a42.292 42.292 0 00-.255-.113 3.48 3.48 0 01-.053-.338c.47-.606.751-1.327.751-1.966V2.631C8.412 1.156 7.232 0 5.725 0z"/><path fill="#FFC857" d="M9.156 7.806c-.949-.271-1.611-.642-2.272-.896-.063-.207-.214-.574-.25-1.418.454-.457.779-1.103.779-1.623V2.631C7.412 1.731 6.681 1 5.725 1h-.45c-.9 0-1.688.731-1.688 1.631v1.237c0 .525.329 1.177.789 1.635-.015.829-.171 1.194-.245 1.401-.665.254-1.331.629-2.287.902 0 0-.787.45-.844 2.194h9c-.056-1.8-.844-2.194-.844-2.194z"/><path fill="#79A548" d="M9.156 7.806c-.949-.271-1.612-.642-2.272-.896.04.13.046.197-.034.278-.675.731-2.081.675-2.7 0-.082-.082-.066-.15-.017-.285-.666.254-1.332.63-2.289.903 0 0-.788.45-.844 2.194h9c-.056-1.8-.844-2.194-.844-2.194z"/></symbol><symbol viewBox="0 0 11 11" id="overlay-scheduled" xmlns="http://www.w3.org/2000/svg"><circle cx="5.5" cy="5.5" r="5.5" fill="#FFF"/><path fill="#212121" d="M5.5 1C7.981 1 10 3.019 10 5.5S7.981 10 5.5 10 1 7.981 1 5.5 3.019 1 5.5 1m0-1a5.5 5.5 0 100 11 5.5 5.5 0 100-11z"/><path fill="#C83C3C" d="M5 2h1v4H5z"/><path fill="#C83C3C" d="M5 5h3v1H5z"/></symbol><symbol viewBox="0 0 11 11" id="overlay-shop" xmlns="http://www.w3.org/2000/svg"><path fill="#666" d="M0 0h11v11H0z"/><path fill="#FFF" d="M1 1h9v9H1z"/><path fill="#333" d="M2 2h1v7H2zm4 0h1v5H6zM4 2h1v5H4zm4 0h1v7H8z"/><path fill="#AAA" d="M4 8h3v1H4z"/></symbol><symbol viewBox="0 0 11 11" id="overlay-shortcut" xmlns="http://www.w3.org/2000/svg"><path fill="#666" d="M0 0h11v11H0z"/><path fill="#FFF" d="M1 1h9v9H1z"/><path fill="#212121" d="M5 6H4v2H3V5h2V3l4 2.5L5 8z"/></symbol><symbol viewBox="0 0 11 11" id="overlay-translated" xmlns="http://www.w3.org/2000/svg"><circle cx="5.5" cy="5.5" r="5.5" fill="#59F"/><path fill="#212121" d="M5.5 1C7.982 1 10 3.019 10 5.5S7.982 10 5.5 10 1 7.981 1 5.5 3.019 1 5.5 1m0-1a5.5 5.5 0 100 11 5.5 5.5 0 000-11z" opacity=".2"/><path fill="#AAD400" d="M9.983 5.1a4.521 4.521 0 00-2.279-3.523c-.059.063-.075.026-.075.088-.178.063-.416-.062-.594-.124a2.073 2.073 0 00-1.364-.063c-.178.063-.592.125-.415.499.118.188.415.375.712.125.118-.125.238-.312.415-.125.06.063.06.125.06.188-.06.186-.238.249-.415.249-.238.062-.476 0-.712.062-.239.064-.595.126-.595.438 0 .373-.119.436-.416.498-.238 0-.355.125-.238.374.06.186.238.186.357.125.474-.249.89-.873 1.423-.125l.118-.062c.119-.499.238-.186.356 0l.179.187c.711-.685.533.312.771.499-.475-.125-1.009.374-1.424.062-.711-.561-1.186-.311-1.838.249-.534.438-.652.998-.534 1.497.178.624.83.686 1.365.561.177-.063.534-.063.534.062-.12.561.533.935.295 1.558-.177.499.12 1.122.534 1.309.416.186.771-.312.95-.748.059-.062 0-.186.059-.249.474-.624.415-1.558 1.008-2.182.178-.186.771-.872.296-1.434 1.127-.312.714.81.95 1.31.177-.374.295-.748.414-1.061a.913.913 0 01.103-.244zM3.538 1.778c.187-.197.195-.229.382-.492-.391.138-.883.41-1.236.706l.108.114h.561s.062 0 .062-.064l.062-.066s.062 0 .062-.066l.062-.066.062-.066c-.186.132-.186.066-.125 0 0 .066 0 .066 0 0 0 .066 0 0 0 0zm-.824 6.068s-.061-.059 0 0c-.061-.059-.061-.059 0 0v-.177l-.061-.059c-.061 0-.061-.06-.122-.06s-.123-.06-.184-.06h-.123s-.061 0-.061-.059c-.43-.238-.613-.652-.736-1.126 0-.119-.061-.238-.061-.356-.06-.06-.06-.119-.122-.179-.122-.118-.06-.355.062-.593v-.118c0-.06 0-.06.061-.119 0-.058 0-.058.062-.118.122-.238.368-.415.49-.593.061-.059.061-.059.061-.118v-.059c.061-.059.061-.178.122-.238 0-.058.062-.177.062-.237 0-.119 0-.178-.062-.296-.062-.178-.099-.332-.221-.451C1.329 3.601 1 4.466 1 5.474a4.49 4.49 0 001.552 3.423s.039.017.039-.041v-.06c0-.059.061-.059.061-.118.062-.24.062-.594.062-.832z"/></symbol><symbol viewBox="0 0 11 11" id="overlay-warning" xmlns="http://www.w3.org/2000/svg"><path fill="#FBB03B" d="M10.251 11H.749a.75.75 0 01-.663-1.097L4.837.774a.748.748 0 011.327 0l4.751 9.129A.75.75 0 0110.251 11z"/><path fill="#212121" d="M5.5 1.666L9.837 10H1.163L5.5 1.666m0-1.295a.739.739 0 00-.663.403L.086 9.903A.75.75 0 00.749 11h9.502a.75.75 0 00.663-1.097L6.163.774A.74.74 0 005.5.371z" opacity=".2"/><path fill="#FFF" d="M6 8v1H5V8h1zm0-4v3H5V4h1z"/></symbol></svg>