<?xml version="1.0" encoding="utf-8"?><svg class="typo3-icons-spinner" style="display: none;" xmlns="http://www.w3.org/2000/svg" xmlns:xlink="http://www.w3.org/1999/xlink"><symbol viewBox="0 0 16 16" id="spinner-circle" xmlns="http://www.w3.org/2000/svg"><g class="icon-color"><path d="M8 15c-3.86 0-7-3.141-7-7 0-3.86 3.14-7 7-7 3.859 0 7 3.14 7 7 0 3.859-3.141 7-7 7zM8 3C5.243 3 3 5.243 3 8s2.243 5 5 5 5-2.243 5-5-2.243-5-5-5z" opacity=".3"/><path d="M14 9a1 1 0 01-1-1c0-2.757-2.243-5-5-5a1 1 0 010-2c3.859 0 7 3.14 7 7a1 1 0 01-1 1z"/></g></symbol><symbol viewBox="0 0 16 16" id="spinner-circle-dark" xmlns="http://www.w3.org/2000/svg"><g fill="#212121"><path d="M8 15c-3.86 0-7-3.141-7-7 0-3.86 3.14-7 7-7 3.859 0 7 3.14 7 7 0 3.859-3.141 7-7 7zM8 3C5.243 3 3 5.243 3 8s2.243 5 5 5 5-2.243 5-5-2.243-5-5-5z" opacity=".3"/><path d="M14 9a1 1 0 01-1-1c0-2.757-2.243-5-5-5a1 1 0 010-2c3.859 0 7 3.14 7 7a1 1 0 01-1 1z"/></g></symbol><symbol viewBox="0 0 16 16" id="spinner-circle-light" xmlns="http://www.w3.org/2000/svg"><g fill="#fff"><path d="M8 15c-3.86 0-7-3.141-7-7 0-3.86 3.14-7 7-7 3.859 0 7 3.14 7 7 0 3.859-3.141 7-7 7zM8 3C5.243 3 3 5.243 3 8s2.243 5 5 5 5-2.243 5-5-2.243-5-5-5z" opacity=".3"/><path d="M14 9a1 1 0 01-1-1c0-2.757-2.243-5-5-5a1 1 0 010-2c3.859 0 7 3.14 7 7a1 1 0 01-1 1z"/></g></symbol></svg>