<?xml version="1.0" encoding="utf-8"?><svg class="typo3-icons-status" style="display: none;" xmlns="http://www.w3.org/2000/svg" xmlns:xlink="http://www.w3.org/1999/xlink"><symbol viewBox="0 0 16 16" id="status-user-admin" xmlns="http://www.w3.org/2000/svg"><path fill="#FF8700" d="M14.5 12.1c-1.688-.482-2.866-1.142-4.04-1.594.072.232.083.351-.06.494-1.2 1.3-3.7 1.2-4.8 0-.145-.145-.118-.265-.031-.505-1.184.451-2.368 1.119-4.069 1.605 0 0-1.4.8-1.5 3.9h16c-.1-3.2-1.5-3.9-1.5-3.9z"/><path fill="#212121" d="M1.097 15c.214-1.294.7-1.843.853-1.99 1.102-.329 1.992-.724 2.782-1.075l.269-.119c.731.705 1.843 1.121 3.017 1.121 1.182 0 2.268-.416 2.983-1.121l.267.118c.793.352 1.688.749 2.796 1.079.161.143.638.666.845 1.986L15 16h1c-.1-3.2-1.5-3.9-1.5-3.9-1.688-.482-2.866-1.142-4.04-1.594.072.232.083.351-.06.494-.588.637-1.488.938-2.383.938-.931 0-1.856-.326-2.417-.938-.145-.145-.118-.265-.031-.505-1.184.451-2.368 1.119-4.069 1.605 0 0-1.4.8-1.5 3.9h1l.097-1z" opacity=".15"/><path fill="#FFC857" d="M8 9c-.709 0-1.411-.411-1.997-.994-.045 2.422-.77 2.627-.403 2.994 1.1 1.2 3.6 1.3 4.8 0 .368-.368-.278-.573-.384-3.014C9.426 8.58 8.717 9 8 9z"/><path fill="#212121" d="M5.251 10.627c.105-.043.213-.092.318-.132-.087.24-.114.36.031.505.132.143.285.269.452.381l.301-.115.155-.433.028-.077c.128-.349.346-.957.432-2.04a3.815 3.815 0 01-.965-.71c-.028 1.473-.305 2.121-.437 2.489-.104.04-.21.089-.315.132z" opacity=".15"/><path d="M9.505 10.799l.142.466.298.115c.164-.111.32-.234.455-.38.142-.143.131-.262.06-.494l.002.001c-.112-.368-.38-1.02-.445-2.521a3.884 3.884 0 01-.952.714c.098 1.032.289 1.63.401 1.975l.039.124z" opacity=".15"/><path fill="#FFC857" d="M8 9C6.3 9 4.6 6.7 4.6 5.1V2.9C4.6 1.3 6 0 7.6 0h.8c1.7 0 3 1.3 3 2.9v2.2C11.4 6.7 9.7 9 8 9z"/><path fill="#212121" d="M8.4 1c1.122 0 2 .835 2 1.9v2.2C10.4 6.219 9.09 8 8 8S5.6 6.219 5.6 5.1V2.9c0-1.012.935-1.9 2-1.9h.8m0-1h-.8c-1.6 0-3 1.3-3 2.9v2.2C4.6 6.7 6.3 9 8 9s3.4-2.3 3.4-3.9V2.9c0-1.6-1.3-2.9-3-2.9z" opacity=".15"/></symbol><symbol viewBox="0 0 16 16" id="status-user-backend" xmlns="http://www.w3.org/2000/svg"><path fill="#59F" d="M14.5 12.1c-1.688-.482-2.866-1.142-4.04-1.594.072.232.083.351-.06.494-1.2 1.3-3.7 1.2-4.8 0-.145-.145-.118-.265-.031-.505-1.184.451-2.368 1.119-4.069 1.605 0 0-1.4.8-1.5 3.9h16c-.1-3.2-1.5-3.9-1.5-3.9z"/><path fill="#212121" d="M1.097 15c.214-1.294.7-1.843.853-1.99 1.102-.329 1.992-.724 2.782-1.075l.269-.119c.731.705 1.843 1.121 3.017 1.121 1.182 0 2.268-.416 2.983-1.121l.267.118c.793.352 1.688.749 2.796 1.079.161.143.638.666.845 1.986L15 16h1c-.1-3.2-1.5-3.9-1.5-3.9-1.688-.482-2.866-1.142-4.04-1.594.072.232.083.351-.06.494-.588.637-1.488.938-2.383.938-.931 0-1.856-.326-2.417-.938-.145-.145-.118-.265-.031-.505-1.184.451-2.368 1.119-4.069 1.605 0 0-1.4.8-1.5 3.9h1l.097-1z" opacity=".15"/><path fill="#FFC857" d="M8 9c-.709 0-1.411-.411-1.997-.994-.045 2.422-.77 2.627-.403 2.994 1.1 1.2 3.6 1.3 4.8 0 .368-.368-.278-.573-.384-3.014C9.426 8.58 8.717 9 8 9z"/><path fill="#212121" d="M5.251 10.627c.105-.043.213-.092.318-.132-.087.24-.114.36.031.505.132.143.285.269.452.381l.301-.115.155-.433.028-.077c.128-.349.346-.957.432-2.04a3.815 3.815 0 01-.965-.71c-.028 1.473-.305 2.121-.437 2.489-.104.04-.21.089-.315.132zm4.254.172l.142.466.298.115c.164-.111.32-.234.455-.38.142-.143.131-.262.06-.494l.002.001c-.112-.368-.38-1.02-.445-2.521a3.884 3.884 0 01-.952.714c.098 1.032.289 1.63.401 1.975l.039.124z" opacity=".15"/><path fill="#FFC857" d="M8 9C6.3 9 4.6 6.7 4.6 5.1V2.9C4.6 1.3 6 0 7.6 0h.8c1.7 0 3 1.3 3 2.9v2.2C11.4 6.7 9.7 9 8 9z"/><path fill="#212121" d="M8.4 1c1.122 0 2 .835 2 1.9v2.2C10.4 6.219 9.09 8 8 8S5.6 6.219 5.6 5.1V2.9c0-1.012.935-1.9 2-1.9h.8m0-1h-.8c-1.6 0-3 1.3-3 2.9v2.2C4.6 6.7 6.3 9 8 9s3.4-2.3 3.4-3.9V2.9c0-1.6-1.3-2.9-3-2.9z" opacity=".15"/></symbol><symbol viewBox="0 0 16 16" id="status-user-frontend" xmlns="http://www.w3.org/2000/svg"><path fill="#79A548" d="M14.5 12.1c-1.688-.482-2.866-1.142-4.04-1.594.072.232.083.351-.06.494-1.2 1.3-3.7 1.2-4.8 0-.145-.145-.118-.265-.031-.505-1.184.451-2.368 1.119-4.069 1.605 0 0-1.4.8-1.5 3.9h16c-.1-3.2-1.5-3.9-1.5-3.9z"/><path fill="#212121" d="M1.097 15c.214-1.294.7-1.843.853-1.99 1.102-.329 1.992-.724 2.782-1.075l.269-.119c.731.705 1.843 1.121 3.017 1.121 1.182 0 2.268-.416 2.983-1.121l.267.118c.793.352 1.688.749 2.796 1.079.161.143.638.666.845 1.986L15 16h1c-.1-3.2-1.5-3.9-1.5-3.9-1.688-.482-2.866-1.142-4.04-1.594.072.232.083.351-.06.494-.588.637-1.488.938-2.383.938-.931 0-1.856-.326-2.417-.938-.145-.145-.118-.265-.031-.505-1.184.451-2.368 1.119-4.069 1.605 0 0-1.4.8-1.5 3.9h1l.097-1z" opacity=".15"/><path fill="#FFC857" d="M8 9c-.709 0-1.411-.411-1.997-.994-.045 2.422-.77 2.627-.403 2.994 1.1 1.2 3.6 1.3 4.8 0 .368-.368-.278-.573-.384-3.014C9.426 8.58 8.717 9 8 9z"/><path fill="#212121" d="M5.251 10.627c.105-.043.213-.092.318-.132-.087.24-.114.36.031.505.132.143.285.269.452.381l.301-.115.155-.433.028-.077c.128-.349.346-.957.432-2.04a3.815 3.815 0 01-.965-.71c-.028 1.473-.305 2.121-.437 2.489-.104.04-.21.089-.315.132zm4.254.172l.142.466.298.115c.164-.111.32-.234.455-.38.142-.143.131-.262.06-.494l.002.001c-.112-.368-.38-1.02-.445-2.521a3.884 3.884 0 01-.952.714c.098 1.032.289 1.63.401 1.975l.039.124z" opacity=".15"/><path fill="#FFC857" d="M8 9C6.3 9 4.6 6.7 4.6 5.1V2.9C4.6 1.3 6 0 7.6 0h.8c1.7 0 3 1.3 3 2.9v2.2C11.4 6.7 9.7 9 8 9z"/><path fill="#212121" d="M8.4 1c1.122 0 2 .835 2 1.9v2.2C10.4 6.219 9.09 8 8 8S5.6 6.219 5.6 5.1V2.9c0-1.012.935-1.9 2-1.9h.8m0-1h-.8c-1.6 0-3 1.3-3 2.9v2.2C4.6 6.7 6.3 9 8 9s3.4-2.3 3.4-3.9V2.9c0-1.6-1.3-2.9-3-2.9z" opacity=".15"/></symbol><symbol viewBox="0 0 16 16" id="status-user-group-backend" xmlns="http://www.w3.org/2000/svg"><path fill="#ABD7FF" d="M14.969 9.319c-1.16-.331-1.97-.785-2.778-1.096.049.16.057.241-.041.34-.825.894-2.544.825-3.3 0-.1-.1-.081-.182-.021-.347-.814.31-1.628.769-2.797 1.103 0 0-.963.55-1.031 2.681H16c-.069-2.2-1.031-2.681-1.031-2.681z"/><path fill="#212121" d="M5.754 11.313c.147-.89.481-1.267.586-1.368.758-.226 1.37-.498 1.913-.739l.185-.083c.503.485 1.267.771 2.074.771.813 0 1.559-.286 2.051-.771l.184.081c.545.242 1.16.515 1.922.742.111.098.439.458.581 1.365l.063.689H16c-.069-2.2-1.031-2.681-1.031-2.681-1.16-.331-1.97-.785-2.778-1.096.049.16.057.241-.041.34-.404.437-1.023.644-1.638.644-.64 0-1.276-.224-1.662-.645-.1-.1-.081-.182-.021-.347-.814.31-1.628.769-2.797 1.103 0 0-.963.55-1.031 2.681h.688l.065-.686z" opacity=".15"/><path fill="#FFC857" d="M10.5 7.188c-.487 0-.97-.283-1.373-.683-.031 1.664-.529 1.805-.277 2.058.756.825 2.475.894 3.3 0 .253-.253-.191-.394-.264-2.072-.406.408-.893.697-1.386.697z"/><path fill="#212121" d="M8.61 8.306c.072-.03.146-.063.219-.091-.06.165-.079.248.021.348.091.098.196.185.311.262l.207-.079.107-.298.019-.053c.088-.24.238-.658.297-1.403a2.63 2.63 0 01-.663-.488c-.019 1.013-.21 1.458-.3 1.711-.073.028-.146.061-.218.091zm2.925.118l.098.32.205.079c.113-.076.22-.161.313-.261.098-.098.09-.18.041-.34l.001.001c-.077-.253-.261-.701-.306-1.733-.202.203-.421.37-.655.491.067.709.199 1.121.276 1.358l.027.085z" opacity=".15"/><path fill="#FFC857" d="M10.5 7.188c-1.169 0-2.337-1.581-2.337-2.681V2.994c0-1.1.962-1.994 2.062-1.994h.55c1.169 0 2.063.894 2.063 1.994v1.513c-.001 1.099-1.169 2.681-2.338 2.681z"/><path fill="#212121" d="M10.775 1.688c.771 0 1.375.574 1.375 1.306v1.513c0 .769-.901 1.994-1.65 1.994S8.85 5.276 8.85 4.506V2.994c0-.696.643-1.306 1.375-1.306h.55m0-.688h-.55c-1.1 0-2.063.894-2.063 1.994v1.513c0 1.1 1.169 2.681 2.337 2.681s2.337-1.581 2.337-2.681V2.994C12.837 1.894 11.944 1 10.775 1z" opacity=".15"/><g><path fill="#59F" d="M9.969 12.319c-1.16-.331-1.97-.785-2.778-1.096.049.16.057.241-.041.34-.825.894-2.544.825-3.3 0-.1-.1-.081-.182-.021-.347-.814.31-1.628.769-2.797 1.103 0 0-.962.55-1.031 2.681H11c-.069-2.2-1.031-2.681-1.031-2.681z"/><path fill="#212121" d="M.754 14.313c.147-.89.481-1.267.586-1.368.758-.226 1.369-.498 1.913-.739l.185-.082c.503.485 1.267.771 2.074.771.813 0 1.559-.286 2.051-.771l.184.081c.545.242 1.161.515 1.922.742.111.098.439.458.581 1.365l.063.688H11c-.069-2.2-1.031-2.681-1.031-2.681-1.16-.331-1.97-.785-2.778-1.096.049.16.057.241-.041.34-.404.437-1.023.644-1.638.644-.64 0-1.276-.224-1.662-.645-.1-.1-.081-.182-.021-.347-.814.31-1.628.769-2.797 1.103 0 0-.962.55-1.031 2.681h.688l.065-.686z" opacity=".15"/><path fill="#FFC857" d="M5.5 10.188c-.487 0-.97-.283-1.373-.683-.031 1.665-.529 1.806-.277 2.058.756.825 2.475.894 3.3 0 .253-.253-.191-.394-.264-2.072-.406.408-.893.697-1.386.697z"/><path fill="#212121" d="M3.61 11.306c.072-.03.146-.063.219-.091-.06.165-.078.248.021.347.091.098.196.185.311.262l.207-.079.107-.298.019-.053c.088-.24.238-.658.297-1.403a2.63 2.63 0 01-.663-.488c-.019 1.013-.21 1.458-.3 1.711-.073.029-.146.062-.218.092zm2.925.118l.098.32.205.079c.113-.076.22-.161.313-.261.098-.098.09-.18.041-.34l.001.001c-.077-.253-.261-.701-.306-1.733-.202.203-.422.37-.655.491.067.709.199 1.121.276 1.358l.027.085z" opacity=".15"/><path fill="#FFC857" d="M5.5 10.188c-1.169 0-2.338-1.581-2.338-2.681V5.994c0-1.1.963-1.994 2.063-1.994h.55c1.169 0 2.063.894 2.063 1.994v1.513c-.001 1.099-1.169 2.681-2.338 2.681z"/><path fill="#212121" d="M5.775 4.688c.771 0 1.375.574 1.375 1.306v1.513c0 .769-.901 1.993-1.65 1.993S3.85 8.276 3.85 7.506V5.994c0-.696.643-1.306 1.375-1.306h.55m0-.688h-.55c-1.1 0-2.063.894-2.063 1.994v1.513c0 1.1 1.169 2.681 2.338 2.681s2.337-1.581 2.337-2.681V5.994C7.837 4.894 6.944 4 5.775 4z" opacity=".15"/></g></symbol><symbol viewBox="0 0 16 16" id="status-user-group-frontend" xmlns="http://www.w3.org/2000/svg"><path fill="#AAD400" d="M14.969 9.319c-1.16-.331-1.97-.785-2.778-1.096.049.16.057.241-.041.34-.825.894-2.544.825-3.3 0-.1-.1-.081-.182-.021-.347-.814.31-1.628.769-2.797 1.103 0 0-.963.55-1.031 2.681H16c-.069-2.2-1.031-2.681-1.031-2.681z"/><path fill="#212121" d="M5.754 11.313c.147-.89.481-1.267.586-1.368.758-.226 1.37-.498 1.913-.739l.185-.083c.503.485 1.267.771 2.074.771.813 0 1.559-.286 2.051-.771l.184.081c.545.242 1.16.515 1.922.742.111.098.439.458.581 1.365l.063.689H16c-.069-2.2-1.031-2.681-1.031-2.681-1.16-.331-1.97-.785-2.778-1.096.049.16.057.241-.041.34-.404.437-1.023.644-1.638.644-.64 0-1.276-.224-1.662-.645-.1-.1-.081-.182-.021-.347-.814.31-1.628.769-2.797 1.103 0 0-.963.55-1.031 2.681h.688l.065-.686z" opacity=".15"/><path fill="#FFC857" d="M10.5 7.188c-.487 0-.97-.283-1.373-.683-.031 1.664-.529 1.805-.277 2.058.756.825 2.475.894 3.3 0 .253-.253-.191-.394-.264-2.072-.406.408-.893.697-1.386.697z"/><path fill="#212121" d="M8.61 8.306c.072-.03.146-.063.219-.091-.06.165-.079.248.021.348.091.098.196.185.311.262l.207-.079.107-.298.019-.053c.088-.24.238-.658.297-1.403a2.63 2.63 0 01-.663-.488c-.019 1.013-.21 1.458-.3 1.711-.073.028-.146.061-.218.091zm2.925.118l.098.32.205.079c.113-.076.22-.161.313-.261.098-.098.09-.18.041-.34l.001.001c-.077-.253-.261-.701-.306-1.733-.202.203-.421.37-.655.491.067.709.199 1.121.276 1.358l.027.085z" opacity=".15"/><path fill="#FFC857" d="M10.5 7.188c-1.169 0-2.337-1.581-2.337-2.681V2.994c0-1.1.962-1.994 2.062-1.994h.55c1.169 0 2.063.894 2.063 1.994v1.513c-.001 1.099-1.169 2.681-2.338 2.681z"/><path fill="#212121" d="M10.775 1.688c.771 0 1.375.574 1.375 1.306v1.513c0 .769-.901 1.994-1.65 1.994S8.85 5.276 8.85 4.506V2.994c0-.696.643-1.306 1.375-1.306h.55m0-.688h-.55c-1.1 0-2.063.894-2.063 1.994v1.513c0 1.1 1.169 2.681 2.337 2.681s2.337-1.581 2.337-2.681V2.994C12.837 1.894 11.944 1 10.775 1z" opacity=".15"/><g><path fill="#79A548" d="M9.969 12.319c-1.16-.331-1.97-.785-2.778-1.096.049.16.057.241-.041.34-.825.894-2.544.825-3.3 0-.1-.1-.081-.182-.021-.347-.814.31-1.628.769-2.797 1.103 0 0-.962.55-1.031 2.681H11c-.069-2.2-1.031-2.681-1.031-2.681z"/><path fill="#212121" d="M.754 14.313c.147-.89.481-1.267.586-1.368.758-.226 1.369-.498 1.913-.739l.185-.082c.503.485 1.267.771 2.074.771.813 0 1.559-.286 2.051-.771l.184.081c.545.242 1.161.515 1.922.742.111.098.439.458.581 1.365l.063.688H11c-.069-2.2-1.031-2.681-1.031-2.681-1.16-.331-1.97-.785-2.778-1.096.049.16.057.241-.041.34-.404.437-1.023.644-1.638.644-.64 0-1.276-.224-1.662-.645-.1-.1-.081-.182-.021-.347-.814.31-1.628.769-2.797 1.103 0 0-.962.55-1.031 2.681h.688l.065-.686z" opacity=".15"/><path fill="#FFC857" d="M5.5 10.188c-.487 0-.97-.283-1.373-.683-.031 1.665-.529 1.806-.277 2.058.756.825 2.475.894 3.3 0 .253-.253-.191-.394-.264-2.072-.406.408-.893.697-1.386.697z"/><path fill="#212121" d="M3.61 11.306c.072-.03.146-.063.219-.091-.06.165-.078.248.021.347.091.098.196.185.311.262l.207-.079.107-.298.019-.053c.088-.24.238-.658.297-1.403a2.63 2.63 0 01-.663-.488c-.019 1.013-.21 1.458-.3 1.711-.073.029-.146.062-.218.092zm2.925.118l.098.32.205.079c.113-.076.22-.161.313-.261.098-.098.09-.18.041-.34l.001.001c-.077-.253-.261-.701-.306-1.733-.202.203-.422.37-.655.491.067.709.199 1.121.276 1.358l.027.085z" opacity=".15"/><path fill="#FFC857" d="M5.5 10.188c-1.169 0-2.338-1.581-2.338-2.681V5.994c0-1.1.963-1.994 2.063-1.994h.55c1.169 0 2.063.894 2.063 1.994v1.513c-.001 1.099-1.169 2.681-2.338 2.681z"/><path fill="#212121" d="M5.775 4.688c.771 0 1.375.574 1.375 1.306v1.513c0 .769-.901 1.993-1.65 1.993S3.85 8.276 3.85 7.506V5.994c0-.696.643-1.306 1.375-1.306h.55m0-.688h-.55c-1.1 0-2.063.894-2.063 1.994v1.513c0 1.1 1.169 2.681 2.338 2.681s2.337-1.581 2.337-2.681V5.994C7.837 4.894 6.944 4 5.775 4z" opacity=".15"/></g></symbol></svg>