<svg xmlns="http://www.w3.org/2000/svg" viewBox="0 0 16 16"><path fill="#B9B9B9" d="M0 4h16v5H0V4zM16 12v2H0v-2h16z"/><path fill="#59F" d="M12 11v4H4v-4h2V9h4v2h2z"/><path fill="#8C8C8C" d="M1 7h10v1H1V7zM1 5h10v1H1V5z"/><path fill="#EFEFEF" d="M2.75 2h10.5L15 4H1l1.75-2z"/><path fill="#B9B9B9" d="M13.25 2L15 4H1l1.75-2h10.5m0-1H2.75c-.29 0-.56.12-.75.34l-1.75 2c-.26.3-.32.71-.16 1.07.16.36.52.59.91.59h14c.39 0 .75-.23.91-.59.16-.36.1-.78-.16-1.07l-1.75-2c-.19-.22-.46-.34-.75-.34z"/><path opacity=".3" d="M6 9h4v1H6V9z"/><path fill="#CD201F" d="M13 7h2v1h-2V7z"/><path fill="#59F" d="M13 5h2v1h-2V5z"/></svg>