<?xml version="1.0" encoding="utf-8"?>
<!-- Generator: Adobe Illustrator 19.0.1, SVG Export Plug-In . SVG Version: 6.00 Build 0)  -->
<svg version="1.1" xmlns="http://www.w3.org/2000/svg" xmlns:xlink="http://www.w3.org/1999/xlink" x="0px" y="0px"
	 viewBox="0 0 64 64" enable-background="new 0 0 64 64" xml:space="preserve">
<g id="Background">
	<rect fill="#7A950F" width="64" height="64"/>
</g>
<g id="Icon">
	<path fill-rule="evenodd" clip-rule="evenodd" fill="#FFFFFF" d="M47.2,48H36.8c-1.6,0-2.9-1.3-2.9-2.9v-5.3l3.2,3.2
		c0.7,0.7,1.6,1.1,2.6,1.1c1,0,1.9-0.4,2.6-1.1l5.4-5.4c0.7-0.7,1.1-1.6,1.1-2.6c0-0.1,0-0.3,0-0.4c0.7,0.5,1.2,1.4,1.2,2.3v8.3
		C50,46.7,48.7,48,47.2,48z M47.2,30h-1.8c-0.4-5.3-2.4-8.7-6.1-10.2c-1.3-0.5-2.8-0.8-4.6-0.8c-0.2,0-0.5,0-0.7,0.1v-0.2
		c0-1.6,1.3-2.9,2.9-2.9h10.3c1.6,0,2.9,1.3,2.9,2.9v8.3C50,28.7,48.7,30,47.2,30z M28.6,20.7l-0.1,0.1c-0.3,0.1-0.7,0.3-1.1,0.6
		c-0.9,0.6-1.5,1.7-1.5,2.8c0,1.8,1.5,3.3,3.4,3.3c0.2,0,0.4,0,0.7-0.1c-0.1,1.4-1.4,2.6-2.8,2.6H16.8c-1.6,0-2.9-1.3-2.9-2.9v-8.3
		c0-1.6,1.3-2.9,2.9-2.9h10.3c1.6,0,2.9,1.3,2.9,2.9v1.2C29.6,20.3,29.1,20.5,28.6,20.7z M16.8,34h10.3c1.6,0,2.9,1.3,2.9,2.9v8.3
		c0,1.6-1.3,2.9-2.9,2.9H16.8c-1.6,0-2.9-1.3-2.9-2.9v-8.3C14,35.3,15.3,34,16.8,34z"/>
	<path fill="#FFFFFF" d="M34.7,22c1.2,0,2.4,0.1,3.5,0.6c3.7,1.5,4.3,5.8,4.3,9.3v2.4h2.7c0.4,0,0.7,0.3,0.7,0.7
		c0,0.2-0.1,0.4-0.2,0.5l-5.4,5.4C40.1,40.9,40,41,39.8,41s-0.4-0.1-0.5-0.2l-5.4-5.4c-0.1-0.1-0.2-0.3-0.2-0.5
		c0-0.4,0.3-0.7,0.7-0.7h2.7v-2.4c0-4.6-0.9-7.6-5.9-7.6c-0.4,0-0.9,0-1.3,0.1c-0.2,0-0.4,0.1-0.5,0.1c-0.2,0-0.4-0.1-0.4-0.3
		c0-0.1,0.1-0.2,0.2-0.3c0.2-0.2,0.6-0.3,0.8-0.4C31.2,22.7,33.2,22,34.7,22z"/>
</g>
</svg>
