<svg xmlns="http://www.w3.org/2000/svg" viewBox="0 0 32 32"><path fill="#59F" d="M6 5.5h20v21H6z"/><ellipse fill="#59F" cx="16" cy="26.5" rx="10" ry="3.5"/><ellipse fill="#59F" cx="16" cy="5.5" rx="10" ry="3.5"/><ellipse fill="#FFF" cx="16" cy="5.5" rx="10" ry="3.5" opacity=".25"/><ellipse cx="16" cy="5.3" rx="7" ry="1.8" opacity=".25"/><g fill="#FFF"><path d="M19 17.1l1.2-2.1-.9.5-1.4-2.4c-.1-.2-.3-.2-.4-.2h-2.6c-.4 0-.7.2-.9.5l-1.2 2.1 1.7 1L16 14l1.5 2.6-.9.5H19zM15.8 22l1.2 2v-1h2.7c.2 0 .3-.1.4-.3l1.4-2.5c.1-.2.1-.3 0-.5l-1.4-2.4-1.7 1L20 21h-3v-1.1L15.8 22zM13.2 16.9h-2.4l.9.5-1.4 2.4c-.1.2-.1.3 0 .5l1.4 2.5c.1.2.3.3.4.3h2.8v-2L12 21l1.5-2.6.9.5-1.2-2z"/></g></svg>