<svg xmlns="http://www.w3.org/2000/svg" viewBox="0 0 32 32"><path fill="#59F" d="M27 6H5V3c0-.6.4-1 1-1h20c.6 0 1 .4 1 1v3z"/><path fill="#515151" d="M26 30H6c-.6 0-1-.4-1-1V6h22v23c0 .6-.4 1-1 1z"/><path fill="#FFF" d="M22 18.6v-1.3h-.2l-1.3-.6-.5-.9.8-1.5-.9-.9h-.2l-1.3.8-.9-.4-.9-1.8h-1.3v.2l-.6 1.3-.9.5-1.5-.8-.9.9v.2l.8 1.3-.4.9-1.8.9v1.3h.2l1.3.6.5.9-.8 1.5.9 1 .2-.1 1.3-.8.9.4.6 1.7h1.4v-.2l.6-1.3.9-.4 1.5.8.9-.9v-.2l-.8-1.3.5-.9 1.9-.9zM16 21c-1.7 0-3-1.3-3-3s1.3-3 3-3 3 1.3 3 3-1.3 3-3 3z"/></svg>