<svg xmlns="http://www.w3.org/2000/svg" viewBox="0 0 32 32"><path fill="#C83C3C" d="M24.8 5H7.2c-.1 0-.2.1-.3.1L4 10.9V26.7c0 .2.1.3.3.3h23.5c.1 0 .3-.1.3-.3V11l-2.9-5.8c-.2-.1-.3-.2-.4-.2z"/><g opacity=".15"><path d="M24.8 5H7.2c-.1 0-.2.1-.3.1l-1 2.2h20.3l-1.1-2.1c-.1-.1-.2-.2-.3-.2zM26.9 8.8H5.1L4 11h24z"/></g><path fill="#FFF" d="M19.9 16.5L17.4 19l2.5 2.5c.2.2.2.5 0 .7l-.7.7c-.2.2-.5.2-.7 0L16 20.4l-2.5 2.5c-.2.2-.5.2-.7 0l-.7-.7c-.2-.2-.2-.5 0-.7l2.5-2.5-2.5-2.5c-.2-.2-.2-.5 0-.7l.7-.7c.2-.2.5-.2.7 0l2.5 2.5 2.5-2.5c.2-.2.5-.2.7 0l.7.7c.2.2.2.5 0 .7z"/></svg>