<svg xmlns="http://www.w3.org/2000/svg" viewBox="0 0 32 32"><path fill="#9F6358" d="M6 4h20v26H6z"/><path opacity=".2" fill="#FFF" d="M6 4h2v26H6z"/><path opacity=".2" d="M8 4h1v26H8z"/><path opacity=".8" fill="#FFF" d="M21.8 12h-9.5c-.1 0-.3-.1-.3-.3V7.3c0-.2.1-.3.3-.3h9.5c.1 0 .2.1.2.3v4.5c0 .1-.1.2-.2.2z"/><path fill="#7C4C46" d="M26 4H6l1-2h18z"/><path opacity=".2" fill="#FFF" d="M8 4H6l1-2h2z"/><path opacity=".2" d="M9 4H8l1-2h1z"/><path opacity=".8" fill="#FFF" d="M25.8 3.5H7l.5-1h17.8z"/><path fill="#FFF" d="M17.8 26.1h-.1c-.4 0-.9-1.4-.9-1.8 0-.2 0-.2.1-.3-.5.1-1 .2-1.2.5-.1 0-.1.1-.1.3 0 .7.8 2.3 1.3 2.3.1-.1.5-.5.9-1m-.3-2.1c.5 0 1 .1 1 .4 0 .5-.4 1.2-.5 1.2-.3 0-.7-.9-.7-1.3 0-.3 0-.3.2-.3"/></svg>