<svg xmlns="http://www.w3.org/2000/svg" viewBox="0 0 32 32"><path fill="#59F" d="M27 6H5V3c0-.6.4-1 1-1h20c.6 0 1 .4 1 1v3z"/><path fill="#515151" d="M26 30H6c-.6 0-1-.4-1-1V6h22v23c0 .6-.4 1-1 1z"/><g fill="#FFF"><path d="M22 20v2h-2v-1.5c0-.2-.2-.3-.4-.2l-3.3 2c-.2.1-.2.3 0 .4l3.3 2c.2.1.4 0 .4-.2V23h3v-3h-1zM14 23h1l-1.5-4h-1L11 23h1l.2-.5h1.6l.2.5zm-1.4-1.5l.4-1.2.4 1.2h-.8zM21 15.8c0 .2 0 .4-.1.5-.1.2-.2.3-.4.4l-.6.3H17v-4h2.6c.2 0 .3.1.5.1.2.1.3.2.4.3.1.1.1.3.1.4 0 .2-.1.4-.2.5-.1.1-.3.3-.5.3.3.1.5.2.7.3.3.4.4.6.4.9zm-1.5-1.7c0-.1 0-.1-.1-.2 0-.1-.1-.1-.2-.1H18v.8h.9c.1 0 .2 0 .3-.1.1 0 .2-.1.2-.2 0 0 .1-.1.1-.2zm.2 1.7c0-.1 0-.2-.1-.3-.1-.1-.2-.1-.3-.2h-1.4v1h1c.1 0 .3 0 .4-.1s.2-.1.3-.2c.1-.1.1-.1.1-.2zM15.7 13.3l-3.3-2c-.2-.1-.4 0-.4.2V13H9v3h1v-2h2v1.5c0 .2.2.3.4.2l3.3-2c.1-.1.1-.3 0-.4z"/><path d="M22.5 11h-7c-.3 0-.5.2-.5.5v.2l1 .6V12h6v6h-5v-.5c0-.3-.2-.5-.5-.5H16v-2.3l-1 .6V17H9.5c-.3 0-.5.2-.5.5v7c0 .3.2.5.5.5h7c.3 0 .5-.2.5-.5v-.2l-1-.6v.3h-6v-6h6v3.3l1-.6V19h5.5c.3 0 .5-.2.5-.5v-7c0-.3-.2-.5-.5-.5z"/></g></svg>