<svg xmlns="http://www.w3.org/2000/svg" viewBox="0 0 16 16"><g><path fill="#CD201F" d="M11 12l3-2v6H2v-6l3 2 3-2 3 2z"/><path fill="#212121" d="M8 10.3l2.86 1.91.14.09.14-.09 2.61-1.74v5.28H2.25v-5.28l2.61 1.74.14.09.14-.09L8 10.3m6-.3l-3 2-3-2-3 2-3-2v6h12v-6z" opacity=".2"/><path fill="#CD201F" d="M14 4v4l-3 2-3-2-3 2-3-2V0h8l4 4z"/><path fill="#212121" d="M13.75 7.87L11 9.7 8.14 7.79 8 7.7l-.14.09L5 9.7 2.25 7.87V.25H10V0H2v8l3 2 3-2 3 2 3-2V4h-.25z" opacity=".2"/><path fill="#FFF" d="M14 4h-4V0l4 4z" opacity=".3"/><path fill="#212121" d="M14 8l-4-4h4v4z" opacity=".3"/></g></svg>