<svg xmlns="http://www.w3.org/2000/svg" viewBox="0 0 595.28 594.708"><path fill="#428954" d="M.945.934H595.28v593.774H.945z"/><path fill="#FFF" d="M469.939 243.072H135.908v-71.578h334.031v71.578zm0 95.437H135.908v-71.578h334.031v71.578zm0 95.438H135.908v-71.578h334.031v71.578zM350.643 219.212v-23.859H159.768v23.859h190.875zm0 95.438v-23.859H159.768v23.859h190.875zm0 95.437v-23.859H159.768v23.859h190.875zm83.507-220.699c-9.879 0-17.895 8.015-17.895 17.895s8.016 17.895 17.895 17.895 17.895-8.015 17.895-17.895-8.016-17.895-17.895-17.895zm0 95.438c-9.879 0-17.895 8.015-17.895 17.895 0 9.879 8.016 17.895 17.895 17.895s17.895-8.016 17.895-17.895c0-9.88-8.016-17.895-17.895-17.895zm0 95.437c-9.879 0-17.895 8.016-17.895 17.895s8.016 17.895 17.895 17.895 17.895-8.016 17.895-17.895-8.016-17.895-17.895-17.895z"/></svg>
