<svg xmlns="http://www.w3.org/2000/svg" viewBox="0 0 595.28 594.708"><path fill="#D03F38" d="M.011 0h595.27v594.708H.011z"/><path fill="#FFF" d="M209.066 464.474c-4.294 4.294-10.455 6.907-16.802 6.907s-12.508-2.613-16.989-6.907l-19.79-20.163c-4.48-4.293-7.094-10.454-7.094-16.802s2.614-12.509 7.094-16.989l127.137-127.136c9.708 24.457 29.311 44.059 53.768 53.767L209.066 464.474zm-4.854-60.861c-6.534 0-11.948 5.414-11.948 11.948s5.414 11.948 11.948 11.948 11.948-5.414 11.948-11.948-5.414-11.948-11.948-11.948zm246.246-127.884c-11.762 33.231-43.687 56.194-78.971 56.194-46.112 0-83.638-37.525-83.638-83.638s37.525-83.638 83.638-83.638c13.629 0 31.364 4.107 42.752 11.762 1.867 1.307 2.987 2.987 2.987 5.227 0 2.054-1.307 4.107-2.987 5.228l-54.7 31.551v41.819l36.031 19.976c6.161-3.547 49.474-30.804 53.207-30.804 3.734 0 5.975 2.8 5.975 6.534 0 6.161-2.24 13.815-4.294 19.789z"/></svg>
