<svg xmlns="http://www.w3.org/2000/svg" viewBox="0 0 595.28 594.708"><path fill="#6C9DCC" d="M.954.934H595.28v593.774H.954z"/><path fill="#FFF" d="M361.234 253.461h-35.789v161.051c0 3.355-2.61 5.965-5.965 5.965H188.253c-2.237 0-4.474-1.305-5.406-3.355-.932-2.236-.746-4.66.746-6.523l29.824-35.789c1.119-1.306 2.982-2.051 4.66-2.051h59.648V253.461h-35.789c-4.66 0-8.761-2.609-10.811-6.897-1.864-4.101-1.305-9.133 1.677-12.675l59.648-71.578c4.474-5.405 13.793-5.405 18.267 0l59.648 71.578c2.982 3.542 3.729 8.575 1.678 12.675-2.048 4.288-6.149 6.897-10.809 6.897z"/></svg>
