<svg xmlns="http://www.w3.org/2000/svg" viewBox="0 0 595.28 594.708"><path fill="#1D588E" d="M0 0h595.279v594.708H0z"/><path fill="#FFF" d="M364.864 318.26c0 2.427-1.867 5.228-4.294 5.601l-28.939 4.481c-1.494 4.854-3.548 9.521-5.975 14.189 5.228 7.468 10.829 14.376 16.804 21.472.746 1.12 1.307 2.24 1.307 3.733 0 1.308-.374 2.614-1.307 3.548-3.734 5.041-24.646 27.819-30.061 27.819-1.493 0-2.801-.561-3.921-1.308l-21.471-16.803c-4.668 2.427-9.335 4.294-14.376 5.787-.934 9.522-1.867 19.791-4.294 28.939-.747 2.614-2.987 4.481-5.601 4.481h-34.728c-2.614 0-5.228-2.054-5.601-4.668l-4.294-28.565c-4.854-1.494-9.522-3.548-14.003-5.788l-22.031 16.616c-.934.934-2.427 1.308-3.734 1.308-1.494 0-2.8-.561-3.92-1.494-4.854-4.48-26.886-24.458-26.886-29.873 0-1.307.56-2.427 1.307-3.547 5.415-7.095 11.016-14.003 16.43-21.285-2.614-5.041-4.854-10.082-6.535-15.31l-28.379-4.48c-2.614-.374-4.481-2.801-4.481-5.415v-34.541c0-2.427 1.867-5.228 4.294-5.601l28.939-4.481c1.494-4.854 3.547-9.522 5.975-14.189-5.228-7.468-10.829-14.376-16.804-21.471-.747-1.12-1.307-2.427-1.307-3.734s.374-2.614 1.307-3.734c3.734-5.041 24.645-27.633 30.06-27.633 1.494 0 2.801.561 3.921 1.307l21.471 16.804c4.668-2.427 9.335-4.294 14.376-5.975.934-9.335 1.867-19.604 4.294-28.753.747-2.614 2.987-4.481 5.601-4.481h34.728c2.614 0 5.228 2.054 5.601 4.667l4.294 28.566c4.854 1.494 9.522 3.547 14.003 5.788l22.032-16.617c1.12-.934 2.427-1.307 3.733-1.307 1.494 0 2.801.561 3.921 1.494 4.854 4.481 26.886 24.646 26.886 29.873 0 1.307-.56 2.427-1.307 3.547-5.414 7.282-11.016 14.003-16.243 21.285 2.427 5.041 4.667 10.083 6.348 15.31l28.38 4.294c2.613.56 4.48 2.987 4.48 5.601v34.543zm-119.492-65.347c-26.326 0-47.797 21.471-47.797 47.797 0 26.325 21.471 47.797 47.797 47.797s47.797-21.472 47.797-47.797c0-26.326-21.471-47.797-47.797-47.797zm238.984-34.728c0 2.801-24.085 5.415-27.819 5.788-1.493 3.547-3.36 6.721-5.602 9.708 1.681 3.734 9.522 22.405 9.522 25.766 0 .56-.187.934-.747 1.307-2.24 1.307-22.218 13.256-23.151 13.256-2.427 0-16.43-18.67-18.297-21.471-1.867.187-3.734.374-5.602.374s-3.734-.187-5.602-.374c-1.867 2.801-15.87 21.471-18.297 21.471-.934 0-20.911-11.949-23.151-13.256-.561-.374-.747-.934-.747-1.307 0-3.174 7.842-22.031 9.522-25.766-2.241-2.987-4.108-6.161-5.602-9.708-3.734-.374-27.819-2.987-27.819-5.788v-26.139c0-2.801 24.085-5.415 27.819-5.788 1.493-3.361 3.36-6.721 5.602-9.708-1.681-3.734-9.522-22.592-9.522-25.766 0-.374.187-.934.747-1.307 2.24-1.12 22.218-13.069 23.151-13.069 2.427 0 16.43 18.484 18.298 21.284 1.866-.187 3.733-.373 5.601-.373s3.734.187 5.602.374c5.228-7.282 10.828-14.563 17.177-20.911l1.12-.374c.934 0 20.911 11.763 23.151 13.069.561.374.747.934.747 1.307 0 3.361-7.842 22.031-9.522 25.766 2.241 2.987 4.108 6.348 5.602 9.708 3.734.374 27.819 2.987 27.819 5.788v26.139zm0 191.188c0 2.801-24.085 5.415-27.819 5.788-1.493 3.548-3.36 6.722-5.602 9.709 1.681 3.733 9.522 22.404 9.522 25.766 0 .56-.187.933-.747 1.307-2.24 1.307-22.218 13.256-23.151 13.256-2.427 0-16.43-18.671-18.297-21.471-1.867.187-3.734.373-5.602.373s-3.734-.187-5.602-.373c-1.867 2.8-15.87 21.471-18.297 21.471-.934 0-20.911-11.949-23.151-13.256-.561-.374-.747-.934-.747-1.307 0-3.175 7.842-22.032 9.522-25.766-2.241-2.987-4.108-6.161-5.602-9.709-3.734-.373-27.819-2.987-27.819-5.788v-26.139c0-2.801 24.085-5.415 27.819-5.788 1.493-3.36 3.36-6.722 5.602-9.709-1.681-3.733-9.522-22.591-9.522-25.766 0-.373.187-.933.747-1.307 2.24-1.12 22.218-13.069 23.151-13.069 2.427 0 16.43 18.484 18.298 21.284 1.866-.187 3.733-.373 5.601-.373s3.734.187 5.602.373c5.228-7.281 10.828-14.562 17.177-20.911l1.12-.373c.934 0 20.911 11.763 23.151 13.069.561.374.747.934.747 1.307 0 3.361-7.842 22.032-9.522 25.766 2.241 2.987 4.108 6.349 5.602 9.709 3.734.373 27.819 2.987 27.819 5.788v26.139zm-71.695-228.156c-13.069 0-23.898 10.829-23.898 23.898 0 13.256 10.829 23.898 23.898 23.898 13.256 0 23.898-10.829 23.898-23.898s-10.829-23.898-23.898-23.898zm0 191.188c-13.069 0-23.898 10.829-23.898 23.898 0 13.256 10.829 23.898 23.898 23.898 13.256 0 23.898-10.829 23.898-23.898s-10.829-23.898-23.898-23.898z"/></svg>
