<svg xmlns="http://www.w3.org/2000/svg" viewBox="0 0 64 64"><path fill="#FF8700" d="M0 0h64v64H0z"/><path fill="#FFF" d="M49.535 29.295l-5.457-1.558c-.154-.435-.32-.86-.517-1.27l2.752-4.953c.14-.252.095-.563-.108-.766l-2.952-2.952c-.203-.203-.517-.247-.766-.108l-4.953 2.75c-.41-.197-.836-.362-1.27-.516l-1.558-5.457c-.08-.275-.332-.465-.62-.465h-4.17c-.29 0-.54.19-.618.465l-1.56 5.46c-.436.153-.86.318-1.27.516l-4.954-2.75c-.25-.14-.563-.095-.766.108l-2.95 2.95c-.202.202-.248.516-.107.765l2.75 4.953c-.197.41-.362.836-.516 1.27l-5.46 1.558c-.274.08-.464.333-.464.62v4.174c0 .288.19.54.465.617l5.457 1.558c.154.435.32.86.517 1.27l-2.752 4.953c-.14.252-.095.563.108.766l2.952 2.952c.203.203.517.247.766.108l4.953-2.75c.41.197.836.362 1.27.516l1.558 5.457c.08.275.332.465.62.465h4.173c.288 0 .54-.19.617-.465l1.558-5.457c.435-.154.86-.32 1.27-.517l4.953 2.752c.252.14.563.095.766-.108l2.952-2.952c.203-.203.247-.517.108-.766l-2.75-4.953c.197-.41.362-.836.516-1.27l5.457-1.558c.275-.08.465-.332.465-.62v-4.17c0-.288-.19-.54-.465-.62zM32 39.715c-4.26 0-7.714-3.454-7.714-7.715S27.74 24.286 32 24.286 39.714 27.74 39.714 32 36.26 39.714 32 39.714z"/><path fill="#FFF" d="M32 32h24v24H32z"/><path fill="#FF8700" d="M54 34v20H34V34h20m4-4H30v28h28V30z"/><path fill="#FF8700" d="M36 36h16v2H36zM36 40h16v12H36z"/><path fill="#FFF" d="M42.39 49.625c.222.22.588.215.805-.002l5.636-5.636c.224-.223.232-.575-.002-.81l-.798-.797c-.224-.224-.59-.223-.802-.01l-4.04 4.04c-.218.217-.57.22-.794-.005l-1.618-1.618c-.22-.22-.57-.227-.805.007l-.797.798c-.224.224-.233.58-.006.807l3.224 3.225z"/></svg>