<svg xmlns="http://www.w3.org/2000/svg" viewBox="0 0 64 64"><path fill="#FF8700" d="M0 0h64v64H0z"/><path fill="#FFF" d="M49.535 29.295l-5.457-1.558a12.594 12.594 0 0 0-.517-1.27l2.751-4.953a.642.642 0 0 0-.108-.766l-2.952-2.952a.643.643 0 0 0-.766-.108l-4.953 2.751a12.69 12.69 0 0 0-1.27-.517l-1.558-5.457a.645.645 0 0 0-.62-.465h-4.171c-.288 0-.54.19-.617.465l-1.561 5.459c-.435.154-.859.319-1.27.517l-4.953-2.751a.64.64 0 0 0-.766.108l-2.949 2.949a.64.64 0 0 0-.108.766l2.751 4.953a12.69 12.69 0 0 0-.517 1.27l-5.459 1.558a.647.647 0 0 0-.465.621v4.173c0 .288.19.54.465.617l5.457 1.558c.154.435.319.859.517 1.27l-2.751 4.953a.642.642 0 0 0 .108.766l2.952 2.952a.643.643 0 0 0 .766.108l4.953-2.751c.411.198.836.363 1.27.517l1.558 5.457c.08.275.332.465.62.465h4.173c.288 0 .54-.19.617-.465l1.558-5.457c.435-.154.859-.319 1.27-.517l4.953 2.751a.642.642 0 0 0 .766-.108l2.952-2.952a.643.643 0 0 0 .108-.766l-2.751-4.953c.198-.411.363-.836.517-1.27l5.457-1.558a.645.645 0 0 0 .465-.62v-4.171a.645.645 0 0 0-.465-.619zM32 39.714c-4.261 0-7.714-3.453-7.714-7.714s3.453-7.714 7.714-7.714 7.714 3.453 7.714 7.714-3.453 7.714-7.714 7.714z"/><path fill="#FFF" d="M32 32h24v24H32z"/><path fill="#FF8700" d="M54 34v20H34V34h20m4-4H30v28h28V30z"/><path fill="#FF8700" d="M36 36h16v2H36zM36 40h16v12H36z"/><path fill="#FFF" d="M42.391 49.625a.574.574 0 0 0 .804-.002l5.636-5.636a.563.563 0 0 0-.003-.809l-.798-.798a.574.574 0 0 0-.802-.011l-4.04 4.04a.557.557 0 0 1-.794-.004l-1.618-1.618a.561.561 0 0 0-.805.007l-.798.798a.566.566 0 0 0-.006.807l3.224 3.226z"/></svg>