<svg xmlns="http://www.w3.org/2000/svg" viewBox="0 0 64 64"><path fill="var(--icon-color-accent, #ff8700)" d="M36 44c-.53 0-1.04-.21-1.41-.59l-4-4c-.78-.78-.78-2.05 0-2.83s2.05-.78 2.83 0l2.37 2.37 4.62-6.16c.66-.88 1.92-1.06 2.8-.4.88.66 1.06 1.92.4 2.8l-6 8c-.35.46-.88.75-1.46.79h-.14Z"/><path fill="currentColor" d="M37.39 26.77c5.85 0 10.61 4.76 10.61 10.61s-4.76 10.61-10.61 10.61-10.61-4.76-10.61-10.61 4.76-10.61 10.61-10.61m0-4c-8.07 0-14.61 6.54-14.61 14.61s6.54 14.61 14.61 14.61S52 45.45 52 37.38s-6.54-14.61-14.61-14.61Z"/><g opacity=".4"><path fill="currentColor" d="M22.77 37.39c0-2.28.54-4.44 1.47-6.36-.64-.24-1.23-.6-1.74-1.12-.97-.98-1.45-2.17-1.45-3.56s.49-2.57 1.45-3.56c.97-.98 2.16-1.47 3.57-1.47s2.57.49 3.56 1.47c.48.48.83 1.02 1.07 1.61 2-1.03 4.27-1.63 6.68-1.63.8 0 1.57.08 2.34.2.3-.44.37-1.01.08-1.5l-2.68-4.63c-.36-.63-1.13-.89-1.8-.6l-3.11 1.31c-.26-.19-.53-.37-.81-.54-.28-.17-.57-.31-.88-.43l-.42-3.34c-.09-.72-.7-1.26-1.43-1.26H23.3c-.72 0-1.34.54-1.43 1.26l-.42 3.34c-.29.12-.57.26-.86.43-.29.17-.56.35-.83.54l-3.11-1.31a1.44 1.44 0 0 0-1.8.6l-2.68 4.63c-.36.63-.2 1.43.38 1.87l2.69 2.04c-.02.17-.04.33-.04.48v.97c0 .16.01.32.04.48l-2.69 2.04c-.58.44-.74 1.24-.38 1.87l2.68 4.63c.36.63 1.13.89 1.8.6l3.11-1.31c.26.19.53.37.81.54.28.17.57.31.88.43l.42 3.34c.08.66.62 1.16 1.27 1.23-.25-1.06-.39-2.17-.39-3.3Z"/></g></svg>