<svg xmlns="http://www.w3.org/2000/svg" viewBox="0 0 64 64"><path fill="#428954" d="M0 0h64v64H0z"/><path fill="#FFF" d="M45 18H19l-3 4v14h32V22z"/><path fill="#428954" d="M48 22H16l3-4h26z" opacity=".5"/><path fill="#428954" d="M40 24h6v2h-6v-2zM40 32h6v2h-6v-2z"/><path fill="#428954" d="M18 24h20v2H18v-2z" opacity=".5"/><path fill="#428954" d="M40 28h6v2h-6v-2z"/><path fill="#428954" d="M18 28h20v2H18v-2zM18 32h20v2H18v-2z" opacity=".5"/><path fill="#FFF" d="M48 42v2H16v-2h32z" opacity=".75"/><path fill="#FFF" d="M36 40v6h-8v-6h2v-4h4v4h2z"/><path fill="#428954" d="M30 36h4v1h-4v-1z" opacity=".5"/></svg>