<?xml version="1.0" encoding="utf-8"?>
<!-- Generator: Adobe Illustrator 19.1.0, SVG Export Plug-In . SVG Version: 6.00 Build 0)  -->
<svg version="1.1" xmlns="http://www.w3.org/2000/svg" xmlns:xlink="http://www.w3.org/1999/xlink" x="0px" y="0px"
	 viewBox="0 0 16 16" enable-background="new 0 0 16 16" xml:space="preserve">
<g id="mimetype-media-video">
	<path fill="#CD201F" d="M14,16H2V0h8l4,4V16z"/>
	<path opacity="0.7" fill="#FFFFFF" d="M14,4h-4V0L14,4z"/>
	<rect x="3" y="1" fill="#FFFFFF" width="1" height="1"/>
	<rect x="3" y="3" fill="#FFFFFF" width="1" height="1"/>
	<rect x="3" y="5" fill="#FFFFFF" width="1" height="1"/>
	<rect x="3" y="7" fill="#FFFFFF" width="1" height="1"/>
	<rect x="3" y="9" fill="#FFFFFF" width="1" height="1"/>
	<rect x="3" y="11" fill="#FFFFFF" width="1" height="1"/>
	<rect x="3" y="13" fill="#FFFFFF" width="1" height="1"/>
	<rect x="3" y="15" fill="#FFFFFF" width="1" height="1"/>
	<rect x="12" y="14" fill="#FFFFFF" width="1" height="1"/>
	<rect x="12" y="12" fill="#FFFFFF" width="1" height="1"/>
	<rect x="12" y="10" fill="#FFFFFF" width="1" height="1"/>
	<rect x="12" y="8" fill="#FFFFFF" width="1" height="1"/>
	<rect x="12" y="6" fill="#FFFFFF" width="1" height="1"/>
	<rect x="12" y="4" fill="#FFFFFF" width="1" height="1"/>
	<polygon fill="#FFFFFF" points="6,12 6,7 11,9.5 	"/>
	<path opacity="0.3" d="M14,8l-4-4h4V8z"/>
	<polygon opacity="0.1" points="13.75,15.75 2.25,15.75 2.25,0.25 10,0.25 10,0 2,0 2,16 14,16 14,4 13.75,4 	"/>
</g>
</svg>
