<?xml version="1.0" encoding="utf-8"?>
<!-- Generator: Adobe Illustrator 19.1.0, SVG Export Plug-In . SVG Version: 6.00 Build 0)  -->
<svg version="1.1" xmlns="http://www.w3.org/2000/svg" xmlns:xlink="http://www.w3.org/1999/xlink" x="0px" y="0px"
	 viewBox="0 0 16 16" enable-background="new 0 0 16 16" xml:space="preserve">
<g id="mimetype-executable-executable">
	<path fill="#5599FF" d="M14,16H2V0h8l4,4V16z"/>
	<polygon opacity="0.1" points="13.75,15.75 2.25,15.75 2.25,0.25 10,0.25 10,0 2,0 2,16 14,16 14,4 13.75,4 	"/>
	<path opacity="0.7" fill="#FFFFFF" d="M14,4h-4V0L14,4z"/>
	<path opacity="0.3" d="M14,8l-4-4h4V8z"/>
	<path fill="#FFFFFF" d="M9.33,10.06c0,0.05-0.04,0.12-0.1,0.12l-0.65,0.1c-0.03,0.11-0.08,0.21-0.13,0.32
		c0.12,0.17,0.24,0.32,0.38,0.48c0.02,0.02,0.03,0.05,0.03,0.08c0,0.03-0.01,0.06-0.03,0.08c-0.08,0.11-0.55,0.62-0.67,0.62
		c-0.03,0-0.06-0.01-0.09-0.03L7.6,11.46c-0.1,0.05-0.21,0.1-0.32,0.13c-0.02,0.21-0.04,0.44-0.1,0.65c-0.02,0.06-0.07,0.1-0.12,0.1
		H6.28c-0.06,0-0.12-0.05-0.12-0.1l-0.1-0.64c-0.11-0.03-0.21-0.08-0.31-0.13l-0.49,0.37c-0.02,0.02-0.05,0.03-0.08,0.03
		c-0.03,0-0.06-0.01-0.09-0.03c-0.11-0.1-0.6-0.55-0.6-0.67c0-0.03,0.01-0.05,0.03-0.08c0.12-0.16,0.25-0.31,0.37-0.48
		c-0.06-0.11-0.11-0.22-0.15-0.34l-0.63-0.1C4.04,10.16,4,10.1,4,10.05V9.27c0-0.05,0.04-0.12,0.1-0.12l0.65-0.1
		c0.03-0.11,0.08-0.21,0.13-0.32C4.76,8.57,4.63,8.41,4.5,8.25C4.48,8.23,4.47,8.2,4.47,8.17S4.48,8.11,4.5,8.09
		c0.08-0.11,0.55-0.62,0.67-0.62c0.03,0,0.06,0.01,0.09,0.03l0.48,0.38c0.1-0.05,0.21-0.1,0.32-0.13C6.08,7.53,6.1,7.3,6.15,7.1
		C6.17,7.04,6.22,7,6.28,7h0.78c0.06,0,0.12,0.05,0.12,0.1l0.1,0.64c0.11,0.03,0.21,0.08,0.31,0.13L8.08,7.5
		C8.1,7.48,8.13,7.47,8.16,7.47c0.03,0,0.06,0.01,0.09,0.03c0.11,0.1,0.6,0.55,0.6,0.67c0,0.03-0.01,0.05-0.03,0.08
		C8.7,8.41,8.58,8.56,8.46,8.73c0.05,0.11,0.1,0.22,0.14,0.34l0.63,0.1c0.06,0.01,0.1,0.07,0.1,0.13V10.06z M6.67,8.6
		C6.08,8.6,5.6,9.08,5.6,9.67c0,0.59,0.48,1.07,1.07,1.07s1.07-0.48,1.07-1.07C7.73,9.08,7.25,8.6,6.67,8.6z M12,7.82
		c0,0.06-0.54,0.12-0.62,0.13c-0.03,0.08-0.07,0.15-0.12,0.22c0.04,0.08,0.21,0.5,0.21,0.57c0,0.01,0,0.02-0.02,0.03
		c-0.05,0.03-0.5,0.3-0.52,0.3c-0.05,0-0.37-0.42-0.41-0.48c-0.04,0-0.08,0.01-0.13,0.01c-0.04,0-0.08,0-0.12-0.01
		c-0.04,0.06-0.35,0.48-0.41,0.48c-0.02,0-0.47-0.27-0.52-0.3C9.34,8.77,9.33,8.75,9.33,8.75c0-0.07,0.18-0.49,0.21-0.57
		C9.5,8.1,9.45,8.03,9.42,7.95C9.34,7.95,8.8,7.89,8.8,7.82V7.24c0-0.06,0.54-0.12,0.62-0.13C9.45,7.04,9.5,6.96,9.55,6.9
		c-0.04-0.08-0.21-0.5-0.21-0.57c0-0.01,0-0.02,0.02-0.03C9.4,6.27,9.85,6,9.87,6c0.05,0,0.37,0.41,0.41,0.47
		c0.04,0,0.08-0.01,0.12-0.01c0.04,0,0.08,0,0.13,0.01c0.12-0.16,0.24-0.32,0.38-0.47L10.93,6c0.02,0,0.47,0.26,0.52,0.29
		c0.01,0.01,0.02,0.02,0.02,0.03c0,0.08-0.17,0.49-0.21,0.57c0.05,0.07,0.09,0.14,0.12,0.22C11.46,7.12,12,7.18,12,7.24V7.82z
		 M12,12.09c0,0.06-0.54,0.12-0.62,0.13c-0.03,0.08-0.07,0.15-0.12,0.22c0.04,0.08,0.21,0.5,0.21,0.58c0,0.01,0,0.02-0.02,0.03
		c-0.05,0.03-0.5,0.3-0.52,0.3c-0.05,0-0.37-0.42-0.41-0.48c-0.04,0-0.08,0.01-0.13,0.01c-0.04,0-0.08,0-0.12-0.01
		c-0.04,0.06-0.35,0.48-0.41,0.48c-0.02,0-0.47-0.27-0.52-0.3c-0.01-0.01-0.02-0.02-0.02-0.03c0-0.07,0.18-0.49,0.21-0.58
		c-0.05-0.07-0.09-0.14-0.12-0.22c-0.08-0.01-0.62-0.07-0.62-0.13v-0.58c0-0.06,0.54-0.12,0.62-0.13c0.03-0.08,0.07-0.15,0.12-0.22
		c-0.04-0.08-0.21-0.5-0.21-0.57c0-0.01,0-0.02,0.02-0.03c0.05-0.02,0.5-0.29,0.52-0.29c0.05,0,0.37,0.41,0.41,0.47
		c0.04,0,0.08-0.01,0.12-0.01c0.04,0,0.08,0,0.13,0.01c0.12-0.16,0.24-0.32,0.38-0.47l0.02-0.01c0.02,0,0.47,0.26,0.52,0.29
		c0.01,0.01,0.02,0.02,0.02,0.03c0,0.08-0.17,0.49-0.21,0.57c0.05,0.07,0.09,0.14,0.12,0.22c0.08,0.01,0.62,0.07,0.62,0.13V12.09z
		 M10.4,7c-0.29,0-0.53,0.24-0.53,0.53c0,0.3,0.24,0.53,0.53,0.53c0.3,0,0.53-0.24,0.53-0.53C10.93,7.24,10.69,7,10.4,7z
		 M10.4,11.27c-0.29,0-0.53,0.24-0.53,0.53c0,0.3,0.24,0.53,0.53,0.53c0.3,0,0.53-0.24,0.53-0.53
		C10.93,11.51,10.69,11.27,10.4,11.27z"/>
</g>
</svg>
