<?xml version="1.0" encoding="utf-8"?>
<!-- Generator: Adobe Illustrator 19.1.0, SVG Export Plug-In . SVG Version: 6.00 Build 0)  -->
<svg version="1.1" xmlns="http://www.w3.org/2000/svg" xmlns:xlink="http://www.w3.org/1999/xlink" x="0px" y="0px"
	 viewBox="0 0 16 16" enable-background="new 0 0 16 16" xml:space="preserve">
<g id="mimetype-media-text">
	<path fill="#FFFFFF" d="M14,16H2V0h8l4,4V16z"/>
	<polygon opacity="0.5" points="13.75,15.75 2.25,15.75 2.25,0.25 10,0.25 10,0 2,0 2,16 14,16 14,4 13.75,4 	"/>
	<path fill="#E6E6E6" d="M14,4h-4V0L14,4z"/>
	<path opacity="0.3" d="M14,8l-4-4h4V8z"/>
	<path fill="#999999" d="M11.75,14h-7.5C4.11,14,4,13.89,4,13.75v-0.5C4,13.11,4.11,13,4.25,13h7.5c0.14,0,0.25,0.11,0.25,0.25v0.5
		C12,13.89,11.89,14,11.75,14z"/>
	<path fill="#999999" d="M11.75,12h-7.5C4.11,12,4,11.89,4,11.75v-0.5C4,11.11,4.11,11,4.25,11h7.5c0.14,0,0.25,0.11,0.25,0.25v0.5
		C12,11.89,11.89,12,11.75,12z"/>
	<path fill="#999999" d="M11.75,10h-7.5C4.11,10,4,9.89,4,9.75v-0.5C4,9.11,4.11,9,4.25,9h7.5C11.89,9,12,9.11,12,9.25v0.5
		C12,9.89,11.89,10,11.75,10z"/>
	<path fill="#999999" d="M11.75,8h-7.5C4.11,8,4,7.89,4,7.75v-0.5C4,7.11,4.11,7,4.25,7h7.5C11.89,7,12,7.11,12,7.25v0.5
		C12,7.89,11.89,8,11.75,8z"/>
	<path fill="#999999" d="M7.75,5h-3.5C4.11,5,4,4.89,4,4.75v-0.5C4,4.11,4.11,4,4.25,4h3.5C7.89,4,8,4.11,8,4.25v0.5
		C8,4.89,7.89,5,7.75,5z"/>
	<path fill="#999999" d="M7.75,3h-3.5C4.11,3,4,2.89,4,2.75v-0.5C4,2.11,4.11,2,4.25,2h3.5C7.89,2,8,2.11,8,2.25v0.5
		C8,2.89,7.89,3,7.75,3z"/>
</g>
</svg>
