<?xml version="1.0" encoding="utf-8"?>
<!-- Generator: Adobe Illustrator 19.1.0, SVG Export Plug-In . SVG Version: 6.00 Build 0)  -->
<svg version="1.1" xmlns="http://www.w3.org/2000/svg" xmlns:xlink="http://www.w3.org/1999/xlink" x="0px" y="0px"
	 viewBox="0 0 16 16" enable-background="new 0 0 16 16" xml:space="preserve">
<g id="mimetype-media-image">
	<path fill="#FFFFFF" d="M14,16H2V0h8l4,4V16z"/>
	<polygon opacity="0.5" points="13.75,15.75 2.25,15.75 2.25,0.25 10,0.25 10,0 2,0 2,16 14,16 14,4 13.75,4 	"/>
	<path fill="#E6E6E6" d="M14,4h-4V0L14,4z"/>
	<path opacity="0.3" d="M14,8l-4-4h4V8z"/>
	<path fill="#5599FF" d="M10.5,15H6.75H3l1.87-3l1.87-3l1.87,3L10.5,15z"/>
	<path fill="#5599FF" d="M13,15H9.67H6.33L8,13l1.67-2l1.67,2L13,15z"/>
	<path fill="#E8A33D" d="M9.5,6C10.33,6,11,6.67,11,7.5S10.33,9,9.5,9S8,8.33,8,7.5S8.67,6,9.5,6z"/>
</g>
</svg>
