<?xml version="1.0" encoding="utf-8"?>
<!-- Generator: Adobe Illustrator 19.1.0, SVG Export Plug-In . SVG Version: 6.00 Build 0)  -->
<svg version="1.1" xmlns="http://www.w3.org/2000/svg" xmlns:xlink="http://www.w3.org/1999/xlink" x="0px" y="0px"
	 viewBox="0 0 16 16" enable-background="new 0 0 16 16" xml:space="preserve">
<g id="mimetype-text-ts">
	<path fill="#FF8700" d="M14,16H2V0h8l4,4V16z"/>
	<polygon opacity="0.1" points="13.75,15.75 2.25,15.75 2.25,0.25 10,0.25 10,0 2,0 2,16 14,16 14,4 13.75,4 	"/>
	<path opacity="0.7" fill="#FFFFFF" d="M14,4h-4V0L14,4z"/>
	<path opacity="0.3" d="M14,8l-4-4h4V8z"/>
	<path fill="#FFFFFF" d="M5.95,9.93H5V9.04h2.95v0.88H6.99v4.03H5.95V9.93z"/>
	<path fill="#FFFFFF" d="M8.35,12.98c0.22,0.11,0.58,0.19,0.88,0.19c0.49,0,0.73-0.23,0.73-0.55c0-0.36-0.24-0.53-0.69-0.8
		c-0.73-0.41-1.01-0.93-1.01-1.37C8.26,9.66,8.83,9,9.96,9c0.35,0,0.68,0.09,0.84,0.17L10.63,10c-0.15-0.09-0.38-0.17-0.68-0.17
		c-0.45,0-0.66,0.25-0.66,0.51c0,0.29,0.16,0.44,0.74,0.77C10.74,11.5,11,12,11,12.51c0,0.9-0.73,1.49-1.78,1.49
		c-0.43,0-0.85-0.1-1.03-0.2L8.35,12.98z"/>
</g>
</svg>
