<?xml version="1.0" encoding="utf-8"?>
<!-- Generator: Adobe Illustrator 19.1.0, SVG Export Plug-In . SVG Version: 6.00 Build 0)  -->
<svg version="1.1" xmlns="http://www.w3.org/2000/svg" xmlns:xlink="http://www.w3.org/1999/xlink" x="0px" y="0px"
	 viewBox="0 0 16 16" enable-background="new 0 0 16 16" xml:space="preserve">
<g id="mimetype-compressed">
	<path fill="#FFC857" d="M14,16H2V0h8l4,4V16z"/>
	<rect x="4" fill="#E8A33D" width="1" height="16"/>
	<rect x="5" fill="#8C8C8C" width="1" height="1"/>
	<rect x="5" y="2" fill="#8C8C8C" width="1" height="1"/>
	<rect x="5" y="4" fill="#8C8C8C" width="1" height="1"/>
	<rect x="5" y="6" fill="#8C8C8C" width="1" height="1"/>
	<rect x="5" y="8" fill="#8C8C8C" width="1" height="1"/>
	<rect x="4.5" y="10" fill="#8C8C8C" width="2" height="4"/>
	<polygon opacity="0.1" points="13.75,15.75 2.25,15.75 2.25,0.25 10,0.25 10,0 2,0 2,16 14,16 14,4 13.75,4 	"/>
	<path opacity="0.7" fill="#FFFFFF" d="M14,4h-4V0L14,4z"/>
	<path opacity="0.3" d="M14,8l-4-4h4V8z"/>
</g>
</svg>
