<?xml version="1.0" encoding="utf-8"?>
<!-- Generator: Adobe Illustrator 19.1.0, SVG Export Plug-In . SVG Version: 6.00 Build 0)  -->
<svg version="1.1" xmlns="http://www.w3.org/2000/svg" xmlns:xlink="http://www.w3.org/1999/xlink" x="0px" y="0px"
	 viewBox="0 0 16 16" enable-background="new 0 0 16 16" xml:space="preserve">
<g id="mimetype-text-js">
	<path fill="#F0DB4F" d="M14,16H2V0h8l4,4V16z"/>
	<polygon opacity="0.1" points="13.75,15.75 2.25,15.75 2.25,0.25 10,0.25 10,0 2,0 2,16 14,16 14,4 13.75,4 	"/>
	<path opacity="0.7" fill="#FFFFFF" d="M14,4h-4V0L14,4z"/>
	<path opacity="0.3" d="M14,8l-4-4h4V8z"/>
	<path fill="#333333" d="M6.99,12.2c0,0.25-0.04,0.49-0.11,0.72c-0.08,0.22-0.19,0.41-0.34,0.56
		c-0.16,0.16-0.35,0.29-0.57,0.38c-0.22,0.09-0.5,0.13-0.82,0.13c-0.22,0-0.43-0.01-0.63-0.03c-0.2-0.02-0.37-0.05-0.52-0.08V12.7
		h0.12c0.1,0.05,0.21,0.09,0.32,0.13c0.11,0.04,0.26,0.06,0.43,0.06c0.23,0,0.4-0.04,0.52-0.11c0.12-0.07,0.21-0.17,0.26-0.3
		c0.05-0.13,0.08-0.27,0.08-0.42c0.01-0.15,0.01-0.35,0.01-0.58V9.17h-1.1V8.1h2.34V12.2z"/>
	<path fill="#333333" d="M12,12.08c0,0.57-0.2,1.03-0.6,1.39C11,13.82,10.45,14,9.76,14
		c-0.4,0-0.75-0.04-1.04-0.12c-0.3-0.09-0.57-0.19-0.83-0.32v-1.39h0.14c0.26,0.25,0.54,0.44,0.86,0.57c0.32,0.13,0.62,0.2,0.92,0.2
		c0.08,0,0.17-0.01,0.3-0.02c0.12-0.02,0.22-0.04,0.3-0.08c0.09-0.05,0.17-0.1,0.23-0.17c0.06-0.07,0.09-0.17,0.09-0.31
		c0-0.13-0.05-0.24-0.14-0.33c-0.09-0.09-0.22-0.16-0.39-0.21c-0.18-0.05-0.37-0.1-0.58-0.14c-0.2-0.05-0.39-0.1-0.57-0.17
		c-0.4-0.16-0.7-0.37-0.88-0.64C8,10.57,7.92,10.23,7.92,9.83c0-0.54,0.2-0.98,0.6-1.32C8.92,8.17,9.44,8,10.07,8
		C10.38,8,10.7,8.04,11,8.11c0.31,0.07,0.58,0.16,0.8,0.28v1.33h-0.13c-0.19-0.19-0.43-0.34-0.71-0.47
		c-0.28-0.13-0.57-0.19-0.86-0.19c-0.1,0-0.21,0.01-0.31,0.03c-0.1,0.02-0.2,0.05-0.29,0.09c-0.08,0.04-0.16,0.1-0.22,0.18
		C9.22,9.44,9.19,9.53,9.19,9.63c0,0.15,0.05,0.27,0.15,0.35c0.1,0.08,0.28,0.15,0.55,0.22c0.18,0.04,0.35,0.09,0.51,0.13
		c0.16,0.04,0.34,0.1,0.53,0.17c0.37,0.15,0.64,0.34,0.81,0.59C11.91,11.35,12,11.68,12,12.08z"/>
</g>
</svg>
