<?xml version="1.0" encoding="utf-8"?>
<!-- Generator: Adobe Illustrator 19.1.0, SVG Export Plug-In . SVG Version: 6.00 Build 0)  -->
<svg version="1.1" xmlns="http://www.w3.org/2000/svg" xmlns:xlink="http://www.w3.org/1999/xlink" x="0px" y="0px"
	 viewBox="0 0 16 16" enable-background="new 0 0 16 16" xml:space="preserve">
<g id="mimetype-media-audio">
	<path fill="#FFFFFF" d="M14,16H2V0h8l4,4V16z"/>
	<polygon opacity="0.3" points="13.75,15.75 2.25,15.75 2.25,0.25 10,0.25 10,0 2,0 2,16 14,16 14,4 13.75,4 	"/>
	<path fill="#E6E6E6" d="M14,4h-4V0L14,4z"/>
	<path opacity="0.3" d="M14,8l-4-4h4V8z"/>
	<path fill="#6DAAE0" d="M11.83,7H5.67H5.5C5.22,7,5,7.22,5,7.5v4.26c-0.22,0.09-0.45,0.23-0.65,0.43
		c-0.54,0.54-0.68,1.26-0.32,1.62c0.36,0.36,1.08,0.21,1.62-0.32c0.35-0.35,0.53-0.77,0.52-1.13c0-0.01,0-0.01,0-0.02V8.17h3.5v3.59
		c-0.22,0.09-0.45,0.23-0.65,0.43c-0.54,0.54-0.68,1.26-0.32,1.62c0.36,0.36,1.08,0.21,1.62-0.32c0.35-0.35,0.53-0.77,0.52-1.13
		c0-0.01,0-0.01,0-0.02V8.03C11.3,8,11.92,7.82,11.83,7z"/>
</g>
</svg>
