<?xml version="1.0" encoding="utf-8"?>
<!-- Generator: Adobe Illustrator 19.1.0, SVG Export Plug-In . SVG Version: 6.00 Build 0)  -->
<svg version="1.1" xmlns="http://www.w3.org/2000/svg" xmlns:xlink="http://www.w3.org/1999/xlink" x="0px" y="0px"
	 viewBox="0 0 16 16" enable-background="new 0 0 16 16" xml:space="preserve">
<g id="mimetype-media-flash">
	<path fill="#FF3322" d="M14,16H2V0h8l4,4V16z"/>
	<polygon opacity="0.1" points="13.75,15.75 2.25,15.75 2.25,0.25 10,0.25 10,0 2,0 2,16 14,16 14,4 13.75,4 	"/>
	<path opacity="0.7" fill="#FFFFFF" d="M14,4h-4V0L14,4z"/>
	<path opacity="0.3" d="M14,8l-4-4h4V8z"/>
	<path fill="#FFFFFF" d="M10.35,7.7c0.19-0.07,0.4-0.11,0.65-0.11V6C9.93,6,9.07,6.43,8.42,7.3
		C8.19,7.6,7.96,7.99,7.77,8.46L7.29,9.72c-0.17,0.51-0.32,0.88-0.43,1.13c-0.15,0.36-0.3,0.64-0.45,0.85
		c-0.18,0.24-0.37,0.41-0.59,0.52C5.59,12.33,5.32,12.4,5,12.4V14c1.07,0,1.93-0.44,2.58-1.3c0.18-0.26,0.36-0.56,0.53-0.91l0.41-1
		h1.72v-1.6H9.11C9.22,8.93,9.33,8.7,9.45,8.5c0.12-0.2,0.26-0.38,0.4-0.49C10,7.87,10.16,7.77,10.35,7.7"/>
</g>
</svg>
