<?xml version="1.0" encoding="utf-8"?>
<!-- Generator: Adobe Illustrator 19.1.0, SVG Export Plug-In . SVG Version: 6.00 Build 0)  -->
<svg version="1.1" xmlns="http://www.w3.org/2000/svg" xmlns:xlink="http://www.w3.org/1999/xlink" x="0px" y="0px"
	 viewBox="0 0 16 16" enable-background="new 0 0 16 16" xml:space="preserve">
<g id="mimetype-text-csv">
	<path fill="#45B058" d="M14,16H2V0h8l4,4V16z"/>
	<polygon opacity="0.1" points="13.75,15.75 2.25,15.75 2.25,0.25 10,0.25 10,0 2,0 2,16 14,16 14,4 13.75,4 	"/>
	<path opacity="0.7" fill="#FFFFFF" d="M14,4h-4V0L14,4z"/>
	<path opacity="0.3" d="M14,8l-4-4h4V8z"/>
	<path fill="#FFFFFF" d="M4.74,12c-0.25,0-0.49-0.04-0.7-0.13c-0.21-0.08-0.4-0.21-0.55-0.38c-0.15-0.17-0.27-0.38-0.36-0.63
		C3.04,10.62,3,10.33,3,10C3,9.7,3.04,9.42,3.12,9.17c0.08-0.25,0.2-0.46,0.35-0.64c0.15-0.17,0.33-0.3,0.55-0.4
		C4.24,8.05,4.48,8,4.74,8c0.14,0,0.27,0.01,0.39,0.03C5.24,8.05,5.35,8.07,5.45,8.1c0.1,0.03,0.19,0.07,0.28,0.11
		c0.08,0.04,0.16,0.08,0.22,0.11v0.93h-0.1C5.8,9.21,5.75,9.16,5.68,9.11C5.62,9.05,5.54,8.99,5.46,8.94
		C5.38,8.88,5.29,8.84,5.19,8.8s-0.2-0.06-0.31-0.06c-0.12,0-0.24,0.02-0.35,0.07C4.41,8.85,4.31,8.92,4.21,9.03
		c-0.09,0.1-0.16,0.23-0.22,0.39c-0.05,0.16-0.08,0.36-0.08,0.59c0,0.24,0.03,0.44,0.09,0.61c0.06,0.16,0.14,0.29,0.23,0.38
		c0.09,0.09,0.2,0.16,0.31,0.2c0.11,0.04,0.23,0.06,0.34,0.06c0.11,0,0.21-0.02,0.32-0.05c0.11-0.04,0.2-0.09,0.29-0.15
		c0.07-0.05,0.14-0.1,0.21-0.16c0.06-0.06,0.12-0.11,0.16-0.15h0.09v0.92c-0.09,0.04-0.17,0.08-0.24,0.12
		c-0.08,0.04-0.16,0.07-0.24,0.1c-0.11,0.04-0.22,0.06-0.31,0.08C5.04,11.99,4.91,12,4.74,12z"/>
	<path fill="#FFFFFF" d="M9.32,10.71c0,0.38-0.14,0.69-0.43,0.93c-0.28,0.24-0.67,0.35-1.16,0.35c-0.28,0-0.53-0.03-0.74-0.08
		c-0.21-0.06-0.4-0.13-0.59-0.21v-0.92h0.1c0.18,0.16,0.38,0.29,0.61,0.38c0.23,0.09,0.44,0.13,0.65,0.13
		c0.05,0,0.12-0.01,0.21-0.02s0.16-0.03,0.21-0.05c0.07-0.03,0.12-0.07,0.16-0.12c0.04-0.05,0.07-0.12,0.07-0.21
		c0-0.08-0.03-0.16-0.1-0.22c-0.06-0.06-0.15-0.11-0.28-0.14c-0.13-0.03-0.26-0.07-0.41-0.1c-0.14-0.03-0.28-0.07-0.4-0.12
		c-0.29-0.11-0.49-0.25-0.62-0.43C6.49,9.71,6.43,9.49,6.43,9.22c0-0.36,0.14-0.65,0.43-0.88c0.29-0.23,0.65-0.34,1.1-0.34
		c0.22,0,0.45,0.02,0.66,0.07c0.22,0.05,0.41,0.11,0.57,0.18v0.89H9.09C8.95,9.03,8.78,8.92,8.58,8.84c-0.2-0.08-0.4-0.13-0.61-0.13
		c-0.07,0-0.15,0.01-0.22,0.02C7.68,8.74,7.62,8.76,7.55,8.79C7.49,8.82,7.44,8.86,7.4,8.91C7.35,8.96,7.33,9.02,7.33,9.09
		c0,0.1,0.03,0.18,0.1,0.24c0.07,0.05,0.2,0.1,0.39,0.15C7.95,9.5,8.07,9.53,8.18,9.56C8.3,9.59,8.42,9.62,8.55,9.67
		c0.26,0.1,0.45,0.23,0.58,0.4C9.26,10.23,9.32,10.45,9.32,10.71z"/>
	<path fill="#FFFFFF" d="M13,8.07l-1.24,3.85h-0.98L9.53,8.07h0.92l0.82,2.7l0.82-2.7C12.1,8.07,13,8.07,13,8.07z"/>
</g>
</svg>
