<?xml version="1.0" encoding="utf-8"?>
<!-- Generator: Adobe Illustrator 19.1.0, SVG Export Plug-In . SVG Version: 6.00 Build 0)  -->
<svg version="1.1" xmlns="http://www.w3.org/2000/svg" xmlns:xlink="http://www.w3.org/1999/xlink" x="0px" y="0px"
	 viewBox="0 0 16 16" enable-background="new 0 0 16 16" xml:space="preserve">
<g id="mimetype-powerpoint">
	<path fill="#D14524" d="M14,16H2V0h8l4,4V16z"/>
	<polygon opacity="0.1" points="13.75,15.75 2.25,15.75 2.25,0.25 10,0.25 10,0 2,0 2,16 14,16 14,4 13.75,4 	"/>
	<path opacity="0.7" fill="#FFFFFF" d="M14,4h-4V0L14,4z"/>
	<path opacity="0.3" d="M14,8l-4-4h4V8z"/>
	<path fill="#FFFFFF" d="M6.84,7.78v2.63h1.05c0.39,0,0.69-0.11,0.9-0.34
		c0.21-0.23,0.32-0.55,0.32-0.98c0-0.42-0.11-0.74-0.32-0.97c-0.21-0.23-0.51-0.34-0.9-0.34C7.89,7.78,6.84,7.78,6.84,7.78z M6,7
		h1.89c0.69,0,1.22,0.18,1.57,0.53C9.82,7.89,10,8.41,10,9.09c0,0.69-0.18,1.21-0.54,1.57c-0.35,0.35-0.88,0.53-1.57,0.53H6.84V14H6
		C6,14,6,7,6,7z"/>
</g>
</svg>
