<?xml version="1.0" encoding="utf-8"?>
<!-- Generator: Adobe Illustrator 19.1.0, SVG Export Plug-In . SVG Version: 6.00 Build 0)  -->
<svg version="1.1" xmlns="http://www.w3.org/2000/svg" xmlns:xlink="http://www.w3.org/1999/xlink" x="0px" y="0px"
	 viewBox="0 0 16 16" enable-background="new 0 0 16 16" xml:space="preserve">
<g id="mimetype-text-css">
	<path fill="#33ACDF" d="M14,16H2V0h8l4,4V16z"/>
	<polygon opacity="0.1" points="13.75,15.75 2.25,15.75 2.25,0.25 10,0.25 10,0 2,0 2,16 14,16 14,4 13.75,4 	"/>
	<path opacity="0.7" fill="#FFFFFF" d="M14,4h-4V0L14,4z"/>
	<path opacity="0.3" d="M14,8l-4-4h4V8z"/>
	<path fill="#FFFFFF" d="M7.03,13.39V14H6.79c-0.64,0-1.06-0.1-1.28-0.31
		c-0.21-0.21-0.32-0.63-0.32-1.25v-1.01c0-0.43-0.07-0.72-0.21-0.88C4.85,10.38,4.6,10.3,4.23,10.3H4V9.69h0.23
		c0.36,0,0.61-0.08,0.75-0.24c0.14-0.16,0.21-0.46,0.21-0.88V7.56c0-0.62,0.11-1.04,0.32-1.24C5.73,6.1,6.15,6,6.79,6h0.24v0.61
		H6.77c-0.36,0-0.59,0.06-0.7,0.19C5.95,6.92,5.9,7.18,5.9,7.57v1.05c0,0.44-0.06,0.76-0.18,0.97C5.61,9.79,5.41,9.93,5.13,10
		c0.28,0.08,0.48,0.21,0.6,0.41c0.11,0.2,0.17,0.52,0.17,0.96v1.05c0,0.4,0.05,0.66,0.16,0.78c0.11,0.12,0.34,0.19,0.7,0.19
		C6.77,13.39,7.03,13.39,7.03,13.39z"/>
	<path fill="#FFFFFF" d="M8.97,13.39h0.27c0.36,0,0.59-0.06,0.7-0.18
		c0.11-0.12,0.16-0.38,0.16-0.79v-1.05c0-0.44,0.06-0.76,0.17-0.96s0.31-0.34,0.6-0.41c-0.28-0.07-0.48-0.21-0.6-0.41
		c-0.11-0.2-0.17-0.52-0.17-0.97V7.57c0-0.4-0.05-0.66-0.16-0.78C9.83,6.67,9.6,6.61,9.24,6.61H8.97V6h0.24
		c0.64,0,1.06,0.1,1.27,0.31c0.21,0.21,0.32,0.62,0.32,1.24v1.02c0,0.42,0.07,0.71,0.21,0.88c0.14,0.16,0.39,0.24,0.75,0.24H12v0.61
		h-0.24c-0.36,0-0.61,0.08-0.75,0.25c-0.14,0.16-0.21,0.46-0.21,0.88v1.01c0,0.62-0.11,1.04-0.32,1.25C10.27,13.9,9.85,14,9.21,14
		H8.97V13.39z"/>
</g>
</svg>
