<?xml version="1.0" encoding="utf-8"?>
<!-- Generator: Adobe Illustrator 19.1.0, SVG Export Plug-In . SVG Version: 6.00 Build 0)  -->
<svg version="1.1" xmlns="http://www.w3.org/2000/svg" xmlns:xlink="http://www.w3.org/1999/xlink" x="0px" y="0px"
	 viewBox="0 0 16 16" enable-background="new 0 0 16 16" xml:space="preserve">
<g id="mimetype-text-php">
	<path fill="#6B7EB9" d="M14,16H2V0h8l4,4V16z"/>
	<polygon opacity="0.1" points="13.75,15.75 2.25,15.75 2.25,0.25 10,0.25 10,0 2,0 2,16 14,16 14,4 13.75,4 	"/>
	<path opacity="0.7" fill="#FFFFFF" d="M14,4h-4V0L14,4z"/>
	<path opacity="0.3" d="M14,8l-4-4h4V8z"/>
	<path fill="#FFFFFF" d="M3,9.1C3.27,9.04,3.64,9,4.01,9c0.58,0,1.03,0.08,1.36,0.38c0.3,0.26,0.43,0.67,0.43,1.09
		c0,0.54-0.16,0.92-0.42,1.2C5.07,12,4.56,12.15,4.16,12.15c-0.07,0-0.13,0-0.19,0V14H3V9.1z M3.97,11.36
		c0.04,0.01,0.1,0.01,0.16,0.01c0.49,0,0.71-0.35,0.71-0.81c0-0.44-0.18-0.78-0.63-0.78c-0.09,0-0.18,0.01-0.24,0.04V11.36z"/>
	<path fill="#FFFFFF" d="M7.36,9.02v1.99h1.01V9.02h0.97V14H8.37v-2.08H7.36V14H6.39V9.02H7.36z"/>
	<path fill="#FFFFFF" d="M10.2,9.1C10.48,9.04,10.85,9,11.22,9c0.58,0,1.03,0.08,1.35,0.38c0.3,0.26,0.43,0.67,0.43,1.09
		c0,0.54-0.16,0.92-0.42,1.2c-0.31,0.33-0.81,0.47-1.21,0.47c-0.07,0-0.13,0-0.19,0V14H10.2V9.1z M11.17,11.36
		c0.04,0.01,0.1,0.01,0.16,0.01c0.49,0,0.71-0.35,0.71-0.81c0-0.44-0.18-0.78-0.63-0.78c-0.09,0-0.18,0.01-0.24,0.04V11.36z"/>
</g>
</svg>
