<?xml version="1.0" encoding="utf-8"?>
<!-- Generator: Adobe Illustrator 19.1.0, SVG Export Plug-In . SVG Version: 6.00 Build 0)  -->
<svg version="1.1" xmlns="http://www.w3.org/2000/svg" xmlns:xlink="http://www.w3.org/1999/xlink" x="0px" y="0px"
	 viewBox="0 0 16 16" enable-background="new 0 0 16 16" xml:space="preserve">
<g id="mimetype-text-html">
	<path fill="#F16529" d="M14,16H2V0h8l4,4V16z"/>
	<polygon opacity="0.1" points="13.75,15.75 2.25,15.75 2.25,0.25 10,0.25 10,0 2,0 2,16 14,16 14,4 13.75,4 	"/>
	<path opacity="0.7" fill="#FFFFFF" d="M14,4h-4V0L14,4z"/>
	<path opacity="0.3" d="M14,8l-4-4h4V8z"/>
	<path fill="#FFFFFF" d="M7.42,7.33l-2.75,2.68l2.75,2.66V14L4,10.61V9.39L7.42,6V7.33z"/>
	<path fill="#FFFFFF" d="M8.58,7.33V6L12,9.39v1.21L8.58,14v-1.33l2.75-2.66L8.58,7.33z"/>
</g>
</svg>
