<?xml version="1.0" encoding="utf-8"?>
<!-- Generator: Adobe Illustrator 19.1.0, SVG Export Plug-In . SVG Version: 6.00 Build 0)  -->
<svg version="1.1" xmlns="http://www.w3.org/2000/svg" xmlns:xlink="http://www.w3.org/1999/xlink" x="0px" y="0px"
	 viewBox="0 0 16 16" enable-background="new 0 0 16 16" xml:space="preserve">
<g id="mimetype-pdf">
	<path fill="#FF0000" d="M14,16H2V0h8l4,4V16z"/>
	<path opacity="0.7" fill="#FFFFFF" d="M14,4h-4V0L14,4z"/>
	<path opacity="0.3" d="M14,8l-4-4h4V8z"/>
	<polygon opacity="0.1" points="13.75,15.75 2.25,15.75 2.25,0.25 10,0.25 10,0 2,0 2,16 14,16 14,4 13.75,4 	"/>
	<path fill="#FFFFFF" d="M6.91,10.55c-0.17,0.3-0.33,0.59-0.48,0.85c0.84-0.34,1.74-0.55,2.6-0.71c-0.12-0.08-0.23-0.16-0.33-0.24
		C8.22,10.06,7.86,9.58,7.6,9.07C7.43,9.5,7.24,9.96,6.91,10.55 M6.59,10.39c0.24-0.46,0.52-0.98,0.74-1.5l0.09-0.21
		C7.13,7.63,6.96,6.78,7.11,6.23C7.16,6.09,7.33,6,7.51,6l0.11,0h0.02C7.9,6,8.02,6.31,8.03,6.43c0.02,0.2-0.07,0.54-0.07,0.54
		c0-0.14,0.01-0.36-0.08-0.55c-0.1-0.22-0.2-0.35-0.29-0.37c-0.05,0.03-0.09,0.09-0.1,0.2C7.44,6.41,7.43,6.62,7.43,6.72
		c0,0.37,0.08,0.86,0.23,1.37c0.03-0.08,0.05-0.15,0.07-0.22c0.03-0.11,0.23-0.85,0.23-0.85S7.91,8,7.84,8.3
		C7.83,8.36,7.81,8.42,7.79,8.49c0.25,0.66,0.65,1.26,1.12,1.68c0.19,0.17,0.42,0.3,0.65,0.43c0.49-0.07,0.94-0.1,1.31-0.1
		c0.5,0.01,0.86,0.08,1.01,0.22c0.07,0.07,0.1,0.15,0.11,0.24c0,0.04-0.02,0.12-0.02,0.14c0.01-0.03,0.01-0.15-0.39-0.27
		c-0.32-0.1-0.9-0.09-1.61-0.02c0.82,0.39,1.62,0.58,1.87,0.46c0.06-0.03,0.14-0.13,0.14-0.13s-0.04,0.19-0.08,0.24
		c-0.04,0.05-0.12,0.11-0.2,0.13c-0.4,0.1-1.44-0.13-2.34-0.63c-1.01,0.14-2.12,0.41-3.01,0.69c-0.88,1.48-1.53,2.15-2.07,1.9
		l-0.2-0.1C4,13.33,3.99,13.23,4.01,13.14c0.06-0.29,0.45-0.74,1.21-1.18c0.08-0.05,0.45-0.24,0.45-0.24s-0.27,0.25-0.34,0.3
		c-0.61,0.48-1.07,1.09-1.06,1.33l0,0.02C4.8,13.31,5.59,12.28,6.59,10.39"/>
</g>
</svg>
