<svg xmlns="http://www.w3.org/2000/svg" viewBox="0 0 11 11"><g><path fill="#666" d="M8.05 0c-.705 0-1.369.276-1.87.776L4.823 2.134a2.628 2.628 0 0 0-.77 1.913h-.049c-.705 0-1.369.276-1.869.776L.776 6.18A2.632 2.632 0 0 0 0 8.05c0 .705.276 1.369.777 1.869l.305.305c.5.5 1.164.776 1.869.776.705 0 1.369-.276 1.869-.776l1.358-1.358a2.63 2.63 0 0 0 .77-1.918l.059.001c.702 0 1.362-.274 1.859-.771l1.358-1.358a2.645 2.645 0 0 0 0-3.738L9.919.776A2.63 2.63 0 0 0 8.05 0z"/><path fill="#DDD" d="M8.05 1c-.42 0-.84.161-1.162.483L5.53 2.841a1.64 1.64 0 0 0 0 2.324l.305.305a1.64 1.64 0 0 0 2.324 0l1.358-1.358a1.64 1.64 0 0 0 0-2.324l-.305-.305A1.638 1.638 0 0 0 8.05 1zm-.125.766c.298-.015.639.123.913.396.437.437.527 1.05.202 1.377L7.587 4.992c-.326.326-.941.237-1.378-.2s-.526-1.051-.2-1.378L7.461 1.96a.69.69 0 0 1 .464-.194zM4.003 5.047c-.42 0-.84.161-1.162.483L1.483 6.887a1.64 1.64 0 0 0 0 2.324l.305.305a1.64 1.64 0 0 0 2.324 0L5.47 8.159a1.64 1.64 0 0 0 0-2.324l-.305-.305a1.64 1.64 0 0 0-1.162-.483zm-.126.766c.298-.015.64.123.914.396.437.437.526 1.051.2 1.378L3.538 9.04c-.326.326-.94.236-1.377-.201-.437-.437-.527-1.051-.201-1.377l1.453-1.453a.69.69 0 0 1 .464-.196z"/><path fill="#212121" d="M5.529 5.166l.305.305c.234.234.521.381.821.444l.899-.899c-.333.293-.922.2-1.347-.224.217-.141-.782.138-.678.374zM5.169 5.532l.305.305c.234.234.381.521.444.821l-.899.899c.293-.333.2-.923-.224-1.347-.142.217.136-.782.374-.678z" opacity=".3"/><path fill="#FFF" d="M3.452 6.496l3.049-3.049c.175-.175.553-.081.843.209.29.29.384.668.209.843L4.504 7.548c-.175.175-.553.081-.843-.209-.29-.29-.384-.668-.209-.843z"/></g></svg>