<?xml version="1.0" encoding="utf-8"?>
<!-- Generator: Adobe Illustrator 19.1.0, SVG Export Plug-In . SVG Version: 6.00 Build 0)  -->
<svg version="1.1" xmlns="http://www.w3.org/2000/svg" xmlns:xlink="http://www.w3.org/1999/xlink" x="0px" y="0px"
	 viewBox="0 0 16 16" enable-background="new 0 0 16 16" xml:space="preserve">
<g id="apps-filetree-mount">
	<path fill="#B9B9B9" d="M0,4h16v5H0V4z"/>
	<path fill="#B9B9B9" d="M16,12v2H0v-2H16z"/>
	<path fill="#5599FF" d="M12,11v4H4v-4h2V9h4v2H12z"/>
	<path fill="#8C8C8C" d="M1,7h10v1H1V7z"/>
	<path fill="#8C8C8C" d="M1,5h10v1H1V5z"/>
	<path fill="#EFEFEF" d="M2.75,2h10.5L15,4H1L2.75,2z"/>
	<path fill="#B9B9B9" d="M13.25,2L15,4H1l1.75-2H13.25 M13.25,1H2.75C2.46,1,2.19,1.12,2,1.34l-1.75,2
		c-0.26,0.3-0.32,0.71-0.16,1.07C0.25,4.77,0.61,5,1,5h14c0.39,0,0.75-0.23,0.91-0.59c0.16-0.36,0.1-0.78-0.16-1.07l-1.75-2
		C13.81,1.12,13.54,1,13.25,1L13.25,1z"/>
	<path opacity="0.3" enable-background="new    " d="M6,9h4v1H6V9z"/>
	<path fill="#CD201F" d="M13,7h2v1h-2V7z"/>
	<path fill="#5599FF" d="M13,5h2v1h-2V5z"/>
</g>
</svg>
