<?xml version="1.0" encoding="utf-8"?>
<!-- Generator: Adobe Illustrator 19.1.0, SVG Export Plug-In . SVG Version: 6.00 Build 0)  -->
<svg version="1.1" id="Ebene_1" xmlns="http://www.w3.org/2000/svg" xmlns:xlink="http://www.w3.org/1999/xlink" x="0px" y="0px"
	 viewBox="0 0 16 16" enable-background="new 0 0 16 16" xml:space="preserve">
<path id="apps-toolbar-menu-search" d="M13.92,15c-0.29,0-0.56-0.12-0.76-0.32l-2.89-2.88c-0.98,0.68-2.16,1.04-3.36,1.04
	C3.65,12.85,1,10.2,1,6.92C1,3.65,3.65,1,6.92,1c3.27,0,5.92,2.65,5.92,5.92c0,1.19-0.36,2.37-1.04,3.36l2.89,2.89
	c0.19,0.19,0.31,0.47,0.31,0.76C15,14.51,14.51,15,13.92,15z M6.92,2.42c-2.48,0-4.5,2.02-4.5,4.5s2.02,4.5,4.5,4.5
	c2.48,0,4.5-2.02,4.5-4.5S9.4,2.42,6.92,2.42z"/>
</svg>
