<?xml version="1.0" encoding="utf-8"?>
<!-- Generator: Adobe Illustrator 19.1.0, SVG Export Plug-In . SVG Version: 6.00 Build 0)  -->
<svg version="1.1" xmlns="http://www.w3.org/2000/svg" xmlns:xlink="http://www.w3.org/1999/xlink" x="0px" y="0px"
	 viewBox="0 0 16 16" enable-background="new 0 0 16 16" xml:space="preserve">
<g id="apps-filetree-folder-locked">
	<path fill="#CCCCCC" d="M16,4v10H0V5V4V2h7l1.33,2H16z"/>
	<path opacity="0.2" d="M16,5H8.33L7,7H0V5V4h16V5z"/>
	<path fill="#999999" d="M12.02,8.5c-1.37,0-2.5,1.13-2.5,2.5h0v0.5h1V11h0c0-0.83,0.67-1.5,1.5-1.5s1.5,0.67,1.5,1.5h0v0.5h1V11h0
		C14.52,9.63,13.4,8.5,12.02,8.5z"/>
	<rect x="9" y="11.5" fill="#FFC857" width="6" height="4"/>
	<path fill="#CD9232" d="M13,13c0-0.55-0.45-1-1-1s-1,0.45-1,1c0,0.37,0.2,0.69,0.5,0.86V15h1v-1.14C12.8,13.69,13,13.37,13,13z"/>
</g>
</svg>
