<svg xmlns="http://www.w3.org/2000/svg" viewBox="0 0 16 16"><path fill="#FFF" d="M2 1h12v14H2V1z"/><path fill="#999" d="M2 1v14h12V1H2zm1 1h10v12H3V2z"/><path fill="#CCC" d="M4 8h2v2H4z"/><path fill="#666" d="M4 3h8v1H4z"/><path fill="#CCC" d="M4 5h2v2H4zM4 11h2v2H4z"/><path fill="#FFF" d="M7 5h8v11H7z"/><path fill="#59F" d="M7 5h8v6H7V5z"/><path fill="#FFF" d="M12 10H9l1.6-2 1.4 2z" opacity=".5"/><path fill="#FFF" d="M13 10h-2.7l1.4-1.4L13 10z" opacity=".5"/><circle cx="12.5" cy="7.5" r=".5" fill="#FFF" opacity=".5"/><path fill="#B9B9B9" d="M9 13h2v1H9zM9 12h4v1H9z"/><path fill="#666" d="M7 5v11h8V5H7zm7 10H8V6h6v9z"/></svg>