<svg xmlns="http://www.w3.org/2000/svg" viewBox="0 0 16 16"><path fill="#FFF" d="M4 3h10v12H4V3z"/><path fill="#666" d="M4 3v12h10V3H4zm1 1h8v10H5V4z"/><path fill="#999" d="M5 4h8v1H5z"/><path fill="#B9B9B9" d="M2 1h1v1H2zM2 3h1v1H2zM2 5h1v1H2zM2 7h1v1H2zM2 9h1v1H2zM2 11h1v1H2zM4 1h1v1H4zM6 1h1v1H6zM8 1h1v1H8zM10 1h1v1h-1z"/><path fill="#FF8700" d="M6 8c2.757 0 5 2.243 5 5h1a6 6 0 0 0-6-6v1z"/><path fill="#FF8700" d="M6 10c1.654 0 3 1.346 3 3h1a4 4 0 0 0-4-4v1zM6.75 13a.75.75 0 0 1 0-1.5.75.75 0 0 1 0 1.5z"/></svg>