<svg xmlns="http://www.w3.org/2000/svg" viewBox="0 0 16 16"><g><path fill="#59F" d="M1 10h6v5H1z"/><path fill="#212121" d="M1 10v5h6v-5H1zm5 4H2v-3h4v3z" opacity=".2"/><path fill="#FFF" d="M3 12h2v1H3v-1z"/></g><g><path fill="#639" d="M9 10h6v5H9z"/><path fill="#212121" d="M9 10v5h6v-5H9zm5 4h-4v-3h4v3z" opacity=".2"/><path fill="#FFF" d="M11 12h2v1h-2v-1z"/></g><g><path fill="#999" d="M4 1h8v8H4z"/><path fill="#FFF" d="M5 2h6v6H5z"/><path fill="#515151" d="M6 3h4v2H6V3z"/><path fill="#B9B9B9" d="M6 6h4v1H6z"/></g><path fill="#212121" d="M1 3h1v1H1zM3 3h1v1H3zM1 5h1v1H1zM1 7h1v1H1zM14 3h1v1h-1zM12 3h1v1h-1zM14 5h1v1h-1zM14 7h1v1h-1zM1 9h1v1H1zM14 9h1v1h-1z" opacity=".2"/></svg>