<svg xmlns="http://www.w3.org/2000/svg" viewBox="0 0 16 16"><path fill="#FFF" d="M1 1h14v14H1V1z"/><path fill="#999" d="M1 1v14h14V1H1zm1 1h12v12H2V2z"/><path fill="#B9B9B9" d="M6 3h7v2H6z"/><path fill="#FF8700" d="M3 3h2v2H3z"/><path fill="#B9B9B9" d="M6 6h7v1H6z"/><path fill="#FF8700" d="M4 6h1v1H4z"/><path fill="#B9B9B9" d="M8 8h5v1H8z"/><path fill="#FF8700" d="M6 8h1v1H6z"/><path fill="#B9B9B9" d="M8 10h5v1H8z"/><path fill="#FF8700" d="M6 10h1v1H6z"/><path fill="#B9B9B9" d="M8 12h5v1H8z"/><path fill="#FF8700" d="M6 12h1v1H6z"/></svg>