<svg xmlns="http://www.w3.org/2000/svg" viewBox="0 0 16 16"><path fill="#639" d="M1 11h4v4H1v-4z"/><path d="M4 12v2H2v-2h2m1-1H1v4h4v-4z" opacity=".25"/><path fill="#59F" d="M6 11h4v4H6v-4z"/><path d="M9 12v2H7v-2h2m1-1H6v4h4v-4z" opacity=".25"/><path fill="#59F" d="M11 11h4v4h-4v-4z"/><path d="M14 12v2h-2v-2h2m1-1h-4v4h4v-4z" opacity=".25"/><g><path fill="#999" d="M1 2h9v8H1z"/><path fill="#FFF" d="M2 3h7v6H2z"/><path fill="#515151" d="M3 4h5v2H3V4z"/><path fill="#B9B9B9" d="M3 7h5v1H3z"/></g><g><path fill="#999" d="M6 1h9v9H6z"/><path fill="#FFF" d="M7 2h7v7H7z"/><path fill="#515151" d="M8 3h5v2H8V3z"/><path fill="#B9B9B9" d="M8 6h5v1H8z"/></g><path fill="#999" d="M2.5 10h1v1h-1zM7.5 10h1v1h-1zM12.5 10h1v1h-1z" opacity=".5"/><path fill="#FFF" d="M5 2h1v8H5z" opacity=".75"/></svg>