<svg xmlns="http://www.w3.org/2000/svg" viewBox="0 0 16 16"><path fill="#FFF" d="M6 1h7v3H6z"/><path fill="#BBB" d="M10 1H6v3h7V1h-3zM9 3H7V2h2v1zm3 0h-2V2h2v1z"/><path fill="#FFF" d="M1 1h6v2h8v12H1V1z"/><path fill="#999" d="M6 2v2h8v10H2V2h4m1-1H1v14h14V3H7V1z"/><g><path fill="#B9B9B9" d="M3 11h3v2H3z"/></g><g><path fill="#D9D9D9" d="M3 5h5v5H3z"/></g><g><path fill="#A4276A" d="M8 10H3V9l1.5-1.5 1.5 1L8 6v4z"/></g><g opacity=".5"><path fill="#A4276A" d="M3 3h2v1H3z"/></g><g><path fill="#666" d="M9 5h4v1H9z"/></g><g><path fill="#B9B9B9" d="M9 6h4v4H9z"/></g><g><path fill="#B9B9B9" d="M7 12h4v1H7z"/></g><g><path fill="#666" d="M7 11h6v1H7z"/></g></svg>