<svg xmlns="http://www.w3.org/2000/svg" xml:space="preserve" viewBox="0 0 16 16"><g><path fill="#59F" d="m11 15-2.889-1L5 15V9h6z"/><path fill="#212121" d="M10 10v3.596l-1.562-.541-.315-.109-.318.102-1.805.58V10h4m1-1H5v6l3.111-1L11 15V9z" opacity=".2"/><path fill="#FFC857" d="M8 .75c-.474 0-.93.186-1.269.514a1.834 1.834 0 0 0-2.197 1.269 1.822 1.822 0 0 0-1.269 2.198 1.825 1.825 0 0 0 0 2.538 1.821 1.821 0 0 0 1.268 2.198 1.833 1.833 0 0 0 2.198 1.269c.339.328.795.514 1.269.514s.93-.186 1.269-.514a1.834 1.834 0 0 0 2.198-1.269 1.824 1.824 0 0 0 1.269-2.198 1.825 1.825 0 0 0-.001-2.538 1.826 1.826 0 0 0-1.269-2.198 1.833 1.833 0 0 0-2.198-1.269A1.824 1.824 0 0 0 8 .75z"/><path fill="#E8A33D" d="M13.25 6c0-.474-.186-.93-.515-1.269a1.826 1.826 0 0 0-1.269-2.198 1.833 1.833 0 0 0-2.198-1.269 1.824 1.824 0 0 0-2.537 0 1.834 1.834 0 0 0-2.197 1.269 1.822 1.822 0 0 0-1.269 2.198 1.825 1.825 0 0 0 0 2.538 1.822 1.822 0 0 0 1.268 2.198 1.833 1.833 0 0 0 2.198 1.269c.339.328.795.514 1.269.514s.93-.186 1.269-.514a1.834 1.834 0 0 0 2.198-1.269 1.824 1.824 0 0 0 1.269-2.198c.328-.339.514-.795.514-1.269zm-1.213.691a.824.824 0 0 0-.23.857A.821.821 0 0 1 11.2 8.6a.821.821 0 0 0-.627.627.822.822 0 0 1-1.053.608.822.822 0 0 0-.857.23.822.822 0 0 1-1.215 0 .824.824 0 0 0-.857-.23.821.821 0 0 1-1.052-.607.824.824 0 0 0-.628-.628.821.821 0 0 1-.607-1.052.822.822 0 0 0-.23-.857.822.822 0 0 1 0-1.215.824.824 0 0 0 .23-.857.822.822 0 0 1 .607-1.053.821.821 0 0 0 .628-.627.822.822 0 0 1 1.052-.608.822.822 0 0 0 .857-.23.822.822 0 0 1 1.215 0 .824.824 0 0 0 .857.23.822.822 0 0 1 1.052.608.821.821 0 0 0 .627.627.822.822 0 0 1 .608 1.052.822.822 0 0 0 .23.857.823.823 0 0 1 0 1.216z"/><circle cx="8" cy="6" r="2" fill="#FFF" opacity=".5"/></g></svg>