<svg xmlns="http://www.w3.org/2000/svg" viewBox="0 0 16 16"><path fill="#FFF" d="M2 1h8v12H2z"/><path fill="#CACACA" d="M2 1h8v6H2V1z"/><path fill="#FFF" d="M7 6H4l.8-1 .8-1 .8 1L7 6z" opacity=".5"/><path fill="#FFF" d="M8 6H5.3l.7-.7.7-.7.7.7.6.7z" opacity=".5"/><circle cx="7.5" cy="3.5" r=".5" fill="#FFF" opacity=".5"/><path fill="#B9B9B9" d="M4 9h2v1H4zm0-1h4v1H4z"/><path fill="#999" d="M2 1v12h8V1H2zm7 11H3V2h6v10z"/><path fill="#FFF" d="M6 3h8v12H6z"/><path fill="#59F" d="M6 3h8v6H6V3z"/><path fill="#FFF" d="M11 8H8l.8-1 .8-1 .8 1 .6 1z" opacity=".5"/><path fill="#FFF" d="M12 8H9.3l.7-.7.7-.7.7.7.6.7z" opacity=".5"/><circle cx="11.5" cy="5.5" r=".5" fill="#FFF" opacity=".5"/><path fill="#B9B9B9" d="M8 11h2v1H8zm0-1h4v1H8z"/><path fill="#666" d="M6 3v12h8V3H6zm7 11H7V4h6v10z"/></svg>