<svg xmlns="http://www.w3.org/2000/svg" viewBox="0 0 16 16"><path fill="#FFF" d="M6 1h7v3H6z"/><path fill="#BBB" d="M10 1H6v3h7V1h-3zM9 3H7V2h2v1zm3 0h-2V2h2v1z"/><path fill="#FFF" d="M1 1h6v2h8v12H1V1z"/><path fill="#999" d="M6 2v2h8v10H2V2h4m1-1H1v14h14V3H7V1z"/><path fill="#EAEAEA" d="M13 5H3v8h10z"/><path fill="#999" d="M13 5h-2v1h2zM9 12H8v1h1zM7 12H6v1h1zM4 8H3v1h1zM5 12H3v1h2zM4 10H3v1h1zM4 5H3v2h1zM6 5H5v1h1zM8 5H7v1h1zM10 5H9v1h1zM13 11h-1v2h1zM11 12h-1v1h1zM13 7h-1v1h1zM13 9h-1v1h1z"/></svg>