<svg xmlns="http://www.w3.org/2000/svg" viewBox="0 0 16 16"><path fill="#999" d="M5 1h9v11H5z"/><path fill="#FFF" d="M6 2h7v9H6z"/><g><path fill="#59F" d="M7 3h5v7H7V3z"/><path fill="#E9F2FF" d="M12 3.653a.977.977 0 0 0-.5-.153 1 1 0 0 0 0 2 .977.977 0 0 0 .5-.153V3.653zM11 7l-2 3h3V8.5z"/><path fill="#ACF" d="M7 7v3h4L8 5.5z"/></g><path fill="#666" d="M2 4h9v11H2z"/><path fill="#FFF" d="M3 5h7v9H3z"/><g><path fill="#59F" d="M4 6h5v7H4V6z"/><path fill="#E9F2FF" d="M9 6.653a.977.977 0 0 0-.5-.153 1 1 0 0 0 0 2 .977.977 0 0 0 .5-.153V6.653zM8 10l-2 3h3v-1.5z"/><path fill="#ACF" d="M4 10v3h4L5 8.5z"/></g></svg>