<?xml version="1.0" encoding="utf-8"?>
<!-- Generator: Adobe Illustrator 19.0.1, SVG Export Plug-In . SVG Version: 6.00 Build 0)  -->
<svg version="1.1" xmlns="http://www.w3.org/2000/svg" xmlns:xlink="http://www.w3.org/1999/xlink" x="0px" y="0px"
	 viewBox="0 0 64 64" enable-background="new 0 0 64 64" xml:space="preserve">
<g id="Background">
	<rect fill="#7A950F" width="64" height="64"/>
</g>
<g id="Icon">
	<path fill="#FFFFFF" d="M30,36.9c0-1.6-1.3-2.9-2.9-2.9H16.8c-1.6,0-2.9,1.3-2.9,2.9v8.3c0,1.6,1.3,2.9,2.9,2.9h10.3
		c1.6,0,2.9-1.3,2.9-2.9V36.9z M30,18.9c0-1.6-1.3-2.9-2.9-2.9H16.8c-1.6,0-2.9,1.3-2.9,2.9v8.3c0,1.6,1.3,2.9,2.9,2.9h10.3
		c1.6,0,2.9-1.3,2.9-2.9V18.9z M50,36.9c0-1.6-1.3-2.9-2.9-2.9H36.8c-1.6,0-2.9,1.3-2.9,2.9v8.3c0,1.6,1.3,2.9,2.9,2.9h10.3
		c1.6,0,2.9-1.3,2.9-2.9V36.9z M50,18.9c0-1.6-1.3-2.9-2.9-2.9H36.8c-1.6,0-2.9,1.3-2.9,2.9v8.3c0,1.6,1.3,2.9,2.9,2.9h10.3
		c1.6,0,2.9-1.3,2.9-2.9V18.9z"/>
</g>
</svg>
