<svg xmlns="http://www.w3.org/2000/svg" viewBox="0 0 64 64"><path fill="#7A950F" d="M0 0h64v64H0z"/><path fill="#FFF" d="M30 36.9c0-1.6-1.3-2.9-2.9-2.9H16.8c-1.6 0-2.9 1.3-2.9 2.9v8.3c0 1.6 1.3 2.9 2.9 2.9h10.3c1.6 0 2.9-1.3 2.9-2.9v-8.3zm0-18c0-1.6-1.3-2.9-2.9-2.9H16.8c-1.6 0-2.9 1.3-2.9 2.9v8.3c0 1.6 1.3 2.9 2.9 2.9h10.3c1.6 0 2.9-1.3 2.9-2.9v-8.3zm20 18c0-1.6-1.3-2.9-2.9-2.9H36.8c-1.6 0-2.9 1.3-2.9 2.9v8.3c0 1.6 1.3 2.9 2.9 2.9h10.3c1.6 0 2.9-1.3 2.9-2.9v-8.3zm0-18c0-1.6-1.3-2.9-2.9-2.9H36.8c-1.6 0-2.9 1.3-2.9 2.9v8.3c0 1.6 1.3 2.9 2.9 2.9h10.3c1.6 0 2.9-1.3 2.9-2.9v-8.3z"/></svg>