<svg xmlns="http://www.w3.org/2000/svg" viewBox="0 0 64 64"><path fill="#632F5F" d="M0 0h64v64H0z"/><path fill="#FFF" d="M32 15.9c-8.9 0-16.1 7.2-16.1 16.1S23.1 48.1 32 48.1 48.1 40.9 48.1 32 40.9 15.9 32 15.9zm5.8 10.9c.2-.1.6-.3.9-.3.2.1.4.1.1.3-.1.1-.3 0-.5 0 .2 0 .5.1.4.3.5.3-.2.7-.5.7.2 0-.4.3-.4.3-.2.1-.4.1-.6.3-.2.2.1.6-.3.5-.1.3-.6.1-.8.4.2.3-.2.6-.5.3-.2.1-.1.3-.3.4.1.1.1.3 0 .3 0 0 .3.2.4.2 0 .1-.1.2-.2.2.1.3-.1.6-.3.7-.2.2-.7.3-.8.4-.4.4-.6.9 0 1v.7c0 .3.1 1-.3.7-.2-.1-.3-.7-.4-.9-.1-.3-.1-.3-.3-.5-.3.3-.3.1-.5-.1-.2-.1-.6-.1-.7-.2-.3.2-.5.2-.6-.2-.1.2.1.4.1.5-.1.2-.3.2-.5 0-.3-.2-.9.1-1.2 0 0 0 .1.1.2.1-.1.3-.2.1-.3.2l-.4.4c.3.5 0 1 0 1.6 0 .4.3 1.2.7 1.4.2.1.8.1 1 .1.3-.1.3-.4.4-.6.1-.3.2-.4.5-.4.9 0 .2.7.1 1.1-.1.3-.1.6-.1.8h.3c0-.1.1-.2.1-.3.1.2.5.3.7 0 .1.3.4.4.5.7 0 .3.3.6-.1.6-.3 0 0 .6.1.7.2.4.6.6 1 .4 0 .2-.1.6-.3.7-.2 0-.6-.4-.5-.6 0 .1-.1.1-.1.2-.2-.3-.6-.4-.8-.6 0-.1-.6-.9-.5-1-.3.1-.9-.1-1.2-.2-.4-.2-.5-.8-1.1-.8-.4.1-.5.2-.9 0-.3-.1-.5-.3-.8-.5-.3-.2-.9-.4-1.1-.8-.1-.3-.1-.7-.3-1.1-.1-.2-.5-.6-.8-.6.3 0-.2-.6-.3-.7-.2-.3-1.1-1-.9-1.4 0-.1-.4-.2-.5-.3.1.2.1.4.2.6.1.2.2.4.4.6.2.4.5.8.5 1.3-.3.1-.2-.3-.3-.5-.1-.3-.5-.3-.7-.6h.1c0-.4-.5-.7-.4-.9-.3-.2-.3-.7-.5-1-.2-.3-.5-.4-.8-.6-.1-.1-.9-1-.6-1.1-.4.1-.6-.9-.6-1.1.1-.3-.1-1.6.3-1.6-.2 0-.3-.5-.2-.7 0-.1.4.2.4.3.1-.1.3-.2.2-.4-.1-.2-.3-.3-.4-.4-.1 0-.9-.6-.9-.6.1-.1.1-.3-.1-.4-.4.3-.2-.3-.4-.4-.1 0-.2-.1-.3-.2 1.2-1.9 2.9-3.6 4.9-4.7h.5c.4 0 .6.4.9.5 0-.1 0-.3-.1-.4.1-.2.3-.2.5-.3.2 0 .5-.1.6 0-.1-.2-.3-.4-.4-.5l-.1.1c-.2-.2-.7.1-.9.1-.2.1-.3.2-.5.3h-.3c.6-.3 1.3-.6 2-.9.1.1.3.2.4.4v1.3c.2.3.7.1 1.1.1 0 0 .9.1.7-.1.1.2.1.5.3.7.2-.2-.1-.4 0-.6 0-.1.4-.2.5-.3.1-.1-.1-.3-.2-.3-.2-.1-1-.2-.6-.7.1-.2.7-.1.8 0 .2.1.5.4.2.6.1 0 .8.2.7.5.1-.1.2-.3.3-.3.2 0 .2.5.3.6.3.5.8-.5.9-.5-.4-.1.3-.3.5-.3.1.1.4.6.1.5.2.2.3.7-.2.7-.3 0-.6-.4-.9-.1-.2.2-.3.5-.5.7-.3.3-.7.3-1.1.2.1 0-.3.5-.4.6-.1.1-.2.3-.3.5 0 .2 0 .4-.1.7.4-.1.5.5.4.6.4-.1.8-.1 1.2.1.3.1.7.2.9.5.1-.1.5-.1.6 0 .3.1.3.4.3.6.1.3.4.8.7.7.1 0 .5-.3.4-.4-.2-.1-.4-.5-.2-.7.2-.2.6-.3.7-.6.2-.5-.5-.4-.5-.8 0-.2.3-.3.3-.5s-.3-.6-.1-.8c.2-.1 1.2.1 1.4.2.2.1.8.3.8.5h-.1c.2.1.3.5 0 .5.2 0 .7.2.4.3.1-.1.2 0 .4-.1.1-.1.2-.2.4-.1 0 0 .3-.4.4-.4.2 0 .2.3.3.4.1.2.3.3.4.4.1.4.1.7.6.8.1 0 .5-.2.5.1.1-.1.1-.1.1-.2 0 .3.1.6.5.6v.5c-.1.2-.4.1-.6.3-.1 0-.6.5-.5.5-.3-.3-.7-.3-1.1-.2-.4.1-.7.1-1.1.3-.2.1-.3.2-.5.3-.1.1-.2.5-.3.5.7 0 .8-.3 1-.4zm-3.5 18.4v-.3c0-.3.3-.6.3-.9-.2-.1-.3-.3-.3-.5 0-.4.4-.6.6-.8.3-.2.3-.7.3-1-.1-.5-.1-1-.2-1.5 0 .1.4.1.4.3.1-.1.1-.3.2-.5.1-.1.2-.2.4-.3.2-.1.7-.6.9-.3.2.3-.3.5 0 .8.1-.2 0-.4.2-.6.3-.4.6 0 .9.1.4.1.5.2.8.5-.1-.1.3-.2.4-.3.4-.1.6.1.8.4.3.2.8.4.7.8.2 0 .3.1.5.2s.4 0 .5.2c-1.9 1.8-4.5 3.2-7.4 3.7z"/></svg>