<svg xmlns="http://www.w3.org/2000/svg" viewBox="0 0 64 64"><path fill="#CA6434" d="M0 0h64v64H0z"/><path fill-rule="evenodd" clip-rule="evenodd" fill="#FFF" d="M47.4 42H24.6c-.3 0-.6-.3-.6-.6v-2.8c0-.3.3-.6.6-.6h22.7c.3 0 .6.3.6.6v2.8c.1.3-.2.6-.5.6zm0-8H24.7c-.3 0-.6-.3-.6-.6v-2.7c0-.3.3-.6.6-.6h22.7c.3 0 .6.3.6.6v2.7c0 .3-.3.6-.6.6zm0-8H24.6c-.3 0-.6-.3-.6-.6v-2.8c0-.3.3-.6.6-.6h22.7c.3 0 .6.3.6.6v2.8c.1.3-.2.6-.5.6zm-28 16h-2.7c-.3 0-.6-.3-.6-.6v-2.8c0-.3.3-.6.6-.6h2.7c.3 0 .6.3.6.6v2.8c0 .3-.3.6-.6.6zm0-8h-2.7c-.3 0-.6-.3-.6-.6v-2.8c0-.3.3-.6.6-.6h2.7c.3 0 .6.3.6.6v2.8c0 .3-.3.6-.6.6zm0-8h-2.7c-.3 0-.6-.3-.6-.6v-2.8c0-.3.3-.6.6-.6h2.7c.3 0 .6.3.6.6v2.8c0 .3-.3.6-.6.6z"/></svg>