<svg viewBox="0 0 64 64" xmlns="http://www.w3.org/2000/svg"><title>module-list</title><g fill="none" fill-rule="evenodd"><path d="M0 0h64v64H0z" fill="#CA6434"/><path d="M19 20c.552 0 1-.448 1-1s-.448-1-1-1-1 .448-1 1 .448 1 1 1zm3-1c0-.552.447-1 1-1h22c.552 0 1 .444 1 1 0 .552-.447 1-1 1H23c-.552 0-1-.444-1-1zm-6-3h32v6H16v-6zM19 28c.552 0 1-.448 1-1s-.448-1-1-1-1 .448-1 1 .448 1 1 1zm3-1c0-.552.447-1 1-1h22c.552 0 1 .444 1 1 0 .552-.447 1-1 1H23c-.552 0-1-.444-1-1zm-6-3h32v6H16v-6zM19 36c.552 0 1-.448 1-1s-.448-1-1-1-1 .448-1 1 .448 1 1 1zm3-1c0-.552.447-1 1-1h22c.552 0 1 .444 1 1 0 .552-.447 1-1 1H23c-.552 0-1-.444-1-1zm-6-3h32v6H16v-6zM22 43c0-.552.447-1 1-1h22c.552 0 1 .444 1 1 0 .552-.447 1-1 1H23c-.552 0-1-.444-1-1zm-3 1c.552 0 1-.448 1-1s-.448-1-1-1-1 .448-1 1 .448 1 1 1zm-3-4h32v6H16v-6z" fill="#FFF"/></g></svg>