<?xml version="1.0" encoding="utf-8"?>
<!-- Generator: Adobe Illustrator 21.0.0, SVG Export Plug-In . SVG Version: 6.00 Build 0)  -->
<svg version="1.1" id="Ebene_1" xmlns="http://www.w3.org/2000/svg" xmlns:xlink="http://www.w3.org/1999/xlink" x="0px" y="0px"
	 viewBox="0 0 16 16" style="enable-background:new 0 0 16 16;" xml:space="preserve">
<path style="fill:#676767;" d="M2,5.3h1.6V3.7H2V5.3z M4.5,5.3h1.6V3.7H4.5V5.3z M7,3.7v1.6h1.6V3.7H7z M2,12.3h1.6v-1.6H2V12.3z
	 M4.5,12.3h1.6v-1.6H4.5V12.3z M7,12.3h1.6v-1.6H7V12.3z"/>
<path style="fill:#9A9999;" d="M0,2v5h16V2H0z M15,6H1V3h14V6z M0,14h16V9H0V14z M1,10h14v3H1V10z"/>
<path style="fill:#FFFFFF;" d="M1,3v3h14V3H1z M3.6,5.3H2V3.7h1.6V5.3z M6.1,5.3H4.5V3.7h1.6V5.3z M8.6,5.3H7V3.7h1.6V5.3z M1,13h14
	v-3H1V13z M7,10.7h1.6v1.6H7V10.7z M4.5,10.7h1.6v1.6H4.5V10.7z M2,10.7h1.6v1.6H2V10.7z"/>
</svg>
