<?xml version="1.0" encoding="utf-8"?>
<!-- Generator: Adobe Illustrator 20.1.0, SVG Export Plug-In . SVG Version: 6.00 Build 0)  -->
<svg version="1.1" id="Ebene_1" xmlns="http://www.w3.org/2000/svg" xmlns:xlink="http://www.w3.org/1999/xlink" x="0px" y="0px"
	 viewBox="0 0 16 16" style="enable-background:new 0 0 16 16;" xml:space="preserve">
<path style="fill:#FFFFFF;" d="M15,15V1H1v14H15z M4.1,8l2.1,2.1l5.7-5.6l0.7,0.7l-5.7,5.6l-0.7,0.7l-0.7-0.7L3.4,8.7L4.1,8z"/>
<path style="fill:#9A9999;" d="M15,0H1H0v1v14v1h1h14h1v-1V1V0H15z M15,15H1V1h14V15z"/>
<polygon style="fill:#676767;" points="11.9,4.5 6.2,10.1 4.1,8 3.4,8.7 6.2,11.5 6.9,10.8 12.6,5.2 "/>
</svg>
