<?xml version="1.0" encoding="utf-8"?>
<!-- Generator: Adobe Illustrator 20.1.0, SVG Export Plug-In . SVG Version: 6.00 Build 0)  -->
<svg version="1.1" id="Ebene_1" xmlns="http://www.w3.org/2000/svg" xmlns:xlink="http://www.w3.org/1999/xlink" x="0px" y="0px"
	 viewBox="0 0 16 16" style="enable-background:new 0 0 16 16;" xml:space="preserve">
<path style="fill:#FFFFFF;" d="M15,15V1H1v14H15z M9,2h5v2H9V2z M9,5h5v1H9V5z M9,7h5v1H9V7z M2,2h6v6H2V2z M2,9h12v1H2V9z M2,11h12
	v1H2V11z M2,13h12v1H2V13z"/>
<path style="fill:#9A9999;" d="M15,0H1H0v1v14v1h1h14h1v-1V1V0H15z M15,15H1V1h14V15z"/>
<path style="fill:#676767;" d="M8,2H2v6h6V2z M9,6h5V5H9V6z M9,8h5V7H9V8z M2,10h12V9H2V10z M2,12h12v-1H2V12z M2,14h12v-1H2V14z
	 M9,2v2h5V2H9z"/>
</svg>
