<?xml version="1.0" encoding="utf-8"?>
<!-- Generator: Adobe Illustrator 20.1.0, SVG Export Plug-In . SVG Version: 6.00 Build 0)  -->
<svg version="1.1" id="Ebene_1" xmlns="http://www.w3.org/2000/svg" xmlns:xlink="http://www.w3.org/1999/xlink" x="0px" y="0px"
	 viewBox="0 0 16 16" style="enable-background:new 0 0 16 16;" xml:space="preserve">
<path style="fill:#FFFFFF;" d="M4.8,8h2.9V5H4.8H4.7v3H4.8z M1,5h3v3H1V5z M4.7,8.5v3h0.1h2.9v-3H4.8H4.7z M1,8.5h3v3H1V8.5z
	 M4.8,12H4.7v3h0.1h2.9v-3H4.8z M1,12h3v3H1V12z M12,5h3v3h-3V5z M11.2,8h0.1V5h-0.1H8.3v3H11.2z M8.3,8.5v3h2.9h0.1v-3h-0.1H8.3z
	 M12,8.5h3v3h-3V8.5z M12,12h3v3h-3V12z M11.2,12H8.3v3h2.9h0.1v-3H11.2z M4.8,2V1H3v1v2h1.8V2z M13,2V1h-1.8v1v2H13V2z"/>
<path style="fill:#8C8C8C;" d="M12,5h-0.7v3h-0.1H8.3V5H7.7v3H4.8H4.7V5H4v3H1v0.5h3v3H1V12h3v3h0.7v-3h0.1h2.9v3h0.6v-3h2.9h0.1v3
	H12v-3h3v-0.5h-3v-3h3V8h-3V5z M7.7,11.5H4.8H4.7v-3h0.1h2.9V11.5z M11.3,11.5L11.3,11.5h-3v-3h2.9h0.1
	C11.3,8.5,11.3,11.5,11.3,11.5z"/>
<path style="fill:#676767;" d="M15,2h-1V1V0h-1h-1.8h-1v1v1H5.7V1V0h-1H3H2v1v1H1H0v2v1v6.5V12v3v1h1h3.2h0.5h3h0.5h3h0.5H15h1v-1
	v-3v-0.5v-3V8V5V4V2H15z M11.2,2V1H13v1v2h-1.8V2z M3,2V1h1.8v1v2H3V2z M15,8v0.5v3V12v3h-3h-0.7h-0.1H8.3H7.7H4.8H4.7H4H1v-3v-0.5
	v-3V8V5h3h0.7h0.1h2.9h0.6h2.9h0.1H12h3V8z"/>
</svg>
