<?xml version="1.0" encoding="utf-8"?>
<!-- Generator: Adobe Illustrator 21.0.0, SVG Export Plug-In . SVG Version: 6.00 Build 0)  -->
<svg version="1.1" id="Ebene_1" xmlns="http://www.w3.org/2000/svg" xmlns:xlink="http://www.w3.org/1999/xlink" x="0px" y="0px"
	 viewBox="0 0 16 16" style="enable-background:new 0 0 16 16;" xml:space="preserve">
<path style="fill:#FFFFFF;" d="M1,9.5h3v-3H1V9.5z M5,6.5v3h10v-3H5z"/>
<path style="fill:#9A9999;" d="M0,10.5h4v-1H1v-3h3v-1H0V10.5z M5,5.5v1h10v3H5v1h11v-5H5z"/>
<polygon style="fill:#676767;" points="6.5,4.5 6.5,3.5 5,3.5 4,3.5 2.5,3.5 2.5,4.5 4,4.5 4,11.5 2.5,11.5 2.5,12.5 4,12.5 5,12.5 
	6.5,12.5 6.5,11.5 5,11.5 5,4.5 "/>
</svg>
