<?xml version="1.0" encoding="utf-8"?>
<!-- Generator: Adobe Illustrator 21.0.0, SVG Export Plug-In . SVG Version: 6.00 Build 0)  -->
<svg version="1.1" id="Ebene_1" xmlns="http://www.w3.org/2000/svg" xmlns:xlink="http://www.w3.org/1999/xlink" x="0px" y="0px"
	 viewBox="0 0 16 16" style="enable-background:new 0 0 16 16;" xml:space="preserve">
<path style="fill:#9A9999;" d="M10,0v1h5v14H1V1h1V0H0v16h16V0H10z M2,14h12v-3.5H2V14z M3,11.5h10V13H3V11.5z M14,6.2H2v3.6h12V6.2
	z M13,8.8H3V7.2h10V8.8z M14,2H2v3.5h12V2z M13,4.5H3V3h10V4.5z"/>
<rect x="3" style="fill:#676767;" width="6" height="1"/>
<path style="fill:#FFFFFF;" d="M13,7.2H3v1.6h10V7.2z M13,11.5H3V13h10V11.5z M10,1V0H9v1H3V0H2v1H1v14h14V1H10z M14,14H2v-3.5h12
	V14z M14,9.8H2V6.2h12V9.8z M14,5.5H2V2h12V5.5z M13,3H3v1.5h10V3z"/>
</svg>
