<?xml version="1.0" encoding="utf-8"?>
<!-- Generator: Adobe Illustrator 20.1.0, SVG Export Plug-In . SVG Version: 6.00 Build 0)  -->
<svg version="1.1" id="Ebene_1" xmlns="http://www.w3.org/2000/svg" xmlns:xlink="http://www.w3.org/1999/xlink" x="0px" y="0px"
	 viewBox="0 0 16 16" style="enable-background:new 0 0 16 16;" xml:space="preserve">
<path style="fill:#9A9999;" d="M2,0v16h12V4l-4-4H2z M3,1h6v4h4v10H3V1z M10,1.4L12.6,4H10V1.4z"/>
<path style="fill:#676767;" d="M8,4L5,8h2v4h2V8h2L8,4z"/>
<path style="fill:#FFFFFF;" d="M10,4V1.4L12.6,4H10z M9,1H3v14h10v-5L9,5V1z M11,8H9v4H7V8H5l3-4L11,8z"/>
<path style="fill:#CBCBCB;" d="M13,5v5L9,5H13z"/>
</svg>
