<?xml version="1.0" encoding="utf-8"?>
<!-- Generator: Adobe Illustrator 20.1.0, SVG Export Plug-In . SVG Version: 6.00 Build 0)  -->
<svg version="1.1" id="Ebene_1" xmlns="http://www.w3.org/2000/svg" xmlns:xlink="http://www.w3.org/1999/xlink" x="0px" y="0px"
	 viewBox="0 0 16 16" style="enable-background:new 0 0 16 16;" xml:space="preserve">
<path style="fill:#676767;" d="M12.9,3.8l-1.4-0.4c0-0.1-0.1-0.2-0.1-0.3l0.7-1.2c0-0.1,0-0.1,0-0.2L11.4,1c-0.1-0.1-0.1-0.1-0.2,0
	L9.9,1.6c-0.1,0-0.2-0.1-0.3-0.1L9.2,0.1C9.2,0,9.1,0,9,0H8C7.9,0,7.8,0,7.8,0.1L7.4,1.5c-0.1,0-0.2,0.1-0.3,0.1L5.9,0.9
	c-0.1,0-0.1,0-0.2,0L4.9,1.7c-0.1,0.1-0.1,0.1,0,0.2l0.7,1.2c0,0.1-0.1,0.2-0.1,0.3L4.1,3.8C4,3.8,4,3.9,4,4v1c0,0.1,0,0.1,0.1,0.2
	l1.4,0.4c0,0.1,0.1,0.2,0.1,0.3L4.9,7.1c0,0.1,0,0.1,0,0.2L5.6,8c0.1,0.1,0.1,0.1,0.2,0L7,7.3c0.1,0,0.2,0.1,0.3,0.1l0.4,1.4
	C7.8,9,7.9,9,8,9h1c0.1,0,0.1,0,0.2-0.1l0.4-1.4c0.1,0,0.2-0.1,0.3-0.1l1.2,0.7c0.1,0,0.1,0,0.2,0L12,7.4c0.1-0.1,0.1-0.1,0-0.2
	L11.3,6c0-0.1,0.1-0.2,0.1-0.3l1.4-0.4C13,5.2,13,5.1,13,5V4C13,3.9,13,3.8,12.9,3.8L12.9,3.8z M8.5,6.4c-1.1,0-1.9-0.9-1.9-1.9
	s0.9-1.9,1.9-1.9c1.1,0,1.9,0.9,1.9,1.9S9.6,6.4,8.5,6.4z M5.9,10.6L5.1,10c0-0.1,0-0.2,0-0.2l0.7-0.6V9.1L5.6,8.5L5.5,8.4L4.6,8.5
	c-0.1,0-0.1-0.1-0.2-0.1l0.1-0.9c0,0,0-0.1-0.1-0.1L3.8,7.1H3.7L3.1,7.9c-0.1,0-0.2,0-0.2,0L2.2,7.1H2.1L1.5,7.4L1.4,7.5l0.1,0.9
	c0,0.1-0.1,0.1-0.1,0.2l-1-0.1c0,0-0.1,0-0.1,0.1L0.1,9.2v0.1l0.8,0.6c0,0.1,0,0.2,0,0.2l-0.7,0.6v0.1l0.3,0.6l0.1,0.1l0.9-0.1
	c0.1,0.1,0.1,0.1,0.2,0.2l-0.1,0.9c0,0,0,0.1,0.1,0.1l0.6,0.3h0.1L3,12.1c0.1,0,0.2,0,0.2,0l0.6,0.7h0.1l0.6-0.3l0.1-0.1l-0.1-0.9
	c0.1-0.1,0.1-0.1,0.2-0.2l0.9,0.1c0,0,0.1,0,0.1-0.1L5.9,10.6C5.9,10.7,5.9,10.7,5.9,10.6L5.9,10.6z M2.5,11.2c-0.7-0.3-1-1-0.7-1.7
	s1-1,1.7-0.7s1,1,0.7,1.7S3.2,11.5,2.5,11.2z"/>
<path style="fill:#79A548;" d="M15.9,12.6l-4.4-3.3v2.2H7.1v2.2h4.4v2.1L15.9,12.6z"/>
<path style="fill:#FFFFFF;" d="M8.5,2.6c-1,0-1.9,0.9-1.9,1.9s0.8,1.9,1.9,1.9s1.9-0.9,1.9-1.9S9.6,2.6,8.5,2.6z M3.5,8.8
	c-0.7-0.3-1.4,0-1.7,0.7s0,1.4,0.7,1.7s1.4,0,1.7-0.7S4.2,9.1,3.5,8.8z"/>
</svg>
