<?xml version="1.0" encoding="utf-8"?>
<!-- Generator: Adobe Illustrator 21.0.2, SVG Export Plug-In . SVG Version: 6.00 Build 0)  -->
<svg version="1.1" id="Ebene_1" xmlns="http://www.w3.org/2000/svg" xmlns:xlink="http://www.w3.org/1999/xlink" x="0px" y="0px"
	 viewBox="0 0 16 16" style="enable-background:new 0 0 16 16;" xml:space="preserve">
<path style="fill:#676767;" d="M15,1H2H1v1v13v1h1h13h1v-1V2V1H15z M15,15H2V2h13V15z"/>
<path style="fill:#FFFFFF;" d="M7,8H4v1h3V8z M2,2v13h13V2H2z M8,14H3v-3h5V14z M8,10H3V7h5V10z M8,6H3V3h5V6z M14,14H9v-3h5V14z
	 M14,10H9V7h5V10z M14,6H9V3h5V6z M7,12H4v1h3V12z M13,8h-3v1h3V8z M7,4H4v1h3V4z M13,12h-3v1h3V12z M13,4h-3v1h3V4z"/>
<path style="fill:#9A9999;" d="M3,6h5V3H3V6z M4,4h3v1H4V4z M3,10h5V7H3V10z M4,8h3v1H4V8z M3,14h5v-3H3V14z M4,12h3v1H4V12z M9,3v3
	h5V3H9z M13,5h-3V4h3V5z M9,10h5V7H9V10z M10,8h3v1h-3V8z M9,14h5v-3H9V14z M10,12h3v1h-3V12z"/>
</svg>
