<?xml version="1.0" encoding="utf-8"?>
<!-- Generator: Adobe Illustrator 21.0.2, SVG Export Plug-In . SVG Version: 6.00 Build 0)  -->
<svg version="1.1" id="Ebene_1" xmlns="http://www.w3.org/2000/svg" xmlns:xlink="http://www.w3.org/1999/xlink" x="0px" y="0px"
	 viewBox="0 0 16 16" style="enable-background:new 0 0 16 16;" xml:space="preserve">
<path style="fill:#9A9999;" d="M15,1H2H1v1v13v1h1h13h1v-1V2V1H15z M15,15H2V2h13V15z"/>
<path style="fill:#FFFFFF;" d="M2,2v13h13V2H2z M8,6H3V3h5V6z M14,6H9V3h5V6z M7,4H4v1h3V4z M13,4h-3v1h3V4z"/>
<path style="fill:#676767;" d="M3,6h5V3H3V6z M4,4h3v1H4V4z M9,3v3h5V3H9z M13,5h-3V4h3V5z"/>
</svg>
