<?xml version="1.0" encoding="utf-8"?>
<!-- Generator: Adobe Illustrator 20.1.0, SVG Export Plug-In . SVG Version: 6.00 Build 0)  -->
<svg version="1.1" id="Ebene_1" xmlns="http://www.w3.org/2000/svg" xmlns:xlink="http://www.w3.org/1999/xlink" x="0px" y="0px"
	 viewBox="0 0 16 16" style="enable-background:new 0 0 16 16;" xml:space="preserve">
<path style="fill:#FFFFFF;" d="M3,3h10v2H3V3z"/>
<path style="fill:#FFFFFF;" d="M15,0h-5v1h5v6H1V1h1V0H1H0v1v6v1h1h14h1V7V1V0H15z M13,2H3H2v1v2v1h1h10h1V5V3V2H13z M13,5H3V3h10V5
	z"/>
<path style="fill:#FFFFFF;" d="M3,0h6v1H3V0z M10.5,11.5h-2v-2h-1v2h-2v1h2v2h1v-2h2V11.5z"/>
</svg>
