<?xml version="1.0" encoding="utf-8"?>
<!-- Generator: Adobe Illustrator 21.0.0, SVG Export Plug-In . SVG Version: 6.00 Build 0)  -->
<svg version="1.1" id="Ebene_1" xmlns="http://www.w3.org/2000/svg" xmlns:xlink="http://www.w3.org/1999/xlink" x="0px" y="0px"
	 viewBox="0 0 16 16" style="enable-background:new 0 0 16 16;" xml:space="preserve">
<path style="fill:#9A9999;" d="M4.3,16h7.5V8.5H4.3V16z M5.3,9.6h5.4v5.4H5.3V9.6z M4.3,0v7.5h7.5V0H4.3z M10.7,6.4H5.3V1.1h5.4V6.4
	z"/>
<path style="fill:#676767;" d="M8,13.4l-0.9-0.9L6.6,13L8,14.4L9.4,13l-0.5-0.5L8,13.4z M6.6,11.5L7.1,12L8,11.1L8.9,12l0.5-0.5
	L8,10.1L6.6,11.5z M8,4.9L7.1,4L6.6,4.5L8,5.9l1.4-1.4L8.9,4L8,4.9z M8,2.6l0.9,0.9L9.4,3L8,1.6L6.6,3l0.5,0.5L8,2.6z"/>
<g>
	<path style="fill:#FFFFFF;" d="M5.3,1.1v5.4h5.4V1.1H5.3z M8,5.9L6.6,4.5L7.1,4L8,4.9L8.9,4l0.5,0.5L8,5.9z M8.9,3.5L8,2.6L7.1,3.5
		L6.6,3L8,1.6L9.4,3L8.9,3.5z"/>
	<path style="fill:#FFFFFF;" d="M5.3,14.9h5.4V9.6H5.3V14.9z M8,10.1l1.4,1.4L8.9,12L8,11.1L7.1,12l-0.5-0.5L8,10.1z M7.1,12.5
		L8,13.4l0.9-0.9L9.4,13L8,14.4L6.6,13L7.1,12.5z"/>
</g>
</svg>
