<?xml version="1.0" encoding="utf-8"?>
<!-- Generator: Adobe Illustrator 21.0.0, SVG Export Plug-In . SVG Version: 6.00 Build 0)  -->
<svg version="1.1" id="Ebene_1" xmlns="http://www.w3.org/2000/svg" xmlns:xlink="http://www.w3.org/1999/xlink" x="0px" y="0px"
	 viewBox="0 0 16 16" style="enable-background:new 0 0 16 16;" xml:space="preserve">
<path style="fill:#9A9999;" d="M4.3,16h7.5V8.5H4.3V16z M5.3,9.6h5.4v5.4H5.3V9.6z M4.3,0v7.5h7.5V0H4.3z M10.7,6.4H5.3V1.1h5.4V6.4
	z"/>
<path style="fill:#676767;" d="M7.3,12.9L6.4,12l-0.5,0.5l1.4,1.4l0.5-0.5l2.3-2.3l-0.5-0.5L7.3,12.9z M7.8,4.9l2.3-2.3L9.6,2.1
	L7.3,4.4L6.4,3.5L5.9,4l1.4,1.4L7.8,4.9z"/>
<path style="fill:#FFFFFF;" d="M5.3,14.9h5.4V9.6H5.3V14.9z M6.4,12l0.9,0.9l2.3-2.3l0.5,0.5l-2.3,2.3l-0.5,0.5l-1.4-1.4L6.4,12z
	 M5.3,1.1v5.4h5.4V1.1H5.3z M7.8,4.9L7.3,5.4L5.9,4l0.5-0.5l0.9,0.9l2.3-2.3l0.5,0.5L7.8,4.9z"/>
</svg>
