<?xml version="1.0" encoding="utf-8"?>
<!-- Generator: Adobe Illustrator 20.1.0, SVG Export Plug-In . SVG Version: 6.00 Build 0)  -->
<svg version="1.1" id="Ebene_1" xmlns="http://www.w3.org/2000/svg" xmlns:xlink="http://www.w3.org/1999/xlink" x="0px" y="0px"
	 viewBox="0 0 16 16" style="enable-background:new 0 0 16 16;" xml:space="preserve">
<path style="fill:#999999;" d="M3,15V1h6v4h4v1.6h1V4l-4-4H2v16h3v-1H3z M10,1.4L12.6,4H10V1.4z"/>
<path style="fill:#CBCBCB;" d="M9.5,5.7l1-0.7H9L9.5,5.7z M10.5,5l2.2,1.6H13V5H10.5z"/>
<path style="fill:#FFE6BB;" d="M5.8,9.5l0.8,0.6V8.7L5.8,9.3V9.5z M9.6,6.6h1.7L10.5,6L9.6,6.6z M14.4,8.9v1.3l0.8-0.6V9.5L14.4,8.9
	z"/>
<path style="fill:#FFFFFF;" d="M9.5,5.7L9,5V1H3v14h2V8.9l1.6-1.1V6.6h1.6L9.5,5.7z M10,1.4V4h2.6L10,1.4z M7.4,7.4v3.3l3.1,2.3
	l3.1-2.2V7.4H7.4z"/>
<polygon style="fill:#666666;" points="6.6,6.6 6.6,10.1 7.4,10.7 7.4,7.4 13.6,7.4 13.6,10.8 14.4,10.2 14.4,6.6 "/>
<path style="fill:#B9B9B9;" d="M9.3,12.1h2.5l1.1-0.8H8.2L9.3,12.1z M8.2,10.5h4.7V9.7H8.2V10.5z M8.2,8.2V9h4.7V8.2H8.2z"/>
<path style="fill:#FFC857;" d="M5.8,10.4v4.8l2.7-2.8L5.8,10.4z M12.5,12.5l2.7,2.8v-4.8L12.5,12.5z M10.5,13.8l-1.3-0.9l-2.3,2.3
	h7.2l-2.3-2.3L10.5,13.8z"/>
<path style="fill:#E8A33D;" d="M10.5,6l0.8,0.6h1.4L10.5,5L8.2,6.6h1.4L10.5,6z M14.4,7.8v1.1l0.8,0.6v0.1L10.5,13L5.8,9.5V9.3
	l0.8-0.6v-1L5,8.9V16h11V8.9L14.4,7.8z M5.8,10.4l2.7,2l-2.7,2.8V10.4z M6.9,15.2l2.3-2.3l1.3,0.9l1.3-0.9l2.3,2.3H6.9z M15.2,15.3
	l-2.7-2.8l2.7-2V15.3z"/>
</svg>
