<?xml version="1.0" encoding="utf-8"?>
<!-- Generator: Adobe Illustrator 20.1.0, SVG Export Plug-In . SVG Version: 6.00 Build 0)  -->
<svg version="1.1" id="Ebene_1" xmlns="http://www.w3.org/2000/svg" xmlns:xlink="http://www.w3.org/1999/xlink" x="0px" y="0px"
	 viewBox="0 0 16 16" style="enable-background:new 0 0 16 16;" xml:space="preserve">
<path style="fill:#9A9999;" d="M8,0C3.6,0,0,3.6,0,8s3.6,8,8,8s8-3.6,8-8S12.4,0,8,0z M8,15c-3.9,0-7-3.1-7-7s3.1-7,7-7s7,3.1,7,7
	S11.9,15,8,15z"/>
<path style="fill:#FFFFFF;" d="M8,1C4.1,1,1,4.1,1,8s3.1,7,7,7s7-3.1,7-7S11.9,1,8,1z M8,12c-2.2,0-4-1.8-4-4s1.8-4,4-4s4,1.8,4,4
	S10.2,12,8,12z"/>
<path style="fill:#676767;" d="M8,4c2.2,0,4,1.8,4,4s-1.8,4-4,4s-4-1.8-4-4S5.8,4,8,4z"/>
</svg>
