<?xml version="1.0" encoding="utf-8"?>
<!-- Generator: Adobe Illustrator 20.1.0, SVG Export Plug-In . SVG Version: 6.00 Build 0)  -->
<svg version="1.1" id="Ebene_1" xmlns="http://www.w3.org/2000/svg" xmlns:xlink="http://www.w3.org/1999/xlink" x="0px" y="0px"
	 viewBox="0 0 16 16" style="enable-background:new 0 0 16 16;" xml:space="preserve">
<path style="fill:#FFFFFF;" d="M1,1v14h14V1H1z M8,12.9L4.5,9.4l0.7-0.7L8,11.5l2.8-2.8l0.7,0.7L8,12.9z M10.8,7.3L8,4.4L5.2,7.3
	L4.5,6.6l2.8-2.9L8,3l0.7,0.7l2.8,2.9L10.8,7.3z"/>
<path style="fill:#9A9999;" d="M15,0H1H0v1v14v1h1h14h1v-1V1V0H15z M15,15H1V1h14V15z"/>
<path style="fill:#676767;" d="M8,4.4l2.8,2.9l0.7-0.7L8.7,3.7L8,3L7.3,3.7L4.5,6.6l0.7,0.7L8,4.4z M8,11.5L5.2,8.7L4.5,9.4L8,12.9
	l3.5-3.5l-0.7-0.7L8,11.5z"/>
</svg>
