<?xml version="1.0" encoding="utf-8"?>
<!-- Generator: Adobe Illustrator 20.1.0, SVG Export Plug-In . SVG Version: 6.00 Build 0)  -->
<svg version="1.1" id="Ebene_1" xmlns="http://www.w3.org/2000/svg" xmlns:xlink="http://www.w3.org/1999/xlink" x="0px" y="0px"
	 viewBox="0 0 16 16" style="enable-background:new 0 0 16 16;" xml:space="preserve">
<path style="fill:#FFFFFF;" d="M1,1v14h14V1H1z M14,14H2v-1h12V14z M14,12H2v-1h12V12z M14,10H2V9h12V10z M14,8H2V7h12V8z M14,6H2V5
	h12V6z M14,4H2V2h12V4z"/>
<path style="fill:#9A9999;" d="M15,0H1H0v1v14v1h1h14h1v-1V1V0H15z M15,15H1V1h14V15z"/>
<path style="fill:#676767;" d="M2,2v2h12V2H2z M2,6h12V5H2V6z M2,8h12V7H2V8z M2,10h12V9H2V10z M2,12h12v-1H2V12z M2,14h12v-1H2V14z
	"/>
</svg>
