<?xml version="1.0" encoding="utf-8"?>
<!-- Generator: Adobe Illustrator 20.1.0, SVG Export Plug-In . SVG Version: 6.00 Build 0)  -->
<svg version="1.1" id="Ebene_1" xmlns="http://www.w3.org/2000/svg" xmlns:xlink="http://www.w3.org/1999/xlink" x="0px" y="0px"
	 viewBox="0 0 16 16" style="enable-background:new 0 0 16 16;" xml:space="preserve">
<path style="fill:#79A548;" d="M8.8,6.8L7.6,8L7.1,7.5L6.8,7.8l0.8,0.8l0,0l0.3-0.3l1.2-1.2L8.8,6.8z M8.8,9.2l-1.2,1.3L7.1,10
	l-0.3,0.3l0.8,0.8l0,0l0.3-0.3l1.2-1.2L8.8,9.2z M8.8,11.8L7.6,13l-0.5-0.5l-0.3,0.3l0.8,0.8l0,0l0.3-0.3l1.2-1.2L8.8,11.8z"/>
<path style="fill:#FFFFFF;" d="M3,1v14h2V5h4V1H3z M10,4V1.4L12.6,4H10z M6,15h9V6H6V15z M9.2,7.4h5v1.2h-5V7.4z M9.2,9.9h5v1.2h-5
	V9.9z M9.2,12.4h5v1.2h-5V12.4z M7.1,7.5L7.6,8l1.2-1.2l0.3,0.3L7.9,8.3L7.6,8.6L6.8,7.8L7.1,7.5z M7.1,10l0.5,0.5l1.2-1.3l0.3,0.4
	l-1.2,1.2l-0.3,0.3l-0.8-0.8L7.1,10z M7.1,12.5L7.6,13l1.2-1.2l0.3,0.3l-1.2,1.2l-0.3,0.3l-0.8-0.8L7.1,12.5z"/>
<path style="fill:#676767;" d="M9.2,7.4h5v1.2h-5V7.4z M9.2,9.9h5v1.2h-5V9.9z M9.2,12.4h5v1.2h-5V12.4z M15,6v9H6V6H15 M16,5H5v11
	h11V5z"/>
<path style="fill:#999999;" d="M3,15V1h6v4h4h1V4l-4-4H2v16h3v-1H3z M10,1.4L12.6,4H10V1.4z"/>
</svg>
