<?xml version="1.0" encoding="utf-8"?>
<!-- Generator: Adobe Illustrator 20.1.0, SVG Export Plug-In . SVG Version: 6.00 Build 0)  -->
<svg version="1.1" id="Ebene_1" xmlns="http://www.w3.org/2000/svg" xmlns:xlink="http://www.w3.org/1999/xlink" x="0px" y="0px"
	 viewBox="0 0 16 16" style="enable-background:new 0 0 16 16;" xml:space="preserve">
<path style="fill:#FFFFFF;" d="M1,1v14h14V1H1z M10,13H2v-1h8V13z M14,11H2v-1h12V11z M14,9H2V8h12V9z M14,7H2V6h12V7z M14,5H2V4h12
	V5z M14,3H2V2h12V3z"/>
<path style="fill:#9A9999;" d="M15,0H1H0v1v14v1h1h14h1v-1V1V0H15z M15,15H1V1h14V15z"/>
<path style="fill:#676767;" d="M2,2v1h12V2H2z M2,5h12V4H2V5z M2,7h12V6H2V7z M2,9h12V8H2V9z M2,11h12v-1H2V11z M2,13h8v-1H2V13z"/>
</svg>
