<?xml version="1.0" encoding="utf-8"?>
<!-- Generator: Adobe Illustrator 20.1.0, SVG Export Plug-In . SVG Version: 6.00 Build 0)  -->
<svg version="1.1" id="Ebene_1" xmlns="http://www.w3.org/2000/svg" xmlns:xlink="http://www.w3.org/1999/xlink" x="0px" y="0px"
	 viewBox="0 0 16 16" style="enable-background:new 0 0 16 16;" xml:space="preserve">
<path style="fill:#0078e6;" d="M14,0H2H1v1v7c0,4.5,6.5,7.7,6.8,7.8L8,15.9l0.2-0.1C8.5,15.7,15,12.4,15,8V1V0H14z M8,14.8
	C6.9,14.2,2,11.5,2,8V1h12v7C14,11.4,9.1,14.2,8,14.8z"/>
<path style="fill:#FFFFFF;" d="M14,8V1H8v13.8C9.1,14.2,14,11.4,14,8z"/>
<path style="fill:#0078e6;" d="M2,1v7c0,3.5,4.9,6.2,6,6.8V1H2z"/>
</svg>
