<svg xmlns="http://www.w3.org/2000/svg" viewBox="0 0 16 16"><circle fill="#FFF" cx="8" cy="8" r="7"/><path d="M8 1C4.13 1 1 4.13 1 8s3.13 7 7 7 7-3.13 7-7-3.13-7-7-7zm5.31 9.78l-.43-.25c-.08.15-.16.29-.25.43l.43.25c-.47.74-1.11 1.38-1.85 1.85l-.25-.43c-.14.09-.28.17-.43.25l.25.43c-.69.36-1.46.59-2.28.66v-1.02c-.17.02-.33.05-.5.05s-.33-.03-.5-.05v1.02c-.82-.07-1.59-.29-2.28-.66l.25-.43c-.15-.08-.29-.16-.43-.25l-.25.43c-.74-.47-1.38-1.11-1.85-1.85l.43-.25c-.09-.14-.17-.28-.25-.43l-.43.25c-.37-.69-.59-1.46-.66-2.28h1.02C3.03 8.33 3 8.17 3 8s.03-.33.05-.5H2.03c.07-.82.29-1.59.66-2.28l.43.25c.08-.15.16-.29.25-.43l-.43-.25c.47-.74 1.11-1.38 1.85-1.85l.25.43c.14-.09.28-.17.43-.25l-.25-.43c.69-.37 1.46-.59 2.28-.66v1.02c.17-.02.33-.05.5-.05s.33.03.5.05V2.03c.82.07 1.59.29 2.28.66l-.25.43c.15.08.29.16.43.25l.25-.43c.74.47 1.38 1.11 1.85 1.85l-.43.25c.09.14.17.28.25.43l.43-.25c.36.69.59 1.46.66 2.28h-1.02c.02.17.05.33.05.5s-.03.33-.05.5h1.02c-.07.82-.29 1.59-.66 2.28z"/><path fill="#CC2220" d="M11.75 7.5H8.5V4.25c0-.14-.11-.25-.25-.25h-.5c-.14 0-.25.11-.25.25V7.5h-.25c-.14 0-.25.11-.25.25v.5c0 .14.11.25.25.25h.25v.25c0 .14.11.25.25.25h.5c.14 0 .25-.11.25-.25V8.5h3.25c.14 0 .25-.11.25-.25v-.5c0-.14-.11-.25-.25-.25z"/></svg>