<svg xmlns="http://www.w3.org/2000/svg" viewBox="0 0 16 16"><circle fill="#59F" cx="8" cy="8" r="8"/><path fill="#AAD400" d="M15 7.76c-.28-2.33-1.66-4.36-3.51-5.53-.09.1-.18.1-.18.19-.28.1-.65-.1-.92-.19-.74-.29-1.48-.29-2.12-.1-.28.1-.92.19-.65.78.18.29.65.58 1.11.2.18-.2.37-.49.64-.2.09.1.09.19.09.29-.09.29-.36.39-.64.39-.37.1-.74 0-1.11.1-.37.1-.92.19-.92.68 0 .58-.18.68-.65.78-.37 0-.55.19-.37.58.09.29.37.29.55.19.74-.39 1.38-1.36 2.21-.19l.18-.1c.18-.78.37-.29.55 0 .09.1.28.29.28.29 1.11-1.07.83.48 1.2.78-.74-.19-1.57.58-2.21.1-1.1-.88-1.83-.49-2.85.38-.83.68-1.01 1.55-.83 2.33.28.97 1.29 1.07 2.12.87.28-.1.83-.1.83.1-.18.87.83 1.45.46 2.42-.28.78.18 1.75.83 2.04.65.29 1.2-.48 1.48-1.16.09-.1 0-.29.09-.39.74-.97.65-2.42 1.57-3.39.28-.29 1.2-1.36.46-2.23 1.75-.48 1.11 1.26 1.48 2.04.28-.58.46-1.16.65-1.65.09-.3.18-.3.18-.4zM4.95 2.21c.29-.31.48-.61.77-1.02-.38.2-.67.3-.97.51-.29.2-.58.41-.87.61-.1 0-.1.1-.19.1 0 0-.1 0-.1.1.1.1.1.1.19.2H4.68s.1 0 .1-.1l.1-.1s.1 0 .1-.1l.1-.1.1-.1c-.33.2-.33.1-.23 0 0 .1 0 .1 0 0 0 .1 0 0 0 0zM3.67 11.65s-.1-.09 0 0c-.1-.09-.1-.09 0 0v-.09-.09-.09l-.1-.09c-.1 0-.1-.09-.19-.09-.1 0-.19-.09-.29-.09h-.1-.1s-.1 0-.1-.09c-.67-.37-.95-1.01-1.14-1.75 0-.18-.1-.37-.1-.55-.1-.09-.1-.18-.19-.28-.19-.18-.1-.55.1-.92v-.18c0-.09 0-.09.1-.18 0-.09 0-.09.1-.18.2-.4.58-.68.77-.96.1-.09.1-.09.1-.18v-.09c.1-.09.1-.28.19-.37 0-.09.1-.28.1-.37 0-.18 0-.28-.1-.46-.1-.28-.2-.55-.39-.74C1.48 5.01 1 6.39 1 7.96c0 2.12.95 4.06 2.38 5.35 0 0 .1 0 .1-.09v-.09c0-.09.1-.09.1-.18.09-.38.09-.93.09-1.3z"/></svg>