<?xml version="1.0" encoding="utf-8"?>
<!-- Generator: Adobe Illustrator 19.0.1, SVG Export Plug-In . SVG Version: 6.00 Build 0)  -->
<svg version="1.1" xmlns="http://www.w3.org/2000/svg" xmlns:xlink="http://www.w3.org/1999/xlink" x="0px" y="0px"
	 viewBox="0 0 64 64" enable-background="new 0 0 64 64" xml:space="preserve">
<g id="Background">
	<rect fill="#184F44" width="64" height="64"/>
</g>
<g id="Icon">
	<path fill="#FFFFFF" d="M41.9,32H26v-7.6c0-3.1,2.5-5.6,5.6-5.6c3.1,0,5.6,2.5,5.6,5.6c0,0.8,0.6,1.4,1.4,1.4h1.4
		c0.8,0,1.4-0.6,1.4-1.4c0-5.4-4.2-9.7-9.6-9.7c-5.4,0-9.7,4.4-9.7,9.7V32h0.1c-1.2,0-2.1,0.9-2.1,2.1V46c0,1.2,0.9,2.1,2.1,2.1
		h19.8c1.2,0,2.1-0.9,2.1-2.1V34.1C44,32.9,43.1,32,41.9,32z"/>
</g>
</svg>
