<?xml version="1.0" encoding="utf-8"?>
<!-- Generator: Adobe Illustrator 19.0.1, SVG Export Plug-In . SVG Version: 6.00 Build 0)  -->
<svg version="1.1" xmlns="http://www.w3.org/2000/svg" xmlns:xlink="http://www.w3.org/1999/xlink" x="0px" y="0px"
	 viewBox="0 0 64 64" enable-background="new 0 0 64 64" xml:space="preserve">
<g id="Background">
	<rect fill="#3471A9" width="64" height="64"/>
</g>
<g id="Icon">
	<path fill="#FFFFFF" d="M34.9,42v-2h11v2H34.9z M28,33v-2h17.9v2H28z M39,24v-2h7v2H39z M48,39.2c0-0.6-0.5-1.1-1.1-1.1H17.1
		c-0.6,0-1.1,0.5-1.1,1.1v3.7c0,0.6,0.5,1.1,1.1,1.1h29.7c0.6,0,1.1-0.5,1.1-1.1V39.2z M48,30.2c0-0.6-0.5-1.1-1.1-1.1H17.1
		c-0.6,0-1.1,0.5-1.1,1.1v3.7c0,0.6,0.5,1.1,1.1,1.1h29.7c0.6,0,1.1-0.5,1.1-1.1V30.2z M48,21.1c0-0.6-0.5-1.1-1.1-1.1H17.1
		c-0.6,0-1.1,0.5-1.1,1.1v3.7c0,0.6,0.5,1.1,1.1,1.1h29.7c0.6,0,1.1-0.5,1.1-1.1V21.1z"/>
</g>
</svg>
