<?xml version="1.0" encoding="utf-8"?>
<!-- Generator: Adobe Illustrator 19.0.1, SVG Export Plug-In . SVG Version: 6.00 Build 0)  -->
<svg version="1.1" xmlns="http://www.w3.org/2000/svg" xmlns:xlink="http://www.w3.org/1999/xlink" x="0px" y="0px"
	 viewBox="0 0 64 64" enable-background="new 0 0 64 64" xml:space="preserve">
<g id="Background">
	<rect fill="#FF5E49" width="64" height="64"/>
</g>
<g id="Icon">
	<path fill="#FFFFFF" d="M34.7,24.6c0-0.4-0.3-0.7-0.7-0.7h-1.3c-0.4,0-0.7,0.3-0.7,0.7V32h-4.7c-0.4,0-0.7,0.3-0.7,0.7V34
		c0,0.4,0.3,0.7,0.7,0.7H34c0.4,0,0.7-0.3,0.7-0.7V24.6z M43.4,32c0,6.3-5.1,11.4-11.4,11.4c-6.3,0-11.4-5.1-11.4-11.4
		c0-6.3,5.1-11.4,11.4-11.4C38.3,20.6,43.4,25.7,43.4,32z M48.1,32c0-8.9-7.2-16.1-16.1-16.1S15.9,23.1,15.9,32
		c0,8.9,7.2,16.1,16.1,16.1S48.1,40.9,48.1,32z"/>
</g>
</svg>
