<?xml version="1.0" encoding="utf-8"?>
<!-- Generator: Adobe Illustrator 19.0.1, SVG Export Plug-In . SVG Version: 6.00 Build 0)  -->
<svg version="1.1" xmlns="http://www.w3.org/2000/svg" xmlns:xlink="http://www.w3.org/1999/xlink" x="0px" y="0px"
	 viewBox="0 0 64 64" enable-background="new 0 0 64 64" xml:space="preserve">
<g id="Background">
	<rect fill="#5D6364" width="64" height="64"/>
</g>
<g id="Icon">
	<path fill-rule="evenodd" clip-rule="evenodd" fill="#FFFFFF" d="M45.3,22H44v22.5C44,47,43,48,41,48H23c-2,0-3-1.1-3-3.6V22h-1.3
		c-0.4,0-0.7-0.3-0.7-0.7v-0.5c0-0.4,0.3-0.7,0.7-0.7h5.1l1.6-2c0.5-1.1,1.8-2,3-2h7.3c1.2,0,2.6,0.9,3,2l1.6,2h5
		c0.4,0,0.7,0.3,0.7,0.7v0.5C46,21.7,45.7,22,45.3,22z M36,18.2c-0.1-0.1-0.3-0.2-0.4-0.3h-7.2c-0.1,0-0.3,0.2-0.4,0.3L26.9,20h10.2
		L36,18.2z M42,22H22v22.5c0,1.1,0.6,1.5,0.7,1.5h18.5c0.1,0,0.7-0.4,0.7-1.5V22z M37.3,42h-0.6c-0.4,0-0.7-0.3-0.7-0.7V26.7
		c0-0.4,0.3-0.7,0.7-0.7h0.6c0.4,0,0.7,0.3,0.7,0.7v14.6C38,41.7,37.7,42,37.3,42z M32.3,42h-0.6c-0.4,0-0.7-0.3-0.7-0.7V26.7
		c0-0.4,0.3-0.7,0.7-0.7h0.6c0.4,0,0.7,0.3,0.7,0.7v14.6C33,41.7,32.7,42,32.3,42z M27.3,42h-0.5c-0.4,0-0.7-0.3-0.7-0.7V26.7
		c0-0.4,0.3-0.7,0.7-0.7h0.5c0.4,0,0.7,0.3,0.7,0.7v14.6C28,41.7,27.7,42,27.3,42z"/>
</g>
</svg>
