<?xml version="1.0" encoding="utf-8"?>
<!-- Generator: Adobe Illustrator 19.0.1, SVG Export Plug-In . SVG Version: 6.00 Build 0)  -->
<svg version="1.1" xmlns="http://www.w3.org/2000/svg" xmlns:xlink="http://www.w3.org/1999/xlink" x="0px" y="0px"
	 viewBox="0 0 64 64" enable-background="new 0 0 64 64" xml:space="preserve">
<g id="Background">
	<rect fill="#632F5F" width="64" height="64"/>
</g>
<g id="Icon">
	<path fill="#FFFFFF" d="M32,15.9c-8.9,0-16.1,7.2-16.1,16.1S23.1,48.1,32,48.1S48.1,40.9,48.1,32S40.9,15.9,32,15.9z M37.8,26.8
		c0.2-0.1,0.6-0.3,0.9-0.3c0.2,0.1,0.4,0.1,0.1,0.3c-0.1,0.1-0.3,0-0.5,0c0.2,0,0.5,0.1,0.4,0.3c0.5,0.3-0.2,0.7-0.5,0.7
		c0.2,0-0.4,0.3-0.4,0.3c-0.2,0.1-0.4,0.1-0.6,0.3c-0.2,0.2,0.1,0.6-0.3,0.5c-0.1,0.3-0.6,0.1-0.8,0.4c0.2,0.3-0.2,0.6-0.5,0.3
		c-0.2,0.1-0.1,0.3-0.3,0.4c0.1,0.1,0.1,0.3,0,0.3c0,0,0.3,0.2,0.4,0.2c0,0.1-0.1,0.2-0.2,0.2c0.1,0.3-0.1,0.6-0.3,0.7
		c-0.2,0.2-0.7,0.3-0.8,0.4c-0.4,0.4-0.6,0.9,0,1c0,0,0,0.7,0,0.7c0,0.3,0.1,1-0.3,0.7c-0.2-0.1-0.3-0.7-0.4-0.9
		c-0.1-0.3-0.1-0.3-0.3-0.5c-0.3,0.3-0.3,0.1-0.5-0.1c-0.2-0.1-0.6-0.1-0.7-0.2c-0.3,0.2-0.5,0.2-0.6-0.2c-0.1,0.2,0.1,0.4,0.1,0.5
		c-0.1,0.2-0.3,0.2-0.5,0c-0.3-0.2-0.9,0.1-1.2,0c0,0,0.1,0.1,0.2,0.1c-0.1,0.3-0.2,0.1-0.3,0.2c-0.1,0.1-0.3,0.3-0.4,0.4
		c0.3,0.5,0,1,0,1.6c0,0.4,0.3,1.2,0.7,1.4c0.2,0.1,0.8,0.1,1,0.1c0.3-0.1,0.3-0.4,0.4-0.6c0.1-0.3,0.2-0.4,0.5-0.4
		c0.9,0,0.2,0.7,0.1,1.1c-0.1,0.3-0.1,0.6-0.1,0.8c0.1,0,0.2,0,0.3,0c0-0.1,0.1-0.2,0.1-0.3c0.1,0.2,0.5,0.3,0.7,0
		c0.1,0.3,0.4,0.4,0.5,0.7c0,0.3,0.3,0.6-0.1,0.6c-0.3,0,0,0.6,0.1,0.7c0.2,0.4,0.6,0.6,1,0.4c0,0.2-0.1,0.6-0.3,0.7
		c-0.2,0-0.6-0.4-0.5-0.6c0,0.1-0.1,0.1-0.1,0.2c-0.2-0.3-0.6-0.4-0.8-0.6c0-0.1-0.6-0.9-0.5-1c-0.3,0.1-0.9-0.1-1.2-0.2
		c-0.4-0.2-0.5-0.8-1.1-0.8c-0.4,0.1-0.5,0.2-0.9,0c-0.3-0.1-0.5-0.3-0.8-0.5c-0.3-0.2-0.9-0.4-1.1-0.8c-0.1-0.3-0.1-0.7-0.3-1.1
		c-0.1-0.2-0.5-0.6-0.8-0.6c0.3,0-0.2-0.6-0.3-0.7c-0.2-0.3-1.1-1-0.9-1.4c0-0.1-0.4-0.2-0.5-0.3c0.1,0.2,0.1,0.4,0.2,0.6
		c0.1,0.2,0.2,0.4,0.4,0.6c0.2,0.4,0.5,0.8,0.5,1.3c-0.3,0.1-0.2-0.3-0.3-0.5c-0.1-0.3-0.5-0.3-0.7-0.6c0,0,0.1,0,0.1,0
		c0-0.4-0.5-0.7-0.4-0.9c-0.3-0.2-0.3-0.7-0.5-1c-0.2-0.3-0.5-0.4-0.8-0.6c-0.1-0.1-0.9-1-0.6-1.1c-0.4,0.1-0.6-0.9-0.6-1.1
		c0,0,0,0,0,0c0.1-0.3-0.1-1.6,0.3-1.6c-0.2,0-0.3-0.5-0.2-0.7c0-0.1,0.4,0.2,0.4,0.3c0.1-0.1,0.3-0.2,0.2-0.4
		c-0.1-0.2-0.3-0.3-0.4-0.4c-0.1,0-0.9-0.6-0.9-0.6c0.1-0.1,0.1-0.3-0.1-0.4c-0.4,0.3-0.2-0.3-0.4-0.4c-0.1,0-0.2-0.1-0.3-0.2
		c1.2-1.9,2.9-3.6,4.9-4.7c0.1,0,0.3,0,0.5,0c0.4,0,0.6,0.4,0.9,0.5c0-0.1,0-0.3-0.1-0.4c0.1-0.2,0.3-0.2,0.5-0.3
		c0.2,0,0.5-0.1,0.6,0c-0.1-0.2-0.3-0.4-0.4-0.5c0,0-0.1,0.1-0.1,0.1c-0.2-0.2-0.7,0.1-0.9,0.1c-0.2,0.1-0.3,0.2-0.5,0.3
		c-0.1,0-0.2,0-0.3,0c0.6-0.3,1.3-0.6,2-0.9c0.1,0.1,0.3,0.2,0.4,0.4C28,19.5,28,20,28,20.1c0.2,0.3,0.7,0.1,1.1,0.1
		c0,0,0.9,0.1,0.7-0.1c0.1,0.2,0.1,0.5,0.3,0.7c0.2-0.2-0.1-0.4,0-0.6c0-0.1,0.4-0.2,0.5-0.3c0.1-0.1-0.1-0.3-0.2-0.3
		c-0.2-0.1-1-0.2-0.6-0.7c0.1-0.2,0.7-0.1,0.8,0c0.2,0.1,0.5,0.4,0.2,0.6c0.1,0,0.8,0.2,0.7,0.5c0.1-0.1,0.2-0.3,0.3-0.3
		c0.2,0,0.2,0.5,0.3,0.6c0.3,0.5,0.8-0.5,0.9-0.5c-0.4-0.1,0.3-0.3,0.5-0.3c0.1,0.1,0.4,0.6,0.1,0.5c0.2,0.2,0.3,0.7-0.2,0.7
		c-0.3,0-0.6-0.4-0.9-0.1c-0.2,0.2-0.3,0.5-0.5,0.7c-0.3,0.3-0.7,0.3-1.1,0.2c0.1,0-0.3,0.5-0.4,0.6c-0.1,0.1-0.2,0.3-0.3,0.5
		c0,0.2,0,0.4-0.1,0.7c0.4-0.1,0.5,0.5,0.4,0.6c0.4-0.1,0.8-0.1,1.2,0.1c0.3,0.1,0.7,0.2,0.9,0.5c0.1-0.1,0.5-0.1,0.6,0
		c0.3,0.1,0.3,0.4,0.3,0.6c0.1,0.3,0.4,0.8,0.7,0.7c0.1,0,0.5-0.3,0.4-0.4c-0.2-0.1-0.4-0.5-0.2-0.7c0.2-0.2,0.6-0.3,0.7-0.6
		c0.2-0.5-0.5-0.4-0.5-0.8c0-0.2,0.3-0.3,0.3-0.5c0-0.2-0.3-0.6-0.1-0.8c0.2-0.1,1.2,0.1,1.4,0.2c0.2,0.1,0.8,0.3,0.8,0.5
		c0,0-0.1,0-0.1,0c0.2,0.1,0.3,0.5,0,0.5c0.2,0,0.7,0.2,0.4,0.3c0.1-0.1,0.2,0,0.4-0.1c0.1-0.1,0.2-0.2,0.4-0.1c0,0,0.3-0.4,0.4-0.4
		c0.2,0,0.2,0.3,0.3,0.4c0.1,0.2,0.3,0.3,0.4,0.4c0.1,0.4,0.1,0.7,0.6,0.8c0.1,0,0.5-0.2,0.5,0.1c0.1-0.1,0.1-0.1,0.1-0.2
		c0,0.3,0.1,0.6,0.5,0.6c0,0,0,0.4,0,0.5c-0.1,0.2-0.4,0.1-0.6,0.3c-0.1,0-0.6,0.5-0.5,0.5c-0.3-0.3-0.7-0.3-1.1-0.2
		c-0.4,0.1-0.7,0.1-1.1,0.3c-0.2,0.1-0.3,0.2-0.5,0.3c-0.1,0.1-0.2,0.5-0.3,0.5C37.5,27.2,37.6,26.9,37.8,26.8z M34.3,45.2
		c0-0.1,0-0.3,0-0.3c0-0.3,0.3-0.6,0.3-0.9c-0.2-0.1-0.3-0.3-0.3-0.5c0-0.4,0.4-0.6,0.6-0.8c0.3-0.2,0.3-0.7,0.3-1
		c-0.1-0.5-0.1-1-0.2-1.5c0,0.1,0.4,0.1,0.4,0.3c0.1-0.1,0.1-0.3,0.2-0.5c0.1-0.1,0.2-0.2,0.4-0.3c0.2-0.1,0.7-0.6,0.9-0.3
		c0.2,0.3-0.3,0.5,0,0.8c0.1-0.2,0-0.4,0.2-0.6c0.3-0.4,0.6,0,0.9,0.1c0.4,0.1,0.5,0.2,0.8,0.5c-0.1-0.1,0.3-0.2,0.4-0.3
		c0.4-0.1,0.6,0.1,0.8,0.4c0.3,0.2,0.8,0.4,0.7,0.8c0.2,0,0.3,0.1,0.5,0.2c0.2,0.1,0.4,0,0.5,0.2C39.8,43.3,37.2,44.7,34.3,45.2z"/>
</g>
</svg>
