<?xml version="1.0" encoding="utf-8"?>
<!-- Generator: Adobe Illustrator 19.0.1, SVG Export Plug-In . SVG Version: 6.00 Build 0)  -->
<svg version="1.1" xmlns="http://www.w3.org/2000/svg" xmlns:xlink="http://www.w3.org/1999/xlink" x="0px" y="0px"
	 viewBox="0 0 64 64" enable-background="new 0 0 64 64" xml:space="preserve">
<g id="Background">
	<rect fill="#CA6434" width="64" height="64"/>
</g>
<g id="Icon">
	<path fill-rule="evenodd" clip-rule="evenodd" fill="#FFFFFF" d="M47.4,42H24.6c-0.3,0-0.6-0.3-0.6-0.6v-2.8c0-0.3,0.3-0.6,0.6-0.6
		h22.7c0.3,0,0.6,0.3,0.6,0.6v2.8C48,41.7,47.7,42,47.4,42z M47.4,34H24.7c-0.3,0-0.6-0.3-0.6-0.6v-2.7c0-0.3,0.3-0.6,0.6-0.6h22.7
		c0.3,0,0.6,0.3,0.6,0.6v2.7C48,33.7,47.7,34,47.4,34z M47.4,26H24.6c-0.3,0-0.6-0.3-0.6-0.6v-2.8c0-0.3,0.3-0.6,0.6-0.6h22.7
		c0.3,0,0.6,0.3,0.6,0.6v2.8C48,25.7,47.7,26,47.4,26z M19.4,42h-2.7c-0.3,0-0.6-0.3-0.6-0.6v-2.8c0-0.3,0.3-0.6,0.6-0.6h2.7
		c0.3,0,0.6,0.3,0.6,0.6v2.8C20,41.7,19.7,42,19.4,42z M19.4,34h-2.7c-0.3,0-0.6-0.3-0.6-0.6v-2.8c0-0.3,0.3-0.6,0.6-0.6h2.7
		c0.3,0,0.6,0.3,0.6,0.6v2.8C20,33.7,19.7,34,19.4,34z M19.4,26h-2.7c-0.3,0-0.6-0.3-0.6-0.6v-2.8c0-0.3,0.3-0.6,0.6-0.6h2.7
		c0.3,0,0.6,0.3,0.6,0.6v2.8C20,25.7,19.7,26,19.4,26z"/>
</g>
</svg>
