<?xml version="1.0" encoding="utf-8"?>
<!-- Generator: Adobe Illustrator 19.0.1, SVG Export Plug-In . SVG Version: 6.00 Build 0)  -->
<svg version="1.1" xmlns="http://www.w3.org/2000/svg" xmlns:xlink="http://www.w3.org/1999/xlink" x="0px" y="0px"
	 viewBox="0 0 64 64" enable-background="new 0 0 64 64" xml:space="preserve">
<g id="Background">
	<rect fill="#3A81B4" width="64" height="64"/>
</g>
<g id="Icon">
	<path fill="#FFFFFF" d="M49,23.3c-0.3-0.4-0.8-0.7-1.2-0.9c0,0.4,0,0.8-0.1,1.2l-6.3,20.6c-0.2,0.8-1.1,1.9-1.9,1.9H20
		c-1.2,0-2.6-0.9-3-2.1c-0.2-0.5-0.1-0.3,0-0.6c0.2-0.3,0.5-0.3,0.8-0.3h18.3c2.7,0,3.2-1,4.2-4.2L46,19.9c0.3-1,0.2-2-0.4-2.7
		c-0.5-0.7-1.4-1.2-2.4-1.2h-16c-0.4,0-0.7,0.1-1.1,0.2l0-0.1c-2.7-0.8-2.8,2.1-3.7,3.4c-0.3,0.5-0.8,0.9-0.9,1.3
		c-0.1,0.4,0.1,0.7,0.1,1.1c-0.1,1.1-1,3.1-1.5,3.8c-0.3,0.4-0.8,0.6-0.9,1.1c-0.1,0.3,0.1,0.8,0,1.3c-0.1,1-0.8,2.8-1.4,3.8
		c-0.2,0.4-0.6,0.7-0.7,1.1c-0.1,0.4,0.1,0.8,0,1.2c-0.2,1.1-0.9,2.8-1.6,3.8c-0.3,0.6-0.8,0.9-0.9,1.4c0,0.3,0.1,0.5,0.1,0.9
		c0,0.5-0.1,0.9-0.1,1.3c-0.3,0.8-0.3,1.7,0,2.6c0.8,2.2,3.1,3.9,5.2,3.9h19.4c1.8,0,3.7-1.4,4.2-3.1L49.4,26
		C49.7,25,49.5,24,49,23.3z M26.6,23.3l0.3-0.7c0.1-0.4,0.5-0.7,0.9-0.7h12.8c0.4,0,0.6,0.3,0.5,0.7l-0.3,0.7
		c-0.1,0.4-0.5,0.7-0.9,0.7H27.1C26.7,24,26.5,23.7,26.6,23.3z M25,27.4l0.3-0.7c0.1-0.4,0.5-0.7,0.9-0.7H39c0.4,0,0.6,0.3,0.5,0.7
		l-0.3,0.7C39,27.7,38.6,28,38.3,28H25.5C25.1,28,24.9,27.7,25,27.4z"/>
</g>
</svg>
