<?xml version="1.0" encoding="utf-8"?>
<!-- Generator: Adobe Illustrator 19.0.1, SVG Export Plug-In . SVG Version: 6.00 Build 0)  -->
<svg version="1.1" xmlns="http://www.w3.org/2000/svg" xmlns:xlink="http://www.w3.org/1999/xlink" x="0px" y="0px"
	 viewBox="0 0 64 64" enable-background="new 0 0 64 64" xml:space="preserve">
<g id="Background">
	<rect fill="#589FD2" width="64" height="64"/>
</g>
<g id="Icon">
	<path fill="#FFFFFF" d="M37.8,51.1c-0.2,0-0.4-0.1-0.5-0.2c-0.2-0.2-0.2-0.3-0.2-0.5c0-0.2,0.1-0.4,0.2-0.5
		c0.2-0.2,0.3-0.2,0.5-0.2c0.2,0,0.4,0.1,0.5,0.2c0.2,0.2,0.2,0.3,0.2,0.5c0,0.2-0.1,0.4-0.2,0.5C38.2,51.1,38,51.1,37.8,51.1z
		 M44.3,43.8c-0.6-0.6-1.1-1.3-1.4-2.1L34.6,50c-0.3,0.3-0.5,0.7-0.5,1.1c0,0.4,0.2,0.8,0.5,1.1l1.3,1.3c0.3,0.3,0.7,0.5,1.1,0.5
		c0.4,0,0.8-0.2,1.1-0.5l8.3-8.3C45.6,44.9,44.9,44.5,44.3,43.8z M54.1,39.6c-0.1-0.1-0.2-0.1-0.3-0.1c-0.1,0-0.4,0.1-0.9,0.4
		c-0.5,0.3-1.1,0.6-1.7,1c-0.6,0.4-0.9,0.6-1,0.6L48,40.2v-2.7l3.6-2.1c0.1-0.1,0.2-0.2,0.2-0.3c0-0.1-0.1-0.3-0.2-0.3
		c-0.4-0.2-0.8-0.4-1.3-0.6c-0.5-0.1-1-0.2-1.5-0.2c-1.5,0-2.8,0.5-3.9,1.6c-1.1,1.1-1.6,2.4-1.6,3.9c0,1.5,0.5,2.8,1.6,3.9
		c1.1,1.1,2.4,1.6,3.9,1.6c1.1,0,2.2-0.3,3.2-1c1-0.7,1.6-1.6,2-2.6c0.2-0.5,0.3-1,0.3-1.3C54.2,39.8,54.1,39.7,54.1,39.6z"/>
	<path fill-rule="evenodd" clip-rule="evenodd" fill="#FFFFFF" d="M43.1,33.5c-1.6,1.6-2.5,3.7-2.5,6c0,0.2,0,0.5,0,0.7l-7.8,7.8
		c0,0,0,0.1-0.1,0.1h-9.7c-3.3,0-5.5-2-5.5-5.3c0-4.6,1.1-11.8,7.1-11.8c0.6,0,3.3,2.9,7.4,2.9c4,0,6.7-2.9,7.4-2.9
		c2,0,3.4,0.8,4.4,2C43.6,33.1,43.3,33.2,43.1,33.5z M32.1,32.2c-4.4,0-7.9-3.5-7.9-7.9s3.5-7.9,7.9-7.9s7.9,3.5,7.9,7.9
		S36.4,32.2,32.1,32.2z"/>
</g>
</svg>
