<svg xmlns="http://www.w3.org/2000/svg" viewBox="0 0 16 16"><g opacity=".5"><path fill="#EFEFEF" d="M2 0v16h12V4l-4-4H2z"/><path fill="#FFF" d="M10 4V0l4 4h-4z" opacity=".65"/><path fill="#212121" d="M13 5v5L9 5h4z" opacity=".2"/><path fill="#999" d="M2 0v16h12V4h-.012l.004-.008L10.008.006 10 .014V0H2zm1 1h6v4h4v10H3V1zm7 .412L12.586 4H10V1.412z"/></g><g><path fill="#C83C3C" d="M5 5h11v11H5V5z"/><path fill="#212121" d="M15 6v9H6V6h9m1-1H5v11h11V5z" opacity=".2"/><path fill="#FFF" d="M11 13l-4-2.5L11 8v2h3v1h-3z"/></g></svg>