<svg xmlns="http://www.w3.org/2000/svg" viewBox="0 0 16 16"><g><path fill="#AAA" d="M.4 4.5v-4h2l.9 1h2.3v3z"/><path fill="#666" d="M2.2 1l.6.7.3.3h2.1v2H.9V1h1.3m.4-1H0v5h6V1H3.4l-.8-1z"/></g><g><path fill="#AAA" d="M9.4 15.5v-4h2l.9 1h2.3v3z"/><path fill="#666" d="M11.2 12l.6.7.3.3h2.1v2H9.9v-3h1.3m.4-1H9v5h6v-4h-2.6l-.8-1z"/></g><path fill="#999" d="M3 14h1v1H3zM5 14h1v1H5z"/><g><path fill="#AAA" d="M7.4 9.5v-4h2l.9 1h2.3v3z"/><path fill="#666" d="M9.2 6l.6.7.3.3h2.1v2H7.9V6h1.3m.4-1H7v5h6V6h-2.6l-.8-1z"/></g><path fill="#999" d="M3 8h1v1H3zM1 8h1v1H1zM1 6h1v1H1zM3 10h1v1H3zM3 12h1v1H3zM5 8h1v1H5zM7 14h1v1H7z"/></svg>