<svg xmlns="http://www.w3.org/2000/svg" viewBox="2 -3 16 16"><path fill="#888" d="M2-1v12h12.69V.81H7.08L5.95-1H2z"/><g><path fill="#666" d="M7.15-3h-.3c-1.172 0-2.126.937-2.126 2.088v.825c0 .434.161.91.438 1.33a6.432 6.432 0 0 1-.875.333l-.117.033-.105.06c-.168.097-1.011.693-1.064 2.331L3 9h8V4c-.053-1.638-.897-2.234-1.066-2.331l-.105-.06-.117-.033a6.432 6.432 0 0 1-.875-.333c.277-.42.438-.897.438-1.33v-.825C9.276-2.063 8.322-3 7.15-3z"/><path fill="#FFC857" d="M9.438 2.538c-.637-.182-1.081-.432-1.525-.601-.049-.138-.153-.381-.164-.934.307-.305.527-.74.527-1.09v-.825C8.276-1.512 7.75-2 7.15-2h-.3c-.6 0-1.125.488-1.125 1.088v.825c0 .35.22.785.527 1.09-.01.553-.114.796-.164.934-.444.169-.888.419-1.525.601 0 0-.525.3-.562 1.462v4h6V4c-.039-1.162-.563-1.462-.563-1.462z"/><path fill="#AAD400" d="M9.438 2.538c-.633-.181-1.075-.428-1.515-.598.027.087.031.131-.022.185-.45.488-1.388.45-1.8 0-.055-.055-.044-.099-.011-.189-.444.169-.888.419-1.526.602 0 0-.525.3-.562 1.462v4h6V4c-.04-1.2-.564-1.462-.564-1.462z"/></g><g><path fill="#666" d="M11.15-2h-.3C9.678-2 8.724-1.063 8.724.088v.825c0 .434.161.91.438 1.33a6.432 6.432 0 0 1-.875.333l-.117.033-.105.06c-.168.097-1.011.693-1.064 2.331L7 10h8V5c-.053-1.638-.897-2.234-1.066-2.331l-.105-.06-.117-.033a6.432 6.432 0 0 1-.875-.333c.277-.42.438-.897.438-1.33V.088C13.276-1.063 12.322-2 11.15-2z"/><path fill="#FFC857" d="M13.438 3.538c-.637-.182-1.081-.432-1.525-.601-.049-.138-.153-.381-.164-.934.307-.305.527-.74.527-1.09V.088c0-.6-.526-1.088-1.126-1.088h-.3c-.6 0-1.125.488-1.125 1.088v.825c0 .35.22.785.527 1.09-.01.553-.114.796-.164.934-.444.169-.888.419-1.525.601 0 0-.525.3-.562 1.462v4h6V5c-.039-1.162-.563-1.462-.563-1.462z"/><path fill="#79A548" d="M13.438 3.538c-.633-.181-1.075-.428-1.515-.598.027.087.031.131-.022.185-.45.488-1.388.45-1.8 0-.055-.055-.044-.099-.011-.189-.444.169-.888.419-1.526.602 0 0-.525.3-.562 1.462v4h6V5c-.04-1.2-.564-1.462-.564-1.462z"/></g><path fill="#AAA" d="M10.26 3.08L8.55 4.4H4.53L2 11h12.96L18 3.08h-7.74z"/></svg>