<svg xmlns="http://www.w3.org/2000/svg" viewBox="0 0 16 16"><g><path fill="#999" d="M1 1v5.6l8.5 8.5 5.7-5.7L6.7 1H1zm2.5 2.5c.7-.7 1.8-.7 2.5 0S6.7 5.3 6 6s-1.8.7-2.5 0-.7-1.8 0-2.5z"/><path fill="#FFF" d="M2 2v4.2l7.5 7.5 4.2-4.2L6.2 2H2zm1.5 1.5c.7-.7 1.8-.7 2.5 0S6.7 5.3 6 6s-1.8.7-2.5 0-.7-1.8 0-2.5z"/><path fill="#999" d="M3.5 3.5c-.7.7-.7 1.8 0 2.5s1.8.7 2.5 0 .7-1.8 0-2.5-1.8-.7-2.5 0zm.7.7c.3-.3.8-.3 1.1 0s.3.8 0 1.1-.8.3-1.1 0c-.3-.4-.3-.8 0-1.1z"/><path fill="#FF8700" d="M6.117 8.566L8.592 6.09l3.535 3.535-2.475 2.475z"/></g></svg>