<svg xmlns="http://www.w3.org/2000/svg" viewBox="0 0 16 16"><g><path fill="#F32" d="M2 0v16h12V4l-4-4H2z"/><path fill="#FFF" d="M10 4V0l4 4h-4z" opacity=".65"/><path fill="#212121" d="M14 4v5l-4-5h4z" opacity=".15"/></g><g><path fill="#FFF" fill-rule="evenodd" d="M10.5 6.7c.2-.1.4-.1.7-.1V5c-1.1 0-2.1.4-2.8 1.3-.2.3-.4.7-.6 1.2l-.6 1.2c-.1.5-.3.9-.4 1.2-.2.4-.3.6-.5.8s-.4.4-.6.5c-.3.1-.5.2-.9.2V13c1.1 0 2.1-.4 2.8-1.3l.6-.9.4-1h1.8V8.2H9.2c.1-.3.2-.5.4-.7.1-.2.2-.4.4-.5.1-.1.3-.2.5-.3"/></g></svg>