<svg xmlns="http://www.w3.org/2000/svg" viewBox="0 0 16 16"><g><path fill="red" d="M2 0v16h12V4l-4-4H2z"/><path fill="#FFF" d="M10 4V0l4 4h-4z" opacity=".65"/><path fill="#212121" d="M14 4v5l-4-5h4z" opacity=".15"/></g><g><path fill="#FFF" d="M4.5 13c-.2 0-.4-.3-.4-.6-.3-1.2 1.2-1.5 1.8-1.7-.4.7.5-1 .6-1.1.2-.5.5-1 .7-1.5V8c-.2-.9-.5-2.2-.3-2.6.1-.1.4-.3.7-.4.2 0 .4.1.5.3.2.7.1 1.7-.2 2.3v.1c.2.6.6 1.2 1 1.6.2.1.4.3.6.4.5-.1.9-.1 1.3-.1.3 0 .5 0 .7.1.2 0 .3.1.4.2.1.1.1.2.2.3-.1.4-.3.6-.4.7-.3.1-.6 0-1-.1s-.9-.3-1.3-.5c-.9.1-2 .4-2.8.7-.4.7-.8 1.3-1.1 1.6-.2.2-.3.3-.5.4h-.5zm.1-.6c.1 0 .3-.1.5-.4.1-.1.4-.6.5-.7-.2.1-1.1.4-1.1.7 0 .2 0 .4.1.4zm7-1.9s0-.1 0 0c-.4-.4-1.1-.3-1.5-.3.4.2 1.3.4 1.5.3zm-4.8-.1c.6-.3 1.2-.4 1.8-.5h-.1c-.4-.3-.7-.7-1-1.1-.1.3-.5 1.1-.5 1.1-.1.2-.1.3-.2.5zM7.6 7c0-.1.1-.2.1-.4.1-.3 0-.9-.1-1-.1.1-.2.4-.2.5 0 .2.1.6.2.9z"/></g></svg>