<svg xmlns="http://www.w3.org/2000/svg" viewBox="0 0 16 16"><g><path fill="#6B7EB9" d="M2 0v16h12V4l-4-4H2z"/><path fill="#FFF" d="M10 4V0l4 4h-4z" opacity=".65"/><path fill="#212121" d="M14 4v5l-4-5h4z" opacity=".15"/></g><g fill="#FFF"><path d="M12 8.1c0 .3 0 .5-.1.7-.1.2-.1.4-.2.5-.1.2-.2.3-.4.4-.2.1-.3.2-.5.3v1H9.5V9.6c.1-.1.5-.1.6-.2.1-.1.2-.1.4-.3.1-.1.2-.2.3-.4.1-.1.1-.3.1-.5 0-.3-.1-.5-.2-.6-.1-.1-.3-.2-.5-.2-.1 0-.3 0-.5.1-.3.3-.4.4-.6.5H9V6.8c.1-.1.3-.1.6-.2s.5-.1.8-.1c.5 0 .9.1 1.2.4.3.3.4.7.4 1.2zM10.8 13H9.5v-1.2h1.3V13zM7.4 13L4 10.3v-1l3.4-2.7V8L5 9.8l2.4 1.8V13z"/></g></svg>