<svg xmlns="http://www.w3.org/2000/svg" viewBox="0 0 16 16"><path fill="#B9B9B9" d="M8 0C4.44 0 1.552 5.068 1.504 10h12.992C14.448 5.068 11.56 0 8 0zM1.533 11c.155 2.12.87 3.811 1.943 5h9.047c1.073-1.189 1.789-2.88 1.943-5H1.533z"/><path fill="#FFF" d="M8 1C4.962 1 2.5 5.51 2.5 9.859c0 2.217.643 3.96 1.672 5.141h7.655c1.03-1.18 1.672-2.924 1.672-5.141C13.5 5.51 11.038 1 8 1z"/><path fill="#FF8700" d="M2.5 10h11l-.05 1H2.55l-.05-1z"/><path fill="#8C8C8C" d="M7.5 6h1v3h-1V6z"/><path fill="#B9B9B9" d="M4 7h1v2H4V7zM11 7h1v2h-1V7z"/><path fill="#FF8700" d="M7.5 10.5h1V14h-1v-3.5z"/></svg>