<svg xmlns="http://www.w3.org/2000/svg" viewBox="0 0 16 16"><g><path fill="#951A40" d="M2 0v16h12V4l-4-4H2z"/><path fill="#FFF" d="M10 4V0l4 4h-4z" opacity=".65"/><path fill="#212121" d="M14 4v5l-4-5h4z" opacity=".15"/></g><g fill="#FFF"><path d="M11.8 6H4.3c-.2 0-.3.1-.3.3v1.5c0 .1.1.2.3.2h7.5c.1 0 .2-.1.2-.2V6.3c0-.2-.1-.3-.2-.3zm-1.3 1.5H10V7h.5v.5zm1 0H11V7h.5v.5zM11.8 9H4.3c-.2 0-.3.1-.3.3v1.5c0 .1.1.2.3.2h7.5c.1 0 .2-.1.2-.2V9.3c0-.2-.1-.3-.2-.3zm-1.3 1.5H10V10h.5v.5zm1 0H11V10h.5v.5zM11.8 12H4.3c-.2 0-.3.1-.3.3v1.5c0 .1.1.2.3.2h7.5c.1 0 .2-.1.2-.2v-1.5c0-.2-.1-.3-.2-.3zm-1.3 1.5H10V13h.5v.5zm1 0H11V13h.5v.5z"/></g></svg>