<svg xmlns="http://www.w3.org/2000/svg" viewBox="0 0 16 16"><g><path fill="#B9B9B9" d="M2 0v16h12V4l-4-4H2z"/><path fill="#FFF" d="M10 4V0l4 4h-4z" opacity=".65"/><path fill="#212121" d="M14 4v5l-4-5h4z" opacity=".15"/></g><g fill="#8C8C8C"><path d="M4 6h8v1H4zM4 8h8v1H4zM4 10h8v1H4zM4 12h8v1H4z"/></g><g><path fill="#FBB03B" d="M15.3 16H5.7c-.6 0-.9-.6-.7-1.1l4.8-9.1c.3-.5 1-.5 1.3 0l4.8 9.1c.3.5-.1 1.1-.6 1.1z"/><path fill="#212121" d="M10.5 6.7l4.3 8.3H6.2l4.3-8.3m0-1.3c-.3 0-.5.1-.7.4L5 14.9c-.2.5.2 1.1.7 1.1h9.5c.6 0 .9-.6.7-1.1l-4.8-9.1c-.1-.3-.3-.4-.6-.4z" opacity=".2"/><path fill="#FFF" d="M11 13v1h-1v-1h1zM11 9v3h-1V9h1z"/></g></svg>