<?xml version="1.0" encoding="utf-8"?>
<svg version="1.1" id="Ebene_1" xmlns="http://www.w3.org/2000/svg" xmlns:xlink="http://www.w3.org/1999/xlink" x="0px" y="0px"
	 viewBox="0 0 14 14" enable-background="new 0 0 14 14" xml:space="preserve">
<path d="M11.3,12H2.7c-0.5,0-0.9,0.4-0.9,0.9v0.1c0,0.5,0.4,0.9,0.9,0.9h8.6c0.5,0,0.9-0.4,0.9-0.9v-0.1C12.2,12.4,11.8,12,11.3,12z
	 M2.5,6.1c0.4,0.4,1,0.4,1.4,0l2-2v5.5c0,0.5,0.4,1,1,1h0.4c0.5,0,1-0.4,1-1V4.1l2,2c0.4,0.4,1,0.4,1.4,0l0.3-0.3
	c0.4-0.4,0.4-1,0-1.4L8,0.6c0,0,0-0.1-0.1-0.1L7.7,0.3C7.5,0.1,7.3,0,7,0C6.7,0,6.5,0.1,6.3,0.3L6,0.6c0,0,0,0-0.1,0.1L2.2,4.4
	c-0.4,0.4-0.4,1,0,1.4L2.5,6.1z"/>
</svg>